<?xml version="1.0" encoding="UTF-8" standalone="no"?>
<!DOCTYPE svg PUBLIC "-//W3C//DTD SVG 1.1//EN"
 "http://www.w3.org/Graphics/SVG/1.1/DTD/svg11.dtd">
<!-- Generated by graphviz version 2.26.3 (20100126.1600)
 -->
<!-- Title: src/analysis/utils/A2GeoAcceptance.cc Pages: 1 -->
<svg width="728pt" height="334pt"
 viewBox="0.00 0.00 727.74 334.00" xmlns="http://www.w3.org/2000/svg" xmlns:xlink="http://www.w3.org/1999/xlink">
<g id="graph1" class="graph" transform="scale(1 1) rotate(0) translate(4 330)">
<title>src/analysis/utils/A2GeoAcceptance.cc</title>
<polygon fill="white" stroke="white" points="-4,5 -4,-330 724.743,-330 724.743,5 -4,5"/>
<!-- Node1 -->
<g id="node1" class="node"><title>Node1</title>
<polygon fill="#bfbfbf" stroke="black" points="496.5,-291 496.5,-325 611.5,-325 611.5,-291 496.5,-291"/>
<text text-anchor="start" x="504.5" y="-312" font-family="Helvetica,sans-Serif" font-size="10.00">src/analysis/utils</text>
<text text-anchor="middle" x="554" y="-299" font-family="Helvetica,sans-Serif" font-size="10.00">/A2GeoAcceptance.cc</text>
</g>
<!-- Node2 -->
<g id="node3" class="node"><title>Node2</title>
<a xlink:href="_a2_geo_acceptance_8h.html" target="_top" xlink:title="A2GeoAcceptance.h">
<polygon fill="white" stroke="black" points="500.5,-232.5 500.5,-253.5 607.5,-253.5 607.5,-232.5 500.5,-232.5"/>
<text text-anchor="middle" x="554" y="-240.5" font-family="Helvetica,sans-Serif" font-size="10.00">A2GeoAcceptance.h</text>
</a>
</g>
<!-- Node1&#45;&gt;Node2 -->
<g id="edge2" class="edge"><title>Node1&#45;&gt;Node2</title>
<path fill="none" stroke="midnightblue" d="M554,-290.922C554,-282.67 554,-272.692 554,-263.982"/>
<polygon fill="midnightblue" stroke="midnightblue" points="557.5,-263.852 554,-253.852 550.5,-263.852 557.5,-263.852"/>
</g>
<!-- Node3 -->
<g id="node5" class="node"><title>Node3</title>
<a xlink:href="interval_8h.html" target="_top" xlink:title="base/interval.h">
<polygon fill="white" stroke="black" points="514,-174.5 514,-195.5 594,-195.5 594,-174.5 514,-174.5"/>
<text text-anchor="middle" x="554" y="-182.5" font-family="Helvetica,sans-Serif" font-size="10.00">base/interval.h</text>
</a>
</g>
<!-- Node2&#45;&gt;Node3 -->
<g id="edge4" class="edge"><title>Node2&#45;&gt;Node3</title>
<path fill="none" stroke="midnightblue" d="M554,-232.362C554,-224.922 554,-214.743 554,-205.728"/>
<polygon fill="midnightblue" stroke="midnightblue" points="557.5,-205.571 554,-195.571 550.5,-205.571 557.5,-205.571"/>
</g>
<!-- Node12 -->
<g id="node23" class="node"><title>Node12</title>
<polygon fill="white" stroke="#bfbfbf" points="611.5,-174.5 611.5,-195.5 664.5,-195.5 664.5,-174.5 611.5,-174.5"/>
<text text-anchor="middle" x="638" y="-182.5" font-family="Helvetica,sans-Serif" font-size="10.00">TMath.h</text>
</g>
<!-- Node2&#45;&gt;Node12 -->
<g id="edge22" class="edge"><title>Node2&#45;&gt;Node12</title>
<path fill="none" stroke="midnightblue" d="M569.407,-232.362C581.958,-223.696 599.892,-211.313 614.275,-201.382"/>
<polygon fill="midnightblue" stroke="midnightblue" points="616.45,-204.133 622.691,-195.571 612.473,-198.372 616.45,-204.133"/>
</g>
<!-- Node13 -->
<g id="node25" class="node"><title>Node13</title>
<a xlink:href="_detector__t_8h.html" target="_top" xlink:title="base/Detector_t.h">
<polygon fill="white" stroke="black" points="212.5,-174.5 212.5,-195.5 307.5,-195.5 307.5,-174.5 212.5,-174.5"/>
<text text-anchor="middle" x="260" y="-182.5" font-family="Helvetica,sans-Serif" font-size="10.00">base/Detector_t.h</text>
</a>
</g>
<!-- Node2&#45;&gt;Node13 -->
<g id="edge24" class="edge"><title>Node2&#45;&gt;Node13</title>
<path fill="none" stroke="midnightblue" d="M500.759,-232.497C448.992,-222.284 370.602,-206.819 317.449,-196.333"/>
<polygon fill="midnightblue" stroke="midnightblue" points="317.989,-192.873 307.5,-194.371 316.634,-199.74 317.989,-192.873"/>
</g>
<!-- Node4 -->
<g id="node7" class="node"><title>Node4</title>
<a xlink:href="printable_8h.html" target="_top" xlink:title="printable.h">
<polygon fill="white" stroke="black" points="224,-58.5 224,-79.5 286,-79.5 286,-58.5 224,-58.5"/>
<text text-anchor="middle" x="255" y="-66.5" font-family="Helvetica,sans-Serif" font-size="10.00">printable.h</text>
</a>
</g>
<!-- Node3&#45;&gt;Node4 -->
<g id="edge6" class="edge"><title>Node3&#45;&gt;Node4</title>
<path fill="none" stroke="midnightblue" d="M594.187,-175.909C639.417,-165.276 707.598,-147.872 715,-138 720.866,-130.177 721.553,-123.257 715,-116 687.176,-85.1883 403.962,-73.4829 296.263,-70.1245"/>
<polygon fill="midnightblue" stroke="midnightblue" points="296.205,-66.6213 286.103,-69.8164 295.993,-73.6181 296.205,-66.6213"/>
</g>
<!-- Node7 -->
<g id="node13" class="node"><title>Node7</title>
<a xlink:href="types_8h.html" target="_top" xlink:title="types.h">
<polygon fill="white" stroke="black" points="459.5,-116.5 459.5,-137.5 508.5,-137.5 508.5,-116.5 459.5,-116.5"/>
<text text-anchor="middle" x="484" y="-124.5" font-family="Helvetica,sans-Serif" font-size="10.00">types.h</text>
</a>
</g>
<!-- Node3&#45;&gt;Node7 -->
<g id="edge12" class="edge"><title>Node3&#45;&gt;Node7</title>
<path fill="none" stroke="midnightblue" d="M541.161,-174.362C530.998,-165.941 516.599,-154.011 504.796,-144.231"/>
<polygon fill="midnightblue" stroke="midnightblue" points="506.691,-141.256 496.758,-137.571 502.225,-146.646 506.691,-141.256"/>
</g>
<!-- Node8 -->
<g id="node15" class="node"><title>Node8</title>
<polygon fill="white" stroke="#bfbfbf" points="526,-116.5 526,-137.5 582,-137.5 582,-116.5 526,-116.5"/>
<text text-anchor="middle" x="554" y="-124.5" font-family="Helvetica,sans-Serif" font-size="10.00">algorithm</text>
</g>
<!-- Node3&#45;&gt;Node8 -->
<g id="edge14" class="edge"><title>Node3&#45;&gt;Node8</title>
<path fill="none" stroke="midnightblue" d="M554,-174.362C554,-166.922 554,-156.743 554,-147.728"/>
<polygon fill="midnightblue" stroke="midnightblue" points="557.5,-147.571 554,-137.571 550.5,-147.571 557.5,-147.571"/>
</g>
<!-- Node9 -->
<g id="node17" class="node"><title>Node9</title>
<polygon fill="white" stroke="#bfbfbf" points="383.5,-116.5 383.5,-137.5 442.5,-137.5 442.5,-116.5 383.5,-116.5"/>
<text text-anchor="middle" x="413" y="-124.5" font-family="Helvetica,sans-Serif" font-size="10.00">stdexcept</text>
</g>
<!-- Node3&#45;&gt;Node9 -->
<g id="edge16" class="edge"><title>Node3&#45;&gt;Node9</title>
<path fill="none" stroke="midnightblue" d="M528.466,-174.497C506.047,-165.275 473.215,-151.769 448.287,-141.515"/>
<polygon fill="midnightblue" stroke="midnightblue" points="449.4,-138.189 438.821,-137.621 446.737,-144.662 449.4,-138.189"/>
</g>
<!-- Node10 -->
<g id="node19" class="node"><title>Node10</title>
<polygon fill="white" stroke="#bfbfbf" points="600,-116.5 600,-137.5 640,-137.5 640,-116.5 600,-116.5"/>
<text text-anchor="middle" x="620" y="-124.5" font-family="Helvetica,sans-Serif" font-size="10.00">limits</text>
</g>
<!-- Node3&#45;&gt;Node10 -->
<g id="edge18" class="edge"><title>Node3&#45;&gt;Node10</title>
<path fill="none" stroke="midnightblue" d="M566.105,-174.362C575.688,-165.941 589.264,-154.011 600.393,-144.231"/>
<polygon fill="midnightblue" stroke="midnightblue" points="602.77,-146.801 607.971,-137.571 598.149,-141.543 602.77,-146.801"/>
</g>
<!-- Node11 -->
<g id="node21" class="node"><title>Node11</title>
<polygon fill="white" stroke="#bfbfbf" points="657.5,-116.5 657.5,-137.5 706.5,-137.5 706.5,-116.5 657.5,-116.5"/>
<text text-anchor="middle" x="682" y="-124.5" font-family="Helvetica,sans-Serif" font-size="10.00">istream</text>
</g>
<!-- Node3&#45;&gt;Node11 -->
<g id="edge20" class="edge"><title>Node3&#45;&gt;Node11</title>
<path fill="none" stroke="midnightblue" d="M577.18,-174.497C597.352,-165.356 626.81,-152.008 649.364,-141.788"/>
<polygon fill="midnightblue" stroke="midnightblue" points="650.896,-144.937 658.56,-137.621 648.007,-138.561 650.896,-144.937"/>
</g>
<!-- Node5 -->
<g id="node9" class="node"><title>Node5</title>
<polygon fill="white" stroke="#bfbfbf" points="174,-0.5 174,-21.5 218,-21.5 218,-0.5 174,-0.5"/>
<text text-anchor="middle" x="196" y="-8.5" font-family="Helvetica,sans-Serif" font-size="10.00">vector</text>
</g>
<!-- Node4&#45;&gt;Node5 -->
<g id="edge8" class="edge"><title>Node4&#45;&gt;Node5</title>
<path fill="none" stroke="midnightblue" d="M244.178,-58.3619C235.779,-50.1043 223.946,-38.4725 214.11,-28.8029"/>
<polygon fill="midnightblue" stroke="midnightblue" points="216.338,-26.0851 206.753,-21.5707 211.431,-31.077 216.338,-26.0851"/>
</g>
<!-- Node6 -->
<g id="node11" class="node"><title>Node6</title>
<polygon fill="white" stroke="#bfbfbf" points="236,-0.5 236,-21.5 288,-21.5 288,-0.5 236,-0.5"/>
<text text-anchor="middle" x="262" y="-8.5" font-family="Helvetica,sans-Serif" font-size="10.00">ostream</text>
</g>
<!-- Node4&#45;&gt;Node6 -->
<g id="edge10" class="edge"><title>Node4&#45;&gt;Node6</title>
<path fill="none" stroke="midnightblue" d="M256.284,-58.3619C257.182,-50.9219 258.41,-40.7427 259.498,-31.7276"/>
<polygon fill="midnightblue" stroke="midnightblue" points="263.001,-31.918 260.724,-21.5707 256.051,-31.0792 263.001,-31.918"/>
</g>
<!-- Node13&#45;&gt;Node4 -->
<g id="edge26" class="edge"><title>Node13&#45;&gt;Node4</title>
<path fill="none" stroke="midnightblue" d="M257.931,-174.224C256.22,-164.73 253.926,-150.505 253,-138 251.811,-121.94 252.421,-103.729 253.269,-90.0498"/>
<polygon fill="midnightblue" stroke="midnightblue" points="256.782,-89.9959 254.004,-79.7719 249.8,-89.497 256.782,-89.9959"/>
</g>
<!-- Node13&#45;&gt;Node5 -->
<g id="edge46" class="edge"><title>Node13&#45;&gt;Node5</title>
<path fill="none" stroke="midnightblue" d="M254.912,-174.458C246.012,-155.749 227.387,-115.378 215,-80 209.427,-64.0843 204.423,-45.6509 200.951,-31.8426"/>
<polygon fill="midnightblue" stroke="midnightblue" points="204.293,-30.7759 198.513,-21.8966 197.495,-32.4424 204.293,-30.7759"/>
</g>
<!-- Node13&#45;&gt;Node9 -->
<g id="edge40" class="edge"><title>Node13&#45;&gt;Node9</title>
<path fill="none" stroke="midnightblue" d="M287.707,-174.497C312.326,-165.164 348.517,-151.445 375.68,-141.147"/>
<polygon fill="midnightblue" stroke="midnightblue" points="377.131,-144.341 385.241,-137.523 374.65,-137.795 377.131,-144.341"/>
</g>
<!-- Node14 -->
<g id="node28" class="node"><title>Node14</title>
<a xlink:href="vec3_8h.html" target="_top" xlink:title="base/vec/vec3.h">
<polygon fill="white" stroke="black" points="79.5,-116.5 79.5,-137.5 168.5,-137.5 168.5,-116.5 79.5,-116.5"/>
<text text-anchor="middle" x="124" y="-124.5" font-family="Helvetica,sans-Serif" font-size="10.00">base/vec/vec3.h</text>
</a>
</g>
<!-- Node13&#45;&gt;Node14 -->
<g id="edge28" class="edge"><title>Node13&#45;&gt;Node14</title>
<path fill="none" stroke="midnightblue" d="M235.371,-174.497C213.843,-165.315 182.36,-151.889 158.355,-141.652"/>
<polygon fill="midnightblue" stroke="midnightblue" points="159.476,-138.325 148.905,-137.621 156.73,-144.764 159.476,-138.325"/>
</g>
<!-- Node17 -->
<g id="node36" class="node"><title>Node17</title>
<polygon fill="white" stroke="#bfbfbf" points="262,-116.5 262,-137.5 308,-137.5 308,-116.5 262,-116.5"/>
<text text-anchor="middle" x="285" y="-124.5" font-family="Helvetica,sans-Serif" font-size="10.00">cstdint</text>
</g>
<!-- Node13&#45;&gt;Node17 -->
<g id="edge38" class="edge"><title>Node13&#45;&gt;Node17</title>
<path fill="none" stroke="midnightblue" d="M264.585,-174.362C267.898,-166.677 272.47,-156.069 276.448,-146.84"/>
<polygon fill="midnightblue" stroke="midnightblue" points="279.699,-148.139 280.444,-137.571 273.271,-145.368 279.699,-148.139"/>
</g>
<!-- Node18 -->
<g id="node39" class="node"><title>Node18</title>
<polygon fill="white" stroke="#bfbfbf" points="325.5,-116.5 325.5,-137.5 366.5,-137.5 366.5,-116.5 325.5,-116.5"/>
<text text-anchor="middle" x="346" y="-124.5" font-family="Helvetica,sans-Serif" font-size="10.00">string</text>
</g>
<!-- Node13&#45;&gt;Node18 -->
<g id="edge42" class="edge"><title>Node13&#45;&gt;Node18</title>
<path fill="none" stroke="midnightblue" d="M275.774,-174.362C288.624,-165.696 306.985,-153.313 321.71,-143.382"/>
<polygon fill="midnightblue" stroke="midnightblue" points="323.993,-146.064 330.326,-137.571 320.079,-140.26 323.993,-146.064"/>
</g>
<!-- Node19 -->
<g id="node41" class="node"><title>Node19</title>
<polygon fill="white" stroke="#bfbfbf" points="0,-116.5 0,-137.5 62,-137.5 62,-116.5 0,-116.5"/>
<text text-anchor="middle" x="31" y="-124.5" font-family="Helvetica,sans-Serif" font-size="10.00">type_traits</text>
</g>
<!-- Node13&#45;&gt;Node19 -->
<g id="edge44" class="edge"><title>Node13&#45;&gt;Node19</title>
<path fill="none" stroke="midnightblue" d="M216.383,-174.476C180.199,-165.673 127.15,-152.601 72.3161,-138.307"/>
<polygon fill="midnightblue" stroke="midnightblue" points="72.9834,-134.864 62.4232,-135.72 71.2123,-141.636 72.9834,-134.864"/>
</g>
<!-- Node14&#45;&gt;Node4 -->
<g id="edge30" class="edge"><title>Node14&#45;&gt;Node4</title>
<path fill="none" stroke="midnightblue" d="M147.723,-116.497C168.368,-107.356 198.516,-94.0082 221.599,-83.7883"/>
<polygon fill="midnightblue" stroke="midnightblue" points="223.284,-86.8701 231.011,-79.6212 220.45,-80.4694 223.284,-86.8701"/>
</g>
<!-- Node15 -->
<g id="node31" class="node"><title>Node15</title>
<a xlink:href="vec2_8h.html" target="_top" xlink:title="vec2.h">
<polygon fill="white" stroke="black" points="67,-58.5 67,-79.5 113,-79.5 113,-58.5 67,-58.5"/>
<text text-anchor="middle" x="90" y="-66.5" font-family="Helvetica,sans-Serif" font-size="10.00">vec2.h</text>
</a>
</g>
<!-- Node14&#45;&gt;Node15 -->
<g id="edge32" class="edge"><title>Node14&#45;&gt;Node15</title>
<path fill="none" stroke="midnightblue" d="M117.764,-116.362C113.163,-108.513 106.775,-97.6159 101.286,-88.2527"/>
<polygon fill="midnightblue" stroke="midnightblue" points="104.273,-86.4276 96.1966,-79.5707 98.2344,-89.9677 104.273,-86.4276"/>
</g>
<!-- Node16 -->
<g id="node33" class="node"><title>Node16</title>
<polygon fill="white" stroke="#bfbfbf" points="81,-0.5 81,-21.5 125,-21.5 125,-0.5 81,-0.5"/>
<text text-anchor="middle" x="103" y="-8.5" font-family="Helvetica,sans-Serif" font-size="10.00">cmath</text>
</g>
<!-- Node14&#45;&gt;Node16 -->
<g id="edge36" class="edge"><title>Node14&#45;&gt;Node16</title>
<path fill="none" stroke="midnightblue" d="M124.861,-116.105C125.677,-102.387 126.228,-78.1746 122,-58 120.075,-48.8138 116.457,-39.1252 112.89,-30.9468"/>
<polygon fill="midnightblue" stroke="midnightblue" points="116.059,-29.4602 108.682,-21.8551 109.706,-32.4004 116.059,-29.4602"/>
</g>
<!-- Node15&#45;&gt;Node16 -->
<g id="edge34" class="edge"><title>Node15&#45;&gt;Node16</title>
<path fill="none" stroke="midnightblue" d="M92.3844,-58.3619C94.0703,-50.8401 96.3837,-40.5187 98.4207,-31.4308"/>
<polygon fill="midnightblue" stroke="midnightblue" points="101.859,-32.0941 100.631,-21.5707 95.0283,-30.563 101.859,-32.0941"/>
</g>
</g>
</svg>
