<?xml version="1.0" encoding="UTF-8" standalone="no"?>
<!DOCTYPE svg PUBLIC "-//W3C//DTD SVG 1.1//EN"
 "http://www.w3.org/Graphics/SVG/1.1/DTD/svg11.dtd">
<!-- Generated by graphviz version 2.26.3 (20100126.1600)
 -->
<!-- Title: src/analysis/slowcontrol/processors/AcquScalerProcessor.h Pages: 1 -->
<svg width="498pt" height="332pt"
 viewBox="0.00 0.00 498.00 332.00" xmlns="http://www.w3.org/2000/svg" xmlns:xlink="http://www.w3.org/1999/xlink">
<g id="graph1" class="graph" transform="scale(1 1) rotate(0) translate(4 328)">
<title>src/analysis/slowcontrol/processors/AcquScalerProcessor.h</title>
<polygon fill="white" stroke="white" points="-4,5 -4,-328 495,-328 495,5 -4,5"/>
<!-- Node1 -->
<g id="node1" class="node"><title>Node1</title>
<polygon fill="#bfbfbf" stroke="black" points="179.5,-289 179.5,-323 352.5,-323 352.5,-289 179.5,-289"/>
<text text-anchor="start" x="187.5" y="-310" font-family="Helvetica,sans-Serif" font-size="10.00">src/analysis/slowcontrol</text>
<text text-anchor="middle" x="266" y="-297" font-family="Helvetica,sans-Serif" font-size="10.00">/processors/AcquScalerProcessor.h</text>
</g>
<!-- Node2 -->
<g id="node3" class="node"><title>Node2</title>
<a xlink:href="_beampolmon_8h.html" target="_top" xlink:title="src/analysis/slowcontrol\l/processors/Beampolmon.h">
<polygon fill="white" stroke="black" points="121,-217 121,-251 257,-251 257,-217 121,-217"/>
<text text-anchor="start" x="129" y="-238" font-family="Helvetica,sans-Serif" font-size="10.00">src/analysis/slowcontrol</text>
<text text-anchor="middle" x="189" y="-225" font-family="Helvetica,sans-Serif" font-size="10.00">/processors/Beampolmon.h</text>
</a>
</g>
<!-- Node1&#45;&gt;Node2 -->
<g id="edge2" class="edge"><title>Node1&#45;&gt;Node2</title>
<path fill="none" stroke="midnightblue" d="M240.235,-281.908C229.472,-271.844 217.212,-260.38 207.384,-251.19"/>
<polygon fill="midnightblue" stroke="midnightblue" points="238.057,-284.664 247.752,-288.937 242.838,-279.551 238.057,-284.664"/>
</g>
<!-- Node9 -->
<g id="node17" class="node"><title>Node9</title>
<a xlink:href="_e_p_t___scalers_8h.html" target="_top" xlink:title="src/analysis/slowcontrol\l/processors/EPT_Scalers.h">
<polygon fill="white" stroke="black" points="274.5,-217 274.5,-251 411.5,-251 411.5,-217 274.5,-217"/>
<text text-anchor="start" x="282.5" y="-238" font-family="Helvetica,sans-Serif" font-size="10.00">src/analysis/slowcontrol</text>
<text text-anchor="middle" x="343" y="-225" font-family="Helvetica,sans-Serif" font-size="10.00">/processors/EPT_Scalers.h</text>
</a>
</g>
<!-- Node1&#45;&gt;Node9 -->
<g id="edge16" class="edge"><title>Node1&#45;&gt;Node9</title>
<path fill="none" stroke="midnightblue" d="M291.765,-281.908C302.528,-271.844 314.788,-260.38 324.616,-251.19"/>
<polygon fill="midnightblue" stroke="midnightblue" points="289.162,-279.551 284.248,-288.937 293.943,-284.664 289.162,-279.551"/>
</g>
<!-- Node3 -->
<g id="node5" class="node"><title>Node3</title>
<a xlink:href="_slow_control_processors_8h.html" target="_top" xlink:title="src/analysis/slowcontrol\l/SlowControlProcessors.h">
<polygon fill="white" stroke="black" points="200.5,-145 200.5,-179 331.5,-179 331.5,-145 200.5,-145"/>
<text text-anchor="start" x="208.5" y="-166" font-family="Helvetica,sans-Serif" font-size="10.00">src/analysis/slowcontrol</text>
<text text-anchor="middle" x="266" y="-153" font-family="Helvetica,sans-Serif" font-size="10.00">/SlowControlProcessors.h</text>
</a>
</g>
<!-- Node2&#45;&gt;Node3 -->
<g id="edge4" class="edge"><title>Node2&#45;&gt;Node3</title>
<path fill="none" stroke="midnightblue" d="M214.765,-209.908C225.528,-199.844 237.788,-188.38 247.616,-179.19"/>
<polygon fill="midnightblue" stroke="midnightblue" points="212.162,-207.551 207.248,-216.937 216.943,-212.664 212.162,-207.551"/>
</g>
<!-- Node4 -->
<g id="node7" class="node"><title>Node4</title>
<a xlink:href="_slow_control_manager_8h.html" target="_top" xlink:title="src/analysis/slowcontrol\l/SlowControlManager.h">
<polygon fill="white" stroke="black" points="58,-73 58,-107 180,-107 180,-73 58,-73"/>
<text text-anchor="start" x="66" y="-94" font-family="Helvetica,sans-Serif" font-size="10.00">src/analysis/slowcontrol</text>
<text text-anchor="middle" x="119" y="-81" font-family="Helvetica,sans-Serif" font-size="10.00">/SlowControlManager.h</text>
</a>
</g>
<!-- Node3&#45;&gt;Node4 -->
<g id="edge6" class="edge"><title>Node3&#45;&gt;Node4</title>
<path fill="none" stroke="midnightblue" d="M222.095,-140.495C200.272,-129.807 174.272,-117.072 153.841,-107.065"/>
<polygon fill="midnightblue" stroke="midnightblue" points="220.643,-143.681 231.163,-144.937 223.722,-137.395 220.643,-143.681"/>
</g>
<!-- Node7 -->
<g id="node13" class="node"><title>Node7</title>
<a xlink:href="_slow_control_processors_8cc.html" target="_top" xlink:title="src/analysis/slowcontrol\l/SlowControlProcessors.cc">
<polygon fill="white" stroke="black" points="198,-73 198,-107 334,-107 334,-73 198,-73"/>
<text text-anchor="start" x="206" y="-94" font-family="Helvetica,sans-Serif" font-size="10.00">src/analysis/slowcontrol</text>
<text text-anchor="middle" x="266" y="-81" font-family="Helvetica,sans-Serif" font-size="10.00">/SlowControlProcessors.cc</text>
</a>
</g>
<!-- Node3&#45;&gt;Node7 -->
<g id="edge12" class="edge"><title>Node3&#45;&gt;Node7</title>
<path fill="none" stroke="midnightblue" d="M266,-134.719C266,-125.572 266,-115.625 266,-107.441"/>
<polygon fill="midnightblue" stroke="midnightblue" points="262.5,-134.937 266,-144.937 269.5,-134.937 262.5,-134.937"/>
</g>
<!-- Node8 -->
<g id="node15" class="node"><title>Node8</title>
<a xlink:href="_tagger_scalers_8cc.html" target="_top" xlink:title="src/analysis/slowcontrol\l/variables/TaggerScalers.cc">
<polygon fill="white" stroke="black" points="352,-73 352,-107 490,-107 490,-73 352,-73"/>
<text text-anchor="start" x="360" y="-94" font-family="Helvetica,sans-Serif" font-size="10.00">src/analysis/slowcontrol</text>
<text text-anchor="middle" x="421" y="-81" font-family="Helvetica,sans-Serif" font-size="10.00">/variables/TaggerScalers.cc</text>
</a>
</g>
<!-- Node3&#45;&gt;Node8 -->
<g id="edge14" class="edge"><title>Node3&#45;&gt;Node8</title>
<path fill="none" stroke="midnightblue" d="M311.987,-140.638C335.06,-129.921 362.624,-117.117 384.263,-107.065"/>
<polygon fill="midnightblue" stroke="midnightblue" points="310.328,-137.55 302.733,-144.937 313.277,-143.898 310.328,-137.55"/>
</g>
<!-- Node5 -->
<g id="node9" class="node"><title>Node5</title>
<a xlink:href="_physics_manager_8cc.html" target="_top" xlink:title="src/analysis/physics\l/PhysicsManager.cc">
<polygon fill="white" stroke="black" points="0,-1 0,-35 106,-35 106,-1 0,-1"/>
<text text-anchor="start" x="8" y="-22" font-family="Helvetica,sans-Serif" font-size="10.00">src/analysis/physics</text>
<text text-anchor="middle" x="53" y="-9" font-family="Helvetica,sans-Serif" font-size="10.00">/PhysicsManager.cc</text>
</a>
</g>
<!-- Node4&#45;&gt;Node5 -->
<g id="edge8" class="edge"><title>Node4&#45;&gt;Node5</title>
<path fill="none" stroke="midnightblue" d="M96.4303,-65.3785C87.407,-55.5349 77.224,-44.4262 68.9873,-35.4407"/>
<polygon fill="midnightblue" stroke="midnightblue" points="94.0216,-67.9305 103.359,-72.937 99.1817,-63.2004 94.0216,-67.9305"/>
</g>
<!-- Node6 -->
<g id="node11" class="node"><title>Node6</title>
<a xlink:href="_slow_control_manager_8cc.html" target="_top" xlink:title="src/analysis/slowcontrol\l/SlowControlManager.cc">
<polygon fill="white" stroke="black" points="124,-1 124,-35 248,-35 248,-1 124,-1"/>
<text text-anchor="start" x="132" y="-22" font-family="Helvetica,sans-Serif" font-size="10.00">src/analysis/slowcontrol</text>
<text text-anchor="middle" x="186" y="-9" font-family="Helvetica,sans-Serif" font-size="10.00">/SlowControlManager.cc</text>
</a>
</g>
<!-- Node4&#45;&gt;Node6 -->
<g id="edge10" class="edge"><title>Node4&#45;&gt;Node6</title>
<path fill="none" stroke="midnightblue" d="M141.912,-65.3785C151.072,-55.5349 161.409,-44.4262 169.77,-35.4407"/>
<polygon fill="midnightblue" stroke="midnightblue" points="139.128,-63.232 134.878,-72.937 144.253,-68.0006 139.128,-63.232"/>
</g>
<!-- Node9&#45;&gt;Node3 -->
<g id="edge18" class="edge"><title>Node9&#45;&gt;Node3</title>
<path fill="none" stroke="midnightblue" d="M317.235,-209.908C306.472,-199.844 294.212,-188.38 284.384,-179.19"/>
<polygon fill="midnightblue" stroke="midnightblue" points="315.057,-212.664 324.752,-216.937 319.838,-207.551 315.057,-212.664"/>
</g>
</g>
</svg>
