<?xml version="1.0" encoding="UTF-8" standalone="no"?>
<!DOCTYPE svg PUBLIC "-//W3C//DTD SVG 1.1//EN"
 "http://www.w3.org/Graphics/SVG/1.1/DTD/svg11.dtd">
<!-- Generated by graphviz version 2.26.3 (20100126.1600)
 -->
<!-- Title: progs/Ant&#45;calib&#45;regedit.cc Pages: 1 -->
<svg width="3872pt" height="334pt"
 viewBox="0.00 0.00 3872.00 334.00" xmlns="http://www.w3.org/2000/svg" xmlns:xlink="http://www.w3.org/1999/xlink">
<g id="graph1" class="graph" transform="scale(1 1) rotate(0) translate(4 330)">
<title>progs/Ant&#45;calib&#45;regedit.cc</title>
<polygon fill="white" stroke="white" points="-4,5 -4,-330 3869,-330 3869,5 -4,5"/>
<!-- Node1 -->
<g id="node1" class="node"><title>Node1</title>
<polygon fill="#bfbfbf" stroke="black" points="2442,-304.5 2442,-325.5 2570,-325.5 2570,-304.5 2442,-304.5"/>
<text text-anchor="middle" x="2506" y="-312.5" font-family="Helvetica,sans-Serif" font-size="10.00">progs/Ant&#45;calib&#45;regedit.cc</text>
</g>
<!-- Node2 -->
<g id="node3" class="node"><title>Node2</title>
<a xlink:href="_logger_8h.html" target="_top" xlink:title="base/Logger.h">
<polygon fill="white" stroke="black" points="1488,-246.5 1488,-267.5 1566,-267.5 1566,-246.5 1488,-246.5"/>
<text text-anchor="middle" x="1527" y="-254.5" font-family="Helvetica,sans-Serif" font-size="10.00">base/Logger.h</text>
</a>
</g>
<!-- Node1&#45;&gt;Node2 -->
<g id="edge2" class="edge"><title>Node1&#45;&gt;Node2</title>
<path fill="none" stroke="midnightblue" d="M2441.77,-311.194C2259.03,-300.368 1739,-269.56 1576.29,-259.92"/>
<polygon fill="midnightblue" stroke="midnightblue" points="1576.29,-256.414 1566.1,-259.316 1575.87,-263.402 1576.29,-256.414"/>
</g>
<!-- Node4 -->
<g id="node7" class="node"><title>Node4</title>
<a xlink:href="_cmd_line_8h.html" target="_top" xlink:title="base/CmdLine.h">
<polygon fill="white" stroke="black" points="1452,-188.5 1452,-209.5 1540,-209.5 1540,-188.5 1452,-188.5"/>
<text text-anchor="middle" x="1496" y="-196.5" font-family="Helvetica,sans-Serif" font-size="10.00">base/CmdLine.h</text>
</a>
</g>
<!-- Node1&#45;&gt;Node4 -->
<g id="edge6" class="edge"><title>Node1&#45;&gt;Node4</title>
<path fill="none" stroke="midnightblue" d="M2441.67,-307.612C2256.12,-286.301 1722.26,-224.986 1550.16,-205.221"/>
<polygon fill="midnightblue" stroke="midnightblue" points="1550.41,-201.726 1540.08,-204.062 1549.61,-208.681 1550.41,-201.726"/>
</g>
<!-- Node21 -->
<g id="node41" class="node"><title>Node21</title>
<polygon fill="white" stroke="#bfbfbf" points="2106,-123.5 2106,-144.5 2160,-144.5 2160,-123.5 2106,-123.5"/>
<text text-anchor="middle" x="2133" y="-131.5" font-family="Helvetica,sans-Serif" font-size="10.00">iostream</text>
</g>
<!-- Node1&#45;&gt;Node21 -->
<g id="edge152" class="edge"><title>Node1&#45;&gt;Node21</title>
<path fill="none" stroke="midnightblue" d="M2477.5,-304.493C2430.73,-286.91 2335.19,-249.542 2258,-210 2221.76,-191.437 2181.89,-166.32 2157.15,-150.136"/>
<polygon fill="midnightblue" stroke="midnightblue" points="2159.03,-147.184 2148.75,-144.607 2155.18,-153.03 2159.03,-147.184"/>
</g>
<!-- Node26 -->
<g id="node51" class="node"><title>Node26</title>
<a xlink:href="system_8h.html" target="_top" xlink:title="base/std_ext/system.h">
<polygon fill="white" stroke="black" points="2267,-188.5 2267,-209.5 2383,-209.5 2383,-188.5 2267,-188.5"/>
<text text-anchor="middle" x="2325" y="-196.5" font-family="Helvetica,sans-Serif" font-size="10.00">base/std_ext/system.h</text>
</a>
</g>
<!-- Node1&#45;&gt;Node26 -->
<g id="edge50" class="edge"><title>Node1&#45;&gt;Node26</title>
<path fill="none" stroke="midnightblue" d="M2489.3,-304.295C2457.43,-283.871 2387.79,-239.238 2350.22,-215.162"/>
<polygon fill="midnightblue" stroke="midnightblue" points="2351.71,-211.961 2341.4,-209.512 2347.93,-217.854 2351.71,-211.961"/>
</g>
<!-- Node27 -->
<g id="node55" class="node"><title>Node27</title>
<a xlink:href="string_8h.html" target="_top" xlink:title="base/std_ext/string.h">
<polygon fill="white" stroke="black" points="3206,-58.5 3206,-79.5 3314,-79.5 3314,-58.5 3206,-58.5"/>
<text text-anchor="middle" x="3260" y="-66.5" font-family="Helvetica,sans-Serif" font-size="10.00">base/std_ext/string.h</text>
</a>
</g>
<!-- Node1&#45;&gt;Node27 -->
<g id="edge56" class="edge"><title>Node1&#45;&gt;Node27</title>
<path fill="none" stroke="midnightblue" d="M2570.01,-311.882C2704.79,-304.973 3009,-287.437 3052,-268 3142.6,-227.041 3218.01,-129.554 3247.11,-88.1397"/>
<polygon fill="midnightblue" stroke="midnightblue" points="3250.1,-89.9703 3252.91,-79.7541 3244.35,-85.99 3250.1,-89.9703"/>
</g>
<!-- Node29 -->
<g id="node62" class="node"><title>Node29</title>
<a xlink:href="_wrap_t_file_8h.html" target="_top" xlink:title="base/WrapTFile.h">
<polygon fill="white" stroke="black" points="3288,-188.5 3288,-209.5 3382,-209.5 3382,-188.5 3288,-188.5"/>
<text text-anchor="middle" x="3335" y="-196.5" font-family="Helvetica,sans-Serif" font-size="10.00">base/WrapTFile.h</text>
</a>
</g>
<!-- Node1&#45;&gt;Node29 -->
<g id="edge66" class="edge"><title>Node1&#45;&gt;Node29</title>
<path fill="none" stroke="midnightblue" d="M2570.18,-313.861C2716.86,-310.727 3072.86,-299.973 3188,-268 3208.68,-262.256 3211.66,-255.312 3231,-246 3254.27,-234.796 3280.81,-222.816 3301.25,-213.755"/>
<polygon fill="midnightblue" stroke="midnightblue" points="3302.74,-216.926 3310.47,-209.684 3299.91,-210.523 3302.74,-216.926"/>
</g>
<!-- Node40 -->
<g id="node90" class="node"><title>Node40</title>
<a xlink:href="_t_calibration_data_8h.html" target="_top" xlink:title="tree/TCalibrationData.h">
<polygon fill="white" stroke="black" points="2925,-246.5 2925,-267.5 3043,-267.5 3043,-246.5 2925,-246.5"/>
<text text-anchor="middle" x="2984" y="-254.5" font-family="Helvetica,sans-Serif" font-size="10.00">tree/TCalibrationData.h</text>
</a>
</g>
<!-- Node1&#45;&gt;Node40 -->
<g id="edge100" class="edge"><title>Node1&#45;&gt;Node40</title>
<path fill="none" stroke="midnightblue" d="M2570.47,-307.178C2660.24,-296.285 2822.26,-276.626 2914.6,-265.421"/>
<polygon fill="midnightblue" stroke="midnightblue" points="2915.18,-268.877 2924.68,-264.198 2914.33,-261.928 2915.18,-268.877"/>
</g>
<!-- Node52 -->
<g id="node123" class="node"><title>Node52</title>
<a xlink:href="_t_ant_header_8h.html" target="_top" xlink:title="tree/TAntHeader.h">
<polygon fill="white" stroke="black" points="2457.5,-246.5 2457.5,-267.5 2554.5,-267.5 2554.5,-246.5 2457.5,-246.5"/>
<text text-anchor="middle" x="2506" y="-254.5" font-family="Helvetica,sans-Serif" font-size="10.00">tree/TAntHeader.h</text>
</a>
</g>
<!-- Node1&#45;&gt;Node52 -->
<g id="edge142" class="edge"><title>Node1&#45;&gt;Node52</title>
<path fill="none" stroke="midnightblue" d="M2506,-304.362C2506,-296.922 2506,-286.743 2506,-277.728"/>
<polygon fill="midnightblue" stroke="midnightblue" points="2509.5,-277.571 2506,-267.571 2502.5,-277.571 2509.5,-277.571"/>
</g>
<!-- Node54 -->
<g id="node129" class="node"><title>Node54</title>
<polygon fill="white" stroke="#bfbfbf" points="3240,-246.5 3240,-267.5 3290,-267.5 3290,-246.5 3240,-246.5"/>
<text text-anchor="middle" x="3265" y="-254.5" font-family="Helvetica,sans-Serif" font-size="10.00">TTree.h</text>
</g>
<!-- Node1&#45;&gt;Node54 -->
<g id="edge150" class="edge"><title>Node1&#45;&gt;Node54</title>
<path fill="none" stroke="midnightblue" d="M2570.25,-312.535C2722.31,-306.421 3100.84,-289.49 3226,-268 3227.25,-267.786 3228.51,-267.547 3229.79,-267.289"/>
<polygon fill="midnightblue" stroke="midnightblue" points="3230.64,-270.683 3239.58,-264.995 3229.05,-263.868 3230.64,-270.683"/>
</g>
<!-- Node3 -->
<g id="node5" class="node"><title>Node3</title>
<polygon fill="white" stroke="#bfbfbf" points="1319.5,-188.5 1319.5,-209.5 1434.5,-209.5 1434.5,-188.5 1319.5,-188.5"/>
<text text-anchor="middle" x="1377" y="-196.5" font-family="Helvetica,sans-Serif" font-size="10.00">detail/easylogging++.h</text>
</g>
<!-- Node2&#45;&gt;Node3 -->
<g id="edge4" class="edge"><title>Node2&#45;&gt;Node3</title>
<path fill="none" stroke="midnightblue" d="M1499.84,-246.497C1475.7,-237.164 1440.22,-223.445 1413.59,-213.147"/>
<polygon fill="midnightblue" stroke="midnightblue" points="1414.8,-209.865 1404.21,-209.523 1412.28,-216.394 1414.8,-209.865"/>
</g>
<!-- Node5 -->
<g id="node9" class="node"><title>Node5</title>
<polygon fill="white" stroke="#bfbfbf" points="646,-123.5 646,-144.5 736,-144.5 736,-123.5 646,-123.5"/>
<text text-anchor="middle" x="691" y="-131.5" font-family="Helvetica,sans-Serif" font-size="10.00">detail/CmdLine.h</text>
</g>
<!-- Node4&#45;&gt;Node5 -->
<g id="edge8" class="edge"><title>Node4&#45;&gt;Node5</title>
<path fill="none" stroke="midnightblue" d="M1451.84,-189.307C1448.86,-188.815 1445.89,-188.372 1443,-188 1134.91,-148.321 1050.24,-209.641 745,-152 739.215,-150.908 733.197,-149.349 727.369,-147.6"/>
<polygon fill="midnightblue" stroke="midnightblue" points="728.406,-144.256 717.815,-144.525 726.262,-150.92 728.406,-144.256"/>
</g>
<!-- Node6 -->
<g id="node11" class="node"><title>Node6</title>
<polygon fill="white" stroke="#bfbfbf" points="753.5,-117 753.5,-151 874.5,-151 874.5,-117 753.5,-117"/>
<text text-anchor="start" x="761.5" y="-138" font-family="Helvetica,sans-Serif" font-size="10.00">base/detail/tclap/Switch</text>
<text text-anchor="middle" x="814" y="-125" font-family="Helvetica,sans-Serif" font-size="10.00">Arg.h</text>
</g>
<!-- Node4&#45;&gt;Node6 -->
<g id="edge10" class="edge"><title>Node4&#45;&gt;Node6</title>
<path fill="none" stroke="midnightblue" d="M1451.83,-189.35C1448.85,-188.848 1445.89,-188.39 1443,-188 1199.11,-155.017 1131.02,-190.693 884.784,-152.124"/>
<polygon fill="midnightblue" stroke="midnightblue" points="885.245,-148.654 874.819,-150.538 884.144,-155.567 885.245,-148.654"/>
</g>
<!-- Node7 -->
<g id="node13" class="node"><title>Node7</title>
<polygon fill="white" stroke="#bfbfbf" points="892,-117 892,-151 1034,-151 1034,-117 892,-117"/>
<text text-anchor="start" x="900" y="-138" font-family="Helvetica,sans-Serif" font-size="10.00">base/detail/tclap/MultiSwitch</text>
<text text-anchor="middle" x="963" y="-125" font-family="Helvetica,sans-Serif" font-size="10.00">Arg.h</text>
</g>
<!-- Node4&#45;&gt;Node7 -->
<g id="edge12" class="edge"><title>Node4&#45;&gt;Node7</title>
<path fill="none" stroke="midnightblue" d="M1451.82,-189.435C1448.84,-188.912 1445.88,-188.427 1443,-188 1269.62,-162.293 1221.09,-179.021 1043.92,-152.021"/>
<polygon fill="midnightblue" stroke="midnightblue" points="1044.42,-148.558 1034.01,-150.486 1043.35,-155.475 1044.42,-148.558"/>
</g>
<!-- Node8 -->
<g id="node15" class="node"><title>Node8</title>
<polygon fill="white" stroke="#bfbfbf" points="1052,-117 1052,-151 1186,-151 1186,-117 1052,-117"/>
<text text-anchor="start" x="1060" y="-138" font-family="Helvetica,sans-Serif" font-size="10.00">base/detail/tclap/Unlabeled</text>
<text text-anchor="middle" x="1119" y="-125" font-family="Helvetica,sans-Serif" font-size="10.00">ValueArg.h</text>
</g>
<!-- Node4&#45;&gt;Node8 -->
<g id="edge14" class="edge"><title>Node4&#45;&gt;Node8</title>
<path fill="none" stroke="midnightblue" d="M1451.79,-189.616C1448.82,-189.05 1445.87,-188.505 1443,-188 1336.42,-169.222 1306.11,-172.637 1195.91,-152.083"/>
<polygon fill="midnightblue" stroke="midnightblue" points="1196.54,-148.641 1186.07,-150.224 1195.24,-155.519 1196.54,-148.641"/>
</g>
<!-- Node9 -->
<g id="node17" class="node"><title>Node9</title>
<polygon fill="white" stroke="#bfbfbf" points="1204,-117 1204,-151 1338,-151 1338,-117 1204,-117"/>
<text text-anchor="start" x="1212" y="-138" font-family="Helvetica,sans-Serif" font-size="10.00">base/detail/tclap/Unlabeled</text>
<text text-anchor="middle" x="1271" y="-125" font-family="Helvetica,sans-Serif" font-size="10.00">MultiArg.h</text>
</g>
<!-- Node4&#45;&gt;Node9 -->
<g id="edge16" class="edge"><title>Node4&#45;&gt;Node9</title>
<path fill="none" stroke="midnightblue" d="M1459.6,-188.484C1427.38,-179.177 1379.49,-165.34 1340.02,-153.94"/>
<polygon fill="midnightblue" stroke="midnightblue" points="1340.77,-150.512 1330.19,-151.099 1338.82,-157.237 1340.77,-150.512"/>
</g>
<!-- Node10 -->
<g id="node19" class="node"><title>Node10</title>
<polygon fill="white" stroke="#bfbfbf" points="1422,-123.5 1422,-144.5 1570,-144.5 1570,-123.5 1422,-123.5"/>
<text text-anchor="middle" x="1496" y="-131.5" font-family="Helvetica,sans-Serif" font-size="10.00">base/detail/tclap/XorHandler.h</text>
</g>
<!-- Node4&#45;&gt;Node10 -->
<g id="edge18" class="edge"><title>Node4&#45;&gt;Node10</title>
<path fill="none" stroke="midnightblue" d="M1496,-188.267C1496,-179.18 1496,-165.892 1496,-154.74"/>
<polygon fill="midnightblue" stroke="midnightblue" points="1499.5,-154.534 1496,-144.534 1492.5,-154.534 1499.5,-154.534"/>
</g>
<!-- Node11 -->
<g id="node21" class="node"><title>Node11</title>
<polygon fill="white" stroke="#bfbfbf" points="1587.5,-123.5 1587.5,-144.5 1734.5,-144.5 1734.5,-123.5 1587.5,-123.5"/>
<text text-anchor="middle" x="1661" y="-131.5" font-family="Helvetica,sans-Serif" font-size="10.00">base/detail/tclap/HelpVisitor.h</text>
</g>
<!-- Node4&#45;&gt;Node11 -->
<g id="edge20" class="edge"><title>Node4&#45;&gt;Node11</title>
<path fill="none" stroke="midnightblue" d="M1522.88,-188.412C1550.56,-177.505 1593.89,-160.436 1624.63,-148.327"/>
<polygon fill="midnightblue" stroke="midnightblue" points="1626.11,-151.505 1634.13,-144.584 1623.55,-144.992 1626.11,-151.505"/>
</g>
<!-- Node12 -->
<g id="node23" class="node"><title>Node12</title>
<polygon fill="white" stroke="#bfbfbf" points="1752,-117 1752,-151 1876,-151 1876,-117 1752,-117"/>
<text text-anchor="start" x="1760" y="-138" font-family="Helvetica,sans-Serif" font-size="10.00">base/detail/tclap/Version</text>
<text text-anchor="middle" x="1814" y="-125" font-family="Helvetica,sans-Serif" font-size="10.00">Visitor.h</text>
</g>
<!-- Node4&#45;&gt;Node12 -->
<g id="edge22" class="edge"><title>Node4&#45;&gt;Node12</title>
<path fill="none" stroke="midnightblue" d="M1540.34,-191.394C1587.77,-183.072 1665.43,-168.919 1741.48,-152.274"/>
<polygon fill="midnightblue" stroke="midnightblue" points="1742.7,-155.589 1751.71,-150.017 1741.19,-148.753 1742.7,-155.589"/>
</g>
<!-- Node13 -->
<g id="node25" class="node"><title>Node13</title>
<polygon fill="white" stroke="#bfbfbf" points="1894,-117 1894,-151 2012,-151 2012,-117 1894,-117"/>
<text text-anchor="start" x="1902" y="-138" font-family="Helvetica,sans-Serif" font-size="10.00">base/detail/tclap/Ignore</text>
<text text-anchor="middle" x="1953" y="-125" font-family="Helvetica,sans-Serif" font-size="10.00">RestVisitor.h</text>
</g>
<!-- Node4&#45;&gt;Node13 -->
<g id="edge24" class="edge"><title>Node4&#45;&gt;Node13</title>
<path fill="none" stroke="midnightblue" d="M1540.06,-195.678C1610.66,-189.92 1753.58,-176.476 1883.64,-152.121"/>
<polygon fill="midnightblue" stroke="midnightblue" points="1884.6,-155.5 1893.77,-150.195 1883.3,-148.623 1884.6,-155.5"/>
</g>
<!-- Node14 -->
<g id="node27" class="node"><title>Node14</title>
<polygon fill="white" stroke="#bfbfbf" points="0,-117 0,-151 130,-151 130,-117 0,-117"/>
<text text-anchor="start" x="8" y="-138" font-family="Helvetica,sans-Serif" font-size="10.00">base/detail/tclap/CmdLine</text>
<text text-anchor="middle" x="65" y="-125" font-family="Helvetica,sans-Serif" font-size="10.00">Output.h</text>
</g>
<!-- Node4&#45;&gt;Node14 -->
<g id="edge26" class="edge"><title>Node4&#45;&gt;Node14</title>
<path fill="none" stroke="midnightblue" d="M1451.85,-189.227C1448.86,-188.755 1445.89,-188.338 1443,-188 870.502,-121.221 715.461,-227.682 140.439,-152.013"/>
<polygon fill="midnightblue" stroke="midnightblue" points="140.602,-148.504 130.228,-150.656 139.68,-155.443 140.602,-148.504"/>
</g>
<!-- Node15 -->
<g id="node29" class="node"><title>Node15</title>
<polygon fill="white" stroke="#bfbfbf" points="147.5,-123.5 147.5,-144.5 290.5,-144.5 290.5,-123.5 147.5,-123.5"/>
<text text-anchor="middle" x="219" y="-131.5" font-family="Helvetica,sans-Serif" font-size="10.00">base/detail/tclap/StdOutput.h</text>
</g>
<!-- Node4&#45;&gt;Node15 -->
<g id="edge28" class="edge"><title>Node4&#45;&gt;Node15</title>
<path fill="none" stroke="midnightblue" d="M1451.85,-189.24C1448.86,-188.764 1445.89,-188.343 1443,-188 937.844,-128.088 803.639,-216.121 299,-152 289.252,-150.761 278.945,-148.882 269.089,-146.798"/>
<polygon fill="midnightblue" stroke="midnightblue" points="269.544,-143.314 259.023,-144.57 268.031,-150.148 269.544,-143.314"/>
</g>
<!-- Node16 -->
<g id="node31" class="node"><title>Node16</title>
<polygon fill="white" stroke="#bfbfbf" points="308,-123.5 308,-144.5 452,-144.5 452,-123.5 308,-123.5"/>
<text text-anchor="middle" x="380" y="-131.5" font-family="Helvetica,sans-Serif" font-size="10.00">base/detail/tclap/Constraint.h</text>
</g>
<!-- Node4&#45;&gt;Node16 -->
<g id="edge30" class="edge"><title>Node4&#45;&gt;Node16</title>
<path fill="none" stroke="midnightblue" d="M1451.85,-189.257C1448.86,-188.778 1445.89,-188.351 1443,-188 1009.44,-135.439 894.184,-207.601 461,-152 451.034,-150.721 440.486,-148.802 430.412,-146.688"/>
<polygon fill="midnightblue" stroke="midnightblue" points="431.053,-143.246 420.536,-144.525 429.555,-150.084 431.053,-143.246"/>
</g>
<!-- Node17 -->
<g id="node33" class="node"><title>Node17</title>
<polygon fill="white" stroke="#bfbfbf" points="469.5,-117 469.5,-151 590.5,-151 590.5,-117 469.5,-117"/>
<text text-anchor="start" x="477.5" y="-138" font-family="Helvetica,sans-Serif" font-size="10.00">base/detail/tclap/Values</text>
<text text-anchor="middle" x="530" y="-125" font-family="Helvetica,sans-Serif" font-size="10.00">Constraint.h</text>
</g>
<!-- Node4&#45;&gt;Node17 -->
<g id="edge32" class="edge"><title>Node4&#45;&gt;Node17</title>
<path fill="none" stroke="midnightblue" d="M1451.84,-189.278C1448.86,-188.793 1445.89,-188.36 1443,-188 1072.62,-141.926 973.541,-204.358 604,-152 602.92,-151.847 601.833,-151.685 600.74,-151.515"/>
<polygon fill="midnightblue" stroke="midnightblue" points="601.246,-148.051 590.794,-149.786 600.047,-154.947 601.246,-148.051"/>
</g>
<!-- Node18 -->
<g id="node35" class="node"><title>Node18</title>
<polygon fill="white" stroke="#bfbfbf" points="3001.5,-0.5 3001.5,-21.5 3042.5,-21.5 3042.5,-0.5 3001.5,-0.5"/>
<text text-anchor="middle" x="3022" y="-8.5" font-family="Helvetica,sans-Serif" font-size="10.00">string</text>
</g>
<!-- Node4&#45;&gt;Node18 -->
<g id="edge34" class="edge"><title>Node4&#45;&gt;Node18</title>
<path fill="none" stroke="midnightblue" d="M1540.29,-198.418C1650.52,-196.436 1934.46,-187.891 2021,-152 2044.02,-142.451 2041.5,-126.713 2064,-116 2186.22,-57.8149 2228.8,-75.736 2363,-58 2603.64,-26.197 2896.75,-14.8565 2991.15,-11.8804"/>
<polygon fill="midnightblue" stroke="midnightblue" points="2991.52,-15.3706 3001.41,-11.5655 2991.31,-8.37394 2991.52,-15.3706"/>
</g>
<!-- Node19 -->
<g id="node37" class="node"><title>Node19</title>
<polygon fill="white" stroke="#bfbfbf" points="1980,-0.5 1980,-21.5 2024,-21.5 2024,-0.5 1980,-0.5"/>
<text text-anchor="middle" x="2002" y="-8.5" font-family="Helvetica,sans-Serif" font-size="10.00">vector</text>
</g>
<!-- Node4&#45;&gt;Node19 -->
<g id="edge36" class="edge"><title>Node4&#45;&gt;Node19</title>
<path fill="none" stroke="midnightblue" d="M1451.84,-189.284C1448.86,-188.798 1445.89,-188.362 1443,-188 1398.53,-182.428 667.979,-184.394 637,-152 625.942,-140.437 626.129,-127.74 637,-116 683.829,-65.4307 1766.67,-20.2892 1969.45,-12.2639"/>
<polygon fill="midnightblue" stroke="midnightblue" points="1969.88,-15.7497 1979.73,-11.8589 1969.6,-8.75514 1969.88,-15.7497"/>
</g>
<!-- Node20 -->
<g id="node39" class="node"><title>Node20</title>
<polygon fill="white" stroke="#bfbfbf" points="2353.5,-123.5 2353.5,-144.5 2382.5,-144.5 2382.5,-123.5 2353.5,-123.5"/>
<text text-anchor="middle" x="2368" y="-131.5" font-family="Helvetica,sans-Serif" font-size="10.00">list</text>
</g>
<!-- Node4&#45;&gt;Node20 -->
<g id="edge38" class="edge"><title>Node4&#45;&gt;Node20</title>
<path fill="none" stroke="midnightblue" d="M1540.25,-197.771C1687.13,-193.482 2157.64,-178.011 2307,-152 2319.2,-149.875 2332.42,-146.157 2343.42,-142.65"/>
<polygon fill="midnightblue" stroke="midnightblue" points="2344.8,-145.882 2353.19,-139.411 2342.59,-139.238 2344.8,-145.882"/>
</g>
<!-- Node4&#45;&gt;Node21 -->
<g id="edge40" class="edge"><title>Node4&#45;&gt;Node21</title>
<path fill="none" stroke="midnightblue" d="M1540.39,-197.421C1660.08,-192.858 1987.44,-178.276 2092,-152 2095.68,-151.074 2099.46,-149.846 2103.15,-148.464"/>
<polygon fill="midnightblue" stroke="midnightblue" points="2104.71,-151.604 2112.62,-144.551 2102.04,-145.135 2104.71,-151.604"/>
</g>
<!-- Node22 -->
<g id="node43" class="node"><title>Node22</title>
<polygon fill="white" stroke="#bfbfbf" points="2178,-123.5 2178,-144.5 2228,-144.5 2228,-123.5 2178,-123.5"/>
<text text-anchor="middle" x="2203" y="-131.5" font-family="Helvetica,sans-Serif" font-size="10.00">iomanip</text>
</g>
<!-- Node4&#45;&gt;Node22 -->
<g id="edge42" class="edge"><title>Node4&#45;&gt;Node22</title>
<path fill="none" stroke="midnightblue" d="M1540.06,-198.301C1670.04,-195.864 2050.19,-185.948 2169,-152 2171.68,-151.235 2174.38,-150.242 2177.04,-149.115"/>
<polygon fill="midnightblue" stroke="midnightblue" points="2178.83,-152.138 2186.29,-144.618 2175.77,-145.842 2178.83,-152.138"/>
</g>
<!-- Node23 -->
<g id="node45" class="node"><title>Node23</title>
<polygon fill="white" stroke="#bfbfbf" points="3268,-0.5 3268,-21.5 3324,-21.5 3324,-0.5 3268,-0.5"/>
<text text-anchor="middle" x="3296" y="-8.5" font-family="Helvetica,sans-Serif" font-size="10.00">algorithm</text>
</g>
<!-- Node4&#45;&gt;Node23 -->
<g id="edge44" class="edge"><title>Node4&#45;&gt;Node23</title>
<path fill="none" stroke="midnightblue" d="M1540.15,-196.923C1664.22,-190.858 2010.02,-172.32 2057,-152 2078.95,-142.506 2075.4,-126.277 2097,-116 2134.58,-98.1191 2425.6,-62.1733 2467,-58 2814.25,-22.9985 2909.74,-79.5452 3257.78,-21.8237"/>
<polygon fill="midnightblue" stroke="midnightblue" points="3258.6,-25.2343 3267.89,-20.1273 3257.44,-18.3309 3258.6,-25.2343"/>
</g>
<!-- Node24 -->
<g id="node47" class="node"><title>Node24</title>
<polygon fill="white" stroke="#bfbfbf" points="1356,-123.5 1356,-144.5 1404,-144.5 1404,-123.5 1356,-123.5"/>
<text text-anchor="middle" x="1380" y="-131.5" font-family="Helvetica,sans-Serif" font-size="10.00">stdlib.h</text>
</g>
<!-- Node4&#45;&gt;Node24 -->
<g id="edge46" class="edge"><title>Node4&#45;&gt;Node24</title>
<path fill="none" stroke="midnightblue" d="M1477.1,-188.412C1458.31,-177.883 1429.27,-161.611 1407.84,-149.602"/>
<polygon fill="midnightblue" stroke="midnightblue" points="1409.32,-146.419 1398.89,-144.584 1405.9,-152.525 1409.32,-146.419"/>
</g>
<!-- Node25 -->
<g id="node49" class="node"><title>Node25</title>
<polygon fill="white" stroke="#bfbfbf" points="2246,-123.5 2246,-144.5 2298,-144.5 2298,-123.5 2246,-123.5"/>
<text text-anchor="middle" x="2272" y="-131.5" font-family="Helvetica,sans-Serif" font-size="10.00">memory</text>
</g>
<!-- Node4&#45;&gt;Node25 -->
<g id="edge48" class="edge"><title>Node4&#45;&gt;Node25</title>
<path fill="none" stroke="midnightblue" d="M1540.01,-198.564C1678.57,-196.821 2104.51,-188.552 2237,-152 2239.84,-151.216 2242.72,-150.186 2245.54,-149.014"/>
<polygon fill="midnightblue" stroke="midnightblue" points="2247.23,-152.083 2254.77,-144.639 2244.24,-145.757 2247.23,-152.083"/>
</g>
<!-- Node26&#45;&gt;Node18 -->
<g id="edge54" class="edge"><title>Node26&#45;&gt;Node18</title>
<path fill="none" stroke="midnightblue" d="M2325.9,-188.474C2327.65,-172.143 2332.5,-140.074 2345,-116 2360.82,-85.535 2365.28,-73.3076 2396,-58 2449.57,-31.312 2872.03,-15.8214 2990.95,-11.9598"/>
<polygon fill="midnightblue" stroke="midnightblue" points="2991.3,-15.4506 3001.18,-11.6321 2991.07,-8.45417 2991.3,-15.4506"/>
</g>
<!-- Node26&#45;&gt;Node20 -->
<g id="edge52" class="edge"><title>Node26&#45;&gt;Node20</title>
<path fill="none" stroke="midnightblue" d="M2332.1,-188.267C2338.42,-178.707 2347.83,-164.496 2355.42,-153.015"/>
<polygon fill="midnightblue" stroke="midnightblue" points="2358.43,-154.805 2361.03,-144.534 2352.6,-150.943 2358.43,-154.805"/>
</g>
<!-- Node27&#45;&gt;Node18 -->
<g id="edge58" class="edge"><title>Node27&#45;&gt;Node18</title>
<path fill="none" stroke="midnightblue" d="M3216.9,-58.4966C3169.36,-46.9104 3094.07,-28.5636 3052.35,-18.3968"/>
<polygon fill="midnightblue" stroke="midnightblue" points="3053.05,-14.9647 3042.51,-15.9974 3051.39,-21.7656 3053.05,-14.9647"/>
</g>
<!-- Node27&#45;&gt;Node19 -->
<g id="edge64" class="edge"><title>Node27&#45;&gt;Node19</title>
<path fill="none" stroke="midnightblue" d="M3205.96,-65.6716C3167.94,-63.379 3115.87,-60.3369 3070,-58 2661.2,-37.1721 2164.09,-17.3472 2034.25,-12.256"/>
<polygon fill="midnightblue" stroke="midnightblue" points="2034.31,-8.75578 2024.18,-11.8619 2034.04,-15.7504 2034.31,-8.75578"/>
</g>
<!-- Node27&#45;&gt;Node23 -->
<g id="edge62" class="edge"><title>Node27&#45;&gt;Node23</title>
<path fill="none" stroke="midnightblue" d="M3266.6,-58.3619C3271.47,-50.5131 3278.24,-39.6159 3284.05,-30.2527"/>
<polygon fill="midnightblue" stroke="midnightblue" points="3287.14,-31.9129 3289.44,-21.5707 3281.19,-28.2213 3287.14,-31.9129"/>
</g>
<!-- Node28 -->
<g id="node58" class="node"><title>Node28</title>
<polygon fill="white" stroke="#bfbfbf" points="3198,-0.5 3198,-21.5 3250,-21.5 3250,-0.5 3198,-0.5"/>
<text text-anchor="middle" x="3224" y="-8.5" font-family="Helvetica,sans-Serif" font-size="10.00">sstream</text>
</g>
<!-- Node27&#45;&gt;Node28 -->
<g id="edge60" class="edge"><title>Node27&#45;&gt;Node28</title>
<path fill="none" stroke="midnightblue" d="M3253.4,-58.3619C3248.53,-50.5131 3241.76,-39.6159 3235.95,-30.2527"/>
<polygon fill="midnightblue" stroke="midnightblue" points="3238.81,-28.2213 3230.56,-21.5707 3232.86,-31.9129 3238.81,-28.2213"/>
</g>
<!-- Node29&#45;&gt;Node18 -->
<g id="edge92" class="edge"><title>Node29&#45;&gt;Node18</title>
<path fill="none" stroke="midnightblue" d="M3302.09,-188.337C3280.58,-180.392 3252.58,-168.136 3231,-152 3186.83,-118.977 3195.34,-89.3994 3150,-58 3119.97,-37.2043 3079.65,-24.4032 3052.34,-17.514"/>
<polygon fill="midnightblue" stroke="midnightblue" points="3053.1,-14.0977 3042.56,-15.1587 3051.46,-20.9031 3053.1,-14.0977"/>
</g>
<!-- Node29&#45;&gt;Node20 -->
<g id="edge94" class="edge"><title>Node29&#45;&gt;Node20</title>
<path fill="none" stroke="midnightblue" d="M3287.84,-198.016C3126.39,-194.421 2596.67,-180.675 2429,-152 2416.79,-149.912 2403.57,-146.199 2392.57,-142.685"/>
<polygon fill="midnightblue" stroke="midnightblue" points="2393.4,-139.273 2382.81,-139.437 2391.19,-145.915 2393.4,-139.273"/>
</g>
<!-- Node29&#45;&gt;Node25 -->
<g id="edge90" class="edge"><title>Node29&#45;&gt;Node25</title>
<path fill="none" stroke="midnightblue" d="M3287.72,-197.974C3116.66,-194.071 2530.38,-178.994 2345,-152 2332.81,-150.225 2319.69,-147.313 2307.98,-144.344"/>
<polygon fill="midnightblue" stroke="midnightblue" points="2308.67,-140.907 2298.11,-141.746 2306.89,-147.676 2308.67,-140.907"/>
</g>
<!-- Node29&#45;&gt;Node27 -->
<g id="edge68" class="edge"><title>Node29&#45;&gt;Node27</title>
<path fill="none" stroke="midnightblue" d="M3331.08,-188.375C3324.9,-172.183 3312.03,-140.618 3297,-116 3290.91,-106.029 3283.03,-95.7446 3276.11,-87.3483"/>
<polygon fill="midnightblue" stroke="midnightblue" points="3278.73,-85.0361 3269.6,-79.6628 3273.39,-89.5576 3278.73,-85.0361"/>
</g>
<!-- Node30 -->
<g id="node65" class="node"><title>Node30</title>
<a xlink:href="misc_8h.html" target="_top" xlink:title="base/std_ext/misc.h">
<polygon fill="white" stroke="black" points="3445.5,-123.5 3445.5,-144.5 3550.5,-144.5 3550.5,-123.5 3445.5,-123.5"/>
<text text-anchor="middle" x="3498" y="-131.5" font-family="Helvetica,sans-Serif" font-size="10.00">base/std_ext/misc.h</text>
</a>
</g>
<!-- Node29&#45;&gt;Node30 -->
<g id="edge70" class="edge"><title>Node29&#45;&gt;Node30</title>
<path fill="none" stroke="midnightblue" d="M3361.55,-188.412C3388.9,-177.505 3431.71,-160.436 3462.07,-148.327"/>
<polygon fill="midnightblue" stroke="midnightblue" points="3463.47,-151.539 3471.46,-144.584 3460.87,-145.037 3463.47,-151.539"/>
</g>
<!-- Node31 -->
<g id="node68" class="node"><title>Node31</title>
<polygon fill="white" stroke="#bfbfbf" points="3338.5,-58.5 3338.5,-79.5 3397.5,-79.5 3397.5,-58.5 3338.5,-58.5"/>
<text text-anchor="middle" x="3368" y="-66.5" font-family="Helvetica,sans-Serif" font-size="10.00">functional</text>
</g>
<!-- Node29&#45;&gt;Node31 -->
<g id="edge98" class="edge"><title>Node29&#45;&gt;Node31</title>
<path fill="none" stroke="midnightblue" d="M3337.7,-188.362C3343.16,-166.841 3355.61,-117.807 3362.74,-89.7405"/>
<polygon fill="midnightblue" stroke="midnightblue" points="3366.19,-90.3392 3365.26,-79.7854 3359.41,-88.6169 3366.19,-90.3392"/>
</g>
<!-- Node33 -->
<g id="node72" class="node"><title>Node33</title>
<polygon fill="white" stroke="#bfbfbf" points="3381.5,-123.5 3381.5,-144.5 3428.5,-144.5 3428.5,-123.5 3381.5,-123.5"/>
<text text-anchor="middle" x="3405" y="-131.5" font-family="Helvetica,sans-Serif" font-size="10.00">TFile.h</text>
</g>
<!-- Node29&#45;&gt;Node33 -->
<g id="edge78" class="edge"><title>Node29&#45;&gt;Node33</title>
<path fill="none" stroke="midnightblue" d="M3346.56,-188.267C3357.26,-178.328 3373.38,-163.363 3385.98,-151.664"/>
<polygon fill="midnightblue" stroke="midnightblue" points="3388.71,-153.903 3393.66,-144.534 3383.95,-148.773 3388.71,-153.903"/>
</g>
<!-- Node34 -->
<g id="node74" class="node"><title>Node34</title>
<polygon fill="white" stroke="#bfbfbf" points="3567.5,-123.5 3567.5,-144.5 3638.5,-144.5 3638.5,-123.5 3567.5,-123.5"/>
<text text-anchor="middle" x="3603" y="-131.5" font-family="Helvetica,sans-Serif" font-size="10.00">TDirectory.h</text>
</g>
<!-- Node29&#45;&gt;Node34 -->
<g id="edge80" class="edge"><title>Node29&#45;&gt;Node34</title>
<path fill="none" stroke="midnightblue" d="M3382.39,-191.63C3428.17,-183.911 3499.17,-170.349 3559,-152 3562.61,-150.894 3566.32,-149.61 3570,-148.246"/>
<polygon fill="midnightblue" stroke="midnightblue" points="3571.5,-151.419 3579.54,-144.518 3568.95,-144.9 3571.5,-151.419"/>
</g>
<!-- Node35 -->
<g id="node76" class="node"><title>Node35</title>
<polygon fill="white" stroke="#bfbfbf" points="3656,-123.5 3656,-144.5 3708,-144.5 3708,-123.5 3656,-123.5"/>
<text text-anchor="middle" x="3682" y="-131.5" font-family="Helvetica,sans-Serif" font-size="10.00">TError.h</text>
</g>
<!-- Node29&#45;&gt;Node35 -->
<g id="edge82" class="edge"><title>Node29&#45;&gt;Node35</title>
<path fill="none" stroke="midnightblue" d="M3382.07,-196.671C3444.12,-192.536 3556.04,-181.366 3647,-152 3649.74,-151.114 3652.53,-150.032 3655.28,-148.841"/>
<polygon fill="midnightblue" stroke="midnightblue" points="3656.81,-151.987 3664.32,-144.507 3653.79,-145.675 3656.81,-151.987"/>
</g>
<!-- Node36 -->
<g id="node78" class="node"><title>Node36</title>
<polygon fill="white" stroke="#bfbfbf" points="3725.5,-123.5 3725.5,-144.5 3772.5,-144.5 3772.5,-123.5 3725.5,-123.5"/>
<text text-anchor="middle" x="3749" y="-131.5" font-family="Helvetica,sans-Serif" font-size="10.00">TList.h</text>
</g>
<!-- Node29&#45;&gt;Node36 -->
<g id="edge84" class="edge"><title>Node29&#45;&gt;Node36</title>
<path fill="none" stroke="midnightblue" d="M3382.23,-195.491C3470.21,-188.576 3655.82,-172.099 3717,-152 3719.3,-151.245 3721.62,-150.317 3723.91,-149.286"/>
<polygon fill="midnightblue" stroke="midnightblue" points="3725.67,-152.317 3732.96,-144.632 3722.47,-146.091 3725.67,-152.317"/>
</g>
<!-- Node37 -->
<g id="node80" class="node"><title>Node37</title>
<polygon fill="white" stroke="#bfbfbf" points="3790,-123.5 3790,-144.5 3864,-144.5 3864,-123.5 3790,-123.5"/>
<text text-anchor="middle" x="3827" y="-131.5" font-family="Helvetica,sans-Serif" font-size="10.00">TCollection.h</text>
</g>
<!-- Node29&#45;&gt;Node37 -->
<g id="edge86" class="edge"><title>Node29&#45;&gt;Node37</title>
<path fill="none" stroke="midnightblue" d="M3382.15,-195.638C3480.84,-188.338 3706.2,-170.224 3781,-152 3785.22,-150.972 3789.57,-149.647 3793.83,-148.182"/>
<polygon fill="midnightblue" stroke="midnightblue" points="3795.36,-151.347 3803.52,-144.585 3792.92,-144.785 3795.36,-151.347"/>
</g>
<!-- Node38 -->
<g id="node82" class="node"><title>Node38</title>
<polygon fill="white" stroke="#bfbfbf" points="3240,-123.5 3240,-144.5 3288,-144.5 3288,-123.5 3240,-123.5"/>
<text text-anchor="middle" x="3264" y="-131.5" font-family="Helvetica,sans-Serif" font-size="10.00">TKey.h</text>
</g>
<!-- Node29&#45;&gt;Node38 -->
<g id="edge88" class="edge"><title>Node29&#45;&gt;Node38</title>
<path fill="none" stroke="midnightblue" d="M3323.28,-188.267C3312.32,-178.233 3295.76,-163.078 3282.93,-151.331"/>
<polygon fill="midnightblue" stroke="midnightblue" points="3285.25,-148.705 3275.51,-144.534 3280.52,-153.868 3285.25,-148.705"/>
</g>
<!-- Node39 -->
<g id="node87" class="node"><title>Node39</title>
<polygon fill="white" stroke="#bfbfbf" points="3049.5,-123.5 3049.5,-144.5 3108.5,-144.5 3108.5,-123.5 3049.5,-123.5"/>
<text text-anchor="middle" x="3079" y="-131.5" font-family="Helvetica,sans-Serif" font-size="10.00">stdexcept</text>
</g>
<!-- Node29&#45;&gt;Node39 -->
<g id="edge96" class="edge"><title>Node29&#45;&gt;Node39</title>
<path fill="none" stroke="midnightblue" d="M3293.58,-188.484C3245.33,-176.233 3166.18,-156.135 3118.68,-144.075"/>
<polygon fill="midnightblue" stroke="midnightblue" points="3119.31,-140.625 3108.76,-141.556 3117.59,-147.41 3119.31,-140.625"/>
</g>
<!-- Node30&#45;&gt;Node23 -->
<g id="edge72" class="edge"><title>Node30&#45;&gt;Node23</title>
<path fill="none" stroke="midnightblue" d="M3498.53,-123.292C3498.71,-106.905 3496.54,-75.6555 3479,-58 3458.86,-37.7309 3381.38,-23.2825 3333.93,-16.1196"/>
<polygon fill="midnightblue" stroke="midnightblue" points="3334.41,-12.6522 3324.01,-14.6611 3333.39,-19.5778 3334.41,-12.6522"/>
</g>
<!-- Node30&#45;&gt;Node31 -->
<g id="edge74" class="edge"><title>Node30&#45;&gt;Node31</title>
<path fill="none" stroke="midnightblue" d="M3476.82,-123.412C3455.48,-112.741 3422.34,-96.1717 3398.24,-84.1198"/>
<polygon fill="midnightblue" stroke="midnightblue" points="3399.68,-80.9252 3389.17,-79.5835 3396.55,-87.1862 3399.68,-80.9252"/>
</g>
<!-- Node32 -->
<g id="node70" class="node"><title>Node32</title>
<polygon fill="white" stroke="#bfbfbf" points="3417.5,-58.5 3417.5,-79.5 3470.5,-79.5 3470.5,-58.5 3417.5,-58.5"/>
<text text-anchor="middle" x="3444" y="-66.5" font-family="Helvetica,sans-Serif" font-size="10.00">cxxabi.h</text>
</g>
<!-- Node30&#45;&gt;Node32 -->
<g id="edge76" class="edge"><title>Node30&#45;&gt;Node32</title>
<path fill="none" stroke="midnightblue" d="M3489.08,-123.267C3480.98,-113.517 3468.87,-98.9317 3459.23,-87.3365"/>
<polygon fill="midnightblue" stroke="midnightblue" points="3461.83,-84.989 3452.75,-79.5337 3456.45,-89.4622 3461.83,-84.989"/>
</g>
<!-- Node40&#45;&gt;Node18 -->
<g id="edge134" class="edge"><title>Node40&#45;&gt;Node18</title>
<path fill="none" stroke="midnightblue" d="M3007.96,-246.43C3039.72,-230.933 3094.36,-198.727 3117,-152 3140.44,-103.638 3082.48,-52.7462 3047.06,-27.3857"/>
<polygon fill="midnightblue" stroke="midnightblue" points="3048.81,-24.3399 3038.6,-21.5053 3044.81,-30.0874 3048.81,-24.3399"/>
</g>
<!-- Node41 -->
<g id="node92" class="node"><title>Node41</title>
<a xlink:href="_t_i_d_8h.html" target="_top" xlink:title="TID.h">
<polygon fill="white" stroke="black" points="2624.5,-188.5 2624.5,-209.5 2665.5,-209.5 2665.5,-188.5 2624.5,-188.5"/>
<text text-anchor="middle" x="2645" y="-196.5" font-family="Helvetica,sans-Serif" font-size="10.00">TID.h</text>
</a>
</g>
<!-- Node40&#45;&gt;Node41 -->
<g id="edge102" class="edge"><title>Node40&#45;&gt;Node41</title>
<path fill="none" stroke="midnightblue" d="M2924.95,-246.897C2852.42,-234.487 2732.09,-213.901 2675.81,-204.271"/>
<polygon fill="midnightblue" stroke="midnightblue" points="2676.2,-200.787 2665.75,-202.55 2675.02,-207.687 2676.2,-200.787"/>
</g>
<!-- Node47 -->
<g id="node106" class="node"><title>Node47</title>
<polygon fill="white" stroke="#bfbfbf" points="2780.5,-58.5 2780.5,-79.5 2821.5,-79.5 2821.5,-58.5 2780.5,-58.5"/>
<text text-anchor="middle" x="2801" y="-66.5" font-family="Helvetica,sans-Serif" font-size="10.00">ctime</text>
</g>
<!-- Node40&#45;&gt;Node47 -->
<g id="edge136" class="edge"><title>Node40&#45;&gt;Node47</title>
<path fill="none" stroke="midnightblue" d="M2986.16,-246.21C2990.67,-220.241 2998.14,-153.628 2965,-116 2925.96,-71.6756 2892.53,-96.3238 2831.18,-79.9362"/>
<polygon fill="midnightblue" stroke="midnightblue" points="2832.09,-76.5553 2821.5,-77.0732 2830.1,-83.2674 2832.09,-76.5553"/>
</g>
<!-- Node51 -->
<g id="node120" class="node"><title>Node51</title>
<a xlink:href="_git_info_8h.html" target="_top" xlink:title="base/GitInfo.h">
<polygon fill="white" stroke="black" points="2983,-58.5 2983,-79.5 3061,-79.5 3061,-58.5 2983,-58.5"/>
<text text-anchor="middle" x="3022" y="-66.5" font-family="Helvetica,sans-Serif" font-size="10.00">base/GitInfo.h</text>
</a>
</g>
<!-- Node40&#45;&gt;Node51 -->
<g id="edge138" class="edge"><title>Node40&#45;&gt;Node51</title>
<path fill="none" stroke="midnightblue" d="M2987.6,-246.272C2990.68,-236.81 2995.06,-222.603 2998,-210 3007.86,-167.704 3015.45,-117.386 3019.27,-89.751"/>
<polygon fill="midnightblue" stroke="midnightblue" points="3022.76,-90.0795 3020.63,-79.7004 3015.82,-89.1409 3022.76,-90.0795"/>
</g>
<!-- Node41&#45;&gt;Node20 -->
<g id="edge128" class="edge"><title>Node41&#45;&gt;Node20</title>
<path fill="none" stroke="midnightblue" d="M2624.33,-195.023C2585.74,-187.484 2500.2,-170.225 2429,-152 2417,-148.929 2403.81,-145.094 2392.77,-141.754"/>
<polygon fill="midnightblue" stroke="midnightblue" points="2393.54,-138.33 2382.96,-138.744 2391.49,-145.022 2393.54,-138.33"/>
</g>
<!-- Node41&#45;&gt;Node22 -->
<g id="edge130" class="edge"><title>Node41&#45;&gt;Node22</title>
<path fill="none" stroke="midnightblue" d="M2624.47,-196.686C2542.35,-187.426 2241.7,-153.459 2237,-152 2234.4,-151.193 2231.76,-150.186 2229.17,-149.064"/>
<polygon fill="midnightblue" stroke="midnightblue" points="2230.63,-145.881 2220.11,-144.644 2227.56,-152.173 2230.63,-145.881"/>
</g>
<!-- Node41&#45;&gt;Node39 -->
<g id="edge126" class="edge"><title>Node41&#45;&gt;Node39</title>
<path fill="none" stroke="midnightblue" d="M2665.6,-196.053C2716.46,-188.76 2852.04,-169.214 2965,-152 2989.8,-148.222 3017.6,-143.835 3039.54,-140.338"/>
<polygon fill="midnightblue" stroke="midnightblue" points="3040.17,-143.782 3049.49,-138.749 3039.06,-136.87 3040.17,-143.782"/>
</g>
<!-- Node42 -->
<g id="node94" class="node"><title>Node42</title>
<polygon fill="white" stroke="#bfbfbf" points="2900,-123.5 2900,-144.5 2956,-144.5 2956,-123.5 2900,-123.5"/>
<text text-anchor="middle" x="2928" y="-131.5" font-family="Helvetica,sans-Serif" font-size="10.00">Rtypes.h</text>
</g>
<!-- Node41&#45;&gt;Node42 -->
<g id="edge104" class="edge"><title>Node41&#45;&gt;Node42</title>
<path fill="none" stroke="midnightblue" d="M2665.55,-196.929C2708.37,-192.214 2809.92,-178.94 2891,-152 2893.8,-151.071 2896.65,-149.974 2899.48,-148.787"/>
<polygon fill="midnightblue" stroke="midnightblue" points="2901.18,-151.859 2908.82,-144.521 2898.27,-145.491 2901.18,-151.859"/>
</g>
<!-- Node43 -->
<g id="node96" class="node"><title>Node43</title>
<a xlink:href="printable_8h.html" target="_top" xlink:title="base/printable.h">
<polygon fill="white" stroke="black" points="2438,-123.5 2438,-144.5 2524,-144.5 2524,-123.5 2438,-123.5"/>
<text text-anchor="middle" x="2481" y="-131.5" font-family="Helvetica,sans-Serif" font-size="10.00">base/printable.h</text>
</a>
</g>
<!-- Node41&#45;&gt;Node43 -->
<g id="edge106" class="edge"><title>Node41&#45;&gt;Node43</title>
<path fill="none" stroke="midnightblue" d="M2624.23,-190.768C2597.36,-180.118 2550.11,-161.391 2517.26,-148.371"/>
<polygon fill="midnightblue" stroke="midnightblue" points="2518.15,-144.96 2507.57,-144.529 2515.57,-151.468 2518.15,-144.96"/>
</g>
<!-- Node45 -->
<g id="node101" class="node"><title>Node45</title>
<a xlink:href="time_8h.html" target="_top" xlink:title="base/std_ext/time.h">
<polygon fill="white" stroke="black" points="2779.5,-123.5 2779.5,-144.5 2882.5,-144.5 2882.5,-123.5 2779.5,-123.5"/>
<text text-anchor="middle" x="2831" y="-131.5" font-family="Helvetica,sans-Serif" font-size="10.00">base/std_ext/time.h</text>
</a>
</g>
<!-- Node41&#45;&gt;Node45 -->
<g id="edge112" class="edge"><title>Node41&#45;&gt;Node45</title>
<path fill="none" stroke="midnightblue" d="M2665.62,-191.796C2695.74,-181.267 2752.4,-161.469 2790.91,-148.01"/>
<polygon fill="midnightblue" stroke="midnightblue" points="2792.48,-151.168 2800.77,-144.565 2790.17,-144.56 2792.48,-151.168"/>
</g>
<!-- Node41&#45;&gt;Node47 -->
<g id="edge132" class="edge"><title>Node41&#45;&gt;Node47</title>
<path fill="none" stroke="midnightblue" d="M2624.49,-192.344C2606.77,-185.377 2582.29,-172.541 2571,-152 2563.29,-137.978 2560.88,-128.395 2571,-116 2595.82,-85.598 2713.46,-74.339 2770.22,-70.6266"/>
<polygon fill="midnightblue" stroke="midnightblue" points="2770.63,-74.1081 2780.4,-69.9997 2770.2,-67.1214 2770.63,-74.1081"/>
</g>
<!-- Node48 -->
<g id="node108" class="node"><title>Node48</title>
<polygon fill="white" stroke="#bfbfbf" points="2580,-123.5 2580,-144.5 2642,-144.5 2642,-123.5 2580,-123.5"/>
<text text-anchor="middle" x="2611" y="-131.5" font-family="Helvetica,sans-Serif" font-size="10.00">type_traits</text>
</g>
<!-- Node41&#45;&gt;Node48 -->
<g id="edge120" class="edge"><title>Node41&#45;&gt;Node48</title>
<path fill="none" stroke="midnightblue" d="M2639.39,-188.267C2634.48,-178.896 2627.25,-165.057 2621.3,-153.7"/>
<polygon fill="midnightblue" stroke="midnightblue" points="2624.25,-151.772 2616.51,-144.534 2618.04,-155.017 2624.25,-151.772"/>
</g>
<!-- Node49 -->
<g id="node110" class="node"><title>Node49</title>
<polygon fill="white" stroke="#bfbfbf" points="2660,-123.5 2660,-144.5 2698,-144.5 2698,-123.5 2660,-123.5"/>
<text text-anchor="middle" x="2679" y="-131.5" font-family="Helvetica,sans-Serif" font-size="10.00">tuple</text>
</g>
<!-- Node41&#45;&gt;Node49 -->
<g id="edge122" class="edge"><title>Node41&#45;&gt;Node49</title>
<path fill="none" stroke="midnightblue" d="M2650.61,-188.267C2655.52,-178.896 2662.75,-165.057 2668.7,-153.7"/>
<polygon fill="midnightblue" stroke="midnightblue" points="2671.96,-155.017 2673.49,-144.534 2665.75,-151.772 2671.96,-155.017"/>
</g>
<!-- Node50 -->
<g id="node112" class="node"><title>Node50</title>
<polygon fill="white" stroke="#bfbfbf" points="2716,-123.5 2716,-144.5 2762,-144.5 2762,-123.5 2716,-123.5"/>
<text text-anchor="middle" x="2739" y="-131.5" font-family="Helvetica,sans-Serif" font-size="10.00">cstdint</text>
</g>
<!-- Node41&#45;&gt;Node50 -->
<g id="edge124" class="edge"><title>Node41&#45;&gt;Node50</title>
<path fill="none" stroke="midnightblue" d="M2660.52,-188.267C2675.44,-177.949 2698.2,-162.216 2715.37,-150.342"/>
<polygon fill="midnightblue" stroke="midnightblue" points="2717.53,-153.1 2723.77,-144.534 2713.55,-147.343 2717.53,-153.1"/>
</g>
<!-- Node43&#45;&gt;Node19 -->
<g id="edge108" class="edge"><title>Node43&#45;&gt;Node19</title>
<path fill="none" stroke="midnightblue" d="M2439.75,-123.407C2345.86,-99.2969 2117.86,-40.75 2033.8,-19.1667"/>
<polygon fill="midnightblue" stroke="midnightblue" points="2034.61,-15.7613 2024.06,-16.6641 2032.87,-22.5413 2034.61,-15.7613"/>
</g>
<!-- Node44 -->
<g id="node99" class="node"><title>Node44</title>
<polygon fill="white" stroke="#bfbfbf" points="2476,-58.5 2476,-79.5 2528,-79.5 2528,-58.5 2476,-58.5"/>
<text text-anchor="middle" x="2502" y="-66.5" font-family="Helvetica,sans-Serif" font-size="10.00">ostream</text>
</g>
<!-- Node43&#45;&gt;Node44 -->
<g id="edge110" class="edge"><title>Node43&#45;&gt;Node44</title>
<path fill="none" stroke="midnightblue" d="M2484.47,-123.267C2487.43,-114.085 2491.79,-100.615 2495.41,-89.3917"/>
<polygon fill="midnightblue" stroke="midnightblue" points="2498.85,-90.1254 2498.6,-79.5337 2492.19,-87.9734 2498.85,-90.1254"/>
</g>
<!-- Node45&#45;&gt;Node27 -->
<g id="edge114" class="edge"><title>Node45&#45;&gt;Node27</title>
<path fill="none" stroke="midnightblue" d="M2862.51,-123.485C2871.62,-120.734 2881.64,-117.986 2891,-116 2996.59,-93.5971 3121.59,-80.413 3195.65,-73.9596"/>
<polygon fill="midnightblue" stroke="midnightblue" points="3196.09,-77.4348 3205.76,-73.0934 3195.49,-70.4604 3196.09,-77.4348"/>
</g>
<!-- Node46 -->
<g id="node104" class="node"><title>Node46</title>
<polygon fill="white" stroke="#bfbfbf" points="2839,-58.5 2839,-79.5 2885,-79.5 2885,-58.5 2839,-58.5"/>
<text text-anchor="middle" x="2862" y="-66.5" font-family="Helvetica,sans-Serif" font-size="10.00">cstring</text>
</g>
<!-- Node45&#45;&gt;Node46 -->
<g id="edge116" class="edge"><title>Node45&#45;&gt;Node46</title>
<path fill="none" stroke="midnightblue" d="M2836.12,-123.267C2840.59,-113.896 2847.19,-100.057 2852.6,-88.7004"/>
<polygon fill="midnightblue" stroke="midnightblue" points="2855.83,-90.0664 2856.98,-79.5337 2849.51,-87.0531 2855.83,-90.0664"/>
</g>
<!-- Node45&#45;&gt;Node47 -->
<g id="edge118" class="edge"><title>Node45&#45;&gt;Node47</title>
<path fill="none" stroke="midnightblue" d="M2826.05,-123.267C2821.72,-113.896 2815.33,-100.057 2810.09,-88.7004"/>
<polygon fill="midnightblue" stroke="midnightblue" points="2813.23,-87.1466 2805.86,-79.5337 2806.87,-90.08 2813.23,-87.1466"/>
</g>
<!-- Node51&#45;&gt;Node18 -->
<g id="edge140" class="edge"><title>Node51&#45;&gt;Node18</title>
<path fill="none" stroke="midnightblue" d="M3022,-58.3619C3022,-50.9219 3022,-40.7427 3022,-31.7276"/>
<polygon fill="midnightblue" stroke="midnightblue" points="3025.5,-31.5706 3022,-21.5707 3018.5,-31.5707 3025.5,-31.5706"/>
</g>
<!-- Node52&#45;&gt;Node18 -->
<g id="edge148" class="edge"><title>Node52&#45;&gt;Node18</title>
<path fill="none" stroke="midnightblue" d="M2493.92,-246.23C2475.33,-228.703 2440.65,-191.929 2429,-152 2416.38,-108.742 2428.3,-81.0768 2467,-58 2512.16,-31.0724 2881.23,-15.9737 2991.19,-12.0419"/>
<polygon fill="midnightblue" stroke="midnightblue" points="2991.42,-15.536 3001.29,-11.6862 2991.18,-8.54034 2991.42,-15.536"/>
</g>
<!-- Node52&#45;&gt;Node41 -->
<g id="edge144" class="edge"><title>Node52&#45;&gt;Node41</title>
<path fill="none" stroke="midnightblue" d="M2531.17,-246.497C2554.65,-236.698 2589.72,-222.065 2614.73,-211.633"/>
<polygon fill="midnightblue" stroke="midnightblue" points="2616.22,-214.802 2624.1,-207.721 2613.52,-208.342 2616.22,-214.802"/>
</g>
<!-- Node53 -->
<g id="node126" class="node"><title>Node53</title>
<polygon fill="white" stroke="#bfbfbf" points="2475,-188.5 2475,-209.5 2537,-209.5 2537,-188.5 2475,-188.5"/>
<text text-anchor="middle" x="2506" y="-196.5" font-family="Helvetica,sans-Serif" font-size="10.00">TNamed.h</text>
</g>
<!-- Node52&#45;&gt;Node53 -->
<g id="edge146" class="edge"><title>Node52&#45;&gt;Node53</title>
<path fill="none" stroke="midnightblue" d="M2506,-246.362C2506,-238.922 2506,-228.743 2506,-219.728"/>
<polygon fill="midnightblue" stroke="midnightblue" points="2509.5,-219.571 2506,-209.571 2502.5,-219.571 2509.5,-219.571"/>
</g>
</g>
</svg>
