<?xml version="1.0" encoding="UTF-8" standalone="no"?>
<!DOCTYPE svg PUBLIC "-//W3C//DTD SVG 1.1//EN"
 "http://www.w3.org/Graphics/SVG/1.1/DTD/svg11.dtd">
<!-- Generated by graphviz version 2.26.3 (20100126.1600)
 -->
<!-- Title: progs/Ant&#45;hadd.cc Pages: 1 -->
<svg width="1118pt" height="146pt"
 viewBox="0.00 0.00 1118.00 146.00" xmlns="http://www.w3.org/2000/svg" xmlns:xlink="http://www.w3.org/1999/xlink">
<g id="graph1" class="graph" transform="scale(1 1) rotate(0) translate(4 142)">
<title>progs/Ant&#45;hadd.cc</title>
<polygon fill="white" stroke="white" points="-4,5 -4,-142 1115,-142 1115,5 -4,5"/>
<!-- Node1 -->
<g id="node1" class="node"><title>Node1</title>
<polygon fill="#bfbfbf" stroke="black" points="469,-116.5 469,-137.5 565,-137.5 565,-116.5 469,-116.5"/>
<text text-anchor="middle" x="517" y="-124.5" font-family="Helvetica,sans-Serif" font-size="10.00">progs/Ant&#45;hadd.cc</text>
</g>
<!-- Node2 -->
<g id="node3" class="node"><title>Node2</title>
<polygon fill="white" stroke="#bfbfbf" points="-0.5,-58.5 -0.5,-79.5 60.5,-79.5 60.5,-58.5 -0.5,-58.5"/>
<text text-anchor="middle" x="30" y="-66.5" font-family="Helvetica,sans-Serif" font-size="10.00">RConfig.h</text>
</g>
<!-- Node1&#45;&gt;Node2 -->
<g id="edge2" class="edge"><title>Node1&#45;&gt;Node2</title>
<path fill="none" stroke="midnightblue" d="M468.869,-124.645C388.162,-120.111 220.411,-108.18 70.3936,-80.0231"/>
<polygon fill="midnightblue" stroke="midnightblue" points="71.0174,-76.5791 60.539,-78.1449 69.7068,-83.4553 71.0174,-76.5791"/>
</g>
<!-- Node3 -->
<g id="node5" class="node"><title>Node3</title>
<polygon fill="white" stroke="#bfbfbf" points="77.5,-58.5 77.5,-79.5 118.5,-79.5 118.5,-58.5 77.5,-58.5"/>
<text text-anchor="middle" x="98" y="-66.5" font-family="Helvetica,sans-Serif" font-size="10.00">string</text>
</g>
<!-- Node1&#45;&gt;Node3 -->
<g id="edge4" class="edge"><title>Node1&#45;&gt;Node3</title>
<path fill="none" stroke="midnightblue" d="M468.903,-124.955C396.488,-121.062 255.263,-110.3 128.586,-79.9598"/>
<polygon fill="midnightblue" stroke="midnightblue" points="129.262,-76.522 118.717,-77.5484 127.6,-83.3219 129.262,-76.522"/>
</g>
<!-- Node4 -->
<g id="node7" class="node"><title>Node4</title>
<polygon fill="white" stroke="#bfbfbf" points="135.5,-58.5 135.5,-79.5 182.5,-79.5 182.5,-58.5 135.5,-58.5"/>
<text text-anchor="middle" x="159" y="-66.5" font-family="Helvetica,sans-Serif" font-size="10.00">TFile.h</text>
</g>
<!-- Node1&#45;&gt;Node4 -->
<g id="edge6" class="edge"><title>Node1&#45;&gt;Node4</title>
<path fill="none" stroke="midnightblue" d="M468.956,-122.922C406.895,-117.03 295.506,-104.335 192.554,-80.0585"/>
<polygon fill="midnightblue" stroke="midnightblue" points="193.159,-76.6046 182.619,-77.6729 191.525,-83.4111 193.159,-76.6046"/>
</g>
<!-- Node5 -->
<g id="node9" class="node"><title>Node5</title>
<polygon fill="white" stroke="#bfbfbf" points="200,-58.5 200,-79.5 270,-79.5 270,-58.5 200,-58.5"/>
<text text-anchor="middle" x="235" y="-66.5" font-family="Helvetica,sans-Serif" font-size="10.00">THashList.h</text>
</g>
<!-- Node1&#45;&gt;Node5 -->
<g id="edge8" class="edge"><title>Node1&#45;&gt;Node5</title>
<path fill="none" stroke="midnightblue" d="M468.987,-118.248C422.978,-109.698 351.353,-95.962 280.079,-80.1666"/>
<polygon fill="midnightblue" stroke="midnightblue" points="280.549,-76.6855 270.027,-77.9245 279.025,-83.5177 280.549,-76.6855"/>
</g>
<!-- Node6 -->
<g id="node11" class="node"><title>Node6</title>
<polygon fill="white" stroke="#bfbfbf" points="288,-58.5 288,-79.5 336,-79.5 336,-58.5 288,-58.5"/>
<text text-anchor="middle" x="312" y="-66.5" font-family="Helvetica,sans-Serif" font-size="10.00">TKey.h</text>
</g>
<!-- Node1&#45;&gt;Node6 -->
<g id="edge10" class="edge"><title>Node1&#45;&gt;Node6</title>
<path fill="none" stroke="midnightblue" d="M475.81,-116.425C442.968,-107.842 395.604,-95.1233 345.765,-80.1306"/>
<polygon fill="midnightblue" stroke="midnightblue" points="346.687,-76.7527 336.102,-77.2039 344.658,-83.4522 346.687,-76.7527"/>
</g>
<!-- Node7 -->
<g id="node13" class="node"><title>Node7</title>
<polygon fill="white" stroke="#bfbfbf" points="353.5,-58.5 353.5,-79.5 424.5,-79.5 424.5,-58.5 353.5,-58.5"/>
<text text-anchor="middle" x="389" y="-66.5" font-family="Helvetica,sans-Serif" font-size="10.00">TObjString.h</text>
</g>
<!-- Node1&#45;&gt;Node7 -->
<g id="edge12" class="edge"><title>Node1&#45;&gt;Node7</title>
<path fill="none" stroke="midnightblue" d="M493.82,-116.497C473.648,-107.356 444.19,-94.0082 421.636,-83.7883"/>
<polygon fill="midnightblue" stroke="midnightblue" points="422.993,-80.5606 412.44,-79.6212 420.104,-86.9366 422.993,-80.5606"/>
</g>
<!-- Node8 -->
<g id="node15" class="node"><title>Node8</title>
<polygon fill="white" stroke="#bfbfbf" points="442,-58.5 442,-79.5 512,-79.5 512,-58.5 442,-58.5"/>
<text text-anchor="middle" x="477" y="-66.5" font-family="Helvetica,sans-Serif" font-size="10.00">Riostream.h</text>
</g>
<!-- Node1&#45;&gt;Node8 -->
<g id="edge14" class="edge"><title>Node1&#45;&gt;Node8</title>
<path fill="none" stroke="midnightblue" d="M509.663,-116.362C504.194,-108.431 496.578,-97.3885 490.076,-87.9606"/>
<polygon fill="midnightblue" stroke="midnightblue" points="492.849,-85.8157 484.29,-79.5707 487.086,-89.7899 492.849,-85.8157"/>
</g>
<!-- Node9 -->
<g id="node17" class="node"><title>Node9</title>
<polygon fill="white" stroke="#bfbfbf" points="530,-58.5 530,-79.5 586,-79.5 586,-58.5 530,-58.5"/>
<text text-anchor="middle" x="558" y="-66.5" font-family="Helvetica,sans-Serif" font-size="10.00">TClass.h</text>
</g>
<!-- Node1&#45;&gt;Node9 -->
<g id="edge16" class="edge"><title>Node1&#45;&gt;Node9</title>
<path fill="none" stroke="midnightblue" d="M524.52,-116.362C530.126,-108.431 537.932,-97.3885 544.597,-87.9606"/>
<polygon fill="midnightblue" stroke="midnightblue" points="547.613,-89.7568 550.528,-79.5707 541.897,-85.7161 547.613,-89.7568"/>
</g>
<!-- Node10 -->
<g id="node19" class="node"><title>Node10</title>
<polygon fill="white" stroke="#bfbfbf" points="603.5,-58.5 603.5,-79.5 668.5,-79.5 668.5,-58.5 603.5,-58.5"/>
<text text-anchor="middle" x="636" y="-66.5" font-family="Helvetica,sans-Serif" font-size="10.00">TSystem.h</text>
</g>
<!-- Node1&#45;&gt;Node10 -->
<g id="edge18" class="edge"><title>Node1&#45;&gt;Node10</title>
<path fill="none" stroke="midnightblue" d="M538.55,-116.497C557.136,-107.438 584.202,-94.2462 605.095,-84.0628"/>
<polygon fill="midnightblue" stroke="midnightblue" points="606.753,-87.1487 614.208,-79.6212 603.686,-80.8563 606.753,-87.1487"/>
</g>
<!-- Node11 -->
<g id="node21" class="node"><title>Node11</title>
<polygon fill="white" stroke="#bfbfbf" points="686,-58.5 686,-79.5 734,-79.5 734,-58.5 686,-58.5"/>
<text text-anchor="middle" x="710" y="-66.5" font-family="Helvetica,sans-Serif" font-size="10.00">stdlib.h</text>
</g>
<!-- Node1&#45;&gt;Node11 -->
<g id="edge20" class="edge"><title>Node1&#45;&gt;Node11</title>
<path fill="none" stroke="midnightblue" d="M554.294,-116.457C584.7,-107.769 628.979,-94.9098 676.105,-80.2136"/>
<polygon fill="midnightblue" stroke="midnightblue" points="677.386,-83.4802 685.882,-77.1507 675.293,-76.8003 677.386,-83.4802"/>
</g>
<!-- Node12 -->
<g id="node23" class="node"><title>Node12</title>
<polygon fill="white" stroke="#bfbfbf" points="751.5,-58.5 751.5,-79.5 828.5,-79.5 828.5,-58.5 751.5,-58.5"/>
<text text-anchor="middle" x="790" y="-66.5" font-family="Helvetica,sans-Serif" font-size="10.00">TFileMerger.h</text>
</g>
<!-- Node1&#45;&gt;Node12 -->
<g id="edge22" class="edge"><title>Node1&#45;&gt;Node12</title>
<path fill="none" stroke="midnightblue" d="M565.129,-117.352C608.786,-108.519 675.174,-94.8849 741.505,-80.2989"/>
<polygon fill="midnightblue" stroke="midnightblue" points="742.278,-83.7128 751.289,-78.1405 740.769,-76.8772 742.278,-83.7128"/>
</g>
<!-- Node13 -->
<g id="node25" class="node"><title>Node13</title>
<polygon fill="white" stroke="#bfbfbf" points="845.5,-58.5 845.5,-79.5 904.5,-79.5 904.5,-58.5 845.5,-58.5"/>
<text text-anchor="middle" x="875" y="-66.5" font-family="Helvetica,sans-Serif" font-size="10.00">TROOT.h</text>
</g>
<!-- Node1&#45;&gt;Node13 -->
<g id="edge24" class="edge"><title>Node1&#45;&gt;Node13</title>
<path fill="none" stroke="midnightblue" d="M565.075,-122.003C625.974,-115.219 734.257,-101.642 835.172,-80.2015"/>
<polygon fill="midnightblue" stroke="midnightblue" points="836.19,-83.5626 845.227,-78.0333 834.714,-76.7199 836.19,-83.5626"/>
</g>
<!-- Node14 -->
<g id="node27" class="node"><title>Node14</title>
<polygon fill="white" stroke="#bfbfbf" points="921.5,-58.5 921.5,-79.5 996.5,-79.5 996.5,-58.5 921.5,-58.5"/>
<text text-anchor="middle" x="959" y="-66.5" font-family="Helvetica,sans-Serif" font-size="10.00">TInterpreter.h</text>
</g>
<!-- Node1&#45;&gt;Node14 -->
<g id="edge26" class="edge"><title>Node1&#45;&gt;Node14</title>
<path fill="none" stroke="midnightblue" d="M565.117,-123.112C638.016,-116.823 780.947,-102.935 911.262,-80.162"/>
<polygon fill="midnightblue" stroke="midnightblue" points="912.183,-83.5534 921.419,-78.364 910.962,-76.6606 912.183,-83.5534"/>
</g>
<!-- Node15 -->
<g id="node29" class="node"><title>Node15</title>
<a xlink:href="_logger_8h.html" target="_top" xlink:title="base/Logger.h">
<polygon fill="white" stroke="black" points="1014,-58.5 1014,-79.5 1092,-79.5 1092,-58.5 1014,-58.5"/>
<text text-anchor="middle" x="1053" y="-66.5" font-family="Helvetica,sans-Serif" font-size="10.00">base/Logger.h</text>
</a>
</g>
<!-- Node1&#45;&gt;Node15 -->
<g id="edge28" class="edge"><title>Node1&#45;&gt;Node15</title>
<path fill="none" stroke="midnightblue" d="M565.058,-124.438C651.154,-119.398 837.482,-106.455 1003.87,-80.0166"/>
<polygon fill="midnightblue" stroke="midnightblue" points="1004.47,-83.4648 1013.79,-78.4205 1003.36,-76.5537 1004.47,-83.4648"/>
</g>
<!-- Node16 -->
<g id="node31" class="node"><title>Node16</title>
<polygon fill="white" stroke="#bfbfbf" points="995.5,-0.5 995.5,-21.5 1110.5,-21.5 1110.5,-0.5 995.5,-0.5"/>
<text text-anchor="middle" x="1053" y="-8.5" font-family="Helvetica,sans-Serif" font-size="10.00">detail/easylogging++.h</text>
</g>
<!-- Node15&#45;&gt;Node16 -->
<g id="edge30" class="edge"><title>Node15&#45;&gt;Node16</title>
<path fill="none" stroke="midnightblue" d="M1053,-58.3619C1053,-50.9219 1053,-40.7427 1053,-31.7276"/>
<polygon fill="midnightblue" stroke="midnightblue" points="1056.5,-31.5706 1053,-21.5707 1049.5,-31.5707 1056.5,-31.5706"/>
</g>
</g>
</svg>
