<?xml version="1.0" encoding="UTF-8" standalone="no"?>
<!DOCTYPE svg PUBLIC "-//W3C//DTD SVG 1.1//EN"
 "http://www.w3.org/Graphics/SVG/1.1/DTD/svg11.dtd">
<!-- Generated by graphviz version 2.26.3 (20100126.1600)
 -->
<!-- Title: src/analysis/input/ant/AntReader.cc Pages: 1 -->
<svg width="4026pt" height="550pt"
 viewBox="0.00 0.00 4026.00 550.00" xmlns="http://www.w3.org/2000/svg" xmlns:xlink="http://www.w3.org/1999/xlink">
<g id="graph1" class="graph" transform="scale(1 1) rotate(0) translate(4 546)">
<title>src/analysis/input/ant/AntReader.cc</title>
<polygon fill="white" stroke="white" points="-4,5 -4,-546 4023,-546 4023,5 -4,5"/>
<!-- Node1 -->
<g id="node1" class="node"><title>Node1</title>
<polygon fill="#bfbfbf" stroke="black" points="3190,-507 3190,-541 3286,-541 3286,-507 3190,-507"/>
<text text-anchor="start" x="3198" y="-528" font-family="Helvetica,sans-Serif" font-size="10.00">src/analysis/input</text>
<text text-anchor="middle" x="3238" y="-515" font-family="Helvetica,sans-Serif" font-size="10.00">/ant/AntReader.cc</text>
</g>
<!-- Node2 -->
<g id="node3" class="node"><title>Node2</title>
<a xlink:href="_ant_reader_8h.html" target="_top" xlink:title="AntReader.h">
<polygon fill="white" stroke="black" points="1103.5,-390.5 1103.5,-411.5 1174.5,-411.5 1174.5,-390.5 1103.5,-390.5"/>
<text text-anchor="middle" x="1139" y="-398.5" font-family="Helvetica,sans-Serif" font-size="10.00">AntReader.h</text>
</a>
</g>
<!-- Node1&#45;&gt;Node2 -->
<g id="edge2" class="edge"><title>Node1&#45;&gt;Node2</title>
<path fill="none" stroke="midnightblue" d="M3189.96,-521.185C2907.09,-504.609 1461.39,-419.892 1184.78,-403.683"/>
<polygon fill="midnightblue" stroke="midnightblue" points="1184.88,-400.183 1174.69,-403.092 1184.47,-407.171 1184.88,-400.183"/>
</g>
<!-- Node4 -->
<g id="node7" class="node"><title>Node4</title>
<polygon fill="white" stroke="#bfbfbf" points="948,-116.5 948,-137.5 1000,-137.5 1000,-116.5 948,-116.5"/>
<text text-anchor="middle" x="974" y="-124.5" font-family="Helvetica,sans-Serif" font-size="10.00">memory</text>
</g>
<!-- Node1&#45;&gt;Node4 -->
<g id="edge362" class="edge"><title>Node1&#45;&gt;Node4</title>
<path fill="none" stroke="midnightblue" d="M3189.96,-522.774C2841.7,-513.658 715.362,-453.989 627,-354 576.349,-296.684 587.939,-258.52 706,-174 742.657,-147.757 873.638,-134.52 937.908,-129.483"/>
<polygon fill="midnightblue" stroke="midnightblue" points="938.288,-132.964 947.994,-128.717 937.758,-125.984 938.288,-132.964"/>
</g>
<!-- Node16 -->
<g id="node34" class="node"><title>Node16</title>
<polygon fill="white" stroke="#bfbfbf" points="2901.5,-116.5 2901.5,-137.5 2960.5,-137.5 2960.5,-116.5 2901.5,-116.5"/>
<text text-anchor="middle" x="2931" y="-124.5" font-family="Helvetica,sans-Serif" font-size="10.00">stdexcept</text>
</g>
<!-- Node1&#45;&gt;Node16 -->
<g id="edge364" class="edge"><title>Node1&#45;&gt;Node16</title>
<path fill="none" stroke="midnightblue" d="M3230.65,-506.899C3203.19,-443.667 3105.35,-224.163 3049,-174 3042.71,-168.403 3001.94,-152.76 2970.06,-141.047"/>
<polygon fill="midnightblue" stroke="midnightblue" points="2971.09,-137.699 2960.5,-137.554 2968.69,-144.274 2971.09,-137.699"/>
</g>
<!-- Node36 -->
<g id="node97" class="node"><title>Node36</title>
<a xlink:href="_t_event_8h.html" target="_top" xlink:title="tree/TEvent.h">
<polygon fill="white" stroke="black" points="3422,-181.5 3422,-202.5 3498,-202.5 3498,-181.5 3422,-181.5"/>
<text text-anchor="middle" x="3460" y="-189.5" font-family="Helvetica,sans-Serif" font-size="10.00">tree/TEvent.h</text>
</a>
</g>
<!-- Node1&#45;&gt;Node36 -->
<g id="edge122" class="edge"><title>Node1&#45;&gt;Node36</title>
<path fill="none" stroke="midnightblue" d="M3286.41,-508.087C3331.23,-489.945 3391,-455.531 3391,-401 3391,-401 3391,-401 3391,-336 3391,-286.935 3423.98,-236.882 3444.34,-210.661"/>
<polygon fill="midnightblue" stroke="midnightblue" points="3447.18,-212.713 3450.69,-202.718 3441.71,-208.341 3447.18,-212.713"/>
</g>
<!-- Node38 -->
<g id="node104" class="node"><title>Node38</title>
<a xlink:href="_t_event_data_8h.html" target="_top" xlink:title="tree/TEventData.h">
<polygon fill="white" stroke="black" points="2765.5,-448.5 2765.5,-469.5 2862.5,-469.5 2862.5,-448.5 2765.5,-448.5"/>
<text text-anchor="middle" x="2814" y="-456.5" font-family="Helvetica,sans-Serif" font-size="10.00">tree/TEventData.h</text>
</a>
</g>
<!-- Node1&#45;&gt;Node38 -->
<g id="edge132" class="edge"><title>Node1&#45;&gt;Node38</title>
<path fill="none" stroke="midnightblue" d="M3189.77,-516.607C3111.46,-504.601 2956.89,-480.905 2872.45,-467.96"/>
<polygon fill="midnightblue" stroke="midnightblue" points="2872.92,-464.492 2862.51,-466.436 2871.86,-471.411 2872.92,-464.492"/>
</g>
<!-- Node71 -->
<g id="node249" class="node"><title>Node71</title>
<a xlink:href="_logger_8h.html" target="_top" xlink:title="base/Logger.h">
<polygon fill="white" stroke="black" points="3419,-448.5 3419,-469.5 3497,-469.5 3497,-448.5 3419,-448.5"/>
<text text-anchor="middle" x="3458" y="-456.5" font-family="Helvetica,sans-Serif" font-size="10.00">base/Logger.h</text>
</a>
</g>
<!-- Node1&#45;&gt;Node71 -->
<g id="edge356" class="edge"><title>Node1&#45;&gt;Node71</title>
<path fill="none" stroke="midnightblue" d="M3286.01,-509.816C3323.57,-498.719 3375.44,-483.392 3412.38,-472.48"/>
<polygon fill="midnightblue" stroke="midnightblue" points="3413.78,-475.716 3422.37,-469.526 3411.79,-469.003 3413.78,-475.716"/>
</g>
<!-- Node73 -->
<g id="node253" class="node"><title>Node73</title>
<polygon fill="white" stroke="#bfbfbf" points="3515,-448.5 3515,-469.5 3565,-469.5 3565,-448.5 3515,-448.5"/>
<text text-anchor="middle" x="3540" y="-456.5" font-family="Helvetica,sans-Serif" font-size="10.00">TTree.h</text>
</g>
<!-- Node1&#45;&gt;Node73 -->
<g id="edge360" class="edge"><title>Node1&#45;&gt;Node73</title>
<path fill="none" stroke="midnightblue" d="M3286.31,-515.979C3338.15,-506.99 3423.05,-491.177 3504.88,-470.09"/>
<polygon fill="midnightblue" stroke="midnightblue" points="3506.05,-473.402 3514.84,-467.492 3504.28,-466.629 3506.05,-473.402"/>
</g>
<!-- Node3 -->
<g id="node5" class="node"><title>Node3</title>
<a xlink:href="_data_reader_8h.html" target="_top" xlink:title="analysis/input/DataReader.h">
<polygon fill="white" stroke="black" points="636,-325.5 636,-346.5 776,-346.5 776,-325.5 636,-325.5"/>
<text text-anchor="middle" x="706" y="-333.5" font-family="Helvetica,sans-Serif" font-size="10.00">analysis/input/DataReader.h</text>
</a>
</g>
<!-- Node2&#45;&gt;Node3 -->
<g id="edge4" class="edge"><title>Node2&#45;&gt;Node3</title>
<path fill="none" stroke="midnightblue" d="M1103.44,-397.13C1040.17,-390.041 903.985,-373.857 790,-354 780.936,-352.421 771.363,-350.558 762.052,-348.639"/>
<polygon fill="midnightblue" stroke="midnightblue" points="762.595,-345.177 752.089,-346.546 761.156,-352.027 762.595,-345.177"/>
</g>
<!-- Node2&#45;&gt;Node4 -->
<g id="edge118" class="edge"><title>Node2&#45;&gt;Node4</title>
<path fill="none" stroke="midnightblue" d="M1103.3,-399.47C1031.39,-395.776 872.176,-384.324 828,-354 797.64,-333.16 800.926,-316.09 787,-282 768.569,-236.882 737.611,-212.103 768,-174 788.853,-147.853 884.513,-135.109 937.832,-129.94"/>
<polygon fill="midnightblue" stroke="midnightblue" points="938.263,-133.415 947.897,-129.005 937.616,-126.445 938.263,-133.415"/>
</g>
<!-- Node5 -->
<g id="node9" class="node"><title>Node5</title>
<a xlink:href="_unpacker_8h.html" target="_top" xlink:title="unpacker/Unpacker.h">
<polygon fill="white" stroke="black" points="1334,-181.5 1334,-202.5 1444,-202.5 1444,-181.5 1334,-181.5"/>
<text text-anchor="middle" x="1389" y="-189.5" font-family="Helvetica,sans-Serif" font-size="10.00">unpacker/Unpacker.h</text>
</a>
</g>
<!-- Node2&#45;&gt;Node5 -->
<g id="edge8" class="edge"><title>Node2&#45;&gt;Node5</title>
<path fill="none" stroke="midnightblue" d="M1156.16,-390.441C1170.63,-381.314 1191.68,-367.498 1209,-354 1271.36,-305.395 1339.24,-240.777 1370.87,-209.903"/>
<polygon fill="midnightblue" stroke="midnightblue" points="1373.42,-212.31 1378.11,-202.811 1368.52,-207.31 1373.42,-212.31"/>
</g>
<!-- Node6 -->
<g id="node11" class="node"><title>Node6</title>
<polygon fill="white" stroke="#bfbfbf" points="2035.5,-116.5 2035.5,-137.5 2076.5,-137.5 2076.5,-116.5 2035.5,-116.5"/>
<text text-anchor="middle" x="2056" y="-124.5" font-family="Helvetica,sans-Serif" font-size="10.00">string</text>
</g>
<!-- Node2&#45;&gt;Node6 -->
<g id="edge120" class="edge"><title>Node2&#45;&gt;Node6</title>
<path fill="none" stroke="midnightblue" d="M1174.58,-397.648C1299.17,-385.491 1714.53,-341.301 1833,-282 1895.41,-250.759 1888.73,-212.408 1947,-174 1971.73,-157.7 2003.05,-144.888 2025.77,-136.785"/>
<polygon fill="midnightblue" stroke="midnightblue" points="2026.93,-140.084 2035.23,-133.501 2024.64,-133.471 2026.93,-140.084"/>
</g>
<!-- Node7 -->
<g id="node14" class="node"><title>Node7</title>
<a xlink:href="_reconstruct__traits_8h.html" target="_top" xlink:title="reconstruct/Reconstruct\l_traits.h">
<polygon fill="white" stroke="black" points="1078,-319 1078,-353 1200,-353 1200,-319 1078,-319"/>
<text text-anchor="start" x="1086" y="-340" font-family="Helvetica,sans-Serif" font-size="10.00">reconstruct/Reconstruct</text>
<text text-anchor="middle" x="1139" y="-327" font-family="Helvetica,sans-Serif" font-size="10.00">_traits.h</text>
</a>
</g>
<!-- Node2&#45;&gt;Node7 -->
<g id="edge14" class="edge"><title>Node2&#45;&gt;Node7</title>
<path fill="none" stroke="midnightblue" d="M1139,-390.267C1139,-382.931 1139,-372.857 1139,-363.38"/>
<polygon fill="midnightblue" stroke="midnightblue" points="1142.5,-363.11 1139,-353.11 1135.5,-363.11 1142.5,-363.11"/>
</g>
<!-- Node25 -->
<g id="node63" class="node"><title>Node25</title>
<a xlink:href="_wrap_t_file_8h.html" target="_top" xlink:title="base/WrapTFile.h">
<polygon fill="white" stroke="black" points="492,-253.5 492,-274.5 586,-274.5 586,-253.5 492,-253.5"/>
<text text-anchor="middle" x="539" y="-261.5" font-family="Helvetica,sans-Serif" font-size="10.00">base/WrapTFile.h</text>
</a>
</g>
<!-- Node2&#45;&gt;Node25 -->
<g id="edge76" class="edge"><title>Node2&#45;&gt;Node25</title>
<path fill="none" stroke="midnightblue" d="M1103.38,-399.155C994.336,-393.308 669.821,-374.374 627,-354 593.848,-338.227 566.31,-304.396 551.294,-283.001"/>
<polygon fill="midnightblue" stroke="midnightblue" points="554.159,-280.99 545.646,-274.683 548.368,-284.922 554.159,-280.99"/>
</g>
<!-- Node3&#45;&gt;Node4 -->
<g id="edge6" class="edge"><title>Node3&#45;&gt;Node4</title>
<path fill="none" stroke="midnightblue" d="M703.827,-325.139C698.725,-296.191 689.293,-216.506 730,-174 758.078,-144.682 876.744,-133.069 937.63,-128.975"/>
<polygon fill="midnightblue" stroke="midnightblue" points="938.183,-132.446 947.94,-128.316 937.737,-125.461 938.183,-132.446"/>
</g>
<!-- Node5&#45;&gt;Node4 -->
<g id="edge12" class="edge"><title>Node5&#45;&gt;Node4</title>
<path fill="none" stroke="midnightblue" d="M1351.95,-181.46C1341.66,-178.773 1330.44,-176.064 1320,-174 1208.12,-151.892 1073.84,-136.896 1010.48,-130.498"/>
<polygon fill="midnightblue" stroke="midnightblue" points="1010.52,-126.984 1000.22,-129.474 1009.82,-133.95 1010.52,-126.984"/>
</g>
<!-- Node5&#45;&gt;Node6 -->
<g id="edge10" class="edge"><title>Node5&#45;&gt;Node6</title>
<path fill="none" stroke="midnightblue" d="M1444.3,-186.182C1479.43,-182.543 1525.87,-177.834 1567,-174 1754.42,-156.53 1802.21,-161.266 1989,-138 2000.91,-136.516 2013.95,-134.473 2025.33,-132.549"/>
<polygon fill="midnightblue" stroke="midnightblue" points="2025.98,-135.989 2035.24,-130.836 2024.79,-129.091 2025.98,-135.989"/>
</g>
<!-- Node7&#45;&gt;Node4 -->
<g id="edge68" class="edge"><title>Node7&#45;&gt;Node4</title>
<path fill="none" stroke="midnightblue" d="M1077.94,-331.839C1009.89,-325.781 906.208,-311.823 882,-282 851.749,-244.732 856.942,-214.94 882,-174 894.231,-154.017 917.933,-142.19 938.216,-135.399"/>
<polygon fill="midnightblue" stroke="midnightblue" points="939.295,-138.729 947.832,-132.455 937.246,-132.035 939.295,-138.729"/>
</g>
<!-- Node8 -->
<g id="node16" class="node"><title>Node8</title>
<a xlink:href="_detector__t_8h.html" target="_top" xlink:title="base/Detector_t.h">
<polygon fill="white" stroke="black" points="1955.5,-181.5 1955.5,-202.5 2050.5,-202.5 2050.5,-181.5 1955.5,-181.5"/>
<text text-anchor="middle" x="2003" y="-189.5" font-family="Helvetica,sans-Serif" font-size="10.00">base/Detector_t.h</text>
</a>
</g>
<!-- Node7&#45;&gt;Node8 -->
<g id="edge16" class="edge"><title>Node7&#45;&gt;Node8</title>
<path fill="none" stroke="midnightblue" d="M1200.23,-334.424C1346.93,-330.137 1715.05,-316.209 1833,-282 1889.05,-265.745 1947.79,-229.745 1979.43,-208.531"/>
<polygon fill="midnightblue" stroke="midnightblue" points="1981.68,-211.233 1987.98,-202.714 1977.75,-205.445 1981.68,-211.233"/>
</g>
<!-- Node18 -->
<g id="node40" class="node"><title>Node18</title>
<a xlink:href="mapped__vectors_8h.html" target="_top" xlink:title="base/std_ext/mapped\l_vectors.h">
<polygon fill="white" stroke="black" points="1084,-247 1084,-281 1194,-281 1194,-247 1084,-247"/>
<text text-anchor="start" x="1092" y="-268" font-family="Helvetica,sans-Serif" font-size="10.00">base/std_ext/mapped</text>
<text text-anchor="middle" x="1139" y="-255" font-family="Helvetica,sans-Serif" font-size="10.00">_vectors.h</text>
</a>
</g>
<!-- Node7&#45;&gt;Node18 -->
<g id="edge44" class="edge"><title>Node7&#45;&gt;Node18</title>
<path fill="none" stroke="midnightblue" d="M1139,-318.937C1139,-310.807 1139,-300.876 1139,-291.705"/>
<polygon fill="midnightblue" stroke="midnightblue" points="1142.5,-291.441 1139,-281.441 1135.5,-291.441 1142.5,-291.441"/>
</g>
<!-- Node20 -->
<g id="node45" class="node"><title>Node20</title>
<polygon fill="white" stroke="#bfbfbf" points="1473.5,-116.5 1473.5,-137.5 1502.5,-137.5 1502.5,-116.5 1473.5,-116.5"/>
<text text-anchor="middle" x="1488" y="-124.5" font-family="Helvetica,sans-Serif" font-size="10.00">list</text>
</g>
<!-- Node7&#45;&gt;Node20 -->
<g id="edge72" class="edge"><title>Node7&#45;&gt;Node20</title>
<path fill="none" stroke="midnightblue" d="M1159.57,-318.856C1172.17,-308.302 1188.59,-294.453 1203,-282 1257.79,-234.647 1261.54,-208.887 1325,-174 1370.22,-149.142 1429.88,-136.295 1463.05,-130.662"/>
<polygon fill="midnightblue" stroke="midnightblue" points="1463.9,-134.069 1473.22,-129.021 1462.79,-127.159 1463.9,-134.069"/>
</g>
<!-- Node21 -->
<g id="node50" class="node"><title>Node21</title>
<a xlink:href="shared__ptr__container_8h.html" target="_top" xlink:title="base/std_ext/shared\l_ptr_container.h">
<polygon fill="white" stroke="black" points="961.5,-175 961.5,-209 1066.5,-209 1066.5,-175 961.5,-175"/>
<text text-anchor="start" x="969.5" y="-196" font-family="Helvetica,sans-Serif" font-size="10.00">base/std_ext/shared</text>
<text text-anchor="middle" x="1014" y="-183" font-family="Helvetica,sans-Serif" font-size="10.00">_ptr_container.h</text>
</a>
</g>
<!-- Node7&#45;&gt;Node21 -->
<g id="edge58" class="edge"><title>Node7&#45;&gt;Node21</title>
<path fill="none" stroke="midnightblue" d="M1115.73,-318.901C1102.95,-308.91 1087.25,-295.616 1075,-282 1057.1,-262.105 1040.31,-236.638 1028.9,-217.875"/>
<polygon fill="midnightblue" stroke="midnightblue" points="1031.88,-216.043 1023.75,-209.256 1025.87,-219.635 1031.88,-216.043"/>
</g>
<!-- Node22 -->
<g id="node54" class="node"><title>Node22</title>
<polygon fill="white" stroke="#bfbfbf" points="-0.5,-116.5 -0.5,-137.5 58.5,-137.5 58.5,-116.5 -0.5,-116.5"/>
<text text-anchor="middle" x="29" y="-124.5" font-family="Helvetica,sans-Serif" font-size="10.00">functional</text>
</g>
<!-- Node7&#45;&gt;Node22 -->
<g id="edge74" class="edge"><title>Node7&#45;&gt;Node22</title>
<path fill="none" stroke="midnightblue" d="M1077.8,-332.475C961.604,-325.447 701.137,-308.088 483,-282 278.403,-257.531 158.912,-366.609 25,-210 10.3544,-192.872 15.0716,-165.743 20.9745,-147.195"/>
<polygon fill="midnightblue" stroke="midnightblue" points="24.316,-148.244 24.3548,-137.649 17.7175,-145.907 24.316,-148.244"/>
</g>
<!-- Node24 -->
<g id="node59" class="node"><title>Node24</title>
<polygon fill="white" stroke="#bfbfbf" points="2135.5,-181.5 2135.5,-202.5 2170.5,-202.5 2170.5,-181.5 2135.5,-181.5"/>
<text text-anchor="middle" x="2153" y="-189.5" font-family="Helvetica,sans-Serif" font-size="10.00">map</text>
</g>
<!-- Node7&#45;&gt;Node24 -->
<g id="edge70" class="edge"><title>Node7&#45;&gt;Node24</title>
<path fill="none" stroke="midnightblue" d="M1200.21,-333.346C1354.66,-326.369 1757.26,-306.357 1889,-282 1997.67,-261.908 2027.47,-258.035 2127,-210 2128.33,-209.359 2129.67,-208.654 2130.99,-207.905"/>
<polygon fill="midnightblue" stroke="midnightblue" points="2132.87,-210.857 2139.46,-202.556 2129.13,-204.94 2132.87,-210.857"/>
</g>
<!-- Node8&#45;&gt;Node6 -->
<g id="edge38" class="edge"><title>Node8&#45;&gt;Node6</title>
<path fill="none" stroke="midnightblue" d="M2011.75,-181.267C2019.7,-171.517 2031.59,-156.932 2041.05,-145.336"/>
<polygon fill="midnightblue" stroke="midnightblue" points="2043.8,-147.496 2047.41,-137.534 2038.38,-143.072 2043.8,-147.496"/>
</g>
<!-- Node9 -->
<g id="node18" class="node"><title>Node9</title>
<a xlink:href="printable_8h.html" target="_top" xlink:title="base/printable.h">
<polygon fill="white" stroke="black" points="3494,-58.5 3494,-79.5 3580,-79.5 3580,-58.5 3494,-58.5"/>
<text text-anchor="middle" x="3537" y="-66.5" font-family="Helvetica,sans-Serif" font-size="10.00">base/printable.h</text>
</a>
</g>
<!-- Node8&#45;&gt;Node9 -->
<g id="edge18" class="edge"><title>Node8&#45;&gt;Node9</title>
<path fill="none" stroke="midnightblue" d="M2019.2,-181.376C2046.9,-163.883 2105.73,-129.599 2161,-116 2290.93,-84.0318 3246.32,-72.0292 3483.72,-69.5231"/>
<polygon fill="midnightblue" stroke="midnightblue" points="3483.86,-73.0219 3493.82,-69.4176 3483.79,-66.0223 3483.86,-73.0219"/>
</g>
<!-- Node10 -->
<g id="node20" class="node"><title>Node10</title>
<polygon fill="white" stroke="#bfbfbf" points="2176,-0.5 2176,-21.5 2220,-21.5 2220,-0.5 2176,-0.5"/>
<text text-anchor="middle" x="2198" y="-8.5" font-family="Helvetica,sans-Serif" font-size="10.00">vector</text>
</g>
<!-- Node8&#45;&gt;Node10 -->
<g id="edge42" class="edge"><title>Node8&#45;&gt;Node10</title>
<path fill="none" stroke="midnightblue" d="M2004,-181.335C2005.97,-165.558 2011.59,-135.739 2027,-116 2063.71,-68.9931 2127.8,-37.8989 2166.23,-22.4571"/>
<polygon fill="midnightblue" stroke="midnightblue" points="2167.83,-25.5875 2175.88,-18.6921 2165.29,-19.0663 2167.83,-25.5875"/>
</g>
<!-- Node12 -->
<g id="node24" class="node"><title>Node12</title>
<a xlink:href="vec3_8h.html" target="_top" xlink:title="base/vec/vec3.h">
<polygon fill="white" stroke="black" points="1573.5,-116.5 1573.5,-137.5 1662.5,-137.5 1662.5,-116.5 1573.5,-116.5"/>
<text text-anchor="middle" x="1618" y="-124.5" font-family="Helvetica,sans-Serif" font-size="10.00">base/vec/vec3.h</text>
</a>
</g>
<!-- Node8&#45;&gt;Node12 -->
<g id="edge24" class="edge"><title>Node8&#45;&gt;Node12</title>
<path fill="none" stroke="midnightblue" d="M1955.33,-184.912C1892.7,-175.452 1779.06,-157.782 1672.47,-138.22"/>
<polygon fill="midnightblue" stroke="midnightblue" points="1672.97,-134.755 1662.51,-136.383 1671.7,-141.639 1672.97,-134.755"/>
</g>
<!-- Node15 -->
<g id="node32" class="node"><title>Node15</title>
<polygon fill="white" stroke="#bfbfbf" points="3684,-116.5 3684,-137.5 3730,-137.5 3730,-116.5 3684,-116.5"/>
<text text-anchor="middle" x="3707" y="-124.5" font-family="Helvetica,sans-Serif" font-size="10.00">cstdint</text>
</g>
<!-- Node8&#45;&gt;Node15 -->
<g id="edge34" class="edge"><title>Node8&#45;&gt;Node15</title>
<path fill="none" stroke="midnightblue" d="M2030.53,-181.441C2039.47,-178.473 2049.54,-175.617 2059,-174 2346.5,-124.881 3079.47,-146.772 3371,-138 3481.89,-134.663 3613.36,-130.217 3673.7,-128.149"/>
<polygon fill="midnightblue" stroke="midnightblue" points="3673.91,-131.644 3683.78,-127.802 3673.67,-124.648 3673.91,-131.644"/>
</g>
<!-- Node8&#45;&gt;Node16 -->
<g id="edge36" class="edge"><title>Node8&#45;&gt;Node16</title>
<path fill="none" stroke="midnightblue" d="M2030.83,-181.447C2039.71,-178.518 2049.65,-175.683 2059,-174 2407.54,-111.262 2502.44,-171.405 2855,-138 2866.91,-136.872 2879.8,-135.183 2891.53,-133.466"/>
<polygon fill="midnightblue" stroke="midnightblue" points="2892.12,-136.917 2901.49,-131.962 2891.07,-129.995 2892.12,-136.917"/>
</g>
<!-- Node17 -->
<g id="node37" class="node"><title>Node17</title>
<polygon fill="white" stroke="#bfbfbf" points="1918,-116.5 1918,-137.5 1980,-137.5 1980,-116.5 1918,-116.5"/>
<text text-anchor="middle" x="1949" y="-124.5" font-family="Helvetica,sans-Serif" font-size="10.00">type_traits</text>
</g>
<!-- Node8&#45;&gt;Node17 -->
<g id="edge40" class="edge"><title>Node8&#45;&gt;Node17</title>
<path fill="none" stroke="midnightblue" d="M1994.08,-181.267C1985.98,-171.517 1973.87,-156.932 1964.23,-145.336"/>
<polygon fill="midnightblue" stroke="midnightblue" points="1966.83,-142.989 1957.75,-137.534 1961.45,-147.462 1966.83,-142.989"/>
</g>
<!-- Node9&#45;&gt;Node10 -->
<g id="edge20" class="edge"><title>Node9&#45;&gt;Node10</title>
<path fill="none" stroke="midnightblue" d="M3493.85,-59.9483C3489.19,-59.1877 3484.51,-58.5143 3480,-58 3227.22,-29.1495 2404.56,-14.3604 2230.53,-11.5129"/>
<polygon fill="midnightblue" stroke="midnightblue" points="2230.52,-8.01234 2220.46,-11.3497 2230.4,-15.0114 2230.52,-8.01234"/>
</g>
<!-- Node11 -->
<g id="node22" class="node"><title>Node11</title>
<polygon fill="white" stroke="#bfbfbf" points="3570,-0.5 3570,-21.5 3622,-21.5 3622,-0.5 3570,-0.5"/>
<text text-anchor="middle" x="3596" y="-8.5" font-family="Helvetica,sans-Serif" font-size="10.00">ostream</text>
</g>
<!-- Node9&#45;&gt;Node11 -->
<g id="edge22" class="edge"><title>Node9&#45;&gt;Node11</title>
<path fill="none" stroke="midnightblue" d="M3547.82,-58.3619C3556.22,-50.1043 3568.05,-38.4725 3577.89,-28.8029"/>
<polygon fill="midnightblue" stroke="midnightblue" points="3580.57,-31.077 3585.25,-21.5707 3575.66,-26.0851 3580.57,-31.077"/>
</g>
<!-- Node12&#45;&gt;Node9 -->
<g id="edge26" class="edge"><title>Node12&#45;&gt;Node9</title>
<path fill="none" stroke="midnightblue" d="M1662.73,-117.129C1665.52,-116.695 1668.29,-116.312 1671,-116 1854.94,-94.7696 3197.74,-73.9859 3483.58,-69.7729"/>
<polygon fill="midnightblue" stroke="midnightblue" points="3483.75,-73.271 3493.69,-69.6244 3483.64,-66.2718 3483.75,-73.271"/>
</g>
<!-- Node13 -->
<g id="node27" class="node"><title>Node13</title>
<a xlink:href="vec2_8h.html" target="_top" xlink:title="vec2.h">
<polygon fill="white" stroke="black" points="1612,-58.5 1612,-79.5 1658,-79.5 1658,-58.5 1612,-58.5"/>
<text text-anchor="middle" x="1635" y="-66.5" font-family="Helvetica,sans-Serif" font-size="10.00">vec2.h</text>
</a>
</g>
<!-- Node12&#45;&gt;Node13 -->
<g id="edge28" class="edge"><title>Node12&#45;&gt;Node13</title>
<path fill="none" stroke="midnightblue" d="M1621.12,-116.362C1623.32,-108.84 1626.35,-98.5187 1629.01,-89.4308"/>
<polygon fill="midnightblue" stroke="midnightblue" points="1632.45,-90.1514 1631.9,-79.5707 1625.73,-88.1825 1632.45,-90.1514"/>
</g>
<!-- Node14 -->
<g id="node29" class="node"><title>Node14</title>
<polygon fill="white" stroke="#bfbfbf" points="1613,-0.5 1613,-21.5 1657,-21.5 1657,-0.5 1613,-0.5"/>
<text text-anchor="middle" x="1635" y="-8.5" font-family="Helvetica,sans-Serif" font-size="10.00">cmath</text>
</g>
<!-- Node12&#45;&gt;Node14 -->
<g id="edge32" class="edge"><title>Node12&#45;&gt;Node14</title>
<path fill="none" stroke="midnightblue" d="M1612.21,-116.097C1605.7,-102.372 1596.79,-78.1506 1603,-58 1606.16,-47.7466 1612.4,-37.7278 1618.54,-29.5925"/>
<polygon fill="midnightblue" stroke="midnightblue" points="1621.45,-31.5603 1625.02,-21.5822 1616.01,-27.1612 1621.45,-31.5603"/>
</g>
<!-- Node13&#45;&gt;Node14 -->
<g id="edge30" class="edge"><title>Node13&#45;&gt;Node14</title>
<path fill="none" stroke="midnightblue" d="M1635,-58.3619C1635,-50.9219 1635,-40.7427 1635,-31.7276"/>
<polygon fill="midnightblue" stroke="midnightblue" points="1638.5,-31.5706 1635,-21.5707 1631.5,-31.5707 1638.5,-31.5706"/>
</g>
<!-- Node18&#45;&gt;Node4 -->
<g id="edge54" class="edge"><title>Node18&#45;&gt;Node4</title>
<path fill="none" stroke="midnightblue" d="M1083.71,-255.404C1034.79,-246.536 968.8,-231.039 953,-210 938.939,-191.276 950.136,-164.165 960.83,-146.08"/>
<polygon fill="midnightblue" stroke="midnightblue" points="963.846,-147.859 966.24,-137.538 957.932,-144.113 963.846,-147.859"/>
</g>
<!-- Node18&#45;&gt;Node10 -->
<g id="edge52" class="edge"><title>Node18&#45;&gt;Node10</title>
<path fill="none" stroke="midnightblue" d="M1125.63,-246.792C1112.04,-227.082 1095.32,-194.832 1113,-174 1122.17,-163.195 1831.69,-60.759 1851,-58 1966.53,-41.4965 2103.92,-23.3146 2165.42,-15.2522"/>
<polygon fill="midnightblue" stroke="midnightblue" points="2166.2,-18.6808 2175.66,-13.912 2165.29,-11.7401 2166.2,-18.6808"/>
</g>
<!-- Node18&#45;&gt;Node17 -->
<g id="edge56" class="edge"><title>Node18&#45;&gt;Node17</title>
<path fill="none" stroke="midnightblue" d="M1194.23,-260.948C1287.41,-255.162 1481.49,-240.36 1643,-210 1739.4,-191.88 1849.85,-158.772 1908.09,-140.32"/>
<polygon fill="midnightblue" stroke="midnightblue" points="1909.2,-143.641 1917.67,-137.27 1907.07,-136.972 1909.2,-143.641"/>
</g>
<!-- Node19 -->
<g id="node42" class="node"><title>Node19</title>
<a xlink:href="memory_8h.html" target="_top" xlink:title="base/std_ext/memory.h">
<polygon fill="white" stroke="black" points="1121.5,-181.5 1121.5,-202.5 1240.5,-202.5 1240.5,-181.5 1121.5,-181.5"/>
<text text-anchor="middle" x="1181" y="-189.5" font-family="Helvetica,sans-Serif" font-size="10.00">base/std_ext/memory.h</text>
</a>
</g>
<!-- Node18&#45;&gt;Node19 -->
<g id="edge46" class="edge"><title>Node18&#45;&gt;Node19</title>
<path fill="none" stroke="midnightblue" d="M1148.95,-246.937C1155.11,-236.387 1163.03,-222.805 1169.46,-211.785"/>
<polygon fill="midnightblue" stroke="midnightblue" points="1172.63,-213.302 1174.64,-202.901 1166.58,-209.775 1172.63,-213.302"/>
</g>
<!-- Node19&#45;&gt;Node4 -->
<g id="edge48" class="edge"><title>Node19&#45;&gt;Node4</title>
<path fill="none" stroke="midnightblue" d="M1147.28,-181.412C1109.53,-169.557 1048.59,-150.421 1009.95,-138.288"/>
<polygon fill="midnightblue" stroke="midnightblue" points="1010.74,-134.87 1000.16,-135.213 1008.65,-141.548 1010.74,-134.87"/>
</g>
<!-- Node19&#45;&gt;Node20 -->
<g id="edge50" class="edge"><title>Node19&#45;&gt;Node20</title>
<path fill="none" stroke="midnightblue" d="M1222.62,-181.406C1232.86,-178.891 1243.81,-176.279 1254,-174 1330.07,-156.99 1420.7,-139.599 1463.42,-131.573"/>
<polygon fill="midnightblue" stroke="midnightblue" points="1464.26,-134.977 1473.44,-129.696 1462.97,-128.096 1464.26,-134.977"/>
</g>
<!-- Node21&#45;&gt;Node4 -->
<g id="edge62" class="edge"><title>Node21&#45;&gt;Node4</title>
<path fill="none" stroke="midnightblue" d="M1003.49,-174.922C998.13,-166.212 991.587,-155.578 986.026,-146.542"/>
<polygon fill="midnightblue" stroke="midnightblue" points="988.9,-144.534 980.678,-137.852 982.938,-148.203 988.9,-144.534"/>
</g>
<!-- Node21&#45;&gt;Node10 -->
<g id="edge60" class="edge"><title>Node21&#45;&gt;Node10</title>
<path fill="none" stroke="midnightblue" d="M1061.66,-174.873C1110.08,-157.99 1187.48,-132.403 1256,-116 1605.53,-32.3315 2044.31,-15.0007 2165.64,-11.715"/>
<polygon fill="midnightblue" stroke="midnightblue" points="2165.84,-15.2111 2175.75,-11.4544 2165.66,-8.21339 2165.84,-15.2111"/>
</g>
<!-- Node21&#45;&gt;Node22 -->
<g id="edge64" class="edge"><title>Node21&#45;&gt;Node22</title>
<path fill="none" stroke="midnightblue" d="M961.45,-189.603C776.049,-181.063 158.922,-151.889 71,-138 70.2462,-137.881 69.4863,-137.754 68.7219,-137.62"/>
<polygon fill="midnightblue" stroke="midnightblue" points="69.1727,-134.14 58.6724,-135.552 67.7615,-140.996 69.1727,-134.14"/>
</g>
<!-- Node23 -->
<g id="node56" class="node"><title>Node23</title>
<polygon fill="white" stroke="#bfbfbf" points="2170,-116.5 2170,-137.5 2226,-137.5 2226,-116.5 2170,-116.5"/>
<text text-anchor="middle" x="2198" y="-124.5" font-family="Helvetica,sans-Serif" font-size="10.00">algorithm</text>
</g>
<!-- Node21&#45;&gt;Node23 -->
<g id="edge66" class="edge"><title>Node21&#45;&gt;Node23</title>
<path fill="none" stroke="midnightblue" d="M1066.72,-180.974C1081.62,-178.251 1097.89,-175.645 1113,-174 1542.76,-127.215 1653.67,-166.955 2085,-138 2109.84,-136.332 2137.69,-133.632 2159.52,-131.324"/>
<polygon fill="midnightblue" stroke="midnightblue" points="2160.14,-134.777 2169.71,-130.229 2159.39,-127.817 2160.14,-134.777"/>
</g>
<!-- Node25&#45;&gt;Node4 -->
<g id="edge108" class="edge"><title>Node25&#45;&gt;Node4</title>
<path fill="none" stroke="midnightblue" d="M553.516,-253.466C568.181,-242.741 591.409,-225.53 611,-210 630.532,-194.517 631.256,-184.196 654,-174 704.18,-151.505 864.898,-135.919 937.633,-129.838"/>
<polygon fill="midnightblue" stroke="midnightblue" points="938.022,-133.318 947.702,-129.01 937.449,-126.341 938.022,-133.318"/>
</g>
<!-- Node25&#45;&gt;Node6 -->
<g id="edge110" class="edge"><title>Node25&#45;&gt;Node6</title>
<path fill="none" stroke="midnightblue" d="M586.241,-262.631C769.508,-257.176 1433.64,-236.009 1643,-210 1787.33,-192.07 1956.64,-151.912 2025.03,-134.879"/>
<polygon fill="midnightblue" stroke="midnightblue" points="2026.27,-138.176 2035.12,-132.351 2024.57,-131.386 2026.27,-138.176"/>
</g>
<!-- Node25&#45;&gt;Node16 -->
<g id="edge114" class="edge"><title>Node25&#45;&gt;Node16</title>
<path fill="none" stroke="midnightblue" d="M586.317,-262.23C679.728,-258.776 894.441,-251.035 1075,-246 1255.2,-240.975 2521.57,-251.497 2697,-210 2733.37,-201.396 2738.1,-187.368 2773,-174 2812.55,-158.853 2859.17,-145.513 2891.47,-136.951"/>
<polygon fill="midnightblue" stroke="midnightblue" points="2892.64,-140.263 2901.43,-134.344 2890.87,-133.491 2892.64,-140.263"/>
</g>
<!-- Node25&#45;&gt;Node20 -->
<g id="edge112" class="edge"><title>Node25&#45;&gt;Node20</title>
<path fill="none" stroke="midnightblue" d="M579.232,-253.475C652.862,-234.612 814.471,-195.056 953,-174 1148.49,-144.286 1387.23,-131.549 1463.41,-128.052"/>
<polygon fill="midnightblue" stroke="midnightblue" points="1463.62,-131.547 1473.45,-127.602 1463.3,-124.554 1463.62,-131.547"/>
</g>
<!-- Node25&#45;&gt;Node22 -->
<g id="edge116" class="edge"><title>Node25&#45;&gt;Node22</title>
<path fill="none" stroke="midnightblue" d="M491.865,-261.992C374.733,-256.567 77.5139,-239.965 45,-210 28.1312,-194.454 25.8976,-166.946 26.7157,-147.881"/>
<polygon fill="midnightblue" stroke="midnightblue" points="30.2152,-148.017 27.4625,-137.786 23.2342,-147.5 30.2152,-148.017"/>
</g>
<!-- Node26 -->
<g id="node65" class="node"><title>Node26</title>
<a xlink:href="string_8h.html" target="_top" xlink:title="base/std_ext/string.h">
<polygon fill="white" stroke="black" points="2264,-181.5 2264,-202.5 2372,-202.5 2372,-181.5 2264,-181.5"/>
<text text-anchor="middle" x="2318" y="-189.5" font-family="Helvetica,sans-Serif" font-size="10.00">base/std_ext/string.h</text>
</a>
</g>
<!-- Node25&#45;&gt;Node26 -->
<g id="edge78" class="edge"><title>Node25&#45;&gt;Node26</title>
<path fill="none" stroke="midnightblue" d="M586.322,-262.395C679.741,-259.231 894.469,-251.975 1075,-246 1565.66,-229.761 1689.67,-249.569 2179,-210 2203.51,-208.018 2230.33,-204.796 2253.81,-201.622"/>
<polygon fill="midnightblue" stroke="midnightblue" points="2254.57,-205.051 2264,-200.221 2253.61,-198.116 2254.57,-205.051"/>
</g>
<!-- Node28 -->
<g id="node72" class="node"><title>Node28</title>
<a xlink:href="misc_8h.html" target="_top" xlink:title="base/std_ext/misc.h">
<polygon fill="white" stroke="black" points="53.5,-181.5 53.5,-202.5 158.5,-202.5 158.5,-181.5 53.5,-181.5"/>
<text text-anchor="middle" x="106" y="-189.5" font-family="Helvetica,sans-Serif" font-size="10.00">base/std_ext/misc.h</text>
</a>
</g>
<!-- Node25&#45;&gt;Node28 -->
<g id="edge88" class="edge"><title>Node25&#45;&gt;Node28</title>
<path fill="none" stroke="midnightblue" d="M491.927,-259.348C420.952,-251.843 282.547,-235.299 167,-210 161.057,-208.699 154.847,-207.124 148.76,-205.454"/>
<polygon fill="midnightblue" stroke="midnightblue" points="149.278,-201.962 138.701,-202.584 147.357,-208.693 149.278,-201.962"/>
</g>
<!-- Node30 -->
<g id="node78" class="node"><title>Node30</title>
<polygon fill="white" stroke="#bfbfbf" points="175.5,-181.5 175.5,-202.5 222.5,-202.5 222.5,-181.5 175.5,-181.5"/>
<text text-anchor="middle" x="199" y="-189.5" font-family="Helvetica,sans-Serif" font-size="10.00">TFile.h</text>
</g>
<!-- Node25&#45;&gt;Node30 -->
<g id="edge96" class="edge"><title>Node25&#45;&gt;Node30</title>
<path fill="none" stroke="midnightblue" d="M491.823,-260.706C430.278,-255.297 319.959,-241.766 231,-210 228.854,-209.234 226.683,-208.33 224.537,-207.343"/>
<polygon fill="midnightblue" stroke="midnightblue" points="225.922,-204.12 215.431,-202.644 222.712,-210.34 225.922,-204.12"/>
</g>
<!-- Node31 -->
<g id="node80" class="node"><title>Node31</title>
<polygon fill="white" stroke="#bfbfbf" points="239.5,-181.5 239.5,-202.5 310.5,-202.5 310.5,-181.5 239.5,-181.5"/>
<text text-anchor="middle" x="275" y="-189.5" font-family="Helvetica,sans-Serif" font-size="10.00">TDirectory.h</text>
</g>
<!-- Node25&#45;&gt;Node31 -->
<g id="edge98" class="edge"><title>Node25&#45;&gt;Node31</title>
<path fill="none" stroke="midnightblue" d="M491.657,-254.497C446.716,-244.982 377.53,-229.04 319,-210 315.498,-208.861 311.879,-207.572 308.292,-206.22"/>
<polygon fill="midnightblue" stroke="midnightblue" points="309.556,-202.956 298.969,-202.553 306.994,-209.47 309.556,-202.956"/>
</g>
<!-- Node32 -->
<g id="node82" class="node"><title>Node32</title>
<polygon fill="white" stroke="#bfbfbf" points="328,-181.5 328,-202.5 380,-202.5 380,-181.5 328,-181.5"/>
<text text-anchor="middle" x="354" y="-189.5" font-family="Helvetica,sans-Serif" font-size="10.00">TError.h</text>
</g>
<!-- Node25&#45;&gt;Node32 -->
<g id="edge100" class="edge"><title>Node25&#45;&gt;Node32</title>
<path fill="none" stroke="midnightblue" d="M505.749,-253.407C475.031,-243.298 428.34,-227.112 389,-210 386.913,-209.092 384.776,-208.116 382.638,-207.104"/>
<polygon fill="midnightblue" stroke="midnightblue" points="383.923,-203.835 373.407,-202.545 380.823,-210.111 383.923,-203.835"/>
</g>
<!-- Node33 -->
<g id="node84" class="node"><title>Node33</title>
<polygon fill="white" stroke="#bfbfbf" points="397.5,-181.5 397.5,-202.5 444.5,-202.5 444.5,-181.5 397.5,-181.5"/>
<text text-anchor="middle" x="421" y="-189.5" font-family="Helvetica,sans-Serif" font-size="10.00">TList.h</text>
</g>
<!-- Node25&#45;&gt;Node33 -->
<g id="edge102" class="edge"><title>Node25&#45;&gt;Node33</title>
<path fill="none" stroke="midnightblue" d="M521.589,-253.376C501.98,-241.412 469.903,-221.839 447.251,-208.018"/>
<polygon fill="midnightblue" stroke="midnightblue" points="448.842,-204.888 438.483,-202.667 445.196,-210.864 448.842,-204.888"/>
</g>
<!-- Node34 -->
<g id="node86" class="node"><title>Node34</title>
<polygon fill="white" stroke="#bfbfbf" points="462,-181.5 462,-202.5 536,-202.5 536,-181.5 462,-181.5"/>
<text text-anchor="middle" x="499" y="-189.5" font-family="Helvetica,sans-Serif" font-size="10.00">TCollection.h</text>
</g>
<!-- Node25&#45;&gt;Node34 -->
<g id="edge104" class="edge"><title>Node25&#45;&gt;Node34</title>
<path fill="none" stroke="midnightblue" d="M533.098,-253.376C527.012,-242.422 517.384,-225.09 509.908,-211.634"/>
<polygon fill="midnightblue" stroke="midnightblue" points="512.842,-209.709 504.926,-202.667 506.723,-213.109 512.842,-209.709"/>
</g>
<!-- Node35 -->
<g id="node88" class="node"><title>Node35</title>
<polygon fill="white" stroke="#bfbfbf" points="554,-181.5 554,-202.5 602,-202.5 602,-181.5 554,-181.5"/>
<text text-anchor="middle" x="578" y="-189.5" font-family="Helvetica,sans-Serif" font-size="10.00">TKey.h</text>
</g>
<!-- Node25&#45;&gt;Node35 -->
<g id="edge106" class="edge"><title>Node25&#45;&gt;Node35</title>
<path fill="none" stroke="midnightblue" d="M544.755,-253.376C550.688,-242.422 560.076,-225.09 567.365,-211.634"/>
<polygon fill="midnightblue" stroke="midnightblue" points="570.536,-213.127 572.222,-202.667 564.381,-209.793 570.536,-213.127"/>
</g>
<!-- Node26&#45;&gt;Node6 -->
<g id="edge80" class="edge"><title>Node26&#45;&gt;Node6</title>
<path fill="none" stroke="midnightblue" d="M2278.84,-181.484C2269.41,-178.992 2259.35,-176.37 2250,-174 2192.43,-159.408 2124.99,-143.288 2086.7,-134.227"/>
<polygon fill="midnightblue" stroke="midnightblue" points="2087.24,-130.759 2076.71,-131.865 2085.63,-137.571 2087.24,-130.759"/>
</g>
<!-- Node26&#45;&gt;Node10 -->
<g id="edge86" class="edge"><title>Node26&#45;&gt;Node10</title>
<path fill="none" stroke="midnightblue" d="M2279.94,-181.411C2235.8,-168.755 2168.16,-148.031 2161,-138 2137.25,-104.722 2164.42,-56.317 2183.18,-29.9128"/>
<polygon fill="midnightblue" stroke="midnightblue" points="2186.23,-31.6724 2189.37,-21.5518 2180.6,-27.5087 2186.23,-31.6724"/>
</g>
<!-- Node26&#45;&gt;Node23 -->
<g id="edge84" class="edge"><title>Node26&#45;&gt;Node23</title>
<path fill="none" stroke="midnightblue" d="M2298.45,-181.412C2278.93,-170.836 2248.7,-154.465 2226.51,-142.441"/>
<polygon fill="midnightblue" stroke="midnightblue" points="2228,-139.269 2217.54,-137.584 2224.66,-145.424 2228,-139.269"/>
</g>
<!-- Node27 -->
<g id="node68" class="node"><title>Node27</title>
<polygon fill="white" stroke="#bfbfbf" points="2420,-116.5 2420,-137.5 2472,-137.5 2472,-116.5 2420,-116.5"/>
<text text-anchor="middle" x="2446" y="-124.5" font-family="Helvetica,sans-Serif" font-size="10.00">sstream</text>
</g>
<!-- Node26&#45;&gt;Node27 -->
<g id="edge82" class="edge"><title>Node26&#45;&gt;Node27</title>
<path fill="none" stroke="midnightblue" d="M2338.85,-181.412C2359.86,-170.741 2392.49,-154.172 2416.23,-142.12"/>
<polygon fill="midnightblue" stroke="midnightblue" points="2417.83,-145.232 2425.16,-137.584 2414.66,-138.991 2417.83,-145.232"/>
</g>
<!-- Node28&#45;&gt;Node22 -->
<g id="edge92" class="edge"><title>Node28&#45;&gt;Node22</title>
<path fill="none" stroke="midnightblue" d="M93.285,-181.267C81.2874,-171.139 63.107,-155.792 49.1379,-144"/>
<polygon fill="midnightblue" stroke="midnightblue" points="51.3775,-141.31 41.4784,-137.534 46.8621,-146.659 51.3775,-141.31"/>
</g>
<!-- Node28&#45;&gt;Node23 -->
<g id="edge90" class="edge"><title>Node28&#45;&gt;Node23</title>
<path fill="none" stroke="midnightblue" d="M135.732,-181.492C145.559,-178.488 156.633,-175.597 167,-174 588.327,-109.093 1659.42,-162.67 2085,-138 2109.86,-136.559 2137.7,-133.862 2159.53,-131.499"/>
<polygon fill="midnightblue" stroke="midnightblue" points="2160.16,-134.95 2169.72,-130.372 2159.4,-127.992 2160.16,-134.95"/>
</g>
<!-- Node29 -->
<g id="node76" class="node"><title>Node29</title>
<polygon fill="white" stroke="#bfbfbf" points="79.5,-116.5 79.5,-137.5 132.5,-137.5 132.5,-116.5 79.5,-116.5"/>
<text text-anchor="middle" x="106" y="-124.5" font-family="Helvetica,sans-Serif" font-size="10.00">cxxabi.h</text>
</g>
<!-- Node28&#45;&gt;Node29 -->
<g id="edge94" class="edge"><title>Node28&#45;&gt;Node29</title>
<path fill="none" stroke="midnightblue" d="M106,-181.267C106,-172.18 106,-158.892 106,-147.74"/>
<polygon fill="midnightblue" stroke="midnightblue" points="109.5,-147.534 106,-137.534 102.5,-147.534 109.5,-147.534"/>
</g>
<!-- Node36&#45;&gt;Node4 -->
<g id="edge128" class="edge"><title>Node36&#45;&gt;Node4</title>
<path fill="none" stroke="midnightblue" d="M3421.87,-188.451C3375.07,-184.246 3293.27,-177.386 3223,-174 2442.41,-136.394 2246.32,-154.752 1465,-138 1294.9,-134.353 1091.66,-129.708 1010.29,-127.837"/>
<polygon fill="midnightblue" stroke="midnightblue" points="1010.16,-124.333 1000.08,-127.602 1010,-131.331 1010.16,-124.333"/>
</g>
<!-- Node36&#45;&gt;Node9 -->
<g id="edge126" class="edge"><title>Node36&#45;&gt;Node9</title>
<path fill="none" stroke="midnightblue" d="M3485.22,-181.335C3510.91,-169.89 3548.08,-151.535 3556,-138 3564.95,-122.691 3558.02,-103.003 3550.12,-88.5788"/>
<polygon fill="midnightblue" stroke="midnightblue" points="3553.1,-86.7371 3544.96,-79.9587 3547.1,-90.3355 3553.1,-86.7371"/>
</g>
<!-- Node36&#45;&gt;Node16 -->
<g id="edge130" class="edge"><title>Node36&#45;&gt;Node16</title>
<path fill="none" stroke="midnightblue" d="M3421.96,-187.325C3325.04,-175.417 3069.56,-144.026 2970.78,-131.888"/>
<polygon fill="midnightblue" stroke="midnightblue" points="2970.97,-128.386 2960.62,-130.64 2970.12,-135.333 2970.97,-128.386"/>
</g>
<!-- Node37 -->
<g id="node99" class="node"><title>Node37</title>
<polygon fill="white" stroke="#bfbfbf" points="3748,-116.5 3748,-137.5 3804,-137.5 3804,-116.5 3748,-116.5"/>
<text text-anchor="middle" x="3776" y="-124.5" font-family="Helvetica,sans-Serif" font-size="10.00">Rtypes.h</text>
</g>
<!-- Node36&#45;&gt;Node37 -->
<g id="edge124" class="edge"><title>Node36&#45;&gt;Node37</title>
<path fill="none" stroke="midnightblue" d="M3498.16,-185.831C3550.24,-177.148 3646.62,-160.133 3737.85,-138.12"/>
<polygon fill="midnightblue" stroke="midnightblue" points="3738.91,-141.464 3747.8,-135.694 3737.25,-134.663 3738.91,-141.464"/>
</g>
<!-- Node38&#45;&gt;Node9 -->
<g id="edge134" class="edge"><title>Node38&#45;&gt;Node9</title>
<path fill="none" stroke="midnightblue" d="M2862.55,-458.694C3023.68,-457.325 3539.64,-450.007 3701,-412 3783.54,-392.559 3876,-420.796 3876,-336 3876,-336 3876,-336 3876,-192 3876,-153.829 3867.04,-138.213 3836,-116 3797.58,-88.5101 3665.65,-76.4507 3590.5,-71.707"/>
<polygon fill="midnightblue" stroke="midnightblue" points="3590.48,-68.1996 3580.29,-71.0854 3590.06,-75.1867 3590.48,-68.1996"/>
</g>
<!-- Node39 -->
<g id="node107" class="node"><title>Node39</title>
<a xlink:href="_t_i_d_8h.html" target="_top" xlink:title="TID.h">
<polygon fill="white" stroke="black" points="3451.5,-325.5 3451.5,-346.5 3492.5,-346.5 3492.5,-325.5 3451.5,-325.5"/>
<text text-anchor="middle" x="3472" y="-333.5" font-family="Helvetica,sans-Serif" font-size="10.00">TID.h</text>
</a>
</g>
<!-- Node38&#45;&gt;Node39 -->
<g id="edge136" class="edge"><title>Node38&#45;&gt;Node39</title>
<path fill="none" stroke="midnightblue" d="M2862.61,-454.595C2932.38,-447.841 3064.76,-433.419 3176,-412 3274.17,-393.097 3388.2,-360.844 3441.55,-345.137"/>
<polygon fill="midnightblue" stroke="midnightblue" points="3442.79,-348.419 3451.38,-342.225 3440.8,-341.707 3442.79,-348.419"/>
</g>
<!-- Node45 -->
<g id="node127" class="node"><title>Node45</title>
<a xlink:href="_t_detector_read_hit_8h.html" target="_top" xlink:title="TDetectorReadHit.h">
<polygon fill="white" stroke="black" points="2199,-253.5 2199,-274.5 2303,-274.5 2303,-253.5 2199,-253.5"/>
<text text-anchor="middle" x="2251" y="-261.5" font-family="Helvetica,sans-Serif" font-size="10.00">TDetectorReadHit.h</text>
</a>
</g>
<!-- Node38&#45;&gt;Node45 -->
<g id="edge164" class="edge"><title>Node38&#45;&gt;Node45</title>
<path fill="none" stroke="midnightblue" d="M2765.26,-455.863C2707.38,-451.037 2608.54,-439.298 2528,-412 2428.27,-378.198 2321.37,-311.168 2274.87,-280.281"/>
<polygon fill="midnightblue" stroke="midnightblue" points="2276.66,-277.262 2266.4,-274.606 2272.76,-283.078 2276.66,-277.262"/>
</g>
<!-- Node46 -->
<g id="node132" class="node"><title>Node46</title>
<a xlink:href="_t_slow_control_8h.html" target="_top" xlink:title="TSlowControl.h">
<polygon fill="white" stroke="black" points="3608,-390.5 3608,-411.5 3692,-411.5 3692,-390.5 3608,-390.5"/>
<text text-anchor="middle" x="3650" y="-398.5" font-family="Helvetica,sans-Serif" font-size="10.00">TSlowControl.h</text>
</a>
</g>
<!-- Node38&#45;&gt;Node46 -->
<g id="edge172" class="edge"><title>Node38&#45;&gt;Node46</title>
<path fill="none" stroke="midnightblue" d="M2862.56,-455.631C3009.07,-445.467 3445.89,-415.161 3597.48,-404.643"/>
<polygon fill="midnightblue" stroke="midnightblue" points="3598.17,-408.105 3607.9,-403.921 3597.68,-401.121 3598.17,-408.105"/>
</g>
<!-- Node47 -->
<g id="node139" class="node"><title>Node47</title>
<a xlink:href="_t_unpacker_message_8h.html" target="_top" xlink:title="TUnpackerMessage.h">
<polygon fill="white" stroke="black" points="3212.5,-253.5 3212.5,-274.5 3325.5,-274.5 3325.5,-253.5 3212.5,-253.5"/>
<text text-anchor="middle" x="3269" y="-261.5" font-family="Helvetica,sans-Serif" font-size="10.00">TUnpackerMessage.h</text>
</a>
</g>
<!-- Node38&#45;&gt;Node47 -->
<g id="edge184" class="edge"><title>Node38&#45;&gt;Node47</title>
<path fill="none" stroke="midnightblue" d="M2862.63,-452.547C2935.01,-441.312 3073.55,-413.432 3176,-354 3208.31,-335.257 3237.88,-302.901 3254.64,-282.518"/>
<polygon fill="midnightblue" stroke="midnightblue" points="3257.47,-284.578 3261.01,-274.59 3252.01,-280.194 3257.47,-284.578"/>
</g>
<!-- Node55 -->
<g id="node162" class="node"><title>Node55</title>
<a xlink:href="_t_tagger_hit_8h.html" target="_top" xlink:title="TTaggerHit.h">
<polygon fill="white" stroke="black" points="2815,-390.5 2815,-411.5 2889,-411.5 2889,-390.5 2815,-390.5"/>
<text text-anchor="middle" x="2852" y="-398.5" font-family="Helvetica,sans-Serif" font-size="10.00">TTaggerHit.h</text>
</a>
</g>
<!-- Node38&#45;&gt;Node55 -->
<g id="edge214" class="edge"><title>Node38&#45;&gt;Node55</title>
<path fill="none" stroke="midnightblue" d="M2820.97,-448.362C2826.17,-440.431 2833.4,-429.389 2839.58,-419.961"/>
<polygon fill="midnightblue" stroke="midnightblue" points="2842.52,-421.853 2845.07,-411.571 2836.67,-418.017 2842.52,-421.853"/>
</g>
<!-- Node57 -->
<g id="node172" class="node"><title>Node57</title>
<a xlink:href="_t_trigger_8h.html" target="_top" xlink:title="TTrigger.h">
<polygon fill="white" stroke="black" points="2627.5,-181.5 2627.5,-202.5 2688.5,-202.5 2688.5,-181.5 2627.5,-181.5"/>
<text text-anchor="middle" x="2658" y="-189.5" font-family="Helvetica,sans-Serif" font-size="10.00">TTrigger.h</text>
</a>
</g>
<!-- Node38&#45;&gt;Node57 -->
<g id="edge230" class="edge"><title>Node38&#45;&gt;Node57</title>
<path fill="none" stroke="midnightblue" d="M2807.69,-448.203C2783.97,-407.607 2699.94,-263.779 2669.29,-211.325"/>
<polygon fill="midnightblue" stroke="midnightblue" points="2672.28,-209.508 2664.22,-202.639 2666.24,-213.039 2672.28,-209.508"/>
</g>
<!-- Node59 -->
<g id="node180" class="node"><title>Node59</title>
<a xlink:href="_t_target_8h.html" target="_top" xlink:title="TTarget.h">
<polygon fill="white" stroke="black" points="1575.5,-181.5 1575.5,-202.5 1634.5,-202.5 1634.5,-181.5 1575.5,-181.5"/>
<text text-anchor="middle" x="1605" y="-189.5" font-family="Helvetica,sans-Serif" font-size="10.00">TTarget.h</text>
</a>
</g>
<!-- Node38&#45;&gt;Node59 -->
<g id="edge242" class="edge"><title>Node38&#45;&gt;Node59</title>
<path fill="none" stroke="midnightblue" d="M2765.33,-457.704C2661.95,-454.41 2413.08,-443.606 2207,-412 2093.83,-394.643 2066.9,-382.453 1956,-354 1841.93,-324.735 1803.54,-339.918 1701,-282 1667.93,-263.321 1637.33,-230.946 1619.93,-210.542"/>
<polygon fill="midnightblue" stroke="midnightblue" points="1622.41,-208.046 1613.32,-202.605 1617.03,-212.528 1622.41,-208.046"/>
</g>
<!-- Node61 -->
<g id="node191" class="node"><title>Node61</title>
<a xlink:href="_t_cluster_8h.html" target="_top" xlink:title="TCluster.h">
<polygon fill="white" stroke="black" points="1762,-253.5 1762,-274.5 1824,-274.5 1824,-253.5 1762,-253.5"/>
<text text-anchor="middle" x="1793" y="-261.5" font-family="Helvetica,sans-Serif" font-size="10.00">TCluster.h</text>
</a>
</g>
<!-- Node38&#45;&gt;Node61 -->
<g id="edge260" class="edge"><title>Node38&#45;&gt;Node61</title>
<path fill="none" stroke="midnightblue" d="M2765.35,-457.422C2674.03,-453.822 2471.03,-442.787 2303,-412 2208.18,-394.627 2186.84,-379.939 2094,-354 1980.17,-322.197 1949.92,-320.001 1838,-282 1834.63,-280.856 1831.15,-279.599 1827.68,-278.297"/>
<polygon fill="midnightblue" stroke="midnightblue" points="1828.64,-274.917 1818.05,-274.568 1826.11,-281.444 1828.64,-274.917"/>
</g>
<!-- Node62 -->
<g id="node202" class="node"><title>Node62</title>
<a xlink:href="_t_candidate_8h.html" target="_top" xlink:title="TCandidate.h">
<polygon fill="white" stroke="black" points="2236.5,-325.5 2236.5,-346.5 2311.5,-346.5 2311.5,-325.5 2236.5,-325.5"/>
<text text-anchor="middle" x="2274" y="-333.5" font-family="Helvetica,sans-Serif" font-size="10.00">TCandidate.h</text>
</a>
</g>
<!-- Node38&#45;&gt;Node62 -->
<g id="edge280" class="edge"><title>Node38&#45;&gt;Node62</title>
<path fill="none" stroke="midnightblue" d="M2765.37,-456.46C2650.52,-450.149 2369.28,-432.758 2332,-412 2309.24,-399.328 2292.59,-373.631 2283.11,-355.641"/>
<polygon fill="midnightblue" stroke="midnightblue" points="2286.18,-353.959 2278.59,-346.571 2279.92,-357.082 2286.18,-353.959"/>
</g>
<!-- Node63 -->
<g id="node211" class="node"><title>Node63</title>
<a xlink:href="_t_particle_8h.html" target="_top" xlink:title="TParticle.h">
<polygon fill="white" stroke="black" points="2537,-390.5 2537,-411.5 2601,-411.5 2601,-390.5 2537,-390.5"/>
<text text-anchor="middle" x="2569" y="-398.5" font-family="Helvetica,sans-Serif" font-size="10.00">TParticle.h</text>
</a>
</g>
<!-- Node38&#45;&gt;Node63 -->
<g id="edge296" class="edge"><title>Node38&#45;&gt;Node63</title>
<path fill="none" stroke="midnightblue" d="M2769.63,-448.497C2724.6,-437.836 2655.39,-421.452 2611.17,-410.983"/>
<polygon fill="midnightblue" stroke="midnightblue" points="2611.85,-407.547 2601.31,-408.65 2610.24,-414.359 2611.85,-407.547"/>
</g>
<!-- Node39&#45;&gt;Node9 -->
<g id="edge140" class="edge"><title>Node39&#45;&gt;Node9</title>
<path fill="none" stroke="midnightblue" d="M3473.26,-325.306C3475.59,-307.986 3481.52,-273.016 3494,-246 3518.82,-192.245 3553.78,-194.338 3572,-138 3575.01,-128.697 3575.08,-125.281 3572,-116 3568.53,-105.536 3561.73,-95.5092 3555.04,-87.4248"/>
<polygon fill="midnightblue" stroke="midnightblue" points="3557.5,-84.9263 3548.24,-79.7661 3552.26,-89.5704 3557.5,-84.9263"/>
</g>
<!-- Node39&#45;&gt;Node15 -->
<g id="edge154" class="edge"><title>Node39&#45;&gt;Node15</title>
<path fill="none" stroke="midnightblue" d="M3476.27,-325.274C3483.81,-307.291 3500.92,-270.614 3524,-246 3543.73,-224.961 3554.91,-227.284 3578,-210 3597.95,-195.065 3600.41,-188.044 3621,-174 3638.27,-162.219 3658.78,-150.918 3675.43,-142.352"/>
<polygon fill="midnightblue" stroke="midnightblue" points="3677.4,-145.28 3684.74,-137.641 3674.24,-139.034 3677.4,-145.28"/>
</g>
<!-- Node39&#45;&gt;Node16 -->
<g id="edge156" class="edge"><title>Node39&#45;&gt;Node16</title>
<path fill="none" stroke="midnightblue" d="M3451.14,-333.228C3396.06,-325.684 3247.98,-303.884 3204,-282 3171.58,-265.87 3113.57,-191.725 3082,-174 3037.43,-148.979 3019.13,-153.649 2970.46,-139.589"/>
<polygon fill="midnightblue" stroke="midnightblue" points="2971.25,-136.169 2960.66,-136.624 2969.22,-142.869 2971.25,-136.169"/>
</g>
<!-- Node39&#45;&gt;Node17 -->
<g id="edge150" class="edge"><title>Node39&#45;&gt;Node17</title>
<path fill="none" stroke="midnightblue" d="M3451.35,-334.7C3368.38,-329.405 3051.17,-308.478 2791,-282 2758.75,-278.718 2240.81,-224.861 2212,-210 2192.71,-200.049 2197.89,-184.694 2179,-174 2162.78,-164.817 2052.32,-144.761 1990.57,-134.059"/>
<polygon fill="midnightblue" stroke="midnightblue" points="1990.82,-130.55 1980.37,-132.299 1989.62,-137.448 1990.82,-130.55"/>
</g>
<!-- Node39&#45;&gt;Node20 -->
<g id="edge158" class="edge"><title>Node39&#45;&gt;Node20</title>
<path fill="none" stroke="midnightblue" d="M3451.43,-335.522C3262.94,-331.123 1840.85,-297.489 1753,-282 1652.1,-264.21 1612.94,-275.312 1534,-210 1514.06,-193.507 1501.28,-166.013 1494.37,-147.222"/>
<polygon fill="midnightblue" stroke="midnightblue" points="1497.61,-145.88 1491.05,-137.559 1490.99,-148.153 1497.61,-145.88"/>
</g>
<!-- Node39&#45;&gt;Node37 -->
<g id="edge138" class="edge"><title>Node39&#45;&gt;Node37</title>
<path fill="none" stroke="midnightblue" d="M3492.85,-334.741C3550.03,-330.857 3707.41,-317.132 3743,-282 3779.24,-246.23 3780.33,-181.166 3778.15,-147.861"/>
<polygon fill="midnightblue" stroke="midnightblue" points="3781.64,-147.553 3777.33,-137.872 3774.66,-148.125 3781.64,-147.553"/>
</g>
<!-- Node40 -->
<g id="node111" class="node"><title>Node40</title>
<a xlink:href="time_8h.html" target="_top" xlink:title="base/std_ext/time.h">
<polygon fill="white" stroke="black" points="3631.5,-253.5 3631.5,-274.5 3734.5,-274.5 3734.5,-253.5 3631.5,-253.5"/>
<text text-anchor="middle" x="3683" y="-261.5" font-family="Helvetica,sans-Serif" font-size="10.00">base/std_ext/time.h</text>
</a>
</g>
<!-- Node39&#45;&gt;Node40 -->
<g id="edge142" class="edge"><title>Node39&#45;&gt;Node40</title>
<path fill="none" stroke="midnightblue" d="M3492.62,-328.965C3527.23,-317.155 3597.61,-293.136 3642.43,-277.844"/>
<polygon fill="midnightblue" stroke="midnightblue" points="3643.8,-281.076 3652.13,-274.534 3641.54,-274.451 3643.8,-281.076"/>
</g>
<!-- Node42 -->
<g id="node116" class="node"><title>Node42</title>
<polygon fill="white" stroke="#bfbfbf" points="3629.5,-181.5 3629.5,-202.5 3670.5,-202.5 3670.5,-181.5 3629.5,-181.5"/>
<text text-anchor="middle" x="3650" y="-189.5" font-family="Helvetica,sans-Serif" font-size="10.00">ctime</text>
</g>
<!-- Node39&#45;&gt;Node42 -->
<g id="edge162" class="edge"><title>Node39&#45;&gt;Node42</title>
<path fill="none" stroke="midnightblue" d="M3481.98,-325.361C3498.7,-307.817 3533.81,-272.161 3567,-246 3584.77,-231.991 3606.21,-218.113 3622.85,-207.934"/>
<polygon fill="midnightblue" stroke="midnightblue" points="3624.79,-210.848 3631.54,-202.682 3621.17,-204.856 3624.79,-210.848"/>
</g>
<!-- Node43 -->
<g id="node119" class="node"><title>Node43</title>
<polygon fill="white" stroke="#bfbfbf" points="3576,-253.5 3576,-274.5 3614,-274.5 3614,-253.5 3576,-253.5"/>
<text text-anchor="middle" x="3595" y="-261.5" font-family="Helvetica,sans-Serif" font-size="10.00">tuple</text>
</g>
<!-- Node39&#45;&gt;Node43 -->
<g id="edge152" class="edge"><title>Node39&#45;&gt;Node43</title>
<path fill="none" stroke="midnightblue" d="M3490.15,-325.376C3510.68,-313.359 3544.32,-293.665 3567.95,-279.834"/>
<polygon fill="midnightblue" stroke="midnightblue" points="3569.91,-282.74 3576.78,-274.667 3566.38,-276.699 3569.91,-282.74"/>
</g>
<!-- Node44 -->
<g id="node124" class="node"><title>Node44</title>
<polygon fill="white" stroke="#bfbfbf" points="2068,-181.5 2068,-202.5 2118,-202.5 2118,-181.5 2068,-181.5"/>
<text text-anchor="middle" x="2093" y="-189.5" font-family="Helvetica,sans-Serif" font-size="10.00">iomanip</text>
</g>
<!-- Node39&#45;&gt;Node44 -->
<g id="edge160" class="edge"><title>Node39&#45;&gt;Node44</title>
<path fill="none" stroke="midnightblue" d="M3451.46,-335.857C3325.85,-334.836 2660.13,-327.333 2462,-282 2421.61,-272.758 2415.93,-257.053 2376,-246 2268.23,-216.173 2233.31,-244.668 2127,-210 2124.41,-209.156 2121.78,-208.123 2119.2,-206.985"/>
<polygon fill="midnightblue" stroke="midnightblue" points="2120.66,-203.804 2110.14,-202.539 2117.57,-210.087 2120.66,-203.804"/>
</g>
<!-- Node40&#45;&gt;Node26 -->
<g id="edge144" class="edge"><title>Node40&#45;&gt;Node26</title>
<path fill="none" stroke="midnightblue" d="M3653.45,-253.463C3643.86,-250.497 3633.09,-247.635 3623,-246 3094.55,-160.353 2951.51,-265.112 2419,-210 2405.87,-208.641 2391.88,-206.561 2378.62,-204.29"/>
<polygon fill="midnightblue" stroke="midnightblue" points="2379.11,-200.823 2368.66,-202.525 2377.89,-207.715 2379.11,-200.823"/>
</g>
<!-- Node41 -->
<g id="node114" class="node"><title>Node41</title>
<polygon fill="white" stroke="#bfbfbf" points="3688,-181.5 3688,-202.5 3734,-202.5 3734,-181.5 3688,-181.5"/>
<text text-anchor="middle" x="3711" y="-189.5" font-family="Helvetica,sans-Serif" font-size="10.00">cstring</text>
</g>
<!-- Node40&#45;&gt;Node41 -->
<g id="edge146" class="edge"><title>Node40&#45;&gt;Node41</title>
<path fill="none" stroke="midnightblue" d="M3687.13,-253.376C3691.35,-242.528 3698,-225.426 3703.21,-212.027"/>
<polygon fill="midnightblue" stroke="midnightblue" points="3706.49,-213.256 3706.85,-202.667 3699.97,-210.719 3706.49,-213.256"/>
</g>
<!-- Node40&#45;&gt;Node42 -->
<g id="edge148" class="edge"><title>Node40&#45;&gt;Node42</title>
<path fill="none" stroke="midnightblue" d="M3678.13,-253.376C3673.16,-242.528 3665.32,-225.426 3659.18,-212.027"/>
<polygon fill="midnightblue" stroke="midnightblue" points="3662.24,-210.3 3654.89,-202.667 3655.87,-213.216 3662.24,-210.3"/>
</g>
<!-- Node45&#45;&gt;Node8 -->
<g id="edge166" class="edge"><title>Node45&#45;&gt;Node8</title>
<path fill="none" stroke="midnightblue" d="M2211.9,-253.456C2173.01,-242.865 2111.72,-225.88 2059,-210 2054.41,-208.618 2049.63,-207.139 2044.87,-205.643"/>
<polygon fill="midnightblue" stroke="midnightblue" points="2045.8,-202.268 2035.21,-202.578 2043.69,-208.94 2045.8,-202.268"/>
</g>
<!-- Node45&#45;&gt;Node27 -->
<g id="edge170" class="edge"><title>Node45&#45;&gt;Node27</title>
<path fill="none" stroke="midnightblue" d="M2303.23,-261.888C2377.73,-257.654 2508.75,-245.269 2538,-210 2548.21,-197.685 2546.35,-187.647 2538,-174 2525.77,-154.017 2502.07,-142.19 2481.78,-135.399"/>
<polygon fill="midnightblue" stroke="midnightblue" points="2482.75,-132.035 2472.17,-132.455 2480.71,-138.729 2482.75,-132.035"/>
</g>
<!-- Node45&#45;&gt;Node44 -->
<g id="edge168" class="edge"><title>Node45&#45;&gt;Node44</title>
<path fill="none" stroke="midnightblue" d="M2225.09,-253.395C2199.83,-242.894 2160.43,-226.097 2127,-210 2125.19,-209.131 2123.35,-208.218 2121.49,-207.284"/>
<polygon fill="midnightblue" stroke="midnightblue" points="2122.78,-204.012 2112.29,-202.538 2119.57,-210.233 2122.78,-204.012"/>
</g>
<!-- Node46&#45;&gt;Node9 -->
<g id="edge178" class="edge"><title>Node46&#45;&gt;Node9</title>
<path fill="none" stroke="midnightblue" d="M3692.19,-390.476C3747.62,-373.825 3838,-335.685 3838,-264 3838,-264 3838,-264 3838,-192 3838,-156.442 3839.95,-139.201 3813,-116 3780.39,-87.9262 3660.88,-76.2037 3590.26,-71.6432"/>
<polygon fill="midnightblue" stroke="midnightblue" points="3590.41,-68.1459 3580.22,-71.0213 3589.98,-75.1325 3590.41,-68.1459"/>
</g>
<!-- Node46&#45;&gt;Node15 -->
<g id="edge180" class="edge"><title>Node46&#45;&gt;Node15</title>
<path fill="none" stroke="midnightblue" d="M3662.46,-390.442C3683.86,-371.388 3726.86,-328.856 3743,-282 3758.63,-236.616 3758.41,-219.459 3743,-174 3739.39,-163.341 3732.28,-153.201 3725.33,-145.087"/>
<polygon fill="midnightblue" stroke="midnightblue" points="3727.9,-142.712 3718.56,-137.704 3722.74,-147.441 3727.9,-142.712"/>
</g>
<!-- Node46&#45;&gt;Node39 -->
<g id="edge174" class="edge"><title>Node46&#45;&gt;Node39</title>
<path fill="none" stroke="midnightblue" d="M3621.01,-390.412C3588.33,-378.48 3535.46,-359.172 3502.27,-347.053"/>
<polygon fill="midnightblue" stroke="midnightblue" points="3503.24,-343.681 3492.64,-343.538 3500.84,-350.256 3503.24,-343.681"/>
</g>
<!-- Node46&#45;&gt;Node40 -->
<g id="edge176" class="edge"><title>Node46&#45;&gt;Node40</title>
<path fill="none" stroke="midnightblue" d="M3652.59,-390.25C3658.06,-367.541 3670.87,-314.348 3678,-284.768"/>
<polygon fill="midnightblue" stroke="midnightblue" points="3681.48,-285.242 3680.42,-274.7 3674.68,-283.603 3681.48,-285.242"/>
</g>
<!-- Node46&#45;&gt;Node43 -->
<g id="edge182" class="edge"><title>Node46&#45;&gt;Node43</title>
<path fill="none" stroke="midnightblue" d="M3645.68,-390.25C3636.49,-367.341 3614.84,-313.409 3603.03,-283.992"/>
<polygon fill="midnightblue" stroke="midnightblue" points="3606.27,-282.676 3599.3,-274.7 3599.77,-285.284 3606.27,-282.676"/>
</g>
<!-- Node47&#45;&gt;Node9 -->
<g id="edge212" class="edge"><title>Node47&#45;&gt;Node9</title>
<path fill="none" stroke="midnightblue" d="M3281.86,-253.163C3308.75,-230.572 3369.3,-180.032 3380,-174 3421.15,-150.799 3441.36,-165.175 3480,-138 3498.84,-124.75 3514.97,-103.709 3525.22,-88.3433"/>
<polygon fill="midnightblue" stroke="midnightblue" points="3528.35,-89.9364 3530.81,-79.6293 3522.46,-86.1571 3528.35,-89.9364"/>
</g>
<!-- Node48 -->
<g id="node141" class="node"><title>Node48</title>
<a xlink:href="_format_8h.html" target="_top" xlink:title="base/Format.h">
<polygon fill="white" stroke="black" points="3134,-181.5 3134,-202.5 3214,-202.5 3214,-181.5 3134,-181.5"/>
<text text-anchor="middle" x="3174" y="-189.5" font-family="Helvetica,sans-Serif" font-size="10.00">base/Format.h</text>
</a>
</g>
<!-- Node47&#45;&gt;Node48 -->
<g id="edge186" class="edge"><title>Node47&#45;&gt;Node48</title>
<path fill="none" stroke="midnightblue" d="M3254.98,-253.376C3239.55,-241.678 3214.51,-222.705 3196.36,-208.948"/>
<polygon fill="midnightblue" stroke="midnightblue" points="3198.16,-205.918 3188.08,-202.667 3193.93,-211.497 3198.16,-205.918"/>
</g>
<!-- Node48&#45;&gt;Node6 -->
<g id="edge206" class="edge"><title>Node48&#45;&gt;Node6</title>
<path fill="none" stroke="midnightblue" d="M3133.87,-185.154C3109.42,-181.248 3077.49,-176.622 3049,-174 2655.67,-137.803 2554.95,-166.592 2161,-138 2136.09,-136.192 2107.95,-133.193 2087.08,-130.782"/>
<polygon fill="midnightblue" stroke="midnightblue" points="2087.22,-127.275 2076.88,-129.585 2086.41,-134.227 2087.22,-127.275"/>
</g>
<!-- Node48&#45;&gt;Node10 -->
<g id="edge210" class="edge"><title>Node48&#45;&gt;Node10</title>
<path fill="none" stroke="midnightblue" d="M3148.31,-181.383C3128.55,-172.204 3101.56,-157.363 3083,-138 3055.07,-108.859 3074.06,-79.67 3040,-58 3005.28,-35.9071 2381.87,-16.3621 2230.78,-11.9357"/>
<polygon fill="midnightblue" stroke="midnightblue" points="2230.44,-8.42441 2220.34,-11.632 2230.23,-15.4215 2230.44,-8.42441"/>
</g>
<!-- Node48&#45;&gt;Node14 -->
<g id="edge194" class="edge"><title>Node48&#45;&gt;Node14</title>
<path fill="none" stroke="midnightblue" d="M3152.57,-181.378C3114.11,-162.478 3034.6,-124.215 3005,-116 2741.17,-42.7853 1848.88,-16.4455 1667.38,-11.7858"/>
<polygon fill="midnightblue" stroke="midnightblue" points="1667.24,-8.2813 1657.16,-11.5271 1667.07,-15.2791 1667.24,-8.2813"/>
</g>
<!-- Node48&#45;&gt;Node16 -->
<g id="edge204" class="edge"><title>Node48&#45;&gt;Node16</title>
<path fill="none" stroke="midnightblue" d="M3143.86,-181.48C3136.12,-178.91 3127.78,-176.253 3120,-174 3055.8,-155.418 3038.82,-154.282 2974,-138 2972.92,-137.728 2971.82,-137.451 2970.71,-137.171"/>
<polygon fill="midnightblue" stroke="midnightblue" points="2971.15,-133.673 2960.6,-134.608 2969.43,-140.459 2971.15,-133.673"/>
</g>
<!-- Node48&#45;&gt;Node23 -->
<g id="edge200" class="edge"><title>Node48&#45;&gt;Node23</title>
<path fill="none" stroke="midnightblue" d="M3133.87,-185.214C3109.41,-181.33 3077.48,-176.705 3049,-174 2705.29,-141.357 2616.67,-171.092 2273,-138 2260.94,-136.839 2247.86,-135.091 2236.05,-133.328"/>
<polygon fill="midnightblue" stroke="midnightblue" points="2236.47,-129.852 2226.06,-131.789 2235.41,-136.77 2236.47,-129.852"/>
</g>
<!-- Node48&#45;&gt;Node27 -->
<g id="edge208" class="edge"><title>Node48&#45;&gt;Node27</title>
<path fill="none" stroke="midnightblue" d="M3133.83,-185.537C3109.37,-181.768 3077.44,-177.152 3049,-174 2992.77,-167.767 2603.92,-138.724 2482.29,-129.689"/>
<polygon fill="midnightblue" stroke="midnightblue" points="2482.25,-126.177 2472.02,-128.927 2481.73,-133.158 2482.25,-126.177"/>
</g>
<!-- Node49 -->
<g id="node143" class="node"><title>Node49</title>
<polygon fill="white" stroke="#bfbfbf" points="3091.5,-116.5 3091.5,-137.5 3170.5,-137.5 3170.5,-116.5 3091.5,-116.5"/>
<text text-anchor="middle" x="3131" y="-124.5" font-family="Helvetica,sans-Serif" font-size="10.00">detail/format.h</text>
</g>
<!-- Node48&#45;&gt;Node49 -->
<g id="edge188" class="edge"><title>Node48&#45;&gt;Node49</title>
<path fill="none" stroke="midnightblue" d="M3166.9,-181.267C3160.58,-171.707 3151.17,-157.496 3143.58,-146.015"/>
<polygon fill="midnightblue" stroke="midnightblue" points="3146.4,-143.943 3137.97,-137.534 3140.57,-147.805 3146.4,-143.943"/>
</g>
<!-- Node50 -->
<g id="node145" class="node"><title>Node50</title>
<polygon fill="white" stroke="#bfbfbf" points="3187.5,-116.5 3187.5,-137.5 3236.5,-137.5 3236.5,-116.5 3187.5,-116.5"/>
<text text-anchor="middle" x="3212" y="-124.5" font-family="Helvetica,sans-Serif" font-size="10.00">stdint.h</text>
</g>
<!-- Node48&#45;&gt;Node50 -->
<g id="edge190" class="edge"><title>Node48&#45;&gt;Node50</title>
<path fill="none" stroke="midnightblue" d="M3180.27,-181.267C3185.81,-171.801 3194.01,-157.777 3200.68,-146.357"/>
<polygon fill="midnightblue" stroke="midnightblue" points="3203.82,-147.933 3205.84,-137.534 3197.77,-144.4 3203.82,-147.933"/>
</g>
<!-- Node51 -->
<g id="node147" class="node"><title>Node51</title>
<polygon fill="white" stroke="#bfbfbf" points="2731.5,-116.5 2731.5,-137.5 2780.5,-137.5 2780.5,-116.5 2731.5,-116.5"/>
<text text-anchor="middle" x="2756" y="-124.5" font-family="Helvetica,sans-Serif" font-size="10.00">cassert</text>
</g>
<!-- Node48&#45;&gt;Node51 -->
<g id="edge192" class="edge"><title>Node48&#45;&gt;Node51</title>
<path fill="none" stroke="midnightblue" d="M3133.76,-186.148C3109.26,-182.601 3077.33,-178.001 3049,-174 2936.65,-158.132 2904.35,-164.199 2790.52,-138.067"/>
<polygon fill="midnightblue" stroke="midnightblue" points="2791.26,-134.645 2780.73,-135.785 2789.67,-141.462 2791.26,-134.645"/>
</g>
<!-- Node52 -->
<g id="node150" class="node"><title>Node52</title>
<polygon fill="white" stroke="#bfbfbf" points="3253.5,-116.5 3253.5,-137.5 3302.5,-137.5 3302.5,-116.5 3253.5,-116.5"/>
<text text-anchor="middle" x="3278" y="-124.5" font-family="Helvetica,sans-Serif" font-size="10.00">cstddef</text>
</g>
<!-- Node48&#45;&gt;Node52 -->
<g id="edge196" class="edge"><title>Node48&#45;&gt;Node52</title>
<path fill="none" stroke="midnightblue" d="M3191.17,-181.267C3207.91,-170.807 3233.55,-154.782 3252.63,-142.854"/>
<polygon fill="midnightblue" stroke="midnightblue" points="3254.52,-145.802 3261.15,-137.534 3250.81,-139.866 3254.52,-145.802"/>
</g>
<!-- Node53 -->
<g id="node152" class="node"><title>Node53</title>
<polygon fill="white" stroke="#bfbfbf" points="3319.5,-116.5 3319.5,-137.5 3362.5,-137.5 3362.5,-116.5 3319.5,-116.5"/>
<text text-anchor="middle" x="3341" y="-124.5" font-family="Helvetica,sans-Serif" font-size="10.00">cstdio</text>
</g>
<!-- Node48&#45;&gt;Node53 -->
<g id="edge198" class="edge"><title>Node48&#45;&gt;Node53</title>
<path fill="none" stroke="midnightblue" d="M3201.2,-181.412C3230.98,-169.824 3278.62,-151.278 3309.87,-139.117"/>
<polygon fill="midnightblue" stroke="midnightblue" points="3311.34,-142.299 3319.39,-135.41 3308.8,-135.776 3311.34,-142.299"/>
</g>
<!-- Node54 -->
<g id="node155" class="node"><title>Node54</title>
<polygon fill="white" stroke="#bfbfbf" points="2470,-58.5 2470,-79.5 2510,-79.5 2510,-58.5 2470,-58.5"/>
<text text-anchor="middle" x="2490" y="-66.5" font-family="Helvetica,sans-Serif" font-size="10.00">limits</text>
</g>
<!-- Node48&#45;&gt;Node54 -->
<g id="edge202" class="edge"><title>Node48&#45;&gt;Node54</title>
<path fill="none" stroke="midnightblue" d="M3142.43,-181.48C3095.35,-165.792 3012.2,-138.082 3012,-138 2992.21,-129.693 2989.6,-122.043 2969,-116 2884.15,-91.1084 2612.2,-75.25 2520.51,-70.5021"/>
<polygon fill="midnightblue" stroke="midnightblue" points="2520.41,-66.9926 2510.25,-69.9783 2520.06,-73.9835 2520.41,-66.9926"/>
</g>
<!-- Node55&#45;&gt;Node9 -->
<g id="edge218" class="edge"><title>Node55&#45;&gt;Node9</title>
<path fill="none" stroke="midnightblue" d="M2889.17,-399.033C2950.16,-395.051 3074.84,-383.727 3176,-354 3250.04,-332.243 3274.16,-330.729 3334,-282 3380.11,-244.447 3365.88,-210.28 3413,-174 3447.79,-147.214 3473.02,-168.082 3505,-138 3518.85,-124.969 3527.25,-104.758 3531.94,-89.572"/>
<polygon fill="midnightblue" stroke="midnightblue" points="3535.41,-90.1495 3534.73,-79.5768 3528.67,-88.2689 3535.41,-90.1495"/>
</g>
<!-- Node55&#45;&gt;Node10 -->
<g id="edge224" class="edge"><title>Node55&#45;&gt;Node10</title>
<path fill="none" stroke="midnightblue" d="M2875.7,-390.452C2921.44,-370.022 3024.94,-323.418 3111,-282 3175.12,-251.141 3190.88,-242.843 3254,-210 3268.99,-202.199 3379.33,-152.507 3388,-138 3393.02,-129.608 3393.5,-124.084 3388,-116 3348.49,-57.9335 3309.69,-72.6699 3241,-58 3140.28,-36.4883 2396.31,-16.1277 2230.64,-11.8298"/>
<polygon fill="midnightblue" stroke="midnightblue" points="2230.24,-8.31832 2220.15,-11.5591 2230.06,-15.316 2230.24,-8.31832"/>
</g>
<!-- Node55&#45;&gt;Node27 -->
<g id="edge228" class="edge"><title>Node55&#45;&gt;Node27</title>
<path fill="none" stroke="midnightblue" d="M2846.27,-390.498C2823.83,-349.716 2740.95,-202.697 2697,-174 2679.24,-162.406 2547.8,-141.886 2482.54,-132.261"/>
<polygon fill="midnightblue" stroke="midnightblue" points="2482.69,-128.745 2472.29,-130.758 2481.68,-135.671 2482.69,-128.745"/>
</g>
<!-- Node55&#45;&gt;Node39 -->
<g id="edge216" class="edge"><title>Node55&#45;&gt;Node39</title>
<path fill="none" stroke="midnightblue" d="M2889.39,-397.08C3002.16,-385.257 3337.56,-350.094 3441.16,-339.233"/>
<polygon fill="midnightblue" stroke="midnightblue" points="3441.69,-342.697 3451.27,-338.173 3440.96,-335.735 3441.69,-342.697"/>
</g>
<!-- Node55&#45;&gt;Node44 -->
<g id="edge226" class="edge"><title>Node55&#45;&gt;Node44</title>
<path fill="none" stroke="midnightblue" d="M2825.39,-390.405C2780.59,-372.943 2686.95,-338.059 2605,-318 2504.93,-293.505 2473.33,-315.791 2376,-282 2345.17,-271.296 2342.63,-257.261 2312,-246 2233.38,-217.097 2205.98,-237.899 2127,-210 2124.58,-209.144 2122.11,-208.138 2119.67,-207.047"/>
<polygon fill="midnightblue" stroke="midnightblue" points="2121.07,-203.831 2110.55,-202.552 2117.97,-210.111 2121.07,-203.831"/>
</g>
<!-- Node56 -->
<g id="node166" class="node"><title>Node56</title>
<a xlink:href="_lorentz_vec_8h.html" target="_top" xlink:title="base/vec/LorentzVec.h">
<polygon fill="white" stroke="black" points="2102.5,-325.5 2102.5,-346.5 2219.5,-346.5 2219.5,-325.5 2102.5,-325.5"/>
<text text-anchor="middle" x="2161" y="-333.5" font-family="Helvetica,sans-Serif" font-size="10.00">base/vec/LorentzVec.h</text>
</a>
</g>
<!-- Node55&#45;&gt;Node56 -->
<g id="edge220" class="edge"><title>Node55&#45;&gt;Node56</title>
<path fill="none" stroke="midnightblue" d="M2814.75,-399.113C2698.3,-393.068 2342.06,-373.44 2228,-354 2220.57,-352.734 2212.77,-351.011 2205.22,-349.13"/>
<polygon fill="midnightblue" stroke="midnightblue" points="2206.06,-345.732 2195.5,-346.593 2204.29,-352.505 2206.06,-345.732"/>
</g>
<!-- Node56&#45;&gt;Node12 -->
<g id="edge222" class="edge"><title>Node56&#45;&gt;Node12</title>
<path fill="none" stroke="midnightblue" d="M2102.39,-332.646C2004.78,-326.334 1813.64,-310.674 1753,-282 1691.63,-252.981 1646.93,-181.507 1628,-146.693"/>
<polygon fill="midnightblue" stroke="midnightblue" points="1630.93,-144.737 1623.16,-137.531 1624.74,-148.008 1630.93,-144.737"/>
</g>
<!-- Node57&#45;&gt;Node4 -->
<g id="edge240" class="edge"><title>Node57&#45;&gt;Node4</title>
<path fill="none" stroke="midnightblue" d="M2627.3,-187.598C2596.47,-183.362 2547.54,-177.15 2505,-174 2351.78,-162.657 1227.55,-133.492 1010.29,-127.926"/>
<polygon fill="midnightblue" stroke="midnightblue" points="1010.16,-124.421 1000.07,-127.664 1009.98,-131.419 1010.16,-124.421"/>
</g>
<!-- Node57&#45;&gt;Node9 -->
<g id="edge234" class="edge"><title>Node57&#45;&gt;Node9</title>
<path fill="none" stroke="midnightblue" d="M2638.16,-181.289C2612.64,-166.211 2573.97,-138.102 2595,-116 2625.79,-83.6371 3288.66,-72.2957 3483.56,-69.6538"/>
<polygon fill="midnightblue" stroke="midnightblue" points="3483.88,-73.1499 3493.83,-69.5168 3483.79,-66.1506 3483.88,-73.1499"/>
</g>
<!-- Node57&#45;&gt;Node20 -->
<g id="edge236" class="edge"><title>Node57&#45;&gt;Node20</title>
<path fill="none" stroke="midnightblue" d="M2627.3,-187.667C2596.46,-183.484 2547.53,-177.311 2505,-174 2088.18,-141.55 1981.39,-175.613 1565,-138 1547.47,-136.416 1527.82,-133.593 1512.77,-131.204"/>
<polygon fill="midnightblue" stroke="midnightblue" points="1513.14,-127.718 1502.71,-129.564 1512.02,-134.627 1513.14,-127.718"/>
</g>
<!-- Node57&#45;&gt;Node54 -->
<g id="edge238" class="edge"><title>Node57&#45;&gt;Node54</title>
<path fill="none" stroke="midnightblue" d="M2632.42,-181.496C2626.38,-179.028 2619.97,-176.414 2614,-174 2574.06,-157.844 2555.62,-167.263 2524,-138 2509.88,-124.934 2500.89,-104.728 2495.72,-89.552"/>
<polygon fill="midnightblue" stroke="midnightblue" points="2498.93,-88.0752 2492.62,-79.5651 2492.24,-90.1533 2498.93,-88.0752"/>
</g>
<!-- Node58 -->
<g id="node174" class="node"><title>Node58</title>
<a xlink:href="types_8h.html" target="_top" xlink:title="base/types.h">
<polygon fill="white" stroke="black" points="2603.5,-116.5 2603.5,-137.5 2676.5,-137.5 2676.5,-116.5 2603.5,-116.5"/>
<text text-anchor="middle" x="2640" y="-124.5" font-family="Helvetica,sans-Serif" font-size="10.00">base/types.h</text>
</a>
</g>
<!-- Node57&#45;&gt;Node58 -->
<g id="edge232" class="edge"><title>Node57&#45;&gt;Node58</title>
<path fill="none" stroke="midnightblue" d="M2655.03,-181.267C2652.49,-172.085 2648.75,-158.615 2645.65,-147.392"/>
<polygon fill="midnightblue" stroke="midnightblue" points="2648.96,-146.237 2642.92,-137.534 2642.21,-148.105 2648.96,-146.237"/>
</g>
<!-- Node59&#45;&gt;Node4 -->
<g id="edge258" class="edge"><title>Node59&#45;&gt;Node4</title>
<path fill="none" stroke="midnightblue" d="M1575.31,-188.306C1544.69,-184.537 1495.53,-178.605 1453,-174 1287.83,-156.119 1090.29,-137.663 1010.29,-130.31"/>
<polygon fill="midnightblue" stroke="midnightblue" points="1010.52,-126.817 1000.24,-129.388 1009.88,-133.787 1010.52,-126.817"/>
</g>
<!-- Node59&#45;&gt;Node9 -->
<g id="edge246" class="edge"><title>Node59&#45;&gt;Node9</title>
<path fill="none" stroke="midnightblue" d="M1622.93,-181.33C1627.99,-178.642 1633.6,-175.966 1639,-174 1653.42,-168.75 1893.77,-117.84 1909,-116 2224.31,-77.9063 3239.89,-70.4765 3483.92,-69.2281"/>
<polygon fill="midnightblue" stroke="midnightblue" points="3483.97,-72.728 3493.95,-69.178 3483.93,-65.7281 3483.97,-72.728"/>
</g>
<!-- Node59&#45;&gt;Node12 -->
<g id="edge254" class="edge"><title>Node59&#45;&gt;Node12</title>
<path fill="none" stroke="midnightblue" d="M1607.15,-181.267C1608.98,-172.085 1611.68,-158.615 1613.92,-147.392"/>
<polygon fill="midnightblue" stroke="midnightblue" points="1617.36,-148.026 1615.89,-137.534 1610.5,-146.653 1617.36,-148.026"/>
</g>
<!-- Node59&#45;&gt;Node20 -->
<g id="edge256" class="edge"><title>Node59&#45;&gt;Node20</title>
<path fill="none" stroke="midnightblue" d="M1585.94,-181.412C1565.64,-170.131 1533.46,-152.257 1511.58,-140.098"/>
<polygon fill="midnightblue" stroke="midnightblue" points="1513.05,-136.912 1502.61,-135.115 1509.65,-143.031 1513.05,-136.912"/>
</g>
<!-- Node59&#45;&gt;Node58 -->
<g id="edge244" class="edge"><title>Node59&#45;&gt;Node58</title>
<path fill="none" stroke="midnightblue" d="M1634.88,-190.24C1746.44,-183.65 2149.16,-159.707 2481,-138 2518.71,-135.534 2561.43,-132.568 2593.09,-130.338"/>
<polygon fill="midnightblue" stroke="midnightblue" points="2593.65,-133.808 2603.38,-129.612 2593.16,-126.825 2593.65,-133.808"/>
</g>
<!-- Node60 -->
<g id="node184" class="node"><title>Node60</title>
<a xlink:href="math_8h.html" target="_top" xlink:title="base/std_ext/math.h">
<polygon fill="white" stroke="black" points="1680,-116.5 1680,-137.5 1786,-137.5 1786,-116.5 1680,-116.5"/>
<text text-anchor="middle" x="1733" y="-124.5" font-family="Helvetica,sans-Serif" font-size="10.00">base/std_ext/math.h</text>
</a>
</g>
<!-- Node59&#45;&gt;Node60 -->
<g id="edge248" class="edge"><title>Node59&#45;&gt;Node60</title>
<path fill="none" stroke="midnightblue" d="M1625.85,-181.412C1646.86,-170.741 1679.49,-154.172 1703.23,-142.12"/>
<polygon fill="midnightblue" stroke="midnightblue" points="1704.83,-145.232 1712.16,-137.584 1701.66,-138.991 1704.83,-145.232"/>
</g>
<!-- Node60&#45;&gt;Node14 -->
<g id="edge250" class="edge"><title>Node60&#45;&gt;Node14</title>
<path fill="none" stroke="midnightblue" d="M1723.96,-116.295C1707.26,-96.5271 1671.4,-54.0801 1650.67,-29.5443"/>
<polygon fill="midnightblue" stroke="midnightblue" points="1653.15,-27.0593 1644.02,-21.6792 1647.8,-31.5768 1653.15,-27.0593"/>
</g>
<!-- Node60&#45;&gt;Node54 -->
<g id="edge252" class="edge"><title>Node60&#45;&gt;Node54</title>
<path fill="none" stroke="midnightblue" d="M1786.33,-117.777C1790.95,-117.121 1795.55,-116.516 1800,-116 2054.09,-86.5546 2363.13,-73.5682 2459.69,-70.0389"/>
<polygon fill="midnightblue" stroke="midnightblue" points="2460.03,-73.5292 2469.9,-69.6725 2459.78,-66.5337 2460.03,-73.5292"/>
</g>
<!-- Node61&#45;&gt;Node4 -->
<g id="edge278" class="edge"><title>Node61&#45;&gt;Node4</title>
<path fill="none" stroke="midnightblue" d="M1761.75,-261.733C1670.84,-254.927 1407.76,-233.676 1325,-210 1289.07,-199.72 1284.64,-185.253 1249,-174 1165.86,-147.751 1063.68,-135.178 1010.34,-130.027"/>
<polygon fill="midnightblue" stroke="midnightblue" points="1010.62,-126.539 1000.34,-129.094 1009.97,-133.508 1010.62,-126.539"/>
</g>
<!-- Node61&#45;&gt;Node8 -->
<g id="edge262" class="edge"><title>Node61&#45;&gt;Node8</title>
<path fill="none" stroke="midnightblue" d="M1823.99,-253.376C1860.77,-240.764 1922.21,-219.698 1962.67,-205.826"/>
<polygon fill="midnightblue" stroke="midnightblue" points="1963.9,-209.104 1972.23,-202.55 1961.63,-202.483 1963.9,-209.104"/>
</g>
<!-- Node61&#45;&gt;Node10 -->
<g id="edge270" class="edge"><title>Node61&#45;&gt;Node10</title>
<path fill="none" stroke="midnightblue" d="M1793.73,-253.304C1796.72,-218.687 1811.14,-109.004 1876,-58 1920.56,-22.957 2093.16,-13.9727 2165.65,-11.7263"/>
<polygon fill="midnightblue" stroke="midnightblue" points="2166.1,-15.2151 2175.99,-11.4311 2165.9,-8.218 2166.1,-15.2151"/>
</g>
<!-- Node61&#45;&gt;Node12 -->
<g id="edge268" class="edge"><title>Node61&#45;&gt;Node12</title>
<path fill="none" stroke="midnightblue" d="M1779.56,-253.477C1749.48,-229.927 1676.49,-172.792 1639.81,-144.074"/>
<polygon fill="midnightblue" stroke="midnightblue" points="1641.76,-141.156 1631.73,-137.747 1637.45,-146.668 1641.76,-141.156"/>
</g>
<!-- Node61&#45;&gt;Node14 -->
<g id="edge272" class="edge"><title>Node61&#45;&gt;Node14</title>
<path fill="none" stroke="midnightblue" d="M1761.82,-258.705C1702.76,-248.368 1579.33,-225.189 1567,-210 1521.85,-154.401 1585.82,-67.1639 1618.19,-29.4206"/>
<polygon fill="midnightblue" stroke="midnightblue" points="1620.97,-31.5656 1624.93,-21.7414 1615.71,-26.9475 1620.97,-31.5656"/>
</g>
<!-- Node61&#45;&gt;Node21 -->
<g id="edge266" class="edge"><title>Node61&#45;&gt;Node21</title>
<path fill="none" stroke="midnightblue" d="M1761.71,-262.637C1664.92,-258.182 1361.96,-242.435 1113,-210 1101.16,-208.457 1088.58,-206.455 1076.51,-204.349"/>
<polygon fill="midnightblue" stroke="midnightblue" points="1076.97,-200.876 1066.51,-202.562 1075.74,-207.767 1076.97,-200.876"/>
</g>
<!-- Node61&#45;&gt;Node27 -->
<g id="edge276" class="edge"><title>Node61&#45;&gt;Node27</title>
<path fill="none" stroke="midnightblue" d="M1824.27,-262.803C1958.67,-257.509 2481.51,-235.342 2505,-210 2515.88,-198.266 2511.95,-188.414 2505,-174 2498.79,-161.121 2487.15,-150.678 2475.84,-142.937"/>
<polygon fill="midnightblue" stroke="midnightblue" points="2477.66,-139.951 2467.34,-137.548 2473.91,-145.862 2477.66,-139.951"/>
</g>
<!-- Node61&#45;&gt;Node44 -->
<g id="edge274" class="edge"><title>Node61&#45;&gt;Node44</title>
<path fill="none" stroke="midnightblue" d="M1824.09,-260.62C1874.56,-254.49 1976.92,-239.367 2059,-210 2061.42,-209.134 2063.88,-208.121 2066.32,-207.025"/>
<polygon fill="midnightblue" stroke="midnightblue" points="2068.02,-210.088 2075.44,-202.523 2064.92,-203.81 2068.02,-210.088"/>
</g>
<!-- Node61&#45;&gt;Node60 -->
<g id="edge264" class="edge"><title>Node61&#45;&gt;Node60</title>
<path fill="none" stroke="midnightblue" d="M1788.29,-253.25C1778.26,-230.341 1754.64,-176.409 1741.76,-146.992"/>
<polygon fill="midnightblue" stroke="midnightblue" points="1744.9,-145.456 1737.69,-137.7 1738.49,-148.264 1744.9,-145.456"/>
</g>
<!-- Node62&#45;&gt;Node4 -->
<g id="edge292" class="edge"><title>Node62&#45;&gt;Node4</title>
<path fill="none" stroke="midnightblue" d="M2251.54,-325.442C2244.2,-322.475 2235.9,-319.618 2228,-318 1976.87,-266.544 1322.38,-349.209 1075,-282 1010.51,-264.479 977.113,-267.464 943,-210 930.831,-189.5 944.758,-163.401 957.644,-145.996"/>
<polygon fill="midnightblue" stroke="midnightblue" points="960.695,-147.78 964.144,-137.762 955.201,-143.442 960.695,-147.78"/>
</g>
<!-- Node62&#45;&gt;Node8 -->
<g id="edge284" class="edge"><title>Node62&#45;&gt;Node8</title>
<path fill="none" stroke="midnightblue" d="M2247.43,-325.492C2215.38,-312.712 2163.51,-291.654 2145,-282 2101.52,-259.326 2053.95,-227.65 2026.39,-208.553"/>
<polygon fill="midnightblue" stroke="midnightblue" points="2028.04,-205.442 2017.84,-202.59 2024.04,-211.183 2028.04,-205.442"/>
</g>
<!-- Node62&#45;&gt;Node10 -->
<g id="edge286" class="edge"><title>Node62&#45;&gt;Node10</title>
<path fill="none" stroke="midnightblue" d="M2248.91,-325.494C2242.18,-322.867 2234.87,-320.179 2228,-318 2164.3,-297.78 2144.41,-305.909 2082,-282 1988.58,-246.211 1933.05,-235.105 1909,-138 1890.55,-63.5163 1989.85,-84.1349 2062,-58 2097.56,-45.1178 2138.63,-31.0333 2166.25,-21.6748"/>
<polygon fill="midnightblue" stroke="midnightblue" points="2167.43,-24.9702 2175.79,-18.4517 2165.19,-18.3389 2167.43,-24.9702"/>
</g>
<!-- Node62&#45;&gt;Node23 -->
<g id="edge294" class="edge"><title>Node62&#45;&gt;Node23</title>
<path fill="none" stroke="midnightblue" d="M2290.67,-325.385C2330.19,-298.932 2423.18,-228.303 2381,-174 2341.32,-122.922 2302.62,-154.193 2240,-138 2238.59,-137.634 2237.15,-137.261 2235.69,-136.883"/>
<polygon fill="midnightblue" stroke="midnightblue" points="2236.57,-133.495 2226.01,-134.361 2234.8,-140.269 2236.57,-133.495"/>
</g>
<!-- Node62&#45;&gt;Node27 -->
<g id="edge290" class="edge"><title>Node62&#45;&gt;Node27</title>
<path fill="none" stroke="midnightblue" d="M2311.51,-331.956C2374.78,-322.888 2501.15,-294.584 2556,-210 2564.71,-196.576 2564.82,-187.353 2556,-174 2539.71,-149.323 2507.51,-137.557 2482.14,-131.974"/>
<polygon fill="midnightblue" stroke="midnightblue" points="2482.59,-128.495 2472.1,-130.001 2481.24,-135.364 2482.59,-128.495"/>
</g>
<!-- Node62&#45;&gt;Node44 -->
<g id="edge288" class="edge"><title>Node62&#45;&gt;Node44</title>
<path fill="none" stroke="midnightblue" d="M2255.34,-325.305C2237.89,-315.001 2211.37,-298.575 2190,-282 2160.46,-259.087 2129.27,-228.932 2110.47,-210.004"/>
<polygon fill="midnightblue" stroke="midnightblue" points="2112.73,-207.304 2103.22,-202.634 2107.74,-212.215 2112.73,-207.304"/>
</g>
<!-- Node62&#45;&gt;Node61 -->
<g id="edge282" class="edge"><title>Node62&#45;&gt;Node61</title>
<path fill="none" stroke="midnightblue" d="M2250.53,-325.353C2243.43,-322.531 2235.51,-319.778 2228,-318 2058.61,-277.889 2007.23,-322.747 1838,-282 1833.86,-281.003 1829.6,-279.696 1825.42,-278.241"/>
<polygon fill="midnightblue" stroke="midnightblue" points="1826.53,-274.919 1815.94,-274.654 1824.05,-281.466 1826.53,-274.919"/>
</g>
<!-- Node63&#45;&gt;Node4 -->
<g id="edge354" class="edge"><title>Node63&#45;&gt;Node4</title>
<path fill="none" stroke="midnightblue" d="M2536.84,-400.571C2332.4,-397.769 1217.87,-381.328 1069,-354 972.368,-336.262 917.046,-361.988 860,-282 851.261,-269.747 845.076,-197.514 861,-174 878.144,-148.684 911.718,-136.978 937.835,-131.581"/>
<polygon fill="midnightblue" stroke="midnightblue" points="938.585,-135.002 947.785,-129.748 937.316,-128.118 938.585,-135.002"/>
</g>
<!-- Node63&#45;&gt;Node9 -->
<g id="edge300" class="edge"><title>Node63&#45;&gt;Node9</title>
<path fill="none" stroke="midnightblue" d="M2601.16,-394.249C2700.49,-372.933 3010.56,-302.937 3256,-210 3256.27,-209.899 3403.74,-138.128 3404,-138 3439.97,-119.924 3481.05,-98.4876 3507.92,-84.359"/>
<polygon fill="midnightblue" stroke="midnightblue" points="3509.59,-87.4395 3516.8,-79.6838 3506.32,-81.2455 3509.59,-87.4395"/>
</g>
<!-- Node63&#45;&gt;Node10 -->
<g id="edge348" class="edge"><title>Node63&#45;&gt;Node10</title>
<path fill="none" stroke="midnightblue" d="M2593.96,-390.431C2640.8,-370.694 2740.36,-329.212 2776,-318 2843.46,-296.778 2862.86,-300.926 2931,-282 2980.97,-268.121 2991.81,-259.081 3042,-246 3121.37,-225.313 3151.52,-250.226 3223,-210 3241.92,-199.355 3237.68,-185.642 3256,-174 3304.31,-143.297 3407.53,-160.075 3371,-116 3296.12,-25.6544 2412.32,-12.907 2230.56,-11.2376"/>
<polygon fill="midnightblue" stroke="midnightblue" points="2230.34,-7.73567 2220.31,-11.1486 2230.28,-14.7354 2230.34,-7.73567"/>
</g>
<!-- Node63&#45;&gt;Node20 -->
<g id="edge350" class="edge"><title>Node63&#45;&gt;Node20</title>
<path fill="none" stroke="midnightblue" d="M2536.88,-399.593C2421.71,-393.921 2019.47,-368.702 1701,-282 1611.05,-257.513 1564.44,-280.972 1504,-210 1489.28,-192.709 1486.51,-165.992 1486.62,-147.564"/>
<polygon fill="midnightblue" stroke="midnightblue" points="1490.12,-147.677 1486.97,-137.562 1483.12,-147.435 1490.12,-147.677"/>
</g>
<!-- Node63&#45;&gt;Node56 -->
<g id="edge346" class="edge"><title>Node63&#45;&gt;Node56</title>
<path fill="none" stroke="midnightblue" d="M2536.81,-397.924C2476.04,-391.819 2340.46,-376.763 2228,-354 2221.18,-352.619 2214.02,-350.945 2207.03,-349.18"/>
<polygon fill="midnightblue" stroke="midnightblue" points="2207.53,-345.691 2196.97,-346.552 2205.76,-352.464 2207.53,-345.691"/>
</g>
<!-- Node63&#45;&gt;Node58 -->
<g id="edge302" class="edge"><title>Node63&#45;&gt;Node58</title>
<path fill="none" stroke="midnightblue" d="M2586.78,-390.34C2601.8,-381.15 2623.72,-367.3 2642,-354 2662.43,-339.137 2662.94,-328.338 2686,-318 2779.21,-276.207 2846.67,-359.682 2913,-282 2934.72,-256.566 2897.73,-181.505 2889,-174 2820.37,-114.981 2775.84,-155.12 2686.56,-138.995"/>
<polygon fill="midnightblue" stroke="midnightblue" points="2687.11,-135.536 2676.62,-137.001 2685.73,-142.4 2687.11,-135.536"/>
</g>
<!-- Node63&#45;&gt;Node62 -->
<g id="edge298" class="edge"><title>Node63&#45;&gt;Node62</title>
<path fill="none" stroke="midnightblue" d="M2536.87,-393.92C2484.92,-382.474 2382.21,-359.843 2321.7,-346.511"/>
<polygon fill="midnightblue" stroke="midnightblue" points="2322.16,-343.028 2311.64,-344.294 2320.66,-349.864 2322.16,-343.028"/>
</g>
<!-- Node64 -->
<g id="node216" class="node"><title>Node64</title>
<a xlink:href="_particle_type_8h.html" target="_top" xlink:title="base/ParticleType.h">
<polygon fill="white" stroke="black" points="2800,-253.5 2800,-274.5 2904,-274.5 2904,-253.5 2800,-253.5"/>
<text text-anchor="middle" x="2852" y="-261.5" font-family="Helvetica,sans-Serif" font-size="10.00">base/ParticleType.h</text>
</a>
</g>
<!-- Node63&#45;&gt;Node64 -->
<g id="edge304" class="edge"><title>Node63&#45;&gt;Node64</title>
<path fill="none" stroke="midnightblue" d="M2576.15,-390.291C2588.59,-372.502 2615.99,-336.948 2648,-318 2691.64,-292.173 2747.72,-278.488 2790.03,-271.366"/>
<polygon fill="midnightblue" stroke="midnightblue" points="2790.61,-274.818 2799.93,-269.777 2789.5,-267.906 2790.61,-274.818"/>
</g>
<!-- Node68 -->
<g id="node234" class="node"><title>Node68</title>
<a xlink:href="_tree_8h.html" target="_top" xlink:title="base/Tree.h">
<polygon fill="white" stroke="black" points="2428,-181.5 2428,-202.5 2496,-202.5 2496,-181.5 2428,-181.5"/>
<text text-anchor="middle" x="2462" y="-189.5" font-family="Helvetica,sans-Serif" font-size="10.00">base/Tree.h</text>
</a>
</g>
<!-- Node63&#45;&gt;Node68 -->
<g id="edge332" class="edge"><title>Node63&#45;&gt;Node68</title>
<path fill="none" stroke="midnightblue" d="M2559.63,-390.327C2551.85,-381.13 2540.84,-367.276 2533,-354 2504.51,-305.746 2480.56,-243.97 2469.15,-212.468"/>
<polygon fill="midnightblue" stroke="midnightblue" points="2472.31,-210.903 2465.66,-202.66 2465.72,-213.254 2472.31,-210.903"/>
</g>
<!-- Node70 -->
<g id="node246" class="node"><title>Node70</title>
<polygon fill="white" stroke="#bfbfbf" points="2542,-325.5 2542,-346.5 2596,-346.5 2596,-325.5 2542,-325.5"/>
<text text-anchor="middle" x="2569" y="-333.5" font-family="Helvetica,sans-Serif" font-size="10.00">iostream</text>
</g>
<!-- Node63&#45;&gt;Node70 -->
<g id="edge352" class="edge"><title>Node63&#45;&gt;Node70</title>
<path fill="none" stroke="midnightblue" d="M2569,-390.267C2569,-381.18 2569,-367.892 2569,-356.74"/>
<polygon fill="midnightblue" stroke="midnightblue" points="2572.5,-356.534 2569,-346.534 2565.5,-356.534 2572.5,-356.534"/>
</g>
<!-- Node64&#45;&gt;Node6 -->
<g id="edge322" class="edge"><title>Node64&#45;&gt;Node6</title>
<path fill="none" stroke="midnightblue" d="M2799.73,-261.064C2663.5,-253.159 2304.68,-230.63 2255,-210 2231.98,-200.441 2233.93,-185.836 2212,-174 2171.34,-152.062 2119.07,-138.986 2086.55,-132.394"/>
<polygon fill="midnightblue" stroke="midnightblue" points="2087.21,-128.957 2076.72,-130.478 2085.87,-135.827 2087.21,-128.957"/>
</g>
<!-- Node64&#45;&gt;Node10 -->
<g id="edge330" class="edge"><title>Node64&#45;&gt;Node10</title>
<path fill="none" stroke="midnightblue" d="M2853.8,-253.345C2856.33,-234.453 2858.47,-195.095 2837,-174 2759.44,-97.7844 2691.48,-188.151 2595,-138 2551.49,-115.381 2562.54,-80.5687 2519,-58 2469.06,-32.1135 2301.63,-18.0096 2230.45,-13.0611"/>
<polygon fill="midnightblue" stroke="midnightblue" points="2230.5,-9.55606 2220.28,-12.371 2230.02,-16.54 2230.5,-9.55606"/>
</g>
<!-- Node64&#45;&gt;Node11 -->
<g id="edge324" class="edge"><title>Node64&#45;&gt;Node11</title>
<path fill="none" stroke="midnightblue" d="M2904.17,-260.75C3054.58,-251.242 3480.09,-223.311 3507,-210 3568.23,-179.713 3575.89,-147.042 3589,-80 3592.11,-64.1211 3593.88,-45.9009 3594.86,-32.1723"/>
<polygon fill="midnightblue" stroke="midnightblue" points="3598.38,-32.0478 3595.52,-21.8467 3591.39,-31.6056 3598.38,-32.0478"/>
</g>
<!-- Node64&#45;&gt;Node24 -->
<g id="edge326" class="edge"><title>Node64&#45;&gt;Node24</title>
<path fill="none" stroke="midnightblue" d="M2799.76,-262.517C2691.35,-258.782 2434.32,-246.521 2222,-210 2208.18,-207.623 2193.08,-203.825 2180.54,-200.329"/>
<polygon fill="midnightblue" stroke="midnightblue" points="2181.27,-196.897 2170.69,-197.501 2179.34,-203.625 2181.27,-196.897"/>
</g>
<!-- Node64&#45;&gt;Node58 -->
<g id="edge306" class="edge"><title>Node64&#45;&gt;Node58</title>
<path fill="none" stroke="midnightblue" d="M2859.16,-253.227C2870.38,-234.845 2888.99,-197.167 2870,-174 2818.28,-110.907 2769.84,-154.765 2690,-138 2688.91,-137.772 2687.81,-137.539 2686.7,-137.304"/>
<polygon fill="midnightblue" stroke="midnightblue" points="2687.09,-133.807 2676.57,-135.131 2685.62,-140.651 2687.09,-133.807"/>
</g>
<!-- Node65 -->
<g id="node219" class="node"><title>Node65</title>
<a xlink:href="interval_8h.html" target="_top" xlink:title="base/interval.h">
<polygon fill="white" stroke="black" points="2960,-181.5 2960,-202.5 3040,-202.5 3040,-181.5 2960,-181.5"/>
<text text-anchor="middle" x="3000" y="-189.5" font-family="Helvetica,sans-Serif" font-size="10.00">base/interval.h</text>
</a>
</g>
<!-- Node64&#45;&gt;Node65 -->
<g id="edge308" class="edge"><title>Node64&#45;&gt;Node65</title>
<path fill="none" stroke="midnightblue" d="M2873.84,-253.376C2898.98,-241.146 2940.46,-220.965 2968.95,-207.105"/>
<polygon fill="midnightblue" stroke="midnightblue" points="2970.61,-210.189 2978.07,-202.667 2967.55,-203.895 2970.61,-210.189"/>
</g>
<!-- Node67 -->
<g id="node231" class="node"><title>Node67</title>
<polygon fill="white" stroke="#bfbfbf" points="2781.5,-181.5 2781.5,-202.5 2828.5,-202.5 2828.5,-181.5 2781.5,-181.5"/>
<text text-anchor="middle" x="2805" y="-189.5" font-family="Helvetica,sans-Serif" font-size="10.00">iterator</text>
</g>
<!-- Node64&#45;&gt;Node67 -->
<g id="edge328" class="edge"><title>Node64&#45;&gt;Node67</title>
<path fill="none" stroke="midnightblue" d="M2845.06,-253.376C2837.85,-242.316 2826.38,-224.753 2817.56,-211.243"/>
<polygon fill="midnightblue" stroke="midnightblue" points="2820.36,-209.128 2811.96,-202.667 2814.5,-212.954 2820.36,-209.128"/>
</g>
<!-- Node65&#45;&gt;Node9 -->
<g id="edge310" class="edge"><title>Node65&#45;&gt;Node9</title>
<path fill="none" stroke="midnightblue" d="M2971.15,-181.414C2942.59,-170.275 2901.86,-152.398 2893,-138 2887.88,-129.673 2886.34,-123.161 2893,-116 2913.01,-94.477 3332.42,-76.6759 3483.42,-70.9428"/>
<polygon fill="midnightblue" stroke="midnightblue" points="3483.96,-74.4251 3493.82,-70.5509 3483.7,-67.43 3483.96,-74.4251"/>
</g>
<!-- Node65&#45;&gt;Node16 -->
<g id="edge316" class="edge"><title>Node65&#45;&gt;Node16</title>
<path fill="none" stroke="midnightblue" d="M2988.61,-181.267C2978.06,-171.328 2962.17,-156.363 2949.75,-144.664"/>
<polygon fill="midnightblue" stroke="midnightblue" points="2951.86,-141.843 2942.18,-137.534 2947.06,-146.938 2951.86,-141.843"/>
</g>
<!-- Node65&#45;&gt;Node23 -->
<g id="edge314" class="edge"><title>Node65&#45;&gt;Node23</title>
<path fill="none" stroke="midnightblue" d="M2959.86,-187.044C2926.9,-183.1 2878.98,-177.656 2837,-174 2586.77,-152.209 2522.8,-164.247 2273,-138 2260.95,-136.734 2247.88,-134.957 2236.06,-133.199"/>
<polygon fill="midnightblue" stroke="midnightblue" points="2236.48,-129.723 2226.07,-131.673 2235.42,-136.642 2236.48,-129.723"/>
</g>
<!-- Node65&#45;&gt;Node54 -->
<g id="edge318" class="edge"><title>Node65&#45;&gt;Node54</title>
<path fill="none" stroke="midnightblue" d="M2971.11,-181.412C2963.06,-178.724 2954.25,-176.028 2946,-174 2848.5,-150.048 2817.57,-171.71 2723,-138 2704.62,-131.447 2703.12,-123.25 2685,-116 2629,-93.5895 2559.51,-79.9885 2520.42,-73.5355"/>
<polygon fill="midnightblue" stroke="midnightblue" points="2520.66,-70.0303 2510.24,-71.9036 2519.56,-76.9421 2520.66,-70.0303"/>
</g>
<!-- Node65&#45;&gt;Node58 -->
<g id="edge312" class="edge"><title>Node65&#45;&gt;Node58</title>
<path fill="none" stroke="midnightblue" d="M2971.69,-181.488C2963.49,-178.737 2954.47,-175.989 2946,-174 2834.15,-147.724 2803.08,-158.359 2690,-138 2688.91,-137.803 2687.8,-137.599 2686.69,-137.39"/>
<polygon fill="midnightblue" stroke="midnightblue" points="2687.02,-133.887 2676.53,-135.375 2685.66,-140.753 2687.02,-133.887"/>
</g>
<!-- Node66 -->
<g id="node226" class="node"><title>Node66</title>
<polygon fill="white" stroke="#bfbfbf" points="2797.5,-116.5 2797.5,-137.5 2846.5,-137.5 2846.5,-116.5 2797.5,-116.5"/>
<text text-anchor="middle" x="2822" y="-124.5" font-family="Helvetica,sans-Serif" font-size="10.00">istream</text>
</g>
<!-- Node65&#45;&gt;Node66 -->
<g id="edge320" class="edge"><title>Node65&#45;&gt;Node66</title>
<path fill="none" stroke="midnightblue" d="M2971.01,-181.412C2939.67,-169.969 2889.76,-151.742 2856.44,-139.578"/>
<polygon fill="midnightblue" stroke="midnightblue" points="2857.27,-136.154 2846.68,-136.012 2854.87,-142.729 2857.27,-136.154"/>
</g>
<!-- Node68&#45;&gt;Node4 -->
<g id="edge336" class="edge"><title>Node68&#45;&gt;Node4</title>
<path fill="none" stroke="midnightblue" d="M2427.96,-182.963C2413.57,-179.53 2396.58,-175.974 2381,-174 2241.58,-156.335 1216.96,-132.474 1010.27,-127.809"/>
<polygon fill="midnightblue" stroke="midnightblue" points="1010.32,-124.309 1000.24,-127.583 1010.16,-131.308 1010.32,-124.309"/>
</g>
<!-- Node68&#45;&gt;Node10 -->
<g id="edge340" class="edge"><title>Node68&#45;&gt;Node10</title>
<path fill="none" stroke="midnightblue" d="M2427.82,-181.832C2419.09,-179.255 2409.7,-176.507 2401,-174 2344.21,-157.637 2319.84,-174.035 2273,-138 2236.83,-110.172 2214.67,-59.5337 2204.54,-31.3356"/>
<polygon fill="midnightblue" stroke="midnightblue" points="2207.8,-30.0464 2201.25,-21.7215 2201.18,-32.3161 2207.8,-30.0464"/>
</g>
<!-- Node68&#45;&gt;Node20 -->
<g id="edge338" class="edge"><title>Node68&#45;&gt;Node20</title>
<path fill="none" stroke="midnightblue" d="M2427.95,-183.046C2413.56,-179.626 2396.57,-176.057 2381,-174 2021.11,-126.444 1926.45,-171.71 1565,-138 1547.47,-136.365 1527.83,-133.543 1512.77,-131.167"/>
<polygon fill="midnightblue" stroke="midnightblue" points="1513.14,-127.681 1502.71,-129.538 1512.02,-134.591 1513.14,-127.681"/>
</g>
<!-- Node68&#45;&gt;Node23 -->
<g id="edge342" class="edge"><title>Node68&#45;&gt;Node23</title>
<path fill="none" stroke="midnightblue" d="M2436.09,-181.447C2429,-178.791 2421.27,-176.101 2414,-174 2338.13,-152.07 2316.89,-156.01 2240,-138 2238.76,-137.71 2237.5,-137.41 2236.23,-137.104"/>
<polygon fill="midnightblue" stroke="midnightblue" points="2236.97,-133.679 2226.42,-134.657 2235.27,-140.471 2236.97,-133.679"/>
</g>
<!-- Node68&#45;&gt;Node51 -->
<g id="edge344" class="edge"><title>Node68&#45;&gt;Node51</title>
<path fill="none" stroke="midnightblue" d="M2496.01,-184.48C2552.36,-172.022 2664.49,-147.232 2721.29,-134.674"/>
<polygon fill="midnightblue" stroke="midnightblue" points="2722.22,-138.053 2731.23,-132.477 2720.71,-131.218 2722.22,-138.053"/>
</g>
<!-- Node69 -->
<g id="node236" class="node"><title>Node69</title>
<polygon fill="white" stroke="#bfbfbf" points="2282,-116.5 2282,-137.5 2402,-137.5 2402,-116.5 2282,-116.5"/>
<text text-anchor="middle" x="2342" y="-124.5" font-family="Helvetica,sans-Serif" font-size="10.00">base/cereal/access.hpp</text>
</g>
<!-- Node68&#45;&gt;Node69 -->
<g id="edge334" class="edge"><title>Node68&#45;&gt;Node69</title>
<path fill="none" stroke="midnightblue" d="M2442.45,-181.412C2422.93,-170.836 2392.7,-154.465 2370.51,-142.441"/>
<polygon fill="midnightblue" stroke="midnightblue" points="2372,-139.269 2361.54,-137.584 2368.66,-145.424 2372,-139.269"/>
</g>
<!-- Node72 -->
<g id="node251" class="node"><title>Node72</title>
<polygon fill="white" stroke="#bfbfbf" points="3903.5,-390.5 3903.5,-411.5 4018.5,-411.5 4018.5,-390.5 3903.5,-390.5"/>
<text text-anchor="middle" x="3961" y="-398.5" font-family="Helvetica,sans-Serif" font-size="10.00">detail/easylogging++.h</text>
</g>
<!-- Node71&#45;&gt;Node72 -->
<g id="edge358" class="edge"><title>Node71&#45;&gt;Node72</title>
<path fill="none" stroke="midnightblue" d="M3497.21,-449.571C3500.18,-448.994 3503.13,-448.461 3506,-448 3675.24,-420.796 3719.89,-433.132 3890,-412 3891.08,-411.865 3892.18,-411.727 3893.27,-411.586"/>
<polygon fill="midnightblue" stroke="midnightblue" points="3893.86,-415.038 3903.3,-410.236 3892.93,-408.101 3893.86,-415.038"/>
</g>
</g>
</svg>
