<?xml version="1.0" encoding="UTF-8" standalone="no"?>
<!DOCTYPE svg PUBLIC "-//W3C//DTD SVG 1.1//EN"
 "http://www.w3.org/Graphics/SVG/1.1/DTD/svg11.dtd">
<!-- Generated by graphviz version 2.26.3 (20100126.1600)
 -->
<!-- Title: src/analysis/input/ant/AntReader.h Pages: 1 -->
<svg width="1882pt" height="376pt"
 viewBox="0.00 0.00 1882.05 376.00" xmlns="http://www.w3.org/2000/svg" xmlns:xlink="http://www.w3.org/1999/xlink">
<g id="graph1" class="graph" transform="scale(1 1) rotate(0) translate(4 372)">
<title>src/analysis/input/ant/AntReader.h</title>
<polygon fill="white" stroke="white" points="-4,5 -4,-372 1879.05,-372 1879.05,5 -4,5"/>
<!-- Node1 -->
<g id="node1" class="node"><title>Node1</title>
<polygon fill="#bfbfbf" stroke="black" points="419.554,-333 419.554,-367 512.554,-367 512.554,-333 419.554,-333"/>
<text text-anchor="start" x="427.554" y="-354" font-family="Helvetica,sans-Serif" font-size="10.00">src/analysis/input</text>
<text text-anchor="middle" x="466.054" y="-341" font-family="Helvetica,sans-Serif" font-size="10.00">/ant/AntReader.h</text>
</g>
<!-- Node2 -->
<g id="node3" class="node"><title>Node2</title>
<a xlink:href="_data_reader_8h.html" target="_top" xlink:title="analysis/input/DataReader.h">
<polygon fill="white" stroke="black" points="104.054,-267.5 104.054,-288.5 244.054,-288.5 244.054,-267.5 104.054,-267.5"/>
<text text-anchor="middle" x="174.054" y="-275.5" font-family="Helvetica,sans-Serif" font-size="10.00">analysis/input/DataReader.h</text>
</a>
</g>
<!-- Node1&#45;&gt;Node2 -->
<g id="edge2" class="edge"><title>Node1&#45;&gt;Node2</title>
<path fill="none" stroke="midnightblue" d="M419.463,-338.512C366.865,-325.542 281.485,-304.49 226.565,-290.948"/>
<polygon fill="midnightblue" stroke="midnightblue" points="227.227,-287.506 216.68,-288.511 225.551,-294.303 227.227,-287.506"/>
</g>
<!-- Node3 -->
<g id="node5" class="node"><title>Node3</title>
<polygon fill="white" stroke="#bfbfbf" points="98.054,-58.5 98.054,-79.5 150.054,-79.5 150.054,-58.5 98.054,-58.5"/>
<text text-anchor="middle" x="124.054" y="-66.5" font-family="Helvetica,sans-Serif" font-size="10.00">memory</text>
</g>
<!-- Node1&#45;&gt;Node3 -->
<g id="edge116" class="edge"><title>Node1&#45;&gt;Node3</title>
<path fill="none" stroke="midnightblue" d="M419.48,-346.345C333.269,-339.068 152.38,-321.267 95.054,-296 48.8123,-275.619 28.6942,-269.666 7.05401,-224 0.0148839,-209.146 -4.47007,-134.312 8.05401,-116 25.8925,-89.9178 60.8961,-78.3016 87.8071,-73.1328"/>
<polygon fill="midnightblue" stroke="midnightblue" points="88.4027,-76.5818 97.6721,-71.4508 87.2261,-69.6814 88.4027,-76.5818"/>
</g>
<!-- Node4 -->
<g id="node7" class="node"><title>Node4</title>
<a xlink:href="_unpacker_8h.html" target="_top" xlink:title="unpacker/Unpacker.h">
<polygon fill="white" stroke="black" points="244.054,-123.5 244.054,-144.5 354.054,-144.5 354.054,-123.5 244.054,-123.5"/>
<text text-anchor="middle" x="299.054" y="-131.5" font-family="Helvetica,sans-Serif" font-size="10.00">unpacker/Unpacker.h</text>
</a>
</g>
<!-- Node1&#45;&gt;Node4 -->
<g id="edge6" class="edge"><title>Node1&#45;&gt;Node4</title>
<path fill="none" stroke="midnightblue" d="M452.67,-332.689C421.743,-292.687 345.526,-194.108 313.547,-152.746"/>
<polygon fill="midnightblue" stroke="midnightblue" points="316.312,-150.6 307.427,-144.829 310.774,-154.881 316.312,-150.6"/>
</g>
<!-- Node5 -->
<g id="node9" class="node"><title>Node5</title>
<polygon fill="white" stroke="#bfbfbf" points="1037.55,-58.5 1037.55,-79.5 1078.55,-79.5 1078.55,-58.5 1037.55,-58.5"/>
<text text-anchor="middle" x="1058.05" y="-66.5" font-family="Helvetica,sans-Serif" font-size="10.00">string</text>
</g>
<!-- Node1&#45;&gt;Node5 -->
<g id="edge118" class="edge"><title>Node1&#45;&gt;Node5</title>
<path fill="none" stroke="midnightblue" d="M512.997,-339.924C636.555,-312.488 966.282,-233.062 1039.05,-152 1054.34,-134.977 1058.09,-108.203 1058.66,-89.689"/>
<polygon fill="midnightblue" stroke="midnightblue" points="1062.16,-89.6442 1058.69,-79.6342 1055.16,-89.6241 1062.16,-89.6442"/>
</g>
<!-- Node6 -->
<g id="node12" class="node"><title>Node6</title>
<a xlink:href="_reconstruct__traits_8h.html" target="_top" xlink:title="reconstruct/Reconstruct\l_traits.h">
<polygon fill="white" stroke="black" points="446.054,-261 446.054,-295 568.054,-295 568.054,-261 446.054,-261"/>
<text text-anchor="start" x="454.054" y="-282" font-family="Helvetica,sans-Serif" font-size="10.00">reconstruct/Reconstruct</text>
<text text-anchor="middle" x="507.054" y="-269" font-family="Helvetica,sans-Serif" font-size="10.00">_traits.h</text>
</a>
</g>
<!-- Node1&#45;&gt;Node6 -->
<g id="edge12" class="edge"><title>Node1&#45;&gt;Node6</title>
<path fill="none" stroke="midnightblue" d="M475.77,-332.937C480.652,-324.365 486.673,-313.791 492.125,-304.217"/>
<polygon fill="midnightblue" stroke="midnightblue" points="495.216,-305.862 497.123,-295.441 489.133,-302.399 495.216,-305.862"/>
</g>
<!-- Node24 -->
<g id="node61" class="node"><title>Node24</title>
<a xlink:href="_wrap_t_file_8h.html" target="_top" xlink:title="base/WrapTFile.h">
<polygon fill="white" stroke="black" points="1214.05,-195.5 1214.05,-216.5 1308.05,-216.5 1308.05,-195.5 1214.05,-195.5"/>
<text text-anchor="middle" x="1261.05" y="-203.5" font-family="Helvetica,sans-Serif" font-size="10.00">base/WrapTFile.h</text>
</a>
</g>
<!-- Node1&#45;&gt;Node24 -->
<g id="edge74" class="edge"><title>Node1&#45;&gt;Node24</title>
<path fill="none" stroke="midnightblue" d="M512.569,-347.988C635.466,-342.334 966.595,-324.806 1072.05,-296 1133.84,-279.122 1200.14,-242.824 1235.45,-221.847"/>
<polygon fill="midnightblue" stroke="midnightblue" points="1237.38,-224.769 1244.14,-216.615 1233.77,-218.77 1237.38,-224.769"/>
</g>
<!-- Node2&#45;&gt;Node3 -->
<g id="edge4" class="edge"><title>Node2&#45;&gt;Node3</title>
<path fill="none" stroke="midnightblue" d="M129.398,-267.442C91.0206,-257.358 40.0228,-241.188 28.054,-224 0.624537,-184.609 2.6483,-156.725 28.054,-116 41.1118,-95.0684 66.4976,-83.2017 87.8856,-76.6297"/>
<polygon fill="midnightblue" stroke="midnightblue" points="88.9935,-79.9543 97.6816,-73.8907 87.1085,-73.2128 88.9935,-79.9543"/>
</g>
<!-- Node4&#45;&gt;Node3 -->
<g id="edge10" class="edge"><title>Node4&#45;&gt;Node3</title>
<path fill="none" stroke="midnightblue" d="M270.548,-123.412C240.354,-112.197 192.618,-94.4666 159.896,-82.3128"/>
<polygon fill="midnightblue" stroke="midnightblue" points="160.852,-78.9343 150.259,-78.7334 158.415,-85.4963 160.852,-78.9343"/>
</g>
<!-- Node4&#45;&gt;Node5 -->
<g id="edge8" class="edge"><title>Node4&#45;&gt;Node5</title>
<path fill="none" stroke="midnightblue" d="M331.643,-123.432C341.625,-120.576 352.704,-117.786 363.054,-116 379.663,-113.135 894.62,-79.603 1027.18,-71.0009"/>
<polygon fill="midnightblue" stroke="midnightblue" points="1027.68,-74.4759 1037.43,-70.3358 1027.23,-67.4905 1027.68,-74.4759"/>
</g>
<!-- Node6&#45;&gt;Node3 -->
<g id="edge66" class="edge"><title>Node6&#45;&gt;Node3</title>
<path fill="none" stroke="midnightblue" d="M446,-273.808C339.157,-265.898 127.265,-247.442 103.054,-224 68.3574,-190.405 76.5017,-162.051 91.054,-116 94.3539,-105.557 100.898,-95.4231 107.294,-87.2551"/>
<polygon fill="midnightblue" stroke="midnightblue" points="110.03,-89.4395 113.764,-79.5245 104.662,-84.9468 110.03,-89.4395"/>
</g>
<!-- Node7 -->
<g id="node14" class="node"><title>Node7</title>
<a xlink:href="_detector__t_8h.html" target="_top" xlink:title="base/Detector_t.h">
<polygon fill="white" stroke="black" points="503.554,-195.5 503.554,-216.5 598.554,-216.5 598.554,-195.5 503.554,-195.5"/>
<text text-anchor="middle" x="551.054" y="-203.5" font-family="Helvetica,sans-Serif" font-size="10.00">base/Detector_t.h</text>
</a>
</g>
<!-- Node6&#45;&gt;Node7 -->
<g id="edge14" class="edge"><title>Node6&#45;&gt;Node7</title>
<path fill="none" stroke="midnightblue" d="M517.481,-260.937C523.993,-250.281 532.397,-236.53 539.167,-225.452"/>
<polygon fill="midnightblue" stroke="midnightblue" points="542.164,-227.259 544.392,-216.901 536.191,-223.609 542.164,-227.259"/>
</g>
<!-- Node17 -->
<g id="node38" class="node"><title>Node17</title>
<a xlink:href="mapped__vectors_8h.html" target="_top" xlink:title="base/std_ext/mapped\l_vectors.h">
<polygon fill="white" stroke="black" points="112.054,-189 112.054,-223 222.054,-223 222.054,-189 112.054,-189"/>
<text text-anchor="start" x="120.054" y="-210" font-family="Helvetica,sans-Serif" font-size="10.00">base/std_ext/mapped</text>
<text text-anchor="middle" x="167.054" y="-197" font-family="Helvetica,sans-Serif" font-size="10.00">_vectors.h</text>
</a>
</g>
<!-- Node6&#45;&gt;Node17 -->
<g id="edge42" class="edge"><title>Node6&#45;&gt;Node17</title>
<path fill="none" stroke="midnightblue" d="M445.876,-265.045C385.568,-252.274 293.738,-232.827 232.118,-219.778"/>
<polygon fill="midnightblue" stroke="midnightblue" points="232.627,-216.308 222.119,-217.661 231.177,-223.157 232.627,-216.308"/>
</g>
<!-- Node19 -->
<g id="node43" class="node"><title>Node19</title>
<polygon fill="white" stroke="#bfbfbf" points="443.554,-58.5 443.554,-79.5 472.554,-79.5 472.554,-58.5 443.554,-58.5"/>
<text text-anchor="middle" x="458.054" y="-66.5" font-family="Helvetica,sans-Serif" font-size="10.00">list</text>
</g>
<!-- Node6&#45;&gt;Node19 -->
<g id="edge70" class="edge"><title>Node6&#45;&gt;Node19</title>
<path fill="none" stroke="midnightblue" d="M503.044,-260.897C494.106,-222.772 472.576,-130.941 462.903,-89.6829"/>
<polygon fill="midnightblue" stroke="midnightblue" points="466.302,-88.8453 460.611,-79.9082 459.487,-90.4432 466.302,-88.8453"/>
</g>
<!-- Node20 -->
<g id="node48" class="node"><title>Node20</title>
<a xlink:href="shared__ptr__container_8h.html" target="_top" xlink:title="base/std_ext/shared\l_ptr_container.h">
<polygon fill="white" stroke="black" points="925.554,-117 925.554,-151 1030.55,-151 1030.55,-117 925.554,-117"/>
<text text-anchor="start" x="933.554" y="-138" font-family="Helvetica,sans-Serif" font-size="10.00">base/std_ext/shared</text>
<text text-anchor="middle" x="978.054" y="-125" font-family="Helvetica,sans-Serif" font-size="10.00">_ptr_container.h</text>
</a>
</g>
<!-- Node6&#45;&gt;Node20 -->
<g id="edge56" class="edge"><title>Node6&#45;&gt;Node20</title>
<path fill="none" stroke="midnightblue" d="M544.066,-260.945C563.545,-251.256 587.398,-238.234 607.054,-224 625.897,-210.355 624.067,-198.04 645.054,-188 753.071,-136.327 794.704,-175.805 912.054,-152 913.131,-151.782 914.216,-151.555 915.307,-151.322"/>
<polygon fill="midnightblue" stroke="midnightblue" points="916.272,-154.693 925.247,-149.063 914.72,-147.867 916.272,-154.693"/>
</g>
<!-- Node21 -->
<g id="node52" class="node"><title>Node21</title>
<polygon fill="white" stroke="#bfbfbf" points="1119.55,-58.5 1119.55,-79.5 1178.55,-79.5 1178.55,-58.5 1119.55,-58.5"/>
<text text-anchor="middle" x="1149.05" y="-66.5" font-family="Helvetica,sans-Serif" font-size="10.00">functional</text>
</g>
<!-- Node6&#45;&gt;Node21 -->
<g id="edge72" class="edge"><title>Node6&#45;&gt;Node21</title>
<path fill="none" stroke="midnightblue" d="M568.384,-271.787C670.282,-259.68 879.072,-227.215 1039.05,-152 1074.8,-135.196 1110.18,-105.549 1130.81,-86.6109"/>
<polygon fill="midnightblue" stroke="midnightblue" points="1133.3,-89.077 1138.21,-79.6904 1128.52,-83.9643 1133.3,-89.077"/>
</g>
<!-- Node23 -->
<g id="node57" class="node"><title>Node23</title>
<polygon fill="white" stroke="#bfbfbf" points="653.554,-195.5 653.554,-216.5 688.554,-216.5 688.554,-195.5 653.554,-195.5"/>
<text text-anchor="middle" x="671.054" y="-203.5" font-family="Helvetica,sans-Serif" font-size="10.00">map</text>
</g>
<!-- Node6&#45;&gt;Node23 -->
<g id="edge68" class="edge"><title>Node6&#45;&gt;Node23</title>
<path fill="none" stroke="midnightblue" d="M553.61,-260.943C579.46,-251.016 611.972,-237.769 640.054,-224 641.629,-223.228 643.233,-222.407 644.841,-221.559"/>
<polygon fill="midnightblue" stroke="midnightblue" points="646.861,-224.44 653.909,-216.529 643.466,-218.319 646.861,-224.44"/>
</g>
<!-- Node7&#45;&gt;Node5 -->
<g id="edge36" class="edge"><title>Node7&#45;&gt;Node5</title>
<path fill="none" stroke="midnightblue" d="M578.273,-195.41C586.17,-192.658 594.871,-189.929 603.054,-188 723.46,-159.62 767.345,-205.143 879.054,-152 900.062,-142.006 897.101,-127.962 917.054,-116 952.094,-94.9928 997.727,-81.9923 1027.45,-75.1301"/>
<polygon fill="midnightblue" stroke="midnightblue" points="1028.24,-78.5379 1037.25,-72.9559 1026.73,-71.7039 1028.24,-78.5379"/>
</g>
<!-- Node8 -->
<g id="node16" class="node"><title>Node8</title>
<a xlink:href="printable_8h.html" target="_top" xlink:title="base/printable.h">
<polygon fill="white" stroke="black" points="623.054,-58.5 623.054,-79.5 709.054,-79.5 709.054,-58.5 623.054,-58.5"/>
<text text-anchor="middle" x="666.054" y="-66.5" font-family="Helvetica,sans-Serif" font-size="10.00">base/printable.h</text>
</a>
</g>
<!-- Node7&#45;&gt;Node8 -->
<g id="edge16" class="edge"><title>Node7&#45;&gt;Node8</title>
<path fill="none" stroke="midnightblue" d="M558.697,-195.467C571.221,-178.374 597.118,-143.715 621.054,-116 629.647,-106.05 639.727,-95.4341 648.166,-86.8134"/>
<polygon fill="midnightblue" stroke="midnightblue" points="650.822,-89.1051 655.365,-79.5338 645.844,-84.1829 650.822,-89.1051"/>
</g>
<!-- Node9 -->
<g id="node18" class="node"><title>Node9</title>
<polygon fill="white" stroke="#bfbfbf" points="677.054,-0.5 677.054,-21.5 721.054,-21.5 721.054,-0.5 677.054,-0.5"/>
<text text-anchor="middle" x="699.054" y="-8.5" font-family="Helvetica,sans-Serif" font-size="10.00">vector</text>
</g>
<!-- Node7&#45;&gt;Node9 -->
<g id="edge40" class="edge"><title>Node7&#45;&gt;Node9</title>
<path fill="none" stroke="midnightblue" d="M541.571,-195.246C527.438,-177.842 504.041,-142.755 519.054,-116 535.285,-87.0732 620.614,-45.7149 667.727,-24.575"/>
<polygon fill="midnightblue" stroke="midnightblue" points="669.169,-27.7645 676.885,-20.5044 666.325,-21.3679 669.169,-27.7645"/>
</g>
<!-- Node11 -->
<g id="node22" class="node"><title>Node11</title>
<a xlink:href="vec3_8h.html" target="_top" xlink:title="base/vec/vec3.h">
<polygon fill="white" stroke="black" points="781.554,-123.5 781.554,-144.5 870.554,-144.5 870.554,-123.5 781.554,-123.5"/>
<text text-anchor="middle" x="826.054" y="-131.5" font-family="Helvetica,sans-Serif" font-size="10.00">base/vec/vec3.h</text>
</a>
</g>
<!-- Node7&#45;&gt;Node11 -->
<g id="edge22" class="edge"><title>Node7&#45;&gt;Node11</title>
<path fill="none" stroke="midnightblue" d="M585.825,-195.48C594.382,-192.963 603.534,-190.331 612.054,-188 666.401,-173.131 728.92,-157.527 772.292,-146.938"/>
<polygon fill="midnightblue" stroke="midnightblue" points="773.178,-150.325 782.066,-144.558 771.522,-143.524 773.178,-150.325"/>
</g>
<!-- Node14 -->
<g id="node30" class="node"><title>Node14</title>
<polygon fill="white" stroke="#bfbfbf" points="528.054,-123.5 528.054,-144.5 574.054,-144.5 574.054,-123.5 528.054,-123.5"/>
<text text-anchor="middle" x="551.054" y="-131.5" font-family="Helvetica,sans-Serif" font-size="10.00">cstdint</text>
</g>
<!-- Node7&#45;&gt;Node14 -->
<g id="edge32" class="edge"><title>Node7&#45;&gt;Node14</title>
<path fill="none" stroke="midnightblue" d="M551.054,-195.376C551.054,-184.741 551.054,-168.095 551.054,-154.82"/>
<polygon fill="midnightblue" stroke="midnightblue" points="554.554,-154.667 551.054,-144.667 547.554,-154.667 554.554,-154.667"/>
</g>
<!-- Node15 -->
<g id="node32" class="node"><title>Node15</title>
<polygon fill="white" stroke="#bfbfbf" points="629.554,-123.5 629.554,-144.5 688.554,-144.5 688.554,-123.5 629.554,-123.5"/>
<text text-anchor="middle" x="659.054" y="-131.5" font-family="Helvetica,sans-Serif" font-size="10.00">stdexcept</text>
</g>
<!-- Node7&#45;&gt;Node15 -->
<g id="edge34" class="edge"><title>Node7&#45;&gt;Node15</title>
<path fill="none" stroke="midnightblue" d="M566.99,-195.376C584.777,-183.518 613.774,-164.186 634.473,-150.388"/>
<polygon fill="midnightblue" stroke="midnightblue" points="636.674,-153.127 643.053,-144.667 632.791,-147.302 636.674,-153.127"/>
</g>
<!-- Node16 -->
<g id="node35" class="node"><title>Node16</title>
<polygon fill="white" stroke="#bfbfbf" points="372.054,-123.5 372.054,-144.5 434.054,-144.5 434.054,-123.5 372.054,-123.5"/>
<text text-anchor="middle" x="403.054" y="-131.5" font-family="Helvetica,sans-Serif" font-size="10.00">type_traits</text>
</g>
<!-- Node7&#45;&gt;Node16 -->
<g id="edge38" class="edge"><title>Node7&#45;&gt;Node16</title>
<path fill="none" stroke="midnightblue" d="M529.216,-195.376C504.076,-183.146 462.594,-162.965 434.103,-149.105"/>
<polygon fill="midnightblue" stroke="midnightblue" points="435.505,-145.895 424.982,-144.667 432.443,-152.189 435.505,-145.895"/>
</g>
<!-- Node8&#45;&gt;Node9 -->
<g id="edge18" class="edge"><title>Node8&#45;&gt;Node9</title>
<path fill="none" stroke="midnightblue" d="M672.107,-58.3619C676.526,-50.5949 682.644,-39.8426 687.933,-30.5458"/>
<polygon fill="midnightblue" stroke="midnightblue" points="691.136,-31.9932 693.04,-21.5707 685.052,-28.5315 691.136,-31.9932"/>
</g>
<!-- Node10 -->
<g id="node20" class="node"><title>Node10</title>
<polygon fill="white" stroke="#bfbfbf" points="607.054,-0.5 607.054,-21.5 659.054,-21.5 659.054,-0.5 607.054,-0.5"/>
<text text-anchor="middle" x="633.054" y="-8.5" font-family="Helvetica,sans-Serif" font-size="10.00">ostream</text>
</g>
<!-- Node8&#45;&gt;Node10 -->
<g id="edge20" class="edge"><title>Node8&#45;&gt;Node10</title>
<path fill="none" stroke="midnightblue" d="M660.001,-58.3619C655.582,-50.5949 649.464,-39.8426 644.175,-30.5458"/>
<polygon fill="midnightblue" stroke="midnightblue" points="647.056,-28.5315 639.068,-21.5707 640.972,-31.9932 647.056,-28.5315"/>
</g>
<!-- Node11&#45;&gt;Node8 -->
<g id="edge24" class="edge"><title>Node11&#45;&gt;Node8</title>
<path fill="none" stroke="midnightblue" d="M799.991,-123.412C773.26,-112.552 731.49,-95.5833 701.707,-83.4842"/>
<polygon fill="midnightblue" stroke="midnightblue" points="702.688,-80.1047 692.106,-79.5835 700.053,-86.59 702.688,-80.1047"/>
</g>
<!-- Node12 -->
<g id="node25" class="node"><title>Node12</title>
<a xlink:href="vec2_8h.html" target="_top" xlink:title="vec2.h">
<polygon fill="white" stroke="black" points="828.054,-58.5 828.054,-79.5 874.054,-79.5 874.054,-58.5 828.054,-58.5"/>
<text text-anchor="middle" x="851.054" y="-66.5" font-family="Helvetica,sans-Serif" font-size="10.00">vec2.h</text>
</a>
</g>
<!-- Node11&#45;&gt;Node12 -->
<g id="edge26" class="edge"><title>Node11&#45;&gt;Node12</title>
<path fill="none" stroke="midnightblue" d="M830.182,-123.267C833.75,-113.991 839.002,-100.336 843.344,-89.0453"/>
<polygon fill="midnightblue" stroke="midnightblue" points="846.679,-90.1236 847.003,-79.5337 840.146,-87.6107 846.679,-90.1236"/>
</g>
<!-- Node13 -->
<g id="node27" class="node"><title>Node13</title>
<polygon fill="white" stroke="#bfbfbf" points="803.054,-0.5 803.054,-21.5 847.054,-21.5 847.054,-0.5 803.054,-0.5"/>
<text text-anchor="middle" x="825.054" y="-8.5" font-family="Helvetica,sans-Serif" font-size="10.00">cmath</text>
</g>
<!-- Node11&#45;&gt;Node13 -->
<g id="edge30" class="edge"><title>Node11&#45;&gt;Node13</title>
<path fill="none" stroke="midnightblue" d="M823.997,-123.191C821.438,-108.468 817.574,-81.2735 819.054,-58 819.599,-49.4212 820.699,-40.0146 821.81,-31.8855"/>
<polygon fill="midnightblue" stroke="midnightblue" points="825.303,-32.19 823.281,-21.7899 818.376,-31.181 825.303,-32.19"/>
</g>
<!-- Node12&#45;&gt;Node13 -->
<g id="edge28" class="edge"><title>Node12&#45;&gt;Node13</title>
<path fill="none" stroke="midnightblue" d="M846.285,-58.3619C842.84,-50.6766 838.085,-40.0686 833.948,-30.8399"/>
<polygon fill="midnightblue" stroke="midnightblue" points="837.077,-29.264 829.793,-21.5707 830.689,-32.1275 837.077,-29.264"/>
</g>
<!-- Node17&#45;&gt;Node3 -->
<g id="edge52" class="edge"><title>Node17&#45;&gt;Node3</title>
<path fill="none" stroke="midnightblue" d="M134.396,-188.873C120.828,-179.877 106.527,-167.476 99.054,-152 89.0056,-131.189 100.008,-105.48 110.422,-88.2369"/>
<polygon fill="midnightblue" stroke="midnightblue" points="113.509,-89.909 116.01,-79.6135 107.634,-86.1025 113.509,-89.909"/>
</g>
<!-- Node17&#45;&gt;Node9 -->
<g id="edge50" class="edge"><title>Node17&#45;&gt;Node9</title>
<path fill="none" stroke="midnightblue" d="M129.672,-188.906C114.928,-180.106 99.5159,-167.849 91.054,-152 71.3729,-115.138 60.4375,-88.4511 89.054,-58 131.514,-12.8176 569.591,-33.1871 666.993,-21.2645"/>
<polygon fill="midnightblue" stroke="midnightblue" points="667.586,-24.7142 676.914,-19.6904 666.489,-17.8007 667.586,-24.7142"/>
</g>
<!-- Node17&#45;&gt;Node16 -->
<g id="edge54" class="edge"><title>Node17&#45;&gt;Node16</title>
<path fill="none" stroke="midnightblue" d="M222.254,-193.208C261.918,-183.435 316.4,-168.811 363.054,-152 365.969,-150.95 368.968,-149.778 371.95,-148.551"/>
<polygon fill="midnightblue" stroke="midnightblue" points="373.5,-151.695 381.298,-144.521 370.729,-145.267 373.5,-151.695"/>
</g>
<!-- Node18 -->
<g id="node40" class="node"><title>Node18</title>
<a xlink:href="memory_8h.html" target="_top" xlink:title="base/std_ext/memory.h">
<polygon fill="white" stroke="black" points="107.554,-123.5 107.554,-144.5 226.554,-144.5 226.554,-123.5 107.554,-123.5"/>
<text text-anchor="middle" x="167.054" y="-131.5" font-family="Helvetica,sans-Serif" font-size="10.00">base/std_ext/memory.h</text>
</a>
</g>
<!-- Node17&#45;&gt;Node18 -->
<g id="edge44" class="edge"><title>Node17&#45;&gt;Node18</title>
<path fill="none" stroke="midnightblue" d="M167.054,-188.937C167.054,-178.814 167.054,-165.898 167.054,-155.133"/>
<polygon fill="midnightblue" stroke="midnightblue" points="170.554,-154.901 167.054,-144.901 163.554,-154.901 170.554,-154.901"/>
</g>
<!-- Node18&#45;&gt;Node3 -->
<g id="edge46" class="edge"><title>Node18&#45;&gt;Node3</title>
<path fill="none" stroke="midnightblue" d="M159.953,-123.267C153.629,-113.707 144.229,-99.4964 136.633,-88.0152"/>
<polygon fill="midnightblue" stroke="midnightblue" points="139.459,-85.9428 131.022,-79.5337 133.621,-89.805 139.459,-85.9428"/>
</g>
<!-- Node18&#45;&gt;Node19 -->
<g id="edge48" class="edge"><title>Node18&#45;&gt;Node19</title>
<path fill="none" stroke="midnightblue" d="M205.447,-123.471C215.089,-120.928 225.43,-118.286 235.054,-116 306.787,-98.9582 392.249,-81.8228 433.443,-73.7599"/>
<polygon fill="midnightblue" stroke="midnightblue" points="434.239,-77.1707 443.385,-71.8223 432.9,-70.3 434.239,-77.1707"/>
</g>
<!-- Node20&#45;&gt;Node3 -->
<g id="edge60" class="edge"><title>Node20&#45;&gt;Node3</title>
<path fill="none" stroke="midnightblue" d="M925.309,-123.222C910.408,-120.501 894.141,-117.835 879.054,-116 604.007,-82.5525 269.528,-72.3133 160.379,-69.7463"/>
<polygon fill="midnightblue" stroke="midnightblue" points="160.313,-66.2439 150.235,-69.5148 160.153,-73.2421 160.313,-66.2439"/>
</g>
<!-- Node20&#45;&gt;Node9 -->
<g id="edge58" class="edge"><title>Node20&#45;&gt;Node9</title>
<path fill="none" stroke="midnightblue" d="M961.421,-116.959C943.586,-99.6441 913.677,-73.2644 883.054,-58 833.156,-33.128 768.894,-20.6071 731.016,-14.9725"/>
<polygon fill="midnightblue" stroke="midnightblue" points="731.459,-11.5003 721.066,-13.5613 730.476,-18.4309 731.459,-11.5003"/>
</g>
<!-- Node20&#45;&gt;Node21 -->
<g id="edge62" class="edge"><title>Node20&#45;&gt;Node21</title>
<path fill="none" stroke="midnightblue" d="M1022.98,-116.922C1050.62,-106.416 1085.62,-93.1105 1111.73,-83.1868"/>
<polygon fill="midnightblue" stroke="midnightblue" points="1113.16,-86.3868 1121.27,-79.562 1110.68,-79.8436 1113.16,-86.3868"/>
</g>
<!-- Node22 -->
<g id="node54" class="node"><title>Node22</title>
<polygon fill="white" stroke="#bfbfbf" points="1474.05,-58.5 1474.05,-79.5 1530.05,-79.5 1530.05,-58.5 1474.05,-58.5"/>
<text text-anchor="middle" x="1502.05" y="-66.5" font-family="Helvetica,sans-Serif" font-size="10.00">algorithm</text>
</g>
<!-- Node20&#45;&gt;Node22 -->
<g id="edge64" class="edge"><title>Node20&#45;&gt;Node22</title>
<path fill="none" stroke="midnightblue" d="M1030.65,-129.366C1135.11,-119.972 1366.4,-98.1802 1464.05,-79.8642"/>
<polygon fill="midnightblue" stroke="midnightblue" points="1464.76,-83.2911 1473.9,-77.9334 1463.42,-76.4217 1464.76,-83.2911"/>
</g>
<!-- Node24&#45;&gt;Node3 -->
<g id="edge106" class="edge"><title>Node24&#45;&gt;Node3</title>
<path fill="none" stroke="midnightblue" d="M1213.85,-205.454C1100.16,-203.467 814.323,-194.288 730.054,-152 710.654,-142.265 716.548,-125.545 697.054,-116 648.923,-92.4318 278.263,-75.3287 160.113,-70.4308"/>
<polygon fill="midnightblue" stroke="midnightblue" points="160.256,-66.9338 150.121,-70.0208 159.969,-73.9279 160.256,-66.9338"/>
</g>
<!-- Node24&#45;&gt;Node5 -->
<g id="edge108" class="edge"><title>Node24&#45;&gt;Node5</title>
<path fill="none" stroke="midnightblue" d="M1240.31,-195.469C1220.51,-185.153 1190.07,-168.605 1165.05,-152 1133.55,-131.086 1099.4,-103.688 1078.36,-86.21"/>
<polygon fill="midnightblue" stroke="midnightblue" points="1080.37,-83.3262 1070.45,-79.5933 1075.87,-88.6948 1080.37,-83.3262"/>
</g>
<!-- Node24&#45;&gt;Node15 -->
<g id="edge112" class="edge"><title>Node24&#45;&gt;Node15</title>
<path fill="none" stroke="midnightblue" d="M1214.03,-203.275C1097.67,-196.241 798.738,-176.314 702.054,-152 698.191,-151.029 694.224,-149.765 690.336,-148.358"/>
<polygon fill="midnightblue" stroke="midnightblue" points="691.523,-145.064 680.937,-144.649 688.954,-151.576 691.523,-145.064"/>
</g>
<!-- Node24&#45;&gt;Node19 -->
<g id="edge110" class="edge"><title>Node24&#45;&gt;Node19</title>
<path fill="none" stroke="midnightblue" d="M1213.67,-204.235C1107.11,-199.711 851.738,-185.603 773.054,-152 750.132,-142.211 752.667,-126.482 730.054,-116 686.043,-95.5988 541.531,-78.071 483.001,-71.631"/>
<polygon fill="midnightblue" stroke="midnightblue" points="483.124,-68.124 472.806,-70.5262 482.37,-75.0833 483.124,-68.124"/>
</g>
<!-- Node24&#45;&gt;Node21 -->
<g id="edge114" class="edge"><title>Node24&#45;&gt;Node21</title>
<path fill="none" stroke="midnightblue" d="M1243.14,-195.405C1227.81,-185.643 1205.92,-169.977 1191.05,-152 1175.22,-132.859 1163.25,-106.757 1156.22,-88.9674"/>
<polygon fill="midnightblue" stroke="midnightblue" points="1159.47,-87.6799 1152.66,-79.5696 1152.93,-90.161 1159.47,-87.6799"/>
</g>
<!-- Node25 -->
<g id="node63" class="node"><title>Node25</title>
<a xlink:href="string_8h.html" target="_top" xlink:title="base/std_ext/string.h">
<polygon fill="white" stroke="black" points="1422.05,-123.5 1422.05,-144.5 1530.05,-144.5 1530.05,-123.5 1422.05,-123.5"/>
<text text-anchor="middle" x="1476.05" y="-131.5" font-family="Helvetica,sans-Serif" font-size="10.00">base/std_ext/string.h</text>
</a>
</g>
<!-- Node24&#45;&gt;Node25 -->
<g id="edge76" class="edge"><title>Node24&#45;&gt;Node25</title>
<path fill="none" stroke="midnightblue" d="M1292.78,-195.376C1330.52,-182.737 1393.61,-161.609 1435.03,-147.738"/>
<polygon fill="midnightblue" stroke="midnightblue" points="1436.18,-151.045 1444.55,-144.55 1433.96,-144.407 1436.18,-151.045"/>
</g>
<!-- Node27 -->
<g id="node70" class="node"><title>Node27</title>
<a xlink:href="misc_8h.html" target="_top" xlink:title="base/std_ext/misc.h">
<polygon fill="white" stroke="black" points="1547.55,-123.5 1547.55,-144.5 1652.55,-144.5 1652.55,-123.5 1547.55,-123.5"/>
<text text-anchor="middle" x="1600.05" y="-131.5" font-family="Helvetica,sans-Serif" font-size="10.00">base/std_ext/misc.h</text>
</a>
</g>
<!-- Node24&#45;&gt;Node27 -->
<g id="edge86" class="edge"><title>Node24&#45;&gt;Node27</title>
<path fill="none" stroke="midnightblue" d="M1308.08,-198.272C1363.6,-188.823 1458.57,-171.644 1539.05,-152 1544.76,-150.608 1550.72,-149.018 1556.6,-147.371"/>
<polygon fill="midnightblue" stroke="midnightblue" points="1557.69,-150.7 1566.33,-144.573 1555.75,-143.972 1557.69,-150.7"/>
</g>
<!-- Node29 -->
<g id="node76" class="node"><title>Node29</title>
<polygon fill="white" stroke="#bfbfbf" points="1199.55,-123.5 1199.55,-144.5 1246.55,-144.5 1246.55,-123.5 1199.55,-123.5"/>
<text text-anchor="middle" x="1223.05" y="-131.5" font-family="Helvetica,sans-Serif" font-size="10.00">TFile.h</text>
</g>
<!-- Node24&#45;&gt;Node29 -->
<g id="edge94" class="edge"><title>Node24&#45;&gt;Node29</title>
<path fill="none" stroke="midnightblue" d="M1255.45,-195.376C1249.67,-184.422 1240.52,-167.09 1233.42,-153.634"/>
<polygon fill="midnightblue" stroke="midnightblue" points="1236.45,-151.878 1228.68,-144.667 1230.26,-155.145 1236.45,-151.878"/>
</g>
<!-- Node30 -->
<g id="node78" class="node"><title>Node30</title>
<polygon fill="white" stroke="#bfbfbf" points="1263.55,-123.5 1263.55,-144.5 1334.55,-144.5 1334.55,-123.5 1263.55,-123.5"/>
<text text-anchor="middle" x="1299.05" y="-131.5" font-family="Helvetica,sans-Serif" font-size="10.00">TDirectory.h</text>
</g>
<!-- Node24&#45;&gt;Node30 -->
<g id="edge96" class="edge"><title>Node24&#45;&gt;Node30</title>
<path fill="none" stroke="midnightblue" d="M1266.66,-195.376C1272.44,-184.422 1281.59,-167.09 1288.69,-153.634"/>
<polygon fill="midnightblue" stroke="midnightblue" points="1291.85,-155.145 1293.42,-144.667 1285.66,-151.878 1291.85,-155.145"/>
</g>
<!-- Node31 -->
<g id="node80" class="node"><title>Node31</title>
<polygon fill="white" stroke="#bfbfbf" points="1352.05,-123.5 1352.05,-144.5 1404.05,-144.5 1404.05,-123.5 1352.05,-123.5"/>
<text text-anchor="middle" x="1378.05" y="-131.5" font-family="Helvetica,sans-Serif" font-size="10.00">TError.h</text>
</g>
<!-- Node24&#45;&gt;Node31 -->
<g id="edge98" class="edge"><title>Node24&#45;&gt;Node31</title>
<path fill="none" stroke="midnightblue" d="M1278.32,-195.376C1297.76,-183.412 1329.57,-163.839 1352.03,-150.018"/>
<polygon fill="midnightblue" stroke="midnightblue" points="1354.04,-152.889 1360.72,-144.667 1350.37,-146.928 1354.04,-152.889"/>
</g>
<!-- Node32 -->
<g id="node82" class="node"><title>Node32</title>
<polygon fill="white" stroke="#bfbfbf" points="1669.55,-123.5 1669.55,-144.5 1716.55,-144.5 1716.55,-123.5 1669.55,-123.5"/>
<text text-anchor="middle" x="1693.05" y="-131.5" font-family="Helvetica,sans-Serif" font-size="10.00">TList.h</text>
</g>
<!-- Node24&#45;&gt;Node32 -->
<g id="edge100" class="edge"><title>Node24&#45;&gt;Node32</title>
<path fill="none" stroke="midnightblue" d="M1308.38,-201.864C1399.62,-193.522 1596.52,-173.622 1661.05,-152 1663.35,-151.231 1665.67,-150.294 1667.95,-149.256"/>
<polygon fill="midnightblue" stroke="midnightblue" points="1669.72,-152.284 1677,-144.591 1666.51,-146.063 1669.72,-152.284"/>
</g>
<!-- Node33 -->
<g id="node84" class="node"><title>Node33</title>
<polygon fill="white" stroke="#bfbfbf" points="1734.05,-123.5 1734.05,-144.5 1808.05,-144.5 1808.05,-123.5 1734.05,-123.5"/>
<text text-anchor="middle" x="1771.05" y="-131.5" font-family="Helvetica,sans-Serif" font-size="10.00">TCollection.h</text>
</g>
<!-- Node24&#45;&gt;Node33 -->
<g id="edge102" class="edge"><title>Node24&#45;&gt;Node33</title>
<path fill="none" stroke="midnightblue" d="M1308.2,-204.504C1392.85,-200.942 1575.74,-189.24 1725.05,-152 1729.27,-150.949 1733.61,-149.61 1737.87,-148.138"/>
<polygon fill="midnightblue" stroke="midnightblue" points="1739.41,-151.302 1747.56,-144.534 1736.97,-144.741 1739.41,-151.302"/>
</g>
<!-- Node34 -->
<g id="node86" class="node"><title>Node34</title>
<polygon fill="white" stroke="#bfbfbf" points="1826.05,-123.5 1826.05,-144.5 1874.05,-144.5 1874.05,-123.5 1826.05,-123.5"/>
<text text-anchor="middle" x="1850.05" y="-131.5" font-family="Helvetica,sans-Serif" font-size="10.00">TKey.h</text>
</g>
<!-- Node24&#45;&gt;Node34 -->
<g id="edge104" class="edge"><title>Node24&#45;&gt;Node34</title>
<path fill="none" stroke="midnightblue" d="M1308.42,-203.838C1424.85,-198.135 1722.38,-181.088 1817.05,-152 1819.65,-151.201 1822.28,-150.185 1824.86,-149.044"/>
<polygon fill="midnightblue" stroke="midnightblue" points="1826.48,-152.146 1833.84,-144.526 1823.34,-145.893 1826.48,-152.146"/>
</g>
<!-- Node25&#45;&gt;Node5 -->
<g id="edge78" class="edge"><title>Node25&#45;&gt;Node5</title>
<path fill="none" stroke="midnightblue" d="M1442.95,-123.469C1433.38,-120.717 1422.87,-117.974 1413.05,-116 1280.54,-89.3478 1244.46,-101.755 1111.05,-80 1103.74,-78.8075 1095.91,-77.3062 1088.56,-75.7994"/>
<polygon fill="midnightblue" stroke="midnightblue" points="1089.12,-72.3407 1078.62,-73.6971 1087.68,-79.1894 1089.12,-72.3407"/>
</g>
<!-- Node25&#45;&gt;Node9 -->
<g id="edge84" class="edge"><title>Node25&#45;&gt;Node9</title>
<path fill="none" stroke="midnightblue" d="M1443.52,-123.48C1390.44,-106.764 1281.63,-74.3589 1187.05,-58 1014.22,-28.1042 968.517,-40.0885 794.054,-22 773.208,-19.8387 749.823,-17.1344 731.47,-14.9481"/>
<polygon fill="midnightblue" stroke="midnightblue" points="731.649,-11.4445 721.304,-13.7287 730.816,-18.3947 731.649,-11.4445"/>
</g>
<!-- Node25&#45;&gt;Node22 -->
<g id="edge82" class="edge"><title>Node25&#45;&gt;Node22</title>
<path fill="none" stroke="midnightblue" d="M1480.35,-123.267C1484.06,-113.991 1489.52,-100.336 1494.04,-89.0453"/>
<polygon fill="midnightblue" stroke="midnightblue" points="1497.38,-90.1184 1497.84,-79.5337 1490.88,-87.5186 1497.38,-90.1184"/>
</g>
<!-- Node26 -->
<g id="node66" class="node"><title>Node26</title>
<polygon fill="white" stroke="#bfbfbf" points="1404.05,-58.5 1404.05,-79.5 1456.05,-79.5 1456.05,-58.5 1404.05,-58.5"/>
<text text-anchor="middle" x="1430.05" y="-66.5" font-family="Helvetica,sans-Serif" font-size="10.00">sstream</text>
</g>
<!-- Node25&#45;&gt;Node26 -->
<g id="edge80" class="edge"><title>Node25&#45;&gt;Node26</title>
<path fill="none" stroke="midnightblue" d="M1468.46,-123.267C1461.69,-113.707 1451.64,-99.4964 1443.51,-88.0152"/>
<polygon fill="midnightblue" stroke="midnightblue" points="1446.14,-85.6746 1437.51,-79.5337 1440.43,-89.7183 1446.14,-85.6746"/>
</g>
<!-- Node27&#45;&gt;Node21 -->
<g id="edge90" class="edge"><title>Node27&#45;&gt;Node21</title>
<path fill="none" stroke="midnightblue" d="M1568.02,-123.455C1558.75,-120.704 1548.57,-117.963 1539.05,-116 1412.63,-89.9196 1259.95,-76.7116 1188.95,-71.5987"/>
<polygon fill="midnightblue" stroke="midnightblue" points="1188.9,-68.0864 1178.68,-70.8746 1188.41,-75.0691 1188.9,-68.0864"/>
</g>
<!-- Node27&#45;&gt;Node22 -->
<g id="edge88" class="edge"><title>Node27&#45;&gt;Node22</title>
<path fill="none" stroke="midnightblue" d="M1583.87,-123.267C1568.32,-112.949 1544.6,-97.216 1526.69,-85.3421"/>
<polygon fill="midnightblue" stroke="midnightblue" points="1528.2,-82.1444 1517.94,-79.5337 1524.33,-87.9779 1528.2,-82.1444"/>
</g>
<!-- Node28 -->
<g id="node74" class="node"><title>Node28</title>
<polygon fill="white" stroke="#bfbfbf" points="1573.55,-58.5 1573.55,-79.5 1626.55,-79.5 1626.55,-58.5 1573.55,-58.5"/>
<text text-anchor="middle" x="1600.05" y="-66.5" font-family="Helvetica,sans-Serif" font-size="10.00">cxxabi.h</text>
</g>
<!-- Node27&#45;&gt;Node28 -->
<g id="edge92" class="edge"><title>Node27&#45;&gt;Node28</title>
<path fill="none" stroke="midnightblue" d="M1600.05,-123.267C1600.05,-114.18 1600.05,-100.892 1600.05,-89.7395"/>
<polygon fill="midnightblue" stroke="midnightblue" points="1603.55,-89.5337 1600.05,-79.5337 1596.55,-89.5337 1603.55,-89.5337"/>
</g>
</g>
</svg>
