<?xml version="1.0" encoding="UTF-8" standalone="no"?>
<!DOCTYPE svg PUBLIC "-//W3C//DTD SVG 1.1//EN"
 "http://www.w3.org/Graphics/SVG/1.1/DTD/svg11.dtd">
<!-- Generated by graphviz version 2.26.3 (20100126.1600)
 -->
<!-- Title: src/analysis/input/ant/AntReader.h Pages: 1 -->
<svg width="680pt" height="116pt"
 viewBox="0.00 0.00 680.00 116.00" xmlns="http://www.w3.org/2000/svg" xmlns:xlink="http://www.w3.org/1999/xlink">
<g id="graph1" class="graph" transform="scale(1 1) rotate(0) translate(4 112)">
<title>src/analysis/input/ant/AntReader.h</title>
<polygon fill="white" stroke="white" points="-4,5 -4,-112 677,-112 677,5 -4,5"/>
<!-- Node1 -->
<g id="node1" class="node"><title>Node1</title>
<polygon fill="#bfbfbf" stroke="black" points="234.5,-73 234.5,-107 327.5,-107 327.5,-73 234.5,-73"/>
<text text-anchor="start" x="242.5" y="-94" font-family="Helvetica,sans-Serif" font-size="10.00">src/analysis/input</text>
<text text-anchor="middle" x="281" y="-81" font-family="Helvetica,sans-Serif" font-size="10.00">/ant/AntReader.h</text>
</g>
<!-- Node2 -->
<g id="node3" class="node"><title>Node2</title>
<a xlink:href="_ant_8cc.html" target="_top" xlink:title="Main Ant executable. ">
<polygon fill="white" stroke="black" points="0,-7.5 0,-28.5 72,-28.5 72,-7.5 0,-7.5"/>
<text text-anchor="middle" x="36" y="-15.5" font-family="Helvetica,sans-Serif" font-size="10.00">progs/Ant.cc</text>
</a>
</g>
<!-- Node1&#45;&gt;Node2 -->
<g id="edge2" class="edge"><title>Node1&#45;&gt;Node2</title>
<path fill="none" stroke="midnightblue" d="M224.549,-76.6309C184.198,-66.6215 128.805,-51.954 81,-36 74.4551,-33.8158 67.486,-31.184 61.036,-28.6155"/>
<polygon fill="midnightblue" stroke="midnightblue" points="223.923,-80.0813 234.47,-79.0733 225.597,-73.2842 223.923,-80.0813"/>
</g>
<!-- Node3 -->
<g id="node5" class="node"><title>Node3</title>
<a xlink:href="_ant_reader_8cc.html" target="_top" xlink:title="src/analysis/input\l/ant/AntReader.cc">
<polygon fill="white" stroke="black" points="90,-1 90,-35 186,-35 186,-1 90,-1"/>
<text text-anchor="start" x="98" y="-22" font-family="Helvetica,sans-Serif" font-size="10.00">src/analysis/input</text>
<text text-anchor="middle" x="138" y="-9" font-family="Helvetica,sans-Serif" font-size="10.00">/ant/AntReader.cc</text>
</a>
</g>
<!-- Node1&#45;&gt;Node3 -->
<g id="edge4" class="edge"><title>Node1&#45;&gt;Node3</title>
<path fill="none" stroke="midnightblue" d="M238.039,-68.3694C216.951,-57.7514 191.9,-45.1383 172.141,-35.19"/>
<polygon fill="midnightblue" stroke="midnightblue" points="236.605,-71.566 247.111,-72.937 239.753,-65.3137 236.605,-71.566"/>
</g>
<!-- Node4 -->
<g id="node7" class="node"><title>Node4</title>
<a xlink:href="_test_ant_reader_8cc.html" target="_top" xlink:title="test/analysis/TestAntReader.cc">
<polygon fill="white" stroke="black" points="203.5,-7.5 203.5,-28.5 358.5,-28.5 358.5,-7.5 203.5,-7.5"/>
<text text-anchor="middle" x="281" y="-15.5" font-family="Helvetica,sans-Serif" font-size="10.00">test/analysis/TestAntReader.cc</text>
</a>
</g>
<!-- Node1&#45;&gt;Node4 -->
<g id="edge6" class="edge"><title>Node1&#45;&gt;Node4</title>
<path fill="none" stroke="midnightblue" d="M281,-62.6667C281,-50.9127 281,-37.8483 281,-28.901"/>
<polygon fill="midnightblue" stroke="midnightblue" points="277.5,-62.937 281,-72.937 284.5,-62.937 277.5,-62.937"/>
</g>
<!-- Node5 -->
<g id="node9" class="node"><title>Node5</title>
<a xlink:href="_test_physics_manager_8cc.html" target="_top" xlink:title="test/analysis/TestPhysics\lManager.cc">
<polygon fill="white" stroke="black" points="376,-1 376,-35 506,-35 506,-1 376,-1"/>
<text text-anchor="start" x="384" y="-22" font-family="Helvetica,sans-Serif" font-size="10.00">test/analysis/TestPhysics</text>
<text text-anchor="middle" x="441" y="-9" font-family="Helvetica,sans-Serif" font-size="10.00">Manager.cc</text>
</a>
</g>
<!-- Node1&#45;&gt;Node5 -->
<g id="edge8" class="edge"><title>Node1&#45;&gt;Node5</title>
<path fill="none" stroke="midnightblue" d="M328.153,-68.7812C352.034,-58.0346 380.642,-45.1612 403.077,-35.0651"/>
<polygon fill="midnightblue" stroke="midnightblue" points="326.601,-65.6416 318.918,-72.937 329.473,-72.025 326.601,-65.6416"/>
</g>
<!-- Node6 -->
<g id="node11" class="node"><title>Node6</title>
<a xlink:href="_test_slow_control_manager_8cc.html" target="_top" xlink:title="test/analysis/TestSlowControl\lManager.cc">
<polygon fill="white" stroke="black" points="524,-1 524,-35 672,-35 672,-1 524,-1"/>
<text text-anchor="start" x="532" y="-22" font-family="Helvetica,sans-Serif" font-size="10.00">test/analysis/TestSlowControl</text>
<text text-anchor="middle" x="598" y="-9" font-family="Helvetica,sans-Serif" font-size="10.00">Manager.cc</text>
</a>
</g>
<!-- Node1&#45;&gt;Node6 -->
<g id="edge10" class="edge"><title>Node1&#45;&gt;Node6</title>
<path fill="none" stroke="midnightblue" d="M337.826,-77.0931C389.838,-65.2798 467.125,-47.7257 523.953,-34.8183"/>
<polygon fill="midnightblue" stroke="midnightblue" points="336.751,-73.7481 327.774,-79.3762 338.301,-80.5743 336.751,-73.7481"/>
</g>
</g>
</svg>
