<?xml version="1.0" encoding="UTF-8" standalone="no"?>
<!DOCTYPE svg PUBLIC "-//W3C//DTD SVG 1.1//EN"
 "http://www.w3.org/Graphics/SVG/1.1/DTD/svg11.dtd">
<!-- Generated by graphviz version 2.26.3 (20100126.1600)
 -->
<!-- Title: progs/Ant&#45;calib&#45;editor.cc Pages: 1 -->
<svg width="3420pt" height="464pt"
 viewBox="0.00 0.00 3420.00 464.00" xmlns="http://www.w3.org/2000/svg" xmlns:xlink="http://www.w3.org/1999/xlink">
<g id="graph1" class="graph" transform="scale(1 1) rotate(0) translate(4 460)">
<title>progs/Ant&#45;calib&#45;editor.cc</title>
<polygon fill="white" stroke="white" points="-4,5 -4,-460 3417,-460 3417,5 -4,5"/>
<!-- Node1 -->
<g id="node1" class="node"><title>Node1</title>
<polygon fill="#bfbfbf" stroke="black" points="3103,-434.5 3103,-455.5 3225,-455.5 3225,-434.5 3103,-434.5"/>
<text text-anchor="middle" x="3164" y="-442.5" font-family="Helvetica,sans-Serif" font-size="10.00">progs/Ant&#45;calib&#45;editor.cc</text>
</g>
<!-- Node2 -->
<g id="node3" class="node"><title>Node2</title>
<a xlink:href="_editor_window_8h.html" target="_top" xlink:title="calibration/gui/EditorWindow.h">
<polygon fill="white" stroke="black" points="252.5,-376.5 252.5,-397.5 401.5,-397.5 401.5,-376.5 252.5,-376.5"/>
<text text-anchor="middle" x="327" y="-384.5" font-family="Helvetica,sans-Serif" font-size="10.00">calibration/gui/EditorWindow.h</text>
</a>
</g>
<!-- Node1&#45;&gt;Node2 -->
<g id="edge2" class="edge"><title>Node1&#45;&gt;Node2</title>
<path fill="none" stroke="midnightblue" d="M3102.77,-443.748C2736.59,-436.262 837.809,-397.443 411.866,-388.735"/>
<polygon fill="midnightblue" stroke="midnightblue" points="411.85,-385.234 401.781,-388.529 411.707,-392.233 411.85,-385.234"/>
</g>
<!-- Node15 -->
<g id="node30" class="node"><title>Node15</title>
<polygon fill="white" stroke="#bfbfbf" points="2980,-58.5 2980,-79.5 3026,-79.5 3026,-58.5 2980,-58.5"/>
<text text-anchor="middle" x="3003" y="-66.5" font-family="Helvetica,sans-Serif" font-size="10.00">cstring</text>
</g>
<!-- Node1&#45;&gt;Node15 -->
<g id="edge128" class="edge"><title>Node1&#45;&gt;Node15</title>
<path fill="none" stroke="midnightblue" d="M3164,-434.444C3164,-414.062 3164,-367.868 3164,-329 3164,-329 3164,-329 3164,-199 3164,-161.157 3170.46,-143.994 3145,-116 3130.27,-99.8018 3073.32,-84.5485 3036.17,-76.0247"/>
<polygon fill="midnightblue" stroke="midnightblue" points="3036.79,-72.5775 3026.27,-73.8039 3035.26,-79.4078 3036.79,-72.5775"/>
</g>
<!-- Node30 -->
<g id="node67" class="node"><title>Node30</title>
<a xlink:href="_logger_8h.html" target="_top" xlink:title="base/Logger.h">
<polygon fill="white" stroke="black" points="3192,-376.5 3192,-397.5 3270,-397.5 3270,-376.5 3192,-376.5"/>
<text text-anchor="middle" x="3231" y="-384.5" font-family="Helvetica,sans-Serif" font-size="10.00">base/Logger.h</text>
</a>
</g>
<!-- Node1&#45;&gt;Node30 -->
<g id="edge74" class="edge"><title>Node1&#45;&gt;Node30</title>
<path fill="none" stroke="midnightblue" d="M3176.29,-434.362C3186.02,-425.941 3199.8,-414.011 3211.1,-404.231"/>
<polygon fill="midnightblue" stroke="midnightblue" points="3213.52,-406.762 3218.79,-397.571 3208.94,-401.469 3213.52,-406.762"/>
</g>
<!-- Node32 -->
<g id="node71" class="node"><title>Node32</title>
<a xlink:href="_cmd_line_8h.html" target="_top" xlink:title="base/CmdLine.h">
<polygon fill="white" stroke="black" points="1891,-188.5 1891,-209.5 1979,-209.5 1979,-188.5 1891,-188.5"/>
<text text-anchor="middle" x="1935" y="-196.5" font-family="Helvetica,sans-Serif" font-size="10.00">base/CmdLine.h</text>
</a>
</g>
<!-- Node1&#45;&gt;Node32 -->
<g id="edge78" class="edge"><title>Node1&#45;&gt;Node32</title>
<path fill="none" stroke="midnightblue" d="M3111.19,-434.43C2909.9,-394.14 2191.91,-250.424 1988.85,-209.779"/>
<polygon fill="midnightblue" stroke="midnightblue" points="1989.5,-206.34 1979.01,-207.81 1988.13,-213.204 1989.5,-206.34"/>
</g>
<!-- Node46 -->
<g id="node102" class="node"><title>Node46</title>
<polygon fill="white" stroke="#bfbfbf" points="3082,-123.5 3082,-144.5 3136,-144.5 3136,-123.5 3082,-123.5"/>
<text text-anchor="middle" x="3109" y="-131.5" font-family="Helvetica,sans-Serif" font-size="10.00">iostream</text>
</g>
<!-- Node1&#45;&gt;Node46 -->
<g id="edge126" class="edge"><title>Node1&#45;&gt;Node46</title>
<path fill="none" stroke="midnightblue" d="M3156.61,-434.366C3143.61,-414.585 3118,-370.379 3118,-329 3118,-329 3118,-329 3118,-264 3118,-225.374 3114,-180.446 3111.33,-154.803"/>
<polygon fill="midnightblue" stroke="midnightblue" points="3114.8,-154.337 3110.25,-144.769 3107.84,-155.085 3114.8,-154.337"/>
</g>
<!-- Node48 -->
<g id="node109" class="node"><title>Node48</title>
<polygon fill="white" stroke="#bfbfbf" points="3287.5,-376.5 3287.5,-397.5 3336.5,-397.5 3336.5,-376.5 3287.5,-376.5"/>
<text text-anchor="middle" x="3312" y="-384.5" font-family="Helvetica,sans-Serif" font-size="10.00">TRint.h</text>
</g>
<!-- Node1&#45;&gt;Node48 -->
<g id="edge122" class="edge"><title>Node1&#45;&gt;Node48</title>
<path fill="none" stroke="midnightblue" d="M3190.8,-434.497C3215.18,-424.944 3251.28,-410.797 3277.74,-400.426"/>
<polygon fill="midnightblue" stroke="midnightblue" points="3279.33,-403.562 3287.36,-396.654 3276.78,-397.044 3279.33,-403.562"/>
</g>
<!-- Node49 -->
<g id="node111" class="node"><title>Node49</title>
<polygon fill="white" stroke="#bfbfbf" points="3353.5,-376.5 3353.5,-397.5 3412.5,-397.5 3412.5,-376.5 3353.5,-376.5"/>
<text text-anchor="middle" x="3383" y="-384.5" font-family="Helvetica,sans-Serif" font-size="10.00">TROOT.h</text>
</g>
<!-- Node1&#45;&gt;Node49 -->
<g id="edge124" class="edge"><title>Node1&#45;&gt;Node49</title>
<path fill="none" stroke="midnightblue" d="M3205.78,-434.5C3240.37,-425.729 3291.04,-412.702 3343.37,-398.408"/>
<polygon fill="midnightblue" stroke="midnightblue" points="3344.43,-401.745 3353.15,-395.725 3342.58,-394.994 3344.43,-401.745"/>
</g>
<!-- Node3 -->
<g id="node5" class="node"><title>Node3</title>
<a xlink:href="_editor_8h.html" target="_top" xlink:title="calibration/Editor.h">
<polygon fill="white" stroke="black" points="362,-318.5 362,-339.5 460,-339.5 460,-318.5 362,-318.5"/>
<text text-anchor="middle" x="411" y="-326.5" font-family="Helvetica,sans-Serif" font-size="10.00">calibration/Editor.h</text>
</a>
</g>
<!-- Node2&#45;&gt;Node3 -->
<g id="edge4" class="edge"><title>Node2&#45;&gt;Node3</title>
<path fill="none" stroke="midnightblue" d="M342.407,-376.362C354.958,-367.696 372.892,-355.313 387.275,-345.382"/>
<polygon fill="midnightblue" stroke="midnightblue" points="389.45,-348.133 395.691,-339.571 385.473,-342.372 389.45,-348.133"/>
</g>
<!-- Node12 -->
<g id="node23" class="node"><title>Node12</title>
<polygon fill="white" stroke="#bfbfbf" points="74.5,-0.5 74.5,-21.5 115.5,-21.5 115.5,-0.5 74.5,-0.5"/>
<text text-anchor="middle" x="95" y="-8.5" font-family="Helvetica,sans-Serif" font-size="10.00">string</text>
</g>
<!-- Node2&#45;&gt;Node12 -->
<g id="edge70" class="edge"><title>Node2&#45;&gt;Node12</title>
<path fill="none" stroke="midnightblue" d="M252.17,-382.638C177.812,-376.958 70.2081,-364.684 37,-340 6.84892,-317.589 0,-301.568 0,-264 0,-264 0,-264 0,-134 0,-88.0296 42.078,-48.7684 70.2259,-27.6475"/>
<polygon fill="midnightblue" stroke="midnightblue" points="72.4075,-30.3891 78.4523,-21.6878 68.3007,-24.7203 72.4075,-30.3891"/>
</g>
<!-- Node24 -->
<g id="node53" class="node"><title>Node24</title>
<a xlink:href="_indicator__traits_8h.html" target="_top" xlink:title="calibration/gui/Indicator\l_traits.h">
<polygon fill="white" stroke="black" points="636.5,-247 636.5,-281 753.5,-281 753.5,-247 636.5,-247"/>
<text text-anchor="start" x="644.5" y="-268" font-family="Helvetica,sans-Serif" font-size="10.00">calibration/gui/Indicator</text>
<text text-anchor="middle" x="695" y="-255" font-family="Helvetica,sans-Serif" font-size="10.00">_traits.h</text>
</a>
</g>
<!-- Node2&#45;&gt;Node24 -->
<g id="edge58" class="edge"><title>Node2&#45;&gt;Node24</title>
<path fill="none" stroke="midnightblue" d="M358.879,-376.497C387.667,-367 431.188,-352.615 469,-340 525.155,-321.265 589.096,-299.745 634.601,-284.398"/>
<polygon fill="midnightblue" stroke="midnightblue" points="635.953,-287.636 644.31,-281.123 633.715,-281.003 635.953,-287.636"/>
</g>
<!-- Node25 -->
<g id="node56" class="node"><title>Node25</title>
<polygon fill="white" stroke="#bfbfbf" points="46,-318.5 46,-339.5 112,-339.5 112,-318.5 46,-318.5"/>
<text text-anchor="middle" x="79" y="-326.5" font-family="Helvetica,sans-Serif" font-size="10.00">TGFrame.h</text>
</g>
<!-- Node2&#45;&gt;Node25 -->
<g id="edge62" class="edge"><title>Node2&#45;&gt;Node25</title>
<path fill="none" stroke="midnightblue" d="M278.615,-376.417C239.009,-367.651 181.284,-354.641 122.305,-340.274"/>
<polygon fill="midnightblue" stroke="midnightblue" points="122.992,-336.839 112.446,-337.862 121.328,-343.638 122.992,-336.839"/>
</g>
<!-- Node26 -->
<g id="node58" class="node"><title>Node26</title>
<polygon fill="white" stroke="#bfbfbf" points="130,-318.5 130,-339.5 210,-339.5 210,-318.5 130,-318.5"/>
<text text-anchor="middle" x="170" y="-326.5" font-family="Helvetica,sans-Serif" font-size="10.00">KeySymbols.h</text>
</g>
<!-- Node2&#45;&gt;Node26 -->
<g id="edge64" class="edge"><title>Node2&#45;&gt;Node26</title>
<path fill="none" stroke="midnightblue" d="M298.568,-376.497C273.195,-367.123 235.843,-353.324 207.93,-343.012"/>
<polygon fill="midnightblue" stroke="midnightblue" points="209.078,-339.705 198.485,-339.523 206.652,-346.272 209.078,-339.705"/>
</g>
<!-- Node27 -->
<g id="node60" class="node"><title>Node27</title>
<polygon fill="white" stroke="#bfbfbf" points="227.5,-318.5 227.5,-339.5 292.5,-339.5 292.5,-318.5 227.5,-318.5"/>
<text text-anchor="middle" x="260" y="-326.5" font-family="Helvetica,sans-Serif" font-size="10.00">TCanvas.h</text>
</g>
<!-- Node2&#45;&gt;Node27 -->
<g id="edge66" class="edge"><title>Node2&#45;&gt;Node27</title>
<path fill="none" stroke="midnightblue" d="M314.711,-376.362C304.983,-367.941 291.202,-356.011 279.905,-346.231"/>
<polygon fill="midnightblue" stroke="midnightblue" points="282.062,-343.469 272.211,-339.571 277.481,-348.762 282.062,-343.469"/>
</g>
<!-- Node28 -->
<g id="node62" class="node"><title>Node28</title>
<polygon fill="white" stroke="#bfbfbf" points="309.5,-318.5 309.5,-339.5 344.5,-339.5 344.5,-318.5 309.5,-318.5"/>
<text text-anchor="middle" x="327" y="-326.5" font-family="Helvetica,sans-Serif" font-size="10.00">map</text>
</g>
<!-- Node2&#45;&gt;Node28 -->
<g id="edge68" class="edge"><title>Node2&#45;&gt;Node28</title>
<path fill="none" stroke="midnightblue" d="M327,-376.362C327,-368.922 327,-358.743 327,-349.728"/>
<polygon fill="midnightblue" stroke="midnightblue" points="330.5,-349.571 327,-339.571 323.5,-349.571 330.5,-349.571"/>
</g>
<!-- Node29 -->
<g id="node65" class="node"><title>Node29</title>
<polygon fill="white" stroke="#bfbfbf" points="906,-123.5 906,-144.5 958,-144.5 958,-123.5 906,-123.5"/>
<text text-anchor="middle" x="932" y="-131.5" font-family="Helvetica,sans-Serif" font-size="10.00">memory</text>
</g>
<!-- Node2&#45;&gt;Node29 -->
<g id="edge72" class="edge"><title>Node2&#45;&gt;Node29</title>
<path fill="none" stroke="midnightblue" d="M401.559,-379.925C491.326,-369.011 644.645,-342.588 762,-282 827.433,-248.218 888.529,-184.128 916.306,-152.543"/>
<polygon fill="midnightblue" stroke="midnightblue" points="919.028,-154.748 922.934,-144.9 913.739,-150.162 919.028,-154.748"/>
</g>
<!-- Node4 -->
<g id="node7" class="node"><title>Node4</title>
<a xlink:href="_t_calibration_data_8h.html" target="_top" xlink:title="tree/TCalibrationData.h">
<polygon fill="white" stroke="black" points="151,-253.5 151,-274.5 269,-274.5 269,-253.5 151,-253.5"/>
<text text-anchor="middle" x="210" y="-261.5" font-family="Helvetica,sans-Serif" font-size="10.00">tree/TCalibrationData.h</text>
</a>
</g>
<!-- Node3&#45;&gt;Node4 -->
<g id="edge6" class="edge"><title>Node3&#45;&gt;Node4</title>
<path fill="none" stroke="midnightblue" d="M378.259,-318.412C343.947,-307.316 289.913,-289.843 252.371,-277.702"/>
<polygon fill="midnightblue" stroke="midnightblue" points="253.319,-274.33 242.727,-274.584 251.165,-280.991 253.319,-274.33"/>
</g>
<!-- Node3&#45;&gt;Node12 -->
<g id="edge56" class="edge"><title>Node3&#45;&gt;Node12</title>
<path fill="none" stroke="midnightblue" d="M361.964,-319.634C358.932,-319.076 355.925,-318.527 353,-318 205.713,-291.471 38,-348.657 38,-199 38,-199 38,-199 38,-134 38,-94.107 62.9882,-53.1193 79.8747,-29.9751"/>
<polygon fill="midnightblue" stroke="midnightblue" points="82.8568,-31.8342 86.0938,-21.7459 77.2722,-27.6137 82.8568,-31.8342"/>
</g>
<!-- Node5 -->
<g id="node9" class="node"><title>Node5</title>
<a xlink:href="_t_i_d_8h.html" target="_top" xlink:title="TID.h">
<polygon fill="white" stroke="black" points="558.5,-188.5 558.5,-209.5 599.5,-209.5 599.5,-188.5 558.5,-188.5"/>
<text text-anchor="middle" x="579" y="-196.5" font-family="Helvetica,sans-Serif" font-size="10.00">TID.h</text>
</a>
</g>
<!-- Node4&#45;&gt;Node5 -->
<g id="edge8" class="edge"><title>Node4&#45;&gt;Node5</title>
<path fill="none" stroke="midnightblue" d="M269.286,-253.557C348.659,-239.575 486.573,-215.281 547.974,-204.465"/>
<polygon fill="midnightblue" stroke="midnightblue" points="548.936,-207.85 558.177,-202.668 547.721,-200.956 548.936,-207.85"/>
</g>
<!-- Node4&#45;&gt;Node12 -->
<g id="edge48" class="edge"><title>Node4&#45;&gt;Node12</title>
<path fill="none" stroke="midnightblue" d="M159.429,-253.486C135.565,-245.714 109.251,-232.435 95,-210 59.426,-153.995 77.2249,-70.0287 88.3388,-31.5693"/>
<polygon fill="midnightblue" stroke="midnightblue" points="91.8154,-32.1668 91.3769,-21.581 85.1183,-30.1298 91.8154,-32.1668"/>
</g>
<!-- Node16 -->
<g id="node32" class="node"><title>Node16</title>
<polygon fill="white" stroke="#bfbfbf" points="393.5,-58.5 393.5,-79.5 434.5,-79.5 434.5,-58.5 393.5,-58.5"/>
<text text-anchor="middle" x="414" y="-66.5" font-family="Helvetica,sans-Serif" font-size="10.00">ctime</text>
</g>
<!-- Node4&#45;&gt;Node16 -->
<g id="edge50" class="edge"><title>Node4&#45;&gt;Node16</title>
<path fill="none" stroke="midnightblue" d="M208.259,-253.404C205.603,-238.464 199.89,-210.517 191,-188 184.278,-170.976 175.591,-169.718 171,-152 166.987,-136.512 160.667,-128.216 171,-116 200.379,-81.2662 323.35,-91.2515 383.19,-79.7468"/>
<polygon fill="midnightblue" stroke="midnightblue" points="384.294,-83.0843 393.252,-77.4278 382.721,-76.2631 384.294,-83.0843"/>
</g>
<!-- Node23 -->
<g id="node49" class="node"><title>Node23</title>
<a xlink:href="_git_info_8h.html" target="_top" xlink:title="base/GitInfo.h">
<polygon fill="white" stroke="black" points="104,-188.5 104,-209.5 182,-209.5 182,-188.5 104,-188.5"/>
<text text-anchor="middle" x="143" y="-196.5" font-family="Helvetica,sans-Serif" font-size="10.00">base/GitInfo.h</text>
</a>
</g>
<!-- Node4&#45;&gt;Node23 -->
<g id="edge52" class="edge"><title>Node4&#45;&gt;Node23</title>
<path fill="none" stroke="midnightblue" d="M198.936,-253.267C188.692,-243.328 173.267,-228.363 161.208,-216.664"/>
<polygon fill="midnightblue" stroke="midnightblue" points="163.472,-213.985 153.858,-209.534 158.598,-219.009 163.472,-213.985"/>
</g>
<!-- Node6 -->
<g id="node11" class="node"><title>Node6</title>
<polygon fill="white" stroke="#bfbfbf" points="718,-123.5 718,-144.5 774,-144.5 774,-123.5 718,-123.5"/>
<text text-anchor="middle" x="746" y="-131.5" font-family="Helvetica,sans-Serif" font-size="10.00">Rtypes.h</text>
</g>
<!-- Node5&#45;&gt;Node6 -->
<g id="edge10" class="edge"><title>Node5&#45;&gt;Node6</title>
<path fill="none" stroke="midnightblue" d="M599.902,-191.469C624.815,-182.417 667.646,-166.616 704,-152 706.691,-150.918 709.47,-149.778 712.258,-148.618"/>
<polygon fill="midnightblue" stroke="midnightblue" points="713.794,-151.769 721.648,-144.657 711.074,-145.319 713.794,-151.769"/>
</g>
<!-- Node7 -->
<g id="node13" class="node"><title>Node7</title>
<a xlink:href="printable_8h.html" target="_top" xlink:title="base/printable.h">
<polygon fill="white" stroke="black" points="256,-123.5 256,-144.5 342,-144.5 342,-123.5 256,-123.5"/>
<text text-anchor="middle" x="299" y="-131.5" font-family="Helvetica,sans-Serif" font-size="10.00">base/printable.h</text>
</a>
</g>
<!-- Node5&#45;&gt;Node7 -->
<g id="edge12" class="edge"><title>Node5&#45;&gt;Node7</title>
<path fill="none" stroke="midnightblue" d="M558.35,-195.67C518.082,-188.974 426.407,-172.729 351,-152 346.406,-150.737 341.628,-149.283 336.912,-147.76"/>
<polygon fill="midnightblue" stroke="midnightblue" points="337.993,-144.431 327.399,-144.577 335.772,-151.069 337.993,-144.431"/>
</g>
<!-- Node10 -->
<g id="node19" class="node"><title>Node10</title>
<a xlink:href="time_8h.html" target="_top" xlink:title="base/std_ext/time.h">
<polygon fill="white" stroke="black" points="359.5,-123.5 359.5,-144.5 462.5,-144.5 462.5,-123.5 359.5,-123.5"/>
<text text-anchor="middle" x="411" y="-131.5" font-family="Helvetica,sans-Serif" font-size="10.00">base/std_ext/time.h</text>
</a>
</g>
<!-- Node5&#45;&gt;Node10 -->
<g id="edge18" class="edge"><title>Node5&#45;&gt;Node10</title>
<path fill="none" stroke="midnightblue" d="M558.4,-191.03C530.887,-180.385 481.68,-161.347 447.737,-148.214"/>
<polygon fill="midnightblue" stroke="midnightblue" points="448.756,-144.855 438.167,-144.511 446.23,-151.384 448.756,-144.855"/>
</g>
<!-- Node5&#45;&gt;Node16 -->
<g id="edge46" class="edge"><title>Node5&#45;&gt;Node16</title>
<path fill="none" stroke="midnightblue" d="M599.754,-194.974C621.798,-189.47 655.551,-177.241 671,-152 679.353,-138.353 681.246,-128.289 671,-116 642.504,-81.82 506.706,-72.4245 444.837,-69.9003"/>
<polygon fill="midnightblue" stroke="midnightblue" points="444.655,-66.3912 434.531,-69.516 444.394,-73.3863 444.655,-66.3912"/>
</g>
<!-- Node17 -->
<g id="node34" class="node"><title>Node17</title>
<polygon fill="white" stroke="#bfbfbf" points="480,-123.5 480,-144.5 542,-144.5 542,-123.5 480,-123.5"/>
<text text-anchor="middle" x="511" y="-131.5" font-family="Helvetica,sans-Serif" font-size="10.00">type_traits</text>
</g>
<!-- Node5&#45;&gt;Node17 -->
<g id="edge34" class="edge"><title>Node5&#45;&gt;Node17</title>
<path fill="none" stroke="midnightblue" d="M567.771,-188.267C557.374,-178.328 541.719,-163.363 529.48,-151.664"/>
<polygon fill="midnightblue" stroke="midnightblue" points="531.667,-148.913 522.02,-144.534 526.83,-153.974 531.667,-148.913"/>
</g>
<!-- Node18 -->
<g id="node36" class="node"><title>Node18</title>
<polygon fill="white" stroke="#bfbfbf" points="560,-123.5 560,-144.5 598,-144.5 598,-123.5 560,-123.5"/>
<text text-anchor="middle" x="579" y="-131.5" font-family="Helvetica,sans-Serif" font-size="10.00">tuple</text>
</g>
<!-- Node5&#45;&gt;Node18 -->
<g id="edge36" class="edge"><title>Node5&#45;&gt;Node18</title>
<path fill="none" stroke="midnightblue" d="M579,-188.267C579,-179.18 579,-165.892 579,-154.74"/>
<polygon fill="midnightblue" stroke="midnightblue" points="582.5,-154.534 579,-144.534 575.5,-154.534 582.5,-154.534"/>
</g>
<!-- Node19 -->
<g id="node38" class="node"><title>Node19</title>
<polygon fill="white" stroke="#bfbfbf" points="616,-123.5 616,-144.5 662,-144.5 662,-123.5 616,-123.5"/>
<text text-anchor="middle" x="639" y="-131.5" font-family="Helvetica,sans-Serif" font-size="10.00">cstdint</text>
</g>
<!-- Node5&#45;&gt;Node19 -->
<g id="edge38" class="edge"><title>Node5&#45;&gt;Node19</title>
<path fill="none" stroke="midnightblue" d="M588.908,-188.267C597.994,-178.423 611.633,-163.648 622.385,-152"/>
<polygon fill="midnightblue" stroke="midnightblue" points="625.066,-154.256 629.277,-144.534 619.922,-149.508 625.066,-154.256"/>
</g>
<!-- Node20 -->
<g id="node40" class="node"><title>Node20</title>
<polygon fill="white" stroke="#bfbfbf" points="179.5,-123.5 179.5,-144.5 238.5,-144.5 238.5,-123.5 179.5,-123.5"/>
<text text-anchor="middle" x="209" y="-131.5" font-family="Helvetica,sans-Serif" font-size="10.00">stdexcept</text>
</g>
<!-- Node5&#45;&gt;Node20 -->
<g id="edge40" class="edge"><title>Node5&#45;&gt;Node20</title>
<path fill="none" stroke="midnightblue" d="M558.33,-198.231C505.438,-195.804 361.303,-186.297 247,-152 243.854,-151.056 240.639,-149.888 237.478,-148.603"/>
<polygon fill="midnightblue" stroke="midnightblue" points="238.834,-145.375 228.275,-144.508 235.988,-151.771 238.834,-145.375"/>
</g>
<!-- Node21 -->
<g id="node42" class="node"><title>Node21</title>
<polygon fill="white" stroke="#bfbfbf" points="859.5,-123.5 859.5,-144.5 888.5,-144.5 888.5,-123.5 859.5,-123.5"/>
<text text-anchor="middle" x="874" y="-131.5" font-family="Helvetica,sans-Serif" font-size="10.00">list</text>
</g>
<!-- Node5&#45;&gt;Node21 -->
<g id="edge42" class="edge"><title>Node5&#45;&gt;Node21</title>
<path fill="none" stroke="midnightblue" d="M599.695,-196.749C655.08,-190.518 805.553,-172.163 851,-152 852.02,-151.548 853.034,-151.04 854.036,-150.49"/>
<polygon fill="midnightblue" stroke="midnightblue" points="856.222,-153.238 862.554,-144.743 852.307,-147.435 856.222,-153.238"/>
</g>
<!-- Node22 -->
<g id="node44" class="node"><title>Node22</title>
<polygon fill="white" stroke="#bfbfbf" points="792,-123.5 792,-144.5 842,-144.5 842,-123.5 792,-123.5"/>
<text text-anchor="middle" x="817" y="-131.5" font-family="Helvetica,sans-Serif" font-size="10.00">iomanip</text>
</g>
<!-- Node5&#45;&gt;Node22 -->
<g id="edge44" class="edge"><title>Node5&#45;&gt;Node22</title>
<path fill="none" stroke="midnightblue" d="M599.783,-196.047C637.263,-190.322 718.291,-176.111 783,-152 785.271,-151.154 787.581,-150.186 789.873,-149.148"/>
<polygon fill="midnightblue" stroke="midnightblue" points="791.635,-152.182 799.054,-144.618 788.537,-145.904 791.635,-152.182"/>
</g>
<!-- Node8 -->
<g id="node15" class="node"><title>Node8</title>
<polygon fill="white" stroke="#bfbfbf" points="1605,-0.5 1605,-21.5 1649,-21.5 1649,-0.5 1605,-0.5"/>
<text text-anchor="middle" x="1627" y="-8.5" font-family="Helvetica,sans-Serif" font-size="10.00">vector</text>
</g>
<!-- Node7&#45;&gt;Node8 -->
<g id="edge14" class="edge"><title>Node7&#45;&gt;Node8</title>
<path fill="none" stroke="midnightblue" d="M297.591,-123.394C296.023,-106.558 295.852,-73.9876 315,-58 367.995,-13.7511 1457.01,-33.7522 1594.81,-21.0709"/>
<polygon fill="midnightblue" stroke="midnightblue" points="1595.4,-24.5242 1604.88,-19.7848 1594.52,-17.5807 1595.4,-24.5242"/>
</g>
<!-- Node9 -->
<g id="node17" class="node"><title>Node9</title>
<polygon fill="white" stroke="#bfbfbf" points="324,-58.5 324,-79.5 376,-79.5 376,-58.5 324,-58.5"/>
<text text-anchor="middle" x="350" y="-66.5" font-family="Helvetica,sans-Serif" font-size="10.00">ostream</text>
</g>
<!-- Node7&#45;&gt;Node9 -->
<g id="edge16" class="edge"><title>Node7&#45;&gt;Node9</title>
<path fill="none" stroke="midnightblue" d="M307.422,-123.267C314.997,-113.612 326.293,-99.2145 335.347,-87.675"/>
<polygon fill="midnightblue" stroke="midnightblue" points="338.316,-89.5616 341.735,-79.5337 332.809,-85.2406 338.316,-89.5616"/>
</g>
<!-- Node11 -->
<g id="node21" class="node"><title>Node11</title>
<a xlink:href="string_8h.html" target="_top" xlink:title="base/std_ext/string.h">
<polygon fill="white" stroke="black" points="1540,-58.5 1540,-79.5 1648,-79.5 1648,-58.5 1540,-58.5"/>
<text text-anchor="middle" x="1594" y="-66.5" font-family="Helvetica,sans-Serif" font-size="10.00">base/std_ext/string.h</text>
</a>
</g>
<!-- Node10&#45;&gt;Node11 -->
<g id="edge20" class="edge"><title>Node10&#45;&gt;Node11</title>
<path fill="none" stroke="midnightblue" d="M440.867,-123.441C450.38,-120.512 461.026,-117.678 471,-116 676.915,-81.3647 1323.38,-71.7917 1529.9,-69.5831"/>
<polygon fill="midnightblue" stroke="midnightblue" points="1530.01,-73.0822 1539.98,-69.4775 1529.94,-66.0826 1530.01,-73.0822"/>
</g>
<!-- Node10&#45;&gt;Node15 -->
<g id="edge30" class="edge"><title>Node10&#45;&gt;Node15</title>
<path fill="none" stroke="midnightblue" d="M440.232,-123.489C449.898,-120.485 460.792,-117.595 471,-116 600.265,-95.8008 2678.74,-72.5248 2969.36,-69.3624"/>
<polygon fill="midnightblue" stroke="midnightblue" points="2969.71,-72.8588 2979.67,-69.2504 2969.64,-65.8592 2969.71,-72.8588"/>
</g>
<!-- Node10&#45;&gt;Node16 -->
<g id="edge32" class="edge"><title>Node10&#45;&gt;Node16</title>
<path fill="none" stroke="midnightblue" d="M411.495,-123.267C411.915,-114.18 412.528,-100.892 413.043,-89.7395"/>
<polygon fill="midnightblue" stroke="midnightblue" points="416.549,-89.6845 413.514,-79.5337 409.556,-89.3617 416.549,-89.6845"/>
</g>
<!-- Node11&#45;&gt;Node8 -->
<g id="edge28" class="edge"><title>Node11&#45;&gt;Node8</title>
<path fill="none" stroke="midnightblue" d="M1600.05,-58.3619C1604.47,-50.5949 1610.59,-39.8426 1615.88,-30.5458"/>
<polygon fill="midnightblue" stroke="midnightblue" points="1619.08,-31.9932 1620.99,-21.5707 1613,-28.5315 1619.08,-31.9932"/>
</g>
<!-- Node11&#45;&gt;Node12 -->
<g id="edge22" class="edge"><title>Node11&#45;&gt;Node12</title>
<path fill="none" stroke="midnightblue" d="M1539.89,-59.6087C1535.2,-58.9889 1530.52,-58.4383 1526,-58 1240.81,-30.3632 308.751,-14.3865 126.183,-11.4821"/>
<polygon fill="midnightblue" stroke="midnightblue" points="125.999,-7.97883 115.944,-11.3205 125.888,-14.978 125.999,-7.97883"/>
</g>
<!-- Node13 -->
<g id="node25" class="node"><title>Node13</title>
<polygon fill="white" stroke="#bfbfbf" points="1535,-0.5 1535,-21.5 1587,-21.5 1587,-0.5 1535,-0.5"/>
<text text-anchor="middle" x="1561" y="-8.5" font-family="Helvetica,sans-Serif" font-size="10.00">sstream</text>
</g>
<!-- Node11&#45;&gt;Node13 -->
<g id="edge24" class="edge"><title>Node11&#45;&gt;Node13</title>
<path fill="none" stroke="midnightblue" d="M1587.95,-58.3619C1583.53,-50.5949 1577.41,-39.8426 1572.12,-30.5458"/>
<polygon fill="midnightblue" stroke="midnightblue" points="1575,-28.5315 1567.01,-21.5707 1568.92,-31.9932 1575,-28.5315"/>
</g>
<!-- Node14 -->
<g id="node27" class="node"><title>Node14</title>
<polygon fill="white" stroke="#bfbfbf" points="2363,-0.5 2363,-21.5 2419,-21.5 2419,-0.5 2363,-0.5"/>
<text text-anchor="middle" x="2391" y="-8.5" font-family="Helvetica,sans-Serif" font-size="10.00">algorithm</text>
</g>
<!-- Node11&#45;&gt;Node14 -->
<g id="edge26" class="edge"><title>Node11&#45;&gt;Node14</title>
<path fill="none" stroke="midnightblue" d="M1648.15,-65.059C1799.12,-54.0729 2222.11,-23.2908 2352.34,-13.8133"/>
<polygon fill="midnightblue" stroke="midnightblue" points="2352.9,-17.2821 2362.62,-13.0654 2352.39,-10.3005 2352.9,-17.2821"/>
</g>
<!-- Node23&#45;&gt;Node12 -->
<g id="edge54" class="edge"><title>Node23&#45;&gt;Node12</title>
<path fill="none" stroke="midnightblue" d="M140.282,-188.354C132.559,-158.107 110.392,-71.2854 100.218,-31.4371"/>
<polygon fill="midnightblue" stroke="midnightblue" points="103.554,-30.3529 97.6884,-21.5296 96.7711,-32.0846 103.554,-30.3529"/>
</g>
<!-- Node24&#45;&gt;Node6 -->
<g id="edge60" class="edge"><title>Node24&#45;&gt;Node6</title>
<path fill="none" stroke="midnightblue" d="M701.772,-246.737C711.203,-222.698 728.25,-179.246 738.2,-153.882"/>
<polygon fill="midnightblue" stroke="midnightblue" points="741.476,-155.114 741.87,-144.527 734.96,-152.558 741.476,-155.114"/>
</g>
<!-- Node31 -->
<g id="node69" class="node"><title>Node31</title>
<polygon fill="white" stroke="#bfbfbf" points="3191.5,-318.5 3191.5,-339.5 3306.5,-339.5 3306.5,-318.5 3191.5,-318.5"/>
<text text-anchor="middle" x="3249" y="-326.5" font-family="Helvetica,sans-Serif" font-size="10.00">detail/easylogging++.h</text>
</g>
<!-- Node30&#45;&gt;Node31 -->
<g id="edge76" class="edge"><title>Node30&#45;&gt;Node31</title>
<path fill="none" stroke="midnightblue" d="M3234.3,-376.362C3236.66,-368.758 3239.91,-358.294 3242.75,-349.135"/>
<polygon fill="midnightblue" stroke="midnightblue" points="3246.1,-350.159 3245.72,-339.571 3239.41,-348.084 3246.1,-350.159"/>
</g>
<!-- Node32&#45;&gt;Node8 -->
<g id="edge108" class="edge"><title>Node32&#45;&gt;Node8</title>
<path fill="none" stroke="midnightblue" d="M1979.29,-198.728C2175.85,-197.31 2961.3,-189.318 2997,-152 3008.06,-140.439 3007.87,-127.738 2997,-116 2949.97,-65.2263 1862.04,-20.2083 1659.35,-12.2466"/>
<polygon fill="midnightblue" stroke="midnightblue" points="1659.2,-8.73823 1649.07,-11.8449 1658.93,-15.7329 1659.2,-8.73823"/>
</g>
<!-- Node32&#45;&gt;Node12 -->
<g id="edge106" class="edge"><title>Node32&#45;&gt;Node12</title>
<path fill="none" stroke="midnightblue" d="M1890.9,-197.368C1799.81,-193.434 1594.09,-181.48 1531,-152 1509.92,-142.152 1514.27,-125.416 1493,-116 1363.78,-58.8091 318.524,-18.9717 125.567,-12.0681"/>
<polygon fill="midnightblue" stroke="midnightblue" points="125.667,-8.56951 115.549,-11.7119 125.418,-15.5651 125.667,-8.56951"/>
</g>
<!-- Node32&#45;&gt;Node14 -->
<g id="edge116" class="edge"><title>Node32&#45;&gt;Node14</title>
<path fill="none" stroke="midnightblue" d="M1979.15,-198.517C2176.95,-196.173 2973.84,-184.72 3015,-152 3048.43,-125.42 3064.08,-89.2825 3035,-58 3014.28,-35.7172 2565.47,-17.4237 2429.62,-12.3811"/>
<polygon fill="midnightblue" stroke="midnightblue" points="2429.41,-8.87101 2419.28,-12.0007 2429.15,-15.8663 2429.41,-8.87101"/>
</g>
<!-- Node32&#45;&gt;Node21 -->
<g id="edge110" class="edge"><title>Node32&#45;&gt;Node21</title>
<path fill="none" stroke="midnightblue" d="M1890.85,-198.583C1704.94,-196.613 991.046,-186.826 897,-152 895.77,-151.544 894.553,-150.997 893.36,-150.381"/>
<polygon fill="midnightblue" stroke="midnightblue" points="895.1,-147.335 884.838,-144.702 891.219,-153.16 895.1,-147.335"/>
</g>
<!-- Node32&#45;&gt;Node22 -->
<g id="edge114" class="edge"><title>Node32&#45;&gt;Node22</title>
<path fill="none" stroke="midnightblue" d="M1890.98,-198.236C1700.51,-194.775 952.405,-179.532 851,-152 848.16,-151.229 845.29,-150.19 842.485,-148.998"/>
<polygon fill="midnightblue" stroke="midnightblue" points="843.856,-145.773 833.335,-144.525 840.782,-152.062 843.856,-145.773"/>
</g>
<!-- Node32&#45;&gt;Node29 -->
<g id="edge120" class="edge"><title>Node32&#45;&gt;Node29</title>
<path fill="none" stroke="midnightblue" d="M1890.7,-197.954C1712.96,-193.605 1056.79,-176.057 967,-152 963.995,-151.195 960.952,-150.107 957.979,-148.862"/>
<polygon fill="midnightblue" stroke="midnightblue" points="959.387,-145.656 948.855,-144.505 956.371,-151.973 959.387,-145.656"/>
</g>
<!-- Node33 -->
<g id="node73" class="node"><title>Node33</title>
<polygon fill="white" stroke="#bfbfbf" points="1540,-123.5 1540,-144.5 1630,-144.5 1630,-123.5 1540,-123.5"/>
<text text-anchor="middle" x="1585" y="-131.5" font-family="Helvetica,sans-Serif" font-size="10.00">detail/CmdLine.h</text>
</g>
<!-- Node32&#45;&gt;Node33 -->
<g id="edge80" class="edge"><title>Node32&#45;&gt;Node33</title>
<path fill="none" stroke="midnightblue" d="M1890.92,-194.294C1832.69,-187.558 1727.2,-173.548 1639,-152 1633.91,-150.757 1628.61,-149.256 1623.41,-147.659"/>
<polygon fill="midnightblue" stroke="midnightblue" points="1624.2,-144.236 1613.61,-144.509 1622.06,-150.9 1624.2,-144.236"/>
</g>
<!-- Node34 -->
<g id="node75" class="node"><title>Node34</title>
<polygon fill="white" stroke="#bfbfbf" points="1647.5,-117 1647.5,-151 1768.5,-151 1768.5,-117 1647.5,-117"/>
<text text-anchor="start" x="1655.5" y="-138" font-family="Helvetica,sans-Serif" font-size="10.00">base/detail/tclap/Switch</text>
<text text-anchor="middle" x="1708" y="-125" font-family="Helvetica,sans-Serif" font-size="10.00">Arg.h</text>
</g>
<!-- Node32&#45;&gt;Node34 -->
<g id="edge82" class="edge"><title>Node32&#45;&gt;Node34</title>
<path fill="none" stroke="midnightblue" d="M1898.28,-188.484C1865.7,-179.157 1817.24,-165.282 1777.38,-153.868"/>
<polygon fill="midnightblue" stroke="midnightblue" points="1778.29,-150.487 1767.71,-151.099 1776.36,-157.216 1778.29,-150.487"/>
</g>
<!-- Node35 -->
<g id="node77" class="node"><title>Node35</title>
<polygon fill="white" stroke="#bfbfbf" points="1786,-117 1786,-151 1928,-151 1928,-117 1786,-117"/>
<text text-anchor="start" x="1794" y="-138" font-family="Helvetica,sans-Serif" font-size="10.00">base/detail/tclap/MultiSwitch</text>
<text text-anchor="middle" x="1857" y="-125" font-family="Helvetica,sans-Serif" font-size="10.00">Arg.h</text>
</g>
<!-- Node32&#45;&gt;Node35 -->
<g id="edge84" class="edge"><title>Node32&#45;&gt;Node35</title>
<path fill="none" stroke="midnightblue" d="M1922.12,-188.267C1912.18,-179.984 1898.05,-168.212 1885.5,-157.748"/>
<polygon fill="midnightblue" stroke="midnightblue" points="1887.45,-154.823 1877.53,-151.11 1882.97,-160.201 1887.45,-154.823"/>
</g>
<!-- Node36 -->
<g id="node79" class="node"><title>Node36</title>
<polygon fill="white" stroke="#bfbfbf" points="1946,-117 1946,-151 2080,-151 2080,-117 1946,-117"/>
<text text-anchor="start" x="1954" y="-138" font-family="Helvetica,sans-Serif" font-size="10.00">base/detail/tclap/Unlabeled</text>
<text text-anchor="middle" x="2013" y="-125" font-family="Helvetica,sans-Serif" font-size="10.00">ValueArg.h</text>
</g>
<!-- Node32&#45;&gt;Node36 -->
<g id="edge86" class="edge"><title>Node32&#45;&gt;Node36</title>
<path fill="none" stroke="midnightblue" d="M1947.88,-188.267C1957.82,-179.984 1971.95,-168.212 1984.5,-157.748"/>
<polygon fill="midnightblue" stroke="midnightblue" points="1987.03,-160.201 1992.47,-151.11 1982.55,-154.823 1987.03,-160.201"/>
</g>
<!-- Node37 -->
<g id="node81" class="node"><title>Node37</title>
<polygon fill="white" stroke="#bfbfbf" points="2098,-117 2098,-151 2232,-151 2232,-117 2098,-117"/>
<text text-anchor="start" x="2106" y="-138" font-family="Helvetica,sans-Serif" font-size="10.00">base/detail/tclap/Unlabeled</text>
<text text-anchor="middle" x="2165" y="-125" font-family="Helvetica,sans-Serif" font-size="10.00">MultiArg.h</text>
</g>
<!-- Node32&#45;&gt;Node37 -->
<g id="edge88" class="edge"><title>Node32&#45;&gt;Node37</title>
<path fill="none" stroke="midnightblue" d="M1972.21,-188.484C2005.21,-179.157 2054.31,-165.282 2094.7,-153.868"/>
<polygon fill="midnightblue" stroke="midnightblue" points="2095.83,-157.186 2104.5,-151.099 2093.92,-150.45 2095.83,-157.186"/>
</g>
<!-- Node38 -->
<g id="node83" class="node"><title>Node38</title>
<polygon fill="white" stroke="#bfbfbf" points="2250,-123.5 2250,-144.5 2398,-144.5 2398,-123.5 2250,-123.5"/>
<text text-anchor="middle" x="2324" y="-131.5" font-family="Helvetica,sans-Serif" font-size="10.00">base/detail/tclap/XorHandler.h</text>
</g>
<!-- Node32&#45;&gt;Node38 -->
<g id="edge90" class="edge"><title>Node32&#45;&gt;Node38</title>
<path fill="none" stroke="midnightblue" d="M1979.23,-193.072C2038.85,-184.883 2148.25,-169.164 2241,-152 2249.64,-150.402 2258.75,-148.572 2267.65,-146.706"/>
<polygon fill="midnightblue" stroke="midnightblue" points="2268.52,-150.1 2277.57,-144.594 2267.06,-143.253 2268.52,-150.1"/>
</g>
<!-- Node39 -->
<g id="node85" class="node"><title>Node39</title>
<polygon fill="white" stroke="#bfbfbf" points="2415.5,-123.5 2415.5,-144.5 2562.5,-144.5 2562.5,-123.5 2415.5,-123.5"/>
<text text-anchor="middle" x="2489" y="-131.5" font-family="Helvetica,sans-Serif" font-size="10.00">base/detail/tclap/HelpVisitor.h</text>
</g>
<!-- Node32&#45;&gt;Node39 -->
<g id="edge92" class="edge"><title>Node32&#45;&gt;Node39</title>
<path fill="none" stroke="midnightblue" d="M1979.14,-196.332C2062.94,-190.887 2250.65,-176.858 2407,-152 2416.2,-150.538 2425.91,-148.684 2435.31,-146.726"/>
<polygon fill="midnightblue" stroke="midnightblue" points="2436.3,-150.093 2445.35,-144.573 2434.84,-143.248 2436.3,-150.093"/>
</g>
<!-- Node40 -->
<g id="node87" class="node"><title>Node40</title>
<polygon fill="white" stroke="#bfbfbf" points="2580,-117 2580,-151 2704,-151 2704,-117 2580,-117"/>
<text text-anchor="start" x="2588" y="-138" font-family="Helvetica,sans-Serif" font-size="10.00">base/detail/tclap/Version</text>
<text text-anchor="middle" x="2642" y="-125" font-family="Helvetica,sans-Serif" font-size="10.00">Visitor.h</text>
</g>
<!-- Node32&#45;&gt;Node40 -->
<g id="edge94" class="edge"><title>Node32&#45;&gt;Node40</title>
<path fill="none" stroke="midnightblue" d="M1979.26,-198.38C2081.69,-196.378 2342.99,-188.02 2569.7,-152.048"/>
<polygon fill="midnightblue" stroke="midnightblue" points="2570.47,-155.469 2579.79,-150.425 2569.36,-148.558 2570.47,-155.469"/>
</g>
<!-- Node41 -->
<g id="node89" class="node"><title>Node41</title>
<polygon fill="white" stroke="#bfbfbf" points="2722,-117 2722,-151 2840,-151 2840,-117 2722,-117"/>
<text text-anchor="start" x="2730" y="-138" font-family="Helvetica,sans-Serif" font-size="10.00">base/detail/tclap/Ignore</text>
<text text-anchor="middle" x="2781" y="-125" font-family="Helvetica,sans-Serif" font-size="10.00">RestVisitor.h</text>
</g>
<!-- Node32&#45;&gt;Node41 -->
<g id="edge96" class="edge"><title>Node32&#45;&gt;Node41</title>
<path fill="none" stroke="midnightblue" d="M1979.41,-197.477C2119.36,-192.501 2550.96,-175.745 2711.63,-151.983"/>
<polygon fill="midnightblue" stroke="midnightblue" points="2712.46,-155.395 2721.81,-150.408 2711.39,-148.477 2712.46,-155.395"/>
</g>
<!-- Node42 -->
<g id="node91" class="node"><title>Node42</title>
<polygon fill="white" stroke="#bfbfbf" points="2858,-117 2858,-151 2988,-151 2988,-117 2858,-117"/>
<text text-anchor="start" x="2866" y="-138" font-family="Helvetica,sans-Serif" font-size="10.00">base/detail/tclap/CmdLine</text>
<text text-anchor="middle" x="2923" y="-125" font-family="Helvetica,sans-Serif" font-size="10.00">Output.h</text>
</g>
<!-- Node32&#45;&gt;Node42 -->
<g id="edge98" class="edge"><title>Node32&#45;&gt;Node42</title>
<path fill="none" stroke="midnightblue" d="M1979.2,-197.825C2134.95,-193.515 2658.63,-177.557 2847.67,-151.991"/>
<polygon fill="midnightblue" stroke="midnightblue" points="2848.35,-155.431 2857.76,-150.571 2847.37,-148.499 2848.35,-155.431"/>
</g>
<!-- Node43 -->
<g id="node93" class="node"><title>Node43</title>
<polygon fill="white" stroke="#bfbfbf" points="975.5,-123.5 975.5,-144.5 1118.5,-144.5 1118.5,-123.5 975.5,-123.5"/>
<text text-anchor="middle" x="1047" y="-131.5" font-family="Helvetica,sans-Serif" font-size="10.00">base/detail/tclap/StdOutput.h</text>
</g>
<!-- Node32&#45;&gt;Node43 -->
<g id="edge100" class="edge"><title>Node32&#45;&gt;Node43</title>
<path fill="none" stroke="midnightblue" d="M1890.97,-197.388C1744.83,-191.889 1276.58,-173.035 1127,-152 1117.48,-150.661 1107.41,-148.776 1097.75,-146.726"/>
<polygon fill="midnightblue" stroke="midnightblue" points="1098.39,-143.282 1087.87,-144.545 1096.88,-150.118 1098.39,-143.282"/>
</g>
<!-- Node44 -->
<g id="node95" class="node"><title>Node44</title>
<polygon fill="white" stroke="#bfbfbf" points="1136,-123.5 1136,-144.5 1280,-144.5 1280,-123.5 1136,-123.5"/>
<text text-anchor="middle" x="1208" y="-131.5" font-family="Helvetica,sans-Serif" font-size="10.00">base/detail/tclap/Constraint.h</text>
</g>
<!-- Node32&#45;&gt;Node44 -->
<g id="edge102" class="edge"><title>Node32&#45;&gt;Node44</title>
<path fill="none" stroke="midnightblue" d="M1890.9,-198.009C1786.03,-195.171 1513.74,-184.967 1289,-152 1279.48,-150.603 1269.41,-148.71 1259.73,-146.675"/>
<polygon fill="midnightblue" stroke="midnightblue" points="1260.34,-143.225 1249.82,-144.517 1258.85,-150.065 1260.34,-143.225"/>
</g>
<!-- Node45 -->
<g id="node97" class="node"><title>Node45</title>
<polygon fill="white" stroke="#bfbfbf" points="1297.5,-117 1297.5,-151 1418.5,-151 1418.5,-117 1297.5,-117"/>
<text text-anchor="start" x="1305.5" y="-138" font-family="Helvetica,sans-Serif" font-size="10.00">base/detail/tclap/Values</text>
<text text-anchor="middle" x="1358" y="-125" font-family="Helvetica,sans-Serif" font-size="10.00">Constraint.h</text>
</g>
<!-- Node32&#45;&gt;Node45 -->
<g id="edge104" class="edge"><title>Node32&#45;&gt;Node45</title>
<path fill="none" stroke="midnightblue" d="M1890.85,-197.336C1803.94,-193.539 1604.48,-182.245 1428.77,-152.17"/>
<polygon fill="midnightblue" stroke="midnightblue" points="1429.29,-148.707 1418.83,-150.444 1428.09,-155.603 1429.29,-148.707"/>
</g>
<!-- Node32&#45;&gt;Node46 -->
<g id="edge112" class="edge"><title>Node32&#45;&gt;Node46</title>
<path fill="none" stroke="midnightblue" d="M1979.3,-198.133C2175.45,-194.164 2960.71,-176.846 3068,-152 3071.89,-151.098 3075.88,-149.833 3079.76,-148.386"/>
<polygon fill="midnightblue" stroke="midnightblue" points="3081.18,-151.585 3089.08,-144.521 3078.5,-145.119 3081.18,-151.585"/>
</g>
<!-- Node47 -->
<g id="node106" class="node"><title>Node47</title>
<polygon fill="white" stroke="#bfbfbf" points="1436,-123.5 1436,-144.5 1484,-144.5 1484,-123.5 1436,-123.5"/>
<text text-anchor="middle" x="1460" y="-131.5" font-family="Helvetica,sans-Serif" font-size="10.00">stdlib.h</text>
</g>
<!-- Node32&#45;&gt;Node47 -->
<g id="edge118" class="edge"><title>Node32&#45;&gt;Node47</title>
<path fill="none" stroke="midnightblue" d="M1890.88,-196.136C1795.17,-189.616 1571.17,-172.625 1498,-152 1494.84,-151.109 1491.61,-149.975 1488.45,-148.711"/>
<polygon fill="midnightblue" stroke="midnightblue" points="1489.8,-145.481 1479.24,-144.642 1486.97,-151.884 1489.8,-145.481"/>
</g>
</g>
</svg>
