<?xml version="1.0" encoding="UTF-8" standalone="no"?>
<!DOCTYPE svg PUBLIC "-//W3C//DTD SVG 1.1//EN"
 "http://www.w3.org/Graphics/SVG/1.1/DTD/svg11.dtd">
<!-- Generated by graphviz version 2.26.3 (20100126.1600)
 -->
<!-- Title: progs/Ant&#45;treeTool.cc Pages: 1 -->
<svg width="3776pt" height="276pt"
 viewBox="0.00 0.00 3776.00 276.00" xmlns="http://www.w3.org/2000/svg" xmlns:xlink="http://www.w3.org/1999/xlink">
<g id="graph1" class="graph" transform="scale(1 1) rotate(0) translate(4 272)">
<title>progs/Ant&#45;treeTool.cc</title>
<polygon fill="white" stroke="white" points="-4,5 -4,-272 3773,-272 3773,5 -4,5"/>
<!-- Node1 -->
<g id="node1" class="node"><title>Node1</title>
<polygon fill="#bfbfbf" stroke="black" points="2470,-246.5 2470,-267.5 2580,-267.5 2580,-246.5 2470,-246.5"/>
<text text-anchor="middle" x="2525" y="-254.5" font-family="Helvetica,sans-Serif" font-size="10.00">progs/Ant&#45;treeTool.cc</text>
</g>
<!-- Node2 -->
<g id="node3" class="node"><title>Node2</title>
<a xlink:href="_logger_8h.html" target="_top" xlink:title="base/Logger.h">
<polygon fill="white" stroke="black" points="680,-188.5 680,-209.5 758,-209.5 758,-188.5 680,-188.5"/>
<text text-anchor="middle" x="719" y="-196.5" font-family="Helvetica,sans-Serif" font-size="10.00">base/Logger.h</text>
</a>
</g>
<!-- Node1&#45;&gt;Node2 -->
<g id="edge2" class="edge"><title>Node1&#45;&gt;Node2</title>
<path fill="none" stroke="midnightblue" d="M2469.96,-255.233C2200.58,-246.581 1023.74,-208.787 768.114,-200.577"/>
<polygon fill="midnightblue" stroke="midnightblue" points="768.127,-197.076 758.02,-200.253 767.903,-204.072 768.127,-197.076"/>
</g>
<!-- Node4 -->
<g id="node7" class="node"><title>Node4</title>
<a xlink:href="_cmd_line_8h.html" target="_top" xlink:title="base/CmdLine.h">
<polygon fill="white" stroke="black" points="1519,-188.5 1519,-209.5 1607,-209.5 1607,-188.5 1519,-188.5"/>
<text text-anchor="middle" x="1563" y="-196.5" font-family="Helvetica,sans-Serif" font-size="10.00">base/CmdLine.h</text>
</a>
</g>
<!-- Node1&#45;&gt;Node4 -->
<g id="edge6" class="edge"><title>Node1&#45;&gt;Node4</title>
<path fill="none" stroke="midnightblue" d="M2469.82,-253.673C2299.91,-243.429 1785.91,-212.439 1617.25,-202.271"/>
<polygon fill="midnightblue" stroke="midnightblue" points="1617.31,-198.768 1607.12,-201.66 1616.89,-205.755 1617.31,-198.768"/>
</g>
<!-- Node21 -->
<g id="node41" class="node"><title>Node21</title>
<polygon fill="white" stroke="#bfbfbf" points="2238,-123.5 2238,-144.5 2292,-144.5 2292,-123.5 2238,-123.5"/>
<text text-anchor="middle" x="2265" y="-131.5" font-family="Helvetica,sans-Serif" font-size="10.00">iostream</text>
</g>
<!-- Node1&#45;&gt;Node21 -->
<g id="edge50" class="edge"><title>Node1&#45;&gt;Node21</title>
<path fill="none" stroke="midnightblue" d="M2502.01,-246.459C2461.33,-227.751 2374.06,-187.381 2301,-152 2299.01,-151.035 2296.96,-150.033 2294.89,-149.018"/>
<polygon fill="midnightblue" stroke="midnightblue" points="2296.41,-145.864 2285.9,-144.56 2293.3,-152.136 2296.41,-145.864"/>
</g>
<!-- Node26 -->
<g id="node52" class="node"><title>Node26</title>
<a xlink:href="_wrap_t_file_8h.html" target="_top" xlink:title="base/WrapTFile.h">
<polygon fill="white" stroke="black" points="2590,-188.5 2590,-209.5 2684,-209.5 2684,-188.5 2590,-188.5"/>
<text text-anchor="middle" x="2637" y="-196.5" font-family="Helvetica,sans-Serif" font-size="10.00">base/WrapTFile.h</text>
</a>
</g>
<!-- Node1&#45;&gt;Node26 -->
<g id="edge52" class="edge"><title>Node1&#45;&gt;Node26</title>
<path fill="none" stroke="midnightblue" d="M2545.28,-246.497C2562.62,-237.519 2587.79,-224.484 2607.38,-214.339"/>
<polygon fill="midnightblue" stroke="midnightblue" points="2609.22,-217.328 2616.49,-209.621 2606,-211.112 2609.22,-217.328"/>
</g>
<!-- Node39 -->
<g id="node86" class="node"><title>Node39</title>
<polygon fill="white" stroke="#bfbfbf" points="2702,-188.5 2702,-209.5 2752,-209.5 2752,-188.5 2702,-188.5"/>
<text text-anchor="middle" x="2727" y="-196.5" font-family="Helvetica,sans-Serif" font-size="10.00">TTree.h</text>
</g>
<!-- Node1&#45;&gt;Node39 -->
<g id="edge94" class="edge"><title>Node1&#45;&gt;Node39</title>
<path fill="none" stroke="midnightblue" d="M2564.51,-246.429C2596.5,-237.76 2642.96,-224.931 2691.95,-210.244"/>
<polygon fill="midnightblue" stroke="midnightblue" points="2693.22,-213.518 2701.78,-207.282 2691.2,-206.816 2693.22,-213.518"/>
</g>
<!-- Node40 -->
<g id="node88" class="node"><title>Node40</title>
<a xlink:href="_t_i_d_8h.html" target="_top" xlink:title="tree/TID.h">
<polygon fill="white" stroke="black" points="3311.5,-188.5 3311.5,-209.5 3372.5,-209.5 3372.5,-188.5 3311.5,-188.5"/>
<text text-anchor="middle" x="3342" y="-196.5" font-family="Helvetica,sans-Serif" font-size="10.00">tree/TID.h</text>
</a>
</g>
<!-- Node1&#45;&gt;Node40 -->
<g id="edge96" class="edge"><title>Node1&#45;&gt;Node40</title>
<path fill="none" stroke="midnightblue" d="M2580.19,-253.082C2734.11,-242.155 3165.63,-211.52 3300.91,-201.917"/>
<polygon fill="midnightblue" stroke="midnightblue" points="3301.51,-205.384 3311.23,-201.184 3301.01,-198.401 3301.51,-205.384"/>
</g>
<!-- Node3 -->
<g id="node5" class="node"><title>Node3</title>
<polygon fill="white" stroke="#bfbfbf" points="-0.5,-123.5 -0.5,-144.5 114.5,-144.5 114.5,-123.5 -0.5,-123.5"/>
<text text-anchor="middle" x="57" y="-131.5" font-family="Helvetica,sans-Serif" font-size="10.00">detail/easylogging++.h</text>
</g>
<!-- Node2&#45;&gt;Node3 -->
<g id="edge4" class="edge"><title>Node2&#45;&gt;Node3</title>
<path fill="none" stroke="midnightblue" d="M679.985,-198.447C584.337,-196.547 330.83,-188.205 123,-152 115.76,-150.739 108.165,-149.036 100.808,-147.178"/>
<polygon fill="midnightblue" stroke="midnightblue" points="101.543,-143.752 90.9802,-144.576 99.7513,-150.519 101.543,-143.752"/>
</g>
<!-- Node5 -->
<g id="node9" class="node"><title>Node5</title>
<polygon fill="white" stroke="#bfbfbf" points="658,-123.5 658,-144.5 748,-144.5 748,-123.5 658,-123.5"/>
<text text-anchor="middle" x="703" y="-131.5" font-family="Helvetica,sans-Serif" font-size="10.00">detail/CmdLine.h</text>
</g>
<!-- Node4&#45;&gt;Node5 -->
<g id="edge8" class="edge"><title>Node4&#45;&gt;Node5</title>
<path fill="none" stroke="midnightblue" d="M1518.99,-197.959C1372.9,-194.266 904.969,-180.457 757,-152 751.42,-150.927 745.622,-149.428 739.986,-147.748"/>
<polygon fill="midnightblue" stroke="midnightblue" points="740.689,-144.298 730.098,-144.583 738.555,-150.965 740.689,-144.298"/>
</g>
<!-- Node6 -->
<g id="node11" class="node"><title>Node6</title>
<polygon fill="white" stroke="#bfbfbf" points="765.5,-117 765.5,-151 886.5,-151 886.5,-117 765.5,-117"/>
<text text-anchor="start" x="773.5" y="-138" font-family="Helvetica,sans-Serif" font-size="10.00">base/detail/tclap/Switch</text>
<text text-anchor="middle" x="826" y="-125" font-family="Helvetica,sans-Serif" font-size="10.00">Arg.h</text>
</g>
<!-- Node4&#45;&gt;Node6 -->
<g id="edge10" class="edge"><title>Node4&#45;&gt;Node6</title>
<path fill="none" stroke="midnightblue" d="M1518.64,-196.952C1392.85,-190.979 1034.57,-172.779 897.108,-152.136"/>
<polygon fill="midnightblue" stroke="midnightblue" points="897.245,-148.615 886.822,-150.518 896.157,-155.53 897.245,-148.615"/>
</g>
<!-- Node7 -->
<g id="node13" class="node"><title>Node7</title>
<polygon fill="white" stroke="#bfbfbf" points="904,-117 904,-151 1046,-151 1046,-117 904,-117"/>
<text text-anchor="start" x="912" y="-138" font-family="Helvetica,sans-Serif" font-size="10.00">base/detail/tclap/MultiSwitch</text>
<text text-anchor="middle" x="975" y="-125" font-family="Helvetica,sans-Serif" font-size="10.00">Arg.h</text>
</g>
<!-- Node4&#45;&gt;Node7 -->
<g id="edge12" class="edge"><title>Node4&#45;&gt;Node7</title>
<path fill="none" stroke="midnightblue" d="M1518.93,-196.841C1432.16,-192.177 1232.95,-179.419 1056.02,-152.045"/>
<polygon fill="midnightblue" stroke="midnightblue" points="1056.43,-148.567 1046.01,-150.476 1055.35,-155.482 1056.43,-148.567"/>
</g>
<!-- Node8 -->
<g id="node15" class="node"><title>Node8</title>
<polygon fill="white" stroke="#bfbfbf" points="1064,-117 1064,-151 1198,-151 1198,-117 1064,-117"/>
<text text-anchor="start" x="1072" y="-138" font-family="Helvetica,sans-Serif" font-size="10.00">base/detail/tclap/Unlabeled</text>
<text text-anchor="middle" x="1131" y="-125" font-family="Helvetica,sans-Serif" font-size="10.00">ValueArg.h</text>
</g>
<!-- Node4&#45;&gt;Node8 -->
<g id="edge14" class="edge"><title>Node4&#45;&gt;Node8</title>
<path fill="none" stroke="midnightblue" d="M1518.76,-194.306C1452.02,-186.947 1321.72,-171.499 1212,-152 1210.72,-151.773 1209.44,-151.54 1208.14,-151.301"/>
<polygon fill="midnightblue" stroke="midnightblue" points="1208.58,-147.821 1198.09,-149.374 1207.26,-154.695 1208.58,-147.821"/>
</g>
<!-- Node9 -->
<g id="node17" class="node"><title>Node9</title>
<polygon fill="white" stroke="#bfbfbf" points="1254,-117 1254,-151 1388,-151 1388,-117 1254,-117"/>
<text text-anchor="start" x="1262" y="-138" font-family="Helvetica,sans-Serif" font-size="10.00">base/detail/tclap/Unlabeled</text>
<text text-anchor="middle" x="1321" y="-125" font-family="Helvetica,sans-Serif" font-size="10.00">MultiArg.h</text>
</g>
<!-- Node4&#45;&gt;Node9 -->
<g id="edge16" class="edge"><title>Node4&#45;&gt;Node9</title>
<path fill="none" stroke="midnightblue" d="M1523.85,-188.484C1488.98,-179.118 1437.03,-165.164 1394.43,-153.723"/>
<polygon fill="midnightblue" stroke="midnightblue" points="1395.23,-150.313 1384.66,-151.099 1393.41,-157.073 1395.23,-150.313"/>
</g>
<!-- Node10 -->
<g id="node19" class="node"><title>Node10</title>
<polygon fill="white" stroke="#bfbfbf" points="1406,-123.5 1406,-144.5 1554,-144.5 1554,-123.5 1406,-123.5"/>
<text text-anchor="middle" x="1480" y="-131.5" font-family="Helvetica,sans-Serif" font-size="10.00">base/detail/tclap/XorHandler.h</text>
</g>
<!-- Node4&#45;&gt;Node10 -->
<g id="edge18" class="edge"><title>Node4&#45;&gt;Node10</title>
<path fill="none" stroke="midnightblue" d="M1549.29,-188.267C1536.36,-178.139 1516.76,-162.792 1501.71,-151"/>
<polygon fill="midnightblue" stroke="midnightblue" points="1503.48,-147.944 1493.45,-144.534 1499.17,-153.455 1503.48,-147.944"/>
</g>
<!-- Node11 -->
<g id="node21" class="node"><title>Node11</title>
<polygon fill="white" stroke="#bfbfbf" points="1571.5,-123.5 1571.5,-144.5 1718.5,-144.5 1718.5,-123.5 1571.5,-123.5"/>
<text text-anchor="middle" x="1645" y="-131.5" font-family="Helvetica,sans-Serif" font-size="10.00">base/detail/tclap/HelpVisitor.h</text>
</g>
<!-- Node4&#45;&gt;Node11 -->
<g id="edge20" class="edge"><title>Node4&#45;&gt;Node11</title>
<path fill="none" stroke="midnightblue" d="M1576.54,-188.267C1589.32,-178.139 1608.68,-162.792 1623.55,-151"/>
<polygon fill="midnightblue" stroke="midnightblue" points="1626.05,-153.488 1631.71,-144.534 1621.7,-148.003 1626.05,-153.488"/>
</g>
<!-- Node12 -->
<g id="node23" class="node"><title>Node12</title>
<polygon fill="white" stroke="#bfbfbf" points="1736,-117 1736,-151 1860,-151 1860,-117 1736,-117"/>
<text text-anchor="start" x="1744" y="-138" font-family="Helvetica,sans-Serif" font-size="10.00">base/detail/tclap/Version</text>
<text text-anchor="middle" x="1798" y="-125" font-family="Helvetica,sans-Serif" font-size="10.00">Visitor.h</text>
</g>
<!-- Node4&#45;&gt;Node12 -->
<g id="edge22" class="edge"><title>Node4&#45;&gt;Node12</title>
<path fill="none" stroke="midnightblue" d="M1601.02,-188.484C1634.81,-179.137 1685.12,-165.223 1726.43,-153.796"/>
<polygon fill="midnightblue" stroke="midnightblue" points="1727.48,-157.138 1736.18,-151.099 1725.61,-150.391 1727.48,-157.138"/>
</g>
<!-- Node13 -->
<g id="node25" class="node"><title>Node13</title>
<polygon fill="white" stroke="#bfbfbf" points="1878,-117 1878,-151 1996,-151 1996,-117 1878,-117"/>
<text text-anchor="start" x="1886" y="-138" font-family="Helvetica,sans-Serif" font-size="10.00">base/detail/tclap/Ignore</text>
<text text-anchor="middle" x="1937" y="-125" font-family="Helvetica,sans-Serif" font-size="10.00">RestVisitor.h</text>
</g>
<!-- Node4&#45;&gt;Node13 -->
<g id="edge24" class="edge"><title>Node4&#45;&gt;Node13</title>
<path fill="none" stroke="midnightblue" d="M1607.1,-193.725C1664.88,-186.483 1769.51,-172.24 1867.94,-152.111"/>
<polygon fill="midnightblue" stroke="midnightblue" points="1868.67,-155.535 1877.75,-150.081 1867.25,-148.68 1868.67,-155.535"/>
</g>
<!-- Node14 -->
<g id="node27" class="node"><title>Node14</title>
<polygon fill="white" stroke="#bfbfbf" points="2014,-117 2014,-151 2144,-151 2144,-117 2014,-117"/>
<text text-anchor="start" x="2022" y="-138" font-family="Helvetica,sans-Serif" font-size="10.00">base/detail/tclap/CmdLine</text>
<text text-anchor="middle" x="2079" y="-125" font-family="Helvetica,sans-Serif" font-size="10.00">Output.h</text>
</g>
<!-- Node4&#45;&gt;Node14 -->
<g id="edge26" class="edge"><title>Node4&#45;&gt;Node14</title>
<path fill="none" stroke="midnightblue" d="M1607.18,-196.251C1685.33,-190.965 1853.14,-177.72 2003.83,-152.081"/>
<polygon fill="midnightblue" stroke="midnightblue" points="2004.47,-155.522 2013.73,-150.374 2003.28,-148.624 2004.47,-155.522"/>
</g>
<!-- Node15 -->
<g id="node29" class="node"><title>Node15</title>
<polygon fill="white" stroke="#bfbfbf" points="131.5,-123.5 131.5,-144.5 274.5,-144.5 274.5,-123.5 131.5,-123.5"/>
<text text-anchor="middle" x="203" y="-131.5" font-family="Helvetica,sans-Serif" font-size="10.00">base/detail/tclap/StdOutput.h</text>
</g>
<!-- Node4&#45;&gt;Node15 -->
<g id="edge28" class="edge"><title>Node4&#45;&gt;Node15</title>
<path fill="none" stroke="midnightblue" d="M1518.92,-198.474C1322.97,-195.968 529.711,-184.006 283,-152 273.255,-150.736 262.95,-148.845 253.094,-146.757"/>
<polygon fill="midnightblue" stroke="midnightblue" points="253.549,-143.273 243.029,-144.528 252.035,-150.107 253.549,-143.273"/>
</g>
<!-- Node16 -->
<g id="node31" class="node"><title>Node16</title>
<polygon fill="white" stroke="#bfbfbf" points="292,-123.5 292,-144.5 436,-144.5 436,-123.5 292,-123.5"/>
<text text-anchor="middle" x="364" y="-131.5" font-family="Helvetica,sans-Serif" font-size="10.00">base/detail/tclap/Constraint.h</text>
</g>
<!-- Node4&#45;&gt;Node16 -->
<g id="edge30" class="edge"><title>Node4&#45;&gt;Node16</title>
<path fill="none" stroke="midnightblue" d="M1518.88,-198.187C1338.7,-194.706 658.207,-179.948 445,-152 435.144,-150.708 424.717,-148.805 414.743,-146.714"/>
<polygon fill="midnightblue" stroke="midnightblue" points="415.473,-143.291 404.957,-144.576 413.979,-150.13 415.473,-143.291"/>
</g>
<!-- Node17 -->
<g id="node33" class="node"><title>Node17</title>
<polygon fill="white" stroke="#bfbfbf" points="453.5,-117 453.5,-151 574.5,-151 574.5,-117 453.5,-117"/>
<text text-anchor="start" x="461.5" y="-138" font-family="Helvetica,sans-Serif" font-size="10.00">base/detail/tclap/Values</text>
<text text-anchor="middle" x="514" y="-125" font-family="Helvetica,sans-Serif" font-size="10.00">Constraint.h</text>
</g>
<!-- Node4&#45;&gt;Node17 -->
<g id="edge32" class="edge"><title>Node4&#45;&gt;Node17</title>
<path fill="none" stroke="midnightblue" d="M1518.77,-198.097C1355.57,-194.579 786.599,-180.617 584.717,-152.053"/>
<polygon fill="midnightblue" stroke="midnightblue" points="585.214,-148.588 574.81,-150.593 584.193,-155.513 585.214,-148.588"/>
</g>
<!-- Node18 -->
<g id="node35" class="node"><title>Node18</title>
<polygon fill="white" stroke="#bfbfbf" points="2369.5,-0.5 2369.5,-21.5 2410.5,-21.5 2410.5,-0.5 2369.5,-0.5"/>
<text text-anchor="middle" x="2390" y="-8.5" font-family="Helvetica,sans-Serif" font-size="10.00">string</text>
</g>
<!-- Node4&#45;&gt;Node18 -->
<g id="edge34" class="edge"><title>Node4&#45;&gt;Node18</title>
<path fill="none" stroke="midnightblue" d="M1518.87,-195.644C1435.74,-188.874 1262.66,-172.464 1245,-152 1234.55,-139.887 1234.22,-127.819 1245,-116 1322.35,-31.2365 2184.47,-14.0323 2359.22,-11.4077"/>
<polygon fill="midnightblue" stroke="midnightblue" points="2359.33,-14.9065 2369.27,-11.2615 2359.22,-7.90728 2359.33,-14.9065"/>
</g>
<!-- Node19 -->
<g id="node37" class="node"><title>Node19</title>
<polygon fill="white" stroke="#bfbfbf" points="3038,-0.5 3038,-21.5 3082,-21.5 3082,-0.5 3038,-0.5"/>
<text text-anchor="middle" x="3060" y="-8.5" font-family="Helvetica,sans-Serif" font-size="10.00">vector</text>
</g>
<!-- Node4&#45;&gt;Node19 -->
<g id="edge36" class="edge"><title>Node4&#45;&gt;Node19</title>
<path fill="none" stroke="midnightblue" d="M1607.41,-197.324C1741.44,-192.035 2135.88,-174.7 2189,-152 2210.99,-142.601 2207.36,-126.188 2229,-116 2308.47,-78.5825 2532.87,-69.1117 2620,-58 2772.22,-38.5884 2954.77,-20.8552 3027.65,-13.9991"/>
<polygon fill="midnightblue" stroke="midnightblue" points="3028.36,-17.4482 3037.99,-13.0304 3027.7,-10.4787 3028.36,-17.4482"/>
</g>
<!-- Node20 -->
<g id="node39" class="node"><title>Node20</title>
<polygon fill="white" stroke="#bfbfbf" points="3021.5,-123.5 3021.5,-144.5 3050.5,-144.5 3050.5,-123.5 3021.5,-123.5"/>
<text text-anchor="middle" x="3036" y="-131.5" font-family="Helvetica,sans-Serif" font-size="10.00">list</text>
</g>
<!-- Node4&#45;&gt;Node20 -->
<g id="edge38" class="edge"><title>Node4&#45;&gt;Node20</title>
<path fill="none" stroke="midnightblue" d="M1607.26,-198.339C1843.26,-194.719 2945.38,-176.548 3013,-152 3014.23,-151.552 3015.45,-151.011 3016.65,-150.4"/>
<polygon fill="midnightblue" stroke="midnightblue" points="3018.78,-153.185 3025.18,-144.737 3014.91,-147.353 3018.78,-153.185"/>
</g>
<!-- Node4&#45;&gt;Node21 -->
<g id="edge40" class="edge"><title>Node4&#45;&gt;Node21</title>
<path fill="none" stroke="midnightblue" d="M1607.08,-197.827C1735.3,-194.107 2106.45,-181.057 2224,-152 2227.69,-151.088 2231.46,-149.869 2235.16,-148.492"/>
<polygon fill="midnightblue" stroke="midnightblue" points="2236.72,-151.633 2244.63,-144.584 2234.05,-145.162 2236.72,-151.633"/>
</g>
<!-- Node22 -->
<g id="node43" class="node"><title>Node22</title>
<polygon fill="white" stroke="#bfbfbf" points="3068,-123.5 3068,-144.5 3118,-144.5 3118,-123.5 3068,-123.5"/>
<text text-anchor="middle" x="3093" y="-131.5" font-family="Helvetica,sans-Serif" font-size="10.00">iomanip</text>
</g>
<!-- Node4&#45;&gt;Node22 -->
<g id="edge42" class="edge"><title>Node4&#45;&gt;Node22</title>
<path fill="none" stroke="midnightblue" d="M1607.25,-198.8C1839.86,-197.592 2915.75,-189.977 3059,-152 3061.84,-151.246 3064.72,-150.218 3067.52,-149.033"/>
<polygon fill="midnightblue" stroke="midnightblue" points="3069.22,-152.099 3076.68,-144.569 3066.15,-145.807 3069.22,-152.099"/>
</g>
<!-- Node23 -->
<g id="node45" class="node"><title>Node23</title>
<polygon fill="white" stroke="#bfbfbf" points="2833,-0.5 2833,-21.5 2889,-21.5 2889,-0.5 2833,-0.5"/>
<text text-anchor="middle" x="2861" y="-8.5" font-family="Helvetica,sans-Serif" font-size="10.00">algorithm</text>
</g>
<!-- Node4&#45;&gt;Node23 -->
<g id="edge44" class="edge"><title>Node4&#45;&gt;Node23</title>
<path fill="none" stroke="midnightblue" d="M1607.09,-197.035C1735.43,-191.099 2102.89,-172.496 2153,-152 2176.07,-142.564 2173.88,-127.477 2196,-116 2285,-69.8334 2315.4,-76.1857 2414,-58 2563.7,-30.3893 2744.81,-17.5669 2822.53,-13.0275"/>
<polygon fill="midnightblue" stroke="midnightblue" points="2823.02,-16.5057 2832.8,-12.4413 2822.62,-9.51708 2823.02,-16.5057"/>
</g>
<!-- Node24 -->
<g id="node47" class="node"><title>Node24</title>
<polygon fill="white" stroke="#bfbfbf" points="592,-123.5 592,-144.5 640,-144.5 640,-123.5 592,-123.5"/>
<text text-anchor="middle" x="616" y="-131.5" font-family="Helvetica,sans-Serif" font-size="10.00">stdlib.h</text>
</g>
<!-- Node4&#45;&gt;Node24 -->
<g id="edge46" class="edge"><title>Node4&#45;&gt;Node24</title>
<path fill="none" stroke="midnightblue" d="M1518.85,-197.883C1347.66,-193.393 733.097,-175.761 649,-152 646.382,-151.26 643.741,-150.284 641.155,-149.168"/>
<polygon fill="midnightblue" stroke="midnightblue" points="642.675,-146.015 632.164,-144.687 639.553,-152.28 642.675,-146.015"/>
</g>
<!-- Node25 -->
<g id="node49" class="node"><title>Node25</title>
<polygon fill="white" stroke="#bfbfbf" points="2310,-123.5 2310,-144.5 2362,-144.5 2362,-123.5 2310,-123.5"/>
<text text-anchor="middle" x="2336" y="-131.5" font-family="Helvetica,sans-Serif" font-size="10.00">memory</text>
</g>
<!-- Node4&#45;&gt;Node25 -->
<g id="edge48" class="edge"><title>Node4&#45;&gt;Node25</title>
<path fill="none" stroke="midnightblue" d="M1607.31,-198.546C1745.82,-196.758 2169.2,-188.379 2301,-152 2303.84,-151.216 2306.72,-150.185 2309.54,-149.013"/>
<polygon fill="midnightblue" stroke="midnightblue" points="2311.23,-152.082 2318.77,-144.638 2308.24,-145.757 2311.23,-152.082"/>
</g>
<!-- Node26&#45;&gt;Node18 -->
<g id="edge86" class="edge"><title>Node26&#45;&gt;Node18</title>
<path fill="none" stroke="midnightblue" d="M2589.68,-193.428C2537.28,-186.342 2457.23,-172.511 2435,-152 2400.69,-120.34 2392.41,-62.598 2390.5,-31.7426"/>
<polygon fill="midnightblue" stroke="midnightblue" points="2393.99,-31.5215 2390.05,-21.6894 2387,-31.837 2393.99,-31.5215"/>
</g>
<!-- Node26&#45;&gt;Node20 -->
<g id="edge88" class="edge"><title>Node26&#45;&gt;Node20</title>
<path fill="none" stroke="midnightblue" d="M2684,-189.477C2687.04,-188.951 2690.06,-188.453 2693,-188 2834.45,-166.189 2880.52,-206.152 3013,-152 3014.21,-151.504 3015.42,-150.924 3016.6,-150.282"/>
<polygon fill="midnightblue" stroke="midnightblue" points="3018.78,-153.033 3025.09,-144.524 3014.85,-147.24 3018.78,-153.033"/>
</g>
<!-- Node26&#45;&gt;Node25 -->
<g id="edge84" class="edge"><title>Node26&#45;&gt;Node25</title>
<path fill="none" stroke="midnightblue" d="M2589.97,-194.046C2537.07,-187.669 2449,-174.623 2376,-152 2372.8,-151.008 2369.52,-149.826 2366.28,-148.547"/>
<polygon fill="midnightblue" stroke="midnightblue" points="2367.37,-145.21 2356.8,-144.519 2364.63,-151.652 2367.37,-145.21"/>
</g>
<!-- Node27 -->
<g id="node54" class="node"><title>Node27</title>
<a xlink:href="string_8h.html" target="_top" xlink:title="base/std_ext/string.h">
<polygon fill="white" stroke="black" points="3039,-58.5 3039,-79.5 3147,-79.5 3147,-58.5 3039,-58.5"/>
<text text-anchor="middle" x="3093" y="-66.5" font-family="Helvetica,sans-Serif" font-size="10.00">base/std_ext/string.h</text>
</a>
</g>
<!-- Node26&#45;&gt;Node27 -->
<g id="edge54" class="edge"><title>Node26&#45;&gt;Node27</title>
<path fill="none" stroke="midnightblue" d="M2684.29,-189.326C2687.23,-188.844 2690.15,-188.396 2693,-188 2740.93,-181.326 3094.23,-187.602 3127,-152 3143.92,-133.619 3126.28,-105.68 3110.75,-87.381"/>
<polygon fill="midnightblue" stroke="midnightblue" points="3113.17,-84.8391 3103.9,-79.7206 3107.96,-89.5068 3113.17,-84.8391"/>
</g>
<!-- Node29 -->
<g id="node61" class="node"><title>Node29</title>
<a xlink:href="misc_8h.html" target="_top" xlink:title="base/std_ext/misc.h">
<polygon fill="white" stroke="black" points="2835.5,-123.5 2835.5,-144.5 2940.5,-144.5 2940.5,-123.5 2835.5,-123.5"/>
<text text-anchor="middle" x="2888" y="-131.5" font-family="Helvetica,sans-Serif" font-size="10.00">base/std_ext/misc.h</text>
</a>
</g>
<!-- Node26&#45;&gt;Node29 -->
<g id="edge64" class="edge"><title>Node26&#45;&gt;Node29</title>
<path fill="none" stroke="midnightblue" d="M2682.06,-188.45C2720.65,-179.272 2777.64,-165.38 2827,-152 2832.33,-150.556 2837.9,-148.989 2843.42,-147.402"/>
<polygon fill="midnightblue" stroke="midnightblue" points="2844.61,-150.701 2853.24,-144.548 2842.66,-143.98 2844.61,-150.701"/>
</g>
<!-- Node30 -->
<g id="node64" class="node"><title>Node30</title>
<polygon fill="white" stroke="#bfbfbf" points="2628.5,-58.5 2628.5,-79.5 2687.5,-79.5 2687.5,-58.5 2628.5,-58.5"/>
<text text-anchor="middle" x="2658" y="-66.5" font-family="Helvetica,sans-Serif" font-size="10.00">functional</text>
</g>
<!-- Node26&#45;&gt;Node30 -->
<g id="edge92" class="edge"><title>Node26&#45;&gt;Node30</title>
<path fill="none" stroke="midnightblue" d="M2589.97,-195.2C2521.22,-187.835 2405.68,-167.534 2447,-116 2468.06,-89.7301 2563.26,-77.1958 2618.32,-72.0481"/>
<polygon fill="midnightblue" stroke="midnightblue" points="2618.79,-75.5204 2628.44,-71.1432 2618.16,-68.5483 2618.79,-75.5204"/>
</g>
<!-- Node32 -->
<g id="node68" class="node"><title>Node32</title>
<polygon fill="white" stroke="#bfbfbf" points="2957.5,-123.5 2957.5,-144.5 3004.5,-144.5 3004.5,-123.5 2957.5,-123.5"/>
<text text-anchor="middle" x="2981" y="-131.5" font-family="Helvetica,sans-Serif" font-size="10.00">TFile.h</text>
</g>
<!-- Node26&#45;&gt;Node32 -->
<g id="edge72" class="edge"><title>Node26&#45;&gt;Node32</title>
<path fill="none" stroke="midnightblue" d="M2684.02,-189.572C2687.06,-189.023 2690.07,-188.494 2693,-188 2806.3,-168.92 2840.16,-188.802 2949,-152 2951.29,-151.225 2953.61,-150.284 2955.89,-149.243"/>
<polygon fill="midnightblue" stroke="midnightblue" points="2957.66,-152.269 2964.94,-144.572 2954.45,-146.049 2957.66,-152.269"/>
</g>
<!-- Node33 -->
<g id="node70" class="node"><title>Node33</title>
<polygon fill="white" stroke="#bfbfbf" points="2455.5,-123.5 2455.5,-144.5 2526.5,-144.5 2526.5,-123.5 2455.5,-123.5"/>
<text text-anchor="middle" x="2491" y="-131.5" font-family="Helvetica,sans-Serif" font-size="10.00">TDirectory.h</text>
</g>
<!-- Node26&#45;&gt;Node33 -->
<g id="edge74" class="edge"><title>Node26&#45;&gt;Node33</title>
<path fill="none" stroke="midnightblue" d="M2613.22,-188.412C2589.04,-177.647 2551.37,-160.878 2524.25,-148.801"/>
<polygon fill="midnightblue" stroke="midnightblue" points="2525.33,-145.453 2514.77,-144.584 2522.48,-151.848 2525.33,-145.453"/>
</g>
<!-- Node34 -->
<g id="node72" class="node"><title>Node34</title>
<polygon fill="white" stroke="#bfbfbf" points="2544,-123.5 2544,-144.5 2596,-144.5 2596,-123.5 2544,-123.5"/>
<text text-anchor="middle" x="2570" y="-131.5" font-family="Helvetica,sans-Serif" font-size="10.00">TError.h</text>
</g>
<!-- Node26&#45;&gt;Node34 -->
<g id="edge76" class="edge"><title>Node26&#45;&gt;Node34</title>
<path fill="none" stroke="midnightblue" d="M2625.94,-188.267C2615.69,-178.328 2600.27,-163.363 2588.21,-151.664"/>
<polygon fill="midnightblue" stroke="midnightblue" points="2590.47,-148.985 2580.86,-144.534 2585.6,-154.009 2590.47,-148.985"/>
</g>
<!-- Node35 -->
<g id="node74" class="node"><title>Node35</title>
<polygon fill="white" stroke="#bfbfbf" points="2613.5,-123.5 2613.5,-144.5 2660.5,-144.5 2660.5,-123.5 2613.5,-123.5"/>
<text text-anchor="middle" x="2637" y="-131.5" font-family="Helvetica,sans-Serif" font-size="10.00">TList.h</text>
</g>
<!-- Node26&#45;&gt;Node35 -->
<g id="edge78" class="edge"><title>Node26&#45;&gt;Node35</title>
<path fill="none" stroke="midnightblue" d="M2637,-188.267C2637,-179.18 2637,-165.892 2637,-154.74"/>
<polygon fill="midnightblue" stroke="midnightblue" points="2640.5,-154.534 2637,-144.534 2633.5,-154.534 2640.5,-154.534"/>
</g>
<!-- Node36 -->
<g id="node76" class="node"><title>Node36</title>
<polygon fill="white" stroke="#bfbfbf" points="2678,-123.5 2678,-144.5 2752,-144.5 2752,-123.5 2678,-123.5"/>
<text text-anchor="middle" x="2715" y="-131.5" font-family="Helvetica,sans-Serif" font-size="10.00">TCollection.h</text>
</g>
<!-- Node26&#45;&gt;Node36 -->
<g id="edge80" class="edge"><title>Node26&#45;&gt;Node36</title>
<path fill="none" stroke="midnightblue" d="M2649.88,-188.267C2662.03,-178.139 2680.45,-162.792 2694.6,-151"/>
<polygon fill="midnightblue" stroke="midnightblue" points="2696.92,-153.624 2702.36,-144.534 2692.44,-148.247 2696.92,-153.624"/>
</g>
<!-- Node37 -->
<g id="node78" class="node"><title>Node37</title>
<polygon fill="white" stroke="#bfbfbf" points="2770,-123.5 2770,-144.5 2818,-144.5 2818,-123.5 2770,-123.5"/>
<text text-anchor="middle" x="2794" y="-131.5" font-family="Helvetica,sans-Serif" font-size="10.00">TKey.h</text>
</g>
<!-- Node26&#45;&gt;Node37 -->
<g id="edge82" class="edge"><title>Node26&#45;&gt;Node37</title>
<path fill="none" stroke="midnightblue" d="M2668.31,-188.471C2693.68,-179.624 2730.15,-166.181 2761,-152 2762.82,-151.162 2764.68,-150.266 2766.55,-149.337"/>
<polygon fill="midnightblue" stroke="midnightblue" points="2768.48,-152.276 2775.73,-144.545 2765.24,-146.071 2768.48,-152.276"/>
</g>
<!-- Node38 -->
<g id="node83" class="node"><title>Node38</title>
<polygon fill="white" stroke="#bfbfbf" points="3173.5,-123.5 3173.5,-144.5 3232.5,-144.5 3232.5,-123.5 3173.5,-123.5"/>
<text text-anchor="middle" x="3203" y="-131.5" font-family="Helvetica,sans-Serif" font-size="10.00">stdexcept</text>
</g>
<!-- Node26&#45;&gt;Node38 -->
<g id="edge90" class="edge"><title>Node26&#45;&gt;Node38</title>
<path fill="none" stroke="midnightblue" d="M2684.29,-189.307C2687.23,-188.829 2690.15,-188.388 2693,-188 2899.26,-159.89 2957.63,-200.813 3160,-152 3163.96,-151.045 3168.02,-149.77 3172,-148.338"/>
<polygon fill="midnightblue" stroke="midnightblue" points="3173.57,-151.48 3181.58,-144.547 3170.99,-144.971 3173.57,-151.48"/>
</g>
<!-- Node27&#45;&gt;Node18 -->
<g id="edge56" class="edge"><title>Node27&#45;&gt;Node18</title>
<path fill="none" stroke="midnightblue" d="M3038.71,-64.5211C2898.92,-52.988 2529.93,-22.5449 2420.81,-13.5422"/>
<polygon fill="midnightblue" stroke="midnightblue" points="2421.05,-10.0498 2410.79,-12.7156 2420.47,-17.0261 2421.05,-10.0498"/>
</g>
<!-- Node27&#45;&gt;Node19 -->
<g id="edge62" class="edge"><title>Node27&#45;&gt;Node19</title>
<path fill="none" stroke="midnightblue" d="M3086.95,-58.3619C3082.53,-50.5949 3076.41,-39.8426 3071.12,-30.5458"/>
<polygon fill="midnightblue" stroke="midnightblue" points="3074,-28.5315 3066.01,-21.5707 3067.92,-31.9932 3074,-28.5315"/>
</g>
<!-- Node27&#45;&gt;Node23 -->
<g id="edge60" class="edge"><title>Node27&#45;&gt;Node23</title>
<path fill="none" stroke="midnightblue" d="M3050.99,-58.4966C3007.68,-47.6699 2940.76,-30.9401 2898.99,-20.4976"/>
<polygon fill="midnightblue" stroke="midnightblue" points="2899.75,-17.0796 2889.2,-18.0497 2898.05,-23.8706 2899.75,-17.0796"/>
</g>
<!-- Node28 -->
<g id="node57" class="node"><title>Node28</title>
<polygon fill="white" stroke="#bfbfbf" points="3100,-0.5 3100,-21.5 3152,-21.5 3152,-0.5 3100,-0.5"/>
<text text-anchor="middle" x="3126" y="-8.5" font-family="Helvetica,sans-Serif" font-size="10.00">sstream</text>
</g>
<!-- Node27&#45;&gt;Node28 -->
<g id="edge58" class="edge"><title>Node27&#45;&gt;Node28</title>
<path fill="none" stroke="midnightblue" d="M3099.05,-58.3619C3103.47,-50.5949 3109.59,-39.8426 3114.88,-30.5458"/>
<polygon fill="midnightblue" stroke="midnightblue" points="3118.08,-31.9932 3119.99,-21.5707 3112,-28.5315 3118.08,-31.9932"/>
</g>
<!-- Node29&#45;&gt;Node23 -->
<g id="edge66" class="edge"><title>Node29&#45;&gt;Node23</title>
<path fill="none" stroke="midnightblue" d="M2885.6,-123.085C2881.11,-102.609 2871.35,-58.133 2865.56,-31.778"/>
<polygon fill="midnightblue" stroke="midnightblue" points="2868.91,-30.7323 2863.35,-21.7153 2862.08,-32.2332 2868.91,-30.7323"/>
</g>
<!-- Node29&#45;&gt;Node30 -->
<g id="edge68" class="edge"><title>Node29&#45;&gt;Node30</title>
<path fill="none" stroke="midnightblue" d="M2852.55,-123.436C2844.18,-120.97 2835.28,-118.373 2827,-116 2782.83,-103.341 2732.01,-89.2764 2697.73,-79.8612"/>
<polygon fill="midnightblue" stroke="midnightblue" points="2698.22,-76.3657 2687.65,-77.0952 2696.37,-83.1163 2698.22,-76.3657"/>
</g>
<!-- Node31 -->
<g id="node66" class="node"><title>Node31</title>
<polygon fill="white" stroke="#bfbfbf" points="2888.5,-58.5 2888.5,-79.5 2941.5,-79.5 2941.5,-58.5 2888.5,-58.5"/>
<text text-anchor="middle" x="2915" y="-66.5" font-family="Helvetica,sans-Serif" font-size="10.00">cxxabi.h</text>
</g>
<!-- Node29&#45;&gt;Node31 -->
<g id="edge70" class="edge"><title>Node29&#45;&gt;Node31</title>
<path fill="none" stroke="midnightblue" d="M2892.46,-123.267C2896.31,-113.991 2901.98,-100.336 2906.67,-89.0453"/>
<polygon fill="midnightblue" stroke="midnightblue" points="2910.02,-90.1113 2910.62,-79.5337 2903.56,-87.426 2910.02,-90.1113"/>
</g>
<!-- Node40&#45;&gt;Node20 -->
<g id="edge122" class="edge"><title>Node40&#45;&gt;Node20</title>
<path fill="none" stroke="midnightblue" d="M3311.47,-195.86C3248.01,-189.023 3104.02,-171.799 3059,-152 3057.98,-151.551 3056.96,-151.046 3055.96,-150.498"/>
<polygon fill="midnightblue" stroke="midnightblue" points="3057.69,-147.442 3047.44,-144.761 3053.78,-153.249 3057.69,-147.442"/>
</g>
<!-- Node40&#45;&gt;Node22 -->
<g id="edge124" class="edge"><title>Node40&#45;&gt;Node22</title>
<path fill="none" stroke="midnightblue" d="M3311.47,-191.03C3265.03,-178.908 3176.9,-155.903 3127.96,-143.127"/>
<polygon fill="midnightblue" stroke="midnightblue" points="3128.7,-139.703 3118.14,-140.564 3126.94,-146.476 3128.7,-139.703"/>
</g>
<!-- Node40&#45;&gt;Node38 -->
<g id="edge120" class="edge"><title>Node40&#45;&gt;Node38</title>
<path fill="none" stroke="midnightblue" d="M3319.11,-188.405C3298.63,-178.908 3267.79,-164.576 3241,-152 3238.96,-151.042 3236.86,-150.053 3234.74,-149.055"/>
<polygon fill="midnightblue" stroke="midnightblue" points="3236.03,-145.793 3225.49,-144.686 3233.04,-152.122 3236.03,-145.793"/>
</g>
<!-- Node41 -->
<g id="node90" class="node"><title>Node41</title>
<polygon fill="white" stroke="#bfbfbf" points="3314,-123.5 3314,-144.5 3370,-144.5 3370,-123.5 3314,-123.5"/>
<text text-anchor="middle" x="3342" y="-131.5" font-family="Helvetica,sans-Serif" font-size="10.00">Rtypes.h</text>
</g>
<!-- Node40&#45;&gt;Node41 -->
<g id="edge98" class="edge"><title>Node40&#45;&gt;Node41</title>
<path fill="none" stroke="midnightblue" d="M3342,-188.267C3342,-179.18 3342,-165.892 3342,-154.74"/>
<polygon fill="midnightblue" stroke="midnightblue" points="3345.5,-154.534 3342,-144.534 3338.5,-154.534 3345.5,-154.534"/>
</g>
<!-- Node42 -->
<g id="node92" class="node"><title>Node42</title>
<a xlink:href="printable_8h.html" target="_top" xlink:title="base/printable.h">
<polygon fill="white" stroke="black" points="3546,-123.5 3546,-144.5 3632,-144.5 3632,-123.5 3546,-123.5"/>
<text text-anchor="middle" x="3589" y="-131.5" font-family="Helvetica,sans-Serif" font-size="10.00">base/printable.h</text>
</a>
</g>
<!-- Node40&#45;&gt;Node42 -->
<g id="edge100" class="edge"><title>Node40&#45;&gt;Node42</title>
<path fill="none" stroke="midnightblue" d="M3372.76,-192.024C3410.47,-183.327 3476.23,-167.687 3532,-152 3536.93,-150.613 3542.08,-149.092 3547.18,-147.54"/>
<polygon fill="midnightblue" stroke="midnightblue" points="3548.34,-150.845 3556.85,-144.544 3546.26,-144.159 3548.34,-150.845"/>
</g>
<!-- Node44 -->
<g id="node97" class="node"><title>Node44</title>
<a xlink:href="time_8h.html" target="_top" xlink:title="base/std_ext/time.h">
<polygon fill="white" stroke="black" points="3387.5,-123.5 3387.5,-144.5 3490.5,-144.5 3490.5,-123.5 3387.5,-123.5"/>
<text text-anchor="middle" x="3439" y="-131.5" font-family="Helvetica,sans-Serif" font-size="10.00">base/std_ext/time.h</text>
</a>
</g>
<!-- Node40&#45;&gt;Node44 -->
<g id="edge106" class="edge"><title>Node40&#45;&gt;Node44</title>
<path fill="none" stroke="midnightblue" d="M3358.02,-188.267C3373.41,-177.949 3396.89,-162.216 3414.61,-150.342"/>
<polygon fill="midnightblue" stroke="midnightblue" points="3416.92,-153.008 3423.28,-144.534 3413.02,-147.193 3416.92,-153.008"/>
</g>
<!-- Node46 -->
<g id="node102" class="node"><title>Node46</title>
<polygon fill="white" stroke="#bfbfbf" points="3472.5,-58.5 3472.5,-79.5 3513.5,-79.5 3513.5,-58.5 3472.5,-58.5"/>
<text text-anchor="middle" x="3493" y="-66.5" font-family="Helvetica,sans-Serif" font-size="10.00">ctime</text>
</g>
<!-- Node40&#45;&gt;Node46 -->
<g id="edge126" class="edge"><title>Node40&#45;&gt;Node46</title>
<path fill="none" stroke="midnightblue" d="M3372.63,-194.226C3413.88,-187.1 3483.88,-172.312 3499,-152 3512.34,-134.079 3507.37,-107.52 3501.35,-89.3003"/>
<polygon fill="midnightblue" stroke="midnightblue" points="3504.54,-87.8449 3497.81,-79.6645 3497.97,-90.2581 3504.54,-87.8449"/>
</g>
<!-- Node47 -->
<g id="node104" class="node"><title>Node47</title>
<polygon fill="white" stroke="#bfbfbf" points="3650,-123.5 3650,-144.5 3712,-144.5 3712,-123.5 3650,-123.5"/>
<text text-anchor="middle" x="3681" y="-131.5" font-family="Helvetica,sans-Serif" font-size="10.00">type_traits</text>
</g>
<!-- Node40&#45;&gt;Node47 -->
<g id="edge114" class="edge"><title>Node40&#45;&gt;Node47</title>
<path fill="none" stroke="midnightblue" d="M3372.73,-196.886C3427.58,-192.516 3545.56,-180.415 3641,-152 3644.21,-151.044 3647.5,-149.885 3650.75,-148.62"/>
<polygon fill="midnightblue" stroke="midnightblue" points="3652.38,-151.729 3660.23,-144.611 3649.65,-145.282 3652.38,-151.729"/>
</g>
<!-- Node48 -->
<g id="node106" class="node"><title>Node48</title>
<polygon fill="white" stroke="#bfbfbf" points="3730,-123.5 3730,-144.5 3768,-144.5 3768,-123.5 3730,-123.5"/>
<text text-anchor="middle" x="3749" y="-131.5" font-family="Helvetica,sans-Serif" font-size="10.00">tuple</text>
</g>
<!-- Node40&#45;&gt;Node48 -->
<g id="edge116" class="edge"><title>Node40&#45;&gt;Node48</title>
<path fill="none" stroke="midnightblue" d="M3372.66,-196.962C3451.01,-191.475 3656.86,-175.219 3721,-152 3722.68,-151.391 3724.36,-150.667 3726.03,-149.864"/>
<polygon fill="midnightblue" stroke="midnightblue" points="3728.18,-152.664 3735.12,-144.657 3724.7,-146.589 3728.18,-152.664"/>
</g>
<!-- Node49 -->
<g id="node108" class="node"><title>Node49</title>
<polygon fill="white" stroke="#bfbfbf" points="3250,-123.5 3250,-144.5 3296,-144.5 3296,-123.5 3250,-123.5"/>
<text text-anchor="middle" x="3273" y="-131.5" font-family="Helvetica,sans-Serif" font-size="10.00">cstdint</text>
</g>
<!-- Node40&#45;&gt;Node49 -->
<g id="edge118" class="edge"><title>Node40&#45;&gt;Node49</title>
<path fill="none" stroke="midnightblue" d="M3330.61,-188.267C3320.06,-178.328 3304.17,-163.363 3291.75,-151.664"/>
<polygon fill="midnightblue" stroke="midnightblue" points="3293.86,-148.843 3284.18,-144.534 3289.06,-153.938 3293.86,-148.843"/>
</g>
<!-- Node42&#45;&gt;Node19 -->
<g id="edge102" class="edge"><title>Node42&#45;&gt;Node19</title>
<path fill="none" stroke="midnightblue" d="M3583.27,-123.356C3573.35,-106.156 3551.23,-72.6941 3522,-58 3438.81,-16.1824 3200.49,-40.5941 3092.22,-21.6081"/>
<polygon fill="midnightblue" stroke="midnightblue" points="3092.64,-18.1246 3082.15,-19.6316 3091.29,-24.9934 3092.64,-18.1246"/>
</g>
<!-- Node43 -->
<g id="node95" class="node"><title>Node43</title>
<polygon fill="white" stroke="#bfbfbf" points="3569,-58.5 3569,-79.5 3621,-79.5 3621,-58.5 3569,-58.5"/>
<text text-anchor="middle" x="3595" y="-66.5" font-family="Helvetica,sans-Serif" font-size="10.00">ostream</text>
</g>
<!-- Node42&#45;&gt;Node43 -->
<g id="edge104" class="edge"><title>Node42&#45;&gt;Node43</title>
<path fill="none" stroke="midnightblue" d="M3589.99,-123.267C3590.83,-114.18 3592.06,-100.892 3593.09,-89.7395"/>
<polygon fill="midnightblue" stroke="midnightblue" points="3596.59,-89.8131 3594.03,-79.5337 3589.62,-89.1696 3596.59,-89.8131"/>
</g>
<!-- Node44&#45;&gt;Node27 -->
<g id="edge108" class="edge"><title>Node44&#45;&gt;Node27</title>
<path fill="none" stroke="midnightblue" d="M3406.51,-123.422C3397.65,-120.766 3388.01,-118.082 3379,-116 3303.61,-98.5739 3215.61,-85.125 3157.34,-77.1625"/>
<polygon fill="midnightblue" stroke="midnightblue" points="3157.55,-73.6597 3147.17,-75.788 3156.61,-80.5965 3157.55,-73.6597"/>
</g>
<!-- Node45 -->
<g id="node100" class="node"><title>Node45</title>
<polygon fill="white" stroke="#bfbfbf" points="3409,-58.5 3409,-79.5 3455,-79.5 3455,-58.5 3409,-58.5"/>
<text text-anchor="middle" x="3432" y="-66.5" font-family="Helvetica,sans-Serif" font-size="10.00">cstring</text>
</g>
<!-- Node44&#45;&gt;Node45 -->
<g id="edge110" class="edge"><title>Node44&#45;&gt;Node45</title>
<path fill="none" stroke="midnightblue" d="M3437.84,-123.267C3436.87,-114.18 3435.43,-100.892 3434.23,-89.7395"/>
<polygon fill="midnightblue" stroke="midnightblue" points="3437.69,-89.1014 3433.13,-79.5337 3430.73,-89.851 3437.69,-89.1014"/>
</g>
<!-- Node44&#45;&gt;Node46 -->
<g id="edge112" class="edge"><title>Node44&#45;&gt;Node46</title>
<path fill="none" stroke="midnightblue" d="M3447.92,-123.267C3456.02,-113.517 3468.13,-98.9317 3477.77,-87.3365"/>
<polygon fill="midnightblue" stroke="midnightblue" points="3480.55,-89.4622 3484.25,-79.5337 3475.17,-84.989 3480.55,-89.4622"/>
</g>
</g>
</svg>
