<?xml version="1.0" encoding="UTF-8" standalone="no"?>
<!DOCTYPE svg PUBLIC "-//W3C//DTD SVG 1.1//EN"
 "http://www.w3.org/Graphics/SVG/1.1/DTD/svg11.dtd">
<!-- Generated by graphviz version 2.26.3 (20100126.1600)
 -->
<!-- Title: progs/Ant&#45;chain.cc Pages: 1 -->
<svg width="3584pt" height="218pt"
 viewBox="0.00 0.00 3584.00 218.00" xmlns="http://www.w3.org/2000/svg" xmlns:xlink="http://www.w3.org/1999/xlink">
<g id="graph1" class="graph" transform="scale(1 1) rotate(0) translate(4 214)">
<title>progs/Ant&#45;chain.cc</title>
<polygon fill="white" stroke="white" points="-4,5 -4,-214 3581,-214 3581,5 -4,5"/>
<!-- Node1 -->
<g id="node1" class="node"><title>Node1</title>
<polygon fill="#bfbfbf" stroke="black" points="2641,-188.5 2641,-209.5 2739,-209.5 2739,-188.5 2641,-188.5"/>
<text text-anchor="middle" x="2690" y="-196.5" font-family="Helvetica,sans-Serif" font-size="10.00">progs/Ant&#45;chain.cc</text>
</g>
<!-- Node2 -->
<g id="node3" class="node"><title>Node2</title>
<a xlink:href="_logger_8h.html" target="_top" xlink:title="base/Logger.h">
<polygon fill="white" stroke="black" points="471,-130.5 471,-151.5 549,-151.5 549,-130.5 471,-130.5"/>
<text text-anchor="middle" x="510" y="-138.5" font-family="Helvetica,sans-Serif" font-size="10.00">base/Logger.h</text>
</a>
</g>
<!-- Node1&#45;&gt;Node2 -->
<g id="edge2" class="edge"><title>Node1&#45;&gt;Node2</title>
<path fill="none" stroke="midnightblue" d="M2640.89,-197.693C2349.65,-189.945 851.876,-150.096 559.514,-142.317"/>
<polygon fill="midnightblue" stroke="midnightblue" points="559.322,-138.811 549.232,-142.044 559.136,-145.809 559.322,-138.811"/>
</g>
<!-- Node4 -->
<g id="node7" class="node"><title>Node4</title>
<a xlink:href="_cmd_line_8h.html" target="_top" xlink:title="base/CmdLine.h">
<polygon fill="white" stroke="black" points="1095,-130.5 1095,-151.5 1183,-151.5 1183,-130.5 1095,-130.5"/>
<text text-anchor="middle" x="1139" y="-138.5" font-family="Helvetica,sans-Serif" font-size="10.00">base/CmdLine.h</text>
</a>
</g>
<!-- Node1&#45;&gt;Node4 -->
<g id="edge6" class="edge"><title>Node1&#45;&gt;Node4</title>
<path fill="none" stroke="midnightblue" d="M2640.59,-197.152C2409.31,-188.503 1434.82,-152.062 1193.32,-143.031"/>
<polygon fill="midnightblue" stroke="midnightblue" points="1193.17,-139.523 1183.04,-142.647 1192.9,-146.518 1193.17,-139.523"/>
</g>
<!-- Node18 -->
<g id="node35" class="node"><title>Node18</title>
<polygon fill="white" stroke="#bfbfbf" points="2405.5,-0.5 2405.5,-21.5 2446.5,-21.5 2446.5,-0.5 2405.5,-0.5"/>
<text text-anchor="middle" x="2426" y="-8.5" font-family="Helvetica,sans-Serif" font-size="10.00">string</text>
</g>
<!-- Node1&#45;&gt;Node18 -->
<g id="edge112" class="edge"><title>Node1&#45;&gt;Node18</title>
<path fill="none" stroke="midnightblue" d="M2640.83,-194.279C2563.82,-186.382 2421.93,-169.619 2407,-152 2377.87,-117.635 2399.89,-60.6694 2414.96,-30.7484"/>
<polygon fill="midnightblue" stroke="midnightblue" points="2418.16,-32.1885 2419.73,-21.7098 2411.97,-28.926 2418.16,-32.1885"/>
</g>
<!-- Node20 -->
<g id="node39" class="node"><title>Node20</title>
<polygon fill="white" stroke="#bfbfbf" points="2453.5,-65.5 2453.5,-86.5 2482.5,-86.5 2482.5,-65.5 2453.5,-65.5"/>
<text text-anchor="middle" x="2468" y="-73.5" font-family="Helvetica,sans-Serif" font-size="10.00">list</text>
</g>
<!-- Node1&#45;&gt;Node20 -->
<g id="edge114" class="edge"><title>Node1&#45;&gt;Node20</title>
<path fill="none" stroke="midnightblue" d="M2661.05,-188.413C2638.25,-179.682 2605.93,-166.423 2579,-152 2537.71,-129.887 2529.03,-121.346 2491,-94 2490.51,-93.6485 2490.02,-93.2908 2489.52,-92.9284"/>
<polygon fill="midnightblue" stroke="midnightblue" points="2491.57,-90.0877 2481.48,-86.846 2487.35,-95.6703 2491.57,-90.0877"/>
</g>
<!-- Node26 -->
<g id="node51" class="node"><title>Node26</title>
<a xlink:href="_wrap_t_file_8h.html" target="_top" xlink:title="base/WrapTFile.h">
<polygon fill="white" stroke="black" points="2865,-130.5 2865,-151.5 2959,-151.5 2959,-130.5 2865,-130.5"/>
<text text-anchor="middle" x="2912" y="-138.5" font-family="Helvetica,sans-Serif" font-size="10.00">base/WrapTFile.h</text>
</a>
</g>
<!-- Node1&#45;&gt;Node26 -->
<g id="edge50" class="edge"><title>Node1&#45;&gt;Node26</title>
<path fill="none" stroke="midnightblue" d="M2730.2,-188.497C2767.18,-178.836 2822.14,-164.477 2861.95,-154.077"/>
<polygon fill="midnightblue" stroke="midnightblue" points="2862.93,-157.437 2871.72,-151.523 2861.16,-150.665 2862.93,-157.437"/>
</g>
<!-- Node27 -->
<g id="node53" class="node"><title>Node27</title>
<a xlink:href="string_8h.html" target="_top" xlink:title="base/std_ext/string.h">
<polygon fill="white" stroke="black" points="2570,-65.5 2570,-86.5 2678,-86.5 2678,-65.5 2570,-65.5"/>
<text text-anchor="middle" x="2624" y="-73.5" font-family="Helvetica,sans-Serif" font-size="10.00">base/std_ext/string.h</text>
</a>
</g>
<!-- Node1&#45;&gt;Node27 -->
<g id="edge92" class="edge"><title>Node1&#45;&gt;Node27</title>
<path fill="none" stroke="midnightblue" d="M2699.43,-188.227C2710.48,-174.218 2725.97,-149.265 2715,-130 2704.63,-111.783 2685.42,-99.0775 2667.32,-90.5891"/>
<polygon fill="midnightblue" stroke="midnightblue" points="2668.57,-87.3166 2658,-86.5278 2665.77,-93.7331 2668.57,-87.3166"/>
</g>
<!-- Node30 -->
<g id="node63" class="node"><title>Node30</title>
<polygon fill="white" stroke="#bfbfbf" points="3268.5,-0.5 3268.5,-21.5 3327.5,-21.5 3327.5,-0.5 3268.5,-0.5"/>
<text text-anchor="middle" x="3298" y="-8.5" font-family="Helvetica,sans-Serif" font-size="10.00">functional</text>
</g>
<!-- Node1&#45;&gt;Node30 -->
<g id="edge116" class="edge"><title>Node1&#45;&gt;Node30</title>
<path fill="none" stroke="midnightblue" d="M2739.02,-195.526C2893.43,-184.086 3362.04,-145.366 3405,-94 3415.27,-81.7272 3413.75,-71.3969 3405,-58 3390.15,-35.2566 3361.57,-23.4471 3337.68,-17.3556"/>
<polygon fill="midnightblue" stroke="midnightblue" points="3338.31,-13.9098 3327.78,-15.0798 3336.74,-20.7318 3338.31,-13.9098"/>
</g>
<!-- Node33 -->
<g id="node69" class="node"><title>Node33</title>
<polygon fill="white" stroke="#bfbfbf" points="3325.5,-65.5 3325.5,-86.5 3396.5,-86.5 3396.5,-65.5 3325.5,-65.5"/>
<text text-anchor="middle" x="3361" y="-73.5" font-family="Helvetica,sans-Serif" font-size="10.00">TDirectory.h</text>
</g>
<!-- Node1&#45;&gt;Node33 -->
<g id="edge106" class="edge"><title>Node1&#45;&gt;Node33</title>
<path fill="none" stroke="midnightblue" d="M2739.22,-192.739C2843.73,-178.969 3095.16,-143.31 3302,-94 3307.67,-92.6477 3313.6,-91.0563 3319.42,-89.3887"/>
<polygon fill="midnightblue" stroke="midnightblue" points="3320.45,-92.7338 3329.05,-86.539 3318.46,-86.0218 3320.45,-92.7338"/>
</g>
<!-- Node39 -->
<g id="node86" class="node"><title>Node39</title>
<a xlink:href="system_8h.html" target="_top" xlink:title="base/std_ext/system.h">
<polygon fill="white" stroke="black" points="2416,-130.5 2416,-151.5 2532,-151.5 2532,-130.5 2416,-130.5"/>
<text text-anchor="middle" x="2474" y="-138.5" font-family="Helvetica,sans-Serif" font-size="10.00">base/std_ext/system.h</text>
</a>
</g>
<!-- Node1&#45;&gt;Node39 -->
<g id="edge94" class="edge"><title>Node1&#45;&gt;Node39</title>
<path fill="none" stroke="midnightblue" d="M2650.88,-188.497C2615.06,-178.877 2561.88,-164.598 2523.19,-154.209"/>
<polygon fill="midnightblue" stroke="midnightblue" points="2523.75,-150.736 2513.19,-151.523 2521.94,-157.497 2523.75,-150.736"/>
</g>
<!-- Node40 -->
<g id="node90" class="node"><title>Node40</title>
<a xlink:href="memory_8h.html" target="_top" xlink:title="base/std_ext/memory.h">
<polygon fill="white" stroke="black" points="2587.5,-130.5 2587.5,-151.5 2706.5,-151.5 2706.5,-130.5 2587.5,-130.5"/>
<text text-anchor="middle" x="2647" y="-138.5" font-family="Helvetica,sans-Serif" font-size="10.00">base/std_ext/memory.h</text>
</a>
</g>
<!-- Node1&#45;&gt;Node40 -->
<g id="edge100" class="edge"><title>Node1&#45;&gt;Node40</title>
<path fill="none" stroke="midnightblue" d="M2682.11,-188.362C2676.17,-180.35 2667.88,-169.161 2660.84,-159.67"/>
<polygon fill="midnightblue" stroke="midnightblue" points="2663.6,-157.519 2654.84,-151.571 2657.98,-161.688 2663.6,-157.519"/>
</g>
<!-- Node41 -->
<g id="node95" class="node"><title>Node41</title>
<polygon fill="white" stroke="#bfbfbf" points="3452,-130.5 3452,-151.5 3508,-151.5 3508,-130.5 3452,-130.5"/>
<text text-anchor="middle" x="3480" y="-138.5" font-family="Helvetica,sans-Serif" font-size="10.00">TChain.h</text>
</g>
<!-- Node1&#45;&gt;Node41 -->
<g id="edge108" class="edge"><title>Node1&#45;&gt;Node41</title>
<path fill="none" stroke="midnightblue" d="M2739.16,-197.154C2883.2,-191.549 3302.63,-173.77 3438,-152 3439.26,-151.798 3440.53,-151.575 3441.81,-151.334"/>
<polygon fill="midnightblue" stroke="midnightblue" points="3442.65,-154.733 3451.69,-149.208 3441.18,-147.89 3442.65,-154.733"/>
</g>
<!-- Node42 -->
<g id="node97" class="node"><title>Node42</title>
<polygon fill="white" stroke="#bfbfbf" points="3526,-130.5 3526,-151.5 3576,-151.5 3576,-130.5 3526,-130.5"/>
<text text-anchor="middle" x="3551" y="-138.5" font-family="Helvetica,sans-Serif" font-size="10.00">TTree.h</text>
</g>
<!-- Node1&#45;&gt;Node42 -->
<g id="edge110" class="edge"><title>Node1&#45;&gt;Node42</title>
<path fill="none" stroke="midnightblue" d="M2739.15,-197.857C2890.27,-194.086 3347.55,-180.715 3515.98,-151.699"/>
<polygon fill="midnightblue" stroke="midnightblue" points="3516.72,-155.123 3525.93,-149.901 3515.47,-148.234 3516.72,-155.123"/>
</g>
<!-- Node3 -->
<g id="node5" class="node"><title>Node3</title>
<polygon fill="white" stroke="#bfbfbf" points="-0.5,-65.5 -0.5,-86.5 114.5,-86.5 114.5,-65.5 -0.5,-65.5"/>
<text text-anchor="middle" x="57" y="-73.5" font-family="Helvetica,sans-Serif" font-size="10.00">detail/easylogging++.h</text>
</g>
<!-- Node2&#45;&gt;Node3 -->
<g id="edge4" class="edge"><title>Node2&#45;&gt;Node3</title>
<path fill="none" stroke="midnightblue" d="M470.981,-138.149C400.844,-132.607 249.027,-118.702 123,-94 116.187,-92.6647 109.045,-91.0007 102.078,-89.2277"/>
<polygon fill="midnightblue" stroke="midnightblue" points="102.619,-85.7504 92.0561,-86.5778 100.829,-92.5179 102.619,-85.7504"/>
</g>
<!-- Node5 -->
<g id="node9" class="node"><title>Node5</title>
<polygon fill="white" stroke="#bfbfbf" points="552,-65.5 552,-86.5 642,-86.5 642,-65.5 552,-65.5"/>
<text text-anchor="middle" x="597" y="-73.5" font-family="Helvetica,sans-Serif" font-size="10.00">detail/CmdLine.h</text>
</g>
<!-- Node4&#45;&gt;Node5 -->
<g id="edge8" class="edge"><title>Node4&#45;&gt;Node5</title>
<path fill="none" stroke="midnightblue" d="M1094.95,-139.644C1009.52,-136.371 815.679,-125.797 656,-94 649.797,-92.7647 643.315,-91.1413 637.014,-89.3747"/>
<polygon fill="midnightblue" stroke="midnightblue" points="637.909,-85.9895 627.327,-86.5157 635.927,-92.7032 637.909,-85.9895"/>
</g>
<!-- Node6 -->
<g id="node11" class="node"><title>Node6</title>
<polygon fill="white" stroke="#bfbfbf" points="697.5,-59 697.5,-93 818.5,-93 818.5,-59 697.5,-59"/>
<text text-anchor="start" x="705.5" y="-80" font-family="Helvetica,sans-Serif" font-size="10.00">base/detail/tclap/Switch</text>
<text text-anchor="middle" x="758" y="-67" font-family="Helvetica,sans-Serif" font-size="10.00">Arg.h</text>
</g>
<!-- Node4&#45;&gt;Node6 -->
<g id="edge10" class="edge"><title>Node4&#45;&gt;Node6</title>
<path fill="none" stroke="midnightblue" d="M1094.82,-135.839C1036.09,-128.649 928.902,-114.388 828.842,-94.2802"/>
<polygon fill="midnightblue" stroke="midnightblue" points="829.368,-90.8158 818.871,-92.252 827.973,-97.6753 829.368,-90.8158"/>
</g>
<!-- Node7 -->
<g id="node13" class="node"><title>Node7</title>
<polygon fill="white" stroke="#bfbfbf" points="836,-59 836,-93 978,-93 978,-59 836,-59"/>
<text text-anchor="start" x="844" y="-80" font-family="Helvetica,sans-Serif" font-size="10.00">base/detail/tclap/MultiSwitch</text>
<text text-anchor="middle" x="907" y="-67" font-family="Helvetica,sans-Serif" font-size="10.00">Arg.h</text>
</g>
<!-- Node4&#45;&gt;Node7 -->
<g id="edge12" class="edge"><title>Node4&#45;&gt;Node7</title>
<path fill="none" stroke="midnightblue" d="M1101.47,-130.484C1068.18,-121.157 1018.65,-107.282 977.913,-95.8679"/>
<polygon fill="midnightblue" stroke="midnightblue" points="978.603,-92.4264 968.029,-93.0987 976.714,-99.1669 978.603,-92.4264"/>
</g>
<!-- Node8 -->
<g id="node15" class="node"><title>Node8</title>
<polygon fill="white" stroke="#bfbfbf" points="996,-59 996,-93 1130,-93 1130,-59 996,-59"/>
<text text-anchor="start" x="1004" y="-80" font-family="Helvetica,sans-Serif" font-size="10.00">base/detail/tclap/Unlabeled</text>
<text text-anchor="middle" x="1063" y="-67" font-family="Helvetica,sans-Serif" font-size="10.00">ValueArg.h</text>
</g>
<!-- Node4&#45;&gt;Node8 -->
<g id="edge14" class="edge"><title>Node4&#45;&gt;Node8</title>
<path fill="none" stroke="midnightblue" d="M1126.45,-130.267C1116.77,-121.984 1103,-110.212 1090.77,-99.7477"/>
<polygon fill="midnightblue" stroke="midnightblue" points="1092.88,-96.9497 1083.01,-93.1099 1088.33,-102.269 1092.88,-96.9497"/>
</g>
<!-- Node9 -->
<g id="node17" class="node"><title>Node9</title>
<polygon fill="white" stroke="#bfbfbf" points="1148,-59 1148,-93 1282,-93 1282,-59 1148,-59"/>
<text text-anchor="start" x="1156" y="-80" font-family="Helvetica,sans-Serif" font-size="10.00">base/detail/tclap/Unlabeled</text>
<text text-anchor="middle" x="1215" y="-67" font-family="Helvetica,sans-Serif" font-size="10.00">MultiArg.h</text>
</g>
<!-- Node4&#45;&gt;Node9 -->
<g id="edge16" class="edge"><title>Node4&#45;&gt;Node9</title>
<path fill="none" stroke="midnightblue" d="M1151.55,-130.267C1161.23,-121.984 1175,-110.212 1187.23,-99.7477"/>
<polygon fill="midnightblue" stroke="midnightblue" points="1189.67,-102.269 1194.99,-93.1099 1185.12,-96.9497 1189.67,-102.269"/>
</g>
<!-- Node10 -->
<g id="node19" class="node"><title>Node10</title>
<polygon fill="white" stroke="#bfbfbf" points="1300,-65.5 1300,-86.5 1448,-86.5 1448,-65.5 1300,-65.5"/>
<text text-anchor="middle" x="1374" y="-73.5" font-family="Helvetica,sans-Serif" font-size="10.00">base/detail/tclap/XorHandler.h</text>
</g>
<!-- Node4&#45;&gt;Node10 -->
<g id="edge18" class="edge"><title>Node4&#45;&gt;Node10</title>
<path fill="none" stroke="midnightblue" d="M1177.02,-130.484C1217.63,-119.251 1282.1,-101.421 1326.14,-89.2386"/>
<polygon fill="midnightblue" stroke="midnightblue" points="1327.33,-92.5398 1336.04,-86.5005 1325.47,-85.7931 1327.33,-92.5398"/>
</g>
<!-- Node11 -->
<g id="node21" class="node"><title>Node11</title>
<polygon fill="white" stroke="#bfbfbf" points="1465.5,-65.5 1465.5,-86.5 1612.5,-86.5 1612.5,-65.5 1465.5,-65.5"/>
<text text-anchor="middle" x="1539" y="-73.5" font-family="Helvetica,sans-Serif" font-size="10.00">base/detail/tclap/HelpVisitor.h</text>
</g>
<!-- Node4&#45;&gt;Node11 -->
<g id="edge20" class="edge"><title>Node4&#45;&gt;Node11</title>
<path fill="none" stroke="midnightblue" d="M1183.14,-135.46C1244.69,-127.512 1359.7,-111.847 1457,-94 1465.65,-92.4142 1474.77,-90.5767 1483.66,-88.6941"/>
<polygon fill="midnightblue" stroke="midnightblue" points="1484.53,-92.0871 1493.57,-86.5604 1483.06,-85.244 1484.53,-92.0871"/>
</g>
<!-- Node12 -->
<g id="node23" class="node"><title>Node12</title>
<polygon fill="white" stroke="#bfbfbf" points="1630,-59 1630,-93 1754,-93 1754,-59 1630,-59"/>
<text text-anchor="start" x="1638" y="-80" font-family="Helvetica,sans-Serif" font-size="10.00">base/detail/tclap/Version</text>
<text text-anchor="middle" x="1692" y="-67" font-family="Helvetica,sans-Serif" font-size="10.00">Visitor.h</text>
</g>
<!-- Node4&#45;&gt;Node12 -->
<g id="edge22" class="edge"><title>Node4&#45;&gt;Node12</title>
<path fill="none" stroke="midnightblue" d="M1183.16,-138.929C1266.7,-134.529 1453.66,-122.379 1619.87,-94.053"/>
<polygon fill="midnightblue" stroke="midnightblue" points="1620.52,-97.4927 1629.78,-92.3409 1619.33,-90.595 1620.52,-97.4927"/>
</g>
<!-- Node13 -->
<g id="node25" class="node"><title>Node13</title>
<polygon fill="white" stroke="#bfbfbf" points="1772,-59 1772,-93 1890,-93 1890,-59 1772,-59"/>
<text text-anchor="start" x="1780" y="-80" font-family="Helvetica,sans-Serif" font-size="10.00">base/detail/tclap/Ignore</text>
<text text-anchor="middle" x="1831" y="-67" font-family="Helvetica,sans-Serif" font-size="10.00">RestVisitor.h</text>
</g>
<!-- Node4&#45;&gt;Node13 -->
<g id="edge24" class="edge"><title>Node4&#45;&gt;Node13</title>
<path fill="none" stroke="midnightblue" d="M1183.21,-140.449C1284.3,-138.596 1540.03,-130.534 1761.93,-94.003"/>
<polygon fill="midnightblue" stroke="midnightblue" points="1762.51,-97.4537 1771.8,-92.3549 1761.36,-90.5493 1762.51,-97.4537"/>
</g>
<!-- Node14 -->
<g id="node27" class="node"><title>Node14</title>
<polygon fill="white" stroke="#bfbfbf" points="1908,-59 1908,-93 2038,-93 2038,-59 1908,-59"/>
<text text-anchor="start" x="1916" y="-80" font-family="Helvetica,sans-Serif" font-size="10.00">base/detail/tclap/CmdLine</text>
<text text-anchor="middle" x="1973" y="-67" font-family="Helvetica,sans-Serif" font-size="10.00">Output.h</text>
</g>
<!-- Node4&#45;&gt;Node14 -->
<g id="edge26" class="edge"><title>Node4&#45;&gt;Node14</title>
<path fill="none" stroke="midnightblue" d="M1183.35,-139.29C1321.05,-133.821 1740.9,-115.907 1897.81,-93.983"/>
<polygon fill="midnightblue" stroke="midnightblue" points="1898.36,-97.4386 1907.75,-92.5331 1897.35,-90.5118 1898.36,-97.4386"/>
</g>
<!-- Node15 -->
<g id="node29" class="node"><title>Node15</title>
<polygon fill="white" stroke="#bfbfbf" points="2055.5,-65.5 2055.5,-86.5 2198.5,-86.5 2198.5,-65.5 2055.5,-65.5"/>
<text text-anchor="middle" x="2127" y="-73.5" font-family="Helvetica,sans-Serif" font-size="10.00">base/detail/tclap/StdOutput.h</text>
</g>
<!-- Node4&#45;&gt;Node15 -->
<g id="edge28" class="edge"><title>Node4&#45;&gt;Node15</title>
<path fill="none" stroke="midnightblue" d="M1183.17,-139.708C1341.04,-134.933 1877.03,-117.348 2047,-94 2056.63,-92.6771 2066.81,-90.7794 2076.57,-88.7075"/>
<polygon fill="midnightblue" stroke="midnightblue" points="2077.54,-92.0789 2086.55,-86.5022 2076.03,-85.244 2077.54,-92.0789"/>
</g>
<!-- Node16 -->
<g id="node31" class="node"><title>Node16</title>
<polygon fill="white" stroke="#bfbfbf" points="2216,-65.5 2216,-86.5 2360,-86.5 2360,-65.5 2216,-65.5"/>
<text text-anchor="middle" x="2288" y="-73.5" font-family="Helvetica,sans-Serif" font-size="10.00">base/detail/tclap/Constraint.h</text>
</g>
<!-- Node4&#45;&gt;Node16 -->
<g id="edge30" class="edge"><title>Node4&#45;&gt;Node16</title>
<path fill="none" stroke="midnightblue" d="M1183.21,-140.085C1358.4,-136.3 2004.14,-120.794 2207,-94 2216.85,-92.6984 2227.28,-90.7908 2237.26,-88.6984"/>
<polygon fill="midnightblue" stroke="midnightblue" points="2238.02,-92.1142 2247.04,-86.5601 2236.52,-85.2756 2238.02,-92.1142"/>
</g>
<!-- Node17 -->
<g id="node33" class="node"><title>Node17</title>
<polygon fill="white" stroke="#bfbfbf" points="131.5,-59 131.5,-93 252.5,-93 252.5,-59 131.5,-59"/>
<text text-anchor="start" x="139.5" y="-80" font-family="Helvetica,sans-Serif" font-size="10.00">base/detail/tclap/Values</text>
<text text-anchor="middle" x="192" y="-67" font-family="Helvetica,sans-Serif" font-size="10.00">Constraint.h</text>
</g>
<!-- Node4&#45;&gt;Node17 -->
<g id="edge32" class="edge"><title>Node4&#45;&gt;Node17</title>
<path fill="none" stroke="midnightblue" d="M1094.94,-139.818C943.399,-135.571 443.493,-120.022 262.719,-94.0584"/>
<polygon fill="midnightblue" stroke="midnightblue" points="263.221,-90.5946 252.813,-92.5746 262.184,-97.5174 263.221,-90.5946"/>
</g>
<!-- Node4&#45;&gt;Node18 -->
<g id="edge34" class="edge"><title>Node4&#45;&gt;Node18</title>
<path fill="none" stroke="midnightblue" d="M1094.87,-139.504C950.168,-134.388 498.094,-116.645 477,-94 466.094,-82.2925 465.823,-69.4493 477,-58 494.5,-40.0731 2147.99,-15.0858 2395.22,-11.4485"/>
<polygon fill="midnightblue" stroke="midnightblue" points="2395.36,-14.947 2405.3,-11.3006 2395.25,-7.94777 2395.36,-14.947"/>
</g>
<!-- Node19 -->
<g id="node37" class="node"><title>Node19</title>
<polygon fill="white" stroke="#bfbfbf" points="1371,-0.5 1371,-21.5 1415,-21.5 1415,-0.5 1371,-0.5"/>
<text text-anchor="middle" x="1393" y="-8.5" font-family="Helvetica,sans-Serif" font-size="10.00">vector</text>
</g>
<!-- Node4&#45;&gt;Node19 -->
<g id="edge36" class="edge"><title>Node4&#45;&gt;Node19</title>
<path fill="none" stroke="midnightblue" d="M1094.77,-139.655C945.193,-134.895 466.283,-117.841 444,-94 433.075,-82.3108 432.97,-69.5901 444,-58 476.273,-24.0887 1197.69,-13.3602 1360.54,-11.3666"/>
<polygon fill="midnightblue" stroke="midnightblue" points="1360.91,-14.8625 1370.86,-11.2428 1360.82,-7.86299 1360.91,-14.8625"/>
</g>
<!-- Node4&#45;&gt;Node20 -->
<g id="edge38" class="edge"><title>Node4&#45;&gt;Node20</title>
<path fill="none" stroke="midnightblue" d="M1183.24,-140.151C1374.61,-136.348 2132.14,-119.926 2369,-94 2394.61,-91.1965 2423.57,-85.6485 2443.52,-81.4491"/>
<polygon fill="midnightblue" stroke="midnightblue" points="2444.29,-84.8635 2453.34,-79.3393 2442.82,-78.0199 2444.29,-84.8635"/>
</g>
<!-- Node21 -->
<g id="node41" class="node"><title>Node21</title>
<polygon fill="white" stroke="#bfbfbf" points="270,-65.5 270,-86.5 324,-86.5 324,-65.5 270,-65.5"/>
<text text-anchor="middle" x="297" y="-73.5" font-family="Helvetica,sans-Serif" font-size="10.00">iostream</text>
</g>
<!-- Node4&#45;&gt;Node21 -->
<g id="edge40" class="edge"><title>Node4&#45;&gt;Node21</title>
<path fill="none" stroke="midnightblue" d="M1094.8,-140.761C948.133,-139.603 478.58,-132.875 333,-94 329.992,-93.1966 326.94,-92.1275 323.95,-90.9095"/>
<polygon fill="midnightblue" stroke="midnightblue" points="325.292,-87.6739 314.746,-86.6547 322.355,-94.0279 325.292,-87.6739"/>
</g>
<!-- Node22 -->
<g id="node43" class="node"><title>Node22</title>
<polygon fill="white" stroke="#bfbfbf" points="342,-65.5 342,-86.5 392,-86.5 392,-65.5 342,-65.5"/>
<text text-anchor="middle" x="367" y="-73.5" font-family="Helvetica,sans-Serif" font-size="10.00">iomanip</text>
</g>
<!-- Node4&#45;&gt;Node22 -->
<g id="edge42" class="edge"><title>Node4&#45;&gt;Node22</title>
<path fill="none" stroke="midnightblue" d="M1094.56,-140.282C956.677,-137.721 537.49,-127.326 406,-94 402.571,-93.1309 399.074,-91.9658 395.651,-90.6443"/>
<polygon fill="midnightblue" stroke="midnightblue" points="396.89,-87.3673 386.322,-86.6216 394.119,-93.7952 396.89,-87.3673"/>
</g>
<!-- Node23 -->
<g id="node45" class="node"><title>Node23</title>
<polygon fill="white" stroke="#bfbfbf" points="2632,-0.5 2632,-21.5 2688,-21.5 2688,-0.5 2632,-0.5"/>
<text text-anchor="middle" x="2660" y="-8.5" font-family="Helvetica,sans-Serif" font-size="10.00">algorithm</text>
</g>
<!-- Node4&#45;&gt;Node23 -->
<g id="edge44" class="edge"><title>Node4&#45;&gt;Node23</title>
<path fill="none" stroke="midnightblue" d="M1094.96,-139.681C986.972,-135.996 715.881,-123.835 689,-94 678.29,-82.1132 677.792,-69.4185 689,-58 725.499,-20.815 2459.95,-29.6355 2621.47,-21.0632"/>
<polygon fill="midnightblue" stroke="midnightblue" points="2622.22,-24.5136 2631.9,-20.2075 2621.65,-17.5371 2622.22,-24.5136"/>
</g>
<!-- Node24 -->
<g id="node47" class="node"><title>Node24</title>
<polygon fill="white" stroke="#bfbfbf" points="486,-65.5 486,-86.5 534,-86.5 534,-65.5 486,-65.5"/>
<text text-anchor="middle" x="510" y="-73.5" font-family="Helvetica,sans-Serif" font-size="10.00">stdlib.h</text>
</g>
<!-- Node4&#45;&gt;Node24 -->
<g id="edge46" class="edge"><title>Node4&#45;&gt;Node24</title>
<path fill="none" stroke="midnightblue" d="M1094.91,-139.907C975.254,-136.565 646.468,-124.766 543,-94 540.392,-93.2246 537.759,-92.2244 535.177,-91.0932"/>
<polygon fill="midnightblue" stroke="midnightblue" points="536.7,-87.9417 526.192,-86.5899 533.564,-94.1997 536.7,-87.9417"/>
</g>
<!-- Node25 -->
<g id="node49" class="node"><title>Node25</title>
<polygon fill="white" stroke="#bfbfbf" points="2500,-65.5 2500,-86.5 2552,-86.5 2552,-65.5 2500,-65.5"/>
<text text-anchor="middle" x="2526" y="-73.5" font-family="Helvetica,sans-Serif" font-size="10.00">memory</text>
</g>
<!-- Node4&#45;&gt;Node25 -->
<g id="edge48" class="edge"><title>Node4&#45;&gt;Node25</title>
<path fill="none" stroke="midnightblue" d="M1183.23,-140.611C1401.92,-138.532 2362.23,-127.55 2491,-94 2494.01,-93.2156 2497.06,-92.1408 2500.03,-90.9038"/>
<polygon fill="midnightblue" stroke="midnightblue" points="2501.64,-94.0169 2509.16,-86.5561 2498.63,-87.6974 2501.64,-94.0169"/>
</g>
<!-- Node26&#45;&gt;Node18 -->
<g id="edge84" class="edge"><title>Node26&#45;&gt;Node18</title>
<path fill="none" stroke="midnightblue" d="M2864.61,-135.875C2825.27,-130.076 2768.86,-118.094 2725,-94 2704.61,-82.7994 2707.76,-68.5003 2687,-58 2646.98,-37.7594 2516.74,-21.1078 2456.75,-14.3034"/>
<polygon fill="midnightblue" stroke="midnightblue" points="2457.07,-10.8171 2446.74,-13.1856 2456.29,-17.7738 2457.07,-10.8171"/>
</g>
<!-- Node26&#45;&gt;Node20 -->
<g id="edge86" class="edge"><title>Node26&#45;&gt;Node20</title>
<path fill="none" stroke="midnightblue" d="M2864.82,-138.972C2769.6,-134.354 2557.81,-121.277 2491,-94 2489.79,-93.5041 2488.58,-92.9245 2487.4,-92.2833"/>
<polygon fill="midnightblue" stroke="midnightblue" points="2489.15,-89.2408 2478.91,-86.5259 2485.22,-95.0347 2489.15,-89.2408"/>
</g>
<!-- Node26&#45;&gt;Node25 -->
<g id="edge82" class="edge"><title>Node26&#45;&gt;Node25</title>
<path fill="none" stroke="midnightblue" d="M2864.83,-136.695C2782.64,-128.86 2616.65,-111.464 2561,-94 2558.25,-93.137 2555.46,-92.0695 2552.71,-90.8885"/>
<polygon fill="midnightblue" stroke="midnightblue" points="2554.19,-87.7208 2543.66,-86.5676 2551.18,-94.0369 2554.19,-87.7208"/>
</g>
<!-- Node26&#45;&gt;Node27 -->
<g id="edge52" class="edge"><title>Node26&#45;&gt;Node27</title>
<path fill="none" stroke="midnightblue" d="M2864.64,-131.572C2819.99,-122.519 2751.26,-108.164 2692,-94 2685.69,-92.4909 2679.06,-90.8324 2672.53,-89.1517"/>
<polygon fill="midnightblue" stroke="midnightblue" points="2672.96,-85.646 2662.4,-86.5104 2671.19,-92.4197 2672.96,-85.646"/>
</g>
<!-- Node29 -->
<g id="node60" class="node"><title>Node29</title>
<a xlink:href="misc_8h.html" target="_top" xlink:title="base/std_ext/misc.h">
<polygon fill="white" stroke="black" points="2733.5,-65.5 2733.5,-86.5 2838.5,-86.5 2838.5,-65.5 2733.5,-65.5"/>
<text text-anchor="middle" x="2786" y="-73.5" font-family="Helvetica,sans-Serif" font-size="10.00">base/std_ext/misc.h</text>
</a>
</g>
<!-- Node26&#45;&gt;Node29 -->
<g id="edge62" class="edge"><title>Node26&#45;&gt;Node29</title>
<path fill="none" stroke="midnightblue" d="M2891.48,-130.412C2870.88,-119.788 2838.96,-103.318 2815.62,-91.28"/>
<polygon fill="midnightblue" stroke="midnightblue" points="2817.01,-88.0577 2806.52,-86.5835 2813.8,-94.2787 2817.01,-88.0577"/>
</g>
<!-- Node26&#45;&gt;Node30 -->
<g id="edge90" class="edge"><title>Node26&#45;&gt;Node30</title>
<path fill="none" stroke="midnightblue" d="M2959.19,-137.949C3052.94,-131.462 3255.68,-115.144 3279,-94 3296.21,-78.3943 3299.45,-50.6694 3299.39,-31.5862"/>
<polygon fill="midnightblue" stroke="midnightblue" points="3302.88,-31.3828 3299.05,-21.5059 3295.89,-31.6178 3302.88,-31.3828"/>
</g>
<!-- Node32 -->
<g id="node67" class="node"><title>Node32</title>
<polygon fill="white" stroke="#bfbfbf" points="2855.5,-65.5 2855.5,-86.5 2902.5,-86.5 2902.5,-65.5 2855.5,-65.5"/>
<text text-anchor="middle" x="2879" y="-73.5" font-family="Helvetica,sans-Serif" font-size="10.00">TFile.h</text>
</g>
<!-- Node26&#45;&gt;Node32 -->
<g id="edge70" class="edge"><title>Node26&#45;&gt;Node32</title>
<path fill="none" stroke="midnightblue" d="M2906.55,-130.267C2901.79,-120.896 2894.77,-107.057 2889,-95.7004"/>
<polygon fill="midnightblue" stroke="midnightblue" points="2892,-93.8659 2884.35,-86.5337 2885.75,-97.0348 2892,-93.8659"/>
</g>
<!-- Node26&#45;&gt;Node33 -->
<g id="edge72" class="edge"><title>Node26&#45;&gt;Node33</title>
<path fill="none" stroke="midnightblue" d="M2959.12,-139.048C3034.56,-135.126 3186.69,-123.935 3312,-94 3316.66,-92.8872 3321.48,-91.4668 3326.2,-89.9133"/>
<polygon fill="midnightblue" stroke="midnightblue" points="3327.39,-93.2067 3335.66,-86.5933 3325.07,-86.6014 3327.39,-93.2067"/>
</g>
<!-- Node34 -->
<g id="node71" class="node"><title>Node34</title>
<polygon fill="white" stroke="#bfbfbf" points="2920,-65.5 2920,-86.5 2972,-86.5 2972,-65.5 2920,-65.5"/>
<text text-anchor="middle" x="2946" y="-73.5" font-family="Helvetica,sans-Serif" font-size="10.00">TError.h</text>
</g>
<!-- Node26&#45;&gt;Node34 -->
<g id="edge74" class="edge"><title>Node26&#45;&gt;Node34</title>
<path fill="none" stroke="midnightblue" d="M2917.61,-130.267C2922.52,-120.896 2929.75,-107.057 2935.7,-95.7004"/>
<polygon fill="midnightblue" stroke="midnightblue" points="2938.96,-97.017 2940.49,-86.5337 2932.75,-93.7724 2938.96,-97.017"/>
</g>
<!-- Node35 -->
<g id="node73" class="node"><title>Node35</title>
<polygon fill="white" stroke="#bfbfbf" points="2989.5,-65.5 2989.5,-86.5 3036.5,-86.5 3036.5,-65.5 2989.5,-65.5"/>
<text text-anchor="middle" x="3013" y="-73.5" font-family="Helvetica,sans-Serif" font-size="10.00">TList.h</text>
</g>
<!-- Node26&#45;&gt;Node35 -->
<g id="edge76" class="edge"><title>Node26&#45;&gt;Node35</title>
<path fill="none" stroke="midnightblue" d="M2928.68,-130.267C2944.86,-119.855 2969.61,-103.927 2988.11,-92.0163"/>
<polygon fill="midnightblue" stroke="midnightblue" points="2990.12,-94.8887 2996.63,-86.5337 2986.33,-89.0023 2990.12,-94.8887"/>
</g>
<!-- Node36 -->
<g id="node75" class="node"><title>Node36</title>
<polygon fill="white" stroke="#bfbfbf" points="3054,-65.5 3054,-86.5 3128,-86.5 3128,-65.5 3054,-65.5"/>
<text text-anchor="middle" x="3091" y="-73.5" font-family="Helvetica,sans-Serif" font-size="10.00">TCollection.h</text>
</g>
<!-- Node26&#45;&gt;Node36 -->
<g id="edge78" class="edge"><title>Node26&#45;&gt;Node36</title>
<path fill="none" stroke="midnightblue" d="M2942.74,-130.461C2969.77,-121.12 3010.11,-106.985 3045,-94 3048.23,-92.7968 3051.58,-91.5274 3054.94,-90.2423"/>
<polygon fill="midnightblue" stroke="midnightblue" points="3056.24,-93.4929 3064.3,-86.6208 3053.71,-86.9643 3056.24,-93.4929"/>
</g>
<!-- Node37 -->
<g id="node77" class="node"><title>Node37</title>
<polygon fill="white" stroke="#bfbfbf" points="3146,-65.5 3146,-86.5 3194,-86.5 3194,-65.5 3146,-65.5"/>
<text text-anchor="middle" x="3170" y="-73.5" font-family="Helvetica,sans-Serif" font-size="10.00">TKey.h</text>
</g>
<!-- Node26&#45;&gt;Node37 -->
<g id="edge80" class="edge"><title>Node26&#45;&gt;Node37</title>
<path fill="none" stroke="midnightblue" d="M2959.22,-135.247C3005.54,-128.657 3077.64,-115.845 3137,-94 3139.27,-93.1632 3141.58,-92.1906 3143.87,-91.1391"/>
<polygon fill="midnightblue" stroke="midnightblue" points="3145.64,-94.1624 3152.98,-86.5188 3142.48,-87.9189 3145.64,-94.1624"/>
</g>
<!-- Node38 -->
<g id="node82" class="node"><title>Node38</title>
<polygon fill="white" stroke="#bfbfbf" points="3211.5,-65.5 3211.5,-86.5 3270.5,-86.5 3270.5,-65.5 3211.5,-65.5"/>
<text text-anchor="middle" x="3241" y="-73.5" font-family="Helvetica,sans-Serif" font-size="10.00">stdexcept</text>
</g>
<!-- Node26&#45;&gt;Node38 -->
<g id="edge88" class="edge"><title>Node26&#45;&gt;Node38</title>
<path fill="none" stroke="midnightblue" d="M2959.04,-137.507C3017.37,-132.249 3119.31,-120.004 3203,-94 3205.97,-93.0767 3209.01,-91.9619 3212,-90.7449"/>
<polygon fill="midnightblue" stroke="midnightblue" points="3213.59,-93.8714 3221.31,-86.6188 3210.75,-87.4721 3213.59,-93.8714"/>
</g>
<!-- Node27&#45;&gt;Node18 -->
<g id="edge54" class="edge"><title>Node27&#45;&gt;Node18</title>
<path fill="none" stroke="midnightblue" d="M2591.75,-65.412C2554.29,-53.114 2492.96,-32.9809 2456.33,-20.9582"/>
<polygon fill="midnightblue" stroke="midnightblue" points="2457.29,-17.5893 2446.7,-17.7956 2455.11,-24.2401 2457.29,-17.5893"/>
</g>
<!-- Node27&#45;&gt;Node19 -->
<g id="edge60" class="edge"><title>Node27&#45;&gt;Node19</title>
<path fill="none" stroke="midnightblue" d="M2592.61,-65.441C2582.62,-62.5119 2571.45,-59.6777 2561,-58 2333.54,-21.466 1590.89,-12.7667 1425.74,-11.2658"/>
<polygon fill="midnightblue" stroke="midnightblue" points="1425.32,-7.76201 1415.29,-11.1735 1425.25,-14.7617 1425.32,-7.76201"/>
</g>
<!-- Node27&#45;&gt;Node23 -->
<g id="edge58" class="edge"><title>Node27&#45;&gt;Node23</title>
<path fill="none" stroke="midnightblue" d="M2629.94,-65.2666C2635.19,-55.8013 2642.95,-41.7773 2649.28,-30.3571"/>
<polygon fill="midnightblue" stroke="midnightblue" points="2652.38,-31.9774 2654.17,-21.5337 2646.26,-28.5859 2652.38,-31.9774"/>
</g>
<!-- Node28 -->
<g id="node56" class="node"><title>Node28</title>
<polygon fill="white" stroke="#bfbfbf" points="2562,-0.5 2562,-21.5 2614,-21.5 2614,-0.5 2562,-0.5"/>
<text text-anchor="middle" x="2588" y="-8.5" font-family="Helvetica,sans-Serif" font-size="10.00">sstream</text>
</g>
<!-- Node27&#45;&gt;Node28 -->
<g id="edge56" class="edge"><title>Node27&#45;&gt;Node28</title>
<path fill="none" stroke="midnightblue" d="M2618.06,-65.2666C2612.81,-55.8013 2605.05,-41.7773 2598.72,-30.3571"/>
<polygon fill="midnightblue" stroke="midnightblue" points="2601.74,-28.5859 2593.83,-21.5337 2595.62,-31.9774 2601.74,-28.5859"/>
</g>
<!-- Node29&#45;&gt;Node23 -->
<g id="edge64" class="edge"><title>Node29&#45;&gt;Node23</title>
<path fill="none" stroke="midnightblue" d="M2765.48,-65.412C2744.88,-54.7885 2712.96,-38.3182 2689.62,-26.28"/>
<polygon fill="midnightblue" stroke="midnightblue" points="2691.01,-23.0577 2680.52,-21.5835 2687.8,-29.2787 2691.01,-23.0577"/>
</g>
<!-- Node29&#45;&gt;Node30 -->
<g id="edge66" class="edge"><title>Node29&#45;&gt;Node30</title>
<path fill="none" stroke="midnightblue" d="M2817.7,-65.4498C2827.05,-62.6648 2837.36,-59.9079 2847,-58 2997.21,-28.2705 3179.54,-16.5846 3258.45,-12.6863"/>
<polygon fill="midnightblue" stroke="midnightblue" points="3258.62,-16.1823 3268.44,-12.2074 3258.28,-9.19032 3258.62,-16.1823"/>
</g>
<!-- Node31 -->
<g id="node65" class="node"><title>Node31</title>
<polygon fill="white" stroke="#bfbfbf" points="2759.5,-0.5 2759.5,-21.5 2812.5,-21.5 2812.5,-0.5 2759.5,-0.5"/>
<text text-anchor="middle" x="2786" y="-8.5" font-family="Helvetica,sans-Serif" font-size="10.00">cxxabi.h</text>
</g>
<!-- Node29&#45;&gt;Node31 -->
<g id="edge68" class="edge"><title>Node29&#45;&gt;Node31</title>
<path fill="none" stroke="midnightblue" d="M2786,-65.2666C2786,-56.1799 2786,-42.8919 2786,-31.7395"/>
<polygon fill="midnightblue" stroke="midnightblue" points="2789.5,-31.5337 2786,-21.5337 2782.5,-31.5337 2789.5,-31.5337"/>
</g>
<!-- Node39&#45;&gt;Node18 -->
<g id="edge98" class="edge"><title>Node39&#45;&gt;Node18</title>
<path fill="none" stroke="midnightblue" d="M2466.01,-130.344C2459.47,-121.157 2450.45,-107.308 2445,-94 2436.63,-73.5786 2431.56,-48.7471 2428.79,-31.5949"/>
<polygon fill="midnightblue" stroke="midnightblue" points="2432.23,-30.9281 2427.29,-21.5559 2425.31,-31.9637 2432.23,-30.9281"/>
</g>
<!-- Node39&#45;&gt;Node20 -->
<g id="edge96" class="edge"><title>Node39&#45;&gt;Node20</title>
<path fill="none" stroke="midnightblue" d="M2473.01,-130.267C2472.17,-121.18 2470.94,-107.892 2469.91,-96.7395"/>
<polygon fill="midnightblue" stroke="midnightblue" points="2473.38,-96.1696 2468.97,-86.5337 2466.41,-96.8131 2473.38,-96.1696"/>
</g>
<!-- Node40&#45;&gt;Node20 -->
<g id="edge104" class="edge"><title>Node40&#45;&gt;Node20</title>
<path fill="none" stroke="midnightblue" d="M2594.91,-130.439C2563.67,-122.873 2523.77,-110.991 2491,-94 2490.17,-93.5711 2489.35,-93.1111 2488.52,-92.6266"/>
<polygon fill="midnightblue" stroke="midnightblue" points="2490.3,-89.5969 2480.08,-86.8028 2486.32,-95.3602 2490.3,-89.5969"/>
</g>
<!-- Node40&#45;&gt;Node25 -->
<g id="edge102" class="edge"><title>Node40&#45;&gt;Node25</title>
<path fill="none" stroke="midnightblue" d="M2627.29,-130.412C2607.6,-119.836 2577.13,-103.465 2554.74,-91.4408"/>
<polygon fill="midnightblue" stroke="midnightblue" points="2556.17,-88.2326 2545.7,-86.5835 2552.85,-94.3992 2556.17,-88.2326"/>
</g>
</g>
</svg>
