<?xml version="1.0" encoding="UTF-8" standalone="no"?>
<!DOCTYPE svg PUBLIC "-//W3C//DTD SVG 1.1//EN"
 "http://www.w3.org/Graphics/SVG/1.1/DTD/svg11.dtd">
<!-- Generated by graphviz version 2.26.3 (20100126.1600)
 -->
<!-- Title: src/calibration/fitfunctions/BaseFunctions.h Pages: 1 -->
<svg width="1304pt" height="116pt"
 viewBox="0.00 0.00 1304.00 116.00" xmlns="http://www.w3.org/2000/svg" xmlns:xlink="http://www.w3.org/1999/xlink">
<g id="graph1" class="graph" transform="scale(1 1) rotate(0) translate(4 112)">
<title>src/calibration/fitfunctions/BaseFunctions.h</title>
<polygon fill="white" stroke="white" points="-4,5 -4,-112 1301,-112 1301,5 -4,5"/>
<!-- Node1 -->
<g id="node1" class="node"><title>Node1</title>
<polygon fill="#bfbfbf" stroke="black" points="584,-73 584,-107 712,-107 712,-73 584,-73"/>
<text text-anchor="start" x="592" y="-94" font-family="Helvetica,sans-Serif" font-size="10.00">src/calibration/fitfunctions</text>
<text text-anchor="middle" x="648" y="-81" font-family="Helvetica,sans-Serif" font-size="10.00">/BaseFunctions.h</text>
</g>
<!-- Node2 -->
<g id="node3" class="node"><title>Node2</title>
<a xlink:href="_base_functions_8cc.html" target="_top" xlink:title="src/calibration/fitfunctions\l/BaseFunctions.cc">
<polygon fill="white" stroke="black" points="0,-1 0,-35 128,-35 128,-1 0,-1"/>
<text text-anchor="start" x="8" y="-22" font-family="Helvetica,sans-Serif" font-size="10.00">src/calibration/fitfunctions</text>
<text text-anchor="middle" x="64" y="-9" font-family="Helvetica,sans-Serif" font-size="10.00">/BaseFunctions.cc</text>
</a>
</g>
<!-- Node1&#45;&gt;Node2 -->
<g id="edge2" class="edge"><title>Node1&#45;&gt;Node2</title>
<path fill="none" stroke="midnightblue" d="M573.894,-85.3546C474.086,-78.3736 291.188,-63.0263 137,-36 134.171,-35.5042 131.29,-34.9607 128.385,-34.3813"/>
<polygon fill="midnightblue" stroke="midnightblue" points="573.661,-88.8468 583.878,-86.0444 574.143,-81.8634 573.661,-88.8468"/>
</g>
<!-- Node3 -->
<g id="node5" class="node"><title>Node3</title>
<a xlink:href="_fit_function_8cc.html" target="_top" xlink:title="src/calibration/fitfunctions\l/FitFunction.cc">
<polygon fill="white" stroke="black" points="146,-1 146,-35 274,-35 274,-1 146,-1"/>
<text text-anchor="start" x="154" y="-22" font-family="Helvetica,sans-Serif" font-size="10.00">src/calibration/fitfunctions</text>
<text text-anchor="middle" x="210" y="-9" font-family="Helvetica,sans-Serif" font-size="10.00">/FitFunction.cc</text>
</a>
</g>
<!-- Node1&#45;&gt;Node3 -->
<g id="edge4" class="edge"><title>Node1&#45;&gt;Node3</title>
<path fill="none" stroke="midnightblue" d="M573.574,-81.0913C499.564,-71.7391 382.948,-55.6697 283,-36 280.054,-35.4203 277.049,-34.7994 274.018,-34.1495"/>
<polygon fill="midnightblue" stroke="midnightblue" points="573.37,-84.5931 583.729,-82.366 574.242,-77.6476 573.37,-84.5931"/>
</g>
<!-- Node4 -->
<g id="node7" class="node"><title>Node4</title>
<a xlink:href="_fit_gaus_8cc.html" target="_top" xlink:title="src/calibration/fitfunctions\l/FitGaus.cc">
<polygon fill="white" stroke="black" points="292,-1 292,-35 420,-35 420,-1 292,-1"/>
<text text-anchor="start" x="300" y="-22" font-family="Helvetica,sans-Serif" font-size="10.00">src/calibration/fitfunctions</text>
<text text-anchor="middle" x="356" y="-9" font-family="Helvetica,sans-Serif" font-size="10.00">/FitGaus.cc</text>
</a>
</g>
<!-- Node1&#45;&gt;Node4 -->
<g id="edge6" class="edge"><title>Node1&#45;&gt;Node4</title>
<path fill="none" stroke="midnightblue" d="M574.011,-71.756C526.564,-60.0568 465.58,-45.0198 420.183,-33.8259"/>
<polygon fill="midnightblue" stroke="midnightblue" points="573.372,-75.2034 583.919,-74.1993 575.048,-68.407 573.372,-75.2034"/>
</g>
<!-- Node5 -->
<g id="node9" class="node"><title>Node5</title>
<a xlink:href="_fit_gaus_pol0_8cc.html" target="_top" xlink:title="src/calibration/fitfunctions\l/FitGausPol0.cc">
<polygon fill="white" stroke="black" points="438,-1 438,-35 566,-35 566,-1 438,-1"/>
<text text-anchor="start" x="446" y="-22" font-family="Helvetica,sans-Serif" font-size="10.00">src/calibration/fitfunctions</text>
<text text-anchor="middle" x="502" y="-9" font-family="Helvetica,sans-Serif" font-size="10.00">/FitGausPol0.cc</text>
</a>
</g>
<!-- Node1&#45;&gt;Node5 -->
<g id="edge8" class="edge"><title>Node1&#45;&gt;Node5</title>
<path fill="none" stroke="midnightblue" d="M604.394,-68.4954C582.72,-57.8069 556.896,-45.0718 536.604,-35.0651"/>
<polygon fill="midnightblue" stroke="midnightblue" points="602.883,-71.6531 613.4,-72.937 605.979,-65.375 602.883,-71.6531"/>
</g>
<!-- Node6 -->
<g id="node11" class="node"><title>Node6</title>
<a xlink:href="_fit_gaus_pol1_8cc.html" target="_top" xlink:title="src/calibration/fitfunctions\l/FitGausPol1.cc">
<polygon fill="white" stroke="black" points="584,-1 584,-35 712,-35 712,-1 584,-1"/>
<text text-anchor="start" x="592" y="-22" font-family="Helvetica,sans-Serif" font-size="10.00">src/calibration/fitfunctions</text>
<text text-anchor="middle" x="648" y="-9" font-family="Helvetica,sans-Serif" font-size="10.00">/FitGausPol1.cc</text>
</a>
</g>
<!-- Node1&#45;&gt;Node6 -->
<g id="edge10" class="edge"><title>Node1&#45;&gt;Node6</title>
<path fill="none" stroke="midnightblue" d="M648,-62.7193C648,-53.572 648,-43.6255 648,-35.4407"/>
<polygon fill="midnightblue" stroke="midnightblue" points="644.5,-62.937 648,-72.937 651.5,-62.937 644.5,-62.937"/>
</g>
<!-- Node7 -->
<g id="node13" class="node"><title>Node7</title>
<a xlink:href="_fit_gaus_pol3_8cc.html" target="_top" xlink:title="src/calibration/fitfunctions\l/FitGausPol3.cc">
<polygon fill="white" stroke="black" points="730,-1 730,-35 858,-35 858,-1 730,-1"/>
<text text-anchor="start" x="738" y="-22" font-family="Helvetica,sans-Serif" font-size="10.00">src/calibration/fitfunctions</text>
<text text-anchor="middle" x="794" y="-9" font-family="Helvetica,sans-Serif" font-size="10.00">/FitGausPol3.cc</text>
</a>
</g>
<!-- Node1&#45;&gt;Node7 -->
<g id="edge12" class="edge"><title>Node1&#45;&gt;Node7</title>
<path fill="none" stroke="midnightblue" d="M691.606,-68.4954C713.28,-57.8069 739.104,-45.0718 759.396,-35.0651"/>
<polygon fill="midnightblue" stroke="midnightblue" points="690.021,-65.375 682.6,-72.937 693.117,-71.6531 690.021,-65.375"/>
</g>
<!-- Node8 -->
<g id="node15" class="node"><title>Node8</title>
<a xlink:href="_fit_landau_8cc.html" target="_top" xlink:title="src/calibration/fitfunctions\l/FitLandau.cc">
<polygon fill="white" stroke="black" points="876,-1 876,-35 1004,-35 1004,-1 876,-1"/>
<text text-anchor="start" x="884" y="-22" font-family="Helvetica,sans-Serif" font-size="10.00">src/calibration/fitfunctions</text>
<text text-anchor="middle" x="940" y="-9" font-family="Helvetica,sans-Serif" font-size="10.00">/FitLandau.cc</text>
</a>
</g>
<!-- Node1&#45;&gt;Node8 -->
<g id="edge14" class="edge"><title>Node1&#45;&gt;Node8</title>
<path fill="none" stroke="midnightblue" d="M721.989,-71.756C769.436,-60.0568 830.42,-45.0198 875.817,-33.8259"/>
<polygon fill="midnightblue" stroke="midnightblue" points="720.952,-68.407 712.081,-74.1993 722.628,-75.2034 720.952,-68.407"/>
</g>
<!-- Node9 -->
<g id="node17" class="node"><title>Node9</title>
<a xlink:href="_fit_landau_pol0_8cc.html" target="_top" xlink:title="src/calibration/fitfunctions\l/FitLandauPol0.cc">
<polygon fill="white" stroke="black" points="1022,-1 1022,-35 1150,-35 1150,-1 1022,-1"/>
<text text-anchor="start" x="1030" y="-22" font-family="Helvetica,sans-Serif" font-size="10.00">src/calibration/fitfunctions</text>
<text text-anchor="middle" x="1086" y="-9" font-family="Helvetica,sans-Serif" font-size="10.00">/FitLandauPol0.cc</text>
</a>
</g>
<!-- Node1&#45;&gt;Node9 -->
<g id="edge16" class="edge"><title>Node1&#45;&gt;Node9</title>
<path fill="none" stroke="midnightblue" d="M722.426,-81.0913C796.436,-71.7391 913.052,-55.6697 1013,-36 1015.95,-35.4203 1018.95,-34.7994 1021.98,-34.1495"/>
<polygon fill="midnightblue" stroke="midnightblue" points="721.758,-77.6476 712.271,-82.366 722.63,-84.5931 721.758,-77.6476"/>
</g>
<!-- Node10 -->
<g id="node19" class="node"><title>Node10</title>
<a xlink:href="_fit_timewalk_8cc.html" target="_top" xlink:title="src/calibration/fitfunctions\l/FitTimewalk.cc">
<polygon fill="white" stroke="black" points="1168,-1 1168,-35 1296,-35 1296,-1 1168,-1"/>
<text text-anchor="start" x="1176" y="-22" font-family="Helvetica,sans-Serif" font-size="10.00">src/calibration/fitfunctions</text>
<text text-anchor="middle" x="1232" y="-9" font-family="Helvetica,sans-Serif" font-size="10.00">/FitTimewalk.cc</text>
</a>
</g>
<!-- Node1&#45;&gt;Node10 -->
<g id="edge18" class="edge"><title>Node1&#45;&gt;Node10</title>
<path fill="none" stroke="midnightblue" d="M722.106,-85.3546C821.914,-78.3736 1004.81,-63.0263 1159,-36 1161.83,-35.5042 1164.71,-34.9607 1167.61,-34.3813"/>
<polygon fill="midnightblue" stroke="midnightblue" points="721.857,-81.8634 712.122,-86.0444 722.339,-88.8468 721.857,-81.8634"/>
</g>
</g>
</svg>
