<?xml version="1.0" encoding="UTF-8" standalone="no"?>
<!DOCTYPE svg PUBLIC "-//W3C//DTD SVG 1.1//EN"
 "http://www.w3.org/Graphics/SVG/1.1/DTD/svg11.dtd">
<!-- Generated by graphviz version 2.26.3 (20100126.1600)
 -->
<!-- Title: src/expconfig/detectors/CB.h Pages: 1 -->
<svg width="1970pt" height="174pt"
 viewBox="0.00 0.00 1970.00 174.00" xmlns="http://www.w3.org/2000/svg" xmlns:xlink="http://www.w3.org/1999/xlink">
<g id="graph1" class="graph" transform="scale(1 1) rotate(0) translate(4 170)">
<title>src/expconfig/detectors/CB.h</title>
<polygon fill="white" stroke="white" points="-4,5 -4,-170 1967,-170 1967,5 -4,5"/>
<!-- Node1 -->
<g id="node1" class="node"><title>Node1</title>
<polygon fill="#bfbfbf" stroke="black" points="826,-144.5 826,-165.5 970,-165.5 970,-144.5 826,-144.5"/>
<text text-anchor="middle" x="898" y="-152.5" font-family="Helvetica,sans-Serif" font-size="10.00">src/expconfig/detectors/CB.h</text>
</g>
<!-- Node2 -->
<g id="node3" class="node"><title>Node2</title>
<a xlink:href="analysis_2physics_2calibration_2_c_b___energy_8cc.html" target="_top" xlink:title="src/analysis/physics\l/calibration/CB_Energy.cc">
<polygon fill="white" stroke="black" points="-0.5,-73 -0.5,-107 130.5,-107 130.5,-73 -0.5,-73"/>
<text text-anchor="start" x="7.5" y="-94" font-family="Helvetica,sans-Serif" font-size="10.00">src/analysis/physics</text>
<text text-anchor="middle" x="65" y="-81" font-family="Helvetica,sans-Serif" font-size="10.00">/calibration/CB_Energy.cc</text>
</a>
</g>
<!-- Node1&#45;&gt;Node2 -->
<g id="edge2" class="edge"><title>Node1&#45;&gt;Node2</title>
<path fill="none" stroke="midnightblue" d="M815.751,-151.747C647.165,-144.778 267.483,-127.448 139,-108 136.255,-107.584 133.462,-107.116 130.648,-106.606"/>
<polygon fill="midnightblue" stroke="midnightblue" points="815.679,-155.247 825.814,-152.161 815.967,-148.253 815.679,-155.247"/>
</g>
<!-- Node3 -->
<g id="node5" class="node"><title>Node3</title>
<a xlink:href="analysis_2physics_2calibration_2_c_b___time_walk_8cc.html" target="_top" xlink:title="src/analysis/physics\l/calibration/CB_TimeWalk.cc">
<polygon fill="white" stroke="black" points="148,-73 148,-107 292,-107 292,-73 148,-73"/>
<text text-anchor="start" x="156" y="-94" font-family="Helvetica,sans-Serif" font-size="10.00">src/analysis/physics</text>
<text text-anchor="middle" x="220" y="-81" font-family="Helvetica,sans-Serif" font-size="10.00">/calibration/CB_TimeWalk.cc</text>
</a>
</g>
<!-- Node1&#45;&gt;Node3 -->
<g id="edge4" class="edge"><title>Node1&#45;&gt;Node3</title>
<path fill="none" stroke="midnightblue" d="M815.775,-152.172C700.272,-147.372 483.649,-135.346 301,-108 298.151,-107.573 295.252,-107.104 292.33,-106.6"/>
<polygon fill="midnightblue" stroke="midnightblue" points="815.818,-155.676 825.953,-152.587 816.104,-148.682 815.818,-155.676"/>
</g>
<!-- Node4 -->
<g id="node7" class="node"><title>Node4</title>
<a xlink:href="calibration_2modules_2_c_b___energy_8cc.html" target="_top" xlink:title="src/calibration/modules\l/CB_Energy.cc">
<polygon fill="white" stroke="black" points="309.5,-73 309.5,-107 426.5,-107 426.5,-73 309.5,-73"/>
<text text-anchor="start" x="317.5" y="-94" font-family="Helvetica,sans-Serif" font-size="10.00">src/calibration/modules</text>
<text text-anchor="middle" x="368" y="-81" font-family="Helvetica,sans-Serif" font-size="10.00">/CB_Energy.cc</text>
</a>
</g>
<!-- Node1&#45;&gt;Node4 -->
<g id="edge6" class="edge"><title>Node1&#45;&gt;Node4</title>
<path fill="none" stroke="midnightblue" d="M815.516,-150.652C722.476,-144.817 566.93,-132.254 435,-108 432.275,-107.499 429.5,-106.943 426.704,-106.345"/>
<polygon fill="midnightblue" stroke="midnightblue" points="815.515,-154.158 825.711,-151.28 815.945,-147.172 815.515,-154.158"/>
</g>
<!-- Node5 -->
<g id="node9" class="node"><title>Node5</title>
<a xlink:href="calibration_2modules_2_c_b___time_walk_8cc.html" target="_top" xlink:title="src/calibration/modules\l/CB_TimeWalk.cc">
<polygon fill="white" stroke="black" points="443.5,-73 443.5,-107 560.5,-107 560.5,-73 443.5,-73"/>
<text text-anchor="start" x="451.5" y="-94" font-family="Helvetica,sans-Serif" font-size="10.00">src/calibration/modules</text>
<text text-anchor="middle" x="502" y="-81" font-family="Helvetica,sans-Serif" font-size="10.00">/CB_TimeWalk.cc</text>
</a>
</g>
<!-- Node1&#45;&gt;Node5 -->
<g id="edge8" class="edge"><title>Node1&#45;&gt;Node5</title>
<path fill="none" stroke="midnightblue" d="M815.607,-145.379C749.89,-137.146 655.652,-124.086 574,-108 569.702,-107.153 565.275,-106.214 560.83,-105.221"/>
<polygon fill="midnightblue" stroke="midnightblue" points="815.547,-148.899 825.903,-146.659 816.411,-141.952 815.547,-148.899"/>
</g>
<!-- Node6 -->
<g id="node11" class="node"><title>Node6</title>
<a xlink:href="_c_b_8cc.html" target="_top" xlink:title="src/expconfig/detectors\l/CB.cc">
<polygon fill="white" stroke="black" points="571.5,-1 571.5,-35 690.5,-35 690.5,-1 571.5,-1"/>
<text text-anchor="start" x="579.5" y="-22" font-family="Helvetica,sans-Serif" font-size="10.00">src/expconfig/detectors</text>
<text text-anchor="middle" x="631" y="-9" font-family="Helvetica,sans-Serif" font-size="10.00">/CB.cc</text>
</a>
</g>
<!-- Node1&#45;&gt;Node6 -->
<g id="edge10" class="edge"><title>Node1&#45;&gt;Node6</title>
<path fill="none" stroke="midnightblue" d="M815.725,-147.151C734.5,-138.552 620.502,-123.857 607,-108 589.388,-87.3149 605.228,-55.0193 618.198,-35.2602"/>
<polygon fill="midnightblue" stroke="midnightblue" points="815.647,-150.662 825.957,-148.221 816.375,-143.7 815.647,-150.662"/>
</g>
<!-- Node7 -->
<g id="node13" class="node"><title>Node7</title>
<a xlink:href="_c_b__elements_8h.html" target="_top" xlink:title="src/expconfig/detectors\l/detail/CB_elements.h">
<polygon fill="white" stroke="black" points="615.5,-73 615.5,-107 734.5,-107 734.5,-73 615.5,-73"/>
<text text-anchor="start" x="623.5" y="-94" font-family="Helvetica,sans-Serif" font-size="10.00">src/expconfig/detectors</text>
<text text-anchor="middle" x="675" y="-81" font-family="Helvetica,sans-Serif" font-size="10.00">/detail/CB_elements.h</text>
</a>
</g>
<!-- Node1&#45;&gt;Node7 -->
<g id="edge12" class="edge"><title>Node1&#45;&gt;Node7</title>
<path fill="none" stroke="midnightblue" d="M851.91,-141.566C817.598,-131.564 770.503,-117.837 733.53,-107.06"/>
<polygon fill="midnightblue" stroke="midnightblue" points="851.095,-144.974 861.675,-144.412 853.054,-138.253 851.095,-144.974"/>
</g>
<!-- Node8 -->
<g id="node16" class="node"><title>Node8</title>
<a xlink:href="_setup__2012__12___compton_8cc.html" target="_top" xlink:title="src/expconfig/setups\l/Setup_2012_12_Compton.cc">
<polygon fill="white" stroke="black" points="752,-73 752,-107 898,-107 898,-73 752,-73"/>
<text text-anchor="start" x="760" y="-94" font-family="Helvetica,sans-Serif" font-size="10.00">src/expconfig/setups</text>
<text text-anchor="middle" x="825" y="-81" font-family="Helvetica,sans-Serif" font-size="10.00">/Setup_2012_12_Compton.cc</text>
</a>
</g>
<!-- Node1&#45;&gt;Node8 -->
<g id="edge16" class="edge"><title>Node1&#45;&gt;Node8</title>
<path fill="none" stroke="midnightblue" d="M878.397,-137.545C867.796,-128.106 854.756,-116.495 844.216,-107.11"/>
<polygon fill="midnightblue" stroke="midnightblue" points="876.15,-140.231 885.946,-144.267 880.805,-135.003 876.15,-140.231"/>
</g>
<!-- Node9 -->
<g id="node18" class="node"><title>Node9</title>
<a xlink:href="_setup__2014___e_p_t_8cc.html" target="_top" xlink:title="src/expconfig/setups\l/Setup_2014_EPT.cc">
<polygon fill="white" stroke="black" points="916,-73 916,-107 1026,-107 1026,-73 916,-73"/>
<text text-anchor="start" x="924" y="-94" font-family="Helvetica,sans-Serif" font-size="10.00">src/expconfig/setups</text>
<text text-anchor="middle" x="971" y="-81" font-family="Helvetica,sans-Serif" font-size="10.00">/Setup_2014_EPT.cc</text>
</a>
</g>
<!-- Node1&#45;&gt;Node9 -->
<g id="edge18" class="edge"><title>Node1&#45;&gt;Node9</title>
<path fill="none" stroke="midnightblue" d="M917.603,-137.545C928.204,-128.106 941.244,-116.495 951.784,-107.11"/>
<polygon fill="midnightblue" stroke="midnightblue" points="915.195,-135.003 910.054,-144.267 919.85,-140.231 915.195,-135.003"/>
</g>
<!-- Node10 -->
<g id="node20" class="node"><title>Node10</title>
<a xlink:href="_setup__2015__01___pion_8cc.html" target="_top" xlink:title="src/expconfig/setups\l/Setup_2015_01_Pion.cc">
<polygon fill="white" stroke="black" points="1043.5,-73 1043.5,-107 1168.5,-107 1168.5,-73 1043.5,-73"/>
<text text-anchor="start" x="1051.5" y="-94" font-family="Helvetica,sans-Serif" font-size="10.00">src/expconfig/setups</text>
<text text-anchor="middle" x="1106" y="-81" font-family="Helvetica,sans-Serif" font-size="10.00">/Setup_2015_01_Pion.cc</text>
</a>
</g>
<!-- Node1&#45;&gt;Node10 -->
<g id="edge20" class="edge"><title>Node1&#45;&gt;Node10</title>
<path fill="none" stroke="midnightblue" d="M941.817,-141.307C973.747,-131.329 1017.22,-117.745 1051.41,-107.06"/>
<polygon fill="midnightblue" stroke="midnightblue" points="940.383,-138.088 931.882,-144.412 942.471,-144.77 940.383,-138.088"/>
</g>
<!-- Node11 -->
<g id="node22" class="node"><title>Node11</title>
<a xlink:href="_candidate_builder_8cc.html" target="_top" xlink:title="src/reconstruct/Candidate\lBuilder.cc">
<polygon fill="white" stroke="black" points="1185.5,-73 1185.5,-107 1314.5,-107 1314.5,-73 1185.5,-73"/>
<text text-anchor="start" x="1193.5" y="-94" font-family="Helvetica,sans-Serif" font-size="10.00">src/reconstruct/Candidate</text>
<text text-anchor="middle" x="1250" y="-81" font-family="Helvetica,sans-Serif" font-size="10.00">Builder.cc</text>
</a>
</g>
<!-- Node1&#45;&gt;Node11 -->
<g id="edge22" class="edge"><title>Node1&#45;&gt;Node11</title>
<path fill="none" stroke="midnightblue" d="M979.553,-142.91C1035.35,-134.236 1110.89,-121.699 1177,-108 1179.68,-107.444 1182.42,-106.858 1185.18,-106.25"/>
<polygon fill="midnightblue" stroke="midnightblue" points="978.72,-139.497 969.372,-144.484 979.789,-146.415 978.72,-139.497"/>
</g>
<!-- Node12 -->
<g id="node24" class="node"><title>Node12</title>
<a xlink:href="_detector_plots_8cc.html" target="_top" xlink:title="src/root&#45;addons/analysis\l_codes/DetectorPlots.cc">
<polygon fill="white" stroke="black" points="1331.5,-73 1331.5,-107 1456.5,-107 1456.5,-73 1331.5,-73"/>
<text text-anchor="start" x="1339.5" y="-94" font-family="Helvetica,sans-Serif" font-size="10.00">src/root&#45;addons/analysis</text>
<text text-anchor="middle" x="1394" y="-81" font-family="Helvetica,sans-Serif" font-size="10.00">_codes/DetectorPlots.cc</text>
</a>
</g>
<!-- Node1&#45;&gt;Node12 -->
<g id="edge24" class="edge"><title>Node1&#45;&gt;Node12</title>
<path fill="none" stroke="midnightblue" d="M980.473,-149.274C1066.46,-142.512 1204.9,-129.395 1323,-108 1325.75,-107.501 1328.56,-106.955 1331.38,-106.374"/>
<polygon fill="midnightblue" stroke="midnightblue" points="979.951,-145.804 970.252,-150.067 980.493,-152.783 979.951,-145.804"/>
</g>
<!-- Node13 -->
<g id="node26" class="node"><title>Node13</title>
<a xlink:href="_test_exp_config_8cc.html" target="_top" xlink:title="test/expconfig/TestExpConfig.cc">
<polygon fill="white" stroke="black" points="1474,-79.5 1474,-100.5 1634,-100.5 1634,-79.5 1474,-79.5"/>
<text text-anchor="middle" x="1554" y="-87.5" font-family="Helvetica,sans-Serif" font-size="10.00">test/expconfig/TestExpConfig.cc</text>
</a>
</g>
<!-- Node1&#45;&gt;Node13 -->
<g id="edge26" class="edge"><title>Node1&#45;&gt;Node13</title>
<path fill="none" stroke="midnightblue" d="M980.444,-151.192C1091.1,-145.391 1293.59,-132.353 1465,-108 1478.73,-106.049 1493.54,-103.312 1507.06,-100.56"/>
<polygon fill="midnightblue" stroke="midnightblue" points="980.159,-147.702 970.353,-151.714 980.521,-154.692 980.159,-147.702"/>
</g>
<!-- Node14 -->
<g id="node28" class="node"><title>Node14</title>
<a xlink:href="expconfig__helpers_8cc.html" target="_top" xlink:title="test/expconfig_helpers.cc">
<polygon fill="white" stroke="black" points="1652,-79.5 1652,-100.5 1780,-100.5 1780,-79.5 1652,-79.5"/>
<text text-anchor="middle" x="1716" y="-87.5" font-family="Helvetica,sans-Serif" font-size="10.00">test/expconfig_helpers.cc</text>
</a>
</g>
<!-- Node1&#45;&gt;Node14 -->
<g id="edge28" class="edge"><title>Node1&#45;&gt;Node14</title>
<path fill="none" stroke="midnightblue" d="M980.225,-151.67C1146.45,-144.634 1517.3,-127.304 1643,-108 1654.74,-106.197 1667.36,-103.401 1678.75,-100.547"/>
<polygon fill="midnightblue" stroke="midnightblue" points="979.902,-148.181 970.058,-152.099 980.196,-155.175 979.902,-148.181"/>
</g>
<!-- Node15 -->
<g id="node30" class="node"><title>Node15</title>
<a xlink:href="_test_clustering_8cc.html" target="_top" xlink:title="test/reconstruct/TestClustering.cc">
<polygon fill="white" stroke="black" points="1797.5,-79.5 1797.5,-100.5 1962.5,-100.5 1962.5,-79.5 1797.5,-79.5"/>
<text text-anchor="middle" x="1880" y="-87.5" font-family="Helvetica,sans-Serif" font-size="10.00">test/reconstruct/TestClustering.cc</text>
</a>
</g>
<!-- Node1&#45;&gt;Node15 -->
<g id="edge30" class="edge"><title>Node1&#45;&gt;Node15</title>
<path fill="none" stroke="midnightblue" d="M980.431,-152.157C1170.29,-145.366 1634.01,-127.317 1789,-108 1803.54,-106.188 1819.25,-103.389 1833.45,-100.535"/>
<polygon fill="midnightblue" stroke="midnightblue" points="980.102,-148.667 970.233,-152.521 980.351,-155.662 980.102,-148.667"/>
</g>
<!-- Node7&#45;&gt;Node6 -->
<g id="edge14" class="edge"><title>Node7&#45;&gt;Node6</title>
<path fill="none" stroke="midnightblue" d="M659.235,-64.2033C653.402,-54.6583 646.932,-44.0703 641.658,-35.4407"/>
<polygon fill="midnightblue" stroke="midnightblue" points="656.372,-66.2293 664.573,-72.937 662.345,-62.5791 656.372,-66.2293"/>
</g>
</g>
</svg>
