<?xml version="1.0" encoding="UTF-8" standalone="no"?>
<!DOCTYPE svg PUBLIC "-//W3C//DTD SVG 1.1//EN"
 "http://www.w3.org/Graphics/SVG/1.1/DTD/svg11.dtd">
<!-- Generated by graphviz version 2.26.3 (20100126.1600)
 -->
<!-- Title: src/analysis/physics/common/CandidatesAnalysis.cc Pages: 1 -->
<svg width="3176pt" height="652pt"
 viewBox="0.00 0.00 3176.13 652.00" xmlns="http://www.w3.org/2000/svg" xmlns:xlink="http://www.w3.org/1999/xlink">
<g id="graph1" class="graph" transform="scale(1 1) rotate(0) translate(4 648)">
<title>src/analysis/physics/common/CandidatesAnalysis.cc</title>
<polygon fill="white" stroke="white" points="-4,5 -4,-648 3173.13,-648 3173.13,5 -4,5"/>
<!-- Node1 -->
<g id="node1" class="node"><title>Node1</title>
<polygon fill="#bfbfbf" stroke="black" points="775.5,-609 775.5,-643 936.5,-643 936.5,-609 775.5,-609"/>
<text text-anchor="start" x="783.5" y="-630" font-family="Helvetica,sans-Serif" font-size="10.00">src/analysis/physics</text>
<text text-anchor="middle" x="856" y="-617" font-family="Helvetica,sans-Serif" font-size="10.00">/common/CandidatesAnalysis.cc</text>
</g>
<!-- Node2 -->
<g id="node3" class="node"><title>Node2</title>
<a xlink:href="_candidates_analysis_8h.html" target="_top" xlink:title="physics/common/Candidates\lAnalysis.h">
<polygon fill="white" stroke="black" points="2015.5,-537 2015.5,-571 2158.5,-571 2158.5,-537 2015.5,-537"/>
<text text-anchor="start" x="2023.5" y="-558" font-family="Helvetica,sans-Serif" font-size="10.00">physics/common/Candidates</text>
<text text-anchor="middle" x="2087" y="-545" font-family="Helvetica,sans-Serif" font-size="10.00">Analysis.h</text>
</a>
</g>
<!-- Node1&#45;&gt;Node2 -->
<g id="edge2" class="edge"><title>Node1&#45;&gt;Node2</title>
<path fill="none" stroke="midnightblue" d="M936.769,-621.276C1159.6,-608.243 1781.33,-571.879 2005.28,-558.779"/>
<polygon fill="midnightblue" stroke="midnightblue" points="2005.55,-562.27 2015.33,-558.192 2005.14,-555.282 2005.55,-562.27"/>
</g>
<!-- Node36 -->
<g id="node85" class="node"><title>Node36</title>
<polygon fill="white" stroke="#bfbfbf" points="175,-0.5 175,-21.5 219,-21.5 219,-0.5 175,-0.5"/>
<text text-anchor="middle" x="197" y="-8.5" font-family="Helvetica,sans-Serif" font-size="10.00">cmath</text>
</g>
<!-- Node1&#45;&gt;Node36 -->
<g id="edge354" class="edge"><title>Node1&#45;&gt;Node36</title>
<path fill="none" stroke="midnightblue" d="M775.418,-622.735C623.535,-616.039 300.429,-599.062 192,-572 101.802,-549.488 0,-581.965 0,-489 0,-489 0,-489 0,-127 0,-51.4937 108.789,-24.1495 164.681,-15.0836"/>
<polygon fill="midnightblue" stroke="midnightblue" points="165.423,-18.5111 174.785,-13.5505 164.373,-11.5903 165.423,-18.5111"/>
</g>
<!-- Node49 -->
<g id="node145" class="node"><title>Node49</title>
<a xlink:href="math_8h.html" target="_top" xlink:title="base/std_ext/math.h">
<polygon fill="white" stroke="black" points="312,-116.5 312,-137.5 418,-137.5 418,-116.5 312,-116.5"/>
<text text-anchor="middle" x="365" y="-124.5" font-family="Helvetica,sans-Serif" font-size="10.00">base/std_ext/math.h</text>
</a>
</g>
<!-- Node1&#45;&gt;Node49 -->
<g id="edge350" class="edge"><title>Node1&#45;&gt;Node49</title>
<path fill="none" stroke="midnightblue" d="M775.309,-619.737C580.797,-603.562 102,-556.853 102,-489 102,-489 102,-489 102,-315 102,-239.437 135.736,-218.233 197,-174 214.07,-161.675 262.153,-148.874 302.527,-139.75"/>
<polygon fill="midnightblue" stroke="midnightblue" points="303.332,-143.156 312.335,-137.57 301.814,-136.323 303.332,-143.156"/>
</g>
<!-- Node67 -->
<g id="node237" class="node"><title>Node67</title>
<a xlink:href="_cluster_tools_8h.html" target="_top" xlink:title="utils/ClusterTools.h">
<polygon fill="white" stroke="black" points="1713.5,-246.5 1713.5,-267.5 1814.5,-267.5 1814.5,-246.5 1713.5,-246.5"/>
<text text-anchor="middle" x="1764" y="-254.5" font-family="Helvetica,sans-Serif" font-size="10.00">utils/ClusterTools.h</text>
</a>
</g>
<!-- Node1&#45;&gt;Node67 -->
<g id="edge352" class="edge"><title>Node1&#45;&gt;Node67</title>
<path fill="none" stroke="midnightblue" d="M936.541,-612.873C1063.35,-590.142 1315.15,-536.573 1510,-442 1606.42,-395.2 1704.44,-311.274 1744.82,-274.769"/>
<polygon fill="midnightblue" stroke="midnightblue" points="1747.3,-277.251 1752.33,-267.927 1742.58,-272.078 1747.3,-277.251"/>
</g>
<!-- Node3 -->
<g id="node5" class="node"><title>Node3</title>
<a xlink:href="_physics_8h.html" target="_top" xlink:title="analysis/physics/Physics.h">
<polygon fill="white" stroke="black" points="2365,-478.5 2365,-499.5 2501,-499.5 2501,-478.5 2365,-478.5"/>
<text text-anchor="middle" x="2433" y="-486.5" font-family="Helvetica,sans-Serif" font-size="10.00">analysis/physics/Physics.h</text>
</a>
</g>
<!-- Node2&#45;&gt;Node3 -->
<g id="edge4" class="edge"><title>Node2&#45;&gt;Node3</title>
<path fill="none" stroke="midnightblue" d="M2158.69,-540.532C2219.97,-529.02 2307.44,-512.588 2367.02,-501.396"/>
<polygon fill="midnightblue" stroke="midnightblue" points="2367.88,-504.794 2377.07,-499.508 2366.59,-497.915 2367.88,-504.794"/>
</g>
<!-- Node15 -->
<g id="node29" class="node"><title>Node15</title>
<polygon fill="white" stroke="#bfbfbf" points="2638.5,-116.5 2638.5,-137.5 2679.5,-137.5 2679.5,-116.5 2638.5,-116.5"/>
<text text-anchor="middle" x="2659" y="-124.5" font-family="Helvetica,sans-Serif" font-size="10.00">string</text>
</g>
<!-- Node2&#45;&gt;Node15 -->
<g id="edge348" class="edge"><title>Node2&#45;&gt;Node15</title>
<path fill="none" stroke="midnightblue" d="M2158.92,-553.357C2399.93,-550.262 3164,-532.449 3164,-431 3164,-431 3164,-431 3164,-315 3164,-220.882 3091.91,-212.435 3006,-174 2879.21,-117.277 2828.62,-168.941 2689.86,-137.944"/>
<polygon fill="midnightblue" stroke="midnightblue" points="2690.25,-134.441 2679.71,-135.567 2688.65,-141.256 2690.25,-134.441"/>
</g>
<!-- Node2&#45;&gt;Node67 -->
<g id="edge340" class="edge"><title>Node2&#45;&gt;Node67</title>
<path fill="none" stroke="midnightblue" d="M2015.19,-539.771C1925.59,-519.914 1784,-480.677 1784,-431 1784,-431 1784,-431 1784,-373 1784,-339.127 1775.62,-300.489 1769.7,-277.456"/>
<polygon fill="midnightblue" stroke="midnightblue" points="1773.08,-276.531 1767.12,-267.768 1766.32,-278.332 1773.08,-276.531"/>
</g>
<!-- Node4 -->
<g id="node7" class="node"><title>Node4</title>
<a xlink:href="manager__t_8h.html" target="_top" xlink:title="analysis/physics/manager_t.h">
<polygon fill="white" stroke="black" points="2418,-420.5 2418,-441.5 2564,-441.5 2564,-420.5 2418,-420.5"/>
<text text-anchor="middle" x="2491" y="-428.5" font-family="Helvetica,sans-Serif" font-size="10.00">analysis/physics/manager_t.h</text>
</a>
</g>
<!-- Node3&#45;&gt;Node4 -->
<g id="edge6" class="edge"><title>Node3&#45;&gt;Node4</title>
<path fill="none" stroke="midnightblue" d="M2443.64,-478.362C2451.9,-470.104 2463.53,-458.472 2473.2,-448.803"/>
<polygon fill="midnightblue" stroke="midnightblue" points="2475.83,-451.117 2480.43,-441.571 2470.88,-446.167 2475.83,-451.117"/>
</g>
<!-- Node5 -->
<g id="node9" class="node"><title>Node5</title>
<a xlink:href="_histogram_factories_8h.html" target="_top" xlink:title="analysis/plot/HistogramFactories.h">
<polygon fill="white" stroke="black" points="2515,-246.5 2515,-267.5 2683,-267.5 2683,-246.5 2515,-246.5"/>
<text text-anchor="middle" x="2599" y="-254.5" font-family="Helvetica,sans-Serif" font-size="10.00">analysis/plot/HistogramFactories.h</text>
</a>
</g>
<!-- Node3&#45;&gt;Node5 -->
<g id="edge8" class="edge"><title>Node3&#45;&gt;Node5</title>
<path fill="none" stroke="midnightblue" d="M2501.07,-479.122C2543.7,-471.385 2592.96,-459.06 2606,-442 2643.31,-393.198 2621.01,-314.144 2607.31,-277.214"/>
<polygon fill="midnightblue" stroke="midnightblue" points="2610.45,-275.635 2603.57,-267.579 2603.92,-278.168 2610.45,-275.635"/>
</g>
<!-- Node3&#45;&gt;Node15 -->
<g id="edge332" class="edge"><title>Node3&#45;&gt;Node15</title>
<path fill="none" stroke="midnightblue" d="M2501.09,-483.282C2661.55,-468.894 3050,-428.349 3050,-373 3050,-373 3050,-373 3050,-257 3050,-200.933 3006.05,-197.171 2955,-174 2848.95,-125.867 2806.41,-165.147 2689.74,-137.965"/>
<polygon fill="midnightblue" stroke="midnightblue" points="2690.27,-134.491 2679.73,-135.512 2688.61,-141.29 2690.27,-134.491"/>
</g>
<!-- Node16 -->
<g id="node31" class="node"><title>Node16</title>
<a xlink:href="memory_8h.html" target="_top" xlink:title="base/std_ext/memory.h">
<polygon fill="white" stroke="black" points="2059.5,-181.5 2059.5,-202.5 2178.5,-202.5 2178.5,-181.5 2059.5,-181.5"/>
<text text-anchor="middle" x="2119" y="-189.5" font-family="Helvetica,sans-Serif" font-size="10.00">base/std_ext/memory.h</text>
</a>
</g>
<!-- Node3&#45;&gt;Node16 -->
<g id="edge30" class="edge"><title>Node3&#45;&gt;Node16</title>
<path fill="none" stroke="midnightblue" d="M2364.95,-482.418C2306.63,-475.469 2228.44,-462.619 2205,-442 2135.44,-380.822 2122.11,-260.727 2119.58,-212.633"/>
<polygon fill="midnightblue" stroke="midnightblue" points="2123.07,-212.367 2119.16,-202.522 2116.08,-212.66 2123.07,-212.367"/>
</g>
<!-- Node17 -->
<g id="node33" class="node"><title>Node17</title>
<polygon fill="white" stroke="#bfbfbf" points="1910,-116.5 1910,-137.5 1962,-137.5 1962,-116.5 1910,-116.5"/>
<text text-anchor="middle" x="1936" y="-124.5" font-family="Helvetica,sans-Serif" font-size="10.00">memory</text>
</g>
<!-- Node3&#45;&gt;Node17 -->
<g id="edge336" class="edge"><title>Node3&#45;&gt;Node17</title>
<path fill="none" stroke="midnightblue" d="M2364.83,-481.554C2258.7,-468.043 2066,-434.978 2066,-373 2066,-373 2066,-373 2066,-315 2066,-248.052 2055.67,-225.584 2013,-174 2001.94,-160.636 1986.04,-150.039 1971.56,-142.316"/>
<polygon fill="midnightblue" stroke="midnightblue" points="1972.82,-139.03 1962.31,-137.656 1969.67,-145.282 1972.82,-139.03"/>
</g>
<!-- Node18 -->
<g id="node35" class="node"><title>Node18</title>
<polygon fill="white" stroke="#bfbfbf" points="2191.5,-116.5 2191.5,-137.5 2220.5,-137.5 2220.5,-116.5 2191.5,-116.5"/>
<text text-anchor="middle" x="2206" y="-124.5" font-family="Helvetica,sans-Serif" font-size="10.00">list</text>
</g>
<!-- Node3&#45;&gt;Node18 -->
<g id="edge330" class="edge"><title>Node3&#45;&gt;Node18</title>
<path fill="none" stroke="midnightblue" d="M2501.2,-480.774C2544.72,-472.11 2590.03,-454.657 2573,-420 2505.65,-282.924 2419.01,-306.954 2301,-210 2274.32,-188.079 2244.47,-161.676 2225.47,-144.627"/>
<polygon fill="midnightblue" stroke="midnightblue" points="2227.57,-141.808 2217.8,-137.718 2222.89,-147.01 2227.57,-141.808"/>
</g>
<!-- Node19 -->
<g id="node37" class="node"><title>Node19</title>
<a xlink:href="_t_event_8h.html" target="_top" xlink:title="tree/TEvent.h">
<polygon fill="white" stroke="black" points="1264,-181.5 1264,-202.5 1340,-202.5 1340,-181.5 1264,-181.5"/>
<text text-anchor="middle" x="1302" y="-189.5" font-family="Helvetica,sans-Serif" font-size="10.00">tree/TEvent.h</text>
</a>
</g>
<!-- Node3&#45;&gt;Node19 -->
<g id="edge36" class="edge"><title>Node3&#45;&gt;Node19</title>
<path fill="none" stroke="midnightblue" d="M2364.86,-484.665C2288.09,-478.843 2159.93,-466.293 2052,-442 1972.06,-424.008 1952.95,-414.757 1877,-384 1746.19,-331.022 1725.89,-287.522 1591,-246 1487.07,-214.009 1454.18,-237.609 1349,-210 1344.82,-208.902 1340.49,-207.555 1336.24,-206.098"/>
<polygon fill="midnightblue" stroke="midnightblue" points="1337.14,-202.7 1326.55,-202.559 1334.74,-209.276 1337.14,-202.7"/>
</g>
<!-- Node21 -->
<g id="node44" class="node"><title>Node21</title>
<a xlink:href="_t_event_data_8h.html" target="_top" xlink:title="tree/TEventData.h">
<polygon fill="white" stroke="black" points="1404.5,-420.5 1404.5,-441.5 1501.5,-441.5 1501.5,-420.5 1404.5,-420.5"/>
<text text-anchor="middle" x="1453" y="-428.5" font-family="Helvetica,sans-Serif" font-size="10.00">tree/TEventData.h</text>
</a>
</g>
<!-- Node3&#45;&gt;Node21 -->
<g id="edge46" class="edge"><title>Node3&#45;&gt;Node21</title>
<path fill="none" stroke="midnightblue" d="M2364.86,-485.037C2226.91,-477.002 1904.65,-458.185 1634,-442 1593.24,-439.563 1547.32,-436.772 1511.94,-434.611"/>
<polygon fill="midnightblue" stroke="midnightblue" points="1511.98,-431.107 1501.78,-433.99 1511.55,-438.094 1511.98,-431.107"/>
</g>
<!-- Node52 -->
<g id="node160" class="node"><title>Node52</title>
<polygon fill="white" stroke="#bfbfbf" points="2696.5,-116.5 2696.5,-137.5 2755.5,-137.5 2755.5,-116.5 2696.5,-116.5"/>
<text text-anchor="middle" x="2726" y="-124.5" font-family="Helvetica,sans-Serif" font-size="10.00">functional</text>
</g>
<!-- Node3&#45;&gt;Node52 -->
<g id="edge338" class="edge"><title>Node3&#45;&gt;Node52</title>
<path fill="none" stroke="midnightblue" d="M2501.16,-484.597C2614.26,-476.908 2835.79,-460.117 2912,-442 2993.74,-422.569 3088,-457.019 3088,-373 3088,-373 3088,-373 3088,-257 3088,-205.145 3052.02,-197.894 3006,-174 2964.89,-152.656 2833.22,-137.319 2766.13,-130.673"/>
<polygon fill="midnightblue" stroke="midnightblue" points="2766.23,-127.167 2755.94,-129.682 2765.55,-134.134 2766.23,-127.167"/>
</g>
<!-- Node56 -->
<g id="node189" class="node"><title>Node56</title>
<polygon fill="white" stroke="#bfbfbf" points="2956.5,-116.5 2956.5,-137.5 2991.5,-137.5 2991.5,-116.5 2956.5,-116.5"/>
<text text-anchor="middle" x="2974" y="-124.5" font-family="Helvetica,sans-Serif" font-size="10.00">map</text>
</g>
<!-- Node3&#45;&gt;Node56 -->
<g id="edge334" class="edge"><title>Node3&#45;&gt;Node56</title>
<path fill="none" stroke="midnightblue" d="M2501.08,-487.157C2631.19,-483.013 2910.38,-470.962 3002,-442 3050.62,-426.629 3070.93,-425.185 3101,-384 3156.98,-307.332 3197.26,-249.718 3140,-174 3123.35,-151.976 3044.57,-137.296 3001.8,-130.807"/>
<polygon fill="midnightblue" stroke="midnightblue" points="3002.16,-127.322 2991.76,-129.333 3001.15,-134.248 3002.16,-127.322"/>
</g>
<!-- Node61 -->
<g id="node209" class="node"><title>Node61</title>
<a xlink:href="_options_list_8h.html" target="_top" xlink:title="base/OptionsList.h">
<polygon fill="white" stroke="black" points="2848,-181.5 2848,-202.5 2946,-202.5 2946,-181.5 2848,-181.5"/>
<text text-anchor="middle" x="2897" y="-189.5" font-family="Helvetica,sans-Serif" font-size="10.00">base/OptionsList.h</text>
</a>
</g>
<!-- Node3&#45;&gt;Node61 -->
<g id="edge296" class="edge"><title>Node3&#45;&gt;Node61</title>
<path fill="none" stroke="midnightblue" d="M2501.38,-485.406C2626.59,-476.942 2880,-450.268 2880,-373 2880,-373 2880,-373 2880,-315 2880,-278.733 2887.34,-237.014 2892.38,-212.67"/>
<polygon fill="midnightblue" stroke="midnightblue" points="2895.82,-213.301 2894.49,-202.79 2888.98,-211.835 2895.82,-213.301"/>
</g>
<!-- Node63 -->
<g id="node217" class="node"><title>Node63</title>
<a xlink:href="root__draw_8h.html" target="_top" xlink:title="analysis/plot/root\l_draw.h">
<polygon fill="white" stroke="black" points="2561.5,-175 2561.5,-209 2652.5,-209 2652.5,-175 2561.5,-175"/>
<text text-anchor="start" x="2569.5" y="-196" font-family="Helvetica,sans-Serif" font-size="10.00">analysis/plot/root</text>
<text text-anchor="middle" x="2607" y="-183" font-family="Helvetica,sans-Serif" font-size="10.00">_draw.h</text>
</a>
</g>
<!-- Node3&#45;&gt;Node63 -->
<g id="edge308" class="edge"><title>Node3&#45;&gt;Node63</title>
<path fill="none" stroke="midnightblue" d="M2501.25,-479.743C2539.1,-472.808 2586.22,-461.123 2625,-442 2668.95,-420.328 2711,-422.004 2711,-373 2711,-373 2711,-373 2711,-315 2711,-283.192 2710.91,-271.574 2692,-246 2682.45,-233.085 2668.81,-222.485 2655.24,-214.202"/>
<polygon fill="midnightblue" stroke="midnightblue" points="2656.79,-211.055 2646.38,-209.092 2653.29,-217.119 2656.79,-211.055"/>
</g>
<!-- Node64 -->
<g id="node226" class="node"><title>Node64</title>
<polygon fill="white" stroke="#bfbfbf" points="2213.5,-420.5 2213.5,-441.5 2264.5,-441.5 2264.5,-420.5 2213.5,-420.5"/>
<text text-anchor="middle" x="2239" y="-428.5" font-family="Helvetica,sans-Serif" font-size="10.00">TH1D.h</text>
</g>
<!-- Node3&#45;&gt;Node64 -->
<g id="edge324" class="edge"><title>Node3&#45;&gt;Node64</title>
<path fill="none" stroke="midnightblue" d="M2396.06,-478.456C2365.67,-469.714 2321.24,-456.778 2274.32,-442.363"/>
<polygon fill="midnightblue" stroke="midnightblue" points="2275.18,-438.965 2264.6,-439.363 2273.12,-445.655 2275.18,-438.965"/>
</g>
<!-- Node65 -->
<g id="node228" class="node"><title>Node65</title>
<polygon fill="white" stroke="#bfbfbf" points="2281.5,-420.5 2281.5,-441.5 2332.5,-441.5 2332.5,-420.5 2281.5,-420.5"/>
<text text-anchor="middle" x="2307" y="-428.5" font-family="Helvetica,sans-Serif" font-size="10.00">TH2D.h</text>
</g>
<!-- Node3&#45;&gt;Node65 -->
<g id="edge326" class="edge"><title>Node3&#45;&gt;Node65</title>
<path fill="none" stroke="midnightblue" d="M2410.18,-478.497C2390.41,-469.397 2361.59,-456.127 2339.42,-445.925"/>
<polygon fill="midnightblue" stroke="midnightblue" points="2340.62,-442.623 2330.07,-441.621 2337.69,-448.982 2340.62,-442.623"/>
</g>
<!-- Node66 -->
<g id="node230" class="node"><title>Node66</title>
<polygon fill="white" stroke="#bfbfbf" points="2349.5,-420.5 2349.5,-441.5 2400.5,-441.5 2400.5,-420.5 2349.5,-420.5"/>
<text text-anchor="middle" x="2375" y="-428.5" font-family="Helvetica,sans-Serif" font-size="10.00">TH3D.h</text>
</g>
<!-- Node3&#45;&gt;Node66 -->
<g id="edge328" class="edge"><title>Node3&#45;&gt;Node66</title>
<path fill="none" stroke="midnightblue" d="M2422.36,-478.362C2414.1,-470.104 2402.47,-458.472 2392.8,-448.803"/>
<polygon fill="midnightblue" stroke="midnightblue" points="2395.12,-446.167 2385.57,-441.571 2390.17,-451.117 2395.12,-446.167"/>
</g>
<!-- Node6 -->
<g id="node11" class="node"><title>Node6</title>
<a xlink:href="interval_8h.html" target="_top" xlink:title="base/interval.h">
<polygon fill="white" stroke="black" points="2426,-181.5 2426,-202.5 2506,-202.5 2506,-181.5 2426,-181.5"/>
<text text-anchor="middle" x="2466" y="-189.5" font-family="Helvetica,sans-Serif" font-size="10.00">base/interval.h</text>
</a>
</g>
<!-- Node5&#45;&gt;Node6 -->
<g id="edge10" class="edge"><title>Node5&#45;&gt;Node6</title>
<path fill="none" stroke="midnightblue" d="M2577.34,-246.412C2555.5,-235.741 2521.6,-219.172 2496.94,-207.12"/>
<polygon fill="midnightblue" stroke="midnightblue" points="2498.18,-203.83 2487.66,-202.584 2495.1,-210.119 2498.18,-203.83"/>
</g>
<!-- Node5&#45;&gt;Node15 -->
<g id="edge28" class="edge"><title>Node5&#45;&gt;Node15</title>
<path fill="none" stroke="midnightblue" d="M2622.02,-246.371C2636.09,-238.508 2652.89,-226.33 2661,-210 2670.72,-190.437 2668.23,-164.949 2664.58,-147.407"/>
<polygon fill="midnightblue" stroke="midnightblue" points="2667.98,-146.555 2662.26,-137.635 2661.17,-148.174 2667.98,-146.555"/>
</g>
<!-- Node7 -->
<g id="node13" class="node"><title>Node7</title>
<a xlink:href="printable_8h.html" target="_top" xlink:title="printable.h">
<polygon fill="white" stroke="black" points="1763,-58.5 1763,-79.5 1825,-79.5 1825,-58.5 1763,-58.5"/>
<text text-anchor="middle" x="1794" y="-66.5" font-family="Helvetica,sans-Serif" font-size="10.00">printable.h</text>
</a>
</g>
<!-- Node6&#45;&gt;Node7 -->
<g id="edge12" class="edge"><title>Node6&#45;&gt;Node7</title>
<path fill="none" stroke="midnightblue" d="M2472.23,-181.335C2480.87,-165.007 2493.65,-133.834 2477,-116 2455.02,-92.4525 1980.32,-75.0773 1835.54,-70.3108"/>
<polygon fill="midnightblue" stroke="midnightblue" points="1835.42,-66.8049 1825.31,-69.9767 1835.19,-73.8011 1835.42,-66.8049"/>
</g>
<!-- Node10 -->
<g id="node19" class="node"><title>Node10</title>
<a xlink:href="types_8h.html" target="_top" xlink:title="types.h">
<polygon fill="white" stroke="black" points="2315.5,-116.5 2315.5,-137.5 2364.5,-137.5 2364.5,-116.5 2315.5,-116.5"/>
<text text-anchor="middle" x="2340" y="-124.5" font-family="Helvetica,sans-Serif" font-size="10.00">types.h</text>
</a>
</g>
<!-- Node6&#45;&gt;Node10 -->
<g id="edge18" class="edge"><title>Node6&#45;&gt;Node10</title>
<path fill="none" stroke="midnightblue" d="M2445.48,-181.412C2424.88,-170.788 2392.96,-154.318 2369.62,-142.28"/>
<polygon fill="midnightblue" stroke="midnightblue" points="2371.01,-139.058 2360.52,-137.584 2367.8,-145.279 2371.01,-139.058"/>
</g>
<!-- Node11 -->
<g id="node21" class="node"><title>Node11</title>
<polygon fill="white" stroke="#bfbfbf" points="1282,-116.5 1282,-137.5 1338,-137.5 1338,-116.5 1282,-116.5"/>
<text text-anchor="middle" x="1310" y="-124.5" font-family="Helvetica,sans-Serif" font-size="10.00">algorithm</text>
</g>
<!-- Node6&#45;&gt;Node11 -->
<g id="edge20" class="edge"><title>Node6&#45;&gt;Node11</title>
<path fill="none" stroke="midnightblue" d="M2425.95,-182.236C2411.27,-179.05 2394.47,-175.856 2379,-174 1926.66,-119.713 1801.77,-210.64 1348.2,-137.798"/>
<polygon fill="midnightblue" stroke="midnightblue" points="1348.54,-134.307 1338.11,-136.159 1347.42,-141.217 1348.54,-134.307"/>
</g>
<!-- Node12 -->
<g id="node23" class="node"><title>Node12</title>
<polygon fill="white" stroke="#bfbfbf" points="903.5,-116.5 903.5,-137.5 962.5,-137.5 962.5,-116.5 903.5,-116.5"/>
<text text-anchor="middle" x="933" y="-124.5" font-family="Helvetica,sans-Serif" font-size="10.00">stdexcept</text>
</g>
<!-- Node6&#45;&gt;Node12 -->
<g id="edge22" class="edge"><title>Node6&#45;&gt;Node12</title>
<path fill="none" stroke="midnightblue" d="M2425.96,-182.163C2411.28,-178.969 2394.48,-175.79 2379,-174 1773.93,-104.02 1615.9,-189.714 1009,-138 997.082,-136.984 984.183,-135.33 972.454,-133.608"/>
<polygon fill="midnightblue" stroke="midnightblue" points="972.916,-130.138 962.503,-132.093 971.862,-137.059 972.916,-130.138"/>
</g>
<!-- Node13 -->
<g id="node25" class="node"><title>Node13</title>
<polygon fill="white" stroke="#bfbfbf" points="856,-58.5 856,-79.5 896,-79.5 896,-58.5 856,-58.5"/>
<text text-anchor="middle" x="876" y="-66.5" font-family="Helvetica,sans-Serif" font-size="10.00">limits</text>
</g>
<!-- Node6&#45;&gt;Node13 -->
<g id="edge24" class="edge"><title>Node6&#45;&gt;Node13</title>
<path fill="none" stroke="midnightblue" d="M2454.98,-181.441C2434.69,-162.26 2391.75,-123.019 2373,-116 2301.83,-89.3516 1111.87,-72.1742 906.172,-69.3973"/>
<polygon fill="midnightblue" stroke="midnightblue" points="906.134,-65.8966 896.088,-69.2621 906.04,-72.8959 906.134,-65.8966"/>
</g>
<!-- Node14 -->
<g id="node27" class="node"><title>Node14</title>
<polygon fill="white" stroke="#bfbfbf" points="2419.5,-116.5 2419.5,-137.5 2468.5,-137.5 2468.5,-116.5 2419.5,-116.5"/>
<text text-anchor="middle" x="2444" y="-124.5" font-family="Helvetica,sans-Serif" font-size="10.00">istream</text>
</g>
<!-- Node6&#45;&gt;Node14 -->
<g id="edge26" class="edge"><title>Node6&#45;&gt;Node14</title>
<path fill="none" stroke="midnightblue" d="M2462.37,-181.267C2459.23,-171.991 2454.61,-158.336 2450.78,-147.045"/>
<polygon fill="midnightblue" stroke="midnightblue" points="2454.09,-145.884 2447.57,-137.534 2447.46,-148.128 2454.09,-145.884"/>
</g>
<!-- Node8 -->
<g id="node15" class="node"><title>Node8</title>
<polygon fill="white" stroke="#bfbfbf" points="1344,-0.5 1344,-21.5 1388,-21.5 1388,-0.5 1344,-0.5"/>
<text text-anchor="middle" x="1366" y="-8.5" font-family="Helvetica,sans-Serif" font-size="10.00">vector</text>
</g>
<!-- Node7&#45;&gt;Node8 -->
<g id="edge14" class="edge"><title>Node7&#45;&gt;Node8</title>
<path fill="none" stroke="midnightblue" d="M1762.87,-64.7821C1684.17,-54.1169 1477.83,-26.1547 1398.09,-15.3491"/>
<polygon fill="midnightblue" stroke="midnightblue" points="1398.52,-11.8752 1388.14,-14.0006 1397.58,-18.8118 1398.52,-11.8752"/>
</g>
<!-- Node9 -->
<g id="node17" class="node"><title>Node9</title>
<polygon fill="white" stroke="#bfbfbf" points="2453,-0.5 2453,-21.5 2505,-21.5 2505,-0.5 2453,-0.5"/>
<text text-anchor="middle" x="2479" y="-8.5" font-family="Helvetica,sans-Serif" font-size="10.00">ostream</text>
</g>
<!-- Node7&#45;&gt;Node9 -->
<g id="edge16" class="edge"><title>Node7&#45;&gt;Node9</title>
<path fill="none" stroke="midnightblue" d="M1825.21,-66.3571C1937.76,-56.8274 2322.44,-24.2561 2442.74,-14.0701"/>
<polygon fill="midnightblue" stroke="midnightblue" points="2443.23,-17.5416 2452.9,-13.2103 2442.64,-10.5665 2443.23,-17.5416"/>
</g>
<!-- Node16&#45;&gt;Node17 -->
<g id="edge32" class="edge"><title>Node16&#45;&gt;Node17</title>
<path fill="none" stroke="midnightblue" d="M2089.19,-181.412C2057.11,-170.018 2006.1,-151.898 1971.85,-139.734"/>
<polygon fill="midnightblue" stroke="midnightblue" points="1972.83,-136.367 1962.23,-136.318 1970.49,-142.964 1972.83,-136.367"/>
</g>
<!-- Node16&#45;&gt;Node18 -->
<g id="edge34" class="edge"><title>Node16&#45;&gt;Node18</title>
<path fill="none" stroke="midnightblue" d="M2133.37,-181.267C2147.05,-171.044 2167.85,-155.504 2183.69,-143.67"/>
<polygon fill="midnightblue" stroke="midnightblue" points="2185.98,-146.323 2191.9,-137.534 2181.8,-140.715 2185.98,-146.323"/>
</g>
<!-- Node19&#45;&gt;Node7 -->
<g id="edge40" class="edge"><title>Node19&#45;&gt;Node7</title>
<path fill="none" stroke="midnightblue" d="M1327.64,-181.467C1334.51,-178.841 1341.99,-176.16 1349,-174 1495.3,-128.949 1673.7,-92.1891 1752.82,-76.7932"/>
<polygon fill="midnightblue" stroke="midnightblue" points="1753.71,-80.1856 1762.87,-74.8498 1752.38,-73.313 1753.71,-80.1856"/>
</g>
<!-- Node19&#45;&gt;Node12 -->
<g id="edge44" class="edge"><title>Node19&#45;&gt;Node12</title>
<path fill="none" stroke="midnightblue" d="M1263.9,-185.289C1193.52,-172.891 1043.82,-146.522 972.447,-133.949"/>
<polygon fill="midnightblue" stroke="midnightblue" points="972.958,-130.485 962.503,-132.197 971.744,-137.379 972.958,-130.485"/>
</g>
<!-- Node19&#45;&gt;Node17 -->
<g id="edge42" class="edge"><title>Node19&#45;&gt;Node17</title>
<path fill="none" stroke="midnightblue" d="M1325.49,-181.442C1332.87,-178.551 1341.15,-175.737 1349,-174 1572.59,-124.508 1635.37,-163.081 1863,-138 1875.02,-136.675 1888.1,-134.833 1899.82,-133.034"/>
<polygon fill="midnightblue" stroke="midnightblue" points="1900.38,-136.49 1909.71,-131.479 1899.29,-129.575 1900.38,-136.49"/>
</g>
<!-- Node20 -->
<g id="node39" class="node"><title>Node20</title>
<polygon fill="white" stroke="#bfbfbf" points="1356,-116.5 1356,-137.5 1412,-137.5 1412,-116.5 1356,-116.5"/>
<text text-anchor="middle" x="1384" y="-124.5" font-family="Helvetica,sans-Serif" font-size="10.00">Rtypes.h</text>
</g>
<!-- Node19&#45;&gt;Node20 -->
<g id="edge38" class="edge"><title>Node19&#45;&gt;Node20</title>
<path fill="none" stroke="midnightblue" d="M1315.54,-181.267C1328.32,-171.139 1347.68,-155.792 1362.55,-144"/>
<polygon fill="midnightblue" stroke="midnightblue" points="1365.05,-146.488 1370.71,-137.534 1360.7,-141.003 1365.05,-146.488"/>
</g>
<!-- Node21&#45;&gt;Node7 -->
<g id="edge48" class="edge"><title>Node21&#45;&gt;Node7</title>
<path fill="none" stroke="midnightblue" d="M1501.82,-428.665C1621.84,-422.66 1928.84,-405.621 2029,-384 2253.26,-335.588 2382.91,-397.588 2515,-210 2539.59,-175.076 2528.93,-141.946 2495,-116 2468.68,-95.8734 1981.91,-76.0491 1835.39,-70.5168"/>
<polygon fill="midnightblue" stroke="midnightblue" points="1835.16,-67.0061 1825.04,-70.1286 1834.9,-74.0011 1835.16,-67.0061"/>
</g>
<!-- Node22 -->
<g id="node47" class="node"><title>Node22</title>
<a xlink:href="_t_i_d_8h.html" target="_top" xlink:title="TID.h">
<polygon fill="white" stroke="black" points="601.5,-304.5 601.5,-325.5 642.5,-325.5 642.5,-304.5 601.5,-304.5"/>
<text text-anchor="middle" x="622" y="-312.5" font-family="Helvetica,sans-Serif" font-size="10.00">TID.h</text>
</a>
</g>
<!-- Node21&#45;&gt;Node22 -->
<g id="edge50" class="edge"><title>Node21&#45;&gt;Node22</title>
<path fill="none" stroke="midnightblue" d="M1404.28,-429.737C1233.51,-425.108 670.784,-408.083 641,-384 626.928,-372.621 622.718,-351.856 621.703,-336.067"/>
<polygon fill="midnightblue" stroke="midnightblue" points="625.192,-335.562 621.434,-325.656 618.194,-335.743 625.192,-335.562"/>
</g>
<!-- Node32 -->
<g id="node75" class="node"><title>Node32</title>
<a xlink:href="_t_detector_read_hit_8h.html" target="_top" xlink:title="TDetectorReadHit.h">
<polygon fill="white" stroke="black" points="876,-246.5 876,-267.5 980,-267.5 980,-246.5 876,-246.5"/>
<text text-anchor="middle" x="928" y="-254.5" font-family="Helvetica,sans-Serif" font-size="10.00">TDetectorReadHit.h</text>
</a>
</g>
<!-- Node21&#45;&gt;Node32 -->
<g id="edge86" class="edge"><title>Node21&#45;&gt;Node32</title>
<path fill="none" stroke="midnightblue" d="M1420.95,-420.377C1330.14,-390.279 1071.13,-304.436 969.573,-270.779"/>
<polygon fill="midnightblue" stroke="midnightblue" points="970.557,-267.418 959.964,-267.594 968.355,-274.062 970.557,-267.418"/>
</g>
<!-- Node37 -->
<g id="node95" class="node"><title>Node37</title>
<a xlink:href="_t_slow_control_8h.html" target="_top" xlink:title="TSlowControl.h">
<polygon fill="white" stroke="black" points="464,-362.5 464,-383.5 548,-383.5 548,-362.5 464,-362.5"/>
<text text-anchor="middle" x="506" y="-370.5" font-family="Helvetica,sans-Serif" font-size="10.00">TSlowControl.h</text>
</a>
</g>
<!-- Node21&#45;&gt;Node37 -->
<g id="edge116" class="edge"><title>Node21&#45;&gt;Node37</title>
<path fill="none" stroke="midnightblue" d="M1404.36,-429.178C1274.76,-424.133 910.4,-408.699 608,-384 591.836,-382.68 574.267,-380.907 558.336,-379.171"/>
<polygon fill="midnightblue" stroke="midnightblue" points="558.46,-375.663 548.136,-378.04 557.689,-382.621 558.46,-375.663"/>
</g>
<!-- Node38 -->
<g id="node102" class="node"><title>Node38</title>
<a xlink:href="_t_unpacker_message_8h.html" target="_top" xlink:title="TUnpackerMessage.h">
<polygon fill="white" stroke="black" points="1469.5,-246.5 1469.5,-267.5 1582.5,-267.5 1582.5,-246.5 1469.5,-246.5"/>
<text text-anchor="middle" x="1526" y="-254.5" font-family="Helvetica,sans-Serif" font-size="10.00">TUnpackerMessage.h</text>
</a>
</g>
<!-- Node21&#45;&gt;Node38 -->
<g id="edge128" class="edge"><title>Node21&#45;&gt;Node38</title>
<path fill="none" stroke="midnightblue" d="M1457.46,-420.377C1469.34,-392.051 1501.94,-314.349 1517.51,-277.242"/>
<polygon fill="midnightblue" stroke="midnightblue" points="1520.77,-278.503 1521.42,-267.928 1514.32,-275.795 1520.77,-278.503"/>
</g>
<!-- Node45 -->
<g id="node124" class="node"><title>Node45</title>
<a xlink:href="_t_tagger_hit_8h.html" target="_top" xlink:title="TTaggerHit.h">
<polygon fill="white" stroke="black" points="650,-362.5 650,-383.5 724,-383.5 724,-362.5 650,-362.5"/>
<text text-anchor="middle" x="687" y="-370.5" font-family="Helvetica,sans-Serif" font-size="10.00">TTaggerHit.h</text>
</a>
</g>
<!-- Node21&#45;&gt;Node45 -->
<g id="edge158" class="edge"><title>Node21&#45;&gt;Node45</title>
<path fill="none" stroke="midnightblue" d="M1404.21,-427.306C1265.62,-416.812 870.83,-386.919 734.211,-376.575"/>
<polygon fill="midnightblue" stroke="midnightblue" points="734.304,-373.072 724.068,-375.807 733.775,-380.052 734.304,-373.072"/>
</g>
<!-- Node47 -->
<g id="node134" class="node"><title>Node47</title>
<a xlink:href="_t_trigger_8h.html" target="_top" xlink:title="TTrigger.h">
<polygon fill="white" stroke="black" points="2309.5,-181.5 2309.5,-202.5 2370.5,-202.5 2370.5,-181.5 2309.5,-181.5"/>
<text text-anchor="middle" x="2340" y="-189.5" font-family="Helvetica,sans-Serif" font-size="10.00">TTrigger.h</text>
</a>
</g>
<!-- Node21&#45;&gt;Node47 -->
<g id="edge174" class="edge"><title>Node21&#45;&gt;Node47</title>
<path fill="none" stroke="midnightblue" d="M1501.85,-429.048C1615.97,-424.111 1897.27,-409.662 1988,-384 2043.47,-368.312 2053.14,-353.129 2104,-326 2180.88,-284.991 2269.84,-233.304 2313.31,-207.766"/>
<polygon fill="midnightblue" stroke="midnightblue" points="2315.28,-210.67 2322.12,-202.582 2311.73,-204.637 2315.28,-210.67"/>
</g>
<!-- Node48 -->
<g id="node141" class="node"><title>Node48</title>
<a xlink:href="_t_target_8h.html" target="_top" xlink:title="TTarget.h">
<polygon fill="white" stroke="black" points="1945.5,-181.5 1945.5,-202.5 2004.5,-202.5 2004.5,-181.5 1945.5,-181.5"/>
<text text-anchor="middle" x="1975" y="-189.5" font-family="Helvetica,sans-Serif" font-size="10.00">TTarget.h</text>
</a>
</g>
<!-- Node21&#45;&gt;Node48 -->
<g id="edge186" class="edge"><title>Node21&#45;&gt;Node48</title>
<path fill="none" stroke="midnightblue" d="M1501.76,-428.545C1620.71,-422.264 1918.96,-404.642 1959,-384 1989.25,-368.405 1997.15,-357.903 2009,-326 2023.74,-286.325 2002.04,-237.726 1987.11,-211.324"/>
<polygon fill="midnightblue" stroke="midnightblue" points="1990.09,-209.491 1981.99,-202.658 1984.06,-213.049 1990.09,-209.491"/>
</g>
<!-- Node50 -->
<g id="node152" class="node"><title>Node50</title>
<a xlink:href="_t_cluster_8h.html" target="_top" xlink:title="TCluster.h">
<polygon fill="white" stroke="black" points="720,-246.5 720,-267.5 782,-267.5 782,-246.5 720,-246.5"/>
<text text-anchor="middle" x="751" y="-254.5" font-family="Helvetica,sans-Serif" font-size="10.00">TCluster.h</text>
</a>
</g>
<!-- Node21&#45;&gt;Node50 -->
<g id="edge204" class="edge"><title>Node21&#45;&gt;Node50</title>
<path fill="none" stroke="midnightblue" d="M1404.1,-420.526C1361.47,-411.283 1298.03,-397.256 1243,-384 1075.08,-343.549 876.228,-290.686 791.979,-268.058"/>
<polygon fill="midnightblue" stroke="midnightblue" points="792.848,-264.667 782.282,-265.451 791.031,-271.427 792.848,-264.667"/>
</g>
<!-- Node53 -->
<g id="node169" class="node"><title>Node53</title>
<a xlink:href="_t_candidate_8h.html" target="_top" xlink:title="TCandidate.h">
<polygon fill="white" stroke="black" points="1198.5,-304.5 1198.5,-325.5 1273.5,-325.5 1273.5,-304.5 1198.5,-304.5"/>
<text text-anchor="middle" x="1236" y="-312.5" font-family="Helvetica,sans-Serif" font-size="10.00">TCandidate.h</text>
</a>
</g>
<!-- Node21&#45;&gt;Node53 -->
<g id="edge232" class="edge"><title>Node21&#45;&gt;Node53</title>
<path fill="none" stroke="midnightblue" d="M1432.97,-420.295C1394.28,-399.612 1309.14,-354.099 1264.54,-330.254"/>
<polygon fill="midnightblue" stroke="midnightblue" points="1266.13,-327.139 1255.66,-325.512 1262.83,-333.313 1266.13,-327.139"/>
</g>
<!-- Node54 -->
<g id="node178" class="node"><title>Node54</title>
<a xlink:href="_t_particle_8h.html" target="_top" xlink:title="TParticle.h">
<polygon fill="white" stroke="black" points="1886,-362.5 1886,-383.5 1950,-383.5 1950,-362.5 1886,-362.5"/>
<text text-anchor="middle" x="1918" y="-370.5" font-family="Helvetica,sans-Serif" font-size="10.00">TParticle.h</text>
</a>
</g>
<!-- Node21&#45;&gt;Node54 -->
<g id="edge248" class="edge"><title>Node21&#45;&gt;Node54</title>
<path fill="none" stroke="midnightblue" d="M1501.88,-424.903C1593.53,-413.472 1789.67,-389.007 1875.88,-378.254"/>
<polygon fill="midnightblue" stroke="midnightblue" points="1876.34,-381.723 1885.83,-377.012 1875.48,-374.777 1876.34,-381.723"/>
</g>
<!-- Node22&#45;&gt;Node7 -->
<g id="edge54" class="edge"><title>Node22&#45;&gt;Node7</title>
<path fill="none" stroke="midnightblue" d="M642.505,-313.035C705.042,-306.992 898.843,-287.88 1059,-268 1242.51,-245.221 1302.04,-285.138 1471,-210 1493.77,-199.872 1492.68,-186.919 1514,-174 1592.58,-126.374 1696.34,-94.4144 1752.9,-79.2227"/>
<polygon fill="midnightblue" stroke="midnightblue" points="1754.12,-82.52 1762.9,-76.5812 1752.33,-75.7523 1754.12,-82.52"/>
</g>
<!-- Node22&#45;&gt;Node12 -->
<g id="edge78" class="edge"><title>Node22&#45;&gt;Node12</title>
<path fill="none" stroke="midnightblue" d="M620.43,-304.254C617.232,-277.79 613.108,-209.087 650,-174 687.85,-138.002 826.14,-148.429 893.116,-137.911"/>
<polygon fill="midnightblue" stroke="midnightblue" points="894.034,-141.301 903.227,-136.033 892.756,-134.418 894.034,-141.301"/>
</g>
<!-- Node22&#45;&gt;Node18 -->
<g id="edge80" class="edge"><title>Node22&#45;&gt;Node18</title>
<path fill="none" stroke="midnightblue" d="M642.79,-314.395C765.664,-310.758 1398.06,-291.176 1591,-268 1642.23,-261.846 1653.85,-252.822 1705,-246 1758.23,-238.9 2146.28,-245.013 2187,-210 2204.62,-194.854 2207.76,-167.025 2207.57,-147.792"/>
<polygon fill="midnightblue" stroke="midnightblue" points="2211.06,-147.47 2207.15,-137.622 2204.06,-147.757 2211.06,-147.47"/>
</g>
<!-- Node22&#45;&gt;Node20 -->
<g id="edge52" class="edge"><title>Node22&#45;&gt;Node20</title>
<path fill="none" stroke="midnightblue" d="M642.571,-309.354C674.41,-300.599 737.533,-283.173 791,-268 824.829,-258.4 833.166,-255.581 867,-246 924.684,-229.665 944.802,-239.49 997,-210 1017.26,-198.556 1013.92,-183.838 1035,-174 1158.53,-116.354 1207.92,-163.664 1345.77,-137.904"/>
<polygon fill="midnightblue" stroke="midnightblue" points="1346.71,-141.285 1355.85,-135.92 1345.36,-134.417 1346.71,-141.285"/>
</g>
<!-- Node23 -->
<g id="node51" class="node"><title>Node23</title>
<a xlink:href="time_8h.html" target="_top" xlink:title="base/std_ext/time.h">
<polygon fill="white" stroke="black" points="221.5,-246.5 221.5,-267.5 324.5,-267.5 324.5,-246.5 221.5,-246.5"/>
<text text-anchor="middle" x="273" y="-254.5" font-family="Helvetica,sans-Serif" font-size="10.00">base/std_ext/time.h</text>
</a>
</g>
<!-- Node22&#45;&gt;Node23 -->
<g id="edge56" class="edge"><title>Node22&#45;&gt;Node23</title>
<path fill="none" stroke="midnightblue" d="M601.272,-306.497C598.52,-305.558 595.713,-304.693 593,-304 483.061,-275.92 449.977,-285.93 334.614,-268.188"/>
<polygon fill="midnightblue" stroke="midnightblue" points="335.109,-264.722 324.686,-266.624 334.02,-271.637 335.109,-264.722"/>
</g>
<!-- Node27 -->
<g id="node62" class="node"><title>Node27</title>
<polygon fill="white" stroke="#bfbfbf" points="269.5,-181.5 269.5,-202.5 310.5,-202.5 310.5,-181.5 269.5,-181.5"/>
<text text-anchor="middle" x="290" y="-189.5" font-family="Helvetica,sans-Serif" font-size="10.00">ctime</text>
</g>
<!-- Node22&#45;&gt;Node27 -->
<g id="edge84" class="edge"><title>Node22&#45;&gt;Node27</title>
<path fill="none" stroke="midnightblue" d="M601.213,-306.709C598.471,-305.735 595.682,-304.804 593,-304 522.766,-282.944 500.733,-293.534 432,-268 426.1,-265.808 358.247,-229.1 318.513,-207.515"/>
<polygon fill="midnightblue" stroke="midnightblue" points="320.002,-204.341 309.545,-202.641 316.66,-210.492 320.002,-204.341"/>
</g>
<!-- Node28 -->
<g id="node64" class="node"><title>Node28</title>
<polygon fill="white" stroke="#bfbfbf" points="1088,-116.5 1088,-137.5 1150,-137.5 1150,-116.5 1088,-116.5"/>
<text text-anchor="middle" x="1119" y="-124.5" font-family="Helvetica,sans-Serif" font-size="10.00">type_traits</text>
</g>
<!-- Node22&#45;&gt;Node28 -->
<g id="edge72" class="edge"><title>Node22&#45;&gt;Node28</title>
<path fill="none" stroke="midnightblue" d="M642.97,-313.874C714.712,-309.814 949.773,-294.733 1020,-268 1062.06,-251.989 1078.5,-247.75 1103,-210 1115.12,-191.331 1118.49,-165.653 1119.23,-147.822"/>
<polygon fill="midnightblue" stroke="midnightblue" points="1122.73,-147.686 1119.4,-137.628 1115.73,-147.568 1122.73,-147.686"/>
</g>
<!-- Node29 -->
<g id="node66" class="node"><title>Node29</title>
<polygon fill="white" stroke="#bfbfbf" points="342,-246.5 342,-267.5 380,-267.5 380,-246.5 342,-246.5"/>
<text text-anchor="middle" x="361" y="-254.5" font-family="Helvetica,sans-Serif" font-size="10.00">tuple</text>
</g>
<!-- Node22&#45;&gt;Node29 -->
<g id="edge74" class="edge"><title>Node22&#45;&gt;Node29</title>
<path fill="none" stroke="midnightblue" d="M601.243,-306.604C598.497,-305.647 595.698,-304.749 593,-304 506.394,-279.961 481.078,-290.268 394,-268 392.574,-267.635 391.12,-267.24 389.657,-266.824"/>
<polygon fill="midnightblue" stroke="midnightblue" points="390.645,-263.466 380.057,-263.866 388.583,-270.156 390.645,-263.466"/>
</g>
<!-- Node30 -->
<g id="node68" class="node"><title>Node30</title>
<polygon fill="white" stroke="#bfbfbf" points="66,-116.5 66,-137.5 112,-137.5 112,-116.5 66,-116.5"/>
<text text-anchor="middle" x="89" y="-124.5" font-family="Helvetica,sans-Serif" font-size="10.00">cstdint</text>
</g>
<!-- Node22&#45;&gt;Node30 -->
<g id="edge76" class="edge"><title>Node22&#45;&gt;Node30</title>
<path fill="none" stroke="midnightblue" d="M601.132,-307.005C543.304,-284.79 383.811,-223.087 362,-210 340.627,-197.176 341.543,-184.632 319,-174 240.08,-136.777 210.824,-158.461 126,-138 124.754,-137.699 123.488,-137.382 122.211,-137.053"/>
<polygon fill="midnightblue" stroke="midnightblue" points="122.958,-133.629 112.388,-134.355 121.104,-140.379 122.958,-133.629"/>
</g>
<!-- Node31 -->
<g id="node72" class="node"><title>Node31</title>
<polygon fill="white" stroke="#bfbfbf" points="1044,-181.5 1044,-202.5 1094,-202.5 1094,-181.5 1044,-181.5"/>
<text text-anchor="middle" x="1069" y="-189.5" font-family="Helvetica,sans-Serif" font-size="10.00">iomanip</text>
</g>
<!-- Node22&#45;&gt;Node31 -->
<g id="edge82" class="edge"><title>Node22&#45;&gt;Node31</title>
<path fill="none" stroke="midnightblue" d="M642.901,-314.026C711.169,-310.583 926.774,-297.566 989,-268 1016.66,-254.858 1040.97,-228.498 1055.33,-210.55"/>
<polygon fill="midnightblue" stroke="midnightblue" points="1058.19,-212.56 1061.55,-202.509 1052.66,-208.277 1058.19,-212.56"/>
</g>
<!-- Node24 -->
<g id="node53" class="node"><title>Node24</title>
<a xlink:href="string_8h.html" target="_top" xlink:title="base/std_ext/string.h">
<polygon fill="white" stroke="black" points="880,-181.5 880,-202.5 988,-202.5 988,-181.5 880,-181.5"/>
<text text-anchor="middle" x="934" y="-189.5" font-family="Helvetica,sans-Serif" font-size="10.00">base/std_ext/string.h</text>
</a>
</g>
<!-- Node23&#45;&gt;Node24 -->
<g id="edge58" class="edge"><title>Node23&#45;&gt;Node24</title>
<path fill="none" stroke="midnightblue" d="M324.655,-247.159C327.473,-246.738 330.269,-246.348 333,-246 554.014,-217.87 611.917,-237.583 833,-210 845.342,-208.46 858.466,-206.421 871.027,-204.27"/>
<polygon fill="midnightblue" stroke="midnightblue" points="871.71,-207.703 880.955,-202.527 870.5,-200.809 871.71,-207.703"/>
</g>
<!-- Node26 -->
<g id="node60" class="node"><title>Node26</title>
<polygon fill="white" stroke="#bfbfbf" points="206,-181.5 206,-202.5 252,-202.5 252,-181.5 206,-181.5"/>
<text text-anchor="middle" x="229" y="-189.5" font-family="Helvetica,sans-Serif" font-size="10.00">cstring</text>
</g>
<!-- Node23&#45;&gt;Node26 -->
<g id="edge68" class="edge"><title>Node23&#45;&gt;Node26</title>
<path fill="none" stroke="midnightblue" d="M265.734,-246.267C259.263,-236.707 249.644,-222.496 241.872,-211.015"/>
<polygon fill="midnightblue" stroke="midnightblue" points="244.635,-208.853 236.131,-202.534 238.838,-212.777 244.635,-208.853"/>
</g>
<!-- Node23&#45;&gt;Node27 -->
<g id="edge70" class="edge"><title>Node23&#45;&gt;Node27</title>
<path fill="none" stroke="midnightblue" d="M275.807,-246.267C278.208,-237.085 281.732,-223.615 284.667,-212.392"/>
<polygon fill="midnightblue" stroke="midnightblue" points="288.101,-213.094 287.245,-202.534 281.329,-211.323 288.101,-213.094"/>
</g>
<!-- Node24&#45;&gt;Node8 -->
<g id="edge66" class="edge"><title>Node24&#45;&gt;Node8</title>
<path fill="none" stroke="midnightblue" d="M972.779,-181.496C982.318,-178.978 992.515,-176.342 1002,-174 1071.5,-156.838 1096.25,-172.466 1159,-138 1203.35,-113.64 1197.35,-85.2239 1240,-58 1269.36,-39.2585 1307.3,-26.3983 1333.84,-18.9299"/>
<polygon fill="midnightblue" stroke="midnightblue" points="1335.02,-22.2349 1343.76,-16.2396 1333.19,-15.4789 1335.02,-22.2349"/>
</g>
<!-- Node24&#45;&gt;Node11 -->
<g id="edge64" class="edge"><title>Node24&#45;&gt;Node11</title>
<path fill="none" stroke="midnightblue" d="M970.885,-181.465C980.927,-178.809 991.837,-176.114 1002,-174 1052.88,-163.417 1200.88,-142.244 1271.56,-132.34"/>
<polygon fill="midnightblue" stroke="midnightblue" points="1272.39,-135.758 1281.81,-130.906 1271.42,-128.825 1272.39,-135.758"/>
</g>
<!-- Node24&#45;&gt;Node15 -->
<g id="edge60" class="edge"><title>Node24&#45;&gt;Node15</title>
<path fill="none" stroke="midnightblue" d="M984.394,-181.472C1000.49,-178.526 1018.43,-175.674 1035,-174 1672.84,-109.575 1836.49,-165.343 2477,-138 2530.02,-135.736 2591.66,-131.72 2627.88,-129.217"/>
<polygon fill="midnightblue" stroke="midnightblue" points="2628.54,-132.68 2638.27,-128.493 2628.05,-125.697 2628.54,-132.68"/>
</g>
<!-- Node25 -->
<g id="node56" class="node"><title>Node25</title>
<polygon fill="white" stroke="#bfbfbf" points="1018,-116.5 1018,-137.5 1070,-137.5 1070,-116.5 1018,-116.5"/>
<text text-anchor="middle" x="1044" y="-124.5" font-family="Helvetica,sans-Serif" font-size="10.00">sstream</text>
</g>
<!-- Node24&#45;&gt;Node25 -->
<g id="edge62" class="edge"><title>Node24&#45;&gt;Node25</title>
<path fill="none" stroke="midnightblue" d="M952.164,-181.267C969.944,-170.76 997.23,-154.637 1017.44,-142.692"/>
<polygon fill="midnightblue" stroke="midnightblue" points="1019.35,-145.634 1026.17,-137.534 1015.78,-139.608 1019.35,-145.634"/>
</g>
<!-- Node32&#45;&gt;Node25 -->
<g id="edge114" class="edge"><title>Node32&#45;&gt;Node25</title>
<path fill="none" stroke="midnightblue" d="M907.645,-246.453C894.523,-238.416 878.549,-226.009 871,-210 864.176,-195.528 861.276,-186.706 871,-174 908.218,-125.369 944.921,-154.119 1004,-138 1005.25,-137.659 1006.52,-137.311 1007.81,-136.96"/>
<polygon fill="midnightblue" stroke="midnightblue" points="1009.03,-140.253 1017.75,-134.234 1007.18,-133.502 1009.03,-140.253"/>
</g>
<!-- Node32&#45;&gt;Node31 -->
<g id="edge112" class="edge"><title>Node32&#45;&gt;Node31</title>
<path fill="none" stroke="midnightblue" d="M951.093,-246.364C971.767,-236.841 1002.91,-222.493 1030,-210 1032.17,-208.999 1034.41,-207.966 1036.67,-206.925"/>
<polygon fill="midnightblue" stroke="midnightblue" points="1038.29,-210.03 1045.9,-202.663 1035.36,-203.674 1038.29,-210.03"/>
</g>
<!-- Node33 -->
<g id="node77" class="node"><title>Node33</title>
<a xlink:href="_detector__t_8h.html" target="_top" xlink:title="base/Detector_t.h">
<polygon fill="white" stroke="black" points="729.5,-181.5 729.5,-202.5 824.5,-202.5 824.5,-181.5 729.5,-181.5"/>
<text text-anchor="middle" x="777" y="-189.5" font-family="Helvetica,sans-Serif" font-size="10.00">base/Detector_t.h</text>
</a>
</g>
<!-- Node32&#45;&gt;Node33 -->
<g id="edge88" class="edge"><title>Node32&#45;&gt;Node33</title>
<path fill="none" stroke="midnightblue" d="M903.403,-246.412C878.285,-235.6 839.098,-218.731 811.015,-206.642"/>
<polygon fill="midnightblue" stroke="midnightblue" points="812.155,-203.323 801.586,-202.584 809.388,-209.752 812.155,-203.323"/>
</g>
<!-- Node33&#45;&gt;Node7 -->
<g id="edge90" class="edge"><title>Node33&#45;&gt;Node7</title>
<path fill="none" stroke="midnightblue" d="M824.715,-182.242C839.514,-179.383 855.901,-176.387 871,-174 998.414,-153.859 1031.6,-158.233 1159,-138 1209.96,-129.906 1221.91,-123.216 1273,-116 1450.58,-90.9202 1664.2,-76.5663 1752.6,-71.3139"/>
<polygon fill="midnightblue" stroke="midnightblue" points="1752.97,-74.7983 1762.75,-70.7184 1752.56,-67.8103 1752.97,-74.7983"/>
</g>
<!-- Node33&#45;&gt;Node8 -->
<g id="edge110" class="edge"><title>Node33&#45;&gt;Node8</title>
<path fill="none" stroke="midnightblue" d="M824.776,-182.26C864.753,-173.276 922.821,-158.264 971,-138 988.989,-130.434 991.067,-123.697 1009,-116 1124.28,-66.5196 1270.09,-31.689 1333.78,-17.754"/>
<polygon fill="midnightblue" stroke="midnightblue" points="1334.6,-21.1577 1343.63,-15.622 1333.12,-14.316 1334.6,-21.1577"/>
</g>
<!-- Node33&#45;&gt;Node12 -->
<g id="edge104" class="edge"><title>Node33&#45;&gt;Node12</title>
<path fill="none" stroke="midnightblue" d="M802.411,-181.412C828.474,-170.552 869.2,-153.583 898.238,-141.484"/>
<polygon fill="midnightblue" stroke="midnightblue" points="899.715,-144.66 907.6,-137.584 897.023,-138.199 899.715,-144.66"/>
</g>
<!-- Node33&#45;&gt;Node15 -->
<g id="edge106" class="edge"><title>Node33&#45;&gt;Node15</title>
<path fill="none" stroke="midnightblue" d="M823.627,-181.48C838.669,-178.515 855.468,-175.649 871,-174 1225.98,-136.3 2120.33,-152.771 2477,-138 2530.03,-135.804 2591.66,-131.766 2627.88,-129.241"/>
<polygon fill="midnightblue" stroke="midnightblue" points="2628.54,-132.704 2638.27,-128.51 2628.05,-125.721 2628.54,-132.704"/>
</g>
<!-- Node33&#45;&gt;Node28 -->
<g id="edge108" class="edge"><title>Node33&#45;&gt;Node28</title>
<path fill="none" stroke="midnightblue" d="M824.789,-182.678C839.591,-179.837 855.961,-176.741 871,-174 960.143,-157.752 985.71,-158.396 1077.62,-138.164"/>
<polygon fill="midnightblue" stroke="midnightblue" points="1078.63,-141.525 1087.63,-135.936 1077.11,-134.692 1078.63,-141.525"/>
</g>
<!-- Node33&#45;&gt;Node30 -->
<g id="edge102" class="edge"><title>Node33&#45;&gt;Node30</title>
<path fill="none" stroke="midnightblue" d="M729.393,-186.729C695.322,-183.013 648.357,-178.005 607,-174 424.928,-156.369 379.106,-155.268 197,-138 171.96,-135.626 143.678,-132.738 122.338,-130.516"/>
<polygon fill="midnightblue" stroke="midnightblue" points="122.475,-127.012 112.165,-129.454 121.747,-133.974 122.475,-127.012"/>
</g>
<!-- Node34 -->
<g id="node80" class="node"><title>Node34</title>
<a xlink:href="vec3_8h.html" target="_top" xlink:title="base/vec/vec3.h">
<polygon fill="white" stroke="black" points="205.5,-116.5 205.5,-137.5 294.5,-137.5 294.5,-116.5 205.5,-116.5"/>
<text text-anchor="middle" x="250" y="-124.5" font-family="Helvetica,sans-Serif" font-size="10.00">base/vec/vec3.h</text>
</a>
</g>
<!-- Node33&#45;&gt;Node34 -->
<g id="edge92" class="edge"><title>Node33&#45;&gt;Node34</title>
<path fill="none" stroke="midnightblue" d="M729.386,-186.826C623.677,-175.304 373.841,-147.875 304.86,-138.103"/>
<polygon fill="midnightblue" stroke="midnightblue" points="305.175,-134.611 294.766,-136.59 304.137,-141.534 305.175,-134.611"/>
</g>
<!-- Node34&#45;&gt;Node7 -->
<g id="edge94" class="edge"><title>Node34&#45;&gt;Node7</title>
<path fill="none" stroke="midnightblue" d="M294.73,-117.149C297.52,-116.711 300.294,-116.321 303,-116 595.124,-81.3457 1542.92,-71.1843 1752.66,-69.3354"/>
<polygon fill="midnightblue" stroke="midnightblue" points="1752.95,-72.8331 1762.92,-69.2464 1752.89,-65.8333 1752.95,-72.8331"/>
</g>
<!-- Node35 -->
<g id="node83" class="node"><title>Node35</title>
<a xlink:href="vec2_8h.html" target="_top" xlink:title="vec2.h">
<polygon fill="white" stroke="black" points="244,-58.5 244,-79.5 290,-79.5 290,-58.5 244,-58.5"/>
<text text-anchor="middle" x="267" y="-66.5" font-family="Helvetica,sans-Serif" font-size="10.00">vec2.h</text>
</a>
</g>
<!-- Node34&#45;&gt;Node35 -->
<g id="edge96" class="edge"><title>Node34&#45;&gt;Node35</title>
<path fill="none" stroke="midnightblue" d="M253.118,-116.362C255.323,-108.84 258.348,-98.5187 261.012,-89.4308"/>
<polygon fill="midnightblue" stroke="midnightblue" points="264.448,-90.1514 263.902,-79.5707 257.73,-88.1825 264.448,-90.1514"/>
</g>
<!-- Node34&#45;&gt;Node36 -->
<g id="edge100" class="edge"><title>Node34&#45;&gt;Node36</title>
<path fill="none" stroke="midnightblue" d="M245.109,-116.295C236.235,-96.8724 217.358,-55.5561 206.068,-30.8462"/>
<polygon fill="midnightblue" stroke="midnightblue" points="209.219,-29.3203 201.879,-21.6792 202.852,-32.2293 209.219,-29.3203"/>
</g>
<!-- Node35&#45;&gt;Node36 -->
<g id="edge98" class="edge"><title>Node35&#45;&gt;Node36</title>
<path fill="none" stroke="midnightblue" d="M254.161,-58.3619C243.998,-49.9408 229.599,-38.0105 217.796,-28.2308"/>
<polygon fill="midnightblue" stroke="midnightblue" points="219.691,-25.2558 209.758,-21.5707 215.225,-30.6459 219.691,-25.2558"/>
</g>
<!-- Node37&#45;&gt;Node7 -->
<g id="edge122" class="edge"><title>Node37&#45;&gt;Node7</title>
<path fill="none" stroke="midnightblue" d="M548.239,-369.283C574.844,-367.01 609.916,-364.139 641,-362 783.332,-352.206 1144.39,-363.637 1282,-326 1295.52,-322.303 1494.69,-218.275 1506,-210 1524.26,-196.64 1523.2,-186.591 1542,-174 1551.55,-167.606 1691.29,-110.626 1758.46,-83.3842"/>
<polygon fill="midnightblue" stroke="midnightblue" points="1759.86,-86.5907 1767.82,-79.5903 1757.23,-80.1034 1759.86,-86.5907"/>
</g>
<!-- Node37&#45;&gt;Node22 -->
<g id="edge118" class="edge"><title>Node37&#45;&gt;Node22</title>
<path fill="none" stroke="midnightblue" d="M527.007,-362.497C545.156,-353.422 571.598,-340.201 591.979,-330.01"/>
<polygon fill="midnightblue" stroke="midnightblue" points="593.771,-333.028 601.15,-325.425 590.64,-326.767 593.771,-333.028"/>
</g>
<!-- Node37&#45;&gt;Node23 -->
<g id="edge120" class="edge"><title>Node37&#45;&gt;Node23</title>
<path fill="none" stroke="midnightblue" d="M484.498,-362.295C442.866,-341.568 351.153,-295.909 303.34,-272.105"/>
<polygon fill="midnightblue" stroke="midnightblue" points="304.626,-268.835 294.114,-267.512 301.506,-275.102 304.626,-268.835"/>
</g>
<!-- Node37&#45;&gt;Node29 -->
<g id="edge126" class="edge"><title>Node37&#45;&gt;Node29</title>
<path fill="none" stroke="midnightblue" d="M492.619,-362.295C467.369,-342.096 412.52,-298.216 382.204,-273.963"/>
<polygon fill="midnightblue" stroke="midnightblue" points="384.344,-271.193 374.349,-267.679 379.971,-276.659 384.344,-271.193"/>
</g>
<!-- Node37&#45;&gt;Node30 -->
<g id="edge124" class="edge"><title>Node37&#45;&gt;Node30</title>
<path fill="none" stroke="midnightblue" d="M463.986,-367.397C399.788,-357.106 275.812,-330.247 191,-268 146.359,-235.236 113.356,-177.113 98.2089,-146.737"/>
<polygon fill="midnightblue" stroke="midnightblue" points="101.279,-145.046 93.7655,-137.576 94.9804,-148.1 101.279,-145.046"/>
</g>
<!-- Node38&#45;&gt;Node7 -->
<g id="edge156" class="edge"><title>Node38&#45;&gt;Node7</title>
<path fill="none" stroke="midnightblue" d="M1582.52,-250.467C1628.13,-243.909 1693.32,-231.596 1747,-210 1775.15,-198.675 1848.25,-164.513 1863,-138 1875,-116.435 1851,-97.0714 1828.09,-84.386"/>
<polygon fill="midnightblue" stroke="midnightblue" points="1829.59,-81.223 1819.11,-79.6978 1826.35,-87.4283 1829.59,-81.223"/>
</g>
<!-- Node39 -->
<g id="node104" class="node"><title>Node39</title>
<a xlink:href="_format_8h.html" target="_top" xlink:title="base/Format.h">
<polygon fill="white" stroke="black" points="518,-181.5 518,-202.5 598,-202.5 598,-181.5 518,-181.5"/>
<text text-anchor="middle" x="558" y="-189.5" font-family="Helvetica,sans-Serif" font-size="10.00">base/Format.h</text>
</a>
</g>
<!-- Node38&#45;&gt;Node39 -->
<g id="edge130" class="edge"><title>Node38&#45;&gt;Node39</title>
<path fill="none" stroke="midnightblue" d="M1469.32,-254.699C1337.74,-249.137 1001.39,-233.651 721,-210 683.113,-206.804 640.396,-202.044 608.2,-198.222"/>
<polygon fill="midnightblue" stroke="midnightblue" points="608.48,-194.73 598.135,-197.017 607.648,-201.681 608.48,-194.73"/>
</g>
<!-- Node39&#45;&gt;Node8 -->
<g id="edge154" class="edge"><title>Node39&#45;&gt;Node8</title>
<path fill="none" stroke="midnightblue" d="M564.926,-181.398C576.289,-164.866 600.499,-133.073 629,-116 751.007,-42.9128 1207.95,-17.8876 1333.76,-12.3044"/>
<polygon fill="midnightblue" stroke="midnightblue" points="1334.06,-15.7948 1343.9,-11.8651 1333.76,-8.80135 1334.06,-15.7948"/>
</g>
<!-- Node39&#45;&gt;Node11 -->
<g id="edge144" class="edge"><title>Node39&#45;&gt;Node11</title>
<path fill="none" stroke="midnightblue" d="M598.157,-187.222C631.128,-183.382 679.053,-177.989 721,-174 828.71,-163.758 1158.83,-138.483 1271.7,-129.903"/>
<polygon fill="midnightblue" stroke="midnightblue" points="1272.22,-133.374 1281.93,-129.126 1271.69,-126.394 1272.22,-133.374"/>
</g>
<!-- Node39&#45;&gt;Node12 -->
<g id="edge148" class="edge"><title>Node39&#45;&gt;Node12</title>
<path fill="none" stroke="midnightblue" d="M586.29,-181.416C594.491,-178.664 603.521,-175.933 612,-174 732.481,-146.534 768.996,-162.826 893.339,-138.106"/>
<polygon fill="midnightblue" stroke="midnightblue" points="894.139,-141.515 903.239,-136.089 892.741,-134.656 894.139,-141.515"/>
</g>
<!-- Node39&#45;&gt;Node13 -->
<g id="edge146" class="edge"><title>Node39&#45;&gt;Node13</title>
<path fill="none" stroke="midnightblue" d="M587.51,-181.433C595.407,-178.807 603.978,-176.135 612,-174 690.419,-153.13 717.587,-172.577 791,-138 817.747,-125.403 843.371,-102.64 859.363,-86.7158"/>
<polygon fill="midnightblue" stroke="midnightblue" points="861.909,-89.1175 866.402,-79.5223 856.906,-84.2217 861.909,-89.1175"/>
</g>
<!-- Node39&#45;&gt;Node15 -->
<g id="edge150" class="edge"><title>Node39&#45;&gt;Node15</title>
<path fill="none" stroke="midnightblue" d="M598.104,-186.559C631.044,-182.334 678.953,-176.747 721,-174 1499.95,-123.108 1697.03,-169.553 2477,-138 2530.03,-135.855 2591.66,-131.801 2627.88,-129.259"/>
<polygon fill="midnightblue" stroke="midnightblue" points="2628.54,-132.721 2638.27,-128.523 2628.05,-125.739 2628.54,-132.721"/>
</g>
<!-- Node39&#45;&gt;Node25 -->
<g id="edge152" class="edge"><title>Node39&#45;&gt;Node25</title>
<path fill="none" stroke="midnightblue" d="M598.18,-183.401C614.245,-180.156 632.949,-176.62 650,-174 791.896,-152.199 828.662,-156.699 971,-138 982.991,-136.425 996.06,-134.516 1007.78,-132.734"/>
<polygon fill="midnightblue" stroke="midnightblue" points="1008.33,-136.192 1017.68,-131.212 1007.26,-129.273 1008.33,-136.192"/>
</g>
<!-- Node39&#45;&gt;Node36 -->
<g id="edge138" class="edge"><title>Node39&#45;&gt;Node36</title>
<path fill="none" stroke="midnightblue" d="M517.983,-187.424C426.172,-176.736 207.444,-150.123 197,-138 171.59,-108.507 181.231,-59.2846 189.66,-31.577"/>
<polygon fill="midnightblue" stroke="midnightblue" points="193.083,-32.3694 192.868,-21.7768 186.431,-30.1917 193.083,-32.3694"/>
</g>
<!-- Node40 -->
<g id="node106" class="node"><title>Node40</title>
<polygon fill="white" stroke="#bfbfbf" points="637.5,-116.5 637.5,-137.5 716.5,-137.5 716.5,-116.5 637.5,-116.5"/>
<text text-anchor="middle" x="677" y="-124.5" font-family="Helvetica,sans-Serif" font-size="10.00">detail/format.h</text>
</g>
<!-- Node39&#45;&gt;Node40 -->
<g id="edge132" class="edge"><title>Node39&#45;&gt;Node40</title>
<path fill="none" stroke="midnightblue" d="M577.384,-181.412C596.747,-170.836 626.719,-154.465 648.731,-142.441"/>
<polygon fill="midnightblue" stroke="midnightblue" points="650.526,-145.449 657.624,-137.584 647.17,-139.306 650.526,-145.449"/>
</g>
<!-- Node41 -->
<g id="node108" class="node"><title>Node41</title>
<polygon fill="white" stroke="#bfbfbf" points="733.5,-116.5 733.5,-137.5 782.5,-137.5 782.5,-116.5 733.5,-116.5"/>
<text text-anchor="middle" x="758" y="-124.5" font-family="Helvetica,sans-Serif" font-size="10.00">stdint.h</text>
</g>
<!-- Node39&#45;&gt;Node41 -->
<g id="edge134" class="edge"><title>Node39&#45;&gt;Node41</title>
<path fill="none" stroke="midnightblue" d="M589.386,-181.459C596.796,-178.993 604.671,-176.389 612,-174 659.178,-158.623 673.261,-154.769 723.356,-138.51"/>
<polygon fill="midnightblue" stroke="midnightblue" points="724.72,-141.747 733.145,-135.324 722.553,-135.091 724.72,-141.747"/>
</g>
<!-- Node42 -->
<g id="node110" class="node"><title>Node42</title>
<polygon fill="white" stroke="#bfbfbf" points="837.5,-116.5 837.5,-137.5 886.5,-137.5 886.5,-116.5 837.5,-116.5"/>
<text text-anchor="middle" x="862" y="-124.5" font-family="Helvetica,sans-Serif" font-size="10.00">cassert</text>
</g>
<!-- Node39&#45;&gt;Node42 -->
<g id="edge136" class="edge"><title>Node39&#45;&gt;Node42</title>
<path fill="none" stroke="midnightblue" d="M586.905,-181.456C594.956,-178.769 603.755,-176.061 612,-174 704.718,-150.821 730.838,-159.322 824,-138 825.071,-137.755 826.157,-137.497 827.251,-137.23"/>
<polygon fill="midnightblue" stroke="midnightblue" points="828.385,-140.551 837.168,-134.626 826.607,-133.781 828.385,-140.551"/>
</g>
<!-- Node43 -->
<g id="node113" class="node"><title>Node43</title>
<polygon fill="white" stroke="#bfbfbf" points="473.5,-116.5 473.5,-137.5 522.5,-137.5 522.5,-116.5 473.5,-116.5"/>
<text text-anchor="middle" x="498" y="-124.5" font-family="Helvetica,sans-Serif" font-size="10.00">cstddef</text>
</g>
<!-- Node39&#45;&gt;Node43 -->
<g id="edge140" class="edge"><title>Node39&#45;&gt;Node43</title>
<path fill="none" stroke="midnightblue" d="M548.092,-181.267C539.006,-171.423 525.367,-156.648 514.615,-145"/>
<polygon fill="midnightblue" stroke="midnightblue" points="517.078,-142.508 507.723,-137.534 511.934,-147.256 517.078,-142.508"/>
</g>
<!-- Node44 -->
<g id="node115" class="node"><title>Node44</title>
<polygon fill="white" stroke="#bfbfbf" points="539.5,-116.5 539.5,-137.5 582.5,-137.5 582.5,-116.5 539.5,-116.5"/>
<text text-anchor="middle" x="561" y="-124.5" font-family="Helvetica,sans-Serif" font-size="10.00">cstdio</text>
</g>
<!-- Node39&#45;&gt;Node44 -->
<g id="edge142" class="edge"><title>Node39&#45;&gt;Node44</title>
<path fill="none" stroke="midnightblue" d="M558.495,-181.267C558.915,-172.18 559.528,-158.892 560.043,-147.74"/>
<polygon fill="midnightblue" stroke="midnightblue" points="563.549,-147.684 560.514,-137.534 556.556,-147.362 563.549,-147.684"/>
</g>
<!-- Node45&#45;&gt;Node7 -->
<g id="edge162" class="edge"><title>Node45&#45;&gt;Node7</title>
<path fill="none" stroke="midnightblue" d="M724.242,-372.701C864.973,-371.289 1359.35,-363.669 1418,-326 1451.96,-304.186 1431.41,-273.453 1461,-246 1489.88,-219.207 1506.47,-227.016 1542,-210 1605.11,-179.779 1621.06,-172.376 1682,-138 1712.42,-120.841 1746.46,-99.559 1768.95,-85.2037"/>
<polygon fill="midnightblue" stroke="midnightblue" points="1771.01,-88.0373 1777.54,-79.6936 1767.23,-82.1444 1771.01,-88.0373"/>
</g>
<!-- Node45&#45;&gt;Node8 -->
<g id="edge168" class="edge"><title>Node45&#45;&gt;Node8</title>
<path fill="none" stroke="midnightblue" d="M649.737,-367.868C548.699,-353.523 271.696,-311.218 191,-268 111.61,-225.482 4.09508,-188.881 57,-116 105.879,-48.6654 153.114,-72.7539 235,-58 454.316,-18.4847 1172.67,-12.0961 1333.75,-11.1527"/>
<polygon fill="midnightblue" stroke="midnightblue" points="1333.98,-14.6516 1343.96,-11.096 1333.94,-7.65169 1333.98,-14.6516"/>
</g>
<!-- Node45&#45;&gt;Node22 -->
<g id="edge160" class="edge"><title>Node45&#45;&gt;Node22</title>
<path fill="none" stroke="midnightblue" d="M675.078,-362.362C665.641,-353.941 652.27,-342.011 641.31,-332.231"/>
<polygon fill="midnightblue" stroke="midnightblue" points="643.638,-329.617 633.846,-325.571 638.978,-334.84 643.638,-329.617"/>
</g>
<!-- Node45&#45;&gt;Node25 -->
<g id="edge172" class="edge"><title>Node45&#45;&gt;Node25</title>
<path fill="none" stroke="midnightblue" d="M684.301,-362.048C676.767,-328.561 659.294,-226.622 711,-174 751.881,-132.395 913.271,-146.346 971,-138 983.067,-136.255 996.247,-134.288 1008.05,-132.505"/>
<polygon fill="midnightblue" stroke="midnightblue" points="1008.63,-135.956 1018,-130.996 1007.58,-129.035 1008.63,-135.956"/>
</g>
<!-- Node45&#45;&gt;Node31 -->
<g id="edge170" class="edge"><title>Node45&#45;&gt;Node31</title>
<path fill="none" stroke="midnightblue" d="M724.25,-369.531C790.088,-361.737 928.677,-337.682 1020,-268 1039.09,-253.432 1052.86,-229.136 1060.86,-211.941"/>
<polygon fill="midnightblue" stroke="midnightblue" points="1064.07,-213.327 1064.89,-202.764 1057.66,-210.51 1064.07,-213.327"/>
</g>
<!-- Node46 -->
<g id="node128" class="node"><title>Node46</title>
<a xlink:href="_lorentz_vec_8h.html" target="_top" xlink:title="base/vec/LorentzVec.h">
<polygon fill="white" stroke="black" points="467.5,-304.5 467.5,-325.5 584.5,-325.5 584.5,-304.5 467.5,-304.5"/>
<text text-anchor="middle" x="526" y="-312.5" font-family="Helvetica,sans-Serif" font-size="10.00">base/vec/LorentzVec.h</text>
</a>
</g>
<!-- Node45&#45;&gt;Node46 -->
<g id="edge164" class="edge"><title>Node45&#45;&gt;Node46</title>
<path fill="none" stroke="midnightblue" d="M657.844,-362.497C631.824,-353.123 593.521,-339.324 564.896,-329.012"/>
<polygon fill="midnightblue" stroke="midnightblue" points="565.805,-325.62 555.211,-325.523 563.432,-332.205 565.805,-325.62"/>
</g>
<!-- Node46&#45;&gt;Node34 -->
<g id="edge166" class="edge"><title>Node46&#45;&gt;Node34</title>
<path fill="none" stroke="midnightblue" d="M467.401,-313.631C387.393,-310.549 249.697,-300.534 213,-268 181.289,-239.887 179.617,-212.649 197,-174 202.518,-161.733 212.995,-151.368 223.187,-143.52"/>
<polygon fill="midnightblue" stroke="midnightblue" points="225.464,-146.194 231.566,-137.533 221.395,-140.499 225.464,-146.194"/>
</g>
<!-- Node47&#45;&gt;Node7 -->
<g id="edge178" class="edge"><title>Node47&#45;&gt;Node7</title>
<path fill="none" stroke="midnightblue" d="M2332.97,-181.394C2320.94,-164.247 2294.62,-130.861 2263,-116 2187.54,-80.532 1935.02,-71.7489 1835.15,-69.6416"/>
<polygon fill="midnightblue" stroke="midnightblue" points="1835.21,-66.1421 1825.14,-69.4421 1835.07,-73.1407 1835.21,-66.1421"/>
</g>
<!-- Node47&#45;&gt;Node10 -->
<g id="edge176" class="edge"><title>Node47&#45;&gt;Node10</title>
<path fill="none" stroke="midnightblue" d="M2340,-181.267C2340,-172.18 2340,-158.892 2340,-147.74"/>
<polygon fill="midnightblue" stroke="midnightblue" points="2343.5,-147.534 2340,-137.534 2336.5,-147.534 2343.5,-147.534"/>
</g>
<!-- Node47&#45;&gt;Node13 -->
<g id="edge182" class="edge"><title>Node47&#45;&gt;Node13</title>
<path fill="none" stroke="midnightblue" d="M2325.02,-181.414C2295.98,-160.943 2234.41,-117.778 2229,-116 2099.56,-73.457 1094.55,-69.4226 906.32,-69.0401"/>
<polygon fill="midnightblue" stroke="midnightblue" points="906.063,-65.5397 896.057,-69.0213 906.051,-72.5397 906.063,-65.5397"/>
</g>
<!-- Node47&#45;&gt;Node17 -->
<g id="edge184" class="edge"><title>Node47&#45;&gt;Node17</title>
<path fill="none" stroke="midnightblue" d="M2309.3,-187.061C2235.9,-175.252 2050.53,-145.427 1972.02,-132.796"/>
<polygon fill="midnightblue" stroke="midnightblue" points="1972.54,-129.334 1962.11,-131.201 1971.43,-136.245 1972.54,-129.334"/>
</g>
<!-- Node47&#45;&gt;Node18 -->
<g id="edge180" class="edge"><title>Node47&#45;&gt;Node18</title>
<path fill="none" stroke="midnightblue" d="M2318.17,-181.412C2293.95,-169.661 2254.98,-150.758 2229.94,-138.611"/>
<polygon fill="midnightblue" stroke="midnightblue" points="2231.29,-135.378 2220.77,-134.163 2228.24,-141.677 2231.29,-135.378"/>
</g>
<!-- Node48&#45;&gt;Node7 -->
<g id="edge190" class="edge"><title>Node48&#45;&gt;Node7</title>
<path fill="none" stroke="midnightblue" d="M1977.99,-181.3C1981.78,-165.206 1986.16,-134.669 1971,-116 1954.05,-95.1171 1882.18,-81.3071 1835.4,-74.3432"/>
<polygon fill="midnightblue" stroke="midnightblue" points="1835.64,-70.8427 1825.25,-72.8805 1834.65,-77.7712 1835.64,-70.8427"/>
</g>
<!-- Node48&#45;&gt;Node10 -->
<g id="edge188" class="edge"><title>Node48&#45;&gt;Node10</title>
<path fill="none" stroke="midnightblue" d="M2004.85,-184.41C2018.82,-180.993 2035.71,-177.05 2051,-174 2142.13,-155.821 2250.48,-139.638 2304.99,-131.871"/>
<polygon fill="midnightblue" stroke="midnightblue" points="2305.74,-135.299 2315.15,-130.431 2304.76,-128.368 2305.74,-135.299"/>
</g>
<!-- Node48&#45;&gt;Node17 -->
<g id="edge202" class="edge"><title>Node48&#45;&gt;Node17</title>
<path fill="none" stroke="midnightblue" d="M1968.56,-181.267C1962.88,-171.801 1954.47,-157.777 1947.61,-146.357"/>
<polygon fill="midnightblue" stroke="midnightblue" points="1950.47,-144.308 1942.32,-137.534 1944.46,-147.909 1950.47,-144.308"/>
</g>
<!-- Node48&#45;&gt;Node18 -->
<g id="edge200" class="edge"><title>Node48&#45;&gt;Node18</title>
<path fill="none" stroke="midnightblue" d="M2004.73,-183.635C2050.9,-170.644 2138.96,-145.865 2181.62,-133.859"/>
<polygon fill="midnightblue" stroke="midnightblue" points="2182.76,-137.175 2191.44,-131.097 2180.87,-130.437 2182.76,-137.175"/>
</g>
<!-- Node48&#45;&gt;Node34 -->
<g id="edge198" class="edge"><title>Node48&#45;&gt;Node34</title>
<path fill="none" stroke="midnightblue" d="M1945.16,-189.128C1901.63,-185.057 1818.18,-177.694 1747,-174 1109.33,-140.904 942.54,-210.769 305.096,-138.063"/>
<polygon fill="midnightblue" stroke="midnightblue" points="305.062,-134.536 294.728,-136.872 304.263,-141.49 305.062,-134.536"/>
</g>
<!-- Node48&#45;&gt;Node49 -->
<g id="edge192" class="edge"><title>Node48&#45;&gt;Node49</title>
<path fill="none" stroke="midnightblue" d="M1945.15,-189.158C1901.63,-185.124 1818.17,-177.806 1747,-174 1177.81,-143.56 1033.65,-177.195 465,-138 453.089,-137.179 440.408,-136.012 428.219,-134.743"/>
<polygon fill="midnightblue" stroke="midnightblue" points="428.44,-131.246 418.123,-133.657 427.692,-138.206 428.44,-131.246"/>
</g>
<!-- Node49&#45;&gt;Node13 -->
<g id="edge196" class="edge"><title>Node49&#45;&gt;Node13</title>
<path fill="none" stroke="midnightblue" d="M418.24,-120.957C524.89,-108.852 761.686,-81.975 845.707,-72.4383"/>
<polygon fill="midnightblue" stroke="midnightblue" points="846.31,-75.8924 855.852,-71.2869 845.521,-68.9371 846.31,-75.8924"/>
</g>
<!-- Node49&#45;&gt;Node36 -->
<g id="edge194" class="edge"><title>Node49&#45;&gt;Node36</title>
<path fill="none" stroke="midnightblue" d="M357.042,-116.459C345.546,-101.802 323.02,-75.1374 299,-58 277.35,-42.554 249.815,-30.2249 228.812,-22.0763"/>
<polygon fill="midnightblue" stroke="midnightblue" points="229.965,-18.7709 219.373,-18.5235 227.499,-25.3221 229.965,-18.7709"/>
</g>
<!-- Node50&#45;&gt;Node8 -->
<g id="edge222" class="edge"><title>Node50&#45;&gt;Node8</title>
<path fill="none" stroke="midnightblue" d="M719.963,-254.097C662.62,-248.233 542.834,-233.499 509,-210 471.113,-183.687 436.037,-151.902 465,-116 520.826,-46.8004 1179.3,-17.9799 1333.73,-12.148"/>
<polygon fill="midnightblue" stroke="midnightblue" points="1334.1,-15.6367 1343.97,-11.7675 1333.84,-8.64156 1334.1,-15.6367"/>
</g>
<!-- Node50&#45;&gt;Node17 -->
<g id="edge230" class="edge"><title>Node50&#45;&gt;Node17</title>
<path fill="none" stroke="midnightblue" d="M782.472,-253.555C805.784,-251.116 838.34,-247.944 867,-246 1062.27,-232.757 1556.42,-254.535 1747,-210 1785.36,-201.036 1791.94,-189.86 1828,-174 1852.84,-163.077 1880.94,-150.852 1902.25,-141.608"/>
<polygon fill="midnightblue" stroke="midnightblue" points="1903.74,-144.775 1911.53,-137.586 1900.96,-138.352 1903.74,-144.775"/>
</g>
<!-- Node50&#45;&gt;Node25 -->
<g id="edge228" class="edge"><title>Node50&#45;&gt;Node25</title>
<path fill="none" stroke="midnightblue" d="M741.074,-246.332C726.372,-229.229 702.44,-195.424 721,-174 757.752,-131.577 915.471,-146.182 971,-138 983.063,-136.223 996.241,-134.247 1008.04,-132.466"/>
<polygon fill="midnightblue" stroke="midnightblue" points="1008.63,-135.918 1017.99,-130.961 1007.58,-128.996 1008.63,-135.918"/>
</g>
<!-- Node50&#45;&gt;Node31 -->
<g id="edge226" class="edge"><title>Node50&#45;&gt;Node31</title>
<path fill="none" stroke="midnightblue" d="M782.181,-251.622C828.993,-243.418 920.143,-226.935 997,-210 1009.07,-207.341 1022.2,-204.148 1033.9,-201.194"/>
<polygon fill="midnightblue" stroke="midnightblue" points="1034.93,-204.543 1043.76,-198.68 1033.2,-197.761 1034.93,-204.543"/>
</g>
<!-- Node50&#45;&gt;Node33 -->
<g id="edge206" class="edge"><title>Node50&#45;&gt;Node33</title>
<path fill="none" stroke="midnightblue" d="M755.293,-246.267C759.004,-236.991 764.465,-223.336 768.982,-212.045"/>
<polygon fill="midnightblue" stroke="midnightblue" points="772.322,-213.118 772.787,-202.534 765.823,-210.519 772.322,-213.118"/>
</g>
<!-- Node50&#45;&gt;Node34 -->
<g id="edge220" class="edge"><title>Node50&#45;&gt;Node34</title>
<path fill="none" stroke="midnightblue" d="M719.775,-254.864C649.139,-249.65 479.245,-234.845 428,-210 407.066,-199.851 409.941,-185.984 390,-174 363.676,-158.18 331.333,-146.874 304.369,-139.322"/>
<polygon fill="midnightblue" stroke="midnightblue" points="305.266,-135.939 294.699,-136.708 303.439,-142.696 305.266,-135.939"/>
</g>
<!-- Node50&#45;&gt;Node36 -->
<g id="edge224" class="edge"><title>Node50&#45;&gt;Node36</title>
<path fill="none" stroke="midnightblue" d="M719.783,-255.559C643.132,-251.608 447.707,-238.913 390,-210 370.049,-200.004 374.559,-184.744 355,-174 286.166,-136.188 234.128,-196.742 182,-138 155.751,-108.42 173.292,-58.5182 186.393,-30.895"/>
<polygon fill="midnightblue" stroke="midnightblue" points="189.596,-32.3155 190.93,-21.8049 183.333,-29.1896 189.596,-32.3155"/>
</g>
<!-- Node50&#45;&gt;Node49 -->
<g id="edge208" class="edge"><title>Node50&#45;&gt;Node49</title>
<path fill="none" stroke="midnightblue" d="M719.948,-253.557C657.638,-246.346 519.601,-228.763 476,-210 451.505,-199.459 449.354,-189.973 428,-174 414.635,-164.003 399.659,-152.829 387.664,-143.886"/>
<polygon fill="midnightblue" stroke="midnightblue" points="389.63,-140.987 379.521,-137.817 385.447,-146.599 389.63,-140.987"/>
</g>
<!-- Node51 -->
<g id="node156" class="node"><title>Node51</title>
<a xlink:href="shared__ptr__container_8h.html" target="_top" xlink:title="base/std_ext/shared\l_ptr_container.h">
<polygon fill="white" stroke="black" points="1357.5,-175 1357.5,-209 1462.5,-209 1462.5,-175 1357.5,-175"/>
<text text-anchor="start" x="1365.5" y="-196" font-family="Helvetica,sans-Serif" font-size="10.00">base/std_ext/shared</text>
<text text-anchor="middle" x="1410" y="-183" font-family="Helvetica,sans-Serif" font-size="10.00">_ptr_container.h</text>
</a>
</g>
<!-- Node50&#45;&gt;Node51 -->
<g id="edge210" class="edge"><title>Node50&#45;&gt;Node51</title>
<path fill="none" stroke="midnightblue" d="M782.003,-253.89C805.358,-251.589 838.176,-248.443 867,-246 1077.81,-228.134 1135.93,-247.997 1347.4,-210.095"/>
<polygon fill="midnightblue" stroke="midnightblue" points="1348.05,-213.535 1357.26,-208.306 1346.8,-206.648 1348.05,-213.535"/>
</g>
<!-- Node51&#45;&gt;Node8 -->
<g id="edge212" class="edge"><title>Node51&#45;&gt;Node8</title>
<path fill="none" stroke="midnightblue" d="M1416.18,-174.914C1420.93,-159.39 1425.91,-135.937 1421,-116 1413.03,-83.5954 1393.09,-50.1118 1379.54,-29.9189"/>
<polygon fill="midnightblue" stroke="midnightblue" points="1382.38,-27.8795 1373.83,-21.628 1376.62,-31.8493 1382.38,-27.8795"/>
</g>
<!-- Node51&#45;&gt;Node11 -->
<g id="edge218" class="edge"><title>Node51&#45;&gt;Node11</title>
<path fill="none" stroke="midnightblue" d="M1383.73,-174.922C1368.68,-165.141 1349.9,-152.934 1335.06,-143.289"/>
<polygon fill="midnightblue" stroke="midnightblue" points="1336.69,-140.174 1326.4,-137.658 1332.87,-146.043 1336.69,-140.174"/>
</g>
<!-- Node51&#45;&gt;Node17 -->
<g id="edge214" class="edge"><title>Node51&#45;&gt;Node17</title>
<path fill="none" stroke="midnightblue" d="M1462.73,-186.25C1547.28,-176.909 1718.38,-157.511 1863,-138 1874.99,-136.383 1888.05,-134.464 1899.78,-132.684"/>
<polygon fill="midnightblue" stroke="midnightblue" points="1900.32,-136.142 1909.67,-131.168 1899.26,-129.223 1900.32,-136.142"/>
</g>
<!-- Node51&#45;&gt;Node52 -->
<g id="edge216" class="edge"><title>Node51&#45;&gt;Node52</title>
<path fill="none" stroke="midnightblue" d="M1462.85,-187.646C1513.62,-183.597 1592.51,-177.655 1661,-174 1885.81,-162.003 2446.33,-173.682 2686.15,-137.923"/>
<polygon fill="midnightblue" stroke="midnightblue" points="2686.94,-141.343 2696.29,-136.353 2685.87,-134.426 2686.94,-141.343"/>
</g>
<!-- Node53&#45;&gt;Node8 -->
<g id="edge238" class="edge"><title>Node53&#45;&gt;Node8</title>
<path fill="none" stroke="midnightblue" d="M1235.15,-304.155C1233.58,-280.198 1231.45,-221.15 1244,-174 1260.54,-111.868 1315.17,-55.7369 1345.41,-28.4477"/>
<polygon fill="midnightblue" stroke="midnightblue" points="1348.06,-30.7766 1353.24,-21.5345 1343.43,-25.529 1348.06,-30.7766"/>
</g>
<!-- Node53&#45;&gt;Node11 -->
<g id="edge246" class="edge"><title>Node53&#45;&gt;Node11</title>
<path fill="none" stroke="midnightblue" d="M1239.96,-304.346C1243.27,-294.93 1247.79,-280.752 1250,-268 1257.13,-226.776 1236.49,-211.518 1255,-174 1261.1,-161.646 1272.06,-151.251 1282.61,-143.403"/>
<polygon fill="midnightblue" stroke="midnightblue" points="1284.66,-146.244 1290.88,-137.668 1280.67,-140.493 1284.66,-146.244"/>
</g>
<!-- Node53&#45;&gt;Node17 -->
<g id="edge244" class="edge"><title>Node53&#45;&gt;Node17</title>
<path fill="none" stroke="midnightblue" d="M1273.68,-313.642C1366.35,-309.114 1611.23,-289.882 1796,-210 1824.54,-197.659 1829.26,-189.877 1856,-174 1873.55,-163.58 1893.32,-151.961 1908.82,-142.883"/>
<polygon fill="midnightblue" stroke="midnightblue" points="1911,-145.664 1917.86,-137.592 1907.46,-139.623 1911,-145.664"/>
</g>
<!-- Node53&#45;&gt;Node25 -->
<g id="edge242" class="edge"><title>Node53&#45;&gt;Node25</title>
<path fill="none" stroke="midnightblue" d="M1226.8,-304.251C1205.85,-279.993 1152.54,-219.561 1103,-174 1091.48,-163.403 1077.85,-152.455 1066.6,-143.795"/>
<polygon fill="midnightblue" stroke="midnightblue" points="1068.61,-140.927 1058.53,-137.661 1064.38,-146.499 1068.61,-140.927"/>
</g>
<!-- Node53&#45;&gt;Node31 -->
<g id="edge240" class="edge"><title>Node53&#45;&gt;Node31</title>
<path fill="none" stroke="midnightblue" d="M1211.17,-304.471C1192.42,-295.957 1166.51,-282.956 1146,-268 1122.61,-250.942 1099.47,-226.875 1084.76,-210.422"/>
<polygon fill="midnightblue" stroke="midnightblue" points="1087.11,-207.792 1077.88,-202.589 1081.85,-212.412 1087.11,-207.792"/>
</g>
<!-- Node53&#45;&gt;Node33 -->
<g id="edge236" class="edge"><title>Node53&#45;&gt;Node33</title>
<path fill="none" stroke="midnightblue" d="M1198.32,-312.91C1116.65,-307.946 925.903,-293.88 867,-268 836.8,-254.731 808.927,-228.012 792.438,-210.059"/>
<polygon fill="midnightblue" stroke="midnightblue" points="794.967,-207.636 785.696,-202.507 789.745,-212.298 794.967,-207.636"/>
</g>
<!-- Node53&#45;&gt;Node50 -->
<g id="edge234" class="edge"><title>Node53&#45;&gt;Node50</title>
<path fill="none" stroke="midnightblue" d="M1198.39,-312.68C1122.08,-307.6 943.757,-293.832 796,-268 794.752,-267.782 793.488,-267.549 792.213,-267.304"/>
<polygon fill="midnightblue" stroke="midnightblue" points="792.865,-263.864 782.359,-265.231 791.424,-270.715 792.865,-263.864"/>
</g>
<!-- Node54&#45;&gt;Node7 -->
<g id="edge252" class="edge"><title>Node54&#45;&gt;Node7</title>
<path fill="none" stroke="midnightblue" d="M1950.2,-371.259C2037.66,-366.336 2286.93,-351.029 2493,-326 2653.45,-306.512 2695.86,-309.748 2852,-268 2922.25,-249.216 2963.68,-269.846 3005,-210 3013.71,-197.377 3006.05,-121.773 3000,-116 2956.97,-74.9497 2041.59,-69.7446 1835.12,-69.0923"/>
<polygon fill="midnightblue" stroke="midnightblue" points="1835.02,-65.5921 1825.01,-69.0623 1834.99,-72.592 1835.02,-65.5921"/>
</g>
<!-- Node54&#45;&gt;Node8 -->
<g id="edge288" class="edge"><title>Node54&#45;&gt;Node8</title>
<path fill="none" stroke="midnightblue" d="M1910.81,-362.488C1890.83,-333.402 1835.28,-253.5 1823,-246 1741.44,-196.178 1698.06,-249.422 1611,-210 1559.8,-186.816 1433.34,-73.0126 1385.11,-28.7023"/>
<polygon fill="midnightblue" stroke="midnightblue" points="1387.28,-25.9427 1377.55,-21.7408 1382.54,-31.0908 1387.28,-25.9427"/>
</g>
<!-- Node54&#45;&gt;Node10 -->
<g id="edge254" class="edge"><title>Node54&#45;&gt;Node10</title>
<path fill="none" stroke="midnightblue" d="M1950.11,-366.786C2046.42,-347.411 2329.31,-284.892 2379,-210 2392.89,-189.062 2374.83,-162.393 2358.94,-145.019"/>
<polygon fill="midnightblue" stroke="midnightblue" points="2361.37,-142.504 2351.91,-137.744 2356.34,-147.368 2361.37,-142.504"/>
</g>
<!-- Node54&#45;&gt;Node17 -->
<g id="edge294" class="edge"><title>Node54&#45;&gt;Node17</title>
<path fill="none" stroke="midnightblue" d="M1918.77,-362.43C1921.51,-324.975 1930.79,-198.138 1934.48,-147.819"/>
<polygon fill="midnightblue" stroke="midnightblue" points="1937.99,-147.76 1935.23,-137.531 1931.01,-147.249 1937.99,-147.76"/>
</g>
<!-- Node54&#45;&gt;Node18 -->
<g id="edge290" class="edge"><title>Node54&#45;&gt;Node18</title>
<path fill="none" stroke="midnightblue" d="M1950.19,-366.346C2013.6,-351.298 2153.38,-308.041 2210,-210 2221.04,-190.874 2217.45,-164.94 2212.77,-147.181"/>
<polygon fill="midnightblue" stroke="midnightblue" points="2216.12,-146.143 2209.92,-137.548 2209.4,-148.13 2216.12,-146.143"/>
</g>
<!-- Node54&#45;&gt;Node46 -->
<g id="edge286" class="edge"><title>Node54&#45;&gt;Node46</title>
<path fill="none" stroke="midnightblue" d="M1885.93,-372.417C1711.65,-369.167 876.157,-352.502 594.94,-326.068"/>
<polygon fill="midnightblue" stroke="midnightblue" points="595.061,-322.563 584.77,-325.083 594.386,-329.53 595.061,-322.563"/>
</g>
<!-- Node54&#45;&gt;Node53 -->
<g id="edge250" class="edge"><title>Node54&#45;&gt;Node53</title>
<path fill="none" stroke="midnightblue" d="M1885.56,-370.242C1775.25,-360.86 1414.22,-330.156 1283.66,-319.053"/>
<polygon fill="midnightblue" stroke="midnightblue" points="1283.83,-315.555 1273.57,-318.195 1283.23,-322.53 1283.83,-315.555"/>
</g>
<!-- Node55 -->
<g id="node183" class="node"><title>Node55</title>
<a xlink:href="_particle_type_8h.html" target="_top" xlink:title="base/ParticleType.h">
<polygon fill="white" stroke="black" points="2739,-246.5 2739,-267.5 2843,-267.5 2843,-246.5 2739,-246.5"/>
<text text-anchor="middle" x="2791" y="-254.5" font-family="Helvetica,sans-Serif" font-size="10.00">base/ParticleType.h</text>
</a>
</g>
<!-- Node54&#45;&gt;Node55 -->
<g id="edge256" class="edge"><title>Node54&#45;&gt;Node55</title>
<path fill="none" stroke="midnightblue" d="M1950.19,-370.892C2029.13,-365.515 2238.55,-349.996 2412,-326 2525.26,-310.331 2656.27,-284.818 2730.81,-269.597"/>
<polygon fill="midnightblue" stroke="midnightblue" points="2731.85,-272.956 2740.95,-267.519 2730.45,-266.099 2731.85,-272.956"/>
</g>
<!-- Node58 -->
<g id="node194" class="node"><title>Node58</title>
<a xlink:href="_tree_8h.html" target="_top" xlink:title="base/Tree.h">
<polygon fill="white" stroke="black" points="1670,-181.5 1670,-202.5 1738,-202.5 1738,-181.5 1670,-181.5"/>
<text text-anchor="middle" x="1704" y="-189.5" font-family="Helvetica,sans-Serif" font-size="10.00">base/Tree.h</text>
</a>
</g>
<!-- Node54&#45;&gt;Node58 -->
<g id="edge272" class="edge"><title>Node54&#45;&gt;Node58</title>
<path fill="none" stroke="midnightblue" d="M1913.99,-362.285C1903.51,-334.811 1874.85,-262.834 1856,-246 1825.81,-219.035 1781.25,-205.305 1748.18,-198.461"/>
<polygon fill="midnightblue" stroke="midnightblue" points="1748.79,-195.015 1738.31,-196.551 1747.46,-201.888 1748.79,-195.015"/>
</g>
<!-- Node60 -->
<g id="node206" class="node"><title>Node60</title>
<polygon fill="white" stroke="#bfbfbf" points="1946,-304.5 1946,-325.5 2000,-325.5 2000,-304.5 1946,-304.5"/>
<text text-anchor="middle" x="1973" y="-312.5" font-family="Helvetica,sans-Serif" font-size="10.00">iostream</text>
</g>
<!-- Node54&#45;&gt;Node60 -->
<g id="edge292" class="edge"><title>Node54&#45;&gt;Node60</title>
<path fill="none" stroke="midnightblue" d="M1928.09,-362.362C1935.84,-354.186 1946.73,-342.702 1955.85,-333.091"/>
<polygon fill="midnightblue" stroke="midnightblue" points="1958.63,-335.235 1962.98,-325.571 1953.56,-330.419 1958.63,-335.235"/>
</g>
<!-- Node55&#45;&gt;Node6 -->
<g id="edge260" class="edge"><title>Node55&#45;&gt;Node6</title>
<path fill="none" stroke="midnightblue" d="M2738.97,-246.866C2690.74,-237.438 2616.99,-222.937 2553,-210 2541.07,-207.588 2528.23,-204.953 2516.17,-202.461"/>
<polygon fill="midnightblue" stroke="midnightblue" points="2516.77,-199.011 2506.27,-200.41 2515.35,-205.865 2516.77,-199.011"/>
</g>
<!-- Node55&#45;&gt;Node8 -->
<g id="edge270" class="edge"><title>Node55&#45;&gt;Node8</title>
<path fill="none" stroke="midnightblue" d="M2738.92,-250.464C2723.81,-248.771 2707.26,-247.113 2692,-246 2577.68,-237.665 1764.35,-259.567 1661,-210 1580.59,-171.435 1605.12,-106.072 1530,-58 1488.97,-31.7397 1432.96,-19.8219 1398.16,-14.6569"/>
<polygon fill="midnightblue" stroke="midnightblue" points="1398.46,-11.166 1388.08,-13.2624 1397.51,-18.1 1398.46,-11.166"/>
</g>
<!-- Node55&#45;&gt;Node9 -->
<g id="edge264" class="edge"><title>Node55&#45;&gt;Node9</title>
<path fill="none" stroke="midnightblue" d="M2843.14,-252.908C2899.84,-247.248 2985.07,-234.788 3005,-210 3014.21,-198.55 3006.85,-123.67 3000,-116 2935.09,-43.3191 2622.63,-19.0942 2515.29,-12.8429"/>
<polygon fill="midnightblue" stroke="midnightblue" points="2515.45,-9.34633 2505.27,-12.2771 2515.06,-16.3352 2515.45,-9.34633"/>
</g>
<!-- Node55&#45;&gt;Node10 -->
<g id="edge258" class="edge"><title>Node55&#45;&gt;Node10</title>
<path fill="none" stroke="midnightblue" d="M2790.85,-246.318C2789.97,-228.238 2785.34,-191.836 2763,-174 2701.55,-124.945 2488.99,-148.023 2411,-138 2399.16,-136.478 2386.25,-134.557 2374.72,-132.748"/>
<polygon fill="midnightblue" stroke="midnightblue" points="2375.03,-129.252 2364.6,-131.132 2373.92,-136.164 2375.03,-129.252"/>
</g>
<!-- Node55&#45;&gt;Node15 -->
<g id="edge262" class="edge"><title>Node55&#45;&gt;Node15</title>
<path fill="none" stroke="midnightblue" d="M2795.54,-246.388C2802.05,-229.363 2811.62,-195.665 2796,-174 2768.15,-135.359 2739.26,-152.612 2689.16,-138.03"/>
<polygon fill="midnightblue" stroke="midnightblue" points="2690.15,-134.67 2679.56,-134.916 2687.99,-141.329 2690.15,-134.67"/>
</g>
<!-- Node55&#45;&gt;Node56 -->
<g id="edge266" class="edge"><title>Node55&#45;&gt;Node56</title>
<path fill="none" stroke="midnightblue" d="M2843.08,-251.803C2895.23,-245.396 2970.24,-232.492 2988,-210 3002.2,-192.014 2993.75,-164.918 2985.07,-146.623"/>
<polygon fill="midnightblue" stroke="midnightblue" points="2988.18,-145.014 2980.5,-137.715 2981.95,-148.21 2988.18,-145.014"/>
</g>
<!-- Node57 -->
<g id="node191" class="node"><title>Node57</title>
<polygon fill="white" stroke="#bfbfbf" points="2707.5,-181.5 2707.5,-202.5 2754.5,-202.5 2754.5,-181.5 2707.5,-181.5"/>
<text text-anchor="middle" x="2731" y="-189.5" font-family="Helvetica,sans-Serif" font-size="10.00">iterator</text>
</g>
<!-- Node55&#45;&gt;Node57 -->
<g id="edge268" class="edge"><title>Node55&#45;&gt;Node57</title>
<path fill="none" stroke="midnightblue" d="M2781.09,-246.267C2772.01,-236.423 2758.37,-221.648 2747.62,-210"/>
<polygon fill="midnightblue" stroke="midnightblue" points="2750.08,-207.508 2740.72,-202.534 2744.93,-212.256 2750.08,-207.508"/>
</g>
<!-- Node58&#45;&gt;Node8 -->
<g id="edge280" class="edge"><title>Node58&#45;&gt;Node8</title>
<path fill="none" stroke="midnightblue" d="M1696.51,-181.321C1677.92,-155.697 1626.94,-90.4539 1568,-58 1513.16,-27.8058 1439.64,-16.9459 1398.1,-13.0854"/>
<polygon fill="midnightblue" stroke="midnightblue" points="1398.28,-9.58769 1388.02,-12.2282 1397.68,-16.5625 1398.28,-9.58769"/>
</g>
<!-- Node58&#45;&gt;Node11 -->
<g id="edge282" class="edge"><title>Node58&#45;&gt;Node11</title>
<path fill="none" stroke="midnightblue" d="M1669.99,-188.45C1607.86,-181.621 1471.74,-165.081 1348.18,-138.036"/>
<polygon fill="midnightblue" stroke="midnightblue" points="1348.7,-134.565 1338.18,-135.816 1347.18,-141.398 1348.7,-134.565"/>
</g>
<!-- Node58&#45;&gt;Node17 -->
<g id="edge276" class="edge"><title>Node58&#45;&gt;Node17</title>
<path fill="none" stroke="midnightblue" d="M1730.48,-181.483C1737.43,-178.885 1744.95,-176.214 1752,-174 1802.75,-158.056 1862.61,-143.542 1899.94,-134.987"/>
<polygon fill="midnightblue" stroke="midnightblue" points="1900.87,-138.365 1909.85,-132.736 1899.32,-131.539 1900.87,-138.365"/>
</g>
<!-- Node58&#45;&gt;Node18 -->
<g id="edge278" class="edge"><title>Node58&#45;&gt;Node18</title>
<path fill="none" stroke="midnightblue" d="M1738.11,-187.583C1833.15,-175.278 2099.35,-140.81 2181.52,-130.169"/>
<polygon fill="midnightblue" stroke="midnightblue" points="2181.98,-133.64 2191.45,-128.884 2181.08,-126.697 2181.98,-133.64"/>
</g>
<!-- Node58&#45;&gt;Node42 -->
<g id="edge284" class="edge"><title>Node58&#45;&gt;Node42</title>
<path fill="none" stroke="midnightblue" d="M1669.67,-189.189C1624.23,-185.506 1541.63,-178.935 1471,-174 1218.5,-156.357 1148.62,-186.162 896.87,-137.965"/>
<polygon fill="midnightblue" stroke="midnightblue" points="897.165,-134.457 886.682,-135.992 895.833,-141.33 897.165,-134.457"/>
</g>
<!-- Node59 -->
<g id="node196" class="node"><title>Node59</title>
<polygon fill="white" stroke="#bfbfbf" points="1734,-116.5 1734,-137.5 1854,-137.5 1854,-116.5 1734,-116.5"/>
<text text-anchor="middle" x="1794" y="-124.5" font-family="Helvetica,sans-Serif" font-size="10.00">base/cereal/access.hpp</text>
</g>
<!-- Node58&#45;&gt;Node59 -->
<g id="edge274" class="edge"><title>Node58&#45;&gt;Node59</title>
<path fill="none" stroke="midnightblue" d="M1718.86,-181.267C1733.02,-171.044 1754.53,-155.504 1770.92,-143.67"/>
<polygon fill="midnightblue" stroke="midnightblue" points="1773.36,-146.226 1779.41,-137.534 1769.26,-140.551 1773.36,-146.226"/>
</g>
<!-- Node61&#45;&gt;Node15 -->
<g id="edge298" class="edge"><title>Node61&#45;&gt;Node15</title>
<path fill="none" stroke="midnightblue" d="M2861.08,-181.492C2852.24,-178.975 2842.79,-176.34 2834,-174 2772.44,-157.622 2753.56,-157.827 2689.58,-138.269"/>
<polygon fill="midnightblue" stroke="midnightblue" points="2690.39,-134.856 2679.8,-135.235 2688.32,-141.542 2690.39,-134.856"/>
</g>
<!-- Node61&#45;&gt;Node17 -->
<g id="edge300" class="edge"><title>Node61&#45;&gt;Node17</title>
<path fill="none" stroke="midnightblue" d="M2847.78,-184.468C2822.5,-180.833 2791.16,-176.687 2763,-174 2606.04,-159.02 2111.17,-135.217 1972.46,-128.698"/>
<polygon fill="midnightblue" stroke="midnightblue" points="1972.51,-125.197 1962.36,-128.225 1972.18,-132.189 1972.51,-125.197"/>
</g>
<!-- Node61&#45;&gt;Node25 -->
<g id="edge306" class="edge"><title>Node61&#45;&gt;Node25</title>
<path fill="none" stroke="midnightblue" d="M2847.82,-184.049C2822.54,-180.305 2791.2,-176.189 2763,-174 2393.09,-145.293 1464.86,-197.784 1080.28,-137.727"/>
<polygon fill="midnightblue" stroke="midnightblue" points="1080.61,-134.235 1070.18,-136.103 1079.5,-141.146 1080.61,-134.235"/>
</g>
<!-- Node61&#45;&gt;Node56 -->
<g id="edge302" class="edge"><title>Node61&#45;&gt;Node56</title>
<path fill="none" stroke="midnightblue" d="M2909.71,-181.267C2921.71,-171.139 2939.89,-155.792 2953.86,-144"/>
<polygon fill="midnightblue" stroke="midnightblue" points="2956.14,-146.659 2961.52,-137.534 2951.62,-141.31 2956.14,-146.659"/>
</g>
<!-- Node62 -->
<g id="node214" class="node"><title>Node62</title>
<polygon fill="white" stroke="#bfbfbf" points="2882,-116.5 2882,-137.5 2912,-137.5 2912,-116.5 2882,-116.5"/>
<text text-anchor="middle" x="2897" y="-124.5" font-family="Helvetica,sans-Serif" font-size="10.00">set</text>
</g>
<!-- Node61&#45;&gt;Node62 -->
<g id="edge304" class="edge"><title>Node61&#45;&gt;Node62</title>
<path fill="none" stroke="midnightblue" d="M2897,-181.267C2897,-172.18 2897,-158.892 2897,-147.74"/>
<polygon fill="midnightblue" stroke="midnightblue" points="2900.5,-147.534 2897,-137.534 2893.5,-147.534 2900.5,-147.534"/>
</g>
<!-- Node63&#45;&gt;Node8 -->
<g id="edge314" class="edge"><title>Node63&#45;&gt;Node8</title>
<path fill="none" stroke="midnightblue" d="M2598.93,-174.694C2589.5,-156.624 2572.05,-129.125 2548,-116 2444.33,-59.4147 1577.96,-19.9523 1398.47,-12.3403"/>
<polygon fill="midnightblue" stroke="midnightblue" points="1398.48,-8.83772 1388.34,-11.9138 1398.19,-15.8315 1398.48,-8.83772"/>
</g>
<!-- Node63&#45;&gt;Node15 -->
<g id="edge310" class="edge"><title>Node63&#45;&gt;Node15</title>
<path fill="none" stroke="midnightblue" d="M2620.66,-174.922C2627.85,-165.937 2636.68,-154.905 2644.05,-145.691"/>
<polygon fill="midnightblue" stroke="midnightblue" points="2646.8,-147.847 2650.32,-137.852 2641.34,-143.474 2646.8,-147.847"/>
</g>
<!-- Node63&#45;&gt;Node17 -->
<g id="edge318" class="edge"><title>Node63&#45;&gt;Node17</title>
<path fill="none" stroke="midnightblue" d="M2561.31,-182.01C2546.58,-179.073 2530.15,-176.091 2515,-174 2310.79,-145.825 2063.55,-132.679 1972.19,-128.524"/>
<polygon fill="midnightblue" stroke="midnightblue" points="1972.23,-125.023 1962.08,-128.073 1971.92,-132.016 1972.23,-125.023"/>
</g>
<!-- Node63&#45;&gt;Node18 -->
<g id="edge312" class="edge"><title>Node63&#45;&gt;Node18</title>
<path fill="none" stroke="midnightblue" d="M2561.21,-182.645C2546.48,-179.742 2530.07,-176.62 2515,-174 2409.44,-155.653 2282.89,-137.648 2230.53,-130.371"/>
<polygon fill="midnightblue" stroke="midnightblue" points="2230.9,-126.89 2220.51,-128.985 2229.94,-133.824 2230.9,-126.89"/>
</g>
<!-- Node63&#45;&gt;Node20 -->
<g id="edge322" class="edge"><title>Node63&#45;&gt;Node20</title>
<path fill="none" stroke="midnightblue" d="M2561.36,-181.651C2546.63,-178.694 2530.19,-175.791 2515,-174 2404.67,-160.991 1606.92,-134.297 1422.14,-128.24"/>
<polygon fill="midnightblue" stroke="midnightblue" points="1422.19,-124.74 1412.08,-127.911 1421.96,-131.737 1422.19,-124.74"/>
</g>
<!-- Node63&#45;&gt;Node52 -->
<g id="edge320" class="edge"><title>Node63&#45;&gt;Node52</title>
<path fill="none" stroke="midnightblue" d="M2638.27,-174.922C2656.68,-164.864 2679.79,-152.242 2697.67,-142.476"/>
<polygon fill="midnightblue" stroke="midnightblue" points="2699.39,-145.524 2706.49,-137.658 2696.03,-139.38 2699.39,-145.524"/>
</g>
<!-- Node63&#45;&gt;Node56 -->
<g id="edge316" class="edge"><title>Node63&#45;&gt;Node56</title>
<path fill="none" stroke="midnightblue" d="M2652.81,-182.734C2667.54,-179.836 2683.94,-176.694 2699,-174 2797.39,-156.401 2822.71,-156.161 2921,-138 2929.32,-136.463 2938.34,-134.648 2946.54,-132.939"/>
<polygon fill="midnightblue" stroke="midnightblue" points="2947.31,-136.353 2956.37,-130.861 2945.86,-129.504 2947.31,-136.353"/>
</g>
<!-- Node67&#45;&gt;Node17 -->
<g id="edge344" class="edge"><title>Node67&#45;&gt;Node17</title>
<path fill="none" stroke="midnightblue" d="M1790.31,-246.365C1809.47,-237.972 1835.54,-225.17 1856,-210 1881.56,-191.048 1906.23,-163.624 1921.25,-145.56"/>
<polygon fill="midnightblue" stroke="midnightblue" points="1924.2,-147.482 1927.82,-137.523 1918.78,-143.054 1924.2,-147.482"/>
</g>
<!-- Node67&#45;&gt;Node33 -->
<g id="edge342" class="edge"><title>Node67&#45;&gt;Node33</title>
<path fill="none" stroke="midnightblue" d="M1713.29,-253.595C1678.82,-251.324 1632.16,-248.338 1591,-246 1271.12,-227.834 1189.11,-248.222 871,-210 859.143,-208.575 846.534,-206.532 834.53,-204.329"/>
<polygon fill="midnightblue" stroke="midnightblue" points="835.095,-200.874 824.619,-202.452 833.793,-207.752 835.095,-200.874"/>
</g>
<!-- Node67&#45;&gt;Node56 -->
<g id="edge346" class="edge"><title>Node67&#45;&gt;Node56</title>
<path fill="none" stroke="midnightblue" d="M1814.56,-256.705C2035.91,-255.197 2910.51,-246.915 2955,-210 2972.88,-195.166 2975.97,-167.265 2975.69,-147.931"/>
<polygon fill="midnightblue" stroke="midnightblue" points="2979.17,-147.531 2975.22,-137.701 2972.18,-147.851 2979.17,-147.531"/>
</g>
</g>
</svg>
