<?xml version="1.0" encoding="UTF-8" standalone="no"?>
<!DOCTYPE svg PUBLIC "-//W3C//DTD SVG 1.1//EN"
 "http://www.w3.org/Graphics/SVG/1.1/DTD/svg11.dtd">
<!-- Generated by graphviz version 2.26.3 (20100126.1600)
 -->
<!-- Title: src/reconstruct/Clustering.h Pages: 1 -->
<svg width="2142pt" height="478pt"
 viewBox="0.00 0.00 2142.00 478.00" xmlns="http://www.w3.org/2000/svg" xmlns:xlink="http://www.w3.org/1999/xlink">
<g id="graph1" class="graph" transform="scale(1 1) rotate(0) translate(4 474)">
<title>src/reconstruct/Clustering.h</title>
<polygon fill="white" stroke="white" points="-4,5 -4,-474 2139,-474 2139,5 -4,5"/>
<!-- Node1 -->
<g id="node1" class="node"><title>Node1</title>
<polygon fill="#bfbfbf" stroke="black" points="-0.5,-448.5 -0.5,-469.5 136.5,-469.5 136.5,-448.5 -0.5,-448.5"/>
<text text-anchor="middle" x="68" y="-456.5" font-family="Helvetica,sans-Serif" font-size="10.00">src/reconstruct/Clustering.h</text>
</g>
<!-- Node2 -->
<g id="node3" class="node"><title>Node2</title>
<a xlink:href="_exp_config_8h.html" target="_top" xlink:title="expconfig/ExpConfig.h">
<polygon fill="white" stroke="black" points="521,-390.5 521,-411.5 637,-411.5 637,-390.5 521,-390.5"/>
<text text-anchor="middle" x="579" y="-398.5" font-family="Helvetica,sans-Serif" font-size="10.00">expconfig/ExpConfig.h</text>
</a>
</g>
<!-- Node1&#45;&gt;Node2 -->
<g id="edge2" class="edge"><title>Node1&#45;&gt;Node2</title>
<path fill="none" stroke="midnightblue" d="M136.65,-451.208C234.576,-440.093 413.292,-419.808 510.909,-408.729"/>
<polygon fill="midnightblue" stroke="midnightblue" points="511.42,-412.193 520.961,-407.588 510.63,-405.238 511.42,-412.193"/>
</g>
<!-- Node5 -->
<g id="node9" class="node"><title>Node5</title>
<polygon fill="white" stroke="#bfbfbf" points="428,-0.5 428,-21.5 472,-21.5 472,-0.5 428,-0.5"/>
<text text-anchor="middle" x="450" y="-8.5" font-family="Helvetica,sans-Serif" font-size="10.00">vector</text>
</g>
<!-- Node1&#45;&gt;Node5 -->
<g id="edge178" class="edge"><title>Node1&#45;&gt;Node5</title>
<path fill="none" stroke="midnightblue" d="M56.804,-448.321C37.9739,-429.149 2,-386.792 2,-343 2,-343 2,-343 2,-134 2,-47.7267 314.851,-19.7494 417.679,-12.8838"/>
<polygon fill="midnightblue" stroke="midnightblue" points="418.029,-16.3686 427.784,-12.2326 417.579,-9.38309 418.029,-16.3686"/>
</g>
<!-- Node14 -->
<g id="node30" class="node"><title>Node14</title>
<a xlink:href="_reconstruct__traits_8h.html" target="_top" xlink:title="reconstruct/Reconstruct\l_traits.h">
<polygon fill="white" stroke="black" points="431,-261 431,-295 553,-295 553,-261 431,-261"/>
<text text-anchor="start" x="439" y="-282" font-family="Helvetica,sans-Serif" font-size="10.00">reconstruct/Reconstruct</text>
<text text-anchor="middle" x="492" y="-269" font-family="Helvetica,sans-Serif" font-size="10.00">_traits.h</text>
</a>
</g>
<!-- Node1&#45;&gt;Node14 -->
<g id="edge174" class="edge"><title>Node1&#45;&gt;Node14</title>
<path fill="none" stroke="midnightblue" d="M92.6287,-448.486C160.568,-419.484 351.604,-337.933 442.606,-299.086"/>
<polygon fill="midnightblue" stroke="midnightblue" points="444.058,-302.271 451.881,-295.126 441.31,-295.833 444.058,-302.271"/>
</g>
<!-- Node17 -->
<g id="node37" class="node"><title>Node17</title>
<polygon fill="white" stroke="#bfbfbf" points="247,-58.5 247,-79.5 299,-79.5 299,-58.5 247,-58.5"/>
<text text-anchor="middle" x="273" y="-66.5" font-family="Helvetica,sans-Serif" font-size="10.00">memory</text>
</g>
<!-- Node1&#45;&gt;Node17 -->
<g id="edge176" class="edge"><title>Node1&#45;&gt;Node17</title>
<path fill="none" stroke="midnightblue" d="M63.625,-448.333C55.75,-428.139 40,-382.777 40,-343 40,-343 40,-343 40,-206 40,-115.801 171.359,-83.8165 236.815,-73.4779"/>
<polygon fill="midnightblue" stroke="midnightblue" points="237.351,-76.9368 246.725,-71.9989 236.318,-70.0135 237.351,-76.9368"/>
</g>
<!-- Node3 -->
<g id="node5" class="node"><title>Node3</title>
<a xlink:href="_detector__t_8h.html" target="_top" xlink:title="base/Detector_t.h">
<polygon fill="white" stroke="black" points="1381.5,-195.5 1381.5,-216.5 1476.5,-216.5 1476.5,-195.5 1381.5,-195.5"/>
<text text-anchor="middle" x="1429" y="-203.5" font-family="Helvetica,sans-Serif" font-size="10.00">base/Detector_t.h</text>
</a>
</g>
<!-- Node2&#45;&gt;Node3 -->
<g id="edge4" class="edge"><title>Node2&#45;&gt;Node3</title>
<path fill="none" stroke="midnightblue" d="M631.786,-390.47C722.306,-372.258 912.875,-333.244 1073,-296 1182.93,-270.431 1311.08,-237.183 1379.67,-219.106"/>
<polygon fill="midnightblue" stroke="midnightblue" points="1380.57,-222.488 1389.34,-216.552 1378.78,-215.72 1380.57,-222.488"/>
</g>
<!-- Node4 -->
<g id="node7" class="node"><title>Node4</title>
<a xlink:href="printable_8h.html" target="_top" xlink:title="base/printable.h">
<polygon fill="white" stroke="black" points="1642,-58.5 1642,-79.5 1728,-79.5 1728,-58.5 1642,-58.5"/>
<text text-anchor="middle" x="1685" y="-66.5" font-family="Helvetica,sans-Serif" font-size="10.00">base/printable.h</text>
</a>
</g>
<!-- Node2&#45;&gt;Node4 -->
<g id="edge166" class="edge"><title>Node2&#45;&gt;Node4</title>
<path fill="none" stroke="midnightblue" d="M637.111,-400.594C862.571,-398.261 1667,-382.61 1667,-278 1667,-278 1667,-278 1667,-206 1667,-164.439 1675.24,-116.385 1680.57,-89.6618"/>
<polygon fill="midnightblue" stroke="midnightblue" points="1684.06,-90.0965 1682.65,-79.596 1677.2,-88.6843 1684.06,-90.0965"/>
</g>
<!-- Node2&#45;&gt;Node14 -->
<g id="edge32" class="edge"><title>Node2&#45;&gt;Node14</title>
<path fill="none" stroke="midnightblue" d="M574.058,-390.258C567.414,-376.282 554.829,-351.365 541,-332 533.717,-321.801 524.738,-311.414 516.465,-302.511"/>
<polygon fill="midnightblue" stroke="midnightblue" points="518.861,-299.951 509.437,-295.11 513.786,-304.771 518.861,-299.951"/>
</g>
<!-- Node2&#45;&gt;Node17 -->
<g id="edge168" class="edge"><title>Node2&#45;&gt;Node17</title>
<path fill="none" stroke="midnightblue" d="M520.797,-396.386C404.4,-385.55 154,-353.468 154,-278 154,-278 154,-278 154,-206 154,-150.907 209.528,-107.155 244.722,-84.9568"/>
<polygon fill="midnightblue" stroke="midnightblue" points="246.903,-87.7264 253.616,-79.5296 243.256,-81.751 246.903,-87.7264"/>
</g>
<!-- Node18 -->
<g id="node39" class="node"><title>Node18</title>
<polygon fill="white" stroke="#bfbfbf" points="591.5,-58.5 591.5,-79.5 620.5,-79.5 620.5,-58.5 591.5,-58.5"/>
<text text-anchor="middle" x="606" y="-66.5" font-family="Helvetica,sans-Serif" font-size="10.00">list</text>
</g>
<!-- Node2&#45;&gt;Node18 -->
<g id="edge170" class="edge"><title>Node2&#45;&gt;Node18</title>
<path fill="none" stroke="midnightblue" d="M588.531,-390.362C605.688,-370.07 640,-323.765 640,-278 640,-278 640,-278 640,-206 640,-163.569 624.447,-115.864 614.379,-89.4293"/>
<polygon fill="midnightblue" stroke="midnightblue" points="617.503,-87.8085 610.585,-79.7836 610.989,-90.3707 617.503,-87.8085"/>
</g>
<!-- Node22 -->
<g id="node53" class="node"><title>Node22</title>
<polygon fill="white" stroke="#bfbfbf" points="577.5,-195.5 577.5,-216.5 612.5,-216.5 612.5,-195.5 577.5,-195.5"/>
<text text-anchor="middle" x="595" y="-203.5" font-family="Helvetica,sans-Serif" font-size="10.00">map</text>
</g>
<!-- Node2&#45;&gt;Node22 -->
<g id="edge172" class="edge"><title>Node2&#45;&gt;Node22</title>
<path fill="none" stroke="midnightblue" d="M579.883,-390.238C582.439,-359.082 589.88,-268.397 593.275,-227.022"/>
<polygon fill="midnightblue" stroke="midnightblue" points="596.77,-227.222 594.1,-216.969 589.794,-226.649 596.77,-227.222"/>
</g>
<!-- Node23 -->
<g id="node57" class="node"><title>Node23</title>
<a xlink:href="_calibration_8h.html" target="_top" xlink:title="calibration/Calibration.h">
<polygon fill="white" stroke="black" points="413.5,-332.5 413.5,-353.5 532.5,-353.5 532.5,-332.5 413.5,-332.5"/>
<text text-anchor="middle" x="473" y="-340.5" font-family="Helvetica,sans-Serif" font-size="10.00">calibration/Calibration.h</text>
</a>
</g>
<!-- Node2&#45;&gt;Node23 -->
<g id="edge68" class="edge"><title>Node2&#45;&gt;Node23</title>
<path fill="none" stroke="midnightblue" d="M559.558,-390.362C543.196,-381.409 519.587,-368.491 501.157,-358.406"/>
<polygon fill="midnightblue" stroke="midnightblue" points="502.771,-355.3 492.319,-353.571 499.411,-361.441 502.771,-355.3"/>
</g>
<!-- Node3&#45;&gt;Node4 -->
<g id="edge6" class="edge"><title>Node3&#45;&gt;Node4</title>
<path fill="none" stroke="midnightblue" d="M1448.96,-195.489C1469.54,-184.639 1502.55,-167.2 1531,-152 1574.94,-128.527 1625.8,-101.058 1656.67,-84.3512"/>
<polygon fill="midnightblue" stroke="midnightblue" points="1658.45,-87.3671 1665.58,-79.5282 1655.12,-81.2113 1658.45,-87.3671"/>
</g>
<!-- Node3&#45;&gt;Node5 -->
<g id="edge30" class="edge"><title>Node3&#45;&gt;Node5</title>
<path fill="none" stroke="midnightblue" d="M1381.38,-201.462C1335.01,-195.445 1263.72,-181.86 1209,-152 1188.58,-140.856 1192.19,-125.604 1171,-116 1013.67,-44.6854 946.832,-137.669 784,-80 767.384,-74.1153 767.425,-64.3981 751,-58 702.348,-39.0486 549.703,-21.3732 482.41,-14.2781"/>
<polygon fill="midnightblue" stroke="midnightblue" points="482.681,-10.7875 472.372,-13.2317 481.955,-17.7498 482.681,-10.7875"/>
</g>
<!-- Node7 -->
<g id="node13" class="node"><title>Node7</title>
<a xlink:href="vec3_8h.html" target="_top" xlink:title="base/vec/vec3.h">
<polygon fill="white" stroke="black" points="1905.5,-123.5 1905.5,-144.5 1994.5,-144.5 1994.5,-123.5 1905.5,-123.5"/>
<text text-anchor="middle" x="1950" y="-131.5" font-family="Helvetica,sans-Serif" font-size="10.00">base/vec/vec3.h</text>
</a>
</g>
<!-- Node3&#45;&gt;Node7 -->
<g id="edge12" class="edge"><title>Node3&#45;&gt;Node7</title>
<path fill="none" stroke="midnightblue" d="M1476.79,-203.346C1561.31,-198.006 1742.36,-183.662 1892,-152 1897.88,-150.756 1904.02,-149.173 1910.01,-147.464"/>
<polygon fill="midnightblue" stroke="midnightblue" points="1911.3,-150.73 1919.88,-144.506 1909.29,-144.025 1911.3,-150.73"/>
</g>
<!-- Node10 -->
<g id="node21" class="node"><title>Node10</title>
<polygon fill="white" stroke="#bfbfbf" points="1406,-123.5 1406,-144.5 1452,-144.5 1452,-123.5 1406,-123.5"/>
<text text-anchor="middle" x="1429" y="-131.5" font-family="Helvetica,sans-Serif" font-size="10.00">cstdint</text>
</g>
<!-- Node3&#45;&gt;Node10 -->
<g id="edge22" class="edge"><title>Node3&#45;&gt;Node10</title>
<path fill="none" stroke="midnightblue" d="M1429,-195.376C1429,-184.741 1429,-168.095 1429,-154.82"/>
<polygon fill="midnightblue" stroke="midnightblue" points="1432.5,-154.667 1429,-144.667 1425.5,-154.667 1432.5,-154.667"/>
</g>
<!-- Node11 -->
<g id="node23" class="node"><title>Node11</title>
<polygon fill="white" stroke="#bfbfbf" points="1565.5,-58.5 1565.5,-79.5 1624.5,-79.5 1624.5,-58.5 1565.5,-58.5"/>
<text text-anchor="middle" x="1595" y="-66.5" font-family="Helvetica,sans-Serif" font-size="10.00">stdexcept</text>
</g>
<!-- Node3&#45;&gt;Node11 -->
<g id="edge24" class="edge"><title>Node3&#45;&gt;Node11</title>
<path fill="none" stroke="midnightblue" d="M1441.75,-195.477C1470.17,-172.026 1538.93,-115.274 1573.87,-86.4394"/>
<polygon fill="midnightblue" stroke="midnightblue" points="1576.49,-88.8121 1581.98,-79.7475 1572.04,-83.4133 1576.49,-88.8121"/>
</g>
<!-- Node12 -->
<g id="node25" class="node"><title>Node12</title>
<polygon fill="white" stroke="#bfbfbf" points="1845.5,-0.5 1845.5,-21.5 1886.5,-21.5 1886.5,-0.5 1845.5,-0.5"/>
<text text-anchor="middle" x="1866" y="-8.5" font-family="Helvetica,sans-Serif" font-size="10.00">string</text>
</g>
<!-- Node3&#45;&gt;Node12 -->
<g id="edge26" class="edge"><title>Node3&#45;&gt;Node12</title>
<path fill="none" stroke="midnightblue" d="M1476.79,-203.426C1549.1,-198.58 1690.06,-185.394 1805,-152 1814.36,-149.281 1959.71,-88.1854 1965,-80 1984.67,-49.5766 1932.59,-28.7703 1896.72,-18.4707"/>
<polygon fill="midnightblue" stroke="midnightblue" points="1897.23,-14.9806 1886.66,-15.7286 1895.39,-21.7344 1897.23,-14.9806"/>
</g>
<!-- Node13 -->
<g id="node27" class="node"><title>Node13</title>
<polygon fill="white" stroke="#bfbfbf" points="874,-123.5 874,-144.5 936,-144.5 936,-123.5 874,-123.5"/>
<text text-anchor="middle" x="905" y="-131.5" font-family="Helvetica,sans-Serif" font-size="10.00">type_traits</text>
</g>
<!-- Node3&#45;&gt;Node13 -->
<g id="edge28" class="edge"><title>Node3&#45;&gt;Node13</title>
<path fill="none" stroke="midnightblue" d="M1381.36,-202.581C1276.09,-194.718 1026.55,-174.306 945,-152 941.591,-151.068 938.104,-149.882 934.679,-148.565"/>
<polygon fill="midnightblue" stroke="midnightblue" points="935.88,-145.273 925.306,-144.609 933.158,-151.722 935.88,-145.273"/>
</g>
<!-- Node4&#45;&gt;Node5 -->
<g id="edge8" class="edge"><title>Node4&#45;&gt;Node5</title>
<path fill="none" stroke="midnightblue" d="M1641.97,-59.3014C1638.94,-58.8033 1635.93,-58.3608 1633,-58 1198.21,-4.47114 1085.61,-42.1508 648,-22 589.562,-19.309 521.468,-15.3441 482.283,-12.9819"/>
<polygon fill="midnightblue" stroke="midnightblue" points="482.457,-9.48616 472.263,-12.3749 482.033,-16.4733 482.457,-9.48616"/>
</g>
<!-- Node6 -->
<g id="node11" class="node"><title>Node6</title>
<polygon fill="white" stroke="#bfbfbf" points="1659,-0.5 1659,-21.5 1711,-21.5 1711,-0.5 1659,-0.5"/>
<text text-anchor="middle" x="1685" y="-8.5" font-family="Helvetica,sans-Serif" font-size="10.00">ostream</text>
</g>
<!-- Node4&#45;&gt;Node6 -->
<g id="edge10" class="edge"><title>Node4&#45;&gt;Node6</title>
<path fill="none" stroke="midnightblue" d="M1685,-58.3619C1685,-50.9219 1685,-40.7427 1685,-31.7276"/>
<polygon fill="midnightblue" stroke="midnightblue" points="1688.5,-31.5706 1685,-21.5707 1681.5,-31.5707 1688.5,-31.5706"/>
</g>
<!-- Node7&#45;&gt;Node4 -->
<g id="edge14" class="edge"><title>Node7&#45;&gt;Node4</title>
<path fill="none" stroke="midnightblue" d="M1907.13,-123.484C1860.94,-112.156 1787.41,-94.1197 1737.72,-81.9321"/>
<polygon fill="midnightblue" stroke="midnightblue" points="1738.36,-78.4836 1727.81,-79.5005 1736.69,-85.282 1738.36,-78.4836"/>
</g>
<!-- Node8 -->
<g id="node16" class="node"><title>Node8</title>
<a xlink:href="vec2_8h.html" target="_top" xlink:title="vec2.h">
<polygon fill="white" stroke="black" points="2088,-58.5 2088,-79.5 2134,-79.5 2134,-58.5 2088,-58.5"/>
<text text-anchor="middle" x="2111" y="-66.5" font-family="Helvetica,sans-Serif" font-size="10.00">vec2.h</text>
</a>
</g>
<!-- Node7&#45;&gt;Node8 -->
<g id="edge16" class="edge"><title>Node7&#45;&gt;Node8</title>
<path fill="none" stroke="midnightblue" d="M1976.23,-123.412C2004.08,-112.165 2048.18,-94.3635 2078.29,-82.2069"/>
<polygon fill="midnightblue" stroke="midnightblue" points="2079.96,-85.3075 2087.92,-78.3183 2077.34,-78.8166 2079.96,-85.3075"/>
</g>
<!-- Node9 -->
<g id="node18" class="node"><title>Node9</title>
<polygon fill="white" stroke="#bfbfbf" points="2063,-0.5 2063,-21.5 2107,-21.5 2107,-0.5 2063,-0.5"/>
<text text-anchor="middle" x="2085" y="-8.5" font-family="Helvetica,sans-Serif" font-size="10.00">cmath</text>
</g>
<!-- Node7&#45;&gt;Node9 -->
<g id="edge20" class="edge"><title>Node7&#45;&gt;Node9</title>
<path fill="none" stroke="midnightblue" d="M1961.98,-123.085C1985.36,-101.787 2037.23,-54.5202 2065.58,-28.6918"/>
<polygon fill="midnightblue" stroke="midnightblue" points="2068.2,-31.0375 2073.24,-21.7153 2063.49,-25.8631 2068.2,-31.0375"/>
</g>
<!-- Node8&#45;&gt;Node9 -->
<g id="edge18" class="edge"><title>Node8&#45;&gt;Node9</title>
<path fill="none" stroke="midnightblue" d="M2106.23,-58.3619C2102.79,-50.6766 2098.03,-40.0686 2093.89,-30.8399"/>
<polygon fill="midnightblue" stroke="midnightblue" points="2097.02,-29.264 2089.74,-21.5707 2090.64,-32.1275 2097.02,-29.264"/>
</g>
<!-- Node14&#45;&gt;Node3 -->
<g id="edge34" class="edge"><title>Node14&#45;&gt;Node3</title>
<path fill="none" stroke="midnightblue" d="M553.118,-273.304C723.963,-260.176 1204.86,-223.223 1371.39,-210.427"/>
<polygon fill="midnightblue" stroke="midnightblue" points="1371.72,-213.912 1381.43,-209.656 1371.19,-206.932 1371.72,-213.912"/>
</g>
<!-- Node15 -->
<g id="node33" class="node"><title>Node15</title>
<a xlink:href="mapped__vectors_8h.html" target="_top" xlink:title="base/std_ext/mapped\l_vectors.h">
<polygon fill="white" stroke="black" points="262,-189 262,-223 372,-223 372,-189 262,-189"/>
<text text-anchor="start" x="270" y="-210" font-family="Helvetica,sans-Serif" font-size="10.00">base/std_ext/mapped</text>
<text text-anchor="middle" x="317" y="-197" font-family="Helvetica,sans-Serif" font-size="10.00">_vectors.h</text>
</a>
</g>
<!-- Node14&#45;&gt;Node15 -->
<g id="edge36" class="edge"><title>Node14&#45;&gt;Node15</title>
<path fill="none" stroke="midnightblue" d="M450.527,-260.937C425.772,-250.752 394.146,-237.74 367.887,-226.936"/>
<polygon fill="midnightblue" stroke="midnightblue" points="369.057,-223.633 358.478,-223.065 366.394,-230.107 369.057,-223.633"/>
</g>
<!-- Node14&#45;&gt;Node17 -->
<g id="edge60" class="edge"><title>Node14&#45;&gt;Node17</title>
<path fill="none" stroke="midnightblue" d="M430.865,-271.916C368.301,-264.388 276.952,-249.359 253,-224 219.838,-188.89 226.779,-162.154 241,-116 244.159,-105.747 250.404,-95.7278 256.545,-87.5925"/>
<polygon fill="midnightblue" stroke="midnightblue" points="259.454,-89.5603 263.016,-79.5822 254.009,-85.1612 259.454,-89.5603"/>
</g>
<!-- Node14&#45;&gt;Node18 -->
<g id="edge64" class="edge"><title>Node14&#45;&gt;Node18</title>
<path fill="none" stroke="midnightblue" d="M506.174,-260.6C524.735,-237.133 557.335,-193.486 578,-152 588.123,-131.677 595.962,-106.829 600.738,-89.6463"/>
<polygon fill="midnightblue" stroke="midnightblue" points="604.226,-90.1507 603.427,-79.586 597.463,-88.3429 604.226,-90.1507"/>
</g>
<!-- Node19 -->
<g id="node44" class="node"><title>Node19</title>
<a xlink:href="shared__ptr__container_8h.html" target="_top" xlink:title="base/std_ext/shared\l_ptr_container.h">
<polygon fill="white" stroke="black" points="431.5,-117 431.5,-151 536.5,-151 536.5,-117 431.5,-117"/>
<text text-anchor="start" x="439.5" y="-138" font-family="Helvetica,sans-Serif" font-size="10.00">base/std_ext/shared</text>
<text text-anchor="middle" x="484" y="-125" font-family="Helvetica,sans-Serif" font-size="10.00">_ptr_container.h</text>
</a>
</g>
<!-- Node14&#45;&gt;Node19 -->
<g id="edge50" class="edge"><title>Node14&#45;&gt;Node19</title>
<path fill="none" stroke="midnightblue" d="M491.051,-260.916C489.686,-236.341 487.153,-190.753 485.524,-161.427"/>
<polygon fill="midnightblue" stroke="midnightblue" points="488.997,-160.852 484.948,-151.062 482.008,-161.241 488.997,-160.852"/>
</g>
<!-- Node20 -->
<g id="node48" class="node"><title>Node20</title>
<polygon fill="white" stroke="#bfbfbf" points="656.5,-0.5 656.5,-21.5 715.5,-21.5 715.5,-0.5 656.5,-0.5"/>
<text text-anchor="middle" x="686" y="-8.5" font-family="Helvetica,sans-Serif" font-size="10.00">functional</text>
</g>
<!-- Node14&#45;&gt;Node20 -->
<g id="edge66" class="edge"><title>Node14&#45;&gt;Node20</title>
<path fill="none" stroke="midnightblue" d="M499.277,-260.912C509.562,-236.713 528.894,-191.051 545,-152 562.181,-110.341 551.843,-90.5559 583,-58 600.129,-40.1018 625.358,-28.4349 646.56,-21.2019"/>
<polygon fill="midnightblue" stroke="midnightblue" points="647.824,-24.4724 656.282,-18.0919 645.691,-17.8053 647.824,-24.4724"/>
</g>
<!-- Node14&#45;&gt;Node22 -->
<g id="edge62" class="edge"><title>Node14&#45;&gt;Node22</title>
<path fill="none" stroke="midnightblue" d="M516.41,-260.937C532.974,-249.358 554.764,-234.126 571.198,-222.638"/>
<polygon fill="midnightblue" stroke="midnightblue" points="573.519,-225.286 579.71,-216.688 569.509,-219.549 573.519,-225.286"/>
</g>
<!-- Node15&#45;&gt;Node5 -->
<g id="edge44" class="edge"><title>Node15&#45;&gt;Node5</title>
<path fill="none" stroke="midnightblue" d="M279.724,-188.85C264.998,-180.039 249.572,-167.79 241,-152 221.058,-115.265 211.837,-90.5985 238,-58 260.177,-30.3676 364.082,-17.9746 417.741,-13.3392"/>
<polygon fill="midnightblue" stroke="midnightblue" points="418.085,-16.8228 427.763,-12.5133 417.51,-9.84643 418.085,-16.8228"/>
</g>
<!-- Node15&#45;&gt;Node13 -->
<g id="edge48" class="edge"><title>Node15&#45;&gt;Node13</title>
<path fill="none" stroke="midnightblue" d="M372.19,-201.583C501.788,-191.065 818.178,-164.483 865,-152 868.415,-151.09 871.906,-149.918 875.333,-148.609"/>
<polygon fill="midnightblue" stroke="midnightblue" points="876.85,-151.768 884.709,-144.663 874.134,-145.317 876.85,-151.768"/>
</g>
<!-- Node16 -->
<g id="node35" class="node"><title>Node16</title>
<a xlink:href="memory_8h.html" target="_top" xlink:title="base/std_ext/memory.h">
<polygon fill="white" stroke="black" points="257.5,-123.5 257.5,-144.5 376.5,-144.5 376.5,-123.5 257.5,-123.5"/>
<text text-anchor="middle" x="317" y="-131.5" font-family="Helvetica,sans-Serif" font-size="10.00">base/std_ext/memory.h</text>
</a>
</g>
<!-- Node15&#45;&gt;Node16 -->
<g id="edge38" class="edge"><title>Node15&#45;&gt;Node16</title>
<path fill="none" stroke="midnightblue" d="M317,-188.937C317,-178.814 317,-165.898 317,-155.133"/>
<polygon fill="midnightblue" stroke="midnightblue" points="320.5,-154.901 317,-144.901 313.5,-154.901 320.5,-154.901"/>
</g>
<!-- Node15&#45;&gt;Node17 -->
<g id="edge46" class="edge"><title>Node15&#45;&gt;Node17</title>
<path fill="none" stroke="midnightblue" d="M284.342,-188.873C270.774,-179.877 256.473,-167.476 249,-152 238.984,-131.257 249.62,-105.534 259.736,-88.2696"/>
<polygon fill="midnightblue" stroke="midnightblue" points="262.806,-89.962 265.168,-79.6337 256.881,-86.2351 262.806,-89.962"/>
</g>
<!-- Node16&#45;&gt;Node17 -->
<g id="edge40" class="edge"><title>Node16&#45;&gt;Node17</title>
<path fill="none" stroke="midnightblue" d="M309.734,-123.267C303.263,-113.707 293.644,-99.4964 285.872,-88.0152"/>
<polygon fill="midnightblue" stroke="midnightblue" points="288.635,-85.8528 280.131,-79.5337 282.838,-89.7768 288.635,-85.8528"/>
</g>
<!-- Node16&#45;&gt;Node18 -->
<g id="edge42" class="edge"><title>Node16&#45;&gt;Node18</title>
<path fill="none" stroke="midnightblue" d="M363.754,-123.484C425.835,-109.521 533.231,-85.3667 581.39,-74.5352"/>
<polygon fill="midnightblue" stroke="midnightblue" points="582.266,-77.9255 591.255,-72.3164 580.73,-71.0961 582.266,-77.9255"/>
</g>
<!-- Node19&#45;&gt;Node5 -->
<g id="edge52" class="edge"><title>Node19&#45;&gt;Node5</title>
<path fill="none" stroke="midnightblue" d="M479.272,-116.897C473.101,-94.5726 462.31,-55.535 455.696,-31.605"/>
<polygon fill="midnightblue" stroke="midnightblue" points="459.02,-30.4935 452.982,-21.7875 452.273,-32.3585 459.02,-30.4935"/>
</g>
<!-- Node19&#45;&gt;Node17 -->
<g id="edge54" class="edge"><title>Node19&#45;&gt;Node17</title>
<path fill="none" stroke="midnightblue" d="M431.3,-117.765C393.136,-106.009 342.552,-90.4259 308.948,-80.074"/>
<polygon fill="midnightblue" stroke="midnightblue" points="309.684,-76.6385 299.097,-77.0393 307.623,-83.3283 309.684,-76.6385"/>
</g>
<!-- Node19&#45;&gt;Node20 -->
<g id="edge56" class="edge"><title>Node19&#45;&gt;Node20</title>
<path fill="none" stroke="midnightblue" d="M485.804,-116.682C488.527,-99.3994 495.294,-73.2787 512,-58 531.547,-40.1225 601.349,-25.3339 646.38,-17.3683"/>
<polygon fill="midnightblue" stroke="midnightblue" points="647.16,-20.7855 656.417,-15.6328 645.967,-13.8879 647.16,-20.7855"/>
</g>
<!-- Node21 -->
<g id="node50" class="node"><title>Node21</title>
<polygon fill="white" stroke="#bfbfbf" points="1146,-0.5 1146,-21.5 1202,-21.5 1202,-0.5 1146,-0.5"/>
<text text-anchor="middle" x="1174" y="-8.5" font-family="Helvetica,sans-Serif" font-size="10.00">algorithm</text>
</g>
<!-- Node19&#45;&gt;Node21 -->
<g id="edge58" class="edge"><title>Node19&#45;&gt;Node21</title>
<path fill="none" stroke="midnightblue" d="M499.985,-116.881C518.149,-98.6932 549.629,-70.8298 583,-58 634.402,-38.238 1012.9,-18.6705 1135.67,-12.7834"/>
<polygon fill="midnightblue" stroke="midnightblue" points="1135.92,-16.2757 1145.74,-12.3039 1135.58,-9.28366 1135.92,-16.2757"/>
</g>
<!-- Node23&#45;&gt;Node5 -->
<g id="edge164" class="edge"><title>Node23&#45;&gt;Node5</title>
<path fill="none" stroke="midnightblue" d="M413.437,-334.983C303.09,-318.451 78,-276.134 78,-206 78,-206 78,-206 78,-134 78,-62.6797 327.602,-25.6708 417.893,-14.6164"/>
<polygon fill="midnightblue" stroke="midnightblue" points="418.331,-18.0891 427.844,-13.4249 417.499,-11.1387 418.331,-18.0891"/>
</g>
<!-- Node23&#45;&gt;Node14 -->
<g id="edge70" class="edge"><title>Node23&#45;&gt;Node14</title>
<path fill="none" stroke="midnightblue" d="M476.137,-332.267C478.328,-324.773 481.353,-314.423 484.175,-304.769"/>
<polygon fill="midnightblue" stroke="midnightblue" points="487.552,-305.69 486.999,-295.11 480.833,-303.726 487.552,-305.69"/>
</g>
<!-- Node24 -->
<g id="node60" class="node"><title>Node24</title>
<a xlink:href="_manager__traits_8h.html" target="_top" xlink:title="calibration/gui/Manager\l_traits.h">
<polygon fill="white" stroke="black" points="947.5,-261 947.5,-295 1064.5,-295 1064.5,-261 947.5,-261"/>
<text text-anchor="start" x="955.5" y="-282" font-family="Helvetica,sans-Serif" font-size="10.00">calibration/gui/Manager</text>
<text text-anchor="middle" x="1006" y="-269" font-family="Helvetica,sans-Serif" font-size="10.00">_traits.h</text>
</a>
</g>
<!-- Node23&#45;&gt;Node24 -->
<g id="edge72" class="edge"><title>Node23&#45;&gt;Node24</title>
<path fill="none" stroke="midnightblue" d="M532.59,-335.733C632.096,-323.598 831.535,-299.276 936.984,-286.417"/>
<polygon fill="midnightblue" stroke="midnightblue" points="937.696,-289.856 947.199,-285.171 936.849,-282.907 937.696,-289.856"/>
</g>
<!-- Node24&#45;&gt;Node12 -->
<g id="edge158" class="edge"><title>Node24&#45;&gt;Node12</title>
<path fill="none" stroke="midnightblue" d="M1064.8,-275.101C1269.5,-264.407 1941.75,-224.012 2003,-152 2030.8,-119.317 2010.95,-88.723 1981,-58 1958.24,-34.6533 1922.26,-22.4904 1896.61,-16.4442"/>
<polygon fill="midnightblue" stroke="midnightblue" points="1897.17,-12.9849 1886.65,-14.2802 1895.68,-19.825 1897.17,-12.9849"/>
</g>
<!-- Node24&#45;&gt;Node17 -->
<g id="edge162" class="edge"><title>Node24&#45;&gt;Node17</title>
<path fill="none" stroke="midnightblue" d="M947.464,-265.988C897.108,-255.479 822.591,-239.511 758,-224 696.784,-209.3 682.46,-201.641 621,-188 533.682,-168.62 502.78,-192.437 423,-152 402.249,-141.482 404.487,-128.708 385,-116 361.305,-100.548 331.688,-88.3846 308.863,-80.3059"/>
<polygon fill="midnightblue" stroke="midnightblue" points="309.812,-76.9311 299.217,-76.9904 307.536,-83.551 309.812,-76.9311"/>
</g>
<!-- Node24&#45;&gt;Node18 -->
<g id="edge160" class="edge"><title>Node24&#45;&gt;Node18</title>
<path fill="none" stroke="midnightblue" d="M947.208,-261.881C881.577,-242.243 773.847,-204.997 692,-152 690.055,-150.741 648.937,-110.812 624.271,-86.8026"/>
<polygon fill="midnightblue" stroke="midnightblue" points="626.517,-84.1048 616.911,-79.6359 621.634,-89.1199 626.517,-84.1048"/>
</g>
<!-- Node25 -->
<g id="node62" class="node"><title>Node25</title>
<a xlink:href="interval_8h.html" target="_top" xlink:title="base/interval.h">
<polygon fill="white" stroke="black" points="1716,-123.5 1716,-144.5 1796,-144.5 1796,-123.5 1716,-123.5"/>
<text text-anchor="middle" x="1756" y="-131.5" font-family="Helvetica,sans-Serif" font-size="10.00">base/interval.h</text>
</a>
</g>
<!-- Node24&#45;&gt;Node25 -->
<g id="edge74" class="edge"><title>Node24&#45;&gt;Node25</title>
<path fill="none" stroke="midnightblue" d="M1064.52,-275.334C1155.42,-270.315 1335.63,-256.846 1485,-224 1571.7,-204.935 1669.7,-168.508 1720.77,-148.335"/>
<polygon fill="midnightblue" stroke="midnightblue" points="1722.35,-151.476 1730.35,-144.527 1719.76,-144.971 1722.35,-151.476"/>
</g>
<!-- Node29 -->
<g id="node73" class="node"><title>Node29</title>
<a xlink:href="_wrap_t_file_8h.html" target="_top" xlink:title="base/WrapTFile.h">
<polygon fill="white" stroke="black" points="1218,-123.5 1218,-144.5 1312,-144.5 1312,-123.5 1218,-123.5"/>
<text text-anchor="middle" x="1265" y="-131.5" font-family="Helvetica,sans-Serif" font-size="10.00">base/WrapTFile.h</text>
</a>
</g>
<!-- Node24&#45;&gt;Node29 -->
<g id="edge88" class="edge"><title>Node24&#45;&gt;Node29</title>
<path fill="none" stroke="midnightblue" d="M1036.73,-260.916C1087.58,-232.64 1188.48,-176.544 1237.28,-149.411"/>
<polygon fill="midnightblue" stroke="midnightblue" points="1239,-152.46 1246.04,-144.541 1235.6,-146.342 1239,-152.46"/>
</g>
<!-- Node40 -->
<g id="node105" class="node"><title>Node40</title>
<a xlink:href="_t_i_d_8h.html" target="_top" xlink:title="tree/TID.h">
<polygon fill="white" stroke="black" points="975.5,-195.5 975.5,-216.5 1036.5,-216.5 1036.5,-195.5 975.5,-195.5"/>
<text text-anchor="middle" x="1006" y="-203.5" font-family="Helvetica,sans-Serif" font-size="10.00">tree/TID.h</text>
</a>
</g>
<!-- Node24&#45;&gt;Node40 -->
<g id="edge130" class="edge"><title>Node24&#45;&gt;Node40</title>
<path fill="none" stroke="midnightblue" d="M1006,-260.937C1006,-250.814 1006,-237.898 1006,-227.133"/>
<polygon fill="midnightblue" stroke="midnightblue" points="1009.5,-226.901 1006,-216.901 1002.5,-226.901 1009.5,-226.901"/>
</g>
<!-- Node25&#45;&gt;Node4 -->
<g id="edge76" class="edge"><title>Node25&#45;&gt;Node4</title>
<path fill="none" stroke="midnightblue" d="M1744.28,-123.267C1733.32,-113.233 1716.76,-98.078 1703.93,-86.3311"/>
<polygon fill="midnightblue" stroke="midnightblue" points="1706.25,-83.7047 1696.51,-79.5337 1701.52,-88.8678 1706.25,-83.7047"/>
</g>
<!-- Node25&#45;&gt;Node11 -->
<g id="edge82" class="edge"><title>Node25&#45;&gt;Node11</title>
<path fill="none" stroke="midnightblue" d="M1729.77,-123.412C1702.88,-112.552 1660.84,-95.5833 1630.88,-83.4842"/>
<polygon fill="midnightblue" stroke="midnightblue" points="1631.8,-80.0818 1621.21,-79.5835 1629.18,-86.5727 1631.8,-80.0818"/>
</g>
<!-- Node25&#45;&gt;Node21 -->
<g id="edge80" class="edge"><title>Node25&#45;&gt;Node21</title>
<path fill="none" stroke="midnightblue" d="M1756.85,-123.466C1757.56,-106.729 1756.17,-74.2966 1737,-58 1716.99,-40.9861 1336.11,-19.5296 1212.43,-12.9844"/>
<polygon fill="midnightblue" stroke="midnightblue" points="1212.46,-9.48107 1202.29,-12.4506 1212.09,-16.4714 1212.46,-9.48107"/>
</g>
<!-- Node26 -->
<g id="node65" class="node"><title>Node26</title>
<a xlink:href="types_8h.html" target="_top" xlink:title="types.h">
<polygon fill="white" stroke="black" points="1783.5,-58.5 1783.5,-79.5 1832.5,-79.5 1832.5,-58.5 1783.5,-58.5"/>
<text text-anchor="middle" x="1808" y="-66.5" font-family="Helvetica,sans-Serif" font-size="10.00">types.h</text>
</a>
</g>
<!-- Node25&#45;&gt;Node26 -->
<g id="edge78" class="edge"><title>Node25&#45;&gt;Node26</title>
<path fill="none" stroke="midnightblue" d="M1764.59,-123.267C1772.31,-113.612 1783.83,-99.2145 1793.06,-87.675"/>
<polygon fill="midnightblue" stroke="midnightblue" points="1796.06,-89.5289 1799.57,-79.5337 1790.59,-85.156 1796.06,-89.5289"/>
</g>
<!-- Node27 -->
<g id="node69" class="node"><title>Node27</title>
<polygon fill="white" stroke="#bfbfbf" points="1850,-58.5 1850,-79.5 1890,-79.5 1890,-58.5 1850,-58.5"/>
<text text-anchor="middle" x="1870" y="-66.5" font-family="Helvetica,sans-Serif" font-size="10.00">limits</text>
</g>
<!-- Node25&#45;&gt;Node27 -->
<g id="edge84" class="edge"><title>Node25&#45;&gt;Node27</title>
<path fill="none" stroke="midnightblue" d="M1774.57,-123.412C1793.04,-112.883 1821.58,-96.6106 1842.64,-84.6021"/>
<polygon fill="midnightblue" stroke="midnightblue" points="1844.48,-87.5772 1851.44,-79.5835 1841.02,-81.4962 1844.48,-87.5772"/>
</g>
<!-- Node28 -->
<g id="node71" class="node"><title>Node28</title>
<polygon fill="white" stroke="#bfbfbf" points="1907.5,-58.5 1907.5,-79.5 1956.5,-79.5 1956.5,-58.5 1907.5,-58.5"/>
<text text-anchor="middle" x="1932" y="-66.5" font-family="Helvetica,sans-Serif" font-size="10.00">istream</text>
</g>
<!-- Node25&#45;&gt;Node28 -->
<g id="edge86" class="edge"><title>Node25&#45;&gt;Node28</title>
<path fill="none" stroke="midnightblue" d="M1784.67,-123.412C1815.56,-112.002 1864.72,-93.8461 1897.66,-81.682"/>
<polygon fill="midnightblue" stroke="midnightblue" points="1899.16,-84.8611 1907.32,-78.1134 1896.73,-78.2947 1899.16,-84.8611"/>
</g>
<!-- Node29&#45;&gt;Node11 -->
<g id="edge126" class="edge"><title>Node29&#45;&gt;Node11</title>
<path fill="none" stroke="midnightblue" d="M1298.04,-123.407C1307.05,-120.751 1316.85,-118.071 1326,-116 1425.2,-93.5604 1452.4,-100.626 1552,-80 1553.09,-79.7734 1554.2,-79.5372 1555.32,-79.2932"/>
<polygon fill="midnightblue" stroke="midnightblue" points="1556.53,-82.6062 1565.48,-76.9354 1554.94,-75.7875 1556.53,-82.6062"/>
</g>
<!-- Node29&#45;&gt;Node12 -->
<g id="edge122" class="edge"><title>Node29&#45;&gt;Node12</title>
<path fill="none" stroke="midnightblue" d="M1292.82,-123.469C1300.57,-120.782 1309.05,-118.071 1317,-116 1405.25,-93.0143 1433.35,-111.319 1519,-80 1537.33,-73.2977 1538.59,-64.4689 1557,-58 1608.15,-40.03 1767.69,-21.4793 1835.27,-14.2017"/>
<polygon fill="midnightblue" stroke="midnightblue" points="1835.72,-17.6733 1845.29,-13.1323 1834.98,-10.7128 1835.72,-17.6733"/>
</g>
<!-- Node29&#45;&gt;Node17 -->
<g id="edge120" class="edge"><title>Node29&#45;&gt;Node17</title>
<path fill="none" stroke="midnightblue" d="M1217.86,-123.664C1202.94,-120.746 1186.34,-117.861 1171,-116 999.771,-95.2239 455.081,-75.2967 309.222,-70.2322"/>
<polygon fill="midnightblue" stroke="midnightblue" points="309.148,-66.7276 299.033,-69.8801 308.906,-73.7235 309.148,-66.7276"/>
</g>
<!-- Node29&#45;&gt;Node18 -->
<g id="edge124" class="edge"><title>Node29&#45;&gt;Node18</title>
<path fill="none" stroke="midnightblue" d="M1217.84,-123.795C1202.92,-120.883 1186.33,-117.969 1171,-116 934.822,-85.6603 864.458,-139.667 630.602,-79.6326"/>
<polygon fill="midnightblue" stroke="midnightblue" points="631.342,-76.2085 620.782,-77.0698 629.574,-82.9817 631.342,-76.2085"/>
</g>
<!-- Node29&#45;&gt;Node20 -->
<g id="edge128" class="edge"><title>Node29&#45;&gt;Node20</title>
<path fill="none" stroke="midnightblue" d="M1233.62,-123.491C1224.19,-120.672 1213.76,-117.887 1204,-116 1038.75,-84.0348 988.573,-127.171 827,-80 806.393,-73.9838 803.235,-67.5312 784,-58 762.015,-47.1062 737.08,-35.1532 717.864,-26.0276"/>
<polygon fill="midnightblue" stroke="midnightblue" points="719.191,-22.7835 708.656,-21.6631 716.193,-29.1089 719.191,-22.7835"/>
</g>
<!-- Node30 -->
<g id="node75" class="node"><title>Node30</title>
<a xlink:href="string_8h.html" target="_top" xlink:title="base/std_ext/string.h">
<polygon fill="white" stroke="black" points="836,-58.5 836,-79.5 944,-79.5 944,-58.5 836,-58.5"/>
<text text-anchor="middle" x="890" y="-66.5" font-family="Helvetica,sans-Serif" font-size="10.00">base/std_ext/string.h</text>
</a>
</g>
<!-- Node29&#45;&gt;Node30 -->
<g id="edge90" class="edge"><title>Node29&#45;&gt;Node30</title>
<path fill="none" stroke="midnightblue" d="M1232.62,-123.499C1223.44,-120.781 1213.39,-118.047 1204,-116 1097.01,-92.6697 1066.04,-97.3948 954.262,-80.1502"/>
<polygon fill="midnightblue" stroke="midnightblue" points="954.7,-76.6762 944.279,-78.5851 953.616,-83.5917 954.7,-76.6762"/>
</g>
<!-- Node32 -->
<g id="node82" class="node"><title>Node32</title>
<a xlink:href="misc_8h.html" target="_top" xlink:title="base/std_ext/misc.h">
<polygon fill="white" stroke="black" points="1405.5,-58.5 1405.5,-79.5 1510.5,-79.5 1510.5,-58.5 1405.5,-58.5"/>
<text text-anchor="middle" x="1458" y="-66.5" font-family="Helvetica,sans-Serif" font-size="10.00">base/std_ext/misc.h</text>
</a>
</g>
<!-- Node29&#45;&gt;Node32 -->
<g id="edge100" class="edge"><title>Node29&#45;&gt;Node32</title>
<path fill="none" stroke="midnightblue" d="M1296.44,-123.412C1329.24,-112.364 1380.83,-94.9913 1416.85,-82.8574"/>
<polygon fill="midnightblue" stroke="midnightblue" points="1418.22,-86.0922 1426.58,-79.5835 1415.98,-79.4584 1418.22,-86.0922"/>
</g>
<!-- Node34 -->
<g id="node88" class="node"><title>Node34</title>
<polygon fill="white" stroke="#bfbfbf" points="961.5,-58.5 961.5,-79.5 1008.5,-79.5 1008.5,-58.5 961.5,-58.5"/>
<text text-anchor="middle" x="985" y="-66.5" font-family="Helvetica,sans-Serif" font-size="10.00">TFile.h</text>
</g>
<!-- Node29&#45;&gt;Node34 -->
<g id="edge108" class="edge"><title>Node29&#45;&gt;Node34</title>
<path fill="none" stroke="midnightblue" d="M1231.28,-123.416C1222.45,-120.819 1212.91,-118.166 1204,-116 1124.81,-96.7419 1100.57,-101.415 1018.41,-80.1257"/>
<polygon fill="midnightblue" stroke="midnightblue" points="1019.21,-76.7169 1008.65,-77.5457 1017.42,-83.4846 1019.21,-76.7169"/>
</g>
<!-- Node35 -->
<g id="node90" class="node"><title>Node35</title>
<polygon fill="white" stroke="#bfbfbf" points="1025.5,-58.5 1025.5,-79.5 1096.5,-79.5 1096.5,-58.5 1025.5,-58.5"/>
<text text-anchor="middle" x="1061" y="-66.5" font-family="Helvetica,sans-Serif" font-size="10.00">TDirectory.h</text>
</g>
<!-- Node29&#45;&gt;Node35 -->
<g id="edge110" class="edge"><title>Node29&#45;&gt;Node35</title>
<path fill="none" stroke="midnightblue" d="M1231.77,-123.412C1196.95,-112.316 1142.11,-94.8427 1104,-82.7021"/>
<polygon fill="midnightblue" stroke="midnightblue" points="1104.81,-79.2847 1094.22,-79.5835 1102.68,-85.9543 1104.81,-79.2847"/>
</g>
<!-- Node36 -->
<g id="node92" class="node"><title>Node36</title>
<polygon fill="white" stroke="#bfbfbf" points="1114,-58.5 1114,-79.5 1166,-79.5 1166,-58.5 1114,-58.5"/>
<text text-anchor="middle" x="1140" y="-66.5" font-family="Helvetica,sans-Serif" font-size="10.00">TError.h</text>
</g>
<!-- Node29&#45;&gt;Node36 -->
<g id="edge112" class="edge"><title>Node29&#45;&gt;Node36</title>
<path fill="none" stroke="midnightblue" d="M1244.64,-123.412C1224.21,-112.788 1192.54,-96.3182 1169.38,-84.28"/>
<polygon fill="midnightblue" stroke="midnightblue" points="1170.84,-81.0918 1160.35,-79.5835 1167.61,-87.3023 1170.84,-81.0918"/>
</g>
<!-- Node37 -->
<g id="node94" class="node"><title>Node37</title>
<polygon fill="white" stroke="#bfbfbf" points="1183.5,-58.5 1183.5,-79.5 1230.5,-79.5 1230.5,-58.5 1183.5,-58.5"/>
<text text-anchor="middle" x="1207" y="-66.5" font-family="Helvetica,sans-Serif" font-size="10.00">TList.h</text>
</g>
<!-- Node29&#45;&gt;Node37 -->
<g id="edge114" class="edge"><title>Node29&#45;&gt;Node37</title>
<path fill="none" stroke="midnightblue" d="M1255.42,-123.267C1246.64,-113.423 1233.46,-98.6481 1223.06,-86.9996"/>
<polygon fill="midnightblue" stroke="midnightblue" points="1225.67,-84.6649 1216.4,-79.5337 1220.45,-89.3254 1225.67,-84.6649"/>
</g>
<!-- Node38 -->
<g id="node96" class="node"><title>Node38</title>
<polygon fill="white" stroke="#bfbfbf" points="1248,-58.5 1248,-79.5 1322,-79.5 1322,-58.5 1248,-58.5"/>
<text text-anchor="middle" x="1285" y="-66.5" font-family="Helvetica,sans-Serif" font-size="10.00">TCollection.h</text>
</g>
<!-- Node29&#45;&gt;Node38 -->
<g id="edge116" class="edge"><title>Node29&#45;&gt;Node38</title>
<path fill="none" stroke="midnightblue" d="M1268.3,-123.267C1271.13,-114.085 1275.27,-100.615 1278.73,-89.3917"/>
<polygon fill="midnightblue" stroke="midnightblue" points="1282.16,-90.1208 1281.76,-79.5337 1275.47,-88.0622 1282.16,-90.1208"/>
</g>
<!-- Node39 -->
<g id="node98" class="node"><title>Node39</title>
<polygon fill="white" stroke="#bfbfbf" points="1340,-58.5 1340,-79.5 1388,-79.5 1388,-58.5 1340,-58.5"/>
<text text-anchor="middle" x="1364" y="-66.5" font-family="Helvetica,sans-Serif" font-size="10.00">TKey.h</text>
</g>
<!-- Node29&#45;&gt;Node39 -->
<g id="edge118" class="edge"><title>Node29&#45;&gt;Node39</title>
<path fill="none" stroke="midnightblue" d="M1281.35,-123.267C1297.06,-112.949 1321.02,-97.216 1339.11,-85.3421"/>
<polygon fill="midnightblue" stroke="midnightblue" points="1341.52,-87.9479 1347.96,-79.5337 1337.68,-82.0964 1341.52,-87.9479"/>
</g>
<!-- Node30&#45;&gt;Node5 -->
<g id="edge98" class="edge"><title>Node30&#45;&gt;Node5</title>
<path fill="none" stroke="midnightblue" d="M835.606,-61.8299C742.906,-49.6104 557.096,-25.1172 482.294,-15.2569"/>
<polygon fill="midnightblue" stroke="midnightblue" points="482.459,-11.7485 472.088,-13.9115 481.544,-18.6885 482.459,-11.7485"/>
</g>
<!-- Node30&#45;&gt;Node12 -->
<g id="edge92" class="edge"><title>Node30&#45;&gt;Node12</title>
<path fill="none" stroke="midnightblue" d="M944.234,-59.0839C947.194,-58.6823 950.131,-58.3166 953,-58 1292.21,-20.5769 1379.37,-42.8216 1720,-22 1759.77,-19.569 1805.58,-15.9909 1835.11,-13.5819"/>
<polygon fill="midnightblue" stroke="midnightblue" points="1835.54,-17.0588 1845.22,-12.7516 1834.97,-10.0823 1835.54,-17.0588"/>
</g>
<!-- Node30&#45;&gt;Node21 -->
<g id="edge96" class="edge"><title>Node30&#45;&gt;Node21</title>
<path fill="none" stroke="midnightblue" d="M941.43,-58.4966C997.392,-47.0679 1085.56,-29.0611 1135.73,-18.8159"/>
<polygon fill="midnightblue" stroke="midnightblue" points="1136.73,-22.1829 1145.83,-16.7527 1135.33,-15.3245 1136.73,-22.1829"/>
</g>
<!-- Node31 -->
<g id="node78" class="node"><title>Node31</title>
<polygon fill="white" stroke="#bfbfbf" points="864,-0.5 864,-21.5 916,-21.5 916,-0.5 864,-0.5"/>
<text text-anchor="middle" x="890" y="-8.5" font-family="Helvetica,sans-Serif" font-size="10.00">sstream</text>
</g>
<!-- Node30&#45;&gt;Node31 -->
<g id="edge94" class="edge"><title>Node30&#45;&gt;Node31</title>
<path fill="none" stroke="midnightblue" d="M890,-58.3619C890,-50.9219 890,-40.7427 890,-31.7276"/>
<polygon fill="midnightblue" stroke="midnightblue" points="893.5,-31.5706 890,-21.5707 886.5,-31.5707 893.5,-31.5706"/>
</g>
<!-- Node32&#45;&gt;Node20 -->
<g id="edge104" class="edge"><title>Node32&#45;&gt;Node20</title>
<path fill="none" stroke="midnightblue" d="M1405.48,-59.1433C1402.62,-58.7263 1399.78,-58.3411 1397,-58 1388.6,-56.968 874.27,-23.3076 725.749,-13.5977"/>
<polygon fill="midnightblue" stroke="midnightblue" points="725.907,-10.1006 715.7,-12.9407 725.45,-17.0857 725.907,-10.1006"/>
</g>
<!-- Node32&#45;&gt;Node21 -->
<g id="edge102" class="edge"><title>Node32&#45;&gt;Node21</title>
<path fill="none" stroke="midnightblue" d="M1406.57,-58.4966C1350.61,-47.0679 1262.44,-29.0611 1212.27,-18.8159"/>
<polygon fill="midnightblue" stroke="midnightblue" points="1212.67,-15.3245 1202.17,-16.7527 1211.27,-22.1829 1212.67,-15.3245"/>
</g>
<!-- Node33 -->
<g id="node86" class="node"><title>Node33</title>
<polygon fill="white" stroke="#bfbfbf" points="1431.5,-0.5 1431.5,-21.5 1484.5,-21.5 1484.5,-0.5 1431.5,-0.5"/>
<text text-anchor="middle" x="1458" y="-8.5" font-family="Helvetica,sans-Serif" font-size="10.00">cxxabi.h</text>
</g>
<!-- Node32&#45;&gt;Node33 -->
<g id="edge106" class="edge"><title>Node32&#45;&gt;Node33</title>
<path fill="none" stroke="midnightblue" d="M1458,-58.3619C1458,-50.9219 1458,-40.7427 1458,-31.7276"/>
<polygon fill="midnightblue" stroke="midnightblue" points="1461.5,-31.5706 1458,-21.5707 1454.5,-31.5707 1461.5,-31.5706"/>
</g>
<!-- Node40&#45;&gt;Node4 -->
<g id="edge134" class="edge"><title>Node40&#45;&gt;Node4</title>
<path fill="none" stroke="midnightblue" d="M1036.53,-203.556C1111.03,-197.236 1300.18,-178.942 1357,-152 1378.61,-141.753 1375.38,-126.233 1397,-116 1490,-71.9801 1526.39,-97.3363 1631.83,-80.0598"/>
<polygon fill="midnightblue" stroke="midnightblue" points="1632.65,-83.4692 1641.91,-78.3137 1631.46,-76.5719 1632.65,-83.4692"/>
</g>
<!-- Node40&#45;&gt;Node10 -->
<g id="edge148" class="edge"><title>Node40&#45;&gt;Node10</title>
<path fill="none" stroke="midnightblue" d="M1036.73,-204.956C1103.02,-202.005 1263.84,-191.067 1392,-152 1394.98,-151.092 1398.02,-149.971 1401.01,-148.737"/>
<polygon fill="midnightblue" stroke="midnightblue" points="1402.61,-151.852 1410.26,-144.525 1399.71,-145.481 1402.61,-151.852"/>
</g>
<!-- Node40&#45;&gt;Node11 -->
<g id="edge150" class="edge"><title>Node40&#45;&gt;Node11</title>
<path fill="none" stroke="midnightblue" d="M1036.62,-202.808C1105.48,-195.302 1270.46,-175.389 1321,-152 1343.62,-141.533 1341.48,-126.686 1364,-116 1440.86,-79.5245 1468.97,-98.5507 1552,-80 1553.09,-79.7564 1554.2,-79.505 1555.31,-79.2477"/>
<polygon fill="midnightblue" stroke="midnightblue" points="1556.54,-82.5511 1565.45,-76.813 1554.91,-75.7446 1556.54,-82.5511"/>
</g>
<!-- Node40&#45;&gt;Node13 -->
<g id="edge144" class="edge"><title>Node40&#45;&gt;Node13</title>
<path fill="none" stroke="midnightblue" d="M991.097,-195.376C974.538,-183.571 947.588,-164.36 928.249,-150.574"/>
<polygon fill="midnightblue" stroke="midnightblue" points="930.139,-147.622 919.964,-144.667 926.075,-153.322 930.139,-147.622"/>
</g>
<!-- Node40&#45;&gt;Node18 -->
<g id="edge152" class="edge"><title>Node40&#45;&gt;Node18</title>
<path fill="none" stroke="midnightblue" d="M975.183,-204.795C923.213,-201.711 815.902,-190.767 735,-152 712.523,-141.229 712.591,-130.044 692,-116 671.838,-102.248 647.271,-89.1514 629.565,-80.2931"/>
<polygon fill="midnightblue" stroke="midnightblue" points="631.023,-77.1097 620.505,-75.8306 627.929,-83.3892 631.023,-77.1097"/>
</g>
<!-- Node41 -->
<g id="node107" class="node"><title>Node41</title>
<polygon fill="white" stroke="#bfbfbf" points="744,-123.5 744,-144.5 800,-144.5 800,-123.5 744,-123.5"/>
<text text-anchor="middle" x="772" y="-131.5" font-family="Helvetica,sans-Serif" font-size="10.00">Rtypes.h</text>
</g>
<!-- Node40&#45;&gt;Node41 -->
<g id="edge132" class="edge"><title>Node40&#45;&gt;Node41</title>
<path fill="none" stroke="midnightblue" d="M975.409,-199.47C936.196,-190.681 866.415,-173.622 809,-152 806.455,-151.042 803.85,-149.971 801.257,-148.841"/>
<polygon fill="midnightblue" stroke="midnightblue" points="802.605,-145.608 792.059,-144.594 799.67,-151.964 802.605,-145.608"/>
</g>
<!-- Node42 -->
<g id="node110" class="node"><title>Node42</title>
<a xlink:href="time_8h.html" target="_top" xlink:title="base/std_ext/time.h">
<polygon fill="white" stroke="black" points="1059.5,-123.5 1059.5,-144.5 1162.5,-144.5 1162.5,-123.5 1059.5,-123.5"/>
<text text-anchor="middle" x="1111" y="-131.5" font-family="Helvetica,sans-Serif" font-size="10.00">base/std_ext/time.h</text>
</a>
</g>
<!-- Node40&#45;&gt;Node42 -->
<g id="edge136" class="edge"><title>Node40&#45;&gt;Node42</title>
<path fill="none" stroke="midnightblue" d="M1021.49,-195.376C1038.79,-183.518 1066.98,-164.186 1087.1,-150.388"/>
<polygon fill="midnightblue" stroke="midnightblue" points="1089.18,-153.209 1095.44,-144.667 1085.22,-147.436 1089.18,-153.209"/>
</g>
<!-- Node44 -->
<g id="node115" class="node"><title>Node44</title>
<polygon fill="white" stroke="#bfbfbf" points="637.5,-58.5 637.5,-79.5 678.5,-79.5 678.5,-58.5 637.5,-58.5"/>
<text text-anchor="middle" x="658" y="-66.5" font-family="Helvetica,sans-Serif" font-size="10.00">ctime</text>
</g>
<!-- Node40&#45;&gt;Node44 -->
<g id="edge156" class="edge"><title>Node40&#45;&gt;Node44</title>
<path fill="none" stroke="midnightblue" d="M1011.25,-195.267C1019.53,-176.605 1032.76,-138.064 1013,-116 966.273,-63.8286 773.753,-94.4352 688.552,-79.6153"/>
<polygon fill="midnightblue" stroke="midnightblue" points="689.213,-76.178 678.71,-77.5742 687.791,-83.0322 689.213,-76.178"/>
</g>
<!-- Node45 -->
<g id="node118" class="node"><title>Node45</title>
<polygon fill="white" stroke="#bfbfbf" points="818,-123.5 818,-144.5 856,-144.5 856,-123.5 818,-123.5"/>
<text text-anchor="middle" x="837" y="-131.5" font-family="Helvetica,sans-Serif" font-size="10.00">tuple</text>
</g>
<!-- Node40&#45;&gt;Node45 -->
<g id="edge146" class="edge"><title>Node40&#45;&gt;Node45</title>
<path fill="none" stroke="midnightblue" d="M975.245,-196.264C946.147,-186.582 901.602,-170.526 865,-152 863.679,-151.331 862.341,-150.616 861.005,-149.87"/>
<polygon fill="midnightblue" stroke="midnightblue" points="862.736,-146.828 852.362,-144.677 859.131,-152.828 862.736,-146.828"/>
</g>
<!-- Node46 -->
<g id="node123" class="node"><title>Node46</title>
<polygon fill="white" stroke="#bfbfbf" points="954,-123.5 954,-144.5 1004,-144.5 1004,-123.5 954,-123.5"/>
<text text-anchor="middle" x="979" y="-131.5" font-family="Helvetica,sans-Serif" font-size="10.00">iomanip</text>
</g>
<!-- Node40&#45;&gt;Node46 -->
<g id="edge154" class="edge"><title>Node40&#45;&gt;Node46</title>
<path fill="none" stroke="midnightblue" d="M1002.02,-195.376C997.988,-184.635 991.66,-167.761 986.658,-154.422"/>
<polygon fill="midnightblue" stroke="midnightblue" points="989.789,-152.802 983,-144.667 983.234,-155.26 989.789,-152.802"/>
</g>
<!-- Node42&#45;&gt;Node30 -->
<g id="edge138" class="edge"><title>Node42&#45;&gt;Node30</title>
<path fill="none" stroke="midnightblue" d="M1075,-123.412C1037.03,-112.246 977.106,-94.6193 935.799,-82.4703"/>
<polygon fill="midnightblue" stroke="midnightblue" points="936.565,-79.0475 925.984,-79.5835 934.59,-85.763 936.565,-79.0475"/>
</g>
<!-- Node43 -->
<g id="node113" class="node"><title>Node43</title>
<polygon fill="white" stroke="#bfbfbf" points="696,-58.5 696,-79.5 742,-79.5 742,-58.5 696,-58.5"/>
<text text-anchor="middle" x="719" y="-66.5" font-family="Helvetica,sans-Serif" font-size="10.00">cstring</text>
</g>
<!-- Node42&#45;&gt;Node43 -->
<g id="edge140" class="edge"><title>Node42&#45;&gt;Node43</title>
<path fill="none" stroke="midnightblue" d="M1076.48,-123.428C1066.7,-120.709 1055.99,-117.992 1046,-116 918.63,-90.6009 883.126,-106.597 756,-80 754.746,-79.7375 753.472,-79.4529 752.189,-79.1509"/>
<polygon fill="midnightblue" stroke="midnightblue" points="752.899,-75.7188 742.338,-76.5741 751.127,-82.4909 752.899,-75.7188"/>
</g>
<!-- Node42&#45;&gt;Node44 -->
<g id="edge142" class="edge"><title>Node42&#45;&gt;Node44</title>
<path fill="none" stroke="midnightblue" d="M1077.18,-123.462C1067.22,-120.677 1056.24,-117.917 1046,-116 891.614,-87.1005 844.992,-115.536 688.669,-79.9225"/>
<polygon fill="midnightblue" stroke="midnightblue" points="689.238,-76.4613 678.704,-77.6003 687.649,-83.2786 689.238,-76.4613"/>
</g>
</g>
</svg>
