<?xml version="1.0" encoding="UTF-8" standalone="no"?>
<!DOCTYPE svg PUBLIC "-//W3C//DTD SVG 1.1//EN"
 "http://www.w3.org/Graphics/SVG/1.1/DTD/svg11.dtd">
<!-- Generated by graphviz version 2.26.3 (20100126.1600)
 -->
<!-- Title: src/reconstruct/detail/Clustering_NextGen.h Pages: 1 -->
<svg width="478pt" height="276pt"
 viewBox="0.00 0.00 478.00 276.00" xmlns="http://www.w3.org/2000/svg" xmlns:xlink="http://www.w3.org/1999/xlink">
<g id="graph1" class="graph" transform="scale(1 1) rotate(0) translate(4 272)">
<title>src/reconstruct/detail/Clustering_NextGen.h</title>
<polygon fill="white" stroke="white" points="-4,5 -4,-272 475,-272 475,5 -4,5"/>
<!-- Node1 -->
<g id="node1" class="node"><title>Node1</title>
<polygon fill="#bfbfbf" stroke="black" points="171,-233 171,-267 287,-267 287,-233 171,-233"/>
<text text-anchor="start" x="179" y="-254" font-family="Helvetica,sans-Serif" font-size="10.00">src/reconstruct/detail</text>
<text text-anchor="middle" x="229" y="-241" font-family="Helvetica,sans-Serif" font-size="10.00">/Clustering_NextGen.h</text>
</g>
<!-- Node2 -->
<g id="node3" class="node"><title>Node2</title>
<a xlink:href="_detector__t_8h.html" target="_top" xlink:title="base/Detector_t.h">
<polygon fill="white" stroke="black" points="142.5,-174.5 142.5,-195.5 237.5,-195.5 237.5,-174.5 142.5,-174.5"/>
<text text-anchor="middle" x="190" y="-182.5" font-family="Helvetica,sans-Serif" font-size="10.00">base/Detector_t.h</text>
</a>
</g>
<!-- Node1&#45;&gt;Node2 -->
<g id="edge2" class="edge"><title>Node1&#45;&gt;Node2</title>
<path fill="none" stroke="midnightblue" d="M218.753,-232.922C213.527,-224.212 207.147,-213.578 201.725,-204.542"/>
<polygon fill="midnightblue" stroke="midnightblue" points="204.657,-202.626 196.511,-195.852 198.655,-206.228 204.657,-202.626"/>
</g>
<!-- Node4 -->
<g id="node7" class="node"><title>Node4</title>
<polygon fill="white" stroke="#bfbfbf" points="0,-0.5 0,-21.5 44,-21.5 44,-0.5 0,-0.5"/>
<text text-anchor="middle" x="22" y="-8.5" font-family="Helvetica,sans-Serif" font-size="10.00">vector</text>
</g>
<!-- Node1&#45;&gt;Node4 -->
<g id="edge30" class="edge"><title>Node1&#45;&gt;Node4</title>
<path fill="none" stroke="midnightblue" d="M188.917,-232.835C150.198,-214.438 92.2379,-181.855 56,-138 37.7666,-115.934 35.5867,-107.601 28,-80 23.7175,-64.4201 22.2776,-46.185 21.8762,-32.3748"/>
<polygon fill="midnightblue" stroke="midnightblue" points="25.3708,-31.9248 21.7435,-21.9703 18.3714,-32.0141 25.3708,-31.9248"/>
</g>
<!-- Node13 -->
<g id="node29" class="node"><title>Node13</title>
<polygon fill="white" stroke="#bfbfbf" points="254.5,-174.5 254.5,-195.5 283.5,-195.5 283.5,-174.5 254.5,-174.5"/>
<text text-anchor="middle" x="269" y="-182.5" font-family="Helvetica,sans-Serif" font-size="10.00">list</text>
</g>
<!-- Node1&#45;&gt;Node13 -->
<g id="edge32" class="edge"><title>Node1&#45;&gt;Node13</title>
<path fill="none" stroke="midnightblue" d="M239.51,-232.922C244.87,-224.212 251.413,-213.578 256.974,-204.542"/>
<polygon fill="midnightblue" stroke="midnightblue" points="260.062,-206.203 262.322,-195.852 254.1,-202.534 260.062,-206.203"/>
</g>
<!-- Node14 -->
<g id="node31" class="node"><title>Node14</title>
<polygon fill="white" stroke="#bfbfbf" points="301,-174.5 301,-195.5 331,-195.5 331,-174.5 301,-174.5"/>
<text text-anchor="middle" x="316" y="-182.5" font-family="Helvetica,sans-Serif" font-size="10.00">set</text>
</g>
<!-- Node1&#45;&gt;Node14 -->
<g id="edge34" class="edge"><title>Node1&#45;&gt;Node14</title>
<path fill="none" stroke="midnightblue" d="M251.858,-232.922C264.702,-223.326 280.672,-211.394 293.464,-201.837"/>
<polygon fill="midnightblue" stroke="midnightblue" points="295.818,-204.448 301.734,-195.658 291.628,-198.84 295.818,-204.448"/>
</g>
<!-- Node3 -->
<g id="node5" class="node"><title>Node3</title>
<a xlink:href="printable_8h.html" target="_top" xlink:title="base/printable.h">
<polygon fill="white" stroke="black" points="50,-58.5 50,-79.5 136,-79.5 136,-58.5 50,-58.5"/>
<text text-anchor="middle" x="93" y="-66.5" font-family="Helvetica,sans-Serif" font-size="10.00">base/printable.h</text>
</a>
</g>
<!-- Node2&#45;&gt;Node3 -->
<g id="edge4" class="edge"><title>Node2&#45;&gt;Node3</title>
<path fill="none" stroke="midnightblue" d="M146.177,-174.327C127.108,-167.303 106.522,-155.969 95,-138 85.9275,-123.851 86.1955,-104.495 88.2926,-89.8847"/>
<polygon fill="midnightblue" stroke="midnightblue" points="91.7805,-90.2668 90.1284,-79.8016 84.8937,-89.0129 91.7805,-90.2668"/>
</g>
<!-- Node2&#45;&gt;Node4 -->
<g id="edge28" class="edge"><title>Node2&#45;&gt;Node4</title>
<path fill="none" stroke="midnightblue" d="M153.677,-174.439C131.639,-166.789 103.842,-154.819 83,-138 58.2318,-118.013 54.7782,-108.69 41,-80 33.6148,-64.6223 28.6862,-45.8924 25.7033,-31.8291"/>
<polygon fill="midnightblue" stroke="midnightblue" points="29.077,-30.8443 23.7185,-21.7044 22.2077,-32.1909 29.077,-30.8443"/>
</g>
<!-- Node6 -->
<g id="node11" class="node"><title>Node6</title>
<a xlink:href="vec3_8h.html" target="_top" xlink:title="base/vec/vec3.h">
<polygon fill="white" stroke="black" points="103.5,-116.5 103.5,-137.5 192.5,-137.5 192.5,-116.5 103.5,-116.5"/>
<text text-anchor="middle" x="148" y="-124.5" font-family="Helvetica,sans-Serif" font-size="10.00">base/vec/vec3.h</text>
</a>
</g>
<!-- Node2&#45;&gt;Node6 -->
<g id="edge10" class="edge"><title>Node2&#45;&gt;Node6</title>
<path fill="none" stroke="midnightblue" d="M182.297,-174.362C176.554,-166.431 168.557,-155.389 161.73,-145.961"/>
<polygon fill="midnightblue" stroke="midnightblue" points="164.355,-143.617 155.655,-137.571 158.685,-147.723 164.355,-143.617"/>
</g>
<!-- Node9 -->
<g id="node19" class="node"><title>Node9</title>
<polygon fill="white" stroke="#bfbfbf" points="210,-116.5 210,-137.5 256,-137.5 256,-116.5 210,-116.5"/>
<text text-anchor="middle" x="233" y="-124.5" font-family="Helvetica,sans-Serif" font-size="10.00">cstdint</text>
</g>
<!-- Node2&#45;&gt;Node9 -->
<g id="edge20" class="edge"><title>Node2&#45;&gt;Node9</title>
<path fill="none" stroke="midnightblue" d="M197.887,-174.362C203.827,-166.35 212.122,-155.161 219.159,-145.67"/>
<polygon fill="midnightblue" stroke="midnightblue" points="222.019,-147.688 225.163,-137.571 216.396,-143.519 222.019,-147.688"/>
</g>
<!-- Node10 -->
<g id="node21" class="node"><title>Node10</title>
<polygon fill="white" stroke="#bfbfbf" points="273.5,-116.5 273.5,-137.5 332.5,-137.5 332.5,-116.5 273.5,-116.5"/>
<text text-anchor="middle" x="303" y="-124.5" font-family="Helvetica,sans-Serif" font-size="10.00">stdexcept</text>
</g>
<!-- Node2&#45;&gt;Node10 -->
<g id="edge22" class="edge"><title>Node2&#45;&gt;Node10</title>
<path fill="none" stroke="midnightblue" d="M210.463,-174.497C228.033,-165.479 253.582,-152.365 273.385,-142.201"/>
<polygon fill="midnightblue" stroke="midnightblue" points="275.009,-145.301 282.307,-137.621 271.812,-139.074 275.009,-145.301"/>
</g>
<!-- Node11 -->
<g id="node23" class="node"><title>Node11</title>
<polygon fill="white" stroke="#bfbfbf" points="349.5,-116.5 349.5,-137.5 390.5,-137.5 390.5,-116.5 349.5,-116.5"/>
<text text-anchor="middle" x="370" y="-124.5" font-family="Helvetica,sans-Serif" font-size="10.00">string</text>
</g>
<!-- Node2&#45;&gt;Node11 -->
<g id="edge24" class="edge"><title>Node2&#45;&gt;Node11</title>
<path fill="none" stroke="midnightblue" d="M225.895,-174.497C254.516,-165.975 295.809,-153.349 339.75,-138.315"/>
<polygon fill="midnightblue" stroke="midnightblue" points="341.148,-141.535 349.461,-134.967 338.866,-134.917 341.148,-141.535"/>
</g>
<!-- Node12 -->
<g id="node25" class="node"><title>Node12</title>
<polygon fill="white" stroke="#bfbfbf" points="408,-116.5 408,-137.5 470,-137.5 470,-116.5 408,-116.5"/>
<text text-anchor="middle" x="439" y="-124.5" font-family="Helvetica,sans-Serif" font-size="10.00">type_traits</text>
</g>
<!-- Node2&#45;&gt;Node12 -->
<g id="edge26" class="edge"><title>Node2&#45;&gt;Node12</title>
<path fill="none" stroke="midnightblue" d="M237.881,-174.905C278.102,-166.273 337.322,-153.213 397.532,-138.295"/>
<polygon fill="midnightblue" stroke="midnightblue" points="398.737,-141.602 407.594,-135.787 397.044,-134.81 398.737,-141.602"/>
</g>
<!-- Node3&#45;&gt;Node4 -->
<g id="edge6" class="edge"><title>Node3&#45;&gt;Node4</title>
<path fill="none" stroke="midnightblue" d="M79.9775,-58.3619C69.5688,-49.859 54.7806,-37.7785 42.7449,-27.9466"/>
<polygon fill="midnightblue" stroke="midnightblue" points="44.8987,-25.1866 34.9399,-21.5707 40.4701,-30.6077 44.8987,-25.1866"/>
</g>
<!-- Node5 -->
<g id="node9" class="node"><title>Node5</title>
<polygon fill="white" stroke="#bfbfbf" points="67,-0.5 67,-21.5 119,-21.5 119,-0.5 67,-0.5"/>
<text text-anchor="middle" x="93" y="-8.5" font-family="Helvetica,sans-Serif" font-size="10.00">ostream</text>
</g>
<!-- Node3&#45;&gt;Node5 -->
<g id="edge8" class="edge"><title>Node3&#45;&gt;Node5</title>
<path fill="none" stroke="midnightblue" d="M93,-58.3619C93,-50.9219 93,-40.7427 93,-31.7276"/>
<polygon fill="midnightblue" stroke="midnightblue" points="96.5001,-31.5706 93,-21.5707 89.5001,-31.5707 96.5001,-31.5706"/>
</g>
<!-- Node6&#45;&gt;Node3 -->
<g id="edge12" class="edge"><title>Node6&#45;&gt;Node3</title>
<path fill="none" stroke="midnightblue" d="M137.912,-116.362C130.159,-108.186 119.27,-96.7025 110.155,-87.0907"/>
<polygon fill="midnightblue" stroke="midnightblue" points="112.445,-84.4186 103.024,-79.5707 107.365,-89.2352 112.445,-84.4186"/>
</g>
<!-- Node7 -->
<g id="node14" class="node"><title>Node7</title>
<a xlink:href="vec2_8h.html" target="_top" xlink:title="vec2.h">
<polygon fill="white" stroke="black" points="192,-58.5 192,-79.5 238,-79.5 238,-58.5 192,-58.5"/>
<text text-anchor="middle" x="215" y="-66.5" font-family="Helvetica,sans-Serif" font-size="10.00">vec2.h</text>
</a>
</g>
<!-- Node6&#45;&gt;Node7 -->
<g id="edge14" class="edge"><title>Node6&#45;&gt;Node7</title>
<path fill="none" stroke="midnightblue" d="M160.289,-116.362C170.017,-107.941 183.798,-96.0105 195.095,-86.2308"/>
<polygon fill="midnightblue" stroke="midnightblue" points="197.519,-88.7619 202.789,-79.5707 192.938,-83.4695 197.519,-88.7619"/>
</g>
<!-- Node8 -->
<g id="node16" class="node"><title>Node8</title>
<polygon fill="white" stroke="#bfbfbf" points="167,-0.5 167,-21.5 211,-21.5 211,-0.5 167,-0.5"/>
<text text-anchor="middle" x="189" y="-8.5" font-family="Helvetica,sans-Serif" font-size="10.00">cmath</text>
</g>
<!-- Node6&#45;&gt;Node8 -->
<g id="edge18" class="edge"><title>Node6&#45;&gt;Node8</title>
<path fill="none" stroke="midnightblue" d="M151.784,-116.295C158.618,-96.9588 173.122,-55.9229 181.869,-31.1767"/>
<polygon fill="midnightblue" stroke="midnightblue" points="185.193,-32.274 185.225,-21.6792 178.593,-29.9412 185.193,-32.274"/>
</g>
<!-- Node7&#45;&gt;Node8 -->
<g id="edge16" class="edge"><title>Node7&#45;&gt;Node8</title>
<path fill="none" stroke="midnightblue" d="M210.231,-58.3619C206.786,-50.6766 202.031,-40.0686 197.894,-30.8399"/>
<polygon fill="midnightblue" stroke="midnightblue" points="201.023,-29.264 193.739,-21.5707 194.635,-32.1275 201.023,-29.264"/>
</g>
</g>
</svg>
