<?xml version="1.0" encoding="UTF-8" standalone="no"?>
<!DOCTYPE svg PUBLIC "-//W3C//DTD SVG 1.1//EN"
 "http://www.w3.org/Graphics/SVG/1.1/DTD/svg11.dtd">
<!-- Generated by graphviz version 2.26.3 (20100126.1600)
 -->
<!-- Title: src/analysis/utils/ClusterTools.h Pages: 1 -->
<svg width="497pt" height="212pt"
 viewBox="0.00 0.00 497.00 212.00" xmlns="http://www.w3.org/2000/svg" xmlns:xlink="http://www.w3.org/1999/xlink">
<g id="graph1" class="graph" transform="scale(1 1) rotate(0) translate(4 208)">
<title>src/analysis/utils/ClusterTools.h</title>
<polygon fill="white" stroke="white" points="-4,5 -4,-208 494,-208 494,5 -4,5"/>
<!-- Node1 -->
<g id="node1" class="node"><title>Node1</title>
<polygon fill="#bfbfbf" stroke="black" points="170,-169 170,-203 260,-203 260,-169 170,-169"/>
<text text-anchor="start" x="178" y="-190" font-family="Helvetica,sans-Serif" font-size="10.00">src/analysis/utils</text>
<text text-anchor="middle" x="215" y="-177" font-family="Helvetica,sans-Serif" font-size="10.00">/ClusterTools.h</text>
</g>
<!-- Node2 -->
<g id="node3" class="node"><title>Node2</title>
<a xlink:href="_candidates_analysis_8cc.html" target="_top" xlink:title="src/analysis/physics\l/common/CandidatesAnalysis.cc">
<polygon fill="white" stroke="black" points="-0.5,-7 -0.5,-41 160.5,-41 160.5,-7 -0.5,-7"/>
<text text-anchor="start" x="7.5" y="-28" font-family="Helvetica,sans-Serif" font-size="10.00">src/analysis/physics</text>
<text text-anchor="middle" x="80" y="-15" font-family="Helvetica,sans-Serif" font-size="10.00">/common/CandidatesAnalysis.cc</text>
</a>
</g>
<!-- Node1&#45;&gt;Node2 -->
<g id="edge2" class="edge"><title>Node1&#45;&gt;Node2</title>
<path fill="none" stroke="midnightblue" d="M159.911,-175.319C116.928,-165.734 62.3417,-150.37 49,-132 28.9393,-104.379 50.7916,-64.0525 66.6284,-41.2988"/>
<polygon fill="midnightblue" stroke="midnightblue" points="159.203,-178.747 169.719,-177.452 160.691,-171.907 159.203,-178.747"/>
</g>
<!-- Node3 -->
<g id="node5" class="node"><title>Node3</title>
<a xlink:href="_candidates_analysis_8h.html" target="_top" xlink:title="src/analysis/physics\l/common/CandidatesAnalysis.h">
<polygon fill="white" stroke="black" points="57.5,-91 57.5,-125 212.5,-125 212.5,-91 57.5,-91"/>
<text text-anchor="start" x="65.5" y="-112" font-family="Helvetica,sans-Serif" font-size="10.00">src/analysis/physics</text>
<text text-anchor="middle" x="135" y="-99" font-family="Helvetica,sans-Serif" font-size="10.00">/common/CandidatesAnalysis.h</text>
</a>
</g>
<!-- Node1&#45;&gt;Node3 -->
<g id="edge4" class="edge"><title>Node1&#45;&gt;Node3</title>
<path fill="none" stroke="midnightblue" d="M190.035,-161.659C177.929,-149.856 163.674,-135.957 152.705,-125.262"/>
<polygon fill="midnightblue" stroke="midnightblue" points="187.642,-164.214 197.245,-168.689 192.529,-159.202 187.642,-164.214"/>
</g>
<!-- Node4 -->
<g id="node8" class="node"><title>Node4</title>
<a xlink:href="etaprime__omega__gamma_8h.html" target="_top" xlink:title="src/analysis/physics\l/etaprime/etaprime_omega\l_gamma.h">
<polygon fill="white" stroke="black" points="230,-84.5 230,-131.5 362,-131.5 362,-84.5 230,-84.5"/>
<text text-anchor="start" x="238" y="-118.5" font-family="Helvetica,sans-Serif" font-size="10.00">src/analysis/physics</text>
<text text-anchor="start" x="238" y="-105.5" font-family="Helvetica,sans-Serif" font-size="10.00">/etaprime/etaprime_omega</text>
<text text-anchor="middle" x="296" y="-92.5" font-family="Helvetica,sans-Serif" font-size="10.00">_gamma.h</text>
</a>
</g>
<!-- Node1&#45;&gt;Node4 -->
<g id="edge8" class="edge"><title>Node1&#45;&gt;Node4</title>
<path fill="none" stroke="midnightblue" d="M240.225,-161.71C250.13,-152.171 261.464,-141.257 271.316,-131.77"/>
<polygon fill="midnightblue" stroke="midnightblue" points="237.752,-159.232 232.977,-168.689 242.608,-164.274 237.752,-159.232"/>
</g>
<!-- Node7 -->
<g id="node14" class="node"><title>Node7</title>
<a xlink:href="_cluster_tools_8cc.html" target="_top" xlink:title="src/analysis/utils\l/ClusterTools.cc">
<polygon fill="white" stroke="black" points="380,-91 380,-125 470,-125 470,-91 380,-91"/>
<text text-anchor="start" x="388" y="-112" font-family="Helvetica,sans-Serif" font-size="10.00">src/analysis/utils</text>
<text text-anchor="middle" x="425" y="-99" font-family="Helvetica,sans-Serif" font-size="10.00">/ClusterTools.cc</text>
</a>
</g>
<!-- Node1&#45;&gt;Node7 -->
<g id="edge14" class="edge"><title>Node1&#45;&gt;Node7</title>
<path fill="none" stroke="midnightblue" d="M269.58,-168.372C299.715,-158.324 337.681,-145.144 371,-132 376.44,-129.854 382.134,-127.474 387.7,-125.07"/>
<polygon fill="midnightblue" stroke="midnightblue" points="268.477,-165.05 260.087,-171.521 270.681,-171.695 268.477,-165.05"/>
</g>
<!-- Node3&#45;&gt;Node2 -->
<g id="edge6" class="edge"><title>Node3&#45;&gt;Node2</title>
<path fill="none" stroke="midnightblue" d="M117.894,-81.8741C109.194,-68.5876 98.8676,-52.816 91.1933,-41.0952"/>
<polygon fill="midnightblue" stroke="midnightblue" points="115.198,-84.1462 123.604,-90.5951 121.054,-80.3117 115.198,-84.1462"/>
</g>
<!-- Node5 -->
<g id="node10" class="node"><title>Node5</title>
<a xlink:href="_etap_omega_g__plot_8cc.html" target="_top" xlink:title="progs/EtapOmegaG_plot.cc">
<polygon fill="white" stroke="black" points="202.5,-13.5 202.5,-34.5 339.5,-34.5 339.5,-13.5 202.5,-13.5"/>
<text text-anchor="middle" x="271" y="-21.5" font-family="Helvetica,sans-Serif" font-size="10.00">progs/EtapOmegaG_plot.cc</text>
</a>
</g>
<!-- Node4&#45;&gt;Node5 -->
<g id="edge10" class="edge"><title>Node4&#45;&gt;Node5</title>
<path fill="none" stroke="midnightblue" d="M285.936,-74.1841C281.728,-60.0478 277.138,-44.6246 274.173,-34.66"/>
<polygon fill="midnightblue" stroke="midnightblue" points="282.696,-75.5675 288.903,-84.1537 289.405,-73.5707 282.696,-75.5675"/>
</g>
<!-- Node6 -->
<g id="node12" class="node"><title>Node6</title>
<a xlink:href="etaprime__omega__gamma_8cc.html" target="_top" xlink:title="src/analysis/physics\l/etaprime/etaprime_omega\l_gamma.cc">
<polygon fill="white" stroke="black" points="357,-0.5 357,-47.5 489,-47.5 489,-0.5 357,-0.5"/>
<text text-anchor="start" x="365" y="-34.5" font-family="Helvetica,sans-Serif" font-size="10.00">src/analysis/physics</text>
<text text-anchor="start" x="365" y="-21.5" font-family="Helvetica,sans-Serif" font-size="10.00">/etaprime/etaprime_omega</text>
<text text-anchor="middle" x="423" y="-8.5" font-family="Helvetica,sans-Serif" font-size="10.00">_gamma.cc</text>
</a>
</g>
<!-- Node4&#45;&gt;Node6 -->
<g id="edge12" class="edge"><title>Node4&#45;&gt;Node6</title>
<path fill="none" stroke="midnightblue" d="M340.056,-78.8606C355.429,-68.6924 372.485,-57.4113 387.113,-47.736"/>
<polygon fill="midnightblue" stroke="midnightblue" points="338.124,-75.9418 331.715,-84.3778 341.986,-81.7803 338.124,-75.9418"/>
</g>
</g>
</svg>
