<?xml version="1.0" encoding="UTF-8" standalone="no"?>
<!DOCTYPE svg PUBLIC "-//W3C//DTD SVG 1.1//EN"
 "http://www.w3.org/Graphics/SVG/1.1/DTD/svg11.dtd">
<!-- Generated by graphviz version 2.26.3 (20100126.1600)
 -->
<!-- Title: src/base/CmdLine.h Pages: 1 -->
<svg width="2086pt" height="102pt"
 viewBox="0.00 0.00 2086.00 102.00" xmlns="http://www.w3.org/2000/svg" xmlns:xlink="http://www.w3.org/1999/xlink">
<g id="graph1" class="graph" transform="scale(1 1) rotate(0) translate(4 98)">
<title>src/base/CmdLine.h</title>
<polygon fill="white" stroke="white" points="-4,5 -4,-98 2083,-98 2083,5 -4,5"/>
<!-- Node1 -->
<g id="node1" class="node"><title>Node1</title>
<polygon fill="#bfbfbf" stroke="black" points="968,-72.5 968,-93.5 1072,-93.5 1072,-72.5 968,-72.5"/>
<text text-anchor="middle" x="1020" y="-80.5" font-family="Helvetica,sans-Serif" font-size="10.00">src/base/CmdLine.h</text>
</g>
<!-- Node2 -->
<g id="node3" class="node"><title>Node2</title>
<a xlink:href="_ant-calib-editor_8cc.html" target="_top" xlink:title="progs/Ant&#45;calib&#45;editor.cc">
<polygon fill="white" stroke="black" points="0,-7.5 0,-28.5 122,-28.5 122,-7.5 0,-7.5"/>
<text text-anchor="middle" x="61" y="-15.5" font-family="Helvetica,sans-Serif" font-size="10.00">progs/Ant&#45;calib&#45;editor.cc</text>
</a>
</g>
<!-- Node1&#45;&gt;Node2 -->
<g id="edge2" class="edge"><title>Node1&#45;&gt;Node2</title>
<path fill="none" stroke="midnightblue" d="M957.771,-81.3209C783.131,-76.3524 290.801,-60.5202 131,-36 119.589,-34.2491 107.339,-31.432 96.3274,-28.5411"/>
<polygon fill="midnightblue" stroke="midnightblue" points="957.729,-84.821 967.824,-81.6049 957.927,-77.8238 957.729,-84.821"/>
</g>
<!-- Node3 -->
<g id="node5" class="node"><title>Node3</title>
<a xlink:href="_ant-calib-regedit_8cc.html" target="_top" xlink:title="progs/Ant&#45;calib&#45;regedit.cc">
<polygon fill="white" stroke="black" points="140,-7.5 140,-28.5 268,-28.5 268,-7.5 140,-7.5"/>
<text text-anchor="middle" x="204" y="-15.5" font-family="Helvetica,sans-Serif" font-size="10.00">progs/Ant&#45;calib&#45;regedit.cc</text>
</a>
</g>
<!-- Node1&#45;&gt;Node3 -->
<g id="edge4" class="edge"><title>Node1&#45;&gt;Node3</title>
<path fill="none" stroke="midnightblue" d="M957.586,-80.4891C803.405,-74.0548 407.58,-56.0643 277,-36 265.259,-34.196 252.641,-31.4001 241.253,-28.5454"/>
<polygon fill="midnightblue" stroke="midnightblue" points="957.689,-83.9962 967.826,-80.9142 957.979,-77.0023 957.689,-83.9962"/>
</g>
<!-- Node4 -->
<g id="node7" class="node"><title>Node4</title>
<a xlink:href="_ant-calib-viewer_8cc.html" target="_top" xlink:title="progs/Ant&#45;calib&#45;viewer.cc">
<polygon fill="white" stroke="black" points="285.5,-7.5 285.5,-28.5 412.5,-28.5 412.5,-7.5 285.5,-7.5"/>
<text text-anchor="middle" x="349" y="-15.5" font-family="Helvetica,sans-Serif" font-size="10.00">progs/Ant&#45;calib&#45;viewer.cc</text>
</a>
</g>
<!-- Node1&#45;&gt;Node4 -->
<g id="edge6" class="edge"><title>Node1&#45;&gt;Node4</title>
<path fill="none" stroke="midnightblue" d="M957.79,-81.5293C848.511,-78.1886 615.235,-67.6727 421,-36 409.555,-34.1337 397.258,-31.3549 386.123,-28.5359"/>
<polygon fill="midnightblue" stroke="midnightblue" points="957.873,-85.0332 967.973,-81.8307 958.081,-78.0363 957.873,-85.0332"/>
</g>
<!-- Node5 -->
<g id="node9" class="node"><title>Node5</title>
<a xlink:href="_ant-calib_8cc.html" target="_top" xlink:title="progs/Ant&#45;calib.cc">
<polygon fill="white" stroke="black" points="429.5,-7.5 429.5,-28.5 524.5,-28.5 524.5,-7.5 429.5,-7.5"/>
<text text-anchor="middle" x="477" y="-15.5" font-family="Helvetica,sans-Serif" font-size="10.00">progs/Ant&#45;calib.cc</text>
</a>
</g>
<!-- Node1&#45;&gt;Node5 -->
<g id="edge8" class="edge"><title>Node1&#45;&gt;Node5</title>
<path fill="none" stroke="midnightblue" d="M957.811,-81.2643C864.604,-77.7061 683.54,-67.0814 533,-36 523.999,-34.1416 514.405,-31.3651 505.748,-28.5458"/>
<polygon fill="midnightblue" stroke="midnightblue" points="957.795,-84.7659 967.917,-81.6353 958.052,-77.7707 957.795,-84.7659"/>
</g>
<!-- Node6 -->
<g id="node11" class="node"><title>Node6</title>
<a xlink:href="_ant-chain_8cc.html" target="_top" xlink:title="hadd like tool to concatenate TTrees in ROOT files using TChains. ">
<polygon fill="white" stroke="black" points="542,-7.5 542,-28.5 640,-28.5 640,-7.5 542,-7.5"/>
<text text-anchor="middle" x="591" y="-15.5" font-family="Helvetica,sans-Serif" font-size="10.00">progs/Ant&#45;chain.cc</text>
</a>
</g>
<!-- Node1&#45;&gt;Node6 -->
<g id="edge10" class="edge"><title>Node1&#45;&gt;Node6</title>
<path fill="none" stroke="midnightblue" d="M957.797,-78.464C883.642,-72.2895 756.263,-59.2513 649,-36 639.933,-34.0345 630.245,-31.2933 621.436,-28.542"/>
<polygon fill="midnightblue" stroke="midnightblue" points="957.648,-81.9634 967.9,-79.2901 958.218,-74.9867 957.648,-81.9634"/>
</g>
<!-- Node7 -->
<g id="node13" class="node"><title>Node7</title>
<a xlink:href="_ant-cocktail_8cc.html" target="_top" xlink:title="progs/Ant&#45;cocktail.cc">
<polygon fill="white" stroke="black" points="657.5,-7.5 657.5,-28.5 766.5,-28.5 766.5,-7.5 657.5,-7.5"/>
<text text-anchor="middle" x="712" y="-15.5" font-family="Helvetica,sans-Serif" font-size="10.00">progs/Ant&#45;cocktail.cc</text>
</a>
</g>
<!-- Node1&#45;&gt;Node7 -->
<g id="edge12" class="edge"><title>Node1&#45;&gt;Node7</title>
<path fill="none" stroke="midnightblue" d="M957.661,-72.616C907.951,-63.9575 836.685,-50.6982 775,-36 765.816,-33.8116 755.964,-31.1501 746.844,-28.5523"/>
<polygon fill="midnightblue" stroke="midnightblue" points="957.168,-76.0826 967.618,-74.339 958.362,-69.1851 957.168,-76.0826"/>
</g>
<!-- Node8 -->
<g id="node15" class="node"><title>Node8</title>
<a xlink:href="_ant-pluto_8cc.html" target="_top" xlink:title="Pluto generator forntend. ">
<polygon fill="white" stroke="black" points="784,-7.5 784,-28.5 880,-28.5 880,-7.5 784,-7.5"/>
<text text-anchor="middle" x="832" y="-15.5" font-family="Helvetica,sans-Serif" font-size="10.00">progs/Ant&#45;pluto.cc</text>
</a>
</g>
<!-- Node1&#45;&gt;Node8 -->
<g id="edge14" class="edge"><title>Node1&#45;&gt;Node8</title>
<path fill="none" stroke="midnightblue" d="M979.906,-69.1377C944.807,-57.0023 894.561,-39.6302 862.611,-28.5835"/>
<polygon fill="midnightblue" stroke="midnightblue" points="978.781,-72.4521 989.376,-72.412 981.069,-65.8364 978.781,-72.4521"/>
</g>
<!-- Node9 -->
<g id="node17" class="node"><title>Node9</title>
<a xlink:href="_ant-rawdump_8cc.html" target="_top" xlink:title="progs/Ant&#45;rawdump.cc">
<polygon fill="white" stroke="black" points="897.5,-7.5 897.5,-28.5 1012.5,-28.5 1012.5,-7.5 897.5,-7.5"/>
<text text-anchor="middle" x="955" y="-15.5" font-family="Helvetica,sans-Serif" font-size="10.00">progs/Ant&#45;rawdump.cc</text>
</a>
</g>
<!-- Node1&#45;&gt;Node9 -->
<g id="edge16" class="edge"><title>Node1&#45;&gt;Node9</title>
<path fill="none" stroke="midnightblue" d="M1002.1,-65.0992C990.357,-53.3566 975.404,-38.4043 965.534,-28.5337"/>
<polygon fill="midnightblue" stroke="midnightblue" points="999.721,-67.6704 1009.27,-72.2666 1004.67,-62.7206 999.721,-67.6704"/>
</g>
<!-- Node10 -->
<g id="node19" class="node"><title>Node10</title>
<a xlink:href="_ant-tree_tool_8cc.html" target="_top" xlink:title="progs/Ant&#45;treeTool.cc">
<polygon fill="white" stroke="black" points="1030,-7.5 1030,-28.5 1140,-28.5 1140,-7.5 1030,-7.5"/>
<text text-anchor="middle" x="1085" y="-15.5" font-family="Helvetica,sans-Serif" font-size="10.00">progs/Ant&#45;treeTool.cc</text>
</a>
</g>
<!-- Node1&#45;&gt;Node10 -->
<g id="edge18" class="edge"><title>Node1&#45;&gt;Node10</title>
<path fill="none" stroke="midnightblue" d="M1037.9,-65.0992C1049.64,-53.3566 1064.6,-38.4043 1074.47,-28.5337"/>
<polygon fill="midnightblue" stroke="midnightblue" points="1035.33,-62.7206 1030.73,-72.2666 1040.28,-67.6704 1035.33,-62.7206"/>
</g>
<!-- Node11 -->
<g id="node21" class="node"><title>Node11</title>
<a xlink:href="_ant_8cc.html" target="_top" xlink:title="Main Ant executable. ">
<polygon fill="white" stroke="black" points="1158,-7.5 1158,-28.5 1230,-28.5 1230,-7.5 1158,-7.5"/>
<text text-anchor="middle" x="1194" y="-15.5" font-family="Helvetica,sans-Serif" font-size="10.00">progs/Ant.cc</text>
</a>
</g>
<!-- Node1&#45;&gt;Node11 -->
<g id="edge20" class="edge"><title>Node1&#45;&gt;Node11</title>
<path fill="none" stroke="midnightblue" d="M1059.53,-68.9565C1085.12,-59.7771 1119.12,-47.4155 1149,-36 1155.13,-33.6576 1161.7,-31.0716 1167.88,-28.6078"/>
<polygon fill="midnightblue" stroke="midnightblue" points="1058.05,-65.7692 1049.81,-72.4342 1060.41,-72.3599 1058.05,-65.7692"/>
</g>
<!-- Node12 -->
<g id="node23" class="node"><title>Node12</title>
<a xlink:href="compare__ant__goat_8cc.html" target="_top" xlink:title="progs/compare_ant_goat.cc">
<polygon fill="white" stroke="black" points="1247.5,-7.5 1247.5,-28.5 1384.5,-28.5 1384.5,-7.5 1247.5,-7.5"/>
<text text-anchor="middle" x="1316" y="-15.5" font-family="Helvetica,sans-Serif" font-size="10.00">progs/compare_ant_goat.cc</text>
</a>
</g>
<!-- Node1&#45;&gt;Node12 -->
<g id="edge22" class="edge"><title>Node1&#45;&gt;Node12</title>
<path fill="none" stroke="midnightblue" d="M1080.47,-70.3317C1124.48,-61.0363 1185.49,-47.9949 1239,-36 1249.58,-33.6277 1260.97,-31.0053 1271.65,-28.5133"/>
<polygon fill="midnightblue" stroke="midnightblue" points="1079.57,-66.9447 1070.51,-72.4334 1081.01,-73.794 1079.57,-66.9447"/>
</g>
<!-- Node13 -->
<g id="node25" class="node"><title>Node13</title>
<a xlink:href="_etap_omega_g__plot_8cc.html" target="_top" xlink:title="progs/EtapOmegaG_plot.cc">
<polygon fill="white" stroke="black" points="1401.5,-7.5 1401.5,-28.5 1538.5,-28.5 1538.5,-7.5 1401.5,-7.5"/>
<text text-anchor="middle" x="1470" y="-15.5" font-family="Helvetica,sans-Serif" font-size="10.00">progs/EtapOmegaG_plot.cc</text>
</a>
</g>
<!-- Node1&#45;&gt;Node13 -->
<g id="edge24" class="edge"><title>Node1&#45;&gt;Node13</title>
<path fill="none" stroke="midnightblue" d="M1082.27,-77.1593C1156.58,-69.7285 1284.4,-55.4814 1393,-36 1404.62,-33.9154 1417.12,-31.2 1428.6,-28.5129"/>
<polygon fill="midnightblue" stroke="midnightblue" points="1081.76,-73.6931 1072.15,-78.1624 1082.45,-80.659 1081.76,-73.6931"/>
</g>
<!-- Node14 -->
<g id="node27" class="node"><title>Node14</title>
<a xlink:href="_omega_eta_g2__plot_8cc.html" target="_top" xlink:title="Plotting tool for TTrees from the ant::analysis::physics::OmegaEtaG2 physics class. ">
<polygon fill="white" stroke="black" points="1555.5,-7.5 1555.5,-28.5 1692.5,-28.5 1692.5,-7.5 1555.5,-7.5"/>
<text text-anchor="middle" x="1624" y="-15.5" font-family="Helvetica,sans-Serif" font-size="10.00">progs/OmegaEtaG2_plot.cc</text>
</a>
</g>
<!-- Node1&#45;&gt;Node14 -->
<g id="edge26" class="edge"><title>Node1&#45;&gt;Node14</title>
<path fill="none" stroke="midnightblue" d="M1082.42,-80.2796C1181.43,-75.3262 1380.35,-62.7729 1547,-36 1559.06,-34.0619 1572.05,-31.2958 1583.85,-28.5117"/>
<polygon fill="midnightblue" stroke="midnightblue" points="1082.1,-76.7907 1072.29,-80.7772 1082.45,-83.7823 1082.1,-76.7907"/>
</g>
<!-- Node15 -->
<g id="node29" class="node"><title>Node15</title>
<a xlink:href="process_etap_tree_8cc.html" target="_top" xlink:title="progs/processEtapTree.cc">
<polygon fill="white" stroke="black" points="1709.5,-7.5 1709.5,-28.5 1840.5,-28.5 1840.5,-7.5 1709.5,-7.5"/>
<text text-anchor="middle" x="1775" y="-15.5" font-family="Helvetica,sans-Serif" font-size="10.00">progs/processEtapTree.cc</text>
</a>
</g>
<!-- Node1&#45;&gt;Node15 -->
<g id="edge28" class="edge"><title>Node1&#45;&gt;Node15</title>
<path fill="none" stroke="midnightblue" d="M1082.14,-82.2304C1202.35,-79.9661 1474.83,-71.052 1701,-36 1712.76,-34.1775 1725.4,-31.4118 1736.84,-28.5912"/>
<polygon fill="midnightblue" stroke="midnightblue" points="1081.95,-78.7331 1072.02,-82.412 1082.08,-85.7319 1081.95,-78.7331"/>
</g>
<!-- Node16 -->
<g id="node31" class="node"><title>Node16</title>
<a xlink:href="show__cocktail__database_8cc.html" target="_top" xlink:title="progs/show_cocktail\l_database.cc">
<polygon fill="white" stroke="black" points="1858,-1 1858,-35 1964,-35 1964,-1 1858,-1"/>
<text text-anchor="start" x="1866" y="-22" font-family="Helvetica,sans-Serif" font-size="10.00">progs/show_cocktail</text>
<text text-anchor="middle" x="1911" y="-9" font-family="Helvetica,sans-Serif" font-size="10.00">_database.cc</text>
</a>
</g>
<!-- Node1&#45;&gt;Node16 -->
<g id="edge30" class="edge"><title>Node1&#45;&gt;Node16</title>
<path fill="none" stroke="midnightblue" d="M1082.34,-81.29C1248.91,-76.4296 1701.65,-61.232 1849,-36 1851.87,-35.5081 1854.8,-34.9305 1857.74,-34.2896"/>
<polygon fill="midnightblue" stroke="midnightblue" points="1082.15,-77.7938 1072.26,-81.5817 1082.36,-84.7909 1082.15,-77.7938"/>
</g>
<!-- Node17 -->
<g id="node33" class="node"><title>Node17</title>
<a xlink:href="_xmas_c_b_8cc.html" target="_top" xlink:title="progs/XmasCB.cc">
<polygon fill="white" stroke="black" points="1981.5,-7.5 1981.5,-28.5 2078.5,-28.5 2078.5,-7.5 1981.5,-7.5"/>
<text text-anchor="middle" x="2030" y="-15.5" font-family="Helvetica,sans-Serif" font-size="10.00">progs/XmasCB.cc</text>
</a>
</g>
<!-- Node1&#45;&gt;Node17 -->
<g id="edge32" class="edge"><title>Node1&#45;&gt;Node17</title>
<path fill="none" stroke="midnightblue" d="M1082.01,-82.016C1265.06,-78.7832 1800.98,-66.8729 1973,-36 1982.5,-34.2952 1992.62,-31.4535 2001.66,-28.5259"/>
<polygon fill="midnightblue" stroke="midnightblue" points="1081.95,-78.5164 1072.02,-82.1901 1082.08,-85.5153 1081.95,-78.5164"/>
</g>
</g>
</svg>
