<?xml version="1.0" encoding="UTF-8" standalone="no"?>
<!DOCTYPE svg PUBLIC "-//W3C//DTD SVG 1.1//EN"
 "http://www.w3.org/Graphics/SVG/1.1/DTD/svg11.dtd">
<!-- Generated by graphviz version 2.26.3 (20100126.1600)
 -->
<!-- Title: src/analysis/input/DataReader.h Pages: 1 -->
<svg width="1110pt" height="188pt"
 viewBox="0.00 0.00 1110.00 188.00" xmlns="http://www.w3.org/2000/svg" xmlns:xlink="http://www.w3.org/1999/xlink">
<g id="graph1" class="graph" transform="scale(1 1) rotate(0) translate(4 184)">
<title>src/analysis/input/DataReader.h</title>
<polygon fill="white" stroke="white" points="-4,5 -4,-184 1107,-184 1107,5 -4,5"/>
<!-- Node1 -->
<g id="node1" class="node"><title>Node1</title>
<polygon fill="#bfbfbf" stroke="black" points="703.5,-145 703.5,-179 796.5,-179 796.5,-145 703.5,-145"/>
<text text-anchor="start" x="711.5" y="-166" font-family="Helvetica,sans-Serif" font-size="10.00">src/analysis/input</text>
<text text-anchor="middle" x="750" y="-153" font-family="Helvetica,sans-Serif" font-size="10.00">/DataReader.h</text>
</g>
<!-- Node2 -->
<g id="node3" class="node"><title>Node2</title>
<a xlink:href="_ant_8cc.html" target="_top" xlink:title="Main Ant executable. ">
<polygon fill="white" stroke="black" points="728,-7.5 728,-28.5 800,-28.5 800,-7.5 728,-7.5"/>
<text text-anchor="middle" x="764" y="-15.5" font-family="Helvetica,sans-Serif" font-size="10.00">progs/Ant.cc</text>
</a>
</g>
<!-- Node1&#45;&gt;Node2 -->
<g id="edge2" class="edge"><title>Node1&#45;&gt;Node2</title>
<path fill="none" stroke="midnightblue" d="M752.64,-134.842C755.767,-102.682 760.821,-50.6937 762.975,-28.5413"/>
<polygon fill="midnightblue" stroke="midnightblue" points="749.145,-134.624 751.661,-144.916 756.112,-135.301 749.145,-134.624"/>
</g>
<!-- Node3 -->
<g id="node5" class="node"><title>Node3</title>
<a xlink:href="_ant_reader_8h.html" target="_top" xlink:title="src/analysis/input\l/ant/AntReader.h">
<polygon fill="white" stroke="black" points="392.5,-73 392.5,-107 485.5,-107 485.5,-73 392.5,-73"/>
<text text-anchor="start" x="400.5" y="-94" font-family="Helvetica,sans-Serif" font-size="10.00">src/analysis/input</text>
<text text-anchor="middle" x="439" y="-81" font-family="Helvetica,sans-Serif" font-size="10.00">/ant/AntReader.h</text>
</a>
</g>
<!-- Node1&#45;&gt;Node3 -->
<g id="edge4" class="edge"><title>Node1&#45;&gt;Node3</title>
<path fill="none" stroke="midnightblue" d="M693.447,-148.907C633.873,-135.115 541.156,-113.65 485.624,-100.794"/>
<polygon fill="midnightblue" stroke="midnightblue" points="692.908,-152.375 703.44,-151.221 694.487,-145.556 692.908,-152.375"/>
</g>
<!-- Node8 -->
<g id="node16" class="node"><title>Node8</title>
<a xlink:href="_goat_reader_8h.html" target="_top" xlink:title="src/analysis/input\l/goat/GoatReader.h">
<polygon fill="white" stroke="black" points="778,-73 778,-107 880,-107 880,-73 778,-73"/>
<text text-anchor="start" x="786" y="-94" font-family="Helvetica,sans-Serif" font-size="10.00">src/analysis/input</text>
<text text-anchor="middle" x="829" y="-81" font-family="Helvetica,sans-Serif" font-size="10.00">/goat/GoatReader.h</text>
</a>
</g>
<!-- Node1&#45;&gt;Node8 -->
<g id="edge16" class="edge"><title>Node1&#45;&gt;Node8</title>
<path fill="none" stroke="midnightblue" d="M776.434,-137.908C787.477,-127.844 800.055,-116.38 810.139,-107.19"/>
<polygon fill="midnightblue" stroke="midnightblue" points="773.755,-135.614 768.722,-144.937 778.47,-140.788 773.755,-135.614"/>
</g>
<!-- Node11 -->
<g id="node23" class="node"><title>Node11</title>
<a xlink:href="_pluto_reader_8h.html" target="_top" xlink:title="src/analysis/input\l/pluto/PlutoReader.h">
<polygon fill="white" stroke="black" points="602,-73 602,-107 708,-107 708,-73 602,-73"/>
<text text-anchor="start" x="610" y="-94" font-family="Helvetica,sans-Serif" font-size="10.00">src/analysis/input</text>
<text text-anchor="middle" x="655" y="-81" font-family="Helvetica,sans-Serif" font-size="10.00">/pluto/PlutoReader.h</text>
</a>
</g>
<!-- Node1&#45;&gt;Node11 -->
<g id="edge24" class="edge"><title>Node1&#45;&gt;Node11</title>
<path fill="none" stroke="midnightblue" d="M719.368,-138.784C705.816,-128.514 690.16,-116.648 677.681,-107.19"/>
<polygon fill="midnightblue" stroke="midnightblue" points="717.403,-141.686 727.486,-144.937 721.631,-136.107 717.403,-141.686"/>
</g>
<!-- Node13 -->
<g id="node30" class="node"><title>Node13</title>
<a xlink:href="_physics_manager_8cc.html" target="_top" xlink:title="src/analysis/physics\l/PhysicsManager.cc">
<polygon fill="white" stroke="black" points="898,-73 898,-107 1004,-107 1004,-73 898,-73"/>
<text text-anchor="start" x="906" y="-94" font-family="Helvetica,sans-Serif" font-size="10.00">src/analysis/physics</text>
<text text-anchor="middle" x="951" y="-81" font-family="Helvetica,sans-Serif" font-size="10.00">/PhysicsManager.cc</text>
</a>
</g>
<!-- Node1&#45;&gt;Node13 -->
<g id="edge34" class="edge"><title>Node1&#45;&gt;Node13</title>
<path fill="none" stroke="midnightblue" d="M806.273,-141.842C836.804,-130.906 874.137,-117.533 903.238,-107.109"/>
<polygon fill="midnightblue" stroke="midnightblue" points="804.853,-138.633 796.619,-145.301 807.213,-145.223 804.853,-138.633"/>
</g>
<!-- Node3&#45;&gt;Node2 -->
<g id="edge6" class="edge"><title>Node3&#45;&gt;Node2</title>
<path fill="none" stroke="midnightblue" d="M495.637,-82.3099C552.735,-73.8065 643.043,-58.2957 719,-36 725.943,-33.9619 733.3,-31.2618 740.009,-28.5744"/>
<polygon fill="midnightblue" stroke="midnightblue" points="495.107,-78.8501 485.722,-83.7658 496.124,-85.7759 495.107,-78.8501"/>
</g>
<!-- Node4 -->
<g id="node8" class="node"><title>Node4</title>
<a xlink:href="_ant_reader_8cc.html" target="_top" xlink:title="src/analysis/input\l/ant/AntReader.cc">
<polygon fill="white" stroke="black" points="0,-1 0,-35 96,-35 96,-1 0,-1"/>
<text text-anchor="start" x="8" y="-22" font-family="Helvetica,sans-Serif" font-size="10.00">src/analysis/input</text>
<text text-anchor="middle" x="48" y="-9" font-family="Helvetica,sans-Serif" font-size="10.00">/ant/AntReader.cc</text>
</a>
</g>
<!-- Node3&#45;&gt;Node4 -->
<g id="edge8" class="edge"><title>Node3&#45;&gt;Node4</title>
<path fill="none" stroke="midnightblue" d="M382.066,-83.3617C315.188,-74.9742 201.155,-58.8272 105,-36 102.072,-35.3049 99.0757,-34.5362 96.0645,-33.7197"/>
<polygon fill="midnightblue" stroke="midnightblue" points="382.03,-86.8839 392.385,-84.641 382.892,-79.9371 382.03,-86.8839"/>
</g>
<!-- Node5 -->
<g id="node10" class="node"><title>Node5</title>
<a xlink:href="_test_ant_reader_8cc.html" target="_top" xlink:title="test/analysis/TestAntReader.cc">
<polygon fill="white" stroke="black" points="113.5,-7.5 113.5,-28.5 268.5,-28.5 268.5,-7.5 113.5,-7.5"/>
<text text-anchor="middle" x="191" y="-15.5" font-family="Helvetica,sans-Serif" font-size="10.00">test/analysis/TestAntReader.cc</text>
</a>
</g>
<!-- Node3&#45;&gt;Node5 -->
<g id="edge10" class="edge"><title>Node3&#45;&gt;Node5</title>
<path fill="none" stroke="midnightblue" d="M382.499,-73.5965C334.886,-59.7732 268.175,-40.4057 227.366,-28.558"/>
<polygon fill="midnightblue" stroke="midnightblue" points="381.774,-77.0304 392.353,-76.4574 383.725,-70.308 381.774,-77.0304"/>
</g>
<!-- Node6 -->
<g id="node12" class="node"><title>Node6</title>
<a xlink:href="_test_physics_manager_8cc.html" target="_top" xlink:title="test/analysis/TestPhysics\lManager.cc">
<polygon fill="white" stroke="black" points="452,-1 452,-35 582,-35 582,-1 452,-1"/>
<text text-anchor="start" x="460" y="-22" font-family="Helvetica,sans-Serif" font-size="10.00">test/analysis/TestPhysics</text>
<text text-anchor="middle" x="517" y="-9" font-family="Helvetica,sans-Serif" font-size="10.00">Manager.cc</text>
</a>
</g>
<!-- Node3&#45;&gt;Node6 -->
<g id="edge12" class="edge"><title>Node3&#45;&gt;Node6</title>
<path fill="none" stroke="midnightblue" d="M465.099,-65.9083C476.003,-55.8438 488.422,-44.3799 498.377,-35.19"/>
<polygon fill="midnightblue" stroke="midnightblue" points="462.459,-63.5824 457.485,-72.937 467.207,-68.726 462.459,-63.5824"/>
</g>
<!-- Node7 -->
<g id="node14" class="node"><title>Node7</title>
<a xlink:href="_test_slow_control_manager_8cc.html" target="_top" xlink:title="test/analysis/TestSlowControl\lManager.cc">
<polygon fill="white" stroke="black" points="286,-1 286,-35 434,-35 434,-1 286,-1"/>
<text text-anchor="start" x="294" y="-22" font-family="Helvetica,sans-Serif" font-size="10.00">test/analysis/TestSlowControl</text>
<text text-anchor="middle" x="360" y="-9" font-family="Helvetica,sans-Serif" font-size="10.00">Manager.cc</text>
</a>
</g>
<!-- Node3&#45;&gt;Node7 -->
<g id="edge14" class="edge"><title>Node3&#45;&gt;Node7</title>
<path fill="none" stroke="midnightblue" d="M412.566,-65.9083C401.523,-55.8438 388.945,-44.3799 378.861,-35.19"/>
<polygon fill="midnightblue" stroke="midnightblue" points="410.53,-68.7878 420.278,-72.937 415.245,-63.6141 410.53,-68.7878"/>
</g>
<!-- Node8&#45;&gt;Node2 -->
<g id="edge18" class="edge"><title>Node8&#45;&gt;Node2</title>
<path fill="none" stroke="midnightblue" d="M806.578,-65.1634C795.417,-52.8001 782.496,-38.4874 773.841,-28.901"/>
<polygon fill="midnightblue" stroke="midnightblue" points="804.297,-67.8597 813.596,-72.937 809.493,-63.1689 804.297,-67.8597"/>
</g>
<!-- Node9 -->
<g id="node19" class="node"><title>Node9</title>
<a xlink:href="_goat_reader_8cc.html" target="_top" xlink:title="src/analysis/input\l/goat/GoatReader.cc">
<polygon fill="white" stroke="black" points="817.5,-1 817.5,-35 924.5,-35 924.5,-1 817.5,-1"/>
<text text-anchor="start" x="825.5" y="-22" font-family="Helvetica,sans-Serif" font-size="10.00">src/analysis/input</text>
<text text-anchor="middle" x="871" y="-9" font-family="Helvetica,sans-Serif" font-size="10.00">/goat/GoatReader.cc</text>
</a>
</g>
<!-- Node8&#45;&gt;Node9 -->
<g id="edge20" class="edge"><title>Node8&#45;&gt;Node9</title>
<path fill="none" stroke="midnightblue" d="M844.048,-64.2033C849.616,-54.6583 855.792,-44.0703 860.826,-35.4407"/>
<polygon fill="midnightblue" stroke="midnightblue" points="840.969,-62.5356 838.953,-72.937 847.015,-66.0628 840.969,-62.5356"/>
</g>
<!-- Node10 -->
<g id="node21" class="node"><title>Node10</title>
<a xlink:href="_test_goat_reader_8cc.html" target="_top" xlink:title="test/analysis/TestGoatReader.cc">
<polygon fill="white" stroke="black" points="941.5,-7.5 941.5,-28.5 1102.5,-28.5 1102.5,-7.5 941.5,-7.5"/>
<text text-anchor="middle" x="1022" y="-15.5" font-family="Helvetica,sans-Serif" font-size="10.00">test/analysis/TestGoatReader.cc</text>
</a>
</g>
<!-- Node8&#45;&gt;Node10 -->
<g id="edge22" class="edge"><title>Node8&#45;&gt;Node10</title>
<path fill="none" stroke="midnightblue" d="M884.536,-69.2818C920.212,-55.9729 965.059,-39.2423 993.634,-28.5821"/>
<polygon fill="midnightblue" stroke="midnightblue" points="882.884,-66.1624 874.738,-72.937 885.331,-72.7209 882.884,-66.1624"/>
</g>
<!-- Node11&#45;&gt;Node2 -->
<g id="edge26" class="edge"><title>Node11&#45;&gt;Node2</title>
<path fill="none" stroke="midnightblue" d="M689.213,-67.4006C708.785,-54.4723 732.429,-38.8544 747.819,-28.688"/>
<polygon fill="midnightblue" stroke="midnightblue" points="687.246,-64.5049 680.831,-72.937 691.105,-70.3457 687.246,-64.5049"/>
</g>
<!-- Node11&#45;&gt;Node6 -->
<g id="edge30" class="edge"><title>Node11&#45;&gt;Node6</title>
<path fill="none" stroke="midnightblue" d="M613.267,-68.2264C592.973,-57.6383 568.929,-45.0936 549.948,-35.19"/>
<polygon fill="midnightblue" stroke="midnightblue" points="611.811,-71.4143 622.296,-72.937 615.049,-65.2082 611.811,-71.4143"/>
</g>
<!-- Node11&#45;&gt;Node7 -->
<g id="edge32" class="edge"><title>Node11&#45;&gt;Node7</title>
<path fill="none" stroke="midnightblue" d="M592.042,-74.634C544.435,-63.0147 479.09,-47.066 429.871,-35.0534"/>
<polygon fill="midnightblue" stroke="midnightblue" points="591.374,-78.0737 601.919,-77.0447 593.034,-71.2733 591.374,-78.0737"/>
</g>
<!-- Node12 -->
<g id="node26" class="node"><title>Node12</title>
<a xlink:href="_pluto_reader_8cc.html" target="_top" xlink:title="src/analysis/input\l/pluto/PlutoReader.cc">
<polygon fill="white" stroke="black" points="599.5,-1 599.5,-35 710.5,-35 710.5,-1 599.5,-1"/>
<text text-anchor="start" x="607.5" y="-22" font-family="Helvetica,sans-Serif" font-size="10.00">src/analysis/input</text>
<text text-anchor="middle" x="655" y="-9" font-family="Helvetica,sans-Serif" font-size="10.00">/pluto/PlutoReader.cc</text>
</a>
</g>
<!-- Node11&#45;&gt;Node12 -->
<g id="edge28" class="edge"><title>Node11&#45;&gt;Node12</title>
<path fill="none" stroke="midnightblue" d="M655,-62.7193C655,-53.572 655,-43.6255 655,-35.4407"/>
<polygon fill="midnightblue" stroke="midnightblue" points="651.5,-62.937 655,-72.937 658.5,-62.937 651.5,-62.937"/>
</g>
</g>
</svg>
