<?xml version="1.0" encoding="UTF-8" standalone="no"?>
<!DOCTYPE svg PUBLIC "-//W3C//DTD SVG 1.1//EN"
 "http://www.w3.org/Graphics/SVG/1.1/DTD/svg11.dtd">
<!-- Generated by graphviz version 2.26.3 (20100126.1600)
 -->
<!-- Title: src/calibration/DataBase.h Pages: 1 -->
<svg width="600pt" height="102pt"
 viewBox="0.00 0.00 600.00 102.00" xmlns="http://www.w3.org/2000/svg" xmlns:xlink="http://www.w3.org/1999/xlink">
<g id="graph1" class="graph" transform="scale(1 1) rotate(0) translate(4 98)">
<title>src/calibration/DataBase.h</title>
<polygon fill="white" stroke="white" points="-4,5 -4,-98 597,-98 597,5 -4,5"/>
<!-- Node1 -->
<g id="node1" class="node"><title>Node1</title>
<polygon fill="#bfbfbf" stroke="black" points="227,-72.5 227,-93.5 359,-93.5 359,-72.5 227,-72.5"/>
<text text-anchor="middle" x="293" y="-80.5" font-family="Helvetica,sans-Serif" font-size="10.00">src/calibration/DataBase.h</text>
</g>
<!-- Node2 -->
<g id="node3" class="node"><title>Node2</title>
<a xlink:href="_ant-calib-viewer_8cc.html" target="_top" xlink:title="progs/Ant&#45;calib&#45;viewer.cc">
<polygon fill="white" stroke="black" points="-0.5,-7.5 -0.5,-28.5 126.5,-28.5 126.5,-7.5 -0.5,-7.5"/>
<text text-anchor="middle" x="63" y="-15.5" font-family="Helvetica,sans-Serif" font-size="10.00">progs/Ant&#45;calib&#45;viewer.cc</text>
</a>
</g>
<!-- Node1&#45;&gt;Node2 -->
<g id="edge2" class="edge"><title>Node1&#45;&gt;Node2</title>
<path fill="none" stroke="midnightblue" d="M246.098,-69.745C202.975,-57.558 139.884,-39.7281 100.156,-28.5005"/>
<polygon fill="midnightblue" stroke="midnightblue" points="245.216,-73.1328 255.791,-72.4844 247.12,-66.3967 245.216,-73.1328"/>
</g>
<!-- Node3 -->
<g id="node5" class="node"><title>Node3</title>
<a xlink:href="_data_base_8cc.html" target="_top" xlink:title="src/calibration/DataBase.cc">
<polygon fill="white" stroke="black" points="143.5,-7.5 143.5,-28.5 280.5,-28.5 280.5,-7.5 143.5,-7.5"/>
<text text-anchor="middle" x="212" y="-15.5" font-family="Helvetica,sans-Serif" font-size="10.00">src/calibration/DataBase.cc</text>
</a>
</g>
<!-- Node1&#45;&gt;Node3 -->
<g id="edge4" class="edge"><title>Node1&#45;&gt;Node3</title>
<path fill="none" stroke="midnightblue" d="M271.525,-65.7667C256.772,-53.9281 237.661,-38.5923 225.127,-28.5337"/>
<polygon fill="midnightblue" stroke="midnightblue" points="269.635,-68.7376 279.624,-72.2666 274.016,-63.2781 269.635,-68.7376"/>
</g>
<!-- Node4 -->
<g id="node7" class="node"><title>Node4</title>
<a xlink:href="_data_manager_8cc.html" target="_top" xlink:title="src/calibration/DataManager.cc">
<polygon fill="white" stroke="black" points="298,-7.5 298,-28.5 450,-28.5 450,-7.5 298,-7.5"/>
<text text-anchor="middle" x="374" y="-15.5" font-family="Helvetica,sans-Serif" font-size="10.00">src/calibration/DataManager.cc</text>
</a>
</g>
<!-- Node1&#45;&gt;Node4 -->
<g id="edge6" class="edge"><title>Node1&#45;&gt;Node4</title>
<path fill="none" stroke="midnightblue" d="M314.475,-65.7667C329.228,-53.9281 348.339,-38.5923 360.873,-28.5337"/>
<polygon fill="midnightblue" stroke="midnightblue" points="311.984,-63.2781 306.376,-72.2666 316.365,-68.7376 311.984,-63.2781"/>
</g>
<!-- Node5 -->
<g id="node9" class="node"><title>Node5</title>
<a xlink:href="_test_data_manager_8cc.html" target="_top" xlink:title="test/calibration/TestData\lManager.cc">
<polygon fill="white" stroke="black" points="468,-1 468,-35 592,-35 592,-1 468,-1"/>
<text text-anchor="start" x="476" y="-22" font-family="Helvetica,sans-Serif" font-size="10.00">test/calibration/TestData</text>
<text text-anchor="middle" x="530" y="-9" font-family="Helvetica,sans-Serif" font-size="10.00">Manager.cc</text>
</a>
</g>
<!-- Node1&#45;&gt;Node5 -->
<g id="edge8" class="edge"><title>Node1&#45;&gt;Node5</title>
<path fill="none" stroke="midnightblue" d="M341.242,-69.769C377.726,-59.763 428.116,-45.943 467.655,-35.0987"/>
<polygon fill="midnightblue" stroke="midnightblue" points="340.06,-66.464 331.342,-72.4844 341.911,-73.2147 340.06,-66.464"/>
</g>
</g>
</svg>
