<?xml version="1.0" encoding="UTF-8" standalone="no"?>
<!DOCTYPE svg PUBLIC "-//W3C//DTD SVG 1.1//EN"
 "http://www.w3.org/Graphics/SVG/1.1/DTD/svg11.dtd">
<!-- Generated by graphviz version 2.26.3 (20100126.1600)
 -->
<!-- Title: src/calibration/DataManager.h Pages: 1 -->
<svg width="2064pt" height="420pt"
 viewBox="0.00 0.00 2064.00 420.00" xmlns="http://www.w3.org/2000/svg" xmlns:xlink="http://www.w3.org/1999/xlink">
<g id="graph1" class="graph" transform="scale(1 1) rotate(0) translate(4 416)">
<title>src/calibration/DataManager.h</title>
<polygon fill="white" stroke="white" points="-4,5 -4,-416 2061,-416 2061,5 -4,5"/>
<!-- Node1 -->
<g id="node1" class="node"><title>Node1</title>
<polygon fill="#bfbfbf" stroke="black" points="1456.5,-390.5 1456.5,-411.5 1603.5,-411.5 1603.5,-390.5 1456.5,-390.5"/>
<text text-anchor="middle" x="1530" y="-398.5" font-family="Helvetica,sans-Serif" font-size="10.00">src/calibration/DataManager.h</text>
</g>
<!-- Node2 -->
<g id="node3" class="node"><title>Node2</title>
<a xlink:href="_calibration_8h.html" target="_top" xlink:title="Calibration.h">
<polygon fill="white" stroke="black" points="1006.5,-332.5 1006.5,-353.5 1077.5,-353.5 1077.5,-332.5 1006.5,-332.5"/>
<text text-anchor="middle" x="1042" y="-340.5" font-family="Helvetica,sans-Serif" font-size="10.00">Calibration.h</text>
</a>
</g>
<!-- Node1&#45;&gt;Node2 -->
<g id="edge2" class="edge"><title>Node1&#45;&gt;Node2</title>
<path fill="none" stroke="midnightblue" d="M1456.41,-392.254C1354.17,-380.102 1172.2,-358.474 1087.59,-348.419"/>
<polygon fill="midnightblue" stroke="midnightblue" points="1087.87,-344.927 1077.53,-347.222 1087.04,-351.878 1087.87,-344.927"/>
</g>
<!-- Node13 -->
<g id="node27" class="node"><title>Node13</title>
<polygon fill="white" stroke="#bfbfbf" points="1791.5,-0.5 1791.5,-21.5 1832.5,-21.5 1832.5,-0.5 1791.5,-0.5"/>
<text text-anchor="middle" x="1812" y="-8.5" font-family="Helvetica,sans-Serif" font-size="10.00">string</text>
</g>
<!-- Node1&#45;&gt;Node13 -->
<g id="edge162" class="edge"><title>Node1&#45;&gt;Node13</title>
<path fill="none" stroke="midnightblue" d="M1603.69,-399.021C1748.45,-393.122 2056,-369.79 2056,-278 2056,-278 2056,-278 2056,-134 2056,-96.0345 2046.97,-81.3081 2017,-58 1990.02,-37.0196 1892.9,-21.5924 1842.63,-14.8145"/>
<polygon fill="midnightblue" stroke="midnightblue" points="1843.03,-11.3368 1832.65,-13.5006 1842.11,-18.2768 1843.03,-11.3368"/>
</g>
<!-- Node17 -->
<g id="node36" class="node"><title>Node17</title>
<polygon fill="white" stroke="#bfbfbf" points="126,-58.5 126,-79.5 178,-79.5 178,-58.5 126,-58.5"/>
<text text-anchor="middle" x="152" y="-66.5" font-family="Helvetica,sans-Serif" font-size="10.00">memory</text>
</g>
<!-- Node1&#45;&gt;Node17 -->
<g id="edge164" class="edge"><title>Node1&#45;&gt;Node17</title>
<path fill="none" stroke="midnightblue" d="M1456.46,-398.988C1151.23,-390.162 0,-351.97 0,-278 0,-278 0,-278 0,-206 0,-143.612 71.5292,-102.349 116.45,-82.5868"/>
<polygon fill="midnightblue" stroke="midnightblue" points="118.036,-85.7162 125.87,-78.5841 115.298,-79.2737 118.036,-85.7162"/>
</g>
<!-- Node18 -->
<g id="node38" class="node"><title>Node18</title>
<polygon fill="white" stroke="#bfbfbf" points="1839.5,-58.5 1839.5,-79.5 1868.5,-79.5 1868.5,-58.5 1839.5,-58.5"/>
<text text-anchor="middle" x="1854" y="-66.5" font-family="Helvetica,sans-Serif" font-size="10.00">list</text>
</g>
<!-- Node1&#45;&gt;Node18 -->
<g id="edge160" class="edge"><title>Node1&#45;&gt;Node18</title>
<path fill="none" stroke="midnightblue" d="M1603.59,-397.67C1739.91,-389.478 2018,-362.423 2018,-278 2018,-278 2018,-278 2018,-206 2018,-169.805 1922.73,-109.197 1877.41,-82.4175"/>
<polygon fill="midnightblue" stroke="midnightblue" points="1878.95,-79.2638 1868.55,-77.2375 1875.42,-85.3066 1878.95,-79.2638"/>
</g>
<!-- Node3 -->
<g id="node5" class="node"><title>Node3</title>
<a xlink:href="_reconstruct__traits_8h.html" target="_top" xlink:title="reconstruct/Reconstruct\l_traits.h">
<polygon fill="white" stroke="black" points="527,-261 527,-295 649,-295 649,-261 527,-261"/>
<text text-anchor="start" x="535" y="-282" font-family="Helvetica,sans-Serif" font-size="10.00">reconstruct/Reconstruct</text>
<text text-anchor="middle" x="588" y="-269" font-family="Helvetica,sans-Serif" font-size="10.00">_traits.h</text>
</a>
</g>
<!-- Node2&#45;&gt;Node3 -->
<g id="edge4" class="edge"><title>Node2&#45;&gt;Node3</title>
<path fill="none" stroke="midnightblue" d="M1006.38,-337.9C931.777,-327.219 757.912,-302.327 659.403,-288.223"/>
<polygon fill="midnightblue" stroke="midnightblue" points="659.631,-284.72 649.236,-286.767 658.639,-291.649 659.631,-284.72"/>
</g>
<!-- Node6 -->
<g id="node11" class="node"><title>Node6</title>
<polygon fill="white" stroke="#bfbfbf" points="443,-0.5 443,-21.5 487,-21.5 487,-0.5 443,-0.5"/>
<text text-anchor="middle" x="465" y="-8.5" font-family="Helvetica,sans-Serif" font-size="10.00">vector</text>
</g>
<!-- Node2&#45;&gt;Node6 -->
<g id="edge158" class="edge"><title>Node2&#45;&gt;Node6</title>
<path fill="none" stroke="midnightblue" d="M1006.27,-341.968C827.415,-336.338 38,-305.835 38,-206 38,-206 38,-206 38,-134 38,-85.2791 73.1325,-79.1983 117,-58 131.182,-51.1467 349.314,-24.7221 432.819,-14.7967"/>
<polygon fill="midnightblue" stroke="midnightblue" points="433.477,-18.2433 442.995,-13.5897 432.652,-11.292 433.477,-18.2433"/>
</g>
<!-- Node23 -->
<g id="node56" class="node"><title>Node23</title>
<a xlink:href="_manager__traits_8h.html" target="_top" xlink:title="calibration/gui/Manager\l_traits.h">
<polygon fill="white" stroke="black" points="1437.5,-261 1437.5,-295 1554.5,-295 1554.5,-261 1437.5,-261"/>
<text text-anchor="start" x="1445.5" y="-282" font-family="Helvetica,sans-Serif" font-size="10.00">calibration/gui/Manager</text>
<text text-anchor="middle" x="1496" y="-269" font-family="Helvetica,sans-Serif" font-size="10.00">_traits.h</text>
</a>
</g>
<!-- Node2&#45;&gt;Node23 -->
<g id="edge66" class="edge"><title>Node2&#45;&gt;Node23</title>
<path fill="none" stroke="midnightblue" d="M1077.62,-337.9C1152.93,-327.118 1329.39,-301.854 1427.38,-287.825"/>
<polygon fill="midnightblue" stroke="midnightblue" points="1428.07,-291.261 1437.48,-286.379 1427.08,-284.332 1428.07,-291.261"/>
</g>
<!-- Node4 -->
<g id="node7" class="node"><title>Node4</title>
<a xlink:href="_detector__t_8h.html" target="_top" xlink:title="base/Detector_t.h">
<polygon fill="white" stroke="black" points="503.5,-195.5 503.5,-216.5 598.5,-216.5 598.5,-195.5 503.5,-195.5"/>
<text text-anchor="middle" x="551" y="-203.5" font-family="Helvetica,sans-Serif" font-size="10.00">base/Detector_t.h</text>
</a>
</g>
<!-- Node3&#45;&gt;Node4 -->
<g id="edge6" class="edge"><title>Node3&#45;&gt;Node4</title>
<path fill="none" stroke="midnightblue" d="M579.232,-260.937C573.865,-250.494 566.971,-237.079 561.339,-226.12"/>
<polygon fill="midnightblue" stroke="midnightblue" points="564.286,-224.196 556.602,-216.901 558.06,-227.395 564.286,-224.196"/>
</g>
<!-- Node15 -->
<g id="node32" class="node"><title>Node15</title>
<a xlink:href="mapped__vectors_8h.html" target="_top" xlink:title="base/std_ext/mapped\l_vectors.h">
<polygon fill="white" stroke="black" points="376,-189 376,-223 486,-223 486,-189 376,-189"/>
<text text-anchor="start" x="384" y="-210" font-family="Helvetica,sans-Serif" font-size="10.00">base/std_ext/mapped</text>
<text text-anchor="middle" x="431" y="-197" font-family="Helvetica,sans-Serif" font-size="10.00">_vectors.h</text>
</a>
</g>
<!-- Node3&#45;&gt;Node15 -->
<g id="edge34" class="edge"><title>Node3&#45;&gt;Node15</title>
<path fill="none" stroke="midnightblue" d="M550.793,-260.937C528.876,-250.886 500.956,-238.082 477.585,-227.364"/>
<polygon fill="midnightblue" stroke="midnightblue" points="478.76,-224.052 468.211,-223.065 475.842,-230.415 478.76,-224.052"/>
</g>
<!-- Node3&#45;&gt;Node17 -->
<g id="edge58" class="edge"><title>Node3&#45;&gt;Node17</title>
<path fill="none" stroke="midnightblue" d="M526.979,-275.788C401.397,-270.608 123.377,-255.655 95,-224 84.8467,-212.674 87.4197,-141.872 100,-116 105.862,-103.945 116.307,-93.562 126.306,-85.6443"/>
<polygon fill="midnightblue" stroke="midnightblue" points="128.532,-88.3515 134.49,-79.5907 124.369,-82.7239 128.532,-88.3515"/>
</g>
<!-- Node3&#45;&gt;Node18 -->
<g id="edge62" class="edge"><title>Node3&#45;&gt;Node18</title>
<path fill="none" stroke="midnightblue" d="M649.117,-275.099C792.91,-267 1162.76,-238.724 1458,-152 1495.02,-141.126 1499.93,-126.693 1537,-116 1652.05,-82.8168 1686.09,-100.882 1804,-80 1812.28,-78.5343 1821.26,-76.6505 1829.3,-74.8575"/>
<polygon fill="midnightblue" stroke="midnightblue" points="1830.22,-78.2377 1839.19,-72.5955 1828.66,-71.4141 1830.22,-78.2377"/>
</g>
<!-- Node19 -->
<g id="node43" class="node"><title>Node19</title>
<a xlink:href="shared__ptr__container_8h.html" target="_top" xlink:title="base/std_ext/shared\l_ptr_container.h">
<polygon fill="white" stroke="black" points="653.5,-117 653.5,-151 758.5,-151 758.5,-117 653.5,-117"/>
<text text-anchor="start" x="661.5" y="-138" font-family="Helvetica,sans-Serif" font-size="10.00">base/std_ext/shared</text>
<text text-anchor="middle" x="706" y="-125" font-family="Helvetica,sans-Serif" font-size="10.00">_ptr_container.h</text>
</a>
</g>
<!-- Node3&#45;&gt;Node19 -->
<g id="edge48" class="edge"><title>Node3&#45;&gt;Node19</title>
<path fill="none" stroke="midnightblue" d="M605.954,-260.559C616.272,-250.246 629.272,-236.746 640,-224 657.585,-203.107 675.812,-177.941 688.643,-159.539"/>
<polygon fill="midnightblue" stroke="midnightblue" points="691.673,-161.312 694.483,-151.097 685.916,-157.33 691.673,-161.312"/>
</g>
<!-- Node20 -->
<g id="node47" class="node"><title>Node20</title>
<polygon fill="white" stroke="#bfbfbf" points="712.5,-0.5 712.5,-21.5 771.5,-21.5 771.5,-0.5 712.5,-0.5"/>
<text text-anchor="middle" x="742" y="-8.5" font-family="Helvetica,sans-Serif" font-size="10.00">functional</text>
</g>
<!-- Node3&#45;&gt;Node20 -->
<g id="edge64" class="edge"><title>Node3&#45;&gt;Node20</title>
<path fill="none" stroke="midnightblue" d="M593.98,-260.996C608.586,-219.463 644.898,-116.215 645,-116 657.841,-88.7683 659.865,-80.3841 680,-58 690.438,-46.3966 704.084,-35.6928 715.916,-27.4404"/>
<polygon fill="midnightblue" stroke="midnightblue" points="718.193,-30.1263 724.527,-21.6333 714.279,-24.3226 718.193,-30.1263"/>
</g>
<!-- Node22 -->
<g id="node52" class="node"><title>Node22</title>
<polygon fill="white" stroke="#bfbfbf" points="103.5,-195.5 103.5,-216.5 138.5,-216.5 138.5,-195.5 103.5,-195.5"/>
<text text-anchor="middle" x="121" y="-203.5" font-family="Helvetica,sans-Serif" font-size="10.00">map</text>
</g>
<!-- Node3&#45;&gt;Node22 -->
<g id="edge60" class="edge"><title>Node3&#45;&gt;Node22</title>
<path fill="none" stroke="midnightblue" d="M526.849,-273.467C423.778,-265.321 220.042,-246.9 152,-224 149.843,-223.274 147.671,-222.389 145.53,-221.404"/>
<polygon fill="midnightblue" stroke="midnightblue" points="146.98,-218.211 136.503,-216.636 143.711,-224.401 146.98,-218.211"/>
</g>
<!-- Node5 -->
<g id="node9" class="node"><title>Node5</title>
<a xlink:href="printable_8h.html" target="_top" xlink:title="base/printable.h">
<polygon fill="white" stroke="black" points="512,-58.5 512,-79.5 598,-79.5 598,-58.5 512,-58.5"/>
<text text-anchor="middle" x="555" y="-66.5" font-family="Helvetica,sans-Serif" font-size="10.00">base/printable.h</text>
</a>
</g>
<!-- Node4&#45;&gt;Node5 -->
<g id="edge8" class="edge"><title>Node4&#45;&gt;Node5</title>
<path fill="none" stroke="midnightblue" d="M555.627,-195.498C560.069,-184.799 566.467,-167.607 569,-152 571.563,-136.207 571.308,-131.833 569,-116 567.687,-106.996 565.031,-97.3181 562.381,-89.0986"/>
<polygon fill="midnightblue" stroke="midnightblue" points="565.687,-87.9496 559.13,-79.6276 559.066,-90.2223 565.687,-87.9496"/>
</g>
<!-- Node4&#45;&gt;Node6 -->
<g id="edge32" class="edge"><title>Node4&#45;&gt;Node6</title>
<path fill="none" stroke="midnightblue" d="M533.303,-195.496C518.964,-186.002 499.479,-170.672 489,-152 467.435,-113.576 464.235,-60.6752 464.301,-31.8276"/>
<polygon fill="midnightblue" stroke="midnightblue" points="467.803,-31.7566 464.465,-21.7012 460.803,-31.6433 467.803,-31.7566"/>
</g>
<!-- Node8 -->
<g id="node15" class="node"><title>Node8</title>
<a xlink:href="vec3_8h.html" target="_top" xlink:title="base/vec/vec3.h">
<polygon fill="white" stroke="black" points="315.5,-123.5 315.5,-144.5 404.5,-144.5 404.5,-123.5 315.5,-123.5"/>
<text text-anchor="middle" x="360" y="-131.5" font-family="Helvetica,sans-Serif" font-size="10.00">base/vec/vec3.h</text>
</a>
</g>
<!-- Node4&#45;&gt;Node8 -->
<g id="edge14" class="edge"><title>Node4&#45;&gt;Node8</title>
<path fill="none" stroke="midnightblue" d="M522.817,-195.376C489.573,-182.844 434.184,-161.965 397.38,-148.091"/>
<polygon fill="midnightblue" stroke="midnightblue" points="398.579,-144.803 387.987,-144.55 396.11,-151.353 398.579,-144.803"/>
</g>
<!-- Node11 -->
<g id="node23" class="node"><title>Node11</title>
<polygon fill="white" stroke="#bfbfbf" points="1042,-123.5 1042,-144.5 1088,-144.5 1088,-123.5 1042,-123.5"/>
<text text-anchor="middle" x="1065" y="-131.5" font-family="Helvetica,sans-Serif" font-size="10.00">cstdint</text>
</g>
<!-- Node4&#45;&gt;Node11 -->
<g id="edge24" class="edge"><title>Node4&#45;&gt;Node11</title>
<path fill="none" stroke="midnightblue" d="M598.649,-200.689C676.23,-191.849 834.592,-173 968,-152 989.414,-148.629 1013.36,-144.192 1032.11,-140.566"/>
<polygon fill="midnightblue" stroke="midnightblue" points="1032.79,-143.999 1041.93,-138.648 1031.45,-137.129 1032.79,-143.999"/>
</g>
<!-- Node12 -->
<g id="node25" class="node"><title>Node12</title>
<polygon fill="white" stroke="#bfbfbf" points="957.5,-58.5 957.5,-79.5 1016.5,-79.5 1016.5,-58.5 957.5,-58.5"/>
<text text-anchor="middle" x="987" y="-66.5" font-family="Helvetica,sans-Serif" font-size="10.00">stdexcept</text>
</g>
<!-- Node4&#45;&gt;Node12 -->
<g id="edge26" class="edge"><title>Node4&#45;&gt;Node12</title>
<path fill="none" stroke="midnightblue" d="M598.662,-202.343C682.045,-195.348 850.523,-178.381 903,-152 933.022,-136.908 959.033,-107.119 973.863,-87.6389"/>
<polygon fill="midnightblue" stroke="midnightblue" points="976.745,-89.6286 979.865,-79.5035 971.111,-85.4731 976.745,-89.6286"/>
</g>
<!-- Node4&#45;&gt;Node13 -->
<g id="edge28" class="edge"><title>Node4&#45;&gt;Node13</title>
<path fill="none" stroke="midnightblue" d="M598.675,-204.753C769.552,-200.048 1345.26,-182.101 1422,-152 1445.52,-142.773 1442.72,-125.83 1466,-116 1596.22,-61.009 1668.37,-164.081 1782,-80 1797.44,-68.5734 1805.04,-47.5046 1808.71,-31.6426"/>
<polygon fill="midnightblue" stroke="midnightblue" points="1812.18,-32.1635 1810.68,-21.6756 1805.31,-30.8108 1812.18,-32.1635"/>
</g>
<!-- Node14 -->
<g id="node29" class="node"><title>Node14</title>
<polygon fill="white" stroke="#bfbfbf" points="498,-123.5 498,-144.5 560,-144.5 560,-123.5 498,-123.5"/>
<text text-anchor="middle" x="529" y="-131.5" font-family="Helvetica,sans-Serif" font-size="10.00">type_traits</text>
</g>
<!-- Node4&#45;&gt;Node14 -->
<g id="edge30" class="edge"><title>Node4&#45;&gt;Node14</title>
<path fill="none" stroke="midnightblue" d="M547.754,-195.376C544.472,-184.635 539.316,-167.761 535.24,-154.422"/>
<polygon fill="midnightblue" stroke="midnightblue" points="538.529,-153.208 532.259,-144.667 531.835,-155.254 538.529,-153.208"/>
</g>
<!-- Node5&#45;&gt;Node6 -->
<g id="edge10" class="edge"><title>Node5&#45;&gt;Node6</title>
<path fill="none" stroke="midnightblue" d="M538.493,-58.3619C524.918,-49.6138 505.467,-37.0786 489.985,-27.1015"/>
<polygon fill="midnightblue" stroke="midnightblue" points="491.704,-24.0457 481.403,-21.5707 487.912,-29.9297 491.704,-24.0457"/>
</g>
<!-- Node7 -->
<g id="node13" class="node"><title>Node7</title>
<polygon fill="white" stroke="#bfbfbf" points="529,-0.5 529,-21.5 581,-21.5 581,-0.5 529,-0.5"/>
<text text-anchor="middle" x="555" y="-8.5" font-family="Helvetica,sans-Serif" font-size="10.00">ostream</text>
</g>
<!-- Node5&#45;&gt;Node7 -->
<g id="edge12" class="edge"><title>Node5&#45;&gt;Node7</title>
<path fill="none" stroke="midnightblue" d="M555,-58.3619C555,-50.9219 555,-40.7427 555,-31.7276"/>
<polygon fill="midnightblue" stroke="midnightblue" points="558.5,-31.5706 555,-21.5707 551.5,-31.5707 558.5,-31.5706"/>
</g>
<!-- Node8&#45;&gt;Node5 -->
<g id="edge16" class="edge"><title>Node8&#45;&gt;Node5</title>
<path fill="none" stroke="midnightblue" d="M391.764,-123.412C424.909,-112.364 477.026,-94.9913 513.428,-82.8574"/>
<polygon fill="midnightblue" stroke="midnightblue" points="514.869,-86.0662 523.249,-79.5835 512.656,-79.4255 514.869,-86.0662"/>
</g>
<!-- Node9 -->
<g id="node18" class="node"><title>Node9</title>
<a xlink:href="vec2_8h.html" target="_top" xlink:title="vec2.h">
<polygon fill="white" stroke="black" points="291,-58.5 291,-79.5 337,-79.5 337,-58.5 291,-58.5"/>
<text text-anchor="middle" x="314" y="-66.5" font-family="Helvetica,sans-Serif" font-size="10.00">vec2.h</text>
</a>
</g>
<!-- Node8&#45;&gt;Node9 -->
<g id="edge18" class="edge"><title>Node8&#45;&gt;Node9</title>
<path fill="none" stroke="midnightblue" d="M352.404,-123.267C345.639,-113.707 335.582,-99.4964 327.457,-88.0152"/>
<polygon fill="midnightblue" stroke="midnightblue" points="330.088,-85.6746 321.455,-79.5337 324.374,-89.7183 330.088,-85.6746"/>
</g>
<!-- Node10 -->
<g id="node20" class="node"><title>Node10</title>
<polygon fill="white" stroke="#bfbfbf" points="318,-0.5 318,-21.5 362,-21.5 362,-0.5 318,-0.5"/>
<text text-anchor="middle" x="340" y="-8.5" font-family="Helvetica,sans-Serif" font-size="10.00">cmath</text>
</g>
<!-- Node8&#45;&gt;Node10 -->
<g id="edge22" class="edge"><title>Node8&#45;&gt;Node10</title>
<path fill="none" stroke="midnightblue" d="M358.225,-123.085C354.896,-102.609 347.664,-58.133 343.379,-31.778"/>
<polygon fill="midnightblue" stroke="midnightblue" points="346.802,-31.024 341.742,-21.7153 339.893,-32.1475 346.802,-31.024"/>
</g>
<!-- Node9&#45;&gt;Node10 -->
<g id="edge20" class="edge"><title>Node9&#45;&gt;Node10</title>
<path fill="none" stroke="midnightblue" d="M318.769,-58.3619C322.214,-50.6766 326.969,-40.0686 331.106,-30.8399"/>
<polygon fill="midnightblue" stroke="midnightblue" points="334.365,-32.1275 335.261,-21.5707 327.977,-29.264 334.365,-32.1275"/>
</g>
<!-- Node15&#45;&gt;Node6 -->
<g id="edge42" class="edge"><title>Node15&#45;&gt;Node6</title>
<path fill="none" stroke="midnightblue" d="M427.848,-188.611C423.448,-160.405 417.523,-103.278 432,-58 435.335,-47.5686 441.884,-37.4359 448.274,-29.2661"/>
<polygon fill="midnightblue" stroke="midnightblue" points="451.01,-31.4508 454.735,-21.5326 445.638,-26.9629 451.01,-31.4508"/>
</g>
<!-- Node15&#45;&gt;Node14 -->
<g id="edge46" class="edge"><title>Node15&#45;&gt;Node14</title>
<path fill="none" stroke="midnightblue" d="M454.225,-188.937C469.985,-177.358 490.718,-162.126 506.354,-150.638"/>
<polygon fill="midnightblue" stroke="midnightblue" points="508.466,-153.429 514.452,-144.688 504.321,-147.788 508.466,-153.429"/>
</g>
<!-- Node16 -->
<g id="node34" class="node"><title>Node16</title>
<a xlink:href="memory_8h.html" target="_top" xlink:title="base/std_ext/memory.h">
<polygon fill="white" stroke="black" points="179.5,-123.5 179.5,-144.5 298.5,-144.5 298.5,-123.5 179.5,-123.5"/>
<text text-anchor="middle" x="239" y="-131.5" font-family="Helvetica,sans-Serif" font-size="10.00">base/std_ext/memory.h</text>
</a>
</g>
<!-- Node15&#45;&gt;Node16 -->
<g id="edge36" class="edge"><title>Node15&#45;&gt;Node16</title>
<path fill="none" stroke="midnightblue" d="M385.499,-188.937C352.378,-176.517 308.046,-159.892 276.854,-148.195"/>
<polygon fill="midnightblue" stroke="midnightblue" points="277.811,-144.816 267.219,-144.582 275.353,-151.371 277.811,-144.816"/>
</g>
<!-- Node15&#45;&gt;Node17 -->
<g id="edge44" class="edge"><title>Node15&#45;&gt;Node17</title>
<path fill="none" stroke="midnightblue" d="M375.712,-201.454C308.206,-194.759 199.482,-179.911 171,-152 154.573,-135.902 151.095,-108.713 150.894,-89.8605"/>
<polygon fill="midnightblue" stroke="midnightblue" points="154.398,-89.6884 151.094,-79.6221 147.4,-89.552 154.398,-89.6884"/>
</g>
<!-- Node16&#45;&gt;Node17 -->
<g id="edge38" class="edge"><title>Node16&#45;&gt;Node17</title>
<path fill="none" stroke="midnightblue" d="M224.634,-123.267C210.951,-113.044 190.152,-97.5043 174.312,-85.6699"/>
<polygon fill="midnightblue" stroke="midnightblue" points="176.205,-82.7151 166.099,-79.5337 172.015,-88.3229 176.205,-82.7151"/>
</g>
<!-- Node16&#45;&gt;Node18 -->
<g id="edge40" class="edge"><title>Node16&#45;&gt;Node18</title>
<path fill="none" stroke="midnightblue" d="M272.576,-123.448C283.449,-120.48 295.636,-117.622 307,-116 625.646,-70.5062 1433.86,-101.793 1755,-80 1780.33,-78.2811 1809.17,-74.9159 1829.16,-72.3581"/>
<polygon fill="midnightblue" stroke="midnightblue" points="1829.81,-75.8023 1839.28,-71.0357 1828.91,-68.8613 1829.81,-75.8023"/>
</g>
<!-- Node19&#45;&gt;Node6 -->
<g id="edge50" class="edge"><title>Node19&#45;&gt;Node6</title>
<path fill="none" stroke="midnightblue" d="M653.402,-124.865C601.38,-114.988 526.269,-98.1973 503,-80 487.245,-67.679 477.089,-46.9161 471.277,-31.378"/>
<polygon fill="midnightblue" stroke="midnightblue" points="474.487,-29.9474 467.932,-21.6236 467.865,-32.2182 474.487,-29.9474"/>
</g>
<!-- Node19&#45;&gt;Node17 -->
<g id="edge52" class="edge"><title>Node19&#45;&gt;Node17</title>
<path fill="none" stroke="midnightblue" d="M653.333,-126.85C627.871,-123.452 596.861,-119.4 569,-116 428.387,-98.8399 260.815,-80.6337 188.352,-72.8697"/>
<polygon fill="midnightblue" stroke="midnightblue" points="188.681,-69.385 178.365,-71.8013 187.936,-76.3453 188.681,-69.385"/>
</g>
<!-- Node19&#45;&gt;Node20 -->
<g id="edge54" class="edge"><title>Node19&#45;&gt;Node20</title>
<path fill="none" stroke="midnightblue" d="M695.738,-116.777C687.726,-100.954 679.29,-77.1275 688,-58 693.593,-45.7168 704.158,-35.3973 714.47,-27.5857"/>
<polygon fill="midnightblue" stroke="midnightblue" points="716.785,-30.2368 722.958,-21.6259 712.763,-24.5079 716.785,-30.2368"/>
</g>
<!-- Node21 -->
<g id="node49" class="node"><title>Node21</title>
<polygon fill="white" stroke="#bfbfbf" points="868,-0.5 868,-21.5 924,-21.5 924,-0.5 868,-0.5"/>
<text text-anchor="middle" x="896" y="-8.5" font-family="Helvetica,sans-Serif" font-size="10.00">algorithm</text>
</g>
<!-- Node19&#45;&gt;Node21 -->
<g id="edge56" class="edge"><title>Node19&#45;&gt;Node21</title>
<path fill="none" stroke="midnightblue" d="M711.787,-116.736C718.417,-99.497 730.894,-73.4102 750,-58 781.098,-32.9177 825.895,-21.0918 857.651,-15.5992"/>
<polygon fill="midnightblue" stroke="midnightblue" points="858.557,-18.9991 867.882,-13.9693 857.455,-12.0863 858.557,-18.9991"/>
</g>
<!-- Node23&#45;&gt;Node13 -->
<g id="edge152" class="edge"><title>Node23&#45;&gt;Node13</title>
<path fill="none" stroke="midnightblue" d="M1554.74,-273.732C1645.9,-264.596 1823.69,-236.512 1946,-152 1985.46,-124.736 2028.49,-95.8216 1999,-58 1979.96,-33.5807 1890.77,-19.9094 1842.77,-14.2049"/>
<polygon fill="midnightblue" stroke="midnightblue" points="1842.97,-10.7047 1832.64,-13.0461 1842.18,-17.6594 1842.97,-10.7047"/>
</g>
<!-- Node23&#45;&gt;Node17 -->
<g id="edge156" class="edge"><title>Node23&#45;&gt;Node17</title>
<path fill="none" stroke="midnightblue" d="M1437.18,-277.298C1235.86,-274.566 575.349,-262.792 367,-224 267.102,-205.4 209.472,-234.393 150,-152 136.954,-133.926 140.4,-107.399 145.173,-89.2284"/>
<polygon fill="midnightblue" stroke="midnightblue" points="148.534,-90.2048 148.022,-79.6223 141.823,-88.2142 148.534,-90.2048"/>
</g>
<!-- Node23&#45;&gt;Node18 -->
<g id="edge154" class="edge"><title>Node23&#45;&gt;Node18</title>
<path fill="none" stroke="midnightblue" d="M1498.92,-260.911C1505.66,-227.121 1525.69,-151.936 1575,-116 1666.08,-49.6265 1717.04,-108.797 1826,-80 1827.25,-79.6697 1828.52,-79.3004 1829.79,-78.9029"/>
<polygon fill="midnightblue" stroke="midnightblue" points="1831.15,-82.1349 1839.39,-75.4769 1828.8,-75.5423 1831.15,-82.1349"/>
</g>
<!-- Node24 -->
<g id="node58" class="node"><title>Node24</title>
<a xlink:href="interval_8h.html" target="_top" xlink:title="base/interval.h">
<polygon fill="white" stroke="black" points="814,-123.5 814,-144.5 894,-144.5 894,-123.5 814,-123.5"/>
<text text-anchor="middle" x="854" y="-131.5" font-family="Helvetica,sans-Serif" font-size="10.00">base/interval.h</text>
</a>
</g>
<!-- Node23&#45;&gt;Node24 -->
<g id="edge68" class="edge"><title>Node23&#45;&gt;Node24</title>
<path fill="none" stroke="midnightblue" d="M1437.32,-264.839C1312.2,-236.774 1021.06,-171.472 904.032,-145.222"/>
<polygon fill="midnightblue" stroke="midnightblue" points="904.775,-141.802 894.251,-143.028 903.243,-148.632 904.775,-141.802"/>
</g>
<!-- Node28 -->
<g id="node69" class="node"><title>Node28</title>
<a xlink:href="_wrap_t_file_8h.html" target="_top" xlink:title="base/WrapTFile.h">
<polygon fill="white" stroke="black" points="1319,-123.5 1319,-144.5 1413,-144.5 1413,-123.5 1319,-123.5"/>
<text text-anchor="middle" x="1366" y="-131.5" font-family="Helvetica,sans-Serif" font-size="10.00">base/WrapTFile.h</text>
</a>
</g>
<!-- Node23&#45;&gt;Node28 -->
<g id="edge82" class="edge"><title>Node23&#45;&gt;Node28</title>
<path fill="none" stroke="midnightblue" d="M1495.5,-260.895C1494.08,-241.282 1489.09,-209.123 1472,-188 1456.96,-169.41 1433.85,-156.59 1413.04,-148.124"/>
<polygon fill="midnightblue" stroke="midnightblue" points="1414.27,-144.846 1403.68,-144.535 1411.76,-151.382 1414.27,-144.846"/>
</g>
<!-- Node39 -->
<g id="node101" class="node"><title>Node39</title>
<a xlink:href="_t_i_d_8h.html" target="_top" xlink:title="tree/TID.h">
<polygon fill="white" stroke="black" points="1561.5,-195.5 1561.5,-216.5 1622.5,-216.5 1622.5,-195.5 1561.5,-195.5"/>
<text text-anchor="middle" x="1592" y="-203.5" font-family="Helvetica,sans-Serif" font-size="10.00">tree/TID.h</text>
</a>
</g>
<!-- Node23&#45;&gt;Node39 -->
<g id="edge124" class="edge"><title>Node23&#45;&gt;Node39</title>
<path fill="none" stroke="midnightblue" d="M1518.75,-260.937C1534.05,-249.465 1554.12,-234.408 1569.39,-222.958"/>
<polygon fill="midnightblue" stroke="midnightblue" points="1571.85,-225.488 1577.75,-216.688 1567.65,-219.888 1571.85,-225.488"/>
</g>
<!-- Node24&#45;&gt;Node5 -->
<g id="edge70" class="edge"><title>Node24&#45;&gt;Node5</title>
<path fill="none" stroke="midnightblue" d="M824.784,-123.479C816.81,-120.822 808.127,-118.124 800,-116 734.729,-98.9406 658.181,-85.2404 608.245,-77.1274"/>
<polygon fill="midnightblue" stroke="midnightblue" points="608.744,-73.6628 598.316,-75.5309 607.633,-80.5741 608.744,-73.6628"/>
</g>
<!-- Node24&#45;&gt;Node12 -->
<g id="edge76" class="edge"><title>Node24&#45;&gt;Node12</title>
<path fill="none" stroke="midnightblue" d="M875.665,-123.412C897.499,-112.741 931.403,-96.1717 956.063,-84.1198"/>
<polygon fill="midnightblue" stroke="midnightblue" points="957.897,-87.119 965.345,-79.5835 954.823,-80.8299 957.897,-87.119"/>
</g>
<!-- Node24&#45;&gt;Node21 -->
<g id="edge74" class="edge"><title>Node24&#45;&gt;Node21</title>
<path fill="none" stroke="midnightblue" d="M820.731,-123.469C785.735,-110.583 738.378,-86.8764 759,-58 770.755,-41.54 821.838,-27.2068 858.179,-18.8276"/>
<polygon fill="midnightblue" stroke="midnightblue" points="859.002,-22.23 867.993,-16.6252 857.469,-15.3999 859.002,-22.23"/>
</g>
<!-- Node25 -->
<g id="node61" class="node"><title>Node25</title>
<a xlink:href="types_8h.html" target="_top" xlink:title="types.h">
<polygon fill="white" stroke="black" points="891.5,-58.5 891.5,-79.5 940.5,-79.5 940.5,-58.5 891.5,-58.5"/>
<text text-anchor="middle" x="916" y="-66.5" font-family="Helvetica,sans-Serif" font-size="10.00">types.h</text>
</a>
</g>
<!-- Node24&#45;&gt;Node25 -->
<g id="edge72" class="edge"><title>Node24&#45;&gt;Node25</title>
<path fill="none" stroke="midnightblue" d="M864.238,-123.267C873.628,-113.423 887.72,-98.6481 898.831,-86.9996"/>
<polygon fill="midnightblue" stroke="midnightblue" points="901.583,-89.1856 905.952,-79.5337 896.518,-84.3541 901.583,-89.1856"/>
</g>
<!-- Node26 -->
<g id="node65" class="node"><title>Node26</title>
<polygon fill="white" stroke="#bfbfbf" points="768,-58.5 768,-79.5 808,-79.5 808,-58.5 768,-58.5"/>
<text text-anchor="middle" x="788" y="-66.5" font-family="Helvetica,sans-Serif" font-size="10.00">limits</text>
</g>
<!-- Node24&#45;&gt;Node26 -->
<g id="edge78" class="edge"><title>Node24&#45;&gt;Node26</title>
<path fill="none" stroke="midnightblue" d="M843.101,-123.267C833.01,-113.328 817.815,-98.3635 805.936,-86.6645"/>
<polygon fill="midnightblue" stroke="midnightblue" points="808.277,-84.0569 798.696,-79.5337 803.365,-89.0443 808.277,-84.0569"/>
</g>
<!-- Node27 -->
<g id="node67" class="node"><title>Node27</title>
<polygon fill="white" stroke="#bfbfbf" points="825.5,-58.5 825.5,-79.5 874.5,-79.5 874.5,-58.5 825.5,-58.5"/>
<text text-anchor="middle" x="850" y="-66.5" font-family="Helvetica,sans-Serif" font-size="10.00">istream</text>
</g>
<!-- Node24&#45;&gt;Node27 -->
<g id="edge80" class="edge"><title>Node24&#45;&gt;Node27</title>
<path fill="none" stroke="midnightblue" d="M853.339,-123.267C852.78,-114.18 851.963,-100.892 851.276,-89.7395"/>
<polygon fill="midnightblue" stroke="midnightblue" points="854.756,-89.2998 850.648,-79.5337 847.769,-89.7298 854.756,-89.2998"/>
</g>
<!-- Node28&#45;&gt;Node12 -->
<g id="edge120" class="edge"><title>Node28&#45;&gt;Node12</title>
<path fill="none" stroke="midnightblue" d="M1318.71,-126.644C1232.88,-113.26 1057.77,-85.7702 1030,-80 1028.91,-79.7727 1027.8,-79.5358 1026.68,-79.2912"/>
<polygon fill="midnightblue" stroke="midnightblue" points="1027.06,-75.7856 1016.53,-76.93 1025.47,-82.6038 1027.06,-75.7856"/>
</g>
<!-- Node28&#45;&gt;Node13 -->
<g id="edge116" class="edge"><title>Node28&#45;&gt;Node13</title>
<path fill="none" stroke="midnightblue" d="M1398.24,-123.495C1407.74,-120.711 1418.22,-117.944 1428,-116 1571.41,-87.511 1626.34,-149.455 1755,-80 1775.8,-68.7705 1792.01,-46.5181 1801.74,-30.3108"/>
<polygon fill="midnightblue" stroke="midnightblue" points="1804.79,-32.0173 1806.7,-21.5958 1798.71,-28.5525 1804.79,-32.0173"/>
</g>
<!-- Node28&#45;&gt;Node17 -->
<g id="edge114" class="edge"><title>Node28&#45;&gt;Node17</title>
<path fill="none" stroke="midnightblue" d="M1318.88,-130.523C1265.2,-126.636 1174.81,-120.321 1097,-116 734.982,-95.895 643.827,-103.29 282,-80 250.413,-77.9668 214.573,-74.8755 188.536,-72.4872"/>
<polygon fill="midnightblue" stroke="midnightblue" points="188.649,-68.9828 178.369,-71.5446 188.003,-75.9529 188.649,-68.9828"/>
</g>
<!-- Node28&#45;&gt;Node18 -->
<g id="edge118" class="edge"><title>Node28&#45;&gt;Node18</title>
<path fill="none" stroke="midnightblue" d="M1413.2,-124.835C1429.85,-121.781 1448.72,-118.518 1466,-116 1608.5,-95.2332 1645.37,-99.8441 1788,-80 1801.7,-78.0933 1816.94,-75.5796 1829.32,-73.4365"/>
<polygon fill="midnightblue" stroke="midnightblue" points="1830.11,-76.8516 1839.35,-71.6732 1828.9,-69.9573 1830.11,-76.8516"/>
</g>
<!-- Node28&#45;&gt;Node20 -->
<g id="edge122" class="edge"><title>Node28&#45;&gt;Node20</title>
<path fill="none" stroke="midnightblue" d="M1318.84,-126.521C1239.75,-113.838 1086.65,-88.648 1063,-80 1044.67,-73.2977 1043.37,-64.5942 1025,-58 980.95,-42.1852 849.045,-24.259 782.027,-15.8456"/>
<polygon fill="midnightblue" stroke="midnightblue" points="782.207,-12.3411 771.851,-14.5788 781.342,-19.2875 782.207,-12.3411"/>
</g>
<!-- Node29 -->
<g id="node71" class="node"><title>Node29</title>
<a xlink:href="string_8h.html" target="_top" xlink:title="base/std_ext/string.h">
<polygon fill="white" stroke="black" points="1638,-58.5 1638,-79.5 1746,-79.5 1746,-58.5 1638,-58.5"/>
<text text-anchor="middle" x="1692" y="-66.5" font-family="Helvetica,sans-Serif" font-size="10.00">base/std_ext/string.h</text>
</a>
</g>
<!-- Node28&#45;&gt;Node29 -->
<g id="edge84" class="edge"><title>Node28&#45;&gt;Node29</title>
<path fill="none" stroke="midnightblue" d="M1399.94,-123.441C1409,-120.814 1418.83,-118.141 1428,-116 1437.7,-113.735 1552.49,-93.4802 1627.48,-80.3097"/>
<polygon fill="midnightblue" stroke="midnightblue" points="1628.54,-83.6776 1637.78,-78.5009 1627.33,-76.7831 1628.54,-83.6776"/>
</g>
<!-- Node31 -->
<g id="node78" class="node"><title>Node31</title>
<a xlink:href="misc_8h.html" target="_top" xlink:title="base/std_ext/misc.h">
<polygon fill="white" stroke="black" points="1071.5,-58.5 1071.5,-79.5 1176.5,-79.5 1176.5,-58.5 1071.5,-58.5"/>
<text text-anchor="middle" x="1124" y="-66.5" font-family="Helvetica,sans-Serif" font-size="10.00">base/std_ext/misc.h</text>
</a>
</g>
<!-- Node28&#45;&gt;Node31 -->
<g id="edge94" class="edge"><title>Node28&#45;&gt;Node31</title>
<path fill="none" stroke="midnightblue" d="M1326.85,-123.484C1284.94,-112.227 1218.36,-94.3454 1173,-82.1617"/>
<polygon fill="midnightblue" stroke="midnightblue" points="1173.66,-78.7144 1163.09,-79.5005 1171.84,-85.4748 1173.66,-78.7144"/>
</g>
<!-- Node33 -->
<g id="node84" class="node"><title>Node33</title>
<polygon fill="white" stroke="#bfbfbf" points="1485.5,-58.5 1485.5,-79.5 1532.5,-79.5 1532.5,-58.5 1485.5,-58.5"/>
<text text-anchor="middle" x="1509" y="-66.5" font-family="Helvetica,sans-Serif" font-size="10.00">TFile.h</text>
</g>
<!-- Node28&#45;&gt;Node33 -->
<g id="edge102" class="edge"><title>Node28&#45;&gt;Node33</title>
<path fill="none" stroke="midnightblue" d="M1389.29,-123.412C1412.98,-112.647 1449.87,-95.878 1476.44,-83.8009"/>
<polygon fill="midnightblue" stroke="midnightblue" points="1478.06,-86.9079 1485.72,-79.5835 1475.16,-80.5353 1478.06,-86.9079"/>
</g>
<!-- Node34 -->
<g id="node86" class="node"><title>Node34</title>
<polygon fill="white" stroke="#bfbfbf" points="1549.5,-58.5 1549.5,-79.5 1620.5,-79.5 1620.5,-58.5 1549.5,-58.5"/>
<text text-anchor="middle" x="1585" y="-66.5" font-family="Helvetica,sans-Serif" font-size="10.00">TDirectory.h</text>
</g>
<!-- Node28&#45;&gt;Node34 -->
<g id="edge104" class="edge"><title>Node28&#45;&gt;Node34</title>
<path fill="none" stroke="midnightblue" d="M1401.67,-123.412C1439.3,-112.246 1498.68,-94.6193 1539.62,-82.4703"/>
<polygon fill="midnightblue" stroke="midnightblue" points="1540.75,-85.7843 1549.34,-79.5835 1538.76,-79.0736 1540.75,-85.7843"/>
</g>
<!-- Node35 -->
<g id="node88" class="node"><title>Node35</title>
<polygon fill="white" stroke="#bfbfbf" points="1194,-58.5 1194,-79.5 1246,-79.5 1246,-58.5 1194,-58.5"/>
<text text-anchor="middle" x="1220" y="-66.5" font-family="Helvetica,sans-Serif" font-size="10.00">TError.h</text>
</g>
<!-- Node28&#45;&gt;Node35 -->
<g id="edge106" class="edge"><title>Node28&#45;&gt;Node35</title>
<path fill="none" stroke="midnightblue" d="M1342.22,-123.412C1318.04,-112.647 1280.37,-95.878 1253.25,-83.8009"/>
<polygon fill="midnightblue" stroke="midnightblue" points="1254.33,-80.4533 1243.77,-79.5835 1251.48,-86.8482 1254.33,-80.4533"/>
</g>
<!-- Node36 -->
<g id="node90" class="node"><title>Node36</title>
<polygon fill="white" stroke="#bfbfbf" points="1263.5,-58.5 1263.5,-79.5 1310.5,-79.5 1310.5,-58.5 1263.5,-58.5"/>
<text text-anchor="middle" x="1287" y="-66.5" font-family="Helvetica,sans-Serif" font-size="10.00">TList.h</text>
</g>
<!-- Node28&#45;&gt;Node36 -->
<g id="edge108" class="edge"><title>Node28&#45;&gt;Node36</title>
<path fill="none" stroke="midnightblue" d="M1352.95,-123.267C1340.65,-113.139 1321.99,-97.7916 1307.66,-85.9995"/>
<polygon fill="midnightblue" stroke="midnightblue" points="1309.75,-83.1846 1299.8,-79.5337 1305.3,-88.5901 1309.75,-83.1846"/>
</g>
<!-- Node37 -->
<g id="node92" class="node"><title>Node37</title>
<polygon fill="white" stroke="#bfbfbf" points="1328,-58.5 1328,-79.5 1402,-79.5 1402,-58.5 1328,-58.5"/>
<text text-anchor="middle" x="1365" y="-66.5" font-family="Helvetica,sans-Serif" font-size="10.00">TCollection.h</text>
</g>
<!-- Node28&#45;&gt;Node37 -->
<g id="edge110" class="edge"><title>Node28&#45;&gt;Node37</title>
<path fill="none" stroke="midnightblue" d="M1365.83,-123.267C1365.7,-114.18 1365.49,-100.892 1365.32,-89.7395"/>
<polygon fill="midnightblue" stroke="midnightblue" points="1368.82,-89.4786 1365.16,-79.5337 1361.82,-89.5864 1368.82,-89.4786"/>
</g>
<!-- Node38 -->
<g id="node94" class="node"><title>Node38</title>
<polygon fill="white" stroke="#bfbfbf" points="1420,-58.5 1420,-79.5 1468,-79.5 1468,-58.5 1420,-58.5"/>
<text text-anchor="middle" x="1444" y="-66.5" font-family="Helvetica,sans-Serif" font-size="10.00">TKey.h</text>
</g>
<!-- Node28&#45;&gt;Node38 -->
<g id="edge112" class="edge"><title>Node28&#45;&gt;Node38</title>
<path fill="none" stroke="midnightblue" d="M1378.88,-123.267C1391.03,-113.139 1409.45,-97.7916 1423.6,-85.9995"/>
<polygon fill="midnightblue" stroke="midnightblue" points="1425.92,-88.6244 1431.36,-79.5337 1421.44,-83.2468 1425.92,-88.6244"/>
</g>
<!-- Node29&#45;&gt;Node6 -->
<g id="edge92" class="edge"><title>Node29&#45;&gt;Node6</title>
<path fill="none" stroke="midnightblue" d="M1637.77,-59.0337C1634.81,-58.645 1631.87,-58.2958 1629,-58 1138.45,-7.46449 1009.9,-78.5494 520,-22 512.485,-21.1325 504.466,-19.7785 496.941,-18.3132"/>
<polygon fill="midnightblue" stroke="midnightblue" points="497.58,-14.8715 487.08,-16.2812 496.167,-21.7274 497.58,-14.8715"/>
</g>
<!-- Node29&#45;&gt;Node13 -->
<g id="edge86" class="edge"><title>Node29&#45;&gt;Node13</title>
<path fill="none" stroke="midnightblue" d="M1713.73,-58.4966C1732.82,-49.2679 1760.79,-35.75 1782.01,-25.4932"/>
<polygon fill="midnightblue" stroke="midnightblue" points="1783.75,-28.5401 1791.23,-21.0371 1780.71,-22.2376 1783.75,-28.5401"/>
</g>
<!-- Node29&#45;&gt;Node21 -->
<g id="edge90" class="edge"><title>Node29&#45;&gt;Node21</title>
<path fill="none" stroke="midnightblue" d="M1637.76,-59.1434C1634.8,-58.7264 1631.87,-58.3411 1629,-58 1559.89,-49.7757 1075.59,-21.3983 934.488,-13.2212"/>
<polygon fill="midnightblue" stroke="midnightblue" points="934.358,-9.70793 924.172,-12.624 933.953,-16.6962 934.358,-9.70793"/>
</g>
<!-- Node30 -->
<g id="node74" class="node"><title>Node30</title>
<polygon fill="white" stroke="#bfbfbf" points="1666,-0.5 1666,-21.5 1718,-21.5 1718,-0.5 1666,-0.5"/>
<text text-anchor="middle" x="1692" y="-8.5" font-family="Helvetica,sans-Serif" font-size="10.00">sstream</text>
</g>
<!-- Node29&#45;&gt;Node30 -->
<g id="edge88" class="edge"><title>Node29&#45;&gt;Node30</title>
<path fill="none" stroke="midnightblue" d="M1692,-58.3619C1692,-50.9219 1692,-40.7427 1692,-31.7276"/>
<polygon fill="midnightblue" stroke="midnightblue" points="1695.5,-31.5706 1692,-21.5707 1688.5,-31.5707 1695.5,-31.5706"/>
</g>
<!-- Node31&#45;&gt;Node20 -->
<g id="edge98" class="edge"><title>Node31&#45;&gt;Node20</title>
<path fill="none" stroke="midnightblue" d="M1071.42,-60.151C1066.88,-59.4134 1062.36,-58.6876 1058,-58 958.766,-42.352 841.767,-25.3191 781.817,-16.6941"/>
<polygon fill="midnightblue" stroke="midnightblue" points="782.048,-13.1914 771.651,-15.2336 781.052,-20.1202 782.048,-13.1914"/>
</g>
<!-- Node31&#45;&gt;Node21 -->
<g id="edge96" class="edge"><title>Node31&#45;&gt;Node21</title>
<path fill="none" stroke="midnightblue" d="M1082.71,-58.4966C1040.36,-47.7229 975.028,-31.1037 933.94,-20.6514"/>
<polygon fill="midnightblue" stroke="midnightblue" points="934.599,-17.2076 924.045,-18.1342 932.873,-23.9916 934.599,-17.2076"/>
</g>
<!-- Node32 -->
<g id="node82" class="node"><title>Node32</title>
<polygon fill="white" stroke="#bfbfbf" points="1097.5,-0.5 1097.5,-21.5 1150.5,-21.5 1150.5,-0.5 1097.5,-0.5"/>
<text text-anchor="middle" x="1124" y="-8.5" font-family="Helvetica,sans-Serif" font-size="10.00">cxxabi.h</text>
</g>
<!-- Node31&#45;&gt;Node32 -->
<g id="edge100" class="edge"><title>Node31&#45;&gt;Node32</title>
<path fill="none" stroke="midnightblue" d="M1124,-58.3619C1124,-50.9219 1124,-40.7427 1124,-31.7276"/>
<polygon fill="midnightblue" stroke="midnightblue" points="1127.5,-31.5706 1124,-21.5707 1120.5,-31.5707 1127.5,-31.5706"/>
</g>
<!-- Node39&#45;&gt;Node5 -->
<g id="edge128" class="edge"><title>Node39&#45;&gt;Node5</title>
<path fill="none" stroke="midnightblue" d="M1561.48,-205.124C1425.1,-201.047 875.232,-182.813 805,-152 783.696,-142.653 787.546,-126.913 767,-116 717.116,-89.5031 653.005,-77.9224 608.407,-72.8743"/>
<polygon fill="midnightblue" stroke="midnightblue" points="608.669,-69.3826 598.356,-71.8095 607.932,-76.3436 608.669,-69.3826"/>
</g>
<!-- Node39&#45;&gt;Node11 -->
<g id="edge142" class="edge"><title>Node39&#45;&gt;Node11</title>
<path fill="none" stroke="midnightblue" d="M1561.44,-201.27C1537.2,-197.553 1502.45,-192.304 1472,-188 1333.37,-168.408 1167.88,-147.091 1098.35,-138.23"/>
<polygon fill="midnightblue" stroke="midnightblue" points="1098.78,-134.757 1088.42,-136.966 1097.9,-141.701 1098.78,-134.757"/>
</g>
<!-- Node39&#45;&gt;Node12 -->
<g id="edge144" class="edge"><title>Node39&#45;&gt;Node12</title>
<path fill="none" stroke="midnightblue" d="M1561.41,-200.786C1509.5,-191.797 1400.96,-172.375 1310,-152 1207.19,-128.97 1087.33,-96.7428 1026.62,-80.0301"/>
<polygon fill="midnightblue" stroke="midnightblue" points="1027.26,-76.5763 1016.69,-77.2901 1025.39,-83.3241 1027.26,-76.5763"/>
</g>
<!-- Node39&#45;&gt;Node14 -->
<g id="edge138" class="edge"><title>Node39&#45;&gt;Node14</title>
<path fill="none" stroke="midnightblue" d="M1561.25,-205.331C1442.71,-202.52 1004.05,-190.004 645,-152 620.156,-149.37 592.506,-145.132 570.435,-141.428"/>
<polygon fill="midnightblue" stroke="midnightblue" points="570.848,-137.948 560.402,-139.717 569.671,-144.848 570.848,-137.948"/>
</g>
<!-- Node39&#45;&gt;Node18 -->
<g id="edge146" class="edge"><title>Node39&#45;&gt;Node18</title>
<path fill="none" stroke="midnightblue" d="M1587.88,-195.337C1581.48,-176.785 1571.76,-138.408 1591,-116 1625.41,-75.9138 1774.99,-93.7438 1826,-80 1827.25,-79.6637 1828.52,-79.2897 1829.79,-78.8882"/>
<polygon fill="midnightblue" stroke="midnightblue" points="1831.15,-82.1182 1839.38,-75.4494 1828.79,-75.5286 1831.15,-82.1182"/>
</g>
<!-- Node40 -->
<g id="node103" class="node"><title>Node40</title>
<polygon fill="white" stroke="#bfbfbf" points="1668,-123.5 1668,-144.5 1724,-144.5 1724,-123.5 1668,-123.5"/>
<text text-anchor="middle" x="1696" y="-131.5" font-family="Helvetica,sans-Serif" font-size="10.00">Rtypes.h</text>
</g>
<!-- Node39&#45;&gt;Node40 -->
<g id="edge126" class="edge"><title>Node39&#45;&gt;Node40</title>
<path fill="none" stroke="midnightblue" d="M1607.35,-195.376C1624.47,-183.518 1652.4,-164.186 1672.33,-150.388"/>
<polygon fill="midnightblue" stroke="midnightblue" points="1674.36,-153.237 1680.59,-144.667 1670.38,-147.482 1674.36,-153.237"/>
</g>
<!-- Node41 -->
<g id="node106" class="node"><title>Node41</title>
<a xlink:href="time_8h.html" target="_top" xlink:title="base/std_ext/time.h">
<polygon fill="white" stroke="black" points="1805.5,-123.5 1805.5,-144.5 1908.5,-144.5 1908.5,-123.5 1805.5,-123.5"/>
<text text-anchor="middle" x="1857" y="-131.5" font-family="Helvetica,sans-Serif" font-size="10.00">base/std_ext/time.h</text>
</a>
</g>
<!-- Node39&#45;&gt;Node41 -->
<g id="edge130" class="edge"><title>Node39&#45;&gt;Node41</title>
<path fill="none" stroke="midnightblue" d="M1622.66,-197.67C1668.19,-185.299 1754.13,-161.951 1808.32,-147.226"/>
<polygon fill="midnightblue" stroke="midnightblue" points="1809.32,-150.582 1818.05,-144.582 1807.48,-143.826 1809.32,-150.582"/>
</g>
<!-- Node43 -->
<g id="node111" class="node"><title>Node43</title>
<polygon fill="white" stroke="#bfbfbf" points="1949.5,-58.5 1949.5,-79.5 1990.5,-79.5 1990.5,-58.5 1949.5,-58.5"/>
<text text-anchor="middle" x="1970" y="-66.5" font-family="Helvetica,sans-Serif" font-size="10.00">ctime</text>
</g>
<!-- Node39&#45;&gt;Node43 -->
<g id="edge150" class="edge"><title>Node39&#45;&gt;Node43</title>
<path fill="none" stroke="midnightblue" d="M1622.58,-204.073C1693.88,-199.088 1868.73,-183.871 1917,-152 1939.74,-136.987 1954.7,-108.503 1962.76,-89.1359"/>
<polygon fill="midnightblue" stroke="midnightblue" points="1966.07,-90.2968 1966.45,-79.7086 1959.55,-87.7503 1966.07,-90.2968"/>
</g>
<!-- Node44 -->
<g id="node114" class="node"><title>Node44</title>
<polygon fill="white" stroke="#bfbfbf" points="1742,-123.5 1742,-144.5 1780,-144.5 1780,-123.5 1742,-123.5"/>
<text text-anchor="middle" x="1761" y="-131.5" font-family="Helvetica,sans-Serif" font-size="10.00">tuple</text>
</g>
<!-- Node39&#45;&gt;Node44 -->
<g id="edge140" class="edge"><title>Node39&#45;&gt;Node44</title>
<path fill="none" stroke="midnightblue" d="M1622.76,-196.264C1651.85,-186.582 1696.4,-170.526 1733,-152 1734.32,-151.331 1735.66,-150.616 1737,-149.87"/>
<polygon fill="midnightblue" stroke="midnightblue" points="1738.87,-152.828 1745.64,-144.677 1735.26,-146.828 1738.87,-152.828"/>
</g>
<!-- Node45 -->
<g id="node119" class="node"><title>Node45</title>
<polygon fill="white" stroke="#bfbfbf" points="1600,-123.5 1600,-144.5 1650,-144.5 1650,-123.5 1600,-123.5"/>
<text text-anchor="middle" x="1625" y="-131.5" font-family="Helvetica,sans-Serif" font-size="10.00">iomanip</text>
</g>
<!-- Node39&#45;&gt;Node45 -->
<g id="edge148" class="edge"><title>Node39&#45;&gt;Node45</title>
<path fill="none" stroke="midnightblue" d="M1596.87,-195.376C1601.84,-184.528 1609.68,-167.426 1615.82,-154.027"/>
<polygon fill="midnightblue" stroke="midnightblue" points="1619.13,-155.216 1620.11,-144.667 1612.76,-152.3 1619.13,-155.216"/>
</g>
<!-- Node41&#45;&gt;Node29 -->
<g id="edge132" class="edge"><title>Node41&#45;&gt;Node29</title>
<path fill="none" stroke="midnightblue" d="M1830.12,-123.412C1802.44,-112.505 1759.11,-95.4357 1728.37,-83.3266"/>
<polygon fill="midnightblue" stroke="midnightblue" points="1729.45,-79.9924 1718.87,-79.5835 1726.89,-86.5052 1729.45,-79.9924"/>
</g>
<!-- Node42 -->
<g id="node109" class="node"><title>Node42</title>
<polygon fill="white" stroke="#bfbfbf" points="1886,-58.5 1886,-79.5 1932,-79.5 1932,-58.5 1886,-58.5"/>
<text text-anchor="middle" x="1909" y="-66.5" font-family="Helvetica,sans-Serif" font-size="10.00">cstring</text>
</g>
<!-- Node41&#45;&gt;Node42 -->
<g id="edge134" class="edge"><title>Node41&#45;&gt;Node42</title>
<path fill="none" stroke="midnightblue" d="M1865.59,-123.267C1873.31,-113.612 1884.83,-99.2145 1894.06,-87.675"/>
<polygon fill="midnightblue" stroke="midnightblue" points="1897.06,-89.5289 1900.57,-79.5337 1891.59,-85.156 1897.06,-89.5289"/>
</g>
<!-- Node41&#45;&gt;Node43 -->
<g id="edge136" class="edge"><title>Node41&#45;&gt;Node43</title>
<path fill="none" stroke="midnightblue" d="M1875.41,-123.412C1893.71,-112.883 1922,-96.6106 1942.88,-84.6021"/>
<polygon fill="midnightblue" stroke="midnightblue" points="1944.68,-87.6036 1951.6,-79.5835 1941.19,-81.5358 1944.68,-87.6036"/>
</g>
</g>
</svg>
