<?xml version="1.0" encoding="UTF-8" standalone="no"?>
<!DOCTYPE svg PUBLIC "-//W3C//DTD SVG 1.1//EN"
 "http://www.w3.org/Graphics/SVG/1.1/DTD/svg11.dtd">
<!-- Generated by graphviz version 2.26.3 (20100126.1600)
 -->
<!-- Title: src/analysis/physics/pi0/DeltaPlusPhysics.cc Pages: 1 -->
<svg width="2967pt" height="638pt"
 viewBox="0.00 0.00 2966.87 638.00" xmlns="http://www.w3.org/2000/svg" xmlns:xlink="http://www.w3.org/1999/xlink">
<g id="graph1" class="graph" transform="scale(1 1) rotate(0) translate(4 634)">
<title>src/analysis/physics/pi0/DeltaPlusPhysics.cc</title>
<polygon fill="white" stroke="white" points="-4,5 -4,-634 2963.87,-634 2963.87,5 -4,5"/>
<!-- Node1 -->
<g id="node1" class="node"><title>Node1</title>
<polygon fill="#bfbfbf" stroke="black" points="2014.5,-595 2014.5,-629 2141.5,-629 2141.5,-595 2014.5,-595"/>
<text text-anchor="start" x="2022.5" y="-616" font-family="Helvetica,sans-Serif" font-size="10.00">src/analysis/physics</text>
<text text-anchor="middle" x="2078" y="-603" font-family="Helvetica,sans-Serif" font-size="10.00">/pi0/DeltaPlusPhysics.cc</text>
</g>
<!-- Node2 -->
<g id="node3" class="node"><title>Node2</title>
<a xlink:href="_delta_plus_physics_8h.html" target="_top" xlink:title="DeltaPlusPhysics.h">
<polygon fill="white" stroke="black" points="1761.5,-536.5 1761.5,-557.5 1864.5,-557.5 1864.5,-536.5 1761.5,-536.5"/>
<text text-anchor="middle" x="1813" y="-544.5" font-family="Helvetica,sans-Serif" font-size="10.00">DeltaPlusPhysics.h</text>
</a>
</g>
<!-- Node1&#45;&gt;Node2 -->
<g id="edge2" class="edge"><title>Node1&#45;&gt;Node2</title>
<path fill="none" stroke="midnightblue" d="M2014.19,-596.348C1968.82,-585.219 1908.59,-570.448 1865.9,-559.975"/>
<polygon fill="midnightblue" stroke="midnightblue" points="1866.53,-556.526 1855.98,-557.543 1864.86,-563.324 1866.53,-556.526"/>
</g>
<!-- Node55 -->
<g id="node183" class="node"><title>Node55</title>
<a xlink:href="_particle_type_8h.html" target="_top" xlink:title="base/ParticleType.h">
<polygon fill="white" stroke="black" points="1118,-246.5 1118,-267.5 1222,-267.5 1222,-246.5 1118,-246.5"/>
<text text-anchor="middle" x="1170" y="-254.5" font-family="Helvetica,sans-Serif" font-size="10.00">base/ParticleType.h</text>
</a>
</g>
<!-- Node1&#45;&gt;Node55 -->
<g id="edge346" class="edge"><title>Node1&#45;&gt;Node55</title>
<path fill="none" stroke="midnightblue" d="M2014.19,-608.455C1774.84,-594.744 944,-543.242 944,-489 944,-489 944,-489 944,-373 944,-299.064 1040.92,-272.218 1107.82,-262.494"/>
<polygon fill="midnightblue" stroke="midnightblue" points="1108.43,-265.943 1117.87,-261.128 1107.49,-259.007 1108.43,-265.943"/>
</g>
<!-- Node60 -->
<g id="node206" class="node"><title>Node60</title>
<polygon fill="white" stroke="#bfbfbf" points="572,-304.5 572,-325.5 626,-325.5 626,-304.5 572,-304.5"/>
<text text-anchor="middle" x="599" y="-312.5" font-family="Helvetica,sans-Serif" font-size="10.00">iostream</text>
</g>
<!-- Node1&#45;&gt;Node60 -->
<g id="edge358" class="edge"><title>Node1&#45;&gt;Node60</title>
<path fill="none" stroke="midnightblue" d="M2014.45,-611.693C1817.89,-610.278 1202.47,-602.35 695,-558 504.645,-541.364 456.937,-534.518 269,-500 156.814,-479.395 89.9574,-531.304 19,-442 -51.2314,-353.61 423.351,-323.501 561.837,-316.65"/>
<polygon fill="midnightblue" stroke="midnightblue" points="562.141,-320.139 571.961,-316.161 561.803,-313.147 562.141,-320.139"/>
</g>
<!-- Node64 -->
<g id="node226" class="node"><title>Node64</title>
<polygon fill="white" stroke="#bfbfbf" points="27.5,-420.5 27.5,-441.5 78.5,-441.5 78.5,-420.5 27.5,-420.5"/>
<text text-anchor="middle" x="53" y="-428.5" font-family="Helvetica,sans-Serif" font-size="10.00">TH1D.h</text>
</g>
<!-- Node1&#45;&gt;Node64 -->
<g id="edge352" class="edge"><title>Node1&#45;&gt;Node64</title>
<path fill="none" stroke="midnightblue" d="M2014.39,-611.028C1840.43,-607.933 1342.25,-596.15 930,-558 555.604,-523.353 460.028,-518.993 92,-442 90.9327,-441.777 89.8516,-441.54 88.7624,-441.293"/>
<polygon fill="midnightblue" stroke="midnightblue" points="89.4392,-437.854 78.8901,-438.838 87.7502,-444.648 89.4392,-437.854"/>
</g>
<!-- Node65 -->
<g id="node228" class="node"><title>Node65</title>
<polygon fill="white" stroke="#bfbfbf" points="2784.5,-420.5 2784.5,-441.5 2835.5,-441.5 2835.5,-420.5 2784.5,-420.5"/>
<text text-anchor="middle" x="2810" y="-428.5" font-family="Helvetica,sans-Serif" font-size="10.00">TH2D.h</text>
</g>
<!-- Node1&#45;&gt;Node65 -->
<g id="edge354" class="edge"><title>Node1&#45;&gt;Node65</title>
<path fill="none" stroke="midnightblue" d="M2137,-594.969C2194.24,-578.741 2283.69,-554.159 2362,-536 2442.75,-517.275 2464.16,-518.31 2545,-500 2646.14,-477.094 2670.87,-468.966 2771,-442 2772.22,-441.671 2773.47,-441.333 2774.72,-440.991"/>
<polygon fill="midnightblue" stroke="midnightblue" points="2775.73,-444.345 2784.43,-438.306 2773.86,-437.598 2775.73,-444.345"/>
</g>
<!-- Node67 -->
<g id="node241" class="node"><title>Node67</title>
<polygon fill="white" stroke="#bfbfbf" points="2371,-536.5 2371,-557.5 2415,-557.5 2415,-536.5 2371,-536.5"/>
<text text-anchor="middle" x="2393" y="-544.5" font-family="Helvetica,sans-Serif" font-size="10.00">TH1.h</text>
</g>
<!-- Node1&#45;&gt;Node67 -->
<g id="edge348" class="edge"><title>Node1&#45;&gt;Node67</title>
<path fill="none" stroke="midnightblue" d="M2141.58,-601.661C2198.4,-591.955 2283.75,-576.226 2357,-558 2358.25,-557.689 2359.52,-557.361 2360.8,-557.021"/>
<polygon fill="midnightblue" stroke="midnightblue" points="2361.97,-560.327 2370.63,-554.233 2360.06,-553.593 2361.97,-560.327"/>
</g>
<!-- Node68 -->
<g id="node243" class="node"><title>Node68</title>
<polygon fill="white" stroke="#bfbfbf" points="2433,-536.5 2433,-557.5 2477,-557.5 2477,-536.5 2433,-536.5"/>
<text text-anchor="middle" x="2455" y="-544.5" font-family="Helvetica,sans-Serif" font-size="10.00">TH2.h</text>
</g>
<!-- Node1&#45;&gt;Node68 -->
<g id="edge350" class="edge"><title>Node1&#45;&gt;Node68</title>
<path fill="none" stroke="midnightblue" d="M2141.53,-605.676C2209.29,-598.129 2319.73,-583.526 2422.85,-557.945"/>
<polygon fill="midnightblue" stroke="midnightblue" points="2423.96,-561.274 2432.8,-555.435 2422.25,-554.486 2423.96,-561.274"/>
</g>
<!-- Node69 -->
<g id="node247" class="node"><title>Node69</title>
<polygon fill="white" stroke="#bfbfbf" points="2494.5,-536.5 2494.5,-557.5 2559.5,-557.5 2559.5,-536.5 2494.5,-536.5"/>
<text text-anchor="middle" x="2527" y="-544.5" font-family="Helvetica,sans-Serif" font-size="10.00">TCanvas.h</text>
</g>
<!-- Node1&#45;&gt;Node69 -->
<g id="edge356" class="edge"><title>Node1&#45;&gt;Node69</title>
<path fill="none" stroke="midnightblue" d="M2141.68,-606.172C2220.27,-598.4 2358.08,-582.885 2484.56,-558.109"/>
<polygon fill="midnightblue" stroke="midnightblue" points="2485.29,-561.532 2494.42,-556.153 2483.93,-554.665 2485.29,-561.532"/>
</g>
<!-- Node3 -->
<g id="node5" class="node"><title>Node3</title>
<a xlink:href="_physics_8h.html" target="_top" xlink:title="physics/Physics.h">
<polygon fill="white" stroke="black" points="563.5,-478.5 563.5,-499.5 660.5,-499.5 660.5,-478.5 563.5,-478.5"/>
<text text-anchor="middle" x="612" y="-486.5" font-family="Helvetica,sans-Serif" font-size="10.00">physics/Physics.h</text>
</a>
</g>
<!-- Node2&#45;&gt;Node3 -->
<g id="edge4" class="edge"><title>Node2&#45;&gt;Node3</title>
<path fill="none" stroke="midnightblue" d="M1761.39,-544.508C1566.68,-535.104 877.181,-501.806 670.791,-491.839"/>
<polygon fill="midnightblue" stroke="midnightblue" points="670.913,-488.341 660.756,-491.355 670.575,-495.333 670.913,-488.341"/>
</g>
<!-- Node6 -->
<g id="node11" class="node"><title>Node6</title>
<a xlink:href="interval_8h.html" target="_top" xlink:title="base/interval.h">
<polygon fill="white" stroke="black" points="1880,-181.5 1880,-202.5 1960,-202.5 1960,-181.5 1880,-181.5"/>
<text text-anchor="middle" x="1920" y="-189.5" font-family="Helvetica,sans-Serif" font-size="10.00">base/interval.h</text>
</a>
</g>
<!-- Node2&#45;&gt;Node6 -->
<g id="edge340" class="edge"><title>Node2&#45;&gt;Node6</title>
<path fill="none" stroke="midnightblue" d="M1813,-536.444C1813,-516.062 1813,-469.868 1813,-431 1813,-431 1813,-431 1813,-315 1813,-267.085 1859.79,-228.754 1891.49,-208.284"/>
<polygon fill="midnightblue" stroke="midnightblue" points="1893.73,-211.008 1900.37,-202.752 1890.04,-205.065 1893.73,-211.008"/>
</g>
<!-- Node15 -->
<g id="node29" class="node"><title>Node15</title>
<polygon fill="white" stroke="#bfbfbf" points="2373.5,-116.5 2373.5,-137.5 2414.5,-137.5 2414.5,-116.5 2373.5,-116.5"/>
<text text-anchor="middle" x="2394" y="-124.5" font-family="Helvetica,sans-Serif" font-size="10.00">string</text>
</g>
<!-- Node2&#45;&gt;Node15 -->
<g id="edge344" class="edge"><title>Node2&#45;&gt;Node15</title>
<path fill="none" stroke="midnightblue" d="M1864.53,-545.191C2038.37,-538 2599.16,-505.615 2722,-384 2765.59,-340.848 2766.38,-288.334 2722,-246 2639.18,-166.998 2567.73,-264.354 2467,-210 2463.26,-207.982 2429.75,-169.027 2409.46,-145.211"/>
<polygon fill="midnightblue" stroke="midnightblue" points="2412.05,-142.852 2402.9,-137.503 2406.71,-147.388 2412.05,-142.852"/>
</g>
<!-- Node56 -->
<g id="node189" class="node"><title>Node56</title>
<polygon fill="white" stroke="#bfbfbf" points="58.5,-116.5 58.5,-137.5 93.5,-137.5 93.5,-116.5 58.5,-116.5"/>
<text text-anchor="middle" x="76" y="-124.5" font-family="Helvetica,sans-Serif" font-size="10.00">map</text>
</g>
<!-- Node2&#45;&gt;Node56 -->
<g id="edge342" class="edge"><title>Node2&#45;&gt;Node56</title>
<path fill="none" stroke="midnightblue" d="M1761.18,-546.465C1465.03,-543.076 0,-521.727 0,-431 0,-431 0,-431 0,-257 0,-211.668 34.8678,-168.104 57.3688,-144.71"/>
<polygon fill="midnightblue" stroke="midnightblue" points="59.8913,-147.137 64.4572,-137.577 54.9259,-142.203 59.8913,-147.137"/>
</g>
<!-- Node4 -->
<g id="node7" class="node"><title>Node4</title>
<a xlink:href="manager__t_8h.html" target="_top" xlink:title="analysis/physics/manager_t.h">
<polygon fill="white" stroke="black" points="770,-420.5 770,-441.5 916,-441.5 916,-420.5 770,-420.5"/>
<text text-anchor="middle" x="843" y="-428.5" font-family="Helvetica,sans-Serif" font-size="10.00">analysis/physics/manager_t.h</text>
</a>
</g>
<!-- Node3&#45;&gt;Node4 -->
<g id="edge6" class="edge"><title>Node3&#45;&gt;Node4</title>
<path fill="none" stroke="midnightblue" d="M653.832,-478.497C692.388,-468.816 749.741,-454.416 791.182,-444.01"/>
<polygon fill="midnightblue" stroke="midnightblue" points="792.243,-447.353 801.089,-441.523 790.538,-440.564 792.243,-447.353"/>
</g>
<!-- Node5 -->
<g id="node9" class="node"><title>Node5</title>
<a xlink:href="_histogram_factories_8h.html" target="_top" xlink:title="analysis/plot/HistogramFactories.h">
<polygon fill="white" stroke="black" points="2077,-246.5 2077,-267.5 2245,-267.5 2245,-246.5 2077,-246.5"/>
<text text-anchor="middle" x="2161" y="-254.5" font-family="Helvetica,sans-Serif" font-size="10.00">analysis/plot/HistogramFactories.h</text>
</a>
</g>
<!-- Node3&#45;&gt;Node5 -->
<g id="edge8" class="edge"><title>Node3&#45;&gt;Node5</title>
<path fill="none" stroke="midnightblue" d="M660.503,-487.948C899.04,-482.447 1941.24,-454.518 2066,-384 2109.53,-359.397 2139.1,-305.797 2152.62,-276.716"/>
<polygon fill="midnightblue" stroke="midnightblue" points="2155.84,-278.097 2156.73,-267.54 2149.45,-275.237 2155.84,-278.097"/>
</g>
<!-- Node3&#45;&gt;Node15 -->
<g id="edge332" class="edge"><title>Node3&#45;&gt;Node15</title>
<path fill="none" stroke="midnightblue" d="M660.726,-487.629C976.402,-478.595 2719,-426.307 2719,-373 2719,-373 2719,-373 2719,-315 2719,-283.192 2723.95,-266.933 2700,-246 2610.18,-167.487 2530.53,-280.103 2434,-210 2413.56,-195.159 2403.12,-167.052 2398.12,-147.688"/>
<polygon fill="midnightblue" stroke="midnightblue" points="2401.48,-146.674 2395.82,-137.717 2394.65,-148.248 2401.48,-146.674"/>
</g>
<!-- Node16 -->
<g id="node31" class="node"><title>Node16</title>
<a xlink:href="memory_8h.html" target="_top" xlink:title="base/std_ext/memory.h">
<polygon fill="white" stroke="black" points="573.5,-181.5 573.5,-202.5 692.5,-202.5 692.5,-181.5 573.5,-181.5"/>
<text text-anchor="middle" x="633" y="-189.5" font-family="Helvetica,sans-Serif" font-size="10.00">base/std_ext/memory.h</text>
</a>
</g>
<!-- Node3&#45;&gt;Node16 -->
<g id="edge30" class="edge"><title>Node3&#45;&gt;Node16</title>
<path fill="none" stroke="midnightblue" d="M600.465,-478.388C581.064,-459.321 544,-417.12 544,-373 544,-373 544,-373 544,-315 544,-270.048 583.498,-230.401 609.869,-208.941"/>
<polygon fill="midnightblue" stroke="midnightblue" points="612.202,-211.559 617.902,-202.628 607.877,-206.055 612.202,-211.559"/>
</g>
<!-- Node17 -->
<g id="node33" class="node"><title>Node17</title>
<polygon fill="white" stroke="#bfbfbf" points="707,-116.5 707,-137.5 759,-137.5 759,-116.5 707,-116.5"/>
<text text-anchor="middle" x="733" y="-124.5" font-family="Helvetica,sans-Serif" font-size="10.00">memory</text>
</g>
<!-- Node3&#45;&gt;Node17 -->
<g id="edge336" class="edge"><title>Node3&#45;&gt;Node17</title>
<path fill="none" stroke="midnightblue" d="M563.227,-479.854C509.317,-466.594 430,-436.323 430,-373 430,-373 430,-373 430,-257 430,-219.157 421.437,-199.93 449,-174 484.156,-140.926 627.954,-131.005 696.425,-128.127"/>
<polygon fill="midnightblue" stroke="midnightblue" points="696.884,-131.612 706.739,-127.723 696.61,-124.617 696.884,-131.612"/>
</g>
<!-- Node18 -->
<g id="node35" class="node"><title>Node18</title>
<polygon fill="white" stroke="#bfbfbf" points="827.5,-116.5 827.5,-137.5 856.5,-137.5 856.5,-116.5 827.5,-116.5"/>
<text text-anchor="middle" x="842" y="-124.5" font-family="Helvetica,sans-Serif" font-size="10.00">list</text>
</g>
<!-- Node3&#45;&gt;Node18 -->
<g id="edge330" class="edge"><title>Node3&#45;&gt;Node18</title>
<path fill="none" stroke="midnightblue" d="M618.883,-478.166C651.156,-427.373 787.666,-212.518 829.657,-146.426"/>
<polygon fill="midnightblue" stroke="midnightblue" points="832.735,-148.109 835.143,-137.792 826.826,-144.355 832.735,-148.109"/>
</g>
<!-- Node19 -->
<g id="node37" class="node"><title>Node19</title>
<a xlink:href="_t_event_8h.html" target="_top" xlink:title="tree/TEvent.h">
<polygon fill="white" stroke="black" points="180,-181.5 180,-202.5 256,-202.5 256,-181.5 180,-181.5"/>
<text text-anchor="middle" x="218" y="-189.5" font-family="Helvetica,sans-Serif" font-size="10.00">tree/TEvent.h</text>
</a>
</g>
<!-- Node3&#45;&gt;Node19 -->
<g id="edge36" class="edge"><title>Node3&#45;&gt;Node19</title>
<path fill="none" stroke="midnightblue" d="M563.307,-482.249C471.512,-468.149 282,-431.906 282,-373 282,-373 282,-373 282,-315 282,-274.018 253.694,-233.145 234.732,-210.362"/>
<polygon fill="midnightblue" stroke="midnightblue" points="237.18,-207.842 228,-202.553 231.878,-212.412 237.18,-207.842"/>
</g>
<!-- Node21 -->
<g id="node44" class="node"><title>Node21</title>
<a xlink:href="_t_event_data_8h.html" target="_top" xlink:title="tree/TEventData.h">
<polygon fill="white" stroke="black" points="1384.5,-420.5 1384.5,-441.5 1481.5,-441.5 1481.5,-420.5 1384.5,-420.5"/>
<text text-anchor="middle" x="1433" y="-428.5" font-family="Helvetica,sans-Serif" font-size="10.00">tree/TEventData.h</text>
</a>
</g>
<!-- Node3&#45;&gt;Node21 -->
<g id="edge46" class="edge"><title>Node3&#45;&gt;Node21</title>
<path fill="none" stroke="midnightblue" d="M660.595,-485.567C803.031,-475.504 1219.2,-446.104 1374.05,-435.164"/>
<polygon fill="midnightblue" stroke="midnightblue" points="1374.58,-438.636 1384.3,-434.44 1374.08,-431.654 1374.58,-438.636"/>
</g>
<!-- Node52 -->
<g id="node160" class="node"><title>Node52</title>
<polygon fill="white" stroke="#bfbfbf" points="339.5,-116.5 339.5,-137.5 398.5,-137.5 398.5,-116.5 339.5,-116.5"/>
<text text-anchor="middle" x="369" y="-124.5" font-family="Helvetica,sans-Serif" font-size="10.00">functional</text>
</g>
<!-- Node3&#45;&gt;Node52 -->
<g id="edge338" class="edge"><title>Node3&#45;&gt;Node52</title>
<path fill="none" stroke="midnightblue" d="M563.276,-484.09C505.827,-477.594 407.807,-464.282 326,-442 257.035,-423.216 234.836,-424.587 176,-384 142.063,-360.589 114,-356.228 114,-315 114,-315 114,-315 114,-257 114,-161.446 257.876,-136.093 329.484,-129.393"/>
<polygon fill="midnightblue" stroke="midnightblue" points="329.835,-132.875 339.499,-128.533 329.236,-125.901 329.835,-132.875"/>
</g>
<!-- Node3&#45;&gt;Node56 -->
<g id="edge334" class="edge"><title>Node3&#45;&gt;Node56</title>
<path fill="none" stroke="midnightblue" d="M563.245,-485.103C476.889,-477.819 300.632,-461.138 242,-442 191.319,-425.457 173.375,-422.976 137,-384 73.9979,-316.494 72.3661,-196.185 74.5399,-147.902"/>
<polygon fill="midnightblue" stroke="midnightblue" points="78.0442,-147.921 75.1065,-137.742 71.055,-147.532 78.0442,-147.921"/>
</g>
<!-- Node61 -->
<g id="node209" class="node"><title>Node61</title>
<a xlink:href="_options_list_8h.html" target="_top" xlink:title="base/OptionsList.h">
<polygon fill="white" stroke="black" points="458,-181.5 458,-202.5 556,-202.5 556,-181.5 458,-181.5"/>
<text text-anchor="middle" x="507" y="-189.5" font-family="Helvetica,sans-Serif" font-size="10.00">base/OptionsList.h</text>
</a>
</g>
<!-- Node3&#45;&gt;Node61 -->
<g id="edge296" class="edge"><title>Node3&#45;&gt;Node61</title>
<path fill="none" stroke="midnightblue" d="M591.31,-478.404C560.463,-460.955 506,-423.06 506,-373 506,-373 506,-373 506,-315 506,-279.051 506.432,-237.194 506.729,-212.744"/>
<polygon fill="midnightblue" stroke="midnightblue" points="510.231,-212.573 506.857,-202.53 503.231,-212.485 510.231,-212.573"/>
</g>
<!-- Node63 -->
<g id="node217" class="node"><title>Node63</title>
<a xlink:href="root__draw_8h.html" target="_top" xlink:title="analysis/plot/root\l_draw.h">
<polygon fill="white" stroke="black" points="311.5,-175 311.5,-209 402.5,-209 402.5,-175 311.5,-175"/>
<text text-anchor="start" x="319.5" y="-196" font-family="Helvetica,sans-Serif" font-size="10.00">analysis/plot/root</text>
<text text-anchor="middle" x="357" y="-183" font-family="Helvetica,sans-Serif" font-size="10.00">_draw.h</text>
</a>
</g>
<!-- Node3&#45;&gt;Node63 -->
<g id="edge308" class="edge"><title>Node3&#45;&gt;Node63</title>
<path fill="none" stroke="midnightblue" d="M563.204,-481.747C513.042,-473.522 439.101,-459.021 416,-442 387.281,-420.84 375,-408.672 375,-373 375,-373 375,-373 375,-315 375,-281.764 368.486,-244.004 363.296,-219.191"/>
<polygon fill="midnightblue" stroke="midnightblue" points="366.712,-218.432 361.175,-209.4 359.871,-219.914 366.712,-218.432"/>
</g>
<!-- Node3&#45;&gt;Node64 -->
<g id="edge324" class="edge"><title>Node3&#45;&gt;Node64</title>
<path fill="none" stroke="midnightblue" d="M563.202,-487.593C470.613,-484.26 263.372,-473.632 92,-442 90.9277,-441.802 89.8423,-441.588 88.7492,-441.36"/>
<polygon fill="midnightblue" stroke="midnightblue" points="89.3936,-437.916 78.8557,-439.013 87.7778,-444.727 89.3936,-437.916"/>
</g>
<!-- Node3&#45;&gt;Node65 -->
<g id="edge326" class="edge"><title>Node3&#45;&gt;Node65</title>
<path fill="none" stroke="midnightblue" d="M660.576,-488.715C936.697,-486.976 2311.09,-476.686 2733,-442 2746.59,-440.883 2761.45,-438.935 2774.45,-436.985"/>
<polygon fill="midnightblue" stroke="midnightblue" points="2775.08,-440.43 2784.42,-435.438 2774,-433.513 2775.08,-440.43"/>
</g>
<!-- Node66 -->
<g id="node230" class="node"><title>Node66</title>
<polygon fill="white" stroke="#bfbfbf" points="701.5,-420.5 701.5,-441.5 752.5,-441.5 752.5,-420.5 701.5,-420.5"/>
<text text-anchor="middle" x="727" y="-428.5" font-family="Helvetica,sans-Serif" font-size="10.00">TH3D.h</text>
</g>
<!-- Node3&#45;&gt;Node66 -->
<g id="edge328" class="edge"><title>Node3&#45;&gt;Node66</title>
<path fill="none" stroke="midnightblue" d="M632.826,-478.497C650.706,-469.479 676.707,-456.365 696.861,-446.201"/>
<polygon fill="midnightblue" stroke="midnightblue" points="698.588,-449.249 705.941,-441.621 695.436,-442.999 698.588,-449.249"/>
</g>
<!-- Node5&#45;&gt;Node6 -->
<g id="edge10" class="edge"><title>Node5&#45;&gt;Node6</title>
<path fill="none" stroke="midnightblue" d="M2122.01,-246.484C2080.27,-235.227 2013.97,-217.345 1968.8,-205.162"/>
<polygon fill="midnightblue" stroke="midnightblue" points="1969.5,-201.725 1958.93,-202.501 1967.68,-208.484 1969.5,-201.725"/>
</g>
<!-- Node5&#45;&gt;Node15 -->
<g id="edge28" class="edge"><title>Node5&#45;&gt;Node15</title>
<path fill="none" stroke="midnightblue" d="M2166.51,-246.255C2176.23,-228.413 2198.15,-192.783 2227,-174 2277.53,-141.106 2302.15,-155.65 2363.45,-138.159"/>
<polygon fill="midnightblue" stroke="midnightblue" points="2364.63,-141.457 2373.19,-135.201 2362.6,-134.759 2364.63,-141.457"/>
</g>
<!-- Node7 -->
<g id="node13" class="node"><title>Node7</title>
<a xlink:href="printable_8h.html" target="_top" xlink:title="printable.h">
<polygon fill="white" stroke="black" points="894,-58.5 894,-79.5 956,-79.5 956,-58.5 894,-58.5"/>
<text text-anchor="middle" x="925" y="-66.5" font-family="Helvetica,sans-Serif" font-size="10.00">printable.h</text>
</a>
</g>
<!-- Node6&#45;&gt;Node7 -->
<g id="edge12" class="edge"><title>Node6&#45;&gt;Node7</title>
<path fill="none" stroke="midnightblue" d="M1950.03,-181.474C1990.44,-167.171 2057.69,-142.819 2061,-138 2066.54,-129.944 2067.77,-123.055 2061,-116 2022.38,-75.7487 1166,-69.9355 966.343,-69.1265"/>
<polygon fill="midnightblue" stroke="midnightblue" points="966.279,-65.6263 956.265,-69.0877 966.252,-72.6263 966.279,-65.6263"/>
</g>
<!-- Node10 -->
<g id="node19" class="node"><title>Node10</title>
<a xlink:href="types_8h.html" target="_top" xlink:title="types.h">
<polygon fill="white" stroke="black" points="949.5,-116.5 949.5,-137.5 998.5,-137.5 998.5,-116.5 949.5,-116.5"/>
<text text-anchor="middle" x="974" y="-124.5" font-family="Helvetica,sans-Serif" font-size="10.00">types.h</text>
</a>
</g>
<!-- Node6&#45;&gt;Node10 -->
<g id="edge18" class="edge"><title>Node6&#45;&gt;Node10</title>
<path fill="none" stroke="midnightblue" d="M1879.99,-187.99C1839.45,-184.028 1774.91,-177.996 1719,-174 1419.78,-152.618 1343.38,-169.003 1045,-138 1033.13,-136.766 1020.21,-134.918 1008.68,-133.086"/>
<polygon fill="midnightblue" stroke="midnightblue" points="1009,-129.591 998.565,-131.427 1007.87,-136.499 1009,-129.591"/>
</g>
<!-- Node11 -->
<g id="node21" class="node"><title>Node11</title>
<polygon fill="white" stroke="#bfbfbf" points="1850,-116.5 1850,-137.5 1906,-137.5 1906,-116.5 1850,-116.5"/>
<text text-anchor="middle" x="1878" y="-124.5" font-family="Helvetica,sans-Serif" font-size="10.00">algorithm</text>
</g>
<!-- Node6&#45;&gt;Node11 -->
<g id="edge20" class="edge"><title>Node6&#45;&gt;Node11</title>
<path fill="none" stroke="midnightblue" d="M1913.06,-181.267C1906.89,-171.707 1897.71,-157.496 1890.29,-146.015"/>
<polygon fill="midnightblue" stroke="midnightblue" points="1893.17,-144.033 1884.81,-137.534 1887.29,-147.832 1893.17,-144.033"/>
</g>
<!-- Node12 -->
<g id="node23" class="node"><title>Node12</title>
<polygon fill="white" stroke="#bfbfbf" points="1923.5,-116.5 1923.5,-137.5 1982.5,-137.5 1982.5,-116.5 1923.5,-116.5"/>
<text text-anchor="middle" x="1953" y="-124.5" font-family="Helvetica,sans-Serif" font-size="10.00">stdexcept</text>
</g>
<!-- Node6&#45;&gt;Node12 -->
<g id="edge22" class="edge"><title>Node6&#45;&gt;Node12</title>
<path fill="none" stroke="midnightblue" d="M1925.45,-181.267C1930.21,-171.896 1937.23,-158.057 1943,-146.7"/>
<polygon fill="midnightblue" stroke="midnightblue" points="1946.25,-148.035 1947.65,-137.534 1940,-144.866 1946.25,-148.035"/>
</g>
<!-- Node13 -->
<g id="node25" class="node"><title>Node13</title>
<polygon fill="white" stroke="#bfbfbf" points="1955,-58.5 1955,-79.5 1995,-79.5 1995,-58.5 1955,-58.5"/>
<text text-anchor="middle" x="1975" y="-66.5" font-family="Helvetica,sans-Serif" font-size="10.00">limits</text>
</g>
<!-- Node6&#45;&gt;Node13 -->
<g id="edge24" class="edge"><title>Node6&#45;&gt;Node13</title>
<path fill="none" stroke="midnightblue" d="M1951.07,-181.464C1958.57,-178.972 1966.56,-176.356 1974,-174 2027.08,-157.194 2060.76,-182.673 2094,-138 2120.01,-103.042 2048.5,-82.8644 2005.26,-74.1565"/>
<polygon fill="midnightblue" stroke="midnightblue" points="2005.69,-70.6758 1995.21,-72.2346 2004.38,-77.5511 2005.69,-70.6758"/>
</g>
<!-- Node14 -->
<g id="node27" class="node"><title>Node14</title>
<polygon fill="white" stroke="#bfbfbf" points="2307.5,-116.5 2307.5,-137.5 2356.5,-137.5 2356.5,-116.5 2307.5,-116.5"/>
<text text-anchor="middle" x="2332" y="-124.5" font-family="Helvetica,sans-Serif" font-size="10.00">istream</text>
</g>
<!-- Node6&#45;&gt;Node14 -->
<g id="edge26" class="edge"><title>Node6&#45;&gt;Node14</title>
<path fill="none" stroke="midnightblue" d="M1947.99,-181.43C1956.27,-178.645 1965.41,-175.893 1974,-174 2113.77,-143.202 2153.65,-165.999 2294,-138 2295.08,-137.785 2296.17,-137.554 2297.27,-137.31"/>
<polygon fill="midnightblue" stroke="midnightblue" points="2298.36,-140.646 2307.21,-134.83 2296.66,-133.854 2298.36,-140.646"/>
</g>
<!-- Node8 -->
<g id="node15" class="node"><title>Node8</title>
<polygon fill="white" stroke="#bfbfbf" points="1566,-0.5 1566,-21.5 1610,-21.5 1610,-0.5 1566,-0.5"/>
<text text-anchor="middle" x="1588" y="-8.5" font-family="Helvetica,sans-Serif" font-size="10.00">vector</text>
</g>
<!-- Node7&#45;&gt;Node8 -->
<g id="edge14" class="edge"><title>Node7&#45;&gt;Node8</title>
<path fill="none" stroke="midnightblue" d="M956.371,-64.6923C972.901,-62.5089 993.526,-59.9207 1012,-58 1218.93,-36.4869 1468.53,-18.9894 1555.92,-13.1161"/>
<polygon fill="midnightblue" stroke="midnightblue" points="1556.25,-16.602 1565.99,-12.4424 1555.78,-9.61758 1556.25,-16.602"/>
</g>
<!-- Node9 -->
<g id="node17" class="node"><title>Node9</title>
<polygon fill="white" stroke="#bfbfbf" points="399,-0.5 399,-21.5 451,-21.5 451,-0.5 399,-0.5"/>
<text text-anchor="middle" x="425" y="-8.5" font-family="Helvetica,sans-Serif" font-size="10.00">ostream</text>
</g>
<!-- Node7&#45;&gt;Node9 -->
<g id="edge16" class="edge"><title>Node7&#45;&gt;Node9</title>
<path fill="none" stroke="midnightblue" d="M893.723,-65.3718C805.512,-55.1394 555.081,-26.0894 461.167,-15.1953"/>
<polygon fill="midnightblue" stroke="midnightblue" points="461.361,-11.6944 451.024,-14.0188 460.554,-18.6478 461.361,-11.6944"/>
</g>
<!-- Node16&#45;&gt;Node17 -->
<g id="edge32" class="edge"><title>Node16&#45;&gt;Node17</title>
<path fill="none" stroke="midnightblue" d="M649.513,-181.267C665.531,-170.855 690.036,-154.927 708.36,-143.016"/>
<polygon fill="midnightblue" stroke="midnightblue" points="710.317,-145.918 716.794,-137.534 706.502,-140.049 710.317,-145.918"/>
</g>
<!-- Node16&#45;&gt;Node18 -->
<g id="edge34" class="edge"><title>Node16&#45;&gt;Node18</title>
<path fill="none" stroke="midnightblue" d="M667.045,-181.412C709.155,-168.315 779.838,-146.333 817.169,-134.723"/>
<polygon fill="midnightblue" stroke="midnightblue" points="818.68,-137.918 827.189,-131.606 816.601,-131.234 818.68,-137.918"/>
</g>
<!-- Node19&#45;&gt;Node7 -->
<g id="edge40" class="edge"><title>Node19&#45;&gt;Node7</title>
<path fill="none" stroke="midnightblue" d="M205.652,-181.239C188.844,-165.339 162.82,-135.365 181,-116 205.195,-90.2279 730.112,-74.2099 883.353,-70.0708"/>
<polygon fill="midnightblue" stroke="midnightblue" points="883.83,-73.5594 893.732,-69.7933 883.642,-66.5619 883.83,-73.5594"/>
</g>
<!-- Node19&#45;&gt;Node12 -->
<g id="edge44" class="edge"><title>Node19&#45;&gt;Node12</title>
<path fill="none" stroke="midnightblue" d="M256.255,-182.316C270.793,-179.054 287.567,-175.791 303,-174 655.709,-133.078 1544.57,-191.204 1913.34,-137.876"/>
<polygon fill="midnightblue" stroke="midnightblue" points="1913.92,-141.328 1923.29,-136.39 1912.89,-134.405 1913.92,-141.328"/>
</g>
<!-- Node19&#45;&gt;Node17 -->
<g id="edge42" class="edge"><title>Node19&#45;&gt;Node17</title>
<path fill="none" stroke="midnightblue" d="M256.353,-183.029C270.903,-179.85 287.659,-176.457 303,-174 447.888,-150.8 622.099,-135.635 696.469,-129.755"/>
<polygon fill="midnightblue" stroke="midnightblue" points="697.005,-133.224 706.701,-128.955 696.459,-126.245 697.005,-133.224"/>
</g>
<!-- Node20 -->
<g id="node39" class="node"><title>Node20</title>
<polygon fill="white" stroke="#bfbfbf" points="190,-116.5 190,-137.5 246,-137.5 246,-116.5 190,-116.5"/>
<text text-anchor="middle" x="218" y="-124.5" font-family="Helvetica,sans-Serif" font-size="10.00">Rtypes.h</text>
</g>
<!-- Node19&#45;&gt;Node20 -->
<g id="edge38" class="edge"><title>Node19&#45;&gt;Node20</title>
<path fill="none" stroke="midnightblue" d="M218,-181.267C218,-172.18 218,-158.892 218,-147.74"/>
<polygon fill="midnightblue" stroke="midnightblue" points="221.5,-147.534 218,-137.534 214.5,-147.534 221.5,-147.534"/>
</g>
<!-- Node21&#45;&gt;Node7 -->
<g id="edge48" class="edge"><title>Node21&#45;&gt;Node7</title>
<path fill="none" stroke="midnightblue" d="M1384.28,-430.433C1163.15,-426.814 256.288,-400.407 65,-210 34.5905,-179.73 13.4786,-147.136 43,-116 72.2585,-85.1408 713.215,-72.4696 883.675,-69.6384"/>
<polygon fill="midnightblue" stroke="midnightblue" points="883.812,-73.1367 893.753,-69.4734 883.697,-66.1377 883.812,-73.1367"/>
</g>
<!-- Node22 -->
<g id="node47" class="node"><title>Node22</title>
<a xlink:href="_t_i_d_8h.html" target="_top" xlink:title="TID.h">
<polygon fill="white" stroke="black" points="2239.5,-304.5 2239.5,-325.5 2280.5,-325.5 2280.5,-304.5 2239.5,-304.5"/>
<text text-anchor="middle" x="2260" y="-312.5" font-family="Helvetica,sans-Serif" font-size="10.00">TID.h</text>
</a>
</g>
<!-- Node21&#45;&gt;Node22 -->
<g id="edge50" class="edge"><title>Node21&#45;&gt;Node22</title>
<path fill="none" stroke="midnightblue" d="M1481.63,-429.67C1614.52,-425.703 1981.7,-412.416 2099,-384 2147.75,-372.191 2200.51,-346.956 2231.88,-330.498"/>
<polygon fill="midnightblue" stroke="midnightblue" points="2233.72,-333.485 2240.9,-325.697 2230.43,-327.306 2233.72,-333.485"/>
</g>
<!-- Node32 -->
<g id="node75" class="node"><title>Node32</title>
<a xlink:href="_t_detector_read_hit_8h.html" target="_top" xlink:title="TDetectorReadHit.h">
<polygon fill="white" stroke="black" points="1879,-246.5 1879,-267.5 1983,-267.5 1983,-246.5 1879,-246.5"/>
<text text-anchor="middle" x="1931" y="-254.5" font-family="Helvetica,sans-Serif" font-size="10.00">TDetectorReadHit.h</text>
</a>
</g>
<!-- Node21&#45;&gt;Node32 -->
<g id="edge86" class="edge"><title>Node21&#45;&gt;Node32</title>
<path fill="none" stroke="midnightblue" d="M1451.28,-420.478C1493.85,-396.397 1603.52,-336.827 1702,-304 1757.06,-285.645 1822.07,-273.131 1868.72,-265.659"/>
<polygon fill="midnightblue" stroke="midnightblue" points="1869.35,-269.104 1878.69,-264.095 1868.27,-262.188 1869.35,-269.104"/>
</g>
<!-- Node37 -->
<g id="node95" class="node"><title>Node37</title>
<a xlink:href="_t_slow_control_8h.html" target="_top" xlink:title="TSlowControl.h">
<polygon fill="white" stroke="black" points="2370,-362.5 2370,-383.5 2454,-383.5 2454,-362.5 2370,-362.5"/>
<text text-anchor="middle" x="2412" y="-370.5" font-family="Helvetica,sans-Serif" font-size="10.00">TSlowControl.h</text>
</a>
</g>
<!-- Node21&#45;&gt;Node37 -->
<g id="edge116" class="edge"><title>Node21&#45;&gt;Node37</title>
<path fill="none" stroke="midnightblue" d="M1481.55,-428.124C1647.16,-418.312 2189.03,-386.21 2359.9,-376.087"/>
<polygon fill="midnightblue" stroke="midnightblue" points="2360.12,-379.58 2369.9,-375.494 2359.71,-372.592 2360.12,-379.58"/>
</g>
<!-- Node38 -->
<g id="node102" class="node"><title>Node38</title>
<a xlink:href="_t_unpacker_message_8h.html" target="_top" xlink:title="TUnpackerMessage.h">
<polygon fill="white" stroke="black" points="835.5,-246.5 835.5,-267.5 948.5,-267.5 948.5,-246.5 835.5,-246.5"/>
<text text-anchor="middle" x="892" y="-254.5" font-family="Helvetica,sans-Serif" font-size="10.00">TUnpackerMessage.h</text>
</a>
</g>
<!-- Node21&#45;&gt;Node38 -->
<g id="edge128" class="edge"><title>Node21&#45;&gt;Node38</title>
<path fill="none" stroke="midnightblue" d="M1384.33,-426.782C1300.46,-419.151 1132.3,-402.151 1076,-384 1024.14,-367.282 1012.5,-357.435 968,-326 946.385,-310.731 924.273,-289.959 909.514,-275.206"/>
<polygon fill="midnightblue" stroke="midnightblue" points="911.633,-272.369 902.122,-267.702 906.647,-277.282 911.633,-272.369"/>
</g>
<!-- Node45 -->
<g id="node124" class="node"><title>Node45</title>
<a xlink:href="_t_tagger_hit_8h.html" target="_top" xlink:title="TTaggerHit.h">
<polygon fill="white" stroke="black" points="1983,-362.5 1983,-383.5 2057,-383.5 2057,-362.5 1983,-362.5"/>
<text text-anchor="middle" x="2020" y="-370.5" font-family="Helvetica,sans-Serif" font-size="10.00">TTaggerHit.h</text>
</a>
</g>
<!-- Node21&#45;&gt;Node45 -->
<g id="edge158" class="edge"><title>Node21&#45;&gt;Node45</title>
<path fill="none" stroke="midnightblue" d="M1481.54,-426.204C1592.37,-415.253 1862.92,-388.521 1972.62,-377.681"/>
<polygon fill="midnightblue" stroke="midnightblue" points="1973.12,-381.149 1982.73,-376.683 1972.43,-374.183 1973.12,-381.149"/>
</g>
<!-- Node47 -->
<g id="node134" class="node"><title>Node47</title>
<a xlink:href="_t_trigger_8h.html" target="_top" xlink:title="TTrigger.h">
<polygon fill="white" stroke="black" points="925.5,-181.5 925.5,-202.5 986.5,-202.5 986.5,-181.5 925.5,-181.5"/>
<text text-anchor="middle" x="956" y="-189.5" font-family="Helvetica,sans-Serif" font-size="10.00">TTrigger.h</text>
</a>
</g>
<!-- Node21&#45;&gt;Node47 -->
<g id="edge174" class="edge"><title>Node21&#45;&gt;Node47</title>
<path fill="none" stroke="midnightblue" d="M1384.45,-428.072C1290.33,-421.969 1086.46,-406.558 1020,-384 925.232,-351.831 876.276,-355.107 827,-268 822.186,-259.49 821.583,-254.14 827,-246 837.345,-230.455 881.829,-214.095 915.694,-203.512"/>
<polygon fill="midnightblue" stroke="midnightblue" points="916.829,-206.825 925.368,-200.553 914.782,-200.131 916.829,-206.825"/>
</g>
<!-- Node48 -->
<g id="node141" class="node"><title>Node48</title>
<a xlink:href="_t_target_8h.html" target="_top" xlink:title="TTarget.h">
<polygon fill="white" stroke="black" points="1079.5,-181.5 1079.5,-202.5 1138.5,-202.5 1138.5,-181.5 1079.5,-181.5"/>
<text text-anchor="middle" x="1109" y="-189.5" font-family="Helvetica,sans-Serif" font-size="10.00">TTarget.h</text>
</a>
</g>
<!-- Node21&#45;&gt;Node48 -->
<g id="edge186" class="edge"><title>Node21&#45;&gt;Node48</title>
<path fill="none" stroke="midnightblue" d="M1384.49,-424.535C1327.85,-416.347 1238.17,-401.215 1209,-384 1150.38,-349.409 1132.71,-331.807 1109,-268 1102.42,-250.284 1103.2,-228.601 1105.17,-212.936"/>
<polygon fill="midnightblue" stroke="midnightblue" points="1108.68,-213.148 1106.72,-202.735 1101.76,-212.094 1108.68,-213.148"/>
</g>
<!-- Node50 -->
<g id="node152" class="node"><title>Node50</title>
<a xlink:href="_t_cluster_8h.html" target="_top" xlink:title="TCluster.h">
<polygon fill="white" stroke="black" points="2339,-246.5 2339,-267.5 2401,-267.5 2401,-246.5 2339,-246.5"/>
<text text-anchor="middle" x="2370" y="-254.5" font-family="Helvetica,sans-Serif" font-size="10.00">TCluster.h</text>
</a>
</g>
<!-- Node21&#45;&gt;Node50 -->
<g id="edge204" class="edge"><title>Node21&#45;&gt;Node50</title>
<path fill="none" stroke="midnightblue" d="M1481.84,-430.568C1610.84,-428.922 1958.14,-421.073 2066,-384 2082.67,-378.27 2083.54,-370.466 2099,-362 2176.49,-319.565 2274.76,-286.057 2329.13,-269.117"/>
<polygon fill="midnightblue" stroke="midnightblue" points="2330.23,-272.439 2338.76,-266.148 2328.17,-265.75 2330.23,-272.439"/>
</g>
<!-- Node53 -->
<g id="node169" class="node"><title>Node53</title>
<a xlink:href="_t_candidate_8h.html" target="_top" xlink:title="TCandidate.h">
<polygon fill="white" stroke="black" points="1710.5,-304.5 1710.5,-325.5 1785.5,-325.5 1785.5,-304.5 1710.5,-304.5"/>
<text text-anchor="middle" x="1748" y="-312.5" font-family="Helvetica,sans-Serif" font-size="10.00">TCandidate.h</text>
</a>
</g>
<!-- Node21&#45;&gt;Node53 -->
<g id="edge232" class="edge"><title>Node21&#45;&gt;Node53</title>
<path fill="none" stroke="midnightblue" d="M1481.72,-427.272C1528.89,-422.212 1601.5,-410.526 1659,-384 1686.46,-371.33 1713.23,-348.779 1730.12,-332.914"/>
<polygon fill="midnightblue" stroke="midnightblue" points="1732.8,-335.192 1737.57,-325.735 1727.94,-330.15 1732.8,-335.192"/>
</g>
<!-- Node54 -->
<g id="node178" class="node"><title>Node54</title>
<a xlink:href="_t_particle_8h.html" target="_top" xlink:title="TParticle.h">
<polygon fill="white" stroke="black" points="1218,-362.5 1218,-383.5 1282,-383.5 1282,-362.5 1218,-362.5"/>
<text text-anchor="middle" x="1250" y="-370.5" font-family="Helvetica,sans-Serif" font-size="10.00">TParticle.h</text>
</a>
</g>
<!-- Node21&#45;&gt;Node54 -->
<g id="edge248" class="edge"><title>Node21&#45;&gt;Node54</title>
<path fill="none" stroke="midnightblue" d="M1399.86,-420.497C1369.62,-410.911 1324.77,-396.699 1292.03,-386.319"/>
<polygon fill="midnightblue" stroke="midnightblue" points="1292.87,-382.915 1282.28,-383.231 1290.75,-389.588 1292.87,-382.915"/>
</g>
<!-- Node22&#45;&gt;Node7 -->
<g id="edge54" class="edge"><title>Node22&#45;&gt;Node7</title>
<path fill="none" stroke="midnightblue" d="M2239.2,-312.95C2179.19,-306.96 2000.59,-288.6 1853,-268 1774.05,-256.98 1575.38,-232.819 1499,-210 1461.25,-198.723 1454.6,-188.579 1418,-174 1346.18,-145.389 1329.08,-134.446 1254,-116 1152.3,-91.0144 1029.43,-77.8326 966.534,-72.2765"/>
<polygon fill="midnightblue" stroke="midnightblue" points="966.499,-68.7605 956.235,-71.3879 965.897,-75.7346 966.499,-68.7605"/>
</g>
<!-- Node22&#45;&gt;Node12 -->
<g id="edge78" class="edge"><title>Node22&#45;&gt;Node12</title>
<path fill="none" stroke="midnightblue" d="M2239.47,-314.089C2162.57,-310.471 1894.77,-295.937 1870,-268 1859.46,-256.116 1837.98,-230.085 1871,-174 1880.46,-157.925 1897.69,-146.858 1913.93,-139.522"/>
<polygon fill="midnightblue" stroke="midnightblue" points="1915.41,-142.694 1923.3,-135.623 1912.72,-136.231 1915.41,-142.694"/>
</g>
<!-- Node22&#45;&gt;Node18 -->
<g id="edge80" class="edge"><title>Node22&#45;&gt;Node18</title>
<path fill="none" stroke="midnightblue" d="M2239.1,-313.912C2089.45,-306.022 1183.35,-256.56 1071,-210 1047.97,-200.458 1050.2,-185.338 1028,-174 974.508,-146.676 904.076,-134.525 867.118,-129.729"/>
<polygon fill="midnightblue" stroke="midnightblue" points="867.129,-126.205 856.778,-128.468 866.281,-133.153 867.129,-126.205"/>
</g>
<!-- Node22&#45;&gt;Node20 -->
<g id="edge52" class="edge"><title>Node22&#45;&gt;Node20</title>
<path fill="none" stroke="midnightblue" d="M2239.04,-314.473C2084.49,-310.559 1119.25,-285.699 827,-268 808.74,-266.894 183.353,-223.493 171,-210 152.836,-190.16 176.646,-162.08 196.476,-144.206"/>
<polygon fill="midnightblue" stroke="midnightblue" points="198.768,-146.851 204.055,-137.67 194.197,-141.55 198.768,-146.851"/>
</g>
<!-- Node23 -->
<g id="node51" class="node"><title>Node23</title>
<a xlink:href="time_8h.html" target="_top" xlink:title="base/std_ext/time.h">
<polygon fill="white" stroke="black" points="2588.5,-246.5 2588.5,-267.5 2691.5,-267.5 2691.5,-246.5 2588.5,-246.5"/>
<text text-anchor="middle" x="2640" y="-254.5" font-family="Helvetica,sans-Serif" font-size="10.00">base/std_ext/time.h</text>
</a>
</g>
<!-- Node22&#45;&gt;Node23 -->
<g id="edge56" class="edge"><title>Node22&#45;&gt;Node23</title>
<path fill="none" stroke="midnightblue" d="M2280.72,-306.46C2283.47,-305.527 2286.28,-304.673 2289,-304 2412.28,-273.462 2449.32,-287.022 2578.07,-268.209"/>
<polygon fill="midnightblue" stroke="midnightblue" points="2578.95,-271.616 2588.32,-266.672 2577.91,-264.694 2578.95,-271.616"/>
</g>
<!-- Node27 -->
<g id="node62" class="node"><title>Node27</title>
<polygon fill="white" stroke="#bfbfbf" points="2739.5,-181.5 2739.5,-202.5 2780.5,-202.5 2780.5,-181.5 2739.5,-181.5"/>
<text text-anchor="middle" x="2760" y="-189.5" font-family="Helvetica,sans-Serif" font-size="10.00">ctime</text>
</g>
<!-- Node22&#45;&gt;Node27 -->
<g id="edge84" class="edge"><title>Node22&#45;&gt;Node27</title>
<path fill="none" stroke="midnightblue" d="M2280.76,-306.62C2283.51,-305.661 2286.3,-304.758 2289,-304 2372.58,-280.512 2398.84,-296.062 2481,-268 2501.31,-261.061 2503.65,-252.847 2524,-246 2610.43,-216.913 2639.78,-239.691 2726,-210 2728.43,-209.163 2730.9,-208.17 2733.34,-207.088"/>
<polygon fill="midnightblue" stroke="midnightblue" points="2735.03,-210.156 2742.47,-202.609 2731.95,-203.871 2735.03,-210.156"/>
</g>
<!-- Node28 -->
<g id="node64" class="node"><title>Node28</title>
<polygon fill="white" stroke="#bfbfbf" points="2584,-116.5 2584,-137.5 2646,-137.5 2646,-116.5 2584,-116.5"/>
<text text-anchor="middle" x="2615" y="-124.5" font-family="Helvetica,sans-Serif" font-size="10.00">type_traits</text>
</g>
<!-- Node22&#45;&gt;Node28 -->
<g id="edge72" class="edge"><title>Node22&#45;&gt;Node28</title>
<path fill="none" stroke="midnightblue" d="M2280.8,-306.737C2283.54,-305.759 2286.32,-304.819 2289,-304 2355.8,-283.568 2376.93,-293.414 2442,-268 2460.54,-260.76 2462.93,-254.347 2481,-246 2523.12,-226.538 2545.26,-241.859 2579,-210 2596.76,-193.232 2606.22,-166.215 2610.92,-147.584"/>
<polygon fill="midnightblue" stroke="midnightblue" points="2614.36,-148.251 2613.16,-137.724 2607.53,-146.7 2614.36,-148.251"/>
</g>
<!-- Node29 -->
<g id="node66" class="node"><title>Node29</title>
<polygon fill="white" stroke="#bfbfbf" points="2533,-246.5 2533,-267.5 2571,-267.5 2571,-246.5 2533,-246.5"/>
<text text-anchor="middle" x="2552" y="-254.5" font-family="Helvetica,sans-Serif" font-size="10.00">tuple</text>
</g>
<!-- Node22&#45;&gt;Node29 -->
<g id="edge74" class="edge"><title>Node22&#45;&gt;Node29</title>
<path fill="none" stroke="midnightblue" d="M2280.74,-306.543C2283.49,-305.596 2286.29,-304.717 2289,-304 2389.02,-277.51 2418.46,-292.444 2519,-268 2520.43,-267.652 2521.89,-267.271 2523.35,-266.866"/>
<polygon fill="midnightblue" stroke="midnightblue" points="2524.41,-270.202 2532.96,-263.945 2522.38,-263.505 2524.41,-270.202"/>
</g>
<!-- Node30 -->
<g id="node68" class="node"><title>Node30</title>
<polygon fill="white" stroke="#bfbfbf" points="2887,-116.5 2887,-137.5 2933,-137.5 2933,-116.5 2887,-116.5"/>
<text text-anchor="middle" x="2910" y="-124.5" font-family="Helvetica,sans-Serif" font-size="10.00">cstdint</text>
</g>
<!-- Node22&#45;&gt;Node30 -->
<g id="edge76" class="edge"><title>Node22&#45;&gt;Node30</title>
<path fill="none" stroke="midnightblue" d="M2280.7,-306.367C2283.45,-305.449 2286.27,-304.625 2289,-304 2467.75,-263.098 2521.25,-308.885 2700,-268 2770.89,-251.785 2795.8,-254.913 2853,-210 2874.68,-192.979 2891.27,-165.441 2900.83,-146.797"/>
<polygon fill="midnightblue" stroke="midnightblue" points="2904.02,-148.238 2905.28,-137.719 2897.73,-145.154 2904.02,-148.238"/>
</g>
<!-- Node31 -->
<g id="node72" class="node"><title>Node31</title>
<polygon fill="white" stroke="#bfbfbf" points="2054,-181.5 2054,-202.5 2104,-202.5 2104,-181.5 2054,-181.5"/>
<text text-anchor="middle" x="2079" y="-189.5" font-family="Helvetica,sans-Serif" font-size="10.00">iomanip</text>
</g>
<!-- Node22&#45;&gt;Node31 -->
<g id="edge82" class="edge"><title>Node22&#45;&gt;Node31</title>
<path fill="none" stroke="midnightblue" d="M2262.41,-304.325C2265.09,-289.508 2267.44,-262.655 2254,-246 2245.03,-234.884 2162.41,-212.762 2113.97,-200.566"/>
<polygon fill="midnightblue" stroke="midnightblue" points="2114.74,-197.151 2104.19,-198.121 2113.04,-203.942 2114.74,-197.151"/>
</g>
<!-- Node24 -->
<g id="node53" class="node"><title>Node24</title>
<a xlink:href="string_8h.html" target="_top" xlink:title="base/std_ext/string.h">
<polygon fill="white" stroke="black" points="2236,-181.5 2236,-202.5 2344,-202.5 2344,-181.5 2236,-181.5"/>
<text text-anchor="middle" x="2290" y="-189.5" font-family="Helvetica,sans-Serif" font-size="10.00">base/std_ext/string.h</text>
</a>
</g>
<!-- Node23&#45;&gt;Node24 -->
<g id="edge58" class="edge"><title>Node23&#45;&gt;Node24</title>
<path fill="none" stroke="midnightblue" d="M2588.36,-247.409C2526.14,-235.854 2421.59,-216.438 2354.23,-203.928"/>
<polygon fill="midnightblue" stroke="midnightblue" points="2354.63,-200.443 2344.16,-202.058 2353.35,-207.325 2354.63,-200.443"/>
</g>
<!-- Node26 -->
<g id="node60" class="node"><title>Node26</title>
<polygon fill="white" stroke="#bfbfbf" points="2798,-181.5 2798,-202.5 2844,-202.5 2844,-181.5 2798,-181.5"/>
<text text-anchor="middle" x="2821" y="-189.5" font-family="Helvetica,sans-Serif" font-size="10.00">cstring</text>
</g>
<!-- Node23&#45;&gt;Node26 -->
<g id="edge68" class="edge"><title>Node23&#45;&gt;Node26</title>
<path fill="none" stroke="midnightblue" d="M2681.3,-246.452C2711.68,-238.102 2753.66,-225.317 2789,-210 2790.84,-209.202 2792.72,-208.327 2794.58,-207.407"/>
<polygon fill="midnightblue" stroke="midnightblue" points="2796.52,-210.342 2803.73,-202.574 2793.25,-204.153 2796.52,-210.342"/>
</g>
<!-- Node23&#45;&gt;Node27 -->
<g id="edge70" class="edge"><title>Node23&#45;&gt;Node27</title>
<path fill="none" stroke="midnightblue" d="M2659.55,-246.412C2679.07,-235.836 2709.3,-219.465 2731.49,-207.441"/>
<polygon fill="midnightblue" stroke="midnightblue" points="2733.34,-210.424 2740.46,-202.584 2730,-204.269 2733.34,-210.424"/>
</g>
<!-- Node24&#45;&gt;Node8 -->
<g id="edge66" class="edge"><title>Node24&#45;&gt;Node8</title>
<path fill="none" stroke="midnightblue" d="M2328.72,-181.498C2363.92,-171.073 2412,-154.331 2423,-138 2428.46,-129.889 2429.42,-123.373 2423,-116 2369.16,-54.1995 1768.21,-20.0686 1620.6,-12.581"/>
<polygon fill="midnightblue" stroke="midnightblue" points="1620.54,-9.07413 1610.38,-12.0689 1620.19,-16.0654 1620.54,-9.07413"/>
</g>
<!-- Node24&#45;&gt;Node11 -->
<g id="edge64" class="edge"><title>Node24&#45;&gt;Node11</title>
<path fill="none" stroke="midnightblue" d="M2235.84,-186.711C2164.54,-179.195 2035.23,-163.656 1916.19,-138.022"/>
<polygon fill="midnightblue" stroke="midnightblue" points="1916.69,-134.55 1906.17,-135.837 1915.19,-141.389 1916.69,-134.55"/>
</g>
<!-- Node24&#45;&gt;Node15 -->
<g id="edge60" class="edge"><title>Node24&#45;&gt;Node15</title>
<path fill="none" stroke="midnightblue" d="M2307.17,-181.267C2323.91,-170.807 2349.55,-154.782 2368.63,-142.854"/>
<polygon fill="midnightblue" stroke="midnightblue" points="2370.52,-145.802 2377.15,-137.534 2366.81,-139.866 2370.52,-145.802"/>
</g>
<!-- Node25 -->
<g id="node56" class="node"><title>Node25</title>
<polygon fill="white" stroke="#bfbfbf" points="2000,-116.5 2000,-137.5 2052,-137.5 2052,-116.5 2000,-116.5"/>
<text text-anchor="middle" x="2026" y="-124.5" font-family="Helvetica,sans-Serif" font-size="10.00">sstream</text>
</g>
<!-- Node24&#45;&gt;Node25 -->
<g id="edge62" class="edge"><title>Node24&#45;&gt;Node25</title>
<path fill="none" stroke="midnightblue" d="M2247.29,-181.484C2195.9,-168.831 2110.51,-147.808 2062.21,-135.915"/>
<polygon fill="midnightblue" stroke="midnightblue" points="2062.75,-132.444 2052.2,-133.452 2061.08,-139.241 2062.75,-132.444"/>
</g>
<!-- Node32&#45;&gt;Node25 -->
<g id="edge114" class="edge"><title>Node32&#45;&gt;Node25</title>
<path fill="none" stroke="midnightblue" d="M1940,-246.362C1947.86,-236.957 1959.46,-222.785 1969,-210 1984.96,-188.601 2002.16,-163.195 2013.45,-146.179"/>
<polygon fill="midnightblue" stroke="midnightblue" points="2016.48,-147.942 2019.06,-137.667 2010.63,-144.088 2016.48,-147.942"/>
</g>
<!-- Node32&#45;&gt;Node31 -->
<g id="edge112" class="edge"><title>Node32&#45;&gt;Node31</title>
<path fill="none" stroke="midnightblue" d="M1956.19,-246.352C1978.33,-236.941 2011.4,-222.766 2040,-210 2042.32,-208.963 2044.72,-207.882 2047.13,-206.789"/>
<polygon fill="midnightblue" stroke="midnightblue" points="2048.72,-209.91 2056.36,-202.567 2045.81,-203.544 2048.72,-209.91"/>
</g>
<!-- Node33 -->
<g id="node77" class="node"><title>Node33</title>
<a xlink:href="_detector__t_8h.html" target="_top" xlink:title="base/Detector_t.h">
<polygon fill="white" stroke="black" points="2475.5,-181.5 2475.5,-202.5 2570.5,-202.5 2570.5,-181.5 2475.5,-181.5"/>
<text text-anchor="middle" x="2523" y="-189.5" font-family="Helvetica,sans-Serif" font-size="10.00">base/Detector_t.h</text>
</a>
</g>
<!-- Node32&#45;&gt;Node33 -->
<g id="edge88" class="edge"><title>Node32&#45;&gt;Node33</title>
<path fill="none" stroke="midnightblue" d="M1983.02,-251.289C2093.39,-239.17 2350.33,-210.959 2465.43,-198.321"/>
<polygon fill="midnightblue" stroke="midnightblue" points="2465.9,-201.79 2475.46,-197.22 2465.14,-194.832 2465.9,-201.79"/>
</g>
<!-- Node33&#45;&gt;Node7 -->
<g id="edge90" class="edge"><title>Node33&#45;&gt;Node7</title>
<path fill="none" stroke="midnightblue" d="M2513.5,-181.382C2497.08,-163.896 2461.43,-129.622 2423,-116 2352.5,-91.0131 1199.85,-72.9912 966.14,-69.5841"/>
<polygon fill="midnightblue" stroke="midnightblue" points="966.072,-66.0829 956.022,-69.4374 965.97,-73.0821 966.072,-66.0829"/>
</g>
<!-- Node33&#45;&gt;Node8 -->
<g id="edge110" class="edge"><title>Node33&#45;&gt;Node8</title>
<path fill="none" stroke="midnightblue" d="M2526.88,-181.445C2531.77,-166.553 2538.76,-138.663 2532,-116 2523.19,-86.4692 2520.72,-73.3478 2494,-58 2455.4,-35.8336 1778.41,-16.1637 1620.66,-11.8679"/>
<polygon fill="midnightblue" stroke="midnightblue" points="1620.31,-8.35714 1610.22,-11.5853 1620.12,-15.3546 1620.31,-8.35714"/>
</g>
<!-- Node33&#45;&gt;Node12 -->
<g id="edge104" class="edge"><title>Node33&#45;&gt;Node12</title>
<path fill="none" stroke="midnightblue" d="M2475.38,-186.876C2441.3,-183.229 2394.33,-178.243 2353,-174 2195.46,-157.826 2151.55,-168.162 1992.87,-138.109"/>
<polygon fill="midnightblue" stroke="midnightblue" points="1993.23,-134.614 1982.75,-136.168 1991.91,-141.489 1993.23,-134.614"/>
</g>
<!-- Node33&#45;&gt;Node15 -->
<g id="edge106" class="edge"><title>Node33&#45;&gt;Node15</title>
<path fill="none" stroke="midnightblue" d="M2501.99,-181.412C2480.68,-170.678 2447.53,-153.974 2423.58,-141.905"/>
<polygon fill="midnightblue" stroke="midnightblue" points="2425.08,-138.743 2414.58,-137.369 2421.93,-144.994 2425.08,-138.743"/>
</g>
<!-- Node33&#45;&gt;Node28 -->
<g id="edge108" class="edge"><title>Node33&#45;&gt;Node28</title>
<path fill="none" stroke="midnightblue" d="M2538.19,-181.267C2552.79,-170.949 2575.06,-155.216 2591.87,-143.342"/>
<polygon fill="midnightblue" stroke="midnightblue" points="2593.94,-146.163 2600.09,-137.534 2589.9,-140.446 2593.94,-146.163"/>
</g>
<!-- Node33&#45;&gt;Node30 -->
<g id="edge102" class="edge"><title>Node33&#45;&gt;Node30</title>
<path fill="none" stroke="midnightblue" d="M2570.84,-183.965C2650.31,-170.617 2807.59,-144.2 2876.42,-132.64"/>
<polygon fill="midnightblue" stroke="midnightblue" points="2877.4,-136.025 2886.68,-130.916 2876.24,-129.121 2877.4,-136.025"/>
</g>
<!-- Node34 -->
<g id="node80" class="node"><title>Node34</title>
<a xlink:href="vec3_8h.html" target="_top" xlink:title="base/vec/vec3.h">
<polygon fill="white" stroke="black" points="2739.5,-116.5 2739.5,-137.5 2828.5,-137.5 2828.5,-116.5 2739.5,-116.5"/>
<text text-anchor="middle" x="2784" y="-124.5" font-family="Helvetica,sans-Serif" font-size="10.00">base/vec/vec3.h</text>
</a>
</g>
<!-- Node33&#45;&gt;Node34 -->
<g id="edge92" class="edge"><title>Node33&#45;&gt;Node34</title>
<path fill="none" stroke="midnightblue" d="M2565.22,-181.484C2610.71,-170.156 2683.13,-152.12 2732.07,-139.932"/>
<polygon fill="midnightblue" stroke="midnightblue" points="2732.98,-143.313 2741.84,-137.501 2731.29,-136.521 2732.98,-143.313"/>
</g>
<!-- Node34&#45;&gt;Node7 -->
<g id="edge94" class="edge"><title>Node34&#45;&gt;Node7</title>
<path fill="none" stroke="midnightblue" d="M2739.27,-122.545C2714.47,-120.235 2683.05,-117.576 2655,-116 1981.15,-78.1483 1157.87,-70.5363 966.214,-69.2392"/>
<polygon fill="midnightblue" stroke="midnightblue" points="966.05,-65.7381 956.027,-69.1722 966.004,-72.7379 966.05,-65.7381"/>
</g>
<!-- Node35 -->
<g id="node83" class="node"><title>Node35</title>
<a xlink:href="vec2_8h.html" target="_top" xlink:title="vec2.h">
<polygon fill="white" stroke="black" points="2740,-58.5 2740,-79.5 2786,-79.5 2786,-58.5 2740,-58.5"/>
<text text-anchor="middle" x="2763" y="-66.5" font-family="Helvetica,sans-Serif" font-size="10.00">vec2.h</text>
</a>
</g>
<!-- Node34&#45;&gt;Node35 -->
<g id="edge96" class="edge"><title>Node34&#45;&gt;Node35</title>
<path fill="none" stroke="midnightblue" d="M2780.15,-116.362C2777.4,-108.758 2773.61,-98.294 2770.29,-89.1349"/>
<polygon fill="midnightblue" stroke="midnightblue" points="2773.52,-87.7818 2766.83,-79.5707 2766.94,-90.1649 2773.52,-87.7818"/>
</g>
<!-- Node36 -->
<g id="node85" class="node"><title>Node36</title>
<polygon fill="white" stroke="#bfbfbf" points="2690,-0.5 2690,-21.5 2734,-21.5 2734,-0.5 2690,-0.5"/>
<text text-anchor="middle" x="2712" y="-8.5" font-family="Helvetica,sans-Serif" font-size="10.00">cmath</text>
</g>
<!-- Node34&#45;&gt;Node36 -->
<g id="edge100" class="edge"><title>Node34&#45;&gt;Node36</title>
<path fill="none" stroke="midnightblue" d="M2789.7,-116.4C2796.52,-102.141 2805.75,-76.4445 2795,-58 2783.97,-39.0821 2762.19,-27.1677 2743.71,-20.0691"/>
<polygon fill="midnightblue" stroke="midnightblue" points="2744.74,-16.7213 2734.14,-16.6957 2742.41,-23.3228 2744.74,-16.7213"/>
</g>
<!-- Node35&#45;&gt;Node36 -->
<g id="edge98" class="edge"><title>Node35&#45;&gt;Node36</title>
<path fill="none" stroke="midnightblue" d="M2753.65,-58.3619C2746.46,-50.1861 2736.36,-38.7025 2727.91,-29.0907"/>
<polygon fill="midnightblue" stroke="midnightblue" points="2730.53,-26.7692 2721.29,-21.5707 2725.27,-31.3916 2730.53,-26.7692"/>
</g>
<!-- Node37&#45;&gt;Node7 -->
<g id="edge122" class="edge"><title>Node37&#45;&gt;Node7</title>
<path fill="none" stroke="midnightblue" d="M2369.95,-371.985C2237.53,-368.511 1830.34,-355.636 1702,-326 1693.7,-324.083 1425.06,-214.767 1418,-210 1399.5,-197.517 1402.19,-185.393 1383,-174 1331.82,-143.611 1308.43,-162.09 1254,-138 1237.2,-130.564 1236.2,-122.47 1219,-116 1132.92,-83.6151 1024.48,-73.543 966.338,-70.4117"/>
<polygon fill="midnightblue" stroke="midnightblue" points="966.245,-66.9029 956.084,-69.9039 965.898,-73.8943 966.245,-66.9029"/>
</g>
<!-- Node37&#45;&gt;Node22 -->
<g id="edge118" class="edge"><title>Node37&#45;&gt;Node22</title>
<path fill="none" stroke="midnightblue" d="M2384.47,-362.497C2357.81,-352.321 2317.47,-336.93 2290,-326.446"/>
<polygon fill="midnightblue" stroke="midnightblue" points="2291.1,-323.12 2280.51,-322.824 2288.6,-329.66 2291.1,-323.12"/>
</g>
<!-- Node37&#45;&gt;Node23 -->
<g id="edge120" class="edge"><title>Node37&#45;&gt;Node23</title>
<path fill="none" stroke="midnightblue" d="M2433.04,-362.295C2473.78,-341.568 2563.52,-295.909 2610.31,-272.105"/>
<polygon fill="midnightblue" stroke="midnightblue" points="2612.01,-275.166 2619.34,-267.512 2608.84,-268.927 2612.01,-275.166"/>
</g>
<!-- Node37&#45;&gt;Node29 -->
<g id="edge126" class="edge"><title>Node37&#45;&gt;Node29</title>
<path fill="none" stroke="midnightblue" d="M2424.92,-362.295C2449.19,-342.182 2501.8,-298.59 2531.15,-274.275"/>
<polygon fill="midnightblue" stroke="midnightblue" points="2533.64,-276.755 2539.11,-267.679 2529.18,-271.364 2533.64,-276.755"/>
</g>
<!-- Node37&#45;&gt;Node30 -->
<g id="edge124" class="edge"><title>Node37&#45;&gt;Node30</title>
<path fill="none" stroke="midnightblue" d="M2454.07,-364.958C2524.47,-350.673 2669.77,-317.626 2785,-268 2831.13,-248.132 2850.47,-249.101 2882,-210 2896.63,-191.864 2903.77,-165.709 2907.16,-147.628"/>
<polygon fill="midnightblue" stroke="midnightblue" points="2910.64,-147.993 2908.81,-137.558 2903.74,-146.859 2910.64,-147.993"/>
</g>
<!-- Node38&#45;&gt;Node7 -->
<g id="edge156" class="edge"><title>Node38&#45;&gt;Node7</title>
<path fill="none" stroke="midnightblue" d="M835.239,-252.721C688.038,-241.592 305.248,-212.435 303,-210 292.146,-198.245 299.432,-189.597 303,-174 309.383,-146.096 307.375,-132.163 331,-116 376.415,-84.9301 756.657,-73.04 883.788,-69.9102"/>
<polygon fill="midnightblue" stroke="midnightblue" points="883.983,-73.4066 893.896,-69.6668 883.815,-66.4086 883.983,-73.4066"/>
</g>
<!-- Node39 -->
<g id="node104" class="node"><title>Node39</title>
<a xlink:href="_format_8h.html" target="_top" xlink:title="base/Format.h">
<polygon fill="white" stroke="black" points="1630,-181.5 1630,-202.5 1710,-202.5 1710,-181.5 1630,-181.5"/>
<text text-anchor="middle" x="1670" y="-189.5" font-family="Helvetica,sans-Serif" font-size="10.00">base/Format.h</text>
</a>
</g>
<!-- Node38&#45;&gt;Node39 -->
<g id="edge130" class="edge"><title>Node38&#45;&gt;Node39</title>
<path fill="none" stroke="midnightblue" d="M948.623,-253.795C1114.26,-244.36 1588.27,-216.915 1621,-210 1625.84,-208.977 1630.85,-207.57 1635.73,-205.991"/>
<polygon fill="midnightblue" stroke="midnightblue" points="1637.2,-209.186 1645.48,-202.575 1634.89,-202.58 1637.2,-209.186"/>
</g>
<!-- Node39&#45;&gt;Node8 -->
<g id="edge154" class="edge"><title>Node39&#45;&gt;Node8</title>
<path fill="none" stroke="midnightblue" d="M1704.02,-181.497C1737.8,-169.102 1782.25,-146.284 1765,-116 1733.88,-61.3597 1661.9,-32.2224 1619.94,-19.3465"/>
<polygon fill="midnightblue" stroke="midnightblue" points="1620.8,-15.9499 1610.22,-16.488 1618.82,-22.6658 1620.8,-15.9499"/>
</g>
<!-- Node39&#45;&gt;Node11 -->
<g id="edge144" class="edge"><title>Node39&#45;&gt;Node11</title>
<path fill="none" stroke="midnightblue" d="M1701.08,-181.489C1708.57,-178.997 1716.56,-176.374 1724,-174 1763.53,-161.382 1808.99,-147.595 1840.22,-138.237"/>
<polygon fill="midnightblue" stroke="midnightblue" points="1841.25,-141.581 1849.83,-135.362 1839.25,-134.875 1841.25,-141.581"/>
</g>
<!-- Node39&#45;&gt;Node12 -->
<g id="edge148" class="edge"><title>Node39&#45;&gt;Node12</title>
<path fill="none" stroke="midnightblue" d="M1710.08,-183.999C1756.75,-174.496 1836.37,-157.721 1913.32,-138.332"/>
<polygon fill="midnightblue" stroke="midnightblue" points="1914.35,-141.683 1923.18,-135.83 1912.63,-134.898 1914.35,-141.683"/>
</g>
<!-- Node39&#45;&gt;Node13 -->
<g id="edge146" class="edge"><title>Node39&#45;&gt;Node13</title>
<path fill="none" stroke="midnightblue" d="M1696.73,-181.395C1722.8,-170.893 1763.46,-154.096 1798,-138 1817.46,-128.933 1821.27,-124.461 1841,-116 1875.96,-101.008 1917.45,-87.0151 1944.91,-78.2625"/>
<polygon fill="midnightblue" stroke="midnightblue" points="1946.21,-81.52 1954.7,-75.1734 1944.11,-74.8444 1946.21,-81.52"/>
</g>
<!-- Node39&#45;&gt;Node15 -->
<g id="edge150" class="edge"><title>Node39&#45;&gt;Node15</title>
<path fill="none" stroke="midnightblue" d="M1710.03,-188.219C1750.58,-184.434 1815.13,-178.537 1871,-174 2087.09,-156.451 2148.21,-184.657 2363.29,-137.881"/>
<polygon fill="midnightblue" stroke="midnightblue" points="2364.3,-141.242 2373.31,-135.671 2362.79,-134.406 2364.3,-141.242"/>
</g>
<!-- Node39&#45;&gt;Node25 -->
<g id="edge152" class="edge"><title>Node39&#45;&gt;Node25</title>
<path fill="none" stroke="midnightblue" d="M1710.27,-185.937C1780.31,-175.277 1922.79,-153.072 1989.67,-138.031"/>
<polygon fill="midnightblue" stroke="midnightblue" points="1990.79,-141.364 1999.74,-135.682 1989.2,-134.547 1990.79,-141.364"/>
</g>
<!-- Node39&#45;&gt;Node36 -->
<g id="edge138" class="edge"><title>Node39&#45;&gt;Node36</title>
<path fill="none" stroke="midnightblue" d="M1710.37,-188.369C1843.09,-176.424 2257.7,-139.049 2261,-138 2279.6,-132.085 2280.78,-122.998 2299,-116 2371.1,-88.307 2394.03,-98.5586 2469,-80 2545.19,-61.1399 2633.61,-34.928 2679.93,-20.8605"/>
<polygon fill="midnightblue" stroke="midnightblue" points="2681.14,-24.1485 2689.69,-17.8855 2679.1,-17.4524 2681.14,-24.1485"/>
</g>
<!-- Node40 -->
<g id="node106" class="node"><title>Node40</title>
<polygon fill="white" stroke="#bfbfbf" points="1677.5,-116.5 1677.5,-137.5 1756.5,-137.5 1756.5,-116.5 1677.5,-116.5"/>
<text text-anchor="middle" x="1717" y="-124.5" font-family="Helvetica,sans-Serif" font-size="10.00">detail/format.h</text>
</g>
<!-- Node39&#45;&gt;Node40 -->
<g id="edge132" class="edge"><title>Node39&#45;&gt;Node40</title>
<path fill="none" stroke="midnightblue" d="M1677.76,-181.267C1684.74,-171.612 1695.15,-157.215 1703.5,-145.675"/>
<polygon fill="midnightblue" stroke="midnightblue" points="1706.36,-147.688 1709.38,-137.534 1700.69,-143.586 1706.36,-147.688"/>
</g>
<!-- Node41 -->
<g id="node108" class="node"><title>Node41</title>
<polygon fill="white" stroke="#bfbfbf" points="1485.5,-116.5 1485.5,-137.5 1534.5,-137.5 1534.5,-116.5 1485.5,-116.5"/>
<text text-anchor="middle" x="1510" y="-124.5" font-family="Helvetica,sans-Serif" font-size="10.00">stdint.h</text>
</g>
<!-- Node39&#45;&gt;Node41 -->
<g id="edge134" class="edge"><title>Node39&#45;&gt;Node41</title>
<path fill="none" stroke="midnightblue" d="M1643.94,-181.412C1616.81,-170.391 1574.19,-153.077 1544.33,-140.947"/>
<polygon fill="midnightblue" stroke="midnightblue" points="1545.32,-137.57 1534.74,-137.049 1542.68,-144.056 1545.32,-137.57"/>
</g>
<!-- Node42 -->
<g id="node110" class="node"><title>Node42</title>
<polygon fill="white" stroke="#bfbfbf" points="1419.5,-116.5 1419.5,-137.5 1468.5,-137.5 1468.5,-116.5 1419.5,-116.5"/>
<text text-anchor="middle" x="1444" y="-124.5" font-family="Helvetica,sans-Serif" font-size="10.00">cassert</text>
</g>
<!-- Node39&#45;&gt;Node42 -->
<g id="edge136" class="edge"><title>Node39&#45;&gt;Node42</title>
<path fill="none" stroke="midnightblue" d="M1642.96,-181.48C1635.87,-178.882 1628.19,-176.212 1621,-174 1560.9,-155.508 1542.09,-156.318 1478.52,-138.295"/>
<polygon fill="midnightblue" stroke="midnightblue" points="1479.38,-134.901 1468.8,-135.494 1477.44,-141.627 1479.38,-134.901"/>
</g>
<!-- Node43 -->
<g id="node113" class="node"><title>Node43</title>
<polygon fill="white" stroke="#bfbfbf" points="1551.5,-116.5 1551.5,-137.5 1600.5,-137.5 1600.5,-116.5 1551.5,-116.5"/>
<text text-anchor="middle" x="1576" y="-124.5" font-family="Helvetica,sans-Serif" font-size="10.00">cstddef</text>
</g>
<!-- Node39&#45;&gt;Node43 -->
<g id="edge140" class="edge"><title>Node39&#45;&gt;Node43</title>
<path fill="none" stroke="midnightblue" d="M1654.48,-181.267C1639.56,-170.949 1616.8,-155.216 1599.63,-143.342"/>
<polygon fill="midnightblue" stroke="midnightblue" points="1601.45,-140.343 1591.23,-137.534 1597.47,-146.1 1601.45,-140.343"/>
</g>
<!-- Node44 -->
<g id="node115" class="node"><title>Node44</title>
<polygon fill="white" stroke="#bfbfbf" points="1617.5,-116.5 1617.5,-137.5 1660.5,-137.5 1660.5,-116.5 1617.5,-116.5"/>
<text text-anchor="middle" x="1639" y="-124.5" font-family="Helvetica,sans-Serif" font-size="10.00">cstdio</text>
</g>
<!-- Node39&#45;&gt;Node44 -->
<g id="edge142" class="edge"><title>Node39&#45;&gt;Node44</title>
<path fill="none" stroke="midnightblue" d="M1664.88,-181.267C1660.41,-171.896 1653.81,-158.057 1648.4,-146.7"/>
<polygon fill="midnightblue" stroke="midnightblue" points="1651.49,-145.053 1644.02,-137.534 1645.17,-148.066 1651.49,-145.053"/>
</g>
<!-- Node45&#45;&gt;Node7 -->
<g id="edge162" class="edge"><title>Node45&#45;&gt;Node7</title>
<path fill="none" stroke="midnightblue" d="M1983,-371.218C1918.31,-367.405 1780.89,-356.193 1669,-326 1539.35,-291.013 1504.8,-279.679 1390,-210 1368.69,-197.067 1368.96,-185.798 1347,-174 1297.58,-147.441 1278.08,-158.866 1226,-138 1206.07,-130.017 1203.33,-122.886 1183,-116 1108.97,-90.9278 1018.21,-78.3464 966.443,-72.7781"/>
<polygon fill="midnightblue" stroke="midnightblue" points="966.626,-69.2784 956.318,-71.7254 965.902,-76.2409 966.626,-69.2784"/>
</g>
<!-- Node45&#45;&gt;Node8 -->
<g id="edge168" class="edge"><title>Node45&#45;&gt;Node8</title>
<path fill="none" stroke="midnightblue" d="M2057.19,-372.281C2169.62,-369.188 2514.84,-352.92 2785,-268 2877.65,-238.877 3004.98,-189.936 2942,-116 2938.72,-112.145 2587.04,-58.5232 2582,-58 2205.44,-18.8889 1745.21,-12.2974 1620.47,-11.2101"/>
<polygon fill="midnightblue" stroke="midnightblue" points="1620.14,-7.70731 1610.11,-11.1259 1620.08,-14.7071 1620.14,-7.70731"/>
</g>
<!-- Node45&#45;&gt;Node22 -->
<g id="edge160" class="edge"><title>Node45&#45;&gt;Node22</title>
<path fill="none" stroke="midnightblue" d="M2057.24,-364.001C2104.65,-352.542 2185.68,-332.96 2229.58,-322.352"/>
<polygon fill="midnightblue" stroke="midnightblue" points="2230.49,-325.733 2239.38,-319.982 2228.84,-318.929 2230.49,-325.733"/>
</g>
<!-- Node45&#45;&gt;Node25 -->
<g id="edge172" class="edge"><title>Node45&#45;&gt;Node25</title>
<path fill="none" stroke="midnightblue" d="M1982.72,-370.198C1902.69,-363.802 1720.16,-347.045 1702,-326 1643.91,-258.693 1524.77,-343.294 1828,-174 1889.99,-139.388 1916.97,-155.584 1989.63,-138.102"/>
<polygon fill="midnightblue" stroke="midnightblue" points="1990.87,-141.397 1999.7,-135.536 1989.14,-134.614 1990.87,-141.397"/>
</g>
<!-- Node45&#45;&gt;Node31 -->
<g id="edge170" class="edge"><title>Node45&#45;&gt;Node31</title>
<path fill="none" stroke="midnightblue" d="M2023.43,-362.486C2032.96,-333.245 2059.9,-250.586 2072.44,-212.135"/>
<polygon fill="midnightblue" stroke="midnightblue" points="2075.79,-213.135 2075.56,-202.543 2069.14,-210.966 2075.79,-213.135"/>
</g>
<!-- Node46 -->
<g id="node128" class="node"><title>Node46</title>
<a xlink:href="_lorentz_vec_8h.html" target="_top" xlink:title="base/vec/LorentzVec.h">
<polygon fill="white" stroke="black" points="2297.5,-304.5 2297.5,-325.5 2414.5,-325.5 2414.5,-304.5 2297.5,-304.5"/>
<text text-anchor="middle" x="2356" y="-312.5" font-family="Helvetica,sans-Serif" font-size="10.00">base/vec/LorentzVec.h</text>
</a>
</g>
<!-- Node45&#45;&gt;Node46 -->
<g id="edge164" class="edge"><title>Node45&#45;&gt;Node46</title>
<path fill="none" stroke="midnightblue" d="M2057.24,-366.571C2112.69,-356.999 2217.88,-338.841 2287.48,-326.828"/>
<polygon fill="midnightblue" stroke="midnightblue" points="2288.22,-330.252 2297.48,-325.102 2287.03,-323.354 2288.22,-330.252"/>
</g>
<!-- Node46&#45;&gt;Node34 -->
<g id="edge166" class="edge"><title>Node46&#45;&gt;Node34</title>
<path fill="none" stroke="midnightblue" d="M2414.7,-312.257C2535.26,-305.189 2803.59,-281.577 2853,-210 2862.09,-196.833 2860.48,-188.144 2853,-174 2845.79,-160.362 2832.65,-149.94 2819.75,-142.417"/>
<polygon fill="midnightblue" stroke="midnightblue" points="2821.4,-139.331 2810.94,-137.668 2818.08,-145.494 2821.4,-139.331"/>
</g>
<!-- Node47&#45;&gt;Node7 -->
<g id="edge178" class="edge"><title>Node47&#45;&gt;Node7</title>
<path fill="none" stroke="midnightblue" d="M930.44,-181.448C924.402,-178.982 917.981,-176.381 912,-174 870.82,-157.608 844.053,-174.562 819,-138 799.004,-108.818 846.155,-89.0389 883.859,-78.385"/>
<polygon fill="midnightblue" stroke="midnightblue" points="884.935,-81.7201 893.686,-75.7473 883.121,-74.9594 884.935,-81.7201"/>
</g>
<!-- Node47&#45;&gt;Node10 -->
<g id="edge176" class="edge"><title>Node47&#45;&gt;Node10</title>
<path fill="none" stroke="midnightblue" d="M958.972,-181.267C961.515,-172.085 965.245,-158.615 968.353,-147.392"/>
<polygon fill="midnightblue" stroke="midnightblue" points="971.787,-148.105 971.083,-137.534 965.041,-146.237 971.787,-148.105"/>
</g>
<!-- Node47&#45;&gt;Node13 -->
<g id="edge182" class="edge"><title>Node47&#45;&gt;Node13</title>
<path fill="none" stroke="midnightblue" d="M948.889,-181.326C938.968,-164.984 923.997,-133.794 941,-116 976.571,-78.7753 1777.41,-70.5309 1944.58,-69.2133"/>
<polygon fill="midnightblue" stroke="midnightblue" points="1944.69,-72.7127 1954.66,-69.1363 1944.64,-65.7129 1944.69,-72.7127"/>
</g>
<!-- Node47&#45;&gt;Node17 -->
<g id="edge184" class="edge"><title>Node47&#45;&gt;Node17</title>
<path fill="none" stroke="midnightblue" d="M931.547,-181.33C925.24,-178.763 918.419,-176.145 912,-174 863.325,-157.732 805.704,-143.467 769.251,-135.039"/>
<polygon fill="midnightblue" stroke="midnightblue" points="769.632,-131.536 759.103,-132.717 768.071,-138.359 769.632,-131.536"/>
</g>
<!-- Node47&#45;&gt;Node18 -->
<g id="edge180" class="edge"><title>Node47&#45;&gt;Node18</title>
<path fill="none" stroke="midnightblue" d="M937.43,-181.412C917.755,-170.194 886.644,-152.455 865.328,-140.301"/>
<polygon fill="midnightblue" stroke="midnightblue" points="866.997,-137.224 856.577,-135.311 863.53,-143.305 866.997,-137.224"/>
</g>
<!-- Node48&#45;&gt;Node7 -->
<g id="edge190" class="edge"><title>Node48&#45;&gt;Node7</title>
<path fill="none" stroke="midnightblue" d="M1085.08,-181.411C1078.92,-178.842 1072.26,-176.203 1066,-174 1011.47,-154.806 980.792,-179.94 941,-138 928.809,-125.151 925.271,-104.917 924.509,-89.6762"/>
<polygon fill="midnightblue" stroke="midnightblue" points="928.008,-89.5851 924.36,-79.6381 921.009,-89.6889 928.008,-89.5851"/>
</g>
<!-- Node48&#45;&gt;Node10 -->
<g id="edge188" class="edge"><title>Node48&#45;&gt;Node10</title>
<path fill="none" stroke="midnightblue" d="M1087.01,-181.412C1064.75,-170.694 1030.13,-154.025 1005.07,-141.96"/>
<polygon fill="midnightblue" stroke="midnightblue" points="1006.51,-138.768 995.981,-137.584 1003.47,-145.075 1006.51,-138.768"/>
</g>
<!-- Node48&#45;&gt;Node17 -->
<g id="edge202" class="edge"><title>Node48&#45;&gt;Node17</title>
<path fill="none" stroke="midnightblue" d="M1079.5,-186.9C1011.51,-175.147 843.989,-146.187 769.604,-133.328"/>
<polygon fill="midnightblue" stroke="midnightblue" points="769.778,-129.806 759.327,-131.551 768.585,-136.704 769.778,-129.806"/>
</g>
<!-- Node48&#45;&gt;Node18 -->
<g id="edge200" class="edge"><title>Node48&#45;&gt;Node18</title>
<path fill="none" stroke="midnightblue" d="M1086.12,-181.354C1079.71,-178.666 1072.67,-175.984 1066,-174 981.106,-148.755 955.168,-162.305 870,-138 868.757,-137.645 867.493,-137.256 866.223,-136.843"/>
<polygon fill="midnightblue" stroke="midnightblue" points="867.233,-133.486 856.639,-133.365 864.845,-140.066 867.233,-133.486"/>
</g>
<!-- Node48&#45;&gt;Node34 -->
<g id="edge198" class="edge"><title>Node48&#45;&gt;Node34</title>
<path fill="none" stroke="midnightblue" d="M1138.63,-187.672C1169.21,-183.399 1218.33,-177.071 1261,-174 1879.16,-129.511 2036.19,-172.343 2655,-138 2679.33,-136.65 2706.18,-134.471 2729.06,-132.407"/>
<polygon fill="midnightblue" stroke="midnightblue" points="2729.63,-135.869 2739.27,-131.47 2728.99,-128.899 2729.63,-135.869"/>
</g>
<!-- Node49 -->
<g id="node145" class="node"><title>Node49</title>
<a xlink:href="math_8h.html" target="_top" xlink:title="base/std_ext/math.h">
<polygon fill="white" stroke="black" points="2146,-116.5 2146,-137.5 2252,-137.5 2252,-116.5 2146,-116.5"/>
<text text-anchor="middle" x="2199" y="-124.5" font-family="Helvetica,sans-Serif" font-size="10.00">base/std_ext/math.h</text>
</a>
</g>
<!-- Node48&#45;&gt;Node49 -->
<g id="edge192" class="edge"><title>Node48&#45;&gt;Node49</title>
<path fill="none" stroke="midnightblue" d="M1138.64,-187.841C1169.23,-183.702 1218.36,-177.48 1261,-174 1615.74,-145.053 1705.77,-160.143 2061,-138 2085.45,-136.476 2112.3,-134.422 2135.77,-132.502"/>
<polygon fill="midnightblue" stroke="midnightblue" points="2136.27,-135.972 2145.95,-131.66 2135.7,-128.996 2136.27,-135.972"/>
</g>
<!-- Node49&#45;&gt;Node13 -->
<g id="edge196" class="edge"><title>Node49&#45;&gt;Node13</title>
<path fill="none" stroke="midnightblue" d="M2158.44,-116.497C2114.23,-105.049 2044.53,-87.0029 2004.99,-76.7663"/>
<polygon fill="midnightblue" stroke="midnightblue" points="2005.72,-73.3378 1995.16,-74.2194 2003.96,-80.1143 2005.72,-73.3378"/>
</g>
<!-- Node49&#45;&gt;Node36 -->
<g id="edge194" class="edge"><title>Node49&#45;&gt;Node36</title>
<path fill="none" stroke="midnightblue" d="M2245.89,-116.398C2348.8,-93.1268 2592.28,-38.0712 2679.89,-18.2605"/>
<polygon fill="midnightblue" stroke="midnightblue" points="2680.8,-21.6432 2689.78,-16.0238 2679.26,-14.8156 2680.8,-21.6432"/>
</g>
<!-- Node50&#45;&gt;Node8 -->
<g id="edge222" class="edge"><title>Node50&#45;&gt;Node8</title>
<path fill="none" stroke="midnightblue" d="M2401.21,-252.332C2451.78,-244.383 2548.99,-227.383 2579,-210 2597.78,-199.121 2596.31,-188.999 2612,-174 2630.02,-156.776 2644.45,-160.583 2655,-138 2659.14,-129.141 2660.38,-124.165 2655,-116 2619.08,-61.4662 2583.61,-72.7659 2520,-58 2343.51,-17.0311 1763.95,-11.7737 1620.39,-11.0992"/>
<polygon fill="midnightblue" stroke="midnightblue" points="1620.09,-7.59801 1610.07,-11.0553 1620.06,-14.5979 1620.09,-7.59801"/>
</g>
<!-- Node50&#45;&gt;Node17 -->
<g id="edge230" class="edge"><title>Node50&#45;&gt;Node17</title>
<path fill="none" stroke="midnightblue" d="M2338.54,-253.436C2315.23,-250.937 2282.67,-247.743 2254,-246 2179.83,-241.49 985.65,-238.432 917,-210 895.506,-201.098 899.015,-185.859 879,-174 844.422,-153.512 799.865,-140.845 769.116,-133.898"/>
<polygon fill="midnightblue" stroke="midnightblue" points="769.767,-130.458 759.252,-131.759 768.283,-137.299 769.767,-130.458"/>
</g>
<!-- Node50&#45;&gt;Node25 -->
<g id="edge228" class="edge"><title>Node50&#45;&gt;Node25</title>
<path fill="none" stroke="midnightblue" d="M2338.73,-249.83C2304.81,-241.676 2249.29,-227.235 2203,-210 2149.21,-189.975 2089.25,-160.19 2054.75,-142.276"/>
<polygon fill="midnightblue" stroke="midnightblue" points="2056.2,-139.086 2045.71,-137.556 2052.96,-145.29 2056.2,-139.086"/>
</g>
<!-- Node50&#45;&gt;Node31 -->
<g id="edge226" class="edge"><title>Node50&#45;&gt;Node31</title>
<path fill="none" stroke="midnightblue" d="M2338.78,-250.282C2297.08,-241.276 2220.92,-224.716 2156,-210 2142.37,-206.911 2127.41,-203.432 2114.32,-200.363"/>
<polygon fill="midnightblue" stroke="midnightblue" points="2114.83,-196.887 2104.3,-198.004 2113.23,-203.701 2114.83,-196.887"/>
</g>
<!-- Node50&#45;&gt;Node33 -->
<g id="edge206" class="edge"><title>Node50&#45;&gt;Node33</title>
<path fill="none" stroke="midnightblue" d="M2394.92,-246.412C2420.37,-235.6 2460.08,-218.731 2488.53,-206.642"/>
<polygon fill="midnightblue" stroke="midnightblue" points="2490.25,-209.715 2498.09,-202.584 2487.52,-203.272 2490.25,-209.715"/>
</g>
<!-- Node50&#45;&gt;Node34 -->
<g id="edge220" class="edge"><title>Node50&#45;&gt;Node34</title>
<path fill="none" stroke="midnightblue" d="M2401,-253.331C2463.97,-245.631 2604.68,-227.08 2650,-210 2693.06,-193.769 2737.38,-163.045 2762.71,-143.874"/>
<polygon fill="midnightblue" stroke="midnightblue" points="2765.05,-146.487 2770.85,-137.617 2760.79,-140.938 2765.05,-146.487"/>
</g>
<!-- Node50&#45;&gt;Node36 -->
<g id="edge224" class="edge"><title>Node50&#45;&gt;Node36</title>
<path fill="none" stroke="midnightblue" d="M2401.41,-253.123C2458.22,-245.746 2575.56,-228.745 2612,-210 2612.08,-209.958 2687.96,-138.08 2688,-138 2706.54,-104.029 2710.99,-58.1847 2711.92,-31.8866"/>
<polygon fill="midnightblue" stroke="midnightblue" points="2715.43,-31.669 2712.14,-21.5976 2708.43,-31.5217 2715.43,-31.669"/>
</g>
<!-- Node50&#45;&gt;Node49 -->
<g id="edge208" class="edge"><title>Node50&#45;&gt;Node49</title>
<path fill="none" stroke="midnightblue" d="M2338.74,-250.177C2301.68,-241.513 2242.91,-225.784 2227,-210 2210.29,-193.423 2203.55,-166.557 2200.84,-147.899"/>
<polygon fill="midnightblue" stroke="midnightblue" points="2204.29,-147.273 2199.63,-137.755 2197.33,-148.097 2204.29,-147.273"/>
</g>
<!-- Node51 -->
<g id="node156" class="node"><title>Node51</title>
<a xlink:href="shared__ptr__container_8h.html" target="_top" xlink:title="base/std_ext/shared\l_ptr_container.h">
<polygon fill="white" stroke="black" points="1507.5,-175 1507.5,-209 1612.5,-209 1612.5,-175 1507.5,-175"/>
<text text-anchor="start" x="1515.5" y="-196" font-family="Helvetica,sans-Serif" font-size="10.00">base/std_ext/shared</text>
<text text-anchor="middle" x="1560" y="-183" font-family="Helvetica,sans-Serif" font-size="10.00">_ptr_container.h</text>
</a>
</g>
<!-- Node50&#45;&gt;Node51 -->
<g id="edge210" class="edge"><title>Node50&#45;&gt;Node51</title>
<path fill="none" stroke="midnightblue" d="M2338.52,-253.691C2315.2,-251.319 2282.64,-248.172 2254,-246 1976.31,-224.945 1900.41,-257.417 1622.69,-210.083"/>
<polygon fill="midnightblue" stroke="midnightblue" points="1623.17,-206.615 1612.72,-208.365 1621.99,-213.513 1623.17,-206.615"/>
</g>
<!-- Node51&#45;&gt;Node8 -->
<g id="edge212" class="edge"><title>Node51&#45;&gt;Node8</title>
<path fill="none" stroke="midnightblue" d="M1507.16,-176.11C1466.73,-163.422 1416.9,-146.42 1411,-138 1405.39,-129.994 1406.16,-124.497 1411,-116 1442.12,-61.3597 1514.1,-32.2224 1556.06,-19.3465"/>
<polygon fill="midnightblue" stroke="midnightblue" points="1557.18,-22.6658 1565.78,-16.488 1555.2,-15.9499 1557.18,-22.6658"/>
</g>
<!-- Node51&#45;&gt;Node11 -->
<g id="edge218" class="edge"><title>Node51&#45;&gt;Node11</title>
<path fill="none" stroke="midnightblue" d="M1612.81,-176.044C1615.57,-175.326 1618.31,-174.64 1621,-174 1697.82,-155.695 1789.03,-140.548 1839.52,-132.731"/>
<polygon fill="midnightblue" stroke="midnightblue" points="1840.3,-136.152 1849.65,-131.176 1839.24,-129.233 1840.3,-136.152"/>
</g>
<!-- Node51&#45;&gt;Node17 -->
<g id="edge214" class="edge"><title>Node51&#45;&gt;Node17</title>
<path fill="none" stroke="midnightblue" d="M1507.5,-187.324C1464.4,-183.544 1401.76,-178.181 1347,-174 1112.47,-156.096 1053.09,-160.931 819,-138 802.69,-136.402 784.698,-134.174 769.404,-132.14"/>
<polygon fill="midnightblue" stroke="midnightblue" points="769.681,-128.646 759.302,-130.774 768.742,-135.583 769.681,-128.646"/>
</g>
<!-- Node51&#45;&gt;Node52 -->
<g id="edge216" class="edge"><title>Node51&#45;&gt;Node52</title>
<path fill="none" stroke="midnightblue" d="M1507.09,-186.897C1464.02,-182.896 1401.63,-177.445 1347,-174 963.429,-149.813 866.421,-164.467 483,-138 458.452,-136.306 430.999,-133.679 409.184,-131.417"/>
<polygon fill="midnightblue" stroke="midnightblue" points="409.277,-127.908 398.966,-130.342 408.545,-134.869 409.277,-127.908"/>
</g>
<!-- Node53&#45;&gt;Node8 -->
<g id="edge238" class="edge"><title>Node53&#45;&gt;Node8</title>
<path fill="none" stroke="midnightblue" d="M1785.85,-313.612C1887.88,-309.534 2166.76,-296.069 2254,-268 2355.3,-235.407 2501.44,-202.17 2439,-116 2390.43,-48.9668 2343.24,-73.8893 2262,-58 2136.69,-33.4929 1737.08,-16.6779 1620.32,-12.1954"/>
<polygon fill="midnightblue" stroke="midnightblue" points="1620.36,-8.69429 1610.23,-11.8118 1620.09,-15.6892 1620.36,-8.69429"/>
</g>
<!-- Node53&#45;&gt;Node11 -->
<g id="edge246" class="edge"><title>Node53&#45;&gt;Node11</title>
<path fill="none" stroke="midnightblue" d="M1745.63,-304.136C1740.72,-278.574 1732.23,-213.786 1762,-174 1771.8,-160.909 1810.16,-146.968 1840.12,-137.699"/>
<polygon fill="midnightblue" stroke="midnightblue" points="1841.34,-140.986 1849.9,-134.743 1839.32,-134.285 1841.34,-140.986"/>
</g>
<!-- Node53&#45;&gt;Node17 -->
<g id="edge244" class="edge"><title>Node53&#45;&gt;Node17</title>
<path fill="none" stroke="midnightblue" d="M1710.38,-313.828C1611.47,-310.401 1336.09,-298.637 1109,-268 1100.75,-266.887 822.332,-213.94 815,-210 786.042,-194.438 760.843,-165.248 746.277,-145.965"/>
<polygon fill="midnightblue" stroke="midnightblue" points="748.914,-143.643 740.183,-137.642 743.266,-147.778 748.914,-143.643"/>
</g>
<!-- Node53&#45;&gt;Node25 -->
<g id="edge242" class="edge"><title>Node53&#45;&gt;Node25</title>
<path fill="none" stroke="midnightblue" d="M1755.14,-304.342C1764.6,-290.458 1782.09,-265.64 1799,-246 1828.53,-211.709 1832.15,-197.206 1871,-174 1916.19,-147.009 1935.61,-153.486 1989.86,-138.207"/>
<polygon fill="midnightblue" stroke="midnightblue" points="1991.04,-141.51 1999.64,-135.326 1989.06,-134.795 1991.04,-141.51"/>
</g>
<!-- Node53&#45;&gt;Node31 -->
<g id="edge240" class="edge"><title>Node53&#45;&gt;Node31</title>
<path fill="none" stroke="midnightblue" d="M1785.62,-310.199C1844.68,-302.255 1956.14,-285.506 1992,-268 2020.65,-254.012 2047.27,-228.086 2063.33,-210.445"/>
<polygon fill="midnightblue" stroke="midnightblue" points="2066.32,-212.347 2070.33,-202.539 2061.08,-207.707 2066.32,-212.347"/>
</g>
<!-- Node53&#45;&gt;Node33 -->
<g id="edge236" class="edge"><title>Node53&#45;&gt;Node33</title>
<path fill="none" stroke="midnightblue" d="M1785.75,-313.457C1917.33,-307.923 2350.96,-288.319 2410,-268 2429.26,-261.37 2473.81,-229.22 2500.86,-208.918"/>
<polygon fill="midnightblue" stroke="midnightblue" points="2503.1,-211.609 2508.97,-202.79 2498.88,-206.023 2503.1,-211.609"/>
</g>
<!-- Node53&#45;&gt;Node50 -->
<g id="edge234" class="edge"><title>Node53&#45;&gt;Node50</title>
<path fill="none" stroke="midnightblue" d="M1785.71,-313.994C1878.19,-311.081 2123.35,-300.648 2325,-268 2326.25,-267.798 2327.52,-267.578 2328.79,-267.345"/>
<polygon fill="midnightblue" stroke="midnightblue" points="2329.56,-270.761 2338.66,-265.333 2328.16,-263.902 2329.56,-270.761"/>
</g>
<!-- Node54&#45;&gt;Node7 -->
<g id="edge252" class="edge"><title>Node54&#45;&gt;Node7</title>
<path fill="none" stroke="midnightblue" d="M1217.89,-369.688C1043.75,-351.549 216.64,-263.139 116,-210 77.6124,-189.731 65.7372,-178.457 50,-138 46.4553,-128.887 43.274,-123.097 50,-116 79.0044,-85.3958 714.193,-72.5473 883.722,-69.6559"/>
<polygon fill="midnightblue" stroke="midnightblue" points="883.809,-73.155 893.748,-69.4873 883.691,-66.156 883.809,-73.155"/>
</g>
<!-- Node54&#45;&gt;Node8 -->
<g id="edge288" class="edge"><title>Node54&#45;&gt;Node8</title>
<path fill="none" stroke="midnightblue" d="M1261.73,-362.446C1287.86,-338.235 1351.09,-275.708 1383,-210 1414.32,-145.511 1381.15,-102.947 1437,-58 1471.65,-30.1193 1522.9,-18.7043 1555.87,-14.0802"/>
<polygon fill="midnightblue" stroke="midnightblue" points="1556.41,-17.5396 1565.89,-12.8053 1555.53,-10.5956 1556.41,-17.5396"/>
</g>
<!-- Node54&#45;&gt;Node10 -->
<g id="edge254" class="edge"><title>Node54&#45;&gt;Node10</title>
<path fill="none" stroke="midnightblue" d="M1250.3,-362.258C1250.54,-339.678 1248.97,-286.073 1231,-246 1213.95,-207.993 1206.4,-195.954 1171,-174 1144.14,-157.339 1057.82,-140.896 1008.83,-132.584"/>
<polygon fill="midnightblue" stroke="midnightblue" points="1009.12,-129.085 998.681,-130.889 1007.97,-135.99 1009.12,-129.085"/>
</g>
<!-- Node54&#45;&gt;Node17 -->
<g id="edge294" class="edge"><title>Node54&#45;&gt;Node17</title>
<path fill="none" stroke="midnightblue" d="M1226.33,-362.382C1161.61,-333.393 984.624,-254.488 957,-246 874.844,-220.755 833.579,-264.352 767,-210 748.043,-194.524 739.547,-166.77 735.813,-147.644"/>
<polygon fill="midnightblue" stroke="midnightblue" points="739.225,-146.824 734.122,-137.539 732.321,-147.979 739.225,-146.824"/>
</g>
<!-- Node54&#45;&gt;Node18 -->
<g id="edge290" class="edge"><title>Node54&#45;&gt;Node18</title>
<path fill="none" stroke="midnightblue" d="M1233.28,-362.364C1195.12,-337.74 1099.37,-274.01 1028,-210 1011.84,-195.508 1013.35,-185.593 995,-174 954.232,-148.244 898.428,-135.81 866.708,-130.471"/>
<polygon fill="midnightblue" stroke="midnightblue" points="866.98,-126.971 856.556,-128.869 865.888,-133.885 866.98,-126.971"/>
</g>
<!-- Node54&#45;&gt;Node46 -->
<g id="edge286" class="edge"><title>Node54&#45;&gt;Node46</title>
<path fill="none" stroke="midnightblue" d="M1282.11,-372.057C1432.19,-367.574 2066.26,-347.761 2287.03,-326.084"/>
<polygon fill="midnightblue" stroke="midnightblue" points="2287.63,-329.541 2297.23,-325.05 2286.92,-322.577 2287.63,-329.541"/>
</g>
<!-- Node54&#45;&gt;Node53 -->
<g id="edge250" class="edge"><title>Node54&#45;&gt;Node53</title>
<path fill="none" stroke="midnightblue" d="M1282.29,-369.239C1367.64,-359.299 1599.54,-332.291 1700.25,-320.561"/>
<polygon fill="midnightblue" stroke="midnightblue" points="1700.91,-324.008 1710.44,-319.375 1700.1,-317.055 1700.91,-324.008"/>
</g>
<!-- Node54&#45;&gt;Node55 -->
<g id="edge256" class="edge"><title>Node54&#45;&gt;Node55</title>
<path fill="none" stroke="midnightblue" d="M1242.62,-362.295C1229.1,-342.7 1200.22,-300.82 1183.24,-276.191"/>
<polygon fill="midnightblue" stroke="midnightblue" points="1185.92,-273.924 1177.36,-267.679 1180.16,-277.898 1185.92,-273.924"/>
</g>
<!-- Node58 -->
<g id="node194" class="node"><title>Node58</title>
<a xlink:href="_tree_8h.html" target="_top" xlink:title="base/Tree.h">
<polygon fill="white" stroke="black" points="1270,-181.5 1270,-202.5 1338,-202.5 1338,-181.5 1270,-181.5"/>
<text text-anchor="middle" x="1304" y="-189.5" font-family="Helvetica,sans-Serif" font-size="10.00">base/Tree.h</text>
</a>
</g>
<!-- Node54&#45;&gt;Node58 -->
<g id="edge272" class="edge"><title>Node54&#45;&gt;Node58</title>
<path fill="none" stroke="midnightblue" d="M1253.14,-362.486C1261.86,-333.245 1286.52,-250.586 1297.99,-212.135"/>
<polygon fill="midnightblue" stroke="midnightblue" points="1301.35,-213.126 1300.85,-202.543 1294.64,-211.125 1301.35,-213.126"/>
</g>
<!-- Node54&#45;&gt;Node60 -->
<g id="edge292" class="edge"><title>Node54&#45;&gt;Node60</title>
<path fill="none" stroke="midnightblue" d="M1217.99,-372.616C1126.92,-371.077 858.811,-363.45 640,-326 638.733,-325.783 637.449,-325.545 636.155,-325.289"/>
<polygon fill="midnightblue" stroke="midnightblue" points="636.715,-321.828 626.191,-323.049 635.18,-328.657 636.715,-321.828"/>
</g>
<!-- Node55&#45;&gt;Node6 -->
<g id="edge260" class="edge"><title>Node55&#45;&gt;Node6</title>
<path fill="none" stroke="midnightblue" d="M1222.24,-252.597C1319.83,-244.354 1536.51,-225.983 1719,-210 1770.37,-205.501 1829.11,-200.225 1869.77,-196.553"/>
<polygon fill="midnightblue" stroke="midnightblue" points="1870.32,-200.018 1879.96,-195.632 1869.69,-193.046 1870.32,-200.018"/>
</g>
<!-- Node55&#45;&gt;Node8 -->
<g id="edge270" class="edge"><title>Node55&#45;&gt;Node8</title>
<path fill="none" stroke="midnightblue" d="M1173.89,-246.3C1179.38,-229.151 1187.05,-195.284 1171,-174 1133.88,-124.783 1006.85,-164.424 1045,-116 1108.91,-34.8808 1448.81,-15.9498 1555.76,-11.972"/>
<polygon fill="midnightblue" stroke="midnightblue" points="1556.06,-15.4635 1565.93,-11.6131 1555.82,-8.46788 1556.06,-15.4635"/>
</g>
<!-- Node55&#45;&gt;Node9 -->
<g id="edge264" class="edge"><title>Node55&#45;&gt;Node9</title>
<path fill="none" stroke="midnightblue" d="M1117.92,-254.182C1074.8,-251.88 1011.93,-248.594 957,-246 863.574,-241.588 200.787,-249.484 116,-210 69.7243,-188.45 19.1518,-156.672 50,-116 91.4753,-61.3165 303.037,-27.3266 388.808,-15.6021"/>
<polygon fill="midnightblue" stroke="midnightblue" points="389.418,-19.0518 398.863,-14.2514 388.486,-12.1141 389.418,-19.0518"/>
</g>
<!-- Node55&#45;&gt;Node10 -->
<g id="edge258" class="edge"><title>Node55&#45;&gt;Node10</title>
<path fill="none" stroke="midnightblue" d="M1170.22,-246.449C1169.98,-228.894 1166.87,-193.676 1147,-174 1102.88,-130.305 1071.83,-154.634 1012,-138 1010.77,-137.658 1009.52,-137.309 1008.26,-136.954"/>
<polygon fill="midnightblue" stroke="midnightblue" points="1009.08,-133.549 998.508,-134.177 1007.17,-140.282 1009.08,-133.549"/>
</g>
<!-- Node55&#45;&gt;Node15 -->
<g id="edge262" class="edge"><title>Node55&#45;&gt;Node15</title>
<path fill="none" stroke="midnightblue" d="M1222.22,-256.523C1376.28,-254.708 1826.98,-246.349 1969,-210 2005.21,-200.733 2009.05,-184.228 2045,-174 2179.56,-135.713 2223.9,-170.027 2363.51,-137.891"/>
<polygon fill="midnightblue" stroke="midnightblue" points="2364.37,-141.285 2373.29,-135.569 2362.75,-134.475 2364.37,-141.285"/>
</g>
<!-- Node55&#45;&gt;Node56 -->
<g id="edge266" class="edge"><title>Node55&#45;&gt;Node56</title>
<path fill="none" stroke="midnightblue" d="M1117.92,-254.226C1074.8,-251.949 1011.92,-248.676 957,-246 869.679,-241.746 252.126,-242.584 171,-210 137.213,-196.429 107.244,-165.48 90.3838,-145.448"/>
<polygon fill="midnightblue" stroke="midnightblue" points="93.023,-143.146 83.9876,-137.613 87.6006,-147.573 93.023,-143.146"/>
</g>
<!-- Node57 -->
<g id="node191" class="node"><title>Node57</title>
<polygon fill="white" stroke="#bfbfbf" points="823.5,-181.5 823.5,-202.5 870.5,-202.5 870.5,-181.5 823.5,-181.5"/>
<text text-anchor="middle" x="847" y="-189.5" font-family="Helvetica,sans-Serif" font-size="10.00">iterator</text>
</g>
<!-- Node55&#45;&gt;Node57 -->
<g id="edge268" class="edge"><title>Node55&#45;&gt;Node57</title>
<path fill="none" stroke="midnightblue" d="M1117.82,-250.269C1047.59,-240.893 926.559,-223.531 884,-210 881.192,-209.107 878.328,-208.035 875.499,-206.864"/>
<polygon fill="midnightblue" stroke="midnightblue" points="876.702,-203.566 866.15,-202.621 873.809,-209.94 876.702,-203.566"/>
</g>
<!-- Node58&#45;&gt;Node8 -->
<g id="edge280" class="edge"><title>Node58&#45;&gt;Node8</title>
<path fill="none" stroke="midnightblue" d="M1299.71,-181.411C1290.41,-156.545 1271.58,-93.8261 1302,-58 1318.3,-38.8001 1484.05,-20.8831 1555.51,-13.987"/>
<polygon fill="midnightblue" stroke="midnightblue" points="1556.11,-17.4455 1565.73,-13.0134 1555.45,-10.477 1556.11,-17.4455"/>
</g>
<!-- Node58&#45;&gt;Node11 -->
<g id="edge282" class="edge"><title>Node58&#45;&gt;Node11</title>
<path fill="none" stroke="midnightblue" d="M1338.19,-188.129C1438.87,-176.727 1733.86,-143.323 1839.67,-131.341"/>
<polygon fill="midnightblue" stroke="midnightblue" points="1840.34,-134.787 1849.89,-130.184 1839.56,-127.831 1840.34,-134.787"/>
</g>
<!-- Node58&#45;&gt;Node17 -->
<g id="edge276" class="edge"><title>Node58&#45;&gt;Node17</title>
<path fill="none" stroke="midnightblue" d="M1269.7,-188.02C1237.9,-184.34 1189.26,-178.742 1147,-174 1001.26,-157.648 964.629,-155.304 819,-138 802.726,-136.066 784.74,-133.788 769.441,-131.807"/>
<polygon fill="midnightblue" stroke="midnightblue" points="769.7,-128.312 759.332,-130.492 768.797,-135.253 769.7,-128.312"/>
</g>
<!-- Node58&#45;&gt;Node18 -->
<g id="edge278" class="edge"><title>Node58&#45;&gt;Node18</title>
<path fill="none" stroke="midnightblue" d="M1269.65,-187.168C1180.76,-174.661 944.679,-141.446 867.097,-130.531"/>
<polygon fill="midnightblue" stroke="midnightblue" points="867.227,-127.015 856.837,-129.087 866.252,-133.947 867.227,-127.015"/>
</g>
<!-- Node58&#45;&gt;Node42 -->
<g id="edge284" class="edge"><title>Node58&#45;&gt;Node42</title>
<path fill="none" stroke="midnightblue" d="M1326.81,-181.412C1349.99,-170.647 1386.11,-153.878 1412.12,-141.801"/>
<polygon fill="midnightblue" stroke="midnightblue" points="1413.61,-144.969 1421.2,-137.584 1410.66,-138.62 1413.61,-144.969"/>
</g>
<!-- Node59 -->
<g id="node196" class="node"><title>Node59</title>
<polygon fill="white" stroke="#bfbfbf" points="1054,-116.5 1054,-137.5 1174,-137.5 1174,-116.5 1054,-116.5"/>
<text text-anchor="middle" x="1114" y="-124.5" font-family="Helvetica,sans-Serif" font-size="10.00">base/cereal/access.hpp</text>
</g>
<!-- Node58&#45;&gt;Node59 -->
<g id="edge274" class="edge"><title>Node58&#45;&gt;Node59</title>
<path fill="none" stroke="midnightblue" d="M1276.4,-181.44C1269.74,-178.949 1262.63,-176.339 1256,-174 1222.81,-162.29 1184.97,-149.807 1156.7,-140.651"/>
<polygon fill="midnightblue" stroke="midnightblue" points="1157.71,-137.3 1147.12,-137.557 1155.56,-143.961 1157.71,-137.3"/>
</g>
<!-- Node61&#45;&gt;Node15 -->
<g id="edge298" class="edge"><title>Node61&#45;&gt;Node15</title>
<path fill="none" stroke="midnightblue" d="M535.234,-181.495C544.576,-178.492 555.113,-175.6 565,-174 956.662,-110.609 1955.45,-212.343 2363.23,-137.72"/>
<polygon fill="midnightblue" stroke="midnightblue" points="2364.16,-141.105 2373.34,-135.809 2362.86,-134.226 2364.16,-141.105"/>
</g>
<!-- Node61&#45;&gt;Node17 -->
<g id="edge300" class="edge"><title>Node61&#45;&gt;Node17</title>
<path fill="none" stroke="midnightblue" d="M540.382,-181.464C548.43,-178.973 557.011,-176.357 565,-174 610.28,-160.643 662.704,-146.127 696.785,-136.815"/>
<polygon fill="midnightblue" stroke="midnightblue" points="698.018,-140.107 706.745,-134.099 696.176,-133.353 698.018,-140.107"/>
</g>
<!-- Node61&#45;&gt;Node25 -->
<g id="edge306" class="edge"><title>Node61&#45;&gt;Node25</title>
<path fill="none" stroke="midnightblue" d="M535.535,-181.431C544.803,-178.463 555.221,-175.609 565,-174 1187.21,-71.621 1363.72,-240.226 1989.64,-137.775"/>
<polygon fill="midnightblue" stroke="midnightblue" points="1990.52,-141.176 1999.82,-136.091 1989.38,-134.27 1990.52,-141.176"/>
</g>
<!-- Node61&#45;&gt;Node56 -->
<g id="edge302" class="edge"><title>Node61&#45;&gt;Node56</title>
<path fill="none" stroke="midnightblue" d="M457.745,-182.315C442.76,-179.49 426.228,-176.495 411,-174 297.476,-155.404 161.553,-137.749 103.97,-130.482"/>
<polygon fill="midnightblue" stroke="midnightblue" points="104.198,-126.984 93.8391,-129.209 103.325,-133.929 104.198,-126.984"/>
</g>
<!-- Node62 -->
<g id="node214" class="node"><title>Node62</title>
<polygon fill="white" stroke="#bfbfbf" points="492,-116.5 492,-137.5 522,-137.5 522,-116.5 492,-116.5"/>
<text text-anchor="middle" x="507" y="-124.5" font-family="Helvetica,sans-Serif" font-size="10.00">set</text>
</g>
<!-- Node61&#45;&gt;Node62 -->
<g id="edge304" class="edge"><title>Node61&#45;&gt;Node62</title>
<path fill="none" stroke="midnightblue" d="M507,-181.267C507,-172.18 507,-158.892 507,-147.74"/>
<polygon fill="midnightblue" stroke="midnightblue" points="510.5,-147.534 507,-137.534 503.5,-147.534 510.5,-147.534"/>
</g>
<!-- Node63&#45;&gt;Node8 -->
<g id="edge314" class="edge"><title>Node63&#45;&gt;Node8</title>
<path fill="none" stroke="midnightblue" d="M342.473,-174.947C329.956,-158.121 316.067,-132.578 331,-116 415.467,-22.2277 1367.09,-12.1948 1555.64,-11.1266"/>
<polygon fill="midnightblue" stroke="midnightblue" points="1555.77,-14.6261 1565.75,-11.074 1555.73,-7.6262 1555.77,-14.6261"/>
</g>
<!-- Node63&#45;&gt;Node15 -->
<g id="edge310" class="edge"><title>Node63&#45;&gt;Node15</title>
<path fill="none" stroke="midnightblue" d="M402.621,-181.443C417.342,-178.475 433.787,-175.619 449,-174 869.154,-129.296 1930.12,-217.31 2363.23,-137.723"/>
<polygon fill="midnightblue" stroke="midnightblue" points="2364.16,-141.108 2373.34,-135.812 2362.87,-134.23 2364.16,-141.108"/>
</g>
<!-- Node63&#45;&gt;Node17 -->
<g id="edge318" class="edge"><title>Node63&#45;&gt;Node17</title>
<path fill="none" stroke="midnightblue" d="M402.558,-177.367C407.076,-176.138 411.612,-174.989 416,-174 516.61,-151.327 637.727,-136.846 696.9,-130.581"/>
<polygon fill="midnightblue" stroke="midnightblue" points="697.288,-134.06 706.871,-129.542 696.562,-127.098 697.288,-134.06"/>
</g>
<!-- Node63&#45;&gt;Node18 -->
<g id="edge312" class="edge"><title>Node63&#45;&gt;Node18</title>
<path fill="none" stroke="midnightblue" d="M402.732,-182.296C417.459,-179.374 433.88,-176.328 449,-174 590.015,-152.284 626.526,-156.492 768,-138 784.421,-135.854 802.84,-133.117 817.195,-130.91"/>
<polygon fill="midnightblue" stroke="midnightblue" points="817.935,-134.337 827.279,-129.344 816.861,-127.42 817.935,-134.337"/>
</g>
<!-- Node63&#45;&gt;Node20 -->
<g id="edge322" class="edge"><title>Node63&#45;&gt;Node20</title>
<path fill="none" stroke="midnightblue" d="M320.479,-174.922C298.577,-164.68 270.986,-151.777 249.951,-141.941"/>
<polygon fill="midnightblue" stroke="midnightblue" points="251.334,-138.724 240.793,-137.658 248.368,-145.065 251.334,-138.724"/>
</g>
<!-- Node63&#45;&gt;Node52 -->
<g id="edge320" class="edge"><title>Node63&#45;&gt;Node52</title>
<path fill="none" stroke="midnightblue" d="M360.153,-174.922C361.693,-166.579 363.559,-156.47 365.18,-147.692"/>
<polygon fill="midnightblue" stroke="midnightblue" points="368.623,-148.321 366.997,-137.852 361.739,-147.05 368.623,-148.321"/>
</g>
<!-- Node63&#45;&gt;Node56 -->
<g id="edge316" class="edge"><title>Node63&#45;&gt;Node56</title>
<path fill="none" stroke="midnightblue" d="M311.227,-181.412C252.382,-167.8 152.041,-144.59 103.676,-133.402"/>
<polygon fill="midnightblue" stroke="midnightblue" points="104.167,-129.923 93.6352,-131.079 102.589,-136.743 104.167,-129.923"/>
</g>
</g>
</svg>
