<?xml version="1.0" encoding="UTF-8" standalone="no"?>
<!DOCTYPE svg PUBLIC "-//W3C//DTD SVG 1.1//EN"
 "http://www.w3.org/Graphics/SVG/1.1/DTD/svg11.dtd">
<!-- Generated by graphviz version 2.26.3 (20100126.1600)
 -->
<!-- Title: src/calibration/gui/EditorWindow.h Pages: 1 -->
<svg width="1350pt" height="406pt"
 viewBox="0.00 0.00 1350.00 406.00" xmlns="http://www.w3.org/2000/svg" xmlns:xlink="http://www.w3.org/1999/xlink">
<g id="graph1" class="graph" transform="scale(1 1) rotate(0) translate(4 402)">
<title>src/calibration/gui/EditorWindow.h</title>
<polygon fill="white" stroke="white" points="-4,5 -4,-402 1347,-402 1347,5 -4,5"/>
<!-- Node1 -->
<g id="node1" class="node"><title>Node1</title>
<polygon fill="#bfbfbf" stroke="black" points="1005.5,-363 1005.5,-397 1098.5,-397 1098.5,-363 1005.5,-363"/>
<text text-anchor="start" x="1013.5" y="-384" font-family="Helvetica,sans-Serif" font-size="10.00">src/calibration/gui</text>
<text text-anchor="middle" x="1052" y="-371" font-family="Helvetica,sans-Serif" font-size="10.00">/EditorWindow.h</text>
</g>
<!-- Node2 -->
<g id="node3" class="node"><title>Node2</title>
<a xlink:href="_editor_8h.html" target="_top" xlink:title="calibration/Editor.h">
<polygon fill="white" stroke="black" points="820,-304.5 820,-325.5 918,-325.5 918,-304.5 820,-304.5"/>
<text text-anchor="middle" x="869" y="-312.5" font-family="Helvetica,sans-Serif" font-size="10.00">calibration/Editor.h</text>
</a>
</g>
<!-- Node1&#45;&gt;Node2 -->
<g id="edge2" class="edge"><title>Node1&#45;&gt;Node2</title>
<path fill="none" stroke="midnightblue" d="M1005.35,-363.43C975.32,-352.764 936.73,-339.057 908.273,-328.949"/>
<polygon fill="midnightblue" stroke="midnightblue" points="909.255,-325.584 898.66,-325.535 906.912,-332.18 909.255,-325.584"/>
</g>
<!-- Node11 -->
<g id="node21" class="node"><title>Node11</title>
<polygon fill="white" stroke="#bfbfbf" points="820.5,-0.5 820.5,-21.5 861.5,-21.5 861.5,-0.5 820.5,-0.5"/>
<text text-anchor="middle" x="841" y="-8.5" font-family="Helvetica,sans-Serif" font-size="10.00">string</text>
</g>
<!-- Node1&#45;&gt;Node11 -->
<g id="edge68" class="edge"><title>Node1&#45;&gt;Node11</title>
<path fill="none" stroke="midnightblue" d="M1011.08,-362.997C994.528,-354.212 976.628,-341.943 965,-326 944.484,-297.87 946,-284.817 946,-250 946,-250 946,-250 946,-127 946,-81.509 901.066,-45.8945 869.987,-26.7023"/>
<polygon fill="midnightblue" stroke="midnightblue" points="871.629,-23.6069 861.245,-21.5051 868.052,-29.6238 871.629,-23.6069"/>
</g>
<!-- Node23 -->
<g id="node51" class="node"><title>Node23</title>
<a xlink:href="_indicator__traits_8h.html" target="_top" xlink:title="calibration/gui/Indicator\l_traits.h">
<polygon fill="white" stroke="black" points="363.5,-233 363.5,-267 480.5,-267 480.5,-233 363.5,-233"/>
<text text-anchor="start" x="371.5" y="-254" font-family="Helvetica,sans-Serif" font-size="10.00">calibration/gui/Indicator</text>
<text text-anchor="middle" x="422" y="-241" font-family="Helvetica,sans-Serif" font-size="10.00">_traits.h</text>
</a>
</g>
<!-- Node1&#45;&gt;Node23 -->
<g id="edge56" class="edge"><title>Node1&#45;&gt;Node23</title>
<path fill="none" stroke="midnightblue" d="M1005.42,-370.388C895.664,-347.74 620.367,-290.933 491.088,-264.256"/>
<polygon fill="midnightblue" stroke="midnightblue" points="491.414,-260.75 480.913,-262.157 489.999,-267.605 491.414,-260.75"/>
</g>
<!-- Node24 -->
<g id="node54" class="node"><title>Node24</title>
<polygon fill="white" stroke="#bfbfbf" points="974,-304.5 974,-325.5 1040,-325.5 1040,-304.5 974,-304.5"/>
<text text-anchor="middle" x="1007" y="-312.5" font-family="Helvetica,sans-Serif" font-size="10.00">TGFrame.h</text>
</g>
<!-- Node1&#45;&gt;Node24 -->
<g id="edge60" class="edge"><title>Node1&#45;&gt;Node24</title>
<path fill="none" stroke="midnightblue" d="M1040.18,-362.922C1034.08,-354.12 1026.63,-343.354 1020.33,-334.258"/>
<polygon fill="midnightblue" stroke="midnightblue" points="1023.08,-332.082 1014.51,-325.852 1017.33,-336.066 1023.08,-332.082"/>
</g>
<!-- Node25 -->
<g id="node56" class="node"><title>Node25</title>
<polygon fill="white" stroke="#bfbfbf" points="1058,-304.5 1058,-325.5 1138,-325.5 1138,-304.5 1058,-304.5"/>
<text text-anchor="middle" x="1098" y="-312.5" font-family="Helvetica,sans-Serif" font-size="10.00">KeySymbols.h</text>
</g>
<!-- Node1&#45;&gt;Node25 -->
<g id="edge62" class="edge"><title>Node1&#45;&gt;Node25</title>
<path fill="none" stroke="midnightblue" d="M1064.09,-362.922C1070.31,-354.12 1077.93,-343.354 1084.37,-334.258"/>
<polygon fill="midnightblue" stroke="midnightblue" points="1087.4,-336.037 1090.32,-325.852 1081.69,-331.993 1087.4,-336.037"/>
</g>
<!-- Node26 -->
<g id="node58" class="node"><title>Node26</title>
<polygon fill="white" stroke="#bfbfbf" points="1155.5,-304.5 1155.5,-325.5 1220.5,-325.5 1220.5,-304.5 1155.5,-304.5"/>
<text text-anchor="middle" x="1188" y="-312.5" font-family="Helvetica,sans-Serif" font-size="10.00">TCanvas.h</text>
</g>
<!-- Node1&#45;&gt;Node26 -->
<g id="edge64" class="edge"><title>Node1&#45;&gt;Node26</title>
<path fill="none" stroke="midnightblue" d="M1087.73,-362.922C1109.07,-352.726 1135.91,-339.894 1156.46,-330.074"/>
<polygon fill="midnightblue" stroke="midnightblue" points="1158.19,-333.128 1165.7,-325.658 1155.17,-326.813 1158.19,-333.128"/>
</g>
<!-- Node27 -->
<g id="node60" class="node"><title>Node27</title>
<polygon fill="white" stroke="#bfbfbf" points="1237.5,-304.5 1237.5,-325.5 1272.5,-325.5 1272.5,-304.5 1237.5,-304.5"/>
<text text-anchor="middle" x="1255" y="-312.5" font-family="Helvetica,sans-Serif" font-size="10.00">map</text>
</g>
<!-- Node1&#45;&gt;Node27 -->
<g id="edge66" class="edge"><title>Node1&#45;&gt;Node27</title>
<path fill="none" stroke="midnightblue" d="M1098.65,-367.206C1132.42,-357.62 1179.27,-343.657 1228.03,-326.138"/>
<polygon fill="midnightblue" stroke="midnightblue" points="1229.27,-329.41 1237.48,-322.706 1226.88,-322.83 1229.27,-329.41"/>
</g>
<!-- Node28 -->
<g id="node63" class="node"><title>Node28</title>
<polygon fill="white" stroke="#bfbfbf" points="1290,-304.5 1290,-325.5 1342,-325.5 1342,-304.5 1290,-304.5"/>
<text text-anchor="middle" x="1316" y="-312.5" font-family="Helvetica,sans-Serif" font-size="10.00">memory</text>
</g>
<!-- Node1&#45;&gt;Node28 -->
<g id="edge70" class="edge"><title>Node1&#45;&gt;Node28</title>
<path fill="none" stroke="midnightblue" d="M1098.74,-370.025C1143.02,-360.342 1211.57,-344.749 1279.65,-326.246"/>
<polygon fill="midnightblue" stroke="midnightblue" points="1280.97,-329.514 1289.69,-323.496 1279.12,-322.763 1280.97,-329.514"/>
</g>
<!-- Node3 -->
<g id="node5" class="node"><title>Node3</title>
<a xlink:href="_t_calibration_data_8h.html" target="_top" xlink:title="tree/TCalibrationData.h">
<polygon fill="white" stroke="black" points="715,-239.5 715,-260.5 833,-260.5 833,-239.5 715,-239.5"/>
<text text-anchor="middle" x="774" y="-247.5" font-family="Helvetica,sans-Serif" font-size="10.00">tree/TCalibrationData.h</text>
</a>
</g>
<!-- Node2&#45;&gt;Node3 -->
<g id="edge4" class="edge"><title>Node2&#45;&gt;Node3</title>
<path fill="none" stroke="midnightblue" d="M853.313,-304.267C838.234,-293.949 815.239,-278.216 797.885,-266.342"/>
<polygon fill="midnightblue" stroke="midnightblue" points="799.625,-263.292 789.395,-260.534 795.672,-269.069 799.625,-263.292"/>
</g>
<!-- Node2&#45;&gt;Node11 -->
<g id="edge54" class="edge"><title>Node2&#45;&gt;Node11</title>
<path fill="none" stroke="midnightblue" d="M874.588,-304.201C885.372,-282.325 908,-230.948 908,-185 908,-185 908,-185 908,-127 908,-88.024 879.286,-50.3657 859.453,-29.0036"/>
<polygon fill="midnightblue" stroke="midnightblue" points="861.824,-26.4194 852.366,-21.6454 856.782,-31.2757 861.824,-26.4194"/>
</g>
<!-- Node4 -->
<g id="node7" class="node"><title>Node4</title>
<a xlink:href="_t_i_d_8h.html" target="_top" xlink:title="TID.h">
<polygon fill="white" stroke="black" points="408.5,-174.5 408.5,-195.5 449.5,-195.5 449.5,-174.5 408.5,-174.5"/>
<text text-anchor="middle" x="429" y="-182.5" font-family="Helvetica,sans-Serif" font-size="10.00">TID.h</text>
</a>
</g>
<!-- Node3&#45;&gt;Node4 -->
<g id="edge6" class="edge"><title>Node3&#45;&gt;Node4</title>
<path fill="none" stroke="midnightblue" d="M718.186,-239.484C644.578,-225.616 517.604,-201.694 459.557,-190.757"/>
<polygon fill="midnightblue" stroke="midnightblue" points="460.024,-187.284 449.549,-188.872 458.728,-194.163 460.024,-187.284"/>
</g>
<!-- Node3&#45;&gt;Node11 -->
<g id="edge46" class="edge"><title>Node3&#45;&gt;Node11</title>
<path fill="none" stroke="midnightblue" d="M776.565,-239.14C780.091,-224.358 786.715,-197.097 793,-174 807.065,-122.31 825.328,-61.9368 834.757,-31.2069"/>
<polygon fill="midnightblue" stroke="midnightblue" points="838.106,-32.2236 837.702,-21.6364 831.415,-30.1647 838.106,-32.2236"/>
</g>
<!-- Node15 -->
<g id="node30" class="node"><title>Node15</title>
<polygon fill="white" stroke="#bfbfbf" points="677.5,-58.5 677.5,-79.5 718.5,-79.5 718.5,-58.5 677.5,-58.5"/>
<text text-anchor="middle" x="698" y="-66.5" font-family="Helvetica,sans-Serif" font-size="10.00">ctime</text>
</g>
<!-- Node3&#45;&gt;Node15 -->
<g id="edge48" class="edge"><title>Node3&#45;&gt;Node15</title>
<path fill="none" stroke="midnightblue" d="M769.585,-239.486C757.307,-210.245 722.6,-127.586 706.454,-89.1347"/>
<polygon fill="midnightblue" stroke="midnightblue" points="709.525,-87.4079 702.427,-79.5427 703.071,-90.1179 709.525,-87.4079"/>
</g>
<!-- Node22 -->
<g id="node47" class="node"><title>Node22</title>
<a xlink:href="_git_info_8h.html" target="_top" xlink:title="base/GitInfo.h">
<polygon fill="white" stroke="black" points="802,-174.5 802,-195.5 880,-195.5 880,-174.5 802,-174.5"/>
<text text-anchor="middle" x="841" y="-182.5" font-family="Helvetica,sans-Serif" font-size="10.00">base/GitInfo.h</text>
</a>
</g>
<!-- Node3&#45;&gt;Node22 -->
<g id="edge50" class="edge"><title>Node3&#45;&gt;Node22</title>
<path fill="none" stroke="midnightblue" d="M785.064,-239.267C795.308,-229.328 810.733,-214.363 822.792,-202.664"/>
<polygon fill="midnightblue" stroke="midnightblue" points="825.402,-205.009 830.142,-195.534 820.528,-199.985 825.402,-205.009"/>
</g>
<!-- Node5 -->
<g id="node9" class="node"><title>Node5</title>
<polygon fill="white" stroke="#bfbfbf" points="0,-116.5 0,-137.5 56,-137.5 56,-116.5 0,-116.5"/>
<text text-anchor="middle" x="28" y="-124.5" font-family="Helvetica,sans-Serif" font-size="10.00">Rtypes.h</text>
</g>
<!-- Node4&#45;&gt;Node5 -->
<g id="edge8" class="edge"><title>Node4&#45;&gt;Node5</title>
<path fill="none" stroke="midnightblue" d="M408.28,-183.497C353.753,-179.296 201.708,-165.998 66.2949,-138.009"/>
<polygon fill="midnightblue" stroke="midnightblue" points="66.6678,-134.511 56.1618,-135.88 65.2285,-141.361 66.6678,-134.511"/>
</g>
<!-- Node6 -->
<g id="node11" class="node"><title>Node6</title>
<a xlink:href="printable_8h.html" target="_top" xlink:title="base/printable.h">
<polygon fill="white" stroke="black" points="74,-116.5 74,-137.5 160,-137.5 160,-116.5 74,-116.5"/>
<text text-anchor="middle" x="117" y="-124.5" font-family="Helvetica,sans-Serif" font-size="10.00">base/printable.h</text>
</a>
</g>
<!-- Node4&#45;&gt;Node6 -->
<g id="edge10" class="edge"><title>Node4&#45;&gt;Node6</title>
<path fill="none" stroke="midnightblue" d="M408.401,-181.49C365.884,-174.2 265.107,-156.687 170.165,-138.189"/>
<polygon fill="midnightblue" stroke="midnightblue" points="170.596,-134.707 160.11,-136.222 169.252,-141.577 170.596,-134.707"/>
</g>
<!-- Node9 -->
<g id="node17" class="node"><title>Node9</title>
<a xlink:href="time_8h.html" target="_top" xlink:title="base/std_ext/time.h">
<polygon fill="white" stroke="black" points="377.5,-116.5 377.5,-137.5 480.5,-137.5 480.5,-116.5 377.5,-116.5"/>
<text text-anchor="middle" x="429" y="-124.5" font-family="Helvetica,sans-Serif" font-size="10.00">base/std_ext/time.h</text>
</a>
</g>
<!-- Node4&#45;&gt;Node9 -->
<g id="edge16" class="edge"><title>Node4&#45;&gt;Node9</title>
<path fill="none" stroke="midnightblue" d="M429,-174.362C429,-166.922 429,-156.743 429,-147.728"/>
<polygon fill="midnightblue" stroke="midnightblue" points="432.5,-147.571 429,-137.571 425.5,-147.571 432.5,-147.571"/>
</g>
<!-- Node4&#45;&gt;Node15 -->
<g id="edge44" class="edge"><title>Node4&#45;&gt;Node15</title>
<path fill="none" stroke="midnightblue" d="M449.663,-183.871C503.358,-180.523 645.449,-168.88 679,-138 692.242,-125.812 696.582,-105.328 697.854,-89.8361"/>
<polygon fill="midnightblue" stroke="midnightblue" points="701.36,-89.7782 698.322,-79.6285 694.368,-89.4578 701.36,-89.7782"/>
</g>
<!-- Node16 -->
<g id="node32" class="node"><title>Node16</title>
<polygon fill="white" stroke="#bfbfbf" points="178,-116.5 178,-137.5 240,-137.5 240,-116.5 178,-116.5"/>
<text text-anchor="middle" x="209" y="-124.5" font-family="Helvetica,sans-Serif" font-size="10.00">type_traits</text>
</g>
<!-- Node4&#45;&gt;Node16 -->
<g id="edge32" class="edge"><title>Node4&#45;&gt;Node16</title>
<path fill="none" stroke="midnightblue" d="M408.461,-179.729C376.648,-171.546 313.3,-155.172 250.152,-138.288"/>
<polygon fill="midnightblue" stroke="midnightblue" points="250.997,-134.892 240.432,-135.685 249.186,-141.653 250.997,-134.892"/>
</g>
<!-- Node17 -->
<g id="node34" class="node"><title>Node17</title>
<polygon fill="white" stroke="#bfbfbf" points="258,-116.5 258,-137.5 296,-137.5 296,-116.5 258,-116.5"/>
<text text-anchor="middle" x="277" y="-124.5" font-family="Helvetica,sans-Serif" font-size="10.00">tuple</text>
</g>
<!-- Node4&#45;&gt;Node17 -->
<g id="edge34" class="edge"><title>Node4&#45;&gt;Node17</title>
<path fill="none" stroke="midnightblue" d="M408.347,-177.259C385.444,-168.655 347.175,-154.225 305.722,-138.253"/>
<polygon fill="midnightblue" stroke="midnightblue" points="306.857,-134.94 296.268,-134.605 304.337,-141.47 306.857,-134.94"/>
</g>
<!-- Node18 -->
<g id="node36" class="node"><title>Node18</title>
<polygon fill="white" stroke="#bfbfbf" points="314,-116.5 314,-137.5 360,-137.5 360,-116.5 314,-116.5"/>
<text text-anchor="middle" x="337" y="-124.5" font-family="Helvetica,sans-Serif" font-size="10.00">cstdint</text>
</g>
<!-- Node4&#45;&gt;Node18 -->
<g id="edge36" class="edge"><title>Node4&#45;&gt;Node18</title>
<path fill="none" stroke="midnightblue" d="M412.126,-174.362C398.249,-165.614 378.366,-153.079 362.54,-143.101"/>
<polygon fill="midnightblue" stroke="midnightblue" points="364.093,-139.943 353.767,-137.571 360.36,-145.864 364.093,-139.943"/>
</g>
<!-- Node19 -->
<g id="node38" class="node"><title>Node19</title>
<polygon fill="white" stroke="#bfbfbf" points="497.5,-116.5 497.5,-137.5 556.5,-137.5 556.5,-116.5 497.5,-116.5"/>
<text text-anchor="middle" x="527" y="-124.5" font-family="Helvetica,sans-Serif" font-size="10.00">stdexcept</text>
</g>
<!-- Node4&#45;&gt;Node19 -->
<g id="edge38" class="edge"><title>Node4&#45;&gt;Node19</title>
<path fill="none" stroke="midnightblue" d="M446.975,-174.362C461.894,-165.532 483.333,-152.844 500.266,-142.822"/>
<polygon fill="midnightblue" stroke="midnightblue" points="502.316,-145.676 509.139,-137.571 498.751,-139.652 502.316,-145.676"/>
</g>
<!-- Node20 -->
<g id="node40" class="node"><title>Node20</title>
<polygon fill="white" stroke="#bfbfbf" points="573.5,-116.5 573.5,-137.5 602.5,-137.5 602.5,-116.5 573.5,-116.5"/>
<text text-anchor="middle" x="588" y="-124.5" font-family="Helvetica,sans-Serif" font-size="10.00">list</text>
</g>
<!-- Node4&#45;&gt;Node20 -->
<g id="edge40" class="edge"><title>Node4&#45;&gt;Node20</title>
<path fill="none" stroke="midnightblue" d="M449.544,-178.702C474.678,-170.827 518.64,-156.506 563.695,-138.287"/>
<polygon fill="midnightblue" stroke="midnightblue" points="565.09,-141.497 573.016,-134.466 562.436,-135.02 565.09,-141.497"/>
</g>
<!-- Node21 -->
<g id="node42" class="node"><title>Node21</title>
<polygon fill="white" stroke="#bfbfbf" points="620,-116.5 620,-137.5 670,-137.5 670,-116.5 620,-116.5"/>
<text text-anchor="middle" x="645" y="-124.5" font-family="Helvetica,sans-Serif" font-size="10.00">iomanip</text>
</g>
<!-- Node4&#45;&gt;Node21 -->
<g id="edge42" class="edge"><title>Node4&#45;&gt;Node21</title>
<path fill="none" stroke="midnightblue" d="M449.58,-180.113C481.769,-172.379 546.172,-156.54 609.983,-138.185"/>
<polygon fill="midnightblue" stroke="midnightblue" points="611.171,-141.485 619.801,-135.339 609.222,-134.762 611.171,-141.485"/>
</g>
<!-- Node7 -->
<g id="node13" class="node"><title>Node7</title>
<polygon fill="white" stroke="#bfbfbf" points="171,-0.5 171,-21.5 215,-21.5 215,-0.5 171,-0.5"/>
<text text-anchor="middle" x="193" y="-8.5" font-family="Helvetica,sans-Serif" font-size="10.00">vector</text>
</g>
<!-- Node6&#45;&gt;Node7 -->
<g id="edge12" class="edge"><title>Node6&#45;&gt;Node7</title>
<path fill="none" stroke="midnightblue" d="M117.923,-116.373C119.587,-102.083 124.108,-76.3517 136,-58 143.815,-45.9396 155.709,-35.4329 166.613,-27.4301"/>
<polygon fill="midnightblue" stroke="midnightblue" points="168.835,-30.1481 175.049,-21.567 164.84,-24.3999 168.835,-30.1481"/>
</g>
<!-- Node8 -->
<g id="node15" class="node"><title>Node8</title>
<polygon fill="white" stroke="#bfbfbf" points="145,-58.5 145,-79.5 197,-79.5 197,-58.5 145,-58.5"/>
<text text-anchor="middle" x="171" y="-66.5" font-family="Helvetica,sans-Serif" font-size="10.00">ostream</text>
</g>
<!-- Node6&#45;&gt;Node8 -->
<g id="edge14" class="edge"><title>Node6&#45;&gt;Node8</title>
<path fill="none" stroke="midnightblue" d="M126.904,-116.362C134.516,-108.186 145.208,-96.7025 154.157,-87.0907"/>
<polygon fill="midnightblue" stroke="midnightblue" points="156.906,-89.2746 161.158,-79.5707 151.783,-84.5046 156.906,-89.2746"/>
</g>
<!-- Node10 -->
<g id="node19" class="node"><title>Node10</title>
<a xlink:href="string_8h.html" target="_top" xlink:title="base/std_ext/string.h">
<polygon fill="white" stroke="black" points="328,-58.5 328,-79.5 436,-79.5 436,-58.5 328,-58.5"/>
<text text-anchor="middle" x="382" y="-66.5" font-family="Helvetica,sans-Serif" font-size="10.00">base/std_ext/string.h</text>
</a>
</g>
<!-- Node9&#45;&gt;Node10 -->
<g id="edge18" class="edge"><title>Node9&#45;&gt;Node10</title>
<path fill="none" stroke="midnightblue" d="M420.379,-116.362C413.82,-108.268 404.634,-96.9318 396.894,-87.3796"/>
<polygon fill="midnightblue" stroke="midnightblue" points="399.581,-85.1364 390.566,-79.5707 394.142,-89.5436 399.581,-85.1364"/>
</g>
<!-- Node14 -->
<g id="node28" class="node"><title>Node14</title>
<polygon fill="white" stroke="#bfbfbf" points="454,-58.5 454,-79.5 500,-79.5 500,-58.5 454,-58.5"/>
<text text-anchor="middle" x="477" y="-66.5" font-family="Helvetica,sans-Serif" font-size="10.00">cstring</text>
</g>
<!-- Node9&#45;&gt;Node14 -->
<g id="edge28" class="edge"><title>Node9&#45;&gt;Node14</title>
<path fill="none" stroke="midnightblue" d="M437.804,-116.362C444.502,-108.268 453.884,-96.9318 461.789,-87.3796"/>
<polygon fill="midnightblue" stroke="midnightblue" points="464.573,-89.5061 468.252,-79.5707 459.18,-85.0431 464.573,-89.5061"/>
</g>
<!-- Node9&#45;&gt;Node15 -->
<g id="edge30" class="edge"><title>Node9&#45;&gt;Node15</title>
<path fill="none" stroke="midnightblue" d="M477.714,-116.497C532.915,-104.594 621.205,-85.5581 667.465,-75.5837"/>
<polygon fill="midnightblue" stroke="midnightblue" points="668.437,-78.9547 677.475,-73.4255 666.962,-72.1119 668.437,-78.9547"/>
</g>
<!-- Node10&#45;&gt;Node7 -->
<g id="edge26" class="edge"><title>Node10&#45;&gt;Node7</title>
<path fill="none" stroke="midnightblue" d="M347.774,-58.4966C312.875,-47.7872 259.156,-31.3018 225.062,-20.8391"/>
<polygon fill="midnightblue" stroke="midnightblue" points="225.74,-17.3863 215.154,-17.7985 223.687,-24.0783 225.74,-17.3863"/>
</g>
<!-- Node10&#45;&gt;Node11 -->
<g id="edge20" class="edge"><title>Node10&#45;&gt;Node11</title>
<path fill="none" stroke="midnightblue" d="M436.266,-59.3309C439.218,-58.8655 442.144,-58.4185 445,-58 580.617,-38.1276 743.312,-20.8824 810.094,-14.0861"/>
<polygon fill="midnightblue" stroke="midnightblue" points="810.738,-17.5389 820.335,-13.0496 810.033,-10.5745 810.738,-17.5389"/>
</g>
<!-- Node12 -->
<g id="node23" class="node"><title>Node12</title>
<polygon fill="white" stroke="#bfbfbf" points="320,-0.5 320,-21.5 372,-21.5 372,-0.5 320,-0.5"/>
<text text-anchor="middle" x="346" y="-8.5" font-family="Helvetica,sans-Serif" font-size="10.00">sstream</text>
</g>
<!-- Node10&#45;&gt;Node12 -->
<g id="edge22" class="edge"><title>Node10&#45;&gt;Node12</title>
<path fill="none" stroke="midnightblue" d="M375.397,-58.3619C370.525,-50.5131 363.762,-39.6159 357.95,-30.2527"/>
<polygon fill="midnightblue" stroke="midnightblue" points="360.809,-28.2213 352.561,-21.5707 354.861,-31.9129 360.809,-28.2213"/>
</g>
<!-- Node13 -->
<g id="node25" class="node"><title>Node13</title>
<polygon fill="white" stroke="#bfbfbf" points="390,-0.5 390,-21.5 446,-21.5 446,-0.5 390,-0.5"/>
<text text-anchor="middle" x="418" y="-8.5" font-family="Helvetica,sans-Serif" font-size="10.00">algorithm</text>
</g>
<!-- Node10&#45;&gt;Node13 -->
<g id="edge24" class="edge"><title>Node10&#45;&gt;Node13</title>
<path fill="none" stroke="midnightblue" d="M388.603,-58.3619C393.475,-50.5131 400.238,-39.6159 406.05,-30.2527"/>
<polygon fill="midnightblue" stroke="midnightblue" points="409.139,-31.9129 411.439,-21.5707 403.191,-28.2213 409.139,-31.9129"/>
</g>
<!-- Node22&#45;&gt;Node11 -->
<g id="edge52" class="edge"><title>Node22&#45;&gt;Node11</title>
<path fill="none" stroke="midnightblue" d="M841,-174.377C841,-146.293 841,-69.6735 841,-32.2027"/>
<polygon fill="midnightblue" stroke="midnightblue" points="844.5,-31.9277 841,-21.9277 837.5,-31.9278 844.5,-31.9277"/>
</g>
<!-- Node23&#45;&gt;Node5 -->
<g id="edge58" class="edge"><title>Node23&#45;&gt;Node5</title>
<path fill="none" stroke="midnightblue" d="M367.216,-232.897C286.199,-207.605 136.469,-160.862 66.2412,-138.938"/>
<polygon fill="midnightblue" stroke="midnightblue" points="67.0629,-135.528 56.4742,-135.889 64.9768,-142.21 67.0629,-135.528"/>
</g>
</g>
</svg>
