<?xml version="1.0" encoding="UTF-8" standalone="no"?>
<!DOCTYPE svg PUBLIC "-//W3C//DTD SVG 1.1//EN"
 "http://www.w3.org/Graphics/SVG/1.1/DTD/svg11.dtd">
<!-- Generated by graphviz version 2.26.3 (20100126.1600)
 -->
<!-- Title: src/calibration/Editor.cc Pages: 1 -->
<svg width="1651pt" height="378pt"
 viewBox="0.00 0.00 1651.00 378.00" xmlns="http://www.w3.org/2000/svg" xmlns:xlink="http://www.w3.org/1999/xlink">
<g id="graph1" class="graph" transform="scale(1 1) rotate(0) translate(4 374)">
<title>src/calibration/Editor.cc</title>
<polygon fill="white" stroke="white" points="-4,5 -4,-374 1648,-374 1648,5 -4,5"/>
<!-- Node1 -->
<g id="node1" class="node"><title>Node1</title>
<polygon fill="#bfbfbf" stroke="black" points="1166.5,-348.5 1166.5,-369.5 1285.5,-369.5 1285.5,-348.5 1166.5,-348.5"/>
<text text-anchor="middle" x="1226" y="-356.5" font-family="Helvetica,sans-Serif" font-size="10.00">src/calibration/Editor.cc</text>
</g>
<!-- Node2 -->
<g id="node3" class="node"><title>Node2</title>
<a xlink:href="_editor_8h.html" target="_top" xlink:title="Editor.h">
<polygon fill="white" stroke="black" points="1479,-290.5 1479,-311.5 1529,-311.5 1529,-290.5 1479,-290.5"/>
<text text-anchor="middle" x="1504" y="-298.5" font-family="Helvetica,sans-Serif" font-size="10.00">Editor.h</text>
</a>
</g>
<!-- Node1&#45;&gt;Node2 -->
<g id="edge2" class="edge"><title>Node1&#45;&gt;Node2</title>
<path fill="none" stroke="midnightblue" d="M1276.34,-348.497C1332.03,-336.879 1420.29,-318.464 1468.94,-308.314"/>
<polygon fill="midnightblue" stroke="midnightblue" points="1469.91,-311.688 1478.98,-306.219 1468.48,-304.836 1469.91,-311.688"/>
</g>
<!-- Node23 -->
<g id="node51" class="node"><title>Node23</title>
<a xlink:href="_wrap_t_file_8h.html" target="_top" xlink:title="base/WrapTFile.h">
<polygon fill="white" stroke="black" points="401,-174.5 401,-195.5 495,-195.5 495,-174.5 401,-174.5"/>
<text text-anchor="middle" x="448" y="-182.5" font-family="Helvetica,sans-Serif" font-size="10.00">base/WrapTFile.h</text>
</a>
</g>
<!-- Node1&#45;&gt;Node23 -->
<g id="edge56" class="edge"><title>Node1&#45;&gt;Node23</title>
<path fill="none" stroke="midnightblue" d="M1178.79,-348.442C1043.15,-318.104 652.543,-230.746 505.185,-197.79"/>
<polygon fill="midnightblue" stroke="midnightblue" points="505.942,-194.372 495.419,-195.605 504.414,-201.204 505.942,-194.372"/>
</g>
<!-- Node3 -->
<g id="node5" class="node"><title>Node3</title>
<a xlink:href="_t_calibration_data_8h.html" target="_top" xlink:title="tree/TCalibrationData.h">
<polygon fill="white" stroke="black" points="1445,-232.5 1445,-253.5 1563,-253.5 1563,-232.5 1445,-232.5"/>
<text text-anchor="middle" x="1504" y="-240.5" font-family="Helvetica,sans-Serif" font-size="10.00">tree/TCalibrationData.h</text>
</a>
</g>
<!-- Node2&#45;&gt;Node3 -->
<g id="edge4" class="edge"><title>Node2&#45;&gt;Node3</title>
<path fill="none" stroke="midnightblue" d="M1504,-290.362C1504,-282.922 1504,-272.743 1504,-263.728"/>
<polygon fill="midnightblue" stroke="midnightblue" points="1507.5,-263.571 1504,-253.571 1500.5,-263.571 1507.5,-263.571"/>
</g>
<!-- Node11 -->
<g id="node21" class="node"><title>Node11</title>
<polygon fill="white" stroke="#bfbfbf" points="1517.5,-0.5 1517.5,-21.5 1558.5,-21.5 1558.5,-0.5 1517.5,-0.5"/>
<text text-anchor="middle" x="1538" y="-8.5" font-family="Helvetica,sans-Serif" font-size="10.00">string</text>
</g>
<!-- Node2&#45;&gt;Node11 -->
<g id="edge54" class="edge"><title>Node2&#45;&gt;Node11</title>
<path fill="none" stroke="midnightblue" d="M1529.17,-292.955C1569.23,-278.394 1643,-243.619 1643,-185 1643,-185 1643,-185 1643,-127 1643,-81.509 1598.07,-45.8945 1566.99,-26.7023"/>
<polygon fill="midnightblue" stroke="midnightblue" points="1568.63,-23.6069 1558.25,-21.5051 1565.05,-29.6238 1568.63,-23.6069"/>
</g>
<!-- Node4 -->
<g id="node7" class="node"><title>Node4</title>
<a xlink:href="_t_i_d_8h.html" target="_top" xlink:title="TID.h">
<polygon fill="white" stroke="black" points="1148.5,-174.5 1148.5,-195.5 1189.5,-195.5 1189.5,-174.5 1148.5,-174.5"/>
<text text-anchor="middle" x="1169" y="-182.5" font-family="Helvetica,sans-Serif" font-size="10.00">TID.h</text>
</a>
</g>
<!-- Node3&#45;&gt;Node4 -->
<g id="edge6" class="edge"><title>Node3&#45;&gt;Node4</title>
<path fill="none" stroke="midnightblue" d="M1444.88,-232.764C1373.24,-220.36 1255.23,-199.93 1199.7,-190.315"/>
<polygon fill="midnightblue" stroke="midnightblue" points="1200.22,-186.854 1189.77,-188.596 1199.03,-193.751 1200.22,-186.854"/>
</g>
<!-- Node3&#45;&gt;Node11 -->
<g id="edge46" class="edge"><title>Node3&#45;&gt;Node11</title>
<path fill="none" stroke="midnightblue" d="M1538.78,-232.441C1556.24,-225.182 1575.8,-213.605 1586,-196 1617.76,-141.182 1575.44,-65.222 1551.88,-30.1523"/>
<polygon fill="midnightblue" stroke="midnightblue" points="1554.65,-28.0033 1546.08,-21.7745 1548.89,-31.9884 1554.65,-28.0033"/>
</g>
<!-- Node15 -->
<g id="node30" class="node"><title>Node15</title>
<polygon fill="white" stroke="#bfbfbf" points="1427.5,-58.5 1427.5,-79.5 1468.5,-79.5 1468.5,-58.5 1427.5,-58.5"/>
<text text-anchor="middle" x="1448" y="-66.5" font-family="Helvetica,sans-Serif" font-size="10.00">ctime</text>
</g>
<!-- Node3&#45;&gt;Node15 -->
<g id="edge48" class="edge"><title>Node3&#45;&gt;Node15</title>
<path fill="none" stroke="midnightblue" d="M1500.58,-232.377C1491.5,-204.172 1466.67,-127.012 1454.67,-89.7203"/>
<polygon fill="midnightblue" stroke="midnightblue" points="1457.91,-88.3746 1451.52,-79.9277 1451.25,-90.5192 1457.91,-88.3746"/>
</g>
<!-- Node22 -->
<g id="node47" class="node"><title>Node22</title>
<a xlink:href="_git_info_8h.html" target="_top" xlink:title="base/GitInfo.h">
<polygon fill="white" stroke="black" points="1499,-174.5 1499,-195.5 1577,-195.5 1577,-174.5 1499,-174.5"/>
<text text-anchor="middle" x="1538" y="-182.5" font-family="Helvetica,sans-Serif" font-size="10.00">base/GitInfo.h</text>
</a>
</g>
<!-- Node3&#45;&gt;Node22 -->
<g id="edge50" class="edge"><title>Node3&#45;&gt;Node22</title>
<path fill="none" stroke="midnightblue" d="M1510.24,-232.362C1514.84,-224.513 1521.23,-213.616 1526.71,-204.253"/>
<polygon fill="midnightblue" stroke="midnightblue" points="1529.77,-205.968 1531.8,-195.571 1523.73,-202.428 1529.77,-205.968"/>
</g>
<!-- Node5 -->
<g id="node9" class="node"><title>Node5</title>
<polygon fill="white" stroke="#bfbfbf" points="1044,-116.5 1044,-137.5 1100,-137.5 1100,-116.5 1044,-116.5"/>
<text text-anchor="middle" x="1072" y="-124.5" font-family="Helvetica,sans-Serif" font-size="10.00">Rtypes.h</text>
</g>
<!-- Node4&#45;&gt;Node5 -->
<g id="edge8" class="edge"><title>Node4&#45;&gt;Node5</title>
<path fill="none" stroke="midnightblue" d="M1151.21,-174.362C1136.44,-165.532 1115.22,-152.844 1098.46,-142.822"/>
<polygon fill="midnightblue" stroke="midnightblue" points="1100.06,-139.699 1089.68,-137.571 1096.47,-145.707 1100.06,-139.699"/>
</g>
<!-- Node6 -->
<g id="node11" class="node"><title>Node6</title>
<a xlink:href="printable_8h.html" target="_top" xlink:title="base/printable.h">
<polygon fill="white" stroke="black" points="872,-116.5 872,-137.5 958,-137.5 958,-116.5 872,-116.5"/>
<text text-anchor="middle" x="915" y="-124.5" font-family="Helvetica,sans-Serif" font-size="10.00">base/printable.h</text>
</a>
</g>
<!-- Node4&#45;&gt;Node6 -->
<g id="edge10" class="edge"><title>Node4&#45;&gt;Node6</title>
<path fill="none" stroke="midnightblue" d="M1148.21,-180.254C1109.29,-171.365 1024.29,-151.955 968.372,-139.187"/>
<polygon fill="midnightblue" stroke="midnightblue" points="968.816,-135.699 958.288,-136.885 967.258,-142.523 968.816,-135.699"/>
</g>
<!-- Node9 -->
<g id="node17" class="node"><title>Node9</title>
<a xlink:href="time_8h.html" target="_top" xlink:title="base/std_ext/time.h">
<polygon fill="white" stroke="black" points="1117.5,-116.5 1117.5,-137.5 1220.5,-137.5 1220.5,-116.5 1117.5,-116.5"/>
<text text-anchor="middle" x="1169" y="-124.5" font-family="Helvetica,sans-Serif" font-size="10.00">base/std_ext/time.h</text>
</a>
</g>
<!-- Node4&#45;&gt;Node9 -->
<g id="edge16" class="edge"><title>Node4&#45;&gt;Node9</title>
<path fill="none" stroke="midnightblue" d="M1169,-174.362C1169,-166.922 1169,-156.743 1169,-147.728"/>
<polygon fill="midnightblue" stroke="midnightblue" points="1172.5,-147.571 1169,-137.571 1165.5,-147.571 1172.5,-147.571"/>
</g>
<!-- Node4&#45;&gt;Node15 -->
<g id="edge44" class="edge"><title>Node4&#45;&gt;Node15</title>
<path fill="none" stroke="midnightblue" d="M1189.68,-184.035C1244.87,-181.044 1393.87,-170.106 1429,-138 1442.28,-125.859 1446.62,-105.368 1447.88,-89.8623"/>
<polygon fill="midnightblue" stroke="midnightblue" points="1451.38,-89.7903 1448.34,-79.6437 1444.39,-89.4771 1451.38,-89.7903"/>
</g>
<!-- Node16 -->
<g id="node32" class="node"><title>Node16</title>
<polygon fill="white" stroke="#bfbfbf" points="1238,-116.5 1238,-137.5 1300,-137.5 1300,-116.5 1238,-116.5"/>
<text text-anchor="middle" x="1269" y="-124.5" font-family="Helvetica,sans-Serif" font-size="10.00">type_traits</text>
</g>
<!-- Node4&#45;&gt;Node16 -->
<g id="edge32" class="edge"><title>Node4&#45;&gt;Node16</title>
<path fill="none" stroke="midnightblue" d="M1187.34,-174.362C1202.57,-165.532 1224.44,-152.844 1241.72,-142.822"/>
<polygon fill="midnightblue" stroke="midnightblue" points="1243.88,-145.615 1250.77,-137.571 1240.37,-139.56 1243.88,-145.615"/>
</g>
<!-- Node17 -->
<g id="node34" class="node"><title>Node17</title>
<polygon fill="white" stroke="#bfbfbf" points="1318,-116.5 1318,-137.5 1356,-137.5 1356,-116.5 1318,-116.5"/>
<text text-anchor="middle" x="1337" y="-124.5" font-family="Helvetica,sans-Serif" font-size="10.00">tuple</text>
</g>
<!-- Node4&#45;&gt;Node17 -->
<g id="edge34" class="edge"><title>Node4&#45;&gt;Node17</title>
<path fill="none" stroke="midnightblue" d="M1189.52,-178.471C1215.19,-170.225 1260.68,-155.359 1308.24,-138.17"/>
<polygon fill="midnightblue" stroke="midnightblue" points="1309.57,-141.41 1317.77,-134.702 1307.17,-134.832 1309.57,-141.41"/>
</g>
<!-- Node18 -->
<g id="node36" class="node"><title>Node18</title>
<polygon fill="white" stroke="#bfbfbf" points="1374,-116.5 1374,-137.5 1420,-137.5 1420,-116.5 1374,-116.5"/>
<text text-anchor="middle" x="1397" y="-124.5" font-family="Helvetica,sans-Serif" font-size="10.00">cstdint</text>
</g>
<!-- Node4&#45;&gt;Node18 -->
<g id="edge36" class="edge"><title>Node4&#45;&gt;Node18</title>
<path fill="none" stroke="midnightblue" d="M1189.77,-180.705C1224.12,-173.455 1295.08,-157.869 1363.96,-138.124"/>
<polygon fill="midnightblue" stroke="midnightblue" points="1365.03,-141.457 1373.66,-135.311 1363.08,-134.734 1365.03,-141.457"/>
</g>
<!-- Node19 -->
<g id="node38" class="node"><title>Node19</title>
<polygon fill="white" stroke="#bfbfbf" points="795.5,-116.5 795.5,-137.5 854.5,-137.5 854.5,-116.5 795.5,-116.5"/>
<text text-anchor="middle" x="825" y="-124.5" font-family="Helvetica,sans-Serif" font-size="10.00">stdexcept</text>
</g>
<!-- Node4&#45;&gt;Node19 -->
<g id="edge38" class="edge"><title>Node4&#45;&gt;Node19</title>
<path fill="none" stroke="midnightblue" d="M1148.42,-182.771C1100.34,-177.369 976.81,-162.358 864.878,-138.225"/>
<polygon fill="midnightblue" stroke="midnightblue" points="865.294,-134.733 854.777,-136.015 863.798,-141.571 865.294,-134.733"/>
</g>
<!-- Node20 -->
<g id="node40" class="node"><title>Node20</title>
<polygon fill="white" stroke="#bfbfbf" points="749.5,-116.5 749.5,-137.5 778.5,-137.5 778.5,-116.5 749.5,-116.5"/>
<text text-anchor="middle" x="764" y="-124.5" font-family="Helvetica,sans-Serif" font-size="10.00">list</text>
</g>
<!-- Node4&#45;&gt;Node20 -->
<g id="edge40" class="edge"><title>Node4&#45;&gt;Node20</title>
<path fill="none" stroke="midnightblue" d="M1148.05,-183.32C1081.24,-177.827 873.103,-159.644 788.505,-137.642"/>
<polygon fill="midnightblue" stroke="midnightblue" points="789.39,-134.256 778.818,-134.941 787.51,-140.998 789.39,-134.256"/>
</g>
<!-- Node21 -->
<g id="node42" class="node"><title>Node21</title>
<polygon fill="white" stroke="#bfbfbf" points="976,-116.5 976,-137.5 1026,-137.5 1026,-116.5 976,-116.5"/>
<text text-anchor="middle" x="1001" y="-124.5" font-family="Helvetica,sans-Serif" font-size="10.00">iomanip</text>
</g>
<!-- Node4&#45;&gt;Node21 -->
<g id="edge42" class="edge"><title>Node4&#45;&gt;Node21</title>
<path fill="none" stroke="midnightblue" d="M1148.4,-177.888C1120.33,-168.197 1069.67,-150.709 1035.69,-138.976"/>
<polygon fill="midnightblue" stroke="midnightblue" points="1036.75,-135.638 1026.15,-135.683 1034.46,-142.255 1036.75,-135.638"/>
</g>
<!-- Node7 -->
<g id="node13" class="node"><title>Node7</title>
<polygon fill="white" stroke="#bfbfbf" points="426,-0.5 426,-21.5 470,-21.5 470,-0.5 426,-0.5"/>
<text text-anchor="middle" x="448" y="-8.5" font-family="Helvetica,sans-Serif" font-size="10.00">vector</text>
</g>
<!-- Node6&#45;&gt;Node7 -->
<g id="edge12" class="edge"><title>Node6&#45;&gt;Node7</title>
<path fill="none" stroke="midnightblue" d="M872.319,-116.398C779.685,-93.3886 561.956,-39.3061 479.975,-18.9425"/>
<polygon fill="midnightblue" stroke="midnightblue" points="480.771,-15.5338 470.222,-16.5198 479.083,-22.3273 480.771,-15.5338"/>
</g>
<!-- Node8 -->
<g id="node15" class="node"><title>Node8</title>
<polygon fill="white" stroke="#bfbfbf" points="889,-58.5 889,-79.5 941,-79.5 941,-58.5 889,-58.5"/>
<text text-anchor="middle" x="915" y="-66.5" font-family="Helvetica,sans-Serif" font-size="10.00">ostream</text>
</g>
<!-- Node6&#45;&gt;Node8 -->
<g id="edge14" class="edge"><title>Node6&#45;&gt;Node8</title>
<path fill="none" stroke="midnightblue" d="M915,-116.362C915,-108.922 915,-98.7427 915,-89.7276"/>
<polygon fill="midnightblue" stroke="midnightblue" points="918.5,-89.5706 915,-79.5707 911.5,-89.5707 918.5,-89.5706"/>
</g>
<!-- Node10 -->
<g id="node19" class="node"><title>Node10</title>
<a xlink:href="string_8h.html" target="_top" xlink:title="base/std_ext/string.h">
<polygon fill="white" stroke="black" points="172,-58.5 172,-79.5 280,-79.5 280,-58.5 172,-58.5"/>
<text text-anchor="middle" x="226" y="-66.5" font-family="Helvetica,sans-Serif" font-size="10.00">base/std_ext/string.h</text>
</a>
</g>
<!-- Node9&#45;&gt;Node10 -->
<g id="edge18" class="edge"><title>Node9&#45;&gt;Node10</title>
<path fill="none" stroke="midnightblue" d="M1117.35,-117.097C1114.53,-116.692 1111.73,-116.322 1109,-116 803.965,-80.0703 436.387,-71.5938 290.339,-69.6049"/>
<polygon fill="midnightblue" stroke="midnightblue" points="290.256,-66.1036 280.211,-69.4727 290.164,-73.1031 290.256,-66.1036"/>
</g>
<!-- Node14 -->
<g id="node28" class="node"><title>Node14</title>
<polygon fill="white" stroke="#bfbfbf" points="1146,-58.5 1146,-79.5 1192,-79.5 1192,-58.5 1146,-58.5"/>
<text text-anchor="middle" x="1169" y="-66.5" font-family="Helvetica,sans-Serif" font-size="10.00">cstring</text>
</g>
<!-- Node9&#45;&gt;Node14 -->
<g id="edge28" class="edge"><title>Node9&#45;&gt;Node14</title>
<path fill="none" stroke="midnightblue" d="M1169,-116.362C1169,-108.922 1169,-98.7427 1169,-89.7276"/>
<polygon fill="midnightblue" stroke="midnightblue" points="1172.5,-89.5706 1169,-79.5707 1165.5,-89.5707 1172.5,-89.5706"/>
</g>
<!-- Node9&#45;&gt;Node15 -->
<g id="edge30" class="edge"><title>Node9&#45;&gt;Node15</title>
<path fill="none" stroke="midnightblue" d="M1219.52,-116.497C1277.19,-104.509 1369.67,-85.2834 1417.36,-75.3696"/>
<polygon fill="midnightblue" stroke="midnightblue" points="1418.3,-78.7493 1427.38,-73.2871 1416.87,-71.8958 1418.3,-78.7493"/>
</g>
<!-- Node10&#45;&gt;Node7 -->
<g id="edge26" class="edge"><title>Node10&#45;&gt;Node7</title>
<path fill="none" stroke="midnightblue" d="M266.203,-58.4966C309.215,-47.2591 376.569,-29.662 416.09,-19.3368"/>
<polygon fill="midnightblue" stroke="midnightblue" points="417.191,-22.6668 425.981,-16.7527 415.421,-15.8942 417.191,-22.6668"/>
</g>
<!-- Node10&#45;&gt;Node11 -->
<g id="edge20" class="edge"><title>Node10&#45;&gt;Node11</title>
<path fill="none" stroke="midnightblue" d="M280.112,-59.633C284.8,-59.0079 289.478,-58.4495 294,-58 539.959,-33.553 1339.47,-15.2718 1507.03,-11.6542"/>
<polygon fill="midnightblue" stroke="midnightblue" points="1507.22,-15.1511 1517.14,-11.4372 1507.07,-8.1527 1507.22,-15.1511"/>
</g>
<!-- Node12 -->
<g id="node23" class="node"><title>Node12</title>
<polygon fill="white" stroke="#bfbfbf" points="200,-0.5 200,-21.5 252,-21.5 252,-0.5 200,-0.5"/>
<text text-anchor="middle" x="226" y="-8.5" font-family="Helvetica,sans-Serif" font-size="10.00">sstream</text>
</g>
<!-- Node10&#45;&gt;Node12 -->
<g id="edge22" class="edge"><title>Node10&#45;&gt;Node12</title>
<path fill="none" stroke="midnightblue" d="M226,-58.3619C226,-50.9219 226,-40.7427 226,-31.7276"/>
<polygon fill="midnightblue" stroke="midnightblue" points="229.5,-31.5706 226,-21.5707 222.5,-31.5707 229.5,-31.5706"/>
</g>
<!-- Node13 -->
<g id="node25" class="node"><title>Node13</title>
<polygon fill="white" stroke="#bfbfbf" points="48,-0.5 48,-21.5 104,-21.5 104,-0.5 48,-0.5"/>
<text text-anchor="middle" x="76" y="-8.5" font-family="Helvetica,sans-Serif" font-size="10.00">algorithm</text>
</g>
<!-- Node10&#45;&gt;Node13 -->
<g id="edge24" class="edge"><title>Node10&#45;&gt;Node13</title>
<path fill="none" stroke="midnightblue" d="M198.836,-58.4966C174.7,-49.1639 139.219,-35.4447 112.588,-25.1475"/>
<polygon fill="midnightblue" stroke="midnightblue" points="113.804,-21.8651 103.215,-21.5231 111.28,-28.394 113.804,-21.8651"/>
</g>
<!-- Node22&#45;&gt;Node11 -->
<g id="edge52" class="edge"><title>Node22&#45;&gt;Node11</title>
<path fill="none" stroke="midnightblue" d="M1538,-174.377C1538,-146.293 1538,-69.6735 1538,-32.2027"/>
<polygon fill="midnightblue" stroke="midnightblue" points="1541.5,-31.9277 1538,-21.9277 1534.5,-31.9278 1541.5,-31.9277"/>
</g>
<!-- Node23&#45;&gt;Node10 -->
<g id="edge58" class="edge"><title>Node23&#45;&gt;Node10</title>
<path fill="none" stroke="midnightblue" d="M400.958,-183.236C334.9,-179.659 219.813,-169.028 194,-138 181.459,-122.926 194.235,-102.122 207.177,-87.3084"/>
<polygon fill="midnightblue" stroke="midnightblue" points="209.952,-89.4648 214.224,-79.7692 204.838,-84.6848 209.952,-89.4648"/>
</g>
<!-- Node23&#45;&gt;Node11 -->
<g id="edge82" class="edge"><title>Node23&#45;&gt;Node11</title>
<path fill="none" stroke="midnightblue" d="M400.861,-181.764C342.583,-176.669 248.444,-164.485 227,-138 220.847,-130.401 220.399,-123.213 227,-116 271.748,-67.1011 1314.2,-20.5113 1507.36,-12.2825"/>
<polygon fill="midnightblue" stroke="midnightblue" points="1507.55,-15.7777 1517.39,-11.8571 1507.25,-8.78393 1507.55,-15.7777"/>
</g>
<!-- Node23&#45;&gt;Node19 -->
<g id="edge86" class="edge"><title>Node23&#45;&gt;Node19</title>
<path fill="none" stroke="midnightblue" d="M495.258,-180.619C559.182,-174.217 676.841,-160.75 785.427,-138.13"/>
<polygon fill="midnightblue" stroke="midnightblue" points="786.172,-141.549 795.232,-136.056 784.724,-134.701 786.172,-141.549"/>
</g>
<!-- Node23&#45;&gt;Node20 -->
<g id="edge84" class="edge"><title>Node23&#45;&gt;Node20</title>
<path fill="none" stroke="midnightblue" d="M495.127,-181.624C551.762,-176.655 649.484,-165.173 739.365,-137.901"/>
<polygon fill="midnightblue" stroke="midnightblue" points="740.647,-141.168 749.157,-134.857 738.569,-134.484 740.647,-141.168"/>
</g>
<!-- Node24 -->
<g id="node54" class="node"><title>Node24</title>
<a xlink:href="misc_8h.html" target="_top" xlink:title="base/std_ext/misc.h">
<polygon fill="white" stroke="black" points="-0.5,-116.5 -0.5,-137.5 104.5,-137.5 104.5,-116.5 -0.5,-116.5"/>
<text text-anchor="middle" x="52" y="-124.5" font-family="Helvetica,sans-Serif" font-size="10.00">base/std_ext/misc.h</text>
</a>
</g>
<!-- Node23&#45;&gt;Node24 -->
<g id="edge60" class="edge"><title>Node23&#45;&gt;Node24</title>
<path fill="none" stroke="midnightblue" d="M400.951,-178.656C336.887,-169.936 218.656,-153.554 118,-138 116.909,-137.831 115.809,-137.66 114.701,-137.487"/>
<polygon fill="midnightblue" stroke="midnightblue" points="115.004,-133.991 104.579,-135.878 113.905,-140.905 115.004,-133.991"/>
</g>
<!-- Node25 -->
<g id="node57" class="node"><title>Node25</title>
<polygon fill="white" stroke="#bfbfbf" points="95.5,-58.5 95.5,-79.5 154.5,-79.5 154.5,-58.5 95.5,-58.5"/>
<text text-anchor="middle" x="125" y="-66.5" font-family="Helvetica,sans-Serif" font-size="10.00">functional</text>
</g>
<!-- Node23&#45;&gt;Node25 -->
<g id="edge88" class="edge"><title>Node23&#45;&gt;Node25</title>
<path fill="none" stroke="midnightblue" d="M400.733,-180.36C335.304,-173.299 221.109,-158.481 185,-138 164.107,-126.15 146.952,-104.204 136.414,-88.2362"/>
<polygon fill="midnightblue" stroke="midnightblue" points="139.292,-86.2375 130.997,-79.6467 133.371,-89.972 139.292,-86.2375"/>
</g>
<!-- Node27 -->
<g id="node61" class="node"><title>Node27</title>
<polygon fill="white" stroke="#bfbfbf" points="235.5,-116.5 235.5,-137.5 282.5,-137.5 282.5,-116.5 235.5,-116.5"/>
<text text-anchor="middle" x="259" y="-124.5" font-family="Helvetica,sans-Serif" font-size="10.00">TFile.h</text>
</g>
<!-- Node23&#45;&gt;Node27 -->
<g id="edge68" class="edge"><title>Node23&#45;&gt;Node27</title>
<path fill="none" stroke="midnightblue" d="M411.389,-174.492C381.607,-165.844 338.271,-153.033 292.525,-138.421"/>
<polygon fill="midnightblue" stroke="midnightblue" points="293.321,-135.001 282.73,-135.276 291.181,-141.666 293.321,-135.001"/>
</g>
<!-- Node28 -->
<g id="node63" class="node"><title>Node28</title>
<polygon fill="white" stroke="#bfbfbf" points="299.5,-116.5 299.5,-137.5 370.5,-137.5 370.5,-116.5 299.5,-116.5"/>
<text text-anchor="middle" x="335" y="-124.5" font-family="Helvetica,sans-Serif" font-size="10.00">TDirectory.h</text>
</g>
<!-- Node23&#45;&gt;Node28 -->
<g id="edge70" class="edge"><title>Node23&#45;&gt;Node28</title>
<path fill="none" stroke="midnightblue" d="M427.537,-174.497C409.967,-165.479 384.418,-152.365 364.615,-142.201"/>
<polygon fill="midnightblue" stroke="midnightblue" points="366.188,-139.074 355.693,-137.621 362.991,-145.301 366.188,-139.074"/>
</g>
<!-- Node29 -->
<g id="node65" class="node"><title>Node29</title>
<polygon fill="white" stroke="#bfbfbf" points="388,-116.5 388,-137.5 440,-137.5 440,-116.5 388,-116.5"/>
<text text-anchor="middle" x="414" y="-124.5" font-family="Helvetica,sans-Serif" font-size="10.00">TError.h</text>
</g>
<!-- Node23&#45;&gt;Node29 -->
<g id="edge72" class="edge"><title>Node23&#45;&gt;Node29</title>
<path fill="none" stroke="midnightblue" d="M441.764,-174.362C437.163,-166.513 430.775,-155.616 425.286,-146.253"/>
<polygon fill="midnightblue" stroke="midnightblue" points="428.273,-144.428 420.197,-137.571 422.234,-147.968 428.273,-144.428"/>
</g>
<!-- Node30 -->
<g id="node67" class="node"><title>Node30</title>
<polygon fill="white" stroke="#bfbfbf" points="457.5,-116.5 457.5,-137.5 504.5,-137.5 504.5,-116.5 457.5,-116.5"/>
<text text-anchor="middle" x="481" y="-124.5" font-family="Helvetica,sans-Serif" font-size="10.00">TList.h</text>
</g>
<!-- Node23&#45;&gt;Node30 -->
<g id="edge74" class="edge"><title>Node23&#45;&gt;Node30</title>
<path fill="none" stroke="midnightblue" d="M454.053,-174.362C458.472,-166.595 464.59,-155.843 469.879,-146.546"/>
<polygon fill="midnightblue" stroke="midnightblue" points="473.082,-147.993 474.986,-137.571 466.998,-144.531 473.082,-147.993"/>
</g>
<!-- Node31 -->
<g id="node69" class="node"><title>Node31</title>
<polygon fill="white" stroke="#bfbfbf" points="522,-116.5 522,-137.5 596,-137.5 596,-116.5 522,-116.5"/>
<text text-anchor="middle" x="559" y="-124.5" font-family="Helvetica,sans-Serif" font-size="10.00">TCollection.h</text>
</g>
<!-- Node23&#45;&gt;Node31 -->
<g id="edge76" class="edge"><title>Node23&#45;&gt;Node31</title>
<path fill="none" stroke="midnightblue" d="M468.101,-174.497C485.282,-165.519 510.23,-152.484 529.645,-142.339"/>
<polygon fill="midnightblue" stroke="midnightblue" points="531.431,-145.354 538.673,-137.621 528.189,-139.15 531.431,-145.354"/>
</g>
<!-- Node32 -->
<g id="node71" class="node"><title>Node32</title>
<polygon fill="white" stroke="#bfbfbf" points="614,-116.5 614,-137.5 662,-137.5 662,-116.5 614,-116.5"/>
<text text-anchor="middle" x="638" y="-124.5" font-family="Helvetica,sans-Serif" font-size="10.00">TKey.h</text>
</g>
<!-- Node23&#45;&gt;Node32 -->
<g id="edge78" class="edge"><title>Node23&#45;&gt;Node32</title>
<path fill="none" stroke="midnightblue" d="M484.265,-174.489C514.094,-165.766 557.693,-152.842 604.223,-138.189"/>
<polygon fill="midnightblue" stroke="midnightblue" points="605.398,-141.488 613.877,-135.136 603.288,-134.814 605.398,-141.488"/>
</g>
<!-- Node33 -->
<g id="node73" class="node"><title>Node33</title>
<polygon fill="white" stroke="#bfbfbf" points="680,-116.5 680,-137.5 732,-137.5 732,-116.5 680,-116.5"/>
<text text-anchor="middle" x="706" y="-124.5" font-family="Helvetica,sans-Serif" font-size="10.00">memory</text>
</g>
<!-- Node23&#45;&gt;Node33 -->
<g id="edge80" class="edge"><title>Node23&#45;&gt;Node33</title>
<path fill="none" stroke="midnightblue" d="M495.295,-176.41C538.523,-168.25 604.376,-155.047 670.024,-138.092"/>
<polygon fill="midnightblue" stroke="midnightblue" points="670.915,-141.477 679.706,-135.564 669.146,-134.704 670.915,-141.477"/>
</g>
<!-- Node24&#45;&gt;Node13 -->
<g id="edge62" class="edge"><title>Node24&#45;&gt;Node13</title>
<path fill="none" stroke="midnightblue" d="M39.9285,-116.311C26.2176,-102.806 6.97035,-78.8127 17,-58 23.2066,-45.1205 34.8494,-34.6785 46.1631,-26.9373"/>
<polygon fill="midnightblue" stroke="midnightblue" points="48.0871,-29.8617 54.6551,-21.5484 44.3364,-23.9513 48.0871,-29.8617"/>
</g>
<!-- Node24&#45;&gt;Node25 -->
<g id="edge64" class="edge"><title>Node24&#45;&gt;Node25</title>
<path fill="none" stroke="midnightblue" d="M65.3893,-116.362C76.0912,-107.859 91.296,-95.7785 103.671,-85.9466"/>
<polygon fill="midnightblue" stroke="midnightblue" points="106.043,-88.5318 111.696,-79.5707 101.689,-83.0511 106.043,-88.5318"/>
</g>
<!-- Node26 -->
<g id="node59" class="node"><title>Node26</title>
<polygon fill="white" stroke="#bfbfbf" points="25.5,-58.5 25.5,-79.5 78.5,-79.5 78.5,-58.5 25.5,-58.5"/>
<text text-anchor="middle" x="52" y="-66.5" font-family="Helvetica,sans-Serif" font-size="10.00">cxxabi.h</text>
</g>
<!-- Node24&#45;&gt;Node26 -->
<g id="edge66" class="edge"><title>Node24&#45;&gt;Node26</title>
<path fill="none" stroke="midnightblue" d="M52,-116.362C52,-108.922 52,-98.7427 52,-89.7276"/>
<polygon fill="midnightblue" stroke="midnightblue" points="55.5001,-89.5706 52,-79.5707 48.5001,-89.5707 55.5001,-89.5706"/>
</g>
</g>
</svg>
