<?xml version="1.0" encoding="UTF-8" standalone="no"?>
<!DOCTYPE svg PUBLIC "-//W3C//DTD SVG 1.1//EN"
 "http://www.w3.org/Graphics/SVG/1.1/DTD/svg11.dtd">
<!-- Generated by graphviz version 2.26.3 (20100126.1600)
 -->
<!-- Title: src/calibration/gui/EditorCanvas.h Pages: 1 -->
<svg width="1190pt" height="420pt"
 viewBox="0.00 0.00 1190.00 420.00" xmlns="http://www.w3.org/2000/svg" xmlns:xlink="http://www.w3.org/1999/xlink">
<g id="graph1" class="graph" transform="scale(1 1) rotate(0) translate(4 416)">
<title>src/calibration/gui/EditorCanvas.h</title>
<polygon fill="white" stroke="white" points="-4,5 -4,-416 1187,-416 1187,5 -4,5"/>
<!-- Node1 -->
<g id="node1" class="node"><title>Node1</title>
<polygon fill="#bfbfbf" stroke="black" points="785.5,-377 785.5,-411 878.5,-411 878.5,-377 785.5,-377"/>
<text text-anchor="start" x="793.5" y="-398" font-family="Helvetica,sans-Serif" font-size="10.00">src/calibration/gui</text>
<text text-anchor="middle" x="832" y="-385" font-family="Helvetica,sans-Serif" font-size="10.00">/EditorCanvas.h</text>
</g>
<!-- Node2 -->
<g id="node3" class="node"><title>Node2</title>
<a xlink:href="_editor_8h.html" target="_top" xlink:title="calibration/Editor.h">
<polygon fill="white" stroke="black" points="104,-318.5 104,-339.5 202,-339.5 202,-318.5 104,-318.5"/>
<text text-anchor="middle" x="153" y="-326.5" font-family="Helvetica,sans-Serif" font-size="10.00">calibration/Editor.h</text>
</a>
</g>
<!-- Node1&#45;&gt;Node2 -->
<g id="edge2" class="edge"><title>Node1&#45;&gt;Node2</title>
<path fill="none" stroke="midnightblue" d="M785.155,-389.635C687.862,-380.551 456.818,-358.888 263,-340 246.469,-338.389 228.545,-336.61 212.058,-334.961"/>
<polygon fill="midnightblue" stroke="midnightblue" points="212.302,-331.468 202.003,-333.954 211.604,-338.433 212.302,-331.468"/>
</g>
<!-- Node5 -->
<g id="node9" class="node"><title>Node5</title>
<polygon fill="white" stroke="#bfbfbf" points="200,-116.5 200,-137.5 256,-137.5 256,-116.5 200,-116.5"/>
<text text-anchor="middle" x="228" y="-124.5" font-family="Helvetica,sans-Serif" font-size="10.00">Rtypes.h</text>
</g>
<!-- Node1&#45;&gt;Node5 -->
<g id="edge58" class="edge"><title>Node1&#45;&gt;Node5</title>
<path fill="none" stroke="midnightblue" d="M785.194,-380.817C696.192,-354.796 497.722,-292.155 344,-210 308.173,-190.853 270.63,-162.163 248.281,-144.023"/>
<polygon fill="midnightblue" stroke="midnightblue" points="250.445,-141.27 240.495,-137.629 246.002,-146.68 250.445,-141.27"/>
</g>
<!-- Node23 -->
<g id="node51" class="node"><title>Node23</title>
<polygon fill="white" stroke="#bfbfbf" points="1123.5,-116.5 1123.5,-137.5 1182.5,-137.5 1182.5,-116.5 1123.5,-116.5"/>
<text text-anchor="middle" x="1153" y="-124.5" font-family="Helvetica,sans-Serif" font-size="10.00">functional</text>
</g>
<!-- Node1&#45;&gt;Node23 -->
<g id="edge56" class="edge"><title>Node1&#45;&gt;Node23</title>
<path fill="none" stroke="midnightblue" d="M852.568,-376.892C910.467,-328.733 1074.38,-192.394 1132.36,-144.165"/>
<polygon fill="midnightblue" stroke="midnightblue" points="1134.67,-146.795 1140.12,-137.71 1130.2,-141.414 1134.67,-146.795"/>
</g>
<!-- Node24 -->
<g id="node54" class="node"><title>Node24</title>
<a xlink:href="root__draw_8h.html" target="_top" xlink:title="analysis/plot/root\l_draw.h">
<polygon fill="white" stroke="black" points="786.5,-175 786.5,-209 877.5,-209 877.5,-175 786.5,-175"/>
<text text-anchor="start" x="794.5" y="-196" font-family="Helvetica,sans-Serif" font-size="10.00">analysis/plot/root</text>
<text text-anchor="middle" x="832" y="-183" font-family="Helvetica,sans-Serif" font-size="10.00">_draw.h</text>
</a>
</g>
<!-- Node1&#45;&gt;Node24 -->
<g id="edge60" class="edge"><title>Node1&#45;&gt;Node24</title>
<path fill="none" stroke="midnightblue" d="M832,-376.778C832,-341.67 832,-261.585 832,-219.306"/>
<polygon fill="midnightblue" stroke="midnightblue" points="835.5,-219.179 832,-209.179 828.5,-219.179 835.5,-219.179"/>
</g>
<!-- Node27 -->
<g id="node65" class="node"><title>Node27</title>
<a xlink:href="_indicator__traits_8h.html" target="_top" xlink:title="calibration/gui/Indicator\l_traits.h">
<polygon fill="white" stroke="black" points="550.5,-247 550.5,-281 667.5,-281 667.5,-247 550.5,-247"/>
<text text-anchor="start" x="558.5" y="-268" font-family="Helvetica,sans-Serif" font-size="10.00">calibration/gui/Indicator</text>
<text text-anchor="middle" x="609" y="-255" font-family="Helvetica,sans-Serif" font-size="10.00">_traits.h</text>
</a>
</g>
<!-- Node1&#45;&gt;Node27 -->
<g id="edge76" class="edge"><title>Node1&#45;&gt;Node27</title>
<path fill="none" stroke="midnightblue" d="M802.387,-376.737C762.374,-353.411 691.003,-311.804 647.054,-286.184"/>
<polygon fill="midnightblue" stroke="midnightblue" points="648.782,-283.14 638.38,-281.127 645.256,-289.187 648.782,-283.14"/>
</g>
<!-- Node28 -->
<g id="node68" class="node"><title>Node28</title>
<polygon fill="white" stroke="#bfbfbf" points="932.5,-318.5 932.5,-339.5 997.5,-339.5 997.5,-318.5 932.5,-318.5"/>
<text text-anchor="middle" x="965" y="-326.5" font-family="Helvetica,sans-Serif" font-size="10.00">TCanvas.h</text>
</g>
<!-- Node1&#45;&gt;Node28 -->
<g id="edge80" class="edge"><title>Node1&#45;&gt;Node28</title>
<path fill="none" stroke="midnightblue" d="M866.944,-376.922C887.807,-366.726 914.064,-353.894 934.155,-344.074"/>
<polygon fill="midnightblue" stroke="midnightblue" points="935.744,-347.194 943.191,-339.658 932.67,-340.905 935.744,-347.194"/>
</g>
<!-- Node29 -->
<g id="node70" class="node"><title>Node29</title>
<polygon fill="white" stroke="#bfbfbf" points="1015,-318.5 1015,-339.5 1147,-339.5 1147,-318.5 1015,-318.5"/>
<text text-anchor="middle" x="1081" y="-326.5" font-family="Helvetica,sans-Serif" font-size="10.00">TRootEmbeddedCanvas.h</text>
</g>
<!-- Node1&#45;&gt;Node29 -->
<g id="edge82" class="edge"><title>Node1&#45;&gt;Node29</title>
<path fill="none" stroke="midnightblue" d="M878.543,-381.85C921.859,-370.543 986.241,-353.736 1030.72,-342.125"/>
<polygon fill="midnightblue" stroke="midnightblue" points="1031.66,-345.497 1040.45,-339.585 1029.89,-338.724 1031.66,-345.497"/>
</g>
<!-- Node3 -->
<g id="node5" class="node"><title>Node3</title>
<a xlink:href="_t_calibration_data_8h.html" target="_top" xlink:title="tree/TCalibrationData.h">
<polygon fill="white" stroke="black" points="94,-253.5 94,-274.5 212,-274.5 212,-253.5 94,-253.5"/>
<text text-anchor="middle" x="153" y="-261.5" font-family="Helvetica,sans-Serif" font-size="10.00">tree/TCalibrationData.h</text>
</a>
</g>
<!-- Node2&#45;&gt;Node3 -->
<g id="edge4" class="edge"><title>Node2&#45;&gt;Node3</title>
<path fill="none" stroke="midnightblue" d="M153,-318.267C153,-309.18 153,-295.892 153,-284.74"/>
<polygon fill="midnightblue" stroke="midnightblue" points="156.5,-284.534 153,-274.534 149.5,-284.534 156.5,-284.534"/>
</g>
<!-- Node11 -->
<g id="node21" class="node"><title>Node11</title>
<polygon fill="white" stroke="#bfbfbf" points="113.5,-0.5 113.5,-21.5 154.5,-21.5 154.5,-0.5 113.5,-0.5"/>
<text text-anchor="middle" x="134" y="-8.5" font-family="Helvetica,sans-Serif" font-size="10.00">string</text>
</g>
<!-- Node2&#45;&gt;Node11 -->
<g id="edge54" class="edge"><title>Node2&#45;&gt;Node11</title>
<path fill="none" stroke="midnightblue" d="M124.222,-318.453C79.9015,-300.134 0,-257.962 0,-192 0,-192 0,-192 0,-127 0,-72.3955 64.3918,-37.7533 103.902,-21.6368"/>
<polygon fill="midnightblue" stroke="midnightblue" points="105.319,-24.8407 113.356,-17.9376 102.768,-18.3219 105.319,-24.8407"/>
</g>
<!-- Node4 -->
<g id="node7" class="node"><title>Node4</title>
<a xlink:href="_t_i_d_8h.html" target="_top" xlink:title="TID.h">
<polygon fill="white" stroke="black" points="450.5,-181.5 450.5,-202.5 491.5,-202.5 491.5,-181.5 450.5,-181.5"/>
<text text-anchor="middle" x="471" y="-189.5" font-family="Helvetica,sans-Serif" font-size="10.00">TID.h</text>
</a>
</g>
<!-- Node3&#45;&gt;Node4 -->
<g id="edge6" class="edge"><title>Node3&#45;&gt;Node4</title>
<path fill="none" stroke="midnightblue" d="M199.58,-253.453C265.543,-238.519 384.355,-211.618 440.294,-198.952"/>
<polygon fill="midnightblue" stroke="midnightblue" points="441.315,-202.31 450.296,-196.688 439.77,-195.483 441.315,-202.31"/>
</g>
<!-- Node3&#45;&gt;Node11 -->
<g id="edge46" class="edge"><title>Node3&#45;&gt;Node11</title>
<path fill="none" stroke="midnightblue" d="M152.208,-253.451C149.335,-215.196 139.43,-83.3068 135.564,-31.8208"/>
<polygon fill="midnightblue" stroke="midnightblue" points="139.035,-31.3038 134.796,-21.594 132.054,-31.8281 139.035,-31.3038"/>
</g>
<!-- Node15 -->
<g id="node30" class="node"><title>Node15</title>
<polygon fill="white" stroke="#bfbfbf" points="263.5,-58.5 263.5,-79.5 304.5,-79.5 304.5,-58.5 263.5,-58.5"/>
<text text-anchor="middle" x="284" y="-66.5" font-family="Helvetica,sans-Serif" font-size="10.00">ctime</text>
</g>
<!-- Node3&#45;&gt;Node15 -->
<g id="edge48" class="edge"><title>Node3&#45;&gt;Node15</title>
<path fill="none" stroke="midnightblue" d="M152.87,-253.382C153.095,-227.116 157.094,-158.179 191,-116 206.877,-96.2493 233.223,-84.0409 253.829,-77.0343"/>
<polygon fill="midnightblue" stroke="midnightblue" points="254.933,-80.3559 263.412,-74.0023 252.822,-73.682 254.933,-80.3559"/>
</g>
<!-- Node22 -->
<g id="node47" class="node"><title>Node22</title>
<a xlink:href="_git_info_8h.html" target="_top" xlink:title="base/GitInfo.h">
<polygon fill="white" stroke="black" points="28,-181.5 28,-202.5 106,-202.5 106,-181.5 28,-181.5"/>
<text text-anchor="middle" x="67" y="-189.5" font-family="Helvetica,sans-Serif" font-size="10.00">base/GitInfo.h</text>
</a>
</g>
<!-- Node3&#45;&gt;Node22 -->
<g id="edge50" class="edge"><title>Node3&#45;&gt;Node22</title>
<path fill="none" stroke="midnightblue" d="M140.31,-253.376C126.464,-241.784 104.087,-223.05 87.6926,-209.324"/>
<polygon fill="midnightblue" stroke="midnightblue" points="89.656,-206.403 79.7417,-202.667 85.1625,-211.77 89.656,-206.403"/>
</g>
<!-- Node4&#45;&gt;Node5 -->
<g id="edge8" class="edge"><title>Node4&#45;&gt;Node5</title>
<path fill="none" stroke="midnightblue" d="M450.282,-186.458C409.394,-175.521 317.79,-151.018 265.843,-137.123"/>
<polygon fill="midnightblue" stroke="midnightblue" points="266.573,-133.695 256.009,-134.492 264.765,-140.457 266.573,-133.695"/>
</g>
<!-- Node6 -->
<g id="node11" class="node"><title>Node6</title>
<a xlink:href="printable_8h.html" target="_top" xlink:title="base/printable.h">
<polygon fill="white" stroke="black" points="860,-116.5 860,-137.5 946,-137.5 946,-116.5 860,-116.5"/>
<text text-anchor="middle" x="903" y="-124.5" font-family="Helvetica,sans-Serif" font-size="10.00">base/printable.h</text>
</a>
</g>
<!-- Node4&#45;&gt;Node6 -->
<g id="edge10" class="edge"><title>Node4&#45;&gt;Node6</title>
<path fill="none" stroke="midnightblue" d="M491.546,-188.909C555.693,-179.257 753.691,-149.465 849.704,-135.019"/>
<polygon fill="midnightblue" stroke="midnightblue" points="850.414,-138.452 859.781,-133.503 849.372,-131.53 850.414,-138.452"/>
</g>
<!-- Node9 -->
<g id="node17" class="node"><title>Node9</title>
<a xlink:href="time_8h.html" target="_top" xlink:title="base/std_ext/time.h">
<polygon fill="white" stroke="black" points="655.5,-116.5 655.5,-137.5 758.5,-137.5 758.5,-116.5 655.5,-116.5"/>
<text text-anchor="middle" x="707" y="-124.5" font-family="Helvetica,sans-Serif" font-size="10.00">base/std_ext/time.h</text>
</a>
</g>
<!-- Node4&#45;&gt;Node9 -->
<g id="edge16" class="edge"><title>Node4&#45;&gt;Node9</title>
<path fill="none" stroke="midnightblue" d="M491.531,-186.345C528.538,-176.153 607.351,-154.446 658.706,-140.301"/>
<polygon fill="midnightblue" stroke="midnightblue" points="659.879,-143.609 668.59,-137.579 658.02,-136.86 659.879,-143.609"/>
</g>
<!-- Node4&#45;&gt;Node15 -->
<g id="edge44" class="edge"><title>Node4&#45;&gt;Node15</title>
<path fill="none" stroke="midnightblue" d="M450.451,-187.936C410.327,-179.608 323.67,-159.563 303,-138 290.615,-125.08 286.152,-104.855 284.617,-89.6358"/>
<polygon fill="midnightblue" stroke="midnightblue" points="288.107,-89.3579 283.946,-79.6143 281.122,-89.826 288.107,-89.3579"/>
</g>
<!-- Node16 -->
<g id="node32" class="node"><title>Node16</title>
<polygon fill="white" stroke="#bfbfbf" points="312,-116.5 312,-137.5 374,-137.5 374,-116.5 312,-116.5"/>
<text text-anchor="middle" x="343" y="-124.5" font-family="Helvetica,sans-Serif" font-size="10.00">type_traits</text>
</g>
<!-- Node4&#45;&gt;Node16 -->
<g id="edge32" class="edge"><title>Node4&#45;&gt;Node16</title>
<path fill="none" stroke="midnightblue" d="M450.435,-181.557C429.472,-170.912 396.739,-154.29 372.91,-142.189"/>
<polygon fill="midnightblue" stroke="midnightblue" points="374.441,-139.041 363.94,-137.633 371.271,-145.282 374.441,-139.041"/>
</g>
<!-- Node17 -->
<g id="node34" class="node"><title>Node17</title>
<polygon fill="white" stroke="#bfbfbf" points="392,-116.5 392,-137.5 430,-137.5 430,-116.5 392,-116.5"/>
<text text-anchor="middle" x="411" y="-124.5" font-family="Helvetica,sans-Serif" font-size="10.00">tuple</text>
</g>
<!-- Node4&#45;&gt;Node17 -->
<g id="edge34" class="edge"><title>Node4&#45;&gt;Node17</title>
<path fill="none" stroke="midnightblue" d="M461.092,-181.267C452.006,-171.423 438.367,-156.648 427.615,-145"/>
<polygon fill="midnightblue" stroke="midnightblue" points="430.078,-142.508 420.723,-137.534 424.934,-147.256 430.078,-142.508"/>
</g>
<!-- Node18 -->
<g id="node36" class="node"><title>Node18</title>
<polygon fill="white" stroke="#bfbfbf" points="448,-116.5 448,-137.5 494,-137.5 494,-116.5 448,-116.5"/>
<text text-anchor="middle" x="471" y="-124.5" font-family="Helvetica,sans-Serif" font-size="10.00">cstdint</text>
</g>
<!-- Node4&#45;&gt;Node18 -->
<g id="edge36" class="edge"><title>Node4&#45;&gt;Node18</title>
<path fill="none" stroke="midnightblue" d="M471,-181.267C471,-172.18 471,-158.892 471,-147.74"/>
<polygon fill="midnightblue" stroke="midnightblue" points="474.5,-147.534 471,-137.534 467.5,-147.534 474.5,-147.534"/>
</g>
<!-- Node19 -->
<g id="node38" class="node"><title>Node19</title>
<polygon fill="white" stroke="#bfbfbf" points="511.5,-116.5 511.5,-137.5 570.5,-137.5 570.5,-116.5 511.5,-116.5"/>
<text text-anchor="middle" x="541" y="-124.5" font-family="Helvetica,sans-Serif" font-size="10.00">stdexcept</text>
</g>
<!-- Node4&#45;&gt;Node19 -->
<g id="edge38" class="edge"><title>Node4&#45;&gt;Node19</title>
<path fill="none" stroke="midnightblue" d="M482.559,-181.267C493.262,-171.328 509.378,-156.363 521.977,-144.664"/>
<polygon fill="midnightblue" stroke="midnightblue" points="524.71,-146.903 529.656,-137.534 519.946,-141.773 524.71,-146.903"/>
</g>
<!-- Node20 -->
<g id="node40" class="node"><title>Node20</title>
<polygon fill="white" stroke="#bfbfbf" points="775.5,-116.5 775.5,-137.5 804.5,-137.5 804.5,-116.5 775.5,-116.5"/>
<text text-anchor="middle" x="790" y="-124.5" font-family="Helvetica,sans-Serif" font-size="10.00">list</text>
</g>
<!-- Node4&#45;&gt;Node20 -->
<g id="edge40" class="edge"><title>Node4&#45;&gt;Node20</title>
<path fill="none" stroke="midnightblue" d="M491.555,-190.146C538.926,-185.481 659.285,-171.378 765.56,-137.893"/>
<polygon fill="midnightblue" stroke="midnightblue" points="766.695,-141.205 775.141,-134.808 764.55,-134.541 766.695,-141.205"/>
</g>
<!-- Node21 -->
<g id="node42" class="node"><title>Node21</title>
<polygon fill="white" stroke="#bfbfbf" points="588,-116.5 588,-137.5 638,-137.5 638,-116.5 588,-116.5"/>
<text text-anchor="middle" x="613" y="-124.5" font-family="Helvetica,sans-Serif" font-size="10.00">iomanip</text>
</g>
<!-- Node4&#45;&gt;Node21 -->
<g id="edge42" class="edge"><title>Node4&#45;&gt;Node21</title>
<path fill="none" stroke="midnightblue" d="M491.648,-182.548C515.043,-171.84 553.464,-154.252 580.805,-141.737"/>
<polygon fill="midnightblue" stroke="midnightblue" points="582.335,-144.886 589.971,-137.542 579.421,-138.521 582.335,-144.886"/>
</g>
<!-- Node7 -->
<g id="node13" class="node"><title>Node7</title>
<polygon fill="white" stroke="#bfbfbf" points="1003,-0.5 1003,-21.5 1047,-21.5 1047,-0.5 1003,-0.5"/>
<text text-anchor="middle" x="1025" y="-8.5" font-family="Helvetica,sans-Serif" font-size="10.00">vector</text>
</g>
<!-- Node6&#45;&gt;Node7 -->
<g id="edge12" class="edge"><title>Node6&#45;&gt;Node7</title>
<path fill="none" stroke="midnightblue" d="M946.11,-116.589C966.918,-109.498 990.639,-98.028 1006,-80 1017.43,-66.5853 1022.03,-46.8531 1023.85,-31.9224"/>
<polygon fill="midnightblue" stroke="midnightblue" points="1027.37,-31.8979 1024.78,-21.625 1020.4,-31.272 1027.37,-31.8979"/>
</g>
<!-- Node8 -->
<g id="node15" class="node"><title>Node8</title>
<polygon fill="white" stroke="#bfbfbf" points="945,-58.5 945,-79.5 997,-79.5 997,-58.5 945,-58.5"/>
<text text-anchor="middle" x="971" y="-66.5" font-family="Helvetica,sans-Serif" font-size="10.00">ostream</text>
</g>
<!-- Node6&#45;&gt;Node8 -->
<g id="edge14" class="edge"><title>Node6&#45;&gt;Node8</title>
<path fill="none" stroke="midnightblue" d="M915.472,-116.362C925.345,-107.941 939.333,-96.0105 950.798,-86.2308"/>
<polygon fill="midnightblue" stroke="midnightblue" points="953.27,-88.7231 958.607,-79.5707 948.727,-83.3972 953.27,-88.7231"/>
</g>
<!-- Node10 -->
<g id="node19" class="node"><title>Node10</title>
<a xlink:href="string_8h.html" target="_top" xlink:title="base/std_ext/string.h">
<polygon fill="white" stroke="black" points="819,-58.5 819,-79.5 927,-79.5 927,-58.5 819,-58.5"/>
<text text-anchor="middle" x="873" y="-66.5" font-family="Helvetica,sans-Serif" font-size="10.00">base/std_ext/string.h</text>
</a>
</g>
<!-- Node9&#45;&gt;Node10 -->
<g id="edge18" class="edge"><title>Node9&#45;&gt;Node10</title>
<path fill="none" stroke="midnightblue" d="M737.061,-116.497C764.007,-107.082 803.728,-93.2036 833.282,-82.8773"/>
<polygon fill="midnightblue" stroke="midnightblue" points="834.596,-86.1257 842.882,-79.5231 832.287,-79.5174 834.596,-86.1257"/>
</g>
<!-- Node14 -->
<g id="node28" class="node"><title>Node14</title>
<polygon fill="white" stroke="#bfbfbf" points="684,-58.5 684,-79.5 730,-79.5 730,-58.5 684,-58.5"/>
<text text-anchor="middle" x="707" y="-66.5" font-family="Helvetica,sans-Serif" font-size="10.00">cstring</text>
</g>
<!-- Node9&#45;&gt;Node14 -->
<g id="edge28" class="edge"><title>Node9&#45;&gt;Node14</title>
<path fill="none" stroke="midnightblue" d="M707,-116.362C707,-108.922 707,-98.7427 707,-89.7276"/>
<polygon fill="midnightblue" stroke="midnightblue" points="710.5,-89.5706 707,-79.5707 703.5,-89.5707 710.5,-89.5706"/>
</g>
<!-- Node9&#45;&gt;Node15 -->
<g id="edge30" class="edge"><title>Node9&#45;&gt;Node15</title>
<path fill="none" stroke="midnightblue" d="M655.319,-117.347C652.507,-116.877 649.72,-116.425 647,-116 524.143,-96.7982 377.014,-79.4905 314.501,-72.4003"/>
<polygon fill="midnightblue" stroke="midnightblue" points="314.851,-68.9178 304.522,-71.274 314.066,-75.8736 314.851,-68.9178"/>
</g>
<!-- Node10&#45;&gt;Node7 -->
<g id="edge26" class="edge"><title>Node10&#45;&gt;Node7</title>
<path fill="none" stroke="midnightblue" d="M900.526,-58.4966C926.584,-48.5533 965.692,-33.6309 993.099,-23.1727"/>
<polygon fill="midnightblue" stroke="midnightblue" points="994.527,-26.3743 1002.62,-19.5391 992.031,-19.8342 994.527,-26.3743"/>
</g>
<!-- Node10&#45;&gt;Node11 -->
<g id="edge20" class="edge"><title>Node10&#45;&gt;Node11</title>
<path fill="none" stroke="midnightblue" d="M818.871,-59.7911C814.187,-59.1317 809.514,-58.5221 805,-58 558.98,-29.5442 260.079,-15.9799 164.754,-12.1629"/>
<polygon fill="midnightblue" stroke="midnightblue" points="164.784,-8.66152 154.654,-11.7648 164.508,-15.6561 164.784,-8.66152"/>
</g>
<!-- Node12 -->
<g id="node23" class="node"><title>Node12</title>
<polygon fill="white" stroke="#bfbfbf" points="811,-0.5 811,-21.5 863,-21.5 863,-0.5 811,-0.5"/>
<text text-anchor="middle" x="837" y="-8.5" font-family="Helvetica,sans-Serif" font-size="10.00">sstream</text>
</g>
<!-- Node10&#45;&gt;Node12 -->
<g id="edge22" class="edge"><title>Node10&#45;&gt;Node12</title>
<path fill="none" stroke="midnightblue" d="M866.397,-58.3619C861.525,-50.5131 854.762,-39.6159 848.95,-30.2527"/>
<polygon fill="midnightblue" stroke="midnightblue" points="851.809,-28.2213 843.561,-21.5707 845.861,-31.9129 851.809,-28.2213"/>
</g>
<!-- Node13 -->
<g id="node25" class="node"><title>Node13</title>
<polygon fill="white" stroke="#bfbfbf" points="881,-0.5 881,-21.5 937,-21.5 937,-0.5 881,-0.5"/>
<text text-anchor="middle" x="909" y="-8.5" font-family="Helvetica,sans-Serif" font-size="10.00">algorithm</text>
</g>
<!-- Node10&#45;&gt;Node13 -->
<g id="edge24" class="edge"><title>Node10&#45;&gt;Node13</title>
<path fill="none" stroke="midnightblue" d="M879.603,-58.3619C884.475,-50.5131 891.238,-39.6159 897.05,-30.2527"/>
<polygon fill="midnightblue" stroke="midnightblue" points="900.139,-31.9129 902.439,-21.5707 894.191,-28.2213 900.139,-31.9129"/>
</g>
<!-- Node22&#45;&gt;Node11 -->
<g id="edge52" class="edge"><title>Node22&#45;&gt;Node11</title>
<path fill="none" stroke="midnightblue" d="M70.8918,-181.486C81.7159,-152.245 112.313,-69.5865 126.547,-31.1347"/>
<polygon fill="midnightblue" stroke="midnightblue" points="129.908,-32.1358 130.097,-21.5427 123.344,-29.7058 129.908,-32.1358"/>
</g>
<!-- Node24&#45;&gt;Node5 -->
<g id="edge74" class="edge"><title>Node24&#45;&gt;Node5</title>
<path fill="none" stroke="midnightblue" d="M786.284,-188.015C694.522,-179.864 481.415,-160.179 303,-138 290.98,-136.506 277.909,-134.664 266.095,-132.918"/>
<polygon fill="midnightblue" stroke="midnightblue" points="266.505,-129.44 256.096,-131.419 265.467,-136.363 266.505,-129.44"/>
</g>
<!-- Node24&#45;&gt;Node7 -->
<g id="edge66" class="edge"><title>Node24&#45;&gt;Node7</title>
<path fill="none" stroke="midnightblue" d="M877.606,-177.569C882.114,-176.299 886.635,-175.085 891,-174 972.714,-153.687 1023.42,-202.95 1077,-138 1104.34,-104.856 1067.36,-55.383 1043.11,-29.0359"/>
<polygon fill="midnightblue" stroke="midnightblue" points="1045.5,-26.4775 1036.07,-21.6453 1040.43,-31.3027 1045.5,-26.4775"/>
</g>
<!-- Node24&#45;&gt;Node11 -->
<g id="edge62" class="edge"><title>Node24&#45;&gt;Node11</title>
<path fill="none" stroke="midnightblue" d="M830.887,-174.73C829.135,-158.439 824.621,-133.913 813,-116 790.257,-80.9438 777.942,-73.1558 739,-58 685.263,-37.0861 280.938,-17.5681 164.992,-12.355"/>
<polygon fill="midnightblue" stroke="midnightblue" points="164.839,-8.84484 154.693,-11.8956 164.527,-15.8379 164.839,-8.84484"/>
</g>
<!-- Node24&#45;&gt;Node20 -->
<g id="edge64" class="edge"><title>Node24&#45;&gt;Node20</title>
<path fill="none" stroke="midnightblue" d="M820.965,-174.922C815.278,-166.12 808.321,-155.354 802.443,-146.258"/>
<polygon fill="midnightblue" stroke="midnightblue" points="805.379,-144.352 797.012,-137.852 799.5,-148.151 805.379,-144.352"/>
</g>
<!-- Node24&#45;&gt;Node23 -->
<g id="edge72" class="edge"><title>Node24&#45;&gt;Node23</title>
<path fill="none" stroke="midnightblue" d="M877.575,-177.44C882.089,-176.195 886.62,-175.023 891,-174 987.053,-151.558 1013.46,-158.242 1110,-138 1111.09,-137.771 1112.2,-137.532 1113.32,-137.286"/>
<polygon fill="midnightblue" stroke="midnightblue" points="1114.53,-140.597 1123.47,-134.916 1112.94,-133.781 1114.53,-140.597"/>
</g>
<!-- Node25 -->
<g id="node59" class="node"><title>Node25</title>
<polygon fill="white" stroke="#bfbfbf" points="963.5,-116.5 963.5,-137.5 998.5,-137.5 998.5,-116.5 963.5,-116.5"/>
<text text-anchor="middle" x="981" y="-124.5" font-family="Helvetica,sans-Serif" font-size="10.00">map</text>
</g>
<!-- Node24&#45;&gt;Node25 -->
<g id="edge68" class="edge"><title>Node24&#45;&gt;Node25</title>
<path fill="none" stroke="midnightblue" d="M871.148,-174.922C897.252,-163.534 930.894,-148.858 954.033,-138.764"/>
<polygon fill="midnightblue" stroke="midnightblue" points="955.487,-141.948 963.254,-134.742 952.688,-135.532 955.487,-141.948"/>
</g>
<!-- Node26 -->
<g id="node61" class="node"><title>Node26</title>
<polygon fill="white" stroke="#bfbfbf" points="1016,-116.5 1016,-137.5 1068,-137.5 1068,-116.5 1016,-116.5"/>
<text text-anchor="middle" x="1042" y="-124.5" font-family="Helvetica,sans-Serif" font-size="10.00">memory</text>
</g>
<!-- Node24&#45;&gt;Node26 -->
<g id="edge70" class="edge"><title>Node24&#45;&gt;Node26</title>
<path fill="none" stroke="midnightblue" d="M877.71,-177.966C910.824,-167.784 956.929,-153.574 1005.82,-138.359"/>
<polygon fill="midnightblue" stroke="midnightblue" points="1007.12,-141.618 1015.63,-135.303 1005.04,-134.935 1007.12,-141.618"/>
</g>
<!-- Node27&#45;&gt;Node5 -->
<g id="edge78" class="edge"><title>Node27&#45;&gt;Node5</title>
<path fill="none" stroke="midnightblue" d="M553.446,-246.913C520.829,-236.663 478.896,-223.108 442,-210 378.424,-187.413 305.336,-158.397 263.127,-141.337"/>
<polygon fill="midnightblue" stroke="midnightblue" points="264.427,-138.087 253.845,-137.576 261.799,-144.575 264.427,-138.087"/>
</g>
</g>
</svg>
