<?xml version="1.0" encoding="UTF-8" standalone="no"?>
<!DOCTYPE svg PUBLIC "-//W3C//DTD SVG 1.1//EN"
 "http://www.w3.org/Graphics/SVG/1.1/DTD/svg11.dtd">
<!-- Generated by graphviz version 2.26.3 (20100126.1600)
 -->
<!-- Title: src/calibration/gui/EditorCanvas.cc Pages: 1 -->
<svg width="1121pt" height="464pt"
 viewBox="0.00 0.00 1120.91 464.00" xmlns="http://www.w3.org/2000/svg" xmlns:xlink="http://www.w3.org/1999/xlink">
<g id="graph1" class="graph" transform="scale(1 1) rotate(0) translate(4 460)">
<title>src/calibration/gui/EditorCanvas.cc</title>
<polygon fill="white" stroke="white" points="-4,5 -4,-460 1117.91,-460 1117.91,5 -4,5"/>
<!-- Node1 -->
<g id="node1" class="node"><title>Node1</title>
<polygon fill="#bfbfbf" stroke="black" points="591.406,-421 591.406,-455 684.406,-455 684.406,-421 591.406,-421"/>
<text text-anchor="start" x="599.406" y="-442" font-family="Helvetica,sans-Serif" font-size="10.00">src/calibration/gui</text>
<text text-anchor="middle" x="637.906" y="-429" font-family="Helvetica,sans-Serif" font-size="10.00">/EditorCanvas.cc</text>
</g>
<!-- Node2 -->
<g id="node3" class="node"><title>Node2</title>
<a xlink:href="_editor_canvas_8h.html" target="_top" xlink:title="EditorCanvas.h">
<polygon fill="white" stroke="black" points="308.906,-362.5 308.906,-383.5 392.906,-383.5 392.906,-362.5 308.906,-362.5"/>
<text text-anchor="middle" x="350.906" y="-370.5" font-family="Helvetica,sans-Serif" font-size="10.00">EditorCanvas.h</text>
</a>
</g>
<!-- Node1&#45;&gt;Node2 -->
<g id="edge2" class="edge"><title>Node1&#45;&gt;Node2</title>
<path fill="none" stroke="midnightblue" d="M591.155,-427.412C539.525,-415.719 456.618,-396.942 402.957,-384.789"/>
<polygon fill="midnightblue" stroke="midnightblue" points="403.488,-381.32 392.962,-382.525 401.942,-388.147 403.488,-381.32"/>
</g>
<!-- Node3 -->
<g id="node5" class="node"><title>Node3</title>
<a xlink:href="_editor_8h.html" target="_top" xlink:title="calibration/Editor.h">
<polygon fill="white" stroke="black" points="486.906,-297.5 486.906,-318.5 584.906,-318.5 584.906,-297.5 486.906,-297.5"/>
<text text-anchor="middle" x="535.906" y="-305.5" font-family="Helvetica,sans-Serif" font-size="10.00">calibration/Editor.h</text>
</a>
</g>
<!-- Node1&#45;&gt;Node3 -->
<g id="edge86" class="edge"><title>Node1&#45;&gt;Node3</title>
<path fill="none" stroke="midnightblue" d="M599.277,-420.844C583.369,-411.972 566.085,-399.676 554.906,-384 543.293,-367.715 538.752,-345.06 536.99,-328.727"/>
<polygon fill="midnightblue" stroke="midnightblue" points="540.465,-328.268 536.162,-318.586 533.488,-328.838 540.465,-328.268"/>
</g>
<!-- Node11 -->
<g id="node21" class="node"><title>Node11</title>
<a xlink:href="string_8h.html" target="_top" xlink:title="base/std_ext/string.h">
<polygon fill="white" stroke="black" points="165.906,-58.5 165.906,-79.5 273.906,-79.5 273.906,-58.5 165.906,-58.5"/>
<text text-anchor="middle" x="219.906" y="-66.5" font-family="Helvetica,sans-Serif" font-size="10.00">base/std_ext/string.h</text>
</a>
</g>
<!-- Node1&#45;&gt;Node11 -->
<g id="edge106" class="edge"><title>Node1&#45;&gt;Node11</title>
<path fill="none" stroke="midnightblue" d="M591.326,-435.509C464.417,-427.799 116.518,-400.209 33.9057,-326 1.82902,-297.186 -9.05737,-270.724 9.90574,-232 46.4413,-157.392 135.42,-107.117 185.03,-83.8413"/>
<polygon fill="midnightblue" stroke="midnightblue" points="186.768,-86.8952 194.4,-79.5471 183.851,-80.5316 186.768,-86.8952"/>
</g>
<!-- Node31 -->
<g id="node75" class="node"><title>Node31</title>
<a xlink:href="_editor_window_8h.html" target="_top" xlink:title="calibration/gui/EditorWindow.h">
<polygon fill="white" stroke="black" points="563.406,-362.5 563.406,-383.5 712.406,-383.5 712.406,-362.5 563.406,-362.5"/>
<text text-anchor="middle" x="637.906" y="-370.5" font-family="Helvetica,sans-Serif" font-size="10.00">calibration/gui/EditorWindow.h</text>
</a>
</g>
<!-- Node1&#45;&gt;Node31 -->
<g id="edge88" class="edge"><title>Node1&#45;&gt;Node31</title>
<path fill="none" stroke="midnightblue" d="M637.906,-420.922C637.906,-412.67 637.906,-402.692 637.906,-393.982"/>
<polygon fill="midnightblue" stroke="midnightblue" points="641.406,-393.852 637.906,-383.852 634.406,-393.852 641.406,-393.852"/>
</g>
<!-- Node34 -->
<g id="node88" class="node"><title>Node34</title>
<polygon fill="white" stroke="#bfbfbf" points="729.406,-362.5 729.406,-383.5 780.406,-383.5 780.406,-362.5 729.406,-362.5"/>
<text text-anchor="middle" x="754.906" y="-370.5" font-family="Helvetica,sans-Serif" font-size="10.00">TH1D.h</text>
</g>
<!-- Node1&#45;&gt;Node34 -->
<g id="edge108" class="edge"><title>Node1&#45;&gt;Node34</title>
<path fill="none" stroke="midnightblue" d="M668.646,-420.922C686.584,-410.957 709.054,-398.473 726.564,-388.745"/>
<polygon fill="midnightblue" stroke="midnightblue" points="728.679,-391.574 735.721,-383.658 725.279,-385.455 728.679,-391.574"/>
</g>
<!-- Node35 -->
<g id="node90" class="node"><title>Node35</title>
<polygon fill="white" stroke="#bfbfbf" points="797.406,-362.5 797.406,-383.5 856.406,-383.5 856.406,-362.5 797.406,-362.5"/>
<text text-anchor="middle" x="826.906" y="-370.5" font-family="Helvetica,sans-Serif" font-size="10.00">TROOT.h</text>
</g>
<!-- Node1&#45;&gt;Node35 -->
<g id="edge110" class="edge"><title>Node1&#45;&gt;Node35</title>
<path fill="none" stroke="midnightblue" d="M684.625,-421.933C716.249,-411.057 757.561,-396.849 787.516,-386.547"/>
<polygon fill="midnightblue" stroke="midnightblue" points="788.891,-389.775 797.209,-383.213 786.614,-383.156 788.891,-389.775"/>
</g>
<!-- Node36 -->
<g id="node92" class="node"><title>Node36</title>
<polygon fill="white" stroke="#bfbfbf" points="873.906,-362.5 873.906,-383.5 927.906,-383.5 927.906,-362.5 873.906,-362.5"/>
<text text-anchor="middle" x="900.906" y="-370.5" font-family="Helvetica,sans-Serif" font-size="10.00">iostream</text>
</g>
<!-- Node1&#45;&gt;Node36 -->
<g id="edge112" class="edge"><title>Node1&#45;&gt;Node36</title>
<path fill="none" stroke="midnightblue" d="M684.641,-427.787C728.53,-417.993 796.224,-402.37 863.857,-384.175"/>
<polygon fill="midnightblue" stroke="midnightblue" points="865.095,-387.466 873.832,-381.472 863.265,-380.709 865.095,-387.466"/>
</g>
<!-- Node2&#45;&gt;Node3 -->
<g id="edge4" class="edge"><title>Node2&#45;&gt;Node3</title>
<path fill="none" stroke="midnightblue" d="M381.041,-362.412C412.352,-351.411 461.508,-334.14 496.022,-322.013"/>
<polygon fill="midnightblue" stroke="midnightblue" points="497.509,-325.201 505.783,-318.584 495.189,-318.596 497.509,-325.201"/>
</g>
<!-- Node6 -->
<g id="node11" class="node"><title>Node6</title>
<polygon fill="white" stroke="#bfbfbf" points="210.906,-116.5 210.906,-137.5 266.906,-137.5 266.906,-116.5 210.906,-116.5"/>
<text text-anchor="middle" x="238.906" y="-124.5" font-family="Helvetica,sans-Serif" font-size="10.00">Rtypes.h</text>
</g>
<!-- Node2&#45;&gt;Node6 -->
<g id="edge60" class="edge"><title>Node2&#45;&gt;Node6</title>
<path fill="none" stroke="midnightblue" d="M308.711,-367.562C283.002,-361.833 252.079,-350.082 235.906,-326 198.752,-270.678 219.283,-185.763 231.669,-147.245"/>
<polygon fill="midnightblue" stroke="midnightblue" points="235.018,-148.269 234.892,-137.675 228.384,-146.035 235.018,-148.269"/>
</g>
<!-- Node24 -->
<g id="node53" class="node"><title>Node24</title>
<polygon fill="white" stroke="#bfbfbf" points="18.4057,-232.5 18.4057,-253.5 77.4057,-253.5 77.4057,-232.5 18.4057,-232.5"/>
<text text-anchor="middle" x="47.9057" y="-240.5" font-family="Helvetica,sans-Serif" font-size="10.00">functional</text>
</g>
<!-- Node2&#45;&gt;Node24 -->
<g id="edge58" class="edge"><title>Node2&#45;&gt;Node24</title>
<path fill="none" stroke="midnightblue" d="M308.847,-369.488C229.624,-362.444 64.6829,-345.58 47.9057,-326 33.3278,-308.986 36.458,-282.022 41.1635,-263.47"/>
<polygon fill="midnightblue" stroke="midnightblue" points="44.5851,-264.237 43.9941,-253.658 37.8594,-262.296 44.5851,-264.237"/>
</g>
<!-- Node25 -->
<g id="node56" class="node"><title>Node25</title>
<a xlink:href="root__draw_8h.html" target="_top" xlink:title="analysis/plot/root\l_draw.h">
<polygon fill="white" stroke="black" points="244.406,-291 244.406,-325 335.406,-325 335.406,-291 244.406,-291"/>
<text text-anchor="start" x="252.406" y="-312" font-family="Helvetica,sans-Serif" font-size="10.00">analysis/plot/root</text>
<text text-anchor="middle" x="289.906" y="-299" font-family="Helvetica,sans-Serif" font-size="10.00">_draw.h</text>
</a>
</g>
<!-- Node2&#45;&gt;Node25 -->
<g id="edge62" class="edge"><title>Node2&#45;&gt;Node25</title>
<path fill="none" stroke="midnightblue" d="M340.833,-362.267C333.282,-354.221 322.641,-342.882 313.037,-332.648"/>
<polygon fill="midnightblue" stroke="midnightblue" points="315.358,-330.007 305.963,-325.11 310.254,-334.797 315.358,-330.007"/>
</g>
<!-- Node28 -->
<g id="node67" class="node"><title>Node28</title>
<a xlink:href="_indicator__traits_8h.html" target="_top" xlink:title="calibration/gui/Indicator\l_traits.h">
<polygon fill="white" stroke="black" points="352.406,-291 352.406,-325 469.406,-325 469.406,-291 352.406,-291"/>
<text text-anchor="start" x="360.406" y="-312" font-family="Helvetica,sans-Serif" font-size="10.00">calibration/gui/Indicator</text>
<text text-anchor="middle" x="410.906" y="-299" font-family="Helvetica,sans-Serif" font-size="10.00">_traits.h</text>
</a>
</g>
<!-- Node2&#45;&gt;Node28 -->
<g id="edge78" class="edge"><title>Node2&#45;&gt;Node28</title>
<path fill="none" stroke="midnightblue" d="M360.814,-362.267C368.24,-354.221 378.707,-342.882 388.154,-332.648"/>
<polygon fill="midnightblue" stroke="midnightblue" points="390.901,-334.832 395.112,-325.11 385.757,-330.084 390.901,-334.832"/>
</g>
<!-- Node29 -->
<g id="node70" class="node"><title>Node29</title>
<polygon fill="white" stroke="#bfbfbf" points="602.406,-297.5 602.406,-318.5 667.406,-318.5 667.406,-297.5 602.406,-297.5"/>
<text text-anchor="middle" x="634.906" y="-305.5" font-family="Helvetica,sans-Serif" font-size="10.00">TCanvas.h</text>
</g>
<!-- Node2&#45;&gt;Node29 -->
<g id="edge82" class="edge"><title>Node2&#45;&gt;Node29</title>
<path fill="none" stroke="midnightblue" d="M393.316,-367.717C442.371,-360.94 525.197,-347.433 593.906,-326 597.097,-325.005 600.373,-323.836 603.615,-322.58"/>
<polygon fill="midnightblue" stroke="midnightblue" points="605.225,-325.701 613.121,-318.637 602.543,-319.235 605.225,-325.701"/>
</g>
<!-- Node30 -->
<g id="node72" class="node"><title>Node30</title>
<polygon fill="white" stroke="#bfbfbf" points="56.9057,-297.5 56.9057,-318.5 188.906,-318.5 188.906,-297.5 56.9057,-297.5"/>
<text text-anchor="middle" x="122.906" y="-305.5" font-family="Helvetica,sans-Serif" font-size="10.00">TRootEmbeddedCanvas.h</text>
</g>
<!-- Node2&#45;&gt;Node30 -->
<g id="edge84" class="edge"><title>Node2&#45;&gt;Node30</title>
<path fill="none" stroke="midnightblue" d="M314.02,-362.484C274.699,-351.274 212.336,-333.496 169.613,-321.316"/>
<polygon fill="midnightblue" stroke="midnightblue" points="170.315,-317.876 159.738,-318.501 168.396,-324.608 170.315,-317.876"/>
</g>
<!-- Node4 -->
<g id="node7" class="node"><title>Node4</title>
<a xlink:href="_t_calibration_data_8h.html" target="_top" xlink:title="tree/TCalibrationData.h">
<polygon fill="white" stroke="black" points="881.906,-232.5 881.906,-253.5 999.906,-253.5 999.906,-232.5 881.906,-232.5"/>
<text text-anchor="middle" x="940.906" y="-240.5" font-family="Helvetica,sans-Serif" font-size="10.00">tree/TCalibrationData.h</text>
</a>
</g>
<!-- Node3&#45;&gt;Node4 -->
<g id="edge6" class="edge"><title>Node3&#45;&gt;Node4</title>
<path fill="none" stroke="midnightblue" d="M566.654,-297.415C575.382,-294.695 584.95,-291.982 593.906,-290 689.093,-268.937 801.189,-255.819 871.658,-248.958"/>
<polygon fill="midnightblue" stroke="midnightblue" points="872.126,-252.43 881.747,-247.991 871.458,-245.462 872.126,-252.43"/>
</g>
<!-- Node12 -->
<g id="node23" class="node"><title>Node12</title>
<polygon fill="white" stroke="#bfbfbf" points="665.406,-0.5 665.406,-21.5 706.406,-21.5 706.406,-0.5 665.406,-0.5"/>
<text text-anchor="middle" x="685.906" y="-8.5" font-family="Helvetica,sans-Serif" font-size="10.00">string</text>
</g>
<!-- Node3&#45;&gt;Node12 -->
<g id="edge56" class="edge"><title>Node3&#45;&gt;Node12</title>
<path fill="none" stroke="midnightblue" d="M517.38,-297.349C479.2,-274.18 392.601,-215.038 359.906,-138 349.777,-114.135 374.497,-60.1053 376.906,-58 417.916,-22.1531 584.639,-13.6249 654.681,-11.6135"/>
<polygon fill="midnightblue" stroke="midnightblue" points="655.152,-15.1025 665.058,-11.3434 654.97,-8.10487 655.152,-15.1025"/>
</g>
<!-- Node5 -->
<g id="node9" class="node"><title>Node5</title>
<a xlink:href="_t_i_d_8h.html" target="_top" xlink:title="TID.h">
<polygon fill="white" stroke="black" points="647.406,-174.5 647.406,-195.5 688.406,-195.5 688.406,-174.5 647.406,-174.5"/>
<text text-anchor="middle" x="667.906" y="-182.5" font-family="Helvetica,sans-Serif" font-size="10.00">TID.h</text>
</a>
</g>
<!-- Node4&#45;&gt;Node5 -->
<g id="edge8" class="edge"><title>Node4&#45;&gt;Node5</title>
<path fill="none" stroke="midnightblue" d="M891.468,-232.497C835.184,-220.539 745.008,-201.381 698.242,-191.445"/>
<polygon fill="midnightblue" stroke="midnightblue" points="698.918,-188.011 688.409,-189.356 697.464,-194.858 698.918,-188.011"/>
</g>
<!-- Node4&#45;&gt;Node12 -->
<g id="edge48" class="edge"><title>Node4&#45;&gt;Node12</title>
<path fill="none" stroke="midnightblue" d="M996.295,-232.408C1031.43,-222.582 1068.15,-204.711 1055.91,-174 1027.35,-102.38 997.033,-90.0506 926.906,-58 856.226,-25.6969 763.999,-15.5668 716.754,-12.4114"/>
<polygon fill="midnightblue" stroke="midnightblue" points="716.757,-8.90525 706.564,-11.7938 716.334,-15.8924 716.757,-8.90525"/>
</g>
<!-- Node16 -->
<g id="node32" class="node"><title>Node16</title>
<polygon fill="white" stroke="#bfbfbf" points="726.406,-58.5 726.406,-79.5 767.406,-79.5 767.406,-58.5 726.406,-58.5"/>
<text text-anchor="middle" x="746.906" y="-66.5" font-family="Helvetica,sans-Serif" font-size="10.00">ctime</text>
</g>
<!-- Node4&#45;&gt;Node16 -->
<g id="edge50" class="edge"><title>Node4&#45;&gt;Node16</title>
<path fill="none" stroke="midnightblue" d="M943.988,-232.238C952.156,-203.248 973.251,-125.088 965.906,-116 942.59,-87.1495 832.397,-75.1971 777.765,-70.9796"/>
<polygon fill="midnightblue" stroke="midnightblue" points="777.851,-67.4766 767.622,-70.2365 777.339,-74.4579 777.851,-67.4766"/>
</g>
<!-- Node23 -->
<g id="node49" class="node"><title>Node23</title>
<a xlink:href="_git_info_8h.html" target="_top" xlink:title="base/GitInfo.h">
<polygon fill="white" stroke="black" points="968.906,-174.5 968.906,-195.5 1046.91,-195.5 1046.91,-174.5 968.906,-174.5"/>
<text text-anchor="middle" x="1007.91" y="-182.5" font-family="Helvetica,sans-Serif" font-size="10.00">base/GitInfo.h</text>
</a>
</g>
<!-- Node4&#45;&gt;Node23 -->
<g id="edge52" class="edge"><title>Node4&#45;&gt;Node23</title>
<path fill="none" stroke="midnightblue" d="M953.195,-232.362C962.922,-223.941 976.704,-212.011 988.001,-202.231"/>
<polygon fill="midnightblue" stroke="midnightblue" points="990.425,-204.762 995.695,-195.571 985.843,-199.469 990.425,-204.762"/>
</g>
<!-- Node5&#45;&gt;Node6 -->
<g id="edge10" class="edge"><title>Node5&#45;&gt;Node6</title>
<path fill="none" stroke="midnightblue" d="M647.303,-183.766C590.007,-180.075 423.877,-167.62 277.144,-137.978"/>
<polygon fill="midnightblue" stroke="midnightblue" points="277.562,-134.49 267.062,-135.907 276.153,-141.347 277.562,-134.49"/>
</g>
<!-- Node7 -->
<g id="node13" class="node"><title>Node7</title>
<a xlink:href="printable_8h.html" target="_top" xlink:title="base/printable.h">
<polygon fill="white" stroke="black" points="368.906,-116.5 368.906,-137.5 454.906,-137.5 454.906,-116.5 368.906,-116.5"/>
<text text-anchor="middle" x="411.906" y="-124.5" font-family="Helvetica,sans-Serif" font-size="10.00">base/printable.h</text>
</a>
</g>
<!-- Node5&#45;&gt;Node7 -->
<g id="edge12" class="edge"><title>Node5&#45;&gt;Node7</title>
<path fill="none" stroke="midnightblue" d="M647.389,-180.352C608.214,-171.476 521.636,-151.861 465.085,-139.048"/>
<polygon fill="midnightblue" stroke="midnightblue" points="465.766,-135.614 455.24,-136.818 464.219,-142.441 465.766,-135.614"/>
</g>
<!-- Node10 -->
<g id="node19" class="node"><title>Node10</title>
<a xlink:href="time_8h.html" target="_top" xlink:title="base/std_ext/time.h">
<polygon fill="white" stroke="black" points="616.406,-116.5 616.406,-137.5 719.406,-137.5 719.406,-116.5 616.406,-116.5"/>
<text text-anchor="middle" x="667.906" y="-124.5" font-family="Helvetica,sans-Serif" font-size="10.00">base/std_ext/time.h</text>
</a>
</g>
<!-- Node5&#45;&gt;Node10 -->
<g id="edge18" class="edge"><title>Node5&#45;&gt;Node10</title>
<path fill="none" stroke="midnightblue" d="M667.906,-174.362C667.906,-166.922 667.906,-156.743 667.906,-147.728"/>
<polygon fill="midnightblue" stroke="midnightblue" points="671.406,-147.571 667.906,-137.571 664.406,-147.571 671.406,-147.571"/>
</g>
<!-- Node5&#45;&gt;Node16 -->
<g id="edge46" class="edge"><title>Node5&#45;&gt;Node16</title>
<path fill="none" stroke="midnightblue" d="M687.091,-174.469C700.413,-166.21 717.564,-153.529 727.906,-138 737.565,-123.496 742.343,-104.174 744.689,-89.6668"/>
<polygon fill="midnightblue" stroke="midnightblue" points="748.169,-90.0517 746.05,-79.671 741.233,-89.1075 748.169,-90.0517"/>
</g>
<!-- Node17 -->
<g id="node34" class="node"><title>Node17</title>
<polygon fill="white" stroke="#bfbfbf" points="774.906,-116.5 774.906,-137.5 836.906,-137.5 836.906,-116.5 774.906,-116.5"/>
<text text-anchor="middle" x="805.906" y="-124.5" font-family="Helvetica,sans-Serif" font-size="10.00">type_traits</text>
</g>
<!-- Node5&#45;&gt;Node17 -->
<g id="edge34" class="edge"><title>Node5&#45;&gt;Node17</title>
<path fill="none" stroke="midnightblue" d="M688.566,-176.317C710.434,-167.126 745.322,-152.463 771.381,-141.511"/>
<polygon fill="midnightblue" stroke="midnightblue" points="773.027,-144.615 780.89,-137.514 770.315,-138.162 773.027,-144.615"/>
</g>
<!-- Node18 -->
<g id="node36" class="node"><title>Node18</title>
<polygon fill="white" stroke="#bfbfbf" points="854.906,-116.5 854.906,-137.5 892.906,-137.5 892.906,-116.5 854.906,-116.5"/>
<text text-anchor="middle" x="873.906" y="-124.5" font-family="Helvetica,sans-Serif" font-size="10.00">tuple</text>
</g>
<!-- Node5&#45;&gt;Node18 -->
<g id="edge36" class="edge"><title>Node5&#45;&gt;Node18</title>
<path fill="none" stroke="midnightblue" d="M688.418,-180.403C720.148,-173.119 783.157,-157.966 845.191,-137.986"/>
<polygon fill="midnightblue" stroke="midnightblue" points="846.313,-141.302 854.733,-134.871 844.14,-134.647 846.313,-141.302"/>
</g>
<!-- Node19 -->
<g id="node38" class="node"><title>Node19</title>
<polygon fill="white" stroke="#bfbfbf" points="910.906,-116.5 910.906,-137.5 956.906,-137.5 956.906,-116.5 910.906,-116.5"/>
<text text-anchor="middle" x="933.906" y="-124.5" font-family="Helvetica,sans-Serif" font-size="10.00">cstdint</text>
</g>
<!-- Node5&#45;&gt;Node19 -->
<g id="edge38" class="edge"><title>Node5&#45;&gt;Node19</title>
<path fill="none" stroke="midnightblue" d="M688.463,-181.816C727.935,-175.503 817.166,-160.269 900.94,-138.016"/>
<polygon fill="midnightblue" stroke="midnightblue" points="901.854,-141.395 910.598,-135.413 900.032,-134.636 901.854,-141.395"/>
</g>
<!-- Node20 -->
<g id="node40" class="node"><title>Node20</title>
<polygon fill="white" stroke="#bfbfbf" points="472.406,-116.5 472.406,-137.5 531.406,-137.5 531.406,-116.5 472.406,-116.5"/>
<text text-anchor="middle" x="501.906" y="-124.5" font-family="Helvetica,sans-Serif" font-size="10.00">stdexcept</text>
</g>
<!-- Node5&#45;&gt;Node20 -->
<g id="edge40" class="edge"><title>Node5&#45;&gt;Node20</title>
<path fill="none" stroke="midnightblue" d="M647.217,-177.772C620.831,-168.552 574.646,-152.415 541.418,-140.806"/>
<polygon fill="midnightblue" stroke="midnightblue" points="542.153,-137.355 531.559,-137.361 539.844,-143.963 542.153,-137.355"/>
</g>
<!-- Node21 -->
<g id="node42" class="node"><title>Node21</title>
<polygon fill="white" stroke="#bfbfbf" points="284.406,-116.5 284.406,-137.5 313.406,-137.5 313.406,-116.5 284.406,-116.5"/>
<text text-anchor="middle" x="298.906" y="-124.5" font-family="Helvetica,sans-Serif" font-size="10.00">list</text>
</g>
<!-- Node5&#45;&gt;Node21 -->
<g id="edge42" class="edge"><title>Node5&#45;&gt;Node21</title>
<path fill="none" stroke="midnightblue" d="M647.33,-182.056C597.784,-174.924 467.954,-155.983 359.906,-138 347.839,-135.992 334.462,-133.598 323.316,-131.557"/>
<polygon fill="midnightblue" stroke="midnightblue" points="323.899,-128.106 313.43,-129.733 322.629,-134.99 323.899,-128.106"/>
</g>
<!-- Node22 -->
<g id="node44" class="node"><title>Node22</title>
<polygon fill="white" stroke="#bfbfbf" points="548.906,-116.5 548.906,-137.5 598.906,-137.5 598.906,-116.5 548.906,-116.5"/>
<text text-anchor="middle" x="573.906" y="-124.5" font-family="Helvetica,sans-Serif" font-size="10.00">iomanip</text>
</g>
<!-- Node5&#45;&gt;Node22 -->
<g id="edge44" class="edge"><title>Node5&#45;&gt;Node22</title>
<path fill="none" stroke="midnightblue" d="M650.665,-174.362C636.354,-165.532 615.791,-152.844 599.549,-142.822"/>
<polygon fill="midnightblue" stroke="midnightblue" points="601.386,-139.843 591.037,-137.571 597.71,-145.8 601.386,-139.843"/>
</g>
<!-- Node8 -->
<g id="node15" class="node"><title>Node8</title>
<polygon fill="white" stroke="#bfbfbf" points="115.906,-0.5 115.906,-21.5 159.906,-21.5 159.906,-0.5 115.906,-0.5"/>
<text text-anchor="middle" x="137.906" y="-8.5" font-family="Helvetica,sans-Serif" font-size="10.00">vector</text>
</g>
<!-- Node7&#45;&gt;Node8 -->
<g id="edge14" class="edge"><title>Node7&#45;&gt;Node8</title>
<path fill="none" stroke="midnightblue" d="M368.872,-121.589C300.299,-112.598 172.354,-94.1673 156.906,-80 143.642,-67.836 139.305,-47.348 138.039,-31.8495"/>
<polygon fill="midnightblue" stroke="midnightblue" points="141.526,-31.4677 137.577,-21.6363 134.533,-31.7844 141.526,-31.4677"/>
</g>
<!-- Node9 -->
<g id="node17" class="node"><title>Node9</title>
<polygon fill="white" stroke="#bfbfbf" points="385.906,-58.5 385.906,-79.5 437.906,-79.5 437.906,-58.5 385.906,-58.5"/>
<text text-anchor="middle" x="411.906" y="-66.5" font-family="Helvetica,sans-Serif" font-size="10.00">ostream</text>
</g>
<!-- Node7&#45;&gt;Node9 -->
<g id="edge16" class="edge"><title>Node7&#45;&gt;Node9</title>
<path fill="none" stroke="midnightblue" d="M411.906,-116.362C411.906,-108.922 411.906,-98.7427 411.906,-89.7276"/>
<polygon fill="midnightblue" stroke="midnightblue" points="415.406,-89.5706 411.906,-79.5707 408.406,-89.5707 415.406,-89.5706"/>
</g>
<!-- Node10&#45;&gt;Node11 -->
<g id="edge20" class="edge"><title>Node10&#45;&gt;Node11</title>
<path fill="none" stroke="midnightblue" d="M616.229,-117.32C613.416,-116.857 610.628,-116.414 607.906,-116 494.272,-98.7175 361.138,-83.7279 284.063,-75.5639"/>
<polygon fill="midnightblue" stroke="midnightblue" points="284.339,-72.0737 274.027,-74.5059 283.605,-79.0351 284.339,-72.0737"/>
</g>
<!-- Node15 -->
<g id="node30" class="node"><title>Node15</title>
<polygon fill="white" stroke="#bfbfbf" points="644.906,-58.5 644.906,-79.5 690.906,-79.5 690.906,-58.5 644.906,-58.5"/>
<text text-anchor="middle" x="667.906" y="-66.5" font-family="Helvetica,sans-Serif" font-size="10.00">cstring</text>
</g>
<!-- Node10&#45;&gt;Node15 -->
<g id="edge30" class="edge"><title>Node10&#45;&gt;Node15</title>
<path fill="none" stroke="midnightblue" d="M667.906,-116.362C667.906,-108.922 667.906,-98.7427 667.906,-89.7276"/>
<polygon fill="midnightblue" stroke="midnightblue" points="671.406,-89.5706 667.906,-79.5707 664.406,-89.5707 671.406,-89.5706"/>
</g>
<!-- Node10&#45;&gt;Node16 -->
<g id="edge32" class="edge"><title>Node10&#45;&gt;Node16</title>
<path fill="none" stroke="midnightblue" d="M682.396,-116.362C694.088,-107.777 710.748,-95.5459 724.209,-85.6636"/>
<polygon fill="midnightblue" stroke="midnightblue" points="726.518,-88.31 732.508,-79.5707 722.376,-82.6675 726.518,-88.31"/>
</g>
<!-- Node11&#45;&gt;Node8 -->
<g id="edge28" class="edge"><title>Node11&#45;&gt;Node8</title>
<path fill="none" stroke="midnightblue" d="M204.866,-58.3619C192.613,-49.6955 175.106,-37.3126 161.066,-27.3819"/>
<polygon fill="midnightblue" stroke="midnightblue" points="163.036,-24.4879 152.85,-21.5707 158.993,-30.2028 163.036,-24.4879"/>
</g>
<!-- Node11&#45;&gt;Node12 -->
<g id="edge22" class="edge"><title>Node11&#45;&gt;Node12</title>
<path fill="none" stroke="midnightblue" d="M274.065,-60.0245C278.742,-59.3144 283.405,-58.6295 287.906,-58 424.326,-38.92 587.778,-21.2416 654.862,-14.2082"/>
<polygon fill="midnightblue" stroke="midnightblue" points="655.566,-17.6538 665.149,-13.1342 654.839,-10.6917 655.566,-17.6538"/>
</g>
<!-- Node13 -->
<g id="node25" class="node"><title>Node13</title>
<polygon fill="white" stroke="#bfbfbf" points="185.906,-0.5 185.906,-21.5 237.906,-21.5 237.906,-0.5 185.906,-0.5"/>
<text text-anchor="middle" x="211.906" y="-8.5" font-family="Helvetica,sans-Serif" font-size="10.00">sstream</text>
</g>
<!-- Node11&#45;&gt;Node13 -->
<g id="edge24" class="edge"><title>Node11&#45;&gt;Node13</title>
<path fill="none" stroke="midnightblue" d="M218.438,-58.3619C217.412,-50.9219 216.008,-40.7427 214.765,-31.7276"/>
<polygon fill="midnightblue" stroke="midnightblue" points="218.197,-30.9986 213.364,-21.5707 211.263,-31.9551 218.197,-30.9986"/>
</g>
<!-- Node14 -->
<g id="node27" class="node"><title>Node14</title>
<polygon fill="white" stroke="#bfbfbf" points="255.906,-0.5 255.906,-21.5 311.906,-21.5 311.906,-0.5 255.906,-0.5"/>
<text text-anchor="middle" x="283.906" y="-8.5" font-family="Helvetica,sans-Serif" font-size="10.00">algorithm</text>
</g>
<!-- Node11&#45;&gt;Node14 -->
<g id="edge26" class="edge"><title>Node11&#45;&gt;Node14</title>
<path fill="none" stroke="midnightblue" d="M231.644,-58.3619C240.846,-50.0226 253.846,-38.2418 264.577,-28.5162"/>
<polygon fill="midnightblue" stroke="midnightblue" points="267.182,-30.8793 272.242,-21.5707 262.481,-25.6924 267.182,-30.8793"/>
</g>
<!-- Node23&#45;&gt;Node12 -->
<g id="edge54" class="edge"><title>Node23&#45;&gt;Node12</title>
<path fill="none" stroke="midnightblue" d="M1006.36,-174.374C1003.65,-159.367 996.613,-132.012 979.906,-116 904.39,-43.6251 775.649,-20.6993 716.848,-13.7982"/>
<polygon fill="midnightblue" stroke="midnightblue" points="717.032,-10.2975 706.711,-12.6878 716.27,-17.2559 717.032,-10.2975"/>
</g>
<!-- Node25&#45;&gt;Node6 -->
<g id="edge76" class="edge"><title>Node25&#45;&gt;Node6</title>
<path fill="none" stroke="midnightblue" d="M285.108,-290.972C275.715,-257.635 254.93,-183.869 244.752,-147.747"/>
<polygon fill="midnightblue" stroke="midnightblue" points="248.039,-146.508 241.958,-137.832 241.301,-148.406 248.039,-146.508"/>
</g>
<!-- Node25&#45;&gt;Node8 -->
<g id="edge68" class="edge"><title>Node25&#45;&gt;Node8</title>
<path fill="none" stroke="midnightblue" d="M244.293,-299.878C216.998,-292.575 184.005,-278.975 164.906,-254 113.562,-186.859 125.756,-77.1464 133.709,-31.7111"/>
<polygon fill="midnightblue" stroke="midnightblue" points="137.2,-32.0827 135.598,-21.6096 130.319,-30.7957 137.2,-32.0827"/>
</g>
<!-- Node25&#45;&gt;Node12 -->
<g id="edge64" class="edge"><title>Node25&#45;&gt;Node12</title>
<path fill="none" stroke="midnightblue" d="M270.851,-290.987C234.094,-256.092 160.529,-174.763 201.906,-116 212.913,-100.368 345.355,-62.6258 363.906,-58 468.961,-31.8038 597.184,-18.4892 655.01,-13.4506"/>
<polygon fill="midnightblue" stroke="midnightblue" points="655.62,-16.9115 665.288,-12.5783 655.028,-9.93659 655.62,-16.9115"/>
</g>
<!-- Node25&#45;&gt;Node21 -->
<g id="edge66" class="edge"><title>Node25&#45;&gt;Node21</title>
<path fill="none" stroke="midnightblue" d="M290.752,-290.972C292.403,-257.779 296.046,-184.504 297.851,-148.216"/>
<polygon fill="midnightblue" stroke="midnightblue" points="301.366,-147.993 298.367,-137.832 294.375,-147.646 301.366,-147.993"/>
</g>
<!-- Node25&#45;&gt;Node24 -->
<g id="edge74" class="edge"><title>Node25&#45;&gt;Node24</title>
<path fill="none" stroke="midnightblue" d="M244.387,-295.774C199.136,-283.62 130.433,-265.167 87.4119,-253.611"/>
<polygon fill="midnightblue" stroke="midnightblue" points="88.151,-250.186 77.5854,-250.972 86.3351,-256.946 88.151,-250.186"/>
</g>
<!-- Node26 -->
<g id="node61" class="node"><title>Node26</title>
<polygon fill="white" stroke="#bfbfbf" points="320.406,-232.5 320.406,-253.5 355.406,-253.5 355.406,-232.5 320.406,-232.5"/>
<text text-anchor="middle" x="337.906" y="-240.5" font-family="Helvetica,sans-Serif" font-size="10.00">map</text>
</g>
<!-- Node25&#45;&gt;Node26 -->
<g id="edge70" class="edge"><title>Node25&#45;&gt;Node26</title>
<path fill="none" stroke="midnightblue" d="M302.517,-290.922C309.085,-282.029 317.133,-271.13 323.894,-261.974"/>
<polygon fill="midnightblue" stroke="midnightblue" points="326.767,-263.976 329.892,-253.852 321.136,-259.817 326.767,-263.976"/>
</g>
<!-- Node27 -->
<g id="node63" class="node"><title>Node27</title>
<polygon fill="white" stroke="#bfbfbf" points="636.906,-232.5 636.906,-253.5 688.906,-253.5 688.906,-232.5 636.906,-232.5"/>
<text text-anchor="middle" x="662.906" y="-240.5" font-family="Helvetica,sans-Serif" font-size="10.00">memory</text>
</g>
<!-- Node25&#45;&gt;Node27 -->
<g id="edge72" class="edge"><title>Node25&#45;&gt;Node27</title>
<path fill="none" stroke="midnightblue" d="M335.408,-292.208C338.269,-291.41 341.118,-290.665 343.906,-290 444.847,-265.937 566.864,-252.079 626.509,-246.264"/>
<polygon fill="midnightblue" stroke="midnightblue" points="626.938,-249.739 636.56,-245.303 626.272,-242.771 626.938,-249.739"/>
</g>
<!-- Node28&#45;&gt;Node6 -->
<g id="edge80" class="edge"><title>Node28&#45;&gt;Node6</title>
<path fill="none" stroke="midnightblue" d="M402.403,-290.959C393.905,-274.834 379.837,-250.423 363.906,-232 333.093,-196.368 289.599,-162.743 262.879,-143.54"/>
<polygon fill="midnightblue" stroke="midnightblue" points="264.684,-140.529 254.503,-137.598 260.634,-146.238 264.684,-140.529"/>
</g>
<!-- Node31&#45;&gt;Node3 -->
<g id="edge90" class="edge"><title>Node31&#45;&gt;Node3</title>
<path fill="none" stroke="midnightblue" d="M621.063,-362.267C604.724,-351.855 579.73,-335.927 561.039,-324.016"/>
<polygon fill="midnightblue" stroke="midnightblue" points="562.75,-320.956 552.436,-318.534 558.988,-326.859 562.75,-320.956"/>
</g>
<!-- Node31&#45;&gt;Node12 -->
<g id="edge102" class="edge"><title>Node31&#45;&gt;Node12</title>
<path fill="none" stroke="midnightblue" d="M710.498,-362.475C778.789,-352.232 875.913,-336.69 912.906,-326 1005.36,-299.281 1112.91,-339.239 1112.91,-243 1112.91,-243 1112.91,-243 1112.91,-127 1112.91,-44.8122 814.582,-18.9748 716.644,-12.707"/>
<polygon fill="midnightblue" stroke="midnightblue" points="716.697,-9.20376 706.501,-12.0827 716.267,-16.1905 716.697,-9.20376"/>
</g>
<!-- Node31&#45;&gt;Node26 -->
<g id="edge100" class="edge"><title>Node31&#45;&gt;Node26</title>
<path fill="none" stroke="midnightblue" d="M649.496,-362.491C666.739,-345.611 695.157,-312.113 675.906,-290 655.606,-266.682 443.699,-250.143 366.141,-244.83"/>
<polygon fill="midnightblue" stroke="midnightblue" points="365.924,-241.308 355.712,-244.128 365.454,-248.292 365.924,-241.308"/>
</g>
<!-- Node31&#45;&gt;Node27 -->
<g id="edge104" class="edge"><title>Node31&#45;&gt;Node27</title>
<path fill="none" stroke="midnightblue" d="M708.234,-362.451C782.525,-350.969 889.835,-333.276 895.906,-326 906.156,-313.714 906.039,-302.382 895.906,-290 871.435,-260.1 758.097,-248.795 698.992,-244.879"/>
<polygon fill="midnightblue" stroke="midnightblue" points="699.163,-241.383 688.963,-244.251 698.725,-248.369 699.163,-241.383"/>
</g>
<!-- Node31&#45;&gt;Node28 -->
<g id="edge92" class="edge"><title>Node31&#45;&gt;Node28</title>
<path fill="none" stroke="midnightblue" d="M601.182,-362.484C568.376,-353.091 519.46,-339.084 479.441,-327.625"/>
<polygon fill="midnightblue" stroke="midnightblue" points="480.314,-324.234 469.737,-324.846 478.387,-330.964 480.314,-324.234"/>
</g>
<!-- Node31&#45;&gt;Node29 -->
<g id="edge98" class="edge"><title>Node31&#45;&gt;Node29</title>
<path fill="none" stroke="midnightblue" d="M637.41,-362.267C636.991,-353.18 636.378,-339.892 635.863,-328.74"/>
<polygon fill="midnightblue" stroke="midnightblue" points="639.349,-328.362 635.392,-318.534 632.357,-328.684 639.349,-328.362"/>
</g>
<!-- Node32 -->
<g id="node79" class="node"><title>Node32</title>
<polygon fill="white" stroke="#bfbfbf" points="722.906,-297.5 722.906,-318.5 788.906,-318.5 788.906,-297.5 722.906,-297.5"/>
<text text-anchor="middle" x="755.906" y="-305.5" font-family="Helvetica,sans-Serif" font-size="10.00">TGFrame.h</text>
</g>
<!-- Node31&#45;&gt;Node32 -->
<g id="edge94" class="edge"><title>Node31&#45;&gt;Node32</title>
<path fill="none" stroke="midnightblue" d="M657.127,-362.412C676.327,-351.836 706.047,-335.465 727.875,-323.441"/>
<polygon fill="midnightblue" stroke="midnightblue" points="729.622,-326.474 736.693,-318.584 726.245,-320.343 729.622,-326.474"/>
</g>
<!-- Node33 -->
<g id="node81" class="node"><title>Node33</title>
<polygon fill="white" stroke="#bfbfbf" points="806.906,-297.5 806.906,-318.5 886.906,-318.5 886.906,-297.5 806.906,-297.5"/>
<text text-anchor="middle" x="846.906" y="-305.5" font-family="Helvetica,sans-Serif" font-size="10.00">KeySymbols.h</text>
</g>
<!-- Node31&#45;&gt;Node33 -->
<g id="edge96" class="edge"><title>Node31&#45;&gt;Node33</title>
<path fill="none" stroke="midnightblue" d="M676.599,-362.41C709.143,-353.319 756.805,-339.569 797.906,-326 801.718,-324.741 805.678,-323.379 809.62,-321.988"/>
<polygon fill="midnightblue" stroke="midnightblue" points="811.066,-325.187 819.29,-318.508 808.696,-318.601 811.066,-325.187"/>
</g>
</g>
</svg>
