<?xml version="1.0" encoding="UTF-8" standalone="no"?>
<!DOCTYPE svg PUBLIC "-//W3C//DTD SVG 1.1//EN"
 "http://www.w3.org/Graphics/SVG/1.1/DTD/svg11.dtd">
<!-- Generated by graphviz version 2.26.3 (20100126.1600)
 -->
<!-- Title: src/calibration/gui/EditorWindow.cc Pages: 1 -->
<svg width="1774pt" height="464pt"
 viewBox="0.00 0.00 1773.79 464.00" xmlns="http://www.w3.org/2000/svg" xmlns:xlink="http://www.w3.org/1999/xlink">
<g id="graph1" class="graph" transform="scale(1 1) rotate(0) translate(4 460)">
<title>src/calibration/gui/EditorWindow.cc</title>
<polygon fill="white" stroke="white" points="-4,5 -4,-460 1770.79,-460 1770.79,5 -4,5"/>
<!-- Node1 -->
<g id="node1" class="node"><title>Node1</title>
<polygon fill="#bfbfbf" stroke="black" points="1186.79,-421 1186.79,-455 1280.79,-455 1280.79,-421 1186.79,-421"/>
<text text-anchor="start" x="1194.79" y="-442" font-family="Helvetica,sans-Serif" font-size="10.00">src/calibration/gui</text>
<text text-anchor="middle" x="1233.79" y="-429" font-family="Helvetica,sans-Serif" font-size="10.00">/EditorWindow.cc</text>
</g>
<!-- Node2 -->
<g id="node3" class="node"><title>Node2</title>
<a xlink:href="_editor_window_8h.html" target="_top" xlink:title="EditorWindow.h">
<polygon fill="white" stroke="black" points="795.79,-362.5 795.79,-383.5 881.79,-383.5 881.79,-362.5 795.79,-362.5"/>
<text text-anchor="middle" x="838.79" y="-370.5" font-family="Helvetica,sans-Serif" font-size="10.00">EditorWindow.h</text>
</a>
</g>
<!-- Node1&#45;&gt;Node2 -->
<g id="edge2" class="edge"><title>Node1&#45;&gt;Node2</title>
<path fill="none" stroke="midnightblue" d="M1186.54,-430.224C1112.46,-418.034 969.457,-394.502 891.911,-381.741"/>
<polygon fill="midnightblue" stroke="midnightblue" points="892.31,-378.26 881.875,-380.09 891.173,-385.167 892.31,-378.26"/>
</g>
<!-- Node11 -->
<g id="node21" class="node"><title>Node11</title>
<a xlink:href="string_8h.html" target="_top" xlink:title="base/std_ext/string.h">
<polygon fill="white" stroke="black" points="263.79,-58.5 263.79,-79.5 371.79,-79.5 371.79,-58.5 263.79,-58.5"/>
<text text-anchor="middle" x="317.79" y="-66.5" font-family="Helvetica,sans-Serif" font-size="10.00">base/std_ext/string.h</text>
</a>
</g>
<!-- Node1&#45;&gt;Node11 -->
<g id="edge74" class="edge"><title>Node1&#45;&gt;Node11</title>
<path fill="none" stroke="midnightblue" d="M1186.48,-437.564C971.342,-435.073 92.5848,-419.217 18.7902,-326 -67.967,-216.409 173.922,-118.132 275.363,-82.8477"/>
<polygon fill="midnightblue" stroke="midnightblue" points="276.691,-86.0924 285.012,-79.5343 274.417,-79.4718 276.691,-86.0924"/>
</g>
<!-- Node13 -->
<g id="node25" class="node"><title>Node13</title>
<polygon fill="white" stroke="#bfbfbf" points="860.79,-0.5 860.79,-21.5 912.79,-21.5 912.79,-0.5 860.79,-0.5"/>
<text text-anchor="middle" x="886.79" y="-8.5" font-family="Helvetica,sans-Serif" font-size="10.00">sstream</text>
</g>
<!-- Node1&#45;&gt;Node13 -->
<g id="edge128" class="edge"><title>Node1&#45;&gt;Node13</title>
<path fill="none" stroke="midnightblue" d="M1233.79,-420.757C1233.79,-395.861 1233.79,-348.399 1233.79,-308 1233.79,-308 1233.79,-308 1233.79,-127 1233.79,-61.9936 1011.97,-26.7836 923.035,-15.2789"/>
<polygon fill="midnightblue" stroke="midnightblue" points="923.232,-11.776 912.872,-13.993 922.353,-18.7207 923.232,-11.776"/>
</g>
<!-- Node17 -->
<g id="node34" class="node"><title>Node17</title>
<polygon fill="white" stroke="#bfbfbf" points="1037.79,-116.5 1037.79,-137.5 1099.79,-137.5 1099.79,-116.5 1037.79,-116.5"/>
<text text-anchor="middle" x="1068.79" y="-124.5" font-family="Helvetica,sans-Serif" font-size="10.00">type_traits</text>
</g>
<!-- Node1&#45;&gt;Node17 -->
<g id="edge126" class="edge"><title>Node1&#45;&gt;Node17</title>
<path fill="none" stroke="midnightblue" d="M1215.78,-420.933C1193.31,-397.701 1157.79,-353.751 1157.79,-308 1157.79,-308 1157.79,-308 1157.79,-243 1157.79,-200.397 1119.54,-163.797 1093.19,-143.64"/>
<polygon fill="midnightblue" stroke="midnightblue" points="1095.24,-140.804 1085.11,-137.686 1091.09,-146.438 1095.24,-140.804"/>
</g>
<!-- Node22 -->
<g id="node44" class="node"><title>Node22</title>
<polygon fill="white" stroke="#bfbfbf" points="1117.79,-116.5 1117.79,-137.5 1167.79,-137.5 1167.79,-116.5 1117.79,-116.5"/>
<text text-anchor="middle" x="1142.79" y="-124.5" font-family="Helvetica,sans-Serif" font-size="10.00">iomanip</text>
</g>
<!-- Node1&#45;&gt;Node22 -->
<g id="edge130" class="edge"><title>Node1&#45;&gt;Node22</title>
<path fill="none" stroke="midnightblue" d="M1225.36,-420.805C1214.16,-396.355 1195.79,-349.855 1195.79,-308 1195.79,-308 1195.79,-308 1195.79,-243 1195.79,-206.026 1173.24,-167.93 1157.56,-145.908"/>
<polygon fill="midnightblue" stroke="midnightblue" points="1160.3,-143.731 1151.54,-137.766 1154.67,-147.89 1160.3,-143.731"/>
</g>
<!-- Node30 -->
<g id="node68" class="node"><title>Node30</title>
<a xlink:href="memory_8h.html" target="_top" xlink:title="base/std_ext/memory.h">
<polygon fill="white" stroke="black" points="615.29,-297.5 615.29,-318.5 734.29,-318.5 734.29,-297.5 615.29,-297.5"/>
<text text-anchor="middle" x="674.79" y="-305.5" font-family="Helvetica,sans-Serif" font-size="10.00">base/std_ext/memory.h</text>
</a>
</g>
<!-- Node1&#45;&gt;Node30 -->
<g id="edge76" class="edge"><title>Node1&#45;&gt;Node30</title>
<path fill="none" stroke="midnightblue" d="M1186.51,-435.119C1087.03,-428.597 859.265,-411.132 786.79,-384 750.654,-370.472 714.796,-343.03 693.726,-325.09"/>
<polygon fill="midnightblue" stroke="midnightblue" points="695.994,-322.424 686.151,-318.502 691.4,-327.706 695.994,-322.424"/>
</g>
<!-- Node31 -->
<g id="node72" class="node"><title>Node31</title>
<a xlink:href="_editor_canvas_8h.html" target="_top" xlink:title="calibration/gui/EditorCanvas.h">
<polygon fill="white" stroke="black" points="273.29,-362.5 273.29,-383.5 420.29,-383.5 420.29,-362.5 273.29,-362.5"/>
<text text-anchor="middle" x="346.79" y="-370.5" font-family="Helvetica,sans-Serif" font-size="10.00">calibration/gui/EditorCanvas.h</text>
</a>
</g>
<!-- Node1&#45;&gt;Node31 -->
<g id="edge82" class="edge"><title>Node1&#45;&gt;Node31</title>
<path fill="none" stroke="midnightblue" d="M1186.73,-434.551C1043.84,-424.08 613.643,-392.555 430.647,-379.145"/>
<polygon fill="midnightblue" stroke="midnightblue" points="430.765,-375.644 420.536,-378.404 430.254,-382.626 430.765,-375.644"/>
</g>
<!-- Node35 -->
<g id="node91" class="node"><title>Node35</title>
<polygon fill="white" stroke="#bfbfbf" points="1261.29,-362.5 1261.29,-383.5 1314.29,-383.5 1314.29,-362.5 1261.29,-362.5"/>
<text text-anchor="middle" x="1287.79" y="-370.5" font-family="Helvetica,sans-Serif" font-size="10.00">TExec.h</text>
</g>
<!-- Node1&#45;&gt;Node35 -->
<g id="edge112" class="edge"><title>Node1&#45;&gt;Node35</title>
<path fill="none" stroke="midnightblue" d="M1247.98,-420.922C1255.44,-411.937 1264.61,-400.905 1272.26,-391.691"/>
<polygon fill="midnightblue" stroke="midnightblue" points="1275.08,-393.781 1278.77,-383.852 1269.69,-389.307 1275.08,-393.781"/>
</g>
<!-- Node36 -->
<g id="node93" class="node"><title>Node36</title>
<polygon fill="white" stroke="#bfbfbf" points="1331.29,-362.5 1331.29,-383.5 1410.29,-383.5 1410.29,-362.5 1331.29,-362.5"/>
<text text-anchor="middle" x="1370.79" y="-370.5" font-family="Helvetica,sans-Serif" font-size="10.00">TApplication.h</text>
</g>
<!-- Node1&#45;&gt;Node36 -->
<g id="edge114" class="edge"><title>Node1&#45;&gt;Node36</title>
<path fill="none" stroke="midnightblue" d="M1269.79,-420.922C1291.28,-410.726 1318.32,-397.894 1339.02,-388.074"/>
<polygon fill="midnightblue" stroke="midnightblue" points="1340.79,-391.107 1348.33,-383.658 1337.79,-384.783 1340.79,-391.107"/>
</g>
<!-- Node37 -->
<g id="node95" class="node"><title>Node37</title>
<polygon fill="white" stroke="#bfbfbf" points="1427.29,-362.5 1427.29,-383.5 1492.29,-383.5 1492.29,-362.5 1427.29,-362.5"/>
<text text-anchor="middle" x="1459.79" y="-370.5" font-family="Helvetica,sans-Serif" font-size="10.00">TSystem.h</text>
</g>
<!-- Node1&#45;&gt;Node37 -->
<g id="edge116" class="edge"><title>Node1&#45;&gt;Node37</title>
<path fill="none" stroke="midnightblue" d="M1280.89,-424.453C1321.03,-412.909 1378.22,-396.461 1417.05,-385.292"/>
<polygon fill="midnightblue" stroke="midnightblue" points="1418.36,-388.559 1427,-382.431 1416.42,-381.832 1418.36,-388.559"/>
</g>
<!-- Node38 -->
<g id="node97" class="node"><title>Node38</title>
<polygon fill="white" stroke="#bfbfbf" points="1509.29,-362.5 1509.29,-383.5 1576.29,-383.5 1576.29,-362.5 1509.29,-362.5"/>
<text text-anchor="middle" x="1542.79" y="-370.5" font-family="Helvetica,sans-Serif" font-size="10.00">TGButton.h</text>
</g>
<!-- Node1&#45;&gt;Node38 -->
<g id="edge118" class="edge"><title>Node1&#45;&gt;Node38</title>
<path fill="none" stroke="midnightblue" d="M1281.23,-429.246C1332.66,-419.568 1417.37,-403.085 1498.97,-384.347"/>
<polygon fill="midnightblue" stroke="midnightblue" points="1499.95,-387.713 1508.9,-382.051 1498.37,-380.893 1499.95,-387.713"/>
</g>
<!-- Node39 -->
<g id="node99" class="node"><title>Node39</title>
<polygon fill="white" stroke="#bfbfbf" points="1593.29,-362.5 1593.29,-383.5 1652.29,-383.5 1652.29,-362.5 1593.29,-362.5"/>
<text text-anchor="middle" x="1622.79" y="-370.5" font-family="Helvetica,sans-Serif" font-size="10.00">TROOT.h</text>
</g>
<!-- Node1&#45;&gt;Node39 -->
<g id="edge120" class="edge"><title>Node1&#45;&gt;Node39</title>
<path fill="none" stroke="midnightblue" d="M1280.99,-432.704C1346.8,-424.889 1469.95,-408.701 1583.14,-384.179"/>
<polygon fill="midnightblue" stroke="midnightblue" points="1584,-387.575 1593.01,-382.014 1582.5,-380.738 1584,-387.575"/>
</g>
<!-- Node40 -->
<g id="node101" class="node"><title>Node40</title>
<a xlink:href="_logger_8h.html" target="_top" xlink:title="base/Logger.h">
<polygon fill="white" stroke="black" points="1669.79,-362.5 1669.79,-383.5 1747.79,-383.5 1747.79,-362.5 1669.79,-362.5"/>
<text text-anchor="middle" x="1708.79" y="-370.5" font-family="Helvetica,sans-Serif" font-size="10.00">base/Logger.h</text>
</a>
</g>
<!-- Node1&#45;&gt;Node40 -->
<g id="edge122" class="edge"><title>Node1&#45;&gt;Node40</title>
<path fill="none" stroke="midnightblue" d="M1281.09,-433.571C1358.33,-426.001 1516.45,-409.086 1659.71,-384.062"/>
<polygon fill="midnightblue" stroke="midnightblue" points="1660.32,-387.508 1669.56,-382.324 1659.11,-380.615 1660.32,-387.508"/>
</g>
<!-- Node3 -->
<g id="node5" class="node"><title>Node3</title>
<a xlink:href="_editor_8h.html" target="_top" xlink:title="calibration/Editor.h">
<polygon fill="white" stroke="black" points="789.79,-297.5 789.79,-318.5 887.79,-318.5 887.79,-297.5 789.79,-297.5"/>
<text text-anchor="middle" x="838.79" y="-305.5" font-family="Helvetica,sans-Serif" font-size="10.00">calibration/Editor.h</text>
</a>
</g>
<!-- Node2&#45;&gt;Node3 -->
<g id="edge4" class="edge"><title>Node2&#45;&gt;Node3</title>
<path fill="none" stroke="midnightblue" d="M838.79,-362.267C838.79,-353.18 838.79,-339.892 838.79,-328.74"/>
<polygon fill="midnightblue" stroke="midnightblue" points="842.29,-328.534 838.79,-318.534 835.29,-328.534 842.29,-328.534"/>
</g>
<!-- Node12 -->
<g id="node23" class="node"><title>Node12</title>
<polygon fill="white" stroke="#bfbfbf" points="436.29,-0.5 436.29,-21.5 477.29,-21.5 477.29,-0.5 436.29,-0.5"/>
<text text-anchor="middle" x="456.79" y="-8.5" font-family="Helvetica,sans-Serif" font-size="10.00">string</text>
</g>
<!-- Node2&#45;&gt;Node12 -->
<g id="edge70" class="edge"><title>Node2&#45;&gt;Node12</title>
<path fill="none" stroke="midnightblue" d="M881.847,-369.055C942.259,-362.78 1048.22,-348.844 1078.79,-326 1161.29,-264.34 1239.65,-197.586 1176.79,-116 1115.07,-35.9013 1056.35,-75.68 956.79,-58 780.924,-26.7697 566.331,-15.4247 487.619,-12.1384"/>
<polygon fill="midnightblue" stroke="midnightblue" points="487.565,-8.63352 477.432,-11.727 487.283,-15.6278 487.565,-8.63352"/>
</g>
<!-- Node24 -->
<g id="node53" class="node"><title>Node24</title>
<a xlink:href="_indicator__traits_8h.html" target="_top" xlink:title="calibration/gui/Indicator\l_traits.h">
<polygon fill="white" stroke="black" points="481.29,-291 481.29,-325 598.29,-325 598.29,-291 481.29,-291"/>
<text text-anchor="start" x="489.29" y="-312" font-family="Helvetica,sans-Serif" font-size="10.00">calibration/gui/Indicator</text>
<text text-anchor="middle" x="539.79" y="-299" font-family="Helvetica,sans-Serif" font-size="10.00">_traits.h</text>
</a>
</g>
<!-- Node2&#45;&gt;Node24 -->
<g id="edge58" class="edge"><title>Node2&#45;&gt;Node24</title>
<path fill="none" stroke="midnightblue" d="M795.428,-365.055C750.788,-356.69 679.007,-342.721 608.501,-326.34"/>
<polygon fill="midnightblue" stroke="midnightblue" points="609.098,-322.885 598.564,-324.013 607.502,-329.701 609.098,-322.885"/>
</g>
<!-- Node25 -->
<g id="node56" class="node"><title>Node25</title>
<polygon fill="white" stroke="#bfbfbf" points="905.79,-297.5 905.79,-318.5 971.79,-318.5 971.79,-297.5 905.79,-297.5"/>
<text text-anchor="middle" x="938.79" y="-305.5" font-family="Helvetica,sans-Serif" font-size="10.00">TGFrame.h</text>
</g>
<!-- Node2&#45;&gt;Node25 -->
<g id="edge62" class="edge"><title>Node2&#45;&gt;Node25</title>
<path fill="none" stroke="midnightblue" d="M855.303,-362.267C871.321,-351.855 895.826,-335.927 914.15,-324.016"/>
<polygon fill="midnightblue" stroke="midnightblue" points="916.108,-326.918 922.585,-318.534 912.293,-321.049 916.108,-326.918"/>
</g>
<!-- Node26 -->
<g id="node58" class="node"><title>Node26</title>
<polygon fill="white" stroke="#bfbfbf" points="989.79,-297.5 989.79,-318.5 1069.79,-318.5 1069.79,-297.5 989.79,-297.5"/>
<text text-anchor="middle" x="1029.79" y="-305.5" font-family="Helvetica,sans-Serif" font-size="10.00">KeySymbols.h</text>
</g>
<!-- Node2&#45;&gt;Node26 -->
<g id="edge64" class="edge"><title>Node2&#45;&gt;Node26</title>
<path fill="none" stroke="midnightblue" d="M871.604,-362.473C900.451,-353.139 943.524,-339.008 980.79,-326 984.487,-324.71 988.331,-323.342 992.169,-321.96"/>
<polygon fill="midnightblue" stroke="midnightblue" points="993.4,-325.237 1001.6,-318.532 991.009,-318.658 993.4,-325.237"/>
</g>
<!-- Node27 -->
<g id="node60" class="node"><title>Node27</title>
<polygon fill="white" stroke="#bfbfbf" points="361.29,-297.5 361.29,-318.5 426.29,-318.5 426.29,-297.5 361.29,-297.5"/>
<text text-anchor="middle" x="393.79" y="-305.5" font-family="Helvetica,sans-Serif" font-size="10.00">TCanvas.h</text>
</g>
<!-- Node2&#45;&gt;Node27 -->
<g id="edge66" class="edge"><title>Node2&#45;&gt;Node27</title>
<path fill="none" stroke="midnightblue" d="M795.627,-371.522C721.727,-368.197 566.662,-357.737 439.79,-326 435.579,-324.946 431.234,-323.606 426.973,-322.132"/>
<polygon fill="midnightblue" stroke="midnightblue" points="427.88,-318.735 417.287,-318.527 425.438,-325.296 427.88,-318.735"/>
</g>
<!-- Node28 -->
<g id="node62" class="node"><title>Node28</title>
<polygon fill="white" stroke="#bfbfbf" points="383.29,-232.5 383.29,-253.5 418.29,-253.5 418.29,-232.5 383.29,-232.5"/>
<text text-anchor="middle" x="400.79" y="-240.5" font-family="Helvetica,sans-Serif" font-size="10.00">map</text>
</g>
<!-- Node2&#45;&gt;Node28 -->
<g id="edge68" class="edge"><title>Node2&#45;&gt;Node28</title>
<path fill="none" stroke="midnightblue" d="M795.729,-371.292C711.386,-367.331 527.844,-355.505 472.79,-326 458.456,-318.318 431.276,-284.049 414.721,-262.017"/>
<polygon fill="midnightblue" stroke="midnightblue" points="417.319,-259.646 408.544,-253.709 411.702,-263.822 417.319,-259.646"/>
</g>
<!-- Node29 -->
<g id="node65" class="node"><title>Node29</title>
<polygon fill="white" stroke="#bfbfbf" points="473.79,-232.5 473.79,-253.5 525.79,-253.5 525.79,-232.5 473.79,-232.5"/>
<text text-anchor="middle" x="499.79" y="-240.5" font-family="Helvetica,sans-Serif" font-size="10.00">memory</text>
</g>
<!-- Node2&#45;&gt;Node29 -->
<g id="edge72" class="edge"><title>Node2&#45;&gt;Node29</title>
<path fill="none" stroke="midnightblue" d="M825.186,-362.461C813.274,-353.12 795.605,-338.985 780.79,-326 763.295,-310.665 763.482,-300.634 742.79,-290 707.188,-271.703 594.697,-255.144 536.092,-247.485"/>
<polygon fill="midnightblue" stroke="midnightblue" points="536.512,-244.01 526.146,-246.203 535.617,-250.953 536.512,-244.01"/>
</g>
<!-- Node4 -->
<g id="node7" class="node"><title>Node4</title>
<a xlink:href="_t_calibration_data_8h.html" target="_top" xlink:title="tree/TCalibrationData.h">
<polygon fill="white" stroke="black" points="674.79,-232.5 674.79,-253.5 792.79,-253.5 792.79,-232.5 674.79,-232.5"/>
<text text-anchor="middle" x="733.79" y="-240.5" font-family="Helvetica,sans-Serif" font-size="10.00">tree/TCalibrationData.h</text>
</a>
</g>
<!-- Node3&#45;&gt;Node4 -->
<g id="edge6" class="edge"><title>Node3&#45;&gt;Node4</title>
<path fill="none" stroke="midnightblue" d="M821.452,-297.267C804.556,-286.807 778.669,-270.782 759.401,-258.854"/>
<polygon fill="midnightblue" stroke="midnightblue" points="761.151,-255.821 750.806,-253.534 757.467,-261.773 761.151,-255.821"/>
</g>
<!-- Node3&#45;&gt;Node12 -->
<g id="edge56" class="edge"><title>Node3&#45;&gt;Node12</title>
<path fill="none" stroke="midnightblue" d="M861.146,-297.495C907.497,-274.984 1009.79,-221.204 1009.79,-185 1009.79,-185 1009.79,-185 1009.79,-127 1009.79,-71.8996 958.604,-76.7464 906.79,-58 829.236,-29.9405 576.128,-16.2899 487.655,-12.2896"/>
<polygon fill="midnightblue" stroke="midnightblue" points="487.614,-8.78448 477.469,-11.8391 487.304,-15.7776 487.614,-8.78448"/>
</g>
<!-- Node5 -->
<g id="node9" class="node"><title>Node5</title>
<a xlink:href="_t_i_d_8h.html" target="_top" xlink:title="TID.h">
<polygon fill="white" stroke="black" points="713.29,-174.5 713.29,-195.5 754.29,-195.5 754.29,-174.5 713.29,-174.5"/>
<text text-anchor="middle" x="733.79" y="-182.5" font-family="Helvetica,sans-Serif" font-size="10.00">TID.h</text>
</a>
</g>
<!-- Node4&#45;&gt;Node5 -->
<g id="edge8" class="edge"><title>Node4&#45;&gt;Node5</title>
<path fill="none" stroke="midnightblue" d="M733.79,-232.362C733.79,-224.922 733.79,-214.743 733.79,-205.728"/>
<polygon fill="midnightblue" stroke="midnightblue" points="737.29,-205.571 733.79,-195.571 730.29,-205.571 737.29,-205.571"/>
</g>
<!-- Node4&#45;&gt;Node12 -->
<g id="edge48" class="edge"><title>Node4&#45;&gt;Node12</title>
<path fill="none" stroke="midnightblue" d="M721.707,-232.258C704.053,-217.11 669.619,-189.585 635.79,-174 577.048,-146.937 541.446,-182.792 494.79,-138 479.494,-123.315 466.529,-63.9673 460.465,-31.864"/>
<polygon fill="midnightblue" stroke="midnightblue" points="463.86,-30.9688 458.616,-21.7628 456.974,-32.2297 463.86,-30.9688"/>
</g>
<!-- Node16 -->
<g id="node32" class="node"><title>Node16</title>
<polygon fill="white" stroke="#bfbfbf" points="857.29,-58.5 857.29,-79.5 898.29,-79.5 898.29,-58.5 857.29,-58.5"/>
<text text-anchor="middle" x="877.79" y="-66.5" font-family="Helvetica,sans-Serif" font-size="10.00">ctime</text>
</g>
<!-- Node4&#45;&gt;Node16 -->
<g id="edge50" class="edge"><title>Node4&#45;&gt;Node16</title>
<path fill="none" stroke="midnightblue" d="M792.898,-232.692C845.032,-220.134 917.971,-193.308 952.79,-138 967.884,-114.025 934.755,-93.0476 907.822,-80.6972"/>
<polygon fill="midnightblue" stroke="midnightblue" points="909.209,-77.4838 898.644,-76.6978 906.413,-83.9011 909.209,-77.4838"/>
</g>
<!-- Node23 -->
<g id="node49" class="node"><title>Node23</title>
<a xlink:href="_git_info_8h.html" target="_top" xlink:title="base/GitInfo.h">
<polygon fill="white" stroke="black" points="548.79,-174.5 548.79,-195.5 626.79,-195.5 626.79,-174.5 548.79,-174.5"/>
<text text-anchor="middle" x="587.79" y="-182.5" font-family="Helvetica,sans-Serif" font-size="10.00">base/GitInfo.h</text>
</a>
</g>
<!-- Node4&#45;&gt;Node23 -->
<g id="edge52" class="edge"><title>Node4&#45;&gt;Node23</title>
<path fill="none" stroke="midnightblue" d="M707.351,-232.497C684.034,-223.234 649.84,-209.65 623.987,-199.379"/>
<polygon fill="midnightblue" stroke="midnightblue" points="625.112,-196.06 614.526,-195.621 622.528,-202.566 625.112,-196.06"/>
</g>
<!-- Node6 -->
<g id="node11" class="node"><title>Node6</title>
<polygon fill="white" stroke="#bfbfbf" points="307.79,-116.5 307.79,-137.5 363.79,-137.5 363.79,-116.5 307.79,-116.5"/>
<text text-anchor="middle" x="335.79" y="-124.5" font-family="Helvetica,sans-Serif" font-size="10.00">Rtypes.h</text>
</g>
<!-- Node5&#45;&gt;Node6 -->
<g id="edge10" class="edge"><title>Node5&#45;&gt;Node6</title>
<path fill="none" stroke="midnightblue" d="M713.049,-182.496C645.792,-174.351 434.997,-148.615 374.056,-137.826"/>
<polygon fill="midnightblue" stroke="midnightblue" points="374.435,-134.334 363.953,-135.877 373.109,-141.208 374.435,-134.334"/>
</g>
<!-- Node7 -->
<g id="node13" class="node"><title>Node7</title>
<a xlink:href="printable_8h.html" target="_top" xlink:title="base/printable.h">
<polygon fill="white" stroke="black" points="503.79,-116.5 503.79,-137.5 589.79,-137.5 589.79,-116.5 503.79,-116.5"/>
<text text-anchor="middle" x="546.79" y="-124.5" font-family="Helvetica,sans-Serif" font-size="10.00">base/printable.h</text>
</a>
</g>
<!-- Node5&#45;&gt;Node7 -->
<g id="edge12" class="edge"><title>Node5&#45;&gt;Node7</title>
<path fill="none" stroke="midnightblue" d="M713.063,-178.571C683.733,-169.474 629.399,-152.622 590.831,-140.66"/>
<polygon fill="midnightblue" stroke="midnightblue" points="591.487,-137.199 580.899,-137.579 589.413,-143.884 591.487,-137.199"/>
</g>
<!-- Node10 -->
<g id="node19" class="node"><title>Node10</title>
<a xlink:href="time_8h.html" target="_top" xlink:title="base/std_ext/time.h">
<polygon fill="white" stroke="black" points="747.29,-116.5 747.29,-137.5 850.29,-137.5 850.29,-116.5 747.29,-116.5"/>
<text text-anchor="middle" x="798.79" y="-124.5" font-family="Helvetica,sans-Serif" font-size="10.00">base/std_ext/time.h</text>
</a>
</g>
<!-- Node5&#45;&gt;Node10 -->
<g id="edge18" class="edge"><title>Node5&#45;&gt;Node10</title>
<path fill="none" stroke="midnightblue" d="M745.712,-174.362C755.15,-165.941 768.52,-154.011 779.48,-144.231"/>
<polygon fill="midnightblue" stroke="midnightblue" points="781.813,-146.84 786.944,-137.571 777.152,-141.617 781.813,-146.84"/>
</g>
<!-- Node5&#45;&gt;Node16 -->
<g id="edge46" class="edge"><title>Node5&#45;&gt;Node16</title>
<path fill="none" stroke="midnightblue" d="M754.722,-182.928C782.513,-179.049 831.278,-168.135 858.79,-138 870.673,-124.984 875.221,-105.209 876.914,-90.1604"/>
<polygon fill="midnightblue" stroke="midnightblue" points="880.437,-90.0067 877.726,-79.7644 873.458,-89.4613 880.437,-90.0067"/>
</g>
<!-- Node5&#45;&gt;Node17 -->
<g id="edge34" class="edge"><title>Node5&#45;&gt;Node17</title>
<path fill="none" stroke="midnightblue" d="M754.493,-181.416C808.675,-172.035 955.433,-146.626 1027.6,-134.132"/>
<polygon fill="midnightblue" stroke="midnightblue" points="1028.43,-137.54 1037.68,-132.386 1027.23,-130.643 1028.43,-137.54"/>
</g>
<!-- Node18 -->
<g id="node36" class="node"><title>Node18</title>
<polygon fill="white" stroke="#bfbfbf" points="905.79,-116.5 905.79,-137.5 943.79,-137.5 943.79,-116.5 905.79,-116.5"/>
<text text-anchor="middle" x="924.79" y="-124.5" font-family="Helvetica,sans-Serif" font-size="10.00">tuple</text>
</g>
<!-- Node5&#45;&gt;Node18 -->
<g id="edge36" class="edge"><title>Node5&#45;&gt;Node18</title>
<path fill="none" stroke="midnightblue" d="M754.308,-179.128C784.507,-170.434 842.661,-153.491 891.79,-138 893.194,-137.557 894.63,-137.099 896.079,-136.633"/>
<polygon fill="midnightblue" stroke="midnightblue" points="897.216,-139.943 905.63,-133.504 895.037,-133.291 897.216,-139.943"/>
</g>
<!-- Node19 -->
<g id="node38" class="node"><title>Node19</title>
<polygon fill="white" stroke="#bfbfbf" points="607.79,-116.5 607.79,-137.5 653.79,-137.5 653.79,-116.5 607.79,-116.5"/>
<text text-anchor="middle" x="630.79" y="-124.5" font-family="Helvetica,sans-Serif" font-size="10.00">cstdint</text>
</g>
<!-- Node5&#45;&gt;Node19 -->
<g id="edge38" class="edge"><title>Node5&#45;&gt;Node19</title>
<path fill="none" stroke="midnightblue" d="M714.898,-174.362C699.073,-165.45 676.268,-152.609 658.396,-142.545"/>
<polygon fill="midnightblue" stroke="midnightblue" points="659.993,-139.428 649.562,-137.571 656.558,-145.527 659.993,-139.428"/>
</g>
<!-- Node20 -->
<g id="node40" class="node"><title>Node20</title>
<polygon fill="white" stroke="#bfbfbf" points="671.29,-116.5 671.29,-137.5 730.29,-137.5 730.29,-116.5 671.29,-116.5"/>
<text text-anchor="middle" x="700.79" y="-124.5" font-family="Helvetica,sans-Serif" font-size="10.00">stdexcept</text>
</g>
<!-- Node5&#45;&gt;Node20 -->
<g id="edge40" class="edge"><title>Node5&#45;&gt;Node20</title>
<path fill="none" stroke="midnightblue" d="M727.738,-174.362C723.318,-166.595 717.201,-155.843 711.911,-146.546"/>
<polygon fill="midnightblue" stroke="midnightblue" points="714.792,-144.531 706.805,-137.571 708.708,-147.993 714.792,-144.531"/>
</g>
<!-- Node21 -->
<g id="node42" class="node"><title>Node21</title>
<polygon fill="white" stroke="#bfbfbf" points="381.29,-116.5 381.29,-137.5 410.29,-137.5 410.29,-116.5 381.29,-116.5"/>
<text text-anchor="middle" x="395.79" y="-124.5" font-family="Helvetica,sans-Serif" font-size="10.00">list</text>
</g>
<!-- Node5&#45;&gt;Node21 -->
<g id="edge42" class="edge"><title>Node5&#45;&gt;Node21</title>
<path fill="none" stroke="midnightblue" d="M713.156,-181.459C654.081,-171.322 484.459,-142.215 420.55,-131.249"/>
<polygon fill="midnightblue" stroke="midnightblue" points="421.01,-127.777 410.562,-129.535 419.826,-134.676 421.01,-127.777"/>
</g>
<!-- Node5&#45;&gt;Node22 -->
<g id="edge44" class="edge"><title>Node5&#45;&gt;Node22</title>
<path fill="none" stroke="midnightblue" d="M754.346,-183.787C809.939,-180.221 967.925,-168.204 1107.66,-137.917"/>
<polygon fill="midnightblue" stroke="midnightblue" points="1108.67,-141.277 1117.69,-135.705 1107.17,-134.442 1108.67,-141.277"/>
</g>
<!-- Node8 -->
<g id="node15" class="node"><title>Node8</title>
<polygon fill="white" stroke="#bfbfbf" points="213.79,-0.5 213.79,-21.5 257.79,-21.5 257.79,-0.5 213.79,-0.5"/>
<text text-anchor="middle" x="235.79" y="-8.5" font-family="Helvetica,sans-Serif" font-size="10.00">vector</text>
</g>
<!-- Node7&#45;&gt;Node8 -->
<g id="edge14" class="edge"><title>Node7&#45;&gt;Node8</title>
<path fill="none" stroke="midnightblue" d="M503.707,-122.646C427.007,-114.521 273.071,-96.3872 254.79,-80 241.39,-67.9871 237.071,-47.4793 235.846,-31.935"/>
<polygon fill="midnightblue" stroke="midnightblue" points="239.333,-31.5304 235.416,-21.6859 232.339,-31.8239 239.333,-31.5304"/>
</g>
<!-- Node9 -->
<g id="node17" class="node"><title>Node9</title>
<polygon fill="white" stroke="#bfbfbf" points="520.79,-58.5 520.79,-79.5 572.79,-79.5 572.79,-58.5 520.79,-58.5"/>
<text text-anchor="middle" x="546.79" y="-66.5" font-family="Helvetica,sans-Serif" font-size="10.00">ostream</text>
</g>
<!-- Node7&#45;&gt;Node9 -->
<g id="edge16" class="edge"><title>Node7&#45;&gt;Node9</title>
<path fill="none" stroke="midnightblue" d="M546.79,-116.362C546.79,-108.922 546.79,-98.7427 546.79,-89.7276"/>
<polygon fill="midnightblue" stroke="midnightblue" points="550.29,-89.5706 546.79,-79.5707 543.29,-89.5707 550.29,-89.5706"/>
</g>
<!-- Node10&#45;&gt;Node11 -->
<g id="edge20" class="edge"><title>Node10&#45;&gt;Node11</title>
<path fill="none" stroke="midnightblue" d="M747.118,-117.289C744.304,-116.834 741.514,-116.401 738.79,-116 612.893,-97.4552 464.85,-82.5075 382.116,-74.7665"/>
<polygon fill="midnightblue" stroke="midnightblue" points="382.392,-71.2772 372.111,-73.8358 381.743,-78.2471 382.392,-71.2772"/>
</g>
<!-- Node15 -->
<g id="node30" class="node"><title>Node15</title>
<polygon fill="white" stroke="#bfbfbf" points="775.79,-58.5 775.79,-79.5 821.79,-79.5 821.79,-58.5 775.79,-58.5"/>
<text text-anchor="middle" x="798.79" y="-66.5" font-family="Helvetica,sans-Serif" font-size="10.00">cstring</text>
</g>
<!-- Node10&#45;&gt;Node15 -->
<g id="edge30" class="edge"><title>Node10&#45;&gt;Node15</title>
<path fill="none" stroke="midnightblue" d="M798.79,-116.362C798.79,-108.922 798.79,-98.7427 798.79,-89.7276"/>
<polygon fill="midnightblue" stroke="midnightblue" points="802.29,-89.5706 798.79,-79.5707 795.29,-89.5707 802.29,-89.5706"/>
</g>
<!-- Node10&#45;&gt;Node16 -->
<g id="edge32" class="edge"><title>Node10&#45;&gt;Node16</title>
<path fill="none" stroke="midnightblue" d="M813.28,-116.362C824.973,-107.777 841.633,-95.5459 855.093,-85.6636"/>
<polygon fill="midnightblue" stroke="midnightblue" points="857.403,-88.31 863.392,-79.5707 853.26,-82.6675 857.403,-88.31"/>
</g>
<!-- Node11&#45;&gt;Node8 -->
<g id="edge28" class="edge"><title>Node11&#45;&gt;Node8</title>
<path fill="none" stroke="midnightblue" d="M302.75,-58.3619C290.498,-49.6955 272.991,-37.3126 258.951,-27.3819"/>
<polygon fill="midnightblue" stroke="midnightblue" points="260.92,-24.4879 250.735,-21.5707 256.878,-30.2028 260.92,-24.4879"/>
</g>
<!-- Node11&#45;&gt;Node12 -->
<g id="edge22" class="edge"><title>Node11&#45;&gt;Node12</title>
<path fill="none" stroke="midnightblue" d="M342.962,-58.4966C366.445,-48.6982 401.515,-34.0646 426.516,-23.6325"/>
<polygon fill="midnightblue" stroke="midnightblue" points="428.008,-26.8024 435.889,-19.7214 425.312,-20.3423 428.008,-26.8024"/>
</g>
<!-- Node11&#45;&gt;Node13 -->
<g id="edge24" class="edge"><title>Node11&#45;&gt;Node13</title>
<path fill="none" stroke="midnightblue" d="M371.833,-63.4912C486.808,-51.7715 753.084,-24.6291 850.363,-14.7131"/>
<polygon fill="midnightblue" stroke="midnightblue" points="850.981,-18.1684 860.574,-13.6723 850.271,-11.2045 850.981,-18.1684"/>
</g>
<!-- Node14 -->
<g id="node27" class="node"><title>Node14</title>
<polygon fill="white" stroke="#bfbfbf" points="289.79,-0.5 289.79,-21.5 345.79,-21.5 345.79,-0.5 289.79,-0.5"/>
<text text-anchor="middle" x="317.79" y="-8.5" font-family="Helvetica,sans-Serif" font-size="10.00">algorithm</text>
</g>
<!-- Node11&#45;&gt;Node14 -->
<g id="edge26" class="edge"><title>Node11&#45;&gt;Node14</title>
<path fill="none" stroke="midnightblue" d="M317.79,-58.3619C317.79,-50.9219 317.79,-40.7427 317.79,-31.7276"/>
<polygon fill="midnightblue" stroke="midnightblue" points="321.29,-31.5706 317.79,-21.5707 314.29,-31.5707 321.29,-31.5706"/>
</g>
<!-- Node23&#45;&gt;Node12 -->
<g id="edge54" class="edge"><title>Node23&#45;&gt;Node12</title>
<path fill="none" stroke="midnightblue" d="M548.742,-175.497C515.787,-166.613 472.331,-152.563 461.79,-138 439.161,-106.737 445.119,-58.9118 451.165,-31.7481"/>
<polygon fill="midnightblue" stroke="midnightblue" points="454.623,-32.3392 453.594,-21.7944 447.823,-30.6793 454.623,-32.3392"/>
</g>
<!-- Node24&#45;&gt;Node6 -->
<g id="edge60" class="edge"><title>Node24&#45;&gt;Node6</title>
<path fill="none" stroke="midnightblue" d="M514.063,-290.932C499.237,-280.743 480.487,-267.243 464.79,-254 422.09,-217.975 376.491,-170.745 352.607,-145.241"/>
<polygon fill="midnightblue" stroke="midnightblue" points="355.023,-142.7 345.647,-137.766 349.9,-147.47 355.023,-142.7"/>
</g>
<!-- Node30&#45;&gt;Node21 -->
<g id="edge80" class="edge"><title>Node30&#45;&gt;Node21</title>
<path fill="none" stroke="midnightblue" d="M658.584,-297.486C611.42,-266.889 474.101,-177.804 419.034,-142.079"/>
<polygon fill="midnightblue" stroke="midnightblue" points="420.63,-138.943 410.336,-136.436 416.82,-144.815 420.63,-138.943"/>
</g>
<!-- Node30&#45;&gt;Node29 -->
<g id="edge78" class="edge"><title>Node30&#45;&gt;Node29</title>
<path fill="none" stroke="midnightblue" d="M646.284,-297.412C616.09,-286.197 568.354,-268.467 535.632,-256.313"/>
<polygon fill="midnightblue" stroke="midnightblue" points="536.588,-252.934 525.995,-252.733 534.151,-259.496 536.588,-252.934"/>
</g>
<!-- Node31&#45;&gt;Node3 -->
<g id="edge84" class="edge"><title>Node31&#45;&gt;Node3</title>
<path fill="none" stroke="midnightblue" d="M420.34,-365.765C500.001,-357.581 630.725,-343.137 742.79,-326 754.707,-324.178 767.409,-321.979 779.541,-319.754"/>
<polygon fill="midnightblue" stroke="midnightblue" points="780.377,-323.159 789.567,-317.887 779.096,-316.277 780.377,-323.159"/>
</g>
<!-- Node31&#45;&gt;Node6 -->
<g id="edge88" class="edge"><title>Node31&#45;&gt;Node6</title>
<path fill="none" stroke="midnightblue" d="M297.188,-362.481C277.373,-355.585 256.513,-344.309 244.79,-326 204.821,-263.574 278.645,-180.703 316.018,-144.818"/>
<polygon fill="midnightblue" stroke="midnightblue" points="318.492,-147.296 323.385,-137.898 313.7,-142.193 318.492,-147.296"/>
</g>
<!-- Node31&#45;&gt;Node24 -->
<g id="edge106" class="edge"><title>Node31&#45;&gt;Node24</title>
<path fill="none" stroke="midnightblue" d="M378.229,-362.412C405.547,-353.212 445.886,-339.626 479.421,-328.332"/>
<polygon fill="midnightblue" stroke="midnightblue" points="480.774,-331.569 489.134,-325.06 478.54,-324.935 480.774,-331.569"/>
</g>
<!-- Node31&#45;&gt;Node27 -->
<g id="edge108" class="edge"><title>Node31&#45;&gt;Node27</title>
<path fill="none" stroke="midnightblue" d="M354.551,-362.267C361.532,-352.612 371.943,-338.215 380.287,-326.675"/>
<polygon fill="midnightblue" stroke="midnightblue" points="383.15,-328.688 386.174,-318.534 377.478,-324.586 383.15,-328.688"/>
</g>
<!-- Node32 -->
<g id="node75" class="node"><title>Node32</title>
<polygon fill="white" stroke="#bfbfbf" points="117.29,-232.5 117.29,-253.5 176.29,-253.5 176.29,-232.5 117.29,-232.5"/>
<text text-anchor="middle" x="146.79" y="-240.5" font-family="Helvetica,sans-Serif" font-size="10.00">functional</text>
</g>
<!-- Node31&#45;&gt;Node32 -->
<g id="edge86" class="edge"><title>Node31&#45;&gt;Node32</title>
<path fill="none" stroke="midnightblue" d="M295.118,-362.412C268.495,-355.204 236.52,-343.682 211.79,-326 188.082,-309.048 168.718,-281.07 157.467,-262.343"/>
<polygon fill="midnightblue" stroke="midnightblue" points="160.385,-260.398 152.343,-253.5 154.329,-263.907 160.385,-260.398"/>
</g>
<!-- Node33 -->
<g id="node78" class="node"><title>Node33</title>
<a xlink:href="root__draw_8h.html" target="_top" xlink:title="analysis/plot/root\l_draw.h">
<polygon fill="white" stroke="black" points="253.29,-291 253.29,-325 344.29,-325 344.29,-291 253.29,-291"/>
<text text-anchor="start" x="261.29" y="-312" font-family="Helvetica,sans-Serif" font-size="10.00">analysis/plot/root</text>
<text text-anchor="middle" x="298.79" y="-299" font-family="Helvetica,sans-Serif" font-size="10.00">_draw.h</text>
</a>
</g>
<!-- Node31&#45;&gt;Node33 -->
<g id="edge90" class="edge"><title>Node31&#45;&gt;Node33</title>
<path fill="none" stroke="midnightblue" d="M338.864,-362.267C333.039,-354.379 324.877,-343.325 317.437,-333.251"/>
<polygon fill="midnightblue" stroke="midnightblue" points="320.181,-331.075 311.425,-325.11 314.55,-335.233 320.181,-331.075"/>
</g>
<!-- Node34 -->
<g id="node89" class="node"><title>Node34</title>
<polygon fill="white" stroke="#bfbfbf" points="27.7902,-297.5 27.7902,-318.5 159.79,-318.5 159.79,-297.5 27.7902,-297.5"/>
<text text-anchor="middle" x="93.7902" y="-305.5" font-family="Helvetica,sans-Serif" font-size="10.00">TRootEmbeddedCanvas.h</text>
</g>
<!-- Node31&#45;&gt;Node34 -->
<g id="edge110" class="edge"><title>Node31&#45;&gt;Node34</title>
<path fill="none" stroke="midnightblue" d="M305.86,-362.484C261.86,-351.18 191.857,-333.195 144.423,-321.008"/>
<polygon fill="midnightblue" stroke="midnightblue" points="145.218,-317.599 134.661,-318.501 143.476,-324.379 145.218,-317.599"/>
</g>
<!-- Node33&#45;&gt;Node6 -->
<g id="edge104" class="edge"><title>Node33&#45;&gt;Node6</title>
<path fill="none" stroke="midnightblue" d="M302.271,-290.972C309.086,-257.635 324.165,-183.869 331.549,-147.747"/>
<polygon fill="midnightblue" stroke="midnightblue" points="335.002,-148.33 333.576,-137.832 328.144,-146.928 335.002,-148.33"/>
</g>
<!-- Node33&#45;&gt;Node8 -->
<g id="edge96" class="edge"><title>Node33&#45;&gt;Node8</title>
<path fill="none" stroke="midnightblue" d="M285.947,-290.893C278.916,-280.691 270.666,-267.191 265.79,-254 236.839,-175.675 234.655,-74.4674 235.205,-31.6175"/>
<polygon fill="midnightblue" stroke="midnightblue" points="238.705,-31.6525 235.401,-21.586 231.706,-31.5158 238.705,-31.6525"/>
</g>
<!-- Node33&#45;&gt;Node12 -->
<g id="edge92" class="edge"><title>Node33&#45;&gt;Node12</title>
<path fill="none" stroke="midnightblue" d="M293.068,-290.867C282.239,-255.04 262.883,-170.98 298.79,-116 320.554,-82.6756 347.398,-101.66 380.79,-80 403.245,-65.4346 425.511,-44.2109 440.08,-29.1544"/>
<polygon fill="midnightblue" stroke="midnightblue" points="442.993,-31.1697 447.335,-21.5056 437.914,-26.3524 442.993,-31.1697"/>
</g>
<!-- Node33&#45;&gt;Node21 -->
<g id="edge94" class="edge"><title>Node33&#45;&gt;Node21</title>
<path fill="none" stroke="midnightblue" d="M307.916,-290.972C325.935,-257.348 365.997,-182.594 385.168,-146.821"/>
<polygon fill="midnightblue" stroke="midnightblue" points="388.347,-148.299 389.985,-137.832 382.177,-144.993 388.347,-148.299"/>
</g>
<!-- Node33&#45;&gt;Node28 -->
<g id="edge98" class="edge"><title>Node33&#45;&gt;Node28</title>
<path fill="none" stroke="midnightblue" d="M325.59,-290.922C340.938,-281.141 360.093,-268.934 375.23,-259.289"/>
<polygon fill="midnightblue" stroke="midnightblue" points="377.513,-261.984 384.065,-253.658 373.751,-256.081 377.513,-261.984"/>
</g>
<!-- Node33&#45;&gt;Node29 -->
<g id="edge100" class="edge"><title>Node33&#45;&gt;Node29</title>
<path fill="none" stroke="midnightblue" d="M344.442,-292.739C347.266,-291.808 350.066,-290.89 352.79,-290 390.777,-277.597 434.395,-263.694 464.19,-254.248"/>
<polygon fill="midnightblue" stroke="midnightblue" points="465.26,-257.58 473.736,-251.224 463.146,-250.907 465.26,-257.58"/>
</g>
<!-- Node33&#45;&gt;Node32 -->
<g id="edge102" class="edge"><title>Node33&#45;&gt;Node32</title>
<path fill="none" stroke="midnightblue" d="M258.854,-290.922C234.687,-280.588 204.187,-267.545 181.11,-257.676"/>
<polygon fill="midnightblue" stroke="midnightblue" points="182.285,-254.372 171.714,-253.658 179.533,-260.808 182.285,-254.372"/>
</g>
<!-- Node41 -->
<g id="node103" class="node"><title>Node41</title>
<polygon fill="white" stroke="#bfbfbf" points="1651.29,-297.5 1651.29,-318.5 1766.29,-318.5 1766.29,-297.5 1651.29,-297.5"/>
<text text-anchor="middle" x="1708.79" y="-305.5" font-family="Helvetica,sans-Serif" font-size="10.00">detail/easylogging++.h</text>
</g>
<!-- Node40&#45;&gt;Node41 -->
<g id="edge124" class="edge"><title>Node40&#45;&gt;Node41</title>
<path fill="none" stroke="midnightblue" d="M1708.79,-362.267C1708.79,-353.18 1708.79,-339.892 1708.79,-328.74"/>
<polygon fill="midnightblue" stroke="midnightblue" points="1712.29,-328.534 1708.79,-318.534 1705.29,-328.534 1712.29,-328.534"/>
</g>
</g>
</svg>
