<?xml version="1.0" encoding="UTF-8" standalone="no"?>
<!DOCTYPE svg PUBLIC "-//W3C//DTD SVG 1.1//EN"
 "http://www.w3.org/Graphics/SVG/1.1/DTD/svg11.dtd">
<!-- Generated by graphviz version 2.26.3 (20100126.1600)
 -->
<!-- Title: src/calibration/Editor.h Pages: 1 -->
<svg width="920pt" height="320pt"
 viewBox="0.00 0.00 920.00 320.00" xmlns="http://www.w3.org/2000/svg" xmlns:xlink="http://www.w3.org/1999/xlink">
<g id="graph1" class="graph" transform="scale(1 1) rotate(0) translate(4 316)">
<title>src/calibration/Editor.h</title>
<polygon fill="white" stroke="white" points="-4,5 -4,-316 917,-316 917,5 -4,5"/>
<!-- Node1 -->
<g id="node1" class="node"><title>Node1</title>
<polygon fill="#bfbfbf" stroke="black" points="798,-290.5 798,-311.5 912,-311.5 912,-290.5 798,-290.5"/>
<text text-anchor="middle" x="855" y="-298.5" font-family="Helvetica,sans-Serif" font-size="10.00">src/calibration/Editor.h</text>
</g>
<!-- Node2 -->
<g id="node3" class="node"><title>Node2</title>
<a xlink:href="_t_calibration_data_8h.html" target="_top" xlink:title="tree/TCalibrationData.h">
<polygon fill="white" stroke="black" points="744,-232.5 744,-253.5 862,-253.5 862,-232.5 744,-232.5"/>
<text text-anchor="middle" x="803" y="-240.5" font-family="Helvetica,sans-Serif" font-size="10.00">tree/TCalibrationData.h</text>
</a>
</g>
<!-- Node1&#45;&gt;Node2 -->
<g id="edge2" class="edge"><title>Node1&#45;&gt;Node2</title>
<path fill="none" stroke="midnightblue" d="M845.462,-290.362C838.132,-282.186 827.837,-270.702 819.219,-261.091"/>
<polygon fill="midnightblue" stroke="midnightblue" points="821.759,-258.68 812.477,-253.571 816.547,-263.353 821.759,-258.68"/>
</g>
<!-- Node10 -->
<g id="node19" class="node"><title>Node10</title>
<polygon fill="white" stroke="#bfbfbf" points="822.5,-0.5 822.5,-21.5 863.5,-21.5 863.5,-0.5 822.5,-0.5"/>
<text text-anchor="middle" x="843" y="-8.5" font-family="Helvetica,sans-Serif" font-size="10.00">string</text>
</g>
<!-- Node1&#45;&gt;Node10 -->
<g id="edge52" class="edge"><title>Node1&#45;&gt;Node10</title>
<path fill="none" stroke="midnightblue" d="M863.752,-290.234C878.805,-270.589 908,-227.069 908,-185 908,-185 908,-185 908,-127 908,-88.3118 880.143,-50.5645 860.903,-29.1065"/>
<polygon fill="midnightblue" stroke="midnightblue" points="863.399,-26.6517 854.026,-21.7121 858.273,-31.4186 863.399,-26.6517"/>
</g>
<!-- Node3 -->
<g id="node5" class="node"><title>Node3</title>
<a xlink:href="_t_i_d_8h.html" target="_top" xlink:title="TID.h">
<polygon fill="white" stroke="black" points="398.5,-174.5 398.5,-195.5 439.5,-195.5 439.5,-174.5 398.5,-174.5"/>
<text text-anchor="middle" x="419" y="-182.5" font-family="Helvetica,sans-Serif" font-size="10.00">TID.h</text>
</a>
</g>
<!-- Node2&#45;&gt;Node3 -->
<g id="edge4" class="edge"><title>Node2&#45;&gt;Node3</title>
<path fill="none" stroke="midnightblue" d="M743.842,-234.065C661.109,-221.569 513.832,-199.324 449.966,-189.677"/>
<polygon fill="midnightblue" stroke="midnightblue" points="450.158,-186.167 439.748,-188.134 449.113,-193.088 450.158,-186.167"/>
</g>
<!-- Node2&#45;&gt;Node10 -->
<g id="edge44" class="edge"><title>Node2&#45;&gt;Node10</title>
<path fill="none" stroke="midnightblue" d="M819.26,-232.423C830.515,-224.058 844.582,-211.267 851,-196 874.383,-140.377 859.179,-66.8743 849.4,-31.6071"/>
<polygon fill="midnightblue" stroke="midnightblue" points="852.633,-30.1905 846.471,-21.5714 845.913,-32.1515 852.633,-30.1905"/>
</g>
<!-- Node14 -->
<g id="node28" class="node"><title>Node14</title>
<polygon fill="white" stroke="#bfbfbf" points="557.5,-58.5 557.5,-79.5 598.5,-79.5 598.5,-58.5 557.5,-58.5"/>
<text text-anchor="middle" x="578" y="-66.5" font-family="Helvetica,sans-Serif" font-size="10.00">ctime</text>
</g>
<!-- Node2&#45;&gt;Node14 -->
<g id="edge46" class="edge"><title>Node2&#45;&gt;Node14</title>
<path fill="none" stroke="midnightblue" d="M789.932,-232.466C779.502,-223.565 765.025,-210.052 755,-196 732.139,-163.956 746.419,-142.153 717,-116 686.515,-88.8991 639.786,-77.3128 609.06,-72.4355"/>
<polygon fill="midnightblue" stroke="midnightblue" points="609.308,-68.9352 598.912,-70.9757 608.311,-75.8639 609.308,-68.9352"/>
</g>
<!-- Node21 -->
<g id="node45" class="node"><title>Node21</title>
<a xlink:href="_git_info_8h.html" target="_top" xlink:title="base/GitInfo.h">
<polygon fill="white" stroke="black" points="764,-174.5 764,-195.5 842,-195.5 842,-174.5 764,-174.5"/>
<text text-anchor="middle" x="803" y="-182.5" font-family="Helvetica,sans-Serif" font-size="10.00">base/GitInfo.h</text>
</a>
</g>
<!-- Node2&#45;&gt;Node21 -->
<g id="edge48" class="edge"><title>Node2&#45;&gt;Node21</title>
<path fill="none" stroke="midnightblue" d="M803,-232.362C803,-224.922 803,-214.743 803,-205.728"/>
<polygon fill="midnightblue" stroke="midnightblue" points="806.5,-205.571 803,-195.571 799.5,-205.571 806.5,-205.571"/>
</g>
<!-- Node4 -->
<g id="node7" class="node"><title>Node4</title>
<polygon fill="white" stroke="#bfbfbf" points="294,-116.5 294,-137.5 350,-137.5 350,-116.5 294,-116.5"/>
<text text-anchor="middle" x="322" y="-124.5" font-family="Helvetica,sans-Serif" font-size="10.00">Rtypes.h</text>
</g>
<!-- Node3&#45;&gt;Node4 -->
<g id="edge6" class="edge"><title>Node3&#45;&gt;Node4</title>
<path fill="none" stroke="midnightblue" d="M401.209,-174.362C386.441,-165.532 365.222,-152.844 348.462,-142.822"/>
<polygon fill="midnightblue" stroke="midnightblue" points="350.057,-139.699 339.679,-137.571 346.465,-145.707 350.057,-139.699"/>
</g>
<!-- Node5 -->
<g id="node9" class="node"><title>Node5</title>
<a xlink:href="printable_8h.html" target="_top" xlink:title="base/printable.h">
<polygon fill="white" stroke="black" points="0,-116.5 0,-137.5 86,-137.5 86,-116.5 0,-116.5"/>
<text text-anchor="middle" x="43" y="-124.5" font-family="Helvetica,sans-Serif" font-size="10.00">base/printable.h</text>
</a>
</g>
<!-- Node3&#45;&gt;Node5 -->
<g id="edge8" class="edge"><title>Node3&#45;&gt;Node5</title>
<path fill="none" stroke="midnightblue" d="M398.456,-182.487C348.522,-176.28 216.635,-159.295 96.2151,-138.133"/>
<polygon fill="midnightblue" stroke="midnightblue" points="96.5458,-134.637 86.0885,-136.338 95.3243,-141.529 96.5458,-134.637"/>
</g>
<!-- Node8 -->
<g id="node15" class="node"><title>Node8</title>
<a xlink:href="time_8h.html" target="_top" xlink:title="base/std_ext/time.h">
<polygon fill="white" stroke="black" points="367.5,-116.5 367.5,-137.5 470.5,-137.5 470.5,-116.5 367.5,-116.5"/>
<text text-anchor="middle" x="419" y="-124.5" font-family="Helvetica,sans-Serif" font-size="10.00">base/std_ext/time.h</text>
</a>
</g>
<!-- Node3&#45;&gt;Node8 -->
<g id="edge14" class="edge"><title>Node3&#45;&gt;Node8</title>
<path fill="none" stroke="midnightblue" d="M419,-174.362C419,-166.922 419,-156.743 419,-147.728"/>
<polygon fill="midnightblue" stroke="midnightblue" points="422.5,-147.571 419,-137.571 415.5,-147.571 422.5,-147.571"/>
</g>
<!-- Node3&#45;&gt;Node14 -->
<g id="edge42" class="edge"><title>Node3&#45;&gt;Node14</title>
<path fill="none" stroke="midnightblue" d="M439.603,-180.581C474.336,-172.738 542.391,-155.552 559,-138 571.301,-125.001 575.775,-104.786 577.335,-89.5901"/>
<polygon fill="midnightblue" stroke="midnightblue" points="580.828,-89.8051 578.026,-79.5875 573.845,-89.3223 580.828,-89.8051"/>
</g>
<!-- Node15 -->
<g id="node30" class="node"><title>Node15</title>
<polygon fill="white" stroke="#bfbfbf" points="488,-116.5 488,-137.5 550,-137.5 550,-116.5 488,-116.5"/>
<text text-anchor="middle" x="519" y="-124.5" font-family="Helvetica,sans-Serif" font-size="10.00">type_traits</text>
</g>
<!-- Node3&#45;&gt;Node15 -->
<g id="edge30" class="edge"><title>Node3&#45;&gt;Node15</title>
<path fill="none" stroke="midnightblue" d="M437.342,-174.362C452.566,-165.532 474.441,-152.844 491.72,-142.822"/>
<polygon fill="midnightblue" stroke="midnightblue" points="493.88,-145.615 500.775,-137.571 490.368,-139.56 493.88,-145.615"/>
</g>
<!-- Node16 -->
<g id="node32" class="node"><title>Node16</title>
<polygon fill="white" stroke="#bfbfbf" points="606,-116.5 606,-137.5 644,-137.5 644,-116.5 606,-116.5"/>
<text text-anchor="middle" x="625" y="-124.5" font-family="Helvetica,sans-Serif" font-size="10.00">tuple</text>
</g>
<!-- Node3&#45;&gt;Node16 -->
<g id="edge32" class="edge"><title>Node3&#45;&gt;Node16</title>
<path fill="none" stroke="midnightblue" d="M439.613,-179.802C472.148,-171.507 537.331,-154.523 592,-138 593.409,-137.574 594.849,-137.13 596.301,-136.674"/>
<polygon fill="midnightblue" stroke="midnightblue" points="597.425,-139.989 605.864,-133.582 595.272,-133.328 597.425,-139.989"/>
</g>
<!-- Node17 -->
<g id="node34" class="node"><title>Node17</title>
<polygon fill="white" stroke="#bfbfbf" points="662,-116.5 662,-137.5 708,-137.5 708,-116.5 662,-116.5"/>
<text text-anchor="middle" x="685" y="-124.5" font-family="Helvetica,sans-Serif" font-size="10.00">cstdint</text>
</g>
<!-- Node3&#45;&gt;Node17 -->
<g id="edge34" class="edge"><title>Node3&#45;&gt;Node17</title>
<path fill="none" stroke="midnightblue" d="M439.558,-181.816C479.029,-175.503 568.261,-160.269 652.034,-138.016"/>
<polygon fill="midnightblue" stroke="midnightblue" points="652.948,-141.395 661.693,-135.413 651.126,-134.636 652.948,-141.395"/>
</g>
<!-- Node18 -->
<g id="node36" class="node"><title>Node18</title>
<polygon fill="white" stroke="#bfbfbf" points="103.5,-116.5 103.5,-137.5 162.5,-137.5 162.5,-116.5 103.5,-116.5"/>
<text text-anchor="middle" x="133" y="-124.5" font-family="Helvetica,sans-Serif" font-size="10.00">stdexcept</text>
</g>
<!-- Node3&#45;&gt;Node18 -->
<g id="edge36" class="edge"><title>Node3&#45;&gt;Node18</title>
<path fill="none" stroke="midnightblue" d="M398.284,-181.754C357.077,-175.154 261.762,-159.172 172.777,-138.284"/>
<polygon fill="midnightblue" stroke="midnightblue" points="173.338,-134.82 162.8,-135.915 171.721,-141.631 173.338,-134.82"/>
</g>
<!-- Node19 -->
<g id="node38" class="node"><title>Node19</title>
<polygon fill="white" stroke="#bfbfbf" points="179.5,-116.5 179.5,-137.5 208.5,-137.5 208.5,-116.5 179.5,-116.5"/>
<text text-anchor="middle" x="194" y="-124.5" font-family="Helvetica,sans-Serif" font-size="10.00">list</text>
</g>
<!-- Node3&#45;&gt;Node19 -->
<g id="edge38" class="edge"><title>Node3&#45;&gt;Node19</title>
<path fill="none" stroke="midnightblue" d="M398.224,-181.705C362.802,-175.766 288.465,-161.906 218.704,-138.121"/>
<polygon fill="midnightblue" stroke="midnightblue" points="219.49,-134.689 208.895,-134.699 217.184,-141.298 219.49,-134.689"/>
</g>
<!-- Node20 -->
<g id="node40" class="node"><title>Node20</title>
<polygon fill="white" stroke="#bfbfbf" points="226,-116.5 226,-137.5 276,-137.5 276,-116.5 226,-116.5"/>
<text text-anchor="middle" x="251" y="-124.5" font-family="Helvetica,sans-Serif" font-size="10.00">iomanip</text>
</g>
<!-- Node3&#45;&gt;Node20 -->
<g id="edge40" class="edge"><title>Node3&#45;&gt;Node20</title>
<path fill="none" stroke="midnightblue" d="M398.4,-177.888C370.329,-168.197 319.675,-150.709 285.69,-138.976"/>
<polygon fill="midnightblue" stroke="midnightblue" points="286.746,-135.638 276.151,-135.683 284.462,-142.255 286.746,-135.638"/>
</g>
<!-- Node6 -->
<g id="node11" class="node"><title>Node6</title>
<polygon fill="white" stroke="#bfbfbf" points="128,-0.5 128,-21.5 172,-21.5 172,-0.5 128,-0.5"/>
<text text-anchor="middle" x="150" y="-8.5" font-family="Helvetica,sans-Serif" font-size="10.00">vector</text>
</g>
<!-- Node5&#45;&gt;Node6 -->
<g id="edge10" class="edge"><title>Node5&#45;&gt;Node6</title>
<path fill="none" stroke="midnightblue" d="M43.3702,-116.497C44.3979,-101.885 48.1885,-75.2738 62,-58 76.3688,-40.0293 99.5216,-28.0532 118.473,-20.6894"/>
<polygon fill="midnightblue" stroke="midnightblue" points="119.728,-23.9572 127.931,-17.2518 117.337,-17.3782 119.728,-23.9572"/>
</g>
<!-- Node7 -->
<g id="node13" class="node"><title>Node7</title>
<polygon fill="white" stroke="#bfbfbf" points="71,-58.5 71,-79.5 123,-79.5 123,-58.5 71,-58.5"/>
<text text-anchor="middle" x="97" y="-66.5" font-family="Helvetica,sans-Serif" font-size="10.00">ostream</text>
</g>
<!-- Node5&#45;&gt;Node7 -->
<g id="edge12" class="edge"><title>Node5&#45;&gt;Node7</title>
<path fill="none" stroke="midnightblue" d="M52.9044,-116.362C60.5164,-108.186 71.208,-96.7025 80.157,-87.0907"/>
<polygon fill="midnightblue" stroke="midnightblue" points="82.9058,-89.2746 87.1584,-79.5707 77.7825,-84.5046 82.9058,-89.2746"/>
</g>
<!-- Node9 -->
<g id="node17" class="node"><title>Node9</title>
<a xlink:href="string_8h.html" target="_top" xlink:title="base/std_ext/string.h">
<polygon fill="white" stroke="black" points="318,-58.5 318,-79.5 426,-79.5 426,-58.5 318,-58.5"/>
<text text-anchor="middle" x="372" y="-66.5" font-family="Helvetica,sans-Serif" font-size="10.00">base/std_ext/string.h</text>
</a>
</g>
<!-- Node8&#45;&gt;Node9 -->
<g id="edge16" class="edge"><title>Node8&#45;&gt;Node9</title>
<path fill="none" stroke="midnightblue" d="M410.379,-116.362C403.82,-108.268 394.634,-96.9318 386.894,-87.3796"/>
<polygon fill="midnightblue" stroke="midnightblue" points="389.581,-85.1364 380.566,-79.5707 384.142,-89.5436 389.581,-85.1364"/>
</g>
<!-- Node13 -->
<g id="node26" class="node"><title>Node13</title>
<polygon fill="white" stroke="#bfbfbf" points="444,-58.5 444,-79.5 490,-79.5 490,-58.5 444,-58.5"/>
<text text-anchor="middle" x="467" y="-66.5" font-family="Helvetica,sans-Serif" font-size="10.00">cstring</text>
</g>
<!-- Node8&#45;&gt;Node13 -->
<g id="edge26" class="edge"><title>Node8&#45;&gt;Node13</title>
<path fill="none" stroke="midnightblue" d="M427.804,-116.362C434.502,-108.268 443.884,-96.9318 451.789,-87.3796"/>
<polygon fill="midnightblue" stroke="midnightblue" points="454.573,-89.5061 458.252,-79.5707 449.18,-85.0431 454.573,-89.5061"/>
</g>
<!-- Node8&#45;&gt;Node14 -->
<g id="edge28" class="edge"><title>Node8&#45;&gt;Node14</title>
<path fill="none" stroke="midnightblue" d="M447.794,-116.497C475.972,-106.218 518.737,-90.6178 547.49,-80.1293"/>
<polygon fill="midnightblue" stroke="midnightblue" points="548.835,-83.3646 557.03,-76.6496 546.436,-76.7885 548.835,-83.3646"/>
</g>
<!-- Node9&#45;&gt;Node6 -->
<g id="edge24" class="edge"><title>Node9&#45;&gt;Node6</title>
<path fill="none" stroke="midnightblue" d="M331.797,-58.4966C288.785,-47.2591 221.431,-29.662 181.91,-19.3368"/>
<polygon fill="midnightblue" stroke="midnightblue" points="182.579,-15.8942 172.019,-16.7527 180.809,-22.6668 182.579,-15.8942"/>
</g>
<!-- Node9&#45;&gt;Node10 -->
<g id="edge18" class="edge"><title>Node9&#45;&gt;Node10</title>
<path fill="none" stroke="midnightblue" d="M426.264,-59.319C429.217,-58.8567 432.143,-58.4136 435,-58 575.329,-37.684 743.838,-20.5702 812.069,-13.9428"/>
<polygon fill="midnightblue" stroke="midnightblue" points="812.522,-17.4154 822.139,-12.9703 811.849,-10.4478 812.522,-17.4154"/>
</g>
<!-- Node11 -->
<g id="node21" class="node"><title>Node11</title>
<polygon fill="white" stroke="#bfbfbf" points="382,-0.5 382,-21.5 434,-21.5 434,-0.5 382,-0.5"/>
<text text-anchor="middle" x="408" y="-8.5" font-family="Helvetica,sans-Serif" font-size="10.00">sstream</text>
</g>
<!-- Node9&#45;&gt;Node11 -->
<g id="edge20" class="edge"><title>Node9&#45;&gt;Node11</title>
<path fill="none" stroke="midnightblue" d="M378.603,-58.3619C383.475,-50.5131 390.238,-39.6159 396.05,-30.2527"/>
<polygon fill="midnightblue" stroke="midnightblue" points="399.139,-31.9129 401.439,-21.5707 393.191,-28.2213 399.139,-31.9129"/>
</g>
<!-- Node12 -->
<g id="node23" class="node"><title>Node12</title>
<polygon fill="white" stroke="#bfbfbf" points="308,-0.5 308,-21.5 364,-21.5 364,-0.5 308,-0.5"/>
<text text-anchor="middle" x="336" y="-8.5" font-family="Helvetica,sans-Serif" font-size="10.00">algorithm</text>
</g>
<!-- Node9&#45;&gt;Node12 -->
<g id="edge22" class="edge"><title>Node9&#45;&gt;Node12</title>
<path fill="none" stroke="midnightblue" d="M365.397,-58.3619C360.525,-50.5131 353.762,-39.6159 347.95,-30.2527"/>
<polygon fill="midnightblue" stroke="midnightblue" points="350.809,-28.2213 342.561,-21.5707 344.861,-31.9129 350.809,-28.2213"/>
</g>
<!-- Node21&#45;&gt;Node10 -->
<g id="edge50" class="edge"><title>Node21&#45;&gt;Node10</title>
<path fill="none" stroke="midnightblue" d="M805.442,-174.377C811.926,-146.172 829.664,-69.0121 838.237,-31.7203"/>
<polygon fill="midnightblue" stroke="midnightblue" points="841.658,-32.4577 840.488,-21.9277 834.836,-30.8893 841.658,-32.4577"/>
</g>
</g>
</svg>
