<?xml version="1.0" encoding="UTF-8" standalone="no"?>
<!DOCTYPE svg PUBLIC "-//W3C//DTD SVG 1.1//EN"
 "http://www.w3.org/Graphics/SVG/1.1/DTD/svg11.dtd">
<!-- Generated by graphviz version 2.26.3 (20100126.1600)
 -->
<!-- Title: src/analysis/physics/common/EventFilter.cc Pages: 1 -->
<svg width="3234pt" height="638pt"
 viewBox="0.00 0.00 3234.05 638.00" xmlns="http://www.w3.org/2000/svg" xmlns:xlink="http://www.w3.org/1999/xlink">
<g id="graph1" class="graph" transform="scale(1 1) rotate(0) translate(4 634)">
<title>src/analysis/physics/common/EventFilter.cc</title>
<polygon fill="white" stroke="white" points="-4,5 -4,-634 3231.05,-634 3231.05,5 -4,5"/>
<!-- Node1 -->
<g id="node1" class="node"><title>Node1</title>
<polygon fill="#bfbfbf" stroke="black" points="2014.55,-595 2014.55,-629 2135.55,-629 2135.55,-595 2014.55,-595"/>
<text text-anchor="start" x="2022.55" y="-616" font-family="Helvetica,sans-Serif" font-size="10.00">src/analysis/physics</text>
<text text-anchor="middle" x="2075.05" y="-603" font-family="Helvetica,sans-Serif" font-size="10.00">/common/EventFilter.cc</text>
</g>
<!-- Node2 -->
<g id="node3" class="node"><title>Node2</title>
<a xlink:href="_event_filter_8h.html" target="_top" xlink:title="EventFilter.h">
<polygon fill="white" stroke="black" points="2039.05,-536.5 2039.05,-557.5 2111.05,-557.5 2111.05,-536.5 2039.05,-536.5"/>
<text text-anchor="middle" x="2075.05" y="-544.5" font-family="Helvetica,sans-Serif" font-size="10.00">EventFilter.h</text>
</a>
</g>
<!-- Node1&#45;&gt;Node2 -->
<g id="edge2" class="edge"><title>Node1&#45;&gt;Node2</title>
<path fill="none" stroke="midnightblue" d="M2075.05,-594.922C2075.05,-586.67 2075.05,-576.692 2075.05,-567.982"/>
<polygon fill="midnightblue" stroke="midnightblue" points="2078.56,-567.852 2075.05,-557.852 2071.56,-567.852 2078.56,-567.852"/>
</g>
<!-- Node24 -->
<g id="node53" class="node"><title>Node24</title>
<a xlink:href="string_8h.html" target="_top" xlink:title="base/std_ext/string.h">
<polygon fill="white" stroke="black" points="946.055,-181.5 946.055,-202.5 1054.05,-202.5 1054.05,-181.5 946.055,-181.5"/>
<text text-anchor="middle" x="1000.05" y="-189.5" font-family="Helvetica,sans-Serif" font-size="10.00">base/std_ext/string.h</text>
</a>
</g>
<!-- Node1&#45;&gt;Node24 -->
<g id="edge344" class="edge"><title>Node1&#45;&gt;Node24</title>
<path fill="none" stroke="midnightblue" d="M2014.5,-609.835C1816.98,-601.977 1204.05,-570.989 1204.05,-489 1204.05,-489 1204.05,-489 1204.05,-431 1204.05,-324.031 1084.37,-240.711 1028.35,-207.569"/>
<polygon fill="midnightblue" stroke="midnightblue" points="1030.02,-204.493 1019.62,-202.505 1026.51,-210.549 1030.02,-204.493"/>
</g>
<!-- Node64 -->
<g id="node226" class="node"><title>Node64</title>
<polygon fill="white" stroke="#bfbfbf" points="3175.55,-420.5 3175.55,-441.5 3226.55,-441.5 3226.55,-420.5 3175.55,-420.5"/>
<text text-anchor="middle" x="3201.05" y="-428.5" font-family="Helvetica,sans-Serif" font-size="10.00">TH1D.h</text>
</g>
<!-- Node1&#45;&gt;Node64 -->
<g id="edge342" class="edge"><title>Node1&#45;&gt;Node64</title>
<path fill="none" stroke="midnightblue" d="M2135.86,-603.23C2226.82,-588.84 2402.62,-556.067 2543.05,-500 2561.18,-492.764 2562.37,-483.643 2581.05,-478 2828.72,-403.192 2907,-485.361 3162.05,-442 3163.13,-441.817 3164.22,-441.616 3165.31,-441.4"/>
<polygon fill="midnightblue" stroke="midnightblue" points="3166.26,-444.774 3175.22,-439.117 3164.69,-437.953 3166.26,-444.774"/>
</g>
<!-- Node67 -->
<g id="node240" class="node"><title>Node67</title>
<a xlink:href="_logger_8h.html" target="_top" xlink:title="base/Logger.h">
<polygon fill="white" stroke="black" points="2599.05,-536.5 2599.05,-557.5 2677.05,-557.5 2677.05,-536.5 2599.05,-536.5"/>
<text text-anchor="middle" x="2638.05" y="-544.5" font-family="Helvetica,sans-Serif" font-size="10.00">base/Logger.h</text>
</a>
</g>
<!-- Node1&#45;&gt;Node67 -->
<g id="edge346" class="edge"><title>Node1&#45;&gt;Node67</title>
<path fill="none" stroke="midnightblue" d="M2135.76,-606.804C2230.17,-598.42 2417.78,-580.544 2576.05,-558 2580.19,-557.41 2584.48,-556.751 2588.78,-556.057"/>
<polygon fill="midnightblue" stroke="midnightblue" points="2589.48,-559.489 2598.76,-554.388 2588.32,-552.585 2589.48,-559.489"/>
</g>
<!-- Node69 -->
<g id="node244" class="node"><title>Node69</title>
<a xlink:href="_proton_permutation_8h.html" target="_top" xlink:title="utils/ProtonPermutation.h">
<polygon fill="white" stroke="black" points="1523.55,-420.5 1523.55,-441.5 1650.55,-441.5 1650.55,-420.5 1523.55,-420.5"/>
<text text-anchor="middle" x="1587.05" y="-428.5" font-family="Helvetica,sans-Serif" font-size="10.00">utils/ProtonPermutation.h</text>
</a>
</g>
<!-- Node1&#45;&gt;Node69 -->
<g id="edge350" class="edge"><title>Node1&#45;&gt;Node69</title>
<path fill="none" stroke="midnightblue" d="M2014.29,-604.408C1931.06,-592.074 1778.87,-562.48 1664.05,-500 1639.89,-486.849 1617.06,-464.709 1602.62,-449.06"/>
<polygon fill="midnightblue" stroke="midnightblue" points="1605.17,-446.652 1595.88,-441.55 1599.96,-451.329 1605.17,-446.652"/>
</g>
<!-- Node3 -->
<g id="node5" class="node"><title>Node3</title>
<a xlink:href="_physics_8h.html" target="_top" xlink:title="analysis/physics/Physics.h">
<polygon fill="white" stroke="black" points="2398.05,-478.5 2398.05,-499.5 2534.05,-499.5 2534.05,-478.5 2398.05,-478.5"/>
<text text-anchor="middle" x="2466.05" y="-486.5" font-family="Helvetica,sans-Serif" font-size="10.00">analysis/physics/Physics.h</text>
</a>
</g>
<!-- Node2&#45;&gt;Node3 -->
<g id="edge4" class="edge"><title>Node2&#45;&gt;Node3</title>
<path fill="none" stroke="midnightblue" d="M2111.14,-541.647C2173.72,-532.364 2303.75,-513.076 2387.84,-500.602"/>
<polygon fill="midnightblue" stroke="midnightblue" points="2388.49,-504.045 2397.86,-499.115 2387.46,-497.121 2388.49,-504.045"/>
</g>
<!-- Node6 -->
<g id="node11" class="node"><title>Node6</title>
<a xlink:href="interval_8h.html" target="_top" xlink:title="base/interval.h">
<polygon fill="white" stroke="black" points="1476.05,-181.5 1476.05,-202.5 1556.05,-202.5 1556.05,-181.5 1476.05,-181.5"/>
<text text-anchor="middle" x="1516.05" y="-189.5" font-family="Helvetica,sans-Serif" font-size="10.00">base/interval.h</text>
</a>
</g>
<!-- Node2&#45;&gt;Node6 -->
<g id="edge340" class="edge"><title>Node2&#45;&gt;Node6</title>
<path fill="none" stroke="midnightblue" d="M2038.77,-544.202C1940.77,-535.654 1678.05,-505.768 1678.05,-431 1678.05,-431 1678.05,-431 1678.05,-315 1678.05,-282.211 1592.81,-232.267 1545.99,-207.312"/>
<polygon fill="midnightblue" stroke="midnightblue" points="1547.38,-204.089 1536.9,-202.524 1544.12,-210.282 1547.38,-204.089"/>
</g>
<!-- Node4 -->
<g id="node7" class="node"><title>Node4</title>
<a xlink:href="manager__t_8h.html" target="_top" xlink:title="analysis/physics/manager_t.h">
<polygon fill="white" stroke="black" points="2178.05,-420.5 2178.05,-441.5 2324.05,-441.5 2324.05,-420.5 2178.05,-420.5"/>
<text text-anchor="middle" x="2251.05" y="-428.5" font-family="Helvetica,sans-Serif" font-size="10.00">analysis/physics/manager_t.h</text>
</a>
</g>
<!-- Node3&#45;&gt;Node4 -->
<g id="edge6" class="edge"><title>Node3&#45;&gt;Node4</title>
<path fill="none" stroke="midnightblue" d="M2427.12,-478.497C2391.46,-468.877 2338.53,-454.598 2300.02,-444.209"/>
<polygon fill="midnightblue" stroke="midnightblue" points="2300.63,-440.748 2290.06,-441.523 2298.81,-447.507 2300.63,-440.748"/>
</g>
<!-- Node5 -->
<g id="node9" class="node"><title>Node5</title>
<a xlink:href="_histogram_factories_8h.html" target="_top" xlink:title="analysis/plot/HistogramFactories.h">
<polygon fill="white" stroke="black" points="1782.05,-246.5 1782.05,-267.5 1950.05,-267.5 1950.05,-246.5 1782.05,-246.5"/>
<text text-anchor="middle" x="1866.05" y="-254.5" font-family="Helvetica,sans-Serif" font-size="10.00">analysis/plot/HistogramFactories.h</text>
</a>
</g>
<!-- Node3&#45;&gt;Node5 -->
<g id="edge8" class="edge"><title>Node3&#45;&gt;Node5</title>
<path fill="none" stroke="midnightblue" d="M2454.31,-478.453C2414.03,-442.496 2281.07,-325.733 2229.05,-304 2204.75,-293.845 2059.65,-277.128 1960.43,-266.61"/>
<polygon fill="midnightblue" stroke="midnightblue" points="1960.69,-263.118 1950.38,-265.548 1959.95,-270.079 1960.69,-263.118"/>
</g>
<!-- Node15 -->
<g id="node29" class="node"><title>Node15</title>
<polygon fill="white" stroke="#bfbfbf" points="1971.55,-116.5 1971.55,-137.5 2012.55,-137.5 2012.55,-116.5 1971.55,-116.5"/>
<text text-anchor="middle" x="1992.05" y="-124.5" font-family="Helvetica,sans-Serif" font-size="10.00">string</text>
</g>
<!-- Node3&#45;&gt;Node15 -->
<g id="edge332" class="edge"><title>Node3&#45;&gt;Node15</title>
<path fill="none" stroke="midnightblue" d="M2458.8,-478.162C2449.14,-464.083 2431.16,-439.055 2413.05,-420 2385.7,-391.202 2376.55,-386.205 2345.05,-362 2255.53,-293.202 2226.85,-279.573 2119.05,-246 2047.81,-223.81 2001.82,-268.15 1955.05,-210 1939.28,-190.384 1957.54,-162.976 1973.54,-145.11"/>
<polygon fill="midnightblue" stroke="midnightblue" points="1976.28,-147.308 1980.6,-137.635 1971.19,-142.501 1976.28,-147.308"/>
</g>
<!-- Node16 -->
<g id="node31" class="node"><title>Node16</title>
<a xlink:href="memory_8h.html" target="_top" xlink:title="base/std_ext/memory.h">
<polygon fill="white" stroke="black" points="2455.55,-181.5 2455.55,-202.5 2574.55,-202.5 2574.55,-181.5 2455.55,-181.5"/>
<text text-anchor="middle" x="2515.05" y="-189.5" font-family="Helvetica,sans-Serif" font-size="10.00">base/std_ext/memory.h</text>
</a>
</g>
<!-- Node3&#45;&gt;Node16 -->
<g id="edge30" class="edge"><title>Node3&#45;&gt;Node16</title>
<path fill="none" stroke="midnightblue" d="M2472.96,-478.297C2485.12,-458.404 2509.05,-414.023 2509.05,-373 2509.05,-373 2509.05,-373 2509.05,-315 2509.05,-279.01 2511.65,-237.166 2513.43,-212.73"/>
<polygon fill="midnightblue" stroke="midnightblue" points="2516.93,-212.756 2514.2,-202.522 2509.95,-212.23 2516.93,-212.756"/>
</g>
<!-- Node17 -->
<g id="node33" class="node"><title>Node17</title>
<polygon fill="white" stroke="#bfbfbf" points="2383.05,-116.5 2383.05,-137.5 2435.05,-137.5 2435.05,-116.5 2383.05,-116.5"/>
<text text-anchor="middle" x="2409.05" y="-124.5" font-family="Helvetica,sans-Serif" font-size="10.00">memory</text>
</g>
<!-- Node3&#45;&gt;Node17 -->
<g id="edge336" class="edge"><title>Node3&#45;&gt;Node17</title>
<path fill="none" stroke="midnightblue" d="M2496.92,-478.37C2537.04,-462.354 2602.05,-427.929 2602.05,-373 2602.05,-373 2602.05,-373 2602.05,-257 2602.05,-219.157 2609.29,-201.273 2583.05,-174 2564.19,-154.386 2490.62,-139.727 2445.41,-132.345"/>
<polygon fill="midnightblue" stroke="midnightblue" points="2445.82,-128.867 2435.39,-130.753 2444.72,-135.78 2445.82,-128.867"/>
</g>
<!-- Node18 -->
<g id="node35" class="node"><title>Node18</title>
<polygon fill="white" stroke="#bfbfbf" points="2105.55,-116.5 2105.55,-137.5 2134.55,-137.5 2134.55,-116.5 2105.55,-116.5"/>
<text text-anchor="middle" x="2120.05" y="-124.5" font-family="Helvetica,sans-Serif" font-size="10.00">list</text>
</g>
<!-- Node3&#45;&gt;Node18 -->
<g id="edge330" class="edge"><title>Node3&#45;&gt;Node18</title>
<path fill="none" stroke="midnightblue" d="M2468.23,-478.284C2473.87,-447.251 2485.64,-356.209 2442.05,-304 2397.96,-251.185 2195.85,-258.504 2147.05,-210 2130.42,-193.468 2124.03,-166.592 2121.58,-147.92"/>
<polygon fill="midnightblue" stroke="midnightblue" points="2125.04,-147.351 2120.52,-137.767 2118.08,-148.075 2125.04,-147.351"/>
</g>
<!-- Node19 -->
<g id="node37" class="node"><title>Node19</title>
<a xlink:href="_t_event_8h.html" target="_top" xlink:title="tree/TEvent.h">
<polygon fill="white" stroke="black" points="2822.05,-181.5 2822.05,-202.5 2898.05,-202.5 2898.05,-181.5 2822.05,-181.5"/>
<text text-anchor="middle" x="2860.05" y="-189.5" font-family="Helvetica,sans-Serif" font-size="10.00">tree/TEvent.h</text>
</a>
</g>
<!-- Node3&#45;&gt;Node19 -->
<g id="edge36" class="edge"><title>Node3&#45;&gt;Node19</title>
<path fill="none" stroke="midnightblue" d="M2523.81,-478.489C2654.38,-454.333 2961.05,-395.232 2961.05,-373 2961.05,-373 2961.05,-373 2961.05,-315 2961.05,-267.972 2916.41,-229.109 2886.49,-208.341"/>
<polygon fill="midnightblue" stroke="midnightblue" points="2888.37,-205.388 2878.11,-202.729 2884.47,-211.203 2888.37,-205.388"/>
</g>
<!-- Node21 -->
<g id="node44" class="node"><title>Node21</title>
<a xlink:href="_t_event_data_8h.html" target="_top" xlink:title="tree/TEventData.h">
<polygon fill="white" stroke="black" points="1330.55,-420.5 1330.55,-441.5 1427.55,-441.5 1427.55,-420.5 1330.55,-420.5"/>
<text text-anchor="middle" x="1379.05" y="-428.5" font-family="Helvetica,sans-Serif" font-size="10.00">tree/TEventData.h</text>
</a>
</g>
<!-- Node3&#45;&gt;Node21 -->
<g id="edge46" class="edge"><title>Node3&#45;&gt;Node21</title>
<path fill="none" stroke="midnightblue" d="M2397.98,-486.368C2241.81,-480.171 1845.79,-463.543 1515.05,-442 1489.72,-440.35 1461.76,-438.153 1437.81,-436.157"/>
<polygon fill="midnightblue" stroke="midnightblue" points="1438.07,-432.666 1427.81,-435.316 1437.48,-439.642 1438.07,-432.666"/>
</g>
<!-- Node52 -->
<g id="node160" class="node"><title>Node52</title>
<polygon fill="white" stroke="#bfbfbf" points="2958.55,-116.5 2958.55,-137.5 3017.55,-137.5 3017.55,-116.5 2958.55,-116.5"/>
<text text-anchor="middle" x="2988.05" y="-124.5" font-family="Helvetica,sans-Serif" font-size="10.00">functional</text>
</g>
<!-- Node3&#45;&gt;Node52 -->
<g id="edge338" class="edge"><title>Node3&#45;&gt;Node52</title>
<path fill="none" stroke="midnightblue" d="M2534.44,-478.642C2535.99,-478.424 2537.53,-478.21 2539.05,-478 2658.65,-461.543 3072.05,-493.721 3072.05,-373 3072.05,-373 3072.05,-373 3072.05,-257 3072.05,-219.157 3073.95,-205.552 3053.05,-174 3044.52,-161.106 3031.16,-150.555 3018.76,-142.74"/>
<polygon fill="midnightblue" stroke="midnightblue" points="3020.38,-139.629 3009.99,-137.539 3016.81,-145.65 3020.38,-139.629"/>
</g>
<!-- Node56 -->
<g id="node189" class="node"><title>Node56</title>
<polygon fill="white" stroke="#bfbfbf" points="3082.55,-116.5 3082.55,-137.5 3117.55,-137.5 3117.55,-116.5 3082.55,-116.5"/>
<text text-anchor="middle" x="3100.05" y="-124.5" font-family="Helvetica,sans-Serif" font-size="10.00">map</text>
</g>
<!-- Node3&#45;&gt;Node56 -->
<g id="edge334" class="edge"><title>Node3&#45;&gt;Node56</title>
<path fill="none" stroke="midnightblue" d="M2534.42,-478.535C2535.98,-478.349 2537.53,-478.17 2539.05,-478 2758.72,-453.515 2824.59,-509.493 3035.05,-442 3091.09,-424.031 3148.05,-431.845 3148.05,-373 3148.05,-373 3148.05,-373 3148.05,-257 3148.05,-215.583 3126.35,-171.083 3112.13,-146.375"/>
<polygon fill="midnightblue" stroke="midnightblue" points="3115.05,-144.44 3106.93,-137.635 3109.04,-148.019 3115.05,-144.44"/>
</g>
<!-- Node61 -->
<g id="node209" class="node"><title>Node61</title>
<a xlink:href="_options_list_8h.html" target="_top" xlink:title="base/OptionsList.h">
<polygon fill="white" stroke="black" points="2630.05,-181.5 2630.05,-202.5 2728.05,-202.5 2728.05,-181.5 2630.05,-181.5"/>
<text text-anchor="middle" x="2679.05" y="-189.5" font-family="Helvetica,sans-Serif" font-size="10.00">base/OptionsList.h</text>
</a>
</g>
<!-- Node3&#45;&gt;Node61 -->
<g id="edge296" class="edge"><title>Node3&#45;&gt;Node61</title>
<path fill="none" stroke="midnightblue" d="M2523.61,-478.465C2552.88,-471.307 2588.09,-459.816 2616.05,-442 2651.08,-419.688 2679.05,-414.526 2679.05,-373 2679.05,-373 2679.05,-373 2679.05,-315 2679.05,-279.052 2679.05,-237.195 2679.05,-212.745"/>
<polygon fill="midnightblue" stroke="midnightblue" points="2682.56,-212.53 2679.05,-202.53 2675.56,-212.53 2682.56,-212.53"/>
</g>
<!-- Node63 -->
<g id="node217" class="node"><title>Node63</title>
<a xlink:href="root__draw_8h.html" target="_top" xlink:title="analysis/plot/root\l_draw.h">
<polygon fill="white" stroke="black" points="2953.55,-175 2953.55,-209 3044.55,-209 3044.55,-175 2953.55,-175"/>
<text text-anchor="start" x="2961.55" y="-196" font-family="Helvetica,sans-Serif" font-size="10.00">analysis/plot/root</text>
<text text-anchor="middle" x="2999.05" y="-183" font-family="Helvetica,sans-Serif" font-size="10.00">_draw.h</text>
</a>
</g>
<!-- Node3&#45;&gt;Node63 -->
<g id="edge308" class="edge"><title>Node3&#45;&gt;Node63</title>
<path fill="none" stroke="midnightblue" d="M2534.16,-478.74C2620.5,-465.699 2759.58,-444.56 2771.05,-442 2860.13,-422.117 2881.24,-412.16 2968.05,-384 2981.96,-379.489 2999.05,-387.619 2999.05,-373 2999.05,-373 2999.05,-373 2999.05,-315 2999.05,-282.075 2999.05,-244.193 2999.05,-219.268"/>
<polygon fill="midnightblue" stroke="midnightblue" points="3002.56,-219.112 2999.05,-209.112 2995.56,-219.112 3002.56,-219.112"/>
</g>
<!-- Node3&#45;&gt;Node64 -->
<g id="edge324" class="edge"><title>Node3&#45;&gt;Node64</title>
<path fill="none" stroke="midnightblue" d="M2534.47,-479.433C2539.06,-478.911 2543.62,-478.427 2548.05,-478 2820.15,-451.81 2892.49,-487.368 3162.05,-442 3163.13,-441.819 3164.22,-441.62 3165.31,-441.405"/>
<polygon fill="midnightblue" stroke="midnightblue" points="3166.26,-444.779 3175.22,-439.13 3164.69,-437.957 3166.26,-444.779"/>
</g>
<!-- Node65 -->
<g id="node228" class="node"><title>Node65</title>
<polygon fill="white" stroke="#bfbfbf" points="2041.55,-420.5 2041.55,-441.5 2092.55,-441.5 2092.55,-420.5 2041.55,-420.5"/>
<text text-anchor="middle" x="2067.05" y="-428.5" font-family="Helvetica,sans-Serif" font-size="10.00">TH2D.h</text>
</g>
<!-- Node3&#45;&gt;Node65 -->
<g id="edge326" class="edge"><title>Node3&#45;&gt;Node65</title>
<path fill="none" stroke="midnightblue" d="M2397.79,-484.003C2326.21,-477.911 2210.42,-465.652 2102.95,-442.143"/>
<polygon fill="midnightblue" stroke="midnightblue" points="2103.43,-438.665 2092.91,-439.909 2101.91,-445.498 2103.43,-438.665"/>
</g>
<!-- Node66 -->
<g id="node230" class="node"><title>Node66</title>
<polygon fill="white" stroke="#bfbfbf" points="2109.55,-420.5 2109.55,-441.5 2160.55,-441.5 2160.55,-420.5 2109.55,-420.5"/>
<text text-anchor="middle" x="2135.05" y="-428.5" font-family="Helvetica,sans-Serif" font-size="10.00">TH3D.h</text>
</g>
<!-- Node3&#45;&gt;Node66 -->
<g id="edge328" class="edge"><title>Node3&#45;&gt;Node66</title>
<path fill="none" stroke="midnightblue" d="M2397.93,-481.289C2339.66,-473.995 2253.47,-461.555 2170.73,-442.165"/>
<polygon fill="midnightblue" stroke="midnightblue" points="2171.46,-438.741 2160.93,-439.83 2169.84,-445.551 2171.46,-438.741"/>
</g>
<!-- Node5&#45;&gt;Node6 -->
<g id="edge10" class="edge"><title>Node5&#45;&gt;Node6</title>
<path fill="none" stroke="midnightblue" d="M1781.78,-248.35C1720.93,-241.016 1637.12,-228.668 1565.05,-210 1560.64,-208.857 1556.07,-207.468 1551.58,-205.974"/>
<polygon fill="midnightblue" stroke="midnightblue" points="1552.54,-202.603 1541.94,-202.591 1550.22,-209.208 1552.54,-202.603"/>
</g>
<!-- Node5&#45;&gt;Node15 -->
<g id="edge28" class="edge"><title>Node5&#45;&gt;Node15</title>
<path fill="none" stroke="midnightblue" d="M1869.8,-246.424C1876.23,-229.449 1890.78,-195.82 1912.05,-174 1926.25,-159.443 1945.9,-147.815 1962.17,-139.766"/>
<polygon fill="midnightblue" stroke="midnightblue" points="1963.75,-142.889 1971.29,-135.446 1960.76,-136.562 1963.75,-142.889"/>
</g>
<!-- Node7 -->
<g id="node13" class="node"><title>Node7</title>
<a xlink:href="printable_8h.html" target="_top" xlink:title="printable.h">
<polygon fill="white" stroke="black" points="1552.05,-58.5 1552.05,-79.5 1614.05,-79.5 1614.05,-58.5 1552.05,-58.5"/>
<text text-anchor="middle" x="1583.05" y="-66.5" font-family="Helvetica,sans-Serif" font-size="10.00">printable.h</text>
</a>
</g>
<!-- Node6&#45;&gt;Node7 -->
<g id="edge12" class="edge"><title>Node6&#45;&gt;Node7</title>
<path fill="none" stroke="midnightblue" d="M1539.53,-181.374C1563.92,-169.796 1599.56,-151.17 1607.05,-138 1616.01,-122.268 1607.52,-102.629 1598.25,-88.3305"/>
<polygon fill="midnightblue" stroke="midnightblue" points="1600.85,-85.9478 1592.23,-79.8001 1595.14,-89.987 1600.85,-85.9478"/>
</g>
<!-- Node10 -->
<g id="node19" class="node"><title>Node10</title>
<a xlink:href="types_8h.html" target="_top" xlink:title="types.h">
<polygon fill="white" stroke="black" points="1905.55,-116.5 1905.55,-137.5 1954.55,-137.5 1954.55,-116.5 1905.55,-116.5"/>
<text text-anchor="middle" x="1930.05" y="-124.5" font-family="Helvetica,sans-Serif" font-size="10.00">types.h</text>
</a>
</g>
<!-- Node6&#45;&gt;Node10 -->
<g id="edge18" class="edge"><title>Node6&#45;&gt;Node10</title>
<path fill="none" stroke="midnightblue" d="M1541.13,-181.456C1548.7,-178.637 1557.11,-175.86 1565.05,-174 1706.32,-140.92 1750.09,-168.355 1895.18,-138.048"/>
<polygon fill="midnightblue" stroke="midnightblue" points="1896.3,-141.387 1905.35,-135.866 1894.84,-134.543 1896.3,-141.387"/>
</g>
<!-- Node11 -->
<g id="node21" class="node"><title>Node11</title>
<polygon fill="white" stroke="#bfbfbf" points="1438.05,-116.5 1438.05,-137.5 1494.05,-137.5 1494.05,-116.5 1438.05,-116.5"/>
<text text-anchor="middle" x="1466.05" y="-124.5" font-family="Helvetica,sans-Serif" font-size="10.00">algorithm</text>
</g>
<!-- Node6&#45;&gt;Node11 -->
<g id="edge20" class="edge"><title>Node6&#45;&gt;Node11</title>
<path fill="none" stroke="midnightblue" d="M1507.8,-181.267C1500.37,-171.612 1489.3,-157.215 1480.42,-145.675"/>
<polygon fill="midnightblue" stroke="midnightblue" points="1483.03,-143.326 1474.16,-137.534 1477.48,-147.594 1483.03,-143.326"/>
</g>
<!-- Node12 -->
<g id="node23" class="node"><title>Node12</title>
<polygon fill="white" stroke="#bfbfbf" points="867.555,-116.5 867.555,-137.5 926.555,-137.5 926.555,-116.5 867.555,-116.5"/>
<text text-anchor="middle" x="897.055" y="-124.5" font-family="Helvetica,sans-Serif" font-size="10.00">stdexcept</text>
</g>
<!-- Node6&#45;&gt;Node12 -->
<g id="edge22" class="edge"><title>Node6&#45;&gt;Node12</title>
<path fill="none" stroke="midnightblue" d="M1475.8,-188.615C1385.63,-180.9 1160.66,-160.894 973.055,-138 961.182,-136.551 948.296,-134.767 936.566,-133.06"/>
<polygon fill="midnightblue" stroke="midnightblue" points="937.014,-129.588 926.61,-131.59 935.991,-136.513 937.014,-129.588"/>
</g>
<!-- Node13 -->
<g id="node25" class="node"><title>Node13</title>
<polygon fill="white" stroke="#bfbfbf" points="1451.05,-58.5 1451.05,-79.5 1491.05,-79.5 1491.05,-58.5 1451.05,-58.5"/>
<text text-anchor="middle" x="1471.05" y="-66.5" font-family="Helvetica,sans-Serif" font-size="10.00">limits</text>
</g>
<!-- Node6&#45;&gt;Node13 -->
<g id="edge24" class="edge"><title>Node6&#45;&gt;Node13</title>
<path fill="none" stroke="midnightblue" d="M1515.65,-181.287C1514.77,-166.207 1511.97,-138.096 1503.05,-116 1499.04,-106.051 1492.67,-96.0777 1486.66,-87.8945"/>
<polygon fill="midnightblue" stroke="midnightblue" points="1489.3,-85.582 1480.42,-79.8032 1483.75,-89.8584 1489.3,-85.582"/>
</g>
<!-- Node14 -->
<g id="node27" class="node"><title>Node14</title>
<polygon fill="white" stroke="#bfbfbf" points="1549.55,-116.5 1549.55,-137.5 1598.55,-137.5 1598.55,-116.5 1549.55,-116.5"/>
<text text-anchor="middle" x="1574.05" y="-124.5" font-family="Helvetica,sans-Serif" font-size="10.00">istream</text>
</g>
<!-- Node6&#45;&gt;Node14 -->
<g id="edge26" class="edge"><title>Node6&#45;&gt;Node14</title>
<path fill="none" stroke="midnightblue" d="M1525.63,-181.267C1534.42,-171.423 1547.6,-156.648 1557.99,-145"/>
<polygon fill="midnightblue" stroke="midnightblue" points="1560.61,-147.325 1564.66,-137.534 1555.39,-142.665 1560.61,-147.325"/>
</g>
<!-- Node8 -->
<g id="node15" class="node"><title>Node8</title>
<polygon fill="white" stroke="#bfbfbf" points="1331.05,-0.5 1331.05,-21.5 1375.05,-21.5 1375.05,-0.5 1331.05,-0.5"/>
<text text-anchor="middle" x="1353.05" y="-8.5" font-family="Helvetica,sans-Serif" font-size="10.00">vector</text>
</g>
<!-- Node7&#45;&gt;Node8 -->
<g id="edge14" class="edge"><title>Node7&#45;&gt;Node8</title>
<path fill="none" stroke="midnightblue" d="M1552.04,-61.1779C1508.45,-50.1855 1429.46,-30.267 1385.24,-19.1174"/>
<polygon fill="midnightblue" stroke="midnightblue" points="1385.87,-15.6655 1375.32,-16.614 1384.16,-22.453 1385.87,-15.6655"/>
</g>
<!-- Node9 -->
<g id="node17" class="node"><title>Node9</title>
<polygon fill="white" stroke="#bfbfbf" points="2358.05,-0.5 2358.05,-21.5 2410.05,-21.5 2410.05,-0.5 2358.05,-0.5"/>
<text text-anchor="middle" x="2384.05" y="-8.5" font-family="Helvetica,sans-Serif" font-size="10.00">ostream</text>
</g>
<!-- Node7&#45;&gt;Node9 -->
<g id="edge16" class="edge"><title>Node7&#45;&gt;Node9</title>
<path fill="none" stroke="midnightblue" d="M1614.46,-66.7263C1740.9,-57.5704 2212.48,-23.4237 2347.64,-13.6369"/>
<polygon fill="midnightblue" stroke="midnightblue" points="2348.14,-17.1096 2357.86,-12.8964 2347.64,-10.1278 2348.14,-17.1096"/>
</g>
<!-- Node16&#45;&gt;Node17 -->
<g id="edge32" class="edge"><title>Node16&#45;&gt;Node17</title>
<path fill="none" stroke="midnightblue" d="M2497.55,-181.267C2480.49,-170.807 2454.36,-154.782 2434.91,-142.854"/>
<polygon fill="midnightblue" stroke="midnightblue" points="2436.59,-139.778 2426.23,-137.534 2432.93,-145.745 2436.59,-139.778"/>
</g>
<!-- Node16&#45;&gt;Node18 -->
<g id="edge34" class="edge"><title>Node16&#45;&gt;Node18</title>
<path fill="none" stroke="midnightblue" d="M2455.49,-182.198C2367.46,-167.712 2206.39,-141.207 2144.85,-131.081"/>
<polygon fill="midnightblue" stroke="midnightblue" points="2145.32,-127.61 2134.88,-129.44 2144.18,-134.517 2145.32,-127.61"/>
</g>
<!-- Node19&#45;&gt;Node7 -->
<g id="edge40" class="edge"><title>Node19&#45;&gt;Node7</title>
<path fill="none" stroke="midnightblue" d="M2856.36,-181.285C2849.74,-163.981 2834.09,-130.375 2808.05,-116 2755.18,-86.7998 1832.47,-72.4245 1624.47,-69.5469"/>
<polygon fill="midnightblue" stroke="midnightblue" points="1624.33,-66.0446 1614.28,-69.4072 1624.23,-73.044 1624.33,-66.0446"/>
</g>
<!-- Node19&#45;&gt;Node12 -->
<g id="edge44" class="edge"><title>Node19&#45;&gt;Node12</title>
<path fill="none" stroke="midnightblue" d="M2821.97,-185.172C2797.74,-181.141 2765.66,-176.376 2737.05,-174 1955.58,-109.1 1754.58,-202.286 973.055,-138 961.237,-137.028 948.456,-135.403 936.809,-133.697"/>
<polygon fill="midnightblue" stroke="midnightblue" points="937.331,-130.236 926.918,-132.191 936.277,-137.157 937.331,-130.236"/>
</g>
<!-- Node19&#45;&gt;Node17 -->
<g id="edge42" class="edge"><title>Node19&#45;&gt;Node17</title>
<path fill="none" stroke="midnightblue" d="M2821.83,-186.376C2797.55,-182.812 2765.46,-178.114 2737.05,-174 2631.25,-158.678 2506.21,-140.833 2445.62,-132.203"/>
<polygon fill="midnightblue" stroke="midnightblue" points="2445.81,-128.695 2435.42,-130.75 2444.83,-135.625 2445.81,-128.695"/>
</g>
<!-- Node20 -->
<g id="node39" class="node"><title>Node20</title>
<polygon fill="white" stroke="#bfbfbf" points="2885.05,-116.5 2885.05,-137.5 2941.05,-137.5 2941.05,-116.5 2885.05,-116.5"/>
<text text-anchor="middle" x="2913.05" y="-124.5" font-family="Helvetica,sans-Serif" font-size="10.00">Rtypes.h</text>
</g>
<!-- Node19&#45;&gt;Node20 -->
<g id="edge38" class="edge"><title>Node19&#45;&gt;Node20</title>
<path fill="none" stroke="midnightblue" d="M2868.81,-181.267C2876.76,-171.517 2888.65,-156.932 2898.1,-145.336"/>
<polygon fill="midnightblue" stroke="midnightblue" points="2900.86,-147.496 2904.47,-137.534 2895.43,-143.072 2900.86,-147.496"/>
</g>
<!-- Node21&#45;&gt;Node7 -->
<g id="edge48" class="edge"><title>Node21&#45;&gt;Node7</title>
<path fill="none" stroke="midnightblue" d="M1427.84,-427.026C1453.74,-424.922 1486.13,-422.304 1515.05,-420 1793.21,-397.843 2595.68,-440.425 2753.05,-210 2777.44,-174.302 2763.67,-140.496 2728.05,-116 2681.73,-84.1412 1824.23,-71.8973 1624.42,-69.4704"/>
<polygon fill="midnightblue" stroke="midnightblue" points="1624.38,-65.9697 1614.34,-69.3495 1624.29,-72.9692 1624.38,-65.9697"/>
</g>
<!-- Node22 -->
<g id="node47" class="node"><title>Node22</title>
<a xlink:href="_t_i_d_8h.html" target="_top" xlink:title="TID.h">
<polygon fill="white" stroke="black" points="397.555,-304.5 397.555,-325.5 438.555,-325.5 438.555,-304.5 397.555,-304.5"/>
<text text-anchor="middle" x="418.055" y="-312.5" font-family="Helvetica,sans-Serif" font-size="10.00">TID.h</text>
</a>
</g>
<!-- Node21&#45;&gt;Node22 -->
<g id="edge50" class="edge"><title>Node21&#45;&gt;Node22</title>
<path fill="none" stroke="midnightblue" d="M1330.49,-430.144C1142.63,-426.634 472.183,-412.173 437.055,-384 422.938,-372.678 418.734,-351.904 417.733,-336.098"/>
<polygon fill="midnightblue" stroke="midnightblue" points="421.221,-335.584 417.474,-325.674 414.224,-335.758 421.221,-335.584"/>
</g>
<!-- Node32 -->
<g id="node75" class="node"><title>Node32</title>
<a xlink:href="_t_detector_read_hit_8h.html" target="_top" xlink:title="TDetectorReadHit.h">
<polygon fill="white" stroke="black" points="493.055,-246.5 493.055,-267.5 597.055,-267.5 597.055,-246.5 493.055,-246.5"/>
<text text-anchor="middle" x="545.055" y="-254.5" font-family="Helvetica,sans-Serif" font-size="10.00">TDetectorReadHit.h</text>
</a>
</g>
<!-- Node21&#45;&gt;Node32 -->
<g id="edge86" class="edge"><title>Node21&#45;&gt;Node32</title>
<path fill="none" stroke="midnightblue" d="M1330.3,-420.829C1186.35,-390.795 763.356,-302.545 605.434,-269.597"/>
<polygon fill="midnightblue" stroke="midnightblue" points="605.925,-266.124 595.421,-267.508 604.495,-272.977 605.925,-266.124"/>
</g>
<!-- Node37 -->
<g id="node95" class="node"><title>Node37</title>
<a xlink:href="_t_slow_control_8h.html" target="_top" xlink:title="TSlowControl.h">
<polygon fill="white" stroke="black" points="250.055,-362.5 250.055,-383.5 334.055,-383.5 334.055,-362.5 250.055,-362.5"/>
<text text-anchor="middle" x="292.055" y="-370.5" font-family="Helvetica,sans-Serif" font-size="10.00">TSlowControl.h</text>
</a>
</g>
<!-- Node21&#45;&gt;Node37 -->
<g id="edge116" class="edge"><title>Node21&#45;&gt;Node37</title>
<path fill="none" stroke="midnightblue" d="M1330.31,-429.508C1187.7,-424.959 758.988,-409.968 404.055,-384 384.572,-382.575 363.223,-380.585 344.438,-378.689"/>
<polygon fill="midnightblue" stroke="midnightblue" points="344.598,-375.187 334.294,-377.649 343.885,-382.15 344.598,-375.187"/>
</g>
<!-- Node38 -->
<g id="node102" class="node"><title>Node38</title>
<a xlink:href="_t_unpacker_message_8h.html" target="_top" xlink:title="TUnpackerMessage.h">
<polygon fill="white" stroke="black" points="1231.55,-246.5 1231.55,-267.5 1344.55,-267.5 1344.55,-246.5 1231.55,-246.5"/>
<text text-anchor="middle" x="1288.05" y="-254.5" font-family="Helvetica,sans-Serif" font-size="10.00">TUnpackerMessage.h</text>
</a>
</g>
<!-- Node21&#45;&gt;Node38 -->
<g id="edge128" class="edge"><title>Node21&#45;&gt;Node38</title>
<path fill="none" stroke="midnightblue" d="M1376.68,-420.495C1371.26,-397.916 1356.52,-343.601 1332.05,-304 1325.4,-293.225 1316.01,-282.781 1307.62,-274.485"/>
<polygon fill="midnightblue" stroke="midnightblue" points="1309.96,-271.877 1300.3,-267.523 1305.13,-276.95 1309.96,-271.877"/>
</g>
<!-- Node45 -->
<g id="node124" class="node"><title>Node45</title>
<a xlink:href="_t_tagger_hit_8h.html" target="_top" xlink:title="TTaggerHit.h">
<polygon fill="white" stroke="black" points="446.055,-362.5 446.055,-383.5 520.055,-383.5 520.055,-362.5 446.055,-362.5"/>
<text text-anchor="middle" x="483.055" y="-370.5" font-family="Helvetica,sans-Serif" font-size="10.00">TTaggerHit.h</text>
</a>
</g>
<!-- Node21&#45;&gt;Node45 -->
<g id="edge158" class="edge"><title>Node21&#45;&gt;Node45</title>
<path fill="none" stroke="midnightblue" d="M1330.25,-427.84C1173.71,-417.707 685.468,-386.103 530.654,-376.081"/>
<polygon fill="midnightblue" stroke="midnightblue" points="530.724,-372.578 520.519,-375.425 530.272,-379.564 530.724,-372.578"/>
</g>
<!-- Node47 -->
<g id="node134" class="node"><title>Node47</title>
<a xlink:href="_t_trigger_8h.html" target="_top" xlink:title="TTrigger.h">
<polygon fill="white" stroke="black" points="1963.55,-181.5 1963.55,-202.5 2024.55,-202.5 2024.55,-181.5 1963.55,-181.5"/>
<text text-anchor="middle" x="1994.05" y="-189.5" font-family="Helvetica,sans-Serif" font-size="10.00">TTrigger.h</text>
</a>
</g>
<!-- Node21&#45;&gt;Node47 -->
<g id="edge174" class="edge"><title>Node21&#45;&gt;Node47</title>
<path fill="none" stroke="midnightblue" d="M1427.61,-426.786C1604.05,-411.247 2202.32,-356.475 2229.05,-326 2290.24,-256.257 2117.05,-214.357 2034.78,-198.859"/>
<polygon fill="midnightblue" stroke="midnightblue" points="2035.22,-195.381 2024.75,-197.016 2033.95,-202.265 2035.22,-195.381"/>
</g>
<!-- Node48 -->
<g id="node141" class="node"><title>Node48</title>
<a xlink:href="_t_target_8h.html" target="_top" xlink:title="TTarget.h">
<polygon fill="white" stroke="black" points="1573.55,-181.5 1573.55,-202.5 1632.55,-202.5 1632.55,-181.5 1573.55,-181.5"/>
<text text-anchor="middle" x="1603.05" y="-189.5" font-family="Helvetica,sans-Serif" font-size="10.00">TTarget.h</text>
</a>
</g>
<!-- Node21&#45;&gt;Node48 -->
<g id="edge186" class="edge"><title>Node21&#45;&gt;Node48</title>
<path fill="none" stroke="midnightblue" d="M1388.97,-420.422C1423.95,-383.103 1541.85,-257.305 1586.09,-210.098"/>
<polygon fill="midnightblue" stroke="midnightblue" points="1588.72,-212.417 1593,-202.727 1583.61,-207.63 1588.72,-212.417"/>
</g>
<!-- Node50 -->
<g id="node152" class="node"><title>Node50</title>
<a xlink:href="_t_cluster_8h.html" target="_top" xlink:title="TCluster.h">
<polygon fill="white" stroke="black" points="729.055,-246.5 729.055,-267.5 791.055,-267.5 791.055,-246.5 729.055,-246.5"/>
<text text-anchor="middle" x="760.055" y="-254.5" font-family="Helvetica,sans-Serif" font-size="10.00">TCluster.h</text>
</a>
</g>
<!-- Node21&#45;&gt;Node50 -->
<g id="edge204" class="edge"><title>Node21&#45;&gt;Node50</title>
<path fill="none" stroke="midnightblue" d="M1369.85,-420.348C1347.11,-394.885 1285.24,-330.633 1218.05,-304 1046.77,-236.1 986.854,-297.963 805.055,-268 803.805,-267.794 802.539,-267.572 801.263,-267.336"/>
<polygon fill="midnightblue" stroke="midnightblue" points="801.9,-263.894 791.4,-265.31 800.491,-270.751 801.9,-263.894"/>
</g>
<!-- Node53 -->
<g id="node169" class="node"><title>Node53</title>
<a xlink:href="_t_candidate_8h.html" target="_top" xlink:title="TCandidate.h">
<polygon fill="white" stroke="black" points="1383.55,-304.5 1383.55,-325.5 1458.55,-325.5 1458.55,-304.5 1383.55,-304.5"/>
<text text-anchor="middle" x="1421.05" y="-312.5" font-family="Helvetica,sans-Serif" font-size="10.00">TCandidate.h</text>
</a>
</g>
<!-- Node21&#45;&gt;Node53 -->
<g id="edge232" class="edge"><title>Node21&#45;&gt;Node53</title>
<path fill="none" stroke="midnightblue" d="M1382.93,-420.295C1389.93,-400.959 1404.79,-359.923 1413.75,-335.177"/>
<polygon fill="midnightblue" stroke="midnightblue" points="1417.07,-336.273 1417.19,-325.679 1410.49,-333.89 1417.07,-336.273"/>
</g>
<!-- Node54 -->
<g id="node178" class="node"><title>Node54</title>
<a xlink:href="_t_particle_8h.html" target="_top" xlink:title="TParticle.h">
<polygon fill="white" stroke="black" points="1714.05,-362.5 1714.05,-383.5 1778.05,-383.5 1778.05,-362.5 1714.05,-362.5"/>
<text text-anchor="middle" x="1746.05" y="-370.5" font-family="Helvetica,sans-Serif" font-size="10.00">TParticle.h</text>
</a>
</g>
<!-- Node21&#45;&gt;Node54 -->
<g id="edge248" class="edge"><title>Node21&#45;&gt;Node54</title>
<path fill="none" stroke="midnightblue" d="M1427.79,-423.298C1500.31,-411.838 1635.4,-390.488 1703.9,-379.662"/>
<polygon fill="midnightblue" stroke="midnightblue" points="1704.57,-383.099 1713.9,-378.081 1703.48,-376.185 1704.57,-383.099"/>
</g>
<!-- Node22&#45;&gt;Node7 -->
<g id="edge54" class="edge"><title>Node22&#45;&gt;Node7</title>
<path fill="none" stroke="midnightblue" d="M438.818,-313.616C538.281,-306.701 965.953,-273.681 1081.05,-210 1133.58,-180.938 1123.75,-141.598 1178.05,-116 1308.31,-54.5964 1357.11,-97.4605 1500.05,-80 1513.6,-78.3451 1528.38,-76.4243 1541.66,-74.6553"/>
<polygon fill="midnightblue" stroke="midnightblue" points="1542.49,-78.0752 1551.94,-73.2771 1541.56,-71.1373 1542.49,-78.0752"/>
</g>
<!-- Node22&#45;&gt;Node12 -->
<g id="edge78" class="edge"><title>Node22&#45;&gt;Node12</title>
<path fill="none" stroke="midnightblue" d="M438.611,-313.634C507.867,-308.851 732.122,-291.85 800.055,-268 846.374,-251.739 869.363,-252.429 894.055,-210 905.106,-191.01 904.064,-165.221 901.41,-147.455"/>
<polygon fill="midnightblue" stroke="midnightblue" points="904.847,-146.79 899.643,-137.562 897.956,-148.021 904.847,-146.79"/>
</g>
<!-- Node22&#45;&gt;Node18 -->
<g id="edge80" class="edge"><title>Node22&#45;&gt;Node18</title>
<path fill="none" stroke="midnightblue" d="M438.729,-314.738C616.612,-312.438 1884.19,-295.127 1959.05,-268 1993.16,-255.644 2068.88,-180.127 2102.91,-144.973"/>
<polygon fill="midnightblue" stroke="midnightblue" points="2105.47,-147.366 2109.88,-137.734 2100.42,-142.511 2105.47,-147.366"/>
</g>
<!-- Node22&#45;&gt;Node20 -->
<g id="edge52" class="edge"><title>Node22&#45;&gt;Node20</title>
<path fill="none" stroke="midnightblue" d="M438.74,-314.787C581.002,-313.25 1429.38,-302.891 2119.05,-268 2294.42,-259.128 2782.98,-334.238 2907.05,-210 2923.01,-194.02 2921.72,-166.608 2918.29,-147.684"/>
<polygon fill="midnightblue" stroke="midnightblue" points="2921.66,-146.715 2916.14,-137.673 2914.82,-148.185 2921.66,-146.715"/>
</g>
<!-- Node23 -->
<g id="node51" class="node"><title>Node23</title>
<a xlink:href="time_8h.html" target="_top" xlink:title="base/std_ext/time.h">
<polygon fill="white" stroke="black" points="126.555,-246.5 126.555,-267.5 229.555,-267.5 229.555,-246.5 126.555,-246.5"/>
<text text-anchor="middle" x="178.055" y="-254.5" font-family="Helvetica,sans-Serif" font-size="10.00">base/std_ext/time.h</text>
</a>
</g>
<!-- Node22&#45;&gt;Node23 -->
<g id="edge56" class="edge"><title>Node22&#45;&gt;Node23</title>
<path fill="none" stroke="midnightblue" d="M397.269,-306.707C394.527,-305.734 391.737,-304.803 389.055,-304 361.443,-295.734 291.005,-280.467 239.072,-269.576"/>
<polygon fill="midnightblue" stroke="midnightblue" points="239.783,-266.149 229.279,-267.528 238.35,-273.001 239.783,-266.149"/>
</g>
<!-- Node27 -->
<g id="node62" class="node"><title>Node27</title>
<polygon fill="white" stroke="#bfbfbf" points="224.555,-181.5 224.555,-202.5 265.555,-202.5 265.555,-181.5 224.555,-181.5"/>
<text text-anchor="middle" x="245.055" y="-189.5" font-family="Helvetica,sans-Serif" font-size="10.00">ctime</text>
</g>
<!-- Node22&#45;&gt;Node27 -->
<g id="edge84" class="edge"><title>Node22&#45;&gt;Node27</title>
<path fill="none" stroke="midnightblue" d="M397.852,-304.485C381.115,-295.491 356.937,-281.84 337.055,-268 310.661,-249.627 282.45,-225.593 264.33,-209.518"/>
<polygon fill="midnightblue" stroke="midnightblue" points="266.543,-206.801 256.757,-202.741 261.875,-212.017 266.543,-206.801"/>
</g>
<!-- Node28 -->
<g id="node64" class="node"><title>Node28</title>
<polygon fill="white" stroke="#bfbfbf" points="96.055,-116.5 96.055,-137.5 158.055,-137.5 158.055,-116.5 96.055,-116.5"/>
<text text-anchor="middle" x="127.055" y="-124.5" font-family="Helvetica,sans-Serif" font-size="10.00">type_traits</text>
</g>
<!-- Node22&#45;&gt;Node28 -->
<g id="edge72" class="edge"><title>Node22&#45;&gt;Node28</title>
<path fill="none" stroke="midnightblue" d="M413.148,-304.197C400.491,-277.604 364.056,-208.628 312.055,-174 309.002,-171.967 221.648,-150.257 168.084,-137.065"/>
<polygon fill="midnightblue" stroke="midnightblue" points="168.726,-133.619 158.18,-134.628 167.054,-140.416 168.726,-133.619"/>
</g>
<!-- Node29 -->
<g id="node66" class="node"><title>Node29</title>
<polygon fill="white" stroke="#bfbfbf" points="247.055,-246.5 247.055,-267.5 285.055,-267.5 285.055,-246.5 247.055,-246.5"/>
<text text-anchor="middle" x="266.055" y="-254.5" font-family="Helvetica,sans-Serif" font-size="10.00">tuple</text>
</g>
<!-- Node22&#45;&gt;Node29 -->
<g id="edge74" class="edge"><title>Node22&#45;&gt;Node29</title>
<path fill="none" stroke="midnightblue" d="M397.239,-307.057C370.649,-296.911 324.506,-279.304 294.637,-267.906"/>
<polygon fill="midnightblue" stroke="midnightblue" points="295.774,-264.594 285.183,-264.299 293.278,-271.134 295.774,-264.594"/>
</g>
<!-- Node30 -->
<g id="node68" class="node"><title>Node30</title>
<polygon fill="white" stroke="#bfbfbf" points="32.055,-116.5 32.055,-137.5 78.055,-137.5 78.055,-116.5 32.055,-116.5"/>
<text text-anchor="middle" x="55.055" y="-124.5" font-family="Helvetica,sans-Serif" font-size="10.00">cstdint</text>
</g>
<!-- Node22&#45;&gt;Node30 -->
<g id="edge76" class="edge"><title>Node22&#45;&gt;Node30</title>
<path fill="none" stroke="midnightblue" d="M407.119,-304.127C374.221,-271.436 278.162,-176.151 274.055,-174 201.864,-136.184 171.14,-158.038 88.1857,-137.95"/>
<polygon fill="midnightblue" stroke="midnightblue" points="88.912,-134.523 78.3565,-135.435 87.1766,-141.305 88.912,-134.523"/>
</g>
<!-- Node31 -->
<g id="node72" class="node"><title>Node31</title>
<polygon fill="white" stroke="#bfbfbf" points="590.055,-181.5 590.055,-202.5 640.055,-202.5 640.055,-181.5 590.055,-181.5"/>
<text text-anchor="middle" x="615.055" y="-189.5" font-family="Helvetica,sans-Serif" font-size="10.00">iomanip</text>
</g>
<!-- Node22&#45;&gt;Node31 -->
<g id="edge82" class="edge"><title>Node22&#45;&gt;Node31</title>
<path fill="none" stroke="midnightblue" d="M438.576,-312.784C482.603,-307.589 583.936,-293.126 606.055,-268 619.234,-253.029 620.052,-229.483 618.473,-212.566"/>
<polygon fill="midnightblue" stroke="midnightblue" points="621.935,-212.039 617.196,-202.563 614.991,-212.926 621.935,-212.039"/>
</g>
<!-- Node23&#45;&gt;Node24 -->
<g id="edge58" class="edge"><title>Node23&#45;&gt;Node24</title>
<path fill="none" stroke="midnightblue" d="M229.704,-247.112C232.524,-246.703 235.321,-246.328 238.055,-246 513.427,-212.93 584.909,-235.826 861.055,-210 885.536,-207.71 912.347,-204.424 935.835,-201.284"/>
<polygon fill="midnightblue" stroke="midnightblue" points="936.586,-204.715 946.026,-199.904 935.646,-197.778 936.586,-204.715"/>
</g>
<!-- Node26 -->
<g id="node60" class="node"><title>Node26</title>
<polygon fill="white" stroke="#bfbfbf" points="155.055,-181.5 155.055,-202.5 201.055,-202.5 201.055,-181.5 155.055,-181.5"/>
<text text-anchor="middle" x="178.055" y="-189.5" font-family="Helvetica,sans-Serif" font-size="10.00">cstring</text>
</g>
<!-- Node23&#45;&gt;Node26 -->
<g id="edge68" class="edge"><title>Node23&#45;&gt;Node26</title>
<path fill="none" stroke="midnightblue" d="M178.055,-246.267C178.055,-237.18 178.055,-223.892 178.055,-212.74"/>
<polygon fill="midnightblue" stroke="midnightblue" points="181.555,-212.534 178.055,-202.534 174.555,-212.534 181.555,-212.534"/>
</g>
<!-- Node23&#45;&gt;Node27 -->
<g id="edge70" class="edge"><title>Node23&#45;&gt;Node27</title>
<path fill="none" stroke="midnightblue" d="M189.119,-246.267C199.363,-236.328 214.788,-221.363 226.847,-209.664"/>
<polygon fill="midnightblue" stroke="midnightblue" points="229.457,-212.009 234.197,-202.534 224.583,-206.985 229.457,-212.009"/>
</g>
<!-- Node24&#45;&gt;Node8 -->
<g id="edge66" class="edge"><title>Node24&#45;&gt;Node8</title>
<path fill="none" stroke="midnightblue" d="M990.508,-181.446C977.558,-165.808 957.705,-136.167 973.055,-116 1015.89,-59.7236 1237.21,-25.8808 1320.92,-14.9261"/>
<polygon fill="midnightblue" stroke="midnightblue" points="1321.41,-18.3921 1330.89,-13.6462 1320.52,-11.4492 1321.41,-18.3921"/>
</g>
<!-- Node24&#45;&gt;Node11 -->
<g id="edge64" class="edge"><title>Node24&#45;&gt;Node11</title>
<path fill="none" stroke="midnightblue" d="M1054.42,-184.416C1149.86,-171.105 1345.22,-143.855 1427.82,-132.333"/>
<polygon fill="midnightblue" stroke="midnightblue" points="1428.36,-135.791 1437.79,-130.943 1427.4,-128.858 1428.36,-135.791"/>
</g>
<!-- Node24&#45;&gt;Node15 -->
<g id="edge60" class="edge"><title>Node24&#45;&gt;Node15</title>
<path fill="none" stroke="midnightblue" d="M1054.11,-189.936C1238.48,-182.767 1837.65,-158.362 1961.49,-137.585"/>
<polygon fill="midnightblue" stroke="midnightblue" points="1962.2,-141.012 1971.38,-135.715 1960.9,-134.134 1962.2,-141.012"/>
</g>
<!-- Node25 -->
<g id="node56" class="node"><title>Node25</title>
<polygon fill="white" stroke="#bfbfbf" points="396.055,-116.5 396.055,-137.5 448.055,-137.5 448.055,-116.5 396.055,-116.5"/>
<text text-anchor="middle" x="422.055" y="-124.5" font-family="Helvetica,sans-Serif" font-size="10.00">sstream</text>
</g>
<!-- Node24&#45;&gt;Node25 -->
<g id="edge62" class="edge"><title>Node24&#45;&gt;Node25</title>
<path fill="none" stroke="midnightblue" d="M945.973,-184.604C920.269,-181.19 889.1,-177.194 861.055,-174 698.653,-155.502 657.256,-158.184 495.055,-138 483.054,-136.507 469.982,-134.62 458.259,-132.832"/>
<polygon fill="midnightblue" stroke="midnightblue" points="458.783,-129.372 448.365,-131.299 457.712,-136.289 458.783,-129.372"/>
</g>
<!-- Node32&#45;&gt;Node25 -->
<g id="edge114" class="edge"><title>Node32&#45;&gt;Node25</title>
<path fill="none" stroke="midnightblue" d="M548.215,-246.424C552.599,-229.45 558.379,-195.823 543.055,-174 537.854,-166.593 491.534,-149.975 457.749,-138.622"/>
<polygon fill="midnightblue" stroke="midnightblue" points="458.755,-135.269 448.161,-135.428 456.543,-141.91 458.755,-135.269"/>
</g>
<!-- Node32&#45;&gt;Node31 -->
<g id="edge112" class="edge"><title>Node32&#45;&gt;Node31</title>
<path fill="none" stroke="midnightblue" d="M556.614,-246.267C567.317,-236.328 583.433,-221.363 596.032,-209.664"/>
<polygon fill="midnightblue" stroke="midnightblue" points="598.765,-211.903 603.711,-202.534 594.001,-206.773 598.765,-211.903"/>
</g>
<!-- Node33 -->
<g id="node77" class="node"><title>Node33</title>
<a xlink:href="_detector__t_8h.html" target="_top" xlink:title="base/Detector_t.h">
<polygon fill="white" stroke="black" points="439.555,-181.5 439.555,-202.5 534.555,-202.5 534.555,-181.5 439.555,-181.5"/>
<text text-anchor="middle" x="487.055" y="-189.5" font-family="Helvetica,sans-Serif" font-size="10.00">base/Detector_t.h</text>
</a>
</g>
<!-- Node32&#45;&gt;Node33 -->
<g id="edge88" class="edge"><title>Node32&#45;&gt;Node33</title>
<path fill="none" stroke="midnightblue" d="M535.477,-246.267C526.694,-236.423 513.51,-221.648 503.116,-210"/>
<polygon fill="midnightblue" stroke="midnightblue" points="505.724,-207.665 496.454,-202.534 500.501,-212.325 505.724,-207.665"/>
</g>
<!-- Node33&#45;&gt;Node7 -->
<g id="edge90" class="edge"><title>Node33&#45;&gt;Node7</title>
<path fill="none" stroke="midnightblue" d="M534.697,-181.732C549.493,-178.853 565.896,-175.973 581.055,-174 809.023,-144.329 875.572,-199.603 1097.05,-138 1117.74,-132.248 1119.46,-122.062 1140.05,-116 1294.31,-70.5918 1340.33,-98.5653 1500.05,-80 1513.61,-78.4241 1528.39,-76.5244 1541.67,-74.7504"/>
<polygon fill="midnightblue" stroke="midnightblue" points="1542.51,-78.1695 1551.95,-73.3632 1541.57,-71.2325 1542.51,-78.1695"/>
</g>
<!-- Node33&#45;&gt;Node8 -->
<g id="edge110" class="edge"><title>Node33&#45;&gt;Node8</title>
<path fill="none" stroke="midnightblue" d="M452.291,-181.457C443.733,-178.941 434.58,-176.315 426.055,-174 361.974,-156.6 321.961,-190.304 281.055,-138 258.472,-109.124 300.137,-67.9198 317.055,-58 361.388,-32.0052 1150.94,-14.9888 1320.97,-11.6166"/>
<polygon fill="midnightblue" stroke="midnightblue" points="1321.11,-15.1146 1331.04,-11.4185 1320.97,-8.11592 1321.11,-15.1146"/>
</g>
<!-- Node33&#45;&gt;Node12 -->
<g id="edge104" class="edge"><title>Node33&#45;&gt;Node12</title>
<path fill="none" stroke="midnightblue" d="M534.806,-182.458C549.606,-179.608 565.985,-176.563 581.055,-174 680.094,-157.16 797.173,-140.622 857.188,-132.388"/>
<polygon fill="midnightblue" stroke="midnightblue" points="857.931,-135.819 867.365,-130.997 856.983,-128.884 857.931,-135.819"/>
</g>
<!-- Node33&#45;&gt;Node15 -->
<g id="edge106" class="edge"><title>Node33&#45;&gt;Node15</title>
<path fill="none" stroke="midnightblue" d="M534.166,-181.419C549.085,-178.489 565.692,-175.66 581.055,-174 883.212,-141.355 1645.02,-196.116 1961.25,-137.735"/>
<polygon fill="midnightblue" stroke="midnightblue" points="1962.23,-141.111 1971.39,-135.793 1960.91,-134.236 1962.23,-141.111"/>
</g>
<!-- Node33&#45;&gt;Node28 -->
<g id="edge108" class="edge"><title>Node33&#45;&gt;Node28</title>
<path fill="none" stroke="midnightblue" d="M439.25,-183.369C368.082,-170.519 235.467,-146.574 168.306,-134.448"/>
<polygon fill="midnightblue" stroke="midnightblue" points="168.572,-130.94 158.109,-132.607 167.328,-137.828 168.572,-130.94"/>
</g>
<!-- Node33&#45;&gt;Node30 -->
<g id="edge102" class="edge"><title>Node33&#45;&gt;Node30</title>
<path fill="none" stroke="midnightblue" d="M439.32,-186.75C352.033,-176.961 168.947,-155.507 88.1127,-137.835"/>
<polygon fill="midnightblue" stroke="midnightblue" points="88.8467,-134.413 78.3175,-135.59 87.2825,-141.236 88.8467,-134.413"/>
</g>
<!-- Node34 -->
<g id="node80" class="node"><title>Node34</title>
<a xlink:href="vec3_8h.html" target="_top" xlink:title="base/vec/vec3.h">
<polygon fill="white" stroke="black" points="289.555,-116.5 289.555,-137.5 378.555,-137.5 378.555,-116.5 289.555,-116.5"/>
<text text-anchor="middle" x="334.055" y="-124.5" font-family="Helvetica,sans-Serif" font-size="10.00">base/vec/vec3.h</text>
</a>
</g>
<!-- Node33&#45;&gt;Node34 -->
<g id="edge92" class="edge"><title>Node33&#45;&gt;Node34</title>
<path fill="none" stroke="midnightblue" d="M462.132,-181.412C436.682,-170.6 396.975,-153.731 368.521,-141.642"/>
<polygon fill="midnightblue" stroke="midnightblue" points="369.539,-138.272 358.967,-137.584 366.802,-144.715 369.539,-138.272"/>
</g>
<!-- Node34&#45;&gt;Node7 -->
<g id="edge94" class="edge"><title>Node34&#45;&gt;Node7</title>
<path fill="none" stroke="midnightblue" d="M378.785,-117.151C381.576,-116.712 384.349,-116.322 387.055,-116 878.51,-57.4945 1006.79,-120.562 1500.05,-80 1513.66,-78.8814 1528.45,-77.1035 1541.73,-75.3004"/>
<polygon fill="midnightblue" stroke="midnightblue" points="1542.58,-78.715 1552,-73.8611 1541.61,-71.7828 1542.58,-78.715"/>
</g>
<!-- Node35 -->
<g id="node83" class="node"><title>Node35</title>
<a xlink:href="vec2_8h.html" target="_top" xlink:title="vec2.h">
<polygon fill="white" stroke="black" points="326.055,-58.5 326.055,-79.5 372.055,-79.5 372.055,-58.5 326.055,-58.5"/>
<text text-anchor="middle" x="349.055" y="-66.5" font-family="Helvetica,sans-Serif" font-size="10.00">vec2.h</text>
</a>
</g>
<!-- Node34&#45;&gt;Node35 -->
<g id="edge96" class="edge"><title>Node34&#45;&gt;Node35</title>
<path fill="none" stroke="midnightblue" d="M336.806,-116.362C338.751,-108.84 341.421,-98.5187 343.771,-89.4308"/>
<polygon fill="midnightblue" stroke="midnightblue" points="347.206,-90.1285 346.321,-79.5707 340.429,-88.3758 347.206,-90.1285"/>
</g>
<!-- Node36 -->
<g id="node85" class="node"><title>Node36</title>
<polygon fill="white" stroke="#bfbfbf" points="327.055,-0.5 327.055,-21.5 371.055,-21.5 371.055,-0.5 327.055,-0.5"/>
<text text-anchor="middle" x="349.055" y="-8.5" font-family="Helvetica,sans-Serif" font-size="10.00">cmath</text>
</g>
<!-- Node34&#45;&gt;Node36 -->
<g id="edge100" class="edge"><title>Node34&#45;&gt;Node36</title>
<path fill="none" stroke="midnightblue" d="M349.984,-116.346C361.009,-107.944 374.784,-95.1389 381.055,-80 388.253,-62.6232 377.534,-43.2224 366.609,-29.4293"/>
<polygon fill="midnightblue" stroke="midnightblue" points="369.099,-26.9559 359.937,-21.6341 363.78,-31.5074 369.099,-26.9559"/>
</g>
<!-- Node35&#45;&gt;Node36 -->
<g id="edge98" class="edge"><title>Node35&#45;&gt;Node36</title>
<path fill="none" stroke="midnightblue" d="M349.055,-58.3619C349.055,-50.9219 349.055,-40.7427 349.055,-31.7276"/>
<polygon fill="midnightblue" stroke="midnightblue" points="352.555,-31.5706 349.055,-21.5707 345.555,-31.5707 352.555,-31.5706"/>
</g>
<!-- Node37&#45;&gt;Node7 -->
<g id="edge122" class="edge"><title>Node37&#45;&gt;Node7</title>
<path fill="none" stroke="midnightblue" d="M334.096,-368.455C482.395,-351.848 979.451,-291.164 1115.05,-210 1166.29,-179.332 1157.27,-141.942 1211.05,-116 1327.64,-59.7692 1371.67,-96.5029 1500.05,-80 1513.59,-78.2598 1528.37,-76.3163 1541.65,-74.5527"/>
<polygon fill="midnightblue" stroke="midnightblue" points="1542.47,-77.9734 1551.93,-73.1843 1541.55,-71.0346 1542.47,-77.9734"/>
</g>
<!-- Node37&#45;&gt;Node22 -->
<g id="edge118" class="edge"><title>Node37&#45;&gt;Node22</title>
<path fill="none" stroke="midnightblue" d="M314.873,-362.497C335.474,-353.013 365.915,-339.001 388.397,-328.652"/>
<polygon fill="midnightblue" stroke="midnightblue" points="389.873,-331.826 397.493,-324.465 386.946,-325.467 389.873,-331.826"/>
</g>
<!-- Node37&#45;&gt;Node23 -->
<g id="edge120" class="edge"><title>Node37&#45;&gt;Node23</title>
<path fill="none" stroke="midnightblue" d="M281.534,-362.295C261.938,-342.355 219.662,-299.337 195.652,-274.906"/>
<polygon fill="midnightblue" stroke="midnightblue" points="198.056,-272.358 188.55,-267.679 193.063,-277.265 198.056,-272.358"/>
</g>
<!-- Node37&#45;&gt;Node29 -->
<g id="edge126" class="edge"><title>Node37&#45;&gt;Node29</title>
<path fill="none" stroke="midnightblue" d="M280.18,-362.36C271.354,-353.599 260.018,-340.327 255.055,-326 249.55,-310.107 253.235,-291.188 257.77,-277.184"/>
<polygon fill="midnightblue" stroke="midnightblue" points="261.14,-278.158 261.266,-267.564 254.561,-275.767 261.14,-278.158"/>
</g>
<!-- Node37&#45;&gt;Node30 -->
<g id="edge124" class="edge"><title>Node37&#45;&gt;Node30</title>
<path fill="none" stroke="midnightblue" d="M259.141,-362.492C217.858,-347.715 147.479,-316.984 106.055,-268 75.9472,-232.397 63.0039,-177.589 57.9451,-147.88"/>
<polygon fill="midnightblue" stroke="midnightblue" points="61.3744,-147.155 56.373,-137.815 54.4583,-148.235 61.3744,-147.155"/>
</g>
<!-- Node38&#45;&gt;Node7 -->
<g id="edge156" class="edge"><title>Node38&#45;&gt;Node7</title>
<path fill="none" stroke="midnightblue" d="M1293.11,-246.189C1306.12,-219.577 1343.5,-150.562 1396.05,-116 1419.83,-100.364 1494.51,-84.7656 1541.99,-76.052"/>
<polygon fill="midnightblue" stroke="midnightblue" points="1542.76,-79.4708 1551.97,-74.2478 1541.51,-72.5824 1542.76,-79.4708"/>
</g>
<!-- Node39 -->
<g id="node104" class="node"><title>Node39</title>
<a xlink:href="_format_8h.html" target="_top" xlink:title="base/Format.h">
<polygon fill="white" stroke="black" points="772.055,-181.5 772.055,-202.5 852.055,-202.5 852.055,-181.5 772.055,-181.5"/>
<text text-anchor="middle" x="812.055" y="-189.5" font-family="Helvetica,sans-Serif" font-size="10.00">base/Format.h</text>
</a>
</g>
<!-- Node38&#45;&gt;Node39 -->
<g id="edge130" class="edge"><title>Node38&#45;&gt;Node39</title>
<path fill="none" stroke="midnightblue" d="M1231.49,-249.602C1162.1,-240.485 1040.88,-224.427 937.055,-210 912.479,-206.585 885.204,-202.672 862.418,-199.368"/>
<polygon fill="midnightblue" stroke="midnightblue" points="862.69,-195.871 852.291,-197.897 861.684,-202.798 862.69,-195.871"/>
</g>
<!-- Node39&#45;&gt;Node8 -->
<g id="edge154" class="edge"><title>Node39&#45;&gt;Node8</title>
<path fill="none" stroke="midnightblue" d="M783.753,-181.468C775.552,-178.717 766.524,-175.973 758.055,-174 641.479,-146.841 418.066,-207.653 495.055,-116 549.319,-51.4006 1170.29,-19.2724 1320.49,-12.4144"/>
<polygon fill="midnightblue" stroke="midnightblue" points="1321.03,-15.8935 1330.87,-11.9469 1320.72,-8.90064 1321.03,-15.8935"/>
</g>
<!-- Node39&#45;&gt;Node11 -->
<g id="edge144" class="edge"><title>Node39&#45;&gt;Node11</title>
<path fill="none" stroke="midnightblue" d="M852.233,-185.647C876.707,-181.919 908.634,-177.306 937.055,-174 1120.36,-152.675 1340.4,-135.965 1427.68,-129.69"/>
<polygon fill="midnightblue" stroke="midnightblue" points="1428.17,-133.164 1437.9,-128.959 1427.67,-126.182 1428.17,-133.164"/>
</g>
<!-- Node39&#45;&gt;Node12 -->
<g id="edge148" class="edge"><title>Node39&#45;&gt;Node12</title>
<path fill="none" stroke="midnightblue" d="M826.091,-181.267C839.459,-171.044 859.78,-155.504 875.256,-143.67"/>
<polygon fill="midnightblue" stroke="midnightblue" points="877.463,-146.389 883.28,-137.534 873.21,-140.828 877.463,-146.389"/>
</g>
<!-- Node39&#45;&gt;Node13 -->
<g id="edge146" class="edge"><title>Node39&#45;&gt;Node13</title>
<path fill="none" stroke="midnightblue" d="M815.147,-181.426C820.764,-164.325 834.407,-131.003 859.055,-116 909.043,-85.5724 1323.84,-72.7576 1440.59,-69.7328"/>
<polygon fill="midnightblue" stroke="midnightblue" points="1441.02,-73.223 1450.93,-69.4704 1440.85,-66.2252 1441.02,-73.223"/>
</g>
<!-- Node39&#45;&gt;Node15 -->
<g id="edge150" class="edge"><title>Node39&#45;&gt;Node15</title>
<path fill="none" stroke="midnightblue" d="M852.177,-185.098C876.63,-181.172 908.556,-176.544 937.055,-174 1161.07,-153.999 1723.19,-182.237 1961.33,-137.732"/>
<polygon fill="midnightblue" stroke="midnightblue" points="1962.24,-141.12 1971.39,-135.769 1960.9,-134.25 1962.24,-141.12"/>
</g>
<!-- Node39&#45;&gt;Node25 -->
<g id="edge152" class="edge"><title>Node39&#45;&gt;Node25</title>
<path fill="none" stroke="midnightblue" d="M784.051,-181.48C775.776,-178.695 766.635,-175.931 758.055,-174 628.764,-144.9 592.076,-163.639 462.055,-138 460.783,-137.749 459.492,-137.479 458.191,-137.194"/>
<polygon fill="midnightblue" stroke="midnightblue" points="458.716,-133.72 448.173,-134.776 457.073,-140.525 458.716,-133.72"/>
</g>
<!-- Node39&#45;&gt;Node36 -->
<g id="edge138" class="edge"><title>Node39&#45;&gt;Node36</title>
<path fill="none" stroke="midnightblue" d="M771.878,-187.422C738.896,-183.698 690.965,-178.364 649.055,-174 608.192,-169.745 308.655,-168.432 281.055,-138 250.492,-104.302 297.693,-54.3732 327.579,-28.2921"/>
<polygon fill="midnightblue" stroke="midnightblue" points="330.106,-30.7382 335.47,-21.6016 325.579,-25.3989 330.106,-30.7382"/>
</g>
<!-- Node40 -->
<g id="node106" class="node"><title>Node40</title>
<polygon fill="white" stroke="#bfbfbf" points="629.555,-116.5 629.555,-137.5 708.555,-137.5 708.555,-116.5 629.555,-116.5"/>
<text text-anchor="middle" x="669.055" y="-124.5" font-family="Helvetica,sans-Serif" font-size="10.00">detail/format.h</text>
</g>
<!-- Node39&#45;&gt;Node40 -->
<g id="edge132" class="edge"><title>Node39&#45;&gt;Node40</title>
<path fill="none" stroke="midnightblue" d="M788.761,-181.412C765.078,-170.647 728.187,-153.878 701.617,-141.801"/>
<polygon fill="midnightblue" stroke="midnightblue" points="702.891,-138.535 692.339,-137.584 699.994,-144.908 702.891,-138.535"/>
</g>
<!-- Node41 -->
<g id="node108" class="node"><title>Node41</title>
<polygon fill="white" stroke="#bfbfbf" points="725.555,-116.5 725.555,-137.5 774.555,-137.5 774.555,-116.5 725.555,-116.5"/>
<text text-anchor="middle" x="750.055" y="-124.5" font-family="Helvetica,sans-Serif" font-size="10.00">stdint.h</text>
</g>
<!-- Node39&#45;&gt;Node41 -->
<g id="edge134" class="edge"><title>Node39&#45;&gt;Node41</title>
<path fill="none" stroke="midnightblue" d="M801.817,-181.267C792.427,-171.423 778.335,-156.648 767.224,-145"/>
<polygon fill="midnightblue" stroke="midnightblue" points="769.537,-142.354 760.102,-137.534 764.472,-147.186 769.537,-142.354"/>
</g>
<!-- Node42 -->
<g id="node110" class="node"><title>Node42</title>
<polygon fill="white" stroke="#bfbfbf" points="1219.55,-116.5 1219.55,-137.5 1268.55,-137.5 1268.55,-116.5 1219.55,-116.5"/>
<text text-anchor="middle" x="1244.05" y="-124.5" font-family="Helvetica,sans-Serif" font-size="10.00">cassert</text>
</g>
<!-- Node39&#45;&gt;Node42 -->
<g id="edge136" class="edge"><title>Node39&#45;&gt;Node42</title>
<path fill="none" stroke="midnightblue" d="M852.309,-185.943C936.602,-173.26 1130.41,-144.1 1209.49,-132.2"/>
<polygon fill="midnightblue" stroke="midnightblue" points="1210.06,-135.654 1219.43,-130.705 1209.02,-128.732 1210.06,-135.654"/>
</g>
<!-- Node43 -->
<g id="node113" class="node"><title>Node43</title>
<polygon fill="white" stroke="#bfbfbf" points="503.555,-116.5 503.555,-137.5 552.555,-137.5 552.555,-116.5 503.555,-116.5"/>
<text text-anchor="middle" x="528.055" y="-124.5" font-family="Helvetica,sans-Serif" font-size="10.00">cstddef</text>
</g>
<!-- Node39&#45;&gt;Node43 -->
<g id="edge140" class="edge"><title>Node39&#45;&gt;Node43</title>
<path fill="none" stroke="midnightblue" d="M782.852,-181.431C774.877,-178.774 766.191,-176.088 758.055,-174 674.875,-152.65 649.07,-159.585 562.518,-138.129"/>
<polygon fill="midnightblue" stroke="midnightblue" points="563.363,-134.733 552.809,-135.668 561.643,-141.518 563.363,-134.733"/>
</g>
<!-- Node44 -->
<g id="node115" class="node"><title>Node44</title>
<polygon fill="white" stroke="#bfbfbf" points="569.555,-116.5 569.555,-137.5 612.555,-137.5 612.555,-116.5 569.555,-116.5"/>
<text text-anchor="middle" x="591.055" y="-124.5" font-family="Helvetica,sans-Serif" font-size="10.00">cstdio</text>
</g>
<!-- Node39&#45;&gt;Node44 -->
<g id="edge142" class="edge"><title>Node39&#45;&gt;Node44</title>
<path fill="none" stroke="midnightblue" d="M781.607,-181.468C773.95,-178.925 765.727,-176.284 758.055,-174 700.662,-156.913 682.845,-156.822 622.278,-138.197"/>
<polygon fill="midnightblue" stroke="midnightblue" points="623.19,-134.815 612.601,-135.177 621.105,-141.497 623.19,-134.815"/>
</g>
<!-- Node45&#45;&gt;Node7 -->
<g id="edge162" class="edge"><title>Node45&#45;&gt;Node7</title>
<path fill="none" stroke="midnightblue" d="M520.244,-371.748C645.584,-367.334 1051.86,-351.374 1180.05,-326 1259.61,-310.254 1291.84,-321.187 1353.05,-268 1410.07,-218.464 1371.37,-164.754 1429.05,-116 1460.98,-89.0184 1508.15,-77.5216 1541.87,-72.6256"/>
<polygon fill="midnightblue" stroke="midnightblue" points="1542.41,-76.0845 1551.87,-71.3083 1541.49,-69.1445 1542.41,-76.0845"/>
</g>
<!-- Node45&#45;&gt;Node8 -->
<g id="edge168" class="edge"><title>Node45&#45;&gt;Node8</title>
<path fill="none" stroke="midnightblue" d="M445.61,-367.688C315.634,-347.764 -101.467,-270.599 23.055,-116 98.9558,-21.766 169.067,-73.6155 289.055,-58 495.868,-31.085 1164.4,-15.109 1320.33,-11.6928"/>
<polygon fill="midnightblue" stroke="midnightblue" points="1320.73,-15.185 1330.65,-11.4686 1320.58,-8.1866 1320.73,-15.185"/>
</g>
<!-- Node45&#45;&gt;Node22 -->
<g id="edge160" class="edge"><title>Node45&#45;&gt;Node22</title>
<path fill="none" stroke="midnightblue" d="M471.133,-362.362C461.696,-353.941 448.325,-342.011 437.365,-332.231"/>
<polygon fill="midnightblue" stroke="midnightblue" points="439.693,-329.617 429.901,-325.571 435.033,-334.84 439.693,-329.617"/>
</g>
<!-- Node45&#45;&gt;Node25 -->
<g id="edge172" class="edge"><title>Node45&#45;&gt;Node25</title>
<path fill="none" stroke="midnightblue" d="M478.747,-362.138C468.669,-336.252 443.47,-268.703 431.055,-210 426.645,-189.146 424.331,-164.861 423.161,-147.969"/>
<polygon fill="midnightblue" stroke="midnightblue" points="426.63,-147.355 422.522,-137.589 419.643,-147.785 426.63,-147.355"/>
</g>
<!-- Node45&#45;&gt;Node31 -->
<g id="edge170" class="edge"><title>Node45&#45;&gt;Node31</title>
<path fill="none" stroke="midnightblue" d="M509.925,-362.429C544.153,-347.317 601.775,-315.95 626.055,-268 634.898,-250.535 629.978,-228.102 624.174,-212.146"/>
<polygon fill="midnightblue" stroke="midnightblue" points="627.355,-210.676 620.368,-202.712 620.864,-213.296 627.355,-210.676"/>
</g>
<!-- Node46 -->
<g id="node128" class="node"><title>Node46</title>
<a xlink:href="_lorentz_vec_8h.html" target="_top" xlink:title="base/vec/LorentzVec.h">
<polygon fill="white" stroke="black" points="263.555,-304.5 263.555,-325.5 380.555,-325.5 380.555,-304.5 263.555,-304.5"/>
<text text-anchor="middle" x="322.055" y="-312.5" font-family="Helvetica,sans-Serif" font-size="10.00">base/vec/LorentzVec.h</text>
</a>
</g>
<!-- Node45&#45;&gt;Node46 -->
<g id="edge164" class="edge"><title>Node45&#45;&gt;Node46</title>
<path fill="none" stroke="midnightblue" d="M453.899,-362.497C427.879,-353.123 389.576,-339.324 360.951,-329.012"/>
<polygon fill="midnightblue" stroke="midnightblue" points="361.86,-325.62 351.266,-325.523 359.487,-332.205 361.86,-325.62"/>
</g>
<!-- Node46&#45;&gt;Node34 -->
<g id="edge166" class="edge"><title>Node46&#45;&gt;Node34</title>
<path fill="none" stroke="midnightblue" d="M263.372,-309.518C209.684,-303.144 135.962,-290.502 118.055,-268 97.4775,-242.143 114.675,-201.658 146.055,-174 165.73,-156.658 231.171,-143.007 279.335,-134.983"/>
<polygon fill="midnightblue" stroke="midnightblue" points="280.02,-138.418 289.328,-133.357 278.896,-131.509 280.02,-138.418"/>
</g>
<!-- Node47&#45;&gt;Node7 -->
<g id="edge178" class="edge"><title>Node47&#45;&gt;Node7</title>
<path fill="none" stroke="midnightblue" d="M2012.96,-181.312C2037.28,-166.262 2074.14,-138.184 2054.05,-116 2025.44,-84.3871 1733.62,-73.1405 1624.2,-70.0161"/>
<polygon fill="midnightblue" stroke="midnightblue" points="1624.29,-66.5173 1614.19,-69.7386 1624.09,-73.5146 1624.29,-66.5173"/>
</g>
<!-- Node47&#45;&gt;Node10 -->
<g id="edge176" class="edge"><title>Node47&#45;&gt;Node10</title>
<path fill="none" stroke="midnightblue" d="M1983.49,-181.267C1973.7,-171.328 1958.97,-156.363 1947.45,-144.664"/>
<polygon fill="midnightblue" stroke="midnightblue" points="1949.94,-142.204 1940.43,-137.534 1944.95,-147.115 1949.94,-142.204"/>
</g>
<!-- Node47&#45;&gt;Node13 -->
<g id="edge182" class="edge"><title>Node47&#45;&gt;Node13</title>
<path fill="none" stroke="midnightblue" d="M2003.86,-181.304C2017.43,-165.215 2038.39,-134.685 2021.05,-116 1984.84,-76.9498 1595.97,-86.0263 1543.05,-80 1529.31,-78.4351 1514.17,-76.1995 1501.33,-74.1519"/>
<polygon fill="midnightblue" stroke="midnightblue" points="1501.61,-70.6502 1491.17,-72.495 1500.48,-77.559 1501.61,-70.6502"/>
</g>
<!-- Node47&#45;&gt;Node17 -->
<g id="edge184" class="edge"><title>Node47&#45;&gt;Node17</title>
<path fill="none" stroke="midnightblue" d="M2024.57,-187.22C2099.45,-175.492 2292.04,-145.328 2372.68,-132.697"/>
<polygon fill="midnightblue" stroke="midnightblue" points="2373.51,-136.11 2382.85,-131.105 2372.43,-129.195 2373.51,-136.11"/>
</g>
<!-- Node47&#45;&gt;Node18 -->
<g id="edge180" class="edge"><title>Node47&#45;&gt;Node18</title>
<path fill="none" stroke="midnightblue" d="M2014.58,-181.412C2037.01,-169.84 2072.89,-151.33 2096.47,-139.169"/>
<polygon fill="midnightblue" stroke="midnightblue" points="2098.16,-142.233 2105.44,-134.538 2094.95,-136.012 2098.16,-142.233"/>
</g>
<!-- Node48&#45;&gt;Node7 -->
<g id="edge190" class="edge"><title>Node48&#45;&gt;Node7</title>
<path fill="none" stroke="midnightblue" d="M1614.86,-181.217C1629.45,-166.523 1651.07,-139.361 1640.05,-116 1634.1,-103.368 1622.9,-92.9782 1611.99,-85.2091"/>
<polygon fill="midnightblue" stroke="midnightblue" points="1613.68,-82.1346 1603.41,-79.5475 1609.83,-87.977 1613.68,-82.1346"/>
</g>
<!-- Node48&#45;&gt;Node10 -->
<g id="edge188" class="edge"><title>Node48&#45;&gt;Node10</title>
<path fill="none" stroke="midnightblue" d="M1632.91,-184.427C1646.88,-181.013 1663.77,-177.069 1679.05,-174 1772.23,-155.295 1799.96,-161.181 1895.53,-138.117"/>
<polygon fill="midnightblue" stroke="midnightblue" points="1896.44,-141.499 1905.31,-135.714 1894.77,-134.701 1896.44,-141.499"/>
</g>
<!-- Node48&#45;&gt;Node17 -->
<g id="edge202" class="edge"><title>Node48&#45;&gt;Node17</title>
<path fill="none" stroke="midnightblue" d="M1632.79,-183.732C1646.73,-180.173 1663.63,-176.306 1679.05,-174 1815.27,-153.632 2244.71,-134.039 2372.71,-128.529"/>
<polygon fill="midnightblue" stroke="midnightblue" points="2372.93,-132.022 2382.77,-128.098 2372.63,-125.029 2372.93,-132.022"/>
</g>
<!-- Node48&#45;&gt;Node18 -->
<g id="edge200" class="edge"><title>Node48&#45;&gt;Node18</title>
<path fill="none" stroke="midnightblue" d="M1632.83,-184.017C1646.79,-180.517 1663.68,-176.618 1679.05,-174 1829.72,-148.336 1869.1,-154.439 2021.05,-138 2046.3,-135.269 2075.15,-132.053 2095.16,-129.806"/>
<polygon fill="midnightblue" stroke="midnightblue" points="2095.75,-133.262 2105.3,-128.667 2094.97,-126.306 2095.75,-133.262"/>
</g>
<!-- Node48&#45;&gt;Node34 -->
<g id="edge198" class="edge"><title>Node48&#45;&gt;Node34</title>
<path fill="none" stroke="midnightblue" d="M1584.68,-181.43C1578.62,-178.461 1571.73,-175.608 1565.05,-174 1313.55,-113.395 663.279,-167.376 388.787,-137.983"/>
<polygon fill="midnightblue" stroke="midnightblue" points="389.114,-134.497 378.785,-136.854 388.329,-141.453 389.114,-134.497"/>
</g>
<!-- Node49 -->
<g id="node145" class="node"><title>Node49</title>
<a xlink:href="math_8h.html" target="_top" xlink:title="base/std_ext/math.h">
<polygon fill="white" stroke="black" points="982.055,-116.5 982.055,-137.5 1088.05,-137.5 1088.05,-116.5 982.055,-116.5"/>
<text text-anchor="middle" x="1035.05" y="-124.5" font-family="Helvetica,sans-Serif" font-size="10.00">base/std_ext/math.h</text>
</a>
</g>
<!-- Node48&#45;&gt;Node49 -->
<g id="edge192" class="edge"><title>Node48&#45;&gt;Node49</title>
<path fill="none" stroke="midnightblue" d="M1584.23,-181.472C1578.27,-178.582 1571.54,-175.762 1565.05,-174 1521.06,-162.042 1229.77,-140.579 1098.73,-131.38"/>
<polygon fill="midnightblue" stroke="midnightblue" points="1098.67,-127.867 1088.45,-130.66 1098.18,-134.85 1098.67,-127.867"/>
</g>
<!-- Node49&#45;&gt;Node13 -->
<g id="edge196" class="edge"><title>Node49&#45;&gt;Node13</title>
<path fill="none" stroke="midnightblue" d="M1088.06,-118.117C1092.79,-117.379 1097.51,-116.663 1102.05,-116 1227.71,-97.6889 1378.02,-79.7796 1440.99,-72.457"/>
<polygon fill="midnightblue" stroke="midnightblue" points="1441.49,-75.9227 1451.02,-71.2944 1440.68,-68.9693 1441.49,-75.9227"/>
</g>
<!-- Node49&#45;&gt;Node36 -->
<g id="edge194" class="edge"><title>Node49&#45;&gt;Node36</title>
<path fill="none" stroke="midnightblue" d="M981.797,-117.994C846.072,-95.0437 490.256,-34.8765 381.257,-16.4453"/>
<polygon fill="midnightblue" stroke="midnightblue" points="381.65,-12.9622 371.207,-14.7458 380.483,-19.8642 381.65,-12.9622"/>
</g>
<!-- Node50&#45;&gt;Node8 -->
<g id="edge222" class="edge"><title>Node50&#45;&gt;Node8</title>
<path fill="none" stroke="midnightblue" d="M791.308,-246.635C817.898,-237.108 853.023,-222.597 861.055,-210 883.521,-174.766 834.741,-149.985 859.055,-116 913.446,-39.9731 1219.95,-17.7502 1320.85,-12.4468"/>
<polygon fill="midnightblue" stroke="midnightblue" points="1321.23,-15.9323 1331.04,-11.9327 1320.88,-8.94121 1321.23,-15.9323"/>
</g>
<!-- Node50&#45;&gt;Node17 -->
<g id="edge230" class="edge"><title>Node50&#45;&gt;Node17</title>
<path fill="none" stroke="midnightblue" d="M791.181,-256.182C1005.23,-250.536 2251.36,-217.371 2269.05,-210 2290.53,-201.053 2287.79,-187.042 2307.05,-174 2327.59,-160.098 2352.9,-148.409 2373.17,-140.165"/>
<polygon fill="midnightblue" stroke="midnightblue" points="2374.66,-143.337 2382.67,-136.4 2372.08,-136.829 2374.66,-143.337"/>
</g>
<!-- Node50&#45;&gt;Node25 -->
<g id="edge228" class="edge"><title>Node50&#45;&gt;Node25</title>
<path fill="none" stroke="midnightblue" d="M753.414,-246.241C741.553,-228.045 714.868,-191.473 682.055,-174 594.603,-127.431 558.846,-159.165 462.055,-138 460.788,-137.723 459.502,-137.431 458.206,-137.126"/>
<polygon fill="midnightblue" stroke="midnightblue" points="458.757,-133.656 448.206,-134.62 457.055,-140.446 458.757,-133.656"/>
</g>
<!-- Node50&#45;&gt;Node31 -->
<g id="edge226" class="edge"><title>Node50&#45;&gt;Node31</title>
<path fill="none" stroke="midnightblue" d="M736.013,-246.463C714.498,-237.004 682.116,-222.696 654.055,-210 651.736,-208.951 649.343,-207.862 646.936,-206.762"/>
<polygon fill="midnightblue" stroke="midnightblue" points="648.262,-203.519 637.713,-202.528 645.341,-209.881 648.262,-203.519"/>
</g>
<!-- Node50&#45;&gt;Node33 -->
<g id="edge206" class="edge"><title>Node50&#45;&gt;Node33</title>
<path fill="none" stroke="midnightblue" d="M729.004,-249.607C683.389,-238.746 597.602,-218.321 541.402,-204.94"/>
<polygon fill="midnightblue" stroke="midnightblue" points="542.153,-201.521 531.614,-202.609 540.531,-208.33 542.153,-201.521"/>
</g>
<!-- Node50&#45;&gt;Node34 -->
<g id="edge220" class="edge"><title>Node50&#45;&gt;Node34</title>
<path fill="none" stroke="midnightblue" d="M738.787,-246.34C722.467,-237.665 699.8,-224.514 682.055,-210 665.254,-196.258 668.28,-184.075 649.055,-174 547.792,-120.934 505.234,-155.918 388.829,-138.144"/>
<polygon fill="midnightblue" stroke="midnightblue" points="389.266,-134.67 378.834,-136.517 388.141,-141.579 389.266,-134.67"/>
</g>
<!-- Node50&#45;&gt;Node36 -->
<g id="edge224" class="edge"><title>Node50&#45;&gt;Node36</title>
<path fill="none" stroke="midnightblue" d="M728.597,-255.444C669.314,-251.871 537.448,-240.868 431.055,-210 426.374,-208.642 273.701,-142.093 271.055,-138 261.919,-123.87 264.299,-80.282 278.055,-58 287.292,-43.0384 303.272,-31.8336 317.737,-24.1245"/>
<polygon fill="midnightblue" stroke="midnightblue" points="319.535,-27.1395 326.936,-19.559 316.423,-20.8692 319.535,-27.1395"/>
</g>
<!-- Node50&#45;&gt;Node49 -->
<g id="edge208" class="edge"><title>Node50&#45;&gt;Node49</title>
<path fill="none" stroke="midnightblue" d="M791.106,-254.452C864.806,-248.091 1045.46,-230.54 1063.05,-210 1078.79,-191.64 1064.18,-164.073 1050.85,-145.815"/>
<polygon fill="midnightblue" stroke="midnightblue" points="1053.44,-143.442 1044.55,-137.682 1047.9,-147.73 1053.44,-143.442"/>
</g>
<!-- Node51 -->
<g id="node156" class="node"><title>Node51</title>
<a xlink:href="shared__ptr__container_8h.html" target="_top" xlink:title="base/std_ext/shared\l_ptr_container.h">
<polygon fill="white" stroke="black" points="2155.55,-175 2155.55,-209 2260.55,-209 2260.55,-175 2155.55,-175"/>
<text text-anchor="start" x="2163.55" y="-196" font-family="Helvetica,sans-Serif" font-size="10.00">base/std_ext/shared</text>
<text text-anchor="middle" x="2208.05" y="-183" font-family="Helvetica,sans-Serif" font-size="10.00">_ptr_container.h</text>
</a>
</g>
<!-- Node50&#45;&gt;Node51 -->
<g id="edge210" class="edge"><title>Node50&#45;&gt;Node51</title>
<path fill="none" stroke="midnightblue" d="M791.119,-256.13C961.133,-251.329 1780.44,-227.636 2033.05,-210 2070.33,-207.398 2111.95,-203.172 2145.24,-199.468"/>
<polygon fill="midnightblue" stroke="midnightblue" points="2145.75,-202.933 2155.29,-198.338 2144.96,-195.977 2145.75,-202.933"/>
</g>
<!-- Node51&#45;&gt;Node8 -->
<g id="edge212" class="edge"><title>Node51&#45;&gt;Node8</title>
<path fill="none" stroke="midnightblue" d="M2198.57,-174.923C2187.67,-157.048 2168.01,-129.715 2143.05,-116 2008.9,-42.2638 1516.43,-17.549 1385.31,-12.2014"/>
<polygon fill="midnightblue" stroke="midnightblue" points="1385.25,-8.69652 1375.12,-11.7956 1384.97,-15.691 1385.25,-8.69652"/>
</g>
<!-- Node51&#45;&gt;Node11 -->
<g id="edge218" class="edge"><title>Node51&#45;&gt;Node11</title>
<path fill="none" stroke="midnightblue" d="M2155.25,-186.16C2120.55,-182.422 2074.13,-177.614 2033.05,-174 1814.65,-154.781 1759,-161.924 1541.05,-138 1529.01,-136.678 1515.94,-134.885 1504.13,-133.13"/>
<polygon fill="midnightblue" stroke="midnightblue" points="1504.54,-129.653 1494.13,-131.611 1503.49,-136.574 1504.54,-129.653"/>
</g>
<!-- Node51&#45;&gt;Node17 -->
<g id="edge214" class="edge"><title>Node51&#45;&gt;Node17</title>
<path fill="none" stroke="midnightblue" d="M2260.6,-175.007C2296.08,-163.535 2341.97,-148.695 2373.27,-138.571"/>
<polygon fill="midnightblue" stroke="midnightblue" points="2374.46,-141.867 2382.89,-135.46 2372.3,-135.207 2374.46,-141.867"/>
</g>
<!-- Node51&#45;&gt;Node52 -->
<g id="edge216" class="edge"><title>Node51&#45;&gt;Node52</title>
<path fill="none" stroke="midnightblue" d="M2260.79,-181.161C2275.69,-178.439 2291.96,-175.788 2307.05,-174 2587.96,-140.729 2666.08,-185.038 2948.21,-138.004"/>
<polygon fill="midnightblue" stroke="midnightblue" points="2949.06,-141.411 2958.33,-136.292 2947.89,-134.509 2949.06,-141.411"/>
</g>
<!-- Node53&#45;&gt;Node8 -->
<g id="edge238" class="edge"><title>Node53&#45;&gt;Node8</title>
<path fill="none" stroke="midnightblue" d="M1411.97,-304.258C1397.35,-286.194 1369.09,-247.971 1358.05,-210 1339.79,-147.142 1345.82,-68.3635 1350.19,-31.6316"/>
<polygon fill="midnightblue" stroke="midnightblue" points="1353.67,-32.0088 1351.46,-21.6461 1346.72,-31.1225 1353.67,-32.0088"/>
</g>
<!-- Node53&#45;&gt;Node11 -->
<g id="edge246" class="edge"><title>Node53&#45;&gt;Node11</title>
<path fill="none" stroke="midnightblue" d="M1423.6,-304.354C1430.84,-274.107 1451.62,-187.285 1461.16,-147.437"/>
<polygon fill="midnightblue" stroke="midnightblue" points="1464.61,-148.07 1463.53,-137.53 1457.8,-146.44 1464.61,-148.07"/>
</g>
<!-- Node53&#45;&gt;Node17 -->
<g id="edge244" class="edge"><title>Node53&#45;&gt;Node17</title>
<path fill="none" stroke="midnightblue" d="M1458.73,-314.564C1563.82,-312.897 1868.84,-304.978 2119.05,-268 2232.75,-251.197 2281.97,-282.608 2371.05,-210 2390.35,-194.275 2400.27,-166.607 2405.06,-147.567"/>
<polygon fill="midnightblue" stroke="midnightblue" points="2408.49,-148.283 2407.27,-137.758 2401.66,-146.745 2408.49,-148.283"/>
</g>
<!-- Node53&#45;&gt;Node25 -->
<g id="edge242" class="edge"><title>Node53&#45;&gt;Node25</title>
<path fill="none" stroke="midnightblue" d="M1383.3,-311.533C1260.9,-299.897 876.385,-260.134 763.055,-210 739.632,-199.638 741.526,-184.252 718.055,-174 619.213,-130.826 584.334,-156.399 478.055,-138 471.648,-136.891 464.846,-135.627 458.272,-134.362"/>
<polygon fill="midnightblue" stroke="midnightblue" points="458.706,-130.88 448.22,-132.393 457.361,-137.75 458.706,-130.88"/>
</g>
<!-- Node53&#45;&gt;Node31 -->
<g id="edge240" class="edge"><title>Node53&#45;&gt;Node31</title>
<path fill="none" stroke="midnightblue" d="M1383.33,-312.753C1239.9,-304.175 735.792,-273.687 720.055,-268 685.457,-255.498 652.229,-227.972 632.729,-209.707"/>
<polygon fill="midnightblue" stroke="midnightblue" points="635.121,-207.151 625.484,-202.749 630.272,-212.2 635.121,-207.151"/>
</g>
<!-- Node53&#45;&gt;Node33 -->
<g id="edge236" class="edge"><title>Node53&#45;&gt;Node33</title>
<path fill="none" stroke="midnightblue" d="M1383.42,-314.545C1212.4,-312.296 515.555,-301.12 484.055,-268 470.264,-253.5 473.852,-229.534 479.076,-212.391"/>
<polygon fill="midnightblue" stroke="midnightblue" points="482.452,-213.338 482.4,-202.744 475.833,-211.058 482.452,-213.338"/>
</g>
<!-- Node53&#45;&gt;Node50 -->
<g id="edge234" class="edge"><title>Node53&#45;&gt;Node50</title>
<path fill="none" stroke="midnightblue" d="M1383.28,-311.599C1358.02,-309.358 1324.06,-306.404 1294.05,-304 1076.83,-286.597 1020.31,-301.99 805.055,-268 803.804,-267.802 802.536,-267.588 801.259,-267.358"/>
<polygon fill="midnightblue" stroke="midnightblue" points="801.886,-263.914 791.391,-265.365 800.5,-270.776 801.886,-263.914"/>
</g>
<!-- Node54&#45;&gt;Node7 -->
<g id="edge252" class="edge"><title>Node54&#45;&gt;Node7</title>
<path fill="none" stroke="midnightblue" d="M1778.06,-371.885C1860.58,-368.635 2087.14,-357.332 2273.05,-326 2482.67,-290.673 2606.24,-377.548 2737.05,-210 2746.9,-197.389 2741.25,-189.441 2737.05,-174 2729.23,-145.163 2728.66,-131.395 2703.05,-116 2655.99,-87.7088 1821.19,-72.768 1624.38,-69.6296"/>
<polygon fill="midnightblue" stroke="midnightblue" points="1624.22,-66.1269 1614.17,-69.4684 1624.11,-73.126 1624.22,-66.1269"/>
</g>
<!-- Node54&#45;&gt;Node8 -->
<g id="edge288" class="edge"><title>Node54&#45;&gt;Node8</title>
<path fill="none" stroke="midnightblue" d="M1717.95,-362.381C1663.77,-340.764 1543.48,-287.082 1467.05,-210 1412.99,-155.469 1375.68,-70.1531 1360.57,-31.3895"/>
<polygon fill="midnightblue" stroke="midnightblue" points="1363.73,-29.8545 1356.9,-21.7549 1357.19,-32.3458 1363.73,-29.8545"/>
</g>
<!-- Node54&#45;&gt;Node10 -->
<g id="edge254" class="edge"><title>Node54&#45;&gt;Node10</title>
<path fill="none" stroke="midnightblue" d="M1745.9,-362.199C1746.06,-339.044 1749.13,-283.675 1773.05,-246 1803.86,-197.5 1861.84,-161.41 1898.07,-142.327"/>
<polygon fill="midnightblue" stroke="midnightblue" points="1899.93,-145.306 1907.22,-137.622 1896.73,-139.08 1899.93,-145.306"/>
</g>
<!-- Node54&#45;&gt;Node17 -->
<g id="edge294" class="edge"><title>Node54&#45;&gt;Node17</title>
<path fill="none" stroke="midnightblue" d="M1778.18,-371.972C1872.24,-368.634 2145.68,-356.497 2229.05,-326 2314.27,-294.831 2349.24,-287.115 2397.05,-210 2408.69,-191.234 2410.75,-165.574 2410.5,-147.774"/>
<polygon fill="midnightblue" stroke="midnightblue" points="2413.99,-147.452 2410.09,-137.6 2406.99,-147.732 2413.99,-147.452"/>
</g>
<!-- Node54&#45;&gt;Node18 -->
<g id="edge290" class="edge"><title>Node54&#45;&gt;Node18</title>
<path fill="none" stroke="midnightblue" d="M1778.11,-368.92C1860.7,-357.682 2077.28,-323.386 2119.05,-268 2124.94,-260.194 2119.73,-255.755 2119.05,-246 2117.94,-229.885 2115.17,-226.115 2114.05,-210 2112.95,-194.038 2113.04,-189.968 2114.05,-174 2114.6,-165.421 2115.7,-156.015 2116.81,-147.885"/>
<polygon fill="midnightblue" stroke="midnightblue" points="2120.3,-148.19 2118.28,-137.79 2113.38,-147.181 2120.3,-148.19"/>
</g>
<!-- Node54&#45;&gt;Node46 -->
<g id="edge286" class="edge"><title>Node54&#45;&gt;Node46</title>
<path fill="none" stroke="midnightblue" d="M1713.8,-372.445C1536.53,-369.309 678.538,-353.022 390.817,-326.05"/>
<polygon fill="midnightblue" stroke="midnightblue" points="391.115,-322.562 380.825,-325.086 390.442,-329.53 391.115,-322.562"/>
</g>
<!-- Node54&#45;&gt;Node53 -->
<g id="edge250" class="edge"><title>Node54&#45;&gt;Node53</title>
<path fill="none" stroke="midnightblue" d="M1714,-367.28C1656.5,-357.018 1535.57,-335.437 1468.46,-323.46"/>
<polygon fill="midnightblue" stroke="midnightblue" points="1469.03,-320.006 1458.57,-321.694 1467.8,-326.897 1469.03,-320.006"/>
</g>
<!-- Node55 -->
<g id="node183" class="node"><title>Node55</title>
<a xlink:href="_particle_type_8h.html" target="_top" xlink:title="base/ParticleType.h">
<polygon fill="white" stroke="black" points="2006.05,-246.5 2006.05,-267.5 2110.05,-267.5 2110.05,-246.5 2006.05,-246.5"/>
<text text-anchor="middle" x="2058.05" y="-254.5" font-family="Helvetica,sans-Serif" font-size="10.00">base/ParticleType.h</text>
</a>
</g>
<!-- Node54&#45;&gt;Node55 -->
<g id="edge256" class="edge"><title>Node54&#45;&gt;Node55</title>
<path fill="none" stroke="midnightblue" d="M1774.57,-362.398C1830.97,-341.428 1956.79,-294.649 2020.11,-271.107"/>
<polygon fill="midnightblue" stroke="midnightblue" points="2021.57,-274.301 2029.72,-267.535 2019.13,-267.74 2021.57,-274.301"/>
</g>
<!-- Node58 -->
<g id="node194" class="node"><title>Node58</title>
<a xlink:href="_tree_8h.html" target="_top" xlink:title="base/Tree.h">
<polygon fill="white" stroke="black" points="1688.05,-181.5 1688.05,-202.5 1756.05,-202.5 1756.05,-181.5 1688.05,-181.5"/>
<text text-anchor="middle" x="1722.05" y="-189.5" font-family="Helvetica,sans-Serif" font-size="10.00">base/Tree.h</text>
</a>
</g>
<!-- Node54&#45;&gt;Node58 -->
<g id="edge272" class="edge"><title>Node54&#45;&gt;Node58</title>
<path fill="none" stroke="midnightblue" d="M1744.66,-362.486C1740.8,-333.37 1729.92,-251.292 1724.79,-212.63"/>
<polygon fill="midnightblue" stroke="midnightblue" points="1728.24,-211.996 1723.45,-202.543 1721.3,-212.916 1728.24,-211.996"/>
</g>
<!-- Node60 -->
<g id="node206" class="node"><title>Node60</title>
<polygon fill="white" stroke="#bfbfbf" points="2166.05,-304.5 2166.05,-325.5 2220.05,-325.5 2220.05,-304.5 2166.05,-304.5"/>
<text text-anchor="middle" x="2193.05" y="-312.5" font-family="Helvetica,sans-Serif" font-size="10.00">iostream</text>
</g>
<!-- Node54&#45;&gt;Node60 -->
<g id="edge292" class="edge"><title>Node54&#45;&gt;Node60</title>
<path fill="none" stroke="midnightblue" d="M1778.14,-370.895C1847.07,-366.022 2014.23,-352.319 2152.05,-326 2153.32,-325.759 2154.6,-325.5 2155.89,-325.226"/>
<polygon fill="midnightblue" stroke="midnightblue" points="2156.9,-328.585 2165.84,-322.9 2155.3,-321.768 2156.9,-328.585"/>
</g>
<!-- Node55&#45;&gt;Node6 -->
<g id="edge260" class="edge"><title>Node55&#45;&gt;Node6</title>
<path fill="none" stroke="midnightblue" d="M2005.93,-251.015C1990.81,-249.332 1974.28,-247.541 1959.05,-246 1784.11,-228.29 1736.6,-248.645 1565.05,-210 1560.28,-208.924 1555.33,-207.5 1550.51,-205.923"/>
<polygon fill="midnightblue" stroke="midnightblue" points="1551.45,-202.545 1540.86,-202.535 1549.13,-209.15 1551.45,-202.545"/>
</g>
<!-- Node55&#45;&gt;Node8 -->
<g id="edge270" class="edge"><title>Node55&#45;&gt;Node8</title>
<path fill="none" stroke="midnightblue" d="M2005.86,-250.91C1902.64,-238.816 1682.09,-212.699 1679.05,-210 1646.92,-181.411 1671.95,-155.964 1656.05,-116 1645.09,-88.4425 1647.31,-75.0613 1623.05,-58 1585.16,-31.3496 1448.69,-18.0482 1385.53,-13.2081"/>
<polygon fill="midnightblue" stroke="midnightblue" points="1385.57,-9.70155 1375.34,-12.452 1385.06,-16.6824 1385.57,-9.70155"/>
</g>
<!-- Node55&#45;&gt;Node9 -->
<g id="edge264" class="edge"><title>Node55&#45;&gt;Node9</title>
<path fill="none" stroke="midnightblue" d="M2110.21,-255.944C2312.85,-251.67 3038.82,-234.691 3081.05,-210 3113.63,-190.954 3115.65,-174.274 3126.05,-138 3128.75,-128.601 3132.47,-123.382 3126.05,-116 3079.08,-61.909 2563.65,-23.1677 2420.65,-13.4051"/>
<polygon fill="midnightblue" stroke="midnightblue" points="2420.46,-9.88441 2410.25,-12.7014 2419.99,-16.8684 2420.46,-9.88441"/>
</g>
<!-- Node55&#45;&gt;Node10 -->
<g id="edge258" class="edge"><title>Node55&#45;&gt;Node10</title>
<path fill="none" stroke="midnightblue" d="M2005.92,-246.954C1968.75,-238.609 1923.42,-225.603 1912.05,-210 1898.5,-191.398 1908.17,-164.623 1917.78,-146.557"/>
<polygon fill="midnightblue" stroke="midnightblue" points="1921.02,-147.94 1922.96,-137.524 1914.95,-144.455 1921.02,-147.94"/>
</g>
<!-- Node55&#45;&gt;Node15 -->
<g id="edge262" class="edge"><title>Node55&#45;&gt;Node15</title>
<path fill="none" stroke="midnightblue" d="M2009.45,-246.474C1974.8,-237.87 1932.56,-224.751 1922.05,-210 1912.77,-196.969 1914.53,-188.119 1922.05,-174 1930.53,-158.106 1947.03,-146.632 1961.88,-139.002"/>
<polygon fill="midnightblue" stroke="midnightblue" points="1963.77,-141.982 1971.3,-134.535 1960.77,-135.657 1963.77,-141.982"/>
</g>
<!-- Node55&#45;&gt;Node56 -->
<g id="edge266" class="edge"><title>Node55&#45;&gt;Node56</title>
<path fill="none" stroke="midnightblue" d="M2110.16,-255.929C2309.23,-251.66 3012.61,-234.871 3053.05,-210 3075.65,-196.102 3088.37,-167.093 3094.73,-147.329"/>
<polygon fill="midnightblue" stroke="midnightblue" points="3098.09,-148.292 3097.56,-137.711 3091.38,-146.316 3098.09,-148.292"/>
</g>
<!-- Node57 -->
<g id="node191" class="node"><title>Node57</title>
<polygon fill="white" stroke="#bfbfbf" points="2315.55,-181.5 2315.55,-202.5 2362.55,-202.5 2362.55,-181.5 2315.55,-181.5"/>
<text text-anchor="middle" x="2339.05" y="-189.5" font-family="Helvetica,sans-Serif" font-size="10.00">iterator</text>
</g>
<!-- Node55&#45;&gt;Node57 -->
<g id="edge268" class="edge"><title>Node55&#45;&gt;Node57</title>
<path fill="none" stroke="midnightblue" d="M2110.47,-250.953C2160.58,-244.232 2237.8,-231.404 2302.05,-210 2304.85,-209.069 2307.71,-207.97 2310.53,-206.783"/>
<polygon fill="midnightblue" stroke="midnightblue" points="2312.23,-209.854 2319.87,-202.515 2309.32,-203.487 2312.23,-209.854"/>
</g>
<!-- Node58&#45;&gt;Node8 -->
<g id="edge280" class="edge"><title>Node58&#45;&gt;Node8</title>
<path fill="none" stroke="midnightblue" d="M1725.62,-181.251C1733.22,-156.041 1747.89,-92.6299 1716.05,-58 1693.78,-33.774 1469.89,-17.9811 1385.24,-12.8352"/>
<polygon fill="midnightblue" stroke="midnightblue" points="1385.36,-9.33624 1375.17,-12.2335 1384.94,-16.3238 1385.36,-9.33624"/>
</g>
<!-- Node58&#45;&gt;Node11 -->
<g id="edge282" class="edge"><title>Node58&#45;&gt;Node11</title>
<path fill="none" stroke="midnightblue" d="M1687.8,-183.301C1640,-171.165 1553.59,-149.226 1503.93,-136.617"/>
<polygon fill="midnightblue" stroke="midnightblue" points="1504.77,-133.218 1494.21,-134.149 1503.04,-140.003 1504.77,-133.218"/>
</g>
<!-- Node58&#45;&gt;Node17 -->
<g id="edge276" class="edge"><title>Node58&#45;&gt;Node17</title>
<path fill="none" stroke="midnightblue" d="M1756.12,-188.777C1872.42,-177.773 2253.13,-141.753 2372.75,-130.435"/>
<polygon fill="midnightblue" stroke="midnightblue" points="2373.23,-133.906 2382.85,-129.479 2372.57,-126.937 2373.23,-133.906"/>
</g>
<!-- Node58&#45;&gt;Node18 -->
<g id="edge278" class="edge"><title>Node58&#45;&gt;Node18</title>
<path fill="none" stroke="midnightblue" d="M1756.33,-186.402C1834.92,-173.567 2026.59,-142.264 2095.16,-131.066"/>
<polygon fill="midnightblue" stroke="midnightblue" points="2096.12,-134.456 2105.42,-129.39 2094.99,-127.548 2096.12,-134.456"/>
</g>
<!-- Node58&#45;&gt;Node42 -->
<g id="edge284" class="edge"><title>Node58&#45;&gt;Node42</title>
<path fill="none" stroke="midnightblue" d="M1687.92,-183.612C1673.52,-180.283 1656.54,-176.629 1641.05,-174 1508.23,-151.439 1348.58,-136.069 1279.15,-129.956"/>
<polygon fill="midnightblue" stroke="midnightblue" points="1279.07,-126.436 1268.8,-129.055 1278.46,-133.41 1279.07,-126.436"/>
</g>
<!-- Node59 -->
<g id="node196" class="node"><title>Node59</title>
<polygon fill="white" stroke="#bfbfbf" points="1768.05,-116.5 1768.05,-137.5 1888.05,-137.5 1888.05,-116.5 1768.05,-116.5"/>
<text text-anchor="middle" x="1828.05" y="-124.5" font-family="Helvetica,sans-Serif" font-size="10.00">base/cereal/access.hpp</text>
</g>
<!-- Node58&#45;&gt;Node59 -->
<g id="edge274" class="edge"><title>Node58&#45;&gt;Node59</title>
<path fill="none" stroke="midnightblue" d="M1739.56,-181.267C1756.62,-170.807 1782.75,-154.782 1802.2,-142.854"/>
<polygon fill="midnightblue" stroke="midnightblue" points="1804.18,-145.745 1810.88,-137.534 1800.52,-139.778 1804.18,-145.745"/>
</g>
<!-- Node61&#45;&gt;Node15 -->
<g id="edge298" class="edge"><title>Node61&#45;&gt;Node15</title>
<path fill="none" stroke="midnightblue" d="M2629.89,-181.693C2614.91,-178.846 2598.36,-175.995 2583.05,-174 2368.28,-145.999 2312.79,-157.286 2097.05,-138 2072.03,-135.762 2043.69,-132.767 2022.77,-130.466"/>
<polygon fill="midnightblue" stroke="midnightblue" points="2022.88,-126.958 2012.56,-129.335 2022.11,-133.915 2022.88,-126.958"/>
</g>
<!-- Node61&#45;&gt;Node17 -->
<g id="edge300" class="edge"><title>Node61&#45;&gt;Node17</title>
<path fill="none" stroke="midnightblue" d="M2643.5,-181.471C2634.57,-178.928 2624.98,-176.287 2616.05,-174 2556.49,-158.74 2486.63,-143.406 2445.2,-134.577"/>
<polygon fill="midnightblue" stroke="midnightblue" points="2445.82,-131.129 2435.31,-132.476 2444.36,-137.976 2445.82,-131.129"/>
</g>
<!-- Node61&#45;&gt;Node25 -->
<g id="edge306" class="edge"><title>Node61&#45;&gt;Node25</title>
<path fill="none" stroke="midnightblue" d="M2631.43,-181.435C2616.07,-178.467 2598.91,-175.612 2583.05,-174 1659.67,-80.1461 1419.97,-215.317 495.055,-138 483.003,-136.993 469.918,-135.233 458.199,-133.413"/>
<polygon fill="midnightblue" stroke="midnightblue" points="458.742,-129.956 448.312,-131.816 457.625,-136.866 458.742,-129.956"/>
</g>
<!-- Node61&#45;&gt;Node56 -->
<g id="edge302" class="edge"><title>Node61&#45;&gt;Node56</title>
<path fill="none" stroke="midnightblue" d="M2728.17,-184.416C2817.12,-170.684 3002.13,-142.119 3072.28,-131.289"/>
<polygon fill="midnightblue" stroke="midnightblue" points="3073.17,-134.693 3082.52,-129.708 3072.1,-127.775 3073.17,-134.693"/>
</g>
<!-- Node62 -->
<g id="node214" class="node"><title>Node62</title>
<polygon fill="white" stroke="#bfbfbf" points="2664.05,-116.5 2664.05,-137.5 2694.05,-137.5 2694.05,-116.5 2664.05,-116.5"/>
<text text-anchor="middle" x="2679.05" y="-124.5" font-family="Helvetica,sans-Serif" font-size="10.00">set</text>
</g>
<!-- Node61&#45;&gt;Node62 -->
<g id="edge304" class="edge"><title>Node61&#45;&gt;Node62</title>
<path fill="none" stroke="midnightblue" d="M2679.05,-181.267C2679.05,-172.18 2679.05,-158.892 2679.05,-147.74"/>
<polygon fill="midnightblue" stroke="midnightblue" points="2682.56,-147.534 2679.05,-137.534 2675.56,-147.534 2682.56,-147.534"/>
</g>
<!-- Node63&#45;&gt;Node8 -->
<g id="edge314" class="edge"><title>Node63&#45;&gt;Node8</title>
<path fill="none" stroke="midnightblue" d="M3014.07,-174.843C3027.01,-157.935 3041.39,-132.33 3026.05,-116 2967.68,-53.8426 1613.49,-17.4793 1385.5,-11.7881"/>
<polygon fill="midnightblue" stroke="midnightblue" points="1385.3,-8.28217 1375.21,-11.5332 1385.12,-15.28 1385.3,-8.28217"/>
</g>
<!-- Node63&#45;&gt;Node15 -->
<g id="edge310" class="edge"><title>Node63&#45;&gt;Node15</title>
<path fill="none" stroke="midnightblue" d="M2953.41,-181.677C2938.68,-178.722 2922.25,-175.813 2907.05,-174 2549.24,-131.286 2456.41,-164.785 2097.05,-138 2072.15,-136.144 2044.01,-133.147 2023.14,-130.75"/>
<polygon fill="midnightblue" stroke="midnightblue" points="2023.28,-127.243 2012.94,-129.561 2022.47,-134.196 2023.28,-127.243"/>
</g>
<!-- Node63&#45;&gt;Node17 -->
<g id="edge318" class="edge"><title>Node63&#45;&gt;Node17</title>
<path fill="none" stroke="midnightblue" d="M2953.35,-182.13C2938.62,-179.199 2922.2,-176.19 2907.05,-174 2734.97,-149.107 2527.43,-134.402 2445.17,-129.176"/>
<polygon fill="midnightblue" stroke="midnightblue" points="2445.28,-125.677 2435.08,-128.543 2444.85,-132.663 2445.28,-125.677"/>
</g>
<!-- Node63&#45;&gt;Node18 -->
<g id="edge312" class="edge"><title>Node63&#45;&gt;Node18</title>
<path fill="none" stroke="midnightblue" d="M2953.39,-181.816C2938.67,-178.868 2922.23,-175.929 2907.05,-174 2754.14,-154.563 2261.09,-132.946 2144.8,-128.031"/>
<polygon fill="midnightblue" stroke="midnightblue" points="2144.88,-124.532 2134.74,-127.608 2144.59,-131.525 2144.88,-124.532"/>
</g>
<!-- Node63&#45;&gt;Node20 -->
<g id="edge322" class="edge"><title>Node63&#45;&gt;Node20</title>
<path fill="none" stroke="midnightblue" d="M2976.46,-174.922C2963.76,-165.326 2947.98,-153.394 2935.33,-143.837"/>
<polygon fill="midnightblue" stroke="midnightblue" points="2937.24,-140.896 2927.16,-137.658 2933.02,-146.48 2937.24,-140.896"/>
</g>
<!-- Node63&#45;&gt;Node52 -->
<g id="edge320" class="edge"><title>Node63&#45;&gt;Node52</title>
<path fill="none" stroke="midnightblue" d="M2996.16,-174.922C2994.77,-166.67 2993.08,-156.692 2991.61,-147.982"/>
<polygon fill="midnightblue" stroke="midnightblue" points="2995.01,-147.128 2989.89,-137.852 2988.11,-148.296 2995.01,-147.128"/>
</g>
<!-- Node63&#45;&gt;Node56 -->
<g id="edge316" class="edge"><title>Node63&#45;&gt;Node56</title>
<path fill="none" stroke="midnightblue" d="M3025.59,-174.922C3040.79,-165.141 3059.76,-152.934 3074.74,-143.289"/>
<polygon fill="midnightblue" stroke="midnightblue" points="3076.98,-146.013 3083.49,-137.658 3073.19,-140.127 3076.98,-146.013"/>
</g>
<!-- Node68 -->
<g id="node242" class="node"><title>Node68</title>
<polygon fill="white" stroke="#bfbfbf" points="2589.55,-478.5 2589.55,-499.5 2704.55,-499.5 2704.55,-478.5 2589.55,-478.5"/>
<text text-anchor="middle" x="2647.05" y="-486.5" font-family="Helvetica,sans-Serif" font-size="10.00">detail/easylogging++.h</text>
</g>
<!-- Node67&#45;&gt;Node68 -->
<g id="edge348" class="edge"><title>Node67&#45;&gt;Node68</title>
<path fill="none" stroke="midnightblue" d="M2639.71,-536.362C2640.86,-528.922 2642.44,-518.743 2643.84,-509.728"/>
<polygon fill="midnightblue" stroke="midnightblue" points="2647.34,-509.989 2645.41,-499.571 2640.42,-508.916 2647.34,-509.989"/>
</g>
<!-- Node69&#45;&gt;Node53 -->
<g id="edge352" class="edge"><title>Node69&#45;&gt;Node53</title>
<path fill="none" stroke="midnightblue" d="M1571.74,-420.295C1542.71,-400.009 1479.5,-355.84 1444.89,-331.653"/>
<polygon fill="midnightblue" stroke="midnightblue" points="1446.54,-328.538 1436.34,-325.679 1442.53,-334.276 1446.54,-328.538"/>
</g>
<!-- Node69&#45;&gt;Node54 -->
<g id="edge354" class="edge"><title>Node69&#45;&gt;Node54</title>
<path fill="none" stroke="midnightblue" d="M1615.85,-420.497C1641.55,-411.123 1679.37,-397.324 1707.64,-387.012"/>
<polygon fill="midnightblue" stroke="midnightblue" points="1709.01,-390.238 1717.21,-383.523 1706.61,-383.662 1709.01,-390.238"/>
</g>
</g>
</svg>
