<?xml version="1.0" encoding="UTF-8" standalone="no"?>
<!DOCTYPE svg PUBLIC "-//W3C//DTD SVG 1.1//EN"
 "http://www.w3.org/Graphics/SVG/1.1/DTD/svg11.dtd">
<!-- Generated by graphviz version 2.26.3 (20100126.1600)
 -->
<!-- Title: src/analysis/physics/common/EventDisplayHists.h Pages: 1 -->
<svg width="3198pt" height="580pt"
 viewBox="0.00 0.00 3197.74 580.00" xmlns="http://www.w3.org/2000/svg" xmlns:xlink="http://www.w3.org/1999/xlink">
<g id="graph1" class="graph" transform="scale(1 1) rotate(0) translate(4 576)">
<title>src/analysis/physics/common/EventDisplayHists.h</title>
<polygon fill="white" stroke="white" points="-4,5 -4,-576 3194.74,-576 3194.74,5 -4,5"/>
<!-- Node1 -->
<g id="node1" class="node"><title>Node1</title>
<polygon fill="#bfbfbf" stroke="black" points="913.741,-537 913.741,-571 1063.74,-571 1063.74,-537 913.741,-537"/>
<text text-anchor="start" x="921.741" y="-558" font-family="Helvetica,sans-Serif" font-size="10.00">src/analysis/physics</text>
<text text-anchor="middle" x="988.741" y="-545" font-family="Helvetica,sans-Serif" font-size="10.00">/common/EventDisplayHists.h</text>
</g>
<!-- Node2 -->
<g id="node3" class="node"><title>Node2</title>
<a xlink:href="_physics_8h.html" target="_top" xlink:title="analysis/physics/Physics.h">
<polygon fill="white" stroke="black" points="611.741,-478.5 611.741,-499.5 747.741,-499.5 747.741,-478.5 611.741,-478.5"/>
<text text-anchor="middle" x="679.741" y="-486.5" font-family="Helvetica,sans-Serif" font-size="10.00">analysis/physics/Physics.h</text>
</a>
</g>
<!-- Node1&#45;&gt;Node2 -->
<g id="edge2" class="edge"><title>Node1&#45;&gt;Node2</title>
<path fill="none" stroke="midnightblue" d="M913.546,-538.182C860.232,-526.967 789.633,-512.116 740.013,-501.679"/>
<polygon fill="midnightblue" stroke="midnightblue" points="740.575,-498.22 730.069,-499.587 739.134,-505.07 740.575,-498.22"/>
</g>
<!-- Node7 -->
<g id="node13" class="node"><title>Node7</title>
<polygon fill="white" stroke="#bfbfbf" points="1388.74,-0.5 1388.74,-21.5 1432.74,-21.5 1432.74,-0.5 1388.74,-0.5"/>
<text text-anchor="middle" x="1410.74" y="-8.5" font-family="Helvetica,sans-Serif" font-size="10.00">vector</text>
</g>
<!-- Node1&#45;&gt;Node7 -->
<g id="edge342" class="edge"><title>Node1&#45;&gt;Node7</title>
<path fill="none" stroke="midnightblue" d="M1063.87,-553.815C1449.62,-552.384 3189.74,-539.894 3189.74,-431 3189.74,-431 3189.74,-431 3189.74,-127 3189.74,-40.493 3092.59,-74.8385 3007.74,-58 2849.21,-26.5403 1655.59,-13.4066 1443.06,-11.3064"/>
<polygon fill="midnightblue" stroke="midnightblue" points="1442.91,-7.80487 1432.88,-11.2068 1442.84,-14.8045 1442.91,-7.80487"/>
</g>
<!-- Node14 -->
<g id="node27" class="node"><title>Node14</title>
<polygon fill="white" stroke="#bfbfbf" points="284.241,-116.5 284.241,-137.5 325.241,-137.5 325.241,-116.5 284.241,-116.5"/>
<text text-anchor="middle" x="304.741" y="-124.5" font-family="Helvetica,sans-Serif" font-size="10.00">string</text>
</g>
<!-- Node1&#45;&gt;Node14 -->
<g id="edge338" class="edge"><title>Node1&#45;&gt;Node14</title>
<path fill="none" stroke="midnightblue" d="M913.398,-548.891C711.823,-534.602 171.189,-491.985 108.741,-442 15.7088,-367.535 12.1212,-253.666 100.741,-174 157.487,-122.987 196.356,-157.227 274.268,-137.959"/>
<polygon fill="midnightblue" stroke="midnightblue" points="275.228,-141.325 283.967,-135.335 273.4,-134.568 275.228,-141.325"/>
</g>
<!-- Node16 -->
<g id="node31" class="node"><title>Node16</title>
<polygon fill="white" stroke="#bfbfbf" points="1125.74,-116.5 1125.74,-137.5 1177.74,-137.5 1177.74,-116.5 1125.74,-116.5"/>
<text text-anchor="middle" x="1151.74" y="-124.5" font-family="Helvetica,sans-Serif" font-size="10.00">memory</text>
</g>
<!-- Node1&#45;&gt;Node16 -->
<g id="edge340" class="edge"><title>Node1&#45;&gt;Node16</title>
<path fill="none" stroke="midnightblue" d="M1063.87,-540.364C1157.61,-521.165 1305.74,-482.653 1305.74,-431 1305.74,-431 1305.74,-431 1305.74,-315 1305.74,-262.816 1254.05,-275.112 1210.74,-246 1185.56,-229.074 1167.65,-236.424 1152.74,-210 1141.95,-190.875 1143.65,-165.112 1146.8,-147.388"/>
<polygon fill="midnightblue" stroke="midnightblue" points="1150.24,-148.025 1148.84,-137.523 1143.38,-146.604 1150.24,-148.025"/>
</g>
<!-- Node3 -->
<g id="node5" class="node"><title>Node3</title>
<a xlink:href="manager__t_8h.html" target="_top" xlink:title="analysis/physics/manager_t.h">
<polygon fill="white" stroke="black" points="664.741,-420.5 664.741,-441.5 810.741,-441.5 810.741,-420.5 664.741,-420.5"/>
<text text-anchor="middle" x="737.741" y="-428.5" font-family="Helvetica,sans-Serif" font-size="10.00">analysis/physics/manager_t.h</text>
</a>
</g>
<!-- Node2&#45;&gt;Node3 -->
<g id="edge4" class="edge"><title>Node2&#45;&gt;Node3</title>
<path fill="none" stroke="midnightblue" d="M690.379,-478.362C698.637,-470.104 710.269,-458.472 719.938,-448.803"/>
<polygon fill="midnightblue" stroke="midnightblue" points="722.574,-451.117 727.17,-441.571 717.624,-446.167 722.574,-451.117"/>
</g>
<!-- Node4 -->
<g id="node7" class="node"><title>Node4</title>
<a xlink:href="_histogram_factories_8h.html" target="_top" xlink:title="analysis/plot/HistogramFactories.h">
<polygon fill="white" stroke="black" points="1033.74,-246.5 1033.74,-267.5 1201.74,-267.5 1201.74,-246.5 1033.74,-246.5"/>
<text text-anchor="middle" x="1117.74" y="-254.5" font-family="Helvetica,sans-Serif" font-size="10.00">analysis/plot/HistogramFactories.h</text>
</a>
</g>
<!-- Node2&#45;&gt;Node4 -->
<g id="edge6" class="edge"><title>Node2&#45;&gt;Node4</title>
<path fill="none" stroke="midnightblue" d="M747.935,-481.722C856.105,-468.682 1059.54,-437.573 1105.74,-384 1131.17,-354.519 1127.33,-305.646 1122.43,-277.911"/>
<polygon fill="midnightblue" stroke="midnightblue" points="1125.8,-276.887 1120.42,-267.758 1118.93,-278.247 1125.8,-276.887"/>
</g>
<!-- Node2&#45;&gt;Node14 -->
<g id="edge330" class="edge"><title>Node2&#45;&gt;Node14</title>
<path fill="none" stroke="midnightblue" d="M611.483,-486.05C530.62,-481.41 392.298,-469.856 276.741,-442 191.43,-421.435 91.741,-460.755 91.741,-373 91.741,-373 91.741,-373 91.741,-257 91.741,-213.704 108.067,-199.928 142.741,-174 189.293,-139.189 214.816,-155.041 274.375,-138.08"/>
<polygon fill="midnightblue" stroke="midnightblue" points="275.696,-141.336 284.234,-135.063 273.648,-134.642 275.696,-141.336"/>
</g>
<!-- Node15 -->
<g id="node29" class="node"><title>Node15</title>
<a xlink:href="memory_8h.html" target="_top" xlink:title="base/std_ext/memory.h">
<polygon fill="white" stroke="black" points="1455.24,-181.5 1455.24,-202.5 1574.24,-202.5 1574.24,-181.5 1455.24,-181.5"/>
<text text-anchor="middle" x="1514.74" y="-189.5" font-family="Helvetica,sans-Serif" font-size="10.00">base/std_ext/memory.h</text>
</a>
</g>
<!-- Node2&#45;&gt;Node15 -->
<g id="edge28" class="edge"><title>Node2&#45;&gt;Node15</title>
<path fill="none" stroke="midnightblue" d="M748.01,-481.687C895.305,-464.985 1229.74,-421.702 1229.74,-373 1229.74,-373 1229.74,-373 1229.74,-315 1229.74,-288.934 1392.53,-232.013 1472.04,-205.763"/>
<polygon fill="midnightblue" stroke="midnightblue" points="1473.36,-209.014 1481.77,-202.568 1471.18,-202.364 1473.36,-209.014"/>
</g>
<!-- Node2&#45;&gt;Node16 -->
<g id="edge334" class="edge"><title>Node2&#45;&gt;Node16</title>
<path fill="none" stroke="midnightblue" d="M726.665,-478.469C762.199,-469.57 807,-456.058 819.741,-442 879.762,-375.775 803.507,-311.105 864.741,-246 903.473,-204.819 937.398,-237.592 986.741,-210 1007.62,-198.327 1006.3,-186.424 1026.74,-174 1054.72,-156.988 1089.88,-144.441 1115.78,-136.61"/>
<polygon fill="midnightblue" stroke="midnightblue" points="1116.95,-139.913 1125.56,-133.742 1114.98,-133.196 1116.95,-139.913"/>
</g>
<!-- Node17 -->
<g id="node33" class="node"><title>Node17</title>
<polygon fill="white" stroke="#bfbfbf" points="1556.24,-116.5 1556.24,-137.5 1585.24,-137.5 1585.24,-116.5 1556.24,-116.5"/>
<text text-anchor="middle" x="1570.74" y="-124.5" font-family="Helvetica,sans-Serif" font-size="10.00">list</text>
</g>
<!-- Node2&#45;&gt;Node17 -->
<g id="edge328" class="edge"><title>Node2&#45;&gt;Node17</title>
<path fill="none" stroke="midnightblue" d="M747.943,-485.265C830.699,-479.821 974.13,-467.443 1094.74,-442 1375.3,-382.814 1546.21,-454.043 1696.74,-210 1705.14,-196.382 1705.87,-187.143 1696.74,-174 1684.91,-156.954 1628.75,-140.919 1595.54,-132.71"/>
<polygon fill="midnightblue" stroke="midnightblue" points="1596.19,-129.266 1585.64,-130.328 1594.55,-136.072 1596.19,-129.266"/>
</g>
<!-- Node18 -->
<g id="node35" class="node"><title>Node18</title>
<a xlink:href="_t_event_8h.html" target="_top" xlink:title="tree/TEvent.h">
<polygon fill="white" stroke="black" points="2507.74,-181.5 2507.74,-202.5 2583.74,-202.5 2583.74,-181.5 2507.74,-181.5"/>
<text text-anchor="middle" x="2545.74" y="-189.5" font-family="Helvetica,sans-Serif" font-size="10.00">tree/TEvent.h</text>
</a>
</g>
<!-- Node2&#45;&gt;Node18 -->
<g id="edge34" class="edge"><title>Node2&#45;&gt;Node18</title>
<path fill="none" stroke="midnightblue" d="M747.98,-487.081C1110.45,-476.666 2793.74,-425.479 2793.74,-373 2793.74,-373 2793.74,-373 2793.74,-315 2793.74,-291.81 2652.77,-233.672 2583.4,-206.465"/>
<polygon fill="midnightblue" stroke="midnightblue" points="2584.3,-203.058 2573.71,-202.683 2581.75,-209.579 2584.3,-203.058"/>
</g>
<!-- Node20 -->
<g id="node42" class="node"><title>Node20</title>
<a xlink:href="_t_event_data_8h.html" target="_top" xlink:title="tree/TEventData.h">
<polygon fill="white" stroke="black" points="1748.24,-420.5 1748.24,-441.5 1845.24,-441.5 1845.24,-420.5 1748.24,-420.5"/>
<text text-anchor="middle" x="1796.74" y="-428.5" font-family="Helvetica,sans-Serif" font-size="10.00">tree/TEventData.h</text>
</a>
</g>
<!-- Node2&#45;&gt;Node20 -->
<g id="edge44" class="edge"><title>Node2&#45;&gt;Node20</title>
<path fill="none" stroke="midnightblue" d="M747.794,-486.087C904.376,-479.288 1302.27,-461.467 1634.74,-442 1669,-439.994 1707.31,-437.408 1738.07,-435.248"/>
<polygon fill="midnightblue" stroke="midnightblue" points="1738.47,-438.729 1748.2,-434.533 1737.98,-431.746 1738.47,-438.729"/>
</g>
<!-- Node51 -->
<g id="node158" class="node"><title>Node51</title>
<polygon fill="white" stroke="#bfbfbf" points="208.241,-116.5 208.241,-137.5 267.241,-137.5 267.241,-116.5 208.241,-116.5"/>
<text text-anchor="middle" x="237.741" y="-124.5" font-family="Helvetica,sans-Serif" font-size="10.00">functional</text>
</g>
<!-- Node2&#45;&gt;Node51 -->
<g id="edge336" class="edge"><title>Node2&#45;&gt;Node51</title>
<path fill="none" stroke="midnightblue" d="M611.488,-487.332C468.744,-483.28 148.542,-471.037 108.741,-442 9.37836,-369.509 -39.0766,-268.423 39.741,-174 84.4425,-120.448 125.469,-153.042 197.96,-138.126"/>
<polygon fill="midnightblue" stroke="midnightblue" points="198.966,-141.486 207.917,-135.818 197.385,-134.667 198.966,-141.486"/>
</g>
<!-- Node55 -->
<g id="node187" class="node"><title>Node55</title>
<polygon fill="white" stroke="#bfbfbf" points="342.241,-116.5 342.241,-137.5 377.241,-137.5 377.241,-116.5 342.241,-116.5"/>
<text text-anchor="middle" x="359.741" y="-124.5" font-family="Helvetica,sans-Serif" font-size="10.00">map</text>
</g>
<!-- Node2&#45;&gt;Node55 -->
<g id="edge332" class="edge"><title>Node2&#45;&gt;Node55</title>
<path fill="none" stroke="midnightblue" d="M611.561,-481.013C507.691,-466.919 321.741,-433.271 321.741,-373 321.741,-373 321.741,-373 321.741,-257 321.741,-216.7 338.773,-172.094 350.031,-147.01"/>
<polygon fill="midnightblue" stroke="midnightblue" points="353.263,-148.36 354.297,-137.816 346.913,-145.414 353.263,-148.36"/>
</g>
<!-- Node60 -->
<g id="node207" class="node"><title>Node60</title>
<a xlink:href="_options_list_8h.html" target="_top" xlink:title="base/OptionsList.h">
<polygon fill="white" stroke="black" points="195.741,-181.5 195.741,-202.5 293.741,-202.5 293.741,-181.5 195.741,-181.5"/>
<text text-anchor="middle" x="244.741" y="-189.5" font-family="Helvetica,sans-Serif" font-size="10.00">base/OptionsList.h</text>
</a>
</g>
<!-- Node2&#45;&gt;Node60 -->
<g id="edge294" class="edge"><title>Node2&#45;&gt;Node60</title>
<path fill="none" stroke="midnightblue" d="M611.601,-487.23C518.321,-483.667 356.829,-473.078 307.741,-442 277.011,-422.545 263.741,-409.371 263.741,-373 263.741,-373 263.741,-373 263.741,-315 263.741,-278.649 255.536,-236.956 249.909,-212.64"/>
<polygon fill="midnightblue" stroke="midnightblue" points="253.279,-211.682 247.545,-202.773 246.472,-213.313 253.279,-211.682"/>
</g>
<!-- Node62 -->
<g id="node215" class="node"><title>Node62</title>
<a xlink:href="root__draw_8h.html" target="_top" xlink:title="analysis/plot/root\l_draw.h">
<polygon fill="white" stroke="black" points="387.241,-175 387.241,-209 478.241,-209 478.241,-175 387.241,-175"/>
<text text-anchor="start" x="395.241" y="-196" font-family="Helvetica,sans-Serif" font-size="10.00">analysis/plot/root</text>
<text text-anchor="middle" x="432.741" y="-183" font-family="Helvetica,sans-Serif" font-size="10.00">_draw.h</text>
</a>
</g>
<!-- Node2&#45;&gt;Node62 -->
<g id="edge306" class="edge"><title>Node2&#45;&gt;Node62</title>
<path fill="none" stroke="midnightblue" d="M611.668,-482.791C553.108,-476.084 474.565,-463.377 451.741,-442 428.526,-420.256 432.741,-404.808 432.741,-373 432.741,-373 432.741,-373 432.741,-315 432.741,-282.075 432.741,-244.193 432.741,-219.268"/>
<polygon fill="midnightblue" stroke="midnightblue" points="436.241,-219.112 432.741,-209.112 429.241,-219.112 436.241,-219.112"/>
</g>
<!-- Node63 -->
<g id="node224" class="node"><title>Node63</title>
<polygon fill="white" stroke="#bfbfbf" points="460.241,-420.5 460.241,-441.5 511.241,-441.5 511.241,-420.5 460.241,-420.5"/>
<text text-anchor="middle" x="485.741" y="-428.5" font-family="Helvetica,sans-Serif" font-size="10.00">TH1D.h</text>
</g>
<!-- Node2&#45;&gt;Node63 -->
<g id="edge322" class="edge"><title>Node2&#45;&gt;Node63</title>
<path fill="none" stroke="midnightblue" d="M642.797,-478.456C612.406,-469.714 567.979,-456.778 521.065,-442.363"/>
<polygon fill="midnightblue" stroke="midnightblue" points="521.925,-438.965 511.337,-439.363 519.862,-445.655 521.925,-438.965"/>
</g>
<!-- Node64 -->
<g id="node226" class="node"><title>Node64</title>
<polygon fill="white" stroke="#bfbfbf" points="528.241,-420.5 528.241,-441.5 579.241,-441.5 579.241,-420.5 528.241,-420.5"/>
<text text-anchor="middle" x="553.741" y="-428.5" font-family="Helvetica,sans-Serif" font-size="10.00">TH2D.h</text>
</g>
<!-- Node2&#45;&gt;Node64 -->
<g id="edge324" class="edge"><title>Node2&#45;&gt;Node64</title>
<path fill="none" stroke="midnightblue" d="M656.923,-478.497C637.155,-469.397 608.328,-456.127 586.165,-445.925"/>
<polygon fill="midnightblue" stroke="midnightblue" points="587.362,-442.623 576.815,-441.621 584.435,-448.982 587.362,-442.623"/>
</g>
<!-- Node65 -->
<g id="node228" class="node"><title>Node65</title>
<polygon fill="white" stroke="#bfbfbf" points="596.241,-420.5 596.241,-441.5 647.241,-441.5 647.241,-420.5 596.241,-420.5"/>
<text text-anchor="middle" x="621.741" y="-428.5" font-family="Helvetica,sans-Serif" font-size="10.00">TH3D.h</text>
</g>
<!-- Node2&#45;&gt;Node65 -->
<g id="edge326" class="edge"><title>Node2&#45;&gt;Node65</title>
<path fill="none" stroke="midnightblue" d="M669.103,-478.362C660.845,-470.104 649.214,-458.472 639.544,-448.803"/>
<polygon fill="midnightblue" stroke="midnightblue" points="641.858,-446.167 632.312,-441.571 636.908,-451.117 641.858,-446.167"/>
</g>
<!-- Node5 -->
<g id="node9" class="node"><title>Node5</title>
<a xlink:href="interval_8h.html" target="_top" xlink:title="base/interval.h">
<polygon fill="white" stroke="black" points="2333.74,-181.5 2333.74,-202.5 2413.74,-202.5 2413.74,-181.5 2333.74,-181.5"/>
<text text-anchor="middle" x="2373.74" y="-189.5" font-family="Helvetica,sans-Serif" font-size="10.00">base/interval.h</text>
</a>
</g>
<!-- Node4&#45;&gt;Node5 -->
<g id="edge8" class="edge"><title>Node4&#45;&gt;Node5</title>
<path fill="none" stroke="midnightblue" d="M1202,-256.418C1390.14,-254.479 1858.59,-246.104 2248.74,-210 2273.45,-207.714 2300.74,-203.931 2323.5,-200.422"/>
<polygon fill="midnightblue" stroke="midnightblue" points="2324.28,-203.843 2333.61,-198.836 2323.19,-196.928 2324.28,-203.843"/>
</g>
<!-- Node4&#45;&gt;Node14 -->
<g id="edge26" class="edge"><title>Node4&#45;&gt;Node14</title>
<path fill="none" stroke="midnightblue" d="M1033.57,-249.424C1018.01,-248.168 1001.89,-246.963 986.741,-246 940.513,-243.061 185.78,-243.454 153.741,-210 142.674,-198.445 144.161,-186.815 153.741,-174 185.805,-131.108 218.518,-153.359 274.623,-137.947"/>
<polygon fill="midnightblue" stroke="midnightblue" points="275.681,-141.284 284.215,-135.005 273.628,-134.591 275.681,-141.284"/>
</g>
<!-- Node6 -->
<g id="node11" class="node"><title>Node6</title>
<a xlink:href="printable_8h.html" target="_top" xlink:title="printable.h">
<polygon fill="white" stroke="black" points="2894.74,-58.5 2894.74,-79.5 2956.74,-79.5 2956.74,-58.5 2894.74,-58.5"/>
<text text-anchor="middle" x="2925.74" y="-66.5" font-family="Helvetica,sans-Serif" font-size="10.00">printable.h</text>
</a>
</g>
<!-- Node5&#45;&gt;Node6 -->
<g id="edge10" class="edge"><title>Node5&#45;&gt;Node6</title>
<path fill="none" stroke="midnightblue" d="M2340.93,-181.482C2333.02,-178.99 2324.59,-176.369 2316.74,-174 2258.11,-156.302 2149.84,-160.669 2191.74,-116 2215.57,-90.5911 2732.31,-74.3444 2884.15,-70.1065"/>
<polygon fill="midnightblue" stroke="midnightblue" points="2884.54,-73.5971 2894.43,-69.8221 2884.34,-66.5998 2884.54,-73.5971"/>
</g>
<!-- Node9 -->
<g id="node17" class="node"><title>Node9</title>
<a xlink:href="types_8h.html" target="_top" xlink:title="types.h">
<polygon fill="white" stroke="black" points="1992.24,-116.5 1992.24,-137.5 2041.24,-137.5 2041.24,-116.5 1992.24,-116.5"/>
<text text-anchor="middle" x="2016.74" y="-124.5" font-family="Helvetica,sans-Serif" font-size="10.00">types.h</text>
</a>
</g>
<!-- Node5&#45;&gt;Node9 -->
<g id="edge16" class="edge"><title>Node5&#45;&gt;Node9</title>
<path fill="none" stroke="midnightblue" d="M2345.44,-181.462C2337.24,-178.711 2328.21,-175.969 2319.74,-174 2203.97,-147.089 2171.03,-162.591 2054.74,-138 2053.67,-137.773 2052.58,-137.531 2051.48,-137.277"/>
<polygon fill="midnightblue" stroke="midnightblue" points="2052.1,-133.824 2041.55,-134.747 2050.37,-140.607 2052.1,-133.824"/>
</g>
<!-- Node10 -->
<g id="node19" class="node"><title>Node10</title>
<polygon fill="white" stroke="#bfbfbf" points="1742.74,-116.5 1742.74,-137.5 1798.74,-137.5 1798.74,-116.5 1742.74,-116.5"/>
<text text-anchor="middle" x="1770.74" y="-124.5" font-family="Helvetica,sans-Serif" font-size="10.00">algorithm</text>
</g>
<!-- Node5&#45;&gt;Node10 -->
<g id="edge18" class="edge"><title>Node5&#45;&gt;Node10</title>
<path fill="none" stroke="midnightblue" d="M2333.56,-185.652C2309.09,-181.926 2277.16,-177.313 2248.74,-174 2070.13,-153.177 2024.33,-159.056 1845.74,-138 1833.71,-136.582 1820.64,-134.761 1808.83,-133.011"/>
<polygon fill="midnightblue" stroke="midnightblue" points="1809.24,-129.534 1798.83,-131.504 1808.19,-136.456 1809.24,-129.534"/>
</g>
<!-- Node11 -->
<g id="node21" class="node"><title>Node11</title>
<polygon fill="white" stroke="#bfbfbf" points="2274.24,-116.5 2274.24,-137.5 2333.24,-137.5 2333.24,-116.5 2274.24,-116.5"/>
<text text-anchor="middle" x="2303.74" y="-124.5" font-family="Helvetica,sans-Serif" font-size="10.00">stdexcept</text>
</g>
<!-- Node5&#45;&gt;Node11 -->
<g id="edge20" class="edge"><title>Node5&#45;&gt;Node11</title>
<path fill="none" stroke="midnightblue" d="M2362.18,-181.267C2351.48,-171.328 2335.36,-156.363 2322.76,-144.664"/>
<polygon fill="midnightblue" stroke="midnightblue" points="2324.79,-141.773 2315.09,-137.534 2320.03,-146.903 2324.79,-141.773"/>
</g>
<!-- Node12 -->
<g id="node23" class="node"><title>Node12</title>
<polygon fill="white" stroke="#bfbfbf" points="1675.74,-58.5 1675.74,-79.5 1715.74,-79.5 1715.74,-58.5 1675.74,-58.5"/>
<text text-anchor="middle" x="1695.74" y="-66.5" font-family="Helvetica,sans-Serif" font-size="10.00">limits</text>
</g>
<!-- Node5&#45;&gt;Node12 -->
<g id="edge22" class="edge"><title>Node5&#45;&gt;Node12</title>
<path fill="none" stroke="midnightblue" d="M2343.21,-181.431C2334.71,-178.744 2325.43,-176.042 2316.74,-174 2216.45,-150.421 2184.86,-172.394 2087.74,-138 2069.35,-131.485 2068.21,-122.294 2049.74,-116 1989.89,-95.6074 1800.69,-77.8742 1726.25,-71.5082"/>
<polygon fill="midnightblue" stroke="midnightblue" points="1726.39,-68.0075 1716.13,-70.6524 1725.8,-74.9826 1726.39,-68.0075"/>
</g>
<!-- Node13 -->
<g id="node25" class="node"><title>Node13</title>
<polygon fill="white" stroke="#bfbfbf" points="2096.24,-116.5 2096.24,-137.5 2145.24,-137.5 2145.24,-116.5 2096.24,-116.5"/>
<text text-anchor="middle" x="2120.74" y="-124.5" font-family="Helvetica,sans-Serif" font-size="10.00">istream</text>
</g>
<!-- Node5&#45;&gt;Node13 -->
<g id="edge24" class="edge"><title>Node5&#45;&gt;Node13</title>
<path fill="none" stroke="midnightblue" d="M2343.92,-181.456C2336.1,-178.858 2327.64,-176.195 2319.74,-174 2249.09,-154.381 2229.77,-156.203 2158.74,-138 2157.68,-137.727 2156.6,-137.446 2155.51,-137.157"/>
<polygon fill="midnightblue" stroke="midnightblue" points="2156.19,-133.715 2145.62,-134.44 2154.33,-140.464 2156.19,-133.715"/>
</g>
<!-- Node6&#45;&gt;Node7 -->
<g id="edge12" class="edge"><title>Node6&#45;&gt;Node7</title>
<path fill="none" stroke="midnightblue" d="M2894.43,-60.4657C2889.87,-59.4795 2885.2,-58.61 2880.74,-58 2589.14,-18.1402 1630.71,-11.9556 1442.85,-11.1195"/>
<polygon fill="midnightblue" stroke="midnightblue" points="1442.81,-7.61937 1432.79,-11.0766 1442.78,-14.6193 1442.81,-7.61937"/>
</g>
<!-- Node8 -->
<g id="node15" class="node"><title>Node8</title>
<polygon fill="white" stroke="#bfbfbf" points="3050.74,-0.5 3050.74,-21.5 3102.74,-21.5 3102.74,-0.5 3050.74,-0.5"/>
<text text-anchor="middle" x="3076.74" y="-8.5" font-family="Helvetica,sans-Serif" font-size="10.00">ostream</text>
</g>
<!-- Node6&#45;&gt;Node8 -->
<g id="edge14" class="edge"><title>Node6&#45;&gt;Node8</title>
<path fill="none" stroke="midnightblue" d="M2953.09,-58.4966C2977.76,-49.0185 3014.22,-35.0162 3041.15,-24.6688"/>
<polygon fill="midnightblue" stroke="midnightblue" points="3042.53,-27.8901 3050.61,-21.0371 3040.02,-21.3556 3042.53,-27.8901"/>
</g>
<!-- Node15&#45;&gt;Node16 -->
<g id="edge30" class="edge"><title>Node15&#45;&gt;Node16</title>
<path fill="none" stroke="midnightblue" d="M1477.49,-181.416C1467.55,-178.79 1456.78,-176.122 1446.74,-174 1354.27,-154.446 1243.94,-138.913 1188.06,-131.586"/>
<polygon fill="midnightblue" stroke="midnightblue" points="1188.32,-128.09 1177.95,-130.272 1187.41,-135.032 1188.32,-128.09"/>
</g>
<!-- Node15&#45;&gt;Node17 -->
<g id="edge32" class="edge"><title>Node15&#45;&gt;Node17</title>
<path fill="none" stroke="midnightblue" d="M1523.99,-181.267C1532.39,-171.517 1544.95,-156.932 1554.94,-145.336"/>
<polygon fill="midnightblue" stroke="midnightblue" points="1557.79,-147.394 1561.67,-137.534 1552.49,-142.825 1557.79,-147.394"/>
</g>
<!-- Node18&#45;&gt;Node6 -->
<g id="edge38" class="edge"><title>Node18&#45;&gt;Node6</title>
<path fill="none" stroke="midnightblue" d="M2544.19,-181.374C2542.43,-164.81 2541.82,-132.974 2559.74,-116 2583.01,-93.9665 2793.47,-77.6649 2884.31,-71.5942"/>
<polygon fill="midnightblue" stroke="midnightblue" points="2884.77,-75.0716 2894.52,-70.9216 2884.31,-68.0867 2884.77,-75.0716"/>
</g>
<!-- Node18&#45;&gt;Node11 -->
<g id="edge42" class="edge"><title>Node18&#45;&gt;Node11</title>
<path fill="none" stroke="midnightblue" d="M2517.03,-181.482C2509.5,-178.884 2501.36,-176.213 2493.74,-174 2430.07,-155.491 2410.61,-155.605 2343.39,-138.341"/>
<polygon fill="midnightblue" stroke="midnightblue" points="2344.13,-134.919 2333.57,-135.786 2342.37,-141.693 2344.13,-134.919"/>
</g>
<!-- Node18&#45;&gt;Node16 -->
<g id="edge40" class="edge"><title>Node18&#45;&gt;Node16</title>
<path fill="none" stroke="midnightblue" d="M2507.64,-185.329C2483.41,-181.359 2451.33,-176.602 2422.74,-174 1982.94,-133.967 1871.05,-154.73 1429.74,-138 1343.04,-134.713 1241.14,-130.623 1188.06,-128.475"/>
<polygon fill="midnightblue" stroke="midnightblue" points="1187.94,-124.968 1177.8,-128.06 1187.65,-131.962 1187.94,-124.968"/>
</g>
<!-- Node19 -->
<g id="node37" class="node"><title>Node19</title>
<polygon fill="white" stroke="#bfbfbf" points="2200.74,-116.5 2200.74,-137.5 2256.74,-137.5 2256.74,-116.5 2200.74,-116.5"/>
<text text-anchor="middle" x="2228.74" y="-124.5" font-family="Helvetica,sans-Serif" font-size="10.00">Rtypes.h</text>
</g>
<!-- Node18&#45;&gt;Node19 -->
<g id="edge36" class="edge"><title>Node18&#45;&gt;Node19</title>
<path fill="none" stroke="midnightblue" d="M2507.66,-184.295C2491.64,-181.076 2472.79,-177.32 2455.74,-174 2374.43,-158.166 2350.94,-158.244 2266.68,-138.063"/>
<polygon fill="midnightblue" stroke="midnightblue" points="2267.49,-134.657 2256.94,-135.706 2265.84,-141.46 2267.49,-134.657"/>
</g>
<!-- Node20&#45;&gt;Node6 -->
<g id="edge46" class="edge"><title>Node20&#45;&gt;Node6</title>
<path fill="none" stroke="midnightblue" d="M1845.37,-429.437C2087.52,-421.342 3151.74,-381.957 3151.74,-315 3151.74,-315 3151.74,-315 3151.74,-192 3151.74,-108.892 3032.38,-81.6169 2967.14,-72.9166"/>
<polygon fill="midnightblue" stroke="midnightblue" points="2967.52,-69.4367 2957.17,-71.6741 2966.66,-76.3831 2967.52,-69.4367"/>
</g>
<!-- Node21 -->
<g id="node45" class="node"><title>Node21</title>
<a xlink:href="_t_i_d_8h.html" target="_top" xlink:title="TID.h">
<polygon fill="white" stroke="black" points="1963.24,-304.5 1963.24,-325.5 2004.24,-325.5 2004.24,-304.5 1963.24,-304.5"/>
<text text-anchor="middle" x="1983.74" y="-312.5" font-family="Helvetica,sans-Serif" font-size="10.00">TID.h</text>
</a>
</g>
<!-- Node20&#45;&gt;Node21 -->
<g id="edge48" class="edge"><title>Node20&#45;&gt;Node21</title>
<path fill="none" stroke="midnightblue" d="M1821.21,-420.402C1840.8,-411.566 1868.7,-398.172 1891.74,-384 1917.46,-368.178 1944.9,-346.967 1963.06,-332.257"/>
<polygon fill="midnightblue" stroke="midnightblue" points="1965.65,-334.654 1971.17,-325.61 1961.22,-329.238 1965.65,-334.654"/>
</g>
<!-- Node31 -->
<g id="node73" class="node"><title>Node31</title>
<a xlink:href="_t_detector_read_hit_8h.html" target="_top" xlink:title="TDetectorReadHit.h">
<polygon fill="white" stroke="black" points="873.741,-246.5 873.741,-267.5 977.741,-267.5 977.741,-246.5 873.741,-246.5"/>
<text text-anchor="middle" x="925.741" y="-254.5" font-family="Helvetica,sans-Serif" font-size="10.00">TDetectorReadHit.h</text>
</a>
</g>
<!-- Node20&#45;&gt;Node31 -->
<g id="edge84" class="edge"><title>Node20&#45;&gt;Node31</title>
<path fill="none" stroke="midnightblue" d="M1748.23,-429.667C1588.1,-425.05 1082.66,-408.661 1013.74,-384 972.392,-369.204 955.922,-363.904 933.741,-326 925.282,-311.546 923.647,-292.468 923.921,-278.037"/>
<polygon fill="midnightblue" stroke="midnightblue" points="927.437,-277.803 924.456,-267.637 920.447,-277.444 927.437,-277.803"/>
</g>
<!-- Node36 -->
<g id="node93" class="node"><title>Node36</title>
<a xlink:href="_t_slow_control_8h.html" target="_top" xlink:title="TSlowControl.h">
<polygon fill="white" stroke="black" points="2327.74,-362.5 2327.74,-383.5 2411.74,-383.5 2411.74,-362.5 2327.74,-362.5"/>
<text text-anchor="middle" x="2369.74" y="-370.5" font-family="Helvetica,sans-Serif" font-size="10.00">TSlowControl.h</text>
</a>
</g>
<!-- Node20&#45;&gt;Node36 -->
<g id="edge114" class="edge"><title>Node20&#45;&gt;Node36</title>
<path fill="none" stroke="midnightblue" d="M1845.59,-426.055C1952.7,-415.214 2207.36,-389.436 2317.5,-378.288"/>
<polygon fill="midnightblue" stroke="midnightblue" points="2318.1,-381.745 2327.7,-377.256 2317.4,-374.781 2318.1,-381.745"/>
</g>
<!-- Node37 -->
<g id="node100" class="node"><title>Node37</title>
<a xlink:href="_t_unpacker_message_8h.html" target="_top" xlink:title="TUnpackerMessage.h">
<polygon fill="white" stroke="black" points="2859.24,-246.5 2859.24,-267.5 2972.24,-267.5 2972.24,-246.5 2859.24,-246.5"/>
<text text-anchor="middle" x="2915.74" y="-254.5" font-family="Helvetica,sans-Serif" font-size="10.00">TUnpackerMessage.h</text>
</a>
</g>
<!-- Node20&#45;&gt;Node37 -->
<g id="edge126" class="edge"><title>Node20&#45;&gt;Node37</title>
<path fill="none" stroke="midnightblue" d="M1845.63,-430.236C1951.28,-427.949 2208.49,-418.942 2420.74,-384 2591.05,-355.962 2788.38,-297.194 2873.31,-270.594"/>
<polygon fill="midnightblue" stroke="midnightblue" points="2874.37,-273.93 2882.86,-267.59 2872.27,-267.252 2874.37,-273.93"/>
</g>
<!-- Node44 -->
<g id="node122" class="node"><title>Node44</title>
<a xlink:href="_t_tagger_hit_8h.html" target="_top" xlink:title="TTaggerHit.h">
<polygon fill="white" stroke="black" points="1022.74,-362.5 1022.74,-383.5 1096.74,-383.5 1096.74,-362.5 1022.74,-362.5"/>
<text text-anchor="middle" x="1059.74" y="-370.5" font-family="Helvetica,sans-Serif" font-size="10.00">TTaggerHit.h</text>
</a>
</g>
<!-- Node20&#45;&gt;Node44 -->
<g id="edge156" class="edge"><title>Node20&#45;&gt;Node44</title>
<path fill="none" stroke="midnightblue" d="M1748.1,-427.172C1613.92,-416.612 1239.73,-387.165 1107.1,-376.727"/>
<polygon fill="midnightblue" stroke="midnightblue" points="1107.11,-373.217 1096.86,-375.921 1106.56,-380.195 1107.11,-373.217"/>
</g>
<!-- Node46 -->
<g id="node132" class="node"><title>Node46</title>
<a xlink:href="_t_trigger_8h.html" target="_top" xlink:title="TTrigger.h">
<polygon fill="white" stroke="black" points="1857.24,-181.5 1857.24,-202.5 1918.24,-202.5 1918.24,-181.5 1857.24,-181.5"/>
<text text-anchor="middle" x="1887.74" y="-189.5" font-family="Helvetica,sans-Serif" font-size="10.00">TTrigger.h</text>
</a>
</g>
<!-- Node20&#45;&gt;Node46 -->
<g id="edge172" class="edge"><title>Node20&#45;&gt;Node46</title>
<path fill="none" stroke="midnightblue" d="M1800.77,-420.422C1814.77,-383.643 1861.5,-260.925 1880.05,-212.195"/>
<polygon fill="midnightblue" stroke="midnightblue" points="1883.37,-213.318 1883.66,-202.727 1876.83,-210.827 1883.37,-213.318"/>
</g>
<!-- Node47 -->
<g id="node139" class="node"><title>Node47</title>
<a xlink:href="_t_target_8h.html" target="_top" xlink:title="TTarget.h">
<polygon fill="white" stroke="black" points="1629.24,-181.5 1629.24,-202.5 1688.24,-202.5 1688.24,-181.5 1629.24,-181.5"/>
<text text-anchor="middle" x="1658.74" y="-189.5" font-family="Helvetica,sans-Serif" font-size="10.00">TTarget.h</text>
</a>
</g>
<!-- Node20&#45;&gt;Node47 -->
<g id="edge184" class="edge"><title>Node20&#45;&gt;Node47</title>
<path fill="none" stroke="midnightblue" d="M1790.63,-420.422C1769.31,-383.488 1697.94,-259.894 1670.05,-211.586"/>
<polygon fill="midnightblue" stroke="midnightblue" points="1672.97,-209.637 1664.93,-202.727 1666.9,-213.137 1672.97,-209.637"/>
</g>
<!-- Node49 -->
<g id="node150" class="node"><title>Node49</title>
<a xlink:href="_t_cluster_8h.html" target="_top" xlink:title="TCluster.h">
<polygon fill="white" stroke="black" points="755.741,-246.5 755.741,-267.5 817.741,-267.5 817.741,-246.5 755.741,-246.5"/>
<text text-anchor="middle" x="786.741" y="-254.5" font-family="Helvetica,sans-Serif" font-size="10.00">TCluster.h</text>
</a>
</g>
<!-- Node20&#45;&gt;Node49 -->
<g id="edge202" class="edge"><title>Node20&#45;&gt;Node49</title>
<path fill="none" stroke="midnightblue" d="M1748.23,-429.033C1575.39,-421.928 997.956,-397.304 960.741,-384 895.395,-360.64 833.364,-304.422 804.172,-275.251"/>
<polygon fill="midnightblue" stroke="midnightblue" points="806.342,-272.465 796.834,-267.79 801.351,-277.374 806.342,-272.465"/>
</g>
<!-- Node52 -->
<g id="node167" class="node"><title>Node52</title>
<a xlink:href="_t_candidate_8h.html" target="_top" xlink:title="TCandidate.h">
<polygon fill="white" stroke="black" points="1382.24,-304.5 1382.24,-325.5 1457.24,-325.5 1457.24,-304.5 1382.24,-304.5"/>
<text text-anchor="middle" x="1419.74" y="-312.5" font-family="Helvetica,sans-Serif" font-size="10.00">TCandidate.h</text>
</a>
</g>
<!-- Node20&#45;&gt;Node52 -->
<g id="edge230" class="edge"><title>Node20&#45;&gt;Node52</title>
<path fill="none" stroke="midnightblue" d="M1762.29,-420.398C1693.57,-399.255 1539.59,-351.877 1463.71,-328.53"/>
<polygon fill="midnightblue" stroke="midnightblue" points="1464.57,-325.131 1453.98,-325.535 1462.51,-331.821 1464.57,-325.131"/>
</g>
<!-- Node53 -->
<g id="node176" class="node"><title>Node53</title>
<a xlink:href="_t_particle_8h.html" target="_top" xlink:title="TParticle.h">
<polygon fill="white" stroke="black" points="2113.74,-362.5 2113.74,-383.5 2177.74,-383.5 2177.74,-362.5 2113.74,-362.5"/>
<text text-anchor="middle" x="2145.74" y="-370.5" font-family="Helvetica,sans-Serif" font-size="10.00">TParticle.h</text>
</a>
</g>
<!-- Node20&#45;&gt;Node53 -->
<g id="edge246" class="edge"><title>Node20&#45;&gt;Node53</title>
<path fill="none" stroke="midnightblue" d="M1845.27,-422.935C1914.07,-411.501 2038.82,-390.769 2103.82,-379.967"/>
<polygon fill="midnightblue" stroke="midnightblue" points="2104.43,-383.414 2113.72,-378.322 2103.28,-376.509 2104.43,-383.414"/>
</g>
<!-- Node21&#45;&gt;Node6 -->
<g id="edge52" class="edge"><title>Node21&#45;&gt;Node6</title>
<path fill="none" stroke="midnightblue" d="M2004.41,-312.827C2026.51,-310.528 2062.59,-306.847 2093.74,-304 2266.07,-288.254 2731.34,-317.758 2866.74,-210 2904.65,-179.83 2918.5,-120.975 2923.32,-89.6967"/>
<polygon fill="midnightblue" stroke="midnightblue" points="2926.82,-89.9083 2924.72,-79.5251 2919.89,-88.9558 2926.82,-89.9083"/>
</g>
<!-- Node21&#45;&gt;Node11 -->
<g id="edge76" class="edge"><title>Node21&#45;&gt;Node11</title>
<path fill="none" stroke="midnightblue" d="M2004.53,-311.144C2045.09,-303.536 2137.57,-285.784 2214.74,-268 2227.32,-265.101 2431.83,-220.204 2439.74,-210 2449.54,-197.353 2449.02,-187.031 2439.74,-174 2436.78,-169.838 2382.04,-151.794 2342.92,-139.315"/>
<polygon fill="midnightblue" stroke="midnightblue" points="2343.95,-135.968 2333.35,-136.274 2341.82,-142.639 2343.95,-135.968"/>
</g>
<!-- Node21&#45;&gt;Node17 -->
<g id="edge78" class="edge"><title>Node21&#45;&gt;Node17</title>
<path fill="none" stroke="midnightblue" d="M1969.81,-304.431C1945.18,-285.679 1892.41,-245.244 1848.74,-210 1829.35,-194.346 1828.21,-184.779 1805.74,-174 1800.96,-171.708 1654.84,-143.274 1595.46,-131.777"/>
<polygon fill="midnightblue" stroke="midnightblue" points="1595.92,-128.301 1585.44,-129.838 1594.59,-135.174 1595.92,-128.301"/>
</g>
<!-- Node21&#45;&gt;Node19 -->
<g id="edge50" class="edge"><title>Node21&#45;&gt;Node19</title>
<path fill="none" stroke="midnightblue" d="M2004.48,-309.266C2057.18,-294.726 2195.34,-256.807 2241.74,-246 2321.62,-227.395 2370.71,-273.402 2422.74,-210 2432.89,-197.632 2432.71,-186.514 2422.74,-174 2380.05,-120.413 2338.69,-153.1 2266.84,-137.938"/>
<polygon fill="midnightblue" stroke="midnightblue" points="2267.51,-134.5 2256.97,-135.594 2265.89,-141.311 2267.51,-134.5"/>
</g>
<!-- Node22 -->
<g id="node49" class="node"><title>Node22</title>
<a xlink:href="time_8h.html" target="_top" xlink:title="base/std_ext/time.h">
<polygon fill="white" stroke="black" points="2011.24,-246.5 2011.24,-267.5 2114.24,-267.5 2114.24,-246.5 2011.24,-246.5"/>
<text text-anchor="middle" x="2062.74" y="-254.5" font-family="Helvetica,sans-Serif" font-size="10.00">base/std_ext/time.h</text>
</a>
</g>
<!-- Node21&#45;&gt;Node22 -->
<g id="edge54" class="edge"><title>Node21&#45;&gt;Node22</title>
<path fill="none" stroke="midnightblue" d="M1998.23,-304.362C2009.92,-295.777 2026.58,-283.546 2040.04,-273.664"/>
<polygon fill="midnightblue" stroke="midnightblue" points="2042.35,-276.31 2048.34,-267.571 2038.21,-270.667 2042.35,-276.31"/>
</g>
<!-- Node26 -->
<g id="node60" class="node"><title>Node26</title>
<polygon fill="white" stroke="#bfbfbf" points="1973.24,-181.5 1973.24,-202.5 2014.24,-202.5 2014.24,-181.5 1973.24,-181.5"/>
<text text-anchor="middle" x="1993.74" y="-189.5" font-family="Helvetica,sans-Serif" font-size="10.00">ctime</text>
</g>
<!-- Node21&#45;&gt;Node26 -->
<g id="edge82" class="edge"><title>Node21&#45;&gt;Node26</title>
<path fill="none" stroke="midnightblue" d="M1984.63,-304.085C1986.29,-283.609 1989.91,-239.133 1992.05,-212.778"/>
<polygon fill="midnightblue" stroke="midnightblue" points="1995.55,-212.966 1992.87,-202.715 1988.57,-212.399 1995.55,-212.966"/>
</g>
<!-- Node27 -->
<g id="node62" class="node"><title>Node27</title>
<polygon fill="white" stroke="#bfbfbf" points="1438.74,-116.5 1438.74,-137.5 1500.74,-137.5 1500.74,-116.5 1438.74,-116.5"/>
<text text-anchor="middle" x="1469.74" y="-124.5" font-family="Helvetica,sans-Serif" font-size="10.00">type_traits</text>
</g>
<!-- Node21&#45;&gt;Node27 -->
<g id="edge70" class="edge"><title>Node21&#45;&gt;Node27</title>
<path fill="none" stroke="midnightblue" d="M1962.82,-304.342C1901.45,-273.127 1724.44,-183.501 1696.74,-174 1633.57,-152.332 1556.91,-139.006 1510.79,-132.312"/>
<polygon fill="midnightblue" stroke="midnightblue" points="1511.27,-128.844 1500.87,-130.906 1510.28,-135.775 1511.27,-128.844"/>
</g>
<!-- Node28 -->
<g id="node64" class="node"><title>Node28</title>
<polygon fill="white" stroke="#bfbfbf" points="2321.74,-246.5 2321.74,-267.5 2359.74,-267.5 2359.74,-246.5 2321.74,-246.5"/>
<text text-anchor="middle" x="2340.74" y="-254.5" font-family="Helvetica,sans-Serif" font-size="10.00">tuple</text>
</g>
<!-- Node21&#45;&gt;Node28 -->
<g id="edge72" class="edge"><title>Node21&#45;&gt;Node28</title>
<path fill="none" stroke="midnightblue" d="M2004.48,-311.631C2065.06,-301.788 2241.89,-273.059 2311.81,-261.7"/>
<polygon fill="midnightblue" stroke="midnightblue" points="2312.39,-265.152 2321.7,-260.093 2311.27,-258.242 2312.39,-265.152"/>
</g>
<!-- Node29 -->
<g id="node66" class="node"><title>Node29</title>
<polygon fill="white" stroke="#bfbfbf" points="1678.74,-116.5 1678.74,-137.5 1724.74,-137.5 1724.74,-116.5 1678.74,-116.5"/>
<text text-anchor="middle" x="1701.74" y="-124.5" font-family="Helvetica,sans-Serif" font-size="10.00">cstdint</text>
</g>
<!-- Node21&#45;&gt;Node29 -->
<g id="edge74" class="edge"><title>Node21&#45;&gt;Node29</title>
<path fill="none" stroke="midnightblue" d="M1982.8,-304.131C1979.88,-277.389 1968.44,-208.1 1926.74,-174 1861.64,-120.756 1821.12,-157.371 1734.93,-137.886"/>
<polygon fill="midnightblue" stroke="midnightblue" points="1735.59,-134.443 1725.04,-135.451 1733.91,-141.24 1735.59,-134.443"/>
</g>
<!-- Node30 -->
<g id="node70" class="node"><title>Node30</title>
<polygon fill="white" stroke="#bfbfbf" points="1035.74,-181.5 1035.74,-202.5 1085.74,-202.5 1085.74,-181.5 1035.74,-181.5"/>
<text text-anchor="middle" x="1060.74" y="-189.5" font-family="Helvetica,sans-Serif" font-size="10.00">iomanip</text>
</g>
<!-- Node21&#45;&gt;Node30 -->
<g id="edge80" class="edge"><title>Node21&#45;&gt;Node30</title>
<path fill="none" stroke="midnightblue" d="M1963.17,-312.259C1844.59,-296.457 1248.35,-217.001 1096.15,-196.719"/>
<polygon fill="midnightblue" stroke="midnightblue" points="1096.35,-193.214 1085.97,-195.362 1095.42,-200.153 1096.35,-193.214"/>
</g>
<!-- Node23 -->
<g id="node51" class="node"><title>Node23</title>
<a xlink:href="string_8h.html" target="_top" xlink:title="base/std_ext/string.h">
<polygon fill="white" stroke="black" points="1217.74,-181.5 1217.74,-202.5 1325.74,-202.5 1325.74,-181.5 1217.74,-181.5"/>
<text text-anchor="middle" x="1271.74" y="-189.5" font-family="Helvetica,sans-Serif" font-size="10.00">base/std_ext/string.h</text>
</a>
</g>
<!-- Node22&#45;&gt;Node23 -->
<g id="edge56" class="edge"><title>Node22&#45;&gt;Node23</title>
<path fill="none" stroke="midnightblue" d="M2011.07,-255.102C1867.37,-249.594 1465.08,-232.559 1334.74,-210 1327.89,-208.814 1320.71,-207.168 1313.77,-205.349"/>
<polygon fill="midnightblue" stroke="midnightblue" points="1314.38,-201.887 1303.81,-202.593 1312.51,-208.633 1314.38,-201.887"/>
</g>
<!-- Node25 -->
<g id="node58" class="node"><title>Node25</title>
<polygon fill="white" stroke="#bfbfbf" points="2031.74,-181.5 2031.74,-202.5 2077.74,-202.5 2077.74,-181.5 2031.74,-181.5"/>
<text text-anchor="middle" x="2054.74" y="-189.5" font-family="Helvetica,sans-Serif" font-size="10.00">cstring</text>
</g>
<!-- Node22&#45;&gt;Node25 -->
<g id="edge66" class="edge"><title>Node22&#45;&gt;Node25</title>
<path fill="none" stroke="midnightblue" d="M2061.42,-246.267C2060.3,-237.18 2058.67,-223.892 2057.29,-212.74"/>
<polygon fill="midnightblue" stroke="midnightblue" points="2060.73,-212.031 2056.04,-202.534 2053.79,-212.886 2060.73,-212.031"/>
</g>
<!-- Node22&#45;&gt;Node26 -->
<g id="edge68" class="edge"><title>Node22&#45;&gt;Node26</title>
<path fill="none" stroke="midnightblue" d="M2051.35,-246.267C2040.8,-236.328 2024.91,-221.363 2012.49,-209.664"/>
<polygon fill="midnightblue" stroke="midnightblue" points="2014.6,-206.843 2004.92,-202.534 2009.8,-211.938 2014.6,-206.843"/>
</g>
<!-- Node23&#45;&gt;Node7 -->
<g id="edge64" class="edge"><title>Node23&#45;&gt;Node7</title>
<path fill="none" stroke="midnightblue" d="M1279.82,-181.486C1302.56,-151.87 1367.38,-67.4583 1396.4,-29.6778"/>
<polygon fill="midnightblue" stroke="midnightblue" points="1399.33,-31.6056 1402.64,-21.5427 1393.78,-27.3421 1399.33,-31.6056"/>
</g>
<!-- Node23&#45;&gt;Node10 -->
<g id="edge62" class="edge"><title>Node23&#45;&gt;Node10</title>
<path fill="none" stroke="midnightblue" d="M1304.16,-181.474C1313.9,-178.656 1324.68,-175.875 1334.74,-174 1506.62,-141.987 1557.06,-170.467 1732.77,-137.857"/>
<polygon fill="midnightblue" stroke="midnightblue" points="1733.43,-141.295 1742.6,-135.994 1732.13,-134.418 1733.43,-141.295"/>
</g>
<!-- Node23&#45;&gt;Node14 -->
<g id="edge58" class="edge"><title>Node23&#45;&gt;Node14</title>
<path fill="none" stroke="midnightblue" d="M1217.58,-185.726C1182.58,-181.86 1136.02,-177.073 1094.74,-174 760.372,-149.108 667.075,-205.772 335.301,-137.785"/>
<polygon fill="midnightblue" stroke="midnightblue" points="335.917,-134.339 325.415,-135.737 334.497,-141.193 335.917,-134.339"/>
</g>
<!-- Node24 -->
<g id="node54" class="node"><title>Node24</title>
<polygon fill="white" stroke="#bfbfbf" points="585.741,-116.5 585.741,-137.5 637.741,-137.5 637.741,-116.5 585.741,-116.5"/>
<text text-anchor="middle" x="611.741" y="-124.5" font-family="Helvetica,sans-Serif" font-size="10.00">sstream</text>
</g>
<!-- Node23&#45;&gt;Node24 -->
<g id="edge60" class="edge"><title>Node23&#45;&gt;Node24</title>
<path fill="none" stroke="midnightblue" d="M1217.54,-186.188C1182.52,-182.507 1135.96,-177.752 1094.74,-174 899.113,-156.195 844.61,-175.522 648.03,-137.887"/>
<polygon fill="midnightblue" stroke="midnightblue" points="648.435,-134.4 637.951,-135.931 647.102,-141.272 648.435,-134.4"/>
</g>
<!-- Node31&#45;&gt;Node24 -->
<g id="edge112" class="edge"><title>Node31&#45;&gt;Node24</title>
<path fill="none" stroke="midnightblue" d="M900.311,-246.472C844.346,-223.301 710.432,-167.859 646.656,-141.455"/>
<polygon fill="midnightblue" stroke="midnightblue" points="647.987,-138.218 637.408,-137.627 645.309,-144.686 647.987,-138.218"/>
</g>
<!-- Node31&#45;&gt;Node30 -->
<g id="edge110" class="edge"><title>Node31&#45;&gt;Node30</title>
<path fill="none" stroke="midnightblue" d="M947.732,-246.412C969.992,-235.694 1004.61,-219.025 1029.67,-206.96"/>
<polygon fill="midnightblue" stroke="midnightblue" points="1031.27,-210.075 1038.76,-202.584 1028.23,-203.768 1031.27,-210.075"/>
</g>
<!-- Node32 -->
<g id="node75" class="node"><title>Node32</title>
<a xlink:href="_detector__t_8h.html" target="_top" xlink:title="base/Detector_t.h">
<polygon fill="white" stroke="black" points="1343.24,-181.5 1343.24,-202.5 1438.24,-202.5 1438.24,-181.5 1343.24,-181.5"/>
<text text-anchor="middle" x="1390.74" y="-189.5" font-family="Helvetica,sans-Serif" font-size="10.00">base/Detector_t.h</text>
</a>
</g>
<!-- Node31&#45;&gt;Node32 -->
<g id="edge86" class="edge"><title>Node31&#45;&gt;Node32</title>
<path fill="none" stroke="midnightblue" d="M977.879,-251.143C1086.16,-238.962 1326.1,-211.867 1334.74,-210 1340.29,-208.801 1346.08,-207.273 1351.73,-205.616"/>
<polygon fill="midnightblue" stroke="midnightblue" points="1353.16,-208.836 1361.68,-202.536 1351.09,-202.149 1353.16,-208.836"/>
</g>
<!-- Node32&#45;&gt;Node6 -->
<g id="edge88" class="edge"><title>Node32&#45;&gt;Node6</title>
<path fill="none" stroke="midnightblue" d="M1392.67,-181.368C1396.4,-164.185 1406.43,-130.747 1429.74,-116 1492.87,-76.0671 2649.78,-69.9513 2884.43,-69.1204"/>
<polygon fill="midnightblue" stroke="midnightblue" points="2884.6,-72.6199 2894.59,-69.0857 2884.58,-65.62 2884.6,-72.6199"/>
</g>
<!-- Node32&#45;&gt;Node7 -->
<g id="edge108" class="edge"><title>Node32&#45;&gt;Node7</title>
<path fill="none" stroke="midnightblue" d="M1390.34,-181.483C1389.68,-158.761 1389.07,-103.466 1396.74,-58 1398.25,-49.0274 1400.94,-39.355 1403.56,-31.1308"/>
<polygon fill="midnightblue" stroke="midnightblue" points="1406.88,-32.2439 1406.75,-21.6499 1400.25,-30.0129 1406.88,-32.2439"/>
</g>
<!-- Node32&#45;&gt;Node11 -->
<g id="edge102" class="edge"><title>Node32&#45;&gt;Node11</title>
<path fill="none" stroke="midnightblue" d="M1418.57,-181.44C1427.45,-178.511 1437.39,-175.677 1446.74,-174 1802.13,-110.261 1904.37,-195.506 2264.12,-137.937"/>
<polygon fill="midnightblue" stroke="midnightblue" points="2264.72,-141.387 2274.02,-136.327 2263.59,-134.477 2264.72,-141.387"/>
</g>
<!-- Node32&#45;&gt;Node14 -->
<g id="edge104" class="edge"><title>Node32&#45;&gt;Node14</title>
<path fill="none" stroke="midnightblue" d="M1363.21,-181.489C1354.26,-178.524 1344.2,-175.657 1334.74,-174 899.565,-97.742 772.037,-224.174 335.451,-137.781"/>
<polygon fill="midnightblue" stroke="midnightblue" points="335.902,-134.302 325.409,-135.767 334.525,-141.165 335.902,-134.302"/>
</g>
<!-- Node32&#45;&gt;Node27 -->
<g id="edge106" class="edge"><title>Node32&#45;&gt;Node27</title>
<path fill="none" stroke="midnightblue" d="M1403.79,-181.267C1416.1,-171.139 1434.75,-155.792 1449.08,-144"/>
<polygon fill="midnightblue" stroke="midnightblue" points="1451.44,-146.59 1456.94,-137.534 1446.99,-141.185 1451.44,-146.59"/>
</g>
<!-- Node32&#45;&gt;Node29 -->
<g id="edge100" class="edge"><title>Node32&#45;&gt;Node29</title>
<path fill="none" stroke="midnightblue" d="M1421.05,-181.472C1429.32,-178.816 1438.32,-176.119 1446.74,-174 1525.44,-154.187 1619.75,-138.972 1668.66,-131.704"/>
<polygon fill="midnightblue" stroke="midnightblue" points="1669.28,-135.15 1678.67,-130.234 1668.27,-128.224 1669.28,-135.15"/>
</g>
<!-- Node33 -->
<g id="node78" class="node"><title>Node33</title>
<a xlink:href="vec3_8h.html" target="_top" xlink:title="base/vec/vec3.h">
<polygon fill="white" stroke="black" points="655.241,-116.5 655.241,-137.5 744.241,-137.5 744.241,-116.5 655.241,-116.5"/>
<text text-anchor="middle" x="699.741" y="-124.5" font-family="Helvetica,sans-Serif" font-size="10.00">base/vec/vec3.h</text>
</a>
</g>
<!-- Node32&#45;&gt;Node33 -->
<g id="edge90" class="edge"><title>Node32&#45;&gt;Node33</title>
<path fill="none" stroke="midnightblue" d="M1362.31,-181.421C1353.58,-178.566 1343.86,-175.777 1334.74,-174 1224.34,-152.489 888.237,-135.479 754.997,-129.406"/>
<polygon fill="midnightblue" stroke="midnightblue" points="754.775,-125.893 744.627,-128.937 754.459,-132.885 754.775,-125.893"/>
</g>
<!-- Node33&#45;&gt;Node6 -->
<g id="edge92" class="edge"><title>Node33&#45;&gt;Node6</title>
<path fill="none" stroke="midnightblue" d="M744.495,-124.965C798.393,-122.567 891.676,-118.582 971.741,-116 1740.14,-91.2229 2678.9,-73.4896 2884.65,-69.7387"/>
<polygon fill="midnightblue" stroke="midnightblue" points="2884.78,-73.2371 2894.71,-69.5558 2884.65,-66.2382 2884.78,-73.2371"/>
</g>
<!-- Node34 -->
<g id="node81" class="node"><title>Node34</title>
<a xlink:href="vec2_8h.html" target="_top" xlink:title="vec2.h">
<polygon fill="white" stroke="black" points="552.741,-58.5 552.741,-79.5 598.741,-79.5 598.741,-58.5 552.741,-58.5"/>
<text text-anchor="middle" x="575.741" y="-66.5" font-family="Helvetica,sans-Serif" font-size="10.00">vec2.h</text>
</a>
</g>
<!-- Node33&#45;&gt;Node34 -->
<g id="edge94" class="edge"><title>Node33&#45;&gt;Node34</title>
<path fill="none" stroke="midnightblue" d="M677.286,-116.497C657.831,-107.397 629.461,-94.1273 607.65,-83.9253"/>
<polygon fill="midnightblue" stroke="midnightblue" points="608.989,-80.6878 598.448,-79.6212 606.024,-87.0285 608.989,-80.6878"/>
</g>
<!-- Node35 -->
<g id="node83" class="node"><title>Node35</title>
<polygon fill="white" stroke="#bfbfbf" points="553.741,-0.5 553.741,-21.5 597.741,-21.5 597.741,-0.5 553.741,-0.5"/>
<text text-anchor="middle" x="575.741" y="-8.5" font-family="Helvetica,sans-Serif" font-size="10.00">cmath</text>
</g>
<!-- Node33&#45;&gt;Node35 -->
<g id="edge98" class="edge"><title>Node33&#45;&gt;Node35</title>
<path fill="none" stroke="midnightblue" d="M655.255,-116.462C611.604,-105.675 550.595,-89.2233 543.741,-80 532.045,-64.261 544.686,-43.5638 557.365,-28.9568"/>
<polygon fill="midnightblue" stroke="midnightblue" points="560.015,-31.2465 564.258,-21.5385 554.887,-26.4815 560.015,-31.2465"/>
</g>
<!-- Node34&#45;&gt;Node35 -->
<g id="edge96" class="edge"><title>Node34&#45;&gt;Node35</title>
<path fill="none" stroke="midnightblue" d="M575.741,-58.3619C575.741,-50.9219 575.741,-40.7427 575.741,-31.7276"/>
<polygon fill="midnightblue" stroke="midnightblue" points="579.241,-31.5706 575.741,-21.5707 572.241,-31.5707 579.241,-31.5706"/>
</g>
<!-- Node36&#45;&gt;Node6 -->
<g id="edge120" class="edge"><title>Node36&#45;&gt;Node6</title>
<path fill="none" stroke="midnightblue" d="M2411.89,-372.368C2541.32,-369.509 2929.34,-353.808 3013.74,-268 3061.48,-219.464 3069.96,-173.005 3032.74,-116 3018.13,-93.6282 2990.24,-81.836 2966.6,-75.6588"/>
<polygon fill="midnightblue" stroke="midnightblue" points="2967.31,-72.2313 2956.77,-73.3407 2965.7,-79.0442 2967.31,-72.2313"/>
</g>
<!-- Node36&#45;&gt;Node21 -->
<g id="edge116" class="edge"><title>Node36&#45;&gt;Node21</title>
<path fill="none" stroke="midnightblue" d="M2327.7,-366.683C2249.43,-354.922 2083.1,-329.929 2014.4,-319.607"/>
<polygon fill="midnightblue" stroke="midnightblue" points="2014.65,-316.106 2004.24,-318.081 2013.61,-323.028 2014.65,-316.106"/>
</g>
<!-- Node36&#45;&gt;Node22 -->
<g id="edge118" class="edge"><title>Node36&#45;&gt;Node22</title>
<path fill="none" stroke="midnightblue" d="M2358.44,-362.351C2341.57,-347.059 2308.2,-319.068 2274.74,-304 2226.69,-282.358 2167.9,-270.337 2124.43,-263.883"/>
<polygon fill="midnightblue" stroke="midnightblue" points="2124.68,-260.383 2114.28,-262.436 2123.69,-267.313 2124.68,-260.383"/>
</g>
<!-- Node36&#45;&gt;Node28 -->
<g id="edge124" class="edge"><title>Node36&#45;&gt;Node28</title>
<path fill="none" stroke="midnightblue" d="M2367.06,-362.295C2362.25,-343.045 2352.06,-302.289 2345.87,-277.509"/>
<polygon fill="midnightblue" stroke="midnightblue" points="2349.23,-276.532 2343.41,-267.679 2342.44,-278.23 2349.23,-276.532"/>
</g>
<!-- Node36&#45;&gt;Node29 -->
<g id="edge122" class="edge"><title>Node36&#45;&gt;Node29</title>
<path fill="none" stroke="midnightblue" d="M2373.71,-362.258C2381.82,-338.236 2397.25,-279.648 2368.74,-246 2308.66,-175.083 2251.32,-238.149 2162.74,-210 2127.12,-198.68 2122.74,-184.041 2086.74,-174 1937.95,-132.5 1889.74,-170.24 1734.85,-137.811"/>
<polygon fill="midnightblue" stroke="midnightblue" points="1735.5,-134.369 1724.98,-135.68 1734.02,-141.211 1735.5,-134.369"/>
</g>
<!-- Node37&#45;&gt;Node6 -->
<g id="edge154" class="edge"><title>Node37&#45;&gt;Node6</title>
<path fill="none" stroke="midnightblue" d="M2921.37,-246.406C2926.19,-237.029 2933.07,-222.874 2937.74,-210 2949.02,-178.887 2952.48,-170.82 2956.74,-138 2958,-128.303 2959.55,-125.365 2956.74,-116 2953.69,-105.824 2947.64,-95.8172 2941.69,-87.6697"/>
<polygon fill="midnightblue" stroke="midnightblue" points="2944.33,-85.3662 2935.42,-79.6387 2938.81,-89.6745 2944.33,-85.3662"/>
</g>
<!-- Node38 -->
<g id="node102" class="node"><title>Node38</title>
<a xlink:href="_format_8h.html" target="_top" xlink:title="base/Format.h">
<polygon fill="white" stroke="black" points="2601.74,-181.5 2601.74,-202.5 2681.74,-202.5 2681.74,-181.5 2601.74,-181.5"/>
<text text-anchor="middle" x="2641.74" y="-189.5" font-family="Helvetica,sans-Serif" font-size="10.00">base/Format.h</text>
</a>
</g>
<!-- Node37&#45;&gt;Node38 -->
<g id="edge128" class="edge"><title>Node37&#45;&gt;Node38</title>
<path fill="none" stroke="midnightblue" d="M2871.41,-246.484C2822.28,-234.829 2743.22,-216.073 2691.87,-203.892"/>
<polygon fill="midnightblue" stroke="midnightblue" points="2692.53,-200.45 2681.99,-201.548 2690.91,-207.261 2692.53,-200.45"/>
</g>
<!-- Node38&#45;&gt;Node7 -->
<g id="edge152" class="edge"><title>Node38&#45;&gt;Node7</title>
<path fill="none" stroke="midnightblue" d="M2623.44,-181.379C2606.33,-171.128 2580.4,-154.736 2559.74,-138 2520.42,-106.154 2525.11,-78.2424 2478.74,-58 2430.11,-36.7728 1615.93,-15.9605 1442.9,-11.7647"/>
<polygon fill="midnightblue" stroke="midnightblue" points="1442.97,-8.26545 1432.89,-11.5231 1442.8,-15.2634 1442.97,-8.26545"/>
</g>
<!-- Node38&#45;&gt;Node10 -->
<g id="edge142" class="edge"><title>Node38&#45;&gt;Node10</title>
<path fill="none" stroke="midnightblue" d="M2617.49,-181.438C2609.73,-178.509 2601,-175.675 2592.74,-174 2266.99,-107.933 2176.57,-170.155 1845.74,-138 1833.69,-136.828 1820.6,-135.077 1808.79,-133.315"/>
<polygon fill="midnightblue" stroke="midnightblue" points="1809.21,-129.838 1798.8,-131.777 1808.15,-136.757 1809.21,-129.838"/>
</g>
<!-- Node38&#45;&gt;Node11 -->
<g id="edge146" class="edge"><title>Node38&#45;&gt;Node11</title>
<path fill="none" stroke="midnightblue" d="M2616.12,-181.44C2608.68,-178.689 2600.47,-175.952 2592.74,-174 2486.57,-147.2 2453.76,-160.893 2343.37,-138.128"/>
<polygon fill="midnightblue" stroke="midnightblue" points="2344.02,-134.689 2333.51,-136.043 2342.57,-141.538 2344.02,-134.689"/>
</g>
<!-- Node38&#45;&gt;Node12 -->
<g id="edge144" class="edge"><title>Node38&#45;&gt;Node12</title>
<path fill="none" stroke="midnightblue" d="M2614.7,-181.497C2607.6,-178.898 2599.93,-176.224 2592.74,-174 2530.54,-154.749 2511.66,-160.972 2450.74,-138 2430.65,-130.426 2428.43,-121.714 2407.74,-116 2276.31,-79.7093 1844.47,-71.0784 1726.02,-69.3722"/>
<polygon fill="midnightblue" stroke="midnightblue" points="1725.91,-65.8704 1715.86,-69.232 1725.81,-72.8698 1725.91,-65.8704"/>
</g>
<!-- Node38&#45;&gt;Node14 -->
<g id="edge148" class="edge"><title>Node38&#45;&gt;Node14</title>
<path fill="none" stroke="midnightblue" d="M2618.02,-181.466C2610.14,-178.46 2601.21,-175.575 2592.74,-174 2102.4,-82.7513 843.581,-230.473 335.415,-137.698"/>
<polygon fill="midnightblue" stroke="midnightblue" points="335.872,-134.223 325.399,-135.819 334.582,-141.103 335.872,-134.223"/>
</g>
<!-- Node38&#45;&gt;Node24 -->
<g id="edge150" class="edge"><title>Node38&#45;&gt;Node24</title>
<path fill="none" stroke="midnightblue" d="M2618.02,-181.479C2610.13,-178.474 2601.2,-175.586 2592.74,-174 2170.84,-94.9276 1090.15,-205.847 647.925,-137.701"/>
<polygon fill="midnightblue" stroke="midnightblue" points="648.345,-134.224 637.919,-136.111 647.246,-141.138 648.345,-134.224"/>
</g>
<!-- Node38&#45;&gt;Node35 -->
<g id="edge136" class="edge"><title>Node38&#45;&gt;Node35</title>
<path fill="none" stroke="midnightblue" d="M2620.29,-181.468C2584.48,-164.429 2509.83,-131.193 2442.74,-116 2073.18,-32.3078 825.227,-13.9406 608.089,-11.3529"/>
<polygon fill="midnightblue" stroke="midnightblue" points="608.023,-7.85194 597.982,-11.235 607.941,-14.8515 608.023,-7.85194"/>
</g>
<!-- Node39 -->
<g id="node104" class="node"><title>Node39</title>
<polygon fill="white" stroke="#bfbfbf" points="2760.24,-116.5 2760.24,-137.5 2839.24,-137.5 2839.24,-116.5 2760.24,-116.5"/>
<text text-anchor="middle" x="2799.74" y="-124.5" font-family="Helvetica,sans-Serif" font-size="10.00">detail/format.h</text>
</g>
<!-- Node38&#45;&gt;Node39 -->
<g id="edge130" class="edge"><title>Node38&#45;&gt;Node39</title>
<path fill="none" stroke="midnightblue" d="M2667.48,-181.412C2693.88,-170.552 2735.12,-153.583 2764.53,-141.484"/>
<polygon fill="midnightblue" stroke="midnightblue" points="2766.1,-144.625 2774.01,-137.584 2763.44,-138.151 2766.1,-144.625"/>
</g>
<!-- Node40 -->
<g id="node106" class="node"><title>Node40</title>
<polygon fill="white" stroke="#bfbfbf" points="2568.24,-116.5 2568.24,-137.5 2617.24,-137.5 2617.24,-116.5 2568.24,-116.5"/>
<text text-anchor="middle" x="2592.74" y="-124.5" font-family="Helvetica,sans-Serif" font-size="10.00">stdint.h</text>
</g>
<!-- Node38&#45;&gt;Node40 -->
<g id="edge132" class="edge"><title>Node38&#45;&gt;Node40</title>
<path fill="none" stroke="midnightblue" d="M2633.65,-181.267C2626.37,-171.612 2615.52,-157.215 2606.82,-145.675"/>
<polygon fill="midnightblue" stroke="midnightblue" points="2609.5,-143.412 2600.68,-137.534 2603.91,-147.626 2609.5,-143.412"/>
</g>
<!-- Node41 -->
<g id="node108" class="node"><title>Node41</title>
<polygon fill="white" stroke="#bfbfbf" points="2350.24,-116.5 2350.24,-137.5 2399.24,-137.5 2399.24,-116.5 2350.24,-116.5"/>
<text text-anchor="middle" x="2374.74" y="-124.5" font-family="Helvetica,sans-Serif" font-size="10.00">cassert</text>
</g>
<!-- Node38&#45;&gt;Node41 -->
<g id="edge134" class="edge"><title>Node38&#45;&gt;Node41</title>
<path fill="none" stroke="midnightblue" d="M2615.28,-181.433C2608.05,-178.776 2600.16,-176.09 2592.74,-174 2514.22,-151.868 2492,-157.36 2412.74,-138 2411.67,-137.739 2410.59,-137.468 2409.5,-137.189"/>
<polygon fill="midnightblue" stroke="midnightblue" points="2410.16,-133.743 2399.6,-134.521 2408.34,-140.502 2410.16,-133.743"/>
</g>
<!-- Node42 -->
<g id="node111" class="node"><title>Node42</title>
<polygon fill="white" stroke="#bfbfbf" points="2634.24,-116.5 2634.24,-137.5 2683.24,-137.5 2683.24,-116.5 2634.24,-116.5"/>
<text text-anchor="middle" x="2658.74" y="-124.5" font-family="Helvetica,sans-Serif" font-size="10.00">cstddef</text>
</g>
<!-- Node38&#45;&gt;Node42 -->
<g id="edge138" class="edge"><title>Node38&#45;&gt;Node42</title>
<path fill="none" stroke="midnightblue" d="M2644.55,-181.267C2646.95,-172.085 2650.47,-158.615 2653.41,-147.392"/>
<polygon fill="midnightblue" stroke="midnightblue" points="2656.84,-148.094 2655.99,-137.534 2650.07,-146.323 2656.84,-148.094"/>
</g>
<!-- Node43 -->
<g id="node113" class="node"><title>Node43</title>
<polygon fill="white" stroke="#bfbfbf" points="2700.24,-116.5 2700.24,-137.5 2743.24,-137.5 2743.24,-116.5 2700.24,-116.5"/>
<text text-anchor="middle" x="2721.74" y="-124.5" font-family="Helvetica,sans-Serif" font-size="10.00">cstdio</text>
</g>
<!-- Node38&#45;&gt;Node43 -->
<g id="edge140" class="edge"><title>Node38&#45;&gt;Node43</title>
<path fill="none" stroke="midnightblue" d="M2654.95,-181.267C2667.42,-171.139 2686.31,-155.792 2700.82,-144"/>
<polygon fill="midnightblue" stroke="midnightblue" points="2703.22,-146.556 2708.78,-137.534 2698.81,-141.123 2703.22,-146.556"/>
</g>
<!-- Node44&#45;&gt;Node6 -->
<g id="edge160" class="edge"><title>Node44&#45;&gt;Node6</title>
<path fill="none" stroke="midnightblue" d="M1097.04,-372.046C1224.86,-368.588 1656.97,-355.338 2012.74,-326 2097.46,-319.014 2118.07,-311.58 2202.74,-304 2454.68,-281.445 2525.68,-330.68 2770.74,-268 2829.69,-252.924 2851.64,-252.943 2894.74,-210 2926.21,-178.643 2930.16,-160.404 2928.74,-116 2928.47,-107.46 2927.92,-98.0606 2927.36,-89.9263"/>
<polygon fill="midnightblue" stroke="midnightblue" points="2930.84,-89.5375 2926.63,-79.8179 2923.86,-90.0455 2930.84,-89.5375"/>
</g>
<!-- Node44&#45;&gt;Node7 -->
<g id="edge166" class="edge"><title>Node44&#45;&gt;Node7</title>
<path fill="none" stroke="midnightblue" d="M1022.59,-371.335C968.703,-367.887 866.476,-357.423 785.741,-326 663.029,-278.239 490.961,-215.906 576.741,-116 630.07,-53.8894 1230.64,-19.992 1378.16,-12.5668"/>
<polygon fill="midnightblue" stroke="midnightblue" points="1378.56,-16.0516 1388.37,-12.0591 1378.21,-9.06027 1378.56,-16.0516"/>
</g>
<!-- Node44&#45;&gt;Node21 -->
<g id="edge158" class="edge"><title>Node44&#45;&gt;Node21</title>
<path fill="none" stroke="midnightblue" d="M1096.82,-370.673C1247.59,-361.209 1813.25,-325.702 1952.58,-316.956"/>
<polygon fill="midnightblue" stroke="midnightblue" points="1953.18,-320.425 1962.95,-316.305 1952.75,-313.439 1953.18,-320.425"/>
</g>
<!-- Node44&#45;&gt;Node24 -->
<g id="edge170" class="edge"><title>Node44&#45;&gt;Node24</title>
<path fill="none" stroke="midnightblue" d="M1022.72,-368.58C957.483,-359.32 819.976,-333.079 724.741,-268 677.064,-235.42 639.526,-176.791 622.197,-146.419"/>
<polygon fill="midnightblue" stroke="midnightblue" points="625.219,-144.652 617.294,-137.62 619.104,-148.059 625.219,-144.652"/>
</g>
<!-- Node44&#45;&gt;Node30 -->
<g id="edge168" class="edge"><title>Node44&#45;&gt;Node30</title>
<path fill="none" stroke="midnightblue" d="M1064.41,-362.149C1069.73,-348.056 1076.62,-323.012 1067.74,-304 1057.19,-281.417 1035.29,-290.583 1024.74,-268 1020.6,-259.141 1021.91,-255.358 1024.74,-246 1028.68,-232.989 1036.9,-220.247 1044.5,-210.411"/>
<polygon fill="midnightblue" stroke="midnightblue" points="1047.28,-212.542 1050.88,-202.581 1041.85,-208.117 1047.28,-212.542"/>
</g>
<!-- Node45 -->
<g id="node126" class="node"><title>Node45</title>
<a xlink:href="_lorentz_vec_8h.html" target="_top" xlink:title="base/vec/LorentzVec.h">
<polygon fill="white" stroke="black" points="942.241,-304.5 942.241,-325.5 1059.24,-325.5 1059.24,-304.5 942.241,-304.5"/>
<text text-anchor="middle" x="1000.74" y="-312.5" font-family="Helvetica,sans-Serif" font-size="10.00">base/vec/LorentzVec.h</text>
</a>
</g>
<!-- Node44&#45;&gt;Node45 -->
<g id="edge162" class="edge"><title>Node44&#45;&gt;Node45</title>
<path fill="none" stroke="midnightblue" d="M1048.92,-362.362C1040.52,-354.104 1028.69,-342.472 1018.85,-332.803"/>
<polygon fill="midnightblue" stroke="midnightblue" points="1021.08,-330.085 1011.49,-325.571 1016.17,-335.077 1021.08,-330.085"/>
</g>
<!-- Node45&#45;&gt;Node33 -->
<g id="edge164" class="edge"><title>Node45&#45;&gt;Node33</title>
<path fill="none" stroke="midnightblue" d="M941.958,-307.313C871.586,-297.621 761.332,-280.694 746.741,-268 711.372,-237.228 702.533,-179.113 700.382,-147.967"/>
<polygon fill="midnightblue" stroke="midnightblue" points="703.869,-147.618 699.855,-137.813 696.878,-147.981 703.869,-147.618"/>
</g>
<!-- Node46&#45;&gt;Node6 -->
<g id="edge176" class="edge"><title>Node46&#45;&gt;Node6</title>
<path fill="none" stroke="midnightblue" d="M1864.28,-181.47C1857.72,-178.783 1850.53,-176.072 1843.74,-174 1765.77,-150.209 1613.19,-174.709 1669.74,-116 1691.3,-93.615 2669.9,-73.8371 2884.45,-69.7653"/>
<polygon fill="midnightblue" stroke="midnightblue" points="2884.72,-73.2608 2894.66,-69.5725 2884.59,-66.2621 2884.72,-73.2608"/>
</g>
<!-- Node46&#45;&gt;Node9 -->
<g id="edge174" class="edge"><title>Node46&#45;&gt;Node9</title>
<path fill="none" stroke="midnightblue" d="M1908.75,-181.412C1929.93,-170.741 1962.82,-154.172 1986.73,-142.12"/>
<polygon fill="midnightblue" stroke="midnightblue" points="1988.38,-145.209 1995.74,-137.584 1985.23,-138.958 1988.38,-145.209"/>
</g>
<!-- Node46&#45;&gt;Node12 -->
<g id="edge180" class="edge"><title>Node46&#45;&gt;Node12</title>
<path fill="none" stroke="midnightblue" d="M1864.33,-181.327C1857.77,-178.639 1850.56,-175.963 1843.74,-174 1798.87,-161.085 1666.79,-173.732 1636.74,-138 1621.31,-119.66 1645.03,-98.7642 1666.83,-84.819"/>
<polygon fill="midnightblue" stroke="midnightblue" points="1668.89,-87.6594 1675.62,-79.4756 1665.26,-81.677 1668.89,-87.6594"/>
</g>
<!-- Node46&#45;&gt;Node16 -->
<g id="edge182" class="edge"><title>Node46&#45;&gt;Node16</title>
<path fill="none" stroke="midnightblue" d="M1856.98,-189.026C1819.24,-185.393 1753.3,-179.104 1696.74,-174 1505.16,-156.712 1275.56,-137.358 1188.04,-130.03"/>
<polygon fill="midnightblue" stroke="midnightblue" points="1188.1,-126.523 1177.84,-129.177 1187.51,-133.498 1188.1,-126.523"/>
</g>
<!-- Node46&#45;&gt;Node17 -->
<g id="edge178" class="edge"><title>Node46&#45;&gt;Node17</title>
<path fill="none" stroke="midnightblue" d="M1864.82,-181.395C1858.13,-178.643 1850.75,-175.917 1843.74,-174 1737.59,-144.951 1705.1,-166.306 1598.74,-138 1597.49,-137.668 1596.22,-137.297 1594.95,-136.898"/>
<polygon fill="midnightblue" stroke="midnightblue" points="1595.95,-133.537 1585.35,-133.467 1593.59,-140.129 1595.95,-133.537"/>
</g>
<!-- Node47&#45;&gt;Node6 -->
<g id="edge188" class="edge"><title>Node47&#45;&gt;Node6</title>
<path fill="none" stroke="midnightblue" d="M1633.66,-181.476C1602.47,-168.137 1552.7,-145.926 1547.74,-138 1542.56,-129.711 1540.95,-123.031 1547.74,-116 1571.57,-91.3392 2657.66,-73.1572 2884.49,-69.6251"/>
<polygon fill="midnightblue" stroke="midnightblue" points="2884.69,-73.1225 2894.63,-69.468 2884.58,-66.1233 2884.69,-73.1225"/>
</g>
<!-- Node47&#45;&gt;Node9 -->
<g id="edge186" class="edge"><title>Node47&#45;&gt;Node9</title>
<path fill="none" stroke="midnightblue" d="M1688.64,-188.628C1744.65,-181.97 1869.28,-165.549 1982.16,-138.137"/>
<polygon fill="midnightblue" stroke="midnightblue" points="1983.13,-141.503 1992,-135.712 1981.45,-134.707 1983.13,-141.503"/>
</g>
<!-- Node47&#45;&gt;Node16 -->
<g id="edge200" class="edge"><title>Node47&#45;&gt;Node16</title>
<path fill="none" stroke="midnightblue" d="M1628.96,-184.043C1615.01,-180.548 1598.11,-176.647 1582.74,-174 1437.81,-149.033 1263.04,-134.798 1188.41,-129.458"/>
<polygon fill="midnightblue" stroke="midnightblue" points="1188.36,-125.946 1178.14,-128.734 1187.87,-132.928 1188.36,-125.946"/>
</g>
<!-- Node47&#45;&gt;Node17 -->
<g id="edge198" class="edge"><title>Node47&#45;&gt;Node17</title>
<path fill="none" stroke="midnightblue" d="M1644.21,-181.267C1630.37,-171.044 1609.33,-155.504 1593.31,-143.67"/>
<polygon fill="midnightblue" stroke="midnightblue" points="1595.13,-140.66 1585,-137.534 1590.97,-146.29 1595.13,-140.66"/>
</g>
<!-- Node47&#45;&gt;Node33 -->
<g id="edge196" class="edge"><title>Node47&#45;&gt;Node33</title>
<path fill="none" stroke="midnightblue" d="M1629.02,-183.654C1615.08,-180.078 1598.18,-176.22 1582.74,-174 1501.09,-162.254 934.019,-137.097 754.268,-129.332"/>
<polygon fill="midnightblue" stroke="midnightblue" points="754.386,-125.834 744.244,-128.899 754.084,-132.827 754.386,-125.834"/>
</g>
<!-- Node48 -->
<g id="node143" class="node"><title>Node48</title>
<a xlink:href="math_8h.html" target="_top" xlink:title="base/std_ext/math.h">
<polygon fill="white" stroke="black" points="980.741,-116.5 980.741,-137.5 1086.74,-137.5 1086.74,-116.5 980.741,-116.5"/>
<text text-anchor="middle" x="1033.74" y="-124.5" font-family="Helvetica,sans-Serif" font-size="10.00">base/std_ext/math.h</text>
</a>
</g>
<!-- Node47&#45;&gt;Node48 -->
<g id="edge190" class="edge"><title>Node47&#45;&gt;Node48</title>
<path fill="none" stroke="midnightblue" d="M1628.99,-183.822C1615.05,-180.281 1598.15,-176.405 1582.74,-174 1377.5,-141.966 1323.34,-159.654 1116.74,-138 1110.38,-137.334 1103.76,-136.572 1097.16,-135.767"/>
<polygon fill="midnightblue" stroke="midnightblue" points="1097.18,-132.243 1086.82,-134.474 1096.31,-139.189 1097.18,-132.243"/>
</g>
<!-- Node48&#45;&gt;Node12 -->
<g id="edge194" class="edge"><title>Node48&#45;&gt;Node12</title>
<path fill="none" stroke="midnightblue" d="M1086.83,-119.557C1096.76,-118.28 1107.06,-117.034 1116.74,-116 1326.39,-93.6134 1579.76,-76.4462 1665.62,-70.9032"/>
<polygon fill="midnightblue" stroke="midnightblue" points="1665.95,-74.3895 1675.71,-70.2562 1665.5,-67.4039 1665.95,-74.3895"/>
</g>
<!-- Node48&#45;&gt;Node35 -->
<g id="edge192" class="edge"><title>Node48&#45;&gt;Node35</title>
<path fill="none" stroke="midnightblue" d="M991.882,-116.398C901.43,-93.489 689.362,-39.7774 608.16,-19.211"/>
<polygon fill="midnightblue" stroke="midnightblue" points="608.59,-15.7094 598.037,-16.647 606.872,-22.4952 608.59,-15.7094"/>
</g>
<!-- Node49&#45;&gt;Node7 -->
<g id="edge220" class="edge"><title>Node49&#45;&gt;Node7</title>
<path fill="none" stroke="midnightblue" d="M785.257,-246.352C783.481,-229.276 782.528,-195.509 798.741,-174 874.419,-73.6042 935.819,-92.4137 1056.74,-58 1172.02,-25.1936 1315.06,-15.1329 1378.2,-12.173"/>
<polygon fill="midnightblue" stroke="midnightblue" points="1378.49,-15.6633 1388.33,-11.7275 1378.19,-8.6701 1378.49,-15.6633"/>
</g>
<!-- Node49&#45;&gt;Node16 -->
<g id="edge228" class="edge"><title>Node49&#45;&gt;Node16</title>
<path fill="none" stroke="midnightblue" d="M818.04,-248.783C862.248,-237.062 938.936,-216.267 950.741,-210 972.755,-198.312 971.785,-185.798 993.741,-174 1014.84,-162.66 1075.92,-146.05 1115.67,-135.913"/>
<polygon fill="midnightblue" stroke="midnightblue" points="1116.68,-139.267 1125.52,-133.421 1114.96,-132.48 1116.68,-139.267"/>
</g>
<!-- Node49&#45;&gt;Node24 -->
<g id="edge226" class="edge"><title>Node49&#45;&gt;Node24</title>
<path fill="none" stroke="midnightblue" d="M772.42,-246.362C742.04,-223.793 670.929,-170.968 634.352,-143.797"/>
<polygon fill="midnightblue" stroke="midnightblue" points="636.374,-140.939 626.26,-137.785 632.2,-146.558 636.374,-140.939"/>
</g>
<!-- Node49&#45;&gt;Node30 -->
<g id="edge224" class="edge"><title>Node49&#45;&gt;Node30</title>
<path fill="none" stroke="midnightblue" d="M817.906,-249.607C869.428,-237.384 972.013,-213.049 1025.87,-200.272"/>
<polygon fill="midnightblue" stroke="midnightblue" points="1026.73,-203.665 1035.65,-197.952 1025.11,-196.854 1026.73,-203.665"/>
</g>
<!-- Node49&#45;&gt;Node32 -->
<g id="edge204" class="edge"><title>Node49&#45;&gt;Node32</title>
<path fill="none" stroke="midnightblue" d="M817.808,-252.156C832.079,-250.05 849.242,-247.685 864.741,-246 1073.01,-223.361 1129.16,-250.332 1334.74,-210 1340.58,-208.854 1346.67,-207.296 1352.58,-205.574"/>
<polygon fill="midnightblue" stroke="midnightblue" points="1353.79,-208.866 1362.3,-202.564 1351.72,-202.179 1353.79,-208.866"/>
</g>
<!-- Node49&#45;&gt;Node33 -->
<g id="edge218" class="edge"><title>Node49&#45;&gt;Node33</title>
<path fill="none" stroke="midnightblue" d="M779.621,-246.362C764.964,-224.46 731.237,-174.062 712.637,-146.27"/>
<polygon fill="midnightblue" stroke="midnightblue" points="715.429,-144.149 706.959,-137.785 709.612,-148.043 715.429,-144.149"/>
</g>
<!-- Node49&#45;&gt;Node35 -->
<g id="edge222" class="edge"><title>Node49&#45;&gt;Node35</title>
<path fill="none" stroke="midnightblue" d="M755.531,-255.892C629.502,-251.271 163.851,-232.707 142.741,-210 19.2984,-77.22 424.465,-25.9448 543.712,-13.931"/>
<polygon fill="midnightblue" stroke="midnightblue" points="544.095,-17.4102 553.705,-12.9493 543.411,-10.4438 544.095,-17.4102"/>
</g>
<!-- Node49&#45;&gt;Node48 -->
<g id="edge206" class="edge"><title>Node49&#45;&gt;Node48</title>
<path fill="none" stroke="midnightblue" d="M789.066,-246.217C793.508,-228.318 804.955,-192.608 828.741,-174 850.58,-156.915 918.658,-143.56 970.425,-135.522"/>
<polygon fill="midnightblue" stroke="midnightblue" points="971.181,-138.947 980.543,-133.986 970.13,-132.027 971.181,-138.947"/>
</g>
<!-- Node50 -->
<g id="node154" class="node"><title>Node50</title>
<a xlink:href="shared__ptr__container_8h.html" target="_top" xlink:title="base/std_ext/shared\l_ptr_container.h">
<polygon fill="white" stroke="black" points="837.241,-175 837.241,-209 942.241,-209 942.241,-175 837.241,-175"/>
<text text-anchor="start" x="845.241" y="-196" font-family="Helvetica,sans-Serif" font-size="10.00">base/std_ext/shared</text>
<text text-anchor="middle" x="889.741" y="-183" font-family="Helvetica,sans-Serif" font-size="10.00">_ptr_container.h</text>
</a>
</g>
<!-- Node49&#45;&gt;Node50 -->
<g id="edge208" class="edge"><title>Node49&#45;&gt;Node50</title>
<path fill="none" stroke="midnightblue" d="M803.749,-246.267C817.373,-237.669 836.957,-225.31 853.996,-214.558"/>
<polygon fill="midnightblue" stroke="midnightblue" points="856.04,-217.407 862.628,-209.11 852.304,-211.487 856.04,-217.407"/>
</g>
<!-- Node50&#45;&gt;Node7 -->
<g id="edge210" class="edge"><title>Node50&#45;&gt;Node7</title>
<path fill="none" stroke="midnightblue" d="M903.574,-174.783C918.541,-157.325 944.013,-130.829 971.741,-116 1110.71,-41.676 1302.26,-19.3276 1378.02,-13.1608"/>
<polygon fill="midnightblue" stroke="midnightblue" points="1378.63,-16.6238 1388.33,-12.3641 1378.09,-9.64457 1378.63,-16.6238"/>
</g>
<!-- Node50&#45;&gt;Node10 -->
<g id="edge216" class="edge"><title>Node50&#45;&gt;Node10</title>
<path fill="none" stroke="midnightblue" d="M942.328,-184.093C967.771,-180.522 998.789,-176.544 1026.74,-174 1336.71,-145.791 1421.82,-190.233 1732.42,-137.852"/>
<polygon fill="midnightblue" stroke="midnightblue" points="1733.35,-141.244 1742.62,-136.111 1732.18,-134.344 1733.35,-141.244"/>
</g>
<!-- Node50&#45;&gt;Node16 -->
<g id="edge212" class="edge"><title>Node50&#45;&gt;Node16</title>
<path fill="none" stroke="midnightblue" d="M942.299,-177.509C946.841,-176.304 951.369,-175.12 955.741,-174 1011.44,-159.73 1076.39,-144.415 1115.76,-135.276"/>
<polygon fill="midnightblue" stroke="midnightblue" points="1116.73,-138.645 1125.68,-132.979 1115.15,-131.826 1116.73,-138.645"/>
</g>
<!-- Node50&#45;&gt;Node51 -->
<g id="edge214" class="edge"><title>Node50&#45;&gt;Node51</title>
<path fill="none" stroke="midnightblue" d="M837.119,-190.805C732.05,-187.678 488.875,-176.73 277.52,-138.063"/>
<polygon fill="midnightblue" stroke="midnightblue" points="277.951,-134.583 267.48,-136.2 276.674,-141.466 277.951,-134.583"/>
</g>
<!-- Node52&#45;&gt;Node7 -->
<g id="edge236" class="edge"><title>Node52&#45;&gt;Node7</title>
<path fill="none" stroke="midnightblue" d="M1451.27,-304.375C1510.36,-282.802 1627.93,-231.05 1582.74,-174 1539.37,-119.238 1477.06,-189.393 1429.74,-138 1403.07,-109.025 1404.16,-59.5615 1407.4,-31.6851"/>
<polygon fill="midnightblue" stroke="midnightblue" points="1410.9,-31.8846 1408.79,-21.5022 1403.97,-30.9349 1410.9,-31.8846"/>
</g>
<!-- Node52&#45;&gt;Node10 -->
<g id="edge244" class="edge"><title>Node52&#45;&gt;Node10</title>
<path fill="none" stroke="midnightblue" d="M1457.63,-313.886C1600.52,-309.504 2099.84,-292.483 2122.74,-268 2148.95,-239.985 2130.25,-204.989 2086.74,-174 2036.72,-138.373 1873.01,-149.803 1812.74,-138 1811.49,-137.756 1810.23,-137.496 1808.95,-137.223"/>
<polygon fill="midnightblue" stroke="midnightblue" points="1809.63,-133.787 1799.1,-134.942 1808.05,-140.607 1809.63,-133.787"/>
</g>
<!-- Node52&#45;&gt;Node16 -->
<g id="edge242" class="edge"><title>Node52&#45;&gt;Node16</title>
<path fill="none" stroke="midnightblue" d="M1407.38,-304.248C1389.33,-289.089 1354.15,-261.55 1319.74,-246 1259.63,-218.831 1223.23,-255.789 1175.74,-210 1158.94,-193.801 1153.7,-166.633 1152.17,-147.814"/>
<polygon fill="midnightblue" stroke="midnightblue" points="1155.65,-147.398 1151.63,-137.596 1148.66,-147.765 1155.65,-147.398"/>
</g>
<!-- Node52&#45;&gt;Node24 -->
<g id="edge240" class="edge"><title>Node52&#45;&gt;Node24</title>
<path fill="none" stroke="midnightblue" d="M1382.22,-313.693C1249.35,-308.883 805.959,-291.236 746.741,-268 687.303,-244.678 642.233,-179.315 622.576,-146.423"/>
<polygon fill="midnightblue" stroke="midnightblue" points="625.559,-144.59 617.508,-137.703 619.507,-148.108 625.559,-144.59"/>
</g>
<!-- Node52&#45;&gt;Node30 -->
<g id="edge238" class="edge"><title>Node52&#45;&gt;Node30</title>
<path fill="none" stroke="midnightblue" d="M1388.82,-304.407C1322.2,-281.579 1165.47,-227.881 1095.51,-203.914"/>
<polygon fill="midnightblue" stroke="midnightblue" points="1096.44,-200.531 1085.84,-200.601 1094.17,-207.153 1096.44,-200.531"/>
</g>
<!-- Node52&#45;&gt;Node32 -->
<g id="edge234" class="edge"><title>Node52&#45;&gt;Node32</title>
<path fill="none" stroke="midnightblue" d="M1417.17,-304.085C1412.34,-283.609 1401.85,-239.133 1395.64,-212.778"/>
<polygon fill="midnightblue" stroke="midnightblue" points="1398.97,-211.645 1393.27,-202.715 1392.16,-213.252 1398.97,-211.645"/>
</g>
<!-- Node52&#45;&gt;Node49 -->
<g id="edge232" class="edge"><title>Node52&#45;&gt;Node49</title>
<path fill="none" stroke="midnightblue" d="M1381.98,-312.53C1292.18,-306.497 1058.84,-289.888 864.741,-268 852.759,-266.649 839.778,-264.923 827.907,-263.242"/>
<polygon fill="midnightblue" stroke="midnightblue" points="828.212,-259.75 817.814,-261.786 827.212,-266.678 828.212,-259.75"/>
</g>
<!-- Node53&#45;&gt;Node6 -->
<g id="edge250" class="edge"><title>Node53&#45;&gt;Node6</title>
<path fill="none" stroke="midnightblue" d="M2177.93,-369.242C2330.52,-351.395 2973.93,-275.725 2980.74,-268 2989.89,-257.626 3017.93,-221.617 2970.74,-116 2965.66,-104.629 2956.61,-94.3349 2947.95,-86.2992"/>
<polygon fill="midnightblue" stroke="midnightblue" points="2950.08,-83.5095 2940.23,-79.5884 2945.48,-88.7916 2950.08,-83.5095"/>
</g>
<!-- Node53&#45;&gt;Node7 -->
<g id="edge286" class="edge"><title>Node53&#45;&gt;Node7</title>
<path fill="none" stroke="midnightblue" d="M2177.92,-371.039C2325.74,-361.768 2935.2,-320.583 3000.74,-268 3056.43,-223.32 3086.43,-178.951 3052.74,-116 3030.81,-75.0272 3010.01,-72.1371 2965.74,-58 2890.67,-34.0252 1659.56,-14.694 1443.11,-11.4723"/>
<polygon fill="midnightblue" stroke="midnightblue" points="1443.07,-7.97155 1433.02,-11.323 1442.97,-14.9708 1443.07,-7.97155"/>
</g>
<!-- Node53&#45;&gt;Node9 -->
<g id="edge252" class="edge"><title>Node53&#45;&gt;Node9</title>
<path fill="none" stroke="midnightblue" d="M2177.85,-365.744C2212.22,-357.248 2263.36,-342.257 2274.74,-326 2288,-307.054 2310.36,-234.288 2248.74,-174 2185.61,-112.236 2137.65,-158.718 2051.2,-139.167"/>
<polygon fill="midnightblue" stroke="midnightblue" points="2051.87,-135.725 2041.32,-136.68 2050.16,-142.514 2051.87,-135.725"/>
</g>
<!-- Node53&#45;&gt;Node16 -->
<g id="edge292" class="edge"><title>Node53&#45;&gt;Node16</title>
<path fill="none" stroke="midnightblue" d="M2113.65,-368.133C1953.63,-343.776 1248.15,-235.294 1208.74,-210 1196.31,-202.022 1175.45,-168.408 1162.71,-146.481"/>
<polygon fill="midnightblue" stroke="midnightblue" points="1165.65,-144.571 1157.64,-137.635 1159.58,-148.052 1165.65,-144.571"/>
</g>
<!-- Node53&#45;&gt;Node17 -->
<g id="edge288" class="edge"><title>Node53&#45;&gt;Node17</title>
<path fill="none" stroke="midnightblue" d="M2113.52,-368.624C2074.62,-362.549 2007.8,-349.55 1954.74,-326 1844.44,-277.044 1838.89,-225.487 1729.74,-174 1684.37,-152.595 1627.07,-138.55 1595.12,-131.765"/>
<polygon fill="midnightblue" stroke="midnightblue" points="1595.82,-128.334 1585.31,-129.743 1594.4,-135.19 1595.82,-128.334"/>
</g>
<!-- Node53&#45;&gt;Node45 -->
<g id="edge284" class="edge"><title>Node53&#45;&gt;Node45</title>
<path fill="none" stroke="midnightblue" d="M2113.62,-371.373C1958.73,-363.527 1287.49,-329.525 1069.44,-318.48"/>
<polygon fill="midnightblue" stroke="midnightblue" points="1069.57,-314.982 1059.4,-317.971 1069.21,-321.973 1069.57,-314.982"/>
</g>
<!-- Node53&#45;&gt;Node52 -->
<g id="edge248" class="edge"><title>Node53&#45;&gt;Node52</title>
<path fill="none" stroke="midnightblue" d="M2113.61,-370.433C1998.34,-361.224 1605.17,-329.814 1467.68,-318.83"/>
<polygon fill="midnightblue" stroke="midnightblue" points="1467.71,-315.321 1457.46,-318.014 1467.15,-322.299 1467.71,-315.321"/>
</g>
<!-- Node54 -->
<g id="node181" class="node"><title>Node54</title>
<a xlink:href="_particle_type_8h.html" target="_top" xlink:title="base/ParticleType.h">
<polygon fill="white" stroke="black" points="2415.74,-246.5 2415.74,-267.5 2519.74,-267.5 2519.74,-246.5 2415.74,-246.5"/>
<text text-anchor="middle" x="2467.74" y="-254.5" font-family="Helvetica,sans-Serif" font-size="10.00">base/ParticleType.h</text>
</a>
</g>
<!-- Node53&#45;&gt;Node54 -->
<g id="edge254" class="edge"><title>Node53&#45;&gt;Node54</title>
<path fill="none" stroke="midnightblue" d="M2151.3,-362.351C2160.01,-346.794 2178.45,-318.167 2202.74,-304 2220.02,-293.926 2332.7,-276.307 2405.46,-265.739"/>
<polygon fill="midnightblue" stroke="midnightblue" points="2406.05,-269.19 2415.44,-264.296 2405.05,-262.262 2406.05,-269.19"/>
</g>
<!-- Node57 -->
<g id="node192" class="node"><title>Node57</title>
<a xlink:href="_tree_8h.html" target="_top" xlink:title="base/Tree.h">
<polygon fill="white" stroke="black" points="2171.74,-181.5 2171.74,-202.5 2239.74,-202.5 2239.74,-181.5 2171.74,-181.5"/>
<text text-anchor="middle" x="2205.74" y="-189.5" font-family="Helvetica,sans-Serif" font-size="10.00">base/Tree.h</text>
</a>
</g>
<!-- Node53&#45;&gt;Node57 -->
<g id="edge270" class="edge"><title>Node53&#45;&gt;Node57</title>
<path fill="none" stroke="midnightblue" d="M2149.23,-362.486C2158.92,-333.245 2186.32,-250.586 2199.07,-212.135"/>
<polygon fill="midnightblue" stroke="midnightblue" points="2202.42,-213.136 2202.25,-202.543 2195.78,-210.933 2202.42,-213.136"/>
</g>
<!-- Node59 -->
<g id="node204" class="node"><title>Node59</title>
<polygon fill="white" stroke="#bfbfbf" points="2211.74,-304.5 2211.74,-325.5 2265.74,-325.5 2265.74,-304.5 2211.74,-304.5"/>
<text text-anchor="middle" x="2238.74" y="-312.5" font-family="Helvetica,sans-Serif" font-size="10.00">iostream</text>
</g>
<!-- Node53&#45;&gt;Node59 -->
<g id="edge290" class="edge"><title>Node53&#45;&gt;Node59</title>
<path fill="none" stroke="midnightblue" d="M2162.8,-362.362C2176.83,-353.614 2196.93,-341.079 2212.92,-331.101"/>
<polygon fill="midnightblue" stroke="midnightblue" points="2215.16,-333.832 2221.79,-325.571 2211.45,-327.893 2215.16,-333.832"/>
</g>
<!-- Node54&#45;&gt;Node5 -->
<g id="edge258" class="edge"><title>Node54&#45;&gt;Node5</title>
<path fill="none" stroke="midnightblue" d="M2452.22,-246.267C2437.3,-235.949 2414.55,-220.216 2397.37,-208.342"/>
<polygon fill="midnightblue" stroke="midnightblue" points="2399.19,-205.343 2388.97,-202.534 2395.21,-211.1 2399.19,-205.343"/>
</g>
<!-- Node54&#45;&gt;Node7 -->
<g id="edge268" class="edge"><title>Node54&#45;&gt;Node7</title>
<path fill="none" stroke="midnightblue" d="M2519.97,-249.366C2565.72,-241.887 2633.63,-228.852 2690.74,-210 2727.19,-197.968 2827.02,-170.306 2847.74,-138 2853.02,-129.77 2854.05,-123.473 2847.74,-116 2748.88,1.15511 2660.18,-74.202 2507.74,-58 2293.26,-35.2029 1600.75,-15.9832 1442.95,-11.8305"/>
<polygon fill="midnightblue" stroke="midnightblue" points="1443.02,-8.33123 1432.93,-11.5682 1442.84,-15.3288 1443.02,-8.33123"/>
</g>
<!-- Node54&#45;&gt;Node8 -->
<g id="edge262" class="edge"><title>Node54&#45;&gt;Node8</title>
<path fill="none" stroke="midnightblue" d="M2519.81,-254.929C2613.5,-250.538 2806.34,-238.282 2866.74,-210 2957.24,-167.628 3033.91,-70.9238 3063.59,-29.929"/>
<polygon fill="midnightblue" stroke="midnightblue" points="3066.55,-31.8064 3069.5,-21.6313 3060.85,-27.7444 3066.55,-31.8064"/>
</g>
<!-- Node54&#45;&gt;Node9 -->
<g id="edge256" class="edge"><title>Node54&#45;&gt;Node9</title>
<path fill="none" stroke="midnightblue" d="M2421.14,-246.483C2392.25,-238.821 2355.01,-226.822 2324.74,-210 2302.96,-197.891 2304.43,-184.326 2281.74,-174 2188.77,-131.681 2154.44,-160.245 2054.74,-138 2053.67,-137.761 2052.58,-137.508 2051.49,-137.245"/>
<polygon fill="midnightblue" stroke="midnightblue" points="2052.12,-133.795 2041.56,-134.666 2050.36,-140.57 2052.12,-133.795"/>
</g>
<!-- Node54&#45;&gt;Node14 -->
<g id="edge260" class="edge"><title>Node54&#45;&gt;Node14</title>
<path fill="none" stroke="midnightblue" d="M2415.67,-250.284C2400.56,-248.587 2384.01,-246.972 2368.74,-246 2308.24,-242.149 229.25,-253.216 186.741,-210 175.521,-198.593 177.761,-187.243 186.741,-174 188.061,-172.053 240.058,-151.816 274.581,-138.539"/>
<polygon fill="midnightblue" stroke="midnightblue" points="276.147,-141.687 284.228,-134.835 273.638,-135.152 276.147,-141.687"/>
</g>
<!-- Node54&#45;&gt;Node55 -->
<g id="edge264" class="edge"><title>Node54&#45;&gt;Node55</title>
<path fill="none" stroke="midnightblue" d="M2415.67,-250.299C2400.56,-248.603 2384.01,-246.985 2368.74,-246 2313.57,-242.443 421.664,-244.847 378.741,-210 360.621,-195.289 357.625,-167.152 357.99,-147.746"/>
<polygon fill="midnightblue" stroke="midnightblue" points="361.486,-147.91 358.484,-137.75 354.494,-147.565 361.486,-147.91"/>
</g>
<!-- Node56 -->
<g id="node189" class="node"><title>Node56</title>
<polygon fill="white" stroke="#bfbfbf" points="2811.24,-181.5 2811.24,-202.5 2858.24,-202.5 2858.24,-181.5 2811.24,-181.5"/>
<text text-anchor="middle" x="2834.74" y="-189.5" font-family="Helvetica,sans-Serif" font-size="10.00">iterator</text>
</g>
<!-- Node54&#45;&gt;Node56 -->
<g id="edge266" class="edge"><title>Node54&#45;&gt;Node56</title>
<path fill="none" stroke="midnightblue" d="M2519.99,-254.571C2585.98,-250.373 2702.43,-239.184 2797.74,-210 2800.72,-209.088 2803.76,-207.965 2806.74,-206.729"/>
<polygon fill="midnightblue" stroke="midnightblue" points="2808.35,-209.844 2816,-202.516 2805.45,-203.473 2808.35,-209.844"/>
</g>
<!-- Node57&#45;&gt;Node7 -->
<g id="edge278" class="edge"><title>Node57&#45;&gt;Node7</title>
<path fill="none" stroke="midnightblue" d="M2171.55,-184.326C2155.56,-180.891 2136.23,-176.958 2118.74,-174 1998.07,-153.589 1960.38,-180.843 1845.74,-138 1815.55,-126.716 1754.84,-69.5476 1724.74,-58 1673.69,-38.4129 1513.19,-20.9582 1443.54,-14.0938"/>
<polygon fill="midnightblue" stroke="midnightblue" points="1443.46,-10.5699 1433.17,-13.0843 1442.78,-17.5369 1443.46,-10.5699"/>
</g>
<!-- Node57&#45;&gt;Node10 -->
<g id="edge280" class="edge"><title>Node57&#45;&gt;Node10</title>
<path fill="none" stroke="midnightblue" d="M2181.2,-181.427C2173.78,-178.607 2165.54,-175.837 2157.74,-174 2007.68,-138.648 1964.41,-165.61 1812.74,-138 1811.49,-137.772 1810.22,-137.527 1808.94,-137.267"/>
<polygon fill="midnightblue" stroke="midnightblue" points="1809.6,-133.827 1799.08,-135.046 1808.06,-140.657 1809.6,-133.827"/>
</g>
<!-- Node57&#45;&gt;Node16 -->
<g id="edge274" class="edge"><title>Node57&#45;&gt;Node16</title>
<path fill="none" stroke="midnightblue" d="M2171.49,-185.891C2147.77,-181.889 2115.43,-176.884 2086.74,-174 1996.34,-164.913 1350.48,-135.841 1188.51,-128.63"/>
<polygon fill="midnightblue" stroke="midnightblue" points="1188.27,-125.116 1178.12,-128.168 1187.96,-132.109 1188.27,-125.116"/>
</g>
<!-- Node57&#45;&gt;Node17 -->
<g id="edge276" class="edge"><title>Node57&#45;&gt;Node17</title>
<path fill="none" stroke="midnightblue" d="M2171.71,-186.26C2147.95,-182.399 2115.48,-177.41 2086.74,-174 1902.01,-152.078 1854.86,-156.273 1669.74,-138 1644.48,-135.506 1615.63,-132.255 1595.62,-129.935"/>
<polygon fill="midnightblue" stroke="midnightblue" points="1595.83,-126.436 1585.49,-128.753 1595.02,-133.389 1595.83,-126.436"/>
</g>
<!-- Node57&#45;&gt;Node41 -->
<g id="edge282" class="edge"><title>Node57&#45;&gt;Node41</title>
<path fill="none" stroke="midnightblue" d="M2233.27,-181.412C2262.47,-170.181 2308.66,-152.414 2340.27,-140.259"/>
<polygon fill="midnightblue" stroke="midnightblue" points="2341.9,-143.382 2349.98,-136.525 2339.39,-136.848 2341.9,-143.382"/>
</g>
<!-- Node58 -->
<g id="node194" class="node"><title>Node58</title>
<polygon fill="white" stroke="#bfbfbf" points="1854.74,-116.5 1854.74,-137.5 1974.74,-137.5 1974.74,-116.5 1854.74,-116.5"/>
<text text-anchor="middle" x="1914.74" y="-124.5" font-family="Helvetica,sans-Serif" font-size="10.00">base/cereal/access.hpp</text>
</g>
<!-- Node57&#45;&gt;Node58 -->
<g id="edge272" class="edge"><title>Node57&#45;&gt;Node58</title>
<path fill="none" stroke="midnightblue" d="M2180.1,-181.478C2172.94,-178.791 2165.11,-176.078 2157.74,-174 2125.98,-165.041 2044.84,-149.911 1985.02,-139.241"/>
<polygon fill="midnightblue" stroke="midnightblue" points="1985.32,-135.74 1974.86,-137.436 1984.09,-142.632 1985.32,-135.74"/>
</g>
<!-- Node60&#45;&gt;Node14 -->
<g id="edge296" class="edge"><title>Node60&#45;&gt;Node14</title>
<path fill="none" stroke="midnightblue" d="M254.649,-181.267C263.735,-171.423 277.374,-156.648 288.126,-145"/>
<polygon fill="midnightblue" stroke="midnightblue" points="290.807,-147.256 295.018,-137.534 285.663,-142.508 290.807,-147.256"/>
</g>
<!-- Node60&#45;&gt;Node16 -->
<g id="edge298" class="edge"><title>Node60&#45;&gt;Node16</title>
<path fill="none" stroke="midnightblue" d="M293.951,-184.39C319.236,-180.734 350.575,-176.594 378.741,-174 696.464,-144.735 779.047,-176.85 1095.74,-138 1102.19,-137.208 1109.02,-136.1 1115.6,-134.889"/>
<polygon fill="midnightblue" stroke="midnightblue" points="1116.51,-138.278 1125.66,-132.932 1115.17,-131.407 1116.51,-138.278"/>
</g>
<!-- Node60&#45;&gt;Node24 -->
<g id="edge304" class="edge"><title>Node60&#45;&gt;Node24</title>
<path fill="none" stroke="midnightblue" d="M293.855,-183.301C368.572,-170.068 509.091,-145.181 575.376,-133.441"/>
<polygon fill="midnightblue" stroke="midnightblue" points="576.12,-136.864 585.356,-131.673 574.899,-129.971 576.12,-136.864"/>
</g>
<!-- Node60&#45;&gt;Node55 -->
<g id="edge300" class="edge"><title>Node60&#45;&gt;Node55</title>
<path fill="none" stroke="midnightblue" d="M263.474,-181.412C282.435,-170.695 311.923,-154.028 333.268,-141.963"/>
<polygon fill="midnightblue" stroke="midnightblue" points="335.165,-144.911 342.149,-136.943 331.721,-138.817 335.165,-144.911"/>
</g>
<!-- Node61 -->
<g id="node212" class="node"><title>Node61</title>
<polygon fill="white" stroke="#bfbfbf" points="160.741,-116.5 160.741,-137.5 190.741,-137.5 190.741,-116.5 160.741,-116.5"/>
<text text-anchor="middle" x="175.741" y="-124.5" font-family="Helvetica,sans-Serif" font-size="10.00">set</text>
</g>
<!-- Node60&#45;&gt;Node61 -->
<g id="edge302" class="edge"><title>Node60&#45;&gt;Node61</title>
<path fill="none" stroke="midnightblue" d="M233.347,-181.267C222.797,-171.328 206.911,-156.363 194.493,-144.664"/>
<polygon fill="midnightblue" stroke="midnightblue" points="196.602,-141.843 186.923,-137.534 191.802,-146.938 196.602,-141.843"/>
</g>
<!-- Node62&#45;&gt;Node7 -->
<g id="edge312" class="edge"><title>Node62&#45;&gt;Node7</title>
<path fill="none" stroke="midnightblue" d="M441.092,-174.546C456.548,-144.481 492.749,-83.6831 543.741,-58 619.345,-19.9205 1229.8,-12.4805 1378.28,-11.2289"/>
<polygon fill="midnightblue" stroke="midnightblue" points="1378.57,-14.7268 1388.54,-11.1462 1378.51,-7.72698 1378.57,-14.7268"/>
</g>
<!-- Node62&#45;&gt;Node14 -->
<g id="edge308" class="edge"><title>Node62&#45;&gt;Node14</title>
<path fill="none" stroke="midnightblue" d="M399.111,-174.922C378.996,-164.707 353.671,-151.847 334.321,-142.021"/>
<polygon fill="midnightblue" stroke="midnightblue" points="335.852,-138.873 325.351,-137.466 332.682,-145.114 335.852,-138.873"/>
</g>
<!-- Node62&#45;&gt;Node16 -->
<g id="edge316" class="edge"><title>Node62&#45;&gt;Node16</title>
<path fill="none" stroke="midnightblue" d="M478.351,-190.059C586.15,-185.085 864.952,-169.962 1095.74,-138 1102.18,-137.108 1109,-135.951 1115.58,-134.722"/>
<polygon fill="midnightblue" stroke="midnightblue" points="1116.49,-138.111 1125.63,-132.762 1115.15,-131.24 1116.49,-138.111"/>
</g>
<!-- Node62&#45;&gt;Node17 -->
<g id="edge310" class="edge"><title>Node62&#45;&gt;Node17</title>
<path fill="none" stroke="midnightblue" d="M478.561,-189.867C677.395,-180.591 1457.84,-143.956 1509.74,-138 1521.73,-136.624 1534.92,-134.342 1545.96,-132.213"/>
<polygon fill="midnightblue" stroke="midnightblue" points="1546.66,-135.643 1555.78,-130.252 1545.29,-128.779 1546.66,-135.643"/>
</g>
<!-- Node62&#45;&gt;Node19 -->
<g id="edge320" class="edge"><title>Node62&#45;&gt;Node19</title>
<path fill="none" stroke="midnightblue" d="M478.463,-189.65C552.173,-185.923 701.85,-178.607 828.741,-174 1417.46,-152.624 1566.83,-188.833 2153.74,-138 2165.81,-136.955 2178.89,-135.239 2190.7,-133.471"/>
<polygon fill="midnightblue" stroke="midnightblue" points="2191.35,-136.912 2200.7,-131.918 2190.28,-129.995 2191.35,-136.912"/>
</g>
<!-- Node62&#45;&gt;Node51 -->
<g id="edge318" class="edge"><title>Node62&#45;&gt;Node51</title>
<path fill="none" stroke="midnightblue" d="M387.022,-176.76C353.705,-165.655 309.023,-150.761 277.249,-140.169"/>
<polygon fill="midnightblue" stroke="midnightblue" points="278.011,-136.734 267.417,-136.892 275.797,-143.375 278.011,-136.734"/>
</g>
<!-- Node62&#45;&gt;Node55 -->
<g id="edge314" class="edge"><title>Node62&#45;&gt;Node55</title>
<path fill="none" stroke="midnightblue" d="M413.561,-174.922C403.058,-165.57 390.065,-154.001 379.476,-144.572"/>
<polygon fill="midnightblue" stroke="midnightblue" points="381.725,-141.888 371.929,-137.852 377.07,-147.116 381.725,-141.888"/>
</g>
</g>
</svg>
