<?xml version="1.0" encoding="UTF-8" standalone="no"?>
<!DOCTYPE svg PUBLIC "-//W3C//DTD SVG 1.1//EN"
 "http://www.w3.org/Graphics/SVG/1.1/DTD/svg11.dtd">
<!-- Generated by graphviz version 2.26.3 (20100126.1600)
 -->
<!-- Title: src/expconfig/ExpConfig.cc Pages: 1 -->
<svg width="3339pt" height="594pt"
 viewBox="0.00 0.00 3339.01 594.00" xmlns="http://www.w3.org/2000/svg" xmlns:xlink="http://www.w3.org/1999/xlink">
<g id="graph1" class="graph" transform="scale(1 1) rotate(0) translate(4 590)">
<title>src/expconfig/ExpConfig.cc</title>
<polygon fill="white" stroke="white" points="-4,5 -4,-590 3336.01,-590 3336.01,5 -4,5"/>
<!-- Node1 -->
<g id="node1" class="node"><title>Node1</title>
<polygon fill="#bfbfbf" stroke="black" points="1966.51,-564.5 1966.51,-585.5 2103.51,-585.5 2103.51,-564.5 1966.51,-564.5"/>
<text text-anchor="middle" x="2035.01" y="-572.5" font-family="Helvetica,sans-Serif" font-size="10.00">src/expconfig/ExpConfig.cc</text>
</g>
<!-- Node2 -->
<g id="node3" class="node"><title>Node2</title>
<a xlink:href="_exp_config_8h.html" target="_top" xlink:title="ExpConfig.h">
<polygon fill="white" stroke="black" points="2259.51,-390.5 2259.51,-411.5 2330.51,-411.5 2330.51,-390.5 2259.51,-390.5"/>
<text text-anchor="middle" x="2295.01" y="-398.5" font-family="Helvetica,sans-Serif" font-size="10.00">ExpConfig.h</text>
</a>
</g>
<!-- Node1&#45;&gt;Node2 -->
<g id="edge2" class="edge"><title>Node1&#45;&gt;Node2</title>
<path fill="none" stroke="midnightblue" d="M2043.81,-564.329C2064,-540.452 2116.16,-482.142 2171.01,-448 2195.32,-432.87 2225.27,-421.348 2249.65,-413.5"/>
<polygon fill="midnightblue" stroke="midnightblue" points="2250.88,-416.784 2259.38,-410.465 2248.79,-410.102 2250.88,-416.784"/>
</g>
<!-- Node13 -->
<g id="node27" class="node"><title>Node13</title>
<polygon fill="white" stroke="#bfbfbf" points="1997.01,-123.5 1997.01,-144.5 2059.01,-144.5 2059.01,-123.5 1997.01,-123.5"/>
<text text-anchor="middle" x="2028.01" y="-131.5" font-family="Helvetica,sans-Serif" font-size="10.00">type_traits</text>
</g>
<!-- Node1&#45;&gt;Node13 -->
<g id="edge278" class="edge"><title>Node1&#45;&gt;Node13</title>
<path fill="none" stroke="midnightblue" d="M2021.77,-564.375C2000,-545.606 1959.01,-504.263 1959.01,-459 1959.01,-459 1959.01,-459 1959.01,-401 1959.01,-306.147 2000.34,-198.197 2019.02,-154.23"/>
<polygon fill="midnightblue" stroke="midnightblue" points="2022.29,-155.496 2023.05,-144.929 2015.86,-152.716 2022.29,-155.496"/>
</g>
<!-- Node18 -->
<g id="node39" class="node"><title>Node18</title>
<polygon fill="white" stroke="#bfbfbf" points="1728.51,-58.5 1728.51,-79.5 1757.51,-79.5 1757.51,-58.5 1728.51,-58.5"/>
<text text-anchor="middle" x="1743.01" y="-66.5" font-family="Helvetica,sans-Serif" font-size="10.00">list</text>
</g>
<!-- Node1&#45;&gt;Node18 -->
<g id="edge280" class="edge"><title>Node1&#45;&gt;Node18</title>
<path fill="none" stroke="midnightblue" d="M1966.45,-573.537C1771.74,-569.077 1224.52,-554.328 1148.01,-528 1105.46,-513.356 1089.14,-507.99 1065.01,-470 980.205,-336.463 982.548,-219.697 1102.01,-116 1149.26,-74.9846 1605.78,-69.7614 1718.13,-69.0968"/>
<polygon fill="midnightblue" stroke="midnightblue" points="1718.47,-72.5952 1728.45,-69.0432 1718.44,-65.5953 1718.47,-72.5952"/>
</g>
<!-- Node32 -->
<g id="node82" class="node"><title>Node32</title>
<a xlink:href="misc_8h.html" target="_top" xlink:title="base/std_ext/misc.h">
<polygon fill="white" stroke="black" points="302.51,-123.5 302.51,-144.5 407.51,-144.5 407.51,-123.5 302.51,-123.5"/>
<text text-anchor="middle" x="355.01" y="-131.5" font-family="Helvetica,sans-Serif" font-size="10.00">base/std_ext/misc.h</text>
</a>
</g>
<!-- Node1&#45;&gt;Node32 -->
<g id="edge276" class="edge"><title>Node1&#45;&gt;Node32</title>
<path fill="none" stroke="midnightblue" d="M1966.31,-574.256C1661.44,-570.81 438.423,-555.381 269.01,-528 164.495,-511.108 41.0104,-564.872 41.0104,-459 41.0104,-459 41.0104,-459 41.0104,-278 41.0104,-248.218 230.054,-177.958 314.776,-147.965"/>
<polygon fill="midnightblue" stroke="midnightblue" points="316.064,-151.222 324.331,-144.597 313.736,-144.621 316.064,-151.222"/>
</g>
<!-- Node40 -->
<g id="node105" class="node"><title>Node40</title>
<a xlink:href="_t_i_d_8h.html" target="_top" xlink:title="tree/TID.h">
<polygon fill="white" stroke="black" points="1238.51,-195.5 1238.51,-216.5 1299.51,-216.5 1299.51,-195.5 1238.51,-195.5"/>
<text text-anchor="middle" x="1269.01" y="-203.5" font-family="Helvetica,sans-Serif" font-size="10.00">tree/TID.h</text>
</a>
</g>
<!-- Node1&#45;&gt;Node40 -->
<g id="edge266" class="edge"><title>Node1&#45;&gt;Node40</title>
<path fill="none" stroke="midnightblue" d="M1966.31,-573.97C1745.62,-569.759 1069.01,-549.474 1069.01,-459 1069.01,-459 1069.01,-459 1069.01,-343 1069.01,-266.571 1169.65,-229.636 1228.15,-214.623"/>
<polygon fill="midnightblue" stroke="midnightblue" points="1229.32,-217.938 1238.2,-212.152 1227.65,-211.14 1229.32,-217.938"/>
</g>
<!-- Node47 -->
<g id="node134" class="node"><title>Node47</title>
<a xlink:href="_setup_8h.html" target="_top" xlink:title="setups/Setup.h">
<polygon fill="white" stroke="black" points="1848.51,-506.5 1848.51,-527.5 1931.51,-527.5 1931.51,-506.5 1848.51,-506.5"/>
<text text-anchor="middle" x="1890.01" y="-514.5" font-family="Helvetica,sans-Serif" font-size="10.00">setups/Setup.h</text>
</a>
</g>
<!-- Node1&#45;&gt;Node47 -->
<g id="edge174" class="edge"><title>Node1&#45;&gt;Node47</title>
<path fill="none" stroke="midnightblue" d="M2008.75,-564.497C1985.59,-555.234 1951.64,-541.65 1925.96,-531.379"/>
<polygon fill="midnightblue" stroke="midnightblue" points="1927.15,-528.086 1916.56,-527.621 1924.55,-534.585 1927.15,-528.086"/>
</g>
<!-- Node51 -->
<g id="node151" class="node"><title>Node51</title>
<a xlink:href="_unpacker_acqu_8h.html" target="_top" xlink:title="unpacker/UnpackerAcqu.h">
<polygon fill="white" stroke="black" points="2654.01,-448.5 2654.01,-469.5 2786.01,-469.5 2786.01,-448.5 2654.01,-448.5"/>
<text text-anchor="middle" x="2720.01" y="-456.5" font-family="Helvetica,sans-Serif" font-size="10.00">unpacker/UnpackerAcqu.h</text>
</a>
</g>
<!-- Node1&#45;&gt;Node51 -->
<g id="edge268" class="edge"><title>Node1&#45;&gt;Node51</title>
<path fill="none" stroke="midnightblue" d="M2064.55,-564.324C2089.6,-555.126 2126.39,-541.27 2158.01,-528 2179.65,-518.918 2183.33,-512.044 2206.01,-506 2286.54,-484.535 2521.44,-469.449 2643.84,-462.804"/>
<polygon fill="midnightblue" stroke="midnightblue" points="2644.09,-466.296 2653.89,-462.264 2643.71,-459.306 2644.09,-466.296"/>
</g>
<!-- Node53 -->
<g id="node165" class="node"><title>Node53</title>
<a xlink:href="_unpacker_a2_geant_8h.html" target="_top" xlink:title="unpacker/UnpackerA2Geant.h">
<polygon fill="white" stroke="black" points="2180.01,-448.5 2180.01,-469.5 2328.01,-469.5 2328.01,-448.5 2180.01,-448.5"/>
<text text-anchor="middle" x="2254.01" y="-456.5" font-family="Helvetica,sans-Serif" font-size="10.00">unpacker/UnpackerA2Geant.h</text>
</a>
</g>
<!-- Node1&#45;&gt;Node53 -->
<g id="edge270" class="edge"><title>Node1&#45;&gt;Node53</title>
<path fill="none" stroke="midnightblue" d="M2055.41,-564.418C2073.68,-554.929 2101.17,-540.603 2125.01,-528 2159.61,-509.714 2199.29,-488.444 2225.4,-474.407"/>
<polygon fill="midnightblue" stroke="midnightblue" points="2227.22,-477.401 2234.37,-469.581 2223.91,-471.236 2227.22,-477.401"/>
</g>
<!-- Node55 -->
<g id="node191" class="node"><title>Node55</title>
<a xlink:href="_logger_8h.html" target="_top" xlink:title="base/Logger.h">
<polygon fill="white" stroke="black" points="2215.01,-506.5 2215.01,-527.5 2293.01,-527.5 2293.01,-506.5 2215.01,-506.5"/>
<text text-anchor="middle" x="2254.01" y="-514.5" font-family="Helvetica,sans-Serif" font-size="10.00">base/Logger.h</text>
</a>
</g>
<!-- Node1&#45;&gt;Node55 -->
<g id="edge272" class="edge"><title>Node1&#45;&gt;Node55</title>
<path fill="none" stroke="midnightblue" d="M2074.67,-564.497C2111.18,-554.827 2165.47,-540.448 2204.75,-530.046"/>
<polygon fill="midnightblue" stroke="midnightblue" points="2205.88,-533.369 2214.65,-527.425 2204.08,-526.602 2205.88,-533.369"/>
</g>
<!-- Node57 -->
<g id="node198" class="node"><title>Node57</title>
<polygon fill="white" stroke="#bfbfbf" points="2311.01,-506.5 2311.01,-527.5 2365.01,-527.5 2365.01,-506.5 2311.01,-506.5"/>
<text text-anchor="middle" x="2338.01" y="-514.5" font-family="Helvetica,sans-Serif" font-size="10.00">iostream</text>
</g>
<!-- Node1&#45;&gt;Node57 -->
<g id="edge282" class="edge"><title>Node1&#45;&gt;Node57</title>
<path fill="none" stroke="midnightblue" d="M2103.52,-565.302C2155.41,-557.414 2228.58,-545.138 2301.2,-527.986"/>
<polygon fill="midnightblue" stroke="midnightblue" points="2302.07,-531.378 2310.98,-525.647 2300.44,-524.57 2302.07,-531.378"/>
</g>
<!-- Node3 -->
<g id="node5" class="node"><title>Node3</title>
<a xlink:href="_detector__t_8h.html" target="_top" xlink:title="base/Detector_t.h">
<polygon fill="white" stroke="black" points="2780.51,-195.5 2780.51,-216.5 2875.51,-216.5 2875.51,-195.5 2780.51,-195.5"/>
<text text-anchor="middle" x="2828.01" y="-203.5" font-family="Helvetica,sans-Serif" font-size="10.00">base/Detector_t.h</text>
</a>
</g>
<!-- Node2&#45;&gt;Node3 -->
<g id="edge4" class="edge"><title>Node2&#45;&gt;Node3</title>
<path fill="none" stroke="midnightblue" d="M2330.52,-397.851C2402.63,-391.121 2563.71,-374.286 2615.01,-354 2694.87,-322.423 2773.95,-255.757 2809.1,-223.807"/>
<polygon fill="midnightblue" stroke="midnightblue" points="2811.69,-226.176 2816.68,-216.828 2806.95,-221.025 2811.69,-226.176"/>
</g>
<!-- Node4 -->
<g id="node7" class="node"><title>Node4</title>
<a xlink:href="printable_8h.html" target="_top" xlink:title="base/printable.h">
<polygon fill="white" stroke="black" points="2867.01,-58.5 2867.01,-79.5 2953.01,-79.5 2953.01,-58.5 2867.01,-58.5"/>
<text text-anchor="middle" x="2910.01" y="-66.5" font-family="Helvetica,sans-Serif" font-size="10.00">base/printable.h</text>
</a>
</g>
<!-- Node2&#45;&gt;Node4 -->
<g id="edge166" class="edge"><title>Node2&#45;&gt;Node4</title>
<path fill="none" stroke="midnightblue" d="M2330.75,-397.983C2408.74,-391.125 2591.94,-373.442 2651.01,-354 2806.86,-302.704 2895.18,-302.723 2960.01,-152 2966.33,-137.302 2966.36,-130.686 2960.01,-116 2954.89,-104.16 2945.16,-93.9269 2935.63,-86.0602"/>
<polygon fill="midnightblue" stroke="midnightblue" points="2937.49,-83.0807 2927.43,-79.7752 2933.23,-88.6365 2937.49,-83.0807"/>
</g>
<!-- Node14 -->
<g id="node30" class="node"><title>Node14</title>
<a xlink:href="_reconstruct__traits_8h.html" target="_top" xlink:title="reconstruct/Reconstruct\l_traits.h">
<polygon fill="white" stroke="black" points="2397.01,-261 2397.01,-295 2519.01,-295 2519.01,-261 2397.01,-261"/>
<text text-anchor="start" x="2405.01" y="-282" font-family="Helvetica,sans-Serif" font-size="10.00">reconstruct/Reconstruct</text>
<text text-anchor="middle" x="2458.01" y="-269" font-family="Helvetica,sans-Serif" font-size="10.00">_traits.h</text>
</a>
</g>
<!-- Node2&#45;&gt;Node14 -->
<g id="edge32" class="edge"><title>Node2&#45;&gt;Node14</title>
<path fill="none" stroke="midnightblue" d="M2309.19,-390.3C2335.36,-370.55 2391.81,-327.954 2427.17,-301.271"/>
<polygon fill="midnightblue" stroke="midnightblue" points="2429.37,-303.997 2435.24,-295.18 2425.15,-298.41 2429.37,-303.997"/>
</g>
<!-- Node17 -->
<g id="node37" class="node"><title>Node17</title>
<polygon fill="white" stroke="#bfbfbf" points="2433.01,-58.5 2433.01,-79.5 2485.01,-79.5 2485.01,-58.5 2433.01,-58.5"/>
<text text-anchor="middle" x="2459.01" y="-66.5" font-family="Helvetica,sans-Serif" font-size="10.00">memory</text>
</g>
<!-- Node2&#45;&gt;Node17 -->
<g id="edge168" class="edge"><title>Node2&#45;&gt;Node17</title>
<path fill="none" stroke="midnightblue" d="M2330.56,-396.278C2392.11,-386.627 2520.28,-359.901 2607.01,-296 2638.79,-272.586 2641.9,-259.574 2659.01,-224 2680.17,-180.006 2709.71,-153.953 2679.01,-116 2656.34,-87.9726 2551.97,-75.927 2495.51,-71.3881"/>
<polygon fill="midnightblue" stroke="midnightblue" points="2495.47,-67.8744 2485.23,-70.6017 2494.93,-74.8541 2495.47,-67.8744"/>
</g>
<!-- Node2&#45;&gt;Node18 -->
<g id="edge170" class="edge"><title>Node2&#45;&gt;Node18</title>
<path fill="none" stroke="midnightblue" d="M2287.67,-390.081C2277.42,-375.461 2257.65,-349.356 2236.01,-332 2052.53,-184.834 1972.88,-195.452 1766.87,-82.6365"/>
<polygon fill="midnightblue" stroke="midnightblue" points="1768.36,-79.4618 1757.92,-77.698 1764.98,-85.5917 1768.36,-79.4618"/>
</g>
<!-- Node22 -->
<g id="node53" class="node"><title>Node22</title>
<polygon fill="white" stroke="#bfbfbf" points="2153.51,-195.5 2153.51,-216.5 2188.51,-216.5 2188.51,-195.5 2153.51,-195.5"/>
<text text-anchor="middle" x="2171.01" y="-203.5" font-family="Helvetica,sans-Serif" font-size="10.00">map</text>
</g>
<!-- Node2&#45;&gt;Node22 -->
<g id="edge172" class="edge"><title>Node2&#45;&gt;Node22</title>
<path fill="none" stroke="midnightblue" d="M2291.66,-390.488C2287.15,-376.761 2278.58,-352.113 2269.01,-332 2253.09,-298.549 2249.89,-289.134 2227.01,-260 2216.54,-246.667 2202.87,-233.426 2191.66,-223.392"/>
<polygon fill="midnightblue" stroke="midnightblue" points="2193.84,-220.65 2184.01,-216.697 2189.23,-225.917 2193.84,-220.65"/>
</g>
<!-- Node23 -->
<g id="node57" class="node"><title>Node23</title>
<a xlink:href="_calibration_8h.html" target="_top" xlink:title="calibration/Calibration.h">
<polygon fill="white" stroke="black" points="1986.51,-332.5 1986.51,-353.5 2105.51,-353.5 2105.51,-332.5 1986.51,-332.5"/>
<text text-anchor="middle" x="2046.01" y="-340.5" font-family="Helvetica,sans-Serif" font-size="10.00">calibration/Calibration.h</text>
</a>
</g>
<!-- Node2&#45;&gt;Node23 -->
<g id="edge68" class="edge"><title>Node2&#45;&gt;Node23</title>
<path fill="none" stroke="midnightblue" d="M2259.33,-392.69C2218.03,-383.069 2149.51,-367.109 2101.29,-355.877"/>
<polygon fill="midnightblue" stroke="midnightblue" points="2101.86,-352.416 2091.33,-353.556 2100.28,-359.234 2101.86,-352.416"/>
</g>
<!-- Node3&#45;&gt;Node4 -->
<g id="edge6" class="edge"><title>Node3&#45;&gt;Node4</title>
<path fill="none" stroke="midnightblue" d="M2834.44,-195.25C2848.22,-172.241 2880.72,-117.937 2898.27,-88.6079"/>
<polygon fill="midnightblue" stroke="midnightblue" points="2901.47,-90.0782 2903.61,-79.7002 2895.47,-86.4832 2901.47,-90.0782"/>
</g>
<!-- Node5 -->
<g id="node9" class="node"><title>Node5</title>
<polygon fill="white" stroke="#bfbfbf" points="2798.01,-0.5 2798.01,-21.5 2842.01,-21.5 2842.01,-0.5 2798.01,-0.5"/>
<text text-anchor="middle" x="2820.01" y="-8.5" font-family="Helvetica,sans-Serif" font-size="10.00">vector</text>
</g>
<!-- Node3&#45;&gt;Node5 -->
<g id="edge30" class="edge"><title>Node3&#45;&gt;Node5</title>
<path fill="none" stroke="midnightblue" d="M2827.57,-195.238C2826.29,-164.082 2822.57,-73.3973 2820.87,-32.022"/>
<polygon fill="midnightblue" stroke="midnightblue" points="2824.37,-31.817 2820.46,-21.9689 2817.37,-32.104 2824.37,-31.817"/>
</g>
<!-- Node7 -->
<g id="node13" class="node"><title>Node7</title>
<a xlink:href="vec3_8h.html" target="_top" xlink:title="base/vec/vec3.h">
<polygon fill="white" stroke="black" points="3082.51,-123.5 3082.51,-144.5 3171.51,-144.5 3171.51,-123.5 3082.51,-123.5"/>
<text text-anchor="middle" x="3127.01" y="-131.5" font-family="Helvetica,sans-Serif" font-size="10.00">base/vec/vec3.h</text>
</a>
</g>
<!-- Node3&#45;&gt;Node7 -->
<g id="edge12" class="edge"><title>Node3&#45;&gt;Node7</title>
<path fill="none" stroke="midnightblue" d="M2871.81,-195.453C2925.21,-182.594 3015.46,-160.862 3073.08,-146.986"/>
<polygon fill="midnightblue" stroke="midnightblue" points="3074.19,-150.319 3083.1,-144.575 3072.55,-143.513 3074.19,-150.319"/>
</g>
<!-- Node10 -->
<g id="node21" class="node"><title>Node10</title>
<polygon fill="white" stroke="#bfbfbf" points="2905.01,-123.5 2905.01,-144.5 2951.01,-144.5 2951.01,-123.5 2905.01,-123.5"/>
<text text-anchor="middle" x="2928.01" y="-131.5" font-family="Helvetica,sans-Serif" font-size="10.00">cstdint</text>
</g>
<!-- Node3&#45;&gt;Node10 -->
<g id="edge22" class="edge"><title>Node3&#45;&gt;Node10</title>
<path fill="none" stroke="midnightblue" d="M2842.77,-195.376C2859.16,-183.571 2885.84,-164.36 2904.99,-150.574"/>
<polygon fill="midnightblue" stroke="midnightblue" points="2907.12,-153.351 2913.19,-144.667 2903.03,-147.67 2907.12,-153.351"/>
</g>
<!-- Node11 -->
<g id="node23" class="node"><title>Node11</title>
<polygon fill="white" stroke="#bfbfbf" points="1408.51,-123.5 1408.51,-144.5 1467.51,-144.5 1467.51,-123.5 1408.51,-123.5"/>
<text text-anchor="middle" x="1438.01" y="-131.5" font-family="Helvetica,sans-Serif" font-size="10.00">stdexcept</text>
</g>
<!-- Node3&#45;&gt;Node11 -->
<g id="edge24" class="edge"><title>Node3&#45;&gt;Node11</title>
<path fill="none" stroke="midnightblue" d="M2780.47,-203.366C2713.15,-199.679 2586.2,-192.885 2478.01,-188 2066.56,-169.423 1961.91,-192.187 1552.01,-152 1527.22,-149.57 1499.63,-145.255 1477.79,-141.459"/>
<polygon fill="midnightblue" stroke="midnightblue" points="1478.35,-138.003 1467.89,-139.705 1477.13,-144.896 1478.35,-138.003"/>
</g>
<!-- Node12 -->
<g id="node25" class="node"><title>Node12</title>
<polygon fill="white" stroke="#bfbfbf" points="39.5104,-0.5 39.5104,-21.5 80.5104,-21.5 80.5104,-0.5 39.5104,-0.5"/>
<text text-anchor="middle" x="60.0104" y="-8.5" font-family="Helvetica,sans-Serif" font-size="10.00">string</text>
</g>
<!-- Node3&#45;&gt;Node12 -->
<g id="edge26" class="edge"><title>Node3&#45;&gt;Node12</title>
<path fill="none" stroke="midnightblue" d="M2780.41,-203.081C2655.53,-195.172 2325.01,-172.547 2280.01,-152 2258.85,-142.338 2263.25,-125.49 2242.01,-116 2063.68,-36.3206 1990.41,-138.356 1804.01,-80 1785.39,-74.1695 1784.79,-63.3212 1766.01,-58 1682.26,-34.2651 314.381,-14.4967 90.8021,-11.4168"/>
<polygon fill="midnightblue" stroke="midnightblue" points="90.7959,-7.91649 80.7488,-11.279 90.6998,-14.9158 90.7959,-7.91649"/>
</g>
<!-- Node3&#45;&gt;Node13 -->
<g id="edge28" class="edge"><title>Node3&#45;&gt;Node13</title>
<path fill="none" stroke="midnightblue" d="M2780.09,-203.371C2640.66,-195.572 2236.81,-171.865 2106.01,-152 2094,-150.176 2081.1,-147.5 2069.32,-144.765"/>
<polygon fill="midnightblue" stroke="midnightblue" points="2069.84,-141.292 2059.3,-142.367 2068.21,-148.099 2069.84,-141.292"/>
</g>
<!-- Node4&#45;&gt;Node5 -->
<g id="edge8" class="edge"><title>Node4&#45;&gt;Node5</title>
<path fill="none" stroke="midnightblue" d="M2893.5,-58.3619C2879.93,-49.6138 2860.48,-37.0786 2845,-27.1015"/>
<polygon fill="midnightblue" stroke="midnightblue" points="2846.71,-24.0457 2836.41,-21.5707 2842.92,-29.9297 2846.71,-24.0457"/>
</g>
<!-- Node6 -->
<g id="node11" class="node"><title>Node6</title>
<polygon fill="white" stroke="#bfbfbf" points="2884.01,-0.5 2884.01,-21.5 2936.01,-21.5 2936.01,-0.5 2884.01,-0.5"/>
<text text-anchor="middle" x="2910.01" y="-8.5" font-family="Helvetica,sans-Serif" font-size="10.00">ostream</text>
</g>
<!-- Node4&#45;&gt;Node6 -->
<g id="edge10" class="edge"><title>Node4&#45;&gt;Node6</title>
<path fill="none" stroke="midnightblue" d="M2910.01,-58.3619C2910.01,-50.9219 2910.01,-40.7427 2910.01,-31.7276"/>
<polygon fill="midnightblue" stroke="midnightblue" points="2913.51,-31.5706 2910.01,-21.5707 2906.51,-31.5707 2913.51,-31.5706"/>
</g>
<!-- Node7&#45;&gt;Node4 -->
<g id="edge14" class="edge"><title>Node7&#45;&gt;Node4</title>
<path fill="none" stroke="midnightblue" d="M3091.66,-123.412C3054.38,-112.246 2995.54,-94.6193 2954.98,-82.4703"/>
<polygon fill="midnightblue" stroke="midnightblue" points="2955.93,-79.1002 2945.34,-79.5835 2953.92,-85.8058 2955.93,-79.1002"/>
</g>
<!-- Node8 -->
<g id="node16" class="node"><title>Node8</title>
<a xlink:href="vec2_8h.html" target="_top" xlink:title="vec2.h">
<polygon fill="white" stroke="black" points="3285.01,-58.5 3285.01,-79.5 3331.01,-79.5 3331.01,-58.5 3285.01,-58.5"/>
<text text-anchor="middle" x="3308.01" y="-66.5" font-family="Helvetica,sans-Serif" font-size="10.00">vec2.h</text>
</a>
</g>
<!-- Node7&#45;&gt;Node8 -->
<g id="edge16" class="edge"><title>Node7&#45;&gt;Node8</title>
<path fill="none" stroke="midnightblue" d="M3156.49,-123.412C3189.13,-111.69 3241.59,-92.851 3275.43,-80.7006"/>
<polygon fill="midnightblue" stroke="midnightblue" points="3276.64,-83.9852 3284.87,-77.3112 3274.27,-77.3971 3276.64,-83.9852"/>
</g>
<!-- Node9 -->
<g id="node18" class="node"><title>Node9</title>
<polygon fill="white" stroke="#bfbfbf" points="3218.01,-0.5 3218.01,-21.5 3262.01,-21.5 3262.01,-0.5 3218.01,-0.5"/>
<text text-anchor="middle" x="3240.01" y="-8.5" font-family="Helvetica,sans-Serif" font-size="10.00">cmath</text>
</g>
<!-- Node7&#45;&gt;Node9 -->
<g id="edge20" class="edge"><title>Node7&#45;&gt;Node9</title>
<path fill="none" stroke="midnightblue" d="M3137.04,-123.085C3156.44,-101.97 3199.28,-55.3298 3223.14,-29.3616"/>
<polygon fill="midnightblue" stroke="midnightblue" points="3225.98,-31.4473 3230.17,-21.7153 3220.82,-26.7116 3225.98,-31.4473"/>
</g>
<!-- Node8&#45;&gt;Node9 -->
<g id="edge18" class="edge"><title>Node8&#45;&gt;Node9</title>
<path fill="none" stroke="midnightblue" d="M3295.54,-58.3619C3285.67,-49.9408 3271.68,-38.0105 3260.21,-28.2308"/>
<polygon fill="midnightblue" stroke="midnightblue" points="3262.28,-25.3972 3252.4,-21.5707 3257.74,-30.7231 3262.28,-25.3972"/>
</g>
<!-- Node14&#45;&gt;Node3 -->
<g id="edge34" class="edge"><title>Node14&#45;&gt;Node3</title>
<path fill="none" stroke="midnightblue" d="M2519.11,-266.111C2588.81,-252.548 2701.93,-230.535 2770.22,-217.246"/>
<polygon fill="midnightblue" stroke="midnightblue" points="2771.22,-220.617 2780.37,-215.271 2769.88,-213.746 2771.22,-220.617"/>
</g>
<!-- Node15 -->
<g id="node33" class="node"><title>Node15</title>
<a xlink:href="mapped__vectors_8h.html" target="_top" xlink:title="base/std_ext/mapped\l_vectors.h">
<polygon fill="white" stroke="black" points="2359.01,-189 2359.01,-223 2469.01,-223 2469.01,-189 2359.01,-189"/>
<text text-anchor="start" x="2367.01" y="-210" font-family="Helvetica,sans-Serif" font-size="10.00">base/std_ext/mapped</text>
<text text-anchor="middle" x="2414.01" y="-197" font-family="Helvetica,sans-Serif" font-size="10.00">_vectors.h</text>
</a>
</g>
<!-- Node14&#45;&gt;Node15 -->
<g id="edge36" class="edge"><title>Node14&#45;&gt;Node15</title>
<path fill="none" stroke="midnightblue" d="M2447.58,-260.937C2442.34,-252.365 2435.88,-241.791 2430.03,-232.217"/>
<polygon fill="midnightblue" stroke="midnightblue" points="2432.87,-230.148 2424.67,-223.441 2426.9,-233.799 2432.87,-230.148"/>
</g>
<!-- Node14&#45;&gt;Node17 -->
<g id="edge60" class="edge"><title>Node14&#45;&gt;Node17</title>
<path fill="none" stroke="midnightblue" d="M2466.11,-260.93C2470.6,-250.518 2475.72,-236.793 2478.01,-224 2486.62,-175.99 2473.74,-118.909 2465.33,-89.2174"/>
<polygon fill="midnightblue" stroke="midnightblue" points="2468.67,-88.1812 2462.48,-79.585 2461.96,-90.1671 2468.67,-88.1812"/>
</g>
<!-- Node14&#45;&gt;Node18 -->
<g id="edge64" class="edge"><title>Node14&#45;&gt;Node18</title>
<path fill="none" stroke="midnightblue" d="M2418.07,-260.92C2372.88,-241.903 2296.86,-210.842 2230.01,-188 2175.71,-169.445 2155.8,-180.538 2106.01,-152 2085.83,-140.431 2089.06,-125.899 2068.01,-116 1947.68,-59.4245 1899.93,-112.571 1771.01,-80 1769.76,-79.6834 1768.48,-79.3251 1767.21,-78.9363"/>
<polygon fill="midnightblue" stroke="midnightblue" points="1768.2,-75.5737 1757.6,-75.5396 1765.86,-82.1732 1768.2,-75.5737"/>
</g>
<!-- Node19 -->
<g id="node44" class="node"><title>Node19</title>
<a xlink:href="shared__ptr__container_8h.html" target="_top" xlink:title="base/std_ext/shared\l_ptr_container.h">
<polygon fill="white" stroke="black" points="2288.51,-117 2288.51,-151 2393.51,-151 2393.51,-117 2288.51,-117"/>
<text text-anchor="start" x="2296.51" y="-138" font-family="Helvetica,sans-Serif" font-size="10.00">base/std_ext/shared</text>
<text text-anchor="middle" x="2341.01" y="-125" font-family="Helvetica,sans-Serif" font-size="10.00">_ptr_container.h</text>
</a>
</g>
<!-- Node14&#45;&gt;Node19 -->
<g id="edge50" class="edge"><title>Node14&#45;&gt;Node19</title>
<path fill="none" stroke="midnightblue" d="M2398.41,-260.886C2380.04,-252.673 2361.61,-240.83 2350.01,-224 2337.51,-205.865 2336.01,-180.587 2337.2,-161.436"/>
<polygon fill="midnightblue" stroke="midnightblue" points="2340.71,-161.515 2338.12,-151.241 2333.74,-160.886 2340.71,-161.515"/>
</g>
<!-- Node20 -->
<g id="node48" class="node"><title>Node20</title>
<polygon fill="white" stroke="#bfbfbf" points="470.51,-58.5 470.51,-79.5 529.51,-79.5 529.51,-58.5 470.51,-58.5"/>
<text text-anchor="middle" x="500.01" y="-66.5" font-family="Helvetica,sans-Serif" font-size="10.00">functional</text>
</g>
<!-- Node14&#45;&gt;Node20 -->
<g id="edge66" class="edge"><title>Node14&#45;&gt;Node20</title>
<path fill="none" stroke="midnightblue" d="M2396.87,-275.742C2301.75,-272.249 2112.56,-265.375 1952.01,-260 1697.14,-251.467 1057.46,-260.082 805.01,-224 678.236,-205.881 618.844,-240.215 526.01,-152 508.979,-135.816 503.046,-108.645 501.012,-89.8208"/>
<polygon fill="midnightblue" stroke="midnightblue" points="504.481,-89.2899 500.198,-79.5996 497.503,-89.846 504.481,-89.2899"/>
</g>
<!-- Node14&#45;&gt;Node22 -->
<g id="edge62" class="edge"><title>Node14&#45;&gt;Node22</title>
<path fill="none" stroke="midnightblue" d="M2396.88,-263.072C2353.15,-252.341 2292.91,-237.452 2240.01,-224 2226.32,-220.52 2211.14,-216.568 2198.5,-213.255"/>
<polygon fill="midnightblue" stroke="midnightblue" points="2199.14,-209.804 2188.58,-210.647 2197.36,-216.574 2199.14,-209.804"/>
</g>
<!-- Node15&#45;&gt;Node5 -->
<g id="edge44" class="edge"><title>Node15&#45;&gt;Node5</title>
<path fill="none" stroke="midnightblue" d="M2449.68,-188.866C2528.02,-151.243 2713.99,-61.9197 2788.42,-26.1726"/>
<polygon fill="midnightblue" stroke="midnightblue" points="2790.25,-29.1758 2797.75,-21.6913 2787.22,-22.8658 2790.25,-29.1758"/>
</g>
<!-- Node15&#45;&gt;Node13 -->
<g id="edge48" class="edge"><title>Node15&#45;&gt;Node13</title>
<path fill="none" stroke="midnightblue" d="M2358.76,-197.224C2296.99,-187.2 2194.06,-169.866 2106.01,-152 2094,-149.563 2081.01,-146.67 2069.14,-143.923"/>
<polygon fill="midnightblue" stroke="midnightblue" points="2069.59,-140.433 2059.05,-141.563 2067.99,-147.249 2069.59,-140.433"/>
</g>
<!-- Node16 -->
<g id="node35" class="node"><title>Node16</title>
<a xlink:href="memory_8h.html" target="_top" xlink:title="base/std_ext/memory.h">
<polygon fill="white" stroke="black" points="2114.51,-123.5 2114.51,-144.5 2233.51,-144.5 2233.51,-123.5 2114.51,-123.5"/>
<text text-anchor="middle" x="2174.01" y="-131.5" font-family="Helvetica,sans-Serif" font-size="10.00">base/std_ext/memory.h</text>
</a>
</g>
<!-- Node15&#45;&gt;Node16 -->
<g id="edge38" class="edge"><title>Node15&#45;&gt;Node16</title>
<path fill="none" stroke="midnightblue" d="M2358.95,-189.482C2316.47,-176.737 2258.44,-159.329 2218.79,-147.433"/>
<polygon fill="midnightblue" stroke="midnightblue" points="2219.7,-144.054 2209.12,-144.533 2217.69,-150.759 2219.7,-144.054"/>
</g>
<!-- Node15&#45;&gt;Node17 -->
<g id="edge46" class="edge"><title>Node15&#45;&gt;Node17</title>
<path fill="none" stroke="midnightblue" d="M2421.22,-188.635C2425.47,-178.119 2430.82,-164.387 2435.01,-152 2442.15,-130.903 2449.08,-106.358 2453.64,-89.4613"/>
<polygon fill="midnightblue" stroke="midnightblue" points="2457.08,-90.1395 2456.28,-79.5753 2450.32,-88.3363 2457.08,-90.1395"/>
</g>
<!-- Node16&#45;&gt;Node17 -->
<g id="edge40" class="edge"><title>Node16&#45;&gt;Node17</title>
<path fill="none" stroke="midnightblue" d="M2220.12,-123.484C2276.57,-110.61 2371.01,-89.0708 2422.62,-77.3001"/>
<polygon fill="midnightblue" stroke="midnightblue" points="2423.68,-80.6485 2432.65,-75.0125 2422.12,-73.8238 2423.68,-80.6485"/>
</g>
<!-- Node16&#45;&gt;Node18 -->
<g id="edge42" class="edge"><title>Node16&#45;&gt;Node18</title>
<path fill="none" stroke="midnightblue" d="M2135.19,-123.412C2124.21,-120.692 2112.19,-117.98 2101.01,-116 1955.73,-90.2826 1914.27,-115.284 1771.01,-80 1769.76,-79.6909 1768.48,-79.3387 1767.2,-78.9547"/>
<polygon fill="midnightblue" stroke="midnightblue" points="1768.19,-75.591 1757.59,-75.5741 1765.87,-82.1943 1768.19,-75.591"/>
</g>
<!-- Node19&#45;&gt;Node5 -->
<g id="edge52" class="edge"><title>Node19&#45;&gt;Node5</title>
<path fill="none" stroke="midnightblue" d="M2354.18,-116.781C2369.01,-98.7863 2394.88,-71.3507 2424.01,-58 2488.83,-28.2923 2705.69,-15.9637 2787.98,-12.2796"/>
<polygon fill="midnightblue" stroke="midnightblue" points="2788.16,-15.7751 2798,-11.8443 2787.86,-8.78173 2788.16,-15.7751"/>
</g>
<!-- Node19&#45;&gt;Node17 -->
<g id="edge54" class="edge"><title>Node19&#45;&gt;Node17</title>
<path fill="none" stroke="midnightblue" d="M2372.01,-116.922C2390.1,-106.957 2412.77,-94.4729 2430.43,-84.7455"/>
<polygon fill="midnightblue" stroke="midnightblue" points="2432.59,-87.549 2439.66,-79.6584 2429.21,-81.4176 2432.59,-87.549"/>
</g>
<!-- Node19&#45;&gt;Node20 -->
<g id="edge56" class="edge"><title>Node19&#45;&gt;Node20</title>
<path fill="none" stroke="midnightblue" d="M2288.3,-122.875C2273.4,-120.15 2257.13,-117.569 2242.01,-116 1895.99,-80.0882 765.841,-70.7687 539.632,-69.245"/>
<polygon fill="midnightblue" stroke="midnightblue" points="539.574,-65.7447 529.551,-69.1783 539.527,-72.7445 539.574,-65.7447"/>
</g>
<!-- Node21 -->
<g id="node50" class="node"><title>Node21</title>
<polygon fill="white" stroke="#bfbfbf" points="1750.01,-0.5 1750.01,-21.5 1806.01,-21.5 1806.01,-0.5 1750.01,-0.5"/>
<text text-anchor="middle" x="1778.01" y="-8.5" font-family="Helvetica,sans-Serif" font-size="10.00">algorithm</text>
</g>
<!-- Node19&#45;&gt;Node21 -->
<g id="edge58" class="edge"><title>Node19&#45;&gt;Node21</title>
<path fill="none" stroke="midnightblue" d="M2288.48,-119.379C2283.94,-118.203 2279.4,-117.061 2275.01,-116 2104.85,-74.8581 1899.74,-34.386 1816.2,-18.2831"/>
<polygon fill="midnightblue" stroke="midnightblue" points="1816.64,-14.804 1806.16,-16.3526 1815.32,-21.678 1816.64,-14.804"/>
</g>
<!-- Node23&#45;&gt;Node5 -->
<g id="edge164" class="edge"><title>Node23&#45;&gt;Node5</title>
<path fill="none" stroke="midnightblue" d="M2105.7,-336.664C2120.81,-335.099 2137,-333.456 2152.01,-332 2240.62,-323.405 2470.93,-334.894 2551.01,-296 2678.63,-234.018 2776.82,-83.9201 2808.85,-30.3769"/>
<polygon fill="midnightblue" stroke="midnightblue" points="2812,-31.9383 2814.06,-21.5459 2805.96,-28.3848 2812,-31.9383"/>
</g>
<!-- Node23&#45;&gt;Node14 -->
<g id="edge70" class="edge"><title>Node23&#45;&gt;Node14</title>
<path fill="none" stroke="midnightblue" d="M2105.92,-333.548C2180.4,-321.798 2307.37,-301.765 2386.77,-289.24"/>
<polygon fill="midnightblue" stroke="midnightblue" points="2387.35,-292.691 2396.68,-287.675 2386.26,-285.776 2387.35,-292.691"/>
</g>
<!-- Node24 -->
<g id="node60" class="node"><title>Node24</title>
<a xlink:href="_manager__traits_8h.html" target="_top" xlink:title="calibration/gui/Manager\l_traits.h">
<polygon fill="white" stroke="black" points="1484.51,-261 1484.51,-295 1601.51,-295 1601.51,-261 1484.51,-261"/>
<text text-anchor="start" x="1492.51" y="-282" font-family="Helvetica,sans-Serif" font-size="10.00">calibration/gui/Manager</text>
<text text-anchor="middle" x="1543.01" y="-269" font-family="Helvetica,sans-Serif" font-size="10.00">_traits.h</text>
</a>
</g>
<!-- Node23&#45;&gt;Node24 -->
<g id="edge72" class="edge"><title>Node23&#45;&gt;Node24</title>
<path fill="none" stroke="midnightblue" d="M1986.33,-335.288C1892.49,-323.161 1710.92,-299.698 1611.75,-286.883"/>
<polygon fill="midnightblue" stroke="midnightblue" points="1612.2,-283.412 1601.83,-285.601 1611.3,-290.354 1612.2,-283.412"/>
</g>
<!-- Node24&#45;&gt;Node12 -->
<g id="edge158" class="edge"><title>Node24&#45;&gt;Node12</title>
<path fill="none" stroke="midnightblue" d="M1484.25,-274.803C1415.41,-271.091 1297.95,-264.857 1197.01,-260 835.298,-242.593 741.923,-272.176 383.01,-224 239.388,-204.722 157.451,-263.596 65.0104,-152 36.76,-117.896 45.9187,-61.636 53.7376,-31.5252"/>
<polygon fill="midnightblue" stroke="midnightblue" points="57.1615,-32.2776 56.4859,-21.7043 50.4205,-30.3911 57.1615,-32.2776"/>
</g>
<!-- Node24&#45;&gt;Node17 -->
<g id="edge162" class="edge"><title>Node24&#45;&gt;Node17</title>
<path fill="none" stroke="midnightblue" d="M1590.01,-260.917C1617.58,-250.668 1652.98,-237.114 1684.01,-224 1789.14,-179.563 1806.72,-145.373 1917.01,-116 2013.08,-90.4156 2317.67,-75.1258 2422.87,-70.5007"/>
<polygon fill="midnightblue" stroke="midnightblue" points="2423.14,-73.992 2432.98,-70.0619 2422.84,-66.9986 2423.14,-73.992"/>
</g>
<!-- Node24&#45;&gt;Node18 -->
<g id="edge160" class="edge"><title>Node24&#45;&gt;Node18</title>
<path fill="none" stroke="midnightblue" d="M1538.07,-260.998C1529.81,-228.671 1517.3,-157.842 1552.01,-116 1573.1,-90.5731 1671.42,-76.7332 1718.18,-71.4904"/>
<polygon fill="midnightblue" stroke="midnightblue" points="1718.8,-74.9442 1728.36,-70.3936 1718.05,-67.9845 1718.8,-74.9442"/>
</g>
<!-- Node25 -->
<g id="node62" class="node"><title>Node25</title>
<a xlink:href="interval_8h.html" target="_top" xlink:title="base/interval.h">
<polygon fill="white" stroke="black" points="1595.01,-195.5 1595.01,-216.5 1675.01,-216.5 1675.01,-195.5 1595.01,-195.5"/>
<text text-anchor="middle" x="1635.01" y="-203.5" font-family="Helvetica,sans-Serif" font-size="10.00">base/interval.h</text>
</a>
</g>
<!-- Node24&#45;&gt;Node25 -->
<g id="edge74" class="edge"><title>Node24&#45;&gt;Node25</title>
<path fill="none" stroke="midnightblue" d="M1564.81,-260.937C1579.47,-249.465 1598.71,-234.408 1613.34,-222.958"/>
<polygon fill="midnightblue" stroke="midnightblue" points="1615.64,-225.607 1621.35,-216.688 1611.32,-220.095 1615.64,-225.607"/>
</g>
<!-- Node29 -->
<g id="node73" class="node"><title>Node29</title>
<a xlink:href="_wrap_t_file_8h.html" target="_top" xlink:title="base/WrapTFile.h">
<polygon fill="white" stroke="black" points="814.01,-195.5 814.01,-216.5 908.01,-216.5 908.01,-195.5 814.01,-195.5"/>
<text text-anchor="middle" x="861.01" y="-203.5" font-family="Helvetica,sans-Serif" font-size="10.00">base/WrapTFile.h</text>
</a>
</g>
<!-- Node24&#45;&gt;Node29 -->
<g id="edge88" class="edge"><title>Node24&#45;&gt;Node29</title>
<path fill="none" stroke="midnightblue" d="M1484.27,-271.799C1354.82,-258.133 1046.32,-225.564 918.257,-212.044"/>
<polygon fill="midnightblue" stroke="midnightblue" points="918.569,-208.557 908.257,-210.988 917.834,-215.519 918.569,-208.557"/>
</g>
<!-- Node24&#45;&gt;Node40 -->
<g id="edge130" class="edge"><title>Node24&#45;&gt;Node40</title>
<path fill="none" stroke="midnightblue" d="M1484.23,-262.554C1431.6,-248.725 1355.81,-228.81 1309.63,-216.674"/>
<polygon fill="midnightblue" stroke="midnightblue" points="1310.25,-213.217 1299.69,-214.061 1308.47,-219.987 1310.25,-213.217"/>
</g>
<!-- Node25&#45;&gt;Node4 -->
<g id="edge76" class="edge"><title>Node25&#45;&gt;Node4</title>
<path fill="none" stroke="midnightblue" d="M1675.02,-201.956C1715.55,-197.967 1780.09,-191.914 1836.01,-188 2152.53,-165.845 2234.74,-195.716 2549.01,-152 2663.67,-136.05 2795.57,-101.493 2863.78,-82.3823"/>
<polygon fill="midnightblue" stroke="midnightblue" points="2865.09,-85.6483 2873.77,-79.5659 2863.19,-78.9109 2865.09,-85.6483"/>
</g>
<!-- Node25&#45;&gt;Node11 -->
<g id="edge82" class="edge"><title>Node25&#45;&gt;Node11</title>
<path fill="none" stroke="midnightblue" d="M1605.94,-195.376C1571.65,-182.844 1514.52,-161.965 1476.56,-148.091"/>
<polygon fill="midnightblue" stroke="midnightblue" points="1477.47,-144.696 1466.88,-144.55 1475.07,-151.27 1477.47,-144.696"/>
</g>
<!-- Node25&#45;&gt;Node21 -->
<g id="edge80" class="edge"><title>Node25&#45;&gt;Node21</title>
<path fill="none" stroke="midnightblue" d="M1646.86,-195.419C1657.73,-185.195 1673.67,-168.822 1684.01,-152 1707.44,-113.892 1693.73,-94.2074 1720.01,-58 1728.6,-46.1641 1740.89,-35.631 1751.94,-27.5517"/>
<polygon fill="midnightblue" stroke="midnightblue" points="1754.25,-30.2106 1760.45,-21.6203 1750.24,-24.4683 1754.25,-30.2106"/>
</g>
<!-- Node26 -->
<g id="node65" class="node"><title>Node26</title>
<a xlink:href="types_8h.html" target="_top" xlink:title="types.h">
<polygon fill="white" stroke="black" points="1560.51,-123.5 1560.51,-144.5 1609.51,-144.5 1609.51,-123.5 1560.51,-123.5"/>
<text text-anchor="middle" x="1585.01" y="-131.5" font-family="Helvetica,sans-Serif" font-size="10.00">types.h</text>
</a>
</g>
<!-- Node25&#45;&gt;Node26 -->
<g id="edge78" class="edge"><title>Node25&#45;&gt;Node26</title>
<path fill="none" stroke="midnightblue" d="M1627.63,-195.376C1619.95,-184.316 1607.76,-166.753 1598.37,-153.243"/>
<polygon fill="midnightblue" stroke="midnightblue" points="1601,-150.885 1592.42,-144.667 1595.25,-154.878 1601,-150.885"/>
</g>
<!-- Node27 -->
<g id="node69" class="node"><title>Node27</title>
<polygon fill="white" stroke="#bfbfbf" points="3189.01,-123.5 3189.01,-144.5 3229.01,-144.5 3229.01,-123.5 3189.01,-123.5"/>
<text text-anchor="middle" x="3209.01" y="-131.5" font-family="Helvetica,sans-Serif" font-size="10.00">limits</text>
</g>
<!-- Node25&#45;&gt;Node27 -->
<g id="edge84" class="edge"><title>Node25&#45;&gt;Node27</title>
<path fill="none" stroke="midnightblue" d="M1675.38,-201.637C1715.93,-197.431 1780.22,-191.242 1836.01,-188 1985.15,-179.333 3036.91,-194.88 3180.01,-152 3182.18,-151.35 3184.34,-150.494 3186.46,-149.507"/>
<polygon fill="midnightblue" stroke="midnightblue" points="3188.26,-152.514 3195.28,-144.581 3184.84,-146.403 3188.26,-152.514"/>
</g>
<!-- Node28 -->
<g id="node71" class="node"><title>Node28</title>
<polygon fill="white" stroke="#bfbfbf" points="1626.51,-123.5 1626.51,-144.5 1675.51,-144.5 1675.51,-123.5 1626.51,-123.5"/>
<text text-anchor="middle" x="1651.01" y="-131.5" font-family="Helvetica,sans-Serif" font-size="10.00">istream</text>
</g>
<!-- Node25&#45;&gt;Node28 -->
<g id="edge86" class="edge"><title>Node25&#45;&gt;Node28</title>
<path fill="none" stroke="midnightblue" d="M1637.37,-195.376C1639.73,-184.741 1643.43,-168.095 1646.38,-154.82"/>
<polygon fill="midnightblue" stroke="midnightblue" points="1649.89,-155.189 1648.64,-144.667 1643.05,-153.67 1649.89,-155.189"/>
</g>
<!-- Node29&#45;&gt;Node11 -->
<g id="edge126" class="edge"><title>Node29&#45;&gt;Node11</title>
<path fill="none" stroke="midnightblue" d="M908.087,-203.352C1021.6,-196.633 1307.82,-177.626 1400.01,-152 1403.18,-151.12 1406.4,-149.994 1409.57,-148.734"/>
<polygon fill="midnightblue" stroke="midnightblue" points="1411.05,-151.909 1418.78,-144.671 1408.22,-145.504 1411.05,-151.909"/>
</g>
<!-- Node29&#45;&gt;Node12 -->
<g id="edge122" class="edge"><title>Node29&#45;&gt;Node12</title>
<path fill="none" stroke="midnightblue" d="M813.925,-204.74C665.464,-200.443 213.633,-184.782 157.01,-152 113.27,-126.677 121.755,-99.572 93.0104,-58 86.6136,-48.7485 79.4462,-38.5237 73.4296,-29.98"/>
<polygon fill="midnightblue" stroke="midnightblue" points="76.2812,-27.9504 67.6568,-21.7964 70.5611,-31.9854 76.2812,-27.9504"/>
</g>
<!-- Node29&#45;&gt;Node17 -->
<g id="edge120" class="edge"><title>Node29&#45;&gt;Node17</title>
<path fill="none" stroke="midnightblue" d="M908.212,-204.015C1032.92,-198.428 1368.95,-181.052 1476.01,-152 1512.08,-142.212 1515.77,-125.141 1552.01,-116 1637.39,-94.4659 2264.28,-74.7286 2422.72,-70.0467"/>
<polygon fill="midnightblue" stroke="midnightblue" points="2422.99,-73.5402 2432.88,-69.7479 2422.79,-66.5432 2422.99,-73.5402"/>
</g>
<!-- Node29&#45;&gt;Node18 -->
<g id="edge124" class="edge"><title>Node29&#45;&gt;Node18</title>
<path fill="none" stroke="midnightblue" d="M902.452,-195.48C933.794,-186.524 977.223,-171.929 1012.01,-152 1033.64,-139.61 1031.89,-125.306 1055.01,-116 1117.55,-90.8311 1602.61,-73.5684 1718.3,-69.7827"/>
<polygon fill="midnightblue" stroke="midnightblue" points="1718.43,-73.2803 1728.31,-69.4587 1718.21,-66.284 1718.43,-73.2803"/>
</g>
<!-- Node29&#45;&gt;Node20 -->
<g id="edge128" class="edge"><title>Node29&#45;&gt;Node20</title>
<path fill="none" stroke="midnightblue" d="M813.948,-201.298C742.062,-193.458 608.933,-176.161 568.01,-152 542.212,-136.768 521.99,-107.917 510.52,-88.5694"/>
<polygon fill="midnightblue" stroke="midnightblue" points="513.457,-86.6523 505.472,-79.6887 507.371,-90.1119 513.457,-86.6523"/>
</g>
<!-- Node30 -->
<g id="node75" class="node"><title>Node30</title>
<a xlink:href="string_8h.html" target="_top" xlink:title="base/std_ext/string.h">
<polygon fill="white" stroke="black" points="1813.01,-58.5 1813.01,-79.5 1921.01,-79.5 1921.01,-58.5 1813.01,-58.5"/>
<text text-anchor="middle" x="1867.01" y="-66.5" font-family="Helvetica,sans-Serif" font-size="10.00">base/std_ext/string.h</text>
</a>
</g>
<!-- Node29&#45;&gt;Node30 -->
<g id="edge90" class="edge"><title>Node29&#45;&gt;Node30</title>
<path fill="none" stroke="midnightblue" d="M908.091,-204.073C982.24,-200.02 1130.13,-187.795 1250.01,-152 1285.82,-141.307 1289.91,-125.681 1326.01,-116 1515.52,-65.1784 1570.69,-98.6235 1766.01,-80 1777.88,-78.8686 1790.52,-77.568 1802.69,-76.2664"/>
<polygon fill="midnightblue" stroke="midnightblue" points="1803.22,-79.7299 1812.79,-75.1765 1802.47,-72.7704 1803.22,-79.7299"/>
</g>
<!-- Node29&#45;&gt;Node32 -->
<g id="edge100" class="edge"><title>Node29&#45;&gt;Node32</title>
<path fill="none" stroke="midnightblue" d="M813.862,-199.291C722.331,-186.267 520.562,-157.557 417.807,-142.936"/>
<polygon fill="midnightblue" stroke="midnightblue" points="418.273,-139.467 407.879,-141.523 417.286,-146.397 418.273,-139.467"/>
</g>
<!-- Node34 -->
<g id="node88" class="node"><title>Node34</title>
<polygon fill="white" stroke="#bfbfbf" points="576.51,-123.5 576.51,-144.5 623.51,-144.5 623.51,-123.5 576.51,-123.5"/>
<text text-anchor="middle" x="600.01" y="-131.5" font-family="Helvetica,sans-Serif" font-size="10.00">TFile.h</text>
</g>
<!-- Node29&#45;&gt;Node34 -->
<g id="edge108" class="edge"><title>Node29&#45;&gt;Node34</title>
<path fill="none" stroke="midnightblue" d="M813.797,-198.86C766.664,-190.815 692.706,-175.68 632.01,-152 629.936,-151.191 627.831,-150.267 625.744,-149.275"/>
<polygon fill="midnightblue" stroke="midnightblue" points="627.332,-146.156 616.847,-144.635 624.095,-152.362 627.332,-146.156"/>
</g>
<!-- Node35 -->
<g id="node90" class="node"><title>Node35</title>
<polygon fill="white" stroke="#bfbfbf" points="640.51,-123.5 640.51,-144.5 711.51,-144.5 711.51,-123.5 640.51,-123.5"/>
<text text-anchor="middle" x="676.01" y="-131.5" font-family="Helvetica,sans-Serif" font-size="10.00">TDirectory.h</text>
</g>
<!-- Node29&#45;&gt;Node35 -->
<g id="edge110" class="edge"><title>Node29&#45;&gt;Node35</title>
<path fill="none" stroke="midnightblue" d="M832.848,-195.428C804.335,-184.675 759.005,-167.441 720.01,-152 717.111,-150.852 714.109,-149.651 711.098,-148.437"/>
<polygon fill="midnightblue" stroke="midnightblue" points="712.146,-145.085 701.564,-144.568 709.514,-151.571 712.146,-145.085"/>
</g>
<!-- Node36 -->
<g id="node92" class="node"><title>Node36</title>
<polygon fill="white" stroke="#bfbfbf" points="729.01,-123.5 729.01,-144.5 781.01,-144.5 781.01,-123.5 729.01,-123.5"/>
<text text-anchor="middle" x="755.01" y="-131.5" font-family="Helvetica,sans-Serif" font-size="10.00">TError.h</text>
</g>
<!-- Node29&#45;&gt;Node36 -->
<g id="edge112" class="edge"><title>Node29&#45;&gt;Node36</title>
<path fill="none" stroke="midnightblue" d="M845.37,-195.376C827.912,-183.518 799.451,-164.186 779.137,-150.388"/>
<polygon fill="midnightblue" stroke="midnightblue" points="780.954,-147.391 770.715,-144.667 777.021,-153.182 780.954,-147.391"/>
</g>
<!-- Node37 -->
<g id="node94" class="node"><title>Node37</title>
<polygon fill="white" stroke="#bfbfbf" points="798.51,-123.5 798.51,-144.5 845.51,-144.5 845.51,-123.5 798.51,-123.5"/>
<text text-anchor="middle" x="822.01" y="-131.5" font-family="Helvetica,sans-Serif" font-size="10.00">TList.h</text>
</g>
<!-- Node29&#45;&gt;Node37 -->
<g id="edge114" class="edge"><title>Node29&#45;&gt;Node37</title>
<path fill="none" stroke="midnightblue" d="M855.256,-195.376C849.322,-184.422 839.934,-167.09 832.646,-153.634"/>
<polygon fill="midnightblue" stroke="midnightblue" points="835.629,-151.793 827.789,-144.667 829.474,-155.127 835.629,-151.793"/>
</g>
<!-- Node38 -->
<g id="node96" class="node"><title>Node38</title>
<polygon fill="white" stroke="#bfbfbf" points="863.01,-123.5 863.01,-144.5 937.01,-144.5 937.01,-123.5 863.01,-123.5"/>
<text text-anchor="middle" x="900.01" y="-131.5" font-family="Helvetica,sans-Serif" font-size="10.00">TCollection.h</text>
</g>
<!-- Node29&#45;&gt;Node38 -->
<g id="edge116" class="edge"><title>Node29&#45;&gt;Node38</title>
<path fill="none" stroke="midnightblue" d="M866.765,-195.376C872.698,-184.422 882.086,-167.09 889.375,-153.634"/>
<polygon fill="midnightblue" stroke="midnightblue" points="892.547,-155.127 894.232,-144.667 886.392,-151.793 892.547,-155.127"/>
</g>
<!-- Node39 -->
<g id="node98" class="node"><title>Node39</title>
<polygon fill="white" stroke="#bfbfbf" points="955.01,-123.5 955.01,-144.5 1003.01,-144.5 1003.01,-123.5 955.01,-123.5"/>
<text text-anchor="middle" x="979.01" y="-131.5" font-family="Helvetica,sans-Serif" font-size="10.00">TKey.h</text>
</g>
<!-- Node29&#45;&gt;Node39 -->
<g id="edge118" class="edge"><title>Node29&#45;&gt;Node39</title>
<path fill="none" stroke="midnightblue" d="M878.422,-195.376C898.03,-183.412 930.108,-163.839 952.759,-150.018"/>
<polygon fill="midnightblue" stroke="midnightblue" points="954.814,-152.864 961.528,-144.667 951.168,-146.888 954.814,-152.864"/>
</g>
<!-- Node30&#45;&gt;Node5 -->
<g id="edge98" class="edge"><title>Node30&#45;&gt;Node5</title>
<path fill="none" stroke="midnightblue" d="M1921.32,-65.6944C2097.28,-54.9855 2648.34,-21.4479 2787.73,-12.9649"/>
<polygon fill="midnightblue" stroke="midnightblue" points="2788,-16.4548 2797.77,-12.3537 2787.57,-9.46777 2788,-16.4548"/>
</g>
<!-- Node30&#45;&gt;Node12 -->
<g id="edge92" class="edge"><title>Node30&#45;&gt;Node12</title>
<path fill="none" stroke="midnightblue" d="M1812.9,-59.5801C1808.21,-58.9665 1803.53,-58.4252 1799.01,-58 1448.57,-25.0681 294.647,-13.1418 90.889,-11.2707"/>
<polygon fill="midnightblue" stroke="midnightblue" points="90.6495,-7.76849 80.6182,-11.1776 90.586,-14.7682 90.6495,-7.76849"/>
</g>
<!-- Node30&#45;&gt;Node21 -->
<g id="edge96" class="edge"><title>Node30&#45;&gt;Node21</title>
<path fill="none" stroke="midnightblue" d="M1850.69,-58.3619C1837.26,-49.6138 1818.03,-37.0786 1802.72,-27.1015"/>
<polygon fill="midnightblue" stroke="midnightblue" points="1804.52,-24.0982 1794.23,-21.5707 1800.7,-29.9628 1804.52,-24.0982"/>
</g>
<!-- Node31 -->
<g id="node78" class="node"><title>Node31</title>
<polygon fill="white" stroke="#bfbfbf" points="1901.01,-0.5 1901.01,-21.5 1953.01,-21.5 1953.01,-0.5 1901.01,-0.5"/>
<text text-anchor="middle" x="1927.01" y="-8.5" font-family="Helvetica,sans-Serif" font-size="10.00">sstream</text>
</g>
<!-- Node30&#45;&gt;Node31 -->
<g id="edge94" class="edge"><title>Node30&#45;&gt;Node31</title>
<path fill="none" stroke="midnightblue" d="M1878.02,-58.3619C1886.56,-50.1043 1898.59,-38.4725 1908.59,-28.8029"/>
<polygon fill="midnightblue" stroke="midnightblue" points="1911.32,-31.0374 1916.08,-21.5707 1906.45,-26.0044 1911.32,-31.0374"/>
</g>
<!-- Node32&#45;&gt;Node20 -->
<g id="edge104" class="edge"><title>Node32&#45;&gt;Node20</title>
<path fill="none" stroke="midnightblue" d="M378.63,-123.412C402.644,-112.647 440.052,-95.878 466.993,-83.8009"/>
<polygon fill="midnightblue" stroke="midnightblue" points="468.708,-86.8679 476.401,-79.5835 465.844,-80.4803 468.708,-86.8679"/>
</g>
<!-- Node32&#45;&gt;Node21 -->
<g id="edge102" class="edge"><title>Node32&#45;&gt;Node21</title>
<path fill="none" stroke="midnightblue" d="M365.345,-123.392C383.163,-105.922 421.655,-71.6718 462.01,-58 585.656,-16.1112 1536.31,-11.5558 1739.77,-11.0604"/>
<polygon fill="midnightblue" stroke="midnightblue" points="1739.97,-14.5601 1749.96,-11.0376 1739.95,-7.5601 1739.97,-14.5601"/>
</g>
<!-- Node33 -->
<g id="node86" class="node"><title>Node33</title>
<polygon fill="white" stroke="#bfbfbf" points="328.51,-58.5 328.51,-79.5 381.51,-79.5 381.51,-58.5 328.51,-58.5"/>
<text text-anchor="middle" x="355.01" y="-66.5" font-family="Helvetica,sans-Serif" font-size="10.00">cxxabi.h</text>
</g>
<!-- Node32&#45;&gt;Node33 -->
<g id="edge106" class="edge"><title>Node32&#45;&gt;Node33</title>
<path fill="none" stroke="midnightblue" d="M355.01,-123.267C355.01,-114.18 355.01,-100.892 355.01,-89.7395"/>
<polygon fill="midnightblue" stroke="midnightblue" points="358.511,-89.5337 355.01,-79.5337 351.511,-89.5337 358.511,-89.5337"/>
</g>
<!-- Node40&#45;&gt;Node4 -->
<g id="edge134" class="edge"><title>Node40&#45;&gt;Node4</title>
<path fill="none" stroke="midnightblue" d="M1299.61,-204.134C1356.15,-200.714 1480.86,-193.305 1586.01,-188 1948.57,-169.71 2042.65,-203.422 2402.01,-152 2468.6,-142.472 2482.89,-128.361 2549.01,-116 2657.67,-95.6862 2786.36,-81.1914 2856.99,-74.0462"/>
<polygon fill="midnightblue" stroke="midnightblue" points="2857.38,-77.5248 2866.98,-73.0455 2856.68,-70.5597 2857.38,-77.5248"/>
</g>
<!-- Node40&#45;&gt;Node10 -->
<g id="edge148" class="edge"><title>Node40&#45;&gt;Node10</title>
<path fill="none" stroke="midnightblue" d="M1299.6,-204.066C1356.14,-200.534 1480.84,-192.951 1586.01,-188 2013.84,-167.859 2121.1,-170.159 2549.01,-152 2676.81,-146.576 2828.8,-139.024 2894.75,-135.693"/>
<polygon fill="midnightblue" stroke="midnightblue" points="2895.13,-139.178 2904.94,-135.177 2894.78,-132.187 2895.13,-139.178"/>
</g>
<!-- Node40&#45;&gt;Node11 -->
<g id="edge150" class="edge"><title>Node40&#45;&gt;Node11</title>
<path fill="none" stroke="midnightblue" d="M1295.78,-195.435C1322.37,-184.827 1364.24,-167.83 1400.01,-152 1402.21,-151.028 1404.47,-150.008 1406.74,-148.969"/>
<polygon fill="midnightblue" stroke="midnightblue" points="1408.4,-152.054 1416,-144.663 1405.45,-145.707 1408.4,-152.054"/>
</g>
<!-- Node40&#45;&gt;Node13 -->
<g id="edge144" class="edge"><title>Node40&#45;&gt;Node13</title>
<path fill="none" stroke="midnightblue" d="M1299.7,-203.088C1418.9,-191.781 1851.21,-150.772 1986.94,-137.896"/>
<polygon fill="midnightblue" stroke="midnightblue" points="1987.31,-141.377 1996.93,-136.948 1986.65,-134.408 1987.31,-141.377"/>
</g>
<!-- Node40&#45;&gt;Node18 -->
<g id="edge152" class="edge"><title>Node40&#45;&gt;Node18</title>
<path fill="none" stroke="midnightblue" d="M1272.27,-195.47C1278.9,-176.045 1295.91,-134.84 1326.01,-116 1359.36,-95.1251 1633.38,-76.0121 1718.13,-70.5528"/>
<polygon fill="midnightblue" stroke="midnightblue" points="1718.39,-74.0434 1728.15,-69.9146 1717.94,-67.0575 1718.39,-74.0434"/>
</g>
<!-- Node41 -->
<g id="node107" class="node"><title>Node41</title>
<polygon fill="white" stroke="#bfbfbf" points="1335.01,-123.5 1335.01,-144.5 1391.01,-144.5 1391.01,-123.5 1335.01,-123.5"/>
<text text-anchor="middle" x="1363.01" y="-131.5" font-family="Helvetica,sans-Serif" font-size="10.00">Rtypes.h</text>
</g>
<!-- Node40&#45;&gt;Node41 -->
<g id="edge132" class="edge"><title>Node40&#45;&gt;Node41</title>
<path fill="none" stroke="midnightblue" d="M1282.88,-195.376C1298.15,-183.678 1322.92,-164.705 1340.88,-150.948"/>
<polygon fill="midnightblue" stroke="midnightblue" points="1343.27,-153.527 1349.08,-144.667 1339.02,-147.97 1343.27,-153.527"/>
</g>
<!-- Node42 -->
<g id="node110" class="node"><title>Node42</title>
<a xlink:href="time_8h.html" target="_top" xlink:title="base/std_ext/time.h">
<polygon fill="white" stroke="black" points="182.51,-123.5 182.51,-144.5 285.51,-144.5 285.51,-123.5 182.51,-123.5"/>
<text text-anchor="middle" x="234.01" y="-131.5" font-family="Helvetica,sans-Serif" font-size="10.00">base/std_ext/time.h</text>
</a>
</g>
<!-- Node40&#45;&gt;Node42 -->
<g id="edge136" class="edge"><title>Node40&#45;&gt;Node42</title>
<path fill="none" stroke="midnightblue" d="M1238.5,-204.409C1075.91,-195.919 317.858,-156.177 294.01,-152 287.543,-150.867 280.789,-149.268 274.243,-147.484"/>
<polygon fill="midnightblue" stroke="midnightblue" points="274.778,-143.995 264.199,-144.572 272.829,-150.718 274.778,-143.995"/>
</g>
<!-- Node44 -->
<g id="node115" class="node"><title>Node44</title>
<polygon fill="white" stroke="#bfbfbf" points="148.51,-58.5 148.51,-79.5 189.51,-79.5 189.51,-58.5 148.51,-58.5"/>
<text text-anchor="middle" x="169.01" y="-66.5" font-family="Helvetica,sans-Serif" font-size="10.00">ctime</text>
</g>
<!-- Node40&#45;&gt;Node44 -->
<g id="edge156" class="edge"><title>Node40&#45;&gt;Node44</title>
<path fill="none" stroke="midnightblue" d="M1238.41,-204.407C1177.31,-201.234 1035.88,-193.919 917.01,-188 875.735,-185.945 203.404,-181.05 174.01,-152 157.885,-136.063 159.663,-108.443 163.447,-89.4716"/>
<polygon fill="midnightblue" stroke="midnightblue" points="166.862,-90.2362 165.72,-79.7031 160.044,-88.6496 166.862,-90.2362"/>
</g>
<!-- Node45 -->
<g id="node118" class="node"><title>Node45</title>
<polygon fill="white" stroke="#bfbfbf" points="1135.01,-123.5 1135.01,-144.5 1173.01,-144.5 1173.01,-123.5 1135.01,-123.5"/>
<text text-anchor="middle" x="1154.01" y="-131.5" font-family="Helvetica,sans-Serif" font-size="10.00">tuple</text>
</g>
<!-- Node40&#45;&gt;Node45 -->
<g id="edge146" class="edge"><title>Node40&#45;&gt;Node45</title>
<path fill="none" stroke="midnightblue" d="M1251.63,-195.323C1234.03,-184.487 1206.06,-167.191 1182.01,-152 1180.94,-151.323 1179.84,-150.63 1178.74,-149.928"/>
<polygon fill="midnightblue" stroke="midnightblue" points="1180.58,-146.95 1170.27,-144.514 1176.81,-152.848 1180.58,-146.95"/>
</g>
<!-- Node46 -->
<g id="node123" class="node"><title>Node46</title>
<polygon fill="white" stroke="#bfbfbf" points="1191.01,-123.5 1191.01,-144.5 1241.01,-144.5 1241.01,-123.5 1191.01,-123.5"/>
<text text-anchor="middle" x="1216.01" y="-131.5" font-family="Helvetica,sans-Serif" font-size="10.00">iomanip</text>
</g>
<!-- Node40&#45;&gt;Node46 -->
<g id="edge154" class="edge"><title>Node40&#45;&gt;Node46</title>
<path fill="none" stroke="midnightblue" d="M1261.19,-195.376C1252.97,-184.209 1239.87,-166.415 1229.89,-152.855"/>
<polygon fill="midnightblue" stroke="midnightblue" points="1232.61,-150.646 1223.86,-144.667 1226.97,-154.796 1232.61,-150.646"/>
</g>
<!-- Node42&#45;&gt;Node30 -->
<g id="edge138" class="edge"><title>Node42&#45;&gt;Node30</title>
<path fill="none" stroke="midnightblue" d="M263.554,-123.43C273.144,-120.462 283.915,-117.608 294.01,-116 617.146,-64.5306 1439.52,-101.733 1766.01,-80 1777.9,-79.2083 1790.56,-78.0681 1802.74,-76.8185"/>
<polygon fill="midnightblue" stroke="midnightblue" points="1803.26,-80.2831 1812.83,-75.7483 1802.52,-73.3221 1803.26,-80.2831"/>
</g>
<!-- Node43 -->
<g id="node113" class="node"><title>Node43</title>
<polygon fill="white" stroke="#bfbfbf" points="211.01,-58.5 211.01,-79.5 257.01,-79.5 257.01,-58.5 211.01,-58.5"/>
<text text-anchor="middle" x="234.01" y="-66.5" font-family="Helvetica,sans-Serif" font-size="10.00">cstring</text>
</g>
<!-- Node42&#45;&gt;Node43 -->
<g id="edge140" class="edge"><title>Node42&#45;&gt;Node43</title>
<path fill="none" stroke="midnightblue" d="M234.01,-123.267C234.01,-114.18 234.01,-100.892 234.01,-89.7395"/>
<polygon fill="midnightblue" stroke="midnightblue" points="237.511,-89.5337 234.01,-79.5337 230.511,-89.5337 237.511,-89.5337"/>
</g>
<!-- Node42&#45;&gt;Node44 -->
<g id="edge142" class="edge"><title>Node42&#45;&gt;Node44</title>
<path fill="none" stroke="midnightblue" d="M223.277,-123.267C213.338,-113.328 198.374,-98.3635 186.675,-86.6645"/>
<polygon fill="midnightblue" stroke="midnightblue" points="189.09,-84.1299 179.544,-79.5337 184.14,-89.0797 189.09,-84.1299"/>
</g>
<!-- Node47&#45;&gt;Node2 -->
<g id="edge176" class="edge"><title>Node47&#45;&gt;Node2</title>
<path fill="none" stroke="midnightblue" d="M1931.72,-506.416C1964.11,-497.781 2009.93,-484.648 2049.01,-470 2070.99,-461.764 2074.82,-455.636 2097.01,-448 2148.13,-430.408 2208.89,-417.053 2249.49,-409.156"/>
<polygon fill="midnightblue" stroke="midnightblue" points="2250.2,-412.585 2259.36,-407.267 2248.88,-405.709 2250.2,-412.585"/>
</g>
<!-- Node47&#45;&gt;Node12 -->
<g id="edge264" class="edge"><title>Node47&#45;&gt;Node12</title>
<path fill="none" stroke="midnightblue" d="M1848.24,-516.19C1635.34,-511.973 676.008,-491.894 545.01,-470 292.444,-427.787 164.869,-437.847 24.0104,-224 -16.5996,-162.347 1.0929,-125.927 30.0104,-58 34.1873,-48.1886 40.3242,-38.1186 45.9611,-29.829"/>
<polygon fill="midnightblue" stroke="midnightblue" points="48.8443,-31.8137 51.7649,-21.6294 43.1307,-27.7695 48.8443,-31.8137"/>
</g>
<!-- Node47&#45;&gt;Node20 -->
<g id="edge262" class="edge"><title>Node47&#45;&gt;Node20</title>
<path fill="none" stroke="midnightblue" d="M1848.27,-516.081C1602.89,-510.413 359.01,-477.886 359.01,-401 359.01,-401 359.01,-401 359.01,-278 359.01,-233.888 446.42,-129.675 483.595,-87.3487"/>
<polygon fill="midnightblue" stroke="midnightblue" points="486.316,-89.5544 490.319,-79.7447 481.072,-84.9172 486.316,-89.5544"/>
</g>
<!-- Node47&#45;&gt;Node23 -->
<g id="edge248" class="edge"><title>Node47&#45;&gt;Node23</title>
<path fill="none" stroke="midnightblue" d="M1900.52,-506.305C1909.73,-496.863 1923.42,-482.669 1935.01,-470 1969.67,-432.119 2008.92,-386.556 2030.21,-361.601"/>
<polygon fill="midnightblue" stroke="midnightblue" points="2033.14,-363.562 2036.96,-353.68 2027.81,-359.023 2033.14,-363.562"/>
</g>
<!-- Node47&#45;&gt;Node40 -->
<g id="edge246" class="edge"><title>Node47&#45;&gt;Node40</title>
<path fill="none" stroke="midnightblue" d="M1848.36,-514.951C1691.47,-506.686 1145.01,-472.749 1145.01,-401 1145.01,-401 1145.01,-401 1145.01,-343 1145.01,-286.957 1202.75,-243.604 1239.43,-221.72"/>
<polygon fill="midnightblue" stroke="midnightblue" points="1241.35,-224.656 1248.26,-216.624 1237.85,-218.595 1241.35,-224.656"/>
</g>
<!-- Node48 -->
<g id="node137" class="node"><title>Node48</title>
<a xlink:href="_setup_registry_8h.html" target="_top" xlink:title="SetupRegistry.h">
<polygon fill="white" stroke="black" points="1806.51,-332.5 1806.51,-353.5 1893.51,-353.5 1893.51,-332.5 1806.51,-332.5"/>
<text text-anchor="middle" x="1850.01" y="-340.5" font-family="Helvetica,sans-Serif" font-size="10.00">SetupRegistry.h</text>
</a>
</g>
<!-- Node47&#45;&gt;Node48 -->
<g id="edge178" class="edge"><title>Node47&#45;&gt;Node48</title>
<path fill="none" stroke="midnightblue" d="M1887.57,-506.377C1881.08,-478.172 1863.35,-401.012 1854.77,-363.72"/>
<polygon fill="midnightblue" stroke="midnightblue" points="1858.17,-362.889 1852.52,-353.928 1851.35,-364.458 1858.17,-362.889"/>
</g>
<!-- Node49 -->
<g id="node139" class="node"><title>Node49</title>
<a xlink:href="_options_list_8h.html" target="_top" xlink:title="base/OptionsList.h">
<polygon fill="white" stroke="black" points="1845.01,-267.5 1845.01,-288.5 1943.01,-288.5 1943.01,-267.5 1845.01,-267.5"/>
<text text-anchor="middle" x="1894.01" y="-275.5" font-family="Helvetica,sans-Serif" font-size="10.00">base/OptionsList.h</text>
</a>
</g>
<!-- Node47&#45;&gt;Node49 -->
<g id="edge260" class="edge"><title>Node47&#45;&gt;Node49</title>
<path fill="none" stroke="midnightblue" d="M1891.76,-506.152C1896.14,-477.621 1906.88,-398.123 1902.01,-332 1901.19,-320.894 1899.44,-308.607 1897.78,-298.563"/>
<polygon fill="midnightblue" stroke="midnightblue" points="1901.23,-297.96 1896.07,-288.706 1894.33,-299.157 1901.23,-297.96"/>
</g>
<!-- Node47&#45;&gt;Node51 -->
<g id="edge200" class="edge"><title>Node47&#45;&gt;Node51</title>
<path fill="none" stroke="midnightblue" d="M1931.74,-514.084C2063.58,-504.871 2472.54,-476.293 2643.59,-464.34"/>
<polygon fill="midnightblue" stroke="midnightblue" points="2644.04,-467.818 2653.77,-463.629 2643.55,-460.835 2644.04,-467.818"/>
</g>
<!-- Node47&#45;&gt;Node53 -->
<g id="edge224" class="edge"><title>Node47&#45;&gt;Node53</title>
<path fill="none" stroke="midnightblue" d="M1931.77,-510.347C1991.6,-500.812 2102.76,-483.101 2177.56,-471.182"/>
<polygon fill="midnightblue" stroke="midnightblue" points="2178.54,-474.57 2187.87,-469.54 2177.44,-467.657 2178.54,-474.57"/>
</g>
<!-- Node54 -->
<g id="node179" class="node"><title>Node54</title>
<a xlink:href="_data_manager_8h.html" target="_top" xlink:title="calibration/DataManager.h">
<polygon fill="white" stroke="black" points="1713.51,-390.5 1713.51,-411.5 1844.51,-411.5 1844.51,-390.5 1713.51,-390.5"/>
<text text-anchor="middle" x="1779.01" y="-398.5" font-family="Helvetica,sans-Serif" font-size="10.00">calibration/DataManager.h</text>
</a>
</g>
<!-- Node47&#45;&gt;Node54 -->
<g id="edge250" class="edge"><title>Node47&#45;&gt;Node54</title>
<path fill="none" stroke="midnightblue" d="M1879.77,-506.295C1860.69,-486.355 1819.52,-443.337 1796.14,-418.906"/>
<polygon fill="midnightblue" stroke="midnightblue" points="1798.67,-416.485 1789.23,-411.679 1793.61,-421.324 1798.67,-416.485"/>
</g>
<!-- Node48&#45;&gt;Node17 -->
<g id="edge196" class="edge"><title>Node48&#45;&gt;Node17</title>
<path fill="none" stroke="midnightblue" d="M1893.54,-339.038C1918.29,-336.84 1949.88,-334.129 1978.01,-332 2039.08,-327.378 2486.14,-340.696 2528.01,-296 2584.65,-235.533 2509.69,-129.948 2474.96,-87.4737"/>
<polygon fill="midnightblue" stroke="midnightblue" points="2477.51,-85.063 2468.41,-79.6291 2472.13,-89.5488 2477.51,-85.063"/>
</g>
<!-- Node48&#45;&gt;Node18 -->
<g id="edge194" class="edge"><title>Node48&#45;&gt;Node18</title>
<path fill="none" stroke="midnightblue" d="M1845.82,-332.259C1829.77,-291.167 1772.11,-143.521 1750.91,-89.2227"/>
<polygon fill="midnightblue" stroke="midnightblue" points="1754.07,-87.7086 1747.18,-79.6669 1747.55,-90.255 1754.07,-87.7086"/>
</g>
<!-- Node48&#45;&gt;Node20 -->
<g id="edge198" class="edge"><title>Node48&#45;&gt;Node20</title>
<path fill="none" stroke="midnightblue" d="M1806.45,-340.772C1595.36,-329.734 684.344,-279.218 571.01,-224 531.441,-204.721 520.008,-192.601 503.01,-152 494.697,-132.143 495.06,-107.217 496.807,-89.8889"/>
<polygon fill="midnightblue" stroke="midnightblue" points="500.309,-90.0853 498.077,-79.7283 493.363,-89.2167 500.309,-90.0853"/>
</g>
<!-- Node48&#45;&gt;Node22 -->
<g id="edge192" class="edge"><title>Node48&#45;&gt;Node22</title>
<path fill="none" stroke="midnightblue" d="M1879.4,-332.461C1932.44,-313.111 2047.25,-269.694 2140.01,-224 2141.58,-223.225 2143.19,-222.402 2144.79,-221.552"/>
<polygon fill="midnightblue" stroke="midnightblue" points="2146.82,-224.432 2153.86,-216.517 2143.42,-218.312 2146.82,-224.432"/>
</g>
<!-- Node48&#45;&gt;Node49 -->
<g id="edge180" class="edge"><title>Node48&#45;&gt;Node49</title>
<path fill="none" stroke="midnightblue" d="M1857.28,-332.267C1863.75,-322.707 1873.37,-308.496 1881.14,-297.015"/>
<polygon fill="midnightblue" stroke="midnightblue" points="1884.17,-298.777 1886.88,-288.534 1878.38,-294.853 1884.17,-298.777"/>
</g>
<!-- Node49&#45;&gt;Node12 -->
<g id="edge182" class="edge"><title>Node49&#45;&gt;Node12</title>
<path fill="none" stroke="midnightblue" d="M1844.78,-274.45C1788.17,-270.468 1692.42,-264.038 1610.01,-260 1148.51,-237.384 1030.93,-268.348 571.01,-224 520.281,-219.108 157.987,-183.612 118.01,-152 80.1031,-122.024 66.7649,-63.0862 62.2321,-31.7446"/>
<polygon fill="midnightblue" stroke="midnightblue" points="65.669,-31.0276 60.9313,-21.5511 58.7253,-31.9137 65.669,-31.0276"/>
</g>
<!-- Node49&#45;&gt;Node17 -->
<g id="edge184" class="edge"><title>Node49&#45;&gt;Node17</title>
<path fill="none" stroke="midnightblue" d="M1918.08,-267.486C1962.2,-248.64 2059.39,-209.111 2145.01,-188 2256.99,-160.39 2303.93,-212.688 2402.01,-152 2414.57,-144.228 2435.39,-110.549 2448.09,-88.5526"/>
<polygon fill="midnightblue" stroke="midnightblue" points="2451.23,-90.0993 2453.14,-79.677 2445.15,-86.6369 2451.23,-90.0993"/>
</g>
<!-- Node49&#45;&gt;Node22 -->
<g id="edge186" class="edge"><title>Node49&#45;&gt;Node22</title>
<path fill="none" stroke="midnightblue" d="M1943.39,-271.756C1994.02,-264.304 2074.4,-249.527 2140.01,-224 2142.08,-223.193 2144.18,-222.261 2146.26,-221.253"/>
<polygon fill="midnightblue" stroke="midnightblue" points="2147.92,-224.333 2155.08,-216.516 2144.61,-218.167 2147.92,-224.333"/>
</g>
<!-- Node49&#45;&gt;Node31 -->
<g id="edge190" class="edge"><title>Node49&#45;&gt;Node31</title>
<path fill="none" stroke="midnightblue" d="M1896.64,-267.361C1903.8,-237.853 1923.48,-152.379 1930.01,-80 1931.46,-63.9529 1930.56,-45.7411 1929.38,-32.0584"/>
<polygon fill="midnightblue" stroke="midnightblue" points="1932.83,-31.3859 1928.37,-21.7771 1925.86,-32.0721 1932.83,-31.3859"/>
</g>
<!-- Node50 -->
<g id="node144" class="node"><title>Node50</title>
<polygon fill="white" stroke="#bfbfbf" points="1845.01,-195.5 1845.01,-216.5 1875.01,-216.5 1875.01,-195.5 1845.01,-195.5"/>
<text text-anchor="middle" x="1860.01" y="-203.5" font-family="Helvetica,sans-Serif" font-size="10.00">set</text>
</g>
<!-- Node49&#45;&gt;Node50 -->
<g id="edge188" class="edge"><title>Node49&#45;&gt;Node50</title>
<path fill="none" stroke="midnightblue" d="M1888.99,-267.376C1883.87,-256.528 1875.8,-239.426 1869.47,-226.027"/>
<polygon fill="midnightblue" stroke="midnightblue" points="1872.48,-224.215 1865.05,-216.667 1866.15,-227.204 1872.48,-224.215"/>
</g>
<!-- Node51&#45;&gt;Node2 -->
<g id="edge208" class="edge"><title>Node51&#45;&gt;Node2</title>
<path fill="none" stroke="midnightblue" d="M2653.6,-449.938C2566.53,-438.055 2416.04,-417.517 2340.72,-407.238"/>
<polygon fill="midnightblue" stroke="midnightblue" points="2340.99,-403.742 2330.61,-405.858 2340.04,-410.678 2340.99,-403.742"/>
</g>
<!-- Node51&#45;&gt;Node3 -->
<g id="edge210" class="edge"><title>Node51&#45;&gt;Node3</title>
<path fill="none" stroke="midnightblue" d="M2761.77,-448.493C2793.54,-439.557 2833.39,-425.981 2843.01,-412 2882.58,-354.519 2853.32,-265.385 2837.01,-225.941"/>
<polygon fill="midnightblue" stroke="midnightblue" points="2840.17,-224.423 2833.01,-216.615 2833.74,-227.185 2840.17,-224.423"/>
</g>
<!-- Node51&#45;&gt;Node5 -->
<g id="edge218" class="edge"><title>Node51&#45;&gt;Node5</title>
<path fill="none" stroke="midnightblue" d="M2786.25,-449.165C2789.21,-448.763 2792.14,-448.373 2795.01,-448 2899.42,-434.437 3257.01,-448.285 3257.01,-343 3257.01,-343 3257.01,-343 3257.01,-134 3257.01,42.9246 3048.74,-55.4898 2875.01,-22 2867.58,-20.568 2859.6,-18.9922 2852.08,-17.4916"/>
<polygon fill="midnightblue" stroke="midnightblue" points="2852.7,-14.047 2842.21,-15.5126 2851.32,-20.9104 2852.7,-14.047"/>
</g>
<!-- Node51&#45;&gt;Node10 -->
<g id="edge220" class="edge"><title>Node51&#45;&gt;Node10</title>
<path fill="none" stroke="midnightblue" d="M2765.72,-448.45C2840.07,-429.946 2979.01,-389.19 2979.01,-343 2979.01,-343 2979.01,-343 2979.01,-278 2979.01,-231.231 2954.81,-180.566 2939.75,-153.565"/>
<polygon fill="midnightblue" stroke="midnightblue" points="2942.7,-151.665 2934.68,-144.739 2936.63,-155.153 2942.7,-151.665"/>
</g>
<!-- Node51&#45;&gt;Node17 -->
<g id="edge212" class="edge"><title>Node51&#45;&gt;Node17</title>
<path fill="none" stroke="midnightblue" d="M2778.83,-448.427C2829.12,-438.822 2897.17,-424.315 2922.01,-412 2958.21,-394.054 2974.51,-390.415 2992.01,-354 3038.25,-257.806 3040.51,-186.073 2960.01,-116 2925.1,-85.6091 2604.6,-73.3248 2495.32,-69.9967"/>
<polygon fill="midnightblue" stroke="midnightblue" points="2495.22,-66.4923 2485.12,-69.6936 2495.01,-73.4893 2495.22,-66.4923"/>
</g>
<!-- Node51&#45;&gt;Node18 -->
<g id="edge214" class="edge"><title>Node51&#45;&gt;Node18</title>
<path fill="none" stroke="midnightblue" d="M2679.95,-448.445C2649.96,-440.006 2608.22,-427.112 2573.01,-412 2413.26,-343.436 2366.8,-331.287 2230.01,-224 2212.93,-210.605 2216.06,-198.4 2197.01,-188 2114.28,-142.835 2079.29,-175.494 1988.01,-152 1940.64,-139.808 1930.59,-130.926 1884.01,-116 1833.33,-99.7598 1815.98,-101.973 1767.25,-81.9915"/>
<polygon fill="midnightblue" stroke="midnightblue" points="1768.35,-78.6547 1757.77,-77.9927 1765.63,-85.1043 1768.35,-78.6547"/>
</g>
<!-- Node51&#45;&gt;Node22 -->
<g id="edge216" class="edge"><title>Node51&#45;&gt;Node22</title>
<path fill="none" stroke="midnightblue" d="M2697.12,-448.451C2609.02,-407.851 2292.07,-261.787 2197.7,-218.299"/>
<polygon fill="midnightblue" stroke="midnightblue" points="2199.08,-215.084 2188.54,-214.077 2196.15,-221.441 2199.08,-215.084"/>
</g>
<!-- Node51&#45;&gt;Node27 -->
<g id="edge222" class="edge"><title>Node51&#45;&gt;Node27</title>
<path fill="none" stroke="midnightblue" d="M2786.26,-449.229C2789.21,-448.81 2792.14,-448.399 2795.01,-448 2880.72,-436.084 3170.01,-429.538 3170.01,-343 3170.01,-343 3170.01,-343 3170.01,-278 3170.01,-232.296 3188.54,-181.182 3200.05,-153.83"/>
<polygon fill="midnightblue" stroke="midnightblue" points="3203.3,-155.139 3204.07,-144.572 3196.88,-152.353 3203.3,-155.139"/>
</g>
<!-- Node52 -->
<g id="node153" class="node"><title>Node52</title>
<a xlink:href="_unpacker_8h.html" target="_top" xlink:title="Unpacker.h">
<polygon fill="white" stroke="black" points="2160.51,-332.5 2160.51,-353.5 2227.51,-353.5 2227.51,-332.5 2160.51,-332.5"/>
<text text-anchor="middle" x="2194.01" y="-340.5" font-family="Helvetica,sans-Serif" font-size="10.00">Unpacker.h</text>
</a>
</g>
<!-- Node51&#45;&gt;Node52 -->
<g id="edge202" class="edge"><title>Node51&#45;&gt;Node52</title>
<path fill="none" stroke="midnightblue" d="M2653.7,-455.152C2532.79,-447.727 2285.71,-430.514 2251.01,-412 2230.15,-400.872 2213.96,-378.601 2204.24,-362.361"/>
<polygon fill="midnightblue" stroke="midnightblue" points="2207.27,-360.598 2199.29,-353.626 2201.18,-364.051 2207.27,-360.598"/>
</g>
<!-- Node52&#45;&gt;Node12 -->
<g id="edge204" class="edge"><title>Node52&#45;&gt;Node12</title>
<path fill="none" stroke="midnightblue" d="M2160.22,-337.719C2145.98,-335.66 2129.22,-333.451 2114.01,-332 2058.18,-326.676 147.362,-250.634 98.0104,-224 63.0427,-205.129 57.9299,-189.576 45.0104,-152 34.6019,-121.727 43.4549,-112.009 43.0104,-80 42.8746,-70.2232 41.3222,-67.6309 43.0104,-58 44.6116,-48.8656 47.8388,-39.1665 51.0553,-30.9662"/>
<polygon fill="midnightblue" stroke="midnightblue" points="54.3698,-32.112 55.0005,-21.536 47.9121,-29.4103 54.3698,-32.112"/>
</g>
<!-- Node52&#45;&gt;Node17 -->
<g id="edge206" class="edge"><title>Node52&#45;&gt;Node17</title>
<path fill="none" stroke="midnightblue" d="M2227.61,-342.592C2310.03,-341.014 2519.68,-333.337 2577.01,-296 2614.16,-271.807 2690.61,-150.688 2663.01,-116 2642.43,-90.1389 2548.13,-77.3011 2495.24,-72.0349"/>
<polygon fill="midnightblue" stroke="midnightblue" points="2495.54,-68.5474 2485.25,-71.081 2494.87,-75.5157 2495.54,-68.5474"/>
</g>
<!-- Node53&#45;&gt;Node2 -->
<g id="edge228" class="edge"><title>Node53&#45;&gt;Node2</title>
<path fill="none" stroke="midnightblue" d="M2261.53,-448.362C2267.14,-440.431 2274.94,-429.389 2281.61,-419.961"/>
<polygon fill="midnightblue" stroke="midnightblue" points="2284.62,-421.757 2287.54,-411.571 2278.91,-417.716 2284.62,-421.757"/>
</g>
<!-- Node53&#45;&gt;Node3 -->
<g id="edge230" class="edge"><title>Node53&#45;&gt;Node3</title>
<path fill="none" stroke="midnightblue" d="M2328.43,-452.337C2454.05,-439.72 2700.98,-408.597 2767.01,-354 2806.48,-321.367 2820.73,-259.029 2825.62,-226.659"/>
<polygon fill="midnightblue" stroke="midnightblue" points="2829.12,-226.936 2826.99,-216.557 2822.18,-225.998 2829.12,-226.936"/>
</g>
<!-- Node53&#45;&gt;Node5 -->
<g id="edge240" class="edge"><title>Node53&#45;&gt;Node5</title>
<path fill="none" stroke="midnightblue" d="M2328.06,-454.972C2438.47,-448.356 2640.71,-433.717 2710.01,-412 2760.88,-396.057 2768.97,-380.888 2815.01,-354 2923.22,-290.796 3055.01,-331.318 3055.01,-206 3055.01,-206 3055.01,-206 3055.01,-134 3055.01,-80.6204 3008.79,-83.7034 2962.01,-58 2926.59,-38.5374 2881.75,-25.3671 2852.03,-18.0323"/>
<polygon fill="midnightblue" stroke="midnightblue" points="2852.74,-14.6015 2842.2,-15.6805 2851.11,-21.4096 2852.74,-14.6015"/>
</g>
<!-- Node53&#45;&gt;Node10 -->
<g id="edge242" class="edge"><title>Node53&#45;&gt;Node10</title>
<path fill="none" stroke="midnightblue" d="M2328.18,-453.181C2428.02,-444.875 2600.15,-428.762 2661.01,-412 2721.62,-395.308 2741.28,-393.705 2790.01,-354 2859.12,-297.7 2903.79,-197.151 2920.55,-154.274"/>
<polygon fill="midnightblue" stroke="midnightblue" points="2923.83,-155.492 2924.13,-144.901 2917.29,-152.997 2923.83,-155.492"/>
</g>
<!-- Node53&#45;&gt;Node17 -->
<g id="edge234" class="edge"><title>Node53&#45;&gt;Node17</title>
<path fill="none" stroke="midnightblue" d="M2310.3,-448.441C2392.04,-430.453 2544.07,-386.647 2638.01,-296 2665,-269.959 2667.75,-258.683 2682.01,-224 2700.49,-179.062 2729.89,-153.516 2699.01,-116 2673.68,-85.2307 2556.44,-74.3143 2495.71,-70.6801"/>
<polygon fill="midnightblue" stroke="midnightblue" points="2495.59,-67.1682 2485.41,-70.1016 2495.2,-74.1572 2495.59,-67.1682"/>
</g>
<!-- Node53&#45;&gt;Node18 -->
<g id="edge236" class="edge"><title>Node53&#45;&gt;Node18</title>
<path fill="none" stroke="midnightblue" d="M2204,-448.448C2089.18,-424.094 1815.2,-365.187 1798.01,-354 1762.62,-330.974 1741.01,-320.222 1741.01,-278 1741.01,-278 1741.01,-278 1741.01,-206 1741.01,-164.789 1741.93,-116.611 1742.52,-89.7714"/>
<polygon fill="midnightblue" stroke="midnightblue" points="1746.02,-89.7347 1742.75,-79.6575 1739.02,-89.5752 1746.02,-89.7347"/>
</g>
<!-- Node53&#45;&gt;Node22 -->
<g id="edge238" class="edge"><title>Node53&#45;&gt;Node22</title>
<path fill="none" stroke="midnightblue" d="M2237.11,-448.306C2212.63,-431.662 2168.45,-396.962 2152.01,-354 2135.44,-310.688 2151.33,-255.58 2162.39,-226.352"/>
<polygon fill="midnightblue" stroke="midnightblue" points="2165.74,-227.41 2166.18,-216.825 2159.23,-224.825 2165.74,-227.41"/>
</g>
<!-- Node53&#45;&gt;Node27 -->
<g id="edge244" class="edge"><title>Node53&#45;&gt;Node27</title>
<path fill="none" stroke="midnightblue" d="M2328.25,-457.828C2471.36,-454.85 2780.17,-444.729 2881.01,-412 2974.4,-381.691 2994.27,-359.66 3069.01,-296 3121.81,-251.029 3172.01,-185.556 3195.36,-153.355"/>
<polygon fill="midnightblue" stroke="midnightblue" points="3198.48,-155.01 3201.46,-144.844 3192.79,-150.93 3198.48,-155.01"/>
</g>
<!-- Node53&#45;&gt;Node41 -->
<g id="edge232" class="edge"><title>Node53&#45;&gt;Node41</title>
<path fill="none" stroke="midnightblue" d="M2190.07,-448.461C2014.77,-419.172 1535.64,-336.308 1476.01,-296 1422.46,-259.801 1386.5,-189.078 1371.27,-154.299"/>
<polygon fill="midnightblue" stroke="midnightblue" points="1374.34,-152.574 1367.21,-144.737 1367.89,-155.31 1374.34,-152.574"/>
</g>
<!-- Node53&#45;&gt;Node52 -->
<g id="edge226" class="edge"><title>Node53&#45;&gt;Node52</title>
<path fill="none" stroke="midnightblue" d="M2244.37,-448.48C2236.43,-439.376 2225.32,-425.573 2218.01,-412 2209.67,-396.518 2203.32,-377.565 2199.26,-363.443"/>
<polygon fill="midnightblue" stroke="midnightblue" points="2202.61,-362.445 2196.6,-353.723 2195.86,-364.292 2202.61,-362.445"/>
</g>
<!-- Node54&#45;&gt;Node12 -->
<g id="edge256" class="edge"><title>Node54&#45;&gt;Node12</title>
<path fill="none" stroke="midnightblue" d="M1713.29,-395.874C1610.53,-387.741 1405.6,-371.05 1232.01,-354 1101.18,-341.15 156.136,-309.19 56.0104,-224 -0.474762,-175.941 21.6743,-130.109 39.0104,-58 41.2382,-48.7334 45.2541,-39.0313 49.1816,-30.8646"/>
<polygon fill="midnightblue" stroke="midnightblue" points="52.3805,-32.2959 53.8026,-21.7969 46.1436,-29.1175 52.3805,-32.2959"/>
</g>
<!-- Node54&#45;&gt;Node17 -->
<g id="edge258" class="edge"><title>Node54&#45;&gt;Node17</title>
<path fill="none" stroke="midnightblue" d="M1778.88,-390.291C1779.01,-356.494 1783.8,-250.628 1836.01,-188 1859.94,-159.292 1952,-126.002 1988.01,-116 2069.96,-93.2396 2327.31,-76.5584 2422.84,-71.0056"/>
<polygon fill="midnightblue" stroke="midnightblue" points="2423.1,-74.4965 2432.89,-70.4283 2422.7,-67.508 2423.1,-74.4965"/>
</g>
<!-- Node54&#45;&gt;Node18 -->
<g id="edge254" class="edge"><title>Node54&#45;&gt;Node18</title>
<path fill="none" stroke="midnightblue" d="M1713.35,-395.85C1544.26,-381.711 1107.01,-339.23 1107.01,-278 1107.01,-278 1107.01,-278 1107.01,-206 1107.01,-165.118 1095.26,-142.938 1126.01,-116 1171.23,-76.3924 1608.98,-70.1159 1718.35,-69.1637"/>
<polygon fill="midnightblue" stroke="midnightblue" points="1718.45,-72.6631 1728.42,-69.0833 1718.4,-65.6633 1718.45,-72.6631"/>
</g>
<!-- Node54&#45;&gt;Node23 -->
<g id="edge252" class="edge"><title>Node54&#45;&gt;Node23</title>
<path fill="none" stroke="midnightblue" d="M1827.36,-390.497C1872.4,-380.714 1939.62,-366.111 1987.63,-355.682"/>
<polygon fill="midnightblue" stroke="midnightblue" points="1988.54,-359.066 1997.57,-353.523 1987.05,-352.226 1988.54,-359.066"/>
</g>
<!-- Node56 -->
<g id="node193" class="node"><title>Node56</title>
<polygon fill="white" stroke="#bfbfbf" points="2803.51,-448.5 2803.51,-469.5 2918.51,-469.5 2918.51,-448.5 2803.51,-448.5"/>
<text text-anchor="middle" x="2861.01" y="-456.5" font-family="Helvetica,sans-Serif" font-size="10.00">detail/easylogging++.h</text>
</g>
<!-- Node55&#45;&gt;Node56 -->
<g id="edge274" class="edge"><title>Node55&#45;&gt;Node56</title>
<path fill="none" stroke="midnightblue" d="M2293.21,-507.505C2296.18,-506.943 2299.14,-506.432 2302.01,-506 2515.98,-473.862 2575.09,-495.411 2793.29,-470.113"/>
<polygon fill="midnightblue" stroke="midnightblue" points="2793.94,-473.56 2803.46,-468.912 2793.12,-466.608 2793.94,-473.56"/>
</g>
</g>
</svg>
