<?xml version="1.0" encoding="UTF-8" standalone="no"?>
<!DOCTYPE svg PUBLIC "-//W3C//DTD SVG 1.1//EN"
 "http://www.w3.org/Graphics/SVG/1.1/DTD/svg11.dtd">
<!-- Generated by graphviz version 2.26.3 (20100126.1600)
 -->
<!-- Title: src/analysis/utils/Fitter.h Pages: 1 -->
<svg width="2162pt" height="464pt"
 viewBox="0.00 0.00 2161.87 464.00" xmlns="http://www.w3.org/2000/svg" xmlns:xlink="http://www.w3.org/1999/xlink">
<g id="graph1" class="graph" transform="scale(1 1) rotate(0) translate(4 460)">
<title>src/analysis/utils/Fitter.h</title>
<polygon fill="white" stroke="white" points="-4,5 -4,-460 2158.87,-460 2158.87,5 -4,5"/>
<!-- Node1 -->
<g id="node1" class="node"><title>Node1</title>
<polygon fill="#bfbfbf" stroke="black" points="1739.87,-421 1739.87,-455 1829.87,-455 1829.87,-421 1739.87,-421"/>
<text text-anchor="start" x="1747.87" y="-442" font-family="Helvetica,sans-Serif" font-size="10.00">src/analysis/utils</text>
<text text-anchor="middle" x="1784.87" y="-429" font-family="Helvetica,sans-Serif" font-size="10.00">/Fitter.h</text>
</g>
<!-- Node2 -->
<g id="node3" class="node"><title>Node2</title>
<a xlink:href="_lorentz_vec_8h.html" target="_top" xlink:title="base/vec/LorentzVec.h">
<polygon fill="white" stroke="black" points="1781.37,-304.5 1781.37,-325.5 1898.37,-325.5 1898.37,-304.5 1781.37,-304.5"/>
<text text-anchor="middle" x="1839.87" y="-312.5" font-family="Helvetica,sans-Serif" font-size="10.00">base/vec/LorentzVec.h</text>
</a>
</g>
<!-- Node1&#45;&gt;Node2 -->
<g id="edge2" class="edge"><title>Node1&#45;&gt;Node2</title>
<path fill="none" stroke="midnightblue" d="M1792.51,-420.897C1802.59,-398.372 1820.27,-358.83 1830.94,-334.962"/>
<polygon fill="midnightblue" stroke="midnightblue" points="1834.16,-336.345 1835.04,-325.787 1827.77,-333.488 1834.16,-336.345"/>
</g>
<!-- Node5 -->
<g id="node9" class="node"><title>Node5</title>
<polygon fill="white" stroke="#bfbfbf" points="1090.87,-0.5 1090.87,-21.5 1134.87,-21.5 1134.87,-0.5 1090.87,-0.5"/>
<text text-anchor="middle" x="1112.87" y="-8.5" font-family="Helvetica,sans-Serif" font-size="10.00">vector</text>
</g>
<!-- Node1&#45;&gt;Node5 -->
<g id="edge162" class="edge"><title>Node1&#45;&gt;Node5</title>
<path fill="none" stroke="midnightblue" d="M1830.09,-432.654C1893.69,-422.333 2001.87,-393.273 2001.87,-315 2001.87,-315 2001.87,-315 2001.87,-257 2001.87,-180.684 1969.13,-155.557 1903.87,-116 1887.39,-106.011 1580.96,-60.6156 1561.87,-58 1406.07,-36.6572 1218.69,-19.8997 1144.93,-13.6495"/>
<polygon fill="midnightblue" stroke="midnightblue" points="1145.14,-10.1554 1134.89,-12.8043 1144.56,-17.1308 1145.14,-10.1554"/>
</g>
<!-- Node9 -->
<g id="node18" class="node"><title>Node9</title>
<a xlink:href="_particle_type_tree_8h.html" target="_top" xlink:title="base/ParticleTypeTree.h">
<polygon fill="white" stroke="black" points="217.367,-304.5 217.367,-325.5 340.367,-325.5 340.367,-304.5 217.367,-304.5"/>
<text text-anchor="middle" x="278.867" y="-312.5" font-family="Helvetica,sans-Serif" font-size="10.00">base/ParticleTypeTree.h</text>
</a>
</g>
<!-- Node1&#45;&gt;Node9 -->
<g id="edge18" class="edge"><title>Node1&#45;&gt;Node9</title>
<path fill="none" stroke="midnightblue" d="M1739.71,-437.758C1589,-436.532 1089.62,-429.096 679.867,-384 557.731,-370.558 416.442,-343.528 338.412,-327.581"/>
<polygon fill="midnightblue" stroke="midnightblue" points="338.791,-324.085 328.292,-325.502 337.383,-330.942 338.791,-324.085"/>
</g>
<!-- Node14 -->
<g id="node30" class="node"><title>Node14</title>
<polygon fill="white" stroke="#bfbfbf" points="172.367,-116.5 172.367,-137.5 231.367,-137.5 231.367,-116.5 172.367,-116.5"/>
<text text-anchor="middle" x="201.867" y="-124.5" font-family="Helvetica,sans-Serif" font-size="10.00">stdexcept</text>
</g>
<!-- Node1&#45;&gt;Node14 -->
<g id="edge158" class="edge"><title>Node1&#45;&gt;Node14</title>
<path fill="none" stroke="midnightblue" d="M1739.45,-437.31C1461.5,-432.8 1.86719,-404.837 1.86719,-315 1.86719,-315 1.86719,-315 1.86719,-257 1.86719,-219.157 -5.60156,-201.046 20.8672,-174 64.5584,-129.355 97.3987,-152.658 162.223,-138.17"/>
<polygon fill="midnightblue" stroke="midnightblue" points="163.157,-141.545 172.024,-135.746 161.476,-134.75 163.157,-141.545"/>
</g>
<!-- Node17 -->
<g id="node36" class="node"><title>Node17</title>
<polygon fill="white" stroke="#bfbfbf" points="766.367,-116.5 766.367,-137.5 807.367,-137.5 807.367,-116.5 766.367,-116.5"/>
<text text-anchor="middle" x="786.867" y="-124.5" font-family="Helvetica,sans-Serif" font-size="10.00">string</text>
</g>
<!-- Node1&#45;&gt;Node17 -->
<g id="edge160" class="edge"><title>Node1&#45;&gt;Node17</title>
<path fill="none" stroke="midnightblue" d="M1739.7,-437.132C1547.56,-432.854 807.867,-410.202 807.867,-315 807.867,-315 807.867,-315 807.867,-257 807.867,-217.967 798.526,-173.175 792.304,-147.667"/>
<polygon fill="midnightblue" stroke="midnightblue" points="795.627,-146.531 789.787,-137.692 788.84,-148.244 795.627,-146.531"/>
</g>
<!-- Node22 -->
<g id="node48" class="node"><title>Node22</title>
<polygon fill="white" stroke="#bfbfbf" points="1747.87,-116.5 1747.87,-137.5 1799.87,-137.5 1799.87,-116.5 1747.87,-116.5"/>
<text text-anchor="middle" x="1773.87" y="-124.5" font-family="Helvetica,sans-Serif" font-size="10.00">memory</text>
</g>
<!-- Node1&#45;&gt;Node22 -->
<g id="edge164" class="edge"><title>Node1&#45;&gt;Node22</title>
<path fill="none" stroke="midnightblue" d="M1829.87,-420.831C1871.13,-401.809 1925.87,-366.812 1925.87,-315 1925.87,-315 1925.87,-315 1925.87,-257 1925.87,-196.02 1854.34,-157.527 1809.42,-139.366"/>
<polygon fill="midnightblue" stroke="midnightblue" points="1810.59,-136.065 1800,-135.696 1808.04,-142.588 1810.59,-136.065"/>
</g>
<!-- Node25 -->
<g id="node57" class="node"><title>Node25</title>
<a xlink:href="_t_particle_8h.html" target="_top" xlink:title="tree/TParticle.h">
<polygon fill="white" stroke="black" points="688.367,-362.5 688.367,-383.5 771.367,-383.5 771.367,-362.5 688.367,-362.5"/>
<text text-anchor="middle" x="729.867" y="-370.5" font-family="Helvetica,sans-Serif" font-size="10.00">tree/TParticle.h</text>
</a>
</g>
<!-- Node1&#45;&gt;Node25 -->
<g id="edge64" class="edge"><title>Node1&#45;&gt;Node25</title>
<path fill="none" stroke="midnightblue" d="M1739.77,-437.399C1599.3,-435.131 1157.28,-424.992 793.867,-384 789.885,-383.551 785.775,-383.014 781.648,-382.423"/>
<polygon fill="midnightblue" stroke="midnightblue" points="781.838,-378.912 771.424,-380.861 780.78,-385.831 781.838,-378.912"/>
</g>
<!-- Node31 -->
<g id="node74" class="node"><title>Node31</title>
<a xlink:href="math_8h.html" target="_top" xlink:title="base/std_ext/math.h">
<polygon fill="white" stroke="black" points="1237.87,-181.5 1237.87,-202.5 1343.87,-202.5 1343.87,-181.5 1237.87,-181.5"/>
<text text-anchor="middle" x="1290.87" y="-189.5" font-family="Helvetica,sans-Serif" font-size="10.00">base/std_ext/math.h</text>
</a>
</g>
<!-- Node1&#45;&gt;Node31 -->
<g id="edge154" class="edge"><title>Node1&#45;&gt;Node31</title>
<path fill="none" stroke="midnightblue" d="M1750.52,-420.897C1658.68,-375.16 1408.47,-250.563 1321.3,-207.156"/>
<polygon fill="midnightblue" stroke="midnightblue" points="1322.72,-203.95 1312.2,-202.625 1319.59,-210.216 1322.72,-203.95"/>
</g>
<!-- Node33 -->
<g id="node82" class="node"><title>Node33</title>
<polygon fill="white" stroke="#bfbfbf" points="1817.37,-116.5 1817.37,-137.5 1876.37,-137.5 1876.37,-116.5 1817.37,-116.5"/>
<text text-anchor="middle" x="1846.87" y="-124.5" font-family="Helvetica,sans-Serif" font-size="10.00">functional</text>
</g>
<!-- Node1&#45;&gt;Node33 -->
<g id="edge168" class="edge"><title>Node1&#45;&gt;Node33</title>
<path fill="none" stroke="midnightblue" d="M1830.04,-427.91C1883.06,-413.085 1963.87,-379.854 1963.87,-315 1963.87,-315 1963.87,-315 1963.87,-257 1963.87,-204.598 1910.7,-163.769 1876.04,-142.723"/>
<polygon fill="midnightblue" stroke="midnightblue" points="1877.64,-139.605 1867.25,-137.561 1874.1,-145.642 1877.64,-139.605"/>
</g>
<!-- Node37 -->
<g id="node109" class="node"><title>Node37</title>
<a xlink:href="combinatorics_8h.html" target="_top" xlink:title="analysis/utils/combinatorics.h">
<polygon fill="white" stroke="black" points="1696.87,-246.5 1696.87,-267.5 1842.87,-267.5 1842.87,-246.5 1696.87,-246.5"/>
<text text-anchor="middle" x="1769.87" y="-254.5" font-family="Helvetica,sans-Serif" font-size="10.00">analysis/utils/combinatorics.h</text>
</a>
</g>
<!-- Node1&#45;&gt;Node37 -->
<g id="edge144" class="edge"><title>Node1&#45;&gt;Node37</title>
<path fill="none" stroke="midnightblue" d="M1782.7,-420.953C1779.99,-399.024 1775.41,-359.736 1772.87,-326 1771.66,-309.933 1770.89,-291.722 1770.44,-278.045"/>
<polygon fill="midnightblue" stroke="midnightblue" points="1773.93,-277.658 1770.12,-267.769 1766.93,-277.871 1773.93,-277.658"/>
</g>
<!-- Node39 -->
<g id="node117" class="node"><title>Node39</title>
<polygon fill="white" stroke="#bfbfbf" points="2029.37,-362.5 2029.37,-383.5 2106.37,-383.5 2106.37,-362.5 2029.37,-362.5"/>
<text text-anchor="middle" x="2067.87" y="-370.5" font-family="Helvetica,sans-Serif" font-size="10.00">APLCON.hpp</text>
</g>
<!-- Node1&#45;&gt;Node39 -->
<g id="edge156" class="edge"><title>Node1&#45;&gt;Node39</title>
<path fill="none" stroke="midnightblue" d="M1830.02,-427.629C1881.77,-415.742 1966.27,-396.336 2019.38,-384.137"/>
<polygon fill="midnightblue" stroke="midnightblue" points="2020.28,-387.522 2029.24,-381.872 2018.71,-380.7 2020.28,-387.522"/>
</g>
<!-- Node40 -->
<g id="node123" class="node"><title>Node40</title>
<polygon fill="white" stroke="#bfbfbf" points="2123.87,-362.5 2123.87,-383.5 2153.87,-383.5 2153.87,-362.5 2123.87,-362.5"/>
<text text-anchor="middle" x="2138.87" y="-370.5" font-family="Helvetica,sans-Serif" font-size="10.00">set</text>
</g>
<!-- Node1&#45;&gt;Node40 -->
<g id="edge166" class="edge"><title>Node1&#45;&gt;Node40</title>
<path fill="none" stroke="midnightblue" d="M1830.03,-434.46C1892.47,-428.733 2008.45,-415.085 2113.78,-383.716"/>
<polygon fill="midnightblue" stroke="midnightblue" points="2115.06,-386.984 2123.61,-380.725 2113.03,-380.287 2115.06,-386.984"/>
</g>
<!-- Node3 -->
<g id="node5" class="node"><title>Node3</title>
<a xlink:href="vec3_8h.html" target="_top" xlink:title="base/vec/vec3.h">
<polygon fill="white" stroke="black" points="1603.37,-116.5 1603.37,-137.5 1692.37,-137.5 1692.37,-116.5 1603.37,-116.5"/>
<text text-anchor="middle" x="1647.87" y="-124.5" font-family="Helvetica,sans-Serif" font-size="10.00">base/vec/vec3.h</text>
</a>
</g>
<!-- Node2&#45;&gt;Node3 -->
<g id="edge4" class="edge"><title>Node2&#45;&gt;Node3</title>
<path fill="none" stroke="midnightblue" d="M1845.77,-304.433C1852.86,-290.211 1862.53,-264.557 1851.87,-246 1819.2,-189.12 1747.69,-156.859 1698.65,-140.66"/>
<polygon fill="midnightblue" stroke="midnightblue" points="1699.44,-137.239 1688.85,-137.537 1697.32,-143.909 1699.44,-137.239"/>
</g>
<!-- Node4 -->
<g id="node7" class="node"><title>Node4</title>
<a xlink:href="printable_8h.html" target="_top" xlink:title="base/printable.h">
<polygon fill="white" stroke="black" points="414.867,-58.5 414.867,-79.5 500.867,-79.5 500.867,-58.5 414.867,-58.5"/>
<text text-anchor="middle" x="457.867" y="-66.5" font-family="Helvetica,sans-Serif" font-size="10.00">base/printable.h</text>
</a>
</g>
<!-- Node3&#45;&gt;Node4 -->
<g id="edge6" class="edge"><title>Node3&#45;&gt;Node4</title>
<path fill="none" stroke="midnightblue" d="M1603.03,-124.815C1417.69,-115.781 711.658,-81.3696 511.217,-71.6002"/>
<polygon fill="midnightblue" stroke="midnightblue" points="511.108,-68.0909 500.949,-71.0998 510.767,-75.0826 511.108,-68.0909"/>
</g>
<!-- Node7 -->
<g id="node13" class="node"><title>Node7</title>
<a xlink:href="vec2_8h.html" target="_top" xlink:title="vec2.h">
<polygon fill="white" stroke="black" points="1717.87,-58.5 1717.87,-79.5 1763.87,-79.5 1763.87,-58.5 1717.87,-58.5"/>
<text text-anchor="middle" x="1740.87" y="-66.5" font-family="Helvetica,sans-Serif" font-size="10.00">vec2.h</text>
</a>
</g>
<!-- Node3&#45;&gt;Node7 -->
<g id="edge12" class="edge"><title>Node3&#45;&gt;Node7</title>
<path fill="none" stroke="midnightblue" d="M1664.92,-116.362C1678.95,-107.614 1699.05,-95.0786 1715.05,-85.1015"/>
<polygon fill="midnightblue" stroke="midnightblue" points="1717.28,-87.8323 1723.92,-79.5707 1713.58,-81.8927 1717.28,-87.8323"/>
</g>
<!-- Node8 -->
<g id="node15" class="node"><title>Node8</title>
<polygon fill="white" stroke="#bfbfbf" points="1692.87,-0.5 1692.87,-21.5 1736.87,-21.5 1736.87,-0.5 1692.87,-0.5"/>
<text text-anchor="middle" x="1714.87" y="-8.5" font-family="Helvetica,sans-Serif" font-size="10.00">cmath</text>
</g>
<!-- Node3&#45;&gt;Node8 -->
<g id="edge16" class="edge"><title>Node3&#45;&gt;Node8</title>
<path fill="none" stroke="midnightblue" d="M1654.05,-116.295C1665.32,-96.7861 1689.34,-55.1884 1703.59,-30.5177"/>
<polygon fill="midnightblue" stroke="midnightblue" points="1706.73,-32.0891 1708.7,-21.6792 1700.67,-28.588 1706.73,-32.0891"/>
</g>
<!-- Node4&#45;&gt;Node5 -->
<g id="edge8" class="edge"><title>Node4&#45;&gt;Node5</title>
<path fill="none" stroke="midnightblue" d="M501.043,-60.1399C505.697,-59.3427 510.373,-58.6083 514.867,-58 729.812,-28.9063 990.845,-16.0423 1080.69,-12.2576"/>
<polygon fill="midnightblue" stroke="midnightblue" points="1080.93,-15.7505 1090.78,-11.8406 1080.64,-8.75649 1080.93,-15.7505"/>
</g>
<!-- Node6 -->
<g id="node11" class="node"><title>Node6</title>
<polygon fill="white" stroke="#bfbfbf" points="242.867,-0.5 242.867,-21.5 294.867,-21.5 294.867,-0.5 242.867,-0.5"/>
<text text-anchor="middle" x="268.867" y="-8.5" font-family="Helvetica,sans-Serif" font-size="10.00">ostream</text>
</g>
<!-- Node4&#45;&gt;Node6 -->
<g id="edge10" class="edge"><title>Node4&#45;&gt;Node6</title>
<path fill="none" stroke="midnightblue" d="M423.641,-58.4966C389.948,-48.157 338.71,-32.4334 304.529,-21.944"/>
<polygon fill="midnightblue" stroke="midnightblue" points="305.526,-18.5887 294.939,-19.0009 303.472,-25.2807 305.526,-18.5887"/>
</g>
<!-- Node7&#45;&gt;Node8 -->
<g id="edge14" class="edge"><title>Node7&#45;&gt;Node8</title>
<path fill="none" stroke="midnightblue" d="M1736.1,-58.3619C1732.65,-50.6766 1727.9,-40.0686 1723.76,-30.8399"/>
<polygon fill="midnightblue" stroke="midnightblue" points="1726.89,-29.264 1719.61,-21.5707 1720.5,-32.1275 1726.89,-29.264"/>
</g>
<!-- Node10 -->
<g id="node20" class="node"><title>Node10</title>
<a xlink:href="_particle_type_8h.html" target="_top" xlink:title="ParticleType.h">
<polygon fill="white" stroke="black" points="238.867,-246.5 238.867,-267.5 318.867,-267.5 318.867,-246.5 238.867,-246.5"/>
<text text-anchor="middle" x="278.867" y="-254.5" font-family="Helvetica,sans-Serif" font-size="10.00">ParticleType.h</text>
</a>
</g>
<!-- Node9&#45;&gt;Node10 -->
<g id="edge20" class="edge"><title>Node9&#45;&gt;Node10</title>
<path fill="none" stroke="midnightblue" d="M278.867,-304.362C278.867,-296.922 278.867,-286.743 278.867,-277.728"/>
<polygon fill="midnightblue" stroke="midnightblue" points="282.367,-277.571 278.867,-267.571 275.367,-277.571 282.367,-277.571"/>
</g>
<!-- Node18 -->
<g id="node39" class="node"><title>Node18</title>
<polygon fill="white" stroke="#bfbfbf" points="29.3672,-181.5 29.3672,-202.5 64.3672,-202.5 64.3672,-181.5 29.3672,-181.5"/>
<text text-anchor="middle" x="46.8672" y="-189.5" font-family="Helvetica,sans-Serif" font-size="10.00">map</text>
</g>
<!-- Node9&#45;&gt;Node18 -->
<g id="edge62" class="edge"><title>Node9&#45;&gt;Node18</title>
<path fill="none" stroke="midnightblue" d="M257.87,-304.421C221.12,-285.82 142.862,-245.822 77.8672,-210 76.3683,-209.174 74.8338,-208.318 73.2885,-207.447"/>
<polygon fill="midnightblue" stroke="midnightblue" points="74.9127,-204.344 64.4945,-202.418 71.4374,-210.42 74.9127,-204.344"/>
</g>
<!-- Node20 -->
<g id="node44" class="node"><title>Node20</title>
<a xlink:href="_tree_8h.html" target="_top" xlink:title="Tree.h">
<polygon fill="white" stroke="black" points="636.867,-246.5 636.867,-267.5 680.867,-267.5 680.867,-246.5 636.867,-246.5"/>
<text text-anchor="middle" x="658.867" y="-254.5" font-family="Helvetica,sans-Serif" font-size="10.00">Tree.h</text>
</a>
</g>
<!-- Node9&#45;&gt;Node20 -->
<g id="edge48" class="edge"><title>Node9&#45;&gt;Node20</title>
<path fill="none" stroke="midnightblue" d="M340.766,-305.552C422.476,-293.081 563.349,-271.579 626.545,-261.933"/>
<polygon fill="midnightblue" stroke="midnightblue" points="627.349,-265.351 636.706,-260.382 626.292,-258.431 627.349,-265.351"/>
</g>
<!-- Node10&#45;&gt;Node5 -->
<g id="edge46" class="edge"><title>Node10&#45;&gt;Node5</title>
<path fill="none" stroke="midnightblue" d="M287.219,-246.217C294.554,-236.72 305.486,-222.493 314.867,-210 338.727,-178.226 347.472,-172.101 367.867,-138 388.071,-104.218 373.31,-80.1239 405.867,-58 462.152,-19.7518 949.362,-12.5094 1080.49,-11.2484"/>
<polygon fill="midnightblue" stroke="midnightblue" points="1080.71,-14.7466 1090.68,-11.1557 1080.65,-7.74689 1080.71,-14.7466"/>
</g>
<!-- Node10&#45;&gt;Node6 -->
<g id="edge40" class="edge"><title>Node10&#45;&gt;Node6</title>
<path fill="none" stroke="midnightblue" d="M238.637,-250.759C194.592,-243.092 127.939,-228.76 110.867,-210 88.9815,-185.95 100.768,-170.388 97.8672,-138 96.995,-128.261 93.0934,-124.533 97.8672,-116 126.622,-64.6002 191.974,-35.2961 233.046,-21.3204"/>
<polygon fill="midnightblue" stroke="midnightblue" points="234.259,-24.6063 242.676,-18.1722 232.083,-17.9528 234.259,-24.6063"/>
</g>
<!-- Node11 -->
<g id="node22" class="node"><title>Node11</title>
<a xlink:href="types_8h.html" target="_top" xlink:title="base/types.h">
<polygon fill="white" stroke="black" points="286.367,-116.5 286.367,-137.5 359.367,-137.5 359.367,-116.5 286.367,-116.5"/>
<text text-anchor="middle" x="322.867" y="-124.5" font-family="Helvetica,sans-Serif" font-size="10.00">base/types.h</text>
</a>
</g>
<!-- Node10&#45;&gt;Node11 -->
<g id="edge22" class="edge"><title>Node10&#45;&gt;Node11</title>
<path fill="none" stroke="midnightblue" d="M282.468,-246.362C289.784,-224.746 306.495,-175.372 315.973,-147.369"/>
<polygon fill="midnightblue" stroke="midnightblue" points="319.326,-148.38 319.217,-137.785 312.695,-146.135 319.326,-148.38"/>
</g>
<!-- Node12 -->
<g id="node24" class="node"><title>Node12</title>
<a xlink:href="interval_8h.html" target="_top" xlink:title="base/interval.h">
<polygon fill="white" stroke="black" points="183.867,-181.5 183.867,-202.5 263.867,-202.5 263.867,-181.5 183.867,-181.5"/>
<text text-anchor="middle" x="223.867" y="-189.5" font-family="Helvetica,sans-Serif" font-size="10.00">base/interval.h</text>
</a>
</g>
<!-- Node10&#45;&gt;Node12 -->
<g id="edge24" class="edge"><title>Node10&#45;&gt;Node12</title>
<path fill="none" stroke="midnightblue" d="M269.785,-246.267C261.536,-236.517 249.194,-221.932 239.383,-210.336"/>
<polygon fill="midnightblue" stroke="midnightblue" points="241.912,-207.907 232.78,-202.534 236.568,-212.428 241.912,-207.907"/>
</g>
<!-- Node10&#45;&gt;Node17 -->
<g id="edge38" class="edge"><title>Node10&#45;&gt;Node17</title>
<path fill="none" stroke="midnightblue" d="M302.352,-246.478C342.331,-228.964 426.514,-193.806 500.867,-174 592.073,-149.705 703.17,-135.779 756.042,-130.071"/>
<polygon fill="midnightblue" stroke="midnightblue" points="756.538,-133.538 766.115,-129.008 755.803,-126.577 756.538,-133.538"/>
</g>
<!-- Node10&#45;&gt;Node18 -->
<g id="edge42" class="edge"><title>Node10&#45;&gt;Node18</title>
<path fill="none" stroke="midnightblue" d="M238.526,-251.181C197.169,-244.389 131.494,-231.288 77.8672,-210 76.0017,-209.259 74.1143,-208.42 72.2401,-207.518"/>
<polygon fill="midnightblue" stroke="midnightblue" points="73.611,-204.282 63.1413,-202.658 70.3131,-210.457 73.611,-204.282"/>
</g>
<!-- Node19 -->
<g id="node41" class="node"><title>Node19</title>
<polygon fill="white" stroke="#bfbfbf" points="119.367,-181.5 119.367,-202.5 166.367,-202.5 166.367,-181.5 119.367,-181.5"/>
<text text-anchor="middle" x="142.867" y="-189.5" font-family="Helvetica,sans-Serif" font-size="10.00">iterator</text>
</g>
<!-- Node10&#45;&gt;Node19 -->
<g id="edge44" class="edge"><title>Node10&#45;&gt;Node19</title>
<path fill="none" stroke="midnightblue" d="M253.781,-246.4C232.534,-237.248 201.386,-223.418 174.867,-210 173.303,-209.209 171.706,-208.38 170.1,-207.53"/>
<polygon fill="midnightblue" stroke="midnightblue" points="171.448,-204.278 160.994,-202.561 168.095,-210.423 171.448,-204.278"/>
</g>
<!-- Node12&#45;&gt;Node4 -->
<g id="edge26" class="edge"><title>Node12&#45;&gt;Node4</title>
<path fill="none" stroke="midnightblue" d="M228.463,-181.362C236.184,-164.779 253.358,-132.92 277.867,-116 315.403,-90.0869 366.303,-78.4608 404.399,-73.2446"/>
<polygon fill="midnightblue" stroke="midnightblue" points="405.299,-76.6591 414.783,-71.9369 404.424,-69.7139 405.299,-76.6591"/>
</g>
<!-- Node12&#45;&gt;Node11 -->
<g id="edge28" class="edge"><title>Node12&#45;&gt;Node11</title>
<path fill="none" stroke="midnightblue" d="M240.215,-181.267C255.929,-170.949 279.892,-155.216 297.977,-143.342"/>
<polygon fill="midnightblue" stroke="midnightblue" points="300.385,-145.948 306.824,-137.534 296.543,-140.096 300.385,-145.948"/>
</g>
<!-- Node13 -->
<g id="node28" class="node"><title>Node13</title>
<polygon fill="white" stroke="#bfbfbf" points="1140.87,-116.5 1140.87,-137.5 1196.87,-137.5 1196.87,-116.5 1140.87,-116.5"/>
<text text-anchor="middle" x="1168.87" y="-124.5" font-family="Helvetica,sans-Serif" font-size="10.00">algorithm</text>
</g>
<!-- Node12&#45;&gt;Node13 -->
<g id="edge30" class="edge"><title>Node12&#45;&gt;Node13</title>
<path fill="none" stroke="midnightblue" d="M264.233,-189.323C318.162,-185.759 416.698,-179.29 500.867,-174 764.388,-157.439 831.229,-165.183 1093.87,-138 1105.92,-136.753 1118.99,-134.981 1130.81,-133.222"/>
<polygon fill="midnightblue" stroke="midnightblue" points="1131.45,-136.665 1140.8,-131.694 1130.39,-129.746 1131.45,-136.665"/>
</g>
<!-- Node12&#45;&gt;Node14 -->
<g id="edge32" class="edge"><title>Node12&#45;&gt;Node14</title>
<path fill="none" stroke="midnightblue" d="M220.234,-181.267C217.095,-171.991 212.473,-158.336 208.652,-147.045"/>
<polygon fill="midnightblue" stroke="midnightblue" points="211.954,-145.884 205.432,-137.534 205.323,-148.128 211.954,-145.884"/>
</g>
<!-- Node15 -->
<g id="node32" class="node"><title>Node15</title>
<polygon fill="white" stroke="#bfbfbf" points="862.867,-116.5 862.867,-137.5 902.867,-137.5 902.867,-116.5 862.867,-116.5"/>
<text text-anchor="middle" x="882.867" y="-124.5" font-family="Helvetica,sans-Serif" font-size="10.00">limits</text>
</g>
<!-- Node12&#45;&gt;Node15 -->
<g id="edge34" class="edge"><title>Node12&#45;&gt;Node15</title>
<path fill="none" stroke="midnightblue" d="M264.173,-189.326C360.033,-182.748 609.069,-164.373 815.867,-138 827.953,-136.459 841.201,-134.369 852.703,-132.425"/>
<polygon fill="midnightblue" stroke="midnightblue" points="853.433,-135.85 862.692,-130.7 852.242,-128.953 853.433,-135.85"/>
</g>
<!-- Node16 -->
<g id="node34" class="node"><title>Node16</title>
<polygon fill="white" stroke="#bfbfbf" points="106.367,-116.5 106.367,-137.5 155.367,-137.5 155.367,-116.5 106.367,-116.5"/>
<text text-anchor="middle" x="130.867" y="-124.5" font-family="Helvetica,sans-Serif" font-size="10.00">istream</text>
</g>
<!-- Node12&#45;&gt;Node16 -->
<g id="edge36" class="edge"><title>Node12&#45;&gt;Node16</title>
<path fill="none" stroke="midnightblue" d="M208.51,-181.267C193.749,-170.949 171.238,-155.216 154.249,-143.342"/>
<polygon fill="midnightblue" stroke="midnightblue" points="156.14,-140.394 145.938,-137.534 152.13,-146.131 156.14,-140.394"/>
</g>
<!-- Node20&#45;&gt;Node5 -->
<g id="edge56" class="edge"><title>Node20&#45;&gt;Node5</title>
<path fill="none" stroke="midnightblue" d="M636.642,-253.686C597.116,-247.288 517.207,-231.908 500.867,-210 491.301,-197.174 492.552,-187.67 500.867,-174 559.131,-78.2155 617.735,-91.0447 724.867,-58 791.264,-37.52 999.755,-19.7274 1080.49,-13.43"/>
<polygon fill="midnightblue" stroke="midnightblue" points="1080.86,-16.9115 1090.57,-12.6521 1080.33,-9.93225 1080.86,-16.9115"/>
</g>
<!-- Node20&#45;&gt;Node13 -->
<g id="edge58" class="edge"><title>Node20&#45;&gt;Node13</title>
<path fill="none" stroke="midnightblue" d="M681.252,-255.281C744.524,-250.173 923.534,-233.938 976.867,-210 999.606,-199.794 998.009,-185.978 1019.87,-174 1039.06,-163.485 1093.23,-147.557 1130.68,-137.215"/>
<polygon fill="midnightblue" stroke="midnightblue" points="1132.04,-140.472 1140.76,-134.455 1130.19,-133.721 1132.04,-140.472"/>
</g>
<!-- Node21 -->
<g id="node46" class="node"><title>Node21</title>
<polygon fill="white" stroke="#bfbfbf" points="575.867,-181.5 575.867,-202.5 695.867,-202.5 695.867,-181.5 575.867,-181.5"/>
<text text-anchor="middle" x="635.867" y="-189.5" font-family="Helvetica,sans-Serif" font-size="10.00">base/cereal/access.hpp</text>
</g>
<!-- Node20&#45;&gt;Node21 -->
<g id="edge50" class="edge"><title>Node20&#45;&gt;Node21</title>
<path fill="none" stroke="midnightblue" d="M655.069,-246.267C651.787,-236.991 646.955,-223.336 642.96,-212.045"/>
<polygon fill="midnightblue" stroke="midnightblue" points="646.23,-210.793 639.594,-202.534 639.631,-213.128 646.23,-210.793"/>
</g>
<!-- Node20&#45;&gt;Node22 -->
<g id="edge52" class="edge"><title>Node20&#45;&gt;Node22</title>
<path fill="none" stroke="midnightblue" d="M681.055,-256.427C814.806,-252.904 1510.97,-233.545 1602.87,-210 1631.78,-202.591 1705.23,-164.205 1745.82,-142.322"/>
<polygon fill="midnightblue" stroke="midnightblue" points="1747.55,-145.369 1754.68,-137.532 1744.22,-139.213 1747.55,-145.369"/>
</g>
<!-- Node23 -->
<g id="node50" class="node"><title>Node23</title>
<polygon fill="white" stroke="#bfbfbf" points="713.367,-181.5 713.367,-202.5 742.367,-202.5 742.367,-181.5 713.367,-181.5"/>
<text text-anchor="middle" x="727.867" y="-189.5" font-family="Helvetica,sans-Serif" font-size="10.00">list</text>
</g>
<!-- Node20&#45;&gt;Node23 -->
<g id="edge54" class="edge"><title>Node20&#45;&gt;Node23</title>
<path fill="none" stroke="midnightblue" d="M670.261,-246.267C680.811,-236.328 696.697,-221.363 709.116,-209.664"/>
<polygon fill="midnightblue" stroke="midnightblue" points="711.806,-211.938 716.685,-202.534 707.006,-206.843 711.806,-211.938"/>
</g>
<!-- Node24 -->
<g id="node54" class="node"><title>Node24</title>
<polygon fill="white" stroke="#bfbfbf" points="509.367,-181.5 509.367,-202.5 558.367,-202.5 558.367,-181.5 509.367,-181.5"/>
<text text-anchor="middle" x="533.867" y="-189.5" font-family="Helvetica,sans-Serif" font-size="10.00">cassert</text>
</g>
<!-- Node20&#45;&gt;Node24 -->
<g id="edge60" class="edge"><title>Node20&#45;&gt;Node24</title>
<path fill="none" stroke="midnightblue" d="M637.589,-246.335C618.888,-236.912 590.975,-222.73 566.867,-210 565.32,-209.183 563.735,-208.34 562.136,-207.484"/>
<polygon fill="midnightblue" stroke="midnightblue" points="563.477,-204.23 553.015,-202.558 560.15,-210.39 563.477,-204.23"/>
</g>
<!-- Node25&#45;&gt;Node2 -->
<g id="edge134" class="edge"><title>Node25&#45;&gt;Node2</title>
<path fill="none" stroke="midnightblue" d="M771.686,-371.247C904.807,-365.599 1330.65,-347.022 1682.87,-326 1711.77,-324.275 1743.64,-322.093 1771.08,-320.129"/>
<polygon fill="midnightblue" stroke="midnightblue" points="1771.64,-323.598 1781.36,-319.388 1771.13,-316.616 1771.64,-323.598"/>
</g>
<!-- Node25&#45;&gt;Node4 -->
<g id="edge126" class="edge"><title>Node25&#45;&gt;Node4</title>
<path fill="none" stroke="midnightblue" d="M688.28,-365.154C608.959,-348.997 443.867,-309.108 443.867,-257 443.867,-257 443.867,-257 443.867,-192 443.867,-155.843 449.913,-114.089 454.059,-89.7088"/>
<polygon fill="midnightblue" stroke="midnightblue" points="457.514,-90.2678 455.801,-79.8123 450.62,-89.0539 457.514,-90.2678"/>
</g>
<!-- Node25&#45;&gt;Node5 -->
<g id="edge136" class="edge"><title>Node25&#45;&gt;Node5</title>
<path fill="none" stroke="midnightblue" d="M733.787,-362.338C737.069,-352.918 741.575,-338.737 743.867,-326 744.385,-323.123 756.206,-118.405 757.867,-116 795.272,-61.8473 1000.04,-27.1378 1080.44,-15.421"/>
<polygon fill="midnightblue" stroke="midnightblue" points="1081.09,-18.864 1090.49,-13.9822 1080.1,-11.9346 1081.09,-18.864"/>
</g>
<!-- Node25&#45;&gt;Node10 -->
<g id="edge130" class="edge"><title>Node25&#45;&gt;Node10</title>
<path fill="none" stroke="midnightblue" d="M688.314,-369.357C610.476,-362.182 445.705,-345.237 391.867,-326 373.684,-319.503 330.698,-291.815 303.296,-273.549"/>
<polygon fill="midnightblue" stroke="midnightblue" points="304.914,-270.42 294.658,-267.76 301.016,-276.235 304.914,-270.42"/>
</g>
<!-- Node25&#45;&gt;Node11 -->
<g id="edge128" class="edge"><title>Node25&#45;&gt;Node11</title>
<path fill="none" stroke="midnightblue" d="M688.075,-368.534C610.595,-359.952 450.622,-340.706 429.867,-326 367.286,-281.659 337.882,-188.963 327.482,-147.644"/>
<polygon fill="midnightblue" stroke="midnightblue" points="330.874,-146.778 325.139,-137.869 324.066,-148.409 330.874,-146.778"/>
</g>
<!-- Node25&#45;&gt;Node20 -->
<g id="edge132" class="edge"><title>Node25&#45;&gt;Node20</title>
<path fill="none" stroke="midnightblue" d="M723.315,-362.295C711.374,-342.786 685.914,-301.188 670.813,-276.518"/>
<polygon fill="midnightblue" stroke="midnightblue" points="673.609,-274.381 665.404,-267.679 667.639,-278.036 673.609,-274.381"/>
</g>
<!-- Node25&#45;&gt;Node22 -->
<g id="edge142" class="edge"><title>Node25&#45;&gt;Node22</title>
<path fill="none" stroke="midnightblue" d="M771.586,-371.715C898.689,-367.015 1291.6,-346.658 1605.87,-268 1640.34,-259.373 1731.64,-236.892 1754.87,-210 1769.75,-192.767 1773.6,-166.223 1774.31,-147.812"/>
<polygon fill="midnightblue" stroke="midnightblue" points="1777.81,-147.591 1774.41,-137.556 1770.81,-147.519 1777.81,-147.591"/>
</g>
<!-- Node25&#45;&gt;Node23 -->
<g id="edge138" class="edge"><title>Node25&#45;&gt;Node23</title>
<path fill="none" stroke="midnightblue" d="M729.751,-362.486C729.429,-333.37 728.522,-251.292 728.095,-212.63"/>
<polygon fill="midnightblue" stroke="midnightblue" points="731.594,-212.503 727.984,-202.543 724.594,-212.581 731.594,-212.503"/>
</g>
<!-- Node26 -->
<g id="node59" class="node"><title>Node26</title>
<a xlink:href="_t_candidate_8h.html" target="_top" xlink:title="tree/TCandidate.h">
<polygon fill="white" stroke="black" points="1013.37,-304.5 1013.37,-325.5 1108.37,-325.5 1108.37,-304.5 1013.37,-304.5"/>
<text text-anchor="middle" x="1060.87" y="-312.5" font-family="Helvetica,sans-Serif" font-size="10.00">tree/TCandidate.h</text>
</a>
</g>
<!-- Node25&#45;&gt;Node26 -->
<g id="edge66" class="edge"><title>Node25&#45;&gt;Node26</title>
<path fill="none" stroke="midnightblue" d="M771.453,-365.713C830.083,-355.439 937.259,-336.659 1003.45,-325.061"/>
<polygon fill="midnightblue" stroke="midnightblue" points="1004.06,-328.508 1013.3,-323.334 1002.85,-321.613 1004.06,-328.508"/>
</g>
<!-- Node36 -->
<g id="node106" class="node"><title>Node36</title>
<polygon fill="white" stroke="#bfbfbf" points="609.867,-304.5 609.867,-325.5 663.867,-325.5 663.867,-304.5 609.867,-304.5"/>
<text text-anchor="middle" x="636.867" y="-312.5" font-family="Helvetica,sans-Serif" font-size="10.00">iostream</text>
</g>
<!-- Node25&#45;&gt;Node36 -->
<g id="edge140" class="edge"><title>Node25&#45;&gt;Node36</title>
<path fill="none" stroke="midnightblue" d="M712.81,-362.362C698.782,-353.614 678.683,-341.079 662.685,-331.101"/>
<polygon fill="midnightblue" stroke="midnightblue" points="664.154,-327.893 653.817,-325.571 660.45,-333.832 664.154,-327.893"/>
</g>
<!-- Node26&#45;&gt;Node5 -->
<g id="edge116" class="edge"><title>Node26&#45;&gt;Node5</title>
<path fill="none" stroke="midnightblue" d="M1018.53,-304.471C972.856,-290.77 901.743,-262.171 864.867,-210 840.588,-175.651 830.367,-150.886 853.867,-116 905.437,-39.4461 1023.39,-18.6858 1080.58,-13.0716"/>
<polygon fill="midnightblue" stroke="midnightblue" points="1081.2,-16.531 1090.85,-12.1639 1080.58,-9.55817 1081.2,-16.531"/>
</g>
<!-- Node26&#45;&gt;Node13 -->
<g id="edge124" class="edge"><title>Node26&#45;&gt;Node13</title>
<path fill="none" stroke="midnightblue" d="M1056.26,-304.308C1046.17,-279.117 1025.19,-215.074 1052.87,-174 1062.03,-160.4 1100.71,-146.499 1130.92,-137.379"/>
<polygon fill="midnightblue" stroke="midnightblue" points="1132.18,-140.657 1140.79,-134.477 1130.2,-133.942 1132.18,-140.657"/>
</g>
<!-- Node26&#45;&gt;Node22 -->
<g id="edge122" class="edge"><title>Node26&#45;&gt;Node22</title>
<path fill="none" stroke="midnightblue" d="M1108.83,-312.778C1244.23,-305.689 1626.08,-279.835 1726.87,-210 1748.46,-195.039 1761.34,-166.752 1768.01,-147.397"/>
<polygon fill="midnightblue" stroke="midnightblue" points="1771.4,-148.295 1771.1,-137.704 1764.73,-146.171 1771.4,-148.295"/>
</g>
<!-- Node27 -->
<g id="node61" class="node"><title>Node27</title>
<a xlink:href="_t_cluster_8h.html" target="_top" xlink:title="TCluster.h">
<polygon fill="white" stroke="black" points="1187.87,-246.5 1187.87,-267.5 1249.87,-267.5 1249.87,-246.5 1187.87,-246.5"/>
<text text-anchor="middle" x="1218.87" y="-254.5" font-family="Helvetica,sans-Serif" font-size="10.00">TCluster.h</text>
</a>
</g>
<!-- Node26&#45;&gt;Node27 -->
<g id="edge68" class="edge"><title>Node26&#45;&gt;Node27</title>
<path fill="none" stroke="midnightblue" d="M1089.48,-304.497C1115.02,-295.123 1152.6,-281.324 1180.7,-271.012"/>
<polygon fill="midnightblue" stroke="midnightblue" points="1182.02,-274.255 1190.2,-267.523 1179.61,-267.684 1182.02,-274.255"/>
</g>
<!-- Node28 -->
<g id="node63" class="node"><title>Node28</title>
<a xlink:href="_detector__t_8h.html" target="_top" xlink:title="base/Detector_t.h">
<polygon fill="white" stroke="black" points="873.367,-181.5 873.367,-202.5 968.367,-202.5 968.367,-181.5 873.367,-181.5"/>
<text text-anchor="middle" x="920.867" y="-189.5" font-family="Helvetica,sans-Serif" font-size="10.00">base/Detector_t.h</text>
</a>
</g>
<!-- Node26&#45;&gt;Node28 -->
<g id="edge114" class="edge"><title>Node26&#45;&gt;Node28</title>
<path fill="none" stroke="midnightblue" d="M1048.44,-304.085C1024.1,-282.695 969.94,-235.114 940.627,-209.36"/>
<polygon fill="midnightblue" stroke="midnightblue" points="942.886,-206.686 933.064,-202.715 938.266,-211.945 942.886,-206.686"/>
</g>
<!-- Node34 -->
<g id="node88" class="node"><title>Node34</title>
<polygon fill="white" stroke="#bfbfbf" points="1131.87,-181.5 1131.87,-202.5 1181.87,-202.5 1181.87,-181.5 1131.87,-181.5"/>
<text text-anchor="middle" x="1156.87" y="-189.5" font-family="Helvetica,sans-Serif" font-size="10.00">iomanip</text>
</g>
<!-- Node26&#45;&gt;Node34 -->
<g id="edge118" class="edge"><title>Node26&#45;&gt;Node34</title>
<path fill="none" stroke="midnightblue" d="M1069.39,-304.085C1085.8,-283.061 1121.95,-236.733 1142.27,-210.7"/>
<polygon fill="midnightblue" stroke="midnightblue" points="1145.11,-212.752 1148.5,-202.715 1139.59,-208.445 1145.11,-212.752"/>
</g>
<!-- Node35 -->
<g id="node90" class="node"><title>Node35</title>
<polygon fill="white" stroke="#bfbfbf" points="1061.87,-181.5 1061.87,-202.5 1113.87,-202.5 1113.87,-181.5 1061.87,-181.5"/>
<text text-anchor="middle" x="1087.87" y="-189.5" font-family="Helvetica,sans-Serif" font-size="10.00">sstream</text>
</g>
<!-- Node26&#45;&gt;Node35 -->
<g id="edge120" class="edge"><title>Node26&#45;&gt;Node35</title>
<path fill="none" stroke="midnightblue" d="M1063.26,-304.085C1067.76,-283.609 1077.52,-239.133 1083.31,-212.778"/>
<polygon fill="midnightblue" stroke="midnightblue" points="1086.79,-213.233 1085.52,-202.715 1079.95,-211.732 1086.79,-213.233"/>
</g>
<!-- Node27&#45;&gt;Node3 -->
<g id="edge102" class="edge"><title>Node27&#45;&gt;Node3</title>
<path fill="none" stroke="midnightblue" d="M1249.98,-256.146C1347.97,-253.14 1645.48,-241.474 1673.87,-210 1690.03,-192.077 1675.88,-164.178 1662.96,-145.747"/>
<polygon fill="midnightblue" stroke="midnightblue" points="1665.63,-143.479 1656.86,-137.546 1660.02,-147.658 1665.63,-143.479"/>
</g>
<!-- Node27&#45;&gt;Node5 -->
<g id="edge104" class="edge"><title>Node27&#45;&gt;Node5</title>
<path fill="none" stroke="midnightblue" d="M1220.08,-246.188C1222.34,-221.801 1225.39,-161.122 1205.87,-116 1190.17,-79.7349 1157.01,-47.2568 1134.83,-28.3355"/>
<polygon fill="midnightblue" stroke="midnightblue" points="1136.85,-25.4667 1126.92,-21.7679 1132.38,-30.8507 1136.85,-25.4667"/>
</g>
<!-- Node27&#45;&gt;Node8 -->
<g id="edge106" class="edge"><title>Node27&#45;&gt;Node8</title>
<path fill="none" stroke="midnightblue" d="M1249.97,-255.519C1337.23,-251.046 1579.55,-236.342 1602.87,-210 1630.66,-178.603 1577.54,-154.182 1594.87,-116 1613.34,-75.2829 1656.27,-44.1472 1685.45,-26.711"/>
<polygon fill="midnightblue" stroke="midnightblue" points="1687.48,-29.5753 1694.39,-21.5365 1683.98,-23.517 1687.48,-29.5753"/>
</g>
<!-- Node27&#45;&gt;Node22 -->
<g id="edge112" class="edge"><title>Node27&#45;&gt;Node22</title>
<path fill="none" stroke="midnightblue" d="M1249.89,-256.607C1341.98,-255.021 1612.26,-247.232 1690.87,-210 1721.05,-195.703 1746.61,-165.692 1761.09,-145.948"/>
<polygon fill="midnightblue" stroke="midnightblue" points="1764.01,-147.875 1766.94,-137.692 1758.3,-143.827 1764.01,-147.875"/>
</g>
<!-- Node27&#45;&gt;Node28 -->
<g id="edge70" class="edge"><title>Node27&#45;&gt;Node28</title>
<path fill="none" stroke="midnightblue" d="M1187.82,-250.228C1138.4,-239.447 1041.04,-218.213 978.558,-204.584"/>
<polygon fill="midnightblue" stroke="midnightblue" points="978.977,-201.093 968.461,-202.381 977.485,-207.932 978.977,-201.093"/>
</g>
<!-- Node27&#45;&gt;Node31 -->
<g id="edge86" class="edge"><title>Node27&#45;&gt;Node31</title>
<path fill="none" stroke="midnightblue" d="M1230.76,-246.267C1241.87,-236.233 1258.66,-221.078 1271.67,-209.331"/>
<polygon fill="midnightblue" stroke="midnightblue" points="1274.12,-211.833 1279.2,-202.534 1269.43,-206.637 1274.12,-211.833"/>
</g>
<!-- Node32 -->
<g id="node78" class="node"><title>Node32</title>
<a xlink:href="shared__ptr__container_8h.html" target="_top" xlink:title="base/std_ext/shared\l_ptr_container.h">
<polygon fill="white" stroke="black" points="1489.37,-175 1489.37,-209 1594.37,-209 1594.37,-175 1489.37,-175"/>
<text text-anchor="start" x="1497.37" y="-196" font-family="Helvetica,sans-Serif" font-size="10.00">base/std_ext/shared</text>
<text text-anchor="middle" x="1541.87" y="-183" font-family="Helvetica,sans-Serif" font-size="10.00">_ptr_container.h</text>
</a>
</g>
<!-- Node27&#45;&gt;Node32 -->
<g id="edge92" class="edge"><title>Node27&#45;&gt;Node32</title>
<path fill="none" stroke="midnightblue" d="M1250.15,-252.522C1297.73,-245.467 1391.27,-230.638 1479.2,-210.28"/>
<polygon fill="midnightblue" stroke="midnightblue" points="1480.12,-213.657 1489.06,-207.967 1478.53,-206.842 1480.12,-213.657"/>
</g>
<!-- Node27&#45;&gt;Node34 -->
<g id="edge108" class="edge"><title>Node27&#45;&gt;Node34</title>
<path fill="none" stroke="midnightblue" d="M1208.63,-246.267C1199.24,-236.423 1185.15,-221.648 1174.04,-210"/>
<polygon fill="midnightblue" stroke="midnightblue" points="1176.35,-207.354 1166.91,-202.534 1171.28,-212.186 1176.35,-207.354"/>
</g>
<!-- Node27&#45;&gt;Node35 -->
<g id="edge110" class="edge"><title>Node27&#45;&gt;Node35</title>
<path fill="none" stroke="midnightblue" d="M1197.07,-246.482C1177.58,-237.036 1148.24,-222.735 1122.87,-210 1121.08,-209.104 1119.25,-208.177 1117.4,-207.239"/>
<polygon fill="midnightblue" stroke="midnightblue" points="1118.69,-203.969 1108.19,-202.538 1115.51,-210.203 1118.69,-203.969"/>
</g>
<!-- Node28&#45;&gt;Node3 -->
<g id="edge74" class="edge"><title>Node28&#45;&gt;Node3</title>
<path fill="none" stroke="midnightblue" d="M968.444,-184.849C993.518,-181.248 1024.81,-177.018 1052.87,-174 1251.28,-152.653 1487.9,-136.825 1592.95,-130.293"/>
<polygon fill="midnightblue" stroke="midnightblue" points="1593.24,-133.782 1603,-129.672 1592.81,-126.796 1593.24,-133.782"/>
</g>
<!-- Node28&#45;&gt;Node4 -->
<g id="edge72" class="edge"><title>Node28&#45;&gt;Node4</title>
<path fill="none" stroke="midnightblue" d="M923.264,-181.418C926.312,-164.914 929.281,-133.159 911.867,-116 883.782,-88.3251 624.933,-75.2731 511.128,-70.8349"/>
<polygon fill="midnightblue" stroke="midnightblue" points="511.031,-67.3287 500.905,-70.4442 510.764,-74.3236 511.031,-67.3287"/>
</g>
<!-- Node28&#45;&gt;Node5 -->
<g id="edge84" class="edge"><title>Node28&#45;&gt;Node5</title>
<path fill="none" stroke="midnightblue" d="M950.49,-181.493C957.785,-178.976 965.592,-176.34 972.867,-174 1026.28,-156.819 1057.08,-180.364 1093.87,-138 1119.56,-108.41 1118.93,-59.5777 1116.01,-31.8793"/>
<polygon fill="midnightblue" stroke="midnightblue" points="1119.45,-31.2253 1114.73,-21.7397 1112.51,-32.0981 1119.45,-31.2253"/>
</g>
<!-- Node28&#45;&gt;Node14 -->
<g id="edge78" class="edge"><title>Node28&#45;&gt;Node14</title>
<path fill="none" stroke="midnightblue" d="M873.274,-186.581C839.21,-182.795 792.247,-177.765 750.867,-174 540.904,-154.898 487.427,-161.113 277.867,-138 265.978,-136.689 253.088,-134.945 241.358,-133.234"/>
<polygon fill="midnightblue" stroke="midnightblue" points="241.81,-129.763 231.403,-131.75 240.778,-136.686 241.81,-129.763"/>
</g>
<!-- Node28&#45;&gt;Node17 -->
<g id="edge80" class="edge"><title>Node28&#45;&gt;Node17</title>
<path fill="none" stroke="midnightblue" d="M899.04,-181.412C876.681,-170.566 841.76,-153.627 816.824,-141.531"/>
<polygon fill="midnightblue" stroke="midnightblue" points="818.327,-138.37 807.802,-137.155 815.272,-144.669 818.327,-138.37"/>
</g>
<!-- Node29 -->
<g id="node67" class="node"><title>Node29</title>
<polygon fill="white" stroke="#bfbfbf" points="958.867,-116.5 958.867,-137.5 1004.87,-137.5 1004.87,-116.5 958.867,-116.5"/>
<text text-anchor="middle" x="981.867" y="-124.5" font-family="Helvetica,sans-Serif" font-size="10.00">cstdint</text>
</g>
<!-- Node28&#45;&gt;Node29 -->
<g id="edge76" class="edge"><title>Node28&#45;&gt;Node29</title>
<path fill="none" stroke="midnightblue" d="M930.94,-181.267C940.178,-171.423 954.044,-156.648 964.975,-145"/>
<polygon fill="midnightblue" stroke="midnightblue" points="967.691,-147.221 971.982,-137.534 962.586,-142.43 967.691,-147.221"/>
</g>
<!-- Node30 -->
<g id="node71" class="node"><title>Node30</title>
<polygon fill="white" stroke="#bfbfbf" points="1022.87,-116.5 1022.87,-137.5 1084.87,-137.5 1084.87,-116.5 1022.87,-116.5"/>
<text text-anchor="middle" x="1053.87" y="-124.5" font-family="Helvetica,sans-Serif" font-size="10.00">type_traits</text>
</g>
<!-- Node28&#45;&gt;Node30 -->
<g id="edge82" class="edge"><title>Node28&#45;&gt;Node30</title>
<path fill="none" stroke="midnightblue" d="M942.532,-181.412C964.366,-170.741 998.27,-154.172 1022.93,-142.12"/>
<polygon fill="midnightblue" stroke="midnightblue" points="1024.76,-145.119 1032.21,-137.584 1021.69,-138.83 1024.76,-145.119"/>
</g>
<!-- Node31&#45;&gt;Node8 -->
<g id="edge88" class="edge"><title>Node31&#45;&gt;Node8</title>
<path fill="none" stroke="midnightblue" d="M1323.1,-181.454C1332.6,-178.67 1343.08,-175.912 1352.87,-174 1505.48,-144.204 1557.09,-197.203 1700.87,-138 1719.87,-130.177 1764,-98.5329 1772.87,-80 1782.65,-59.5572 1762.8,-40.162 1743.72,-27.1714"/>
<polygon fill="midnightblue" stroke="midnightblue" points="1745.43,-24.1079 1735.11,-21.6726 1741.66,-30.0065 1745.43,-24.1079"/>
</g>
<!-- Node31&#45;&gt;Node15 -->
<g id="edge90" class="edge"><title>Node31&#45;&gt;Node15</title>
<path fill="none" stroke="midnightblue" d="M1237.72,-182.13C1222.6,-179.404 1206.1,-176.508 1190.87,-174 1084.01,-156.405 1056.86,-154.773 949.867,-138 937.831,-136.113 924.592,-133.957 913.083,-132.056"/>
<polygon fill="midnightblue" stroke="midnightblue" points="913.523,-128.581 903.085,-130.397 912.378,-135.487 913.523,-128.581"/>
</g>
<!-- Node32&#45;&gt;Node5 -->
<g id="edge94" class="edge"><title>Node32&#45;&gt;Node5</title>
<path fill="none" stroke="midnightblue" d="M1511.22,-174.791C1461.64,-147.438 1360.27,-93.5115 1269.87,-58 1227.57,-41.3849 1176.94,-27.2077 1144.84,-18.8936"/>
<polygon fill="midnightblue" stroke="midnightblue" points="1145.66,-15.4901 1135.1,-16.4045 1143.92,-22.2721 1145.66,-15.4901"/>
</g>
<!-- Node32&#45;&gt;Node13 -->
<g id="edge100" class="edge"><title>Node32&#45;&gt;Node13</title>
<path fill="none" stroke="midnightblue" d="M1489.08,-175.941C1486.31,-175.25 1483.56,-174.598 1480.87,-174 1383.25,-152.352 1266.21,-137.68 1207.08,-131.042"/>
<polygon fill="midnightblue" stroke="midnightblue" points="1207.4,-127.555 1197.07,-129.933 1206.63,-134.513 1207.4,-127.555"/>
</g>
<!-- Node32&#45;&gt;Node22 -->
<g id="edge96" class="edge"><title>Node32&#45;&gt;Node22</title>
<path fill="none" stroke="midnightblue" d="M1594.51,-177.25C1638.32,-164.975 1699.53,-147.827 1737.91,-137.073"/>
<polygon fill="midnightblue" stroke="midnightblue" points="1738.94,-140.419 1747.63,-134.351 1737.06,-133.679 1738.94,-140.419"/>
</g>
<!-- Node32&#45;&gt;Node33 -->
<g id="edge98" class="edge"><title>Node32&#45;&gt;Node33</title>
<path fill="none" stroke="midnightblue" d="M1594.59,-182.662C1646.43,-173.181 1728,-157.475 1806.95,-138.352"/>
<polygon fill="midnightblue" stroke="midnightblue" points="1808.18,-141.655 1817.06,-135.88 1806.51,-134.855 1808.18,-141.655"/>
</g>
<!-- Node37&#45;&gt;Node5 -->
<g id="edge152" class="edge"><title>Node37&#45;&gt;Node5</title>
<path fill="none" stroke="midnightblue" d="M1790.26,-246.364C1833.32,-222.583 1926.32,-163.469 1884.87,-116 1881.75,-112.428 1291,-34.4507 1145.14,-15.2452"/>
<polygon fill="midnightblue" stroke="midnightblue" points="1145.41,-11.751 1135.04,-13.9159 1144.5,-18.6911 1145.41,-11.751"/>
</g>
<!-- Node38 -->
<g id="node111" class="node"><title>Node38</title>
<a xlink:href="vector_8h.html" target="_top" xlink:title="base/std_ext/vector.h">
<polygon fill="white" stroke="black" points="1361.37,-181.5 1361.37,-202.5 1472.37,-202.5 1472.37,-181.5 1361.37,-181.5"/>
<text text-anchor="middle" x="1416.87" y="-189.5" font-family="Helvetica,sans-Serif" font-size="10.00">base/std_ext/vector.h</text>
</a>
</g>
<!-- Node37&#45;&gt;Node38 -->
<g id="edge146" class="edge"><title>Node37&#45;&gt;Node38</title>
<path fill="none" stroke="midnightblue" d="M1696.69,-247.429C1638,-239.196 1553.7,-226.111 1480.87,-210 1474.58,-208.609 1468,-206.97 1461.54,-205.257"/>
<polygon fill="midnightblue" stroke="midnightblue" points="1462.13,-201.791 1451.56,-202.528 1460.29,-208.543 1462.13,-201.791"/>
</g>
<!-- Node38&#45;&gt;Node5 -->
<g id="edge148" class="edge"><title>Node38&#45;&gt;Node5</title>
<path fill="none" stroke="midnightblue" d="M1405.19,-181.275C1377.9,-156.657 1307.05,-95.3537 1238.87,-58 1208.5,-41.3636 1171.03,-28.2285 1144.88,-20.1217"/>
<polygon fill="midnightblue" stroke="midnightblue" points="1145.69,-16.7108 1135.1,-17.1626 1143.66,-23.4104 1145.69,-16.7108"/>
</g>
<!-- Node38&#45;&gt;Node13 -->
<g id="edge150" class="edge"><title>Node38&#45;&gt;Node13</title>
<path fill="none" stroke="midnightblue" d="M1380.02,-181.473C1371.14,-178.982 1361.67,-176.363 1352.87,-174 1302.51,-160.49 1244.16,-145.737 1206.9,-136.431"/>
<polygon fill="midnightblue" stroke="midnightblue" points="1207.53,-132.98 1196.98,-133.957 1205.83,-139.772 1207.53,-132.98"/>
</g>
</g>
</svg>
