<?xml version="1.0" encoding="UTF-8" standalone="no"?>
<!DOCTYPE svg PUBLIC "-//W3C//DTD SVG 1.1//EN"
 "http://www.w3.org/Graphics/SVG/1.1/DTD/svg11.dtd">
<!-- Generated by graphviz version 2.26.3 (20100126.1600)
 -->
<!-- Title: src/analysis/utils/Fitter.h Pages: 1 -->
<svg width="1390pt" height="212pt"
 viewBox="0.00 0.00 1390.00 212.00" xmlns="http://www.w3.org/2000/svg" xmlns:xlink="http://www.w3.org/1999/xlink">
<g id="graph1" class="graph" transform="scale(1 1) rotate(0) translate(4 208)">
<title>src/analysis/utils/Fitter.h</title>
<polygon fill="white" stroke="white" points="-4,5 -4,-208 1387,-208 1387,5 -4,5"/>
<!-- Node1 -->
<g id="node1" class="node"><title>Node1</title>
<polygon fill="#bfbfbf" stroke="black" points="762,-169 762,-203 852,-203 852,-169 762,-169"/>
<text text-anchor="start" x="770" y="-190" font-family="Helvetica,sans-Serif" font-size="10.00">src/analysis/utils</text>
<text text-anchor="middle" x="807" y="-177" font-family="Helvetica,sans-Serif" font-size="10.00">/Fitter.h</text>
</g>
<!-- Node2 -->
<g id="node3" class="node"><title>Node2</title>
<a xlink:href="etaprime-3pi0_8h.html" target="_top" xlink:title="src/analysis/physics\l/etaprime/etaprime&#45;3pi0.h">
<polygon fill="white" stroke="black" points="80.5,-91 80.5,-125 207.5,-125 207.5,-91 80.5,-91"/>
<text text-anchor="start" x="88.5" y="-112" font-family="Helvetica,sans-Serif" font-size="10.00">src/analysis/physics</text>
<text text-anchor="middle" x="144" y="-99" font-family="Helvetica,sans-Serif" font-size="10.00">/etaprime/etaprime&#45;3pi0.h</text>
</a>
</g>
<!-- Node1&#45;&gt;Node2 -->
<g id="edge2" class="edge"><title>Node1&#45;&gt;Node2</title>
<path fill="none" stroke="midnightblue" d="M751.564,-181.116C657.5,-172.612 460.696,-153.89 295,-132 266.316,-128.21 234.683,-123.297 207.813,-118.904"/>
<polygon fill="midnightblue" stroke="midnightblue" points="751.429,-184.618 761.702,-182.028 752.056,-177.646 751.429,-184.618"/>
</g>
<!-- Node4 -->
<g id="node7" class="node"><title>Node4</title>
<a xlink:href="etaprime__omega__gamma_8h.html" target="_top" xlink:title="src/analysis/physics\l/etaprime/etaprime_omega\l_gamma.h">
<polygon fill="white" stroke="black" points="304,-84.5 304,-131.5 436,-131.5 436,-84.5 304,-84.5"/>
<text text-anchor="start" x="312" y="-118.5" font-family="Helvetica,sans-Serif" font-size="10.00">src/analysis/physics</text>
<text text-anchor="start" x="312" y="-105.5" font-family="Helvetica,sans-Serif" font-size="10.00">/etaprime/etaprime_omega</text>
<text text-anchor="middle" x="370" y="-92.5" font-family="Helvetica,sans-Serif" font-size="10.00">_gamma.h</text>
</a>
</g>
<!-- Node1&#45;&gt;Node4 -->
<g id="edge6" class="edge"><title>Node1&#45;&gt;Node4</title>
<path fill="none" stroke="midnightblue" d="M751.944,-180.212C681.256,-172.207 555.059,-155.976 449,-132 444.806,-131.052 440.509,-129.996 436.193,-128.872"/>
<polygon fill="midnightblue" stroke="midnightblue" points="751.634,-183.699 761.961,-181.333 752.413,-176.742 751.634,-183.699"/>
</g>
<!-- Node7 -->
<g id="node13" class="node"><title>Node7</title>
<a xlink:href="etaprime__proton_8h.html" target="_top" xlink:title="src/analysis/physics\l/etaprime/etaprime_proton.h">
<polygon fill="white" stroke="black" points="458,-91 458,-125 596,-125 596,-91 458,-91"/>
<text text-anchor="start" x="466" y="-112" font-family="Helvetica,sans-Serif" font-size="10.00">src/analysis/physics</text>
<text text-anchor="middle" x="527" y="-99" font-family="Helvetica,sans-Serif" font-size="10.00">/etaprime/etaprime_proton.h</text>
</a>
</g>
<!-- Node1&#45;&gt;Node7 -->
<g id="edge12" class="edge"><title>Node1&#45;&gt;Node7</title>
<path fill="none" stroke="midnightblue" d="M751.565,-170.729C712.528,-159.955 659.049,-145.157 612,-132 604.026,-129.77 595.633,-127.413 587.354,-125.082"/>
<polygon fill="midnightblue" stroke="midnightblue" points="751.099,-174.231 761.67,-173.517 752.961,-167.483 751.099,-174.231"/>
</g>
<!-- Node9 -->
<g id="node17" class="node"><title>Node9</title>
<a xlink:href="_find_proton_8h.html" target="_top" xlink:title="src/analysis/physics\l/omega/FindProton.h">
<polygon fill="white" stroke="black" points="620.5,-91 620.5,-125 727.5,-125 727.5,-91 620.5,-91"/>
<text text-anchor="start" x="628.5" y="-112" font-family="Helvetica,sans-Serif" font-size="10.00">src/analysis/physics</text>
<text text-anchor="middle" x="674" y="-99" font-family="Helvetica,sans-Serif" font-size="10.00">/omega/FindProton.h</text>
</a>
</g>
<!-- Node1&#45;&gt;Node9 -->
<g id="edge16" class="edge"><title>Node1&#45;&gt;Node9</title>
<path fill="none" stroke="midnightblue" d="M769.145,-163.799C748.176,-151.501 722.508,-136.448 703.119,-125.078"/>
<polygon fill="midnightblue" stroke="midnightblue" points="767.416,-166.843 777.813,-168.883 770.957,-160.805 767.416,-166.843"/>
</g>
<!-- Node11 -->
<g id="node21" class="node"><title>Node11</title>
<a xlink:href="omega_8h.html" target="_top" xlink:title="src/analysis/physics\l/omega/omega.h">
<polygon fill="white" stroke="black" points="754,-91 754,-125 860,-125 860,-91 754,-91"/>
<text text-anchor="start" x="762" y="-112" font-family="Helvetica,sans-Serif" font-size="10.00">src/analysis/physics</text>
<text text-anchor="middle" x="807" y="-99" font-family="Helvetica,sans-Serif" font-size="10.00">/omega/omega.h</text>
</a>
</g>
<!-- Node1&#45;&gt;Node11 -->
<g id="edge20" class="edge"><title>Node1&#45;&gt;Node11</title>
<path fill="none" stroke="midnightblue" d="M807,-158.61C807,-147.519 807,-135.049 807,-125.262"/>
<polygon fill="midnightblue" stroke="midnightblue" points="803.5,-158.689 807,-168.689 810.5,-158.689 803.5,-158.689"/>
</g>
<!-- Node14 -->
<g id="node27" class="node"><title>Node14</title>
<a xlink:href="_just_pi0_8h.html" target="_top" xlink:title="src/analysis/physics\l/pi0/JustPi0.h">
<polygon fill="white" stroke="black" points="878,-91 878,-125 984,-125 984,-91 878,-91"/>
<text text-anchor="start" x="886" y="-112" font-family="Helvetica,sans-Serif" font-size="10.00">src/analysis/physics</text>
<text text-anchor="middle" x="931" y="-99" font-family="Helvetica,sans-Serif" font-size="10.00">/pi0/JustPi0.h</text>
</a>
</g>
<!-- Node1&#45;&gt;Node14 -->
<g id="edge26" class="edge"><title>Node1&#45;&gt;Node14</title>
<path fill="none" stroke="midnightblue" d="M842.818,-163.469C862.271,-151.233 885.936,-136.347 903.851,-125.078"/>
<polygon fill="midnightblue" stroke="midnightblue" points="840.813,-160.595 834.212,-168.883 844.541,-166.521 840.813,-160.595"/>
</g>
<!-- Node16 -->
<g id="node31" class="node"><title>Node16</title>
<a xlink:href="_kin_fit_pi0_8h.html" target="_top" xlink:title="src/analysis/physics\l/pi0/KinFitPi0.h">
<polygon fill="white" stroke="black" points="1002,-91 1002,-125 1108,-125 1108,-91 1002,-91"/>
<text text-anchor="start" x="1010" y="-112" font-family="Helvetica,sans-Serif" font-size="10.00">src/analysis/physics</text>
<text text-anchor="middle" x="1055" y="-99" font-family="Helvetica,sans-Serif" font-size="10.00">/pi0/KinFitPi0.h</text>
</a>
</g>
<!-- Node1&#45;&gt;Node16 -->
<g id="edge30" class="edge"><title>Node1&#45;&gt;Node16</title>
<path fill="none" stroke="midnightblue" d="M861.725,-171.458C898.985,-161.228 949.284,-146.776 993,-132 999.342,-129.856 1005.99,-127.452 1012.49,-125.015"/>
<polygon fill="midnightblue" stroke="midnightblue" points="860.788,-168.086 852.063,-174.096 862.632,-174.838 860.788,-168.086"/>
</g>
<!-- Node18 -->
<g id="node35" class="node"><title>Node18</title>
<a xlink:href="_fitter_8cc.html" target="_top" xlink:title="src/analysis/utils\l/Fitter.cc">
<polygon fill="white" stroke="black" points="1126,-91 1126,-125 1216,-125 1216,-91 1126,-91"/>
<text text-anchor="start" x="1134" y="-112" font-family="Helvetica,sans-Serif" font-size="10.00">src/analysis/utils</text>
<text text-anchor="middle" x="1171" y="-99" font-family="Helvetica,sans-Serif" font-size="10.00">/Fitter.cc</text>
</a>
</g>
<!-- Node1&#45;&gt;Node18 -->
<g id="edge34" class="edge"><title>Node1&#45;&gt;Node18</title>
<path fill="none" stroke="midnightblue" d="M862.289,-180.52C925.044,-173.351 1029.99,-158.472 1117,-132 1123.28,-130.089 1129.8,-127.633 1136.04,-125.025"/>
<polygon fill="midnightblue" stroke="midnightblue" points="861.76,-177.057 852.211,-181.646 862.538,-184.014 861.76,-177.057"/>
</g>
<!-- Node19 -->
<g id="node37" class="node"><title>Node19</title>
<a xlink:href="root-addons_2analysis__codes_2_extract_resolutions_8cc.html" target="_top" xlink:title="src/root&#45;addons/analysis\l_codes/ExtractResolutions.cc">
<polygon fill="white" stroke="black" points="1234,-91 1234,-125 1382,-125 1382,-91 1234,-91"/>
<text text-anchor="start" x="1242" y="-112" font-family="Helvetica,sans-Serif" font-size="10.00">src/root&#45;addons/analysis</text>
<text text-anchor="middle" x="1308" y="-99" font-family="Helvetica,sans-Serif" font-size="10.00">_codes/ExtractResolutions.cc</text>
</a>
</g>
<!-- Node1&#45;&gt;Node19 -->
<g id="edge36" class="edge"><title>Node1&#45;&gt;Node19</title>
<path fill="none" stroke="midnightblue" d="M862.62,-181.543C943.145,-174.475 1096.62,-158.69 1225,-132 1234.25,-130.076 1243.98,-127.646 1253.38,-125.075"/>
<polygon fill="midnightblue" stroke="midnightblue" points="861.885,-178.093 852.224,-182.442 862.488,-185.067 861.885,-178.093"/>
</g>
<!-- Node3 -->
<g id="node5" class="node"><title>Node3</title>
<a xlink:href="etaprime-3pi0_8cc.html" target="_top" xlink:title="src/analysis/physics\l/etaprime/etaprime&#45;3pi0.cc">
<polygon fill="white" stroke="black" points="0,-7 0,-41 132,-41 132,-7 0,-7"/>
<text text-anchor="start" x="8" y="-28" font-family="Helvetica,sans-Serif" font-size="10.00">src/analysis/physics</text>
<text text-anchor="middle" x="66" y="-15" font-family="Helvetica,sans-Serif" font-size="10.00">/etaprime/etaprime&#45;3pi0.cc</text>
</a>
</g>
<!-- Node2&#45;&gt;Node3 -->
<g id="edge4" class="edge"><title>Node2&#45;&gt;Node3</title>
<path fill="none" stroke="midnightblue" d="M120.802,-83.0176C108.251,-69.5009 93.0717,-53.1541 81.8741,-41.0952"/>
<polygon fill="midnightblue" stroke="midnightblue" points="118.469,-85.6488 127.838,-90.5951 123.599,-80.8856 118.469,-85.6488"/>
</g>
<!-- Node5 -->
<g id="node9" class="node"><title>Node5</title>
<a xlink:href="_etap_omega_g__plot_8cc.html" target="_top" xlink:title="progs/EtapOmegaG_plot.cc">
<polygon fill="white" stroke="black" points="149.5,-13.5 149.5,-34.5 286.5,-34.5 286.5,-13.5 149.5,-13.5"/>
<text text-anchor="middle" x="218" y="-21.5" font-family="Helvetica,sans-Serif" font-size="10.00">progs/EtapOmegaG_plot.cc</text>
</a>
</g>
<!-- Node4&#45;&gt;Node5 -->
<g id="edge8" class="edge"><title>Node4&#45;&gt;Node5</title>
<path fill="none" stroke="midnightblue" d="M318.395,-79.4815C290.508,-64.0704 257.72,-45.9503 237.396,-34.7186"/>
<polygon fill="midnightblue" stroke="midnightblue" points="316.81,-82.6042 327.255,-84.3778 320.196,-76.4775 316.81,-82.6042"/>
</g>
<!-- Node6 -->
<g id="node11" class="node"><title>Node6</title>
<a xlink:href="etaprime__omega__gamma_8cc.html" target="_top" xlink:title="src/analysis/physics\l/etaprime/etaprime_omega\l_gamma.cc">
<polygon fill="white" stroke="black" points="304,-0.5 304,-47.5 436,-47.5 436,-0.5 304,-0.5"/>
<text text-anchor="start" x="312" y="-34.5" font-family="Helvetica,sans-Serif" font-size="10.00">src/analysis/physics</text>
<text text-anchor="start" x="312" y="-21.5" font-family="Helvetica,sans-Serif" font-size="10.00">/etaprime/etaprime_omega</text>
<text text-anchor="middle" x="370" y="-8.5" font-family="Helvetica,sans-Serif" font-size="10.00">_gamma.cc</text>
</a>
</g>
<!-- Node4&#45;&gt;Node6 -->
<g id="edge10" class="edge"><title>Node4&#45;&gt;Node6</title>
<path fill="none" stroke="midnightblue" d="M370,-74.0664C370,-65.1933 370,-55.821 370,-47.6152"/>
<polygon fill="midnightblue" stroke="midnightblue" points="366.5,-74.1536 370,-84.1537 373.5,-74.1537 366.5,-74.1536"/>
</g>
<!-- Node8 -->
<g id="node15" class="node"><title>Node8</title>
<a xlink:href="etaprime__proton_8cc.html" target="_top" xlink:title="src/analysis/physics\l/etaprime/etaprime_proton.cc">
<polygon fill="white" stroke="black" points="453.5,-7 453.5,-41 596.5,-41 596.5,-7 453.5,-7"/>
<text text-anchor="start" x="461.5" y="-28" font-family="Helvetica,sans-Serif" font-size="10.00">src/analysis/physics</text>
<text text-anchor="middle" x="525" y="-15" font-family="Helvetica,sans-Serif" font-size="10.00">/etaprime/etaprime_proton.cc</text>
</a>
</g>
<!-- Node7&#45;&gt;Node8 -->
<g id="edge14" class="edge"><title>Node7&#45;&gt;Node8</title>
<path fill="none" stroke="midnightblue" d="M526.341,-80.3304C526.033,-67.3804 525.675,-52.3652 525.407,-41.0952"/>
<polygon fill="midnightblue" stroke="midnightblue" points="522.848,-80.6813 526.586,-90.5951 529.846,-80.5146 522.848,-80.6813"/>
</g>
<!-- Node10 -->
<g id="node19" class="node"><title>Node10</title>
<a xlink:href="_find_proton_8cc.html" target="_top" xlink:title="src/analysis/physics\l/omega/FindProton.cc">
<polygon fill="white" stroke="black" points="613.5,-7 613.5,-41 726.5,-41 726.5,-7 613.5,-7"/>
<text text-anchor="start" x="621.5" y="-28" font-family="Helvetica,sans-Serif" font-size="10.00">src/analysis/physics</text>
<text text-anchor="middle" x="670" y="-15" font-family="Helvetica,sans-Serif" font-size="10.00">/omega/FindProton.cc</text>
</a>
</g>
<!-- Node9&#45;&gt;Node10 -->
<g id="edge18" class="edge"><title>Node9&#45;&gt;Node10</title>
<path fill="none" stroke="midnightblue" d="M672.682,-80.3304C672.066,-67.3804 671.351,-52.3652 670.814,-41.0952"/>
<polygon fill="midnightblue" stroke="midnightblue" points="669.199,-80.773 673.171,-90.5951 676.191,-80.44 669.199,-80.773"/>
</g>
<!-- Node12 -->
<g id="node23" class="node"><title>Node12</title>
<a xlink:href="_omega_eta_g2__plot_8cc.html" target="_top" xlink:title="Plotting tool for TTrees from the ant::analysis::physics::OmegaEtaG2 physics class. ">
<polygon fill="white" stroke="black" points="743.5,-13.5 743.5,-34.5 880.5,-34.5 880.5,-13.5 743.5,-13.5"/>
<text text-anchor="middle" x="812" y="-21.5" font-family="Helvetica,sans-Serif" font-size="10.00">progs/OmegaEtaG2_plot.cc</text>
</a>
</g>
<!-- Node11&#45;&gt;Node12 -->
<g id="edge22" class="edge"><title>Node11&#45;&gt;Node12</title>
<path fill="none" stroke="midnightblue" d="M808.639,-80.4641C809.562,-64.9618 810.663,-46.4648 811.347,-34.9734"/>
<polygon fill="midnightblue" stroke="midnightblue" points="805.136,-80.4048 808.036,-90.5951 812.124,-80.8208 805.136,-80.4048"/>
</g>
<!-- Node13 -->
<g id="node25" class="node"><title>Node13</title>
<a xlink:href="omega_8cc.html" target="_top" xlink:title="src/analysis/physics\l/omega/omega.cc">
<polygon fill="white" stroke="black" points="898,-7 898,-41 1004,-41 1004,-7 898,-7"/>
<text text-anchor="start" x="906" y="-28" font-family="Helvetica,sans-Serif" font-size="10.00">src/analysis/physics</text>
<text text-anchor="middle" x="951" y="-15" font-family="Helvetica,sans-Serif" font-size="10.00">/omega/omega.cc</text>
</a>
</g>
<!-- Node11&#45;&gt;Node13 -->
<g id="edge24" class="edge"><title>Node11&#45;&gt;Node13</title>
<path fill="none" stroke="midnightblue" d="M845.308,-85.6539C869.217,-71.7067 899.527,-54.0261 921.551,-41.1783"/>
<polygon fill="midnightblue" stroke="midnightblue" points="843.362,-82.7367 836.488,-90.7986 846.889,-88.7831 843.362,-82.7367"/>
</g>
<!-- Node15 -->
<g id="node29" class="node"><title>Node15</title>
<a xlink:href="_just_pi0_8cc.html" target="_top" xlink:title="src/analysis/physics\l/pi0/JustPi0.cc">
<polygon fill="white" stroke="black" points="1022,-7 1022,-41 1128,-41 1128,-7 1022,-7"/>
<text text-anchor="start" x="1030" y="-28" font-family="Helvetica,sans-Serif" font-size="10.00">src/analysis/physics</text>
<text text-anchor="middle" x="1075" y="-15" font-family="Helvetica,sans-Serif" font-size="10.00">/pi0/JustPi0.cc</text>
</a>
</g>
<!-- Node14&#45;&gt;Node15 -->
<g id="edge28" class="edge"><title>Node14&#45;&gt;Node15</title>
<path fill="none" stroke="midnightblue" d="M969.308,-85.6539C993.217,-71.7067 1023.53,-54.0261 1045.55,-41.1783"/>
<polygon fill="midnightblue" stroke="midnightblue" points="967.362,-82.7367 960.488,-90.7986 970.889,-88.7831 967.362,-82.7367"/>
</g>
<!-- Node17 -->
<g id="node33" class="node"><title>Node17</title>
<a xlink:href="_kin_fit_pi0_8cc.html" target="_top" xlink:title="src/analysis/physics\l/pi0/KinFitPi0.cc">
<polygon fill="white" stroke="black" points="1146,-7 1146,-41 1252,-41 1252,-7 1146,-7"/>
<text text-anchor="start" x="1154" y="-28" font-family="Helvetica,sans-Serif" font-size="10.00">src/analysis/physics</text>
<text text-anchor="middle" x="1199" y="-15" font-family="Helvetica,sans-Serif" font-size="10.00">/pi0/KinFitPi0.cc</text>
</a>
</g>
<!-- Node16&#45;&gt;Node17 -->
<g id="edge32" class="edge"><title>Node16&#45;&gt;Node17</title>
<path fill="none" stroke="midnightblue" d="M1093.31,-85.6539C1117.22,-71.7067 1147.53,-54.0261 1169.55,-41.1783"/>
<polygon fill="midnightblue" stroke="midnightblue" points="1091.36,-82.7367 1084.49,-90.7986 1094.89,-88.7831 1091.36,-82.7367"/>
</g>
</g>
</svg>
