<?xml version="1.0" encoding="UTF-8" standalone="no"?>
<!DOCTYPE svg PUBLIC "-//W3C//DTD SVG 1.1//EN"
 "http://www.w3.org/Graphics/SVG/1.1/DTD/svg11.dtd">
<!-- Generated by graphviz version 2.26.3 (20100126.1600)
 -->
<!-- Title: src/calibration/converters/GeSiCa_SADC.h Pages: 1 -->
<svg width="2100pt" height="434pt"
 viewBox="0.00 0.00 2100.29 434.00" xmlns="http://www.w3.org/2000/svg" xmlns:xlink="http://www.w3.org/1999/xlink">
<g id="graph1" class="graph" transform="scale(1 1) rotate(0) translate(4 430)">
<title>src/calibration/converters/GeSiCa_SADC.h</title>
<polygon fill="white" stroke="white" points="-4,5 -4,-430 2097.29,-430 2097.29,5 -4,5"/>
<!-- Node1 -->
<g id="node1" class="node"><title>Node1</title>
<polygon fill="#bfbfbf" stroke="black" points="1623.14,-391 1623.14,-425 1749.14,-425 1749.14,-391 1623.14,-391"/>
<text text-anchor="start" x="1631.14" y="-412" font-family="Helvetica,sans-Serif" font-size="10.00">src/calibration/converters</text>
<text text-anchor="middle" x="1686.14" y="-399" font-family="Helvetica,sans-Serif" font-size="10.00">/GeSiCa_SADC.h</text>
</g>
<!-- Node2 -->
<g id="node3" class="node"><title>Node2</title>
<a xlink:href="_calibration_8h.html" target="_top" xlink:title="Calibration.h">
<polygon fill="white" stroke="black" points="1650.64,-332.5 1650.64,-353.5 1721.64,-353.5 1721.64,-332.5 1650.64,-332.5"/>
<text text-anchor="middle" x="1686.14" y="-340.5" font-family="Helvetica,sans-Serif" font-size="10.00">Calibration.h</text>
</a>
</g>
<!-- Node1&#45;&gt;Node2 -->
<g id="edge2" class="edge"><title>Node1&#45;&gt;Node2</title>
<path fill="none" stroke="midnightblue" d="M1686.14,-390.922C1686.14,-382.67 1686.14,-372.692 1686.14,-363.982"/>
<polygon fill="midnightblue" stroke="midnightblue" points="1689.64,-363.852 1686.14,-353.852 1682.64,-363.852 1689.64,-363.852"/>
</g>
<!-- Node6 -->
<g id="node11" class="node"><title>Node6</title>
<polygon fill="white" stroke="#bfbfbf" points="1664.14,-0.5 1664.14,-21.5 1708.14,-21.5 1708.14,-0.5 1664.14,-0.5"/>
<text text-anchor="middle" x="1686.14" y="-8.5" font-family="Helvetica,sans-Serif" font-size="10.00">vector</text>
</g>
<!-- Node1&#45;&gt;Node6 -->
<g id="edge160" class="edge"><title>Node1&#45;&gt;Node6</title>
<path fill="none" stroke="midnightblue" d="M1749.58,-401.01C1863.77,-386.65 2092.14,-349.051 2092.14,-278 2092.14,-278 2092.14,-278 2092.14,-134 2092.14,-119.677 2094.59,-102.317 1982.14,-58 1934.45,-39.2052 1784.83,-21.5002 1718.43,-14.3408"/>
<polygon fill="midnightblue" stroke="midnightblue" points="1718.46,-10.8244 1708.15,-13.2448 1717.72,-17.7849 1718.46,-10.8244"/>
</g>
<!-- Node11 -->
<g id="node23" class="node"><title>Node11</title>
<polygon fill="white" stroke="#bfbfbf" points="892.14,-123.5 892.14,-144.5 938.14,-144.5 938.14,-123.5 892.14,-123.5"/>
<text text-anchor="middle" x="915.14" y="-131.5" font-family="Helvetica,sans-Serif" font-size="10.00">cstdint</text>
</g>
<!-- Node1&#45;&gt;Node11 -->
<g id="edge162" class="edge"><title>Node1&#45;&gt;Node11</title>
<path fill="none" stroke="midnightblue" d="M1623.02,-402.471C1482.07,-389.244 1146.44,-352.603 1049.14,-296 989.413,-261.255 944.743,-189.306 925.523,-154.179"/>
<polygon fill="midnightblue" stroke="midnightblue" points="928.38,-152.099 920.585,-144.924 922.204,-155.394 928.38,-152.099"/>
</g>
<!-- Node3 -->
<g id="node5" class="node"><title>Node3</title>
<a xlink:href="_reconstruct__traits_8h.html" target="_top" xlink:title="reconstruct/Reconstruct\l_traits.h">
<polygon fill="white" stroke="black" points="1625.14,-261 1625.14,-295 1747.14,-295 1747.14,-261 1625.14,-261"/>
<text text-anchor="start" x="1633.14" y="-282" font-family="Helvetica,sans-Serif" font-size="10.00">reconstruct/Reconstruct</text>
<text text-anchor="middle" x="1686.14" y="-269" font-family="Helvetica,sans-Serif" font-size="10.00">_traits.h</text>
</a>
</g>
<!-- Node2&#45;&gt;Node3 -->
<g id="edge4" class="edge"><title>Node2&#45;&gt;Node3</title>
<path fill="none" stroke="midnightblue" d="M1686.14,-332.267C1686.14,-324.931 1686.14,-314.857 1686.14,-305.38"/>
<polygon fill="midnightblue" stroke="midnightblue" points="1689.64,-305.11 1686.14,-295.11 1682.64,-305.11 1689.64,-305.11"/>
</g>
<!-- Node2&#45;&gt;Node6 -->
<g id="edge158" class="edge"><title>Node2&#45;&gt;Node6</title>
<path fill="none" stroke="midnightblue" d="M1721.76,-337.564C1814.11,-322.473 2054.14,-276.473 2054.14,-206 2054.14,-206 2054.14,-206 2054.14,-134 2054.14,-63.5233 1808.29,-26.0828 1718.48,-14.7574"/>
<polygon fill="midnightblue" stroke="midnightblue" points="1718.68,-11.2559 1708.33,-13.5052 1717.83,-18.2032 1718.68,-11.2559"/>
</g>
<!-- Node23 -->
<g id="node56" class="node"><title>Node23</title>
<a xlink:href="_manager__traits_8h.html" target="_top" xlink:title="calibration/gui/Manager\l_traits.h">
<polygon fill="white" stroke="black" points="1057.64,-261 1057.64,-295 1174.64,-295 1174.64,-261 1057.64,-261"/>
<text text-anchor="start" x="1065.64" y="-282" font-family="Helvetica,sans-Serif" font-size="10.00">calibration/gui/Manager</text>
<text text-anchor="middle" x="1116.14" y="-269" font-family="Helvetica,sans-Serif" font-size="10.00">_traits.h</text>
</a>
</g>
<!-- Node2&#45;&gt;Node23 -->
<g id="edge66" class="edge"><title>Node2&#45;&gt;Node23</title>
<path fill="none" stroke="midnightblue" d="M1650.48,-338.934C1557.56,-328.337 1306.71,-299.731 1184.67,-285.815"/>
<polygon fill="midnightblue" stroke="midnightblue" points="1185.03,-282.333 1174.69,-284.677 1184.23,-289.288 1185.03,-282.333"/>
</g>
<!-- Node4 -->
<g id="node7" class="node"><title>Node4</title>
<a xlink:href="_detector__t_8h.html" target="_top" xlink:title="base/Detector_t.h">
<polygon fill="white" stroke="black" points="1389.64,-195.5 1389.64,-216.5 1484.64,-216.5 1484.64,-195.5 1389.64,-195.5"/>
<text text-anchor="middle" x="1437.14" y="-203.5" font-family="Helvetica,sans-Serif" font-size="10.00">base/Detector_t.h</text>
</a>
</g>
<!-- Node3&#45;&gt;Node4 -->
<g id="edge6" class="edge"><title>Node3&#45;&gt;Node4</title>
<path fill="none" stroke="midnightblue" d="M1627.13,-260.937C1583.15,-248.221 1523.94,-231.098 1483.37,-219.368"/>
<polygon fill="midnightblue" stroke="midnightblue" points="1484.32,-215.998 1473.74,-216.582 1482.37,-222.722 1484.32,-215.998"/>
</g>
<!-- Node15 -->
<g id="node32" class="node"><title>Node15</title>
<a xlink:href="mapped__vectors_8h.html" target="_top" xlink:title="base/std_ext/mapped\l_vectors.h">
<polygon fill="white" stroke="black" points="1796.14,-189 1796.14,-223 1906.14,-223 1906.14,-189 1796.14,-189"/>
<text text-anchor="start" x="1804.14" y="-210" font-family="Helvetica,sans-Serif" font-size="10.00">base/std_ext/mapped</text>
<text text-anchor="middle" x="1851.14" y="-197" font-family="Helvetica,sans-Serif" font-size="10.00">_vectors.h</text>
</a>
</g>
<!-- Node3&#45;&gt;Node15 -->
<g id="edge34" class="edge"><title>Node3&#45;&gt;Node15</title>
<path fill="none" stroke="midnightblue" d="M1725.24,-260.937C1748.48,-250.797 1778.14,-237.854 1802.84,-227.078"/>
<polygon fill="midnightblue" stroke="midnightblue" points="1804.27,-230.273 1812.03,-223.065 1801.47,-223.857 1804.27,-230.273"/>
</g>
<!-- Node17 -->
<g id="node36" class="node"><title>Node17</title>
<polygon fill="white" stroke="#bfbfbf" points="1784.14,-58.5 1784.14,-79.5 1836.14,-79.5 1836.14,-58.5 1784.14,-58.5"/>
<text text-anchor="middle" x="1810.14" y="-66.5" font-family="Helvetica,sans-Serif" font-size="10.00">memory</text>
</g>
<!-- Node3&#45;&gt;Node17 -->
<g id="edge58" class="edge"><title>Node3&#45;&gt;Node17</title>
<path fill="none" stroke="midnightblue" d="M1747.29,-275.077C1821.41,-270.105 1939.81,-257.08 1967.14,-224 1991.09,-195.005 1942.89,-121.519 1937.14,-116 1912.33,-92.173 1874.4,-80.2294 1846.44,-74.3687"/>
<polygon fill="midnightblue" stroke="midnightblue" points="1846.75,-70.8632 1836.27,-72.4083 1845.43,-77.7368 1846.75,-70.8632"/>
</g>
<!-- Node18 -->
<g id="node38" class="node"><title>Node18</title>
<polygon fill="white" stroke="#bfbfbf" points="1249.64,-58.5 1249.64,-79.5 1278.64,-79.5 1278.64,-58.5 1249.64,-58.5"/>
<text text-anchor="middle" x="1264.14" y="-66.5" font-family="Helvetica,sans-Serif" font-size="10.00">list</text>
</g>
<!-- Node3&#45;&gt;Node18 -->
<g id="edge62" class="edge"><title>Node3&#45;&gt;Node18</title>
<path fill="none" stroke="midnightblue" d="M1625,-275.79C1535.63,-271.407 1375.04,-258.803 1330.14,-224 1287.15,-190.676 1271.79,-123.967 1266.6,-89.9667"/>
<polygon fill="midnightblue" stroke="midnightblue" points="1270.03,-89.2182 1265.21,-79.7855 1263.1,-90.1678 1270.03,-89.2182"/>
</g>
<!-- Node19 -->
<g id="node43" class="node"><title>Node19</title>
<a xlink:href="shared__ptr__container_8h.html" target="_top" xlink:title="base/std_ext/shared\l_ptr_container.h">
<polygon fill="white" stroke="black" points="1633.64,-117 1633.64,-151 1738.64,-151 1738.64,-117 1633.64,-117"/>
<text text-anchor="start" x="1641.64" y="-138" font-family="Helvetica,sans-Serif" font-size="10.00">base/std_ext/shared</text>
<text text-anchor="middle" x="1686.14" y="-125" font-family="Helvetica,sans-Serif" font-size="10.00">_ptr_container.h</text>
</a>
</g>
<!-- Node3&#45;&gt;Node19 -->
<g id="edge48" class="edge"><title>Node3&#45;&gt;Node19</title>
<path fill="none" stroke="midnightblue" d="M1686.14,-260.916C1686.14,-236.341 1686.14,-190.753 1686.14,-161.427"/>
<polygon fill="midnightblue" stroke="midnightblue" points="1689.64,-161.062 1686.14,-151.062 1682.64,-161.062 1689.64,-161.062"/>
</g>
<!-- Node20 -->
<g id="node47" class="node"><title>Node20</title>
<polygon fill="white" stroke="#bfbfbf" points="1279.64,-0.5 1279.64,-21.5 1338.64,-21.5 1338.64,-0.5 1279.64,-0.5"/>
<text text-anchor="middle" x="1309.14" y="-8.5" font-family="Helvetica,sans-Serif" font-size="10.00">functional</text>
</g>
<!-- Node3&#45;&gt;Node20 -->
<g id="edge64" class="edge"><title>Node3&#45;&gt;Node20</title>
<path fill="none" stroke="midnightblue" d="M1624.91,-274.439C1546.62,-268.684 1416.87,-254.716 1381.14,-224 1322.99,-174.014 1311.69,-75.3185 1309.58,-32.1033"/>
<polygon fill="midnightblue" stroke="midnightblue" points="1313.07,-31.7867 1309.2,-21.9214 1306.07,-32.0428 1313.07,-31.7867"/>
</g>
<!-- Node22 -->
<g id="node52" class="node"><title>Node22</title>
<polygon fill="white" stroke="#bfbfbf" points="1923.64,-195.5 1923.64,-216.5 1958.64,-216.5 1958.64,-195.5 1923.64,-195.5"/>
<text text-anchor="middle" x="1941.14" y="-203.5" font-family="Helvetica,sans-Serif" font-size="10.00">map</text>
</g>
<!-- Node3&#45;&gt;Node22 -->
<g id="edge60" class="edge"><title>Node3&#45;&gt;Node22</title>
<path fill="none" stroke="midnightblue" d="M1747.44,-269.925C1794.74,-262.2 1861.02,-248.073 1915.14,-224 1916.52,-223.386 1917.9,-222.697 1919.27,-221.955"/>
<polygon fill="midnightblue" stroke="midnightblue" points="1921.31,-224.806 1927.95,-216.544 1917.61,-218.867 1921.31,-224.806"/>
</g>
<!-- Node5 -->
<g id="node9" class="node"><title>Node5</title>
<a xlink:href="printable_8h.html" target="_top" xlink:title="base/printable.h">
<polygon fill="white" stroke="black" points="1372.14,-58.5 1372.14,-79.5 1458.14,-79.5 1458.14,-58.5 1372.14,-58.5"/>
<text text-anchor="middle" x="1415.14" y="-66.5" font-family="Helvetica,sans-Serif" font-size="10.00">base/printable.h</text>
</a>
</g>
<!-- Node4&#45;&gt;Node5 -->
<g id="edge8" class="edge"><title>Node4&#45;&gt;Node5</title>
<path fill="none" stroke="midnightblue" d="M1427.28,-195.419C1418.49,-185.195 1406.23,-168.823 1401.14,-152 1394.79,-131.036 1400.68,-106.167 1406.65,-89.1528"/>
<polygon fill="midnightblue" stroke="midnightblue" points="1409.97,-90.2698 1410.27,-79.6792 1403.43,-87.7719 1409.97,-90.2698"/>
</g>
<!-- Node4&#45;&gt;Node6 -->
<g id="edge32" class="edge"><title>Node4&#45;&gt;Node6</title>
<path fill="none" stroke="midnightblue" d="M1451.69,-195.45C1466.08,-184.854 1488.6,-167.865 1507.14,-152 1524.82,-136.876 1527.33,-130.974 1545.14,-116 1584.56,-82.8526 1633.27,-47.7843 1661.9,-27.7285"/>
<polygon fill="midnightblue" stroke="midnightblue" points="1664.25,-30.3561 1670.45,-21.7659 1660.25,-24.6139 1664.25,-30.3561"/>
</g>
<!-- Node8 -->
<g id="node15" class="node"><title>Node8</title>
<a xlink:href="vec3_8h.html" target="_top" xlink:title="base/vec/vec3.h">
<polygon fill="white" stroke="black" points="1409.64,-123.5 1409.64,-144.5 1498.64,-144.5 1498.64,-123.5 1409.64,-123.5"/>
<text text-anchor="middle" x="1454.14" y="-131.5" font-family="Helvetica,sans-Serif" font-size="10.00">base/vec/vec3.h</text>
</a>
</g>
<!-- Node4&#45;&gt;Node8 -->
<g id="edge14" class="edge"><title>Node4&#45;&gt;Node8</title>
<path fill="none" stroke="midnightblue" d="M1439.65,-195.376C1442.18,-184.635 1446.17,-167.761 1449.32,-154.422"/>
<polygon fill="midnightblue" stroke="midnightblue" points="1452.73,-155.204 1451.62,-144.667 1445.92,-153.596 1452.73,-155.204"/>
</g>
<!-- Node4&#45;&gt;Node11 -->
<g id="edge24" class="edge"><title>Node4&#45;&gt;Node11</title>
<path fill="none" stroke="midnightblue" d="M1389.35,-202.761C1283.76,-195.268 1033.52,-175.562 952.14,-152 949.149,-151.134 946.103,-150.041 943.109,-148.823"/>
<polygon fill="midnightblue" stroke="midnightblue" points="944.4,-145.566 933.847,-144.635 941.516,-151.944 944.4,-145.566"/>
</g>
<!-- Node12 -->
<g id="node25" class="node"><title>Node12</title>
<polygon fill="white" stroke="#bfbfbf" points="329.64,-58.5 329.64,-79.5 388.64,-79.5 388.64,-58.5 329.64,-58.5"/>
<text text-anchor="middle" x="359.14" y="-66.5" font-family="Helvetica,sans-Serif" font-size="10.00">stdexcept</text>
</g>
<!-- Node4&#45;&gt;Node12 -->
<g id="edge26" class="edge"><title>Node4&#45;&gt;Node12</title>
<path fill="none" stroke="midnightblue" d="M1389.34,-204.075C1288.21,-199.396 1056.06,-185.271 985.14,-152 964.078,-142.119 968.459,-125.313 947.14,-116 837.749,-68.2119 533.755,-99.4702 399.045,-79.9003"/>
<polygon fill="midnightblue" stroke="midnightblue" points="399.296,-76.3958 388.868,-78.265 398.186,-83.3072 399.296,-76.3958"/>
</g>
<!-- Node13 -->
<g id="node27" class="node"><title>Node13</title>
<polygon fill="white" stroke="#bfbfbf" points="1157.64,-0.5 1157.64,-21.5 1198.64,-21.5 1198.64,-0.5 1157.64,-0.5"/>
<text text-anchor="middle" x="1178.14" y="-8.5" font-family="Helvetica,sans-Serif" font-size="10.00">string</text>
</g>
<!-- Node4&#45;&gt;Node13 -->
<g id="edge28" class="edge"><title>Node4&#45;&gt;Node13</title>
<path fill="none" stroke="midnightblue" d="M1428.75,-195.323C1407.54,-168.923 1349.03,-99.7011 1287.14,-58 1262.58,-41.4495 1231.24,-28.668 1208.47,-20.6404"/>
<polygon fill="midnightblue" stroke="midnightblue" points="1209.57,-17.3181 1198.98,-17.3921 1207.31,-23.9411 1209.57,-17.3181"/>
</g>
<!-- Node14 -->
<g id="node29" class="node"><title>Node14</title>
<polygon fill="white" stroke="#bfbfbf" points="1554.14,-123.5 1554.14,-144.5 1616.14,-144.5 1616.14,-123.5 1554.14,-123.5"/>
<text text-anchor="middle" x="1585.14" y="-131.5" font-family="Helvetica,sans-Serif" font-size="10.00">type_traits</text>
</g>
<!-- Node4&#45;&gt;Node14 -->
<g id="edge30" class="edge"><title>Node4&#45;&gt;Node14</title>
<path fill="none" stroke="midnightblue" d="M1458.98,-195.376C1484.12,-183.146 1525.6,-162.965 1554.09,-149.105"/>
<polygon fill="midnightblue" stroke="midnightblue" points="1555.75,-152.189 1563.21,-144.667 1552.69,-145.895 1555.75,-152.189"/>
</g>
<!-- Node5&#45;&gt;Node6 -->
<g id="edge10" class="edge"><title>Node5&#45;&gt;Node6</title>
<path fill="none" stroke="midnightblue" d="M1458.38,-59.7456C1512.95,-48.0655 1605.55,-28.2472 1654.17,-17.8431"/>
<polygon fill="midnightblue" stroke="midnightblue" points="1655.08,-21.2272 1664.12,-15.7118 1653.61,-14.3822 1655.08,-21.2272"/>
</g>
<!-- Node7 -->
<g id="node13" class="node"><title>Node7</title>
<polygon fill="white" stroke="#bfbfbf" points="1389.14,-0.5 1389.14,-21.5 1441.14,-21.5 1441.14,-0.5 1389.14,-0.5"/>
<text text-anchor="middle" x="1415.14" y="-8.5" font-family="Helvetica,sans-Serif" font-size="10.00">ostream</text>
</g>
<!-- Node5&#45;&gt;Node7 -->
<g id="edge12" class="edge"><title>Node5&#45;&gt;Node7</title>
<path fill="none" stroke="midnightblue" d="M1415.14,-58.3619C1415.14,-50.9219 1415.14,-40.7427 1415.14,-31.7276"/>
<polygon fill="midnightblue" stroke="midnightblue" points="1418.64,-31.5706 1415.14,-21.5707 1411.64,-31.5707 1418.64,-31.5706"/>
</g>
<!-- Node8&#45;&gt;Node5 -->
<g id="edge16" class="edge"><title>Node8&#45;&gt;Node5</title>
<path fill="none" stroke="midnightblue" d="M1447.7,-123.267C1442.02,-113.801 1433.61,-99.7773 1426.75,-88.3571"/>
<polygon fill="midnightblue" stroke="midnightblue" points="1429.61,-86.3079 1421.46,-79.5337 1423.6,-89.9094 1429.61,-86.3079"/>
</g>
<!-- Node9 -->
<g id="node18" class="node"><title>Node9</title>
<a xlink:href="vec2_8h.html" target="_top" xlink:title="vec2.h">
<polygon fill="white" stroke="black" points="1476.14,-58.5 1476.14,-79.5 1522.14,-79.5 1522.14,-58.5 1476.14,-58.5"/>
<text text-anchor="middle" x="1499.14" y="-66.5" font-family="Helvetica,sans-Serif" font-size="10.00">vec2.h</text>
</a>
</g>
<!-- Node8&#45;&gt;Node9 -->
<g id="edge18" class="edge"><title>Node8&#45;&gt;Node9</title>
<path fill="none" stroke="midnightblue" d="M1461.57,-123.267C1468.19,-113.707 1478.03,-99.4964 1485.98,-88.0152"/>
<polygon fill="midnightblue" stroke="midnightblue" points="1489.03,-89.7479 1491.85,-79.5337 1483.28,-85.7634 1489.03,-89.7479"/>
</g>
<!-- Node10 -->
<g id="node20" class="node"><title>Node10</title>
<polygon fill="white" stroke="#bfbfbf" points="1522.14,-0.5 1522.14,-21.5 1566.14,-21.5 1566.14,-0.5 1522.14,-0.5"/>
<text text-anchor="middle" x="1544.14" y="-8.5" font-family="Helvetica,sans-Serif" font-size="10.00">cmath</text>
</g>
<!-- Node8&#45;&gt;Node10 -->
<g id="edge22" class="edge"><title>Node8&#45;&gt;Node10</title>
<path fill="none" stroke="midnightblue" d="M1478.14,-123.383C1495.63,-114.376 1518.4,-99.7603 1531.14,-80 1540.4,-65.6316 1543.42,-46.297 1544.25,-31.7501"/>
<polygon fill="midnightblue" stroke="midnightblue" points="1547.75,-31.8143 1544.53,-21.7209 1540.75,-31.6199 1547.75,-31.8143"/>
</g>
<!-- Node9&#45;&gt;Node10 -->
<g id="edge20" class="edge"><title>Node9&#45;&gt;Node10</title>
<path fill="none" stroke="midnightblue" d="M1507.39,-58.3619C1513.61,-50.3496 1522.29,-39.1605 1529.66,-29.6696"/>
<polygon fill="midnightblue" stroke="midnightblue" points="1532.57,-31.617 1535.94,-21.5707 1527.04,-27.326 1532.57,-31.617"/>
</g>
<!-- Node15&#45;&gt;Node6 -->
<g id="edge42" class="edge"><title>Node15&#45;&gt;Node6</title>
<path fill="none" stroke="midnightblue" d="M1895.8,-188.952C1911.8,-180.424 1928.1,-168.354 1937.14,-152 1944.88,-137.998 1944.87,-130.009 1937.14,-116 1913.79,-73.6774 1889.18,-77.9281 1845.14,-58 1802.9,-38.8853 1750.87,-25.2181 1718.09,-17.7104"/>
<polygon fill="midnightblue" stroke="midnightblue" points="1718.69,-14.2567 1708.16,-15.4901 1717.16,-21.088 1718.69,-14.2567"/>
</g>
<!-- Node15&#45;&gt;Node14 -->
<g id="edge46" class="edge"><title>Node15&#45;&gt;Node14</title>
<path fill="none" stroke="midnightblue" d="M1795.98,-195.847C1749.71,-186.614 1682.22,-171.468 1625.14,-152 1622.21,-151 1619.2,-149.863 1616.21,-148.658"/>
<polygon fill="midnightblue" stroke="midnightblue" points="1617.42,-145.37 1606.85,-144.661 1614.67,-151.807 1617.42,-145.37"/>
</g>
<!-- Node16 -->
<g id="node34" class="node"><title>Node16</title>
<a xlink:href="memory_8h.html" target="_top" xlink:title="base/std_ext/memory.h">
<polygon fill="white" stroke="black" points="1793.64,-123.5 1793.64,-144.5 1912.64,-144.5 1912.64,-123.5 1793.64,-123.5"/>
<text text-anchor="middle" x="1853.14" y="-131.5" font-family="Helvetica,sans-Serif" font-size="10.00">base/std_ext/memory.h</text>
</a>
</g>
<!-- Node15&#45;&gt;Node16 -->
<g id="edge36" class="edge"><title>Node15&#45;&gt;Node16</title>
<path fill="none" stroke="midnightblue" d="M1851.61,-188.937C1851.9,-178.814 1852.25,-165.898 1852.55,-155.133"/>
<polygon fill="midnightblue" stroke="midnightblue" points="1856.06,-154.994 1852.84,-144.901 1849.06,-154.8 1856.06,-154.994"/>
</g>
<!-- Node15&#45;&gt;Node17 -->
<g id="edge44" class="edge"><title>Node15&#45;&gt;Node17</title>
<path fill="none" stroke="midnightblue" d="M1885.1,-188.846C1898.95,-179.911 1913.49,-167.565 1921.14,-152 1928.2,-137.641 1929.98,-129.338 1921.14,-116 1904.68,-91.1603 1872.2,-79.4125 1846.6,-73.8775"/>
<polygon fill="midnightblue" stroke="midnightblue" points="1846.95,-70.3815 1836.47,-71.9255 1845.63,-77.255 1846.95,-70.3815"/>
</g>
<!-- Node16&#45;&gt;Node17 -->
<g id="edge38" class="edge"><title>Node16&#45;&gt;Node17</title>
<path fill="none" stroke="midnightblue" d="M1846.04,-123.267C1839.72,-113.707 1830.31,-99.4964 1822.72,-88.0152"/>
<polygon fill="midnightblue" stroke="midnightblue" points="1825.54,-85.9428 1817.11,-79.5337 1819.71,-89.805 1825.54,-85.9428"/>
</g>
<!-- Node16&#45;&gt;Node18 -->
<g id="edge40" class="edge"><title>Node16&#45;&gt;Node18</title>
<path fill="none" stroke="midnightblue" d="M1795.77,-123.453C1780.04,-120.781 1762.96,-118.082 1747.14,-116 1577.19,-93.6357 1533.66,-97.4655 1363.14,-80 1337.88,-77.4132 1309.04,-74.1756 1289.02,-71.8845"/>
<polygon fill="midnightblue" stroke="midnightblue" points="1289.23,-68.3849 1278.89,-70.7191 1288.43,-75.339 1289.23,-68.3849"/>
</g>
<!-- Node19&#45;&gt;Node6 -->
<g id="edge50" class="edge"><title>Node19&#45;&gt;Node6</title>
<path fill="none" stroke="midnightblue" d="M1686.14,-116.897C1686.14,-94.6732 1686.14,-55.8864 1686.14,-31.9293"/>
<polygon fill="midnightblue" stroke="midnightblue" points="1689.64,-31.7874 1686.14,-21.7875 1682.64,-31.7875 1689.64,-31.7874"/>
</g>
<!-- Node19&#45;&gt;Node17 -->
<g id="edge52" class="edge"><title>Node19&#45;&gt;Node17</title>
<path fill="none" stroke="midnightblue" d="M1718.72,-116.922C1737.99,-106.818 1762.21,-94.1257 1780.87,-84.3418"/>
<polygon fill="midnightblue" stroke="midnightblue" points="1782.58,-87.4011 1789.81,-79.6584 1779.33,-81.2012 1782.58,-87.4011"/>
</g>
<!-- Node19&#45;&gt;Node20 -->
<g id="edge54" class="edge"><title>Node19&#45;&gt;Node20</title>
<path fill="none" stroke="midnightblue" d="M1656.79,-116.872C1626.3,-99.7408 1576.75,-73.7387 1531.14,-58 1497.9,-46.5317 1403.09,-28.2065 1348.72,-18.1618"/>
<polygon fill="midnightblue" stroke="midnightblue" points="1349.21,-14.693 1338.74,-16.3269 1347.95,-21.5776 1349.21,-14.693"/>
</g>
<!-- Node21 -->
<g id="node49" class="node"><title>Node21</title>
<polygon fill="white" stroke="#bfbfbf" points="731.14,-0.5 731.14,-21.5 787.14,-21.5 787.14,-0.5 731.14,-0.5"/>
<text text-anchor="middle" x="759.14" y="-8.5" font-family="Helvetica,sans-Serif" font-size="10.00">algorithm</text>
</g>
<!-- Node19&#45;&gt;Node21 -->
<g id="edge56" class="edge"><title>Node19&#45;&gt;Node21</title>
<path fill="none" stroke="midnightblue" d="M1633.41,-117.639C1630.63,-117.027 1627.86,-116.474 1625.14,-116 1353.22,-68.6308 1269.52,-159.298 1005.14,-80 986.448,-74.3935 985.31,-65.1208 967.14,-58 909.981,-35.5989 839.597,-22.498 797.105,-16.048"/>
<polygon fill="midnightblue" stroke="midnightblue" points="797.59,-12.5817 787.186,-14.5867 796.569,-19.5069 797.59,-12.5817"/>
</g>
<!-- Node23&#45;&gt;Node13 -->
<g id="edge152" class="edge"><title>Node23&#45;&gt;Node13</title>
<path fill="none" stroke="midnightblue" d="M1120.11,-260.892C1131.04,-213.818 1161.54,-82.4953 1173.37,-31.5588"/>
<polygon fill="midnightblue" stroke="midnightblue" points="1176.8,-32.2423 1175.65,-21.7098 1169.98,-30.6589 1176.8,-32.2423"/>
</g>
<!-- Node23&#45;&gt;Node17 -->
<g id="edge156" class="edge"><title>Node23&#45;&gt;Node17</title>
<path fill="none" stroke="midnightblue" d="M1174.8,-272.172C1312.85,-257.54 1653.66,-215.8 1747.14,-152 1770.93,-135.761 1789.5,-107.609 1800.14,-88.6482"/>
<polygon fill="midnightblue" stroke="midnightblue" points="1803.31,-90.147 1804.97,-79.6826 1797.15,-86.8294 1803.31,-90.147"/>
</g>
<!-- Node23&#45;&gt;Node18 -->
<g id="edge154" class="edge"><title>Node23&#45;&gt;Node18</title>
<path fill="none" stroke="midnightblue" d="M1128.25,-260.897C1155.59,-222.286 1221.94,-128.587 1250.6,-88.1277"/>
<polygon fill="midnightblue" stroke="midnightblue" points="1253.49,-90.092 1256.42,-79.9082 1247.78,-86.0466 1253.49,-90.092"/>
</g>
<!-- Node24 -->
<g id="node58" class="node"><title>Node24</title>
<a xlink:href="interval_8h.html" target="_top" xlink:title="base/interval.h">
<polygon fill="white" stroke="black" points="126.14,-123.5 126.14,-144.5 206.14,-144.5 206.14,-123.5 126.14,-123.5"/>
<text text-anchor="middle" x="166.14" y="-131.5" font-family="Helvetica,sans-Serif" font-size="10.00">base/interval.h</text>
</a>
</g>
<!-- Node23&#45;&gt;Node24 -->
<g id="edge68" class="edge"><title>Node23&#45;&gt;Node24</title>
<path fill="none" stroke="midnightblue" d="M1057.42,-269.693C919.864,-250.135 566.063,-199.262 271.14,-152 253.279,-149.138 233.739,-145.835 216.411,-142.847"/>
<polygon fill="midnightblue" stroke="midnightblue" points="216.944,-139.387 206.493,-141.129 215.749,-146.284 216.944,-139.387"/>
</g>
<!-- Node28 -->
<g id="node69" class="node"><title>Node28</title>
<a xlink:href="_wrap_t_file_8h.html" target="_top" xlink:title="base/WrapTFile.h">
<polygon fill="white" stroke="black" points="994.14,-123.5 994.14,-144.5 1088.14,-144.5 1088.14,-123.5 994.14,-123.5"/>
<text text-anchor="middle" x="1041.14" y="-131.5" font-family="Helvetica,sans-Serif" font-size="10.00">base/WrapTFile.h</text>
</a>
</g>
<!-- Node23&#45;&gt;Node28 -->
<g id="edge82" class="edge"><title>Node23&#45;&gt;Node28</title>
<path fill="none" stroke="midnightblue" d="M1107.24,-260.916C1093.22,-233.992 1066.06,-181.845 1051.29,-153.496"/>
<polygon fill="midnightblue" stroke="midnightblue" points="1054.35,-151.794 1046.63,-144.541 1048.15,-155.027 1054.35,-151.794"/>
</g>
<!-- Node39 -->
<g id="node101" class="node"><title>Node39</title>
<a xlink:href="_t_i_d_8h.html" target="_top" xlink:title="tree/TID.h">
<polygon fill="white" stroke="black" points="818.64,-195.5 818.64,-216.5 879.64,-216.5 879.64,-195.5 818.64,-195.5"/>
<text text-anchor="middle" x="849.14" y="-203.5" font-family="Helvetica,sans-Serif" font-size="10.00">tree/TID.h</text>
</a>
</g>
<!-- Node23&#45;&gt;Node39 -->
<g id="edge124" class="edge"><title>Node23&#45;&gt;Node39</title>
<path fill="none" stroke="midnightblue" d="M1057.55,-262.199C1006.7,-248.489 934.432,-229 889.729,-216.945"/>
<polygon fill="midnightblue" stroke="midnightblue" points="890.374,-213.494 879.808,-214.27 888.552,-220.253 890.374,-213.494"/>
</g>
<!-- Node24&#45;&gt;Node5 -->
<g id="edge70" class="edge"><title>Node24&#45;&gt;Node5</title>
<path fill="none" stroke="midnightblue" d="M206.424,-128.661C238.944,-124.552 285.91,-119.074 327.14,-116 752.925,-84.2584 860.983,-106.286 1287.14,-80 1311.66,-78.4877 1338.77,-76.2407 1361.71,-74.1711"/>
<polygon fill="midnightblue" stroke="midnightblue" points="1362.29,-77.6327 1371.93,-73.236 1361.65,-70.6618 1362.29,-77.6327"/>
</g>
<!-- Node24&#45;&gt;Node12 -->
<g id="edge76" class="edge"><title>Node24&#45;&gt;Node12</title>
<path fill="none" stroke="midnightblue" d="M197.578,-123.412C230.969,-112.166 283.814,-94.3688 319.909,-82.2124"/>
<polygon fill="midnightblue" stroke="midnightblue" points="321.256,-85.4521 329.616,-78.9434 319.022,-78.8183 321.256,-85.4521"/>
</g>
<!-- Node24&#45;&gt;Node21 -->
<g id="edge74" class="edge"><title>Node24&#45;&gt;Node21</title>
<path fill="none" stroke="midnightblue" d="M125.867,-128.838C67.7293,-119.873 -28.8006,-98.3927 9.14005,-58 21.4472,-44.8974 568.765,-19.5062 720.498,-12.7085"/>
<polygon fill="midnightblue" stroke="midnightblue" points="720.893,-16.1945 730.727,-12.2516 720.58,-9.20145 720.893,-16.1945"/>
</g>
<!-- Node25 -->
<g id="node61" class="node"><title>Node25</title>
<a xlink:href="types_8h.html" target="_top" xlink:title="types.h">
<polygon fill="white" stroke="black" points="141.64,-58.5 141.64,-79.5 190.64,-79.5 190.64,-58.5 141.64,-58.5"/>
<text text-anchor="middle" x="166.14" y="-66.5" font-family="Helvetica,sans-Serif" font-size="10.00">types.h</text>
</a>
</g>
<!-- Node24&#45;&gt;Node25 -->
<g id="edge72" class="edge"><title>Node24&#45;&gt;Node25</title>
<path fill="none" stroke="midnightblue" d="M166.14,-123.267C166.14,-114.18 166.14,-100.892 166.14,-89.7395"/>
<polygon fill="midnightblue" stroke="midnightblue" points="169.64,-89.5337 166.14,-79.5337 162.64,-89.5337 169.64,-89.5337"/>
</g>
<!-- Node26 -->
<g id="node65" class="node"><title>Node26</title>
<polygon fill="white" stroke="#bfbfbf" points="18.14,-58.5 18.14,-79.5 58.14,-79.5 58.14,-58.5 18.14,-58.5"/>
<text text-anchor="middle" x="38.14" y="-66.5" font-family="Helvetica,sans-Serif" font-size="10.00">limits</text>
</g>
<!-- Node24&#45;&gt;Node26 -->
<g id="edge78" class="edge"><title>Node24&#45;&gt;Node26</title>
<path fill="none" stroke="midnightblue" d="M145.29,-123.412C124.152,-112.678 91.2586,-95.9742 67.4915,-83.905"/>
<polygon fill="midnightblue" stroke="midnightblue" points="69.059,-80.7757 58.558,-79.3685 65.8895,-87.017 69.059,-80.7757"/>
</g>
<!-- Node27 -->
<g id="node67" class="node"><title>Node27</title>
<polygon fill="white" stroke="#bfbfbf" points="75.64,-58.5 75.64,-79.5 124.64,-79.5 124.64,-58.5 75.64,-58.5"/>
<text text-anchor="middle" x="100.14" y="-66.5" font-family="Helvetica,sans-Serif" font-size="10.00">istream</text>
</g>
<!-- Node24&#45;&gt;Node27 -->
<g id="edge80" class="edge"><title>Node24&#45;&gt;Node27</title>
<path fill="none" stroke="midnightblue" d="M155.241,-123.267C145.15,-113.328 129.955,-98.3635 118.076,-86.6645"/>
<polygon fill="midnightblue" stroke="midnightblue" points="120.417,-84.0569 110.836,-79.5337 115.505,-89.0443 120.417,-84.0569"/>
</g>
<!-- Node28&#45;&gt;Node12 -->
<g id="edge120" class="edge"><title>Node28&#45;&gt;Node12</title>
<path fill="none" stroke="midnightblue" d="M1010.43,-123.472C1000.84,-120.582 990.145,-117.762 980.14,-116 727.715,-71.55 654.773,-123.021 398.83,-79.9832"/>
<polygon fill="midnightblue" stroke="midnightblue" points="399.313,-76.515 388.866,-78.2756 398.131,-83.4144 399.313,-76.515"/>
</g>
<!-- Node28&#45;&gt;Node13 -->
<g id="edge116" class="edge"><title>Node28&#45;&gt;Node13</title>
<path fill="none" stroke="midnightblue" d="M1062.82,-123.332C1081.2,-113.633 1107.62,-98.097 1127.14,-80 1142.91,-65.38 1157.12,-45.3044 1166.5,-30.5768"/>
<polygon fill="midnightblue" stroke="midnightblue" points="1169.66,-32.1275 1171.94,-21.782 1163.71,-28.4444 1169.66,-32.1275"/>
</g>
<!-- Node28&#45;&gt;Node17 -->
<g id="edge114" class="edge"><title>Node28&#45;&gt;Node17</title>
<path fill="none" stroke="midnightblue" d="M1088.38,-130.007C1229.67,-118.064 1647.09,-82.7817 1773.47,-72.0994"/>
<polygon fill="midnightblue" stroke="midnightblue" points="1774.1,-75.5592 1783.77,-71.2292 1773.51,-68.584 1774.1,-75.5592"/>
</g>
<!-- Node28&#45;&gt;Node18 -->
<g id="edge118" class="edge"><title>Node28&#45;&gt;Node18</title>
<path fill="none" stroke="midnightblue" d="M1077.47,-123.412C1123.25,-110.066 1200.69,-87.4933 1239.88,-76.0717"/>
<polygon fill="midnightblue" stroke="midnightblue" points="1241.02,-79.3856 1249.64,-73.227 1239.06,-72.6653 1241.02,-79.3856"/>
</g>
<!-- Node28&#45;&gt;Node20 -->
<g id="edge122" class="edge"><title>Node28&#45;&gt;Node20</title>
<path fill="none" stroke="midnightblue" d="M1064.45,-123.3C1112.39,-101.3 1222.09,-50.9538 1276.83,-25.8291"/>
<polygon fill="midnightblue" stroke="midnightblue" points="1278.44,-28.9402 1286.07,-21.588 1275.52,-22.5782 1278.44,-28.9402"/>
</g>
<!-- Node29 -->
<g id="node71" class="node"><title>Node29</title>
<a xlink:href="string_8h.html" target="_top" xlink:title="base/std_ext/string.h">
<polygon fill="white" stroke="black" points="406.14,-58.5 406.14,-79.5 514.14,-79.5 514.14,-58.5 406.14,-58.5"/>
<text text-anchor="middle" x="460.14" y="-66.5" font-family="Helvetica,sans-Serif" font-size="10.00">base/std_ext/string.h</text>
</a>
</g>
<!-- Node28&#45;&gt;Node29 -->
<g id="edge84" class="edge"><title>Node28&#45;&gt;Node29</title>
<path fill="none" stroke="midnightblue" d="M1010.1,-123.482C1000.58,-120.629 990.021,-117.826 980.14,-116 783.022,-79.565 727.067,-104.71 524.461,-80.0578"/>
<polygon fill="midnightblue" stroke="midnightblue" points="524.742,-76.5659 514.387,-78.806 523.879,-83.5125 524.742,-76.5659"/>
</g>
<!-- Node31 -->
<g id="node78" class="node"><title>Node31</title>
<a xlink:href="misc_8h.html" target="_top" xlink:title="base/std_ext/misc.h">
<polygon fill="white" stroke="black" points="1013.64,-58.5 1013.64,-79.5 1118.64,-79.5 1118.64,-58.5 1013.64,-58.5"/>
<text text-anchor="middle" x="1066.14" y="-66.5" font-family="Helvetica,sans-Serif" font-size="10.00">base/std_ext/misc.h</text>
</a>
</g>
<!-- Node28&#45;&gt;Node31 -->
<g id="edge94" class="edge"><title>Node28&#45;&gt;Node31</title>
<path fill="none" stroke="midnightblue" d="M1045.27,-123.267C1048.84,-113.991 1054.09,-100.336 1058.43,-89.0453"/>
<polygon fill="midnightblue" stroke="midnightblue" points="1061.77,-90.1236 1062.09,-79.5337 1055.23,-87.6107 1061.77,-90.1236"/>
</g>
<!-- Node33 -->
<g id="node84" class="node"><title>Node33</title>
<polygon fill="white" stroke="#bfbfbf" points="531.64,-58.5 531.64,-79.5 578.64,-79.5 578.64,-58.5 531.64,-58.5"/>
<text text-anchor="middle" x="555.14" y="-66.5" font-family="Helvetica,sans-Serif" font-size="10.00">TFile.h</text>
</g>
<!-- Node28&#45;&gt;Node33 -->
<g id="edge102" class="edge"><title>Node28&#45;&gt;Node33</title>
<path fill="none" stroke="midnightblue" d="M1009.77,-123.467C1000.34,-120.648 989.9,-117.868 980.14,-116 811.067,-83.634 760.509,-115.544 588.608,-79.9084"/>
<polygon fill="midnightblue" stroke="midnightblue" points="589.235,-76.4637 578.726,-77.814 587.783,-83.3115 589.235,-76.4637"/>
</g>
<!-- Node34 -->
<g id="node86" class="node"><title>Node34</title>
<polygon fill="white" stroke="#bfbfbf" points="595.64,-58.5 595.64,-79.5 666.64,-79.5 666.64,-58.5 595.64,-58.5"/>
<text text-anchor="middle" x="631.14" y="-66.5" font-family="Helvetica,sans-Serif" font-size="10.00">TDirectory.h</text>
</g>
<!-- Node28&#45;&gt;Node34 -->
<g id="edge104" class="edge"><title>Node28&#45;&gt;Node34</title>
<path fill="none" stroke="midnightblue" d="M1009.11,-123.44C999.841,-120.688 989.659,-117.951 980.14,-116 849.689,-89.2555 811.266,-103.846 677.316,-80.2271"/>
<polygon fill="midnightblue" stroke="midnightblue" points="677.539,-76.711 667.077,-78.3808 676.297,-83.5999 677.539,-76.711"/>
</g>
<!-- Node35 -->
<g id="node88" class="node"><title>Node35</title>
<polygon fill="white" stroke="#bfbfbf" points="684.14,-58.5 684.14,-79.5 736.14,-79.5 736.14,-58.5 684.14,-58.5"/>
<text text-anchor="middle" x="710.14" y="-66.5" font-family="Helvetica,sans-Serif" font-size="10.00">TError.h</text>
</g>
<!-- Node28&#45;&gt;Node35 -->
<g id="edge106" class="edge"><title>Node28&#45;&gt;Node35</title>
<path fill="none" stroke="midnightblue" d="M1008.43,-123.464C999.333,-120.777 989.408,-118.067 980.14,-116 880.134,-93.6919 849.883,-103.28 746.313,-80.0019"/>
<polygon fill="midnightblue" stroke="midnightblue" points="746.924,-76.5512 736.395,-77.7237 745.357,-83.3736 746.924,-76.5512"/>
</g>
<!-- Node36 -->
<g id="node90" class="node"><title>Node36</title>
<polygon fill="white" stroke="#bfbfbf" points="753.64,-58.5 753.64,-79.5 800.64,-79.5 800.64,-58.5 753.64,-58.5"/>
<text text-anchor="middle" x="777.14" y="-66.5" font-family="Helvetica,sans-Serif" font-size="10.00">TList.h</text>
</g>
<!-- Node28&#45;&gt;Node36 -->
<g id="edge108" class="edge"><title>Node28&#45;&gt;Node36</title>
<path fill="none" stroke="midnightblue" d="M1007.07,-123.428C998.333,-120.859 988.919,-118.216 980.14,-116 907.924,-97.7741 885.807,-100.4 810.735,-80.2173"/>
<polygon fill="midnightblue" stroke="midnightblue" points="811.373,-76.7633 800.804,-77.4991 809.525,-83.515 811.373,-76.7633"/>
</g>
<!-- Node37 -->
<g id="node92" class="node"><title>Node37</title>
<polygon fill="white" stroke="#bfbfbf" points="818.14,-58.5 818.14,-79.5 892.14,-79.5 892.14,-58.5 818.14,-58.5"/>
<text text-anchor="middle" x="855.14" y="-66.5" font-family="Helvetica,sans-Serif" font-size="10.00">TCollection.h</text>
</g>
<!-- Node28&#45;&gt;Node37 -->
<g id="edge110" class="edge"><title>Node28&#45;&gt;Node37</title>
<path fill="none" stroke="midnightblue" d="M1010.84,-123.412C979.362,-112.411 929.94,-95.1396 895.239,-83.0132"/>
<polygon fill="midnightblue" stroke="midnightblue" points="896.02,-79.5785 885.425,-79.5835 893.711,-86.1866 896.02,-79.5785"/>
</g>
<!-- Node38 -->
<g id="node94" class="node"><title>Node38</title>
<polygon fill="white" stroke="#bfbfbf" points="910.14,-58.5 910.14,-79.5 958.14,-79.5 958.14,-58.5 910.14,-58.5"/>
<text text-anchor="middle" x="934.14" y="-66.5" font-family="Helvetica,sans-Serif" font-size="10.00">TKey.h</text>
</g>
<!-- Node28&#45;&gt;Node38 -->
<g id="edge112" class="edge"><title>Node28&#45;&gt;Node38</title>
<path fill="none" stroke="midnightblue" d="M1023.47,-123.267C1006.25,-112.807 979.873,-96.782 960.238,-84.8541"/>
<polygon fill="midnightblue" stroke="midnightblue" points="961.844,-81.7343 951.48,-79.5337 958.21,-87.7169 961.844,-81.7343"/>
</g>
<!-- Node29&#45;&gt;Node6 -->
<g id="edge92" class="edge"><title>Node29&#45;&gt;Node6</title>
<path fill="none" stroke="midnightblue" d="M514.369,-59.0398C517.331,-58.6496 520.269,-58.2983 523.14,-58 988.464,-9.6503 1108.34,-53.0839 1575.14,-22 1601.71,-20.2308 1631.76,-17.1888 1653.89,-14.7516"/>
<polygon fill="midnightblue" stroke="midnightblue" points="1654.51,-18.2033 1664.06,-13.612 1653.73,-11.2467 1654.51,-18.2033"/>
</g>
<!-- Node29&#45;&gt;Node13 -->
<g id="edge86" class="edge"><title>Node29&#45;&gt;Node13</title>
<path fill="none" stroke="midnightblue" d="M514.38,-59.1371C517.339,-58.7217 520.273,-58.3385 523.14,-58 778.751,-27.8184 845.092,-48.2208 1101.14,-22 1116.45,-20.4324 1133.38,-18.0808 1147.47,-15.9538"/>
<polygon fill="midnightblue" stroke="midnightblue" points="1148.26,-19.3734 1157.61,-14.3878 1147.19,-12.4555 1148.26,-19.3734"/>
</g>
<!-- Node29&#45;&gt;Node21 -->
<g id="edge90" class="edge"><title>Node29&#45;&gt;Node21</title>
<path fill="none" stroke="midnightblue" d="M514.287,-58.4966C574.082,-46.8976 668.805,-28.5232 721.181,-18.3633"/>
<polygon fill="midnightblue" stroke="midnightblue" points="721.918,-21.7856 731.069,-16.4453 720.585,-14.9137 721.918,-21.7856"/>
</g>
<!-- Node30 -->
<g id="node74" class="node"><title>Node30</title>
<polygon fill="white" stroke="#bfbfbf" points="434.14,-0.5 434.14,-21.5 486.14,-21.5 486.14,-0.5 434.14,-0.5"/>
<text text-anchor="middle" x="460.14" y="-8.5" font-family="Helvetica,sans-Serif" font-size="10.00">sstream</text>
</g>
<!-- Node29&#45;&gt;Node30 -->
<g id="edge88" class="edge"><title>Node29&#45;&gt;Node30</title>
<path fill="none" stroke="midnightblue" d="M460.14,-58.3619C460.14,-50.9219 460.14,-40.7427 460.14,-31.7276"/>
<polygon fill="midnightblue" stroke="midnightblue" points="463.64,-31.5706 460.14,-21.5707 456.64,-31.5707 463.64,-31.5706"/>
</g>
<!-- Node31&#45;&gt;Node20 -->
<g id="edge98" class="edge"><title>Node31&#45;&gt;Node20</title>
<path fill="none" stroke="midnightblue" d="M1110.15,-58.4966C1155.6,-47.647 1225.89,-30.8693 1269.63,-20.4315"/>
<polygon fill="midnightblue" stroke="midnightblue" points="1270.69,-23.7757 1279.6,-18.0497 1269.07,-16.967 1270.69,-23.7757"/>
</g>
<!-- Node31&#45;&gt;Node21 -->
<g id="edge96" class="edge"><title>Node31&#45;&gt;Node21</title>
<path fill="none" stroke="midnightblue" d="M1013.36,-59.0294C951.841,-47.406 851.666,-28.4805 797.248,-18.1996"/>
<polygon fill="midnightblue" stroke="midnightblue" points="797.796,-14.7412 787.32,-16.3239 796.496,-21.6195 797.796,-14.7412"/>
</g>
<!-- Node32 -->
<g id="node82" class="node"><title>Node32</title>
<polygon fill="white" stroke="#bfbfbf" points="1039.64,-0.5 1039.64,-21.5 1092.64,-21.5 1092.64,-0.5 1039.64,-0.5"/>
<text text-anchor="middle" x="1066.14" y="-8.5" font-family="Helvetica,sans-Serif" font-size="10.00">cxxabi.h</text>
</g>
<!-- Node31&#45;&gt;Node32 -->
<g id="edge100" class="edge"><title>Node31&#45;&gt;Node32</title>
<path fill="none" stroke="midnightblue" d="M1066.14,-58.3619C1066.14,-50.9219 1066.14,-40.7427 1066.14,-31.7276"/>
<polygon fill="midnightblue" stroke="midnightblue" points="1069.64,-31.5706 1066.14,-21.5707 1062.64,-31.5707 1069.64,-31.5706"/>
</g>
<!-- Node39&#45;&gt;Node5 -->
<g id="edge128" class="edge"><title>Node39&#45;&gt;Node5</title>
<path fill="none" stroke="midnightblue" d="M879.962,-201.71C934.479,-193.839 1051.3,-175.701 1148.14,-152 1230.31,-131.889 1324.34,-100.696 1376,-82.8287"/>
<polygon fill="midnightblue" stroke="midnightblue" points="1377.15,-86.1347 1385.44,-79.5466 1374.85,-79.5225 1377.15,-86.1347"/>
</g>
<!-- Node39&#45;&gt;Node11 -->
<g id="edge142" class="edge"><title>Node39&#45;&gt;Node11</title>
<path fill="none" stroke="midnightblue" d="M858.879,-195.376C869.31,-183.997 886.05,-165.735 898.563,-152.085"/>
<polygon fill="midnightblue" stroke="midnightblue" points="901.184,-154.404 905.362,-144.667 896.024,-149.674 901.184,-154.404"/>
</g>
<!-- Node39&#45;&gt;Node12 -->
<g id="edge144" class="edge"><title>Node39&#45;&gt;Node12</title>
<path fill="none" stroke="midnightblue" d="M842.193,-195.355C827.77,-173.614 794.482,-125.367 777.14,-116 705.133,-77.1048 495.896,-94.5185 399.014,-79.9098"/>
<polygon fill="midnightblue" stroke="midnightblue" points="399.329,-76.4131 388.883,-78.181 398.152,-83.3133 399.329,-76.4131"/>
</g>
<!-- Node39&#45;&gt;Node14 -->
<g id="edge138" class="edge"><title>Node39&#45;&gt;Node14</title>
<path fill="none" stroke="midnightblue" d="M879.826,-205.062C974.046,-201.844 1267.32,-189.311 1507.14,-152 1519.14,-150.133 1532.04,-147.443 1543.82,-144.709"/>
<polygon fill="midnightblue" stroke="midnightblue" points="1544.93,-148.043 1553.84,-142.315 1543.3,-141.235 1544.93,-148.043"/>
</g>
<!-- Node39&#45;&gt;Node18 -->
<g id="edge146" class="edge"><title>Node39&#45;&gt;Node18</title>
<path fill="none" stroke="midnightblue" d="M879.968,-201.793C927.536,-194.748 1021.27,-178.653 1097.14,-152 1125.72,-141.959 1201.76,-102.244 1240.6,-81.6055"/>
<polygon fill="midnightblue" stroke="midnightblue" points="1242.44,-84.5904 1249.62,-76.7991 1239.15,-78.4126 1242.44,-84.5904"/>
</g>
<!-- Node40 -->
<g id="node103" class="node"><title>Node40</title>
<polygon fill="white" stroke="#bfbfbf" points="656.14,-123.5 656.14,-144.5 712.14,-144.5 712.14,-123.5 656.14,-123.5"/>
<text text-anchor="middle" x="684.14" y="-131.5" font-family="Helvetica,sans-Serif" font-size="10.00">Rtypes.h</text>
</g>
<!-- Node39&#45;&gt;Node40 -->
<g id="edge126" class="edge"><title>Node39&#45;&gt;Node40</title>
<path fill="none" stroke="midnightblue" d="M822.977,-195.442C796.981,-184.84 756.062,-167.847 721.14,-152 719.079,-151.065 716.961,-150.085 714.832,-149.086"/>
<polygon fill="midnightblue" stroke="midnightblue" points="716.102,-145.814 705.569,-144.666 713.087,-152.132 716.102,-145.814"/>
</g>
<!-- Node41 -->
<g id="node106" class="node"><title>Node41</title>
<a xlink:href="time_8h.html" target="_top" xlink:title="base/std_ext/time.h">
<polygon fill="white" stroke="black" points="335.64,-123.5 335.64,-144.5 438.64,-144.5 438.64,-123.5 335.64,-123.5"/>
<text text-anchor="middle" x="387.14" y="-131.5" font-family="Helvetica,sans-Serif" font-size="10.00">base/std_ext/time.h</text>
</a>
</g>
<!-- Node39&#45;&gt;Node41 -->
<g id="edge130" class="edge"><title>Node39&#45;&gt;Node41</title>
<path fill="none" stroke="midnightblue" d="M818.469,-201.22C743.357,-189.514 549.044,-159.232 448.871,-143.62"/>
<polygon fill="midnightblue" stroke="midnightblue" points="449.311,-140.147 438.891,-142.065 448.233,-147.063 449.311,-140.147"/>
</g>
<!-- Node43 -->
<g id="node111" class="node"><title>Node43</title>
<polygon fill="white" stroke="#bfbfbf" points="207.64,-58.5 207.64,-79.5 248.64,-79.5 248.64,-58.5 207.64,-58.5"/>
<text text-anchor="middle" x="228.14" y="-66.5" font-family="Helvetica,sans-Serif" font-size="10.00">ctime</text>
</g>
<!-- Node39&#45;&gt;Node43 -->
<g id="edge150" class="edge"><title>Node39&#45;&gt;Node43</title>
<path fill="none" stroke="midnightblue" d="M818.506,-205.174C720.656,-202.174 416.811,-189.954 327.14,-152 292.982,-137.542 261.642,-107.127 243.734,-87.4046"/>
<polygon fill="midnightblue" stroke="midnightblue" points="246.157,-84.8606 236.912,-79.6845 240.911,-89.4957 246.157,-84.8606"/>
</g>
<!-- Node44 -->
<g id="node114" class="node"><title>Node44</title>
<polygon fill="white" stroke="#bfbfbf" points="730.14,-123.5 730.14,-144.5 768.14,-144.5 768.14,-123.5 730.14,-123.5"/>
<text text-anchor="middle" x="749.14" y="-131.5" font-family="Helvetica,sans-Serif" font-size="10.00">tuple</text>
</g>
<!-- Node39&#45;&gt;Node44 -->
<g id="edge140" class="edge"><title>Node39&#45;&gt;Node44</title>
<path fill="none" stroke="midnightblue" d="M834.385,-195.376C817.989,-183.571 791.306,-164.36 772.159,-150.574"/>
<polygon fill="midnightblue" stroke="midnightblue" points="774.116,-147.67 763.956,-144.667 770.026,-153.351 774.116,-147.67"/>
</g>
<!-- Node45 -->
<g id="node119" class="node"><title>Node45</title>
<polygon fill="white" stroke="#bfbfbf" points="824.14,-123.5 824.14,-144.5 874.14,-144.5 874.14,-123.5 824.14,-123.5"/>
<text text-anchor="middle" x="849.14" y="-131.5" font-family="Helvetica,sans-Serif" font-size="10.00">iomanip</text>
</g>
<!-- Node39&#45;&gt;Node45 -->
<g id="edge148" class="edge"><title>Node39&#45;&gt;Node45</title>
<path fill="none" stroke="midnightblue" d="M849.14,-195.376C849.14,-184.741 849.14,-168.095 849.14,-154.82"/>
<polygon fill="midnightblue" stroke="midnightblue" points="852.64,-154.667 849.14,-144.667 845.64,-154.667 852.64,-154.667"/>
</g>
<!-- Node41&#45;&gt;Node29 -->
<g id="edge132" class="edge"><title>Node41&#45;&gt;Node29</title>
<path fill="none" stroke="midnightblue" d="M399.195,-123.267C410.463,-113.233 427.483,-98.078 440.676,-86.3311"/>
<polygon fill="midnightblue" stroke="midnightblue" points="443.169,-88.7977 448.31,-79.5337 438.514,-83.5698 443.169,-88.7977"/>
</g>
<!-- Node42 -->
<g id="node109" class="node"><title>Node42</title>
<polygon fill="white" stroke="#bfbfbf" points="266.14,-58.5 266.14,-79.5 312.14,-79.5 312.14,-58.5 266.14,-58.5"/>
<text text-anchor="middle" x="289.14" y="-66.5" font-family="Helvetica,sans-Serif" font-size="10.00">cstring</text>
</g>
<!-- Node41&#45;&gt;Node42 -->
<g id="edge134" class="edge"><title>Node41&#45;&gt;Node42</title>
<path fill="none" stroke="midnightblue" d="M370.957,-123.267C355.402,-112.949 331.681,-97.216 313.779,-85.3421"/>
<polygon fill="midnightblue" stroke="midnightblue" points="315.29,-82.1444 305.022,-79.5337 311.421,-87.9779 315.29,-82.1444"/>
</g>
<!-- Node41&#45;&gt;Node43 -->
<g id="edge136" class="edge"><title>Node41&#45;&gt;Node43</title>
<path fill="none" stroke="midnightblue" d="M361.24,-123.412C333.095,-111.906 288.172,-93.5416 258.418,-81.3777"/>
<polygon fill="midnightblue" stroke="midnightblue" points="259.535,-78.0535 248.955,-77.5091 256.887,-84.533 259.535,-78.0535"/>
</g>
</g>
</svg>
