<?xml version="1.0" encoding="UTF-8" standalone="no"?>
<!DOCTYPE svg PUBLIC "-//W3C//DTD SVG 1.1//EN"
 "http://www.w3.org/Graphics/SVG/1.1/DTD/svg11.dtd">
<!-- Generated by graphviz version 2.26.3 (20100126.1600)
 -->
<!-- Title: src/analysis/input/goat/GoatReader.h Pages: 1 -->
<svg width="1447pt" height="276pt"
 viewBox="0.00 0.00 1446.99 276.00" xmlns="http://www.w3.org/2000/svg" xmlns:xlink="http://www.w3.org/1999/xlink">
<g id="graph1" class="graph" transform="scale(1 1) rotate(0) translate(4 272)">
<title>src/analysis/input/goat/GoatReader.h</title>
<polygon fill="white" stroke="white" points="-4,5 -4,-272 1443.99,-272 1443.99,5 -4,5"/>
<!-- Node1 -->
<g id="node1" class="node"><title>Node1</title>
<polygon fill="#bfbfbf" stroke="black" points="602.993,-233 602.993,-267 704.993,-267 704.993,-233 602.993,-233"/>
<text text-anchor="start" x="610.993" y="-254" font-family="Helvetica,sans-Serif" font-size="10.00">src/analysis/input</text>
<text text-anchor="middle" x="653.993" y="-241" font-family="Helvetica,sans-Serif" font-size="10.00">/goat/GoatReader.h</text>
</g>
<!-- Node2 -->
<g id="node3" class="node"><title>Node2</title>
<a xlink:href="_data_reader_8h.html" target="_top" xlink:title="analysis/input/DataReader.h">
<polygon fill="white" stroke="black" points="14.9935,-174.5 14.9935,-195.5 154.993,-195.5 154.993,-174.5 14.9935,-174.5"/>
<text text-anchor="middle" x="84.9935" y="-182.5" font-family="Helvetica,sans-Serif" font-size="10.00">analysis/input/DataReader.h</text>
</a>
</g>
<!-- Node1&#45;&gt;Node2 -->
<g id="edge2" class="edge"><title>Node1&#45;&gt;Node2</title>
<path fill="none" stroke="midnightblue" d="M602.794,-244.844C515.408,-235.938 331.607,-216.744 165.594,-196.174"/>
<polygon fill="midnightblue" stroke="midnightblue" points="165.546,-192.641 155.191,-194.88 164.683,-199.588 165.546,-192.641"/>
</g>
<!-- Node3 -->
<g id="node5" class="node"><title>Node3</title>
<polygon fill="white" stroke="#bfbfbf" points="9.99346,-116.5 9.99346,-137.5 61.9935,-137.5 61.9935,-116.5 9.99346,-116.5"/>
<text text-anchor="middle" x="35.9935" y="-124.5" font-family="Helvetica,sans-Serif" font-size="10.00">memory</text>
</g>
<!-- Node1&#45;&gt;Node3 -->
<g id="edge6" class="edge"><title>Node1&#45;&gt;Node3</title>
<path fill="none" stroke="midnightblue" d="M602.893,-249.623C456.951,-248.021 46.1477,-239.64 5.99346,-196 -7.29017,-181.563 5.33786,-160.317 18.0463,-145.22"/>
<polygon fill="midnightblue" stroke="midnightblue" points="20.8631,-147.323 24.9509,-137.548 15.6598,-142.64 20.8631,-147.323"/>
</g>
<!-- Node4 -->
<g id="node8" class="node"><title>Node4</title>
<polygon fill="white" stroke="#bfbfbf" points="878.493,-58.5 878.493,-79.5 919.493,-79.5 919.493,-58.5 878.493,-58.5"/>
<text text-anchor="middle" x="898.993" y="-66.5" font-family="Helvetica,sans-Serif" font-size="10.00">string</text>
</g>
<!-- Node1&#45;&gt;Node4 -->
<g id="edge8" class="edge"><title>Node1&#45;&gt;Node4</title>
<path fill="none" stroke="midnightblue" d="M705.141,-245.41C794.596,-236.862 971.744,-217.417 989.993,-196 996.335,-188.558 993.411,-183.161 989.993,-174 976.312,-137.325 943.413,-104.957 921.155,-86.1706"/>
<polygon fill="midnightblue" stroke="midnightblue" points="923.161,-83.2887 913.208,-79.6551 918.723,-88.7019 923.161,-83.2887"/>
</g>
<!-- Node5 -->
<g id="node10" class="node"><title>Node5</title>
<polygon fill="white" stroke="#bfbfbf" points="296.493,-174.5 296.493,-195.5 325.493,-195.5 325.493,-174.5 296.493,-174.5"/>
<text text-anchor="middle" x="310.993" y="-182.5" font-family="Helvetica,sans-Serif" font-size="10.00">list</text>
</g>
<!-- Node1&#45;&gt;Node5 -->
<g id="edge10" class="edge"><title>Node1&#45;&gt;Node5</title>
<path fill="none" stroke="midnightblue" d="M602.805,-245.795C540.812,-239.733 433.446,-226.124 335.585,-195.912"/>
<polygon fill="midnightblue" stroke="midnightblue" points="336.432,-192.509 325.842,-192.838 334.326,-199.185 336.432,-192.509"/>
</g>
<!-- Node6 -->
<g id="node12" class="node"><title>Node6</title>
<a xlink:href="_input_module_8h.html" target="_top" xlink:title="detail/InputModule.h">
<polygon fill="white" stroke="black" points="680.993,-116.5 680.993,-137.5 784.993,-137.5 784.993,-116.5 680.993,-116.5"/>
<text text-anchor="middle" x="732.993" y="-124.5" font-family="Helvetica,sans-Serif" font-size="10.00">detail/InputModule.h</text>
</a>
</g>
<!-- Node1&#45;&gt;Node6 -->
<g id="edge12" class="edge"><title>Node1&#45;&gt;Node6</title>
<path fill="none" stroke="midnightblue" d="M705.086,-244.982C791.018,-236.022 956.83,-216.303 973.993,-196 980.306,-188.533 980.211,-181.547 973.993,-174 951.784,-147.041 859.251,-135.337 795.53,-130.405"/>
<polygon fill="midnightblue" stroke="midnightblue" points="795.403,-126.887 785.173,-129.643 794.889,-133.868 795.403,-126.887"/>
</g>
<!-- Node7 -->
<g id="node15" class="node"><title>Node7</title>
<a xlink:href="_trigger_input_8h.html" target="_top" xlink:title="detail/TriggerInput.h">
<polygon fill="white" stroke="black" points="602.493,-174.5 602.493,-195.5 705.493,-195.5 705.493,-174.5 602.493,-174.5"/>
<text text-anchor="middle" x="653.993" y="-182.5" font-family="Helvetica,sans-Serif" font-size="10.00">detail/TriggerInput.h</text>
</a>
</g>
<!-- Node1&#45;&gt;Node7 -->
<g id="edge16" class="edge"><title>Node1&#45;&gt;Node7</title>
<path fill="none" stroke="midnightblue" d="M653.993,-232.922C653.993,-224.67 653.993,-214.692 653.993,-205.982"/>
<polygon fill="midnightblue" stroke="midnightblue" points="657.494,-205.852 653.993,-195.852 650.494,-205.852 657.494,-205.852"/>
</g>
<!-- Node11 -->
<g id="node24" class="node"><title>Node11</title>
<a xlink:href="_event_parameters_8h.html" target="_top" xlink:title="detail/EventParameters.h">
<polygon fill="white" stroke="black" points="838.493,-174.5 838.493,-195.5 965.493,-195.5 965.493,-174.5 838.493,-174.5"/>
<text text-anchor="middle" x="901.993" y="-182.5" font-family="Helvetica,sans-Serif" font-size="10.00">detail/EventParameters.h</text>
</a>
</g>
<!-- Node1&#45;&gt;Node11 -->
<g id="edge26" class="edge"><title>Node1&#45;&gt;Node11</title>
<path fill="none" stroke="midnightblue" d="M705.079,-236.611C748.004,-225.36 809.01,-209.371 851.709,-198.179"/>
<polygon fill="midnightblue" stroke="midnightblue" points="852.82,-201.506 861.606,-195.585 851.046,-194.735 852.82,-201.506"/>
</g>
<!-- Node12 -->
<g id="node29" class="node"><title>Node12</title>
<a xlink:href="_tagger_input_8h.html" target="_top" xlink:title="detail/TaggerInput.h">
<polygon fill="white" stroke="black" points="342.493,-174.5 342.493,-195.5 445.493,-195.5 445.493,-174.5 342.493,-174.5"/>
<text text-anchor="middle" x="393.993" y="-182.5" font-family="Helvetica,sans-Serif" font-size="10.00">detail/TaggerInput.h</text>
</a>
</g>
<!-- Node1&#45;&gt;Node12 -->
<g id="edge34" class="edge"><title>Node1&#45;&gt;Node12</title>
<path fill="none" stroke="midnightblue" d="M602.936,-237.236C557.702,-225.927 491.945,-209.488 446.329,-198.084"/>
<polygon fill="midnightblue" stroke="midnightblue" points="446.893,-194.617 436.343,-195.587 445.195,-201.408 446.893,-194.617"/>
</g>
<!-- Node13 -->
<g id="node35" class="node"><title>Node13</title>
<a xlink:href="_detector_hit_input_8h.html" target="_top" xlink:title="detail/DetectorHitInput.h">
<polygon fill="white" stroke="black" points="462.493,-174.5 462.493,-195.5 585.493,-195.5 585.493,-174.5 462.493,-174.5"/>
<text text-anchor="middle" x="523.993" y="-182.5" font-family="Helvetica,sans-Serif" font-size="10.00">detail/DetectorHitInput.h</text>
</a>
</g>
<!-- Node1&#45;&gt;Node13 -->
<g id="edge44" class="edge"><title>Node1&#45;&gt;Node13</title>
<path fill="none" stroke="midnightblue" d="M619.837,-232.922C599.538,-222.772 574.013,-210.01 554.409,-200.208"/>
<polygon fill="midnightblue" stroke="midnightblue" points="555.82,-197 545.31,-195.658 552.689,-203.261 555.82,-197"/>
</g>
<!-- Node14 -->
<g id="node41" class="node"><title>Node14</title>
<a xlink:href="_track_input_8h.html" target="_top" xlink:title="detail/TrackInput.h">
<polygon fill="white" stroke="black" points="722.993,-174.5 722.993,-195.5 820.993,-195.5 820.993,-174.5 722.993,-174.5"/>
<text text-anchor="middle" x="771.993" y="-182.5" font-family="Helvetica,sans-Serif" font-size="10.00">detail/TrackInput.h</text>
</a>
</g>
<!-- Node1&#45;&gt;Node14 -->
<g id="edge54" class="edge"><title>Node1&#45;&gt;Node14</title>
<path fill="none" stroke="midnightblue" d="M684.997,-232.922C703.088,-222.957 725.75,-210.473 743.409,-200.745"/>
<polygon fill="midnightblue" stroke="midnightblue" points="745.574,-203.549 752.644,-195.658 742.197,-197.418 745.574,-203.549"/>
</g>
<!-- Node15 -->
<g id="node47" class="node"><title>Node15</title>
<a xlink:href="_particle_input_8h.html" target="_top" xlink:title="detail/ParticleInput.h">
<polygon fill="white" stroke="black" points="172.993,-174.5 172.993,-195.5 278.993,-195.5 278.993,-174.5 172.993,-174.5"/>
<text text-anchor="middle" x="225.993" y="-182.5" font-family="Helvetica,sans-Serif" font-size="10.00">detail/ParticleInput.h</text>
</a>
</g>
<!-- Node1&#45;&gt;Node15 -->
<g id="edge64" class="edge"><title>Node1&#45;&gt;Node15</title>
<path fill="none" stroke="midnightblue" d="M602.701,-242.912C533.78,-233.282 407.212,-215.225 289.023,-196.135"/>
<polygon fill="midnightblue" stroke="midnightblue" points="289.507,-192.668 279.076,-194.523 288.387,-199.578 289.507,-192.668"/>
</g>
<!-- Node16 -->
<g id="node53" class="node"><title>Node16</title>
<a xlink:href="_particle_type_8h.html" target="_top" xlink:title="base/ParticleType.h">
<polygon fill="white" stroke="black" points="1143.99,-174.5 1143.99,-195.5 1247.99,-195.5 1247.99,-174.5 1143.99,-174.5"/>
<text text-anchor="middle" x="1195.99" y="-182.5" font-family="Helvetica,sans-Serif" font-size="10.00">base/ParticleType.h</text>
</a>
</g>
<!-- Node1&#45;&gt;Node16 -->
<g id="edge74" class="edge"><title>Node1&#45;&gt;Node16</title>
<path fill="none" stroke="midnightblue" d="M705.472,-243.826C805.434,-231.838 1025.46,-205.451 1133.56,-192.487"/>
<polygon fill="midnightblue" stroke="midnightblue" points="1134.16,-195.941 1143.67,-191.275 1133.32,-188.991 1134.16,-195.941"/>
</g>
<!-- Node17 -->
<g id="node55" class="node"><title>Node17</title>
<a xlink:href="types_8h.html" target="_top" xlink:title="base/types.h">
<polygon fill="white" stroke="black" points="1366.49,-58.5 1366.49,-79.5 1439.49,-79.5 1439.49,-58.5 1366.49,-58.5"/>
<text text-anchor="middle" x="1402.99" y="-66.5" font-family="Helvetica,sans-Serif" font-size="10.00">base/types.h</text>
</a>
</g>
<!-- Node1&#45;&gt;Node17 -->
<g id="edge106" class="edge"><title>Node1&#45;&gt;Node17</title>
<path fill="none" stroke="midnightblue" d="M705.214,-247.567C831.128,-241.24 1153.07,-222.874 1256.99,-196 1318.64,-180.058 1347.76,-187.349 1387.99,-138 1398.98,-124.523 1402.4,-104.798 1403.26,-89.8854"/>
<polygon fill="midnightblue" stroke="midnightblue" points="1406.77,-89.6837 1403.5,-79.6033 1399.77,-89.5172 1406.77,-89.6837"/>
</g>
<!-- Node2&#45;&gt;Node3 -->
<g id="edge4" class="edge"><title>Node2&#45;&gt;Node3</title>
<path fill="none" stroke="midnightblue" d="M76.0061,-174.362C69.168,-166.268 59.591,-154.932 51.521,-145.38"/>
<polygon fill="midnightblue" stroke="midnightblue" points="54.051,-142.951 44.9238,-137.571 48.7038,-147.468 54.051,-142.951"/>
</g>
<!-- Node6&#45;&gt;Node4 -->
<g id="edge14" class="edge"><title>Node6&#45;&gt;Node4</title>
<path fill="none" stroke="midnightblue" d="M763.055,-116.497C792.938,-106.055 838.535,-90.1241 868.551,-79.6366"/>
<polygon fill="midnightblue" stroke="midnightblue" points="869.802,-82.9071 878.088,-76.3044 867.493,-76.2988 869.802,-82.9071"/>
</g>
<!-- Node7&#45;&gt;Node6 -->
<g id="edge18" class="edge"><title>Node7&#45;&gt;Node6</title>
<path fill="none" stroke="midnightblue" d="M668.483,-174.362C680.176,-165.777 696.836,-153.546 710.297,-143.664"/>
<polygon fill="midnightblue" stroke="midnightblue" points="712.606,-146.31 718.596,-137.571 708.463,-140.667 712.606,-146.31"/>
</g>
<!-- Node8 -->
<g id="node18" class="node"><title>Node8</title>
<polygon fill="white" stroke="#bfbfbf" points="568.993,-116.5 568.993,-137.5 624.993,-137.5 624.993,-116.5 568.993,-116.5"/>
<text text-anchor="middle" x="596.993" y="-124.5" font-family="Helvetica,sans-Serif" font-size="10.00">Rtypes.h</text>
</g>
<!-- Node7&#45;&gt;Node8 -->
<g id="edge20" class="edge"><title>Node7&#45;&gt;Node8</title>
<path fill="none" stroke="midnightblue" d="M643.539,-174.362C635.424,-166.104 623.992,-154.472 614.489,-144.803"/>
<polygon fill="midnightblue" stroke="midnightblue" points="616.888,-142.25 607.382,-137.571 611.895,-147.156 616.888,-142.25"/>
</g>
<!-- Node9 -->
<g id="node20" class="node"><title>Node9</title>
<polygon fill="white" stroke="#bfbfbf" points="710.993,-0.5 710.993,-21.5 754.993,-21.5 754.993,-0.5 710.993,-0.5"/>
<text text-anchor="middle" x="732.993" y="-8.5" font-family="Helvetica,sans-Serif" font-size="10.00">vector</text>
</g>
<!-- Node7&#45;&gt;Node9 -->
<g id="edge22" class="edge"><title>Node7&#45;&gt;Node9</title>
<path fill="none" stroke="midnightblue" d="M655.825,-174.428C658.422,-160.636 663.789,-135.918 671.993,-116 685.084,-84.2201 706.241,-50.3332 719.881,-29.9118"/>
<polygon fill="midnightblue" stroke="midnightblue" points="722.848,-31.7734 725.563,-21.5325 717.054,-27.8447 722.848,-31.7734"/>
</g>
<!-- Node10 -->
<g id="node22" class="node"><title>Node10</title>
<polygon fill="white" stroke="#bfbfbf" points="498.493,-116.5 498.493,-137.5 551.493,-137.5 551.493,-116.5 498.493,-116.5"/>
<text text-anchor="middle" x="524.993" y="-124.5" font-family="Helvetica,sans-Serif" font-size="10.00">TMath.h</text>
</g>
<!-- Node7&#45;&gt;Node10 -->
<g id="edge24" class="edge"><title>Node7&#45;&gt;Node10</title>
<path fill="none" stroke="midnightblue" d="M630.633,-174.497C610.303,-165.356 580.615,-152.008 557.885,-141.788"/>
<polygon fill="midnightblue" stroke="midnightblue" points="559.172,-138.53 548.617,-137.621 556.302,-144.914 559.172,-138.53"/>
</g>
<!-- Node11&#45;&gt;Node6 -->
<g id="edge28" class="edge"><title>Node11&#45;&gt;Node6</title>
<path fill="none" stroke="midnightblue" d="M871.389,-174.497C843.957,-165.082 803.518,-151.204 773.429,-140.877"/>
<polygon fill="midnightblue" stroke="midnightblue" points="774.25,-137.459 763.655,-137.523 771.978,-144.08 774.25,-137.459"/>
</g>
<!-- Node11&#45;&gt;Node8 -->
<g id="edge30" class="edge"><title>Node11&#45;&gt;Node8</title>
<path fill="none" stroke="midnightblue" d="M846.76,-174.497C785.605,-162.867 688.631,-144.426 635.292,-134.283"/>
<polygon fill="midnightblue" stroke="midnightblue" points="635.708,-130.799 625.23,-132.37 634.4,-137.676 635.708,-130.799"/>
</g>
<!-- Node11&#45;&gt;Node9 -->
<g id="edge32" class="edge"><title>Node11&#45;&gt;Node9</title>
<path fill="none" stroke="midnightblue" d="M893.151,-174.41C874.379,-152.117 828.833,-99.0254 786.993,-58 776.49,-47.7008 764.156,-36.8784 753.929,-28.2181"/>
<polygon fill="midnightblue" stroke="midnightblue" points="756.167,-25.5274 746.254,-21.7876 751.672,-30.8929 756.167,-25.5274"/>
</g>
<!-- Node12&#45;&gt;Node6 -->
<g id="edge36" class="edge"><title>Node12&#45;&gt;Node6</title>
<path fill="none" stroke="midnightblue" d="M445.696,-175.472C448.502,-174.971 451.282,-174.477 453.993,-174 528.342,-160.923 613.974,-146.608 670.547,-137.255"/>
<polygon fill="midnightblue" stroke="midnightblue" points="671.467,-140.651 680.762,-135.568 670.326,-133.744 671.467,-140.651"/>
</g>
<!-- Node12&#45;&gt;Node8 -->
<g id="edge38" class="edge"><title>Node12&#45;&gt;Node8</title>
<path fill="none" stroke="midnightblue" d="M431.613,-174.5C463.18,-165.655 509.711,-152.54 558.862,-138.307"/>
<polygon fill="midnightblue" stroke="midnightblue" points="560.094,-141.594 568.723,-135.446 558.144,-134.871 560.094,-141.594"/>
</g>
<!-- Node12&#45;&gt;Node9 -->
<g id="edge40" class="edge"><title>Node12&#45;&gt;Node9</title>
<path fill="none" stroke="midnightblue" d="M401.111,-174.47C418.357,-149.838 465.033,-88.2582 519.993,-58 578.375,-25.858 657.15,-15.6964 700.689,-12.4843"/>
<polygon fill="midnightblue" stroke="midnightblue" points="700.961,-15.9741 710.708,-11.8231 700.5,-8.98926 700.961,-15.9741"/>
</g>
<!-- Node12&#45;&gt;Node10 -->
<g id="edge42" class="edge"><title>Node12&#45;&gt;Node10</title>
<path fill="none" stroke="midnightblue" d="M417.717,-174.497C438.361,-165.356 468.51,-152.008 491.592,-141.788"/>
<polygon fill="midnightblue" stroke="midnightblue" points="493.277,-144.87 501.004,-137.621 490.443,-138.469 493.277,-144.87"/>
</g>
<!-- Node13&#45;&gt;Node6 -->
<g id="edge46" class="edge"><title>Node13&#45;&gt;Node6</title>
<path fill="none" stroke="midnightblue" d="M561.842,-174.497C596.504,-164.877 647.959,-150.598 685.396,-140.209"/>
<polygon fill="midnightblue" stroke="midnightblue" points="686.374,-143.57 695.074,-137.523 684.502,-136.825 686.374,-143.57"/>
</g>
<!-- Node13&#45;&gt;Node8 -->
<g id="edge48" class="edge"><title>Node13&#45;&gt;Node8</title>
<path fill="none" stroke="midnightblue" d="M537.383,-174.362C548.085,-165.859 563.289,-153.779 575.664,-143.947"/>
<polygon fill="midnightblue" stroke="midnightblue" points="578.037,-146.532 583.689,-137.571 573.682,-141.051 578.037,-146.532"/>
</g>
<!-- Node13&#45;&gt;Node9 -->
<g id="edge50" class="edge"><title>Node13&#45;&gt;Node9</title>
<path fill="none" stroke="midnightblue" d="M511.835,-174.274C497.524,-160.316 477.231,-135.418 489.993,-116 537.441,-43.811 646.219,-21.0236 700.684,-14.0103"/>
<polygon fill="midnightblue" stroke="midnightblue" points="701.3,-17.4618 710.818,-12.808 700.475,-10.5106 701.3,-17.4618"/>
</g>
<!-- Node13&#45;&gt;Node10 -->
<g id="edge52" class="edge"><title>Node13&#45;&gt;Node10</title>
<path fill="none" stroke="midnightblue" d="M524.177,-174.362C524.305,-166.922 524.481,-156.743 524.636,-147.728"/>
<polygon fill="midnightblue" stroke="midnightblue" points="528.138,-147.63 524.811,-137.571 521.139,-147.509 528.138,-147.63"/>
</g>
<!-- Node14&#45;&gt;Node6 -->
<g id="edge56" class="edge"><title>Node14&#45;&gt;Node6</title>
<path fill="none" stroke="midnightblue" d="M764.84,-174.362C759.508,-166.431 752.082,-155.389 745.743,-145.961"/>
<polygon fill="midnightblue" stroke="midnightblue" points="748.586,-143.916 740.101,-137.571 742.777,-147.822 748.586,-143.916"/>
</g>
<!-- Node14&#45;&gt;Node8 -->
<g id="edge58" class="edge"><title>Node14&#45;&gt;Node8</title>
<path fill="none" stroke="midnightblue" d="M740.302,-174.497C710.706,-164.688 666.49,-150.033 635.007,-139.599"/>
<polygon fill="midnightblue" stroke="midnightblue" points="635.861,-136.195 625.267,-136.371 633.659,-142.839 635.861,-136.195"/>
</g>
<!-- Node14&#45;&gt;Node9 -->
<g id="edge60" class="edge"><title>Node14&#45;&gt;Node9</title>
<path fill="none" stroke="midnightblue" d="M779.362,-174.333C787.754,-160.851 799.619,-136.882 793.993,-116 785.108,-83.0179 763.035,-49.7252 748.027,-29.7266"/>
<polygon fill="midnightblue" stroke="midnightblue" points="750.77,-27.5515 741.894,-21.7658 745.224,-31.8236 750.77,-27.5515"/>
</g>
<!-- Node14&#45;&gt;Node10 -->
<g id="edge62" class="edge"><title>Node14&#45;&gt;Node10</title>
<path fill="none" stroke="midnightblue" d="M722.865,-175.362C681.901,-167.044 621.832,-154.194 561.38,-138.235"/>
<polygon fill="midnightblue" stroke="midnightblue" points="562.241,-134.842 551.677,-135.647 560.437,-141.606 562.241,-134.842"/>
</g>
<!-- Node15&#45;&gt;Node6 -->
<g id="edge66" class="edge"><title>Node15&#45;&gt;Node6</title>
<path fill="none" stroke="midnightblue" d="M279.053,-175.327C282.075,-174.857 285.071,-174.411 287.993,-174 441.097,-152.482 480.272,-154.537 633.993,-138 645.882,-136.721 658.57,-135.331 670.758,-133.982"/>
<polygon fill="midnightblue" stroke="midnightblue" points="671.298,-137.444 680.851,-132.863 670.526,-130.487 671.298,-137.444"/>
</g>
<!-- Node15&#45;&gt;Node8 -->
<g id="edge68" class="edge"><title>Node15&#45;&gt;Node8</title>
<path fill="none" stroke="midnightblue" d="M279.068,-175.425C282.085,-174.93 285.077,-174.452 287.993,-174 405.324,-155.836 438.975,-163.045 558.894,-137.979"/>
<polygon fill="midnightblue" stroke="midnightblue" points="559.774,-141.37 568.83,-135.871 558.321,-134.523 559.774,-141.37"/>
</g>
<!-- Node15&#45;&gt;Node9 -->
<g id="edge70" class="edge"><title>Node15&#45;&gt;Node9</title>
<path fill="none" stroke="midnightblue" d="M243.497,-174.339C284.292,-149.963 389.493,-89.817 484.993,-58 560.172,-32.9536 652.879,-19.8406 700.845,-14.299"/>
<polygon fill="midnightblue" stroke="midnightblue" points="701.384,-17.7606 710.933,-13.1698 700.605,-10.804 701.384,-17.7606"/>
</g>
<!-- Node15&#45;&gt;Node10 -->
<g id="edge72" class="edge"><title>Node15&#45;&gt;Node10</title>
<path fill="none" stroke="midnightblue" d="M279.104,-174.698C339.36,-163.009 436.033,-144.257 488.411,-134.096"/>
<polygon fill="midnightblue" stroke="midnightblue" points="489.121,-137.524 498.272,-132.183 487.788,-130.652 489.121,-137.524"/>
</g>
<!-- Node16&#45;&gt;Node4 -->
<g id="edge96" class="edge"><title>Node16&#45;&gt;Node4</title>
<path fill="none" stroke="midnightblue" d="M1143.63,-174.729C1108.01,-166.85 1060.22,-154.517 1019.99,-138 984.487,-123.421 946.495,-100.396 922.749,-85.0023"/>
<polygon fill="midnightblue" stroke="midnightblue" points="924.661,-82.0708 914.381,-79.5097 920.82,-87.9229 924.661,-82.0708"/>
</g>
<!-- Node16&#45;&gt;Node9 -->
<g id="edge104" class="edge"><title>Node16&#45;&gt;Node9</title>
<path fill="none" stroke="midnightblue" d="M1170.77,-174.434C1128.04,-156.323 1038.93,-117.651 965.993,-80 948.652,-71.0484 946.112,-65.2504 927.993,-58 872.908,-35.9564 804.771,-22.4362 765.356,-15.8582"/>
<polygon fill="midnightblue" stroke="midnightblue" points="765.702,-12.3687 755.271,-14.2227 764.582,-19.2784 765.702,-12.3687"/>
</g>
<!-- Node16&#45;&gt;Node17 -->
<g id="edge76" class="edge"><title>Node16&#45;&gt;Node17</title>
<path fill="none" stroke="midnightblue" d="M1248.02,-175.142C1290.67,-166.237 1346.84,-152.36 1364.99,-138 1380.68,-125.59 1390.84,-104.84 1396.68,-89.3292"/>
<polygon fill="midnightblue" stroke="midnightblue" points="1400.08,-90.1895 1400.04,-79.5948 1393.47,-87.905 1400.08,-90.1895"/>
</g>
<!-- Node18 -->
<g id="node57" class="node"><title>Node18</title>
<a xlink:href="interval_8h.html" target="_top" xlink:title="base/interval.h">
<polygon fill="white" stroke="black" points="1121.99,-116.5 1121.99,-137.5 1201.99,-137.5 1201.99,-116.5 1121.99,-116.5"/>
<text text-anchor="middle" x="1161.99" y="-124.5" font-family="Helvetica,sans-Serif" font-size="10.00">base/interval.h</text>
</a>
</g>
<!-- Node16&#45;&gt;Node18 -->
<g id="edge78" class="edge"><title>Node16&#45;&gt;Node18</title>
<path fill="none" stroke="midnightblue" d="M1189.76,-174.362C1185.16,-166.513 1178.77,-155.616 1173.28,-146.253"/>
<polygon fill="midnightblue" stroke="midnightblue" points="1176.27,-144.428 1168.19,-137.571 1170.23,-147.968 1176.27,-144.428"/>
</g>
<!-- Node20 -->
<g id="node62" class="node"><title>Node20</title>
<polygon fill="white" stroke="#bfbfbf" points="1207.99,-0.5 1207.99,-21.5 1259.99,-21.5 1259.99,-0.5 1207.99,-0.5"/>
<text text-anchor="middle" x="1233.99" y="-8.5" font-family="Helvetica,sans-Serif" font-size="10.00">ostream</text>
</g>
<!-- Node16&#45;&gt;Node20 -->
<g id="edge98" class="edge"><title>Node16&#45;&gt;Node20</title>
<path fill="none" stroke="midnightblue" d="M1201.99,-174.468C1210.76,-159.82 1228.3,-133.167 1248.99,-116 1276.22,-93.4102 1301.48,-110.148 1319.99,-80 1335.72,-54.3897 1299.81,-34.2391 1269.68,-22.4846"/>
<polygon fill="midnightblue" stroke="midnightblue" points="1270.77,-19.1553 1260.18,-18.967 1268.34,-25.7202 1270.77,-19.1553"/>
</g>
<!-- Node25 -->
<g id="node75" class="node"><title>Node25</title>
<polygon fill="white" stroke="#bfbfbf" points="1257.49,-116.5 1257.49,-137.5 1292.49,-137.5 1292.49,-116.5 1257.49,-116.5"/>
<text text-anchor="middle" x="1274.99" y="-124.5" font-family="Helvetica,sans-Serif" font-size="10.00">map</text>
</g>
<!-- Node16&#45;&gt;Node25 -->
<g id="edge100" class="edge"><title>Node16&#45;&gt;Node25</title>
<path fill="none" stroke="midnightblue" d="M1210.48,-174.362C1222.18,-165.777 1238.84,-153.546 1252.3,-143.664"/>
<polygon fill="midnightblue" stroke="midnightblue" points="1254.61,-146.31 1260.6,-137.571 1250.46,-140.667 1254.61,-146.31"/>
</g>
<!-- Node26 -->
<g id="node77" class="node"><title>Node26</title>
<polygon fill="white" stroke="#bfbfbf" points="1309.49,-116.5 1309.49,-137.5 1356.49,-137.5 1356.49,-116.5 1309.49,-116.5"/>
<text text-anchor="middle" x="1332.99" y="-124.5" font-family="Helvetica,sans-Serif" font-size="10.00">iterator</text>
</g>
<!-- Node16&#45;&gt;Node26 -->
<g id="edge102" class="edge"><title>Node16&#45;&gt;Node26</title>
<path fill="none" stroke="midnightblue" d="M1220.8,-174.497C1242.99,-165.102 1275.69,-151.262 1300.06,-140.942"/>
<polygon fill="midnightblue" stroke="midnightblue" points="1301.44,-144.159 1309.29,-137.037 1298.71,-137.713 1301.44,-144.159"/>
</g>
<!-- Node18&#45;&gt;Node17 -->
<g id="edge86" class="edge"><title>Node18&#45;&gt;Node17</title>
<path fill="none" stroke="midnightblue" d="M1202.06,-117.357C1244.62,-107.115 1311.81,-90.9453 1356.62,-80.1596"/>
<polygon fill="midnightblue" stroke="midnightblue" points="1357.48,-83.5524 1366.39,-77.8097 1355.85,-76.7468 1357.48,-83.5524"/>
</g>
<!-- Node19 -->
<g id="node59" class="node"><title>Node19</title>
<a xlink:href="printable_8h.html" target="_top" xlink:title="printable.h">
<polygon fill="white" stroke="black" points="1098.99,-58.5 1098.99,-79.5 1160.99,-79.5 1160.99,-58.5 1098.99,-58.5"/>
<text text-anchor="middle" x="1129.99" y="-66.5" font-family="Helvetica,sans-Serif" font-size="10.00">printable.h</text>
</a>
</g>
<!-- Node18&#45;&gt;Node19 -->
<g id="edge80" class="edge"><title>Node18&#45;&gt;Node19</title>
<path fill="none" stroke="midnightblue" d="M1156.12,-116.362C1151.84,-108.595 1145.91,-97.8426 1140.78,-88.5458"/>
<polygon fill="midnightblue" stroke="midnightblue" points="1143.72,-86.6357 1135.83,-79.5707 1137.59,-90.0172 1143.72,-86.6357"/>
</g>
<!-- Node21 -->
<g id="node65" class="node"><title>Node21</title>
<polygon fill="white" stroke="#bfbfbf" points="1178.99,-58.5 1178.99,-79.5 1234.99,-79.5 1234.99,-58.5 1178.99,-58.5"/>
<text text-anchor="middle" x="1206.99" y="-66.5" font-family="Helvetica,sans-Serif" font-size="10.00">algorithm</text>
</g>
<!-- Node18&#45;&gt;Node21 -->
<g id="edge88" class="edge"><title>Node18&#45;&gt;Node21</title>
<path fill="none" stroke="midnightblue" d="M1170.25,-116.362C1176.46,-108.35 1185.14,-97.1605 1192.51,-87.6696"/>
<polygon fill="midnightblue" stroke="midnightblue" points="1195.43,-89.617 1198.79,-79.5707 1189.9,-85.326 1195.43,-89.617"/>
</g>
<!-- Node22 -->
<g id="node67" class="node"><title>Node22</title>
<polygon fill="white" stroke="#bfbfbf" points="1252.49,-58.5 1252.49,-79.5 1311.49,-79.5 1311.49,-58.5 1252.49,-58.5"/>
<text text-anchor="middle" x="1281.99" y="-66.5" font-family="Helvetica,sans-Serif" font-size="10.00">stdexcept</text>
</g>
<!-- Node18&#45;&gt;Node22 -->
<g id="edge90" class="edge"><title>Node18&#45;&gt;Node22</title>
<path fill="none" stroke="midnightblue" d="M1183.72,-116.497C1202.47,-107.438 1229.76,-94.2462 1250.83,-84.0628"/>
<polygon fill="midnightblue" stroke="midnightblue" points="1252.54,-87.1242 1260.02,-79.6212 1249.49,-80.8217 1252.54,-87.1242"/>
</g>
<!-- Node23 -->
<g id="node69" class="node"><title>Node23</title>
<polygon fill="white" stroke="#bfbfbf" points="974.993,-58.5 974.993,-79.5 1014.99,-79.5 1014.99,-58.5 974.993,-58.5"/>
<text text-anchor="middle" x="994.993" y="-66.5" font-family="Helvetica,sans-Serif" font-size="10.00">limits</text>
</g>
<!-- Node18&#45;&gt;Node23 -->
<g id="edge92" class="edge"><title>Node18&#45;&gt;Node23</title>
<path fill="none" stroke="midnightblue" d="M1130.09,-116.481C1104.03,-107.808 1066.01,-94.9881 1024.67,-80.1758"/>
<polygon fill="midnightblue" stroke="midnightblue" points="1025.84,-76.8744 1015.24,-76.7818 1023.47,-83.4609 1025.84,-76.8744"/>
</g>
<!-- Node24 -->
<g id="node71" class="node"><title>Node24</title>
<polygon fill="white" stroke="#bfbfbf" points="1032.49,-58.5 1032.49,-79.5 1081.49,-79.5 1081.49,-58.5 1032.49,-58.5"/>
<text text-anchor="middle" x="1056.99" y="-66.5" font-family="Helvetica,sans-Serif" font-size="10.00">istream</text>
</g>
<!-- Node18&#45;&gt;Node24 -->
<g id="edge94" class="edge"><title>Node18&#45;&gt;Node24</title>
<path fill="none" stroke="midnightblue" d="M1142.73,-116.362C1126.53,-107.409 1103.14,-94.4908 1084.88,-84.4064"/>
<polygon fill="midnightblue" stroke="midnightblue" points="1086.58,-81.3422 1076.13,-79.5707 1083.19,-87.4696 1086.58,-81.3422"/>
</g>
<!-- Node19&#45;&gt;Node9 -->
<g id="edge82" class="edge"><title>Node19&#45;&gt;Node9</title>
<path fill="none" stroke="midnightblue" d="M1098.65,-59.9419C1095.73,-59.2326 1092.82,-58.5713 1089.99,-58 971.544,-34.0343 828.411,-19.4624 765.419,-13.7631"/>
<polygon fill="midnightblue" stroke="midnightblue" points="765.582,-10.2639 755.311,-12.863 764.961,-17.2363 765.582,-10.2639"/>
</g>
<!-- Node19&#45;&gt;Node20 -->
<g id="edge84" class="edge"><title>Node19&#45;&gt;Node20</title>
<path fill="none" stroke="midnightblue" d="M1149.07,-58.3619C1165.05,-49.4502 1188.07,-36.6087 1206.12,-26.5447"/>
<polygon fill="midnightblue" stroke="midnightblue" points="1208.01,-29.4982 1215.04,-21.5707 1204.6,-23.3846 1208.01,-29.4982"/>
</g>
</g>
</svg>
