<?xml version="1.0" encoding="UTF-8" standalone="no"?>
<!DOCTYPE svg PUBLIC "-//W3C//DTD SVG 1.1//EN"
 "http://www.w3.org/Graphics/SVG/1.1/DTD/svg11.dtd">
<!-- Generated by graphviz version 2.26.3 (20100126.1600)
 -->
<!-- Title: src/analysis/plot/HistStyle.h Pages: 1 -->
<svg width="928pt" height="232pt"
 viewBox="0.00 0.00 928.00 232.00" xmlns="http://www.w3.org/2000/svg" xmlns:xlink="http://www.w3.org/1999/xlink">
<g id="graph1" class="graph" transform="scale(1 1) rotate(0) translate(4 228)">
<title>src/analysis/plot/HistStyle.h</title>
<polygon fill="white" stroke="white" points="-4,5 -4,-228 925,-228 925,5 -4,5"/>
<!-- Node1 -->
<g id="node1" class="node"><title>Node1</title>
<polygon fill="#bfbfbf" stroke="black" points="201,-202.5 201,-223.5 341,-223.5 341,-202.5 201,-202.5"/>
<text text-anchor="middle" x="271" y="-210.5" font-family="Helvetica,sans-Serif" font-size="10.00">src/analysis/plot/HistStyle.h</text>
</g>
<!-- Node2 -->
<g id="node3" class="node"><title>Node2</title>
<a xlink:href="_cut_tree_8h.html" target="_top" xlink:title="src/analysis/plot/CutTree.h">
<polygon fill="white" stroke="black" points="78,-65.5 78,-86.5 212,-86.5 212,-65.5 78,-65.5"/>
<text text-anchor="middle" x="145" y="-73.5" font-family="Helvetica,sans-Serif" font-size="10.00">src/analysis/plot/CutTree.h</text>
</a>
</g>
<!-- Node1&#45;&gt;Node2 -->
<g id="edge2" class="edge"><title>Node1&#45;&gt;Node2</title>
<path fill="none" stroke="midnightblue" d="M235.375,-198.014C219.976,-190.2 202.632,-179.442 190,-166 167.509,-142.067 153.783,-104.748 148.078,-86.6109"/>
<polygon fill="midnightblue" stroke="midnightblue" points="234.125,-201.297 244.652,-202.496 237.171,-194.995 234.125,-201.297"/>
</g>
<!-- Node5 -->
<g id="node9" class="node"><title>Node5</title>
<a xlink:href="_hist_style_8cc.html" target="_top" xlink:title="src/analysis/plot/HistStyle.cc">
<polygon fill="white" stroke="black" points="198.5,-137.5 198.5,-158.5 343.5,-158.5 343.5,-137.5 198.5,-137.5"/>
<text text-anchor="middle" x="271" y="-145.5" font-family="Helvetica,sans-Serif" font-size="10.00">src/analysis/plot/HistStyle.cc</text>
</a>
</g>
<!-- Node1&#45;&gt;Node5 -->
<g id="edge8" class="edge"><title>Node1&#45;&gt;Node5</title>
<path fill="none" stroke="midnightblue" d="M271,-192.014C271,-180.831 271,-167.558 271,-158.534"/>
<polygon fill="midnightblue" stroke="midnightblue" points="267.5,-192.267 271,-202.267 274.5,-192.267 267.5,-192.267"/>
</g>
<!-- Node6 -->
<g id="node11" class="node"><title>Node6</title>
<a xlink:href="hstack_8h.html" target="_top" xlink:title="src/root&#45;addons/analysis\l_codes/hstack.h">
<polygon fill="white" stroke="black" points="369.5,-131 369.5,-165 492.5,-165 492.5,-131 369.5,-131"/>
<text text-anchor="start" x="377.5" y="-152" font-family="Helvetica,sans-Serif" font-size="10.00">src/root&#45;addons/analysis</text>
<text text-anchor="middle" x="431" y="-139" font-family="Helvetica,sans-Serif" font-size="10.00">_codes/hstack.h</text>
</a>
</g>
<!-- Node1&#45;&gt;Node6 -->
<g id="edge10" class="edge"><title>Node1&#45;&gt;Node6</title>
<path fill="none" stroke="midnightblue" d="M306.637,-198.523C330.999,-188.625 363.389,-175.467 389.005,-165.06"/>
<polygon fill="midnightblue" stroke="midnightblue" points="305.01,-195.405 297.063,-202.412 307.645,-201.891 305.01,-195.405"/>
</g>
<!-- Node3 -->
<g id="node5" class="node"><title>Node3</title>
<a xlink:href="_etap_omega_g__plot_8cc.html" target="_top" xlink:title="progs/EtapOmegaG_plot.cc">
<polygon fill="white" stroke="black" points="-0.5,-0.5 -0.5,-21.5 136.5,-21.5 136.5,-0.5 -0.5,-0.5"/>
<text text-anchor="middle" x="68" y="-8.5" font-family="Helvetica,sans-Serif" font-size="10.00">progs/EtapOmegaG_plot.cc</text>
</a>
</g>
<!-- Node2&#45;&gt;Node3 -->
<g id="edge4" class="edge"><title>Node2&#45;&gt;Node3</title>
<path fill="none" stroke="midnightblue" d="M124.585,-58.7667C110.561,-46.9281 92.394,-31.5923 80.4784,-21.5337"/>
<polygon fill="midnightblue" stroke="midnightblue" points="122.386,-61.4905 132.285,-65.2666 126.901,-56.1415 122.386,-61.4905"/>
</g>
<!-- Node4 -->
<g id="node7" class="node"><title>Node4</title>
<a xlink:href="_omega_eta_g2__plot_8cc.html" target="_top" xlink:title="Plotting tool for TTrees from the ant::analysis::physics::OmegaEtaG2 physics class. ">
<polygon fill="white" stroke="black" points="153.5,-0.5 153.5,-21.5 290.5,-21.5 290.5,-0.5 153.5,-0.5"/>
<text text-anchor="middle" x="222" y="-8.5" font-family="Helvetica,sans-Serif" font-size="10.00">progs/OmegaEtaG2_plot.cc</text>
</a>
</g>
<!-- Node2&#45;&gt;Node4 -->
<g id="edge6" class="edge"><title>Node2&#45;&gt;Node4</title>
<path fill="none" stroke="midnightblue" d="M165.415,-58.7667C179.439,-46.9281 197.606,-31.5923 209.522,-21.5337"/>
<polygon fill="midnightblue" stroke="midnightblue" points="163.099,-56.1415 157.715,-65.2666 167.614,-61.4905 163.099,-56.1415"/>
</g>
<!-- Node6&#45;&gt;Node2 -->
<g id="edge20" class="edge"><title>Node6&#45;&gt;Node2</title>
<path fill="none" stroke="midnightblue" d="M359.358,-129.964C304.928,-116.262 231.951,-97.8899 186.73,-86.5055"/>
<polygon fill="midnightblue" stroke="midnightblue" points="358.742,-133.418 369.294,-132.466 360.451,-126.63 358.742,-133.418"/>
</g>
<!-- Node7 -->
<g id="node13" class="node"><title>Node7</title>
<a xlink:href="process_etap_tree_8cc.html" target="_top" xlink:title="progs/processEtapTree.cc">
<polygon fill="white" stroke="black" points="229.5,-65.5 229.5,-86.5 360.5,-86.5 360.5,-65.5 229.5,-65.5"/>
<text text-anchor="middle" x="295" y="-73.5" font-family="Helvetica,sans-Serif" font-size="10.00">progs/processEtapTree.cc</text>
</a>
</g>
<!-- Node6&#45;&gt;Node7 -->
<g id="edge12" class="edge"><title>Node6&#45;&gt;Node7</title>
<path fill="none" stroke="midnightblue" d="M389.621,-126.094C364.954,-113.034 334.736,-97.0368 315.189,-86.688"/>
<polygon fill="midnightblue" stroke="midnightblue" points="388.294,-129.351 398.77,-130.937 391.57,-123.165 388.294,-129.351"/>
</g>
<!-- Node8 -->
<g id="node15" class="node"><title>Node8</title>
<a xlink:href="show__cocktail__database_8cc.html" target="_top" xlink:title="progs/show_cocktail\l_database.cc">
<polygon fill="white" stroke="black" points="378,-59 378,-93 484,-93 484,-59 378,-59"/>
<text text-anchor="start" x="386" y="-80" font-family="Helvetica,sans-Serif" font-size="10.00">progs/show_cocktail</text>
<text text-anchor="middle" x="431" y="-67" font-family="Helvetica,sans-Serif" font-size="10.00">_database.cc</text>
</a>
</g>
<!-- Node6&#45;&gt;Node8 -->
<g id="edge14" class="edge"><title>Node6&#45;&gt;Node8</title>
<path fill="none" stroke="midnightblue" d="M431,-120.719C431,-111.572 431,-101.625 431,-93.4407"/>
<polygon fill="midnightblue" stroke="midnightblue" points="427.5,-120.937 431,-130.937 434.5,-120.937 427.5,-120.937"/>
</g>
<!-- Node9 -->
<g id="node17" class="node"><title>Node9</title>
<a xlink:href="_reconstruct_check_8cc.html" target="_top" xlink:title="src/analysis/physics\l/common/ReconstructCheck.cc">
<polygon fill="white" stroke="black" points="501.5,-59 501.5,-93 656.5,-93 656.5,-59 501.5,-59"/>
<text text-anchor="start" x="509.5" y="-80" font-family="Helvetica,sans-Serif" font-size="10.00">src/analysis/physics</text>
<text text-anchor="middle" x="579" y="-67" font-family="Helvetica,sans-Serif" font-size="10.00">/common/ReconstructCheck.cc</text>
</a>
</g>
<!-- Node6&#45;&gt;Node9 -->
<g id="edge16" class="edge"><title>Node6&#45;&gt;Node9</title>
<path fill="none" stroke="midnightblue" d="M475.204,-126.495C497.175,-115.807 523.352,-103.072 543.922,-93.0651"/>
<polygon fill="midnightblue" stroke="midnightblue" points="473.535,-123.415 466.074,-130.937 476.597,-129.71 473.535,-123.415"/>
</g>
<!-- Node10 -->
<g id="node19" class="node"><title>Node10</title>
<a xlink:href="omega_8cc.html" target="_top" xlink:title="src/analysis/physics\l/omega/omega.cc">
<polygon fill="white" stroke="black" points="674,-59 674,-93 780,-93 780,-59 674,-59"/>
<text text-anchor="start" x="682" y="-80" font-family="Helvetica,sans-Serif" font-size="10.00">src/analysis/physics</text>
<text text-anchor="middle" x="727" y="-67" font-family="Helvetica,sans-Serif" font-size="10.00">/omega/omega.cc</text>
</a>
</g>
<!-- Node6&#45;&gt;Node10 -->
<g id="edge18" class="edge"><title>Node6&#45;&gt;Node10</title>
<path fill="none" stroke="midnightblue" d="M502.78,-132.523C549.212,-122.244 610.871,-108.091 665,-94 667.929,-93.2376 670.929,-92.4358 673.954,-91.6113"/>
<polygon fill="midnightblue" stroke="midnightblue" points="501.825,-129.149 492.814,-134.721 503.333,-135.985 501.825,-129.149"/>
</g>
<!-- Node11 -->
<g id="node22" class="node"><title>Node11</title>
<a xlink:href="hstack_8cc.html" target="_top" xlink:title="src/root&#45;addons/analysis\l_codes/hstack.cc">
<polygon fill="white" stroke="black" points="797.5,-59 797.5,-93 920.5,-93 920.5,-59 797.5,-59"/>
<text text-anchor="start" x="805.5" y="-80" font-family="Helvetica,sans-Serif" font-size="10.00">src/root&#45;addons/analysis</text>
<text text-anchor="middle" x="859" y="-67" font-family="Helvetica,sans-Serif" font-size="10.00">_codes/hstack.cc</text>
</a>
</g>
<!-- Node6&#45;&gt;Node11 -->
<g id="edge22" class="edge"><title>Node6&#45;&gt;Node11</title>
<path fill="none" stroke="midnightblue" d="M502.731,-139.368C575.278,-130.126 690.464,-114.046 789,-94 791.705,-93.4497 794.462,-92.861 797.243,-92.2446"/>
<polygon fill="midnightblue" stroke="midnightblue" points="502.265,-135.899 492.783,-140.626 503.143,-142.844 502.265,-135.899"/>
</g>
</g>
</svg>
