<?xml version="1.0" encoding="UTF-8" standalone="no"?>
<!DOCTYPE svg PUBLIC "-//W3C//DTD SVG 1.1//EN"
 "http://www.w3.org/Graphics/SVG/1.1/DTD/svg11.dtd">
<!-- Generated by graphviz version 2.26.3 (20100126.1600)
 -->
<!-- Title: src/analysis/physics/common/IMPlots.h Pages: 1 -->
<svg width="3312pt" height="580pt"
 viewBox="0.00 0.00 3312.00 580.00" xmlns="http://www.w3.org/2000/svg" xmlns:xlink="http://www.w3.org/1999/xlink">
<g id="graph1" class="graph" transform="scale(1 1) rotate(0) translate(4 576)">
<title>src/analysis/physics/common/IMPlots.h</title>
<polygon fill="white" stroke="white" points="-4,5 -4,-576 3309,-576 3309,5 -4,5"/>
<!-- Node1 -->
<g id="node1" class="node"><title>Node1</title>
<polygon fill="#bfbfbf" stroke="black" points="623,-537 623,-571 729,-571 729,-537 623,-537"/>
<text text-anchor="start" x="631" y="-558" font-family="Helvetica,sans-Serif" font-size="10.00">src/analysis/physics</text>
<text text-anchor="middle" x="676" y="-545" font-family="Helvetica,sans-Serif" font-size="10.00">/common/IMPlots.h</text>
</g>
<!-- Node2 -->
<g id="node3" class="node"><title>Node2</title>
<a xlink:href="_physics_8h.html" target="_top" xlink:title="analysis/physics/Physics.h">
<polygon fill="white" stroke="black" points="2571,-478.5 2571,-499.5 2707,-499.5 2707,-478.5 2571,-478.5"/>
<text text-anchor="middle" x="2639" y="-486.5" font-family="Helvetica,sans-Serif" font-size="10.00">analysis/physics/Physics.h</text>
</a>
</g>
<!-- Node1&#45;&gt;Node2 -->
<g id="edge2" class="edge"><title>Node1&#45;&gt;Node2</title>
<path fill="none" stroke="midnightblue" d="M729.013,-552.245C1000.59,-543.252 2235.77,-502.352 2560.56,-491.597"/>
<polygon fill="midnightblue" stroke="midnightblue" points="2560.94,-495.087 2570.82,-491.258 2560.71,-488.091 2560.94,-495.087"/>
</g>
<!-- Node7 -->
<g id="node13" class="node"><title>Node7</title>
<polygon fill="white" stroke="#bfbfbf" points="863,-0.5 863,-21.5 907,-21.5 907,-0.5 863,-0.5"/>
<text text-anchor="middle" x="885" y="-8.5" font-family="Helvetica,sans-Serif" font-size="10.00">vector</text>
</g>
<!-- Node1&#45;&gt;Node7 -->
<g id="edge358" class="edge"><title>Node1&#45;&gt;Node7</title>
<path fill="none" stroke="midnightblue" d="M622.955,-549.951C463.595,-537.085 0,-494.223 0,-431 0,-431 0,-431 0,-192 0,-89.0298 89.9361,-86.0927 189,-58 316.251,-21.9138 733.057,-13.1911 852.652,-11.408"/>
<polygon fill="midnightblue" stroke="midnightblue" points="853.017,-14.9033 862.966,-11.2607 852.917,-7.904 853.017,-14.9033"/>
</g>
<!-- Node66 -->
<g id="node235" class="node"><title>Node66</title>
<a xlink:href="_prompt_random_hist_8h.html" target="_top" xlink:title="plot/PromptRandomHist.h">
<polygon fill="white" stroke="black" points="966,-304.5 966,-325.5 1096,-325.5 1096,-304.5 966,-304.5"/>
<text text-anchor="middle" x="1031" y="-312.5" font-family="Helvetica,sans-Serif" font-size="10.00">plot/PromptRandomHist.h</text>
</a>
</g>
<!-- Node1&#45;&gt;Node66 -->
<g id="edge338" class="edge"><title>Node1&#45;&gt;Node66</title>
<path fill="none" stroke="midnightblue" d="M701.531,-536.812C767.429,-492.446 942.567,-374.536 1006.88,-331.24"/>
<polygon fill="midnightblue" stroke="midnightblue" points="1008.85,-334.129 1015.19,-325.641 1004.94,-328.322 1008.85,-334.129"/>
</g>
<!-- Node3 -->
<g id="node5" class="node"><title>Node3</title>
<a xlink:href="manager__t_8h.html" target="_top" xlink:title="analysis/physics/manager_t.h">
<polygon fill="white" stroke="black" points="2624,-420.5 2624,-441.5 2770,-441.5 2770,-420.5 2624,-420.5"/>
<text text-anchor="middle" x="2697" y="-428.5" font-family="Helvetica,sans-Serif" font-size="10.00">analysis/physics/manager_t.h</text>
</a>
</g>
<!-- Node2&#45;&gt;Node3 -->
<g id="edge4" class="edge"><title>Node2&#45;&gt;Node3</title>
<path fill="none" stroke="midnightblue" d="M2649.64,-478.362C2657.9,-470.104 2669.53,-458.472 2679.2,-448.803"/>
<polygon fill="midnightblue" stroke="midnightblue" points="2681.83,-451.117 2686.43,-441.571 2676.88,-446.167 2681.83,-451.117"/>
</g>
<!-- Node4 -->
<g id="node7" class="node"><title>Node4</title>
<a xlink:href="_histogram_factories_8h.html" target="_top" xlink:title="analysis/plot/HistogramFactories.h">
<polygon fill="white" stroke="black" points="1232,-246.5 1232,-267.5 1400,-267.5 1400,-246.5 1232,-246.5"/>
<text text-anchor="middle" x="1316" y="-254.5" font-family="Helvetica,sans-Serif" font-size="10.00">analysis/plot/HistogramFactories.h</text>
</a>
</g>
<!-- Node2&#45;&gt;Node4 -->
<g id="edge6" class="edge"><title>Node2&#45;&gt;Node4</title>
<path fill="none" stroke="midnightblue" d="M2570.58,-488.256C2319.84,-485.285 1463.19,-472.909 1414,-442 1354.36,-404.528 1328.86,-317.783 1319.98,-277.831"/>
<polygon fill="midnightblue" stroke="midnightblue" points="1323.38,-276.957 1317.91,-267.884 1316.53,-278.388 1323.38,-276.957"/>
</g>
<!-- Node14 -->
<g id="node27" class="node"><title>Node14</title>
<polygon fill="white" stroke="#bfbfbf" points="1481.5,-116.5 1481.5,-137.5 1522.5,-137.5 1522.5,-116.5 1481.5,-116.5"/>
<text text-anchor="middle" x="1502" y="-124.5" font-family="Helvetica,sans-Serif" font-size="10.00">string</text>
</g>
<!-- Node2&#45;&gt;Node14 -->
<g id="edge330" class="edge"><title>Node2&#45;&gt;Node14</title>
<path fill="none" stroke="midnightblue" d="M2570.86,-486.074C2315.25,-474.655 1428,-430.85 1428,-373 1428,-373 1428,-373 1428,-315 1428,-252.206 1406.66,-228.979 1437,-174 1444.93,-159.636 1459.32,-148.538 1472.56,-140.743"/>
<polygon fill="midnightblue" stroke="midnightblue" points="1474.35,-143.751 1481.44,-135.875 1470.99,-137.612 1474.35,-143.751"/>
</g>
<!-- Node15 -->
<g id="node29" class="node"><title>Node15</title>
<a xlink:href="memory_8h.html" target="_top" xlink:title="base/std_ext/memory.h">
<polygon fill="white" stroke="black" points="2689.5,-181.5 2689.5,-202.5 2808.5,-202.5 2808.5,-181.5 2689.5,-181.5"/>
<text text-anchor="middle" x="2749" y="-189.5" font-family="Helvetica,sans-Serif" font-size="10.00">base/std_ext/memory.h</text>
</a>
</g>
<!-- Node2&#45;&gt;Node15 -->
<g id="edge28" class="edge"><title>Node2&#45;&gt;Node15</title>
<path fill="none" stroke="midnightblue" d="M2700.85,-478.485C2743.65,-470.066 2795.73,-457.18 2812,-442 2835.74,-419.852 2836,-405.469 2836,-373 2836,-373 2836,-373 2836,-315 2836,-282.531 2830.29,-272.826 2812,-246 2801.98,-231.301 2786.96,-218.217 2774.11,-208.61"/>
<polygon fill="midnightblue" stroke="midnightblue" points="2775.8,-205.521 2765.64,-202.538 2771.72,-211.21 2775.8,-205.521"/>
</g>
<!-- Node16 -->
<g id="node31" class="node"><title>Node16</title>
<polygon fill="white" stroke="#bfbfbf" points="2385,-116.5 2385,-137.5 2437,-137.5 2437,-116.5 2385,-116.5"/>
<text text-anchor="middle" x="2411" y="-124.5" font-family="Helvetica,sans-Serif" font-size="10.00">memory</text>
</g>
<!-- Node2&#45;&gt;Node16 -->
<g id="edge334" class="edge"><title>Node2&#45;&gt;Node16</title>
<path fill="none" stroke="midnightblue" d="M2602.51,-478.329C2583.43,-470.995 2561.16,-459.382 2547,-442 2526.91,-417.339 2528,-404.808 2528,-373 2528,-373 2528,-373 2528,-315 2528,-256.6 2478.88,-260.175 2449,-210 2436.78,-189.478 2425.77,-164.351 2418.79,-147.155"/>
<polygon fill="midnightblue" stroke="midnightblue" points="2421.94,-145.585 2414.99,-137.584 2415.43,-148.17 2421.94,-145.585"/>
</g>
<!-- Node17 -->
<g id="node33" class="node"><title>Node17</title>
<polygon fill="white" stroke="#bfbfbf" points="2691.5,-116.5 2691.5,-137.5 2720.5,-137.5 2720.5,-116.5 2691.5,-116.5"/>
<text text-anchor="middle" x="2706" y="-124.5" font-family="Helvetica,sans-Serif" font-size="10.00">list</text>
</g>
<!-- Node2&#45;&gt;Node17 -->
<g id="edge328" class="edge"><title>Node2&#45;&gt;Node17</title>
<path fill="none" stroke="midnightblue" d="M2706.77,-478.493C2754.72,-469.99 2813.9,-456.993 2834,-442 2862.41,-420.804 2874,-408.447 2874,-373 2874,-373 2874,-373 2874,-257 2874,-216.051 2864.33,-201.515 2834,-174 2804.75,-147.46 2759.25,-135.55 2731.11,-130.474"/>
<polygon fill="midnightblue" stroke="midnightblue" points="2731.34,-126.964 2720.9,-128.795 2730.2,-133.871 2731.34,-126.964"/>
</g>
<!-- Node18 -->
<g id="node35" class="node"><title>Node18</title>
<a xlink:href="_t_event_8h.html" target="_top" xlink:title="tree/TEvent.h">
<polygon fill="white" stroke="black" points="2940,-181.5 2940,-202.5 3016,-202.5 3016,-181.5 2940,-181.5"/>
<text text-anchor="middle" x="2978" y="-189.5" font-family="Helvetica,sans-Serif" font-size="10.00">tree/TEvent.h</text>
</a>
</g>
<!-- Node2&#45;&gt;Node18 -->
<g id="edge34" class="edge"><title>Node2&#45;&gt;Node18</title>
<path fill="none" stroke="midnightblue" d="M2707.15,-480.378C2769.61,-471.715 2856.94,-457.462 2888,-442 2928.84,-421.67 2964,-418.622 2964,-373 2964,-373 2964,-373 2964,-315 2964,-278.843 2970.05,-237.089 2974.19,-212.709"/>
<polygon fill="midnightblue" stroke="midnightblue" points="2977.65,-213.268 2975.93,-202.812 2970.75,-212.054 2977.65,-213.268"/>
</g>
<!-- Node20 -->
<g id="node42" class="node"><title>Node20</title>
<a xlink:href="_t_event_data_8h.html" target="_top" xlink:title="tree/TEventData.h">
<polygon fill="white" stroke="black" points="1863.5,-420.5 1863.5,-441.5 1960.5,-441.5 1960.5,-420.5 1863.5,-420.5"/>
<text text-anchor="middle" x="1912" y="-428.5" font-family="Helvetica,sans-Serif" font-size="10.00">tree/TEventData.h</text>
</a>
</g>
<!-- Node2&#45;&gt;Node20 -->
<g id="edge44" class="edge"><title>Node2&#45;&gt;Node20</title>
<path fill="none" stroke="midnightblue" d="M2570.93,-483.57C2429.2,-472.262 2104.49,-446.357 1970.99,-435.706"/>
<polygon fill="midnightblue" stroke="midnightblue" points="1971.19,-432.211 1960.95,-434.905 1970.64,-439.189 1971.19,-432.211"/>
</g>
<!-- Node51 -->
<g id="node158" class="node"><title>Node51</title>
<polygon fill="white" stroke="#bfbfbf" points="3051.5,-116.5 3051.5,-137.5 3110.5,-137.5 3110.5,-116.5 3051.5,-116.5"/>
<text text-anchor="middle" x="3081" y="-124.5" font-family="Helvetica,sans-Serif" font-size="10.00">functional</text>
</g>
<!-- Node2&#45;&gt;Node51 -->
<g id="edge336" class="edge"><title>Node2&#45;&gt;Node51</title>
<path fill="none" stroke="midnightblue" d="M2707.29,-483.471C2869.8,-469.4 3266,-429.319 3266,-373 3266,-373 3266,-373 3266,-257 3266,-186.416 3174.73,-150.852 3120.41,-135.935"/>
<polygon fill="midnightblue" stroke="midnightblue" points="3121.28,-132.547 3110.72,-133.386 3119.5,-139.316 3121.28,-132.547"/>
</g>
<!-- Node55 -->
<g id="node187" class="node"><title>Node55</title>
<polygon fill="white" stroke="#bfbfbf" points="3165.5,-116.5 3165.5,-137.5 3200.5,-137.5 3200.5,-116.5 3165.5,-116.5"/>
<text text-anchor="middle" x="3183" y="-124.5" font-family="Helvetica,sans-Serif" font-size="10.00">map</text>
</g>
<!-- Node2&#45;&gt;Node55 -->
<g id="edge332" class="edge"><title>Node2&#45;&gt;Node55</title>
<path fill="none" stroke="midnightblue" d="M2707.37,-484.672C2822.06,-477.033 3048.26,-460.232 3126,-442 3208.61,-422.626 3304,-457.847 3304,-373 3304,-373 3304,-373 3304,-257 3304,-201.949 3245.14,-160.453 3209.53,-140.382"/>
<polygon fill="midnightblue" stroke="midnightblue" points="3211.05,-137.226 3200.59,-135.52 3207.7,-143.375 3211.05,-137.226"/>
</g>
<!-- Node60 -->
<g id="node207" class="node"><title>Node60</title>
<a xlink:href="_options_list_8h.html" target="_top" xlink:title="base/OptionsList.h">
<polygon fill="white" stroke="black" points="2458,-181.5 2458,-202.5 2556,-202.5 2556,-181.5 2458,-181.5"/>
<text text-anchor="middle" x="2507" y="-189.5" font-family="Helvetica,sans-Serif" font-size="10.00">base/OptionsList.h</text>
</a>
</g>
<!-- Node2&#45;&gt;Node60 -->
<g id="edge294" class="edge"><title>Node2&#45;&gt;Node60</title>
<path fill="none" stroke="midnightblue" d="M2685.41,-478.412C2720.9,-469.428 2765.92,-455.827 2779,-442 2800.86,-418.896 2798,-404.808 2798,-373 2798,-373 2798,-373 2798,-315 2798,-288.47 2631.79,-231.786 2550.6,-205.68"/>
<polygon fill="midnightblue" stroke="midnightblue" points="2551.26,-202.216 2540.67,-202.503 2549.12,-208.883 2551.26,-202.216"/>
</g>
<!-- Node62 -->
<g id="node215" class="node"><title>Node62</title>
<a xlink:href="root__draw_8h.html" target="_top" xlink:title="analysis/plot/root\l_draw.h">
<polygon fill="white" stroke="black" points="3071.5,-175 3071.5,-209 3162.5,-209 3162.5,-175 3071.5,-175"/>
<text text-anchor="start" x="3079.5" y="-196" font-family="Helvetica,sans-Serif" font-size="10.00">analysis/plot/root</text>
<text text-anchor="middle" x="3117" y="-183" font-family="Helvetica,sans-Serif" font-size="10.00">_draw.h</text>
</a>
</g>
<!-- Node2&#45;&gt;Node62 -->
<g id="edge306" class="edge"><title>Node2&#45;&gt;Node62</title>
<path fill="none" stroke="midnightblue" d="M2707.42,-484.255C2826.43,-474.106 3059,-445.053 3059,-373 3059,-373 3059,-373 3059,-315 3059,-278.413 3080.25,-241.049 3097.03,-217.256"/>
<polygon fill="midnightblue" stroke="midnightblue" points="3099.89,-219.271 3102.96,-209.13 3094.24,-215.145 3099.89,-219.271"/>
</g>
<!-- Node63 -->
<g id="node224" class="node"><title>Node63</title>
<polygon fill="white" stroke="#bfbfbf" points="768.5,-246.5 768.5,-267.5 819.5,-267.5 819.5,-246.5 768.5,-246.5"/>
<text text-anchor="middle" x="794" y="-254.5" font-family="Helvetica,sans-Serif" font-size="10.00">TH1D.h</text>
</g>
<!-- Node2&#45;&gt;Node63 -->
<g id="edge322" class="edge"><title>Node2&#45;&gt;Node63</title>
<path fill="none" stroke="midnightblue" d="M2570.79,-488.182C2220.22,-483.652 634.928,-459.055 565,-384 502.643,-317.071 679.786,-276.894 758.459,-262.764"/>
<polygon fill="midnightblue" stroke="midnightblue" points="759.184,-266.19 768.43,-261.018 757.976,-259.295 759.184,-266.19"/>
</g>
<!-- Node64 -->
<g id="node226" class="node"><title>Node64</title>
<polygon fill="white" stroke="#bfbfbf" points="191.5,-246.5 191.5,-267.5 242.5,-267.5 242.5,-246.5 191.5,-246.5"/>
<text text-anchor="middle" x="217" y="-254.5" font-family="Helvetica,sans-Serif" font-size="10.00">TH2D.h</text>
</g>
<!-- Node2&#45;&gt;Node64 -->
<g id="edge324" class="edge"><title>Node2&#45;&gt;Node64</title>
<path fill="none" stroke="midnightblue" d="M2570.87,-488.39C2253.18,-485.399 925.094,-471.238 742,-442 546.156,-410.726 326.921,-310.704 247.656,-272.257"/>
<polygon fill="midnightblue" stroke="midnightblue" points="248.788,-268.914 238.266,-267.671 245.716,-275.204 248.788,-268.914"/>
</g>
<!-- Node65 -->
<g id="node228" class="node"><title>Node65</title>
<polygon fill="white" stroke="#bfbfbf" points="2555.5,-420.5 2555.5,-441.5 2606.5,-441.5 2606.5,-420.5 2555.5,-420.5"/>
<text text-anchor="middle" x="2581" y="-428.5" font-family="Helvetica,sans-Serif" font-size="10.00">TH3D.h</text>
</g>
<!-- Node2&#45;&gt;Node65 -->
<g id="edge326" class="edge"><title>Node2&#45;&gt;Node65</title>
<path fill="none" stroke="midnightblue" d="M2628.36,-478.362C2620.1,-470.104 2608.47,-458.472 2598.8,-448.803"/>
<polygon fill="midnightblue" stroke="midnightblue" points="2601.12,-446.167 2591.57,-441.571 2596.17,-451.117 2601.12,-446.167"/>
</g>
<!-- Node5 -->
<g id="node9" class="node"><title>Node5</title>
<a xlink:href="interval_8h.html" target="_top" xlink:title="base/interval.h">
<polygon fill="white" stroke="black" points="1042,-181.5 1042,-202.5 1122,-202.5 1122,-181.5 1042,-181.5"/>
<text text-anchor="middle" x="1082" y="-189.5" font-family="Helvetica,sans-Serif" font-size="10.00">base/interval.h</text>
</a>
</g>
<!-- Node4&#45;&gt;Node5 -->
<g id="edge8" class="edge"><title>Node4&#45;&gt;Node5</title>
<path fill="none" stroke="midnightblue" d="M1268.87,-246.444C1231.26,-237.682 1177.37,-224.366 1131,-210 1126.96,-208.748 1122.76,-207.354 1118.6,-205.911"/>
<polygon fill="midnightblue" stroke="midnightblue" points="1119.64,-202.566 1109.04,-202.501 1117.29,-209.159 1119.64,-202.566"/>
</g>
<!-- Node4&#45;&gt;Node14 -->
<g id="edge26" class="edge"><title>Node4&#45;&gt;Node14</title>
<path fill="none" stroke="midnightblue" d="M1321.1,-246.271C1329.94,-228.774 1349.69,-194.04 1376,-174 1383.9,-167.98 1436.99,-149.19 1471.69,-137.271"/>
<polygon fill="midnightblue" stroke="midnightblue" points="1473.04,-140.509 1481.37,-133.961 1470.77,-133.886 1473.04,-140.509"/>
</g>
<!-- Node6 -->
<g id="node11" class="node"><title>Node6</title>
<a xlink:href="printable_8h.html" target="_top" xlink:title="printable.h">
<polygon fill="white" stroke="black" points="2043,-58.5 2043,-79.5 2105,-79.5 2105,-58.5 2043,-58.5"/>
<text text-anchor="middle" x="2074" y="-66.5" font-family="Helvetica,sans-Serif" font-size="10.00">printable.h</text>
</a>
</g>
<!-- Node5&#45;&gt;Node6 -->
<g id="edge10" class="edge"><title>Node5&#45;&gt;Node6</title>
<path fill="none" stroke="midnightblue" d="M1109.32,-181.463C1116.34,-178.893 1123.91,-176.241 1131,-174 1190.21,-155.274 1206.95,-157.208 1266,-138 1291.82,-129.601 1296.47,-121.805 1323,-116 1460.13,-85.994 1896.25,-73.2451 2032.75,-69.925"/>
<polygon fill="midnightblue" stroke="midnightblue" points="2032.88,-73.4229 2042.8,-69.6846 2032.72,-66.4249 2032.88,-73.4229"/>
</g>
<!-- Node9 -->
<g id="node17" class="node"><title>Node9</title>
<a xlink:href="types_8h.html" target="_top" xlink:title="types.h">
<polygon fill="white" stroke="black" points="1821.5,-116.5 1821.5,-137.5 1870.5,-137.5 1870.5,-116.5 1821.5,-116.5"/>
<text text-anchor="middle" x="1846" y="-124.5" font-family="Helvetica,sans-Serif" font-size="10.00">types.h</text>
</a>
</g>
<!-- Node5&#45;&gt;Node9 -->
<g id="edge16" class="edge"><title>Node5&#45;&gt;Node9</title>
<path fill="none" stroke="midnightblue" d="M1106.26,-181.477C1114.02,-178.549 1122.75,-175.707 1131,-174 1411.73,-115.94 1489.9,-167.981 1775,-138 1786.87,-136.752 1799.79,-134.899 1811.31,-133.069"/>
<polygon fill="midnightblue" stroke="midnightblue" points="1812.13,-136.482 1821.43,-131.412 1811,-129.574 1812.13,-136.482"/>
</g>
<!-- Node10 -->
<g id="node19" class="node"><title>Node10</title>
<polygon fill="white" stroke="#bfbfbf" points="1332,-116.5 1332,-137.5 1388,-137.5 1388,-116.5 1332,-116.5"/>
<text text-anchor="middle" x="1360" y="-124.5" font-family="Helvetica,sans-Serif" font-size="10.00">algorithm</text>
</g>
<!-- Node5&#45;&gt;Node10 -->
<g id="edge18" class="edge"><title>Node5&#45;&gt;Node10</title>
<path fill="none" stroke="midnightblue" d="M1108.19,-181.491C1115.5,-178.804 1123.49,-176.087 1131,-174 1212.55,-151.334 1235.46,-156.732 1318,-138 1319.24,-137.718 1320.5,-137.426 1321.77,-137.126"/>
<polygon fill="midnightblue" stroke="midnightblue" points="1322.72,-140.497 1331.6,-134.71 1321.05,-133.699 1322.72,-140.497"/>
</g>
<!-- Node11 -->
<g id="node21" class="node"><title>Node11</title>
<polygon fill="white" stroke="#bfbfbf" points="1113.5,-116.5 1113.5,-137.5 1172.5,-137.5 1172.5,-116.5 1113.5,-116.5"/>
<text text-anchor="middle" x="1143" y="-124.5" font-family="Helvetica,sans-Serif" font-size="10.00">stdexcept</text>
</g>
<!-- Node5&#45;&gt;Node11 -->
<g id="edge20" class="edge"><title>Node5&#45;&gt;Node11</title>
<path fill="none" stroke="midnightblue" d="M1092.07,-181.267C1101.31,-171.423 1115.18,-156.648 1126.11,-145"/>
<polygon fill="midnightblue" stroke="midnightblue" points="1128.82,-147.221 1133.11,-137.534 1123.72,-142.43 1128.82,-147.221"/>
</g>
<!-- Node12 -->
<g id="node23" class="node"><title>Node12</title>
<polygon fill="white" stroke="#bfbfbf" points="865,-58.5 865,-79.5 905,-79.5 905,-58.5 865,-58.5"/>
<text text-anchor="middle" x="885" y="-66.5" font-family="Helvetica,sans-Serif" font-size="10.00">limits</text>
</g>
<!-- Node5&#45;&gt;Node12 -->
<g id="edge22" class="edge"><title>Node5&#45;&gt;Node12</title>
<path fill="none" stroke="midnightblue" d="M1109.9,-181.472C1116.77,-178.955 1124.13,-176.325 1131,-174 1185.6,-155.514 1285.04,-159.303 1247,-116 1225.16,-91.142 998.031,-75.5623 915.099,-70.6663"/>
<polygon fill="midnightblue" stroke="midnightblue" points="915.24,-67.1687 905.054,-70.0841 914.835,-74.1569 915.24,-67.1687"/>
</g>
<!-- Node13 -->
<g id="node25" class="node"><title>Node13</title>
<polygon fill="white" stroke="#bfbfbf" points="1189.5,-116.5 1189.5,-137.5 1238.5,-137.5 1238.5,-116.5 1189.5,-116.5"/>
<text text-anchor="middle" x="1214" y="-124.5" font-family="Helvetica,sans-Serif" font-size="10.00">istream</text>
</g>
<!-- Node5&#45;&gt;Node13 -->
<g id="edge24" class="edge"><title>Node5&#45;&gt;Node13</title>
<path fill="none" stroke="midnightblue" d="M1103.5,-181.412C1125.17,-170.741 1158.82,-154.172 1183.3,-142.12"/>
<polygon fill="midnightblue" stroke="midnightblue" points="1185.08,-145.141 1192.51,-137.584 1181.99,-138.861 1185.08,-145.141"/>
</g>
<!-- Node6&#45;&gt;Node7 -->
<g id="edge12" class="edge"><title>Node6&#45;&gt;Node7</title>
<path fill="none" stroke="midnightblue" d="M2042.96,-66.6878C2010.36,-64.3077 1957.59,-60.5909 1912,-58 1520.25,-35.7382 1043.96,-17.0505 917.23,-12.2156"/>
<polygon fill="midnightblue" stroke="midnightblue" points="917.177,-8.71118 907.051,-11.8285 916.91,-15.7061 917.177,-8.71118"/>
</g>
<!-- Node8 -->
<g id="node15" class="node"><title>Node8</title>
<polygon fill="white" stroke="#bfbfbf" points="2625,-0.5 2625,-21.5 2677,-21.5 2677,-0.5 2625,-0.5"/>
<text text-anchor="middle" x="2651" y="-8.5" font-family="Helvetica,sans-Serif" font-size="10.00">ostream</text>
</g>
<!-- Node6&#45;&gt;Node8 -->
<g id="edge14" class="edge"><title>Node6&#45;&gt;Node8</title>
<path fill="none" stroke="midnightblue" d="M2105.02,-65.8817C2203.58,-55.9747 2509.26,-25.2479 2614.76,-14.643"/>
<polygon fill="midnightblue" stroke="midnightblue" points="2615.3,-18.1059 2624.9,-13.6232 2614.6,-11.141 2615.3,-18.1059"/>
</g>
<!-- Node15&#45;&gt;Node16 -->
<g id="edge30" class="edge"><title>Node15&#45;&gt;Node16</title>
<path fill="none" stroke="midnightblue" d="M2694.32,-181.484C2624.7,-168.096 2506.35,-145.336 2447.08,-133.938"/>
<polygon fill="midnightblue" stroke="midnightblue" points="2447.54,-130.463 2437.06,-132.012 2446.22,-137.337 2447.54,-130.463"/>
</g>
<!-- Node15&#45;&gt;Node17 -->
<g id="edge32" class="edge"><title>Node15&#45;&gt;Node17</title>
<path fill="none" stroke="midnightblue" d="M2741.9,-181.267C2735.58,-171.707 2726.17,-157.496 2718.58,-146.015"/>
<polygon fill="midnightblue" stroke="midnightblue" points="2721.4,-143.943 2712.97,-137.534 2715.57,-147.805 2721.4,-143.943"/>
</g>
<!-- Node18&#45;&gt;Node6 -->
<g id="edge38" class="edge"><title>Node18&#45;&gt;Node6</title>
<path fill="none" stroke="midnightblue" d="M2974.27,-181.334C2967.62,-164.1 2951.91,-130.593 2926,-116 2855.02,-76.0261 2277.09,-70.0468 2115.71,-69.1555"/>
<polygon fill="midnightblue" stroke="midnightblue" points="2115.28,-65.6533 2105.26,-69.1018 2115.24,-72.6532 2115.28,-65.6533"/>
</g>
<!-- Node18&#45;&gt;Node11 -->
<g id="edge42" class="edge"><title>Node18&#45;&gt;Node11</title>
<path fill="none" stroke="midnightblue" d="M2939.7,-186.743C2907.13,-182.507 2859.09,-176.811 2817,-174 2457.44,-149.993 1556.92,-192.245 1182.81,-137.901"/>
<polygon fill="midnightblue" stroke="midnightblue" points="1183.11,-134.408 1172.71,-136.391 1182.08,-141.331 1183.11,-134.408"/>
</g>
<!-- Node18&#45;&gt;Node16 -->
<g id="edge40" class="edge"><title>Node18&#45;&gt;Node16</title>
<path fill="none" stroke="midnightblue" d="M2939.94,-187.702C2907.32,-184.029 2859.08,-178.62 2817,-174 2668.59,-157.705 2631.05,-157.279 2483,-138 2471.38,-136.487 2458.75,-134.629 2447.35,-132.873"/>
<polygon fill="midnightblue" stroke="midnightblue" points="2447.71,-129.388 2437.29,-131.302 2446.63,-136.304 2447.71,-129.388"/>
</g>
<!-- Node19 -->
<g id="node37" class="node"><title>Node19</title>
<polygon fill="white" stroke="#bfbfbf" points="2978,-116.5 2978,-137.5 3034,-137.5 3034,-116.5 2978,-116.5"/>
<text text-anchor="middle" x="3006" y="-124.5" font-family="Helvetica,sans-Serif" font-size="10.00">Rtypes.h</text>
</g>
<!-- Node18&#45;&gt;Node19 -->
<g id="edge36" class="edge"><title>Node18&#45;&gt;Node19</title>
<path fill="none" stroke="midnightblue" d="M2982.62,-181.267C2986.62,-171.991 2992.5,-158.336 2997.37,-147.045"/>
<polygon fill="midnightblue" stroke="midnightblue" points="3000.72,-148.103 3001.46,-137.534 2994.29,-145.333 3000.72,-148.103"/>
</g>
<!-- Node20&#45;&gt;Node6 -->
<g id="edge46" class="edge"><title>Node20&#45;&gt;Node6</title>
<path fill="none" stroke="midnightblue" d="M1960.63,-427.443C2135.83,-413.485 2729.9,-355.878 2834,-210 2886.71,-136.14 2750.61,-122.407 2729,-116 2613.23,-81.6855 2240.59,-71.9785 2115.44,-69.6502"/>
<polygon fill="midnightblue" stroke="midnightblue" points="2115.2,-66.1454 2105.14,-69.465 2115.07,-73.1443 2115.2,-66.1454"/>
</g>
<!-- Node21 -->
<g id="node45" class="node"><title>Node21</title>
<a xlink:href="_t_i_d_8h.html" target="_top" xlink:title="TID.h">
<polygon fill="white" stroke="black" points="2018.5,-304.5 2018.5,-325.5 2059.5,-325.5 2059.5,-304.5 2018.5,-304.5"/>
<text text-anchor="middle" x="2039" y="-312.5" font-family="Helvetica,sans-Serif" font-size="10.00">TID.h</text>
</a>
</g>
<!-- Node20&#45;&gt;Node21 -->
<g id="edge48" class="edge"><title>Node20&#45;&gt;Node21</title>
<path fill="none" stroke="midnightblue" d="M1923.72,-420.295C1945.65,-400.268 1993.06,-356.964 2019.74,-332.589"/>
<polygon fill="midnightblue" stroke="midnightblue" points="2022.28,-335.008 2027.31,-325.679 2017.56,-329.839 2022.28,-335.008"/>
</g>
<!-- Node31 -->
<g id="node73" class="node"><title>Node31</title>
<a xlink:href="_t_detector_read_hit_8h.html" target="_top" xlink:title="TDetectorReadHit.h">
<polygon fill="white" stroke="black" points="479,-246.5 479,-267.5 583,-267.5 583,-246.5 479,-246.5"/>
<text text-anchor="middle" x="531" y="-254.5" font-family="Helvetica,sans-Serif" font-size="10.00">TDetectorReadHit.h</text>
</a>
</g>
<!-- Node20&#45;&gt;Node31 -->
<g id="edge84" class="edge"><title>Node20&#45;&gt;Node31</title>
<path fill="none" stroke="midnightblue" d="M1863.36,-430.912C1628.04,-430.281 616.758,-425.178 565,-384 533.147,-358.658 529.173,-306.997 529.694,-277.98"/>
<polygon fill="midnightblue" stroke="midnightblue" points="533.201,-277.863 530.084,-267.737 526.206,-277.596 533.201,-277.863"/>
</g>
<!-- Node36 -->
<g id="node93" class="node"><title>Node36</title>
<a xlink:href="_t_slow_control_8h.html" target="_top" xlink:title="TSlowControl.h">
<polygon fill="white" stroke="black" points="2021,-362.5 2021,-383.5 2105,-383.5 2105,-362.5 2021,-362.5"/>
<text text-anchor="middle" x="2063" y="-370.5" font-family="Helvetica,sans-Serif" font-size="10.00">TSlowControl.h</text>
</a>
</g>
<!-- Node20&#45;&gt;Node36 -->
<g id="edge114" class="edge"><title>Node20&#45;&gt;Node36</title>
<path fill="none" stroke="midnightblue" d="M1939.34,-420.497C1963.64,-411.164 1999.36,-397.445 2026.17,-387.147"/>
<polygon fill="midnightblue" stroke="midnightblue" points="2027.52,-390.376 2035.6,-383.523 2025.01,-383.842 2027.52,-390.376"/>
</g>
<!-- Node37 -->
<g id="node100" class="node"><title>Node37</title>
<a xlink:href="_t_unpacker_message_8h.html" target="_top" xlink:title="TUnpackerMessage.h">
<polygon fill="white" stroke="black" points="1475.5,-246.5 1475.5,-267.5 1588.5,-267.5 1588.5,-246.5 1475.5,-246.5"/>
<text text-anchor="middle" x="1532" y="-254.5" font-family="Helvetica,sans-Serif" font-size="10.00">TUnpackerMessage.h</text>
</a>
</g>
<!-- Node20&#45;&gt;Node37 -->
<g id="edge126" class="edge"><title>Node20&#45;&gt;Node37</title>
<path fill="none" stroke="midnightblue" d="M1888.01,-420.423C1845.55,-401.66 1754.44,-361.208 1678,-326 1638.42,-307.77 1593.08,-286.241 1563.57,-272.139"/>
<polygon fill="midnightblue" stroke="midnightblue" points="1564.73,-268.815 1554.2,-267.657 1561.71,-275.13 1564.73,-268.815"/>
</g>
<!-- Node44 -->
<g id="node122" class="node"><title>Node44</title>
<a xlink:href="_t_tagger_hit_8h.html" target="_top" xlink:title="TTaggerHit.h">
<polygon fill="white" stroke="black" points="574,-362.5 574,-383.5 648,-383.5 648,-362.5 574,-362.5"/>
<text text-anchor="middle" x="611" y="-370.5" font-family="Helvetica,sans-Serif" font-size="10.00">TTaggerHit.h</text>
</a>
</g>
<!-- Node20&#45;&gt;Node44 -->
<g id="edge156" class="edge"><title>Node20&#45;&gt;Node44</title>
<path fill="none" stroke="midnightblue" d="M1863.37,-428.832C1657.75,-419.665 860.92,-384.142 658.151,-375.102"/>
<polygon fill="midnightblue" stroke="midnightblue" points="658.265,-371.604 648.119,-374.655 657.954,-378.597 658.265,-371.604"/>
</g>
<!-- Node46 -->
<g id="node132" class="node"><title>Node46</title>
<a xlink:href="_t_trigger_8h.html" target="_top" xlink:title="TTrigger.h">
<polygon fill="white" stroke="black" points="2573.5,-181.5 2573.5,-202.5 2634.5,-202.5 2634.5,-181.5 2573.5,-181.5"/>
<text text-anchor="middle" x="2604" y="-189.5" font-family="Helvetica,sans-Serif" font-size="10.00">TTrigger.h</text>
</a>
</g>
<!-- Node20&#45;&gt;Node46 -->
<g id="edge172" class="edge"><title>Node20&#45;&gt;Node46</title>
<path fill="none" stroke="midnightblue" d="M1960.71,-429.032C2031.19,-425.215 2165.2,-414.307 2275,-384 2399.72,-349.576 2438.86,-346.112 2542,-268 2562.85,-252.213 2580.99,-228.019 2592.18,-211.185"/>
<polygon fill="midnightblue" stroke="midnightblue" points="2595.18,-212.992 2597.65,-202.69 2589.29,-209.202 2595.18,-212.992"/>
</g>
<!-- Node47 -->
<g id="node139" class="node"><title>Node47</title>
<a xlink:href="_t_target_8h.html" target="_top" xlink:title="TTarget.h">
<polygon fill="white" stroke="black" points="2267.5,-181.5 2267.5,-202.5 2326.5,-202.5 2326.5,-181.5 2267.5,-181.5"/>
<text text-anchor="middle" x="2297" y="-189.5" font-family="Helvetica,sans-Serif" font-size="10.00">TTarget.h</text>
</a>
</g>
<!-- Node20&#45;&gt;Node47 -->
<g id="edge184" class="edge"><title>Node20&#45;&gt;Node47</title>
<path fill="none" stroke="midnightblue" d="M1960.55,-426.841C2064.63,-416.811 2303.73,-387.448 2352,-326 2373.96,-298.04 2365.76,-278.786 2352,-246 2345.75,-231.106 2333.17,-218.252 2321.61,-208.826"/>
<polygon fill="midnightblue" stroke="midnightblue" points="2323.55,-205.9 2313.49,-202.588 2319.29,-211.453 2323.55,-205.9"/>
</g>
<!-- Node49 -->
<g id="node150" class="node"><title>Node49</title>
<a xlink:href="_t_cluster_8h.html" target="_top" xlink:title="TCluster.h">
<polygon fill="white" stroke="black" points="361,-246.5 361,-267.5 423,-267.5 423,-246.5 361,-246.5"/>
<text text-anchor="middle" x="392" y="-254.5" font-family="Helvetica,sans-Serif" font-size="10.00">TCluster.h</text>
</a>
</g>
<!-- Node20&#45;&gt;Node49 -->
<g id="edge202" class="edge"><title>Node20&#45;&gt;Node49</title>
<path fill="none" stroke="midnightblue" d="M1863.41,-430.216C1627.11,-426.289 606.776,-408.001 544,-384 484.654,-361.31 431.796,-305.219 406.974,-275.759"/>
<polygon fill="midnightblue" stroke="midnightblue" points="409.528,-273.355 400.463,-267.871 404.129,-277.811 409.528,-273.355"/>
</g>
<!-- Node52 -->
<g id="node167" class="node"><title>Node52</title>
<a xlink:href="_t_candidate_8h.html" target="_top" xlink:title="TCandidate.h">
<polygon fill="white" stroke="black" points="772.5,-304.5 772.5,-325.5 847.5,-325.5 847.5,-304.5 772.5,-304.5"/>
<text text-anchor="middle" x="810" y="-312.5" font-family="Helvetica,sans-Serif" font-size="10.00">TCandidate.h</text>
</a>
</g>
<!-- Node20&#45;&gt;Node52 -->
<g id="edge230" class="edge"><title>Node20&#45;&gt;Node52</title>
<path fill="none" stroke="midnightblue" d="M1863.23,-425.866C1680.58,-406.64 1038.28,-339.03 857.606,-320.011"/>
<polygon fill="midnightblue" stroke="midnightblue" points="857.924,-316.525 847.612,-318.959 857.191,-323.487 857.924,-316.525"/>
</g>
<!-- Node53 -->
<g id="node176" class="node"><title>Node53</title>
<a xlink:href="_t_particle_8h.html" target="_top" xlink:title="TParticle.h">
<polygon fill="white" stroke="black" points="1819,-362.5 1819,-383.5 1883,-383.5 1883,-362.5 1819,-362.5"/>
<text text-anchor="middle" x="1851" y="-370.5" font-family="Helvetica,sans-Serif" font-size="10.00">TParticle.h</text>
</a>
</g>
<!-- Node20&#45;&gt;Node53 -->
<g id="edge246" class="edge"><title>Node20&#45;&gt;Node53</title>
<path fill="none" stroke="midnightblue" d="M1900.81,-420.362C1892.04,-412.023 1879.65,-400.242 1869.42,-390.516"/>
<polygon fill="midnightblue" stroke="midnightblue" points="1871.78,-387.925 1862.12,-383.571 1866.95,-392.998 1871.78,-387.925"/>
</g>
<!-- Node21&#45;&gt;Node6 -->
<g id="edge52" class="edge"><title>Node21&#45;&gt;Node6</title>
<path fill="none" stroke="midnightblue" d="M2043.01,-304.436C2053.07,-277.308 2079.2,-202.769 2088,-138 2089.32,-128.311 2089.41,-125.676 2088,-116 2086.69,-106.996 2084.03,-97.3181 2081.38,-89.0986"/>
<polygon fill="midnightblue" stroke="midnightblue" points="2084.69,-87.9496 2078.13,-79.6276 2078.07,-90.2223 2084.69,-87.9496"/>
</g>
<!-- Node21&#45;&gt;Node11 -->
<g id="edge76" class="edge"><title>Node21&#45;&gt;Node11</title>
<path fill="none" stroke="midnightblue" d="M2018.5,-311.544C1943.1,-298.877 1681.25,-255.245 1597,-246 1534.58,-239.15 1075.96,-255.795 1033,-210 1022.05,-198.332 1024.18,-187.353 1033,-174 1041.32,-161.404 1075.65,-147.958 1103.78,-138.69"/>
<polygon fill="midnightblue" stroke="midnightblue" points="1104.97,-141.985 1113.42,-135.594 1102.83,-135.32 1104.97,-141.985"/>
</g>
<!-- Node21&#45;&gt;Node17 -->
<g id="edge78" class="edge"><title>Node21&#45;&gt;Node17</title>
<path fill="none" stroke="midnightblue" d="M2059.5,-311.869C2162.25,-296.123 2617.22,-225.734 2643,-210 2667.72,-194.911 2686.16,-166.234 2696.51,-146.866"/>
<polygon fill="midnightblue" stroke="midnightblue" points="2699.75,-148.206 2701.17,-137.707 2693.51,-145.03 2699.75,-148.206"/>
</g>
<!-- Node21&#45;&gt;Node19 -->
<g id="edge50" class="edge"><title>Node21&#45;&gt;Node19</title>
<path fill="none" stroke="midnightblue" d="M2059.82,-314.415C2196.17,-310.379 2957.95,-284.566 3025,-210 3040.73,-192.509 3029.56,-164.696 3018.86,-146.15"/>
<polygon fill="midnightblue" stroke="midnightblue" points="3021.84,-144.309 3013.61,-137.637 3015.88,-147.986 3021.84,-144.309"/>
</g>
<!-- Node22 -->
<g id="node49" class="node"><title>Node22</title>
<a xlink:href="time_8h.html" target="_top" xlink:title="base/std_ext/time.h">
<polygon fill="white" stroke="black" points="2150.5,-246.5 2150.5,-267.5 2253.5,-267.5 2253.5,-246.5 2150.5,-246.5"/>
<text text-anchor="middle" x="2202" y="-254.5" font-family="Helvetica,sans-Serif" font-size="10.00">base/std_ext/time.h</text>
</a>
</g>
<!-- Node21&#45;&gt;Node22 -->
<g id="edge54" class="edge"><title>Node21&#45;&gt;Node22</title>
<path fill="none" stroke="midnightblue" d="M2059.64,-307.654C2085.5,-298.455 2130.33,-282.502 2162.79,-270.953"/>
<polygon fill="midnightblue" stroke="midnightblue" points="2164.18,-274.173 2172.43,-267.523 2161.83,-267.578 2164.18,-274.173"/>
</g>
<!-- Node26 -->
<g id="node60" class="node"><title>Node26</title>
<polygon fill="white" stroke="#bfbfbf" points="2107.5,-181.5 2107.5,-202.5 2148.5,-202.5 2148.5,-181.5 2107.5,-181.5"/>
<text text-anchor="middle" x="2128" y="-189.5" font-family="Helvetica,sans-Serif" font-size="10.00">ctime</text>
</g>
<!-- Node21&#45;&gt;Node26 -->
<g id="edge82" class="edge"><title>Node21&#45;&gt;Node26</title>
<path fill="none" stroke="midnightblue" d="M2046.12,-304.097C2055.15,-290.372 2071.32,-266.151 2086,-246 2094.74,-234 2104.96,-220.844 2113.13,-210.522"/>
<polygon fill="midnightblue" stroke="midnightblue" points="2115.94,-212.609 2119.43,-202.606 2110.46,-208.249 2115.94,-212.609"/>
</g>
<!-- Node27 -->
<g id="node62" class="node"><title>Node27</title>
<polygon fill="white" stroke="#bfbfbf" points="104,-116.5 104,-137.5 166,-137.5 166,-116.5 104,-116.5"/>
<text text-anchor="middle" x="135" y="-124.5" font-family="Helvetica,sans-Serif" font-size="10.00">type_traits</text>
</g>
<!-- Node21&#45;&gt;Node27 -->
<g id="edge70" class="edge"><title>Node21&#45;&gt;Node27</title>
<path fill="none" stroke="midnightblue" d="M2018.44,-313.711C1981.26,-311.424 1900.33,-306.646 1832,-304 1667.63,-297.635 509.133,-316.653 352,-268 270.151,-242.657 189.822,-176.822 154.173,-144.89"/>
<polygon fill="midnightblue" stroke="midnightblue" points="156.237,-142.037 146.482,-137.902 151.53,-147.218 156.237,-142.037"/>
</g>
<!-- Node28 -->
<g id="node64" class="node"><title>Node28</title>
<polygon fill="white" stroke="#bfbfbf" points="2095,-246.5 2095,-267.5 2133,-267.5 2133,-246.5 2095,-246.5"/>
<text text-anchor="middle" x="2114" y="-254.5" font-family="Helvetica,sans-Serif" font-size="10.00">tuple</text>
</g>
<!-- Node21&#45;&gt;Node28 -->
<g id="edge72" class="edge"><title>Node21&#45;&gt;Node28</title>
<path fill="none" stroke="midnightblue" d="M2052.76,-304.362C2063.75,-295.859 2079.37,-283.779 2092.09,-273.947"/>
<polygon fill="midnightblue" stroke="midnightblue" points="2094.56,-276.457 2100.33,-267.571 2090.28,-270.919 2094.56,-276.457"/>
</g>
<!-- Node29 -->
<g id="node66" class="node"><title>Node29</title>
<polygon fill="white" stroke="#bfbfbf" points="1654,-116.5 1654,-137.5 1700,-137.5 1700,-116.5 1654,-116.5"/>
<text text-anchor="middle" x="1677" y="-124.5" font-family="Helvetica,sans-Serif" font-size="10.00">cstdint</text>
</g>
<!-- Node21&#45;&gt;Node29 -->
<g id="edge74" class="edge"><title>Node21&#45;&gt;Node29</title>
<path fill="none" stroke="midnightblue" d="M2018.48,-311.581C1960.16,-301.808 1796.98,-274.07 1787,-268 1737.93,-238.161 1702.34,-177.825 1686.37,-146.645"/>
<polygon fill="midnightblue" stroke="midnightblue" points="1689.47,-145.016 1681.88,-137.621 1683.2,-148.134 1689.47,-145.016"/>
</g>
<!-- Node30 -->
<g id="node70" class="node"><title>Node30</title>
<polygon fill="white" stroke="#bfbfbf" points="608,-181.5 608,-202.5 658,-202.5 658,-181.5 608,-181.5"/>
<text text-anchor="middle" x="633" y="-189.5" font-family="Helvetica,sans-Serif" font-size="10.00">iomanip</text>
</g>
<!-- Node21&#45;&gt;Node30 -->
<g id="edge80" class="edge"><title>Node21&#45;&gt;Node30</title>
<path fill="none" stroke="midnightblue" d="M2018.44,-313.851C1981.24,-311.784 1900.3,-307.345 1832,-304 1475.18,-286.521 1383.8,-309.776 1029,-268 894.426,-252.154 736.964,-216.822 668.162,-200.529"/>
<polygon fill="midnightblue" stroke="midnightblue" points="668.821,-197.089 658.282,-198.176 667.199,-203.898 668.821,-197.089"/>
</g>
<!-- Node23 -->
<g id="node51" class="node"><title>Node23</title>
<a xlink:href="string_8h.html" target="_top" xlink:title="base/std_ext/string.h">
<polygon fill="white" stroke="black" points="1140,-181.5 1140,-202.5 1248,-202.5 1248,-181.5 1140,-181.5"/>
<text text-anchor="middle" x="1194" y="-189.5" font-family="Helvetica,sans-Serif" font-size="10.00">base/std_ext/string.h</text>
</a>
</g>
<!-- Node22&#45;&gt;Node23 -->
<g id="edge56" class="edge"><title>Node22&#45;&gt;Node23</title>
<path fill="none" stroke="midnightblue" d="M2150.35,-247.093C2147.53,-246.689 2144.73,-246.32 2142,-246 1834.79,-210.037 1755.72,-228.976 1447,-210 1382.85,-206.057 1309.62,-200.76 1258.51,-196.934"/>
<polygon fill="midnightblue" stroke="midnightblue" points="1258.5,-193.424 1248.27,-196.165 1257.98,-200.404 1258.5,-193.424"/>
</g>
<!-- Node25 -->
<g id="node58" class="node"><title>Node25</title>
<polygon fill="white" stroke="#bfbfbf" points="2166,-181.5 2166,-202.5 2212,-202.5 2212,-181.5 2166,-181.5"/>
<text text-anchor="middle" x="2189" y="-189.5" font-family="Helvetica,sans-Serif" font-size="10.00">cstring</text>
</g>
<!-- Node22&#45;&gt;Node25 -->
<g id="edge66" class="edge"><title>Node22&#45;&gt;Node25</title>
<path fill="none" stroke="midnightblue" d="M2199.85,-246.267C2198.02,-237.085 2195.32,-223.615 2193.08,-212.392"/>
<polygon fill="midnightblue" stroke="midnightblue" points="2196.5,-211.653 2191.11,-202.534 2189.64,-213.026 2196.5,-211.653"/>
</g>
<!-- Node22&#45;&gt;Node26 -->
<g id="edge68" class="edge"><title>Node22&#45;&gt;Node26</title>
<path fill="none" stroke="midnightblue" d="M2189.78,-246.267C2178.36,-236.233 2161.1,-221.078 2147.73,-209.331"/>
<polygon fill="midnightblue" stroke="midnightblue" points="2149.82,-206.504 2139.99,-202.534 2145.2,-211.763 2149.82,-206.504"/>
</g>
<!-- Node23&#45;&gt;Node7 -->
<g id="edge64" class="edge"><title>Node23&#45;&gt;Node7</title>
<path fill="none" stroke="midnightblue" d="M1234.07,-181.382C1293.18,-165.712 1396.84,-138.207 1397,-138 1402.96,-130.248 1403.18,-123.577 1397,-116 1335.72,-40.8756 1020,-18.0074 917.315,-12.5003"/>
<polygon fill="midnightblue" stroke="midnightblue" points="917.401,-9.00012 907.234,-11.9793 917.04,-15.9908 917.401,-9.00012"/>
</g>
<!-- Node23&#45;&gt;Node10 -->
<g id="edge62" class="edge"><title>Node23&#45;&gt;Node10</title>
<path fill="none" stroke="midnightblue" d="M1221.04,-181.412C1248.89,-170.505 1292.49,-153.436 1323.41,-141.327"/>
<polygon fill="midnightblue" stroke="midnightblue" points="1324.94,-144.489 1332.97,-137.584 1322.38,-137.971 1324.94,-144.489"/>
</g>
<!-- Node23&#45;&gt;Node14 -->
<g id="edge58" class="edge"><title>Node23&#45;&gt;Node14</title>
<path fill="none" stroke="midnightblue" d="M1243.83,-181.484C1308.15,-167.909 1418.12,-144.701 1471.35,-133.468"/>
<polygon fill="midnightblue" stroke="midnightblue" points="1472.15,-136.877 1481.21,-131.388 1470.7,-130.028 1472.15,-136.877"/>
</g>
<!-- Node24 -->
<g id="node54" class="node"><title>Node24</title>
<polygon fill="white" stroke="#bfbfbf" points="366,-116.5 366,-137.5 418,-137.5 418,-116.5 366,-116.5"/>
<text text-anchor="middle" x="392" y="-124.5" font-family="Helvetica,sans-Serif" font-size="10.00">sstream</text>
</g>
<!-- Node23&#45;&gt;Node24 -->
<g id="edge60" class="edge"><title>Node23&#45;&gt;Node24</title>
<path fill="none" stroke="midnightblue" d="M1162.26,-181.478C1152.35,-178.588 1141.31,-175.767 1131,-174 872.06,-129.652 803.115,-155.671 541,-138 502.455,-135.401 458.326,-132.103 428.158,-129.799"/>
<polygon fill="midnightblue" stroke="midnightblue" points="428.339,-126.303 418.101,-129.028 427.804,-133.282 428.339,-126.303"/>
</g>
<!-- Node31&#45;&gt;Node24 -->
<g id="edge112" class="edge"><title>Node31&#45;&gt;Node24</title>
<path fill="none" stroke="midnightblue" d="M540.832,-246.324C555.096,-229.505 578.057,-196.448 561,-174 560.741,-173.66 477.642,-150.658 428.082,-136.963"/>
<polygon fill="midnightblue" stroke="midnightblue" points="428.925,-133.565 418.354,-134.276 427.061,-140.312 428.925,-133.565"/>
</g>
<!-- Node31&#45;&gt;Node30 -->
<g id="edge110" class="edge"><title>Node31&#45;&gt;Node30</title>
<path fill="none" stroke="midnightblue" d="M547.843,-246.267C564.182,-235.855 589.176,-219.927 607.867,-208.016"/>
<polygon fill="midnightblue" stroke="midnightblue" points="609.918,-210.859 616.47,-202.534 606.156,-204.956 609.918,-210.859"/>
</g>
<!-- Node32 -->
<g id="node75" class="node"><title>Node32</title>
<a xlink:href="_detector__t_8h.html" target="_top" xlink:title="base/Detector_t.h">
<polygon fill="white" stroke="black" points="457.5,-181.5 457.5,-202.5 552.5,-202.5 552.5,-181.5 457.5,-181.5"/>
<text text-anchor="middle" x="505" y="-189.5" font-family="Helvetica,sans-Serif" font-size="10.00">base/Detector_t.h</text>
</a>
</g>
<!-- Node31&#45;&gt;Node32 -->
<g id="edge86" class="edge"><title>Node31&#45;&gt;Node32</title>
<path fill="none" stroke="midnightblue" d="M526.707,-246.267C522.996,-236.991 517.535,-223.336 513.018,-212.045"/>
<polygon fill="midnightblue" stroke="midnightblue" points="516.177,-210.519 509.213,-202.534 509.678,-213.118 516.177,-210.519"/>
</g>
<!-- Node32&#45;&gt;Node6 -->
<g id="edge88" class="edge"><title>Node32&#45;&gt;Node6</title>
<path fill="none" stroke="midnightblue" d="M534.103,-181.487C583.62,-164.157 687.771,-130.108 779,-116 1029.12,-77.3218 1839.91,-70.3263 2032.62,-69.1992"/>
<polygon fill="midnightblue" stroke="midnightblue" points="2032.9,-72.6978 2042.88,-69.1414 2032.86,-65.6979 2032.9,-72.6978"/>
</g>
<!-- Node32&#45;&gt;Node7 -->
<g id="edge108" class="edge"><title>Node32&#45;&gt;Node7</title>
<path fill="none" stroke="midnightblue" d="M457.45,-186.219C405.069,-177.67 331.406,-157.905 357,-116 409.337,-30.3079 745.787,-14.4938 852.546,-11.6243"/>
<polygon fill="midnightblue" stroke="midnightblue" points="852.801,-15.1191 862.711,-11.3721 852.628,-8.12124 852.801,-15.1191"/>
</g>
<!-- Node32&#45;&gt;Node11 -->
<g id="edge102" class="edge"><title>Node32&#45;&gt;Node11</title>
<path fill="none" stroke="midnightblue" d="M552.651,-181.799C567.447,-178.922 583.848,-176.027 599,-174 805.773,-146.339 859.652,-160.954 1067,-138 1078.89,-136.684 1091.78,-134.939 1103.51,-133.228"/>
<polygon fill="midnightblue" stroke="midnightblue" points="1104.09,-136.68 1113.46,-131.744 1103.06,-129.757 1104.09,-136.68"/>
</g>
<!-- Node32&#45;&gt;Node14 -->
<g id="edge104" class="edge"><title>Node32&#45;&gt;Node14</title>
<path fill="none" stroke="midnightblue" d="M552.613,-181.503C567.408,-178.614 583.818,-175.787 599,-174 951.594,-132.507 1042.96,-164.507 1397,-138 1421.9,-136.135 1450.04,-133.14 1470.92,-130.745"/>
<polygon fill="midnightblue" stroke="midnightblue" points="1471.59,-134.191 1481.11,-129.557 1470.78,-127.238 1471.59,-134.191"/>
</g>
<!-- Node32&#45;&gt;Node27 -->
<g id="edge106" class="edge"><title>Node32&#45;&gt;Node27</title>
<path fill="none" stroke="midnightblue" d="M457.43,-185.833C394.974,-177.38 281.79,-160.837 176.227,-138.11"/>
<polygon fill="midnightblue" stroke="midnightblue" points="176.88,-134.671 166.365,-135.964 175.392,-141.51 176.88,-134.671"/>
</g>
<!-- Node32&#45;&gt;Node29 -->
<g id="edge100" class="edge"><title>Node32&#45;&gt;Node29</title>
<path fill="none" stroke="midnightblue" d="M552.606,-181.442C567.401,-178.551 583.812,-175.737 599,-174 1010.84,-126.886 1117.14,-161.576 1531,-138 1569.65,-135.798 1613.99,-132.323 1643.56,-129.869"/>
<polygon fill="midnightblue" stroke="midnightblue" points="1644.08,-133.338 1653.75,-129.015 1643.5,-126.362 1644.08,-133.338"/>
</g>
<!-- Node33 -->
<g id="node78" class="node"><title>Node33</title>
<a xlink:href="vec3_8h.html" target="_top" xlink:title="base/vec/vec3.h">
<polygon fill="white" stroke="black" points="183.5,-116.5 183.5,-137.5 272.5,-137.5 272.5,-116.5 183.5,-116.5"/>
<text text-anchor="middle" x="228" y="-124.5" font-family="Helvetica,sans-Serif" font-size="10.00">base/vec/vec3.h</text>
</a>
</g>
<!-- Node32&#45;&gt;Node33 -->
<g id="edge90" class="edge"><title>Node32&#45;&gt;Node33</title>
<path fill="none" stroke="midnightblue" d="M460.187,-181.484C411.811,-170.133 334.728,-152.044 282.786,-139.856"/>
<polygon fill="midnightblue" stroke="midnightblue" points="283.283,-136.378 272.748,-137.501 281.684,-143.193 283.283,-136.378"/>
</g>
<!-- Node33&#45;&gt;Node6 -->
<g id="edge92" class="edge"><title>Node33&#45;&gt;Node6</title>
<path fill="none" stroke="midnightblue" d="M272.73,-122.547C297.535,-120.238 328.948,-117.579 357,-116 1025.42,-78.3843 1841.98,-70.5977 2032.78,-69.2511"/>
<polygon fill="midnightblue" stroke="midnightblue" points="2032.95,-72.7501 2042.93,-69.1814 2032.9,-65.7503 2032.95,-72.7501"/>
</g>
<!-- Node34 -->
<g id="node81" class="node"><title>Node34</title>
<a xlink:href="vec2_8h.html" target="_top" xlink:title="vec2.h">
<polygon fill="white" stroke="black" points="36,-58.5 36,-79.5 82,-79.5 82,-58.5 36,-58.5"/>
<text text-anchor="middle" x="59" y="-66.5" font-family="Helvetica,sans-Serif" font-size="10.00">vec2.h</text>
</a>
</g>
<!-- Node33&#45;&gt;Node34 -->
<g id="edge94" class="edge"><title>Node33&#45;&gt;Node34</title>
<path fill="none" stroke="midnightblue" d="M197.395,-116.497C167.57,-106.261 122.371,-90.7485 91.8136,-80.2615"/>
<polygon fill="midnightblue" stroke="midnightblue" points="92.6501,-76.8482 82.0554,-76.9125 90.3777,-83.4692 92.6501,-76.8482"/>
</g>
<!-- Node35 -->
<g id="node83" class="node"><title>Node35</title>
<polygon fill="white" stroke="#bfbfbf" points="88,-0.5 88,-21.5 132,-21.5 132,-0.5 88,-0.5"/>
<text text-anchor="middle" x="110" y="-8.5" font-family="Helvetica,sans-Serif" font-size="10.00">cmath</text>
</g>
<!-- Node33&#45;&gt;Node35 -->
<g id="edge98" class="edge"><title>Node33&#45;&gt;Node35</title>
<path fill="none" stroke="midnightblue" d="M217.11,-116.295C196.826,-96.3545 153.067,-53.337 128.214,-28.9056"/>
<polygon fill="midnightblue" stroke="midnightblue" points="130.448,-26.1937 120.863,-21.6792 125.541,-31.1856 130.448,-26.1937"/>
</g>
<!-- Node34&#45;&gt;Node35 -->
<g id="edge96" class="edge"><title>Node34&#45;&gt;Node35</title>
<path fill="none" stroke="midnightblue" d="M68.3542,-58.3619C75.5433,-50.1861 85.6409,-38.7025 94.0927,-29.0907"/>
<polygon fill="midnightblue" stroke="midnightblue" points="96.7301,-31.3916 100.705,-21.5707 91.4733,-26.7692 96.7301,-31.3916"/>
</g>
<!-- Node36&#45;&gt;Node6 -->
<g id="edge120" class="edge"><title>Node36&#45;&gt;Node6</title>
<path fill="none" stroke="midnightblue" d="M2105.36,-364.23C2153,-351.856 2228.11,-324.198 2262,-268 2282.21,-234.48 2237.62,-192.422 2221,-174 2186.2,-135.429 2134.89,-102.811 2103,-84.5918"/>
<polygon fill="midnightblue" stroke="midnightblue" points="2104.59,-81.4723 2094.16,-79.6253 2101.17,-87.575 2104.59,-81.4723"/>
</g>
<!-- Node36&#45;&gt;Node21 -->
<g id="edge116" class="edge"><title>Node36&#45;&gt;Node21</title>
<path fill="none" stroke="midnightblue" d="M2058.6,-362.362C2055.42,-354.677 2051.03,-344.069 2047.21,-334.84"/>
<polygon fill="midnightblue" stroke="midnightblue" points="2050.43,-333.473 2043.37,-325.571 2043.96,-336.149 2050.43,-333.473"/>
</g>
<!-- Node36&#45;&gt;Node22 -->
<g id="edge118" class="edge"><title>Node36&#45;&gt;Node22</title>
<path fill="none" stroke="midnightblue" d="M2075.83,-362.295C2099.93,-342.182 2152.16,-298.59 2181.3,-274.275"/>
<polygon fill="midnightblue" stroke="midnightblue" points="2183.77,-276.774 2189.2,-267.679 2179.28,-271.399 2183.77,-276.774"/>
</g>
<!-- Node36&#45;&gt;Node28 -->
<g id="edge124" class="edge"><title>Node36&#45;&gt;Node28</title>
<path fill="none" stroke="midnightblue" d="M2067.71,-362.295C2076.25,-342.872 2094.41,-301.556 2105.27,-276.846"/>
<polygon fill="midnightblue" stroke="midnightblue" points="2108.48,-278.242 2109.3,-267.679 2102.08,-275.425 2108.48,-278.242"/>
</g>
<!-- Node36&#45;&gt;Node29 -->
<g id="edge122" class="edge"><title>Node36&#45;&gt;Node29</title>
<path fill="none" stroke="midnightblue" d="M2025.31,-362.436C1953.98,-342.067 1802.25,-296.832 1756,-268 1725.06,-248.714 1716.01,-241.698 1698,-210 1686.98,-190.599 1681.66,-165.411 1679.15,-147.894"/>
<polygon fill="midnightblue" stroke="midnightblue" points="1682.58,-147.12 1677.87,-137.629 1675.63,-147.984 1682.58,-147.12"/>
</g>
<!-- Node37&#45;&gt;Node6 -->
<g id="edge154" class="edge"><title>Node37&#45;&gt;Node6</title>
<path fill="none" stroke="midnightblue" d="M1541.6,-246.338C1549.58,-237.147 1560.88,-223.296 1569,-210 1592.93,-170.785 1574.65,-142.752 1612,-116 1645.86,-91.7492 1926.02,-76.0275 2032.84,-70.8647"/>
<polygon fill="midnightblue" stroke="midnightblue" points="2033.1,-74.3565 2042.92,-70.3841 2032.77,-67.3644 2033.1,-74.3565"/>
</g>
<!-- Node38 -->
<g id="node102" class="node"><title>Node38</title>
<a xlink:href="_format_8h.html" target="_top" xlink:title="base/Format.h">
<polygon fill="white" stroke="black" points="830,-181.5 830,-202.5 910,-202.5 910,-181.5 830,-181.5"/>
<text text-anchor="middle" x="870" y="-189.5" font-family="Helvetica,sans-Serif" font-size="10.00">base/Format.h</text>
</a>
</g>
<!-- Node37&#45;&gt;Node38 -->
<g id="edge128" class="edge"><title>Node37&#45;&gt;Node38</title>
<path fill="none" stroke="midnightblue" d="M1475.36,-251.918C1454.5,-250.051 1430.68,-247.923 1409,-246 1227.23,-229.873 1181.32,-230.52 1000,-210 973.553,-207.007 944.175,-202.998 920.046,-199.523"/>
<polygon fill="midnightblue" stroke="midnightblue" points="920.45,-196.045 910.051,-198.071 919.444,-202.972 920.45,-196.045"/>
</g>
<!-- Node38&#45;&gt;Node7 -->
<g id="edge152" class="edge"><title>Node38&#45;&gt;Node7</title>
<path fill="none" stroke="midnightblue" d="M833.117,-181.459C799.494,-169.636 757.034,-147.85 771,-116 788.474,-76.1483 829.364,-44.7448 857.112,-27.0191"/>
<polygon fill="midnightblue" stroke="midnightblue" points="859.305,-29.7785 865.966,-21.5397 855.621,-23.8262 859.305,-29.7785"/>
</g>
<!-- Node38&#45;&gt;Node10 -->
<g id="edge142" class="edge"><title>Node38&#45;&gt;Node10</title>
<path fill="none" stroke="midnightblue" d="M910.188,-183.452C926.254,-180.215 944.956,-176.67 962,-174 1093.42,-153.414 1250.53,-137.362 1321.65,-130.554"/>
<polygon fill="midnightblue" stroke="midnightblue" points="1322.29,-134.009 1331.91,-129.579 1321.63,-127.041 1322.29,-134.009"/>
</g>
<!-- Node38&#45;&gt;Node11 -->
<g id="edge146" class="edge"><title>Node38&#45;&gt;Node11</title>
<path fill="none" stroke="midnightblue" d="M910.282,-182.409C962.287,-170.027 1052.2,-148.619 1103.72,-136.353"/>
<polygon fill="midnightblue" stroke="midnightblue" points="1104.57,-139.749 1113.48,-134.028 1102.95,-132.939 1104.57,-139.749"/>
</g>
<!-- Node38&#45;&gt;Node12 -->
<g id="edge144" class="edge"><title>Node38&#45;&gt;Node12</title>
<path fill="none" stroke="midnightblue" d="M838.153,-181.393C804.959,-168.518 760.2,-144.901 779,-116 795.616,-90.4561 829.644,-78.6875 854.683,-73.3346"/>
<polygon fill="midnightblue" stroke="midnightblue" points="855.617,-76.7197 864.786,-71.4119 854.308,-69.8431 855.617,-76.7197"/>
</g>
<!-- Node38&#45;&gt;Node14 -->
<g id="edge148" class="edge"><title>Node38&#45;&gt;Node14</title>
<path fill="none" stroke="midnightblue" d="M910.178,-187.434C943.161,-183.717 991.092,-178.386 1033,-174 1194.68,-157.078 1235.27,-154.469 1397,-138 1422,-135.454 1450.34,-132.48 1471.27,-130.267"/>
<polygon fill="midnightblue" stroke="midnightblue" points="1471.91,-133.719 1481.48,-129.185 1471.17,-126.758 1471.91,-133.719"/>
</g>
<!-- Node38&#45;&gt;Node24 -->
<g id="edge150" class="edge"><title>Node38&#45;&gt;Node24</title>
<path fill="none" stroke="midnightblue" d="M829.888,-187.812C736.732,-177.964 507.909,-153.034 432,-138 430.728,-137.748 429.438,-137.477 428.137,-137.191"/>
<polygon fill="midnightblue" stroke="midnightblue" points="428.662,-133.718 418.12,-134.77 427.018,-140.522 428.662,-133.718"/>
</g>
<!-- Node38&#45;&gt;Node35 -->
<g id="edge136" class="edge"><title>Node38&#45;&gt;Node35</title>
<path fill="none" stroke="midnightblue" d="M829.795,-186.49C767.604,-177.722 644.448,-159.383 541,-138 436.916,-116.486 410.866,-110.328 309,-80 249.195,-62.1945 180.698,-37.4677 141.67,-22.9584"/>
<polygon fill="midnightblue" stroke="midnightblue" points="142.765,-19.6315 132.173,-19.4129 140.317,-26.1894 142.765,-19.6315"/>
</g>
<!-- Node39 -->
<g id="node104" class="node"><title>Node39</title>
<polygon fill="white" stroke="#bfbfbf" points="979.5,-116.5 979.5,-137.5 1058.5,-137.5 1058.5,-116.5 979.5,-116.5"/>
<text text-anchor="middle" x="1019" y="-124.5" font-family="Helvetica,sans-Serif" font-size="10.00">detail/format.h</text>
</g>
<!-- Node38&#45;&gt;Node39 -->
<g id="edge130" class="edge"><title>Node38&#45;&gt;Node39</title>
<path fill="none" stroke="midnightblue" d="M894.271,-181.412C919.056,-170.6 957.725,-153.731 985.435,-141.642"/>
<polygon fill="midnightblue" stroke="midnightblue" points="986.973,-144.79 994.739,-137.584 984.174,-138.374 986.973,-144.79"/>
</g>
<!-- Node40 -->
<g id="node106" class="node"><title>Node40</title>
<polygon fill="white" stroke="#bfbfbf" points="787.5,-116.5 787.5,-137.5 836.5,-137.5 836.5,-116.5 787.5,-116.5"/>
<text text-anchor="middle" x="812" y="-124.5" font-family="Helvetica,sans-Serif" font-size="10.00">stdint.h</text>
</g>
<!-- Node38&#45;&gt;Node40 -->
<g id="edge132" class="edge"><title>Node38&#45;&gt;Node40</title>
<path fill="none" stroke="midnightblue" d="M860.422,-181.267C851.639,-171.423 838.455,-156.648 828.061,-145"/>
<polygon fill="midnightblue" stroke="midnightblue" points="830.669,-142.665 821.399,-137.534 825.446,-147.325 830.669,-142.665"/>
</g>
<!-- Node41 -->
<g id="node108" class="node"><title>Node41</title>
<polygon fill="white" stroke="#bfbfbf" points="1717.5,-116.5 1717.5,-137.5 1766.5,-137.5 1766.5,-116.5 1717.5,-116.5"/>
<text text-anchor="middle" x="1742" y="-124.5" font-family="Helvetica,sans-Serif" font-size="10.00">cassert</text>
</g>
<!-- Node38&#45;&gt;Node41 -->
<g id="edge134" class="edge"><title>Node38&#45;&gt;Node41</title>
<path fill="none" stroke="midnightblue" d="M910.131,-186.926C943.086,-182.914 991.004,-177.434 1033,-174 1329.5,-149.753 1411.57,-193.083 1707.17,-137.934"/>
<polygon fill="midnightblue" stroke="midnightblue" points="1708.15,-141.312 1717.32,-136.017 1706.85,-134.433 1708.15,-141.312"/>
</g>
<!-- Node42 -->
<g id="node111" class="node"><title>Node42</title>
<polygon fill="white" stroke="#bfbfbf" points="853.5,-116.5 853.5,-137.5 902.5,-137.5 902.5,-116.5 853.5,-116.5"/>
<text text-anchor="middle" x="878" y="-124.5" font-family="Helvetica,sans-Serif" font-size="10.00">cstddef</text>
</g>
<!-- Node38&#45;&gt;Node42 -->
<g id="edge138" class="edge"><title>Node38&#45;&gt;Node42</title>
<path fill="none" stroke="midnightblue" d="M871.321,-181.267C872.439,-172.18 874.075,-158.892 875.447,-147.74"/>
<polygon fill="midnightblue" stroke="midnightblue" points="878.956,-147.886 876.704,-137.534 872.008,-147.031 878.956,-147.886"/>
</g>
<!-- Node43 -->
<g id="node113" class="node"><title>Node43</title>
<polygon fill="white" stroke="#bfbfbf" points="919.5,-116.5 919.5,-137.5 962.5,-137.5 962.5,-116.5 919.5,-116.5"/>
<text text-anchor="middle" x="941" y="-124.5" font-family="Helvetica,sans-Serif" font-size="10.00">cstdio</text>
</g>
<!-- Node38&#45;&gt;Node43 -->
<g id="edge140" class="edge"><title>Node38&#45;&gt;Node43</title>
<path fill="none" stroke="midnightblue" d="M881.724,-181.267C892.684,-171.233 909.238,-156.078 922.069,-144.331"/>
<polygon fill="midnightblue" stroke="midnightblue" points="924.481,-146.868 929.494,-137.534 919.755,-141.705 924.481,-146.868"/>
</g>
<!-- Node44&#45;&gt;Node6 -->
<g id="edge160" class="edge"><title>Node44&#45;&gt;Node6</title>
<path fill="none" stroke="midnightblue" d="M648.159,-371.444C818.834,-363.982 1522.47,-329.654 1597,-268 1651.59,-222.843 1590.23,-160.932 1645,-116 1674.62,-91.7039 1930.7,-76.2314 2032.51,-70.9904"/>
<polygon fill="midnightblue" stroke="midnightblue" points="2032.92,-74.4746 2042.73,-70.4725 2032.56,-67.4836 2032.92,-74.4746"/>
</g>
<!-- Node44&#45;&gt;Node7 -->
<g id="edge166" class="edge"><title>Node44&#45;&gt;Node7</title>
<path fill="none" stroke="midnightblue" d="M573.622,-369.18C433.873,-353.496 -42.9689,-286.622 95,-116 143.647,-55.8398 710.364,-20.6502 852.716,-12.7222"/>
<polygon fill="midnightblue" stroke="midnightblue" points="853.169,-16.2027 862.961,-12.1581 852.784,-9.21326 853.169,-16.2027"/>
</g>
<!-- Node44&#45;&gt;Node21 -->
<g id="edge158" class="edge"><title>Node44&#45;&gt;Node21</title>
<path fill="none" stroke="midnightblue" d="M648.224,-371.766C797.207,-366.784 1364.99,-347.395 1832,-326 1894.7,-323.127 1968.05,-319.063 2008.43,-316.764"/>
<polygon fill="midnightblue" stroke="midnightblue" points="2008.65,-320.257 2018.44,-316.192 2008.26,-313.269 2008.65,-320.257"/>
</g>
<!-- Node44&#45;&gt;Node24 -->
<g id="edge170" class="edge"><title>Node44&#45;&gt;Node24</title>
<path fill="none" stroke="midnightblue" d="M573.857,-370.429C515.076,-364.128 402.15,-342.446 352,-268 326.216,-229.725 357.045,-174.91 377.21,-146.203"/>
<polygon fill="midnightblue" stroke="midnightblue" points="380.234,-147.997 383.298,-137.855 374.578,-143.873 380.234,-147.997"/>
</g>
<!-- Node44&#45;&gt;Node30 -->
<g id="edge168" class="edge"><title>Node44&#45;&gt;Node30</title>
<path fill="none" stroke="midnightblue" d="M612.278,-362.486C615.817,-333.37 625.793,-251.292 630.492,-212.63"/>
<polygon fill="midnightblue" stroke="midnightblue" points="633.986,-212.892 631.719,-202.543 627.037,-212.047 633.986,-212.892"/>
</g>
<!-- Node45 -->
<g id="node126" class="node"><title>Node45</title>
<a xlink:href="_lorentz_vec_8h.html" target="_top" xlink:title="base/vec/LorentzVec.h">
<polygon fill="white" stroke="black" points="638.5,-304.5 638.5,-325.5 755.5,-325.5 755.5,-304.5 638.5,-304.5"/>
<text text-anchor="middle" x="697" y="-312.5" font-family="Helvetica,sans-Serif" font-size="10.00">base/vec/LorentzVec.h</text>
</a>
</g>
<!-- Node44&#45;&gt;Node45 -->
<g id="edge162" class="edge"><title>Node44&#45;&gt;Node45</title>
<path fill="none" stroke="midnightblue" d="M626.774,-362.362C639.624,-353.696 657.985,-341.313 672.71,-331.382"/>
<polygon fill="midnightblue" stroke="midnightblue" points="674.993,-334.064 681.326,-325.571 671.079,-328.26 674.993,-334.064"/>
</g>
<!-- Node45&#45;&gt;Node33 -->
<g id="edge164" class="edge"><title>Node45&#45;&gt;Node33</title>
<path fill="none" stroke="midnightblue" d="M638.31,-313.987C509.935,-311.164 213.204,-301.092 183,-268 150.995,-232.934 188.627,-175.039 212.05,-145.533"/>
<polygon fill="midnightblue" stroke="midnightblue" points="214.859,-147.627 218.491,-137.674 209.445,-143.19 214.859,-147.627"/>
</g>
<!-- Node46&#45;&gt;Node6 -->
<g id="edge176" class="edge"><title>Node46&#45;&gt;Node6</title>
<path fill="none" stroke="midnightblue" d="M2602.33,-181.284C2599.07,-164.292 2590.11,-131.509 2568,-116 2531.27,-90.2414 2227.31,-75.2858 2115.27,-70.6053"/>
<polygon fill="midnightblue" stroke="midnightblue" points="2115.17,-67.0986 2105.04,-70.1844 2114.88,-74.0927 2115.17,-67.0986"/>
</g>
<!-- Node46&#45;&gt;Node9 -->
<g id="edge174" class="edge"><title>Node46&#45;&gt;Node9</title>
<path fill="none" stroke="midnightblue" d="M2584.69,-181.343C2578.57,-178.448 2571.66,-175.657 2565,-174 2285.1,-104.329 2203.87,-168.117 1917,-138 1905.13,-136.754 1892.21,-134.902 1880.69,-133.071"/>
<polygon fill="midnightblue" stroke="midnightblue" points="1881,-129.576 1870.57,-131.414 1879.87,-136.484 1881,-129.576"/>
</g>
<!-- Node46&#45;&gt;Node12 -->
<g id="edge180" class="edge"><title>Node46&#45;&gt;Node12</title>
<path fill="none" stroke="midnightblue" d="M2597.77,-181.433C2586.81,-164.023 2562.28,-129.858 2531,-116 2454.25,-81.9978 1132.39,-70.8226 915.112,-69.2121"/>
<polygon fill="midnightblue" stroke="midnightblue" points="915.089,-65.7119 905.064,-69.1386 915.038,-72.7117 915.089,-65.7119"/>
</g>
<!-- Node46&#45;&gt;Node16 -->
<g id="edge182" class="edge"><title>Node46&#45;&gt;Node16</title>
<path fill="none" stroke="midnightblue" d="M2582.36,-181.377C2576.77,-178.809 2570.71,-176.179 2565,-174 2525.29,-158.856 2478.42,-145.122 2446.91,-136.465"/>
<polygon fill="midnightblue" stroke="midnightblue" points="2447.82,-133.084 2437.25,-133.837 2445.98,-139.838 2447.82,-133.084"/>
</g>
<!-- Node46&#45;&gt;Node17 -->
<g id="edge178" class="edge"><title>Node46&#45;&gt;Node17</title>
<path fill="none" stroke="midnightblue" d="M2620.84,-181.267C2637.77,-170.483 2663.97,-153.782 2682.84,-141.756"/>
<polygon fill="midnightblue" stroke="midnightblue" points="2684.89,-144.6 2691.45,-136.274 2681.13,-138.697 2684.89,-144.6"/>
</g>
<!-- Node47&#45;&gt;Node6 -->
<g id="edge188" class="edge"><title>Node47&#45;&gt;Node6</title>
<path fill="none" stroke="midnightblue" d="M2293.96,-181.382C2288.65,-164.828 2276.11,-133.007 2254,-116 2232.46,-99.4323 2161.47,-84.338 2115.34,-75.9384"/>
<polygon fill="midnightblue" stroke="midnightblue" points="2115.79,-72.4639 2105.33,-74.1497 2114.56,-79.3547 2115.79,-72.4639"/>
</g>
<!-- Node47&#45;&gt;Node9 -->
<g id="edge186" class="edge"><title>Node47&#45;&gt;Node9</title>
<path fill="none" stroke="midnightblue" d="M2267.2,-184.107C2253.25,-180.627 2236.35,-176.718 2221,-174 2087.03,-150.283 2051.8,-156.418 1917,-138 1905.17,-136.384 1892.27,-134.439 1880.74,-132.637"/>
<polygon fill="midnightblue" stroke="midnightblue" points="1881.04,-129.14 1870.61,-131.035 1879.94,-136.054 1881.04,-129.14"/>
</g>
<!-- Node47&#45;&gt;Node16 -->
<g id="edge200" class="edge"><title>Node47&#45;&gt;Node16</title>
<path fill="none" stroke="midnightblue" d="M2315.57,-181.412C2334.04,-170.883 2362.58,-154.611 2383.64,-142.602"/>
<polygon fill="midnightblue" stroke="midnightblue" points="2385.48,-145.577 2392.44,-137.584 2382.02,-139.496 2385.48,-145.577"/>
</g>
<!-- Node47&#45;&gt;Node17 -->
<g id="edge198" class="edge"><title>Node47&#45;&gt;Node17</title>
<path fill="none" stroke="midnightblue" d="M2326.74,-187.273C2403.87,-175.016 2609.26,-142.374 2680.92,-130.987"/>
<polygon fill="midnightblue" stroke="midnightblue" points="2681.9,-134.374 2691.23,-129.348 2680.8,-127.461 2681.9,-134.374"/>
</g>
<!-- Node47&#45;&gt;Node33 -->
<g id="edge196" class="edge"><title>Node47&#45;&gt;Node33</title>
<path fill="none" stroke="midnightblue" d="M2267.31,-183.416C2253.38,-179.79 2236.47,-175.959 2221,-174 1809.98,-121.963 770.735,-159.612 357,-138 332.668,-136.729 305.813,-134.562 282.934,-132.486"/>
<polygon fill="midnightblue" stroke="midnightblue" points="283.005,-128.978 272.726,-131.542 282.361,-135.948 283.005,-128.978"/>
</g>
<!-- Node48 -->
<g id="node143" class="node"><title>Node48</title>
<a xlink:href="math_8h.html" target="_top" xlink:title="base/std_ext/math.h">
<polygon fill="white" stroke="black" points="550,-116.5 550,-137.5 656,-137.5 656,-116.5 550,-116.5"/>
<text text-anchor="middle" x="603" y="-124.5" font-family="Helvetica,sans-Serif" font-size="10.00">base/std_ext/math.h</text>
</a>
</g>
<!-- Node47&#45;&gt;Node48 -->
<g id="edge190" class="edge"><title>Node47&#45;&gt;Node48</title>
<path fill="none" stroke="midnightblue" d="M2267.3,-183.456C2253.37,-179.838 2236.46,-176.002 2221,-174 1903.11,-132.841 1099.24,-152 779,-138 741.58,-136.364 699.729,-133.779 666.229,-131.527"/>
<polygon fill="midnightblue" stroke="midnightblue" points="666.329,-128.025 656.115,-130.839 665.854,-135.009 666.329,-128.025"/>
</g>
<!-- Node48&#45;&gt;Node12 -->
<g id="edge194" class="edge"><title>Node48&#45;&gt;Node12</title>
<path fill="none" stroke="midnightblue" d="M654.068,-116.497C712.649,-104.448 806.776,-85.0885 854.759,-75.2197"/>
<polygon fill="midnightblue" stroke="midnightblue" points="855.729,-78.5936 864.819,-73.1507 854.319,-71.7371 855.729,-78.5936"/>
</g>
<!-- Node48&#45;&gt;Node35 -->
<g id="edge192" class="edge"><title>Node48&#45;&gt;Node35</title>
<path fill="none" stroke="midnightblue" d="M557.943,-116.398C459.481,-93.2309 227.145,-38.5635 141.997,-18.5287"/>
<polygon fill="midnightblue" stroke="midnightblue" points="142.667,-15.0908 132.131,-16.2073 141.064,-21.9048 142.667,-15.0908"/>
</g>
<!-- Node49&#45;&gt;Node7 -->
<g id="edge220" class="edge"><title>Node49&#45;&gt;Node7</title>
<path fill="none" stroke="midnightblue" d="M383.649,-246.205C366.267,-222.348 329.316,-163.487 348,-116 360.895,-83.225 370.426,-73.6062 402,-58 442.262,-38.0997 750.546,-18.7432 852.432,-12.8309"/>
<polygon fill="midnightblue" stroke="midnightblue" points="852.942,-16.3074 862.724,-12.2388 852.539,-9.31898 852.942,-16.3074"/>
</g>
<!-- Node49&#45;&gt;Node16 -->
<g id="edge228" class="edge"><title>Node49&#45;&gt;Node16</title>
<path fill="none" stroke="midnightblue" d="M423.031,-251.779C437.295,-249.597 454.462,-247.276 470,-246 805.632,-218.44 1652.8,-265.254 1985,-210 2037.41,-201.282 2047.24,-185.994 2099,-174 2197.46,-151.184 2316.07,-136.841 2374.64,-130.61"/>
<polygon fill="midnightblue" stroke="midnightblue" points="2375.27,-134.063 2384.85,-129.541 2374.54,-127.101 2375.27,-134.063"/>
</g>
<!-- Node49&#45;&gt;Node24 -->
<g id="edge226" class="edge"><title>Node49&#45;&gt;Node24</title>
<path fill="none" stroke="midnightblue" d="M392,-246.362C392,-224.936 392,-176.24 392,-148.114"/>
<polygon fill="midnightblue" stroke="midnightblue" points="395.5,-147.785 392,-137.785 388.5,-147.785 395.5,-147.785"/>
</g>
<!-- Node49&#45;&gt;Node30 -->
<g id="edge224" class="edge"><title>Node49&#45;&gt;Node30</title>
<path fill="none" stroke="midnightblue" d="M423.013,-248.635C468.02,-236.497 551.183,-214.067 598.217,-201.381"/>
<polygon fill="midnightblue" stroke="midnightblue" points="599.214,-204.737 607.958,-198.754 597.391,-197.979 599.214,-204.737"/>
</g>
<!-- Node49&#45;&gt;Node32 -->
<g id="edge204" class="edge"><title>Node49&#45;&gt;Node32</title>
<path fill="none" stroke="midnightblue" d="M410.407,-246.412C428.711,-235.883 457,-219.611 477.876,-207.602"/>
<polygon fill="midnightblue" stroke="midnightblue" points="479.678,-210.604 486.601,-202.584 476.188,-204.536 479.678,-210.604"/>
</g>
<!-- Node49&#45;&gt;Node33 -->
<g id="edge218" class="edge"><title>Node49&#45;&gt;Node33</title>
<path fill="none" stroke="midnightblue" d="M379.567,-246.275C360.847,-230.22 324.184,-199.138 292,-174 278.712,-163.621 263.512,-152.431 251.26,-143.574"/>
<polygon fill="midnightblue" stroke="midnightblue" points="253.091,-140.58 242.929,-137.582 249.004,-146.262 253.091,-140.58"/>
</g>
<!-- Node49&#45;&gt;Node35 -->
<g id="edge222" class="edge"><title>Node49&#45;&gt;Node35</title>
<path fill="none" stroke="midnightblue" d="M360.954,-254.269C284.193,-245.563 87.3388,-210.772 27,-80 14.4995,-52.9078 49.6583,-32.824 78.0261,-21.5112"/>
<polygon fill="midnightblue" stroke="midnightblue" points="79.5593,-24.674 87.6877,-17.8784 77.0957,-18.1219 79.5593,-24.674"/>
</g>
<!-- Node49&#45;&gt;Node48 -->
<g id="edge206" class="edge"><title>Node49&#45;&gt;Node48</title>
<path fill="none" stroke="midnightblue" d="M396.445,-246.373C404.375,-228.706 422.637,-193.327 449,-174 475.533,-154.548 510.22,-143.047 539.955,-136.299"/>
<polygon fill="midnightblue" stroke="midnightblue" points="540.783,-139.701 549.83,-134.188 539.319,-132.856 540.783,-139.701"/>
</g>
<!-- Node50 -->
<g id="node154" class="node"><title>Node50</title>
<a xlink:href="shared__ptr__container_8h.html" target="_top" xlink:title="base/std_ext/shared\l_ptr_container.h">
<polygon fill="white" stroke="black" points="1455.5,-175 1455.5,-209 1560.5,-209 1560.5,-175 1455.5,-175"/>
<text text-anchor="start" x="1463.5" y="-196" font-family="Helvetica,sans-Serif" font-size="10.00">base/std_ext/shared</text>
<text text-anchor="middle" x="1508" y="-183" font-family="Helvetica,sans-Serif" font-size="10.00">_ptr_container.h</text>
</a>
</g>
<!-- Node49&#45;&gt;Node50 -->
<g id="edge208" class="edge"><title>Node49&#45;&gt;Node50</title>
<path fill="none" stroke="midnightblue" d="M423.045,-251.936C437.311,-249.786 454.477,-247.446 470,-246 818.633,-213.516 907.459,-230.525 1257,-210 1321.06,-206.239 1394.24,-200.868 1444.98,-196.973"/>
<polygon fill="midnightblue" stroke="midnightblue" points="1445.44,-200.448 1455.14,-196.19 1444.9,-193.469 1445.44,-200.448"/>
</g>
<!-- Node50&#45;&gt;Node7 -->
<g id="edge210" class="edge"><title>Node50&#45;&gt;Node7</title>
<path fill="none" stroke="midnightblue" d="M1521.34,-174.73C1532.35,-158.213 1544.2,-133.323 1531,-116 1472.04,-38.6507 1415.54,-76.1711 1320,-58 1171.3,-29.719 990.526,-16.9882 917.71,-12.7348"/>
<polygon fill="midnightblue" stroke="midnightblue" points="917.551,-9.22014 907.368,-12.1458 917.153,-16.2088 917.551,-9.22014"/>
</g>
<!-- Node50&#45;&gt;Node10 -->
<g id="edge216" class="edge"><title>Node50&#45;&gt;Node10</title>
<path fill="none" stroke="midnightblue" d="M1469.11,-174.922C1445.69,-164.634 1416.15,-151.661 1393.72,-141.809"/>
<polygon fill="midnightblue" stroke="midnightblue" points="1394.83,-138.475 1384.27,-137.658 1392.02,-144.884 1394.83,-138.475"/>
</g>
<!-- Node50&#45;&gt;Node16 -->
<g id="edge212" class="edge"><title>Node50&#45;&gt;Node16</title>
<path fill="none" stroke="midnightblue" d="M1560.78,-188.201C1726.6,-176.265 2234.33,-139.717 2374.7,-129.613"/>
<polygon fill="midnightblue" stroke="midnightblue" points="2375.19,-133.087 2384.92,-128.878 2374.69,-126.105 2375.19,-133.087"/>
</g>
<!-- Node50&#45;&gt;Node51 -->
<g id="edge214" class="edge"><title>Node50&#45;&gt;Node51</title>
<path fill="none" stroke="midnightblue" d="M1560.65,-188.692C1625.26,-184.729 1738.15,-178.108 1835,-174 2100.05,-162.758 2761.29,-179.256 3041.09,-137.927"/>
<polygon fill="midnightblue" stroke="midnightblue" points="3041.93,-141.339 3051.29,-136.368 3040.88,-134.419 3041.93,-141.339"/>
</g>
<!-- Node52&#45;&gt;Node7 -->
<g id="edge236" class="edge"><title>Node52&#45;&gt;Node7</title>
<path fill="none" stroke="midnightblue" d="M797.427,-304.423C786.9,-295.284 771.754,-281.461 760,-268 726.257,-229.354 735.877,-202.173 693,-174 629.182,-132.067 573.007,-197.384 525,-138 513.572,-123.864 509.717,-79.907 531,-58 553.297,-35.0488 769.858,-18.5487 852.854,-13.0212"/>
<polygon fill="midnightblue" stroke="midnightblue" points="853.221,-16.5047 862.971,-12.358 852.763,-9.51974 853.221,-16.5047"/>
</g>
<!-- Node52&#45;&gt;Node10 -->
<g id="edge244" class="edge"><title>Node52&#45;&gt;Node10</title>
<path fill="none" stroke="midnightblue" d="M822.535,-304.31C854.898,-277.361 944.899,-206.488 1033,-174 1085.32,-154.708 1246.8,-137.608 1321.44,-130.5"/>
<polygon fill="midnightblue" stroke="midnightblue" points="1322.17,-133.947 1331.8,-129.524 1321.52,-126.977 1322.17,-133.947"/>
</g>
<!-- Node52&#45;&gt;Node16 -->
<g id="edge242" class="edge"><title>Node52&#45;&gt;Node16</title>
<path fill="none" stroke="midnightblue" d="M847.735,-311.685C877.411,-309.196 919.812,-305.903 957,-304 1101.87,-296.586 2125.71,-317.669 2262,-268 2300.93,-253.811 2304.69,-238.258 2335,-210 2357.35,-189.161 2380.76,-162.804 2395.59,-145.45"/>
<polygon fill="midnightblue" stroke="midnightblue" points="2398.35,-147.611 2402.14,-137.718 2393.01,-143.086 2398.35,-147.611"/>
</g>
<!-- Node52&#45;&gt;Node24 -->
<g id="edge240" class="edge"><title>Node52&#45;&gt;Node24</title>
<path fill="none" stroke="midnightblue" d="M773.38,-304.45C752.923,-297.017 728.173,-285.267 711,-268 678.472,-235.294 703.93,-201.64 667,-174 582.407,-110.686 535.337,-160.046 432,-138 430.732,-137.73 429.445,-137.443 428.147,-137.143"/>
<polygon fill="midnightblue" stroke="midnightblue" points="428.692,-133.672 418.143,-134.658 427.004,-140.466 428.692,-133.672"/>
</g>
<!-- Node52&#45;&gt;Node30 -->
<g id="edge238" class="edge"><title>Node52&#45;&gt;Node30</title>
<path fill="none" stroke="midnightblue" d="M772.437,-305.472C737.353,-295.987 688.181,-281.006 673,-268 655.84,-253.298 644.979,-229.369 638.973,-212.29"/>
<polygon fill="midnightblue" stroke="midnightblue" points="642.27,-211.111 635.848,-202.684 635.614,-213.277 642.27,-211.111"/>
</g>
<!-- Node52&#45;&gt;Node32 -->
<g id="edge234" class="edge"><title>Node52&#45;&gt;Node32</title>
<path fill="none" stroke="midnightblue" d="M772.417,-305.648C769.577,-305.053 766.748,-304.495 764,-304 699.222,-292.327 513.623,-317.29 470,-268 455.025,-251.08 471.169,-226.663 486.145,-210.107"/>
<polygon fill="midnightblue" stroke="midnightblue" points="488.871,-212.32 493.261,-202.677 483.816,-207.478 488.871,-212.32"/>
</g>
<!-- Node52&#45;&gt;Node49 -->
<g id="edge232" class="edge"><title>Node52&#45;&gt;Node49</title>
<path fill="none" stroke="midnightblue" d="M772.424,-305.61C769.582,-305.024 766.751,-304.478 764,-304 619.951,-278.949 580.986,-293.413 437,-268 435.753,-267.78 434.488,-267.545 433.214,-267.298"/>
<polygon fill="midnightblue" stroke="midnightblue" points="433.868,-263.86 423.361,-265.218 432.422,-270.709 433.868,-263.86"/>
</g>
<!-- Node53&#45;&gt;Node6 -->
<g id="edge250" class="edge"><title>Node53&#45;&gt;Node6</title>
<path fill="none" stroke="midnightblue" d="M1863.55,-362.482C1899.31,-331.811 2002.51,-238.278 2055,-138 2062.91,-122.886 2067.8,-104.137 2070.64,-89.9995"/>
<polygon fill="midnightblue" stroke="midnightblue" points="2074.14,-90.2718 2072.49,-79.8074 2067.26,-89.0212 2074.14,-90.2718"/>
</g>
<!-- Node53&#45;&gt;Node7 -->
<g id="edge286" class="edge"><title>Node53&#45;&gt;Node7</title>
<path fill="none" stroke="midnightblue" d="M1818.81,-372.535C1662.32,-370.122 987.254,-357.887 957,-326 920.589,-287.624 872.485,-358.948 1022,-174 1042.51,-148.627 1083.32,-144.253 1067,-116 1034.66,-59.9977 959.823,-31.2043 916.864,-18.7923"/>
<polygon fill="midnightblue" stroke="midnightblue" points="917.756,-15.4076 907.185,-16.1174 915.891,-22.1547 917.756,-15.4076"/>
</g>
<!-- Node53&#45;&gt;Node9 -->
<g id="edge252" class="edge"><title>Node53&#45;&gt;Node9</title>
<path fill="none" stroke="midnightblue" d="M1818.96,-365.606C1798.21,-358.978 1772.76,-346.958 1760,-326 1721.96,-263.541 1791.21,-181.254 1826.8,-145.22"/>
<polygon fill="midnightblue" stroke="midnightblue" points="1829.58,-147.387 1834.23,-137.866 1824.66,-142.41 1829.58,-147.387"/>
</g>
<!-- Node53&#45;&gt;Node16 -->
<g id="edge292" class="edge"><title>Node53&#45;&gt;Node16</title>
<path fill="none" stroke="midnightblue" d="M1883.04,-370.48C1958.44,-363.5 2151.44,-339.46 2294,-268 2330.73,-249.586 2339.69,-241.567 2366,-210 2382.14,-190.632 2395.13,-164.575 2402.93,-146.859"/>
<polygon fill="midnightblue" stroke="midnightblue" points="2406.21,-148.077 2406.91,-137.505 2399.77,-145.339 2406.21,-148.077"/>
</g>
<!-- Node53&#45;&gt;Node17 -->
<g id="edge288" class="edge"><title>Node53&#45;&gt;Node17</title>
<path fill="none" stroke="midnightblue" d="M1883,-370.054C2043.47,-354.965 2755.23,-284.164 2817,-210 2827.24,-197.706 2825.84,-187.338 2817,-174 2797.9,-145.174 2757.21,-133.979 2730.76,-129.664"/>
<polygon fill="midnightblue" stroke="midnightblue" points="2731.13,-126.181 2720.74,-128.244 2730.15,-133.112 2731.13,-126.181"/>
</g>
<!-- Node53&#45;&gt;Node45 -->
<g id="edge284" class="edge"><title>Node53&#45;&gt;Node45</title>
<path fill="none" stroke="midnightblue" d="M1818.98,-372.133C1664.73,-367.879 996.533,-348.542 765.771,-326.062"/>
<polygon fill="midnightblue" stroke="midnightblue" points="766.073,-322.574 755.773,-325.057 765.373,-329.539 766.073,-322.574"/>
</g>
<!-- Node53&#45;&gt;Node52 -->
<g id="edge248" class="edge"><title>Node53&#45;&gt;Node52</title>
<path fill="none" stroke="midnightblue" d="M1818.95,-371.904C1700.23,-367.733 1274.35,-351.771 924,-326 902.201,-324.397 878.103,-322.142 857.7,-320.091"/>
<polygon fill="midnightblue" stroke="midnightblue" points="858.007,-316.604 847.704,-319.073 857.298,-323.568 858.007,-316.604"/>
</g>
<!-- Node54 -->
<g id="node181" class="node"><title>Node54</title>
<a xlink:href="_particle_type_8h.html" target="_top" xlink:title="base/ParticleType.h">
<polygon fill="white" stroke="black" points="1796,-246.5 1796,-267.5 1900,-267.5 1900,-246.5 1796,-246.5"/>
<text text-anchor="middle" x="1848" y="-254.5" font-family="Helvetica,sans-Serif" font-size="10.00">base/ParticleType.h</text>
</a>
</g>
<!-- Node53&#45;&gt;Node54 -->
<g id="edge254" class="edge"><title>Node53&#45;&gt;Node54</title>
<path fill="none" stroke="midnightblue" d="M1850.72,-362.295C1850.23,-343.131 1849.18,-302.654 1848.54,-277.843"/>
<polygon fill="midnightblue" stroke="midnightblue" points="1852.03,-277.585 1848.28,-267.679 1845.04,-277.766 1852.03,-277.585"/>
</g>
<!-- Node57 -->
<g id="node192" class="node"><title>Node57</title>
<a xlink:href="_tree_8h.html" target="_top" xlink:title="base/Tree.h">
<polygon fill="white" stroke="black" points="1908,-181.5 1908,-202.5 1976,-202.5 1976,-181.5 1908,-181.5"/>
<text text-anchor="middle" x="1942" y="-189.5" font-family="Helvetica,sans-Serif" font-size="10.00">base/Tree.h</text>
</a>
</g>
<!-- Node53&#45;&gt;Node57 -->
<g id="edge270" class="edge"><title>Node53&#45;&gt;Node57</title>
<path fill="none" stroke="midnightblue" d="M1857.27,-362.446C1868.29,-343.718 1891.63,-303.318 1909,-268 1918.08,-249.542 1927.31,-227.991 1933.69,-212.562"/>
<polygon fill="midnightblue" stroke="midnightblue" points="1937.07,-213.552 1937.62,-202.972 1930.59,-210.9 1937.07,-213.552"/>
</g>
<!-- Node59 -->
<g id="node204" class="node"><title>Node59</title>
<polygon fill="white" stroke="#bfbfbf" points="1769,-304.5 1769,-325.5 1823,-325.5 1823,-304.5 1769,-304.5"/>
<text text-anchor="middle" x="1796" y="-312.5" font-family="Helvetica,sans-Serif" font-size="10.00">iostream</text>
</g>
<!-- Node53&#45;&gt;Node59 -->
<g id="edge290" class="edge"><title>Node53&#45;&gt;Node59</title>
<path fill="none" stroke="midnightblue" d="M1840.91,-362.362C1833.16,-354.186 1822.27,-342.702 1813.15,-333.091"/>
<polygon fill="midnightblue" stroke="midnightblue" points="1815.44,-330.419 1806.02,-325.571 1810.37,-335.235 1815.44,-330.419"/>
</g>
<!-- Node54&#45;&gt;Node5 -->
<g id="edge258" class="edge"><title>Node54&#45;&gt;Node5</title>
<path fill="none" stroke="midnightblue" d="M1795.77,-253.776C1633.39,-243.729 1147.26,-213.444 1131,-210 1126.16,-208.974 1121.15,-207.566 1116.27,-205.987"/>
<polygon fill="midnightblue" stroke="midnightblue" points="1117.12,-202.575 1106.52,-202.569 1114.8,-209.181 1117.12,-202.575"/>
</g>
<!-- Node54&#45;&gt;Node7 -->
<g id="edge268" class="edge"><title>Node54&#45;&gt;Node7</title>
<path fill="none" stroke="midnightblue" d="M1843.88,-246.197C1832.22,-216.189 1798.32,-132.913 1775,-116 1704.05,-64.5383 1068.41,-22.3174 917.183,-12.9429"/>
<polygon fill="midnightblue" stroke="midnightblue" points="917.343,-9.44614 907.146,-12.325 916.912,-16.4329 917.343,-9.44614"/>
</g>
<!-- Node54&#45;&gt;Node8 -->
<g id="edge262" class="edge"><title>Node54&#45;&gt;Node8</title>
<path fill="none" stroke="midnightblue" d="M1900.46,-254.37C1948.68,-252.001 2022.14,-248.515 2086,-246 2147.43,-243.581 3144.42,-248.93 3192,-210 3224.86,-183.115 3236.1,-148.679 3209,-116 3142.02,-35.2377 2800.57,-16.1859 2687.45,-12.0593"/>
<polygon fill="midnightblue" stroke="midnightblue" points="2687.35,-8.5538 2677.24,-11.705 2687.11,-15.5496 2687.35,-8.5538"/>
</g>
<!-- Node54&#45;&gt;Node9 -->
<g id="edge256" class="edge"><title>Node54&#45;&gt;Node9</title>
<path fill="none" stroke="midnightblue" d="M1844.16,-246.345C1840.99,-236.93 1836.73,-222.752 1835,-210 1832.85,-194.145 1833.16,-189.894 1835,-174 1836.02,-165.202 1838.07,-155.657 1840.13,-147.483"/>
<polygon fill="midnightblue" stroke="midnightblue" points="1843.54,-148.268 1842.75,-137.703 1836.78,-146.454 1843.54,-148.268"/>
</g>
<!-- Node54&#45;&gt;Node14 -->
<g id="edge260" class="edge"><title>Node54&#45;&gt;Node14</title>
<path fill="none" stroke="midnightblue" d="M1795.75,-252.716C1689.75,-243.777 1458.47,-222.896 1447,-210 1436.37,-198.046 1440.3,-188.531 1447,-174 1452.77,-161.489 1463.69,-151.071 1474.29,-143.249"/>
<polygon fill="midnightblue" stroke="midnightblue" points="1476.34,-146.082 1482.62,-137.542 1472.39,-140.308 1476.34,-146.082"/>
</g>
<!-- Node54&#45;&gt;Node55 -->
<g id="edge264" class="edge"><title>Node54&#45;&gt;Node55</title>
<path fill="none" stroke="midnightblue" d="M1900.46,-254.379C1948.68,-252.017 2022.14,-248.535 2086,-246 2146.26,-243.608 3126.07,-250.228 3171,-210 3188.05,-194.738 3188.69,-166.935 3186.64,-147.74"/>
<polygon fill="midnightblue" stroke="midnightblue" points="3190.07,-147.015 3185.23,-137.593 3183.14,-147.98 3190.07,-147.015"/>
</g>
<!-- Node56 -->
<g id="node189" class="node"><title>Node56</title>
<polygon fill="white" stroke="#bfbfbf" points="1843.5,-181.5 1843.5,-202.5 1890.5,-202.5 1890.5,-181.5 1843.5,-181.5"/>
<text text-anchor="middle" x="1867" y="-189.5" font-family="Helvetica,sans-Serif" font-size="10.00">iterator</text>
</g>
<!-- Node54&#45;&gt;Node56 -->
<g id="edge266" class="edge"><title>Node54&#45;&gt;Node56</title>
<path fill="none" stroke="midnightblue" d="M1851.14,-246.267C1853.82,-237.085 1857.76,-223.615 1861.04,-212.392"/>
<polygon fill="midnightblue" stroke="midnightblue" points="1864.47,-213.114 1863.92,-202.534 1857.76,-211.15 1864.47,-213.114"/>
</g>
<!-- Node57&#45;&gt;Node7 -->
<g id="edge278" class="edge"><title>Node57&#45;&gt;Node7</title>
<path fill="none" stroke="midnightblue" d="M1935.9,-181.451C1919.47,-154.29 1871.24,-82.3767 1808,-58 1723.57,-25.4535 1071.22,-13.7709 917.413,-11.4544"/>
<polygon fill="midnightblue" stroke="midnightblue" points="917.265,-7.95192 907.214,-11.3036 917.162,-14.9512 917.265,-7.95192"/>
</g>
<!-- Node57&#45;&gt;Node10 -->
<g id="edge280" class="edge"><title>Node57&#45;&gt;Node10</title>
<path fill="none" stroke="midnightblue" d="M1920.57,-181.486C1913.82,-178.596 1906.23,-175.773 1899,-174 1714.45,-128.766 1662.23,-155.205 1473,-138 1448.2,-135.745 1420.36,-133.037 1398.52,-130.872"/>
<polygon fill="midnightblue" stroke="midnightblue" points="1398.62,-127.365 1388.32,-129.857 1397.92,-134.33 1398.62,-127.365"/>
</g>
<!-- Node57&#45;&gt;Node16 -->
<g id="edge274" class="edge"><title>Node57&#45;&gt;Node16</title>
<path fill="none" stroke="midnightblue" d="M1976.2,-186.953C2001.09,-183.3 2035.63,-178.273 2066,-174 2178.32,-158.197 2311.34,-140.309 2374.37,-131.883"/>
<polygon fill="midnightblue" stroke="midnightblue" points="2375.14,-135.311 2384.59,-130.518 2374.21,-128.373 2375.14,-135.311"/>
</g>
<!-- Node57&#45;&gt;Node17 -->
<g id="edge276" class="edge"><title>Node57&#45;&gt;Node17</title>
<path fill="none" stroke="midnightblue" d="M1976.26,-187.703C2008.04,-183.805 2056.67,-178.064 2099,-174 2324.82,-152.319 2598.66,-133.955 2681.26,-128.587"/>
<polygon fill="midnightblue" stroke="midnightblue" points="2681.67,-132.068 2691.42,-127.93 2681.21,-125.083 2681.67,-132.068"/>
</g>
<!-- Node57&#45;&gt;Node41 -->
<g id="edge282" class="edge"><title>Node57&#45;&gt;Node41</title>
<path fill="none" stroke="midnightblue" d="M1918.07,-181.456C1911.91,-178.886 1905.25,-176.236 1899,-174 1857.42,-159.122 1808.55,-145.009 1776.52,-136.202"/>
<polygon fill="midnightblue" stroke="midnightblue" points="1777.3,-132.789 1766.74,-133.534 1775.46,-139.542 1777.3,-132.789"/>
</g>
<!-- Node58 -->
<g id="node194" class="node"><title>Node58</title>
<polygon fill="white" stroke="#bfbfbf" points="1926,-116.5 1926,-137.5 2046,-137.5 2046,-116.5 1926,-116.5"/>
<text text-anchor="middle" x="1986" y="-124.5" font-family="Helvetica,sans-Serif" font-size="10.00">base/cereal/access.hpp</text>
</g>
<!-- Node57&#45;&gt;Node58 -->
<g id="edge272" class="edge"><title>Node57&#45;&gt;Node58</title>
<path fill="none" stroke="midnightblue" d="M1949.27,-181.267C1955.74,-171.707 1965.36,-157.496 1973.13,-146.015"/>
<polygon fill="midnightblue" stroke="midnightblue" points="1976.16,-147.777 1978.87,-137.534 1970.37,-143.853 1976.16,-147.777"/>
</g>
<!-- Node60&#45;&gt;Node14 -->
<g id="edge296" class="edge"><title>Node60&#45;&gt;Node14</title>
<path fill="none" stroke="midnightblue" d="M2457.76,-186.158C2423.4,-182.251 2376.46,-177.248 2335,-174 2028.85,-150.011 1951.45,-157.778 1645,-138 1606.44,-135.512 1562.09,-131.998 1533.13,-129.617"/>
<polygon fill="midnightblue" stroke="midnightblue" points="1533.08,-126.101 1522.83,-128.764 1532.51,-133.077 1533.08,-126.101"/>
</g>
<!-- Node60&#45;&gt;Node16 -->
<g id="edge298" class="edge"><title>Node60&#45;&gt;Node16</title>
<path fill="none" stroke="midnightblue" d="M2491.15,-181.267C2475.91,-170.949 2452.67,-155.216 2435.14,-143.342"/>
<polygon fill="midnightblue" stroke="midnightblue" points="2436.8,-140.242 2426.56,-137.534 2432.88,-146.038 2436.8,-140.242"/>
</g>
<!-- Node60&#45;&gt;Node24 -->
<g id="edge304" class="edge"><title>Node60&#45;&gt;Node24</title>
<path fill="none" stroke="midnightblue" d="M2457.79,-185.738C2423.44,-181.64 2376.5,-176.583 2335,-174 1539.05,-124.453 1337.62,-175.371 541,-138 502.41,-136.19 458.289,-132.762 428.134,-130.213"/>
<polygon fill="midnightblue" stroke="midnightblue" points="428.345,-126.718 418.083,-129.351 427.747,-133.692 428.345,-126.718"/>
</g>
<!-- Node60&#45;&gt;Node55 -->
<g id="edge300" class="edge"><title>Node60&#45;&gt;Node55</title>
<path fill="none" stroke="midnightblue" d="M2536.17,-181.475C2545.29,-178.585 2555.46,-175.764 2565,-174 2807.63,-129.121 2873.96,-166.938 3119,-138 3130.96,-136.587 3144.09,-134.437 3155.32,-132.412"/>
<polygon fill="midnightblue" stroke="midnightblue" points="3156.22,-135.805 3165.42,-130.536 3154.94,-128.923 3156.22,-135.805"/>
</g>
<!-- Node61 -->
<g id="node212" class="node"><title>Node61</title>
<polygon fill="white" stroke="#bfbfbf" points="2492,-116.5 2492,-137.5 2522,-137.5 2522,-116.5 2492,-116.5"/>
<text text-anchor="middle" x="2507" y="-124.5" font-family="Helvetica,sans-Serif" font-size="10.00">set</text>
</g>
<!-- Node60&#45;&gt;Node61 -->
<g id="edge302" class="edge"><title>Node60&#45;&gt;Node61</title>
<path fill="none" stroke="midnightblue" d="M2507,-181.267C2507,-172.18 2507,-158.892 2507,-147.74"/>
<polygon fill="midnightblue" stroke="midnightblue" points="2510.5,-147.534 2507,-137.534 2503.5,-147.534 2510.5,-147.534"/>
</g>
<!-- Node62&#45;&gt;Node7 -->
<g id="edge312" class="edge"><title>Node62&#45;&gt;Node7</title>
<path fill="none" stroke="midnightblue" d="M3123.65,-174.754C3129.04,-157.529 3133.59,-131.453 3119,-116 3039.93,-32.2353 1187.35,-13.5384 917.634,-11.2573"/>
<polygon fill="midnightblue" stroke="midnightblue" points="917.368,-7.75502 907.339,-11.1717 917.309,-14.7548 917.368,-7.75502"/>
</g>
<!-- Node62&#45;&gt;Node14 -->
<g id="edge308" class="edge"><title>Node62&#45;&gt;Node14</title>
<path fill="none" stroke="midnightblue" d="M3071.37,-181.51C3056.65,-178.546 3040.21,-175.674 3025,-174 2415.14,-106.862 2257.73,-169.538 1645,-138 1606.41,-136.014 1562.06,-132.394 1533.12,-129.851"/>
<polygon fill="midnightblue" stroke="midnightblue" points="1533.09,-126.334 1522.82,-128.934 1532.47,-133.307 1533.09,-126.334"/>
</g>
<!-- Node62&#45;&gt;Node16 -->
<g id="edge316" class="edge"><title>Node62&#45;&gt;Node16</title>
<path fill="none" stroke="midnightblue" d="M3071.33,-181.877C3056.6,-178.932 3040.17,-175.98 3025,-174 2785.61,-142.759 2722.99,-164.254 2483,-138 2471.36,-136.726 2458.71,-134.934 2447.31,-133.165"/>
<polygon fill="midnightblue" stroke="midnightblue" points="2447.69,-129.68 2437.26,-131.563 2446.59,-136.593 2447.69,-129.68"/>
</g>
<!-- Node62&#45;&gt;Node17 -->
<g id="edge310" class="edge"><title>Node62&#45;&gt;Node17</title>
<path fill="none" stroke="midnightblue" d="M3071.22,-182.603C3056.49,-179.698 3040.08,-176.584 3025,-174 2915.57,-155.244 2784.23,-137.339 2730.61,-130.225"/>
<polygon fill="midnightblue" stroke="midnightblue" points="2731.04,-126.751 2720.67,-128.911 2730.12,-133.691 2731.04,-126.751"/>
</g>
<!-- Node62&#45;&gt;Node19 -->
<g id="edge320" class="edge"><title>Node62&#45;&gt;Node19</title>
<path fill="none" stroke="midnightblue" d="M3087.84,-174.922C3070.82,-164.957 3049.5,-152.473 3032.89,-142.745"/>
<polygon fill="midnightblue" stroke="midnightblue" points="3034.6,-139.691 3024.2,-137.658 3031.06,-145.732 3034.6,-139.691"/>
</g>
<!-- Node62&#45;&gt;Node51 -->
<g id="edge318" class="edge"><title>Node62&#45;&gt;Node51</title>
<path fill="none" stroke="midnightblue" d="M3107.54,-174.922C3102.77,-166.304 3096.95,-155.802 3091.98,-146.828"/>
<polygon fill="midnightblue" stroke="midnightblue" points="3094.92,-144.904 3087.01,-137.852 3088.79,-148.296 3094.92,-144.904"/>
</g>
<!-- Node62&#45;&gt;Node55 -->
<g id="edge314" class="edge"><title>Node62&#45;&gt;Node55</title>
<path fill="none" stroke="midnightblue" d="M3134.34,-174.922C3143.65,-165.754 3155.12,-154.454 3164.59,-145.129"/>
<polygon fill="midnightblue" stroke="midnightblue" points="3167.31,-147.363 3171.98,-137.852 3162.4,-142.375 3167.31,-147.363"/>
</g>
<!-- Node66&#45;&gt;Node4 -->
<g id="edge350" class="edge"><title>Node66&#45;&gt;Node4</title>
<path fill="none" stroke="midnightblue" d="M1082.61,-304.497C1130.88,-294.673 1203.04,-279.988 1254.33,-269.551"/>
<polygon fill="midnightblue" stroke="midnightblue" points="1255.19,-272.947 1264.29,-267.523 1253.79,-266.088 1255.19,-272.947"/>
</g>
<!-- Node66&#45;&gt;Node5 -->
<g id="edge340" class="edge"><title>Node66&#45;&gt;Node5</title>
<path fill="none" stroke="midnightblue" d="M1028.09,-304.238C1024.87,-290.242 1021.11,-265.302 1029,-246 1035.04,-231.225 1047.29,-218.311 1058.49,-208.819"/>
<polygon fill="midnightblue" stroke="midnightblue" points="1060.72,-211.51 1066.35,-202.535 1056.36,-206.041 1060.72,-211.51"/>
</g>
<!-- Node66&#45;&gt;Node14 -->
<g id="edge356" class="edge"><title>Node66&#45;&gt;Node14</title>
<path fill="none" stroke="midnightblue" d="M1068.56,-304.446C1097.95,-295.781 1139.63,-282.593 1175,-268 1201.46,-257.084 1265.53,-224.852 1290,-210 1313.41,-195.791 1315.33,-185.888 1340,-174 1393.24,-148.343 1411.43,-155.099 1468,-138 1469.07,-137.677 1470.16,-137.345 1471.25,-137.007"/>
<polygon fill="midnightblue" stroke="midnightblue" points="1472.7,-140.221 1481.18,-133.876 1470.59,-133.545 1472.7,-140.221"/>
</g>
<!-- Node66&#45;&gt;Node63 -->
<g id="edge352" class="edge"><title>Node66&#45;&gt;Node63</title>
<path fill="none" stroke="midnightblue" d="M988.081,-304.497C942.732,-293.399 872.037,-276.098 829.649,-265.724"/>
<polygon fill="midnightblue" stroke="midnightblue" points="830.317,-262.285 819.772,-263.307 828.653,-269.084 830.317,-262.285"/>
</g>
<!-- Node66&#45;&gt;Node64 -->
<g id="edge354" class="edge"><title>Node66&#45;&gt;Node64</title>
<path fill="none" stroke="midnightblue" d="M965.798,-310.875C787.121,-299.568 302.32,-268.858 294,-268 280.433,-266.601 265.586,-264.593 252.58,-262.675"/>
<polygon fill="midnightblue" stroke="midnightblue" points="253.015,-259.201 242.605,-261.17 251.971,-266.123 253.015,-259.201"/>
</g>
<!-- Node67 -->
<g id="node238" class="node"><title>Node67</title>
<a xlink:href="piecewise__interval_8h.html" target="_top" xlink:title="base/piecewise_interval.h">
<polygon fill="white" stroke="black" points="1037.5,-246.5 1037.5,-267.5 1166.5,-267.5 1166.5,-246.5 1037.5,-246.5"/>
<text text-anchor="middle" x="1102" y="-254.5" font-family="Helvetica,sans-Serif" font-size="10.00">base/piecewise_interval.h</text>
</a>
</g>
<!-- Node66&#45;&gt;Node67 -->
<g id="edge342" class="edge"><title>Node66&#45;&gt;Node67</title>
<path fill="none" stroke="midnightblue" d="M1044.02,-304.362C1054.43,-295.859 1069.22,-283.779 1081.26,-273.947"/>
<polygon fill="midnightblue" stroke="midnightblue" points="1083.53,-276.608 1089.06,-267.571 1079.1,-271.187 1083.53,-276.608"/>
</g>
<!-- Node67&#45;&gt;Node5 -->
<g id="edge344" class="edge"><title>Node67&#45;&gt;Node5</title>
<path fill="none" stroke="midnightblue" d="M1098.7,-246.267C1095.87,-237.085 1091.73,-223.615 1088.27,-212.392"/>
<polygon fill="midnightblue" stroke="midnightblue" points="1091.53,-211.062 1085.24,-202.534 1084.84,-213.121 1091.53,-211.062"/>
</g>
<!-- Node67&#45;&gt;Node6 -->
<g id="edge346" class="edge"><title>Node67&#45;&gt;Node6</title>
<path fill="none" stroke="midnightblue" d="M1162.95,-246.426C1192.9,-239.326 1228.56,-227.896 1257,-210 1275.37,-198.441 1271.56,-185.45 1290,-174 1338.75,-143.726 1359.52,-156.037 1414,-138 1440.57,-129.204 1445.67,-122.038 1473,-116 1580.14,-92.3259 1914.93,-75.9033 2032.6,-70.7347"/>
<polygon fill="midnightblue" stroke="midnightblue" points="2032.81,-74.2289 2042.65,-70.2975 2032.51,-67.2355 2032.81,-74.2289"/>
</g>
<!-- Node67&#45;&gt;Node7 -->
<g id="edge348" class="edge"><title>Node67&#45;&gt;Node7</title>
<path fill="none" stroke="midnightblue" d="M1037.38,-250.718C979.769,-244.055 893.572,-231.458 821,-210 782.441,-198.599 776.472,-185.69 738,-174 652.839,-148.123 598,-206.36 541,-138 453.968,-33.6229 751.282,-15.0116 852.468,-11.7085"/>
<polygon fill="midnightblue" stroke="midnightblue" points="852.827,-15.1995 862.719,-11.405 852.62,-8.20257 852.827,-15.1995"/>
</g>
</g>
</svg>
