<?xml version="1.0" encoding="UTF-8" standalone="no"?>
<!DOCTYPE svg PUBLIC "-//W3C//DTD SVG 1.1//EN"
 "http://www.w3.org/Graphics/SVG/1.1/DTD/svg11.dtd">
<!-- Generated by graphviz version 2.26.3 (20100126.1600)
 -->
<!-- Title: src/calibration/fitfunctions/KnobsTF1.h Pages: 1 -->
<svg width="2882pt" height="404pt"
 viewBox="0.00 0.00 2882.00 404.00" xmlns="http://www.w3.org/2000/svg" xmlns:xlink="http://www.w3.org/1999/xlink">
<g id="graph1" class="graph" transform="scale(1 1) rotate(0) translate(4 400)">
<title>src/calibration/fitfunctions/KnobsTF1.h</title>
<polygon fill="white" stroke="white" points="-4,5 -4,-400 2879,-400 2879,5 -4,5"/>
<!-- Node1 -->
<g id="node1" class="node"><title>Node1</title>
<polygon fill="#bfbfbf" stroke="black" points="1517,-361 1517,-395 1645,-395 1645,-361 1517,-361"/>
<text text-anchor="start" x="1525" y="-382" font-family="Helvetica,sans-Serif" font-size="10.00">src/calibration/fitfunctions</text>
<text text-anchor="middle" x="1581" y="-369" font-family="Helvetica,sans-Serif" font-size="10.00">/KnobsTF1.h</text>
</g>
<!-- Node2 -->
<g id="node3" class="node"><title>Node2</title>
<a xlink:href="_fit_function_8h.html" target="_top" xlink:title="src/calibration/fitfunctions\l/FitFunction.h">
<polygon fill="white" stroke="black" points="1444,-289 1444,-323 1572,-323 1572,-289 1444,-289"/>
<text text-anchor="start" x="1452" y="-310" font-family="Helvetica,sans-Serif" font-size="10.00">src/calibration/fitfunctions</text>
<text text-anchor="middle" x="1508" y="-297" font-family="Helvetica,sans-Serif" font-size="10.00">/FitFunction.h</text>
</a>
</g>
<!-- Node1&#45;&gt;Node2 -->
<g id="edge2" class="edge"><title>Node1&#45;&gt;Node2</title>
<path fill="none" stroke="midnightblue" d="M1556.57,-353.908C1546.37,-343.844 1534.75,-332.38 1525.43,-323.19"/>
<polygon fill="midnightblue" stroke="midnightblue" points="1554.12,-356.407 1563.7,-360.937 1559.04,-351.423 1554.12,-356.407"/>
</g>
<!-- Node39 -->
<g id="node102" class="node"><title>Node39</title>
<a xlink:href="_knobs_t_f1_8cc.html" target="_top" xlink:title="src/calibration/fitfunctions\l/KnobsTF1.cc">
<polygon fill="white" stroke="black" points="1590,-289 1590,-323 1718,-323 1718,-289 1590,-289"/>
<text text-anchor="start" x="1598" y="-310" font-family="Helvetica,sans-Serif" font-size="10.00">src/calibration/fitfunctions</text>
<text text-anchor="middle" x="1654" y="-297" font-family="Helvetica,sans-Serif" font-size="10.00">/KnobsTF1.cc</text>
</a>
</g>
<!-- Node1&#45;&gt;Node39 -->
<g id="edge126" class="edge"><title>Node1&#45;&gt;Node39</title>
<path fill="none" stroke="midnightblue" d="M1605.43,-353.908C1615.63,-343.844 1627.25,-332.38 1636.57,-323.19"/>
<polygon fill="midnightblue" stroke="midnightblue" points="1602.96,-351.423 1598.3,-360.937 1607.88,-356.407 1602.96,-351.423"/>
</g>
<!-- Node3 -->
<g id="node5" class="node"><title>Node3</title>
<a xlink:href="_fit_function_8cc.html" target="_top" xlink:title="src/calibration/fitfunctions\l/FitFunction.cc">
<polygon fill="white" stroke="black" points="490,-217 490,-251 618,-251 618,-217 490,-217"/>
<text text-anchor="start" x="498" y="-238" font-family="Helvetica,sans-Serif" font-size="10.00">src/calibration/fitfunctions</text>
<text text-anchor="middle" x="554" y="-225" font-family="Helvetica,sans-Serif" font-size="10.00">/FitFunction.cc</text>
</a>
</g>
<!-- Node2&#45;&gt;Node3 -->
<g id="edge4" class="edge"><title>Node2&#45;&gt;Node3</title>
<path fill="none" stroke="midnightblue" d="M1433.88,-303.182C1250.99,-295.95 781.806,-275.632 627,-252 624.161,-251.567 621.271,-251.075 618.36,-250.538"/>
<polygon fill="midnightblue" stroke="midnightblue" points="1433.81,-306.682 1443.94,-303.578 1434.09,-299.687 1433.81,-306.682"/>
</g>
<!-- Node4 -->
<g id="node7" class="node"><title>Node4</title>
<a xlink:href="_fit_gaus_8h.html" target="_top" xlink:title="src/calibration/fitfunctions\l/FitGaus.h">
<polygon fill="white" stroke="black" points="636,-217 636,-251 764,-251 764,-217 636,-217"/>
<text text-anchor="start" x="644" y="-238" font-family="Helvetica,sans-Serif" font-size="10.00">src/calibration/fitfunctions</text>
<text text-anchor="middle" x="700" y="-225" font-family="Helvetica,sans-Serif" font-size="10.00">/FitGaus.h</text>
</a>
</g>
<!-- Node2&#45;&gt;Node4 -->
<g id="edge6" class="edge"><title>Node2&#45;&gt;Node4</title>
<path fill="none" stroke="midnightblue" d="M1433.87,-299.394C1276.64,-285.383 912.013,-252.892 764.084,-239.71"/>
<polygon fill="midnightblue" stroke="midnightblue" points="1433.65,-302.889 1443.92,-300.29 1434.27,-295.916 1433.65,-302.889"/>
</g>
<!-- Node16 -->
<g id="node33" class="node"><title>Node16</title>
<a xlink:href="calibration_2modules_2_time_8cc.html" target="_top" xlink:title="src/calibration/modules\l/Time.cc">
<polygon fill="white" stroke="black" points="1449.5,-73 1449.5,-107 1566.5,-107 1566.5,-73 1449.5,-73"/>
<text text-anchor="start" x="1457.5" y="-94" font-family="Helvetica,sans-Serif" font-size="10.00">src/calibration/modules</text>
<text text-anchor="middle" x="1508" y="-81" font-family="Helvetica,sans-Serif" font-size="10.00">/Time.cc</text>
</a>
</g>
<!-- Node2&#45;&gt;Node16 -->
<g id="edge124" class="edge"><title>Node2&#45;&gt;Node16</title>
<path fill="none" stroke="midnightblue" d="M1508,-278.43C1508,-233.151 1508,-144.35 1508,-107.094"/>
<polygon fill="midnightblue" stroke="midnightblue" points="1504.5,-278.689 1508,-288.689 1511.5,-278.689 1504.5,-278.689"/>
</g>
<!-- Node17 -->
<g id="node39" class="node"><title>Node17</title>
<a xlink:href="_fit_gaus_pol0_8h.html" target="_top" xlink:title="src/calibration/fitfunctions\l/FitGausPol0.h">
<polygon fill="white" stroke="black" points="642,-73 642,-107 770,-107 770,-73 642,-73"/>
<text text-anchor="start" x="650" y="-94" font-family="Helvetica,sans-Serif" font-size="10.00">src/calibration/fitfunctions</text>
<text text-anchor="middle" x="706" y="-81" font-family="Helvetica,sans-Serif" font-size="10.00">/FitGausPol0.h</text>
</a>
</g>
<!-- Node2&#45;&gt;Node17 -->
<g id="edge44" class="edge"><title>Node2&#45;&gt;Node17</title>
<path fill="none" stroke="midnightblue" d="M1507.07,-278.695C1504.19,-241.571 1493.05,-176.126 1451,-144 1397.51,-103.135 940.741,-93.0357 770.023,-90.6783"/>
<polygon fill="midnightblue" stroke="midnightblue" points="1503.58,-279.04 1507.7,-288.802 1510.57,-278.602 1503.58,-279.04"/>
</g>
<!-- Node19 -->
<g id="node47" class="node"><title>Node19</title>
<a xlink:href="_fit_gaus_pol1_8h.html" target="_top" xlink:title="src/calibration/fitfunctions\l/FitGausPol1.h">
<polygon fill="white" stroke="black" points="2040,-217 2040,-251 2168,-251 2168,-217 2040,-217"/>
<text text-anchor="start" x="2048" y="-238" font-family="Helvetica,sans-Serif" font-size="10.00">src/calibration/fitfunctions</text>
<text text-anchor="middle" x="2104" y="-225" font-family="Helvetica,sans-Serif" font-size="10.00">/FitGausPol1.h</text>
</a>
</g>
<!-- Node2&#45;&gt;Node19 -->
<g id="edge56" class="edge"><title>Node2&#45;&gt;Node19</title>
<path fill="none" stroke="midnightblue" d="M1582.39,-287.927C1684.3,-271.403 1924.29,-249.587 2039.87,-239.498"/>
<polygon fill="midnightblue" stroke="midnightblue" points="1581.66,-284.499 1572.38,-289.61 1582.83,-291.402 1581.66,-284.499"/>
</g>
<!-- Node22 -->
<g id="node53" class="node"><title>Node22</title>
<a xlink:href="_fit_gaus_pol3_8h.html" target="_top" xlink:title="src/calibration/fitfunctions\l/FitGausPol3.h">
<polygon fill="white" stroke="black" points="911,-217 911,-251 1039,-251 1039,-217 911,-217"/>
<text text-anchor="start" x="919" y="-238" font-family="Helvetica,sans-Serif" font-size="10.00">src/calibration/fitfunctions</text>
<text text-anchor="middle" x="975" y="-225" font-family="Helvetica,sans-Serif" font-size="10.00">/FitGausPol3.h</text>
</a>
</g>
<!-- Node2&#45;&gt;Node22 -->
<g id="edge62" class="edge"><title>Node2&#45;&gt;Node22</title>
<path fill="none" stroke="midnightblue" d="M1433.77,-295.972C1328.72,-281.782 1138.45,-256.079 1039.18,-242.669"/>
<polygon fill="midnightblue" stroke="midnightblue" points="1433.59,-299.481 1443.97,-297.351 1434.53,-292.544 1433.59,-299.481"/>
</g>
<!-- Node26 -->
<g id="node63" class="node"><title>Node26</title>
<a xlink:href="_fit_landau_8h.html" target="_top" xlink:title="src/calibration/fitfunctions\l/FitLandau.h">
<polygon fill="white" stroke="black" points="1186,-217 1186,-251 1314,-251 1314,-217 1186,-217"/>
<text text-anchor="start" x="1194" y="-238" font-family="Helvetica,sans-Serif" font-size="10.00">src/calibration/fitfunctions</text>
<text text-anchor="middle" x="1250" y="-225" font-family="Helvetica,sans-Serif" font-size="10.00">/FitLandau.h</text>
</a>
</g>
<!-- Node2&#45;&gt;Node26 -->
<g id="edge74" class="edge"><title>Node2&#45;&gt;Node26</title>
<path fill="none" stroke="midnightblue" d="M1437.03,-286.195C1397.56,-275.179 1348.93,-261.608 1311.15,-251.065"/>
<polygon fill="midnightblue" stroke="midnightblue" points="1436.28,-289.62 1446.86,-288.937 1438.17,-282.878 1436.28,-289.62"/>
</g>
<!-- Node29 -->
<g id="node71" class="node"><title>Node29</title>
<a xlink:href="_fit_landau_pol0_8h.html" target="_top" xlink:title="src/calibration/fitfunctions\l/FitLandauPol0.h">
<polygon fill="white" stroke="black" points="2186,-217 2186,-251 2314,-251 2314,-217 2186,-217"/>
<text text-anchor="start" x="2194" y="-238" font-family="Helvetica,sans-Serif" font-size="10.00">src/calibration/fitfunctions</text>
<text text-anchor="middle" x="2250" y="-225" font-family="Helvetica,sans-Serif" font-size="10.00">/FitLandauPol0.h</text>
</a>
</g>
<!-- Node2&#45;&gt;Node29 -->
<g id="edge84" class="edge"><title>Node2&#45;&gt;Node29</title>
<path fill="none" stroke="midnightblue" d="M1582.58,-287.924C1845.19,-249.17 1917.98,-291.423 2177,-252 2179.84,-251.568 2182.73,-251.077 2185.64,-250.541"/>
<polygon fill="midnightblue" stroke="midnightblue" points="1581.73,-284.513 1572.36,-289.459 1582.77,-291.435 1581.73,-284.513"/>
</g>
<!-- Node32 -->
<g id="node77" class="node"><title>Node32</title>
<a xlink:href="_fit_timewalk_8h.html" target="_top" xlink:title="src/calibration/fitfunctions\l/FitTimewalk.h">
<polygon fill="white" stroke="black" points="2606,-217 2606,-251 2734,-251 2734,-217 2606,-217"/>
<text text-anchor="start" x="2614" y="-238" font-family="Helvetica,sans-Serif" font-size="10.00">src/calibration/fitfunctions</text>
<text text-anchor="middle" x="2670" y="-225" font-family="Helvetica,sans-Serif" font-size="10.00">/FitTimewalk.h</text>
</a>
</g>
<!-- Node2&#45;&gt;Node32 -->
<g id="edge90" class="edge"><title>Node2&#45;&gt;Node32</title>
<path fill="none" stroke="midnightblue" d="M1582.59,-287.929C1909.48,-240.831 1996.63,-268.382 2323,-252 2421.66,-247.048 2536.08,-241.066 2605.73,-237.398"/>
<polygon fill="midnightblue" stroke="midnightblue" points="1581.75,-284.515 1572.35,-289.417 1582.75,-291.442 1581.75,-284.515"/>
</g>
<!-- Node35 -->
<g id="node83" class="node"><title>Node35</title>
<a xlink:href="_cal_canvas_8h.html" target="_top" xlink:title="src/calibration/gui\l/CalCanvas.h">
<polygon fill="white" stroke="black" points="1633.5,-217 1633.5,-251 1726.5,-251 1726.5,-217 1633.5,-217"/>
<text text-anchor="start" x="1641.5" y="-238" font-family="Helvetica,sans-Serif" font-size="10.00">src/calibration/gui</text>
<text text-anchor="middle" x="1680" y="-225" font-family="Helvetica,sans-Serif" font-size="10.00">/CalCanvas.h</text>
</a>
</g>
<!-- Node2&#45;&gt;Node35 -->
<g id="edge96" class="edge"><title>Node2&#45;&gt;Node35</title>
<path fill="none" stroke="midnightblue" d="M1558.01,-285.066C1583.82,-274.263 1614.9,-261.251 1639.23,-251.065"/>
<polygon fill="midnightblue" stroke="midnightblue" points="1556.63,-281.847 1548.76,-288.937 1559.34,-288.304 1556.63,-281.847"/>
</g>
<!-- Node36 -->
<g id="node85" class="node"><title>Node36</title>
<a xlink:href="_cal_canvas_8cc.html" target="_top" xlink:title="src/calibration/gui\l/CalCanvas.cc">
<polygon fill="white" stroke="black" points="1941.5,-145 1941.5,-179 2034.5,-179 2034.5,-145 1941.5,-145"/>
<text text-anchor="start" x="1949.5" y="-166" font-family="Helvetica,sans-Serif" font-size="10.00">src/calibration/gui</text>
<text text-anchor="middle" x="1988" y="-153" font-family="Helvetica,sans-Serif" font-size="10.00">/CalCanvas.cc</text>
</a>
</g>
<!-- Node2&#45;&gt;Node36 -->
<g id="edge122" class="edge"><title>Node2&#45;&gt;Node36</title>
<path fill="none" stroke="midnightblue" d="M1582.15,-287.76C1651.08,-271.566 1670.59,-270.92 1735,-252 1809.7,-230.058 1894.6,-198.443 1944.61,-179.114"/>
<polygon fill="midnightblue" stroke="midnightblue" points="1581,-284.435 1572.08,-290.152 1582.62,-291.245 1581,-284.435"/>
</g>
<!-- Node5 -->
<g id="node9" class="node"><title>Node5</title>
<a xlink:href="_fit_gaus_8cc.html" target="_top" xlink:title="src/calibration/fitfunctions\l/FitGaus.cc">
<polygon fill="white" stroke="black" points="0,-145 0,-179 128,-179 128,-145 0,-145"/>
<text text-anchor="start" x="8" y="-166" font-family="Helvetica,sans-Serif" font-size="10.00">src/calibration/fitfunctions</text>
<text text-anchor="middle" x="64" y="-153" font-family="Helvetica,sans-Serif" font-size="10.00">/FitGaus.cc</text>
</a>
</g>
<!-- Node4&#45;&gt;Node5 -->
<g id="edge8" class="edge"><title>Node4&#45;&gt;Node5</title>
<path fill="none" stroke="midnightblue" d="M625.66,-215.941C411.755,-182.913 352.472,-211.906 142,-180 137.466,-179.313 132.804,-178.503 128.124,-177.615"/>
<polygon fill="midnightblue" stroke="midnightblue" points="625.211,-219.413 635.633,-217.508 626.298,-212.498 625.211,-219.413"/>
</g>
<!-- Node6 -->
<g id="node11" class="node"><title>Node6</title>
<a xlink:href="calibration_2modules_2_p_i_d___energy_8cc.html" target="_top" xlink:title="src/calibration/modules\l/PID_Energy.cc">
<polygon fill="white" stroke="black" points="775.5,-145 775.5,-179 892.5,-179 892.5,-145 775.5,-145"/>
<text text-anchor="start" x="783.5" y="-166" font-family="Helvetica,sans-Serif" font-size="10.00">src/calibration/modules</text>
<text text-anchor="middle" x="834" y="-153" font-family="Helvetica,sans-Serif" font-size="10.00">/PID_Energy.cc</text>
</a>
</g>
<!-- Node4&#45;&gt;Node6 -->
<g id="edge10" class="edge"><title>Node4&#45;&gt;Node6</title>
<path fill="none" stroke="midnightblue" d="M740.79,-212.083C760.439,-201.525 783.659,-189.049 802.007,-179.19"/>
<polygon fill="midnightblue" stroke="midnightblue" points="738.908,-209.121 731.756,-216.937 742.222,-215.287 738.908,-209.121"/>
</g>
<!-- Node7 -->
<g id="node13" class="node"><title>Node7</title>
<a xlink:href="calibration_2modules_2_p_i_d___phi_angle_8cc.html" target="_top" xlink:title="src/calibration/modules\l/PID_PhiAngle.cc">
<polygon fill="white" stroke="black" points="641.5,-145 641.5,-179 758.5,-179 758.5,-145 641.5,-145"/>
<text text-anchor="start" x="649.5" y="-166" font-family="Helvetica,sans-Serif" font-size="10.00">src/calibration/modules</text>
<text text-anchor="middle" x="700" y="-153" font-family="Helvetica,sans-Serif" font-size="10.00">/PID_PhiAngle.cc</text>
</a>
</g>
<!-- Node4&#45;&gt;Node7 -->
<g id="edge12" class="edge"><title>Node4&#45;&gt;Node7</title>
<path fill="none" stroke="midnightblue" d="M700,-206.719C700,-197.572 700,-187.625 700,-179.441"/>
<polygon fill="midnightblue" stroke="midnightblue" points="696.5,-206.937 700,-216.937 703.5,-206.937 696.5,-206.937"/>
</g>
<!-- Node8 -->
<g id="node15" class="node"><title>Node8</title>
<a xlink:href="calibration_2modules_2_t_a_p_s___short_energy_8cc.html" target="_top" xlink:title="src/calibration/modules\l/TAPS_ShortEnergy.cc">
<polygon fill="white" stroke="black" points="909.5,-145 909.5,-179 1028.5,-179 1028.5,-145 909.5,-145"/>
<text text-anchor="start" x="917.5" y="-166" font-family="Helvetica,sans-Serif" font-size="10.00">src/calibration/modules</text>
<text text-anchor="middle" x="969" y="-153" font-family="Helvetica,sans-Serif" font-size="10.00">/TAPS_ShortEnergy.cc</text>
</a>
</g>
<!-- Node4&#45;&gt;Node8 -->
<g id="edge14" class="edge"><title>Node4&#45;&gt;Node8</title>
<path fill="none" stroke="midnightblue" d="M773.527,-214.32C816.224,-202.892 869.32,-188.68 909.394,-177.954"/>
<polygon fill="midnightblue" stroke="midnightblue" points="772.504,-210.97 763.749,-216.937 774.314,-217.732 772.504,-210.97"/>
</g>
<!-- Node9 -->
<g id="node17" class="node"><title>Node9</title>
<a xlink:href="calibration_2modules_2_time_8h.html" target="_top" xlink:title="src/calibration/modules\l/Time.h">
<polygon fill="white" stroke="black" points="285.5,-145 285.5,-179 402.5,-179 402.5,-145 285.5,-145"/>
<text text-anchor="start" x="293.5" y="-166" font-family="Helvetica,sans-Serif" font-size="10.00">src/calibration/modules</text>
<text text-anchor="middle" x="344" y="-153" font-family="Helvetica,sans-Serif" font-size="10.00">/Time.h</text>
</a>
</g>
<!-- Node4&#45;&gt;Node9 -->
<g id="edge16" class="edge"><title>Node4&#45;&gt;Node9</title>
<path fill="none" stroke="midnightblue" d="M626.046,-215.885C532.146,-196.771 506.011,-198.902 416,-180 411.713,-179.1 407.294,-178.121 402.855,-177.101"/>
<polygon fill="midnightblue" stroke="midnightblue" points="625.465,-219.339 635.966,-217.931 626.879,-212.483 625.465,-219.339"/>
</g>
<!-- Node12 -->
<g id="node23" class="node"><title>Node12</title>
<a xlink:href="_setup__2014___e_p_t_8cc.html" target="_top" xlink:title="src/expconfig/setups\l/Setup_2014_EPT.cc">
<polygon fill="white" stroke="black" points="186,-1 186,-35 296,-35 296,-1 186,-1"/>
<text text-anchor="start" x="194" y="-22" font-family="Helvetica,sans-Serif" font-size="10.00">src/expconfig/setups</text>
<text text-anchor="middle" x="241" y="-9" font-family="Helvetica,sans-Serif" font-size="10.00">/Setup_2014_EPT.cc</text>
</a>
</g>
<!-- Node4&#45;&gt;Node12 -->
<g id="edge40" class="edge"><title>Node4&#45;&gt;Node12</title>
<path fill="none" stroke="midnightblue" d="M625.547,-216.304C544.415,-208.717 212.206,-214.904 180,-180 147.45,-144.723 160.292,-115.767 180,-72 186.794,-56.911 200.12,-44.3349 212.587,-35.1265"/>
<polygon fill="midnightblue" stroke="midnightblue" points="625.28,-219.798 635.63,-217.53 626.125,-212.849 625.28,-219.798"/>
</g>
<!-- Node13 -->
<g id="node25" class="node"><title>Node13</title>
<a xlink:href="expconfig__helpers_8cc.html" target="_top" xlink:title="test/expconfig_helpers.cc">
<polygon fill="white" stroke="black" points="474,-7.5 474,-28.5 602,-28.5 602,-7.5 474,-7.5"/>
<text text-anchor="middle" x="538" y="-15.5" font-family="Helvetica,sans-Serif" font-size="10.00">test/expconfig_helpers.cc</text>
</a>
</g>
<!-- Node4&#45;&gt;Node13 -->
<g id="edge42" class="edge"><title>Node4&#45;&gt;Node13</title>
<path fill="none" stroke="midnightblue" d="M625.843,-216.015C544.479,-201.62 498.107,-240.034 449,-180 394.524,-113.404 530.017,-125.488 542,-108 558.62,-83.744 548.672,-46.5764 542.215,-28.5425"/>
<polygon fill="midnightblue" stroke="midnightblue" points="625.449,-219.506 635.942,-218.043 626.827,-212.643 625.449,-219.506"/>
</g>
<!-- Node10 -->
<g id="node19" class="node"><title>Node10</title>
<a xlink:href="_t_a_p_s___time_8h.html" target="_top" xlink:title="src/calibration/modules\l/TAPS_Time.h">
<polygon fill="white" stroke="black" points="259.5,-73 259.5,-107 376.5,-107 376.5,-73 259.5,-73"/>
<text text-anchor="start" x="267.5" y="-94" font-family="Helvetica,sans-Serif" font-size="10.00">src/calibration/modules</text>
<text text-anchor="middle" x="318" y="-81" font-family="Helvetica,sans-Serif" font-size="10.00">/TAPS_Time.h</text>
</a>
</g>
<!-- Node9&#45;&gt;Node10 -->
<g id="edge18" class="edge"><title>Node9&#45;&gt;Node10</title>
<path fill="none" stroke="midnightblue" d="M334.364,-135.315C331.002,-126.005 327.318,-115.803 324.298,-107.441"/>
<polygon fill="midnightblue" stroke="midnightblue" points="331.15,-136.72 337.838,-144.937 337.734,-134.343 331.15,-136.72"/>
</g>
<!-- Node9&#45;&gt;Node12 -->
<g id="edge36" class="edge"><title>Node9&#45;&gt;Node12</title>
<path fill="none" stroke="midnightblue" d="M287.099,-140.02C273.182,-131.991 259.782,-121.472 251,-108 236.663,-86.0061 236.776,-54.4077 238.587,-35.0952"/>
<polygon fill="midnightblue" stroke="midnightblue" points="285.809,-143.299 296.276,-144.942 289.118,-137.131 285.809,-143.299"/>
</g>
<!-- Node9&#45;&gt;Node13 -->
<g id="edge38" class="edge"><title>Node9&#45;&gt;Node13</title>
<path fill="none" stroke="midnightblue" d="M412.602,-144.391C458.323,-132.056 511.387,-116.342 519,-108 539.346,-85.7069 540.006,-47.2756 538.958,-28.6863"/>
<polygon fill="midnightblue" stroke="midnightblue" points="411.433,-141.081 402.678,-147.048 413.243,-147.843 411.433,-141.081"/>
</g>
<!-- Node14 -->
<g id="node27" class="node"><title>Node14</title>
<a xlink:href="_t_a_p_s_veto___time_8h.html" target="_top" xlink:title="src/calibration/modules\l/TAPSVeto_Time.h">
<polygon fill="white" stroke="black" points="393.5,-73 393.5,-107 510.5,-107 510.5,-73 393.5,-73"/>
<text text-anchor="start" x="401.5" y="-94" font-family="Helvetica,sans-Serif" font-size="10.00">src/calibration/modules</text>
<text text-anchor="middle" x="452" y="-81" font-family="Helvetica,sans-Serif" font-size="10.00">/TAPSVeto_Time.h</text>
</a>
</g>
<!-- Node9&#45;&gt;Node14 -->
<g id="edge26" class="edge"><title>Node9&#45;&gt;Node14</title>
<path fill="none" stroke="midnightblue" d="M377.954,-139.364C393.557,-128.962 411.761,-116.826 426.215,-107.19"/>
<polygon fill="midnightblue" stroke="midnightblue" points="375.974,-136.478 369.594,-144.937 379.856,-142.302 375.974,-136.478"/>
</g>
<!-- Node9&#45;&gt;Node16 -->
<g id="edge34" class="edge"><title>Node9&#45;&gt;Node16</title>
<path fill="none" stroke="midnightblue" d="M412.705,-149.018C424.766,-147.084 437.224,-145.305 449,-144 828.669,-101.928 1288.61,-92.5813 1449.25,-90.55"/>
<polygon fill="midnightblue" stroke="midnightblue" points="411.987,-145.589 402.691,-150.672 413.128,-152.496 411.987,-145.589"/>
</g>
<!-- Node11 -->
<g id="node21" class="node"><title>Node11</title>
<a xlink:href="_t_a_p_s___time_8cc.html" target="_top" xlink:title="src/calibration/modules\l/TAPS_Time.cc">
<polygon fill="white" stroke="black" points="322.5,-1 322.5,-35 439.5,-35 439.5,-1 322.5,-1"/>
<text text-anchor="start" x="330.5" y="-22" font-family="Helvetica,sans-Serif" font-size="10.00">src/calibration/modules</text>
<text text-anchor="middle" x="381" y="-9" font-family="Helvetica,sans-Serif" font-size="10.00">/TAPS_Time.cc</text>
</a>
</g>
<!-- Node10&#45;&gt;Node11 -->
<g id="edge20" class="edge"><title>Node10&#45;&gt;Node11</title>
<path fill="none" stroke="midnightblue" d="M339.544,-65.3785C348.157,-55.5349 357.877,-44.4262 365.739,-35.4407"/>
<polygon fill="midnightblue" stroke="midnightblue" points="336.881,-63.1064 332.93,-72.937 342.149,-67.716 336.881,-63.1064"/>
</g>
<!-- Node10&#45;&gt;Node12 -->
<g id="edge22" class="edge"><title>Node10&#45;&gt;Node12</title>
<path fill="none" stroke="midnightblue" d="M292.235,-65.9083C281.472,-55.8438 269.212,-44.3799 259.384,-35.19"/>
<polygon fill="midnightblue" stroke="midnightblue" points="290.057,-68.6635 299.752,-72.937 294.838,-63.5505 290.057,-68.6635"/>
</g>
<!-- Node10&#45;&gt;Node13 -->
<g id="edge24" class="edge"><title>Node10&#45;&gt;Node13</title>
<path fill="none" stroke="midnightblue" d="M379.747,-69.792C420.658,-56.4029 472.675,-39.379 505.666,-28.5821"/>
<polygon fill="midnightblue" stroke="midnightblue" points="378.552,-66.5002 370.137,-72.937 380.73,-73.1529 378.552,-66.5002"/>
</g>
<!-- Node14&#45;&gt;Node12 -->
<g id="edge30" class="edge"><title>Node14&#45;&gt;Node12</title>
<path fill="none" stroke="midnightblue" d="M392.312,-69.6326C360.332,-58.7201 321.383,-45.4292 291.01,-35.0651"/>
<polygon fill="midnightblue" stroke="midnightblue" points="391.401,-73.0199 401.996,-72.937 393.662,-66.395 391.401,-73.0199"/>
</g>
<!-- Node14&#45;&gt;Node13 -->
<g id="edge32" class="edge"><title>Node14&#45;&gt;Node13</title>
<path fill="none" stroke="midnightblue" d="M480.457,-66.1755C495.601,-53.4972 513.472,-38.5353 525.234,-28.688"/>
<polygon fill="midnightblue" stroke="midnightblue" points="477.802,-63.8339 472.381,-72.937 482.295,-69.2013 477.802,-63.8339"/>
</g>
<!-- Node15 -->
<g id="node29" class="node"><title>Node15</title>
<a xlink:href="_t_a_p_s_veto___time_8cc.html" target="_top" xlink:title="src/calibration/modules\l/TAPSVeto_Time.cc">
<polygon fill="white" stroke="black" points="619.5,-1 619.5,-35 736.5,-35 736.5,-1 619.5,-1"/>
<text text-anchor="start" x="627.5" y="-22" font-family="Helvetica,sans-Serif" font-size="10.00">src/calibration/modules</text>
<text text-anchor="middle" x="678" y="-9" font-family="Helvetica,sans-Serif" font-size="10.00">/TAPSVeto_Time.cc</text>
</a>
</g>
<!-- Node14&#45;&gt;Node15 -->
<g id="edge28" class="edge"><title>Node14&#45;&gt;Node15</title>
<path fill="none" stroke="midnightblue" d="M515.489,-69.7736C549.824,-58.8347 591.762,-45.4739 624.434,-35.0651"/>
<polygon fill="midnightblue" stroke="midnightblue" points="514.025,-66.5666 505.559,-72.937 516.149,-73.2363 514.025,-66.5666"/>
</g>
<!-- Node17&#45;&gt;Node11 -->
<g id="edge48" class="edge"><title>Node17&#45;&gt;Node11</title>
<path fill="none" stroke="midnightblue" d="M631.901,-73.5843C573.606,-60.6697 493.492,-42.9213 439.614,-30.9852"/>
<polygon fill="midnightblue" stroke="midnightblue" points="631.27,-77.0292 641.79,-75.7751 632.784,-70.1949 631.27,-77.0292"/>
</g>
<!-- Node17&#45;&gt;Node12 -->
<g id="edge52" class="edge"><title>Node17&#45;&gt;Node12</title>
<path fill="none" stroke="midnightblue" d="M631.485,-82.0915C552.345,-73.1432 423.772,-57.0342 314,-36 308.231,-34.8946 302.235,-33.6216 296.269,-32.2741"/>
<polygon fill="midnightblue" stroke="midnightblue" points="631.512,-85.6164 641.84,-83.2533 632.292,-78.66 631.512,-85.6164"/>
</g>
<!-- Node17&#45;&gt;Node13 -->
<g id="edge54" class="edge"><title>Node17&#45;&gt;Node13</title>
<path fill="none" stroke="midnightblue" d="M656.889,-68.9523C626.064,-55.7418 587.618,-39.2647 562.939,-28.688"/>
<polygon fill="midnightblue" stroke="midnightblue" points="655.616,-72.2148 666.186,-72.937 658.374,-65.7807 655.616,-72.2148"/>
</g>
<!-- Node17&#45;&gt;Node15 -->
<g id="edge50" class="edge"><title>Node17&#45;&gt;Node15</title>
<path fill="none" stroke="midnightblue" d="M695.738,-63.6116C692.087,-54.2225 688.069,-43.8924 684.782,-35.4407"/>
<polygon fill="midnightblue" stroke="midnightblue" points="692.478,-64.8855 699.364,-72.937 699.002,-62.3484 692.478,-64.8855"/>
</g>
<!-- Node18 -->
<g id="node41" class="node"><title>Node18</title>
<a xlink:href="_fit_gaus_pol0_8cc.html" target="_top" xlink:title="src/calibration/fitfunctions\l/FitGausPol0.cc">
<polygon fill="white" stroke="black" points="754,-1 754,-35 882,-35 882,-1 754,-1"/>
<text text-anchor="start" x="762" y="-22" font-family="Helvetica,sans-Serif" font-size="10.00">src/calibration/fitfunctions</text>
<text text-anchor="middle" x="818" y="-9" font-family="Helvetica,sans-Serif" font-size="10.00">/FitGausPol0.cc</text>
</a>
</g>
<!-- Node17&#45;&gt;Node18 -->
<g id="edge46" class="edge"><title>Node17&#45;&gt;Node18</title>
<path fill="none" stroke="midnightblue" d="M741.212,-67.3637C757.392,-56.9622 776.271,-44.826 791.26,-35.19"/>
<polygon fill="midnightblue" stroke="midnightblue" points="739.062,-64.5853 732.542,-72.937 742.847,-70.4735 739.062,-64.5853"/>
</g>
<!-- Node20 -->
<g id="node49" class="node"><title>Node20</title>
<a xlink:href="_fit_gaus_pol1_8cc.html" target="_top" xlink:title="src/calibration/fitfunctions\l/FitGausPol1.cc">
<polygon fill="white" stroke="black" points="2320,-145 2320,-179 2448,-179 2448,-145 2320,-145"/>
<text text-anchor="start" x="2328" y="-166" font-family="Helvetica,sans-Serif" font-size="10.00">src/calibration/fitfunctions</text>
<text text-anchor="middle" x="2384" y="-153" font-family="Helvetica,sans-Serif" font-size="10.00">/FitGausPol1.cc</text>
</a>
</g>
<!-- Node19&#45;&gt;Node20 -->
<g id="edge58" class="edge"><title>Node19&#45;&gt;Node20</title>
<path fill="none" stroke="midnightblue" d="M2178.02,-214.966C2222.05,-203.645 2277.36,-189.422 2319.58,-178.566"/>
<polygon fill="midnightblue" stroke="midnightblue" points="2177.05,-211.602 2168.24,-217.482 2178.79,-218.381 2177.05,-211.602"/>
</g>
<!-- Node21 -->
<g id="node51" class="node"><title>Node21</title>
<a xlink:href="_energy_8cc.html" target="_top" xlink:title="src/calibration/modules\l/Energy.cc">
<polygon fill="white" stroke="black" points="2051.5,-145 2051.5,-179 2168.5,-179 2168.5,-145 2051.5,-145"/>
<text text-anchor="start" x="2059.5" y="-166" font-family="Helvetica,sans-Serif" font-size="10.00">src/calibration/modules</text>
<text text-anchor="middle" x="2110" y="-153" font-family="Helvetica,sans-Serif" font-size="10.00">/Energy.cc</text>
</a>
</g>
<!-- Node19&#45;&gt;Node21 -->
<g id="edge60" class="edge"><title>Node19&#45;&gt;Node21</title>
<path fill="none" stroke="midnightblue" d="M2106.27,-206.719C2107.04,-197.572 2107.86,-187.625 2108.55,-179.441"/>
<polygon fill="midnightblue" stroke="midnightblue" points="2102.76,-206.681 2105.42,-216.937 2109.74,-207.262 2102.76,-206.681"/>
</g>
<!-- Node22&#45;&gt;Node12 -->
<g id="edge70" class="edge"><title>Node22&#45;&gt;Node12</title>
<path fill="none" stroke="midnightblue" d="M900.877,-227.101C862.688,-223.622 815.363,-219.425 773,-216 717.924,-211.548 323.734,-209.482 277,-180 233.576,-152.606 233.631,-123.288 236,-72 236.565,-59.7734 237.845,-46.0393 238.969,-35.4816"/>
<polygon fill="midnightblue" stroke="midnightblue" points="900.609,-230.591 910.886,-228.016 901.246,-223.621 900.609,-230.591"/>
</g>
<!-- Node22&#45;&gt;Node13 -->
<g id="edge72" class="edge"><title>Node22&#45;&gt;Node13</title>
<path fill="none" stroke="midnightblue" d="M900.668,-225.675C806.773,-214.637 654.742,-194.827 633,-180 604.312,-160.436 557.597,-61.2791 542.712,-28.5204"/>
<polygon fill="midnightblue" stroke="midnightblue" points="900.353,-229.162 910.691,-226.846 901.165,-222.21 900.353,-229.162"/>
</g>
<!-- Node23 -->
<g id="node55" class="node"><title>Node23</title>
<a xlink:href="_fit_gaus_pol3_8cc.html" target="_top" xlink:title="src/calibration/fitfunctions\l/FitGausPol3.cc">
<polygon fill="white" stroke="black" points="458,-145 458,-179 586,-179 586,-145 458,-145"/>
<text text-anchor="start" x="466" y="-166" font-family="Helvetica,sans-Serif" font-size="10.00">src/calibration/fitfunctions</text>
<text text-anchor="middle" x="522" y="-153" font-family="Helvetica,sans-Serif" font-size="10.00">/FitGausPol3.cc</text>
</a>
</g>
<!-- Node22&#45;&gt;Node23 -->
<g id="edge64" class="edge"><title>Node22&#45;&gt;Node23</title>
<path fill="none" stroke="midnightblue" d="M900.759,-225.173C824.887,-215.716 703.798,-199.415 600,-180 595.492,-179.157 590.85,-178.232 586.184,-177.26"/>
<polygon fill="midnightblue" stroke="midnightblue" points="900.345,-228.648 910.7,-226.405 901.206,-221.702 900.345,-228.648"/>
</g>
<!-- Node24 -->
<g id="node57" class="node"><title>Node24</title>
<a xlink:href="calibration_2modules_2_c_b___energy_8cc.html" target="_top" xlink:title="src/calibration/modules\l/CB_Energy.cc">
<polygon fill="white" stroke="black" points="1535.5,-145 1535.5,-179 1652.5,-179 1652.5,-145 1535.5,-145"/>
<text text-anchor="start" x="1543.5" y="-166" font-family="Helvetica,sans-Serif" font-size="10.00">src/calibration/modules</text>
<text text-anchor="middle" x="1594" y="-153" font-family="Helvetica,sans-Serif" font-size="10.00">/CB_Energy.cc</text>
</a>
</g>
<!-- Node22&#45;&gt;Node24 -->
<g id="edge66" class="edge"><title>Node22&#45;&gt;Node24</title>
<path fill="none" stroke="midnightblue" d="M1049.26,-225.86C1142.95,-215.526 1308.98,-196.994 1451,-180 1478.7,-176.685 1509.4,-172.843 1535.23,-169.562"/>
<polygon fill="midnightblue" stroke="midnightblue" points="1048.87,-222.382 1039.32,-226.957 1049.64,-229.34 1048.87,-222.382"/>
</g>
<!-- Node25 -->
<g id="node59" class="node"><title>Node25</title>
<a xlink:href="calibration_2modules_2_t_a_p_s___energy_8cc.html" target="_top" xlink:title="src/calibration/modules\l/TAPS_Energy.cc">
<polygon fill="white" stroke="black" points="1325.5,-145 1325.5,-179 1442.5,-179 1442.5,-145 1325.5,-145"/>
<text text-anchor="start" x="1333.5" y="-166" font-family="Helvetica,sans-Serif" font-size="10.00">src/calibration/modules</text>
<text text-anchor="middle" x="1384" y="-153" font-family="Helvetica,sans-Serif" font-size="10.00">/TAPS_Energy.cc</text>
</a>
</g>
<!-- Node22&#45;&gt;Node25 -->
<g id="edge68" class="edge"><title>Node22&#45;&gt;Node25</title>
<path fill="none" stroke="midnightblue" d="M1049.02,-224.617C1118.57,-215.257 1225.37,-199.484 1317,-180 1319.71,-179.424 1322.47,-178.806 1325.26,-178.158"/>
<polygon fill="midnightblue" stroke="midnightblue" points="1048.48,-221.158 1039.03,-225.951 1049.41,-228.096 1048.48,-221.158"/>
</g>
<!-- Node26&#45;&gt;Node8 -->
<g id="edge80" class="edge"><title>Node26&#45;&gt;Node8</title>
<path fill="none" stroke="midnightblue" d="M1175.74,-215.377C1134.79,-205.056 1083.06,-191.934 1037,-180 1034.28,-179.295 1031.5,-178.572 1028.69,-177.839"/>
<polygon fill="midnightblue" stroke="midnightblue" points="1175.09,-218.822 1185.64,-217.87 1176.8,-212.034 1175.09,-218.822"/>
</g>
<!-- Node26&#45;&gt;Node25 -->
<g id="edge78" class="edge"><title>Node26&#45;&gt;Node25</title>
<path fill="none" stroke="midnightblue" d="M1290.79,-212.083C1310.44,-201.525 1333.66,-189.049 1352.01,-179.19"/>
<polygon fill="midnightblue" stroke="midnightblue" points="1288.91,-209.121 1281.76,-216.937 1292.22,-215.287 1288.91,-209.121"/>
</g>
<!-- Node27 -->
<g id="node65" class="node"><title>Node27</title>
<a xlink:href="_fit_landau_8cc.html" target="_top" xlink:title="src/calibration/fitfunctions\l/FitLandau.cc">
<polygon fill="white" stroke="black" points="1046,-145 1046,-179 1174,-179 1174,-145 1046,-145"/>
<text text-anchor="start" x="1054" y="-166" font-family="Helvetica,sans-Serif" font-size="10.00">src/calibration/fitfunctions</text>
<text text-anchor="middle" x="1110" y="-153" font-family="Helvetica,sans-Serif" font-size="10.00">/FitLandau.cc</text>
</a>
</g>
<!-- Node26&#45;&gt;Node27 -->
<g id="edge76" class="edge"><title>Node26&#45;&gt;Node27</title>
<path fill="none" stroke="midnightblue" d="M1207.66,-212.226C1187.07,-201.638 1162.68,-189.094 1143.43,-179.19"/>
<polygon fill="midnightblue" stroke="midnightblue" points="1206.33,-215.476 1216.82,-216.937 1209.53,-209.251 1206.33,-215.476"/>
</g>
<!-- Node28 -->
<g id="node69" class="node"><title>Node28</title>
<a xlink:href="calibration_2modules_2_t_a_p_s_veto___energy_8cc.html" target="_top" xlink:title="src/calibration/modules\l/TAPSVeto_Energy.cc">
<polygon fill="white" stroke="black" points="1191.5,-145 1191.5,-179 1308.5,-179 1308.5,-145 1191.5,-145"/>
<text text-anchor="start" x="1199.5" y="-166" font-family="Helvetica,sans-Serif" font-size="10.00">src/calibration/modules</text>
<text text-anchor="middle" x="1250" y="-153" font-family="Helvetica,sans-Serif" font-size="10.00">/TAPSVeto_Energy.cc</text>
</a>
</g>
<!-- Node26&#45;&gt;Node28 -->
<g id="edge82" class="edge"><title>Node26&#45;&gt;Node28</title>
<path fill="none" stroke="midnightblue" d="M1250,-206.719C1250,-197.572 1250,-187.625 1250,-179.441"/>
<polygon fill="midnightblue" stroke="midnightblue" points="1246.5,-206.937 1250,-216.937 1253.5,-206.937 1246.5,-206.937"/>
</g>
<!-- Node30 -->
<g id="node73" class="node"><title>Node30</title>
<a xlink:href="_fit_landau_pol0_8cc.html" target="_top" xlink:title="src/calibration/fitfunctions\l/FitLandauPol0.cc">
<polygon fill="white" stroke="black" points="2466,-145 2466,-179 2594,-179 2594,-145 2466,-145"/>
<text text-anchor="start" x="2474" y="-166" font-family="Helvetica,sans-Serif" font-size="10.00">src/calibration/fitfunctions</text>
<text text-anchor="middle" x="2530" y="-153" font-family="Helvetica,sans-Serif" font-size="10.00">/FitLandauPol0.cc</text>
</a>
</g>
<!-- Node29&#45;&gt;Node30 -->
<g id="edge86" class="edge"><title>Node29&#45;&gt;Node30</title>
<path fill="none" stroke="midnightblue" d="M2324.02,-214.966C2368.05,-203.645 2423.36,-189.422 2465.58,-178.566"/>
<polygon fill="midnightblue" stroke="midnightblue" points="2323.05,-211.602 2314.24,-217.482 2324.79,-218.381 2323.05,-211.602"/>
</g>
<!-- Node31 -->
<g id="node75" class="node"><title>Node31</title>
<a xlink:href="_t_a_p_s___to_f_8cc.html" target="_top" xlink:title="src/calibration/modules\l/TAPS_ToF.cc">
<polygon fill="white" stroke="black" points="2185.5,-145 2185.5,-179 2302.5,-179 2302.5,-145 2185.5,-145"/>
<text text-anchor="start" x="2193.5" y="-166" font-family="Helvetica,sans-Serif" font-size="10.00">src/calibration/modules</text>
<text text-anchor="middle" x="2244" y="-153" font-family="Helvetica,sans-Serif" font-size="10.00">/TAPS_ToF.cc</text>
</a>
</g>
<!-- Node29&#45;&gt;Node31 -->
<g id="edge88" class="edge"><title>Node29&#45;&gt;Node31</title>
<path fill="none" stroke="midnightblue" d="M2247.73,-206.719C2246.96,-197.572 2246.14,-187.625 2245.45,-179.441"/>
<polygon fill="midnightblue" stroke="midnightblue" points="2244.26,-207.262 2248.58,-216.937 2251.24,-206.681 2244.26,-207.262"/>
</g>
<!-- Node33 -->
<g id="node79" class="node"><title>Node33</title>
<a xlink:href="_fit_timewalk_8cc.html" target="_top" xlink:title="src/calibration/fitfunctions\l/FitTimewalk.cc">
<polygon fill="white" stroke="black" points="2746,-145 2746,-179 2874,-179 2874,-145 2746,-145"/>
<text text-anchor="start" x="2754" y="-166" font-family="Helvetica,sans-Serif" font-size="10.00">src/calibration/fitfunctions</text>
<text text-anchor="middle" x="2810" y="-153" font-family="Helvetica,sans-Serif" font-size="10.00">/FitTimewalk.cc</text>
</a>
</g>
<!-- Node32&#45;&gt;Node33 -->
<g id="edge92" class="edge"><title>Node32&#45;&gt;Node33</title>
<path fill="none" stroke="midnightblue" d="M2712.34,-212.226C2732.93,-201.638 2757.32,-189.094 2776.57,-179.19"/>
<polygon fill="midnightblue" stroke="midnightblue" points="2710.47,-209.251 2703.18,-216.937 2713.67,-215.476 2710.47,-209.251"/>
</g>
<!-- Node34 -->
<g id="node81" class="node"><title>Node34</title>
<a xlink:href="calibration_2modules_2_c_b___time_walk_8cc.html" target="_top" xlink:title="src/calibration/modules\l/CB_TimeWalk.cc">
<polygon fill="white" stroke="black" points="2611.5,-145 2611.5,-179 2728.5,-179 2728.5,-145 2611.5,-145"/>
<text text-anchor="start" x="2619.5" y="-166" font-family="Helvetica,sans-Serif" font-size="10.00">src/calibration/modules</text>
<text text-anchor="middle" x="2670" y="-153" font-family="Helvetica,sans-Serif" font-size="10.00">/CB_TimeWalk.cc</text>
</a>
</g>
<!-- Node32&#45;&gt;Node34 -->
<g id="edge94" class="edge"><title>Node32&#45;&gt;Node34</title>
<path fill="none" stroke="midnightblue" d="M2670,-206.719C2670,-197.572 2670,-187.625 2670,-179.441"/>
<polygon fill="midnightblue" stroke="midnightblue" points="2666.5,-206.937 2670,-216.937 2673.5,-206.937 2666.5,-206.937"/>
</g>
<!-- Node35&#45;&gt;Node6 -->
<g id="edge110" class="edge"><title>Node35&#45;&gt;Node6</title>
<path fill="none" stroke="midnightblue" d="M1622.99,-231.481C1467.79,-224.395 1040.12,-203.284 901,-180 898.268,-179.543 895.486,-179.022 892.685,-178.454"/>
<polygon fill="midnightblue" stroke="midnightblue" points="1623.1,-234.989 1633.24,-231.947 1623.41,-227.997 1623.1,-234.989"/>
</g>
<!-- Node35&#45;&gt;Node7 -->
<g id="edge112" class="edge"><title>Node35&#45;&gt;Node7</title>
<path fill="none" stroke="midnightblue" d="M1623.26,-230.963C1430.35,-220.596 809.324,-186.864 767,-180 764.266,-179.557 761.482,-179.047 758.679,-178.488"/>
<polygon fill="midnightblue" stroke="midnightblue" points="1623.3,-234.47 1633.47,-231.511 1623.67,-227.48 1623.3,-234.47"/>
</g>
<!-- Node35&#45;&gt;Node8 -->
<g id="edge116" class="edge"><title>Node35&#45;&gt;Node8</title>
<path fill="none" stroke="midnightblue" d="M1623.13,-232.561C1510.49,-228.976 1251.36,-217.078 1037,-180 1034.23,-179.521 1031.41,-178.983 1028.57,-178.4"/>
<polygon fill="midnightblue" stroke="midnightblue" points="1623.14,-236.063 1633.25,-232.872 1623.36,-229.066 1623.14,-236.063"/>
</g>
<!-- Node35&#45;&gt;Node16 -->
<g id="edge120" class="edge"><title>Node35&#45;&gt;Node16</title>
<path fill="none" stroke="midnightblue" d="M1680.96,-206.743C1680.19,-187.094 1676.01,-161.123 1661,-144 1648.09,-129.279 1604.1,-114.624 1566.58,-104.303"/>
<polygon fill="midnightblue" stroke="midnightblue" points="1677.46,-206.954 1681.07,-216.913 1684.46,-206.873 1677.46,-206.954"/>
</g>
<!-- Node35&#45;&gt;Node21 -->
<g id="edge108" class="edge"><title>Node35&#45;&gt;Node21</title>
<path fill="none" stroke="midnightblue" d="M1736.9,-227.587C1808.67,-219.029 1935.68,-202.321 2043,-180 2045.71,-179.436 2048.48,-178.828 2051.27,-178.188"/>
<polygon fill="midnightblue" stroke="midnightblue" points="1736.24,-224.141 1726.72,-228.791 1737.06,-231.092 1736.24,-224.141"/>
</g>
<!-- Node35&#45;&gt;Node24 -->
<g id="edge104" class="edge"><title>Node35&#45;&gt;Node24</title>
<path fill="none" stroke="midnightblue" d="M1651.92,-210.493C1639.74,-200.29 1625.72,-188.558 1614.53,-179.19"/>
<polygon fill="midnightblue" stroke="midnightblue" points="1649.7,-213.201 1659.62,-216.937 1654.2,-207.834 1649.7,-213.201"/>
</g>
<!-- Node35&#45;&gt;Node25 -->
<g id="edge114" class="edge"><title>Node35&#45;&gt;Node25</title>
<path fill="none" stroke="midnightblue" d="M1623.39,-220.23C1571.51,-207.61 1495,-189 1442.52,-176.235"/>
<polygon fill="midnightblue" stroke="midnightblue" points="1622.88,-223.708 1633.42,-222.671 1624.53,-216.906 1622.88,-223.708"/>
</g>
<!-- Node35&#45;&gt;Node31 -->
<g id="edge118" class="edge"><title>Node35&#45;&gt;Node31</title>
<path fill="none" stroke="midnightblue" d="M1736.61,-230.701C1829.29,-224.663 2018.92,-209.638 2177,-180 2179.72,-179.489 2182.5,-178.925 2185.29,-178.322"/>
<polygon fill="midnightblue" stroke="midnightblue" points="1736.36,-227.21 1726.6,-231.342 1736.8,-234.195 1736.36,-227.21"/>
</g>
<!-- Node35&#45;&gt;Node34 -->
<g id="edge106" class="edge"><title>Node35&#45;&gt;Node34</title>
<path fill="none" stroke="midnightblue" d="M1736.74,-231.001C1931.05,-220.687 2560.17,-186.932 2603,-180 2605.73,-179.557 2608.52,-179.049 2611.32,-178.49"/>
<polygon fill="midnightblue" stroke="midnightblue" points="1736.53,-227.507 1726.73,-231.532 1736.9,-234.497 1736.53,-227.507"/>
</g>
<!-- Node35&#45;&gt;Node36 -->
<g id="edge98" class="edge"><title>Node35&#45;&gt;Node36</title>
<path fill="none" stroke="midnightblue" d="M1736.46,-223.728C1788.01,-213.931 1866.12,-198.026 1933,-180 1935.72,-179.268 1938.5,-178.481 1941.29,-177.659"/>
<polygon fill="midnightblue" stroke="midnightblue" points="1735.7,-220.311 1726.52,-225.605 1736.99,-227.189 1735.7,-220.311"/>
</g>
<!-- Node37 -->
<g id="node87" class="node"><title>Node37</title>
<a xlink:href="_manager_8cc.html" target="_top" xlink:title="src/calibration/gui\l/Manager.cc">
<polygon fill="white" stroke="black" points="1707.5,-145 1707.5,-179 1800.5,-179 1800.5,-145 1707.5,-145"/>
<text text-anchor="start" x="1715.5" y="-166" font-family="Helvetica,sans-Serif" font-size="10.00">src/calibration/gui</text>
<text text-anchor="middle" x="1754" y="-153" font-family="Helvetica,sans-Serif" font-size="10.00">/Manager.cc</text>
</a>
</g>
<!-- Node35&#45;&gt;Node37 -->
<g id="edge100" class="edge"><title>Node35&#45;&gt;Node37</title>
<path fill="none" stroke="midnightblue" d="M1704.76,-209.908C1715.1,-199.844 1726.89,-188.38 1736.33,-179.19"/>
<polygon fill="midnightblue" stroke="midnightblue" points="1702.26,-207.455 1697.54,-216.937 1707.15,-212.472 1702.26,-207.455"/>
</g>
<!-- Node38 -->
<g id="node89" class="node"><title>Node38</title>
<a xlink:href="_manager_window_8cc.html" target="_top" xlink:title="src/calibration/gui\l/ManagerWindow.cc">
<polygon fill="white" stroke="black" points="1818,-145 1818,-179 1924,-179 1924,-145 1818,-145"/>
<text text-anchor="start" x="1826" y="-166" font-family="Helvetica,sans-Serif" font-size="10.00">src/calibration/gui</text>
<text text-anchor="middle" x="1871" y="-153" font-family="Helvetica,sans-Serif" font-size="10.00">/ManagerWindow.cc</text>
</a>
</g>
<!-- Node35&#45;&gt;Node38 -->
<g id="edge102" class="edge"><title>Node35&#45;&gt;Node38</title>
<path fill="none" stroke="midnightblue" d="M1734.78,-213.35C1763.59,-202.491 1798.47,-189.34 1825.73,-179.065"/>
<polygon fill="midnightblue" stroke="midnightblue" points="1733.39,-210.135 1725.26,-216.937 1735.86,-216.685 1733.39,-210.135"/>
</g>
</g>
</svg>
