<?xml version="1.0" encoding="UTF-8" standalone="no"?>
<!DOCTYPE svg PUBLIC "-//W3C//DTD SVG 1.1//EN"
 "http://www.w3.org/Graphics/SVG/1.1/DTD/svg11.dtd">
<!-- Generated by graphviz version 2.26.3 (20100126.1600)
 -->
<!-- Title: src/base/vec/LorentzVec.cc Pages: 1 -->
<svg width="285pt" height="262pt"
 viewBox="0.00 0.00 285.00 262.00" xmlns="http://www.w3.org/2000/svg" xmlns:xlink="http://www.w3.org/1999/xlink">
<g id="graph1" class="graph" transform="scale(1 1) rotate(0) translate(4 258)">
<title>src/base/vec/LorentzVec.cc</title>
<polygon fill="white" stroke="white" points="-4,5 -4,-258 282,-258 282,5 -4,5"/>
<!-- Node1 -->
<g id="node1" class="node"><title>Node1</title>
<polygon fill="#bfbfbf" stroke="black" points="110.5,-232.5 110.5,-253.5 249.5,-253.5 249.5,-232.5 110.5,-232.5"/>
<text text-anchor="middle" x="180" y="-240.5" font-family="Helvetica,sans-Serif" font-size="10.00">src/base/vec/LorentzVec.cc</text>
</g>
<!-- Node2 -->
<g id="node3" class="node"><title>Node2</title>
<a xlink:href="_lorentz_vec_8h.html" target="_top" xlink:title="LorentzVec.h">
<polygon fill="white" stroke="black" points="93,-174.5 93,-195.5 167,-195.5 167,-174.5 93,-174.5"/>
<text text-anchor="middle" x="130" y="-182.5" font-family="Helvetica,sans-Serif" font-size="10.00">LorentzVec.h</text>
</a>
</g>
<!-- Node1&#45;&gt;Node2 -->
<g id="edge2" class="edge"><title>Node1&#45;&gt;Node2</title>
<path fill="none" stroke="midnightblue" d="M170.829,-232.362C163.852,-224.268 154.079,-212.932 145.844,-203.38"/>
<polygon fill="midnightblue" stroke="midnightblue" points="148.293,-200.859 139.113,-195.571 142.991,-205.43 148.293,-200.859"/>
</g>
<!-- Node9 -->
<g id="node18" class="node"><title>Node9</title>
<polygon fill="white" stroke="#bfbfbf" points="185,-174.5 185,-195.5 277,-195.5 277,-174.5 185,-174.5"/>
<text text-anchor="middle" x="231" y="-182.5" font-family="Helvetica,sans-Serif" font-size="10.00">TLorentzVector.h</text>
</g>
<!-- Node1&#45;&gt;Node9 -->
<g id="edge18" class="edge"><title>Node1&#45;&gt;Node9</title>
<path fill="none" stroke="midnightblue" d="M189.354,-232.362C196.543,-224.186 206.641,-212.702 215.093,-203.091"/>
<polygon fill="midnightblue" stroke="midnightblue" points="217.73,-205.392 221.705,-195.571 212.473,-200.769 217.73,-205.392"/>
</g>
<!-- Node3 -->
<g id="node5" class="node"><title>Node3</title>
<a xlink:href="vec3_8h.html" target="_top" xlink:title="base/vec/vec3.h">
<polygon fill="white" stroke="black" points="85.5,-116.5 85.5,-137.5 174.5,-137.5 174.5,-116.5 85.5,-116.5"/>
<text text-anchor="middle" x="130" y="-124.5" font-family="Helvetica,sans-Serif" font-size="10.00">base/vec/vec3.h</text>
</a>
</g>
<!-- Node2&#45;&gt;Node3 -->
<g id="edge4" class="edge"><title>Node2&#45;&gt;Node3</title>
<path fill="none" stroke="midnightblue" d="M130,-174.362C130,-166.922 130,-156.743 130,-147.728"/>
<polygon fill="midnightblue" stroke="midnightblue" points="133.5,-147.571 130,-137.571 126.5,-147.571 133.5,-147.571"/>
</g>
<!-- Node4 -->
<g id="node7" class="node"><title>Node4</title>
<a xlink:href="printable_8h.html" target="_top" xlink:title="base/printable.h">
<polygon fill="white" stroke="black" points="3,-58.5 3,-79.5 89,-79.5 89,-58.5 3,-58.5"/>
<text text-anchor="middle" x="46" y="-66.5" font-family="Helvetica,sans-Serif" font-size="10.00">base/printable.h</text>
</a>
</g>
<!-- Node3&#45;&gt;Node4 -->
<g id="edge6" class="edge"><title>Node3&#45;&gt;Node4</title>
<path fill="none" stroke="midnightblue" d="M114.593,-116.362C102.042,-107.696 84.1078,-95.3126 69.7255,-85.3819"/>
<polygon fill="midnightblue" stroke="midnightblue" points="71.5269,-82.3725 61.3092,-79.5707 67.5495,-88.1327 71.5269,-82.3725"/>
</g>
<!-- Node7 -->
<g id="node13" class="node"><title>Node7</title>
<a xlink:href="vec2_8h.html" target="_top" xlink:title="vec2.h">
<polygon fill="white" stroke="black" points="107,-58.5 107,-79.5 153,-79.5 153,-58.5 107,-58.5"/>
<text text-anchor="middle" x="130" y="-66.5" font-family="Helvetica,sans-Serif" font-size="10.00">vec2.h</text>
</a>
</g>
<!-- Node3&#45;&gt;Node7 -->
<g id="edge12" class="edge"><title>Node3&#45;&gt;Node7</title>
<path fill="none" stroke="midnightblue" d="M130,-116.362C130,-108.922 130,-98.7427 130,-89.7276"/>
<polygon fill="midnightblue" stroke="midnightblue" points="133.5,-89.5706 130,-79.5707 126.5,-89.5707 133.5,-89.5706"/>
</g>
<!-- Node8 -->
<g id="node15" class="node"><title>Node8</title>
<polygon fill="white" stroke="#bfbfbf" points="133,-0.5 133,-21.5 177,-21.5 177,-0.5 133,-0.5"/>
<text text-anchor="middle" x="155" y="-8.5" font-family="Helvetica,sans-Serif" font-size="10.00">cmath</text>
</g>
<!-- Node3&#45;&gt;Node8 -->
<g id="edge16" class="edge"><title>Node3&#45;&gt;Node8</title>
<path fill="none" stroke="midnightblue" d="M139.984,-116.418C147.675,-107.489 157.698,-93.962 162,-80 166.868,-64.2014 164.501,-45.5021 161.259,-31.5577"/>
<polygon fill="midnightblue" stroke="midnightblue" points="164.547,-30.3038 158.593,-21.5402 157.783,-32.104 164.547,-30.3038"/>
</g>
<!-- Node5 -->
<g id="node9" class="node"><title>Node5</title>
<polygon fill="white" stroke="#bfbfbf" points="0,-0.5 0,-21.5 44,-21.5 44,-0.5 0,-0.5"/>
<text text-anchor="middle" x="22" y="-8.5" font-family="Helvetica,sans-Serif" font-size="10.00">vector</text>
</g>
<!-- Node4&#45;&gt;Node5 -->
<g id="edge8" class="edge"><title>Node4&#45;&gt;Node5</title>
<path fill="none" stroke="midnightblue" d="M41.598,-58.3619C38.4179,-50.6766 34.0284,-40.0686 30.2096,-30.8399"/>
<polygon fill="midnightblue" stroke="midnightblue" points="33.4317,-29.4726 26.3741,-21.5707 26.9636,-32.1491 33.4317,-29.4726"/>
</g>
<!-- Node6 -->
<g id="node11" class="node"><title>Node6</title>
<polygon fill="white" stroke="#bfbfbf" points="62,-0.5 62,-21.5 114,-21.5 114,-0.5 62,-0.5"/>
<text text-anchor="middle" x="88" y="-8.5" font-family="Helvetica,sans-Serif" font-size="10.00">ostream</text>
</g>
<!-- Node4&#45;&gt;Node6 -->
<g id="edge10" class="edge"><title>Node4&#45;&gt;Node6</title>
<path fill="none" stroke="midnightblue" d="M53.7034,-58.3619C59.4463,-50.4313 67.4428,-39.3885 74.2699,-29.9606"/>
<polygon fill="midnightblue" stroke="midnightblue" points="77.3151,-31.7229 80.3454,-21.5707 71.6454,-27.6173 77.3151,-31.7229"/>
</g>
<!-- Node7&#45;&gt;Node8 -->
<g id="edge14" class="edge"><title>Node7&#45;&gt;Node8</title>
<path fill="none" stroke="midnightblue" d="M134.585,-58.3619C137.898,-50.6766 142.47,-40.0686 146.448,-30.8399"/>
<polygon fill="midnightblue" stroke="midnightblue" points="149.699,-32.1393 150.444,-21.5707 143.271,-29.3685 149.699,-32.1393"/>
</g>
</g>
</svg>
