<?xml version="1.0" encoding="UTF-8" standalone="no"?>
<!DOCTYPE svg PUBLIC "-//W3C//DTD SVG 1.1//EN"
 "http://www.w3.org/Graphics/SVG/1.1/DTD/svg11.dtd">
<!-- Generated by graphviz version 2.26.3 (20100126.1600)
 -->
<!-- Title: src/calibration/modules/MCEnergySmearing.h Pages: 1 -->
<svg width="887pt" height="362pt"
 viewBox="0.00 0.00 887.15 362.00" xmlns="http://www.w3.org/2000/svg" xmlns:xlink="http://www.w3.org/1999/xlink">
<g id="graph1" class="graph" transform="scale(1 1) rotate(0) translate(4 358)">
<title>src/calibration/modules/MCEnergySmearing.h</title>
<polygon fill="white" stroke="white" points="-4,5 -4,-358 884.151,-358 884.151,5 -4,5"/>
<!-- Node1 -->
<g id="node1" class="node"><title>Node1</title>
<polygon fill="#bfbfbf" stroke="black" points="391.5,-319 391.5,-353 508.5,-353 508.5,-319 391.5,-319"/>
<text text-anchor="start" x="399.5" y="-340" font-family="Helvetica,sans-Serif" font-size="10.00">src/calibration/modules</text>
<text text-anchor="middle" x="450" y="-327" font-family="Helvetica,sans-Serif" font-size="10.00">/MCEnergySmearing.h</text>
</g>
<!-- Node2 -->
<g id="node3" class="node"><title>Node2</title>
<a xlink:href="_detector__t_8h.html" target="_top" xlink:title="base/Detector_t.h">
<polygon fill="white" stroke="black" points="245.5,-181.5 245.5,-202.5 340.5,-202.5 340.5,-181.5 245.5,-181.5"/>
<text text-anchor="middle" x="293" y="-189.5" font-family="Helvetica,sans-Serif" font-size="10.00">base/Detector_t.h</text>
</a>
</g>
<!-- Node1&#45;&gt;Node2 -->
<g id="edge2" class="edge"><title>Node1&#45;&gt;Node2</title>
<path fill="none" stroke="midnightblue" d="M431.374,-318.916C401.25,-291.287 342.166,-237.095 311.881,-209.317"/>
<polygon fill="midnightblue" stroke="midnightblue" points="314.228,-206.721 304.493,-202.541 309.497,-211.88 314.228,-206.721"/>
</g>
<!-- Node13 -->
<g id="node28" class="node"><title>Node13</title>
<a xlink:href="_reconstruct__traits_8h.html" target="_top" xlink:title="reconstruct/Reconstruct\l_traits.h">
<polygon fill="white" stroke="black" points="464,-247 464,-281 586,-281 586,-247 464,-247"/>
<text text-anchor="start" x="472" y="-268" font-family="Helvetica,sans-Serif" font-size="10.00">reconstruct/Reconstruct</text>
<text text-anchor="middle" x="525" y="-255" font-family="Helvetica,sans-Serif" font-size="10.00">_traits.h</text>
</a>
</g>
<!-- Node1&#45;&gt;Node13 -->
<g id="edge30" class="edge"><title>Node1&#45;&gt;Node13</title>
<path fill="none" stroke="midnightblue" d="M467.774,-318.937C477.325,-309.768 489.262,-298.308 499.759,-288.231"/>
<polygon fill="midnightblue" stroke="midnightblue" points="502.304,-290.64 507.094,-281.19 497.456,-285.591 502.304,-290.64"/>
</g>
<!-- Node3 -->
<g id="node5" class="node"><title>Node3</title>
<a xlink:href="printable_8h.html" target="_top" xlink:title="base/printable.h">
<polygon fill="white" stroke="black" points="143,-58.5 143,-79.5 229,-79.5 229,-58.5 143,-58.5"/>
<text text-anchor="middle" x="186" y="-66.5" font-family="Helvetica,sans-Serif" font-size="10.00">base/printable.h</text>
</a>
</g>
<!-- Node2&#45;&gt;Node3 -->
<g id="edge4" class="edge"><title>Node2&#45;&gt;Node3</title>
<path fill="none" stroke="midnightblue" d="M255.268,-181.421C233.392,-173.241 207.4,-159.583 193,-138 183.627,-123.953 182.423,-104.587 183.251,-89.9471"/>
<polygon fill="midnightblue" stroke="midnightblue" points="186.75,-90.1169 184.178,-79.839 179.779,-89.4775 186.75,-90.1169"/>
</g>
<!-- Node4 -->
<g id="node7" class="node"><title>Node4</title>
<polygon fill="white" stroke="#bfbfbf" points="389,-0.5 389,-21.5 433,-21.5 433,-0.5 389,-0.5"/>
<text text-anchor="middle" x="411" y="-8.5" font-family="Helvetica,sans-Serif" font-size="10.00">vector</text>
</g>
<!-- Node2&#45;&gt;Node4 -->
<g id="edge28" class="edge"><title>Node2&#45;&gt;Node4</title>
<path fill="none" stroke="midnightblue" d="M301.248,-181.44C309.537,-170.695 322.55,-153.468 333,-138 358.064,-100.901 384.88,-55.9334 399.63,-30.6825"/>
<polygon fill="midnightblue" stroke="midnightblue" points="402.832,-32.1377 404.833,-21.7336 396.781,-28.619 402.832,-32.1377"/>
</g>
<!-- Node6 -->
<g id="node11" class="node"><title>Node6</title>
<a xlink:href="vec3_8h.html" target="_top" xlink:title="base/vec/vec3.h">
<polygon fill="white" stroke="black" points="57.5,-116.5 57.5,-137.5 146.5,-137.5 146.5,-116.5 57.5,-116.5"/>
<text text-anchor="middle" x="102" y="-124.5" font-family="Helvetica,sans-Serif" font-size="10.00">base/vec/vec3.h</text>
</a>
</g>
<!-- Node2&#45;&gt;Node6 -->
<g id="edge10" class="edge"><title>Node2&#45;&gt;Node6</title>
<path fill="none" stroke="midnightblue" d="M261.887,-181.412C229.422,-170.364 178.374,-152.991 142.719,-140.857"/>
<polygon fill="midnightblue" stroke="midnightblue" points="143.694,-137.492 133.099,-137.584 141.438,-144.119 143.694,-137.492"/>
</g>
<!-- Node9 -->
<g id="node19" class="node"><title>Node9</title>
<polygon fill="white" stroke="#bfbfbf" points="202,-116.5 202,-137.5 248,-137.5 248,-116.5 202,-116.5"/>
<text text-anchor="middle" x="225" y="-124.5" font-family="Helvetica,sans-Serif" font-size="10.00">cstdint</text>
</g>
<!-- Node2&#45;&gt;Node9 -->
<g id="edge20" class="edge"><title>Node2&#45;&gt;Node9</title>
<path fill="none" stroke="midnightblue" d="M281.771,-181.267C271.374,-171.328 255.719,-156.363 243.48,-144.664"/>
<polygon fill="midnightblue" stroke="midnightblue" points="245.667,-141.913 236.02,-137.534 240.83,-146.974 245.667,-141.913"/>
</g>
<!-- Node10 -->
<g id="node21" class="node"><title>Node10</title>
<polygon fill="white" stroke="#bfbfbf" points="265.5,-116.5 265.5,-137.5 324.5,-137.5 324.5,-116.5 265.5,-116.5"/>
<text text-anchor="middle" x="295" y="-124.5" font-family="Helvetica,sans-Serif" font-size="10.00">stdexcept</text>
</g>
<!-- Node2&#45;&gt;Node10 -->
<g id="edge22" class="edge"><title>Node2&#45;&gt;Node10</title>
<path fill="none" stroke="midnightblue" d="M293.33,-181.267C293.61,-172.18 294.019,-158.892 294.362,-147.74"/>
<polygon fill="midnightblue" stroke="midnightblue" points="297.867,-147.637 294.676,-137.534 290.87,-147.421 297.867,-147.637"/>
</g>
<!-- Node11 -->
<g id="node23" class="node"><title>Node11</title>
<polygon fill="white" stroke="#bfbfbf" points="-0.5,-116.5 -0.5,-137.5 40.5,-137.5 40.5,-116.5 -0.5,-116.5"/>
<text text-anchor="middle" x="20" y="-124.5" font-family="Helvetica,sans-Serif" font-size="10.00">string</text>
</g>
<!-- Node2&#45;&gt;Node11 -->
<g id="edge24" class="edge"><title>Node2&#45;&gt;Node11</title>
<path fill="none" stroke="midnightblue" d="M245.247,-183.553C197.806,-174.69 122.919,-159.431 50.5193,-138.193"/>
<polygon fill="midnightblue" stroke="midnightblue" points="51.3682,-134.794 40.7853,-135.297 49.3716,-141.504 51.3682,-134.794"/>
</g>
<!-- Node12 -->
<g id="node25" class="node"><title>Node12</title>
<polygon fill="white" stroke="#bfbfbf" points="380,-116.5 380,-137.5 442,-137.5 442,-116.5 380,-116.5"/>
<text text-anchor="middle" x="411" y="-124.5" font-family="Helvetica,sans-Serif" font-size="10.00">type_traits</text>
</g>
<!-- Node2&#45;&gt;Node12 -->
<g id="edge26" class="edge"><title>Node2&#45;&gt;Node12</title>
<path fill="none" stroke="midnightblue" d="M312.221,-181.412C331.421,-170.836 361.141,-154.465 382.969,-142.441"/>
<polygon fill="midnightblue" stroke="midnightblue" points="384.717,-145.474 391.787,-137.584 381.339,-139.343 384.717,-145.474"/>
</g>
<!-- Node3&#45;&gt;Node4 -->
<g id="edge6" class="edge"><title>Node3&#45;&gt;Node4</title>
<path fill="none" stroke="midnightblue" d="M226.746,-58.4966C270.549,-47.2052 339.26,-29.493 379.234,-19.1886"/>
<polygon fill="midnightblue" stroke="midnightblue" points="380.174,-22.5606 388.984,-16.6752 378.427,-15.7822 380.174,-22.5606"/>
</g>
<!-- Node5 -->
<g id="node9" class="node"><title>Node5</title>
<polygon fill="white" stroke="#bfbfbf" points="160,-0.5 160,-21.5 212,-21.5 212,-0.5 160,-0.5"/>
<text text-anchor="middle" x="186" y="-8.5" font-family="Helvetica,sans-Serif" font-size="10.00">ostream</text>
</g>
<!-- Node3&#45;&gt;Node5 -->
<g id="edge8" class="edge"><title>Node3&#45;&gt;Node5</title>
<path fill="none" stroke="midnightblue" d="M186,-58.3619C186,-50.9219 186,-40.7427 186,-31.7276"/>
<polygon fill="midnightblue" stroke="midnightblue" points="189.5,-31.5706 186,-21.5707 182.5,-31.5707 189.5,-31.5706"/>
</g>
<!-- Node6&#45;&gt;Node3 -->
<g id="edge12" class="edge"><title>Node6&#45;&gt;Node3</title>
<path fill="none" stroke="midnightblue" d="M117.407,-116.362C129.958,-107.696 147.892,-95.3126 162.275,-85.3819"/>
<polygon fill="midnightblue" stroke="midnightblue" points="164.45,-88.1327 170.691,-79.5707 160.473,-82.3725 164.45,-88.1327"/>
</g>
<!-- Node7 -->
<g id="node14" class="node"><title>Node7</title>
<a xlink:href="vec2_8h.html" target="_top" xlink:title="vec2.h">
<polygon fill="white" stroke="black" points="79,-58.5 79,-79.5 125,-79.5 125,-58.5 79,-58.5"/>
<text text-anchor="middle" x="102" y="-66.5" font-family="Helvetica,sans-Serif" font-size="10.00">vec2.h</text>
</a>
</g>
<!-- Node6&#45;&gt;Node7 -->
<g id="edge14" class="edge"><title>Node6&#45;&gt;Node7</title>
<path fill="none" stroke="midnightblue" d="M102,-116.362C102,-108.922 102,-98.7427 102,-89.7276"/>
<polygon fill="midnightblue" stroke="midnightblue" points="105.5,-89.5706 102,-79.5707 98.5001,-89.5707 105.5,-89.5706"/>
</g>
<!-- Node8 -->
<g id="node16" class="node"><title>Node8</title>
<polygon fill="white" stroke="#bfbfbf" points="55,-0.5 55,-21.5 99,-21.5 99,-0.5 55,-0.5"/>
<text text-anchor="middle" x="77" y="-8.5" font-family="Helvetica,sans-Serif" font-size="10.00">cmath</text>
</g>
<!-- Node6&#45;&gt;Node8 -->
<g id="edge18" class="edge"><title>Node6&#45;&gt;Node8</title>
<path fill="none" stroke="midnightblue" d="M92.0164,-116.418C84.325,-107.489 74.3018,-93.962 70,-80 65.1323,-64.2014 67.4993,-45.5021 70.741,-31.5577"/>
<polygon fill="midnightblue" stroke="midnightblue" points="74.2173,-32.104 73.4067,-21.5402 67.4527,-30.3038 74.2173,-32.104"/>
</g>
<!-- Node7&#45;&gt;Node8 -->
<g id="edge16" class="edge"><title>Node7&#45;&gt;Node8</title>
<path fill="none" stroke="midnightblue" d="M97.4146,-58.3619C94.102,-50.6766 89.5296,-40.0686 85.5517,-30.8399"/>
<polygon fill="midnightblue" stroke="midnightblue" points="88.7288,-29.3685 81.5563,-21.5707 82.3005,-32.1393 88.7288,-29.3685"/>
</g>
<!-- Node13&#45;&gt;Node2 -->
<g id="edge32" class="edge"><title>Node13&#45;&gt;Node2</title>
<path fill="none" stroke="midnightblue" d="M468.664,-246.923C434.096,-236.393 388.945,-222.547 349,-210 344.488,-208.583 339.776,-207.089 335.083,-205.593"/>
<polygon fill="midnightblue" stroke="midnightblue" points="336.141,-202.257 325.55,-202.543 334.008,-208.924 336.141,-202.257"/>
</g>
<!-- Node14 -->
<g id="node31" class="node"><title>Node14</title>
<a xlink:href="mapped__vectors_8h.html" target="_top" xlink:title="base/std_ext/mapped\l_vectors.h">
<polygon fill="white" stroke="black" points="358,-175 358,-209 468,-209 468,-175 358,-175"/>
<text text-anchor="start" x="366" y="-196" font-family="Helvetica,sans-Serif" font-size="10.00">base/std_ext/mapped</text>
<text text-anchor="middle" x="413" y="-183" font-family="Helvetica,sans-Serif" font-size="10.00">_vectors.h</text>
</a>
</g>
<!-- Node13&#45;&gt;Node14 -->
<g id="edge34" class="edge"><title>Node13&#45;&gt;Node14</title>
<path fill="none" stroke="midnightblue" d="M498.458,-246.937C483.503,-237.323 464.63,-225.19 448.426,-214.774"/>
<polygon fill="midnightblue" stroke="midnightblue" points="450.045,-211.654 439.74,-209.19 446.259,-217.542 450.045,-211.654"/>
</g>
<!-- Node16 -->
<g id="node35" class="node"><title>Node16</title>
<polygon fill="white" stroke="#bfbfbf" points="563,-58.5 563,-79.5 615,-79.5 615,-58.5 563,-58.5"/>
<text text-anchor="middle" x="589" y="-66.5" font-family="Helvetica,sans-Serif" font-size="10.00">memory</text>
</g>
<!-- Node13&#45;&gt;Node16 -->
<g id="edge58" class="edge"><title>Node13&#45;&gt;Node16</title>
<path fill="none" stroke="midnightblue" d="M528.436,-246.764C534.284,-218.774 547.284,-161.943 565,-116 568.601,-106.661 573.5,-96.733 577.932,-88.4199"/>
<polygon fill="midnightblue" stroke="midnightblue" points="581.066,-89.9841 582.816,-79.5347 574.932,-86.6122 581.066,-89.9841"/>
</g>
<!-- Node17 -->
<g id="node37" class="node"><title>Node17</title>
<polygon fill="white" stroke="#bfbfbf" points="753.5,-58.5 753.5,-79.5 782.5,-79.5 782.5,-58.5 753.5,-58.5"/>
<text text-anchor="middle" x="768" y="-66.5" font-family="Helvetica,sans-Serif" font-size="10.00">list</text>
</g>
<!-- Node13&#45;&gt;Node17 -->
<g id="edge62" class="edge"><title>Node13&#45;&gt;Node17</title>
<path fill="none" stroke="midnightblue" d="M586.175,-258.859C681.479,-250.224 856.464,-231.615 875,-210 885.87,-197.324 871.826,-122.587 867,-116 849.155,-91.644 815.391,-79.4236 792.301,-73.6525"/>
<polygon fill="midnightblue" stroke="midnightblue" points="793.066,-70.2372 782.539,-71.4343 791.515,-77.0631 793.066,-70.2372"/>
</g>
<!-- Node18 -->
<g id="node42" class="node"><title>Node18</title>
<a xlink:href="shared__ptr__container_8h.html" target="_top" xlink:title="base/std_ext/shared\l_ptr_container.h">
<polygon fill="white" stroke="black" points="761.5,-175 761.5,-209 866.5,-209 866.5,-175 761.5,-175"/>
<text text-anchor="start" x="769.5" y="-196" font-family="Helvetica,sans-Serif" font-size="10.00">base/std_ext/shared</text>
<text text-anchor="middle" x="814" y="-183" font-family="Helvetica,sans-Serif" font-size="10.00">_ptr_container.h</text>
</a>
</g>
<!-- Node13&#45;&gt;Node18 -->
<g id="edge48" class="edge"><title>Node13&#45;&gt;Node18</title>
<path fill="none" stroke="midnightblue" d="M586.289,-248.731C634.808,-236.643 702.312,-219.825 751.215,-207.642"/>
<polygon fill="midnightblue" stroke="midnightblue" points="752.188,-211.007 761.046,-205.193 750.496,-204.214 752.188,-211.007"/>
</g>
<!-- Node19 -->
<g id="node46" class="node"><title>Node19</title>
<polygon fill="white" stroke="#bfbfbf" points="709.5,-116.5 709.5,-137.5 768.5,-137.5 768.5,-116.5 709.5,-116.5"/>
<text text-anchor="middle" x="739" y="-124.5" font-family="Helvetica,sans-Serif" font-size="10.00">functional</text>
</g>
<!-- Node13&#45;&gt;Node19 -->
<g id="edge64" class="edge"><title>Node13&#45;&gt;Node19</title>
<path fill="none" stroke="midnightblue" d="M551.671,-246.926C593.337,-220.252 673.301,-169.06 713.949,-143.037"/>
<polygon fill="midnightblue" stroke="midnightblue" points="715.929,-145.926 722.464,-137.586 712.154,-140.03 715.929,-145.926"/>
</g>
<!-- Node21 -->
<g id="node51" class="node"><title>Node21</title>
<polygon fill="white" stroke="#bfbfbf" points="485.5,-181.5 485.5,-202.5 520.5,-202.5 520.5,-181.5 485.5,-181.5"/>
<text text-anchor="middle" x="503" y="-189.5" font-family="Helvetica,sans-Serif" font-size="10.00">map</text>
</g>
<!-- Node13&#45;&gt;Node21 -->
<g id="edge60" class="edge"><title>Node13&#45;&gt;Node21</title>
<path fill="none" stroke="midnightblue" d="M519.786,-246.937C516.661,-236.707 512.663,-223.625 509.354,-212.794"/>
<polygon fill="midnightblue" stroke="midnightblue" points="512.6,-211.442 506.331,-202.901 505.906,-213.487 512.6,-211.442"/>
</g>
<!-- Node14&#45;&gt;Node4 -->
<g id="edge42" class="edge"><title>Node14&#45;&gt;Node4</title>
<path fill="none" stroke="midnightblue" d="M429.468,-174.544C437.66,-164.645 446.71,-151.552 451,-138 463.126,-99.6981 440.351,-54.8681 424.475,-30.0271"/>
<polygon fill="midnightblue" stroke="midnightblue" points="427.276,-27.9181 418.815,-21.5405 421.452,-31.802 427.276,-27.9181"/>
</g>
<!-- Node14&#45;&gt;Node12 -->
<g id="edge46" class="edge"><title>Node14&#45;&gt;Node12</title>
<path fill="none" stroke="midnightblue" d="M412.475,-174.922C412.221,-166.67 411.914,-156.692 411.646,-147.982"/>
<polygon fill="midnightblue" stroke="midnightblue" points="415.14,-147.74 411.334,-137.852 408.143,-147.955 415.14,-147.74"/>
</g>
<!-- Node15 -->
<g id="node33" class="node"><title>Node15</title>
<a xlink:href="memory_8h.html" target="_top" xlink:title="base/std_ext/memory.h">
<polygon fill="white" stroke="black" points="573.5,-116.5 573.5,-137.5 692.5,-137.5 692.5,-116.5 573.5,-116.5"/>
<text text-anchor="middle" x="633" y="-124.5" font-family="Helvetica,sans-Serif" font-size="10.00">base/std_ext/memory.h</text>
</a>
</g>
<!-- Node14&#45;&gt;Node15 -->
<g id="edge36" class="edge"><title>Node14&#45;&gt;Node15</title>
<path fill="none" stroke="midnightblue" d="M468.231,-175.682C505.07,-164.797 552.913,-150.662 587.546,-140.43"/>
<polygon fill="midnightblue" stroke="midnightblue" points="588.794,-143.711 597.392,-137.52 586.811,-136.997 588.794,-143.711"/>
</g>
<!-- Node14&#45;&gt;Node16 -->
<g id="edge44" class="edge"><title>Node14&#45;&gt;Node16</title>
<path fill="none" stroke="midnightblue" d="M437.472,-174.897C471.287,-151.265 531.899,-108.906 565.3,-85.5628"/>
<polygon fill="midnightblue" stroke="midnightblue" points="567.373,-88.3847 573.564,-79.7875 563.363,-82.647 567.373,-88.3847"/>
</g>
<!-- Node15&#45;&gt;Node16 -->
<g id="edge38" class="edge"><title>Node15&#45;&gt;Node16</title>
<path fill="none" stroke="midnightblue" d="M624.93,-116.362C618.851,-108.35 610.363,-97.1605 603.163,-87.6696"/>
<polygon fill="midnightblue" stroke="midnightblue" points="605.851,-85.4222 597.019,-79.5707 600.275,-89.653 605.851,-85.4222"/>
</g>
<!-- Node15&#45;&gt;Node17 -->
<g id="edge40" class="edge"><title>Node15&#45;&gt;Node17</title>
<path fill="none" stroke="midnightblue" d="M657.447,-116.497C682.023,-105.938 719.667,-89.7654 744.06,-79.2851"/>
<polygon fill="midnightblue" stroke="midnightblue" points="745.513,-82.4703 753.32,-75.307 742.75,-76.0387 745.513,-82.4703"/>
</g>
<!-- Node18&#45;&gt;Node4 -->
<g id="edge50" class="edge"><title>Node18&#45;&gt;Node4</title>
<path fill="none" stroke="midnightblue" d="M839.239,-174.824C857.665,-160.002 877.7,-137.627 867,-116 848.157,-77.9163 830.341,-74.0546 791,-58 728.103,-32.3321 523.419,-17.6912 443.441,-12.831"/>
<polygon fill="midnightblue" stroke="midnightblue" points="443.201,-9.31062 433.011,-12.21 442.785,-16.2982 443.201,-9.31062"/>
</g>
<!-- Node18&#45;&gt;Node16 -->
<g id="edge52" class="edge"><title>Node18&#45;&gt;Node16</title>
<path fill="none" stroke="midnightblue" d="M832.656,-174.933C848.297,-158.566 865.878,-133.784 851,-116 822.631,-82.0887 690.296,-72.6134 625.263,-69.9903"/>
<polygon fill="midnightblue" stroke="midnightblue" points="625.18,-66.4849 615.057,-69.6129 624.921,-73.4801 625.18,-66.4849"/>
</g>
<!-- Node18&#45;&gt;Node19 -->
<g id="edge54" class="edge"><title>Node18&#45;&gt;Node19</title>
<path fill="none" stroke="midnightblue" d="M794.295,-174.922C783.504,-165.57 770.155,-154.001 759.276,-144.572"/>
<polygon fill="midnightblue" stroke="midnightblue" points="761.371,-141.757 751.522,-137.852 756.786,-147.046 761.371,-141.757"/>
</g>
<!-- Node20 -->
<g id="node48" class="node"><title>Node20</title>
<polygon fill="white" stroke="#bfbfbf" points="786,-116.5 786,-137.5 842,-137.5 842,-116.5 786,-116.5"/>
<text text-anchor="middle" x="814" y="-124.5" font-family="Helvetica,sans-Serif" font-size="10.00">algorithm</text>
</g>
<!-- Node18&#45;&gt;Node20 -->
<g id="edge56" class="edge"><title>Node18&#45;&gt;Node20</title>
<path fill="none" stroke="midnightblue" d="M814,-174.922C814,-166.67 814,-156.692 814,-147.982"/>
<polygon fill="midnightblue" stroke="midnightblue" points="817.5,-147.852 814,-137.852 810.5,-147.852 817.5,-147.852"/>
</g>
</g>
</svg>
