<?xml version="1.0" encoding="UTF-8" standalone="no"?>
<!DOCTYPE svg PUBLIC "-//W3C//DTD SVG 1.1//EN"
 "http://www.w3.org/Graphics/SVG/1.1/DTD/svg11.dtd">
<!-- Generated by graphviz version 2.26.3 (20100126.1600)
 -->
<!-- Title: src/calibration/modules/MCEnergySmearing.cc Pages: 1 -->
<svg width="1271pt" height="420pt"
 viewBox="0.00 0.00 1271.41 420.00" xmlns="http://www.w3.org/2000/svg" xmlns:xlink="http://www.w3.org/1999/xlink">
<g id="graph1" class="graph" transform="scale(1 1) rotate(0) translate(4 416)">
<title>src/calibration/modules/MCEnergySmearing.cc</title>
<polygon fill="white" stroke="white" points="-4,5 -4,-416 1268.41,-416 1268.41,5 -4,5"/>
<!-- Node1 -->
<g id="node1" class="node"><title>Node1</title>
<polygon fill="#bfbfbf" stroke="black" points="660.913,-377 660.913,-411 781.913,-411 781.913,-377 660.913,-377"/>
<text text-anchor="start" x="668.913" y="-398" font-family="Helvetica,sans-Serif" font-size="10.00">src/calibration/modules</text>
<text text-anchor="middle" x="721.413" y="-385" font-family="Helvetica,sans-Serif" font-size="10.00">/MCEnergySmearing.cc</text>
</g>
<!-- Node2 -->
<g id="node3" class="node"><title>Node2</title>
<a xlink:href="_m_c_energy_smearing_8h.html" target="_top" xlink:title="MCEnergySmearing.h">
<polygon fill="white" stroke="black" points="561.913,-318.5 561.913,-339.5 674.913,-339.5 674.913,-318.5 561.913,-318.5"/>
<text text-anchor="middle" x="618.413" y="-326.5" font-family="Helvetica,sans-Serif" font-size="10.00">MCEnergySmearing.h</text>
</a>
</g>
<!-- Node1&#45;&gt;Node2 -->
<g id="edge2" class="edge"><title>Node1&#45;&gt;Node2</title>
<path fill="none" stroke="midnightblue" d="M694.351,-376.922C678.706,-367.049 659.144,-354.704 643.793,-345.016"/>
<polygon fill="midnightblue" stroke="midnightblue" points="645.627,-342.035 635.302,-339.658 641.891,-347.955 645.627,-342.035"/>
</g>
<!-- Node3 -->
<g id="node5" class="node"><title>Node3</title>
<a xlink:href="_detector__t_8h.html" target="_top" xlink:title="base/Detector_t.h">
<polygon fill="white" stroke="black" points="624.913,-181.5 624.913,-202.5 719.913,-202.5 719.913,-181.5 624.913,-181.5"/>
<text text-anchor="middle" x="672.413" y="-189.5" font-family="Helvetica,sans-Serif" font-size="10.00">base/Detector_t.h</text>
</a>
</g>
<!-- Node1&#45;&gt;Node3 -->
<g id="edge68" class="edge"><title>Node1&#45;&gt;Node3</title>
<path fill="none" stroke="midnightblue" d="M717.235,-376.778C708.266,-339.801 687.193,-252.929 677.479,-212.886"/>
<polygon fill="midnightblue" stroke="midnightblue" points="680.819,-211.807 675.06,-202.914 674.017,-213.457 680.819,-211.807"/>
</g>
<!-- Node23 -->
<g id="node58" class="node"><title>Node23</title>
<a xlink:href="_t_cluster_8h.html" target="_top" xlink:title="tree/TCluster.h">
<polygon fill="white" stroke="black" points="837.413,-253.5 837.413,-274.5 919.413,-274.5 919.413,-253.5 837.413,-253.5"/>
<text text-anchor="middle" x="878.413" y="-261.5" font-family="Helvetica,sans-Serif" font-size="10.00">tree/TCluster.h</text>
</a>
</g>
<!-- Node1&#45;&gt;Node23 -->
<g id="edge70" class="edge"><title>Node1&#45;&gt;Node23</title>
<path fill="none" stroke="midnightblue" d="M726.264,-376.86C731.818,-359.967 742.412,-334.373 759.413,-318 778.716,-299.41 805.542,-286.479 828.839,-277.942"/>
<polygon fill="midnightblue" stroke="midnightblue" points="830.284,-281.145 838.575,-274.548 827.98,-274.535 830.284,-281.145"/>
</g>
<!-- Node28 -->
<g id="node75" class="node"><title>Node28</title>
<polygon fill="white" stroke="#bfbfbf" points="768.413,-318.5 768.413,-339.5 836.413,-339.5 836.413,-318.5 768.413,-318.5"/>
<text text-anchor="middle" x="802.413" y="-326.5" font-family="Helvetica,sans-Serif" font-size="10.00">TRandom.h</text>
</g>
<!-- Node1&#45;&gt;Node28 -->
<g id="edge94" class="edge"><title>Node1&#45;&gt;Node28</title>
<path fill="none" stroke="midnightblue" d="M742.695,-376.922C754.463,-367.479 769.049,-355.774 780.86,-346.296"/>
<polygon fill="midnightblue" stroke="midnightblue" points="783.281,-348.841 788.89,-339.852 778.9,-343.381 783.281,-348.841"/>
</g>
<!-- Node2&#45;&gt;Node3 -->
<g id="edge4" class="edge"><title>Node2&#45;&gt;Node3</title>
<path fill="none" stroke="midnightblue" d="M622.65,-318.25C631.641,-295.441 652.753,-241.879 664.381,-212.379"/>
<polygon fill="midnightblue" stroke="midnightblue" points="667.784,-213.287 668.195,-202.7 661.272,-210.72 667.784,-213.287"/>
</g>
<!-- Node14 -->
<g id="node30" class="node"><title>Node14</title>
<a xlink:href="_reconstruct__traits_8h.html" target="_top" xlink:title="reconstruct/Reconstruct\l_traits.h">
<polygon fill="white" stroke="black" points="170.413,-247 170.413,-281 292.413,-281 292.413,-247 170.413,-247"/>
<text text-anchor="start" x="178.413" y="-268" font-family="Helvetica,sans-Serif" font-size="10.00">reconstruct/Reconstruct</text>
<text text-anchor="middle" x="231.413" y="-255" font-family="Helvetica,sans-Serif" font-size="10.00">_traits.h</text>
</a>
</g>
<!-- Node2&#45;&gt;Node14 -->
<g id="edge32" class="edge"><title>Node2&#45;&gt;Node14</title>
<path fill="none" stroke="midnightblue" d="M561.725,-319.479C493.149,-307.961 377.635,-288.559 302.983,-276.021"/>
<polygon fill="midnightblue" stroke="midnightblue" points="303.171,-272.503 292.729,-274.299 302.011,-279.407 303.171,-272.503"/>
</g>
<!-- Node4 -->
<g id="node7" class="node"><title>Node4</title>
<a xlink:href="printable_8h.html" target="_top" xlink:title="base/printable.h">
<polygon fill="white" stroke="black" points="850.413,-58.5 850.413,-79.5 936.413,-79.5 936.413,-58.5 850.413,-58.5"/>
<text text-anchor="middle" x="893.413" y="-66.5" font-family="Helvetica,sans-Serif" font-size="10.00">base/printable.h</text>
</a>
</g>
<!-- Node3&#45;&gt;Node4 -->
<g id="edge6" class="edge"><title>Node3&#45;&gt;Node4</title>
<path fill="none" stroke="midnightblue" d="M702.594,-181.427C728.927,-171.678 767.766,-156.02 799.413,-138 826.294,-122.694 854.574,-101.077 873.007,-86.1365"/>
<polygon fill="midnightblue" stroke="midnightblue" points="875.471,-88.6423 880.979,-79.5918 871.029,-83.2319 875.471,-88.6423"/>
</g>
<!-- Node5 -->
<g id="node9" class="node"><title>Node5</title>
<polygon fill="white" stroke="#bfbfbf" points="762.413,-0.5 762.413,-21.5 806.413,-21.5 806.413,-0.5 762.413,-0.5"/>
<text text-anchor="middle" x="784.413" y="-8.5" font-family="Helvetica,sans-Serif" font-size="10.00">vector</text>
</g>
<!-- Node3&#45;&gt;Node5 -->
<g id="edge30" class="edge"><title>Node3&#45;&gt;Node5</title>
<path fill="none" stroke="midnightblue" d="M686.329,-181.236C698.661,-171.132 716.507,-155.055 728.413,-138 752.416,-103.615 769.663,-57.2918 778.248,-31.1503"/>
<polygon fill="midnightblue" stroke="midnightblue" points="781.596,-32.1691 781.298,-21.5785 774.927,-30.0439 781.596,-32.1691"/>
</g>
<!-- Node7 -->
<g id="node13" class="node"><title>Node7</title>
<a xlink:href="vec3_8h.html" target="_top" xlink:title="base/vec/vec3.h">
<polygon fill="white" stroke="black" points="888.913,-116.5 888.913,-137.5 977.913,-137.5 977.913,-116.5 888.913,-116.5"/>
<text text-anchor="middle" x="933.413" y="-124.5" font-family="Helvetica,sans-Serif" font-size="10.00">base/vec/vec3.h</text>
</a>
</g>
<!-- Node3&#45;&gt;Node7 -->
<g id="edge12" class="edge"><title>Node3&#45;&gt;Node7</title>
<path fill="none" stroke="midnightblue" d="M714.637,-181.484C760.124,-170.156 832.548,-152.12 881.486,-139.932"/>
<polygon fill="midnightblue" stroke="midnightblue" points="882.392,-143.313 891.249,-137.501 880.7,-136.521 882.392,-143.313"/>
</g>
<!-- Node10 -->
<g id="node21" class="node"><title>Node10</title>
<polygon fill="white" stroke="#bfbfbf" points="597.413,-116.5 597.413,-137.5 643.413,-137.5 643.413,-116.5 597.413,-116.5"/>
<text text-anchor="middle" x="620.413" y="-124.5" font-family="Helvetica,sans-Serif" font-size="10.00">cstdint</text>
</g>
<!-- Node3&#45;&gt;Node10 -->
<g id="edge22" class="edge"><title>Node3&#45;&gt;Node10</title>
<path fill="none" stroke="midnightblue" d="M663.826,-181.267C656.103,-171.612 644.585,-157.215 635.353,-145.675"/>
<polygon fill="midnightblue" stroke="midnightblue" points="637.82,-143.156 628.84,-137.534 632.354,-147.529 637.82,-143.156"/>
</g>
<!-- Node11 -->
<g id="node23" class="node"><title>Node11</title>
<polygon fill="white" stroke="#bfbfbf" points="660.913,-116.5 660.913,-137.5 719.913,-137.5 719.913,-116.5 660.913,-116.5"/>
<text text-anchor="middle" x="690.413" y="-124.5" font-family="Helvetica,sans-Serif" font-size="10.00">stdexcept</text>
</g>
<!-- Node3&#45;&gt;Node11 -->
<g id="edge24" class="edge"><title>Node3&#45;&gt;Node11</title>
<path fill="none" stroke="midnightblue" d="M675.385,-181.267C677.928,-172.085 681.658,-158.615 684.766,-147.392"/>
<polygon fill="midnightblue" stroke="midnightblue" points="688.2,-148.105 687.496,-137.534 681.454,-146.237 688.2,-148.105"/>
</g>
<!-- Node12 -->
<g id="node25" class="node"><title>Node12</title>
<polygon fill="white" stroke="#bfbfbf" points="538.913,-116.5 538.913,-137.5 579.913,-137.5 579.913,-116.5 538.913,-116.5"/>
<text text-anchor="middle" x="559.413" y="-124.5" font-family="Helvetica,sans-Serif" font-size="10.00">string</text>
</g>
<!-- Node3&#45;&gt;Node12 -->
<g id="edge26" class="edge"><title>Node3&#45;&gt;Node12</title>
<path fill="none" stroke="midnightblue" d="M654.006,-181.412C635.702,-170.883 607.413,-154.611 586.537,-142.602"/>
<polygon fill="midnightblue" stroke="midnightblue" points="588.225,-139.536 577.812,-137.584 584.735,-145.604 588.225,-139.536"/>
</g>
<!-- Node13 -->
<g id="node27" class="node"><title>Node13</title>
<polygon fill="white" stroke="#bfbfbf" points="459.413,-116.5 459.413,-137.5 521.413,-137.5 521.413,-116.5 459.413,-116.5"/>
<text text-anchor="middle" x="490.413" y="-124.5" font-family="Helvetica,sans-Serif" font-size="10.00">type_traits</text>
</g>
<!-- Node3&#45;&gt;Node13 -->
<g id="edge28" class="edge"><title>Node3&#45;&gt;Node13</title>
<path fill="none" stroke="midnightblue" d="M642.766,-181.412C611.963,-170.411 563.604,-153.14 529.65,-141.013"/>
<polygon fill="midnightblue" stroke="midnightblue" points="530.641,-137.651 520.047,-137.584 528.287,-144.243 530.641,-137.651"/>
</g>
<!-- Node4&#45;&gt;Node5 -->
<g id="edge8" class="edge"><title>Node4&#45;&gt;Node5</title>
<path fill="none" stroke="midnightblue" d="M873.674,-58.4966C856.803,-49.5194 832.304,-36.4835 813.239,-26.3387"/>
<polygon fill="midnightblue" stroke="midnightblue" points="814.846,-23.2289 804.374,-21.6212 811.557,-29.4086 814.846,-23.2289"/>
</g>
<!-- Node6 -->
<g id="node11" class="node"><title>Node6</title>
<polygon fill="white" stroke="#bfbfbf" points="867.413,-0.5 867.413,-21.5 919.413,-21.5 919.413,-0.5 867.413,-0.5"/>
<text text-anchor="middle" x="893.413" y="-8.5" font-family="Helvetica,sans-Serif" font-size="10.00">ostream</text>
</g>
<!-- Node4&#45;&gt;Node6 -->
<g id="edge10" class="edge"><title>Node4&#45;&gt;Node6</title>
<path fill="none" stroke="midnightblue" d="M893.413,-58.3619C893.413,-50.9219 893.413,-40.7427 893.413,-31.7276"/>
<polygon fill="midnightblue" stroke="midnightblue" points="896.913,-31.5706 893.413,-21.5707 889.913,-31.5707 896.913,-31.5706"/>
</g>
<!-- Node7&#45;&gt;Node4 -->
<g id="edge14" class="edge"><title>Node7&#45;&gt;Node4</title>
<path fill="none" stroke="midnightblue" d="M926.076,-116.362C920.607,-108.431 912.991,-97.3885 906.489,-87.9606"/>
<polygon fill="midnightblue" stroke="midnightblue" points="909.262,-85.8157 900.703,-79.5707 903.499,-89.7899 909.262,-85.8157"/>
</g>
<!-- Node8 -->
<g id="node16" class="node"><title>Node8</title>
<a xlink:href="vec2_8h.html" target="_top" xlink:title="vec2.h">
<polygon fill="white" stroke="black" points="954.413,-58.5 954.413,-79.5 1000.41,-79.5 1000.41,-58.5 954.413,-58.5"/>
<text text-anchor="middle" x="977.413" y="-66.5" font-family="Helvetica,sans-Serif" font-size="10.00">vec2.h</text>
</a>
</g>
<!-- Node7&#45;&gt;Node8 -->
<g id="edge16" class="edge"><title>Node7&#45;&gt;Node8</title>
<path fill="none" stroke="midnightblue" d="M941.483,-116.362C947.562,-108.35 956.05,-97.1605 963.25,-87.6696"/>
<polygon fill="midnightblue" stroke="midnightblue" points="966.138,-89.653 969.394,-79.5707 960.562,-85.4222 966.138,-89.653"/>
</g>
<!-- Node9 -->
<g id="node18" class="node"><title>Node9</title>
<polygon fill="white" stroke="#bfbfbf" points="1025.41,-0.5 1025.41,-21.5 1069.41,-21.5 1069.41,-0.5 1025.41,-0.5"/>
<text text-anchor="middle" x="1047.41" y="-8.5" font-family="Helvetica,sans-Serif" font-size="10.00">cmath</text>
</g>
<!-- Node7&#45;&gt;Node9 -->
<g id="edge20" class="edge"><title>Node7&#45;&gt;Node9</title>
<path fill="none" stroke="midnightblue" d="M956.867,-116.49C973.121,-108.321 994.447,-95.7403 1009.41,-80 1022.89,-65.8273 1033.17,-45.9583 1039.61,-31.1791"/>
<polygon fill="midnightblue" stroke="midnightblue" points="1042.87,-32.4714 1043.46,-21.8931 1036.4,-29.7938 1042.87,-32.4714"/>
</g>
<!-- Node8&#45;&gt;Node9 -->
<g id="edge18" class="edge"><title>Node8&#45;&gt;Node9</title>
<path fill="none" stroke="midnightblue" d="M990.252,-58.3619C1000.42,-49.9408 1014.81,-38.0105 1026.62,-28.2308"/>
<polygon fill="midnightblue" stroke="midnightblue" points="1029.19,-30.6459 1034.66,-21.5707 1024.72,-25.2558 1029.19,-30.6459"/>
</g>
<!-- Node14&#45;&gt;Node3 -->
<g id="edge34" class="edge"><title>Node14&#45;&gt;Node3</title>
<path fill="none" stroke="midnightblue" d="M292.732,-253.989C378.043,-240.06 531.425,-215.019 614.743,-201.416"/>
<polygon fill="midnightblue" stroke="midnightblue" points="615.487,-204.84 624.793,-199.775 614.359,-197.932 615.487,-204.84"/>
</g>
<!-- Node15 -->
<g id="node33" class="node"><title>Node15</title>
<a xlink:href="mapped__vectors_8h.html" target="_top" xlink:title="base/std_ext/mapped\l_vectors.h">
<polygon fill="white" stroke="black" points="25.413,-175 25.413,-209 135.413,-209 135.413,-175 25.413,-175"/>
<text text-anchor="start" x="33.413" y="-196" font-family="Helvetica,sans-Serif" font-size="10.00">base/std_ext/mapped</text>
<text text-anchor="middle" x="80.413" y="-183" font-family="Helvetica,sans-Serif" font-size="10.00">_vectors.h</text>
</a>
</g>
<!-- Node14&#45;&gt;Node15 -->
<g id="edge36" class="edge"><title>Node14&#45;&gt;Node15</title>
<path fill="none" stroke="midnightblue" d="M195.628,-246.937C174.643,-236.931 147.934,-224.196 125.518,-213.507"/>
<polygon fill="midnightblue" stroke="midnightblue" points="126.735,-210.21 116.202,-209.065 123.722,-216.528 126.735,-210.21"/>
</g>
<!-- Node17 -->
<g id="node37" class="node"><title>Node17</title>
<polygon fill="white" stroke="#bfbfbf" points="179.413,-58.5 179.413,-79.5 231.413,-79.5 231.413,-58.5 179.413,-58.5"/>
<text text-anchor="middle" x="205.413" y="-66.5" font-family="Helvetica,sans-Serif" font-size="10.00">memory</text>
</g>
<!-- Node14&#45;&gt;Node17 -->
<g id="edge60" class="edge"><title>Node14&#45;&gt;Node17</title>
<path fill="none" stroke="midnightblue" d="M232.601,-246.986C233.282,-236.359 234.069,-222.389 234.413,-210 234.857,-194.006 236.574,-189.853 234.413,-174 232.17,-157.546 228.839,-154.005 224.413,-138 219.918,-121.747 214.849,-103.334 211.078,-89.6192"/>
<polygon fill="midnightblue" stroke="midnightblue" points="214.393,-88.4733 208.367,-79.7586 207.643,-90.3286 214.393,-88.4733"/>
</g>
<!-- Node18 -->
<g id="node39" class="node"><title>Node18</title>
<polygon fill="white" stroke="#bfbfbf" points="23.913,-58.5 23.913,-79.5 52.913,-79.5 52.913,-58.5 23.913,-58.5"/>
<text text-anchor="middle" x="38.413" y="-66.5" font-family="Helvetica,sans-Serif" font-size="10.00">list</text>
</g>
<!-- Node14&#45;&gt;Node18 -->
<g id="edge64" class="edge"><title>Node14&#45;&gt;Node18</title>
<path fill="none" stroke="midnightblue" d="M170.325,-256.741C113.866,-248.664 35.8606,-233.558 16.413,-210 -10.2078,-177.753 1.96051,-156.488 12.413,-116 14.9533,-106.16 20.0429,-96.1798 25.0508,-87.9624"/>
<polygon fill="midnightblue" stroke="midnightblue" points="28.0134,-89.8267 30.5299,-79.5351 22.1447,-86.0111 28.0134,-89.8267"/>
</g>
<!-- Node19 -->
<g id="node44" class="node"><title>Node19</title>
<a xlink:href="shared__ptr__container_8h.html" target="_top" xlink:title="base/std_ext/shared\l_ptr_container.h">
<polygon fill="white" stroke="black" points="301.913,-175 301.913,-209 406.913,-209 406.913,-175 301.913,-175"/>
<text text-anchor="start" x="309.913" y="-196" font-family="Helvetica,sans-Serif" font-size="10.00">base/std_ext/shared</text>
<text text-anchor="middle" x="354.413" y="-183" font-family="Helvetica,sans-Serif" font-size="10.00">_ptr_container.h</text>
</a>
</g>
<!-- Node14&#45;&gt;Node19 -->
<g id="edge50" class="edge"><title>Node14&#45;&gt;Node19</title>
<path fill="none" stroke="midnightblue" d="M260.562,-246.937C277.138,-237.234 298.097,-224.966 316.002,-214.485"/>
<polygon fill="midnightblue" stroke="midnightblue" points="318.185,-217.262 325.047,-209.19 314.648,-211.221 318.185,-217.262"/>
</g>
<!-- Node20 -->
<g id="node48" class="node"><title>Node20</title>
<polygon fill="white" stroke="#bfbfbf" points="232.913,-116.5 232.913,-137.5 291.913,-137.5 291.913,-116.5 232.913,-116.5"/>
<text text-anchor="middle" x="262.413" y="-124.5" font-family="Helvetica,sans-Serif" font-size="10.00">functional</text>
</g>
<!-- Node14&#45;&gt;Node20 -->
<g id="edge66" class="edge"><title>Node14&#45;&gt;Node20</title>
<path fill="none" stroke="midnightblue" d="M209.764,-246.946C199.365,-237.347 187.976,-224.408 182.413,-210 176.65,-195.074 174.466,-187.887 182.413,-174 191.292,-158.486 207.505,-147.59 223.026,-140.224"/>
<polygon fill="midnightblue" stroke="midnightblue" points="224.759,-143.287 232.529,-136.085 221.963,-136.87 224.759,-143.287"/>
</g>
<!-- Node22 -->
<g id="node53" class="node"><title>Node22</title>
<polygon fill="white" stroke="#bfbfbf" points="190.913,-181.5 190.913,-202.5 225.913,-202.5 225.913,-181.5 190.913,-181.5"/>
<text text-anchor="middle" x="208.413" y="-189.5" font-family="Helvetica,sans-Serif" font-size="10.00">map</text>
</g>
<!-- Node14&#45;&gt;Node22 -->
<g id="edge62" class="edge"><title>Node14&#45;&gt;Node22</title>
<path fill="none" stroke="midnightblue" d="M225.962,-246.937C222.66,-236.601 218.428,-223.352 214.948,-212.456"/>
<polygon fill="midnightblue" stroke="midnightblue" points="218.272,-211.362 211.895,-202.901 211.604,-213.492 218.272,-211.362"/>
</g>
<!-- Node15&#45;&gt;Node5 -->
<g id="edge44" class="edge"><title>Node15&#45;&gt;Node5</title>
<path fill="none" stroke="midnightblue" d="M47.7545,-174.873C34.1874,-165.877 19.8855,-153.476 12.413,-138 4.66255,-121.948 -0.542214,-74.1053 15.413,-58 41.7325,-31.4328 609.107,-15.411 751.981,-11.7882"/>
<polygon fill="midnightblue" stroke="midnightblue" points="752.357,-15.28 762.266,-11.5303 752.182,-8.28216 752.357,-15.28"/>
</g>
<!-- Node15&#45;&gt;Node13 -->
<g id="edge48" class="edge"><title>Node15&#45;&gt;Node13</title>
<path fill="none" stroke="midnightblue" d="M135.426,-182.05C150.636,-179.365 167.154,-176.51 182.413,-174 277.827,-158.303 390.176,-141.61 449.28,-132.966"/>
<polygon fill="midnightblue" stroke="midnightblue" points="449.946,-136.406 459.336,-131.498 448.935,-129.48 449.946,-136.406"/>
</g>
<!-- Node16 -->
<g id="node35" class="node"><title>Node16</title>
<a xlink:href="memory_8h.html" target="_top" xlink:title="base/std_ext/memory.h">
<polygon fill="white" stroke="black" points="20.913,-116.5 20.913,-137.5 139.913,-137.5 139.913,-116.5 20.913,-116.5"/>
<text text-anchor="middle" x="80.413" y="-124.5" font-family="Helvetica,sans-Serif" font-size="10.00">base/std_ext/memory.h</text>
</a>
</g>
<!-- Node15&#45;&gt;Node16 -->
<g id="edge38" class="edge"><title>Node15&#45;&gt;Node16</title>
<path fill="none" stroke="midnightblue" d="M80.413,-174.922C80.413,-166.67 80.413,-156.692 80.413,-147.982"/>
<polygon fill="midnightblue" stroke="midnightblue" points="83.9131,-147.852 80.413,-137.852 76.9131,-147.852 83.9131,-147.852"/>
</g>
<!-- Node15&#45;&gt;Node17 -->
<g id="edge46" class="edge"><title>Node15&#45;&gt;Node17</title>
<path fill="none" stroke="midnightblue" d="M104.4,-174.896C117.903,-164.801 134.745,-151.407 148.413,-138 164.397,-122.322 180.446,-102.433 191.422,-88.0401"/>
<polygon fill="midnightblue" stroke="midnightblue" points="194.348,-89.9732 197.556,-79.8757 188.751,-85.7688 194.348,-89.9732"/>
</g>
<!-- Node16&#45;&gt;Node17 -->
<g id="edge40" class="edge"><title>Node16&#45;&gt;Node17</title>
<path fill="none" stroke="midnightblue" d="M103.05,-116.497C122.661,-107.397 151.259,-94.1273 173.246,-83.9253"/>
<polygon fill="midnightblue" stroke="midnightblue" points="174.924,-87.0051 182.522,-79.6212 171.978,-80.6554 174.924,-87.0051"/>
</g>
<!-- Node16&#45;&gt;Node18 -->
<g id="edge42" class="edge"><title>Node16&#45;&gt;Node18</title>
<path fill="none" stroke="midnightblue" d="M72.7095,-116.362C66.9667,-108.431 58.9702,-97.3885 52.1431,-87.9606"/>
<polygon fill="midnightblue" stroke="midnightblue" points="54.7675,-85.6173 46.0676,-79.5707 49.0979,-89.7229 54.7675,-85.6173"/>
</g>
<!-- Node19&#45;&gt;Node5 -->
<g id="edge52" class="edge"><title>Node19&#45;&gt;Node5</title>
<path fill="none" stroke="midnightblue" d="M371.767,-174.988C389.996,-157.949 420.169,-132.02 450.413,-116 553.997,-61.1329 691.052,-29.3454 752.372,-17.0005"/>
<polygon fill="midnightblue" stroke="midnightblue" points="753.1,-20.4243 762.232,-15.0525 751.744,-13.557 753.1,-20.4243"/>
</g>
<!-- Node19&#45;&gt;Node17 -->
<g id="edge54" class="edge"><title>Node19&#45;&gt;Node17</title>
<path fill="none" stroke="midnightblue" d="M345.463,-174.728C336.082,-157.974 319.993,-132.702 300.413,-116 283.007,-101.153 260.101,-89.6415 241.142,-81.7276"/>
<polygon fill="midnightblue" stroke="midnightblue" points="242.222,-78.3899 231.638,-77.9184 239.618,-84.8875 242.222,-78.3899"/>
</g>
<!-- Node19&#45;&gt;Node20 -->
<g id="edge56" class="edge"><title>Node19&#45;&gt;Node20</title>
<path fill="none" stroke="midnightblue" d="M330.241,-174.922C316.528,-165.233 299.446,-153.165 285.855,-143.562"/>
<polygon fill="midnightblue" stroke="midnightblue" points="287.686,-140.57 277.499,-137.658 283.646,-146.287 287.686,-140.57"/>
</g>
<!-- Node21 -->
<g id="node50" class="node"><title>Node21</title>
<polygon fill="white" stroke="#bfbfbf" points="347.413,-116.5 347.413,-137.5 403.413,-137.5 403.413,-116.5 347.413,-116.5"/>
<text text-anchor="middle" x="375.413" y="-124.5" font-family="Helvetica,sans-Serif" font-size="10.00">algorithm</text>
</g>
<!-- Node19&#45;&gt;Node21 -->
<g id="edge58" class="edge"><title>Node19&#45;&gt;Node21</title>
<path fill="none" stroke="midnightblue" d="M359.93,-174.922C362.656,-166.487 365.964,-156.248 368.821,-147.403"/>
<polygon fill="midnightblue" stroke="midnightblue" points="372.163,-148.444 371.907,-137.852 365.502,-146.292 372.163,-148.444"/>
</g>
<!-- Node23&#45;&gt;Node3 -->
<g id="edge72" class="edge"><title>Node23&#45;&gt;Node3</title>
<path fill="none" stroke="midnightblue" d="M848.017,-253.376C812.009,-240.791 751.914,-219.787 712.222,-205.914"/>
<polygon fill="midnightblue" stroke="midnightblue" points="713.193,-202.546 702.598,-202.55 710.883,-209.154 713.193,-202.546"/>
</g>
<!-- Node23&#45;&gt;Node5 -->
<g id="edge84" class="edge"><title>Node23&#45;&gt;Node5</title>
<path fill="none" stroke="midnightblue" d="M874.494,-253.451C860.22,-215.035 810.866,-82.1969 791.909,-31.176"/>
<polygon fill="midnightblue" stroke="midnightblue" points="795.113,-29.7489 788.349,-21.594 788.551,-32.1869 795.113,-29.7489"/>
</g>
<!-- Node23&#45;&gt;Node7 -->
<g id="edge82" class="edge"><title>Node23&#45;&gt;Node7</title>
<path fill="none" stroke="midnightblue" d="M882.729,-253.25C891.926,-230.341 913.577,-176.409 925.387,-146.992"/>
<polygon fill="midnightblue" stroke="midnightblue" points="928.64,-148.284 929.117,-137.7 922.144,-145.676 928.64,-148.284"/>
</g>
<!-- Node23&#45;&gt;Node9 -->
<g id="edge86" class="edge"><title>Node23&#45;&gt;Node9</title>
<path fill="none" stroke="midnightblue" d="M890.602,-253.367C919.835,-227.131 994.185,-155.91 1030.41,-80 1037.71,-64.7129 1042.07,-45.9764 1044.54,-31.8876"/>
<polygon fill="midnightblue" stroke="midnightblue" points="1048.04,-32.1629 1046.14,-21.7397 1041.13,-31.0723 1048.04,-32.1629"/>
</g>
<!-- Node23&#45;&gt;Node17 -->
<g id="edge92" class="edge"><title>Node23&#45;&gt;Node17</title>
<path fill="none" stroke="midnightblue" d="M863.19,-253.414C848.731,-243.059 826.694,-226.484 809.413,-210 769.508,-171.935 777.467,-141.201 728.413,-116 685.306,-93.8537 352.971,-76.0708 241.631,-70.6822"/>
<polygon fill="midnightblue" stroke="midnightblue" points="241.719,-67.1825 231.563,-70.1997 241.384,-74.1745 241.719,-67.1825"/>
</g>
<!-- Node23&#45;&gt;Node19 -->
<g id="edge80" class="edge"><title>Node23&#45;&gt;Node19</title>
<path fill="none" stroke="midnightblue" d="M837.296,-258.35C746.025,-245.809 526.014,-215.579 417.331,-200.645"/>
<polygon fill="midnightblue" stroke="midnightblue" points="417.552,-197.143 407.169,-199.249 416.599,-204.078 417.552,-197.143"/>
</g>
<!-- Node24 -->
<g id="node61" class="node"><title>Node24</title>
<a xlink:href="math_8h.html" target="_top" xlink:title="base/std_ext/math.h">
<polygon fill="white" stroke="black" points="1019.41,-181.5 1019.41,-202.5 1125.41,-202.5 1125.41,-181.5 1019.41,-181.5"/>
<text text-anchor="middle" x="1072.41" y="-189.5" font-family="Helvetica,sans-Serif" font-size="10.00">base/std_ext/math.h</text>
</a>
</g>
<!-- Node23&#45;&gt;Node24 -->
<g id="edge74" class="edge"><title>Node23&#45;&gt;Node24</title>
<path fill="none" stroke="midnightblue" d="M907.038,-253.376C940.805,-240.844 997.064,-219.965 1034.45,-206.091"/>
<polygon fill="midnightblue" stroke="midnightblue" points="1035.83,-209.311 1043.99,-202.55 1033.39,-202.748 1035.83,-209.311"/>
</g>
<!-- Node26 -->
<g id="node70" class="node"><title>Node26</title>
<polygon fill="white" stroke="#bfbfbf" points="1143.41,-181.5 1143.41,-202.5 1193.41,-202.5 1193.41,-181.5 1143.41,-181.5"/>
<text text-anchor="middle" x="1168.41" y="-189.5" font-family="Helvetica,sans-Serif" font-size="10.00">iomanip</text>
</g>
<!-- Node23&#45;&gt;Node26 -->
<g id="edge88" class="edge"><title>Node23&#45;&gt;Node26</title>
<path fill="none" stroke="midnightblue" d="M919.734,-258.902C971.168,-251.743 1061.17,-236.521 1134.41,-210 1136.69,-209.175 1139.01,-208.222 1141.3,-207.195"/>
<polygon fill="midnightblue" stroke="midnightblue" points="1143.06,-210.233 1150.49,-202.684 1139.97,-203.949 1143.06,-210.233"/>
</g>
<!-- Node27 -->
<g id="node72" class="node"><title>Node27</title>
<polygon fill="white" stroke="#bfbfbf" points="1211.41,-181.5 1211.41,-202.5 1263.41,-202.5 1263.41,-181.5 1211.41,-181.5"/>
<text text-anchor="middle" x="1237.41" y="-189.5" font-family="Helvetica,sans-Serif" font-size="10.00">sstream</text>
</g>
<!-- Node23&#45;&gt;Node27 -->
<g id="edge90" class="edge"><title>Node23&#45;&gt;Node27</title>
<path fill="none" stroke="midnightblue" d="M919.542,-261.237C982.034,-256.135 1104.03,-242.611 1202.41,-210 1205,-209.143 1207.63,-208.116 1210.23,-206.993"/>
<polygon fill="midnightblue" stroke="midnightblue" points="1211.83,-210.104 1219.35,-202.637 1208.82,-203.786 1211.83,-210.104"/>
</g>
<!-- Node24&#45;&gt;Node9 -->
<g id="edge76" class="edge"><title>Node24&#45;&gt;Node9</title>
<path fill="none" stroke="midnightblue" d="M1075.76,-181.378C1078.97,-170.585 1083.59,-153.321 1085.41,-138 1089.61,-102.623 1092.6,-91.4764 1080.41,-58 1076.67,-47.7089 1070.06,-37.5961 1063.74,-29.4033"/>
<polygon fill="midnightblue" stroke="midnightblue" points="1066.42,-27.1584 1057.38,-21.6335 1061,-31.5901 1066.42,-27.1584"/>
</g>
<!-- Node25 -->
<g id="node64" class="node"><title>Node25</title>
<polygon fill="white" stroke="#bfbfbf" points="1036.41,-116.5 1036.41,-137.5 1076.41,-137.5 1076.41,-116.5 1036.41,-116.5"/>
<text text-anchor="middle" x="1056.41" y="-124.5" font-family="Helvetica,sans-Serif" font-size="10.00">limits</text>
</g>
<!-- Node24&#45;&gt;Node25 -->
<g id="edge78" class="edge"><title>Node24&#45;&gt;Node25</title>
<path fill="none" stroke="midnightblue" d="M1069.77,-181.267C1067.51,-172.085 1064.2,-158.615 1061.43,-147.392"/>
<polygon fill="midnightblue" stroke="midnightblue" points="1064.79,-146.407 1059.01,-137.534 1058,-148.08 1064.79,-146.407"/>
</g>
</g>
</svg>
