<?xml version="1.0" encoding="UTF-8" standalone="no"?>
<!DOCTYPE svg PUBLIC "-//W3C//DTD SVG 1.1//EN"
 "http://www.w3.org/Graphics/SVG/1.1/DTD/svg11.dtd">
<!-- Generated by graphviz version 2.26.3 (20100126.1600)
 -->
<!-- Title: src/calibration/gui/ManagerWindow.h Pages: 1 -->
<svg width="1942pt" height="334pt"
 viewBox="0.00 0.00 1942.00 334.00" xmlns="http://www.w3.org/2000/svg" xmlns:xlink="http://www.w3.org/1999/xlink">
<g id="graph1" class="graph" transform="scale(1 1) rotate(0) translate(4 330)">
<title>src/calibration/gui/ManagerWindow.h</title>
<polygon fill="white" stroke="white" points="-4,5 -4,-330 1939,-330 1939,5 -4,5"/>
<!-- Node1 -->
<g id="node1" class="node"><title>Node1</title>
<polygon fill="#bfbfbf" stroke="black" points="1669.5,-291 1669.5,-325 1770.5,-325 1770.5,-291 1669.5,-291"/>
<text text-anchor="start" x="1677.5" y="-312" font-family="Helvetica,sans-Serif" font-size="10.00">src/calibration/gui</text>
<text text-anchor="middle" x="1720" y="-299" font-family="Helvetica,sans-Serif" font-size="10.00">/ManagerWindow.h</text>
</g>
<!-- Node2 -->
<g id="node3" class="node"><title>Node2</title>
<a xlink:href="_manager__traits_8h.html" target="_top" xlink:title="Manager_traits.h">
<polygon fill="white" stroke="black" points="929.5,-232.5 929.5,-253.5 1018.5,-253.5 1018.5,-232.5 929.5,-232.5"/>
<text text-anchor="middle" x="974" y="-240.5" font-family="Helvetica,sans-Serif" font-size="10.00">Manager_traits.h</text>
</a>
</g>
<!-- Node1&#45;&gt;Node2 -->
<g id="edge2" class="edge"><title>Node1&#45;&gt;Node2</title>
<path fill="none" stroke="midnightblue" d="M1669.31,-303.583C1534.46,-291.834 1167.72,-259.879 1028.55,-247.753"/>
<polygon fill="midnightblue" stroke="midnightblue" points="1028.8,-244.262 1018.54,-246.88 1028.19,-251.235 1028.8,-244.262"/>
</g>
<!-- Node17 -->
<g id="node36" class="node"><title>Node17</title>
<polygon fill="white" stroke="#bfbfbf" points="1419.5,-58.5 1419.5,-79.5 1478.5,-79.5 1478.5,-58.5 1419.5,-58.5"/>
<text text-anchor="middle" x="1449" y="-66.5" font-family="Helvetica,sans-Serif" font-size="10.00">functional</text>
</g>
<!-- Node1&#45;&gt;Node17 -->
<g id="edge102" class="edge"><title>Node1&#45;&gt;Node17</title>
<path fill="none" stroke="midnightblue" d="M1716.16,-290.934C1705.77,-245.072 1677.45,-122.193 1671,-116 1645.31,-91.3486 1545.23,-78.0775 1488.61,-72.4056"/>
<polygon fill="midnightblue" stroke="midnightblue" points="1488.86,-68.9138 1478.57,-71.4339 1488.19,-75.8812 1488.86,-68.9138"/>
</g>
<!-- Node26 -->
<g id="node55" class="node"><title>Node26</title>
<polygon fill="white" stroke="#bfbfbf" points="883.5,-116.5 883.5,-137.5 912.5,-137.5 912.5,-116.5 883.5,-116.5"/>
<text text-anchor="middle" x="898" y="-124.5" font-family="Helvetica,sans-Serif" font-size="10.00">list</text>
</g>
<!-- Node1&#45;&gt;Node26 -->
<g id="edge104" class="edge"><title>Node1&#45;&gt;Node26</title>
<path fill="none" stroke="midnightblue" d="M1669.33,-306.279C1497.93,-300.238 948.968,-279.007 921,-254 891.212,-227.366 891.764,-176.212 894.841,-147.623"/>
<polygon fill="midnightblue" stroke="midnightblue" points="898.333,-147.906 896.134,-137.541 891.39,-147.015 898.333,-147.906"/>
</g>
<!-- Node36 -->
<g id="node85" class="node"><title>Node36</title>
<polygon fill="white" stroke="#bfbfbf" points="1718,-232.5 1718,-253.5 1784,-253.5 1784,-232.5 1718,-232.5"/>
<text text-anchor="middle" x="1751" y="-240.5" font-family="Helvetica,sans-Serif" font-size="10.00">TGFrame.h</text>
</g>
<!-- Node1&#45;&gt;Node36 -->
<g id="edge98" class="edge"><title>Node1&#45;&gt;Node36</title>
<path fill="none" stroke="midnightblue" d="M1728.14,-290.922C1732.21,-282.395 1737.16,-272.025 1741.41,-263.115"/>
<polygon fill="midnightblue" stroke="midnightblue" points="1744.68,-264.385 1745.82,-253.852 1738.36,-261.371 1744.68,-264.385"/>
</g>
<!-- Node37 -->
<g id="node87" class="node"><title>Node37</title>
<polygon fill="white" stroke="#bfbfbf" points="1802,-232.5 1802,-253.5 1882,-253.5 1882,-232.5 1802,-232.5"/>
<text text-anchor="middle" x="1842" y="-240.5" font-family="Helvetica,sans-Serif" font-size="10.00">KeySymbols.h</text>
</g>
<!-- Node1&#45;&gt;Node37 -->
<g id="edge100" class="edge"><title>Node1&#45;&gt;Node37</title>
<path fill="none" stroke="midnightblue" d="M1752.05,-290.922C1770.93,-280.864 1794.62,-268.242 1812.95,-258.476"/>
<polygon fill="midnightblue" stroke="midnightblue" points="1814.82,-261.449 1822,-253.658 1811.52,-255.272 1814.82,-261.449"/>
</g>
<!-- Node38 -->
<g id="node91" class="node"><title>Node38</title>
<polygon fill="white" stroke="#bfbfbf" points="1899.5,-232.5 1899.5,-253.5 1934.5,-253.5 1934.5,-232.5 1899.5,-232.5"/>
<text text-anchor="middle" x="1917" y="-240.5" font-family="Helvetica,sans-Serif" font-size="10.00">map</text>
</g>
<!-- Node1&#45;&gt;Node38 -->
<g id="edge106" class="edge"><title>Node1&#45;&gt;Node38</title>
<path fill="none" stroke="midnightblue" d="M1770.55,-293.403C1802.54,-283.855 1844.9,-270.645 1889.84,-254.233"/>
<polygon fill="midnightblue" stroke="midnightblue" points="1891.3,-257.427 1899.47,-250.682 1888.87,-250.859 1891.3,-257.427"/>
</g>
<!-- Node3 -->
<g id="node5" class="node"><title>Node3</title>
<a xlink:href="interval_8h.html" target="_top" xlink:title="base/interval.h">
<polygon fill="white" stroke="black" points="160,-174.5 160,-195.5 240,-195.5 240,-174.5 160,-174.5"/>
<text text-anchor="middle" x="200" y="-182.5" font-family="Helvetica,sans-Serif" font-size="10.00">base/interval.h</text>
</a>
</g>
<!-- Node2&#45;&gt;Node3 -->
<g id="edge4" class="edge"><title>Node2&#45;&gt;Node3</title>
<path fill="none" stroke="midnightblue" d="M929.324,-239.652C794.588,-229.556 392.794,-199.447 250.577,-188.79"/>
<polygon fill="midnightblue" stroke="midnightblue" points="250.63,-185.284 240.396,-188.027 250.107,-192.265 250.63,-185.284"/>
</g>
<!-- Node12 -->
<g id="node23" class="node"><title>Node12</title>
<a xlink:href="_wrap_t_file_8h.html" target="_top" xlink:title="base/WrapTFile.h">
<polygon fill="white" stroke="black" points="1175,-174.5 1175,-195.5 1269,-195.5 1269,-174.5 1175,-174.5"/>
<text text-anchor="middle" x="1222" y="-182.5" font-family="Helvetica,sans-Serif" font-size="10.00">base/WrapTFile.h</text>
</a>
</g>
<!-- Node2&#45;&gt;Node12 -->
<g id="edge22" class="edge"><title>Node2&#45;&gt;Node12</title>
<path fill="none" stroke="midnightblue" d="M1018.62,-232.564C1060.24,-222.831 1122.44,-208.285 1167.09,-197.843"/>
<polygon fill="midnightblue" stroke="midnightblue" points="1167.96,-201.234 1176.9,-195.548 1166.36,-194.417 1167.96,-201.234"/>
</g>
<!-- Node14 -->
<g id="node27" class="node"><title>Node14</title>
<polygon fill="white" stroke="#bfbfbf" points="1371.5,-0.5 1371.5,-21.5 1412.5,-21.5 1412.5,-0.5 1371.5,-0.5"/>
<text text-anchor="middle" x="1392" y="-8.5" font-family="Helvetica,sans-Serif" font-size="10.00">string</text>
</g>
<!-- Node2&#45;&gt;Node14 -->
<g id="edge92" class="edge"><title>Node2&#45;&gt;Node14</title>
<path fill="none" stroke="midnightblue" d="M1018.61,-239.619C1165.64,-228.029 1628.09,-187.854 1671,-138 1743.98,-53.1976 1508.94,-22.0291 1422.56,-13.5949"/>
<polygon fill="midnightblue" stroke="midnightblue" points="1422.85,-10.1063 1412.56,-12.6559 1422.19,-17.0756 1422.85,-10.1063"/>
</g>
<!-- Node25 -->
<g id="node52" class="node"><title>Node25</title>
<polygon fill="white" stroke="#bfbfbf" points="930,-116.5 930,-137.5 982,-137.5 982,-116.5 930,-116.5"/>
<text text-anchor="middle" x="956" y="-124.5" font-family="Helvetica,sans-Serif" font-size="10.00">memory</text>
</g>
<!-- Node2&#45;&gt;Node25 -->
<g id="edge96" class="edge"><title>Node2&#45;&gt;Node25</title>
<path fill="none" stroke="midnightblue" d="M972.339,-232.295C969.365,-213.131 963.084,-172.654 959.234,-147.843"/>
<polygon fill="midnightblue" stroke="midnightblue" points="962.649,-147.024 957.657,-137.679 955.732,-148.098 962.649,-147.024"/>
</g>
<!-- Node2&#45;&gt;Node26 -->
<g id="edge94" class="edge"><title>Node2&#45;&gt;Node26</title>
<path fill="none" stroke="midnightblue" d="M966.986,-232.295C954.148,-212.7 926.71,-170.82 910.574,-146.191"/>
<polygon fill="midnightblue" stroke="midnightblue" points="913.405,-144.126 904.997,-137.679 907.549,-147.962 913.405,-144.126"/>
</g>
<!-- Node27 -->
<g id="node59" class="node"><title>Node27</title>
<a xlink:href="_t_i_d_8h.html" target="_top" xlink:title="tree/TID.h">
<polygon fill="white" stroke="black" points="608.5,-174.5 608.5,-195.5 669.5,-195.5 669.5,-174.5 608.5,-174.5"/>
<text text-anchor="middle" x="639" y="-182.5" font-family="Helvetica,sans-Serif" font-size="10.00">tree/TID.h</text>
</a>
</g>
<!-- Node2&#45;&gt;Node27 -->
<g id="edge64" class="edge"><title>Node2&#45;&gt;Node27</title>
<path fill="none" stroke="midnightblue" d="M929.168,-235.238C863.639,-223.893 742.664,-202.948 679.615,-192.032"/>
<polygon fill="midnightblue" stroke="midnightblue" points="680.093,-188.563 669.643,-190.305 678.899,-195.46 680.093,-188.563"/>
</g>
<!-- Node4 -->
<g id="node7" class="node"><title>Node4</title>
<a xlink:href="printable_8h.html" target="_top" xlink:title="printable.h">
<polygon fill="white" stroke="black" points="228,-116.5 228,-137.5 290,-137.5 290,-116.5 228,-116.5"/>
<text text-anchor="middle" x="259" y="-124.5" font-family="Helvetica,sans-Serif" font-size="10.00">printable.h</text>
</a>
</g>
<!-- Node3&#45;&gt;Node4 -->
<g id="edge6" class="edge"><title>Node3&#45;&gt;Node4</title>
<path fill="none" stroke="midnightblue" d="M210.822,-174.362C219.221,-166.104 231.054,-154.472 240.89,-144.803"/>
<polygon fill="midnightblue" stroke="midnightblue" points="243.569,-147.077 248.247,-137.571 238.662,-142.085 243.569,-147.077"/>
</g>
<!-- Node7 -->
<g id="node13" class="node"><title>Node7</title>
<a xlink:href="types_8h.html" target="_top" xlink:title="types.h">
<polygon fill="white" stroke="black" points="-0.5,-116.5 -0.5,-137.5 48.5,-137.5 48.5,-116.5 -0.5,-116.5"/>
<text text-anchor="middle" x="24" y="-124.5" font-family="Helvetica,sans-Serif" font-size="10.00">types.h</text>
</a>
</g>
<!-- Node3&#45;&gt;Node7 -->
<g id="edge12" class="edge"><title>Node3&#45;&gt;Node7</title>
<path fill="none" stroke="midnightblue" d="M167.899,-174.492C140.89,-165.641 101.005,-152.549 58.0141,-138.328"/>
<polygon fill="midnightblue" stroke="midnightblue" points="59.0978,-135 48.5045,-135.181 56.8983,-141.646 59.0978,-135"/>
</g>
<!-- Node8 -->
<g id="node15" class="node"><title>Node8</title>
<polygon fill="white" stroke="#bfbfbf" points="647,-0.5 647,-21.5 703,-21.5 703,-0.5 647,-0.5"/>
<text text-anchor="middle" x="675" y="-8.5" font-family="Helvetica,sans-Serif" font-size="10.00">algorithm</text>
</g>
<!-- Node3&#45;&gt;Node8 -->
<g id="edge14" class="edge"><title>Node3&#45;&gt;Node8</title>
<path fill="none" stroke="midnightblue" d="M201.496,-174.184C203.764,-160.128 208.919,-135.125 219,-116 234.735,-86.1476 238.117,-73.6773 268,-58 338.583,-20.9706 541.928,-36.6324 636.917,-21.7283"/>
<polygon fill="midnightblue" stroke="midnightblue" points="637.618,-25.1588 646.857,-19.9734 636.401,-18.2654 637.618,-25.1588"/>
</g>
<!-- Node9 -->
<g id="node17" class="node"><title>Node9</title>
<polygon fill="white" stroke="#bfbfbf" points="675.5,-116.5 675.5,-137.5 734.5,-137.5 734.5,-116.5 675.5,-116.5"/>
<text text-anchor="middle" x="705" y="-124.5" font-family="Helvetica,sans-Serif" font-size="10.00">stdexcept</text>
</g>
<!-- Node3&#45;&gt;Node9 -->
<g id="edge16" class="edge"><title>Node3&#45;&gt;Node9</title>
<path fill="none" stroke="midnightblue" d="M240.024,-183.42C319.542,-179.755 503.063,-168.677 665.105,-138.11"/>
<polygon fill="midnightblue" stroke="midnightblue" points="666.092,-141.485 675.254,-136.164 664.774,-134.61 666.092,-141.485"/>
</g>
<!-- Node10 -->
<g id="node19" class="node"><title>Node10</title>
<polygon fill="white" stroke="#bfbfbf" points="66,-116.5 66,-137.5 106,-137.5 106,-116.5 66,-116.5"/>
<text text-anchor="middle" x="86" y="-124.5" font-family="Helvetica,sans-Serif" font-size="10.00">limits</text>
</g>
<!-- Node3&#45;&gt;Node10 -->
<g id="edge18" class="edge"><title>Node3&#45;&gt;Node10</title>
<path fill="none" stroke="midnightblue" d="M179.355,-174.497C161.409,-165.366 135.21,-152.036 115.131,-141.821"/>
<polygon fill="midnightblue" stroke="midnightblue" points="116.608,-138.646 106.108,-137.231 113.434,-144.885 116.608,-138.646"/>
</g>
<!-- Node11 -->
<g id="node21" class="node"><title>Node11</title>
<polygon fill="white" stroke="#bfbfbf" points="123.5,-116.5 123.5,-137.5 172.5,-137.5 172.5,-116.5 123.5,-116.5"/>
<text text-anchor="middle" x="148" y="-124.5" font-family="Helvetica,sans-Serif" font-size="10.00">istream</text>
</g>
<!-- Node3&#45;&gt;Node11 -->
<g id="edge20" class="edge"><title>Node3&#45;&gt;Node11</title>
<path fill="none" stroke="midnightblue" d="M190.462,-174.362C183.132,-166.186 172.837,-154.702 164.219,-145.091"/>
<polygon fill="midnightblue" stroke="midnightblue" points="166.759,-142.68 157.477,-137.571 161.547,-147.353 166.759,-142.68"/>
</g>
<!-- Node5 -->
<g id="node9" class="node"><title>Node5</title>
<polygon fill="white" stroke="#bfbfbf" points="389,-0.5 389,-21.5 433,-21.5 433,-0.5 389,-0.5"/>
<text text-anchor="middle" x="411" y="-8.5" font-family="Helvetica,sans-Serif" font-size="10.00">vector</text>
</g>
<!-- Node4&#45;&gt;Node5 -->
<g id="edge8" class="edge"><title>Node4&#45;&gt;Node5</title>
<path fill="none" stroke="midnightblue" d="M257.178,-116.3C255.293,-101.453 254.288,-74.5643 268,-58 282.242,-40.7956 341.217,-25.6124 378.84,-17.4214"/>
<polygon fill="midnightblue" stroke="midnightblue" points="379.775,-20.8009 388.83,-15.3006 378.321,-13.9535 379.775,-20.8009"/>
</g>
<!-- Node6 -->
<g id="node11" class="node"><title>Node6</title>
<polygon fill="white" stroke="#bfbfbf" points="277,-58.5 277,-79.5 329,-79.5 329,-58.5 277,-58.5"/>
<text text-anchor="middle" x="303" y="-66.5" font-family="Helvetica,sans-Serif" font-size="10.00">ostream</text>
</g>
<!-- Node4&#45;&gt;Node6 -->
<g id="edge10" class="edge"><title>Node4&#45;&gt;Node6</title>
<path fill="none" stroke="midnightblue" d="M267.07,-116.362C273.149,-108.35 281.637,-97.1605 288.837,-87.6696"/>
<polygon fill="midnightblue" stroke="midnightblue" points="291.725,-89.653 294.981,-79.5707 286.149,-85.4222 291.725,-89.653"/>
</g>
<!-- Node12&#45;&gt;Node9 -->
<g id="edge60" class="edge"><title>Node12&#45;&gt;Node9</title>
<path fill="none" stroke="midnightblue" d="M1174.67,-183.242C1090.01,-179.472 907.027,-168.493 744.9,-138.106"/>
<polygon fill="midnightblue" stroke="midnightblue" points="745.223,-134.604 734.745,-136.171 743.913,-141.481 745.223,-134.604"/>
</g>
<!-- Node13 -->
<g id="node25" class="node"><title>Node13</title>
<a xlink:href="string_8h.html" target="_top" xlink:title="base/std_ext/string.h">
<polygon fill="white" stroke="black" points="585,-58.5 585,-79.5 693,-79.5 693,-58.5 585,-58.5"/>
<text text-anchor="middle" x="639" y="-66.5" font-family="Helvetica,sans-Serif" font-size="10.00">base/std_ext/string.h</text>
</a>
</g>
<!-- Node12&#45;&gt;Node13 -->
<g id="edge24" class="edge"><title>Node12&#45;&gt;Node13</title>
<path fill="none" stroke="midnightblue" d="M1174.82,-177.413C1135.01,-170.099 1077,-157.276 1029,-138 1010.89,-130.728 1009.47,-122.301 991,-116 939.151,-98.3118 789.658,-82.5321 703.075,-74.5353"/>
<polygon fill="midnightblue" stroke="midnightblue" points="703.374,-71.0481 693.096,-73.6223 702.736,-78.0189 703.374,-71.0481"/>
</g>
<!-- Node12&#45;&gt;Node14 -->
<g id="edge56" class="edge"><title>Node12&#45;&gt;Node14</title>
<path fill="none" stroke="midnightblue" d="M1269.02,-176.041C1308.06,-167.619 1359.33,-153.945 1373,-138 1398.51,-108.25 1397.94,-59.4769 1395.09,-31.8319"/>
<polygon fill="midnightblue" stroke="midnightblue" points="1398.54,-31.209 1393.84,-21.7134 1391.59,-32.0671 1398.54,-31.209"/>
</g>
<!-- Node16 -->
<g id="node33" class="node"><title>Node16</title>
<a xlink:href="misc_8h.html" target="_top" xlink:title="base/std_ext/misc.h">
<polygon fill="white" stroke="black" points="1037.5,-116.5 1037.5,-137.5 1142.5,-137.5 1142.5,-116.5 1037.5,-116.5"/>
<text text-anchor="middle" x="1090" y="-124.5" font-family="Helvetica,sans-Serif" font-size="10.00">base/std_ext/misc.h</text>
</a>
</g>
<!-- Node12&#45;&gt;Node16 -->
<g id="edge34" class="edge"><title>Node12&#45;&gt;Node16</title>
<path fill="none" stroke="midnightblue" d="M1198.1,-174.497C1177.2,-165.315 1146.64,-151.889 1123.34,-141.652"/>
<polygon fill="midnightblue" stroke="midnightblue" points="1124.74,-138.44 1114.17,-137.621 1121.92,-144.848 1124.74,-138.44"/>
</g>
<!-- Node12&#45;&gt;Node17 -->
<g id="edge62" class="edge"><title>Node12&#45;&gt;Node17</title>
<path fill="none" stroke="midnightblue" d="M1269.05,-177.102C1316.07,-168.494 1384.38,-153.821 1406,-138 1422.82,-125.691 1434.54,-104.627 1441.45,-89.0015"/>
<polygon fill="midnightblue" stroke="midnightblue" points="1444.72,-90.2448 1445.3,-79.6657 1438.25,-87.5754 1444.72,-90.2448"/>
</g>
<!-- Node19 -->
<g id="node40" class="node"><title>Node19</title>
<polygon fill="white" stroke="#bfbfbf" points="1457.5,-116.5 1457.5,-137.5 1504.5,-137.5 1504.5,-116.5 1457.5,-116.5"/>
<text text-anchor="middle" x="1481" y="-124.5" font-family="Helvetica,sans-Serif" font-size="10.00">TFile.h</text>
</g>
<!-- Node12&#45;&gt;Node19 -->
<g id="edge42" class="edge"><title>Node12&#45;&gt;Node19</title>
<path fill="none" stroke="midnightblue" d="M1269.03,-176.183C1314.14,-167.457 1384.05,-153.231 1444,-138 1445.07,-137.728 1446.16,-137.445 1447.26,-137.154"/>
<polygon fill="midnightblue" stroke="midnightblue" points="1448.5,-140.44 1457.19,-134.384 1446.62,-133.697 1448.5,-140.44"/>
</g>
<!-- Node20 -->
<g id="node42" class="node"><title>Node20</title>
<polygon fill="white" stroke="#bfbfbf" points="1521.5,-116.5 1521.5,-137.5 1592.5,-137.5 1592.5,-116.5 1521.5,-116.5"/>
<text text-anchor="middle" x="1557" y="-124.5" font-family="Helvetica,sans-Serif" font-size="10.00">TDirectory.h</text>
</g>
<!-- Node12&#45;&gt;Node20 -->
<g id="edge44" class="edge"><title>Node12&#45;&gt;Node20</title>
<path fill="none" stroke="midnightblue" d="M1269.1,-178.648C1324.8,-170.857 1420.5,-156.601 1511.15,-138.274"/>
<polygon fill="midnightblue" stroke="midnightblue" points="1511.94,-141.685 1521.04,-136.254 1510.54,-134.827 1511.94,-141.685"/>
</g>
<!-- Node21 -->
<g id="node44" class="node"><title>Node21</title>
<polygon fill="white" stroke="#bfbfbf" points="1610,-116.5 1610,-137.5 1662,-137.5 1662,-116.5 1610,-116.5"/>
<text text-anchor="middle" x="1636" y="-124.5" font-family="Helvetica,sans-Serif" font-size="10.00">TError.h</text>
</g>
<!-- Node12&#45;&gt;Node21 -->
<g id="edge46" class="edge"><title>Node12&#45;&gt;Node21</title>
<path fill="none" stroke="midnightblue" d="M1269.14,-181.911C1339.37,-176.708 1475.65,-164.298 1599.71,-137.976"/>
<polygon fill="midnightblue" stroke="midnightblue" points="1600.73,-141.337 1609.76,-135.806 1599.25,-134.495 1600.73,-141.337"/>
</g>
<!-- Node22 -->
<g id="node46" class="node"><title>Node22</title>
<polygon fill="white" stroke="#bfbfbf" points="1159.5,-116.5 1159.5,-137.5 1206.5,-137.5 1206.5,-116.5 1159.5,-116.5"/>
<text text-anchor="middle" x="1183" y="-124.5" font-family="Helvetica,sans-Serif" font-size="10.00">TList.h</text>
</g>
<!-- Node12&#45;&gt;Node22 -->
<g id="edge48" class="edge"><title>Node12&#45;&gt;Node22</title>
<path fill="none" stroke="midnightblue" d="M1214.85,-174.362C1209.51,-166.431 1202.09,-155.389 1195.75,-145.961"/>
<polygon fill="midnightblue" stroke="midnightblue" points="1198.59,-143.916 1190.11,-137.571 1192.78,-147.822 1198.59,-143.916"/>
</g>
<!-- Node23 -->
<g id="node48" class="node"><title>Node23</title>
<polygon fill="white" stroke="#bfbfbf" points="1224,-116.5 1224,-137.5 1298,-137.5 1298,-116.5 1224,-116.5"/>
<text text-anchor="middle" x="1261" y="-124.5" font-family="Helvetica,sans-Serif" font-size="10.00">TCollection.h</text>
</g>
<!-- Node12&#45;&gt;Node23 -->
<g id="edge50" class="edge"><title>Node12&#45;&gt;Node23</title>
<path fill="none" stroke="midnightblue" d="M1229.15,-174.362C1234.49,-166.431 1241.91,-155.389 1248.25,-145.961"/>
<polygon fill="midnightblue" stroke="midnightblue" points="1251.22,-147.822 1253.89,-137.571 1245.41,-143.916 1251.22,-147.822"/>
</g>
<!-- Node24 -->
<g id="node50" class="node"><title>Node24</title>
<polygon fill="white" stroke="#bfbfbf" points="1316,-116.5 1316,-137.5 1364,-137.5 1364,-116.5 1316,-116.5"/>
<text text-anchor="middle" x="1340" y="-124.5" font-family="Helvetica,sans-Serif" font-size="10.00">TKey.h</text>
</g>
<!-- Node12&#45;&gt;Node24 -->
<g id="edge52" class="edge"><title>Node12&#45;&gt;Node24</title>
<path fill="none" stroke="midnightblue" d="M1243.37,-174.497C1261.8,-165.438 1288.64,-152.246 1309.36,-142.063"/>
<polygon fill="midnightblue" stroke="midnightblue" points="1310.96,-145.174 1318.39,-137.621 1307.87,-138.891 1310.96,-145.174"/>
</g>
<!-- Node12&#45;&gt;Node25 -->
<g id="edge54" class="edge"><title>Node12&#45;&gt;Node25</title>
<path fill="none" stroke="midnightblue" d="M1174.62,-176.054C1128.76,-167.18 1057.36,-152.801 996,-138 994.74,-137.696 993.459,-137.38 992.167,-137.056"/>
<polygon fill="midnightblue" stroke="midnightblue" points="992.748,-133.591 982.188,-134.457 990.983,-140.365 992.748,-133.591"/>
</g>
<!-- Node12&#45;&gt;Node26 -->
<g id="edge58" class="edge"><title>Node12&#45;&gt;Node26</title>
<path fill="none" stroke="midnightblue" d="M1174.9,-181.902C1116.88,-177.159 1015.5,-165.853 922.662,-137.897"/>
<polygon fill="midnightblue" stroke="midnightblue" points="923.428,-134.471 912.84,-134.866 921.363,-141.159 923.428,-134.471"/>
</g>
<!-- Node13&#45;&gt;Node5 -->
<g id="edge32" class="edge"><title>Node13&#45;&gt;Node5</title>
<path fill="none" stroke="midnightblue" d="M597.711,-58.4966C553.206,-47.1752 483.326,-29.3987 442.867,-19.1065"/>
<polygon fill="midnightblue" stroke="midnightblue" points="443.561,-15.6716 433.006,-16.5981 441.835,-22.4555 443.561,-15.6716"/>
</g>
<!-- Node13&#45;&gt;Node8 -->
<g id="edge30" class="edge"><title>Node13&#45;&gt;Node8</title>
<path fill="none" stroke="midnightblue" d="M645.603,-58.3619C650.475,-50.5131 657.238,-39.6159 663.05,-30.2527"/>
<polygon fill="midnightblue" stroke="midnightblue" points="666.139,-31.9129 668.439,-21.5707 660.191,-28.2213 666.139,-31.9129"/>
</g>
<!-- Node13&#45;&gt;Node14 -->
<g id="edge26" class="edge"><title>Node13&#45;&gt;Node14</title>
<path fill="none" stroke="midnightblue" d="M693.154,-64.8288C840.65,-53.4678 1246.15,-22.2339 1361.2,-13.3722"/>
<polygon fill="midnightblue" stroke="midnightblue" points="1361.71,-16.8437 1371.41,-12.5859 1361.17,-9.86433 1361.71,-16.8437"/>
</g>
<!-- Node15 -->
<g id="node29" class="node"><title>Node15</title>
<polygon fill="white" stroke="#bfbfbf" points="577,-0.5 577,-21.5 629,-21.5 629,-0.5 577,-0.5"/>
<text text-anchor="middle" x="603" y="-8.5" font-family="Helvetica,sans-Serif" font-size="10.00">sstream</text>
</g>
<!-- Node13&#45;&gt;Node15 -->
<g id="edge28" class="edge"><title>Node13&#45;&gt;Node15</title>
<path fill="none" stroke="midnightblue" d="M632.397,-58.3619C627.525,-50.5131 620.762,-39.6159 614.95,-30.2527"/>
<polygon fill="midnightblue" stroke="midnightblue" points="617.809,-28.2213 609.561,-21.5707 611.861,-31.9129 617.809,-28.2213"/>
</g>
<!-- Node16&#45;&gt;Node8 -->
<g id="edge36" class="edge"><title>Node16&#45;&gt;Node8</title>
<path fill="none" stroke="midnightblue" d="M1052.07,-116.398C973.175,-94.3454 792.167,-43.7502 713.112,-21.6531"/>
<polygon fill="midnightblue" stroke="midnightblue" points="713.672,-18.1755 703.099,-18.8543 711.788,-24.9171 713.672,-18.1755"/>
</g>
<!-- Node16&#45;&gt;Node17 -->
<g id="edge38" class="edge"><title>Node16&#45;&gt;Node17</title>
<path fill="none" stroke="midnightblue" d="M1142.56,-117.446C1145.41,-116.951 1148.24,-116.466 1151,-116 1243.37,-100.389 1352.14,-83.6481 1409.3,-74.9774"/>
<polygon fill="midnightblue" stroke="midnightblue" points="1409.99,-78.4124 1419.36,-73.4544 1408.95,-71.4914 1409.99,-78.4124"/>
</g>
<!-- Node18 -->
<g id="node38" class="node"><title>Node18</title>
<polygon fill="white" stroke="#bfbfbf" points="1063.5,-58.5 1063.5,-79.5 1116.5,-79.5 1116.5,-58.5 1063.5,-58.5"/>
<text text-anchor="middle" x="1090" y="-66.5" font-family="Helvetica,sans-Serif" font-size="10.00">cxxabi.h</text>
</g>
<!-- Node16&#45;&gt;Node18 -->
<g id="edge40" class="edge"><title>Node16&#45;&gt;Node18</title>
<path fill="none" stroke="midnightblue" d="M1090,-116.362C1090,-108.922 1090,-98.7427 1090,-89.7276"/>
<polygon fill="midnightblue" stroke="midnightblue" points="1093.5,-89.5706 1090,-79.5707 1086.5,-89.5707 1093.5,-89.5706"/>
</g>
<!-- Node27&#45;&gt;Node4 -->
<g id="edge68" class="edge"><title>Node27&#45;&gt;Node4</title>
<path fill="none" stroke="midnightblue" d="M608.346,-181.742C549.194,-175.226 415.317,-159.358 304,-138 302.756,-137.761 301.495,-137.51 300.223,-137.25"/>
<polygon fill="midnightblue" stroke="midnightblue" points="300.9,-133.815 290.383,-135.097 299.404,-140.653 300.9,-133.815"/>
</g>
<!-- Node27&#45;&gt;Node9 -->
<g id="edge84" class="edge"><title>Node27&#45;&gt;Node9</title>
<path fill="none" stroke="midnightblue" d="M651.105,-174.362C660.688,-165.941 674.264,-154.011 685.393,-144.231"/>
<polygon fill="midnightblue" stroke="midnightblue" points="687.77,-146.801 692.971,-137.571 683.149,-141.543 687.77,-146.801"/>
</g>
<!-- Node27&#45;&gt;Node26 -->
<g id="edge86" class="edge"><title>Node27&#45;&gt;Node26</title>
<path fill="none" stroke="midnightblue" d="M669.804,-181.362C713.601,-175.657 796.307,-162.919 873.287,-138.032"/>
<polygon fill="midnightblue" stroke="midnightblue" points="874.737,-141.238 883.129,-134.771 872.536,-134.594 874.737,-141.238"/>
</g>
<!-- Node28 -->
<g id="node61" class="node"><title>Node28</title>
<polygon fill="white" stroke="#bfbfbf" points="466,-116.5 466,-137.5 522,-137.5 522,-116.5 466,-116.5"/>
<text text-anchor="middle" x="494" y="-124.5" font-family="Helvetica,sans-Serif" font-size="10.00">Rtypes.h</text>
</g>
<!-- Node27&#45;&gt;Node28 -->
<g id="edge66" class="edge"><title>Node27&#45;&gt;Node28</title>
<path fill="none" stroke="midnightblue" d="M612.742,-174.497C589.584,-165.234 555.625,-151.65 529.948,-141.379"/>
<polygon fill="midnightblue" stroke="midnightblue" points="531.138,-138.086 520.553,-137.621 528.538,-144.585 531.138,-138.086"/>
</g>
<!-- Node29 -->
<g id="node64" class="node"><title>Node29</title>
<a xlink:href="time_8h.html" target="_top" xlink:title="base/std_ext/time.h">
<polygon fill="white" stroke="black" points="345.5,-116.5 345.5,-137.5 448.5,-137.5 448.5,-116.5 345.5,-116.5"/>
<text text-anchor="middle" x="397" y="-124.5" font-family="Helvetica,sans-Serif" font-size="10.00">base/std_ext/time.h</text>
</a>
</g>
<!-- Node27&#45;&gt;Node29 -->
<g id="edge70" class="edge"><title>Node27&#45;&gt;Node29</title>
<path fill="none" stroke="midnightblue" d="M608.351,-177.654C568.81,-168.178 499.364,-151.534 450.909,-139.92"/>
<polygon fill="midnightblue" stroke="midnightblue" points="451.446,-136.45 440.905,-137.523 449.814,-143.257 451.446,-136.45"/>
</g>
<!-- Node31 -->
<g id="node69" class="node"><title>Node31</title>
<polygon fill="white" stroke="#bfbfbf" points="346.5,-58.5 346.5,-79.5 387.5,-79.5 387.5,-58.5 346.5,-58.5"/>
<text text-anchor="middle" x="367" y="-66.5" font-family="Helvetica,sans-Serif" font-size="10.00">ctime</text>
</g>
<!-- Node27&#45;&gt;Node31 -->
<g id="edge90" class="edge"><title>Node27&#45;&gt;Node31</title>
<path fill="none" stroke="midnightblue" d="M608.321,-182.468C535.036,-176.109 354.56,-158.504 337,-138 324.382,-123.267 336.498,-102.409 348.898,-87.4889"/>
<polygon fill="midnightblue" stroke="midnightblue" points="351.629,-89.6852 355.661,-79.8877 346.399,-85.0322 351.629,-89.6852"/>
</g>
<!-- Node32 -->
<g id="node71" class="node"><title>Node32</title>
<polygon fill="white" stroke="#bfbfbf" points="540,-116.5 540,-137.5 602,-137.5 602,-116.5 540,-116.5"/>
<text text-anchor="middle" x="571" y="-124.5" font-family="Helvetica,sans-Serif" font-size="10.00">type_traits</text>
</g>
<!-- Node27&#45;&gt;Node32 -->
<g id="edge78" class="edge"><title>Node27&#45;&gt;Node32</title>
<path fill="none" stroke="midnightblue" d="M626.528,-174.362C616.655,-165.941 602.667,-154.011 591.202,-144.231"/>
<polygon fill="midnightblue" stroke="midnightblue" points="593.273,-141.397 583.393,-137.571 588.73,-146.723 593.273,-141.397"/>
</g>
<!-- Node33 -->
<g id="node73" class="node"><title>Node33</title>
<polygon fill="white" stroke="#bfbfbf" points="620,-116.5 620,-137.5 658,-137.5 658,-116.5 620,-116.5"/>
<text text-anchor="middle" x="639" y="-124.5" font-family="Helvetica,sans-Serif" font-size="10.00">tuple</text>
</g>
<!-- Node27&#45;&gt;Node33 -->
<g id="edge80" class="edge"><title>Node27&#45;&gt;Node33</title>
<path fill="none" stroke="midnightblue" d="M639,-174.362C639,-166.922 639,-156.743 639,-147.728"/>
<polygon fill="midnightblue" stroke="midnightblue" points="642.5,-147.571 639,-137.571 635.5,-147.571 642.5,-147.571"/>
</g>
<!-- Node34 -->
<g id="node75" class="node"><title>Node34</title>
<polygon fill="white" stroke="#bfbfbf" points="752,-116.5 752,-137.5 798,-137.5 798,-116.5 752,-116.5"/>
<text text-anchor="middle" x="775" y="-124.5" font-family="Helvetica,sans-Serif" font-size="10.00">cstdint</text>
</g>
<!-- Node27&#45;&gt;Node34 -->
<g id="edge82" class="edge"><title>Node27&#45;&gt;Node34</title>
<path fill="none" stroke="midnightblue" d="M663.629,-174.497C685.695,-165.086 718.22,-151.215 742.431,-140.89"/>
<polygon fill="midnightblue" stroke="midnightblue" points="744.09,-143.987 751.915,-136.845 741.344,-137.549 744.09,-143.987"/>
</g>
<!-- Node35 -->
<g id="node79" class="node"><title>Node35</title>
<polygon fill="white" stroke="#bfbfbf" points="816,-116.5 816,-137.5 866,-137.5 866,-116.5 816,-116.5"/>
<text text-anchor="middle" x="841" y="-124.5" font-family="Helvetica,sans-Serif" font-size="10.00">iomanip</text>
</g>
<!-- Node27&#45;&gt;Node35 -->
<g id="edge88" class="edge"><title>Node27&#45;&gt;Node35</title>
<path fill="none" stroke="midnightblue" d="M669.763,-176.791C701.621,-168.203 753.053,-154.096 806.197,-138.17"/>
<polygon fill="midnightblue" stroke="midnightblue" points="807.219,-141.518 815.784,-135.282 805.2,-134.815 807.219,-141.518"/>
</g>
<!-- Node29&#45;&gt;Node13 -->
<g id="edge72" class="edge"><title>Node29&#45;&gt;Node13</title>
<path fill="none" stroke="midnightblue" d="M440.824,-116.497C481.387,-106.775 541.809,-92.2938 585.265,-81.8787"/>
<polygon fill="midnightblue" stroke="midnightblue" points="586.185,-85.2574 595.093,-79.5231 584.553,-78.4502 586.185,-85.2574"/>
</g>
<!-- Node30 -->
<g id="node67" class="node"><title>Node30</title>
<polygon fill="white" stroke="#bfbfbf" points="405,-58.5 405,-79.5 451,-79.5 451,-58.5 405,-58.5"/>
<text text-anchor="middle" x="428" y="-66.5" font-family="Helvetica,sans-Serif" font-size="10.00">cstring</text>
</g>
<!-- Node29&#45;&gt;Node30 -->
<g id="edge74" class="edge"><title>Node29&#45;&gt;Node30</title>
<path fill="none" stroke="midnightblue" d="M402.686,-116.362C406.837,-108.595 412.584,-97.8426 417.553,-88.5458"/>
<polygon fill="midnightblue" stroke="midnightblue" points="420.723,-90.0398 422.35,-79.5707 414.55,-86.7401 420.723,-90.0398"/>
</g>
<!-- Node29&#45;&gt;Node31 -->
<g id="edge76" class="edge"><title>Node29&#45;&gt;Node31</title>
<path fill="none" stroke="midnightblue" d="M391.498,-116.362C387.48,-108.595 381.919,-97.8426 377.11,-88.5458"/>
<polygon fill="midnightblue" stroke="midnightblue" points="380.171,-86.8448 372.468,-79.5707 373.953,-90.0608 380.171,-86.8448"/>
</g>
</g>
</svg>
