<?xml version="1.0" encoding="UTF-8" standalone="no"?>
<!DOCTYPE svg PUBLIC "-//W3C//DTD SVG 1.1//EN"
 "http://www.w3.org/Graphics/SVG/1.1/DTD/svg11.dtd">
<!-- Generated by graphviz version 2.26.3 (20100126.1600)
 -->
<!-- Title: src/calibration/gui/Manager_traits.h Pages: 1 -->
<svg width="1692pt" height="276pt"
 viewBox="0.00 0.00 1691.52 276.00" xmlns="http://www.w3.org/2000/svg" xmlns:xlink="http://www.w3.org/1999/xlink">
<g id="graph1" class="graph" transform="scale(1 1) rotate(0) translate(4 272)">
<title>src/calibration/gui/Manager_traits.h</title>
<polygon fill="white" stroke="white" points="-4,5 -4,-272 1688.52,-272 1688.52,5 -4,5"/>
<!-- Node1 -->
<g id="node1" class="node"><title>Node1</title>
<polygon fill="#bfbfbf" stroke="black" points="1091.5,-233 1091.5,-267 1184.5,-267 1184.5,-233 1091.5,-233"/>
<text text-anchor="start" x="1099.5" y="-254" font-family="Helvetica,sans-Serif" font-size="10.00">src/calibration/gui</text>
<text text-anchor="middle" x="1138" y="-241" font-family="Helvetica,sans-Serif" font-size="10.00">/Manager_traits.h</text>
</g>
<!-- Node2 -->
<g id="node3" class="node"><title>Node2</title>
<a xlink:href="interval_8h.html" target="_top" xlink:title="base/interval.h">
<polygon fill="white" stroke="black" points="1422,-174.5 1422,-195.5 1502,-195.5 1502,-174.5 1422,-174.5"/>
<text text-anchor="middle" x="1462" y="-182.5" font-family="Helvetica,sans-Serif" font-size="10.00">base/interval.h</text>
</a>
</g>
<!-- Node1&#45;&gt;Node2 -->
<g id="edge2" class="edge"><title>Node1&#45;&gt;Node2</title>
<path fill="none" stroke="midnightblue" d="M1184.77,-240.618C1245.19,-228.495 1349.96,-207.476 1411.95,-195.041"/>
<polygon fill="midnightblue" stroke="midnightblue" points="1412.77,-198.446 1421.89,-193.047 1411.39,-191.583 1412.77,-198.446"/>
</g>
<!-- Node11 -->
<g id="node21" class="node"><title>Node11</title>
<a xlink:href="_wrap_t_file_8h.html" target="_top" xlink:title="base/WrapTFile.h">
<polygon fill="white" stroke="black" points="970,-174.5 970,-195.5 1064,-195.5 1064,-174.5 970,-174.5"/>
<text text-anchor="middle" x="1017" y="-182.5" font-family="Helvetica,sans-Serif" font-size="10.00">base/WrapTFile.h</text>
</a>
</g>
<!-- Node1&#45;&gt;Node11 -->
<g id="edge20" class="edge"><title>Node1&#45;&gt;Node11</title>
<path fill="none" stroke="midnightblue" d="M1106.21,-232.922C1087.49,-222.864 1063.99,-210.242 1045.81,-200.476"/>
<polygon fill="midnightblue" stroke="midnightblue" points="1047.31,-197.307 1036.84,-195.658 1043.99,-203.474 1047.31,-197.307"/>
</g>
<!-- Node13 -->
<g id="node25" class="node"><title>Node13</title>
<polygon fill="white" stroke="#bfbfbf" points="1333.5,-0.5 1333.5,-21.5 1374.5,-21.5 1374.5,-0.5 1333.5,-0.5"/>
<text text-anchor="middle" x="1354" y="-8.5" font-family="Helvetica,sans-Serif" font-size="10.00">string</text>
</g>
<!-- Node1&#45;&gt;Node13 -->
<g id="edge90" class="edge"><title>Node1&#45;&gt;Node13</title>
<path fill="none" stroke="midnightblue" d="M1184.66,-247.977C1304.03,-241.672 1615.09,-217.743 1671,-138 1743.28,-34.9224 1477.55,-15.4658 1384.82,-11.8274"/>
<polygon fill="midnightblue" stroke="midnightblue" points="1384.77,-8.32348 1374.65,-11.4654 1384.52,-15.319 1384.77,-8.32348"/>
</g>
<!-- Node24 -->
<g id="node50" class="node"><title>Node24</title>
<polygon fill="white" stroke="#bfbfbf" points="1382,-116.5 1382,-137.5 1434,-137.5 1434,-116.5 1382,-116.5"/>
<text text-anchor="middle" x="1408" y="-124.5" font-family="Helvetica,sans-Serif" font-size="10.00">memory</text>
</g>
<!-- Node1&#45;&gt;Node24 -->
<g id="edge94" class="edge"><title>Node1&#45;&gt;Node24</title>
<path fill="none" stroke="midnightblue" d="M1175.54,-232.897C1228.77,-208.65 1325.27,-164.688 1375.56,-141.779"/>
<polygon fill="midnightblue" stroke="midnightblue" points="1377.03,-144.954 1384.68,-137.623 1374.13,-138.584 1377.03,-144.954"/>
</g>
<!-- Node25 -->
<g id="node53" class="node"><title>Node25</title>
<polygon fill="white" stroke="#bfbfbf" points="499.5,-116.5 499.5,-137.5 528.5,-137.5 528.5,-116.5 499.5,-116.5"/>
<text text-anchor="middle" x="514" y="-124.5" font-family="Helvetica,sans-Serif" font-size="10.00">list</text>
</g>
<!-- Node1&#45;&gt;Node25 -->
<g id="edge92" class="edge"><title>Node1&#45;&gt;Node25</title>
<path fill="none" stroke="midnightblue" d="M1091.36,-245.512C990.552,-234.922 745.376,-204.365 538.674,-137.987"/>
<polygon fill="midnightblue" stroke="midnightblue" points="539.454,-134.56 528.861,-134.799 537.291,-141.218 539.454,-134.56"/>
</g>
<!-- Node26 -->
<g id="node57" class="node"><title>Node26</title>
<a xlink:href="_t_i_d_8h.html" target="_top" xlink:title="tree/TID.h">
<polygon fill="white" stroke="black" points="321.5,-174.5 321.5,-195.5 382.5,-195.5 382.5,-174.5 321.5,-174.5"/>
<text text-anchor="middle" x="352" y="-182.5" font-family="Helvetica,sans-Serif" font-size="10.00">tree/TID.h</text>
</a>
</g>
<!-- Node1&#45;&gt;Node26 -->
<g id="edge62" class="edge"><title>Node1&#45;&gt;Node26</title>
<path fill="none" stroke="midnightblue" d="M1091.48,-246.153C950.038,-234.456 526.676,-199.445 392.952,-188.387"/>
<polygon fill="midnightblue" stroke="midnightblue" points="392.991,-184.878 382.736,-187.542 392.414,-191.854 392.991,-184.878"/>
</g>
<!-- Node3 -->
<g id="node5" class="node"><title>Node3</title>
<a xlink:href="printable_8h.html" target="_top" xlink:title="printable.h">
<polygon fill="white" stroke="black" points="790,-116.5 790,-137.5 852,-137.5 852,-116.5 790,-116.5"/>
<text text-anchor="middle" x="821" y="-124.5" font-family="Helvetica,sans-Serif" font-size="10.00">printable.h</text>
</a>
</g>
<!-- Node2&#45;&gt;Node3 -->
<g id="edge4" class="edge"><title>Node2&#45;&gt;Node3</title>
<path fill="none" stroke="midnightblue" d="M1421.94,-184.492C1326.4,-182.722 1077.7,-174.814 862.226,-137.939"/>
<polygon fill="midnightblue" stroke="midnightblue" points="862.766,-134.48 852.315,-136.218 861.568,-141.377 862.766,-134.48"/>
</g>
<!-- Node6 -->
<g id="node11" class="node"><title>Node6</title>
<a xlink:href="types_8h.html" target="_top" xlink:title="types.h">
<polygon fill="white" stroke="black" points="1555.5,-116.5 1555.5,-137.5 1604.5,-137.5 1604.5,-116.5 1555.5,-116.5"/>
<text text-anchor="middle" x="1580" y="-124.5" font-family="Helvetica,sans-Serif" font-size="10.00">types.h</text>
</a>
</g>
<!-- Node2&#45;&gt;Node6 -->
<g id="edge10" class="edge"><title>Node2&#45;&gt;Node6</title>
<path fill="none" stroke="midnightblue" d="M1483.37,-174.497C1501.8,-165.438 1528.64,-152.246 1549.36,-142.063"/>
<polygon fill="midnightblue" stroke="midnightblue" points="1550.96,-145.174 1558.39,-137.621 1547.87,-138.891 1550.96,-145.174"/>
</g>
<!-- Node7 -->
<g id="node13" class="node"><title>Node7</title>
<polygon fill="white" stroke="#bfbfbf" points="1122,-0.5 1122,-21.5 1178,-21.5 1178,-0.5 1122,-0.5"/>
<text text-anchor="middle" x="1150" y="-8.5" font-family="Helvetica,sans-Serif" font-size="10.00">algorithm</text>
</g>
<!-- Node2&#45;&gt;Node7 -->
<g id="edge12" class="edge"><title>Node2&#45;&gt;Node7</title>
<path fill="none" stroke="midnightblue" d="M1461.97,-174.203C1461.35,-159.241 1458.04,-132.217 1443,-116 1374.75,-42.4005 1251.28,-20.3266 1188.66,-13.7541"/>
<polygon fill="midnightblue" stroke="midnightblue" points="1188.72,-10.2433 1178.43,-12.7621 1188.04,-17.2106 1188.72,-10.2433"/>
</g>
<!-- Node8 -->
<g id="node15" class="node"><title>Node8</title>
<polygon fill="white" stroke="#bfbfbf" points="545.5,-116.5 545.5,-137.5 604.5,-137.5 604.5,-116.5 545.5,-116.5"/>
<text text-anchor="middle" x="575" y="-124.5" font-family="Helvetica,sans-Serif" font-size="10.00">stdexcept</text>
</g>
<!-- Node2&#45;&gt;Node8 -->
<g id="edge14" class="edge"><title>Node2&#45;&gt;Node8</title>
<path fill="none" stroke="midnightblue" d="M1421.92,-183.985C1278.54,-180.169 790.698,-165.562 614.62,-137.919"/>
<polygon fill="midnightblue" stroke="midnightblue" points="615.157,-134.46 604.722,-136.294 614.023,-141.368 615.157,-134.46"/>
</g>
<!-- Node9 -->
<g id="node17" class="node"><title>Node9</title>
<polygon fill="white" stroke="#bfbfbf" points="1622,-116.5 1622,-137.5 1662,-137.5 1662,-116.5 1622,-116.5"/>
<text text-anchor="middle" x="1642" y="-124.5" font-family="Helvetica,sans-Serif" font-size="10.00">limits</text>
</g>
<!-- Node2&#45;&gt;Node9 -->
<g id="edge16" class="edge"><title>Node2&#45;&gt;Node9</title>
<path fill="none" stroke="midnightblue" d="M1497.9,-174.497C1526.58,-165.957 1567.98,-153.296 1612.28,-138.125"/>
<polygon fill="midnightblue" stroke="midnightblue" points="1613.46,-141.42 1621.78,-134.851 1611.18,-134.803 1613.46,-141.42"/>
</g>
<!-- Node10 -->
<g id="node19" class="node"><title>Node10</title>
<polygon fill="white" stroke="#bfbfbf" points="1489.5,-116.5 1489.5,-137.5 1538.5,-137.5 1538.5,-116.5 1489.5,-116.5"/>
<text text-anchor="middle" x="1514" y="-124.5" font-family="Helvetica,sans-Serif" font-size="10.00">istream</text>
</g>
<!-- Node2&#45;&gt;Node10 -->
<g id="edge18" class="edge"><title>Node2&#45;&gt;Node10</title>
<path fill="none" stroke="midnightblue" d="M1471.54,-174.362C1478.87,-166.186 1489.16,-154.702 1497.78,-145.091"/>
<polygon fill="midnightblue" stroke="midnightblue" points="1500.45,-147.353 1504.52,-137.571 1495.24,-142.68 1500.45,-147.353"/>
</g>
<!-- Node4 -->
<g id="node7" class="node"><title>Node4</title>
<polygon fill="white" stroke="#bfbfbf" points="771,-0.5 771,-21.5 815,-21.5 815,-0.5 771,-0.5"/>
<text text-anchor="middle" x="793" y="-8.5" font-family="Helvetica,sans-Serif" font-size="10.00">vector</text>
</g>
<!-- Node3&#45;&gt;Node4 -->
<g id="edge6" class="edge"><title>Node3&#45;&gt;Node4</title>
<path fill="none" stroke="midnightblue" d="M818.416,-116.295C813.77,-97.0451 803.932,-56.2889 797.95,-31.5091"/>
<polygon fill="midnightblue" stroke="midnightblue" points="801.327,-30.5788 795.578,-21.6792 794.522,-32.2213 801.327,-30.5788"/>
</g>
<!-- Node5 -->
<g id="node9" class="node"><title>Node5</title>
<polygon fill="white" stroke="#bfbfbf" points="829,-58.5 829,-79.5 881,-79.5 881,-58.5 829,-58.5"/>
<text text-anchor="middle" x="855" y="-66.5" font-family="Helvetica,sans-Serif" font-size="10.00">ostream</text>
</g>
<!-- Node3&#45;&gt;Node5 -->
<g id="edge8" class="edge"><title>Node3&#45;&gt;Node5</title>
<path fill="none" stroke="midnightblue" d="M827.236,-116.362C831.837,-108.513 838.225,-97.6159 843.714,-88.2527"/>
<polygon fill="midnightblue" stroke="midnightblue" points="846.766,-89.9677 848.803,-79.5707 840.727,-86.4276 846.766,-89.9677"/>
</g>
<!-- Node11&#45;&gt;Node8 -->
<g id="edge58" class="edge"><title>Node11&#45;&gt;Node8</title>
<path fill="none" stroke="midnightblue" d="M969.947,-182.07C896.032,-176.913 748.161,-164.361 614.743,-138.116"/>
<polygon fill="midnightblue" stroke="midnightblue" points="615.247,-134.647 604.755,-136.12 613.875,-141.512 615.247,-134.647"/>
</g>
<!-- Node12 -->
<g id="node23" class="node"><title>Node12</title>
<a xlink:href="string_8h.html" target="_top" xlink:title="base/std_ext/string.h">
<polygon fill="white" stroke="black" points="665,-58.5 665,-79.5 773,-79.5 773,-58.5 665,-58.5"/>
<text text-anchor="middle" x="719" y="-66.5" font-family="Helvetica,sans-Serif" font-size="10.00">base/std_ext/string.h</text>
</a>
</g>
<!-- Node11&#45;&gt;Node12 -->
<g id="edge22" class="edge"><title>Node11&#45;&gt;Node12</title>
<path fill="none" stroke="midnightblue" d="M969.755,-180.946C889.406,-173.569 733.215,-156.953 717,-138 705.841,-124.957 707.795,-104.909 711.682,-89.7774"/>
<polygon fill="midnightblue" stroke="midnightblue" points="715.155,-90.3838 714.694,-79.799 708.454,-88.361 715.155,-90.3838"/>
</g>
<!-- Node11&#45;&gt;Node13 -->
<g id="edge54" class="edge"><title>Node11&#45;&gt;Node13</title>
<path fill="none" stroke="midnightblue" d="M1064.12,-181.119C1147.97,-173.767 1316.12,-156.851 1335,-138 1363,-110.052 1361.31,-59.8307 1357.64,-31.6411"/>
<polygon fill="midnightblue" stroke="midnightblue" points="1361.09,-31.0495 1356.14,-21.6835 1354.17,-32.0937 1361.09,-31.0495"/>
</g>
<!-- Node15 -->
<g id="node31" class="node"><title>Node15</title>
<a xlink:href="misc_8h.html" target="_top" xlink:title="base/std_ext/misc.h">
<polygon fill="white" stroke="black" points="1091.5,-116.5 1091.5,-137.5 1196.5,-137.5 1196.5,-116.5 1091.5,-116.5"/>
<text text-anchor="middle" x="1144" y="-124.5" font-family="Helvetica,sans-Serif" font-size="10.00">base/std_ext/misc.h</text>
</a>
</g>
<!-- Node11&#45;&gt;Node15 -->
<g id="edge32" class="edge"><title>Node11&#45;&gt;Node15</title>
<path fill="none" stroke="midnightblue" d="M1040,-174.497C1060.01,-165.356 1089.24,-152.008 1111.62,-141.788"/>
<polygon fill="midnightblue" stroke="midnightblue" points="1113.1,-144.959 1120.74,-137.621 1110.19,-138.592 1113.1,-144.959"/>
</g>
<!-- Node16 -->
<g id="node34" class="node"><title>Node16</title>
<polygon fill="white" stroke="#bfbfbf" points="1183.5,-58.5 1183.5,-79.5 1242.5,-79.5 1242.5,-58.5 1183.5,-58.5"/>
<text text-anchor="middle" x="1213" y="-66.5" font-family="Helvetica,sans-Serif" font-size="10.00">functional</text>
</g>
<!-- Node11&#45;&gt;Node16 -->
<g id="edge60" class="edge"><title>Node11&#45;&gt;Node16</title>
<path fill="none" stroke="midnightblue" d="M1064.43,-179.311C1113.88,-172.352 1186.69,-158.856 1205,-138 1216.46,-124.948 1217.56,-104.74 1216.32,-89.56"/>
<polygon fill="midnightblue" stroke="midnightblue" points="1219.79,-89.0833 1215.13,-79.5698 1212.84,-89.9147 1219.79,-89.0833"/>
</g>
<!-- Node18 -->
<g id="node38" class="node"><title>Node18</title>
<polygon fill="white" stroke="#bfbfbf" points="725.5,-116.5 725.5,-137.5 772.5,-137.5 772.5,-116.5 725.5,-116.5"/>
<text text-anchor="middle" x="749" y="-124.5" font-family="Helvetica,sans-Serif" font-size="10.00">TFile.h</text>
</g>
<!-- Node11&#45;&gt;Node18 -->
<g id="edge40" class="edge"><title>Node11&#45;&gt;Node18</title>
<path fill="none" stroke="midnightblue" d="M969.552,-177.483C923.74,-169.795 852.306,-156.678 782.493,-138.175"/>
<polygon fill="midnightblue" stroke="midnightblue" points="783.222,-134.747 772.656,-135.528 781.403,-141.506 783.222,-134.747"/>
</g>
<!-- Node19 -->
<g id="node40" class="node"><title>Node19</title>
<polygon fill="white" stroke="#bfbfbf" points="869.5,-116.5 869.5,-137.5 940.5,-137.5 940.5,-116.5 869.5,-116.5"/>
<text text-anchor="middle" x="905" y="-124.5" font-family="Helvetica,sans-Serif" font-size="10.00">TDirectory.h</text>
</g>
<!-- Node11&#45;&gt;Node19 -->
<g id="edge42" class="edge"><title>Node11&#45;&gt;Node19</title>
<path fill="none" stroke="midnightblue" d="M996.718,-174.497C979.382,-165.519 954.21,-152.484 934.62,-142.339"/>
<polygon fill="midnightblue" stroke="midnightblue" points="935.999,-139.112 925.51,-137.621 932.78,-145.328 935.999,-139.112"/>
</g>
<!-- Node20 -->
<g id="node42" class="node"><title>Node20</title>
<polygon fill="white" stroke="#bfbfbf" points="958,-116.5 958,-137.5 1010,-137.5 1010,-116.5 958,-116.5"/>
<text text-anchor="middle" x="984" y="-124.5" font-family="Helvetica,sans-Serif" font-size="10.00">TError.h</text>
</g>
<!-- Node11&#45;&gt;Node20 -->
<g id="edge44" class="edge"><title>Node11&#45;&gt;Node20</title>
<path fill="none" stroke="midnightblue" d="M1010.95,-174.362C1006.53,-166.595 1000.41,-155.843 995.121,-146.546"/>
<polygon fill="midnightblue" stroke="midnightblue" points="998.002,-144.531 990.014,-137.571 991.918,-147.993 998.002,-144.531"/>
</g>
<!-- Node21 -->
<g id="node44" class="node"><title>Node21</title>
<polygon fill="white" stroke="#bfbfbf" points="1027.5,-116.5 1027.5,-137.5 1074.5,-137.5 1074.5,-116.5 1027.5,-116.5"/>
<text text-anchor="middle" x="1051" y="-124.5" font-family="Helvetica,sans-Serif" font-size="10.00">TList.h</text>
</g>
<!-- Node11&#45;&gt;Node21 -->
<g id="edge46" class="edge"><title>Node11&#45;&gt;Node21</title>
<path fill="none" stroke="midnightblue" d="M1023.24,-174.362C1027.84,-166.513 1034.23,-155.616 1039.71,-146.253"/>
<polygon fill="midnightblue" stroke="midnightblue" points="1042.77,-147.968 1044.8,-137.571 1036.73,-144.428 1042.77,-147.968"/>
</g>
<!-- Node22 -->
<g id="node46" class="node"><title>Node22</title>
<polygon fill="white" stroke="#bfbfbf" points="1252,-116.5 1252,-137.5 1326,-137.5 1326,-116.5 1252,-116.5"/>
<text text-anchor="middle" x="1289" y="-124.5" font-family="Helvetica,sans-Serif" font-size="10.00">TCollection.h</text>
</g>
<!-- Node11&#45;&gt;Node22 -->
<g id="edge48" class="edge"><title>Node11&#45;&gt;Node22</title>
<path fill="none" stroke="midnightblue" d="M1064,-175.045C1108.75,-165.559 1177.97,-150.857 1238,-138 1239.27,-137.728 1240.56,-137.452 1241.86,-137.173"/>
<polygon fill="midnightblue" stroke="midnightblue" points="1242.91,-140.526 1251.96,-135.003 1241.44,-133.682 1242.91,-140.526"/>
</g>
<!-- Node23 -->
<g id="node48" class="node"><title>Node23</title>
<polygon fill="white" stroke="#bfbfbf" points="622,-116.5 622,-137.5 670,-137.5 670,-116.5 622,-116.5"/>
<text text-anchor="middle" x="646" y="-124.5" font-family="Helvetica,sans-Serif" font-size="10.00">TKey.h</text>
</g>
<!-- Node11&#45;&gt;Node23 -->
<g id="edge50" class="edge"><title>Node11&#45;&gt;Node23</title>
<path fill="none" stroke="midnightblue" d="M969.756,-180.461C904.875,-173.746 784.765,-159.582 684,-138 682.753,-137.733 681.488,-137.447 680.212,-137.146"/>
<polygon fill="midnightblue" stroke="midnightblue" points="680.958,-133.724 670.4,-134.615 679.209,-140.502 680.958,-133.724"/>
</g>
<!-- Node11&#45;&gt;Node24 -->
<g id="edge52" class="edge"><title>Node11&#45;&gt;Node24</title>
<path fill="none" stroke="midnightblue" d="M1064.18,-180.73C1131.88,-174.139 1260.31,-159.913 1368,-138 1369.27,-137.742 1370.56,-137.465 1371.86,-137.174"/>
<polygon fill="midnightblue" stroke="midnightblue" points="1372.99,-140.502 1381.87,-134.73 1371.33,-133.701 1372.99,-140.502"/>
</g>
<!-- Node11&#45;&gt;Node25 -->
<g id="edge56" class="edge"><title>Node11&#45;&gt;Node25</title>
<path fill="none" stroke="midnightblue" d="M969.721,-182.465C868.929,-176.732 634.889,-161.599 538.748,-137.651"/>
<polygon fill="midnightblue" stroke="midnightblue" points="539.366,-134.193 528.801,-134.998 537.562,-140.956 539.366,-134.193"/>
</g>
<!-- Node12&#45;&gt;Node4 -->
<g id="edge30" class="edge"><title>Node12&#45;&gt;Node4</title>
<path fill="none" stroke="midnightblue" d="M732.573,-58.3619C743.421,-49.859 758.834,-37.7785 771.379,-27.9466"/>
<polygon fill="midnightblue" stroke="midnightblue" points="773.802,-30.4942 779.513,-21.5707 769.484,-24.9848 773.802,-30.4942"/>
</g>
<!-- Node12&#45;&gt;Node7 -->
<g id="edge28" class="edge"><title>Node12&#45;&gt;Node7</title>
<path fill="none" stroke="midnightblue" d="M773.15,-61.713C861.575,-49.8136 1034.8,-26.5022 1111.68,-16.1568"/>
<polygon fill="midnightblue" stroke="midnightblue" points="1112.42,-19.5882 1121.87,-14.7857 1111.49,-12.6507 1112.42,-19.5882"/>
</g>
<!-- Node12&#45;&gt;Node13 -->
<g id="edge24" class="edge"><title>Node12&#45;&gt;Node13</title>
<path fill="none" stroke="midnightblue" d="M773.23,-62.8849C788.362,-61.2354 804.816,-59.4949 820,-58 1011.24,-39.1721 1241.37,-20.1405 1323.25,-13.4821"/>
<polygon fill="midnightblue" stroke="midnightblue" points="1323.68,-16.9587 1333.37,-12.6612 1323.12,-9.98166 1323.68,-16.9587"/>
</g>
<!-- Node14 -->
<g id="node27" class="node"><title>Node14</title>
<polygon fill="white" stroke="#bfbfbf" points="693,-0.5 693,-21.5 745,-21.5 745,-0.5 693,-0.5"/>
<text text-anchor="middle" x="719" y="-8.5" font-family="Helvetica,sans-Serif" font-size="10.00">sstream</text>
</g>
<!-- Node12&#45;&gt;Node14 -->
<g id="edge26" class="edge"><title>Node12&#45;&gt;Node14</title>
<path fill="none" stroke="midnightblue" d="M719,-58.3619C719,-50.9219 719,-40.7427 719,-31.7276"/>
<polygon fill="midnightblue" stroke="midnightblue" points="722.5,-31.5706 719,-21.5707 715.5,-31.5707 722.5,-31.5706"/>
</g>
<!-- Node15&#45;&gt;Node7 -->
<g id="edge34" class="edge"><title>Node15&#45;&gt;Node7</title>
<path fill="none" stroke="midnightblue" d="M1144.55,-116.295C1145.54,-97.1314 1147.64,-56.654 1148.92,-31.8434"/>
<polygon fill="midnightblue" stroke="midnightblue" points="1152.43,-31.8467 1149.45,-21.6792 1145.44,-31.485 1152.43,-31.8467"/>
</g>
<!-- Node15&#45;&gt;Node16 -->
<g id="edge36" class="edge"><title>Node15&#45;&gt;Node16</title>
<path fill="none" stroke="midnightblue" d="M1156.66,-116.362C1166.67,-107.941 1180.87,-96.0105 1192.5,-86.2308"/>
<polygon fill="midnightblue" stroke="midnightblue" points="1195.02,-88.6844 1200.42,-79.5707 1190.52,-83.326 1195.02,-88.6844"/>
</g>
<!-- Node17 -->
<g id="node36" class="node"><title>Node17</title>
<polygon fill="white" stroke="#bfbfbf" points="1069.5,-58.5 1069.5,-79.5 1122.5,-79.5 1122.5,-58.5 1069.5,-58.5"/>
<text text-anchor="middle" x="1096" y="-66.5" font-family="Helvetica,sans-Serif" font-size="10.00">cxxabi.h</text>
</g>
<!-- Node15&#45;&gt;Node17 -->
<g id="edge38" class="edge"><title>Node15&#45;&gt;Node17</title>
<path fill="none" stroke="midnightblue" d="M1135.2,-116.362C1128.5,-108.268 1119.12,-96.9318 1111.21,-87.3796"/>
<polygon fill="midnightblue" stroke="midnightblue" points="1113.82,-85.0431 1104.75,-79.5707 1108.43,-89.5061 1113.82,-85.0431"/>
</g>
<!-- Node26&#45;&gt;Node3 -->
<g id="edge66" class="edge"><title>Node26&#45;&gt;Node3</title>
<path fill="none" stroke="midnightblue" d="M382.677,-183.321C451.901,-179.174 625.583,-166.77 779.556,-138.04"/>
<polygon fill="midnightblue" stroke="midnightblue" points="780.495,-141.424 789.668,-136.124 779.191,-134.547 780.495,-141.424"/>
</g>
<!-- Node26&#45;&gt;Node8 -->
<g id="edge82" class="edge"><title>Node26&#45;&gt;Node8</title>
<path fill="none" stroke="midnightblue" d="M382.525,-177.572C417.33,-169.032 476.17,-154.377 535.284,-138.417"/>
<polygon fill="midnightblue" stroke="midnightblue" points="536.42,-141.735 545.155,-135.74 534.588,-134.979 536.42,-141.735"/>
</g>
<!-- Node26&#45;&gt;Node25 -->
<g id="edge84" class="edge"><title>Node26&#45;&gt;Node25</title>
<path fill="none" stroke="midnightblue" d="M382.755,-175.768C409.182,-167.581 448.414,-154.824 489.639,-138.296"/>
<polygon fill="midnightblue" stroke="midnightblue" points="491.077,-141.49 499.022,-134.481 488.44,-135.005 491.077,-141.49"/>
</g>
<!-- Node27 -->
<g id="node59" class="node"><title>Node27</title>
<polygon fill="white" stroke="#bfbfbf" points="268,-116.5 268,-137.5 324,-137.5 324,-116.5 268,-116.5"/>
<text text-anchor="middle" x="296" y="-124.5" font-family="Helvetica,sans-Serif" font-size="10.00">Rtypes.h</text>
</g>
<!-- Node26&#45;&gt;Node27 -->
<g id="edge64" class="edge"><title>Node26&#45;&gt;Node27</title>
<path fill="none" stroke="midnightblue" d="M341.729,-174.362C333.756,-166.104 322.525,-154.472 313.189,-144.803"/>
<polygon fill="midnightblue" stroke="midnightblue" points="315.67,-142.334 306.206,-137.571 310.634,-147.196 315.67,-142.334"/>
</g>
<!-- Node28 -->
<g id="node62" class="node"><title>Node28</title>
<a xlink:href="time_8h.html" target="_top" xlink:title="base/std_ext/time.h">
<polygon fill="white" stroke="black" points="379.5,-116.5 379.5,-137.5 482.5,-137.5 482.5,-116.5 379.5,-116.5"/>
<text text-anchor="middle" x="431" y="-124.5" font-family="Helvetica,sans-Serif" font-size="10.00">base/std_ext/time.h</text>
</a>
</g>
<!-- Node26&#45;&gt;Node28 -->
<g id="edge68" class="edge"><title>Node26&#45;&gt;Node28</title>
<path fill="none" stroke="midnightblue" d="M366.49,-174.362C378.183,-165.777 394.843,-153.546 408.303,-143.664"/>
<polygon fill="midnightblue" stroke="midnightblue" points="410.613,-146.31 416.602,-137.571 406.47,-140.667 410.613,-146.31"/>
</g>
<!-- Node30 -->
<g id="node67" class="node"><title>Node30</title>
<polygon fill="white" stroke="#bfbfbf" points="340.5,-58.5 340.5,-79.5 381.5,-79.5 381.5,-58.5 340.5,-58.5"/>
<text text-anchor="middle" x="361" y="-66.5" font-family="Helvetica,sans-Serif" font-size="10.00">ctime</text>
</g>
<!-- Node26&#45;&gt;Node30 -->
<g id="edge88" class="edge"><title>Node26&#45;&gt;Node30</title>
<path fill="none" stroke="midnightblue" d="M352.831,-174.295C354.317,-155.131 357.458,-114.654 359.383,-89.8434"/>
<polygon fill="midnightblue" stroke="midnightblue" points="362.887,-89.92 360.171,-79.6792 355.908,-89.3785 362.887,-89.92"/>
</g>
<!-- Node31 -->
<g id="node69" class="node"><title>Node31</title>
<polygon fill="white" stroke="#bfbfbf" points="0,-116.5 0,-137.5 62,-137.5 62,-116.5 0,-116.5"/>
<text text-anchor="middle" x="31" y="-124.5" font-family="Helvetica,sans-Serif" font-size="10.00">type_traits</text>
</g>
<!-- Node26&#45;&gt;Node31 -->
<g id="edge76" class="edge"><title>Node26&#45;&gt;Node31</title>
<path fill="none" stroke="midnightblue" d="M321.448,-180.938C271.348,-174.052 168.454,-158.964 72.2526,-138.121"/>
<polygon fill="midnightblue" stroke="midnightblue" points="72.8846,-134.677 62.367,-135.953 71.3852,-141.514 72.8846,-134.677"/>
</g>
<!-- Node32 -->
<g id="node71" class="node"><title>Node32</title>
<polygon fill="white" stroke="#bfbfbf" points="80,-116.5 80,-137.5 118,-137.5 118,-116.5 80,-116.5"/>
<text text-anchor="middle" x="99" y="-124.5" font-family="Helvetica,sans-Serif" font-size="10.00">tuple</text>
</g>
<!-- Node26&#45;&gt;Node32 -->
<g id="edge78" class="edge"><title>Node26&#45;&gt;Node32</title>
<path fill="none" stroke="midnightblue" d="M321.389,-180.288C279.593,-173.494 202.269,-159.636 128.098,-137.972"/>
<polygon fill="midnightblue" stroke="midnightblue" points="128.713,-134.503 118.13,-135.007 126.717,-141.213 128.713,-134.503"/>
</g>
<!-- Node33 -->
<g id="node73" class="node"><title>Node33</title>
<polygon fill="white" stroke="#bfbfbf" points="136,-116.5 136,-137.5 182,-137.5 182,-116.5 136,-116.5"/>
<text text-anchor="middle" x="159" y="-124.5" font-family="Helvetica,sans-Serif" font-size="10.00">cstdint</text>
</g>
<!-- Node26&#45;&gt;Node33 -->
<g id="edge80" class="edge"><title>Node26&#45;&gt;Node33</title>
<path fill="none" stroke="midnightblue" d="M321.305,-176.503C290.78,-167.952 242.406,-154.128 191.831,-138.172"/>
<polygon fill="midnightblue" stroke="midnightblue" points="192.619,-134.75 182.029,-135.061 190.502,-141.422 192.619,-134.75"/>
</g>
<!-- Node34 -->
<g id="node77" class="node"><title>Node34</title>
<polygon fill="white" stroke="#bfbfbf" points="200,-116.5 200,-137.5 250,-137.5 250,-116.5 200,-116.5"/>
<text text-anchor="middle" x="225" y="-124.5" font-family="Helvetica,sans-Serif" font-size="10.00">iomanip</text>
</g>
<!-- Node26&#45;&gt;Node34 -->
<g id="edge86" class="edge"><title>Node26&#45;&gt;Node34</title>
<path fill="none" stroke="midnightblue" d="M329.001,-174.497C308.987,-165.356 279.759,-152.008 257.381,-141.788"/>
<polygon fill="midnightblue" stroke="midnightblue" points="258.807,-138.592 248.257,-137.621 255.899,-144.959 258.807,-138.592"/>
</g>
<!-- Node28&#45;&gt;Node12 -->
<g id="edge70" class="edge"><title>Node28&#45;&gt;Node12</title>
<path fill="none" stroke="midnightblue" d="M482.821,-116.564C531.557,-106.749 604.595,-92.0398 656.531,-81.5806"/>
<polygon fill="midnightblue" stroke="midnightblue" points="657.511,-84.9536 666.623,-79.5482 656.129,-78.0914 657.511,-84.9536"/>
</g>
<!-- Node29 -->
<g id="node65" class="node"><title>Node29</title>
<polygon fill="white" stroke="#bfbfbf" points="408,-58.5 408,-79.5 454,-79.5 454,-58.5 408,-58.5"/>
<text text-anchor="middle" x="431" y="-66.5" font-family="Helvetica,sans-Serif" font-size="10.00">cstring</text>
</g>
<!-- Node28&#45;&gt;Node29 -->
<g id="edge72" class="edge"><title>Node28&#45;&gt;Node29</title>
<path fill="none" stroke="midnightblue" d="M431,-116.362C431,-108.922 431,-98.7427 431,-89.7276"/>
<polygon fill="midnightblue" stroke="midnightblue" points="434.5,-89.5706 431,-79.5707 427.5,-89.5707 434.5,-89.5706"/>
</g>
<!-- Node28&#45;&gt;Node30 -->
<g id="edge74" class="edge"><title>Node28&#45;&gt;Node30</title>
<path fill="none" stroke="midnightblue" d="M418.161,-116.362C407.998,-107.941 393.599,-96.0105 381.796,-86.2308"/>
<polygon fill="midnightblue" stroke="midnightblue" points="383.691,-83.2558 373.758,-79.5707 379.225,-88.6459 383.691,-83.2558"/>
</g>
</g>
</svg>
