<?xml version="1.0" encoding="UTF-8" standalone="no"?>
<!DOCTYPE svg PUBLIC "-//W3C//DTD SVG 1.1//EN"
 "http://www.w3.org/Graphics/SVG/1.1/DTD/svg11.dtd">
<!-- Generated by graphviz version 2.26.3 (20100126.1600)
 -->
<!-- Title: src/calibration/converters/MultiHit.h Pages: 1 -->
<svg width="453pt" height="260pt"
 viewBox="0.00 0.00 453.00 260.00" xmlns="http://www.w3.org/2000/svg" xmlns:xlink="http://www.w3.org/1999/xlink">
<g id="graph1" class="graph" transform="scale(1 1) rotate(0) translate(4 256)">
<title>src/calibration/converters/MultiHit.h</title>
<polygon fill="white" stroke="white" points="-4,5 -4,-256 450,-256 450,5 -4,5"/>
<!-- Node1 -->
<g id="node1" class="node"><title>Node1</title>
<polygon fill="#bfbfbf" stroke="black" points="155,-217 155,-251 281,-251 281,-217 155,-217"/>
<text text-anchor="start" x="163" y="-238" font-family="Helvetica,sans-Serif" font-size="10.00">src/calibration/converters</text>
<text text-anchor="middle" x="218" y="-225" font-family="Helvetica,sans-Serif" font-size="10.00">/MultiHit.h</text>
</g>
<!-- Node2 -->
<g id="node3" class="node"><title>Node2</title>
<a xlink:href="_multi_hit_reference_8h.html" target="_top" xlink:title="src/calibration/converters\l/MultiHitReference.h">
<polygon fill="white" stroke="black" points="155,-145 155,-179 281,-179 281,-145 155,-145"/>
<text text-anchor="start" x="163" y="-166" font-family="Helvetica,sans-Serif" font-size="10.00">src/calibration/converters</text>
<text text-anchor="middle" x="218" y="-153" font-family="Helvetica,sans-Serif" font-size="10.00">/MultiHitReference.h</text>
</a>
</g>
<!-- Node1&#45;&gt;Node2 -->
<g id="edge2" class="edge"><title>Node1&#45;&gt;Node2</title>
<path fill="none" stroke="midnightblue" d="M218,-206.719C218,-197.572 218,-187.625 218,-179.441"/>
<polygon fill="midnightblue" stroke="midnightblue" points="214.5,-206.937 218,-216.937 221.5,-206.937 214.5,-206.937"/>
</g>
<!-- Node4 -->
<g id="node7" class="node"><title>Node4</title>
<a xlink:href="_setup__2014___e_p_t_8cc.html" target="_top" xlink:title="src/expconfig/setups\l/Setup_2014_EPT.cc">
<polygon fill="white" stroke="black" points="0,-1 0,-35 110,-35 110,-1 0,-1"/>
<text text-anchor="start" x="8" y="-22" font-family="Helvetica,sans-Serif" font-size="10.00">src/expconfig/setups</text>
<text text-anchor="middle" x="55" y="-9" font-family="Helvetica,sans-Serif" font-size="10.00">/Setup_2014_EPT.cc</text>
</a>
</g>
<!-- Node1&#45;&gt;Node4 -->
<g id="edge16" class="edge"><title>Node1&#45;&gt;Node4</title>
<path fill="none" stroke="midnightblue" d="M169.41,-212.166C130.147,-191.558 77.6589,-156.559 54,-108 42.7071,-84.8219 46.3868,-54.134 50.4299,-35.2455"/>
<polygon fill="midnightblue" stroke="midnightblue" points="168.079,-215.416 178.577,-216.844 171.261,-209.181 168.079,-215.416"/>
</g>
<!-- Node5 -->
<g id="node9" class="node"><title>Node5</title>
<a xlink:href="expconfig__helpers_8cc.html" target="_top" xlink:title="test/expconfig_helpers.cc">
<polygon fill="white" stroke="black" points="317,-7.5 317,-28.5 445,-28.5 445,-7.5 317,-7.5"/>
<text text-anchor="middle" x="381" y="-15.5" font-family="Helvetica,sans-Serif" font-size="10.00">test/expconfig_helpers.cc</text>
</a>
</g>
<!-- Node1&#45;&gt;Node5 -->
<g id="edge18" class="edge"><title>Node1&#45;&gt;Node5</title>
<path fill="none" stroke="midnightblue" d="M266.856,-212.423C306.579,-191.911 359.854,-156.91 384,-108 396.872,-81.9257 389.456,-46.2302 384.438,-28.6588"/>
<polygon fill="midnightblue" stroke="midnightblue" points="265.205,-209.335 257.84,-216.952 268.347,-215.59 265.205,-209.335"/>
</g>
<!-- Node3 -->
<g id="node5" class="node"><title>Node3</title>
<a xlink:href="_c_a_t_c_h___t_d_c_8h.html" target="_top" xlink:title="src/calibration/converters\l/CATCH_TDC.h">
<polygon fill="white" stroke="black" points="227,-73 227,-107 353,-107 353,-73 227,-73"/>
<text text-anchor="start" x="235" y="-94" font-family="Helvetica,sans-Serif" font-size="10.00">src/calibration/converters</text>
<text text-anchor="middle" x="290" y="-81" font-family="Helvetica,sans-Serif" font-size="10.00">/CATCH_TDC.h</text>
</a>
</g>
<!-- Node2&#45;&gt;Node3 -->
<g id="edge4" class="edge"><title>Node2&#45;&gt;Node3</title>
<path fill="none" stroke="midnightblue" d="M242.329,-137.671C252.245,-127.755 263.485,-116.515 272.559,-107.441"/>
<polygon fill="midnightblue" stroke="midnightblue" points="239.659,-135.391 235.063,-144.937 244.609,-140.341 239.659,-135.391"/>
</g>
<!-- Node2&#45;&gt;Node4 -->
<g id="edge12" class="edge"><title>Node2&#45;&gt;Node4</title>
<path fill="none" stroke="midnightblue" d="M144.942,-149.708C119.128,-141.855 92.0568,-129.006 74,-108 56.4073,-87.5338 53.7621,-54.8668 53.9961,-35.0272"/>
<polygon fill="midnightblue" stroke="midnightblue" points="144.177,-153.129 154.752,-152.48 146.081,-146.393 144.177,-153.129"/>
</g>
<!-- Node2&#45;&gt;Node5 -->
<g id="edge14" class="edge"><title>Node2&#45;&gt;Node5</title>
<path fill="none" stroke="midnightblue" d="M291.058,-149.708C316.872,-141.855 343.943,-129.006 362,-108 381.675,-85.1118 382.655,-46.9641 381.82,-28.564"/>
<polygon fill="midnightblue" stroke="midnightblue" points="289.919,-146.393 281.248,-152.48 291.823,-153.129 289.919,-146.393"/>
</g>
<!-- Node6 -->
<g id="node11" class="node"><title>Node6</title>
<a xlink:href="_multi_hit_reference_8cc.html" target="_top" xlink:title="src/calibration/converters\l/MultiHitReference.cc">
<polygon fill="white" stroke="black" points="83,-73 83,-107 209,-107 209,-73 83,-73"/>
<text text-anchor="start" x="91" y="-94" font-family="Helvetica,sans-Serif" font-size="10.00">src/calibration/converters</text>
<text text-anchor="middle" x="146" y="-81" font-family="Helvetica,sans-Serif" font-size="10.00">/MultiHitReference.cc</text>
</a>
</g>
<!-- Node2&#45;&gt;Node6 -->
<g id="edge10" class="edge"><title>Node2&#45;&gt;Node6</title>
<path fill="none" stroke="midnightblue" d="M193.671,-137.671C183.755,-127.755 172.515,-116.515 163.441,-107.441"/>
<polygon fill="midnightblue" stroke="midnightblue" points="191.391,-140.341 200.937,-144.937 196.341,-135.391 191.391,-140.341"/>
</g>
<!-- Node3&#45;&gt;Node4 -->
<g id="edge6" class="edge"><title>Node3&#45;&gt;Node4</title>
<path fill="none" stroke="midnightblue" d="M224.406,-69.903C188.482,-58.8966 144.457,-45.4081 110.292,-34.9405"/>
<polygon fill="midnightblue" stroke="midnightblue" points="223.722,-73.354 234.308,-72.937 225.772,-66.6611 223.722,-73.354"/>
</g>
<!-- Node3&#45;&gt;Node5 -->
<g id="edge8" class="edge"><title>Node3&#45;&gt;Node5</title>
<path fill="none" stroke="midnightblue" d="M319.667,-66.527C335.785,-53.7747 354.93,-38.6265 367.492,-28.688"/>
<polygon fill="midnightblue" stroke="midnightblue" points="317.236,-63.9874 311.566,-72.937 321.58,-69.4769 317.236,-63.9874"/>
</g>
</g>
</svg>
