<?xml version="1.0" encoding="UTF-8" standalone="no"?>
<!DOCTYPE svg PUBLIC "-//W3C//DTD SVG 1.1//EN"
 "http://www.w3.org/Graphics/SVG/1.1/DTD/svg11.dtd">
<!-- Generated by graphviz version 2.26.3 (20100126.1600)
 -->
<!-- Title: src/calibration/converters/MultiHitReference.h Pages: 1 -->
<svg width="388pt" height="188pt"
 viewBox="0.00 0.00 388.00 188.00" xmlns="http://www.w3.org/2000/svg" xmlns:xlink="http://www.w3.org/1999/xlink">
<g id="graph1" class="graph" transform="scale(1 1) rotate(0) translate(4 184)">
<title>src/calibration/converters/MultiHitReference.h</title>
<polygon fill="white" stroke="white" points="-4,5 -4,-184 385,-184 385,5 -4,5"/>
<!-- Node1 -->
<g id="node1" class="node"><title>Node1</title>
<polygon fill="#bfbfbf" stroke="black" points="117,-145 117,-179 243,-179 243,-145 117,-145"/>
<text text-anchor="start" x="125" y="-166" font-family="Helvetica,sans-Serif" font-size="10.00">src/calibration/converters</text>
<text text-anchor="middle" x="180" y="-153" font-family="Helvetica,sans-Serif" font-size="10.00">/MultiHitReference.h</text>
</g>
<!-- Node2 -->
<g id="node3" class="node"><title>Node2</title>
<a xlink:href="_c_a_t_c_h___t_d_c_8h.html" target="_top" xlink:title="src/calibration/converters\l/CATCH_TDC.h">
<polygon fill="white" stroke="black" points="72,-73 72,-107 198,-107 198,-73 72,-73"/>
<text text-anchor="start" x="80" y="-94" font-family="Helvetica,sans-Serif" font-size="10.00">src/calibration/converters</text>
<text text-anchor="middle" x="135" y="-81" font-family="Helvetica,sans-Serif" font-size="10.00">/CATCH_TDC.h</text>
</a>
</g>
<!-- Node1&#45;&gt;Node2 -->
<g id="edge2" class="edge"><title>Node1&#45;&gt;Node2</title>
<path fill="none" stroke="midnightblue" d="M163.877,-136.203C157.911,-126.658 151.294,-116.07 145.9,-107.441"/>
<polygon fill="midnightblue" stroke="midnightblue" points="161.068,-138.312 169.336,-144.937 167.004,-134.602 161.068,-138.312"/>
</g>
<!-- Node3 -->
<g id="node5" class="node"><title>Node3</title>
<a xlink:href="_setup__2014___e_p_t_8cc.html" target="_top" xlink:title="src/expconfig/setups\l/Setup_2014_EPT.cc">
<polygon fill="white" stroke="black" points="0,-1 0,-35 110,-35 110,-1 0,-1"/>
<text text-anchor="start" x="8" y="-22" font-family="Helvetica,sans-Serif" font-size="10.00">src/expconfig/setups</text>
<text text-anchor="middle" x="55" y="-9" font-family="Helvetica,sans-Serif" font-size="10.00">/Setup_2014_EPT.cc</text>
</a>
</g>
<!-- Node1&#45;&gt;Node3 -->
<g id="edge10" class="edge"><title>Node1&#45;&gt;Node3</title>
<path fill="none" stroke="midnightblue" d="M107.405,-142.541C90.2815,-134.56 73.8679,-123.434 63,-108 47.9173,-86.581 49.1084,-54.8074 51.7595,-35.3036"/>
<polygon fill="midnightblue" stroke="midnightblue" points="106.391,-145.915 116.96,-146.659 109.162,-139.487 106.391,-145.915"/>
</g>
<!-- Node4 -->
<g id="node7" class="node"><title>Node4</title>
<a xlink:href="expconfig__helpers_8cc.html" target="_top" xlink:title="test/expconfig_helpers.cc">
<polygon fill="white" stroke="black" points="150,-7.5 150,-28.5 278,-28.5 278,-7.5 150,-7.5"/>
<text text-anchor="middle" x="214" y="-15.5" font-family="Helvetica,sans-Serif" font-size="10.00">test/expconfig_helpers.cc</text>
</a>
</g>
<!-- Node1&#45;&gt;Node4 -->
<g id="edge12" class="edge"><title>Node1&#45;&gt;Node4</title>
<path fill="none" stroke="midnightblue" d="M195.588,-135.901C200.026,-127.297 204.366,-117.494 207,-108 214.709,-80.2128 214.953,-45.8756 214.48,-28.7589"/>
<polygon fill="midnightblue" stroke="midnightblue" points="192.508,-134.238 190.81,-144.696 198.659,-137.58 192.508,-134.238"/>
</g>
<!-- Node5 -->
<g id="node9" class="node"><title>Node5</title>
<a xlink:href="_multi_hit_reference_8cc.html" target="_top" xlink:title="src/calibration/converters\l/MultiHitReference.cc">
<polygon fill="white" stroke="black" points="254,-73 254,-107 380,-107 380,-73 254,-73"/>
<text text-anchor="start" x="262" y="-94" font-family="Helvetica,sans-Serif" font-size="10.00">src/calibration/converters</text>
<text text-anchor="middle" x="317" y="-81" font-family="Helvetica,sans-Serif" font-size="10.00">/MultiHitReference.cc</text>
</a>
</g>
<!-- Node1&#45;&gt;Node5 -->
<g id="edge8" class="edge"><title>Node1&#45;&gt;Node5</title>
<path fill="none" stroke="midnightblue" d="M221.43,-140.226C241.577,-129.638 265.447,-117.094 284.291,-107.19"/>
<polygon fill="midnightblue" stroke="midnightblue" points="219.691,-137.187 212.467,-144.937 222.947,-143.383 219.691,-137.187"/>
</g>
<!-- Node2&#45;&gt;Node3 -->
<g id="edge4" class="edge"><title>Node2&#45;&gt;Node3</title>
<path fill="none" stroke="midnightblue" d="M108.557,-66.2011C97.2962,-56.0666 84.4101,-44.4691 74.1,-35.19"/>
<polygon fill="midnightblue" stroke="midnightblue" points="106.267,-68.8489 116.041,-72.937 110.95,-63.6458 106.267,-68.8489"/>
</g>
<!-- Node2&#45;&gt;Node4 -->
<g id="edge6" class="edge"><title>Node2&#45;&gt;Node4</title>
<path fill="none" stroke="midnightblue" d="M161.479,-65.8677C175.216,-53.3471 191.32,-38.67 202.039,-28.901"/>
<polygon fill="midnightblue" stroke="midnightblue" points="158.755,-63.6141 153.722,-72.937 163.47,-68.7878 158.755,-63.6141"/>
</g>
</g>
</svg>
