<?xml version="1.0" encoding="UTF-8" standalone="no"?>
<!DOCTYPE svg PUBLIC "-//W3C//DTD SVG 1.1//EN"
 "http://www.w3.org/Graphics/SVG/1.1/DTD/svg11.dtd">
<!-- Generated by graphviz version 2.26.3 (20100126.1600)
 -->
<!-- Title: src/base/OptionsList.cc Pages: 1 -->
<svg width="556pt" height="146pt"
 viewBox="0.00 0.00 556.00 146.00" xmlns="http://www.w3.org/2000/svg" xmlns:xlink="http://www.w3.org/1999/xlink">
<g id="graph1" class="graph" transform="scale(1 1) rotate(0) translate(4 142)">
<title>src/base/OptionsList.cc</title>
<polygon fill="white" stroke="white" points="-4,5 -4,-142 553,-142 553,5 -4,5"/>
<!-- Node1 -->
<g id="node1" class="node"><title>Node1</title>
<polygon fill="#bfbfbf" stroke="black" points="271,-116.5 271,-137.5 391,-137.5 391,-116.5 271,-116.5"/>
<text text-anchor="middle" x="331" y="-124.5" font-family="Helvetica,sans-Serif" font-size="10.00">src/base/OptionsList.cc</text>
</g>
<!-- Node2 -->
<g id="node3" class="node"><title>Node2</title>
<a xlink:href="_options_list_8h.html" target="_top" xlink:title="OptionsList.h">
<polygon fill="white" stroke="black" points="253,-58.5 253,-79.5 327,-79.5 327,-58.5 253,-58.5"/>
<text text-anchor="middle" x="290" y="-66.5" font-family="Helvetica,sans-Serif" font-size="10.00">OptionsList.h</text>
</a>
</g>
<!-- Node1&#45;&gt;Node2 -->
<g id="edge2" class="edge"><title>Node1&#45;&gt;Node2</title>
<path fill="none" stroke="midnightblue" d="M323.48,-116.362C317.874,-108.431 310.068,-97.3885 303.403,-87.9606"/>
<polygon fill="midnightblue" stroke="midnightblue" points="306.103,-85.7161 297.472,-79.5707 300.387,-89.7568 306.103,-85.7161"/>
</g>
<!-- Node8 -->
<g id="node15" class="node"><title>Node8</title>
<a xlink:href="string_8h.html" target="_top" xlink:title="std_ext/string.h">
<polygon fill="white" stroke="black" points="114,-58.5 114,-79.5 198,-79.5 198,-58.5 114,-58.5"/>
<text text-anchor="middle" x="156" y="-66.5" font-family="Helvetica,sans-Serif" font-size="10.00">std_ext/string.h</text>
</a>
</g>
<!-- Node1&#45;&gt;Node8 -->
<g id="edge14" class="edge"><title>Node1&#45;&gt;Node8</title>
<path fill="none" stroke="midnightblue" d="M299.309,-116.497C270.779,-107.041 228.664,-93.0829 197.465,-82.7428"/>
<polygon fill="midnightblue" stroke="midnightblue" points="198.344,-79.3468 187.751,-79.5231 196.142,-85.9914 198.344,-79.3468"/>
</g>
<!-- Node11 -->
<g id="node23" class="node"><title>Node11</title>
<a xlink:href="_logger_8h.html" target="_top" xlink:title="Logger.h">
<polygon fill="white" stroke="black" points="345,-58.5 345,-79.5 399,-79.5 399,-58.5 345,-58.5"/>
<text text-anchor="middle" x="372" y="-66.5" font-family="Helvetica,sans-Serif" font-size="10.00">Logger.h</text>
</a>
</g>
<!-- Node1&#45;&gt;Node11 -->
<g id="edge24" class="edge"><title>Node1&#45;&gt;Node11</title>
<path fill="none" stroke="midnightblue" d="M338.52,-116.362C344.126,-108.431 351.932,-97.3885 358.597,-87.9606"/>
<polygon fill="midnightblue" stroke="midnightblue" points="361.613,-89.7568 364.528,-79.5707 355.897,-85.7161 361.613,-89.7568"/>
</g>
<!-- Node13 -->
<g id="node27" class="node"><title>Node13</title>
<polygon fill="white" stroke="#bfbfbf" points="416.5,-58.5 416.5,-79.5 461.5,-79.5 461.5,-58.5 416.5,-58.5"/>
<text text-anchor="middle" x="439" y="-66.5" font-family="Helvetica,sans-Serif" font-size="10.00">cstdlib</text>
</g>
<!-- Node1&#45;&gt;Node13 -->
<g id="edge28" class="edge"><title>Node1&#45;&gt;Node13</title>
<path fill="none" stroke="midnightblue" d="M350.558,-116.497C367.198,-107.56 391.327,-94.602 410.18,-84.4772"/>
<polygon fill="midnightblue" stroke="midnightblue" points="412.069,-87.436 419.223,-79.6212 408.757,-81.2691 412.069,-87.436"/>
</g>
<!-- Node3 -->
<g id="node5" class="node"><title>Node3</title>
<polygon fill="white" stroke="#bfbfbf" points="135.5,-0.5 135.5,-21.5 176.5,-21.5 176.5,-0.5 135.5,-0.5"/>
<text text-anchor="middle" x="156" y="-8.5" font-family="Helvetica,sans-Serif" font-size="10.00">string</text>
</g>
<!-- Node2&#45;&gt;Node3 -->
<g id="edge4" class="edge"><title>Node2&#45;&gt;Node3</title>
<path fill="none" stroke="midnightblue" d="M265.734,-58.4966C243.329,-48.7989 209.981,-34.365 185.932,-23.9556"/>
<polygon fill="midnightblue" stroke="midnightblue" points="187.142,-20.6655 176.574,-19.9052 184.361,-27.0895 187.142,-20.6655"/>
</g>
<!-- Node4 -->
<g id="node7" class="node"><title>Node4</title>
<polygon fill="white" stroke="#bfbfbf" points="264,-0.5 264,-21.5 316,-21.5 316,-0.5 264,-0.5"/>
<text text-anchor="middle" x="290" y="-8.5" font-family="Helvetica,sans-Serif" font-size="10.00">memory</text>
</g>
<!-- Node2&#45;&gt;Node4 -->
<g id="edge6" class="edge"><title>Node2&#45;&gt;Node4</title>
<path fill="none" stroke="midnightblue" d="M290,-58.3619C290,-50.9219 290,-40.7427 290,-31.7276"/>
<polygon fill="midnightblue" stroke="midnightblue" points="293.5,-31.5706 290,-21.5707 286.5,-31.5707 293.5,-31.5706"/>
</g>
<!-- Node5 -->
<g id="node9" class="node"><title>Node5</title>
<polygon fill="white" stroke="#bfbfbf" points="333.5,-0.5 333.5,-21.5 368.5,-21.5 368.5,-0.5 333.5,-0.5"/>
<text text-anchor="middle" x="351" y="-8.5" font-family="Helvetica,sans-Serif" font-size="10.00">map</text>
</g>
<!-- Node2&#45;&gt;Node5 -->
<g id="edge8" class="edge"><title>Node2&#45;&gt;Node5</title>
<path fill="none" stroke="midnightblue" d="M301.188,-58.3619C309.959,-50.0226 322.349,-38.2418 332.578,-28.5162"/>
<polygon fill="midnightblue" stroke="midnightblue" points="335.047,-30.9978 339.883,-21.5707 330.224,-25.9248 335.047,-30.9978"/>
</g>
<!-- Node6 -->
<g id="node11" class="node"><title>Node6</title>
<polygon fill="white" stroke="#bfbfbf" points="386,-0.5 386,-21.5 416,-21.5 416,-0.5 386,-0.5"/>
<text text-anchor="middle" x="401" y="-8.5" font-family="Helvetica,sans-Serif" font-size="10.00">set</text>
</g>
<!-- Node2&#45;&gt;Node6 -->
<g id="edge10" class="edge"><title>Node2&#45;&gt;Node6</title>
<path fill="none" stroke="midnightblue" d="M310.101,-58.4966C328.785,-48.7339 356.655,-34.1712 376.605,-23.7468"/>
<polygon fill="midnightblue" stroke="midnightblue" points="378.446,-26.7341 385.688,-19.0009 375.204,-20.53 378.446,-26.7341"/>
</g>
<!-- Node7 -->
<g id="node13" class="node"><title>Node7</title>
<polygon fill="white" stroke="#bfbfbf" points="194,-0.5 194,-21.5 246,-21.5 246,-0.5 194,-0.5"/>
<text text-anchor="middle" x="220" y="-8.5" font-family="Helvetica,sans-Serif" font-size="10.00">sstream</text>
</g>
<!-- Node2&#45;&gt;Node7 -->
<g id="edge12" class="edge"><title>Node2&#45;&gt;Node7</title>
<path fill="none" stroke="midnightblue" d="M277.161,-58.3619C266.998,-49.9408 252.599,-38.0105 240.796,-28.2308"/>
<polygon fill="midnightblue" stroke="midnightblue" points="242.691,-25.2558 232.758,-21.5707 238.225,-30.6459 242.691,-25.2558"/>
</g>
<!-- Node8&#45;&gt;Node3 -->
<g id="edge16" class="edge"><title>Node8&#45;&gt;Node3</title>
<path fill="none" stroke="midnightblue" d="M156,-58.3619C156,-50.9219 156,-40.7427 156,-31.7276"/>
<polygon fill="midnightblue" stroke="midnightblue" points="159.5,-31.5706 156,-21.5707 152.5,-31.5707 159.5,-31.5706"/>
</g>
<!-- Node8&#45;&gt;Node7 -->
<g id="edge18" class="edge"><title>Node8&#45;&gt;Node7</title>
<path fill="none" stroke="midnightblue" d="M167.739,-58.3619C176.941,-50.0226 189.94,-38.2418 200.672,-28.5162"/>
<polygon fill="midnightblue" stroke="midnightblue" points="203.276,-30.8793 208.336,-21.5707 198.576,-25.6924 203.276,-30.8793"/>
</g>
<!-- Node9 -->
<g id="node19" class="node"><title>Node9</title>
<polygon fill="white" stroke="#bfbfbf" points="0,-0.5 0,-21.5 56,-21.5 56,-0.5 0,-0.5"/>
<text text-anchor="middle" x="28" y="-8.5" font-family="Helvetica,sans-Serif" font-size="10.00">algorithm</text>
</g>
<!-- Node8&#45;&gt;Node9 -->
<g id="edge20" class="edge"><title>Node8&#45;&gt;Node9</title>
<path fill="none" stroke="midnightblue" d="M132.82,-58.4966C112.648,-49.3562 83.1904,-36.0082 60.6362,-25.7883"/>
<polygon fill="midnightblue" stroke="midnightblue" points="61.9931,-22.5606 51.4399,-21.6212 59.1039,-28.9366 61.9931,-22.5606"/>
</g>
<!-- Node10 -->
<g id="node21" class="node"><title>Node10</title>
<polygon fill="white" stroke="#bfbfbf" points="74,-0.5 74,-21.5 118,-21.5 118,-0.5 74,-0.5"/>
<text text-anchor="middle" x="96" y="-8.5" font-family="Helvetica,sans-Serif" font-size="10.00">vector</text>
</g>
<!-- Node8&#45;&gt;Node10 -->
<g id="edge22" class="edge"><title>Node8&#45;&gt;Node10</title>
<path fill="none" stroke="midnightblue" d="M144.995,-58.3619C136.453,-50.1043 124.42,-38.4725 114.417,-28.8029"/>
<polygon fill="midnightblue" stroke="midnightblue" points="116.558,-26.0044 106.935,-21.5707 111.692,-31.0374 116.558,-26.0044"/>
</g>
<!-- Node12 -->
<g id="node25" class="node"><title>Node12</title>
<polygon fill="white" stroke="#bfbfbf" points="433.5,-0.5 433.5,-21.5 548.5,-21.5 548.5,-0.5 433.5,-0.5"/>
<text text-anchor="middle" x="491" y="-8.5" font-family="Helvetica,sans-Serif" font-size="10.00">detail/easylogging++.h</text>
</g>
<!-- Node11&#45;&gt;Node12 -->
<g id="edge26" class="edge"><title>Node11&#45;&gt;Node12</title>
<path fill="none" stroke="midnightblue" d="M393.55,-58.4966C412.136,-49.4378 439.202,-36.2462 460.095,-26.0628"/>
<polygon fill="midnightblue" stroke="midnightblue" points="461.753,-29.1487 469.208,-21.6212 458.686,-22.8563 461.753,-29.1487"/>
</g>
</g>
</svg>
