<?xml version="1.0" encoding="UTF-8" standalone="no"?>
<!DOCTYPE svg PUBLIC "-//W3C//DTD SVG 1.1//EN"
 "http://www.w3.org/Graphics/SVG/1.1/DTD/svg11.dtd">
<!-- Generated by graphviz version 2.26.3 (20100126.1600)
 -->
<!-- Title: src/expconfig/detectors/PID.h Pages: 1 -->
<svg width="1870pt" height="188pt"
 viewBox="0.00 0.00 1870.00 188.00" xmlns="http://www.w3.org/2000/svg" xmlns:xlink="http://www.w3.org/1999/xlink">
<g id="graph1" class="graph" transform="scale(1 1) rotate(0) translate(4 184)">
<title>src/expconfig/detectors/PID.h</title>
<polygon fill="white" stroke="white" points="-4,5 -4,-184 1867,-184 1867,5 -4,5"/>
<!-- Node1 -->
<g id="node1" class="node"><title>Node1</title>
<polygon fill="#bfbfbf" stroke="black" points="837.5,-145 837.5,-179 956.5,-179 956.5,-145 837.5,-145"/>
<text text-anchor="start" x="845.5" y="-166" font-family="Helvetica,sans-Serif" font-size="10.00">src/expconfig/detectors</text>
<text text-anchor="middle" x="897" y="-153" font-family="Helvetica,sans-Serif" font-size="10.00">/PID.h</text>
</g>
<!-- Node2 -->
<g id="node3" class="node"><title>Node2</title>
<a xlink:href="calibration_2modules_2_p_i_d___energy_8cc.html" target="_top" xlink:title="src/calibration/modules\l/PID_Energy.cc">
<polygon fill="white" stroke="black" points="-0.5,-73 -0.5,-107 116.5,-107 116.5,-73 -0.5,-73"/>
<text text-anchor="start" x="7.5" y="-94" font-family="Helvetica,sans-Serif" font-size="10.00">src/calibration/modules</text>
<text text-anchor="middle" x="58" y="-81" font-family="Helvetica,sans-Serif" font-size="10.00">/PID_Energy.cc</text>
</a>
</g>
<!-- Node1&#45;&gt;Node2 -->
<g id="edge2" class="edge"><title>Node1&#45;&gt;Node2</title>
<path fill="none" stroke="midnightblue" d="M827.056,-158.836C663.353,-151.152 259.034,-130.477 125,-108 122.268,-107.542 119.486,-107.021 116.685,-106.452"/>
<polygon fill="midnightblue" stroke="midnightblue" points="827.333,-162.353 837.485,-159.324 827.659,-155.361 827.333,-162.353"/>
</g>
<!-- Node3 -->
<g id="node5" class="node"><title>Node3</title>
<a xlink:href="calibration_2modules_2_p_i_d___phi_angle_8cc.html" target="_top" xlink:title="src/calibration/modules\l/PID_PhiAngle.cc">
<polygon fill="white" stroke="black" points="133.5,-73 133.5,-107 250.5,-107 250.5,-73 133.5,-73"/>
<text text-anchor="start" x="141.5" y="-94" font-family="Helvetica,sans-Serif" font-size="10.00">src/calibration/modules</text>
<text text-anchor="middle" x="192" y="-81" font-family="Helvetica,sans-Serif" font-size="10.00">/PID_PhiAngle.cc</text>
</a>
</g>
<!-- Node1&#45;&gt;Node3 -->
<g id="edge4" class="edge"><title>Node1&#45;&gt;Node3</title>
<path fill="none" stroke="midnightblue" d="M826.838,-160.14C708.794,-156.102 463.331,-143.801 259,-108 256.271,-107.522 253.492,-106.984 250.694,-106.402"/>
<polygon fill="midnightblue" stroke="midnightblue" points="827.062,-163.649 837.173,-160.483 827.295,-156.653 827.062,-163.649"/>
</g>
<!-- Node4 -->
<g id="node7" class="node"><title>Node4</title>
<a xlink:href="_p_i_d__2004__elements_8h.html" target="_top" xlink:title="src/expconfig/detectors\l/detail/PID_2004_elements.h">
<polygon fill="white" stroke="black" points="267.5,-73 267.5,-107 410.5,-107 410.5,-73 267.5,-73"/>
<text text-anchor="start" x="275.5" y="-94" font-family="Helvetica,sans-Serif" font-size="10.00">src/expconfig/detectors</text>
<text text-anchor="middle" x="339" y="-81" font-family="Helvetica,sans-Serif" font-size="10.00">/detail/PID_2004_elements.h</text>
</a>
</g>
<!-- Node1&#45;&gt;Node4 -->
<g id="edge6" class="edge"><title>Node1&#45;&gt;Node4</title>
<path fill="none" stroke="midnightblue" d="M827.309,-156.132C734.801,-147.866 566.521,-131.172 424,-108 419.682,-107.298 415.252,-106.524 410.79,-105.703"/>
<polygon fill="midnightblue" stroke="midnightblue" points="827.118,-159.628 837.388,-157.026 827.736,-152.656 827.118,-159.628"/>
</g>
<!-- Node5 -->
<g id="node9" class="node"><title>Node5</title>
<a xlink:href="_p_i_d_8cc.html" target="_top" xlink:title="src/expconfig/detectors\l/PID.cc">
<polygon fill="white" stroke="black" points="573.5,-1 573.5,-35 692.5,-35 692.5,-1 573.5,-1"/>
<text text-anchor="start" x="581.5" y="-22" font-family="Helvetica,sans-Serif" font-size="10.00">src/expconfig/detectors</text>
<text text-anchor="middle" x="633" y="-9" font-family="Helvetica,sans-Serif" font-size="10.00">/PID.cc</text>
</a>
</g>
<!-- Node1&#45;&gt;Node5 -->
<g id="edge26" class="edge"><title>Node1&#45;&gt;Node5</title>
<path fill="none" stroke="midnightblue" d="M827.296,-158.435C709.419,-151.687 481.096,-135.234 457,-108 418.397,-64.3698 508.372,-39.0292 573.382,-26.9066"/>
<polygon fill="midnightblue" stroke="midnightblue" points="827.132,-161.931 837.314,-159.001 827.527,-154.943 827.132,-161.931"/>
</g>
<!-- Node6 -->
<g id="node11" class="node"><title>Node6</title>
<a xlink:href="_p_i_d__2009__05__elements_8h.html" target="_top" xlink:title="src/expconfig/detectors\l/detail/PID_2009_05_elements.h">
<polygon fill="white" stroke="black" points="466,-73 466,-107 624,-107 624,-73 466,-73"/>
<text text-anchor="start" x="474" y="-94" font-family="Helvetica,sans-Serif" font-size="10.00">src/expconfig/detectors</text>
<text text-anchor="middle" x="545" y="-81" font-family="Helvetica,sans-Serif" font-size="10.00">/detail/PID_2009_05_elements.h</text>
</a>
</g>
<!-- Node1&#45;&gt;Node6 -->
<g id="edge10" class="edge"><title>Node1&#45;&gt;Node6</title>
<path fill="none" stroke="midnightblue" d="M827.396,-147.763C768.89,-135.796 685.278,-118.693 624.218,-106.204"/>
<polygon fill="midnightblue" stroke="midnightblue" points="826.789,-151.211 837.288,-149.786 828.192,-144.353 826.789,-151.211"/>
</g>
<!-- Node7 -->
<g id="node14" class="node"><title>Node7</title>
<a xlink:href="_p_i_d__2009__06__elements_8h.html" target="_top" xlink:title="src/expconfig/detectors\l/detail/PID_2009_06_elements.h">
<polygon fill="white" stroke="black" points="642,-73 642,-107 800,-107 800,-73 642,-73"/>
<text text-anchor="start" x="650" y="-94" font-family="Helvetica,sans-Serif" font-size="10.00">src/expconfig/detectors</text>
<text text-anchor="middle" x="721" y="-81" font-family="Helvetica,sans-Serif" font-size="10.00">/detail/PID_2009_06_elements.h</text>
</a>
</g>
<!-- Node1&#45;&gt;Node7 -->
<g id="edge14" class="edge"><title>Node1&#45;&gt;Node7</title>
<path fill="none" stroke="midnightblue" d="M845.828,-141.066C819.42,-130.263 787.612,-117.251 762.715,-107.065"/>
<polygon fill="midnightblue" stroke="midnightblue" points="844.71,-144.39 855.29,-144.937 847.36,-137.911 844.71,-144.39"/>
</g>
<!-- Node8 -->
<g id="node17" class="node"><title>Node8</title>
<a xlink:href="_p_i_d__2009__07__elements_8h.html" target="_top" xlink:title="src/expconfig/detectors\l/detail/PID_2009_07_elements.h">
<polygon fill="white" stroke="black" points="818,-73 818,-107 976,-107 976,-73 818,-73"/>
<text text-anchor="start" x="826" y="-94" font-family="Helvetica,sans-Serif" font-size="10.00">src/expconfig/detectors</text>
<text text-anchor="middle" x="897" y="-81" font-family="Helvetica,sans-Serif" font-size="10.00">/detail/PID_2009_07_elements.h</text>
</a>
</g>
<!-- Node1&#45;&gt;Node8 -->
<g id="edge18" class="edge"><title>Node1&#45;&gt;Node8</title>
<path fill="none" stroke="midnightblue" d="M897,-134.719C897,-125.572 897,-115.625 897,-107.441"/>
<polygon fill="midnightblue" stroke="midnightblue" points="893.5,-134.937 897,-144.937 900.5,-134.937 893.5,-134.937"/>
</g>
<!-- Node9 -->
<g id="node20" class="node"><title>Node9</title>
<a xlink:href="_p_i_d__2014__elements_8h.html" target="_top" xlink:title="src/expconfig/detectors\l/detail/PID_2014_elements.h">
<polygon fill="white" stroke="black" points="993.5,-73 993.5,-107 1136.5,-107 1136.5,-73 993.5,-73"/>
<text text-anchor="start" x="1001.5" y="-94" font-family="Helvetica,sans-Serif" font-size="10.00">src/expconfig/detectors</text>
<text text-anchor="middle" x="1065" y="-81" font-family="Helvetica,sans-Serif" font-size="10.00">/detail/PID_2014_elements.h</text>
</a>
</g>
<!-- Node1&#45;&gt;Node9 -->
<g id="edge22" class="edge"><title>Node1&#45;&gt;Node9</title>
<path fill="none" stroke="midnightblue" d="M946.178,-140.924C971.32,-130.149 1001.52,-117.206 1025.18,-107.065"/>
<polygon fill="midnightblue" stroke="midnightblue" points="944.626,-137.781 936.814,-144.937 947.384,-144.215 944.626,-137.781"/>
</g>
<!-- Node10 -->
<g id="node24" class="node"><title>Node10</title>
<a xlink:href="_setup__2012__12___compton_8cc.html" target="_top" xlink:title="src/expconfig/setups\l/Setup_2012_12_Compton.cc">
<polygon fill="white" stroke="black" points="1154,-73 1154,-107 1300,-107 1300,-73 1154,-73"/>
<text text-anchor="start" x="1162" y="-94" font-family="Helvetica,sans-Serif" font-size="10.00">src/expconfig/setups</text>
<text text-anchor="middle" x="1227" y="-81" font-family="Helvetica,sans-Serif" font-size="10.00">/Setup_2012_12_Compton.cc</text>
</a>
</g>
<!-- Node1&#45;&gt;Node10 -->
<g id="edge28" class="edge"><title>Node1&#45;&gt;Node10</title>
<path fill="none" stroke="midnightblue" d="M966.636,-146.87C1016.35,-136.062 1084.79,-121.163 1145,-108 1147.85,-107.377 1150.75,-106.742 1153.68,-106.1"/>
<polygon fill="midnightblue" stroke="midnightblue" points="965.666,-143.499 956.637,-149.044 967.153,-150.34 965.666,-143.499"/>
</g>
<!-- Node11 -->
<g id="node26" class="node"><title>Node11</title>
<a xlink:href="_setup__2014___e_p_t_8cc.html" target="_top" xlink:title="src/expconfig/setups\l/Setup_2014_EPT.cc">
<polygon fill="white" stroke="black" points="1318,-73 1318,-107 1428,-107 1428,-73 1318,-73"/>
<text text-anchor="start" x="1326" y="-94" font-family="Helvetica,sans-Serif" font-size="10.00">src/expconfig/setups</text>
<text text-anchor="middle" x="1373" y="-81" font-family="Helvetica,sans-Serif" font-size="10.00">/Setup_2014_EPT.cc</text>
</a>
</g>
<!-- Node1&#45;&gt;Node11 -->
<g id="edge30" class="edge"><title>Node1&#45;&gt;Node11</title>
<path fill="none" stroke="midnightblue" d="M966.799,-155.941C1049.15,-148.081 1189.94,-132.413 1309,-108 1311.94,-107.397 1314.94,-106.731 1317.97,-106.021"/>
<polygon fill="midnightblue" stroke="midnightblue" points="966.432,-152.46 956.805,-156.883 967.089,-159.429 966.432,-152.46"/>
</g>
<!-- Node12 -->
<g id="node28" class="node"><title>Node12</title>
<a xlink:href="_setup__2015__01___pion_8cc.html" target="_top" xlink:title="src/expconfig/setups\l/Setup_2015_01_Pion.cc">
<polygon fill="white" stroke="black" points="1445.5,-73 1445.5,-107 1570.5,-107 1570.5,-73 1445.5,-73"/>
<text text-anchor="start" x="1453.5" y="-94" font-family="Helvetica,sans-Serif" font-size="10.00">src/expconfig/setups</text>
<text text-anchor="middle" x="1508" y="-81" font-family="Helvetica,sans-Serif" font-size="10.00">/Setup_2015_01_Pion.cc</text>
</a>
</g>
<!-- Node1&#45;&gt;Node12 -->
<g id="edge32" class="edge"><title>Node1&#45;&gt;Node12</title>
<path fill="none" stroke="midnightblue" d="M966.514,-158.36C1069.77,-152.208 1269.51,-137.437 1437,-108 1439.76,-107.516 1442.56,-106.982 1445.39,-106.41"/>
<polygon fill="midnightblue" stroke="midnightblue" points="966.301,-154.867 956.524,-158.947 966.712,-161.855 966.301,-154.867"/>
</g>
<!-- Node13 -->
<g id="node30" class="node"><title>Node13</title>
<a xlink:href="_candidate_builder_8cc.html" target="_top" xlink:title="src/reconstruct/Candidate\lBuilder.cc">
<polygon fill="white" stroke="black" points="1587.5,-73 1587.5,-107 1716.5,-107 1716.5,-73 1587.5,-73"/>
<text text-anchor="start" x="1595.5" y="-94" font-family="Helvetica,sans-Serif" font-size="10.00">src/reconstruct/Candidate</text>
<text text-anchor="middle" x="1652" y="-81" font-family="Helvetica,sans-Serif" font-size="10.00">Builder.cc</text>
</a>
</g>
<!-- Node1&#45;&gt;Node13 -->
<g id="edge34" class="edge"><title>Node1&#45;&gt;Node13</title>
<path fill="none" stroke="midnightblue" d="M966.798,-160.218C1090.76,-156.222 1357.19,-143.883 1579,-108 1581.71,-107.562 1584.46,-107.075 1587.23,-106.55"/>
<polygon fill="midnightblue" stroke="midnightblue" points="966.57,-156.723 956.685,-160.535 966.79,-163.72 966.57,-156.723"/>
</g>
<!-- Node14 -->
<g id="node32" class="node"><title>Node14</title>
<a xlink:href="expconfig__helpers_8cc.html" target="_top" xlink:title="test/expconfig_helpers.cc">
<polygon fill="white" stroke="black" points="1734,-79.5 1734,-100.5 1862,-100.5 1862,-79.5 1734,-79.5"/>
<text text-anchor="middle" x="1798" y="-87.5" font-family="Helvetica,sans-Serif" font-size="10.00">test/expconfig_helpers.cc</text>
</a>
</g>
<!-- Node1&#45;&gt;Node14 -->
<g id="edge36" class="edge"><title>Node1&#45;&gt;Node14</title>
<path fill="none" stroke="midnightblue" d="M966.811,-159.037C1138.81,-151.481 1579.56,-130.493 1725,-108 1736.74,-106.185 1749.36,-103.385 1760.74,-100.531"/>
<polygon fill="midnightblue" stroke="midnightblue" points="966.449,-155.549 956.611,-159.483 966.755,-162.543 966.449,-155.549"/>
</g>
<!-- Node4&#45;&gt;Node5 -->
<g id="edge8" class="edge"><title>Node4&#45;&gt;Node5</title>
<path fill="none" stroke="midnightblue" d="M418.559,-70.5162C467.302,-58.579 528.677,-43.5485 573.264,-32.6292"/>
<polygon fill="midnightblue" stroke="midnightblue" points="417.554,-67.1587 408.674,-72.937 419.219,-73.9578 417.554,-67.1587"/>
</g>
<!-- Node6&#45;&gt;Node5 -->
<g id="edge12" class="edge"><title>Node6&#45;&gt;Node5</title>
<path fill="none" stroke="midnightblue" d="M573.731,-66.493C586.201,-56.2899 600.54,-44.5583 611.99,-35.19"/>
<polygon fill="midnightblue" stroke="midnightblue" points="571.378,-63.8957 565.855,-72.937 575.811,-69.3134 571.378,-63.8957"/>
</g>
<!-- Node7&#45;&gt;Node5 -->
<g id="edge16" class="edge"><title>Node7&#45;&gt;Node5</title>
<path fill="none" stroke="midnightblue" d="M692.269,-66.493C679.799,-56.2899 665.46,-44.5583 654.01,-35.19"/>
<polygon fill="midnightblue" stroke="midnightblue" points="690.189,-69.3134 700.145,-72.937 694.622,-63.8957 690.189,-69.3134"/>
</g>
<!-- Node8&#45;&gt;Node5 -->
<g id="edge20" class="edge"><title>Node8&#45;&gt;Node5</title>
<path fill="none" stroke="midnightblue" d="M824.682,-70.2768C783.283,-58.9862 731.963,-44.9899 692.846,-34.3217"/>
<polygon fill="midnightblue" stroke="midnightblue" points="823.867,-73.6824 834.436,-72.937 825.709,-66.9291 823.867,-73.6824"/>
</g>
<!-- Node9&#45;&gt;Node5 -->
<g id="edge24" class="edge"><title>Node9&#45;&gt;Node5</title>
<path fill="none" stroke="midnightblue" d="M983.048,-71.6871C875.572,-51.6472 760.758,-35.144 692.692,-25.8761"/>
<polygon fill="midnightblue" stroke="midnightblue" points="982.616,-75.1671 993.09,-73.5741 983.909,-68.2875 982.616,-75.1671"/>
</g>
</g>
</svg>
