<?xml version="1.0" encoding="UTF-8" standalone="no"?>
<!DOCTYPE svg PUBLIC "-//W3C//DTD SVG 1.1//EN"
 "http://www.w3.org/Graphics/SVG/1.1/DTD/svg11.dtd">
<!-- Generated by graphviz version 2.26.3 (20100126.1600)
 -->
<!-- Title: src/analysis/physics/common/ParticleIDCheck.cc Pages: 1 -->
<svg width="3162pt" height="638pt"
 viewBox="0.00 0.00 3162.00 638.00" xmlns="http://www.w3.org/2000/svg" xmlns:xlink="http://www.w3.org/1999/xlink">
<g id="graph1" class="graph" transform="scale(1 1) rotate(0) translate(4 634)">
<title>src/analysis/physics/common/ParticleIDCheck.cc</title>
<polygon fill="white" stroke="white" points="-4,5 -4,-634 3159,-634 3159,5 -4,5"/>
<!-- Node1 -->
<g id="node1" class="node"><title>Node1</title>
<polygon fill="#bfbfbf" stroke="black" points="3008,-595 3008,-629 3154,-629 3154,-595 3008,-595"/>
<text text-anchor="start" x="3016" y="-616" font-family="Helvetica,sans-Serif" font-size="10.00">src/analysis/physics</text>
<text text-anchor="middle" x="3081" y="-603" font-family="Helvetica,sans-Serif" font-size="10.00">/common/ParticleIDCheck.cc</text>
</g>
<!-- Node2 -->
<g id="node3" class="node"><title>Node2</title>
<a xlink:href="_particle_i_d_check_8h.html" target="_top" xlink:title="physics/common/ParticleIDCheck.h">
<polygon fill="white" stroke="black" points="932,-536.5 932,-557.5 1106,-557.5 1106,-536.5 932,-536.5"/>
<text text-anchor="middle" x="1019" y="-544.5" font-family="Helvetica,sans-Serif" font-size="10.00">physics/common/ParticleIDCheck.h</text>
</a>
</g>
<!-- Node1&#45;&gt;Node2 -->
<g id="edge2" class="edge"><title>Node1&#45;&gt;Node2</title>
<path fill="none" stroke="midnightblue" d="M3007.92,-609.696C2695.4,-599.845 1471.21,-561.255 1116.07,-550.06"/>
<polygon fill="midnightblue" stroke="midnightblue" points="1116.17,-546.562 1106.07,-549.745 1115.95,-553.558 1116.17,-546.562"/>
</g>
<!-- Node36 -->
<g id="node85" class="node"><title>Node36</title>
<polygon fill="white" stroke="#bfbfbf" points="2920,-0.5 2920,-21.5 2964,-21.5 2964,-0.5 2920,-0.5"/>
<text text-anchor="middle" x="2942" y="-8.5" font-family="Helvetica,sans-Serif" font-size="10.00">cmath</text>
</g>
<!-- Node1&#45;&gt;Node36 -->
<g id="edge346" class="edge"><title>Node1&#45;&gt;Node36</title>
<path fill="none" stroke="midnightblue" d="M3089.81,-594.996C3101.04,-571.722 3119,-528.336 3119,-489 3119,-489 3119,-489 3119,-127 3119,-58.4271 3024.92,-28.1842 2973.94,-16.8301"/>
<polygon fill="midnightblue" stroke="midnightblue" points="2974.57,-13.3859 2964.06,-14.7461 2973.12,-20.2351 2974.57,-13.3859"/>
</g>
<!-- Node49 -->
<g id="node145" class="node"><title>Node49</title>
<a xlink:href="math_8h.html" target="_top" xlink:title="base/std_ext/math.h">
<polygon fill="white" stroke="black" points="2728,-116.5 2728,-137.5 2834,-137.5 2834,-116.5 2728,-116.5"/>
<text text-anchor="middle" x="2781" y="-124.5" font-family="Helvetica,sans-Serif" font-size="10.00">base/std_ext/math.h</text>
</a>
</g>
<!-- Node1&#45;&gt;Node49 -->
<g id="edge344" class="edge"><title>Node1&#45;&gt;Node49</title>
<path fill="none" stroke="midnightblue" d="M3081,-594.888C3081,-571.127 3081,-526.797 3081,-489 3081,-489 3081,-489 3081,-315 3081,-204.177 2932.19,-156.204 2844.18,-137.523"/>
<polygon fill="midnightblue" stroke="midnightblue" points="2844.79,-134.075 2834.29,-135.492 2843.38,-140.932 2844.79,-134.075"/>
</g>
<!-- Node3 -->
<g id="node5" class="node"><title>Node3</title>
<a xlink:href="_physics_8h.html" target="_top" xlink:title="analysis/physics/Physics.h">
<polygon fill="white" stroke="black" points="538,-478.5 538,-499.5 674,-499.5 674,-478.5 538,-478.5"/>
<text text-anchor="middle" x="606" y="-486.5" font-family="Helvetica,sans-Serif" font-size="10.00">analysis/physics/Physics.h</text>
</a>
</g>
<!-- Node2&#45;&gt;Node3 -->
<g id="edge4" class="edge"><title>Node2&#45;&gt;Node3</title>
<path fill="none" stroke="midnightblue" d="M944.209,-536.497C870.724,-526.177 759.047,-510.493 684.356,-500.004"/>
<polygon fill="midnightblue" stroke="midnightblue" points="684.46,-496.484 674.07,-498.559 683.486,-503.416 684.46,-496.484"/>
</g>
<!-- Node6 -->
<g id="node11" class="node"><title>Node6</title>
<a xlink:href="interval_8h.html" target="_top" xlink:title="base/interval.h">
<polygon fill="white" stroke="black" points="1720,-181.5 1720,-202.5 1800,-202.5 1800,-181.5 1720,-181.5"/>
<text text-anchor="middle" x="1760" y="-189.5" font-family="Helvetica,sans-Serif" font-size="10.00">base/interval.h</text>
</a>
</g>
<!-- Node2&#45;&gt;Node6 -->
<g id="edge340" class="edge"><title>Node2&#45;&gt;Node6</title>
<path fill="none" stroke="midnightblue" d="M1106.19,-542.959C1240.83,-534.305 1484,-508.015 1484,-431 1484,-431 1484,-431 1484,-315 1484,-275.223 1507.32,-267.164 1541,-246 1592.79,-213.457 1662.9,-200.523 1709.7,-195.384"/>
<polygon fill="midnightblue" stroke="midnightblue" points="1710.31,-198.841 1719.9,-194.347 1709.6,-191.877 1710.31,-198.841"/>
</g>
<!-- Node15 -->
<g id="node29" class="node"><title>Node15</title>
<polygon fill="white" stroke="#bfbfbf" points="285.5,-116.5 285.5,-137.5 326.5,-137.5 326.5,-116.5 285.5,-116.5"/>
<text text-anchor="middle" x="306" y="-124.5" font-family="Helvetica,sans-Serif" font-size="10.00">string</text>
</g>
<!-- Node2&#45;&gt;Node15 -->
<g id="edge342" class="edge"><title>Node2&#45;&gt;Node15</title>
<path fill="none" stroke="midnightblue" d="M931.68,-546.158C684.882,-542.63 0,-524.422 0,-431 0,-431 0,-431 0,-315 0,-241.13 27.5624,-216.474 88,-174 117.931,-152.965 222.47,-137.374 275.154,-130.652"/>
<polygon fill="midnightblue" stroke="midnightblue" points="275.774,-134.102 285.263,-129.39 274.907,-127.156 275.774,-134.102"/>
</g>
<!-- Node4 -->
<g id="node7" class="node"><title>Node4</title>
<a xlink:href="manager__t_8h.html" target="_top" xlink:title="analysis/physics/manager_t.h">
<polygon fill="white" stroke="black" points="483,-420.5 483,-441.5 629,-441.5 629,-420.5 483,-420.5"/>
<text text-anchor="middle" x="556" y="-428.5" font-family="Helvetica,sans-Serif" font-size="10.00">analysis/physics/manager_t.h</text>
</a>
</g>
<!-- Node3&#45;&gt;Node4 -->
<g id="edge6" class="edge"><title>Node3&#45;&gt;Node4</title>
<path fill="none" stroke="midnightblue" d="M596.829,-478.362C589.852,-470.268 580.079,-458.932 571.844,-449.38"/>
<polygon fill="midnightblue" stroke="midnightblue" points="574.293,-446.859 565.113,-441.571 568.991,-451.43 574.293,-446.859"/>
</g>
<!-- Node5 -->
<g id="node9" class="node"><title>Node5</title>
<a xlink:href="_histogram_factories_8h.html" target="_top" xlink:title="analysis/plot/HistogramFactories.h">
<polygon fill="white" stroke="black" points="521,-246.5 521,-267.5 689,-267.5 689,-246.5 521,-246.5"/>
<text text-anchor="middle" x="605" y="-254.5" font-family="Helvetica,sans-Serif" font-size="10.00">analysis/plot/HistogramFactories.h</text>
</a>
</g>
<!-- Node3&#45;&gt;Node5 -->
<g id="edge8" class="edge"><title>Node3&#45;&gt;Node5</title>
<path fill="none" stroke="midnightblue" d="M630.432,-478.473C645.098,-470.715 662.509,-458.617 671,-442 675.449,-433.293 672.869,-429.597 671,-420 660.407,-365.614 631.664,-306.42 615.828,-276.567"/>
<polygon fill="midnightblue" stroke="midnightblue" points="618.827,-274.755 610.997,-267.618 612.667,-278.08 618.827,-274.755"/>
</g>
<!-- Node3&#45;&gt;Node15 -->
<g id="edge332" class="edge"><title>Node3&#45;&gt;Node15</title>
<path fill="none" stroke="midnightblue" d="M537.975,-483.349C470.15,-476.795 363.346,-463.971 273,-442 182.857,-420.078 76,-465.771 76,-373 76,-373 76,-373 76,-257 76,-166.596 212.336,-138.339 275.074,-130.122"/>
<polygon fill="midnightblue" stroke="midnightblue" points="275.681,-133.574 285.183,-128.889 274.833,-126.625 275.681,-133.574"/>
</g>
<!-- Node16 -->
<g id="node31" class="node"><title>Node16</title>
<a xlink:href="memory_8h.html" target="_top" xlink:title="base/std_ext/memory.h">
<polygon fill="white" stroke="black" points="801.5,-181.5 801.5,-202.5 920.5,-202.5 920.5,-181.5 801.5,-181.5"/>
<text text-anchor="middle" x="861" y="-189.5" font-family="Helvetica,sans-Serif" font-size="10.00">base/std_ext/memory.h</text>
</a>
</g>
<!-- Node3&#45;&gt;Node16 -->
<g id="edge30" class="edge"><title>Node3&#45;&gt;Node16</title>
<path fill="none" stroke="midnightblue" d="M616.563,-478.489C628.61,-465.169 645.704,-441.366 638,-420 605.613,-330.181 449.738,-318.387 512,-246 546.881,-205.447 697.154,-218.281 750,-210 763.425,-207.896 777.755,-205.606 791.507,-203.386"/>
<polygon fill="midnightblue" stroke="midnightblue" points="792.084,-206.838 801.396,-201.785 790.965,-199.928 792.084,-206.838"/>
</g>
<!-- Node17 -->
<g id="node33" class="node"><title>Node17</title>
<polygon fill="white" stroke="#bfbfbf" points="848,-116.5 848,-137.5 900,-137.5 900,-116.5 848,-116.5"/>
<text text-anchor="middle" x="874" y="-124.5" font-family="Helvetica,sans-Serif" font-size="10.00">memory</text>
</g>
<!-- Node3&#45;&gt;Node17 -->
<g id="edge336" class="edge"><title>Node3&#45;&gt;Node17</title>
<path fill="none" stroke="midnightblue" d="M629.032,-478.381C646.046,-469.91 669.239,-457.003 687,-442 773.552,-368.889 752.234,-303.258 850,-246 926.049,-201.461 988.622,-277.739 1045,-210 1055.24,-197.702 1054.76,-186.679 1045,-174 1008.72,-126.872 972.755,-152.55 910.184,-137.993"/>
<polygon fill="midnightblue" stroke="midnightblue" points="910.894,-134.561 900.334,-135.418 909.124,-141.334 910.894,-134.561"/>
</g>
<!-- Node18 -->
<g id="node35" class="node"><title>Node18</title>
<polygon fill="white" stroke="#bfbfbf" points="725.5,-116.5 725.5,-137.5 754.5,-137.5 754.5,-116.5 725.5,-116.5"/>
<text text-anchor="middle" x="740" y="-124.5" font-family="Helvetica,sans-Serif" font-size="10.00">list</text>
</g>
<!-- Node3&#45;&gt;Node18 -->
<g id="edge330" class="edge"><title>Node3&#45;&gt;Node18</title>
<path fill="none" stroke="midnightblue" d="M539.527,-478.471C515.995,-471.657 491.138,-460.444 474,-442 452.348,-418.699 455,-404.808 455,-373 455,-373 455,-373 455,-315 455,-279.553 467.518,-268.388 495,-246 534.228,-214.044 557.078,-231.24 603,-210 644.995,-190.576 690.273,-161.34 716.827,-143.252"/>
<polygon fill="midnightblue" stroke="midnightblue" points="719.147,-145.904 725.402,-137.353 715.18,-140.137 719.147,-145.904"/>
</g>
<!-- Node19 -->
<g id="node37" class="node"><title>Node19</title>
<a xlink:href="_t_event_8h.html" target="_top" xlink:title="tree/TEvent.h">
<polygon fill="white" stroke="black" points="518,-181.5 518,-202.5 594,-202.5 594,-181.5 518,-181.5"/>
<text text-anchor="middle" x="556" y="-189.5" font-family="Helvetica,sans-Serif" font-size="10.00">tree/TEvent.h</text>
</a>
</g>
<!-- Node3&#45;&gt;Node19 -->
<g id="edge36" class="edge"><title>Node3&#45;&gt;Node19</title>
<path fill="none" stroke="midnightblue" d="M548.268,-478.427C507.199,-469.845 456.646,-456.775 441,-442 417.394,-419.707 417,-405.469 417,-373 417,-373 417,-373 417,-315 417,-282.531 419.269,-270.124 441,-246 458.761,-226.283 485.228,-213.172 508.295,-204.812"/>
<polygon fill="midnightblue" stroke="midnightblue" points="509.608,-208.062 517.938,-201.515 507.343,-201.439 509.608,-208.062"/>
</g>
<!-- Node21 -->
<g id="node44" class="node"><title>Node21</title>
<a xlink:href="_t_event_data_8h.html" target="_top" xlink:title="tree/TEventData.h">
<polygon fill="white" stroke="black" points="1359.5,-420.5 1359.5,-441.5 1456.5,-441.5 1456.5,-420.5 1359.5,-420.5"/>
<text text-anchor="middle" x="1408" y="-428.5" font-family="Helvetica,sans-Serif" font-size="10.00">tree/TEventData.h</text>
</a>
</g>
<!-- Node3&#45;&gt;Node21 -->
<g id="edge46" class="edge"><title>Node3&#45;&gt;Node21</title>
<path fill="none" stroke="midnightblue" d="M674.032,-484.08C828.608,-472.901 1204.07,-445.748 1349.29,-435.246"/>
<polygon fill="midnightblue" stroke="midnightblue" points="1349.62,-438.731 1359.34,-434.519 1349.12,-431.749 1349.62,-438.731"/>
</g>
<!-- Node52 -->
<g id="node160" class="node"><title>Node52</title>
<polygon fill="white" stroke="#bfbfbf" points="398.5,-116.5 398.5,-137.5 457.5,-137.5 457.5,-116.5 398.5,-116.5"/>
<text text-anchor="middle" x="428" y="-124.5" font-family="Helvetica,sans-Serif" font-size="10.00">functional</text>
</g>
<!-- Node3&#45;&gt;Node52 -->
<g id="edge338" class="edge"><title>Node3&#45;&gt;Node52</title>
<path fill="none" stroke="midnightblue" d="M537.83,-478.921C485.565,-470.26 418.526,-456.847 395,-442 362.068,-421.217 341,-411.942 341,-373 341,-373 341,-373 341,-315 341,-251.575 329.861,-228.079 363,-174 370.963,-161.006 383.996,-150.532 396.31,-142.799"/>
<polygon fill="midnightblue" stroke="midnightblue" points="398.216,-145.738 405.066,-137.655 394.671,-139.702 398.216,-145.738"/>
</g>
<!-- Node56 -->
<g id="node189" class="node"><title>Node56</title>
<polygon fill="white" stroke="#bfbfbf" points="109.5,-116.5 109.5,-137.5 144.5,-137.5 144.5,-116.5 109.5,-116.5"/>
<text text-anchor="middle" x="127" y="-124.5" font-family="Helvetica,sans-Serif" font-size="10.00">map</text>
</g>
<!-- Node3&#45;&gt;Node56 -->
<g id="edge334" class="edge"><title>Node3&#45;&gt;Node56</title>
<path fill="none" stroke="midnightblue" d="M537.884,-485.776C407.086,-479.148 130.26,-462.85 92,-442 57.8063,-423.366 38,-411.942 38,-373 38,-373 38,-373 38,-315 38,-248.51 54.986,-231.715 88,-174 93.8438,-163.784 101.952,-153.591 109.262,-145.322"/>
<polygon fill="midnightblue" stroke="midnightblue" points="112.014,-147.5 116.193,-137.764 106.855,-142.768 112.014,-147.5"/>
</g>
<!-- Node61 -->
<g id="node209" class="node"><title>Node61</title>
<a xlink:href="_options_list_8h.html" target="_top" xlink:title="base/OptionsList.h">
<polygon fill="white" stroke="black" points="142,-181.5 142,-202.5 240,-202.5 240,-181.5 142,-181.5"/>
<text text-anchor="middle" x="191" y="-189.5" font-family="Helvetica,sans-Serif" font-size="10.00">base/OptionsList.h</text>
</a>
</g>
<!-- Node3&#45;&gt;Node61 -->
<g id="edge296" class="edge"><title>Node3&#45;&gt;Node61</title>
<path fill="none" stroke="midnightblue" d="M537.924,-481.79C467.703,-473.601 363.454,-459.131 327,-442 284.505,-422.03 247,-419.954 247,-373 247,-373 247,-373 247,-315 247,-275.23 222.45,-234.202 205.86,-211.017"/>
<polygon fill="midnightblue" stroke="midnightblue" points="208.516,-208.723 199.75,-202.772 202.892,-212.89 208.516,-208.723"/>
</g>
<!-- Node63 -->
<g id="node217" class="node"><title>Node63</title>
<a xlink:href="root__draw_8h.html" target="_top" xlink:title="analysis/plot/root\l_draw.h">
<polygon fill="white" stroke="black" points="371.5,-175 371.5,-209 462.5,-209 462.5,-175 371.5,-175"/>
<text text-anchor="start" x="379.5" y="-196" font-family="Helvetica,sans-Serif" font-size="10.00">analysis/plot/root</text>
<text text-anchor="middle" x="417" y="-183" font-family="Helvetica,sans-Serif" font-size="10.00">_draw.h</text>
</a>
</g>
<!-- Node3&#45;&gt;Node63 -->
<g id="edge308" class="edge"><title>Node3&#45;&gt;Node63</title>
<path fill="none" stroke="midnightblue" d="M537.893,-482.758C471.028,-472.441 379,-445.139 379,-373 379,-373 379,-373 379,-315 379,-280.427 392.874,-242.726 403.856,-218.301"/>
<polygon fill="midnightblue" stroke="midnightblue" points="407.137,-219.546 408.187,-209.004 400.791,-216.591 407.137,-219.546"/>
</g>
<!-- Node64 -->
<g id="node226" class="node"><title>Node64</title>
<polygon fill="white" stroke="#bfbfbf" points="760.5,-420.5 760.5,-441.5 811.5,-441.5 811.5,-420.5 760.5,-420.5"/>
<text text-anchor="middle" x="786" y="-428.5" font-family="Helvetica,sans-Serif" font-size="10.00">TH1D.h</text>
</g>
<!-- Node3&#45;&gt;Node64 -->
<g id="edge324" class="edge"><title>Node3&#45;&gt;Node64</title>
<path fill="none" stroke="midnightblue" d="M638.597,-478.497C670.272,-468.29 718.229,-452.837 750.77,-442.352"/>
<polygon fill="midnightblue" stroke="midnightblue" points="751.895,-445.667 760.34,-439.268 749.748,-439.004 751.895,-445.667"/>
</g>
<!-- Node65 -->
<g id="node228" class="node"><title>Node65</title>
<polygon fill="white" stroke="#bfbfbf" points="828.5,-420.5 828.5,-441.5 879.5,-441.5 879.5,-420.5 828.5,-420.5"/>
<text text-anchor="middle" x="854" y="-428.5" font-family="Helvetica,sans-Serif" font-size="10.00">TH2D.h</text>
</g>
<!-- Node3&#45;&gt;Node65 -->
<g id="edge326" class="edge"><title>Node3&#45;&gt;Node65</title>
<path fill="none" stroke="midnightblue" d="M660.888,-478.468C702.038,-470.225 759.902,-457.905 818.644,-442.209"/>
<polygon fill="midnightblue" stroke="midnightblue" points="819.719,-445.544 828.46,-439.556 817.893,-438.786 819.719,-445.544"/>
</g>
<!-- Node66 -->
<g id="node230" class="node"><title>Node66</title>
<polygon fill="white" stroke="#bfbfbf" points="896.5,-420.5 896.5,-441.5 947.5,-441.5 947.5,-420.5 896.5,-420.5"/>
<text text-anchor="middle" x="922" y="-428.5" font-family="Helvetica,sans-Serif" font-size="10.00">TH3D.h</text>
</g>
<!-- Node3&#45;&gt;Node66 -->
<g id="edge328" class="edge"><title>Node3&#45;&gt;Node66</title>
<path fill="none" stroke="midnightblue" d="M674.09,-480.526C729.206,-473.011 808.923,-460.662 886.55,-442.112"/>
<polygon fill="midnightblue" stroke="midnightblue" points="887.604,-445.458 896.496,-439.698 885.953,-438.656 887.604,-445.458"/>
</g>
<!-- Node5&#45;&gt;Node6 -->
<g id="edge10" class="edge"><title>Node5&#45;&gt;Node6</title>
<path fill="none" stroke="midnightblue" d="M689.025,-253.054C905.923,-242.84 1473.65,-215.922 1559,-210 1610.44,-206.431 1669.18,-201.016 1709.81,-197.057"/>
<polygon fill="midnightblue" stroke="midnightblue" points="1710.38,-200.518 1719.99,-196.058 1709.7,-193.551 1710.38,-200.518"/>
</g>
<!-- Node5&#45;&gt;Node15 -->
<g id="edge28" class="edge"><title>Node5&#45;&gt;Node15</title>
<path fill="none" stroke="midnightblue" d="M520.869,-249.991C433.304,-241.824 306.835,-227.229 292,-210 276.967,-192.541 285.761,-165.105 294.735,-146.603"/>
<polygon fill="midnightblue" stroke="midnightblue" points="297.91,-148.085 299.454,-137.603 291.711,-144.835 297.91,-148.085"/>
</g>
<!-- Node7 -->
<g id="node13" class="node"><title>Node7</title>
<a xlink:href="printable_8h.html" target="_top" xlink:title="printable.h">
<polygon fill="white" stroke="black" points="1626,-58.5 1626,-79.5 1688,-79.5 1688,-58.5 1626,-58.5"/>
<text text-anchor="middle" x="1657" y="-66.5" font-family="Helvetica,sans-Serif" font-size="10.00">printable.h</text>
</a>
</g>
<!-- Node6&#45;&gt;Node7 -->
<g id="edge12" class="edge"><title>Node6&#45;&gt;Node7</title>
<path fill="none" stroke="midnightblue" d="M1775.49,-181.397C1795.42,-166.448 1825.59,-138.49 1809,-116 1795.7,-97.966 1738.2,-83.9121 1697.87,-76.0373"/>
<polygon fill="midnightblue" stroke="midnightblue" points="1698.5,-72.5947 1688.03,-74.1697 1697.2,-79.4721 1698.5,-72.5947"/>
</g>
<!-- Node10 -->
<g id="node19" class="node"><title>Node10</title>
<a xlink:href="types_8h.html" target="_top" xlink:title="types.h">
<polygon fill="white" stroke="black" points="1561.5,-116.5 1561.5,-137.5 1610.5,-137.5 1610.5,-116.5 1561.5,-116.5"/>
<text text-anchor="middle" x="1586" y="-124.5" font-family="Helvetica,sans-Serif" font-size="10.00">types.h</text>
</a>
</g>
<!-- Node6&#45;&gt;Node10 -->
<g id="edge18" class="edge"><title>Node6&#45;&gt;Node10</title>
<path fill="none" stroke="midnightblue" d="M1731.66,-181.412C1701.2,-170.034 1652.79,-151.95 1620.23,-139.786"/>
<polygon fill="midnightblue" stroke="midnightblue" points="1621.26,-136.436 1610.67,-136.216 1618.81,-142.994 1621.26,-136.436"/>
</g>
<!-- Node11 -->
<g id="node21" class="node"><title>Node11</title>
<polygon fill="white" stroke="#bfbfbf" points="1960,-116.5 1960,-137.5 2016,-137.5 2016,-116.5 1960,-116.5"/>
<text text-anchor="middle" x="1988" y="-124.5" font-family="Helvetica,sans-Serif" font-size="10.00">algorithm</text>
</g>
<!-- Node6&#45;&gt;Node11 -->
<g id="edge20" class="edge"><title>Node6&#45;&gt;Node11</title>
<path fill="none" stroke="midnightblue" d="M1787.31,-181.444C1794.33,-178.875 1801.91,-176.227 1809,-174 1810.72,-173.46 1898.06,-150.562 1950.09,-136.931"/>
<polygon fill="midnightblue" stroke="midnightblue" points="1951.2,-140.258 1959.99,-134.338 1949.43,-133.486 1951.2,-140.258"/>
</g>
<!-- Node12 -->
<g id="node23" class="node"><title>Node12</title>
<polygon fill="white" stroke="#bfbfbf" points="1741.5,-116.5 1741.5,-137.5 1800.5,-137.5 1800.5,-116.5 1741.5,-116.5"/>
<text text-anchor="middle" x="1771" y="-124.5" font-family="Helvetica,sans-Serif" font-size="10.00">stdexcept</text>
</g>
<!-- Node6&#45;&gt;Node12 -->
<g id="edge22" class="edge"><title>Node6&#45;&gt;Node12</title>
<path fill="none" stroke="midnightblue" d="M1761.82,-181.267C1763.35,-172.18 1765.6,-158.892 1767.49,-147.74"/>
<polygon fill="midnightblue" stroke="midnightblue" points="1771,-147.978 1769.22,-137.534 1764.1,-146.809 1771,-147.978"/>
</g>
<!-- Node13 -->
<g id="node25" class="node"><title>Node13</title>
<polygon fill="white" stroke="#bfbfbf" points="1809,-58.5 1809,-79.5 1849,-79.5 1849,-58.5 1809,-58.5"/>
<text text-anchor="middle" x="1829" y="-66.5" font-family="Helvetica,sans-Serif" font-size="10.00">limits</text>
</g>
<!-- Node6&#45;&gt;Node13 -->
<g id="edge24" class="edge"><title>Node6&#45;&gt;Node13</title>
<path fill="none" stroke="midnightblue" d="M1788.47,-181.439C1795.19,-178.974 1802.34,-176.375 1809,-174 1855.07,-157.566 1884.63,-177.844 1913,-138 1931.27,-112.337 1890,-90.8029 1859.06,-78.9254"/>
<polygon fill="midnightblue" stroke="midnightblue" points="1860.07,-75.5653 1849.47,-75.4154 1857.66,-82.139 1860.07,-75.5653"/>
</g>
<!-- Node14 -->
<g id="node27" class="node"><title>Node14</title>
<polygon fill="white" stroke="#bfbfbf" points="1855.5,-116.5 1855.5,-137.5 1904.5,-137.5 1904.5,-116.5 1855.5,-116.5"/>
<text text-anchor="middle" x="1880" y="-124.5" font-family="Helvetica,sans-Serif" font-size="10.00">istream</text>
</g>
<!-- Node6&#45;&gt;Node14 -->
<g id="edge26" class="edge"><title>Node6&#45;&gt;Node14</title>
<path fill="none" stroke="midnightblue" d="M1779.55,-181.412C1799.07,-170.836 1829.3,-154.465 1851.49,-142.441"/>
<polygon fill="midnightblue" stroke="midnightblue" points="1853.34,-145.424 1860.46,-137.584 1850,-139.269 1853.34,-145.424"/>
</g>
<!-- Node8 -->
<g id="node15" class="node"><title>Node8</title>
<polygon fill="white" stroke="#bfbfbf" points="2117,-0.5 2117,-21.5 2161,-21.5 2161,-0.5 2117,-0.5"/>
<text text-anchor="middle" x="2139" y="-8.5" font-family="Helvetica,sans-Serif" font-size="10.00">vector</text>
</g>
<!-- Node7&#45;&gt;Node8 -->
<g id="edge14" class="edge"><title>Node7&#45;&gt;Node8</title>
<path fill="none" stroke="midnightblue" d="M1688.25,-65.2391C1775.07,-54.7929 2018.53,-25.4967 2106.65,-14.8932"/>
<polygon fill="midnightblue" stroke="midnightblue" points="2107.33,-18.3364 2116.84,-13.6666 2106.49,-11.3865 2107.33,-18.3364"/>
</g>
<!-- Node9 -->
<g id="node17" class="node"><title>Node9</title>
<polygon fill="white" stroke="#bfbfbf" points="803,-0.5 803,-21.5 855,-21.5 855,-0.5 803,-0.5"/>
<text text-anchor="middle" x="829" y="-8.5" font-family="Helvetica,sans-Serif" font-size="10.00">ostream</text>
</g>
<!-- Node7&#45;&gt;Node9 -->
<g id="edge16" class="edge"><title>Node7&#45;&gt;Node9</title>
<path fill="none" stroke="midnightblue" d="M1625.55,-66.7972C1496,-57.7221 1003.93,-23.2533 865.454,-13.5536"/>
<polygon fill="midnightblue" stroke="midnightblue" points="865.585,-10.0542 855.365,-12.8468 865.096,-17.0371 865.585,-10.0542"/>
</g>
<!-- Node16&#45;&gt;Node17 -->
<g id="edge32" class="edge"><title>Node16&#45;&gt;Node17</title>
<path fill="none" stroke="midnightblue" d="M863.147,-181.267C864.983,-172.085 867.677,-158.615 869.922,-147.392"/>
<polygon fill="midnightblue" stroke="midnightblue" points="873.364,-148.026 871.893,-137.534 866.5,-146.653 873.364,-148.026"/>
</g>
<!-- Node16&#45;&gt;Node18 -->
<g id="edge34" class="edge"><title>Node16&#45;&gt;Node18</title>
<path fill="none" stroke="midnightblue" d="M841.29,-181.412C820.078,-170.017 786.345,-151.896 763.702,-139.732"/>
<polygon fill="midnightblue" stroke="midnightblue" points="765.211,-136.57 754.745,-134.921 761.898,-142.737 765.211,-136.57"/>
</g>
<!-- Node19&#45;&gt;Node7 -->
<g id="edge40" class="edge"><title>Node19&#45;&gt;Node7</title>
<path fill="none" stroke="midnightblue" d="M559.709,-181.304C566.339,-164.027 582.015,-130.458 608,-116 652.754,-91.098 1427.46,-73.6945 1615.93,-69.8168"/>
<polygon fill="midnightblue" stroke="midnightblue" points="1616.05,-73.3151 1625.98,-69.6114 1615.91,-66.3166 1616.05,-73.3151"/>
</g>
<!-- Node19&#45;&gt;Node12 -->
<g id="edge44" class="edge"><title>Node19&#45;&gt;Node12</title>
<path fill="none" stroke="midnightblue" d="M594.149,-188.722C640.961,-184.787 722.77,-178.196 793,-174 1159.81,-152.083 1252.16,-159.264 1619,-138 1657.04,-135.795 1700.39,-132.59 1731.03,-130.207"/>
<polygon fill="midnightblue" stroke="midnightblue" points="1731.61,-133.672 1741.31,-129.402 1731.07,-126.694 1731.61,-133.672"/>
</g>
<!-- Node19&#45;&gt;Node17 -->
<g id="edge42" class="edge"><title>Node19&#45;&gt;Node17</title>
<path fill="none" stroke="midnightblue" d="M594.042,-184.224C655.912,-171.578 777.495,-146.726 838.013,-134.356"/>
<polygon fill="midnightblue" stroke="midnightblue" points="838.783,-137.771 847.879,-132.339 837.381,-130.913 838.783,-137.771"/>
</g>
<!-- Node20 -->
<g id="node39" class="node"><title>Node20</title>
<polygon fill="white" stroke="#bfbfbf" points="475,-116.5 475,-137.5 531,-137.5 531,-116.5 475,-116.5"/>
<text text-anchor="middle" x="503" y="-124.5" font-family="Helvetica,sans-Serif" font-size="10.00">Rtypes.h</text>
</g>
<!-- Node19&#45;&gt;Node20 -->
<g id="edge38" class="edge"><title>Node19&#45;&gt;Node20</title>
<path fill="none" stroke="midnightblue" d="M547.248,-181.267C539.299,-171.517 527.406,-156.932 517.951,-145.336"/>
<polygon fill="midnightblue" stroke="midnightblue" points="520.621,-143.072 511.589,-137.534 515.196,-147.496 520.621,-143.072"/>
</g>
<!-- Node21&#45;&gt;Node7 -->
<g id="edge48" class="edge"><title>Node21&#45;&gt;Node7</title>
<path fill="none" stroke="midnightblue" d="M1359.3,-427.934C1264.32,-421.559 1057.73,-405.647 990,-384 842.812,-336.96 767.369,-343.174 689,-210 667.792,-173.961 656.155,-146.274 685,-116 717.566,-81.8212 1434.44,-71.4954 1615.67,-69.4266"/>
<polygon fill="midnightblue" stroke="midnightblue" points="1615.89,-72.9245 1625.85,-69.3127 1615.81,-65.9249 1615.89,-72.9245"/>
</g>
<!-- Node22 -->
<g id="node47" class="node"><title>Node22</title>
<a xlink:href="_t_i_d_8h.html" target="_top" xlink:title="TID.h">
<polygon fill="white" stroke="black" points="1671.5,-304.5 1671.5,-325.5 1712.5,-325.5 1712.5,-304.5 1671.5,-304.5"/>
<text text-anchor="middle" x="1692" y="-312.5" font-family="Helvetica,sans-Serif" font-size="10.00">TID.h</text>
</a>
</g>
<!-- Node21&#45;&gt;Node22 -->
<g id="edge50" class="edge"><title>Node21&#45;&gt;Node22</title>
<path fill="none" stroke="midnightblue" d="M1433.96,-420.398C1486.66,-398.871 1605.95,-350.148 1661.93,-327.282"/>
<polygon fill="midnightblue" stroke="midnightblue" points="1663.37,-330.476 1671.3,-323.455 1660.72,-323.996 1663.37,-330.476"/>
</g>
<!-- Node32 -->
<g id="node75" class="node"><title>Node32</title>
<a xlink:href="_t_detector_read_hit_8h.html" target="_top" xlink:title="TDetectorReadHit.h">
<polygon fill="white" stroke="black" points="2605,-246.5 2605,-267.5 2709,-267.5 2709,-246.5 2605,-246.5"/>
<text text-anchor="middle" x="2657" y="-254.5" font-family="Helvetica,sans-Serif" font-size="10.00">TDetectorReadHit.h</text>
</a>
</g>
<!-- Node21&#45;&gt;Node32 -->
<g id="edge86" class="edge"><title>Node21&#45;&gt;Node32</title>
<path fill="none" stroke="midnightblue" d="M1456.61,-429.997C1666.56,-425.532 2487.21,-406.693 2537,-384 2587.56,-360.954 2627.2,-305.867 2645.67,-276.39"/>
<polygon fill="midnightblue" stroke="midnightblue" points="2648.69,-278.153 2650.9,-267.792 2642.71,-274.512 2648.69,-278.153"/>
</g>
<!-- Node37 -->
<g id="node95" class="node"><title>Node37</title>
<a xlink:href="_t_slow_control_8h.html" target="_top" xlink:title="TSlowControl.h">
<polygon fill="white" stroke="black" points="1625,-362.5 1625,-383.5 1709,-383.5 1709,-362.5 1625,-362.5"/>
<text text-anchor="middle" x="1667" y="-370.5" font-family="Helvetica,sans-Serif" font-size="10.00">TSlowControl.h</text>
</a>
</g>
<!-- Node21&#45;&gt;Node37 -->
<g id="edge116" class="edge"><title>Node21&#45;&gt;Node37</title>
<path fill="none" stroke="midnightblue" d="M1454.9,-420.497C1499.99,-410.4 1568.01,-395.168 1614.8,-384.691"/>
<polygon fill="midnightblue" stroke="midnightblue" points="1615.74,-388.066 1624.73,-382.465 1614.21,-381.235 1615.74,-388.066"/>
</g>
<!-- Node38 -->
<g id="node102" class="node"><title>Node38</title>
<a xlink:href="_t_unpacker_message_8h.html" target="_top" xlink:title="TUnpackerMessage.h">
<polygon fill="white" stroke="black" points="858.5,-246.5 858.5,-267.5 971.5,-267.5 971.5,-246.5 858.5,-246.5"/>
<text text-anchor="middle" x="915" y="-254.5" font-family="Helvetica,sans-Serif" font-size="10.00">TUnpackerMessage.h</text>
</a>
</g>
<!-- Node21&#45;&gt;Node38 -->
<g id="edge128" class="edge"><title>Node21&#45;&gt;Node38</title>
<path fill="none" stroke="midnightblue" d="M1359.22,-429.429C1269,-425.814 1080.07,-414.718 1023,-384 976.747,-359.105 941.796,-305.68 925.368,-276.689"/>
<polygon fill="midnightblue" stroke="midnightblue" points="928.403,-274.945 920.517,-267.87 922.27,-278.319 928.403,-274.945"/>
</g>
<!-- Node45 -->
<g id="node124" class="node"><title>Node45</title>
<a xlink:href="_t_tagger_hit_8h.html" target="_top" xlink:title="TTaggerHit.h">
<polygon fill="white" stroke="black" points="2454,-362.5 2454,-383.5 2528,-383.5 2528,-362.5 2454,-362.5"/>
<text text-anchor="middle" x="2491" y="-370.5" font-family="Helvetica,sans-Serif" font-size="10.00">TTaggerHit.h</text>
</a>
</g>
<!-- Node21&#45;&gt;Node45 -->
<g id="edge158" class="edge"><title>Node21&#45;&gt;Node45</title>
<path fill="none" stroke="midnightblue" d="M1456.64,-428.395C1636.92,-418.74 2265.79,-385.061 2443.75,-375.53"/>
<polygon fill="midnightblue" stroke="midnightblue" points="2444.04,-379.02 2453.84,-374.99 2443.67,-372.03 2444.04,-379.02"/>
</g>
<!-- Node47 -->
<g id="node134" class="node"><title>Node47</title>
<a xlink:href="_t_trigger_8h.html" target="_top" xlink:title="TTrigger.h">
<polygon fill="white" stroke="black" points="975.5,-181.5 975.5,-202.5 1036.5,-202.5 1036.5,-181.5 975.5,-181.5"/>
<text text-anchor="middle" x="1006" y="-189.5" font-family="Helvetica,sans-Serif" font-size="10.00">TTrigger.h</text>
</a>
</g>
<!-- Node21&#45;&gt;Node47 -->
<g id="edge174" class="edge"><title>Node21&#45;&gt;Node47</title>
<path fill="none" stroke="midnightblue" d="M1363.44,-420.462C1290.9,-401.307 1146.34,-354.532 1056,-268 1038.9,-251.624 1024.69,-228.37 1015.84,-211.907"/>
<polygon fill="midnightblue" stroke="midnightblue" points="1018.75,-209.924 1011.04,-202.655 1012.54,-213.145 1018.75,-209.924"/>
</g>
<!-- Node48 -->
<g id="node141" class="node"><title>Node48</title>
<a xlink:href="_t_target_8h.html" target="_top" xlink:title="TTarget.h">
<polygon fill="white" stroke="black" points="1491.5,-181.5 1491.5,-202.5 1550.5,-202.5 1550.5,-181.5 1491.5,-181.5"/>
<text text-anchor="middle" x="1521" y="-189.5" font-family="Helvetica,sans-Serif" font-size="10.00">TTarget.h</text>
</a>
</g>
<!-- Node21&#45;&gt;Node48 -->
<g id="edge186" class="edge"><title>Node21&#45;&gt;Node48</title>
<path fill="none" stroke="midnightblue" d="M1390.12,-420.394C1356.62,-399.125 1290.13,-349.403 1317,-304 1326.8,-287.435 1435.05,-233.473 1489.74,-206.967"/>
<polygon fill="midnightblue" stroke="midnightblue" points="1491.5,-210.005 1498.99,-202.504 1488.46,-203.702 1491.5,-210.005"/>
</g>
<!-- Node50 -->
<g id="node152" class="node"><title>Node50</title>
<a xlink:href="_t_cluster_8h.html" target="_top" xlink:title="TCluster.h">
<polygon fill="white" stroke="black" points="2841,-246.5 2841,-267.5 2903,-267.5 2903,-246.5 2841,-246.5"/>
<text text-anchor="middle" x="2872" y="-254.5" font-family="Helvetica,sans-Serif" font-size="10.00">TCluster.h</text>
</a>
</g>
<!-- Node21&#45;&gt;Node50 -->
<g id="edge204" class="edge"><title>Node21&#45;&gt;Node50</title>
<path fill="none" stroke="midnightblue" d="M1456.77,-430.042C1663.08,-425.853 2458.54,-408.26 2568,-384 2674.98,-360.289 2792.09,-300.944 2844.26,-272.576"/>
<polygon fill="midnightblue" stroke="midnightblue" points="2846.14,-275.534 2853.23,-267.655 2842.78,-269.397 2846.14,-275.534"/>
</g>
<!-- Node53 -->
<g id="node169" class="node"><title>Node53</title>
<a xlink:href="_t_candidate_8h.html" target="_top" xlink:title="TCandidate.h">
<polygon fill="white" stroke="black" points="2302.5,-304.5 2302.5,-325.5 2377.5,-325.5 2377.5,-304.5 2302.5,-304.5"/>
<text text-anchor="middle" x="2340" y="-312.5" font-family="Helvetica,sans-Serif" font-size="10.00">TCandidate.h</text>
</a>
</g>
<!-- Node21&#45;&gt;Node53 -->
<g id="edge232" class="edge"><title>Node21&#45;&gt;Node53</title>
<path fill="none" stroke="midnightblue" d="M1456.8,-424.927C1618.05,-404.856 2132.65,-340.808 2292.3,-320.937"/>
<polygon fill="midnightblue" stroke="midnightblue" points="2292.8,-324.402 2302.29,-319.693 2291.94,-317.455 2292.8,-324.402"/>
</g>
<!-- Node54 -->
<g id="node178" class="node"><title>Node54</title>
<a xlink:href="_t_particle_8h.html" target="_top" xlink:title="TParticle.h">
<polygon fill="white" stroke="black" points="1376,-362.5 1376,-383.5 1440,-383.5 1440,-362.5 1376,-362.5"/>
<text text-anchor="middle" x="1408" y="-370.5" font-family="Helvetica,sans-Serif" font-size="10.00">TParticle.h</text>
</a>
</g>
<!-- Node21&#45;&gt;Node54 -->
<g id="edge248" class="edge"><title>Node21&#45;&gt;Node54</title>
<path fill="none" stroke="midnightblue" d="M1408,-420.362C1408,-412.922 1408,-402.743 1408,-393.728"/>
<polygon fill="midnightblue" stroke="midnightblue" points="1411.5,-393.571 1408,-383.571 1404.5,-393.571 1411.5,-393.571"/>
</g>
<!-- Node22&#45;&gt;Node7 -->
<g id="edge54" class="edge"><title>Node22&#45;&gt;Node7</title>
<path fill="none" stroke="midnightblue" d="M1689.93,-304.224C1688.22,-294.73 1685.93,-280.505 1685,-268 1683.08,-242.124 1687.7,-237.364 1690,-138 1690.23,-128.225 1692.95,-125.323 1690,-116 1686.7,-105.557 1680.16,-95.4231 1673.76,-87.2551"/>
<polygon fill="midnightblue" stroke="midnightblue" points="1676.39,-84.9468 1667.29,-79.5245 1671.02,-89.4395 1676.39,-84.9468"/>
</g>
<!-- Node22&#45;&gt;Node12 -->
<g id="edge78" class="edge"><title>Node22&#45;&gt;Node12</title>
<path fill="none" stroke="midnightblue" d="M1690.84,-304.238C1688.68,-279.434 1686.33,-217.082 1711,-174 1718.23,-161.373 1730.32,-150.922 1741.76,-143.107"/>
<polygon fill="midnightblue" stroke="midnightblue" points="1743.75,-145.988 1750.29,-137.652 1739.98,-140.09 1743.75,-145.988"/>
</g>
<!-- Node22&#45;&gt;Node18 -->
<g id="edge80" class="edge"><title>Node22&#45;&gt;Node18</title>
<path fill="none" stroke="midnightblue" d="M1681.8,-304.425C1665.58,-288.407 1632.14,-258.532 1597,-246 1464.92,-198.889 1095.73,-265.604 967,-210 945.643,-200.775 949.405,-185.175 929,-174 914.526,-166.073 812.204,-142.901 764.444,-132.347"/>
<polygon fill="midnightblue" stroke="midnightblue" points="765.125,-128.913 754.606,-130.181 763.62,-135.75 765.125,-128.913"/>
</g>
<!-- Node22&#45;&gt;Node20 -->
<g id="edge52" class="edge"><title>Node22&#45;&gt;Node20</title>
<path fill="none" stroke="midnightblue" d="M1671.44,-314.168C1558.9,-309.565 1016.58,-286.756 850,-268 840.452,-266.925 515.459,-217.113 509,-210 493.899,-193.37 494.928,-166.323 498.064,-147.648"/>
<polygon fill="midnightblue" stroke="midnightblue" points="501.512,-148.254 500.049,-137.761 494.649,-146.877 501.512,-148.254"/>
</g>
<!-- Node23 -->
<g id="node51" class="node"><title>Node23</title>
<a xlink:href="time_8h.html" target="_top" xlink:title="base/std_ext/time.h">
<polygon fill="white" stroke="black" points="1795.5,-246.5 1795.5,-267.5 1898.5,-267.5 1898.5,-246.5 1795.5,-246.5"/>
<text text-anchor="middle" x="1847" y="-254.5" font-family="Helvetica,sans-Serif" font-size="10.00">base/std_ext/time.h</text>
</a>
</g>
<!-- Node22&#45;&gt;Node23 -->
<g id="edge56" class="edge"><title>Node22&#45;&gt;Node23</title>
<path fill="none" stroke="midnightblue" d="M1712.58,-307.298C1737.18,-298.094 1778.82,-282.512 1809.25,-271.126"/>
<polygon fill="midnightblue" stroke="midnightblue" points="1810.56,-274.372 1818.7,-267.589 1808.11,-267.816 1810.56,-274.372"/>
</g>
<!-- Node27 -->
<g id="node62" class="node"><title>Node27</title>
<polygon fill="white" stroke="#bfbfbf" points="1817.5,-181.5 1817.5,-202.5 1858.5,-202.5 1858.5,-181.5 1817.5,-181.5"/>
<text text-anchor="middle" x="1838" y="-189.5" font-family="Helvetica,sans-Serif" font-size="10.00">ctime</text>
</g>
<!-- Node22&#45;&gt;Node27 -->
<g id="edge84" class="edge"><title>Node22&#45;&gt;Node27</title>
<path fill="none" stroke="midnightblue" d="M1704.7,-304.3C1729.94,-283.037 1786.61,-235.294 1817.3,-209.436"/>
<polygon fill="midnightblue" stroke="midnightblue" points="1819.83,-211.883 1825.22,-202.763 1815.32,-206.529 1819.83,-211.883"/>
</g>
<!-- Node28 -->
<g id="node64" class="node"><title>Node28</title>
<polygon fill="white" stroke="#bfbfbf" points="2572,-116.5 2572,-137.5 2634,-137.5 2634,-116.5 2572,-116.5"/>
<text text-anchor="middle" x="2603" y="-124.5" font-family="Helvetica,sans-Serif" font-size="10.00">type_traits</text>
</g>
<!-- Node22&#45;&gt;Node28 -->
<g id="edge72" class="edge"><title>Node22&#45;&gt;Node28</title>
<path fill="none" stroke="midnightblue" d="M1712.52,-312.329C1763.16,-305.66 1898.1,-287.408 2010,-268 2139.94,-245.463 2172.67,-240.381 2301,-210 2395.09,-187.725 2504.18,-156.348 2562.03,-139.261"/>
<polygon fill="midnightblue" stroke="midnightblue" points="2563.29,-142.539 2571.89,-136.343 2561.3,-135.827 2563.29,-142.539"/>
</g>
<!-- Node29 -->
<g id="node66" class="node"><title>Node29</title>
<polygon fill="white" stroke="#bfbfbf" points="1550,-246.5 1550,-267.5 1588,-267.5 1588,-246.5 1550,-246.5"/>
<text text-anchor="middle" x="1569" y="-254.5" font-family="Helvetica,sans-Serif" font-size="10.00">tuple</text>
</g>
<!-- Node22&#45;&gt;Node29 -->
<g id="edge74" class="edge"><title>Node22&#45;&gt;Node29</title>
<path fill="none" stroke="midnightblue" d="M1671.41,-305.292C1651.07,-295.698 1619.79,-280.949 1597.15,-270.274"/>
<polygon fill="midnightblue" stroke="midnightblue" points="1598.57,-267.075 1588.04,-265.976 1595.59,-273.407 1598.57,-267.075"/>
</g>
<!-- Node30 -->
<g id="node68" class="node"><title>Node30</title>
<polygon fill="white" stroke="#bfbfbf" points="2508,-116.5 2508,-137.5 2554,-137.5 2554,-116.5 2508,-116.5"/>
<text text-anchor="middle" x="2531" y="-124.5" font-family="Helvetica,sans-Serif" font-size="10.00">cstdint</text>
</g>
<!-- Node22&#45;&gt;Node30 -->
<g id="edge76" class="edge"><title>Node22&#45;&gt;Node30</title>
<path fill="none" stroke="midnightblue" d="M1712.61,-311.346C1783.23,-298.725 2021.87,-255.258 2217,-210 2320.16,-186.073 2440.96,-152.581 2497.99,-136.437"/>
<polygon fill="midnightblue" stroke="midnightblue" points="2499.22,-139.727 2507.88,-133.63 2497.3,-132.993 2499.22,-139.727"/>
</g>
<!-- Node31 -->
<g id="node72" class="node"><title>Node31</title>
<polygon fill="white" stroke="#bfbfbf" points="2756,-181.5 2756,-202.5 2806,-202.5 2806,-181.5 2756,-181.5"/>
<text text-anchor="middle" x="2781" y="-189.5" font-family="Helvetica,sans-Serif" font-size="10.00">iomanip</text>
</g>
<!-- Node22&#45;&gt;Node31 -->
<g id="edge82" class="edge"><title>Node22&#45;&gt;Node31</title>
<path fill="none" stroke="midnightblue" d="M1712.85,-314.523C1854.49,-311.224 2671.37,-291.233 2718,-268 2742.07,-256.006 2760.31,-230.156 2770.81,-211.945"/>
<polygon fill="midnightblue" stroke="midnightblue" points="2774.12,-213.204 2775.84,-202.751 2767.97,-209.844 2774.12,-213.204"/>
</g>
<!-- Node24 -->
<g id="node53" class="node"><title>Node24</title>
<a xlink:href="string_8h.html" target="_top" xlink:title="base/std_ext/string.h">
<polygon fill="white" stroke="black" points="2100,-181.5 2100,-202.5 2208,-202.5 2208,-181.5 2100,-181.5"/>
<text text-anchor="middle" x="2154" y="-189.5" font-family="Helvetica,sans-Serif" font-size="10.00">base/std_ext/string.h</text>
</a>
</g>
<!-- Node23&#45;&gt;Node24 -->
<g id="edge58" class="edge"><title>Node23&#45;&gt;Node24</title>
<path fill="none" stroke="midnightblue" d="M1898.95,-247.784C1947.51,-238.934 2021.92,-224.765 2086,-210 2092.56,-208.489 2099.44,-206.795 2106.21,-205.066"/>
<polygon fill="midnightblue" stroke="midnightblue" points="2107.19,-208.428 2115.99,-202.526 2105.43,-201.653 2107.19,-208.428"/>
</g>
<!-- Node26 -->
<g id="node60" class="node"><title>Node26</title>
<polygon fill="white" stroke="#bfbfbf" points="1876,-181.5 1876,-202.5 1922,-202.5 1922,-181.5 1876,-181.5"/>
<text text-anchor="middle" x="1899" y="-189.5" font-family="Helvetica,sans-Serif" font-size="10.00">cstring</text>
</g>
<!-- Node23&#45;&gt;Node26 -->
<g id="edge68" class="edge"><title>Node23&#45;&gt;Node26</title>
<path fill="none" stroke="midnightblue" d="M1855.59,-246.267C1863.31,-236.612 1874.83,-222.215 1884.06,-210.675"/>
<polygon fill="midnightblue" stroke="midnightblue" points="1887.06,-212.529 1890.57,-202.534 1881.59,-208.156 1887.06,-212.529"/>
</g>
<!-- Node23&#45;&gt;Node27 -->
<g id="edge70" class="edge"><title>Node23&#45;&gt;Node27</title>
<path fill="none" stroke="midnightblue" d="M1845.51,-246.267C1844.26,-237.18 1842.42,-223.892 1840.87,-212.74"/>
<polygon fill="midnightblue" stroke="midnightblue" points="1844.3,-211.959 1839.46,-202.534 1837.36,-212.919 1844.3,-211.959"/>
</g>
<!-- Node24&#45;&gt;Node8 -->
<g id="edge66" class="edge"><title>Node24&#45;&gt;Node8</title>
<path fill="none" stroke="midnightblue" d="M2153.13,-181.486C2150.72,-152.37 2143.91,-70.292 2140.71,-31.6301"/>
<polygon fill="midnightblue" stroke="midnightblue" points="2144.19,-31.2194 2139.87,-21.5427 2137.21,-31.7976 2144.19,-31.2194"/>
</g>
<!-- Node24&#45;&gt;Node11 -->
<g id="edge64" class="edge"><title>Node24&#45;&gt;Node11</title>
<path fill="none" stroke="midnightblue" d="M2126.96,-181.412C2099.11,-170.505 2055.51,-153.436 2024.59,-141.327"/>
<polygon fill="midnightblue" stroke="midnightblue" points="2025.62,-137.971 2015.03,-137.584 2023.06,-144.489 2025.62,-137.971"/>
</g>
<!-- Node24&#45;&gt;Node15 -->
<g id="edge60" class="edge"><title>Node24&#45;&gt;Node15</title>
<path fill="none" stroke="midnightblue" d="M2103.87,-181.486C2087.7,-178.521 2069.66,-175.655 2053,-174 1317.34,-100.927 1127.15,-194.078 390,-138 372.365,-136.658 352.763,-134.15 336.933,-131.867"/>
<polygon fill="midnightblue" stroke="midnightblue" points="337.053,-128.347 326.647,-130.34 336.025,-135.271 337.053,-128.347"/>
</g>
<!-- Node25 -->
<g id="node56" class="node"><title>Node25</title>
<polygon fill="white" stroke="#bfbfbf" points="2362,-116.5 2362,-137.5 2414,-137.5 2414,-116.5 2362,-116.5"/>
<text text-anchor="middle" x="2388" y="-124.5" font-family="Helvetica,sans-Serif" font-size="10.00">sstream</text>
</g>
<!-- Node24&#45;&gt;Node25 -->
<g id="edge62" class="edge"><title>Node24&#45;&gt;Node25</title>
<path fill="none" stroke="midnightblue" d="M2191.86,-181.484C2236.04,-169.21 2308.58,-149.06 2351.97,-137.008"/>
<polygon fill="midnightblue" stroke="midnightblue" points="2353.12,-140.322 2361.81,-134.274 2351.24,-133.578 2353.12,-140.322"/>
</g>
<!-- Node32&#45;&gt;Node25 -->
<g id="edge114" class="edge"><title>Node32&#45;&gt;Node25</title>
<path fill="none" stroke="midnightblue" d="M2604.98,-248.434C2570.43,-241.353 2524.83,-229.27 2488,-210 2470.67,-200.932 2430.94,-166.069 2407.1,-144.515"/>
<polygon fill="midnightblue" stroke="midnightblue" points="2409.44,-141.908 2399.68,-137.772 2404.73,-147.088 2409.44,-141.908"/>
</g>
<!-- Node32&#45;&gt;Node31 -->
<g id="edge112" class="edge"><title>Node32&#45;&gt;Node31</title>
<path fill="none" stroke="midnightblue" d="M2677.39,-246.393C2695.64,-236.888 2723.13,-222.552 2747,-210 2748.54,-209.188 2750.13,-208.354 2751.73,-207.512"/>
<polygon fill="midnightblue" stroke="midnightblue" points="2753.67,-210.445 2760.87,-202.679 2750.4,-204.255 2753.67,-210.445"/>
</g>
<!-- Node33 -->
<g id="node77" class="node"><title>Node33</title>
<a xlink:href="_detector__t_8h.html" target="_top" xlink:title="base/Detector_t.h">
<polygon fill="white" stroke="black" points="2643.5,-181.5 2643.5,-202.5 2738.5,-202.5 2738.5,-181.5 2643.5,-181.5"/>
<text text-anchor="middle" x="2691" y="-189.5" font-family="Helvetica,sans-Serif" font-size="10.00">base/Detector_t.h</text>
</a>
</g>
<!-- Node32&#45;&gt;Node33 -->
<g id="edge88" class="edge"><title>Node32&#45;&gt;Node33</title>
<path fill="none" stroke="midnightblue" d="M2662.61,-246.267C2667.52,-236.896 2674.75,-223.057 2680.7,-211.7"/>
<polygon fill="midnightblue" stroke="midnightblue" points="2683.96,-213.017 2685.49,-202.534 2677.75,-209.772 2683.96,-213.017"/>
</g>
<!-- Node33&#45;&gt;Node7 -->
<g id="edge90" class="edge"><title>Node33&#45;&gt;Node7</title>
<path fill="none" stroke="midnightblue" d="M2687.83,-181.324C2682.07,-164.077 2668.12,-130.551 2643,-116 2561.88,-69.0038 1893.58,-85.596 1800,-80 1765.69,-77.9483 1726.8,-74.9107 1698.25,-72.5471"/>
<polygon fill="midnightblue" stroke="midnightblue" points="1698.48,-69.0544 1688.22,-71.7098 1697.9,-76.0301 1698.48,-69.0544"/>
</g>
<!-- Node33&#45;&gt;Node8 -->
<g id="edge110" class="edge"><title>Node33&#45;&gt;Node8</title>
<path fill="none" stroke="midnightblue" d="M2690.75,-181.397C2689.78,-165.15 2685.59,-134.085 2668,-116 2598.18,-44.2008 2275.63,-19.0766 2171.51,-12.7579"/>
<polygon fill="midnightblue" stroke="midnightblue" points="2171.48,-9.2505 2161.29,-12.1565 2171.07,-16.2384 2171.48,-9.2505"/>
</g>
<!-- Node33&#45;&gt;Node12 -->
<g id="edge104" class="edge"><title>Node33&#45;&gt;Node12</title>
<path fill="none" stroke="midnightblue" d="M2643.3,-190.284C2514.55,-185.364 2149.3,-169.497 1847,-138 1835.1,-136.76 1822.21,-135.039 1810.48,-133.325"/>
<polygon fill="midnightblue" stroke="midnightblue" points="1810.94,-129.854 1800.53,-131.833 1809.9,-136.777 1810.94,-129.854"/>
</g>
<!-- Node33&#45;&gt;Node15 -->
<g id="edge106" class="edge"><title>Node33&#45;&gt;Node15</title>
<path fill="none" stroke="midnightblue" d="M2643.24,-189.898C2557.77,-186.2 2372.99,-178.498 2217,-174 1405.18,-150.589 1199.88,-198.82 390,-138 372.363,-136.676 352.762,-134.168 336.932,-131.882"/>
<polygon fill="midnightblue" stroke="midnightblue" points="337.053,-128.361 326.646,-130.351 336.022,-135.285 337.053,-128.361"/>
</g>
<!-- Node33&#45;&gt;Node28 -->
<g id="edge108" class="edge"><title>Node33&#45;&gt;Node28</title>
<path fill="none" stroke="midnightblue" d="M2676.47,-181.267C2662.63,-171.044 2641.59,-155.504 2625.57,-143.67"/>
<polygon fill="midnightblue" stroke="midnightblue" points="2627.38,-140.66 2617.26,-137.534 2623.23,-146.29 2627.38,-140.66"/>
</g>
<!-- Node33&#45;&gt;Node30 -->
<g id="edge102" class="edge"><title>Node33&#45;&gt;Node30</title>
<path fill="none" stroke="midnightblue" d="M2664.94,-181.412C2637.33,-170.197 2593.68,-152.466 2563.77,-140.312"/>
<polygon fill="midnightblue" stroke="midnightblue" points="2564.77,-136.943 2554.19,-136.421 2562.14,-143.428 2564.77,-136.943"/>
</g>
<!-- Node34 -->
<g id="node80" class="node"><title>Node34</title>
<a xlink:href="vec3_8h.html" target="_top" xlink:title="base/vec/vec3.h">
<polygon fill="white" stroke="black" points="2889.5,-116.5 2889.5,-137.5 2978.5,-137.5 2978.5,-116.5 2889.5,-116.5"/>
<text text-anchor="middle" x="2934" y="-124.5" font-family="Helvetica,sans-Serif" font-size="10.00">base/vec/vec3.h</text>
</a>
</g>
<!-- Node33&#45;&gt;Node34 -->
<g id="edge92" class="edge"><title>Node33&#45;&gt;Node34</title>
<path fill="none" stroke="midnightblue" d="M2722.58,-181.455C2730.52,-178.912 2739.05,-176.275 2747,-174 2791.13,-161.377 2841.63,-148.793 2879.02,-139.828"/>
<polygon fill="midnightblue" stroke="midnightblue" points="2880.28,-143.124 2889.2,-137.398 2878.66,-136.315 2880.28,-143.124"/>
</g>
<!-- Node34&#45;&gt;Node7 -->
<g id="edge94" class="edge"><title>Node34&#45;&gt;Node7</title>
<path fill="none" stroke="midnightblue" d="M2889.18,-120.807C2874.49,-118.985 2858.07,-117.169 2843,-116 2380.56,-80.1358 2263.11,-105.793 1800,-80 1765.68,-78.0886 1726.79,-75.0399 1698.24,-72.6364"/>
<polygon fill="midnightblue" stroke="midnightblue" points="1698.48,-69.1441 1688.22,-71.7834 1697.89,-76.1189 1698.48,-69.1441"/>
</g>
<!-- Node35 -->
<g id="node83" class="node"><title>Node35</title>
<a xlink:href="vec2_8h.html" target="_top" xlink:title="vec2.h">
<polygon fill="white" stroke="black" points="2894,-58.5 2894,-79.5 2940,-79.5 2940,-58.5 2894,-58.5"/>
<text text-anchor="middle" x="2917" y="-66.5" font-family="Helvetica,sans-Serif" font-size="10.00">vec2.h</text>
</a>
</g>
<!-- Node34&#45;&gt;Node35 -->
<g id="edge96" class="edge"><title>Node34&#45;&gt;Node35</title>
<path fill="none" stroke="midnightblue" d="M2930.88,-116.362C2928.68,-108.84 2925.65,-98.5187 2922.99,-89.4308"/>
<polygon fill="midnightblue" stroke="midnightblue" points="2926.27,-88.1825 2920.1,-79.5707 2919.55,-90.1514 2926.27,-88.1825"/>
</g>
<!-- Node34&#45;&gt;Node36 -->
<g id="edge100" class="edge"><title>Node34&#45;&gt;Node36</title>
<path fill="none" stroke="midnightblue" d="M2938.42,-116.401C2942.08,-107.021 2947,-92.8641 2949,-80 2951.51,-63.8531 2949.4,-45.4337 2946.85,-31.6895"/>
<polygon fill="midnightblue" stroke="midnightblue" points="2950.26,-30.8814 2944.8,-21.802 2943.4,-32.3048 2950.26,-30.8814"/>
</g>
<!-- Node35&#45;&gt;Node36 -->
<g id="edge98" class="edge"><title>Node35&#45;&gt;Node36</title>
<path fill="none" stroke="midnightblue" d="M2921.59,-58.3619C2924.9,-50.6766 2929.47,-40.0686 2933.45,-30.8399"/>
<polygon fill="midnightblue" stroke="midnightblue" points="2936.7,-32.1393 2937.44,-21.5707 2930.27,-29.3685 2936.7,-32.1393"/>
</g>
<!-- Node37&#45;&gt;Node7 -->
<g id="edge122" class="edge"><title>Node37&#45;&gt;Node7</title>
<path fill="none" stroke="midnightblue" d="M1644.5,-362.47C1614.14,-346.816 1561.48,-314.206 1541,-268 1537.04,-259.061 1536.97,-254.907 1541,-246 1551,-223.909 1565.22,-227.507 1582,-210 1610.43,-180.334 1621.76,-174.823 1640,-138 1647.52,-122.821 1651.86,-104.076 1654.27,-89.9571"/>
<polygon fill="midnightblue" stroke="midnightblue" points="1657.78,-90.1937 1655.82,-79.7818 1650.86,-89.1435 1657.78,-90.1937"/>
</g>
<!-- Node37&#45;&gt;Node22 -->
<g id="edge118" class="edge"><title>Node37&#45;&gt;Node22</title>
<path fill="none" stroke="midnightblue" d="M1671.59,-362.362C1674.9,-354.677 1679.47,-344.069 1683.45,-334.84"/>
<polygon fill="midnightblue" stroke="midnightblue" points="1686.7,-336.139 1687.44,-325.571 1680.27,-333.368 1686.7,-336.139"/>
</g>
<!-- Node37&#45;&gt;Node23 -->
<g id="edge120" class="edge"><title>Node37&#45;&gt;Node23</title>
<path fill="none" stroke="midnightblue" d="M1683.61,-362.295C1715.3,-341.871 1784.56,-297.238 1821.92,-273.162"/>
<polygon fill="midnightblue" stroke="midnightblue" points="1824.18,-275.871 1830.69,-267.512 1820.39,-269.987 1824.18,-275.871"/>
</g>
<!-- Node37&#45;&gt;Node29 -->
<g id="edge126" class="edge"><title>Node37&#45;&gt;Node29</title>
<path fill="none" stroke="midnightblue" d="M1657.96,-362.295C1641.26,-342.527 1605.4,-300.08 1584.67,-275.544"/>
<polygon fill="midnightblue" stroke="midnightblue" points="1587.15,-273.059 1578.02,-267.679 1581.8,-277.577 1587.15,-273.059"/>
</g>
<!-- Node37&#45;&gt;Node30 -->
<g id="edge124" class="edge"><title>Node37&#45;&gt;Node30</title>
<path fill="none" stroke="midnightblue" d="M1709.47,-371.455C1854.07,-366.027 2321.8,-347.015 2386,-326 2397.4,-322.27 2467.15,-274.834 2477,-268 2512.2,-243.579 2534.88,-248.341 2554,-210 2564.25,-189.452 2553.93,-163.69 2544.02,-146.363"/>
<polygon fill="midnightblue" stroke="midnightblue" points="2546.91,-144.382 2538.7,-137.692 2540.95,-148.045 2546.91,-144.382"/>
</g>
<!-- Node38&#45;&gt;Node7 -->
<g id="edge156" class="edge"><title>Node38&#45;&gt;Node7</title>
<path fill="none" stroke="midnightblue" d="M858.398,-250.051C826.806,-243.823 788.248,-232.078 760,-210 723.803,-181.709 685.336,-149.287 717,-116 748.385,-83.0069 1438.03,-71.8335 1615.6,-69.4982"/>
<polygon fill="midnightblue" stroke="midnightblue" points="1615.88,-72.995 1625.83,-69.366 1615.79,-65.9956 1615.88,-72.995"/>
</g>
<!-- Node39 -->
<g id="node104" class="node"><title>Node39</title>
<a xlink:href="_format_8h.html" target="_top" xlink:title="base/Format.h">
<polygon fill="white" stroke="black" points="1356,-181.5 1356,-202.5 1436,-202.5 1436,-181.5 1356,-181.5"/>
<text text-anchor="middle" x="1396" y="-189.5" font-family="Helvetica,sans-Serif" font-size="10.00">base/Format.h</text>
</a>
</g>
<!-- Node38&#45;&gt;Node39 -->
<g id="edge130" class="edge"><title>Node38&#45;&gt;Node39</title>
<path fill="none" stroke="midnightblue" d="M971.629,-252.564C1071.98,-244.417 1277.04,-226.397 1347,-210 1351.72,-208.895 1356.6,-207.467 1361.37,-205.899"/>
<polygon fill="midnightblue" stroke="midnightblue" points="1362.65,-209.158 1370.93,-202.542 1360.33,-202.554 1362.65,-209.158"/>
</g>
<!-- Node39&#45;&gt;Node8 -->
<g id="edge154" class="edge"><title>Node39&#45;&gt;Node8</title>
<path fill="none" stroke="midnightblue" d="M1404.27,-181.307C1417.2,-165.221 1443.65,-134.695 1472,-116 1529.95,-77.7911 1549.5,-74.1716 1617,-58 1710.91,-35.4997 2007.97,-17.9992 2106.72,-12.6764"/>
<polygon fill="midnightblue" stroke="midnightblue" points="2106.91,-16.1715 2116.71,-12.1434 2106.54,-9.18149 2106.91,-16.1715"/>
</g>
<!-- Node39&#45;&gt;Node11 -->
<g id="edge144" class="edge"><title>Node39&#45;&gt;Node11</title>
<path fill="none" stroke="midnightblue" d="M1436.1,-182.649C1450.79,-179.505 1467.58,-176.232 1483,-174 1672.8,-146.522 1722.48,-159.926 1913,-138 1925.03,-136.615 1938.11,-134.804 1949.92,-133.053"/>
<polygon fill="midnightblue" stroke="midnightblue" points="1950.55,-136.497 1959.92,-131.541 1949.51,-129.575 1950.55,-136.497"/>
</g>
<!-- Node39&#45;&gt;Node12 -->
<g id="edge148" class="edge"><title>Node39&#45;&gt;Node12</title>
<path fill="none" stroke="midnightblue" d="M1436.21,-183.311C1450.91,-180.233 1467.68,-176.833 1483,-174 1571.45,-157.64 1675.75,-141.364 1731.36,-132.926"/>
<polygon fill="midnightblue" stroke="midnightblue" points="1732.13,-136.35 1741.49,-131.394 1731.08,-129.429 1732.13,-136.35"/>
</g>
<!-- Node39&#45;&gt;Node13 -->
<g id="edge146" class="edge"><title>Node39&#45;&gt;Node13</title>
<path fill="none" stroke="midnightblue" d="M1409.2,-181.405C1430.91,-164.584 1476.13,-132.035 1520,-116 1571.04,-97.3464 1731.35,-79.1122 1798.72,-72.0589"/>
<polygon fill="midnightblue" stroke="midnightblue" points="1799.11,-75.5367 1808.7,-71.0246 1798.39,-68.574 1799.11,-75.5367"/>
</g>
<!-- Node39&#45;&gt;Node15 -->
<g id="edge150" class="edge"><title>Node39&#45;&gt;Node15</title>
<path fill="none" stroke="midnightblue" d="M1372.01,-181.48C1364.18,-178.514 1355.36,-175.649 1347,-174 1138.21,-132.8 602.068,-155.836 390,-138 372.376,-136.518 352.775,-134.001 336.943,-131.749"/>
<polygon fill="midnightblue" stroke="midnightblue" points="337.055,-128.228 326.655,-130.247 336.045,-135.155 337.055,-128.228"/>
</g>
<!-- Node39&#45;&gt;Node25 -->
<g id="edge152" class="edge"><title>Node39&#45;&gt;Node25</title>
<path fill="none" stroke="midnightblue" d="M1436.07,-182.381C1450.75,-179.209 1467.55,-175.988 1483,-174 1655.41,-151.819 2204.46,-132.912 2351.49,-128.153"/>
<polygon fill="midnightblue" stroke="midnightblue" points="2351.88,-131.643 2361.76,-127.823 2351.65,-124.646 2351.88,-131.643"/>
</g>
<!-- Node39&#45;&gt;Node36 -->
<g id="edge138" class="edge"><title>Node39&#45;&gt;Node36</title>
<path fill="none" stroke="midnightblue" d="M1419.74,-181.426C1443.32,-170.812 1480.42,-153.81 1512,-138 1530.49,-128.744 1533.15,-121.794 1553,-116 1620.35,-96.3425 2707.37,-26.0172 2909.71,-13.0599"/>
<polygon fill="midnightblue" stroke="midnightblue" points="2910.22,-16.535 2919.97,-12.4036 2909.77,-9.5493 2910.22,-16.535"/>
</g>
<!-- Node40 -->
<g id="node106" class="node"><title>Node40</title>
<polygon fill="white" stroke="#bfbfbf" points="1159.5,-116.5 1159.5,-137.5 1238.5,-137.5 1238.5,-116.5 1159.5,-116.5"/>
<text text-anchor="middle" x="1199" y="-124.5" font-family="Helvetica,sans-Serif" font-size="10.00">detail/format.h</text>
</g>
<!-- Node39&#45;&gt;Node40 -->
<g id="edge132" class="edge"><title>Node39&#45;&gt;Node40</title>
<path fill="none" stroke="midnightblue" d="M1367.83,-181.409C1361.03,-178.92 1353.77,-176.318 1347,-174 1312.4,-162.157 1272.91,-149.666 1243.42,-140.541"/>
<polygon fill="midnightblue" stroke="midnightblue" points="1244.42,-137.185 1233.83,-137.581 1242.36,-143.874 1244.42,-137.185"/>
</g>
<!-- Node41 -->
<g id="node108" class="node"><title>Node41</title>
<polygon fill="white" stroke="#bfbfbf" points="1255.5,-116.5 1255.5,-137.5 1304.5,-137.5 1304.5,-116.5 1255.5,-116.5"/>
<text text-anchor="middle" x="1280" y="-124.5" font-family="Helvetica,sans-Serif" font-size="10.00">stdint.h</text>
</g>
<!-- Node39&#45;&gt;Node41 -->
<g id="edge134" class="edge"><title>Node39&#45;&gt;Node41</title>
<path fill="none" stroke="midnightblue" d="M1377.1,-181.412C1358.31,-170.883 1329.27,-154.611 1307.84,-142.602"/>
<polygon fill="midnightblue" stroke="midnightblue" points="1309.32,-139.419 1298.89,-137.584 1305.9,-145.525 1309.32,-139.419"/>
</g>
<!-- Node42 -->
<g id="node110" class="node"><title>Node42</title>
<polygon fill="white" stroke="#bfbfbf" points="1093.5,-116.5 1093.5,-137.5 1142.5,-137.5 1142.5,-116.5 1093.5,-116.5"/>
<text text-anchor="middle" x="1118" y="-124.5" font-family="Helvetica,sans-Serif" font-size="10.00">cassert</text>
</g>
<!-- Node39&#45;&gt;Node42 -->
<g id="edge136" class="edge"><title>Node39&#45;&gt;Node42</title>
<path fill="none" stroke="midnightblue" d="M1369.82,-181.448C1362.51,-178.761 1354.52,-176.055 1347,-174 1264.65,-151.489 1238.65,-159.421 1152.68,-138.18"/>
<polygon fill="midnightblue" stroke="midnightblue" points="1153.31,-134.729 1142.76,-135.665 1151.59,-141.514 1153.31,-134.729"/>
</g>
<!-- Node43 -->
<g id="node113" class="node"><title>Node43</title>
<polygon fill="white" stroke="#bfbfbf" points="1321.5,-116.5 1321.5,-137.5 1370.5,-137.5 1370.5,-116.5 1321.5,-116.5"/>
<text text-anchor="middle" x="1346" y="-124.5" font-family="Helvetica,sans-Serif" font-size="10.00">cstddef</text>
</g>
<!-- Node39&#45;&gt;Node43 -->
<g id="edge140" class="edge"><title>Node39&#45;&gt;Node43</title>
<path fill="none" stroke="midnightblue" d="M1387.74,-181.267C1380.32,-171.612 1369.24,-157.215 1360.37,-145.675"/>
<polygon fill="midnightblue" stroke="midnightblue" points="1362.97,-143.326 1354.1,-137.534 1357.43,-147.594 1362.97,-143.326"/>
</g>
<!-- Node44 -->
<g id="node115" class="node"><title>Node44</title>
<polygon fill="white" stroke="#bfbfbf" points="1387.5,-116.5 1387.5,-137.5 1430.5,-137.5 1430.5,-116.5 1387.5,-116.5"/>
<text text-anchor="middle" x="1409" y="-124.5" font-family="Helvetica,sans-Serif" font-size="10.00">cstdio</text>
</g>
<!-- Node39&#45;&gt;Node44 -->
<g id="edge142" class="edge"><title>Node39&#45;&gt;Node44</title>
<path fill="none" stroke="midnightblue" d="M1398.15,-181.267C1399.98,-172.085 1402.68,-158.615 1404.92,-147.392"/>
<polygon fill="midnightblue" stroke="midnightblue" points="1408.36,-148.026 1406.89,-137.534 1401.5,-146.653 1408.36,-148.026"/>
</g>
<!-- Node45&#45;&gt;Node7 -->
<g id="edge162" class="edge"><title>Node45&#45;&gt;Node7</title>
<path fill="none" stroke="midnightblue" d="M2453.7,-367.905C2403.73,-360.45 2318.5,-345.331 2294,-326 2234.55,-279.089 2275.04,-222.649 2217,-174 2148.68,-116.735 2112.18,-134.6 2025,-116 1908.11,-91.061 1767.31,-77.5812 1698.69,-72.0518"/>
<polygon fill="midnightblue" stroke="midnightblue" points="1698.56,-68.5304 1688.31,-71.2321 1698,-75.5087 1698.56,-68.5304"/>
</g>
<!-- Node45&#45;&gt;Node8 -->
<g id="edge168" class="edge"><title>Node45&#45;&gt;Node8</title>
<path fill="none" stroke="midnightblue" d="M2528.3,-368.572C2623.35,-356.613 2871.52,-320.953 2933,-268 2987.32,-221.212 3007.5,-184.698 2987,-116 2978.19,-86.4692 2975.68,-73.4296 2949,-58 2880.89,-18.6063 2314.67,-12.1747 2171.69,-11.1758"/>
<polygon fill="midnightblue" stroke="midnightblue" points="2171.42,-7.67401 2161.39,-11.1083 2171.37,-14.6739 2171.42,-7.67401"/>
</g>
<!-- Node45&#45;&gt;Node22 -->
<g id="edge160" class="edge"><title>Node45&#45;&gt;Node22</title>
<path fill="none" stroke="midnightblue" d="M2453.8,-370.3C2317.6,-360.413 1847.6,-326.295 1722.69,-317.228"/>
<polygon fill="midnightblue" stroke="midnightblue" points="1722.89,-313.733 1712.66,-316.5 1722.38,-320.715 1722.89,-313.733"/>
</g>
<!-- Node45&#45;&gt;Node25 -->
<g id="edge172" class="edge"><title>Node45&#45;&gt;Node25</title>
<path fill="none" stroke="midnightblue" d="M2514.91,-362.451C2538.67,-350.309 2569.96,-328.819 2558,-304 2528.89,-243.597 2484.66,-260.013 2440,-210 2422.67,-190.597 2407.49,-164.745 2398.07,-147.08"/>
<polygon fill="midnightblue" stroke="midnightblue" points="2400.93,-144.999 2393.22,-137.736 2394.72,-148.224 2400.93,-144.999"/>
</g>
<!-- Node45&#45;&gt;Node31 -->
<g id="edge170" class="edge"><title>Node45&#45;&gt;Node31</title>
<path fill="none" stroke="midnightblue" d="M2528.22,-364.291C2597.51,-347.287 2742.11,-307.838 2773,-268 2785.02,-252.496 2785.83,-229.545 2784.36,-212.923"/>
<polygon fill="midnightblue" stroke="midnightblue" points="2787.78,-212.095 2783.09,-202.597 2780.84,-212.949 2787.78,-212.095"/>
</g>
<!-- Node46 -->
<g id="node128" class="node"><title>Node46</title>
<a xlink:href="_lorentz_vec_8h.html" target="_top" xlink:title="base/vec/LorentzVec.h">
<polygon fill="white" stroke="black" points="2432.5,-304.5 2432.5,-325.5 2549.5,-325.5 2549.5,-304.5 2432.5,-304.5"/>
<text text-anchor="middle" x="2491" y="-312.5" font-family="Helvetica,sans-Serif" font-size="10.00">base/vec/LorentzVec.h</text>
</a>
</g>
<!-- Node45&#45;&gt;Node46 -->
<g id="edge164" class="edge"><title>Node45&#45;&gt;Node46</title>
<path fill="none" stroke="midnightblue" d="M2491,-362.362C2491,-354.922 2491,-344.743 2491,-335.728"/>
<polygon fill="midnightblue" stroke="midnightblue" points="2494.5,-335.571 2491,-325.571 2487.5,-335.571 2494.5,-335.571"/>
</g>
<!-- Node46&#45;&gt;Node34 -->
<g id="edge166" class="edge"><title>Node46&#45;&gt;Node34</title>
<path fill="none" stroke="midnightblue" d="M2549.86,-312.342C2659.51,-306.828 2886.33,-292.571 2912,-268 2944.52,-236.872 2941.96,-178.907 2937.73,-147.877"/>
<polygon fill="midnightblue" stroke="midnightblue" points="2941.16,-147.108 2936.16,-137.763 2934.24,-148.182 2941.16,-147.108"/>
</g>
<!-- Node47&#45;&gt;Node7 -->
<g id="edge178" class="edge"><title>Node47&#45;&gt;Node7</title>
<path fill="none" stroke="midnightblue" d="M982.051,-181.384C975.616,-178.758 968.608,-176.099 962,-174 891.501,-151.607 755.158,-169.728 806,-116 834.114,-86.2905 1448.7,-72.8371 1615.53,-69.7243"/>
<polygon fill="midnightblue" stroke="midnightblue" points="1615.93,-73.2177 1625.86,-69.5342 1615.8,-66.2189 1615.93,-73.2177"/>
</g>
<!-- Node47&#45;&gt;Node10 -->
<g id="edge176" class="edge"><title>Node47&#45;&gt;Node10</title>
<path fill="none" stroke="midnightblue" d="M1036.53,-183.851C1050.59,-180.36 1067.55,-176.515 1083,-174 1173.73,-159.228 1453.11,-137.136 1551.38,-129.615"/>
<polygon fill="midnightblue" stroke="midnightblue" points="1551.67,-133.103 1561.38,-128.852 1551.14,-126.123 1551.67,-133.103"/>
</g>
<!-- Node47&#45;&gt;Node13 -->
<g id="edge182" class="edge"><title>Node47&#45;&gt;Node13</title>
<path fill="none" stroke="midnightblue" d="M981.505,-181.455C975.198,-178.885 968.388,-176.235 962,-174 904.951,-154.042 797.168,-159.624 839,-116 872.02,-81.5651 1649.38,-82.9816 1697,-80 1731.9,-77.8148 1771.91,-74.3448 1798.64,-71.8872"/>
<polygon fill="midnightblue" stroke="midnightblue" points="1799.26,-75.3453 1808.89,-70.935 1798.61,-68.3753 1799.26,-75.3453"/>
</g>
<!-- Node47&#45;&gt;Node17 -->
<g id="edge184" class="edge"><title>Node47&#45;&gt;Node17</title>
<path fill="none" stroke="midnightblue" d="M984.498,-181.412C962.828,-170.741 929.179,-154.172 904.705,-142.12"/>
<polygon fill="midnightblue" stroke="midnightblue" points="906.01,-138.861 895.493,-137.584 902.918,-145.141 906.01,-138.861"/>
</g>
<!-- Node47&#45;&gt;Node18 -->
<g id="edge180" class="edge"><title>Node47&#45;&gt;Node18</title>
<path fill="none" stroke="midnightblue" d="M982.569,-181.377C976.01,-178.69 968.81,-176.002 962,-174 877.865,-149.268 852.305,-162.143 768,-138 766.757,-137.644 765.493,-137.254 764.223,-136.84"/>
<polygon fill="midnightblue" stroke="midnightblue" points="765.234,-133.484 754.64,-133.359 762.845,-140.063 765.234,-133.484"/>
</g>
<!-- Node48&#45;&gt;Node7 -->
<g id="edge190" class="edge"><title>Node48&#45;&gt;Node7</title>
<path fill="none" stroke="midnightblue" d="M1549.5,-181.395C1570.69,-172.395 1599.22,-157.782 1619,-138 1632.98,-124.013 1643.3,-103.808 1649.62,-88.8741"/>
<polygon fill="midnightblue" stroke="midnightblue" points="1652.9,-90.1038 1653.36,-79.5189 1646.4,-87.5061 1652.9,-90.1038"/>
</g>
<!-- Node48&#45;&gt;Node10 -->
<g id="edge188" class="edge"><title>Node48&#45;&gt;Node10</title>
<path fill="none" stroke="midnightblue" d="M1531.73,-181.267C1541.67,-171.328 1556.64,-156.363 1568.34,-144.664"/>
<polygon fill="midnightblue" stroke="midnightblue" points="1570.87,-147.08 1575.47,-137.534 1565.92,-142.13 1570.87,-147.08"/>
</g>
<!-- Node48&#45;&gt;Node17 -->
<g id="edge202" class="edge"><title>Node48&#45;&gt;Node17</title>
<path fill="none" stroke="midnightblue" d="M1491.26,-183.752C1477.32,-180.196 1460.42,-176.327 1445,-174 1212.14,-138.852 1145.47,-180.922 910.089,-137.812"/>
<polygon fill="midnightblue" stroke="midnightblue" points="910.675,-134.361 900.203,-135.97 909.393,-141.242 910.675,-134.361"/>
</g>
<!-- Node48&#45;&gt;Node18 -->
<g id="edge200" class="edge"><title>Node48&#45;&gt;Node18</title>
<path fill="none" stroke="midnightblue" d="M1491.27,-183.697C1477.33,-180.13 1460.43,-176.268 1445,-174 1178.06,-134.762 1107.83,-160.905 839,-138 813.703,-135.845 784.861,-132.544 764.86,-130.12"/>
<polygon fill="midnightblue" stroke="midnightblue" points="765.089,-126.622 754.737,-128.877 764.235,-133.57 765.089,-126.622"/>
</g>
<!-- Node48&#45;&gt;Node34 -->
<g id="edge198" class="edge"><title>Node48&#45;&gt;Node34</title>
<path fill="none" stroke="midnightblue" d="M1550.57,-188.619C1587.91,-184.485 1654.12,-177.595 1711,-174 2213.36,-142.247 2341.09,-176.241 2843,-138 2854.66,-137.112 2867.12,-135.827 2878.97,-134.447"/>
<polygon fill="midnightblue" stroke="midnightblue" points="2879.67,-137.888 2889.18,-133.217 2878.83,-130.938 2879.67,-137.888"/>
</g>
<!-- Node48&#45;&gt;Node49 -->
<g id="edge192" class="edge"><title>Node48&#45;&gt;Node49</title>
<path fill="none" stroke="midnightblue" d="M1550.58,-188.682C1587.91,-184.612 1654.14,-177.789 1711,-174 2124.61,-146.441 2229.19,-162.474 2643,-138 2667.45,-136.554 2694.31,-134.516 2717.78,-132.586"/>
<polygon fill="midnightblue" stroke="midnightblue" points="2718.28,-136.056 2727.95,-131.739 2717.7,-129.081 2718.28,-136.056"/>
</g>
<!-- Node49&#45;&gt;Node13 -->
<g id="edge196" class="edge"><title>Node49&#45;&gt;Node13</title>
<path fill="none" stroke="midnightblue" d="M2727.9,-120.927C2711.3,-119.165 2692.9,-117.353 2676,-116 2356.69,-90.4303 1968.54,-74.382 1859.03,-70.134"/>
<polygon fill="midnightblue" stroke="midnightblue" points="1859.16,-66.6364 1849.03,-69.749 1858.89,-73.6312 1859.16,-66.6364"/>
</g>
<!-- Node49&#45;&gt;Node36 -->
<g id="edge194" class="edge"><title>Node49&#45;&gt;Node36</title>
<path fill="none" stroke="midnightblue" d="M2795.86,-116.295C2824.01,-96.0092 2885.32,-51.8403 2918.89,-27.6534"/>
<polygon fill="midnightblue" stroke="midnightblue" points="2921.11,-30.3647 2927.18,-21.6792 2917.02,-24.6852 2921.11,-30.3647"/>
</g>
<!-- Node50&#45;&gt;Node8 -->
<g id="edge222" class="edge"><title>Node50&#45;&gt;Node8</title>
<path fill="none" stroke="midnightblue" d="M2873.33,-246.404C2875.96,-220.286 2878.79,-152.306 2843,-116 2794.95,-67.2657 2302.92,-24.251 2171.25,-13.5487"/>
<polygon fill="midnightblue" stroke="midnightblue" points="2171.27,-10.0388 2161.02,-12.7233 2170.71,-17.0161 2171.27,-10.0388"/>
</g>
<!-- Node50&#45;&gt;Node17 -->
<g id="edge230" class="edge"><title>Node50&#45;&gt;Node17</title>
<path fill="none" stroke="midnightblue" d="M2840.76,-254.34C2809.67,-251.793 2760.57,-248.045 2718,-246 2637.12,-242.115 1336.75,-238.589 1261,-210 1237.68,-201.2 1240.89,-183.855 1218,-174 1093.98,-120.613 1046.45,-164.684 910.198,-137.882"/>
<polygon fill="midnightblue" stroke="midnightblue" points="910.732,-134.419 900.231,-135.828 909.319,-141.275 910.732,-134.419"/>
</g>
<!-- Node50&#45;&gt;Node25 -->
<g id="edge228" class="edge"><title>Node50&#45;&gt;Node25</title>
<path fill="none" stroke="midnightblue" d="M2840.65,-252.102C2795.01,-244.675 2707.76,-229.355 2635,-210 2558.68,-189.698 2471.58,-158.486 2423.9,-140.685"/>
<polygon fill="midnightblue" stroke="midnightblue" points="2424.93,-137.335 2414.34,-137.099 2422.47,-143.889 2424.93,-137.335"/>
</g>
<!-- Node50&#45;&gt;Node31 -->
<g id="edge226" class="edge"><title>Node50&#45;&gt;Node31</title>
<path fill="none" stroke="midnightblue" d="M2856.97,-246.267C2842.66,-236.044 2820.91,-220.504 2804.34,-208.67"/>
<polygon fill="midnightblue" stroke="midnightblue" points="2805.92,-205.498 2795.75,-202.534 2801.85,-211.194 2805.92,-205.498"/>
</g>
<!-- Node50&#45;&gt;Node33 -->
<g id="edge206" class="edge"><title>Node50&#45;&gt;Node33</title>
<path fill="none" stroke="midnightblue" d="M2842.52,-246.412C2811.88,-235.411 2763.79,-218.14 2730.02,-206.013"/>
<polygon fill="midnightblue" stroke="midnightblue" points="2731.07,-202.669 2720.47,-202.584 2728.7,-209.257 2731.07,-202.669"/>
</g>
<!-- Node50&#45;&gt;Node34 -->
<g id="edge220" class="edge"><title>Node50&#45;&gt;Node34</title>
<path fill="none" stroke="midnightblue" d="M2877.07,-246.362C2887.43,-224.65 2911.14,-174.937 2924.46,-147"/>
<polygon fill="midnightblue" stroke="midnightblue" points="2927.71,-148.318 2928.86,-137.785 2921.39,-145.305 2927.71,-148.318"/>
</g>
<!-- Node50&#45;&gt;Node36 -->
<g id="edge224" class="edge"><title>Node50&#45;&gt;Node36</title>
<path fill="none" stroke="midnightblue" d="M2888.6,-246.286C2915.34,-227.914 2966.97,-187.544 2987,-138 3002.3,-100.143 2975.81,-54.8633 2957.41,-29.8862"/>
<polygon fill="midnightblue" stroke="midnightblue" points="2959.96,-27.4536 2951.09,-21.654 2954.4,-31.717 2959.96,-27.4536"/>
</g>
<!-- Node50&#45;&gt;Node49 -->
<g id="edge208" class="edge"><title>Node50&#45;&gt;Node49</title>
<path fill="none" stroke="midnightblue" d="M2864.88,-246.461C2854.18,-230.644 2833.23,-199.86 2815,-174 2808.45,-164.714 2801.07,-154.485 2794.87,-145.948"/>
<polygon fill="midnightblue" stroke="midnightblue" points="2797.63,-143.792 2788.91,-137.773 2791.97,-147.916 2797.63,-143.792"/>
</g>
<!-- Node51 -->
<g id="node156" class="node"><title>Node51</title>
<a xlink:href="shared__ptr__container_8h.html" target="_top" xlink:title="base/std_ext/shared\l_ptr_container.h">
<polygon fill="white" stroke="black" points="1939.5,-175 1939.5,-209 2044.5,-209 2044.5,-175 1939.5,-175"/>
<text text-anchor="start" x="1947.5" y="-196" font-family="Helvetica,sans-Serif" font-size="10.00">base/std_ext/shared</text>
<text text-anchor="middle" x="1992" y="-183" font-family="Helvetica,sans-Serif" font-size="10.00">_ptr_container.h</text>
</a>
</g>
<!-- Node50&#45;&gt;Node51 -->
<g id="edge210" class="edge"><title>Node50&#45;&gt;Node51</title>
<path fill="none" stroke="midnightblue" d="M2840.74,-254.639C2809.64,-252.32 2760.53,-248.74 2718,-246 2439.45,-228.056 2368.16,-243.028 2091,-210 2079.21,-208.595 2066.7,-206.667 2054.69,-204.593"/>
<polygon fill="midnightblue" stroke="midnightblue" points="2055.2,-201.129 2044.74,-202.825 2053.97,-208.021 2055.2,-201.129"/>
</g>
<!-- Node51&#45;&gt;Node8 -->
<g id="edge212" class="edge"><title>Node51&#45;&gt;Node8</title>
<path fill="none" stroke="midnightblue" d="M2005.83,-174.972C2033.37,-141.061 2094.89,-65.3134 2123.64,-29.9126"/>
<polygon fill="midnightblue" stroke="midnightblue" points="2126.62,-31.8007 2130.2,-21.8317 2121.18,-27.3877 2126.62,-31.8007"/>
</g>
<!-- Node51&#45;&gt;Node11 -->
<g id="edge218" class="edge"><title>Node51&#45;&gt;Node11</title>
<path fill="none" stroke="midnightblue" d="M1990.95,-174.922C1990.44,-166.67 1989.83,-156.692 1989.29,-147.982"/>
<polygon fill="midnightblue" stroke="midnightblue" points="1992.78,-147.618 1988.67,-137.852 1985.79,-148.048 1992.78,-147.618"/>
</g>
<!-- Node51&#45;&gt;Node17 -->
<g id="edge214" class="edge"><title>Node51&#45;&gt;Node17</title>
<path fill="none" stroke="midnightblue" d="M1939.29,-175.563C1936.5,-174.971 1933.72,-174.443 1931,-174 1485.67,-101.641 1358.82,-213.176 910.17,-137.762"/>
<polygon fill="midnightblue" stroke="midnightblue" points="910.632,-134.291 900.186,-136.062 909.457,-141.191 910.632,-134.291"/>
</g>
<!-- Node51&#45;&gt;Node52 -->
<g id="edge216" class="edge"><title>Node51&#45;&gt;Node52</title>
<path fill="none" stroke="midnightblue" d="M1939.29,-175.527C1936.5,-174.944 1933.73,-174.428 1931,-174 1290.88,-73.4841 1111.52,-235.692 467.699,-137.915"/>
<polygon fill="midnightblue" stroke="midnightblue" points="468.123,-134.44 457.708,-136.383 467.062,-141.359 468.123,-134.44"/>
</g>
<!-- Node53&#45;&gt;Node8 -->
<g id="edge238" class="edge"><title>Node53&#45;&gt;Node8</title>
<path fill="none" stroke="midnightblue" d="M2351.43,-304.282C2383.29,-273.092 2467.93,-180.507 2423,-116 2393.2,-73.211 2239.03,-33.6833 2171.15,-18.059"/>
<polygon fill="midnightblue" stroke="midnightblue" points="2171.56,-14.5619 2161.03,-15.7597 2170,-21.388 2171.56,-14.5619"/>
</g>
<!-- Node53&#45;&gt;Node11 -->
<g id="edge246" class="edge"><title>Node53&#45;&gt;Node11</title>
<path fill="none" stroke="midnightblue" d="M2334.15,-304.436C2318.79,-277.783 2274.53,-207.547 2217,-174 2185.07,-155.378 2082.63,-139.46 2026.19,-131.827"/>
<polygon fill="midnightblue" stroke="midnightblue" points="2026.59,-128.349 2016.22,-130.499 2025.67,-135.288 2026.59,-128.349"/>
</g>
<!-- Node53&#45;&gt;Node17 -->
<g id="edge244" class="edge"><title>Node53&#45;&gt;Node17</title>
<path fill="none" stroke="midnightblue" d="M2302.38,-312.524C2212.9,-306.477 1980.4,-289.839 1787,-268 1717.42,-260.143 1700.57,-253.932 1631,-246 1539.47,-235.564 1302.02,-247.789 1218,-210 1196.78,-200.457 1201,-184.019 1180,-174 1073.23,-123.054 1029.92,-162.13 910.144,-137.893"/>
<polygon fill="midnightblue" stroke="midnightblue" points="910.752,-134.444 900.242,-135.781 909.292,-141.29 910.752,-134.444"/>
</g>
<!-- Node53&#45;&gt;Node25 -->
<g id="edge242" class="edge"><title>Node53&#45;&gt;Node25</title>
<path fill="none" stroke="midnightblue" d="M2342.72,-304.354C2350.44,-274.107 2372.61,-187.285 2382.78,-147.437"/>
<polygon fill="midnightblue" stroke="midnightblue" points="2386.23,-148.085 2385.31,-137.53 2379.45,-146.353 2386.23,-148.085"/>
</g>
<!-- Node53&#45;&gt;Node31 -->
<g id="edge240" class="edge"><title>Node53&#45;&gt;Node31</title>
<path fill="none" stroke="midnightblue" d="M2377.61,-309.907C2392.1,-307.989 2408.81,-305.83 2424,-304 2496.58,-295.253 2692.9,-312.373 2751,-268 2768.27,-254.809 2775.61,-230.188 2778.73,-212.541"/>
<polygon fill="midnightblue" stroke="midnightblue" points="2782.19,-213.019 2780.17,-202.619 2775.27,-212.012 2782.19,-213.019"/>
</g>
<!-- Node53&#45;&gt;Node33 -->
<g id="edge236" class="edge"><title>Node53&#45;&gt;Node33</title>
<path fill="none" stroke="midnightblue" d="M2371.05,-304.455C2398.84,-294.992 2440.68,-280.68 2477,-268 2538.3,-246.602 2609.28,-221.286 2652.13,-205.946"/>
<polygon fill="midnightblue" stroke="midnightblue" points="2653.38,-209.217 2661.61,-202.55 2651.02,-202.627 2653.38,-209.217"/>
</g>
<!-- Node53&#45;&gt;Node50 -->
<g id="edge234" class="edge"><title>Node53&#45;&gt;Node50</title>
<path fill="none" stroke="midnightblue" d="M2377.6,-309.816C2392.09,-307.886 2408.8,-305.744 2424,-304 2585.95,-285.415 2627.07,-286.711 2789,-268 2802.56,-266.433 2817.34,-264.536 2830.62,-262.761"/>
<polygon fill="midnightblue" stroke="midnightblue" points="2831.45,-266.181 2840.89,-261.373 2830.52,-259.244 2831.45,-266.181"/>
</g>
<!-- Node54&#45;&gt;Node7 -->
<g id="edge252" class="edge"><title>Node54&#45;&gt;Node7</title>
<path fill="none" stroke="midnightblue" d="M1375.77,-370.026C1288.94,-361.36 1043.57,-332.544 850,-268 819.412,-257.801 737.337,-235.021 717,-210 690.316,-177.17 672.829,-146.642 702,-116 733.948,-82.4407 1436.78,-71.6667 1615.8,-69.462"/>
<polygon fill="midnightblue" stroke="midnightblue" points="1615.91,-72.961 1625.87,-69.3403 1615.83,-65.9615 1615.91,-72.961"/>
</g>
<!-- Node54&#45;&gt;Node8 -->
<g id="edge288" class="edge"><title>Node54&#45;&gt;Node8</title>
<path fill="none" stroke="midnightblue" d="M1440.38,-371.792C1578.75,-365.885 2117.84,-335.023 2217,-210 2262.23,-152.968 2192.35,-66.4938 2157.21,-29.1856"/>
<polygon fill="midnightblue" stroke="midnightblue" points="2159.35,-26.3701 2149.89,-21.5985 2154.31,-31.2277 2159.35,-26.3701"/>
</g>
<!-- Node54&#45;&gt;Node10 -->
<g id="edge254" class="edge"><title>Node54&#45;&gt;Node10</title>
<path fill="none" stroke="midnightblue" d="M1410.45,-362.232C1416.46,-338.157 1434.11,-279.467 1470,-246 1501.21,-216.899 1529.9,-241.207 1559,-210 1574.99,-192.849 1581.52,-166.102 1584.18,-147.629"/>
<polygon fill="midnightblue" stroke="midnightblue" points="1587.66,-147.941 1585.36,-137.6 1580.71,-147.121 1587.66,-147.941"/>
</g>
<!-- Node54&#45;&gt;Node17 -->
<g id="edge294" class="edge"><title>Node54&#45;&gt;Node17</title>
<path fill="none" stroke="midnightblue" d="M1383.99,-362.421C1365.14,-353.693 1338.58,-340.436 1317,-326 1250.69,-281.634 1237.51,-265.294 1180,-210 1164.35,-194.957 1166.16,-184.205 1147,-174 1055.44,-125.223 1015.66,-159.865 910.315,-137.951"/>
<polygon fill="midnightblue" stroke="midnightblue" points="910.773,-134.468 900.253,-135.729 909.263,-141.303 910.773,-134.468"/>
</g>
<!-- Node54&#45;&gt;Node18 -->
<g id="edge290" class="edge"><title>Node54&#45;&gt;Node18</title>
<path fill="none" stroke="midnightblue" d="M1375.97,-369.709C1327.03,-364.101 1231.08,-350.814 1153,-326 1072.27,-300.343 1060.63,-271.976 980,-246 899.44,-220.047 863.028,-257.534 793,-210 770.457,-194.698 755.442,-166.284 747.319,-147.012"/>
<polygon fill="midnightblue" stroke="midnightblue" points="750.541,-145.643 743.603,-137.636 744.034,-148.223 750.541,-145.643"/>
</g>
<!-- Node54&#45;&gt;Node46 -->
<g id="edge286" class="edge"><title>Node54&#45;&gt;Node46</title>
<path fill="none" stroke="midnightblue" d="M1440.07,-371.243C1480.92,-369.019 1553.7,-365.104 1616,-362 1958.17,-344.954 2044.38,-351.859 2386,-326 2397.78,-325.108 2410.28,-323.968 2422.4,-322.762"/>
<polygon fill="midnightblue" stroke="midnightblue" points="2422.87,-326.232 2432.46,-321.736 2422.16,-319.268 2422.87,-326.232"/>
</g>
<!-- Node54&#45;&gt;Node53 -->
<g id="edge250" class="edge"><title>Node54&#45;&gt;Node53</title>
<path fill="none" stroke="midnightblue" d="M1440.37,-371.232C1570.88,-364.085 2058.71,-337.184 2213,-326 2239.15,-324.105 2268.29,-321.608 2292.06,-319.472"/>
<polygon fill="midnightblue" stroke="midnightblue" points="2292.59,-322.939 2302.23,-318.551 2291.96,-315.967 2292.59,-322.939"/>
</g>
<!-- Node55 -->
<g id="node183" class="node"><title>Node55</title>
<a xlink:href="_particle_type_8h.html" target="_top" xlink:title="base/ParticleType.h">
<polygon fill="white" stroke="black" points="1065,-246.5 1065,-267.5 1169,-267.5 1169,-246.5 1065,-246.5"/>
<text text-anchor="middle" x="1117" y="-254.5" font-family="Helvetica,sans-Serif" font-size="10.00">base/ParticleType.h</text>
</a>
</g>
<!-- Node54&#45;&gt;Node55 -->
<g id="edge256" class="edge"><title>Node54&#45;&gt;Node55</title>
<path fill="none" stroke="midnightblue" d="M1375.75,-368.667C1321.77,-361.02 1215.8,-344.206 1183,-326 1161.07,-313.826 1142.01,-291.94 1130.08,-276.074"/>
<polygon fill="midnightblue" stroke="midnightblue" points="1132.62,-273.601 1123.92,-267.547 1126.94,-277.702 1132.62,-273.601"/>
</g>
<!-- Node58 -->
<g id="node194" class="node"><title>Node58</title>
<a xlink:href="_tree_8h.html" target="_top" xlink:title="base/Tree.h">
<polygon fill="white" stroke="black" points="1270,-181.5 1270,-202.5 1338,-202.5 1338,-181.5 1270,-181.5"/>
<text text-anchor="middle" x="1304" y="-189.5" font-family="Helvetica,sans-Serif" font-size="10.00">base/Tree.h</text>
</a>
</g>
<!-- Node54&#45;&gt;Node58 -->
<g id="edge272" class="edge"><title>Node54&#45;&gt;Node58</title>
<path fill="none" stroke="midnightblue" d="M1406.35,-362.263C1403.91,-348.293 1398.58,-323.382 1389,-304 1371.05,-267.679 1340.65,-231.378 1321.49,-210.337"/>
<polygon fill="midnightblue" stroke="midnightblue" points="1323.87,-207.757 1314.5,-202.8 1318.73,-212.515 1323.87,-207.757"/>
</g>
<!-- Node60 -->
<g id="node206" class="node"><title>Node60</title>
<polygon fill="white" stroke="#bfbfbf" points="1326,-304.5 1326,-325.5 1380,-325.5 1380,-304.5 1326,-304.5"/>
<text text-anchor="middle" x="1353" y="-312.5" font-family="Helvetica,sans-Serif" font-size="10.00">iostream</text>
</g>
<!-- Node54&#45;&gt;Node60 -->
<g id="edge292" class="edge"><title>Node54&#45;&gt;Node60</title>
<path fill="none" stroke="midnightblue" d="M1397.91,-362.362C1390.16,-354.186 1379.27,-342.702 1370.15,-333.091"/>
<polygon fill="midnightblue" stroke="midnightblue" points="1372.44,-330.419 1363.02,-325.571 1367.37,-335.235 1372.44,-330.419"/>
</g>
<!-- Node55&#45;&gt;Node6 -->
<g id="edge260" class="edge"><title>Node55&#45;&gt;Node6</title>
<path fill="none" stroke="midnightblue" d="M1169.07,-251.736C1290.36,-239.475 1590.43,-209.142 1709.83,-197.072"/>
<polygon fill="midnightblue" stroke="midnightblue" points="1710.2,-200.552 1719.8,-196.064 1709.49,-193.588 1710.2,-200.552"/>
</g>
<!-- Node55&#45;&gt;Node8 -->
<g id="edge270" class="edge"><title>Node55&#45;&gt;Node8</title>
<path fill="none" stroke="midnightblue" d="M1169.02,-255.901C1360.44,-251.66 2016.49,-235.331 2053,-210 2113.62,-167.945 2131.83,-73.6131 2137.03,-31.7231"/>
<polygon fill="midnightblue" stroke="midnightblue" points="2140.53,-31.9302 2138.16,-21.6043 2133.57,-31.1557 2140.53,-31.9302"/>
</g>
<!-- Node55&#45;&gt;Node9 -->
<g id="edge264" class="edge"><title>Node55&#45;&gt;Node9</title>
<path fill="none" stroke="midnightblue" d="M1064.99,-252.35C1039.41,-250.184 1008.1,-247.713 980,-246 932.047,-243.077 152.635,-241.078 116,-210 83.7385,-182.632 73.3023,-147.979 101,-116 146.985,-62.9067 651.662,-23.5171 792.622,-13.4932"/>
<polygon fill="midnightblue" stroke="midnightblue" points="793.155,-16.9644 802.884,-12.7699 792.663,-9.98178 793.155,-16.9644"/>
</g>
<!-- Node55&#45;&gt;Node10 -->
<g id="edge258" class="edge"><title>Node55&#45;&gt;Node10</title>
<path fill="none" stroke="midnightblue" d="M1169.26,-253.379C1249.16,-247.2 1397.42,-233.006 1445,-210 1465.94,-199.873 1463.71,-187.006 1483,-174 1504.39,-159.581 1530.91,-147.595 1551.68,-139.337"/>
<polygon fill="midnightblue" stroke="midnightblue" points="1553.02,-142.573 1561.08,-135.698 1550.49,-136.046 1553.02,-142.573"/>
</g>
<!-- Node55&#45;&gt;Node15 -->
<g id="edge262" class="edge"><title>Node55&#45;&gt;Node15</title>
<path fill="none" stroke="midnightblue" d="M1064.98,-252.554C1039.39,-250.436 1008.09,-247.947 980,-246 911.492,-241.252 422.81,-243.743 363,-210 338.496,-196.176 322.274,-166.928 313.605,-147.114"/>
<polygon fill="midnightblue" stroke="midnightblue" points="316.793,-145.664 309.756,-137.744 310.318,-148.324 316.793,-145.664"/>
</g>
<!-- Node55&#45;&gt;Node56 -->
<g id="edge266" class="edge"><title>Node55&#45;&gt;Node56</title>
<path fill="none" stroke="midnightblue" d="M1064.99,-252.36C1039.41,-250.197 1008.1,-247.725 980,-246 932.99,-243.115 166.794,-242.805 133,-210 116.72,-194.196 118.156,-166.545 121.699,-147.531"/>
<polygon fill="midnightblue" stroke="midnightblue" points="125.124,-148.255 123.848,-137.738 118.286,-146.755 125.124,-148.255"/>
</g>
<!-- Node57 -->
<g id="node191" class="node"><title>Node57</title>
<polygon fill="white" stroke="#bfbfbf" points="1091.5,-181.5 1091.5,-202.5 1138.5,-202.5 1138.5,-181.5 1091.5,-181.5"/>
<text text-anchor="middle" x="1115" y="-189.5" font-family="Helvetica,sans-Serif" font-size="10.00">iterator</text>
</g>
<!-- Node55&#45;&gt;Node57 -->
<g id="edge268" class="edge"><title>Node55&#45;&gt;Node57</title>
<path fill="none" stroke="midnightblue" d="M1116.67,-246.267C1116.39,-237.18 1115.98,-223.892 1115.64,-212.74"/>
<polygon fill="midnightblue" stroke="midnightblue" points="1119.13,-212.421 1115.32,-202.534 1112.13,-212.637 1119.13,-212.421"/>
</g>
<!-- Node58&#45;&gt;Node8 -->
<g id="edge280" class="edge"><title>Node58&#45;&gt;Node8</title>
<path fill="none" stroke="midnightblue" d="M1276.71,-181.42C1269.4,-178.793 1261.45,-176.125 1254,-174 1177.63,-152.228 1032.56,-175.633 1085,-116 1154.25,-37.2501 1936.93,-15.4736 2106.66,-11.6632"/>
<polygon fill="midnightblue" stroke="midnightblue" points="2106.8,-15.1611 2116.72,-11.4425 2106.64,-8.16277 2106.8,-15.1611"/>
</g>
<!-- Node58&#45;&gt;Node11 -->
<g id="edge282" class="edge"><title>Node58&#45;&gt;Node11</title>
<path fill="none" stroke="midnightblue" d="M1325.41,-181.393C1332.16,-178.499 1339.75,-175.697 1347,-174 1592.43,-116.54 1662.31,-164.311 1913,-138 1925.05,-136.736 1938.13,-134.959 1949.94,-133.201"/>
<polygon fill="midnightblue" stroke="midnightblue" points="1950.58,-136.644 1959.93,-131.675 1949.52,-129.724 1950.58,-136.644"/>
</g>
<!-- Node58&#45;&gt;Node17 -->
<g id="edge276" class="edge"><title>Node58&#45;&gt;Node17</title>
<path fill="none" stroke="midnightblue" d="M1279.46,-181.424C1272.04,-178.604 1263.8,-175.834 1256,-174 1108.31,-139.253 1062.79,-168.105 910.417,-137.938"/>
<polygon fill="midnightblue" stroke="midnightblue" points="910.721,-134.428 900.224,-135.864 909.325,-141.288 910.721,-134.428"/>
</g>
<!-- Node58&#45;&gt;Node18 -->
<g id="edge278" class="edge"><title>Node58&#45;&gt;Node18</title>
<path fill="none" stroke="midnightblue" d="M1269.99,-188.08C1166.19,-176.118 855.09,-140.264 764.813,-129.86"/>
<polygon fill="midnightblue" stroke="midnightblue" points="765.035,-126.362 754.7,-128.694 764.234,-133.316 765.035,-126.362"/>
</g>
<!-- Node58&#45;&gt;Node42 -->
<g id="edge284" class="edge"><title>Node58&#45;&gt;Node42</title>
<path fill="none" stroke="midnightblue" d="M1276.39,-181.481C1269.73,-178.989 1262.62,-176.368 1256,-174 1236.7,-167.095 1186.56,-150.107 1152.34,-138.562"/>
<polygon fill="midnightblue" stroke="midnightblue" points="1153.31,-135.197 1142.72,-135.318 1151.08,-141.83 1153.31,-135.197"/>
</g>
<!-- Node59 -->
<g id="node196" class="node"><title>Node59</title>
<polygon fill="white" stroke="#bfbfbf" points="918,-116.5 918,-137.5 1038,-137.5 1038,-116.5 918,-116.5"/>
<text text-anchor="middle" x="978" y="-124.5" font-family="Helvetica,sans-Serif" font-size="10.00">base/cereal/access.hpp</text>
</g>
<!-- Node58&#45;&gt;Node59 -->
<g id="edge274" class="edge"><title>Node58&#45;&gt;Node59</title>
<path fill="none" stroke="midnightblue" d="M1278.64,-181.457C1271.42,-178.738 1263.48,-176.014 1256,-174 1236.27,-168.685 1123.97,-150.303 1048.28,-138.164"/>
<polygon fill="midnightblue" stroke="midnightblue" points="1048.75,-134.694 1038.32,-136.569 1047.64,-141.606 1048.75,-134.694"/>
</g>
<!-- Node61&#45;&gt;Node15 -->
<g id="edge298" class="edge"><title>Node61&#45;&gt;Node15</title>
<path fill="none" stroke="midnightblue" d="M209.733,-181.412C228.361,-170.883 257.151,-154.611 278.396,-142.602"/>
<polygon fill="midnightblue" stroke="midnightblue" points="280.292,-145.551 287.275,-137.584 276.847,-139.457 280.292,-145.551"/>
</g>
<!-- Node61&#45;&gt;Node17 -->
<g id="edge300" class="edge"><title>Node61&#45;&gt;Node17</title>
<path fill="none" stroke="midnightblue" d="M240.285,-186.651C274.663,-182.966 321.612,-178.028 363,-174 540.657,-156.71 585.296,-154.801 763,-138 788.018,-135.635 816.194,-132.841 837.898,-130.661"/>
<polygon fill="midnightblue" stroke="midnightblue" points="838.391,-134.129 847.99,-129.644 837.69,-127.164 838.391,-134.129"/>
</g>
<!-- Node61&#45;&gt;Node25 -->
<g id="edge306" class="edge"><title>Node61&#45;&gt;Node25</title>
<path fill="none" stroke="midnightblue" d="M240.213,-185.759C274.559,-181.67 321.499,-176.617 363,-174 1100.38,-127.51 1286.41,-157.19 2025,-138 2144.41,-134.898 2285.89,-130.363 2351.37,-128.215"/>
<polygon fill="midnightblue" stroke="midnightblue" points="2351.71,-131.706 2361.59,-127.879 2351.48,-124.709 2351.71,-131.706"/>
</g>
<!-- Node61&#45;&gt;Node56 -->
<g id="edge302" class="edge"><title>Node61&#45;&gt;Node56</title>
<path fill="none" stroke="midnightblue" d="M180.432,-181.267C170.646,-171.328 155.912,-156.363 144.393,-144.664"/>
<polygon fill="midnightblue" stroke="midnightblue" points="146.882,-142.204 137.372,-137.534 141.894,-147.115 146.882,-142.204"/>
</g>
<!-- Node62 -->
<g id="node214" class="node"><title>Node62</title>
<polygon fill="white" stroke="#bfbfbf" points="176,-116.5 176,-137.5 206,-137.5 206,-116.5 176,-116.5"/>
<text text-anchor="middle" x="191" y="-124.5" font-family="Helvetica,sans-Serif" font-size="10.00">set</text>
</g>
<!-- Node61&#45;&gt;Node62 -->
<g id="edge304" class="edge"><title>Node61&#45;&gt;Node62</title>
<path fill="none" stroke="midnightblue" d="M191,-181.267C191,-172.18 191,-158.892 191,-147.74"/>
<polygon fill="midnightblue" stroke="midnightblue" points="194.5,-147.534 191,-137.534 187.5,-147.534 194.5,-147.534"/>
</g>
<!-- Node63&#45;&gt;Node8 -->
<g id="edge314" class="edge"><title>Node63&#45;&gt;Node8</title>
<path fill="none" stroke="midnightblue" d="M402.024,-174.878C389.11,-157.998 374.751,-132.414 390,-116 450.792,-50.5634 1872.55,-16.8093 2106.54,-11.6889"/>
<polygon fill="midnightblue" stroke="midnightblue" points="2106.86,-15.1831 2116.78,-11.4667 2106.7,-8.18471 2106.86,-15.1831"/>
</g>
<!-- Node63&#45;&gt;Node15 -->
<g id="edge310" class="edge"><title>Node63&#45;&gt;Node15</title>
<path fill="none" stroke="midnightblue" d="M387.836,-174.922C370.818,-164.957 349.5,-152.473 332.888,-142.745"/>
<polygon fill="midnightblue" stroke="midnightblue" points="334.599,-139.691 324.201,-137.658 331.062,-145.732 334.599,-139.691"/>
</g>
<!-- Node63&#45;&gt;Node17 -->
<g id="edge318" class="edge"><title>Node63&#45;&gt;Node17</title>
<path fill="none" stroke="midnightblue" d="M462.755,-182.438C477.483,-179.524 493.898,-176.447 509,-174 628.784,-154.591 771.735,-138.111 837.546,-130.898"/>
<polygon fill="midnightblue" stroke="midnightblue" points="838.241,-134.343 847.803,-129.78 837.482,-127.384 838.241,-134.343"/>
</g>
<!-- Node63&#45;&gt;Node18 -->
<g id="edge312" class="edge"><title>Node63&#45;&gt;Node18</title>
<path fill="none" stroke="midnightblue" d="M462.593,-182.825C531.898,-168.878 661.393,-142.819 715.381,-131.954"/>
<polygon fill="midnightblue" stroke="midnightblue" points="716.307,-135.338 725.42,-129.934 714.926,-128.476 716.307,-135.338"/>
</g>
<!-- Node63&#45;&gt;Node20 -->
<g id="edge322" class="edge"><title>Node63&#45;&gt;Node20</title>
<path fill="none" stroke="midnightblue" d="M439.595,-174.922C452.292,-165.326 468.078,-153.394 480.723,-143.837"/>
<polygon fill="midnightblue" stroke="midnightblue" points="483.031,-146.48 488.898,-137.658 478.81,-140.896 483.031,-146.48"/>
</g>
<!-- Node63&#45;&gt;Node52 -->
<g id="edge320" class="edge"><title>Node63&#45;&gt;Node52</title>
<path fill="none" stroke="midnightblue" d="M419.89,-174.922C421.287,-166.67 422.975,-156.692 424.449,-147.982"/>
<polygon fill="midnightblue" stroke="midnightblue" points="427.946,-148.296 426.163,-137.852 421.044,-147.128 427.946,-148.296"/>
</g>
<!-- Node63&#45;&gt;Node56 -->
<g id="edge316" class="edge"><title>Node63&#45;&gt;Node56</title>
<path fill="none" stroke="midnightblue" d="M371.206,-182.905C320.938,-172.736 237.941,-155.402 167,-138 163.022,-137.024 158.837,-135.939 154.733,-134.841"/>
<polygon fill="midnightblue" stroke="midnightblue" points="155.434,-131.404 144.865,-132.141 153.587,-138.156 155.434,-131.404"/>
</g>
</g>
</svg>
