<?xml version="1.0" encoding="UTF-8" standalone="no"?>
<!DOCTYPE svg PUBLIC "-//W3C//DTD SVG 1.1//EN"
 "http://www.w3.org/Graphics/SVG/1.1/DTD/svg11.dtd">
<!-- Generated by graphviz version 2.26.3 (20100126.1600)
 -->
<!-- Title: src/base/ParticleTypeTree.h Pages: 1 -->
<svg width="920pt" height="262pt"
 viewBox="0.00 0.00 920.00 262.00" xmlns="http://www.w3.org/2000/svg" xmlns:xlink="http://www.w3.org/1999/xlink">
<g id="graph1" class="graph" transform="scale(1 1) rotate(0) translate(4 258)">
<title>src/base/ParticleTypeTree.h</title>
<polygon fill="white" stroke="white" points="-4,5 -4,-258 917,-258 917,5 -4,5"/>
<!-- Node1 -->
<g id="node1" class="node"><title>Node1</title>
<polygon fill="#bfbfbf" stroke="black" points="678,-232.5 678,-253.5 818,-253.5 818,-232.5 678,-232.5"/>
<text text-anchor="middle" x="748" y="-240.5" font-family="Helvetica,sans-Serif" font-size="10.00">src/base/ParticleTypeTree.h</text>
</g>
<!-- Node2 -->
<g id="node3" class="node"><title>Node2</title>
<a xlink:href="_particle_type_8h.html" target="_top" xlink:title="ParticleType.h">
<polygon fill="white" stroke="black" points="708,-174.5 708,-195.5 788,-195.5 788,-174.5 708,-174.5"/>
<text text-anchor="middle" x="748" y="-182.5" font-family="Helvetica,sans-Serif" font-size="10.00">ParticleType.h</text>
</a>
</g>
<!-- Node1&#45;&gt;Node2 -->
<g id="edge2" class="edge"><title>Node1&#45;&gt;Node2</title>
<path fill="none" stroke="midnightblue" d="M748,-232.362C748,-224.922 748,-214.743 748,-205.728"/>
<polygon fill="midnightblue" stroke="midnightblue" points="751.5,-205.571 748,-195.571 744.5,-205.571 751.5,-205.571"/>
</g>
<!-- Node13 -->
<g id="node27" class="node"><title>Node13</title>
<polygon fill="white" stroke="#bfbfbf" points="877.5,-116.5 877.5,-137.5 912.5,-137.5 912.5,-116.5 877.5,-116.5"/>
<text text-anchor="middle" x="895" y="-124.5" font-family="Helvetica,sans-Serif" font-size="10.00">map</text>
</g>
<!-- Node1&#45;&gt;Node13 -->
<g id="edge48" class="edge"><title>Node1&#45;&gt;Node13</title>
<path fill="none" stroke="midnightblue" d="M761.566,-232.295C787.163,-212.096 842.77,-168.216 873.504,-143.963"/>
<polygon fill="midnightblue" stroke="midnightblue" points="875.785,-146.622 881.467,-137.679 871.448,-141.126 875.785,-146.622"/>
</g>
<!-- Node15 -->
<g id="node32" class="node"><title>Node15</title>
<a xlink:href="_tree_8h.html" target="_top" xlink:title="Tree.h">
<polygon fill="white" stroke="black" points="256,-116.5 256,-137.5 300,-137.5 300,-116.5 256,-116.5"/>
<text text-anchor="middle" x="278" y="-124.5" font-family="Helvetica,sans-Serif" font-size="10.00">Tree.h</text>
</a>
</g>
<!-- Node1&#45;&gt;Node15 -->
<g id="edge34" class="edge"><title>Node1&#45;&gt;Node15</title>
<path fill="none" stroke="midnightblue" d="M705.045,-232.398C611.707,-209.362 392.178,-155.18 309.893,-134.871"/>
<polygon fill="midnightblue" stroke="midnightblue" points="310.656,-131.455 300.109,-132.457 308.979,-138.251 310.656,-131.455"/>
</g>
<!-- Node3 -->
<g id="node5" class="node"><title>Node3</title>
<a xlink:href="types_8h.html" target="_top" xlink:title="base/types.h">
<polygon fill="white" stroke="black" points="749.5,-58.5 749.5,-79.5 822.5,-79.5 822.5,-58.5 749.5,-58.5"/>
<text text-anchor="middle" x="786" y="-66.5" font-family="Helvetica,sans-Serif" font-size="10.00">base/types.h</text>
</a>
</g>
<!-- Node2&#45;&gt;Node3 -->
<g id="edge4" class="edge"><title>Node2&#45;&gt;Node3</title>
<path fill="none" stroke="midnightblue" d="M757.663,-174.311C765.168,-165.321 775.097,-151.762 780,-138 785.541,-122.448 786.864,-103.731 786.9,-89.717"/>
<polygon fill="midnightblue" stroke="midnightblue" points="790.398,-89.5684 786.709,-79.6366 783.399,-89.7011 790.398,-89.5684"/>
</g>
<!-- Node4 -->
<g id="node7" class="node"><title>Node4</title>
<a xlink:href="interval_8h.html" target="_top" xlink:title="base/interval.h">
<polygon fill="white" stroke="black" points="569,-116.5 569,-137.5 649,-137.5 649,-116.5 569,-116.5"/>
<text text-anchor="middle" x="609" y="-124.5" font-family="Helvetica,sans-Serif" font-size="10.00">base/interval.h</text>
</a>
</g>
<!-- Node2&#45;&gt;Node4 -->
<g id="edge6" class="edge"><title>Node2&#45;&gt;Node4</title>
<path fill="none" stroke="midnightblue" d="M722.828,-174.497C700.727,-165.275 668.361,-151.769 643.787,-141.515"/>
<polygon fill="midnightblue" stroke="midnightblue" points="645.031,-138.242 634.454,-137.621 642.335,-144.702 645.031,-138.242"/>
</g>
<!-- Node6 -->
<g id="node11" class="node"><title>Node6</title>
<polygon fill="white" stroke="#bfbfbf" points="346,-0.5 346,-21.5 390,-21.5 390,-0.5 346,-0.5"/>
<text text-anchor="middle" x="368" y="-8.5" font-family="Helvetica,sans-Serif" font-size="10.00">vector</text>
</g>
<!-- Node2&#45;&gt;Node6 -->
<g id="edge32" class="edge"><title>Node2&#45;&gt;Node6</title>
<path fill="none" stroke="midnightblue" d="M707.966,-178.554C623.566,-164.169 431.48,-126.985 387,-80 374.696,-67.0032 370.223,-46.7878 368.664,-31.5916"/>
<polygon fill="midnightblue" stroke="midnightblue" points="372.154,-31.3234 367.973,-21.5883 365.17,-31.8057 372.154,-31.3234"/>
</g>
<!-- Node7 -->
<g id="node13" class="node"><title>Node7</title>
<polygon fill="white" stroke="#bfbfbf" points="749,-0.5 749,-21.5 801,-21.5 801,-0.5 749,-0.5"/>
<text text-anchor="middle" x="775" y="-8.5" font-family="Helvetica,sans-Serif" font-size="10.00">ostream</text>
</g>
<!-- Node2&#45;&gt;Node7 -->
<g id="edge26" class="edge"><title>Node2&#45;&gt;Node7</title>
<path fill="none" stroke="midnightblue" d="M761.68,-174.266C782.233,-157.059 819.858,-121.038 831,-80 833.562,-70.5638 835.132,-66.8619 831,-58 825.16,-45.4735 814.156,-35.0999 803.438,-27.314"/>
<polygon fill="midnightblue" stroke="midnightblue" points="805.256,-24.319 795.008,-21.633 801.345,-30.1239 805.256,-24.319"/>
</g>
<!-- Node12 -->
<g id="node24" class="node"><title>Node12</title>
<polygon fill="white" stroke="#bfbfbf" points="666.5,-116.5 666.5,-137.5 707.5,-137.5 707.5,-116.5 666.5,-116.5"/>
<text text-anchor="middle" x="687" y="-124.5" font-family="Helvetica,sans-Serif" font-size="10.00">string</text>
</g>
<!-- Node2&#45;&gt;Node12 -->
<g id="edge24" class="edge"><title>Node2&#45;&gt;Node12</title>
<path fill="none" stroke="midnightblue" d="M736.812,-174.362C728.041,-166.023 715.651,-154.242 705.422,-144.516"/>
<polygon fill="midnightblue" stroke="midnightblue" points="707.776,-141.925 698.117,-137.571 702.953,-146.998 707.776,-141.925"/>
</g>
<!-- Node2&#45;&gt;Node13 -->
<g id="edge28" class="edge"><title>Node2&#45;&gt;Node13</title>
<path fill="none" stroke="midnightblue" d="M774.621,-174.497C801.032,-164.076 841.303,-148.186 867.886,-137.698"/>
<polygon fill="midnightblue" stroke="midnightblue" points="869.328,-140.892 877.346,-133.966 866.759,-134.38 869.328,-140.892"/>
</g>
<!-- Node14 -->
<g id="node29" class="node"><title>Node14</title>
<polygon fill="white" stroke="#bfbfbf" points="724.5,-116.5 724.5,-137.5 771.5,-137.5 771.5,-116.5 724.5,-116.5"/>
<text text-anchor="middle" x="748" y="-124.5" font-family="Helvetica,sans-Serif" font-size="10.00">iterator</text>
</g>
<!-- Node2&#45;&gt;Node14 -->
<g id="edge30" class="edge"><title>Node2&#45;&gt;Node14</title>
<path fill="none" stroke="midnightblue" d="M748,-174.362C748,-166.922 748,-156.743 748,-147.728"/>
<polygon fill="midnightblue" stroke="midnightblue" points="751.5,-147.571 748,-137.571 744.5,-147.571 751.5,-147.571"/>
</g>
<!-- Node4&#45;&gt;Node3 -->
<g id="edge14" class="edge"><title>Node4&#45;&gt;Node3</title>
<path fill="none" stroke="midnightblue" d="M641.053,-116.497C669.909,-107.041 712.506,-93.0829 744.061,-82.7428"/>
<polygon fill="midnightblue" stroke="midnightblue" points="745.474,-85.963 753.887,-79.5231 743.294,-79.3111 745.474,-85.963"/>
</g>
<!-- Node5 -->
<g id="node9" class="node"><title>Node5</title>
<a xlink:href="printable_8h.html" target="_top" xlink:title="printable.h">
<polygon fill="white" stroke="black" points="670,-58.5 670,-79.5 732,-79.5 732,-58.5 670,-58.5"/>
<text text-anchor="middle" x="701" y="-66.5" font-family="Helvetica,sans-Serif" font-size="10.00">printable.h</text>
</a>
</g>
<!-- Node4&#45;&gt;Node5 -->
<g id="edge8" class="edge"><title>Node4&#45;&gt;Node5</title>
<path fill="none" stroke="midnightblue" d="M625.874,-116.362C639.751,-107.614 659.634,-95.0786 675.46,-85.1015"/>
<polygon fill="midnightblue" stroke="midnightblue" points="677.64,-87.8645 684.233,-79.5707 673.907,-81.943 677.64,-87.8645"/>
</g>
<!-- Node8 -->
<g id="node16" class="node"><title>Node8</title>
<polygon fill="white" stroke="#bfbfbf" points="396,-58.5 396,-79.5 452,-79.5 452,-58.5 396,-58.5"/>
<text text-anchor="middle" x="424" y="-66.5" font-family="Helvetica,sans-Serif" font-size="10.00">algorithm</text>
</g>
<!-- Node4&#45;&gt;Node8 -->
<g id="edge16" class="edge"><title>Node4&#45;&gt;Node8</title>
<path fill="none" stroke="midnightblue" d="M575.498,-116.497C543.509,-106.468 495.363,-91.3733 461.967,-80.9033"/>
<polygon fill="midnightblue" stroke="midnightblue" points="462.7,-77.465 452.111,-77.8131 460.606,-84.1445 462.7,-77.465"/>
</g>
<!-- Node9 -->
<g id="node18" class="node"><title>Node9</title>
<polygon fill="white" stroke="#bfbfbf" points="535.5,-58.5 535.5,-79.5 594.5,-79.5 594.5,-58.5 535.5,-58.5"/>
<text text-anchor="middle" x="565" y="-66.5" font-family="Helvetica,sans-Serif" font-size="10.00">stdexcept</text>
</g>
<!-- Node4&#45;&gt;Node9 -->
<g id="edge18" class="edge"><title>Node4&#45;&gt;Node9</title>
<path fill="none" stroke="midnightblue" d="M600.93,-116.362C594.851,-108.35 586.363,-97.1605 579.163,-87.6696"/>
<polygon fill="midnightblue" stroke="midnightblue" points="581.851,-85.4222 573.019,-79.5707 576.275,-89.653 581.851,-85.4222"/>
</g>
<!-- Node10 -->
<g id="node20" class="node"><title>Node10</title>
<polygon fill="white" stroke="#bfbfbf" points="612,-58.5 612,-79.5 652,-79.5 652,-58.5 612,-58.5"/>
<text text-anchor="middle" x="632" y="-66.5" font-family="Helvetica,sans-Serif" font-size="10.00">limits</text>
</g>
<!-- Node4&#45;&gt;Node10 -->
<g id="edge20" class="edge"><title>Node4&#45;&gt;Node10</title>
<path fill="none" stroke="midnightblue" d="M613.219,-116.362C616.234,-108.758 620.383,-98.294 624.015,-89.1349"/>
<polygon fill="midnightblue" stroke="midnightblue" points="627.375,-90.1567 627.808,-79.5707 620.868,-87.5762 627.375,-90.1567"/>
</g>
<!-- Node11 -->
<g id="node22" class="node"><title>Node11</title>
<polygon fill="white" stroke="#bfbfbf" points="469.5,-58.5 469.5,-79.5 518.5,-79.5 518.5,-58.5 469.5,-58.5"/>
<text text-anchor="middle" x="494" y="-66.5" font-family="Helvetica,sans-Serif" font-size="10.00">istream</text>
</g>
<!-- Node4&#45;&gt;Node11 -->
<g id="edge22" class="edge"><title>Node4&#45;&gt;Node11</title>
<path fill="none" stroke="midnightblue" d="M588.174,-116.497C570.294,-107.479 544.293,-94.3649 524.139,-84.2006"/>
<polygon fill="midnightblue" stroke="midnightblue" points="525.564,-80.9994 515.059,-79.6212 522.412,-87.2495 525.564,-80.9994"/>
</g>
<!-- Node5&#45;&gt;Node6 -->
<g id="edge10" class="edge"><title>Node5&#45;&gt;Node6</title>
<path fill="none" stroke="midnightblue" d="M669.637,-60.0267C666.727,-59.2996 663.815,-58.611 661,-58 567.073,-37.6155 454.437,-21.9805 400.244,-14.9986"/>
<polygon fill="midnightblue" stroke="midnightblue" points="400.57,-11.5119 390.208,-13.7187 399.685,-18.4557 400.57,-11.5119"/>
</g>
<!-- Node5&#45;&gt;Node7 -->
<g id="edge12" class="edge"><title>Node5&#45;&gt;Node7</title>
<path fill="none" stroke="midnightblue" d="M714.573,-58.3619C725.421,-49.859 740.834,-37.7785 753.379,-27.9466"/>
<polygon fill="midnightblue" stroke="midnightblue" points="755.802,-30.4942 761.513,-21.5707 751.484,-24.9848 755.802,-30.4942"/>
</g>
<!-- Node15&#45;&gt;Node6 -->
<g id="edge42" class="edge"><title>Node15&#45;&gt;Node6</title>
<path fill="none" stroke="midnightblue" d="M286.306,-116.295C301.576,-96.6135 334.288,-54.4504 353.362,-29.8668"/>
<polygon fill="midnightblue" stroke="midnightblue" points="356.35,-31.7256 359.714,-21.6792 350.819,-27.4346 356.35,-31.7256"/>
</g>
<!-- Node15&#45;&gt;Node8 -->
<g id="edge44" class="edge"><title>Node15&#45;&gt;Node8</title>
<path fill="none" stroke="midnightblue" d="M300.174,-118.191C323.406,-108.962 360.273,-94.3162 387.746,-83.4021"/>
<polygon fill="midnightblue" stroke="midnightblue" points="389.399,-86.5117 397.4,-79.567 386.815,-80.0062 389.399,-86.5117"/>
</g>
<!-- Node16 -->
<g id="node34" class="node"><title>Node16</title>
<polygon fill="white" stroke="#bfbfbf" points="0,-58.5 0,-79.5 120,-79.5 120,-58.5 0,-58.5"/>
<text text-anchor="middle" x="60" y="-66.5" font-family="Helvetica,sans-Serif" font-size="10.00">base/cereal/access.hpp</text>
</g>
<!-- Node15&#45;&gt;Node16 -->
<g id="edge36" class="edge"><title>Node15&#45;&gt;Node16</title>
<path fill="none" stroke="midnightblue" d="M255.897,-121.119C221.811,-112.051 155.553,-94.4223 109.589,-82.1935"/>
<polygon fill="midnightblue" stroke="midnightblue" points="110.384,-78.7832 99.8201,-79.5943 108.584,-85.5479 110.384,-78.7832"/>
</g>
<!-- Node17 -->
<g id="node36" class="node"><title>Node17</title>
<polygon fill="white" stroke="#bfbfbf" points="138,-58.5 138,-79.5 190,-79.5 190,-58.5 138,-58.5"/>
<text text-anchor="middle" x="164" y="-66.5" font-family="Helvetica,sans-Serif" font-size="10.00">memory</text>
</g>
<!-- Node15&#45;&gt;Node17 -->
<g id="edge38" class="edge"><title>Node15&#45;&gt;Node17</title>
<path fill="none" stroke="midnightblue" d="M257.355,-116.497C239.63,-107.479 213.855,-94.3649 193.877,-84.2006"/>
<polygon fill="midnightblue" stroke="midnightblue" points="195.376,-81.0364 184.876,-79.6212 192.202,-87.2753 195.376,-81.0364"/>
</g>
<!-- Node18 -->
<g id="node38" class="node"><title>Node18</title>
<polygon fill="white" stroke="#bfbfbf" points="207.5,-58.5 207.5,-79.5 236.5,-79.5 236.5,-58.5 207.5,-58.5"/>
<text text-anchor="middle" x="222" y="-66.5" font-family="Helvetica,sans-Serif" font-size="10.00">list</text>
</g>
<!-- Node15&#45;&gt;Node18 -->
<g id="edge40" class="edge"><title>Node15&#45;&gt;Node18</title>
<path fill="none" stroke="midnightblue" d="M267.729,-116.362C259.756,-108.104 248.525,-96.4725 239.189,-86.8029"/>
<polygon fill="midnightblue" stroke="midnightblue" points="241.67,-84.3336 232.206,-79.5707 236.634,-89.1958 241.67,-84.3336"/>
</g>
<!-- Node19 -->
<g id="node42" class="node"><title>Node19</title>
<polygon fill="white" stroke="#bfbfbf" points="253.5,-58.5 253.5,-79.5 302.5,-79.5 302.5,-58.5 253.5,-58.5"/>
<text text-anchor="middle" x="278" y="-66.5" font-family="Helvetica,sans-Serif" font-size="10.00">cassert</text>
</g>
<!-- Node15&#45;&gt;Node19 -->
<g id="edge46" class="edge"><title>Node15&#45;&gt;Node19</title>
<path fill="none" stroke="midnightblue" d="M278,-116.362C278,-108.922 278,-98.7427 278,-89.7276"/>
<polygon fill="midnightblue" stroke="midnightblue" points="281.5,-89.5706 278,-79.5707 274.5,-89.5707 281.5,-89.5706"/>
</g>
</g>
</svg>
