<?xml version="1.0" encoding="UTF-8" standalone="no"?>
<!DOCTYPE svg PUBLIC "-//W3C//DTD SVG 1.1//EN"
 "http://www.w3.org/Graphics/SVG/1.1/DTD/svg11.dtd">
<!-- Generated by graphviz version 2.26.3 (20100126.1600)
 -->
<!-- Title: src/base/ParticleType.h Pages: 1 -->
<svg width="659pt" height="204pt"
 viewBox="0.00 0.00 659.37 204.00" xmlns="http://www.w3.org/2000/svg" xmlns:xlink="http://www.w3.org/1999/xlink">
<g id="graph1" class="graph" transform="scale(1 1) rotate(0) translate(4 200)">
<title>src/base/ParticleType.h</title>
<polygon fill="white" stroke="white" points="-4,5 -4,-200 656.372,-200 656.372,5 -4,5"/>
<!-- Node1 -->
<g id="node1" class="node"><title>Node1</title>
<polygon fill="#bfbfbf" stroke="black" points="407.372,-174.5 407.372,-195.5 527.372,-195.5 527.372,-174.5 407.372,-174.5"/>
<text text-anchor="middle" x="467.372" y="-182.5" font-family="Helvetica,sans-Serif" font-size="10.00">src/base/ParticleType.h</text>
</g>
<!-- Node2 -->
<g id="node3" class="node"><title>Node2</title>
<a xlink:href="types_8h.html" target="_top" xlink:title="base/types.h">
<polygon fill="white" stroke="black" points="12.8716,-58.5 12.8716,-79.5 85.8716,-79.5 85.8716,-58.5 12.8716,-58.5"/>
<text text-anchor="middle" x="49.3716" y="-66.5" font-family="Helvetica,sans-Serif" font-size="10.00">base/types.h</text>
</a>
</g>
<!-- Node1&#45;&gt;Node2 -->
<g id="edge2" class="edge"><title>Node1&#45;&gt;Node2</title>
<path fill="none" stroke="midnightblue" d="M407.339,-178.28C353.817,-171.33 273.749,-158.556 206.372,-138 160.176,-123.906 109.485,-99.968 78.5447,-84.3208"/>
<polygon fill="midnightblue" stroke="midnightblue" points="80.1007,-81.1855 69.6034,-79.751 76.915,-87.4186 80.1007,-81.1855"/>
</g>
<!-- Node3 -->
<g id="node5" class="node"><title>Node3</title>
<a xlink:href="interval_8h.html" target="_top" xlink:title="base/interval.h">
<polygon fill="white" stroke="black" points="215.372,-116.5 215.372,-137.5 295.372,-137.5 295.372,-116.5 215.372,-116.5"/>
<text text-anchor="middle" x="255.372" y="-124.5" font-family="Helvetica,sans-Serif" font-size="10.00">base/interval.h</text>
</a>
</g>
<!-- Node1&#45;&gt;Node3 -->
<g id="edge4" class="edge"><title>Node1&#45;&gt;Node3</title>
<path fill="none" stroke="midnightblue" d="M428.98,-174.497C393.82,-164.877 341.627,-150.598 303.653,-140.209"/>
<polygon fill="midnightblue" stroke="midnightblue" points="304.404,-136.786 293.835,-137.523 302.557,-143.538 304.404,-136.786"/>
</g>
<!-- Node5 -->
<g id="node9" class="node"><title>Node5</title>
<polygon fill="white" stroke="#bfbfbf" points="171.372,-0.5 171.372,-21.5 215.372,-21.5 215.372,-0.5 171.372,-0.5"/>
<text text-anchor="middle" x="193.372" y="-8.5" font-family="Helvetica,sans-Serif" font-size="10.00">vector</text>
</g>
<!-- Node1&#45;&gt;Node5 -->
<g id="edge30" class="edge"><title>Node1&#45;&gt;Node5</title>
<path fill="none" stroke="midnightblue" d="M407.329,-181.228C292.444,-172.54 48.9284,-146.507 4.37163,-80 -1.07056,-71.8767 -1.65053,-65.7031 4.37163,-58 23.4819,-33.5555 112.334,-20.0036 161.106,-14.29"/>
<polygon fill="midnightblue" stroke="midnightblue" points="161.606,-17.7558 171.151,-13.1576 160.822,-10.7999 161.606,-17.7558"/>
</g>
<!-- Node6 -->
<g id="node11" class="node"><title>Node6</title>
<polygon fill="white" stroke="#bfbfbf" points="411.372,-0.5 411.372,-21.5 463.372,-21.5 463.372,-0.5 411.372,-0.5"/>
<text text-anchor="middle" x="437.372" y="-8.5" font-family="Helvetica,sans-Serif" font-size="10.00">ostream</text>
</g>
<!-- Node1&#45;&gt;Node6 -->
<g id="edge24" class="edge"><title>Node1&#45;&gt;Node6</title>
<path fill="none" stroke="midnightblue" d="M466.084,-174.414C463.361,-152.562 456.59,-100.916 448.372,-58 446.706,-49.3012 444.541,-39.7743 442.572,-31.5856"/>
<polygon fill="midnightblue" stroke="midnightblue" points="445.946,-30.6472 440.157,-21.7739 439.149,-32.3206 445.946,-30.6472"/>
</g>
<!-- Node11 -->
<g id="node22" class="node"><title>Node11</title>
<polygon fill="white" stroke="#bfbfbf" points="494.872,-116.5 494.872,-137.5 535.872,-137.5 535.872,-116.5 494.872,-116.5"/>
<text text-anchor="middle" x="515.372" y="-124.5" font-family="Helvetica,sans-Serif" font-size="10.00">string</text>
</g>
<!-- Node1&#45;&gt;Node11 -->
<g id="edge22" class="edge"><title>Node1&#45;&gt;Node11</title>
<path fill="none" stroke="midnightblue" d="M476.176,-174.362C482.874,-166.268 492.256,-154.932 500.161,-145.38"/>
<polygon fill="midnightblue" stroke="midnightblue" points="502.944,-147.506 506.624,-137.571 497.551,-143.043 502.944,-147.506"/>
</g>
<!-- Node12 -->
<g id="node25" class="node"><title>Node12</title>
<polygon fill="white" stroke="#bfbfbf" points="552.872,-116.5 552.872,-137.5 587.872,-137.5 587.872,-116.5 552.872,-116.5"/>
<text text-anchor="middle" x="570.372" y="-124.5" font-family="Helvetica,sans-Serif" font-size="10.00">map</text>
</g>
<!-- Node1&#45;&gt;Node12 -->
<g id="edge26" class="edge"><title>Node1&#45;&gt;Node12</title>
<path fill="none" stroke="midnightblue" d="M486.263,-174.362C502.386,-165.283 525.752,-152.126 543.766,-141.982"/>
<polygon fill="midnightblue" stroke="midnightblue" points="545.636,-144.946 552.632,-136.989 542.201,-138.846 545.636,-144.946"/>
</g>
<!-- Node13 -->
<g id="node27" class="node"><title>Node13</title>
<polygon fill="white" stroke="#bfbfbf" points="604.872,-116.5 604.872,-137.5 651.872,-137.5 651.872,-116.5 604.872,-116.5"/>
<text text-anchor="middle" x="628.372" y="-124.5" font-family="Helvetica,sans-Serif" font-size="10.00">iterator</text>
</g>
<!-- Node1&#45;&gt;Node13 -->
<g id="edge28" class="edge"><title>Node1&#45;&gt;Node13</title>
<path fill="none" stroke="midnightblue" d="M496.528,-174.497C524.25,-164.51 565.915,-149.5 594.963,-139.035"/>
<polygon fill="midnightblue" stroke="midnightblue" points="596.446,-142.221 604.668,-135.539 594.074,-135.636 596.446,-142.221"/>
</g>
<!-- Node3&#45;&gt;Node2 -->
<g id="edge12" class="edge"><title>Node3&#45;&gt;Node2</title>
<path fill="none" stroke="midnightblue" d="M218.067,-116.497C183.835,-106.859 132.988,-92.5425 96.0706,-82.1483"/>
<polygon fill="midnightblue" stroke="midnightblue" points="96.6271,-78.6689 86.0528,-79.3277 94.73,-85.407 96.6271,-78.6689"/>
</g>
<!-- Node4 -->
<g id="node7" class="node"><title>Node4</title>
<a xlink:href="printable_8h.html" target="_top" xlink:title="printable.h">
<polygon fill="white" stroke="black" points="377.372,-58.5 377.372,-79.5 439.372,-79.5 439.372,-58.5 377.372,-58.5"/>
<text text-anchor="middle" x="408.372" y="-66.5" font-family="Helvetica,sans-Serif" font-size="10.00">printable.h</text>
</a>
</g>
<!-- Node3&#45;&gt;Node4 -->
<g id="edge6" class="edge"><title>Node3&#45;&gt;Node4</title>
<path fill="none" stroke="midnightblue" d="M283.079,-116.497C307.698,-107.164 343.888,-93.4447 371.052,-83.1475"/>
<polygon fill="midnightblue" stroke="midnightblue" points="372.503,-86.3406 380.613,-79.5231 370.021,-79.7951 372.503,-86.3406"/>
</g>
<!-- Node7 -->
<g id="node14" class="node"><title>Node7</title>
<polygon fill="white" stroke="#bfbfbf" points="227.372,-58.5 227.372,-79.5 283.372,-79.5 283.372,-58.5 227.372,-58.5"/>
<text text-anchor="middle" x="255.372" y="-66.5" font-family="Helvetica,sans-Serif" font-size="10.00">algorithm</text>
</g>
<!-- Node3&#45;&gt;Node7 -->
<g id="edge14" class="edge"><title>Node3&#45;&gt;Node7</title>
<path fill="none" stroke="midnightblue" d="M255.372,-116.362C255.372,-108.922 255.372,-98.7427 255.372,-89.7276"/>
<polygon fill="midnightblue" stroke="midnightblue" points="258.872,-89.5706 255.372,-79.5707 251.872,-89.5707 258.872,-89.5706"/>
</g>
<!-- Node8 -->
<g id="node16" class="node"><title>Node8</title>
<polygon fill="white" stroke="#bfbfbf" points="300.872,-58.5 300.872,-79.5 359.872,-79.5 359.872,-58.5 300.872,-58.5"/>
<text text-anchor="middle" x="330.372" y="-66.5" font-family="Helvetica,sans-Serif" font-size="10.00">stdexcept</text>
</g>
<!-- Node3&#45;&gt;Node8 -->
<g id="edge16" class="edge"><title>Node3&#45;&gt;Node8</title>
<path fill="none" stroke="midnightblue" d="M269.128,-116.362C280.123,-107.859 295.744,-95.7785 308.458,-85.9466"/>
<polygon fill="midnightblue" stroke="midnightblue" points="310.933,-88.4569 316.703,-79.5707 306.651,-82.9195 310.933,-88.4569"/>
</g>
<!-- Node9 -->
<g id="node18" class="node"><title>Node9</title>
<polygon fill="white" stroke="#bfbfbf" points="103.372,-58.5 103.372,-79.5 143.372,-79.5 143.372,-58.5 103.372,-58.5"/>
<text text-anchor="middle" x="123.372" y="-66.5" font-family="Helvetica,sans-Serif" font-size="10.00">limits</text>
</g>
<!-- Node3&#45;&gt;Node9 -->
<g id="edge18" class="edge"><title>Node3&#45;&gt;Node9</title>
<path fill="none" stroke="midnightblue" d="M231.467,-116.497C209.397,-106.799 176.547,-92.365 152.857,-81.9556"/>
<polygon fill="midnightblue" stroke="midnightblue" points="154.202,-78.7237 143.639,-77.9052 151.386,-85.1323 154.202,-78.7237"/>
</g>
<!-- Node10 -->
<g id="node20" class="node"><title>Node10</title>
<polygon fill="white" stroke="#bfbfbf" points="160.872,-58.5 160.872,-79.5 209.872,-79.5 209.872,-58.5 160.872,-58.5"/>
<text text-anchor="middle" x="185.372" y="-66.5" font-family="Helvetica,sans-Serif" font-size="10.00">istream</text>
</g>
<!-- Node3&#45;&gt;Node10 -->
<g id="edge20" class="edge"><title>Node3&#45;&gt;Node10</title>
<path fill="none" stroke="midnightblue" d="M242.533,-116.362C232.369,-107.941 217.971,-96.0105 206.167,-86.2308"/>
<polygon fill="midnightblue" stroke="midnightblue" points="208.063,-83.2558 198.129,-79.5707 203.596,-88.6459 208.063,-83.2558"/>
</g>
<!-- Node4&#45;&gt;Node5 -->
<g id="edge8" class="edge"><title>Node4&#45;&gt;Node5</title>
<path fill="none" stroke="midnightblue" d="M377.368,-60.4543C374.329,-59.6225 371.291,-58.7933 368.372,-58 318.361,-44.4081 260.247,-28.8463 225.168,-19.4784"/>
<polygon fill="midnightblue" stroke="midnightblue" points="226.048,-16.0907 215.483,-16.8931 224.242,-22.8539 226.048,-16.0907"/>
</g>
<!-- Node4&#45;&gt;Node6 -->
<g id="edge10" class="edge"><title>Node4&#45;&gt;Node6</title>
<path fill="none" stroke="midnightblue" d="M413.691,-58.3619C417.574,-50.5949 422.95,-39.8426 427.599,-30.5458"/>
<polygon fill="midnightblue" stroke="midnightblue" points="430.745,-32.0802 432.086,-21.5707 424.484,-28.9497 430.745,-32.0802"/>
</g>
</g>
</svg>
