<?xml version="1.0" encoding="UTF-8" standalone="no"?>
<!DOCTYPE svg PUBLIC "-//W3C//DTD SVG 1.1//EN"
 "http://www.w3.org/Graphics/SVG/1.1/DTD/svg11.dtd">
<!-- Generated by graphviz version 2.26.3 (20100126.1600)
 -->
<!-- Title: src/base/ParticleTypeTree.cc Pages: 1 -->
<svg width="843pt" height="320pt"
 viewBox="0.00 0.00 843.48 320.00" xmlns="http://www.w3.org/2000/svg" xmlns:xlink="http://www.w3.org/1999/xlink">
<g id="graph1" class="graph" transform="scale(1 1) rotate(0) translate(4 316)">
<title>src/base/ParticleTypeTree.cc</title>
<polygon fill="white" stroke="white" points="-4,5 -4,-316 840.478,-316 840.478,5 -4,5"/>
<!-- Node1 -->
<g id="node1" class="node"><title>Node1</title>
<polygon fill="#bfbfbf" stroke="black" points="632.5,-290.5 632.5,-311.5 777.5,-311.5 777.5,-290.5 632.5,-290.5"/>
<text text-anchor="middle" x="705" y="-298.5" font-family="Helvetica,sans-Serif" font-size="10.00">src/base/ParticleTypeTree.cc</text>
</g>
<!-- Node2 -->
<g id="node3" class="node"><title>Node2</title>
<a xlink:href="_particle_type_tree_8h.html" target="_top" xlink:title="ParticleTypeTree.h">
<polygon fill="white" stroke="black" points="420.5,-232.5 420.5,-253.5 519.5,-253.5 519.5,-232.5 420.5,-232.5"/>
<text text-anchor="middle" x="470" y="-240.5" font-family="Helvetica,sans-Serif" font-size="10.00">ParticleTypeTree.h</text>
</a>
</g>
<!-- Node1&#45;&gt;Node2 -->
<g id="edge2" class="edge"><title>Node1&#45;&gt;Node2</title>
<path fill="none" stroke="midnightblue" d="M662.443,-290.497C623.137,-280.795 564.627,-266.355 522.448,-255.945"/>
<polygon fill="midnightblue" stroke="midnightblue" points="523.184,-252.521 512.637,-253.523 521.507,-259.317 523.184,-252.521"/>
</g>
<!-- Node10 -->
<g id="node20" class="node"><title>Node10</title>
<polygon fill="white" stroke="#bfbfbf" points="763.5,-58.5 763.5,-79.5 822.5,-79.5 822.5,-58.5 763.5,-58.5"/>
<text text-anchor="middle" x="793" y="-66.5" font-family="Helvetica,sans-Serif" font-size="10.00">stdexcept</text>
</g>
<!-- Node1&#45;&gt;Node10 -->
<g id="edge52" class="edge"><title>Node1&#45;&gt;Node10</title>
<path fill="none" stroke="midnightblue" d="M709.01,-290.429C722.639,-254.497 767.33,-136.674 785.359,-89.1453"/>
<polygon fill="midnightblue" stroke="midnightblue" points="788.692,-90.2248 788.967,-79.6335 782.148,-87.7422 788.692,-90.2248"/>
</g>
<!-- Node3 -->
<g id="node5" class="node"><title>Node3</title>
<a xlink:href="_particle_type_8h.html" target="_top" xlink:title="ParticleType.h">
<polygon fill="white" stroke="black" points="484,-174.5 484,-195.5 564,-195.5 564,-174.5 484,-174.5"/>
<text text-anchor="middle" x="524" y="-182.5" font-family="Helvetica,sans-Serif" font-size="10.00">ParticleType.h</text>
</a>
</g>
<!-- Node2&#45;&gt;Node3 -->
<g id="edge4" class="edge"><title>Node2&#45;&gt;Node3</title>
<path fill="none" stroke="midnightblue" d="M479.904,-232.362C487.516,-224.186 498.208,-212.702 507.157,-203.091"/>
<polygon fill="midnightblue" stroke="midnightblue" points="509.906,-205.275 514.158,-195.571 504.783,-200.505 509.906,-205.275"/>
</g>
<!-- Node14 -->
<g id="node29" class="node"><title>Node14</title>
<polygon fill="white" stroke="#bfbfbf" points="379.5,-116.5 379.5,-137.5 414.5,-137.5 414.5,-116.5 379.5,-116.5"/>
<text text-anchor="middle" x="397" y="-124.5" font-family="Helvetica,sans-Serif" font-size="10.00">map</text>
</g>
<!-- Node2&#45;&gt;Node14 -->
<g id="edge50" class="edge"><title>Node2&#45;&gt;Node14</title>
<path fill="none" stroke="midnightblue" d="M463.263,-232.295C450.932,-212.7 424.576,-170.82 409.077,-146.191"/>
<polygon fill="midnightblue" stroke="midnightblue" points="412.009,-144.279 403.721,-137.679 406.085,-148.007 412.009,-144.279"/>
</g>
<!-- Node16 -->
<g id="node34" class="node"><title>Node16</title>
<a xlink:href="_tree_8h.html" target="_top" xlink:title="Tree.h">
<polygon fill="white" stroke="black" points="254,-116.5 254,-137.5 298,-137.5 298,-116.5 254,-116.5"/>
<text text-anchor="middle" x="276" y="-124.5" font-family="Helvetica,sans-Serif" font-size="10.00">Tree.h</text>
</a>
</g>
<!-- Node2&#45;&gt;Node16 -->
<g id="edge36" class="edge"><title>Node2&#45;&gt;Node16</title>
<path fill="none" stroke="midnightblue" d="M452.097,-232.295C417.723,-211.741 342.344,-166.67 302.267,-142.706"/>
<polygon fill="midnightblue" stroke="midnightblue" points="303.959,-139.64 293.58,-137.512 300.366,-145.648 303.959,-139.64"/>
</g>
<!-- Node4 -->
<g id="node7" class="node"><title>Node4</title>
<a xlink:href="types_8h.html" target="_top" xlink:title="base/types.h">
<polygon fill="white" stroke="black" points="469.5,-58.5 469.5,-79.5 542.5,-79.5 542.5,-58.5 469.5,-58.5"/>
<text text-anchor="middle" x="506" y="-66.5" font-family="Helvetica,sans-Serif" font-size="10.00">base/types.h</text>
</a>
</g>
<!-- Node3&#45;&gt;Node4 -->
<g id="edge6" class="edge"><title>Node3&#45;&gt;Node4</title>
<path fill="none" stroke="midnightblue" d="M525.523,-174.122C527.13,-160.422 528.934,-136.227 525,-116 523.208,-106.787 519.612,-97.0938 516.026,-88.9193"/>
<polygon fill="midnightblue" stroke="midnightblue" points="519.185,-87.4117 511.779,-79.8357 512.844,-90.3768 519.185,-87.4117"/>
</g>
<!-- Node5 -->
<g id="node9" class="node"><title>Node5</title>
<a xlink:href="interval_8h.html" target="_top" xlink:title="base/interval.h">
<polygon fill="white" stroke="black" points="572,-116.5 572,-137.5 652,-137.5 652,-116.5 572,-116.5"/>
<text text-anchor="middle" x="612" y="-124.5" font-family="Helvetica,sans-Serif" font-size="10.00">base/interval.h</text>
</a>
</g>
<!-- Node3&#45;&gt;Node5 -->
<g id="edge8" class="edge"><title>Node3&#45;&gt;Node5</title>
<path fill="none" stroke="midnightblue" d="M540.141,-174.362C553.414,-165.614 572.432,-153.079 587.57,-143.101"/>
<polygon fill="midnightblue" stroke="midnightblue" points="589.538,-145.996 595.962,-137.571 585.686,-140.151 589.538,-145.996"/>
</g>
<!-- Node7 -->
<g id="node13" class="node"><title>Node7</title>
<polygon fill="white" stroke="#bfbfbf" points="420,-0.5 420,-21.5 464,-21.5 464,-0.5 420,-0.5"/>
<text text-anchor="middle" x="442" y="-8.5" font-family="Helvetica,sans-Serif" font-size="10.00">vector</text>
</g>
<!-- Node3&#45;&gt;Node7 -->
<g id="edge34" class="edge"><title>Node3&#45;&gt;Node7</title>
<path fill="none" stroke="midnightblue" d="M502.039,-174.374C487.966,-166.375 470.598,-154.043 461,-138 441.169,-104.855 439.478,-58.4062 440.456,-31.8409"/>
<polygon fill="midnightblue" stroke="midnightblue" points="443.956,-31.9423 440.994,-21.7699 436.966,-31.569 443.956,-31.9423"/>
</g>
<!-- Node8 -->
<g id="node15" class="node"><title>Node8</title>
<polygon fill="white" stroke="#bfbfbf" points="694,-0.5 694,-21.5 746,-21.5 746,-0.5 694,-0.5"/>
<text text-anchor="middle" x="720" y="-8.5" font-family="Helvetica,sans-Serif" font-size="10.00">ostream</text>
</g>
<!-- Node3&#45;&gt;Node8 -->
<g id="edge28" class="edge"><title>Node3&#45;&gt;Node8</title>
<path fill="none" stroke="midnightblue" d="M564.006,-177.778C640.525,-163.004 802.568,-126.742 831,-80 851.014,-47.0971 795.699,-27.4934 756.143,-18.0171"/>
<polygon fill="midnightblue" stroke="midnightblue" points="756.757,-14.5677 746.231,-15.7706 755.21,-21.3946 756.757,-14.5677"/>
</g>
<!-- Node13 -->
<g id="node26" class="node"><title>Node13</title>
<polygon fill="white" stroke="#bfbfbf" points="669.5,-116.5 669.5,-137.5 710.5,-137.5 710.5,-116.5 669.5,-116.5"/>
<text text-anchor="middle" x="690" y="-124.5" font-family="Helvetica,sans-Serif" font-size="10.00">string</text>
</g>
<!-- Node3&#45;&gt;Node13 -->
<g id="edge26" class="edge"><title>Node3&#45;&gt;Node13</title>
<path fill="none" stroke="midnightblue" d="M555.661,-174.459C581.482,-165.791 619.116,-152.999 659.861,-138.35"/>
<polygon fill="midnightblue" stroke="midnightblue" points="661.218,-141.581 669.435,-134.894 658.841,-134.997 661.218,-141.581"/>
</g>
<!-- Node3&#45;&gt;Node14 -->
<g id="edge30" class="edge"><title>Node3&#45;&gt;Node14</title>
<path fill="none" stroke="midnightblue" d="M501.001,-174.497C479.236,-164.556 446.574,-149.64 423.675,-139.182"/>
<polygon fill="midnightblue" stroke="midnightblue" points="425.07,-135.971 414.519,-135.001 422.162,-142.339 425.07,-135.971"/>
</g>
<!-- Node15 -->
<g id="node31" class="node"><title>Node15</title>
<polygon fill="white" stroke="#bfbfbf" points="469.5,-116.5 469.5,-137.5 516.5,-137.5 516.5,-116.5 469.5,-116.5"/>
<text text-anchor="middle" x="493" y="-124.5" font-family="Helvetica,sans-Serif" font-size="10.00">iterator</text>
</g>
<!-- Node3&#45;&gt;Node15 -->
<g id="edge32" class="edge"><title>Node3&#45;&gt;Node15</title>
<path fill="none" stroke="midnightblue" d="M518.314,-174.362C514.163,-166.595 508.416,-155.843 503.447,-146.546"/>
<polygon fill="midnightblue" stroke="midnightblue" points="506.45,-144.74 498.65,-137.571 500.277,-148.04 506.45,-144.74"/>
</g>
<!-- Node5&#45;&gt;Node4 -->
<g id="edge16" class="edge"><title>Node5&#45;&gt;Node4</title>
<path fill="none" stroke="midnightblue" d="M592.558,-116.362C576.196,-107.409 552.587,-94.4908 534.157,-84.4064"/>
<polygon fill="midnightblue" stroke="midnightblue" points="535.771,-81.3004 525.319,-79.5707 532.411,-87.4412 535.771,-81.3004"/>
</g>
<!-- Node6 -->
<g id="node11" class="node"><title>Node6</title>
<a xlink:href="printable_8h.html" target="_top" xlink:title="printable.h">
<polygon fill="white" stroke="black" points="560,-58.5 560,-79.5 622,-79.5 622,-58.5 560,-58.5"/>
<text text-anchor="middle" x="591" y="-66.5" font-family="Helvetica,sans-Serif" font-size="10.00">printable.h</text>
</a>
</g>
<!-- Node5&#45;&gt;Node6 -->
<g id="edge10" class="edge"><title>Node5&#45;&gt;Node6</title>
<path fill="none" stroke="midnightblue" d="M608.148,-116.362C605.395,-108.758 601.606,-98.294 598.29,-89.1349"/>
<polygon fill="midnightblue" stroke="midnightblue" points="601.523,-87.7818 594.827,-79.5707 594.941,-90.1649 601.523,-87.7818"/>
</g>
<!-- Node9 -->
<g id="node18" class="node"><title>Node9</title>
<polygon fill="white" stroke="#bfbfbf" points="358,-58.5 358,-79.5 414,-79.5 414,-58.5 358,-58.5"/>
<text text-anchor="middle" x="386" y="-66.5" font-family="Helvetica,sans-Serif" font-size="10.00">algorithm</text>
</g>
<!-- Node5&#45;&gt;Node9 -->
<g id="edge18" class="edge"><title>Node5&#45;&gt;Node9</title>
<path fill="none" stroke="midnightblue" d="M571.856,-116.698C529.994,-105.954 464.877,-89.2427 423.878,-78.721"/>
<polygon fill="midnightblue" stroke="midnightblue" points="424.56,-75.2825 414.003,-76.1867 422.82,-82.0628 424.56,-75.2825"/>
</g>
<!-- Node5&#45;&gt;Node10 -->
<g id="edge20" class="edge"><title>Node5&#45;&gt;Node10</title>
<path fill="none" stroke="midnightblue" d="M644.778,-116.497C675.429,-106.675 721.241,-91.9945 753.811,-81.5577"/>
<polygon fill="midnightblue" stroke="midnightblue" points="755.008,-84.8497 763.463,-78.465 752.872,-78.1836 755.008,-84.8497"/>
</g>
<!-- Node11 -->
<g id="node22" class="node"><title>Node11</title>
<polygon fill="white" stroke="#bfbfbf" points="640,-58.5 640,-79.5 680,-79.5 680,-58.5 640,-58.5"/>
<text text-anchor="middle" x="660" y="-66.5" font-family="Helvetica,sans-Serif" font-size="10.00">limits</text>
</g>
<!-- Node5&#45;&gt;Node11 -->
<g id="edge22" class="edge"><title>Node5&#45;&gt;Node11</title>
<path fill="none" stroke="midnightblue" d="M620.804,-116.362C627.502,-108.268 636.884,-96.9318 644.789,-87.3796"/>
<polygon fill="midnightblue" stroke="midnightblue" points="647.573,-89.5061 651.252,-79.5707 642.18,-85.0431 647.573,-89.5061"/>
</g>
<!-- Node12 -->
<g id="node24" class="node"><title>Node12</title>
<polygon fill="white" stroke="#bfbfbf" points="697.5,-58.5 697.5,-79.5 746.5,-79.5 746.5,-58.5 697.5,-58.5"/>
<text text-anchor="middle" x="722" y="-66.5" font-family="Helvetica,sans-Serif" font-size="10.00">istream</text>
</g>
<!-- Node5&#45;&gt;Node12 -->
<g id="edge24" class="edge"><title>Node5&#45;&gt;Node12</title>
<path fill="none" stroke="midnightblue" d="M631.92,-116.497C648.946,-107.519 673.669,-94.4835 692.909,-84.3387"/>
<polygon fill="midnightblue" stroke="midnightblue" points="694.643,-87.3814 701.856,-79.6212 691.378,-81.1894 694.643,-87.3814"/>
</g>
<!-- Node6&#45;&gt;Node7 -->
<g id="edge12" class="edge"><title>Node6&#45;&gt;Node7</title>
<path fill="none" stroke="midnightblue" d="M564.017,-58.4966C538.623,-48.6115 500.586,-33.8052 473.744,-23.3566"/>
<polygon fill="midnightblue" stroke="midnightblue" points="474.994,-20.0874 464.405,-19.7214 472.454,-26.6106 474.994,-20.0874"/>
</g>
<!-- Node6&#45;&gt;Node8 -->
<g id="edge14" class="edge"><title>Node6&#45;&gt;Node8</title>
<path fill="none" stroke="midnightblue" d="M614.361,-58.4966C634.691,-49.3562 664.378,-36.0082 687.109,-25.7883"/>
<polygon fill="midnightblue" stroke="midnightblue" points="688.692,-28.9142 696.377,-21.6212 685.821,-22.5298 688.692,-28.9142"/>
</g>
<!-- Node16&#45;&gt;Node7 -->
<g id="edge44" class="edge"><title>Node16&#45;&gt;Node7</title>
<path fill="none" stroke="midnightblue" d="M285.574,-116.167C298.801,-101.643 323.888,-75.6479 349,-58 368.284,-44.4475 392.028,-32.5159 410.698,-24.0656"/>
<polygon fill="midnightblue" stroke="midnightblue" points="412.218,-27.2202 419.947,-19.9739 409.386,-20.8186 412.218,-27.2202"/>
</g>
<!-- Node16&#45;&gt;Node9 -->
<g id="edge46" class="edge"><title>Node16&#45;&gt;Node9</title>
<path fill="none" stroke="midnightblue" d="M295.92,-116.497C312.946,-107.519 337.669,-94.4835 356.909,-84.3387"/>
<polygon fill="midnightblue" stroke="midnightblue" points="358.643,-87.3814 365.856,-79.6212 355.378,-81.1894 358.643,-87.3814"/>
</g>
<!-- Node17 -->
<g id="node36" class="node"><title>Node17</title>
<polygon fill="white" stroke="#bfbfbf" points="112,-58.5 112,-79.5 232,-79.5 232,-58.5 112,-58.5"/>
<text text-anchor="middle" x="172" y="-66.5" font-family="Helvetica,sans-Serif" font-size="10.00">base/cereal/access.hpp</text>
</g>
<!-- Node16&#45;&gt;Node17 -->
<g id="edge38" class="edge"><title>Node16&#45;&gt;Node17</title>
<path fill="none" stroke="midnightblue" d="M256.925,-116.362C240.945,-107.45 217.919,-94.6087 199.873,-84.5447"/>
<polygon fill="midnightblue" stroke="midnightblue" points="201.393,-81.3846 190.954,-79.5707 197.983,-87.4982 201.393,-81.3846"/>
</g>
<!-- Node18 -->
<g id="node38" class="node"><title>Node18</title>
<polygon fill="white" stroke="#bfbfbf" points="250,-58.5 250,-79.5 302,-79.5 302,-58.5 250,-58.5"/>
<text text-anchor="middle" x="276" y="-66.5" font-family="Helvetica,sans-Serif" font-size="10.00">memory</text>
</g>
<!-- Node16&#45;&gt;Node18 -->
<g id="edge40" class="edge"><title>Node16&#45;&gt;Node18</title>
<path fill="none" stroke="midnightblue" d="M276,-116.362C276,-108.922 276,-98.7427 276,-89.7276"/>
<polygon fill="midnightblue" stroke="midnightblue" points="279.5,-89.5706 276,-79.5707 272.5,-89.5707 279.5,-89.5706"/>
</g>
<!-- Node19 -->
<g id="node40" class="node"><title>Node19</title>
<polygon fill="white" stroke="#bfbfbf" points="-0.5,-58.5 -0.5,-79.5 28.5,-79.5 28.5,-58.5 -0.5,-58.5"/>
<text text-anchor="middle" x="14" y="-66.5" font-family="Helvetica,sans-Serif" font-size="10.00">list</text>
</g>
<!-- Node16&#45;&gt;Node19 -->
<g id="edge42" class="edge"><title>Node16&#45;&gt;Node19</title>
<path fill="none" stroke="midnightblue" d="M253.776,-124.528C212.559,-119.547 121.557,-106.687 38.4402,-79.9325"/>
<polygon fill="midnightblue" stroke="midnightblue" points="39.4619,-76.5841 28.8688,-76.7769 37.27,-83.2321 39.4619,-76.5841"/>
</g>
<!-- Node20 -->
<g id="node44" class="node"><title>Node20</title>
<polygon fill="white" stroke="#bfbfbf" points="45.5,-58.5 45.5,-79.5 94.5,-79.5 94.5,-58.5 45.5,-58.5"/>
<text text-anchor="middle" x="70" y="-66.5" font-family="Helvetica,sans-Serif" font-size="10.00">cassert</text>
</g>
<!-- Node16&#45;&gt;Node20 -->
<g id="edge48" class="edge"><title>Node16&#45;&gt;Node20</title>
<path fill="none" stroke="midnightblue" d="M253.765,-121.388C222.466,-113.397 163.434,-97.9914 104.632,-80.3975"/>
<polygon fill="midnightblue" stroke="midnightblue" points="105.403,-76.9744 94.8183,-77.4397 103.383,-83.6766 105.403,-76.9744"/>
</g>
</g>
</svg>
