<?xml version="1.0" encoding="UTF-8" standalone="no"?>
<!DOCTYPE svg PUBLIC "-//W3C//DTD SVG 1.1//EN"
 "http://www.w3.org/Graphics/SVG/1.1/DTD/svg11.dtd">
<!-- Generated by graphviz version 2.26.3 (20100126.1600)
 -->
<!-- Title: src/analysis/utils/ParticleID.h Pages: 1 -->
<svg width="1573pt" height="464pt"
 viewBox="0.00 0.00 1572.77 464.00" xmlns="http://www.w3.org/2000/svg" xmlns:xlink="http://www.w3.org/1999/xlink">
<g id="graph1" class="graph" transform="scale(1 1) rotate(0) translate(4 460)">
<title>src/analysis/utils/ParticleID.h</title>
<polygon fill="white" stroke="white" points="-4,5 -4,-460 1569.77,-460 1569.77,5 -4,5"/>
<!-- Node1 -->
<g id="node1" class="node"><title>Node1</title>
<polygon fill="#bfbfbf" stroke="black" points="530.766,-421 530.766,-455 620.766,-455 620.766,-421 530.766,-421"/>
<text text-anchor="start" x="538.766" y="-442" font-family="Helvetica,sans-Serif" font-size="10.00">src/analysis/utils</text>
<text text-anchor="middle" x="575.766" y="-429" font-family="Helvetica,sans-Serif" font-size="10.00">/ParticleID.h</text>
</g>
<!-- Node2 -->
<g id="node3" class="node"><title>Node2</title>
<a xlink:href="_t_particle_8h.html" target="_top" xlink:title="tree/TParticle.h">
<polygon fill="white" stroke="black" points="534.266,-362.5 534.266,-383.5 617.266,-383.5 617.266,-362.5 534.266,-362.5"/>
<text text-anchor="middle" x="575.766" y="-370.5" font-family="Helvetica,sans-Serif" font-size="10.00">tree/TParticle.h</text>
</a>
</g>
<!-- Node1&#45;&gt;Node2 -->
<g id="edge2" class="edge"><title>Node1&#45;&gt;Node2</title>
<path fill="none" stroke="midnightblue" d="M575.766,-420.922C575.766,-412.67 575.766,-402.692 575.766,-393.982"/>
<polygon fill="midnightblue" stroke="midnightblue" points="579.266,-393.852 575.766,-383.852 572.266,-393.852 579.266,-393.852"/>
</g>
<!-- Node19 -->
<g id="node42" class="node"><title>Node19</title>
<polygon fill="white" stroke="#bfbfbf" points="1371.77,-116.5 1371.77,-137.5 1423.77,-137.5 1423.77,-116.5 1371.77,-116.5"/>
<text text-anchor="middle" x="1397.77" y="-124.5" font-family="Helvetica,sans-Serif" font-size="10.00">memory</text>
</g>
<!-- Node1&#45;&gt;Node19 -->
<g id="edge136" class="edge"><title>Node1&#45;&gt;Node19</title>
<path fill="none" stroke="midnightblue" d="M620.831,-437.204C814.308,-433.202 1564.77,-411.461 1564.77,-315 1564.77,-315 1564.77,-315 1564.77,-257 1564.77,-191.002 1482.55,-153.618 1433.49,-137.186"/>
<polygon fill="midnightblue" stroke="midnightblue" points="1434.45,-133.819 1423.86,-134.085 1432.31,-140.482 1434.45,-133.819"/>
</g>
<!-- Node25 -->
<g id="node65" class="node"><title>Node25</title>
<a xlink:href="_particle_type_8h.html" target="_top" xlink:title="base/ParticleType.h">
<polygon fill="white" stroke="black" points="103.766,-246.5 103.766,-267.5 207.766,-267.5 207.766,-246.5 103.766,-246.5"/>
<text text-anchor="middle" x="155.766" y="-254.5" font-family="Helvetica,sans-Serif" font-size="10.00">base/ParticleType.h</text>
</a>
</g>
<!-- Node1&#45;&gt;Node25 -->
<g id="edge134" class="edge"><title>Node1&#45;&gt;Node25</title>
<path fill="none" stroke="midnightblue" d="M530.571,-429.732C440.127,-412.43 241.051,-370.326 188.766,-326 173.953,-313.442 165.294,-292.713 160.593,-277.247"/>
<polygon fill="midnightblue" stroke="midnightblue" points="163.955,-276.271 157.944,-267.546 157.202,-278.115 163.955,-276.271"/>
</g>
<!-- Node3 -->
<g id="node5" class="node"><title>Node3</title>
<a xlink:href="_t_candidate_8h.html" target="_top" xlink:title="tree/TCandidate.h">
<polygon fill="white" stroke="black" points="813.266,-304.5 813.266,-325.5 908.266,-325.5 908.266,-304.5 813.266,-304.5"/>
<text text-anchor="middle" x="860.766" y="-312.5" font-family="Helvetica,sans-Serif" font-size="10.00">tree/TCandidate.h</text>
</a>
</g>
<!-- Node2&#45;&gt;Node3 -->
<g id="edge4" class="edge"><title>Node2&#45;&gt;Node3</title>
<path fill="none" stroke="midnightblue" d="M617.512,-364.504C666.564,-354.522 748.224,-337.903 803.249,-326.705"/>
<polygon fill="midnightblue" stroke="midnightblue" points="804.098,-330.104 813.199,-324.68 802.702,-323.245 804.098,-330.104"/>
</g>
<!-- Node6 -->
<g id="node11" class="node"><title>Node6</title>
<a xlink:href="printable_8h.html" target="_top" xlink:title="base/printable.h">
<polygon fill="white" stroke="black" points="245.766,-58.5 245.766,-79.5 331.766,-79.5 331.766,-58.5 245.766,-58.5"/>
<text text-anchor="middle" x="288.766" y="-66.5" font-family="Helvetica,sans-Serif" font-size="10.00">base/printable.h</text>
</a>
</g>
<!-- Node2&#45;&gt;Node6 -->
<g id="edge76" class="edge"><title>Node2&#45;&gt;Node6</title>
<path fill="none" stroke="midnightblue" d="M534.238,-371.172C462.753,-367.315 312.227,-356.072 188.766,-326 103.504,-305.232 3.76574,-344.755 3.76574,-257 3.76574,-257 3.76574,-257 3.76574,-192 3.76574,-149.778 25.112,-138.617 60.7657,-116 89.2585,-97.9257 177.579,-83.4342 235.561,-75.5411"/>
<polygon fill="midnightblue" stroke="midnightblue" points="236.21,-78.9856 245.658,-74.1913 235.282,-72.0473 236.21,-78.9856"/>
</g>
<!-- Node7 -->
<g id="node13" class="node"><title>Node7</title>
<polygon fill="white" stroke="#bfbfbf" points="1006.77,-0.5 1006.77,-21.5 1050.77,-21.5 1050.77,-0.5 1006.77,-0.5"/>
<text text-anchor="middle" x="1028.77" y="-8.5" font-family="Helvetica,sans-Serif" font-size="10.00">vector</text>
</g>
<!-- Node2&#45;&gt;Node7 -->
<g id="edge126" class="edge"><title>Node2&#45;&gt;Node7</title>
<path fill="none" stroke="midnightblue" d="M617.36,-371.727C752.322,-367.379 1177.08,-351.933 1311.77,-326 1393.06,-310.348 1440.19,-335.033 1488.77,-268 1554.59,-177.168 1453.14,-99.093 1348.77,-58 1296.71,-37.5046 1131.8,-20.4388 1061.27,-13.8817"/>
<polygon fill="midnightblue" stroke="midnightblue" points="1061.46,-10.3846 1051.19,-12.956 1060.82,-17.3553 1061.46,-10.3846"/>
</g>
<!-- Node2&#45;&gt;Node19 -->
<g id="edge132" class="edge"><title>Node2&#45;&gt;Node19</title>
<path fill="none" stroke="midnightblue" d="M617.268,-371.319C785.781,-364.074 1412.6,-332.9 1469.77,-268 1503.45,-229.755 1450.56,-172.937 1418.84,-144.518"/>
<polygon fill="midnightblue" stroke="midnightblue" points="1420.76,-141.547 1410.92,-137.613 1416.16,-146.823 1420.76,-141.547"/>
</g>
<!-- Node24 -->
<g id="node63" class="node"><title>Node24</title>
<a xlink:href="types_8h.html" target="_top" xlink:title="base/types.h">
<polygon fill="white" stroke="black" points="69.2657,-116.5 69.2657,-137.5 142.266,-137.5 142.266,-116.5 69.2657,-116.5"/>
<text text-anchor="middle" x="105.766" y="-124.5" font-family="Helvetica,sans-Serif" font-size="10.00">base/types.h</text>
</a>
</g>
<!-- Node2&#45;&gt;Node24 -->
<g id="edge78" class="edge"><title>Node2&#45;&gt;Node24</title>
<path fill="none" stroke="midnightblue" d="M554.206,-362.409C502.317,-336.842 366.497,-269.46 254.766,-210 212.073,-187.28 163.208,-159.767 133.424,-142.824"/>
<polygon fill="midnightblue" stroke="midnightblue" points="134.877,-139.624 124.456,-137.714 131.412,-145.706 134.877,-139.624"/>
</g>
<!-- Node2&#45;&gt;Node25 -->
<g id="edge80" class="edge"><title>Node2&#45;&gt;Node25</title>
<path fill="none" stroke="midnightblue" d="M534.227,-370.927C452.848,-366.312 275.664,-353.366 221.766,-326 199.068,-314.476 179.852,-291.949 168.109,-275.767"/>
<polygon fill="midnightblue" stroke="midnightblue" points="170.966,-273.745 162.378,-267.539 165.222,-277.746 170.966,-273.745"/>
</g>
<!-- Node30 -->
<g id="node84" class="node"><title>Node30</title>
<a xlink:href="_tree_8h.html" target="_top" xlink:title="base/Tree.h">
<polygon fill="white" stroke="black" points="459.766,-181.5 459.766,-202.5 527.766,-202.5 527.766,-181.5 459.766,-181.5"/>
<text text-anchor="middle" x="493.766" y="-189.5" font-family="Helvetica,sans-Serif" font-size="10.00">base/Tree.h</text>
</a>
</g>
<!-- Node2&#45;&gt;Node30 -->
<g id="edge108" class="edge"><title>Node2&#45;&gt;Node30</title>
<path fill="none" stroke="midnightblue" d="M553.765,-362.398C539.675,-354.409 522.303,-342.079 512.766,-326 491.696,-290.476 490.603,-240.558 491.987,-212.762"/>
<polygon fill="midnightblue" stroke="midnightblue" points="495.489,-212.837 492.654,-202.629 488.504,-212.377 495.489,-212.837"/>
</g>
<!-- Node32 -->
<g id="node89" class="node"><title>Node32</title>
<polygon fill="white" stroke="#bfbfbf" points="581.266,-116.5 581.266,-137.5 610.266,-137.5 610.266,-116.5 581.266,-116.5"/>
<text text-anchor="middle" x="595.766" y="-124.5" font-family="Helvetica,sans-Serif" font-size="10.00">list</text>
</g>
<!-- Node2&#45;&gt;Node32 -->
<g id="edge128" class="edge"><title>Node2&#45;&gt;Node32</title>
<path fill="none" stroke="midnightblue" d="M578.253,-362.238C580.342,-352.753 583.226,-338.534 584.766,-326 592.683,-261.542 594.904,-184.634 595.525,-148.178"/>
<polygon fill="midnightblue" stroke="midnightblue" points="599.03,-147.881 595.676,-137.831 592.03,-147.779 599.03,-147.881"/>
</g>
<!-- Node34 -->
<g id="node95" class="node"><title>Node34</title>
<a xlink:href="_lorentz_vec_8h.html" target="_top" xlink:title="base/vec/LorentzVec.h">
<polygon fill="white" stroke="black" points="1344.27,-246.5 1344.27,-267.5 1461.27,-267.5 1461.27,-246.5 1344.27,-246.5"/>
<text text-anchor="middle" x="1402.77" y="-254.5" font-family="Helvetica,sans-Serif" font-size="10.00">base/vec/LorentzVec.h</text>
</a>
</g>
<!-- Node2&#45;&gt;Node34 -->
<g id="edge122" class="edge"><title>Node2&#45;&gt;Node34</title>
<path fill="none" stroke="midnightblue" d="M617.538,-367.406C731.791,-352.059 1059.06,-307.786 1330.77,-268 1331.86,-267.84 1332.96,-267.677 1334.08,-267.514"/>
<polygon fill="midnightblue" stroke="midnightblue" points="1334.85,-270.937 1344.23,-266.006 1333.82,-264.013 1334.85,-270.937"/>
</g>
<!-- Node35 -->
<g id="node100" class="node"><title>Node35</title>
<polygon fill="white" stroke="#bfbfbf" points="521.766,-304.5 521.766,-325.5 575.766,-325.5 575.766,-304.5 521.766,-304.5"/>
<text text-anchor="middle" x="548.766" y="-312.5" font-family="Helvetica,sans-Serif" font-size="10.00">iostream</text>
</g>
<!-- Node2&#45;&gt;Node35 -->
<g id="edge130" class="edge"><title>Node2&#45;&gt;Node35</title>
<path fill="none" stroke="midnightblue" d="M570.814,-362.362C567.236,-354.677 562.298,-344.069 558.002,-334.84"/>
<polygon fill="midnightblue" stroke="midnightblue" points="561.08,-333.159 553.687,-325.571 554.734,-336.114 561.08,-333.159"/>
</g>
<!-- Node4 -->
<g id="node7" class="node"><title>Node4</title>
<a xlink:href="_t_cluster_8h.html" target="_top" xlink:title="TCluster.h">
<polygon fill="white" stroke="black" points="1066.77,-246.5 1066.77,-267.5 1128.77,-267.5 1128.77,-246.5 1066.77,-246.5"/>
<text text-anchor="middle" x="1097.77" y="-254.5" font-family="Helvetica,sans-Serif" font-size="10.00">TCluster.h</text>
</a>
</g>
<!-- Node3&#45;&gt;Node4 -->
<g id="edge6" class="edge"><title>Node3&#45;&gt;Node4</title>
<path fill="none" stroke="midnightblue" d="M903.685,-304.497C947.154,-293.859 1013.91,-277.521 1056.7,-267.049"/>
<polygon fill="midnightblue" stroke="midnightblue" points="1057.63,-270.426 1066.51,-264.65 1055.96,-263.627 1057.63,-270.426"/>
</g>
<!-- Node5 -->
<g id="node9" class="node"><title>Node5</title>
<a xlink:href="_detector__t_8h.html" target="_top" xlink:title="base/Detector_t.h">
<polygon fill="white" stroke="black" points="716.266,-181.5 716.266,-202.5 811.266,-202.5 811.266,-181.5 716.266,-181.5"/>
<text text-anchor="middle" x="763.766" y="-189.5" font-family="Helvetica,sans-Serif" font-size="10.00">base/Detector_t.h</text>
</a>
</g>
<!-- Node3&#45;&gt;Node5 -->
<g id="edge64" class="edge"><title>Node3&#45;&gt;Node5</title>
<path fill="none" stroke="midnightblue" d="M852.158,-304.085C835.578,-283.061 799.043,-236.733 778.513,-210.7"/>
<polygon fill="midnightblue" stroke="midnightblue" points="781.157,-208.4 772.216,-202.715 775.66,-212.735 781.157,-208.4"/>
</g>
<!-- Node3&#45;&gt;Node7 -->
<g id="edge66" class="edge"><title>Node3&#45;&gt;Node7</title>
<path fill="none" stroke="midnightblue" d="M856.458,-304.376C846.851,-278.776 826.85,-212.919 857.766,-174 901.755,-118.623 959.868,-184.942 1012.77,-138 1042.41,-111.696 1038.52,-60.4126 1033.43,-31.7145"/>
<polygon fill="midnightblue" stroke="midnightblue" points="1036.8,-30.7158 1031.41,-21.5913 1029.93,-32.0821 1036.8,-30.7158"/>
</g>
<!-- Node3&#45;&gt;Node19 -->
<g id="edge72" class="edge"><title>Node3&#45;&gt;Node19</title>
<path fill="none" stroke="midnightblue" d="M908.47,-307.55C975.73,-296.935 1095.01,-277.676 1137.77,-268 1229.7,-247.196 1265.44,-265.314 1341.77,-210 1364.08,-193.831 1380.23,-165.864 1389.29,-146.908"/>
<polygon fill="midnightblue" stroke="midnightblue" points="1392.54,-148.233 1393.49,-137.681 1386.16,-145.335 1392.54,-148.233"/>
</g>
<!-- Node21 -->
<g id="node46" class="node"><title>Node21</title>
<polygon fill="white" stroke="#bfbfbf" points="685.766,-116.5 685.766,-137.5 741.766,-137.5 741.766,-116.5 685.766,-116.5"/>
<text text-anchor="middle" x="713.766" y="-124.5" font-family="Helvetica,sans-Serif" font-size="10.00">algorithm</text>
</g>
<!-- Node3&#45;&gt;Node21 -->
<g id="edge74" class="edge"><title>Node3&#45;&gt;Node21</title>
<path fill="none" stroke="midnightblue" d="M830.816,-304.469C794.125,-289.752 733.658,-259.172 707.766,-210 697.565,-190.627 701.544,-165.104 706.489,-147.502"/>
<polygon fill="midnightblue" stroke="midnightblue" points="709.913,-148.281 709.575,-137.691 703.236,-146.18 709.913,-148.281"/>
</g>
<!-- Node22 -->
<g id="node51" class="node"><title>Node22</title>
<polygon fill="white" stroke="#bfbfbf" points="866.766,-181.5 866.766,-202.5 916.766,-202.5 916.766,-181.5 866.766,-181.5"/>
<text text-anchor="middle" x="891.766" y="-189.5" font-family="Helvetica,sans-Serif" font-size="10.00">iomanip</text>
</g>
<!-- Node3&#45;&gt;Node22 -->
<g id="edge68" class="edge"><title>Node3&#45;&gt;Node22</title>
<path fill="none" stroke="midnightblue" d="M863.517,-304.085C868.7,-283.518 879.987,-238.735 886.618,-212.426"/>
<polygon fill="midnightblue" stroke="midnightblue" points="890.015,-213.268 889.065,-202.715 883.227,-211.557 890.015,-213.268"/>
</g>
<!-- Node23 -->
<g id="node53" class="node"><title>Node23</title>
<polygon fill="white" stroke="#bfbfbf" points="934.766,-181.5 934.766,-202.5 986.766,-202.5 986.766,-181.5 934.766,-181.5"/>
<text text-anchor="middle" x="960.766" y="-189.5" font-family="Helvetica,sans-Serif" font-size="10.00">sstream</text>
</g>
<!-- Node3&#45;&gt;Node23 -->
<g id="edge70" class="edge"><title>Node3&#45;&gt;Node23</title>
<path fill="none" stroke="midnightblue" d="M869.64,-304.085C886.732,-283.061 924.397,-236.733 945.562,-210.7"/>
<polygon fill="midnightblue" stroke="midnightblue" points="948.461,-212.682 952.054,-202.715 943.03,-208.267 948.461,-212.682"/>
</g>
<!-- Node4&#45;&gt;Node5 -->
<g id="edge8" class="edge"><title>Node4&#45;&gt;Node5</title>
<path fill="none" stroke="midnightblue" d="M1066.64,-250.943C1010.77,-240.069 892.655,-217.083 821.562,-203.248"/>
<polygon fill="midnightblue" stroke="midnightblue" points="821.912,-199.75 811.427,-201.275 820.574,-206.621 821.912,-199.75"/>
</g>
<!-- Node4&#45;&gt;Node7 -->
<g id="edge54" class="edge"><title>Node4&#45;&gt;Node7</title>
<path fill="none" stroke="midnightblue" d="M1104.45,-246.284C1109.78,-237.06 1116.83,-223.192 1119.77,-210 1123.24,-194.382 1123.44,-189.572 1119.77,-174 1106.2,-116.542 1065.87,-58.3255 1043.73,-29.5207"/>
<polygon fill="midnightblue" stroke="midnightblue" points="1046.41,-27.2725 1037.49,-21.5589 1040.9,-31.5894 1046.41,-27.2725"/>
</g>
<!-- Node9 -->
<g id="node17" class="node"><title>Node9</title>
<a xlink:href="vec3_8h.html" target="_top" xlink:title="base/vec/vec3.h">
<polygon fill="white" stroke="black" points="1265.27,-116.5 1265.27,-137.5 1354.27,-137.5 1354.27,-116.5 1265.27,-116.5"/>
<text text-anchor="middle" x="1309.77" y="-124.5" font-family="Helvetica,sans-Serif" font-size="10.00">base/vec/vec3.h</text>
</a>
</g>
<!-- Node4&#45;&gt;Node9 -->
<g id="edge52" class="edge"><title>Node4&#45;&gt;Node9</title>
<path fill="none" stroke="midnightblue" d="M1129.09,-252.499C1175.08,-245.311 1257.8,-229.988 1279.77,-210 1297.48,-193.879 1304.75,-166.498 1307.72,-147.619"/>
<polygon fill="midnightblue" stroke="midnightblue" points="1311.2,-148.004 1309.02,-137.636 1304.26,-147.1 1311.2,-148.004"/>
</g>
<!-- Node11 -->
<g id="node22" class="node"><title>Node11</title>
<polygon fill="white" stroke="#bfbfbf" points="1342.77,-0.5 1342.77,-21.5 1386.77,-21.5 1386.77,-0.5 1342.77,-0.5"/>
<text text-anchor="middle" x="1364.77" y="-8.5" font-family="Helvetica,sans-Serif" font-size="10.00">cmath</text>
</g>
<!-- Node4&#45;&gt;Node11 -->
<g id="edge56" class="edge"><title>Node4&#45;&gt;Node11</title>
<path fill="none" stroke="midnightblue" d="M1128.86,-255.715C1176.67,-252.725 1270.2,-242.808 1341.77,-210 1388.65,-188.509 1410.3,-184.422 1432.77,-138 1452.02,-98.2161 1412.29,-52.8398 1385.83,-28.5501"/>
<polygon fill="midnightblue" stroke="midnightblue" points="1387.93,-25.7344 1378.13,-21.7184 1383.29,-30.9719 1387.93,-25.7344"/>
</g>
<!-- Node16 -->
<g id="node34" class="node"><title>Node16</title>
<a xlink:href="math_8h.html" target="_top" xlink:title="base/std_ext/math.h">
<polygon fill="white" stroke="black" points="1004.77,-181.5 1004.77,-202.5 1110.77,-202.5 1110.77,-181.5 1004.77,-181.5"/>
<text text-anchor="middle" x="1057.77" y="-189.5" font-family="Helvetica,sans-Serif" font-size="10.00">base/std_ext/math.h</text>
</a>
</g>
<!-- Node4&#45;&gt;Node16 -->
<g id="edge36" class="edge"><title>Node4&#45;&gt;Node16</title>
<path fill="none" stroke="midnightblue" d="M1091.16,-246.267C1085.34,-236.801 1076.71,-222.777 1069.68,-211.357"/>
<polygon fill="midnightblue" stroke="midnightblue" points="1072.47,-209.216 1064.25,-202.534 1066.51,-212.885 1072.47,-209.216"/>
</g>
<!-- Node18 -->
<g id="node39" class="node"><title>Node18</title>
<a xlink:href="shared__ptr__container_8h.html" target="_top" xlink:title="base/std_ext/shared\l_ptr_container.h">
<polygon fill="white" stroke="black" points="1166.27,-175 1166.27,-209 1271.27,-209 1271.27,-175 1166.27,-175"/>
<text text-anchor="start" x="1174.27" y="-196" font-family="Helvetica,sans-Serif" font-size="10.00">base/std_ext/shared</text>
<text text-anchor="middle" x="1218.77" y="-183" font-family="Helvetica,sans-Serif" font-size="10.00">_ptr_container.h</text>
</a>
</g>
<!-- Node4&#45;&gt;Node18 -->
<g id="edge42" class="edge"><title>Node4&#45;&gt;Node18</title>
<path fill="none" stroke="midnightblue" d="M1117.48,-246.412C1133.74,-237.677 1157.35,-224.99 1177.69,-214.063"/>
<polygon fill="midnightblue" stroke="midnightblue" points="1179.62,-217.003 1186.77,-209.187 1176.31,-210.836 1179.62,-217.003"/>
</g>
<!-- Node4&#45;&gt;Node19 -->
<g id="edge62" class="edge"><title>Node4&#45;&gt;Node19</title>
<path fill="none" stroke="midnightblue" d="M1129.07,-254.695C1170.92,-250.563 1246.48,-239.375 1303.77,-210 1335.49,-193.732 1365.09,-164.312 1382.31,-145.224"/>
<polygon fill="midnightblue" stroke="midnightblue" points="1385.12,-147.323 1389.1,-137.504 1379.87,-142.698 1385.12,-147.323"/>
</g>
<!-- Node4&#45;&gt;Node22 -->
<g id="edge58" class="edge"><title>Node4&#45;&gt;Node22</title>
<path fill="none" stroke="midnightblue" d="M1066.65,-250.669C1031.68,-243.057 973.547,-228.909 925.766,-210 923.646,-209.161 921.488,-208.226 919.339,-207.236"/>
<polygon fill="midnightblue" stroke="midnightblue" points="920.635,-203.972 910.121,-202.662 917.523,-210.242 920.635,-203.972"/>
</g>
<!-- Node4&#45;&gt;Node23 -->
<g id="edge60" class="edge"><title>Node4&#45;&gt;Node23</title>
<path fill="none" stroke="midnightblue" d="M1074.13,-246.459C1053.37,-237.117 1022.41,-222.982 995.766,-210 993.969,-209.125 992.126,-208.214 990.271,-207.288"/>
<polygon fill="midnightblue" stroke="midnightblue" points="991.552,-204.014 981.049,-202.619 988.39,-210.259 991.552,-204.014"/>
</g>
<!-- Node5&#45;&gt;Node6 -->
<g id="edge10" class="edge"><title>Node5&#45;&gt;Node6</title>
<path fill="none" stroke="midnightblue" d="M778.232,-181.27C797.573,-165.672 827.383,-136.376 808.766,-116 777.729,-82.0316 468.814,-72.3803 342.333,-69.8409"/>
<polygon fill="midnightblue" stroke="midnightblue" points="342.175,-66.3372 332.109,-69.6432 342.039,-73.3359 342.175,-66.3372"/>
</g>
<!-- Node5&#45;&gt;Node7 -->
<g id="edge34" class="edge"><title>Node5&#45;&gt;Node7</title>
<path fill="none" stroke="midnightblue" d="M797.842,-181.465C806.582,-178.895 815.994,-176.242 824.766,-174 897.907,-155.305 935.365,-189.282 990.766,-138 1020.6,-110.381 1027.36,-60.4023 1028.68,-32.0759"/>
<polygon fill="midnightblue" stroke="midnightblue" points="1032.18,-31.8076 1028.96,-21.7159 1025.19,-31.6168 1032.18,-31.8076"/>
</g>
<!-- Node5&#45;&gt;Node9 -->
<g id="edge16" class="edge"><title>Node5&#45;&gt;Node9</title>
<path fill="none" stroke="midnightblue" d="M811.433,-181.922C826.23,-179.05 842.628,-176.127 857.766,-174 1030.82,-149.686 1078.87,-163.595 1254.89,-138.151"/>
<polygon fill="midnightblue" stroke="midnightblue" points="1255.63,-141.58 1265.01,-136.665 1254.61,-134.654 1255.63,-141.58"/>
</g>
<!-- Node12 -->
<g id="node25" class="node"><title>Node12</title>
<polygon fill="white" stroke="#bfbfbf" points="855.766,-116.5 855.766,-137.5 901.766,-137.5 901.766,-116.5 855.766,-116.5"/>
<text text-anchor="middle" x="878.766" y="-124.5" font-family="Helvetica,sans-Serif" font-size="10.00">cstdint</text>
</g>
<!-- Node5&#45;&gt;Node12 -->
<g id="edge26" class="edge"><title>Node5&#45;&gt;Node12</title>
<path fill="none" stroke="midnightblue" d="M782.498,-181.412C801.127,-170.883 829.916,-154.611 851.162,-142.602"/>
<polygon fill="midnightblue" stroke="midnightblue" points="853.058,-145.551 860.041,-137.584 849.613,-139.457 853.058,-145.551"/>
</g>
<!-- Node13 -->
<g id="node27" class="node"><title>Node13</title>
<polygon fill="white" stroke="#bfbfbf" points="505.266,-116.5 505.266,-137.5 564.266,-137.5 564.266,-116.5 505.266,-116.5"/>
<text text-anchor="middle" x="534.766" y="-124.5" font-family="Helvetica,sans-Serif" font-size="10.00">stdexcept</text>
</g>
<!-- Node5&#45;&gt;Node13 -->
<g id="edge28" class="edge"><title>Node5&#45;&gt;Node13</title>
<path fill="none" stroke="midnightblue" d="M726.056,-181.413C689.547,-171.148 632.37,-155.026 574.329,-138.438"/>
<polygon fill="midnightblue" stroke="midnightblue" points="575.208,-135.049 564.631,-135.664 573.283,-141.779 575.208,-135.049"/>
</g>
<!-- Node14 -->
<g id="node29" class="node"><title>Node14</title>
<polygon fill="white" stroke="#bfbfbf" points="759.266,-116.5 759.266,-137.5 800.266,-137.5 800.266,-116.5 759.266,-116.5"/>
<text text-anchor="middle" x="779.766" y="-124.5" font-family="Helvetica,sans-Serif" font-size="10.00">string</text>
</g>
<!-- Node5&#45;&gt;Node14 -->
<g id="edge30" class="edge"><title>Node5&#45;&gt;Node14</title>
<path fill="none" stroke="midnightblue" d="M766.408,-181.267C768.668,-172.085 771.984,-158.615 774.746,-147.392"/>
<polygon fill="midnightblue" stroke="midnightblue" points="778.181,-148.08 777.173,-137.534 771.384,-146.407 778.181,-148.08"/>
</g>
<!-- Node15 -->
<g id="node31" class="node"><title>Node15</title>
<polygon fill="white" stroke="#bfbfbf" points="919.766,-116.5 919.766,-137.5 981.766,-137.5 981.766,-116.5 919.766,-116.5"/>
<text text-anchor="middle" x="950.766" y="-124.5" font-family="Helvetica,sans-Serif" font-size="10.00">type_traits</text>
</g>
<!-- Node5&#45;&gt;Node15 -->
<g id="edge32" class="edge"><title>Node5&#45;&gt;Node15</title>
<path fill="none" stroke="midnightblue" d="M794.227,-181.412C825.876,-170.411 875.564,-153.14 910.451,-141.013"/>
<polygon fill="midnightblue" stroke="midnightblue" points="912.021,-144.173 920.318,-137.584 909.723,-137.561 912.021,-144.173"/>
</g>
<!-- Node6&#45;&gt;Node7 -->
<g id="edge12" class="edge"><title>Node6&#45;&gt;Node7</title>
<path fill="none" stroke="midnightblue" d="M332.021,-65.6097C466.923,-55.0364 877.996,-22.8171 996.485,-13.5301"/>
<polygon fill="midnightblue" stroke="midnightblue" points="997.013,-16.9995 1006.71,-12.7287 996.466,-10.0209 997.013,-16.9995"/>
</g>
<!-- Node8 -->
<g id="node15" class="node"><title>Node8</title>
<polygon fill="white" stroke="#bfbfbf" points="101.766,-0.5 101.766,-21.5 153.766,-21.5 153.766,-0.5 101.766,-0.5"/>
<text text-anchor="middle" x="127.766" y="-8.5" font-family="Helvetica,sans-Serif" font-size="10.00">ostream</text>
</g>
<!-- Node6&#45;&gt;Node8 -->
<g id="edge14" class="edge"><title>Node6&#45;&gt;Node8</title>
<path fill="none" stroke="midnightblue" d="M259.61,-58.4966C232.617,-48.7725 192.406,-34.2864 163.493,-23.8707"/>
<polygon fill="midnightblue" stroke="midnightblue" points="164.372,-20.4673 153.778,-20.3708 162,-27.053 164.372,-20.4673"/>
</g>
<!-- Node9&#45;&gt;Node6 -->
<g id="edge18" class="edge"><title>Node9&#45;&gt;Node6</title>
<path fill="none" stroke="midnightblue" d="M1265.03,-117.203C1262.24,-116.751 1259.47,-116.344 1256.77,-116 1077.47,-93.1829 517.334,-75.5607 341.872,-70.4844"/>
<polygon fill="midnightblue" stroke="midnightblue" points="341.947,-66.9852 331.85,-70.196 341.746,-73.9823 341.947,-66.9852"/>
</g>
<!-- Node10 -->
<g id="node20" class="node"><title>Node10</title>
<a xlink:href="vec2_8h.html" target="_top" xlink:title="vec2.h">
<polygon fill="white" stroke="black" points="1293.77,-58.5 1293.77,-79.5 1339.77,-79.5 1339.77,-58.5 1293.77,-58.5"/>
<text text-anchor="middle" x="1316.77" y="-66.5" font-family="Helvetica,sans-Serif" font-size="10.00">vec2.h</text>
</a>
</g>
<!-- Node9&#45;&gt;Node10 -->
<g id="edge20" class="edge"><title>Node9&#45;&gt;Node10</title>
<path fill="none" stroke="midnightblue" d="M1311.05,-116.362C1311.95,-108.922 1313.18,-98.7427 1314.26,-89.7276"/>
<polygon fill="midnightblue" stroke="midnightblue" points="1317.77,-89.918 1315.49,-79.5707 1310.82,-89.0792 1317.77,-89.918"/>
</g>
<!-- Node9&#45;&gt;Node11 -->
<g id="edge24" class="edge"><title>Node9&#45;&gt;Node11</title>
<path fill="none" stroke="midnightblue" d="M1321.01,-116.47C1329.85,-107.572 1341.8,-94.0596 1348.77,-80 1356.26,-64.8734 1360.32,-46.1253 1362.47,-31.9912"/>
<polygon fill="midnightblue" stroke="midnightblue" points="1365.98,-32.1744 1363.82,-21.8024 1359.04,-31.2582 1365.98,-32.1744"/>
</g>
<!-- Node10&#45;&gt;Node11 -->
<g id="edge22" class="edge"><title>Node10&#45;&gt;Node11</title>
<path fill="none" stroke="midnightblue" d="M1325.57,-58.3619C1332.27,-50.2678 1341.65,-38.9318 1349.56,-29.3796"/>
<polygon fill="midnightblue" stroke="midnightblue" points="1352.34,-31.5061 1356.02,-21.5707 1346.95,-27.0431 1352.34,-31.5061"/>
</g>
<!-- Node16&#45;&gt;Node11 -->
<g id="edge38" class="edge"><title>Node16&#45;&gt;Node11</title>
<path fill="none" stroke="midnightblue" d="M1074.36,-181.488C1097.89,-166.648 1142.35,-138.819 1180.77,-116 1235.63,-83.4107 1300.64,-46.7673 1336.85,-26.5333"/>
<polygon fill="midnightblue" stroke="midnightblue" points="1338.81,-29.4465 1345.83,-21.5166 1335.4,-23.3341 1338.81,-29.4465"/>
</g>
<!-- Node17 -->
<g id="node37" class="node"><title>Node17</title>
<polygon fill="white" stroke="#bfbfbf" points="627.766,-116.5 627.766,-137.5 667.766,-137.5 667.766,-116.5 627.766,-116.5"/>
<text text-anchor="middle" x="647.766" y="-124.5" font-family="Helvetica,sans-Serif" font-size="10.00">limits</text>
</g>
<!-- Node16&#45;&gt;Node17 -->
<g id="edge40" class="edge"><title>Node16&#45;&gt;Node17</title>
<path fill="none" stroke="midnightblue" d="M1025.2,-181.419C1015.79,-178.667 1005.44,-175.935 995.766,-174 859.003,-146.637 817.306,-170.442 677.629,-137.7"/>
<polygon fill="midnightblue" stroke="midnightblue" points="678.384,-134.282 667.843,-135.352 676.751,-141.089 678.384,-134.282"/>
</g>
<!-- Node18&#45;&gt;Node7 -->
<g id="edge44" class="edge"><title>Node18&#45;&gt;Node7</title>
<path fill="none" stroke="midnightblue" d="M1205.9,-174.848C1198.27,-164.407 1188.6,-150.68 1180.77,-138 1159.56,-103.655 1167.51,-85.2885 1137.77,-58 1115.94,-37.9763 1084.26,-25.6217 1060.68,-18.6364"/>
<polygon fill="midnightblue" stroke="midnightblue" points="1061.37,-15.1957 1050.79,-15.8806 1059.49,-21.9384 1061.37,-15.1957"/>
</g>
<!-- Node18&#45;&gt;Node19 -->
<g id="edge46" class="edge"><title>Node18&#45;&gt;Node19</title>
<path fill="none" stroke="midnightblue" d="M1265.8,-174.922C1295.87,-164.001 1334.27,-150.056 1361.89,-140.028"/>
<polygon fill="midnightblue" stroke="midnightblue" points="1363.34,-143.226 1371.54,-136.523 1360.95,-136.647 1363.34,-143.226"/>
</g>
<!-- Node20 -->
<g id="node44" class="node"><title>Node20</title>
<polygon fill="white" stroke="#bfbfbf" points="1189.27,-116.5 1189.27,-137.5 1248.27,-137.5 1248.27,-116.5 1189.27,-116.5"/>
<text text-anchor="middle" x="1218.77" y="-124.5" font-family="Helvetica,sans-Serif" font-size="10.00">functional</text>
</g>
<!-- Node18&#45;&gt;Node20 -->
<g id="edge48" class="edge"><title>Node18&#45;&gt;Node20</title>
<path fill="none" stroke="midnightblue" d="M1218.77,-174.922C1218.77,-166.67 1218.77,-156.692 1218.77,-147.982"/>
<polygon fill="midnightblue" stroke="midnightblue" points="1222.27,-147.852 1218.77,-137.852 1215.27,-147.852 1222.27,-147.852"/>
</g>
<!-- Node18&#45;&gt;Node21 -->
<g id="edge50" class="edge"><title>Node18&#45;&gt;Node21</title>
<path fill="none" stroke="midnightblue" d="M1166.23,-181.615C1151.26,-178.882 1134.9,-176.111 1119.77,-174 959.754,-151.687 914.249,-168.921 751.76,-137.885"/>
<polygon fill="midnightblue" stroke="midnightblue" points="752.393,-134.443 741.909,-135.973 751.058,-141.315 752.393,-134.443"/>
</g>
<!-- Node25&#45;&gt;Node7 -->
<g id="edge106" class="edge"><title>Node25&#45;&gt;Node7</title>
<path fill="none" stroke="midnightblue" d="M156.469,-246.309C157.019,-229.174 155.668,-195.325 138.766,-174 115.05,-144.078 81.3434,-170.161 60.7657,-138 55.496,-129.764 55.035,-123.922 60.7657,-116 109.037,-49.2682 155.869,-73.4579 236.766,-58 386.126,-29.46 866.984,-15.1886 996.422,-11.8029"/>
<polygon fill="midnightblue" stroke="midnightblue" points="996.583,-15.3 1006.49,-11.5431 996.403,-8.30236 996.583,-15.3"/>
</g>
<!-- Node25&#45;&gt;Node8 -->
<g id="edge100" class="edge"><title>Node25&#45;&gt;Node8</title>
<path fill="none" stroke="midnightblue" d="M108.568,-246.42C74.6099,-237.74 33.053,-224.546 22.7657,-210 5.58088,-185.701 -20.3034,-130.221 27.7657,-58 42.1447,-36.3967 69.2519,-24.5008 91.6197,-18.0854"/>
<polygon fill="midnightblue" stroke="midnightblue" points="92.7076,-21.4188 101.501,-15.5083 90.9409,-14.6454 92.7076,-21.4188"/>
</g>
<!-- Node25&#45;&gt;Node14 -->
<g id="edge98" class="edge"><title>Node25&#45;&gt;Node14</title>
<path fill="none" stroke="midnightblue" d="M207.794,-253.918C281.686,-248.791 420.926,-236.348 536.766,-210 615.371,-192.121 704.169,-158.089 749.544,-139.643"/>
<polygon fill="midnightblue" stroke="midnightblue" points="751.144,-142.77 759.07,-135.739 748.49,-136.293 751.144,-142.77"/>
</g>
<!-- Node25&#45;&gt;Node24 -->
<g id="edge82" class="edge"><title>Node25&#45;&gt;Node24</title>
<path fill="none" stroke="midnightblue" d="M161.929,-246.425C170.608,-230.027 184.071,-197.87 171.766,-174 164.867,-160.619 152.202,-150.211 139.797,-142.63"/>
<polygon fill="midnightblue" stroke="midnightblue" points="141.325,-139.474 130.896,-137.607 137.885,-145.57 141.325,-139.474"/>
</g>
<!-- Node26 -->
<g id="node68" class="node"><title>Node26</title>
<a xlink:href="interval_8h.html" target="_top" xlink:title="base/interval.h">
<polygon fill="white" stroke="black" points="263.766,-181.5 263.766,-202.5 343.766,-202.5 343.766,-181.5 263.766,-181.5"/>
<text text-anchor="middle" x="303.766" y="-189.5" font-family="Helvetica,sans-Serif" font-size="10.00">base/interval.h</text>
</a>
</g>
<!-- Node25&#45;&gt;Node26 -->
<g id="edge84" class="edge"><title>Node25&#45;&gt;Node26</title>
<path fill="none" stroke="midnightblue" d="M179.874,-246.412C204.493,-235.6 242.902,-218.731 270.426,-206.642"/>
<polygon fill="midnightblue" stroke="midnightblue" points="271.919,-209.809 279.668,-202.584 269.105,-203.4 271.919,-209.809"/>
</g>
<!-- Node28 -->
<g id="node79" class="node"><title>Node28</title>
<polygon fill="white" stroke="#bfbfbf" points="31.2657,-181.5 31.2657,-202.5 66.2657,-202.5 66.2657,-181.5 31.2657,-181.5"/>
<text text-anchor="middle" x="48.7657" y="-189.5" font-family="Helvetica,sans-Serif" font-size="10.00">map</text>
</g>
<!-- Node25&#45;&gt;Node28 -->
<g id="edge102" class="edge"><title>Node25&#45;&gt;Node28</title>
<path fill="none" stroke="midnightblue" d="M136.524,-246.407C119.949,-237.146 95.4919,-223.158 74.7657,-210 73.9749,-209.498 73.174,-208.983 72.3679,-208.459"/>
<polygon fill="midnightblue" stroke="midnightblue" points="74.0059,-205.343 63.752,-202.676 70.105,-211.155 74.0059,-205.343"/>
</g>
<!-- Node29 -->
<g id="node81" class="node"><title>Node29</title>
<polygon fill="white" stroke="#bfbfbf" points="83.2657,-181.5 83.2657,-202.5 130.266,-202.5 130.266,-181.5 83.2657,-181.5"/>
<text text-anchor="middle" x="106.766" y="-189.5" font-family="Helvetica,sans-Serif" font-size="10.00">iterator</text>
</g>
<!-- Node25&#45;&gt;Node29 -->
<g id="edge104" class="edge"><title>Node25&#45;&gt;Node29</title>
<path fill="none" stroke="midnightblue" d="M147.674,-246.267C140.396,-236.612 129.543,-222.215 120.844,-210.675"/>
<polygon fill="midnightblue" stroke="midnightblue" points="123.521,-208.412 114.707,-202.534 117.931,-212.626 123.521,-208.412"/>
</g>
<!-- Node26&#45;&gt;Node6 -->
<g id="edge86" class="edge"><title>Node26&#45;&gt;Node6</title>
<path fill="none" stroke="midnightblue" d="M271.942,-181.402C241.317,-170.482 198.286,-152.988 188.766,-138 172.657,-112.639 205.432,-94.1386 237.681,-82.7156"/>
<polygon fill="midnightblue" stroke="midnightblue" points="238.796,-86.0333 247.168,-79.5399 236.574,-79.3953 238.796,-86.0333"/>
</g>
<!-- Node26&#45;&gt;Node13 -->
<g id="edge92" class="edge"><title>Node26&#45;&gt;Node13</title>
<path fill="none" stroke="midnightblue" d="M341.137,-181.484C383.457,-169.576 452.124,-150.254 495.294,-138.107"/>
<polygon fill="midnightblue" stroke="midnightblue" points="496.48,-141.409 505.158,-135.331 494.584,-134.671 496.48,-141.409"/>
</g>
<!-- Node26&#45;&gt;Node17 -->
<g id="edge94" class="edge"><title>Node26&#45;&gt;Node17</title>
<path fill="none" stroke="midnightblue" d="M344.085,-187.613C402.638,-180.695 514.595,-165.41 617.701,-137.9"/>
<polygon fill="midnightblue" stroke="midnightblue" points="618.915,-141.197 627.649,-135.199 617.081,-134.441 618.915,-141.197"/>
</g>
<!-- Node26&#45;&gt;Node21 -->
<g id="edge90" class="edge"><title>Node26&#45;&gt;Node21</title>
<path fill="none" stroke="midnightblue" d="M344.04,-186.922C423.309,-176.81 597.944,-153.918 675.721,-137.943"/>
<polygon fill="midnightblue" stroke="midnightblue" points="676.545,-141.346 685.594,-135.834 675.084,-134.5 676.545,-141.346"/>
</g>
<!-- Node26&#45;&gt;Node24 -->
<g id="edge88" class="edge"><title>Node26&#45;&gt;Node24</title>
<path fill="none" stroke="midnightblue" d="M272.367,-181.497C264.958,-179.029 257.086,-176.415 249.766,-174 215.585,-162.725 176.794,-150.072 148.091,-140.737"/>
<polygon fill="midnightblue" stroke="midnightblue" points="148.976,-137.345 138.383,-137.582 146.812,-144.002 148.976,-137.345"/>
</g>
<!-- Node27 -->
<g id="node75" class="node"><title>Node27</title>
<polygon fill="white" stroke="#bfbfbf" points="197.266,-116.5 197.266,-137.5 246.266,-137.5 246.266,-116.5 197.266,-116.5"/>
<text text-anchor="middle" x="221.766" y="-124.5" font-family="Helvetica,sans-Serif" font-size="10.00">istream</text>
</g>
<!-- Node26&#45;&gt;Node27 -->
<g id="edge96" class="edge"><title>Node26&#45;&gt;Node27</title>
<path fill="none" stroke="midnightblue" d="M290.225,-181.267C277.448,-171.139 258.087,-155.792 243.211,-144"/>
<polygon fill="midnightblue" stroke="midnightblue" points="245.065,-141.003 235.054,-137.534 240.717,-146.488 245.065,-141.003"/>
</g>
<!-- Node30&#45;&gt;Node7 -->
<g id="edge116" class="edge"><title>Node30&#45;&gt;Node7</title>
<path fill="none" stroke="midnightblue" d="M490.526,-181.464C486.274,-165.308 481.057,-134.362 496.766,-116 562.376,-39.3094 891.273,-17.4268 996.402,-12.341"/>
<polygon fill="midnightblue" stroke="midnightblue" points="996.874,-15.8229 1006.7,-11.8625 996.549,-8.83047 996.874,-15.8229"/>
</g>
<!-- Node30&#45;&gt;Node19 -->
<g id="edge112" class="edge"><title>Node30&#45;&gt;Node19</title>
<path fill="none" stroke="midnightblue" d="M527.841,-188.827C570.047,-184.968 644.164,-178.422 707.766,-174 995.348,-154.007 1074.15,-189.304 1361.69,-137.794"/>
<polygon fill="midnightblue" stroke="midnightblue" points="1362.35,-141.231 1371.57,-136.005 1361.11,-134.343 1362.35,-141.231"/>
</g>
<!-- Node30&#45;&gt;Node21 -->
<g id="edge118" class="edge"><title>Node30&#45;&gt;Node21</title>
<path fill="none" stroke="midnightblue" d="M527.837,-181.969C562.582,-171.734 618.317,-155.303 675.543,-138.359"/>
<polygon fill="midnightblue" stroke="midnightblue" points="676.891,-141.61 685.486,-135.414 674.904,-134.898 676.891,-141.61"/>
</g>
<!-- Node31 -->
<g id="node86" class="node"><title>Node31</title>
<polygon fill="white" stroke="#bfbfbf" points="329.766,-116.5 329.766,-137.5 449.766,-137.5 449.766,-116.5 329.766,-116.5"/>
<text text-anchor="middle" x="389.766" y="-124.5" font-family="Helvetica,sans-Serif" font-size="10.00">base/cereal/access.hpp</text>
</g>
<!-- Node30&#45;&gt;Node31 -->
<g id="edge110" class="edge"><title>Node30&#45;&gt;Node31</title>
<path fill="none" stroke="midnightblue" d="M476.592,-181.267C459.858,-170.807 434.217,-154.782 415.132,-142.854"/>
<polygon fill="midnightblue" stroke="midnightblue" points="416.955,-139.866 406.62,-137.534 413.245,-145.802 416.955,-139.866"/>
</g>
<!-- Node30&#45;&gt;Node32 -->
<g id="edge114" class="edge"><title>Node30&#45;&gt;Node32</title>
<path fill="none" stroke="midnightblue" d="M510.609,-181.267C527.531,-170.483 553.738,-153.782 572.61,-141.756"/>
<polygon fill="midnightblue" stroke="midnightblue" points="574.66,-144.6 581.213,-136.274 570.898,-138.697 574.66,-144.6"/>
</g>
<!-- Node33 -->
<g id="node93" class="node"><title>Node33</title>
<polygon fill="white" stroke="#bfbfbf" points="263.266,-116.5 263.266,-137.5 312.266,-137.5 312.266,-116.5 263.266,-116.5"/>
<text text-anchor="middle" x="287.766" y="-124.5" font-family="Helvetica,sans-Serif" font-size="10.00">cassert</text>
</g>
<!-- Node30&#45;&gt;Node33 -->
<g id="edge120" class="edge"><title>Node30&#45;&gt;Node33</title>
<path fill="none" stroke="midnightblue" d="M459.566,-181.537C426.603,-171.405 375.079,-155.446 322.159,-138.418"/>
<polygon fill="midnightblue" stroke="midnightblue" points="323.207,-135.078 312.615,-135.34 321.058,-141.74 323.207,-135.078"/>
</g>
<!-- Node34&#45;&gt;Node9 -->
<g id="edge124" class="edge"><title>Node34&#45;&gt;Node9</title>
<path fill="none" stroke="midnightblue" d="M1395.16,-246.362C1379.49,-224.46 1343.43,-174.062 1323.55,-146.27"/>
<polygon fill="midnightblue" stroke="midnightblue" points="1326.15,-143.882 1317.48,-137.785 1320.45,-147.955 1326.15,-143.882"/>
</g>
</g>
</svg>
