<?xml version="1.0" encoding="UTF-8" standalone="no"?>
<!DOCTYPE svg PUBLIC "-//W3C//DTD SVG 1.1//EN"
 "http://www.w3.org/Graphics/SVG/1.1/DTD/svg11.dtd">
<!-- Generated by graphviz version 2.26.3 (20100126.1600)
 -->
<!-- Title: src/analysis/physics/common/ParticleIDCheck.h Pages: 1 -->
<svg width="3213pt" height="580pt"
 viewBox="0.00 0.00 3213.00 580.00" xmlns="http://www.w3.org/2000/svg" xmlns:xlink="http://www.w3.org/1999/xlink">
<g id="graph1" class="graph" transform="scale(1 1) rotate(0) translate(4 576)">
<title>src/analysis/physics/common/ParticleIDCheck.h</title>
<polygon fill="white" stroke="white" points="-4,5 -4,-576 3210,-576 3210,5 -4,5"/>
<!-- Node1 -->
<g id="node1" class="node"><title>Node1</title>
<polygon fill="#bfbfbf" stroke="black" points="1507,-537 1507,-571 1647,-571 1647,-537 1507,-537"/>
<text text-anchor="start" x="1515" y="-558" font-family="Helvetica,sans-Serif" font-size="10.00">src/analysis/physics</text>
<text text-anchor="middle" x="1577" y="-545" font-family="Helvetica,sans-Serif" font-size="10.00">/common/ParticleIDCheck.h</text>
</g>
<!-- Node2 -->
<g id="node3" class="node"><title>Node2</title>
<a xlink:href="_physics_8h.html" target="_top" xlink:title="analysis/physics/Physics.h">
<polygon fill="white" stroke="black" points="1509,-478.5 1509,-499.5 1645,-499.5 1645,-478.5 1509,-478.5"/>
<text text-anchor="middle" x="1577" y="-486.5" font-family="Helvetica,sans-Serif" font-size="10.00">analysis/physics/Physics.h</text>
</a>
</g>
<!-- Node1&#45;&gt;Node2 -->
<g id="edge2" class="edge"><title>Node1&#45;&gt;Node2</title>
<path fill="none" stroke="midnightblue" d="M1577,-536.922C1577,-528.67 1577,-518.692 1577,-509.982"/>
<polygon fill="midnightblue" stroke="midnightblue" points="1580.5,-509.852 1577,-499.852 1573.5,-509.852 1580.5,-509.852"/>
</g>
<!-- Node5 -->
<g id="node9" class="node"><title>Node5</title>
<a xlink:href="interval_8h.html" target="_top" xlink:title="base/interval.h">
<polygon fill="white" stroke="black" points="2628,-181.5 2628,-202.5 2708,-202.5 2708,-181.5 2628,-181.5"/>
<text text-anchor="middle" x="2668" y="-189.5" font-family="Helvetica,sans-Serif" font-size="10.00">base/interval.h</text>
</a>
</g>
<!-- Node1&#45;&gt;Node5 -->
<g id="edge338" class="edge"><title>Node1&#45;&gt;Node5</title>
<path fill="none" stroke="midnightblue" d="M1647.41,-551.068C1918.27,-539.334 2878,-493.355 2878,-431 2878,-431 2878,-431 2878,-315 2878,-294.638 2758.93,-235.199 2700.11,-207.078"/>
<polygon fill="midnightblue" stroke="midnightblue" points="2701.41,-203.821 2690.87,-202.685 2698.4,-210.142 2701.41,-203.821"/>
</g>
<!-- Node14 -->
<g id="node27" class="node"><title>Node14</title>
<polygon fill="white" stroke="#bfbfbf" points="357.5,-116.5 357.5,-137.5 398.5,-137.5 398.5,-116.5 357.5,-116.5"/>
<text text-anchor="middle" x="378" y="-124.5" font-family="Helvetica,sans-Serif" font-size="10.00">string</text>
</g>
<!-- Node1&#45;&gt;Node14 -->
<g id="edge340" class="edge"><title>Node1&#45;&gt;Node14</title>
<path fill="none" stroke="midnightblue" d="M1506.93,-551.826C1215.44,-542.332 114,-501.772 114,-431 114,-431 114,-431 114,-257 114,-219.157 105.77,-200.28 133,-174 163.218,-144.836 288.25,-132.886 347.105,-128.806"/>
<polygon fill="midnightblue" stroke="midnightblue" points="347.539,-132.285 357.286,-128.133 347.077,-125.3 347.539,-132.285"/>
</g>
<!-- Node3 -->
<g id="node5" class="node"><title>Node3</title>
<a xlink:href="manager__t_8h.html" target="_top" xlink:title="analysis/physics/manager_t.h">
<polygon fill="white" stroke="black" points="1756,-420.5 1756,-441.5 1902,-441.5 1902,-420.5 1756,-420.5"/>
<text text-anchor="middle" x="1829" y="-428.5" font-family="Helvetica,sans-Serif" font-size="10.00">analysis/physics/manager_t.h</text>
</a>
</g>
<!-- Node2&#45;&gt;Node3 -->
<g id="edge4" class="edge"><title>Node2&#45;&gt;Node3</title>
<path fill="none" stroke="midnightblue" d="M1622.64,-478.497C1664.96,-468.755 1728.06,-454.233 1773.33,-443.813"/>
<polygon fill="midnightblue" stroke="midnightblue" points="1774.32,-447.177 1783.28,-441.523 1772.75,-440.355 1774.32,-447.177"/>
</g>
<!-- Node4 -->
<g id="node7" class="node"><title>Node4</title>
<a xlink:href="_histogram_factories_8h.html" target="_top" xlink:title="analysis/plot/HistogramFactories.h">
<polygon fill="white" stroke="black" points="1216,-246.5 1216,-267.5 1384,-267.5 1384,-246.5 1216,-246.5"/>
<text text-anchor="middle" x="1300" y="-254.5" font-family="Helvetica,sans-Serif" font-size="10.00">analysis/plot/HistogramFactories.h</text>
</a>
</g>
<!-- Node2&#45;&gt;Node4 -->
<g id="edge6" class="edge"><title>Node2&#45;&gt;Node4</title>
<path fill="none" stroke="midnightblue" d="M1513.75,-478.48C1485.8,-471.536 1453.75,-460.223 1429,-442 1368.19,-397.223 1325.79,-314.91 1308.57,-277.035"/>
<polygon fill="midnightblue" stroke="midnightblue" points="1311.64,-275.323 1304.39,-267.598 1305.24,-278.159 1311.64,-275.323"/>
</g>
<!-- Node2&#45;&gt;Node14 -->
<g id="edge330" class="edge"><title>Node2&#45;&gt;Node14</title>
<path fill="none" stroke="midnightblue" d="M1508.57,-488.231C1252.55,-485.124 363.091,-472.194 311,-442 279.738,-423.88 268,-409.134 268,-373 268,-373 268,-373 268,-257 268,-205.924 318.094,-164.582 350.672,-143.096"/>
<polygon fill="midnightblue" stroke="midnightblue" points="352.789,-145.897 359.34,-137.57 349.026,-139.994 352.789,-145.897"/>
</g>
<!-- Node15 -->
<g id="node29" class="node"><title>Node15</title>
<a xlink:href="memory_8h.html" target="_top" xlink:title="base/std_ext/memory.h">
<polygon fill="white" stroke="black" points="1827.5,-181.5 1827.5,-202.5 1946.5,-202.5 1946.5,-181.5 1827.5,-181.5"/>
<text text-anchor="middle" x="1887" y="-189.5" font-family="Helvetica,sans-Serif" font-size="10.00">base/std_ext/memory.h</text>
</a>
</g>
<!-- Node2&#45;&gt;Node15 -->
<g id="edge28" class="edge"><title>Node2&#45;&gt;Node15</title>
<path fill="none" stroke="midnightblue" d="M1645.12,-485.922C1736.6,-480.835 1893.51,-468.481 1944,-442 1980.51,-422.849 2006,-414.228 2006,-373 2006,-373 2006,-373 2006,-315 2006,-264.678 1953.91,-227.104 1918.66,-207.436"/>
<polygon fill="midnightblue" stroke="midnightblue" points="1920.13,-204.251 1909.66,-202.596 1916.81,-210.416 1920.13,-204.251"/>
</g>
<!-- Node16 -->
<g id="node31" class="node"><title>Node16</title>
<polygon fill="white" stroke="#bfbfbf" points="1659,-116.5 1659,-137.5 1711,-137.5 1711,-116.5 1659,-116.5"/>
<text text-anchor="middle" x="1685" y="-124.5" font-family="Helvetica,sans-Serif" font-size="10.00">memory</text>
</g>
<!-- Node2&#45;&gt;Node16 -->
<g id="edge334" class="edge"><title>Node2&#45;&gt;Node16</title>
<path fill="none" stroke="midnightblue" d="M1645.29,-483.394C1737.16,-475.249 1891.4,-459.225 1911,-442 1934.89,-421.004 1930,-404.808 1930,-373 1930,-373 1930,-373 1930,-315 1930,-283.192 1934.13,-267.835 1911,-246 1855.47,-193.582 1806.62,-252.23 1743,-210 1719.66,-194.507 1702.9,-166.14 1693.58,-146.931"/>
<polygon fill="midnightblue" stroke="midnightblue" points="1696.64,-145.207 1689.27,-137.589 1690.28,-148.136 1696.64,-145.207"/>
</g>
<!-- Node17 -->
<g id="node33" class="node"><title>Node17</title>
<polygon fill="white" stroke="#bfbfbf" points="1766.5,-116.5 1766.5,-137.5 1795.5,-137.5 1795.5,-116.5 1766.5,-116.5"/>
<text text-anchor="middle" x="1781" y="-124.5" font-family="Helvetica,sans-Serif" font-size="10.00">list</text>
</g>
<!-- Node2&#45;&gt;Node17 -->
<g id="edge328" class="edge"><title>Node2&#45;&gt;Node17</title>
<path fill="none" stroke="midnightblue" d="M1645.08,-486.64C1755.5,-482.051 1968.33,-469.822 2038,-442 2077.13,-426.373 2089.34,-418.869 2113,-384 2166.87,-304.609 2227.37,-245.146 2163,-174 2111.15,-116.693 1897.46,-156.499 1805.6,-137.397"/>
<polygon fill="midnightblue" stroke="midnightblue" points="1806.35,-133.976 1795.8,-134.992 1804.68,-140.774 1806.35,-133.976"/>
</g>
<!-- Node18 -->
<g id="node35" class="node"><title>Node18</title>
<a xlink:href="_t_event_8h.html" target="_top" xlink:title="tree/TEvent.h">
<polygon fill="white" stroke="black" points="2078,-181.5 2078,-202.5 2154,-202.5 2154,-181.5 2078,-181.5"/>
<text text-anchor="middle" x="2116" y="-189.5" font-family="Helvetica,sans-Serif" font-size="10.00">tree/TEvent.h</text>
</a>
</g>
<!-- Node2&#45;&gt;Node18 -->
<g id="edge34" class="edge"><title>Node2&#45;&gt;Node18</title>
<path fill="none" stroke="midnightblue" d="M1645.38,-484.3C1743.2,-477.013 1917.9,-461.747 1978,-442 2036.81,-422.675 2099,-434.907 2099,-373 2099,-373 2099,-373 2099,-315 2099,-278.733 2106.34,-237.014 2111.38,-212.67"/>
<polygon fill="midnightblue" stroke="midnightblue" points="2114.82,-213.301 2113.49,-202.79 2107.98,-211.835 2114.82,-213.301"/>
</g>
<!-- Node20 -->
<g id="node42" class="node"><title>Node20</title>
<a xlink:href="_t_event_data_8h.html" target="_top" xlink:title="tree/TEventData.h">
<polygon fill="white" stroke="black" points="1437.5,-420.5 1437.5,-441.5 1534.5,-441.5 1534.5,-420.5 1437.5,-420.5"/>
<text text-anchor="middle" x="1486" y="-428.5" font-family="Helvetica,sans-Serif" font-size="10.00">tree/TEventData.h</text>
</a>
</g>
<!-- Node2&#45;&gt;Node20 -->
<g id="edge44" class="edge"><title>Node2&#45;&gt;Node20</title>
<path fill="none" stroke="midnightblue" d="M1560.31,-478.362C1546.58,-469.614 1526.92,-457.079 1511.26,-447.101"/>
<polygon fill="midnightblue" stroke="midnightblue" points="1512.9,-443.994 1502.58,-441.571 1509.14,-449.897 1512.9,-443.994"/>
</g>
<!-- Node51 -->
<g id="node158" class="node"><title>Node51</title>
<polygon fill="white" stroke="#bfbfbf" points="453.5,-116.5 453.5,-137.5 512.5,-137.5 512.5,-116.5 453.5,-116.5"/>
<text text-anchor="middle" x="483" y="-124.5" font-family="Helvetica,sans-Serif" font-size="10.00">functional</text>
</g>
<!-- Node2&#45;&gt;Node51 -->
<g id="edge336" class="edge"><title>Node2&#45;&gt;Node51</title>
<path fill="none" stroke="midnightblue" d="M1508.74,-488.43C1358.58,-486.519 988.468,-478.197 681,-442 512.698,-422.187 306,-542.465 306,-373 306,-373 306,-373 306,-257 306,-189.124 391.598,-152.784 443.741,-136.943"/>
<polygon fill="midnightblue" stroke="midnightblue" points="444.755,-140.294 453.374,-134.133 442.794,-133.574 444.755,-140.294"/>
</g>
<!-- Node55 -->
<g id="node187" class="node"><title>Node55</title>
<polygon fill="white" stroke="#bfbfbf" points="94.5,-116.5 94.5,-137.5 129.5,-137.5 129.5,-116.5 94.5,-116.5"/>
<text text-anchor="middle" x="112" y="-124.5" font-family="Helvetica,sans-Serif" font-size="10.00">map</text>
</g>
<!-- Node2&#45;&gt;Node55 -->
<g id="edge332" class="edge"><title>Node2&#45;&gt;Node55</title>
<path fill="none" stroke="midnightblue" d="M1508.62,-487.704C1251.14,-482.675 348.211,-463.658 221,-442 119.561,-424.73 0,-475.898 0,-373 0,-373 0,-373 0,-257 0,-204.99 52.0903,-163.457 85.2221,-142.301"/>
<polygon fill="midnightblue" stroke="midnightblue" points="87.3323,-145.111 94.0053,-136.882 83.6569,-139.154 87.3323,-145.111"/>
</g>
<!-- Node60 -->
<g id="node207" class="node"><title>Node60</title>
<a xlink:href="_options_list_8h.html" target="_top" xlink:title="base/OptionsList.h">
<polygon fill="white" stroke="black" points="142,-181.5 142,-202.5 240,-202.5 240,-181.5 142,-181.5"/>
<text text-anchor="middle" x="191" y="-189.5" font-family="Helvetica,sans-Serif" font-size="10.00">base/OptionsList.h</text>
</a>
</g>
<!-- Node2&#45;&gt;Node60 -->
<g id="edge294" class="edge"><title>Node2&#45;&gt;Node60</title>
<path fill="none" stroke="midnightblue" d="M1508.68,-488.329C1245.44,-485.519 308.84,-473.35 254,-442 222.424,-423.949 210,-409.371 210,-373 210,-373 210,-373 210,-315 210,-278.649 201.795,-236.956 196.168,-212.64"/>
<polygon fill="midnightblue" stroke="midnightblue" points="199.538,-211.682 193.804,-202.773 192.731,-213.313 199.538,-211.682"/>
</g>
<!-- Node62 -->
<g id="node215" class="node"><title>Node62</title>
<a xlink:href="root__draw_8h.html" target="_top" xlink:title="analysis/plot/root\l_draw.h">
<polygon fill="white" stroke="black" points="409.5,-175 409.5,-209 500.5,-209 500.5,-175 409.5,-175"/>
<text text-anchor="start" x="417.5" y="-196" font-family="Helvetica,sans-Serif" font-size="10.00">analysis/plot/root</text>
<text text-anchor="middle" x="455" y="-183" font-family="Helvetica,sans-Serif" font-size="10.00">_draw.h</text>
</a>
</g>
<!-- Node2&#45;&gt;Node62 -->
<g id="edge306" class="edge"><title>Node2&#45;&gt;Node62</title>
<path fill="none" stroke="midnightblue" d="M1508.77,-485.429C1268.08,-472.385 473,-425.336 473,-373 473,-373 473,-373 473,-315 473,-281.764 466.486,-244.004 461.296,-219.191"/>
<polygon fill="midnightblue" stroke="midnightblue" points="464.712,-218.432 459.175,-209.4 457.871,-219.914 464.712,-218.432"/>
</g>
<!-- Node63 -->
<g id="node224" class="node"><title>Node63</title>
<polygon fill="white" stroke="#bfbfbf" points="1551.5,-420.5 1551.5,-441.5 1602.5,-441.5 1602.5,-420.5 1551.5,-420.5"/>
<text text-anchor="middle" x="1577" y="-428.5" font-family="Helvetica,sans-Serif" font-size="10.00">TH1D.h</text>
</g>
<!-- Node2&#45;&gt;Node63 -->
<g id="edge322" class="edge"><title>Node2&#45;&gt;Node63</title>
<path fill="none" stroke="midnightblue" d="M1577,-478.362C1577,-470.922 1577,-460.743 1577,-451.728"/>
<polygon fill="midnightblue" stroke="midnightblue" points="1580.5,-451.571 1577,-441.571 1573.5,-451.571 1580.5,-451.571"/>
</g>
<!-- Node64 -->
<g id="node226" class="node"><title>Node64</title>
<polygon fill="white" stroke="#bfbfbf" points="1619.5,-420.5 1619.5,-441.5 1670.5,-441.5 1670.5,-420.5 1619.5,-420.5"/>
<text text-anchor="middle" x="1645" y="-428.5" font-family="Helvetica,sans-Serif" font-size="10.00">TH2D.h</text>
</g>
<!-- Node2&#45;&gt;Node64 -->
<g id="edge324" class="edge"><title>Node2&#45;&gt;Node64</title>
<path fill="none" stroke="midnightblue" d="M1589.47,-478.362C1599.35,-469.941 1613.33,-458.011 1624.8,-448.231"/>
<polygon fill="midnightblue" stroke="midnightblue" points="1627.27,-450.723 1632.61,-441.571 1622.73,-445.397 1627.27,-450.723"/>
</g>
<!-- Node65 -->
<g id="node228" class="node"><title>Node65</title>
<polygon fill="white" stroke="#bfbfbf" points="1687.5,-420.5 1687.5,-441.5 1738.5,-441.5 1738.5,-420.5 1687.5,-420.5"/>
<text text-anchor="middle" x="1713" y="-428.5" font-family="Helvetica,sans-Serif" font-size="10.00">TH3D.h</text>
</g>
<!-- Node2&#45;&gt;Node65 -->
<g id="edge326" class="edge"><title>Node2&#45;&gt;Node65</title>
<path fill="none" stroke="midnightblue" d="M1601.63,-478.497C1623.16,-469.315 1654.64,-455.889 1678.64,-445.652"/>
<polygon fill="midnightblue" stroke="midnightblue" points="1680.27,-448.764 1688.1,-441.621 1677.52,-442.325 1680.27,-448.764"/>
</g>
<!-- Node4&#45;&gt;Node5 -->
<g id="edge8" class="edge"><title>Node4&#45;&gt;Node5</title>
<path fill="none" stroke="midnightblue" d="M1384.27,-254.058C1654.55,-244.589 2485.43,-215.218 2543,-210 2567.71,-207.76 2595,-203.983 2617.76,-200.465"/>
<polygon fill="midnightblue" stroke="midnightblue" points="2618.54,-203.886 2627.88,-198.874 2617.45,-196.971 2618.54,-203.886"/>
</g>
<!-- Node4&#45;&gt;Node14 -->
<g id="edge26" class="edge"><title>Node4&#45;&gt;Node14</title>
<path fill="none" stroke="midnightblue" d="M1215.61,-253.122C986.839,-242.562 371.635,-213.823 368,-210 352.147,-193.327 359.76,-165.48 367.857,-146.689"/>
<polygon fill="midnightblue" stroke="midnightblue" points="371.064,-148.093 372.136,-137.552 364.725,-145.124 371.064,-148.093"/>
</g>
<!-- Node6 -->
<g id="node11" class="node"><title>Node6</title>
<a xlink:href="printable_8h.html" target="_top" xlink:title="printable.h">
<polygon fill="white" stroke="black" points="2812,-58.5 2812,-79.5 2874,-79.5 2874,-58.5 2812,-58.5"/>
<text text-anchor="middle" x="2843" y="-66.5" font-family="Helvetica,sans-Serif" font-size="10.00">printable.h</text>
</a>
</g>
<!-- Node5&#45;&gt;Node6 -->
<g id="edge10" class="edge"><title>Node5&#45;&gt;Node6</title>
<path fill="none" stroke="midnightblue" d="M2664.68,-181.355C2660.41,-165.334 2655.16,-134.89 2670,-116 2686.18,-95.4085 2755.83,-81.5801 2801.68,-74.5208"/>
<polygon fill="midnightblue" stroke="midnightblue" points="2802.26,-77.9724 2811.63,-73.0353 2801.23,-71.049 2802.26,-77.9724"/>
</g>
<!-- Node9 -->
<g id="node17" class="node"><title>Node9</title>
<a xlink:href="types_8h.html" target="_top" xlink:title="types.h">
<polygon fill="white" stroke="black" points="2290.5,-116.5 2290.5,-137.5 2339.5,-137.5 2339.5,-116.5 2290.5,-116.5"/>
<text text-anchor="middle" x="2315" y="-124.5" font-family="Helvetica,sans-Serif" font-size="10.00">types.h</text>
</a>
</g>
<!-- Node5&#45;&gt;Node9 -->
<g id="edge16" class="edge"><title>Node5&#45;&gt;Node9</title>
<path fill="none" stroke="midnightblue" d="M2639.7,-181.474C2631.5,-178.722 2622.47,-175.978 2614,-174 2499.97,-147.372 2467.54,-162.344 2353,-138 2351.93,-137.772 2350.84,-137.529 2349.74,-137.274"/>
<polygon fill="midnightblue" stroke="midnightblue" points="2350.36,-133.821 2339.81,-134.739 2348.63,-140.604 2350.36,-133.821"/>
</g>
<!-- Node10 -->
<g id="node19" class="node"><title>Node10</title>
<polygon fill="white" stroke="#bfbfbf" points="1813,-116.5 1813,-137.5 1869,-137.5 1869,-116.5 1813,-116.5"/>
<text text-anchor="middle" x="1841" y="-124.5" font-family="Helvetica,sans-Serif" font-size="10.00">algorithm</text>
</g>
<!-- Node5&#45;&gt;Node10 -->
<g id="edge18" class="edge"><title>Node5&#45;&gt;Node10</title>
<path fill="none" stroke="midnightblue" d="M2627.85,-185.365C2603.39,-181.535 2571.46,-176.914 2543,-174 2282.1,-147.287 2215.45,-158.708 1954,-138 1929.18,-136.034 1901.34,-133.33 1879.5,-131.094"/>
<polygon fill="midnightblue" stroke="midnightblue" points="1879.61,-127.587 1869.3,-130.04 1878.89,-134.55 1879.61,-127.587"/>
</g>
<!-- Node11 -->
<g id="node21" class="node"><title>Node11</title>
<polygon fill="white" stroke="#bfbfbf" points="2100.5,-116.5 2100.5,-137.5 2159.5,-137.5 2159.5,-116.5 2100.5,-116.5"/>
<text text-anchor="middle" x="2130" y="-124.5" font-family="Helvetica,sans-Serif" font-size="10.00">stdexcept</text>
</g>
<!-- Node5&#45;&gt;Node11 -->
<g id="edge20" class="edge"><title>Node5&#45;&gt;Node11</title>
<path fill="none" stroke="midnightblue" d="M2627.79,-185.9C2603.31,-182.263 2571.38,-177.657 2543,-174 2406.22,-156.373 2243.51,-138.872 2169.8,-131.132"/>
<polygon fill="midnightblue" stroke="midnightblue" points="2169.89,-127.623 2159.58,-130.062 2169.16,-134.585 2169.89,-127.623"/>
</g>
<!-- Node12 -->
<g id="node23" class="node"><title>Node12</title>
<polygon fill="white" stroke="#bfbfbf" points="2281,-58.5 2281,-79.5 2321,-79.5 2321,-58.5 2281,-58.5"/>
<text text-anchor="middle" x="2301" y="-66.5" font-family="Helvetica,sans-Serif" font-size="10.00">limits</text>
</g>
<!-- Node5&#45;&gt;Node12 -->
<g id="edge22" class="edge"><title>Node5&#45;&gt;Node12</title>
<path fill="none" stroke="midnightblue" d="M2639.39,-181.487C2631.26,-178.768 2622.35,-176.037 2614,-174 2514.33,-149.696 2479.7,-179.76 2386,-138 2359,-125.965 2333.43,-103.082 2317.52,-86.9757"/>
<polygon fill="midnightblue" stroke="midnightblue" points="2319.97,-84.4782 2310.52,-79.6909 2314.92,-89.3274 2319.97,-84.4782"/>
</g>
<!-- Node13 -->
<g id="node25" class="node"><title>Node13</title>
<polygon fill="white" stroke="#bfbfbf" points="2460.5,-116.5 2460.5,-137.5 2509.5,-137.5 2509.5,-116.5 2460.5,-116.5"/>
<text text-anchor="middle" x="2485" y="-124.5" font-family="Helvetica,sans-Serif" font-size="10.00">istream</text>
</g>
<!-- Node5&#45;&gt;Node13 -->
<g id="edge24" class="edge"><title>Node5&#45;&gt;Node13</title>
<path fill="none" stroke="midnightblue" d="M2638.19,-181.412C2605.56,-169.821 2553.33,-151.271 2519.1,-139.11"/>
<polygon fill="midnightblue" stroke="midnightblue" points="2520.11,-135.758 2509.52,-135.709 2517.77,-142.354 2520.11,-135.758"/>
</g>
<!-- Node7 -->
<g id="node13" class="node"><title>Node7</title>
<polygon fill="white" stroke="#bfbfbf" points="1154,-0.5 1154,-21.5 1198,-21.5 1198,-0.5 1154,-0.5"/>
<text text-anchor="middle" x="1176" y="-8.5" font-family="Helvetica,sans-Serif" font-size="10.00">vector</text>
</g>
<!-- Node6&#45;&gt;Node7 -->
<g id="edge12" class="edge"><title>Node6&#45;&gt;Node7</title>
<path fill="none" stroke="midnightblue" d="M2811.83,-66.7879C2776.3,-64.3335 2716.5,-60.4033 2665,-58 2080.97,-30.7432 1367.34,-14.9756 1208.38,-11.6599"/>
<polygon fill="midnightblue" stroke="midnightblue" points="1208.38,-8.15928 1198.31,-11.4511 1208.23,-15.1578 1208.38,-8.15928"/>
</g>
<!-- Node8 -->
<g id="node15" class="node"><title>Node8</title>
<polygon fill="white" stroke="#bfbfbf" points="2941,-0.5 2941,-21.5 2993,-21.5 2993,-0.5 2941,-0.5"/>
<text text-anchor="middle" x="2967" y="-8.5" font-family="Helvetica,sans-Serif" font-size="10.00">ostream</text>
</g>
<!-- Node6&#45;&gt;Node8 -->
<g id="edge14" class="edge"><title>Node6&#45;&gt;Node8</title>
<path fill="none" stroke="midnightblue" d="M2865.46,-58.4966C2884.91,-49.397 2913.28,-36.1273 2935.09,-25.9253"/>
<polygon fill="midnightblue" stroke="midnightblue" points="2936.72,-29.0285 2944.29,-21.6212 2933.75,-22.6878 2936.72,-29.0285"/>
</g>
<!-- Node15&#45;&gt;Node16 -->
<g id="edge30" class="edge"><title>Node15&#45;&gt;Node16</title>
<path fill="none" stroke="midnightblue" d="M1854.1,-181.412C1817.46,-169.623 1758.45,-150.634 1720.71,-138.491"/>
<polygon fill="midnightblue" stroke="midnightblue" points="1721.73,-135.141 1711.14,-135.41 1719.58,-141.805 1721.73,-135.141"/>
</g>
<!-- Node15&#45;&gt;Node17 -->
<g id="edge32" class="edge"><title>Node15&#45;&gt;Node17</title>
<path fill="none" stroke="midnightblue" d="M1869.5,-181.267C1851.73,-170.372 1824.11,-153.437 1804.46,-141.385"/>
<polygon fill="midnightblue" stroke="midnightblue" points="1806.15,-138.314 1795.79,-136.07 1802.49,-144.281 1806.15,-138.314"/>
</g>
<!-- Node18&#45;&gt;Node6 -->
<g id="edge38" class="edge"><title>Node18&#45;&gt;Node6</title>
<path fill="none" stroke="midnightblue" d="M2085.78,-181.443C2078.65,-178.978 2071.06,-176.378 2064,-174 2011.62,-156.365 1915.96,-156.099 1954,-116 1983.51,-84.8856 2630.25,-72.3923 2801.63,-69.6211"/>
<polygon fill="midnightblue" stroke="midnightblue" points="2801.82,-73.1187 2811.76,-69.4597 2801.71,-66.1195 2801.82,-73.1187"/>
</g>
<!-- Node18&#45;&gt;Node11 -->
<g id="edge42" class="edge"><title>Node18&#45;&gt;Node11</title>
<path fill="none" stroke="midnightblue" d="M2118.31,-181.267C2120.29,-172.085 2123.19,-158.615 2125.61,-147.392"/>
<polygon fill="midnightblue" stroke="midnightblue" points="2129.05,-148.046 2127.73,-137.534 2122.2,-146.573 2129.05,-148.046"/>
</g>
<!-- Node18&#45;&gt;Node16 -->
<g id="edge40" class="edge"><title>Node18&#45;&gt;Node16</title>
<path fill="none" stroke="midnightblue" d="M2077.56,-183.75C2061.64,-180.481 2042.97,-176.834 2026,-174 1907.46,-154.205 1876.98,-154.954 1758,-138 1745.93,-136.28 1732.75,-134.319 1720.95,-132.534"/>
<polygon fill="midnightblue" stroke="midnightblue" points="1721.41,-129.064 1711,-131.021 1720.36,-135.985 1721.41,-129.064"/>
</g>
<!-- Node19 -->
<g id="node37" class="node"><title>Node19</title>
<polygon fill="white" stroke="#bfbfbf" points="1554,-116.5 1554,-137.5 1610,-137.5 1610,-116.5 1554,-116.5"/>
<text text-anchor="middle" x="1582" y="-124.5" font-family="Helvetica,sans-Serif" font-size="10.00">Rtypes.h</text>
</g>
<!-- Node18&#45;&gt;Node19 -->
<g id="edge36" class="edge"><title>Node18&#45;&gt;Node19</title>
<path fill="none" stroke="midnightblue" d="M2077.79,-187.673C1974.04,-175.908 1692,-143.827 1650,-138 1640.34,-136.66 1629.94,-135.058 1620.25,-133.497"/>
<polygon fill="midnightblue" stroke="midnightblue" points="1620.51,-129.994 1610.08,-131.833 1619.38,-136.902 1620.51,-129.994"/>
</g>
<!-- Node20&#45;&gt;Node6 -->
<g id="edge46" class="edge"><title>Node20&#45;&gt;Node6</title>
<path fill="none" stroke="midnightblue" d="M1534.74,-421.07C1537.53,-420.665 1540.3,-420.304 1543,-420 2026.45,-365.74 2151.95,-421.369 2637,-384 2763.77,-374.233 3205,-442.15 3205,-315 3205,-315 3205,-315 3205,-192 3205,-136.53 3156.74,-138.405 3106,-116 3066.91,-98.7417 2947.86,-81.9805 2884.19,-73.9401"/>
<polygon fill="midnightblue" stroke="midnightblue" points="2884.45,-70.4457 2874.1,-72.6798 2883.59,-77.3918 2884.45,-70.4457"/>
</g>
<!-- Node21 -->
<g id="node45" class="node"><title>Node21</title>
<a xlink:href="_t_i_d_8h.html" target="_top" xlink:title="TID.h">
<polygon fill="white" stroke="black" points="1581.5,-304.5 1581.5,-325.5 1622.5,-325.5 1622.5,-304.5 1581.5,-304.5"/>
<text text-anchor="middle" x="1602" y="-312.5" font-family="Helvetica,sans-Serif" font-size="10.00">TID.h</text>
</a>
</g>
<!-- Node20&#45;&gt;Node21 -->
<g id="edge48" class="edge"><title>Node20&#45;&gt;Node21</title>
<path fill="none" stroke="midnightblue" d="M1496.71,-420.295C1516.65,-400.355 1559.66,-357.337 1584.09,-332.906"/>
<polygon fill="midnightblue" stroke="midnightblue" points="1586.72,-335.225 1591.32,-325.679 1581.77,-330.275 1586.72,-335.225"/>
</g>
<!-- Node31 -->
<g id="node73" class="node"><title>Node31</title>
<a xlink:href="_t_detector_read_hit_8h.html" target="_top" xlink:title="TDetectorReadHit.h">
<polygon fill="white" stroke="black" points="945,-246.5 945,-267.5 1049,-267.5 1049,-246.5 945,-246.5"/>
<text text-anchor="middle" x="997" y="-254.5" font-family="Helvetica,sans-Serif" font-size="10.00">TDetectorReadHit.h</text>
</a>
</g>
<!-- Node20&#45;&gt;Node31 -->
<g id="edge84" class="edge"><title>Node20&#45;&gt;Node31</title>
<path fill="none" stroke="midnightblue" d="M1437.5,-424.494C1360.99,-412.844 1209.08,-384.018 1093,-326 1064.5,-311.756 1035.27,-289.417 1016.67,-274.037"/>
<polygon fill="midnightblue" stroke="midnightblue" points="1018.82,-271.271 1008.91,-267.514 1014.31,-276.629 1018.82,-271.271"/>
</g>
<!-- Node36 -->
<g id="node93" class="node"><title>Node36</title>
<a xlink:href="_t_slow_control_8h.html" target="_top" xlink:title="TSlowControl.h">
<polygon fill="white" stroke="black" points="1584,-362.5 1584,-383.5 1668,-383.5 1668,-362.5 1584,-362.5"/>
<text text-anchor="middle" x="1626" y="-370.5" font-family="Helvetica,sans-Serif" font-size="10.00">TSlowControl.h</text>
</a>
</g>
<!-- Node20&#45;&gt;Node36 -->
<g id="edge114" class="edge"><title>Node20&#45;&gt;Node36</title>
<path fill="none" stroke="midnightblue" d="M1511.35,-420.497C1533.61,-411.275 1566.21,-397.769 1590.96,-387.515"/>
<polygon fill="midnightblue" stroke="midnightblue" points="1592.46,-390.682 1600.36,-383.621 1589.78,-384.215 1592.46,-390.682"/>
</g>
<!-- Node37 -->
<g id="node100" class="node"><title>Node37</title>
<a xlink:href="_t_unpacker_message_8h.html" target="_top" xlink:title="TUnpackerMessage.h">
<polygon fill="white" stroke="black" points="2905.5,-246.5 2905.5,-267.5 3018.5,-267.5 3018.5,-246.5 2905.5,-246.5"/>
<text text-anchor="middle" x="2962" y="-254.5" font-family="Helvetica,sans-Serif" font-size="10.00">TUnpackerMessage.h</text>
</a>
</g>
<!-- Node20&#45;&gt;Node37 -->
<g id="edge126" class="edge"><title>Node20&#45;&gt;Node37</title>
<path fill="none" stroke="midnightblue" d="M1534.74,-421.076C1537.53,-420.67 1540.3,-420.306 1543,-420 1999.47,-368.319 2123.73,-464.593 2576,-384 2710.44,-360.043 2862.25,-299.709 2928.31,-271.703"/>
<polygon fill="midnightblue" stroke="midnightblue" points="2929.97,-274.801 2937.79,-267.655 2927.22,-268.363 2929.97,-274.801"/>
</g>
<!-- Node44 -->
<g id="node122" class="node"><title>Node44</title>
<a xlink:href="_t_tagger_hit_8h.html" target="_top" xlink:title="TTaggerHit.h">
<polygon fill="white" stroke="black" points="804,-362.5 804,-383.5 878,-383.5 878,-362.5 804,-362.5"/>
<text text-anchor="middle" x="841" y="-370.5" font-family="Helvetica,sans-Serif" font-size="10.00">TTaggerHit.h</text>
</a>
</g>
<!-- Node20&#45;&gt;Node44 -->
<g id="edge156" class="edge"><title>Node20&#45;&gt;Node44</title>
<path fill="none" stroke="midnightblue" d="M1437.26,-426.617C1317.04,-415.806 1007.51,-387.973 888.553,-377.276"/>
<polygon fill="midnightblue" stroke="midnightblue" points="888.587,-373.765 878.314,-376.355 887.96,-380.737 888.587,-373.765"/>
</g>
<!-- Node46 -->
<g id="node132" class="node"><title>Node46</title>
<a xlink:href="_t_trigger_8h.html" target="_top" xlink:title="TTrigger.h">
<polygon fill="white" stroke="black" points="2473.5,-181.5 2473.5,-202.5 2534.5,-202.5 2534.5,-181.5 2473.5,-181.5"/>
<text text-anchor="middle" x="2504" y="-189.5" font-family="Helvetica,sans-Serif" font-size="10.00">TTrigger.h</text>
</a>
</g>
<!-- Node20&#45;&gt;Node46 -->
<g id="edge172" class="edge"><title>Node20&#45;&gt;Node46</title>
<path fill="none" stroke="midnightblue" d="M1534.75,-421.12C1537.53,-420.702 1540.3,-420.324 1543,-420 1872.58,-380.451 1961.17,-436.109 2289,-384 2385.47,-368.665 2440.87,-402.986 2501,-326 2526.53,-293.314 2517.96,-241.189 2510.41,-212.536"/>
<polygon fill="midnightblue" stroke="midnightblue" points="2513.74,-211.452 2507.63,-202.793 2507,-213.37 2513.74,-211.452"/>
</g>
<!-- Node47 -->
<g id="node139" class="node"><title>Node47</title>
<a xlink:href="_t_target_8h.html" target="_top" xlink:title="TTarget.h">
<polygon fill="white" stroke="black" points="1751.5,-181.5 1751.5,-202.5 1810.5,-202.5 1810.5,-181.5 1751.5,-181.5"/>
<text text-anchor="middle" x="1781" y="-189.5" font-family="Helvetica,sans-Serif" font-size="10.00">TTarget.h</text>
</a>
</g>
<!-- Node20&#45;&gt;Node47 -->
<g id="edge184" class="edge"><title>Node20&#45;&gt;Node47</title>
<path fill="none" stroke="midnightblue" d="M1533.84,-420.487C1581.44,-409.801 1651.02,-393.504 1677,-384 1786.01,-344.115 1849.81,-366.637 1911,-268 1947.42,-209.297 1850.77,-223.722 1819,-210 1816.65,-208.987 1814.24,-207.915 1811.82,-206.818"/>
<polygon fill="midnightblue" stroke="midnightblue" points="1813.13,-203.568 1802.58,-202.542 1810.19,-209.92 1813.13,-203.568"/>
</g>
<!-- Node49 -->
<g id="node150" class="node"><title>Node49</title>
<a xlink:href="_t_cluster_8h.html" target="_top" xlink:title="TCluster.h">
<polygon fill="white" stroke="black" points="751,-246.5 751,-267.5 813,-267.5 813,-246.5 751,-246.5"/>
<text text-anchor="middle" x="782" y="-254.5" font-family="Helvetica,sans-Serif" font-size="10.00">TCluster.h</text>
</a>
</g>
<!-- Node20&#45;&gt;Node49 -->
<g id="edge202" class="edge"><title>Node20&#45;&gt;Node49</title>
<path fill="none" stroke="midnightblue" d="M1437.37,-430.377C1300.8,-428.202 915.823,-419.047 795,-384 743.049,-368.931 715.673,-372.478 688,-326 672.138,-299.359 708.9,-279.899 740.997,-268.562"/>
<polygon fill="midnightblue" stroke="midnightblue" points="742.37,-271.794 750.745,-265.305 740.152,-265.154 742.37,-271.794"/>
</g>
<!-- Node52 -->
<g id="node167" class="node"><title>Node52</title>
<a xlink:href="_t_candidate_8h.html" target="_top" xlink:title="TCandidate.h">
<polygon fill="white" stroke="black" points="1101.5,-304.5 1101.5,-325.5 1176.5,-325.5 1176.5,-304.5 1101.5,-304.5"/>
<text text-anchor="middle" x="1139" y="-312.5" font-family="Helvetica,sans-Serif" font-size="10.00">TCandidate.h</text>
</a>
</g>
<!-- Node20&#45;&gt;Node52 -->
<g id="edge230" class="edge"><title>Node20&#45;&gt;Node52</title>
<path fill="none" stroke="midnightblue" d="M1454.29,-420.398C1391.3,-399.342 1250.47,-352.263 1180.33,-328.817"/>
<polygon fill="midnightblue" stroke="midnightblue" points="1181.11,-325.386 1170.51,-325.535 1178.89,-332.025 1181.11,-325.386"/>
</g>
<!-- Node53 -->
<g id="node176" class="node"><title>Node53</title>
<a xlink:href="_t_particle_8h.html" target="_top" xlink:title="TParticle.h">
<polygon fill="white" stroke="black" points="2216,-362.5 2216,-383.5 2280,-383.5 2280,-362.5 2216,-362.5"/>
<text text-anchor="middle" x="2248" y="-370.5" font-family="Helvetica,sans-Serif" font-size="10.00">TParticle.h</text>
</a>
</g>
<!-- Node20&#45;&gt;Node53 -->
<g id="edge246" class="edge"><title>Node20&#45;&gt;Node53</title>
<path fill="none" stroke="midnightblue" d="M1534.75,-421.179C1537.54,-420.747 1540.3,-420.349 1543,-420 1793.14,-387.652 2096.27,-376.947 2205.89,-373.986"/>
<polygon fill="midnightblue" stroke="midnightblue" points="2205.99,-377.485 2215.89,-373.723 2205.8,-370.487 2205.99,-377.485"/>
</g>
<!-- Node21&#45;&gt;Node6 -->
<g id="edge52" class="edge"><title>Node21&#45;&gt;Node6</title>
<path fill="none" stroke="midnightblue" d="M1622.74,-314.39C1746.32,-310.688 2383.15,-290.63 2467,-268 2487.73,-262.407 2489.46,-252.245 2510,-246 2640.59,-206.289 2684.28,-249.288 2815,-210 2883.15,-189.519 2920.68,-198.582 2958,-138 2978.1,-105.38 2924.84,-86.1864 2884.23,-76.6362"/>
<polygon fill="midnightblue" stroke="midnightblue" points="2884.75,-73.1667 2874.23,-74.4137 2883.23,-80 2884.75,-73.1667"/>
</g>
<!-- Node21&#45;&gt;Node11 -->
<g id="edge76" class="edge"><title>Node21&#45;&gt;Node11</title>
<path fill="none" stroke="midnightblue" d="M1622.74,-311.281C1659.41,-304.454 1737.84,-288.702 1802,-268 1826.27,-260.168 1830.2,-251.937 1855,-246 1905.94,-233.807 2289.41,-248.423 2325,-210 2335.87,-198.262 2334.92,-186.55 2325,-174 2281.94,-119.546 2240.41,-154.604 2173,-138 2171.92,-137.733 2170.82,-137.461 2169.71,-137.185"/>
<polygon fill="midnightblue" stroke="midnightblue" points="2170.14,-133.686 2159.59,-134.644 2168.44,-140.475 2170.14,-133.686"/>
</g>
<!-- Node21&#45;&gt;Node17 -->
<g id="edge78" class="edge"><title>Node21&#45;&gt;Node17</title>
<path fill="none" stroke="midnightblue" d="M1622.54,-308.258C1661.36,-295.585 1748.23,-267.544 1822,-246 1880.78,-228.833 1917.78,-258.631 1955,-210 1964.72,-197.294 1964.92,-186.557 1955,-174 1914.17,-122.285 1872.92,-157.507 1805.58,-137.841"/>
<polygon fill="midnightblue" stroke="midnightblue" points="1806.49,-134.458 1795.9,-134.687 1804.32,-141.113 1806.49,-134.458"/>
</g>
<!-- Node21&#45;&gt;Node19 -->
<g id="edge50" class="edge"><title>Node21&#45;&gt;Node19</title>
<path fill="none" stroke="midnightblue" d="M1599.46,-304.35C1595.1,-285.475 1586.34,-244.853 1583,-210 1580.98,-188.904 1580.95,-164.655 1581.29,-147.837"/>
<polygon fill="midnightblue" stroke="midnightblue" points="1584.8,-147.602 1581.57,-137.512 1577.8,-147.415 1584.8,-147.602"/>
</g>
<!-- Node22 -->
<g id="node49" class="node"><title>Node22</title>
<a xlink:href="time_8h.html" target="_top" xlink:title="base/std_ext/time.h">
<polygon fill="white" stroke="black" points="1629.5,-246.5 1629.5,-267.5 1732.5,-267.5 1732.5,-246.5 1629.5,-246.5"/>
<text text-anchor="middle" x="1681" y="-254.5" font-family="Helvetica,sans-Serif" font-size="10.00">base/std_ext/time.h</text>
</a>
</g>
<!-- Node21&#45;&gt;Node22 -->
<g id="edge54" class="edge"><title>Node21&#45;&gt;Node22</title>
<path fill="none" stroke="midnightblue" d="M1616.49,-304.362C1628.18,-295.777 1644.84,-283.546 1658.3,-273.664"/>
<polygon fill="midnightblue" stroke="midnightblue" points="1660.61,-276.31 1666.6,-267.571 1656.47,-270.667 1660.61,-276.31"/>
</g>
<!-- Node26 -->
<g id="node60" class="node"><title>Node26</title>
<polygon fill="white" stroke="#bfbfbf" points="1591.5,-181.5 1591.5,-202.5 1632.5,-202.5 1632.5,-181.5 1591.5,-181.5"/>
<text text-anchor="middle" x="1612" y="-189.5" font-family="Helvetica,sans-Serif" font-size="10.00">ctime</text>
</g>
<!-- Node21&#45;&gt;Node26 -->
<g id="edge82" class="edge"><title>Node21&#45;&gt;Node26</title>
<path fill="none" stroke="midnightblue" d="M1602.89,-304.085C1604.55,-283.609 1608.17,-239.133 1610.31,-212.778"/>
<polygon fill="midnightblue" stroke="midnightblue" points="1613.81,-212.966 1611.13,-202.715 1606.83,-212.399 1613.81,-212.966"/>
</g>
<!-- Node27 -->
<g id="node62" class="node"><title>Node27</title>
<polygon fill="white" stroke="#bfbfbf" points="1226,-116.5 1226,-137.5 1288,-137.5 1288,-116.5 1226,-116.5"/>
<text text-anchor="middle" x="1257" y="-124.5" font-family="Helvetica,sans-Serif" font-size="10.00">type_traits</text>
</g>
<!-- Node21&#45;&gt;Node27 -->
<g id="edge70" class="edge"><title>Node21&#45;&gt;Node27</title>
<path fill="none" stroke="midnightblue" d="M1581.44,-307.469C1544.2,-293.997 1462.97,-265.372 1393,-246 1322.75,-226.552 1278.53,-266.917 1233,-210 1218.24,-191.547 1230.73,-164.374 1242.53,-146.2"/>
<polygon fill="midnightblue" stroke="midnightblue" points="1245.66,-147.823 1248.49,-137.611 1239.91,-143.834 1245.66,-147.823"/>
</g>
<!-- Node28 -->
<g id="node64" class="node"><title>Node28</title>
<polygon fill="white" stroke="#bfbfbf" points="1864,-246.5 1864,-267.5 1902,-267.5 1902,-246.5 1864,-246.5"/>
<text text-anchor="middle" x="1883" y="-254.5" font-family="Helvetica,sans-Serif" font-size="10.00">tuple</text>
</g>
<!-- Node21&#45;&gt;Node28 -->
<g id="edge72" class="edge"><title>Node21&#45;&gt;Node28</title>
<path fill="none" stroke="midnightblue" d="M1622.78,-312.029C1665.66,-305.688 1766.88,-289.626 1850,-268 1851.42,-267.629 1852.88,-267.23 1854.34,-266.81"/>
<polygon fill="midnightblue" stroke="midnightblue" points="1855.42,-270.14 1863.94,-263.839 1853.35,-263.453 1855.42,-270.14"/>
</g>
<!-- Node29 -->
<g id="node66" class="node"><title>Node29</title>
<polygon fill="white" stroke="#bfbfbf" points="1427,-116.5 1427,-137.5 1473,-137.5 1473,-116.5 1427,-116.5"/>
<text text-anchor="middle" x="1450" y="-124.5" font-family="Helvetica,sans-Serif" font-size="10.00">cstdint</text>
</g>
<!-- Node21&#45;&gt;Node29 -->
<g id="edge74" class="edge"><title>Node21&#45;&gt;Node29</title>
<path fill="none" stroke="midnightblue" d="M1593.39,-304.354C1568.52,-273.59 1496.33,-184.301 1464.91,-145.435"/>
<polygon fill="midnightblue" stroke="midnightblue" points="1467.52,-143.105 1458.51,-137.53 1462.08,-147.506 1467.52,-143.105"/>
</g>
<!-- Node30 -->
<g id="node70" class="node"><title>Node30</title>
<polygon fill="white" stroke="#bfbfbf" points="822,-181.5 822,-202.5 872,-202.5 872,-181.5 822,-181.5"/>
<text text-anchor="middle" x="847" y="-189.5" font-family="Helvetica,sans-Serif" font-size="10.00">iomanip</text>
</g>
<!-- Node21&#45;&gt;Node30 -->
<g id="edge80" class="edge"><title>Node21&#45;&gt;Node30</title>
<path fill="none" stroke="midnightblue" d="M1581.34,-314.311C1475.55,-310.68 997.01,-292.979 936,-268 920.077,-261.481 886.269,-230.323 865.209,-209.982"/>
<polygon fill="midnightblue" stroke="midnightblue" points="867.432,-207.26 857.826,-202.789 862.547,-212.274 867.432,-207.26"/>
</g>
<!-- Node23 -->
<g id="node51" class="node"><title>Node23</title>
<a xlink:href="string_8h.html" target="_top" xlink:title="base/std_ext/string.h">
<polygon fill="white" stroke="black" points="966,-181.5 966,-202.5 1074,-202.5 1074,-181.5 966,-181.5"/>
<text text-anchor="middle" x="1020" y="-189.5" font-family="Helvetica,sans-Serif" font-size="10.00">base/std_ext/string.h</text>
</a>
</g>
<!-- Node22&#45;&gt;Node23 -->
<g id="edge56" class="edge"><title>Node22&#45;&gt;Node23</title>
<path fill="none" stroke="midnightblue" d="M1629.48,-254.278C1504.43,-247.456 1187.41,-228.823 1083,-210 1076.16,-208.766 1068.99,-207.095 1062.04,-205.265"/>
<polygon fill="midnightblue" stroke="midnightblue" points="1062.65,-201.804 1052.08,-202.505 1060.78,-208.549 1062.65,-201.804"/>
</g>
<!-- Node25 -->
<g id="node58" class="node"><title>Node25</title>
<polygon fill="white" stroke="#bfbfbf" points="1650,-181.5 1650,-202.5 1696,-202.5 1696,-181.5 1650,-181.5"/>
<text text-anchor="middle" x="1673" y="-189.5" font-family="Helvetica,sans-Serif" font-size="10.00">cstring</text>
</g>
<!-- Node22&#45;&gt;Node25 -->
<g id="edge66" class="edge"><title>Node22&#45;&gt;Node25</title>
<path fill="none" stroke="midnightblue" d="M1679.68,-246.267C1678.56,-237.18 1676.93,-223.892 1675.55,-212.74"/>
<polygon fill="midnightblue" stroke="midnightblue" points="1678.99,-212.031 1674.3,-202.534 1672.04,-212.886 1678.99,-212.031"/>
</g>
<!-- Node22&#45;&gt;Node26 -->
<g id="edge68" class="edge"><title>Node22&#45;&gt;Node26</title>
<path fill="none" stroke="midnightblue" d="M1669.61,-246.267C1659.06,-236.328 1643.17,-221.363 1630.75,-209.664"/>
<polygon fill="midnightblue" stroke="midnightblue" points="1632.86,-206.843 1623.18,-202.534 1628.06,-211.938 1632.86,-206.843"/>
</g>
<!-- Node23&#45;&gt;Node7 -->
<g id="edge64" class="edge"><title>Node23&#45;&gt;Node7</title>
<path fill="none" stroke="midnightblue" d="M1021.78,-181.422C1026.49,-156.58 1041.5,-93.909 1078,-58 1096.38,-39.9192 1123.06,-27.7498 1143.94,-20.3325"/>
<polygon fill="midnightblue" stroke="midnightblue" points="1145.3,-23.5687 1153.67,-17.0679 1143.07,-16.9327 1145.3,-23.5687"/>
</g>
<!-- Node23&#45;&gt;Node10 -->
<g id="edge62" class="edge"><title>Node23&#45;&gt;Node10</title>
<path fill="none" stroke="midnightblue" d="M1051.73,-181.408C1061.64,-178.515 1072.68,-175.71 1083,-174 1396.29,-122.125 1485.92,-190.668 1802.96,-137.797"/>
<polygon fill="midnightblue" stroke="midnightblue" points="1803.61,-141.236 1812.88,-136.114 1802.44,-134.334 1803.61,-141.236"/>
</g>
<!-- Node23&#45;&gt;Node14 -->
<g id="edge58" class="edge"><title>Node23&#45;&gt;Node14</title>
<path fill="none" stroke="midnightblue" d="M965.94,-184.407C940.241,-180.949 909.07,-176.975 881,-174 687.646,-153.509 637.979,-161.77 445,-138 433.087,-136.533 420.05,-134.492 408.669,-132.567"/>
<polygon fill="midnightblue" stroke="midnightblue" points="409.213,-129.109 398.762,-130.851 408.018,-136.006 409.213,-129.109"/>
</g>
<!-- Node24 -->
<g id="node54" class="node"><title>Node24</title>
<polygon fill="white" stroke="#bfbfbf" points="730,-116.5 730,-137.5 782,-137.5 782,-116.5 730,-116.5"/>
<text text-anchor="middle" x="756" y="-124.5" font-family="Helvetica,sans-Serif" font-size="10.00">sstream</text>
</g>
<!-- Node23&#45;&gt;Node24 -->
<g id="edge60" class="edge"><title>Node23&#45;&gt;Node24</title>
<path fill="none" stroke="midnightblue" d="M977.29,-181.484C925.899,-168.831 840.513,-147.808 792.209,-135.915"/>
<polygon fill="midnightblue" stroke="midnightblue" points="792.75,-132.444 782.204,-133.452 791.077,-139.241 792.75,-132.444"/>
</g>
<!-- Node31&#45;&gt;Node24 -->
<g id="edge112" class="edge"><title>Node31&#45;&gt;Node24</title>
<path fill="none" stroke="midnightblue" d="M979.183,-246.393C964.142,-237.236 942.209,-223.403 924,-210 903.927,-195.225 902.526,-186.564 881,-174 852.717,-157.492 817.59,-144.892 791.782,-136.913"/>
<polygon fill="midnightblue" stroke="midnightblue" points="792.619,-133.51 782.035,-133.982 790.603,-140.214 792.619,-133.51"/>
</g>
<!-- Node31&#45;&gt;Node30 -->
<g id="edge110" class="edge"><title>Node31&#45;&gt;Node30</title>
<path fill="none" stroke="midnightblue" d="M971.33,-246.403C948.768,-237.025 915.09,-222.868 886,-210 883.673,-208.971 881.273,-207.896 878.861,-206.806"/>
<polygon fill="midnightblue" stroke="midnightblue" points="880.18,-203.56 869.629,-202.592 877.274,-209.929 880.18,-203.56"/>
</g>
<!-- Node32 -->
<g id="node75" class="node"><title>Node32</title>
<a xlink:href="_detector__t_8h.html" target="_top" xlink:title="base/Detector_t.h">
<polygon fill="white" stroke="black" points="1091.5,-181.5 1091.5,-202.5 1186.5,-202.5 1186.5,-181.5 1091.5,-181.5"/>
<text text-anchor="middle" x="1139" y="-189.5" font-family="Helvetica,sans-Serif" font-size="10.00">base/Detector_t.h</text>
</a>
</g>
<!-- Node31&#45;&gt;Node32 -->
<g id="edge86" class="edge"><title>Node31&#45;&gt;Node32</title>
<path fill="none" stroke="midnightblue" d="M1020.13,-246.412C1043.65,-235.647 1080.28,-218.878 1106.67,-206.801"/>
<polygon fill="midnightblue" stroke="midnightblue" points="1108.24,-209.928 1115.88,-202.584 1105.33,-203.563 1108.24,-209.928"/>
</g>
<!-- Node32&#45;&gt;Node6 -->
<g id="edge88" class="edge"><title>Node32&#45;&gt;Node6</title>
<path fill="none" stroke="midnightblue" d="M1145.85,-181.418C1157.83,-163.986 1184.44,-129.79 1217,-116 1235.81,-108.034 2549.43,-76.0609 2801.45,-69.9959"/>
<polygon fill="midnightblue" stroke="midnightblue" points="2801.73,-73.4902 2811.64,-69.7507 2801.56,-66.4922 2801.73,-73.4902"/>
</g>
<!-- Node32&#45;&gt;Node7 -->
<g id="edge108" class="edge"><title>Node32&#45;&gt;Node7</title>
<path fill="none" stroke="midnightblue" d="M1110.13,-181.438C1080.79,-168.839 1041.45,-145.701 1055,-116 1073.54,-75.357 1116.45,-44.3811 1145.85,-26.9406"/>
<polygon fill="midnightblue" stroke="midnightblue" points="1147.94,-29.7742 1154.87,-21.7587 1144.45,-23.7042 1147.94,-29.7742"/>
</g>
<!-- Node32&#45;&gt;Node11 -->
<g id="edge102" class="edge"><title>Node32&#45;&gt;Node11</title>
<path fill="none" stroke="midnightblue" d="M1186.61,-181.473C1201.4,-178.583 1217.82,-175.762 1233,-174 1609.23,-130.335 1713.06,-198.352 2090.19,-137.97"/>
<polygon fill="midnightblue" stroke="midnightblue" points="2090.97,-141.388 2100.28,-136.333 2089.85,-134.478 2090.97,-141.388"/>
</g>
<!-- Node32&#45;&gt;Node14 -->
<g id="edge104" class="edge"><title>Node32&#45;&gt;Node14</title>
<path fill="none" stroke="midnightblue" d="M1110.87,-181.416C1102.07,-178.523 1092.24,-175.716 1083,-174 803.771,-122.126 727.304,-169.05 445,-138 433.069,-136.688 420.029,-134.679 408.649,-132.736"/>
<polygon fill="midnightblue" stroke="midnightblue" points="409.201,-129.279 398.746,-130.991 407.987,-136.173 409.201,-129.279"/>
</g>
<!-- Node32&#45;&gt;Node27 -->
<g id="edge106" class="edge"><title>Node32&#45;&gt;Node27</title>
<path fill="none" stroke="midnightblue" d="M1158.22,-181.412C1177.42,-170.836 1207.14,-154.465 1228.97,-142.441"/>
<polygon fill="midnightblue" stroke="midnightblue" points="1230.72,-145.474 1237.79,-137.584 1227.34,-139.343 1230.72,-145.474"/>
</g>
<!-- Node32&#45;&gt;Node29 -->
<g id="edge100" class="edge"><title>Node32&#45;&gt;Node29</title>
<path fill="none" stroke="midnightblue" d="M1186.57,-182.057C1250.19,-168.76 1361.38,-145.522 1416.73,-133.953"/>
<polygon fill="midnightblue" stroke="midnightblue" points="1417.64,-137.34 1426.71,-131.868 1416.2,-130.488 1417.64,-137.34"/>
</g>
<!-- Node33 -->
<g id="node78" class="node"><title>Node33</title>
<a xlink:href="vec3_8h.html" target="_top" xlink:title="base/vec/vec3.h">
<polygon fill="white" stroke="black" points="567.5,-116.5 567.5,-137.5 656.5,-137.5 656.5,-116.5 567.5,-116.5"/>
<text text-anchor="middle" x="612" y="-124.5" font-family="Helvetica,sans-Serif" font-size="10.00">base/vec/vec3.h</text>
</a>
</g>
<!-- Node32&#45;&gt;Node33 -->
<g id="edge90" class="edge"><title>Node32&#45;&gt;Node33</title>
<path fill="none" stroke="midnightblue" d="M1110.25,-181.471C1101.59,-178.652 1092,-175.872 1083,-174 924.705,-141.077 881.877,-154.117 721,-138 703.281,-136.225 683.944,-134.277 666.542,-132.52"/>
<polygon fill="midnightblue" stroke="midnightblue" points="666.847,-129.033 656.546,-131.51 666.143,-135.998 666.847,-129.033"/>
</g>
<!-- Node33&#45;&gt;Node6 -->
<g id="edge92" class="edge"><title>Node33&#45;&gt;Node6</title>
<path fill="none" stroke="midnightblue" d="M656.748,-121.685C676.427,-119.555 699.833,-117.3 721,-116 747.964,-114.343 2507.58,-76.2521 2801.56,-69.8956"/>
<polygon fill="midnightblue" stroke="midnightblue" points="2801.86,-73.39 2811.78,-69.6746 2801.71,-66.3917 2801.86,-73.39"/>
</g>
<!-- Node34 -->
<g id="node81" class="node"><title>Node34</title>
<a xlink:href="vec2_8h.html" target="_top" xlink:title="vec2.h">
<polygon fill="white" stroke="black" points="466,-58.5 466,-79.5 512,-79.5 512,-58.5 466,-58.5"/>
<text text-anchor="middle" x="489" y="-66.5" font-family="Helvetica,sans-Serif" font-size="10.00">vec2.h</text>
</a>
</g>
<!-- Node33&#45;&gt;Node34 -->
<g id="edge94" class="edge"><title>Node33&#45;&gt;Node34</title>
<path fill="none" stroke="midnightblue" d="M589.726,-116.497C570.428,-107.397 542.287,-94.1273 520.652,-83.9253"/>
<polygon fill="midnightblue" stroke="midnightblue" points="522.062,-80.7206 511.524,-79.6212 519.076,-87.052 522.062,-80.7206"/>
</g>
<!-- Node35 -->
<g id="node83" class="node"><title>Node35</title>
<polygon fill="white" stroke="#bfbfbf" points="467,-0.5 467,-21.5 511,-21.5 511,-0.5 467,-0.5"/>
<text text-anchor="middle" x="489" y="-8.5" font-family="Helvetica,sans-Serif" font-size="10.00">cmath</text>
</g>
<!-- Node33&#45;&gt;Node35 -->
<g id="edge98" class="edge"><title>Node33&#45;&gt;Node35</title>
<path fill="none" stroke="midnightblue" d="M567.453,-119.529C526.53,-111.65 470.276,-97.8986 457,-80 445.318,-64.2505 457.957,-43.5551 470.631,-28.9513"/>
<polygon fill="midnightblue" stroke="midnightblue" points="473.279,-31.2431 477.522,-21.5349 468.151,-26.4784 473.279,-31.2431"/>
</g>
<!-- Node34&#45;&gt;Node35 -->
<g id="edge96" class="edge"><title>Node34&#45;&gt;Node35</title>
<path fill="none" stroke="midnightblue" d="M489,-58.3619C489,-50.9219 489,-40.7427 489,-31.7276"/>
<polygon fill="midnightblue" stroke="midnightblue" points="492.5,-31.5706 489,-21.5707 485.5,-31.5707 492.5,-31.5706"/>
</g>
<!-- Node36&#45;&gt;Node6 -->
<g id="edge120" class="edge"><title>Node36&#45;&gt;Node6</title>
<path fill="none" stroke="midnightblue" d="M1668.16,-370.774C1766.01,-365.37 2016.08,-350.194 2224,-326 2307.87,-316.241 2902.59,-253.43 2975,-210 3016.32,-185.217 3058.6,-154.014 3029,-116 3011.38,-93.368 2933.26,-79.9138 2884.04,-73.5329"/>
<polygon fill="midnightblue" stroke="midnightblue" points="2884.36,-70.0462 2874.01,-72.2779 2883.49,-76.9921 2884.36,-70.0462"/>
</g>
<!-- Node36&#45;&gt;Node21 -->
<g id="edge116" class="edge"><title>Node36&#45;&gt;Node21</title>
<path fill="none" stroke="midnightblue" d="M1621.6,-362.362C1618.42,-354.677 1614.03,-344.069 1610.21,-334.84"/>
<polygon fill="midnightblue" stroke="midnightblue" points="1613.43,-333.473 1606.37,-325.571 1606.96,-336.149 1613.43,-333.473"/>
</g>
<!-- Node36&#45;&gt;Node22 -->
<g id="edge118" class="edge"><title>Node36&#45;&gt;Node22</title>
<path fill="none" stroke="midnightblue" d="M1631.08,-362.295C1640.28,-342.872 1659.87,-301.556 1671.59,-276.846"/>
<polygon fill="midnightblue" stroke="midnightblue" points="1674.81,-278.214 1675.94,-267.679 1668.49,-275.216 1674.81,-278.214"/>
</g>
<!-- Node36&#45;&gt;Node28 -->
<g id="edge124" class="edge"><title>Node36&#45;&gt;Node28</title>
<path fill="none" stroke="midnightblue" d="M1649.72,-362.295C1697.23,-340.849 1803.88,-292.712 1854.84,-269.709"/>
<polygon fill="midnightblue" stroke="midnightblue" points="1856.3,-272.893 1863.97,-265.589 1853.42,-266.513 1856.3,-272.893"/>
</g>
<!-- Node36&#45;&gt;Node29 -->
<g id="edge122" class="edge"><title>Node36&#45;&gt;Node29</title>
<path fill="none" stroke="midnightblue" d="M1583.87,-368.573C1533.59,-362.318 1454.01,-349.012 1436,-326 1394.65,-273.176 1423.89,-186.368 1440.57,-147.24"/>
<polygon fill="midnightblue" stroke="midnightblue" points="1443.83,-148.512 1444.68,-137.951 1437.43,-145.678 1443.83,-148.512"/>
</g>
<!-- Node37&#45;&gt;Node6 -->
<g id="edge154" class="edge"><title>Node37&#45;&gt;Node6</title>
<path fill="none" stroke="midnightblue" d="M2995.82,-246.343C3014.11,-238.922 3035.63,-227.221 3049,-210 3075.09,-176.402 3093.81,-149.022 3067,-116 3044.44,-88.2091 2942.67,-76.2556 2884.37,-71.6128"/>
<polygon fill="midnightblue" stroke="midnightblue" points="2884.6,-68.1204 2874.36,-70.8537 2884.07,-75.1003 2884.6,-68.1204"/>
</g>
<!-- Node38 -->
<g id="node102" class="node"><title>Node38</title>
<a xlink:href="_format_8h.html" target="_top" xlink:title="base/Format.h">
<polygon fill="white" stroke="black" points="2726,-181.5 2726,-202.5 2806,-202.5 2806,-181.5 2726,-181.5"/>
<text text-anchor="middle" x="2766" y="-189.5" font-family="Helvetica,sans-Serif" font-size="10.00">base/Format.h</text>
</a>
</g>
<!-- Node37&#45;&gt;Node38 -->
<g id="edge128" class="edge"><title>Node37&#45;&gt;Node38</title>
<path fill="none" stroke="midnightblue" d="M2930.07,-246.412C2896.76,-235.364 2844.37,-217.991 2807.79,-205.857"/>
<polygon fill="midnightblue" stroke="midnightblue" points="2808.51,-202.409 2797.91,-202.584 2806.3,-209.053 2808.51,-202.409"/>
</g>
<!-- Node38&#45;&gt;Node7 -->
<g id="edge152" class="edge"><title>Node38&#45;&gt;Node7</title>
<path fill="none" stroke="midnightblue" d="M2738.03,-181.324C2717.25,-172.286 2689.28,-157.657 2670,-138 2641.73,-109.184 2661.31,-79.2704 2627,-58 2564.69,-19.3671 1416.66,-12.1334 1208.29,-11.137"/>
<polygon fill="midnightblue" stroke="midnightblue" points="1208.04,-7.63585 1198.02,-11.0893 1208.01,-14.6358 1208.04,-7.63585"/>
</g>
<!-- Node38&#45;&gt;Node10 -->
<g id="edge142" class="edge"><title>Node38&#45;&gt;Node10</title>
<path fill="none" stroke="midnightblue" d="M2741.75,-181.433C2733.99,-178.504 2725.26,-175.671 2717,-174 2384.25,-106.689 2292.61,-162.454 1954,-138 1929.16,-136.206 1901.32,-133.504 1879.49,-131.227"/>
<polygon fill="midnightblue" stroke="midnightblue" points="1879.61,-127.72 1869.29,-130.149 1878.87,-134.681 1879.61,-127.72"/>
</g>
<!-- Node38&#45;&gt;Node11 -->
<g id="edge146" class="edge"><title>Node38&#45;&gt;Node11</title>
<path fill="none" stroke="midnightblue" d="M2741.21,-181.409C2733.58,-178.553 2725.06,-175.767 2717,-174 2690.26,-168.133 2297.21,-139.172 2169.65,-129.877"/>
<polygon fill="midnightblue" stroke="midnightblue" points="2169.76,-126.376 2159.54,-129.141 2169.26,-133.358 2169.76,-126.376"/>
</g>
<!-- Node38&#45;&gt;Node12 -->
<g id="edge144" class="edge"><title>Node38&#45;&gt;Node12</title>
<path fill="none" stroke="midnightblue" d="M2738.39,-181.482C2731.44,-178.938 2723.97,-176.294 2717,-174 2673.24,-159.606 2562.65,-127.327 2518,-116 2451.69,-99.1789 2373.04,-83.0936 2331.02,-74.8072"/>
<polygon fill="midnightblue" stroke="midnightblue" points="2331.64,-71.3627 2321.15,-72.8728 2330.29,-78.2318 2331.64,-71.3627"/>
</g>
<!-- Node38&#45;&gt;Node14 -->
<g id="edge148" class="edge"><title>Node38&#45;&gt;Node14</title>
<path fill="none" stroke="midnightblue" d="M2742.28,-181.465C2734.39,-178.46 2725.46,-175.575 2717,-174 2468.78,-127.82 696.47,-160.513 445,-138 433.045,-136.93 420,-134.97 408.623,-132.999"/>
<polygon fill="midnightblue" stroke="midnightblue" points="409.187,-129.544 398.724,-131.21 407.942,-136.432 409.187,-129.544"/>
</g>
<!-- Node38&#45;&gt;Node24 -->
<g id="edge150" class="edge"><title>Node38&#45;&gt;Node24</title>
<path fill="none" stroke="midnightblue" d="M2742.27,-181.494C2734.39,-178.49 2725.46,-175.599 2717,-174 2535.51,-139.687 1239.63,-143.396 1055,-138 960.369,-135.235 848.933,-130.831 792.583,-128.524"/>
<polygon fill="midnightblue" stroke="midnightblue" points="792.529,-125.019 782.394,-128.105 792.241,-132.013 792.529,-125.019"/>
</g>
<!-- Node38&#45;&gt;Node35 -->
<g id="edge136" class="edge"><title>Node38&#45;&gt;Node35</title>
<path fill="none" stroke="midnightblue" d="M2742.06,-181.451C2705.64,-165.688 2633.93,-135.734 2571,-116 2465.88,-83.0322 2439.23,-72.3744 2330,-58 2236.73,-45.726 758.576,-16.2887 521.086,-11.6266"/>
<polygon fill="midnightblue" stroke="midnightblue" points="521.091,-8.12616 511.024,-11.4294 520.954,-15.1248 521.091,-8.12616"/>
</g>
<!-- Node39 -->
<g id="node104" class="node"><title>Node39</title>
<polygon fill="white" stroke="#bfbfbf" points="2870.5,-116.5 2870.5,-137.5 2949.5,-137.5 2949.5,-116.5 2870.5,-116.5"/>
<text text-anchor="middle" x="2910" y="-124.5" font-family="Helvetica,sans-Serif" font-size="10.00">detail/format.h</text>
</g>
<!-- Node38&#45;&gt;Node39 -->
<g id="edge130" class="edge"><title>Node38&#45;&gt;Node39</title>
<path fill="none" stroke="midnightblue" d="M2789.46,-181.412C2813.31,-170.647 2850.45,-153.878 2877.21,-141.801"/>
<polygon fill="midnightblue" stroke="midnightblue" points="2878.88,-144.888 2886.55,-137.584 2876,-138.508 2878.88,-144.888"/>
</g>
<!-- Node40 -->
<g id="node106" class="node"><title>Node40</title>
<polygon fill="white" stroke="#bfbfbf" points="2678.5,-116.5 2678.5,-137.5 2727.5,-137.5 2727.5,-116.5 2678.5,-116.5"/>
<text text-anchor="middle" x="2703" y="-124.5" font-family="Helvetica,sans-Serif" font-size="10.00">stdint.h</text>
</g>
<!-- Node38&#45;&gt;Node40 -->
<g id="edge132" class="edge"><title>Node38&#45;&gt;Node40</title>
<path fill="none" stroke="midnightblue" d="M2755.6,-181.267C2746.06,-171.423 2731.74,-156.648 2720.45,-145"/>
<polygon fill="midnightblue" stroke="midnightblue" points="2722.68,-142.278 2713.21,-137.534 2717.66,-147.15 2722.68,-142.278"/>
</g>
<!-- Node41 -->
<g id="node108" class="node"><title>Node41</title>
<polygon fill="white" stroke="#bfbfbf" points="2394.5,-116.5 2394.5,-137.5 2443.5,-137.5 2443.5,-116.5 2394.5,-116.5"/>
<text text-anchor="middle" x="2419" y="-124.5" font-family="Helvetica,sans-Serif" font-size="10.00">cassert</text>
</g>
<!-- Node38&#45;&gt;Node41 -->
<g id="edge134" class="edge"><title>Node38&#45;&gt;Node41</title>
<path fill="none" stroke="midnightblue" d="M2740.64,-181.497C2733.14,-178.713 2724.83,-175.945 2717,-174 2604.8,-146.123 2569.69,-163.876 2453.7,-138.074"/>
<polygon fill="midnightblue" stroke="midnightblue" points="2454.25,-134.61 2443.72,-135.792 2452.69,-141.434 2454.25,-134.61"/>
</g>
<!-- Node42 -->
<g id="node111" class="node"><title>Node42</title>
<polygon fill="white" stroke="#bfbfbf" points="2744.5,-116.5 2744.5,-137.5 2793.5,-137.5 2793.5,-116.5 2744.5,-116.5"/>
<text text-anchor="middle" x="2769" y="-124.5" font-family="Helvetica,sans-Serif" font-size="10.00">cstddef</text>
</g>
<!-- Node38&#45;&gt;Node42 -->
<g id="edge138" class="edge"><title>Node38&#45;&gt;Node42</title>
<path fill="none" stroke="midnightblue" d="M2766.5,-181.267C2766.91,-172.18 2767.53,-158.892 2768.04,-147.74"/>
<polygon fill="midnightblue" stroke="midnightblue" points="2771.55,-147.684 2768.51,-137.534 2764.56,-147.362 2771.55,-147.684"/>
</g>
<!-- Node43 -->
<g id="node113" class="node"><title>Node43</title>
<polygon fill="white" stroke="#bfbfbf" points="2810.5,-116.5 2810.5,-137.5 2853.5,-137.5 2853.5,-116.5 2810.5,-116.5"/>
<text text-anchor="middle" x="2832" y="-124.5" font-family="Helvetica,sans-Serif" font-size="10.00">cstdio</text>
</g>
<!-- Node38&#45;&gt;Node43 -->
<g id="edge140" class="edge"><title>Node38&#45;&gt;Node43</title>
<path fill="none" stroke="midnightblue" d="M2776.9,-181.267C2786.99,-171.328 2802.18,-156.363 2814.06,-144.664"/>
<polygon fill="midnightblue" stroke="midnightblue" points="2816.64,-147.044 2821.3,-137.534 2811.72,-142.057 2816.64,-147.044"/>
</g>
<!-- Node44&#45;&gt;Node6 -->
<g id="edge160" class="edge"><title>Node44&#45;&gt;Node6</title>
<path fill="none" stroke="midnightblue" d="M878.024,-370.89C990.952,-364.433 1340.98,-344.272 1631,-326 2018.64,-301.577 2116.88,-310.154 2503,-268 2545.57,-263.353 2844.78,-227.183 2884,-210 2936.98,-186.791 3007.28,-163.303 2974,-116 2963.31,-100.802 2918.17,-86.8998 2883.84,-78.2227"/>
<polygon fill="midnightblue" stroke="midnightblue" points="2884.58,-74.8004 2874.03,-75.8096 2882.91,-81.5977 2884.58,-74.8004"/>
</g>
<!-- Node44&#45;&gt;Node7 -->
<g id="edge166" class="edge"><title>Node44&#45;&gt;Node7</title>
<path fill="none" stroke="midnightblue" d="M803.685,-370.322C767.355,-366.038 712.18,-354.909 674,-326 589.164,-261.764 494.342,-200.515 559,-116 618.877,-37.735 676.238,-76.6479 773,-58 909.561,-31.682 1075.19,-18.0029 1143.82,-13.1216"/>
<polygon fill="midnightblue" stroke="midnightblue" points="1144.25,-16.6002 1153.98,-12.4132 1143.76,-9.61717 1144.25,-16.6002"/>
</g>
<!-- Node44&#45;&gt;Node21 -->
<g id="edge158" class="edge"><title>Node44&#45;&gt;Node21</title>
<path fill="none" stroke="midnightblue" d="M878.22,-370.163C1009.73,-360.14 1451.08,-326.503 1571.45,-317.328"/>
<polygon fill="midnightblue" stroke="midnightblue" points="1571.75,-320.816 1581.46,-316.566 1571.22,-313.836 1571.75,-320.816"/>
</g>
<!-- Node44&#45;&gt;Node24 -->
<g id="edge170" class="edge"><title>Node44&#45;&gt;Node24</title>
<path fill="none" stroke="midnightblue" d="M803.746,-366.743C763.062,-359.062 701.83,-344.717 688,-326 645.438,-268.4 708.031,-182.228 739.616,-145.093"/>
<polygon fill="midnightblue" stroke="midnightblue" points="742.264,-147.382 746.191,-137.542 736.985,-142.785 742.264,-147.382"/>
</g>
<!-- Node44&#45;&gt;Node30 -->
<g id="edge168" class="edge"><title>Node44&#45;&gt;Node30</title>
<path fill="none" stroke="midnightblue" d="M841.349,-362.486C842.314,-333.37 845.035,-251.292 846.316,-212.63"/>
<polygon fill="midnightblue" stroke="midnightblue" points="849.817,-212.653 846.651,-202.543 842.821,-212.421 849.817,-212.653"/>
</g>
<!-- Node45 -->
<g id="node126" class="node"><title>Node45</title>
<a xlink:href="_lorentz_vec_8h.html" target="_top" xlink:title="base/vec/LorentzVec.h">
<polygon fill="white" stroke="black" points="696.5,-304.5 696.5,-325.5 813.5,-325.5 813.5,-304.5 696.5,-304.5"/>
<text text-anchor="middle" x="755" y="-312.5" font-family="Helvetica,sans-Serif" font-size="10.00">base/vec/LorentzVec.h</text>
</a>
</g>
<!-- Node44&#45;&gt;Node45 -->
<g id="edge162" class="edge"><title>Node44&#45;&gt;Node45</title>
<path fill="none" stroke="midnightblue" d="M825.226,-362.362C812.376,-353.696 794.015,-341.313 779.29,-331.382"/>
<polygon fill="midnightblue" stroke="midnightblue" points="780.921,-328.26 770.674,-325.571 777.007,-334.064 780.921,-328.26"/>
</g>
<!-- Node45&#45;&gt;Node33 -->
<g id="edge164" class="edge"><title>Node45&#45;&gt;Node33</title>
<path fill="none" stroke="midnightblue" d="M736.573,-304.32C709.578,-287.693 659.609,-253.015 633,-210 621.206,-190.934 616.02,-165.522 613.749,-147.861"/>
<polygon fill="midnightblue" stroke="midnightblue" points="617.211,-147.322 612.658,-137.755 610.252,-148.073 617.211,-147.322"/>
</g>
<!-- Node46&#45;&gt;Node6 -->
<g id="edge176" class="edge"><title>Node46&#45;&gt;Node6</title>
<path fill="none" stroke="midnightblue" d="M2483.32,-181.344C2477.5,-178.657 2471.1,-175.977 2465,-174 2383.83,-147.702 2224.24,-178.799 2282,-116 2317.04,-77.9043 2678.19,-70.6735 2801.78,-69.3124"/>
<polygon fill="midnightblue" stroke="midnightblue" points="2802.01,-72.8104 2811.97,-69.2078 2801.93,-65.8108 2802.01,-72.8104"/>
</g>
<!-- Node46&#45;&gt;Node9 -->
<g id="edge174" class="edge"><title>Node46&#45;&gt;Node9</title>
<path fill="none" stroke="midnightblue" d="M2482.35,-181.406C2476.76,-178.837 2470.71,-176.2 2465,-174 2443.82,-165.833 2386.82,-148.433 2349.5,-137.248"/>
<polygon fill="midnightblue" stroke="midnightblue" points="2350.13,-133.782 2339.55,-134.271 2348.12,-140.489 2350.13,-133.782"/>
</g>
<!-- Node46&#45;&gt;Node12 -->
<g id="edge180" class="edge"><title>Node46&#45;&gt;Node12</title>
<path fill="none" stroke="midnightblue" d="M2483.76,-181.414C2477.84,-178.662 2471.27,-175.932 2465,-174 2418.49,-159.676 2280.45,-175.13 2249,-138 2234.3,-120.652 2255.24,-99.6589 2274.76,-85.418"/>
<polygon fill="midnightblue" stroke="midnightblue" points="2276.98,-88.1385 2283.22,-79.5732 2273,-82.3803 2276.98,-88.1385"/>
</g>
<!-- Node46&#45;&gt;Node16 -->
<g id="edge182" class="edge"><title>Node46&#45;&gt;Node16</title>
<path fill="none" stroke="midnightblue" d="M2484.69,-181.325C2478.57,-178.428 2471.66,-175.642 2465,-174 2312.26,-136.355 1914.53,-153.739 1758,-138 1745.97,-136.79 1732.89,-134.978 1721.17,-133.171"/>
<polygon fill="midnightblue" stroke="midnightblue" points="1721.7,-129.712 1711.28,-131.601 1720.6,-136.626 1721.7,-129.712"/>
</g>
<!-- Node46&#45;&gt;Node17 -->
<g id="edge178" class="edge"><title>Node46&#45;&gt;Node17</title>
<path fill="none" stroke="midnightblue" d="M2484.69,-181.339C2478.57,-178.443 2471.66,-175.653 2465,-174 2182.67,-103.887 2091.1,-208.465 1805.58,-137.581"/>
<polygon fill="midnightblue" stroke="midnightblue" points="1806.33,-134.16 1795.77,-135.097 1804.61,-140.946 1806.33,-134.16"/>
</g>
<!-- Node47&#45;&gt;Node6 -->
<g id="edge188" class="edge"><title>Node47&#45;&gt;Node6</title>
<path fill="none" stroke="midnightblue" d="M1772.2,-181.43C1759.8,-165.227 1740.55,-134.22 1758,-116 1776.4,-96.7889 2605.88,-74.9159 2801.83,-70.0107"/>
<polygon fill="midnightblue" stroke="midnightblue" points="2802.08,-73.5055 2811.99,-69.7573 2801.91,-66.5077 2802.08,-73.5055"/>
</g>
<!-- Node47&#45;&gt;Node9 -->
<g id="edge186" class="edge"><title>Node47&#45;&gt;Node9</title>
<path fill="none" stroke="midnightblue" d="M1799.83,-181.496C1805.8,-178.607 1812.52,-175.781 1819,-174 1863.25,-161.83 2174.97,-137.54 2280.31,-129.587"/>
<polygon fill="midnightblue" stroke="midnightblue" points="2280.71,-133.067 2290.42,-128.826 2280.18,-126.087 2280.71,-133.067"/>
</g>
<!-- Node47&#45;&gt;Node16 -->
<g id="edge200" class="edge"><title>Node47&#45;&gt;Node16</title>
<path fill="none" stroke="midnightblue" d="M1765.15,-181.267C1749.91,-170.949 1726.67,-155.216 1709.14,-143.342"/>
<polygon fill="midnightblue" stroke="midnightblue" points="1710.8,-140.242 1700.56,-137.534 1706.88,-146.038 1710.8,-140.242"/>
</g>
<!-- Node47&#45;&gt;Node17 -->
<g id="edge198" class="edge"><title>Node47&#45;&gt;Node17</title>
<path fill="none" stroke="midnightblue" d="M1781,-181.267C1781,-172.18 1781,-158.892 1781,-147.74"/>
<polygon fill="midnightblue" stroke="midnightblue" points="1784.5,-147.534 1781,-137.534 1777.5,-147.534 1784.5,-147.534"/>
</g>
<!-- Node47&#45;&gt;Node33 -->
<g id="edge196" class="edge"><title>Node47&#45;&gt;Node33</title>
<path fill="none" stroke="midnightblue" d="M1751.29,-183.537C1737.36,-179.937 1720.45,-176.092 1705,-174 1271.33,-115.289 1157.6,-167.986 721,-138 703.314,-136.785 684.057,-134.997 666.718,-133.214"/>
<polygon fill="midnightblue" stroke="midnightblue" points="667.068,-129.731 656.757,-132.169 666.337,-136.693 667.068,-129.731"/>
</g>
<!-- Node48 -->
<g id="node143" class="node"><title>Node48</title>
<a xlink:href="math_8h.html" target="_top" xlink:title="base/std_ext/math.h">
<polygon fill="white" stroke="black" points="1064,-116.5 1064,-137.5 1170,-137.5 1170,-116.5 1064,-116.5"/>
<text text-anchor="middle" x="1117" y="-124.5" font-family="Helvetica,sans-Serif" font-size="10.00">base/std_ext/math.h</text>
</a>
</g>
<!-- Node47&#45;&gt;Node48 -->
<g id="edge190" class="edge"><title>Node47&#45;&gt;Node48</title>
<path fill="none" stroke="midnightblue" d="M1751.26,-183.798C1737.31,-180.252 1720.41,-176.378 1705,-174 1490.07,-140.835 1433.57,-157.893 1217,-138 1205.11,-136.908 1192.44,-135.615 1180.25,-134.306"/>
<polygon fill="midnightblue" stroke="midnightblue" points="1180.48,-130.81 1170.16,-133.206 1179.72,-137.768 1180.48,-130.81"/>
</g>
<!-- Node48&#45;&gt;Node12 -->
<g id="edge194" class="edge"><title>Node48&#45;&gt;Node12</title>
<path fill="none" stroke="midnightblue" d="M1170.32,-117.651C1174.93,-117.022 1179.54,-116.458 1184,-116 1403.43,-93.4539 2113.76,-73.8931 2270.29,-69.7899"/>
<polygon fill="midnightblue" stroke="midnightblue" points="2270.69,-73.2809 2280.59,-69.5213 2270.51,-66.2832 2270.69,-73.2809"/>
</g>
<!-- Node48&#45;&gt;Node35 -->
<g id="edge192" class="edge"><title>Node48&#45;&gt;Node35</title>
<path fill="none" stroke="midnightblue" d="M1064,-117.21C937.906,-93.9189 623.017,-35.7548 521.262,-16.9593"/>
<polygon fill="midnightblue" stroke="midnightblue" points="521.747,-13.4897 511.278,-15.115 520.476,-20.3732 521.747,-13.4897"/>
</g>
<!-- Node49&#45;&gt;Node7 -->
<g id="edge220" class="edge"><title>Node49&#45;&gt;Node7</title>
<path fill="none" stroke="midnightblue" d="M770.292,-246.198C744.733,-221.313 688.716,-158.8 721,-116 772.532,-47.6821 1048.5,-20.6354 1143.69,-13.2512"/>
<polygon fill="midnightblue" stroke="midnightblue" points="1144.16,-16.7259 1153.87,-12.4838 1143.64,-9.74568 1144.16,-16.7259"/>
</g>
<!-- Node49&#45;&gt;Node16 -->
<g id="edge228" class="edge"><title>Node49&#45;&gt;Node16</title>
<path fill="none" stroke="midnightblue" d="M813.252,-254.693C931.072,-245.965 1342.35,-215.193 1355,-210 1378.06,-200.537 1375.34,-184.373 1398,-174 1488.49,-132.582 1520.81,-154.18 1619,-138 1628.68,-136.405 1639.16,-134.665 1648.85,-133.05"/>
<polygon fill="midnightblue" stroke="midnightblue" points="1649.7,-136.457 1658.99,-131.358 1648.55,-129.552 1649.7,-136.457"/>
</g>
<!-- Node49&#45;&gt;Node24 -->
<g id="edge226" class="edge"><title>Node49&#45;&gt;Node24</title>
<path fill="none" stroke="midnightblue" d="M779.872,-246.362C775.568,-224.841 765.761,-175.807 760.148,-147.74"/>
<polygon fill="midnightblue" stroke="midnightblue" points="763.55,-146.905 758.157,-137.785 756.686,-148.278 763.55,-146.905"/>
</g>
<!-- Node49&#45;&gt;Node30 -->
<g id="edge224" class="edge"><title>Node49&#45;&gt;Node30</title>
<path fill="none" stroke="midnightblue" d="M792.733,-246.267C802.672,-236.328 817.637,-221.363 829.336,-209.664"/>
<polygon fill="midnightblue" stroke="midnightblue" points="831.87,-212.08 836.466,-202.534 826.92,-207.13 831.87,-212.08"/>
</g>
<!-- Node49&#45;&gt;Node32 -->
<g id="edge204" class="edge"><title>Node49&#45;&gt;Node32</title>
<path fill="none" stroke="midnightblue" d="M813.074,-253.769C868.026,-247.697 985.738,-233.076 1083,-210 1088.34,-208.733 1093.91,-207.204 1099.37,-205.58"/>
<polygon fill="midnightblue" stroke="midnightblue" points="1100.5,-208.893 1109.02,-202.589 1098.43,-202.207 1100.5,-208.893"/>
</g>
<!-- Node49&#45;&gt;Node33 -->
<g id="edge218" class="edge"><title>Node49&#45;&gt;Node33</title>
<path fill="none" stroke="midnightblue" d="M750.985,-249.956C725.943,-243.054 690.897,-230.527 666,-210 645.183,-192.838 629.596,-165.525 620.649,-146.957"/>
<polygon fill="midnightblue" stroke="midnightblue" points="623.731,-145.282 616.371,-137.661 617.372,-148.208 623.731,-145.282"/>
</g>
<!-- Node49&#45;&gt;Node35 -->
<g id="edge222" class="edge"><title>Node49&#45;&gt;Node35</title>
<path fill="none" stroke="midnightblue" d="M750.615,-256.825C624.775,-255.852 161.068,-249.588 110,-210 75.9222,-183.583 59.6332,-150.117 86,-116 131.997,-56.4836 369.449,-24.3505 456.749,-14.4047"/>
<polygon fill="midnightblue" stroke="midnightblue" points="457.314,-17.8635 466.864,-13.2756 456.537,-10.9067 457.314,-17.8635"/>
</g>
<!-- Node49&#45;&gt;Node48 -->
<g id="edge206" class="edge"><title>Node49&#45;&gt;Node48</title>
<path fill="none" stroke="midnightblue" d="M782.653,-246.407C784.368,-228.463 790.575,-192.259 813,-174 848.918,-144.754 975.734,-133.563 1053.78,-129.386"/>
<polygon fill="midnightblue" stroke="midnightblue" points="1054.17,-132.871 1063.98,-128.865 1053.81,-125.88 1054.17,-132.871"/>
</g>
<!-- Node50 -->
<g id="node154" class="node"><title>Node50</title>
<a xlink:href="shared__ptr__container_8h.html" target="_top" xlink:title="base/std_ext/shared\l_ptr_container.h">
<polygon fill="white" stroke="black" points="1241.5,-175 1241.5,-209 1346.5,-209 1346.5,-175 1241.5,-175"/>
<text text-anchor="start" x="1249.5" y="-196" font-family="Helvetica,sans-Serif" font-size="10.00">base/std_ext/shared</text>
<text text-anchor="middle" x="1294" y="-183" font-family="Helvetica,sans-Serif" font-size="10.00">_ptr_container.h</text>
</a>
</g>
<!-- Node49&#45;&gt;Node50 -->
<g id="edge208" class="edge"><title>Node49&#45;&gt;Node50</title>
<path fill="none" stroke="midnightblue" d="M813.178,-254.167C882.175,-247.741 1052.93,-230.975 1195,-210 1206.81,-208.256 1219.38,-206.16 1231.45,-204.024"/>
<polygon fill="midnightblue" stroke="midnightblue" points="1232.22,-207.441 1241.44,-202.227 1230.98,-200.551 1232.22,-207.441"/>
</g>
<!-- Node50&#45;&gt;Node7 -->
<g id="edge210" class="edge"><title>Node50&#45;&gt;Node7</title>
<path fill="none" stroke="midnightblue" d="M1298.93,-174.849C1302.57,-158.863 1305.55,-134.741 1297,-116 1278.46,-75.357 1235.55,-44.3811 1206.15,-26.9406"/>
<polygon fill="midnightblue" stroke="midnightblue" points="1207.55,-23.7042 1197.13,-21.7587 1204.06,-29.7742 1207.55,-23.7042"/>
</g>
<!-- Node50&#45;&gt;Node10 -->
<g id="edge216" class="edge"><title>Node50&#45;&gt;Node10</title>
<path fill="none" stroke="midnightblue" d="M1346.61,-189.616C1437.87,-184.787 1631.43,-171.495 1802.89,-137.926"/>
<polygon fill="midnightblue" stroke="midnightblue" points="1803.73,-141.329 1812.85,-135.948 1802.36,-134.463 1803.73,-141.329"/>
</g>
<!-- Node50&#45;&gt;Node16 -->
<g id="edge212" class="edge"><title>Node50&#45;&gt;Node16</title>
<path fill="none" stroke="midnightblue" d="M1346.81,-176.957C1351.26,-175.886 1355.7,-174.882 1360,-174 1473.85,-150.663 1504.12,-155.555 1619,-138 1628.61,-136.531 1639,-134.846 1648.62,-133.244"/>
<polygon fill="midnightblue" stroke="midnightblue" points="1649.41,-136.661 1658.69,-131.552 1648.25,-129.758 1649.41,-136.661"/>
</g>
<!-- Node50&#45;&gt;Node51 -->
<g id="edge214" class="edge"><title>Node50&#45;&gt;Node51</title>
<path fill="none" stroke="midnightblue" d="M1241.26,-181.167C1226.36,-178.445 1210.09,-175.792 1195,-174 913.856,-140.614 840.701,-166.304 559,-138 547.099,-136.804 534.205,-135.095 522.475,-133.38"/>
<polygon fill="midnightblue" stroke="midnightblue" points="522.931,-129.91 512.522,-131.884 521.891,-136.832 522.931,-129.91"/>
</g>
<!-- Node52&#45;&gt;Node7 -->
<g id="edge236" class="edge"><title>Node52&#45;&gt;Node7</title>
<path fill="none" stroke="midnightblue" d="M1128.95,-304.269C1114.51,-289.384 1086.47,-262.452 1058,-246 1016.74,-222.157 984.464,-248.945 957,-210 947.779,-196.924 951.428,-188.998 957,-174 980.706,-110.193 1001.51,-97.425 1057,-58 1083.58,-39.1163 1118.8,-26.4362 1144.01,-19.0537"/>
<polygon fill="midnightblue" stroke="midnightblue" points="1145.13,-22.3741 1153.82,-16.3016 1143.24,-15.6346 1145.13,-22.3741"/>
</g>
<!-- Node52&#45;&gt;Node10 -->
<g id="edge244" class="edge"><title>Node52&#45;&gt;Node10</title>
<path fill="none" stroke="midnightblue" d="M1176.63,-313.491C1290.9,-308.685 1632.63,-292.59 1741,-268 1767.48,-261.991 1772.03,-253.944 1798,-246 1866.46,-225.058 1910.39,-265.993 1955,-210 1964.97,-197.486 1963.9,-187.296 1955,-174 1938.18,-148.872 1905.22,-137.164 1879.04,-131.718"/>
<polygon fill="midnightblue" stroke="midnightblue" points="1879.5,-128.243 1869.03,-129.863 1878.23,-135.126 1879.5,-128.243"/>
</g>
<!-- Node52&#45;&gt;Node16 -->
<g id="edge242" class="edge"><title>Node52&#45;&gt;Node16</title>
<path fill="none" stroke="midnightblue" d="M1146.18,-304.413C1157.29,-288.934 1180.18,-260.406 1207,-246 1280.41,-206.567 1309.95,-229.336 1391,-210 1484.98,-187.581 1594.07,-155.042 1649.19,-138.136"/>
<polygon fill="midnightblue" stroke="midnightblue" points="1650.31,-141.454 1658.84,-135.168 1648.25,-134.764 1650.31,-141.454"/>
</g>
<!-- Node52&#45;&gt;Node24 -->
<g id="edge240" class="edge"><title>Node52&#45;&gt;Node24</title>
<path fill="none" stroke="midnightblue" d="M1101.17,-313.33C1006.58,-308.767 765.656,-294.622 742,-268 712.199,-234.462 731.966,-177.145 745.799,-146.954"/>
<polygon fill="midnightblue" stroke="midnightblue" points="749.008,-148.358 750.183,-137.828 742.698,-145.327 749.008,-148.358"/>
</g>
<!-- Node52&#45;&gt;Node30 -->
<g id="edge238" class="edge"><title>Node52&#45;&gt;Node30</title>
<path fill="none" stroke="midnightblue" d="M1101.19,-310.83C1043.16,-303.877 935.437,-288.617 903,-268 881.609,-254.404 865.626,-229.5 856.324,-211.912"/>
<polygon fill="midnightblue" stroke="midnightblue" points="859.238,-209.914 851.628,-202.542 852.98,-213.05 859.238,-209.914"/>
</g>
<!-- Node52&#45;&gt;Node32 -->
<g id="edge234" class="edge"><title>Node52&#45;&gt;Node32</title>
<path fill="none" stroke="midnightblue" d="M1139,-304.085C1139,-283.609 1139,-239.133 1139,-212.778"/>
<polygon fill="midnightblue" stroke="midnightblue" points="1142.5,-212.715 1139,-202.715 1135.5,-212.715 1142.5,-212.715"/>
</g>
<!-- Node52&#45;&gt;Node49 -->
<g id="edge232" class="edge"><title>Node52&#45;&gt;Node49</title>
<path fill="none" stroke="midnightblue" d="M1101.47,-308.903C1034.12,-297.961 893.277,-275.079 823.294,-263.709"/>
<polygon fill="midnightblue" stroke="midnightblue" points="823.528,-260.201 813.096,-262.052 822.406,-267.11 823.528,-260.201"/>
</g>
<!-- Node53&#45;&gt;Node6 -->
<g id="edge250" class="edge"><title>Node53&#45;&gt;Node6</title>
<path fill="none" stroke="midnightblue" d="M2280.31,-371.752C2410.4,-366.263 2895.15,-341.183 3027,-268 3090.36,-232.831 3132.12,-171.895 3086,-116 3060.92,-85.609 2947.07,-74.6406 2884.5,-70.8636"/>
<polygon fill="midnightblue" stroke="midnightblue" points="2884.37,-67.3504 2874.19,-70.2779 2883.97,-74.3392 2884.37,-67.3504"/>
</g>
<!-- Node53&#45;&gt;Node7 -->
<g id="edge286" class="edge"><title>Node53&#45;&gt;Node7</title>
<path fill="none" stroke="midnightblue" d="M2215.71,-372.697C2088.43,-371.241 1625.86,-363.399 1573,-326 1489.96,-267.254 1556.69,-185.054 1482,-116 1402.64,-42.6227 1269.67,-20.2298 1208.54,-13.6338"/>
<polygon fill="midnightblue" stroke="midnightblue" points="1208.63,-10.1256 1198.33,-12.6089 1207.93,-17.0906 1208.63,-10.1256"/>
</g>
<!-- Node53&#45;&gt;Node9 -->
<g id="edge252" class="edge"><title>Node53&#45;&gt;Node9</title>
<path fill="none" stroke="midnightblue" d="M2280.14,-370.53C2340.16,-365.361 2466.38,-351.696 2501,-326 2547.61,-291.403 2547.28,-266.398 2561,-210 2564.78,-194.454 2571.33,-186.216 2561,-174 2531.62,-139.266 2408.82,-148.599 2349.63,-138.062"/>
<polygon fill="midnightblue" stroke="midnightblue" points="2350.2,-134.604 2339.69,-135.935 2348.73,-141.45 2350.2,-134.604"/>
</g>
<!-- Node53&#45;&gt;Node16 -->
<g id="edge292" class="edge"><title>Node53&#45;&gt;Node16</title>
<path fill="none" stroke="midnightblue" d="M2236.52,-362.439C2199.2,-328.76 2076.7,-223.242 1955,-174 1933.6,-165.343 1789.52,-142.807 1721.03,-132.406"/>
<polygon fill="midnightblue" stroke="midnightblue" points="1721.52,-128.94 1711.11,-130.903 1720.47,-135.861 1721.52,-128.94"/>
</g>
<!-- Node53&#45;&gt;Node17 -->
<g id="edge288" class="edge"><title>Node53&#45;&gt;Node17</title>
<path fill="none" stroke="midnightblue" d="M2249,-362.207C2251.49,-328.29 2254.01,-223.196 2196,-174 2131.57,-119.353 1904.6,-158.357 1805.79,-137.462"/>
<polygon fill="midnightblue" stroke="midnightblue" points="1806.34,-133.993 1795.8,-135.012 1804.68,-140.792 1806.34,-133.993"/>
</g>
<!-- Node53&#45;&gt;Node45 -->
<g id="edge284" class="edge"><title>Node53&#45;&gt;Node45</title>
<path fill="none" stroke="midnightblue" d="M2215.78,-371.748C2029.36,-364.506 1088.14,-327.942 824.012,-317.681"/>
<polygon fill="midnightblue" stroke="midnightblue" points="823.92,-314.175 813.792,-317.284 823.649,-321.17 823.92,-314.175"/>
</g>
<!-- Node53&#45;&gt;Node52 -->
<g id="edge248" class="edge"><title>Node53&#45;&gt;Node52</title>
<path fill="none" stroke="midnightblue" d="M2215.71,-371.311C2058.63,-363.096 1374.34,-327.308 1186.73,-317.496"/>
<polygon fill="midnightblue" stroke="midnightblue" points="1186.79,-313.995 1176.62,-316.968 1186.43,-320.985 1186.79,-313.995"/>
</g>
<!-- Node54 -->
<g id="node181" class="node"><title>Node54</title>
<a xlink:href="_particle_type_8h.html" target="_top" xlink:title="base/ParticleType.h">
<polygon fill="white" stroke="black" points="2354,-246.5 2354,-267.5 2458,-267.5 2458,-246.5 2354,-246.5"/>
<text text-anchor="middle" x="2406" y="-254.5" font-family="Helvetica,sans-Serif" font-size="10.00">base/ParticleType.h</text>
</a>
</g>
<!-- Node53&#45;&gt;Node54 -->
<g id="edge254" class="edge"><title>Node53&#45;&gt;Node54</title>
<path fill="none" stroke="midnightblue" d="M2262.58,-362.295C2290.21,-342.009 2350.37,-297.84 2383.32,-273.653"/>
<polygon fill="midnightblue" stroke="midnightblue" points="2385.46,-276.419 2391.45,-267.679 2381.32,-270.776 2385.46,-276.419"/>
</g>
<!-- Node57 -->
<g id="node192" class="node"><title>Node57</title>
<a xlink:href="_tree_8h.html" target="_top" xlink:title="base/Tree.h">
<polygon fill="white" stroke="black" points="2248,-181.5 2248,-202.5 2316,-202.5 2316,-181.5 2248,-181.5"/>
<text text-anchor="middle" x="2282" y="-189.5" font-family="Helvetica,sans-Serif" font-size="10.00">base/Tree.h</text>
</a>
</g>
<!-- Node53&#45;&gt;Node57 -->
<g id="edge270" class="edge"><title>Node53&#45;&gt;Node57</title>
<path fill="none" stroke="midnightblue" d="M2251.66,-362.287C2254.78,-352.833 2259.19,-338.633 2262,-326 2270.85,-286.221 2276.88,-238.911 2279.85,-212.483"/>
<polygon fill="midnightblue" stroke="midnightblue" points="2283.34,-212.838 2280.94,-202.517 2276.38,-212.079 2283.34,-212.838"/>
</g>
<!-- Node59 -->
<g id="node204" class="node"><title>Node59</title>
<polygon fill="white" stroke="#bfbfbf" points="2438,-304.5 2438,-325.5 2492,-325.5 2492,-304.5 2438,-304.5"/>
<text text-anchor="middle" x="2465" y="-312.5" font-family="Helvetica,sans-Serif" font-size="10.00">iostream</text>
</g>
<!-- Node53&#45;&gt;Node59 -->
<g id="edge290" class="edge"><title>Node53&#45;&gt;Node59</title>
<path fill="none" stroke="midnightblue" d="M2280.12,-364.435C2315.4,-355.023 2373.74,-339.452 2424,-326 2425.24,-325.668 2426.5,-325.33 2427.78,-324.988"/>
<polygon fill="midnightblue" stroke="midnightblue" points="2428.9,-328.311 2437.65,-322.341 2427.09,-321.55 2428.9,-328.311"/>
</g>
<!-- Node54&#45;&gt;Node5 -->
<g id="edge258" class="edge"><title>Node54&#45;&gt;Node5</title>
<path fill="none" stroke="midnightblue" d="M2448.39,-246.484C2494.72,-234.988 2568.91,-216.583 2618.04,-204.393"/>
<polygon fill="midnightblue" stroke="midnightblue" points="2618.96,-207.772 2627.83,-201.967 2617.28,-200.978 2618.96,-207.772"/>
</g>
<!-- Node54&#45;&gt;Node7 -->
<g id="edge268" class="edge"><title>Node54&#45;&gt;Node7</title>
<path fill="none" stroke="midnightblue" d="M2400.73,-246.45C2391.45,-228.895 2370.52,-193.678 2343,-174 2334.67,-168.042 2178.01,-118.171 2168,-116 1796.74,-35.4654 1333.38,-15.8526 1208.34,-11.8879"/>
<polygon fill="midnightblue" stroke="midnightblue" points="1208.38,-8.38765 1198.28,-11.58 1208.16,-15.3844 1208.38,-8.38765"/>
</g>
<!-- Node54&#45;&gt;Node8 -->
<g id="edge262" class="edge"><title>Node54&#45;&gt;Node8</title>
<path fill="none" stroke="midnightblue" d="M2458.32,-253.285C2553.09,-246.175 2749.43,-229.598 2815,-210 2883.18,-189.623 2918.56,-197.224 2958,-138 2979.43,-105.823 2975.78,-58.3325 2971.31,-31.4728"/>
<polygon fill="midnightblue" stroke="midnightblue" points="2974.76,-30.8315 2969.49,-21.6397 2967.87,-32.111 2974.76,-30.8315"/>
</g>
<!-- Node54&#45;&gt;Node9 -->
<g id="edge256" class="edge"><title>Node54&#45;&gt;Node9</title>
<path fill="none" stroke="midnightblue" d="M2455.32,-246.433C2490.15,-237.853 2532.44,-224.785 2543,-210 2552.3,-196.979 2553.21,-186.322 2543,-174 2488.17,-107.811 2436.59,-157.971 2353,-138 2351.93,-137.745 2350.85,-137.478 2349.76,-137.203"/>
<polygon fill="midnightblue" stroke="midnightblue" points="2350.41,-133.756 2339.85,-134.558 2348.61,-140.519 2350.41,-133.756"/>
</g>
<!-- Node54&#45;&gt;Node14 -->
<g id="edge260" class="edge"><title>Node54&#45;&gt;Node14</title>
<path fill="none" stroke="midnightblue" d="M2353.98,-255.833C2039.3,-248.765 403.482,-211.934 401,-210 382.278,-195.411 377.931,-167.004 377.33,-147.524"/>
<polygon fill="midnightblue" stroke="midnightblue" points="380.83,-147.507 377.321,-137.51 373.83,-147.513 380.83,-147.507"/>
</g>
<!-- Node54&#45;&gt;Node55 -->
<g id="edge264" class="edge"><title>Node54&#45;&gt;Node55</title>
<path fill="none" stroke="midnightblue" d="M2353.98,-255.81C2263.79,-253.755 2072.57,-249.431 1911,-246 1861.61,-244.951 171.67,-240.739 133,-210 114.628,-195.397 110.93,-167.234 110.794,-147.793"/>
<polygon fill="midnightblue" stroke="midnightblue" points="114.293,-147.856 111.028,-137.777 107.295,-147.693 114.293,-147.856"/>
</g>
<!-- Node56 -->
<g id="node189" class="node"><title>Node56</title>
<polygon fill="white" stroke="#bfbfbf" points="2409.5,-181.5 2409.5,-202.5 2456.5,-202.5 2456.5,-181.5 2409.5,-181.5"/>
<text text-anchor="middle" x="2433" y="-189.5" font-family="Helvetica,sans-Serif" font-size="10.00">iterator</text>
</g>
<!-- Node54&#45;&gt;Node56 -->
<g id="edge266" class="edge"><title>Node54&#45;&gt;Node56</title>
<path fill="none" stroke="midnightblue" d="M2410.46,-246.267C2414.31,-236.991 2419.98,-223.336 2424.67,-212.045"/>
<polygon fill="midnightblue" stroke="midnightblue" points="2428.02,-213.111 2428.62,-202.534 2421.56,-210.426 2428.02,-213.111"/>
</g>
<!-- Node57&#45;&gt;Node7 -->
<g id="edge278" class="edge"><title>Node57&#45;&gt;Node7</title>
<path fill="none" stroke="midnightblue" d="M2256.94,-181.356C2249.65,-178.604 2241.6,-175.887 2234,-174 2112.23,-143.771 2076.85,-163.519 1954,-138 1919.57,-130.848 1912.27,-123.875 1878,-116 1729.45,-81.8673 1690.73,-80.6529 1540,-58 1417.89,-39.6479 1272.07,-22.1479 1208.41,-14.7264"/>
<polygon fill="midnightblue" stroke="midnightblue" points="1208.54,-11.2185 1198.2,-13.5413 1207.73,-18.1717 1208.54,-11.2185"/>
</g>
<!-- Node57&#45;&gt;Node10 -->
<g id="edge280" class="edge"><title>Node57&#45;&gt;Node10</title>
<path fill="none" stroke="midnightblue" d="M2257.45,-181.479C2250.03,-178.66 2241.79,-175.878 2234,-174 2097.87,-141.172 2059.93,-155.538 1921,-138 1907.39,-136.282 1892.5,-134.27 1879.29,-132.44"/>
<polygon fill="midnightblue" stroke="midnightblue" points="1879.51,-128.937 1869.12,-131.021 1878.54,-135.869 1879.51,-128.937"/>
</g>
<!-- Node57&#45;&gt;Node16 -->
<g id="edge274" class="edge"><title>Node57&#45;&gt;Node16</title>
<path fill="none" stroke="midnightblue" d="M2247.96,-186.283C2224.21,-182.433 2191.73,-177.447 2163,-174 1983.58,-152.476 1937.43,-159.473 1758,-138 1745.99,-136.563 1732.92,-134.691 1721.2,-132.9"/>
<polygon fill="midnightblue" stroke="midnightblue" points="1721.72,-129.439 1711.3,-131.359 1720.65,-136.356 1721.72,-129.439"/>
</g>
<!-- Node57&#45;&gt;Node17 -->
<g id="edge276" class="edge"><title>Node57&#45;&gt;Node17</title>
<path fill="none" stroke="midnightblue" d="M2257.48,-181.326C2250.07,-178.503 2241.81,-175.757 2234,-174 2050.09,-132.652 1991.11,-186.301 1805.59,-137.661"/>
<polygon fill="midnightblue" stroke="midnightblue" points="1806.36,-134.244 1795.79,-135.03 1804.54,-141.005 1806.36,-134.244"/>
</g>
<!-- Node57&#45;&gt;Node41 -->
<g id="edge282" class="edge"><title>Node57&#45;&gt;Node41</title>
<path fill="none" stroke="midnightblue" d="M2304.32,-181.412C2326.91,-170.694 2362.04,-154.025 2387.47,-141.96"/>
<polygon fill="midnightblue" stroke="midnightblue" points="2389.16,-145.032 2396.69,-137.584 2386.16,-138.708 2389.16,-145.032"/>
</g>
<!-- Node58 -->
<g id="node194" class="node"><title>Node58</title>
<polygon fill="white" stroke="#bfbfbf" points="1963,-116.5 1963,-137.5 2083,-137.5 2083,-116.5 1963,-116.5"/>
<text text-anchor="middle" x="2023" y="-124.5" font-family="Helvetica,sans-Serif" font-size="10.00">base/cereal/access.hpp</text>
</g>
<!-- Node57&#45;&gt;Node58 -->
<g id="edge272" class="edge"><title>Node57&#45;&gt;Node58</title>
<path fill="none" stroke="midnightblue" d="M2255.82,-181.427C2248.8,-178.801 2241.17,-176.13 2234,-174 2186.64,-159.921 2132.19,-147.893 2090.47,-139.53"/>
<polygon fill="midnightblue" stroke="midnightblue" points="2090.91,-136.049 2080.42,-137.537 2089.55,-142.915 2090.91,-136.049"/>
</g>
<!-- Node60&#45;&gt;Node14 -->
<g id="edge296" class="edge"><title>Node60&#45;&gt;Node14</title>
<path fill="none" stroke="midnightblue" d="M221.461,-181.412C256.313,-169.298 313.039,-149.58 347.787,-137.502"/>
<polygon fill="midnightblue" stroke="midnightblue" points="349.096,-140.752 357.393,-134.163 346.798,-134.14 349.096,-140.752"/>
</g>
<!-- Node60&#45;&gt;Node16 -->
<g id="edge298" class="edge"><title>Node60&#45;&gt;Node16</title>
<path fill="none" stroke="midnightblue" d="M240.164,-187.003C282.687,-182.868 345.837,-177.177 401,-174 941.674,-142.862 1079.99,-190.638 1619,-138 1628.68,-137.055 1639.09,-135.551 1648.71,-133.956"/>
<polygon fill="midnightblue" stroke="midnightblue" points="1649.52,-137.368 1658.77,-132.211 1648.32,-130.471 1649.52,-137.368"/>
</g>
<!-- Node60&#45;&gt;Node24 -->
<g id="edge304" class="edge"><title>Node60&#45;&gt;Node24</title>
<path fill="none" stroke="midnightblue" d="M240.143,-186.514C326.238,-176.877 509.942,-156.204 665,-138 682.892,-135.899 702.754,-133.506 719.346,-131.489"/>
<polygon fill="midnightblue" stroke="midnightblue" points="720.22,-134.908 729.723,-130.225 719.373,-127.96 720.22,-134.908"/>
</g>
<!-- Node60&#45;&gt;Node55 -->
<g id="edge300" class="edge"><title>Node60&#45;&gt;Node55</title>
<path fill="none" stroke="midnightblue" d="M177.955,-181.267C165.646,-171.139 146.993,-155.792 132.661,-144"/>
<polygon fill="midnightblue" stroke="midnightblue" points="134.748,-141.185 124.803,-137.534 130.301,-146.59 134.748,-141.185"/>
</g>
<!-- Node61 -->
<g id="node212" class="node"><title>Node61</title>
<polygon fill="white" stroke="#bfbfbf" points="176,-116.5 176,-137.5 206,-137.5 206,-116.5 176,-116.5"/>
<text text-anchor="middle" x="191" y="-124.5" font-family="Helvetica,sans-Serif" font-size="10.00">set</text>
</g>
<!-- Node60&#45;&gt;Node61 -->
<g id="edge302" class="edge"><title>Node60&#45;&gt;Node61</title>
<path fill="none" stroke="midnightblue" d="M191,-181.267C191,-172.18 191,-158.892 191,-147.74"/>
<polygon fill="midnightblue" stroke="midnightblue" points="194.5,-147.534 191,-137.534 187.5,-147.534 194.5,-147.534"/>
</g>
<!-- Node62&#45;&gt;Node7 -->
<g id="edge312" class="edge"><title>Node62&#45;&gt;Node7</title>
<path fill="none" stroke="midnightblue" d="M448.363,-174.736C438.391,-145.52 424.001,-86.7113 457,-58 483.244,-35.1657 1006.89,-16.5233 1143.59,-12.0322"/>
<polygon fill="midnightblue" stroke="midnightblue" points="1143.94,-15.5225 1153.83,-11.6986 1143.72,-8.52624 1143.94,-15.5225"/>
</g>
<!-- Node62&#45;&gt;Node14 -->
<g id="edge308" class="edge"><title>Node62&#45;&gt;Node14</title>
<path fill="none" stroke="midnightblue" d="M434.769,-174.922C423.691,-165.57 409.985,-154.001 398.816,-144.572"/>
<polygon fill="midnightblue" stroke="midnightblue" points="400.755,-141.628 390.856,-137.852 396.239,-146.977 400.755,-141.628"/>
</g>
<!-- Node62&#45;&gt;Node16 -->
<g id="edge316" class="edge"><title>Node62&#45;&gt;Node16</title>
<path fill="none" stroke="midnightblue" d="M500.771,-189.616C568.844,-186.09 700.799,-179.326 813,-174 1171.18,-156.997 1262.39,-175.543 1619,-138 1628.67,-136.982 1639.08,-135.453 1648.7,-133.857"/>
<polygon fill="midnightblue" stroke="midnightblue" points="1649.51,-137.27 1658.76,-132.119 1648.31,-130.372 1649.51,-137.27"/>
</g>
<!-- Node62&#45;&gt;Node17 -->
<g id="edge310" class="edge"><title>Node62&#45;&gt;Node17</title>
<path fill="none" stroke="midnightblue" d="M500.768,-189.544C568.837,-185.926 700.786,-179.048 813,-174 1216.02,-155.87 1318.97,-181.903 1720,-138 1732,-136.687 1745.19,-134.413 1756.23,-132.272"/>
<polygon fill="midnightblue" stroke="midnightblue" points="1756.93,-135.701 1766.04,-130.296 1755.55,-128.839 1756.93,-135.701"/>
</g>
<!-- Node62&#45;&gt;Node19 -->
<g id="edge320" class="edge"><title>Node62&#45;&gt;Node19</title>
<path fill="none" stroke="midnightblue" d="M500.614,-189.674C693.245,-179.844 1432.51,-142.02 1482,-138 1502.32,-136.349 1524.9,-133.917 1543.46,-131.759"/>
<polygon fill="midnightblue" stroke="midnightblue" points="1544.07,-135.211 1553.59,-130.561 1543.25,-128.259 1544.07,-135.211"/>
</g>
<!-- Node62&#45;&gt;Node51 -->
<g id="edge318" class="edge"><title>Node62&#45;&gt;Node51</title>
<path fill="none" stroke="midnightblue" d="M462.357,-174.922C466.03,-166.395 470.497,-156.025 474.335,-147.115"/>
<polygon fill="midnightblue" stroke="midnightblue" points="477.583,-148.421 478.325,-137.852 471.155,-145.652 477.583,-148.421"/>
</g>
<!-- Node62&#45;&gt;Node55 -->
<g id="edge314" class="edge"><title>Node62&#45;&gt;Node55</title>
<path fill="none" stroke="midnightblue" d="M409.078,-183.566C352.213,-173.081 252.402,-154.546 167,-138 158.165,-136.288 148.54,-134.379 139.848,-132.637"/>
<polygon fill="midnightblue" stroke="midnightblue" points="140.317,-129.162 129.824,-130.621 138.937,-136.024 140.317,-129.162"/>
</g>
</g>
</svg>
