<?xml version="1.0" encoding="UTF-8" standalone="no"?>
<!DOCTYPE svg PUBLIC "-//W3C//DTD SVG 1.1//EN"
 "http://www.w3.org/Graphics/SVG/1.1/DTD/svg11.dtd">
<!-- Generated by graphviz version 2.26.3 (20100126.1600)
 -->
<!-- Title: src/analysis/input/pluto/PlutoReader.h Pages: 1 -->
<svg width="522pt" height="116pt"
 viewBox="0.00 0.00 522.00 116.00" xmlns="http://www.w3.org/2000/svg" xmlns:xlink="http://www.w3.org/1999/xlink">
<g id="graph1" class="graph" transform="scale(1 1) rotate(0) translate(4 112)">
<title>src/analysis/input/pluto/PlutoReader.h</title>
<polygon fill="white" stroke="white" points="-4,5 -4,-112 519,-112 519,5 -4,5"/>
<!-- Node1 -->
<g id="node1" class="node"><title>Node1</title>
<polygon fill="#bfbfbf" stroke="black" points="161,-73 161,-107 267,-107 267,-73 161,-73"/>
<text text-anchor="start" x="169" y="-94" font-family="Helvetica,sans-Serif" font-size="10.00">src/analysis/input</text>
<text text-anchor="middle" x="214" y="-81" font-family="Helvetica,sans-Serif" font-size="10.00">/pluto/PlutoReader.h</text>
</g>
<!-- Node2 -->
<g id="node3" class="node"><title>Node2</title>
<a xlink:href="_ant_8cc.html" target="_top" xlink:title="Main Ant executable. ">
<polygon fill="white" stroke="black" points="0,-7.5 0,-28.5 72,-28.5 72,-7.5 0,-7.5"/>
<text text-anchor="middle" x="36" y="-15.5" font-family="Helvetica,sans-Serif" font-size="10.00">progs/Ant.cc</text>
</a>
</g>
<!-- Node1&#45;&gt;Node2 -->
<g id="edge2" class="edge"><title>Node1&#45;&gt;Node2</title>
<path fill="none" stroke="midnightblue" d="M162.358,-69.111C129.524,-55.83 88.4031,-39.1968 62.1614,-28.5821"/>
<polygon fill="midnightblue" stroke="midnightblue" points="161.234,-72.4318 171.816,-72.937 163.859,-65.9425 161.234,-72.4318"/>
</g>
<!-- Node3 -->
<g id="node5" class="node"><title>Node3</title>
<a xlink:href="_pluto_reader_8cc.html" target="_top" xlink:title="src/analysis/input\l/pluto/PlutoReader.cc">
<polygon fill="white" stroke="black" points="89.5,-1 89.5,-35 200.5,-35 200.5,-1 89.5,-1"/>
<text text-anchor="start" x="97.5" y="-22" font-family="Helvetica,sans-Serif" font-size="10.00">src/analysis/input</text>
<text text-anchor="middle" x="145" y="-9" font-family="Helvetica,sans-Serif" font-size="10.00">/pluto/PlutoReader.cc</text>
</a>
</g>
<!-- Node1&#45;&gt;Node3 -->
<g id="edge4" class="edge"><title>Node1&#45;&gt;Node3</title>
<path fill="none" stroke="midnightblue" d="M190.684,-65.6706C181.182,-55.7551 170.41,-44.5151 161.714,-35.4407"/>
<polygon fill="midnightblue" stroke="midnightblue" points="188.202,-68.1388 197.648,-72.937 193.256,-63.2954 188.202,-68.1388"/>
</g>
<!-- Node4 -->
<g id="node7" class="node"><title>Node4</title>
<a xlink:href="_test_physics_manager_8cc.html" target="_top" xlink:title="test/analysis/TestPhysics\lManager.cc">
<polygon fill="white" stroke="black" points="218,-1 218,-35 348,-35 348,-1 218,-1"/>
<text text-anchor="start" x="226" y="-22" font-family="Helvetica,sans-Serif" font-size="10.00">test/analysis/TestPhysics</text>
<text text-anchor="middle" x="283" y="-9" font-family="Helvetica,sans-Serif" font-size="10.00">Manager.cc</text>
</a>
</g>
<!-- Node1&#45;&gt;Node4 -->
<g id="edge6" class="edge"><title>Node1&#45;&gt;Node4</title>
<path fill="none" stroke="midnightblue" d="M237.316,-65.6706C246.818,-55.7551 257.59,-44.5151 266.286,-35.4407"/>
<polygon fill="midnightblue" stroke="midnightblue" points="234.744,-63.2954 230.352,-72.937 239.798,-68.1388 234.744,-63.2954"/>
</g>
<!-- Node5 -->
<g id="node9" class="node"><title>Node5</title>
<a xlink:href="_test_slow_control_manager_8cc.html" target="_top" xlink:title="test/analysis/TestSlowControl\lManager.cc">
<polygon fill="white" stroke="black" points="366,-1 366,-35 514,-35 514,-1 366,-1"/>
<text text-anchor="start" x="374" y="-22" font-family="Helvetica,sans-Serif" font-size="10.00">test/analysis/TestSlowControl</text>
<text text-anchor="middle" x="440" y="-9" font-family="Helvetica,sans-Serif" font-size="10.00">Manager.cc</text>
</a>
</g>
<!-- Node1&#45;&gt;Node5 -->
<g id="edge8" class="edge"><title>Node1&#45;&gt;Node5</title>
<path fill="none" stroke="midnightblue" d="M277.202,-69.8648C311.545,-58.9238 353.558,-45.539 386.302,-35.1074"/>
<polygon fill="midnightblue" stroke="midnightblue" points="275.738,-66.6577 267.273,-73.0282 277.863,-73.3274 275.738,-66.6577"/>
</g>
</g>
</svg>
