<?xml version="1.0" encoding="UTF-8" standalone="no"?>
<!DOCTYPE svg PUBLIC "-//W3C//DTD SVG 1.1//EN"
 "http://www.w3.org/Graphics/SVG/1.1/DTD/svg11.dtd">
<!-- Generated by graphviz version 2.26.3 (20100126.1600)
 -->
<!-- Title: src/analysis/plot/PromptRandomHist.h Pages: 1 -->
<svg width="493pt" height="276pt"
 viewBox="0.00 0.00 493.00 276.00" xmlns="http://www.w3.org/2000/svg" xmlns:xlink="http://www.w3.org/1999/xlink">
<g id="graph1" class="graph" transform="scale(1 1) rotate(0) translate(4 272)">
<title>src/analysis/plot/PromptRandomHist.h</title>
<polygon fill="white" stroke="white" points="-4,5 -4,-272 490,-272 490,5 -4,5"/>
<!-- Node1 -->
<g id="node1" class="node"><title>Node1</title>
<polygon fill="#bfbfbf" stroke="black" points="236,-233 236,-267 358,-267 358,-233 236,-233"/>
<text text-anchor="start" x="244" y="-254" font-family="Helvetica,sans-Serif" font-size="10.00">src/analysis/plot/Prompt</text>
<text text-anchor="middle" x="297" y="-241" font-family="Helvetica,sans-Serif" font-size="10.00">RandomHist.h</text>
</g>
<!-- Node2 -->
<g id="node3" class="node"><title>Node2</title>
<a xlink:href="interval_8h.html" target="_top" xlink:title="base/interval.h">
<polygon fill="white" stroke="black" points="184,-116.5 184,-137.5 264,-137.5 264,-116.5 184,-116.5"/>
<text text-anchor="middle" x="224" y="-124.5" font-family="Helvetica,sans-Serif" font-size="10.00">base/interval.h</text>
</a>
</g>
<!-- Node1&#45;&gt;Node2 -->
<g id="edge2" class="edge"><title>Node1&#45;&gt;Node2</title>
<path fill="none" stroke="midnightblue" d="M237.511,-232.899C219.759,-224.714 202.304,-212.886 192,-196 181.995,-179.605 193.69,-159.565 205.655,-145.316"/>
<polygon fill="midnightblue" stroke="midnightblue" points="208.461,-147.432 212.57,-137.666 203.268,-142.738 208.461,-147.432"/>
</g>
<!-- Node11 -->
<g id="node21" class="node"><title>Node11</title>
<a xlink:href="piecewise__interval_8h.html" target="_top" xlink:title="base/piecewise_interval.h">
<polygon fill="white" stroke="black" points="16.5,-174.5 16.5,-195.5 145.5,-195.5 145.5,-174.5 16.5,-174.5"/>
<text text-anchor="middle" x="81" y="-182.5" font-family="Helvetica,sans-Serif" font-size="10.00">base/piecewise_interval.h</text>
</a>
</g>
<!-- Node1&#45;&gt;Node11 -->
<g id="edge20" class="edge"><title>Node1&#45;&gt;Node11</title>
<path fill="none" stroke="midnightblue" d="M240.249,-232.922C204.567,-222.184 159.169,-208.523 125.981,-198.536"/>
<polygon fill="midnightblue" stroke="midnightblue" points="126.683,-195.092 116.098,-195.562 124.666,-201.795 126.683,-195.092"/>
</g>
<!-- Node12 -->
<g id="node26" class="node"><title>Node12</title>
<a xlink:href="_histogram_factories_8h.html" target="_top" xlink:title="HistogramFactories.h">
<polygon fill="white" stroke="black" points="201,-174.5 201,-195.5 311,-195.5 311,-174.5 201,-174.5"/>
<text text-anchor="middle" x="256" y="-182.5" font-family="Helvetica,sans-Serif" font-size="10.00">HistogramFactories.h</text>
</a>
</g>
<!-- Node1&#45;&gt;Node12 -->
<g id="edge28" class="edge"><title>Node1&#45;&gt;Node12</title>
<path fill="none" stroke="midnightblue" d="M286.228,-232.922C280.734,-224.212 274.026,-213.578 268.327,-204.542"/>
<polygon fill="midnightblue" stroke="midnightblue" points="271.141,-202.443 262.845,-195.852 265.22,-206.177 271.141,-202.443"/>
</g>
<!-- Node13 -->
<g id="node29" class="node"><title>Node13</title>
<polygon fill="white" stroke="#bfbfbf" points="299.5,-116.5 299.5,-137.5 340.5,-137.5 340.5,-116.5 299.5,-116.5"/>
<text text-anchor="middle" x="320" y="-124.5" font-family="Helvetica,sans-Serif" font-size="10.00">string</text>
</g>
<!-- Node1&#45;&gt;Node13 -->
<g id="edge38" class="edge"><title>Node1&#45;&gt;Node13</title>
<path fill="none" stroke="midnightblue" d="M306.544,-232.585C311.642,-222.28 317.392,-208.78 320,-196 323.219,-180.228 323.059,-162.003 322.18,-148.245"/>
<polygon fill="midnightblue" stroke="midnightblue" points="325.636,-147.571 321.331,-137.891 318.66,-148.144 325.636,-147.571"/>
</g>
<!-- Node14 -->
<g id="node31" class="node"><title>Node14</title>
<polygon fill="white" stroke="#bfbfbf" points="366.5,-174.5 366.5,-195.5 417.5,-195.5 417.5,-174.5 366.5,-174.5"/>
<text text-anchor="middle" x="392" y="-182.5" font-family="Helvetica,sans-Serif" font-size="10.00">TH1D.h</text>
</g>
<!-- Node1&#45;&gt;Node14 -->
<g id="edge34" class="edge"><title>Node1&#45;&gt;Node14</title>
<path fill="none" stroke="midnightblue" d="M321.96,-232.922C336.12,-223.233 353.76,-211.165 367.793,-201.562"/>
<polygon fill="midnightblue" stroke="midnightblue" points="370.146,-204.194 376.422,-195.658 366.193,-198.417 370.146,-204.194"/>
</g>
<!-- Node15 -->
<g id="node33" class="node"><title>Node15</title>
<polygon fill="white" stroke="#bfbfbf" points="434.5,-174.5 434.5,-195.5 485.5,-195.5 485.5,-174.5 434.5,-174.5"/>
<text text-anchor="middle" x="460" y="-182.5" font-family="Helvetica,sans-Serif" font-size="10.00">TH2D.h</text>
</g>
<!-- Node1&#45;&gt;Node15 -->
<g id="edge36" class="edge"><title>Node1&#45;&gt;Node15</title>
<path fill="none" stroke="midnightblue" d="M339.826,-232.922C366.306,-222.362 399.877,-208.975 424.802,-199.036"/>
<polygon fill="midnightblue" stroke="midnightblue" points="426.242,-202.23 434.234,-195.275 423.649,-195.728 426.242,-202.23"/>
</g>
<!-- Node3 -->
<g id="node5" class="node"><title>Node3</title>
<a xlink:href="printable_8h.html" target="_top" xlink:title="printable.h">
<polygon fill="white" stroke="black" points="50,-58.5 50,-79.5 112,-79.5 112,-58.5 50,-58.5"/>
<text text-anchor="middle" x="81" y="-66.5" font-family="Helvetica,sans-Serif" font-size="10.00">printable.h</text>
</a>
</g>
<!-- Node2&#45;&gt;Node3 -->
<g id="edge4" class="edge"><title>Node2&#45;&gt;Node3</title>
<path fill="none" stroke="midnightblue" d="M198.104,-116.497C175.367,-107.275 142.07,-93.7695 116.788,-83.5153"/>
<polygon fill="midnightblue" stroke="midnightblue" points="117.769,-80.1365 107.187,-79.6212 115.138,-86.6232 117.769,-80.1365"/>
</g>
<!-- Node6 -->
<g id="node11" class="node"><title>Node6</title>
<a xlink:href="types_8h.html" target="_top" xlink:title="types.h">
<polygon fill="white" stroke="black" points="129.5,-58.5 129.5,-79.5 178.5,-79.5 178.5,-58.5 129.5,-58.5"/>
<text text-anchor="middle" x="154" y="-66.5" font-family="Helvetica,sans-Serif" font-size="10.00">types.h</text>
</a>
</g>
<!-- Node2&#45;&gt;Node6 -->
<g id="edge10" class="edge"><title>Node2&#45;&gt;Node6</title>
<path fill="none" stroke="midnightblue" d="M211.161,-116.362C200.998,-107.941 186.599,-96.0105 174.796,-86.2308"/>
<polygon fill="midnightblue" stroke="midnightblue" points="176.691,-83.2558 166.758,-79.5707 172.225,-88.6459 176.691,-83.2558"/>
</g>
<!-- Node7 -->
<g id="node13" class="node"><title>Node7</title>
<polygon fill="white" stroke="#bfbfbf" points="196,-58.5 196,-79.5 252,-79.5 252,-58.5 196,-58.5"/>
<text text-anchor="middle" x="224" y="-66.5" font-family="Helvetica,sans-Serif" font-size="10.00">algorithm</text>
</g>
<!-- Node2&#45;&gt;Node7 -->
<g id="edge12" class="edge"><title>Node2&#45;&gt;Node7</title>
<path fill="none" stroke="midnightblue" d="M224,-116.362C224,-108.922 224,-98.7427 224,-89.7276"/>
<polygon fill="midnightblue" stroke="midnightblue" points="227.5,-89.5706 224,-79.5707 220.5,-89.5707 227.5,-89.5706"/>
</g>
<!-- Node8 -->
<g id="node15" class="node"><title>Node8</title>
<polygon fill="white" stroke="#bfbfbf" points="269.5,-58.5 269.5,-79.5 328.5,-79.5 328.5,-58.5 269.5,-58.5"/>
<text text-anchor="middle" x="299" y="-66.5" font-family="Helvetica,sans-Serif" font-size="10.00">stdexcept</text>
</g>
<!-- Node2&#45;&gt;Node8 -->
<g id="edge14" class="edge"><title>Node2&#45;&gt;Node8</title>
<path fill="none" stroke="midnightblue" d="M237.756,-116.362C248.751,-107.859 264.373,-95.7785 277.086,-85.9466"/>
<polygon fill="midnightblue" stroke="midnightblue" points="279.562,-88.4569 285.331,-79.5707 275.279,-82.9195 279.562,-88.4569"/>
</g>
<!-- Node9 -->
<g id="node17" class="node"><title>Node9</title>
<polygon fill="white" stroke="#bfbfbf" points="346,-58.5 346,-79.5 386,-79.5 386,-58.5 346,-58.5"/>
<text text-anchor="middle" x="366" y="-66.5" font-family="Helvetica,sans-Serif" font-size="10.00">limits</text>
</g>
<!-- Node2&#45;&gt;Node9 -->
<g id="edge16" class="edge"><title>Node2&#45;&gt;Node9</title>
<path fill="none" stroke="midnightblue" d="M249.715,-116.497C274.128,-106.525 310.8,-91.5466 336.414,-81.0842"/>
<polygon fill="midnightblue" stroke="midnightblue" points="338.042,-84.2003 345.976,-77.1788 335.395,-77.72 338.042,-84.2003"/>
</g>
<!-- Node10 -->
<g id="node19" class="node"><title>Node10</title>
<polygon fill="white" stroke="#bfbfbf" points="403.5,-58.5 403.5,-79.5 452.5,-79.5 452.5,-58.5 403.5,-58.5"/>
<text text-anchor="middle" x="428" y="-66.5" font-family="Helvetica,sans-Serif" font-size="10.00">istream</text>
</g>
<!-- Node2&#45;&gt;Node10 -->
<g id="edge18" class="edge"><title>Node2&#45;&gt;Node10</title>
<path fill="none" stroke="midnightblue" d="M264.254,-116.587C296.844,-108.011 344.145,-95.238 393.323,-80.4216"/>
<polygon fill="midnightblue" stroke="midnightblue" points="394.626,-83.6839 403.179,-77.4317 392.594,-76.9852 394.626,-83.6839"/>
</g>
<!-- Node4 -->
<g id="node7" class="node"><title>Node4</title>
<polygon fill="white" stroke="#bfbfbf" points="0,-0.5 0,-21.5 44,-21.5 44,-0.5 0,-0.5"/>
<text text-anchor="middle" x="22" y="-8.5" font-family="Helvetica,sans-Serif" font-size="10.00">vector</text>
</g>
<!-- Node3&#45;&gt;Node4 -->
<g id="edge6" class="edge"><title>Node3&#45;&gt;Node4</title>
<path fill="none" stroke="midnightblue" d="M70.1785,-58.3619C61.7785,-50.1043 49.9462,-38.4725 40.1098,-28.8029"/>
<polygon fill="midnightblue" stroke="midnightblue" points="42.3378,-26.0851 32.7529,-21.5707 37.4305,-31.077 42.3378,-26.0851"/>
</g>
<!-- Node5 -->
<g id="node9" class="node"><title>Node5</title>
<polygon fill="white" stroke="#bfbfbf" points="62,-0.5 62,-21.5 114,-21.5 114,-0.5 62,-0.5"/>
<text text-anchor="middle" x="88" y="-8.5" font-family="Helvetica,sans-Serif" font-size="10.00">ostream</text>
</g>
<!-- Node3&#45;&gt;Node5 -->
<g id="edge8" class="edge"><title>Node3&#45;&gt;Node5</title>
<path fill="none" stroke="midnightblue" d="M82.2839,-58.3619C83.1818,-50.9219 84.4104,-40.7427 85.4984,-31.7276"/>
<polygon fill="midnightblue" stroke="midnightblue" points="89.0007,-31.918 86.7242,-21.5707 82.0512,-31.0792 89.0007,-31.918"/>
</g>
<!-- Node11&#45;&gt;Node2 -->
<g id="edge22" class="edge"><title>Node11&#45;&gt;Node2</title>
<path fill="none" stroke="midnightblue" d="M106.896,-174.497C129.633,-165.275 162.93,-151.769 188.212,-141.515"/>
<polygon fill="midnightblue" stroke="midnightblue" points="189.862,-144.623 197.813,-137.621 187.231,-138.136 189.862,-144.623"/>
</g>
<!-- Node11&#45;&gt;Node3 -->
<g id="edge24" class="edge"><title>Node11&#45;&gt;Node3</title>
<path fill="none" stroke="midnightblue" d="M81,-174.295C81,-155.131 81,-114.654 81,-89.8434"/>
<polygon fill="midnightblue" stroke="midnightblue" points="84.5001,-89.6792 81,-79.6792 77.5001,-89.6792 84.5001,-89.6792"/>
</g>
<!-- Node11&#45;&gt;Node4 -->
<g id="edge26" class="edge"><title>Node11&#45;&gt;Node4</title>
<path fill="none" stroke="midnightblue" d="M76.5714,-174.388C68.8059,-155.572 52.4695,-115.039 41,-80 35.754,-63.9737 30.7302,-45.5469 27.1675,-31.7693"/>
<polygon fill="midnightblue" stroke="midnightblue" points="30.5023,-30.6812 24.6471,-21.8513 23.7179,-32.4053 30.5023,-30.6812"/>
</g>
<!-- Node12&#45;&gt;Node2 -->
<g id="edge30" class="edge"><title>Node12&#45;&gt;Node2</title>
<path fill="none" stroke="midnightblue" d="M250.131,-174.362C245.845,-166.595 239.913,-155.843 234.784,-146.546"/>
<polygon fill="midnightblue" stroke="midnightblue" points="237.727,-144.636 229.832,-137.571 231.598,-148.017 237.727,-144.636"/>
</g>
<!-- Node12&#45;&gt;Node13 -->
<g id="edge32" class="edge"><title>Node12&#45;&gt;Node13</title>
<path fill="none" stroke="midnightblue" d="M267.739,-174.362C276.941,-166.023 289.94,-154.242 300.672,-144.516"/>
<polygon fill="midnightblue" stroke="midnightblue" points="303.276,-146.879 308.336,-137.571 298.576,-141.692 303.276,-146.879"/>
</g>
</g>
</svg>
