<?xml version="1.0" encoding="UTF-8" standalone="no"?>
<!DOCTYPE svg PUBLIC "-//W3C//DTD SVG 1.1//EN"
 "http://www.w3.org/Graphics/SVG/1.1/DTD/svg11.dtd">
<!-- Generated by graphviz version 2.26.3 (20100126.1600)
 -->
<!-- Title: src/base/ProgressCounter.cc Pages: 1 -->
<svg width="631pt" height="204pt"
 viewBox="0.00 0.00 631.00 204.00" xmlns="http://www.w3.org/2000/svg" xmlns:xlink="http://www.w3.org/1999/xlink">
<g id="graph1" class="graph" transform="scale(1 1) rotate(0) translate(4 200)">
<title>src/base/ProgressCounter.cc</title>
<polygon fill="white" stroke="white" points="-4,5 -4,-200 628,-200 628,5 -4,5"/>
<!-- Node1 -->
<g id="node1" class="node"><title>Node1</title>
<polygon fill="#bfbfbf" stroke="black" points="383,-174.5 383,-195.5 527,-195.5 527,-174.5 383,-174.5"/>
<text text-anchor="middle" x="455" y="-182.5" font-family="Helvetica,sans-Serif" font-size="10.00">src/base/ProgressCounter.cc</text>
</g>
<!-- Node2 -->
<g id="node3" class="node"><title>Node2</title>
<a xlink:href="_progress_counter_8h.html" target="_top" xlink:title="ProgressCounter.h">
<polygon fill="white" stroke="black" points="159,-116.5 159,-137.5 257,-137.5 257,-116.5 159,-116.5"/>
<text text-anchor="middle" x="208" y="-124.5" font-family="Helvetica,sans-Serif" font-size="10.00">ProgressCounter.h</text>
</a>
</g>
<!-- Node1&#45;&gt;Node2 -->
<g id="edge2" class="edge"><title>Node1&#45;&gt;Node2</title>
<path fill="none" stroke="midnightblue" d="M410.27,-174.497C368.782,-164.755 306.94,-150.233 262.566,-139.813"/>
<polygon fill="midnightblue" stroke="midnightblue" points="263.349,-136.402 252.814,-137.523 261.749,-143.216 263.349,-136.402"/>
</g>
<!-- Node9 -->
<g id="node18" class="node"><title>Node9</title>
<a xlink:href="math_8h.html" target="_top" xlink:title="std_ext/math.h">
<polygon fill="white" stroke="black" points="329,-116.5 329,-137.5 411,-137.5 411,-116.5 329,-116.5"/>
<text text-anchor="middle" x="370" y="-124.5" font-family="Helvetica,sans-Serif" font-size="10.00">std_ext/math.h</text>
</a>
</g>
<!-- Node1&#45;&gt;Node9 -->
<g id="edge18" class="edge"><title>Node1&#45;&gt;Node9</title>
<path fill="none" stroke="midnightblue" d="M439.41,-174.362C426.709,-165.696 408.562,-153.313 394.008,-143.382"/>
<polygon fill="midnightblue" stroke="midnightblue" points="395.724,-140.316 385.491,-137.571 391.779,-146.098 395.724,-140.316"/>
</g>
<!-- Node12 -->
<g id="node24" class="node"><title>Node12</title>
<polygon fill="white" stroke="#bfbfbf" points="429,-116.5 429,-137.5 481,-137.5 481,-116.5 429,-116.5"/>
<text text-anchor="middle" x="455" y="-124.5" font-family="Helvetica,sans-Serif" font-size="10.00">sstream</text>
</g>
<!-- Node1&#45;&gt;Node12 -->
<g id="edge24" class="edge"><title>Node1&#45;&gt;Node12</title>
<path fill="none" stroke="midnightblue" d="M455,-174.362C455,-166.922 455,-156.743 455,-147.728"/>
<polygon fill="midnightblue" stroke="midnightblue" points="458.5,-147.571 455,-137.571 451.5,-147.571 458.5,-147.571"/>
</g>
<!-- Node13 -->
<g id="node26" class="node"><title>Node13</title>
<polygon fill="white" stroke="#bfbfbf" points="499,-116.5 499,-137.5 549,-137.5 549,-116.5 499,-116.5"/>
<text text-anchor="middle" x="524" y="-124.5" font-family="Helvetica,sans-Serif" font-size="10.00">iomanip</text>
</g>
<!-- Node1&#45;&gt;Node13 -->
<g id="edge26" class="edge"><title>Node1&#45;&gt;Node13</title>
<path fill="none" stroke="midnightblue" d="M467.656,-174.362C477.674,-165.941 491.867,-154.011 503.501,-144.231"/>
<polygon fill="midnightblue" stroke="midnightblue" points="506.022,-146.684 511.425,-137.571 501.518,-141.326 506.022,-146.684"/>
</g>
<!-- Node14 -->
<g id="node28" class="node"><title>Node14</title>
<polygon fill="white" stroke="#bfbfbf" points="567,-116.5 567,-137.5 623,-137.5 623,-116.5 567,-116.5"/>
<text text-anchor="middle" x="595" y="-124.5" font-family="Helvetica,sans-Serif" font-size="10.00">algorithm</text>
</g>
<!-- Node1&#45;&gt;Node14 -->
<g id="edge28" class="edge"><title>Node1&#45;&gt;Node14</title>
<path fill="none" stroke="midnightblue" d="M480.353,-174.497C502.613,-165.275 535.212,-151.769 559.963,-141.515"/>
<polygon fill="midnightblue" stroke="midnightblue" points="561.464,-144.682 569.363,-137.621 558.784,-138.215 561.464,-144.682"/>
</g>
<!-- Node3 -->
<g id="node5" class="node"><title>Node3</title>
<a xlink:href="memory_8h.html" target="_top" xlink:title="std_ext/memory.h">
<polygon fill="white" stroke="black" points="-0.5,-58.5 -0.5,-79.5 94.5,-79.5 94.5,-58.5 -0.5,-58.5"/>
<text text-anchor="middle" x="47" y="-66.5" font-family="Helvetica,sans-Serif" font-size="10.00">std_ext/memory.h</text>
</a>
</g>
<!-- Node2&#45;&gt;Node3 -->
<g id="edge4" class="edge"><title>Node2&#45;&gt;Node3</title>
<path fill="none" stroke="midnightblue" d="M178.844,-116.497C152.824,-107.123 114.521,-93.3242 85.8959,-83.0122"/>
<polygon fill="midnightblue" stroke="midnightblue" points="86.805,-79.6195 76.2106,-79.5231 84.4324,-86.2052 86.805,-79.6195"/>
</g>
<!-- Node5 -->
<g id="node9" class="node"><title>Node5</title>
<polygon fill="white" stroke="#bfbfbf" points="98.5,-0.5 98.5,-21.5 127.5,-21.5 127.5,-0.5 98.5,-0.5"/>
<text text-anchor="middle" x="113" y="-8.5" font-family="Helvetica,sans-Serif" font-size="10.00">list</text>
</g>
<!-- Node2&#45;&gt;Node5 -->
<g id="edge16" class="edge"><title>Node2&#45;&gt;Node5</title>
<path fill="none" stroke="midnightblue" d="M186.828,-116.382C172.265,-108.161 153.388,-95.5635 141,-80 129.708,-65.8139 122.385,-46.4618 118.071,-31.862"/>
<polygon fill="midnightblue" stroke="midnightblue" points="121.335,-30.5253 115.343,-21.788 114.579,-32.3552 121.335,-30.5253"/>
</g>
<!-- Node6 -->
<g id="node11" class="node"><title>Node6</title>
<polygon fill="white" stroke="#bfbfbf" points="150,-58.5 150,-79.5 196,-79.5 196,-58.5 150,-58.5"/>
<text text-anchor="middle" x="173" y="-66.5" font-family="Helvetica,sans-Serif" font-size="10.00">chrono</text>
</g>
<!-- Node2&#45;&gt;Node6 -->
<g id="edge10" class="edge"><title>Node2&#45;&gt;Node6</title>
<path fill="none" stroke="midnightblue" d="M201.58,-116.362C196.844,-108.513 190.268,-97.6159 184.618,-88.2527"/>
<polygon fill="midnightblue" stroke="midnightblue" points="187.542,-86.3242 179.379,-79.5707 181.549,-89.9409 187.542,-86.3242"/>
</g>
<!-- Node7 -->
<g id="node13" class="node"><title>Node7</title>
<polygon fill="white" stroke="#bfbfbf" points="213.5,-58.5 213.5,-79.5 272.5,-79.5 272.5,-58.5 213.5,-58.5"/>
<text text-anchor="middle" x="243" y="-66.5" font-family="Helvetica,sans-Serif" font-size="10.00">functional</text>
</g>
<!-- Node2&#45;&gt;Node7 -->
<g id="edge12" class="edge"><title>Node2&#45;&gt;Node7</title>
<path fill="none" stroke="midnightblue" d="M214.42,-116.362C219.156,-108.513 225.732,-97.6159 231.382,-88.2527"/>
<polygon fill="midnightblue" stroke="midnightblue" points="234.451,-89.9409 236.621,-79.5707 228.458,-86.3242 234.451,-89.9409"/>
</g>
<!-- Node8 -->
<g id="node15" class="node"><title>Node8</title>
<polygon fill="white" stroke="#bfbfbf" points="289.5,-58.5 289.5,-79.5 330.5,-79.5 330.5,-58.5 289.5,-58.5"/>
<text text-anchor="middle" x="310" y="-66.5" font-family="Helvetica,sans-Serif" font-size="10.00">string</text>
</g>
<!-- Node2&#45;&gt;Node8 -->
<g id="edge14" class="edge"><title>Node2&#45;&gt;Node8</title>
<path fill="none" stroke="midnightblue" d="M226.708,-116.362C242.381,-107.45 264.964,-94.6087 282.663,-84.5447"/>
<polygon fill="midnightblue" stroke="midnightblue" points="284.447,-87.5562 291.41,-79.5707 280.987,-81.4712 284.447,-87.5562"/>
</g>
<!-- Node4 -->
<g id="node7" class="node"><title>Node4</title>
<polygon fill="white" stroke="#bfbfbf" points="21,-0.5 21,-21.5 73,-21.5 73,-0.5 21,-0.5"/>
<text text-anchor="middle" x="47" y="-8.5" font-family="Helvetica,sans-Serif" font-size="10.00">memory</text>
</g>
<!-- Node3&#45;&gt;Node4 -->
<g id="edge6" class="edge"><title>Node3&#45;&gt;Node4</title>
<path fill="none" stroke="midnightblue" d="M47,-58.3619C47,-50.9219 47,-40.7427 47,-31.7276"/>
<polygon fill="midnightblue" stroke="midnightblue" points="50.5001,-31.5706 47,-21.5707 43.5001,-31.5707 50.5001,-31.5706"/>
</g>
<!-- Node3&#45;&gt;Node5 -->
<g id="edge8" class="edge"><title>Node3&#45;&gt;Node5</title>
<path fill="none" stroke="midnightblue" d="M59.1054,-58.3619C68.6881,-49.9408 82.2639,-38.0105 93.3926,-28.2308"/>
<polygon fill="midnightblue" stroke="midnightblue" points="95.7701,-30.8009 100.971,-21.5707 91.1492,-25.5427 95.7701,-30.8009"/>
</g>
<!-- Node10 -->
<g id="node20" class="node"><title>Node10</title>
<polygon fill="white" stroke="#bfbfbf" points="348,-58.5 348,-79.5 392,-79.5 392,-58.5 348,-58.5"/>
<text text-anchor="middle" x="370" y="-66.5" font-family="Helvetica,sans-Serif" font-size="10.00">cmath</text>
</g>
<!-- Node9&#45;&gt;Node10 -->
<g id="edge20" class="edge"><title>Node9&#45;&gt;Node10</title>
<path fill="none" stroke="midnightblue" d="M370,-116.362C370,-108.922 370,-98.7427 370,-89.7276"/>
<polygon fill="midnightblue" stroke="midnightblue" points="373.5,-89.5706 370,-79.5707 366.5,-89.5707 373.5,-89.5706"/>
</g>
<!-- Node11 -->
<g id="node22" class="node"><title>Node11</title>
<polygon fill="white" stroke="#bfbfbf" points="410,-58.5 410,-79.5 450,-79.5 450,-58.5 410,-58.5"/>
<text text-anchor="middle" x="430" y="-66.5" font-family="Helvetica,sans-Serif" font-size="10.00">limits</text>
</g>
<!-- Node9&#45;&gt;Node11 -->
<g id="edge22" class="edge"><title>Node9&#45;&gt;Node11</title>
<path fill="none" stroke="midnightblue" d="M381.005,-116.362C389.547,-108.104 401.58,-96.4725 411.583,-86.8029"/>
<polygon fill="midnightblue" stroke="midnightblue" points="414.308,-89.0374 419.065,-79.5707 409.442,-84.0044 414.308,-89.0374"/>
</g>
</g>
</svg>
