<?xml version="1.0" encoding="UTF-8" standalone="no"?>
<!DOCTYPE svg PUBLIC "-//W3C//DTD SVG 1.1//EN"
 "http://www.w3.org/Graphics/SVG/1.1/DTD/svg11.dtd">
<!-- Generated by graphviz version 2.26.3 (20100126.1600)
 -->
<!-- Title: src/analysis/plot/PromptRandomHist.cc Pages: 1 -->
<svg width="493pt" height="334pt"
 viewBox="0.00 0.00 493.00 334.00" xmlns="http://www.w3.org/2000/svg" xmlns:xlink="http://www.w3.org/1999/xlink">
<g id="graph1" class="graph" transform="scale(1 1) rotate(0) translate(4 330)">
<title>src/analysis/plot/PromptRandomHist.cc</title>
<polygon fill="white" stroke="white" points="-4,5 -4,-330 490,-330 490,5 -4,5"/>
<!-- Node1 -->
<g id="node1" class="node"><title>Node1</title>
<polygon fill="#bfbfbf" stroke="black" points="236,-291 236,-325 358,-325 358,-291 236,-291"/>
<text text-anchor="start" x="244" y="-312" font-family="Helvetica,sans-Serif" font-size="10.00">src/analysis/plot/Prompt</text>
<text text-anchor="middle" x="297" y="-299" font-family="Helvetica,sans-Serif" font-size="10.00">RandomHist.cc</text>
</g>
<!-- Node2 -->
<g id="node3" class="node"><title>Node2</title>
<a xlink:href="_prompt_random_hist_8h.html" target="_top" xlink:title="PromptRandomHist.h">
<polygon fill="white" stroke="black" points="241.5,-232.5 241.5,-253.5 352.5,-253.5 352.5,-232.5 241.5,-232.5"/>
<text text-anchor="middle" x="297" y="-240.5" font-family="Helvetica,sans-Serif" font-size="10.00">PromptRandomHist.h</text>
</a>
</g>
<!-- Node1&#45;&gt;Node2 -->
<g id="edge2" class="edge"><title>Node1&#45;&gt;Node2</title>
<path fill="none" stroke="midnightblue" d="M297,-290.922C297,-282.67 297,-272.692 297,-263.982"/>
<polygon fill="midnightblue" stroke="midnightblue" points="300.5,-263.852 297,-253.852 293.5,-263.852 300.5,-263.852"/>
</g>
<!-- Node3 -->
<g id="node5" class="node"><title>Node3</title>
<a xlink:href="interval_8h.html" target="_top" xlink:title="base/interval.h">
<polygon fill="white" stroke="black" points="184,-116.5 184,-137.5 264,-137.5 264,-116.5 184,-116.5"/>
<text text-anchor="middle" x="224" y="-124.5" font-family="Helvetica,sans-Serif" font-size="10.00">base/interval.h</text>
</a>
</g>
<!-- Node2&#45;&gt;Node3 -->
<g id="edge4" class="edge"><title>Node2&#45;&gt;Node3</title>
<path fill="none" stroke="midnightblue" d="M244.882,-232.472C224.822,-225.605 203.893,-214.353 192,-196 181.555,-179.882 193.31,-159.804 205.409,-145.471"/>
<polygon fill="midnightblue" stroke="midnightblue" points="208.274,-147.523 212.408,-137.768 203.093,-142.816 208.274,-147.523"/>
</g>
<!-- Node12 -->
<g id="node23" class="node"><title>Node12</title>
<a xlink:href="piecewise__interval_8h.html" target="_top" xlink:title="base/piecewise_interval.h">
<polygon fill="white" stroke="black" points="16.5,-174.5 16.5,-195.5 145.5,-195.5 145.5,-174.5 16.5,-174.5"/>
<text text-anchor="middle" x="81" y="-182.5" font-family="Helvetica,sans-Serif" font-size="10.00">base/piecewise_interval.h</text>
</a>
</g>
<!-- Node2&#45;&gt;Node12 -->
<g id="edge22" class="edge"><title>Node2&#45;&gt;Node12</title>
<path fill="none" stroke="midnightblue" d="M257.884,-232.497C222.06,-222.877 168.883,-208.598 130.192,-198.209"/>
<polygon fill="midnightblue" stroke="midnightblue" points="130.755,-194.736 120.189,-195.523 128.94,-201.497 130.755,-194.736"/>
</g>
<!-- Node13 -->
<g id="node28" class="node"><title>Node13</title>
<a xlink:href="_histogram_factories_8h.html" target="_top" xlink:title="HistogramFactories.h">
<polygon fill="white" stroke="black" points="201,-174.5 201,-195.5 311,-195.5 311,-174.5 201,-174.5"/>
<text text-anchor="middle" x="256" y="-182.5" font-family="Helvetica,sans-Serif" font-size="10.00">HistogramFactories.h</text>
</a>
</g>
<!-- Node2&#45;&gt;Node13 -->
<g id="edge30" class="edge"><title>Node2&#45;&gt;Node13</title>
<path fill="none" stroke="midnightblue" d="M289.48,-232.362C283.874,-224.431 276.068,-213.389 269.403,-203.961"/>
<polygon fill="midnightblue" stroke="midnightblue" points="272.103,-201.716 263.472,-195.571 266.387,-205.757 272.103,-201.716"/>
</g>
<!-- Node14 -->
<g id="node31" class="node"><title>Node14</title>
<polygon fill="white" stroke="#bfbfbf" points="299.5,-116.5 299.5,-137.5 340.5,-137.5 340.5,-116.5 299.5,-116.5"/>
<text text-anchor="middle" x="320" y="-124.5" font-family="Helvetica,sans-Serif" font-size="10.00">string</text>
</g>
<!-- Node2&#45;&gt;Node14 -->
<g id="edge40" class="edge"><title>Node2&#45;&gt;Node14</title>
<path fill="none" stroke="midnightblue" d="M303.983,-232.327C309.558,-223.13 316.926,-209.275 320,-196 323.668,-180.161 323.446,-161.723 322.429,-147.893"/>
<polygon fill="midnightblue" stroke="midnightblue" points="325.913,-147.561 321.501,-137.928 318.943,-148.209 325.913,-147.561"/>
</g>
<!-- Node15 -->
<g id="node33" class="node"><title>Node15</title>
<polygon fill="white" stroke="#bfbfbf" points="366.5,-174.5 366.5,-195.5 417.5,-195.5 417.5,-174.5 366.5,-174.5"/>
<text text-anchor="middle" x="392" y="-182.5" font-family="Helvetica,sans-Serif" font-size="10.00">TH1D.h</text>
</g>
<!-- Node2&#45;&gt;Node15 -->
<g id="edge36" class="edge"><title>Node2&#45;&gt;Node15</title>
<path fill="none" stroke="midnightblue" d="M314.424,-232.362C328.887,-223.532 349.669,-210.844 366.084,-200.822"/>
<polygon fill="midnightblue" stroke="midnightblue" points="367.975,-203.769 374.686,-195.571 364.327,-197.794 367.975,-203.769"/>
</g>
<!-- Node16 -->
<g id="node35" class="node"><title>Node16</title>
<polygon fill="white" stroke="#bfbfbf" points="434.5,-174.5 434.5,-195.5 485.5,-195.5 485.5,-174.5 434.5,-174.5"/>
<text text-anchor="middle" x="460" y="-182.5" font-family="Helvetica,sans-Serif" font-size="10.00">TH2D.h</text>
</g>
<!-- Node2&#45;&gt;Node16 -->
<g id="edge38" class="edge"><title>Node2&#45;&gt;Node16</title>
<path fill="none" stroke="midnightblue" d="M326.518,-232.497C354.213,-222.642 395.652,-207.897 425.001,-197.454"/>
<polygon fill="midnightblue" stroke="midnightblue" points="426.205,-200.74 434.453,-194.09 423.858,-194.145 426.205,-200.74"/>
</g>
<!-- Node4 -->
<g id="node7" class="node"><title>Node4</title>
<a xlink:href="printable_8h.html" target="_top" xlink:title="printable.h">
<polygon fill="white" stroke="black" points="50,-58.5 50,-79.5 112,-79.5 112,-58.5 50,-58.5"/>
<text text-anchor="middle" x="81" y="-66.5" font-family="Helvetica,sans-Serif" font-size="10.00">printable.h</text>
</a>
</g>
<!-- Node3&#45;&gt;Node4 -->
<g id="edge6" class="edge"><title>Node3&#45;&gt;Node4</title>
<path fill="none" stroke="midnightblue" d="M198.104,-116.497C175.367,-107.275 142.07,-93.7695 116.788,-83.5153"/>
<polygon fill="midnightblue" stroke="midnightblue" points="117.769,-80.1365 107.187,-79.6212 115.138,-86.6232 117.769,-80.1365"/>
</g>
<!-- Node7 -->
<g id="node13" class="node"><title>Node7</title>
<a xlink:href="types_8h.html" target="_top" xlink:title="types.h">
<polygon fill="white" stroke="black" points="129.5,-58.5 129.5,-79.5 178.5,-79.5 178.5,-58.5 129.5,-58.5"/>
<text text-anchor="middle" x="154" y="-66.5" font-family="Helvetica,sans-Serif" font-size="10.00">types.h</text>
</a>
</g>
<!-- Node3&#45;&gt;Node7 -->
<g id="edge12" class="edge"><title>Node3&#45;&gt;Node7</title>
<path fill="none" stroke="midnightblue" d="M211.161,-116.362C200.998,-107.941 186.599,-96.0105 174.796,-86.2308"/>
<polygon fill="midnightblue" stroke="midnightblue" points="176.691,-83.2558 166.758,-79.5707 172.225,-88.6459 176.691,-83.2558"/>
</g>
<!-- Node8 -->
<g id="node15" class="node"><title>Node8</title>
<polygon fill="white" stroke="#bfbfbf" points="196,-58.5 196,-79.5 252,-79.5 252,-58.5 196,-58.5"/>
<text text-anchor="middle" x="224" y="-66.5" font-family="Helvetica,sans-Serif" font-size="10.00">algorithm</text>
</g>
<!-- Node3&#45;&gt;Node8 -->
<g id="edge14" class="edge"><title>Node3&#45;&gt;Node8</title>
<path fill="none" stroke="midnightblue" d="M224,-116.362C224,-108.922 224,-98.7427 224,-89.7276"/>
<polygon fill="midnightblue" stroke="midnightblue" points="227.5,-89.5706 224,-79.5707 220.5,-89.5707 227.5,-89.5706"/>
</g>
<!-- Node9 -->
<g id="node17" class="node"><title>Node9</title>
<polygon fill="white" stroke="#bfbfbf" points="269.5,-58.5 269.5,-79.5 328.5,-79.5 328.5,-58.5 269.5,-58.5"/>
<text text-anchor="middle" x="299" y="-66.5" font-family="Helvetica,sans-Serif" font-size="10.00">stdexcept</text>
</g>
<!-- Node3&#45;&gt;Node9 -->
<g id="edge16" class="edge"><title>Node3&#45;&gt;Node9</title>
<path fill="none" stroke="midnightblue" d="M237.756,-116.362C248.751,-107.859 264.373,-95.7785 277.086,-85.9466"/>
<polygon fill="midnightblue" stroke="midnightblue" points="279.562,-88.4569 285.331,-79.5707 275.279,-82.9195 279.562,-88.4569"/>
</g>
<!-- Node10 -->
<g id="node19" class="node"><title>Node10</title>
<polygon fill="white" stroke="#bfbfbf" points="346,-58.5 346,-79.5 386,-79.5 386,-58.5 346,-58.5"/>
<text text-anchor="middle" x="366" y="-66.5" font-family="Helvetica,sans-Serif" font-size="10.00">limits</text>
</g>
<!-- Node3&#45;&gt;Node10 -->
<g id="edge18" class="edge"><title>Node3&#45;&gt;Node10</title>
<path fill="none" stroke="midnightblue" d="M249.715,-116.497C274.128,-106.525 310.8,-91.5466 336.414,-81.0842"/>
<polygon fill="midnightblue" stroke="midnightblue" points="338.042,-84.2003 345.976,-77.1788 335.395,-77.72 338.042,-84.2003"/>
</g>
<!-- Node11 -->
<g id="node21" class="node"><title>Node11</title>
<polygon fill="white" stroke="#bfbfbf" points="403.5,-58.5 403.5,-79.5 452.5,-79.5 452.5,-58.5 403.5,-58.5"/>
<text text-anchor="middle" x="428" y="-66.5" font-family="Helvetica,sans-Serif" font-size="10.00">istream</text>
</g>
<!-- Node3&#45;&gt;Node11 -->
<g id="edge20" class="edge"><title>Node3&#45;&gt;Node11</title>
<path fill="none" stroke="midnightblue" d="M264.254,-116.587C296.844,-108.011 344.145,-95.238 393.323,-80.4216"/>
<polygon fill="midnightblue" stroke="midnightblue" points="394.626,-83.6839 403.179,-77.4317 392.594,-76.9852 394.626,-83.6839"/>
</g>
<!-- Node5 -->
<g id="node9" class="node"><title>Node5</title>
<polygon fill="white" stroke="#bfbfbf" points="0,-0.5 0,-21.5 44,-21.5 44,-0.5 0,-0.5"/>
<text text-anchor="middle" x="22" y="-8.5" font-family="Helvetica,sans-Serif" font-size="10.00">vector</text>
</g>
<!-- Node4&#45;&gt;Node5 -->
<g id="edge8" class="edge"><title>Node4&#45;&gt;Node5</title>
<path fill="none" stroke="midnightblue" d="M70.1785,-58.3619C61.7785,-50.1043 49.9462,-38.4725 40.1098,-28.8029"/>
<polygon fill="midnightblue" stroke="midnightblue" points="42.3378,-26.0851 32.7529,-21.5707 37.4305,-31.077 42.3378,-26.0851"/>
</g>
<!-- Node6 -->
<g id="node11" class="node"><title>Node6</title>
<polygon fill="white" stroke="#bfbfbf" points="62,-0.5 62,-21.5 114,-21.5 114,-0.5 62,-0.5"/>
<text text-anchor="middle" x="88" y="-8.5" font-family="Helvetica,sans-Serif" font-size="10.00">ostream</text>
</g>
<!-- Node4&#45;&gt;Node6 -->
<g id="edge10" class="edge"><title>Node4&#45;&gt;Node6</title>
<path fill="none" stroke="midnightblue" d="M82.2839,-58.3619C83.1818,-50.9219 84.4104,-40.7427 85.4984,-31.7276"/>
<polygon fill="midnightblue" stroke="midnightblue" points="89.0007,-31.918 86.7242,-21.5707 82.0512,-31.0792 89.0007,-31.918"/>
</g>
<!-- Node12&#45;&gt;Node3 -->
<g id="edge24" class="edge"><title>Node12&#45;&gt;Node3</title>
<path fill="none" stroke="midnightblue" d="M106.896,-174.497C129.633,-165.275 162.93,-151.769 188.212,-141.515"/>
<polygon fill="midnightblue" stroke="midnightblue" points="189.862,-144.623 197.813,-137.621 187.231,-138.136 189.862,-144.623"/>
</g>
<!-- Node12&#45;&gt;Node4 -->
<g id="edge26" class="edge"><title>Node12&#45;&gt;Node4</title>
<path fill="none" stroke="midnightblue" d="M81,-174.295C81,-155.131 81,-114.654 81,-89.8434"/>
<polygon fill="midnightblue" stroke="midnightblue" points="84.5001,-89.6792 81,-79.6792 77.5001,-89.6792 84.5001,-89.6792"/>
</g>
<!-- Node12&#45;&gt;Node5 -->
<g id="edge28" class="edge"><title>Node12&#45;&gt;Node5</title>
<path fill="none" stroke="midnightblue" d="M76.5714,-174.388C68.8059,-155.572 52.4695,-115.039 41,-80 35.754,-63.9737 30.7302,-45.5469 27.1675,-31.7693"/>
<polygon fill="midnightblue" stroke="midnightblue" points="30.5023,-30.6812 24.6471,-21.8513 23.7179,-32.4053 30.5023,-30.6812"/>
</g>
<!-- Node13&#45;&gt;Node3 -->
<g id="edge32" class="edge"><title>Node13&#45;&gt;Node3</title>
<path fill="none" stroke="midnightblue" d="M250.131,-174.362C245.845,-166.595 239.913,-155.843 234.784,-146.546"/>
<polygon fill="midnightblue" stroke="midnightblue" points="237.727,-144.636 229.832,-137.571 231.598,-148.017 237.727,-144.636"/>
</g>
<!-- Node13&#45;&gt;Node14 -->
<g id="edge34" class="edge"><title>Node13&#45;&gt;Node14</title>
<path fill="none" stroke="midnightblue" d="M267.739,-174.362C276.941,-166.023 289.94,-154.242 300.672,-144.516"/>
<polygon fill="midnightblue" stroke="midnightblue" points="303.276,-146.879 308.336,-137.571 298.576,-141.692 303.276,-146.879"/>
</g>
</g>
</svg>
