<?xml version="1.0" encoding="UTF-8" standalone="no"?>
<!DOCTYPE svg PUBLIC "-//W3C//DTD SVG 1.1//EN"
 "http://www.w3.org/Graphics/SVG/1.1/DTD/svg11.dtd">
<!-- Generated by graphviz version 2.26.3 (20100126.1600)
 -->
<!-- Title: src/base/ProgressCounter.h Pages: 1 -->
<svg width="1054pt" height="174pt"
 viewBox="0.00 0.00 1054.00 174.00" xmlns="http://www.w3.org/2000/svg" xmlns:xlink="http://www.w3.org/1999/xlink">
<g id="graph1" class="graph" transform="scale(1 1) rotate(0) translate(4 170)">
<title>src/base/ProgressCounter.h</title>
<polygon fill="white" stroke="white" points="-4,5 -4,-170 1051,-170 1051,5 -4,5"/>
<!-- Node1 -->
<g id="node1" class="node"><title>Node1</title>
<polygon fill="#bfbfbf" stroke="black" points="214.5,-144.5 214.5,-165.5 353.5,-165.5 353.5,-144.5 214.5,-144.5"/>
<text text-anchor="middle" x="284" y="-152.5" font-family="Helvetica,sans-Serif" font-size="10.00">src/base/ProgressCounter.h</text>
</g>
<!-- Node2 -->
<g id="node3" class="node"><title>Node2</title>
<a xlink:href="_physics_manager_8cc.html" target="_top" xlink:title="src/analysis/physics\l/PhysicsManager.cc">
<polygon fill="white" stroke="black" points="88,-73 88,-107 194,-107 194,-73 88,-73"/>
<text text-anchor="start" x="96" y="-94" font-family="Helvetica,sans-Serif" font-size="10.00">src/analysis/physics</text>
<text text-anchor="middle" x="141" y="-81" font-family="Helvetica,sans-Serif" font-size="10.00">/PhysicsManager.cc</text>
</a>
</g>
<!-- Node1&#45;&gt;Node2 -->
<g id="edge2" class="edge"><title>Node1&#45;&gt;Node2</title>
<path fill="none" stroke="midnightblue" d="M251.567,-140.258C229.862,-130.392 201.224,-117.375 178.533,-107.06"/>
<polygon fill="midnightblue" stroke="midnightblue" points="250.154,-143.46 260.706,-144.412 253.051,-137.088 250.154,-143.46"/>
</g>
<!-- Node3 -->
<g id="node5" class="node"><title>Node3</title>
<a xlink:href="_progress_counter_8cc.html" target="_top" xlink:title="src/base/ProgressCounter.cc">
<polygon fill="white" stroke="black" points="212,-79.5 212,-100.5 356,-100.5 356,-79.5 212,-79.5"/>
<text text-anchor="middle" x="284" y="-87.5" font-family="Helvetica,sans-Serif" font-size="10.00">src/base/ProgressCounter.cc</text>
</a>
</g>
<!-- Node1&#45;&gt;Node3 -->
<g id="edge4" class="edge"><title>Node1&#45;&gt;Node3</title>
<path fill="none" stroke="midnightblue" d="M284,-134.014C284,-122.831 284,-109.558 284,-100.534"/>
<polygon fill="midnightblue" stroke="midnightblue" points="280.5,-134.267 284,-144.267 287.5,-134.267 280.5,-134.267"/>
</g>
<!-- Node4 -->
<g id="node7" class="node"><title>Node4</title>
<a xlink:href="_raw_file_reader_8h.html" target="_top" xlink:title="src/unpacker/RawFileReader.h">
<polygon fill="white" stroke="black" points="374,-79.5 374,-100.5 526,-100.5 526,-79.5 374,-79.5"/>
<text text-anchor="middle" x="450" y="-87.5" font-family="Helvetica,sans-Serif" font-size="10.00">src/unpacker/RawFileReader.h</text>
</a>
</g>
<!-- Node1&#45;&gt;Node4 -->
<g id="edge6" class="edge"><title>Node1&#45;&gt;Node4</title>
<path fill="none" stroke="midnightblue" d="M320.601,-140.668C351.529,-128.558 395.122,-111.489 422.971,-100.584"/>
<polygon fill="midnightblue" stroke="midnightblue" points="319.076,-137.507 311.04,-144.412 321.628,-144.025 319.076,-137.507"/>
</g>
<!-- Node5 -->
<g id="node9" class="node"><title>Node5</title>
<a xlink:href="_ant-rawdump_8cc.html" target="_top" xlink:title="progs/Ant&#45;rawdump.cc">
<polygon fill="white" stroke="black" points="-0.5,-7.5 -0.5,-28.5 114.5,-28.5 114.5,-7.5 -0.5,-7.5"/>
<text text-anchor="middle" x="57" y="-15.5" font-family="Helvetica,sans-Serif" font-size="10.00">progs/Ant&#45;rawdump.cc</text>
</a>
</g>
<!-- Node4&#45;&gt;Node5 -->
<g id="edge8" class="edge"><title>Node4&#45;&gt;Node5</title>
<path fill="none" stroke="midnightblue" d="M392.92,-77.4133C383.607,-75.5036 374.049,-73.6296 365,-72 257.982,-52.7273 229.419,-58.3448 123,-36 113.12,-33.9255 102.525,-31.2442 92.7787,-28.5878"/>
<polygon fill="midnightblue" stroke="midnightblue" points="392.389,-80.8777 402.892,-79.4896 393.816,-74.0247 392.389,-80.8777"/>
</g>
<!-- Node6 -->
<g id="node11" class="node"><title>Node6</title>
<a xlink:href="_ant_8cc.html" target="_top" xlink:title="Main Ant executable. ">
<polygon fill="white" stroke="black" points="132,-7.5 132,-28.5 204,-28.5 204,-7.5 132,-7.5"/>
<text text-anchor="middle" x="168" y="-15.5" font-family="Helvetica,sans-Serif" font-size="10.00">progs/Ant.cc</text>
</a>
</g>
<!-- Node4&#45;&gt;Node6 -->
<g id="edge10" class="edge"><title>Node4&#45;&gt;Node6</title>
<path fill="none" stroke="midnightblue" d="M391.797,-77.238C327.261,-63.0085 229.97,-41.2915 213,-36 206.252,-33.896 199.088,-31.2347 192.507,-28.6085"/>
<polygon fill="midnightblue" stroke="midnightblue" points="391.337,-80.7206 401.856,-79.4538 392.843,-73.8845 391.337,-80.7206"/>
</g>
<!-- Node7 -->
<g id="node13" class="node"><title>Node7</title>
<a xlink:href="_unpacker_acqu__detail_8cc.html" target="_top" xlink:title="src/unpacker/detail\l/UnpackerAcqu_detail.cc">
<polygon fill="white" stroke="black" points="222,-1 222,-35 348,-35 348,-1 222,-1"/>
<text text-anchor="start" x="230" y="-22" font-family="Helvetica,sans-Serif" font-size="10.00">src/unpacker/detail</text>
<text text-anchor="middle" x="285" y="-9" font-family="Helvetica,sans-Serif" font-size="10.00">/UnpackerAcqu_detail.cc</text>
</a>
</g>
<!-- Node4&#45;&gt;Node7 -->
<g id="edge12" class="edge"><title>Node4&#45;&gt;Node7</title>
<path fill="none" stroke="midnightblue" d="M416.331,-75.3082C389.616,-63.6508 352.229,-47.3365 324.175,-35.0944"/>
<polygon fill="midnightblue" stroke="midnightblue" points="415.088,-78.5845 425.654,-79.3762 417.888,-72.1688 415.088,-78.5845"/>
</g>
<!-- Node8 -->
<g id="node15" class="node"><title>Node8</title>
<a xlink:href="_unpacker_acqu___file_format_mk1_8cc.html" target="_top" xlink:title="src/unpacker/detail\l/UnpackerAcqu_FileFormatMk1.cc">
<polygon fill="white" stroke="black" points="366,-1 366,-35 534,-35 534,-1 366,-1"/>
<text text-anchor="start" x="374" y="-22" font-family="Helvetica,sans-Serif" font-size="10.00">src/unpacker/detail</text>
<text text-anchor="middle" x="450" y="-9" font-family="Helvetica,sans-Serif" font-size="10.00">/UnpackerAcqu_FileFormatMk1.cc</text>
</a>
</g>
<!-- Node4&#45;&gt;Node8 -->
<g id="edge14" class="edge"><title>Node4&#45;&gt;Node8</title>
<path fill="none" stroke="midnightblue" d="M450,-69.1318C450,-58.3258 450,-45.2961 450,-35.0944"/>
<polygon fill="midnightblue" stroke="midnightblue" points="446.5,-69.3761 450,-79.3762 453.5,-69.3762 446.5,-69.3761"/>
</g>
<!-- Node9 -->
<g id="node17" class="node"><title>Node9</title>
<a xlink:href="_unpacker_acqu___file_format_mk2_8cc.html" target="_top" xlink:title="src/unpacker/detail\l/UnpackerAcqu_FileFormatMk2.cc">
<polygon fill="white" stroke="black" points="552,-1 552,-35 720,-35 720,-1 552,-1"/>
<text text-anchor="start" x="560" y="-22" font-family="Helvetica,sans-Serif" font-size="10.00">src/unpacker/detail</text>
<text text-anchor="middle" x="636" y="-9" font-family="Helvetica,sans-Serif" font-size="10.00">/UnpackerAcqu_FileFormatMk2.cc</text>
</a>
</g>
<!-- Node4&#45;&gt;Node9 -->
<g id="edge16" class="edge"><title>Node4&#45;&gt;Node9</title>
<path fill="none" stroke="midnightblue" d="M486.771,-75.7659C516.958,-64.0808 559.798,-47.4975 591.84,-35.0944"/>
<polygon fill="midnightblue" stroke="midnightblue" points="485.507,-72.5022 477.445,-79.3762 488.034,-79.0301 485.507,-72.5022"/>
</g>
<!-- Node10 -->
<g id="node19" class="node"><title>Node10</title>
<a xlink:href="_raw_file_reader_8cc.html" target="_top" xlink:title="src/unpacker/RawFileReader.cc">
<polygon fill="white" stroke="black" points="737.5,-7.5 737.5,-28.5 894.5,-28.5 894.5,-7.5 737.5,-7.5"/>
<text text-anchor="middle" x="816" y="-15.5" font-family="Helvetica,sans-Serif" font-size="10.00">src/unpacker/RawFileReader.cc</text>
</a>
</g>
<!-- Node4&#45;&gt;Node10 -->
<g id="edge18" class="edge"><title>Node4&#45;&gt;Node10</title>
<path fill="none" stroke="midnightblue" d="M515.509,-77.5668C572.079,-66.7714 655.982,-50.6192 729,-36 740.797,-33.6381 753.481,-31.0445 765.418,-28.5796"/>
<polygon fill="midnightblue" stroke="midnightblue" points="514.791,-74.1406 505.623,-79.4519 516.102,-81.0167 514.791,-74.1406"/>
</g>
<!-- Node11 -->
<g id="node21" class="node"><title>Node11</title>
<a xlink:href="_test_raw_file_reader_8cc.html" target="_top" xlink:title="test/unpacker/TestRawFile\lReader.cc">
<polygon fill="white" stroke="black" points="912,-1 912,-35 1046,-35 1046,-1 912,-1"/>
<text text-anchor="start" x="920" y="-22" font-family="Helvetica,sans-Serif" font-size="10.00">test/unpacker/TestRawFile</text>
<text text-anchor="middle" x="979" y="-9" font-family="Helvetica,sans-Serif" font-size="10.00">Reader.cc</text>
</a>
</g>
<!-- Node4&#45;&gt;Node11 -->
<g id="edge20" class="edge"><title>Node4&#45;&gt;Node11</title>
<path fill="none" stroke="midnightblue" d="M536.173,-82.6736C627.627,-74.2119 776.156,-58.5058 903,-36 905.937,-35.4789 908.931,-34.9143 911.95,-34.3178"/>
<polygon fill="midnightblue" stroke="midnightblue" points="535.771,-79.1957 526.133,-83.5947 536.41,-86.1664 535.771,-79.1957"/>
</g>
</g>
</svg>
