<?xml version="1.0" encoding="UTF-8" standalone="no"?>
<!DOCTYPE svg PUBLIC "-//W3C//DTD SVG 1.1//EN"
 "http://www.w3.org/Graphics/SVG/1.1/DTD/svg11.dtd">
<!-- Generated by graphviz version 2.26.3 (20100126.1600)
 -->
<!-- Title: src/unpacker/RawFileReader.h Pages: 1 -->
<svg width="1054pt" height="102pt"
 viewBox="0.00 0.00 1054.00 102.00" xmlns="http://www.w3.org/2000/svg" xmlns:xlink="http://www.w3.org/1999/xlink">
<g id="graph1" class="graph" transform="scale(1 1) rotate(0) translate(4 98)">
<title>src/unpacker/RawFileReader.h</title>
<polygon fill="white" stroke="white" points="-4,5 -4,-98 1051,-98 1051,5 -4,5"/>
<!-- Node1 -->
<g id="node1" class="node"><title>Node1</title>
<polygon fill="#bfbfbf" stroke="black" points="374,-72.5 374,-93.5 526,-93.5 526,-72.5 374,-72.5"/>
<text text-anchor="middle" x="450" y="-80.5" font-family="Helvetica,sans-Serif" font-size="10.00">src/unpacker/RawFileReader.h</text>
</g>
<!-- Node2 -->
<g id="node3" class="node"><title>Node2</title>
<a xlink:href="_ant-rawdump_8cc.html" target="_top" xlink:title="progs/Ant&#45;rawdump.cc">
<polygon fill="white" stroke="black" points="-0.5,-7.5 -0.5,-28.5 114.5,-28.5 114.5,-7.5 -0.5,-7.5"/>
<text text-anchor="middle" x="57" y="-15.5" font-family="Helvetica,sans-Serif" font-size="10.00">progs/Ant&#45;rawdump.cc</text>
</a>
</g>
<!-- Node1&#45;&gt;Node2 -->
<g id="edge2" class="edge"><title>Node1&#45;&gt;Node2</title>
<path fill="none" stroke="midnightblue" d="M363.902,-73.5707C297.667,-65.6073 204.06,-52.8121 123,-36 112.999,-33.9257 102.269,-31.2137 92.4283,-28.5266"/>
<polygon fill="midnightblue" stroke="midnightblue" points="363.537,-77.0519 373.881,-74.7588 364.365,-70.101 363.537,-77.0519"/>
</g>
<!-- Node3 -->
<g id="node5" class="node"><title>Node3</title>
<a xlink:href="_ant_8cc.html" target="_top" xlink:title="Main Ant executable. ">
<polygon fill="white" stroke="black" points="132,-7.5 132,-28.5 204,-28.5 204,-7.5 132,-7.5"/>
<text text-anchor="middle" x="168" y="-15.5" font-family="Helvetica,sans-Serif" font-size="10.00">progs/Ant.cc</text>
</a>
</g>
<!-- Node1&#45;&gt;Node3 -->
<g id="edge4" class="edge"><title>Node1&#45;&gt;Node3</title>
<path fill="none" stroke="midnightblue" d="M369.204,-70.7882C322.96,-62.855 264.145,-51.1586 213,-36 206.062,-33.9437 198.707,-31.2376 191.998,-28.5503"/>
<polygon fill="midnightblue" stroke="midnightblue" points="368.729,-74.2575 379.173,-72.4736 369.896,-67.3554 368.729,-74.2575"/>
</g>
<!-- Node4 -->
<g id="node7" class="node"><title>Node4</title>
<a xlink:href="_unpacker_acqu__detail_8cc.html" target="_top" xlink:title="src/unpacker/detail\l/UnpackerAcqu_detail.cc">
<polygon fill="white" stroke="black" points="222,-1 222,-35 348,-35 348,-1 222,-1"/>
<text text-anchor="start" x="230" y="-22" font-family="Helvetica,sans-Serif" font-size="10.00">src/unpacker/detail</text>
<text text-anchor="middle" x="285" y="-9" font-family="Helvetica,sans-Serif" font-size="10.00">/UnpackerAcqu_detail.cc</text>
</a>
</g>
<!-- Node1&#45;&gt;Node4 -->
<g id="edge6" class="edge"><title>Node1&#45;&gt;Node4</title>
<path fill="none" stroke="midnightblue" d="M413.584,-68.6543C388.423,-58.7423 354.842,-45.5134 328.307,-35.0604"/>
<polygon fill="midnightblue" stroke="midnightblue" points="412.536,-72.0031 423.123,-72.412 415.101,-65.4902 412.536,-72.0031"/>
</g>
<!-- Node5 -->
<g id="node9" class="node"><title>Node5</title>
<a xlink:href="_unpacker_acqu___file_format_mk1_8cc.html" target="_top" xlink:title="src/unpacker/detail\l/UnpackerAcqu_FileFormatMk1.cc">
<polygon fill="white" stroke="black" points="366,-1 366,-35 534,-35 534,-1 366,-1"/>
<text text-anchor="start" x="374" y="-22" font-family="Helvetica,sans-Serif" font-size="10.00">src/unpacker/detail</text>
<text text-anchor="middle" x="450" y="-9" font-family="Helvetica,sans-Serif" font-size="10.00">/UnpackerAcqu_FileFormatMk1.cc</text>
</a>
</g>
<!-- Node1&#45;&gt;Node5 -->
<g id="edge8" class="edge"><title>Node1&#45;&gt;Node5</title>
<path fill="none" stroke="midnightblue" d="M450,-62.1306C450,-53.4049 450,-43.3908 450,-35.1099"/>
<polygon fill="midnightblue" stroke="midnightblue" points="446.5,-62.2665 450,-72.2666 453.5,-62.2666 446.5,-62.2665"/>
</g>
<!-- Node6 -->
<g id="node11" class="node"><title>Node6</title>
<a xlink:href="_unpacker_acqu___file_format_mk2_8cc.html" target="_top" xlink:title="src/unpacker/detail\l/UnpackerAcqu_FileFormatMk2.cc">
<polygon fill="white" stroke="black" points="552,-1 552,-35 720,-35 720,-1 552,-1"/>
<text text-anchor="start" x="560" y="-22" font-family="Helvetica,sans-Serif" font-size="10.00">src/unpacker/detail</text>
<text text-anchor="middle" x="636" y="-9" font-family="Helvetica,sans-Serif" font-size="10.00">/UnpackerAcqu_FileFormatMk2.cc</text>
</a>
</g>
<!-- Node1&#45;&gt;Node6 -->
<g id="edge10" class="edge"><title>Node1&#45;&gt;Node6</title>
<path fill="none" stroke="midnightblue" d="M489.926,-69.0473C518.408,-59.094 556.872,-45.6522 587.181,-35.0604"/>
<polygon fill="midnightblue" stroke="midnightblue" points="488.584,-65.8089 480.298,-72.412 490.893,-72.417 488.584,-65.8089"/>
</g>
<!-- Node7 -->
<g id="node13" class="node"><title>Node7</title>
<a xlink:href="_raw_file_reader_8cc.html" target="_top" xlink:title="src/unpacker/RawFileReader.cc">
<polygon fill="white" stroke="black" points="737.5,-7.5 737.5,-28.5 894.5,-28.5 894.5,-7.5 737.5,-7.5"/>
<text text-anchor="middle" x="816" y="-15.5" font-family="Helvetica,sans-Serif" font-size="10.00">src/unpacker/RawFileReader.cc</text>
</a>
</g>
<!-- Node1&#45;&gt;Node7 -->
<g id="edge12" class="edge"><title>Node1&#45;&gt;Node7</title>
<path fill="none" stroke="midnightblue" d="M526.86,-70.8399C582.972,-61.7706 660.827,-48.7901 729,-36 741.279,-33.6963 754.498,-31.0484 766.832,-28.5047"/>
<polygon fill="midnightblue" stroke="midnightblue" points="525.958,-67.44 516.642,-72.4869 527.072,-74.3507 525.958,-67.44"/>
</g>
<!-- Node8 -->
<g id="node15" class="node"><title>Node8</title>
<a xlink:href="_test_raw_file_reader_8cc.html" target="_top" xlink:title="test/unpacker/TestRawFile\lReader.cc">
<polygon fill="white" stroke="black" points="912,-1 912,-35 1046,-35 1046,-1 912,-1"/>
<text text-anchor="start" x="920" y="-22" font-family="Helvetica,sans-Serif" font-size="10.00">test/unpacker/TestRawFile</text>
<text text-anchor="middle" x="979" y="-9" font-family="Helvetica,sans-Serif" font-size="10.00">Reader.cc</text>
</a>
</g>
<!-- Node1&#45;&gt;Node8 -->
<g id="edge14" class="edge"><title>Node1&#45;&gt;Node8</title>
<path fill="none" stroke="midnightblue" d="M536.192,-77.3861C627.661,-70.653 776.204,-57.5005 903,-36 905.941,-35.5013 908.938,-34.9554 911.959,-34.374"/>
<polygon fill="midnightblue" stroke="midnightblue" points="535.87,-73.9002 526.15,-78.1163 536.377,-80.8817 535.87,-73.9002"/>
</g>
</g>
</svg>
