<?xml version="1.0" encoding="UTF-8" standalone="no"?>
<!DOCTYPE svg PUBLIC "-//W3C//DTD SVG 1.1//EN"
 "http://www.w3.org/Graphics/SVG/1.1/DTD/svg11.dtd">
<!-- Generated by graphviz version 2.26.3 (20100126.1600)
 -->
<!-- Title: src/reconstruct/Reconstruct_traits.h Pages: 1 -->
<svg width="1016pt" height="290pt"
 viewBox="0.00 0.00 1016.00 290.00" xmlns="http://www.w3.org/2000/svg" xmlns:xlink="http://www.w3.org/1999/xlink">
<g id="graph1" class="graph" transform="scale(1 1) rotate(0) translate(4 286)">
<title>src/reconstruct/Reconstruct_traits.h</title>
<polygon fill="white" stroke="white" points="-4,5 -4,-286 1013,-286 1013,5 -4,5"/>
<!-- Node1 -->
<g id="node1" class="node"><title>Node1</title>
<polygon fill="#bfbfbf" stroke="black" points="702,-247 702,-281 840,-281 840,-247 702,-247"/>
<text text-anchor="start" x="710" y="-268" font-family="Helvetica,sans-Serif" font-size="10.00">src/reconstruct/Reconstruct</text>
<text text-anchor="middle" x="771" y="-255" font-family="Helvetica,sans-Serif" font-size="10.00">_traits.h</text>
</g>
<!-- Node2 -->
<g id="node3" class="node"><title>Node2</title>
<a xlink:href="_detector__t_8h.html" target="_top" xlink:title="base/Detector_t.h">
<polygon fill="white" stroke="black" points="232.5,-181.5 232.5,-202.5 327.5,-202.5 327.5,-181.5 232.5,-181.5"/>
<text text-anchor="middle" x="280" y="-189.5" font-family="Helvetica,sans-Serif" font-size="10.00">base/Detector_t.h</text>
</a>
</g>
<!-- Node1&#45;&gt;Node2 -->
<g id="edge2" class="edge"><title>Node1&#45;&gt;Node2</title>
<path fill="none" stroke="midnightblue" d="M701.953,-253.875C604.543,-239.591 428.544,-213.782 337.707,-200.462"/>
<polygon fill="midnightblue" stroke="midnightblue" points="337.996,-196.967 327.594,-198.979 336.98,-203.893 337.996,-196.967"/>
</g>
<!-- Node13 -->
<g id="node28" class="node"><title>Node13</title>
<a xlink:href="mapped__vectors_8h.html" target="_top" xlink:title="base/std_ext/mapped\l_vectors.h">
<polygon fill="white" stroke="black" points="412,-175 412,-209 522,-209 522,-175 412,-175"/>
<text text-anchor="start" x="420" y="-196" font-family="Helvetica,sans-Serif" font-size="10.00">base/std_ext/mapped</text>
<text text-anchor="middle" x="467" y="-183" font-family="Helvetica,sans-Serif" font-size="10.00">_vectors.h</text>
</a>
</g>
<!-- Node1&#45;&gt;Node13 -->
<g id="edge30" class="edge"><title>Node1&#45;&gt;Node13</title>
<path fill="none" stroke="midnightblue" d="M701.979,-248.699C655.086,-238.166 591.7,-223.662 536,-210 534.749,-209.693 533.485,-209.381 532.213,-209.066"/>
<polygon fill="midnightblue" stroke="midnightblue" points="532.877,-205.624 522.325,-206.585 531.173,-212.414 532.877,-205.624"/>
</g>
<!-- Node15 -->
<g id="node32" class="node"><title>Node15</title>
<polygon fill="white" stroke="#bfbfbf" points="539,-58.5 539,-79.5 591,-79.5 591,-58.5 539,-58.5"/>
<text text-anchor="middle" x="565" y="-66.5" font-family="Helvetica,sans-Serif" font-size="10.00">memory</text>
</g>
<!-- Node1&#45;&gt;Node15 -->
<g id="edge54" class="edge"><title>Node1&#45;&gt;Node15</title>
<path fill="none" stroke="midnightblue" d="M727.745,-246.82C683.927,-227.146 617.55,-190.683 581,-138 571.169,-123.83 567.308,-104.476 565.826,-89.8717"/>
<polygon fill="midnightblue" stroke="midnightblue" points="569.309,-89.5152 565.097,-79.7938 562.327,-90.0203 569.309,-89.5152"/>
</g>
<!-- Node16 -->
<g id="node34" class="node"><title>Node16</title>
<polygon fill="white" stroke="#bfbfbf" points="678.5,-58.5 678.5,-79.5 707.5,-79.5 707.5,-58.5 678.5,-58.5"/>
<text text-anchor="middle" x="693" y="-66.5" font-family="Helvetica,sans-Serif" font-size="10.00">list</text>
</g>
<!-- Node1&#45;&gt;Node16 -->
<g id="edge58" class="edge"><title>Node1&#45;&gt;Node16</title>
<path fill="none" stroke="midnightblue" d="M814.349,-246.794C874.105,-220.613 969.818,-168.274 927,-116 900.716,-83.9115 772.425,-73.2673 717.754,-70.1517"/>
<polygon fill="midnightblue" stroke="midnightblue" points="717.732,-66.6457 707.56,-69.6105 717.36,-73.6359 717.732,-66.6457"/>
</g>
<!-- Node17 -->
<g id="node39" class="node"><title>Node17</title>
<a xlink:href="shared__ptr__container_8h.html" target="_top" xlink:title="base/std_ext/shared\l_ptr_container.h">
<polygon fill="white" stroke="black" points="718.5,-175 718.5,-209 823.5,-209 823.5,-175 718.5,-175"/>
<text text-anchor="start" x="726.5" y="-196" font-family="Helvetica,sans-Serif" font-size="10.00">base/std_ext/shared</text>
<text text-anchor="middle" x="771" y="-183" font-family="Helvetica,sans-Serif" font-size="10.00">_ptr_container.h</text>
</a>
</g>
<!-- Node1&#45;&gt;Node17 -->
<g id="edge44" class="edge"><title>Node1&#45;&gt;Node17</title>
<path fill="none" stroke="midnightblue" d="M771,-246.937C771,-238.807 771,-228.876 771,-219.705"/>
<polygon fill="midnightblue" stroke="midnightblue" points="774.5,-219.441 771,-209.441 767.5,-219.441 774.5,-219.441"/>
</g>
<!-- Node18 -->
<g id="node43" class="node"><title>Node18</title>
<polygon fill="white" stroke="#bfbfbf" points="859.5,-116.5 859.5,-137.5 918.5,-137.5 918.5,-116.5 859.5,-116.5"/>
<text text-anchor="middle" x="889" y="-124.5" font-family="Helvetica,sans-Serif" font-size="10.00">functional</text>
</g>
<!-- Node1&#45;&gt;Node18 -->
<g id="edge60" class="edge"><title>Node1&#45;&gt;Node18</title>
<path fill="none" stroke="midnightblue" d="M792.794,-246.935C804.996,-236.852 820.102,-223.457 832,-210 849.878,-189.779 866.926,-163.756 877.641,-146.286"/>
<polygon fill="midnightblue" stroke="midnightblue" points="880.741,-147.923 882.908,-137.552 874.747,-144.308 880.741,-147.923"/>
</g>
<!-- Node20 -->
<g id="node48" class="node"><title>Node20</title>
<polygon fill="white" stroke="#bfbfbf" points="973.5,-181.5 973.5,-202.5 1008.5,-202.5 1008.5,-181.5 973.5,-181.5"/>
<text text-anchor="middle" x="991" y="-189.5" font-family="Helvetica,sans-Serif" font-size="10.00">map</text>
</g>
<!-- Node1&#45;&gt;Node20 -->
<g id="edge56" class="edge"><title>Node1&#45;&gt;Node20</title>
<path fill="none" stroke="midnightblue" d="M840.203,-248.611C876.602,-239.431 921.532,-226.363 960,-210 961.804,-209.233 963.633,-208.382 965.455,-207.479"/>
<polygon fill="midnightblue" stroke="midnightblue" points="967.198,-210.515 974.337,-202.687 963.875,-204.355 967.198,-210.515"/>
</g>
<!-- Node3 -->
<g id="node5" class="node"><title>Node3</title>
<a xlink:href="printable_8h.html" target="_top" xlink:title="base/printable.h">
<polygon fill="white" stroke="black" points="213,-58.5 213,-79.5 299,-79.5 299,-58.5 213,-58.5"/>
<text text-anchor="middle" x="256" y="-66.5" font-family="Helvetica,sans-Serif" font-size="10.00">base/printable.h</text>
</a>
</g>
<!-- Node2&#45;&gt;Node3 -->
<g id="edge4" class="edge"><title>Node2&#45;&gt;Node3</title>
<path fill="none" stroke="midnightblue" d="M277.87,-181.085C273.875,-160.609 265.197,-116.133 260.054,-89.778"/>
<polygon fill="midnightblue" stroke="midnightblue" points="263.441,-88.8599 258.091,-79.7153 256.571,-90.2006 263.441,-88.8599"/>
</g>
<!-- Node4 -->
<g id="node7" class="node"><title>Node4</title>
<polygon fill="white" stroke="#bfbfbf" points="389,-0.5 389,-21.5 433,-21.5 433,-0.5 389,-0.5"/>
<text text-anchor="middle" x="411" y="-8.5" font-family="Helvetica,sans-Serif" font-size="10.00">vector</text>
</g>
<!-- Node2&#45;&gt;Node4 -->
<g id="edge28" class="edge"><title>Node2&#45;&gt;Node4</title>
<path fill="none" stroke="midnightblue" d="M292.167,-181.109C303.46,-170.666 320.381,-154.146 333,-138 360.712,-102.544 386.77,-56.6496 400.632,-30.8628"/>
<polygon fill="midnightblue" stroke="midnightblue" points="403.884,-32.2016 405.483,-21.7281 397.701,-28.9185 403.884,-32.2016"/>
</g>
<!-- Node6 -->
<g id="node11" class="node"><title>Node6</title>
<a xlink:href="vec3_8h.html" target="_top" xlink:title="base/vec/vec3.h">
<polygon fill="white" stroke="black" points="63.5,-116.5 63.5,-137.5 152.5,-137.5 152.5,-116.5 63.5,-116.5"/>
<text text-anchor="middle" x="108" y="-124.5" font-family="Helvetica,sans-Serif" font-size="10.00">base/vec/vec3.h</text>
</a>
</g>
<!-- Node2&#45;&gt;Node6 -->
<g id="edge10" class="edge"><title>Node2&#45;&gt;Node6</title>
<path fill="none" stroke="midnightblue" d="M251.982,-181.412C222.996,-170.458 177.561,-153.288 145.495,-141.17"/>
<polygon fill="midnightblue" stroke="midnightblue" points="146.597,-137.845 136.006,-137.584 144.123,-144.393 146.597,-137.845"/>
</g>
<!-- Node9 -->
<g id="node19" class="node"><title>Node9</title>
<polygon fill="white" stroke="#bfbfbf" points="0,-116.5 0,-137.5 46,-137.5 46,-116.5 0,-116.5"/>
<text text-anchor="middle" x="23" y="-124.5" font-family="Helvetica,sans-Serif" font-size="10.00">cstdint</text>
</g>
<!-- Node2&#45;&gt;Node9 -->
<g id="edge20" class="edge"><title>Node2&#45;&gt;Node9</title>
<path fill="none" stroke="midnightblue" d="M232.247,-181.929C188.607,-172.414 122.147,-157.147 56.0786,-138.141"/>
<polygon fill="midnightblue" stroke="midnightblue" points="56.9158,-134.74 46.3363,-135.31 54.9624,-141.461 56.9158,-134.74"/>
</g>
<!-- Node10 -->
<g id="node21" class="node"><title>Node10</title>
<polygon fill="white" stroke="#bfbfbf" points="169.5,-116.5 169.5,-137.5 228.5,-137.5 228.5,-116.5 169.5,-116.5"/>
<text text-anchor="middle" x="199" y="-124.5" font-family="Helvetica,sans-Serif" font-size="10.00">stdexcept</text>
</g>
<!-- Node2&#45;&gt;Node10 -->
<g id="edge22" class="edge"><title>Node2&#45;&gt;Node10</title>
<path fill="none" stroke="midnightblue" d="M266.624,-181.267C254.004,-171.139 234.879,-155.792 220.184,-144"/>
<polygon fill="midnightblue" stroke="midnightblue" points="222.116,-141.063 212.127,-137.534 217.735,-146.522 222.116,-141.063"/>
</g>
<!-- Node11 -->
<g id="node23" class="node"><title>Node11</title>
<polygon fill="white" stroke="#bfbfbf" points="283.5,-116.5 283.5,-137.5 324.5,-137.5 324.5,-116.5 283.5,-116.5"/>
<text text-anchor="middle" x="304" y="-124.5" font-family="Helvetica,sans-Serif" font-size="10.00">string</text>
</g>
<!-- Node2&#45;&gt;Node11 -->
<g id="edge24" class="edge"><title>Node2&#45;&gt;Node11</title>
<path fill="none" stroke="midnightblue" d="M283.963,-181.267C287.388,-171.991 292.43,-158.336 296.599,-147.045"/>
<polygon fill="midnightblue" stroke="midnightblue" points="299.93,-148.127 300.111,-137.534 293.363,-145.702 299.93,-148.127"/>
</g>
<!-- Node12 -->
<g id="node25" class="node"><title>Node12</title>
<polygon fill="white" stroke="#bfbfbf" points="380,-116.5 380,-137.5 442,-137.5 442,-116.5 380,-116.5"/>
<text text-anchor="middle" x="411" y="-124.5" font-family="Helvetica,sans-Serif" font-size="10.00">type_traits</text>
</g>
<!-- Node2&#45;&gt;Node12 -->
<g id="edge26" class="edge"><title>Node2&#45;&gt;Node12</title>
<path fill="none" stroke="midnightblue" d="M301.339,-181.412C322.845,-170.741 356.239,-154.172 380.528,-142.12"/>
<polygon fill="midnightblue" stroke="midnightblue" points="382.268,-145.164 389.67,-137.584 379.157,-138.893 382.268,-145.164"/>
</g>
<!-- Node3&#45;&gt;Node4 -->
<g id="edge6" class="edge"><title>Node3&#45;&gt;Node4</title>
<path fill="none" stroke="midnightblue" d="M284.069,-58.4966C310.797,-48.4952 350.988,-33.4562 378.959,-22.9896"/>
<polygon fill="midnightblue" stroke="midnightblue" points="380.524,-26.1409 388.663,-19.3582 378.071,-19.5849 380.524,-26.1409"/>
</g>
<!-- Node5 -->
<g id="node9" class="node"><title>Node5</title>
<polygon fill="white" stroke="#bfbfbf" points="230,-0.5 230,-21.5 282,-21.5 282,-0.5 230,-0.5"/>
<text text-anchor="middle" x="256" y="-8.5" font-family="Helvetica,sans-Serif" font-size="10.00">ostream</text>
</g>
<!-- Node3&#45;&gt;Node5 -->
<g id="edge8" class="edge"><title>Node3&#45;&gt;Node5</title>
<path fill="none" stroke="midnightblue" d="M256,-58.3619C256,-50.9219 256,-40.7427 256,-31.7276"/>
<polygon fill="midnightblue" stroke="midnightblue" points="259.5,-31.5706 256,-21.5707 252.5,-31.5707 259.5,-31.5706"/>
</g>
<!-- Node6&#45;&gt;Node3 -->
<g id="edge12" class="edge"><title>Node6&#45;&gt;Node3</title>
<path fill="none" stroke="midnightblue" d="M134.802,-116.497C158.438,-107.234 193.1,-93.6499 219.308,-83.3793"/>
<polygon fill="midnightblue" stroke="midnightblue" points="220.864,-86.5287 228.898,-79.6212 218.31,-80.0113 220.864,-86.5287"/>
</g>
<!-- Node7 -->
<g id="node14" class="node"><title>Node7</title>
<a xlink:href="vec2_8h.html" target="_top" xlink:title="vec2.h">
<polygon fill="white" stroke="black" points="60,-58.5 60,-79.5 106,-79.5 106,-58.5 60,-58.5"/>
<text text-anchor="middle" x="83" y="-66.5" font-family="Helvetica,sans-Serif" font-size="10.00">vec2.h</text>
</a>
</g>
<!-- Node6&#45;&gt;Node7 -->
<g id="edge14" class="edge"><title>Node6&#45;&gt;Node7</title>
<path fill="none" stroke="midnightblue" d="M103.415,-116.362C100.102,-108.677 95.5296,-98.0686 91.5517,-88.8399"/>
<polygon fill="midnightblue" stroke="midnightblue" points="94.7288,-87.3685 87.5563,-79.5707 88.3005,-90.1393 94.7288,-87.3685"/>
</g>
<!-- Node8 -->
<g id="node16" class="node"><title>Node8</title>
<polygon fill="white" stroke="#bfbfbf" points="86,-0.5 86,-21.5 130,-21.5 130,-0.5 86,-0.5"/>
<text text-anchor="middle" x="108" y="-8.5" font-family="Helvetica,sans-Serif" font-size="10.00">cmath</text>
</g>
<!-- Node6&#45;&gt;Node8 -->
<g id="edge18" class="edge"><title>Node6&#45;&gt;Node8</title>
<path fill="none" stroke="midnightblue" d="M110.069,-116.224C111.78,-106.73 114.074,-92.5053 115,-80 115.722,-70.2489 115.722,-67.7511 115,-58 114.363,-49.4026 113.08,-39.9926 111.784,-31.8659"/>
<polygon fill="midnightblue" stroke="midnightblue" points="115.195,-31.0483 110.069,-21.7765 108.294,-32.2217 115.195,-31.0483"/>
</g>
<!-- Node7&#45;&gt;Node8 -->
<g id="edge16" class="edge"><title>Node7&#45;&gt;Node8</title>
<path fill="none" stroke="midnightblue" d="M87.5854,-58.3619C90.898,-50.6766 95.4704,-40.0686 99.4483,-30.8399"/>
<polygon fill="midnightblue" stroke="midnightblue" points="102.699,-32.1393 103.444,-21.5707 96.2712,-29.3685 102.699,-32.1393"/>
</g>
<!-- Node13&#45;&gt;Node4 -->
<g id="edge38" class="edge"><title>Node13&#45;&gt;Node4</title>
<path fill="none" stroke="midnightblue" d="M464.191,-174.907C461.454,-159.379 456.853,-135.923 451,-116 442.11,-85.739 428.494,-51.8189 419.668,-30.9325"/>
<polygon fill="midnightblue" stroke="midnightblue" points="422.802,-29.3598 415.65,-21.5429 416.366,-32.1135 422.802,-29.3598"/>
</g>
<!-- Node13&#45;&gt;Node12 -->
<g id="edge42" class="edge"><title>Node13&#45;&gt;Node12</title>
<path fill="none" stroke="midnightblue" d="M452.287,-174.922C444.546,-165.937 435.041,-154.905 427.103,-145.691"/>
<polygon fill="midnightblue" stroke="midnightblue" points="429.528,-143.144 420.349,-137.852 424.225,-147.713 429.528,-143.144"/>
</g>
<!-- Node14 -->
<g id="node30" class="node"><title>Node14</title>
<a xlink:href="memory_8h.html" target="_top" xlink:title="base/std_ext/memory.h">
<polygon fill="white" stroke="black" points="611.5,-116.5 611.5,-137.5 730.5,-137.5 730.5,-116.5 611.5,-116.5"/>
<text text-anchor="middle" x="671" y="-124.5" font-family="Helvetica,sans-Serif" font-size="10.00">base/std_ext/memory.h</text>
</a>
</g>
<!-- Node13&#45;&gt;Node14 -->
<g id="edge32" class="edge"><title>Node13&#45;&gt;Node14</title>
<path fill="none" stroke="midnightblue" d="M520.599,-174.922C554.153,-164.231 596.805,-150.641 628.112,-140.665"/>
<polygon fill="midnightblue" stroke="midnightblue" points="629.386,-143.933 637.852,-137.562 627.261,-137.263 629.386,-143.933"/>
</g>
<!-- Node13&#45;&gt;Node15 -->
<g id="edge40" class="edge"><title>Node13&#45;&gt;Node15</title>
<path fill="none" stroke="midnightblue" d="M480.626,-174.897C498.894,-151.969 531.208,-111.413 550.102,-87.6984"/>
<polygon fill="midnightblue" stroke="midnightblue" points="552.911,-89.7896 556.405,-79.7875 547.436,-85.4276 552.911,-89.7896"/>
</g>
<!-- Node14&#45;&gt;Node15 -->
<g id="edge34" class="edge"><title>Node14&#45;&gt;Node15</title>
<path fill="none" stroke="midnightblue" d="M651.558,-116.362C635.196,-107.409 611.587,-94.4908 593.157,-84.4064"/>
<polygon fill="midnightblue" stroke="midnightblue" points="594.771,-81.3004 584.319,-79.5707 591.411,-87.4412 594.771,-81.3004"/>
</g>
<!-- Node14&#45;&gt;Node16 -->
<g id="edge36" class="edge"><title>Node14&#45;&gt;Node16</title>
<path fill="none" stroke="midnightblue" d="M675.035,-116.362C677.919,-108.758 681.888,-98.294 685.363,-89.1349"/>
<polygon fill="midnightblue" stroke="midnightblue" points="688.716,-90.1619 688.99,-79.5707 682.171,-87.6793 688.716,-90.1619"/>
</g>
<!-- Node17&#45;&gt;Node4 -->
<g id="edge46" class="edge"><title>Node17&#45;&gt;Node4</title>
<path fill="none" stroke="midnightblue" d="M769.281,-174.851C765.393,-145.807 753.141,-87.2509 716,-58 674.149,-25.0402 513.274,-14.9261 443.545,-12.0531"/>
<polygon fill="midnightblue" stroke="midnightblue" points="443.297,-8.541 433.169,-11.6518 443.026,-15.5358 443.297,-8.541"/>
</g>
<!-- Node17&#45;&gt;Node15 -->
<g id="edge48" class="edge"><title>Node17&#45;&gt;Node15</title>
<path fill="none" stroke="midnightblue" d="M718.396,-185.441C682.569,-178.673 635.865,-165.08 603,-138 587.65,-125.352 577.477,-104.805 571.552,-89.4161"/>
<polygon fill="midnightblue" stroke="midnightblue" points="574.763,-87.9989 568.118,-79.747 568.167,-90.3417 574.763,-87.9989"/>
</g>
<!-- Node17&#45;&gt;Node18 -->
<g id="edge50" class="edge"><title>Node17&#45;&gt;Node18</title>
<path fill="none" stroke="midnightblue" d="M802.003,-174.922C820.094,-164.957 842.757,-152.473 860.416,-142.745"/>
<polygon fill="midnightblue" stroke="midnightblue" points="862.581,-145.549 869.651,-137.658 859.203,-139.418 862.581,-145.549"/>
</g>
<!-- Node19 -->
<g id="node45" class="node"><title>Node19</title>
<polygon fill="white" stroke="#bfbfbf" points="786,-116.5 786,-137.5 842,-137.5 842,-116.5 786,-116.5"/>
<text text-anchor="middle" x="814" y="-124.5" font-family="Helvetica,sans-Serif" font-size="10.00">algorithm</text>
</g>
<!-- Node17&#45;&gt;Node19 -->
<g id="edge52" class="edge"><title>Node17&#45;&gt;Node19</title>
<path fill="none" stroke="midnightblue" d="M782.298,-174.922C788.12,-166.12 795.243,-155.354 801.26,-146.258"/>
<polygon fill="midnightblue" stroke="midnightblue" points="804.223,-148.123 806.821,-137.852 798.384,-144.261 804.223,-148.123"/>
</g>
</g>
</svg>
