<?xml version="1.0" encoding="UTF-8" standalone="no"?>
<!DOCTYPE svg PUBLIC "-//W3C//DTD SVG 1.1//EN"
 "http://www.w3.org/Graphics/SVG/1.1/DTD/svg11.dtd">
<!-- Generated by graphviz version 2.26.3 (20100126.1600)
 -->
<!-- Title: src/reconstruct/Reconstruct.h Pages: 1 -->
<svg width="1412pt" height="102pt"
 viewBox="0.00 0.00 1412.00 102.00" xmlns="http://www.w3.org/2000/svg" xmlns:xlink="http://www.w3.org/1999/xlink">
<g id="graph1" class="graph" transform="scale(1 1) rotate(0) translate(4 98)">
<title>src/reconstruct/Reconstruct.h</title>
<polygon fill="white" stroke="white" points="-4,5 -4,-98 1409,-98 1409,5 -4,5"/>
<!-- Node1 -->
<g id="node1" class="node"><title>Node1</title>
<polygon fill="#bfbfbf" stroke="black" points="556,-72.5 556,-93.5 702,-93.5 702,-72.5 556,-72.5"/>
<text text-anchor="middle" x="629" y="-80.5" font-family="Helvetica,sans-Serif" font-size="10.00">src/reconstruct/Reconstruct.h</text>
</g>
<!-- Node2 -->
<g id="node3" class="node"><title>Node2</title>
<a xlink:href="_ant-rawdump_8cc.html" target="_top" xlink:title="progs/Ant&#45;rawdump.cc">
<polygon fill="white" stroke="black" points="-0.5,-7.5 -0.5,-28.5 114.5,-28.5 114.5,-7.5 -0.5,-7.5"/>
<text text-anchor="middle" x="57" y="-15.5" font-family="Helvetica,sans-Serif" font-size="10.00">progs/Ant&#45;rawdump.cc</text>
</a>
</g>
<!-- Node1&#45;&gt;Node2 -->
<g id="edge2" class="edge"><title>Node1&#45;&gt;Node2</title>
<path fill="none" stroke="midnightblue" d="M545.866,-79.7064C445.112,-74.6989 270.501,-62.7547 123,-36 112.599,-34.1135 101.453,-31.3631 91.3372,-28.5775"/>
<polygon fill="midnightblue" stroke="midnightblue" points="545.823,-83.2084 555.981,-80.1981 546.163,-76.2166 545.823,-83.2084"/>
</g>
<!-- Node3 -->
<g id="node5" class="node"><title>Node3</title>
<a xlink:href="_ant_8cc.html" target="_top" xlink:title="Main Ant executable. ">
<polygon fill="white" stroke="black" points="132,-7.5 132,-28.5 204,-28.5 204,-7.5 132,-7.5"/>
<text text-anchor="middle" x="168" y="-15.5" font-family="Helvetica,sans-Serif" font-size="10.00">progs/Ant.cc</text>
</a>
</g>
<!-- Node1&#45;&gt;Node3 -->
<g id="edge4" class="edge"><title>Node1&#45;&gt;Node3</title>
<path fill="none" stroke="midnightblue" d="M545.709,-80.14C460.882,-75.7089 326.111,-64.4613 213,-36 205.656,-34.1521 197.914,-31.3788 190.961,-28.5591"/>
<polygon fill="midnightblue" stroke="midnightblue" points="545.638,-83.6408 555.802,-80.6473 545.99,-76.6496 545.638,-83.6408"/>
</g>
<!-- Node4 -->
<g id="node7" class="node"><title>Node4</title>
<a xlink:href="_reconstruct_8cc.html" target="_top" xlink:title="src/reconstruct/Reconstruct.cc">
<polygon fill="white" stroke="black" points="222,-7.5 222,-28.5 374,-28.5 374,-7.5 222,-7.5"/>
<text text-anchor="middle" x="298" y="-15.5" font-family="Helvetica,sans-Serif" font-size="10.00">src/reconstruct/Reconstruct.cc</text>
</a>
</g>
<!-- Node1&#45;&gt;Node4 -->
<g id="edge6" class="edge"><title>Node1&#45;&gt;Node4</title>
<path fill="none" stroke="midnightblue" d="M562.32,-70.6316C512.794,-61.3548 443.614,-48.2071 383,-36 371.318,-33.6474 358.751,-31.0326 346.959,-28.5415"/>
<polygon fill="midnightblue" stroke="midnightblue" points="561.794,-74.0938 572.267,-72.4922 563.081,-67.2132 561.794,-74.0938"/>
</g>
<!-- Node5 -->
<g id="node9" class="node"><title>Node5</title>
<a xlink:href="_test_ant_reader_8cc.html" target="_top" xlink:title="test/analysis/TestAntReader.cc">
<polygon fill="white" stroke="black" points="391.5,-7.5 391.5,-28.5 546.5,-28.5 546.5,-7.5 391.5,-7.5"/>
<text text-anchor="middle" x="469" y="-15.5" font-family="Helvetica,sans-Serif" font-size="10.00">test/analysis/TestAntReader.cc</text>
</a>
</g>
<!-- Node1&#45;&gt;Node5 -->
<g id="edge8" class="edge"><title>Node1&#45;&gt;Node5</title>
<path fill="none" stroke="midnightblue" d="M593.334,-68.5108C563.548,-56.4103 521.779,-39.4414 495.052,-28.5835"/>
<polygon fill="midnightblue" stroke="midnightblue" points="592.355,-71.8908 602.937,-72.412 594.99,-65.4055 592.355,-71.8908"/>
</g>
<!-- Node6 -->
<g id="node11" class="node"><title>Node6</title>
<a xlink:href="_test_physics_manager_8cc.html" target="_top" xlink:title="test/analysis/TestPhysics\lManager.cc">
<polygon fill="white" stroke="black" points="564,-1 564,-35 694,-35 694,-1 564,-1"/>
<text text-anchor="start" x="572" y="-22" font-family="Helvetica,sans-Serif" font-size="10.00">test/analysis/TestPhysics</text>
<text text-anchor="middle" x="629" y="-9" font-family="Helvetica,sans-Serif" font-size="10.00">Manager.cc</text>
</a>
</g>
<!-- Node1&#45;&gt;Node6 -->
<g id="edge10" class="edge"><title>Node1&#45;&gt;Node6</title>
<path fill="none" stroke="midnightblue" d="M629,-62.1306C629,-53.4049 629,-43.3908 629,-35.1099"/>
<polygon fill="midnightblue" stroke="midnightblue" points="625.5,-62.2665 629,-72.2666 632.5,-62.2666 625.5,-62.2665"/>
</g>
<!-- Node7 -->
<g id="node13" class="node"><title>Node7</title>
<a xlink:href="_test_slow_control_manager_8cc.html" target="_top" xlink:title="test/analysis/TestSlowControl\lManager.cc">
<polygon fill="white" stroke="black" points="712,-1 712,-35 860,-35 860,-1 712,-1"/>
<text text-anchor="start" x="720" y="-22" font-family="Helvetica,sans-Serif" font-size="10.00">test/analysis/TestSlowControl</text>
<text text-anchor="middle" x="786" y="-9" font-family="Helvetica,sans-Serif" font-size="10.00">Manager.cc</text>
</a>
</g>
<!-- Node1&#45;&gt;Node7 -->
<g id="edge12" class="edge"><title>Node1&#45;&gt;Node7</title>
<path fill="none" stroke="midnightblue" d="M663.969,-68.5225C687.874,-58.6253 719.656,-45.4672 744.793,-35.0604"/>
<polygon fill="midnightblue" stroke="midnightblue" points="662.475,-65.3528 654.574,-72.412 665.153,-71.8205 662.475,-65.3528"/>
</g>
<!-- Node8 -->
<g id="node15" class="node"><title>Node8</title>
<a xlink:href="_test_candidate_builder_8cc.html" target="_top" xlink:title="test/reconstruct/TestCandidate\lBuilder.cc">
<polygon fill="white" stroke="black" points="878,-1 878,-35 1030,-35 1030,-1 878,-1"/>
<text text-anchor="start" x="886" y="-22" font-family="Helvetica,sans-Serif" font-size="10.00">test/reconstruct/TestCandidate</text>
<text text-anchor="middle" x="954" y="-9" font-family="Helvetica,sans-Serif" font-size="10.00">Builder.cc</text>
</a>
</g>
<!-- Node1&#45;&gt;Node8 -->
<g id="edge14" class="edge"><title>Node1&#45;&gt;Node8</title>
<path fill="none" stroke="midnightblue" d="M694.342,-70.4837C742.631,-61.1657 809.963,-48.031 869,-36 871.808,-35.4277 874.668,-34.8412 877.556,-34.2458"/>
<polygon fill="midnightblue" stroke="midnightblue" points="693.493,-67.0828 684.336,-72.4124 694.818,-73.9563 693.493,-67.0828"/>
</g>
<!-- Node9 -->
<g id="node17" class="node"><title>Node9</title>
<a xlink:href="_test_clustering_8cc.html" target="_top" xlink:title="test/reconstruct/TestClustering.cc">
<polygon fill="white" stroke="black" points="1047.5,-7.5 1047.5,-28.5 1212.5,-28.5 1212.5,-7.5 1047.5,-7.5"/>
<text text-anchor="middle" x="1130" y="-15.5" font-family="Helvetica,sans-Serif" font-size="10.00">test/reconstruct/TestClustering.cc</text>
</a>
</g>
<!-- Node1&#45;&gt;Node9 -->
<g id="edge16" class="edge"><title>Node1&#45;&gt;Node9</title>
<path fill="none" stroke="midnightblue" d="M712.326,-75.448C795.355,-67.453 926.362,-53.5665 1039,-36 1052.53,-33.8906 1067.1,-31.1976 1080.54,-28.5411"/>
<polygon fill="midnightblue" stroke="midnightblue" points="711.813,-71.9809 702.192,-76.4174 712.48,-78.9491 711.813,-71.9809"/>
</g>
<!-- Node10 -->
<g id="node19" class="node"><title>Node10</title>
<a xlink:href="_test_reconstruct_8cc.html" target="_top" xlink:title="test/reconstruct/TestReconstruct.cc">
<polygon fill="white" stroke="black" points="1230,-7.5 1230,-28.5 1404,-28.5 1404,-7.5 1230,-7.5"/>
<text text-anchor="middle" x="1317" y="-15.5" font-family="Helvetica,sans-Serif" font-size="10.00">test/reconstruct/TestReconstruct.cc</text>
</a>
</g>
<!-- Node1&#45;&gt;Node10 -->
<g id="edge18" class="edge"><title>Node1&#45;&gt;Node10</title>
<path fill="none" stroke="midnightblue" d="M712.301,-79.1785C827.155,-73.2743 1040.44,-60.0254 1221,-36 1235.79,-34.0317 1251.76,-31.2897 1266.34,-28.5384"/>
<polygon fill="midnightblue" stroke="midnightblue" points="711.983,-75.69 702.174,-79.6931 712.339,-82.681 711.983,-75.69"/>
</g>
</g>
</svg>
