<?xml version="1.0" encoding="UTF-8" standalone="no"?>
<!DOCTYPE svg PUBLIC "-//W3C//DTD SVG 1.1//EN"
 "http://www.w3.org/Graphics/SVG/1.1/DTD/svg11.dtd">
<!-- Generated by graphviz version 2.26.3 (20100126.1600)
 -->
<!-- Title: src/root&#45;addons/analysis_codes/RootPointerFun.cc Pages: 1 -->
<svg width="378pt" height="160pt"
 viewBox="0.00 0.00 378.00 160.00" xmlns="http://www.w3.org/2000/svg" xmlns:xlink="http://www.w3.org/1999/xlink">
<g id="graph1" class="graph" transform="scale(1 1) rotate(0) translate(4 156)">
<title>src/root&#45;addons/analysis_codes/RootPointerFun.cc</title>
<polygon fill="white" stroke="white" points="-4,5 -4,-156 375,-156 375,5 -4,5"/>
<!-- Node1 -->
<g id="node1" class="node"><title>Node1</title>
<polygon fill="#bfbfbf" stroke="black" points="146.5,-117 146.5,-151 279.5,-151 279.5,-117 146.5,-117"/>
<text text-anchor="start" x="154.5" y="-138" font-family="Helvetica,sans-Serif" font-size="10.00">src/root&#45;addons/analysis</text>
<text text-anchor="middle" x="213" y="-125" font-family="Helvetica,sans-Serif" font-size="10.00">_codes/RootPointerFun.cc</text>
</g>
<!-- Node2 -->
<g id="node3" class="node"><title>Node2</title>
<a xlink:href="_root_pointer_fun_8h.html" target="_top" xlink:title="RootPointerFun.h">
<polygon fill="white" stroke="black" points="5.5,-58.5 5.5,-79.5 98.5,-79.5 98.5,-58.5 5.5,-58.5"/>
<text text-anchor="middle" x="52" y="-66.5" font-family="Helvetica,sans-Serif" font-size="10.00">RootPointerFun.h</text>
</a>
</g>
<!-- Node1&#45;&gt;Node2 -->
<g id="edge2" class="edge"><title>Node1&#45;&gt;Node2</title>
<path fill="none" stroke="midnightblue" d="M170.699,-116.922C144.873,-106.495 112.218,-93.3116 87.6991,-83.4127"/>
<polygon fill="midnightblue" stroke="midnightblue" points="88.9831,-80.1566 78.4,-79.6584 86.3625,-86.6476 88.9831,-80.1566"/>
</g>
<!-- Node5 -->
<g id="node9" class="node"><title>Node5</title>
<polygon fill="white" stroke="#bfbfbf" points="116,-58.5 116,-79.5 170,-79.5 170,-58.5 116,-58.5"/>
<text text-anchor="middle" x="143" y="-66.5" font-family="Helvetica,sans-Serif" font-size="10.00">iostream</text>
</g>
<!-- Node1&#45;&gt;Node5 -->
<g id="edge8" class="edge"><title>Node1&#45;&gt;Node5</title>
<path fill="none" stroke="midnightblue" d="M194.608,-116.922C184.636,-107.662 172.322,-96.2273 162.223,-86.8503"/>
<polygon fill="midnightblue" stroke="midnightblue" points="164.396,-84.0918 154.687,-79.8521 159.633,-89.2214 164.396,-84.0918"/>
</g>
<!-- Node6 -->
<g id="node11" class="node"><title>Node6</title>
<polygon fill="white" stroke="#bfbfbf" points="188,-58.5 188,-79.5 238,-79.5 238,-58.5 188,-58.5"/>
<text text-anchor="middle" x="213" y="-66.5" font-family="Helvetica,sans-Serif" font-size="10.00">iomanip</text>
</g>
<!-- Node1&#45;&gt;Node6 -->
<g id="edge10" class="edge"><title>Node1&#45;&gt;Node6</title>
<path fill="none" stroke="midnightblue" d="M213,-116.922C213,-108.67 213,-98.6922 213,-89.9818"/>
<polygon fill="midnightblue" stroke="midnightblue" points="216.5,-89.8521 213,-79.8521 209.5,-89.8521 216.5,-89.8521"/>
</g>
<!-- Node7 -->
<g id="node13" class="node"><title>Node7</title>
<polygon fill="white" stroke="#bfbfbf" points="255.5,-58.5 255.5,-79.5 302.5,-79.5 302.5,-58.5 255.5,-58.5"/>
<text text-anchor="middle" x="279" y="-66.5" font-family="Helvetica,sans-Serif" font-size="10.00">TFile.h</text>
</g>
<!-- Node1&#45;&gt;Node7 -->
<g id="edge12" class="edge"><title>Node1&#45;&gt;Node7</title>
<path fill="none" stroke="midnightblue" d="M230.341,-116.922C239.65,-107.754 251.124,-96.4535 260.592,-87.1294"/>
<polygon fill="midnightblue" stroke="midnightblue" points="263.312,-89.3627 267.981,-79.8521 258.4,-84.3753 263.312,-89.3627"/>
</g>
<!-- Node8 -->
<g id="node15" class="node"><title>Node8</title>
<polygon fill="white" stroke="#bfbfbf" points="320,-58.5 320,-79.5 370,-79.5 370,-58.5 320,-58.5"/>
<text text-anchor="middle" x="345" y="-66.5" font-family="Helvetica,sans-Serif" font-size="10.00">TTree.h</text>
</g>
<!-- Node1&#45;&gt;Node8 -->
<g id="edge14" class="edge"><title>Node1&#45;&gt;Node8</title>
<path fill="none" stroke="midnightblue" d="M247.681,-116.922C268.294,-106.772 294.211,-94.0097 314.116,-84.2079"/>
<polygon fill="midnightblue" stroke="midnightblue" points="315.93,-87.2161 323.355,-79.6584 312.838,-80.9362 315.93,-87.2161"/>
</g>
<!-- Node3 -->
<g id="node5" class="node"><title>Node3</title>
<polygon fill="white" stroke="#bfbfbf" points="0,-0.5 0,-21.5 44,-21.5 44,-0.5 0,-0.5"/>
<text text-anchor="middle" x="22" y="-8.5" font-family="Helvetica,sans-Serif" font-size="10.00">vector</text>
</g>
<!-- Node2&#45;&gt;Node3 -->
<g id="edge4" class="edge"><title>Node2&#45;&gt;Node3</title>
<path fill="none" stroke="midnightblue" d="M46.4975,-58.3619C42.4801,-50.5949 36.9186,-39.8426 32.1099,-30.5458"/>
<polygon fill="midnightblue" stroke="midnightblue" points="35.1706,-28.8448 27.4676,-21.5707 28.9531,-32.0608 35.1706,-28.8448"/>
</g>
<!-- Node4 -->
<g id="node7" class="node"><title>Node4</title>
<polygon fill="white" stroke="#bfbfbf" points="61.5,-0.5 61.5,-21.5 102.5,-21.5 102.5,-0.5 61.5,-0.5"/>
<text text-anchor="middle" x="82" y="-8.5" font-family="Helvetica,sans-Serif" font-size="10.00">string</text>
</g>
<!-- Node2&#45;&gt;Node4 -->
<g id="edge6" class="edge"><title>Node2&#45;&gt;Node4</title>
<path fill="none" stroke="midnightblue" d="M57.5025,-58.3619C61.5199,-50.5949 67.0814,-39.8426 71.8901,-30.5458"/>
<polygon fill="midnightblue" stroke="midnightblue" points="75.0469,-32.0608 76.5324,-21.5707 68.8294,-28.8448 75.0469,-32.0608"/>
</g>
</g>
</svg>
