<?xml version="1.0" encoding="UTF-8" standalone="no"?>
<!DOCTYPE svg PUBLIC "-//W3C//DTD SVG 1.1//EN"
 "http://www.w3.org/Graphics/SVG/1.1/DTD/svg11.dtd">
<!-- Generated by graphviz version 2.26.3 (20100126.1600)
 -->
<!-- Title: src/root&#45;addons/analysis_codes/RootPointerFun.h Pages: 1 -->
<svg width="136pt" height="102pt"
 viewBox="0.00 0.00 136.00 102.00" xmlns="http://www.w3.org/2000/svg" xmlns:xlink="http://www.w3.org/1999/xlink">
<g id="graph1" class="graph" transform="scale(1 1) rotate(0) translate(4 98)">
<title>src/root&#45;addons/analysis_codes/RootPointerFun.h</title>
<polygon fill="white" stroke="white" points="-4,5 -4,-98 133,-98 133,5 -4,5"/>
<!-- Node1 -->
<g id="node1" class="node"><title>Node1</title>
<polygon fill="#bfbfbf" stroke="black" points="0,-59 0,-93 128,-93 128,-59 0,-59"/>
<text text-anchor="start" x="8" y="-80" font-family="Helvetica,sans-Serif" font-size="10.00">src/root&#45;addons/analysis</text>
<text text-anchor="middle" x="64" y="-67" font-family="Helvetica,sans-Serif" font-size="10.00">_codes/RootPointerFun.h</text>
</g>
<!-- Node2 -->
<g id="node3" class="node"><title>Node2</title>
<polygon fill="white" stroke="#bfbfbf" points="12,-0.5 12,-21.5 56,-21.5 56,-0.5 12,-0.5"/>
<text text-anchor="middle" x="34" y="-8.5" font-family="Helvetica,sans-Serif" font-size="10.00">vector</text>
</g>
<!-- Node1&#45;&gt;Node2 -->
<g id="edge2" class="edge"><title>Node1&#45;&gt;Node2</title>
<path fill="none" stroke="midnightblue" d="M56.1179,-58.922C52.1825,-50.3954 47.3962,-40.0251 43.2839,-31.1151"/>
<polygon fill="midnightblue" stroke="midnightblue" points="46.3772,-29.465 39.0087,-21.8521 40.0214,-32.3984 46.3772,-29.465"/>
</g>
<!-- Node3 -->
<g id="node5" class="node"><title>Node3</title>
<polygon fill="white" stroke="#bfbfbf" points="73.5,-0.5 73.5,-21.5 114.5,-21.5 114.5,-0.5 73.5,-0.5"/>
<text text-anchor="middle" x="94" y="-8.5" font-family="Helvetica,sans-Serif" font-size="10.00">string</text>
</g>
<!-- Node1&#45;&gt;Node3 -->
<g id="edge4" class="edge"><title>Node1&#45;&gt;Node3</title>
<path fill="none" stroke="midnightblue" d="M71.8821,-58.922C75.8175,-50.3954 80.6038,-40.0251 84.7161,-31.1151"/>
<polygon fill="midnightblue" stroke="midnightblue" points="87.9786,-32.3984 88.9913,-21.8521 81.6228,-29.465 87.9786,-32.3984"/>
</g>
</g>
</svg>
