<?xml version="1.0" encoding="UTF-8" standalone="no"?>
<!DOCTYPE svg PUBLIC "-//W3C//DTD SVG 1.1//EN"
 "http://www.w3.org/Graphics/SVG/1.1/DTD/svg11.dtd">
<!-- Generated by graphviz version 2.26.3 (20100126.1600)
 -->
<!-- Title: src/expconfig/setups/SetupRegistry.cc Pages: 1 -->
<svg width="3354pt" height="608pt"
 viewBox="0.00 0.00 3353.55 608.00" xmlns="http://www.w3.org/2000/svg" xmlns:xlink="http://www.w3.org/1999/xlink">
<g id="graph1" class="graph" transform="scale(1 1) rotate(0) translate(4 604)">
<title>src/expconfig/setups/SetupRegistry.cc</title>
<polygon fill="white" stroke="white" points="-4,5 -4,-604 3350.55,-604 3350.55,5 -4,5"/>
<!-- Node1 -->
<g id="node1" class="node"><title>Node1</title>
<polygon fill="#bfbfbf" stroke="black" points="2696.05,-565 2696.05,-599 2803.05,-599 2803.05,-565 2696.05,-565"/>
<text text-anchor="start" x="2704.05" y="-586" font-family="Helvetica,sans-Serif" font-size="10.00">src/expconfig/setups</text>
<text text-anchor="middle" x="2749.55" y="-573" font-family="Helvetica,sans-Serif" font-size="10.00">/SetupRegistry.cc</text>
</g>
<!-- Node2 -->
<g id="node3" class="node"><title>Node2</title>
<a xlink:href="_setup_registry_8h.html" target="_top" xlink:title="SetupRegistry.h">
<polygon fill="white" stroke="black" points="2815.05,-332.5 2815.05,-353.5 2902.05,-353.5 2902.05,-332.5 2815.05,-332.5"/>
<text text-anchor="middle" x="2858.55" y="-340.5" font-family="Helvetica,sans-Serif" font-size="10.00">SetupRegistry.h</text>
</a>
</g>
<!-- Node1&#45;&gt;Node2 -->
<g id="edge2" class="edge"><title>Node1&#45;&gt;Node2</title>
<path fill="none" stroke="midnightblue" d="M2803.18,-576.409C2890.29,-564.114 3060.26,-526.018 3134.55,-412 3139.89,-403.808 3140.86,-397.472 3134.55,-390 3120.41,-373.238 2988.99,-356.747 2912.71,-348.478"/>
<polygon fill="midnightblue" stroke="midnightblue" points="2912.65,-344.951 2902.33,-347.367 2911.9,-351.911 2912.65,-344.951"/>
</g>
<!-- Node11 -->
<g id="node23" class="node"><title>Node11</title>
<a xlink:href="_setup_8h.html" target="_top" xlink:title="Setup.h">
<polygon fill="white" stroke="black" points="2518.55,-506.5 2518.55,-527.5 2568.55,-527.5 2568.55,-506.5 2518.55,-506.5"/>
<text text-anchor="middle" x="2543.55" y="-514.5" font-family="Helvetica,sans-Serif" font-size="10.00">Setup.h</text>
</a>
</g>
<!-- Node1&#45;&gt;Node11 -->
<g id="edge24" class="edge"><title>Node1&#45;&gt;Node11</title>
<path fill="none" stroke="midnightblue" d="M2695.97,-565.092C2658.96,-553.416 2610.81,-538.221 2578.62,-528.065"/>
<polygon fill="midnightblue" stroke="midnightblue" points="2579.36,-524.627 2568.77,-524.956 2577.25,-531.303 2579.36,-524.627"/>
</g>
<!-- Node21 -->
<g id="node45" class="node"><title>Node21</title>
<polygon fill="white" stroke="#bfbfbf" points="861.055,-123.5 861.055,-144.5 920.055,-144.5 920.055,-123.5 861.055,-123.5"/>
<text text-anchor="middle" x="890.555" y="-131.5" font-family="Helvetica,sans-Serif" font-size="10.00">stdexcept</text>
</g>
<!-- Node1&#45;&gt;Node21 -->
<g id="edge272" class="edge"><title>Node1&#45;&gt;Node21</title>
<path fill="none" stroke="midnightblue" d="M2696.01,-578.88C2439.4,-563.334 1335.07,-489.545 1021.55,-354 984.154,-337.83 974.238,-329.156 950.555,-296 918.586,-251.246 901.63,-187.483 894.582,-154.909"/>
<polygon fill="midnightblue" stroke="midnightblue" points="897.94,-153.858 892.495,-144.77 891.083,-155.27 897.94,-153.858"/>
</g>
<!-- Node35 -->
<g id="node92" class="node"><title>Node35</title>
<a xlink:href="string_8h.html" target="_top" xlink:title="base/std_ext/string.h">
<polygon fill="white" stroke="black" points="1520.55,-58.5 1520.55,-79.5 1628.55,-79.5 1628.55,-58.5 1520.55,-58.5"/>
<text text-anchor="middle" x="1574.55" y="-66.5" font-family="Helvetica,sans-Serif" font-size="10.00">base/std_ext/string.h</text>
</a>
</g>
<!-- Node1&#45;&gt;Node35 -->
<g id="edge270" class="edge"><title>Node1&#45;&gt;Node35</title>
<path fill="none" stroke="midnightblue" d="M2751.54,-564.823C2757.62,-502.888 2769.22,-289.35 2654.55,-188 2601.6,-141.195 2408.52,-162.003 2338.55,-152 2245.25,-138.66 2223.05,-127.988 2129.55,-116 1952.5,-93.2966 1742.2,-78.8966 1638.67,-72.6304"/>
<polygon fill="midnightblue" stroke="midnightblue" points="1638.88,-69.1368 1628.68,-72.0314 1638.46,-76.1242 1638.88,-69.1368"/>
</g>
<!-- Node55 -->
<g id="node188" class="node"><title>Node55</title>
<a xlink:href="_logger_8h.html" target="_top" xlink:title="base/Logger.h">
<polygon fill="white" stroke="black" points="3240.55,-506.5 3240.55,-527.5 3318.55,-527.5 3318.55,-506.5 3240.55,-506.5"/>
<text text-anchor="middle" x="3279.55" y="-514.5" font-family="Helvetica,sans-Serif" font-size="10.00">base/Logger.h</text>
</a>
</g>
<!-- Node1&#45;&gt;Node55 -->
<g id="edge266" class="edge"><title>Node1&#45;&gt;Node55</title>
<path fill="none" stroke="midnightblue" d="M2803.39,-576.862C2890.58,-568.297 3068.04,-549.869 3217.55,-528 3221.69,-527.395 3225.98,-526.725 3230.27,-526.023"/>
<polygon fill="midnightblue" stroke="midnightblue" points="3230.97,-529.455 3240.25,-524.343 3229.81,-522.552 3230.97,-529.455"/>
</g>
<!-- Node3 -->
<g id="node5" class="node"><title>Node3</title>
<a xlink:href="_options_list_8h.html" target="_top" xlink:title="base/OptionsList.h">
<polygon fill="white" stroke="black" points="2880.55,-267.5 2880.55,-288.5 2978.55,-288.5 2978.55,-267.5 2880.55,-267.5"/>
<text text-anchor="middle" x="2929.55" y="-275.5" font-family="Helvetica,sans-Serif" font-size="10.00">base/OptionsList.h</text>
</a>
</g>
<!-- Node2&#45;&gt;Node3 -->
<g id="edge4" class="edge"><title>Node2&#45;&gt;Node3</title>
<path fill="none" stroke="midnightblue" d="M2870.28,-332.267C2881.24,-322.233 2897.79,-307.078 2910.62,-295.331"/>
<polygon fill="midnightblue" stroke="midnightblue" points="2913.04,-297.868 2918.05,-288.534 2908.31,-292.705 2913.04,-297.868"/>
</g>
<!-- Node5 -->
<g id="node9" class="node"><title>Node5</title>
<polygon fill="white" stroke="#bfbfbf" points="2771.55,-58.5 2771.55,-79.5 2823.55,-79.5 2823.55,-58.5 2771.55,-58.5"/>
<text text-anchor="middle" x="2797.55" y="-66.5" font-family="Helvetica,sans-Serif" font-size="10.00">memory</text>
</g>
<!-- Node2&#45;&gt;Node5 -->
<g id="edge20" class="edge"><title>Node2&#45;&gt;Node5</title>
<path fill="none" stroke="midnightblue" d="M2902.32,-332.767C2935.62,-323.992 2977.41,-310.499 2987.55,-296 2992.53,-288.893 2992.4,-221.872 2985.55,-188 2978.76,-154.345 2982.84,-139.223 2957.55,-116 2939.47,-99.3924 2875.1,-84.1584 2833.73,-75.7691"/>
<polygon fill="midnightblue" stroke="midnightblue" points="2834.24,-72.3019 2823.75,-73.787 2832.88,-79.1678 2834.24,-72.3019"/>
</g>
<!-- Node6 -->
<g id="node11" class="node"><title>Node6</title>
<polygon fill="white" stroke="#bfbfbf" points="2611.05,-195.5 2611.05,-216.5 2646.05,-216.5 2646.05,-195.5 2611.05,-195.5"/>
<text text-anchor="middle" x="2628.55" y="-203.5" font-family="Helvetica,sans-Serif" font-size="10.00">map</text>
</g>
<!-- Node2&#45;&gt;Node6 -->
<g id="edge16" class="edge"><title>Node2&#45;&gt;Node6</title>
<path fill="none" stroke="midnightblue" d="M2840.89,-332.477C2800.75,-308.57 2702.51,-250.053 2655.06,-221.789"/>
<polygon fill="midnightblue" stroke="midnightblue" points="2656.66,-218.669 2646.28,-216.559 2653.08,-224.683 2656.66,-218.669"/>
</g>
<!-- Node9 -->
<g id="node18" class="node"><title>Node9</title>
<polygon fill="white" stroke="#bfbfbf" points="2348.05,-58.5 2348.05,-79.5 2377.05,-79.5 2377.05,-58.5 2348.05,-58.5"/>
<text text-anchor="middle" x="2362.55" y="-66.5" font-family="Helvetica,sans-Serif" font-size="10.00">list</text>
</g>
<!-- Node2&#45;&gt;Node9 -->
<g id="edge18" class="edge"><title>Node2&#45;&gt;Node9</title>
<path fill="none" stroke="midnightblue" d="M2858.22,-332.204C2856.45,-295.092 2845.18,-171.959 2773.55,-116 2743.02,-92.1454 2471.88,-75.1088 2387.5,-70.3476"/>
<polygon fill="midnightblue" stroke="midnightblue" points="2387.49,-66.8413 2377.31,-69.781 2387.1,-73.8305 2387.49,-66.8413"/>
</g>
<!-- Node10 -->
<g id="node21" class="node"><title>Node10</title>
<polygon fill="white" stroke="#bfbfbf" points="1260.05,-58.5 1260.05,-79.5 1319.05,-79.5 1319.05,-58.5 1260.05,-58.5"/>
<text text-anchor="middle" x="1289.55" y="-66.5" font-family="Helvetica,sans-Serif" font-size="10.00">functional</text>
</g>
<!-- Node2&#45;&gt;Node10 -->
<g id="edge22" class="edge"><title>Node2&#45;&gt;Node10</title>
<path fill="none" stroke="midnightblue" d="M2814.66,-342.037C2675.93,-338.754 2234.62,-326.464 1870.55,-296 1602.91,-273.604 1448.8,-424.91 1270.55,-224 1236.97,-186.139 1262.47,-121.069 1278.74,-88.6084"/>
<polygon fill="midnightblue" stroke="midnightblue" points="1281.9,-90.132 1283.42,-79.6476 1275.69,-86.8923 1281.9,-90.132"/>
</g>
<!-- Node4 -->
<g id="node7" class="node"><title>Node4</title>
<polygon fill="white" stroke="#bfbfbf" points="3043.05,-0.5 3043.05,-21.5 3084.05,-21.5 3084.05,-0.5 3043.05,-0.5"/>
<text text-anchor="middle" x="3063.55" y="-8.5" font-family="Helvetica,sans-Serif" font-size="10.00">string</text>
</g>
<!-- Node3&#45;&gt;Node4 -->
<g id="edge6" class="edge"><title>Node3&#45;&gt;Node4</title>
<path fill="none" stroke="midnightblue" d="M2951.35,-267.378C2985.74,-249.237 3051.37,-208.673 3077.55,-152 3095.94,-112.198 3081.94,-59.4729 3071.74,-31.1117"/>
<polygon fill="midnightblue" stroke="midnightblue" points="3074.91,-29.6161 3068.09,-21.5126 3068.37,-32.1037 3074.91,-29.6161"/>
</g>
<!-- Node3&#45;&gt;Node5 -->
<g id="edge8" class="edge"><title>Node3&#45;&gt;Node5</title>
<path fill="none" stroke="midnightblue" d="M2940.59,-267.184C2950.07,-257.045 2963.08,-240.945 2968.55,-224 2984.45,-174.841 2965.33,-148.973 2925.55,-116 2899.05,-94.0294 2861.35,-81.8536 2833.73,-75.4342"/>
<polygon fill="midnightblue" stroke="midnightblue" points="2834.2,-71.954 2823.69,-73.2473 2832.71,-78.7939 2834.2,-71.954"/>
</g>
<!-- Node3&#45;&gt;Node6 -->
<g id="edge10" class="edge"><title>Node3&#45;&gt;Node6</title>
<path fill="none" stroke="midnightblue" d="M2885.46,-267.453C2822.37,-252.361 2708.2,-225.05 2655.97,-212.557"/>
<polygon fill="midnightblue" stroke="midnightblue" points="2656.63,-209.117 2646.09,-210.195 2655,-215.925 2656.63,-209.117"/>
</g>
<!-- Node7 -->
<g id="node13" class="node"><title>Node7</title>
<polygon fill="white" stroke="#bfbfbf" points="2929.55,-195.5 2929.55,-216.5 2959.55,-216.5 2959.55,-195.5 2929.55,-195.5"/>
<text text-anchor="middle" x="2944.55" y="-203.5" font-family="Helvetica,sans-Serif" font-size="10.00">set</text>
</g>
<!-- Node3&#45;&gt;Node7 -->
<g id="edge12" class="edge"><title>Node3&#45;&gt;Node7</title>
<path fill="none" stroke="midnightblue" d="M2931.77,-267.376C2933.98,-256.741 2937.45,-240.095 2940.22,-226.82"/>
<polygon fill="midnightblue" stroke="midnightblue" points="2943.72,-227.171 2942.33,-216.667 2936.87,-225.743 2943.72,-227.171"/>
</g>
<!-- Node8 -->
<g id="node15" class="node"><title>Node8</title>
<polygon fill="white" stroke="#bfbfbf" points="2260.55,-0.5 2260.55,-21.5 2312.55,-21.5 2312.55,-0.5 2260.55,-0.5"/>
<text text-anchor="middle" x="2286.55" y="-8.5" font-family="Helvetica,sans-Serif" font-size="10.00">sstream</text>
</g>
<!-- Node3&#45;&gt;Node8 -->
<g id="edge14" class="edge"><title>Node3&#45;&gt;Node8</title>
<path fill="none" stroke="midnightblue" d="M2927.24,-267.308C2925.01,-256.46 2921.81,-239.155 2920.55,-224 2919.23,-208.055 2919.45,-203.962 2920.55,-188 2921.67,-171.885 2924.44,-168.115 2925.55,-152 2926.66,-136.038 2933.32,-129.991 2925.55,-116 2901.92,-73.4051 2878.77,-73.4043 2832.55,-58 2737.44,-26.2945 2428.86,-14.9378 2322.77,-11.9141"/>
<polygon fill="midnightblue" stroke="midnightblue" points="2322.66,-8.40997 2312.57,-11.6316 2322.47,-15.4073 2322.66,-8.40997"/>
</g>
<!-- Node11&#45;&gt;Node2 -->
<g id="edge198" class="edge"><title>Node11&#45;&gt;Node2</title>
<path fill="none" stroke="midnightblue" d="M2562.79,-506.377C2616.27,-476.831 2767.02,-393.563 2830.17,-358.68"/>
<polygon fill="midnightblue" stroke="midnightblue" points="2832.11,-361.604 2839.18,-353.705 2828.73,-355.476 2832.11,-361.604"/>
</g>
<!-- Node11&#45;&gt;Node3 -->
<g id="edge260" class="edge"><title>Node11&#45;&gt;Node3</title>
<path fill="none" stroke="midnightblue" d="M2568.66,-513.613C2635.47,-503.211 2818.79,-465.381 2910.55,-354 2923.34,-338.478 2927.7,-315.529 2929.09,-298.913"/>
<polygon fill="midnightblue" stroke="midnightblue" points="2932.61,-298.766 2929.66,-288.591 2925.62,-298.386 2932.61,-298.766"/>
</g>
<!-- Node11&#45;&gt;Node4 -->
<g id="edge264" class="edge"><title>Node11&#45;&gt;Node4</title>
<path fill="none" stroke="midnightblue" d="M2568.63,-516.538C2636.24,-514.818 2827.58,-506.803 2981.55,-470 3052.28,-453.094 3069.09,-443.672 3134.55,-412 3217.13,-372.046 3291.55,-369.738 3291.55,-278 3291.55,-278 3291.55,-278 3291.55,-134 3291.55,-45.3534 3156.4,-20.2969 3094.21,-13.4595"/>
<polygon fill="midnightblue" stroke="midnightblue" points="3094.49,-9.97011 3084.19,-12.447 3093.79,-16.9346 3094.49,-9.97011"/>
</g>
<!-- Node11&#45;&gt;Node10 -->
<g id="edge262" class="edge"><title>Node11&#45;&gt;Node10</title>
<path fill="none" stroke="midnightblue" d="M2518.42,-516.857C2291.96,-515.408 611.555,-501.281 611.555,-401 611.555,-401 611.555,-401 611.555,-343 611.555,-225.618 395.984,-201.363 476.555,-116 503.354,-87.6068 1089.37,-73.2165 1249.46,-69.8061"/>
<polygon fill="midnightblue" stroke="midnightblue" points="1249.88,-73.2981 1259.81,-69.5884 1249.73,-66.2996 1249.88,-73.2981"/>
</g>
<!-- Node12 -->
<g id="node25" class="node"><title>Node12</title>
<a xlink:href="_exp_config_8h.html" target="_top" xlink:title="expconfig/ExpConfig.h">
<polygon fill="white" stroke="black" points="2348.55,-390.5 2348.55,-411.5 2464.55,-411.5 2464.55,-390.5 2348.55,-390.5"/>
<text text-anchor="middle" x="2406.55" y="-398.5" font-family="Helvetica,sans-Serif" font-size="10.00">expconfig/ExpConfig.h</text>
</a>
</g>
<!-- Node11&#45;&gt;Node12 -->
<g id="edge26" class="edge"><title>Node11&#45;&gt;Node12</title>
<path fill="none" stroke="midnightblue" d="M2543.45,-506.276C2542.73,-491.4 2539.31,-464.477 2524.55,-448 2510.46,-432.258 2490.39,-421.716 2470.78,-414.686"/>
<polygon fill="midnightblue" stroke="midnightblue" points="2471.82,-411.342 2461.22,-411.51 2469.61,-417.985 2471.82,-411.342"/>
</g>
<!-- Node28 -->
<g id="node74" class="node"><title>Node28</title>
<a xlink:href="_calibration_8h.html" target="_top" xlink:title="calibration/Calibration.h">
<polygon fill="white" stroke="black" points="1905.05,-332.5 1905.05,-353.5 2024.05,-353.5 2024.05,-332.5 1905.05,-332.5"/>
<text text-anchor="middle" x="1964.55" y="-340.5" font-family="Helvetica,sans-Serif" font-size="10.00">calibration/Calibration.h</text>
</a>
</g>
<!-- Node11&#45;&gt;Node28 -->
<g id="edge248" class="edge"><title>Node11&#45;&gt;Node28</title>
<path fill="none" stroke="midnightblue" d="M2518.54,-516.375C2461.97,-514.346 2320.43,-505.792 2208.55,-470 2122.96,-442.614 2031.35,-386.861 1988.83,-359.246"/>
<polygon fill="midnightblue" stroke="midnightblue" points="1990.56,-356.2 1980.28,-353.645 1986.72,-362.054 1990.56,-356.2"/>
</g>
<!-- Node44 -->
<g id="node121" class="node"><title>Node44</title>
<a xlink:href="_t_i_d_8h.html" target="_top" xlink:title="tree/TID.h">
<polygon fill="white" stroke="black" points="579.055,-195.5 579.055,-216.5 640.055,-216.5 640.055,-195.5 579.055,-195.5"/>
<text text-anchor="middle" x="609.555" y="-203.5" font-family="Helvetica,sans-Serif" font-size="10.00">tree/TID.h</text>
</a>
</g>
<!-- Node11&#45;&gt;Node44 -->
<g id="edge246" class="edge"><title>Node11&#45;&gt;Node44</title>
<path fill="none" stroke="midnightblue" d="M2518.37,-516.878C2293.14,-515.732 632.761,-506.067 597.555,-470 532.179,-403.026 578.61,-275.16 600.175,-225.969"/>
<polygon fill="midnightblue" stroke="midnightblue" points="603.427,-227.271 604.35,-216.717 597.046,-224.392 603.427,-227.271"/>
</g>
<!-- Node51 -->
<g id="node151" class="node"><title>Node51</title>
<a xlink:href="_unpacker_acqu_8h.html" target="_top" xlink:title="unpacker/UnpackerAcqu.h">
<polygon fill="white" stroke="black" points="2217.55,-448.5 2217.55,-469.5 2349.55,-469.5 2349.55,-448.5 2217.55,-448.5"/>
<text text-anchor="middle" x="2283.55" y="-456.5" font-family="Helvetica,sans-Serif" font-size="10.00">unpacker/UnpackerAcqu.h</text>
</a>
</g>
<!-- Node11&#45;&gt;Node51 -->
<g id="edge200" class="edge"><title>Node11&#45;&gt;Node51</title>
<path fill="none" stroke="midnightblue" d="M2518.15,-511.333C2477.37,-502.236 2396.28,-484.147 2340.98,-471.81"/>
<polygon fill="midnightblue" stroke="midnightblue" points="2341.49,-468.339 2330.97,-469.577 2339.97,-475.171 2341.49,-468.339"/>
</g>
<!-- Node53 -->
<g id="node165" class="node"><title>Node53</title>
<a xlink:href="_unpacker_a2_geant_8h.html" target="_top" xlink:title="unpacker/UnpackerA2Geant.h">
<polygon fill="white" stroke="black" points="2367.55,-448.5 2367.55,-469.5 2515.55,-469.5 2515.55,-448.5 2367.55,-448.5"/>
<text text-anchor="middle" x="2441.55" y="-456.5" font-family="Helvetica,sans-Serif" font-size="10.00">unpacker/UnpackerA2Geant.h</text>
</a>
</g>
<!-- Node11&#45;&gt;Node53 -->
<g id="edge224" class="edge"><title>Node11&#45;&gt;Node53</title>
<path fill="none" stroke="midnightblue" d="M2524.85,-506.362C2509.17,-497.45 2486.59,-484.609 2468.89,-474.545"/>
<polygon fill="midnightblue" stroke="midnightblue" points="2470.57,-471.471 2460.14,-469.571 2467.11,-477.556 2470.57,-471.471"/>
</g>
<!-- Node54 -->
<g id="node179" class="node"><title>Node54</title>
<a xlink:href="_data_manager_8h.html" target="_top" xlink:title="calibration/DataManager.h">
<polygon fill="white" stroke="black" points="2995.05,-390.5 2995.05,-411.5 3126.05,-411.5 3126.05,-390.5 2995.05,-390.5"/>
<text text-anchor="middle" x="3060.55" y="-398.5" font-family="Helvetica,sans-Serif" font-size="10.00">calibration/DataManager.h</text>
</a>
</g>
<!-- Node11&#45;&gt;Node54 -->
<g id="edge250" class="edge"><title>Node11&#45;&gt;Node54</title>
<path fill="none" stroke="midnightblue" d="M2568.72,-515.409C2645.09,-510.365 2873.31,-493.66 2943.55,-470 2979.46,-457.905 3016.38,-433.812 3038.9,-417.546"/>
<polygon fill="midnightblue" stroke="midnightblue" points="3041.1,-420.277 3047.07,-411.529 3036.95,-414.641 3041.1,-420.277"/>
</g>
<!-- Node12&#45;&gt;Node5 -->
<g id="edge192" class="edge"><title>Node12&#45;&gt;Node5</title>
<path fill="none" stroke="midnightblue" d="M2411.55,-390.339C2425.19,-361.443 2463.27,-282.295 2481.55,-260 2513.6,-220.928 2524,-209.881 2569.55,-188 2638.78,-154.748 2674.37,-194.173 2738.55,-152 2762.21,-136.457 2779.35,-107.894 2788.88,-88.6745"/>
<polygon fill="midnightblue" stroke="midnightblue" points="2792.06,-90.1318 2793.16,-79.594 2785.73,-87.1469 2792.06,-90.1318"/>
</g>
<!-- Node12&#45;&gt;Node6 -->
<g id="edge196" class="edge"><title>Node12&#45;&gt;Node6</title>
<path fill="none" stroke="midnightblue" d="M2421.41,-390.289C2432.87,-381.489 2448.56,-368.199 2459.55,-354 2488.27,-316.905 2473.53,-292.29 2507.55,-260 2534.07,-234.837 2574.29,-220.107 2600.98,-212.552"/>
<polygon fill="midnightblue" stroke="midnightblue" points="2602.08,-215.882 2610.84,-209.916 2600.27,-209.12 2602.08,-215.882"/>
</g>
<!-- Node12&#45;&gt;Node9 -->
<g id="edge194" class="edge"><title>Node12&#45;&gt;Node9</title>
<path fill="none" stroke="midnightblue" d="M2407.71,-390.219C2410.42,-366.391 2418.02,-307.585 2431.55,-260 2449.83,-195.757 2511.53,-171.622 2474.55,-116 2455.26,-86.9842 2414.22,-75.8445 2387.53,-71.5927"/>
<polygon fill="midnightblue" stroke="midnightblue" points="2387.8,-68.0966 2377.42,-70.1988 2386.85,-75.0311 2387.8,-68.0966"/>
</g>
<!-- Node13 -->
<g id="node27" class="node"><title>Node13</title>
<a xlink:href="_detector__t_8h.html" target="_top" xlink:title="base/Detector_t.h">
<polygon fill="white" stroke="black" points="786.055,-195.5 786.055,-216.5 881.055,-216.5 881.055,-195.5 786.055,-195.5"/>
<text text-anchor="middle" x="833.555" y="-203.5" font-family="Helvetica,sans-Serif" font-size="10.00">base/Detector_t.h</text>
</a>
</g>
<!-- Node12&#45;&gt;Node13 -->
<g id="edge28" class="edge"><title>Node12&#45;&gt;Node13</title>
<path fill="none" stroke="midnightblue" d="M2348.45,-398.45C2177.37,-390.371 1660.88,-361.88 1237.55,-296 1108.1,-275.854 958.134,-238.757 882.525,-219.07"/>
<polygon fill="midnightblue" stroke="midnightblue" points="883.359,-215.67 872.799,-216.526 881.588,-222.442 883.359,-215.67"/>
</g>
<!-- Node14 -->
<g id="node29" class="node"><title>Node14</title>
<a xlink:href="printable_8h.html" target="_top" xlink:title="base/printable.h">
<polygon fill="white" stroke="black" points="121.555,-58.5 121.555,-79.5 207.555,-79.5 207.555,-58.5 121.555,-58.5"/>
<text text-anchor="middle" x="164.555" y="-66.5" font-family="Helvetica,sans-Serif" font-size="10.00">base/printable.h</text>
</a>
</g>
<!-- Node12&#45;&gt;Node14 -->
<g id="edge190" class="edge"><title>Node12&#45;&gt;Node14</title>
<path fill="none" stroke="midnightblue" d="M2348.34,-399.455C2205.09,-395.327 1824.14,-382.37 1507.55,-354 1172.55,-323.98 227.076,-406.827 7.55453,-152 -2.88822,-139.878 -2.00011,-128.834 7.55453,-116 20.1634,-99.0636 70.9252,-85.9673 111.361,-77.9513"/>
<polygon fill="midnightblue" stroke="midnightblue" points="112.23,-81.3484 121.39,-76.0235 110.909,-74.4743 112.23,-81.3484"/>
</g>
<!-- Node23 -->
<g id="node51" class="node"><title>Node23</title>
<a xlink:href="_reconstruct__traits_8h.html" target="_top" xlink:title="reconstruct/Reconstruct\l_traits.h">
<polygon fill="white" stroke="black" points="1879.55,-261 1879.55,-295 2001.55,-295 2001.55,-261 1879.55,-261"/>
<text text-anchor="start" x="1887.55" y="-282" font-family="Helvetica,sans-Serif" font-size="10.00">reconstruct/Reconstruct</text>
<text text-anchor="middle" x="1940.55" y="-269" font-family="Helvetica,sans-Serif" font-size="10.00">_traits.h</text>
</a>
</g>
<!-- Node12&#45;&gt;Node23 -->
<g id="edge56" class="edge"><title>Node12&#45;&gt;Node23</title>
<path fill="none" stroke="midnightblue" d="M2366.42,-390.407C2287.45,-369.562 2110.95,-322.975 2011.75,-296.791"/>
<polygon fill="midnightblue" stroke="midnightblue" points="2012.37,-293.336 2001.81,-294.168 2010.58,-300.104 2012.37,-293.336"/>
</g>
<!-- Node12&#45;&gt;Node28 -->
<g id="edge92" class="edge"><title>Node12&#45;&gt;Node28</title>
<path fill="none" stroke="midnightblue" d="M2348.32,-393.358C2267.37,-382.735 2121.04,-363.534 2034.35,-352.158"/>
<polygon fill="midnightblue" stroke="midnightblue" points="2034.71,-348.676 2024.34,-350.845 2033.8,-355.616 2034.71,-348.676"/>
</g>
<!-- Node13&#45;&gt;Node4 -->
<g id="edge50" class="edge"><title>Node13&#45;&gt;Node4</title>
<path fill="none" stroke="midnightblue" d="M881.413,-200.399C915.67,-196.528 962.907,-191.47 1004.55,-188 1264.59,-166.337 1337.85,-217.028 1590.55,-152 1626.75,-142.686 1630.48,-125.759 1666.55,-116 1956.36,-37.6097 2040.19,-80.6144 2339.55,-58 2607.98,-37.7229 2932.8,-18.546 3032.79,-12.7638"/>
<polygon fill="midnightblue" stroke="midnightblue" points="3033.03,-16.2559 3042.81,-12.1857 3032.62,-9.26755 3033.03,-16.2559"/>
</g>
<!-- Node13&#45;&gt;Node14 -->
<g id="edge30" class="edge"><title>Node13&#45;&gt;Node14</title>
<path fill="none" stroke="midnightblue" d="M786.05,-201.122C748.694,-197.348 695.328,-192.094 648.555,-188 597.151,-183.501 225.01,-185.253 185.555,-152 167.693,-136.946 163.847,-109.096 163.54,-89.8331"/>
<polygon fill="midnightblue" stroke="midnightblue" points="167.043,-89.6959 163.69,-79.6457 160.044,-89.5934 167.043,-89.6959"/>
</g>
<!-- Node15 -->
<g id="node31" class="node"><title>Node15</title>
<polygon fill="white" stroke="#bfbfbf" points="868.555,-0.5 868.555,-21.5 912.555,-21.5 912.555,-0.5 868.555,-0.5"/>
<text text-anchor="middle" x="890.555" y="-8.5" font-family="Helvetica,sans-Serif" font-size="10.00">vector</text>
</g>
<!-- Node13&#45;&gt;Node15 -->
<g id="edge54" class="edge"><title>Node13&#45;&gt;Node15</title>
<path fill="none" stroke="midnightblue" d="M835.307,-195.353C838.209,-178.389 844.501,-144.258 852.555,-116 861.146,-85.8561 874.043,-51.9052 882.38,-30.9802"/>
<polygon fill="midnightblue" stroke="midnightblue" points="885.68,-32.1544 886.172,-21.571 879.187,-29.5376 885.68,-32.1544"/>
</g>
<!-- Node17 -->
<g id="node35" class="node"><title>Node17</title>
<a xlink:href="vec3_8h.html" target="_top" xlink:title="base/vec/vec3.h">
<polygon fill="white" stroke="black" points="227.055,-123.5 227.055,-144.5 316.055,-144.5 316.055,-123.5 227.055,-123.5"/>
<text text-anchor="middle" x="271.555" y="-131.5" font-family="Helvetica,sans-Serif" font-size="10.00">base/vec/vec3.h</text>
</a>
</g>
<!-- Node13&#45;&gt;Node17 -->
<g id="edge36" class="edge"><title>Node13&#45;&gt;Node17</title>
<path fill="none" stroke="midnightblue" d="M785.639,-199.861C681.751,-186.552 436.301,-155.106 326.414,-141.028"/>
<polygon fill="midnightblue" stroke="midnightblue" points="326.576,-137.52 316.212,-139.721 325.686,-144.464 326.576,-137.52"/>
</g>
<!-- Node20 -->
<g id="node43" class="node"><title>Node20</title>
<polygon fill="white" stroke="#bfbfbf" points="605.555,-123.5 605.555,-144.5 651.555,-144.5 651.555,-123.5 605.555,-123.5"/>
<text text-anchor="middle" x="628.555" y="-131.5" font-family="Helvetica,sans-Serif" font-size="10.00">cstdint</text>
</g>
<!-- Node13&#45;&gt;Node20 -->
<g id="edge46" class="edge"><title>Node13&#45;&gt;Node20</title>
<path fill="none" stroke="midnightblue" d="M798.346,-195.442C751.585,-181.354 673.373,-157.533 660.555,-152 658.711,-151.204 656.837,-150.332 654.967,-149.414"/>
<polygon fill="midnightblue" stroke="midnightblue" points="656.299,-146.159 645.822,-144.584 653.03,-152.349 656.299,-146.159"/>
</g>
<!-- Node13&#45;&gt;Node21 -->
<g id="edge48" class="edge"><title>Node13&#45;&gt;Node21</title>
<path fill="none" stroke="midnightblue" d="M841.965,-195.376C850.805,-184.209 864.893,-166.415 875.628,-152.855"/>
<polygon fill="midnightblue" stroke="midnightblue" points="878.647,-154.68 882.109,-144.667 873.158,-150.335 878.647,-154.68"/>
</g>
<!-- Node22 -->
<g id="node48" class="node"><title>Node22</title>
<polygon fill="white" stroke="#bfbfbf" points="743.555,-123.5 743.555,-144.5 805.555,-144.5 805.555,-123.5 743.555,-123.5"/>
<text text-anchor="middle" x="774.555" y="-131.5" font-family="Helvetica,sans-Serif" font-size="10.00">type_traits</text>
</g>
<!-- Node13&#45;&gt;Node22 -->
<g id="edge52" class="edge"><title>Node13&#45;&gt;Node22</title>
<path fill="none" stroke="midnightblue" d="M824.849,-195.376C815.611,-184.103 800.839,-166.075 789.688,-152.468"/>
<polygon fill="midnightblue" stroke="midnightblue" points="792.341,-150.184 783.296,-144.667 786.927,-154.621 792.341,-150.184"/>
</g>
<!-- Node14&#45;&gt;Node15 -->
<g id="edge32" class="edge"><title>Node14&#45;&gt;Node15</title>
<path fill="none" stroke="midnightblue" d="M207.574,-59.9913C211.947,-59.2434 216.331,-58.5607 220.555,-58 464.552,-25.6048 761.7,-14.6779 858.454,-11.841"/>
<polygon fill="midnightblue" stroke="midnightblue" points="858.581,-15.3389 868.477,-11.5553 858.381,-8.34174 858.581,-15.3389"/>
</g>
<!-- Node16 -->
<g id="node33" class="node"><title>Node16</title>
<polygon fill="white" stroke="#bfbfbf" points="138.555,-0.5 138.555,-21.5 190.555,-21.5 190.555,-0.5 138.555,-0.5"/>
<text text-anchor="middle" x="164.555" y="-8.5" font-family="Helvetica,sans-Serif" font-size="10.00">ostream</text>
</g>
<!-- Node14&#45;&gt;Node16 -->
<g id="edge34" class="edge"><title>Node14&#45;&gt;Node16</title>
<path fill="none" stroke="midnightblue" d="M164.555,-58.3619C164.555,-50.9219 164.555,-40.7427 164.555,-31.7276"/>
<polygon fill="midnightblue" stroke="midnightblue" points="168.055,-31.5706 164.555,-21.5707 161.055,-31.5707 168.055,-31.5706"/>
</g>
<!-- Node17&#45;&gt;Node14 -->
<g id="edge38" class="edge"><title>Node17&#45;&gt;Node14</title>
<path fill="none" stroke="midnightblue" d="M253.886,-123.267C236.668,-112.807 210.288,-96.782 190.653,-84.8541"/>
<polygon fill="midnightblue" stroke="midnightblue" points="192.258,-81.7343 181.895,-79.5337 188.624,-87.7169 192.258,-81.7343"/>
</g>
<!-- Node18 -->
<g id="node38" class="node"><title>Node18</title>
<a xlink:href="vec2_8h.html" target="_top" xlink:title="vec2.h">
<polygon fill="white" stroke="black" points="229.555,-58.5 229.555,-79.5 275.555,-79.5 275.555,-58.5 229.555,-58.5"/>
<text text-anchor="middle" x="252.555" y="-66.5" font-family="Helvetica,sans-Serif" font-size="10.00">vec2.h</text>
</a>
</g>
<!-- Node17&#45;&gt;Node18 -->
<g id="edge40" class="edge"><title>Node17&#45;&gt;Node18</title>
<path fill="none" stroke="midnightblue" d="M268.417,-123.267C265.733,-114.085 261.796,-100.615 258.515,-89.3917"/>
<polygon fill="midnightblue" stroke="midnightblue" points="261.799,-88.15 255.634,-79.5337 255.08,-90.1141 261.799,-88.15"/>
</g>
<!-- Node19 -->
<g id="node40" class="node"><title>Node19</title>
<polygon fill="white" stroke="#bfbfbf" points="255.555,-0.5 255.555,-21.5 299.555,-21.5 299.555,-0.5 255.555,-0.5"/>
<text text-anchor="middle" x="277.555" y="-8.5" font-family="Helvetica,sans-Serif" font-size="10.00">cmath</text>
</g>
<!-- Node17&#45;&gt;Node19 -->
<g id="edge44" class="edge"><title>Node17&#45;&gt;Node19</title>
<path fill="none" stroke="midnightblue" d="M274.901,-123.378C278.113,-112.585 282.736,-95.321 284.555,-80 285.707,-70.2904 285.277,-67.7511 284.555,-58 283.918,-49.4026 282.634,-39.9926 281.339,-31.8659"/>
<polygon fill="midnightblue" stroke="midnightblue" points="284.75,-31.0483 279.623,-21.7765 277.849,-32.2217 284.75,-31.0483"/>
</g>
<!-- Node18&#45;&gt;Node19 -->
<g id="edge42" class="edge"><title>Node18&#45;&gt;Node19</title>
<path fill="none" stroke="midnightblue" d="M257.14,-58.3619C260.453,-50.6766 265.025,-40.0686 269.003,-30.8399"/>
<polygon fill="midnightblue" stroke="midnightblue" points="272.254,-32.1393 272.998,-21.5707 265.826,-29.3685 272.254,-32.1393"/>
</g>
<!-- Node23&#45;&gt;Node5 -->
<g id="edge84" class="edge"><title>Node23&#45;&gt;Node5</title>
<path fill="none" stroke="midnightblue" d="M2001.62,-262.214C2004.64,-261.459 2007.63,-260.718 2010.55,-260 2147.08,-226.493 2180.12,-212.467 2318.55,-188 2449.93,-164.782 2488.16,-188.238 2616.55,-152 2624.27,-149.822 2715.88,-107.202 2765.72,-83.9059"/>
<polygon fill="midnightblue" stroke="midnightblue" points="2767.23,-87.0651 2774.81,-79.6586 2764.26,-80.7242 2767.23,-87.0651"/>
</g>
<!-- Node23&#45;&gt;Node6 -->
<g id="edge86" class="edge"><title>Node23&#45;&gt;Node6</title>
<path fill="none" stroke="midnightblue" d="M2001.89,-261.619C2004.81,-261.031 2007.71,-260.487 2010.55,-260 2236.31,-221.382 2513.44,-209.661 2600.82,-206.799"/>
<polygon fill="midnightblue" stroke="midnightblue" points="2601.09,-210.292 2610.97,-206.479 2600.86,-203.296 2601.09,-210.292"/>
</g>
<!-- Node23&#45;&gt;Node9 -->
<g id="edge88" class="edge"><title>Node23&#45;&gt;Node9</title>
<path fill="none" stroke="midnightblue" d="M1975.09,-260.897C2058.19,-219.741 2267.66,-116 2338.62,-80.8539"/>
<polygon fill="midnightblue" stroke="midnightblue" points="2340.28,-83.9382 2347.69,-76.3636 2337.17,-77.6654 2340.28,-83.9382"/>
</g>
<!-- Node23&#45;&gt;Node10 -->
<g id="edge90" class="edge"><title>Node23&#45;&gt;Node10</title>
<path fill="none" stroke="midnightblue" d="M1879.49,-269.598C1729.24,-248.399 1350.75,-191.606 1309.55,-152 1292.93,-136.017 1289.13,-108.803 1288.7,-89.9135"/>
<polygon fill="midnightblue" stroke="midnightblue" points="1292.2,-89.6781 1288.78,-79.6522 1285.2,-89.6256 1292.2,-89.6781"/>
</g>
<!-- Node23&#45;&gt;Node13 -->
<g id="edge58" class="edge"><title>Node23&#45;&gt;Node13</title>
<path fill="none" stroke="midnightblue" d="M1879.43,-275.475C1729.96,-269.082 1334.09,-250.835 1004.55,-224 966.805,-220.926 924.472,-216.478 891.37,-212.772"/>
<polygon fill="midnightblue" stroke="midnightblue" points="891.738,-209.292 881.409,-211.649 890.953,-216.248 891.738,-209.292"/>
</g>
<!-- Node24 -->
<g id="node54" class="node"><title>Node24</title>
<a xlink:href="mapped__vectors_8h.html" target="_top" xlink:title="base/std_ext/mapped\l_vectors.h">
<polygon fill="white" stroke="black" points="1279.55,-189 1279.55,-223 1389.55,-223 1389.55,-189 1279.55,-189"/>
<text text-anchor="start" x="1287.55" y="-210" font-family="Helvetica,sans-Serif" font-size="10.00">base/std_ext/mapped</text>
<text text-anchor="middle" x="1334.55" y="-197" font-family="Helvetica,sans-Serif" font-size="10.00">_vectors.h</text>
</a>
</g>
<!-- Node23&#45;&gt;Node24 -->
<g id="edge60" class="edge"><title>Node23&#45;&gt;Node24</title>
<path fill="none" stroke="midnightblue" d="M1879.33,-274.937C1779.18,-269.236 1574.4,-254.683 1403.55,-224 1402.29,-223.772 1401.01,-223.533 1399.72,-223.284"/>
<polygon fill="midnightblue" stroke="midnightblue" points="1400.25,-219.82 1389.75,-221.203 1398.82,-226.672 1400.25,-219.82"/>
</g>
<!-- Node26 -->
<g id="node63" class="node"><title>Node26</title>
<a xlink:href="shared__ptr__container_8h.html" target="_top" xlink:title="base/std_ext/shared\l_ptr_container.h">
<polygon fill="white" stroke="black" points="1477.05,-117 1477.05,-151 1582.05,-151 1582.05,-117 1477.05,-117"/>
<text text-anchor="start" x="1485.05" y="-138" font-family="Helvetica,sans-Serif" font-size="10.00">base/std_ext/shared</text>
<text text-anchor="middle" x="1529.55" y="-125" font-family="Helvetica,sans-Serif" font-size="10.00">_ptr_container.h</text>
</a>
</g>
<!-- Node23&#45;&gt;Node26 -->
<g id="edge74" class="edge"><title>Node23&#45;&gt;Node26</title>
<path fill="none" stroke="midnightblue" d="M1891.79,-260.916C1815.78,-234.284 1669.33,-182.974 1587.86,-154.427"/>
<polygon fill="midnightblue" stroke="midnightblue" points="1588.85,-151.065 1578.25,-151.062 1586.53,-157.672 1588.85,-151.065"/>
</g>
<!-- Node24&#45;&gt;Node5 -->
<g id="edge70" class="edge"><title>Node24&#45;&gt;Node5</title>
<path fill="none" stroke="midnightblue" d="M1389.7,-204.067C1610.54,-196.239 2421.8,-166.61 2474.55,-152 2507.13,-142.977 2509.66,-127.187 2541.55,-116 2617.19,-89.4728 2710.92,-77.1418 2761.35,-72.0699"/>
<polygon fill="midnightblue" stroke="midnightblue" points="2761.82,-75.5412 2771.44,-71.0953 2761.15,-68.5737 2761.82,-75.5412"/>
</g>
<!-- Node24&#45;&gt;Node15 -->
<g id="edge68" class="edge"><title>Node24&#45;&gt;Node15</title>
<path fill="none" stroke="midnightblue" d="M1311.78,-188.922C1284.87,-169.335 1238.22,-137.2 1194.55,-116 1099.51,-69.8574 978.879,-34.5613 922.416,-19.2871"/>
<polygon fill="midnightblue" stroke="midnightblue" points="923.205,-15.8752 912.64,-16.67 921.395,-22.6371 923.205,-15.8752"/>
</g>
<!-- Node24&#45;&gt;Node22 -->
<g id="edge72" class="edge"><title>Node24&#45;&gt;Node22</title>
<path fill="none" stroke="midnightblue" d="M1279.33,-201.896C1189.44,-194.75 1006.11,-178.229 852.555,-152 840.582,-149.955 827.693,-147.208 815.909,-144.477"/>
<polygon fill="midnightblue" stroke="midnightblue" points="816.426,-141.003 805.888,-142.1 814.81,-147.814 816.426,-141.003"/>
</g>
<!-- Node25 -->
<g id="node56" class="node"><title>Node25</title>
<a xlink:href="memory_8h.html" target="_top" xlink:title="base/std_ext/memory.h">
<polygon fill="white" stroke="black" points="2347.05,-123.5 2347.05,-144.5 2466.05,-144.5 2466.05,-123.5 2347.05,-123.5"/>
<text text-anchor="middle" x="2406.55" y="-131.5" font-family="Helvetica,sans-Serif" font-size="10.00">base/std_ext/memory.h</text>
</a>
</g>
<!-- Node24&#45;&gt;Node25 -->
<g id="edge62" class="edge"><title>Node24&#45;&gt;Node25</title>
<path fill="none" stroke="midnightblue" d="M1389.56,-202.306C1569.07,-190.249 2137.66,-152.06 2336.82,-138.683"/>
<polygon fill="midnightblue" stroke="midnightblue" points="2337.13,-142.171 2346.87,-138.008 2336.66,-135.187 2337.13,-142.171"/>
</g>
<!-- Node25&#45;&gt;Node5 -->
<g id="edge64" class="edge"><title>Node25&#45;&gt;Node5</title>
<path fill="none" stroke="midnightblue" d="M2446.56,-123.408C2457.24,-120.782 2468.8,-118.116 2479.55,-116 2581.06,-96.0312 2702.3,-80.3381 2761.47,-73.1987"/>
<polygon fill="midnightblue" stroke="midnightblue" points="2761.93,-76.6692 2771.44,-72.0062 2761.1,-69.7187 2761.93,-76.6692"/>
</g>
<!-- Node25&#45;&gt;Node9 -->
<g id="edge66" class="edge"><title>Node25&#45;&gt;Node9</title>
<path fill="none" stroke="midnightblue" d="M2399.29,-123.267C2392.82,-113.707 2383.2,-99.4964 2375.43,-88.0152"/>
<polygon fill="midnightblue" stroke="midnightblue" points="2378.19,-85.8528 2369.69,-79.5337 2372.39,-89.7768 2378.19,-85.8528"/>
</g>
<!-- Node26&#45;&gt;Node5 -->
<g id="edge78" class="edge"><title>Node26&#45;&gt;Node5</title>
<path fill="none" stroke="midnightblue" d="M1582.13,-125.977C1607.57,-122.38 1638.59,-118.413 1666.55,-116 1886.75,-96.9972 2593.11,-75.1042 2761.34,-70.0694"/>
<polygon fill="midnightblue" stroke="midnightblue" points="2761.52,-73.5657 2771.41,-69.7689 2761.31,-66.5688 2761.52,-73.5657"/>
</g>
<!-- Node26&#45;&gt;Node10 -->
<g id="edge80" class="edge"><title>Node26&#45;&gt;Node10</title>
<path fill="none" stroke="midnightblue" d="M1477.02,-118.363C1474.16,-117.554 1471.32,-116.761 1468.55,-116 1409.24,-99.6824 1391.65,-97.2113 1329.36,-80.4368"/>
<polygon fill="midnightblue" stroke="midnightblue" points="1329.97,-76.9755 1319.4,-77.7366 1328.14,-83.7316 1329.97,-76.9755"/>
</g>
<!-- Node26&#45;&gt;Node15 -->
<g id="edge76" class="edge"><title>Node26&#45;&gt;Node15</title>
<path fill="none" stroke="midnightblue" d="M1506.68,-116.693C1481.44,-98.6227 1438.89,-71.1231 1397.55,-58 1308.33,-29.6711 1019.68,-16.0455 922.684,-12.1855"/>
<polygon fill="midnightblue" stroke="midnightblue" points="922.733,-8.68489 912.604,-11.7923 922.46,-15.6796 922.733,-8.68489"/>
</g>
<!-- Node27 -->
<g id="node68" class="node"><title>Node27</title>
<polygon fill="white" stroke="#bfbfbf" points="1426.55,-0.5 1426.55,-21.5 1482.55,-21.5 1482.55,-0.5 1426.55,-0.5"/>
<text text-anchor="middle" x="1454.55" y="-8.5" font-family="Helvetica,sans-Serif" font-size="10.00">algorithm</text>
</g>
<!-- Node26&#45;&gt;Node27 -->
<g id="edge82" class="edge"><title>Node26&#45;&gt;Node27</title>
<path fill="none" stroke="midnightblue" d="M1519.13,-116.897C1505.27,-94.1704 1480.85,-54.1228 1466.34,-30.3263"/>
<polygon fill="midnightblue" stroke="midnightblue" points="1469.33,-28.5033 1461.13,-21.7875 1463.35,-32.1476 1469.33,-28.5033"/>
</g>
<!-- Node28&#45;&gt;Node15 -->
<g id="edge188" class="edge"><title>Node28&#45;&gt;Node15</title>
<path fill="none" stroke="midnightblue" d="M1904.82,-339.236C1789.49,-331.856 1528.14,-314.575 1308.55,-296 1226.46,-289.056 648.543,-250.566 570.555,-224 513.473,-204.556 495.081,-197.541 455.555,-152 426.627,-118.671 393.952,-90.7314 423.555,-58 452.692,-25.7834 757.283,-14.6278 858.245,-11.7996"/>
<polygon fill="midnightblue" stroke="midnightblue" points="858.546,-15.2928 868.447,-11.5229 858.356,-8.29535 858.546,-15.2928"/>
</g>
<!-- Node28&#45;&gt;Node23 -->
<g id="edge94" class="edge"><title>Node28&#45;&gt;Node23</title>
<path fill="none" stroke="midnightblue" d="M1960.59,-332.267C1957.82,-324.773 1954,-314.423 1950.44,-304.769"/>
<polygon fill="midnightblue" stroke="midnightblue" points="1953.62,-303.278 1946.87,-295.11 1947.05,-305.703 1953.62,-303.278"/>
</g>
<!-- Node29 -->
<g id="node77" class="node"><title>Node29</title>
<a xlink:href="_manager__traits_8h.html" target="_top" xlink:title="calibration/gui/Manager\l_traits.h">
<polygon fill="white" stroke="black" points="2019.05,-261 2019.05,-295 2136.05,-295 2136.05,-261 2019.05,-261"/>
<text text-anchor="start" x="2027.05" y="-282" font-family="Helvetica,sans-Serif" font-size="10.00">calibration/gui/Manager</text>
<text text-anchor="middle" x="2077.55" y="-269" font-family="Helvetica,sans-Serif" font-size="10.00">_traits.h</text>
</a>
</g>
<!-- Node28&#45;&gt;Node29 -->
<g id="edge96" class="edge"><title>Node28&#45;&gt;Node29</title>
<path fill="none" stroke="midnightblue" d="M1982.96,-332.412C1998.08,-323.716 2020,-311.104 2038.94,-300.211"/>
<polygon fill="midnightblue" stroke="midnightblue" points="2040.75,-303.207 2047.68,-295.187 2037.26,-297.139 2040.75,-303.207"/>
</g>
<!-- Node29&#45;&gt;Node4 -->
<g id="edge182" class="edge"><title>Node29&#45;&gt;Node4</title>
<path fill="none" stroke="midnightblue" d="M2136.06,-270.093C2204.86,-260.507 2322.38,-243.228 2422.55,-224 2493.29,-210.423 2670.11,-174.429 2738.55,-152 2850.71,-115.245 2977.34,-54.3645 3033.72,-26.1807"/>
<polygon fill="midnightblue" stroke="midnightblue" points="3035.42,-29.2444 3042.79,-21.6286 3032.28,-22.989 3035.42,-29.2444"/>
</g>
<!-- Node29&#45;&gt;Node5 -->
<g id="edge186" class="edge"><title>Node29&#45;&gt;Node5</title>
<path fill="none" stroke="midnightblue" d="M2136.31,-264.544C2216.75,-246.293 2365.76,-213.091 2493.55,-188 2583.9,-170.263 2614.01,-190.691 2697.55,-152 2731.23,-136.403 2762.92,-106.579 2781.27,-87.2524"/>
<polygon fill="midnightblue" stroke="midnightblue" points="2784.05,-89.3979 2788.28,-79.6844 2778.92,-84.6396 2784.05,-89.3979"/>
</g>
<!-- Node29&#45;&gt;Node9 -->
<g id="edge184" class="edge"><title>Node29&#45;&gt;Node9</title>
<path fill="none" stroke="midnightblue" d="M2136.34,-263.406C2163.38,-254.825 2194.85,-242.046 2219.55,-224 2269.1,-187.808 2262.54,-159.756 2305.55,-116 2316.06,-105.319 2328.84,-94.6019 2339.63,-86.1048"/>
<polygon fill="midnightblue" stroke="midnightblue" points="2342.01,-88.6918 2347.79,-79.8093 2337.73,-83.1516 2342.01,-88.6918"/>
</g>
<!-- Node30 -->
<g id="node79" class="node"><title>Node30</title>
<a xlink:href="interval_8h.html" target="_top" xlink:title="base/interval.h">
<polygon fill="white" stroke="black" points="1013.55,-195.5 1013.55,-216.5 1093.55,-216.5 1093.55,-195.5 1013.55,-195.5"/>
<text text-anchor="middle" x="1053.55" y="-203.5" font-family="Helvetica,sans-Serif" font-size="10.00">base/interval.h</text>
</a>
</g>
<!-- Node29&#45;&gt;Node30 -->
<g id="edge98" class="edge"><title>Node29&#45;&gt;Node30</title>
<path fill="none" stroke="midnightblue" d="M2018.88,-261.476C2016.08,-260.926 2013.29,-260.429 2010.55,-260 1685.25,-208.992 1599.12,-245.613 1270.55,-224 1213.46,-220.244 1148.02,-214.637 1104.06,-210.681"/>
<polygon fill="midnightblue" stroke="midnightblue" points="1104.19,-207.179 1093.92,-209.763 1103.56,-214.15 1104.19,-207.179"/>
</g>
<!-- Node34 -->
<g id="node90" class="node"><title>Node34</title>
<a xlink:href="_wrap_t_file_8h.html" target="_top" xlink:title="base/WrapTFile.h">
<polygon fill="white" stroke="black" points="1912.55,-195.5 1912.55,-216.5 2006.55,-216.5 2006.55,-195.5 1912.55,-195.5"/>
<text text-anchor="middle" x="1959.55" y="-203.5" font-family="Helvetica,sans-Serif" font-size="10.00">base/WrapTFile.h</text>
</a>
</g>
<!-- Node29&#45;&gt;Node34 -->
<g id="edge112" class="edge"><title>Node29&#45;&gt;Node34</title>
<path fill="none" stroke="midnightblue" d="M2049.59,-260.937C2030.26,-249.144 2004.72,-233.56 1985.78,-222.004"/>
<polygon fill="midnightblue" stroke="midnightblue" points="1987.43,-218.909 1977.07,-216.688 1983.78,-224.884 1987.43,-218.909"/>
</g>
<!-- Node29&#45;&gt;Node44 -->
<g id="edge154" class="edge"><title>Node29&#45;&gt;Node44</title>
<path fill="none" stroke="midnightblue" d="M2018.89,-261.41C2016.08,-260.878 2013.3,-260.403 2010.55,-260 1739.35,-220.169 1051.04,-242.615 777.555,-224 733.926,-221.03 684.139,-215.415 650.161,-211.243"/>
<polygon fill="midnightblue" stroke="midnightblue" points="650.503,-207.759 640.148,-209.999 649.64,-214.705 650.503,-207.759"/>
</g>
<!-- Node30&#45;&gt;Node14 -->
<g id="edge100" class="edge"><title>Node30&#45;&gt;Node14</title>
<path fill="none" stroke="midnightblue" d="M1013.51,-200.975C980.343,-196.964 931.949,-191.461 889.555,-188 815.139,-181.925 283.207,-189.344 218.555,-152 205.976,-144.735 186.473,-110.893 174.669,-88.7281"/>
<polygon fill="midnightblue" stroke="midnightblue" points="177.722,-87.0137 169.982,-79.7793 171.521,-90.2617 177.722,-87.0137"/>
</g>
<!-- Node30&#45;&gt;Node21 -->
<g id="edge106" class="edge"><title>Node30&#45;&gt;Node21</title>
<path fill="none" stroke="midnightblue" d="M1029.5,-195.376C1001.49,-183.004 955.067,-162.496 923.665,-148.625"/>
<polygon fill="midnightblue" stroke="midnightblue" points="925,-145.389 914.439,-144.55 922.172,-151.792 925,-145.389"/>
</g>
<!-- Node30&#45;&gt;Node27 -->
<g id="edge104" class="edge"><title>Node30&#45;&gt;Node27</title>
<path fill="none" stroke="midnightblue" d="M1039.96,-195.31C1019.18,-177.694 984.004,-141.936 1004.55,-116 1055.99,-51.0868 1317.19,-22.5802 1416.32,-13.9802"/>
<polygon fill="midnightblue" stroke="midnightblue" points="1416.83,-17.4502 1426.5,-13.1186 1416.24,-10.4751 1416.83,-17.4502"/>
</g>
<!-- Node31 -->
<g id="node82" class="node"><title>Node31</title>
<a xlink:href="types_8h.html" target="_top" xlink:title="types.h">
<polygon fill="white" stroke="black" points="1013.05,-123.5 1013.05,-144.5 1062.05,-144.5 1062.05,-123.5 1013.05,-123.5"/>
<text text-anchor="middle" x="1037.55" y="-131.5" font-family="Helvetica,sans-Serif" font-size="10.00">types.h</text>
</a>
</g>
<!-- Node30&#45;&gt;Node31 -->
<g id="edge102" class="edge"><title>Node30&#45;&gt;Node31</title>
<path fill="none" stroke="midnightblue" d="M1051.19,-195.376C1048.83,-184.741 1045.13,-168.095 1042.18,-154.82"/>
<polygon fill="midnightblue" stroke="midnightblue" points="1045.51,-153.67 1039.93,-144.667 1038.68,-155.189 1045.51,-153.67"/>
</g>
<!-- Node32 -->
<g id="node86" class="node"><title>Node32</title>
<polygon fill="white" stroke="#bfbfbf" points="1145.55,-123.5 1145.55,-144.5 1185.55,-144.5 1185.55,-123.5 1145.55,-123.5"/>
<text text-anchor="middle" x="1165.55" y="-131.5" font-family="Helvetica,sans-Serif" font-size="10.00">limits</text>
</g>
<!-- Node30&#45;&gt;Node32 -->
<g id="edge108" class="edge"><title>Node30&#45;&gt;Node32</title>
<path fill="none" stroke="midnightblue" d="M1070.08,-195.376C1088.61,-183.465 1118.87,-164.013 1140.35,-150.202"/>
<polygon fill="midnightblue" stroke="midnightblue" points="1142.44,-153.019 1148.96,-144.667 1138.66,-147.131 1142.44,-153.019"/>
</g>
<!-- Node33 -->
<g id="node88" class="node"><title>Node33</title>
<polygon fill="white" stroke="#bfbfbf" points="1079.05,-123.5 1079.05,-144.5 1128.05,-144.5 1128.05,-123.5 1079.05,-123.5"/>
<text text-anchor="middle" x="1103.55" y="-131.5" font-family="Helvetica,sans-Serif" font-size="10.00">istream</text>
</g>
<!-- Node30&#45;&gt;Node33 -->
<g id="edge110" class="edge"><title>Node30&#45;&gt;Node33</title>
<path fill="none" stroke="midnightblue" d="M1060.93,-195.376C1068.61,-184.316 1080.81,-166.753 1090.19,-153.243"/>
<polygon fill="midnightblue" stroke="midnightblue" points="1093.32,-154.878 1096.15,-144.667 1087.57,-150.885 1093.32,-154.878"/>
</g>
<!-- Node34&#45;&gt;Node4 -->
<g id="edge146" class="edge"><title>Node34&#45;&gt;Node4</title>
<path fill="none" stroke="midnightblue" d="M2006.93,-201.503C2130.07,-189.751 2452.27,-158.574 2474.55,-152 2508.49,-141.989 2512.51,-128.636 2545.55,-116 2638.8,-80.3452 2664.88,-78.6187 2762.55,-58 2860.56,-37.313 2978.28,-21.5127 3032.92,-14.6897"/>
<polygon fill="midnightblue" stroke="midnightblue" points="3033.48,-18.1464 3042.98,-13.446 3032.63,-11.1992 3033.48,-18.1464"/>
</g>
<!-- Node34&#45;&gt;Node5 -->
<g id="edge144" class="edge"><title>Node34&#45;&gt;Node5</title>
<path fill="none" stroke="midnightblue" d="M2006.97,-203.02C2127.4,-195.229 2442.78,-173.373 2545.55,-152 2587.76,-143.223 2702.96,-102.912 2761.85,-81.8697"/>
<polygon fill="midnightblue" stroke="midnightblue" points="2763.25,-85.0874 2771.49,-78.4211 2760.89,-78.4971 2763.25,-85.0874"/>
</g>
<!-- Node34&#45;&gt;Node9 -->
<g id="edge148" class="edge"><title>Node34&#45;&gt;Node9</title>
<path fill="none" stroke="midnightblue" d="M1994.19,-195.42C2028.63,-184.8 2082.92,-167.795 2129.55,-152 2174.29,-136.847 2185.06,-131.869 2229.55,-116 2267.43,-102.49 2311.44,-86.9747 2338.13,-77.5846"/>
<polygon fill="midnightblue" stroke="midnightblue" points="2339.51,-80.8074 2347.78,-74.188 2337.19,-74.2039 2339.51,-80.8074"/>
</g>
<!-- Node34&#45;&gt;Node10 -->
<g id="edge152" class="edge"><title>Node34&#45;&gt;Node10</title>
<path fill="none" stroke="midnightblue" d="M1912.47,-204.155C1777.37,-198.544 1395.05,-180.313 1346.55,-152 1322.26,-137.815 1305.98,-108.66 1297.25,-88.9646"/>
<polygon fill="midnightblue" stroke="midnightblue" points="1300.44,-87.5376 1293.36,-79.6569 1293.98,-90.2335 1300.44,-87.5376"/>
</g>
<!-- Node34&#45;&gt;Node21 -->
<g id="edge150" class="edge"><title>Node34&#45;&gt;Node21</title>
<path fill="none" stroke="midnightblue" d="M1912.22,-205C1772.8,-201.695 1351.72,-189.129 1004.55,-152 979.787,-149.351 952.192,-145.03 930.356,-141.286"/>
<polygon fill="midnightblue" stroke="midnightblue" points="930.901,-137.828 920.449,-139.559 929.699,-144.724 930.901,-137.828"/>
</g>
<!-- Node34&#45;&gt;Node35 -->
<g id="edge114" class="edge"><title>Node34&#45;&gt;Node35</title>
<path fill="none" stroke="midnightblue" d="M2006.66,-196.382C2063.3,-182.819 2146.53,-155.267 2110.55,-116 2079.27,-81.8484 1774.74,-72.4036 1639.13,-69.8814"/>
<polygon fill="midnightblue" stroke="midnightblue" points="1638.95,-66.3776 1628.89,-69.6981 1638.82,-73.3765 1638.95,-66.3776"/>
</g>
<!-- Node36 -->
<g id="node98" class="node"><title>Node36</title>
<a xlink:href="misc_8h.html" target="_top" xlink:title="base/std_ext/misc.h">
<polygon fill="white" stroke="black" points="1355.05,-123.5 1355.05,-144.5 1460.05,-144.5 1460.05,-123.5 1355.05,-123.5"/>
<text text-anchor="middle" x="1407.55" y="-131.5" font-family="Helvetica,sans-Serif" font-size="10.00">base/std_ext/misc.h</text>
</a>
</g>
<!-- Node34&#45;&gt;Node36 -->
<g id="edge124" class="edge"><title>Node34&#45;&gt;Node36</title>
<path fill="none" stroke="midnightblue" d="M1912.42,-203.603C1824.44,-198.515 1629.56,-184.343 1468.55,-152 1462.23,-150.73 1455.62,-149.102 1449.18,-147.347"/>
<polygon fill="midnightblue" stroke="midnightblue" points="1449.84,-143.896 1439.26,-144.515 1447.92,-150.627 1449.84,-143.896"/>
</g>
<!-- Node38 -->
<g id="node104" class="node"><title>Node38</title>
<polygon fill="white" stroke="#bfbfbf" points="1675.05,-123.5 1675.05,-144.5 1722.05,-144.5 1722.05,-123.5 1675.05,-123.5"/>
<text text-anchor="middle" x="1698.55" y="-131.5" font-family="Helvetica,sans-Serif" font-size="10.00">TFile.h</text>
</g>
<!-- Node34&#45;&gt;Node38 -->
<g id="edge132" class="edge"><title>Node34&#45;&gt;Node38</title>
<path fill="none" stroke="midnightblue" d="M1912.34,-198.86C1865.21,-190.815 1791.25,-175.68 1730.55,-152 1728.48,-151.191 1726.38,-150.267 1724.29,-149.275"/>
<polygon fill="midnightblue" stroke="midnightblue" points="1725.88,-146.156 1715.39,-144.635 1722.64,-152.362 1725.88,-146.156"/>
</g>
<!-- Node39 -->
<g id="node106" class="node"><title>Node39</title>
<polygon fill="white" stroke="#bfbfbf" points="1739.05,-123.5 1739.05,-144.5 1810.05,-144.5 1810.05,-123.5 1739.05,-123.5"/>
<text text-anchor="middle" x="1774.55" y="-131.5" font-family="Helvetica,sans-Serif" font-size="10.00">TDirectory.h</text>
</g>
<!-- Node34&#45;&gt;Node39 -->
<g id="edge134" class="edge"><title>Node34&#45;&gt;Node39</title>
<path fill="none" stroke="midnightblue" d="M1931.39,-195.428C1902.88,-184.675 1857.55,-167.441 1818.55,-152 1815.66,-150.852 1812.65,-149.651 1809.64,-148.437"/>
<polygon fill="midnightblue" stroke="midnightblue" points="1810.69,-145.085 1800.11,-144.568 1808.06,-151.571 1810.69,-145.085"/>
</g>
<!-- Node40 -->
<g id="node108" class="node"><title>Node40</title>
<polygon fill="white" stroke="#bfbfbf" points="1827.55,-123.5 1827.55,-144.5 1879.55,-144.5 1879.55,-123.5 1827.55,-123.5"/>
<text text-anchor="middle" x="1853.55" y="-131.5" font-family="Helvetica,sans-Serif" font-size="10.00">TError.h</text>
</g>
<!-- Node34&#45;&gt;Node40 -->
<g id="edge136" class="edge"><title>Node34&#45;&gt;Node40</title>
<path fill="none" stroke="midnightblue" d="M1943.91,-195.376C1926.46,-183.518 1898,-164.186 1877.68,-150.388"/>
<polygon fill="midnightblue" stroke="midnightblue" points="1879.5,-147.391 1869.26,-144.667 1875.56,-153.182 1879.5,-147.391"/>
</g>
<!-- Node41 -->
<g id="node110" class="node"><title>Node41</title>
<polygon fill="white" stroke="#bfbfbf" points="1897.05,-123.5 1897.05,-144.5 1944.05,-144.5 1944.05,-123.5 1897.05,-123.5"/>
<text text-anchor="middle" x="1920.55" y="-131.5" font-family="Helvetica,sans-Serif" font-size="10.00">TList.h</text>
</g>
<!-- Node34&#45;&gt;Node41 -->
<g id="edge138" class="edge"><title>Node34&#45;&gt;Node41</title>
<path fill="none" stroke="midnightblue" d="M1953.8,-195.376C1947.87,-184.422 1938.48,-167.09 1931.19,-153.634"/>
<polygon fill="midnightblue" stroke="midnightblue" points="1934.17,-151.793 1926.33,-144.667 1928.02,-155.127 1934.17,-151.793"/>
</g>
<!-- Node42 -->
<g id="node112" class="node"><title>Node42</title>
<polygon fill="white" stroke="#bfbfbf" points="1961.55,-123.5 1961.55,-144.5 2035.55,-144.5 2035.55,-123.5 1961.55,-123.5"/>
<text text-anchor="middle" x="1998.55" y="-131.5" font-family="Helvetica,sans-Serif" font-size="10.00">TCollection.h</text>
</g>
<!-- Node34&#45;&gt;Node42 -->
<g id="edge140" class="edge"><title>Node34&#45;&gt;Node42</title>
<path fill="none" stroke="midnightblue" d="M1965.31,-195.376C1971.24,-184.422 1980.63,-167.09 1987.92,-153.634"/>
<polygon fill="midnightblue" stroke="midnightblue" points="1991.09,-155.127 1992.78,-144.667 1984.94,-151.793 1991.09,-155.127"/>
</g>
<!-- Node43 -->
<g id="node114" class="node"><title>Node43</title>
<polygon fill="white" stroke="#bfbfbf" points="2053.55,-123.5 2053.55,-144.5 2101.55,-144.5 2101.55,-123.5 2053.55,-123.5"/>
<text text-anchor="middle" x="2077.55" y="-131.5" font-family="Helvetica,sans-Serif" font-size="10.00">TKey.h</text>
</g>
<!-- Node34&#45;&gt;Node43 -->
<g id="edge142" class="edge"><title>Node34&#45;&gt;Node43</title>
<path fill="none" stroke="midnightblue" d="M1976.97,-195.376C1996.57,-183.412 2028.65,-163.839 2051.3,-150.018"/>
<polygon fill="midnightblue" stroke="midnightblue" points="2053.36,-152.864 2060.07,-144.667 2049.71,-146.888 2053.36,-152.864"/>
</g>
<!-- Node35&#45;&gt;Node4 -->
<g id="edge116" class="edge"><title>Node35&#45;&gt;Node4</title>
<path fill="none" stroke="midnightblue" d="M1628.66,-59.6099C1633.35,-58.9898 1638.03,-58.4388 1642.55,-58 1925.75,-30.5235 2851.3,-14.4184 3032.59,-11.4868"/>
<polygon fill="midnightblue" stroke="midnightblue" points="3032.81,-14.9838 3042.76,-11.3237 3032.7,-7.98468 3032.81,-14.9838"/>
</g>
<!-- Node35&#45;&gt;Node8 -->
<g id="edge118" class="edge"><title>Node35&#45;&gt;Node8</title>
<path fill="none" stroke="midnightblue" d="M1628.69,-59.8054C1633.37,-59.1429 1638.04,-58.5287 1642.55,-58 1873.02,-31.0019 2151.82,-16.9359 2250.12,-12.5397"/>
<polygon fill="midnightblue" stroke="midnightblue" points="2250.57,-16.0235 2260.41,-12.0859 2250.26,-9.03031 2250.57,-16.0235"/>
</g>
<!-- Node35&#45;&gt;Node15 -->
<g id="edge122" class="edge"><title>Node35&#45;&gt;Node15</title>
<path fill="none" stroke="midnightblue" d="M1520.38,-63.1434C1503.76,-61.4099 1485.41,-59.5598 1468.55,-58 1260.68,-38.7652 1010.36,-19.8553 922.72,-13.3629"/>
<polygon fill="midnightblue" stroke="midnightblue" points="922.85,-9.86303 912.619,-12.6162 922.334,-16.844 922.85,-9.86303"/>
</g>
<!-- Node35&#45;&gt;Node27 -->
<g id="edge120" class="edge"><title>Node35&#45;&gt;Node27</title>
<path fill="none" stroke="midnightblue" d="M1552.82,-58.4966C1534.08,-49.4378 1506.79,-36.2462 1485.72,-26.0628"/>
<polygon fill="midnightblue" stroke="midnightblue" points="1487.06,-22.8217 1476.53,-21.6212 1484.01,-29.1242 1487.06,-22.8217"/>
</g>
<!-- Node36&#45;&gt;Node10 -->
<g id="edge128" class="edge"><title>Node36&#45;&gt;Node10</title>
<path fill="none" stroke="midnightblue" d="M1388.33,-123.412C1369.13,-112.836 1339.41,-96.4645 1317.59,-84.4408"/>
<polygon fill="midnightblue" stroke="midnightblue" points="1319.22,-81.3428 1308.77,-79.5835 1315.84,-87.4741 1319.22,-81.3428"/>
</g>
<!-- Node36&#45;&gt;Node27 -->
<g id="edge126" class="edge"><title>Node36&#45;&gt;Node27</title>
<path fill="none" stroke="midnightblue" d="M1411.73,-123.085C1419.62,-102.427 1436.85,-57.3368 1446.88,-31.0765"/>
<polygon fill="midnightblue" stroke="midnightblue" points="1450.16,-32.3059 1450.46,-21.7153 1443.62,-29.8073 1450.16,-32.3059"/>
</g>
<!-- Node37 -->
<g id="node102" class="node"><title>Node37</title>
<polygon fill="white" stroke="#bfbfbf" points="1336.05,-58.5 1336.05,-79.5 1389.05,-79.5 1389.05,-58.5 1336.05,-58.5"/>
<text text-anchor="middle" x="1362.55" y="-66.5" font-family="Helvetica,sans-Serif" font-size="10.00">cxxabi.h</text>
</g>
<!-- Node36&#45;&gt;Node37 -->
<g id="edge130" class="edge"><title>Node36&#45;&gt;Node37</title>
<path fill="none" stroke="midnightblue" d="M1400.12,-123.267C1393.51,-113.707 1383.67,-99.4964 1375.72,-88.0152"/>
<polygon fill="midnightblue" stroke="midnightblue" points="1378.42,-85.7634 1369.85,-79.5337 1372.66,-89.7479 1378.42,-85.7634"/>
</g>
<!-- Node44&#45;&gt;Node9 -->
<g id="edge176" class="edge"><title>Node44&#45;&gt;Node9</title>
<path fill="none" stroke="midnightblue" d="M640.158,-202.14C673.791,-198.034 729.438,-191.639 777.555,-188 957.883,-174.36 1415.04,-195.569 1590.55,-152 1626.83,-142.995 1630.39,-125.424 1666.55,-116 1797.29,-81.9349 2228.78,-71.5482 2337.51,-69.4413"/>
<polygon fill="midnightblue" stroke="midnightblue" points="2337.88,-72.935 2347.81,-69.248 2337.75,-65.9363 2337.88,-72.935"/>
</g>
<!-- Node44&#45;&gt;Node14 -->
<g id="edge158" class="edge"><title>Node44&#45;&gt;Node14</title>
<path fill="none" stroke="midnightblue" d="M578.867,-205.56C462.983,-203.584 56.6277,-193.711 18.5545,-152 7.76782,-140.183 9.13238,-128.931 18.5545,-116 29.8062,-100.558 74.3231,-87.6589 111.274,-79.3047"/>
<polygon fill="midnightblue" stroke="midnightblue" points="112.443,-82.6316 121.461,-77.0706 110.944,-75.794 112.443,-82.6316"/>
</g>
<!-- Node44&#45;&gt;Node20 -->
<g id="edge172" class="edge"><title>Node44&#45;&gt;Node20</title>
<path fill="none" stroke="midnightblue" d="M612.358,-195.376C615.193,-184.635 619.645,-167.761 623.165,-154.422"/>
<polygon fill="midnightblue" stroke="midnightblue" points="626.572,-155.23 625.74,-144.667 619.804,-153.443 626.572,-155.23"/>
</g>
<!-- Node44&#45;&gt;Node21 -->
<g id="edge174" class="edge"><title>Node44&#45;&gt;Node21</title>
<path fill="none" stroke="midnightblue" d="M640.161,-198.158C691.315,-185.051 794.138,-158.705 850.811,-144.183"/>
<polygon fill="midnightblue" stroke="midnightblue" points="852.015,-147.488 860.834,-141.615 850.278,-140.707 852.015,-147.488"/>
</g>
<!-- Node44&#45;&gt;Node22 -->
<g id="edge168" class="edge"><title>Node44&#45;&gt;Node22</title>
<path fill="none" stroke="midnightblue" d="M634.505,-195.352C659.77,-184.54 699.946,-167.261 734.555,-152 737.017,-150.914 739.562,-149.785 742.12,-148.645"/>
<polygon fill="midnightblue" stroke="midnightblue" points="743.617,-151.81 751.314,-144.529 740.757,-145.421 743.617,-151.81"/>
</g>
<!-- Node45 -->
<g id="node123" class="node"><title>Node45</title>
<polygon fill="white" stroke="#bfbfbf" points="669.555,-123.5 669.555,-144.5 725.555,-144.5 725.555,-123.5 669.555,-123.5"/>
<text text-anchor="middle" x="697.555" y="-131.5" font-family="Helvetica,sans-Serif" font-size="10.00">Rtypes.h</text>
</g>
<!-- Node44&#45;&gt;Node45 -->
<g id="edge156" class="edge"><title>Node44&#45;&gt;Node45</title>
<path fill="none" stroke="midnightblue" d="M622.539,-195.376C636.707,-183.784 659.605,-165.05 676.381,-151.324"/>
<polygon fill="midnightblue" stroke="midnightblue" points="678.993,-153.709 684.517,-144.667 674.561,-148.291 678.993,-153.709"/>
</g>
<!-- Node46 -->
<g id="node126" class="node"><title>Node46</title>
<a xlink:href="time_8h.html" target="_top" xlink:title="base/std_ext/time.h">
<polygon fill="white" stroke="black" points="485.055,-123.5 485.055,-144.5 588.055,-144.5 588.055,-123.5 485.055,-123.5"/>
<text text-anchor="middle" x="536.555" y="-131.5" font-family="Helvetica,sans-Serif" font-size="10.00">base/std_ext/time.h</text>
</a>
</g>
<!-- Node44&#45;&gt;Node46 -->
<g id="edge160" class="edge"><title>Node44&#45;&gt;Node46</title>
<path fill="none" stroke="midnightblue" d="M598.783,-195.376C587.138,-183.89 568.383,-165.393 554.503,-151.703"/>
<polygon fill="midnightblue" stroke="midnightblue" points="556.948,-149.198 547.37,-144.667 552.032,-154.181 556.948,-149.198"/>
</g>
<!-- Node48 -->
<g id="node131" class="node"><title>Node48</title>
<polygon fill="white" stroke="#bfbfbf" points="432.055,-58.5 432.055,-79.5 473.055,-79.5 473.055,-58.5 432.055,-58.5"/>
<text text-anchor="middle" x="452.555" y="-66.5" font-family="Helvetica,sans-Serif" font-size="10.00">ctime</text>
</g>
<!-- Node44&#45;&gt;Node48 -->
<g id="edge180" class="edge"><title>Node44&#45;&gt;Node48</title>
<path fill="none" stroke="midnightblue" d="M579.014,-201.469C548.807,-195.398 503.326,-181.717 476.555,-152 461.017,-134.753 455.494,-108.026 453.556,-89.584"/>
<polygon fill="midnightblue" stroke="midnightblue" points="457.042,-89.2682 452.768,-79.5739 450.064,-89.8179 457.042,-89.2682"/>
</g>
<!-- Node49 -->
<g id="node134" class="node"><title>Node49</title>
<polygon fill="white" stroke="#bfbfbf" points="27.5545,-123.5 27.5545,-144.5 65.5545,-144.5 65.5545,-123.5 27.5545,-123.5"/>
<text text-anchor="middle" x="46.5545" y="-131.5" font-family="Helvetica,sans-Serif" font-size="10.00">tuple</text>
</g>
<!-- Node44&#45;&gt;Node49 -->
<g id="edge170" class="edge"><title>Node44&#45;&gt;Node49</title>
<path fill="none" stroke="midnightblue" d="M579.041,-204.79C480.077,-200.577 168.969,-184.97 74.5545,-152 72.6723,-151.343 70.7888,-150.536 68.9386,-149.631"/>
<polygon fill="midnightblue" stroke="midnightblue" points="70.5348,-146.511 60.1252,-144.539 67.0327,-152.572 70.5348,-146.511"/>
</g>
<!-- Node50 -->
<g id="node139" class="node"><title>Node50</title>
<polygon fill="white" stroke="#bfbfbf" points="83.5545,-123.5 83.5545,-144.5 133.555,-144.5 133.555,-123.5 83.5545,-123.5"/>
<text text-anchor="middle" x="108.555" y="-131.5" font-family="Helvetica,sans-Serif" font-size="10.00">iomanip</text>
</g>
<!-- Node44&#45;&gt;Node50 -->
<g id="edge178" class="edge"><title>Node44&#45;&gt;Node50</title>
<path fill="none" stroke="midnightblue" d="M579.032,-203.696C489.622,-196.748 229.466,-175.057 147.555,-152 144.324,-151.091 141.025,-149.945 137.78,-148.674"/>
<polygon fill="midnightblue" stroke="midnightblue" points="138.902,-145.346 128.334,-144.596 136.128,-151.773 138.902,-145.346"/>
</g>
<!-- Node46&#45;&gt;Node35 -->
<g id="edge162" class="edge"><title>Node46&#45;&gt;Node35</title>
<path fill="none" stroke="midnightblue" d="M566.425,-123.46C575.938,-120.531 586.583,-117.693 596.555,-116 947.886,-56.3478 1041.7,-99.0527 1397.55,-80 1434.89,-78.001 1476.63,-75.4233 1510.2,-73.2657"/>
<polygon fill="midnightblue" stroke="midnightblue" points="1510.59,-76.748 1520.34,-72.6107 1510.14,-69.7626 1510.59,-76.748"/>
</g>
<!-- Node47 -->
<g id="node129" class="node"><title>Node47</title>
<polygon fill="white" stroke="#bfbfbf" points="513.555,-58.5 513.555,-79.5 559.555,-79.5 559.555,-58.5 513.555,-58.5"/>
<text text-anchor="middle" x="536.555" y="-66.5" font-family="Helvetica,sans-Serif" font-size="10.00">cstring</text>
</g>
<!-- Node46&#45;&gt;Node47 -->
<g id="edge164" class="edge"><title>Node46&#45;&gt;Node47</title>
<path fill="none" stroke="midnightblue" d="M536.555,-123.267C536.555,-114.18 536.555,-100.892 536.555,-89.7395"/>
<polygon fill="midnightblue" stroke="midnightblue" points="540.055,-89.5337 536.555,-79.5337 533.055,-89.5337 540.055,-89.5337"/>
</g>
<!-- Node46&#45;&gt;Node48 -->
<g id="edge166" class="edge"><title>Node46&#45;&gt;Node48</title>
<path fill="none" stroke="midnightblue" d="M522.684,-123.267C509.473,-113.044 489.391,-97.5043 474.097,-85.6699"/>
<polygon fill="midnightblue" stroke="midnightblue" points="476.218,-82.8855 466.167,-79.5337 471.934,-88.4216 476.218,-82.8855"/>
</g>
<!-- Node51&#45;&gt;Node5 -->
<g id="edge212" class="edge"><title>Node51&#45;&gt;Node5</title>
<path fill="none" stroke="midnightblue" d="M2346.05,-448.483C2406.08,-437.91 2489.42,-421.811 2501.55,-412 2586.49,-343.35 2517.58,-256.597 2602.55,-188 2661.97,-140.035 2713.84,-203.133 2770.55,-152 2788.15,-136.139 2794.32,-108.7 2796.46,-89.7375"/>
<polygon fill="midnightblue" stroke="midnightblue" points="2799.96,-89.9634 2797.31,-79.7035 2792.98,-89.372 2799.96,-89.9634"/>
</g>
<!-- Node51&#45;&gt;Node6 -->
<g id="edge216" class="edge"><title>Node51&#45;&gt;Node6</title>
<path fill="none" stroke="midnightblue" d="M2344.79,-448.458C2391.95,-439.5 2452.51,-425.914 2473.55,-412 2547.37,-363.204 2599.61,-266.918 2619.58,-225.594"/>
<polygon fill="midnightblue" stroke="midnightblue" points="2622.75,-227.086 2623.86,-216.55 2616.42,-224.095 2622.75,-227.086"/>
</g>
<!-- Node51&#45;&gt;Node9 -->
<g id="edge214" class="edge"><title>Node51&#45;&gt;Node9</title>
<path fill="none" stroke="midnightblue" d="M2289.18,-448.466C2299.3,-428.493 2319.55,-383.486 2319.55,-343 2319.55,-343 2319.55,-343 2319.55,-206 2319.55,-165.118 2324.92,-154.54 2338.55,-116 2341.85,-106.688 2346.63,-96.8834 2351.05,-88.6526"/>
<polygon fill="midnightblue" stroke="midnightblue" points="2354.15,-90.2744 2355.98,-79.8373 2348.04,-86.8607 2354.15,-90.2744"/>
</g>
<!-- Node51&#45;&gt;Node12 -->
<g id="edge208" class="edge"><title>Node51&#45;&gt;Node12</title>
<path fill="none" stroke="midnightblue" d="M2305.83,-448.497C2325.13,-439.397 2353.27,-426.127 2374.9,-415.925"/>
<polygon fill="midnightblue" stroke="midnightblue" points="2376.48,-419.052 2384.03,-411.621 2373.49,-412.721 2376.48,-419.052"/>
</g>
<!-- Node51&#45;&gt;Node13 -->
<g id="edge210" class="edge"><title>Node51&#45;&gt;Node13</title>
<path fill="none" stroke="midnightblue" d="M2217.35,-457.82C1944.21,-452.821 917.94,-432.692 891.555,-412 834.121,-366.959 830.679,-269.741 832.186,-226.946"/>
<polygon fill="midnightblue" stroke="midnightblue" points="835.687,-227.01 832.674,-216.853 828.695,-226.672 835.687,-227.01"/>
</g>
<!-- Node51&#45;&gt;Node15 -->
<g id="edge218" class="edge"><title>Node51&#45;&gt;Node15</title>
<path fill="none" stroke="midnightblue" d="M2217.23,-458.207C1926.78,-454.585 778.295,-438.628 706.555,-412 513.749,-340.437 270.369,-210.316 408.555,-58 438.768,-24.6967 755.08,-14.2324 858.228,-11.6925"/>
<polygon fill="midnightblue" stroke="midnightblue" points="858.443,-15.1885 868.357,-11.452 858.276,-8.1905 858.443,-15.1885"/>
</g>
<!-- Node51&#45;&gt;Node20 -->
<g id="edge220" class="edge"><title>Node51&#45;&gt;Node20</title>
<path fill="none" stroke="midnightblue" d="M2217.49,-458.422C1932.18,-455.742 816.956,-443.296 749.555,-412 712.161,-394.637 687.555,-384.228 687.555,-343 687.555,-343 687.555,-343 687.555,-278 687.555,-230.148 659.313,-179.581 641.908,-152.961"/>
<polygon fill="midnightblue" stroke="midnightblue" points="644.757,-150.926 636.268,-144.588 638.952,-154.837 644.757,-150.926"/>
</g>
<!-- Node51&#45;&gt;Node32 -->
<g id="edge222" class="edge"><title>Node51&#45;&gt;Node32</title>
<path fill="none" stroke="midnightblue" d="M2217.2,-457.79C1958.48,-452.917 1030.7,-433.937 1009.55,-412 1002.77,-404.96 1006.91,-399.414 1009.55,-390 1024.09,-338.227 1116.8,-203.239 1152.01,-153.108"/>
<polygon fill="midnightblue" stroke="midnightblue" points="1154.99,-154.965 1157.89,-144.774 1149.26,-150.932 1154.99,-154.965"/>
</g>
<!-- Node52 -->
<g id="node153" class="node"><title>Node52</title>
<a xlink:href="_unpacker_8h.html" target="_top" xlink:title="Unpacker.h">
<polygon fill="white" stroke="black" points="3013.05,-332.5 3013.05,-353.5 3080.05,-353.5 3080.05,-332.5 3013.05,-332.5"/>
<text text-anchor="middle" x="3046.55" y="-340.5" font-family="Helvetica,sans-Serif" font-size="10.00">Unpacker.h</text>
</a>
</g>
<!-- Node51&#45;&gt;Node52 -->
<g id="edge202" class="edge"><title>Node51&#45;&gt;Node52</title>
<path fill="none" stroke="midnightblue" d="M2349.6,-448.959C2501.89,-425.806 2874.42,-369.169 3002.48,-349.701"/>
<polygon fill="midnightblue" stroke="midnightblue" points="3003.33,-353.112 3012.69,-348.149 3002.27,-346.192 3003.33,-353.112"/>
</g>
<!-- Node52&#45;&gt;Node4 -->
<g id="edge204" class="edge"><title>Node52&#45;&gt;Node4</title>
<path fill="none" stroke="midnightblue" d="M3051.85,-332.421C3070.12,-294.501 3127.63,-162.115 3095.55,-58 3092.4,-47.7466 3086.15,-37.7278 3080.01,-29.5925"/>
<polygon fill="midnightblue" stroke="midnightblue" points="3082.55,-27.1612 3073.54,-21.5822 3077.1,-31.5603 3082.55,-27.1612"/>
</g>
<!-- Node52&#45;&gt;Node5 -->
<g id="edge206" class="edge"><title>Node52&#45;&gt;Node5</title>
<path fill="none" stroke="midnightblue" d="M3047,-332.377C3047.9,-296.341 3045.76,-177.577 2982.55,-116 2961.55,-95.5325 2881.14,-80.8986 2833.52,-73.8166"/>
<polygon fill="midnightblue" stroke="midnightblue" points="2834.01,-70.3501 2823.61,-72.3804 2833,-77.2778 2834.01,-70.3501"/>
</g>
<!-- Node53&#45;&gt;Node5 -->
<g id="edge234" class="edge"><title>Node53&#45;&gt;Node5</title>
<path fill="none" stroke="midnightblue" d="M2515.76,-448.869C2569.57,-440.456 2636.88,-427.402 2660.55,-412 2780.3,-334.09 2805.39,-287.863 2849.55,-152 2854.5,-136.784 2856.05,-130.623 2849.55,-116 2844.15,-103.836 2833.87,-93.4865 2823.87,-85.6217"/>
<polygon fill="midnightblue" stroke="midnightblue" points="2825.79,-82.6872 2815.65,-79.6143 2821.66,-88.3395 2825.79,-82.6872"/>
</g>
<!-- Node53&#45;&gt;Node6 -->
<g id="edge238" class="edge"><title>Node53&#45;&gt;Node6</title>
<path fill="none" stroke="midnightblue" d="M2508.45,-448.443C2531.89,-441.628 2556.57,-430.421 2573.55,-412 2622.41,-359.014 2628.76,-267.471 2629.01,-226.666"/>
<polygon fill="midnightblue" stroke="midnightblue" points="2632.51,-226.555 2628.94,-216.577 2625.51,-226.599 2632.51,-226.555"/>
</g>
<!-- Node53&#45;&gt;Node9 -->
<g id="edge236" class="edge"><title>Node53&#45;&gt;Node9</title>
<path fill="none" stroke="midnightblue" d="M2515.6,-452.596C2583.5,-442.18 2673.55,-414.826 2673.55,-343 2673.55,-343 2673.55,-343 2673.55,-278 2673.55,-237.118 2680.2,-219.84 2654.55,-188 2585.51,-102.263 2444.76,-77.7944 2387.56,-71.2423"/>
<polygon fill="midnightblue" stroke="midnightblue" points="2387.59,-67.7264 2377.28,-70.1579 2386.86,-74.6877 2387.59,-67.7264"/>
</g>
<!-- Node53&#45;&gt;Node12 -->
<g id="edge228" class="edge"><title>Node53&#45;&gt;Node12</title>
<path fill="none" stroke="midnightblue" d="M2435.13,-448.362C2430.4,-440.513 2423.82,-429.616 2418.17,-420.253"/>
<polygon fill="midnightblue" stroke="midnightblue" points="2421.1,-418.324 2412.93,-411.571 2415.1,-421.941 2421.1,-418.324"/>
</g>
<!-- Node53&#45;&gt;Node13 -->
<g id="edge230" class="edge"><title>Node53&#45;&gt;Node13</title>
<path fill="none" stroke="midnightblue" d="M2367.38,-448.775C2364.4,-448.489 2361.45,-448.229 2358.55,-448 2281.71,-441.928 1039.08,-449.175 971.555,-412 896.812,-370.852 855.084,-269.937 840.051,-226.467"/>
<polygon fill="midnightblue" stroke="midnightblue" points="843.286,-225.103 836.801,-216.725 836.646,-227.318 843.286,-225.103"/>
</g>
<!-- Node53&#45;&gt;Node15 -->
<g id="edge240" class="edge"><title>Node53&#45;&gt;Node15</title>
<path fill="none" stroke="midnightblue" d="M2367.38,-448.791C2364.4,-448.501 2361.45,-448.235 2358.55,-448 2227.04,-437.318 1297.46,-451.49 1171.55,-412 1042.5,-371.521 947.555,-341.254 947.555,-206 947.555,-206 947.555,-206 947.555,-134 947.555,-94.107 922.566,-53.1193 905.68,-29.9751"/>
<polygon fill="midnightblue" stroke="midnightblue" points="908.282,-27.6137 899.461,-21.7459 902.698,-31.8342 908.282,-27.6137"/>
</g>
<!-- Node53&#45;&gt;Node20 -->
<g id="edge242" class="edge"><title>Node53&#45;&gt;Node20</title>
<path fill="none" stroke="midnightblue" d="M2367.38,-448.773C2364.4,-448.488 2361.45,-448.228 2358.55,-448 2201.1,-435.607 1084.29,-470.434 937.555,-412 919.432,-404.783 711.434,-211.387 647.279,-151.503"/>
<polygon fill="midnightblue" stroke="midnightblue" points="649.56,-148.845 639.863,-144.577 644.783,-153.961 649.56,-148.845"/>
</g>
<!-- Node53&#45;&gt;Node32 -->
<g id="edge244" class="edge"><title>Node53&#45;&gt;Node32</title>
<path fill="none" stroke="midnightblue" d="M2367.36,-449.001C2364.39,-448.653 2361.44,-448.318 2358.55,-448 2225.62,-433.378 1159.55,-476.732 1159.55,-343 1159.55,-343 1159.55,-343 1159.55,-278 1159.55,-234.236 1162.36,-183.056 1164.13,-155.022"/>
<polygon fill="midnightblue" stroke="midnightblue" points="1167.64,-155.039 1164.79,-144.832 1160.65,-154.583 1167.64,-155.039"/>
</g>
<!-- Node53&#45;&gt;Node45 -->
<g id="edge232" class="edge"><title>Node53&#45;&gt;Node45</title>
<path fill="none" stroke="midnightblue" d="M2367.38,-448.797C2364.4,-448.505 2361.45,-448.238 2358.55,-448 2233.47,-437.742 1349.19,-449.954 1229.55,-412 1057.07,-357.277 1055.85,-259.365 889.555,-188 824.564,-160.109 801.217,-175.618 734.555,-152 731.84,-151.038 729.063,-149.933 726.311,-148.754"/>
<polygon fill="midnightblue" stroke="midnightblue" points="727.721,-145.55 717.173,-144.557 724.799,-151.911 727.721,-145.55"/>
</g>
<!-- Node53&#45;&gt;Node52 -->
<g id="edge226" class="edge"><title>Node53&#45;&gt;Node52</title>
<path fill="none" stroke="midnightblue" d="M2515.87,-453.999C2624.44,-446.216 2820.96,-430.197 2889.55,-412 2936.76,-399.478 2987.93,-374.674 3018.6,-358.469"/>
<polygon fill="midnightblue" stroke="midnightblue" points="3020.27,-361.545 3027.44,-353.739 3016.97,-355.374 3020.27,-361.545"/>
</g>
<!-- Node54&#45;&gt;Node4 -->
<g id="edge256" class="edge"><title>Node54&#45;&gt;Node4</title>
<path fill="none" stroke="midnightblue" d="M3115.6,-390.473C3172.65,-375.997 3253.55,-343.858 3253.55,-278 3253.55,-278 3253.55,-278 3253.55,-134 3253.55,-59.0328 3148.03,-27.4907 3094.27,-16.2849"/>
<polygon fill="midnightblue" stroke="midnightblue" points="3094.74,-12.8106 3084.25,-14.308 3093.38,-19.6781 3094.74,-12.8106"/>
</g>
<!-- Node54&#45;&gt;Node5 -->
<g id="edge258" class="edge"><title>Node54&#45;&gt;Node5</title>
<path fill="none" stroke="midnightblue" d="M3069.31,-390.199C3076.05,-381.144 3084.82,-367.553 3088.55,-354 3091.15,-344.573 3089.94,-341.68 3088.55,-332 3074.1,-230.808 3090.49,-178.441 3009.55,-116 2982.41,-95.0584 2886.83,-80.15 2833.76,-73.2722"/>
<polygon fill="midnightblue" stroke="midnightblue" points="2834.1,-69.7881 2823.74,-72.0044 2833.22,-76.7327 2834.1,-69.7881"/>
</g>
<!-- Node54&#45;&gt;Node9 -->
<g id="edge254" class="edge"><title>Node54&#45;&gt;Node9</title>
<path fill="none" stroke="midnightblue" d="M2994.96,-395.564C2929.8,-389.003 2835.52,-376.015 2806.55,-354 2741.2,-304.325 2779.04,-250.277 2725.55,-188 2688.93,-145.352 2673.5,-137.505 2621.55,-116 2540.25,-82.3375 2434.72,-72.7241 2387.41,-70.0267"/>
<polygon fill="midnightblue" stroke="midnightblue" points="2387.36,-66.5197 2377.19,-69.5024 2387,-73.5105 2387.36,-66.5197"/>
</g>
<!-- Node54&#45;&gt;Node28 -->
<g id="edge252" class="edge"><title>Node54&#45;&gt;Node28</title>
<path fill="none" stroke="midnightblue" d="M2994.87,-397.524C2801.16,-387.273 2233.32,-357.223 2034.38,-346.695"/>
<polygon fill="midnightblue" stroke="midnightblue" points="2034.51,-343.197 2024.34,-346.164 2034.14,-350.188 2034.51,-343.197"/>
</g>
<!-- Node56 -->
<g id="node190" class="node"><title>Node56</title>
<polygon fill="white" stroke="#bfbfbf" points="3231.05,-448.5 3231.05,-469.5 3346.05,-469.5 3346.05,-448.5 3231.05,-448.5"/>
<text text-anchor="middle" x="3288.55" y="-456.5" font-family="Helvetica,sans-Serif" font-size="10.00">detail/easylogging++.h</text>
</g>
<!-- Node55&#45;&gt;Node56 -->
<g id="edge268" class="edge"><title>Node55&#45;&gt;Node56</title>
<path fill="none" stroke="midnightblue" d="M3281.21,-506.362C3282.36,-498.922 3283.94,-488.743 3285.34,-479.728"/>
<polygon fill="midnightblue" stroke="midnightblue" points="3288.84,-479.989 3286.91,-469.571 3281.92,-478.916 3288.84,-479.989"/>
</g>
</g>
</svg>
