<?xml version="1.0" encoding="UTF-8" standalone="no"?>
<!DOCTYPE svg PUBLIC "-//W3C//DTD SVG 1.1//EN"
 "http://www.w3.org/Graphics/SVG/1.1/DTD/svg11.dtd">
<!-- Generated by graphviz version 2.26.3 (20100126.1600)
 -->
<!-- Title: src/expconfig/setups/Setup.h Pages: 1 -->
<svg width="1100pt" height="188pt"
 viewBox="0.00 0.00 1100.00 188.00" xmlns="http://www.w3.org/2000/svg" xmlns:xlink="http://www.w3.org/1999/xlink">
<g id="graph1" class="graph" transform="scale(1 1) rotate(0) translate(4 184)">
<title>src/expconfig/setups/Setup.h</title>
<polygon fill="white" stroke="white" points="-4,5 -4,-184 1097,-184 1097,5 -4,5"/>
<!-- Node1 -->
<g id="node1" class="node"><title>Node1</title>
<polygon fill="#bfbfbf" stroke="black" points="501.5,-145 501.5,-179 608.5,-179 608.5,-145 501.5,-145"/>
<text text-anchor="start" x="509.5" y="-166" font-family="Helvetica,sans-Serif" font-size="10.00">src/expconfig/setups</text>
<text text-anchor="middle" x="555" y="-153" font-family="Helvetica,sans-Serif" font-size="10.00">/Setup.h</text>
</g>
<!-- Node2 -->
<g id="node3" class="node"><title>Node2</title>
<a xlink:href="_ant-rawdump_8cc.html" target="_top" xlink:title="progs/Ant&#45;rawdump.cc">
<polygon fill="white" stroke="black" points="-0.5,-79.5 -0.5,-100.5 114.5,-100.5 114.5,-79.5 -0.5,-79.5"/>
<text text-anchor="middle" x="57" y="-87.5" font-family="Helvetica,sans-Serif" font-size="10.00">progs/Ant&#45;rawdump.cc</text>
</a>
</g>
<!-- Node1&#45;&gt;Node2 -->
<g id="edge2" class="edge"><title>Node1&#45;&gt;Node2</title>
<path fill="none" stroke="midnightblue" d="M491.434,-156.898C406.793,-149.458 252.676,-133.653 123,-108 112.864,-105.995 101.994,-103.274 92.0607,-100.555"/>
<polygon fill="midnightblue" stroke="midnightblue" points="491.14,-160.386 501.406,-157.764 491.746,-153.412 491.14,-160.386"/>
</g>
<!-- Node3 -->
<g id="node5" class="node"><title>Node3</title>
<a xlink:href="_exp_config_8cc.html" target="_top" xlink:title="src/expconfig/ExpConfig.cc">
<polygon fill="white" stroke="black" points="131.5,-79.5 131.5,-100.5 268.5,-100.5 268.5,-79.5 131.5,-79.5"/>
<text text-anchor="middle" x="200" y="-87.5" font-family="Helvetica,sans-Serif" font-size="10.00">src/expconfig/ExpConfig.cc</text>
</a>
</g>
<!-- Node1&#45;&gt;Node3 -->
<g id="edge4" class="edge"><title>Node1&#45;&gt;Node3</title>
<path fill="none" stroke="midnightblue" d="M491.472,-150.367C435.035,-139.864 350.362,-123.694 277,-108 266.26,-105.702 254.713,-103.083 243.912,-100.567"/>
<polygon fill="midnightblue" stroke="midnightblue" points="490.853,-153.812 501.324,-152.196 492.131,-146.929 490.853,-153.812"/>
</g>
<!-- Node4 -->
<g id="node7" class="node"><title>Node4</title>
<a xlink:href="_setup_8cc.html" target="_top" xlink:title="src/expconfig/setups\l/Setup.cc">
<polygon fill="white" stroke="black" points="285.5,-73 285.5,-107 392.5,-107 392.5,-73 285.5,-73"/>
<text text-anchor="start" x="293.5" y="-94" font-family="Helvetica,sans-Serif" font-size="10.00">src/expconfig/setups</text>
<text text-anchor="middle" x="339" y="-81" font-family="Helvetica,sans-Serif" font-size="10.00">/Setup.cc</text>
</a>
</g>
<!-- Node1&#45;&gt;Node4 -->
<g id="edge6" class="edge"><title>Node1&#45;&gt;Node4</title>
<path fill="none" stroke="midnightblue" d="M494.321,-141.774C461.504,-130.835 421.422,-117.474 390.195,-107.065"/>
<polygon fill="midnightblue" stroke="midnightblue" points="493.217,-145.095 503.811,-144.937 495.431,-138.454 493.217,-145.095"/>
</g>
<!-- Node5 -->
<g id="node9" class="node"><title>Node5</title>
<a xlink:href="_setup__2012__12___compton_8cc.html" target="_top" xlink:title="src/expconfig/setups\l/Setup_2012_12_Compton.cc">
<polygon fill="white" stroke="black" points="410,-73 410,-107 556,-107 556,-73 410,-73"/>
<text text-anchor="start" x="418" y="-94" font-family="Helvetica,sans-Serif" font-size="10.00">src/expconfig/setups</text>
<text text-anchor="middle" x="483" y="-81" font-family="Helvetica,sans-Serif" font-size="10.00">/Setup_2012_12_Compton.cc</text>
</a>
</g>
<!-- Node1&#45;&gt;Node5 -->
<g id="edge8" class="edge"><title>Node1&#45;&gt;Node5</title>
<path fill="none" stroke="midnightblue" d="M530.671,-137.671C520.755,-127.755 509.515,-116.515 500.441,-107.441"/>
<polygon fill="midnightblue" stroke="midnightblue" points="528.391,-140.341 537.937,-144.937 533.341,-135.391 528.391,-140.341"/>
</g>
<!-- Node6 -->
<g id="node11" class="node"><title>Node6</title>
<a xlink:href="_setup__2014___e_p_t_8h.html" target="_top" xlink:title="src/expconfig/setups\l/Setup_2014_EPT.h">
<polygon fill="white" stroke="black" points="573.5,-73 573.5,-107 680.5,-107 680.5,-73 573.5,-73"/>
<text text-anchor="start" x="581.5" y="-94" font-family="Helvetica,sans-Serif" font-size="10.00">src/expconfig/setups</text>
<text text-anchor="middle" x="627" y="-81" font-family="Helvetica,sans-Serif" font-size="10.00">/Setup_2014_EPT.h</text>
</a>
</g>
<!-- Node1&#45;&gt;Node6 -->
<g id="edge10" class="edge"><title>Node1&#45;&gt;Node6</title>
<path fill="none" stroke="midnightblue" d="M579.329,-137.671C589.245,-127.755 600.485,-116.515 609.559,-107.441"/>
<polygon fill="midnightblue" stroke="midnightblue" points="576.659,-135.391 572.063,-144.937 581.609,-140.341 576.659,-135.391"/>
</g>
<!-- Node11 -->
<g id="node21" class="node"><title>Node11</title>
<a xlink:href="_setup__2015__01___pion_8cc.html" target="_top" xlink:title="src/expconfig/setups\l/Setup_2015_01_Pion.cc">
<polygon fill="white" stroke="black" points="697.5,-73 697.5,-107 822.5,-107 822.5,-73 697.5,-73"/>
<text text-anchor="start" x="705.5" y="-94" font-family="Helvetica,sans-Serif" font-size="10.00">src/expconfig/setups</text>
<text text-anchor="middle" x="760" y="-81" font-family="Helvetica,sans-Serif" font-size="10.00">/Setup_2015_01_Pion.cc</text>
</a>
</g>
<!-- Node1&#45;&gt;Node11 -->
<g id="edge20" class="edge"><title>Node1&#45;&gt;Node11</title>
<path fill="none" stroke="midnightblue" d="M613.393,-141.491C644.387,-130.606 682.03,-117.385 711.412,-107.065"/>
<polygon fill="midnightblue" stroke="midnightblue" points="611.857,-138.321 603.582,-144.937 614.177,-144.925 611.857,-138.321"/>
</g>
<!-- Node12 -->
<g id="node23" class="node"><title>Node12</title>
<a xlink:href="_setup_registry_8cc.html" target="_top" xlink:title="src/expconfig/setups\l/SetupRegistry.cc">
<polygon fill="white" stroke="black" points="839.5,-73 839.5,-107 946.5,-107 946.5,-73 839.5,-73"/>
<text text-anchor="start" x="847.5" y="-94" font-family="Helvetica,sans-Serif" font-size="10.00">src/expconfig/setups</text>
<text text-anchor="middle" x="893" y="-81" font-family="Helvetica,sans-Serif" font-size="10.00">/SetupRegistry.cc</text>
</a>
</g>
<!-- Node1&#45;&gt;Node12 -->
<g id="edge22" class="edge"><title>Node1&#45;&gt;Node12</title>
<path fill="none" stroke="midnightblue" d="M618.891,-151.171C675.057,-141.254 758.858,-125.493 831,-108 833.723,-107.34 836.506,-106.637 839.31,-105.906"/>
<polygon fill="midnightblue" stroke="midnightblue" points="617.979,-147.777 608.734,-152.954 619.189,-154.672 617.979,-147.777"/>
</g>
<!-- Node13 -->
<g id="node25" class="node"><title>Node13</title>
<a xlink:href="expconfig__helpers_8cc.html" target="_top" xlink:title="test/expconfig_helpers.cc">
<polygon fill="white" stroke="black" points="964,-79.5 964,-100.5 1092,-100.5 1092,-79.5 964,-79.5"/>
<text text-anchor="middle" x="1028" y="-87.5" font-family="Helvetica,sans-Serif" font-size="10.00">test/expconfig_helpers.cc</text>
</a>
</g>
<!-- Node1&#45;&gt;Node13 -->
<g id="edge24" class="edge"><title>Node1&#45;&gt;Node13</title>
<path fill="none" stroke="midnightblue" d="M618.981,-155.51C698.243,-146.977 837.236,-130.401 955,-108 965.9,-105.927 977.609,-103.246 988.389,-100.589"/>
<polygon fill="midnightblue" stroke="midnightblue" points="618.245,-152.068 608.673,-156.61 618.988,-159.029 618.245,-152.068"/>
</g>
<!-- Node7 -->
<g id="node13" class="node"><title>Node7</title>
<a xlink:href="_setup__2014__07___e_p_t___prod_8cc.html" target="_top" xlink:title="src/expconfig/setups\l/Setup_2014_07_EPT_Prod.cc">
<polygon fill="white" stroke="black" points="299.5,-1 299.5,-35 450.5,-35 450.5,-1 299.5,-1"/>
<text text-anchor="start" x="307.5" y="-22" font-family="Helvetica,sans-Serif" font-size="10.00">src/expconfig/setups</text>
<text text-anchor="middle" x="375" y="-9" font-family="Helvetica,sans-Serif" font-size="10.00">/Setup_2014_07_EPT_Prod.cc</text>
</a>
</g>
<!-- Node6&#45;&gt;Node7 -->
<g id="edge12" class="edge"><title>Node6&#45;&gt;Node7</title>
<path fill="none" stroke="midnightblue" d="M563.599,-71.6034C515.585,-57.824 470.375,-44.9801 435.352,-35.0586"/>
<polygon fill="midnightblue" stroke="midnightblue" points="562.659,-74.975 573.237,-74.3712 564.591,-68.2469 562.659,-74.975"/>
</g>
<!-- Node8 -->
<g id="node15" class="node"><title>Node8</title>
<a xlink:href="_setup__2014__10___e_p_t___prod_8cc.html" target="_top" xlink:title="src/expconfig/setups\l/Setup_2014_10_EPT_Prod.cc">
<polygon fill="white" stroke="black" points="467.5,-1 467.5,-35 618.5,-35 618.5,-1 467.5,-1"/>
<text text-anchor="start" x="475.5" y="-22" font-family="Helvetica,sans-Serif" font-size="10.00">src/expconfig/setups</text>
<text text-anchor="middle" x="543" y="-9" font-family="Helvetica,sans-Serif" font-size="10.00">/Setup_2014_10_EPT_Prod.cc</text>
</a>
</g>
<!-- Node6&#45;&gt;Node8 -->
<g id="edge14" class="edge"><title>Node6&#45;&gt;Node8</title>
<path fill="none" stroke="midnightblue" d="M599.235,-66.2011C587.411,-56.0666 573.881,-44.4691 563.055,-35.19"/>
<polygon fill="midnightblue" stroke="midnightblue" points="597.223,-69.0865 607.093,-72.937 601.778,-63.7717 597.223,-69.0865"/>
</g>
<!-- Node9 -->
<g id="node17" class="node"><title>Node9</title>
<a xlink:href="_setup__2014__12___e_p_t___prod_8cc.html" target="_top" xlink:title="src/expconfig/setups\l/Setup_2014_12_EPT_Prod.cc">
<polygon fill="white" stroke="black" points="635.5,-1 635.5,-35 786.5,-35 786.5,-1 635.5,-1"/>
<text text-anchor="start" x="643.5" y="-22" font-family="Helvetica,sans-Serif" font-size="10.00">src/expconfig/setups</text>
<text text-anchor="middle" x="711" y="-9" font-family="Helvetica,sans-Serif" font-size="10.00">/Setup_2014_12_EPT_Prod.cc</text>
</a>
</g>
<!-- Node6&#45;&gt;Node9 -->
<g id="edge16" class="edge"><title>Node6&#45;&gt;Node9</title>
<path fill="none" stroke="midnightblue" d="M654.765,-66.2011C666.589,-56.0666 680.119,-44.4691 690.945,-35.19"/>
<polygon fill="midnightblue" stroke="midnightblue" points="652.222,-63.7717 646.907,-72.937 656.777,-69.0865 652.222,-63.7717"/>
</g>
<!-- Node10 -->
<g id="node19" class="node"><title>Node10</title>
<a xlink:href="_setup__2014___e_p_t_8cc.html" target="_top" xlink:title="src/expconfig/setups\l/Setup_2014_EPT.cc">
<polygon fill="white" stroke="black" points="804,-1 804,-35 914,-35 914,-1 804,-1"/>
<text text-anchor="start" x="812" y="-22" font-family="Helvetica,sans-Serif" font-size="10.00">src/expconfig/setups</text>
<text text-anchor="middle" x="859" y="-9" font-family="Helvetica,sans-Serif" font-size="10.00">/Setup_2014_EPT.cc</text>
</a>
</g>
<!-- Node6&#45;&gt;Node10 -->
<g id="edge18" class="edge"><title>Node6&#45;&gt;Node10</title>
<path fill="none" stroke="midnightblue" d="M690.327,-70.3468C725.954,-59.2903 769.996,-45.622 804.142,-35.025"/>
<polygon fill="midnightblue" stroke="midnightblue" points="689.03,-67.0846 680.517,-73.3913 691.105,-73.77 689.03,-67.0846"/>
</g>
</g>
</svg>
