<?xml version="1.0" encoding="UTF-8" standalone="no"?>
<!DOCTYPE svg PUBLIC "-//W3C//DTD SVG 1.1//EN"
 "http://www.w3.org/Graphics/SVG/1.1/DTD/svg11.dtd">
<!-- Generated by graphviz version 2.26.3 (20100126.1600)
 -->
<!-- Title: src/expconfig/setups/Setup_2012_12_Compton.cc Pages: 1 -->
<svg width="3442pt" height="608pt"
 viewBox="0.00 0.00 3442.16 608.00" xmlns="http://www.w3.org/2000/svg" xmlns:xlink="http://www.w3.org/1999/xlink">
<g id="graph1" class="graph" transform="scale(1 1) rotate(0) translate(4 604)">
<title>src/expconfig/setups/Setup_2012_12_Compton.cc</title>
<polygon fill="white" stroke="white" points="-4,5 -4,-604 3439.16,-604 3439.16,5 -4,5"/>
<!-- Node1 -->
<g id="node1" class="node"><title>Node1</title>
<polygon fill="#bfbfbf" stroke="black" points="234.162,-565 234.162,-599 380.162,-599 380.162,-565 234.162,-565"/>
<text text-anchor="start" x="242.162" y="-586" font-family="Helvetica,sans-Serif" font-size="10.00">src/expconfig/setups</text>
<text text-anchor="middle" x="307.162" y="-573" font-family="Helvetica,sans-Serif" font-size="10.00">/Setup_2012_12_Compton.cc</text>
</g>
<!-- Node2 -->
<g id="node3" class="node"><title>Node2</title>
<a xlink:href="_setup_8h.html" target="_top" xlink:title="Setup.h">
<polygon fill="white" stroke="black" points="1297.16,-506.5 1297.16,-527.5 1347.16,-527.5 1347.16,-506.5 1297.16,-506.5"/>
<text text-anchor="middle" x="1322.16" y="-514.5" font-family="Helvetica,sans-Serif" font-size="10.00">Setup.h</text>
</a>
</g>
<!-- Node1&#45;&gt;Node2 -->
<g id="edge2" class="edge"><title>Node1&#45;&gt;Node2</title>
<path fill="none" stroke="midnightblue" d="M380.567,-577.299C582.48,-564.369 1140.86,-528.61 1286.86,-519.261"/>
<polygon fill="midnightblue" stroke="midnightblue" points="1287.28,-522.741 1297.03,-518.609 1286.83,-515.756 1287.28,-522.741"/>
</g>
<!-- Node55 -->
<g id="node187" class="node"><title>Node55</title>
<a xlink:href="_c_b_8h.html" target="_top" xlink:title="detectors/CB.h">
<polygon fill="white" stroke="black" points="214.662,-506.5 214.662,-527.5 297.662,-527.5 297.662,-506.5 214.662,-506.5"/>
<text text-anchor="middle" x="256.162" y="-514.5" font-family="Helvetica,sans-Serif" font-size="10.00">detectors/CB.h</text>
</a>
</g>
<!-- Node1&#45;&gt;Node55 -->
<g id="edge264" class="edge"><title>Node1&#45;&gt;Node55</title>
<path fill="none" stroke="midnightblue" d="M293.762,-564.922C286.784,-556.029 278.233,-545.13 271.049,-535.974"/>
<polygon fill="midnightblue" stroke="midnightblue" points="273.603,-533.559 264.677,-527.852 268.096,-537.88 273.603,-533.559"/>
</g>
<!-- Node56 -->
<g id="node191" class="node"><title>Node56</title>
<a xlink:href="_p_i_d_8h.html" target="_top" xlink:title="detectors/PID.h">
<polygon fill="white" stroke="black" points="315.162,-506.5 315.162,-527.5 401.162,-527.5 401.162,-506.5 315.162,-506.5"/>
<text text-anchor="middle" x="358.162" y="-514.5" font-family="Helvetica,sans-Serif" font-size="10.00">detectors/PID.h</text>
</a>
</g>
<!-- Node1&#45;&gt;Node56 -->
<g id="edge270" class="edge"><title>Node1&#45;&gt;Node56</title>
<path fill="none" stroke="midnightblue" d="M320.562,-564.922C327.54,-556.029 336.091,-545.13 343.275,-535.974"/>
<polygon fill="midnightblue" stroke="midnightblue" points="346.228,-537.88 349.647,-527.852 340.721,-533.559 346.228,-537.88"/>
</g>
<!-- Node57 -->
<g id="node195" class="node"><title>Node57</title>
<a xlink:href="math_8h.html" target="_top" xlink:title="base/std_ext/math.h">
<polygon fill="white" stroke="black" points="35.162,-195.5 35.162,-216.5 141.162,-216.5 141.162,-195.5 35.162,-195.5"/>
<text text-anchor="middle" x="88.162" y="-203.5" font-family="Helvetica,sans-Serif" font-size="10.00">base/std_ext/math.h</text>
</a>
</g>
<!-- Node1&#45;&gt;Node57 -->
<g id="edge276" class="edge"><title>Node1&#45;&gt;Node57</title>
<path fill="none" stroke="midnightblue" d="M234.136,-566.048C180.215,-549.47 116.162,-517.471 116.162,-459 116.162,-459 116.162,-459 116.162,-343 116.162,-300.753 103.223,-252.636 94.9367,-226.151"/>
<polygon fill="midnightblue" stroke="midnightblue" points="98.2264,-224.949 91.8225,-216.508 91.5651,-227.1 98.2264,-224.949"/>
</g>
<!-- Node3 -->
<g id="node5" class="node"><title>Node3</title>
<a xlink:href="_exp_config_8h.html" target="_top" xlink:title="expconfig/ExpConfig.h">
<polygon fill="white" stroke="black" points="1459.16,-390.5 1459.16,-411.5 1575.16,-411.5 1575.16,-390.5 1459.16,-390.5"/>
<text text-anchor="middle" x="1517.16" y="-398.5" font-family="Helvetica,sans-Serif" font-size="10.00">expconfig/ExpConfig.h</text>
</a>
</g>
<!-- Node2&#45;&gt;Node3 -->
<g id="edge4" class="edge"><title>Node2&#45;&gt;Node3</title>
<path fill="none" stroke="midnightblue" d="M1340.16,-506.295C1374.71,-485.741 1450.48,-440.67 1490.76,-416.706"/>
<polygon fill="midnightblue" stroke="midnightblue" points="1492.69,-419.632 1499.49,-411.512 1489.11,-413.616 1492.69,-419.632"/>
</g>
<!-- Node13 -->
<g id="node27" class="node"><title>Node13</title>
<polygon fill="white" stroke="#bfbfbf" points="370.662,-0.5 370.662,-21.5 411.662,-21.5 411.662,-0.5 370.662,-0.5"/>
<text text-anchor="middle" x="391.162" y="-8.5" font-family="Helvetica,sans-Serif" font-size="10.00">string</text>
</g>
<!-- Node2&#45;&gt;Node13 -->
<g id="edge262" class="edge"><title>Node2&#45;&gt;Node13</title>
<path fill="none" stroke="midnightblue" d="M1297.01,-516.393C1149.04,-512.746 396.832,-493.119 354.162,-470 218.152,-396.31 251.308,-305.04 150.162,-188 135.16,-170.64 122.087,-173.137 113.162,-152 106.938,-137.26 104.822,-129.655 113.162,-116 140.028,-72.0125 294.312,-32.7248 360.745,-17.5974"/>
<polygon fill="midnightblue" stroke="midnightblue" points="361.63,-20.986 370.62,-15.38 360.096,-14.1561 361.63,-20.986"/>
</g>
<!-- Node21 -->
<g id="node50" class="node"><title>Node21</title>
<polygon fill="white" stroke="#bfbfbf" points="2395.66,-58.5 2395.66,-79.5 2454.66,-79.5 2454.66,-58.5 2395.66,-58.5"/>
<text text-anchor="middle" x="2425.16" y="-66.5" font-family="Helvetica,sans-Serif" font-size="10.00">functional</text>
</g>
<!-- Node2&#45;&gt;Node21 -->
<g id="edge260" class="edge"><title>Node2&#45;&gt;Node21</title>
<path fill="none" stroke="midnightblue" d="M1347.54,-514.81C1500.44,-501.39 2294.88,-428.392 2371.16,-354 2445.06,-281.935 2435.24,-142.578 2428.39,-89.8747"/>
<polygon fill="midnightblue" stroke="midnightblue" points="2431.82,-89.149 2426.96,-79.7338 2424.89,-90.1238 2431.82,-89.149"/>
</g>
<!-- Node24 -->
<g id="node59" class="node"><title>Node24</title>
<a xlink:href="_calibration_8h.html" target="_top" xlink:title="calibration/Calibration.h">
<polygon fill="white" stroke="black" points="2243.66,-332.5 2243.66,-353.5 2362.66,-353.5 2362.66,-332.5 2243.66,-332.5"/>
<text text-anchor="middle" x="2303.16" y="-340.5" font-family="Helvetica,sans-Serif" font-size="10.00">calibration/Calibration.h</text>
</a>
</g>
<!-- Node2&#45;&gt;Node24 -->
<g id="edge246" class="edge"><title>Node2&#45;&gt;Node24</title>
<path fill="none" stroke="midnightblue" d="M1347.4,-512.524C1473.34,-490.186 2035.67,-390.445 2233.8,-355.302"/>
<polygon fill="midnightblue" stroke="midnightblue" points="2234.57,-358.721 2243.8,-353.529 2233.34,-351.829 2234.57,-358.721"/>
</g>
<!-- Node41 -->
<g id="node107" class="node"><title>Node41</title>
<a xlink:href="_t_i_d_8h.html" target="_top" xlink:title="tree/TID.h">
<polygon fill="white" stroke="black" points="987.662,-195.5 987.662,-216.5 1048.66,-216.5 1048.66,-195.5 987.662,-195.5"/>
<text text-anchor="middle" x="1018.16" y="-203.5" font-family="Helvetica,sans-Serif" font-size="10.00">tree/TID.h</text>
</a>
</g>
<!-- Node2&#45;&gt;Node41 -->
<g id="edge244" class="edge"><title>Node2&#45;&gt;Node41</title>
<path fill="none" stroke="midnightblue" d="M1296.92,-514.469C1244.55,-508.799 1126.28,-493.685 1094.16,-470 1065.98,-449.223 1056.16,-436.01 1056.16,-401 1056.16,-401 1056.16,-401 1056.16,-343 1056.16,-300.073 1038.62,-252.243 1027.38,-225.983"/>
<polygon fill="midnightblue" stroke="midnightblue" points="1030.53,-224.46 1023.29,-216.728 1024.13,-227.29 1030.53,-224.46"/>
</g>
<!-- Node48 -->
<g id="node136" class="node"><title>Node48</title>
<a xlink:href="_setup_registry_8h.html" target="_top" xlink:title="SetupRegistry.h">
<polygon fill="white" stroke="black" points="3112.66,-332.5 3112.66,-353.5 3199.66,-353.5 3199.66,-332.5 3112.66,-332.5"/>
<text text-anchor="middle" x="3156.16" y="-340.5" font-family="Helvetica,sans-Serif" font-size="10.00">SetupRegistry.h</text>
</a>
</g>
<!-- Node2&#45;&gt;Node48 -->
<g id="edge176" class="edge"><title>Node2&#45;&gt;Node48</title>
<path fill="none" stroke="midnightblue" d="M1347.25,-516.737C1561.37,-514.445 3074.86,-497.295 3112.16,-470 3145.74,-445.425 3153.89,-393.462 3155.74,-364.192"/>
<polygon fill="midnightblue" stroke="midnightblue" points="3159.25,-363.995 3156.19,-353.853 3152.26,-363.691 3159.25,-363.995"/>
</g>
<!-- Node49 -->
<g id="node138" class="node"><title>Node49</title>
<a xlink:href="_options_list_8h.html" target="_top" xlink:title="base/OptionsList.h">
<polygon fill="white" stroke="black" points="3300.16,-267.5 3300.16,-288.5 3398.16,-288.5 3398.16,-267.5 3300.16,-267.5"/>
<text text-anchor="middle" x="3349.16" y="-275.5" font-family="Helvetica,sans-Serif" font-size="10.00">base/OptionsList.h</text>
</a>
</g>
<!-- Node2&#45;&gt;Node49 -->
<g id="edge258" class="edge"><title>Node2&#45;&gt;Node49</title>
<path fill="none" stroke="midnightblue" d="M1347.16,-516.845C1559.05,-515.469 3048.21,-504.586 3135.16,-470 3227.44,-433.295 3305.54,-337.678 3335.76,-296.885"/>
<polygon fill="midnightblue" stroke="midnightblue" points="3338.73,-298.764 3341.79,-288.62 3333.07,-294.641 3338.73,-298.764"/>
</g>
<!-- Node51 -->
<g id="node150" class="node"><title>Node51</title>
<a xlink:href="_unpacker_acqu_8h.html" target="_top" xlink:title="unpacker/UnpackerAcqu.h">
<polygon fill="white" stroke="black" points="363.162,-448.5 363.162,-469.5 495.162,-469.5 495.162,-448.5 363.162,-448.5"/>
<text text-anchor="middle" x="429.162" y="-456.5" font-family="Helvetica,sans-Serif" font-size="10.00">unpacker/UnpackerAcqu.h</text>
</a>
</g>
<!-- Node2&#45;&gt;Node51 -->
<g id="edge198" class="edge"><title>Node2&#45;&gt;Node51</title>
<path fill="none" stroke="midnightblue" d="M1296.87,-515.358C1180.65,-507.809 695.352,-476.289 505.639,-463.967"/>
<polygon fill="midnightblue" stroke="midnightblue" points="505.677,-460.462 495.472,-463.307 505.224,-467.448 505.677,-460.462"/>
</g>
<!-- Node53 -->
<g id="node164" class="node"><title>Node53</title>
<a xlink:href="_unpacker_a2_geant_8h.html" target="_top" xlink:title="unpacker/UnpackerA2Geant.h">
<polygon fill="white" stroke="black" points="1103.16,-448.5 1103.16,-469.5 1251.16,-469.5 1251.16,-448.5 1103.16,-448.5"/>
<text text-anchor="middle" x="1177.16" y="-456.5" font-family="Helvetica,sans-Serif" font-size="10.00">unpacker/UnpackerA2Geant.h</text>
</a>
</g>
<!-- Node2&#45;&gt;Node53 -->
<g id="edge222" class="edge"><title>Node2&#45;&gt;Node53</title>
<path fill="none" stroke="midnightblue" d="M1296.9,-506.897C1273.74,-497.63 1239.17,-483.804 1213.12,-473.385"/>
<polygon fill="midnightblue" stroke="midnightblue" points="1214.18,-470.039 1203.6,-469.575 1211.58,-476.539 1214.18,-470.039"/>
</g>
<!-- Node54 -->
<g id="node178" class="node"><title>Node54</title>
<a xlink:href="_data_manager_8h.html" target="_top" xlink:title="calibration/DataManager.h">
<polygon fill="white" stroke="black" points="1256.66,-390.5 1256.66,-411.5 1387.66,-411.5 1387.66,-390.5 1256.66,-390.5"/>
<text text-anchor="middle" x="1322.16" y="-398.5" font-family="Helvetica,sans-Serif" font-size="10.00">calibration/DataManager.h</text>
</a>
</g>
<!-- Node2&#45;&gt;Node54 -->
<g id="edge248" class="edge"><title>Node2&#45;&gt;Node54</title>
<path fill="none" stroke="midnightblue" d="M1322.16,-506.295C1322.16,-487.131 1322.16,-446.654 1322.16,-421.843"/>
<polygon fill="midnightblue" stroke="midnightblue" points="1325.66,-421.679 1322.16,-411.679 1318.66,-421.679 1325.66,-421.679"/>
</g>
<!-- Node4 -->
<g id="node7" class="node"><title>Node4</title>
<a xlink:href="_detector__t_8h.html" target="_top" xlink:title="base/Detector_t.h">
<polygon fill="white" stroke="black" points="451.662,-195.5 451.662,-216.5 546.662,-216.5 546.662,-195.5 451.662,-195.5"/>
<text text-anchor="middle" x="499.162" y="-203.5" font-family="Helvetica,sans-Serif" font-size="10.00">base/Detector_t.h</text>
</a>
</g>
<!-- Node3&#45;&gt;Node4 -->
<g id="edge6" class="edge"><title>Node3&#45;&gt;Node4</title>
<path fill="none" stroke="midnightblue" d="M1458.85,-394.363C1339.89,-380.321 1060.93,-344.843 830.162,-296 725.917,-273.936 605.696,-238.749 542.756,-219.561"/>
<polygon fill="midnightblue" stroke="midnightblue" points="543.744,-216.203 533.158,-216.624 541.695,-222.897 543.744,-216.203"/>
</g>
<!-- Node5 -->
<g id="node9" class="node"><title>Node5</title>
<a xlink:href="printable_8h.html" target="_top" xlink:title="base/printable.h">
<polygon fill="white" stroke="black" points="616.162,-58.5 616.162,-79.5 702.162,-79.5 702.162,-58.5 616.162,-58.5"/>
<text text-anchor="middle" x="659.162" y="-66.5" font-family="Helvetica,sans-Serif" font-size="10.00">base/printable.h</text>
</a>
</g>
<!-- Node3&#45;&gt;Node5 -->
<g id="edge168" class="edge"><title>Node3&#45;&gt;Node5</title>
<path fill="none" stroke="midnightblue" d="M1462.07,-390.491C1297.61,-358.187 814.271,-256.21 696.162,-152 677.669,-135.683 667.965,-108.346 663.211,-89.5304"/>
<polygon fill="midnightblue" stroke="midnightblue" points="666.581,-88.5629 660.955,-79.5847 659.754,-90.1112 666.581,-88.5629"/>
</g>
<!-- Node15 -->
<g id="node32" class="node"><title>Node15</title>
<a xlink:href="_reconstruct__traits_8h.html" target="_top" xlink:title="reconstruct/Reconstruct\l_traits.h">
<polygon fill="white" stroke="black" points="2472.16,-261 2472.16,-295 2594.16,-295 2594.16,-261 2472.16,-261"/>
<text text-anchor="start" x="2480.16" y="-282" font-family="Helvetica,sans-Serif" font-size="10.00">reconstruct/Reconstruct</text>
<text text-anchor="middle" x="2533.16" y="-269" font-family="Helvetica,sans-Serif" font-size="10.00">_traits.h</text>
</a>
</g>
<!-- Node3&#45;&gt;Node15 -->
<g id="edge34" class="edge"><title>Node3&#45;&gt;Node15</title>
<path fill="none" stroke="midnightblue" d="M1575.44,-393.945C1750.37,-372.768 2270.62,-309.784 2461.72,-286.649"/>
<polygon fill="midnightblue" stroke="midnightblue" points="2462.42,-290.09 2471.93,-285.413 2461.58,-283.14 2462.42,-290.09"/>
</g>
<!-- Node18 -->
<g id="node39" class="node"><title>Node18</title>
<polygon fill="white" stroke="#bfbfbf" points="3018.16,-58.5 3018.16,-79.5 3070.16,-79.5 3070.16,-58.5 3018.16,-58.5"/>
<text text-anchor="middle" x="3044.16" y="-66.5" font-family="Helvetica,sans-Serif" font-size="10.00">memory</text>
</g>
<!-- Node3&#45;&gt;Node18 -->
<g id="edge170" class="edge"><title>Node3&#45;&gt;Node18</title>
<path fill="none" stroke="midnightblue" d="M1575.32,-399.89C1713.63,-396.795 2072.94,-386.075 2371.16,-354 2532.73,-336.623 2576.39,-342.275 2732.16,-296 2769.93,-284.781 2775.37,-271.13 2813.16,-260 2912.84,-230.645 2955.58,-278.306 3044.16,-224 3089.58,-196.156 3117.78,-164.689 3096.16,-116 3090.76,-103.836 3080.48,-93.4865 3070.48,-85.6217"/>
<polygon fill="midnightblue" stroke="midnightblue" points="3072.4,-82.6872 3062.26,-79.6143 3068.27,-88.3395 3072.4,-82.6872"/>
</g>
<!-- Node19 -->
<g id="node41" class="node"><title>Node19</title>
<polygon fill="white" stroke="#bfbfbf" points="1538.66,-58.5 1538.66,-79.5 1567.66,-79.5 1567.66,-58.5 1538.66,-58.5"/>
<text text-anchor="middle" x="1553.16" y="-66.5" font-family="Helvetica,sans-Serif" font-size="10.00">list</text>
</g>
<!-- Node3&#45;&gt;Node19 -->
<g id="edge172" class="edge"><title>Node3&#45;&gt;Node19</title>
<path fill="none" stroke="midnightblue" d="M1519.97,-390.227C1525.25,-368.941 1536.16,-319.918 1536.16,-278 1536.16,-278 1536.16,-278 1536.16,-206 1536.16,-164.477 1543.95,-116.41 1548.98,-89.6738"/>
<polygon fill="midnightblue" stroke="midnightblue" points="1552.47,-90.0869 1550.94,-79.6027 1545.6,-88.7509 1552.47,-90.0869"/>
</g>
<!-- Node23 -->
<g id="node55" class="node"><title>Node23</title>
<polygon fill="white" stroke="#bfbfbf" points="3171.66,-195.5 3171.66,-216.5 3206.66,-216.5 3206.66,-195.5 3171.66,-195.5"/>
<text text-anchor="middle" x="3189.16" y="-203.5" font-family="Helvetica,sans-Serif" font-size="10.00">map</text>
</g>
<!-- Node3&#45;&gt;Node23 -->
<g id="edge174" class="edge"><title>Node3&#45;&gt;Node23</title>
<path fill="none" stroke="midnightblue" d="M1575.5,-400.417C1772.9,-398.144 2414.76,-388.239 2618.16,-354 2761.82,-329.819 2790.66,-294.632 2932.16,-260 3014.8,-239.775 3037.18,-242.747 3120.16,-224 3133.94,-220.888 3149.13,-216.976 3161.75,-213.594"/>
<polygon fill="midnightblue" stroke="midnightblue" points="3162.92,-216.904 3171.66,-210.908 3161.09,-210.148 3162.92,-216.904"/>
</g>
<!-- Node3&#45;&gt;Node24 -->
<g id="edge70" class="edge"><title>Node3&#45;&gt;Node24</title>
<path fill="none" stroke="midnightblue" d="M1575.28,-396.712C1717.01,-386.253 2080.02,-359.466 2233.25,-348.159"/>
<polygon fill="midnightblue" stroke="midnightblue" points="2233.76,-351.631 2243.47,-347.405 2233.24,-344.65 2233.76,-351.631"/>
</g>
<!-- Node4&#45;&gt;Node5 -->
<g id="edge8" class="edge"><title>Node4&#45;&gt;Node5</title>
<path fill="none" stroke="midnightblue" d="M489.269,-195.227C473.917,-177.174 448.018,-140.396 467.162,-116 484.158,-94.3419 555.269,-81.37 605.986,-74.7037"/>
<polygon fill="midnightblue" stroke="midnightblue" points="606.673,-78.1447 616.153,-73.4149 605.793,-71.2003 606.673,-78.1447"/>
</g>
<!-- Node6 -->
<g id="node11" class="node"><title>Node6</title>
<polygon fill="white" stroke="#bfbfbf" points="2639.16,-0.5 2639.16,-21.5 2683.16,-21.5 2683.16,-0.5 2639.16,-0.5"/>
<text text-anchor="middle" x="2661.16" y="-8.5" font-family="Helvetica,sans-Serif" font-size="10.00">vector</text>
</g>
<!-- Node4&#45;&gt;Node6 -->
<g id="edge32" class="edge"><title>Node4&#45;&gt;Node6</title>
<path fill="none" stroke="midnightblue" d="M546.844,-203.966C633.096,-200.34 820.787,-192.703 979.162,-188 1024.82,-186.644 2587.21,-180.176 2623.16,-152 2659.59,-123.448 2663.39,-63.9027 2662.57,-32.0959"/>
<polygon fill="midnightblue" stroke="midnightblue" points="2666.05,-31.5764 2662.11,-21.7413 2659.06,-31.8866 2666.05,-31.5764"/>
</g>
<!-- Node8 -->
<g id="node15" class="node"><title>Node8</title>
<a xlink:href="vec3_8h.html" target="_top" xlink:title="base/vec/vec3.h">
<polygon fill="white" stroke="black" points="217.662,-123.5 217.662,-144.5 306.662,-144.5 306.662,-123.5 217.662,-123.5"/>
<text text-anchor="middle" x="262.162" y="-131.5" font-family="Helvetica,sans-Serif" font-size="10.00">base/vec/vec3.h</text>
</a>
</g>
<!-- Node4&#45;&gt;Node8 -->
<g id="edge14" class="edge"><title>Node4&#45;&gt;Node8</title>
<path fill="none" stroke="midnightblue" d="M464.446,-195.453C422.642,-182.753 352.355,-161.401 306.62,-147.506"/>
<polygon fill="midnightblue" stroke="midnightblue" points="307.556,-144.133 296.971,-144.575 305.521,-150.83 307.556,-144.133"/>
</g>
<!-- Node11 -->
<g id="node23" class="node"><title>Node11</title>
<polygon fill="white" stroke="#bfbfbf" points="476.162,-123.5 476.162,-144.5 522.162,-144.5 522.162,-123.5 476.162,-123.5"/>
<text text-anchor="middle" x="499.162" y="-131.5" font-family="Helvetica,sans-Serif" font-size="10.00">cstdint</text>
</g>
<!-- Node4&#45;&gt;Node11 -->
<g id="edge24" class="edge"><title>Node4&#45;&gt;Node11</title>
<path fill="none" stroke="midnightblue" d="M499.162,-195.376C499.162,-184.741 499.162,-168.095 499.162,-154.82"/>
<polygon fill="midnightblue" stroke="midnightblue" points="502.662,-154.667 499.162,-144.667 495.662,-154.667 502.662,-154.667"/>
</g>
<!-- Node12 -->
<g id="node25" class="node"><title>Node12</title>
<polygon fill="white" stroke="#bfbfbf" points="1203.66,-123.5 1203.66,-144.5 1262.66,-144.5 1262.66,-123.5 1203.66,-123.5"/>
<text text-anchor="middle" x="1233.16" y="-131.5" font-family="Helvetica,sans-Serif" font-size="10.00">stdexcept</text>
</g>
<!-- Node4&#45;&gt;Node12 -->
<g id="edge26" class="edge"><title>Node4&#45;&gt;Node12</title>
<path fill="none" stroke="midnightblue" d="M547.077,-204.548C683.545,-200.053 1072.33,-184.664 1195.16,-152 1198.41,-151.137 1201.71,-150.003 1204.95,-148.723"/>
<polygon fill="midnightblue" stroke="midnightblue" points="1206.62,-151.815 1214.35,-144.572 1203.79,-145.412 1206.62,-151.815"/>
</g>
<!-- Node4&#45;&gt;Node13 -->
<g id="edge28" class="edge"><title>Node4&#45;&gt;Node13</title>
<path fill="none" stroke="midnightblue" d="M489.449,-195.406C480.146,-184.912 466.095,-168.121 456.162,-152 431.086,-111.302 409.559,-59.3251 398.698,-31.227"/>
<polygon fill="midnightblue" stroke="midnightblue" points="401.901,-29.8018 395.073,-21.7006 395.358,-32.2916 401.901,-29.8018"/>
</g>
<!-- Node14 -->
<g id="node29" class="node"><title>Node14</title>
<polygon fill="white" stroke="#bfbfbf" points="768.162,-123.5 768.162,-144.5 830.162,-144.5 830.162,-123.5 768.162,-123.5"/>
<text text-anchor="middle" x="799.162" y="-131.5" font-family="Helvetica,sans-Serif" font-size="10.00">type_traits</text>
</g>
<!-- Node4&#45;&gt;Node14 -->
<g id="edge30" class="edge"><title>Node4&#45;&gt;Node14</title>
<path fill="none" stroke="midnightblue" d="M543.106,-195.453C600.867,-181.591 701.586,-157.418 757.953,-143.89"/>
<polygon fill="midnightblue" stroke="midnightblue" points="759.034,-147.23 767.941,-141.493 757.401,-140.423 759.034,-147.23"/>
</g>
<!-- Node5&#45;&gt;Node6 -->
<g id="edge10" class="edge"><title>Node5&#45;&gt;Node6</title>
<path fill="none" stroke="midnightblue" d="M702.343,-63.4926C720.209,-61.4236 741.155,-59.2678 760.162,-58 1144.83,-32.3424 2409.91,-14.3809 2628.76,-11.4288"/>
<polygon fill="midnightblue" stroke="midnightblue" points="2628.99,-14.9261 2638.94,-11.2921 2628.9,-7.92673 2628.99,-14.9261"/>
</g>
<!-- Node7 -->
<g id="node13" class="node"><title>Node7</title>
<polygon fill="white" stroke="#bfbfbf" points="633.162,-0.5 633.162,-21.5 685.162,-21.5 685.162,-0.5 633.162,-0.5"/>
<text text-anchor="middle" x="659.162" y="-8.5" font-family="Helvetica,sans-Serif" font-size="10.00">ostream</text>
</g>
<!-- Node5&#45;&gt;Node7 -->
<g id="edge12" class="edge"><title>Node5&#45;&gt;Node7</title>
<path fill="none" stroke="midnightblue" d="M659.162,-58.3619C659.162,-50.9219 659.162,-40.7427 659.162,-31.7276"/>
<polygon fill="midnightblue" stroke="midnightblue" points="662.662,-31.5706 659.162,-21.5707 655.662,-31.5707 662.662,-31.5706"/>
</g>
<!-- Node8&#45;&gt;Node5 -->
<g id="edge16" class="edge"><title>Node8&#45;&gt;Node5</title>
<path fill="none" stroke="midnightblue" d="M306.931,-126.67C380.581,-114.611 526.983,-90.6414 605.861,-77.7268"/>
<polygon fill="midnightblue" stroke="midnightblue" points="606.762,-81.1261 616.065,-76.0562 605.63,-74.2181 606.762,-81.1261"/>
</g>
<!-- Node9 -->
<g id="node18" class="node"><title>Node9</title>
<a xlink:href="vec2_8h.html" target="_top" xlink:title="vec2.h">
<polygon fill="white" stroke="black" points="11.162,-58.5 11.162,-79.5 57.162,-79.5 57.162,-58.5 11.162,-58.5"/>
<text text-anchor="middle" x="34.162" y="-66.5" font-family="Helvetica,sans-Serif" font-size="10.00">vec2.h</text>
</a>
</g>
<!-- Node8&#45;&gt;Node9 -->
<g id="edge18" class="edge"><title>Node8&#45;&gt;Node9</title>
<path fill="none" stroke="midnightblue" d="M224.429,-123.493C185.87,-112.719 124.281,-95.4043 71.162,-80 69.754,-79.5917 68.3166,-79.1729 66.8649,-78.7483"/>
<polygon fill="midnightblue" stroke="midnightblue" points="67.822,-75.3816 57.2405,-75.9133 65.844,-82.0963 67.822,-75.3816"/>
</g>
<!-- Node10 -->
<g id="node20" class="node"><title>Node10</title>
<polygon fill="white" stroke="#bfbfbf" points="12.162,-0.5 12.162,-21.5 56.162,-21.5 56.162,-0.5 12.162,-0.5"/>
<text text-anchor="middle" x="34.162" y="-8.5" font-family="Helvetica,sans-Serif" font-size="10.00">cmath</text>
</g>
<!-- Node8&#45;&gt;Node10 -->
<g id="edge22" class="edge"><title>Node8&#45;&gt;Node10</title>
<path fill="none" stroke="midnightblue" d="M242.327,-123.3C201.885,-101.482 109.765,-51.7857 62.8168,-26.4585"/>
<polygon fill="midnightblue" stroke="midnightblue" points="64.2512,-23.2556 53.7884,-21.588 60.9277,-29.4163 64.2512,-23.2556"/>
</g>
<!-- Node9&#45;&gt;Node10 -->
<g id="edge20" class="edge"><title>Node9&#45;&gt;Node10</title>
<path fill="none" stroke="midnightblue" d="M34.162,-58.3619C34.162,-50.9219 34.162,-40.7427 34.162,-31.7276"/>
<polygon fill="midnightblue" stroke="midnightblue" points="37.6621,-31.5706 34.162,-21.5707 30.6621,-31.5707 37.6621,-31.5706"/>
</g>
<!-- Node15&#45;&gt;Node4 -->
<g id="edge36" class="edge"><title>Node15&#45;&gt;Node4</title>
<path fill="none" stroke="midnightblue" d="M2471.86,-275.769C2374.03,-272.237 2176.57,-265.224 2009.16,-260 1438.99,-242.208 1295.79,-254.556 726.162,-224 668.541,-220.909 602.833,-215.491 556.991,-211.405"/>
<polygon fill="midnightblue" stroke="midnightblue" points="557.216,-207.911 546.943,-210.502 556.59,-214.883 557.216,-207.911"/>
</g>
<!-- Node16 -->
<g id="node35" class="node"><title>Node16</title>
<a xlink:href="mapped__vectors_8h.html" target="_top" xlink:title="base/std_ext/mapped\l_vectors.h">
<polygon fill="white" stroke="black" points="2746.16,-189 2746.16,-223 2856.16,-223 2856.16,-189 2746.16,-189"/>
<text text-anchor="start" x="2754.16" y="-210" font-family="Helvetica,sans-Serif" font-size="10.00">base/std_ext/mapped</text>
<text text-anchor="middle" x="2801.16" y="-197" font-family="Helvetica,sans-Serif" font-size="10.00">_vectors.h</text>
</a>
</g>
<!-- Node15&#45;&gt;Node16 -->
<g id="edge38" class="edge"><title>Node15&#45;&gt;Node16</title>
<path fill="none" stroke="midnightblue" d="M2594.31,-261.572C2636.59,-250.213 2692.77,-235.119 2735.92,-223.529"/>
<polygon fill="midnightblue" stroke="midnightblue" points="2737,-226.862 2745.75,-220.888 2735.18,-220.102 2737,-226.862"/>
</g>
<!-- Node15&#45;&gt;Node18 -->
<g id="edge62" class="edge"><title>Node15&#45;&gt;Node18</title>
<path fill="none" stroke="midnightblue" d="M2594.55,-271.686C2710.66,-259.564 2952.28,-233.399 2968.16,-224 3016.8,-195.212 3035.02,-124.721 3041.25,-89.5938"/>
<polygon fill="midnightblue" stroke="midnightblue" points="3044.73,-89.9587 3042.87,-79.5291 3037.82,-88.8447 3044.73,-89.9587"/>
</g>
<!-- Node15&#45;&gt;Node19 -->
<g id="edge66" class="edge"><title>Node15&#45;&gt;Node19</title>
<path fill="none" stroke="midnightblue" d="M2516.61,-260.958C2481.6,-226.2 2395.85,-147.739 2306.16,-116 2181.29,-71.8085 1843.35,-88.6 1711.16,-80 1664.24,-76.9473 1609.51,-73.0648 1578.33,-70.8231"/>
<polygon fill="midnightblue" stroke="midnightblue" points="1578.2,-67.3044 1567.97,-70.0761 1577.69,-74.2863 1578.2,-67.3044"/>
</g>
<!-- Node20 -->
<g id="node46" class="node"><title>Node20</title>
<a xlink:href="shared__ptr__container_8h.html" target="_top" xlink:title="base/std_ext/shared\l_ptr_container.h">
<polygon fill="white" stroke="black" points="2509.66,-117 2509.66,-151 2614.66,-151 2614.66,-117 2509.66,-117"/>
<text text-anchor="start" x="2517.66" y="-138" font-family="Helvetica,sans-Serif" font-size="10.00">base/std_ext/shared</text>
<text text-anchor="middle" x="2562.16" y="-125" font-family="Helvetica,sans-Serif" font-size="10.00">_ptr_container.h</text>
</a>
</g>
<!-- Node15&#45;&gt;Node20 -->
<g id="edge52" class="edge"><title>Node15&#45;&gt;Node20</title>
<path fill="none" stroke="midnightblue" d="M2536.6,-260.916C2541.57,-236.233 2550.81,-190.351 2556.72,-161.041"/>
<polygon fill="midnightblue" stroke="midnightblue" points="2560.18,-161.556 2558.73,-151.062 2553.32,-160.174 2560.18,-161.556"/>
</g>
<!-- Node15&#45;&gt;Node21 -->
<g id="edge68" class="edge"><title>Node15&#45;&gt;Node21</title>
<path fill="none" stroke="midnightblue" d="M2524.32,-260.897C2504.5,-222.529 2456.56,-129.766 2435.44,-88.899"/>
<polygon fill="midnightblue" stroke="midnightblue" points="2438.5,-87.1854 2430.8,-79.9082 2432.28,-90.399 2438.5,-87.1854"/>
</g>
<!-- Node15&#45;&gt;Node23 -->
<g id="edge64" class="edge"><title>Node15&#45;&gt;Node23</title>
<path fill="none" stroke="midnightblue" d="M2594.29,-271.291C2732.25,-256.149 3063.38,-219.805 3161.39,-209.049"/>
<polygon fill="midnightblue" stroke="midnightblue" points="3161.84,-212.519 3171.4,-207.949 3161.08,-205.561 3161.84,-212.519"/>
</g>
<!-- Node16&#45;&gt;Node6 -->
<g id="edge46" class="edge"><title>Node16&#45;&gt;Node6</title>
<path fill="none" stroke="midnightblue" d="M2788.74,-188.695C2762.59,-152.28 2702.07,-67.9764 2674.85,-30.0691"/>
<polygon fill="midnightblue" stroke="midnightblue" points="2677.66,-27.9773 2668.98,-21.8953 2671.97,-32.0598 2677.66,-27.9773"/>
</g>
<!-- Node16&#45;&gt;Node14 -->
<g id="edge50" class="edge"><title>Node16&#45;&gt;Node14</title>
<path fill="none" stroke="midnightblue" d="M2746.04,-204.781C2432.57,-197.81 886.909,-162.937 839.162,-152 835.455,-151.151 831.672,-149.948 827.984,-148.562"/>
<polygon fill="midnightblue" stroke="midnightblue" points="829.135,-145.248 818.561,-144.581 826.411,-151.697 829.135,-145.248"/>
</g>
<!-- Node17 -->
<g id="node37" class="node"><title>Node17</title>
<a xlink:href="memory_8h.html" target="_top" xlink:title="base/std_ext/memory.h">
<polygon fill="white" stroke="black" points="2783.66,-123.5 2783.66,-144.5 2902.66,-144.5 2902.66,-123.5 2783.66,-123.5"/>
<text text-anchor="middle" x="2843.16" y="-131.5" font-family="Helvetica,sans-Serif" font-size="10.00">base/std_ext/memory.h</text>
</a>
</g>
<!-- Node16&#45;&gt;Node17 -->
<g id="edge40" class="edge"><title>Node16&#45;&gt;Node17</title>
<path fill="none" stroke="midnightblue" d="M2811.12,-188.937C2817.27,-178.387 2825.19,-164.805 2831.62,-153.785"/>
<polygon fill="midnightblue" stroke="midnightblue" points="2834.79,-155.302 2836.8,-144.901 2828.74,-151.775 2834.79,-155.302"/>
</g>
<!-- Node16&#45;&gt;Node18 -->
<g id="edge48" class="edge"><title>Node16&#45;&gt;Node18</title>
<path fill="none" stroke="midnightblue" d="M2856.39,-189.916C2883.77,-180.773 2916.75,-167.947 2944.16,-152 2961.07,-142.163 3000.95,-107.573 3024.93,-86.2749"/>
<polygon fill="midnightblue" stroke="midnightblue" points="3027.26,-88.8849 3032.39,-79.6167 3022.6,-83.6609 3027.26,-88.8849"/>
</g>
<!-- Node17&#45;&gt;Node18 -->
<g id="edge42" class="edge"><title>Node17&#45;&gt;Node18</title>
<path fill="none" stroke="midnightblue" d="M2875.9,-123.412C2912.36,-111.623 2971.08,-92.6335 3008.63,-80.4911"/>
<polygon fill="midnightblue" stroke="midnightblue" points="3009.72,-83.8171 3018.16,-77.4099 3007.56,-77.1567 3009.72,-83.8171"/>
</g>
<!-- Node17&#45;&gt;Node19 -->
<g id="edge44" class="edge"><title>Node17&#45;&gt;Node19</title>
<path fill="none" stroke="midnightblue" d="M2783.45,-128.43C2739.23,-124.471 2677.48,-119.293 2623.16,-116 2218.26,-91.4551 2116.21,-102.089 1711.16,-80 1664.21,-77.4396 1609.49,-73.3917 1578.32,-70.986"/>
<polygon fill="midnightblue" stroke="midnightblue" points="1578.21,-67.4664 1567.97,-70.1797 1577.66,-74.4453 1578.21,-67.4664"/>
</g>
<!-- Node20&#45;&gt;Node6 -->
<g id="edge54" class="edge"><title>Node20&#45;&gt;Node6</title>
<path fill="none" stroke="midnightblue" d="M2575.93,-116.897C2594.38,-93.9693 2627.02,-53.4127 2646.11,-29.6984"/>
<polygon fill="midnightblue" stroke="midnightblue" points="2648.94,-31.7721 2652.48,-21.7875 2643.48,-27.3831 2648.94,-31.7721"/>
</g>
<!-- Node20&#45;&gt;Node18 -->
<g id="edge56" class="edge"><title>Node20&#45;&gt;Node18</title>
<path fill="none" stroke="midnightblue" d="M2615.12,-126.858C2713.86,-113.543 2923.65,-85.2511 3007.97,-73.8812"/>
<polygon fill="midnightblue" stroke="midnightblue" points="3008.63,-77.3228 3018.08,-72.5176 3007.7,-70.3856 3008.63,-77.3228"/>
</g>
<!-- Node20&#45;&gt;Node21 -->
<g id="edge58" class="edge"><title>Node20&#45;&gt;Node21</title>
<path fill="none" stroke="midnightblue" d="M2526.17,-116.922C2504.68,-106.726 2477.63,-93.8936 2456.93,-84.0744"/>
<polygon fill="midnightblue" stroke="midnightblue" points="2458.16,-80.7828 2447.63,-79.6584 2455.16,-87.1071 2458.16,-80.7828"/>
</g>
<!-- Node22 -->
<g id="node52" class="node"><title>Node22</title>
<polygon fill="white" stroke="#bfbfbf" points="1705.16,-0.5 1705.16,-21.5 1761.16,-21.5 1761.16,-0.5 1705.16,-0.5"/>
<text text-anchor="middle" x="1733.16" y="-8.5" font-family="Helvetica,sans-Serif" font-size="10.00">algorithm</text>
</g>
<!-- Node20&#45;&gt;Node22 -->
<g id="edge60" class="edge"><title>Node20&#45;&gt;Node22</title>
<path fill="none" stroke="midnightblue" d="M2546.21,-116.786C2528.08,-98.5142 2496.63,-70.5781 2463.16,-58 2398.28,-33.6147 1913.17,-16.6399 1771.75,-12.1705"/>
<polygon fill="midnightblue" stroke="midnightblue" points="1771.51,-8.66146 1761.41,-11.8467 1771.29,-15.658 1771.51,-8.66146"/>
</g>
<!-- Node24&#45;&gt;Node6 -->
<g id="edge166" class="edge"><title>Node24&#45;&gt;Node6</title>
<path fill="none" stroke="midnightblue" d="M2362.69,-338.759C2463.61,-331.188 2663.99,-314.405 2732.16,-296 2770.2,-285.732 2775.37,-271.13 2813.16,-260 2912.84,-230.645 2955.58,-278.306 3044.16,-224 3077.81,-203.369 3084.02,-189.558 3096.16,-152 3109.22,-111.604 3111.67,-85.3124 3079.16,-58 3049.75,-33.2866 2786.29,-17.4463 2693.4,-12.589"/>
<polygon fill="midnightblue" stroke="midnightblue" points="2693.36,-9.08246 2683.19,-12.0638 2693,-16.0732 2693.36,-9.08246"/>
</g>
<!-- Node24&#45;&gt;Node15 -->
<g id="edge72" class="edge"><title>Node24&#45;&gt;Node15</title>
<path fill="none" stroke="midnightblue" d="M2340.37,-332.484C2373.38,-323.157 2422.47,-309.282 2462.86,-297.868"/>
<polygon fill="midnightblue" stroke="midnightblue" points="2463.99,-301.186 2472.66,-295.099 2462.08,-294.45 2463.99,-301.186"/>
</g>
<!-- Node25 -->
<g id="node62" class="node"><title>Node25</title>
<a xlink:href="_manager__traits_8h.html" target="_top" xlink:title="calibration/gui/Manager\l_traits.h">
<polygon fill="white" stroke="black" points="1883.66,-261 1883.66,-295 2000.66,-295 2000.66,-261 1883.66,-261"/>
<text text-anchor="start" x="1891.66" y="-282" font-family="Helvetica,sans-Serif" font-size="10.00">calibration/gui/Manager</text>
<text text-anchor="middle" x="1942.16" y="-269" font-family="Helvetica,sans-Serif" font-size="10.00">_traits.h</text>
</a>
</g>
<!-- Node24&#45;&gt;Node25 -->
<g id="edge74" class="edge"><title>Node24&#45;&gt;Node25</title>
<path fill="none" stroke="midnightblue" d="M2244.76,-332.484C2180.89,-320.984 2078.62,-302.57 2010.92,-290.381"/>
<polygon fill="midnightblue" stroke="midnightblue" points="2011.24,-286.882 2000.78,-288.554 2010,-293.771 2011.24,-286.882"/>
</g>
<!-- Node25&#45;&gt;Node13 -->
<g id="edge160" class="edge"><title>Node25&#45;&gt;Node13</title>
<path fill="none" stroke="midnightblue" d="M1883.61,-277.826C1613.72,-276.782 500.337,-269.708 443.162,-224 384.357,-176.989 385.378,-75.4796 388.883,-31.7424"/>
<polygon fill="midnightblue" stroke="midnightblue" points="392.375,-31.9893 389.817,-21.708 385.405,-31.3405 392.375,-31.9893"/>
</g>
<!-- Node25&#45;&gt;Node18 -->
<g id="edge164" class="edge"><title>Node25&#45;&gt;Node18</title>
<path fill="none" stroke="midnightblue" d="M2000.93,-276.256C2191.26,-270.372 2783.21,-250.154 2865.16,-224 2922.61,-205.667 2935.5,-192.512 2980.16,-152 3001.28,-132.846 3020.52,-106.045 3032.27,-88.1341"/>
<polygon fill="midnightblue" stroke="midnightblue" points="3035.25,-89.9724 3037.71,-79.6656 3029.36,-86.1926 3035.25,-89.9724"/>
</g>
<!-- Node25&#45;&gt;Node19 -->
<g id="edge162" class="edge"><title>Node25&#45;&gt;Node19</title>
<path fill="none" stroke="midnightblue" d="M2000.79,-265.068C2095.31,-241.733 2264.3,-188.217 2197.16,-116 2195.82,-114.552 1696.19,-79.1188 1578.01,-70.7565"/>
<polygon fill="midnightblue" stroke="midnightblue" points="1578.01,-67.2482 1567.79,-70.0338 1577.52,-74.2308 1578.01,-67.2482"/>
</g>
<!-- Node26 -->
<g id="node64" class="node"><title>Node26</title>
<a xlink:href="interval_8h.html" target="_top" xlink:title="base/interval.h">
<polygon fill="white" stroke="black" points="1288.16,-195.5 1288.16,-216.5 1368.16,-216.5 1368.16,-195.5 1288.16,-195.5"/>
<text text-anchor="middle" x="1328.16" y="-203.5" font-family="Helvetica,sans-Serif" font-size="10.00">base/interval.h</text>
</a>
</g>
<!-- Node25&#45;&gt;Node26 -->
<g id="edge76" class="edge"><title>Node25&#45;&gt;Node26</title>
<path fill="none" stroke="midnightblue" d="M1883.57,-271.129C1763.52,-257.052 1491.44,-225.147 1378.63,-211.918"/>
<polygon fill="midnightblue" stroke="midnightblue" points="1378.88,-208.424 1368.54,-210.735 1378.07,-215.376 1378.88,-208.424"/>
</g>
<!-- Node30 -->
<g id="node75" class="node"><title>Node30</title>
<a xlink:href="_wrap_t_file_8h.html" target="_top" xlink:title="base/WrapTFile.h">
<polygon fill="white" stroke="black" points="1895.16,-195.5 1895.16,-216.5 1989.16,-216.5 1989.16,-195.5 1895.16,-195.5"/>
<text text-anchor="middle" x="1942.16" y="-203.5" font-family="Helvetica,sans-Serif" font-size="10.00">base/WrapTFile.h</text>
</a>
</g>
<!-- Node25&#45;&gt;Node30 -->
<g id="edge90" class="edge"><title>Node25&#45;&gt;Node30</title>
<path fill="none" stroke="midnightblue" d="M1942.16,-260.937C1942.16,-250.814 1942.16,-237.898 1942.16,-227.133"/>
<polygon fill="midnightblue" stroke="midnightblue" points="1945.66,-226.901 1942.16,-216.901 1938.66,-226.901 1945.66,-226.901"/>
</g>
<!-- Node25&#45;&gt;Node41 -->
<g id="edge132" class="edge"><title>Node25&#45;&gt;Node41</title>
<path fill="none" stroke="midnightblue" d="M1883.66,-273.441C1711.05,-259.991 1206.75,-220.695 1059.18,-209.196"/>
<polygon fill="midnightblue" stroke="midnightblue" points="1059.02,-205.673 1048.78,-208.386 1058.48,-212.652 1059.02,-205.673"/>
</g>
<!-- Node26&#45;&gt;Node5 -->
<g id="edge78" class="edge"><title>Node26&#45;&gt;Node5</title>
<path fill="none" stroke="midnightblue" d="M1324.97,-195.351C1318.47,-175.727 1301.65,-134.205 1271.16,-116 1222.29,-86.8201 816.853,-85.0822 760.162,-80 744.746,-78.618 728.032,-76.891 712.72,-75.2179"/>
<polygon fill="midnightblue" stroke="midnightblue" points="712.702,-71.6945 702.377,-74.0731 711.931,-78.6521 712.702,-71.6945"/>
</g>
<!-- Node26&#45;&gt;Node12 -->
<g id="edge84" class="edge"><title>Node26&#45;&gt;Node12</title>
<path fill="none" stroke="midnightblue" d="M1314.14,-195.376C1298.71,-183.678 1273.68,-164.705 1255.52,-150.948"/>
<polygon fill="midnightblue" stroke="midnightblue" points="1257.32,-147.918 1247.24,-144.667 1253.09,-153.497 1257.32,-147.918"/>
</g>
<!-- Node26&#45;&gt;Node22 -->
<g id="edge82" class="edge"><title>Node26&#45;&gt;Node22</title>
<path fill="none" stroke="midnightblue" d="M1327.22,-195.33C1326.2,-176.765 1326.9,-138.371 1347.16,-116 1394.2,-64.063 1606.93,-28.763 1694.9,-16.1431"/>
<polygon fill="midnightblue" stroke="midnightblue" points="1695.58,-19.5821 1704.99,-14.717 1694.6,-12.651 1695.58,-19.5821"/>
</g>
<!-- Node27 -->
<g id="node67" class="node"><title>Node27</title>
<a xlink:href="types_8h.html" target="_top" xlink:title="types.h">
<polygon fill="white" stroke="black" points="1421.66,-123.5 1421.66,-144.5 1470.66,-144.5 1470.66,-123.5 1421.66,-123.5"/>
<text text-anchor="middle" x="1446.16" y="-131.5" font-family="Helvetica,sans-Serif" font-size="10.00">types.h</text>
</a>
</g>
<!-- Node26&#45;&gt;Node27 -->
<g id="edge80" class="edge"><title>Node26&#45;&gt;Node27</title>
<path fill="none" stroke="midnightblue" d="M1345.57,-195.376C1365.18,-183.412 1397.26,-163.839 1419.91,-150.018"/>
<polygon fill="midnightblue" stroke="midnightblue" points="1421.97,-152.864 1428.68,-144.667 1418.32,-146.888 1421.97,-152.864"/>
</g>
<!-- Node28 -->
<g id="node71" class="node"><title>Node28</title>
<polygon fill="white" stroke="#bfbfbf" points="122.162,-123.5 122.162,-144.5 162.162,-144.5 162.162,-123.5 122.162,-123.5"/>
<text text-anchor="middle" x="142.162" y="-131.5" font-family="Helvetica,sans-Serif" font-size="10.00">limits</text>
</g>
<!-- Node26&#45;&gt;Node28 -->
<g id="edge86" class="edge"><title>Node26&#45;&gt;Node28</title>
<path fill="none" stroke="midnightblue" d="M1287.78,-203.015C1234.84,-199.172 1139.09,-192.459 1057.16,-188 680.491,-167.498 582.016,-209.283 209.162,-152 196.948,-150.124 183.764,-146.86 172.348,-143.623"/>
<polygon fill="midnightblue" stroke="midnightblue" points="173.021,-140.173 162.439,-140.698 171.039,-146.886 173.021,-140.173"/>
</g>
<!-- Node29 -->
<g id="node73" class="node"><title>Node29</title>
<polygon fill="white" stroke="#bfbfbf" points="1355.66,-123.5 1355.66,-144.5 1404.66,-144.5 1404.66,-123.5 1355.66,-123.5"/>
<text text-anchor="middle" x="1380.16" y="-131.5" font-family="Helvetica,sans-Serif" font-size="10.00">istream</text>
</g>
<!-- Node26&#45;&gt;Node29 -->
<g id="edge88" class="edge"><title>Node26&#45;&gt;Node29</title>
<path fill="none" stroke="midnightblue" d="M1335.83,-195.376C1343.9,-184.209 1356.75,-166.415 1366.54,-152.855"/>
<polygon fill="midnightblue" stroke="midnightblue" points="1369.44,-154.823 1372.46,-144.667 1363.77,-150.725 1369.44,-154.823"/>
</g>
<!-- Node30&#45;&gt;Node12 -->
<g id="edge128" class="edge"><title>Node30&#45;&gt;Node12</title>
<path fill="none" stroke="midnightblue" d="M1895,-202.784C1794.21,-195.679 1550.45,-177.246 1347.16,-152 1322.44,-148.93 1294.85,-144.597 1273,-140.952"/>
<polygon fill="midnightblue" stroke="midnightblue" points="1273.53,-137.492 1263.09,-139.279 1272.37,-144.394 1273.53,-137.492"/>
</g>
<!-- Node30&#45;&gt;Node13 -->
<g id="edge124" class="edge"><title>Node30&#45;&gt;Node13</title>
<path fill="none" stroke="midnightblue" d="M1895.13,-202.663C1819.02,-196.479 1673.15,-181.135 1631.16,-152 1591.4,-124.404 1617.69,-82.8694 1576.16,-58 1530.76,-30.8067 677.041,-24.248 624.162,-22 551.649,-18.9173 466.468,-14.7596 421.897,-12.5429"/>
<polygon fill="midnightblue" stroke="midnightblue" points="421.892,-9.03844 411.73,-12.0359 421.543,-16.0298 421.892,-9.03844"/>
</g>
<!-- Node30&#45;&gt;Node18 -->
<g id="edge122" class="edge"><title>Node30&#45;&gt;Node18</title>
<path fill="none" stroke="midnightblue" d="M1989.62,-203.765C2127.69,-197.049 2527.55,-176.019 2656.16,-152 2710.48,-141.856 2721.4,-128.778 2775.16,-116 2857.58,-96.409 2956,-81.2683 3007.93,-73.9102"/>
<polygon fill="midnightblue" stroke="midnightblue" points="3008.56,-77.3558 3017.98,-72.5013 3007.59,-70.4235 3008.56,-77.3558"/>
</g>
<!-- Node30&#45;&gt;Node19 -->
<g id="edge126" class="edge"><title>Node30&#45;&gt;Node19</title>
<path fill="none" stroke="midnightblue" d="M1895.04,-203.708C1812.28,-198.863 1645.14,-185.172 1598.16,-152 1576.92,-137.002 1564.73,-108.723 1558.52,-89.3805"/>
<polygon fill="midnightblue" stroke="midnightblue" points="1561.85,-88.3001 1555.67,-79.695 1555.14,-90.2763 1561.85,-88.3001"/>
</g>
<!-- Node30&#45;&gt;Node21 -->
<g id="edge130" class="edge"><title>Node30&#45;&gt;Node21</title>
<path fill="none" stroke="midnightblue" d="M1989.51,-199.441C2044.83,-191.152 2138.76,-175.122 2217.16,-152 2281.24,-133.102 2353.01,-102.179 2393.27,-83.888"/>
<polygon fill="midnightblue" stroke="midnightblue" points="2394.93,-86.9783 2402.57,-79.635 2392.02,-80.6129 2394.93,-86.9783"/>
</g>
<!-- Node31 -->
<g id="node77" class="node"><title>Node31</title>
<a xlink:href="string_8h.html" target="_top" xlink:title="base/std_ext/string.h">
<polygon fill="white" stroke="black" points="1720.16,-58.5 1720.16,-79.5 1828.16,-79.5 1828.16,-58.5 1720.16,-58.5"/>
<text text-anchor="middle" x="1774.16" y="-66.5" font-family="Helvetica,sans-Serif" font-size="10.00">base/std_ext/string.h</text>
</a>
</g>
<!-- Node30&#45;&gt;Node31 -->
<g id="edge92" class="edge"><title>Node30&#45;&gt;Node31</title>
<path fill="none" stroke="midnightblue" d="M1989.5,-204.651C2078.94,-200.525 2258.51,-183.791 2197.16,-116 2171.66,-87.824 1908.26,-85.628 1838.5,-79.7888"/>
<polygon fill="midnightblue" stroke="midnightblue" points="1838.73,-76.2938 1828.42,-78.733 1838,-83.2558 1838.73,-76.2938"/>
</g>
<!-- Node33 -->
<g id="node84" class="node"><title>Node33</title>
<a xlink:href="misc_8h.html" target="_top" xlink:title="base/std_ext/misc.h">
<polygon fill="white" stroke="black" points="1639.66,-123.5 1639.66,-144.5 1744.66,-144.5 1744.66,-123.5 1639.66,-123.5"/>
<text text-anchor="middle" x="1692.16" y="-131.5" font-family="Helvetica,sans-Serif" font-size="10.00">base/std_ext/misc.h</text>
</a>
</g>
<!-- Node30&#45;&gt;Node33 -->
<g id="edge102" class="edge"><title>Node30&#45;&gt;Node33</title>
<path fill="none" stroke="midnightblue" d="M1904.84,-195.439C1866.7,-184.622 1805.76,-167.274 1753.16,-152 1748.12,-150.536 1742.85,-148.996 1737.61,-147.457"/>
<polygon fill="midnightblue" stroke="midnightblue" points="1738.21,-143.986 1727.63,-144.522 1736.23,-150.702 1738.21,-143.986"/>
</g>
<!-- Node35 -->
<g id="node90" class="node"><title>Node35</title>
<polygon fill="white" stroke="#bfbfbf" points="1983.66,-123.5 1983.66,-144.5 2030.66,-144.5 2030.66,-123.5 1983.66,-123.5"/>
<text text-anchor="middle" x="2007.16" y="-131.5" font-family="Helvetica,sans-Serif" font-size="10.00">TFile.h</text>
</g>
<!-- Node30&#45;&gt;Node35 -->
<g id="edge110" class="edge"><title>Node30&#45;&gt;Node35</title>
<path fill="none" stroke="midnightblue" d="M1951.75,-195.376C1961.93,-184.103 1978.21,-166.075 1990.49,-152.468"/>
<polygon fill="midnightblue" stroke="midnightblue" points="1993.43,-154.436 1997.53,-144.667 1988.23,-149.745 1993.43,-154.436"/>
</g>
<!-- Node36 -->
<g id="node92" class="node"><title>Node36</title>
<polygon fill="white" stroke="#bfbfbf" points="2047.66,-123.5 2047.66,-144.5 2118.66,-144.5 2118.66,-123.5 2047.66,-123.5"/>
<text text-anchor="middle" x="2083.16" y="-131.5" font-family="Helvetica,sans-Serif" font-size="10.00">TDirectory.h</text>
</g>
<!-- Node30&#45;&gt;Node36 -->
<g id="edge112" class="edge"><title>Node30&#45;&gt;Node36</title>
<path fill="none" stroke="midnightblue" d="M1962.97,-195.376C1986.81,-183.199 2026.09,-163.141 2053.23,-149.286"/>
<polygon fill="midnightblue" stroke="midnightblue" points="2054.96,-152.332 2062.27,-144.667 2051.77,-146.098 2054.96,-152.332"/>
</g>
<!-- Node37 -->
<g id="node94" class="node"><title>Node37</title>
<polygon fill="white" stroke="#bfbfbf" points="2136.16,-123.5 2136.16,-144.5 2188.16,-144.5 2188.16,-123.5 2136.16,-123.5"/>
<text text-anchor="middle" x="2162.16" y="-131.5" font-family="Helvetica,sans-Serif" font-size="10.00">TError.h</text>
</g>
<!-- Node30&#45;&gt;Node37 -->
<g id="edge114" class="edge"><title>Node30&#45;&gt;Node37</title>
<path fill="none" stroke="midnightblue" d="M1987.07,-195.455C2025.04,-185.936 2080.55,-170.593 2127.16,-152 2129.41,-151.103 2131.71,-150.109 2134,-149.063"/>
<polygon fill="midnightblue" stroke="midnightblue" points="2135.75,-152.101 2143.21,-144.578 2132.69,-145.807 2135.75,-152.101"/>
</g>
<!-- Node38 -->
<g id="node96" class="node"><title>Node38</title>
<polygon fill="white" stroke="#bfbfbf" points="1761.66,-123.5 1761.66,-144.5 1808.66,-144.5 1808.66,-123.5 1761.66,-123.5"/>
<text text-anchor="middle" x="1785.16" y="-131.5" font-family="Helvetica,sans-Serif" font-size="10.00">TList.h</text>
</g>
<!-- Node30&#45;&gt;Node38 -->
<g id="edge116" class="edge"><title>Node30&#45;&gt;Node38</title>
<path fill="none" stroke="midnightblue" d="M1915.46,-195.413C1889.9,-185.056 1850.42,-168.48 1817.16,-152 1815.59,-151.222 1813.99,-150.403 1812.38,-149.561"/>
<polygon fill="midnightblue" stroke="midnightblue" points="1813.72,-146.307 1803.26,-144.615 1810.38,-152.46 1813.72,-146.307"/>
</g>
<!-- Node39 -->
<g id="node98" class="node"><title>Node39</title>
<polygon fill="white" stroke="#bfbfbf" points="1826.16,-123.5 1826.16,-144.5 1900.16,-144.5 1900.16,-123.5 1826.16,-123.5"/>
<text text-anchor="middle" x="1863.16" y="-131.5" font-family="Helvetica,sans-Serif" font-size="10.00">TCollection.h</text>
</g>
<!-- Node30&#45;&gt;Node39 -->
<g id="edge118" class="edge"><title>Node30&#45;&gt;Node39</title>
<path fill="none" stroke="midnightblue" d="M1930.51,-195.376C1917.9,-183.89 1897.61,-165.393 1882.59,-151.703"/>
<polygon fill="midnightblue" stroke="midnightblue" points="1884.62,-148.817 1874.87,-144.667 1879.9,-153.99 1884.62,-148.817"/>
</g>
<!-- Node40 -->
<g id="node100" class="node"><title>Node40</title>
<polygon fill="white" stroke="#bfbfbf" points="1918.16,-123.5 1918.16,-144.5 1966.16,-144.5 1966.16,-123.5 1918.16,-123.5"/>
<text text-anchor="middle" x="1942.16" y="-131.5" font-family="Helvetica,sans-Serif" font-size="10.00">TKey.h</text>
</g>
<!-- Node30&#45;&gt;Node40 -->
<g id="edge120" class="edge"><title>Node30&#45;&gt;Node40</title>
<path fill="none" stroke="midnightblue" d="M1942.16,-195.376C1942.16,-184.741 1942.16,-168.095 1942.16,-154.82"/>
<polygon fill="midnightblue" stroke="midnightblue" points="1945.66,-154.667 1942.16,-144.667 1938.66,-154.667 1945.66,-154.667"/>
</g>
<!-- Node31&#45;&gt;Node6 -->
<g id="edge100" class="edge"><title>Node31&#45;&gt;Node6</title>
<path fill="none" stroke="midnightblue" d="M1828.4,-59.1189C1831.36,-58.7083 1834.29,-58.331 1837.16,-58 2144.01,-22.581 2518.37,-13.4857 2628.96,-11.4963"/>
<polygon fill="midnightblue" stroke="midnightblue" points="2629.18,-14.9931 2639.12,-11.3204 2629.06,-7.99412 2629.18,-14.9931"/>
</g>
<!-- Node31&#45;&gt;Node13 -->
<g id="edge94" class="edge"><title>Node31&#45;&gt;Node13</title>
<path fill="none" stroke="midnightblue" d="M1720.07,-64.4804C1692.06,-62.2666 1657.29,-59.7154 1626.16,-58 1181.22,-33.4808 1069.4,-40.5075 624.162,-22 551.646,-18.9857 466.466,-14.8006 421.896,-12.5614"/>
<polygon fill="midnightblue" stroke="midnightblue" points="421.893,-9.05687 411.73,-12.0489 421.541,-16.048 421.893,-9.05687"/>
</g>
<!-- Node31&#45;&gt;Node22 -->
<g id="edge98" class="edge"><title>Node31&#45;&gt;Node22</title>
<path fill="none" stroke="midnightblue" d="M1766.64,-58.3619C1761.04,-50.4313 1753.23,-39.3885 1746.57,-29.9606"/>
<polygon fill="midnightblue" stroke="midnightblue" points="1749.26,-27.7161 1740.63,-21.5707 1743.55,-31.7568 1749.26,-27.7161"/>
</g>
<!-- Node32 -->
<g id="node80" class="node"><title>Node32</title>
<polygon fill="white" stroke="#bfbfbf" points="3045.16,-0.5 3045.16,-21.5 3097.16,-21.5 3097.16,-0.5 3045.16,-0.5"/>
<text text-anchor="middle" x="3071.16" y="-8.5" font-family="Helvetica,sans-Serif" font-size="10.00">sstream</text>
</g>
<!-- Node31&#45;&gt;Node32 -->
<g id="edge96" class="edge"><title>Node31&#45;&gt;Node32</title>
<path fill="none" stroke="midnightblue" d="M1828.39,-59.0532C1831.35,-58.6595 1834.29,-58.3039 1837.16,-58 1958.79,-45.1252 2844.01,-17.8605 3034.93,-12.0879"/>
<polygon fill="midnightblue" stroke="midnightblue" points="3035.12,-15.5841 3045.01,-11.7838 3034.91,-8.58725 3035.12,-15.5841"/>
</g>
<!-- Node33&#45;&gt;Node21 -->
<g id="edge106" class="edge"><title>Node33&#45;&gt;Node21</title>
<path fill="none" stroke="midnightblue" d="M1723.19,-123.428C1732.71,-120.573 1743.27,-117.783 1753.16,-116 1875.76,-93.8952 2259.7,-76.0318 2385.1,-70.659"/>
<polygon fill="midnightblue" stroke="midnightblue" points="2385.55,-74.143 2395.39,-70.2212 2385.25,-67.1494 2385.55,-74.143"/>
</g>
<!-- Node33&#45;&gt;Node22 -->
<g id="edge104" class="edge"><title>Node33&#45;&gt;Node22</title>
<path fill="none" stroke="midnightblue" d="M1694.12,-123.486C1697.04,-108.644 1703.06,-80.8119 1711.16,-58 1714.42,-48.8261 1718.85,-39.0224 1722.88,-30.7554"/>
<polygon fill="midnightblue" stroke="midnightblue" points="1726.13,-32.0859 1727.49,-21.5791 1719.87,-28.9428 1726.13,-32.0859"/>
</g>
<!-- Node34 -->
<g id="node88" class="node"><title>Node34</title>
<polygon fill="white" stroke="#bfbfbf" points="1845.66,-58.5 1845.66,-79.5 1898.66,-79.5 1898.66,-58.5 1845.66,-58.5"/>
<text text-anchor="middle" x="1872.16" y="-66.5" font-family="Helvetica,sans-Serif" font-size="10.00">cxxabi.h</text>
</g>
<!-- Node33&#45;&gt;Node34 -->
<g id="edge108" class="edge"><title>Node33&#45;&gt;Node34</title>
<path fill="none" stroke="midnightblue" d="M1721.48,-123.412C1752.76,-112.116 1802.35,-94.2099 1836.02,-82.0501"/>
<polygon fill="midnightblue" stroke="midnightblue" points="1837.28,-85.3174 1845.5,-78.629 1834.9,-78.7335 1837.28,-85.3174"/>
</g>
<!-- Node41&#45;&gt;Node5 -->
<g id="edge136" class="edge"><title>Node41&#45;&gt;Node5</title>
<path fill="none" stroke="midnightblue" d="M987.489,-202.015C925.97,-193.677 789.845,-173.382 748.162,-152 717.376,-136.208 689.557,-106.655 673.507,-87.409"/>
<polygon fill="midnightblue" stroke="midnightblue" points="676.204,-85.1777 667.184,-79.6201 670.769,-89.5898 676.204,-85.1777"/>
</g>
<!-- Node41&#45;&gt;Node11 -->
<g id="edge150" class="edge"><title>Node41&#45;&gt;Node11</title>
<path fill="none" stroke="midnightblue" d="M987.566,-202.204C919.844,-193.741 752.178,-172.46 612.162,-152 585.351,-148.082 555.031,-143.229 532.553,-139.55"/>
<polygon fill="midnightblue" stroke="midnightblue" points="532.944,-136.067 522.508,-137.899 531.808,-142.975 532.944,-136.067"/>
</g>
<!-- Node41&#45;&gt;Node12 -->
<g id="edge152" class="edge"><title>Node41&#45;&gt;Node12</title>
<path fill="none" stroke="midnightblue" d="M1048.68,-198.15C1084.33,-188.648 1144.83,-171.48 1195.16,-152 1197.69,-151.021 1200.29,-149.947 1202.88,-148.826"/>
<polygon fill="midnightblue" stroke="midnightblue" points="1204.43,-151.964 1212.1,-144.649 1201.54,-145.588 1204.43,-151.964"/>
</g>
<!-- Node41&#45;&gt;Node14 -->
<g id="edge146" class="edge"><title>Node41&#45;&gt;Node14</title>
<path fill="none" stroke="midnightblue" d="M987.356,-198.017C951.366,-188.39 890.238,-171.104 839.162,-152 836.42,-150.975 833.6,-149.851 830.787,-148.683"/>
<polygon fill="midnightblue" stroke="midnightblue" points="831.941,-145.368 821.373,-144.611 829.162,-151.793 831.941,-145.368"/>
</g>
<!-- Node41&#45;&gt;Node19 -->
<g id="edge154" class="edge"><title>Node41&#45;&gt;Node19</title>
<path fill="none" stroke="midnightblue" d="M1031.32,-195.487C1044.6,-184.779 1065.6,-167.58 1083.16,-152 1100.56,-136.559 1100.05,-125.77 1121.16,-116 1194.57,-82.0356 1448.06,-71.9948 1528.48,-69.629"/>
<polygon fill="midnightblue" stroke="midnightblue" points="1528.74,-73.1231 1538.64,-69.3444 1528.55,-66.1258 1528.74,-73.1231"/>
</g>
<!-- Node42 -->
<g id="node109" class="node"><title>Node42</title>
<polygon fill="white" stroke="#bfbfbf" points="1130.16,-123.5 1130.16,-144.5 1186.16,-144.5 1186.16,-123.5 1130.16,-123.5"/>
<text text-anchor="middle" x="1158.16" y="-131.5" font-family="Helvetica,sans-Serif" font-size="10.00">Rtypes.h</text>
</g>
<!-- Node41&#45;&gt;Node42 -->
<g id="edge134" class="edge"><title>Node41&#45;&gt;Node42</title>
<path fill="none" stroke="midnightblue" d="M1038.82,-195.376C1062.5,-183.199 1101.5,-163.141 1128.44,-149.286"/>
<polygon fill="midnightblue" stroke="midnightblue" points="1130.13,-152.353 1137.42,-144.667 1126.93,-146.128 1130.13,-152.353"/>
</g>
<!-- Node43 -->
<g id="node112" class="node"><title>Node43</title>
<a xlink:href="time_8h.html" target="_top" xlink:title="base/std_ext/time.h">
<polygon fill="white" stroke="black" points="847.662,-123.5 847.662,-144.5 950.662,-144.5 950.662,-123.5 847.662,-123.5"/>
<text text-anchor="middle" x="899.162" y="-131.5" font-family="Helvetica,sans-Serif" font-size="10.00">base/std_ext/time.h</text>
</a>
</g>
<!-- Node41&#45;&gt;Node43 -->
<g id="edge138" class="edge"><title>Node41&#45;&gt;Node43</title>
<path fill="none" stroke="midnightblue" d="M1000.6,-195.376C980.829,-183.412 948.479,-163.839 925.636,-150.018"/>
<polygon fill="midnightblue" stroke="midnightblue" points="927.161,-146.85 916.793,-144.667 923.537,-152.839 927.161,-146.85"/>
</g>
<!-- Node45 -->
<g id="node117" class="node"><title>Node45</title>
<polygon fill="white" stroke="#bfbfbf" points="768.662,-58.5 768.662,-79.5 809.662,-79.5 809.662,-58.5 768.662,-58.5"/>
<text text-anchor="middle" x="789.162" y="-66.5" font-family="Helvetica,sans-Serif" font-size="10.00">ctime</text>
</g>
<!-- Node41&#45;&gt;Node45 -->
<g id="edge158" class="edge"><title>Node41&#45;&gt;Node45</title>
<path fill="none" stroke="midnightblue" d="M987.306,-204.279C924.992,-200.093 787.63,-187.016 759.162,-152 743.795,-133.099 759.085,-105.663 772.881,-87.5822"/>
<polygon fill="midnightblue" stroke="midnightblue" points="775.823,-89.5114 779.393,-79.5363 770.381,-85.1077 775.823,-89.5114"/>
</g>
<!-- Node46 -->
<g id="node120" class="node"><title>Node46</title>
<polygon fill="white" stroke="#bfbfbf" points="968.162,-123.5 968.162,-144.5 1006.16,-144.5 1006.16,-123.5 968.162,-123.5"/>
<text text-anchor="middle" x="987.162" y="-131.5" font-family="Helvetica,sans-Serif" font-size="10.00">tuple</text>
</g>
<!-- Node41&#45;&gt;Node46 -->
<g id="edge148" class="edge"><title>Node41&#45;&gt;Node46</title>
<path fill="none" stroke="midnightblue" d="M1013.59,-195.376C1008.92,-184.528 1001.55,-167.426 995.785,-154.027"/>
<polygon fill="midnightblue" stroke="midnightblue" points="998.924,-152.468 991.755,-144.667 992.495,-155.236 998.924,-152.468"/>
</g>
<!-- Node47 -->
<g id="node125" class="node"><title>Node47</title>
<polygon fill="white" stroke="#bfbfbf" points="1024.16,-123.5 1024.16,-144.5 1074.16,-144.5 1074.16,-123.5 1024.16,-123.5"/>
<text text-anchor="middle" x="1049.16" y="-131.5" font-family="Helvetica,sans-Serif" font-size="10.00">iomanip</text>
</g>
<!-- Node41&#45;&gt;Node47 -->
<g id="edge156" class="edge"><title>Node41&#45;&gt;Node47</title>
<path fill="none" stroke="midnightblue" d="M1022.74,-195.376C1027.41,-184.528 1034.77,-167.426 1040.54,-154.027"/>
<polygon fill="midnightblue" stroke="midnightblue" points="1043.83,-155.236 1044.57,-144.667 1037.4,-152.468 1043.83,-155.236"/>
</g>
<!-- Node43&#45;&gt;Node31 -->
<g id="edge140" class="edge"><title>Node43&#45;&gt;Node31</title>
<path fill="none" stroke="midnightblue" d="M929.353,-123.442C938.788,-120.551 949.309,-117.737 959.162,-116 968.392,-114.373 1519.21,-83.3229 1709.97,-72.6031"/>
<polygon fill="midnightblue" stroke="midnightblue" points="1710.34,-76.0879 1720.13,-72.0323 1709.95,-69.0989 1710.34,-76.0879"/>
</g>
<!-- Node44 -->
<g id="node115" class="node"><title>Node44</title>
<polygon fill="white" stroke="#bfbfbf" points="876.162,-58.5 876.162,-79.5 922.162,-79.5 922.162,-58.5 876.162,-58.5"/>
<text text-anchor="middle" x="899.162" y="-66.5" font-family="Helvetica,sans-Serif" font-size="10.00">cstring</text>
</g>
<!-- Node43&#45;&gt;Node44 -->
<g id="edge142" class="edge"><title>Node43&#45;&gt;Node44</title>
<path fill="none" stroke="midnightblue" d="M899.162,-123.267C899.162,-114.18 899.162,-100.892 899.162,-89.7395"/>
<polygon fill="midnightblue" stroke="midnightblue" points="902.662,-89.5337 899.162,-79.5337 895.662,-89.5337 902.662,-89.5337"/>
</g>
<!-- Node43&#45;&gt;Node45 -->
<g id="edge144" class="edge"><title>Node43&#45;&gt;Node45</title>
<path fill="none" stroke="midnightblue" d="M880.998,-123.267C863.218,-112.76 835.932,-96.6369 815.718,-84.6924"/>
<polygon fill="midnightblue" stroke="midnightblue" points="817.378,-81.6078 806.988,-79.5337 813.817,-87.6343 817.378,-81.6078"/>
</g>
<!-- Node48&#45;&gt;Node18 -->
<g id="edge194" class="edge"><title>Node48&#45;&gt;Node18</title>
<path fill="none" stroke="midnightblue" d="M3165.29,-332.336C3185.4,-307.525 3230.55,-243.79 3215.16,-188 3205.25,-152.07 3200.86,-139.787 3172.16,-116 3145.66,-94.0294 3107.96,-81.8536 3080.34,-75.4342"/>
<polygon fill="midnightblue" stroke="midnightblue" points="3080.81,-71.954 3070.29,-73.2473 3079.32,-78.7939 3080.81,-71.954"/>
</g>
<!-- Node48&#45;&gt;Node19 -->
<g id="edge192" class="edge"><title>Node48&#45;&gt;Node19</title>
<path fill="none" stroke="midnightblue" d="M3112.22,-341.446C2969.38,-336.199 2523.89,-318.215 2463.16,-296 2336.27,-249.583 2344.99,-162.598 2218.16,-116 2216.24,-115.295 1698.58,-79.1447 1578.04,-70.7349"/>
<polygon fill="midnightblue" stroke="midnightblue" points="1578.16,-67.2348 1567.94,-70.0303 1577.67,-74.2178 1578.16,-67.2348"/>
</g>
<!-- Node48&#45;&gt;Node21 -->
<g id="edge196" class="edge"><title>Node48&#45;&gt;Node21</title>
<path fill="none" stroke="midnightblue" d="M3112.58,-338.658C3002.29,-325.988 2706.29,-281.394 2501.16,-152 2500.93,-151.855 2464.32,-111.834 2442.01,-87.425"/>
<polygon fill="midnightblue" stroke="midnightblue" points="2444.39,-84.8446 2435.06,-79.826 2439.22,-89.568 2444.39,-84.8446"/>
</g>
<!-- Node48&#45;&gt;Node23 -->
<g id="edge190" class="edge"><title>Node48&#45;&gt;Node23</title>
<path fill="none" stroke="midnightblue" d="M3158.75,-332.25C3164.22,-309.541 3177.03,-256.348 3184.16,-226.768"/>
<polygon fill="midnightblue" stroke="midnightblue" points="3187.65,-227.242 3186.58,-216.7 3180.84,-225.603 3187.65,-227.242"/>
</g>
<!-- Node48&#45;&gt;Node49 -->
<g id="edge178" class="edge"><title>Node48&#45;&gt;Node49</title>
<path fill="none" stroke="midnightblue" d="M3187.6,-332.412C3220.41,-321.364 3271.99,-303.991 3308.02,-291.857"/>
<polygon fill="midnightblue" stroke="midnightblue" points="3309.38,-295.092 3317.74,-288.584 3307.14,-288.458 3309.38,-295.092"/>
</g>
<!-- Node49&#45;&gt;Node13 -->
<g id="edge180" class="edge"><title>Node49&#45;&gt;Node13</title>
<path fill="none" stroke="midnightblue" d="M3299.84,-276.777C3180.34,-273.819 2865.76,-266.079 2603.16,-260 2242.28,-251.646 1336.82,-272.816 979.162,-224 850.57,-206.449 818.47,-195.414 696.162,-152 591.101,-114.708 472.93,-54.5183 419.769,-26.3991"/>
<polygon fill="midnightblue" stroke="midnightblue" points="421.09,-23.1376 410.617,-21.5345 417.805,-29.3186 421.09,-23.1376"/>
</g>
<!-- Node49&#45;&gt;Node18 -->
<g id="edge182" class="edge"><title>Node49&#45;&gt;Node18</title>
<path fill="none" stroke="midnightblue" d="M3345.16,-267.315C3331.79,-231.621 3289.28,-118.606 3286.16,-116 3255.41,-90.3119 3140.16,-77.0566 3080.49,-71.7901"/>
<polygon fill="midnightblue" stroke="midnightblue" points="3080.63,-68.2898 3070.37,-70.9269 3080.04,-75.2644 3080.63,-68.2898"/>
</g>
<!-- Node49&#45;&gt;Node23 -->
<g id="edge184" class="edge"><title>Node49&#45;&gt;Node23</title>
<path fill="none" stroke="midnightblue" d="M3325.55,-267.376C3296.37,-254.246 3246.83,-231.951 3216.17,-218.153"/>
<polygon fill="midnightblue" stroke="midnightblue" points="3217.48,-214.905 3206.92,-213.993 3214.61,-221.289 3217.48,-214.905"/>
</g>
<!-- Node49&#45;&gt;Node32 -->
<g id="edge188" class="edge"><title>Node49&#45;&gt;Node32</title>
<path fill="none" stroke="midnightblue" d="M3357.25,-267.267C3369.07,-250.187 3388.49,-215.898 3377.16,-188 3360.37,-146.647 3342.17,-143.687 3307.16,-116 3267.77,-84.8396 3255.77,-79.0527 3210.16,-58 3176.38,-42.4051 3135.9,-29.3056 3107.36,-20.9307"/>
<polygon fill="midnightblue" stroke="midnightblue" points="3108,-17.4723 3097.42,-18.0631 3106.06,-24.1979 3108,-17.4723"/>
</g>
<!-- Node50 -->
<g id="node143" class="node"><title>Node50</title>
<polygon fill="white" stroke="#bfbfbf" points="3338.16,-195.5 3338.16,-216.5 3368.16,-216.5 3368.16,-195.5 3338.16,-195.5"/>
<text text-anchor="middle" x="3353.16" y="-203.5" font-family="Helvetica,sans-Serif" font-size="10.00">set</text>
</g>
<!-- Node49&#45;&gt;Node50 -->
<g id="edge186" class="edge"><title>Node49&#45;&gt;Node50</title>
<path fill="none" stroke="midnightblue" d="M3349.75,-267.376C3350.34,-256.741 3351.27,-240.095 3352.01,-226.82"/>
<polygon fill="midnightblue" stroke="midnightblue" points="3355.51,-226.846 3352.57,-216.667 3348.52,-226.458 3355.51,-226.846"/>
</g>
<!-- Node51&#45;&gt;Node3 -->
<g id="edge206" class="edge"><title>Node51&#45;&gt;Node3</title>
<path fill="none" stroke="midnightblue" d="M495.169,-456.751C651.703,-451.207 1057.67,-435.601 1396.16,-412 1413.31,-410.804 1431.81,-409.255 1449.05,-407.698"/>
<polygon fill="midnightblue" stroke="midnightblue" points="1449.4,-411.181 1459.04,-406.784 1448.76,-404.21 1449.4,-411.181"/>
</g>
<!-- Node51&#45;&gt;Node4 -->
<g id="edge208" class="edge"><title>Node51&#45;&gt;Node4</title>
<path fill="none" stroke="midnightblue" d="M410.728,-448.467C398.413,-440.287 383.224,-427.702 376.162,-412 361.577,-379.573 362.754,-364.93 376.162,-332 395.888,-283.554 444.195,-243.579 474.064,-222.395"/>
<polygon fill="midnightblue" stroke="midnightblue" points="476.091,-225.248 482.325,-216.681 472.109,-219.491 476.091,-225.248"/>
</g>
<!-- Node51&#45;&gt;Node6 -->
<g id="edge216" class="edge"><title>Node51&#45;&gt;Node6</title>
<path fill="none" stroke="midnightblue" d="M495.311,-457.364C867.125,-447.954 2680.16,-399.191 2680.16,-343 2680.16,-343 2680.16,-343 2680.16,-134 2680.16,-97.6489 2671.96,-55.9556 2666.33,-31.6403"/>
<polygon fill="midnightblue" stroke="midnightblue" points="2669.7,-30.6818 2663.97,-21.7729 2662.89,-32.3133 2669.7,-30.6818"/>
</g>
<!-- Node51&#45;&gt;Node11 -->
<g id="edge218" class="edge"><title>Node51&#45;&gt;Node11</title>
<path fill="none" stroke="midnightblue" d="M404.032,-448.393C389.214,-440.665 371.735,-428.629 363.162,-412 359.608,-405.106 356.293,-372.038 364.162,-332 378.24,-260.372 395.583,-243.362 443.162,-188 454.354,-174.977 468.242,-161.57 479.387,-151.373"/>
<polygon fill="midnightblue" stroke="midnightblue" points="481.855,-153.861 486.94,-144.567 477.169,-148.661 481.855,-153.861"/>
</g>
<!-- Node51&#45;&gt;Node18 -->
<g id="edge210" class="edge"><title>Node51&#45;&gt;Node18</title>
<path fill="none" stroke="midnightblue" d="M495.461,-457.818C866.181,-451.183 2666.73,-418.64 2694.16,-412 2879.24,-367.199 2945.4,-359.526 3079.16,-224 3114.51,-188.185 3136.69,-160.486 3113.16,-116 3105.84,-102.154 3092.41,-91.6225 3079.32,-84.0746"/>
<polygon fill="midnightblue" stroke="midnightblue" points="3080.87,-80.9346 3070.4,-79.3217 3077.58,-87.1126 3080.87,-80.9346"/>
</g>
<!-- Node51&#45;&gt;Node19 -->
<g id="edge212" class="edge"><title>Node51&#45;&gt;Node19</title>
<path fill="none" stroke="midnightblue" d="M428.079,-448.253C426.282,-425.204 424.846,-370.028 447.162,-332 487.293,-263.615 656.779,-143.462 731.162,-116 807.548,-87.7985 1399.17,-72.565 1528.32,-69.5566"/>
<polygon fill="midnightblue" stroke="midnightblue" points="1528.49,-73.0537 1538.41,-69.3247 1528.33,-66.0555 1528.49,-73.0537"/>
</g>
<!-- Node51&#45;&gt;Node23 -->
<g id="edge214" class="edge"><title>Node51&#45;&gt;Node23</title>
<path fill="none" stroke="midnightblue" d="M495.423,-457.893C889.427,-451.295 2907.45,-417.254 2922.16,-412 2947.87,-402.82 3093.41,-276.492 3115.16,-260 3131.95,-247.268 3151.19,-233.249 3165.84,-222.687"/>
<polygon fill="midnightblue" stroke="midnightblue" points="3168.23,-225.279 3174.3,-216.6 3164.14,-219.596 3168.23,-225.279"/>
</g>
<!-- Node51&#45;&gt;Node28 -->
<g id="edge220" class="edge"><title>Node51&#45;&gt;Node28</title>
<path fill="none" stroke="midnightblue" d="M408.344,-448.382C392.719,-439.822 371.325,-426.801 355.162,-412 349.138,-406.484 203.091,-214.275 156.384,-152.744"/>
<polygon fill="midnightblue" stroke="midnightblue" points="159.076,-150.501 150.243,-144.651 153.5,-154.733 159.076,-150.501"/>
</g>
<!-- Node52 -->
<g id="node152" class="node"><title>Node52</title>
<a xlink:href="_unpacker_8h.html" target="_top" xlink:title="Unpacker.h">
<polygon fill="white" stroke="black" points="455.662,-332.5 455.662,-353.5 522.662,-353.5 522.662,-332.5 455.662,-332.5"/>
<text text-anchor="middle" x="489.162" y="-340.5" font-family="Helvetica,sans-Serif" font-size="10.00">Unpacker.h</text>
</a>
</g>
<!-- Node51&#45;&gt;Node52 -->
<g id="edge200" class="edge"><title>Node51&#45;&gt;Node52</title>
<path fill="none" stroke="midnightblue" d="M434.699,-448.295C444.745,-428.872 466.116,-387.556 478.897,-362.846"/>
<polygon fill="midnightblue" stroke="midnightblue" points="482.153,-364.169 483.638,-353.679 475.935,-360.953 482.153,-364.169"/>
</g>
<!-- Node52&#45;&gt;Node13 -->
<g id="edge202" class="edge"><title>Node52&#45;&gt;Node13</title>
<path fill="none" stroke="midnightblue" d="M481.68,-332.411C468.977,-315.115 441.589,-280.663 411.162,-260 375.181,-235.564 358.119,-245.237 320.162,-224 296.89,-210.979 294.448,-202.643 272.162,-188 245.21,-170.291 225.349,-179.893 209.162,-152 169.62,-83.8622 298.849,-37.0648 360.41,-19.137"/>
<polygon fill="midnightblue" stroke="midnightblue" points="361.701,-22.4091 370.369,-16.3169 359.794,-15.674 361.701,-22.4091"/>
</g>
<!-- Node52&#45;&gt;Node18 -->
<g id="edge204" class="edge"><title>Node52&#45;&gt;Node18</title>
<path fill="none" stroke="midnightblue" d="M522.702,-342.545C717.62,-339.813 1706.41,-324.729 2009.16,-296 2059.68,-291.206 2866.47,-176.042 2911.16,-152 2930.28,-141.717 2926.68,-128.859 2944.16,-116 2963.82,-101.545 2988.63,-89.8519 3008.62,-81.7444"/>
<polygon fill="midnightblue" stroke="midnightblue" points="3009.97,-84.9721 3018,-78.056 3007.41,-78.4575 3009.97,-84.9721"/>
</g>
<!-- Node53&#45;&gt;Node3 -->
<g id="edge226" class="edge"><title>Node53&#45;&gt;Node3</title>
<path fill="none" stroke="midnightblue" d="M1238.73,-448.497C1298.01,-438.385 1387.47,-423.124 1448.9,-412.645"/>
<polygon fill="midnightblue" stroke="midnightblue" points="1449.62,-416.073 1458.89,-410.941 1448.44,-409.172 1449.62,-416.073"/>
</g>
<!-- Node53&#45;&gt;Node4 -->
<g id="edge228" class="edge"><title>Node53&#45;&gt;Node4</title>
<path fill="none" stroke="midnightblue" d="M1103.07,-456.718C959.161,-451.726 652.403,-438.137 612.162,-412 544.818,-368.259 514.225,-269.972 503.685,-226.897"/>
<polygon fill="midnightblue" stroke="midnightblue" points="507.052,-225.923 501.377,-216.975 500.234,-227.508 507.052,-225.923"/>
</g>
<!-- Node53&#45;&gt;Node6 -->
<g id="edge238" class="edge"><title>Node53&#45;&gt;Node6</title>
<path fill="none" stroke="midnightblue" d="M1251.32,-457.947C1581.2,-453.157 2907.19,-432.768 3092.16,-412 3246.26,-394.699 3434.16,-498.063 3434.16,-343 3434.16,-343 3434.16,-343 3434.16,-278 3434.16,-186.512 3385.74,-162.849 3307.16,-116 3225.83,-67.5127 3195.13,-75.9707 3102.16,-58 2951.16,-28.811 2767.32,-16.5582 2693.81,-12.5827"/>
<polygon fill="midnightblue" stroke="midnightblue" points="2693.55,-9.06438 2683.38,-12.0347 2693.19,-16.0547 2693.55,-9.06438"/>
</g>
<!-- Node53&#45;&gt;Node11 -->
<g id="edge240" class="edge"><title>Node53&#45;&gt;Node11</title>
<path fill="none" stroke="midnightblue" d="M1103.14,-451.06C952.866,-433.939 626.162,-391.176 626.162,-343 626.162,-343 626.162,-343 626.162,-278 626.162,-219.153 565.766,-172.988 528.273,-149.999"/>
<polygon fill="midnightblue" stroke="midnightblue" points="529.671,-146.758 519.286,-144.661 526.096,-152.777 529.671,-146.758"/>
</g>
<!-- Node53&#45;&gt;Node18 -->
<g id="edge232" class="edge"><title>Node53&#45;&gt;Node18</title>
<path fill="none" stroke="midnightblue" d="M1251.28,-458.128C1570.54,-454.229 2820.09,-437.466 2994.16,-412 3091.67,-397.735 3141.94,-426.977 3208.16,-354 3279.27,-275.631 3279.35,-187.307 3201.16,-116 3183.38,-99.7839 3120.54,-84.4763 3079.96,-75.9572"/>
<polygon fill="midnightblue" stroke="midnightblue" points="3080.67,-72.5286 3070.16,-73.9412 3079.25,-79.385 3080.67,-72.5286"/>
</g>
<!-- Node53&#45;&gt;Node19 -->
<g id="edge234" class="edge"><title>Node53&#45;&gt;Node19</title>
<path fill="none" stroke="midnightblue" d="M1188.06,-448.311C1227.73,-409.302 1368,-270.686 1479.16,-152 1499.69,-130.083 1522.59,-104.157 1537.4,-87.186"/>
<polygon fill="midnightblue" stroke="midnightblue" points="1540.05,-89.4716 1543.98,-79.6307 1534.77,-84.8759 1540.05,-89.4716"/>
</g>
<!-- Node53&#45;&gt;Node23 -->
<g id="edge236" class="edge"><title>Node53&#45;&gt;Node23</title>
<path fill="none" stroke="midnightblue" d="M1251.37,-458.476C1578.56,-455.98 2879.74,-444.072 2960.16,-412 3060.1,-372.147 3144.39,-267.702 3175.91,-224.805"/>
<polygon fill="midnightblue" stroke="midnightblue" points="3178.8,-226.785 3181.82,-216.631 3173.12,-222.684 3178.8,-226.785"/>
</g>
<!-- Node53&#45;&gt;Node28 -->
<g id="edge242" class="edge"><title>Node53&#45;&gt;Node28</title>
<path fill="none" stroke="midnightblue" d="M1102.9,-458.302C956.843,-456.158 637.454,-447.436 534.162,-412 491.418,-397.336 240.268,-208.386 164.07,-150.646"/>
<polygon fill="midnightblue" stroke="midnightblue" points="166.144,-147.826 156.062,-144.572 161.914,-153.404 166.144,-147.826"/>
</g>
<!-- Node53&#45;&gt;Node42 -->
<g id="edge230" class="edge"><title>Node53&#45;&gt;Node42</title>
<path fill="none" stroke="midnightblue" d="M1171.06,-448.191C1160.31,-428.127 1139.16,-383.477 1139.16,-343 1139.16,-343 1139.16,-343 1139.16,-278 1139.16,-233.895 1148.03,-182.84 1153.65,-154.919"/>
<polygon fill="midnightblue" stroke="midnightblue" points="1157.15,-155.277 1155.76,-144.774 1150.3,-153.854 1157.15,-155.277"/>
</g>
<!-- Node53&#45;&gt;Node52 -->
<g id="edge224" class="edge"><title>Node53&#45;&gt;Node52</title>
<path fill="none" stroke="midnightblue" d="M1102.92,-455.69C952.544,-448.626 622.13,-431.15 574.162,-412 546.553,-400.978 520.951,-377.668 505.21,-361.199"/>
<polygon fill="midnightblue" stroke="midnightblue" points="507.672,-358.707 498.31,-353.748 502.537,-363.463 507.672,-358.707"/>
</g>
<!-- Node54&#45;&gt;Node13 -->
<g id="edge254" class="edge"><title>Node54&#45;&gt;Node13</title>
<path fill="none" stroke="midnightblue" d="M1256.36,-397.137C1068.23,-384.764 533.623,-339.92 410.162,-224 356.88,-173.972 374.31,-74.9279 385.205,-31.8385"/>
<polygon fill="midnightblue" stroke="midnightblue" points="388.654,-32.4915 387.851,-21.9271 381.89,-30.6859 388.654,-32.4915"/>
</g>
<!-- Node54&#45;&gt;Node18 -->
<g id="edge256" class="edge"><title>Node54&#45;&gt;Node18</title>
<path fill="none" stroke="midnightblue" d="M1387.93,-395.292C1407.92,-393.573 1429.94,-391.694 1450.16,-390 1578.25,-379.275 2476.63,-318.6 2603.16,-296 2661.76,-285.534 2673.86,-272.005 2732.16,-260 2849.44,-235.849 2898.88,-289.434 2999.16,-224 3030.57,-203.506 3032.79,-188.039 3043.16,-152 3049.08,-131.438 3048.47,-106.808 3046.91,-89.7447"/>
<polygon fill="midnightblue" stroke="midnightblue" points="3050.39,-89.3005 3045.81,-79.7435 3043.43,-90.0664 3050.39,-89.3005"/>
</g>
<!-- Node54&#45;&gt;Node19 -->
<g id="edge252" class="edge"><title>Node54&#45;&gt;Node19</title>
<path fill="none" stroke="midnightblue" d="M1256.64,-392.602C1077.31,-367.239 602.021,-282.718 759.162,-116 786.196,-87.318 1396.72,-72.4092 1528.31,-69.5228"/>
<polygon fill="midnightblue" stroke="midnightblue" points="1528.65,-73.0164 1538.57,-69.301 1528.5,-66.0181 1528.65,-73.0164"/>
</g>
<!-- Node54&#45;&gt;Node24 -->
<g id="edge250" class="edge"><title>Node54&#45;&gt;Node24</title>
<path fill="none" stroke="midnightblue" d="M1387.91,-394.961C1407.89,-393.23 1429.92,-391.427 1450.16,-390 1740.93,-369.5 2087.98,-352.776 2233.53,-346.112"/>
<polygon fill="midnightblue" stroke="midnightblue" points="2233.83,-349.602 2243.66,-345.649 2233.51,-342.609 2233.83,-349.602"/>
</g>
<!-- Node55&#45;&gt;Node4 -->
<g id="edge266" class="edge"><title>Node55&#45;&gt;Node4</title>
<path fill="none" stroke="midnightblue" d="M228.844,-506.429C213.301,-498.832 195.182,-486.922 186.162,-470 181.562,-461.372 182.531,-457.079 186.162,-448 229.003,-340.877 269.714,-324.81 365.162,-260 391.497,-242.118 424.655,-228.695 451.397,-219.704"/>
<polygon fill="midnightblue" stroke="midnightblue" points="452.514,-223.021 460.935,-216.592 450.343,-216.366 452.514,-223.021"/>
</g>
<!-- Node55&#45;&gt;Node51 -->
<g id="edge268" class="edge"><title>Node55&#45;&gt;Node51</title>
<path fill="none" stroke="midnightblue" d="M287.491,-506.497C315.695,-497.041 357.329,-483.083 388.171,-472.743"/>
<polygon fill="midnightblue" stroke="midnightblue" points="389.405,-476.02 397.774,-469.523 387.18,-469.383 389.405,-476.02"/>
</g>
<!-- Node56&#45;&gt;Node4 -->
<g id="edge272" class="edge"><title>Node56&#45;&gt;Node4</title>
<path fill="none" stroke="midnightblue" d="M355.828,-506.495C347.927,-467.932 326.211,-332.643 392.162,-260 408.718,-241.764 432.841,-228.847 453.992,-220.229"/>
<polygon fill="midnightblue" stroke="midnightblue" points="455.398,-223.438 463.464,-216.568 452.874,-216.908 455.398,-223.438"/>
</g>
<!-- Node56&#45;&gt;Node51 -->
<g id="edge274" class="edge"><title>Node56&#45;&gt;Node51</title>
<path fill="none" stroke="midnightblue" d="M371.184,-506.362C381.593,-497.859 396.381,-485.779 408.417,-475.947"/>
<polygon fill="midnightblue" stroke="midnightblue" points="410.692,-478.608 416.222,-469.571 406.263,-473.187 410.692,-478.608"/>
</g>
<!-- Node57&#45;&gt;Node10 -->
<g id="edge278" class="edge"><title>Node57&#45;&gt;Node10</title>
<path fill="none" stroke="midnightblue" d="M77.5372,-195.423C58.0374,-175.169 17.1629,-128.588 2.16199,-80 -0.722458,-70.6574 -0.717072,-67.3443 2.16199,-58 5.32114,-47.7466 11.5658,-37.7278 17.7066,-29.5925"/>
<polygon fill="midnightblue" stroke="midnightblue" points="20.6164,-31.5603 24.1784,-21.5822 15.1714,-27.1612 20.6164,-31.5603"/>
</g>
<!-- Node57&#45;&gt;Node28 -->
<g id="edge280" class="edge"><title>Node57&#45;&gt;Node28</title>
<path fill="none" stroke="midnightblue" d="M96.1299,-195.376C104.505,-184.209 117.851,-166.415 128.021,-152.855"/>
<polygon fill="midnightblue" stroke="midnightblue" points="130.961,-154.767 134.161,-144.667 125.361,-150.567 130.961,-154.767"/>
</g>
</g>
</svg>
