<?xml version="1.0" encoding="UTF-8" standalone="no"?>
<!DOCTYPE svg PUBLIC "-//W3C//DTD SVG 1.1//EN"
 "http://www.w3.org/Graphics/SVG/1.1/DTD/svg11.dtd">
<!-- Generated by graphviz version 2.26.3 (20100126.1600)
 -->
<!-- Title: src/expconfig/detectors/TAPS.h Pages: 1 -->
<svg width="1916pt" height="200pt"
 viewBox="0.00 0.00 1916.00 200.00" xmlns="http://www.w3.org/2000/svg" xmlns:xlink="http://www.w3.org/1999/xlink">
<g id="graph1" class="graph" transform="scale(1 1) rotate(0) translate(4 196)">
<title>src/expconfig/detectors/TAPS.h</title>
<polygon fill="white" stroke="white" points="-4,5 -4,-196 1913,-196 1913,5 -4,5"/>
<!-- Node1 -->
<g id="node1" class="node"><title>Node1</title>
<polygon fill="#bfbfbf" stroke="black" points="959.5,-157 959.5,-191 1078.5,-191 1078.5,-157 959.5,-157"/>
<text text-anchor="start" x="967.5" y="-178" font-family="Helvetica,sans-Serif" font-size="10.00">src/expconfig/detectors</text>
<text text-anchor="middle" x="1019" y="-165" font-family="Helvetica,sans-Serif" font-size="10.00">/TAPS.h</text>
</g>
<!-- Node2 -->
<g id="node3" class="node"><title>Node2</title>
<a xlink:href="analysis_2physics_2calibration_2_t_a_p_s___energy_8cc.html" target="_top" xlink:title="src/analysis/physics\l/calibration/TAPS_Energy.cc">
<polygon fill="white" stroke="black" points="-0.5,-79 -0.5,-113 142.5,-113 142.5,-79 -0.5,-79"/>
<text text-anchor="start" x="7.5" y="-100" font-family="Helvetica,sans-Serif" font-size="10.00">src/analysis/physics</text>
<text text-anchor="middle" x="71" y="-87" font-family="Helvetica,sans-Serif" font-size="10.00">/calibration/TAPS_Energy.cc</text>
</a>
</g>
<!-- Node1&#45;&gt;Node2 -->
<g id="edge2" class="edge"><title>Node1&#45;&gt;Node2</title>
<path fill="none" stroke="midnightblue" d="M949.169,-171.722C771.182,-165.585 303.819,-147.303 151,-120 141.293,-118.266 131.099,-115.76 121.361,-113.014"/>
<polygon fill="midnightblue" stroke="midnightblue" points="949.09,-175.221 959.204,-172.066 949.329,-168.226 949.09,-175.221"/>
</g>
<!-- Node3 -->
<g id="node5" class="node"><title>Node3</title>
<a xlink:href="_event_display_hists_8cc.html" target="_top" xlink:title="src/analysis/physics\l/common/EventDisplayHists.cc">
<polygon fill="white" stroke="black" points="159.5,-79 159.5,-113 314.5,-113 314.5,-79 159.5,-79"/>
<text text-anchor="start" x="167.5" y="-100" font-family="Helvetica,sans-Serif" font-size="10.00">src/analysis/physics</text>
<text text-anchor="middle" x="237" y="-87" font-family="Helvetica,sans-Serif" font-size="10.00">/common/EventDisplayHists.cc</text>
</a>
</g>
<!-- Node1&#45;&gt;Node3 -->
<g id="edge4" class="edge"><title>Node1&#45;&gt;Node3</title>
<path fill="none" stroke="midnightblue" d="M949.11,-173.064C823.056,-170.384 549.659,-160.026 323,-120 312.925,-118.221 302.329,-115.764 292.15,-113.097"/>
<polygon fill="midnightblue" stroke="midnightblue" points="949.319,-176.569 959.388,-173.273 949.461,-169.57 949.319,-176.569"/>
</g>
<!-- Node4 -->
<g id="node7" class="node"><title>Node4</title>
<a xlink:href="etaprime__proton_8h.html" target="_top" xlink:title="src/analysis/physics\l/etaprime/etaprime_proton.h">
<polygon fill="white" stroke="black" points="332,-79 332,-113 470,-113 470,-79 332,-79"/>
<text text-anchor="start" x="340" y="-100" font-family="Helvetica,sans-Serif" font-size="10.00">src/analysis/physics</text>
<text text-anchor="middle" x="401" y="-87" font-family="Helvetica,sans-Serif" font-size="10.00">/etaprime/etaprime_proton.h</text>
</a>
</g>
<!-- Node1&#45;&gt;Node4 -->
<g id="edge6" class="edge"><title>Node1&#45;&gt;Node4</title>
<path fill="none" stroke="midnightblue" d="M949.28,-171.455C845.759,-166.682 645.694,-153.632 479,-120 469.973,-118.179 460.501,-115.735 451.392,-113.102"/>
<polygon fill="midnightblue" stroke="midnightblue" points="949.148,-174.953 959.295,-171.905 949.463,-167.96 949.148,-174.953"/>
</g>
<!-- Node6 -->
<g id="node11" class="node"><title>Node6</title>
<a xlink:href="calibration_2modules_2_t_a_p_s___energy_8cc.html" target="_top" xlink:title="src/calibration/modules\l/TAPS_Energy.cc">
<polygon fill="white" stroke="black" points="487.5,-79 487.5,-113 604.5,-113 604.5,-79 487.5,-79"/>
<text text-anchor="start" x="495.5" y="-100" font-family="Helvetica,sans-Serif" font-size="10.00">src/calibration/modules</text>
<text text-anchor="middle" x="546" y="-87" font-family="Helvetica,sans-Serif" font-size="10.00">/TAPS_Energy.cc</text>
</a>
</g>
<!-- Node1&#45;&gt;Node6 -->
<g id="edge10" class="edge"><title>Node1&#45;&gt;Node6</title>
<path fill="none" stroke="midnightblue" d="M949.302,-169.239C867.763,-162.637 729.132,-148.186 613,-120 605.315,-118.135 597.286,-115.702 589.564,-113.103"/>
<polygon fill="midnightblue" stroke="midnightblue" points="949.199,-172.742 959.444,-170.044 949.752,-165.764 949.199,-172.742"/>
</g>
<!-- Node7 -->
<g id="node13" class="node"><title>Node7</title>
<a xlink:href="calibration_2modules_2_t_a_p_s___short_energy_8cc.html" target="_top" xlink:title="src/calibration/modules\l/TAPS_ShortEnergy.cc">
<polygon fill="white" stroke="black" points="621.5,-79 621.5,-113 740.5,-113 740.5,-79 621.5,-79"/>
<text text-anchor="start" x="629.5" y="-100" font-family="Helvetica,sans-Serif" font-size="10.00">src/calibration/modules</text>
<text text-anchor="middle" x="681" y="-87" font-family="Helvetica,sans-Serif" font-size="10.00">/TAPS_ShortEnergy.cc</text>
</a>
</g>
<!-- Node1&#45;&gt;Node7 -->
<g id="edge12" class="edge"><title>Node1&#45;&gt;Node7</title>
<path fill="none" stroke="midnightblue" d="M949.471,-162.891C894.563,-153.449 816.257,-138.494 749,-120 741.637,-117.975 733.921,-115.553 726.44,-113.037"/>
<polygon fill="midnightblue" stroke="midnightblue" points="948.997,-166.361 959.443,-164.59 950.172,-159.46 948.997,-166.361"/>
</g>
<!-- Node8 -->
<g id="node15" class="node"><title>Node8</title>
<a xlink:href="_t_a_p_s___time_8cc.html" target="_top" xlink:title="src/calibration/modules\l/TAPS_Time.cc">
<polygon fill="white" stroke="black" points="757.5,-79 757.5,-113 874.5,-113 874.5,-79 757.5,-79"/>
<text text-anchor="start" x="765.5" y="-100" font-family="Helvetica,sans-Serif" font-size="10.00">src/calibration/modules</text>
<text text-anchor="middle" x="816" y="-87" font-family="Helvetica,sans-Serif" font-size="10.00">/TAPS_Time.cc</text>
</a>
</g>
<!-- Node1&#45;&gt;Node8 -->
<g id="edge14" class="edge"><title>Node1&#45;&gt;Node8</title>
<path fill="none" stroke="midnightblue" d="M965.296,-153.365C932.63,-140.813 891.404,-124.973 860.554,-113.119"/>
<polygon fill="midnightblue" stroke="midnightblue" points="964.112,-156.659 974.702,-156.979 966.622,-150.125 964.112,-156.659"/>
</g>
<!-- Node9 -->
<g id="node17" class="node"><title>Node9</title>
<a xlink:href="_t_a_p_s___to_f_8cc.html" target="_top" xlink:title="src/calibration/modules\l/TAPS_ToF.cc">
<polygon fill="white" stroke="black" points="891.5,-79 891.5,-113 1008.5,-113 1008.5,-79 891.5,-79"/>
<text text-anchor="start" x="899.5" y="-100" font-family="Helvetica,sans-Serif" font-size="10.00">src/calibration/modules</text>
<text text-anchor="middle" x="950" y="-87" font-family="Helvetica,sans-Serif" font-size="10.00">/TAPS_ToF.cc</text>
</a>
</g>
<!-- Node1&#45;&gt;Node9 -->
<g id="edge16" class="edge"><title>Node1&#45;&gt;Node9</title>
<path fill="none" stroke="midnightblue" d="M996.874,-148.988C986.563,-137.333 974.553,-123.755 965.271,-113.262"/>
<polygon fill="midnightblue" stroke="midnightblue" points="994.439,-151.518 1003.69,-156.689 999.682,-146.88 994.439,-151.518"/>
</g>
<!-- Node10 -->
<g id="node19" class="node"><title>Node10</title>
<a xlink:href="_t_a_p_s__2013___ba_f2__elements_8h.html" target="_top" xlink:title="src/expconfig/detectors\l/detail/TAPS_2013_BaF2\l_elements.h">
<polygon fill="white" stroke="black" points="1025.5,-72.5 1025.5,-119.5 1152.5,-119.5 1152.5,-72.5 1025.5,-72.5"/>
<text text-anchor="start" x="1033.5" y="-106.5" font-family="Helvetica,sans-Serif" font-size="10.00">src/expconfig/detectors</text>
<text text-anchor="start" x="1033.5" y="-93.5" font-family="Helvetica,sans-Serif" font-size="10.00">/detail/TAPS_2013_BaF2</text>
<text text-anchor="middle" x="1089" y="-80.5" font-family="Helvetica,sans-Serif" font-size="10.00">_elements.h</text>
</a>
</g>
<!-- Node1&#45;&gt;Node10 -->
<g id="edge18" class="edge"><title>Node1&#45;&gt;Node10</title>
<path fill="none" stroke="midnightblue" d="M1041.3,-149.147C1049.74,-139.744 1059.32,-129.071 1067.67,-119.77"/>
<polygon fill="midnightblue" stroke="midnightblue" points="1038.61,-146.909 1034.54,-156.689 1043.82,-151.585 1038.61,-146.909"/>
</g>
<!-- Node11 -->
<g id="node21" class="node"><title>Node11</title>
<a xlink:href="_t_a_p_s_8cc.html" target="_top" xlink:title="src/expconfig/detectors\l/TAPS.cc">
<polygon fill="white" stroke="black" points="1120.5,-1 1120.5,-35 1239.5,-35 1239.5,-1 1120.5,-1"/>
<text text-anchor="start" x="1128.5" y="-22" font-family="Helvetica,sans-Serif" font-size="10.00">src/expconfig/detectors</text>
<text text-anchor="middle" x="1180" y="-9" font-family="Helvetica,sans-Serif" font-size="10.00">/TAPS.cc</text>
</a>
</g>
<!-- Node1&#45;&gt;Node11 -->
<g id="edge26" class="edge"><title>Node1&#45;&gt;Node11</title>
<path fill="none" stroke="midnightblue" d="M1088.72,-162.493C1114.98,-154.72 1142.86,-141.721 1161,-120 1181.09,-95.943 1182.65,-57.467 1181.58,-35.2866"/>
<polygon fill="midnightblue" stroke="midnightblue" points="1087.47,-159.205 1078.75,-165.223 1089.32,-165.956 1087.47,-159.205"/>
</g>
<!-- Node12 -->
<g id="node23" class="node"><title>Node12</title>
<a xlink:href="_t_a_p_s__2013___pb_w_o4__elements_8h.html" target="_top" xlink:title="src/expconfig/detectors\l/detail/TAPS_2013_PbWO4\l_elements.h">
<polygon fill="white" stroke="black" points="1208,-72.5 1208,-119.5 1346,-119.5 1346,-72.5 1208,-72.5"/>
<text text-anchor="start" x="1216" y="-106.5" font-family="Helvetica,sans-Serif" font-size="10.00">src/expconfig/detectors</text>
<text text-anchor="start" x="1216" y="-93.5" font-family="Helvetica,sans-Serif" font-size="10.00">/detail/TAPS_2013_PbWO4</text>
<text text-anchor="middle" x="1277" y="-80.5" font-family="Helvetica,sans-Serif" font-size="10.00">_elements.h</text>
</a>
</g>
<!-- Node1&#45;&gt;Node12 -->
<g id="edge22" class="edge"><title>Node1&#45;&gt;Node12</title>
<path fill="none" stroke="midnightblue" d="M1085.15,-154.001C1122.78,-142.625 1169.85,-128.393 1207.95,-116.874"/>
<polygon fill="midnightblue" stroke="midnightblue" points="1083.86,-150.735 1075.3,-156.979 1085.89,-157.435 1083.86,-150.735"/>
</g>
<!-- Node13 -->
<g id="node27" class="node"><title>Node13</title>
<a xlink:href="_setup__2014___e_p_t_8cc.html" target="_top" xlink:title="src/expconfig/setups\l/Setup_2014_EPT.cc">
<polygon fill="white" stroke="black" points="1364,-79 1364,-113 1474,-113 1474,-79 1364,-79"/>
<text text-anchor="start" x="1372" y="-100" font-family="Helvetica,sans-Serif" font-size="10.00">src/expconfig/setups</text>
<text text-anchor="middle" x="1419" y="-87" font-family="Helvetica,sans-Serif" font-size="10.00">/Setup_2014_EPT.cc</text>
</a>
</g>
<!-- Node1&#45;&gt;Node13 -->
<g id="edge28" class="edge"><title>Node1&#45;&gt;Node13</title>
<path fill="none" stroke="midnightblue" d="M1088.87,-166.887C1157.42,-158.949 1264.55,-143.97 1355,-120 1362.23,-118.085 1369.77,-115.659 1377.04,-113.089"/>
<polygon fill="midnightblue" stroke="midnightblue" points="1088.16,-163.445 1078.62,-168.055 1088.95,-170.4 1088.16,-163.445"/>
</g>
<!-- Node14 -->
<g id="node29" class="node"><title>Node14</title>
<a xlink:href="_setup__2015__01___pion_8cc.html" target="_top" xlink:title="src/expconfig/setups\l/Setup_2015_01_Pion.cc">
<polygon fill="white" stroke="black" points="1491.5,-79 1491.5,-113 1616.5,-113 1616.5,-79 1491.5,-79"/>
<text text-anchor="start" x="1499.5" y="-100" font-family="Helvetica,sans-Serif" font-size="10.00">src/expconfig/setups</text>
<text text-anchor="middle" x="1554" y="-87" font-family="Helvetica,sans-Serif" font-size="10.00">/Setup_2015_01_Pion.cc</text>
</a>
</g>
<!-- Node1&#45;&gt;Node14 -->
<g id="edge30" class="edge"><title>Node1&#45;&gt;Node14</title>
<path fill="none" stroke="midnightblue" d="M1088.88,-170.45C1180.36,-164.762 1345.28,-150.928 1483,-120 1491.25,-118.147 1499.89,-115.687 1508.19,-113.049"/>
<polygon fill="midnightblue" stroke="midnightblue" points="1088.4,-166.972 1078.63,-171.072 1088.82,-173.959 1088.4,-166.972"/>
</g>
<!-- Node15 -->
<g id="node31" class="node"><title>Node15</title>
<a xlink:href="_candidate_builder_8cc.html" target="_top" xlink:title="src/reconstruct/Candidate\lBuilder.cc">
<polygon fill="white" stroke="black" points="1633.5,-79 1633.5,-113 1762.5,-113 1762.5,-79 1633.5,-79"/>
<text text-anchor="start" x="1641.5" y="-100" font-family="Helvetica,sans-Serif" font-size="10.00">src/reconstruct/Candidate</text>
<text text-anchor="middle" x="1698" y="-87" font-family="Helvetica,sans-Serif" font-size="10.00">Builder.cc</text>
</a>
</g>
<!-- Node1&#45;&gt;Node15 -->
<g id="edge32" class="edge"><title>Node1&#45;&gt;Node15</title>
<path fill="none" stroke="midnightblue" d="M1089.32,-169.762C1226.31,-161.171 1524.3,-140.754 1625,-120 1633.62,-118.223 1642.65,-115.767 1651.31,-113.1"/>
<polygon fill="midnightblue" stroke="midnightblue" points="1088.71,-166.293 1078.95,-170.409 1089.15,-173.279 1088.71,-166.293"/>
</g>
<!-- Node16 -->
<g id="node33" class="node"><title>Node16</title>
<a xlink:href="expconfig__helpers_8cc.html" target="_top" xlink:title="test/expconfig_helpers.cc">
<polygon fill="white" stroke="black" points="1780,-85.5 1780,-106.5 1908,-106.5 1908,-85.5 1780,-85.5"/>
<text text-anchor="middle" x="1844" y="-93.5" font-family="Helvetica,sans-Serif" font-size="10.00">test/expconfig_helpers.cc</text>
</a>
</g>
<!-- Node1&#45;&gt;Node16 -->
<g id="edge34" class="edge"><title>Node1&#45;&gt;Node16</title>
<path fill="none" stroke="midnightblue" d="M1088.97,-171.176C1249.73,-164.33 1641.57,-145.518 1771,-120 1786.71,-116.903 1803.73,-111.436 1817.38,-106.502"/>
<polygon fill="midnightblue" stroke="midnightblue" points="1088.56,-167.69 1078.72,-171.609 1088.86,-174.683 1088.56,-167.69"/>
</g>
<!-- Node5 -->
<g id="node9" class="node"><title>Node5</title>
<a xlink:href="etaprime__proton_8cc.html" target="_top" xlink:title="src/analysis/physics\l/etaprime/etaprime_proton.cc">
<polygon fill="white" stroke="black" points="329.5,-1 329.5,-35 472.5,-35 472.5,-1 329.5,-1"/>
<text text-anchor="start" x="337.5" y="-22" font-family="Helvetica,sans-Serif" font-size="10.00">src/analysis/physics</text>
<text text-anchor="middle" x="401" y="-9" font-family="Helvetica,sans-Serif" font-size="10.00">/etaprime/etaprime_proton.cc</text>
</a>
</g>
<!-- Node4&#45;&gt;Node5 -->
<g id="edge8" class="edge"><title>Node4&#45;&gt;Node5</title>
<path fill="none" stroke="midnightblue" d="M401,-68.6102C401,-57.5188 401,-45.0489 401,-35.2623"/>
<polygon fill="midnightblue" stroke="midnightblue" points="397.5,-68.6892 401,-78.6893 404.5,-68.6893 397.5,-68.6892"/>
</g>
<!-- Node10&#45;&gt;Node11 -->
<g id="edge20" class="edge"><title>Node10&#45;&gt;Node11</title>
<path fill="none" stroke="midnightblue" d="M1124.57,-65.5139C1136.66,-55.1446 1149.75,-43.9311 1160.16,-35.003"/>
<polygon fill="midnightblue" stroke="midnightblue" points="1122.11,-63.0082 1116.8,-72.1736 1126.67,-68.3231 1122.11,-63.0082"/>
</g>
<!-- Node12&#45;&gt;Node11 -->
<g id="edge24" class="edge"><title>Node12&#45;&gt;Node11</title>
<path fill="none" stroke="midnightblue" d="M1239.71,-66.013C1226.69,-55.5409 1212.52,-44.1516 1201.26,-35.0948"/>
<polygon fill="midnightblue" stroke="midnightblue" points="1237.65,-68.8467 1247.63,-72.3858 1242.03,-63.3916 1237.65,-68.8467"/>
</g>
</g>
</svg>
