<?xml version="1.0" encoding="UTF-8" standalone="no"?>
<!DOCTYPE svg PUBLIC "-//W3C//DTD SVG 1.1//EN"
 "http://www.w3.org/Graphics/SVG/1.1/DTD/svg11.dtd">
<!-- Generated by graphviz version 2.26.3 (20100126.1600)
 -->
<!-- Title: src/tree/TAntHeader.h Pages: 1 -->
<svg width="744pt" height="102pt"
 viewBox="0.00 0.00 744.00 102.00" xmlns="http://www.w3.org/2000/svg" xmlns:xlink="http://www.w3.org/1999/xlink">
<g id="graph1" class="graph" transform="scale(1 1) rotate(0) translate(4 98)">
<title>src/tree/TAntHeader.h</title>
<polygon fill="white" stroke="white" points="-4,5 -4,-98 741,-98 741,5 -4,5"/>
<!-- Node1 -->
<g id="node1" class="node"><title>Node1</title>
<polygon fill="#bfbfbf" stroke="black" points="290.5,-72.5 290.5,-93.5 403.5,-93.5 403.5,-72.5 290.5,-72.5"/>
<text text-anchor="middle" x="347" y="-80.5" font-family="Helvetica,sans-Serif" font-size="10.00">src/tree/TAntHeader.h</text>
</g>
<!-- Node2 -->
<g id="node3" class="node"><title>Node2</title>
<a xlink:href="_ant-calib-regedit_8cc.html" target="_top" xlink:title="progs/Ant&#45;calib&#45;regedit.cc">
<polygon fill="white" stroke="black" points="0,-7.5 0,-28.5 128,-28.5 128,-7.5 0,-7.5"/>
<text text-anchor="middle" x="64" y="-15.5" font-family="Helvetica,sans-Serif" font-size="10.00">progs/Ant&#45;calib&#45;regedit.cc</text>
</a>
</g>
<!-- Node1&#45;&gt;Node2 -->
<g id="edge2" class="edge"><title>Node1&#45;&gt;Node2</title>
<path fill="none" stroke="midnightblue" d="M288.732,-70.3126C246.543,-61.0402 188.177,-48.0349 137,-36 126.962,-33.6394 116.167,-31.0216 106.039,-28.5301"/>
<polygon fill="midnightblue" stroke="midnightblue" points="288.037,-73.7433 298.555,-72.4683 289.538,-66.906 288.037,-73.7433"/>
</g>
<!-- Node3 -->
<g id="node5" class="node"><title>Node3</title>
<a xlink:href="_ant_8cc.html" target="_top" xlink:title="Main Ant executable. ">
<polygon fill="white" stroke="black" points="146,-7.5 146,-28.5 218,-28.5 218,-7.5 146,-7.5"/>
<text text-anchor="middle" x="182" y="-15.5" font-family="Helvetica,sans-Serif" font-size="10.00">progs/Ant.cc</text>
</a>
</g>
<!-- Node1&#45;&gt;Node3 -->
<g id="edge4" class="edge"><title>Node1&#45;&gt;Node3</title>
<path fill="none" stroke="midnightblue" d="M310.46,-68.7674C286.672,-59.4819 254.975,-47.0734 227,-36 220.898,-33.5845 214.336,-30.9699 208.162,-28.5018"/>
<polygon fill="midnightblue" stroke="midnightblue" points="309.224,-72.042 319.812,-72.4159 311.768,-65.5207 309.224,-72.042"/>
</g>
<!-- Node4 -->
<g id="node7" class="node"><title>Node4</title>
<a xlink:href="_physics_manager_8cc.html" target="_top" xlink:title="src/analysis/physics\l/PhysicsManager.cc">
<polygon fill="white" stroke="black" points="236,-1 236,-35 342,-35 342,-1 236,-1"/>
<text text-anchor="start" x="244" y="-22" font-family="Helvetica,sans-Serif" font-size="10.00">src/analysis/physics</text>
<text text-anchor="middle" x="289" y="-9" font-family="Helvetica,sans-Serif" font-size="10.00">/PhysicsManager.cc</text>
</a>
</g>
<!-- Node1&#45;&gt;Node4 -->
<g id="edge6" class="edge"><title>Node1&#45;&gt;Node4</title>
<path fill="none" stroke="midnightblue" d="M330.677,-64.7066C322.395,-55.4251 312.395,-44.2189 304.267,-35.1099"/>
<polygon fill="midnightblue" stroke="midnightblue" points="328.153,-67.1354 337.422,-72.2666 333.376,-62.4749 328.153,-67.1354"/>
</g>
<!-- Node5 -->
<g id="node9" class="node"><title>Node5</title>
<a xlink:href="_manager_8cc.html" target="_top" xlink:title="src/calibration/gui\l/Manager.cc">
<polygon fill="white" stroke="black" points="359.5,-1 359.5,-35 452.5,-35 452.5,-1 359.5,-1"/>
<text text-anchor="start" x="367.5" y="-22" font-family="Helvetica,sans-Serif" font-size="10.00">src/calibration/gui</text>
<text text-anchor="middle" x="406" y="-9" font-family="Helvetica,sans-Serif" font-size="10.00">/Manager.cc</text>
</a>
</g>
<!-- Node1&#45;&gt;Node5 -->
<g id="edge8" class="edge"><title>Node1&#45;&gt;Node5</title>
<path fill="none" stroke="midnightblue" d="M363.605,-64.7066C372.03,-55.4251 382.201,-44.2189 390.47,-35.1099"/>
<polygon fill="midnightblue" stroke="midnightblue" points="360.872,-62.5096 356.743,-72.2666 366.055,-67.2144 360.872,-62.5096"/>
</g>
<!-- Node6 -->
<g id="node11" class="node"><title>Node6</title>
<a xlink:href="_t_ant_header_8cc.html" target="_top" xlink:title="src/tree/TAntHeader.cc">
<polygon fill="white" stroke="black" points="469.5,-7.5 469.5,-28.5 588.5,-28.5 588.5,-7.5 469.5,-7.5"/>
<text text-anchor="middle" x="529" y="-15.5" font-family="Helvetica,sans-Serif" font-size="10.00">src/tree/TAntHeader.cc</text>
</a>
</g>
<!-- Node1&#45;&gt;Node6 -->
<g id="edge10" class="edge"><title>Node1&#45;&gt;Node6</title>
<path fill="none" stroke="midnightblue" d="M386.251,-68.9818C420.209,-56.854 468.568,-39.583 499.366,-28.5835"/>
<polygon fill="midnightblue" stroke="midnightblue" points="384.887,-65.7524 376.647,-72.412 387.241,-72.3446 384.887,-65.7524"/>
</g>
<!-- Node7 -->
<g id="node13" class="node"><title>Node7</title>
<a xlink:href="_test_physics_manager_8cc.html" target="_top" xlink:title="test/analysis/TestPhysics\lManager.cc">
<polygon fill="white" stroke="black" points="606,-1 606,-35 736,-35 736,-1 606,-1"/>
<text text-anchor="start" x="614" y="-22" font-family="Helvetica,sans-Serif" font-size="10.00">test/analysis/TestPhysics</text>
<text text-anchor="middle" x="671" y="-9" font-family="Helvetica,sans-Serif" font-size="10.00">Manager.cc</text>
</a>
</g>
<!-- Node1&#45;&gt;Node7 -->
<g id="edge12" class="edge"><title>Node1&#45;&gt;Node7</title>
<path fill="none" stroke="midnightblue" d="M413.895,-71.4133C464.354,-62.4339 535.204,-49.3149 597,-36 599.844,-35.3873 602.745,-34.747 605.673,-34.0883"/>
<polygon fill="midnightblue" stroke="midnightblue" points="413.002,-68.0171 403.766,-73.209 414.224,-74.9096 413.002,-68.0171"/>
</g>
</g>
</svg>
