<?xml version="1.0" encoding="UTF-8" standalone="no"?>
<!DOCTYPE svg PUBLIC "-//W3C//DTD SVG 1.1//EN"
 "http://www.w3.org/Graphics/SVG/1.1/DTD/svg11.dtd">
<!-- Generated by graphviz version 2.26.3 (20100126.1600)
 -->
<!-- Title: src/calibration/modules/TAPSVeto_Time.cc Pages: 1 -->
<svg width="2555pt" height="650pt"
 viewBox="0.00 0.00 2554.51 650.00" xmlns="http://www.w3.org/2000/svg" xmlns:xlink="http://www.w3.org/1999/xlink">
<g id="graph1" class="graph" transform="scale(1 1) rotate(0) translate(4 646)">
<title>src/calibration/modules/TAPSVeto_Time.cc</title>
<polygon fill="white" stroke="white" points="-4,5 -4,-646 2551.51,-646 2551.51,5 -4,5"/>
<!-- Node1 -->
<g id="node1" class="node"><title>Node1</title>
<polygon fill="#bfbfbf" stroke="black" points="1385.01,-607 1385.01,-641 1502.01,-641 1502.01,-607 1385.01,-607"/>
<text text-anchor="start" x="1393.01" y="-628" font-family="Helvetica,sans-Serif" font-size="10.00">src/calibration/modules</text>
<text text-anchor="middle" x="1443.51" y="-615" font-family="Helvetica,sans-Serif" font-size="10.00">/TAPSVeto_Time.cc</text>
</g>
<!-- Node2 -->
<g id="node3" class="node"><title>Node2</title>
<a xlink:href="_t_a_p_s_veto___time_8h.html" target="_top" xlink:title="TAPSVeto_Time.h">
<polygon fill="white" stroke="black" points="1317.51,-541.5 1317.51,-562.5 1415.51,-562.5 1415.51,-541.5 1317.51,-541.5"/>
<text text-anchor="middle" x="1366.51" y="-549.5" font-family="Helvetica,sans-Serif" font-size="10.00">TAPSVeto_Time.h</text>
</a>
</g>
<!-- Node1&#45;&gt;Node2 -->
<g id="edge2" class="edge"><title>Node1&#45;&gt;Node2</title>
<path fill="none" stroke="midnightblue" d="M1425.26,-606.937C1413.29,-595.748 1397.68,-581.147 1385.55,-569.811"/>
<polygon fill="midnightblue" stroke="midnightblue" points="1387.86,-567.175 1378.16,-562.901 1383.08,-572.287 1387.86,-567.175"/>
</g>
<!-- Node13 -->
<g id="node27" class="node"><title>Node13</title>
<polygon fill="white" stroke="#bfbfbf" points="1420.51,-137.5 1420.51,-158.5 1466.51,-158.5 1466.51,-137.5 1420.51,-137.5"/>
<text text-anchor="middle" x="1443.51" y="-145.5" font-family="Helvetica,sans-Serif" font-size="10.00">cstdint</text>
</g>
<!-- Node1&#45;&gt;Node13 -->
<g id="edge254" class="edge"><title>Node1&#45;&gt;Node13</title>
<path fill="none" stroke="midnightblue" d="M1443.51,-606.711C1443.51,-579.676 1443.51,-525.75 1443.51,-480 1443.51,-480 1443.51,-480 1443.51,-292 1443.51,-248.274 1443.51,-197.08 1443.51,-169.033"/>
<polygon fill="midnightblue" stroke="midnightblue" points="1447.01,-168.838 1443.51,-158.839 1440.01,-168.839 1447.01,-168.838"/>
</g>
<!-- Node53 -->
<g id="node155" class="node"><title>Node53</title>
<a xlink:href="_fit_gaus_pol0_8h.html" target="_top" xlink:title="calibration/fitfunctions\l/FitGausPol0.h">
<polygon fill="white" stroke="black" points="783.506,-463 783.506,-497 895.506,-497 895.506,-463 783.506,-463"/>
<text text-anchor="start" x="791.506" y="-484" font-family="Helvetica,sans-Serif" font-size="10.00">calibration/fitfunctions</text>
<text text-anchor="middle" x="839.506" y="-471" font-family="Helvetica,sans-Serif" font-size="10.00">/FitGausPol0.h</text>
</a>
</g>
<!-- Node1&#45;&gt;Node53 -->
<g id="edge204" class="edge"><title>Node1&#45;&gt;Node53</title>
<path fill="none" stroke="midnightblue" d="M1384.77,-609.996C1271.71,-583.041 1024.54,-524.113 905.784,-495.801"/>
<polygon fill="midnightblue" stroke="midnightblue" points="906.274,-492.32 895.734,-493.405 904.65,-499.129 906.274,-492.32"/>
</g>
<!-- Node54 -->
<g id="node158" class="node"><title>Node54</title>
<a xlink:href="_t_a_p_s_veto_8h.html" target="_top" xlink:title="expconfig/detectors\l/TAPSVeto.h">
<polygon fill="white" stroke="black" points="1526.51,-535 1526.51,-569 1628.51,-569 1628.51,-535 1526.51,-535"/>
<text text-anchor="start" x="1534.51" y="-556" font-family="Helvetica,sans-Serif" font-size="10.00">expconfig/detectors</text>
<text text-anchor="middle" x="1577.51" y="-543" font-family="Helvetica,sans-Serif" font-size="10.00">/TAPSVeto.h</text>
</a>
</g>
<!-- Node1&#45;&gt;Node54 -->
<g id="edge208" class="edge"><title>Node1&#45;&gt;Node54</title>
<path fill="none" stroke="midnightblue" d="M1475.26,-606.937C1493.57,-597.101 1516.78,-584.627 1536.46,-574.053"/>
<polygon fill="midnightblue" stroke="midnightblue" points="1538.36,-577.006 1545.51,-569.19 1535.05,-570.84 1538.36,-577.006"/>
</g>
<!-- Node58 -->
<g id="node183" class="node"><title>Node58</title>
<a xlink:href="_logger_8h.html" target="_top" xlink:title="base/Logger.h">
<polygon fill="white" stroke="black" points="1681.51,-541.5 1681.51,-562.5 1759.51,-562.5 1759.51,-541.5 1681.51,-541.5"/>
<text text-anchor="middle" x="1720.51" y="-549.5" font-family="Helvetica,sans-Serif" font-size="10.00">base/Logger.h</text>
</a>
</g>
<!-- Node1&#45;&gt;Node58 -->
<g id="edge250" class="edge"><title>Node1&#45;&gt;Node58</title>
<path fill="none" stroke="midnightblue" d="M1502.25,-608.731C1552.66,-595.628 1624.45,-576.967 1671.74,-564.675"/>
<polygon fill="midnightblue" stroke="midnightblue" points="1672.64,-568.057 1681.44,-562.154 1670.88,-561.282 1672.64,-568.057"/>
</g>
<!-- Node3 -->
<g id="node5" class="node"><title>Node3</title>
<a xlink:href="calibration_2modules_2_time_8h.html" target="_top" xlink:title="Time.h">
<polygon fill="white" stroke="black" points="1343.01,-404.5 1343.01,-425.5 1390.01,-425.5 1390.01,-404.5 1343.01,-404.5"/>
<text text-anchor="middle" x="1366.51" y="-412.5" font-family="Helvetica,sans-Serif" font-size="10.00">Time.h</text>
</a>
</g>
<!-- Node2&#45;&gt;Node3 -->
<g id="edge4" class="edge"><title>Node2&#45;&gt;Node3</title>
<path fill="none" stroke="midnightblue" d="M1366.51,-541.25C1366.51,-518.541 1366.51,-465.348 1366.51,-435.768"/>
<polygon fill="midnightblue" stroke="midnightblue" points="1370.01,-435.7 1366.51,-425.7 1363.01,-435.7 1370.01,-435.7"/>
</g>
<!-- Node4 -->
<g id="node7" class="node"><title>Node4</title>
<a xlink:href="_calibration_8h.html" target="_top" xlink:title="calibration/Calibration.h">
<polygon fill="white" stroke="black" points="1775.01,-346.5 1775.01,-367.5 1894.01,-367.5 1894.01,-346.5 1775.01,-346.5"/>
<text text-anchor="middle" x="1834.51" y="-354.5" font-family="Helvetica,sans-Serif" font-size="10.00">calibration/Calibration.h</text>
</a>
</g>
<!-- Node3&#45;&gt;Node4 -->
<g id="edge6" class="edge"><title>Node3&#45;&gt;Node4</title>
<path fill="none" stroke="midnightblue" d="M1390.03,-412.084C1458.18,-403.639 1657.63,-378.921 1764.68,-365.654"/>
<polygon fill="midnightblue" stroke="midnightblue" points="1765.25,-369.11 1774.74,-364.406 1764.39,-362.163 1765.25,-369.11"/>
</g>
<!-- Node6 -->
<g id="node11" class="node"><title>Node6</title>
<a xlink:href="_detector__t_8h.html" target="_top" xlink:title="base/Detector_t.h">
<polygon fill="white" stroke="black" points="1586.01,-209.5 1586.01,-230.5 1681.01,-230.5 1681.01,-209.5 1586.01,-209.5"/>
<text text-anchor="middle" x="1633.51" y="-217.5" font-family="Helvetica,sans-Serif" font-size="10.00">base/Detector_t.h</text>
</a>
</g>
<!-- Node3&#45;&gt;Node6 -->
<g id="edge198" class="edge"><title>Node3&#45;&gt;Node6</title>
<path fill="none" stroke="midnightblue" d="M1390.41,-409.876C1417.53,-403.282 1462.32,-389.977 1495.51,-368 1550.16,-331.811 1598.45,-269.756 1620.62,-238.763"/>
<polygon fill="midnightblue" stroke="midnightblue" points="1623.51,-240.739 1626.41,-230.547 1617.79,-236.709 1623.51,-240.739"/>
</g>
<!-- Node19 -->
<g id="node40" class="node"><title>Node19</title>
<polygon fill="white" stroke="#bfbfbf" points="1794.51,-65.5 1794.51,-86.5 1846.51,-86.5 1846.51,-65.5 1794.51,-65.5"/>
<text text-anchor="middle" x="1820.51" y="-73.5" font-family="Helvetica,sans-Serif" font-size="10.00">memory</text>
</g>
<!-- Node3&#45;&gt;Node19 -->
<g id="edge202" class="edge"><title>Node3&#45;&gt;Node19</title>
<path fill="none" stroke="midnightblue" d="M1373.36,-404.318C1396.85,-368.715 1478.12,-253.443 1577.51,-202 1663.94,-157.262 1720.48,-230.338 1793.51,-166 1813.22,-148.632 1818.81,-117.496 1820.25,-96.7892"/>
<polygon fill="midnightblue" stroke="midnightblue" points="1823.75,-96.9173 1820.68,-86.776 1816.76,-96.6162 1823.75,-96.9173"/>
</g>
<!-- Node26 -->
<g id="node62" class="node"><title>Node26</title>
<a xlink:href="interval_8h.html" target="_top" xlink:title="base/interval.h">
<polygon fill="white" stroke="black" points="449.506,-137.5 449.506,-158.5 529.506,-158.5 529.506,-137.5 449.506,-137.5"/>
<text text-anchor="middle" x="489.506" y="-145.5" font-family="Helvetica,sans-Serif" font-size="10.00">base/interval.h</text>
</a>
</g>
<!-- Node3&#45;&gt;Node26 -->
<g id="edge200" class="edge"><title>Node3&#45;&gt;Node26</title>
<path fill="none" stroke="midnightblue" d="M1342.8,-410.274C1255.08,-392.473 941.138,-325.982 692.506,-238 629.519,-215.711 558.775,-182.352 519.646,-163.127"/>
<polygon fill="midnightblue" stroke="midnightblue" points="520.919,-159.852 510.404,-158.559 517.818,-166.127 520.919,-159.852"/>
</g>
<!-- Node48 -->
<g id="node130" class="node"><title>Node48</title>
<a xlink:href="_fit_gaus_8h.html" target="_top" xlink:title="fitfunctions/FitGaus.h">
<polygon fill="white" stroke="black" points="493.506,-346.5 493.506,-367.5 603.506,-367.5 603.506,-346.5 493.506,-346.5"/>
<text text-anchor="middle" x="548.506" y="-354.5" font-family="Helvetica,sans-Serif" font-size="10.00">fitfunctions/FitGaus.h</text>
</a>
</g>
<!-- Node3&#45;&gt;Node48 -->
<g id="edge164" class="edge"><title>Node3&#45;&gt;Node48</title>
<path fill="none" stroke="midnightblue" d="M1342.83,-413.576C1254.42,-408.221 935.267,-388.55 672.506,-368 653.42,-366.507 632.696,-364.731 613.753,-363.045"/>
<polygon fill="midnightblue" stroke="midnightblue" points="614.004,-359.554 603.731,-362.147 613.379,-366.526 614.004,-359.554"/>
</g>
<!-- Node52 -->
<g id="node148" class="node"><title>Node52</title>
<a xlink:href="math_8h.html" target="_top" xlink:title="base/std_ext/math.h">
<polygon fill="white" stroke="black" points="547.506,-137.5 547.506,-158.5 653.506,-158.5 653.506,-137.5 547.506,-137.5"/>
<text text-anchor="middle" x="600.506" y="-145.5" font-family="Helvetica,sans-Serif" font-size="10.00">base/std_ext/math.h</text>
</a>
</g>
<!-- Node3&#45;&gt;Node52 -->
<g id="edge192" class="edge"><title>Node3&#45;&gt;Node52</title>
<path fill="none" stroke="midnightblue" d="M1342.74,-406.716C1233.48,-368.632 778.831,-210.157 640.569,-161.965"/>
<polygon fill="midnightblue" stroke="midnightblue" points="641.389,-158.544 630.794,-158.557 639.085,-165.154 641.389,-158.544"/>
</g>
<!-- Node5 -->
<g id="node9" class="node"><title>Node5</title>
<a xlink:href="_reconstruct__traits_8h.html" target="_top" xlink:title="reconstruct/Reconstruct\l_traits.h">
<polygon fill="white" stroke="black" points="1794.51,-275 1794.51,-309 1916.51,-309 1916.51,-275 1794.51,-275"/>
<text text-anchor="start" x="1802.51" y="-296" font-family="Helvetica,sans-Serif" font-size="10.00">reconstruct/Reconstruct</text>
<text text-anchor="middle" x="1855.51" y="-283" font-family="Helvetica,sans-Serif" font-size="10.00">_traits.h</text>
</a>
</g>
<!-- Node4&#45;&gt;Node5 -->
<g id="edge8" class="edge"><title>Node4&#45;&gt;Node5</title>
<path fill="none" stroke="midnightblue" d="M1837.97,-346.267C1840.39,-338.773 1843.74,-328.423 1846.86,-318.769"/>
<polygon fill="midnightblue" stroke="midnightblue" points="1850.23,-319.702 1849.98,-309.11 1843.57,-317.55 1850.23,-319.702"/>
</g>
<!-- Node8 -->
<g id="node15" class="node"><title>Node8</title>
<polygon fill="white" stroke="#bfbfbf" points="2410.51,-0.5 2410.51,-21.5 2454.51,-21.5 2454.51,-0.5 2410.51,-0.5"/>
<text text-anchor="middle" x="2432.51" y="-8.5" font-family="Helvetica,sans-Serif" font-size="10.00">vector</text>
</g>
<!-- Node4&#45;&gt;Node8 -->
<g id="edge162" class="edge"><title>Node4&#45;&gt;Node8</title>
<path fill="none" stroke="midnightblue" d="M1857.5,-346.389C1876.24,-337.444 1903.16,-323.908 1925.51,-310 1994.03,-267.344 1996.07,-230.71 2071.51,-202 2154.3,-170.491 2407.41,-230.148 2468.51,-166 2501.62,-131.228 2487.81,-103.168 2471.51,-58 2467.57,-47.079 2459.86,-36.9016 2452.33,-28.8297"/>
<polygon fill="midnightblue" stroke="midnightblue" points="2454.56,-26.1042 2445.01,-21.5102 2449.61,-31.0551 2454.56,-26.1042"/>
</g>
<!-- Node25 -->
<g id="node60" class="node"><title>Node25</title>
<a xlink:href="_manager__traits_8h.html" target="_top" xlink:title="calibration/gui/Manager\l_traits.h">
<polygon fill="white" stroke="black" points="1212.01,-275 1212.01,-309 1329.01,-309 1329.01,-275 1212.01,-275"/>
<text text-anchor="start" x="1220.01" y="-296" font-family="Helvetica,sans-Serif" font-size="10.00">calibration/gui/Manager</text>
<text text-anchor="middle" x="1270.51" y="-283" font-family="Helvetica,sans-Serif" font-size="10.00">_traits.h</text>
</a>
</g>
<!-- Node4&#45;&gt;Node25 -->
<g id="edge70" class="edge"><title>Node4&#45;&gt;Node25</title>
<path fill="none" stroke="midnightblue" d="M1774.95,-350.136C1669.64,-338 1451.18,-312.822 1339.5,-299.951"/>
<polygon fill="midnightblue" stroke="midnightblue" points="1339.69,-296.451 1329.36,-298.783 1338.89,-303.405 1339.69,-296.451"/>
</g>
<!-- Node5&#45;&gt;Node6 -->
<g id="edge10" class="edge"><title>Node5&#45;&gt;Node6</title>
<path fill="none" stroke="midnightblue" d="M1802.9,-274.937C1764.1,-262.355 1712.01,-245.46 1675.88,-233.742"/>
<polygon fill="midnightblue" stroke="midnightblue" points="1676.73,-230.338 1666.13,-230.582 1674.57,-236.997 1676.73,-230.338"/>
</g>
<!-- Node17 -->
<g id="node36" class="node"><title>Node17</title>
<a xlink:href="mapped__vectors_8h.html" target="_top" xlink:title="base/std_ext/mapped\l_vectors.h">
<polygon fill="white" stroke="black" points="1800.51,-203 1800.51,-237 1910.51,-237 1910.51,-203 1800.51,-203"/>
<text text-anchor="start" x="1808.51" y="-224" font-family="Helvetica,sans-Serif" font-size="10.00">base/std_ext/mapped</text>
<text text-anchor="middle" x="1855.51" y="-211" font-family="Helvetica,sans-Serif" font-size="10.00">_vectors.h</text>
</a>
</g>
<!-- Node5&#45;&gt;Node17 -->
<g id="edge38" class="edge"><title>Node5&#45;&gt;Node17</title>
<path fill="none" stroke="midnightblue" d="M1855.51,-274.937C1855.51,-266.807 1855.51,-256.876 1855.51,-247.705"/>
<polygon fill="midnightblue" stroke="midnightblue" points="1859.01,-247.441 1855.51,-237.441 1852.01,-247.441 1859.01,-247.441"/>
</g>
<!-- Node5&#45;&gt;Node19 -->
<g id="edge62" class="edge"><title>Node5&#45;&gt;Node19</title>
<path fill="none" stroke="midnightblue" d="M1883.18,-274.873C1896.09,-265.509 1910.55,-252.8 1919.51,-238 1944.63,-196.488 1962.22,-170.51 1935.51,-130 1913.15,-96.0909 1887.8,-112.231 1851.51,-94 1849.98,-93.2318 1848.42,-92.421 1846.85,-91.5855"/>
<polygon fill="midnightblue" stroke="midnightblue" points="1848.45,-88.4661 1838.01,-86.6564 1845.04,-94.581 1848.45,-88.4661"/>
</g>
<!-- Node20 -->
<g id="node42" class="node"><title>Node20</title>
<polygon fill="white" stroke="#bfbfbf" points="1684.01,-65.5 1684.01,-86.5 1713.01,-86.5 1713.01,-65.5 1684.01,-65.5"/>
<text text-anchor="middle" x="1698.51" y="-73.5" font-family="Helvetica,sans-Serif" font-size="10.00">list</text>
</g>
<!-- Node5&#45;&gt;Node20 -->
<g id="edge66" class="edge"><title>Node5&#45;&gt;Node20</title>
<path fill="none" stroke="midnightblue" d="M1833.44,-274.704C1807.84,-255.208 1763.84,-223.441 1722.51,-202 1682.43,-181.207 1653.16,-203.156 1627.51,-166 1618.42,-152.833 1620.35,-144.311 1627.51,-130 1639.43,-106.149 1654.34,-110.218 1675.51,-94 1675.98,-93.6338 1676.47,-93.2628 1676.95,-92.8883"/>
<polygon fill="midnightblue" stroke="midnightblue" points="1679.17,-95.6022 1684.92,-86.7066 1674.87,-90.0718 1679.17,-95.6022"/>
</g>
<!-- Node21 -->
<g id="node47" class="node"><title>Node21</title>
<a xlink:href="shared__ptr__container_8h.html" target="_top" xlink:title="base/std_ext/shared\l_ptr_container.h">
<polygon fill="white" stroke="black" points="2080.01,-131 2080.01,-165 2185.01,-165 2185.01,-131 2080.01,-131"/>
<text text-anchor="start" x="2088.01" y="-152" font-family="Helvetica,sans-Serif" font-size="10.00">base/std_ext/shared</text>
<text text-anchor="middle" x="2132.51" y="-139" font-family="Helvetica,sans-Serif" font-size="10.00">_ptr_container.h</text>
</a>
</g>
<!-- Node5&#45;&gt;Node21 -->
<g id="edge52" class="edge"><title>Node5&#45;&gt;Node21</title>
<path fill="none" stroke="midnightblue" d="M1888.37,-274.916C1938.76,-248.717 2035.1,-198.636 2090.5,-169.838"/>
<polygon fill="midnightblue" stroke="midnightblue" points="2092.43,-172.78 2099.69,-165.062 2089.2,-166.569 2092.43,-172.78"/>
</g>
<!-- Node22 -->
<g id="node51" class="node"><title>Node22</title>
<polygon fill="white" stroke="#bfbfbf" points="1227.01,-0.5 1227.01,-21.5 1286.01,-21.5 1286.01,-0.5 1227.01,-0.5"/>
<text text-anchor="middle" x="1256.51" y="-8.5" font-family="Helvetica,sans-Serif" font-size="10.00">functional</text>
</g>
<!-- Node5&#45;&gt;Node22 -->
<g id="edge68" class="edge"><title>Node5&#45;&gt;Node22</title>
<path fill="none" stroke="midnightblue" d="M1794.32,-290.552C1681.95,-287.043 1435.53,-275.393 1231.51,-238 1116.09,-216.847 1048.26,-259.602 977.506,-166 967.858,-153.236 966.696,-141.796 977.506,-130 1039.6,-62.2444 1327.41,-161.756 1389.51,-94 1400.32,-82.2042 1398.74,-71.0632 1389.51,-58 1378.44,-42.3495 1331.17,-28.2645 1296.12,-19.6827"/>
<polygon fill="midnightblue" stroke="midnightblue" points="1296.68,-16.2186 1286.14,-17.306 1295.06,-23.0281 1296.68,-16.2186"/>
</g>
<!-- Node24 -->
<g id="node56" class="node"><title>Node24</title>
<polygon fill="white" stroke="#bfbfbf" points="2080.01,-209.5 2080.01,-230.5 2115.01,-230.5 2115.01,-209.5 2080.01,-209.5"/>
<text text-anchor="middle" x="2097.51" y="-217.5" font-family="Helvetica,sans-Serif" font-size="10.00">map</text>
</g>
<!-- Node5&#45;&gt;Node24 -->
<g id="edge64" class="edge"><title>Node5&#45;&gt;Node24</title>
<path fill="none" stroke="midnightblue" d="M1912.86,-274.937C1962.43,-260.189 2031.92,-239.513 2069.95,-228.198"/>
<polygon fill="midnightblue" stroke="midnightblue" points="2071.22,-231.473 2079.8,-225.267 2069.22,-224.764 2071.22,-231.473"/>
</g>
<!-- Node7 -->
<g id="node13" class="node"><title>Node7</title>
<a xlink:href="printable_8h.html" target="_top" xlink:title="base/printable.h">
<polygon fill="white" stroke="black" points="2207.51,-65.5 2207.51,-86.5 2293.51,-86.5 2293.51,-65.5 2207.51,-65.5"/>
<text text-anchor="middle" x="2250.51" y="-73.5" font-family="Helvetica,sans-Serif" font-size="10.00">base/printable.h</text>
</a>
</g>
<!-- Node6&#45;&gt;Node7 -->
<g id="edge12" class="edge"><title>Node6&#45;&gt;Node7</title>
<path fill="none" stroke="midnightblue" d="M1681.17,-214.182C1712.5,-210.453 1754.41,-205.647 1791.51,-202 1839.77,-197.255 2189.3,-197.109 2226.51,-166 2246.59,-149.206 2250.87,-117.657 2251.3,-96.733"/>
<polygon fill="midnightblue" stroke="midnightblue" points="2254.8,-96.6037 2251.23,-86.6283 2247.8,-96.6524 2254.8,-96.6037"/>
</g>
<!-- Node6&#45;&gt;Node8 -->
<g id="edge36" class="edge"><title>Node6&#45;&gt;Node8</title>
<path fill="none" stroke="midnightblue" d="M1681.14,-213.874C1712.46,-210.019 1754.37,-205.187 1791.51,-202 1860.48,-196.08 2363.01,-213.355 2413.51,-166 2450.28,-131.509 2443.65,-65.3288 2437.27,-31.7047"/>
<polygon fill="midnightblue" stroke="midnightblue" points="2440.64,-30.7216 2435.18,-21.6427 2433.79,-32.1456 2440.64,-30.7216"/>
</g>
<!-- Node10 -->
<g id="node19" class="node"><title>Node10</title>
<a xlink:href="vec3_8h.html" target="_top" xlink:title="base/vec/vec3.h">
<polygon fill="white" stroke="black" points="2316.01,-137.5 2316.01,-158.5 2405.01,-158.5 2405.01,-137.5 2316.01,-137.5"/>
<text text-anchor="middle" x="2360.51" y="-145.5" font-family="Helvetica,sans-Serif" font-size="10.00">base/vec/vec3.h</text>
</a>
</g>
<!-- Node6&#45;&gt;Node10 -->
<g id="edge18" class="edge"><title>Node6&#45;&gt;Node10</title>
<path fill="none" stroke="midnightblue" d="M1681.16,-214.1C1712.49,-210.337 1754.4,-205.524 1791.51,-202 2001.39,-182.064 2055.47,-193.468 2264.51,-166 2277.9,-164.24 2292.26,-161.831 2305.69,-159.348"/>
<polygon fill="midnightblue" stroke="midnightblue" points="2306.56,-162.745 2315.74,-157.445 2305.26,-155.867 2306.56,-162.745"/>
</g>
<!-- Node6&#45;&gt;Node13 -->
<g id="edge28" class="edge"><title>Node6&#45;&gt;Node13</title>
<path fill="none" stroke="midnightblue" d="M1600.27,-209.478C1568.99,-199.296 1521.05,-182.951 1480.51,-166 1478.14,-165.011 1475.71,-163.946 1473.29,-162.846"/>
<polygon fill="midnightblue" stroke="midnightblue" points="1474.6,-159.596 1464.06,-158.511 1471.62,-165.931 1474.6,-159.596"/>
</g>
<!-- Node14 -->
<g id="node29" class="node"><title>Node14</title>
<polygon fill="white" stroke="#bfbfbf" points="1322.01,-65.5 1322.01,-86.5 1381.01,-86.5 1381.01,-65.5 1322.01,-65.5"/>
<text text-anchor="middle" x="1351.51" y="-73.5" font-family="Helvetica,sans-Serif" font-size="10.00">stdexcept</text>
</g>
<!-- Node6&#45;&gt;Node14 -->
<g id="edge30" class="edge"><title>Node6&#45;&gt;Node14</title>
<path fill="none" stroke="midnightblue" d="M1616.3,-209.39C1587.63,-191.888 1528.01,-156.291 1475.51,-130 1446.41,-115.428 1412.47,-100.806 1387.46,-90.4598"/>
<polygon fill="midnightblue" stroke="midnightblue" points="1388.59,-87.1384 1378.01,-86.5757 1385.93,-93.6133 1388.59,-87.1384"/>
</g>
<!-- Node15 -->
<g id="node31" class="node"><title>Node15</title>
<polygon fill="white" stroke="#bfbfbf" points="518.006,-0.5 518.006,-21.5 559.006,-21.5 559.006,-0.5 518.006,-0.5"/>
<text text-anchor="middle" x="538.506" y="-8.5" font-family="Helvetica,sans-Serif" font-size="10.00">string</text>
</g>
<!-- Node6&#45;&gt;Node15 -->
<g id="edge32" class="edge"><title>Node6&#45;&gt;Node15</title>
<path fill="none" stroke="midnightblue" d="M1585.98,-217.359C1410.49,-207.559 808.134,-173.45 789.506,-166 766.364,-156.744 768.819,-141.108 746.506,-130 682.807,-98.2889 648.461,-135.283 590.506,-94 578.856,-85.7014 560.061,-52.465 548.543,-30.6512"/>
<polygon fill="midnightblue" stroke="midnightblue" points="551.535,-28.8189 543.815,-21.563 545.325,-32.0497 551.535,-28.8189"/>
</g>
<!-- Node16 -->
<g id="node33" class="node"><title>Node16</title>
<polygon fill="white" stroke="#bfbfbf" points="1848.51,-137.5 1848.51,-158.5 1910.51,-158.5 1910.51,-137.5 1848.51,-137.5"/>
<text text-anchor="middle" x="1879.51" y="-145.5" font-family="Helvetica,sans-Serif" font-size="10.00">type_traits</text>
</g>
<!-- Node6&#45;&gt;Node16 -->
<g id="edge34" class="edge"><title>Node6&#45;&gt;Node16</title>
<path fill="none" stroke="midnightblue" d="M1678.66,-209.487C1719.7,-199.552 1781.71,-183.582 1834.51,-166 1837.88,-164.876 1841.37,-163.632 1844.84,-162.339"/>
<polygon fill="midnightblue" stroke="midnightblue" points="1846.4,-165.487 1854.47,-158.621 1843.88,-158.957 1846.4,-165.487"/>
</g>
<!-- Node7&#45;&gt;Node8 -->
<g id="edge14" class="edge"><title>Node7&#45;&gt;Node8</title>
<path fill="none" stroke="midnightblue" d="M2280.15,-65.412C2313.34,-53.5595 2366.9,-34.4292 2400.88,-22.2959"/>
<polygon fill="midnightblue" stroke="midnightblue" points="2402.09,-25.5805 2410.33,-18.921 2399.73,-18.9883 2402.09,-25.5805"/>
</g>
<!-- Node9 -->
<g id="node17" class="node"><title>Node9</title>
<polygon fill="white" stroke="#bfbfbf" points="2224.51,-0.5 2224.51,-21.5 2276.51,-21.5 2276.51,-0.5 2224.51,-0.5"/>
<text text-anchor="middle" x="2250.51" y="-8.5" font-family="Helvetica,sans-Serif" font-size="10.00">ostream</text>
</g>
<!-- Node7&#45;&gt;Node9 -->
<g id="edge16" class="edge"><title>Node7&#45;&gt;Node9</title>
<path fill="none" stroke="midnightblue" d="M2250.51,-65.2666C2250.51,-56.1799 2250.51,-42.8919 2250.51,-31.7395"/>
<polygon fill="midnightblue" stroke="midnightblue" points="2254.01,-31.5337 2250.51,-21.5337 2247.01,-31.5337 2254.01,-31.5337"/>
</g>
<!-- Node10&#45;&gt;Node7 -->
<g id="edge20" class="edge"><title>Node10&#45;&gt;Node7</title>
<path fill="none" stroke="midnightblue" d="M2344.28,-137.376C2326.08,-125.465 2296.36,-106.013 2275.26,-92.2024"/>
<polygon fill="midnightblue" stroke="midnightblue" points="2277.09,-89.2156 2266.8,-86.6674 2273.25,-95.0725 2277.09,-89.2156"/>
</g>
<!-- Node11 -->
<g id="node22" class="node"><title>Node11</title>
<a xlink:href="vec2_8h.html" target="_top" xlink:title="vec2.h">
<polygon fill="white" stroke="black" points="2311.51,-65.5 2311.51,-86.5 2357.51,-86.5 2357.51,-65.5 2311.51,-65.5"/>
<text text-anchor="middle" x="2334.51" y="-73.5" font-family="Helvetica,sans-Serif" font-size="10.00">vec2.h</text>
</a>
</g>
<!-- Node10&#45;&gt;Node11 -->
<g id="edge22" class="edge"><title>Node10&#45;&gt;Node11</title>
<path fill="none" stroke="midnightblue" d="M2356.67,-137.376C2352.79,-126.635 2346.7,-109.761 2341.88,-96.4223"/>
<polygon fill="midnightblue" stroke="midnightblue" points="2345.05,-94.8842 2338.36,-86.6674 2338.46,-97.2618 2345.05,-94.8842"/>
</g>
<!-- Node12 -->
<g id="node24" class="node"><title>Node12</title>
<polygon fill="white" stroke="#bfbfbf" points="2312.51,-0.5 2312.51,-21.5 2356.51,-21.5 2356.51,-0.5 2312.51,-0.5"/>
<text text-anchor="middle" x="2334.51" y="-8.5" font-family="Helvetica,sans-Serif" font-size="10.00">cmath</text>
</g>
<!-- Node10&#45;&gt;Node12 -->
<g id="edge26" class="edge"><title>Node10&#45;&gt;Node12</title>
<path fill="none" stroke="midnightblue" d="M2363.6,-137.46C2368.1,-120.358 2375.04,-85.6861 2366.51,-58 2363.35,-47.7466 2357.1,-37.7278 2350.96,-29.5925"/>
<polygon fill="midnightblue" stroke="midnightblue" points="2353.5,-27.1612 2344.49,-21.5822 2348.05,-31.5603 2353.5,-27.1612"/>
</g>
<!-- Node11&#45;&gt;Node12 -->
<g id="edge24" class="edge"><title>Node11&#45;&gt;Node12</title>
<path fill="none" stroke="midnightblue" d="M2334.51,-65.2666C2334.51,-56.1799 2334.51,-42.8919 2334.51,-31.7395"/>
<polygon fill="midnightblue" stroke="midnightblue" points="2338.01,-31.5337 2334.51,-21.5337 2331.01,-31.5337 2338.01,-31.5337"/>
</g>
<!-- Node17&#45;&gt;Node8 -->
<g id="edge46" class="edge"><title>Node17&#45;&gt;Node8</title>
<path fill="none" stroke="midnightblue" d="M1910.75,-214.421C1947.05,-210.79 1995.59,-206.003 2038.51,-202 2083.82,-197.773 2415.77,-199.564 2446.51,-166 2480.57,-128.798 2457.51,-63.4255 2442.52,-30.7533"/>
<polygon fill="midnightblue" stroke="midnightblue" points="2445.68,-29.2392 2438.2,-21.7308 2439.36,-32.2618 2445.68,-29.2392"/>
</g>
<!-- Node17&#45;&gt;Node16 -->
<g id="edge50" class="edge"><title>Node17&#45;&gt;Node16</title>
<path fill="none" stroke="midnightblue" d="M1861.19,-202.937C1864.64,-192.601 1869.06,-179.352 1872.69,-168.456"/>
<polygon fill="midnightblue" stroke="midnightblue" points="1876.03,-169.495 1875.87,-158.901 1869.39,-167.281 1876.03,-169.495"/>
</g>
<!-- Node18 -->
<g id="node38" class="node"><title>Node18</title>
<a xlink:href="memory_8h.html" target="_top" xlink:title="base/std_ext/memory.h">
<polygon fill="white" stroke="black" points="1636.01,-137.5 1636.01,-158.5 1755.01,-158.5 1755.01,-137.5 1636.01,-137.5"/>
<text text-anchor="middle" x="1695.51" y="-145.5" font-family="Helvetica,sans-Serif" font-size="10.00">base/std_ext/memory.h</text>
</a>
</g>
<!-- Node17&#45;&gt;Node18 -->
<g id="edge40" class="edge"><title>Node17&#45;&gt;Node18</title>
<path fill="none" stroke="midnightblue" d="M1817.59,-202.937C1790.55,-190.769 1754.54,-174.565 1728.65,-162.913"/>
<polygon fill="midnightblue" stroke="midnightblue" points="1729.81,-159.6 1719.26,-158.688 1726.94,-165.983 1729.81,-159.6"/>
</g>
<!-- Node17&#45;&gt;Node19 -->
<g id="edge48" class="edge"><title>Node17&#45;&gt;Node19</title>
<path fill="none" stroke="midnightblue" d="M1885.62,-202.936C1898.59,-193.815 1912.4,-181.294 1919.51,-166 1926.25,-151.49 1927.67,-143.758 1919.51,-130 1905.93,-107.123 1878.87,-93.3172 1856.47,-85.3987"/>
<polygon fill="midnightblue" stroke="midnightblue" points="1857.48,-82.0475 1846.89,-82.2598 1855.3,-88.6995 1857.48,-82.0475"/>
</g>
<!-- Node18&#45;&gt;Node19 -->
<g id="edge42" class="edge"><title>Node18&#45;&gt;Node19</title>
<path fill="none" stroke="midnightblue" d="M1713.95,-137.376C1734.81,-125.359 1769,-105.665 1793.02,-91.8338"/>
<polygon fill="midnightblue" stroke="midnightblue" points="1795.07,-94.6916 1801.99,-86.6674 1791.57,-88.6258 1795.07,-94.6916"/>
</g>
<!-- Node18&#45;&gt;Node20 -->
<g id="edge44" class="edge"><title>Node18&#45;&gt;Node20</title>
<path fill="none" stroke="midnightblue" d="M1695.95,-137.376C1696.39,-126.741 1697.09,-110.095 1697.64,-96.8195"/>
<polygon fill="midnightblue" stroke="midnightblue" points="1701.14,-96.8045 1698.06,-86.6674 1694.15,-96.513 1701.14,-96.8045"/>
</g>
<!-- Node21&#45;&gt;Node8 -->
<g id="edge54" class="edge"><title>Node21&#45;&gt;Node8</title>
<path fill="none" stroke="midnightblue" d="M2140.27,-130.719C2150.51,-109.995 2170.58,-75.8276 2198.51,-58 2207.01,-52.5729 2337.98,-28.2065 2400.18,-16.8547"/>
<polygon fill="midnightblue" stroke="midnightblue" points="2401.03,-20.2564 2410.24,-15.0214 2399.78,-13.3696 2401.03,-20.2564"/>
</g>
<!-- Node21&#45;&gt;Node19 -->
<g id="edge56" class="edge"><title>Node21&#45;&gt;Node19</title>
<path fill="none" stroke="midnightblue" d="M2079.97,-133.417C2075.42,-132.232 2070.89,-131.078 2066.51,-130 1992.34,-111.758 1904.85,-93.2679 1856.75,-83.3623"/>
<polygon fill="midnightblue" stroke="midnightblue" points="1857.32,-79.9062 1846.82,-81.3239 1855.91,-86.7632 1857.32,-79.9062"/>
</g>
<!-- Node21&#45;&gt;Node22 -->
<g id="edge58" class="edge"><title>Node21&#45;&gt;Node22</title>
<path fill="none" stroke="midnightblue" d="M2079.58,-133.581C2032.93,-120.74 1968.58,-102.681 1943.51,-94 1903.57,-80.1746 1896.66,-67.5893 1855.51,-58 1631.18,-5.73134 1567.66,-45.324 1338.51,-22 1324.61,-20.586 1309.45,-18.6595 1295.98,-16.8138"/>
<polygon fill="midnightblue" stroke="midnightblue" points="1296.45,-13.3452 1286.06,-15.4279 1295.48,-20.2779 1296.45,-13.3452"/>
</g>
<!-- Node23 -->
<g id="node53" class="node"><title>Node23</title>
<polygon fill="white" stroke="#bfbfbf" points="1347.51,-0.5 1347.51,-21.5 1403.51,-21.5 1403.51,-0.5 1347.51,-0.5"/>
<text text-anchor="middle" x="1375.51" y="-8.5" font-family="Helvetica,sans-Serif" font-size="10.00">algorithm</text>
</g>
<!-- Node21&#45;&gt;Node23 -->
<g id="edge60" class="edge"><title>Node21&#45;&gt;Node23</title>
<path fill="none" stroke="midnightblue" d="M2104.95,-130.831C2069.23,-109.544 2004.28,-74.1044 1943.51,-58 1733.28,-2.29485 1671.78,-44.8236 1455.51,-22 1441.86,-20.5604 1426.96,-18.6144 1413.76,-16.7594"/>
<polygon fill="midnightblue" stroke="midnightblue" points="1413.99,-13.2561 1403.59,-15.3026 1412.99,-20.1853 1413.99,-13.2561"/>
</g>
<!-- Node25&#45;&gt;Node15 -->
<g id="edge156" class="edge"><title>Node25&#45;&gt;Node15</title>
<path fill="none" stroke="midnightblue" d="M1211.75,-290.503C1019.26,-284.093 415.082,-251.512 329.506,-94 321.868,-79.941 319.51,-70.4933 329.506,-58 351.46,-30.5601 454.895,-18.0203 507.548,-13.3352"/>
<polygon fill="midnightblue" stroke="midnightblue" points="507.995,-16.8098 517.664,-12.4764 507.403,-9.83491 507.995,-16.8098"/>
</g>
<!-- Node25&#45;&gt;Node19 -->
<g id="edge160" class="edge"><title>Node25&#45;&gt;Node19</title>
<path fill="none" stroke="midnightblue" d="M1307.1,-274.988C1352.61,-254.536 1433.16,-220.642 1505.51,-202 1617.62,-173.11 1666.19,-228.714 1763.51,-166 1788.91,-149.63 1805.1,-117.493 1813.5,-96.3845"/>
<polygon fill="midnightblue" stroke="midnightblue" points="1816.87,-97.3518 1817.09,-86.7592 1810.31,-94.9038 1816.87,-97.3518"/>
</g>
<!-- Node25&#45;&gt;Node20 -->
<g id="edge158" class="edge"><title>Node25&#45;&gt;Node20</title>
<path fill="none" stroke="midnightblue" d="M1284.23,-274.906C1316.34,-235.113 1394.9,-138.968 1411.51,-130 1515.71,-73.7408 1566.42,-140.091 1675.51,-94 1676.53,-93.5658 1677.55,-93.0733 1678.56,-92.5358"/>
<polygon fill="midnightblue" stroke="midnightblue" points="1680.73,-95.2996 1687.1,-86.8376 1676.84,-89.4769 1680.73,-95.2996"/>
</g>
<!-- Node25&#45;&gt;Node26 -->
<g id="edge72" class="edge"><title>Node25&#45;&gt;Node26</title>
<path fill="none" stroke="midnightblue" d="M1211.61,-286.426C1085.94,-273.544 783.026,-237.222 538.506,-166 534.395,-164.802 530.132,-163.434 525.913,-161.998"/>
<polygon fill="midnightblue" stroke="midnightblue" points="526.838,-158.613 516.243,-158.575 524.502,-165.211 526.838,-158.613"/>
</g>
<!-- Node30 -->
<g id="node73" class="node"><title>Node30</title>
<a xlink:href="_wrap_t_file_8h.html" target="_top" xlink:title="base/WrapTFile.h">
<polygon fill="white" stroke="black" points="798.506,-137.5 798.506,-158.5 892.506,-158.5 892.506,-137.5 798.506,-137.5"/>
<text text-anchor="middle" x="845.506" y="-145.5" font-family="Helvetica,sans-Serif" font-size="10.00">base/WrapTFile.h</text>
</a>
</g>
<!-- Node25&#45;&gt;Node30 -->
<g id="edge86" class="edge"><title>Node25&#45;&gt;Node30</title>
<path fill="none" stroke="midnightblue" d="M1211.77,-288.989C1122.09,-283.453 956.198,-269.238 906.506,-238 880.276,-221.511 862.604,-189.167 853.3,-168.079"/>
<polygon fill="midnightblue" stroke="midnightblue" points="856.487,-166.628 849.404,-158.749 850.028,-169.326 856.487,-166.628"/>
</g>
<!-- Node41 -->
<g id="node105" class="node"><title>Node41</title>
<a xlink:href="_t_i_d_8h.html" target="_top" xlink:title="tree/TID.h">
<polygon fill="white" stroke="black" points="1240.01,-209.5 1240.01,-230.5 1301.01,-230.5 1301.01,-209.5 1240.01,-209.5"/>
<text text-anchor="middle" x="1270.51" y="-217.5" font-family="Helvetica,sans-Serif" font-size="10.00">tree/TID.h</text>
</a>
</g>
<!-- Node25&#45;&gt;Node41 -->
<g id="edge128" class="edge"><title>Node25&#45;&gt;Node41</title>
<path fill="none" stroke="midnightblue" d="M1270.51,-274.937C1270.51,-264.814 1270.51,-251.898 1270.51,-241.133"/>
<polygon fill="midnightblue" stroke="midnightblue" points="1274.01,-240.901 1270.51,-230.901 1267.01,-240.901 1274.01,-240.901"/>
</g>
<!-- Node26&#45;&gt;Node7 -->
<g id="edge74" class="edge"><title>Node26&#45;&gt;Node7</title>
<path fill="none" stroke="midnightblue" d="M513.487,-137.428C521.311,-134.46 530.14,-131.606 538.506,-130 826.031,-74.7969 1562.92,-104.664 1855.51,-94 1977.7,-89.5461 2121.08,-82.5759 2197.01,-78.7473"/>
<polygon fill="midnightblue" stroke="midnightblue" points="2197.45,-82.2293 2207.26,-78.2285 2197.1,-75.2383 2197.45,-82.2293"/>
</g>
<!-- Node26&#45;&gt;Node14 -->
<g id="edge80" class="edge"><title>Node26&#45;&gt;Node14</title>
<path fill="none" stroke="midnightblue" d="M513.761,-137.455C521.524,-134.526 530.249,-131.689 538.506,-130 843.275,-67.6647 928.109,-126.303 1237.51,-94 1262.28,-91.4135 1289.87,-87.0945 1311.71,-83.3355"/>
<polygon fill="midnightblue" stroke="midnightblue" points="1312.37,-86.7733 1321.62,-81.6008 1311.16,-79.8782 1312.37,-86.7733"/>
</g>
<!-- Node26&#45;&gt;Node23 -->
<g id="edge78" class="edge"><title>Node26&#45;&gt;Node23</title>
<path fill="none" stroke="midnightblue" d="M514.296,-137.419C521.933,-134.563 530.452,-131.775 538.506,-130 729.684,-87.8642 798.762,-173.843 977.506,-94 998.748,-84.5116 994.491,-67.9797 1015.51,-58 1128.45,-4.36694 1170.56,-38.4124 1294.51,-22 1308.52,-20.1443 1323.89,-18.0674 1337.44,-16.2223"/>
<polygon fill="midnightblue" stroke="midnightblue" points="1337.96,-19.6838 1347.4,-14.864 1337.02,-12.7481 1337.96,-19.6838"/>
</g>
<!-- Node27 -->
<g id="node65" class="node"><title>Node27</title>
<a xlink:href="types_8h.html" target="_top" xlink:title="types.h">
<polygon fill="white" stroke="black" points="338.006,-65.5 338.006,-86.5 387.006,-86.5 387.006,-65.5 338.006,-65.5"/>
<text text-anchor="middle" x="362.506" y="-73.5" font-family="Helvetica,sans-Serif" font-size="10.00">types.h</text>
</a>
</g>
<!-- Node26&#45;&gt;Node27 -->
<g id="edge76" class="edge"><title>Node26&#45;&gt;Node27</title>
<path fill="none" stroke="midnightblue" d="M470.767,-137.376C449.475,-125.305 414.524,-105.49 390.112,-91.6506"/>
<polygon fill="midnightblue" stroke="midnightblue" points="391.748,-88.5546 381.322,-86.6674 388.295,-94.6441 391.748,-88.5546"/>
</g>
<!-- Node28 -->
<g id="node69" class="node"><title>Node28</title>
<polygon fill="white" stroke="#bfbfbf" points="404.506,-65.5 404.506,-86.5 444.506,-86.5 444.506,-65.5 404.506,-65.5"/>
<text text-anchor="middle" x="424.506" y="-73.5" font-family="Helvetica,sans-Serif" font-size="10.00">limits</text>
</g>
<!-- Node26&#45;&gt;Node28 -->
<g id="edge82" class="edge"><title>Node26&#45;&gt;Node28</title>
<path fill="none" stroke="midnightblue" d="M479.915,-137.376C469.738,-126.103 453.463,-108.075 441.179,-94.4685"/>
<polygon fill="midnightblue" stroke="midnightblue" points="443.435,-91.7448 434.136,-86.6674 438.239,-96.4355 443.435,-91.7448"/>
</g>
<!-- Node29 -->
<g id="node71" class="node"><title>Node29</title>
<polygon fill="white" stroke="#bfbfbf" points="462.006,-65.5 462.006,-86.5 511.006,-86.5 511.006,-65.5 462.006,-65.5"/>
<text text-anchor="middle" x="486.506" y="-73.5" font-family="Helvetica,sans-Serif" font-size="10.00">istream</text>
</g>
<!-- Node26&#45;&gt;Node29 -->
<g id="edge84" class="edge"><title>Node26&#45;&gt;Node29</title>
<path fill="none" stroke="midnightblue" d="M489.063,-137.376C488.62,-126.741 487.927,-110.095 487.374,-96.8195"/>
<polygon fill="midnightblue" stroke="midnightblue" points="490.864,-96.513 486.951,-86.6674 483.87,-96.8045 490.864,-96.513"/>
</g>
<!-- Node30&#45;&gt;Node14 -->
<g id="edge124" class="edge"><title>Node30&#45;&gt;Node14</title>
<path fill="none" stroke="midnightblue" d="M876.875,-137.454C886.306,-134.635 896.744,-131.859 906.506,-130 1082.72,-96.4523 1134.39,-137.141 1308.51,-94 1312.37,-93.042 1316.34,-91.7871 1320.23,-90.3847"/>
<polygon fill="midnightblue" stroke="midnightblue" points="1321.61,-93.6031 1329.63,-86.6805 1319.04,-87.0905 1321.61,-93.6031"/>
</g>
<!-- Node30&#45;&gt;Node15 -->
<g id="edge120" class="edge"><title>Node30&#45;&gt;Node15</title>
<path fill="none" stroke="midnightblue" d="M807.507,-137.466C798.349,-134.974 788.588,-132.358 779.506,-130 714.818,-113.206 692.789,-124.857 633.506,-94 629.171,-91.7434 584.679,-52.2672 558.148,-28.5819"/>
<polygon fill="midnightblue" stroke="midnightblue" points="560.345,-25.8506 550.556,-21.797 555.68,-31.0701 560.345,-25.8506"/>
</g>
<!-- Node30&#45;&gt;Node19 -->
<g id="edge118" class="edge"><title>Node30&#45;&gt;Node19</title>
<path fill="none" stroke="midnightblue" d="M892.74,-140.542C917.856,-136.835 949.293,-132.601 977.506,-130 1307.16,-99.6063 1392.61,-131.692 1721.51,-94 1742.45,-91.6002 1765.64,-87.4641 1784.31,-83.7614"/>
<polygon fill="midnightblue" stroke="midnightblue" points="1785.07,-87.1789 1794.17,-81.7627 1783.68,-80.3183 1785.07,-87.1789"/>
</g>
<!-- Node30&#45;&gt;Node20 -->
<g id="edge122" class="edge"><title>Node30&#45;&gt;Node20</title>
<path fill="none" stroke="midnightblue" d="M892.743,-140.579C917.86,-136.881 949.297,-132.646 977.506,-130 1132.14,-115.495 1530.02,-148.393 1675.51,-94 1676.73,-93.5405 1677.95,-92.9901 1679.14,-92.3717"/>
<polygon fill="midnightblue" stroke="midnightblue" points="1681.29,-95.148 1687.66,-86.6854 1677.4,-89.3258 1681.29,-95.148"/>
</g>
<!-- Node30&#45;&gt;Node22 -->
<g id="edge126" class="edge"><title>Node30&#45;&gt;Node22</title>
<path fill="none" stroke="midnightblue" d="M877.212,-137.477C886.562,-134.693 896.87,-131.93 906.506,-130 979.055,-115.472 1182.23,-143.178 1237.51,-94 1254.86,-78.5588 1258.07,-50.7964 1257.96,-31.6598"/>
<polygon fill="midnightblue" stroke="midnightblue" points="1261.45,-31.414 1257.59,-21.5476 1254.46,-31.668 1261.45,-31.414"/>
</g>
<!-- Node31 -->
<g id="node75" class="node"><title>Node31</title>
<a xlink:href="string_8h.html" target="_top" xlink:title="base/std_ext/string.h">
<polygon fill="white" stroke="black" points="1436.51,-65.5 1436.51,-86.5 1544.51,-86.5 1544.51,-65.5 1436.51,-65.5"/>
<text text-anchor="middle" x="1490.51" y="-73.5" font-family="Helvetica,sans-Serif" font-size="10.00">base/std_ext/string.h</text>
</a>
</g>
<!-- Node30&#45;&gt;Node31 -->
<g id="edge88" class="edge"><title>Node30&#45;&gt;Node31</title>
<path fill="none" stroke="midnightblue" d="M892.786,-140.989C917.914,-137.405 949.349,-133.148 977.506,-130 1160.18,-109.577 1207.29,-118.149 1389.51,-94 1401.51,-92.4095 1414.26,-90.3947 1426.51,-88.2931"/>
<polygon fill="midnightblue" stroke="midnightblue" points="1427.41,-91.6883 1436.66,-86.5147 1426.2,-84.7934 1427.41,-91.6883"/>
</g>
<!-- Node33 -->
<g id="node82" class="node"><title>Node33</title>
<a xlink:href="misc_8h.html" target="_top" xlink:title="base/std_ext/misc.h">
<polygon fill="white" stroke="black" points="864.006,-65.5 864.006,-86.5 969.006,-86.5 969.006,-65.5 864.006,-65.5"/>
<text text-anchor="middle" x="916.506" y="-73.5" font-family="Helvetica,sans-Serif" font-size="10.00">base/std_ext/misc.h</text>
</a>
</g>
<!-- Node30&#45;&gt;Node33 -->
<g id="edge98" class="edge"><title>Node30&#45;&gt;Node33</title>
<path fill="none" stroke="midnightblue" d="M855.982,-137.376C867.204,-125.997 885.212,-107.735 898.673,-94.0845"/>
<polygon fill="midnightblue" stroke="midnightblue" points="901.457,-96.2453 905.987,-86.6674 896.473,-91.3303 901.457,-96.2453"/>
</g>
<!-- Node35 -->
<g id="node88" class="node"><title>Node35</title>
<polygon fill="white" stroke="#bfbfbf" points="1024.01,-65.5 1024.01,-86.5 1071.01,-86.5 1071.01,-65.5 1024.01,-65.5"/>
<text text-anchor="middle" x="1047.51" y="-73.5" font-family="Helvetica,sans-Serif" font-size="10.00">TFile.h</text>
</g>
<!-- Node30&#45;&gt;Node35 -->
<g id="edge106" class="edge"><title>Node30&#45;&gt;Node35</title>
<path fill="none" stroke="midnightblue" d="M879.739,-137.403C920.639,-124.635 986.548,-103.695 1010.51,-94 1012.88,-93.0387 1015.32,-91.9933 1017.75,-90.9063"/>
<polygon fill="midnightblue" stroke="midnightblue" points="1019.41,-93.9969 1026.99,-86.5974 1016.45,-87.6532 1019.41,-93.9969"/>
</g>
<!-- Node36 -->
<g id="node90" class="node"><title>Node36</title>
<polygon fill="white" stroke="#bfbfbf" points="1088.01,-65.5 1088.01,-86.5 1159.01,-86.5 1159.01,-65.5 1088.01,-65.5"/>
<text text-anchor="middle" x="1123.51" y="-73.5" font-family="Helvetica,sans-Serif" font-size="10.00">TDirectory.h</text>
</g>
<!-- Node30&#45;&gt;Node36 -->
<g id="edge108" class="edge"><title>Node30&#45;&gt;Node36</title>
<path fill="none" stroke="midnightblue" d="M879.569,-137.414C888.31,-134.845 897.725,-132.205 906.506,-130 982.677,-110.87 1004.4,-116.964 1079.51,-94 1083.11,-92.8974 1086.83,-91.6151 1090.51,-90.2522"/>
<polygon fill="midnightblue" stroke="midnightblue" points="1092.01,-93.4256 1100.05,-86.525 1089.46,-86.906 1092.01,-93.4256"/>
</g>
<!-- Node37 -->
<g id="node92" class="node"><title>Node37</title>
<polygon fill="white" stroke="#bfbfbf" points="1176.51,-65.5 1176.51,-86.5 1228.51,-86.5 1228.51,-65.5 1176.51,-65.5"/>
<text text-anchor="middle" x="1202.51" y="-73.5" font-family="Helvetica,sans-Serif" font-size="10.00">TError.h</text>
</g>
<!-- Node30&#45;&gt;Node37 -->
<g id="edge110" class="edge"><title>Node30&#45;&gt;Node37</title>
<path fill="none" stroke="midnightblue" d="M877.881,-137.466C887.062,-134.748 897.115,-132.021 906.506,-130 1020.98,-105.36 1055.85,-129.28 1167.51,-94 1170.25,-93.1315 1173.05,-92.0604 1175.8,-90.8771"/>
<polygon fill="midnightblue" stroke="midnightblue" points="1177.33,-94.0248 1184.84,-86.553 1174.31,-87.7097 1177.33,-94.0248"/>
</g>
<!-- Node38 -->
<g id="node94" class="node"><title>Node38</title>
<polygon fill="white" stroke="#bfbfbf" points="642.006,-65.5 642.006,-86.5 689.006,-86.5 689.006,-65.5 642.006,-65.5"/>
<text text-anchor="middle" x="665.506" y="-73.5" font-family="Helvetica,sans-Serif" font-size="10.00">TList.h</text>
</g>
<!-- Node30&#45;&gt;Node38 -->
<g id="edge112" class="edge"><title>Node30&#45;&gt;Node38</title>
<path fill="none" stroke="midnightblue" d="M811.968,-137.497C781.558,-127.568 735.773,-111.602 697.506,-94 695.725,-93.1809 693.911,-92.2989 692.096,-91.3809"/>
<polygon fill="midnightblue" stroke="midnightblue" points="693.648,-88.2418 683.179,-86.6155 690.349,-94.4156 693.648,-88.2418"/>
</g>
<!-- Node39 -->
<g id="node96" class="node"><title>Node39</title>
<polygon fill="white" stroke="#bfbfbf" points="706.506,-65.5 706.506,-86.5 780.506,-86.5 780.506,-65.5 706.506,-65.5"/>
<text text-anchor="middle" x="743.506" y="-73.5" font-family="Helvetica,sans-Serif" font-size="10.00">TCollection.h</text>
</g>
<!-- Node30&#45;&gt;Node39 -->
<g id="edge114" class="edge"><title>Node30&#45;&gt;Node39</title>
<path fill="none" stroke="midnightblue" d="M830.456,-137.376C813.732,-125.571 786.515,-106.36 766.985,-92.5736"/>
<polygon fill="midnightblue" stroke="midnightblue" points="768.806,-89.5749 758.618,-86.6674 764.77,-95.2937 768.806,-89.5749"/>
</g>
<!-- Node40 -->
<g id="node98" class="node"><title>Node40</title>
<polygon fill="white" stroke="#bfbfbf" points="798.506,-65.5 798.506,-86.5 846.506,-86.5 846.506,-65.5 798.506,-65.5"/>
<text text-anchor="middle" x="822.506" y="-73.5" font-family="Helvetica,sans-Serif" font-size="10.00">TKey.h</text>
</g>
<!-- Node30&#45;&gt;Node40 -->
<g id="edge116" class="edge"><title>Node30&#45;&gt;Node40</title>
<path fill="none" stroke="midnightblue" d="M842.112,-137.376C838.681,-126.635 833.291,-109.761 829.03,-96.4223"/>
<polygon fill="midnightblue" stroke="midnightblue" points="832.291,-95.1282 825.914,-86.6674 825.623,-97.2583 832.291,-95.1282"/>
</g>
<!-- Node31&#45;&gt;Node8 -->
<g id="edge96" class="edge"><title>Node31&#45;&gt;Node8</title>
<path fill="none" stroke="midnightblue" d="M1521.9,-65.467C1531.9,-62.5391 1543.06,-59.699 1553.51,-58 1910.06,0.0172211 2006.2,-59.328 2365.51,-22 2376.88,-20.8185 2389.25,-18.9531 2400.24,-17.0917"/>
<polygon fill="midnightblue" stroke="midnightblue" points="2401.02,-20.5079 2410.26,-15.3307 2399.81,-13.6134 2401.02,-20.5079"/>
</g>
<!-- Node31&#45;&gt;Node15 -->
<g id="edge90" class="edge"><title>Node31&#45;&gt;Node15</title>
<path fill="none" stroke="midnightblue" d="M1438.52,-65.4926C1422.83,-62.6569 1405.52,-59.8619 1389.51,-58 1225.82,-38.9648 702.743,-17.4734 569.581,-12.2101"/>
<polygon fill="midnightblue" stroke="midnightblue" points="569.422,-8.70119 559.292,-11.8051 569.147,-15.6958 569.422,-8.70119"/>
</g>
<!-- Node31&#45;&gt;Node23 -->
<g id="edge94" class="edge"><title>Node31&#45;&gt;Node23</title>
<path fill="none" stroke="midnightblue" d="M1471.77,-65.412C1453.15,-54.8829 1424.36,-38.6106 1403.11,-26.6021"/>
<polygon fill="midnightblue" stroke="midnightblue" points="1404.66,-23.4572 1394.23,-21.5835 1401.21,-29.5511 1404.66,-23.4572"/>
</g>
<!-- Node32 -->
<g id="node78" class="node"><title>Node32</title>
<polygon fill="white" stroke="#bfbfbf" points="1464.51,-0.5 1464.51,-21.5 1516.51,-21.5 1516.51,-0.5 1464.51,-0.5"/>
<text text-anchor="middle" x="1490.51" y="-8.5" font-family="Helvetica,sans-Serif" font-size="10.00">sstream</text>
</g>
<!-- Node31&#45;&gt;Node32 -->
<g id="edge92" class="edge"><title>Node31&#45;&gt;Node32</title>
<path fill="none" stroke="midnightblue" d="M1490.51,-65.2666C1490.51,-56.1799 1490.51,-42.8919 1490.51,-31.7395"/>
<polygon fill="midnightblue" stroke="midnightblue" points="1494.01,-31.5337 1490.51,-21.5337 1487.01,-31.5337 1494.01,-31.5337"/>
</g>
<!-- Node33&#45;&gt;Node22 -->
<g id="edge102" class="edge"><title>Node33&#45;&gt;Node22</title>
<path fill="none" stroke="midnightblue" d="M952.661,-65.4651C962.312,-62.8383 972.766,-60.1583 982.506,-58 1065.12,-39.6946 1163.08,-24.4192 1216.63,-16.6085"/>
<polygon fill="midnightblue" stroke="midnightblue" points="1217.33,-20.0432 1226.72,-15.1472 1216.33,-13.1154 1217.33,-20.0432"/>
</g>
<!-- Node33&#45;&gt;Node23 -->
<g id="edge100" class="edge"><title>Node33&#45;&gt;Node23</title>
<path fill="none" stroke="midnightblue" d="M951.212,-65.4763C961.238,-62.7253 972.244,-59.9797 982.506,-58 1119.57,-31.5605 1156.01,-39.3928 1294.51,-22 1308.53,-20.2386 1323.91,-18.1825 1337.46,-16.3278"/>
<polygon fill="midnightblue" stroke="midnightblue" points="1337.98,-19.7887 1347.41,-14.9569 1337.03,-12.8542 1337.98,-19.7887"/>
</g>
<!-- Node34 -->
<g id="node86" class="node"><title>Node34</title>
<polygon fill="white" stroke="#bfbfbf" points="890.006,-0.5 890.006,-21.5 943.006,-21.5 943.006,-0.5 890.006,-0.5"/>
<text text-anchor="middle" x="916.506" y="-8.5" font-family="Helvetica,sans-Serif" font-size="10.00">cxxabi.h</text>
</g>
<!-- Node33&#45;&gt;Node34 -->
<g id="edge104" class="edge"><title>Node33&#45;&gt;Node34</title>
<path fill="none" stroke="midnightblue" d="M916.506,-65.2666C916.506,-56.1799 916.506,-42.8919 916.506,-31.7395"/>
<polygon fill="midnightblue" stroke="midnightblue" points="920.006,-31.5337 916.506,-21.5337 913.006,-31.5337 920.006,-31.5337"/>
</g>
<!-- Node41&#45;&gt;Node7 -->
<g id="edge132" class="edge"><title>Node41&#45;&gt;Node7</title>
<path fill="none" stroke="midnightblue" d="M1301.01,-218.21C1356.18,-214.972 1476.24,-207.928 1577.51,-202 1645.95,-197.994 2134.43,-200.796 2193.51,-166 2207.3,-157.874 2228.51,-119.57 2240.79,-95.6267"/>
<polygon fill="midnightblue" stroke="midnightblue" points="2243.94,-97.1686 2245.32,-86.6645 2237.69,-94.013 2243.94,-97.1686"/>
</g>
<!-- Node41&#45;&gt;Node13 -->
<g id="edge146" class="edge"><title>Node41&#45;&gt;Node13</title>
<path fill="none" stroke="midnightblue" d="M1296.03,-209.376C1326.57,-196.666 1377.74,-175.369 1411.06,-161.503"/>
<polygon fill="midnightblue" stroke="midnightblue" points="1412.48,-164.703 1420.37,-157.63 1409.79,-158.241 1412.48,-164.703"/>
</g>
<!-- Node41&#45;&gt;Node14 -->
<g id="edge148" class="edge"><title>Node41&#45;&gt;Node14</title>
<path fill="none" stroke="midnightblue" d="M1239.84,-219.105C1171.62,-216.403 1010.68,-205.851 977.506,-166 967.269,-153.704 966.821,-141.91 977.506,-130 1026.92,-74.9258 1236.86,-112.476 1308.51,-94 1312.36,-93.0053 1316.33,-91.7277 1320.21,-90.3128"/>
<polygon fill="midnightblue" stroke="midnightblue" points="1321.6,-93.5288 1329.61,-86.5957 1319.02,-87.0195 1321.6,-93.5288"/>
</g>
<!-- Node41&#45;&gt;Node16 -->
<g id="edge142" class="edge"><title>Node41&#45;&gt;Node16</title>
<path fill="none" stroke="midnightblue" d="M1301.14,-217.127C1378.68,-209.75 1588.95,-189.091 1763.51,-166 1788.27,-162.724 1815.92,-158.458 1838.01,-154.901"/>
<polygon fill="midnightblue" stroke="midnightblue" points="1838.74,-158.328 1848.05,-153.272 1837.62,-151.418 1838.74,-158.328"/>
</g>
<!-- Node41&#45;&gt;Node20 -->
<g id="edge150" class="edge"><title>Node41&#45;&gt;Node20</title>
<path fill="none" stroke="midnightblue" d="M1283.47,-209.257C1296.6,-198.369 1317.48,-181.034 1335.51,-166 1354.65,-150.036 1355.64,-139.908 1378.51,-130 1500.51,-77.1421 1552.64,-144.839 1675.51,-94 1676.72,-93.4984 1677.92,-92.9142 1679.1,-92.2694"/>
<polygon fill="midnightblue" stroke="midnightblue" points="1681.29,-95.0169 1687.59,-86.5008 1677.35,-89.2276 1681.29,-95.0169"/>
</g>
<!-- Node42 -->
<g id="node107" class="node"><title>Node42</title>
<polygon fill="white" stroke="#bfbfbf" points="44.506,-0.5 44.506,-21.5 100.506,-21.5 100.506,-0.5 44.506,-0.5"/>
<text text-anchor="middle" x="72.506" y="-8.5" font-family="Helvetica,sans-Serif" font-size="10.00">Rtypes.h</text>
</g>
<!-- Node41&#45;&gt;Node42 -->
<g id="edge130" class="edge"><title>Node41&#45;&gt;Node42</title>
<path fill="none" stroke="midnightblue" d="M1239.62,-219.364C1108.41,-216.451 596.856,-202.906 440.506,-166 306.974,-134.48 159.963,-59.0562 100.123,-26.4509"/>
<polygon fill="midnightblue" stroke="midnightblue" points="101.734,-23.3423 91.2832,-21.5989 98.3655,-29.4788 101.734,-23.3423"/>
</g>
<!-- Node43 -->
<g id="node110" class="node"><title>Node43</title>
<a xlink:href="time_8h.html" target="_top" xlink:title="base/std_ext/time.h">
<polygon fill="white" stroke="black" points="986.006,-137.5 986.006,-158.5 1089.01,-158.5 1089.01,-137.5 986.006,-137.5"/>
<text text-anchor="middle" x="1037.51" y="-145.5" font-family="Helvetica,sans-Serif" font-size="10.00">base/std_ext/time.h</text>
</a>
</g>
<!-- Node41&#45;&gt;Node43 -->
<g id="edge134" class="edge"><title>Node41&#45;&gt;Node43</title>
<path fill="none" stroke="midnightblue" d="M1239.57,-210.439C1198.97,-197.894 1127.48,-175.804 1081.33,-161.543"/>
<polygon fill="midnightblue" stroke="midnightblue" points="1082.19,-158.145 1071.6,-158.537 1080.13,-164.833 1082.19,-158.145"/>
</g>
<!-- Node45 -->
<g id="node115" class="node"><title>Node45</title>
<polygon fill="white" stroke="#bfbfbf" points="1626.01,-65.5 1626.01,-86.5 1667.01,-86.5 1667.01,-65.5 1626.01,-65.5"/>
<text text-anchor="middle" x="1646.51" y="-73.5" font-family="Helvetica,sans-Serif" font-size="10.00">ctime</text>
</g>
<!-- Node41&#45;&gt;Node45 -->
<g id="edge154" class="edge"><title>Node41&#45;&gt;Node45</title>
<path fill="none" stroke="midnightblue" d="M1254.42,-209.243C1229.82,-191.529 1188.04,-155.635 1211.51,-130 1272.66,-63.1844 1531.58,-122.661 1617.51,-94 1619.45,-93.3531 1621.39,-92.5536 1623.3,-91.6545"/>
<polygon fill="midnightblue" stroke="midnightblue" points="1625.39,-94.4985 1632.42,-86.5728 1621.98,-88.384 1625.39,-94.4985"/>
</g>
<!-- Node46 -->
<g id="node118" class="node"><title>Node46</title>
<polygon fill="white" stroke="#bfbfbf" points="1220.51,-137.5 1220.51,-158.5 1258.51,-158.5 1258.51,-137.5 1220.51,-137.5"/>
<text text-anchor="middle" x="1239.51" y="-145.5" font-family="Helvetica,sans-Serif" font-size="10.00">tuple</text>
</g>
<!-- Node41&#45;&gt;Node46 -->
<g id="edge144" class="edge"><title>Node41&#45;&gt;Node46</title>
<path fill="none" stroke="midnightblue" d="M1265.93,-209.376C1261.26,-198.528 1253.9,-181.426 1248.13,-168.027"/>
<polygon fill="midnightblue" stroke="midnightblue" points="1251.27,-166.468 1244.1,-158.667 1244.84,-169.236 1251.27,-166.468"/>
</g>
<!-- Node47 -->
<g id="node123" class="node"><title>Node47</title>
<polygon fill="white" stroke="#bfbfbf" points="1276.51,-137.5 1276.51,-158.5 1326.51,-158.5 1326.51,-137.5 1276.51,-137.5"/>
<text text-anchor="middle" x="1301.51" y="-145.5" font-family="Helvetica,sans-Serif" font-size="10.00">iomanip</text>
</g>
<!-- Node41&#45;&gt;Node47 -->
<g id="edge152" class="edge"><title>Node41&#45;&gt;Node47</title>
<path fill="none" stroke="midnightblue" d="M1275.08,-209.376C1279.75,-198.528 1287.11,-181.426 1292.88,-168.027"/>
<polygon fill="midnightblue" stroke="midnightblue" points="1296.17,-169.236 1296.91,-158.667 1289.74,-166.468 1296.17,-169.236"/>
</g>
<!-- Node43&#45;&gt;Node31 -->
<g id="edge136" class="edge"><title>Node43&#45;&gt;Node31</title>
<path fill="none" stroke="midnightblue" d="M1071.67,-137.447C1081.55,-134.696 1092.39,-131.957 1102.51,-130 1243.02,-102.817 1281.84,-120.383 1422.51,-94 1429.77,-92.638 1437.4,-90.9145 1444.81,-89.0763"/>
<polygon fill="midnightblue" stroke="midnightblue" points="1445.92,-92.4041 1454.73,-86.5219 1444.18,-85.6251 1445.92,-92.4041"/>
</g>
<!-- Node44 -->
<g id="node113" class="node"><title>Node44</title>
<polygon fill="white" stroke="#bfbfbf" points="1562.51,-65.5 1562.51,-86.5 1608.51,-86.5 1608.51,-65.5 1562.51,-65.5"/>
<text text-anchor="middle" x="1585.51" y="-73.5" font-family="Helvetica,sans-Serif" font-size="10.00">cstring</text>
</g>
<!-- Node43&#45;&gt;Node44 -->
<g id="edge138" class="edge"><title>Node43&#45;&gt;Node44</title>
<path fill="none" stroke="midnightblue" d="M1070.96,-137.423C1081.01,-134.603 1092.13,-131.834 1102.51,-130 1300.52,-95.0091 1361.17,-152.659 1553.51,-94 1555.96,-93.2516 1558.43,-92.2935 1560.86,-91.2103"/>
<polygon fill="midnightblue" stroke="midnightblue" points="1562.55,-94.2773 1569.84,-86.5906 1559.35,-88.0526 1562.55,-94.2773"/>
</g>
<!-- Node43&#45;&gt;Node45 -->
<g id="edge140" class="edge"><title>Node43&#45;&gt;Node45</title>
<path fill="none" stroke="midnightblue" d="M1070.62,-137.453C1080.76,-134.598 1092,-131.802 1102.51,-130 1328.65,-91.188 1399.18,-164.572 1617.51,-94 1619.45,-93.3712 1621.4,-92.585 1623.31,-91.6952"/>
<polygon fill="midnightblue" stroke="midnightblue" points="1625.39,-94.5448 1632.44,-86.6323 1621.99,-88.424 1625.39,-94.5448"/>
</g>
<!-- Node49 -->
<g id="node132" class="node"><title>Node49</title>
<a xlink:href="_fit_function_8h.html" target="_top" xlink:title="FitFunction.h">
<polygon fill="white" stroke="black" points="350.506,-209.5 350.506,-230.5 424.506,-230.5 424.506,-209.5 350.506,-209.5"/>
<text text-anchor="middle" x="387.506" y="-217.5" font-family="Helvetica,sans-Serif" font-size="10.00">FitFunction.h</text>
</a>
</g>
<!-- Node48&#45;&gt;Node49 -->
<g id="edge166" class="edge"><title>Node48&#45;&gt;Node49</title>
<path fill="none" stroke="midnightblue" d="M536.14,-346.477C508.58,-323.026 441.886,-266.274 408.001,-237.439"/>
<polygon fill="midnightblue" stroke="midnightblue" points="410.02,-234.563 400.136,-230.747 405.484,-239.894 410.02,-234.563"/>
</g>
<!-- Node49&#45;&gt;Node15 -->
<g id="edge190" class="edge"><title>Node49&#45;&gt;Node15</title>
<path fill="none" stroke="midnightblue" d="M350.271,-215.858C295.782,-208.944 198.497,-193.072 177.506,-166 155.136,-137.15 200.634,-61.8604 205.506,-58 251.958,-21.194 434.157,-13.2064 507.586,-11.4766"/>
<polygon fill="midnightblue" stroke="midnightblue" points="507.678,-14.9756 517.602,-11.2641 507.53,-7.97714 507.678,-14.9756"/>
</g>
<!-- Node49&#45;&gt;Node18 -->
<g id="edge182" class="edge"><title>Node49&#45;&gt;Node18</title>
<path fill="none" stroke="midnightblue" d="M424.636,-218.589C563.254,-213.23 1063.64,-193.063 1475.51,-166 1525.78,-162.697 1582.43,-158.04 1625.66,-154.29"/>
<polygon fill="midnightblue" stroke="midnightblue" points="1626.13,-157.762 1635.78,-153.407 1625.52,-150.789 1626.13,-157.762"/>
</g>
<!-- Node49&#45;&gt;Node19 -->
<g id="edge186" class="edge"><title>Node49&#45;&gt;Node19</title>
<path fill="none" stroke="midnightblue" d="M424.85,-219.693C558.815,-218.23 1014.58,-210.056 1152.51,-166 1181.77,-156.654 1182.24,-139.346 1211.51,-130 1427.96,-60.8615 1496.05,-122.367 1721.51,-94 1742.42,-91.3687 1765.61,-87.2193 1784.29,-83.5673"/>
<polygon fill="midnightblue" stroke="midnightblue" points="1785.03,-86.9879 1794.16,-81.6024 1783.66,-80.1227 1785.03,-86.9879"/>
</g>
<!-- Node49&#45;&gt;Node20 -->
<g id="edge188" class="edge"><title>Node49&#45;&gt;Node20</title>
<path fill="none" stroke="midnightblue" d="M424.61,-218.848C551.592,-214.647 968.051,-198.651 1097.51,-166 1135.71,-156.365 1140.29,-139.566 1178.51,-130 1393.35,-76.2244 1468.88,-173.71 1675.51,-94 1676.73,-93.5278 1677.94,-92.9672 1679.13,-92.3408"/>
<polygon fill="midnightblue" stroke="midnightblue" points="1681.29,-95.1084 1687.64,-86.6296 1677.39,-89.296 1681.29,-95.1084"/>
</g>
<!-- Node49&#45;&gt;Node26 -->
<g id="edge180" class="edge"><title>Node49&#45;&gt;Node26</title>
<path fill="none" stroke="midnightblue" d="M402.556,-209.376C419.28,-197.571 446.497,-178.36 466.027,-164.574"/>
<polygon fill="midnightblue" stroke="midnightblue" points="468.243,-167.294 474.394,-158.667 464.206,-161.575 468.243,-167.294"/>
</g>
<!-- Node49&#45;&gt;Node42 -->
<g id="edge184" class="edge"><title>Node49&#45;&gt;Node42</title>
<path fill="none" stroke="midnightblue" d="M350.26,-218.075C294.654,-214.075 187.584,-201.977 104.506,-166 54.5805,-144.38 30.1942,-142.482 5.50604,-94 -1.7544,-79.7422 -1.87582,-72.1954 5.50604,-58 12.5218,-44.5087 25.3814,-34.0833 37.9726,-26.5183"/>
<polygon fill="midnightblue" stroke="midnightblue" points="39.9557,-29.4209 47.006,-21.5125 36.5627,-23.2982 39.9557,-29.4209"/>
</g>
<!-- Node50 -->
<g id="node134" class="node"><title>Node50</title>
<a xlink:href="_knobs_t_f1_8h.html" target="_top" xlink:title="KnobsTF1.h">
<polygon fill="white" stroke="black" points="186.506,-137.5 186.506,-158.5 256.506,-158.5 256.506,-137.5 186.506,-137.5"/>
<text text-anchor="middle" x="221.506" y="-145.5" font-family="Helvetica,sans-Serif" font-size="10.00">KnobsTF1.h</text>
</a>
</g>
<!-- Node49&#45;&gt;Node50 -->
<g id="edge168" class="edge"><title>Node49&#45;&gt;Node50</title>
<path fill="none" stroke="midnightblue" d="M363.012,-209.376C334.488,-197.004 287.206,-176.496 255.226,-162.625"/>
<polygon fill="midnightblue" stroke="midnightblue" points="256.397,-159.318 245.83,-158.55 253.611,-165.74 256.397,-159.318"/>
</g>
<!-- Node51 -->
<g id="node136" class="node"><title>Node51</title>
<a xlink:href="_indicator__traits_8h.html" target="_top" xlink:title="calibration/gui/Indicator\l_traits.h">
<polygon fill="white" stroke="black" points="14.006,-59 14.006,-93 131.006,-93 131.006,-59 14.006,-59"/>
<text text-anchor="start" x="22.006" y="-80" font-family="Helvetica,sans-Serif" font-size="10.00">calibration/gui/Indicator</text>
<text text-anchor="middle" x="72.506" y="-67" font-family="Helvetica,sans-Serif" font-size="10.00">_traits.h</text>
</a>
</g>
<!-- Node49&#45;&gt;Node51 -->
<g id="edge178" class="edge"><title>Node49&#45;&gt;Node51</title>
<path fill="none" stroke="midnightblue" d="M350.109,-214.793C290.831,-206.031 178.523,-187.202 144.506,-166 119.325,-150.305 99.1575,-122.594 86.6449,-102.055"/>
<polygon fill="midnightblue" stroke="midnightblue" points="89.5235,-100.045 81.4439,-93.1913 83.4861,-103.587 89.5235,-100.045"/>
</g>
<!-- Node50&#45;&gt;Node15 -->
<g id="edge174" class="edge"><title>Node50&#45;&gt;Node15</title>
<path fill="none" stroke="midnightblue" d="M217.371,-137.327C210.951,-118.758 201.21,-80.3576 220.506,-58 239.143,-36.4061 430.828,-19.3267 507.278,-13.3234"/>
<polygon fill="midnightblue" stroke="midnightblue" points="507.986,-16.7791 517.686,-12.5188 507.446,-9.79997 507.986,-16.7791"/>
</g>
<!-- Node50&#45;&gt;Node22 -->
<g id="edge176" class="edge"><title>Node50&#45;&gt;Node22</title>
<path fill="none" stroke="midnightblue" d="M229.938,-137.447C246.528,-117.596 285.634,-75.1525 329.506,-58 350.487,-49.7969 1042.52,-20.0469 1216.91,-12.6659"/>
<polygon fill="midnightblue" stroke="midnightblue" points="1217.1,-16.1613 1226.94,-12.242 1216.81,-9.16752 1217.1,-16.1613"/>
</g>
<!-- Node50&#45;&gt;Node51 -->
<g id="edge170" class="edge"><title>Node50&#45;&gt;Node51</title>
<path fill="none" stroke="midnightblue" d="M199.521,-137.376C177.941,-126.949 144.402,-110.742 117.207,-97.6004"/>
<polygon fill="midnightblue" stroke="midnightblue" points="118.409,-94.2939 107.882,-93.0944 115.363,-100.597 118.409,-94.2939"/>
</g>
<!-- Node51&#45;&gt;Node42 -->
<g id="edge172" class="edge"><title>Node51&#45;&gt;Node42</title>
<path fill="none" stroke="midnightblue" d="M72.506,-58.922C72.506,-50.6704 72.506,-40.6922 72.506,-31.9818"/>
<polygon fill="midnightblue" stroke="midnightblue" points="76.0061,-31.8521 72.506,-21.8521 69.0061,-31.8521 76.0061,-31.8521"/>
</g>
<!-- Node52&#45;&gt;Node12 -->
<g id="edge194" class="edge"><title>Node52&#45;&gt;Node12</title>
<path fill="none" stroke="midnightblue" d="M631.732,-137.483C641.483,-134.593 652.347,-131.77 662.506,-130 914.76,-86.0387 989.566,-157.957 1237.51,-94 1273.7,-84.6644 1277.2,-66.8733 1313.51,-58 1523.47,-6.68461 2071.15,-49.7896 2285.51,-22 2291.02,-21.2854 2296.82,-20.2446 2302.43,-19.0843"/>
<polygon fill="midnightblue" stroke="midnightblue" points="2303.21,-22.4963 2312.22,-16.9115 2301.7,-15.6628 2303.21,-22.4963"/>
</g>
<!-- Node52&#45;&gt;Node28 -->
<g id="edge196" class="edge"><title>Node52&#45;&gt;Node28</title>
<path fill="none" stroke="midnightblue" d="M565.826,-137.474C535.509,-127.756 490.65,-112.116 453.506,-94 451.968,-93.25 450.408,-92.4401 448.851,-91.5935"/>
<polygon fill="midnightblue" stroke="midnightblue" points="450.53,-88.5212 440.129,-86.5029 447.002,-94.5667 450.53,-88.5212"/>
</g>
<!-- Node53&#45;&gt;Node49 -->
<g id="edge206" class="edge"><title>Node53&#45;&gt;Node49</title>
<path fill="none" stroke="midnightblue" d="M783.406,-475.011C707.968,-465.701 573.09,-439.604 484.506,-368 440.502,-332.43 409.607,-271.436 395.736,-240.011"/>
<polygon fill="midnightblue" stroke="midnightblue" points="398.845,-238.381 391.69,-230.567 392.411,-241.138 398.845,-238.381"/>
</g>
<!-- Node54&#45;&gt;Node6 -->
<g id="edge210" class="edge"><title>Node54&#45;&gt;Node6</title>
<path fill="none" stroke="midnightblue" d="M1611.41,-534.892C1626.13,-525.832 1642.3,-513.374 1652.51,-498 1673.43,-466.469 1671.51,-452.843 1671.51,-415 1671.51,-415 1671.51,-415 1671.51,-357 1671.51,-314.073 1653.97,-266.243 1642.72,-239.983"/>
<polygon fill="midnightblue" stroke="midnightblue" points="1645.87,-238.46 1638.63,-230.728 1639.47,-241.29 1645.87,-238.46"/>
</g>
<!-- Node55 -->
<g id="node161" class="node"><title>Node55</title>
<a xlink:href="_unpacker_acqu_8h.html" target="_top" xlink:title="unpacker/UnpackerAcqu.h">
<polygon fill="white" stroke="black" points="1511.51,-469.5 1511.51,-490.5 1643.51,-490.5 1643.51,-469.5 1511.51,-469.5"/>
<text text-anchor="middle" x="1577.51" y="-477.5" font-family="Helvetica,sans-Serif" font-size="10.00">unpacker/UnpackerAcqu.h</text>
</a>
</g>
<!-- Node54&#45;&gt;Node55 -->
<g id="edge212" class="edge"><title>Node54&#45;&gt;Node55</title>
<path fill="none" stroke="midnightblue" d="M1577.51,-534.937C1577.51,-524.814 1577.51,-511.898 1577.51,-501.133"/>
<polygon fill="midnightblue" stroke="midnightblue" points="1581.01,-500.901 1577.51,-490.901 1574.01,-500.901 1581.01,-500.901"/>
</g>
<!-- Node55&#45;&gt;Node6 -->
<g id="edge236" class="edge"><title>Node55&#45;&gt;Node6</title>
<path fill="none" stroke="midnightblue" d="M1585.56,-469.491C1593.1,-459.06 1604,-442.314 1609.51,-426 1631.42,-361.074 1634.01,-278.834 1633.9,-240.904"/>
<polygon fill="midnightblue" stroke="midnightblue" points="1637.4,-240.588 1633.8,-230.624 1630.4,-240.658 1637.4,-240.588"/>
</g>
<!-- Node55&#45;&gt;Node8 -->
<g id="edge244" class="edge"><title>Node55&#45;&gt;Node8</title>
<path fill="none" stroke="midnightblue" d="M1639.58,-469.467C1656.11,-466.84 1673.96,-464.16 1690.51,-462 1785.52,-449.597 2546.51,-452.824 2546.51,-357 2546.51,-357 2546.51,-357 2546.51,-148 2546.51,-93.7483 2493.03,-49.5463 2459.33,-27.0762"/>
<polygon fill="midnightblue" stroke="midnightblue" points="2461.12,-24.0662 2450.82,-21.5812 2457.32,-29.9465 2461.12,-24.0662"/>
</g>
<!-- Node55&#45;&gt;Node13 -->
<g id="edge246" class="edge"><title>Node55&#45;&gt;Node13</title>
<path fill="none" stroke="midnightblue" d="M1573.2,-469.33C1554.14,-422.116 1477.23,-231.543 1451.75,-168.421"/>
<polygon fill="midnightblue" stroke="midnightblue" points="1454.85,-166.761 1447.86,-158.797 1448.36,-169.381 1454.85,-166.761"/>
</g>
<!-- Node55&#45;&gt;Node19 -->
<g id="edge238" class="edge"><title>Node55&#45;&gt;Node19</title>
<path fill="none" stroke="midnightblue" d="M1640.79,-469.483C1656.98,-466.913 1674.37,-464.255 1690.51,-462 1867.94,-437.195 1963.78,-502.171 2082.51,-368 2132.87,-311.089 2162.5,-267.225 2123.51,-202 2114.83,-187.493 2005.24,-136.177 1989.51,-130 1930.5,-106.836 1910.12,-118.135 1851.51,-94 1849.65,-93.2358 1847.77,-92.3785 1845.9,-91.4636"/>
<polygon fill="midnightblue" stroke="midnightblue" points="1847.28,-88.2305 1836.81,-86.5747 1843.96,-94.3949 1847.28,-88.2305"/>
</g>
<!-- Node55&#45;&gt;Node20 -->
<g id="edge240" class="edge"><title>Node55&#45;&gt;Node20</title>
<path fill="none" stroke="midnightblue" d="M1576.1,-469.264C1571.5,-431.932 1558.28,-304.463 1577.51,-202 1583.84,-168.254 1582.52,-155.509 1605.51,-130 1628.92,-104.009 1646.04,-112.865 1675.51,-94 1676.15,-93.5899 1676.79,-93.166 1677.44,-92.7314"/>
<polygon fill="midnightblue" stroke="midnightblue" points="1679.66,-95.4404 1685.68,-86.7236 1675.54,-89.7823 1679.66,-95.4404"/>
</g>
<!-- Node55&#45;&gt;Node24 -->
<g id="edge242" class="edge"><title>Node55&#45;&gt;Node24</title>
<path fill="none" stroke="midnightblue" d="M1642.31,-469.475C1658.07,-466.971 1674.89,-464.346 1690.51,-462 1803.69,-444.997 1836.74,-461.629 1945.51,-426 2024.6,-400.093 2066.03,-388.902 2092.51,-310 2100.17,-287.163 2100.42,-259.251 2099.41,-240.623"/>
<polygon fill="midnightblue" stroke="midnightblue" points="2102.9,-240.319 2098.69,-230.595 2095.92,-240.819 2102.9,-240.319"/>
</g>
<!-- Node55&#45;&gt;Node28 -->
<g id="edge248" class="edge"><title>Node55&#45;&gt;Node28</title>
<path fill="none" stroke="midnightblue" d="M1511.36,-477.021C1252.52,-464.933 322.506,-417.307 322.506,-357 322.506,-357 322.506,-357 322.506,-220 322.506,-165.673 371.447,-117.516 401.528,-93.0478"/>
<polygon fill="midnightblue" stroke="midnightblue" points="403.775,-95.7328 409.456,-86.7893 399.438,-90.2385 403.775,-95.7328"/>
</g>
<!-- Node56 -->
<g id="node163" class="node"><title>Node56</title>
<a xlink:href="_unpacker_8h.html" target="_top" xlink:title="Unpacker.h">
<polygon fill="white" stroke="black" points="671.006,-137.5 671.006,-158.5 738.006,-158.5 738.006,-137.5 671.006,-137.5"/>
<text text-anchor="middle" x="704.506" y="-145.5" font-family="Helvetica,sans-Serif" font-size="10.00">Unpacker.h</text>
</a>
</g>
<!-- Node55&#45;&gt;Node56 -->
<g id="edge214" class="edge"><title>Node55&#45;&gt;Node56</title>
<path fill="none" stroke="midnightblue" d="M1517.37,-469.498C1467.75,-460.153 1395.8,-445.031 1334.51,-426 1121.22,-359.774 1070.31,-333.667 868.506,-238 818.825,-214.448 763.133,-182.688 731.106,-163.875"/>
<polygon fill="midnightblue" stroke="midnightblue" points="732.733,-160.771 722.342,-158.703 729.175,-166.8 732.733,-160.771"/>
</g>
<!-- Node57 -->
<g id="node167" class="node"><title>Node57</title>
<a xlink:href="_exp_config_8h.html" target="_top" xlink:title="expconfig/ExpConfig.h">
<polygon fill="white" stroke="black" points="1820.51,-404.5 1820.51,-425.5 1936.51,-425.5 1936.51,-404.5 1820.51,-404.5"/>
<text text-anchor="middle" x="1878.51" y="-412.5" font-family="Helvetica,sans-Serif" font-size="10.00">expconfig/ExpConfig.h</text>
</a>
</g>
<!-- Node55&#45;&gt;Node57 -->
<g id="edge220" class="edge"><title>Node55&#45;&gt;Node57</title>
<path fill="none" stroke="midnightblue" d="M1626.2,-469.484C1679.1,-458.062 1763.58,-439.818 1820.03,-427.628"/>
<polygon fill="midnightblue" stroke="midnightblue" points="1820.84,-431.033 1829.88,-425.501 1819.37,-424.19 1820.84,-431.033"/>
</g>
<!-- Node56&#45;&gt;Node15 -->
<g id="edge216" class="edge"><title>Node56&#45;&gt;Node15</title>
<path fill="none" stroke="midnightblue" d="M680.62,-137.473C674.727,-134.956 668.411,-132.326 662.506,-130 618.556,-112.689 594.82,-128.454 562.506,-94 546.626,-77.068 541.175,-50.2754 539.347,-31.7319"/>
<polygon fill="midnightblue" stroke="midnightblue" points="542.831,-31.3838 538.627,-21.6589 535.849,-31.883 542.831,-31.3838"/>
</g>
<!-- Node56&#45;&gt;Node19 -->
<g id="edge218" class="edge"><title>Node56&#45;&gt;Node19</title>
<path fill="none" stroke="midnightblue" d="M738.2,-139.487C753.719,-135.922 772.441,-132.121 789.506,-130 1200.87,-78.876 1309.45,-139.189 1721.51,-94 1742.46,-91.7022 1765.65,-87.572 1784.32,-83.8469"/>
<polygon fill="midnightblue" stroke="midnightblue" points="1785.08,-87.2631 1794.18,-81.8334 1783.68,-80.4046 1785.08,-87.2631"/>
</g>
<!-- Node57&#45;&gt;Node4 -->
<g id="edge226" class="edge"><title>Node57&#45;&gt;Node4</title>
<path fill="none" stroke="midnightblue" d="M1870.44,-404.362C1864.36,-396.35 1855.87,-385.161 1848.67,-375.67"/>
<polygon fill="midnightblue" stroke="midnightblue" points="1851.36,-373.422 1842.53,-367.571 1845.78,-377.653 1851.36,-373.422"/>
</g>
<!-- Node57&#45;&gt;Node5 -->
<g id="edge224" class="edge"><title>Node57&#45;&gt;Node5</title>
<path fill="none" stroke="midnightblue" d="M1887.03,-404.188C1896.69,-390.556 1910.15,-366.431 1902.51,-346 1898.44,-335.127 1891.08,-325 1883.38,-316.521"/>
<polygon fill="midnightblue" stroke="midnightblue" points="1885.77,-313.959 1876.29,-309.224 1880.75,-318.836 1885.77,-313.959"/>
</g>
<!-- Node57&#45;&gt;Node6 -->
<g id="edge222" class="edge"><title>Node57&#45;&gt;Node6</title>
<path fill="none" stroke="midnightblue" d="M1820.39,-406.907C1791.6,-400.412 1757.87,-388.776 1733.51,-368 1697.81,-337.563 1712.74,-312.197 1685.51,-274 1676.11,-260.826 1663.58,-247.713 1653.17,-237.708"/>
<polygon fill="midnightblue" stroke="midnightblue" points="1655.4,-235.002 1645.72,-230.714 1650.62,-240.108 1655.4,-235.002"/>
</g>
<!-- Node57&#45;&gt;Node7 -->
<g id="edge228" class="edge"><title>Node57&#45;&gt;Node7</title>
<path fill="none" stroke="midnightblue" d="M1929.33,-404.489C1973.14,-394.863 2032.54,-380.289 2053.51,-368 2161.7,-304.588 2203.24,-282.156 2250.51,-166 2259.61,-143.618 2257.72,-115.434 2254.79,-96.6257"/>
<polygon fill="midnightblue" stroke="midnightblue" points="2258.23,-95.9764 2253.02,-86.7498 2251.34,-97.2102 2258.23,-95.9764"/>
</g>
<!-- Node57&#45;&gt;Node19 -->
<g id="edge230" class="edge"><title>Node57&#45;&gt;Node19</title>
<path fill="none" stroke="midnightblue" d="M1906.36,-404.493C1946.14,-387.457 2014.51,-349.781 2014.51,-292 2014.51,-292 2014.51,-292 2014.51,-220 2014.51,-172.171 1993.24,-159.396 1955.51,-130 1916.92,-99.9378 1895.97,-114.375 1851.51,-94 1849.72,-93.1834 1847.91,-92.2952 1846.1,-91.3654"/>
<polygon fill="midnightblue" stroke="midnightblue" points="1847.7,-88.2493 1837.25,-86.5088 1844.33,-94.3867 1847.7,-88.2493"/>
</g>
<!-- Node57&#45;&gt;Node20 -->
<g id="edge232" class="edge"><title>Node57&#45;&gt;Node20</title>
<path fill="none" stroke="midnightblue" d="M1833.52,-404.434C1811.12,-397.268 1784.95,-385.779 1766.51,-368 1707.94,-311.566 1746.32,-260.189 1689.51,-202 1664.23,-176.117 1635.61,-196.72 1616.51,-166 1608.06,-152.413 1608.67,-143.952 1616.51,-130 1631.54,-103.213 1650.26,-111.495 1675.51,-94 1676.13,-93.5668 1676.76,-93.1226 1677.4,-92.6701"/>
<polygon fill="midnightblue" stroke="midnightblue" points="1679.66,-95.3454 1685.57,-86.5492 1675.47,-89.7426 1679.66,-95.3454"/>
</g>
<!-- Node57&#45;&gt;Node24 -->
<g id="edge234" class="edge"><title>Node57&#45;&gt;Node24</title>
<path fill="none" stroke="midnightblue" d="M1936.58,-406.432C1966.34,-399.786 2001.84,-388.158 2028.51,-368 2070.18,-336.5 2087.61,-273.664 2094.11,-240.926"/>
<polygon fill="midnightblue" stroke="midnightblue" points="2097.62,-241.168 2095.97,-230.702 2090.73,-239.912 2097.62,-241.168"/>
</g>
<!-- Node59 -->
<g id="node185" class="node"><title>Node59</title>
<polygon fill="white" stroke="#bfbfbf" points="1699.01,-469.5 1699.01,-490.5 1814.01,-490.5 1814.01,-469.5 1699.01,-469.5"/>
<text text-anchor="middle" x="1756.51" y="-477.5" font-family="Helvetica,sans-Serif" font-size="10.00">detail/easylogging++.h</text>
</g>
<!-- Node58&#45;&gt;Node59 -->
<g id="edge252" class="edge"><title>Node58&#45;&gt;Node59</title>
<path fill="none" stroke="midnightblue" d="M1725.82,-541.376C1731.29,-530.422 1739.96,-513.09 1746.69,-499.634"/>
<polygon fill="midnightblue" stroke="midnightblue" points="1749.83,-501.177 1751.17,-490.667 1743.57,-498.046 1749.83,-501.177"/>
</g>
</g>
</svg>
