<?xml version="1.0" encoding="UTF-8" standalone="no"?>
<!DOCTYPE svg PUBLIC "-//W3C//DTD SVG 1.1//EN"
 "http://www.w3.org/Graphics/SVG/1.1/DTD/svg11.dtd">
<!-- Generated by graphviz version 2.26.3 (20100126.1600)
 -->
<!-- Title: src/tree/TCandidate.h Pages: 1 -->
<svg width="972pt" height="334pt"
 viewBox="0.00 0.00 972.40 334.00" xmlns="http://www.w3.org/2000/svg" xmlns:xlink="http://www.w3.org/1999/xlink">
<g id="graph1" class="graph" transform="scale(1 1) rotate(0) translate(4 330)">
<title>src/tree/TCandidate.h</title>
<polygon fill="white" stroke="white" points="-4,5 -4,-330 969.399,-330 969.399,5 -4,5"/>
<!-- Node1 -->
<g id="node1" class="node"><title>Node1</title>
<polygon fill="#bfbfbf" stroke="black" points="747.899,-304.5 747.899,-325.5 858.899,-325.5 858.899,-304.5 747.899,-304.5"/>
<text text-anchor="middle" x="803.399" y="-312.5" font-family="Helvetica,sans-Serif" font-size="10.00">src/tree/TCandidate.h</text>
</g>
<!-- Node2 -->
<g id="node3" class="node"><title>Node2</title>
<a xlink:href="_t_cluster_8h.html" target="_top" xlink:title="TCluster.h">
<polygon fill="white" stroke="black" points="530.399,-246.5 530.399,-267.5 592.399,-267.5 592.399,-246.5 530.399,-246.5"/>
<text text-anchor="middle" x="561.399" y="-254.5" font-family="Helvetica,sans-Serif" font-size="10.00">TCluster.h</text>
</a>
</g>
<!-- Node1&#45;&gt;Node2 -->
<g id="edge2" class="edge"><title>Node1&#45;&gt;Node2</title>
<path fill="none" stroke="midnightblue" d="M759.575,-304.497C714.937,-293.798 646.248,-277.336 602.586,-266.871"/>
<polygon fill="midnightblue" stroke="midnightblue" points="603.134,-263.403 592.593,-264.476 601.502,-270.211 603.134,-263.403"/>
</g>
<!-- Node3 -->
<g id="node5" class="node"><title>Node3</title>
<a xlink:href="_detector__t_8h.html" target="_top" xlink:title="base/Detector_t.h">
<polygon fill="white" stroke="black" points="253.899,-181.5 253.899,-202.5 348.899,-202.5 348.899,-181.5 253.899,-181.5"/>
<text text-anchor="middle" x="301.399" y="-189.5" font-family="Helvetica,sans-Serif" font-size="10.00">base/Detector_t.h</text>
</a>
</g>
<!-- Node1&#45;&gt;Node3 -->
<g id="edge60" class="edge"><title>Node1&#45;&gt;Node3</title>
<path fill="none" stroke="midnightblue" d="M747.715,-308.518C690.418,-301.199 598.847,-287.684 521.399,-268 454.908,-251.101 379.85,-223.19 336.831,-206.306"/>
<polygon fill="midnightblue" stroke="midnightblue" points="337.967,-202.992 327.381,-202.572 335.395,-209.502 337.967,-202.992"/>
</g>
<!-- Node5 -->
<g id="node9" class="node"><title>Node5</title>
<polygon fill="white" stroke="#bfbfbf" points="557.399,-0.5 557.399,-21.5 601.399,-21.5 601.399,-0.5 557.399,-0.5"/>
<text text-anchor="middle" x="579.399" y="-8.5" font-family="Helvetica,sans-Serif" font-size="10.00">vector</text>
</g>
<!-- Node1&#45;&gt;Node5 -->
<g id="edge62" class="edge"><title>Node1&#45;&gt;Node5</title>
<path fill="none" stroke="midnightblue" d="M841.147,-304.474C888.733,-288.631 964.399,-253.732 964.399,-192 964.399,-192 964.399,-192 964.399,-127 964.399,-53.5551 704.294,-22.4766 611.669,-13.7377"/>
<polygon fill="midnightblue" stroke="midnightblue" points="611.759,-10.2314 601.481,-12.8036 611.12,-17.2022 611.759,-10.2314"/>
</g>
<!-- Node17 -->
<g id="node38" class="node"><title>Node17</title>
<polygon fill="white" stroke="#bfbfbf" points="607.399,-116.5 607.399,-137.5 659.399,-137.5 659.399,-116.5 607.399,-116.5"/>
<text text-anchor="middle" x="633.399" y="-124.5" font-family="Helvetica,sans-Serif" font-size="10.00">memory</text>
</g>
<!-- Node1&#45;&gt;Node17 -->
<g id="edge68" class="edge"><title>Node1&#45;&gt;Node17</title>
<path fill="none" stroke="midnightblue" d="M775.421,-304.407C739.54,-289.271 678.273,-257.878 647.399,-210 635.389,-191.375 632.696,-165.688 632.495,-147.843"/>
<polygon fill="midnightblue" stroke="midnightblue" points="635.998,-147.69 632.641,-137.641 628.998,-147.59 635.998,-147.69"/>
</g>
<!-- Node19 -->
<g id="node42" class="node"><title>Node19</title>
<polygon fill="white" stroke="#bfbfbf" points="836.399,-116.5 836.399,-137.5 892.399,-137.5 892.399,-116.5 836.399,-116.5"/>
<text text-anchor="middle" x="864.399" y="-124.5" font-family="Helvetica,sans-Serif" font-size="10.00">algorithm</text>
</g>
<!-- Node1&#45;&gt;Node19 -->
<g id="edge70" class="edge"><title>Node1&#45;&gt;Node19</title>
<path fill="none" stroke="midnightblue" d="M820.42,-304.311C845.107,-287.673 889.814,-252.982 907.399,-210 913.458,-195.191 913.193,-188.914 907.399,-174 902.985,-162.634 894.397,-152.341 886.05,-144.304"/>
<polygon fill="midnightblue" stroke="midnightblue" points="888.356,-141.671 878.578,-137.592 883.678,-146.879 888.356,-141.671"/>
</g>
<!-- Node20 -->
<g id="node47" class="node"><title>Node20</title>
<polygon fill="white" stroke="#bfbfbf" points="778.399,-181.5 778.399,-202.5 828.399,-202.5 828.399,-181.5 778.399,-181.5"/>
<text text-anchor="middle" x="803.399" y="-189.5" font-family="Helvetica,sans-Serif" font-size="10.00">iomanip</text>
</g>
<!-- Node1&#45;&gt;Node20 -->
<g id="edge64" class="edge"><title>Node1&#45;&gt;Node20</title>
<path fill="none" stroke="midnightblue" d="M803.399,-304.085C803.399,-283.609 803.399,-239.133 803.399,-212.778"/>
<polygon fill="midnightblue" stroke="midnightblue" points="806.899,-212.715 803.399,-202.715 799.899,-212.715 806.899,-212.715"/>
</g>
<!-- Node21 -->
<g id="node49" class="node"><title>Node21</title>
<polygon fill="white" stroke="#bfbfbf" points="846.399,-181.5 846.399,-202.5 898.399,-202.5 898.399,-181.5 846.399,-181.5"/>
<text text-anchor="middle" x="872.399" y="-189.5" font-family="Helvetica,sans-Serif" font-size="10.00">sstream</text>
</g>
<!-- Node1&#45;&gt;Node21 -->
<g id="edge66" class="edge"><title>Node1&#45;&gt;Node21</title>
<path fill="none" stroke="midnightblue" d="M809.523,-304.085C821.163,-283.335 846.63,-237.937 861.332,-211.729"/>
<polygon fill="midnightblue" stroke="midnightblue" points="864.548,-213.149 866.388,-202.715 858.443,-209.724 864.548,-213.149"/>
</g>
<!-- Node2&#45;&gt;Node3 -->
<g id="edge4" class="edge"><title>Node2&#45;&gt;Node3</title>
<path fill="none" stroke="midnightblue" d="M530.11,-249.353C492.434,-240.124 427.247,-224.087 371.399,-210 365.171,-208.429 358.635,-206.767 352.163,-205.112"/>
<polygon fill="midnightblue" stroke="midnightblue" points="352.656,-201.625 342.1,-202.533 350.918,-208.406 352.656,-201.625"/>
</g>
<!-- Node2&#45;&gt;Node5 -->
<g id="edge50" class="edge"><title>Node2&#45;&gt;Node5</title>
<path fill="none" stroke="midnightblue" d="M562.173,-246.43C564.913,-208.975 574.194,-82.138 577.876,-31.8186"/>
<polygon fill="midnightblue" stroke="midnightblue" points="581.39,-31.7597 578.629,-21.5309 574.408,-31.2488 581.39,-31.7597"/>
</g>
<!-- Node7 -->
<g id="node13" class="node"><title>Node7</title>
<a xlink:href="vec3_8h.html" target="_top" xlink:title="base/vec/vec3.h">
<polygon fill="white" stroke="black" points="328.899,-116.5 328.899,-137.5 417.899,-137.5 417.899,-116.5 328.899,-116.5"/>
<text text-anchor="middle" x="373.399" y="-124.5" font-family="Helvetica,sans-Serif" font-size="10.00">base/vec/vec3.h</text>
</a>
</g>
<!-- Node2&#45;&gt;Node7 -->
<g id="edge48" class="edge"><title>Node2&#45;&gt;Node7</title>
<path fill="none" stroke="midnightblue" d="M530.113,-250.559C491.084,-241.987 427.295,-226.038 409.399,-210 391.115,-193.613 381.737,-166.291 377.207,-147.499"/>
<polygon fill="midnightblue" stroke="midnightblue" points="380.595,-146.606 375.068,-137.566 373.752,-148.079 380.595,-146.606"/>
</g>
<!-- Node9 -->
<g id="node18" class="node"><title>Node9</title>
<polygon fill="white" stroke="#bfbfbf" points="346.399,-0.5 346.399,-21.5 390.399,-21.5 390.399,-0.5 346.399,-0.5"/>
<text text-anchor="middle" x="368.399" y="-8.5" font-family="Helvetica,sans-Serif" font-size="10.00">cmath</text>
</g>
<!-- Node2&#45;&gt;Node9 -->
<g id="edge52" class="edge"><title>Node2&#45;&gt;Node9</title>
<path fill="none" stroke="midnightblue" d="M530.276,-255.506C422.507,-249.601 68.3448,-223.842 4.3994,-138 -1.44174,-130.159 -1.47883,-123.814 4.3994,-116 24.92,-88.7232 251.514,-36.6397 336.476,-17.9176"/>
<polygon fill="midnightblue" stroke="midnightblue" points="337.325,-21.3147 346.343,-15.7532 335.825,-14.4772 337.325,-21.3147"/>
</g>
<!-- Node14 -->
<g id="node30" class="node"><title>Node14</title>
<a xlink:href="math_8h.html" target="_top" xlink:title="base/std_ext/math.h">
<polygon fill="white" stroke="black" points="418.399,-181.5 418.399,-202.5 524.399,-202.5 524.399,-181.5 418.399,-181.5"/>
<text text-anchor="middle" x="471.399" y="-189.5" font-family="Helvetica,sans-Serif" font-size="10.00">base/std_ext/math.h</text>
</a>
</g>
<!-- Node2&#45;&gt;Node14 -->
<g id="edge32" class="edge"><title>Node2&#45;&gt;Node14</title>
<path fill="none" stroke="midnightblue" d="M546.538,-246.267C532.383,-236.044 510.867,-220.504 494.481,-208.67"/>
<polygon fill="midnightblue" stroke="midnightblue" points="496.141,-205.551 485.985,-202.534 492.042,-211.226 496.141,-205.551"/>
</g>
<!-- Node16 -->
<g id="node35" class="node"><title>Node16</title>
<a xlink:href="shared__ptr__container_8h.html" target="_top" xlink:title="base/std_ext/shared\l_ptr_container.h">
<polygon fill="white" stroke="black" points="655.899,-175 655.899,-209 760.899,-209 760.899,-175 655.899,-175"/>
<text text-anchor="start" x="663.899" y="-196" font-family="Helvetica,sans-Serif" font-size="10.00">base/std_ext/shared</text>
<text text-anchor="middle" x="708.399" y="-183" font-family="Helvetica,sans-Serif" font-size="10.00">_ptr_container.h</text>
</a>
</g>
<!-- Node2&#45;&gt;Node16 -->
<g id="edge38" class="edge"><title>Node2&#45;&gt;Node16</title>
<path fill="none" stroke="midnightblue" d="M585.345,-246.412C605.616,-237.448 635.3,-224.323 660.435,-213.209"/>
<polygon fill="midnightblue" stroke="midnightblue" points="662.086,-216.306 669.817,-209.06 659.255,-209.903 662.086,-216.306"/>
</g>
<!-- Node2&#45;&gt;Node17 -->
<g id="edge58" class="edge"><title>Node2&#45;&gt;Node17</title>
<path fill="none" stroke="midnightblue" d="M567.291,-246.362C579.369,-224.555 607.092,-174.5 622.525,-146.634"/>
<polygon fill="midnightblue" stroke="midnightblue" points="625.643,-148.229 627.426,-137.785 619.519,-144.838 625.643,-148.229"/>
</g>
<!-- Node2&#45;&gt;Node20 -->
<g id="edge54" class="edge"><title>Node2&#45;&gt;Node20</title>
<path fill="none" stroke="midnightblue" d="M592.445,-252.617C633.753,-246.197 708.642,-232.493 769.399,-210 771.672,-209.159 773.983,-208.194 776.277,-207.159"/>
<polygon fill="midnightblue" stroke="midnightblue" points="778.037,-210.193 785.459,-202.633 774.942,-203.915 778.037,-210.193"/>
</g>
<!-- Node2&#45;&gt;Node21 -->
<g id="edge56" class="edge"><title>Node2&#45;&gt;Node21</title>
<path fill="none" stroke="midnightblue" d="M592.784,-254.794C644.798,-250.45 751.633,-238.597 837.399,-210 839.984,-209.138 842.613,-208.108 845.209,-206.983"/>
<polygon fill="midnightblue" stroke="midnightblue" points="846.819,-210.093 854.333,-202.624 843.801,-203.777 846.819,-210.093"/>
</g>
<!-- Node4 -->
<g id="node7" class="node"><title>Node4</title>
<a xlink:href="printable_8h.html" target="_top" xlink:title="base/printable.h">
<polygon fill="white" stroke="black" points="229.399,-58.5 229.399,-79.5 315.399,-79.5 315.399,-58.5 229.399,-58.5"/>
<text text-anchor="middle" x="272.399" y="-66.5" font-family="Helvetica,sans-Serif" font-size="10.00">base/printable.h</text>
</a>
</g>
<!-- Node3&#45;&gt;Node4 -->
<g id="edge6" class="edge"><title>Node3&#45;&gt;Node4</title>
<path fill="none" stroke="midnightblue" d="M298.826,-181.085C293.998,-160.609 283.512,-116.133 277.298,-89.778"/>
<polygon fill="midnightblue" stroke="midnightblue" points="280.627,-88.6453 274.926,-79.7153 273.814,-90.2517 280.627,-88.6453"/>
</g>
<!-- Node3&#45;&gt;Node5 -->
<g id="edge30" class="edge"><title>Node3&#45;&gt;Node5</title>
<path fill="none" stroke="midnightblue" d="M332.399,-181.43C358.454,-171.896 396.175,-156.543 426.399,-138 479.694,-105.303 534.162,-55.3012 561.466,-28.8479"/>
<polygon fill="midnightblue" stroke="midnightblue" points="564.03,-31.2365 568.731,-21.7417 559.135,-26.2325 564.03,-31.2365"/>
</g>
<!-- Node3&#45;&gt;Node7 -->
<g id="edge12" class="edge"><title>Node3&#45;&gt;Node7</title>
<path fill="none" stroke="midnightblue" d="M313.289,-181.267C324.402,-171.233 341.19,-156.078 354.202,-144.331"/>
<polygon fill="midnightblue" stroke="midnightblue" points="356.654,-146.833 361.731,-137.534 351.963,-141.637 356.654,-146.833"/>
</g>
<!-- Node10 -->
<g id="node21" class="node"><title>Node10</title>
<polygon fill="white" stroke="#bfbfbf" points="151.399,-116.5 151.399,-137.5 197.399,-137.5 197.399,-116.5 151.399,-116.5"/>
<text text-anchor="middle" x="174.399" y="-124.5" font-family="Helvetica,sans-Serif" font-size="10.00">cstdint</text>
</g>
<!-- Node3&#45;&gt;Node10 -->
<g id="edge22" class="edge"><title>Node3&#45;&gt;Node10</title>
<path fill="none" stroke="midnightblue" d="M280.712,-181.412C259.955,-170.788 227.775,-154.318 204.254,-142.28"/>
<polygon fill="midnightblue" stroke="midnightblue" points="205.574,-139.024 195.078,-137.584 202.385,-145.255 205.574,-139.024"/>
</g>
<!-- Node11 -->
<g id="node23" class="node"><title>Node11</title>
<polygon fill="white" stroke="#bfbfbf" points="214.899,-116.5 214.899,-137.5 273.899,-137.5 273.899,-116.5 214.899,-116.5"/>
<text text-anchor="middle" x="244.399" y="-124.5" font-family="Helvetica,sans-Serif" font-size="10.00">stdexcept</text>
</g>
<!-- Node3&#45;&gt;Node11 -->
<g id="edge24" class="edge"><title>Node3&#45;&gt;Node11</title>
<path fill="none" stroke="midnightblue" d="M291.987,-181.267C283.438,-171.517 270.647,-156.932 260.479,-145.336"/>
<polygon fill="midnightblue" stroke="midnightblue" points="262.861,-142.745 253.637,-137.534 257.598,-147.36 262.861,-142.745"/>
</g>
<!-- Node12 -->
<g id="node25" class="node"><title>Node12</title>
<polygon fill="white" stroke="#bfbfbf" points="12.8994,-116.5 12.8994,-137.5 53.8994,-137.5 53.8994,-116.5 12.8994,-116.5"/>
<text text-anchor="middle" x="33.3994" y="-124.5" font-family="Helvetica,sans-Serif" font-size="10.00">string</text>
</g>
<!-- Node3&#45;&gt;Node12 -->
<g id="edge26" class="edge"><title>Node3&#45;&gt;Node12</title>
<path fill="none" stroke="midnightblue" d="M253.729,-183.278C207.305,-174.329 134.668,-159.123 64.1251,-138.266"/>
<polygon fill="midnightblue" stroke="midnightblue" points="64.772,-134.806 54.1881,-135.285 62.7609,-141.511 64.772,-134.806"/>
</g>
<!-- Node13 -->
<g id="node27" class="node"><title>Node13</title>
<polygon fill="white" stroke="#bfbfbf" points="71.3994,-116.5 71.3994,-137.5 133.399,-137.5 133.399,-116.5 71.3994,-116.5"/>
<text text-anchor="middle" x="102.399" y="-124.5" font-family="Helvetica,sans-Serif" font-size="10.00">type_traits</text>
</g>
<!-- Node3&#45;&gt;Node13 -->
<g id="edge28" class="edge"><title>Node3&#45;&gt;Node13</title>
<path fill="none" stroke="midnightblue" d="M268.984,-181.412C234.61,-170.184 180.241,-152.426 143.028,-140.271"/>
<polygon fill="midnightblue" stroke="midnightblue" points="144.082,-136.933 133.49,-137.155 141.909,-143.587 144.082,-136.933"/>
</g>
<!-- Node4&#45;&gt;Node5 -->
<g id="edge8" class="edge"><title>Node4&#45;&gt;Node5</title>
<path fill="none" stroke="midnightblue" d="M315.41,-60.8743C377.732,-49.1001 491.745,-27.56 547.285,-17.0671"/>
<polygon fill="midnightblue" stroke="midnightblue" points="548.089,-20.4773 557.266,-15.1816 546.79,-13.5989 548.089,-20.4773"/>
</g>
<!-- Node6 -->
<g id="node11" class="node"><title>Node6</title>
<polygon fill="white" stroke="#bfbfbf" points="246.399,-0.5 246.399,-21.5 298.399,-21.5 298.399,-0.5 246.399,-0.5"/>
<text text-anchor="middle" x="272.399" y="-8.5" font-family="Helvetica,sans-Serif" font-size="10.00">ostream</text>
</g>
<!-- Node4&#45;&gt;Node6 -->
<g id="edge10" class="edge"><title>Node4&#45;&gt;Node6</title>
<path fill="none" stroke="midnightblue" d="M272.399,-58.3619C272.399,-50.9219 272.399,-40.7427 272.399,-31.7276"/>
<polygon fill="midnightblue" stroke="midnightblue" points="275.899,-31.5706 272.399,-21.5707 268.899,-31.5707 275.899,-31.5706"/>
</g>
<!-- Node7&#45;&gt;Node4 -->
<g id="edge14" class="edge"><title>Node7&#45;&gt;Node4</title>
<path fill="none" stroke="midnightblue" d="M354.874,-116.362C339.498,-107.532 317.404,-94.844 299.952,-84.8224"/>
<polygon fill="midnightblue" stroke="midnightblue" points="301.222,-81.5154 290.807,-79.5707 297.736,-87.5857 301.222,-81.5154"/>
</g>
<!-- Node8 -->
<g id="node16" class="node"><title>Node8</title>
<a xlink:href="vec2_8h.html" target="_top" xlink:title="vec2.h">
<polygon fill="white" stroke="black" points="371.399,-58.5 371.399,-79.5 417.399,-79.5 417.399,-58.5 371.399,-58.5"/>
<text text-anchor="middle" x="394.399" y="-66.5" font-family="Helvetica,sans-Serif" font-size="10.00">vec2.h</text>
</a>
</g>
<!-- Node7&#45;&gt;Node8 -->
<g id="edge16" class="edge"><title>Node7&#45;&gt;Node8</title>
<path fill="none" stroke="midnightblue" d="M377.251,-116.362C380.004,-108.758 383.793,-98.294 387.109,-89.1349"/>
<polygon fill="midnightblue" stroke="midnightblue" points="390.459,-90.1649 390.572,-79.5707 383.877,-87.7818 390.459,-90.1649"/>
</g>
<!-- Node7&#45;&gt;Node9 -->
<g id="edge20" class="edge"><title>Node7&#45;&gt;Node9</title>
<path fill="none" stroke="midnightblue" d="M370.152,-116.297C367.464,-106.851 363.86,-92.6539 362.399,-80 360.528,-63.7884 362.327,-45.3728 364.431,-31.6466"/>
<polygon fill="midnightblue" stroke="midnightblue" points="367.883,-32.2224 366.119,-21.7755 360.983,-31.0422 367.883,-32.2224"/>
</g>
<!-- Node8&#45;&gt;Node9 -->
<g id="edge18" class="edge"><title>Node8&#45;&gt;Node9</title>
<path fill="none" stroke="midnightblue" d="M389.631,-58.3619C386.185,-50.6766 381.43,-40.0686 377.293,-30.8399"/>
<polygon fill="midnightblue" stroke="midnightblue" points="380.422,-29.264 373.138,-21.5707 374.035,-32.1275 380.422,-29.264"/>
</g>
<!-- Node14&#45;&gt;Node9 -->
<g id="edge34" class="edge"><title>Node14&#45;&gt;Node9</title>
<path fill="none" stroke="midnightblue" d="M469.9,-181.357C466.112,-157.426 454.391,-98.3168 426.399,-58 418.117,-46.0713 405.974,-35.581 394.937,-27.555"/>
<polygon fill="midnightblue" stroke="midnightblue" points="396.633,-24.4728 386.416,-21.6663 392.653,-30.2313 396.633,-24.4728"/>
</g>
<!-- Node15 -->
<g id="node33" class="node"><title>Node15</title>
<polygon fill="white" stroke="#bfbfbf" points="511.399,-116.5 511.399,-137.5 551.399,-137.5 551.399,-116.5 511.399,-116.5"/>
<text text-anchor="middle" x="531.399" y="-124.5" font-family="Helvetica,sans-Serif" font-size="10.00">limits</text>
</g>
<!-- Node14&#45;&gt;Node15 -->
<g id="edge36" class="edge"><title>Node14&#45;&gt;Node15</title>
<path fill="none" stroke="midnightblue" d="M481.307,-181.267C490.394,-171.423 504.032,-156.648 514.784,-145"/>
<polygon fill="midnightblue" stroke="midnightblue" points="517.465,-147.256 521.676,-137.534 512.321,-142.508 517.465,-147.256"/>
</g>
<!-- Node16&#45;&gt;Node5 -->
<g id="edge40" class="edge"><title>Node16&#45;&gt;Node5</title>
<path fill="none" stroke="midnightblue" d="M700.672,-174.79C693.266,-158.976 681.33,-135.155 668.399,-116 646.327,-83.3029 615.711,-49.1118 596.749,-28.9507"/>
<polygon fill="midnightblue" stroke="midnightblue" points="599.287,-26.5396 589.862,-21.6999 594.211,-31.3607 599.287,-26.5396"/>
</g>
<!-- Node16&#45;&gt;Node17 -->
<g id="edge42" class="edge"><title>Node16&#45;&gt;Node17</title>
<path fill="none" stroke="midnightblue" d="M688.694,-174.922C677.904,-165.57 664.554,-154.001 653.675,-144.572"/>
<polygon fill="midnightblue" stroke="midnightblue" points="655.77,-141.757 645.921,-137.852 651.186,-147.046 655.77,-141.757"/>
</g>
<!-- Node18 -->
<g id="node40" class="node"><title>Node18</title>
<polygon fill="white" stroke="#bfbfbf" points="714.899,-116.5 714.899,-137.5 773.899,-137.5 773.899,-116.5 714.899,-116.5"/>
<text text-anchor="middle" x="744.399" y="-124.5" font-family="Helvetica,sans-Serif" font-size="10.00">functional</text>
</g>
<!-- Node16&#45;&gt;Node18 -->
<g id="edge44" class="edge"><title>Node16&#45;&gt;Node18</title>
<path fill="none" stroke="midnightblue" d="M717.858,-174.922C722.631,-166.304 728.448,-155.802 733.418,-146.828"/>
<polygon fill="midnightblue" stroke="midnightblue" points="736.606,-148.296 738.389,-137.852 730.482,-144.904 736.606,-148.296"/>
</g>
<!-- Node16&#45;&gt;Node19 -->
<g id="edge46" class="edge"><title>Node16&#45;&gt;Node19</title>
<path fill="none" stroke="midnightblue" d="M749.387,-174.922C774.3,-164.541 805.772,-151.428 829.493,-141.544"/>
<polygon fill="midnightblue" stroke="midnightblue" points="830.935,-144.735 838.819,-137.658 828.242,-138.274 830.935,-144.735"/>
</g>
</g>
</svg>
