<?xml version="1.0" encoding="UTF-8" standalone="no"?>
<!DOCTYPE svg PUBLIC "-//W3C//DTD SVG 1.1//EN"
 "http://www.w3.org/Graphics/SVG/1.1/DTD/svg11.dtd">
<!-- Generated by graphviz version 2.26.3 (20100126.1600)
 -->
<!-- Title: src/tree/TDetectorReadHit.h Pages: 1 -->
<svg width="493pt" height="262pt"
 viewBox="0.00 0.00 493.00 262.00" xmlns="http://www.w3.org/2000/svg" xmlns:xlink="http://www.w3.org/1999/xlink">
<g id="graph1" class="graph" transform="scale(1 1) rotate(0) translate(4 258)">
<title>src/tree/TDetectorReadHit.h</title>
<polygon fill="white" stroke="white" points="-4,5 -4,-258 490,-258 490,5 -4,5"/>
<!-- Node1 -->
<g id="node1" class="node"><title>Node1</title>
<polygon fill="#bfbfbf" stroke="black" points="268,-232.5 268,-253.5 408,-253.5 408,-232.5 268,-232.5"/>
<text text-anchor="middle" x="338" y="-240.5" font-family="Helvetica,sans-Serif" font-size="10.00">src/tree/TDetectorReadHit.h</text>
</g>
<!-- Node2 -->
<g id="node3" class="node"><title>Node2</title>
<a xlink:href="_detector__t_8h.html" target="_top" xlink:title="base/Detector_t.h">
<polygon fill="white" stroke="black" points="200.5,-174.5 200.5,-195.5 295.5,-195.5 295.5,-174.5 200.5,-174.5"/>
<text text-anchor="middle" x="248" y="-182.5" font-family="Helvetica,sans-Serif" font-size="10.00">base/Detector_t.h</text>
</a>
</g>
<!-- Node1&#45;&gt;Node2 -->
<g id="edge2" class="edge"><title>Node1&#45;&gt;Node2</title>
<path fill="none" stroke="midnightblue" d="M321.493,-232.362C307.918,-223.614 288.467,-211.079 272.985,-201.101"/>
<polygon fill="midnightblue" stroke="midnightblue" points="274.704,-198.046 264.403,-195.571 270.912,-203.93 274.704,-198.046"/>
</g>
<!-- Node13 -->
<g id="node28" class="node"><title>Node13</title>
<polygon fill="white" stroke="#bfbfbf" points="313,-174.5 313,-195.5 363,-195.5 363,-174.5 313,-174.5"/>
<text text-anchor="middle" x="338" y="-182.5" font-family="Helvetica,sans-Serif" font-size="10.00">iomanip</text>
</g>
<!-- Node1&#45;&gt;Node13 -->
<g id="edge30" class="edge"><title>Node1&#45;&gt;Node13</title>
<path fill="none" stroke="midnightblue" d="M338,-232.362C338,-224.922 338,-214.743 338,-205.728"/>
<polygon fill="midnightblue" stroke="midnightblue" points="341.5,-205.571 338,-195.571 334.5,-205.571 341.5,-205.571"/>
</g>
<!-- Node14 -->
<g id="node30" class="node"><title>Node14</title>
<polygon fill="white" stroke="#bfbfbf" points="381,-174.5 381,-195.5 433,-195.5 433,-174.5 381,-174.5"/>
<text text-anchor="middle" x="407" y="-182.5" font-family="Helvetica,sans-Serif" font-size="10.00">sstream</text>
</g>
<!-- Node1&#45;&gt;Node14 -->
<g id="edge32" class="edge"><title>Node1&#45;&gt;Node14</title>
<path fill="none" stroke="midnightblue" d="M350.656,-232.362C360.674,-223.941 374.867,-212.011 386.501,-202.231"/>
<polygon fill="midnightblue" stroke="midnightblue" points="389.022,-204.684 394.425,-195.571 384.518,-199.326 389.022,-204.684"/>
</g>
<!-- Node3 -->
<g id="node5" class="node"><title>Node3</title>
<a xlink:href="printable_8h.html" target="_top" xlink:title="base/printable.h">
<polygon fill="white" stroke="black" points="48,-58.5 48,-79.5 134,-79.5 134,-58.5 48,-58.5"/>
<text text-anchor="middle" x="91" y="-66.5" font-family="Helvetica,sans-Serif" font-size="10.00">base/printable.h</text>
</a>
</g>
<!-- Node2&#45;&gt;Node3 -->
<g id="edge4" class="edge"><title>Node2&#45;&gt;Node3</title>
<path fill="none" stroke="midnightblue" d="M202.605,-174.424C167.558,-165.394 122.93,-151.724 110,-138 97.7274,-124.974 93.2502,-104.762 91.6815,-89.5747"/>
<polygon fill="midnightblue" stroke="midnightblue" points="95.1716,-89.3103 90.9834,-79.5785 88.1887,-89.798 95.1716,-89.3103"/>
</g>
<!-- Node4 -->
<g id="node7" class="node"><title>Node4</title>
<polygon fill="white" stroke="#bfbfbf" points="0,-0.5 0,-21.5 44,-21.5 44,-0.5 0,-0.5"/>
<text text-anchor="middle" x="22" y="-8.5" font-family="Helvetica,sans-Serif" font-size="10.00">vector</text>
</g>
<!-- Node2&#45;&gt;Node4 -->
<g id="edge28" class="edge"><title>Node2&#45;&gt;Node4</title>
<path fill="none" stroke="midnightblue" d="M200.199,-177.266C168.085,-170.504 125.805,-158.464 93,-138 63.1172,-119.358 55.7505,-110.982 39,-80 30.9441,-65.0994 26.6394,-46.3349 24.3794,-32.1369"/>
<polygon fill="midnightblue" stroke="midnightblue" points="27.8004,-31.3215 22.9727,-21.8905 20.8655,-32.2737 27.8004,-31.3215"/>
</g>
<!-- Node6 -->
<g id="node11" class="node"><title>Node6</title>
<a xlink:href="vec3_8h.html" target="_top" xlink:title="base/vec/vec3.h">
<polygon fill="white" stroke="black" points="118.5,-116.5 118.5,-137.5 207.5,-137.5 207.5,-116.5 118.5,-116.5"/>
<text text-anchor="middle" x="163" y="-124.5" font-family="Helvetica,sans-Serif" font-size="10.00">base/vec/vec3.h</text>
</a>
</g>
<!-- Node2&#45;&gt;Node6 -->
<g id="edge10" class="edge"><title>Node2&#45;&gt;Node6</title>
<path fill="none" stroke="midnightblue" d="M232.41,-174.362C219.709,-165.696 201.562,-153.313 187.008,-143.382"/>
<polygon fill="midnightblue" stroke="midnightblue" points="188.724,-140.316 178.491,-137.571 184.779,-146.098 188.724,-140.316"/>
</g>
<!-- Node9 -->
<g id="node19" class="node"><title>Node9</title>
<polygon fill="white" stroke="#bfbfbf" points="225,-116.5 225,-137.5 271,-137.5 271,-116.5 225,-116.5"/>
<text text-anchor="middle" x="248" y="-124.5" font-family="Helvetica,sans-Serif" font-size="10.00">cstdint</text>
</g>
<!-- Node2&#45;&gt;Node9 -->
<g id="edge20" class="edge"><title>Node2&#45;&gt;Node9</title>
<path fill="none" stroke="midnightblue" d="M248,-174.362C248,-166.922 248,-156.743 248,-147.728"/>
<polygon fill="midnightblue" stroke="midnightblue" points="251.5,-147.571 248,-137.571 244.5,-147.571 251.5,-147.571"/>
</g>
<!-- Node10 -->
<g id="node21" class="node"><title>Node10</title>
<polygon fill="white" stroke="#bfbfbf" points="288.5,-116.5 288.5,-137.5 347.5,-137.5 347.5,-116.5 288.5,-116.5"/>
<text text-anchor="middle" x="318" y="-124.5" font-family="Helvetica,sans-Serif" font-size="10.00">stdexcept</text>
</g>
<!-- Node2&#45;&gt;Node10 -->
<g id="edge22" class="edge"><title>Node2&#45;&gt;Node10</title>
<path fill="none" stroke="midnightblue" d="M260.839,-174.362C271.002,-165.941 285.401,-154.011 297.204,-144.231"/>
<polygon fill="midnightblue" stroke="midnightblue" points="299.775,-146.646 305.242,-137.571 295.309,-141.256 299.775,-146.646"/>
</g>
<!-- Node11 -->
<g id="node23" class="node"><title>Node11</title>
<polygon fill="white" stroke="#bfbfbf" points="364.5,-116.5 364.5,-137.5 405.5,-137.5 405.5,-116.5 364.5,-116.5"/>
<text text-anchor="middle" x="385" y="-124.5" font-family="Helvetica,sans-Serif" font-size="10.00">string</text>
</g>
<!-- Node2&#45;&gt;Node11 -->
<g id="edge24" class="edge"><title>Node2&#45;&gt;Node11</title>
<path fill="none" stroke="midnightblue" d="M272.81,-174.497C295.954,-164.698 330.52,-150.065 355.161,-139.633"/>
<polygon fill="midnightblue" stroke="midnightblue" points="356.555,-142.843 364.399,-135.721 353.826,-136.397 356.555,-142.843"/>
</g>
<!-- Node12 -->
<g id="node25" class="node"><title>Node12</title>
<polygon fill="white" stroke="#bfbfbf" points="423,-116.5 423,-137.5 485,-137.5 485,-116.5 423,-116.5"/>
<text text-anchor="middle" x="454" y="-124.5" font-family="Helvetica,sans-Serif" font-size="10.00">type_traits</text>
</g>
<!-- Node2&#45;&gt;Node12 -->
<g id="edge26" class="edge"><title>Node2&#45;&gt;Node12</title>
<path fill="none" stroke="midnightblue" d="M285.305,-174.497C321.232,-164.381 375.462,-149.113 412.681,-138.634"/>
<polygon fill="midnightblue" stroke="midnightblue" points="414.021,-141.892 422.698,-135.813 412.124,-135.154 414.021,-141.892"/>
</g>
<!-- Node3&#45;&gt;Node4 -->
<g id="edge6" class="edge"><title>Node3&#45;&gt;Node4</title>
<path fill="none" stroke="midnightblue" d="M78.3443,-58.3619C68.3261,-49.9408 54.1332,-38.0105 42.4987,-28.2308"/>
<polygon fill="midnightblue" stroke="midnightblue" points="44.4824,-25.326 34.5754,-21.5707 39.9782,-30.6844 44.4824,-25.326"/>
</g>
<!-- Node5 -->
<g id="node9" class="node"><title>Node5</title>
<polygon fill="white" stroke="#bfbfbf" points="65,-0.5 65,-21.5 117,-21.5 117,-0.5 65,-0.5"/>
<text text-anchor="middle" x="91" y="-8.5" font-family="Helvetica,sans-Serif" font-size="10.00">ostream</text>
</g>
<!-- Node3&#45;&gt;Node5 -->
<g id="edge8" class="edge"><title>Node3&#45;&gt;Node5</title>
<path fill="none" stroke="midnightblue" d="M91,-58.3619C91,-50.9219 91,-40.7427 91,-31.7276"/>
<polygon fill="midnightblue" stroke="midnightblue" points="94.5001,-31.5706 91,-21.5707 87.5001,-31.5707 94.5001,-31.5706"/>
</g>
<!-- Node6&#45;&gt;Node3 -->
<g id="edge12" class="edge"><title>Node6&#45;&gt;Node3</title>
<path fill="none" stroke="midnightblue" d="M149.794,-116.362C139.239,-107.859 124.242,-95.7785 112.037,-85.9466"/>
<polygon fill="midnightblue" stroke="midnightblue" points="114.105,-83.1183 104.122,-79.5707 109.714,-88.5696 114.105,-83.1183"/>
</g>
<!-- Node7 -->
<g id="node14" class="node"><title>Node7</title>
<a xlink:href="vec2_8h.html" target="_top" xlink:title="vec2.h">
<polygon fill="white" stroke="black" points="152,-58.5 152,-79.5 198,-79.5 198,-58.5 152,-58.5"/>
<text text-anchor="middle" x="175" y="-66.5" font-family="Helvetica,sans-Serif" font-size="10.00">vec2.h</text>
</a>
</g>
<!-- Node6&#45;&gt;Node7 -->
<g id="edge14" class="edge"><title>Node6&#45;&gt;Node7</title>
<path fill="none" stroke="midnightblue" d="M165.201,-116.362C166.757,-108.84 168.893,-98.5187 170.773,-89.4308"/>
<polygon fill="midnightblue" stroke="midnightblue" points="174.214,-90.0724 172.813,-79.5707 167.359,-88.6541 174.214,-90.0724"/>
</g>
<!-- Node8 -->
<g id="node16" class="node"><title>Node8</title>
<polygon fill="white" stroke="#bfbfbf" points="178,-0.5 178,-21.5 222,-21.5 222,-0.5 178,-0.5"/>
<text text-anchor="middle" x="200" y="-8.5" font-family="Helvetica,sans-Serif" font-size="10.00">cmath</text>
</g>
<!-- Node6&#45;&gt;Node8 -->
<g id="edge18" class="edge"><title>Node6&#45;&gt;Node8</title>
<path fill="none" stroke="midnightblue" d="M177.501,-116.479C187.904,-107.97 201.086,-94.9697 207,-80 213.134,-64.4725 210.57,-45.5235 206.93,-31.4144"/>
<polygon fill="midnightblue" stroke="midnightblue" points="210.252,-30.305 204.064,-21.7054 203.539,-32.2872 210.252,-30.305"/>
</g>
<!-- Node7&#45;&gt;Node8 -->
<g id="edge16" class="edge"><title>Node7&#45;&gt;Node8</title>
<path fill="none" stroke="midnightblue" d="M179.585,-58.3619C182.898,-50.6766 187.47,-40.0686 191.448,-30.8399"/>
<polygon fill="midnightblue" stroke="midnightblue" points="194.699,-32.1393 195.444,-21.5707 188.271,-29.3685 194.699,-32.1393"/>
</g>
</g>
</svg>
