<?xml version="1.0" encoding="UTF-8" standalone="no"?>
<!DOCTYPE svg PUBLIC "-//W3C//DTD SVG 1.1//EN"
 "http://www.w3.org/Graphics/SVG/1.1/DTD/svg11.dtd">
<!-- Generated by graphviz version 2.26.3 (20100126.1600)
 -->
<!-- Title: src/root&#45;addons/cbtaps_display/TH2CB.h Pages: 1 -->
<svg width="1578pt" height="188pt"
 viewBox="0.00 0.00 1578.00 188.00" xmlns="http://www.w3.org/2000/svg" xmlns:xlink="http://www.w3.org/1999/xlink">
<g id="graph1" class="graph" transform="scale(1 1) rotate(0) translate(4 184)">
<title>src/root&#45;addons/cbtaps_display/TH2CB.h</title>
<polygon fill="white" stroke="white" points="-4,5 -4,-184 1575,-184 1575,5 -4,5"/>
<!-- Node1 -->
<g id="node1" class="node"><title>Node1</title>
<polygon fill="#bfbfbf" stroke="black" points="725,-145 725,-179 841,-179 841,-145 725,-145"/>
<text text-anchor="start" x="733" y="-166" font-family="Helvetica,sans-Serif" font-size="10.00">src/root&#45;addons/cbtaps</text>
<text text-anchor="middle" x="783" y="-153" font-family="Helvetica,sans-Serif" font-size="10.00">_display/TH2CB.h</text>
</g>
<!-- Node2 -->
<g id="node3" class="node"><title>Node2</title>
<a xlink:href="_xmas_c_b_8cc.html" target="_top" xlink:title="progs/XmasCB.cc">
<polygon fill="white" stroke="black" points="-0.5,-79.5 -0.5,-100.5 96.5,-100.5 96.5,-79.5 -0.5,-79.5"/>
<text text-anchor="middle" x="48" y="-87.5" font-family="Helvetica,sans-Serif" font-size="10.00">progs/XmasCB.cc</text>
</a>
</g>
<!-- Node1&#45;&gt;Node2 -->
<g id="edge2" class="edge"><title>Node1&#45;&gt;Node2</title>
<path fill="none" stroke="midnightblue" d="M714.497,-158.518C566.378,-150.668 220.373,-130.509 105,-108 95.7312,-106.192 85.8495,-103.395 76.9619,-100.54"/>
<polygon fill="midnightblue" stroke="midnightblue" points="714.644,-162.031 724.814,-159.062 715.012,-155.041 714.644,-162.031"/>
</g>
<!-- Node3 -->
<g id="node5" class="node"><title>Node3</title>
<a xlink:href="analysis_2physics_2calibration_2_c_b___energy_8h.html" target="_top" xlink:title="src/analysis/physics\l/calibration/CB_Energy.h">
<polygon fill="white" stroke="black" points="113.5,-73 113.5,-107 238.5,-107 238.5,-73 113.5,-73"/>
<text text-anchor="start" x="121.5" y="-94" font-family="Helvetica,sans-Serif" font-size="10.00">src/analysis/physics</text>
<text text-anchor="middle" x="176" y="-81" font-family="Helvetica,sans-Serif" font-size="10.00">/calibration/CB_Energy.h</text>
</a>
</g>
<!-- Node1&#45;&gt;Node3 -->
<g id="edge4" class="edge"><title>Node1&#45;&gt;Node3</title>
<path fill="none" stroke="midnightblue" d="M714.514,-158.351C612.169,-152.166 413.524,-137.331 247,-108 244.245,-107.515 241.439,-106.98 238.611,-106.408"/>
<polygon fill="midnightblue" stroke="midnightblue" points="714.523,-161.858 724.713,-158.958 714.938,-154.87 714.523,-161.858"/>
</g>
<!-- Node5 -->
<g id="node9" class="node"><title>Node5</title>
<a xlink:href="_data_overview_8cc.html" target="_top" xlink:title="src/analysis/physics\l/common/DataOverview.cc">
<polygon fill="white" stroke="black" points="256,-73 256,-107 392,-107 392,-73 256,-73"/>
<text text-anchor="start" x="264" y="-94" font-family="Helvetica,sans-Serif" font-size="10.00">src/analysis/physics</text>
<text text-anchor="middle" x="324" y="-81" font-family="Helvetica,sans-Serif" font-size="10.00">/common/DataOverview.cc</text>
</a>
</g>
<!-- Node1&#45;&gt;Node5 -->
<g id="edge8" class="edge"><title>Node1&#45;&gt;Node5</title>
<path fill="none" stroke="midnightblue" d="M714.809,-154.223C638.162,-145.05 510.159,-128.432 401,-108 398.166,-107.47 395.279,-106.905 392.367,-106.316"/>
<polygon fill="midnightblue" stroke="midnightblue" points="714.472,-157.707 724.816,-155.413 715.299,-150.756 714.472,-157.707"/>
</g>
<!-- Node6 -->
<g id="node11" class="node"><title>Node6</title>
<a xlink:href="_event_display_hists_8cc.html" target="_top" xlink:title="src/analysis/physics\l/common/EventDisplayHists.cc">
<polygon fill="white" stroke="black" points="409.5,-73 409.5,-107 564.5,-107 564.5,-73 409.5,-73"/>
<text text-anchor="start" x="417.5" y="-94" font-family="Helvetica,sans-Serif" font-size="10.00">src/analysis/physics</text>
<text text-anchor="middle" x="487" y="-81" font-family="Helvetica,sans-Serif" font-size="10.00">/common/EventDisplayHists.cc</text>
</a>
</g>
<!-- Node1&#45;&gt;Node6 -->
<g id="edge10" class="edge"><title>Node1&#45;&gt;Node6</title>
<path fill="none" stroke="midnightblue" d="M715.021,-145.465C667.689,-133.951 604.743,-118.64 556.979,-107.022"/>
<polygon fill="midnightblue" stroke="midnightblue" points="714.329,-148.898 724.873,-147.861 715.984,-142.097 714.329,-148.898"/>
</g>
<!-- Node7 -->
<g id="node13" class="node"><title>Node7</title>
<a xlink:href="_goat_comparison_8cc.html" target="_top" xlink:title="src/analysis/physics\l/misc/GoatComparison.cc">
<polygon fill="white" stroke="black" points="581.5,-73 581.5,-107 712.5,-107 712.5,-73 581.5,-73"/>
<text text-anchor="start" x="589.5" y="-94" font-family="Helvetica,sans-Serif" font-size="10.00">src/analysis/physics</text>
<text text-anchor="middle" x="647" y="-81" font-family="Helvetica,sans-Serif" font-size="10.00">/misc/GoatComparison.cc</text>
</a>
</g>
<!-- Node1&#45;&gt;Node7 -->
<g id="edge12" class="edge"><title>Node1&#45;&gt;Node7</title>
<path fill="none" stroke="midnightblue" d="M741.872,-140.226C721.872,-129.638 698.177,-117.094 679.47,-107.19"/>
<polygon fill="midnightblue" stroke="midnightblue" points="740.294,-143.351 750.77,-144.937 743.57,-137.165 740.294,-143.351"/>
</g>
<!-- Node8 -->
<g id="node15" class="node"><title>Node8</title>
<a xlink:href="_x_mas_c_b_8cc.html" target="_top" xlink:title="src/analysis/physics\l/misc/XMasCB.cc">
<polygon fill="white" stroke="black" points="730,-73 730,-107 836,-107 836,-73 730,-73"/>
<text text-anchor="start" x="738" y="-94" font-family="Helvetica,sans-Serif" font-size="10.00">src/analysis/physics</text>
<text text-anchor="middle" x="783" y="-81" font-family="Helvetica,sans-Serif" font-size="10.00">/misc/XMasCB.cc</text>
</a>
</g>
<!-- Node1&#45;&gt;Node8 -->
<g id="edge14" class="edge"><title>Node1&#45;&gt;Node8</title>
<path fill="none" stroke="midnightblue" d="M783,-134.719C783,-125.572 783,-115.625 783,-107.441"/>
<polygon fill="midnightblue" stroke="midnightblue" points="779.5,-134.937 783,-144.937 786.5,-134.937 779.5,-134.937"/>
</g>
<!-- Node9 -->
<g id="node17" class="node"><title>Node9</title>
<a xlink:href="calibration_2modules_2_c_b___energy_8cc.html" target="_top" xlink:title="src/calibration/modules\l/CB_Energy.cc">
<polygon fill="white" stroke="black" points="853.5,-73 853.5,-107 970.5,-107 970.5,-73 853.5,-73"/>
<text text-anchor="start" x="861.5" y="-94" font-family="Helvetica,sans-Serif" font-size="10.00">src/calibration/modules</text>
<text text-anchor="middle" x="912" y="-81" font-family="Helvetica,sans-Serif" font-size="10.00">/CB_Energy.cc</text>
</a>
</g>
<!-- Node1&#45;&gt;Node9 -->
<g id="edge16" class="edge"><title>Node1&#45;&gt;Node9</title>
<path fill="none" stroke="midnightblue" d="M822.525,-139.94C841.386,-129.413 863.617,-117.004 881.201,-107.19"/>
<polygon fill="midnightblue" stroke="midnightblue" points="820.597,-137.007 813.571,-144.937 824.009,-143.119 820.597,-137.007"/>
</g>
<!-- Node10 -->
<g id="node19" class="node"><title>Node10</title>
<a xlink:href="_c_b_e_sum___check_8cc.html" target="_top" xlink:title="src/root&#45;addons/analysis\l_codes/CBESum_Check.cc">
<polygon fill="white" stroke="black" points="988,-73 988,-107 1128,-107 1128,-73 988,-73"/>
<text text-anchor="start" x="996" y="-94" font-family="Helvetica,sans-Serif" font-size="10.00">src/root&#45;addons/analysis</text>
<text text-anchor="middle" x="1058" y="-81" font-family="Helvetica,sans-Serif" font-size="10.00">_codes/CBESum_Check.cc</text>
</a>
</g>
<!-- Node1&#45;&gt;Node10 -->
<g id="edge18" class="edge"><title>Node1&#45;&gt;Node10</title>
<path fill="none" stroke="midnightblue" d="M851.21,-144.141C894.55,-132.794 950.324,-118.192 993.025,-107.012"/>
<polygon fill="midnightblue" stroke="midnightblue" points="850.108,-140.812 841.32,-146.731 851.881,-147.584 850.108,-140.812"/>
</g>
<!-- Node11 -->
<g id="node21" class="node"><title>Node11</title>
<a xlink:href="_detector_plots_8cc.html" target="_top" xlink:title="src/root&#45;addons/analysis\l_codes/DetectorPlots.cc">
<polygon fill="white" stroke="black" points="1145.5,-73 1145.5,-107 1270.5,-107 1270.5,-73 1145.5,-73"/>
<text text-anchor="start" x="1153.5" y="-94" font-family="Helvetica,sans-Serif" font-size="10.00">src/root&#45;addons/analysis</text>
<text text-anchor="middle" x="1208" y="-81" font-family="Helvetica,sans-Serif" font-size="10.00">_codes/DetectorPlots.cc</text>
</a>
</g>
<!-- Node1&#45;&gt;Node11 -->
<g id="edge20" class="edge"><title>Node1&#45;&gt;Node11</title>
<path fill="none" stroke="midnightblue" d="M851.483,-153.556C923.045,-144.265 1038.42,-127.967 1137,-108 1139.74,-107.445 1142.54,-106.852 1145.36,-106.232"/>
<polygon fill="midnightblue" stroke="midnightblue" points="850.721,-150.125 841.25,-154.875 851.616,-157.067 850.721,-150.125"/>
</g>
<!-- Node12 -->
<g id="node23" class="node"><title>Node12</title>
<a xlink:href="root-addons_2analysis__codes_2_extract_resolutions_8cc.html" target="_top" xlink:title="src/root&#45;addons/analysis\l_codes/ExtractResolutions.cc">
<polygon fill="white" stroke="black" points="1288,-73 1288,-107 1436,-107 1436,-73 1288,-73"/>
<text text-anchor="start" x="1296" y="-94" font-family="Helvetica,sans-Serif" font-size="10.00">src/root&#45;addons/analysis</text>
<text text-anchor="middle" x="1362" y="-81" font-family="Helvetica,sans-Serif" font-size="10.00">_codes/ExtractResolutions.cc</text>
</a>
</g>
<!-- Node1&#45;&gt;Node12 -->
<g id="edge22" class="edge"><title>Node1&#45;&gt;Node12</title>
<path fill="none" stroke="midnightblue" d="M851.452,-156.838C947.413,-149.082 1127.21,-132.652 1279,-108 1281.91,-107.527 1284.87,-107.019 1287.86,-106.482"/>
<polygon fill="midnightblue" stroke="midnightblue" points="850.99,-153.364 841.301,-157.651 851.549,-160.341 850.99,-153.364"/>
</g>
<!-- Node13 -->
<g id="node25" class="node"><title>Node13</title>
<a xlink:href="_t_h2_c_b_8cc.html" target="_top" xlink:title="src/root&#45;addons/cbtaps\l_display/TH2CB.cc">
<polygon fill="white" stroke="black" points="1454,-73 1454,-107 1570,-107 1570,-73 1454,-73"/>
<text text-anchor="start" x="1462" y="-94" font-family="Helvetica,sans-Serif" font-size="10.00">src/root&#45;addons/cbtaps</text>
<text text-anchor="middle" x="1512" y="-81" font-family="Helvetica,sans-Serif" font-size="10.00">_display/TH2CB.cc</text>
</a>
</g>
<!-- Node1&#45;&gt;Node13 -->
<g id="edge24" class="edge"><title>Node1&#45;&gt;Node13</title>
<path fill="none" stroke="midnightblue" d="M851.191,-160.501C971.797,-156.949 1230.28,-145.283 1445,-108 1447.85,-107.505 1450.75,-106.945 1453.67,-106.337"/>
<polygon fill="midnightblue" stroke="midnightblue" points="850.897,-157.008 841.001,-160.791 851.097,-164.005 850.897,-157.008"/>
</g>
<!-- Node4 -->
<g id="node7" class="node"><title>Node4</title>
<a xlink:href="analysis_2physics_2calibration_2_c_b___energy_8cc.html" target="_top" xlink:title="src/analysis/physics\l/calibration/CB_Energy.cc">
<polygon fill="white" stroke="black" points="110.5,-1 110.5,-35 241.5,-35 241.5,-1 110.5,-1"/>
<text text-anchor="start" x="118.5" y="-22" font-family="Helvetica,sans-Serif" font-size="10.00">src/analysis/physics</text>
<text text-anchor="middle" x="176" y="-9" font-family="Helvetica,sans-Serif" font-size="10.00">/calibration/CB_Energy.cc</text>
</a>
</g>
<!-- Node3&#45;&gt;Node4 -->
<g id="edge6" class="edge"><title>Node3&#45;&gt;Node4</title>
<path fill="none" stroke="midnightblue" d="M176,-62.7193C176,-53.572 176,-43.6255 176,-35.4407"/>
<polygon fill="midnightblue" stroke="midnightblue" points="172.5,-62.937 176,-72.937 179.5,-62.937 172.5,-62.937"/>
</g>
</g>
</svg>
