<?xml version="1.0" encoding="UTF-8" standalone="no"?>
<!DOCTYPE svg PUBLIC "-//W3C//DTD SVG 1.1//EN"
 "http://www.w3.org/Graphics/SVG/1.1/DTD/svg11.dtd">
<!-- Generated by graphviz version 2.26.3 (20100126.1600)
 -->
<!-- Title: src/root&#45;addons/cbtaps_display/TH2CB.cc Pages: 1 -->
<svg width="988pt" height="276pt"
 viewBox="0.00 0.00 988.00 276.00" xmlns="http://www.w3.org/2000/svg" xmlns:xlink="http://www.w3.org/1999/xlink">
<g id="graph1" class="graph" transform="scale(1 1) rotate(0) translate(4 272)">
<title>src/root&#45;addons/cbtaps_display/TH2CB.cc</title>
<polygon fill="white" stroke="white" points="-4,5 -4,-272 985,-272 985,5 -4,5"/>
<!-- Node1 -->
<g id="node1" class="node"><title>Node1</title>
<polygon fill="#bfbfbf" stroke="black" points="679,-233 679,-267 795,-267 795,-233 679,-233"/>
<text text-anchor="start" x="687" y="-254" font-family="Helvetica,sans-Serif" font-size="10.00">src/root&#45;addons/cbtaps</text>
<text text-anchor="middle" x="737" y="-241" font-family="Helvetica,sans-Serif" font-size="10.00">_display/TH2CB.cc</text>
</g>
<!-- Node2 -->
<g id="node3" class="node"><title>Node2</title>
<a xlink:href="_t_h2_c_b_8h.html" target="_top" xlink:title="TH2CB.h">
<polygon fill="white" stroke="black" points="565,-174.5 565,-195.5 623,-195.5 623,-174.5 565,-174.5"/>
<text text-anchor="middle" x="594" y="-182.5" font-family="Helvetica,sans-Serif" font-size="10.00">TH2CB.h</text>
</a>
</g>
<!-- Node1&#45;&gt;Node2 -->
<g id="edge2" class="edge"><title>Node1&#45;&gt;Node2</title>
<path fill="none" stroke="midnightblue" d="M699.428,-232.922C676.794,-222.634 648.255,-209.661 626.579,-199.809"/>
<polygon fill="midnightblue" stroke="midnightblue" points="628,-196.61 617.448,-195.658 625.104,-202.983 628,-196.61"/>
</g>
<!-- Node7 -->
<g id="node13" class="node"><title>Node7</title>
<polygon fill="white" stroke="#bfbfbf" points="671,-58.5 671,-79.5 727,-79.5 727,-58.5 671,-58.5"/>
<text text-anchor="middle" x="699" y="-66.5" font-family="Helvetica,sans-Serif" font-size="10.00">Rtypes.h</text>
</g>
<!-- Node1&#45;&gt;Node7 -->
<g id="edge26" class="edge"><title>Node1&#45;&gt;Node7</title>
<path fill="none" stroke="midnightblue" d="M733.425,-232.972C726.426,-199.635 710.939,-125.869 703.356,-89.747"/>
<polygon fill="midnightblue" stroke="midnightblue" points="706.754,-88.8992 701.274,-79.8317 699.903,-90.3375 706.754,-88.8992"/>
</g>
<!-- Node10 -->
<g id="node22" class="node"><title>Node10</title>
<polygon fill="white" stroke="#bfbfbf" points="784,-174.5 784,-195.5 834,-195.5 834,-174.5 784,-174.5"/>
<text text-anchor="middle" x="809" y="-182.5" font-family="Helvetica,sans-Serif" font-size="10.00">TText.h</text>
</g>
<!-- Node1&#45;&gt;Node10 -->
<g id="edge24" class="edge"><title>Node1&#45;&gt;Node10</title>
<path fill="none" stroke="midnightblue" d="M755.917,-232.922C766.276,-223.57 779.092,-212.001 789.535,-202.572"/>
<polygon fill="midnightblue" stroke="midnightblue" points="791.902,-205.151 796.979,-195.852 787.211,-199.955 791.902,-205.151"/>
</g>
<!-- Node11 -->
<g id="node25" class="node"><title>Node11</title>
<polygon fill="white" stroke="#bfbfbf" points="851.5,-174.5 851.5,-195.5 908.5,-195.5 908.5,-174.5 851.5,-174.5"/>
<text text-anchor="middle" x="880" y="-182.5" font-family="Helvetica,sans-Serif" font-size="10.00">TGraph.h</text>
</g>
<!-- Node1&#45;&gt;Node11 -->
<g id="edge28" class="edge"><title>Node1&#45;&gt;Node11</title>
<path fill="none" stroke="midnightblue" d="M774.572,-232.922C797.206,-222.634 825.745,-209.661 847.421,-199.809"/>
<polygon fill="midnightblue" stroke="midnightblue" points="848.896,-202.983 856.552,-195.658 846,-196.61 848.896,-202.983"/>
</g>
<!-- Node12 -->
<g id="node27" class="node"><title>Node12</title>
<a xlink:href="_t_h2_draw_tool_8h.html" target="_top" xlink:title="TH2DrawTool.h">
<polygon fill="white" stroke="black" points="293,-174.5 293,-195.5 379,-195.5 379,-174.5 293,-174.5"/>
<text text-anchor="middle" x="336" y="-182.5" font-family="Helvetica,sans-Serif" font-size="10.00">TH2DrawTool.h</text>
</a>
</g>
<!-- Node1&#45;&gt;Node12 -->
<g id="edge30" class="edge"><title>Node1&#45;&gt;Node12</title>
<path fill="none" stroke="midnightblue" d="M678.691,-240.548C600.997,-227.955 464.613,-205.848 389.457,-193.665"/>
<polygon fill="midnightblue" stroke="midnightblue" points="389.702,-190.159 379.27,-192.014 388.582,-197.069 389.702,-190.159"/>
</g>
<!-- Node13 -->
<g id="node29" class="node"><title>Node13</title>
<a xlink:href="matrixstack_8h.html" target="_top" xlink:title="base/matrixstack.h">
<polygon fill="white" stroke="black" points="208,-116.5 208,-137.5 308,-137.5 308,-116.5 208,-116.5"/>
<text text-anchor="middle" x="258" y="-124.5" font-family="Helvetica,sans-Serif" font-size="10.00">base/matrixstack.h</text>
</a>
</g>
<!-- Node1&#45;&gt;Node13 -->
<g id="edge50" class="edge"><title>Node1&#45;&gt;Node13</title>
<path fill="none" stroke="midnightblue" d="M678.605,-246.407C563.225,-238.824 314.512,-219.903 284,-196 269.18,-184.39 262.807,-163.349 260.067,-147.543"/>
<polygon fill="midnightblue" stroke="midnightblue" points="263.531,-147.042 258.691,-137.617 256.597,-148.003 263.531,-147.042"/>
</g>
<!-- Node19 -->
<g id="node45" class="node"><title>Node19</title>
<a xlink:href="cb__numbering_8h.html" target="_top" xlink:title="cb_numbering.h">
<polygon fill="white" stroke="black" points="746,-116.5 746,-137.5 832,-137.5 832,-116.5 746,-116.5"/>
<text text-anchor="middle" x="789" y="-124.5" font-family="Helvetica,sans-Serif" font-size="10.00">cb_numbering.h</text>
</a>
</g>
<!-- Node1&#45;&gt;Node19 -->
<g id="edge52" class="edge"><title>Node1&#45;&gt;Node19</title>
<path fill="none" stroke="midnightblue" d="M744.23,-232.897C753.711,-210.472 770.321,-171.183 780.425,-147.283"/>
<polygon fill="midnightblue" stroke="midnightblue" points="783.769,-148.361 784.439,-137.787 777.322,-145.635 783.769,-148.361"/>
</g>
<!-- Node20 -->
<g id="node48" class="node"><title>Node20</title>
<polygon fill="white" stroke="#bfbfbf" points="926,-174.5 926,-195.5 980,-195.5 980,-174.5 926,-174.5"/>
<text text-anchor="middle" x="953" y="-182.5" font-family="Helvetica,sans-Serif" font-size="10.00">iostream</text>
</g>
<!-- Node1&#45;&gt;Node20 -->
<g id="edge56" class="edge"><title>Node1&#45;&gt;Node20</title>
<path fill="none" stroke="midnightblue" d="M794.174,-232.929C827.285,-223.023 870.006,-210.212 916.268,-196.213"/>
<polygon fill="midnightblue" stroke="midnightblue" points="917.321,-199.551 925.878,-193.304 915.293,-192.852 917.321,-199.551"/>
</g>
<!-- Node3 -->
<g id="node5" class="node"><title>Node3</title>
<polygon fill="white" stroke="#bfbfbf" points="622,-116.5 622,-137.5 652,-137.5 652,-116.5 622,-116.5"/>
<text text-anchor="middle" x="637" y="-124.5" font-family="Helvetica,sans-Serif" font-size="10.00">set</text>
</g>
<!-- Node2&#45;&gt;Node3 -->
<g id="edge4" class="edge"><title>Node2&#45;&gt;Node3</title>
<path fill="none" stroke="midnightblue" d="M601.887,-174.362C607.827,-166.35 616.122,-155.161 623.159,-145.67"/>
<polygon fill="midnightblue" stroke="midnightblue" points="626.019,-147.688 629.163,-137.571 620.396,-143.519 626.019,-147.688"/>
</g>
<!-- Node4 -->
<g id="node7" class="node"><title>Node4</title>
<polygon fill="white" stroke="#bfbfbf" points="314,-0.5 314,-21.5 358,-21.5 358,-0.5 314,-0.5"/>
<text text-anchor="middle" x="336" y="-8.5" font-family="Helvetica,sans-Serif" font-size="10.00">vector</text>
</g>
<!-- Node2&#45;&gt;Node4 -->
<g id="edge6" class="edge"><title>Node2&#45;&gt;Node4</title>
<path fill="none" stroke="midnightblue" d="M596.032,-174.419C600.014,-150.214 605.954,-90.4013 575,-58 547.019,-28.711 427.072,-16.9376 368.474,-12.8668"/>
<polygon fill="midnightblue" stroke="midnightblue" points="368.491,-9.36041 358.282,-12.1939 368.03,-16.3452 368.491,-9.36041"/>
</g>
<!-- Node5 -->
<g id="node9" class="node"><title>Node5</title>
<polygon fill="white" stroke="#bfbfbf" points="525.5,-58.5 525.5,-79.5 566.5,-79.5 566.5,-58.5 525.5,-58.5"/>
<text text-anchor="middle" x="546" y="-66.5" font-family="Helvetica,sans-Serif" font-size="10.00">string</text>
</g>
<!-- Node2&#45;&gt;Node5 -->
<g id="edge8" class="edge"><title>Node2&#45;&gt;Node5</title>
<path fill="none" stroke="midnightblue" d="M589.57,-174.295C581.569,-154.959 564.589,-113.923 554.349,-89.1767"/>
<polygon fill="midnightblue" stroke="midnightblue" points="557.477,-87.5811 550.419,-79.6792 551.008,-90.2576 557.477,-87.5811"/>
</g>
<!-- Node6 -->
<g id="node11" class="node"><title>Node6</title>
<a xlink:href="_t_h2_crystals_8h.html" target="_top" xlink:title="TH2Crystals.h">
<polygon fill="white" stroke="black" points="448,-116.5 448,-137.5 528,-137.5 528,-116.5 448,-116.5"/>
<text text-anchor="middle" x="488" y="-124.5" font-family="Helvetica,sans-Serif" font-size="10.00">TH2Crystals.h</text>
</a>
</g>
<!-- Node2&#45;&gt;Node6 -->
<g id="edge10" class="edge"><title>Node2&#45;&gt;Node6</title>
<path fill="none" stroke="midnightblue" d="M574.558,-174.362C558.196,-165.409 534.587,-152.491 516.157,-142.406"/>
<polygon fill="midnightblue" stroke="midnightblue" points="517.771,-139.3 507.319,-137.571 514.411,-145.441 517.771,-139.3"/>
</g>
<!-- Node2&#45;&gt;Node7 -->
<g id="edge22" class="edge"><title>Node2&#45;&gt;Node7</title>
<path fill="none" stroke="midnightblue" d="M613.707,-174.452C628.116,-166.017 647.432,-153.124 661,-138 674.059,-123.443 684.386,-103.619 690.958,-88.9547"/>
<polygon fill="midnightblue" stroke="midnightblue" points="694.178,-90.3252 694.895,-79.7546 687.743,-87.5709 694.178,-90.3252"/>
</g>
<!-- Node8 -->
<g id="node15" class="node"><title>Node8</title>
<polygon fill="white" stroke="#bfbfbf" points="445.5,-58.5 445.5,-79.5 508.5,-79.5 508.5,-58.5 445.5,-58.5"/>
<text text-anchor="middle" x="477" y="-66.5" font-family="Helvetica,sans-Serif" font-size="10.00">TH2Poly.h</text>
</g>
<!-- Node2&#45;&gt;Node8 -->
<g id="edge20" class="edge"><title>Node2&#45;&gt;Node8</title>
<path fill="none" stroke="midnightblue" d="M564.776,-180.348C524.19,-173.222 454.035,-158.27 439,-138 426.859,-121.631 441.73,-100.938 456.279,-86.5018"/>
<polygon fill="midnightblue" stroke="midnightblue" points="458.78,-88.9554 463.712,-79.579 454.009,-83.8327 458.78,-88.9554"/>
</g>
<!-- Node6&#45;&gt;Node5 -->
<g id="edge18" class="edge"><title>Node6&#45;&gt;Node5</title>
<path fill="none" stroke="midnightblue" d="M498.638,-116.362C506.896,-108.104 518.528,-96.4725 528.197,-86.8029"/>
<polygon fill="midnightblue" stroke="midnightblue" points="530.833,-89.1166 535.429,-79.5707 525.883,-84.1669 530.833,-89.1166"/>
</g>
<!-- Node6&#45;&gt;Node7 -->
<g id="edge12" class="edge"><title>Node6&#45;&gt;Node7</title>
<path fill="none" stroke="midnightblue" d="M526.211,-116.497C564.475,-105.978 623.009,-89.8884 661.147,-79.405"/>
<polygon fill="midnightblue" stroke="midnightblue" points="662.139,-82.7623 670.854,-76.7369 660.284,-76.0126 662.139,-82.7623"/>
</g>
<!-- Node6&#45;&gt;Node8 -->
<g id="edge14" class="edge"><title>Node6&#45;&gt;Node8</title>
<path fill="none" stroke="midnightblue" d="M485.982,-116.362C484.556,-108.84 482.598,-98.5187 480.875,-89.4308"/>
<polygon fill="midnightblue" stroke="midnightblue" points="484.307,-88.7433 479.005,-79.5707 477.429,-90.0477 484.307,-88.7433"/>
</g>
<!-- Node9 -->
<g id="node17" class="node"><title>Node9</title>
<polygon fill="white" stroke="#bfbfbf" points="363.5,-58.5 363.5,-79.5 428.5,-79.5 428.5,-58.5 363.5,-58.5"/>
<text text-anchor="middle" x="396" y="-66.5" font-family="Helvetica,sans-Serif" font-size="10.00">TVector2.h</text>
</g>
<!-- Node6&#45;&gt;Node9 -->
<g id="edge16" class="edge"><title>Node6&#45;&gt;Node9</title>
<path fill="none" stroke="midnightblue" d="M471.126,-116.362C457.249,-107.614 437.366,-95.0786 421.54,-85.1015"/>
<polygon fill="midnightblue" stroke="midnightblue" points="423.093,-81.943 412.767,-79.5707 419.36,-87.8645 423.093,-81.943"/>
</g>
<!-- Node12&#45;&gt;Node4 -->
<g id="edge48" class="edge"><title>Node12&#45;&gt;Node4</title>
<path fill="none" stroke="midnightblue" d="M336,-174.377C336,-146.293 336,-69.6735 336,-32.2027"/>
<polygon fill="midnightblue" stroke="midnightblue" points="339.5,-31.9277 336,-21.9277 332.5,-31.9278 339.5,-31.9277"/>
</g>
<!-- Node12&#45;&gt;Node13 -->
<g id="edge32" class="edge"><title>Node12&#45;&gt;Node13</title>
<path fill="none" stroke="midnightblue" d="M321.694,-174.362C310.149,-165.777 293.7,-153.546 280.41,-143.664"/>
<polygon fill="midnightblue" stroke="midnightblue" points="282.329,-140.729 272.216,-137.571 278.152,-146.346 282.329,-140.729"/>
</g>
<!-- Node13&#45;&gt;Node9 -->
<g id="edge44" class="edge"><title>Node13&#45;&gt;Node9</title>
<path fill="none" stroke="midnightblue" d="M282.991,-116.497C304.933,-107.275 337.066,-93.7695 361.464,-83.5153"/>
<polygon fill="midnightblue" stroke="midnightblue" points="362.866,-86.7225 370.729,-79.6212 360.154,-80.2693 362.866,-86.7225"/>
</g>
<!-- Node14 -->
<g id="node31" class="node"><title>Node14</title>
<a xlink:href="printable_8h.html" target="_top" xlink:title="base/printable.h">
<polygon fill="white" stroke="black" points="222,-58.5 222,-79.5 308,-79.5 308,-58.5 222,-58.5"/>
<text text-anchor="middle" x="265" y="-66.5" font-family="Helvetica,sans-Serif" font-size="10.00">base/printable.h</text>
</a>
</g>
<!-- Node13&#45;&gt;Node14 -->
<g id="edge34" class="edge"><title>Node13&#45;&gt;Node14</title>
<path fill="none" stroke="midnightblue" d="M259.284,-116.362C260.182,-108.922 261.41,-98.7427 262.498,-89.7276"/>
<polygon fill="midnightblue" stroke="midnightblue" points="266.001,-89.918 263.724,-79.5707 259.051,-89.0792 266.001,-89.918"/>
</g>
<!-- Node16 -->
<g id="node36" class="node"><title>Node16</title>
<polygon fill="white" stroke="#bfbfbf" points="-0.5,-58.5 -0.5,-79.5 64.5,-79.5 64.5,-58.5 -0.5,-58.5"/>
<text text-anchor="middle" x="32" y="-66.5" font-family="Helvetica,sans-Serif" font-size="10.00">TVectorT.h</text>
</g>
<!-- Node13&#45;&gt;Node16 -->
<g id="edge40" class="edge"><title>Node13&#45;&gt;Node16</title>
<path fill="none" stroke="midnightblue" d="M215.71,-116.427C180.312,-107.538 128.212,-94.3668 74.3761,-80.3404"/>
<polygon fill="midnightblue" stroke="midnightblue" points="75.2231,-76.9443 64.6633,-77.8054 73.4553,-83.7174 75.2231,-76.9443"/>
</g>
<!-- Node17 -->
<g id="node38" class="node"><title>Node17</title>
<polygon fill="white" stroke="#bfbfbf" points="82,-58.5 82,-79.5 146,-79.5 146,-58.5 82,-58.5"/>
<text text-anchor="middle" x="114" y="-66.5" font-family="Helvetica,sans-Serif" font-size="10.00">TMatrixT.h</text>
</g>
<!-- Node13&#45;&gt;Node17 -->
<g id="edge42" class="edge"><title>Node13&#45;&gt;Node17</title>
<path fill="none" stroke="midnightblue" d="M231.923,-116.497C208.925,-107.234 175.2,-93.6499 149.7,-83.3793"/>
<polygon fill="midnightblue" stroke="midnightblue" points="150.953,-80.1108 140.37,-79.6212 148.338,-86.6039 150.953,-80.1108"/>
</g>
<!-- Node18 -->
<g id="node41" class="node"><title>Node18</title>
<polygon fill="white" stroke="#bfbfbf" points="163.5,-58.5 163.5,-79.5 204.5,-79.5 204.5,-58.5 163.5,-58.5"/>
<text text-anchor="middle" x="184" y="-66.5" font-family="Helvetica,sans-Serif" font-size="10.00">stack</text>
</g>
<!-- Node13&#45;&gt;Node18 -->
<g id="edge46" class="edge"><title>Node13&#45;&gt;Node18</title>
<path fill="none" stroke="midnightblue" d="M244.427,-116.362C233.579,-107.859 218.166,-95.7785 205.621,-85.9466"/>
<polygon fill="midnightblue" stroke="midnightblue" points="207.516,-82.9848 197.487,-79.5707 203.198,-88.4942 207.516,-82.9848"/>
</g>
<!-- Node14&#45;&gt;Node4 -->
<g id="edge36" class="edge"><title>Node14&#45;&gt;Node4</title>
<path fill="none" stroke="midnightblue" d="M278.022,-58.3619C288.431,-49.859 303.219,-37.7785 315.255,-27.9466"/>
<polygon fill="midnightblue" stroke="midnightblue" points="317.53,-30.6077 323.06,-21.5707 313.101,-25.1866 317.53,-30.6077"/>
</g>
<!-- Node15 -->
<g id="node34" class="node"><title>Node15</title>
<polygon fill="white" stroke="#bfbfbf" points="239,-0.5 239,-21.5 291,-21.5 291,-0.5 239,-0.5"/>
<text text-anchor="middle" x="265" y="-8.5" font-family="Helvetica,sans-Serif" font-size="10.00">ostream</text>
</g>
<!-- Node14&#45;&gt;Node15 -->
<g id="edge38" class="edge"><title>Node14&#45;&gt;Node15</title>
<path fill="none" stroke="midnightblue" d="M265,-58.3619C265,-50.9219 265,-40.7427 265,-31.7276"/>
<polygon fill="midnightblue" stroke="midnightblue" points="268.5,-31.5706 265,-21.5707 261.5,-31.5707 268.5,-31.5706"/>
</g>
<!-- Node19&#45;&gt;Node7 -->
<g id="edge54" class="edge"><title>Node19&#45;&gt;Node7</title>
<path fill="none" stroke="midnightblue" d="M772.493,-116.362C758.918,-107.614 739.467,-95.0786 723.985,-85.1015"/>
<polygon fill="midnightblue" stroke="midnightblue" points="725.704,-82.0457 715.403,-79.5707 721.912,-87.9297 725.704,-82.0457"/>
</g>
</g>
</svg>
