<?xml version="1.0" encoding="UTF-8" standalone="no"?>
<!DOCTYPE svg PUBLIC "-//W3C//DTD SVG 1.1//EN"
 "http://www.w3.org/Graphics/SVG/1.1/DTD/svg11.dtd">
<!-- Generated by graphviz version 2.26.3 (20100126.1600)
 -->
<!-- Title: src/root&#45;addons/cbtaps_display/TH2TAPS.cc Pages: 1 -->
<svg width="623pt" height="276pt"
 viewBox="0.00 0.00 622.60 276.00" xmlns="http://www.w3.org/2000/svg" xmlns:xlink="http://www.w3.org/1999/xlink">
<g id="graph1" class="graph" transform="scale(1 1) rotate(0) translate(4 272)">
<title>src/root&#45;addons/cbtaps_display/TH2TAPS.cc</title>
<polygon fill="white" stroke="white" points="-4,5 -4,-272 619.598,-272 619.598,5 -4,5"/>
<!-- Node1 -->
<g id="node1" class="node"><title>Node1</title>
<polygon fill="#bfbfbf" stroke="black" points="195,-233 195,-267 311,-267 311,-233 195,-233"/>
<text text-anchor="start" x="203" y="-254" font-family="Helvetica,sans-Serif" font-size="10.00">src/root&#45;addons/cbtaps</text>
<text text-anchor="middle" x="253" y="-241" font-family="Helvetica,sans-Serif" font-size="10.00">_display/TH2TAPS.cc</text>
</g>
<!-- Node2 -->
<g id="node3" class="node"><title>Node2</title>
<a xlink:href="_t_h2_t_a_p_s_8h.html" target="_top" xlink:title="TH2TAPS.h">
<polygon fill="white" stroke="black" points="63,-174.5 63,-195.5 133,-195.5 133,-174.5 63,-174.5"/>
<text text-anchor="middle" x="98" y="-182.5" font-family="Helvetica,sans-Serif" font-size="10.00">TH2TAPS.h</text>
</a>
</g>
<!-- Node1&#45;&gt;Node2 -->
<g id="edge2" class="edge"><title>Node1&#45;&gt;Node2</title>
<path fill="none" stroke="midnightblue" d="M212.276,-232.922C187.522,-222.541 156.252,-209.428 132.682,-199.544"/>
<polygon fill="midnightblue" stroke="midnightblue" points="133.992,-196.298 123.416,-195.658 131.285,-202.753 133.992,-196.298"/>
</g>
<!-- Node5 -->
<g id="node9" class="node"><title>Node5</title>
<polygon fill="white" stroke="#bfbfbf" points="131.5,-58.5 131.5,-79.5 194.5,-79.5 194.5,-58.5 131.5,-58.5"/>
<text text-anchor="middle" x="163" y="-66.5" font-family="Helvetica,sans-Serif" font-size="10.00">TH2Poly.h</text>
</g>
<!-- Node1&#45;&gt;Node5 -->
<g id="edge16" class="edge"><title>Node1&#45;&gt;Node5</title>
<path fill="none" stroke="midnightblue" d="M220.367,-232.848C206.322,-223.779 191.073,-211.325 182,-196 162.323,-162.764 160.577,-116.347 161.504,-89.8122"/>
<polygon fill="midnightblue" stroke="midnightblue" points="165.003,-89.9201 162.021,-79.7537 158.013,-89.561 165.003,-89.9201"/>
</g>
<!-- Node8 -->
<g id="node15" class="node"><title>Node8</title>
<polygon fill="white" stroke="#bfbfbf" points="190.5,-174.5 190.5,-195.5 243.5,-195.5 243.5,-174.5 190.5,-174.5"/>
<text text-anchor="middle" x="217" y="-182.5" font-family="Helvetica,sans-Serif" font-size="10.00">TMath.h</text>
</g>
<!-- Node1&#45;&gt;Node8 -->
<g id="edge14" class="edge"><title>Node1&#45;&gt;Node8</title>
<path fill="none" stroke="midnightblue" d="M243.541,-232.922C238.768,-224.304 232.952,-213.802 227.982,-204.828"/>
<polygon fill="midnightblue" stroke="midnightblue" points="230.917,-202.904 223.01,-195.852 224.794,-206.296 230.917,-202.904"/>
</g>
<!-- Node9 -->
<g id="node18" class="node"><title>Node9</title>
<polygon fill="white" stroke="#bfbfbf" points="260.5,-174.5 260.5,-195.5 317.5,-195.5 317.5,-174.5 260.5,-174.5"/>
<text text-anchor="middle" x="289" y="-182.5" font-family="Helvetica,sans-Serif" font-size="10.00">TGraph.h</text>
</g>
<!-- Node1&#45;&gt;Node9 -->
<g id="edge18" class="edge"><title>Node1&#45;&gt;Node9</title>
<path fill="none" stroke="midnightblue" d="M262.459,-232.922C267.232,-224.304 273.048,-213.802 278.018,-204.828"/>
<polygon fill="midnightblue" stroke="midnightblue" points="281.206,-206.296 282.99,-195.852 275.083,-202.904 281.206,-206.296"/>
</g>
<!-- Node10 -->
<g id="node20" class="node"><title>Node10</title>
<polygon fill="white" stroke="#bfbfbf" points="335,-174.5 335,-195.5 391,-195.5 391,-174.5 335,-174.5"/>
<text text-anchor="middle" x="363" y="-182.5" font-family="Helvetica,sans-Serif" font-size="10.00">TString.h</text>
</g>
<!-- Node1&#45;&gt;Node10 -->
<g id="edge20" class="edge"><title>Node1&#45;&gt;Node10</title>
<path fill="none" stroke="midnightblue" d="M281.901,-232.922C298.61,-223.049 319.501,-210.704 335.895,-201.016"/>
<polygon fill="midnightblue" stroke="midnightblue" points="338.134,-203.759 344.963,-195.658 334.573,-197.732 338.134,-203.759"/>
</g>
<!-- Node11 -->
<g id="node22" class="node"><title>Node11</title>
<a xlink:href="_t_h2_draw_tool_8h.html" target="_top" xlink:title="TH2DrawTool.h">
<polygon fill="white" stroke="black" points="409,-174.5 409,-195.5 495,-195.5 495,-174.5 409,-174.5"/>
<text text-anchor="middle" x="452" y="-182.5" font-family="Helvetica,sans-Serif" font-size="10.00">TH2DrawTool.h</text>
</a>
</g>
<!-- Node1&#45;&gt;Node11 -->
<g id="edge22" class="edge"><title>Node1&#45;&gt;Node11</title>
<path fill="none" stroke="midnightblue" d="M305.285,-232.922C337.875,-222.277 379.263,-208.758 409.766,-198.795"/>
<polygon fill="midnightblue" stroke="midnightblue" points="411.245,-201.994 419.664,-195.562 409.072,-195.34 411.245,-201.994"/>
</g>
<!-- Node3 -->
<g id="node5" class="node"><title>Node3</title>
<a xlink:href="_t_h2_crystals_8h.html" target="_top" xlink:title="TH2Crystals.h">
<polygon fill="white" stroke="black" points="55,-116.5 55,-137.5 135,-137.5 135,-116.5 55,-116.5"/>
<text text-anchor="middle" x="95" y="-124.5" font-family="Helvetica,sans-Serif" font-size="10.00">TH2Crystals.h</text>
</a>
</g>
<!-- Node2&#45;&gt;Node3 -->
<g id="edge4" class="edge"><title>Node2&#45;&gt;Node3</title>
<path fill="none" stroke="midnightblue" d="M97.4498,-174.362C97.0649,-166.922 96.5384,-156.743 96.0721,-147.728"/>
<polygon fill="midnightblue" stroke="midnightblue" points="99.5587,-147.376 95.5468,-137.571 92.5681,-147.738 99.5587,-147.376"/>
</g>
<!-- Node4 -->
<g id="node7" class="node"><title>Node4</title>
<polygon fill="white" stroke="#bfbfbf" points="58,-58.5 58,-79.5 114,-79.5 114,-58.5 58,-58.5"/>
<text text-anchor="middle" x="86" y="-66.5" font-family="Helvetica,sans-Serif" font-size="10.00">Rtypes.h</text>
</g>
<!-- Node3&#45;&gt;Node4 -->
<g id="edge6" class="edge"><title>Node3&#45;&gt;Node4</title>
<path fill="none" stroke="midnightblue" d="M93.3493,-116.362C92.1948,-108.922 90.6153,-98.7427 89.2163,-89.7276"/>
<polygon fill="midnightblue" stroke="midnightblue" points="92.6323,-88.9157 87.6403,-79.5707 85.7151,-89.9891 92.6323,-88.9157"/>
</g>
<!-- Node3&#45;&gt;Node5 -->
<g id="edge8" class="edge"><title>Node3&#45;&gt;Node5</title>
<path fill="none" stroke="midnightblue" d="M107.472,-116.362C117.345,-107.941 131.333,-96.0105 142.798,-86.2308"/>
<polygon fill="midnightblue" stroke="midnightblue" points="145.27,-88.7231 150.607,-79.5707 140.727,-83.3972 145.27,-88.7231"/>
</g>
<!-- Node6 -->
<g id="node11" class="node"><title>Node6</title>
<polygon fill="white" stroke="#bfbfbf" points="211.5,-58.5 211.5,-79.5 276.5,-79.5 276.5,-58.5 211.5,-58.5"/>
<text text-anchor="middle" x="244" y="-66.5" font-family="Helvetica,sans-Serif" font-size="10.00">TVector2.h</text>
</g>
<!-- Node3&#45;&gt;Node6 -->
<g id="edge10" class="edge"><title>Node3&#45;&gt;Node6</title>
<path fill="none" stroke="midnightblue" d="M121.983,-116.497C145.853,-107.205 180.894,-93.5649 207.307,-83.2832"/>
<polygon fill="midnightblue" stroke="midnightblue" points="208.917,-86.4122 216.967,-79.5231 206.378,-79.889 208.917,-86.4122"/>
</g>
<!-- Node7 -->
<g id="node13" class="node"><title>Node7</title>
<polygon fill="white" stroke="#bfbfbf" points="-0.5,-58.5 -0.5,-79.5 40.5,-79.5 40.5,-58.5 -0.5,-58.5"/>
<text text-anchor="middle" x="20" y="-66.5" font-family="Helvetica,sans-Serif" font-size="10.00">string</text>
</g>
<!-- Node3&#45;&gt;Node7 -->
<g id="edge12" class="edge"><title>Node3&#45;&gt;Node7</title>
<path fill="none" stroke="midnightblue" d="M81.2438,-116.362C70.2488,-107.859 54.6274,-95.7785 41.9136,-85.9466"/>
<polygon fill="midnightblue" stroke="midnightblue" points="43.7206,-82.9195 33.6689,-79.5707 39.4384,-88.4569 43.7206,-82.9195"/>
</g>
<!-- Node12 -->
<g id="node24" class="node"><title>Node12</title>
<a xlink:href="matrixstack_8h.html" target="_top" xlink:title="base/matrixstack.h">
<polygon fill="white" stroke="black" points="373,-116.5 373,-137.5 473,-137.5 473,-116.5 373,-116.5"/>
<text text-anchor="middle" x="423" y="-124.5" font-family="Helvetica,sans-Serif" font-size="10.00">base/matrixstack.h</text>
</a>
</g>
<!-- Node11&#45;&gt;Node12 -->
<g id="edge24" class="edge"><title>Node11&#45;&gt;Node12</title>
<path fill="none" stroke="midnightblue" d="M446.681,-174.362C442.797,-166.595 437.421,-155.843 432.773,-146.546"/>
<polygon fill="midnightblue" stroke="midnightblue" points="435.888,-144.95 428.285,-137.571 429.627,-148.08 435.888,-144.95"/>
</g>
<!-- Node14 -->
<g id="node28" class="node"><title>Node14</title>
<polygon fill="white" stroke="#bfbfbf" points="523,-0.5 523,-21.5 567,-21.5 567,-0.5 523,-0.5"/>
<text text-anchor="middle" x="545" y="-8.5" font-family="Helvetica,sans-Serif" font-size="10.00">vector</text>
</g>
<!-- Node11&#45;&gt;Node14 -->
<g id="edge40" class="edge"><title>Node11&#45;&gt;Node14</title>
<path fill="none" stroke="midnightblue" d="M484.083,-174.436C522.26,-159.93 584.2,-129.815 611,-80 622.666,-58.3164 598.575,-38.5662 576.294,-25.8057"/>
<polygon fill="midnightblue" stroke="midnightblue" points="577.748,-22.6132 567.286,-20.9426 574.423,-28.773 577.748,-22.6132"/>
</g>
<!-- Node12&#45;&gt;Node6 -->
<g id="edge36" class="edge"><title>Node12&#45;&gt;Node6</title>
<path fill="none" stroke="midnightblue" d="M390.584,-116.497C361.276,-107 317.952,-92.9619 285.999,-82.6087"/>
<polygon fill="midnightblue" stroke="midnightblue" points="287.068,-79.276 276.476,-79.5231 284.911,-85.9352 287.068,-79.276"/>
</g>
<!-- Node13 -->
<g id="node26" class="node"><title>Node13</title>
<a xlink:href="printable_8h.html" target="_top" xlink:title="base/printable.h">
<polygon fill="white" stroke="black" points="352,-58.5 352,-79.5 438,-79.5 438,-58.5 352,-58.5"/>
<text text-anchor="middle" x="395" y="-66.5" font-family="Helvetica,sans-Serif" font-size="10.00">base/printable.h</text>
</a>
</g>
<!-- Node12&#45;&gt;Node13 -->
<g id="edge26" class="edge"><title>Node12&#45;&gt;Node13</title>
<path fill="none" stroke="midnightblue" d="M417.864,-116.362C414.154,-108.677 409.033,-98.0686 404.578,-88.8399"/>
<polygon fill="midnightblue" stroke="midnightblue" points="407.603,-87.0545 400.103,-79.5707 401.299,-90.0978 407.603,-87.0545"/>
</g>
<!-- Node16 -->
<g id="node32" class="node"><title>Node16</title>
<polygon fill="white" stroke="#bfbfbf" points="455.5,-58.5 455.5,-79.5 520.5,-79.5 520.5,-58.5 455.5,-58.5"/>
<text text-anchor="middle" x="488" y="-66.5" font-family="Helvetica,sans-Serif" font-size="10.00">TVectorT.h</text>
</g>
<!-- Node12&#45;&gt;Node16 -->
<g id="edge32" class="edge"><title>Node12&#45;&gt;Node16</title>
<path fill="none" stroke="midnightblue" d="M434.922,-116.362C444.359,-107.941 457.73,-96.0105 468.69,-86.2308"/>
<polygon fill="midnightblue" stroke="midnightblue" points="471.022,-88.8401 476.154,-79.5707 466.362,-83.6171 471.022,-88.8401"/>
</g>
<!-- Node17 -->
<g id="node34" class="node"><title>Node17</title>
<polygon fill="white" stroke="#bfbfbf" points="538,-58.5 538,-79.5 602,-79.5 602,-58.5 538,-58.5"/>
<text text-anchor="middle" x="570" y="-66.5" font-family="Helvetica,sans-Serif" font-size="10.00">TMatrixT.h</text>
</g>
<!-- Node12&#45;&gt;Node17 -->
<g id="edge34" class="edge"><title>Node12&#45;&gt;Node17</title>
<path fill="none" stroke="midnightblue" d="M449.621,-116.497C473.097,-107.234 507.525,-93.6499 533.556,-83.3793"/>
<polygon fill="midnightblue" stroke="midnightblue" points="535.063,-86.5473 543.081,-79.6212 532.494,-80.0358 535.063,-86.5473"/>
</g>
<!-- Node18 -->
<g id="node37" class="node"><title>Node18</title>
<polygon fill="white" stroke="#bfbfbf" points="293.5,-58.5 293.5,-79.5 334.5,-79.5 334.5,-58.5 293.5,-58.5"/>
<text text-anchor="middle" x="314" y="-66.5" font-family="Helvetica,sans-Serif" font-size="10.00">stack</text>
</g>
<!-- Node12&#45;&gt;Node18 -->
<g id="edge38" class="edge"><title>Node12&#45;&gt;Node18</title>
<path fill="none" stroke="midnightblue" d="M403.261,-116.497C386.39,-107.519 361.891,-94.4835 342.826,-84.3387"/>
<polygon fill="midnightblue" stroke="midnightblue" points="344.433,-81.2289 333.961,-79.6212 341.144,-87.4086 344.433,-81.2289"/>
</g>
<!-- Node13&#45;&gt;Node14 -->
<g id="edge28" class="edge"><title>Node13&#45;&gt;Node14</title>
<path fill="none" stroke="midnightblue" d="M422.164,-58.4966C447.879,-48.5533 486.472,-33.6309 513.519,-23.1727"/>
<polygon fill="midnightblue" stroke="midnightblue" points="514.851,-26.4101 522.916,-19.5391 512.327,-19.8812 514.851,-26.4101"/>
</g>
<!-- Node15 -->
<g id="node30" class="node"><title>Node15</title>
<polygon fill="white" stroke="#bfbfbf" points="369,-0.5 369,-21.5 421,-21.5 421,-0.5 369,-0.5"/>
<text text-anchor="middle" x="395" y="-8.5" font-family="Helvetica,sans-Serif" font-size="10.00">ostream</text>
</g>
<!-- Node13&#45;&gt;Node15 -->
<g id="edge30" class="edge"><title>Node13&#45;&gt;Node15</title>
<path fill="none" stroke="midnightblue" d="M395,-58.3619C395,-50.9219 395,-40.7427 395,-31.7276"/>
<polygon fill="midnightblue" stroke="midnightblue" points="398.5,-31.5706 395,-21.5707 391.5,-31.5707 398.5,-31.5706"/>
</g>
</g>
</svg>
