<?xml version="1.0" encoding="UTF-8" standalone="no"?>
<!DOCTYPE svg PUBLIC "-//W3C//DTD SVG 1.1//EN"
 "http://www.w3.org/Graphics/SVG/1.1/DTD/svg11.dtd">
<!-- Generated by graphviz version 2.26.3 (20100126.1600)
 -->
<!-- Title: src/root&#45;addons/cbtaps_display/TH2TAPS.h Pages: 1 -->
<svg width="1351pt" height="188pt"
 viewBox="0.00 0.00 1351.00 188.00" xmlns="http://www.w3.org/2000/svg" xmlns:xlink="http://www.w3.org/1999/xlink">
<g id="graph1" class="graph" transform="scale(1 1) rotate(0) translate(4 184)">
<title>src/root&#45;addons/cbtaps_display/TH2TAPS.h</title>
<polygon fill="white" stroke="white" points="-4,5 -4,-184 1348,-184 1348,5 -4,5"/>
<!-- Node1 -->
<g id="node1" class="node"><title>Node1</title>
<polygon fill="#bfbfbf" stroke="black" points="649,-145 649,-179 765,-179 765,-145 649,-145"/>
<text text-anchor="start" x="657" y="-166" font-family="Helvetica,sans-Serif" font-size="10.00">src/root&#45;addons/cbtaps</text>
<text text-anchor="middle" x="707" y="-153" font-family="Helvetica,sans-Serif" font-size="10.00">_display/TH2TAPS.h</text>
</g>
<!-- Node2 -->
<g id="node3" class="node"><title>Node2</title>
<a xlink:href="analysis_2physics_2calibration_2_t_a_p_s___energy_8h.html" target="_top" xlink:title="src/analysis/physics\l/calibration/TAPS_Energy.h">
<polygon fill="white" stroke="black" points="2.5,-73 2.5,-107 139.5,-107 139.5,-73 2.5,-73"/>
<text text-anchor="start" x="10.5" y="-94" font-family="Helvetica,sans-Serif" font-size="10.00">src/analysis/physics</text>
<text text-anchor="middle" x="71" y="-81" font-family="Helvetica,sans-Serif" font-size="10.00">/calibration/TAPS_Energy.h</text>
</a>
</g>
<!-- Node1&#45;&gt;Node2 -->
<g id="edge2" class="edge"><title>Node1&#45;&gt;Node2</title>
<path fill="none" stroke="midnightblue" d="M638.512,-158.334C532.741,-152.009 323.509,-136.859 148,-108 145.291,-107.555 142.535,-107.069 139.756,-106.552"/>
<polygon fill="midnightblue" stroke="midnightblue" points="638.54,-161.842 648.729,-158.937 638.952,-154.854 638.54,-161.842"/>
</g>
<!-- Node4 -->
<g id="node7" class="node"><title>Node4</title>
<a xlink:href="_event_display_hists_8cc.html" target="_top" xlink:title="src/analysis/physics\l/common/EventDisplayHists.cc">
<polygon fill="white" stroke="black" points="156.5,-73 156.5,-107 311.5,-107 311.5,-73 156.5,-73"/>
<text text-anchor="start" x="164.5" y="-94" font-family="Helvetica,sans-Serif" font-size="10.00">src/analysis/physics</text>
<text text-anchor="middle" x="234" y="-81" font-family="Helvetica,sans-Serif" font-size="10.00">/common/EventDisplayHists.cc</text>
</a>
</g>
<!-- Node1&#45;&gt;Node4 -->
<g id="edge6" class="edge"><title>Node1&#45;&gt;Node4</title>
<path fill="none" stroke="midnightblue" d="M638.67,-153.885C561.172,-144.353 431.131,-127.36 320,-108 317.295,-107.529 314.545,-107.035 311.77,-106.524"/>
<polygon fill="midnightblue" stroke="midnightblue" points="638.433,-157.383 648.784,-155.124 639.284,-150.434 638.433,-157.383"/>
</g>
<!-- Node5 -->
<g id="node9" class="node"><title>Node5</title>
<a xlink:href="_reconstruct_check_8cc.html" target="_top" xlink:title="src/analysis/physics\l/common/ReconstructCheck.cc">
<polygon fill="white" stroke="black" points="328.5,-73 328.5,-107 483.5,-107 483.5,-73 328.5,-73"/>
<text text-anchor="start" x="336.5" y="-94" font-family="Helvetica,sans-Serif" font-size="10.00">src/analysis/physics</text>
<text text-anchor="middle" x="406" y="-81" font-family="Helvetica,sans-Serif" font-size="10.00">/common/ReconstructCheck.cc</text>
</a>
</g>
<!-- Node1&#45;&gt;Node5 -->
<g id="edge8" class="edge"><title>Node1&#45;&gt;Node5</title>
<path fill="none" stroke="midnightblue" d="M639.228,-145.789C590.934,-134.237 526.151,-118.741 477.118,-107.012"/>
<polygon fill="midnightblue" stroke="midnightblue" points="638.424,-149.195 648.964,-148.118 640.053,-142.387 638.424,-149.195"/>
</g>
<!-- Node6 -->
<g id="node11" class="node"><title>Node6</title>
<a xlink:href="_goat_comparison_8cc.html" target="_top" xlink:title="src/analysis/physics\l/misc/GoatComparison.cc">
<polygon fill="white" stroke="black" points="500.5,-73 500.5,-107 631.5,-107 631.5,-73 500.5,-73"/>
<text text-anchor="start" x="508.5" y="-94" font-family="Helvetica,sans-Serif" font-size="10.00">src/analysis/physics</text>
<text text-anchor="middle" x="566" y="-81" font-family="Helvetica,sans-Serif" font-size="10.00">/misc/GoatComparison.cc</text>
</a>
</g>
<!-- Node1&#45;&gt;Node6 -->
<g id="edge10" class="edge"><title>Node1&#45;&gt;Node6</title>
<path fill="none" stroke="midnightblue" d="M664.64,-140.369C643.846,-129.751 619.146,-117.138 599.664,-107.19"/>
<polygon fill="midnightblue" stroke="midnightblue" points="663.087,-143.506 673.585,-144.937 666.271,-137.272 663.087,-143.506"/>
</g>
<!-- Node7 -->
<g id="node13" class="node"><title>Node7</title>
<a xlink:href="calibration_2modules_2_t_a_p_s___energy_8cc.html" target="_top" xlink:title="src/calibration/modules\l/TAPS_Energy.cc">
<polygon fill="white" stroke="black" points="648.5,-73 648.5,-107 765.5,-107 765.5,-73 648.5,-73"/>
<text text-anchor="start" x="656.5" y="-94" font-family="Helvetica,sans-Serif" font-size="10.00">src/calibration/modules</text>
<text text-anchor="middle" x="707" y="-81" font-family="Helvetica,sans-Serif" font-size="10.00">/TAPS_Energy.cc</text>
</a>
</g>
<!-- Node1&#45;&gt;Node7 -->
<g id="edge12" class="edge"><title>Node1&#45;&gt;Node7</title>
<path fill="none" stroke="midnightblue" d="M707,-134.719C707,-125.572 707,-115.625 707,-107.441"/>
<polygon fill="midnightblue" stroke="midnightblue" points="703.5,-134.937 707,-144.937 710.5,-134.937 703.5,-134.937"/>
</g>
<!-- Node8 -->
<g id="node15" class="node"><title>Node8</title>
<a xlink:href="calibration_2modules_2_t_a_p_s___short_energy_8cc.html" target="_top" xlink:title="src/calibration/modules\l/TAPS_ShortEnergy.cc">
<polygon fill="white" stroke="black" points="782.5,-73 782.5,-107 901.5,-107 901.5,-73 782.5,-73"/>
<text text-anchor="start" x="790.5" y="-94" font-family="Helvetica,sans-Serif" font-size="10.00">src/calibration/modules</text>
<text text-anchor="middle" x="842" y="-81" font-family="Helvetica,sans-Serif" font-size="10.00">/TAPS_ShortEnergy.cc</text>
</a>
</g>
<!-- Node1&#45;&gt;Node8 -->
<g id="edge14" class="edge"><title>Node1&#45;&gt;Node8</title>
<path fill="none" stroke="midnightblue" d="M747.825,-140.226C767.678,-129.638 791.199,-117.094 809.769,-107.19"/>
<polygon fill="midnightblue" stroke="midnightblue" points="746.17,-137.143 738.993,-144.937 749.464,-143.319 746.17,-137.143"/>
</g>
<!-- Node9 -->
<g id="node17" class="node"><title>Node9</title>
<a xlink:href="_detector_plots_8cc.html" target="_top" xlink:title="src/root&#45;addons/analysis\l_codes/DetectorPlots.cc">
<polygon fill="white" stroke="black" points="918.5,-73 918.5,-107 1043.5,-107 1043.5,-73 918.5,-73"/>
<text text-anchor="start" x="926.5" y="-94" font-family="Helvetica,sans-Serif" font-size="10.00">src/root&#45;addons/analysis</text>
<text text-anchor="middle" x="981" y="-81" font-family="Helvetica,sans-Serif" font-size="10.00">_codes/DetectorPlots.cc</text>
</a>
</g>
<!-- Node1&#45;&gt;Node9 -->
<g id="edge16" class="edge"><title>Node1&#45;&gt;Node9</title>
<path fill="none" stroke="midnightblue" d="M774.828,-144.176C818.69,-132.651 875.374,-117.756 918.203,-106.501"/>
<polygon fill="midnightblue" stroke="midnightblue" points="773.89,-140.804 765.108,-146.731 775.67,-147.574 773.89,-140.804"/>
</g>
<!-- Node10 -->
<g id="node19" class="node"><title>Node10</title>
<a xlink:href="root-addons_2analysis__codes_2_extract_resolutions_8cc.html" target="_top" xlink:title="src/root&#45;addons/analysis\l_codes/ExtractResolutions.cc">
<polygon fill="white" stroke="black" points="1061,-73 1061,-107 1209,-107 1209,-73 1061,-73"/>
<text text-anchor="start" x="1069" y="-94" font-family="Helvetica,sans-Serif" font-size="10.00">src/root&#45;addons/analysis</text>
<text text-anchor="middle" x="1135" y="-81" font-family="Helvetica,sans-Serif" font-size="10.00">_codes/ExtractResolutions.cc</text>
</a>
</g>
<!-- Node1&#45;&gt;Node10 -->
<g id="edge18" class="edge"><title>Node1&#45;&gt;Node10</title>
<path fill="none" stroke="midnightblue" d="M775.147,-152.53C844.883,-142.559 956.286,-125.854 1052,-108 1054.9,-107.459 1057.85,-106.893 1060.83,-106.309"/>
<polygon fill="midnightblue" stroke="midnightblue" points="774.573,-149.076 765.167,-153.952 775.56,-156.006 774.573,-149.076"/>
</g>
<!-- Node11 -->
<g id="node21" class="node"><title>Node11</title>
<a xlink:href="_t_h2_t_a_p_s_8cc.html" target="_top" xlink:title="src/root&#45;addons/cbtaps\l_display/TH2TAPS.cc">
<polygon fill="white" stroke="black" points="1227,-73 1227,-107 1343,-107 1343,-73 1227,-73"/>
<text text-anchor="start" x="1235" y="-94" font-family="Helvetica,sans-Serif" font-size="10.00">src/root&#45;addons/cbtaps</text>
<text text-anchor="middle" x="1285" y="-81" font-family="Helvetica,sans-Serif" font-size="10.00">_display/TH2TAPS.cc</text>
</a>
</g>
<!-- Node1&#45;&gt;Node11 -->
<g id="edge20" class="edge"><title>Node1&#45;&gt;Node11</title>
<path fill="none" stroke="midnightblue" d="M775.405,-158.198C873.899,-151.951 1061.08,-137.183 1218,-108 1220.84,-107.471 1223.74,-106.884 1226.66,-106.253"/>
<polygon fill="midnightblue" stroke="midnightblue" points="775.049,-154.714 765.287,-158.83 775.486,-161.7 775.049,-154.714"/>
</g>
<!-- Node3 -->
<g id="node5" class="node"><title>Node3</title>
<a xlink:href="analysis_2physics_2calibration_2_t_a_p_s___energy_8cc.html" target="_top" xlink:title="src/analysis/physics\l/calibration/TAPS_Energy.cc">
<polygon fill="white" stroke="black" points="-0.5,-1 -0.5,-35 142.5,-35 142.5,-1 -0.5,-1"/>
<text text-anchor="start" x="7.5" y="-22" font-family="Helvetica,sans-Serif" font-size="10.00">src/analysis/physics</text>
<text text-anchor="middle" x="71" y="-9" font-family="Helvetica,sans-Serif" font-size="10.00">/calibration/TAPS_Energy.cc</text>
</a>
</g>
<!-- Node2&#45;&gt;Node3 -->
<g id="edge4" class="edge"><title>Node2&#45;&gt;Node3</title>
<path fill="none" stroke="midnightblue" d="M71,-62.7193C71,-53.572 71,-43.6255 71,-35.4407"/>
<polygon fill="midnightblue" stroke="midnightblue" points="67.5001,-62.937 71,-72.937 74.5001,-62.937 67.5001,-62.937"/>
</g>
</g>
</svg>
