<?xml version="1.0" encoding="UTF-8" standalone="no"?>
<!DOCTYPE svg PUBLIC "-//W3C//DTD SVG 1.1//EN"
 "http://www.w3.org/Graphics/SVG/1.1/DTD/svg11.dtd">
<!-- Generated by graphviz version 2.26.3 (20100126.1600)
 -->
<!-- Title: src/tree/TParticle.cc Pages: 1 -->
<svg width="1731pt" height="450pt"
 viewBox="0.00 0.00 1730.67 450.00" xmlns="http://www.w3.org/2000/svg" xmlns:xlink="http://www.w3.org/1999/xlink">
<g id="graph1" class="graph" transform="scale(1 1) rotate(0) translate(4 446)">
<title>src/tree/TParticle.cc</title>
<polygon fill="white" stroke="white" points="-4,5 -4,-446 1727.67,-446 1727.67,5 -4,5"/>
<!-- Node1 -->
<g id="node1" class="node"><title>Node1</title>
<polygon fill="#bfbfbf" stroke="black" points="1039.17,-420.5 1039.17,-441.5 1144.17,-441.5 1144.17,-420.5 1039.17,-420.5"/>
<text text-anchor="middle" x="1091.67" y="-428.5" font-family="Helvetica,sans-Serif" font-size="10.00">src/tree/TParticle.cc</text>
</g>
<!-- Node2 -->
<g id="node3" class="node"><title>Node2</title>
<a xlink:href="_t_particle_8h.html" target="_top" xlink:title="TParticle.h">
<polygon fill="white" stroke="black" points="860.666,-362.5 860.666,-383.5 924.666,-383.5 924.666,-362.5 860.666,-362.5"/>
<text text-anchor="middle" x="892.666" y="-370.5" font-family="Helvetica,sans-Serif" font-size="10.00">TParticle.h</text>
</a>
</g>
<!-- Node1&#45;&gt;Node2 -->
<g id="edge2" class="edge"><title>Node1&#45;&gt;Node2</title>
<path fill="none" stroke="midnightblue" d="M1055.63,-420.497C1021.54,-410.56 970.384,-395.652 934.505,-385.194"/>
<polygon fill="midnightblue" stroke="midnightblue" points="935.397,-381.809 924.817,-382.371 933.438,-388.529 935.397,-381.809"/>
</g>
<!-- Node16 -->
<g id="node34" class="node"><title>Node16</title>
<a xlink:href="math_8h.html" target="_top" xlink:title="base/std_ext/math.h">
<polygon fill="white" stroke="black" points="1236.67,-181.5 1236.67,-202.5 1342.67,-202.5 1342.67,-181.5 1236.67,-181.5"/>
<text text-anchor="middle" x="1289.67" y="-189.5" font-family="Helvetica,sans-Serif" font-size="10.00">base/std_ext/math.h</text>
</a>
</g>
<!-- Node1&#45;&gt;Node16 -->
<g id="edge134" class="edge"><title>Node1&#45;&gt;Node16</title>
<path fill="none" stroke="midnightblue" d="M1128.79,-420.464C1171.12,-406.361 1238.83,-377.012 1272.67,-326 1295.45,-291.648 1294.96,-241.293 1292.42,-213.108"/>
<polygon fill="midnightblue" stroke="midnightblue" points="1295.86,-212.386 1291.3,-202.82 1288.9,-213.139 1295.86,-212.386"/>
</g>
<!-- Node3 -->
<g id="node5" class="node"><title>Node3</title>
<a xlink:href="_t_candidate_8h.html" target="_top" xlink:title="tree/TCandidate.h">
<polygon fill="white" stroke="black" points="508.166,-304.5 508.166,-325.5 603.166,-325.5 603.166,-304.5 508.166,-304.5"/>
<text text-anchor="middle" x="555.666" y="-312.5" font-family="Helvetica,sans-Serif" font-size="10.00">tree/TCandidate.h</text>
</a>
</g>
<!-- Node2&#45;&gt;Node3 -->
<g id="edge4" class="edge"><title>Node2&#45;&gt;Node3</title>
<path fill="none" stroke="midnightblue" d="M860.658,-367.491C803.891,-357.721 684.851,-337.234 613.435,-324.942"/>
<polygon fill="midnightblue" stroke="midnightblue" points="613.706,-321.438 603.257,-323.191 612.518,-328.336 613.706,-321.438"/>
</g>
<!-- Node6 -->
<g id="node11" class="node"><title>Node6</title>
<a xlink:href="printable_8h.html" target="_top" xlink:title="base/printable.h">
<polygon fill="white" stroke="black" points="1099.67,-58.5 1099.67,-79.5 1185.67,-79.5 1185.67,-58.5 1099.67,-58.5"/>
<text text-anchor="middle" x="1142.67" y="-66.5" font-family="Helvetica,sans-Serif" font-size="10.00">base/printable.h</text>
</a>
</g>
<!-- Node2&#45;&gt;Node6 -->
<g id="edge76" class="edge"><title>Node2&#45;&gt;Node6</title>
<path fill="none" stroke="midnightblue" d="M915.779,-362.35C972.361,-334.816 1117.18,-255.14 1171.67,-138 1179.47,-121.218 1169.61,-101.75 1159.33,-87.7805"/>
<polygon fill="midnightblue" stroke="midnightblue" points="1162,-85.5082 1153.03,-79.8661 1156.52,-89.869 1162,-85.5082"/>
</g>
<!-- Node7 -->
<g id="node13" class="node"><title>Node7</title>
<polygon fill="white" stroke="#bfbfbf" points="689.666,-0.5 689.666,-21.5 733.666,-21.5 733.666,-0.5 689.666,-0.5"/>
<text text-anchor="middle" x="711.666" y="-8.5" font-family="Helvetica,sans-Serif" font-size="10.00">vector</text>
</g>
<!-- Node2&#45;&gt;Node7 -->
<g id="edge126" class="edge"><title>Node2&#45;&gt;Node7</title>
<path fill="none" stroke="midnightblue" d="M885.066,-362.292C872.015,-343.655 844.896,-303.817 825.666,-268 779.805,-182.583 736.483,-75.0035 719.367,-31.0708"/>
<polygon fill="midnightblue" stroke="midnightblue" points="722.556,-29.6118 715.682,-21.5499 716.028,-32.1391 722.556,-29.6118"/>
</g>
<!-- Node19 -->
<g id="node42" class="node"><title>Node19</title>
<polygon fill="white" stroke="#bfbfbf" points="266.666,-116.5 266.666,-137.5 318.666,-137.5 318.666,-116.5 266.666,-116.5"/>
<text text-anchor="middle" x="292.666" y="-124.5" font-family="Helvetica,sans-Serif" font-size="10.00">memory</text>
</g>
<!-- Node2&#45;&gt;Node19 -->
<g id="edge132" class="edge"><title>Node2&#45;&gt;Node19</title>
<path fill="none" stroke="midnightblue" d="M860.65,-371.65C793.097,-368.264 631.365,-357.309 499.666,-326 426.077,-308.506 399.267,-314.572 339.666,-268 315.189,-248.874 311.143,-239.243 300.666,-210 293.376,-189.653 291.868,-164.81 291.877,-147.634"/>
<polygon fill="midnightblue" stroke="midnightblue" points="295.378,-147.64 292.057,-137.579 288.379,-147.515 295.378,-147.64"/>
</g>
<!-- Node24 -->
<g id="node63" class="node"><title>Node24</title>
<a xlink:href="types_8h.html" target="_top" xlink:title="base/types.h">
<polygon fill="white" stroke="black" points="1650.17,-116.5 1650.17,-137.5 1723.17,-137.5 1723.17,-116.5 1650.17,-116.5"/>
<text text-anchor="middle" x="1686.67" y="-124.5" font-family="Helvetica,sans-Serif" font-size="10.00">base/types.h</text>
</a>
</g>
<!-- Node2&#45;&gt;Node24 -->
<g id="edge78" class="edge"><title>Node2&#45;&gt;Node24</title>
<path fill="none" stroke="midnightblue" d="M924.882,-371.97C1022.24,-368 1320.9,-349.522 1551.67,-268 1604.89,-249.196 1629.26,-253.972 1664.67,-210 1678.99,-192.21 1684.05,-165.987 1685.8,-147.796"/>
<polygon fill="midnightblue" stroke="midnightblue" points="1689.3,-147.877 1686.52,-137.655 1682.32,-147.382 1689.3,-147.877"/>
</g>
<!-- Node25 -->
<g id="node65" class="node"><title>Node25</title>
<a xlink:href="_particle_type_8h.html" target="_top" xlink:title="base/ParticleType.h">
<polygon fill="white" stroke="black" points="1438.67,-246.5 1438.67,-267.5 1542.67,-267.5 1542.67,-246.5 1438.67,-246.5"/>
<text text-anchor="middle" x="1490.67" y="-254.5" font-family="Helvetica,sans-Serif" font-size="10.00">base/ParticleType.h</text>
</a>
</g>
<!-- Node2&#45;&gt;Node25 -->
<g id="edge80" class="edge"><title>Node2&#45;&gt;Node25</title>
<path fill="none" stroke="midnightblue" d="M924.834,-370.398C975.476,-365.619 1076.39,-353.314 1157.67,-326 1178.01,-319.161 1180.27,-310.687 1200.67,-304 1276.83,-279.03 1368.78,-267.005 1428.42,-261.442"/>
<polygon fill="midnightblue" stroke="midnightblue" points="1428.79,-264.923 1438.44,-260.54 1428.16,-257.951 1428.79,-264.923"/>
</g>
<!-- Node30 -->
<g id="node84" class="node"><title>Node30</title>
<a xlink:href="_tree_8h.html" target="_top" xlink:title="base/Tree.h">
<polygon fill="white" stroke="black" points="108.666,-181.5 108.666,-202.5 176.666,-202.5 176.666,-181.5 108.666,-181.5"/>
<text text-anchor="middle" x="142.666" y="-189.5" font-family="Helvetica,sans-Serif" font-size="10.00">base/Tree.h</text>
</a>
</g>
<!-- Node2&#45;&gt;Node30 -->
<g id="edge108" class="edge"><title>Node2&#45;&gt;Node30</title>
<path fill="none" stroke="midnightblue" d="M860.238,-371.814C725.765,-366.771 217.715,-346.428 190.666,-326 154.995,-299.06 145.769,-243.287 143.425,-212.879"/>
<polygon fill="midnightblue" stroke="midnightblue" points="146.901,-212.359 142.823,-202.58 139.913,-212.767 146.901,-212.359"/>
</g>
<!-- Node32 -->
<g id="node89" class="node"><title>Node32</title>
<polygon fill="white" stroke="#bfbfbf" points="220.166,-116.5 220.166,-137.5 249.166,-137.5 249.166,-116.5 220.166,-116.5"/>
<text text-anchor="middle" x="234.666" y="-124.5" font-family="Helvetica,sans-Serif" font-size="10.00">list</text>
</g>
<!-- Node2&#45;&gt;Node32 -->
<g id="edge128" class="edge"><title>Node2&#45;&gt;Node32</title>
<path fill="none" stroke="midnightblue" d="M860.438,-372.034C764.715,-368.837 483.419,-356.985 397.666,-326 354.653,-310.458 343.458,-301.815 312.666,-268 278.78,-230.788 253.999,-176.242 242.262,-147.104"/>
<polygon fill="midnightblue" stroke="midnightblue" points="245.443,-145.63 238.535,-137.597 238.926,-148.185 245.443,-145.63"/>
</g>
<!-- Node34 -->
<g id="node95" class="node"><title>Node34</title>
<a xlink:href="_lorentz_vec_8h.html" target="_top" xlink:title="base/vec/LorentzVec.h">
<polygon fill="white" stroke="black" points="834.166,-246.5 834.166,-267.5 951.166,-267.5 951.166,-246.5 834.166,-246.5"/>
<text text-anchor="middle" x="892.666" y="-254.5" font-family="Helvetica,sans-Serif" font-size="10.00">base/vec/LorentzVec.h</text>
</a>
</g>
<!-- Node2&#45;&gt;Node34 -->
<g id="edge122" class="edge"><title>Node2&#45;&gt;Node34</title>
<path fill="none" stroke="midnightblue" d="M892.666,-362.295C892.666,-343.131 892.666,-302.654 892.666,-277.843"/>
<polygon fill="midnightblue" stroke="midnightblue" points="896.166,-277.679 892.666,-267.679 889.166,-277.679 896.166,-277.679"/>
</g>
<!-- Node35 -->
<g id="node100" class="node"><title>Node35</title>
<polygon fill="white" stroke="#bfbfbf" points="1209.67,-304.5 1209.67,-325.5 1263.67,-325.5 1263.67,-304.5 1209.67,-304.5"/>
<text text-anchor="middle" x="1236.67" y="-312.5" font-family="Helvetica,sans-Serif" font-size="10.00">iostream</text>
</g>
<!-- Node2&#45;&gt;Node35 -->
<g id="edge130" class="edge"><title>Node2&#45;&gt;Node35</title>
<path fill="none" stroke="midnightblue" d="M924.717,-369.188C980.235,-362.327 1097.74,-346.667 1195.67,-326 1196.92,-325.735 1198.2,-325.454 1199.49,-325.162"/>
<polygon fill="midnightblue" stroke="midnightblue" points="1200.53,-328.512 1209.42,-322.751 1198.87,-321.709 1200.53,-328.512"/>
</g>
<!-- Node4 -->
<g id="node7" class="node"><title>Node4</title>
<a xlink:href="_t_cluster_8h.html" target="_top" xlink:title="TCluster.h">
<polygon fill="white" stroke="black" points="572.666,-246.5 572.666,-267.5 634.666,-267.5 634.666,-246.5 572.666,-246.5"/>
<text text-anchor="middle" x="603.666" y="-254.5" font-family="Helvetica,sans-Serif" font-size="10.00">TCluster.h</text>
</a>
</g>
<!-- Node3&#45;&gt;Node4 -->
<g id="edge6" class="edge"><title>Node3&#45;&gt;Node4</title>
<path fill="none" stroke="midnightblue" d="M564.47,-304.362C571.168,-296.268 580.55,-284.932 588.455,-275.38"/>
<polygon fill="midnightblue" stroke="midnightblue" points="591.238,-277.506 594.918,-267.571 585.846,-273.043 591.238,-277.506"/>
</g>
<!-- Node5 -->
<g id="node9" class="node"><title>Node5</title>
<a xlink:href="_detector__t_8h.html" target="_top" xlink:title="base/Detector_t.h">
<polygon fill="white" stroke="black" points="916.166,-181.5 916.166,-202.5 1011.17,-202.5 1011.17,-181.5 916.166,-181.5"/>
<text text-anchor="middle" x="963.666" y="-189.5" font-family="Helvetica,sans-Serif" font-size="10.00">base/Detector_t.h</text>
</a>
</g>
<!-- Node3&#45;&gt;Node5 -->
<g id="edge64" class="edge"><title>Node3&#45;&gt;Node5</title>
<path fill="none" stroke="midnightblue" d="M590.805,-304.407C664.933,-282.059 837.206,-230.124 919.007,-205.463"/>
<polygon fill="midnightblue" stroke="midnightblue" points="920.192,-208.762 928.756,-202.524 918.172,-202.06 920.192,-208.762"/>
</g>
<!-- Node3&#45;&gt;Node7 -->
<g id="edge66" class="edge"><title>Node3&#45;&gt;Node7</title>
<path fill="none" stroke="midnightblue" d="M584.052,-304.412C624.18,-287.386 692.666,-249.855 692.666,-192 692.666,-192 692.666,-192 692.666,-127 692.666,-93.175 700.631,-54.5229 706.247,-31.474"/>
<polygon fill="midnightblue" stroke="midnightblue" points="709.64,-32.3312 708.697,-21.7784 702.853,-30.6159 709.64,-32.3312"/>
</g>
<!-- Node3&#45;&gt;Node19 -->
<g id="edge72" class="edge"><title>Node3&#45;&gt;Node19</title>
<path fill="none" stroke="midnightblue" d="M507.931,-307.107C459.752,-298.448 389.325,-283.682 366.666,-268 324.979,-239.15 305.044,-179.282 297.088,-147.637"/>
<polygon fill="midnightblue" stroke="midnightblue" points="300.452,-146.653 294.758,-137.718 293.638,-148.254 300.452,-146.653"/>
</g>
<!-- Node21 -->
<g id="node46" class="node"><title>Node21</title>
<polygon fill="white" stroke="#bfbfbf" points="396.666,-116.5 396.666,-137.5 452.666,-137.5 452.666,-116.5 396.666,-116.5"/>
<text text-anchor="middle" x="424.666" y="-124.5" font-family="Helvetica,sans-Serif" font-size="10.00">algorithm</text>
</g>
<!-- Node3&#45;&gt;Node21 -->
<g id="edge74" class="edge"><title>Node3&#45;&gt;Node21</title>
<path fill="none" stroke="midnightblue" d="M508.08,-307.533C455.632,-296.451 373.902,-270.071 337.666,-210 329.401,-196.3 329.471,-187.742 337.666,-174 348.399,-156.003 368.676,-144.483 386.955,-137.355"/>
<polygon fill="midnightblue" stroke="midnightblue" points="388.312,-140.587 396.55,-133.925 385.956,-133.995 388.312,-140.587"/>
</g>
<!-- Node22 -->
<g id="node51" class="node"><title>Node22</title>
<polygon fill="white" stroke="#bfbfbf" points="346.666,-181.5 346.666,-202.5 396.666,-202.5 396.666,-181.5 346.666,-181.5"/>
<text text-anchor="middle" x="371.666" y="-189.5" font-family="Helvetica,sans-Serif" font-size="10.00">iomanip</text>
</g>
<!-- Node3&#45;&gt;Node22 -->
<g id="edge68" class="edge"><title>Node3&#45;&gt;Node22</title>
<path fill="none" stroke="midnightblue" d="M539.659,-304.3C507.362,-282.71 434.226,-233.82 395.989,-208.26"/>
<polygon fill="midnightblue" stroke="midnightblue" points="397.763,-205.236 387.505,-202.588 393.873,-211.055 397.763,-205.236"/>
</g>
<!-- Node23 -->
<g id="node53" class="node"><title>Node23</title>
<polygon fill="white" stroke="#bfbfbf" points="414.666,-181.5 414.666,-202.5 466.666,-202.5 466.666,-181.5 414.666,-181.5"/>
<text text-anchor="middle" x="440.666" y="-189.5" font-family="Helvetica,sans-Serif" font-size="10.00">sstream</text>
</g>
<!-- Node3&#45;&gt;Node23 -->
<g id="edge70" class="edge"><title>Node3&#45;&gt;Node23</title>
<path fill="none" stroke="midnightblue" d="M545.46,-304.085C525.633,-282.878 481.734,-235.925 457.519,-210.026"/>
<polygon fill="midnightblue" stroke="midnightblue" points="460.07,-207.63 450.684,-202.715 454.957,-212.41 460.07,-207.63"/>
</g>
<!-- Node4&#45;&gt;Node5 -->
<g id="edge8" class="edge"><title>Node4&#45;&gt;Node5</title>
<path fill="none" stroke="midnightblue" d="M634.671,-251.402C694.982,-240.512 828.922,-216.329 906.014,-202.409"/>
<polygon fill="midnightblue" stroke="midnightblue" points="906.823,-205.82 916.042,-200.599 905.58,-198.931 906.823,-205.82"/>
</g>
<!-- Node4&#45;&gt;Node7 -->
<g id="edge54" class="edge"><title>Node4&#45;&gt;Node7</title>
<path fill="none" stroke="midnightblue" d="M612.36,-246.4C619.493,-237.247 629.403,-223.417 635.666,-210 665.361,-146.383 648.513,-121.402 678.666,-58 683.433,-47.9762 690.295,-37.7822 696.528,-29.4616"/>
<polygon fill="midnightblue" stroke="midnightblue" points="699.302,-31.5958 702.681,-21.5545 693.778,-27.2966 699.302,-31.5958"/>
</g>
<!-- Node9 -->
<g id="node17" class="node"><title>Node9</title>
<a xlink:href="vec3_8h.html" target="_top" xlink:title="base/vec/vec3.h">
<polygon fill="white" stroke="black" points="834.166,-116.5 834.166,-137.5 923.166,-137.5 923.166,-116.5 834.166,-116.5"/>
<text text-anchor="middle" x="878.666" y="-124.5" font-family="Helvetica,sans-Serif" font-size="10.00">base/vec/vec3.h</text>
</a>
</g>
<!-- Node4&#45;&gt;Node9 -->
<g id="edge52" class="edge"><title>Node4&#45;&gt;Node9</title>
<path fill="none" stroke="midnightblue" d="M634.716,-248.906C663.83,-240.795 708.215,-227.078 744.666,-210 785.674,-190.786 829.66,-161.729 855.637,-143.584"/>
<polygon fill="midnightblue" stroke="midnightblue" points="857.887,-146.28 864.04,-137.655 853.851,-140.561 857.887,-146.28"/>
</g>
<!-- Node11 -->
<g id="node22" class="node"><title>Node11</title>
<polygon fill="white" stroke="#bfbfbf" points="864.666,-0.5 864.666,-21.5 908.666,-21.5 908.666,-0.5 864.666,-0.5"/>
<text text-anchor="middle" x="886.666" y="-8.5" font-family="Helvetica,sans-Serif" font-size="10.00">cmath</text>
</g>
<!-- Node4&#45;&gt;Node11 -->
<g id="edge56" class="edge"><title>Node4&#45;&gt;Node11</title>
<path fill="none" stroke="midnightblue" d="M615.826,-246.43C660.003,-208.028 812.266,-75.6724 866.932,-28.1541"/>
<polygon fill="midnightblue" stroke="midnightblue" points="869.3,-30.733 874.551,-21.5309 864.707,-25.4499 869.3,-30.733"/>
</g>
<!-- Node4&#45;&gt;Node16 -->
<g id="edge36" class="edge"><title>Node4&#45;&gt;Node16</title>
<path fill="none" stroke="midnightblue" d="M634.924,-254.038C740.15,-244.068 1082.9,-211.592 1225.99,-198.033"/>
<polygon fill="midnightblue" stroke="midnightblue" points="1226.73,-201.479 1236.36,-197.051 1226.07,-194.51 1226.73,-201.479"/>
</g>
<!-- Node18 -->
<g id="node39" class="node"><title>Node18</title>
<a xlink:href="shared__ptr__container_8h.html" target="_top" xlink:title="base/std_ext/shared\l_ptr_container.h">
<polygon fill="white" stroke="black" points="522.166,-175 522.166,-209 627.166,-209 627.166,-175 522.166,-175"/>
<text text-anchor="start" x="530.166" y="-196" font-family="Helvetica,sans-Serif" font-size="10.00">base/std_ext/shared</text>
<text text-anchor="middle" x="574.666" y="-183" font-family="Helvetica,sans-Serif" font-size="10.00">_ptr_container.h</text>
</a>
</g>
<!-- Node4&#45;&gt;Node18 -->
<g id="edge42" class="edge"><title>Node4&#45;&gt;Node18</title>
<path fill="none" stroke="midnightblue" d="M598.877,-246.267C595.499,-238.694 590.819,-228.205 586.473,-218.464"/>
<polygon fill="midnightblue" stroke="midnightblue" points="589.57,-216.816 582.299,-209.11 583.178,-219.668 589.57,-216.816"/>
</g>
<!-- Node4&#45;&gt;Node19 -->
<g id="edge62" class="edge"><title>Node4&#45;&gt;Node19</title>
<path fill="none" stroke="midnightblue" d="M578.924,-246.35C560.221,-237.773 534.327,-224.745 513.666,-210 494.729,-196.486 496.027,-185.253 475.666,-174 428.824,-148.112 367.355,-136.131 328.931,-130.846"/>
<polygon fill="midnightblue" stroke="midnightblue" points="329.103,-127.34 318.736,-129.527 328.204,-134.282 329.103,-127.34"/>
</g>
<!-- Node4&#45;&gt;Node22 -->
<g id="edge58" class="edge"><title>Node4&#45;&gt;Node22</title>
<path fill="none" stroke="midnightblue" d="M572.417,-252.113C532.775,-245.345 462.704,-231.468 405.666,-210 403.398,-209.146 401.09,-208.173 398.799,-207.131"/>
<polygon fill="midnightblue" stroke="midnightblue" points="400.136,-203.888 389.621,-202.594 397.034,-210.163 400.136,-203.888"/>
</g>
<!-- Node4&#45;&gt;Node23 -->
<g id="edge60" class="edge"><title>Node4&#45;&gt;Node23</title>
<path fill="none" stroke="midnightblue" d="M574.65,-246.452C549.607,-237.22 512.541,-223.249 480.666,-210 478.029,-208.904 475.306,-207.743 472.579,-206.559"/>
<polygon fill="midnightblue" stroke="midnightblue" points="473.973,-203.349 463.412,-202.51 471.145,-209.752 473.973,-203.349"/>
</g>
<!-- Node5&#45;&gt;Node6 -->
<g id="edge10" class="edge"><title>Node5&#45;&gt;Node6</title>
<path fill="none" stroke="midnightblue" d="M992.335,-181.443C1015.92,-172.018 1049.58,-156.811 1075.67,-138 1095.59,-123.633 1114.74,-102.99 1127.43,-88.0294"/>
<polygon fill="midnightblue" stroke="midnightblue" points="1130.42,-89.9015 1134.11,-79.9682 1125.03,-85.4354 1130.42,-89.9015"/>
</g>
<!-- Node5&#45;&gt;Node7 -->
<g id="edge34" class="edge"><title>Node5&#45;&gt;Node7</title>
<path fill="none" stroke="midnightblue" d="M922.574,-181.425C893.764,-172.746 855.267,-158.519 825.666,-138 781.911,-107.67 743.415,-57.3485 724.352,-30.0424"/>
<polygon fill="midnightblue" stroke="midnightblue" points="727.194,-27.9965 718.653,-21.7265 721.419,-31.9538 727.194,-27.9965"/>
</g>
<!-- Node5&#45;&gt;Node9 -->
<g id="edge16" class="edge"><title>Node5&#45;&gt;Node9</title>
<path fill="none" stroke="midnightblue" d="M949.63,-181.267C936.262,-171.044 915.941,-155.504 900.465,-143.67"/>
<polygon fill="midnightblue" stroke="midnightblue" points="902.51,-140.828 892.441,-137.534 898.258,-146.389 902.51,-140.828"/>
</g>
<!-- Node12 -->
<g id="node25" class="node"><title>Node12</title>
<polygon fill="white" stroke="#bfbfbf" points="940.666,-116.5 940.666,-137.5 986.666,-137.5 986.666,-116.5 940.666,-116.5"/>
<text text-anchor="middle" x="963.666" y="-124.5" font-family="Helvetica,sans-Serif" font-size="10.00">cstdint</text>
</g>
<!-- Node5&#45;&gt;Node12 -->
<g id="edge26" class="edge"><title>Node5&#45;&gt;Node12</title>
<path fill="none" stroke="midnightblue" d="M963.666,-181.267C963.666,-172.18 963.666,-158.892 963.666,-147.74"/>
<polygon fill="midnightblue" stroke="midnightblue" points="967.166,-147.534 963.666,-137.534 960.166,-147.534 967.166,-147.534"/>
</g>
<!-- Node13 -->
<g id="node27" class="node"><title>Node13</title>
<polygon fill="white" stroke="#bfbfbf" points="1218.17,-116.5 1218.17,-137.5 1277.17,-137.5 1277.17,-116.5 1218.17,-116.5"/>
<text text-anchor="middle" x="1247.67" y="-124.5" font-family="Helvetica,sans-Serif" font-size="10.00">stdexcept</text>
</g>
<!-- Node5&#45;&gt;Node13 -->
<g id="edge28" class="edge"><title>Node5&#45;&gt;Node13</title>
<path fill="none" stroke="midnightblue" d="M1009.61,-181.484C1064.66,-168.886 1155.95,-147.991 1208.03,-136.071"/>
<polygon fill="midnightblue" stroke="midnightblue" points="1208.94,-139.455 1217.9,-133.812 1207.37,-132.631 1208.94,-139.455"/>
</g>
<!-- Node14 -->
<g id="node29" class="node"><title>Node14</title>
<polygon fill="white" stroke="#bfbfbf" points="1122.17,-116.5 1122.17,-137.5 1163.17,-137.5 1163.17,-116.5 1122.17,-116.5"/>
<text text-anchor="middle" x="1142.67" y="-124.5" font-family="Helvetica,sans-Serif" font-size="10.00">string</text>
</g>
<!-- Node5&#45;&gt;Node14 -->
<g id="edge30" class="edge"><title>Node5&#45;&gt;Node14</title>
<path fill="none" stroke="midnightblue" d="M992.824,-181.412C1025.68,-169.48 1078.85,-150.172 1112.23,-138.053"/>
<polygon fill="midnightblue" stroke="midnightblue" points="1113.7,-141.241 1121.91,-134.538 1111.31,-134.662 1113.7,-141.241"/>
</g>
<!-- Node15 -->
<g id="node31" class="node"><title>Node15</title>
<polygon fill="white" stroke="#bfbfbf" points="1004.67,-116.5 1004.67,-137.5 1066.67,-137.5 1066.67,-116.5 1004.67,-116.5"/>
<text text-anchor="middle" x="1035.67" y="-124.5" font-family="Helvetica,sans-Serif" font-size="10.00">type_traits</text>
</g>
<!-- Node5&#45;&gt;Node15 -->
<g id="edge32" class="edge"><title>Node5&#45;&gt;Node15</title>
<path fill="none" stroke="midnightblue" d="M975.555,-181.267C986.669,-171.233 1003.46,-156.078 1016.47,-144.331"/>
<polygon fill="midnightblue" stroke="midnightblue" points="1018.92,-146.833 1024,-137.534 1014.23,-141.637 1018.92,-146.833"/>
</g>
<!-- Node6&#45;&gt;Node7 -->
<g id="edge12" class="edge"><title>Node6&#45;&gt;Node7</title>
<path fill="none" stroke="midnightblue" d="M1099.37,-63.1732C1012.92,-51.5403 820.689,-25.6714 744.085,-15.3627"/>
<polygon fill="midnightblue" stroke="midnightblue" points="744.444,-11.8795 734.067,-14.0145 743.51,-18.817 744.444,-11.8795"/>
</g>
<!-- Node8 -->
<g id="node15" class="node"><title>Node8</title>
<polygon fill="white" stroke="#bfbfbf" points="1356.67,-0.5 1356.67,-21.5 1408.67,-21.5 1408.67,-0.5 1356.67,-0.5"/>
<text text-anchor="middle" x="1382.67" y="-8.5" font-family="Helvetica,sans-Serif" font-size="10.00">ostream</text>
</g>
<!-- Node6&#45;&gt;Node8 -->
<g id="edge14" class="edge"><title>Node6&#45;&gt;Node8</title>
<path fill="none" stroke="midnightblue" d="M1185.85,-58.5638C1231.83,-47.4525 1303.76,-30.0687 1346.75,-19.6796"/>
<polygon fill="midnightblue" stroke="midnightblue" points="1347.61,-23.0738 1356.5,-17.3226 1345.96,-16.2697 1347.61,-23.0738"/>
</g>
<!-- Node9&#45;&gt;Node6 -->
<g id="edge18" class="edge"><title>Node9&#45;&gt;Node6</title>
<path fill="none" stroke="midnightblue" d="M923.45,-117.161C969.322,-107.083 1040.63,-91.4172 1089.38,-80.7077"/>
<polygon fill="midnightblue" stroke="midnightblue" points="1090.4,-84.0658 1099.42,-78.5014 1088.9,-77.2288 1090.4,-84.0658"/>
</g>
<!-- Node10 -->
<g id="node20" class="node"><title>Node10</title>
<a xlink:href="vec2_8h.html" target="_top" xlink:title="vec2.h">
<polygon fill="white" stroke="black" points="889.666,-58.5 889.666,-79.5 935.666,-79.5 935.666,-58.5 889.666,-58.5"/>
<text text-anchor="middle" x="912.666" y="-66.5" font-family="Helvetica,sans-Serif" font-size="10.00">vec2.h</text>
</a>
</g>
<!-- Node9&#45;&gt;Node10 -->
<g id="edge20" class="edge"><title>Node9&#45;&gt;Node10</title>
<path fill="none" stroke="midnightblue" d="M884.902,-116.362C889.503,-108.513 895.891,-97.6159 901.38,-88.2527"/>
<polygon fill="midnightblue" stroke="midnightblue" points="904.431,-89.9677 906.469,-79.5707 898.392,-86.4276 904.431,-89.9677"/>
</g>
<!-- Node9&#45;&gt;Node11 -->
<g id="edge24" class="edge"><title>Node9&#45;&gt;Node11</title>
<path fill="none" stroke="midnightblue" d="M878.652,-116.226C878.709,-102.634 879.06,-78.5502 880.666,-58 881.335,-49.43 882.458,-40.025 883.552,-31.8947"/>
<polygon fill="midnightblue" stroke="midnightblue" points="887.046,-32.1881 884.982,-21.7962 880.115,-31.207 887.046,-32.1881"/>
</g>
<!-- Node10&#45;&gt;Node11 -->
<g id="edge22" class="edge"><title>Node10&#45;&gt;Node11</title>
<path fill="none" stroke="midnightblue" d="M907.897,-58.3619C904.452,-50.6766 899.697,-40.0686 895.559,-30.8399"/>
<polygon fill="midnightblue" stroke="midnightblue" points="898.689,-29.264 891.404,-21.5707 892.301,-32.1275 898.689,-29.264"/>
</g>
<!-- Node16&#45;&gt;Node11 -->
<g id="edge38" class="edge"><title>Node16&#45;&gt;Node11</title>
<path fill="none" stroke="midnightblue" d="M1291.99,-181.314C1294.76,-165.771 1297.65,-136.544 1285.67,-116 1261.5,-74.5699 1239.56,-74.87 1194.67,-58 1144.56,-39.1723 987.843,-21.3651 919.303,-14.2533"/>
<polygon fill="midnightblue" stroke="midnightblue" points="919.395,-10.7444 909.09,-13.2052 918.68,-17.7079 919.395,-10.7444"/>
</g>
<!-- Node17 -->
<g id="node37" class="node"><title>Node17</title>
<polygon fill="white" stroke="#bfbfbf" points="1332.67,-116.5 1332.67,-137.5 1372.67,-137.5 1372.67,-116.5 1332.67,-116.5"/>
<text text-anchor="middle" x="1352.67" y="-124.5" font-family="Helvetica,sans-Serif" font-size="10.00">limits</text>
</g>
<!-- Node16&#45;&gt;Node17 -->
<g id="edge40" class="edge"><title>Node16&#45;&gt;Node17</title>
<path fill="none" stroke="midnightblue" d="M1300.07,-181.267C1309.61,-171.423 1323.93,-156.648 1335.22,-145"/>
<polygon fill="midnightblue" stroke="midnightblue" points="1338.01,-147.15 1342.46,-137.534 1332.98,-142.278 1338.01,-147.15"/>
</g>
<!-- Node18&#45;&gt;Node7 -->
<g id="edge44" class="edge"><title>Node18&#45;&gt;Node7</title>
<path fill="none" stroke="midnightblue" d="M565.198,-174.812C557.744,-158.8 550.076,-134.661 559.666,-116 584.522,-67.6303 643.133,-37.2722 679.88,-22.2855"/>
<polygon fill="midnightblue" stroke="midnightblue" points="681.589,-25.375 689.619,-18.4639 679.031,-18.8588 681.589,-25.375"/>
</g>
<!-- Node18&#45;&gt;Node19 -->
<g id="edge46" class="edge"><title>Node18&#45;&gt;Node19</title>
<path fill="none" stroke="midnightblue" d="M522.133,-177.408C517.586,-176.226 513.049,-175.074 508.666,-174 445.648,-158.562 371.662,-143.016 328.677,-134.239"/>
<polygon fill="midnightblue" stroke="midnightblue" points="329.197,-130.773 318.7,-132.209 327.802,-137.632 329.197,-130.773"/>
</g>
<!-- Node20 -->
<g id="node44" class="node"><title>Node20</title>
<polygon fill="white" stroke="#bfbfbf" points="568.166,-116.5 568.166,-137.5 627.166,-137.5 627.166,-116.5 568.166,-116.5"/>
<text text-anchor="middle" x="597.666" y="-124.5" font-family="Helvetica,sans-Serif" font-size="10.00">functional</text>
</g>
<!-- Node18&#45;&gt;Node20 -->
<g id="edge48" class="edge"><title>Node18&#45;&gt;Node20</title>
<path fill="none" stroke="midnightblue" d="M580.709,-174.922C583.693,-166.487 587.316,-156.248 590.446,-147.403"/>
<polygon fill="midnightblue" stroke="midnightblue" points="593.789,-148.447 593.826,-137.852 587.19,-146.112 593.789,-148.447"/>
</g>
<!-- Node18&#45;&gt;Node21 -->
<g id="edge50" class="edge"><title>Node18&#45;&gt;Node21</title>
<path fill="none" stroke="midnightblue" d="M535.255,-174.922C511.406,-164.588 481.307,-151.545 458.534,-141.676"/>
<polygon fill="midnightblue" stroke="midnightblue" points="459.829,-138.423 449.262,-137.658 457.046,-144.846 459.829,-138.423"/>
</g>
<!-- Node25&#45;&gt;Node7 -->
<g id="edge106" class="edge"><title>Node25&#45;&gt;Node7</title>
<path fill="none" stroke="midnightblue" d="M1489.84,-246.18C1489.15,-236.658 1488.19,-222.417 1487.67,-210 1487.55,-207.391 1487.34,-118.001 1485.67,-116 1400.94,-14.9368 1325.12,-77.2991 1194.67,-58 1106.99,-45.0301 837.196,-21.6337 743.846,-13.7088"/>
<polygon fill="midnightblue" stroke="midnightblue" points="744.12,-10.2195 733.86,-12.863 743.529,-17.1946 744.12,-10.2195"/>
</g>
<!-- Node25&#45;&gt;Node8 -->
<g id="edge100" class="edge"><title>Node25&#45;&gt;Node8</title>
<path fill="none" stroke="midnightblue" d="M1542.82,-248.601C1565.5,-242.075 1589.99,-230.503 1603.67,-210 1612.55,-196.69 1608.64,-189.207 1603.67,-174 1583.79,-113.253 1570.1,-95.9428 1518.67,-58 1488.94,-36.0747 1448.19,-23.7982 1419.06,-17.3384"/>
<polygon fill="midnightblue" stroke="midnightblue" points="1419.4,-13.8341 1408.9,-15.2146 1417.97,-20.6861 1419.4,-13.8341"/>
</g>
<!-- Node25&#45;&gt;Node14 -->
<g id="edge98" class="edge"><title>Node25&#45;&gt;Node14</title>
<path fill="none" stroke="midnightblue" d="M1438.61,-251.372C1372.78,-243.626 1263.65,-228.514 1227.67,-210 1197.77,-194.617 1171.48,-165.165 1156.32,-145.802"/>
<polygon fill="midnightblue" stroke="midnightblue" points="1159.01,-143.55 1150.17,-137.703 1153.43,-147.783 1159.01,-143.55"/>
</g>
<!-- Node25&#45;&gt;Node24 -->
<g id="edge82" class="edge"><title>Node25&#45;&gt;Node24</title>
<path fill="none" stroke="midnightblue" d="M1542.93,-249.525C1572.88,-243.099 1609.74,-231.332 1636.67,-210 1657.47,-193.517 1671.62,-165.823 1679.42,-146.999"/>
<polygon fill="midnightblue" stroke="midnightblue" points="1682.72,-148.169 1683.1,-137.581 1676.2,-145.621 1682.72,-148.169"/>
</g>
<!-- Node26 -->
<g id="node68" class="node"><title>Node26</title>
<a xlink:href="interval_8h.html" target="_top" xlink:title="base/interval.h">
<polygon fill="white" stroke="black" points="1360.67,-181.5 1360.67,-202.5 1440.67,-202.5 1440.67,-181.5 1360.67,-181.5"/>
<text text-anchor="middle" x="1400.67" y="-189.5" font-family="Helvetica,sans-Serif" font-size="10.00">base/interval.h</text>
</a>
</g>
<!-- Node25&#45;&gt;Node26 -->
<g id="edge84" class="edge"><title>Node25&#45;&gt;Node26</title>
<path fill="none" stroke="midnightblue" d="M1475.8,-246.267C1461.65,-236.044 1440.13,-220.504 1423.75,-208.67"/>
<polygon fill="midnightblue" stroke="midnightblue" points="1425.41,-205.551 1415.25,-202.534 1421.31,-211.226 1425.41,-205.551"/>
</g>
<!-- Node28 -->
<g id="node79" class="node"><title>Node28</title>
<polygon fill="white" stroke="#bfbfbf" points="1496.17,-181.5 1496.17,-202.5 1531.17,-202.5 1531.17,-181.5 1496.17,-181.5"/>
<text text-anchor="middle" x="1513.67" y="-189.5" font-family="Helvetica,sans-Serif" font-size="10.00">map</text>
</g>
<!-- Node25&#45;&gt;Node28 -->
<g id="edge102" class="edge"><title>Node25&#45;&gt;Node28</title>
<path fill="none" stroke="midnightblue" d="M1494.46,-246.267C1497.75,-236.991 1502.58,-223.336 1506.57,-212.045"/>
<polygon fill="midnightblue" stroke="midnightblue" points="1509.9,-213.128 1509.94,-202.534 1503.3,-210.793 1509.9,-213.128"/>
</g>
<!-- Node29 -->
<g id="node81" class="node"><title>Node29</title>
<polygon fill="white" stroke="#bfbfbf" points="1548.17,-181.5 1548.17,-202.5 1595.17,-202.5 1595.17,-181.5 1548.17,-181.5"/>
<text text-anchor="middle" x="1571.67" y="-189.5" font-family="Helvetica,sans-Serif" font-size="10.00">iterator</text>
</g>
<!-- Node25&#45;&gt;Node29 -->
<g id="edge104" class="edge"><title>Node25&#45;&gt;Node29</title>
<path fill="none" stroke="midnightblue" d="M1504.04,-246.267C1516.66,-236.139 1535.79,-220.792 1550.48,-209"/>
<polygon fill="midnightblue" stroke="midnightblue" points="1552.93,-211.522 1558.54,-202.534 1548.55,-206.063 1552.93,-211.522"/>
</g>
<!-- Node26&#45;&gt;Node6 -->
<g id="edge86" class="edge"><title>Node26&#45;&gt;Node6</title>
<path fill="none" stroke="midnightblue" d="M1401.31,-181.438C1401.68,-164.959 1399.8,-133.24 1381.67,-116 1355.5,-91.1286 1257.92,-78.5263 1195.82,-72.8908"/>
<polygon fill="midnightblue" stroke="midnightblue" points="1196.07,-69.399 1185.8,-72.0135 1195.46,-76.3723 1196.07,-69.399"/>
</g>
<!-- Node26&#45;&gt;Node13 -->
<g id="edge92" class="edge"><title>Node26&#45;&gt;Node13</title>
<path fill="none" stroke="midnightblue" d="M1375.74,-181.412C1350.29,-170.6 1310.59,-153.731 1282.13,-141.642"/>
<polygon fill="midnightblue" stroke="midnightblue" points="1283.15,-138.272 1272.58,-137.584 1280.41,-144.715 1283.15,-138.272"/>
</g>
<!-- Node26&#45;&gt;Node17 -->
<g id="edge94" class="edge"><title>Node26&#45;&gt;Node17</title>
<path fill="none" stroke="midnightblue" d="M1392.74,-181.267C1385.61,-171.612 1374.98,-157.215 1366.46,-145.675"/>
<polygon fill="midnightblue" stroke="midnightblue" points="1369.2,-143.499 1360.44,-137.534 1363.57,-147.657 1369.2,-143.499"/>
</g>
<!-- Node26&#45;&gt;Node21 -->
<g id="edge90" class="edge"><title>Node26&#45;&gt;Node21</title>
<path fill="none" stroke="midnightblue" d="M1376.42,-181.424C1368.65,-178.495 1359.93,-175.664 1351.67,-174 1178.95,-139.217 735.494,-149.156 559.666,-138 527.035,-135.93 490.026,-132.863 463.02,-130.494"/>
<polygon fill="midnightblue" stroke="midnightblue" points="463.098,-126.987 452.828,-129.591 462.48,-133.96 463.098,-126.987"/>
</g>
<!-- Node26&#45;&gt;Node24 -->
<g id="edge88" class="edge"><title>Node26&#45;&gt;Node24</title>
<path fill="none" stroke="midnightblue" d="M1440.73,-182.894C1493.12,-170.987 1584.73,-150.168 1640.13,-137.576"/>
<polygon fill="midnightblue" stroke="midnightblue" points="1641.06,-140.954 1650.04,-135.324 1639.51,-134.128 1641.06,-140.954"/>
</g>
<!-- Node27 -->
<g id="node75" class="node"><title>Node27</title>
<polygon fill="white" stroke="#bfbfbf" points="1428.17,-116.5 1428.17,-137.5 1477.17,-137.5 1477.17,-116.5 1428.17,-116.5"/>
<text text-anchor="middle" x="1452.67" y="-124.5" font-family="Helvetica,sans-Serif" font-size="10.00">istream</text>
</g>
<!-- Node26&#45;&gt;Node27 -->
<g id="edge96" class="edge"><title>Node26&#45;&gt;Node27</title>
<path fill="none" stroke="midnightblue" d="M1409.25,-181.267C1416.98,-171.612 1428.49,-157.215 1437.73,-145.675"/>
<polygon fill="midnightblue" stroke="midnightblue" points="1440.72,-147.529 1444.24,-137.534 1435.26,-143.156 1440.72,-147.529"/>
</g>
<!-- Node30&#45;&gt;Node7 -->
<g id="edge116" class="edge"><title>Node30&#45;&gt;Node7</title>
<path fill="none" stroke="midnightblue" d="M108.563,-186.161C58.7775,-176.223 -24.5565,-153.385 7.66574,-116 52.3458,-64.1618 546.843,-23.4149 679.229,-13.3798"/>
<polygon fill="midnightblue" stroke="midnightblue" points="679.808,-16.8462 689.517,-12.6067 679.283,-9.86592 679.808,-16.8462"/>
</g>
<!-- Node30&#45;&gt;Node19 -->
<g id="edge112" class="edge"><title>Node30&#45;&gt;Node19</title>
<path fill="none" stroke="midnightblue" d="M167.1,-181.412C192.051,-170.6 230.979,-153.731 258.876,-141.642"/>
<polygon fill="midnightblue" stroke="midnightblue" points="260.458,-144.771 268.242,-137.584 257.675,-138.348 260.458,-144.771"/>
</g>
<!-- Node30&#45;&gt;Node21 -->
<g id="edge118" class="edge"><title>Node30&#45;&gt;Node21</title>
<path fill="none" stroke="midnightblue" d="M176.682,-184.159C229.638,-171.953 331.438,-148.489 386.709,-135.749"/>
<polygon fill="midnightblue" stroke="midnightblue" points="387.507,-139.157 396.466,-133.5 385.935,-132.336 387.507,-139.157"/>
</g>
<!-- Node31 -->
<g id="node86" class="node"><title>Node31</title>
<polygon fill="white" stroke="#bfbfbf" points="82.6657,-116.5 82.6657,-137.5 202.666,-137.5 202.666,-116.5 82.6657,-116.5"/>
<text text-anchor="middle" x="142.666" y="-124.5" font-family="Helvetica,sans-Serif" font-size="10.00">base/cereal/access.hpp</text>
</g>
<!-- Node30&#45;&gt;Node31 -->
<g id="edge110" class="edge"><title>Node30&#45;&gt;Node31</title>
<path fill="none" stroke="midnightblue" d="M142.666,-181.267C142.666,-172.18 142.666,-158.892 142.666,-147.74"/>
<polygon fill="midnightblue" stroke="midnightblue" points="146.166,-147.534 142.666,-137.534 139.166,-147.534 146.166,-147.534"/>
</g>
<!-- Node30&#45;&gt;Node32 -->
<g id="edge114" class="edge"><title>Node30&#45;&gt;Node32</title>
<path fill="none" stroke="midnightblue" d="M157.858,-181.267C172.547,-170.888 194.995,-155.029 211.835,-143.13"/>
<polygon fill="midnightblue" stroke="midnightblue" points="213.912,-145.949 220.059,-137.32 209.873,-140.231 213.912,-145.949"/>
</g>
<!-- Node33 -->
<g id="node93" class="node"><title>Node33</title>
<polygon fill="white" stroke="#bfbfbf" points="16.1657,-116.5 16.1657,-137.5 65.1657,-137.5 65.1657,-116.5 16.1657,-116.5"/>
<text text-anchor="middle" x="40.6657" y="-124.5" font-family="Helvetica,sans-Serif" font-size="10.00">cassert</text>
</g>
<!-- Node30&#45;&gt;Node33 -->
<g id="edge120" class="edge"><title>Node30&#45;&gt;Node33</title>
<path fill="none" stroke="midnightblue" d="M125.823,-181.267C109.484,-170.855 84.4895,-154.927 65.799,-143.016"/>
<polygon fill="midnightblue" stroke="midnightblue" points="67.5097,-139.956 57.1956,-137.534 63.7478,-145.859 67.5097,-139.956"/>
</g>
<!-- Node34&#45;&gt;Node9 -->
<g id="edge124" class="edge"><title>Node34&#45;&gt;Node9</title>
<path fill="none" stroke="midnightblue" d="M891.52,-246.362C889.202,-224.841 883.922,-175.807 880.899,-147.74"/>
<polygon fill="midnightblue" stroke="midnightblue" points="884.378,-147.353 879.827,-137.785 877.418,-148.103 884.378,-147.353"/>
</g>
</g>
</svg>
