<?xml version="1.0" encoding="UTF-8" standalone="no"?>
<!DOCTYPE svg PUBLIC "-//W3C//DTD SVG 1.1//EN"
 "http://www.w3.org/Graphics/SVG/1.1/DTD/svg11.dtd">
<!-- Generated by graphviz version 2.26.3 (20100126.1600)
 -->
<!-- Title: src/tree/TSlowControl.h Pages: 1 -->
<svg width="746pt" height="262pt"
 viewBox="0.00 0.00 746.00 262.00" xmlns="http://www.w3.org/2000/svg" xmlns:xlink="http://www.w3.org/1999/xlink">
<g id="graph1" class="graph" transform="scale(1 1) rotate(0) translate(4 258)">
<title>src/tree/TSlowControl.h</title>
<polygon fill="white" stroke="white" points="-4,5 -4,-258 743,-258 743,5 -4,5"/>
<!-- Node1 -->
<g id="node1" class="node"><title>Node1</title>
<polygon fill="#bfbfbf" stroke="black" points="366,-232.5 366,-253.5 486,-253.5 486,-232.5 366,-232.5"/>
<text text-anchor="middle" x="426" y="-240.5" font-family="Helvetica,sans-Serif" font-size="10.00">src/tree/TSlowControl.h</text>
</g>
<!-- Node2 -->
<g id="node3" class="node"><title>Node2</title>
<a xlink:href="_t_i_d_8h.html" target="_top" xlink:title="TID.h">
<polygon fill="white" stroke="black" points="405.5,-174.5 405.5,-195.5 446.5,-195.5 446.5,-174.5 405.5,-174.5"/>
<text text-anchor="middle" x="426" y="-182.5" font-family="Helvetica,sans-Serif" font-size="10.00">TID.h</text>
</a>
</g>
<!-- Node1&#45;&gt;Node2 -->
<g id="edge2" class="edge"><title>Node1&#45;&gt;Node2</title>
<path fill="none" stroke="midnightblue" d="M426,-232.362C426,-224.922 426,-214.743 426,-205.728"/>
<polygon fill="midnightblue" stroke="midnightblue" points="429.5,-205.571 426,-195.571 422.5,-205.571 429.5,-205.571"/>
</g>
<!-- Node4 -->
<g id="node7" class="node"><title>Node4</title>
<a xlink:href="printable_8h.html" target="_top" xlink:title="base/printable.h">
<polygon fill="white" stroke="black" points="30,-116.5 30,-137.5 116,-137.5 116,-116.5 30,-116.5"/>
<text text-anchor="middle" x="73" y="-124.5" font-family="Helvetica,sans-Serif" font-size="10.00">base/printable.h</text>
</a>
</g>
<!-- Node1&#45;&gt;Node4 -->
<g id="edge44" class="edge"><title>Node1&#45;&gt;Node4</title>
<path fill="none" stroke="midnightblue" d="M392.917,-232.457C363.305,-222.995 318.716,-208.684 280,-196 222.178,-177.056 155.424,-154.721 113.71,-140.708"/>
<polygon fill="midnightblue" stroke="midnightblue" points="114.772,-137.372 104.178,-137.504 112.542,-144.008 114.772,-137.372"/>
</g>
<!-- Node7 -->
<g id="node13" class="node"><title>Node7</title>
<a xlink:href="time_8h.html" target="_top" xlink:title="base/std_ext/time.h">
<polygon fill="white" stroke="black" points="133.5,-116.5 133.5,-137.5 236.5,-137.5 236.5,-116.5 133.5,-116.5"/>
<text text-anchor="middle" x="185" y="-124.5" font-family="Helvetica,sans-Serif" font-size="10.00">base/std_ext/time.h</text>
</a>
</g>
<!-- Node1&#45;&gt;Node7 -->
<g id="edge42" class="edge"><title>Node1&#45;&gt;Node7</title>
<path fill="none" stroke="midnightblue" d="M403.759,-232.295C360.608,-211.525 265.44,-165.718 216.073,-141.956"/>
<polygon fill="midnightblue" stroke="midnightblue" points="217.367,-138.695 206.839,-137.512 214.331,-145.002 217.367,-138.695"/>
</g>
<!-- Node15 -->
<g id="node30" class="node"><title>Node15</title>
<polygon fill="white" stroke="#bfbfbf" points="636,-116.5 636,-137.5 674,-137.5 674,-116.5 636,-116.5"/>
<text text-anchor="middle" x="655" y="-124.5" font-family="Helvetica,sans-Serif" font-size="10.00">tuple</text>
</g>
<!-- Node1&#45;&gt;Node15 -->
<g id="edge48" class="edge"><title>Node1&#45;&gt;Node15</title>
<path fill="none" stroke="midnightblue" d="M447.133,-232.295C488.568,-211.306 580.478,-164.749 626.944,-141.212"/>
<polygon fill="midnightblue" stroke="midnightblue" points="628.53,-144.332 635.869,-136.691 625.367,-138.087 628.53,-144.332"/>
</g>
<!-- Node16 -->
<g id="node32" class="node"><title>Node16</title>
<polygon fill="white" stroke="#bfbfbf" points="692,-116.5 692,-137.5 738,-137.5 738,-116.5 692,-116.5"/>
<text text-anchor="middle" x="715" y="-124.5" font-family="Helvetica,sans-Serif" font-size="10.00">cstdint</text>
</g>
<!-- Node1&#45;&gt;Node16 -->
<g id="edge46" class="edge"><title>Node1&#45;&gt;Node16</title>
<path fill="none" stroke="midnightblue" d="M456.171,-232.431C482.218,-223.185 520.783,-209.206 554,-196 598.945,-178.132 650.187,-155.833 682.554,-141.505"/>
<polygon fill="midnightblue" stroke="midnightblue" points="684.244,-144.584 691.964,-137.329 681.404,-138.186 684.244,-144.584"/>
</g>
<!-- Node3 -->
<g id="node5" class="node"><title>Node3</title>
<polygon fill="white" stroke="#bfbfbf" points="254,-116.5 254,-137.5 310,-137.5 310,-116.5 254,-116.5"/>
<text text-anchor="middle" x="282" y="-124.5" font-family="Helvetica,sans-Serif" font-size="10.00">Rtypes.h</text>
</g>
<!-- Node2&#45;&gt;Node3 -->
<g id="edge4" class="edge"><title>Node2&#45;&gt;Node3</title>
<path fill="none" stroke="midnightblue" d="M405.368,-176.69C382.481,-167.472 345.144,-152.433 317.531,-141.311"/>
<polygon fill="midnightblue" stroke="midnightblue" points="318.793,-138.046 308.209,-137.556 316.177,-144.539 318.793,-138.046"/>
</g>
<!-- Node2&#45;&gt;Node4 -->
<g id="edge6" class="edge"><title>Node2&#45;&gt;Node4</title>
<path fill="none" stroke="midnightblue" d="M405.498,-182.185C358.168,-175.605 237.434,-158.355 126.144,-138.14"/>
<polygon fill="midnightblue" stroke="midnightblue" points="126.562,-134.659 116.095,-136.302 125.302,-141.544 126.562,-134.659"/>
</g>
<!-- Node2&#45;&gt;Node7 -->
<g id="edge12" class="edge"><title>Node2&#45;&gt;Node7</title>
<path fill="none" stroke="midnightblue" d="M405.452,-180.055C368.88,-171.253 291.396,-152.606 238.749,-139.935"/>
<polygon fill="midnightblue" stroke="midnightblue" points="239.438,-136.501 228.897,-137.564 237.8,-143.307 239.438,-136.501"/>
</g>
<!-- Node13 -->
<g id="node26" class="node"><title>Node13</title>
<polygon fill="white" stroke="#bfbfbf" points="304.5,-58.5 304.5,-79.5 345.5,-79.5 345.5,-58.5 304.5,-58.5"/>
<text text-anchor="middle" x="325" y="-66.5" font-family="Helvetica,sans-Serif" font-size="10.00">ctime</text>
</g>
<!-- Node2&#45;&gt;Node13 -->
<g id="edge40" class="edge"><title>Node2&#45;&gt;Node13</title>
<path fill="none" stroke="midnightblue" d="M405.374,-174.85C390.367,-166.618 370.408,-153.805 357,-138 344.902,-123.739 336.396,-104.139 331.21,-89.4725"/>
<polygon fill="midnightblue" stroke="midnightblue" points="334.479,-88.2079 328.017,-79.8114 327.832,-90.4046 334.479,-88.2079"/>
</g>
<!-- Node14 -->
<g id="node28" class="node"><title>Node14</title>
<polygon fill="white" stroke="#bfbfbf" points="366,-116.5 366,-137.5 428,-137.5 428,-116.5 366,-116.5"/>
<text text-anchor="middle" x="397" y="-124.5" font-family="Helvetica,sans-Serif" font-size="10.00">type_traits</text>
</g>
<!-- Node2&#45;&gt;Node14 -->
<g id="edge28" class="edge"><title>Node2&#45;&gt;Node14</title>
<path fill="none" stroke="midnightblue" d="M420.681,-174.362C416.797,-166.595 411.421,-155.843 406.773,-146.546"/>
<polygon fill="midnightblue" stroke="midnightblue" points="409.888,-144.95 402.285,-137.571 403.627,-148.08 409.888,-144.95"/>
</g>
<!-- Node2&#45;&gt;Node15 -->
<g id="edge30" class="edge"><title>Node2&#45;&gt;Node15</title>
<path fill="none" stroke="midnightblue" d="M446.518,-181.222C481.531,-174.561 555.152,-159.624 625.892,-138.035"/>
<polygon fill="midnightblue" stroke="midnightblue" points="627.337,-141.251 635.851,-134.945 625.263,-134.566 627.337,-141.251"/>
</g>
<!-- Node2&#45;&gt;Node16 -->
<g id="edge32" class="edge"><title>Node2&#45;&gt;Node16</title>
<path fill="none" stroke="midnightblue" d="M446.551,-182.312C488.929,-176.544 589.17,-161.741 681.892,-138.013"/>
<polygon fill="midnightblue" stroke="midnightblue" points="682.909,-141.365 691.705,-135.46 681.146,-134.591 682.909,-141.365"/>
</g>
<!-- Node17 -->
<g id="node34" class="node"><title>Node17</title>
<polygon fill="white" stroke="#bfbfbf" points="445.5,-116.5 445.5,-137.5 504.5,-137.5 504.5,-116.5 445.5,-116.5"/>
<text text-anchor="middle" x="475" y="-124.5" font-family="Helvetica,sans-Serif" font-size="10.00">stdexcept</text>
</g>
<!-- Node2&#45;&gt;Node17 -->
<g id="edge34" class="edge"><title>Node2&#45;&gt;Node17</title>
<path fill="none" stroke="midnightblue" d="M434.987,-174.362C441.825,-166.268 451.402,-154.932 459.472,-145.38"/>
<polygon fill="midnightblue" stroke="midnightblue" points="462.29,-147.468 466.07,-137.571 456.942,-142.951 462.29,-147.468"/>
</g>
<!-- Node18 -->
<g id="node36" class="node"><title>Node18</title>
<polygon fill="white" stroke="#bfbfbf" points="521.5,-116.5 521.5,-137.5 550.5,-137.5 550.5,-116.5 521.5,-116.5"/>
<text text-anchor="middle" x="536" y="-124.5" font-family="Helvetica,sans-Serif" font-size="10.00">list</text>
</g>
<!-- Node2&#45;&gt;Node18 -->
<g id="edge36" class="edge"><title>Node2&#45;&gt;Node18</title>
<path fill="none" stroke="midnightblue" d="M445.92,-174.497C464.649,-164.622 492.691,-149.836 512.504,-139.389"/>
<polygon fill="midnightblue" stroke="midnightblue" points="514.279,-142.41 521.492,-134.65 511.014,-136.218 514.279,-142.41"/>
</g>
<!-- Node19 -->
<g id="node38" class="node"><title>Node19</title>
<polygon fill="white" stroke="#bfbfbf" points="568,-116.5 568,-137.5 618,-137.5 618,-116.5 568,-116.5"/>
<text text-anchor="middle" x="593" y="-124.5" font-family="Helvetica,sans-Serif" font-size="10.00">iomanip</text>
</g>
<!-- Node2&#45;&gt;Node19 -->
<g id="edge38" class="edge"><title>Node2&#45;&gt;Node19</title>
<path fill="none" stroke="midnightblue" d="M446.813,-177.772C474.746,-168.07 524.734,-150.709 558.38,-139.024"/>
<polygon fill="midnightblue" stroke="midnightblue" points="559.531,-142.329 567.83,-135.742 557.235,-135.716 559.531,-142.329"/>
</g>
<!-- Node5 -->
<g id="node9" class="node"><title>Node5</title>
<polygon fill="white" stroke="#bfbfbf" points="69,-0.5 69,-21.5 113,-21.5 113,-0.5 69,-0.5"/>
<text text-anchor="middle" x="91" y="-8.5" font-family="Helvetica,sans-Serif" font-size="10.00">vector</text>
</g>
<!-- Node4&#45;&gt;Node5 -->
<g id="edge8" class="edge"><title>Node4&#45;&gt;Node5</title>
<path fill="none" stroke="midnightblue" d="M74.6611,-116.295C77.6348,-97.1314 83.9158,-56.654 87.7657,-31.8434"/>
<polygon fill="midnightblue" stroke="midnightblue" points="91.268,-32.0977 89.3429,-21.6792 84.3508,-31.0242 91.268,-32.0977"/>
</g>
<!-- Node6 -->
<g id="node11" class="node"><title>Node6</title>
<polygon fill="white" stroke="#bfbfbf" points="0,-58.5 0,-79.5 52,-79.5 52,-58.5 0,-58.5"/>
<text text-anchor="middle" x="26" y="-66.5" font-family="Helvetica,sans-Serif" font-size="10.00">ostream</text>
</g>
<!-- Node4&#45;&gt;Node6 -->
<g id="edge10" class="edge"><title>Node4&#45;&gt;Node6</title>
<path fill="none" stroke="midnightblue" d="M64.3795,-116.362C57.8205,-108.268 48.6344,-96.9318 40.8938,-87.3796"/>
<polygon fill="midnightblue" stroke="midnightblue" points="43.581,-85.1364 34.5659,-79.5707 38.1425,-89.5436 43.581,-85.1364"/>
</g>
<!-- Node8 -->
<g id="node15" class="node"><title>Node8</title>
<a xlink:href="string_8h.html" target="_top" xlink:title="base/std_ext/string.h">
<polygon fill="white" stroke="black" points="172,-58.5 172,-79.5 280,-79.5 280,-58.5 172,-58.5"/>
<text text-anchor="middle" x="226" y="-66.5" font-family="Helvetica,sans-Serif" font-size="10.00">base/std_ext/string.h</text>
</a>
</g>
<!-- Node7&#45;&gt;Node8 -->
<g id="edge14" class="edge"><title>Node7&#45;&gt;Node8</title>
<path fill="none" stroke="midnightblue" d="M192.52,-116.362C198.126,-108.431 205.932,-97.3885 212.597,-87.9606"/>
<polygon fill="midnightblue" stroke="midnightblue" points="215.613,-89.7568 218.528,-79.5707 209.897,-85.7161 215.613,-89.7568"/>
</g>
<!-- Node12 -->
<g id="node24" class="node"><title>Node12</title>
<polygon fill="white" stroke="#bfbfbf" points="108,-58.5 108,-79.5 154,-79.5 154,-58.5 108,-58.5"/>
<text text-anchor="middle" x="131" y="-66.5" font-family="Helvetica,sans-Serif" font-size="10.00">cstring</text>
</g>
<!-- Node7&#45;&gt;Node12 -->
<g id="edge24" class="edge"><title>Node7&#45;&gt;Node12</title>
<path fill="none" stroke="midnightblue" d="M175.096,-116.362C167.484,-108.186 156.792,-96.7025 147.843,-87.0907"/>
<polygon fill="midnightblue" stroke="midnightblue" points="150.217,-84.5046 140.842,-79.5707 145.094,-89.2746 150.217,-84.5046"/>
</g>
<!-- Node7&#45;&gt;Node13 -->
<g id="edge26" class="edge"><title>Node7&#45;&gt;Node13</title>
<path fill="none" stroke="midnightblue" d="M210.353,-116.497C234.144,-106.641 269.743,-91.8923 294.951,-81.4489"/>
<polygon fill="midnightblue" stroke="midnightblue" points="296.489,-84.6001 304.388,-77.5391 293.81,-78.1331 296.489,-84.6001"/>
</g>
<!-- Node8&#45;&gt;Node5 -->
<g id="edge22" class="edge"><title>Node8&#45;&gt;Node5</title>
<path fill="none" stroke="midnightblue" d="M201.553,-58.4966C179.381,-48.9711 146.573,-34.8759 122.454,-24.5137"/>
<polygon fill="midnightblue" stroke="midnightblue" points="123.6,-21.1967 113.031,-20.465 120.837,-27.6282 123.6,-21.1967"/>
</g>
<!-- Node9 -->
<g id="node17" class="node"><title>Node9</title>
<polygon fill="white" stroke="#bfbfbf" points="141.5,-0.5 141.5,-21.5 182.5,-21.5 182.5,-0.5 141.5,-0.5"/>
<text text-anchor="middle" x="162" y="-8.5" font-family="Helvetica,sans-Serif" font-size="10.00">string</text>
</g>
<!-- Node8&#45;&gt;Node9 -->
<g id="edge16" class="edge"><title>Node8&#45;&gt;Node9</title>
<path fill="none" stroke="midnightblue" d="M214.261,-58.3619C205.059,-50.0226 192.06,-38.2418 181.328,-28.5162"/>
<polygon fill="midnightblue" stroke="midnightblue" points="183.424,-25.6924 173.664,-21.5707 178.724,-30.8793 183.424,-25.6924"/>
</g>
<!-- Node10 -->
<g id="node19" class="node"><title>Node10</title>
<polygon fill="white" stroke="#bfbfbf" points="200,-0.5 200,-21.5 252,-21.5 252,-0.5 200,-0.5"/>
<text text-anchor="middle" x="226" y="-8.5" font-family="Helvetica,sans-Serif" font-size="10.00">sstream</text>
</g>
<!-- Node8&#45;&gt;Node10 -->
<g id="edge18" class="edge"><title>Node8&#45;&gt;Node10</title>
<path fill="none" stroke="midnightblue" d="M226,-58.3619C226,-50.9219 226,-40.7427 226,-31.7276"/>
<polygon fill="midnightblue" stroke="midnightblue" points="229.5,-31.5706 226,-21.5707 222.5,-31.5707 229.5,-31.5706"/>
</g>
<!-- Node11 -->
<g id="node21" class="node"><title>Node11</title>
<polygon fill="white" stroke="#bfbfbf" points="270,-0.5 270,-21.5 326,-21.5 326,-0.5 270,-0.5"/>
<text text-anchor="middle" x="298" y="-8.5" font-family="Helvetica,sans-Serif" font-size="10.00">algorithm</text>
</g>
<!-- Node8&#45;&gt;Node11 -->
<g id="edge20" class="edge"><title>Node8&#45;&gt;Node11</title>
<path fill="none" stroke="midnightblue" d="M239.206,-58.3619C249.761,-49.859 264.758,-37.7785 276.963,-27.9466"/>
<polygon fill="midnightblue" stroke="midnightblue" points="279.286,-30.5696 284.878,-21.5707 274.895,-25.1183 279.286,-30.5696"/>
</g>
</g>
</svg>
