<?xml version="1.0" encoding="UTF-8" standalone="no"?>
<!DOCTYPE svg PUBLIC "-//W3C//DTD SVG 1.1//EN"
 "http://www.w3.org/Graphics/SVG/1.1/DTD/svg11.dtd">
<!-- Generated by graphviz version 2.26.3 (20100126.1600)
 -->
<!-- Title: src/tree/TTaggerHit.h Pages: 1 -->
<svg width="910pt" height="262pt"
 viewBox="0.00 0.00 910.10 262.00" xmlns="http://www.w3.org/2000/svg" xmlns:xlink="http://www.w3.org/1999/xlink">
<g id="graph1" class="graph" transform="scale(1 1) rotate(0) translate(4 258)">
<title>src/tree/TTaggerHit.h</title>
<polygon fill="white" stroke="white" points="-4,5 -4,-258 907.102,-258 907.102,5 -4,5"/>
<!-- Node1 -->
<g id="node1" class="node"><title>Node1</title>
<polygon fill="#bfbfbf" stroke="black" points="297,-232.5 297,-253.5 407,-253.5 407,-232.5 297,-232.5"/>
<text text-anchor="middle" x="352" y="-240.5" font-family="Helvetica,sans-Serif" font-size="10.00">src/tree/TTaggerHit.h</text>
</g>
<!-- Node2 -->
<g id="node3" class="node"><title>Node2</title>
<a xlink:href="_t_i_d_8h.html" target="_top" xlink:title="TID.h">
<polygon fill="white" stroke="black" points="469.5,-174.5 469.5,-195.5 510.5,-195.5 510.5,-174.5 469.5,-174.5"/>
<text text-anchor="middle" x="490" y="-182.5" font-family="Helvetica,sans-Serif" font-size="10.00">TID.h</text>
</a>
</g>
<!-- Node1&#45;&gt;Node2 -->
<g id="edge2" class="edge"><title>Node1&#45;&gt;Node2</title>
<path fill="none" stroke="midnightblue" d="M376.991,-232.497C400.304,-222.698 435.122,-208.065 459.943,-197.633"/>
<polygon fill="midnightblue" stroke="midnightblue" points="461.386,-200.823 469.249,-193.721 458.674,-194.369 461.386,-200.823"/>
</g>
<!-- Node4 -->
<g id="node7" class="node"><title>Node4</title>
<a xlink:href="printable_8h.html" target="_top" xlink:title="base/printable.h">
<polygon fill="white" stroke="black" points="102,-58.5 102,-79.5 188,-79.5 188,-58.5 102,-58.5"/>
<text text-anchor="middle" x="145" y="-66.5" font-family="Helvetica,sans-Serif" font-size="10.00">base/printable.h</text>
</a>
</g>
<!-- Node1&#45;&gt;Node4 -->
<g id="edge42" class="edge"><title>Node1&#45;&gt;Node4</title>
<path fill="none" stroke="midnightblue" d="M302.565,-232.431C264.299,-223.406 215.321,-209.738 200,-196 168.257,-167.536 154.095,-117.514 148.391,-89.4954"/>
<polygon fill="midnightblue" stroke="midnightblue" points="151.821,-88.7912 146.546,-79.6026 144.939,-90.0748 151.821,-88.7912"/>
</g>
<!-- Node5 -->
<g id="node9" class="node"><title>Node5</title>
<polygon fill="white" stroke="#bfbfbf" points="194,-0.5 194,-21.5 238,-21.5 238,-0.5 194,-0.5"/>
<text text-anchor="middle" x="216" y="-8.5" font-family="Helvetica,sans-Serif" font-size="10.00">vector</text>
</g>
<!-- Node1&#45;&gt;Node5 -->
<g id="edge56" class="edge"><title>Node1&#45;&gt;Node5</title>
<path fill="none" stroke="midnightblue" d="M342.286,-232.31C326.011,-214.017 292.872,-175.084 271,-138 249.959,-102.325 232.317,-57.1129 223.037,-31.3815"/>
<polygon fill="midnightblue" stroke="midnightblue" points="226.222,-29.8902 219.586,-21.631 219.623,-32.2258 226.222,-29.8902"/>
</g>
<!-- Node10 -->
<g id="node19" class="node"><title>Node10</title>
<polygon fill="white" stroke="#bfbfbf" points="787,-0.5 787,-21.5 839,-21.5 839,-0.5 787,-0.5"/>
<text text-anchor="middle" x="813" y="-8.5" font-family="Helvetica,sans-Serif" font-size="10.00">sstream</text>
</g>
<!-- Node1&#45;&gt;Node10 -->
<g id="edge60" class="edge"><title>Node1&#45;&gt;Node10</title>
<path fill="none" stroke="midnightblue" d="M407.332,-240.909C532.731,-234.882 832.381,-212.794 893,-138 922.672,-101.39 870.502,-53.129 837.311,-27.9463"/>
<polygon fill="midnightblue" stroke="midnightblue" points="839.065,-24.8911 828.94,-21.7728 834.911,-30.5249 839.065,-24.8911"/>
</g>
<!-- Node19 -->
<g id="node38" class="node"><title>Node19</title>
<polygon fill="white" stroke="#bfbfbf" points="834,-116.5 834,-137.5 884,-137.5 884,-116.5 834,-116.5"/>
<text text-anchor="middle" x="859" y="-124.5" font-family="Helvetica,sans-Serif" font-size="10.00">iomanip</text>
</g>
<!-- Node1&#45;&gt;Node19 -->
<g id="edge58" class="edge"><title>Node1&#45;&gt;Node19</title>
<path fill="none" stroke="midnightblue" d="M398.337,-232.398C498.742,-209.426 734.517,-155.481 823.852,-135.042"/>
<polygon fill="midnightblue" stroke="midnightblue" points="824.789,-138.418 833.757,-132.776 823.228,-131.594 824.789,-138.418"/>
</g>
<!-- Node20 -->
<g id="node42" class="node"><title>Node20</title>
<a xlink:href="_lorentz_vec_8h.html" target="_top" xlink:title="base/vec/LorentzVec.h">
<polygon fill="white" stroke="black" points="18.5,-174.5 18.5,-195.5 135.5,-195.5 135.5,-174.5 18.5,-174.5"/>
<text text-anchor="middle" x="77" y="-182.5" font-family="Helvetica,sans-Serif" font-size="10.00">base/vec/LorentzVec.h</text>
</a>
</g>
<!-- Node1&#45;&gt;Node20 -->
<g id="edge44" class="edge"><title>Node1&#45;&gt;Node20</title>
<path fill="none" stroke="midnightblue" d="M302.2,-232.497C255.717,-222.693 186.287,-208.05 136.819,-197.616"/>
<polygon fill="midnightblue" stroke="midnightblue" points="137.401,-194.162 126.894,-195.523 135.956,-201.011 137.401,-194.162"/>
</g>
<!-- Node3 -->
<g id="node5" class="node"><title>Node3</title>
<polygon fill="white" stroke="#bfbfbf" points="522,-116.5 522,-137.5 578,-137.5 578,-116.5 522,-116.5"/>
<text text-anchor="middle" x="550" y="-124.5" font-family="Helvetica,sans-Serif" font-size="10.00">Rtypes.h</text>
</g>
<!-- Node2&#45;&gt;Node3 -->
<g id="edge4" class="edge"><title>Node2&#45;&gt;Node3</title>
<path fill="none" stroke="midnightblue" d="M501.005,-174.362C509.547,-166.104 521.58,-154.472 531.583,-144.803"/>
<polygon fill="midnightblue" stroke="midnightblue" points="534.308,-147.037 539.065,-137.571 529.442,-142.004 534.308,-147.037"/>
</g>
<!-- Node2&#45;&gt;Node4 -->
<g id="edge6" class="edge"><title>Node2&#45;&gt;Node4</title>
<path fill="none" stroke="midnightblue" d="M469.211,-182.578C429.635,-177.526 341.158,-164.104 271,-138 233.899,-124.195 194.368,-100.984 169.682,-85.3377"/>
<polygon fill="midnightblue" stroke="midnightblue" points="171.289,-82.2096 160.984,-79.7467 167.504,-88.0981 171.289,-82.2096"/>
</g>
<!-- Node7 -->
<g id="node13" class="node"><title>Node7</title>
<a xlink:href="time_8h.html" target="_top" xlink:title="base/std_ext/time.h">
<polygon fill="white" stroke="black" points="595.5,-116.5 595.5,-137.5 698.5,-137.5 698.5,-116.5 595.5,-116.5"/>
<text text-anchor="middle" x="647" y="-124.5" font-family="Helvetica,sans-Serif" font-size="10.00">base/std_ext/time.h</text>
</a>
</g>
<!-- Node2&#45;&gt;Node7 -->
<g id="edge12" class="edge"><title>Node2&#45;&gt;Node7</title>
<path fill="none" stroke="midnightblue" d="M510.525,-177.418C535.426,-168.219 577.91,-152.524 608.876,-141.084"/>
<polygon fill="midnightblue" stroke="midnightblue" points="610.321,-144.281 618.489,-137.533 607.896,-137.715 610.321,-144.281"/>
</g>
<!-- Node13 -->
<g id="node26" class="node"><title>Node13</title>
<polygon fill="white" stroke="#bfbfbf" points="736.5,-58.5 736.5,-79.5 777.5,-79.5 777.5,-58.5 736.5,-58.5"/>
<text text-anchor="middle" x="757" y="-66.5" font-family="Helvetica,sans-Serif" font-size="10.00">ctime</text>
</g>
<!-- Node2&#45;&gt;Node13 -->
<g id="edge40" class="edge"><title>Node2&#45;&gt;Node13</title>
<path fill="none" stroke="midnightblue" d="M510.795,-183.256C575.329,-177.638 768.945,-159.137 787,-138 799.599,-123.251 787.486,-102.395 775.092,-87.4803"/>
<polygon fill="midnightblue" stroke="midnightblue" points="777.594,-85.0272 768.333,-79.8821 772.364,-89.6799 777.594,-85.0272"/>
</g>
<!-- Node14 -->
<g id="node28" class="node"><title>Node14</title>
<polygon fill="white" stroke="#bfbfbf" points="716,-116.5 716,-137.5 778,-137.5 778,-116.5 716,-116.5"/>
<text text-anchor="middle" x="747" y="-124.5" font-family="Helvetica,sans-Serif" font-size="10.00">type_traits</text>
</g>
<!-- Node2&#45;&gt;Node14 -->
<g id="edge28" class="edge"><title>Node2&#45;&gt;Node14</title>
<path fill="none" stroke="midnightblue" d="M510.732,-180.906C547.861,-173.489 628.348,-157.031 705.696,-138.235"/>
<polygon fill="midnightblue" stroke="midnightblue" points="706.719,-141.588 715.6,-135.811 705.054,-134.789 706.719,-141.588"/>
</g>
<!-- Node15 -->
<g id="node30" class="node"><title>Node15</title>
<polygon fill="white" stroke="#bfbfbf" points="280,-116.5 280,-137.5 318,-137.5 318,-116.5 280,-116.5"/>
<text text-anchor="middle" x="299" y="-124.5" font-family="Helvetica,sans-Serif" font-size="10.00">tuple</text>
</g>
<!-- Node2&#45;&gt;Node15 -->
<g id="edge30" class="edge"><title>Node2&#45;&gt;Node15</title>
<path fill="none" stroke="midnightblue" d="M469.48,-179.745C440.092,-172.078 384.172,-156.97 327.948,-138.121"/>
<polygon fill="midnightblue" stroke="midnightblue" points="328.787,-134.71 318.192,-134.813 326.539,-141.339 328.787,-134.71"/>
</g>
<!-- Node16 -->
<g id="node32" class="node"><title>Node16</title>
<polygon fill="white" stroke="#bfbfbf" points="336,-116.5 336,-137.5 382,-137.5 382,-116.5 336,-116.5"/>
<text text-anchor="middle" x="359" y="-124.5" font-family="Helvetica,sans-Serif" font-size="10.00">cstdint</text>
</g>
<!-- Node2&#45;&gt;Node16 -->
<g id="edge32" class="edge"><title>Node2&#45;&gt;Node16</title>
<path fill="none" stroke="midnightblue" d="M469.243,-175.81C448.352,-166.56 415.83,-152.161 391.515,-141.396"/>
<polygon fill="midnightblue" stroke="midnightblue" points="392.872,-138.169 382.312,-137.321 390.039,-144.57 392.872,-138.169"/>
</g>
<!-- Node17 -->
<g id="node34" class="node"><title>Node17</title>
<polygon fill="white" stroke="#bfbfbf" points="399.5,-116.5 399.5,-137.5 458.5,-137.5 458.5,-116.5 399.5,-116.5"/>
<text text-anchor="middle" x="429" y="-124.5" font-family="Helvetica,sans-Serif" font-size="10.00">stdexcept</text>
</g>
<!-- Node2&#45;&gt;Node17 -->
<g id="edge34" class="edge"><title>Node2&#45;&gt;Node17</title>
<path fill="none" stroke="midnightblue" d="M478.812,-174.362C470.041,-166.023 457.651,-154.242 447.422,-144.516"/>
<polygon fill="midnightblue" stroke="midnightblue" points="449.776,-141.925 440.117,-137.571 444.953,-146.998 449.776,-141.925"/>
</g>
<!-- Node18 -->
<g id="node36" class="node"><title>Node18</title>
<polygon fill="white" stroke="#bfbfbf" points="475.5,-116.5 475.5,-137.5 504.5,-137.5 504.5,-116.5 475.5,-116.5"/>
<text text-anchor="middle" x="490" y="-124.5" font-family="Helvetica,sans-Serif" font-size="10.00">list</text>
</g>
<!-- Node2&#45;&gt;Node18 -->
<g id="edge36" class="edge"><title>Node2&#45;&gt;Node18</title>
<path fill="none" stroke="midnightblue" d="M490,-174.362C490,-166.922 490,-156.743 490,-147.728"/>
<polygon fill="midnightblue" stroke="midnightblue" points="493.5,-147.571 490,-137.571 486.5,-147.571 493.5,-147.571"/>
</g>
<!-- Node2&#45;&gt;Node19 -->
<g id="edge38" class="edge"><title>Node2&#45;&gt;Node19</title>
<path fill="none" stroke="midnightblue" d="M510.634,-183.029C562.832,-177.833 704.212,-162.461 820,-138 821.278,-137.73 822.575,-137.441 823.883,-137.138"/>
<polygon fill="midnightblue" stroke="midnightblue" points="825.108,-140.439 833.947,-134.598 823.395,-133.652 825.108,-140.439"/>
</g>
<!-- Node4&#45;&gt;Node5 -->
<g id="edge8" class="edge"><title>Node4&#45;&gt;Node5</title>
<path fill="none" stroke="midnightblue" d="M158.022,-58.3619C168.431,-49.859 183.219,-37.7785 195.255,-27.9466"/>
<polygon fill="midnightblue" stroke="midnightblue" points="197.53,-30.6077 203.06,-21.5707 193.101,-25.1866 197.53,-30.6077"/>
</g>
<!-- Node6 -->
<g id="node11" class="node"><title>Node6</title>
<polygon fill="white" stroke="#bfbfbf" points="119,-0.5 119,-21.5 171,-21.5 171,-0.5 119,-0.5"/>
<text text-anchor="middle" x="145" y="-8.5" font-family="Helvetica,sans-Serif" font-size="10.00">ostream</text>
</g>
<!-- Node4&#45;&gt;Node6 -->
<g id="edge10" class="edge"><title>Node4&#45;&gt;Node6</title>
<path fill="none" stroke="midnightblue" d="M145,-58.3619C145,-50.9219 145,-40.7427 145,-31.7276"/>
<polygon fill="midnightblue" stroke="midnightblue" points="148.5,-31.5706 145,-21.5707 141.5,-31.5707 148.5,-31.5706"/>
</g>
<!-- Node8 -->
<g id="node15" class="node"><title>Node8</title>
<a xlink:href="string_8h.html" target="_top" xlink:title="base/std_ext/string.h">
<polygon fill="white" stroke="black" points="522,-58.5 522,-79.5 630,-79.5 630,-58.5 522,-58.5"/>
<text text-anchor="middle" x="576" y="-66.5" font-family="Helvetica,sans-Serif" font-size="10.00">base/std_ext/string.h</text>
</a>
</g>
<!-- Node7&#45;&gt;Node8 -->
<g id="edge14" class="edge"><title>Node7&#45;&gt;Node8</title>
<path fill="none" stroke="midnightblue" d="M633.978,-116.362C623.569,-107.859 608.781,-95.7785 596.745,-85.9466"/>
<polygon fill="midnightblue" stroke="midnightblue" points="598.899,-83.1866 588.94,-79.5707 594.47,-88.6077 598.899,-83.1866"/>
</g>
<!-- Node12 -->
<g id="node24" class="node"><title>Node12</title>
<polygon fill="white" stroke="#bfbfbf" points="648,-58.5 648,-79.5 694,-79.5 694,-58.5 648,-58.5"/>
<text text-anchor="middle" x="671" y="-66.5" font-family="Helvetica,sans-Serif" font-size="10.00">cstring</text>
</g>
<!-- Node7&#45;&gt;Node12 -->
<g id="edge24" class="edge"><title>Node7&#45;&gt;Node12</title>
<path fill="none" stroke="midnightblue" d="M651.402,-116.362C654.582,-108.677 658.972,-98.0686 662.79,-88.8399"/>
<polygon fill="midnightblue" stroke="midnightblue" points="666.036,-90.1491 666.626,-79.5707 659.568,-87.4726 666.036,-90.1491"/>
</g>
<!-- Node7&#45;&gt;Node13 -->
<g id="edge26" class="edge"><title>Node7&#45;&gt;Node13</title>
<path fill="none" stroke="midnightblue" d="M666.92,-116.497C683.946,-107.519 708.669,-94.4835 727.909,-84.3387"/>
<polygon fill="midnightblue" stroke="midnightblue" points="729.643,-87.3814 736.856,-79.6212 726.378,-81.1894 729.643,-87.3814"/>
</g>
<!-- Node8&#45;&gt;Node5 -->
<g id="edge22" class="edge"><title>Node8&#45;&gt;Node5</title>
<path fill="none" stroke="midnightblue" d="M521.715,-60.254C445.77,-48.0186 310.193,-26.1755 248.352,-16.2122"/>
<polygon fill="midnightblue" stroke="midnightblue" points="248.815,-12.7417 238.385,-14.6065 247.701,-19.6526 248.815,-12.7417"/>
</g>
<!-- Node9 -->
<g id="node17" class="node"><title>Node9</title>
<polygon fill="white" stroke="#bfbfbf" points="522.5,-0.5 522.5,-21.5 563.5,-21.5 563.5,-0.5 522.5,-0.5"/>
<text text-anchor="middle" x="543" y="-8.5" font-family="Helvetica,sans-Serif" font-size="10.00">string</text>
</g>
<!-- Node8&#45;&gt;Node9 -->
<g id="edge16" class="edge"><title>Node8&#45;&gt;Node9</title>
<path fill="none" stroke="midnightblue" d="M569.947,-58.3619C565.528,-50.5949 559.41,-39.8426 554.121,-30.5458"/>
<polygon fill="midnightblue" stroke="midnightblue" points="557.002,-28.5315 549.014,-21.5707 550.918,-31.9932 557.002,-28.5315"/>
</g>
<!-- Node8&#45;&gt;Node10 -->
<g id="edge18" class="edge"><title>Node8&#45;&gt;Node10</title>
<path fill="none" stroke="midnightblue" d="M618.919,-58.4966C664.145,-47.4287 734.579,-30.1915 777.005,-19.809"/>
<polygon fill="midnightblue" stroke="midnightblue" points="778.016,-23.1648 786.898,-17.3879 776.352,-16.3654 778.016,-23.1648"/>
</g>
<!-- Node11 -->
<g id="node21" class="node"><title>Node11</title>
<polygon fill="white" stroke="#bfbfbf" points="581,-0.5 581,-21.5 637,-21.5 637,-0.5 581,-0.5"/>
<text text-anchor="middle" x="609" y="-8.5" font-family="Helvetica,sans-Serif" font-size="10.00">algorithm</text>
</g>
<!-- Node8&#45;&gt;Node11 -->
<g id="edge20" class="edge"><title>Node8&#45;&gt;Node11</title>
<path fill="none" stroke="midnightblue" d="M582.053,-58.3619C586.472,-50.5949 592.59,-39.8426 597.879,-30.5458"/>
<polygon fill="midnightblue" stroke="midnightblue" points="601.082,-31.9932 602.986,-21.5707 594.998,-28.5315 601.082,-31.9932"/>
</g>
<!-- Node21 -->
<g id="node44" class="node"><title>Node21</title>
<a xlink:href="vec3_8h.html" target="_top" xlink:title="base/vec/vec3.h">
<polygon fill="white" stroke="black" points="30.5,-116.5 30.5,-137.5 119.5,-137.5 119.5,-116.5 30.5,-116.5"/>
<text text-anchor="middle" x="75" y="-124.5" font-family="Helvetica,sans-Serif" font-size="10.00">base/vec/vec3.h</text>
</a>
</g>
<!-- Node20&#45;&gt;Node21 -->
<g id="edge46" class="edge"><title>Node20&#45;&gt;Node21</title>
<path fill="none" stroke="midnightblue" d="M76.6332,-174.362C76.3766,-166.922 76.0256,-156.743 75.7147,-147.728"/>
<polygon fill="midnightblue" stroke="midnightblue" points="79.2071,-147.444 75.3645,-137.571 72.2113,-147.685 79.2071,-147.444"/>
</g>
<!-- Node21&#45;&gt;Node4 -->
<g id="edge48" class="edge"><title>Node21&#45;&gt;Node4</title>
<path fill="none" stroke="midnightblue" d="M87.8391,-116.362C98.0025,-107.941 112.401,-96.0105 124.204,-86.2308"/>
<polygon fill="midnightblue" stroke="midnightblue" points="126.775,-88.6459 132.242,-79.5707 122.309,-83.2558 126.775,-88.6459"/>
</g>
<!-- Node22 -->
<g id="node47" class="node"><title>Node22</title>
<a xlink:href="vec2_8h.html" target="_top" xlink:title="vec2.h">
<polygon fill="white" stroke="black" points="0,-58.5 0,-79.5 46,-79.5 46,-58.5 0,-58.5"/>
<text text-anchor="middle" x="23" y="-66.5" font-family="Helvetica,sans-Serif" font-size="10.00">vec2.h</text>
</a>
</g>
<!-- Node21&#45;&gt;Node22 -->
<g id="edge50" class="edge"><title>Node21&#45;&gt;Node22</title>
<path fill="none" stroke="midnightblue" d="M65.4624,-116.362C58.1323,-108.186 47.8367,-96.7025 39.2192,-87.0907"/>
<polygon fill="midnightblue" stroke="midnightblue" points="41.7586,-84.68 32.4771,-79.5707 36.5466,-89.3528 41.7586,-84.68"/>
</g>
<!-- Node23 -->
<g id="node49" class="node"><title>Node23</title>
<polygon fill="white" stroke="#bfbfbf" points="27,-0.5 27,-21.5 71,-21.5 71,-0.5 27,-0.5"/>
<text text-anchor="middle" x="49" y="-8.5" font-family="Helvetica,sans-Serif" font-size="10.00">cmath</text>
</g>
<!-- Node21&#45;&gt;Node23 -->
<g id="edge54" class="edge"><title>Node21&#45;&gt;Node23</title>
<path fill="none" stroke="midnightblue" d="M72.6006,-116.295C68.286,-97.0451 59.151,-56.2889 53.5969,-31.5091"/>
<polygon fill="midnightblue" stroke="midnightblue" points="56.9961,-30.6716 51.3936,-21.6792 50.1655,-32.2026 56.9961,-30.6716"/>
</g>
<!-- Node22&#45;&gt;Node23 -->
<g id="edge52" class="edge"><title>Node22&#45;&gt;Node23</title>
<path fill="none" stroke="midnightblue" d="M27.7688,-58.3619C31.2139,-50.6766 35.9692,-40.0686 40.1063,-30.8399"/>
<polygon fill="midnightblue" stroke="midnightblue" points="43.3646,-32.1275 44.2614,-21.5707 36.977,-29.264 43.3646,-32.1275"/>
</g>
</g>
</svg>
