<?xml version="1.0" encoding="UTF-8" standalone="no"?>
<!DOCTYPE svg PUBLIC "-//W3C//DTD SVG 1.1//EN"
 "http://www.w3.org/Graphics/SVG/1.1/DTD/svg11.dtd">
<!-- Generated by graphviz version 2.26.3 (20100126.1600)
 -->
<!-- Title: src/tree/TUnpackerMessage.h Pages: 1 -->
<svg width="874pt" height="146pt"
 viewBox="0.00 0.00 874.00 146.00" xmlns="http://www.w3.org/2000/svg" xmlns:xlink="http://www.w3.org/1999/xlink">
<g id="graph1" class="graph" transform="scale(1 1) rotate(0) translate(4 142)">
<title>src/tree/TUnpackerMessage.h</title>
<polygon fill="white" stroke="white" points="-4,5 -4,-142 871,-142 871,5 -4,5"/>
<!-- Node1 -->
<g id="node1" class="node"><title>Node1</title>
<polygon fill="#bfbfbf" stroke="black" points="534.5,-116.5 534.5,-137.5 683.5,-137.5 683.5,-116.5 534.5,-116.5"/>
<text text-anchor="middle" x="609" y="-124.5" font-family="Helvetica,sans-Serif" font-size="10.00">src/tree/TUnpackerMessage.h</text>
</g>
<!-- Node2 -->
<g id="node3" class="node"><title>Node2</title>
<a xlink:href="_format_8h.html" target="_top" xlink:title="base/Format.h">
<polygon fill="white" stroke="black" points="404,-58.5 404,-79.5 484,-79.5 484,-58.5 404,-58.5"/>
<text text-anchor="middle" x="444" y="-66.5" font-family="Helvetica,sans-Serif" font-size="10.00">base/Format.h</text>
</a>
</g>
<!-- Node1&#45;&gt;Node2 -->
<g id="edge2" class="edge"><title>Node1&#45;&gt;Node2</title>
<path fill="none" stroke="midnightblue" d="M579.12,-116.497C552.337,-107.082 512.855,-93.2036 483.478,-82.8773"/>
<polygon fill="midnightblue" stroke="midnightblue" points="484.531,-79.5374 473.936,-79.5231 482.21,-86.1413 484.531,-79.5374"/>
</g>
<!-- Node15 -->
<g id="node29" class="node"><title>Node15</title>
<a xlink:href="printable_8h.html" target="_top" xlink:title="base/printable.h">
<polygon fill="white" stroke="black" points="731,-58.5 731,-79.5 817,-79.5 817,-58.5 731,-58.5"/>
<text text-anchor="middle" x="774" y="-66.5" font-family="Helvetica,sans-Serif" font-size="10.00">base/printable.h</text>
</a>
</g>
<!-- Node1&#45;&gt;Node15 -->
<g id="edge28" class="edge"><title>Node1&#45;&gt;Node15</title>
<path fill="none" stroke="midnightblue" d="M638.88,-116.497C665.663,-107.082 705.145,-93.2036 734.522,-82.8773"/>
<polygon fill="midnightblue" stroke="midnightblue" points="735.79,-86.1413 744.064,-79.5231 733.469,-79.5374 735.79,-86.1413"/>
</g>
<!-- Node3 -->
<g id="node5" class="node"><title>Node3</title>
<polygon fill="white" stroke="#bfbfbf" points="-0.5,-0.5 -0.5,-21.5 78.5,-21.5 78.5,-0.5 -0.5,-0.5"/>
<text text-anchor="middle" x="39" y="-8.5" font-family="Helvetica,sans-Serif" font-size="10.00">detail/format.h</text>
</g>
<!-- Node2&#45;&gt;Node3 -->
<g id="edge4" class="edge"><title>Node2&#45;&gt;Node3</title>
<path fill="none" stroke="midnightblue" d="M403.922,-64.9718C339.485,-58.2237 208.69,-43.4097 88.8338,-22.2166"/>
<polygon fill="midnightblue" stroke="midnightblue" points="89.2131,-18.729 78.7531,-20.4142 87.9809,-25.6197 89.2131,-18.729"/>
</g>
<!-- Node4 -->
<g id="node7" class="node"><title>Node4</title>
<polygon fill="white" stroke="#bfbfbf" points="95.5,-0.5 95.5,-21.5 144.5,-21.5 144.5,-0.5 95.5,-0.5"/>
<text text-anchor="middle" x="120" y="-8.5" font-family="Helvetica,sans-Serif" font-size="10.00">stdint.h</text>
</g>
<!-- Node2&#45;&gt;Node4 -->
<g id="edge6" class="edge"><title>Node2&#45;&gt;Node4</title>
<path fill="none" stroke="midnightblue" d="M403.577,-64.5665C348.931,-58.1163 248.387,-44.6378 154.663,-22.1459"/>
<polygon fill="midnightblue" stroke="midnightblue" points="155.285,-18.6951 144.74,-19.724 153.625,-25.4954 155.285,-18.6951"/>
</g>
<!-- Node5 -->
<g id="node9" class="node"><title>Node5</title>
<polygon fill="white" stroke="#bfbfbf" points="161.5,-0.5 161.5,-21.5 210.5,-21.5 210.5,-0.5 161.5,-0.5"/>
<text text-anchor="middle" x="186" y="-8.5" font-family="Helvetica,sans-Serif" font-size="10.00">cassert</text>
</g>
<!-- Node2&#45;&gt;Node5 -->
<g id="edge8" class="edge"><title>Node2&#45;&gt;Node5</title>
<path fill="none" stroke="midnightblue" d="M403.838,-62.063C360.605,-54.2753 289.684,-40.5772 220.517,-22.2206"/>
<polygon fill="midnightblue" stroke="midnightblue" points="221.338,-18.8171 210.772,-19.5996 219.52,-25.5769 221.338,-18.8171"/>
</g>
<!-- Node6 -->
<g id="node11" class="node"><title>Node6</title>
<polygon fill="white" stroke="#bfbfbf" points="228,-0.5 228,-21.5 272,-21.5 272,-0.5 228,-0.5"/>
<text text-anchor="middle" x="250" y="-8.5" font-family="Helvetica,sans-Serif" font-size="10.00">cmath</text>
</g>
<!-- Node2&#45;&gt;Node6 -->
<g id="edge10" class="edge"><title>Node2&#45;&gt;Node6</title>
<path fill="none" stroke="midnightblue" d="M404.938,-58.449C373.929,-49.9143 329.277,-37.2738 282.083,-22.2344"/>
<polygon fill="midnightblue" stroke="midnightblue" points="282.888,-18.8168 272.296,-19.0925 280.748,-25.4818 282.888,-18.8168"/>
</g>
<!-- Node7 -->
<g id="node13" class="node"><title>Node7</title>
<polygon fill="white" stroke="#bfbfbf" points="289.5,-0.5 289.5,-21.5 338.5,-21.5 338.5,-0.5 289.5,-0.5"/>
<text text-anchor="middle" x="314" y="-8.5" font-family="Helvetica,sans-Serif" font-size="10.00">cstddef</text>
</g>
<!-- Node2&#45;&gt;Node7 -->
<g id="edge12" class="edge"><title>Node2&#45;&gt;Node7</title>
<path fill="none" stroke="midnightblue" d="M420.458,-58.4966C399.971,-49.3562 370.053,-36.0082 347.146,-25.7883"/>
<polygon fill="midnightblue" stroke="midnightblue" points="348.365,-22.4994 337.806,-21.6212 345.512,-28.892 348.365,-22.4994"/>
</g>
<!-- Node8 -->
<g id="node15" class="node"><title>Node8</title>
<polygon fill="white" stroke="#bfbfbf" points="355.5,-0.5 355.5,-21.5 398.5,-21.5 398.5,-0.5 355.5,-0.5"/>
<text text-anchor="middle" x="377" y="-8.5" font-family="Helvetica,sans-Serif" font-size="10.00">cstdio</text>
</g>
<!-- Node2&#45;&gt;Node8 -->
<g id="edge14" class="edge"><title>Node2&#45;&gt;Node8</title>
<path fill="none" stroke="midnightblue" d="M431.711,-58.3619C421.983,-49.9408 408.202,-38.0105 396.905,-28.2308"/>
<polygon fill="midnightblue" stroke="midnightblue" points="399.062,-25.4695 389.211,-21.5707 394.481,-30.7619 399.062,-25.4695"/>
</g>
<!-- Node9 -->
<g id="node17" class="node"><title>Node9</title>
<polygon fill="white" stroke="#bfbfbf" points="416,-0.5 416,-21.5 472,-21.5 472,-0.5 416,-0.5"/>
<text text-anchor="middle" x="444" y="-8.5" font-family="Helvetica,sans-Serif" font-size="10.00">algorithm</text>
</g>
<!-- Node2&#45;&gt;Node9 -->
<g id="edge16" class="edge"><title>Node2&#45;&gt;Node9</title>
<path fill="none" stroke="midnightblue" d="M444,-58.3619C444,-50.9219 444,-40.7427 444,-31.7276"/>
<polygon fill="midnightblue" stroke="midnightblue" points="447.5,-31.5706 444,-21.5707 440.5,-31.5707 447.5,-31.5706"/>
</g>
<!-- Node10 -->
<g id="node19" class="node"><title>Node10</title>
<polygon fill="white" stroke="#bfbfbf" points="490,-0.5 490,-21.5 530,-21.5 530,-0.5 490,-0.5"/>
<text text-anchor="middle" x="510" y="-8.5" font-family="Helvetica,sans-Serif" font-size="10.00">limits</text>
</g>
<!-- Node2&#45;&gt;Node10 -->
<g id="edge18" class="edge"><title>Node2&#45;&gt;Node10</title>
<path fill="none" stroke="midnightblue" d="M456.105,-58.3619C465.688,-49.9408 479.264,-38.0105 490.393,-28.2308"/>
<polygon fill="midnightblue" stroke="midnightblue" points="492.77,-30.8009 497.971,-21.5707 488.149,-25.5427 492.77,-30.8009"/>
</g>
<!-- Node11 -->
<g id="node21" class="node"><title>Node11</title>
<polygon fill="white" stroke="#bfbfbf" points="547.5,-0.5 547.5,-21.5 606.5,-21.5 606.5,-0.5 547.5,-0.5"/>
<text text-anchor="middle" x="577" y="-8.5" font-family="Helvetica,sans-Serif" font-size="10.00">stdexcept</text>
</g>
<!-- Node2&#45;&gt;Node11 -->
<g id="edge20" class="edge"><title>Node2&#45;&gt;Node11</title>
<path fill="none" stroke="midnightblue" d="M468.085,-58.4966C489.139,-49.3154 519.927,-35.8889 543.402,-25.6516"/>
<polygon fill="midnightblue" stroke="midnightblue" points="544.877,-28.8268 552.644,-21.6212 542.079,-22.4104 544.877,-28.8268"/>
</g>
<!-- Node12 -->
<g id="node23" class="node"><title>Node12</title>
<polygon fill="white" stroke="#bfbfbf" points="623.5,-0.5 623.5,-21.5 664.5,-21.5 664.5,-0.5 623.5,-0.5"/>
<text text-anchor="middle" x="644" y="-8.5" font-family="Helvetica,sans-Serif" font-size="10.00">string</text>
</g>
<!-- Node2&#45;&gt;Node12 -->
<g id="edge22" class="edge"><title>Node2&#45;&gt;Node12</title>
<path fill="none" stroke="midnightblue" d="M484.052,-59.1316C516.799,-50.809 564.452,-38.1219 613.909,-22.1767"/>
<polygon fill="midnightblue" stroke="midnightblue" points="615.067,-25.4804 623.49,-19.0535 612.898,-18.8251 615.067,-25.4804"/>
</g>
<!-- Node13 -->
<g id="node25" class="node"><title>Node13</title>
<polygon fill="white" stroke="#bfbfbf" points="682,-0.5 682,-21.5 734,-21.5 734,-0.5 682,-0.5"/>
<text text-anchor="middle" x="708" y="-8.5" font-family="Helvetica,sans-Serif" font-size="10.00">sstream</text>
</g>
<!-- Node2&#45;&gt;Node13 -->
<g id="edge24" class="edge"><title>Node2&#45;&gt;Node13</title>
<path fill="none" stroke="midnightblue" d="M484.412,-61.9964C528.326,-54.1013 600.712,-40.2606 671.705,-22.161"/>
<polygon fill="midnightblue" stroke="midnightblue" points="672.902,-25.4668 681.71,-19.5789 671.152,-18.6889 672.902,-25.4668"/>
</g>
<!-- Node14 -->
<g id="node27" class="node"><title>Node14</title>
<polygon fill="white" stroke="#bfbfbf" points="752,-0.5 752,-21.5 796,-21.5 796,-0.5 752,-0.5"/>
<text text-anchor="middle" x="774" y="-8.5" font-family="Helvetica,sans-Serif" font-size="10.00">vector</text>
</g>
<!-- Node2&#45;&gt;Node14 -->
<g id="edge26" class="edge"><title>Node2&#45;&gt;Node14</title>
<path fill="none" stroke="midnightblue" d="M484.134,-65.0791C540.051,-59.0976 644.591,-46.0347 741.812,-21.9521"/>
<polygon fill="midnightblue" stroke="midnightblue" points="742.961,-25.272 751.801,-19.4317 741.249,-18.4847 742.961,-25.272"/>
</g>
<!-- Node15&#45;&gt;Node14 -->
<g id="edge30" class="edge"><title>Node15&#45;&gt;Node14</title>
<path fill="none" stroke="midnightblue" d="M774,-58.3619C774,-50.9219 774,-40.7427 774,-31.7276"/>
<polygon fill="midnightblue" stroke="midnightblue" points="777.5,-31.5706 774,-21.5707 770.5,-31.5707 777.5,-31.5706"/>
</g>
<!-- Node16 -->
<g id="node32" class="node"><title>Node16</title>
<polygon fill="white" stroke="#bfbfbf" points="814,-0.5 814,-21.5 866,-21.5 866,-0.5 814,-0.5"/>
<text text-anchor="middle" x="840" y="-8.5" font-family="Helvetica,sans-Serif" font-size="10.00">ostream</text>
</g>
<!-- Node15&#45;&gt;Node16 -->
<g id="edge32" class="edge"><title>Node15&#45;&gt;Node16</title>
<path fill="none" stroke="midnightblue" d="M786.105,-58.3619C795.688,-49.9408 809.264,-38.0105 820.393,-28.2308"/>
<polygon fill="midnightblue" stroke="midnightblue" points="822.77,-30.8009 827.971,-21.5707 818.149,-25.5427 822.77,-30.8009"/>
</g>
</g>
</svg>
