<?xml version="1.0" encoding="UTF-8" standalone="no"?>
<!DOCTYPE svg PUBLIC "-//W3C//DTD SVG 1.1//EN"
 "http://www.w3.org/Graphics/SVG/1.1/DTD/svg11.dtd">
<!-- Generated by graphviz version 2.26.3 (20100126.1600)
 -->
<!-- Title: src/analysis/utils/TimeSmearingHack.cc Pages: 1 -->
<svg width="1339pt" height="464pt"
 viewBox="0.00 0.00 1339.39 464.00" xmlns="http://www.w3.org/2000/svg" xmlns:xlink="http://www.w3.org/1999/xlink">
<g id="graph1" class="graph" transform="scale(1 1) rotate(0) translate(4 460)">
<title>src/analysis/utils/TimeSmearingHack.cc</title>
<polygon fill="white" stroke="white" points="-4,5 -4,-460 1336.39,-460 1336.39,5 -4,5"/>
<!-- Node1 -->
<g id="node1" class="node"><title>Node1</title>
<polygon fill="#bfbfbf" stroke="black" points="711.893,-421 711.893,-455 830.893,-455 830.893,-421 711.893,-421"/>
<text text-anchor="start" x="719.893" y="-442" font-family="Helvetica,sans-Serif" font-size="10.00">src/analysis/utils</text>
<text text-anchor="middle" x="771.393" y="-429" font-family="Helvetica,sans-Serif" font-size="10.00">/TimeSmearingHack.cc</text>
</g>
<!-- Node2 -->
<g id="node3" class="node"><title>Node2</title>
<a xlink:href="_time_smearing_hack_8h.html" target="_top" xlink:title="TimeSmearingHack.h">
<polygon fill="white" stroke="black" points="608.893,-362.5 608.893,-383.5 719.893,-383.5 719.893,-362.5 608.893,-362.5"/>
<text text-anchor="middle" x="664.393" y="-370.5" font-family="Helvetica,sans-Serif" font-size="10.00">TimeSmearingHack.h</text>
</a>
</g>
<!-- Node1&#45;&gt;Node2 -->
<g id="edge2" class="edge"><title>Node1&#45;&gt;Node2</title>
<path fill="none" stroke="midnightblue" d="M743.28,-420.922C727.027,-411.049 706.706,-398.704 690.759,-389.016"/>
<polygon fill="midnightblue" stroke="midnightblue" points="692.302,-385.859 681.938,-383.658 688.668,-391.842 692.302,-385.859"/>
</g>
<!-- Node34 -->
<g id="node97" class="node"><title>Node34</title>
<polygon fill="white" stroke="#bfbfbf" points="737.393,-362.5 737.393,-383.5 805.393,-383.5 805.393,-362.5 737.393,-362.5"/>
<text text-anchor="middle" x="771.393" y="-370.5" font-family="Helvetica,sans-Serif" font-size="10.00">TRandom.h</text>
</g>
<!-- Node1&#45;&gt;Node34 -->
<g id="edge126" class="edge"><title>Node1&#45;&gt;Node34</title>
<path fill="none" stroke="midnightblue" d="M771.393,-420.922C771.393,-412.67 771.393,-402.692 771.393,-393.982"/>
<polygon fill="midnightblue" stroke="midnightblue" points="774.893,-393.852 771.393,-383.852 767.893,-393.852 774.893,-393.852"/>
</g>
<!-- Node35 -->
<g id="node99" class="node"><title>Node35</title>
<a xlink:href="_logger_8h.html" target="_top" xlink:title="base/Logger.h">
<polygon fill="white" stroke="black" points="823.393,-362.5 823.393,-383.5 901.393,-383.5 901.393,-362.5 823.393,-362.5"/>
<text text-anchor="middle" x="862.393" y="-370.5" font-family="Helvetica,sans-Serif" font-size="10.00">base/Logger.h</text>
</a>
</g>
<!-- Node1&#45;&gt;Node35 -->
<g id="edge128" class="edge"><title>Node1&#45;&gt;Node35</title>
<path fill="none" stroke="midnightblue" d="M795.302,-420.922C808.866,-411.233 825.763,-399.165 839.206,-389.562"/>
<polygon fill="midnightblue" stroke="midnightblue" points="841.368,-392.319 847.471,-383.658 837.3,-386.623 841.368,-392.319"/>
</g>
<!-- Node3 -->
<g id="node5" class="node"><title>Node3</title>
<a xlink:href="_t_tagger_hit_8h.html" target="_top" xlink:title="tree/TTaggerHit.h">
<polygon fill="white" stroke="black" points="656.893,-304.5 656.893,-325.5 749.893,-325.5 749.893,-304.5 656.893,-304.5"/>
<text text-anchor="middle" x="703.393" y="-312.5" font-family="Helvetica,sans-Serif" font-size="10.00">tree/TTaggerHit.h</text>
</a>
</g>
<!-- Node2&#45;&gt;Node3 -->
<g id="edge4" class="edge"><title>Node2&#45;&gt;Node3</title>
<path fill="none" stroke="midnightblue" d="M671.546,-362.362C676.879,-354.431 684.304,-343.389 690.644,-333.961"/>
<polygon fill="midnightblue" stroke="midnightblue" points="693.61,-335.822 696.285,-325.571 687.801,-331.916 693.61,-335.822"/>
</g>
<!-- Node26 -->
<g id="node59" class="node"><title>Node26</title>
<a xlink:href="_t_candidate_8h.html" target="_top" xlink:title="tree/TCandidate.h">
<polygon fill="white" stroke="black" points="484.893,-304.5 484.893,-325.5 579.893,-325.5 579.893,-304.5 484.893,-304.5"/>
<text text-anchor="middle" x="532.393" y="-312.5" font-family="Helvetica,sans-Serif" font-size="10.00">tree/TCandidate.h</text>
</a>
</g>
<!-- Node2&#45;&gt;Node26 -->
<g id="edge66" class="edge"><title>Node2&#45;&gt;Node26</title>
<path fill="none" stroke="midnightblue" d="M640.489,-362.497C619.594,-353.315 589.037,-339.889 565.738,-329.652"/>
<polygon fill="midnightblue" stroke="midnightblue" points="567.129,-326.44 556.566,-325.621 564.313,-332.848 567.129,-326.44"/>
</g>
<!-- Node4 -->
<g id="node7" class="node"><title>Node4</title>
<a xlink:href="_t_i_d_8h.html" target="_top" xlink:title="TID.h">
<polygon fill="white" stroke="black" points="909.893,-246.5 909.893,-267.5 950.893,-267.5 950.893,-246.5 909.893,-246.5"/>
<text text-anchor="middle" x="930.393" y="-254.5" font-family="Helvetica,sans-Serif" font-size="10.00">TID.h</text>
</a>
</g>
<!-- Node3&#45;&gt;Node4 -->
<g id="edge6" class="edge"><title>Node3&#45;&gt;Node4</title>
<path fill="none" stroke="midnightblue" d="M744.501,-304.497C789.281,-293.055 859.864,-275.021 899.938,-264.781"/>
<polygon fill="midnightblue" stroke="midnightblue" points="900.85,-268.161 909.673,-262.294 899.117,-261.379 900.85,-268.161"/>
</g>
<!-- Node6 -->
<g id="node11" class="node"><title>Node6</title>
<a xlink:href="printable_8h.html" target="_top" xlink:title="base/printable.h">
<polygon fill="white" stroke="black" points="1030.39,-58.5 1030.39,-79.5 1116.39,-79.5 1116.39,-58.5 1030.39,-58.5"/>
<text text-anchor="middle" x="1073.39" y="-66.5" font-family="Helvetica,sans-Serif" font-size="10.00">base/printable.h</text>
</a>
</g>
<!-- Node3&#45;&gt;Node6 -->
<g id="edge46" class="edge"><title>Node3&#45;&gt;Node6</title>
<path fill="none" stroke="midnightblue" d="M750.099,-309.558C877.552,-294.241 1224.01,-249.319 1256.39,-210 1283.49,-177.099 1268.09,-145.569 1237.39,-116 1221.43,-100.624 1168.08,-87.1631 1126.51,-78.6328"/>
<polygon fill="midnightblue" stroke="midnightblue" points="1126.99,-75.1592 1116.5,-76.625 1125.62,-82.0226 1126.99,-75.1592"/>
</g>
<!-- Node7 -->
<g id="node13" class="node"><title>Node7</title>
<polygon fill="white" stroke="#bfbfbf" points="709.393,-0.5 709.393,-21.5 753.393,-21.5 753.393,-0.5 709.393,-0.5"/>
<text text-anchor="middle" x="731.393" y="-8.5" font-family="Helvetica,sans-Serif" font-size="10.00">vector</text>
</g>
<!-- Node3&#45;&gt;Node7 -->
<g id="edge60" class="edge"><title>Node3&#45;&gt;Node7</title>
<path fill="none" stroke="midnightblue" d="M750.224,-309.428C764.994,-307.679 781.374,-305.749 796.393,-304 917.044,-289.949 1331.39,-313.466 1331.39,-192 1331.39,-192 1331.39,-192 1331.39,-127 1331.39,-68.6248 887.934,-24.8854 763.507,-13.7619"/>
<polygon fill="midnightblue" stroke="midnightblue" points="763.729,-10.2679 753.459,-12.8728 763.112,-17.2407 763.729,-10.2679"/>
</g>
<!-- Node12 -->
<g id="node23" class="node"><title>Node12</title>
<polygon fill="white" stroke="#bfbfbf" points="568.393,-58.5 568.393,-79.5 620.393,-79.5 620.393,-58.5 568.393,-58.5"/>
<text text-anchor="middle" x="594.393" y="-66.5" font-family="Helvetica,sans-Serif" font-size="10.00">sstream</text>
</g>
<!-- Node3&#45;&gt;Node12 -->
<g id="edge64" class="edge"><title>Node3&#45;&gt;Node12</title>
<path fill="none" stroke="midnightblue" d="M698.71,-304.43C682.009,-266.738 625.202,-138.532 603.199,-88.8743"/>
<polygon fill="midnightblue" stroke="midnightblue" points="606.31,-87.2558 599.059,-79.5309 599.91,-90.0915 606.31,-87.2558"/>
</g>
<!-- Node21 -->
<g id="node42" class="node"><title>Node21</title>
<polygon fill="white" stroke="#bfbfbf" points="579.393,-181.5 579.393,-202.5 629.393,-202.5 629.393,-181.5 579.393,-181.5"/>
<text text-anchor="middle" x="604.393" y="-189.5" font-family="Helvetica,sans-Serif" font-size="10.00">iomanip</text>
</g>
<!-- Node3&#45;&gt;Node21 -->
<g id="edge62" class="edge"><title>Node3&#45;&gt;Node21</title>
<path fill="none" stroke="midnightblue" d="M694.608,-304.085C677.686,-283.061 640.398,-236.733 619.444,-210.7"/>
<polygon fill="midnightblue" stroke="midnightblue" points="622.014,-208.311 613.018,-202.715 616.561,-212.7 622.014,-208.311"/>
</g>
<!-- Node22 -->
<g id="node46" class="node"><title>Node22</title>
<a xlink:href="_lorentz_vec_8h.html" target="_top" xlink:title="base/vec/LorentzVec.h">
<polygon fill="white" stroke="black" points="56.8931,-246.5 56.8931,-267.5 173.893,-267.5 173.893,-246.5 56.8931,-246.5"/>
<text text-anchor="middle" x="115.393" y="-254.5" font-family="Helvetica,sans-Serif" font-size="10.00">base/vec/LorentzVec.h</text>
</a>
</g>
<!-- Node3&#45;&gt;Node22 -->
<g id="edge48" class="edge"><title>Node3&#45;&gt;Node22</title>
<path fill="none" stroke="midnightblue" d="M656.762,-310.4C553.563,-300.221 305.426,-275.745 184.277,-263.795"/>
<polygon fill="midnightblue" stroke="midnightblue" points="184.31,-260.281 174.015,-262.782 183.623,-267.247 184.31,-260.281"/>
</g>
<!-- Node5 -->
<g id="node9" class="node"><title>Node5</title>
<polygon fill="white" stroke="#bfbfbf" points="1171.39,-181.5 1171.39,-202.5 1227.39,-202.5 1227.39,-181.5 1171.39,-181.5"/>
<text text-anchor="middle" x="1199.39" y="-189.5" font-family="Helvetica,sans-Serif" font-size="10.00">Rtypes.h</text>
</g>
<!-- Node4&#45;&gt;Node5 -->
<g id="edge8" class="edge"><title>Node4&#45;&gt;Node5</title>
<path fill="none" stroke="midnightblue" d="M951.093,-254.139C991.427,-248.254 1083.1,-233.35 1157.39,-210 1160.75,-208.945 1164.2,-207.716 1167.62,-206.404"/>
<polygon fill="midnightblue" stroke="midnightblue" points="1169.1,-209.58 1177.04,-202.564 1166.46,-203.098 1169.1,-209.58"/>
</g>
<!-- Node4&#45;&gt;Node6 -->
<g id="edge10" class="edge"><title>Node4&#45;&gt;Node6</title>
<path fill="none" stroke="midnightblue" d="M951.349,-255.344C1017.36,-249.919 1217.71,-231.771 1236.39,-210 1264.33,-177.439 1245.35,-145.715 1214.39,-116 1190.75,-93.3012 1155.85,-81.5566 1126.7,-75.4841"/>
<polygon fill="midnightblue" stroke="midnightblue" points="1127.13,-72.0034 1116.65,-73.564 1125.81,-78.879 1127.13,-72.0034"/>
</g>
<!-- Node9 -->
<g id="node17" class="node"><title>Node9</title>
<a xlink:href="time_8h.html" target="_top" xlink:title="base/std_ext/time.h">
<polygon fill="white" stroke="black" points="1012.89,-181.5 1012.89,-202.5 1115.89,-202.5 1115.89,-181.5 1012.89,-181.5"/>
<text text-anchor="middle" x="1064.39" y="-189.5" font-family="Helvetica,sans-Serif" font-size="10.00">base/std_ext/time.h</text>
</a>
</g>
<!-- Node4&#45;&gt;Node9 -->
<g id="edge16" class="edge"><title>Node4&#45;&gt;Node9</title>
<path fill="none" stroke="midnightblue" d="M951.037,-246.986C973.04,-236.313 1008.13,-219.294 1033.44,-207.015"/>
<polygon fill="midnightblue" stroke="midnightblue" points="1035.14,-210.078 1042.61,-202.565 1032.09,-203.78 1035.14,-210.078"/>
</g>
<!-- Node15 -->
<g id="node30" class="node"><title>Node15</title>
<polygon fill="white" stroke="#bfbfbf" points="1164.89,-116.5 1164.89,-137.5 1205.89,-137.5 1205.89,-116.5 1164.89,-116.5"/>
<text text-anchor="middle" x="1185.39" y="-124.5" font-family="Helvetica,sans-Serif" font-size="10.00">ctime</text>
</g>
<!-- Node4&#45;&gt;Node15 -->
<g id="edge44" class="edge"><title>Node4&#45;&gt;Node15</title>
<path fill="none" stroke="midnightblue" d="M951.025,-253.837C994.893,-246.82 1095.76,-229.06 1124.39,-210 1148.22,-194.135 1166.11,-165.653 1176.16,-146.539"/>
<polygon fill="midnightblue" stroke="midnightblue" points="1179.33,-148.021 1180.69,-137.514 1173.08,-144.879 1179.33,-148.021"/>
</g>
<!-- Node16 -->
<g id="node32" class="node"><title>Node16</title>
<polygon fill="white" stroke="#bfbfbf" points="641.393,-116.5 641.393,-137.5 703.393,-137.5 703.393,-116.5 641.393,-116.5"/>
<text text-anchor="middle" x="672.393" y="-124.5" font-family="Helvetica,sans-Serif" font-size="10.00">type_traits</text>
</g>
<!-- Node4&#45;&gt;Node16 -->
<g id="edge32" class="edge"><title>Node4&#45;&gt;Node16</title>
<path fill="none" stroke="midnightblue" d="M909.708,-254.774C861.814,-249.267 745.055,-233.713 714.393,-210 694.223,-194.401 682.956,-166.471 677.283,-147.354"/>
<polygon fill="midnightblue" stroke="midnightblue" points="680.615,-146.265 674.625,-137.526 673.858,-148.093 680.615,-146.265"/>
</g>
<!-- Node17 -->
<g id="node34" class="node"><title>Node17</title>
<polygon fill="white" stroke="#bfbfbf" points="911.393,-181.5 911.393,-202.5 949.393,-202.5 949.393,-181.5 911.393,-181.5"/>
<text text-anchor="middle" x="930.393" y="-189.5" font-family="Helvetica,sans-Serif" font-size="10.00">tuple</text>
</g>
<!-- Node4&#45;&gt;Node17 -->
<g id="edge34" class="edge"><title>Node4&#45;&gt;Node17</title>
<path fill="none" stroke="midnightblue" d="M930.393,-246.267C930.393,-237.18 930.393,-223.892 930.393,-212.74"/>
<polygon fill="midnightblue" stroke="midnightblue" points="933.893,-212.534 930.393,-202.534 926.893,-212.534 933.893,-212.534"/>
</g>
<!-- Node18 -->
<g id="node36" class="node"><title>Node18</title>
<polygon fill="white" stroke="#bfbfbf" points="797.393,-116.5 797.393,-137.5 843.393,-137.5 843.393,-116.5 797.393,-116.5"/>
<text text-anchor="middle" x="820.393" y="-124.5" font-family="Helvetica,sans-Serif" font-size="10.00">cstdint</text>
</g>
<!-- Node4&#45;&gt;Node18 -->
<g id="edge36" class="edge"><title>Node4&#45;&gt;Node18</title>
<path fill="none" stroke="midnightblue" d="M920.875,-246.236C912.518,-236.75 900.064,-222.53 889.393,-210 870.667,-188.011 849.477,-162.413 835.579,-145.522"/>
<polygon fill="midnightblue" stroke="midnightblue" points="838.08,-143.053 829.028,-137.549 832.672,-147.497 838.08,-143.053"/>
</g>
<!-- Node19 -->
<g id="node38" class="node"><title>Node19</title>
<polygon fill="white" stroke="#bfbfbf" points="860.893,-116.5 860.893,-137.5 919.893,-137.5 919.893,-116.5 860.893,-116.5"/>
<text text-anchor="middle" x="890.393" y="-124.5" font-family="Helvetica,sans-Serif" font-size="10.00">stdexcept</text>
</g>
<!-- Node4&#45;&gt;Node19 -->
<g id="edge38" class="edge"><title>Node4&#45;&gt;Node19</title>
<path fill="none" stroke="midnightblue" d="M922.414,-246.406C915.946,-237.257 907.15,-223.429 902.393,-210 895.135,-189.511 892.261,-164.69 891.127,-147.559"/>
<polygon fill="midnightblue" stroke="midnightblue" points="894.62,-147.339 890.604,-137.535 887.63,-147.704 894.62,-147.339"/>
</g>
<!-- Node20 -->
<g id="node40" class="node"><title>Node20</title>
<polygon fill="white" stroke="#bfbfbf" points="966.893,-181.5 966.893,-202.5 995.893,-202.5 995.893,-181.5 966.893,-181.5"/>
<text text-anchor="middle" x="981.393" y="-189.5" font-family="Helvetica,sans-Serif" font-size="10.00">list</text>
</g>
<!-- Node4&#45;&gt;Node20 -->
<g id="edge40" class="edge"><title>Node4&#45;&gt;Node20</title>
<path fill="none" stroke="midnightblue" d="M938.815,-246.267C946.39,-236.612 957.686,-222.215 966.74,-210.675"/>
<polygon fill="midnightblue" stroke="midnightblue" points="969.709,-212.562 973.128,-202.534 964.202,-208.241 969.709,-212.562"/>
</g>
<!-- Node4&#45;&gt;Node21 -->
<g id="edge42" class="edge"><title>Node4&#45;&gt;Node21</title>
<path fill="none" stroke="midnightblue" d="M909.674,-253.401C866.898,-245.901 765.758,-227.814 681.393,-210 667.721,-207.113 652.747,-203.676 639.669,-200.583"/>
<polygon fill="midnightblue" stroke="midnightblue" points="640.188,-197.108 629.648,-198.193 638.564,-203.917 640.188,-197.108"/>
</g>
<!-- Node6&#45;&gt;Node7 -->
<g id="edge12" class="edge"><title>Node6&#45;&gt;Node7</title>
<path fill="none" stroke="midnightblue" d="M1030.08,-61.6543C960.415,-49.8399 825.064,-26.8857 763.395,-16.4272"/>
<polygon fill="midnightblue" stroke="midnightblue" points="763.903,-12.9635 753.458,-14.7421 762.732,-19.8649 763.903,-12.9635"/>
</g>
<!-- Node8 -->
<g id="node15" class="node"><title>Node8</title>
<polygon fill="white" stroke="#bfbfbf" points="1047.39,-0.5 1047.39,-21.5 1099.39,-21.5 1099.39,-0.5 1047.39,-0.5"/>
<text text-anchor="middle" x="1073.39" y="-8.5" font-family="Helvetica,sans-Serif" font-size="10.00">ostream</text>
</g>
<!-- Node6&#45;&gt;Node8 -->
<g id="edge14" class="edge"><title>Node6&#45;&gt;Node8</title>
<path fill="none" stroke="midnightblue" d="M1073.39,-58.3619C1073.39,-50.9219 1073.39,-40.7427 1073.39,-31.7276"/>
<polygon fill="midnightblue" stroke="midnightblue" points="1076.89,-31.5706 1073.39,-21.5707 1069.89,-31.5707 1076.89,-31.5706"/>
</g>
<!-- Node10 -->
<g id="node19" class="node"><title>Node10</title>
<a xlink:href="string_8h.html" target="_top" xlink:title="base/std_ext/string.h">
<polygon fill="white" stroke="black" points="937.393,-116.5 937.393,-137.5 1045.39,-137.5 1045.39,-116.5 937.393,-116.5"/>
<text text-anchor="middle" x="991.393" y="-124.5" font-family="Helvetica,sans-Serif" font-size="10.00">base/std_ext/string.h</text>
</a>
</g>
<!-- Node9&#45;&gt;Node10 -->
<g id="edge18" class="edge"><title>Node9&#45;&gt;Node10</title>
<path fill="none" stroke="midnightblue" d="M1052.34,-181.267C1041.07,-171.233 1024.05,-156.078 1010.86,-144.331"/>
<polygon fill="midnightblue" stroke="midnightblue" points="1013.02,-141.57 1003.22,-137.534 1008.36,-146.798 1013.02,-141.57"/>
</g>
<!-- Node14 -->
<g id="node28" class="node"><title>Node14</title>
<polygon fill="white" stroke="#bfbfbf" points="1101.39,-116.5 1101.39,-137.5 1147.39,-137.5 1147.39,-116.5 1101.39,-116.5"/>
<text text-anchor="middle" x="1124.39" y="-124.5" font-family="Helvetica,sans-Serif" font-size="10.00">cstring</text>
</g>
<!-- Node9&#45;&gt;Node14 -->
<g id="edge28" class="edge"><title>Node9&#45;&gt;Node14</title>
<path fill="none" stroke="midnightblue" d="M1074.3,-181.267C1083.39,-171.423 1097.03,-156.648 1107.78,-145"/>
<polygon fill="midnightblue" stroke="midnightblue" points="1110.46,-147.256 1114.67,-137.534 1105.32,-142.508 1110.46,-147.256"/>
</g>
<!-- Node9&#45;&gt;Node15 -->
<g id="edge30" class="edge"><title>Node9&#45;&gt;Node15</title>
<path fill="none" stroke="midnightblue" d="M1084.1,-181.412C1103.79,-170.836 1134.27,-154.465 1156.65,-142.441"/>
<polygon fill="midnightblue" stroke="midnightblue" points="1158.54,-145.399 1165.69,-137.584 1155.23,-139.233 1158.54,-145.399"/>
</g>
<!-- Node10&#45;&gt;Node7 -->
<g id="edge26" class="edge"><title>Node10&#45;&gt;Node7</title>
<path fill="none" stroke="midnightblue" d="M970.92,-116.465C943.518,-102.501 893.274,-77.3693 849.393,-58 820.621,-45.2998 787.282,-32.1624 763.395,-23.0171"/>
<polygon fill="midnightblue" stroke="midnightblue" points="764.369,-19.6427 753.778,-19.355 761.878,-26.1845 764.369,-19.6427"/>
</g>
<!-- Node11 -->
<g id="node21" class="node"><title>Node11</title>
<polygon fill="white" stroke="#bfbfbf" points="799.893,-58.5 799.893,-79.5 840.893,-79.5 840.893,-58.5 799.893,-58.5"/>
<text text-anchor="middle" x="820.393" y="-66.5" font-family="Helvetica,sans-Serif" font-size="10.00">string</text>
</g>
<!-- Node10&#45;&gt;Node11 -->
<g id="edge20" class="edge"><title>Node10&#45;&gt;Node11</title>
<path fill="none" stroke="midnightblue" d="M960.426,-116.497C929.297,-105.938 881.615,-89.7654 850.717,-79.2851"/>
<polygon fill="midnightblue" stroke="midnightblue" points="851.524,-75.8631 840.929,-75.9655 849.275,-82.4922 851.524,-75.8631"/>
</g>
<!-- Node10&#45;&gt;Node12 -->
<g id="edge22" class="edge"><title>Node10&#45;&gt;Node12</title>
<path fill="none" stroke="midnightblue" d="M937.116,-117.406C934.167,-116.921 931.245,-116.449 928.393,-116 820.127,-98.9354 691.631,-81.6994 630.363,-73.6648"/>
<polygon fill="midnightblue" stroke="midnightblue" points="630.791,-70.1911 620.421,-72.3646 629.883,-77.132 630.791,-70.1911"/>
</g>
<!-- Node13 -->
<g id="node25" class="node"><title>Node13</title>
<polygon fill="white" stroke="#bfbfbf" points="305.393,-58.5 305.393,-79.5 361.393,-79.5 361.393,-58.5 305.393,-58.5"/>
<text text-anchor="middle" x="333.393" y="-66.5" font-family="Helvetica,sans-Serif" font-size="10.00">algorithm</text>
</g>
<!-- Node10&#45;&gt;Node13 -->
<g id="edge24" class="edge"><title>Node10&#45;&gt;Node13</title>
<path fill="none" stroke="midnightblue" d="M937.146,-117.195C934.189,-116.765 931.257,-116.362 928.393,-116 719.285,-89.5451 466.829,-75.4576 371.931,-70.7861"/>
<polygon fill="midnightblue" stroke="midnightblue" points="371.831,-67.2772 361.673,-70.2878 371.491,-74.269 371.831,-67.2772"/>
</g>
<!-- Node23 -->
<g id="node48" class="node"><title>Node23</title>
<a xlink:href="vec3_8h.html" target="_top" xlink:title="base/vec/vec3.h">
<polygon fill="white" stroke="black" points="160.893,-116.5 160.893,-137.5 249.893,-137.5 249.893,-116.5 160.893,-116.5"/>
<text text-anchor="middle" x="205.393" y="-124.5" font-family="Helvetica,sans-Serif" font-size="10.00">base/vec/vec3.h</text>
</a>
</g>
<!-- Node22&#45;&gt;Node23 -->
<g id="edge50" class="edge"><title>Node22&#45;&gt;Node23</title>
<path fill="none" stroke="midnightblue" d="M122.758,-246.362C137.921,-224.46 172.811,-174.062 192.052,-146.27"/>
<polygon fill="midnightblue" stroke="midnightblue" points="195.112,-148 197.926,-137.785 189.356,-144.015 195.112,-148"/>
</g>
<!-- Node23&#45;&gt;Node6 -->
<g id="edge52" class="edge"><title>Node23&#45;&gt;Node6</title>
<path fill="none" stroke="midnightblue" d="M250.15,-122.945C274.962,-120.757 306.374,-118.085 334.393,-116 591.012,-96.9007 898.13,-78.9346 1019.89,-72.0063"/>
<polygon fill="midnightblue" stroke="midnightblue" points="1020.27,-75.4903 1030.06,-71.4289 1019.87,-68.5016 1020.27,-75.4903"/>
</g>
<!-- Node24 -->
<g id="node51" class="node"><title>Node24</title>
<a xlink:href="vec2_8h.html" target="_top" xlink:title="vec2.h">
<polygon fill="white" stroke="black" points="81.3931,-58.5 81.3931,-79.5 127.393,-79.5 127.393,-58.5 81.3931,-58.5"/>
<text text-anchor="middle" x="104.393" y="-66.5" font-family="Helvetica,sans-Serif" font-size="10.00">vec2.h</text>
</a>
</g>
<!-- Node23&#45;&gt;Node24 -->
<g id="edge54" class="edge"><title>Node23&#45;&gt;Node24</title>
<path fill="none" stroke="midnightblue" d="M186.868,-116.362C171.492,-107.532 149.397,-94.844 131.946,-84.8224"/>
<polygon fill="midnightblue" stroke="midnightblue" points="133.215,-81.5154 122.801,-79.5707 129.729,-87.5857 133.215,-81.5154"/>
</g>
<!-- Node25 -->
<g id="node53" class="node"><title>Node25</title>
<polygon fill="white" stroke="#bfbfbf" points="29.3931,-0.5 29.3931,-21.5 73.3931,-21.5 73.3931,-0.5 29.3931,-0.5"/>
<text text-anchor="middle" x="51.3931" y="-8.5" font-family="Helvetica,sans-Serif" font-size="10.00">cmath</text>
</g>
<!-- Node23&#45;&gt;Node25 -->
<g id="edge58" class="edge"><title>Node23&#45;&gt;Node25</title>
<path fill="none" stroke="midnightblue" d="M196.369,-116.25C183.895,-101.82 160.215,-75.9315 136.393,-58 119.838,-45.5383 99.5911,-34.2108 83.0113,-25.8"/>
<polygon fill="midnightblue" stroke="midnightblue" points="84.2428,-22.504 73.7287,-21.1983 81.1337,-28.7757 84.2428,-22.504"/>
</g>
<!-- Node24&#45;&gt;Node25 -->
<g id="edge56" class="edge"><title>Node24&#45;&gt;Node25</title>
<path fill="none" stroke="midnightblue" d="M94.6721,-58.3619C87.2011,-50.1861 76.7074,-38.7025 67.9242,-29.0907"/>
<polygon fill="midnightblue" stroke="midnightblue" points="70.382,-26.5918 61.0525,-21.5707 65.2145,-31.3138 70.382,-26.5918"/>
</g>
<!-- Node26&#45;&gt;Node7 -->
<g id="edge116" class="edge"><title>Node26&#45;&gt;Node7</title>
<path fill="none" stroke="midnightblue" d="M484.545,-312.999C369.384,-307.813 83.667,-292.597 48.3931,-268 12.6362,-243.066 11.2757,-216.628 20.3931,-174 32.21,-118.751 26.0934,-90.3796 72.3931,-58 124.11,-21.8316 573.97,-13.1141 699.175,-11.38"/>
<polygon fill="midnightblue" stroke="midnightblue" points="699.325,-14.8784 709.278,-11.2457 699.232,-7.87904 699.325,-14.8784"/>
</g>
<!-- Node26&#45;&gt;Node12 -->
<g id="edge120" class="edge"><title>Node26&#45;&gt;Node12</title>
<path fill="none" stroke="midnightblue" d="M535.057,-304.43C544.517,-266.896 576.599,-139.604 589.226,-89.5018"/>
<polygon fill="midnightblue" stroke="midnightblue" points="592.689,-90.0831 591.739,-79.5309 585.901,-88.3723 592.689,-90.0831"/>
</g>
<!-- Node26&#45;&gt;Node13 -->
<g id="edge124" class="edge"><title>Node26&#45;&gt;Node13</title>
<path fill="none" stroke="midnightblue" d="M484.763,-311.561C395.692,-302.11 207.894,-267.031 152.393,-138 148.53,-129.018 146.411,-123.734 152.393,-116 169.696,-93.6305 247.274,-79.9404 295.076,-73.4764"/>
<polygon fill="midnightblue" stroke="midnightblue" points="295.619,-76.9353 305.082,-72.1697 294.713,-69.9942 295.619,-76.9353"/>
</g>
<!-- Node26&#45;&gt;Node21 -->
<g id="edge118" class="edge"><title>Node26&#45;&gt;Node21</title>
<path fill="none" stroke="midnightblue" d="M540.429,-304.455C547.396,-295.111 557.561,-280.974 565.393,-268 576.585,-249.462 587.697,-227.346 595.18,-211.765"/>
<polygon fill="midnightblue" stroke="midnightblue" points="598.416,-213.108 599.537,-202.573 592.091,-210.11 598.416,-213.108"/>
</g>
<!-- Node27 -->
<g id="node61" class="node"><title>Node27</title>
<a xlink:href="_t_cluster_8h.html" target="_top" xlink:title="TCluster.h">
<polygon fill="white" stroke="black" points="366.393,-246.5 366.393,-267.5 428.393,-267.5 428.393,-246.5 366.393,-246.5"/>
<text text-anchor="middle" x="397.393" y="-254.5" font-family="Helvetica,sans-Serif" font-size="10.00">TCluster.h</text>
</a>
</g>
<!-- Node26&#45;&gt;Node27 -->
<g id="edge68" class="edge"><title>Node26&#45;&gt;Node27</title>
<path fill="none" stroke="midnightblue" d="M507.946,-304.497C486.575,-295.315 455.324,-281.889 431.496,-271.652"/>
<polygon fill="midnightblue" stroke="midnightblue" points="432.684,-268.353 422.115,-267.621 429.921,-274.784 432.684,-268.353"/>
</g>
<!-- Node28 -->
<g id="node63" class="node"><title>Node28</title>
<a xlink:href="_detector__t_8h.html" target="_top" xlink:title="base/Detector_t.h">
<polygon fill="white" stroke="black" points="722.893,-181.5 722.893,-202.5 817.893,-202.5 817.893,-181.5 722.893,-181.5"/>
<text text-anchor="middle" x="770.393" y="-189.5" font-family="Helvetica,sans-Serif" font-size="10.00">base/Detector_t.h</text>
</a>
</g>
<!-- Node26&#45;&gt;Node28 -->
<g id="edge114" class="edge"><title>Node26&#45;&gt;Node28</title>
<path fill="none" stroke="midnightblue" d="M553.098,-304.3C595.402,-282.437 691.876,-232.578 740.788,-207.3"/>
<polygon fill="midnightblue" stroke="midnightblue" points="742.629,-210.289 749.906,-202.588 739.415,-204.07 742.629,-210.289"/>
</g>
<!-- Node32 -->
<g id="node80" class="node"><title>Node32</title>
<polygon fill="white" stroke="#bfbfbf" points="457.393,-116.5 457.393,-137.5 509.393,-137.5 509.393,-116.5 457.393,-116.5"/>
<text text-anchor="middle" x="483.393" y="-124.5" font-family="Helvetica,sans-Serif" font-size="10.00">memory</text>
</g>
<!-- Node26&#45;&gt;Node32 -->
<g id="edge122" class="edge"><title>Node26&#45;&gt;Node32</title>
<path fill="none" stroke="midnightblue" d="M529.618,-304.354C521.735,-274.107 499.106,-187.285 488.72,-147.437"/>
<polygon fill="midnightblue" stroke="midnightblue" points="492.047,-146.324 486.138,-137.53 485.273,-148.089 492.047,-146.324"/>
</g>
<!-- Node27&#45;&gt;Node7 -->
<g id="edge104" class="edge"><title>Node27&#45;&gt;Node7</title>
<path fill="none" stroke="midnightblue" d="M366.368,-251.732C342.712,-245.911 311.678,-233.972 296.393,-210 260.073,-153.039 251.263,-108.269 296.393,-58 323.237,-28.0998 602.886,-15.518 699.093,-12.0529"/>
<polygon fill="midnightblue" stroke="midnightblue" points="699.502,-15.5408 709.374,-11.6924 699.257,-8.54506 699.502,-15.5408"/>
</g>
<!-- Node27&#45;&gt;Node12 -->
<g id="edge110" class="edge"><title>Node27&#45;&gt;Node12</title>
<path fill="none" stroke="midnightblue" d="M411.305,-246.166C423.05,-236.87 440.176,-222.962 454.393,-210 500.796,-167.694 551.993,-114.262 577.705,-86.9162"/>
<polygon fill="midnightblue" stroke="midnightblue" points="580.262,-89.3068 584.545,-79.6166 575.154,-84.5204 580.262,-89.3068"/>
</g>
<!-- Node27&#45;&gt;Node21 -->
<g id="edge108" class="edge"><title>Node27&#45;&gt;Node21</title>
<path fill="none" stroke="midnightblue" d="M428.832,-247.128C466.704,-235.236 530.131,-215.319 569.488,-202.961"/>
<polygon fill="midnightblue" stroke="midnightblue" points="570.693,-206.251 579.185,-199.915 568.596,-199.572 570.693,-206.251"/>
</g>
<!-- Node27&#45;&gt;Node23 -->
<g id="edge102" class="edge"><title>Node27&#45;&gt;Node23</title>
<path fill="none" stroke="midnightblue" d="M366.33,-251.789C337.364,-245.694 294.129,-233.322 263.393,-210 241.195,-193.156 224.25,-165.35 214.563,-146.614"/>
<polygon fill="midnightblue" stroke="midnightblue" points="217.628,-144.917 210.055,-137.508 211.355,-148.023 217.628,-144.917"/>
</g>
<!-- Node27&#45;&gt;Node25 -->
<g id="edge106" class="edge"><title>Node27&#45;&gt;Node25</title>
<path fill="none" stroke="midnightblue" d="M366.244,-255.441C280.047,-250.812 43.2051,-235.832 20.3931,-210 -24.8397,-158.778 17.0589,-69.783 39.4145,-30.5422"/>
<polygon fill="midnightblue" stroke="midnightblue" points="42.5665,-32.0865 44.6122,-21.691 36.5303,-28.5419 42.5665,-32.0865"/>
</g>
<!-- Node27&#45;&gt;Node28 -->
<g id="edge70" class="edge"><title>Node27&#45;&gt;Node28</title>
<path fill="none" stroke="midnightblue" d="M428.553,-251.57C491.1,-240.67 632.771,-215.982 712.71,-202.052"/>
<polygon fill="midnightblue" stroke="midnightblue" points="713.366,-205.49 722.617,-200.326 712.165,-198.594 713.366,-205.49"/>
</g>
<!-- Node29 -->
<g id="node72" class="node"><title>Node29</title>
<a xlink:href="math_8h.html" target="_top" xlink:title="base/std_ext/math.h">
<polygon fill="white" stroke="black" points="29.3931,-181.5 29.3931,-202.5 135.393,-202.5 135.393,-181.5 29.3931,-181.5"/>
<text text-anchor="middle" x="82.3931" y="-189.5" font-family="Helvetica,sans-Serif" font-size="10.00">base/std_ext/math.h</text>
</a>
</g>
<!-- Node27&#45;&gt;Node29 -->
<g id="edge86" class="edge"><title>Node27&#45;&gt;Node29</title>
<path fill="none" stroke="midnightblue" d="M366.328,-250.59C314.655,-239.927 210.137,-218.36 143.342,-204.577"/>
<polygon fill="midnightblue" stroke="midnightblue" points="143.867,-201.111 133.366,-202.518 142.452,-207.967 143.867,-201.111"/>
</g>
<!-- Node31 -->
<g id="node77" class="node"><title>Node31</title>
<a xlink:href="shared__ptr__container_8h.html" target="_top" xlink:title="base/std_ext/shared\l_ptr_container.h">
<polygon fill="white" stroke="black" points="304.893,-175 304.893,-209 409.893,-209 409.893,-175 304.893,-175"/>
<text text-anchor="start" x="312.893" y="-196" font-family="Helvetica,sans-Serif" font-size="10.00">base/std_ext/shared</text>
<text text-anchor="middle" x="357.393" y="-183" font-family="Helvetica,sans-Serif" font-size="10.00">_ptr_container.h</text>
</a>
</g>
<!-- Node27&#45;&gt;Node31 -->
<g id="edge92" class="edge"><title>Node27&#45;&gt;Node31</title>
<path fill="none" stroke="midnightblue" d="M390.788,-246.267C386.031,-238.537 379.403,-227.766 373.305,-217.857"/>
<polygon fill="midnightblue" stroke="midnightblue" points="376.144,-215.792 367.922,-209.11 370.182,-219.461 376.144,-215.792"/>
</g>
<!-- Node27&#45;&gt;Node32 -->
<g id="edge112" class="edge"><title>Node27&#45;&gt;Node32</title>
<path fill="none" stroke="midnightblue" d="M404.431,-246.362C418.92,-224.46 452.259,-174.062 470.645,-146.27"/>
<polygon fill="midnightblue" stroke="midnightblue" points="473.66,-148.057 476.258,-137.785 467.822,-144.195 473.66,-148.057"/>
</g>
<!-- Node28&#45;&gt;Node6 -->
<g id="edge72" class="edge"><title>Node28&#45;&gt;Node6</title>
<path fill="none" stroke="midnightblue" d="M818.02,-185.729C894.324,-175.274 1037.19,-153.865 1054.39,-138 1067.62,-125.799 1071.96,-105.316 1073.24,-89.8284"/>
<polygon fill="midnightblue" stroke="midnightblue" points="1076.75,-89.7747 1073.71,-79.624 1069.75,-89.4521 1076.75,-89.7747"/>
</g>
<!-- Node28&#45;&gt;Node7 -->
<g id="edge84" class="edge"><title>Node28&#45;&gt;Node7</title>
<path fill="none" stroke="midnightblue" d="M768.128,-181.486C761.854,-152.37 744.169,-70.292 735.838,-31.6301"/>
<polygon fill="midnightblue" stroke="midnightblue" points="739.193,-30.5811 733.665,-21.5427 732.35,-32.0556 739.193,-30.5811"/>
</g>
<!-- Node28&#45;&gt;Node11 -->
<g id="edge80" class="edge"><title>Node28&#45;&gt;Node11</title>
<path fill="none" stroke="midnightblue" d="M771.677,-181.284C773.759,-166.201 778.658,-138.086 788.393,-116 792.779,-106.05 799.315,-95.9603 805.339,-87.6938"/>
<polygon fill="midnightblue" stroke="midnightblue" points="808.28,-89.6098 811.549,-79.5321 802.709,-85.3712 808.28,-89.6098"/>
</g>
<!-- Node28&#45;&gt;Node16 -->
<g id="edge82" class="edge"><title>Node28&#45;&gt;Node16</title>
<path fill="none" stroke="midnightblue" d="M754.21,-181.267C738.655,-170.949 714.934,-155.216 697.032,-143.342"/>
<polygon fill="midnightblue" stroke="midnightblue" points="698.543,-140.144 688.275,-137.534 694.674,-145.978 698.543,-140.144"/>
</g>
<!-- Node28&#45;&gt;Node18 -->
<g id="edge76" class="edge"><title>Node28&#45;&gt;Node18</title>
<path fill="none" stroke="midnightblue" d="M778.65,-181.267C786.076,-171.612 797.151,-157.215 806.028,-145.675"/>
<polygon fill="midnightblue" stroke="midnightblue" points="808.967,-147.594 812.29,-137.534 803.419,-143.326 808.967,-147.594"/>
</g>
<!-- Node28&#45;&gt;Node19 -->
<g id="edge78" class="edge"><title>Node28&#45;&gt;Node19</title>
<path fill="none" stroke="midnightblue" d="M789.94,-181.412C809.466,-170.836 839.689,-154.465 861.887,-142.441"/>
<polygon fill="midnightblue" stroke="midnightblue" points="863.728,-145.424 870.854,-137.584 860.394,-139.269 863.728,-145.424"/>
</g>
<!-- Node28&#45;&gt;Node23 -->
<g id="edge74" class="edge"><title>Node28&#45;&gt;Node23</title>
<path fill="none" stroke="midnightblue" d="M722.777,-185.186C697.693,-181.678 666.401,-177.429 638.393,-174 502.538,-157.367 342.326,-140.758 260.12,-132.455"/>
<polygon fill="midnightblue" stroke="midnightblue" points="260.308,-128.956 250.008,-131.435 259.606,-135.921 260.308,-128.956"/>
</g>
<!-- Node29&#45;&gt;Node25 -->
<g id="edge88" class="edge"><title>Node29&#45;&gt;Node25</title>
<path fill="none" stroke="midnightblue" d="M75.3364,-181.377C68.785,-170.863 59.4513,-154.056 55.3931,-138 46.1639,-101.485 47.466,-57.1868 49.3572,-31.7288"/>
<polygon fill="midnightblue" stroke="midnightblue" points="52.8458,-32.0108 50.2033,-21.7509 45.8708,-31.4193 52.8458,-32.0108"/>
</g>
<!-- Node30 -->
<g id="node75" class="node"><title>Node30</title>
<polygon fill="white" stroke="#bfbfbf" points="64.3931,-116.5 64.3931,-137.5 104.393,-137.5 104.393,-116.5 64.3931,-116.5"/>
<text text-anchor="middle" x="84.3931" y="-124.5" font-family="Helvetica,sans-Serif" font-size="10.00">limits</text>
</g>
<!-- Node29&#45;&gt;Node30 -->
<g id="edge90" class="edge"><title>Node29&#45;&gt;Node30</title>
<path fill="none" stroke="midnightblue" d="M82.7234,-181.267C83.0029,-172.18 83.4118,-158.892 83.755,-147.74"/>
<polygon fill="midnightblue" stroke="midnightblue" points="87.2597,-147.637 84.069,-137.534 80.263,-147.421 87.2597,-147.637"/>
</g>
<!-- Node31&#45;&gt;Node7 -->
<g id="edge94" class="edge"><title>Node31&#45;&gt;Node7</title>
<path fill="none" stroke="midnightblue" d="M375.636,-174.744C393.379,-158.463 421.516,-133.944 448.393,-116 494.686,-85.0937 507.581,-78.3421 559.393,-58 606.658,-39.4431 663.969,-25.3706 699.047,-17.6544"/>
<polygon fill="midnightblue" stroke="midnightblue" points="700.148,-20.9975 709.184,-15.4659 698.671,-14.1551 700.148,-20.9975"/>
</g>
<!-- Node31&#45;&gt;Node13 -->
<g id="edge100" class="edge"><title>Node31&#45;&gt;Node13</title>
<path fill="none" stroke="midnightblue" d="M347.919,-174.57C342.844,-164.26 337.094,-150.76 334.393,-138 331.06,-122.25 330.95,-104.024 331.599,-90.2597"/>
<polygon fill="midnightblue" stroke="midnightblue" points="335.116,-90.1048 332.267,-79.9001 328.13,-89.6538 335.116,-90.1048"/>
</g>
<!-- Node31&#45;&gt;Node32 -->
<g id="edge96" class="edge"><title>Node31&#45;&gt;Node32</title>
<path fill="none" stroke="midnightblue" d="M390.498,-174.922C410.084,-164.818 434.688,-152.126 453.654,-142.342"/>
<polygon fill="midnightblue" stroke="midnightblue" points="455.45,-145.354 462.732,-137.658 452.24,-139.133 455.45,-145.354"/>
</g>
<!-- Node33 -->
<g id="node82" class="node"><title>Node33</title>
<polygon fill="white" stroke="#bfbfbf" points="342.893,-116.5 342.893,-137.5 401.893,-137.5 401.893,-116.5 342.893,-116.5"/>
<text text-anchor="middle" x="372.393" y="-124.5" font-family="Helvetica,sans-Serif" font-size="10.00">functional</text>
</g>
<!-- Node31&#45;&gt;Node33 -->
<g id="edge98" class="edge"><title>Node31&#45;&gt;Node33</title>
<path fill="none" stroke="midnightblue" d="M361.334,-174.922C363.26,-166.579 365.592,-156.47 367.618,-147.692"/>
<polygon fill="midnightblue" stroke="midnightblue" points="371.05,-148.383 369.889,-137.852 364.23,-146.809 371.05,-148.383"/>
</g>
<!-- Node36 -->
<g id="node101" class="node"><title>Node36</title>
<polygon fill="white" stroke="#bfbfbf" points="804.893,-304.5 804.893,-325.5 919.893,-325.5 919.893,-304.5 804.893,-304.5"/>
<text text-anchor="middle" x="862.393" y="-312.5" font-family="Helvetica,sans-Serif" font-size="10.00">detail/easylogging++.h</text>
</g>
<!-- Node35&#45;&gt;Node36 -->
<g id="edge130" class="edge"><title>Node35&#45;&gt;Node36</title>
<path fill="none" stroke="midnightblue" d="M862.393,-362.362C862.393,-354.922 862.393,-344.743 862.393,-335.728"/>
<polygon fill="midnightblue" stroke="midnightblue" points="865.893,-335.571 862.393,-325.571 858.893,-335.571 865.893,-335.571"/>
</g>
</g>
</svg>
