<?xml version="1.0" encoding="UTF-8" standalone="no"?>
<!DOCTYPE svg PUBLIC "-//W3C//DTD SVG 1.1//EN"
 "http://www.w3.org/Graphics/SVG/1.1/DTD/svg11.dtd">
<!-- Generated by graphviz version 2.26.3 (20100126.1600)
 -->
<!-- Title: src/analysis/utils/TimeSmearingHack.h Pages: 1 -->
<svg width="1493pt" height="406pt"
 viewBox="0.00 0.00 1492.73 406.00" xmlns="http://www.w3.org/2000/svg" xmlns:xlink="http://www.w3.org/1999/xlink">
<g id="graph1" class="graph" transform="scale(1 1) rotate(0) translate(4 402)">
<title>src/analysis/utils/TimeSmearingHack.h</title>
<polygon fill="white" stroke="white" points="-4,5 -4,-402 1489.73,-402 1489.73,5 -4,5"/>
<!-- Node1 -->
<g id="node1" class="node"><title>Node1</title>
<polygon fill="#bfbfbf" stroke="black" points="729.746,-363 729.746,-397 843.746,-397 843.746,-363 729.746,-363"/>
<text text-anchor="start" x="737.746" y="-384" font-family="Helvetica,sans-Serif" font-size="10.00">src/analysis/utils</text>
<text text-anchor="middle" x="786.746" y="-371" font-family="Helvetica,sans-Serif" font-size="10.00">/TimeSmearingHack.h</text>
</g>
<!-- Node2 -->
<g id="node3" class="node"><title>Node2</title>
<a xlink:href="_t_tagger_hit_8h.html" target="_top" xlink:title="tree/TTaggerHit.h">
<polygon fill="white" stroke="black" points="537.246,-304.5 537.246,-325.5 630.246,-325.5 630.246,-304.5 537.246,-304.5"/>
<text text-anchor="middle" x="583.746" y="-312.5" font-family="Helvetica,sans-Serif" font-size="10.00">tree/TTaggerHit.h</text>
</a>
</g>
<!-- Node1&#45;&gt;Node2 -->
<g id="edge2" class="edge"><title>Node1&#45;&gt;Node2</title>
<path fill="none" stroke="midnightblue" d="M733.41,-362.922C700.02,-352.231 657.577,-338.641 626.424,-328.665"/>
<polygon fill="midnightblue" stroke="midnightblue" points="627.323,-325.278 616.732,-325.562 625.188,-331.945 627.323,-325.278"/>
</g>
<!-- Node25 -->
<g id="node57" class="node"><title>Node25</title>
<a xlink:href="_t_candidate_8h.html" target="_top" xlink:title="tree/TCandidate.h">
<polygon fill="white" stroke="black" points="943.246,-304.5 943.246,-325.5 1038.25,-325.5 1038.25,-304.5 943.246,-304.5"/>
<text text-anchor="middle" x="990.746" y="-312.5" font-family="Helvetica,sans-Serif" font-size="10.00">tree/TCandidate.h</text>
</a>
</g>
<!-- Node1&#45;&gt;Node25 -->
<g id="edge64" class="edge"><title>Node1&#45;&gt;Node25</title>
<path fill="none" stroke="midnightblue" d="M840.344,-362.922C873.899,-352.231 916.55,-338.641 947.857,-328.665"/>
<polygon fill="midnightblue" stroke="midnightblue" points="949.132,-331.933 957.597,-325.562 947.007,-325.263 949.132,-331.933"/>
</g>
<!-- Node3 -->
<g id="node5" class="node"><title>Node3</title>
<a xlink:href="_t_i_d_8h.html" target="_top" xlink:title="TID.h">
<polygon fill="white" stroke="black" points="414.246,-246.5 414.246,-267.5 455.246,-267.5 455.246,-246.5 414.246,-246.5"/>
<text text-anchor="middle" x="434.746" y="-254.5" font-family="Helvetica,sans-Serif" font-size="10.00">TID.h</text>
</a>
</g>
<!-- Node2&#45;&gt;Node3 -->
<g id="edge4" class="edge"><title>Node2&#45;&gt;Node3</title>
<path fill="none" stroke="midnightblue" d="M556.763,-304.497C530.885,-294.423 491.879,-279.24 464.968,-268.765"/>
<polygon fill="midnightblue" stroke="midnightblue" points="465.888,-265.367 455.3,-265.001 463.349,-271.89 465.888,-265.367"/>
</g>
<!-- Node5 -->
<g id="node9" class="node"><title>Node5</title>
<a xlink:href="printable_8h.html" target="_top" xlink:title="base/printable.h">
<polygon fill="white" stroke="black" points="799.746,-58.5 799.746,-79.5 885.746,-79.5 885.746,-58.5 799.746,-58.5"/>
<text text-anchor="middle" x="842.746" y="-66.5" font-family="Helvetica,sans-Serif" font-size="10.00">base/printable.h</text>
</a>
</g>
<!-- Node2&#45;&gt;Node5 -->
<g id="edge44" class="edge"><title>Node2&#45;&gt;Node5</title>
<path fill="none" stroke="midnightblue" d="M583.6,-304.455C583.752,-271.275 588.971,-168.13 645.746,-116 666.463,-96.9779 738.219,-83.3758 789.134,-75.8481"/>
<polygon fill="midnightblue" stroke="midnightblue" points="789.938,-79.2685 799.337,-74.379 788.94,-72.34 789.938,-79.2685"/>
</g>
<!-- Node6 -->
<g id="node11" class="node"><title>Node6</title>
<polygon fill="white" stroke="#bfbfbf" points="896.746,-0.5 896.746,-21.5 940.746,-21.5 940.746,-0.5 896.746,-0.5"/>
<text text-anchor="middle" x="918.746" y="-8.5" font-family="Helvetica,sans-Serif" font-size="10.00">vector</text>
</g>
<!-- Node2&#45;&gt;Node6 -->
<g id="edge58" class="edge"><title>Node2&#45;&gt;Node6</title>
<path fill="none" stroke="midnightblue" d="M537.231,-313.854C409.842,-309.464 64.7458,-288.651 64.7458,-192 64.7458,-192 64.7458,-192 64.7458,-127 64.7458,-117.358 -201.606,-142.717 350.746,-58 582.8,-22.4087 646.172,-60.5988 877.746,-22 880.608,-21.5229 883.56,-20.9323 886.506,-20.2745"/>
<polygon fill="midnightblue" stroke="midnightblue" points="887.489,-23.637 896.361,-17.8459 885.814,-16.8403 887.489,-23.637"/>
</g>
<!-- Node11 -->
<g id="node21" class="node"><title>Node11</title>
<polygon fill="white" stroke="#bfbfbf" points="359.746,-58.5 359.746,-79.5 411.746,-79.5 411.746,-58.5 359.746,-58.5"/>
<text text-anchor="middle" x="385.746" y="-66.5" font-family="Helvetica,sans-Serif" font-size="10.00">sstream</text>
</g>
<!-- Node2&#45;&gt;Node11 -->
<g id="edge62" class="edge"><title>Node2&#45;&gt;Node11</title>
<path fill="none" stroke="midnightblue" d="M537.047,-309.965C435.541,-298.086 199.435,-265.095 143.746,-210 113.507,-180.084 98.4738,-148.644 125.746,-116 153.813,-82.4041 284.566,-72.7782 349.276,-70.0548"/>
<polygon fill="midnightblue" stroke="midnightblue" points="349.583,-73.5457 359.44,-69.6612 349.312,-66.5509 349.583,-73.5457"/>
</g>
<!-- Node20 -->
<g id="node40" class="node"><title>Node20</title>
<polygon fill="white" stroke="#bfbfbf" points="730.746,-181.5 730.746,-202.5 780.746,-202.5 780.746,-181.5 730.746,-181.5"/>
<text text-anchor="middle" x="755.746" y="-189.5" font-family="Helvetica,sans-Serif" font-size="10.00">iomanip</text>
</g>
<!-- Node2&#45;&gt;Node20 -->
<g id="edge60" class="edge"><title>Node2&#45;&gt;Node20</title>
<path fill="none" stroke="midnightblue" d="M630.246,-305.956C669.646,-297.38 722.023,-283.526 736.746,-268 750.795,-253.185 754.9,-229.612 755.893,-212.646"/>
<polygon fill="midnightblue" stroke="midnightblue" points="759.393,-212.702 756.17,-202.61 752.396,-212.509 759.393,-212.702"/>
</g>
<!-- Node21 -->
<g id="node44" class="node"><title>Node21</title>
<a xlink:href="_lorentz_vec_8h.html" target="_top" xlink:title="base/vec/LorentzVec.h">
<polygon fill="white" stroke="black" points="611.246,-246.5 611.246,-267.5 728.246,-267.5 728.246,-246.5 611.246,-246.5"/>
<text text-anchor="middle" x="669.746" y="-254.5" font-family="Helvetica,sans-Serif" font-size="10.00">base/vec/LorentzVec.h</text>
</a>
</g>
<!-- Node2&#45;&gt;Node21 -->
<g id="edge46" class="edge"><title>Node2&#45;&gt;Node21</title>
<path fill="none" stroke="midnightblue" d="M599.519,-304.362C612.37,-295.696 630.731,-283.313 645.455,-273.382"/>
<polygon fill="midnightblue" stroke="midnightblue" points="647.738,-276.064 654.072,-267.571 643.824,-270.26 647.738,-276.064"/>
</g>
<!-- Node4 -->
<g id="node7" class="node"><title>Node4</title>
<polygon fill="white" stroke="#bfbfbf" points="504.746,-181.5 504.746,-202.5 560.746,-202.5 560.746,-181.5 504.746,-181.5"/>
<text text-anchor="middle" x="532.746" y="-189.5" font-family="Helvetica,sans-Serif" font-size="10.00">Rtypes.h</text>
</g>
<!-- Node3&#45;&gt;Node4 -->
<g id="edge6" class="edge"><title>Node3&#45;&gt;Node4</title>
<path fill="none" stroke="midnightblue" d="M450.928,-246.267C466.484,-235.949 490.205,-220.216 508.107,-208.342"/>
<polygon fill="midnightblue" stroke="midnightblue" points="510.465,-210.978 516.864,-202.534 506.596,-205.144 510.465,-210.978"/>
</g>
<!-- Node3&#45;&gt;Node5 -->
<g id="edge8" class="edge"><title>Node3&#45;&gt;Node5</title>
<path fill="none" stroke="midnightblue" d="M455.608,-254.85C484.571,-250.842 537.076,-239.734 569.746,-210 603.722,-179.077 576.784,-144.589 612.746,-116 639.531,-94.7063 730.134,-81.1255 789.31,-74.3008"/>
<polygon fill="midnightblue" stroke="midnightblue" points="790.062,-77.7385 799.609,-73.1444 789.281,-70.7822 790.062,-77.7385"/>
</g>
<!-- Node8 -->
<g id="node15" class="node"><title>Node8</title>
<a xlink:href="time_8h.html" target="_top" xlink:title="base/std_ext/time.h">
<polygon fill="white" stroke="black" points="168.246,-181.5 168.246,-202.5 271.246,-202.5 271.246,-181.5 168.246,-181.5"/>
<text text-anchor="middle" x="219.746" y="-189.5" font-family="Helvetica,sans-Serif" font-size="10.00">base/std_ext/time.h</text>
</a>
</g>
<!-- Node3&#45;&gt;Node8 -->
<g id="edge14" class="edge"><title>Node3&#45;&gt;Node8</title>
<path fill="none" stroke="midnightblue" d="M414.131,-250.768C379.859,-240.406 310.399,-219.407 264.471,-205.521"/>
<polygon fill="midnightblue" stroke="midnightblue" points="265.349,-202.131 254.764,-202.587 263.323,-208.831 265.349,-202.131"/>
</g>
<!-- Node14 -->
<g id="node28" class="node"><title>Node14</title>
<polygon fill="white" stroke="#bfbfbf" points="134.246,-116.5 134.246,-137.5 175.246,-137.5 175.246,-116.5 134.246,-116.5"/>
<text text-anchor="middle" x="154.746" y="-124.5" font-family="Helvetica,sans-Serif" font-size="10.00">ctime</text>
</g>
<!-- Node3&#45;&gt;Node14 -->
<g id="edge42" class="edge"><title>Node3&#45;&gt;Node14</title>
<path fill="none" stroke="midnightblue" d="M414.174,-256.651C356.22,-255.201 193.612,-247.779 159.746,-210 144.763,-193.287 146.136,-166.258 149.524,-147.609"/>
<polygon fill="midnightblue" stroke="midnightblue" points="152.966,-148.251 151.643,-137.739 146.122,-146.781 152.966,-148.251"/>
</g>
<!-- Node15 -->
<g id="node30" class="node"><title>Node15</title>
<polygon fill="white" stroke="#bfbfbf" points="498.746,-116.5 498.746,-137.5 560.746,-137.5 560.746,-116.5 498.746,-116.5"/>
<text text-anchor="middle" x="529.746" y="-124.5" font-family="Helvetica,sans-Serif" font-size="10.00">type_traits</text>
</g>
<!-- Node3&#45;&gt;Node15 -->
<g id="edge30" class="edge"><title>Node3&#45;&gt;Node15</title>
<path fill="none" stroke="midnightblue" d="M413.886,-255.027C387.501,-251.287 343.06,-240.555 322.746,-210 313.887,-196.676 312.695,-186.449 322.746,-174 368.487,-117.348 412.26,-152.867 488.397,-138.008"/>
<polygon fill="midnightblue" stroke="midnightblue" points="489.335,-141.385 498.346,-135.814 487.827,-134.549 489.335,-141.385"/>
</g>
<!-- Node16 -->
<g id="node32" class="node"><title>Node16</title>
<polygon fill="white" stroke="#bfbfbf" points="364.746,-181.5 364.746,-202.5 402.746,-202.5 402.746,-181.5 364.746,-181.5"/>
<text text-anchor="middle" x="383.746" y="-189.5" font-family="Helvetica,sans-Serif" font-size="10.00">tuple</text>
</g>
<!-- Node3&#45;&gt;Node16 -->
<g id="edge32" class="edge"><title>Node3&#45;&gt;Node16</title>
<path fill="none" stroke="midnightblue" d="M426.324,-246.267C418.749,-236.612 407.453,-222.215 398.398,-210.675"/>
<polygon fill="midnightblue" stroke="midnightblue" points="400.937,-208.241 392.011,-202.534 395.43,-212.562 400.937,-208.241"/>
</g>
<!-- Node17 -->
<g id="node34" class="node"><title>Node17</title>
<polygon fill="white" stroke="#bfbfbf" points="654.746,-116.5 654.746,-137.5 700.746,-137.5 700.746,-116.5 654.746,-116.5"/>
<text text-anchor="middle" x="677.746" y="-124.5" font-family="Helvetica,sans-Serif" font-size="10.00">cstdint</text>
</g>
<!-- Node3&#45;&gt;Node17 -->
<g id="edge34" class="edge"><title>Node3&#45;&gt;Node17</title>
<path fill="none" stroke="midnightblue" d="M413.997,-251.122C395.038,-244.523 368.131,-231.78 355.746,-210 347.837,-196.092 345.281,-186.103 355.746,-174 365.172,-163.098 564.216,-139.707 644.555,-130.669"/>
<polygon fill="midnightblue" stroke="midnightblue" points="645.082,-134.132 654.631,-129.541 644.303,-127.176 645.082,-134.132"/>
</g>
<!-- Node18 -->
<g id="node36" class="node"><title>Node18</title>
<polygon fill="white" stroke="#bfbfbf" points="718.246,-116.5 718.246,-137.5 777.246,-137.5 777.246,-116.5 718.246,-116.5"/>
<text text-anchor="middle" x="747.746" y="-124.5" font-family="Helvetica,sans-Serif" font-size="10.00">stdexcept</text>
</g>
<!-- Node3&#45;&gt;Node18 -->
<g id="edge36" class="edge"><title>Node3&#45;&gt;Node18</title>
<path fill="none" stroke="midnightblue" d="M439.311,-246.273C447.639,-228.126 467.116,-191.625 495.746,-174 575.15,-125.116 613.151,-157.149 707.984,-138.12"/>
<polygon fill="midnightblue" stroke="midnightblue" points="708.92,-141.499 717.96,-135.974 707.447,-134.656 708.92,-141.499"/>
</g>
<!-- Node19 -->
<g id="node38" class="node"><title>Node19</title>
<polygon fill="white" stroke="#bfbfbf" points="420.246,-181.5 420.246,-202.5 449.246,-202.5 449.246,-181.5 420.246,-181.5"/>
<text text-anchor="middle" x="434.746" y="-189.5" font-family="Helvetica,sans-Serif" font-size="10.00">list</text>
</g>
<!-- Node3&#45;&gt;Node19 -->
<g id="edge38" class="edge"><title>Node3&#45;&gt;Node19</title>
<path fill="none" stroke="midnightblue" d="M434.746,-246.267C434.746,-237.18 434.746,-223.892 434.746,-212.74"/>
<polygon fill="midnightblue" stroke="midnightblue" points="438.246,-212.534 434.746,-202.534 431.246,-212.534 438.246,-212.534"/>
</g>
<!-- Node3&#45;&gt;Node20 -->
<g id="edge40" class="edge"><title>Node3&#45;&gt;Node20</title>
<path fill="none" stroke="midnightblue" d="M455.314,-252.835C508.904,-241.984 653.315,-212.741 720.49,-199.139"/>
<polygon fill="midnightblue" stroke="midnightblue" points="721.476,-202.51 730.583,-197.095 720.087,-195.65 721.476,-202.51"/>
</g>
<!-- Node5&#45;&gt;Node6 -->
<g id="edge10" class="edge"><title>Node5&#45;&gt;Node6</title>
<path fill="none" stroke="midnightblue" d="M856.685,-58.3619C867.934,-49.7773 883.962,-37.5459 896.911,-27.6636"/>
<polygon fill="midnightblue" stroke="midnightblue" points="899.068,-30.4198 904.895,-21.5707 894.822,-24.8551 899.068,-30.4198"/>
</g>
<!-- Node7 -->
<g id="node13" class="node"><title>Node7</title>
<polygon fill="white" stroke="#bfbfbf" points="816.746,-0.5 816.746,-21.5 868.746,-21.5 868.746,-0.5 816.746,-0.5"/>
<text text-anchor="middle" x="842.746" y="-8.5" font-family="Helvetica,sans-Serif" font-size="10.00">ostream</text>
</g>
<!-- Node5&#45;&gt;Node7 -->
<g id="edge12" class="edge"><title>Node5&#45;&gt;Node7</title>
<path fill="none" stroke="midnightblue" d="M842.746,-58.3619C842.746,-50.9219 842.746,-40.7427 842.746,-31.7276"/>
<polygon fill="midnightblue" stroke="midnightblue" points="846.246,-31.5706 842.746,-21.5707 839.246,-31.5707 846.246,-31.5706"/>
</g>
<!-- Node9 -->
<g id="node17" class="node"><title>Node9</title>
<a xlink:href="string_8h.html" target="_top" xlink:title="base/std_ext/string.h">
<polygon fill="white" stroke="black" points="372.746,-116.5 372.746,-137.5 480.746,-137.5 480.746,-116.5 372.746,-116.5"/>
<text text-anchor="middle" x="426.746" y="-124.5" font-family="Helvetica,sans-Serif" font-size="10.00">base/std_ext/string.h</text>
</a>
</g>
<!-- Node8&#45;&gt;Node9 -->
<g id="edge16" class="edge"><title>Node8&#45;&gt;Node9</title>
<path fill="none" stroke="midnightblue" d="M253.465,-181.412C288.8,-170.316 344.447,-152.843 383.11,-140.702"/>
<polygon fill="midnightblue" stroke="midnightblue" points="384.549,-143.919 393.041,-137.584 382.452,-137.24 384.549,-143.919"/>
</g>
<!-- Node13 -->
<g id="node26" class="node"><title>Node13</title>
<polygon fill="white" stroke="#bfbfbf" points="196.746,-116.5 196.746,-137.5 242.746,-137.5 242.746,-116.5 196.746,-116.5"/>
<text text-anchor="middle" x="219.746" y="-124.5" font-family="Helvetica,sans-Serif" font-size="10.00">cstring</text>
</g>
<!-- Node8&#45;&gt;Node13 -->
<g id="edge26" class="edge"><title>Node8&#45;&gt;Node13</title>
<path fill="none" stroke="midnightblue" d="M219.746,-181.267C219.746,-172.18 219.746,-158.892 219.746,-147.74"/>
<polygon fill="midnightblue" stroke="midnightblue" points="223.246,-147.534 219.746,-137.534 216.246,-147.534 223.246,-147.534"/>
</g>
<!-- Node8&#45;&gt;Node14 -->
<g id="edge28" class="edge"><title>Node8&#45;&gt;Node14</title>
<path fill="none" stroke="midnightblue" d="M209.012,-181.267C199.074,-171.328 184.109,-156.363 172.41,-144.664"/>
<polygon fill="midnightblue" stroke="midnightblue" points="174.825,-142.13 165.279,-137.534 169.876,-147.08 174.825,-142.13"/>
</g>
<!-- Node9&#45;&gt;Node6 -->
<g id="edge24" class="edge"><title>Node9&#45;&gt;Node6</title>
<path fill="none" stroke="midnightblue" d="M458.213,-116.383C502.839,-101.634 587.265,-74.8623 660.746,-58 756.032,-36.1339 782.198,-42.6912 877.746,-22 880.746,-21.3502 883.856,-20.6207 886.959,-19.8545"/>
<polygon fill="midnightblue" stroke="midnightblue" points="887.906,-23.225 896.713,-17.3353 886.155,-16.4474 887.906,-23.225"/>
</g>
<!-- Node10 -->
<g id="node19" class="node"><title>Node10</title>
<polygon fill="white" stroke="#bfbfbf" points="669.246,-58.5 669.246,-79.5 710.246,-79.5 710.246,-58.5 669.246,-58.5"/>
<text text-anchor="middle" x="689.746" y="-66.5" font-family="Helvetica,sans-Serif" font-size="10.00">string</text>
</g>
<!-- Node9&#45;&gt;Node10 -->
<g id="edge18" class="edge"><title>Node9&#45;&gt;Node10</title>
<path fill="none" stroke="midnightblue" d="M474.373,-116.497C528.069,-104.655 613.786,-85.7517 659.198,-75.7367"/>
<polygon fill="midnightblue" stroke="midnightblue" points="660.031,-79.1372 669.043,-73.5657 658.523,-72.3015 660.031,-79.1372"/>
</g>
<!-- Node9&#45;&gt;Node11 -->
<g id="edge20" class="edge"><title>Node9&#45;&gt;Node11</title>
<path fill="none" stroke="midnightblue" d="M419.226,-116.362C413.62,-108.431 405.814,-97.3885 399.149,-87.9606"/>
<polygon fill="midnightblue" stroke="midnightblue" points="401.849,-85.7161 393.218,-79.5707 396.132,-89.7568 401.849,-85.7161"/>
</g>
<!-- Node12 -->
<g id="node23" class="node"><title>Node12</title>
<polygon fill="white" stroke="#bfbfbf" points="1316.75,-58.5 1316.75,-79.5 1372.75,-79.5 1372.75,-58.5 1316.75,-58.5"/>
<text text-anchor="middle" x="1344.75" y="-66.5" font-family="Helvetica,sans-Serif" font-size="10.00">algorithm</text>
</g>
<!-- Node9&#45;&gt;Node12 -->
<g id="edge22" class="edge"><title>Node9&#45;&gt;Node12</title>
<path fill="none" stroke="midnightblue" d="M480.983,-117.112C483.942,-116.703 486.878,-116.328 489.746,-116 651.49,-97.4992 1162.3,-76.253 1306.5,-70.5008"/>
<polygon fill="midnightblue" stroke="midnightblue" points="1306.77,-73.9928 1316.63,-70.0983 1306.5,-66.9983 1306.77,-73.9928"/>
</g>
<!-- Node22 -->
<g id="node46" class="node"><title>Node22</title>
<a xlink:href="vec3_8h.html" target="_top" xlink:title="base/vec/vec3.h">
<polygon fill="white" stroke="black" points="946.246,-116.5 946.246,-137.5 1035.25,-137.5 1035.25,-116.5 946.246,-116.5"/>
<text text-anchor="middle" x="990.746" y="-124.5" font-family="Helvetica,sans-Serif" font-size="10.00">base/vec/vec3.h</text>
</a>
</g>
<!-- Node21&#45;&gt;Node22 -->
<g id="edge48" class="edge"><title>Node21&#45;&gt;Node22</title>
<path fill="none" stroke="midnightblue" d="M673.189,-246.319C679.609,-228.24 695.219,-191.84 721.746,-174 755.937,-151.005 867.72,-137.568 935.959,-131.311"/>
<polygon fill="midnightblue" stroke="midnightblue" points="936.459,-134.781 946.108,-130.404 935.836,-127.808 936.459,-134.781"/>
</g>
<!-- Node22&#45;&gt;Node5 -->
<g id="edge50" class="edge"><title>Node22&#45;&gt;Node5</title>
<path fill="none" stroke="midnightblue" d="M963.944,-116.497C940.308,-107.234 905.645,-93.6499 879.438,-83.3793"/>
<polygon fill="midnightblue" stroke="midnightblue" points="880.436,-80.0113 869.848,-79.6212 877.882,-86.5287 880.436,-80.0113"/>
</g>
<!-- Node23 -->
<g id="node49" class="node"><title>Node23</title>
<a xlink:href="vec2_8h.html" target="_top" xlink:title="vec2.h">
<polygon fill="white" stroke="black" points="978.746,-58.5 978.746,-79.5 1024.75,-79.5 1024.75,-58.5 978.746,-58.5"/>
<text text-anchor="middle" x="1001.75" y="-66.5" font-family="Helvetica,sans-Serif" font-size="10.00">vec2.h</text>
</a>
</g>
<!-- Node22&#45;&gt;Node23 -->
<g id="edge52" class="edge"><title>Node22&#45;&gt;Node23</title>
<path fill="none" stroke="midnightblue" d="M992.763,-116.362C994.19,-108.84 996.147,-98.5187 997.871,-89.4308"/>
<polygon fill="midnightblue" stroke="midnightblue" points="1001.32,-90.0477 999.741,-79.5707 994.439,-88.7433 1001.32,-90.0477"/>
</g>
<!-- Node24 -->
<g id="node51" class="node"><title>Node24</title>
<polygon fill="white" stroke="#bfbfbf" points="1154.75,-0.5 1154.75,-21.5 1198.75,-21.5 1198.75,-0.5 1154.75,-0.5"/>
<text text-anchor="middle" x="1176.75" y="-8.5" font-family="Helvetica,sans-Serif" font-size="10.00">cmath</text>
</g>
<!-- Node22&#45;&gt;Node24 -->
<g id="edge56" class="edge"><title>Node22&#45;&gt;Node24</title>
<path fill="none" stroke="midnightblue" d="M1007.91,-116.295C1040.8,-95.7846 1112.83,-50.8594 1151.32,-26.8575"/>
<polygon fill="midnightblue" stroke="midnightblue" points="1153.26,-29.7733 1159.89,-21.5117 1149.55,-23.8337 1153.26,-29.7733"/>
</g>
<!-- Node23&#45;&gt;Node24 -->
<g id="edge54" class="edge"><title>Node23&#45;&gt;Node24</title>
<path fill="none" stroke="midnightblue" d="M1024.98,-61.298C1055.79,-51.0892 1110.27,-33.0325 1144.89,-21.5585"/>
<polygon fill="midnightblue" stroke="midnightblue" points="1146.13,-24.8352 1154.52,-18.3669 1143.92,-18.1907 1146.13,-24.8352"/>
</g>
<!-- Node25&#45;&gt;Node6 -->
<g id="edge114" class="edge"><title>Node25&#45;&gt;Node6</title>
<path fill="none" stroke="midnightblue" d="M997.716,-304.252C1021.58,-265.978 1095.23,-134.531 1033.75,-58 1013.47,-32.765 977.447,-20.9647 951.105,-15.5198"/>
<polygon fill="midnightblue" stroke="midnightblue" points="951.658,-12.0628 941.186,-13.671 950.375,-18.9443 951.658,-12.0628"/>
</g>
<!-- Node25&#45;&gt;Node11 -->
<g id="edge118" class="edge"><title>Node25&#45;&gt;Node11</title>
<path fill="none" stroke="midnightblue" d="M960.268,-304.497C870.221,-273.508 609.208,-183.996 569.746,-174 524.697,-162.589 393.644,-173.577 363.746,-138 351.822,-123.811 360.924,-103.085 370.791,-88.0549"/>
<polygon fill="midnightblue" stroke="midnightblue" points="373.904,-89.7177 376.853,-79.5416 368.202,-85.6575 373.904,-89.7177"/>
</g>
<!-- Node25&#45;&gt;Node12 -->
<g id="edge122" class="edge"><title>Node25&#45;&gt;Node12</title>
<path fill="none" stroke="midnightblue" d="M1038.65,-312.119C1150.68,-304.28 1424.49,-278.381 1479.75,-210 1486.91,-201.139 1486.07,-127.351 1477.75,-116 1466.24,-100.318 1417.82,-86.0041 1382.72,-77.3967"/>
<polygon fill="midnightblue" stroke="midnightblue" points="1383.3,-73.9372 1372.76,-75.0187 1381.67,-80.7457 1383.3,-73.9372"/>
</g>
<!-- Node25&#45;&gt;Node20 -->
<g id="edge116" class="edge"><title>Node25&#45;&gt;Node20</title>
<path fill="none" stroke="midnightblue" d="M970.47,-304.455C934.189,-285.576 855.778,-244.726 789.746,-210 788.201,-209.188 786.618,-208.354 785.02,-207.511"/>
<polygon fill="midnightblue" stroke="midnightblue" points="786.349,-204.255 775.872,-202.678 783.079,-210.444 786.349,-204.255"/>
</g>
<!-- Node26 -->
<g id="node59" class="node"><title>Node26</title>
<a xlink:href="_t_cluster_8h.html" target="_top" xlink:title="TCluster.h">
<polygon fill="white" stroke="black" points="1061.75,-246.5 1061.75,-267.5 1123.75,-267.5 1123.75,-246.5 1061.75,-246.5"/>
<text text-anchor="middle" x="1092.75" y="-254.5" font-family="Helvetica,sans-Serif" font-size="10.00">TCluster.h</text>
</a>
</g>
<!-- Node25&#45;&gt;Node26 -->
<g id="edge66" class="edge"><title>Node25&#45;&gt;Node26</title>
<path fill="none" stroke="midnightblue" d="M1009.45,-304.362C1025.13,-295.45 1047.71,-282.609 1065.41,-272.545"/>
<polygon fill="midnightblue" stroke="midnightblue" points="1067.19,-275.556 1074.16,-267.571 1063.73,-269.471 1067.19,-275.556"/>
</g>
<!-- Node27 -->
<g id="node61" class="node"><title>Node27</title>
<a xlink:href="_detector__t_8h.html" target="_top" xlink:title="base/Detector_t.h">
<polygon fill="white" stroke="black" points="798.246,-181.5 798.246,-202.5 893.246,-202.5 893.246,-181.5 798.246,-181.5"/>
<text text-anchor="middle" x="845.746" y="-189.5" font-family="Helvetica,sans-Serif" font-size="10.00">base/Detector_t.h</text>
</a>
</g>
<!-- Node25&#45;&gt;Node27 -->
<g id="edge112" class="edge"><title>Node25&#45;&gt;Node27</title>
<path fill="none" stroke="midnightblue" d="M978.132,-304.3C953.065,-283.037 896.783,-235.294 866.3,-209.436"/>
<polygon fill="midnightblue" stroke="midnightblue" points="868.324,-206.563 858.434,-202.763 863.796,-211.901 868.324,-206.563"/>
</g>
<!-- Node31 -->
<g id="node78" class="node"><title>Node31</title>
<polygon fill="white" stroke="#bfbfbf" points="1166.75,-116.5 1166.75,-137.5 1218.75,-137.5 1218.75,-116.5 1166.75,-116.5"/>
<text text-anchor="middle" x="1192.75" y="-124.5" font-family="Helvetica,sans-Serif" font-size="10.00">memory</text>
</g>
<!-- Node25&#45;&gt;Node31 -->
<g id="edge120" class="edge"><title>Node25&#45;&gt;Node31</title>
<path fill="none" stroke="midnightblue" d="M1038.46,-306.711C1067.7,-299.899 1104.76,-288.012 1132.75,-268 1159.07,-249.181 1163.56,-239.548 1176.75,-210 1185.67,-189.992 1189.63,-165.092 1191.38,-147.81"/>
<polygon fill="midnightblue" stroke="midnightblue" points="1194.88,-147.942 1192.24,-137.682 1187.9,-147.351 1194.88,-147.942"/>
</g>
<!-- Node26&#45;&gt;Node6 -->
<g id="edge102" class="edge"><title>Node26&#45;&gt;Node6</title>
<path fill="none" stroke="midnightblue" d="M1095.59,-246.444C1103.62,-214.098 1123,-115.092 1076.75,-58 1060.88,-38.4237 992.096,-23.5422 950.691,-16.1584"/>
<polygon fill="midnightblue" stroke="midnightblue" points="951.254,-12.7038 940.804,-14.4444 950.059,-19.601 951.254,-12.7038"/>
</g>
<!-- Node26&#45;&gt;Node11 -->
<g id="edge108" class="edge"><title>Node26&#45;&gt;Node11</title>
<path fill="none" stroke="midnightblue" d="M1074.83,-246.312C1028.73,-219.368 901.504,-148.505 785.746,-116 717.638,-96.8749 507.296,-78.6199 422.117,-71.808"/>
<polygon fill="midnightblue" stroke="midnightblue" points="422.141,-68.299 411.896,-70.9975 421.588,-75.2771 422.141,-68.299"/>
</g>
<!-- Node26&#45;&gt;Node20 -->
<g id="edge106" class="edge"><title>Node26&#45;&gt;Node20</title>
<path fill="none" stroke="midnightblue" d="M1061.41,-255.565C1005.52,-252.259 885.489,-241.77 789.746,-210 787.161,-209.142 784.536,-208.101 781.951,-206.956"/>
<polygon fill="midnightblue" stroke="midnightblue" points="783.415,-203.776 772.897,-202.502 780.325,-210.057 783.415,-203.776"/>
</g>
<!-- Node26&#45;&gt;Node22 -->
<g id="edge100" class="edge"><title>Node26&#45;&gt;Node22</title>
<path fill="none" stroke="midnightblue" d="M1084.4,-246.362C1067.14,-224.365 1027.33,-173.624 1005.58,-145.909"/>
<polygon fill="midnightblue" stroke="midnightblue" points="1008.13,-143.492 999.208,-137.785 1002.63,-147.813 1008.13,-143.492"/>
</g>
<!-- Node26&#45;&gt;Node24 -->
<g id="edge104" class="edge"><title>Node26&#45;&gt;Node24</title>
<path fill="none" stroke="midnightblue" d="M1098.24,-246.354C1102.97,-236.943 1109.79,-222.768 1114.75,-210 1139.52,-146.096 1161.58,-67.8197 1171.37,-31.4194"/>
<polygon fill="midnightblue" stroke="midnightblue" points="1174.81,-32.0936 1174.01,-21.5295 1168.05,-30.2907 1174.81,-32.0936"/>
</g>
<!-- Node26&#45;&gt;Node27 -->
<g id="edge68" class="edge"><title>Node26&#45;&gt;Node27</title>
<path fill="none" stroke="midnightblue" d="M1061.71,-249.555C1024.71,-240.585 961.036,-224.863 906.746,-210 901.421,-208.542 895.849,-206.967 890.33,-205.376"/>
<polygon fill="midnightblue" stroke="midnightblue" points="891.097,-201.954 880.517,-202.518 889.139,-208.675 891.097,-201.954"/>
</g>
<!-- Node28 -->
<g id="node70" class="node"><title>Node28</title>
<a xlink:href="math_8h.html" target="_top" xlink:title="base/std_ext/math.h">
<polygon fill="white" stroke="black" points="1364.75,-181.5 1364.75,-202.5 1470.75,-202.5 1470.75,-181.5 1364.75,-181.5"/>
<text text-anchor="middle" x="1417.75" y="-189.5" font-family="Helvetica,sans-Serif" font-size="10.00">base/std_ext/math.h</text>
</a>
</g>
<!-- Node26&#45;&gt;Node28 -->
<g id="edge84" class="edge"><title>Node26&#45;&gt;Node28</title>
<path fill="none" stroke="midnightblue" d="M1124.14,-252.489C1173.67,-245.125 1272.87,-229.379 1355.75,-210 1361.62,-208.627 1367.76,-207.035 1373.8,-205.378"/>
<polygon fill="midnightblue" stroke="midnightblue" points="1375.13,-208.64 1383.81,-202.555 1373.23,-201.903 1375.13,-208.64"/>
</g>
<!-- Node30 -->
<g id="node75" class="node"><title>Node30</title>
<a xlink:href="shared__ptr__container_8h.html" target="_top" xlink:title="base/std_ext/shared\l_ptr_container.h">
<polygon fill="white" stroke="black" points="1242.25,-175 1242.25,-209 1347.25,-209 1347.25,-175 1242.25,-175"/>
<text text-anchor="start" x="1250.25" y="-196" font-family="Helvetica,sans-Serif" font-size="10.00">base/std_ext/shared</text>
<text text-anchor="middle" x="1294.75" y="-183" font-family="Helvetica,sans-Serif" font-size="10.00">_ptr_container.h</text>
</a>
</g>
<!-- Node26&#45;&gt;Node30 -->
<g id="edge90" class="edge"><title>Node26&#45;&gt;Node30</title>
<path fill="none" stroke="midnightblue" d="M1123.87,-246.986C1152.59,-237.742 1196.12,-223.736 1232.05,-212.174"/>
<polygon fill="midnightblue" stroke="midnightblue" points="1233.52,-215.379 1241.97,-208.984 1231.37,-208.715 1233.52,-215.379"/>
</g>
<!-- Node26&#45;&gt;Node31 -->
<g id="edge110" class="edge"><title>Node26&#45;&gt;Node31</title>
<path fill="none" stroke="midnightblue" d="M1110.29,-246.407C1123.31,-237.859 1140.8,-224.844 1152.75,-210 1168.1,-190.923 1179.4,-164.98 1185.99,-147.205"/>
<polygon fill="midnightblue" stroke="midnightblue" points="1189.37,-148.157 1189.41,-137.562 1182.77,-145.818 1189.37,-148.157"/>
</g>
<!-- Node27&#45;&gt;Node5 -->
<g id="edge70" class="edge"><title>Node27&#45;&gt;Node5</title>
<path fill="none" stroke="midnightblue" d="M845.48,-181.085C844.98,-160.609 843.895,-116.133 843.253,-89.778"/>
<polygon fill="midnightblue" stroke="midnightblue" points="846.75,-89.627 843.007,-79.7153 839.752,-89.7977 846.75,-89.627"/>
</g>
<!-- Node27&#45;&gt;Node6 -->
<g id="edge82" class="edge"><title>Node27&#45;&gt;Node6</title>
<path fill="none" stroke="midnightblue" d="M850.757,-181.305C859.957,-161.511 879.952,-117.742 894.746,-80 901.09,-63.8152 907.52,-45.182 912.126,-31.3616"/>
<polygon fill="midnightblue" stroke="midnightblue" points="915.454,-32.4445 915.261,-21.8514 908.806,-30.253 915.454,-32.4445"/>
</g>
<!-- Node27&#45;&gt;Node10 -->
<g id="edge78" class="edge"><title>Node27&#45;&gt;Node10</title>
<path fill="none" stroke="midnightblue" d="M839.573,-181.436C829.838,-165.52 809.557,-135.212 785.746,-116 765.978,-100.051 739.905,-87.7207 719.92,-79.6991"/>
<polygon fill="midnightblue" stroke="midnightblue" points="720.962,-76.3492 710.372,-76.0057 718.436,-82.8778 720.962,-76.3492"/>
</g>
<!-- Node27&#45;&gt;Node15 -->
<g id="edge80" class="edge"><title>Node27&#45;&gt;Node15</title>
<path fill="none" stroke="midnightblue" d="M815.439,-181.453C807.17,-178.796 798.167,-176.105 789.746,-174 713.349,-154.906 622.493,-140.285 570.926,-132.724"/>
<polygon fill="midnightblue" stroke="midnightblue" points="571.244,-129.234 560.845,-131.263 570.24,-136.161 571.244,-129.234"/>
</g>
<!-- Node27&#45;&gt;Node17 -->
<g id="edge74" class="edge"><title>Node27&#45;&gt;Node17</title>
<path fill="none" stroke="midnightblue" d="M818.38,-181.412C788.848,-169.986 741.834,-151.796 710.394,-139.632"/>
<polygon fill="midnightblue" stroke="midnightblue" points="711.364,-136.254 700.775,-135.91 708.838,-142.783 711.364,-136.254"/>
</g>
<!-- Node27&#45;&gt;Node18 -->
<g id="edge76" class="edge"><title>Node27&#45;&gt;Node18</title>
<path fill="none" stroke="midnightblue" d="M829.563,-181.267C814.008,-170.949 790.287,-155.216 772.385,-143.342"/>
<polygon fill="midnightblue" stroke="midnightblue" points="773.896,-140.144 763.627,-137.534 770.026,-145.978 773.896,-140.144"/>
</g>
<!-- Node27&#45;&gt;Node22 -->
<g id="edge72" class="edge"><title>Node27&#45;&gt;Node22</title>
<path fill="none" stroke="midnightblue" d="M869.365,-181.412C893.38,-170.647 930.787,-153.878 957.728,-141.801"/>
<polygon fill="midnightblue" stroke="midnightblue" points="959.443,-144.868 967.136,-137.584 956.58,-138.48 959.443,-144.868"/>
</g>
<!-- Node28&#45;&gt;Node24 -->
<g id="edge86" class="edge"><title>Node28&#45;&gt;Node24</title>
<path fill="none" stroke="midnightblue" d="M1418.29,-181.135C1418.94,-155.675 1416.79,-91.7635 1381.75,-58 1357.32,-34.4648 1260.38,-20.336 1209.04,-14.3561"/>
<polygon fill="midnightblue" stroke="midnightblue" points="1209.15,-10.8462 1198.82,-13.2033 1208.36,-17.8021 1209.15,-10.8462"/>
</g>
<!-- Node29 -->
<g id="node73" class="node"><title>Node29</title>
<polygon fill="white" stroke="#bfbfbf" points="1428.75,-116.5 1428.75,-137.5 1468.75,-137.5 1468.75,-116.5 1428.75,-116.5"/>
<text text-anchor="middle" x="1448.75" y="-124.5" font-family="Helvetica,sans-Serif" font-size="10.00">limits</text>
</g>
<!-- Node28&#45;&gt;Node29 -->
<g id="edge88" class="edge"><title>Node28&#45;&gt;Node29</title>
<path fill="none" stroke="midnightblue" d="M1422.86,-181.267C1427.33,-171.896 1433.93,-158.057 1439.35,-146.7"/>
<polygon fill="midnightblue" stroke="midnightblue" points="1442.58,-148.066 1443.72,-137.534 1436.26,-145.053 1442.58,-148.066"/>
</g>
<!-- Node30&#45;&gt;Node6 -->
<g id="edge92" class="edge"><title>Node30&#45;&gt;Node6</title>
<path fill="none" stroke="midnightblue" d="M1282.68,-174.932C1270.32,-158.333 1249.82,-133.175 1227.75,-116 1141.9,-49.206 1011.04,-23.5429 950.954,-14.8842"/>
<polygon fill="midnightblue" stroke="midnightblue" points="951.305,-11.3996 940.921,-13.5032 950.35,-18.3342 951.305,-11.3996"/>
</g>
<!-- Node30&#45;&gt;Node12 -->
<g id="edge98" class="edge"><title>Node30&#45;&gt;Node12</title>
<path fill="none" stroke="midnightblue" d="M1315.28,-174.678C1325.19,-165.006 1336.12,-152.082 1341.75,-138 1347.85,-122.711 1348.27,-103.974 1347.35,-89.8862"/>
<polygon fill="midnightblue" stroke="midnightblue" points="1350.81,-89.3711 1346.4,-79.7389 1343.84,-90.0205 1350.81,-89.3711"/>
</g>
<!-- Node30&#45;&gt;Node31 -->
<g id="edge94" class="edge"><title>Node30&#45;&gt;Node31</title>
<path fill="none" stroke="midnightblue" d="M1267.95,-174.922C1252.6,-165.141 1233.44,-152.934 1218.31,-143.289"/>
<polygon fill="midnightblue" stroke="midnightblue" points="1219.79,-140.081 1209.47,-137.658 1216.02,-145.984 1219.79,-140.081"/>
</g>
<!-- Node32 -->
<g id="node80" class="node"><title>Node32</title>
<polygon fill="white" stroke="#bfbfbf" points="1274.25,-116.5 1274.25,-137.5 1333.25,-137.5 1333.25,-116.5 1274.25,-116.5"/>
<text text-anchor="middle" x="1303.75" y="-124.5" font-family="Helvetica,sans-Serif" font-size="10.00">functional</text>
</g>
<!-- Node30&#45;&gt;Node32 -->
<g id="edge96" class="edge"><title>Node30&#45;&gt;Node32</title>
<path fill="none" stroke="midnightblue" d="M1297.11,-174.922C1298.25,-166.67 1299.63,-156.692 1300.84,-147.982"/>
<polygon fill="midnightblue" stroke="midnightblue" points="1304.34,-148.238 1302.24,-137.852 1297.4,-147.278 1304.34,-148.238"/>
</g>
</g>
</svg>
