<?xml version="1.0" encoding="UTF-8" standalone="no"?>
<!DOCTYPE svg PUBLIC "-//W3C//DTD SVG 1.1//EN"
 "http://www.w3.org/Graphics/SVG/1.1/DTD/svg11.dtd">
<!-- Generated by graphviz version 2.26.3 (20100126.1600)
 -->
<!-- Title: src/root&#45;addons/analysis_codes/TreeTools.cc Pages: 1 -->
<svg width="621pt" height="334pt"
 viewBox="0.00 0.00 620.57 334.00" xmlns="http://www.w3.org/2000/svg" xmlns:xlink="http://www.w3.org/1999/xlink">
<g id="graph1" class="graph" transform="scale(1 1) rotate(0) translate(4 330)">
<title>src/root&#45;addons/analysis_codes/TreeTools.cc</title>
<polygon fill="white" stroke="white" points="-4,5 -4,-330 617.572,-330 617.572,5 -4,5"/>
<!-- Node1 -->
<g id="node1" class="node"><title>Node1</title>
<polygon fill="#bfbfbf" stroke="black" points="332.5,-291 332.5,-325 455.5,-325 455.5,-291 332.5,-291"/>
<text text-anchor="start" x="340.5" y="-312" font-family="Helvetica,sans-Serif" font-size="10.00">src/root&#45;addons/analysis</text>
<text text-anchor="middle" x="394" y="-299" font-family="Helvetica,sans-Serif" font-size="10.00">_codes/TreeTools.cc</text>
</g>
<!-- Node2 -->
<g id="node3" class="node"><title>Node2</title>
<a xlink:href="_tree_tools_8h.html" target="_top" xlink:title="TreeTools.h">
<polygon fill="white" stroke="black" points="125,-232.5 125,-253.5 193,-253.5 193,-232.5 125,-232.5"/>
<text text-anchor="middle" x="159" y="-240.5" font-family="Helvetica,sans-Serif" font-size="10.00">TreeTools.h</text>
</a>
</g>
<!-- Node1&#45;&gt;Node2 -->
<g id="edge2" class="edge"><title>Node1&#45;&gt;Node2</title>
<path fill="none" stroke="midnightblue" d="M332.257,-290.922C291.61,-279.679 239.374,-265.231 202.933,-255.152"/>
<polygon fill="midnightblue" stroke="midnightblue" points="203.668,-251.724 193.096,-252.431 201.801,-258.47 203.668,-251.724"/>
</g>
<!-- Node14 -->
<g id="node28" class="node"><title>Node14</title>
<polygon fill="white" stroke="#bfbfbf" points="211,-232.5 211,-253.5 261,-253.5 261,-232.5 211,-232.5"/>
<text text-anchor="middle" x="236" y="-240.5" font-family="Helvetica,sans-Serif" font-size="10.00">TTree.h</text>
</g>
<!-- Node1&#45;&gt;Node14 -->
<g id="edge28" class="edge"><title>Node1&#45;&gt;Node14</title>
<path fill="none" stroke="midnightblue" d="M352.487,-290.922C327.094,-280.475 294.973,-267.261 270.896,-257.356"/>
<polygon fill="midnightblue" stroke="midnightblue" points="272.02,-254.034 261.44,-253.466 269.357,-260.507 272.02,-254.034"/>
</g>
<!-- Node15 -->
<g id="node30" class="node"><title>Node15</title>
<polygon fill="white" stroke="#bfbfbf" points="279,-232.5 279,-253.5 323,-253.5 323,-232.5 279,-232.5"/>
<text text-anchor="middle" x="301" y="-240.5" font-family="Helvetica,sans-Serif" font-size="10.00">TH1.h</text>
</g>
<!-- Node1&#45;&gt;Node15 -->
<g id="edge30" class="edge"><title>Node1&#45;&gt;Node15</title>
<path fill="none" stroke="midnightblue" d="M369.565,-290.922C355.703,-281.233 338.435,-269.165 324.697,-259.562"/>
<polygon fill="midnightblue" stroke="midnightblue" points="326.451,-256.518 316.25,-253.658 322.441,-262.256 326.451,-256.518"/>
</g>
<!-- Node16 -->
<g id="node32" class="node"><title>Node16</title>
<polygon fill="white" stroke="#bfbfbf" points="341,-232.5 341,-253.5 385,-253.5 385,-232.5 341,-232.5"/>
<text text-anchor="middle" x="363" y="-240.5" font-family="Helvetica,sans-Serif" font-size="10.00">TH2.h</text>
</g>
<!-- Node1&#45;&gt;Node16 -->
<g id="edge32" class="edge"><title>Node1&#45;&gt;Node16</title>
<path fill="none" stroke="midnightblue" d="M385.855,-290.922C381.789,-282.395 376.843,-272.025 372.593,-263.115"/>
<polygon fill="midnightblue" stroke="midnightblue" points="375.64,-261.371 368.176,-253.852 369.321,-264.385 375.64,-261.371"/>
</g>
<!-- Node17 -->
<g id="node34" class="node"><title>Node17</title>
<polygon fill="white" stroke="#bfbfbf" points="403,-232.5 403,-253.5 447,-253.5 447,-232.5 403,-232.5"/>
<text text-anchor="middle" x="425" y="-240.5" font-family="Helvetica,sans-Serif" font-size="10.00">TH3.h</text>
</g>
<!-- Node1&#45;&gt;Node17 -->
<g id="edge34" class="edge"><title>Node1&#45;&gt;Node17</title>
<path fill="none" stroke="midnightblue" d="M402.145,-290.922C406.211,-282.395 411.157,-272.025 415.407,-263.115"/>
<polygon fill="midnightblue" stroke="midnightblue" points="418.679,-264.385 419.824,-253.852 412.36,-261.371 418.679,-264.385"/>
</g>
<!-- Node18 -->
<g id="node36" class="node"><title>Node18</title>
<polygon fill="white" stroke="#bfbfbf" points="464.5,-232.5 464.5,-253.5 511.5,-253.5 511.5,-232.5 464.5,-232.5"/>
<text text-anchor="middle" x="488" y="-240.5" font-family="Helvetica,sans-Serif" font-size="10.00">TCut.h</text>
</g>
<!-- Node1&#45;&gt;Node18 -->
<g id="edge36" class="edge"><title>Node1&#45;&gt;Node18</title>
<path fill="none" stroke="midnightblue" d="M418.697,-290.922C432.709,-281.233 450.162,-269.165 464.048,-259.562"/>
<polygon fill="midnightblue" stroke="midnightblue" points="466.352,-262.225 472.586,-253.658 462.371,-256.467 466.352,-262.225"/>
</g>
<!-- Node19 -->
<g id="node38" class="node"><title>Node19</title>
<polygon fill="white" stroke="#bfbfbf" points="528.5,-232.5 528.5,-253.5 599.5,-253.5 599.5,-232.5 528.5,-232.5"/>
<text text-anchor="middle" x="564" y="-240.5" font-family="Helvetica,sans-Serif" font-size="10.00">TDirectory.h</text>
</g>
<!-- Node1&#45;&gt;Node19 -->
<g id="edge38" class="edge"><title>Node1&#45;&gt;Node19</title>
<path fill="none" stroke="midnightblue" d="M438.665,-290.922C466.143,-280.416 500.942,-267.11 526.896,-257.187"/>
<polygon fill="midnightblue" stroke="midnightblue" points="528.286,-260.403 536.376,-253.562 525.786,-253.864 528.286,-260.403"/>
</g>
<!-- Node20 -->
<g id="node40" class="node"><title>Node20</title>
<a xlink:href="string_8h.html" target="_top" xlink:title="base/std_ext/string.h">
<polygon fill="white" stroke="black" points="337,-174.5 337,-195.5 445,-195.5 445,-174.5 337,-174.5"/>
<text text-anchor="middle" x="391" y="-182.5" font-family="Helvetica,sans-Serif" font-size="10.00">base/std_ext/string.h</text>
</a>
</g>
<!-- Node1&#45;&gt;Node20 -->
<g id="edge40" class="edge"><title>Node1&#45;&gt;Node20</title>
<path fill="none" stroke="midnightblue" d="M455.626,-300.855C511.996,-292.9 589.368,-277.918 608,-254 614.009,-246.286 614.139,-239.611 608,-232 589.051,-208.508 512.086,-196.169 455.173,-190.13"/>
<polygon fill="midnightblue" stroke="midnightblue" points="455.459,-186.641 445.155,-189.109 454.749,-193.605 455.459,-186.641"/>
</g>
<!-- Node3 -->
<g id="node5" class="node"><title>Node3</title>
<polygon fill="white" stroke="#bfbfbf" points="250.5,-116.5 250.5,-137.5 291.5,-137.5 291.5,-116.5 250.5,-116.5"/>
<text text-anchor="middle" x="271" y="-124.5" font-family="Helvetica,sans-Serif" font-size="10.00">string</text>
</g>
<!-- Node2&#45;&gt;Node3 -->
<g id="edge4" class="edge"><title>Node2&#45;&gt;Node3</title>
<path fill="none" stroke="midnightblue" d="M193.131,-233.445C212.991,-226.218 236.992,-214.341 252,-196 263.161,-182.36 267.787,-162.652 269.693,-147.788"/>
<polygon fill="midnightblue" stroke="midnightblue" points="273.205,-147.837 270.684,-137.546 266.237,-147.163 273.205,-147.837"/>
</g>
<!-- Node4 -->
<g id="node7" class="node"><title>Node4</title>
<a xlink:href="_histogram_factories_8h.html" target="_top" xlink:title="analysis/plot/HistogramFactories.h">
<polygon fill="white" stroke="black" points="75,-174.5 75,-195.5 243,-195.5 243,-174.5 75,-174.5"/>
<text text-anchor="middle" x="159" y="-182.5" font-family="Helvetica,sans-Serif" font-size="10.00">analysis/plot/HistogramFactories.h</text>
</a>
</g>
<!-- Node2&#45;&gt;Node4 -->
<g id="edge6" class="edge"><title>Node2&#45;&gt;Node4</title>
<path fill="none" stroke="midnightblue" d="M159,-232.362C159,-224.922 159,-214.743 159,-205.728"/>
<polygon fill="midnightblue" stroke="midnightblue" points="162.5,-205.571 159,-195.571 155.5,-205.571 162.5,-205.571"/>
</g>
<!-- Node4&#45;&gt;Node3 -->
<g id="edge26" class="edge"><title>Node4&#45;&gt;Node3</title>
<path fill="none" stroke="midnightblue" d="M179.282,-174.497C196.618,-165.519 221.79,-152.484 241.38,-142.339"/>
<polygon fill="midnightblue" stroke="midnightblue" points="243.22,-145.328 250.49,-137.621 240.001,-139.112 243.22,-145.328"/>
</g>
<!-- Node5 -->
<g id="node9" class="node"><title>Node5</title>
<a xlink:href="interval_8h.html" target="_top" xlink:title="base/interval.h">
<polygon fill="white" stroke="black" points="119,-116.5 119,-137.5 199,-137.5 199,-116.5 119,-116.5"/>
<text text-anchor="middle" x="159" y="-124.5" font-family="Helvetica,sans-Serif" font-size="10.00">base/interval.h</text>
</a>
</g>
<!-- Node4&#45;&gt;Node5 -->
<g id="edge8" class="edge"><title>Node4&#45;&gt;Node5</title>
<path fill="none" stroke="midnightblue" d="M159,-174.362C159,-166.922 159,-156.743 159,-147.728"/>
<polygon fill="midnightblue" stroke="midnightblue" points="162.5,-147.571 159,-137.571 155.5,-147.571 162.5,-147.571"/>
</g>
<!-- Node6 -->
<g id="node11" class="node"><title>Node6</title>
<a xlink:href="printable_8h.html" target="_top" xlink:title="printable.h">
<polygon fill="white" stroke="black" points="200,-58.5 200,-79.5 262,-79.5 262,-58.5 200,-58.5"/>
<text text-anchor="middle" x="231" y="-66.5" font-family="Helvetica,sans-Serif" font-size="10.00">printable.h</text>
</a>
</g>
<!-- Node5&#45;&gt;Node6 -->
<g id="edge10" class="edge"><title>Node5&#45;&gt;Node6</title>
<path fill="none" stroke="midnightblue" d="M172.206,-116.362C182.761,-107.859 197.758,-95.7785 209.963,-85.9466"/>
<polygon fill="midnightblue" stroke="midnightblue" points="212.286,-88.5696 217.878,-79.5707 207.895,-83.1183 212.286,-88.5696"/>
</g>
<!-- Node9 -->
<g id="node17" class="node"><title>Node9</title>
<a xlink:href="types_8h.html" target="_top" xlink:title="types.h">
<polygon fill="white" stroke="black" points="279.5,-58.5 279.5,-79.5 328.5,-79.5 328.5,-58.5 279.5,-58.5"/>
<text text-anchor="middle" x="304" y="-66.5" font-family="Helvetica,sans-Serif" font-size="10.00">types.h</text>
</a>
</g>
<!-- Node5&#45;&gt;Node9 -->
<g id="edge16" class="edge"><title>Node5&#45;&gt;Node9</title>
<path fill="none" stroke="midnightblue" d="M185.258,-116.497C208.995,-107.002 244.08,-92.968 269.962,-82.6154"/>
<polygon fill="midnightblue" stroke="midnightblue" points="271.402,-85.8087 279.387,-78.8451 268.803,-79.3094 271.402,-85.8087"/>
</g>
<!-- Node10 -->
<g id="node19" class="node"><title>Node10</title>
<polygon fill="white" stroke="#bfbfbf" points="346,-58.5 346,-79.5 402,-79.5 402,-58.5 346,-58.5"/>
<text text-anchor="middle" x="374" y="-66.5" font-family="Helvetica,sans-Serif" font-size="10.00">algorithm</text>
</g>
<!-- Node5&#45;&gt;Node10 -->
<g id="edge18" class="edge"><title>Node5&#45;&gt;Node10</title>
<path fill="none" stroke="midnightblue" d="M199.038,-116.804C233.059,-108.057 283.429,-94.9084 335.922,-80.2515"/>
<polygon fill="midnightblue" stroke="midnightblue" points="337.06,-83.5673 345.744,-77.4979 335.171,-76.8272 337.06,-83.5673"/>
</g>
<!-- Node11 -->
<g id="node21" class="node"><title>Node11</title>
<polygon fill="white" stroke="#bfbfbf" points="-0.5,-58.5 -0.5,-79.5 58.5,-79.5 58.5,-58.5 -0.5,-58.5"/>
<text text-anchor="middle" x="29" y="-66.5" font-family="Helvetica,sans-Serif" font-size="10.00">stdexcept</text>
</g>
<!-- Node5&#45;&gt;Node11 -->
<g id="edge20" class="edge"><title>Node5&#45;&gt;Node11</title>
<path fill="none" stroke="midnightblue" d="M135.458,-116.497C114.971,-107.356 85.0528,-94.0082 62.1461,-83.7883"/>
<polygon fill="midnightblue" stroke="midnightblue" points="63.3646,-80.4994 52.8062,-79.6212 60.5124,-86.892 63.3646,-80.4994"/>
</g>
<!-- Node12 -->
<g id="node23" class="node"><title>Node12</title>
<polygon fill="white" stroke="#bfbfbf" points="76,-58.5 76,-79.5 116,-79.5 116,-58.5 76,-58.5"/>
<text text-anchor="middle" x="96" y="-66.5" font-family="Helvetica,sans-Serif" font-size="10.00">limits</text>
</g>
<!-- Node5&#45;&gt;Node12 -->
<g id="edge22" class="edge"><title>Node5&#45;&gt;Node12</title>
<path fill="none" stroke="midnightblue" d="M147.445,-116.362C138.387,-108.023 125.59,-96.2418 115.026,-86.5162"/>
<polygon fill="midnightblue" stroke="midnightblue" points="117.21,-83.7688 107.482,-79.5707 112.468,-88.9187 117.21,-83.7688"/>
</g>
<!-- Node13 -->
<g id="node25" class="node"><title>Node13</title>
<polygon fill="white" stroke="#bfbfbf" points="133.5,-58.5 133.5,-79.5 182.5,-79.5 182.5,-58.5 133.5,-58.5"/>
<text text-anchor="middle" x="158" y="-66.5" font-family="Helvetica,sans-Serif" font-size="10.00">istream</text>
</g>
<!-- Node5&#45;&gt;Node13 -->
<g id="edge24" class="edge"><title>Node5&#45;&gt;Node13</title>
<path fill="none" stroke="midnightblue" d="M158.817,-116.362C158.688,-108.922 158.513,-98.7427 158.357,-89.7276"/>
<polygon fill="midnightblue" stroke="midnightblue" points="161.854,-89.5088 158.182,-79.5707 154.855,-89.6295 161.854,-89.5088"/>
</g>
<!-- Node7 -->
<g id="node13" class="node"><title>Node7</title>
<polygon fill="white" stroke="#bfbfbf" points="341,-0.5 341,-21.5 385,-21.5 385,-0.5 341,-0.5"/>
<text text-anchor="middle" x="363" y="-8.5" font-family="Helvetica,sans-Serif" font-size="10.00">vector</text>
</g>
<!-- Node6&#45;&gt;Node7 -->
<g id="edge12" class="edge"><title>Node6&#45;&gt;Node7</title>
<path fill="none" stroke="midnightblue" d="M254.904,-58.4966C276.322,-49.0858 307.89,-35.2149 331.389,-24.8899"/>
<polygon fill="midnightblue" stroke="midnightblue" points="332.847,-28.0722 340.594,-20.8451 330.031,-21.6635 332.847,-28.0722"/>
</g>
<!-- Node8 -->
<g id="node15" class="node"><title>Node8</title>
<polygon fill="white" stroke="#bfbfbf" points="205,-0.5 205,-21.5 257,-21.5 257,-0.5 205,-0.5"/>
<text text-anchor="middle" x="231" y="-8.5" font-family="Helvetica,sans-Serif" font-size="10.00">ostream</text>
</g>
<!-- Node6&#45;&gt;Node8 -->
<g id="edge14" class="edge"><title>Node6&#45;&gt;Node8</title>
<path fill="none" stroke="midnightblue" d="M231,-58.3619C231,-50.9219 231,-40.7427 231,-31.7276"/>
<polygon fill="midnightblue" stroke="midnightblue" points="234.5,-31.5706 231,-21.5707 227.5,-31.5707 234.5,-31.5706"/>
</g>
<!-- Node20&#45;&gt;Node3 -->
<g id="edge42" class="edge"><title>Node20&#45;&gt;Node3</title>
<path fill="none" stroke="midnightblue" d="M369.269,-174.497C350.175,-165.268 322.207,-151.75 300.986,-141.493"/>
<polygon fill="midnightblue" stroke="midnightblue" points="302.293,-138.238 291.766,-137.037 299.247,-144.54 302.293,-138.238"/>
</g>
<!-- Node20&#45;&gt;Node7 -->
<g id="edge48" class="edge"><title>Node20&#45;&gt;Node7</title>
<path fill="none" stroke="midnightblue" d="M396.413,-174.331C407.011,-151.891 428.041,-98.5348 411,-58 406.036,-46.1918 396.497,-35.8648 387.221,-27.9215"/>
<polygon fill="midnightblue" stroke="midnightblue" points="389.262,-25.0721 379.26,-21.5773 384.899,-30.5466 389.262,-25.0721"/>
</g>
<!-- Node20&#45;&gt;Node10 -->
<g id="edge46" class="edge"><title>Node20&#45;&gt;Node10</title>
<path fill="none" stroke="midnightblue" d="M389.431,-174.295C386.623,-155.131 380.691,-114.654 377.055,-89.8434"/>
<polygon fill="midnightblue" stroke="midnightblue" points="380.478,-89.066 375.565,-79.6792 373.552,-90.0811 380.478,-89.066"/>
</g>
<!-- Node21 -->
<g id="node43" class="node"><title>Node21</title>
<polygon fill="white" stroke="#bfbfbf" points="311,-116.5 311,-137.5 363,-137.5 363,-116.5 311,-116.5"/>
<text text-anchor="middle" x="337" y="-124.5" font-family="Helvetica,sans-Serif" font-size="10.00">sstream</text>
</g>
<!-- Node20&#45;&gt;Node21 -->
<g id="edge44" class="edge"><title>Node20&#45;&gt;Node21</title>
<path fill="none" stroke="midnightblue" d="M381.096,-174.362C373.484,-166.186 362.792,-154.702 353.843,-145.091"/>
<polygon fill="midnightblue" stroke="midnightblue" points="356.217,-142.505 346.842,-137.571 351.094,-147.275 356.217,-142.505"/>
</g>
</g>
</svg>
