<?xml version="1.0" encoding="UTF-8" standalone="no"?>
<!DOCTYPE svg PUBLIC "-//W3C//DTD SVG 1.1//EN"
 "http://www.w3.org/Graphics/SVG/1.1/DTD/svg11.dtd">
<!-- Generated by graphviz version 2.26.3 (20100126.1600)
 -->
<!-- Title: src/expconfig/detectors/Trigger.h Pages: 1 -->
<svg width="752pt" height="332pt"
 viewBox="0.00 0.00 752.00 332.00" xmlns="http://www.w3.org/2000/svg" xmlns:xlink="http://www.w3.org/1999/xlink">
<g id="graph1" class="graph" transform="scale(1 1) rotate(0) translate(4 328)">
<title>src/expconfig/detectors/Trigger.h</title>
<polygon fill="white" stroke="white" points="-4,5 -4,-328 749,-328 749,5 -4,5"/>
<!-- Node1 -->
<g id="node1" class="node"><title>Node1</title>
<polygon fill="#bfbfbf" stroke="black" points="417.5,-289 417.5,-323 536.5,-323 536.5,-289 417.5,-289"/>
<text text-anchor="start" x="425.5" y="-310" font-family="Helvetica,sans-Serif" font-size="10.00">src/expconfig/detectors</text>
<text text-anchor="middle" x="477" y="-297" font-family="Helvetica,sans-Serif" font-size="10.00">/Trigger.h</text>
</g>
<!-- Node2 -->
<g id="node3" class="node"><title>Node2</title>
<a xlink:href="_beampolmon_8h.html" target="_top" xlink:title="src/analysis/slowcontrol\l/processors/Beampolmon.h">
<polygon fill="white" stroke="black" points="198,-217 198,-251 334,-251 334,-217 198,-217"/>
<text text-anchor="start" x="206" y="-238" font-family="Helvetica,sans-Serif" font-size="10.00">src/analysis/slowcontrol</text>
<text text-anchor="middle" x="266" y="-225" font-family="Helvetica,sans-Serif" font-size="10.00">/processors/Beampolmon.h</text>
</a>
</g>
<!-- Node1&#45;&gt;Node2 -->
<g id="edge2" class="edge"><title>Node1&#45;&gt;Node2</title>
<path fill="none" stroke="midnightblue" d="M417.312,-285.633C385.332,-274.72 346.383,-261.429 316.01,-251.065"/>
<polygon fill="midnightblue" stroke="midnightblue" points="416.401,-289.02 426.996,-288.937 418.662,-282.395 416.401,-289.02"/>
</g>
<!-- Node9 -->
<g id="node17" class="node"><title>Node9</title>
<a xlink:href="_trigger_8cc.html" target="_top" xlink:title="src/expconfig/detectors\l/Trigger.cc">
<polygon fill="white" stroke="black" points="351.5,-217 351.5,-251 470.5,-251 470.5,-217 351.5,-217"/>
<text text-anchor="start" x="359.5" y="-238" font-family="Helvetica,sans-Serif" font-size="10.00">src/expconfig/detectors</text>
<text text-anchor="middle" x="411" y="-225" font-family="Helvetica,sans-Serif" font-size="10.00">/Trigger.cc</text>
</a>
</g>
<!-- Node1&#45;&gt;Node9 -->
<g id="edge16" class="edge"><title>Node1&#45;&gt;Node9</title>
<path fill="none" stroke="midnightblue" d="M454.43,-281.379C445.407,-271.535 435.224,-260.426 426.987,-251.441"/>
<polygon fill="midnightblue" stroke="midnightblue" points="452.022,-283.93 461.359,-288.937 457.182,-279.2 452.022,-283.93"/>
</g>
<!-- Node10 -->
<g id="node19" class="node"><title>Node10</title>
<a xlink:href="_setup__2014___e_p_t_8cc.html" target="_top" xlink:title="src/expconfig/setups\l/Setup_2014_EPT.cc">
<polygon fill="white" stroke="black" points="488,-217 488,-251 598,-251 598,-217 488,-217"/>
<text text-anchor="start" x="496" y="-238" font-family="Helvetica,sans-Serif" font-size="10.00">src/expconfig/setups</text>
<text text-anchor="middle" x="543" y="-225" font-family="Helvetica,sans-Serif" font-size="10.00">/Setup_2014_EPT.cc</text>
</a>
</g>
<!-- Node1&#45;&gt;Node10 -->
<g id="edge18" class="edge"><title>Node1&#45;&gt;Node10</title>
<path fill="none" stroke="midnightblue" d="M499.57,-281.379C508.593,-271.535 518.776,-260.426 527.013,-251.441"/>
<polygon fill="midnightblue" stroke="midnightblue" points="496.818,-279.2 492.641,-288.937 501.978,-283.93 496.818,-279.2"/>
</g>
<!-- Node11 -->
<g id="node21" class="node"><title>Node11</title>
<a xlink:href="expconfig__helpers_8cc.html" target="_top" xlink:title="test/expconfig_helpers.cc">
<polygon fill="white" stroke="black" points="616,-223.5 616,-244.5 744,-244.5 744,-223.5 616,-223.5"/>
<text text-anchor="middle" x="680" y="-231.5" font-family="Helvetica,sans-Serif" font-size="10.00">test/expconfig_helpers.cc</text>
</a>
</g>
<!-- Node1&#45;&gt;Node11 -->
<g id="edge20" class="edge"><title>Node1&#45;&gt;Node11</title>
<path fill="none" stroke="midnightblue" d="M534.933,-285.452C572.534,-272.116 619.98,-255.288 650.164,-244.582"/>
<polygon fill="midnightblue" stroke="midnightblue" points="533.363,-282.296 525.108,-288.937 535.703,-288.893 533.363,-282.296"/>
</g>
<!-- Node3 -->
<g id="node5" class="node"><title>Node3</title>
<a xlink:href="_slow_control_processors_8h.html" target="_top" xlink:title="src/analysis/slowcontrol\l/SlowControlProcessors.h">
<polygon fill="white" stroke="black" points="200.5,-145 200.5,-179 331.5,-179 331.5,-145 200.5,-145"/>
<text text-anchor="start" x="208.5" y="-166" font-family="Helvetica,sans-Serif" font-size="10.00">src/analysis/slowcontrol</text>
<text text-anchor="middle" x="266" y="-153" font-family="Helvetica,sans-Serif" font-size="10.00">/SlowControlProcessors.h</text>
</a>
</g>
<!-- Node2&#45;&gt;Node3 -->
<g id="edge4" class="edge"><title>Node2&#45;&gt;Node3</title>
<path fill="none" stroke="midnightblue" d="M266,-206.719C266,-197.572 266,-187.625 266,-179.441"/>
<polygon fill="midnightblue" stroke="midnightblue" points="262.5,-206.937 266,-216.937 269.5,-206.937 262.5,-206.937"/>
</g>
<!-- Node4 -->
<g id="node7" class="node"><title>Node4</title>
<a xlink:href="_slow_control_manager_8h.html" target="_top" xlink:title="src/analysis/slowcontrol\l/SlowControlManager.h">
<polygon fill="white" stroke="black" points="58,-73 58,-107 180,-107 180,-73 58,-73"/>
<text text-anchor="start" x="66" y="-94" font-family="Helvetica,sans-Serif" font-size="10.00">src/analysis/slowcontrol</text>
<text text-anchor="middle" x="119" y="-81" font-family="Helvetica,sans-Serif" font-size="10.00">/SlowControlManager.h</text>
</a>
</g>
<!-- Node3&#45;&gt;Node4 -->
<g id="edge6" class="edge"><title>Node3&#45;&gt;Node4</title>
<path fill="none" stroke="midnightblue" d="M222.095,-140.495C200.272,-129.807 174.272,-117.072 153.841,-107.065"/>
<polygon fill="midnightblue" stroke="midnightblue" points="220.643,-143.681 231.163,-144.937 223.722,-137.395 220.643,-143.681"/>
</g>
<!-- Node7 -->
<g id="node13" class="node"><title>Node7</title>
<a xlink:href="_slow_control_processors_8cc.html" target="_top" xlink:title="src/analysis/slowcontrol\l/SlowControlProcessors.cc">
<polygon fill="white" stroke="black" points="198,-73 198,-107 334,-107 334,-73 198,-73"/>
<text text-anchor="start" x="206" y="-94" font-family="Helvetica,sans-Serif" font-size="10.00">src/analysis/slowcontrol</text>
<text text-anchor="middle" x="266" y="-81" font-family="Helvetica,sans-Serif" font-size="10.00">/SlowControlProcessors.cc</text>
</a>
</g>
<!-- Node3&#45;&gt;Node7 -->
<g id="edge12" class="edge"><title>Node3&#45;&gt;Node7</title>
<path fill="none" stroke="midnightblue" d="M266,-134.719C266,-125.572 266,-115.625 266,-107.441"/>
<polygon fill="midnightblue" stroke="midnightblue" points="262.5,-134.937 266,-144.937 269.5,-134.937 262.5,-134.937"/>
</g>
<!-- Node8 -->
<g id="node15" class="node"><title>Node8</title>
<a xlink:href="_tagger_scalers_8cc.html" target="_top" xlink:title="src/analysis/slowcontrol\l/variables/TaggerScalers.cc">
<polygon fill="white" stroke="black" points="352,-73 352,-107 490,-107 490,-73 352,-73"/>
<text text-anchor="start" x="360" y="-94" font-family="Helvetica,sans-Serif" font-size="10.00">src/analysis/slowcontrol</text>
<text text-anchor="middle" x="421" y="-81" font-family="Helvetica,sans-Serif" font-size="10.00">/variables/TaggerScalers.cc</text>
</a>
</g>
<!-- Node3&#45;&gt;Node8 -->
<g id="edge14" class="edge"><title>Node3&#45;&gt;Node8</title>
<path fill="none" stroke="midnightblue" d="M311.987,-140.638C335.06,-129.921 362.624,-117.117 384.263,-107.065"/>
<polygon fill="midnightblue" stroke="midnightblue" points="310.328,-137.55 302.733,-144.937 313.277,-143.898 310.328,-137.55"/>
</g>
<!-- Node5 -->
<g id="node9" class="node"><title>Node5</title>
<a xlink:href="_physics_manager_8cc.html" target="_top" xlink:title="src/analysis/physics\l/PhysicsManager.cc">
<polygon fill="white" stroke="black" points="0,-1 0,-35 106,-35 106,-1 0,-1"/>
<text text-anchor="start" x="8" y="-22" font-family="Helvetica,sans-Serif" font-size="10.00">src/analysis/physics</text>
<text text-anchor="middle" x="53" y="-9" font-family="Helvetica,sans-Serif" font-size="10.00">/PhysicsManager.cc</text>
</a>
</g>
<!-- Node4&#45;&gt;Node5 -->
<g id="edge8" class="edge"><title>Node4&#45;&gt;Node5</title>
<path fill="none" stroke="midnightblue" d="M96.4303,-65.3785C87.407,-55.5349 77.224,-44.4262 68.9873,-35.4407"/>
<polygon fill="midnightblue" stroke="midnightblue" points="94.0216,-67.9305 103.359,-72.937 99.1817,-63.2004 94.0216,-67.9305"/>
</g>
<!-- Node6 -->
<g id="node11" class="node"><title>Node6</title>
<a xlink:href="_slow_control_manager_8cc.html" target="_top" xlink:title="src/analysis/slowcontrol\l/SlowControlManager.cc">
<polygon fill="white" stroke="black" points="124,-1 124,-35 248,-35 248,-1 124,-1"/>
<text text-anchor="start" x="132" y="-22" font-family="Helvetica,sans-Serif" font-size="10.00">src/analysis/slowcontrol</text>
<text text-anchor="middle" x="186" y="-9" font-family="Helvetica,sans-Serif" font-size="10.00">/SlowControlManager.cc</text>
</a>
</g>
<!-- Node4&#45;&gt;Node6 -->
<g id="edge10" class="edge"><title>Node4&#45;&gt;Node6</title>
<path fill="none" stroke="midnightblue" d="M141.912,-65.3785C151.072,-55.5349 161.409,-44.4262 169.77,-35.4407"/>
<polygon fill="midnightblue" stroke="midnightblue" points="139.128,-63.232 134.878,-72.937 144.253,-68.0006 139.128,-63.232"/>
</g>
</g>
</svg>
