<?xml version="1.0" encoding="UTF-8" standalone="no"?>
<!DOCTYPE svg PUBLIC "-//W3C//DTD SVG 1.1//EN"
 "http://www.w3.org/Graphics/SVG/1.1/DTD/svg11.dtd">
<!-- Generated by graphviz version 2.26.3 (20100126.1600)
 -->
<!-- Title: src/unpacker/UnpackerAcqu.cc Pages: 1 -->
<svg width="2928pt" height="608pt"
 viewBox="0.00 0.00 2927.68 608.00" xmlns="http://www.w3.org/2000/svg" xmlns:xlink="http://www.w3.org/1999/xlink">
<g id="graph1" class="graph" transform="scale(1 1) rotate(0) translate(4 604)">
<title>src/unpacker/UnpackerAcqu.cc</title>
<polygon fill="white" stroke="white" points="-4,5 -4,-604 2924.68,-604 2924.68,5 -4,5"/>
<!-- Node1 -->
<g id="node1" class="node"><title>Node1</title>
<polygon fill="#bfbfbf" stroke="black" points="1499.68,-578.5 1499.68,-599.5 1653.68,-599.5 1653.68,-578.5 1499.68,-578.5"/>
<text text-anchor="middle" x="1576.68" y="-586.5" font-family="Helvetica,sans-Serif" font-size="10.00">src/unpacker/UnpackerAcqu.cc</text>
</g>
<!-- Node2 -->
<g id="node3" class="node"><title>Node2</title>
<a xlink:href="_unpacker_acqu_8h.html" target="_top" xlink:title="UnpackerAcqu.h">
<polygon fill="white" stroke="black" points="1865.18,-448.5 1865.18,-469.5 1954.18,-469.5 1954.18,-448.5 1865.18,-448.5"/>
<text text-anchor="middle" x="1909.68" y="-456.5" font-family="Helvetica,sans-Serif" font-size="10.00">UnpackerAcqu.h</text>
</a>
</g>
<!-- Node1&#45;&gt;Node2 -->
<g id="edge2" class="edge"><title>Node1&#45;&gt;Node2</title>
<path fill="none" stroke="midnightblue" d="M1603.65,-578.472C1663.12,-555.254 1805.6,-499.631 1873.07,-473.293"/>
<polygon fill="midnightblue" stroke="midnightblue" points="1874.42,-476.524 1882.46,-469.627 1871.87,-470.003 1874.42,-476.524"/>
</g>
<!-- Node15 -->
<g id="node31" class="node"><title>Node15</title>
<polygon fill="white" stroke="#bfbfbf" points="1450.18,-58.5 1450.18,-79.5 1509.18,-79.5 1509.18,-58.5 1450.18,-58.5"/>
<text text-anchor="middle" x="1479.68" y="-66.5" font-family="Helvetica,sans-Serif" font-size="10.00">stdexcept</text>
</g>
<!-- Node1&#45;&gt;Node15 -->
<g id="edge258" class="edge"><title>Node1&#45;&gt;Node15</title>
<path fill="none" stroke="midnightblue" d="M1499.58,-583.484C1310.05,-568.893 836.679,-525.769 836.679,-459 836.679,-459 836.679,-459 836.679,-401 836.679,-255.954 873.662,-194.421 995.679,-116 1076.79,-63.8673 1328.02,-95.8367 1439.88,-79.8615"/>
<polygon fill="midnightblue" stroke="midnightblue" points="1440.64,-83.285 1449.94,-78.2211 1439.51,-76.3762 1440.64,-83.285"/>
</g>
<!-- Node49 -->
<g id="node147" class="node"><title>Node49</title>
<a xlink:href="_unpacker_acqu__detail_8h.html" target="_top" xlink:title="detail/UnpackerAcqu\l_detail.h">
<polygon fill="white" stroke="black" points="1523.18,-507 1523.18,-541 1630.18,-541 1630.18,-507 1523.18,-507"/>
<text text-anchor="start" x="1531.18" y="-528" font-family="Helvetica,sans-Serif" font-size="10.00">detail/UnpackerAcqu</text>
<text text-anchor="middle" x="1576.68" y="-515" font-family="Helvetica,sans-Serif" font-size="10.00">_detail.h</text>
</a>
</g>
<!-- Node1&#45;&gt;Node49 -->
<g id="edge196" class="edge"><title>Node1&#45;&gt;Node49</title>
<path fill="none" stroke="midnightblue" d="M1576.68,-578.267C1576.68,-570.931 1576.68,-560.857 1576.68,-551.38"/>
<polygon fill="midnightblue" stroke="midnightblue" points="1580.18,-551.11 1576.68,-541.11 1573.18,-551.11 1580.18,-551.11"/>
</g>
<!-- Node57 -->
<g id="node179" class="node"><title>Node57</title>
<a xlink:href="_t_event_8h.html" target="_top" xlink:title="tree/TEvent.h">
<polygon fill="white" stroke="black" points="1063.68,-123.5 1063.68,-144.5 1139.68,-144.5 1139.68,-123.5 1063.68,-123.5"/>
<text text-anchor="middle" x="1101.68" y="-131.5" font-family="Helvetica,sans-Serif" font-size="10.00">tree/TEvent.h</text>
</a>
</g>
<!-- Node1&#45;&gt;Node57 -->
<g id="edge244" class="edge"><title>Node1&#45;&gt;Node57</title>
<path fill="none" stroke="midnightblue" d="M1499.35,-583.727C1406.43,-574.055 1249.35,-546.762 1139.68,-470 1037.82,-398.709 1078.49,-215.417 1095.57,-154.228"/>
<polygon fill="midnightblue" stroke="midnightblue" points="1098.95,-155.156 1098.36,-144.577 1092.22,-153.214 1098.95,-155.156"/>
</g>
<!-- Node58 -->
<g id="node185" class="node"><title>Node58</title>
<a xlink:href="_logger_8h.html" target="_top" xlink:title="base/Logger.h">
<polygon fill="white" stroke="black" points="2380.68,-513.5 2380.68,-534.5 2458.68,-534.5 2458.68,-513.5 2380.68,-513.5"/>
<text text-anchor="middle" x="2419.68" y="-521.5" font-family="Helvetica,sans-Serif" font-size="10.00">base/Logger.h</text>
</a>
</g>
<!-- Node1&#45;&gt;Node58 -->
<g id="edge254" class="edge"><title>Node1&#45;&gt;Node58</title>
<path fill="none" stroke="midnightblue" d="M1653.72,-583.059C1824.23,-569.912 2229.53,-538.661 2370.41,-527.799"/>
<polygon fill="midnightblue" stroke="midnightblue" points="2370.78,-531.281 2380.48,-527.022 2370.24,-524.302 2370.78,-531.281"/>
</g>
<!-- Node3 -->
<g id="node5" class="node"><title>Node3</title>
<a xlink:href="_unpacker_8h.html" target="_top" xlink:title="Unpacker.h">
<polygon fill="white" stroke="black" points="446.179,-123.5 446.179,-144.5 513.179,-144.5 513.179,-123.5 446.179,-123.5"/>
<text text-anchor="middle" x="479.679" y="-131.5" font-family="Helvetica,sans-Serif" font-size="10.00">Unpacker.h</text>
</a>
</g>
<!-- Node2&#45;&gt;Node3 -->
<g id="edge4" class="edge"><title>Node2&#45;&gt;Node3</title>
<path fill="none" stroke="midnightblue" d="M1865.01,-457.783C1730.36,-453.838 1329.87,-440.007 1202.68,-412 922.068,-350.212 606.231,-197.912 509.438,-149.226"/>
<polygon fill="midnightblue" stroke="midnightblue" points="510.755,-145.97 500.251,-144.584 507.598,-152.218 510.755,-145.97"/>
</g>
<!-- Node5 -->
<g id="node9" class="node"><title>Node5</title>
<polygon fill="white" stroke="#bfbfbf" points="1600.68,-58.5 1600.68,-79.5 1652.68,-79.5 1652.68,-58.5 1600.68,-58.5"/>
<text text-anchor="middle" x="1626.68" y="-66.5" font-family="Helvetica,sans-Serif" font-size="10.00">memory</text>
</g>
<!-- Node2&#45;&gt;Node5 -->
<g id="edge184" class="edge"><title>Node2&#45;&gt;Node5</title>
<path fill="none" stroke="midnightblue" d="M1864.98,-448.479C1793.08,-428.594 1659.68,-378.202 1659.68,-278 1659.68,-278 1659.68,-278 1659.68,-206 1659.68,-163.64 1644.58,-115.91 1634.81,-89.4517"/>
<polygon fill="midnightblue" stroke="midnightblue" points="1637.96,-87.8928 1631.13,-79.7965 1631.42,-90.3873 1637.96,-87.8928"/>
</g>
<!-- Node6 -->
<g id="node11" class="node"><title>Node6</title>
<a xlink:href="_exp_config_8h.html" target="_top" xlink:title="expconfig/ExpConfig.h">
<polygon fill="white" stroke="black" points="1851.68,-390.5 1851.68,-411.5 1967.68,-411.5 1967.68,-390.5 1851.68,-390.5"/>
<text text-anchor="middle" x="1909.68" y="-398.5" font-family="Helvetica,sans-Serif" font-size="10.00">expconfig/ExpConfig.h</text>
</a>
</g>
<!-- Node2&#45;&gt;Node6 -->
<g id="edge10" class="edge"><title>Node2&#45;&gt;Node6</title>
<path fill="none" stroke="midnightblue" d="M1909.68,-448.362C1909.68,-440.922 1909.68,-430.743 1909.68,-421.728"/>
<polygon fill="midnightblue" stroke="midnightblue" points="1913.18,-421.571 1909.68,-411.571 1906.18,-421.571 1913.18,-421.571"/>
</g>
<!-- Node7 -->
<g id="node13" class="node"><title>Node7</title>
<a xlink:href="_detector__t_8h.html" target="_top" xlink:title="base/Detector_t.h">
<polygon fill="white" stroke="black" points="1989.18,-195.5 1989.18,-216.5 2084.18,-216.5 2084.18,-195.5 1989.18,-195.5"/>
<text text-anchor="middle" x="2036.68" y="-203.5" font-family="Helvetica,sans-Serif" font-size="10.00">base/Detector_t.h</text>
</a>
</g>
<!-- Node2&#45;&gt;Node7 -->
<g id="edge182" class="edge"><title>Node2&#45;&gt;Node7</title>
<path fill="none" stroke="midnightblue" d="M1943.44,-448.491C1961.62,-441.118 1982.89,-429.415 1995.68,-412 2037.42,-355.172 2039.5,-266.662 2038.01,-226.754"/>
<polygon fill="midnightblue" stroke="midnightblue" points="2041.5,-226.46 2037.52,-216.643 2034.51,-226.802 2041.5,-226.46"/>
</g>
<!-- Node9 -->
<g id="node17" class="node"><title>Node9</title>
<polygon fill="white" stroke="#bfbfbf" points="2287.68,-0.5 2287.68,-21.5 2331.68,-21.5 2331.68,-0.5 2287.68,-0.5"/>
<text text-anchor="middle" x="2309.68" y="-8.5" font-family="Helvetica,sans-Serif" font-size="10.00">vector</text>
</g>
<!-- Node2&#45;&gt;Node9 -->
<g id="edge190" class="edge"><title>Node2&#45;&gt;Node9</title>
<path fill="none" stroke="midnightblue" d="M1954.24,-458.434C2121.41,-455.131 2701.68,-432.532 2701.68,-278 2701.68,-278 2701.68,-278 2701.68,-134 2701.68,-88.6754 2673.62,-79.4299 2633.68,-58 2583.54,-31.0963 2413.64,-17.5261 2341.98,-12.8898"/>
<polygon fill="midnightblue" stroke="midnightblue" points="2341.95,-9.38114 2331.75,-12.2458 2341.51,-16.3673 2341.95,-9.38114"/>
</g>
<!-- Node14 -->
<g id="node29" class="node"><title>Node14</title>
<polygon fill="white" stroke="#bfbfbf" points="2589.68,-123.5 2589.68,-144.5 2635.68,-144.5 2635.68,-123.5 2589.68,-123.5"/>
<text text-anchor="middle" x="2612.68" y="-131.5" font-family="Helvetica,sans-Serif" font-size="10.00">cstdint</text>
</g>
<!-- Node2&#45;&gt;Node14 -->
<g id="edge192" class="edge"><title>Node2&#45;&gt;Node14</title>
<path fill="none" stroke="midnightblue" d="M1954.3,-455.532C2098.2,-443.757 2540.68,-402.695 2540.68,-343 2540.68,-343 2540.68,-343 2540.68,-278 2540.68,-228.529 2575.1,-178.632 2596.34,-152.545"/>
<polygon fill="midnightblue" stroke="midnightblue" points="2599.22,-154.556 2602.97,-144.646 2593.86,-150.055 2599.22,-154.556"/>
</g>
<!-- Node20 -->
<g id="node45" class="node"><title>Node20</title>
<polygon fill="white" stroke="#bfbfbf" points="1404.18,-58.5 1404.18,-79.5 1433.18,-79.5 1433.18,-58.5 1404.18,-58.5"/>
<text text-anchor="middle" x="1418.68" y="-66.5" font-family="Helvetica,sans-Serif" font-size="10.00">list</text>
</g>
<!-- Node2&#45;&gt;Node20 -->
<g id="edge186" class="edge"><title>Node2&#45;&gt;Node20</title>
<path fill="none" stroke="midnightblue" d="M1864.95,-455.785C1686.02,-441.906 1025.68,-380.587 904.679,-224 874.969,-185.55 854.569,-151.564 887.679,-116 925.86,-74.9897 1336.03,-92.3859 1390.68,-80 1391.94,-79.7143 1393.22,-79.381 1394.5,-79.012"/>
<polygon fill="midnightblue" stroke="midnightblue" points="1395.82,-82.26 1404.12,-75.6816 1393.53,-75.6451 1395.82,-82.26"/>
</g>
<!-- Node24 -->
<g id="node59" class="node"><title>Node24</title>
<polygon fill="white" stroke="#bfbfbf" points="1937.18,-195.5 1937.18,-216.5 1972.18,-216.5 1972.18,-195.5 1937.18,-195.5"/>
<text text-anchor="middle" x="1954.68" y="-203.5" font-family="Helvetica,sans-Serif" font-size="10.00">map</text>
</g>
<!-- Node2&#45;&gt;Node24 -->
<g id="edge188" class="edge"><title>Node2&#45;&gt;Node24</title>
<path fill="none" stroke="midnightblue" d="M1935.18,-448.488C1950.22,-440.797 1967.96,-428.766 1976.68,-412 2008.68,-350.455 1979.98,-264.72 1963.87,-226.177"/>
<polygon fill="midnightblue" stroke="midnightblue" points="1966.92,-224.398 1959.73,-216.616 1960.49,-227.183 1966.92,-224.398"/>
</g>
<!-- Node29 -->
<g id="node75" class="node"><title>Node29</title>
<polygon fill="white" stroke="#bfbfbf" points="1689.68,-58.5 1689.68,-79.5 1729.68,-79.5 1729.68,-58.5 1689.68,-58.5"/>
<text text-anchor="middle" x="1709.68" y="-66.5" font-family="Helvetica,sans-Serif" font-size="10.00">limits</text>
</g>
<!-- Node2&#45;&gt;Node29 -->
<g id="edge194" class="edge"><title>Node2&#45;&gt;Node29</title>
<path fill="none" stroke="midnightblue" d="M1949.85,-448.461C2018.17,-429.343 2149.68,-386.849 2149.68,-343 2149.68,-343 2149.68,-343 2149.68,-278 2149.68,-109.741 1944.01,-225.552 1792.68,-152 1762.64,-137.4 1737.04,-107.473 1722.51,-87.8299"/>
<polygon fill="midnightblue" stroke="midnightblue" points="1725.31,-85.7168 1716.64,-79.6201 1719.61,-89.7896 1725.31,-85.7168"/>
</g>
<!-- Node4 -->
<g id="node7" class="node"><title>Node4</title>
<polygon fill="white" stroke="#bfbfbf" points="436.179,-0.5 436.179,-21.5 477.179,-21.5 477.179,-0.5 436.179,-0.5"/>
<text text-anchor="middle" x="456.679" y="-8.5" font-family="Helvetica,sans-Serif" font-size="10.00">string</text>
</g>
<!-- Node3&#45;&gt;Node4 -->
<g id="edge6" class="edge"><title>Node3&#45;&gt;Node4</title>
<path fill="none" stroke="midnightblue" d="M477.638,-123.085C473.81,-102.609 465.493,-58.133 460.565,-31.778"/>
<polygon fill="midnightblue" stroke="midnightblue" points="463.962,-30.9016 458.683,-21.7153 457.081,-32.1883 463.962,-30.9016"/>
</g>
<!-- Node3&#45;&gt;Node5 -->
<g id="edge8" class="edge"><title>Node3&#45;&gt;Node5</title>
<path fill="none" stroke="midnightblue" d="M513.2,-127.988C537.421,-123.895 570.966,-118.741 600.679,-116 1036.23,-75.8185 1155.53,-153.551 1590.49,-79.7735"/>
<polygon fill="midnightblue" stroke="midnightblue" points="1591.23,-83.1976 1600.49,-78.0591 1590.05,-76.2982 1591.23,-83.1976"/>
</g>
<!-- Node6&#45;&gt;Node5 -->
<g id="edge176" class="edge"><title>Node6&#45;&gt;Node5</title>
<path fill="none" stroke="midnightblue" d="M1856.99,-390.418C1818.11,-381.64 1769.49,-368.318 1754.68,-354 1674.35,-276.33 1732.72,-210.863 1673.68,-116 1666.79,-104.937 1656.84,-94.489 1647.86,-86.266"/>
<polygon fill="midnightblue" stroke="midnightblue" points="1650.15,-83.618 1640.32,-79.6529 1645.53,-88.8795 1650.15,-83.618"/>
</g>
<!-- Node6&#45;&gt;Node7 -->
<g id="edge12" class="edge"><title>Node6&#45;&gt;Node7</title>
<path fill="none" stroke="midnightblue" d="M1916.69,-390.238C1937.24,-358.683 1997.56,-266.067 2024.01,-225.458"/>
<polygon fill="midnightblue" stroke="midnightblue" points="2027.01,-227.259 2029.54,-216.969 2021.15,-223.438 2027.01,-227.259"/>
</g>
<!-- Node8 -->
<g id="node15" class="node"><title>Node8</title>
<a xlink:href="printable_8h.html" target="_top" xlink:title="base/printable.h">
<polygon fill="white" stroke="black" points="2195.68,-58.5 2195.68,-79.5 2281.68,-79.5 2281.68,-58.5 2195.68,-58.5"/>
<text text-anchor="middle" x="2238.68" y="-66.5" font-family="Helvetica,sans-Serif" font-size="10.00">base/printable.h</text>
</a>
</g>
<!-- Node6&#45;&gt;Node8 -->
<g id="edge174" class="edge"><title>Node6&#45;&gt;Node8</title>
<path fill="none" stroke="midnightblue" d="M1967.85,-394.003C2108.54,-376.298 2455.68,-327.586 2455.68,-278 2455.68,-278 2455.68,-278 2455.68,-206 2455.68,-128.713 2356.04,-93.2625 2291.8,-78.4376"/>
<polygon fill="midnightblue" stroke="midnightblue" points="2292.33,-74.9712 2281.81,-76.2322 2290.82,-81.8064 2292.33,-74.9712"/>
</g>
<!-- Node17 -->
<g id="node37" class="node"><title>Node17</title>
<a xlink:href="_reconstruct__traits_8h.html" target="_top" xlink:title="reconstruct/Reconstruct\l_traits.h">
<polygon fill="white" stroke="black" points="1759.68,-261 1759.68,-295 1881.68,-295 1881.68,-261 1759.68,-261"/>
<text text-anchor="start" x="1767.68" y="-282" font-family="Helvetica,sans-Serif" font-size="10.00">reconstruct/Reconstruct</text>
<text text-anchor="middle" x="1820.68" y="-269" font-family="Helvetica,sans-Serif" font-size="10.00">_traits.h</text>
</a>
</g>
<!-- Node6&#45;&gt;Node17 -->
<g id="edge40" class="edge"><title>Node6&#45;&gt;Node17</title>
<path fill="none" stroke="midnightblue" d="M1908.84,-390.316C1907.28,-375.961 1902.87,-350.156 1890.68,-332 1882.56,-319.9 1870.83,-309.347 1859.29,-300.858"/>
<polygon fill="midnightblue" stroke="midnightblue" points="1861.17,-297.906 1850.97,-295.049 1857.17,-303.645 1861.17,-297.906"/>
</g>
<!-- Node6&#45;&gt;Node20 -->
<g id="edge178" class="edge"><title>Node6&#45;&gt;Node20</title>
<path fill="none" stroke="midnightblue" d="M1851.19,-398.898C1718.85,-392.92 1387.31,-371.047 1121.68,-296 1083.77,-285.289 1077.28,-274.567 1040.68,-260 996.013,-242.224 975.725,-254.638 938.679,-224 910.131,-200.39 906.348,-187.763 896.679,-152 892.504,-136.554 885.785,-127.718 896.679,-116 934.154,-75.6954 1337.01,-92.2002 1390.68,-80 1391.94,-79.7134 1393.22,-79.3795 1394.5,-79.01"/>
<polygon fill="midnightblue" stroke="midnightblue" points="1395.82,-82.2577 1404.12,-75.6778 1393.53,-75.6432 1395.82,-82.2577"/>
</g>
<!-- Node6&#45;&gt;Node24 -->
<g id="edge180" class="edge"><title>Node6&#45;&gt;Node24</title>
<path fill="none" stroke="midnightblue" d="M1912.16,-390.238C1919.37,-359.015 1940.37,-268.01 1949.89,-226.758"/>
<polygon fill="midnightblue" stroke="midnightblue" points="1953.31,-227.5 1952.15,-216.969 1946.49,-225.926 1953.31,-227.5"/>
</g>
<!-- Node25 -->
<g id="node63" class="node"><title>Node25</title>
<a xlink:href="_calibration_8h.html" target="_top" xlink:title="calibration/Calibration.h">
<polygon fill="white" stroke="black" points="1763.18,-332.5 1763.18,-353.5 1882.18,-353.5 1882.18,-332.5 1763.18,-332.5"/>
<text text-anchor="middle" x="1822.68" y="-340.5" font-family="Helvetica,sans-Serif" font-size="10.00">calibration/Calibration.h</text>
</a>
</g>
<!-- Node6&#45;&gt;Node25 -->
<g id="edge76" class="edge"><title>Node6&#45;&gt;Node25</title>
<path fill="none" stroke="midnightblue" d="M1893.72,-390.362C1880.72,-381.696 1862.15,-369.313 1847.25,-359.382"/>
<polygon fill="midnightblue" stroke="midnightblue" points="1848.8,-356.206 1838.54,-353.571 1844.91,-362.03 1848.8,-356.206"/>
</g>
<!-- Node7&#45;&gt;Node4 -->
<g id="edge34" class="edge"><title>Node7&#45;&gt;Node4</title>
<path fill="none" stroke="midnightblue" d="M2009.15,-195.433C2000.21,-192.465 1990.14,-189.61 1980.68,-188 1829.47,-162.271 741.928,-211.798 600.679,-152 540.268,-126.425 491.105,-62.6797 469.119,-30.3938"/>
<polygon fill="midnightblue" stroke="midnightblue" points="471.869,-28.2086 463.417,-21.8193 466.04,-32.0845 471.869,-28.2086"/>
</g>
<!-- Node7&#45;&gt;Node8 -->
<g id="edge14" class="edge"><title>Node7&#45;&gt;Node8</title>
<path fill="none" stroke="midnightblue" d="M2069.06,-195.476C2078.24,-192.757 2088.29,-190.029 2097.68,-188 2154.26,-175.775 2317.68,-195.67 2355.68,-152 2366.18,-139.93 2364.64,-129.256 2355.68,-116 2341.31,-94.7361 2315.56,-83.091 2291.86,-76.7143"/>
<polygon fill="midnightblue" stroke="midnightblue" points="2292.42,-73.2476 2281.88,-74.2913 2290.77,-80.0503 2292.42,-73.2476"/>
</g>
<!-- Node7&#45;&gt;Node9 -->
<g id="edge38" class="edge"><title>Node7&#45;&gt;Node9</title>
<path fill="none" stroke="midnightblue" d="M2069.05,-195.424C2078.23,-192.705 2088.28,-189.989 2097.68,-188 2157.98,-175.239 2332.03,-198.323 2372.68,-152 2405.47,-114.633 2357.71,-57.4213 2328.88,-28.7183"/>
<polygon fill="midnightblue" stroke="midnightblue" points="2331.29,-26.1843 2321.67,-21.7409 2326.42,-31.2124 2331.29,-26.1843"/>
</g>
<!-- Node11 -->
<g id="node21" class="node"><title>Node11</title>
<a xlink:href="vec3_8h.html" target="_top" xlink:title="base/vec/vec3.h">
<polygon fill="white" stroke="black" points="2483.18,-123.5 2483.18,-144.5 2572.18,-144.5 2572.18,-123.5 2483.18,-123.5"/>
<text text-anchor="middle" x="2527.68" y="-131.5" font-family="Helvetica,sans-Serif" font-size="10.00">base/vec/vec3.h</text>
</a>
</g>
<!-- Node7&#45;&gt;Node11 -->
<g id="edge20" class="edge"><title>Node7&#45;&gt;Node11</title>
<path fill="none" stroke="midnightblue" d="M2068.38,-195.471C2077.73,-192.687 2088.04,-189.925 2097.68,-188 2244.09,-158.754 2283.97,-173.774 2431.68,-152 2445.05,-150.029 2459.4,-147.541 2472.82,-145.049"/>
<polygon fill="midnightblue" stroke="midnightblue" points="2473.69,-148.446 2482.87,-143.151 2472.39,-141.568 2473.69,-148.446"/>
</g>
<!-- Node7&#45;&gt;Node14 -->
<g id="edge30" class="edge"><title>Node7&#45;&gt;Node14</title>
<path fill="none" stroke="midnightblue" d="M2067.72,-195.456C2077.23,-192.602 2087.79,-189.805 2097.68,-188 2309.44,-149.32 2374.62,-214.254 2580.68,-152 2583.14,-151.258 2585.61,-150.304 2588.04,-149.224"/>
<polygon fill="midnightblue" stroke="midnightblue" points="2589.72,-152.292 2597.02,-144.609 2586.52,-146.066 2589.72,-152.292"/>
</g>
<!-- Node7&#45;&gt;Node15 -->
<g id="edge32" class="edge"><title>Node7&#45;&gt;Node15</title>
<path fill="none" stroke="midnightblue" d="M2008.86,-195.411C1999.98,-192.48 1990.03,-189.653 1980.68,-188 1929.98,-179.04 1090.37,-189.105 1054.68,-152 1043.59,-140.469 1043.9,-127.826 1054.68,-116 1082.23,-85.7635 1366.77,-87.7221 1439.79,-79.6369"/>
<polygon fill="midnightblue" stroke="midnightblue" points="1440.53,-83.0663 1449.94,-78.1859 1439.54,-76.1368 1440.53,-83.0663"/>
</g>
<!-- Node16 -->
<g id="node34" class="node"><title>Node16</title>
<polygon fill="white" stroke="#bfbfbf" points="1395.68,-123.5 1395.68,-144.5 1457.68,-144.5 1457.68,-123.5 1395.68,-123.5"/>
<text text-anchor="middle" x="1426.68" y="-131.5" font-family="Helvetica,sans-Serif" font-size="10.00">type_traits</text>
</g>
<!-- Node7&#45;&gt;Node16 -->
<g id="edge36" class="edge"><title>Node7&#45;&gt;Node16</title>
<path fill="none" stroke="midnightblue" d="M2008.54,-195.493C1999.73,-192.604 1989.9,-189.779 1980.68,-188 1755.82,-144.647 1688.77,-207.855 1466.68,-152 1463.07,-151.092 1459.38,-149.875 1455.77,-148.499"/>
<polygon fill="midnightblue" stroke="midnightblue" points="1457.1,-145.262 1446.53,-144.593 1454.38,-151.709 1457.1,-145.262"/>
</g>
<!-- Node8&#45;&gt;Node9 -->
<g id="edge16" class="edge"><title>Node8&#45;&gt;Node9</title>
<path fill="none" stroke="midnightblue" d="M2251.7,-58.3619C2262.11,-49.859 2276.9,-37.7785 2288.93,-27.9466"/>
<polygon fill="midnightblue" stroke="midnightblue" points="2291.21,-30.6077 2296.74,-21.5707 2286.78,-25.1866 2291.21,-30.6077"/>
</g>
<!-- Node10 -->
<g id="node19" class="node"><title>Node10</title>
<polygon fill="white" stroke="#bfbfbf" points="2212.68,-0.5 2212.68,-21.5 2264.68,-21.5 2264.68,-0.5 2212.68,-0.5"/>
<text text-anchor="middle" x="2238.68" y="-8.5" font-family="Helvetica,sans-Serif" font-size="10.00">ostream</text>
</g>
<!-- Node8&#45;&gt;Node10 -->
<g id="edge18" class="edge"><title>Node8&#45;&gt;Node10</title>
<path fill="none" stroke="midnightblue" d="M2238.68,-58.3619C2238.68,-50.9219 2238.68,-40.7427 2238.68,-31.7276"/>
<polygon fill="midnightblue" stroke="midnightblue" points="2242.18,-31.5706 2238.68,-21.5707 2235.18,-31.5707 2242.18,-31.5706"/>
</g>
<!-- Node11&#45;&gt;Node8 -->
<g id="edge22" class="edge"><title>Node11&#45;&gt;Node8</title>
<path fill="none" stroke="midnightblue" d="M2495.63,-123.425C2487.23,-120.828 2478.16,-118.172 2469.68,-116 2409.29,-100.527 2338.98,-86.8276 2291.94,-78.269"/>
<polygon fill="midnightblue" stroke="midnightblue" points="2292.44,-74.8021 2281.97,-76.4694 2291.19,-81.6907 2292.44,-74.8021"/>
</g>
<!-- Node12 -->
<g id="node24" class="node"><title>Node12</title>
<a xlink:href="vec2_8h.html" target="_top" xlink:title="vec2.h">
<polygon fill="white" stroke="black" points="2504.68,-58.5 2504.68,-79.5 2550.68,-79.5 2550.68,-58.5 2504.68,-58.5"/>
<text text-anchor="middle" x="2527.68" y="-66.5" font-family="Helvetica,sans-Serif" font-size="10.00">vec2.h</text>
</a>
</g>
<!-- Node11&#45;&gt;Node12 -->
<g id="edge24" class="edge"><title>Node11&#45;&gt;Node12</title>
<path fill="none" stroke="midnightblue" d="M2527.68,-123.267C2527.68,-114.18 2527.68,-100.892 2527.68,-89.7395"/>
<polygon fill="midnightblue" stroke="midnightblue" points="2531.18,-89.5337 2527.68,-79.5337 2524.18,-89.5337 2531.18,-89.5337"/>
</g>
<!-- Node13 -->
<g id="node26" class="node"><title>Node13</title>
<polygon fill="white" stroke="#bfbfbf" points="2505.68,-0.5 2505.68,-21.5 2549.68,-21.5 2549.68,-0.5 2505.68,-0.5"/>
<text text-anchor="middle" x="2527.68" y="-8.5" font-family="Helvetica,sans-Serif" font-size="10.00">cmath</text>
</g>
<!-- Node11&#45;&gt;Node13 -->
<g id="edge28" class="edge"><title>Node11&#45;&gt;Node13</title>
<path fill="none" stroke="midnightblue" d="M2537.27,-123.428C2549.19,-108.972 2567.1,-82.0797 2559.68,-58 2556.52,-47.7466 2550.28,-37.7278 2544.13,-29.5925"/>
<polygon fill="midnightblue" stroke="midnightblue" points="2546.67,-27.1612 2537.66,-21.5822 2541.23,-31.5603 2546.67,-27.1612"/>
</g>
<!-- Node12&#45;&gt;Node13 -->
<g id="edge26" class="edge"><title>Node12&#45;&gt;Node13</title>
<path fill="none" stroke="midnightblue" d="M2527.68,-58.3619C2527.68,-50.9219 2527.68,-40.7427 2527.68,-31.7276"/>
<polygon fill="midnightblue" stroke="midnightblue" points="2531.18,-31.5706 2527.68,-21.5707 2524.18,-31.5707 2531.18,-31.5706"/>
</g>
<!-- Node17&#45;&gt;Node5 -->
<g id="edge68" class="edge"><title>Node17&#45;&gt;Node5</title>
<path fill="none" stroke="midnightblue" d="M1812.65,-260.933C1796.98,-229.112 1759.66,-159.973 1711.68,-116 1697.23,-102.762 1678.39,-91.8585 1662.12,-83.8975"/>
<polygon fill="midnightblue" stroke="midnightblue" points="1663.42,-80.6444 1652.89,-79.5548 1660.44,-86.9786 1663.42,-80.6444"/>
</g>
<!-- Node17&#45;&gt;Node7 -->
<g id="edge42" class="edge"><title>Node17&#45;&gt;Node7</title>
<path fill="none" stroke="midnightblue" d="M1871.87,-260.937C1909.45,-248.409 1959.87,-231.604 1995,-219.892"/>
<polygon fill="midnightblue" stroke="midnightblue" points="1996.55,-223.065 2004.93,-216.582 1994.34,-216.424 1996.55,-223.065"/>
</g>
<!-- Node18 -->
<g id="node40" class="node"><title>Node18</title>
<a xlink:href="mapped__vectors_8h.html" target="_top" xlink:title="base/std_ext/mapped\l_vectors.h">
<polygon fill="white" stroke="black" points="1521.68,-189 1521.68,-223 1631.68,-223 1631.68,-189 1521.68,-189"/>
<text text-anchor="start" x="1529.68" y="-210" font-family="Helvetica,sans-Serif" font-size="10.00">base/std_ext/mapped</text>
<text text-anchor="middle" x="1576.68" y="-197" font-family="Helvetica,sans-Serif" font-size="10.00">_vectors.h</text>
</a>
</g>
<!-- Node17&#45;&gt;Node18 -->
<g id="edge44" class="edge"><title>Node17&#45;&gt;Node18</title>
<path fill="none" stroke="midnightblue" d="M1762.85,-260.937C1726.5,-250.21 1679.52,-236.348 1641.85,-225.232"/>
<polygon fill="midnightblue" stroke="midnightblue" points="1642.57,-221.795 1631.99,-222.322 1640.59,-228.509 1642.57,-221.795"/>
</g>
<!-- Node17&#45;&gt;Node20 -->
<g id="edge72" class="edge"><title>Node17&#45;&gt;Node20</title>
<path fill="none" stroke="midnightblue" d="M1759.3,-275.054C1655.95,-269.318 1452.16,-254.451 1387.68,-224 1366.64,-214.065 1370.86,-197.628 1349.68,-188 1272.86,-153.08 1028.45,-214.43 971.679,-152 960.915,-140.162 960.861,-127.788 971.679,-116 1003.27,-81.5738 1345.18,-90.6537 1390.68,-80 1391.94,-79.7053 1393.21,-79.3647 1394.49,-78.99"/>
<polygon fill="midnightblue" stroke="midnightblue" points="1395.82,-82.2348 1404.11,-75.6403 1393.52,-75.6243 1395.82,-82.2348"/>
</g>
<!-- Node21 -->
<g id="node50" class="node"><title>Node21</title>
<a xlink:href="shared__ptr__container_8h.html" target="_top" xlink:title="base/std_ext/shared\l_ptr_container.h">
<polygon fill="white" stroke="black" points="2057.18,-117 2057.18,-151 2162.18,-151 2162.18,-117 2057.18,-117"/>
<text text-anchor="start" x="2065.18" y="-138" font-family="Helvetica,sans-Serif" font-size="10.00">base/std_ext/shared</text>
<text text-anchor="middle" x="2109.68" y="-125" font-family="Helvetica,sans-Serif" font-size="10.00">_ptr_container.h</text>
</a>
</g>
<!-- Node17&#45;&gt;Node21 -->
<g id="edge58" class="edge"><title>Node17&#45;&gt;Node21</title>
<path fill="none" stroke="midnightblue" d="M1830.23,-260.907C1842.61,-240.373 1866.16,-206.396 1895.68,-188 1953.13,-152.194 1978.13,-168.908 2043.68,-152 2044.91,-151.683 2046.15,-151.361 2047.4,-151.035"/>
<polygon fill="midnightblue" stroke="midnightblue" points="2048.34,-154.408 2057.12,-148.476 2046.56,-147.638 2048.34,-154.408"/>
</g>
<!-- Node22 -->
<g id="node54" class="node"><title>Node22</title>
<polygon fill="white" stroke="#bfbfbf" points="1674.18,-0.5 1674.18,-21.5 1733.18,-21.5 1733.18,-0.5 1674.18,-0.5"/>
<text text-anchor="middle" x="1703.68" y="-8.5" font-family="Helvetica,sans-Serif" font-size="10.00">functional</text>
</g>
<!-- Node17&#45;&gt;Node22 -->
<g id="edge74" class="edge"><title>Node17&#45;&gt;Node22</title>
<path fill="none" stroke="midnightblue" d="M1822.37,-260.679C1825.32,-240.242 1833.3,-206.685 1854.68,-188 1908.26,-141.178 1966.38,-207.685 2010.68,-152 2020.64,-139.479 2015.25,-131.332 2010.68,-116 2001.87,-86.4692 1998.43,-74.9374 1972.68,-58 1935.63,-33.6267 1809.07,-19.7762 1743.61,-14.0854"/>
<polygon fill="midnightblue" stroke="midnightblue" points="1743.53,-10.5663 1733.27,-13.2104 1742.94,-17.5414 1743.53,-10.5663"/>
</g>
<!-- Node17&#45;&gt;Node24 -->
<g id="edge70" class="edge"><title>Node17&#45;&gt;Node24</title>
<path fill="none" stroke="midnightblue" d="M1852.44,-260.937C1875.49,-248.548 1906.33,-231.977 1928.09,-220.285"/>
<polygon fill="midnightblue" stroke="midnightblue" points="1929.95,-223.26 1937.1,-215.444 1926.64,-217.094 1929.95,-223.26"/>
</g>
<!-- Node18&#45;&gt;Node5 -->
<g id="edge54" class="edge"><title>Node18&#45;&gt;Node5</title>
<path fill="none" stroke="midnightblue" d="M1585.86,-188.815C1591.22,-178.363 1597.85,-164.635 1602.68,-152 1610.63,-131.196 1617.43,-106.605 1621.74,-89.6167"/>
<polygon fill="midnightblue" stroke="midnightblue" points="1625.2,-90.2153 1624.2,-79.6675 1618.4,-88.5351 1625.2,-90.2153"/>
</g>
<!-- Node18&#45;&gt;Node9 -->
<g id="edge52" class="edge"><title>Node18&#45;&gt;Node9</title>
<path fill="none" stroke="midnightblue" d="M1631.7,-203.218C1789.72,-195.022 2235.32,-170.389 2260.68,-152 2299.15,-124.102 2307.65,-63.8222 2309.38,-31.8672"/>
<polygon fill="midnightblue" stroke="midnightblue" points="2312.87,-31.9662 2309.74,-21.8451 2305.88,-31.7108 2312.87,-31.9662"/>
</g>
<!-- Node18&#45;&gt;Node16 -->
<g id="edge56" class="edge"><title>Node18&#45;&gt;Node16</title>
<path fill="none" stroke="midnightblue" d="M1541.13,-188.937C1515.89,-176.822 1482.32,-160.708 1458.07,-149.067"/>
<polygon fill="midnightblue" stroke="midnightblue" points="1459.48,-145.86 1448.95,-144.688 1456.45,-152.171 1459.48,-145.86"/>
</g>
<!-- Node19 -->
<g id="node42" class="node"><title>Node19</title>
<a xlink:href="memory_8h.html" target="_top" xlink:title="base/std_ext/memory.h">
<polygon fill="white" stroke="black" points="1475.18,-123.5 1475.18,-144.5 1594.18,-144.5 1594.18,-123.5 1475.18,-123.5"/>
<text text-anchor="middle" x="1534.68" y="-131.5" font-family="Helvetica,sans-Serif" font-size="10.00">base/std_ext/memory.h</text>
</a>
</g>
<!-- Node18&#45;&gt;Node19 -->
<g id="edge46" class="edge"><title>Node18&#45;&gt;Node19</title>
<path fill="none" stroke="midnightblue" d="M1566.73,-188.937C1560.57,-178.387 1552.65,-164.805 1546.22,-153.785"/>
<polygon fill="midnightblue" stroke="midnightblue" points="1549.1,-151.775 1541.04,-144.901 1543.05,-155.302 1549.1,-151.775"/>
</g>
<!-- Node19&#45;&gt;Node5 -->
<g id="edge48" class="edge"><title>Node19&#45;&gt;Node5</title>
<path fill="none" stroke="midnightblue" d="M1549.87,-123.267C1564.47,-112.949 1586.74,-97.216 1603.55,-85.3421"/>
<polygon fill="midnightblue" stroke="midnightblue" points="1605.62,-88.1626 1611.77,-79.5337 1601.58,-82.4455 1605.62,-88.1626"/>
</g>
<!-- Node19&#45;&gt;Node20 -->
<g id="edge50" class="edge"><title>Node19&#45;&gt;Node20</title>
<path fill="none" stroke="midnightblue" d="M1515.78,-123.412C1495.76,-112.194 1464.11,-94.455 1442.42,-82.3009"/>
<polygon fill="midnightblue" stroke="midnightblue" points="1443.95,-79.1463 1433.51,-77.3112 1440.52,-85.2529 1443.95,-79.1463"/>
</g>
<!-- Node21&#45;&gt;Node5 -->
<g id="edge62" class="edge"><title>Node21&#45;&gt;Node5</title>
<path fill="none" stroke="midnightblue" d="M2057.13,-123.727C2042.16,-120.996 2025.81,-118.197 2010.68,-116 1864.68,-94.7905 1826.45,-102.749 1680.68,-80 1674.81,-79.0833 1668.6,-77.9635 1662.57,-76.7932"/>
<polygon fill="midnightblue" stroke="midnightblue" points="1663.18,-73.3449 1652.68,-74.803 1661.8,-80.2073 1663.18,-73.3449"/>
</g>
<!-- Node21&#45;&gt;Node9 -->
<g id="edge60" class="edge"><title>Node21&#45;&gt;Node9</title>
<path fill="none" stroke="midnightblue" d="M2109.19,-116.761C2109.66,-99.542 2113.18,-73.4708 2128.68,-58 2175.67,-11.0856 2209.68,-39.7081 2273.68,-22 2275.1,-21.6079 2276.54,-21.1997 2278,-20.7813"/>
<polygon fill="midnightblue" stroke="midnightblue" points="2279.05,-24.1217 2287.65,-17.9343 2277.07,-17.408 2279.05,-24.1217"/>
</g>
<!-- Node21&#45;&gt;Node22 -->
<g id="edge64" class="edge"><title>Node21&#45;&gt;Node22</title>
<path fill="none" stroke="midnightblue" d="M2100,-116.898C2088.88,-99.0034 2068.88,-71.6529 2043.68,-58 1992.58,-30.3119 1821.93,-17.53 1743.6,-13.0144"/>
<polygon fill="midnightblue" stroke="midnightblue" points="1743.36,-9.49565 1733.18,-12.4313 1742.97,-16.4847 1743.36,-9.49565"/>
</g>
<!-- Node23 -->
<g id="node56" class="node"><title>Node23</title>
<polygon fill="white" stroke="#bfbfbf" points="784.679,-0.5 784.679,-21.5 840.679,-21.5 840.679,-0.5 784.679,-0.5"/>
<text text-anchor="middle" x="812.679" y="-8.5" font-family="Helvetica,sans-Serif" font-size="10.00">algorithm</text>
</g>
<!-- Node21&#45;&gt;Node23 -->
<g id="edge66" class="edge"><title>Node21&#45;&gt;Node23</title>
<path fill="none" stroke="midnightblue" d="M2086.91,-116.946C2060.85,-98.5303 2016.15,-70.1948 1972.68,-58 1862.8,-27.1775 1039.45,-14.1061 851.016,-11.5013"/>
<polygon fill="midnightblue" stroke="midnightblue" points="850.817,-7.9983 840.77,-11.3613 850.721,-14.9976 850.817,-7.9983"/>
</g>
<!-- Node25&#45;&gt;Node9 -->
<g id="edge172" class="edge"><title>Node25&#45;&gt;Node9</title>
<path fill="none" stroke="midnightblue" d="M1882.26,-338.487C2054.82,-324.061 2548.77,-272.748 2644.68,-152 2728.27,-46.7589 2440.88,-19.0357 2341.95,-12.6908"/>
<polygon fill="midnightblue" stroke="midnightblue" points="2342.11,-9.19399 2331.91,-12.0796 2341.68,-16.181 2342.11,-9.19399"/>
</g>
<!-- Node25&#45;&gt;Node17 -->
<g id="edge78" class="edge"><title>Node25&#45;&gt;Node17</title>
<path fill="none" stroke="midnightblue" d="M1822.35,-332.267C1822.12,-324.931 1821.81,-314.857 1821.52,-305.38"/>
<polygon fill="midnightblue" stroke="midnightblue" points="1825.01,-304.997 1821.21,-295.11 1818.02,-305.213 1825.01,-304.997"/>
</g>
<!-- Node26 -->
<g id="node66" class="node"><title>Node26</title>
<a xlink:href="_manager__traits_8h.html" target="_top" xlink:title="calibration/gui/Manager\l_traits.h">
<polygon fill="white" stroke="black" points="1130.18,-261 1130.18,-295 1247.18,-295 1247.18,-261 1130.18,-261"/>
<text text-anchor="start" x="1138.18" y="-282" font-family="Helvetica,sans-Serif" font-size="10.00">calibration/gui/Manager</text>
<text text-anchor="middle" x="1188.68" y="-269" font-family="Helvetica,sans-Serif" font-size="10.00">_traits.h</text>
</a>
</g>
<!-- Node25&#45;&gt;Node26 -->
<g id="edge80" class="edge"><title>Node25&#45;&gt;Node26</title>
<path fill="none" stroke="midnightblue" d="M1763.03,-336.885C1645.05,-324.789 1382.5,-297.872 1257.46,-285.051"/>
<polygon fill="midnightblue" stroke="midnightblue" points="1257.55,-281.543 1247.24,-284.004 1256.84,-288.506 1257.55,-281.543"/>
</g>
<!-- Node26&#45;&gt;Node4 -->
<g id="edge166" class="edge"><title>Node26&#45;&gt;Node4</title>
<path fill="none" stroke="midnightblue" d="M1129.89,-272.484C960.827,-256.032 482.521,-205.14 437.679,-152 408.627,-117.571 430.614,-60.6324 445.662,-30.7325"/>
<polygon fill="midnightblue" stroke="midnightblue" points="448.855,-32.18 450.415,-21.7006 442.661,-28.9198 448.855,-32.18"/>
</g>
<!-- Node26&#45;&gt;Node5 -->
<g id="edge170" class="edge"><title>Node26&#45;&gt;Node5</title>
<path fill="none" stroke="midnightblue" d="M1187.84,-260.957C1187.58,-242.247 1189.08,-211.713 1199.68,-188 1217.03,-149.179 1224.97,-135.653 1262.68,-116 1390.19,-49.5394 1445.23,-107.468 1590.31,-79.8871"/>
<polygon fill="midnightblue" stroke="midnightblue" points="1591.34,-83.25 1600.45,-77.848 1589.96,-76.3872 1591.34,-83.25"/>
</g>
<!-- Node26&#45;&gt;Node20 -->
<g id="edge168" class="edge"><title>Node26&#45;&gt;Node20</title>
<path fill="none" stroke="midnightblue" d="M1130.1,-270.459C1063.21,-258.371 956.718,-227.731 907.679,-152 898.983,-138.57 896.794,-127.727 907.679,-116 944.291,-76.5578 1338.21,-91.9733 1390.68,-80 1391.94,-79.7124 1393.22,-79.3776 1394.5,-79.0074"/>
<polygon fill="midnightblue" stroke="midnightblue" points="1395.82,-82.2548 1404.12,-75.6731 1393.52,-75.6408 1395.82,-82.2548"/>
</g>
<!-- Node27 -->
<g id="node68" class="node"><title>Node27</title>
<a xlink:href="interval_8h.html" target="_top" xlink:title="base/interval.h">
<polygon fill="white" stroke="black" points="1801.68,-123.5 1801.68,-144.5 1881.68,-144.5 1881.68,-123.5 1801.68,-123.5"/>
<text text-anchor="middle" x="1841.68" y="-131.5" font-family="Helvetica,sans-Serif" font-size="10.00">base/interval.h</text>
</a>
</g>
<!-- Node26&#45;&gt;Node27 -->
<g id="edge82" class="edge"><title>Node26&#45;&gt;Node27</title>
<path fill="none" stroke="midnightblue" d="M1247.2,-276.62C1334.41,-273.315 1503.01,-262.095 1640.68,-224 1705.73,-205.999 1776.65,-170.025 1814.41,-149.427"/>
<polygon fill="midnightblue" stroke="midnightblue" points="1816.2,-152.435 1823.27,-144.542 1812.82,-146.305 1816.2,-152.435"/>
</g>
<!-- Node31 -->
<g id="node79" class="node"><title>Node31</title>
<a xlink:href="_wrap_t_file_8h.html" target="_top" xlink:title="base/WrapTFile.h">
<polygon fill="white" stroke="black" points="609.679,-123.5 609.679,-144.5 703.679,-144.5 703.679,-123.5 609.679,-123.5"/>
<text text-anchor="middle" x="656.679" y="-131.5" font-family="Helvetica,sans-Serif" font-size="10.00">base/WrapTFile.h</text>
</a>
</g>
<!-- Node26&#45;&gt;Node31 -->
<g id="edge96" class="edge"><title>Node26&#45;&gt;Node31</title>
<path fill="none" stroke="midnightblue" d="M1130.17,-261.862C1064.41,-243.754 954.443,-213.565 859.679,-188 807.472,-173.916 747.641,-158.031 706.532,-147.157"/>
<polygon fill="midnightblue" stroke="midnightblue" points="707.322,-143.745 696.76,-144.573 705.533,-150.513 707.322,-143.745"/>
</g>
<!-- Node42 -->
<g id="node111" class="node"><title>Node42</title>
<a xlink:href="_t_i_d_8h.html" target="_top" xlink:title="tree/TID.h">
<polygon fill="white" stroke="black" points="1396.18,-195.5 1396.18,-216.5 1457.18,-216.5 1457.18,-195.5 1396.18,-195.5"/>
<text text-anchor="middle" x="1426.68" y="-203.5" font-family="Helvetica,sans-Serif" font-size="10.00">tree/TID.h</text>
</a>
</g>
<!-- Node26&#45;&gt;Node42 -->
<g id="edge138" class="edge"><title>Node26&#45;&gt;Node42</title>
<path fill="none" stroke="midnightblue" d="M1245.08,-260.937C1288.49,-247.805 1347.43,-229.974 1386.23,-218.236"/>
<polygon fill="midnightblue" stroke="midnightblue" points="1387.57,-221.488 1396.13,-215.242 1385.54,-214.788 1387.57,-221.488"/>
</g>
<!-- Node27&#45;&gt;Node8 -->
<g id="edge84" class="edge"><title>Node27&#45;&gt;Node8</title>
<path fill="none" stroke="midnightblue" d="M1867.02,-123.427C1874.53,-120.642 1882.84,-117.89 1890.68,-116 2016.37,-85.7028 2054.11,-100.943 2185.56,-80.0526"/>
<polygon fill="midnightblue" stroke="midnightblue" points="2186.3,-83.4782 2195.6,-78.415 2185.17,-76.5693 2186.3,-83.4782"/>
</g>
<!-- Node27&#45;&gt;Node15 -->
<g id="edge90" class="edge"><title>Node27&#45;&gt;Node15</title>
<path fill="none" stroke="midnightblue" d="M1801.48,-128.838C1741.81,-120.84 1626.16,-104.056 1519.43,-80.23"/>
<polygon fill="midnightblue" stroke="midnightblue" points="1519.99,-76.7679 1509.46,-77.978 1518.45,-83.5958 1519.99,-76.7679"/>
</g>
<!-- Node27&#45;&gt;Node23 -->
<g id="edge88" class="edge"><title>Node27&#45;&gt;Node23</title>
<path fill="none" stroke="midnightblue" d="M1829.35,-123.471C1806.66,-104.339 1758.77,-65.1789 1738.68,-58 1654.23,-27.8212 1015.06,-14.5677 850.977,-11.6419"/>
<polygon fill="midnightblue" stroke="midnightblue" points="850.927,-8.14053 840.867,-11.464 850.804,-15.1394 850.927,-8.14053"/>
</g>
<!-- Node28 -->
<g id="node71" class="node"><title>Node28</title>
<a xlink:href="types_8h.html" target="_top" xlink:title="types.h">
<polygon fill="white" stroke="black" points="1851.18,-58.5 1851.18,-79.5 1900.18,-79.5 1900.18,-58.5 1851.18,-58.5"/>
<text text-anchor="middle" x="1875.68" y="-66.5" font-family="Helvetica,sans-Serif" font-size="10.00">types.h</text>
</a>
</g>
<!-- Node27&#45;&gt;Node28 -->
<g id="edge86" class="edge"><title>Node27&#45;&gt;Node28</title>
<path fill="none" stroke="midnightblue" d="M1847.29,-123.267C1852.2,-113.896 1859.43,-100.057 1865.37,-88.7004"/>
<polygon fill="midnightblue" stroke="midnightblue" points="1868.64,-90.017 1870.17,-79.5337 1862.43,-86.7724 1868.64,-90.017"/>
</g>
<!-- Node27&#45;&gt;Node29 -->
<g id="edge92" class="edge"><title>Node27&#45;&gt;Node29</title>
<path fill="none" stroke="midnightblue" d="M1820.18,-123.412C1798.12,-112.551 1763.65,-95.5781 1739.08,-83.4785"/>
<polygon fill="midnightblue" stroke="midnightblue" points="1740.39,-80.2212 1729.87,-78.9434 1737.3,-86.5011 1740.39,-80.2212"/>
</g>
<!-- Node30 -->
<g id="node77" class="node"><title>Node30</title>
<polygon fill="white" stroke="#bfbfbf" points="1785.18,-58.5 1785.18,-79.5 1834.18,-79.5 1834.18,-58.5 1785.18,-58.5"/>
<text text-anchor="middle" x="1809.68" y="-66.5" font-family="Helvetica,sans-Serif" font-size="10.00">istream</text>
</g>
<!-- Node27&#45;&gt;Node30 -->
<g id="edge94" class="edge"><title>Node27&#45;&gt;Node30</title>
<path fill="none" stroke="midnightblue" d="M1836.4,-123.267C1831.78,-113.896 1824.97,-100.057 1819.38,-88.7004"/>
<polygon fill="midnightblue" stroke="midnightblue" points="1822.42,-86.9595 1814.87,-79.5337 1816.14,-90.0513 1822.42,-86.9595"/>
</g>
<!-- Node31&#45;&gt;Node4 -->
<g id="edge130" class="edge"><title>Node31&#45;&gt;Node4</title>
<path fill="none" stroke="midnightblue" d="M639.281,-123.3C604.027,-101.619 524.008,-52.4071 482.594,-26.9372"/>
<polygon fill="midnightblue" stroke="midnightblue" points="484.247,-23.8453 473.896,-21.588 480.58,-29.8079 484.247,-23.8453"/>
</g>
<!-- Node31&#45;&gt;Node5 -->
<g id="edge128" class="edge"><title>Node31&#45;&gt;Node5</title>
<path fill="none" stroke="midnightblue" d="M703.836,-131.96C876.024,-124.421 1466.77,-97.7283 1590.3,-79.6627"/>
<polygon fill="midnightblue" stroke="midnightblue" points="1591.18,-83.0664 1600.48,-77.9968 1590.05,-76.1583 1591.18,-83.0664"/>
</g>
<!-- Node31&#45;&gt;Node15 -->
<g id="edge134" class="edge"><title>Node31&#45;&gt;Node15</title>
<path fill="none" stroke="midnightblue" d="M704.032,-129.705C747.181,-125.862 812.683,-120.201 869.679,-116 1120.37,-97.521 1188.93,-122.987 1439.8,-80.0308"/>
<polygon fill="midnightblue" stroke="midnightblue" points="1440.7,-83.4276 1449.95,-78.2722 1439.5,-76.5303 1440.7,-83.4276"/>
</g>
<!-- Node31&#45;&gt;Node20 -->
<g id="edge132" class="edge"><title>Node31&#45;&gt;Node20</title>
<path fill="none" stroke="midnightblue" d="M687.381,-123.422C696.974,-120.529 707.668,-117.721 717.679,-116 1012.89,-65.2673 1097.97,-143.58 1390.68,-80 1391.94,-79.7256 1393.22,-79.4015 1394.51,-79.0398"/>
<polygon fill="midnightblue" stroke="midnightblue" points="1395.81,-82.292 1404.13,-75.7338 1393.54,-75.6715 1395.81,-82.292"/>
</g>
<!-- Node31&#45;&gt;Node22 -->
<g id="edge136" class="edge"><title>Node31&#45;&gt;Node22</title>
<path fill="none" stroke="midnightblue" d="M687.384,-123.438C696.977,-120.547 707.67,-117.734 717.679,-116 998.391,-67.3616 1084.72,-161.601 1357.68,-80 1376.38,-74.4104 1377.27,-64.4733 1395.68,-58 1488.11,-25.5018 1603.92,-15.4624 1663.77,-12.3698"/>
<polygon fill="midnightblue" stroke="midnightblue" points="1664.1,-15.8578 1673.92,-11.8845 1663.77,-8.8658 1664.1,-15.8578"/>
</g>
<!-- Node32 -->
<g id="node81" class="node"><title>Node32</title>
<a xlink:href="string_8h.html" target="_top" xlink:title="base/std_ext/string.h">
<polygon fill="white" stroke="black" points="598.679,-58.5 598.679,-79.5 706.679,-79.5 706.679,-58.5 598.679,-58.5"/>
<text text-anchor="middle" x="652.679" y="-66.5" font-family="Helvetica,sans-Serif" font-size="10.00">base/std_ext/string.h</text>
</a>
</g>
<!-- Node31&#45;&gt;Node32 -->
<g id="edge98" class="edge"><title>Node31&#45;&gt;Node32</title>
<path fill="none" stroke="midnightblue" d="M656.019,-123.267C655.46,-114.18 654.642,-100.892 653.956,-89.7395"/>
<polygon fill="midnightblue" stroke="midnightblue" points="657.435,-89.2998 653.328,-79.5337 650.449,-89.7298 657.435,-89.2998"/>
</g>
<!-- Node34 -->
<g id="node88" class="node"><title>Node34</title>
<a xlink:href="misc_8h.html" target="_top" xlink:title="base/std_ext/misc.h">
<polygon fill="white" stroke="black" points="724.179,-58.5 724.179,-79.5 829.179,-79.5 829.179,-58.5 724.179,-58.5"/>
<text text-anchor="middle" x="776.679" y="-66.5" font-family="Helvetica,sans-Serif" font-size="10.00">base/std_ext/misc.h</text>
</a>
</g>
<!-- Node31&#45;&gt;Node34 -->
<g id="edge108" class="edge"><title>Node31&#45;&gt;Node34</title>
<path fill="none" stroke="midnightblue" d="M676.227,-123.412C695.752,-112.836 725.976,-96.4645 748.173,-84.4408"/>
<polygon fill="midnightblue" stroke="midnightblue" points="750.015,-87.4239 757.141,-79.5835 746.681,-81.2689 750.015,-87.4239"/>
</g>
<!-- Node36 -->
<g id="node94" class="node"><title>Node36</title>
<polygon fill="white" stroke="#bfbfbf" points="922.179,-58.5 922.179,-79.5 969.179,-79.5 969.179,-58.5 922.179,-58.5"/>
<text text-anchor="middle" x="945.679" y="-66.5" font-family="Helvetica,sans-Serif" font-size="10.00">TFile.h</text>
</g>
<!-- Node31&#45;&gt;Node36 -->
<g id="edge116" class="edge"><title>Node31&#45;&gt;Node36</title>
<path fill="none" stroke="midnightblue" d="M690.076,-123.487C698.996,-120.86 708.663,-118.174 717.679,-116 801.656,-95.7503 824.723,-100.335 908.679,-80 909.754,-79.7397 910.844,-79.4673 911.943,-79.1853"/>
<polygon fill="midnightblue" stroke="midnightblue" points="913.171,-82.4779 921.893,-76.463 911.324,-75.7261 913.171,-82.4779"/>
</g>
<!-- Node37 -->
<g id="node96" class="node"><title>Node37</title>
<polygon fill="white" stroke="#bfbfbf" points="986.179,-58.5 986.179,-79.5 1057.18,-79.5 1057.18,-58.5 986.179,-58.5"/>
<text text-anchor="middle" x="1021.68" y="-66.5" font-family="Helvetica,sans-Serif" font-size="10.00">TDirectory.h</text>
</g>
<!-- Node31&#45;&gt;Node37 -->
<g id="edge118" class="edge"><title>Node31&#45;&gt;Node37</title>
<path fill="none" stroke="midnightblue" d="M689.055,-123.47C698.236,-120.751 708.289,-118.024 717.679,-116 828.601,-92.0954 861.369,-101.617 975.877,-80.202"/>
<polygon fill="midnightblue" stroke="midnightblue" points="976.565,-83.634 985.731,-78.3212 975.252,-76.7581 976.565,-83.634"/>
</g>
<!-- Node38 -->
<g id="node98" class="node"><title>Node38</title>
<polygon fill="white" stroke="#bfbfbf" points="1074.68,-58.5 1074.68,-79.5 1126.68,-79.5 1126.68,-58.5 1074.68,-58.5"/>
<text text-anchor="middle" x="1100.68" y="-66.5" font-family="Helvetica,sans-Serif" font-size="10.00">TError.h</text>
</g>
<!-- Node31&#45;&gt;Node38 -->
<g id="edge120" class="edge"><title>Node31&#45;&gt;Node38</title>
<path fill="none" stroke="midnightblue" d="M688.379,-123.445C697.728,-120.66 708.039,-117.904 717.679,-116 866.947,-86.5166 911.499,-110.395 1064.24,-79.9502"/>
<polygon fill="midnightblue" stroke="midnightblue" points="1065.36,-83.2937 1074.46,-77.8651 1063.96,-76.435 1065.36,-83.2937"/>
</g>
<!-- Node39 -->
<g id="node100" class="node"><title>Node39</title>
<polygon fill="white" stroke="#bfbfbf" points="1144.18,-58.5 1144.18,-79.5 1191.18,-79.5 1191.18,-58.5 1144.18,-58.5"/>
<text text-anchor="middle" x="1167.68" y="-66.5" font-family="Helvetica,sans-Serif" font-size="10.00">TList.h</text>
</g>
<!-- Node31&#45;&gt;Node39 -->
<g id="edge122" class="edge"><title>Node31&#45;&gt;Node39</title>
<path fill="none" stroke="midnightblue" d="M688.044,-123.433C697.476,-120.613 707.914,-117.842 717.679,-116 897.693,-82.0466 951.372,-117.314 1134.16,-79.9074"/>
<polygon fill="midnightblue" stroke="midnightblue" points="1135.02,-83.3022 1144.1,-77.8289 1133.59,-76.4504 1135.02,-83.3022"/>
</g>
<!-- Node40 -->
<g id="node102" class="node"><title>Node40</title>
<polygon fill="white" stroke="#bfbfbf" points="1208.68,-58.5 1208.68,-79.5 1282.68,-79.5 1282.68,-58.5 1208.68,-58.5"/>
<text text-anchor="middle" x="1245.68" y="-66.5" font-family="Helvetica,sans-Serif" font-size="10.00">TCollection.h</text>
</g>
<!-- Node31&#45;&gt;Node40 -->
<g id="edge124" class="edge"><title>Node31&#45;&gt;Node40</title>
<path fill="none" stroke="midnightblue" d="M687.717,-123.457C697.23,-120.603 707.795,-117.806 717.679,-116 925.8,-77.9682 985.62,-112.023 1198.69,-79.9271"/>
<polygon fill="midnightblue" stroke="midnightblue" points="1199.27,-83.3788 1208.62,-78.3999 1198.21,-76.4601 1199.27,-83.3788"/>
</g>
<!-- Node41 -->
<g id="node104" class="node"><title>Node41</title>
<polygon fill="white" stroke="#bfbfbf" points="1300.68,-58.5 1300.68,-79.5 1348.68,-79.5 1348.68,-58.5 1300.68,-58.5"/>
<text text-anchor="middle" x="1324.68" y="-66.5" font-family="Helvetica,sans-Serif" font-size="10.00">TKey.h</text>
</g>
<!-- Node31&#45;&gt;Node41 -->
<g id="edge126" class="edge"><title>Node31&#45;&gt;Node41</title>
<path fill="none" stroke="midnightblue" d="M687.391,-123.478C696.984,-120.588 707.676,-117.767 717.679,-116 966.079,-72.1354 1038.86,-127.333 1290.19,-79.8469"/>
<polygon fill="midnightblue" stroke="midnightblue" points="1291.2,-83.2164 1300.36,-77.8883 1289.88,-76.3428 1291.2,-83.2164"/>
</g>
<!-- Node32&#45;&gt;Node4 -->
<g id="edge100" class="edge"><title>Node32&#45;&gt;Node4</title>
<path fill="none" stroke="midnightblue" d="M617.185,-58.4966C579.935,-47.4736 522.006,-30.3314 486.876,-19.9358"/>
<polygon fill="midnightblue" stroke="midnightblue" points="487.764,-16.5484 477.181,-17.0669 485.777,-23.2607 487.764,-16.5484"/>
</g>
<!-- Node32&#45;&gt;Node9 -->
<g id="edge106" class="edge"><title>Node32&#45;&gt;Node9</title>
<path fill="none" stroke="midnightblue" d="M706.905,-59.0012C709.867,-58.6209 712.806,-58.2824 715.679,-58 1060.33,-24.1218 1931.78,-77.1141 2273.68,-22 2274.95,-21.7952 2276.24,-21.5569 2277.53,-21.2914"/>
<polygon fill="midnightblue" stroke="midnightblue" points="2278.57,-24.6389 2287.43,-18.8295 2276.89,-17.8457 2278.57,-24.6389"/>
</g>
<!-- Node32&#45;&gt;Node23 -->
<g id="edge104" class="edge"><title>Node32&#45;&gt;Node23</title>
<path fill="none" stroke="midnightblue" d="M681.654,-58.4966C707.754,-49.0353 746.291,-35.0659 774.82,-24.724"/>
<polygon fill="midnightblue" stroke="midnightblue" points="776.249,-27.9291 784.457,-21.2305 773.863,-21.3481 776.249,-27.9291"/>
</g>
<!-- Node33 -->
<g id="node84" class="node"><title>Node33</title>
<polygon fill="white" stroke="#bfbfbf" points="551.679,-0.5 551.679,-21.5 603.679,-21.5 603.679,-0.5 551.679,-0.5"/>
<text text-anchor="middle" x="577.679" y="-8.5" font-family="Helvetica,sans-Serif" font-size="10.00">sstream</text>
</g>
<!-- Node32&#45;&gt;Node33 -->
<g id="edge102" class="edge"><title>Node32&#45;&gt;Node33</title>
<path fill="none" stroke="midnightblue" d="M638.923,-58.3619C627.928,-49.859 612.307,-37.7785 599.593,-27.9466"/>
<polygon fill="midnightblue" stroke="midnightblue" points="601.4,-24.9195 591.348,-21.5707 597.118,-30.4569 601.4,-24.9195"/>
</g>
<!-- Node34&#45;&gt;Node22 -->
<g id="edge112" class="edge"><title>Node34&#45;&gt;Node22</title>
<path fill="none" stroke="midnightblue" d="M829.203,-59.7078C833.753,-59.0665 838.292,-58.4839 842.679,-58 1157.88,-23.2386 1540.95,-13.8242 1663.77,-11.6103"/>
<polygon fill="midnightblue" stroke="midnightblue" points="1663.9,-15.1086 1673.84,-11.4346 1663.78,-8.10968 1663.9,-15.1086"/>
</g>
<!-- Node34&#45;&gt;Node23 -->
<g id="edge110" class="edge"><title>Node34&#45;&gt;Node23</title>
<path fill="none" stroke="midnightblue" d="M783.282,-58.3619C788.154,-50.5131 794.918,-39.6159 800.729,-30.2527"/>
<polygon fill="midnightblue" stroke="midnightblue" points="803.818,-31.9129 806.118,-21.5707 797.871,-28.2213 803.818,-31.9129"/>
</g>
<!-- Node35 -->
<g id="node92" class="node"><title>Node35</title>
<polygon fill="white" stroke="#bfbfbf" points="714.179,-0.5 714.179,-21.5 767.179,-21.5 767.179,-0.5 714.179,-0.5"/>
<text text-anchor="middle" x="740.679" y="-8.5" font-family="Helvetica,sans-Serif" font-size="10.00">cxxabi.h</text>
</g>
<!-- Node34&#45;&gt;Node35 -->
<g id="edge114" class="edge"><title>Node34&#45;&gt;Node35</title>
<path fill="none" stroke="midnightblue" d="M770.076,-58.3619C765.205,-50.5131 758.441,-39.6159 752.629,-30.2527"/>
<polygon fill="midnightblue" stroke="midnightblue" points="755.488,-28.2213 747.24,-21.5707 749.54,-31.9129 755.488,-28.2213"/>
</g>
<!-- Node42&#45;&gt;Node8 -->
<g id="edge142" class="edge"><title>Node42&#45;&gt;Node8</title>
<path fill="none" stroke="midnightblue" d="M1457.53,-198.318C1473.82,-194.572 1494.22,-190.373 1512.68,-188 1552.9,-182.831 2213.72,-181.371 2241.68,-152 2257.29,-135.597 2252.62,-108.082 2246.68,-89.2627"/>
<polygon fill="midnightblue" stroke="midnightblue" points="2249.89,-87.8526 2243.27,-79.5822 2243.29,-90.177 2249.89,-87.8526"/>
</g>
<!-- Node42&#45;&gt;Node14 -->
<g id="edge156" class="edge"><title>Node42&#45;&gt;Node14</title>
<path fill="none" stroke="midnightblue" d="M1457.51,-198.199C1473.81,-194.42 1494.2,-190.228 1512.68,-188 1748.44,-159.57 2352.01,-216.036 2580.68,-152 2583.29,-151.268 2585.92,-150.281 2588.49,-149.145"/>
<polygon fill="midnightblue" stroke="midnightblue" points="2590.1,-152.253 2597.39,-144.561 2586.89,-146.031 2590.1,-152.253"/>
</g>
<!-- Node42&#45;&gt;Node15 -->
<g id="edge158" class="edge"><title>Node42&#45;&gt;Node15</title>
<path fill="none" stroke="midnightblue" d="M1404.26,-195.372C1397.47,-192.551 1389.89,-189.793 1382.68,-188 1223.92,-148.498 911.044,-236.524 1021.68,-116 1051.81,-83.1802 1362.94,-87.9628 1440,-79.6048"/>
<polygon fill="midnightblue" stroke="midnightblue" points="1440.53,-83.0647 1449.94,-78.2068 1439.55,-76.1328 1440.53,-83.0647"/>
</g>
<!-- Node42&#45;&gt;Node16 -->
<g id="edge152" class="edge"><title>Node42&#45;&gt;Node16</title>
<path fill="none" stroke="midnightblue" d="M1426.68,-195.376C1426.68,-184.741 1426.68,-168.095 1426.68,-154.82"/>
<polygon fill="midnightblue" stroke="midnightblue" points="1430.18,-154.667 1426.68,-144.667 1423.18,-154.667 1430.18,-154.667"/>
</g>
<!-- Node42&#45;&gt;Node20 -->
<g id="edge160" class="edge"><title>Node42&#45;&gt;Node20</title>
<path fill="none" stroke="midnightblue" d="M1404.27,-195.329C1397.48,-192.507 1389.9,-189.76 1382.68,-188 1296.19,-166.912 1043.74,-217.719 983.679,-152 972.886,-140.189 972.876,-127.802 983.679,-116 1044.99,-49.0277 1302.3,-100.813 1390.68,-80 1391.94,-79.7037 1393.21,-79.3619 1394.49,-78.9861"/>
<polygon fill="midnightblue" stroke="midnightblue" points="1395.82,-82.2304 1404.11,-75.6331 1393.52,-75.6206 1395.82,-82.2304"/>
</g>
<!-- Node43 -->
<g id="node113" class="node"><title>Node43</title>
<polygon fill="white" stroke="#bfbfbf" points="1526.68,-58.5 1526.68,-79.5 1582.68,-79.5 1582.68,-58.5 1526.68,-58.5"/>
<text text-anchor="middle" x="1554.68" y="-66.5" font-family="Helvetica,sans-Serif" font-size="10.00">Rtypes.h</text>
</g>
<!-- Node42&#45;&gt;Node43 -->
<g id="edge140" class="edge"><title>Node42&#45;&gt;Node43</title>
<path fill="none" stroke="midnightblue" d="M1402.17,-195.484C1395.87,-192.914 1389.06,-190.256 1382.68,-188 1330.18,-169.437 1295.92,-196.673 1262.68,-152 1253.13,-139.163 1252.19,-128.079 1262.68,-116 1298.38,-74.9068 1446.28,-90.4435 1516.36,-79.7158"/>
<polygon fill="midnightblue" stroke="midnightblue" points="1517.31,-83.0996 1526.51,-77.8449 1516.04,-76.2155 1517.31,-83.0996"/>
</g>
<!-- Node44 -->
<g id="node116" class="node"><title>Node44</title>
<a xlink:href="time_8h.html" target="_top" xlink:title="base/std_ext/time.h">
<polygon fill="white" stroke="black" points="1899.18,-123.5 1899.18,-144.5 2002.18,-144.5 2002.18,-123.5 1899.18,-123.5"/>
<text text-anchor="middle" x="1950.68" y="-131.5" font-family="Helvetica,sans-Serif" font-size="10.00">base/std_ext/time.h</text>
</a>
</g>
<!-- Node42&#45;&gt;Node44 -->
<g id="edge144" class="edge"><title>Node42&#45;&gt;Node44</title>
<path fill="none" stroke="midnightblue" d="M1457.58,-198.663C1473.89,-195.012 1494.28,-190.793 1512.68,-188 1679.53,-162.674 1725.06,-184.403 1890.68,-152 1896.98,-150.767 1903.57,-149.144 1909.98,-147.378"/>
<polygon fill="midnightblue" stroke="midnightblue" points="1911.2,-150.668 1919.83,-144.519 1909.25,-143.945 1911.2,-150.668"/>
</g>
<!-- Node46 -->
<g id="node121" class="node"><title>Node46</title>
<polygon fill="white" stroke="#bfbfbf" points="2137.18,-58.5 2137.18,-79.5 2178.18,-79.5 2178.18,-58.5 2137.18,-58.5"/>
<text text-anchor="middle" x="2157.68" y="-66.5" font-family="Helvetica,sans-Serif" font-size="10.00">ctime</text>
</g>
<!-- Node42&#45;&gt;Node46 -->
<g id="edge164" class="edge"><title>Node42&#45;&gt;Node46</title>
<path fill="none" stroke="midnightblue" d="M1457.53,-198.358C1473.83,-194.623 1494.23,-190.422 1512.68,-188 1585.28,-178.473 2120.34,-205.17 2170.68,-152 2186.57,-135.211 2177.8,-107.392 2168.81,-88.6383"/>
<polygon fill="midnightblue" stroke="midnightblue" points="2171.8,-86.7904 2164.09,-79.5222 2165.58,-90.0112 2171.8,-86.7904"/>
</g>
<!-- Node47 -->
<g id="node124" class="node"><title>Node47</title>
<polygon fill="white" stroke="#bfbfbf" points="1271.68,-123.5 1271.68,-144.5 1309.68,-144.5 1309.68,-123.5 1271.68,-123.5"/>
<text text-anchor="middle" x="1290.68" y="-131.5" font-family="Helvetica,sans-Serif" font-size="10.00">tuple</text>
</g>
<!-- Node42&#45;&gt;Node47 -->
<g id="edge154" class="edge"><title>Node42&#45;&gt;Node47</title>
<path fill="none" stroke="midnightblue" d="M1403.55,-195.324C1381.42,-184.903 1347.28,-168.282 1318.68,-152 1317.55,-151.357 1316.4,-150.688 1315.25,-150.002"/>
<polygon fill="midnightblue" stroke="midnightblue" points="1316.83,-146.867 1306.49,-144.582 1313.15,-152.82 1316.83,-146.867"/>
</g>
<!-- Node48 -->
<g id="node129" class="node"><title>Node48</title>
<polygon fill="white" stroke="#bfbfbf" points="1327.68,-123.5 1327.68,-144.5 1377.68,-144.5 1377.68,-123.5 1327.68,-123.5"/>
<text text-anchor="middle" x="1352.68" y="-131.5" font-family="Helvetica,sans-Serif" font-size="10.00">iomanip</text>
</g>
<!-- Node42&#45;&gt;Node48 -->
<g id="edge162" class="edge"><title>Node42&#45;&gt;Node48</title>
<path fill="none" stroke="midnightblue" d="M1415.76,-195.376C1403.96,-183.89 1384.94,-165.393 1370.87,-151.703"/>
<polygon fill="midnightblue" stroke="midnightblue" points="1373.25,-149.132 1363.64,-144.667 1368.37,-154.15 1373.25,-149.132"/>
</g>
<!-- Node44&#45;&gt;Node32 -->
<g id="edge146" class="edge"><title>Node44&#45;&gt;Node32</title>
<path fill="none" stroke="midnightblue" d="M1921.13,-123.468C1911.54,-120.501 1900.77,-117.639 1890.68,-116 1378.25,-32.7554 1237.23,-131.794 716.926,-79.9841"/>
<polygon fill="midnightblue" stroke="midnightblue" points="717.209,-76.495 706.908,-78.9726 716.505,-83.4596 717.209,-76.495"/>
</g>
<!-- Node45 -->
<g id="node119" class="node"><title>Node45</title>
<polygon fill="white" stroke="#bfbfbf" points="1917.68,-58.5 1917.68,-79.5 1963.68,-79.5 1963.68,-58.5 1917.68,-58.5"/>
<text text-anchor="middle" x="1940.68" y="-66.5" font-family="Helvetica,sans-Serif" font-size="10.00">cstring</text>
</g>
<!-- Node44&#45;&gt;Node45 -->
<g id="edge148" class="edge"><title>Node44&#45;&gt;Node45</title>
<path fill="none" stroke="midnightblue" d="M1949.03,-123.267C1947.63,-114.18 1945.59,-100.892 1943.87,-89.7395"/>
<polygon fill="midnightblue" stroke="midnightblue" points="1947.28,-88.8852 1942.3,-79.5337 1940.36,-89.9497 1947.28,-88.8852"/>
</g>
<!-- Node44&#45;&gt;Node46 -->
<g id="edge150" class="edge"><title>Node44&#45;&gt;Node46</title>
<path fill="none" stroke="midnightblue" d="M1984.4,-123.412C2023.88,-111.015 2088.71,-90.6574 2126.88,-78.6705"/>
<polygon fill="midnightblue" stroke="midnightblue" points="2128.41,-81.8603 2136.9,-75.5251 2126.31,-75.1818 2128.41,-81.8603"/>
</g>
<!-- Node49&#45;&gt;Node2 -->
<g id="edge228" class="edge"><title>Node49&#45;&gt;Node2</title>
<path fill="none" stroke="midnightblue" d="M1630.18,-513.557C1691.92,-501.506 1792.9,-481.794 1855.1,-469.654"/>
<polygon fill="midnightblue" stroke="midnightblue" points="1855.96,-473.051 1865.11,-467.7 1854.62,-466.181 1855.96,-473.051"/>
</g>
<!-- Node49&#45;&gt;Node4 -->
<g id="edge240" class="edge"><title>Node49&#45;&gt;Node4</title>
<path fill="none" stroke="midnightblue" d="M1523.02,-522.158C1432.57,-518.142 1244.44,-505.869 1089.68,-470 590.484,-354.301 299.435,-499.168 4.6794,-80 -0.944912,-72.0017 -1.86724,-65.2627 4.6794,-58 32.9055,-26.6867 329.078,-14.8984 426.098,-11.8596"/>
<polygon fill="midnightblue" stroke="midnightblue" points="426.256,-15.3566 436.145,-11.5542 426.043,-8.35979 426.256,-15.3566"/>
</g>
<!-- Node49&#45;&gt;Node5 -->
<g id="edge238" class="edge"><title>Node49&#45;&gt;Node5</title>
<path fill="none" stroke="midnightblue" d="M1522.77,-521.38C1398.53,-513.874 1102.68,-486.974 1102.68,-401 1102.68,-401 1102.68,-401 1102.68,-343 1102.68,-230.499 1118.55,-174.445 1214.68,-116 1284.06,-73.8156 1493.73,-95.0745 1590.36,-79.7173"/>
<polygon fill="midnightblue" stroke="midnightblue" points="1591.24,-83.1142 1600.46,-77.8879 1590,-76.2262 1591.24,-83.1142"/>
</g>
<!-- Node49&#45;&gt;Node9 -->
<g id="edge242" class="edge"><title>Node49&#45;&gt;Node9</title>
<path fill="none" stroke="midnightblue" d="M1630.39,-522.841C1808.68,-518.713 2379.77,-503.17 2560.68,-470 2660.22,-451.748 2777.68,-502.203 2777.68,-401 2777.68,-401 2777.68,-401 2777.68,-134 2777.68,-43.7444 2447.98,-18.3466 2342.04,-12.5154"/>
<polygon fill="midnightblue" stroke="midnightblue" points="2342.11,-9.01434 2331.94,-11.9821 2341.74,-16.0046 2342.11,-9.01434"/>
</g>
<!-- Node49&#45;&gt;Node14 -->
<g id="edge232" class="edge"><title>Node49&#45;&gt;Node14</title>
<path fill="none" stroke="midnightblue" d="M1630.21,-523.634C1849,-521.445 2663.68,-506.227 2663.68,-401 2663.68,-401 2663.68,-401 2663.68,-278 2663.68,-231.231 2639.48,-180.566 2624.42,-153.565"/>
<polygon fill="midnightblue" stroke="midnightblue" points="2627.36,-151.665 2619.35,-144.739 2621.3,-155.153 2627.36,-151.665"/>
</g>
<!-- Node49&#45;&gt;Node18 -->
<g id="edge230" class="edge"><title>Node49&#45;&gt;Node18</title>
<path fill="none" stroke="midnightblue" d="M1576.68,-506.888C1576.68,-483.127 1576.68,-438.797 1576.68,-401 1576.68,-401 1576.68,-401 1576.68,-343 1576.68,-304.995 1576.68,-261.059 1576.68,-233.402"/>
<polygon fill="midnightblue" stroke="midnightblue" points="1580.18,-233.301 1576.68,-223.301 1573.18,-233.301 1580.18,-233.301"/>
</g>
<!-- Node49&#45;&gt;Node20 -->
<g id="edge236" class="edge"><title>Node49&#45;&gt;Node20</title>
<path fill="none" stroke="midnightblue" d="M1522.96,-521.235C1421.83,-515.398 1207.25,-499.835 1139.68,-470 993.56,-405.484 941.677,-370.347 877.679,-224 864.735,-194.399 869.907,-184.23 867.679,-152 866.576,-136.038 856.761,-127.696 867.679,-116 907.428,-73.4213 1333.85,-92.7985 1390.68,-80 1391.94,-79.716 1393.22,-79.3841 1394.5,-79.0162"/>
<polygon fill="midnightblue" stroke="midnightblue" points="1395.82,-82.2649 1404.12,-75.6895 1393.53,-75.6491 1395.82,-82.2649"/>
</g>
<!-- Node49&#45;&gt;Node46 -->
<g id="edge234" class="edge"><title>Node49&#45;&gt;Node46</title>
<path fill="none" stroke="midnightblue" d="M1587.5,-506.896C1612.27,-469.216 1676.95,-378.7 1754.68,-332 1808.28,-299.8 1844.74,-338.42 1890.68,-296 1928.06,-261.478 1889.27,-220.194 1928.68,-188 2019.02,-114.191 2112.06,-239.965 2188.68,-152 2204.74,-133.56 2188.9,-106.012 2174.58,-87.7809"/>
<polygon fill="midnightblue" stroke="midnightblue" points="2176.91,-85.1075 2167.82,-79.6602 2171.53,-89.5854 2176.91,-85.1075"/>
</g>
<!-- Node50 -->
<g id="node149" class="node"><title>Node50</title>
<a xlink:href="_t_unpacker_message_8h.html" target="_top" xlink:title="tree/TUnpackerMessage.h">
<polygon fill="white" stroke="black" points="1208.68,-195.5 1208.68,-216.5 1340.68,-216.5 1340.68,-195.5 1208.68,-195.5"/>
<text text-anchor="middle" x="1274.68" y="-203.5" font-family="Helvetica,sans-Serif" font-size="10.00">tree/TUnpackerMessage.h</text>
</a>
</g>
<!-- Node49&#45;&gt;Node50 -->
<g id="edge198" class="edge"><title>Node49&#45;&gt;Node50</title>
<path fill="none" stroke="midnightblue" d="M1560.44,-506.903C1508.24,-451.94 1345.05,-280.095 1291.72,-223.946"/>
<polygon fill="midnightblue" stroke="midnightblue" points="1294.1,-221.37 1284.68,-216.529 1289.03,-226.191 1294.1,-221.37"/>
</g>
<!-- Node50&#45;&gt;Node8 -->
<g id="edge226" class="edge"><title>Node50&#45;&gt;Node8</title>
<path fill="none" stroke="midnightblue" d="M1332.58,-195.499C1350.22,-192.646 1369.7,-189.84 1387.68,-188 1474.32,-179.136 2092.84,-191.068 2170.68,-152 2197.86,-138.356 2218.03,-108.351 2229.08,-88.4069"/>
<polygon fill="midnightblue" stroke="midnightblue" points="2232.19,-90.0174 2233.76,-79.5399 2226,-86.7502 2232.19,-90.0174"/>
</g>
<!-- Node51 -->
<g id="node151" class="node"><title>Node51</title>
<a xlink:href="_format_8h.html" target="_top" xlink:title="base/Format.h">
<polygon fill="white" stroke="black" points="310.679,-123.5 310.679,-144.5 390.679,-144.5 390.679,-123.5 310.679,-123.5"/>
<text text-anchor="middle" x="350.679" y="-131.5" font-family="Helvetica,sans-Serif" font-size="10.00">base/Format.h</text>
</a>
</g>
<!-- Node50&#45;&gt;Node51 -->
<g id="edge200" class="edge"><title>Node50&#45;&gt;Node51</title>
<path fill="none" stroke="midnightblue" d="M1208.45,-204.864C1066.54,-201.743 722.862,-190.509 437.679,-152 425.618,-150.371 412.727,-148.037 400.663,-145.586"/>
<polygon fill="midnightblue" stroke="midnightblue" points="401.265,-142.136 390.76,-143.513 399.831,-148.988 401.265,-142.136"/>
</g>
<!-- Node51&#45;&gt;Node4 -->
<g id="edge220" class="edge"><title>Node51&#45;&gt;Node4</title>
<path fill="none" stroke="midnightblue" d="M310.403,-130.477C224.978,-122.596 31.8403,-102.465 12.6794,-80 6.33424,-72.5607 6.13949,-65.2687 12.6794,-58 40.2923,-27.3098 329.432,-15.1505 425.698,-11.9337"/>
<polygon fill="midnightblue" stroke="midnightblue" points="426.061,-15.4238 435.942,-11.6011 425.834,-8.42752 426.061,-15.4238"/>
</g>
<!-- Node51&#45;&gt;Node9 -->
<g id="edge224" class="edge"><title>Node51&#45;&gt;Node9</title>
<path fill="none" stroke="midnightblue" d="M390.791,-124.702C405.476,-121.563 422.269,-118.28 437.679,-116 614.254,-89.8752 666.2,-129.557 837.679,-80 858.303,-74.0399 859.876,-63.298 880.679,-58 1180.76,18.4225 1968.03,-71.6986 2273.68,-22 2274.95,-21.7935 2276.24,-21.5537 2277.53,-21.287"/>
<polygon fill="midnightblue" stroke="midnightblue" points="2278.58,-24.6338 2287.43,-18.8197 2276.88,-17.8415 2278.58,-24.6338"/>
</g>
<!-- Node51&#45;&gt;Node13 -->
<g id="edge208" class="edge"><title>Node51&#45;&gt;Node13</title>
<path fill="none" stroke="midnightblue" d="M390.782,-124.64C405.466,-121.494 422.261,-118.223 437.679,-116 630.126,-88.2517 687.507,-136.086 873.679,-80 893.106,-74.1475 894.093,-63.295 913.679,-58 1066.79,-16.6077 2182.21,-28.6578 2340.68,-22 2394.95,-19.72 2458,-15.7331 2495.27,-13.2369"/>
<polygon fill="midnightblue" stroke="midnightblue" points="2495.78,-16.7104 2505.53,-12.5443 2495.31,-9.72633 2495.78,-16.7104"/>
</g>
<!-- Node51&#45;&gt;Node15 -->
<g id="edge218" class="edge"><title>Node51&#45;&gt;Node15</title>
<path fill="none" stroke="midnightblue" d="M390.729,-124.244C405.409,-121.059 422.213,-117.864 437.679,-116 877.626,-62.9829 998.957,-149.286 1439.82,-79.9637"/>
<polygon fill="midnightblue" stroke="midnightblue" points="1440.64,-83.3779 1449.97,-78.3504 1439.54,-76.4648 1440.64,-83.3779"/>
</g>
<!-- Node51&#45;&gt;Node23 -->
<g id="edge214" class="edge"><title>Node51&#45;&gt;Node23</title>
<path fill="none" stroke="midnightblue" d="M380.165,-123.395C424.973,-107.561 513.101,-77.5155 589.679,-58 668.244,-37.9782 692.133,-41.6992 774.665,-22.0705"/>
<polygon fill="midnightblue" stroke="midnightblue" points="775.58,-25.4502 784.475,-19.6944 773.932,-18.6469 775.58,-25.4502"/>
</g>
<!-- Node51&#45;&gt;Node29 -->
<g id="edge216" class="edge"><title>Node51&#45;&gt;Node29</title>
<path fill="none" stroke="midnightblue" d="M390.723,-124.19C405.401,-120.998 422.207,-117.814 437.679,-116 978.212,-52.6261 1121.85,-149.116 1661.68,-80 1667.4,-79.2671 1673.45,-78.156 1679.24,-76.917"/>
<polygon fill="midnightblue" stroke="midnightblue" points="1680.32,-80.2591 1689.28,-74.6028 1678.75,-73.4379 1680.32,-80.2591"/>
</g>
<!-- Node51&#45;&gt;Node33 -->
<g id="edge222" class="edge"><title>Node51&#45;&gt;Node33</title>
<path fill="none" stroke="midnightblue" d="M310.414,-133.023C235.444,-130.264 79.0215,-119.764 45.6794,-80 39.397,-72.5076 39.0534,-65.1903 45.6794,-58 78.9203,-21.9283 436.874,-26.9126 485.679,-22 504.103,-20.1456 524.559,-17.7348 541.495,-15.643"/>
<polygon fill="midnightblue" stroke="midnightblue" points="542.046,-19.1014 551.535,-14.3895 541.179,-12.1553 542.046,-19.1014"/>
</g>
<!-- Node52 -->
<g id="node153" class="node"><title>Node52</title>
<polygon fill="white" stroke="#bfbfbf" points="54.1794,-58.5 54.1794,-79.5 133.179,-79.5 133.179,-58.5 54.1794,-58.5"/>
<text text-anchor="middle" x="93.6794" y="-66.5" font-family="Helvetica,sans-Serif" font-size="10.00">detail/format.h</text>
</g>
<!-- Node51&#45;&gt;Node52 -->
<g id="edge202" class="edge"><title>Node51&#45;&gt;Node52</title>
<path fill="none" stroke="midnightblue" d="M310.523,-123.844C265.353,-112.42 191.956,-93.8561 143.251,-81.5376"/>
<polygon fill="midnightblue" stroke="midnightblue" points="144.107,-78.1438 133.554,-79.0849 142.39,-84.9301 144.107,-78.1438"/>
</g>
<!-- Node53 -->
<g id="node155" class="node"><title>Node53</title>
<polygon fill="white" stroke="#bfbfbf" points="150.179,-58.5 150.179,-79.5 199.179,-79.5 199.179,-58.5 150.179,-58.5"/>
<text text-anchor="middle" x="174.679" y="-66.5" font-family="Helvetica,sans-Serif" font-size="10.00">stdint.h</text>
</g>
<!-- Node51&#45;&gt;Node53 -->
<g id="edge204" class="edge"><title>Node51&#45;&gt;Node53</title>
<path fill="none" stroke="midnightblue" d="M322.01,-123.412C291.114,-112.002 241.955,-93.8461 209.018,-81.682"/>
<polygon fill="midnightblue" stroke="midnightblue" points="209.949,-78.2947 199.356,-78.1134 207.524,-84.8611 209.949,-78.2947"/>
</g>
<!-- Node54 -->
<g id="node157" class="node"><title>Node54</title>
<polygon fill="white" stroke="#bfbfbf" points="216.179,-58.5 216.179,-79.5 265.179,-79.5 265.179,-58.5 216.179,-58.5"/>
<text text-anchor="middle" x="240.679" y="-66.5" font-family="Helvetica,sans-Serif" font-size="10.00">cassert</text>
</g>
<!-- Node51&#45;&gt;Node54 -->
<g id="edge206" class="edge"><title>Node51&#45;&gt;Node54</title>
<path fill="none" stroke="midnightblue" d="M332.515,-123.267C314.735,-112.76 287.449,-96.6369 267.236,-84.6924"/>
<polygon fill="midnightblue" stroke="midnightblue" points="268.896,-81.6078 258.506,-79.5337 265.334,-87.6343 268.896,-81.6078"/>
</g>
<!-- Node55 -->
<g id="node160" class="node"><title>Node55</title>
<polygon fill="white" stroke="#bfbfbf" points="282.179,-58.5 282.179,-79.5 331.179,-79.5 331.179,-58.5 282.179,-58.5"/>
<text text-anchor="middle" x="306.679" y="-66.5" font-family="Helvetica,sans-Serif" font-size="10.00">cstddef</text>
</g>
<!-- Node51&#45;&gt;Node55 -->
<g id="edge210" class="edge"><title>Node51&#45;&gt;Node55</title>
<path fill="none" stroke="midnightblue" d="M343.414,-123.267C336.942,-113.707 327.323,-99.4964 319.551,-88.0152"/>
<polygon fill="midnightblue" stroke="midnightblue" points="322.314,-85.8528 313.81,-79.5337 316.517,-89.7768 322.314,-85.8528"/>
</g>
<!-- Node56 -->
<g id="node162" class="node"><title>Node56</title>
<polygon fill="white" stroke="#bfbfbf" points="348.179,-58.5 348.179,-79.5 391.179,-79.5 391.179,-58.5 348.179,-58.5"/>
<text text-anchor="middle" x="369.679" y="-66.5" font-family="Helvetica,sans-Serif" font-size="10.00">cstdio</text>
</g>
<!-- Node51&#45;&gt;Node56 -->
<g id="edge212" class="edge"><title>Node51&#45;&gt;Node56</title>
<path fill="none" stroke="midnightblue" d="M353.817,-123.267C356.501,-114.085 360.438,-100.615 363.719,-89.3917"/>
<polygon fill="midnightblue" stroke="midnightblue" points="367.154,-90.1141 366.6,-79.5337 360.435,-88.15 367.154,-90.1141"/>
</g>
<!-- Node57&#45;&gt;Node5 -->
<g id="edge250" class="edge"><title>Node57&#45;&gt;Node5</title>
<path fill="none" stroke="midnightblue" d="M1128.04,-123.44C1136.14,-120.585 1145.17,-117.792 1153.68,-116 1341.63,-76.4051 1398.12,-116.149 1590.6,-79.8313"/>
<polygon fill="midnightblue" stroke="midnightblue" points="1591.31,-83.2588 1600.47,-77.9262 1589.99,-76.3857 1591.31,-83.2588"/>
</g>
<!-- Node57&#45;&gt;Node8 -->
<g id="edge248" class="edge"><title>Node57&#45;&gt;Node8</title>
<path fill="none" stroke="midnightblue" d="M1139.99,-128.926C1172.57,-124.803 1220.61,-119.167 1262.68,-116 1669.2,-85.3967 1777.11,-129.981 2185.63,-79.9289"/>
<polygon fill="midnightblue" stroke="midnightblue" points="2186.15,-83.3914 2195.64,-78.6905 2185.29,-76.4444 2186.15,-83.3914"/>
</g>
<!-- Node57&#45;&gt;Node15 -->
<g id="edge252" class="edge"><title>Node57&#45;&gt;Node15</title>
<path fill="none" stroke="midnightblue" d="M1128.62,-123.476C1136.59,-120.692 1145.4,-117.928 1153.68,-116 1276.12,-87.4854 1313.45,-105.067 1439.86,-80.132"/>
<polygon fill="midnightblue" stroke="midnightblue" points="1440.81,-83.5093 1449.92,-78.095 1439.42,-76.6484 1440.81,-83.5093"/>
</g>
<!-- Node57&#45;&gt;Node43 -->
<g id="edge246" class="edge"><title>Node57&#45;&gt;Node43</title>
<path fill="none" stroke="midnightblue" d="M1128.32,-123.433C1136.36,-120.614 1145.28,-117.842 1153.68,-116 1309.22,-81.8861 1356.23,-110.097 1516.33,-79.9406"/>
<polygon fill="midnightblue" stroke="midnightblue" points="1517.38,-83.3022 1526.54,-77.9686 1516.05,-76.4293 1517.38,-83.3022"/>
</g>
<!-- Node59 -->
<g id="node187" class="node"><title>Node59</title>
<polygon fill="white" stroke="#bfbfbf" points="2805.18,-448.5 2805.18,-469.5 2920.18,-469.5 2920.18,-448.5 2805.18,-448.5"/>
<text text-anchor="middle" x="2862.68" y="-456.5" font-family="Helvetica,sans-Serif" font-size="10.00">detail/easylogging++.h</text>
</g>
<!-- Node58&#45;&gt;Node59 -->
<g id="edge256" class="edge"><title>Node58&#45;&gt;Node59</title>
<path fill="none" stroke="midnightblue" d="M2458.79,-518.447C2526.6,-508.794 2670.35,-488.205 2791.68,-470 2792.76,-469.838 2793.85,-469.674 2794.94,-469.509"/>
<polygon fill="midnightblue" stroke="midnightblue" points="2795.59,-472.951 2804.95,-467.991 2794.54,-466.031 2795.59,-472.951"/>
</g>
</g>
</svg>
