<?xml version="1.0" encoding="UTF-8" standalone="no"?>
<!DOCTYPE svg PUBLIC "-//W3C//DTD SVG 1.1//EN"
 "http://www.w3.org/Graphics/SVG/1.1/DTD/svg11.dtd">
<!-- Generated by graphviz version 2.26.3 (20100126.1600)
 -->
<!-- Title: src/reconstruct/UpdateableManager.cc Pages: 1 -->
<svg width="1552pt" height="420pt"
 viewBox="0.00 0.00 1552.00 420.00" xmlns="http://www.w3.org/2000/svg" xmlns:xlink="http://www.w3.org/1999/xlink">
<g id="graph1" class="graph" transform="scale(1 1) rotate(0) translate(4 416)">
<title>src/reconstruct/UpdateableManager.cc</title>
<polygon fill="white" stroke="white" points="-4,5 -4,-416 1549,-416 1549,5 -4,5"/>
<!-- Node1 -->
<g id="node1" class="node"><title>Node1</title>
<polygon fill="#bfbfbf" stroke="black" points="655,-377 655,-411 789,-411 789,-377 655,-377"/>
<text text-anchor="start" x="663" y="-398" font-family="Helvetica,sans-Serif" font-size="10.00">src/reconstruct/Updateable</text>
<text text-anchor="middle" x="722" y="-385" font-family="Helvetica,sans-Serif" font-size="10.00">Manager.cc</text>
</g>
<!-- Node2 -->
<g id="node3" class="node"><title>Node2</title>
<a xlink:href="_updateable_manager_8h.html" target="_top" xlink:title="UpdateableManager.h">
<polygon fill="white" stroke="black" points="410,-318.5 410,-339.5 522,-339.5 522,-318.5 410,-318.5"/>
<text text-anchor="middle" x="466" y="-326.5" font-family="Helvetica,sans-Serif" font-size="10.00">UpdateableManager.h</text>
</a>
</g>
<!-- Node1&#45;&gt;Node2 -->
<g id="edge2" class="edge"><title>Node1&#45;&gt;Node2</title>
<path fill="none" stroke="midnightblue" d="M654.739,-376.922C611.811,-366.022 557.018,-352.11 517.541,-342.087"/>
<polygon fill="midnightblue" stroke="midnightblue" points="518.152,-338.631 507.598,-339.562 516.429,-345.415 518.152,-338.631"/>
</g>
<!-- Node3 -->
<g id="node5" class="node"><title>Node3</title>
<a xlink:href="_t_i_d_8h.html" target="_top" xlink:title="tree/TID.h">
<polygon fill="white" stroke="black" points="323.5,-195.5 323.5,-216.5 384.5,-216.5 384.5,-195.5 323.5,-195.5"/>
<text text-anchor="middle" x="354" y="-203.5" font-family="Helvetica,sans-Serif" font-size="10.00">tree/TID.h</text>
</a>
</g>
<!-- Node1&#45;&gt;Node3 -->
<g id="edge110" class="edge"><title>Node1&#45;&gt;Node3</title>
<path fill="none" stroke="midnightblue" d="M654.989,-389.373C573.308,-382.61 441.187,-367.707 401,-340 364.123,-314.575 355.917,-257.743 354.26,-226.892"/>
<polygon fill="midnightblue" stroke="midnightblue" points="357.755,-226.677 353.905,-216.807 350.759,-226.924 357.755,-226.677"/>
</g>
<!-- Node18 -->
<g id="node36" class="node"><title>Node18</title>
<polygon fill="white" stroke="#bfbfbf" points="508.5,-123.5 508.5,-144.5 567.5,-144.5 567.5,-123.5 508.5,-123.5"/>
<text text-anchor="middle" x="538" y="-131.5" font-family="Helvetica,sans-Serif" font-size="10.00">stdexcept</text>
</g>
<!-- Node1&#45;&gt;Node18 -->
<g id="edge122" class="edge"><title>Node1&#45;&gt;Node18</title>
<path fill="none" stroke="midnightblue" d="M709.927,-376.941C677.029,-330.454 585.963,-201.774 551.474,-153.04"/>
<polygon fill="midnightblue" stroke="midnightblue" points="554.175,-150.798 545.542,-144.657 548.461,-154.841 554.175,-150.798"/>
</g>
<!-- Node19 -->
<g id="node38" class="node"><title>Node19</title>
<polygon fill="white" stroke="#bfbfbf" points="580.5,-58.5 580.5,-79.5 609.5,-79.5 609.5,-58.5 580.5,-58.5"/>
<text text-anchor="middle" x="595" y="-66.5" font-family="Helvetica,sans-Serif" font-size="10.00">list</text>
</g>
<!-- Node1&#45;&gt;Node19 -->
<g id="edge116" class="edge"><title>Node1&#45;&gt;Node19</title>
<path fill="none" stroke="midnightblue" d="M654.744,-386.046C507.369,-367.707 169,-320.238 169,-271 169,-271 169,-271 169,-206 169,-165.118 157.485,-143.205 188,-116 249.788,-60.9146 473.366,-99.962 570.389,-79.4189"/>
<polygon fill="midnightblue" stroke="midnightblue" points="571.326,-82.7929 580.201,-77.0071 569.655,-75.9952 571.326,-82.7929"/>
</g>
<!-- Node21 -->
<g id="node43" class="node"><title>Node21</title>
<a xlink:href="_reconstruct__traits_8h.html" target="_top" xlink:title="Reconstruct_traits.h">
<polygon fill="white" stroke="black" points="1193.5,-260.5 1193.5,-281.5 1298.5,-281.5 1298.5,-260.5 1193.5,-260.5"/>
<text text-anchor="middle" x="1246" y="-268.5" font-family="Helvetica,sans-Serif" font-size="10.00">Reconstruct_traits.h</text>
</a>
</g>
<!-- Node1&#45;&gt;Node21 -->
<g id="edge108" class="edge"><title>Node1&#45;&gt;Node21</title>
<path fill="none" stroke="midnightblue" d="M789.164,-378.234C893.986,-353.629 1094.46,-306.571 1191.16,-283.873"/>
<polygon fill="midnightblue" stroke="midnightblue" points="1192.09,-287.25 1201.03,-281.557 1190.49,-280.435 1192.09,-287.25"/>
</g>
<!-- Node28 -->
<g id="node65" class="node"><title>Node28</title>
<polygon fill="white" stroke="#bfbfbf" points="1198,-58.5 1198,-79.5 1250,-79.5 1250,-58.5 1198,-58.5"/>
<text text-anchor="middle" x="1224" y="-66.5" font-family="Helvetica,sans-Serif" font-size="10.00">memory</text>
</g>
<!-- Node1&#45;&gt;Node28 -->
<g id="edge118" class="edge"><title>Node1&#45;&gt;Node28</title>
<path fill="none" stroke="midnightblue" d="M789.082,-391.748C880.212,-387.437 1047.64,-375.062 1186,-340 1253.28,-322.95 1274.12,-321.773 1331,-282 1370.13,-254.641 1408.83,-228.154 1383,-188 1362.13,-155.549 1335.5,-174.284 1304,-152 1278.02,-133.624 1253.46,-106.061 1238.57,-87.8085"/>
<polygon fill="midnightblue" stroke="midnightblue" points="1241.05,-85.3058 1232.07,-79.6774 1235.58,-89.675 1241.05,-85.3058"/>
</g>
<!-- Node31 -->
<g id="node79" class="node"><title>Node31</title>
<polygon fill="white" stroke="#bfbfbf" points="1339.5,-195.5 1339.5,-216.5 1374.5,-216.5 1374.5,-195.5 1339.5,-195.5"/>
<text text-anchor="middle" x="1357" y="-203.5" font-family="Helvetica,sans-Serif" font-size="10.00">map</text>
</g>
<!-- Node1&#45;&gt;Node31 -->
<g id="edge120" class="edge"><title>Node1&#45;&gt;Node31</title>
<path fill="none" stroke="midnightblue" d="M789.203,-387.739C924.222,-374.112 1222.72,-338.385 1307,-282 1327.3,-268.419 1341.32,-243.511 1349.24,-225.918"/>
<polygon fill="midnightblue" stroke="midnightblue" points="1352.53,-227.12 1353.2,-216.546 1346.08,-224.396 1352.53,-227.12"/>
</g>
<!-- Node33 -->
<g id="node89" class="node"><title>Node33</title>
<a xlink:href="_logger_8h.html" target="_top" xlink:title="base/Logger.h">
<polygon fill="white" stroke="black" points="1439,-318.5 1439,-339.5 1517,-339.5 1517,-318.5 1439,-318.5"/>
<text text-anchor="middle" x="1478" y="-326.5" font-family="Helvetica,sans-Serif" font-size="10.00">base/Logger.h</text>
</a>
</g>
<!-- Node1&#45;&gt;Node33 -->
<g id="edge112" class="edge"><title>Node1&#45;&gt;Node33</title>
<path fill="none" stroke="midnightblue" d="M789.218,-390.962C913.404,-384.862 1187.02,-369.15 1416,-340 1420.15,-339.472 1424.44,-338.856 1428.74,-338.191"/>
<polygon fill="midnightblue" stroke="midnightblue" points="1429.42,-341.626 1438.73,-336.565 1428.3,-334.717 1429.42,-341.626"/>
</g>
<!-- Node2&#45;&gt;Node3 -->
<g id="edge4" class="edge"><title>Node2&#45;&gt;Node3</title>
<path fill="none" stroke="midnightblue" d="M437.682,-318.481C420.177,-310.727 398.385,-298.629 384,-282 370.221,-266.071 362.334,-243.054 358.139,-226.529"/>
<polygon fill="midnightblue" stroke="midnightblue" points="361.542,-225.709 355.891,-216.747 354.72,-227.277 361.542,-225.709"/>
</g>
<!-- Node2&#45;&gt;Node19 -->
<g id="edge104" class="edge"><title>Node2&#45;&gt;Node19</title>
<path fill="none" stroke="midnightblue" d="M464.552,-318.426C460.572,-285.03 452.698,-180.223 500,-116 501.171,-114.41 543.531,-93.7983 571.285,-80.4041"/>
<polygon fill="midnightblue" stroke="midnightblue" points="572.913,-83.505 580.402,-76.0104 569.874,-77.1991 572.913,-83.505"/>
</g>
<!-- Node2&#45;&gt;Node21 -->
<g id="edge44" class="edge"><title>Node2&#45;&gt;Node21</title>
<path fill="none" stroke="midnightblue" d="M522.175,-327.202C642.91,-322.922 935.977,-310.296 1180,-282 1181.1,-281.873 1182.2,-281.74 1183.32,-281.602"/>
<polygon fill="midnightblue" stroke="midnightblue" points="1184.02,-285.038 1193.47,-280.239 1183.09,-278.101 1184.02,-285.038"/>
</g>
<!-- Node2&#45;&gt;Node28 -->
<g id="edge106" class="edge"><title>Node2&#45;&gt;Node28</title>
<path fill="none" stroke="midnightblue" d="M522.244,-326.923C667.09,-320.564 1048.52,-297.122 1148,-224 1192.91,-190.99 1212.68,-124.139 1220.13,-90.037"/>
<polygon fill="midnightblue" stroke="midnightblue" points="1223.65,-90.3203 1222.21,-79.8238 1216.79,-88.927 1223.65,-90.3203"/>
</g>
<!-- Node32 -->
<g id="node83" class="node"><title>Node32</title>
<polygon fill="white" stroke="#bfbfbf" points="392.5,-260.5 392.5,-281.5 435.5,-281.5 435.5,-260.5 392.5,-260.5"/>
<text text-anchor="middle" x="414" y="-268.5" font-family="Helvetica,sans-Serif" font-size="10.00">queue</text>
</g>
<!-- Node2&#45;&gt;Node32 -->
<g id="edge102" class="edge"><title>Node2&#45;&gt;Node32</title>
<path fill="none" stroke="midnightblue" d="M456.462,-318.362C449.132,-310.186 438.837,-298.702 430.219,-289.091"/>
<polygon fill="midnightblue" stroke="midnightblue" points="432.759,-286.68 423.477,-281.571 427.547,-291.353 432.759,-286.68"/>
</g>
<!-- Node4 -->
<g id="node7" class="node"><title>Node4</title>
<polygon fill="white" stroke="#bfbfbf" points="197,-123.5 197,-144.5 253,-144.5 253,-123.5 197,-123.5"/>
<text text-anchor="middle" x="225" y="-131.5" font-family="Helvetica,sans-Serif" font-size="10.00">Rtypes.h</text>
</g>
<!-- Node3&#45;&gt;Node4 -->
<g id="edge6" class="edge"><title>Node3&#45;&gt;Node4</title>
<path fill="none" stroke="midnightblue" d="M334.966,-195.376C313.339,-183.305 277.837,-163.49 253.041,-149.651"/>
<polygon fill="midnightblue" stroke="midnightblue" points="254.55,-146.485 244.112,-144.667 251.139,-152.597 254.55,-146.485"/>
</g>
<!-- Node5 -->
<g id="node9" class="node"><title>Node5</title>
<a xlink:href="printable_8h.html" target="_top" xlink:title="base/printable.h">
<polygon fill="white" stroke="black" points="692,-58.5 692,-79.5 778,-79.5 778,-58.5 692,-58.5"/>
<text text-anchor="middle" x="735" y="-66.5" font-family="Helvetica,sans-Serif" font-size="10.00">base/printable.h</text>
</a>
</g>
<!-- Node3&#45;&gt;Node5 -->
<g id="edge8" class="edge"><title>Node3&#45;&gt;Node5</title>
<path fill="none" stroke="midnightblue" d="M367.611,-195.269C392.432,-176.258 447.355,-136.717 500,-116 559.821,-92.4593 633.037,-80.2137 681.687,-74.2042"/>
<polygon fill="midnightblue" stroke="midnightblue" points="682.166,-77.672 691.682,-73.0146 681.338,-70.7211 682.166,-77.672"/>
</g>
<!-- Node8 -->
<g id="node15" class="node"><title>Node8</title>
<a xlink:href="time_8h.html" target="_top" xlink:title="base/std_ext/time.h">
<polygon fill="white" stroke="black" points="38.5,-123.5 38.5,-144.5 141.5,-144.5 141.5,-123.5 38.5,-123.5"/>
<text text-anchor="middle" x="90" y="-131.5" font-family="Helvetica,sans-Serif" font-size="10.00">base/std_ext/time.h</text>
</a>
</g>
<!-- Node3&#45;&gt;Node8 -->
<g id="edge14" class="edge"><title>Node3&#45;&gt;Node8</title>
<path fill="none" stroke="midnightblue" d="M323.458,-197.67C278.098,-185.299 192.486,-161.951 138.497,-147.226"/>
<polygon fill="midnightblue" stroke="midnightblue" points="139.369,-143.837 128.801,-144.582 137.527,-150.59 139.369,-143.837"/>
</g>
<!-- Node14 -->
<g id="node28" class="node"><title>Node14</title>
<polygon fill="white" stroke="#bfbfbf" points="-0.5,-58.5 -0.5,-79.5 40.5,-79.5 40.5,-58.5 -0.5,-58.5"/>
<text text-anchor="middle" x="20" y="-66.5" font-family="Helvetica,sans-Serif" font-size="10.00">ctime</text>
</g>
<!-- Node3&#45;&gt;Node14 -->
<g id="edge42" class="edge"><title>Node3&#45;&gt;Node14</title>
<path fill="none" stroke="midnightblue" d="M323.5,-205.403C250.734,-203.304 70.0412,-193.895 30,-152 14.324,-135.598 14.0637,-108.279 16.2377,-89.4917"/>
<polygon fill="midnightblue" stroke="midnightblue" points="19.7055,-89.966 17.7008,-79.5625 12.7803,-88.9454 19.7055,-89.966"/>
</g>
<!-- Node15 -->
<g id="node30" class="node"><title>Node15</title>
<polygon fill="white" stroke="#bfbfbf" points="907,-123.5 907,-144.5 969,-144.5 969,-123.5 907,-123.5"/>
<text text-anchor="middle" x="938" y="-131.5" font-family="Helvetica,sans-Serif" font-size="10.00">type_traits</text>
</g>
<!-- Node3&#45;&gt;Node15 -->
<g id="edge30" class="edge"><title>Node3&#45;&gt;Node15</title>
<path fill="none" stroke="midnightblue" d="M384.849,-204.252C484.929,-198.377 799.77,-178.226 898,-152 901.414,-151.088 904.905,-149.916 908.333,-148.607"/>
<polygon fill="midnightblue" stroke="midnightblue" points="909.85,-151.766 917.708,-144.66 907.134,-145.314 909.85,-151.766"/>
</g>
<!-- Node16 -->
<g id="node32" class="node"><title>Node16</title>
<polygon fill="white" stroke="#bfbfbf" points="271,-123.5 271,-144.5 309,-144.5 309,-123.5 271,-123.5"/>
<text text-anchor="middle" x="290" y="-131.5" font-family="Helvetica,sans-Serif" font-size="10.00">tuple</text>
</g>
<!-- Node3&#45;&gt;Node16 -->
<g id="edge32" class="edge"><title>Node3&#45;&gt;Node16</title>
<path fill="none" stroke="midnightblue" d="M344.557,-195.376C334.536,-184.103 318.511,-166.075 306.416,-152.468"/>
<polygon fill="midnightblue" stroke="midnightblue" points="308.742,-149.816 299.482,-144.667 303.51,-154.467 308.742,-149.816"/>
</g>
<!-- Node17 -->
<g id="node34" class="node"><title>Node17</title>
<polygon fill="white" stroke="#bfbfbf" points="623,-123.5 623,-144.5 669,-144.5 669,-123.5 623,-123.5"/>
<text text-anchor="middle" x="646" y="-131.5" font-family="Helvetica,sans-Serif" font-size="10.00">cstdint</text>
</g>
<!-- Node3&#45;&gt;Node17 -->
<g id="edge34" class="edge"><title>Node3&#45;&gt;Node17</title>
<path fill="none" stroke="midnightblue" d="M384.554,-198.702C427.386,-188.44 507.699,-169.088 576,-152 588.051,-148.985 601.25,-145.61 612.907,-142.604"/>
<polygon fill="midnightblue" stroke="midnightblue" points="613.88,-145.968 622.686,-140.076 612.128,-139.191 613.88,-145.968"/>
</g>
<!-- Node3&#45;&gt;Node18 -->
<g id="edge36" class="edge"><title>Node3&#45;&gt;Node18</title>
<path fill="none" stroke="midnightblue" d="M382.189,-195.495C410.723,-184.793 456.068,-167.599 495,-152 497.838,-150.863 500.775,-149.669 503.72,-148.461"/>
<polygon fill="midnightblue" stroke="midnightblue" points="505.142,-151.66 513.042,-144.6 502.464,-145.193 505.142,-151.66"/>
</g>
<!-- Node3&#45;&gt;Node19 -->
<g id="edge38" class="edge"><title>Node3&#45;&gt;Node19</title>
<path fill="none" stroke="midnightblue" d="M359.861,-195.24C370.819,-176.183 396.286,-136.571 429,-116 481.881,-82.7477 507.863,-100.391 570.565,-79.9597"/>
<polygon fill="midnightblue" stroke="midnightblue" points="571.788,-83.2402 580.09,-76.6584 569.495,-76.6262 571.788,-83.2402"/>
</g>
<!-- Node20 -->
<g id="node40" class="node"><title>Node20</title>
<polygon fill="white" stroke="#bfbfbf" points="327,-123.5 327,-144.5 377,-144.5 377,-123.5 327,-123.5"/>
<text text-anchor="middle" x="352" y="-131.5" font-family="Helvetica,sans-Serif" font-size="10.00">iomanip</text>
</g>
<!-- Node3&#45;&gt;Node20 -->
<g id="edge40" class="edge"><title>Node3&#45;&gt;Node20</title>
<path fill="none" stroke="midnightblue" d="M353.705,-195.376C353.409,-184.741 352.947,-168.095 352.578,-154.82"/>
<polygon fill="midnightblue" stroke="midnightblue" points="356.073,-154.566 352.296,-144.667 349.075,-154.761 356.073,-154.566"/>
</g>
<!-- Node6 -->
<g id="node11" class="node"><title>Node6</title>
<polygon fill="white" stroke="#bfbfbf" points="784,-0.5 784,-21.5 828,-21.5 828,-0.5 784,-0.5"/>
<text text-anchor="middle" x="806" y="-8.5" font-family="Helvetica,sans-Serif" font-size="10.00">vector</text>
</g>
<!-- Node5&#45;&gt;Node6 -->
<g id="edge10" class="edge"><title>Node5&#45;&gt;Node6</title>
<path fill="none" stroke="midnightblue" d="M748.022,-58.3619C758.431,-49.859 773.219,-37.7785 785.255,-27.9466"/>
<polygon fill="midnightblue" stroke="midnightblue" points="787.53,-30.6077 793.06,-21.5707 783.101,-25.1866 787.53,-30.6077"/>
</g>
<!-- Node7 -->
<g id="node13" class="node"><title>Node7</title>
<polygon fill="white" stroke="#bfbfbf" points="709,-0.5 709,-21.5 761,-21.5 761,-0.5 709,-0.5"/>
<text text-anchor="middle" x="735" y="-8.5" font-family="Helvetica,sans-Serif" font-size="10.00">ostream</text>
</g>
<!-- Node5&#45;&gt;Node7 -->
<g id="edge12" class="edge"><title>Node5&#45;&gt;Node7</title>
<path fill="none" stroke="midnightblue" d="M735,-58.3619C735,-50.9219 735,-40.7427 735,-31.7276"/>
<polygon fill="midnightblue" stroke="midnightblue" points="738.5,-31.5706 735,-21.5707 731.5,-31.5707 738.5,-31.5706"/>
</g>
<!-- Node9 -->
<g id="node17" class="node"><title>Node9</title>
<a xlink:href="string_8h.html" target="_top" xlink:title="base/std_ext/string.h">
<polygon fill="white" stroke="black" points="455,-58.5 455,-79.5 563,-79.5 563,-58.5 455,-58.5"/>
<text text-anchor="middle" x="509" y="-66.5" font-family="Helvetica,sans-Serif" font-size="10.00">base/std_ext/string.h</text>
</a>
</g>
<!-- Node8&#45;&gt;Node9 -->
<g id="edge16" class="edge"><title>Node8&#45;&gt;Node9</title>
<path fill="none" stroke="midnightblue" d="M124.531,-123.484C134.314,-120.765 145.018,-118.035 155,-116 255.313,-95.5532 373.504,-81.9289 444.772,-74.8329"/>
<polygon fill="midnightblue" stroke="midnightblue" points="445.329,-78.2951 454.939,-73.8333 444.644,-71.3287 445.329,-78.2951"/>
</g>
<!-- Node13 -->
<g id="node26" class="node"><title>Node13</title>
<polygon fill="white" stroke="#bfbfbf" points="67,-58.5 67,-79.5 113,-79.5 113,-58.5 67,-58.5"/>
<text text-anchor="middle" x="90" y="-66.5" font-family="Helvetica,sans-Serif" font-size="10.00">cstring</text>
</g>
<!-- Node8&#45;&gt;Node13 -->
<g id="edge26" class="edge"><title>Node8&#45;&gt;Node13</title>
<path fill="none" stroke="midnightblue" d="M90,-123.267C90,-114.18 90,-100.892 90,-89.7395"/>
<polygon fill="midnightblue" stroke="midnightblue" points="93.5001,-89.5337 90,-79.5337 86.5001,-89.5337 93.5001,-89.5337"/>
</g>
<!-- Node8&#45;&gt;Node14 -->
<g id="edge28" class="edge"><title>Node8&#45;&gt;Node14</title>
<path fill="none" stroke="midnightblue" d="M78.4409,-123.267C67.7379,-113.328 51.6222,-98.3635 39.0233,-86.6645"/>
<polygon fill="midnightblue" stroke="midnightblue" points="41.0535,-83.7735 31.344,-79.5337 36.2904,-88.903 41.0535,-83.7735"/>
</g>
<!-- Node9&#45;&gt;Node6 -->
<g id="edge24" class="edge"><title>Node9&#45;&gt;Node6</title>
<path fill="none" stroke="midnightblue" d="M563.224,-59.4045C636.717,-46.3743 760.001,-24.4189 770,-22 771.251,-21.6975 772.522,-21.3764 773.803,-21.0415"/>
<polygon fill="midnightblue" stroke="midnightblue" points="774.963,-24.3513 783.645,-18.2789 773.071,-17.6117 774.963,-24.3513"/>
</g>
<!-- Node10 -->
<g id="node19" class="node"><title>Node10</title>
<polygon fill="white" stroke="#bfbfbf" points="597.5,-0.5 597.5,-21.5 638.5,-21.5 638.5,-0.5 597.5,-0.5"/>
<text text-anchor="middle" x="618" y="-8.5" font-family="Helvetica,sans-Serif" font-size="10.00">string</text>
</g>
<!-- Node9&#45;&gt;Node10 -->
<g id="edge18" class="edge"><title>Node9&#45;&gt;Node10</title>
<path fill="none" stroke="midnightblue" d="M528.739,-58.4966C545.61,-49.5194 570.109,-36.4835 589.174,-26.3387"/>
<polygon fill="midnightblue" stroke="midnightblue" points="590.856,-29.4086 598.039,-21.6212 587.567,-23.2289 590.856,-29.4086"/>
</g>
<!-- Node11 -->
<g id="node21" class="node"><title>Node11</title>
<polygon fill="white" stroke="#bfbfbf" points="483,-0.5 483,-21.5 535,-21.5 535,-0.5 483,-0.5"/>
<text text-anchor="middle" x="509" y="-8.5" font-family="Helvetica,sans-Serif" font-size="10.00">sstream</text>
</g>
<!-- Node9&#45;&gt;Node11 -->
<g id="edge20" class="edge"><title>Node9&#45;&gt;Node11</title>
<path fill="none" stroke="midnightblue" d="M509,-58.3619C509,-50.9219 509,-40.7427 509,-31.7276"/>
<polygon fill="midnightblue" stroke="midnightblue" points="512.5,-31.5706 509,-21.5707 505.5,-31.5707 512.5,-31.5706"/>
</g>
<!-- Node12 -->
<g id="node23" class="node"><title>Node12</title>
<polygon fill="white" stroke="#bfbfbf" points="1130,-0.5 1130,-21.5 1186,-21.5 1186,-0.5 1130,-0.5"/>
<text text-anchor="middle" x="1158" y="-8.5" font-family="Helvetica,sans-Serif" font-size="10.00">algorithm</text>
</g>
<!-- Node9&#45;&gt;Node12 -->
<g id="edge22" class="edge"><title>Node9&#45;&gt;Node12</title>
<path fill="none" stroke="midnightblue" d="M563.248,-59.1989C566.204,-58.7676 569.136,-58.3641 572,-58 777.705,-31.8496 1026,-17.6038 1119.71,-12.8377"/>
<polygon fill="midnightblue" stroke="midnightblue" points="1120.04,-16.3259 1129.85,-12.3287 1119.69,-9.33473 1120.04,-16.3259"/>
</g>
<!-- Node21&#45;&gt;Node19 -->
<g id="edge98" class="edge"><title>Node21&#45;&gt;Node19</title>
<path fill="none" stroke="midnightblue" d="M1193.39,-268.326C1065.02,-261.542 742.965,-242.857 698,-224 652.655,-204.984 639.432,-194.083 614,-152 602.468,-132.917 597.929,-107.508 596.146,-89.8524"/>
<polygon fill="midnightblue" stroke="midnightblue" points="599.625,-89.4403 595.341,-79.7503 592.647,-89.9969 599.625,-89.4403"/>
</g>
<!-- Node22 -->
<g id="node45" class="node"><title>Node22</title>
<a xlink:href="_detector__t_8h.html" target="_top" xlink:title="base/Detector_t.h">
<polygon fill="white" stroke="black" points="706.5,-195.5 706.5,-216.5 801.5,-216.5 801.5,-195.5 706.5,-195.5"/>
<text text-anchor="middle" x="754" y="-203.5" font-family="Helvetica,sans-Serif" font-size="10.00">base/Detector_t.h</text>
</a>
</g>
<!-- Node21&#45;&gt;Node22 -->
<g id="edge46" class="edge"><title>Node21&#45;&gt;Node22</title>
<path fill="none" stroke="midnightblue" d="M1193.35,-264.044C1100.43,-251.768 908.077,-226.356 811.69,-213.622"/>
<polygon fill="midnightblue" stroke="midnightblue" points="811.917,-210.121 801.545,-212.281 811.001,-217.061 811.917,-210.121"/>
</g>
<!-- Node26 -->
<g id="node61" class="node"><title>Node26</title>
<a xlink:href="mapped__vectors_8h.html" target="_top" xlink:title="base/std_ext/mapped\l_vectors.h">
<polygon fill="white" stroke="black" points="1029,-189 1029,-223 1139,-223 1139,-189 1029,-189"/>
<text text-anchor="start" x="1037" y="-210" font-family="Helvetica,sans-Serif" font-size="10.00">base/std_ext/mapped</text>
<text text-anchor="middle" x="1084" y="-197" font-family="Helvetica,sans-Serif" font-size="10.00">_vectors.h</text>
</a>
</g>
<!-- Node21&#45;&gt;Node26 -->
<g id="edge70" class="edge"><title>Node21&#45;&gt;Node26</title>
<path fill="none" stroke="midnightblue" d="M1219.61,-260.412C1197.07,-251.37 1163.98,-238.091 1136.13,-226.915"/>
<polygon fill="midnightblue" stroke="midnightblue" points="1137.1,-223.536 1126.52,-223.06 1134.5,-230.033 1137.1,-223.536"/>
</g>
<!-- Node21&#45;&gt;Node28 -->
<g id="edge94" class="edge"><title>Node21&#45;&gt;Node28</title>
<path fill="none" stroke="midnightblue" d="M1244.85,-260.424C1241.37,-228.53 1230.96,-132.865 1226.3,-90.0809"/>
<polygon fill="midnightblue" stroke="midnightblue" points="1229.76,-89.5234 1225.19,-79.9612 1222.8,-90.2814 1229.76,-89.5234"/>
</g>
<!-- Node29 -->
<g id="node71" class="node"><title>Node29</title>
<a xlink:href="shared__ptr__container_8h.html" target="_top" xlink:title="base/std_ext/shared\l_ptr_container.h">
<polygon fill="white" stroke="black" points="1312.5,-117 1312.5,-151 1417.5,-151 1417.5,-117 1312.5,-117"/>
<text text-anchor="start" x="1320.5" y="-138" font-family="Helvetica,sans-Serif" font-size="10.00">base/std_ext/shared</text>
<text text-anchor="middle" x="1365" y="-125" font-family="Helvetica,sans-Serif" font-size="10.00">_ptr_container.h</text>
</a>
</g>
<!-- Node21&#45;&gt;Node29 -->
<g id="edge84" class="edge"><title>Node21&#45;&gt;Node29</title>
<path fill="none" stroke="midnightblue" d="M1251.23,-260.278C1259.65,-243.684 1277.34,-211.27 1298,-188 1307.9,-176.853 1320.26,-166.191 1331.66,-157.331"/>
<polygon fill="midnightblue" stroke="midnightblue" points="1333.88,-160.041 1339.74,-151.216 1329.65,-154.458 1333.88,-160.041"/>
</g>
<!-- Node30 -->
<g id="node75" class="node"><title>Node30</title>
<polygon fill="white" stroke="#bfbfbf" points="1364.5,-58.5 1364.5,-79.5 1423.5,-79.5 1423.5,-58.5 1364.5,-58.5"/>
<text text-anchor="middle" x="1394" y="-66.5" font-family="Helvetica,sans-Serif" font-size="10.00">functional</text>
</g>
<!-- Node21&#45;&gt;Node30 -->
<g id="edge100" class="edge"><title>Node21&#45;&gt;Node30</title>
<path fill="none" stroke="midnightblue" d="M1258.27,-260.485C1269,-251.159 1284.88,-237.033 1298,-224 1313.4,-208.706 1313.03,-200.176 1331,-188 1368.38,-162.672 1400.35,-189.156 1426,-152 1439.8,-132.014 1424.57,-105.26 1410.77,-87.5964"/>
<polygon fill="midnightblue" stroke="midnightblue" points="1413.32,-85.1886 1404.24,-79.7248 1407.93,-89.6568 1413.32,-85.1886"/>
</g>
<!-- Node21&#45;&gt;Node31 -->
<g id="edge96" class="edge"><title>Node21&#45;&gt;Node31</title>
<path fill="none" stroke="midnightblue" d="M1264.33,-260.267C1282.38,-249.698 1310.13,-233.445 1330.57,-221.48"/>
<polygon fill="midnightblue" stroke="midnightblue" points="1332.52,-224.393 1339.38,-216.32 1328.98,-218.353 1332.52,-224.393"/>
</g>
<!-- Node22&#45;&gt;Node5 -->
<g id="edge48" class="edge"><title>Node22&#45;&gt;Node5</title>
<path fill="none" stroke="midnightblue" d="M752.509,-195.25C749.36,-172.541 741.983,-119.348 737.88,-89.7682"/>
<polygon fill="midnightblue" stroke="midnightblue" points="741.325,-89.1246 736.484,-79.7002 734.391,-90.0862 741.325,-89.1246"/>
</g>
<!-- Node22&#45;&gt;Node6 -->
<g id="edge68" class="edge"><title>Node22&#45;&gt;Node6</title>
<path fill="none" stroke="midnightblue" d="M756.87,-195.238C765.196,-164.015 789.464,-73.0103 800.465,-31.758"/>
<polygon fill="midnightblue" stroke="midnightblue" points="803.88,-32.5331 803.075,-21.9689 797.116,-30.7294 803.88,-32.5331"/>
</g>
<!-- Node22&#45;&gt;Node10 -->
<g id="edge64" class="edge"><title>Node22&#45;&gt;Node10</title>
<path fill="none" stroke="midnightblue" d="M746.494,-195.238C724.44,-163.617 659.621,-70.6771 631.393,-30.2027"/>
<polygon fill="midnightblue" stroke="midnightblue" points="634.241,-28.1689 625.65,-21.9689 628.5,-32.1733 634.241,-28.1689"/>
</g>
<!-- Node22&#45;&gt;Node15 -->
<g id="edge66" class="edge"><title>Node22&#45;&gt;Node15</title>
<path fill="none" stroke="midnightblue" d="M783.725,-195.483C812.995,-184.98 858.871,-168.121 898,-152 900.64,-150.912 903.366,-149.757 906.094,-148.577"/>
<polygon fill="midnightblue" stroke="midnightblue" points="907.526,-151.771 915.264,-144.534 904.702,-145.366 907.526,-151.771"/>
</g>
<!-- Node22&#45;&gt;Node17 -->
<g id="edge60" class="edge"><title>Node22&#45;&gt;Node17</title>
<path fill="none" stroke="midnightblue" d="M738.064,-195.376C720.277,-183.518 691.28,-164.186 670.582,-150.388"/>
<polygon fill="midnightblue" stroke="midnightblue" points="672.263,-147.302 662.001,-144.667 668.38,-153.127 672.263,-147.302"/>
</g>
<!-- Node22&#45;&gt;Node18 -->
<g id="edge62" class="edge"><title>Node22&#45;&gt;Node18</title>
<path fill="none" stroke="midnightblue" d="M722.128,-195.376C683.561,-182.52 618.639,-160.88 577.088,-147.029"/>
<polygon fill="midnightblue" stroke="midnightblue" points="578.164,-143.699 567.57,-143.857 575.95,-150.34 578.164,-143.699"/>
</g>
<!-- Node23 -->
<g id="node48" class="node"><title>Node23</title>
<a xlink:href="vec3_8h.html" target="_top" xlink:title="base/vec/vec3.h">
<polygon fill="white" stroke="black" points="800.5,-123.5 800.5,-144.5 889.5,-144.5 889.5,-123.5 800.5,-123.5"/>
<text text-anchor="middle" x="845" y="-131.5" font-family="Helvetica,sans-Serif" font-size="10.00">base/vec/vec3.h</text>
</a>
</g>
<!-- Node22&#45;&gt;Node23 -->
<g id="edge50" class="edge"><title>Node22&#45;&gt;Node23</title>
<path fill="none" stroke="midnightblue" d="M767.427,-195.376C782.213,-183.678 806.192,-164.705 823.58,-150.948"/>
<polygon fill="midnightblue" stroke="midnightblue" points="825.847,-153.617 831.518,-144.667 821.504,-148.128 825.847,-153.617"/>
</g>
<!-- Node23&#45;&gt;Node5 -->
<g id="edge52" class="edge"><title>Node23&#45;&gt;Node5</title>
<path fill="none" stroke="midnightblue" d="M826.836,-123.267C809.056,-112.76 781.77,-96.6369 761.556,-84.6924"/>
<polygon fill="midnightblue" stroke="midnightblue" points="763.216,-81.6078 752.826,-79.5337 759.655,-87.6343 763.216,-81.6078"/>
</g>
<!-- Node24 -->
<g id="node51" class="node"><title>Node24</title>
<a xlink:href="vec2_8h.html" target="_top" xlink:title="vec2.h">
<polygon fill="white" stroke="black" points="1025,-58.5 1025,-79.5 1071,-79.5 1071,-58.5 1025,-58.5"/>
<text text-anchor="middle" x="1048" y="-66.5" font-family="Helvetica,sans-Serif" font-size="10.00">vec2.h</text>
</a>
</g>
<!-- Node23&#45;&gt;Node24 -->
<g id="edge54" class="edge"><title>Node23&#45;&gt;Node24</title>
<path fill="none" stroke="midnightblue" d="M875.787,-123.406C883.06,-120.942 890.794,-118.352 898,-116 938.206,-102.876 984.707,-88.4165 1015.14,-79.0488"/>
<polygon fill="midnightblue" stroke="midnightblue" points="1016.29,-82.3591 1024.82,-76.0765 1014.23,-75.6678 1016.29,-82.3591"/>
</g>
<!-- Node25 -->
<g id="node53" class="node"><title>Node25</title>
<polygon fill="white" stroke="#bfbfbf" points="891,-0.5 891,-21.5 935,-21.5 935,-0.5 891,-0.5"/>
<text text-anchor="middle" x="913" y="-8.5" font-family="Helvetica,sans-Serif" font-size="10.00">cmath</text>
</g>
<!-- Node23&#45;&gt;Node25 -->
<g id="edge58" class="edge"><title>Node23&#45;&gt;Node25</title>
<path fill="none" stroke="midnightblue" d="M851.035,-123.085C862.506,-102.335 887.604,-56.9373 902.093,-30.729"/>
<polygon fill="midnightblue" stroke="midnightblue" points="905.301,-32.1604 907.076,-21.7153 899.175,-28.7736 905.301,-32.1604"/>
</g>
<!-- Node24&#45;&gt;Node25 -->
<g id="edge56" class="edge"><title>Node24&#45;&gt;Node25</title>
<path fill="none" stroke="midnightblue" d="M1024.79,-59.0294C1002.56,-49.4793 968.861,-34.9996 944.273,-24.4356"/>
<polygon fill="midnightblue" stroke="midnightblue" points="945.58,-21.1881 935.011,-20.4564 942.817,-27.6196 945.58,-21.1881"/>
</g>
<!-- Node26&#45;&gt;Node6 -->
<g id="edge78" class="edge"><title>Node26&#45;&gt;Node6</title>
<path fill="none" stroke="midnightblue" d="M1061.55,-188.968C1048.11,-178.57 1030.8,-164.845 1016,-152 998.43,-136.752 996.475,-130.139 978,-116 930.892,-79.9475 870.732,-45.5902 835.475,-26.4985"/>
<polygon fill="midnightblue" stroke="midnightblue" points="836.689,-23.1776 826.223,-21.5298 833.377,-29.3445 836.689,-23.1776"/>
</g>
<!-- Node26&#45;&gt;Node15 -->
<g id="edge82" class="edge"><title>Node26&#45;&gt;Node15</title>
<path fill="none" stroke="midnightblue" d="M1049.4,-188.937C1024.94,-176.876 992.446,-160.85 968.867,-149.222"/>
<polygon fill="midnightblue" stroke="midnightblue" points="970.19,-145.972 959.673,-144.688 967.094,-152.25 970.19,-145.972"/>
</g>
<!-- Node27 -->
<g id="node63" class="node"><title>Node27</title>
<a xlink:href="memory_8h.html" target="_top" xlink:title="base/std_ext/memory.h">
<polygon fill="white" stroke="black" points="1024.5,-123.5 1024.5,-144.5 1143.5,-144.5 1143.5,-123.5 1024.5,-123.5"/>
<text text-anchor="middle" x="1084" y="-131.5" font-family="Helvetica,sans-Serif" font-size="10.00">base/std_ext/memory.h</text>
</a>
</g>
<!-- Node26&#45;&gt;Node27 -->
<g id="edge72" class="edge"><title>Node26&#45;&gt;Node27</title>
<path fill="none" stroke="midnightblue" d="M1084,-188.937C1084,-178.814 1084,-165.898 1084,-155.133"/>
<polygon fill="midnightblue" stroke="midnightblue" points="1087.5,-154.901 1084,-144.901 1080.5,-154.901 1087.5,-154.901"/>
</g>
<!-- Node26&#45;&gt;Node28 -->
<g id="edge80" class="edge"><title>Node26&#45;&gt;Node28</title>
<path fill="none" stroke="midnightblue" d="M1107.86,-188.77C1121.33,-178.634 1138.17,-165.241 1152,-152 1173.47,-131.441 1195.48,-105.156 1209.42,-87.7339"/>
<polygon fill="midnightblue" stroke="midnightblue" points="1212.47,-89.5229 1215.93,-79.5087 1206.98,-85.18 1212.47,-89.5229"/>
</g>
<!-- Node27&#45;&gt;Node19 -->
<g id="edge76" class="edge"><title>Node27&#45;&gt;Node19</title>
<path fill="none" stroke="midnightblue" d="M1024.93,-123.466C1009.66,-120.882 993.238,-118.222 978,-116 847.299,-96.9384 814.088,-96.1915 683,-80 661.614,-77.3585 637.311,-74.3176 619.671,-72.1034"/>
<polygon fill="midnightblue" stroke="midnightblue" points="619.993,-68.6165 609.635,-70.8426 619.121,-75.5619 619.993,-68.6165"/>
</g>
<!-- Node27&#45;&gt;Node28 -->
<g id="edge74" class="edge"><title>Node27&#45;&gt;Node28</title>
<path fill="none" stroke="midnightblue" d="M1106.81,-123.412C1129.99,-112.647 1166.11,-95.878 1192.12,-83.8009"/>
<polygon fill="midnightblue" stroke="midnightblue" points="1193.61,-86.9692 1201.2,-79.5835 1190.66,-80.6201 1193.61,-86.9692"/>
</g>
<!-- Node29&#45;&gt;Node6 -->
<g id="edge86" class="edge"><title>Node29&#45;&gt;Node6</title>
<path fill="none" stroke="midnightblue" d="M1347.6,-116.989C1327.91,-98.8949 1293.99,-71.1136 1259,-58 1101.39,1.07609 1049.12,-42.0612 882,-22 867.691,-20.2823 851.914,-18.0538 838.462,-16.0522"/>
<polygon fill="midnightblue" stroke="midnightblue" points="838.654,-12.5416 828.243,-14.5097 837.609,-19.4632 838.654,-12.5416"/>
</g>
<!-- Node29&#45;&gt;Node12 -->
<g id="edge92" class="edge"><title>Node29&#45;&gt;Node12</title>
<path fill="none" stroke="midnightblue" d="M1356.23,-116.703C1346.64,-99.438 1329.68,-73.3306 1308,-58 1274.32,-34.1864 1228.12,-22.109 1195.93,-16.2105"/>
<polygon fill="midnightblue" stroke="midnightblue" points="1196.45,-12.7488 1186,-14.5054 1195.27,-19.6478 1196.45,-12.7488"/>
</g>
<!-- Node29&#45;&gt;Node28 -->
<g id="edge88" class="edge"><title>Node29&#45;&gt;Node28</title>
<path fill="none" stroke="midnightblue" d="M1327.95,-116.922C1305.74,-106.68 1277.75,-93.7774 1256.41,-83.9413"/>
<polygon fill="midnightblue" stroke="midnightblue" points="1257.67,-80.6664 1247.12,-79.6584 1254.74,-87.0234 1257.67,-80.6664"/>
</g>
<!-- Node29&#45;&gt;Node30 -->
<g id="edge90" class="edge"><title>Node29&#45;&gt;Node30</title>
<path fill="none" stroke="midnightblue" d="M1372.62,-116.922C1376.42,-108.395 1381.05,-98.0251 1385.03,-89.1151"/>
<polygon fill="midnightblue" stroke="midnightblue" points="1388.28,-90.4105 1389.16,-79.8521 1381.89,-87.5583 1388.28,-90.4105"/>
</g>
<!-- Node34 -->
<g id="node91" class="node"><title>Node34</title>
<polygon fill="white" stroke="#bfbfbf" points="1429.5,-260.5 1429.5,-281.5 1544.5,-281.5 1544.5,-260.5 1429.5,-260.5"/>
<text text-anchor="middle" x="1487" y="-268.5" font-family="Helvetica,sans-Serif" font-size="10.00">detail/easylogging++.h</text>
</g>
<!-- Node33&#45;&gt;Node34 -->
<g id="edge114" class="edge"><title>Node33&#45;&gt;Node34</title>
<path fill="none" stroke="midnightblue" d="M1479.65,-318.362C1480.81,-310.922 1482.38,-300.743 1483.78,-291.728"/>
<polygon fill="midnightblue" stroke="midnightblue" points="1487.28,-291.989 1485.36,-281.571 1480.37,-290.916 1487.28,-291.989"/>
</g>
</g>
</svg>
