<?xml version="1.0" encoding="UTF-8" standalone="no"?>
<!DOCTYPE svg PUBLIC "-//W3C//DTD SVG 1.1//EN"
 "http://www.w3.org/Graphics/SVG/1.1/DTD/svg11.dtd">
<!-- Generated by graphviz version 2.26.3 (20100126.1600)
 -->
<!-- Title: src/reconstruct/UpdateableManager.h Pages: 1 -->
<svg width="1447pt" height="362pt"
 viewBox="0.00 0.00 1447.00 362.00" xmlns="http://www.w3.org/2000/svg" xmlns:xlink="http://www.w3.org/1999/xlink">
<g id="graph1" class="graph" transform="scale(1 1) rotate(0) translate(4 358)">
<title>src/reconstruct/UpdateableManager.h</title>
<polygon fill="white" stroke="white" points="-4,5 -4,-358 1444,-358 1444,5 -4,5"/>
<!-- Node1 -->
<g id="node1" class="node"><title>Node1</title>
<polygon fill="#bfbfbf" stroke="black" points="1021,-319 1021,-353 1155,-353 1155,-319 1021,-319"/>
<text text-anchor="start" x="1029" y="-340" font-family="Helvetica,sans-Serif" font-size="10.00">src/reconstruct/Updateable</text>
<text text-anchor="middle" x="1088" y="-327" font-family="Helvetica,sans-Serif" font-size="10.00">Manager.h</text>
</g>
<!-- Node2 -->
<g id="node3" class="node"><title>Node2</title>
<a xlink:href="_t_i_d_8h.html" target="_top" xlink:title="tree/TID.h">
<polygon fill="white" stroke="black" points="316.5,-195.5 316.5,-216.5 377.5,-216.5 377.5,-195.5 316.5,-195.5"/>
<text text-anchor="middle" x="347" y="-203.5" font-family="Helvetica,sans-Serif" font-size="10.00">tree/TID.h</text>
</a>
</g>
<!-- Node1&#45;&gt;Node2 -->
<g id="edge2" class="edge"><title>Node1&#45;&gt;Node2</title>
<path fill="none" stroke="midnightblue" d="M1020.8,-334.327C856.399,-329.737 443.485,-315.027 391,-282 370.936,-269.375 359.013,-244.05 352.744,-226.11"/>
<polygon fill="midnightblue" stroke="midnightblue" points="356.067,-225.01 349.687,-216.552 349.4,-227.143 356.067,-225.01"/>
</g>
<!-- Node18 -->
<g id="node36" class="node"><title>Node18</title>
<polygon fill="white" stroke="#bfbfbf" points="528.5,-58.5 528.5,-79.5 557.5,-79.5 557.5,-58.5 528.5,-58.5"/>
<text text-anchor="middle" x="543" y="-66.5" font-family="Helvetica,sans-Serif" font-size="10.00">list</text>
</g>
<!-- Node1&#45;&gt;Node18 -->
<g id="edge102" class="edge"><title>Node1&#45;&gt;Node18</title>
<path fill="none" stroke="midnightblue" d="M1020.93,-328.863C864.842,-310.593 485.788,-256.084 424,-152 415.833,-138.242 414.886,-129.151 424,-116 448.282,-80.9605 474.457,-95.5951 519.011,-79.8824"/>
<polygon fill="midnightblue" stroke="midnightblue" points="520.449,-83.0786 528.487,-76.1767 517.899,-76.5594 520.449,-83.0786"/>
</g>
<!-- Node20 -->
<g id="node41" class="node"><title>Node20</title>
<a xlink:href="_reconstruct__traits_8h.html" target="_top" xlink:title="Reconstruct_traits.h">
<polygon fill="white" stroke="black" points="1035.5,-260.5 1035.5,-281.5 1140.5,-281.5 1140.5,-260.5 1035.5,-260.5"/>
<text text-anchor="middle" x="1088" y="-268.5" font-family="Helvetica,sans-Serif" font-size="10.00">Reconstruct_traits.h</text>
</a>
</g>
<!-- Node1&#45;&gt;Node20 -->
<g id="edge42" class="edge"><title>Node1&#45;&gt;Node20</title>
<path fill="none" stroke="midnightblue" d="M1088,-318.922C1088,-310.67 1088,-300.692 1088,-291.982"/>
<polygon fill="midnightblue" stroke="midnightblue" points="1091.5,-291.852 1088,-281.852 1084.5,-291.852 1091.5,-291.852"/>
</g>
<!-- Node27 -->
<g id="node63" class="node"><title>Node27</title>
<polygon fill="white" stroke="#bfbfbf" points="1271,-58.5 1271,-79.5 1323,-79.5 1323,-58.5 1271,-58.5"/>
<text text-anchor="middle" x="1297" y="-66.5" font-family="Helvetica,sans-Serif" font-size="10.00">memory</text>
</g>
<!-- Node1&#45;&gt;Node27 -->
<g id="edge104" class="edge"><title>Node1&#45;&gt;Node27</title>
<path fill="none" stroke="midnightblue" d="M1129.91,-318.846C1186.74,-292.773 1284.61,-237.033 1315,-152 1322.44,-131.188 1315,-106.293 1307.55,-89.2313"/>
<polygon fill="midnightblue" stroke="midnightblue" points="1310.49,-87.2639 1303.04,-79.7266 1304.16,-90.262 1310.49,-87.2639"/>
</g>
<!-- Node31 -->
<g id="node81" class="node"><title>Node31</title>
<polygon fill="white" stroke="#bfbfbf" points="1396.5,-260.5 1396.5,-281.5 1439.5,-281.5 1439.5,-260.5 1396.5,-260.5"/>
<text text-anchor="middle" x="1418" y="-268.5" font-family="Helvetica,sans-Serif" font-size="10.00">queue</text>
</g>
<!-- Node1&#45;&gt;Node31 -->
<g id="edge100" class="edge"><title>Node1&#45;&gt;Node31</title>
<path fill="none" stroke="midnightblue" d="M1155.28,-326.11C1215.41,-316.699 1305.67,-301.151 1383,-282 1384.08,-281.732 1385.18,-281.449 1386.29,-281.155"/>
<polygon fill="midnightblue" stroke="midnightblue" points="1387.63,-284.411 1396.27,-278.285 1385.7,-277.683 1387.63,-284.411"/>
</g>
<!-- Node3 -->
<g id="node5" class="node"><title>Node3</title>
<polygon fill="white" stroke="#bfbfbf" points="283,-123.5 283,-144.5 339,-144.5 339,-123.5 283,-123.5"/>
<text text-anchor="middle" x="311" y="-131.5" font-family="Helvetica,sans-Serif" font-size="10.00">Rtypes.h</text>
</g>
<!-- Node2&#45;&gt;Node3 -->
<g id="edge4" class="edge"><title>Node2&#45;&gt;Node3</title>
<path fill="none" stroke="midnightblue" d="M341.688,-195.376C336.211,-184.422 327.545,-167.09 320.817,-153.634"/>
<polygon fill="midnightblue" stroke="midnightblue" points="323.936,-152.046 316.334,-144.667 317.675,-155.177 323.936,-152.046"/>
</g>
<!-- Node4 -->
<g id="node7" class="node"><title>Node4</title>
<a xlink:href="printable_8h.html" target="_top" xlink:title="base/printable.h">
<polygon fill="white" stroke="black" points="756,-58.5 756,-79.5 842,-79.5 842,-58.5 756,-58.5"/>
<text text-anchor="middle" x="799" y="-66.5" font-family="Helvetica,sans-Serif" font-size="10.00">base/printable.h</text>
</a>
</g>
<!-- Node2&#45;&gt;Node4 -->
<g id="edge6" class="edge"><title>Node2&#45;&gt;Node4</title>
<path fill="none" stroke="midnightblue" d="M377.658,-205.134C460.165,-202.299 684.811,-191.092 746,-152 769.082,-137.253 784.031,-108.458 791.986,-88.973"/>
<polygon fill="midnightblue" stroke="midnightblue" points="795.304,-90.0955 795.605,-79.5049 788.766,-87.5966 795.304,-90.0955"/>
</g>
<!-- Node7 -->
<g id="node13" class="node"><title>Node7</title>
<a xlink:href="time_8h.html" target="_top" xlink:title="base/std_ext/time.h">
<polygon fill="white" stroke="black" points="38.5,-123.5 38.5,-144.5 141.5,-144.5 141.5,-123.5 38.5,-123.5"/>
<text text-anchor="middle" x="90" y="-131.5" font-family="Helvetica,sans-Serif" font-size="10.00">base/std_ext/time.h</text>
</a>
</g>
<!-- Node2&#45;&gt;Node7 -->
<g id="edge12" class="edge"><title>Node2&#45;&gt;Node7</title>
<path fill="none" stroke="midnightblue" d="M316.226,-197.809C277.404,-187.419 208.629,-168.827 150,-152 144.968,-150.556 139.706,-149.018 134.48,-147.473"/>
<polygon fill="midnightblue" stroke="midnightblue" points="135.125,-144.014 124.542,-144.516 133.129,-150.723 135.125,-144.014"/>
</g>
<!-- Node13 -->
<g id="node26" class="node"><title>Node13</title>
<polygon fill="white" stroke="#bfbfbf" points="-0.5,-58.5 -0.5,-79.5 40.5,-79.5 40.5,-58.5 -0.5,-58.5"/>
<text text-anchor="middle" x="20" y="-66.5" font-family="Helvetica,sans-Serif" font-size="10.00">ctime</text>
</g>
<!-- Node2&#45;&gt;Node13 -->
<g id="edge40" class="edge"><title>Node2&#45;&gt;Node13</title>
<path fill="none" stroke="midnightblue" d="M316.36,-205.274C244.642,-202.897 68.9819,-192.933 30,-152 14.3534,-135.57 14.0866,-108.258 16.251,-89.4789"/>
<polygon fill="midnightblue" stroke="midnightblue" points="19.7182,-89.9577 17.7085,-79.5552 12.7925,-88.9405 19.7182,-89.9577"/>
</g>
<!-- Node14 -->
<g id="node28" class="node"><title>Node14</title>
<polygon fill="white" stroke="#bfbfbf" points="831,-123.5 831,-144.5 893,-144.5 893,-123.5 831,-123.5"/>
<text text-anchor="middle" x="862" y="-131.5" font-family="Helvetica,sans-Serif" font-size="10.00">type_traits</text>
</g>
<!-- Node2&#45;&gt;Node14 -->
<g id="edge28" class="edge"><title>Node2&#45;&gt;Node14</title>
<path fill="none" stroke="midnightblue" d="M377.515,-203.131C448.335,-196.266 629.24,-177.547 779,-152 792.783,-149.649 807.744,-146.57 821.118,-143.624"/>
<polygon fill="midnightblue" stroke="midnightblue" points="821.998,-147.014 830.991,-141.413 820.468,-140.184 821.998,-147.014"/>
</g>
<!-- Node15 -->
<g id="node30" class="node"><title>Node15</title>
<polygon fill="white" stroke="#bfbfbf" points="159,-123.5 159,-144.5 197,-144.5 197,-123.5 159,-123.5"/>
<text text-anchor="middle" x="178" y="-131.5" font-family="Helvetica,sans-Serif" font-size="10.00">tuple</text>
</g>
<!-- Node2&#45;&gt;Node15 -->
<g id="edge30" class="edge"><title>Node2&#45;&gt;Node15</title>
<path fill="none" stroke="midnightblue" d="M316.245,-196.264C287.147,-186.582 242.602,-170.526 206,-152 204.679,-151.331 203.341,-150.616 202.005,-149.87"/>
<polygon fill="midnightblue" stroke="midnightblue" points="203.736,-146.828 193.362,-144.677 200.131,-152.828 203.736,-146.828"/>
</g>
<!-- Node16 -->
<g id="node32" class="node"><title>Node16</title>
<polygon fill="white" stroke="#bfbfbf" points="433,-123.5 433,-144.5 479,-144.5 479,-123.5 433,-123.5"/>
<text text-anchor="middle" x="456" y="-131.5" font-family="Helvetica,sans-Serif" font-size="10.00">cstdint</text>
</g>
<!-- Node2&#45;&gt;Node16 -->
<g id="edge32" class="edge"><title>Node2&#45;&gt;Node16</title>
<path fill="none" stroke="midnightblue" d="M363.083,-195.376C381.116,-183.465 410.564,-164.013 431.471,-150.202"/>
<polygon fill="midnightblue" stroke="midnightblue" points="433.436,-153.099 439.851,-144.667 429.578,-147.259 433.436,-153.099"/>
</g>
<!-- Node17 -->
<g id="node34" class="node"><title>Node17</title>
<polygon fill="white" stroke="#bfbfbf" points="534.5,-123.5 534.5,-144.5 593.5,-144.5 593.5,-123.5 534.5,-123.5"/>
<text text-anchor="middle" x="564" y="-131.5" font-family="Helvetica,sans-Serif" font-size="10.00">stdexcept</text>
</g>
<!-- Node2&#45;&gt;Node17 -->
<g id="edge34" class="edge"><title>Node2&#45;&gt;Node17</title>
<path fill="none" stroke="midnightblue" d="M377.631,-195.837C416.135,-183.061 482.292,-161.111 524.547,-147.091"/>
<polygon fill="midnightblue" stroke="midnightblue" points="525.833,-150.351 534.222,-143.88 523.628,-143.708 525.833,-150.351"/>
</g>
<!-- Node2&#45;&gt;Node18 -->
<g id="edge36" class="edge"><title>Node2&#45;&gt;Node18</title>
<path fill="none" stroke="midnightblue" d="M349.201,-195.354C353.666,-176.476 365.601,-137.139 391,-116 434.428,-79.8559 461.431,-98.7419 518.624,-79.9541"/>
<polygon fill="midnightblue" stroke="midnightblue" points="519.816,-83.2449 528.069,-76.6012 517.474,-76.6482 519.816,-83.2449"/>
</g>
<!-- Node19 -->
<g id="node38" class="node"><title>Node19</title>
<polygon fill="white" stroke="#bfbfbf" points="215,-123.5 215,-144.5 265,-144.5 265,-123.5 215,-123.5"/>
<text text-anchor="middle" x="240" y="-131.5" font-family="Helvetica,sans-Serif" font-size="10.00">iomanip</text>
</g>
<!-- Node2&#45;&gt;Node19 -->
<g id="edge38" class="edge"><title>Node2&#45;&gt;Node19</title>
<path fill="none" stroke="midnightblue" d="M331.212,-195.376C313.589,-183.518 284.86,-164.186 264.354,-150.388"/>
<polygon fill="midnightblue" stroke="midnightblue" points="266.104,-147.346 255.853,-144.667 262.196,-153.154 266.104,-147.346"/>
</g>
<!-- Node5 -->
<g id="node9" class="node"><title>Node5</title>
<polygon fill="white" stroke="#bfbfbf" points="899,-0.5 899,-21.5 943,-21.5 943,-0.5 899,-0.5"/>
<text text-anchor="middle" x="921" y="-8.5" font-family="Helvetica,sans-Serif" font-size="10.00">vector</text>
</g>
<!-- Node4&#45;&gt;Node5 -->
<g id="edge8" class="edge"><title>Node4&#45;&gt;Node5</title>
<path fill="none" stroke="midnightblue" d="M821.093,-58.4966C840.234,-49.397 868.146,-36.1273 889.605,-25.9253"/>
<polygon fill="midnightblue" stroke="midnightblue" points="891.13,-29.0758 898.659,-21.6212 888.125,-22.7539 891.13,-29.0758"/>
</g>
<!-- Node6 -->
<g id="node11" class="node"><title>Node6</title>
<polygon fill="white" stroke="#bfbfbf" points="773,-0.5 773,-21.5 825,-21.5 825,-0.5 773,-0.5"/>
<text text-anchor="middle" x="799" y="-8.5" font-family="Helvetica,sans-Serif" font-size="10.00">ostream</text>
</g>
<!-- Node4&#45;&gt;Node6 -->
<g id="edge10" class="edge"><title>Node4&#45;&gt;Node6</title>
<path fill="none" stroke="midnightblue" d="M799,-58.3619C799,-50.9219 799,-40.7427 799,-31.7276"/>
<polygon fill="midnightblue" stroke="midnightblue" points="802.5,-31.5706 799,-21.5707 795.5,-31.5707 802.5,-31.5706"/>
</g>
<!-- Node8 -->
<g id="node15" class="node"><title>Node8</title>
<a xlink:href="string_8h.html" target="_top" xlink:title="base/std_ext/string.h">
<polygon fill="white" stroke="black" points="403,-58.5 403,-79.5 511,-79.5 511,-58.5 403,-58.5"/>
<text text-anchor="middle" x="457" y="-66.5" font-family="Helvetica,sans-Serif" font-size="10.00">base/std_ext/string.h</text>
</a>
</g>
<!-- Node7&#45;&gt;Node8 -->
<g id="edge14" class="edge"><title>Node7&#45;&gt;Node8</title>
<path fill="none" stroke="midnightblue" d="M122.165,-123.45C131.111,-120.763 140.876,-118.056 150,-116 232.961,-97.3015 330.226,-83.8032 392.681,-76.1949"/>
<polygon fill="midnightblue" stroke="midnightblue" points="393.27,-79.6494 402.78,-74.9791 392.433,-72.6996 393.27,-79.6494"/>
</g>
<!-- Node12 -->
<g id="node24" class="node"><title>Node12</title>
<polygon fill="white" stroke="#bfbfbf" points="67,-58.5 67,-79.5 113,-79.5 113,-58.5 67,-58.5"/>
<text text-anchor="middle" x="90" y="-66.5" font-family="Helvetica,sans-Serif" font-size="10.00">cstring</text>
</g>
<!-- Node7&#45;&gt;Node12 -->
<g id="edge24" class="edge"><title>Node7&#45;&gt;Node12</title>
<path fill="none" stroke="midnightblue" d="M90,-123.267C90,-114.18 90,-100.892 90,-89.7395"/>
<polygon fill="midnightblue" stroke="midnightblue" points="93.5001,-89.5337 90,-79.5337 86.5001,-89.5337 93.5001,-89.5337"/>
</g>
<!-- Node7&#45;&gt;Node13 -->
<g id="edge26" class="edge"><title>Node7&#45;&gt;Node13</title>
<path fill="none" stroke="midnightblue" d="M78.4409,-123.267C67.7379,-113.328 51.6222,-98.3635 39.0233,-86.6645"/>
<polygon fill="midnightblue" stroke="midnightblue" points="41.0535,-83.7735 31.344,-79.5337 36.2904,-88.903 41.0535,-83.7735"/>
</g>
<!-- Node8&#45;&gt;Node5 -->
<g id="edge22" class="edge"><title>Node8&#45;&gt;Node5</title>
<path fill="none" stroke="midnightblue" d="M511.264,-59.3171C514.216,-58.8553 517.143,-58.4128 520,-58 659.026,-37.9109 694.54,-38.8104 834,-22 852.103,-19.8179 872.309,-17.27 888.688,-15.1761"/>
<polygon fill="midnightblue" stroke="midnightblue" points="889.365,-18.618 898.839,-13.8741 888.475,-11.6749 889.365,-18.618"/>
</g>
<!-- Node9 -->
<g id="node17" class="node"><title>Node9</title>
<polygon fill="white" stroke="#bfbfbf" points="508.5,-0.5 508.5,-21.5 549.5,-21.5 549.5,-0.5 508.5,-0.5"/>
<text text-anchor="middle" x="529" y="-8.5" font-family="Helvetica,sans-Serif" font-size="10.00">string</text>
</g>
<!-- Node8&#45;&gt;Node9 -->
<g id="edge16" class="edge"><title>Node8&#45;&gt;Node9</title>
<path fill="none" stroke="midnightblue" d="M470.206,-58.3619C480.761,-49.859 495.758,-37.7785 507.963,-27.9466"/>
<polygon fill="midnightblue" stroke="midnightblue" points="510.286,-30.5696 515.878,-21.5707 505.895,-25.1183 510.286,-30.5696"/>
</g>
<!-- Node10 -->
<g id="node19" class="node"><title>Node10</title>
<polygon fill="white" stroke="#bfbfbf" points="431,-0.5 431,-21.5 483,-21.5 483,-0.5 431,-0.5"/>
<text text-anchor="middle" x="457" y="-8.5" font-family="Helvetica,sans-Serif" font-size="10.00">sstream</text>
</g>
<!-- Node8&#45;&gt;Node10 -->
<g id="edge18" class="edge"><title>Node8&#45;&gt;Node10</title>
<path fill="none" stroke="midnightblue" d="M457,-58.3619C457,-50.9219 457,-40.7427 457,-31.7276"/>
<polygon fill="midnightblue" stroke="midnightblue" points="460.5,-31.5706 457,-21.5707 453.5,-31.5707 460.5,-31.5706"/>
</g>
<!-- Node11 -->
<g id="node21" class="node"><title>Node11</title>
<polygon fill="white" stroke="#bfbfbf" points="583,-0.5 583,-21.5 639,-21.5 639,-0.5 583,-0.5"/>
<text text-anchor="middle" x="611" y="-8.5" font-family="Helvetica,sans-Serif" font-size="10.00">algorithm</text>
</g>
<!-- Node8&#45;&gt;Node11 -->
<g id="edge20" class="edge"><title>Node8&#45;&gt;Node11</title>
<path fill="none" stroke="midnightblue" d="M484.888,-58.4966C509.668,-49.1639 546.095,-35.4447 573.436,-25.1475"/>
<polygon fill="midnightblue" stroke="midnightblue" points="574.935,-28.3231 583.059,-21.5231 572.468,-21.7723 574.935,-28.3231"/>
</g>
<!-- Node20&#45;&gt;Node18 -->
<g id="edge96" class="edge"><title>Node20&#45;&gt;Node18</title>
<path fill="none" stroke="midnightblue" d="M1035.19,-269.595C958.395,-266.466 811.977,-256.391 692,-224 614.361,-203.039 570.123,-219.233 526,-152 513.471,-132.909 522.39,-106.448 531.352,-88.5769"/>
<polygon fill="midnightblue" stroke="midnightblue" points="534.511,-90.0933 536.198,-79.6338 528.356,-86.7579 534.511,-90.0933"/>
</g>
<!-- Node21 -->
<g id="node43" class="node"><title>Node21</title>
<a xlink:href="_detector__t_8h.html" target="_top" xlink:title="base/Detector_t.h">
<polygon fill="white" stroke="black" points="700.5,-195.5 700.5,-216.5 795.5,-216.5 795.5,-195.5 700.5,-195.5"/>
<text text-anchor="middle" x="748" y="-203.5" font-family="Helvetica,sans-Serif" font-size="10.00">base/Detector_t.h</text>
</a>
</g>
<!-- Node20&#45;&gt;Node21 -->
<g id="edge44" class="edge"><title>Node20&#45;&gt;Node21</title>
<path fill="none" stroke="midnightblue" d="M1035.25,-260.915C973.015,-249.018 869.908,-229.306 805.627,-217.017"/>
<polygon fill="midnightblue" stroke="midnightblue" points="806.136,-213.551 795.656,-215.111 804.821,-220.426 806.136,-213.551"/>
</g>
<!-- Node25 -->
<g id="node59" class="node"><title>Node25</title>
<a xlink:href="mapped__vectors_8h.html" target="_top" xlink:title="base/std_ext/mapped\l_vectors.h">
<polygon fill="white" stroke="black" points="943,-189 943,-223 1053,-223 1053,-189 943,-189"/>
<text text-anchor="start" x="951" y="-210" font-family="Helvetica,sans-Serif" font-size="10.00">base/std_ext/mapped</text>
<text text-anchor="middle" x="998" y="-197" font-family="Helvetica,sans-Serif" font-size="10.00">_vectors.h</text>
</a>
</g>
<!-- Node20&#45;&gt;Node25 -->
<g id="edge68" class="edge"><title>Node20&#45;&gt;Node25</title>
<path fill="none" stroke="midnightblue" d="M1073.14,-260.267C1061.45,-251.827 1044.75,-239.762 1030.06,-229.151"/>
<polygon fill="midnightblue" stroke="midnightblue" points="1031.85,-226.127 1021.69,-223.11 1027.75,-231.802 1031.85,-226.127"/>
</g>
<!-- Node20&#45;&gt;Node27 -->
<g id="edge92" class="edge"><title>Node20&#45;&gt;Node27</title>
<path fill="none" stroke="midnightblue" d="M1131.44,-260.473C1181.66,-245.702 1261.91,-213.46 1297,-152 1307.89,-132.933 1305.81,-107.158 1302.35,-89.4164"/>
<polygon fill="midnightblue" stroke="midnightblue" points="1305.74,-88.522 1300.12,-79.5393 1298.91,-90.0649 1305.74,-88.522"/>
</g>
<!-- Node28 -->
<g id="node69" class="node"><title>Node28</title>
<a xlink:href="shared__ptr__container_8h.html" target="_top" xlink:title="base/std_ext/shared\l_ptr_container.h">
<polygon fill="white" stroke="black" points="1160.5,-117 1160.5,-151 1265.5,-151 1265.5,-117 1160.5,-117"/>
<text text-anchor="start" x="1168.5" y="-138" font-family="Helvetica,sans-Serif" font-size="10.00">base/std_ext/shared</text>
<text text-anchor="middle" x="1213" y="-125" font-family="Helvetica,sans-Serif" font-size="10.00">_ptr_container.h</text>
</a>
</g>
<!-- Node20&#45;&gt;Node28 -->
<g id="edge82" class="edge"><title>Node20&#45;&gt;Node28</title>
<path fill="none" stroke="midnightblue" d="M1103.47,-260.425C1115.95,-251.501 1133.57,-237.976 1147,-224 1166.04,-204.189 1184.23,-178.712 1196.68,-159.924"/>
<polygon fill="midnightblue" stroke="midnightblue" points="1199.78,-161.581 1202.31,-151.293 1193.91,-157.759 1199.78,-161.581"/>
</g>
<!-- Node29 -->
<g id="node73" class="node"><title>Node29</title>
<polygon fill="white" stroke="#bfbfbf" points="1118.5,-58.5 1118.5,-79.5 1177.5,-79.5 1177.5,-58.5 1118.5,-58.5"/>
<text text-anchor="middle" x="1148" y="-66.5" font-family="Helvetica,sans-Serif" font-size="10.00">functional</text>
</g>
<!-- Node20&#45;&gt;Node29 -->
<g id="edge98" class="edge"><title>Node20&#45;&gt;Node29</title>
<path fill="none" stroke="midnightblue" d="M1095.14,-260.231C1100.99,-250.975 1109.06,-237.088 1114,-224 1131.41,-177.828 1141.1,-120.387 1145.35,-90.0498"/>
<polygon fill="midnightblue" stroke="midnightblue" points="1148.86,-90.2057 1146.72,-79.8299 1141.93,-89.2774 1148.86,-90.2057"/>
</g>
<!-- Node30 -->
<g id="node77" class="node"><title>Node30</title>
<polygon fill="white" stroke="#bfbfbf" points="1070.5,-195.5 1070.5,-216.5 1105.5,-216.5 1105.5,-195.5 1070.5,-195.5"/>
<text text-anchor="middle" x="1088" y="-203.5" font-family="Helvetica,sans-Serif" font-size="10.00">map</text>
</g>
<!-- Node20&#45;&gt;Node30 -->
<g id="edge94" class="edge"><title>Node20&#45;&gt;Node30</title>
<path fill="none" stroke="midnightblue" d="M1088,-260.267C1088,-251.18 1088,-237.892 1088,-226.74"/>
<polygon fill="midnightblue" stroke="midnightblue" points="1091.5,-226.534 1088,-216.534 1084.5,-226.534 1091.5,-226.534"/>
</g>
<!-- Node21&#45;&gt;Node4 -->
<g id="edge46" class="edge"><title>Node21&#45;&gt;Node4</title>
<path fill="none" stroke="midnightblue" d="M755.374,-195.295C762.356,-184.719 772.684,-167.869 779,-152 787.183,-131.44 792.624,-106.631 795.738,-89.5225"/>
<polygon fill="midnightblue" stroke="midnightblue" points="799.214,-89.9611 797.453,-79.5135 792.314,-88.7784 799.214,-89.9611"/>
</g>
<!-- Node21&#45;&gt;Node5 -->
<g id="edge66" class="edge"><title>Node21&#45;&gt;Node5</title>
<path fill="none" stroke="midnightblue" d="M794.134,-195.463C834.254,-185.332 888.085,-169.077 902,-152 930.086,-117.533 928.069,-61.8248 924.396,-31.7874"/>
<polygon fill="midnightblue" stroke="midnightblue" points="927.826,-31.0447 922.967,-21.63 920.895,-32.0202 927.826,-31.0447"/>
</g>
<!-- Node21&#45;&gt;Node9 -->
<g id="edge62" class="edge"><title>Node21&#45;&gt;Node9</title>
<path fill="none" stroke="midnightblue" d="M718.457,-195.367C695.517,-186.179 663.726,-171.334 640,-152 639.814,-151.848 574.055,-68.2709 543.852,-29.8798"/>
<polygon fill="midnightblue" stroke="midnightblue" points="546.26,-27.2795 537.326,-21.5841 540.758,-31.6076 546.26,-27.2795"/>
</g>
<!-- Node21&#45;&gt;Node14 -->
<g id="edge64" class="edge"><title>Node21&#45;&gt;Node14</title>
<path fill="none" stroke="midnightblue" d="M764.821,-195.376C783.765,-183.412 814.755,-163.839 836.639,-150.018"/>
<polygon fill="midnightblue" stroke="midnightblue" points="838.524,-152.967 845.11,-144.667 834.786,-147.048 838.524,-152.967"/>
</g>
<!-- Node21&#45;&gt;Node16 -->
<g id="edge58" class="edge"><title>Node21&#45;&gt;Node16</title>
<path fill="none" stroke="midnightblue" d="M703.731,-195.412C658.894,-184.646 587.567,-167.403 526,-152 513.949,-148.985 500.75,-145.61 489.093,-142.604"/>
<polygon fill="midnightblue" stroke="midnightblue" points="489.872,-139.191 479.314,-140.076 488.12,-145.968 489.872,-139.191"/>
</g>
<!-- Node21&#45;&gt;Node17 -->
<g id="edge60" class="edge"><title>Node21&#45;&gt;Node17</title>
<path fill="none" stroke="midnightblue" d="M719.811,-195.495C691.277,-184.793 645.932,-167.599 607,-152 604.162,-150.863 601.225,-149.669 598.28,-148.461"/>
<polygon fill="midnightblue" stroke="midnightblue" points="599.536,-145.193 588.958,-144.6 596.858,-151.66 599.536,-145.193"/>
</g>
<!-- Node22 -->
<g id="node46" class="node"><title>Node22</title>
<a xlink:href="vec3_8h.html" target="_top" xlink:title="base/vec/vec3.h">
<polygon fill="white" stroke="black" points="648.5,-123.5 648.5,-144.5 737.5,-144.5 737.5,-123.5 648.5,-123.5"/>
<text text-anchor="middle" x="693" y="-131.5" font-family="Helvetica,sans-Serif" font-size="10.00">base/vec/vec3.h</text>
</a>
</g>
<!-- Node21&#45;&gt;Node22 -->
<g id="edge48" class="edge"><title>Node21&#45;&gt;Node22</title>
<path fill="none" stroke="midnightblue" d="M739.885,-195.376C731.354,-184.209 717.761,-166.415 707.403,-152.855"/>
<polygon fill="midnightblue" stroke="midnightblue" points="710.001,-150.49 701.149,-144.667 704.438,-154.739 710.001,-150.49"/>
</g>
<!-- Node22&#45;&gt;Node4 -->
<g id="edge50" class="edge"><title>Node22&#45;&gt;Node4</title>
<path fill="none" stroke="midnightblue" d="M710.504,-123.267C727.56,-112.807 753.694,-96.782 773.146,-84.8541"/>
<polygon fill="midnightblue" stroke="midnightblue" points="775.127,-87.745 781.822,-79.5337 771.467,-81.7776 775.127,-87.745"/>
</g>
<!-- Node23 -->
<g id="node49" class="node"><title>Node23</title>
<a xlink:href="vec2_8h.html" target="_top" xlink:title="vec2.h">
<polygon fill="white" stroke="black" points="690,-58.5 690,-79.5 736,-79.5 736,-58.5 690,-58.5"/>
<text text-anchor="middle" x="713" y="-66.5" font-family="Helvetica,sans-Serif" font-size="10.00">vec2.h</text>
</a>
</g>
<!-- Node22&#45;&gt;Node23 -->
<g id="edge52" class="edge"><title>Node22&#45;&gt;Node23</title>
<path fill="none" stroke="midnightblue" d="M696.303,-123.267C699.128,-114.085 703.272,-100.615 706.726,-89.3917"/>
<polygon fill="midnightblue" stroke="midnightblue" points="710.163,-90.1208 709.759,-79.5337 703.473,-88.0622 710.163,-90.1208"/>
</g>
<!-- Node24 -->
<g id="node51" class="node"><title>Node24</title>
<polygon fill="white" stroke="#bfbfbf" points="666,-0.5 666,-21.5 710,-21.5 710,-0.5 666,-0.5"/>
<text text-anchor="middle" x="688" y="-8.5" font-family="Helvetica,sans-Serif" font-size="10.00">cmath</text>
</g>
<!-- Node22&#45;&gt;Node24 -->
<g id="edge56" class="edge"><title>Node22&#45;&gt;Node24</title>
<path fill="none" stroke="midnightblue" d="M689.91,-123.358C686.945,-112.549 682.677,-95.2742 681,-80 679.933,-70.2806 680.278,-67.7511 681,-58 681.637,-49.4026 682.92,-39.9926 684.216,-31.8659"/>
<polygon fill="midnightblue" stroke="midnightblue" points="687.706,-32.2217 685.931,-21.7765 680.805,-31.0483 687.706,-32.2217"/>
</g>
<!-- Node23&#45;&gt;Node24 -->
<g id="edge54" class="edge"><title>Node23&#45;&gt;Node24</title>
<path fill="none" stroke="midnightblue" d="M708.415,-58.3619C705.102,-50.6766 700.53,-40.0686 696.552,-30.8399"/>
<polygon fill="midnightblue" stroke="midnightblue" points="699.729,-29.3685 692.556,-21.5707 693.301,-32.1393 699.729,-29.3685"/>
</g>
<!-- Node25&#45;&gt;Node5 -->
<g id="edge76" class="edge"><title>Node25&#45;&gt;Node5</title>
<path fill="none" stroke="midnightblue" d="M1037.38,-188.762C1052.29,-180.052 1067.67,-167.902 1076,-152 1083.43,-137.828 1083.5,-130.135 1076,-116 1050,-66.9739 989.729,-36.6369 952.471,-21.8678"/>
<polygon fill="midnightblue" stroke="midnightblue" points="953.666,-18.5775 943.075,-18.2792 951.168,-25.1168 953.666,-18.5775"/>
</g>
<!-- Node25&#45;&gt;Node14 -->
<g id="edge80" class="edge"><title>Node25&#45;&gt;Node14</title>
<path fill="none" stroke="midnightblue" d="M965.77,-188.937C943.089,-176.929 912.986,-160.992 891.046,-149.377"/>
<polygon fill="midnightblue" stroke="midnightblue" points="892.664,-146.274 882.189,-144.688 889.389,-152.46 892.664,-146.274"/>
</g>
<!-- Node26 -->
<g id="node61" class="node"><title>Node26</title>
<a xlink:href="memory_8h.html" target="_top" xlink:title="base/std_ext/memory.h">
<polygon fill="white" stroke="black" points="948.5,-123.5 948.5,-144.5 1067.5,-144.5 1067.5,-123.5 948.5,-123.5"/>
<text text-anchor="middle" x="1008" y="-131.5" font-family="Helvetica,sans-Serif" font-size="10.00">base/std_ext/memory.h</text>
</a>
</g>
<!-- Node25&#45;&gt;Node26 -->
<g id="edge70" class="edge"><title>Node25&#45;&gt;Node26</title>
<path fill="none" stroke="midnightblue" d="M1000.37,-188.937C1001.78,-178.814 1003.57,-165.898 1005.06,-155.133"/>
<polygon fill="midnightblue" stroke="midnightblue" points="1008.58,-155.287 1006.49,-144.901 1001.64,-154.324 1008.58,-155.287"/>
</g>
<!-- Node25&#45;&gt;Node27 -->
<g id="edge78" class="edge"><title>Node25&#45;&gt;Node27</title>
<path fill="none" stroke="midnightblue" d="M1053.06,-190.114C1056.08,-189.369 1059.07,-188.658 1062,-188 1155.24,-167.033 1203.06,-216.042 1274,-152 1291.35,-136.337 1296.09,-108.855 1297.15,-89.8277"/>
<polygon fill="midnightblue" stroke="midnightblue" points="1300.65,-89.844 1297.41,-79.7552 1293.65,-89.6594 1300.65,-89.844"/>
</g>
<!-- Node26&#45;&gt;Node18 -->
<g id="edge74" class="edge"><title>Node26&#45;&gt;Node18</title>
<path fill="none" stroke="midnightblue" d="M948.359,-123.463C933.253,-120.907 917.044,-118.261 902,-116 776.74,-97.1722 626.236,-78.8632 567.843,-71.9224"/>
<polygon fill="midnightblue" stroke="midnightblue" points="568.075,-68.4254 557.732,-70.7249 567.251,-75.3768 568.075,-68.4254"/>
</g>
<!-- Node26&#45;&gt;Node27 -->
<g id="edge72" class="edge"><title>Node26&#45;&gt;Node27</title>
<path fill="none" stroke="midnightblue" d="M1054.75,-123.484C1112.26,-110.549 1208.66,-88.868 1260.83,-77.1347"/>
<polygon fill="midnightblue" stroke="midnightblue" points="1261.66,-80.5353 1270.65,-74.9262 1260.13,-73.7059 1261.66,-80.5353"/>
</g>
<!-- Node28&#45;&gt;Node5 -->
<g id="edge84" class="edge"><title>Node28&#45;&gt;Node5</title>
<path fill="none" stroke="midnightblue" d="M1220.7,-116.745C1226.98,-99.7614 1232.76,-74.0985 1219,-58 1201.85,-37.9343 1026.93,-20.3266 953.343,-13.7479"/>
<polygon fill="midnightblue" stroke="midnightblue" points="953.521,-10.2501 943.252,-12.8584 952.906,-17.2231 953.521,-10.2501"/>
</g>
<!-- Node28&#45;&gt;Node11 -->
<g id="edge90" class="edge"><title>Node28&#45;&gt;Node11</title>
<path fill="none" stroke="midnightblue" d="M1212.14,-116.984C1210.23,-99.162 1204.3,-71.8735 1186,-58 1139.05,-22.4075 715.24,-30.8817 657,-22 654.352,-21.5961 651.631,-21.1165 648.9,-20.5871"/>
<polygon fill="midnightblue" stroke="midnightblue" points="649.582,-17.1539 639.073,-18.4977 648.126,-24.0009 649.582,-17.1539"/>
</g>
<!-- Node28&#45;&gt;Node27 -->
<g id="edge86" class="edge"><title>Node28&#45;&gt;Node27</title>
<path fill="none" stroke="midnightblue" d="M1235.07,-116.922C1247.39,-107.387 1262.69,-95.5461 1275,-86.0203"/>
<polygon fill="midnightblue" stroke="midnightblue" points="1277.21,-88.74 1282.98,-79.8521 1272.93,-83.2039 1277.21,-88.74"/>
</g>
<!-- Node28&#45;&gt;Node29 -->
<g id="edge88" class="edge"><title>Node28&#45;&gt;Node29</title>
<path fill="none" stroke="midnightblue" d="M1195.92,-116.922C1186.75,-107.754 1175.45,-96.4535 1166.13,-87.1294"/>
<polygon fill="midnightblue" stroke="midnightblue" points="1168.4,-84.4483 1158.85,-79.8521 1163.45,-89.3981 1168.4,-84.4483"/>
</g>
</g>
</svg>
