<?xml version="1.0" encoding="UTF-8" standalone="no"?>
<!DOCTYPE svg PUBLIC "-//W3C//DTD SVG 1.1//EN"
 "http://www.w3.org/Graphics/SVG/1.1/DTD/svg11.dtd">
<!-- Generated by graphviz version 2.26.3 (20100126.1600)
 -->
<!-- Title: src/base/WrapTFile.cc Pages: 1 -->
<svg width="1576pt" height="204pt"
 viewBox="0.00 0.00 1576.00 204.00" xmlns="http://www.w3.org/2000/svg" xmlns:xlink="http://www.w3.org/1999/xlink">
<g id="graph1" class="graph" transform="scale(1 1) rotate(0) translate(4 200)">
<title>src/base/WrapTFile.cc</title>
<polygon fill="white" stroke="white" points="-4,5 -4,-200 1573,-200 1573,5 -4,5"/>
<!-- Node1 -->
<g id="node1" class="node"><title>Node1</title>
<polygon fill="#bfbfbf" stroke="black" points="1023,-174.5 1023,-195.5 1139,-195.5 1139,-174.5 1023,-174.5"/>
<text text-anchor="middle" x="1081" y="-182.5" font-family="Helvetica,sans-Serif" font-size="10.00">src/base/WrapTFile.cc</text>
</g>
<!-- Node2 -->
<g id="node3" class="node"><title>Node2</title>
<a xlink:href="_wrap_t_file_8h.html" target="_top" xlink:title="WrapTFile.h">
<polygon fill="white" stroke="black" points="533,-116.5 533,-137.5 603,-137.5 603,-116.5 533,-116.5"/>
<text text-anchor="middle" x="568" y="-124.5" font-family="Helvetica,sans-Serif" font-size="10.00">WrapTFile.h</text>
</a>
</g>
<!-- Node1&#45;&gt;Node2 -->
<g id="edge2" class="edge"><title>Node1&#45;&gt;Node2</title>
<path fill="none" stroke="midnightblue" d="M1022.65,-178.403C919.251,-166.713 706.006,-142.603 613.013,-132.089"/>
<polygon fill="midnightblue" stroke="midnightblue" points="613.404,-128.611 603.074,-130.965 612.617,-135.567 613.404,-128.611"/>
</g>
<!-- Node4 -->
<g id="node7" class="node"><title>Node4</title>
<polygon fill="white" stroke="#bfbfbf" points="834.5,-0.5 834.5,-21.5 875.5,-21.5 875.5,-0.5 834.5,-0.5"/>
<text text-anchor="middle" x="855" y="-8.5" font-family="Helvetica,sans-Serif" font-size="10.00">string</text>
</g>
<!-- Node1&#45;&gt;Node4 -->
<g id="edge76" class="edge"><title>Node1&#45;&gt;Node4</title>
<path fill="none" stroke="midnightblue" d="M1072.59,-174.377C1050.84,-147.124 992.76,-75.6356 968,-58 942.56,-39.8798 909.077,-27.0723 885.176,-19.451"/>
<polygon fill="midnightblue" stroke="midnightblue" points="886.158,-16.0912 875.571,-16.5019 884.103,-22.7829 886.158,-16.0912"/>
</g>
<!-- Node8 -->
<g id="node15" class="node"><title>Node8</title>
<a xlink:href="misc_8h.html" target="_top" xlink:title="base/std_ext/misc.h">
<polygon fill="white" stroke="black" points="-0.5,-58.5 -0.5,-79.5 104.5,-79.5 104.5,-58.5 -0.5,-58.5"/>
<text text-anchor="middle" x="52" y="-66.5" font-family="Helvetica,sans-Serif" font-size="10.00">base/std_ext/misc.h</text>
</a>
</g>
<!-- Node1&#45;&gt;Node8 -->
<g id="edge50" class="edge"><title>Node1&#45;&gt;Node8</title>
<path fill="none" stroke="midnightblue" d="M1022.76,-181.164C921.281,-174.24 705.539,-158.452 524,-138 343.905,-117.71 296.784,-109.551 114.468,-80.2038"/>
<polygon fill="midnightblue" stroke="midnightblue" points="114.98,-76.7411 104.551,-78.6079 113.868,-83.6522 114.98,-76.7411"/>
</g>
<!-- Node19 -->
<g id="node39" class="node"><title>Node19</title>
<polygon fill="white" stroke="#bfbfbf" points="767.5,-58.5 767.5,-79.5 826.5,-79.5 826.5,-58.5 767.5,-58.5"/>
<text text-anchor="middle" x="797" y="-66.5" font-family="Helvetica,sans-Serif" font-size="10.00">stdexcept</text>
</g>
<!-- Node1&#45;&gt;Node19 -->
<g id="edge74" class="edge"><title>Node1&#45;&gt;Node19</title>
<path fill="none" stroke="midnightblue" d="M1022.93,-179.807C941.144,-171.898 800.245,-155.857 785,-138 773.472,-124.498 778.999,-103.95 785.875,-88.7876"/>
<polygon fill="midnightblue" stroke="midnightblue" points="789.064,-90.2364 790.423,-79.7291 782.808,-87.0955 789.064,-90.2364"/>
</g>
<!-- Node20 -->
<g id="node42" class="node"><title>Node20</title>
<a xlink:href="memory_8h.html" target="_top" xlink:title="std_ext/memory.h">
<polygon fill="white" stroke="black" points="793.5,-116.5 793.5,-137.5 888.5,-137.5 888.5,-116.5 793.5,-116.5"/>
<text text-anchor="middle" x="841" y="-124.5" font-family="Helvetica,sans-Serif" font-size="10.00">std_ext/memory.h</text>
</a>
</g>
<!-- Node1&#45;&gt;Node20 -->
<g id="edge44" class="edge"><title>Node1&#45;&gt;Node20</title>
<path fill="none" stroke="midnightblue" d="M1037.54,-174.497C997.31,-164.775 937.388,-150.294 894.291,-139.879"/>
<polygon fill="midnightblue" stroke="midnightblue" points="895.086,-136.47 884.544,-137.523 893.442,-143.274 895.086,-136.47"/>
</g>
<!-- Node21 -->
<g id="node47" class="node"><title>Node21</title>
<a xlink:href="system_8h.html" target="_top" xlink:title="std_ext/system.h">
<polygon fill="white" stroke="black" points="906,-116.5 906,-137.5 998,-137.5 998,-116.5 906,-116.5"/>
<text text-anchor="middle" x="952" y="-124.5" font-family="Helvetica,sans-Serif" font-size="10.00">std_ext/system.h</text>
</a>
</g>
<!-- Node1&#45;&gt;Node21 -->
<g id="edge52" class="edge"><title>Node1&#45;&gt;Node21</title>
<path fill="none" stroke="midnightblue" d="M1057.64,-174.497C1037.31,-165.356 1007.62,-152.008 984.891,-141.788"/>
<polygon fill="midnightblue" stroke="midnightblue" points="986.179,-138.53 975.623,-137.621 983.308,-144.914 986.179,-138.53"/>
</g>
<!-- Node22 -->
<g id="node51" class="node"><title>Node22</title>
<a xlink:href="_logger_8h.html" target="_top" xlink:title="Logger.h">
<polygon fill="white" stroke="black" points="1054,-116.5 1054,-137.5 1108,-137.5 1108,-116.5 1054,-116.5"/>
<text text-anchor="middle" x="1081" y="-124.5" font-family="Helvetica,sans-Serif" font-size="10.00">Logger.h</text>
</a>
</g>
<!-- Node1&#45;&gt;Node22 -->
<g id="edge58" class="edge"><title>Node1&#45;&gt;Node22</title>
<path fill="none" stroke="midnightblue" d="M1081,-174.362C1081,-166.922 1081,-156.743 1081,-147.728"/>
<polygon fill="midnightblue" stroke="midnightblue" points="1084.5,-147.571 1081,-137.571 1077.5,-147.571 1084.5,-147.571"/>
</g>
<!-- Node24 -->
<g id="node55" class="node"><title>Node24</title>
<polygon fill="white" stroke="#bfbfbf" points="1125.5,-116.5 1125.5,-137.5 1190.5,-137.5 1190.5,-116.5 1125.5,-116.5"/>
<text text-anchor="middle" x="1158" y="-124.5" font-family="Helvetica,sans-Serif" font-size="10.00">TSystem.h</text>
</g>
<!-- Node1&#45;&gt;Node24 -->
<g id="edge62" class="edge"><title>Node1&#45;&gt;Node24</title>
<path fill="none" stroke="midnightblue" d="M1095.12,-174.362C1106.52,-165.777 1122.76,-153.546 1135.88,-143.664"/>
<polygon fill="midnightblue" stroke="midnightblue" points="1138.08,-146.383 1143.97,-137.571 1133.87,-140.792 1138.08,-146.383"/>
</g>
<!-- Node25 -->
<g id="node57" class="node"><title>Node25</title>
<polygon fill="white" stroke="#bfbfbf" points="1207.5,-116.5 1207.5,-137.5 1258.5,-137.5 1258.5,-116.5 1207.5,-116.5"/>
<text text-anchor="middle" x="1233" y="-124.5" font-family="Helvetica,sans-Serif" font-size="10.00">TH1D.h</text>
</g>
<!-- Node1&#45;&gt;Node25 -->
<g id="edge64" class="edge"><title>Node1&#45;&gt;Node25</title>
<path fill="none" stroke="midnightblue" d="M1108.53,-174.497C1133.52,-164.96 1170.51,-150.844 1197.68,-140.479"/>
<polygon fill="midnightblue" stroke="midnightblue" points="1199.1,-143.68 1207.2,-136.845 1196.61,-137.14 1199.1,-143.68"/>
</g>
<!-- Node26 -->
<g id="node59" class="node"><title>Node26</title>
<polygon fill="white" stroke="#bfbfbf" points="1275.5,-116.5 1275.5,-137.5 1326.5,-137.5 1326.5,-116.5 1275.5,-116.5"/>
<text text-anchor="middle" x="1301" y="-124.5" font-family="Helvetica,sans-Serif" font-size="10.00">TH2D.h</text>
</g>
<!-- Node1&#45;&gt;Node26 -->
<g id="edge66" class="edge"><title>Node1&#45;&gt;Node26</title>
<path fill="none" stroke="midnightblue" d="M1126.32,-174.424C1161.91,-165.924 1212.9,-153.31 1265.58,-138.299"/>
<polygon fill="midnightblue" stroke="midnightblue" points="1266.79,-141.594 1275.44,-135.469 1264.86,-134.866 1266.79,-141.594"/>
</g>
<!-- Node27 -->
<g id="node61" class="node"><title>Node27</title>
<polygon fill="white" stroke="#bfbfbf" points="1343.5,-116.5 1343.5,-137.5 1394.5,-137.5 1394.5,-116.5 1343.5,-116.5"/>
<text text-anchor="middle" x="1369" y="-124.5" font-family="Helvetica,sans-Serif" font-size="10.00">TH3D.h</text>
</g>
<!-- Node1&#45;&gt;Node27 -->
<g id="edge68" class="edge"><title>Node1&#45;&gt;Node27</title>
<path fill="none" stroke="midnightblue" d="M1139.22,-176.435C1188.68,-168.659 1261.67,-156.011 1333.38,-138.196"/>
<polygon fill="midnightblue" stroke="midnightblue" points="1334.64,-141.487 1343.48,-135.648 1332.93,-134.699 1334.64,-141.487"/>
</g>
<!-- Node28 -->
<g id="node63" class="node"><title>Node28</title>
<polygon fill="white" stroke="#bfbfbf" points="1411.5,-116.5 1411.5,-137.5 1494.5,-137.5 1494.5,-116.5 1411.5,-116.5"/>
<text text-anchor="middle" x="1453" y="-124.5" font-family="Helvetica,sans-Serif" font-size="10.00">Compression.h</text>
</g>
<!-- Node1&#45;&gt;Node28 -->
<g id="edge70" class="edge"><title>Node1&#45;&gt;Node28</title>
<path fill="none" stroke="midnightblue" d="M1139.08,-177.796C1201.57,-169.758 1304.07,-155.751 1401.31,-138.225"/>
<polygon fill="midnightblue" stroke="midnightblue" points="1402.09,-141.64 1411.3,-136.407 1400.84,-134.753 1402.09,-141.64"/>
</g>
<!-- Node29 -->
<g id="node65" class="node"><title>Node29</title>
<polygon fill="white" stroke="#bfbfbf" points="1512,-116.5 1512,-137.5 1568,-137.5 1568,-116.5 1512,-116.5"/>
<text text-anchor="middle" x="1540" y="-124.5" font-family="Helvetica,sans-Serif" font-size="10.00">TClass.h</text>
</g>
<!-- Node1&#45;&gt;Node29 -->
<g id="edge72" class="edge"><title>Node1&#45;&gt;Node29</title>
<path fill="none" stroke="midnightblue" d="M1139.18,-181.805C1219.05,-176.697 1367.12,-164.633 1501.77,-137.962"/>
<polygon fill="midnightblue" stroke="midnightblue" points="1502.74,-141.337 1511.85,-135.932 1501.35,-134.475 1502.74,-141.337"/>
</g>
<!-- Node3 -->
<g id="node5" class="node"><title>Node3</title>
<a xlink:href="string_8h.html" target="_top" xlink:title="base/std_ext/string.h">
<polygon fill="white" stroke="black" points="230,-58.5 230,-79.5 338,-79.5 338,-58.5 230,-58.5"/>
<text text-anchor="middle" x="284" y="-66.5" font-family="Helvetica,sans-Serif" font-size="10.00">base/std_ext/string.h</text>
</a>
</g>
<!-- Node2&#45;&gt;Node3 -->
<g id="edge4" class="edge"><title>Node2&#45;&gt;Node3</title>
<path fill="none" stroke="midnightblue" d="M532.891,-119.83C486.201,-110.295 402.915,-93.2854 345.636,-81.5877"/>
<polygon fill="midnightblue" stroke="midnightblue" points="346.112,-78.1127 335.614,-79.5409 344.711,-84.9711 346.112,-78.1127"/>
</g>
<!-- Node2&#45;&gt;Node4 -->
<g id="edge36" class="edge"><title>Node2&#45;&gt;Node4</title>
<path fill="none" stroke="midnightblue" d="M603.14,-118.633C634.685,-110.557 681.905,-97.0577 721,-80 738.887,-72.1957 741.782,-67.185 759,-58 780.85,-46.3442 806.008,-34.0683 825.087,-24.9863"/>
<polygon fill="midnightblue" stroke="midnightblue" points="826.651,-28.1182 834.191,-20.675 823.655,-21.7917 826.651,-28.1182"/>
</g>
<!-- Node2&#45;&gt;Node8 -->
<g id="edge14" class="edge"><title>Node2&#45;&gt;Node8</title>
<path fill="none" stroke="midnightblue" d="M532.781,-124.274C457.771,-118.271 276.518,-102.729 114.671,-80.1595"/>
<polygon fill="midnightblue" stroke="midnightblue" points="114.922,-76.6605 104.532,-78.7327 113.947,-83.5922 114.922,-76.6605"/>
</g>
<!-- Node9 -->
<g id="node18" class="node"><title>Node9</title>
<polygon fill="white" stroke="#bfbfbf" points="97.5,-0.5 97.5,-21.5 156.5,-21.5 156.5,-0.5 97.5,-0.5"/>
<text text-anchor="middle" x="127" y="-8.5" font-family="Helvetica,sans-Serif" font-size="10.00">functional</text>
</g>
<!-- Node2&#45;&gt;Node9 -->
<g id="edge42" class="edge"><title>Node2&#45;&gt;Node9</title>
<path fill="none" stroke="midnightblue" d="M532.97,-124.462C456.553,-118.569 277.227,-102.714 221,-80 205.355,-73.6798 170.225,-46.332 147.622,-28.0223"/>
<polygon fill="midnightblue" stroke="midnightblue" points="149.6,-25.1192 139.639,-21.5102 145.175,-30.5434 149.6,-25.1192"/>
</g>
<!-- Node11 -->
<g id="node22" class="node"><title>Node11</title>
<polygon fill="white" stroke="#bfbfbf" points="577.5,-58.5 577.5,-79.5 624.5,-79.5 624.5,-58.5 577.5,-58.5"/>
<text text-anchor="middle" x="601" y="-66.5" font-family="Helvetica,sans-Serif" font-size="10.00">TFile.h</text>
</g>
<!-- Node2&#45;&gt;Node11 -->
<g id="edge22" class="edge"><title>Node2&#45;&gt;Node11</title>
<path fill="none" stroke="midnightblue" d="M574.053,-116.362C578.472,-108.595 584.59,-97.8426 589.879,-88.5458"/>
<polygon fill="midnightblue" stroke="midnightblue" points="593.082,-89.9932 594.986,-79.5707 586.998,-86.5315 593.082,-89.9932"/>
</g>
<!-- Node12 -->
<g id="node24" class="node"><title>Node12</title>
<polygon fill="white" stroke="#bfbfbf" points="641.5,-58.5 641.5,-79.5 712.5,-79.5 712.5,-58.5 641.5,-58.5"/>
<text text-anchor="middle" x="677" y="-66.5" font-family="Helvetica,sans-Serif" font-size="10.00">TDirectory.h</text>
</g>
<!-- Node2&#45;&gt;Node12 -->
<g id="edge24" class="edge"><title>Node2&#45;&gt;Node12</title>
<path fill="none" stroke="midnightblue" d="M587.739,-116.497C604.61,-107.519 629.109,-94.4835 648.174,-84.3387"/>
<polygon fill="midnightblue" stroke="midnightblue" points="649.856,-87.4086 657.039,-79.6212 646.567,-81.2289 649.856,-87.4086"/>
</g>
<!-- Node13 -->
<g id="node26" class="node"><title>Node13</title>
<polygon fill="white" stroke="#bfbfbf" points="122,-58.5 122,-79.5 174,-79.5 174,-58.5 122,-58.5"/>
<text text-anchor="middle" x="148" y="-66.5" font-family="Helvetica,sans-Serif" font-size="10.00">TError.h</text>
</g>
<!-- Node2&#45;&gt;Node13 -->
<g id="edge26" class="edge"><title>Node2&#45;&gt;Node13</title>
<path fill="none" stroke="midnightblue" d="M532.889,-124.374C465.529,-118.957 313.684,-104.917 188,-80 186.728,-79.7479 185.438,-79.4769 184.137,-79.1908"/>
<polygon fill="midnightblue" stroke="midnightblue" points="184.663,-75.717 174.12,-76.7686 183.017,-82.521 184.663,-75.717"/>
</g>
<!-- Node14 -->
<g id="node28" class="node"><title>Node14</title>
<polygon fill="white" stroke="#bfbfbf" points="355.5,-58.5 355.5,-79.5 402.5,-79.5 402.5,-58.5 355.5,-58.5"/>
<text text-anchor="middle" x="379" y="-66.5" font-family="Helvetica,sans-Serif" font-size="10.00">TList.h</text>
</g>
<!-- Node2&#45;&gt;Node14 -->
<g id="edge28" class="edge"><title>Node2&#45;&gt;Node14</title>
<path fill="none" stroke="midnightblue" d="M532.956,-116.947C503.112,-108.289 458.878,-95.2281 412.371,-80.3713"/>
<polygon fill="midnightblue" stroke="midnightblue" points="413.321,-77.0007 402.73,-77.276 411.181,-83.6656 413.321,-77.0007"/>
</g>
<!-- Node15 -->
<g id="node30" class="node"><title>Node15</title>
<polygon fill="white" stroke="#bfbfbf" points="420,-58.5 420,-79.5 494,-79.5 494,-58.5 420,-58.5"/>
<text text-anchor="middle" x="457" y="-66.5" font-family="Helvetica,sans-Serif" font-size="10.00">TCollection.h</text>
</g>
<!-- Node2&#45;&gt;Node15 -->
<g id="edge30" class="edge"><title>Node2&#45;&gt;Node15</title>
<path fill="none" stroke="midnightblue" d="M547.899,-116.497C530.718,-107.519 505.77,-94.4835 486.355,-84.3387"/>
<polygon fill="midnightblue" stroke="midnightblue" points="487.811,-81.1503 477.327,-79.6212 484.569,-87.3544 487.811,-81.1503"/>
</g>
<!-- Node16 -->
<g id="node32" class="node"><title>Node16</title>
<polygon fill="white" stroke="#bfbfbf" points="512,-58.5 512,-79.5 560,-79.5 560,-58.5 512,-58.5"/>
<text text-anchor="middle" x="536" y="-66.5" font-family="Helvetica,sans-Serif" font-size="10.00">TKey.h</text>
</g>
<!-- Node2&#45;&gt;Node16 -->
<g id="edge32" class="edge"><title>Node2&#45;&gt;Node16</title>
<path fill="none" stroke="midnightblue" d="M562.131,-116.362C557.845,-108.595 551.913,-97.8426 546.784,-88.5458"/>
<polygon fill="midnightblue" stroke="midnightblue" points="549.727,-86.6357 541.832,-79.5707 543.598,-90.0172 549.727,-86.6357"/>
</g>
<!-- Node17 -->
<g id="node34" class="node"><title>Node17</title>
<polygon fill="white" stroke="#bfbfbf" points="844,-58.5 844,-79.5 896,-79.5 896,-58.5 844,-58.5"/>
<text text-anchor="middle" x="870" y="-66.5" font-family="Helvetica,sans-Serif" font-size="10.00">memory</text>
</g>
<!-- Node2&#45;&gt;Node17 -->
<g id="edge34" class="edge"><title>Node2&#45;&gt;Node17</title>
<path fill="none" stroke="midnightblue" d="M603.29,-122.284C652.822,-115.339 745.885,-101.108 833.86,-80.0561"/>
<polygon fill="midnightblue" stroke="midnightblue" points="834.838,-83.4204 843.73,-77.6598 833.187,-76.618 834.838,-83.4204"/>
</g>
<!-- Node18 -->
<g id="node37" class="node"><title>Node18</title>
<polygon fill="white" stroke="#bfbfbf" points="913.5,-58.5 913.5,-79.5 942.5,-79.5 942.5,-58.5 913.5,-58.5"/>
<text text-anchor="middle" x="928" y="-66.5" font-family="Helvetica,sans-Serif" font-size="10.00">list</text>
</g>
<!-- Node2&#45;&gt;Node18 -->
<g id="edge38" class="edge"><title>Node2&#45;&gt;Node18</title>
<path fill="none" stroke="midnightblue" d="M603.198,-125.639C663.593,-122.55 790.627,-112.753 903.353,-79.8407"/>
<polygon fill="midnightblue" stroke="midnightblue" points="904.594,-83.1229 913.171,-76.9036 902.588,-76.4165 904.594,-83.1229"/>
</g>
<!-- Node2&#45;&gt;Node19 -->
<g id="edge40" class="edge"><title>Node2&#45;&gt;Node19</title>
<path fill="none" stroke="midnightblue" d="M603.319,-118.108C640.739,-108.68 701.546,-93.3366 754,-80 755.083,-79.7247 756.181,-79.4453 757.289,-79.1631"/>
<polygon fill="midnightblue" stroke="midnightblue" points="758.57,-82.4485 767.395,-76.5856 756.84,-75.6657 758.57,-82.4485"/>
</g>
<!-- Node3&#45;&gt;Node4 -->
<g id="edge6" class="edge"><title>Node3&#45;&gt;Node4</title>
<path fill="none" stroke="midnightblue" d="M338.253,-59.2413C341.208,-58.7991 344.139,-58.3815 347,-58 526.859,-34.0175 744.177,-18.3202 823.819,-13.006"/>
<polygon fill="midnightblue" stroke="midnightblue" points="824.378,-16.4768 834.125,-12.3253 823.916,-9.49206 824.378,-16.4768"/>
</g>
<!-- Node5 -->
<g id="node9" class="node"><title>Node5</title>
<polygon fill="white" stroke="#bfbfbf" points="252,-0.5 252,-21.5 304,-21.5 304,-0.5 252,-0.5"/>
<text text-anchor="middle" x="278" y="-8.5" font-family="Helvetica,sans-Serif" font-size="10.00">sstream</text>
</g>
<!-- Node3&#45;&gt;Node5 -->
<g id="edge8" class="edge"><title>Node3&#45;&gt;Node5</title>
<path fill="none" stroke="midnightblue" d="M282.9,-58.3619C282.13,-50.9219 281.077,-40.7427 280.144,-31.7276"/>
<polygon fill="midnightblue" stroke="midnightblue" points="283.604,-31.1574 279.094,-21.5707 276.641,-31.8777 283.604,-31.1574"/>
</g>
<!-- Node6 -->
<g id="node11" class="node"><title>Node6</title>
<polygon fill="white" stroke="#bfbfbf" points="177,-0.5 177,-21.5 233,-21.5 233,-0.5 177,-0.5"/>
<text text-anchor="middle" x="205" y="-8.5" font-family="Helvetica,sans-Serif" font-size="10.00">algorithm</text>
</g>
<!-- Node3&#45;&gt;Node6 -->
<g id="edge10" class="edge"><title>Node3&#45;&gt;Node6</title>
<path fill="none" stroke="midnightblue" d="M269.51,-58.3619C257.817,-49.7773 241.157,-37.5459 227.697,-27.6636"/>
<polygon fill="midnightblue" stroke="midnightblue" points="229.53,-24.6675 219.398,-21.5707 225.387,-30.31 229.53,-24.6675"/>
</g>
<!-- Node7 -->
<g id="node13" class="node"><title>Node7</title>
<polygon fill="white" stroke="#bfbfbf" points="322,-0.5 322,-21.5 366,-21.5 366,-0.5 322,-0.5"/>
<text text-anchor="middle" x="344" y="-8.5" font-family="Helvetica,sans-Serif" font-size="10.00">vector</text>
</g>
<!-- Node3&#45;&gt;Node7 -->
<g id="edge12" class="edge"><title>Node3&#45;&gt;Node7</title>
<path fill="none" stroke="midnightblue" d="M295.005,-58.3619C303.547,-50.1043 315.58,-38.4725 325.583,-28.8029"/>
<polygon fill="midnightblue" stroke="midnightblue" points="328.308,-31.0374 333.065,-21.5707 323.442,-26.0044 328.308,-31.0374"/>
</g>
<!-- Node8&#45;&gt;Node6 -->
<g id="edge16" class="edge"><title>Node8&#45;&gt;Node6</title>
<path fill="none" stroke="midnightblue" d="M79.7071,-58.4966C104.326,-49.1639 140.517,-35.4447 167.68,-25.1475"/>
<polygon fill="midnightblue" stroke="midnightblue" points="169.131,-28.3406 177.241,-21.5231 166.65,-21.7951 169.131,-28.3406"/>
</g>
<!-- Node8&#45;&gt;Node9 -->
<g id="edge18" class="edge"><title>Node8&#45;&gt;Node9</title>
<path fill="none" stroke="midnightblue" d="M65.7562,-58.3619C76.7512,-49.859 92.3726,-37.7785 105.086,-27.9466"/>
<polygon fill="midnightblue" stroke="midnightblue" points="107.562,-30.4569 113.331,-21.5707 103.279,-24.9195 107.562,-30.4569"/>
</g>
<!-- Node10 -->
<g id="node20" class="node"><title>Node10</title>
<polygon fill="white" stroke="#bfbfbf" points="25.5,-0.5 25.5,-21.5 78.5,-21.5 78.5,-0.5 25.5,-0.5"/>
<text text-anchor="middle" x="52" y="-8.5" font-family="Helvetica,sans-Serif" font-size="10.00">cxxabi.h</text>
</g>
<!-- Node8&#45;&gt;Node10 -->
<g id="edge20" class="edge"><title>Node8&#45;&gt;Node10</title>
<path fill="none" stroke="midnightblue" d="M52,-58.3619C52,-50.9219 52,-40.7427 52,-31.7276"/>
<polygon fill="midnightblue" stroke="midnightblue" points="55.5001,-31.5706 52,-21.5707 48.5001,-31.5707 55.5001,-31.5706"/>
</g>
<!-- Node20&#45;&gt;Node17 -->
<g id="edge46" class="edge"><title>Node20&#45;&gt;Node17</title>
<path fill="none" stroke="midnightblue" d="M846.319,-116.362C850.203,-108.595 855.579,-97.8426 860.227,-88.5458"/>
<polygon fill="midnightblue" stroke="midnightblue" points="863.373,-90.0802 864.715,-79.5707 857.112,-86.9497 863.373,-90.0802"/>
</g>
<!-- Node20&#45;&gt;Node18 -->
<g id="edge48" class="edge"><title>Node20&#45;&gt;Node18</title>
<path fill="none" stroke="midnightblue" d="M856.957,-116.362C870.407,-107.395 889.826,-94.4495 904.963,-84.3581"/>
<polygon fill="midnightblue" stroke="midnightblue" points="906.924,-87.2571 913.303,-78.7979 903.041,-81.4328 906.924,-87.2571"/>
</g>
<!-- Node21&#45;&gt;Node4 -->
<g id="edge56" class="edge"><title>Node21&#45;&gt;Node4</title>
<path fill="none" stroke="midnightblue" d="M955.076,-116.214C958.529,-101.744 962.29,-75.8086 951,-58 936.611,-35.3024 907.78,-23.2441 885.451,-17.0514"/>
<polygon fill="midnightblue" stroke="midnightblue" points="886.277,-13.6501 875.725,-14.6017 884.567,-20.4381 886.277,-13.6501"/>
</g>
<!-- Node21&#45;&gt;Node18 -->
<g id="edge54" class="edge"><title>Node21&#45;&gt;Node18</title>
<path fill="none" stroke="midnightblue" d="M947.598,-116.362C944.418,-108.677 940.028,-98.0686 936.21,-88.8399"/>
<polygon fill="midnightblue" stroke="midnightblue" points="939.432,-87.4726 932.374,-79.5707 932.964,-90.1491 939.432,-87.4726"/>
</g>
<!-- Node23 -->
<g id="node53" class="node"><title>Node23</title>
<polygon fill="white" stroke="#bfbfbf" points="1053.5,-58.5 1053.5,-79.5 1168.5,-79.5 1168.5,-58.5 1053.5,-58.5"/>
<text text-anchor="middle" x="1111" y="-66.5" font-family="Helvetica,sans-Serif" font-size="10.00">detail/easylogging++.h</text>
</g>
<!-- Node22&#45;&gt;Node23 -->
<g id="edge60" class="edge"><title>Node22&#45;&gt;Node23</title>
<path fill="none" stroke="midnightblue" d="M1086.5,-116.362C1090.52,-108.595 1096.08,-97.8426 1100.89,-88.5458"/>
<polygon fill="midnightblue" stroke="midnightblue" points="1104.05,-90.0608 1105.53,-79.5707 1097.83,-86.8448 1104.05,-90.0608"/>
</g>
</g>
</svg>
