<?xml version="1.0" encoding="UTF-8" standalone="no"?>
<!DOCTYPE svg PUBLIC "-//W3C//DTD SVG 1.1//EN"
 "http://www.w3.org/Graphics/SVG/1.1/DTD/svg11.dtd">
<!-- Generated by graphviz version 2.26.3 (20100126.1600)
 -->
<!-- Title: src/base/WrapTTree.h Pages: 1 -->
<svg width="572pt" height="198pt"
 viewBox="0.00 0.00 572.00 198.00" xmlns="http://www.w3.org/2000/svg" xmlns:xlink="http://www.w3.org/1999/xlink">
<g id="graph1" class="graph" transform="scale(1 1) rotate(0) translate(4 194)">
<title>src/base/WrapTTree.h</title>
<polygon fill="white" stroke="white" points="-4,5 -4,-194 569,-194 569,5 -4,5"/>
<!-- Node1 -->
<g id="node1" class="node"><title>Node1</title>
<polygon fill="#bfbfbf" stroke="black" points="315,-168.5 315,-189.5 429,-189.5 429,-168.5 315,-168.5"/>
<text text-anchor="middle" x="372" y="-176.5" font-family="Helvetica,sans-Serif" font-size="10.00">src/base/WrapTTree.h</text>
</g>
<!-- Node2 -->
<g id="node3" class="node"><title>Node2</title>
<a xlink:href="etaprime__omega__gamma_8h.html" target="_top" xlink:title="src/analysis/physics\l/etaprime/etaprime_omega\l_gamma.h">
<polygon fill="white" stroke="black" points="154,-84.5 154,-131.5 286,-131.5 286,-84.5 154,-84.5"/>
<text text-anchor="start" x="162" y="-118.5" font-family="Helvetica,sans-Serif" font-size="10.00">src/analysis/physics</text>
<text text-anchor="start" x="162" y="-105.5" font-family="Helvetica,sans-Serif" font-size="10.00">/etaprime/etaprime_omega</text>
<text text-anchor="middle" x="220" y="-92.5" font-family="Helvetica,sans-Serif" font-size="10.00">_gamma.h</text>
</a>
</g>
<!-- Node1&#45;&gt;Node2 -->
<g id="edge2" class="edge"><title>Node1&#45;&gt;Node2</title>
<path fill="none" stroke="midnightblue" d="M339.923,-164.017C319.829,-154.631 293.498,-142.331 270.629,-131.649"/>
<polygon fill="midnightblue" stroke="midnightblue" points="338.702,-167.31 349.244,-168.371 341.665,-160.967 338.702,-167.31"/>
</g>
<!-- Node5 -->
<g id="node9" class="node"><title>Node5</title>
<a xlink:href="omega_8h.html" target="_top" xlink:title="src/analysis/physics\l/omega/omega.h">
<polygon fill="white" stroke="black" points="319,-91 319,-125 425,-125 425,-91 319,-91"/>
<text text-anchor="start" x="327" y="-112" font-family="Helvetica,sans-Serif" font-size="10.00">src/analysis/physics</text>
<text text-anchor="middle" x="372" y="-99" font-family="Helvetica,sans-Serif" font-size="10.00">/omega/omega.h</text>
</a>
</g>
<!-- Node1&#45;&gt;Node5 -->
<g id="edge8" class="edge"><title>Node1&#45;&gt;Node5</title>
<path fill="none" stroke="midnightblue" d="M372,-157.914C372,-147.499 372,-135.09 372,-125.251"/>
<polygon fill="midnightblue" stroke="midnightblue" points="368.5,-158.217 372,-168.217 375.5,-158.217 368.5,-158.217"/>
</g>
<!-- Node8 -->
<g id="node15" class="node"><title>Node8</title>
<a xlink:href="_wrap_t_tree_8cc.html" target="_top" xlink:title="src/base/WrapTTree.cc">
<polygon fill="white" stroke="black" points="442.5,-97.5 442.5,-118.5 561.5,-118.5 561.5,-97.5 442.5,-97.5"/>
<text text-anchor="middle" x="502" y="-105.5" font-family="Helvetica,sans-Serif" font-size="10.00">src/base/WrapTTree.cc</text>
</a>
</g>
<!-- Node1&#45;&gt;Node8 -->
<g id="edge14" class="edge"><title>Node1&#45;&gt;Node8</title>
<path fill="none" stroke="midnightblue" d="M400.409,-163.484C425.233,-149.927 460.618,-130.601 482.405,-118.702"/>
<polygon fill="midnightblue" stroke="midnightblue" points="398.561,-160.506 391.462,-168.371 401.916,-166.649 398.561,-160.506"/>
</g>
<!-- Node3 -->
<g id="node5" class="node"><title>Node3</title>
<a xlink:href="_etap_omega_g__plot_8cc.html" target="_top" xlink:title="progs/EtapOmegaG_plot.cc">
<polygon fill="white" stroke="black" points="-0.5,-13.5 -0.5,-34.5 136.5,-34.5 136.5,-13.5 -0.5,-13.5"/>
<text text-anchor="middle" x="68" y="-21.5" font-family="Helvetica,sans-Serif" font-size="10.00">progs/EtapOmegaG_plot.cc</text>
</a>
</g>
<!-- Node2&#45;&gt;Node3 -->
<g id="edge4" class="edge"><title>Node2&#45;&gt;Node3</title>
<path fill="none" stroke="midnightblue" d="M168.395,-79.4815C140.508,-64.0704 107.72,-45.9503 87.3956,-34.7186"/>
<polygon fill="midnightblue" stroke="midnightblue" points="166.81,-82.6042 177.255,-84.3778 170.196,-76.4775 166.81,-82.6042"/>
</g>
<!-- Node4 -->
<g id="node7" class="node"><title>Node4</title>
<a xlink:href="etaprime__omega__gamma_8cc.html" target="_top" xlink:title="src/analysis/physics\l/etaprime/etaprime_omega\l_gamma.cc">
<polygon fill="white" stroke="black" points="154,-0.5 154,-47.5 286,-47.5 286,-0.5 154,-0.5"/>
<text text-anchor="start" x="162" y="-34.5" font-family="Helvetica,sans-Serif" font-size="10.00">src/analysis/physics</text>
<text text-anchor="start" x="162" y="-21.5" font-family="Helvetica,sans-Serif" font-size="10.00">/etaprime/etaprime_omega</text>
<text text-anchor="middle" x="220" y="-8.5" font-family="Helvetica,sans-Serif" font-size="10.00">_gamma.cc</text>
</a>
</g>
<!-- Node2&#45;&gt;Node4 -->
<g id="edge6" class="edge"><title>Node2&#45;&gt;Node4</title>
<path fill="none" stroke="midnightblue" d="M220,-74.0664C220,-65.1933 220,-55.821 220,-47.6152"/>
<polygon fill="midnightblue" stroke="midnightblue" points="216.5,-74.1536 220,-84.1537 223.5,-74.1537 216.5,-74.1536"/>
</g>
<!-- Node6 -->
<g id="node11" class="node"><title>Node6</title>
<a xlink:href="_omega_eta_g2__plot_8cc.html" target="_top" xlink:title="Plotting tool for TTrees from the ant::analysis::physics::OmegaEtaG2 physics class. ">
<polygon fill="white" stroke="black" points="303.5,-13.5 303.5,-34.5 440.5,-34.5 440.5,-13.5 303.5,-13.5"/>
<text text-anchor="middle" x="372" y="-21.5" font-family="Helvetica,sans-Serif" font-size="10.00">progs/OmegaEtaG2_plot.cc</text>
</a>
</g>
<!-- Node5&#45;&gt;Node6 -->
<g id="edge10" class="edge"><title>Node5&#45;&gt;Node6</title>
<path fill="none" stroke="midnightblue" d="M372,-80.4641C372,-64.9618 372,-46.4648 372,-34.9734"/>
<polygon fill="midnightblue" stroke="midnightblue" points="368.5,-80.5951 372,-90.5951 375.5,-80.5952 368.5,-80.5951"/>
</g>
<!-- Node7 -->
<g id="node13" class="node"><title>Node7</title>
<a xlink:href="omega_8cc.html" target="_top" xlink:title="src/analysis/physics\l/omega/omega.cc">
<polygon fill="white" stroke="black" points="458,-7 458,-41 564,-41 564,-7 458,-7"/>
<text text-anchor="start" x="466" y="-28" font-family="Helvetica,sans-Serif" font-size="10.00">src/analysis/physics</text>
<text text-anchor="middle" x="511" y="-15" font-family="Helvetica,sans-Serif" font-size="10.00">/omega/omega.cc</text>
</a>
</g>
<!-- Node5&#45;&gt;Node7 -->
<g id="edge12" class="edge"><title>Node5&#45;&gt;Node7</title>
<path fill="none" stroke="midnightblue" d="M409.283,-85.4694C432.314,-71.551 461.408,-53.9695 482.574,-41.1783"/>
<polygon fill="midnightblue" stroke="midnightblue" points="407.212,-82.631 400.464,-90.7986 410.833,-88.622 407.212,-82.631"/>
</g>
</g>
</svg>
