<?xml version="1.0" encoding="UTF-8" standalone="no"?>
<!DOCTYPE svg PUBLIC "-//W3C//DTD SVG 1.1//EN"
 "http://www.w3.org/Graphics/SVG/1.1/DTD/svg11.dtd">
<!-- Generated by graphviz version 2.26.3 (20100126.1600)
 -->
<!-- Title: src/base/WrapTTree.cc Pages: 1 -->
<svg width="261pt" height="146pt"
 viewBox="0.00 0.00 261.00 146.00" xmlns="http://www.w3.org/2000/svg" xmlns:xlink="http://www.w3.org/1999/xlink">
<g id="graph1" class="graph" transform="scale(1 1) rotate(0) translate(4 142)">
<title>src/base/WrapTTree.cc</title>
<polygon fill="white" stroke="white" points="-4,5 -4,-142 258,-142 258,5 -4,5"/>
<!-- Node1 -->
<g id="node1" class="node"><title>Node1</title>
<polygon fill="#bfbfbf" stroke="black" points="83.5,-116.5 83.5,-137.5 202.5,-137.5 202.5,-116.5 83.5,-116.5"/>
<text text-anchor="middle" x="143" y="-124.5" font-family="Helvetica,sans-Serif" font-size="10.00">src/base/WrapTTree.cc</text>
</g>
<!-- Node2 -->
<g id="node3" class="node"><title>Node2</title>
<a xlink:href="_wrap_t_tree_8h.html" target="_top" xlink:title="WrapTTree.h">
<polygon fill="white" stroke="black" points="51,-58.5 51,-79.5 125,-79.5 125,-58.5 51,-58.5"/>
<text text-anchor="middle" x="88" y="-66.5" font-family="Helvetica,sans-Serif" font-size="10.00">WrapTTree.h</text>
</a>
</g>
<!-- Node1&#45;&gt;Node2 -->
<g id="edge2" class="edge"><title>Node1&#45;&gt;Node2</title>
<path fill="none" stroke="midnightblue" d="M132.912,-116.362C125.159,-108.186 114.27,-96.7025 105.155,-87.0907"/>
<polygon fill="midnightblue" stroke="midnightblue" points="107.445,-84.4186 98.0239,-79.5707 102.365,-89.2352 107.445,-84.4186"/>
</g>
<!-- Node6 -->
<g id="node11" class="node"><title>Node6</title>
<a xlink:href="vector_8h.html" target="_top" xlink:title="base/std_ext/vector.h">
<polygon fill="white" stroke="black" points="142.5,-58.5 142.5,-79.5 253.5,-79.5 253.5,-58.5 142.5,-58.5"/>
<text text-anchor="middle" x="198" y="-66.5" font-family="Helvetica,sans-Serif" font-size="10.00">base/std_ext/vector.h</text>
</a>
</g>
<!-- Node1&#45;&gt;Node6 -->
<g id="edge10" class="edge"><title>Node1&#45;&gt;Node6</title>
<path fill="none" stroke="midnightblue" d="M153.088,-116.362C160.841,-108.186 171.73,-96.7025 180.845,-87.0907"/>
<polygon fill="midnightblue" stroke="midnightblue" points="183.635,-89.2352 187.976,-79.5707 178.555,-84.4186 183.635,-89.2352"/>
</g>
<!-- Node3 -->
<g id="node5" class="node"><title>Node3</title>
<polygon fill="white" stroke="#bfbfbf" points="0,-0.5 0,-21.5 50,-21.5 50,-0.5 0,-0.5"/>
<text text-anchor="middle" x="25" y="-8.5" font-family="Helvetica,sans-Serif" font-size="10.00">TTree.h</text>
</g>
<!-- Node2&#45;&gt;Node3 -->
<g id="edge4" class="edge"><title>Node2&#45;&gt;Node3</title>
<path fill="none" stroke="midnightblue" d="M76.4448,-58.3619C67.3866,-50.0226 54.5903,-38.2418 44.0263,-28.5162"/>
<polygon fill="midnightblue" stroke="midnightblue" points="46.2095,-25.7688 36.4819,-21.5707 41.4683,-30.9187 46.2095,-25.7688"/>
</g>
<!-- Node4 -->
<g id="node7" class="node"><title>Node4</title>
<polygon fill="white" stroke="#bfbfbf" points="126,-0.5 126,-21.5 170,-21.5 170,-0.5 126,-0.5"/>
<text text-anchor="middle" x="148" y="-8.5" font-family="Helvetica,sans-Serif" font-size="10.00">vector</text>
</g>
<!-- Node2&#45;&gt;Node4 -->
<g id="edge6" class="edge"><title>Node2&#45;&gt;Node4</title>
<path fill="none" stroke="midnightblue" d="M99.0049,-58.3619C107.547,-50.1043 119.58,-38.4725 129.583,-28.8029"/>
<polygon fill="midnightblue" stroke="midnightblue" points="132.308,-31.0374 137.065,-21.5707 127.442,-26.0044 132.308,-31.0374"/>
</g>
<!-- Node5 -->
<g id="node9" class="node"><title>Node5</title>
<polygon fill="white" stroke="#bfbfbf" points="67.5,-0.5 67.5,-21.5 108.5,-21.5 108.5,-0.5 67.5,-0.5"/>
<text text-anchor="middle" x="88" y="-8.5" font-family="Helvetica,sans-Serif" font-size="10.00">string</text>
</g>
<!-- Node2&#45;&gt;Node5 -->
<g id="edge8" class="edge"><title>Node2&#45;&gt;Node5</title>
<path fill="none" stroke="midnightblue" d="M88,-58.3619C88,-50.9219 88,-40.7427 88,-31.7276"/>
<polygon fill="midnightblue" stroke="midnightblue" points="91.5001,-31.5706 88,-21.5707 84.5001,-31.5707 91.5001,-31.5706"/>
</g>
<!-- Node6&#45;&gt;Node4 -->
<g id="edge12" class="edge"><title>Node6&#45;&gt;Node4</title>
<path fill="none" stroke="midnightblue" d="M188.829,-58.3619C181.852,-50.2678 172.079,-38.9318 163.844,-29.3796"/>
<polygon fill="midnightblue" stroke="midnightblue" points="166.293,-26.8595 157.113,-21.5707 160.991,-31.4301 166.293,-26.8595"/>
</g>
<!-- Node7 -->
<g id="node14" class="node"><title>Node7</title>
<polygon fill="white" stroke="#bfbfbf" points="188,-0.5 188,-21.5 244,-21.5 244,-0.5 188,-0.5"/>
<text text-anchor="middle" x="216" y="-8.5" font-family="Helvetica,sans-Serif" font-size="10.00">algorithm</text>
</g>
<!-- Node6&#45;&gt;Node7 -->
<g id="edge14" class="edge"><title>Node6&#45;&gt;Node7</title>
<path fill="none" stroke="midnightblue" d="M201.301,-58.3619C203.661,-50.7584 206.909,-40.294 209.751,-31.1349"/>
<polygon fill="midnightblue" stroke="midnightblue" points="213.098,-32.1587 212.719,-21.5707 206.413,-30.0839 213.098,-32.1587"/>
</g>
</g>
</svg>
