<?xml version="1.0" encoding="UTF-8" standalone="no"?>
<!DOCTYPE svg PUBLIC "-//W3C//DTD SVG 1.1//EN"
 "http://www.w3.org/Graphics/SVG/1.1/DTD/svg11.dtd">
<!-- Generated by graphviz version 2.26.3 (20100126.1600)
 -->
<!-- Title: src/base/WrapTFile.h Pages: 1 -->
<svg width="1012pt" height="146pt"
 viewBox="0.00 0.00 1012.00 146.00" xmlns="http://www.w3.org/2000/svg" xmlns:xlink="http://www.w3.org/1999/xlink">
<g id="graph1" class="graph" transform="scale(1 1) rotate(0) translate(4 142)">
<title>src/base/WrapTFile.h</title>
<polygon fill="white" stroke="white" points="-4,5 -4,-142 1009,-142 1009,5 -4,5"/>
<!-- Node1 -->
<g id="node1" class="node"><title>Node1</title>
<polygon fill="#bfbfbf" stroke="black" points="509,-116.5 509,-137.5 619,-137.5 619,-116.5 509,-116.5"/>
<text text-anchor="middle" x="564" y="-124.5" font-family="Helvetica,sans-Serif" font-size="10.00">src/base/WrapTFile.h</text>
</g>
<!-- Node2 -->
<g id="node3" class="node"><title>Node2</title>
<a xlink:href="string_8h.html" target="_top" xlink:title="base/std_ext/string.h">
<polygon fill="white" stroke="black" points="96,-58.5 96,-79.5 204,-79.5 204,-58.5 96,-58.5"/>
<text text-anchor="middle" x="150" y="-66.5" font-family="Helvetica,sans-Serif" font-size="10.00">base/std_ext/string.h</text>
</a>
</g>
<!-- Node1&#45;&gt;Node2 -->
<g id="edge2" class="edge"><title>Node1&#45;&gt;Node2</title>
<path fill="none" stroke="midnightblue" d="M508.942,-120.028C440.449,-111.243 319.96,-95.4216 217,-80 216.082,-79.8625 215.157,-79.723 214.226,-79.5819"/>
<polygon fill="midnightblue" stroke="midnightblue" points="214.517,-76.0853 204.1,-78.0159 213.447,-83.0031 214.517,-76.0853"/>
</g>
<!-- Node3 -->
<g id="node5" class="node"><title>Node3</title>
<polygon fill="white" stroke="#bfbfbf" points="-0.5,-0.5 -0.5,-21.5 40.5,-21.5 40.5,-0.5 -0.5,-0.5"/>
<text text-anchor="middle" x="20" y="-8.5" font-family="Helvetica,sans-Serif" font-size="10.00">string</text>
</g>
<!-- Node1&#45;&gt;Node3 -->
<g id="edge34" class="edge"><title>Node1&#45;&gt;Node3</title>
<path fill="none" stroke="midnightblue" d="M508.946,-126.284C399.817,-124.104 160.273,-115.319 87,-80 63.9023,-68.8665 44.4069,-46.2621 32.5031,-29.9546"/>
<polygon fill="midnightblue" stroke="midnightblue" points="35.297,-27.8425 26.6963,-21.6555 29.5616,-31.8556 35.297,-27.8425"/>
</g>
<!-- Node7 -->
<g id="node13" class="node"><title>Node7</title>
<a xlink:href="misc_8h.html" target="_top" xlink:title="base/std_ext/misc.h">
<polygon fill="white" stroke="black" points="225.5,-58.5 225.5,-79.5 330.5,-79.5 330.5,-58.5 225.5,-58.5"/>
<text text-anchor="middle" x="278" y="-66.5" font-family="Helvetica,sans-Serif" font-size="10.00">base/std_ext/misc.h</text>
</a>
</g>
<!-- Node1&#45;&gt;Node7 -->
<g id="edge12" class="edge"><title>Node1&#45;&gt;Node7</title>
<path fill="none" stroke="midnightblue" d="M512.208,-116.497C463.765,-106.673 391.357,-91.9884 339.89,-81.5512"/>
<polygon fill="midnightblue" stroke="midnightblue" points="340.386,-78.0805 329.89,-79.5231 338.994,-84.9408 340.386,-78.0805"/>
</g>
<!-- Node8 -->
<g id="node16" class="node"><title>Node8</title>
<polygon fill="white" stroke="#bfbfbf" points="333.5,-0.5 333.5,-21.5 392.5,-21.5 392.5,-0.5 333.5,-0.5"/>
<text text-anchor="middle" x="363" y="-8.5" font-family="Helvetica,sans-Serif" font-size="10.00">functional</text>
</g>
<!-- Node1&#45;&gt;Node8 -->
<g id="edge40" class="edge"><title>Node1&#45;&gt;Node8</title>
<path fill="none" stroke="midnightblue" d="M508.945,-119.732C460.528,-112.205 395.033,-98.8831 377,-80 364.84,-67.2671 361.932,-47.0187 361.714,-31.743"/>
<polygon fill="midnightblue" stroke="midnightblue" points="365.214,-31.7524 361.937,-21.6774 358.216,-31.5975 365.214,-31.7524"/>
</g>
<!-- Node10 -->
<g id="node20" class="node"><title>Node10</title>
<polygon fill="white" stroke="#bfbfbf" points="385.5,-58.5 385.5,-79.5 432.5,-79.5 432.5,-58.5 385.5,-58.5"/>
<text text-anchor="middle" x="409" y="-66.5" font-family="Helvetica,sans-Serif" font-size="10.00">TFile.h</text>
</g>
<!-- Node1&#45;&gt;Node10 -->
<g id="edge20" class="edge"><title>Node1&#45;&gt;Node10</title>
<path fill="none" stroke="midnightblue" d="M535.931,-116.497C509.669,-106.67 470.41,-91.9792 442.516,-81.5414"/>
<polygon fill="midnightblue" stroke="midnightblue" points="443.391,-78.1319 432.798,-77.9052 440.938,-84.6879 443.391,-78.1319"/>
</g>
<!-- Node11 -->
<g id="node22" class="node"><title>Node11</title>
<polygon fill="white" stroke="#bfbfbf" points="449.5,-58.5 449.5,-79.5 520.5,-79.5 520.5,-58.5 449.5,-58.5"/>
<text text-anchor="middle" x="485" y="-66.5" font-family="Helvetica,sans-Serif" font-size="10.00">TDirectory.h</text>
</g>
<!-- Node1&#45;&gt;Node11 -->
<g id="edge22" class="edge"><title>Node1&#45;&gt;Node11</title>
<path fill="none" stroke="midnightblue" d="M549.51,-116.362C537.817,-107.777 521.157,-95.5459 507.697,-85.6636"/>
<polygon fill="midnightblue" stroke="midnightblue" points="509.53,-82.6675 499.398,-79.5707 505.387,-88.31 509.53,-82.6675"/>
</g>
<!-- Node12 -->
<g id="node24" class="node"><title>Node12</title>
<polygon fill="white" stroke="#bfbfbf" points="538,-58.5 538,-79.5 590,-79.5 590,-58.5 538,-58.5"/>
<text text-anchor="middle" x="564" y="-66.5" font-family="Helvetica,sans-Serif" font-size="10.00">TError.h</text>
</g>
<!-- Node1&#45;&gt;Node12 -->
<g id="edge24" class="edge"><title>Node1&#45;&gt;Node12</title>
<path fill="none" stroke="midnightblue" d="M564,-116.362C564,-108.922 564,-98.7427 564,-89.7276"/>
<polygon fill="midnightblue" stroke="midnightblue" points="567.5,-89.5706 564,-79.5707 560.5,-89.5707 567.5,-89.5706"/>
</g>
<!-- Node13 -->
<g id="node26" class="node"><title>Node13</title>
<polygon fill="white" stroke="#bfbfbf" points="607.5,-58.5 607.5,-79.5 654.5,-79.5 654.5,-58.5 607.5,-58.5"/>
<text text-anchor="middle" x="631" y="-66.5" font-family="Helvetica,sans-Serif" font-size="10.00">TList.h</text>
</g>
<!-- Node1&#45;&gt;Node13 -->
<g id="edge26" class="edge"><title>Node1&#45;&gt;Node13</title>
<path fill="none" stroke="midnightblue" d="M576.289,-116.362C586.017,-107.941 599.798,-96.0105 611.095,-86.2308"/>
<polygon fill="midnightblue" stroke="midnightblue" points="613.519,-88.7619 618.789,-79.5707 608.938,-83.4695 613.519,-88.7619"/>
</g>
<!-- Node14 -->
<g id="node28" class="node"><title>Node14</title>
<polygon fill="white" stroke="#bfbfbf" points="672,-58.5 672,-79.5 746,-79.5 746,-58.5 672,-58.5"/>
<text text-anchor="middle" x="709" y="-66.5" font-family="Helvetica,sans-Serif" font-size="10.00">TCollection.h</text>
</g>
<!-- Node1&#45;&gt;Node14 -->
<g id="edge28" class="edge"><title>Node1&#45;&gt;Node14</title>
<path fill="none" stroke="midnightblue" d="M590.258,-116.497C613.416,-107.234 647.375,-93.6499 673.052,-83.3793"/>
<polygon fill="midnightblue" stroke="midnightblue" points="674.462,-86.5849 682.447,-79.6212 671.862,-80.0855 674.462,-86.5849"/>
</g>
<!-- Node15 -->
<g id="node30" class="node"><title>Node15</title>
<polygon fill="white" stroke="#bfbfbf" points="764,-58.5 764,-79.5 812,-79.5 812,-58.5 764,-58.5"/>
<text text-anchor="middle" x="788" y="-66.5" font-family="Helvetica,sans-Serif" font-size="10.00">TKey.h</text>
</g>
<!-- Node1&#45;&gt;Node15 -->
<g id="edge30" class="edge"><title>Node1&#45;&gt;Node15</title>
<path fill="none" stroke="midnightblue" d="M611.376,-116.46C647.999,-108.06 700.133,-95.5569 754.169,-80.0928"/>
<polygon fill="midnightblue" stroke="midnightblue" points="755.284,-83.4138 763.92,-77.2755 753.341,-76.6888 755.284,-83.4138"/>
</g>
<!-- Node16 -->
<g id="node32" class="node"><title>Node16</title>
<polygon fill="white" stroke="#bfbfbf" points="830,-58.5 830,-79.5 882,-79.5 882,-58.5 830,-58.5"/>
<text text-anchor="middle" x="856" y="-66.5" font-family="Helvetica,sans-Serif" font-size="10.00">memory</text>
</g>
<!-- Node1&#45;&gt;Node16 -->
<g id="edge32" class="edge"><title>Node1&#45;&gt;Node16</title>
<path fill="none" stroke="midnightblue" d="M619.065,-118.95C669.142,-111.175 745.212,-98.2319 819.704,-80.1126"/>
<polygon fill="midnightblue" stroke="midnightblue" points="820.855,-83.4337 829.726,-77.6407 819.178,-76.6374 820.855,-83.4337"/>
</g>
<!-- Node17 -->
<g id="node35" class="node"><title>Node17</title>
<polygon fill="white" stroke="#bfbfbf" points="899.5,-58.5 899.5,-79.5 928.5,-79.5 928.5,-58.5 899.5,-58.5"/>
<text text-anchor="middle" x="914" y="-66.5" font-family="Helvetica,sans-Serif" font-size="10.00">list</text>
</g>
<!-- Node1&#45;&gt;Node17 -->
<g id="edge36" class="edge"><title>Node1&#45;&gt;Node17</title>
<path fill="none" stroke="midnightblue" d="M619.199,-124.171C682.987,-119.781 790.871,-108.901 889.362,-79.8565"/>
<polygon fill="midnightblue" stroke="midnightblue" points="890.608,-83.1365 899.168,-76.894 888.583,-76.4356 890.608,-83.1365"/>
</g>
<!-- Node18 -->
<g id="node37" class="node"><title>Node18</title>
<polygon fill="white" stroke="#bfbfbf" points="945.5,-58.5 945.5,-79.5 1004.5,-79.5 1004.5,-58.5 945.5,-58.5"/>
<text text-anchor="middle" x="975" y="-66.5" font-family="Helvetica,sans-Serif" font-size="10.00">stdexcept</text>
</g>
<!-- Node1&#45;&gt;Node18 -->
<g id="edge38" class="edge"><title>Node1&#45;&gt;Node18</title>
<path fill="none" stroke="midnightblue" d="M619.113,-122.77C690.289,-116.707 818.068,-103.789 935.373,-80.1144"/>
<polygon fill="midnightblue" stroke="midnightblue" points="936.146,-83.5288 945.24,-78.0921 934.74,-76.6713 936.146,-83.5288"/>
</g>
<!-- Node2&#45;&gt;Node3 -->
<g id="edge4" class="edge"><title>Node2&#45;&gt;Node3</title>
<path fill="none" stroke="midnightblue" d="M126.458,-58.4966C105.074,-48.9563 73.4169,-34.8322 50.1813,-24.4655"/>
<polygon fill="midnightblue" stroke="midnightblue" points="51.3516,-21.1552 40.7933,-20.277 48.4995,-27.5478 51.3516,-21.1552"/>
</g>
<!-- Node4 -->
<g id="node7" class="node"><title>Node4</title>
<polygon fill="white" stroke="#bfbfbf" points="58,-0.5 58,-21.5 110,-21.5 110,-0.5 58,-0.5"/>
<text text-anchor="middle" x="84" y="-8.5" font-family="Helvetica,sans-Serif" font-size="10.00">sstream</text>
</g>
<!-- Node2&#45;&gt;Node4 -->
<g id="edge6" class="edge"><title>Node2&#45;&gt;Node4</title>
<path fill="none" stroke="midnightblue" d="M137.895,-58.3619C128.312,-49.9408 114.736,-38.0105 103.607,-28.2308"/>
<polygon fill="midnightblue" stroke="midnightblue" points="105.851,-25.5427 96.0287,-21.5707 101.23,-30.8009 105.851,-25.5427"/>
</g>
<!-- Node5 -->
<g id="node9" class="node"><title>Node5</title>
<polygon fill="white" stroke="#bfbfbf" points="190,-0.5 190,-21.5 246,-21.5 246,-0.5 190,-0.5"/>
<text text-anchor="middle" x="218" y="-8.5" font-family="Helvetica,sans-Serif" font-size="10.00">algorithm</text>
</g>
<!-- Node2&#45;&gt;Node5 -->
<g id="edge8" class="edge"><title>Node2&#45;&gt;Node5</title>
<path fill="none" stroke="midnightblue" d="M162.472,-58.3619C172.345,-49.9408 186.333,-38.0105 197.798,-28.2308"/>
<polygon fill="midnightblue" stroke="midnightblue" points="200.27,-30.7231 205.607,-21.5707 195.727,-25.3972 200.27,-30.7231"/>
</g>
<!-- Node6 -->
<g id="node11" class="node"><title>Node6</title>
<polygon fill="white" stroke="#bfbfbf" points="128,-0.5 128,-21.5 172,-21.5 172,-0.5 128,-0.5"/>
<text text-anchor="middle" x="150" y="-8.5" font-family="Helvetica,sans-Serif" font-size="10.00">vector</text>
</g>
<!-- Node2&#45;&gt;Node6 -->
<g id="edge10" class="edge"><title>Node2&#45;&gt;Node6</title>
<path fill="none" stroke="midnightblue" d="M150,-58.3619C150,-50.9219 150,-40.7427 150,-31.7276"/>
<polygon fill="midnightblue" stroke="midnightblue" points="153.5,-31.5706 150,-21.5707 146.5,-31.5707 153.5,-31.5706"/>
</g>
<!-- Node7&#45;&gt;Node5 -->
<g id="edge14" class="edge"><title>Node7&#45;&gt;Node5</title>
<path fill="none" stroke="midnightblue" d="M266.995,-58.3619C258.453,-50.1043 246.42,-38.4725 236.417,-28.8029"/>
<polygon fill="midnightblue" stroke="midnightblue" points="238.558,-26.0044 228.935,-21.5707 233.692,-31.0374 238.558,-26.0044"/>
</g>
<!-- Node7&#45;&gt;Node8 -->
<g id="edge16" class="edge"><title>Node7&#45;&gt;Node8</title>
<path fill="none" stroke="midnightblue" d="M293.59,-58.3619C306.291,-49.6955 324.438,-37.3126 338.992,-27.3819"/>
<polygon fill="midnightblue" stroke="midnightblue" points="341.221,-30.0982 347.509,-21.5707 337.276,-24.316 341.221,-30.0982"/>
</g>
<!-- Node9 -->
<g id="node18" class="node"><title>Node9</title>
<polygon fill="white" stroke="#bfbfbf" points="263.5,-0.5 263.5,-21.5 316.5,-21.5 316.5,-0.5 263.5,-0.5"/>
<text text-anchor="middle" x="290" y="-8.5" font-family="Helvetica,sans-Serif" font-size="10.00">cxxabi.h</text>
</g>
<!-- Node7&#45;&gt;Node9 -->
<g id="edge18" class="edge"><title>Node7&#45;&gt;Node9</title>
<path fill="none" stroke="midnightblue" d="M280.201,-58.3619C281.757,-50.8401 283.893,-40.5187 285.773,-31.4308"/>
<polygon fill="midnightblue" stroke="midnightblue" points="289.214,-32.0724 287.813,-21.5707 282.359,-30.6541 289.214,-32.0724"/>
</g>
</g>
</svg>
