<?xml version="1.0" encoding="UTF-8" standalone="no"?>
<!DOCTYPE svg PUBLIC "-//W3C//DTD SVG 1.1//EN"
 "http://www.w3.org/Graphics/SVG/1.1/DTD/svg11.dtd">
<!-- Generated by graphviz version 2.26.3 (20100126.1600)
 -->
<!-- Title: src/base/WrapTTree.h Pages: 1 -->
<svg width="178pt" height="88pt"
 viewBox="0.00 0.00 178.00 88.00" xmlns="http://www.w3.org/2000/svg" xmlns:xlink="http://www.w3.org/1999/xlink">
<g id="graph1" class="graph" transform="scale(1 1) rotate(0) translate(4 84)">
<title>src/base/WrapTTree.h</title>
<polygon fill="white" stroke="white" points="-4,5 -4,-84 175,-84 175,5 -4,5"/>
<!-- Node1 -->
<g id="node1" class="node"><title>Node1</title>
<polygon fill="#bfbfbf" stroke="black" points="33,-58.5 33,-79.5 147,-79.5 147,-58.5 33,-58.5"/>
<text text-anchor="middle" x="90" y="-66.5" font-family="Helvetica,sans-Serif" font-size="10.00">src/base/WrapTTree.h</text>
</g>
<!-- Node2 -->
<g id="node3" class="node"><title>Node2</title>
<polygon fill="white" stroke="#bfbfbf" points="0,-0.5 0,-21.5 50,-21.5 50,-0.5 0,-0.5"/>
<text text-anchor="middle" x="25" y="-8.5" font-family="Helvetica,sans-Serif" font-size="10.00">TTree.h</text>
</g>
<!-- Node1&#45;&gt;Node2 -->
<g id="edge2" class="edge"><title>Node1&#45;&gt;Node2</title>
<path fill="none" stroke="midnightblue" d="M78.078,-58.3619C68.6405,-49.9408 55.2704,-38.0105 44.3104,-28.2308"/>
<polygon fill="midnightblue" stroke="midnightblue" points="46.6381,-25.6171 36.8464,-21.5707 41.9776,-30.8401 46.6381,-25.6171"/>
</g>
<!-- Node3 -->
<g id="node5" class="node"><title>Node3</title>
<polygon fill="white" stroke="#bfbfbf" points="68,-0.5 68,-21.5 112,-21.5 112,-0.5 68,-0.5"/>
<text text-anchor="middle" x="90" y="-8.5" font-family="Helvetica,sans-Serif" font-size="10.00">vector</text>
</g>
<!-- Node1&#45;&gt;Node3 -->
<g id="edge4" class="edge"><title>Node1&#45;&gt;Node3</title>
<path fill="none" stroke="midnightblue" d="M90,-58.3619C90,-50.9219 90,-40.7427 90,-31.7276"/>
<polygon fill="midnightblue" stroke="midnightblue" points="93.5001,-31.5706 90,-21.5707 86.5001,-31.5707 93.5001,-31.5706"/>
</g>
<!-- Node4 -->
<g id="node7" class="node"><title>Node4</title>
<polygon fill="white" stroke="#bfbfbf" points="129.5,-0.5 129.5,-21.5 170.5,-21.5 170.5,-0.5 129.5,-0.5"/>
<text text-anchor="middle" x="150" y="-8.5" font-family="Helvetica,sans-Serif" font-size="10.00">string</text>
</g>
<!-- Node1&#45;&gt;Node4 -->
<g id="edge6" class="edge"><title>Node1&#45;&gt;Node4</title>
<path fill="none" stroke="midnightblue" d="M101.005,-58.3619C109.547,-50.1043 121.58,-38.4725 131.583,-28.8029"/>
<polygon fill="midnightblue" stroke="midnightblue" points="134.308,-31.0374 139.065,-21.5707 129.442,-26.0044 134.308,-31.0374"/>
</g>
</g>
</svg>
