<?xml version="1.0" encoding="UTF-8" standalone="no"?>
<!DOCTYPE svg PUBLIC "-//W3C//DTD SVG 1.1//EN"
 "http://www.w3.org/Graphics/SVG/1.1/DTD/svg11.dtd">
<!-- Generated by graphviz version 2.26.3 (20100126.1600)
 -->
<!-- Title: src/analysis/physics/calibration/TAPS_Energy.h Pages: 1 -->
<svg width="3331pt" height="594pt"
 viewBox="0.00 0.00 3331.01 594.00" xmlns="http://www.w3.org/2000/svg" xmlns:xlink="http://www.w3.org/1999/xlink">
<g id="graph1" class="graph" transform="scale(1 1) rotate(0) translate(4 590)">
<title>src/analysis/physics/calibration/TAPS_Energy.h</title>
<polygon fill="white" stroke="white" points="-4,5 -4,-590 3328.01,-590 3328.01,5 -4,5"/>
<!-- Node1 -->
<g id="node1" class="node"><title>Node1</title>
<polygon fill="#bfbfbf" stroke="black" points="2830.51,-551 2830.51,-585 2967.51,-585 2967.51,-551 2830.51,-551"/>
<text text-anchor="start" x="2838.51" y="-572" font-family="Helvetica,sans-Serif" font-size="10.00">src/analysis/physics</text>
<text text-anchor="middle" x="2899.01" y="-559" font-family="Helvetica,sans-Serif" font-size="10.00">/calibration/TAPS_Energy.h</text>
</g>
<!-- Node2 -->
<g id="node3" class="node"><title>Node2</title>
<a xlink:href="_physics_8h.html" target="_top" xlink:title="analysis/physics/Physics.h">
<polygon fill="white" stroke="black" points="2666.01,-485.5 2666.01,-506.5 2802.01,-506.5 2802.01,-485.5 2666.01,-485.5"/>
<text text-anchor="middle" x="2734.01" y="-493.5" font-family="Helvetica,sans-Serif" font-size="10.00">analysis/physics/Physics.h</text>
</a>
</g>
<!-- Node1&#45;&gt;Node2 -->
<g id="edge2" class="edge"><title>Node1&#45;&gt;Node2</title>
<path fill="none" stroke="midnightblue" d="M2859.91,-550.937C2831.9,-538.715 2794.56,-522.422 2767.83,-510.759"/>
<polygon fill="midnightblue" stroke="midnightblue" points="2769.07,-507.48 2758.5,-506.688 2766.27,-513.895 2769.07,-507.48"/>
</g>
<!-- Node66 -->
<g id="node235" class="node"><title>Node66</title>
<a xlink:href="_t_h2_t_a_p_s_8h.html" target="_top" xlink:title="root&#45;addons/cbtaps\l_display/TH2TAPS.h">
<polygon fill="white" stroke="black" points="3009.51,-479 3009.51,-513 3118.51,-513 3118.51,-479 3009.51,-479"/>
<text text-anchor="start" x="3017.51" y="-500" font-family="Helvetica,sans-Serif" font-size="10.00">root&#45;addons/cbtaps</text>
<text text-anchor="middle" x="3064.01" y="-487" font-family="Helvetica,sans-Serif" font-size="10.00">_display/TH2TAPS.h</text>
</a>
</g>
<!-- Node1&#45;&gt;Node66 -->
<g id="edge338" class="edge"><title>Node1&#45;&gt;Node66</title>
<path fill="none" stroke="midnightblue" d="M2938.11,-550.937C2961.35,-540.797 2991.01,-527.854 3015.7,-517.078"/>
<polygon fill="midnightblue" stroke="midnightblue" points="3017.14,-520.273 3024.9,-513.065 3014.34,-513.857 3017.14,-520.273"/>
</g>
<!-- Node3 -->
<g id="node5" class="node"><title>Node3</title>
<a xlink:href="manager__t_8h.html" target="_top" xlink:title="analysis/physics/manager_t.h">
<polygon fill="white" stroke="black" points="3023.01,-420.5 3023.01,-441.5 3169.01,-441.5 3169.01,-420.5 3023.01,-420.5"/>
<text text-anchor="middle" x="3096.01" y="-428.5" font-family="Helvetica,sans-Serif" font-size="10.00">analysis/physics/manager_t.h</text>
</a>
</g>
<!-- Node2&#45;&gt;Node3 -->
<g id="edge4" class="edge"><title>Node2&#45;&gt;Node3</title>
<path fill="none" stroke="midnightblue" d="M2792.57,-485.484C2856.72,-473.967 2959.48,-455.515 3027.36,-443.326"/>
<polygon fill="midnightblue" stroke="midnightblue" points="3028.31,-446.713 3037.53,-441.501 3027.07,-439.823 3028.31,-446.713"/>
</g>
<!-- Node4 -->
<g id="node7" class="node"><title>Node4</title>
<a xlink:href="_histogram_factories_8h.html" target="_top" xlink:title="analysis/plot/HistogramFactories.h">
<polygon fill="white" stroke="black" points="2291.01,-246.5 2291.01,-267.5 2459.01,-267.5 2459.01,-246.5 2291.01,-246.5"/>
<text text-anchor="middle" x="2375.01" y="-254.5" font-family="Helvetica,sans-Serif" font-size="10.00">analysis/plot/HistogramFactories.h</text>
</a>
</g>
<!-- Node2&#45;&gt;Node4 -->
<g id="edge6" class="edge"><title>Node2&#45;&gt;Node4</title>
<path fill="none" stroke="midnightblue" d="M2665.79,-488.526C2598.95,-480.05 2502.89,-464.429 2473.01,-442 2417.18,-400.101 2389.97,-316.956 2379.85,-278.026"/>
<polygon fill="midnightblue" stroke="midnightblue" points="2383.14,-276.742 2377.34,-267.872 2376.34,-278.419 2383.14,-276.742"/>
</g>
<!-- Node14 -->
<g id="node27" class="node"><title>Node14</title>
<polygon fill="white" stroke="#bfbfbf" points="2580.51,-116.5 2580.51,-137.5 2621.51,-137.5 2621.51,-116.5 2580.51,-116.5"/>
<text text-anchor="middle" x="2601.01" y="-124.5" font-family="Helvetica,sans-Serif" font-size="10.00">string</text>
</g>
<!-- Node2&#45;&gt;Node14 -->
<g id="edge330" class="edge"><title>Node2&#45;&gt;Node14</title>
<path fill="none" stroke="midnightblue" d="M2717.46,-485.312C2690.24,-466.283 2639.01,-423.726 2639.01,-373 2639.01,-373 2639.01,-373 2639.01,-257 2639.01,-216.7 2621.98,-172.094 2610.72,-147.01"/>
<polygon fill="midnightblue" stroke="midnightblue" points="2613.84,-145.414 2606.45,-137.816 2607.49,-148.36 2613.84,-145.414"/>
</g>
<!-- Node15 -->
<g id="node29" class="node"><title>Node15</title>
<a xlink:href="memory_8h.html" target="_top" xlink:title="base/std_ext/memory.h">
<polygon fill="white" stroke="black" points="2378.51,-181.5 2378.51,-202.5 2497.51,-202.5 2497.51,-181.5 2378.51,-181.5"/>
<text text-anchor="middle" x="2438.01" y="-189.5" font-family="Helvetica,sans-Serif" font-size="10.00">base/std_ext/memory.h</text>
</a>
</g>
<!-- Node2&#45;&gt;Node15 -->
<g id="edge28" class="edge"><title>Node2&#45;&gt;Node15</title>
<path fill="none" stroke="midnightblue" d="M2666,-486.798C2609.07,-477.815 2533.61,-462.509 2511.01,-442 2486.96,-420.183 2487.01,-405.469 2487.01,-373 2487.01,-373 2487.01,-373 2487.01,-315 2487.01,-276.009 2465.5,-234.686 2450.98,-211.241"/>
<polygon fill="midnightblue" stroke="midnightblue" points="2453.8,-209.15 2445.45,-202.621 2447.9,-212.928 2453.8,-209.15"/>
</g>
<!-- Node16 -->
<g id="node31" class="node"><title>Node16</title>
<polygon fill="white" stroke="#bfbfbf" points="2274.01,-116.5 2274.01,-137.5 2326.01,-137.5 2326.01,-116.5 2274.01,-116.5"/>
<text text-anchor="middle" x="2300.01" y="-124.5" font-family="Helvetica,sans-Serif" font-size="10.00">memory</text>
</g>
<!-- Node2&#45;&gt;Node16 -->
<g id="edge334" class="edge"><title>Node2&#45;&gt;Node16</title>
<path fill="none" stroke="midnightblue" d="M2667.59,-485.435C2606.39,-471.472 2525.01,-440.258 2525.01,-373 2525.01,-373 2525.01,-373 2525.01,-257 2525.01,-219.157 2532.78,-200.749 2506.01,-174 2482.52,-150.53 2389.24,-136.751 2336.62,-130.693"/>
<polygon fill="midnightblue" stroke="midnightblue" points="2336.69,-127.179 2326.36,-129.551 2335.91,-134.136 2336.69,-127.179"/>
</g>
<!-- Node17 -->
<g id="node33" class="node"><title>Node17</title>
<polygon fill="white" stroke="#bfbfbf" points="2002.51,-116.5 2002.51,-137.5 2031.51,-137.5 2031.51,-116.5 2002.51,-116.5"/>
<text text-anchor="middle" x="2017.01" y="-124.5" font-family="Helvetica,sans-Serif" font-size="10.00">list</text>
</g>
<!-- Node2&#45;&gt;Node17 -->
<g id="edge328" class="edge"><title>Node2&#45;&gt;Node17</title>
<path fill="none" stroke="midnightblue" d="M2665.87,-488.214C2606.74,-480.285 2519.33,-465.73 2446.01,-442 2216,-367.562 2083.47,-414.175 1954.01,-210 1945.44,-196.487 1946.84,-188.302 1954.01,-174 1958.4,-165.252 1977.65,-151.552 1993.73,-141.195"/>
<polygon fill="midnightblue" stroke="midnightblue" points="1995.63,-144.134 2002.22,-135.839 1991.89,-138.214 1995.63,-144.134"/>
</g>
<!-- Node18 -->
<g id="node35" class="node"><title>Node18</title>
<a xlink:href="_t_event_8h.html" target="_top" xlink:title="tree/TEvent.h">
<polygon fill="white" stroke="black" points="2783.01,-181.5 2783.01,-202.5 2859.01,-202.5 2859.01,-181.5 2783.01,-181.5"/>
<text text-anchor="middle" x="2821.01" y="-189.5" font-family="Helvetica,sans-Serif" font-size="10.00">tree/TEvent.h</text>
</a>
</g>
<!-- Node2&#45;&gt;Node18 -->
<g id="edge34" class="edge"><title>Node2&#45;&gt;Node18</title>
<path fill="none" stroke="midnightblue" d="M2731.21,-485.227C2725.92,-463.941 2715.01,-414.918 2715.01,-373 2715.01,-373 2715.01,-373 2715.01,-315 2715.01,-282.531 2719.06,-271.618 2739.01,-246 2751.82,-229.546 2771.12,-216.485 2787.77,-207.333"/>
<polygon fill="midnightblue" stroke="midnightblue" points="2789.46,-210.398 2796.69,-202.654 2786.21,-204.198 2789.46,-210.398"/>
</g>
<!-- Node20 -->
<g id="node42" class="node"><title>Node20</title>
<a xlink:href="_t_event_data_8h.html" target="_top" xlink:title="tree/TEventData.h">
<polygon fill="white" stroke="black" points="1237.51,-420.5 1237.51,-441.5 1334.51,-441.5 1334.51,-420.5 1237.51,-420.5"/>
<text text-anchor="middle" x="1286.01" y="-428.5" font-family="Helvetica,sans-Serif" font-size="10.00">tree/TEventData.h</text>
</a>
</g>
<!-- Node2&#45;&gt;Node20 -->
<g id="edge44" class="edge"><title>Node2&#45;&gt;Node20</title>
<path fill="none" stroke="midnightblue" d="M2665.63,-492.93C2418.7,-481.846 1575.53,-443.997 1344.79,-433.639"/>
<polygon fill="midnightblue" stroke="midnightblue" points="1344.74,-430.133 1334.59,-433.181 1344.43,-437.126 1344.74,-430.133"/>
</g>
<!-- Node51 -->
<g id="node158" class="node"><title>Node51</title>
<polygon fill="white" stroke="#bfbfbf" points="2892.51,-116.5 2892.51,-137.5 2951.51,-137.5 2951.51,-116.5 2892.51,-116.5"/>
<text text-anchor="middle" x="2922.01" y="-124.5" font-family="Helvetica,sans-Serif" font-size="10.00">functional</text>
</g>
<!-- Node2&#45;&gt;Node51 -->
<g id="edge336" class="edge"><title>Node2&#45;&gt;Node51</title>
<path fill="none" stroke="midnightblue" d="M2744.96,-485.208C2788.9,-441.596 2951.29,-277.487 2976.01,-210 2981.51,-194.976 2982.64,-188.561 2976.01,-174 2970.42,-161.717 2959.85,-151.397 2949.54,-143.586"/>
<polygon fill="midnightblue" stroke="midnightblue" points="2951.25,-140.508 2941.05,-137.626 2947.22,-146.237 2951.25,-140.508"/>
</g>
<!-- Node55 -->
<g id="node187" class="node"><title>Node55</title>
<polygon fill="white" stroke="#bfbfbf" points="2969.51,-116.5 2969.51,-137.5 3004.51,-137.5 3004.51,-116.5 2969.51,-116.5"/>
<text text-anchor="middle" x="2987.01" y="-124.5" font-family="Helvetica,sans-Serif" font-size="10.00">map</text>
</g>
<!-- Node2&#45;&gt;Node55 -->
<g id="edge332" class="edge"><title>Node2&#45;&gt;Node55</title>
<path fill="none" stroke="midnightblue" d="M2802.45,-492.589C2920.82,-485.982 3153.55,-469.611 3178.01,-442 3267.29,-341.2 3080.52,-193.133 3011.38,-143.731"/>
<polygon fill="midnightblue" stroke="midnightblue" points="3013,-140.593 3002.81,-137.687 3008.97,-146.312 3013,-140.593"/>
</g>
<!-- Node60 -->
<g id="node207" class="node"><title>Node60</title>
<a xlink:href="_options_list_8h.html" target="_top" xlink:title="base/OptionsList.h">
<polygon fill="white" stroke="black" points="2667.01,-181.5 2667.01,-202.5 2765.01,-202.5 2765.01,-181.5 2667.01,-181.5"/>
<text text-anchor="middle" x="2716.01" y="-189.5" font-family="Helvetica,sans-Serif" font-size="10.00">base/OptionsList.h</text>
</a>
</g>
<!-- Node2&#45;&gt;Node60 -->
<g id="edge294" class="edge"><title>Node2&#45;&gt;Node60</title>
<path fill="none" stroke="midnightblue" d="M2725.1,-485.254C2709.07,-464.782 2677.01,-418.188 2677.01,-373 2677.01,-373 2677.01,-373 2677.01,-315 2677.01,-276.973 2694.16,-235.295 2705.71,-211.528"/>
<polygon fill="midnightblue" stroke="midnightblue" points="2708.88,-213.008 2710.25,-202.502 2702.63,-209.861 2708.88,-213.008"/>
</g>
<!-- Node62 -->
<g id="node215" class="node"><title>Node62</title>
<a xlink:href="root__draw_8h.html" target="_top" xlink:title="analysis/plot/root\l_draw.h">
<polygon fill="white" stroke="black" points="2876.51,-175 2876.51,-209 2967.51,-209 2967.51,-175 2876.51,-175"/>
<text text-anchor="start" x="2884.51" y="-196" font-family="Helvetica,sans-Serif" font-size="10.00">analysis/plot/root</text>
<text text-anchor="middle" x="2922.01" y="-183" font-family="Helvetica,sans-Serif" font-size="10.00">_draw.h</text>
</a>
</g>
<!-- Node2&#45;&gt;Node62 -->
<g id="edge306" class="edge"><title>Node2&#45;&gt;Node62</title>
<path fill="none" stroke="midnightblue" d="M2736.81,-485.227C2742.1,-463.941 2753.01,-414.918 2753.01,-373 2753.01,-373 2753.01,-373 2753.01,-315 2753.01,-284.083 2827.88,-239.831 2877.95,-213.692"/>
<polygon fill="midnightblue" stroke="midnightblue" points="2879.71,-216.725 2886.99,-209.029 2876.5,-210.504 2879.71,-216.725"/>
</g>
<!-- Node63 -->
<g id="node224" class="node"><title>Node63</title>
<polygon fill="white" stroke="#bfbfbf" points="2818.51,-420.5 2818.51,-441.5 2869.51,-441.5 2869.51,-420.5 2818.51,-420.5"/>
<text text-anchor="middle" x="2844.01" y="-428.5" font-family="Helvetica,sans-Serif" font-size="10.00">TH1D.h</text>
</g>
<!-- Node2&#45;&gt;Node63 -->
<g id="edge322" class="edge"><title>Node2&#45;&gt;Node63</title>
<path fill="none" stroke="midnightblue" d="M2752.17,-485.267C2769.95,-474.76 2797.24,-458.637 2817.45,-446.692"/>
<polygon fill="midnightblue" stroke="midnightblue" points="2819.35,-449.634 2826.18,-441.534 2815.79,-443.608 2819.35,-449.634"/>
</g>
<!-- Node64 -->
<g id="node226" class="node"><title>Node64</title>
<polygon fill="white" stroke="#bfbfbf" points="2886.51,-420.5 2886.51,-441.5 2937.51,-441.5 2937.51,-420.5 2886.51,-420.5"/>
<text text-anchor="middle" x="2912.01" y="-428.5" font-family="Helvetica,sans-Serif" font-size="10.00">TH2D.h</text>
</g>
<!-- Node2&#45;&gt;Node64 -->
<g id="edge324" class="edge"><title>Node2&#45;&gt;Node64</title>
<path fill="none" stroke="midnightblue" d="M2763,-485.412C2794.07,-474.067 2843.4,-456.053 2876.71,-443.891"/>
<polygon fill="midnightblue" stroke="midnightblue" points="2878.3,-447.036 2886.49,-440.318 2875.9,-440.461 2878.3,-447.036"/>
</g>
<!-- Node65 -->
<g id="node228" class="node"><title>Node65</title>
<polygon fill="white" stroke="#bfbfbf" points="2954.51,-420.5 2954.51,-441.5 3005.51,-441.5 3005.51,-420.5 2954.51,-420.5"/>
<text text-anchor="middle" x="2980.01" y="-428.5" font-family="Helvetica,sans-Serif" font-size="10.00">TH3D.h</text>
</g>
<!-- Node2&#45;&gt;Node65 -->
<g id="edge326" class="edge"><title>Node2&#45;&gt;Node65</title>
<path fill="none" stroke="midnightblue" d="M2778.9,-485.442C2819.86,-475.612 2882.26,-460.148 2944.81,-442.24"/>
<polygon fill="midnightblue" stroke="midnightblue" points="2945.8,-445.597 2954.44,-439.464 2943.86,-438.871 2945.8,-445.597"/>
</g>
<!-- Node5 -->
<g id="node9" class="node"><title>Node5</title>
<a xlink:href="interval_8h.html" target="_top" xlink:title="base/interval.h">
<polygon fill="white" stroke="black" points="1675.01,-181.5 1675.01,-202.5 1755.01,-202.5 1755.01,-181.5 1675.01,-181.5"/>
<text text-anchor="middle" x="1715.01" y="-189.5" font-family="Helvetica,sans-Serif" font-size="10.00">base/interval.h</text>
</a>
</g>
<!-- Node4&#45;&gt;Node5 -->
<g id="edge8" class="edge"><title>Node4&#45;&gt;Node5</title>
<path fill="none" stroke="midnightblue" d="M2290.75,-248.702C2151.57,-234.995 1877.85,-208.037 1765.23,-196.946"/>
<polygon fill="midnightblue" stroke="midnightblue" points="1765.46,-193.452 1755.16,-195.955 1764.77,-200.418 1765.46,-193.452"/>
</g>
<!-- Node4&#45;&gt;Node14 -->
<g id="edge26" class="edge"><title>Node4&#45;&gt;Node14</title>
<path fill="none" stroke="midnightblue" d="M2456.99,-246.462C2504.98,-238.701 2559.51,-226.601 2577.01,-210 2593.94,-193.939 2599.16,-166.742 2600.64,-147.878"/>
<polygon fill="midnightblue" stroke="midnightblue" points="2604.15,-147.793 2601.15,-137.632 2597.16,-147.445 2604.15,-147.793"/>
</g>
<!-- Node6 -->
<g id="node11" class="node"><title>Node6</title>
<a xlink:href="printable_8h.html" target="_top" xlink:title="printable.h">
<polygon fill="white" stroke="black" points="1492.01,-58.5 1492.01,-79.5 1554.01,-79.5 1554.01,-58.5 1492.01,-58.5"/>
<text text-anchor="middle" x="1523.01" y="-66.5" font-family="Helvetica,sans-Serif" font-size="10.00">printable.h</text>
</a>
</g>
<!-- Node5&#45;&gt;Node6 -->
<g id="edge10" class="edge"><title>Node5&#45;&gt;Node6</title>
<path fill="none" stroke="midnightblue" d="M1746.08,-181.452C1753.57,-178.961 1761.56,-176.348 1769.01,-174 1825.89,-156.065 1929.41,-160.768 1890.01,-116 1868.73,-91.827 1655.62,-76.6864 1564.25,-71.2594"/>
<polygon fill="midnightblue" stroke="midnightblue" points="1564.43,-67.7643 1554.24,-70.6753 1564.02,-74.7524 1564.43,-67.7643"/>
</g>
<!-- Node9 -->
<g id="node17" class="node"><title>Node9</title>
<a xlink:href="types_8h.html" target="_top" xlink:title="types.h">
<polygon fill="white" stroke="black" points="1936.51,-116.5 1936.51,-137.5 1985.51,-137.5 1985.51,-116.5 1936.51,-116.5"/>
<text text-anchor="middle" x="1961.01" y="-124.5" font-family="Helvetica,sans-Serif" font-size="10.00">types.h</text>
</a>
</g>
<!-- Node5&#45;&gt;Node9 -->
<g id="edge16" class="edge"><title>Node5&#45;&gt;Node9</title>
<path fill="none" stroke="midnightblue" d="M1745.13,-181.414C1752.87,-178.845 1761.21,-176.206 1769.01,-174 1836.64,-154.866 1855,-155.778 1923.01,-138 1924.07,-137.722 1925.15,-137.436 1926.24,-137.144"/>
<polygon fill="midnightblue" stroke="midnightblue" points="1927.42,-140.448 1936.12,-134.405 1925.55,-133.702 1927.42,-140.448"/>
</g>
<!-- Node10 -->
<g id="node19" class="node"><title>Node10</title>
<polygon fill="white" stroke="#bfbfbf" points="1431.01,-116.5 1431.01,-137.5 1487.01,-137.5 1487.01,-116.5 1431.01,-116.5"/>
<text text-anchor="middle" x="1459.01" y="-124.5" font-family="Helvetica,sans-Serif" font-size="10.00">algorithm</text>
</g>
<!-- Node5&#45;&gt;Node10 -->
<g id="edge18" class="edge"><title>Node5&#45;&gt;Node10</title>
<path fill="none" stroke="midnightblue" d="M1674.73,-181.772C1626.06,-169.415 1544.79,-148.781 1497.12,-136.676"/>
<polygon fill="midnightblue" stroke="midnightblue" points="1497.75,-133.225 1487.19,-134.156 1496.02,-140.009 1497.75,-133.225"/>
</g>
<!-- Node11 -->
<g id="node21" class="node"><title>Node11</title>
<polygon fill="white" stroke="#bfbfbf" points="1088.51,-116.5 1088.51,-137.5 1147.51,-137.5 1147.51,-116.5 1088.51,-116.5"/>
<text text-anchor="middle" x="1118.01" y="-124.5" font-family="Helvetica,sans-Serif" font-size="10.00">stdexcept</text>
</g>
<!-- Node5&#45;&gt;Node11 -->
<g id="edge20" class="edge"><title>Node5&#45;&gt;Node11</title>
<path fill="none" stroke="midnightblue" d="M1674.9,-182.72C1660.21,-179.583 1643.42,-176.297 1628.01,-174 1453.88,-148.047 1244.04,-134.125 1157.88,-129.148"/>
<polygon fill="midnightblue" stroke="midnightblue" points="1157.94,-125.646 1147.75,-128.572 1157.54,-132.635 1157.94,-125.646"/>
</g>
<!-- Node12 -->
<g id="node23" class="node"><title>Node12</title>
<polygon fill="white" stroke="#bfbfbf" points="1041.01,-58.5 1041.01,-79.5 1081.01,-79.5 1081.01,-58.5 1041.01,-58.5"/>
<text text-anchor="middle" x="1061.01" y="-66.5" font-family="Helvetica,sans-Serif" font-size="10.00">limits</text>
</g>
<!-- Node5&#45;&gt;Node12 -->
<g id="edge22" class="edge"><title>Node5&#45;&gt;Node12</title>
<path fill="none" stroke="midnightblue" d="M1726.17,-181.416C1741.66,-165.474 1765.88,-135.133 1748.01,-116 1725.27,-91.6472 1220.93,-74.0601 1091.21,-69.9286"/>
<polygon fill="midnightblue" stroke="midnightblue" points="1091.28,-66.4292 1081.18,-69.6122 1091.06,-73.4257 1091.28,-66.4292"/>
</g>
<!-- Node13 -->
<g id="node25" class="node"><title>Node13</title>
<polygon fill="white" stroke="#bfbfbf" points="1832.51,-116.5 1832.51,-137.5 1881.51,-137.5 1881.51,-116.5 1832.51,-116.5"/>
<text text-anchor="middle" x="1857.01" y="-124.5" font-family="Helvetica,sans-Serif" font-size="10.00">istream</text>
</g>
<!-- Node5&#45;&gt;Node13 -->
<g id="edge24" class="edge"><title>Node5&#45;&gt;Node13</title>
<path fill="none" stroke="midnightblue" d="M1738.14,-181.412C1761.66,-170.647 1798.29,-153.878 1824.67,-141.801"/>
<polygon fill="midnightblue" stroke="midnightblue" points="1826.25,-144.928 1833.89,-137.584 1823.34,-138.563 1826.25,-144.928"/>
</g>
<!-- Node7 -->
<g id="node13" class="node"><title>Node7</title>
<polygon fill="white" stroke="#bfbfbf" points="1172.01,-0.5 1172.01,-21.5 1216.01,-21.5 1216.01,-0.5 1172.01,-0.5"/>
<text text-anchor="middle" x="1194.01" y="-8.5" font-family="Helvetica,sans-Serif" font-size="10.00">vector</text>
</g>
<!-- Node6&#45;&gt;Node7 -->
<g id="edge12" class="edge"><title>Node6&#45;&gt;Node7</title>
<path fill="none" stroke="midnightblue" d="M1491.76,-63.4912C1429.29,-52.4782 1289.57,-27.8467 1226.27,-16.6879"/>
<polygon fill="midnightblue" stroke="midnightblue" points="1226.54,-13.1811 1216.08,-14.8917 1225.33,-20.0748 1226.54,-13.1811"/>
</g>
<!-- Node8 -->
<g id="node15" class="node"><title>Node8</title>
<polygon fill="white" stroke="#bfbfbf" points="2252.01,-0.5 2252.01,-21.5 2304.01,-21.5 2304.01,-0.5 2252.01,-0.5"/>
<text text-anchor="middle" x="2278.01" y="-8.5" font-family="Helvetica,sans-Serif" font-size="10.00">ostream</text>
</g>
<!-- Node6&#45;&gt;Node8 -->
<g id="edge14" class="edge"><title>Node6&#45;&gt;Node8</title>
<path fill="none" stroke="midnightblue" d="M1554.01,-66.6182C1674.66,-57.3502 2112.48,-23.7164 2241.8,-13.7815"/>
<polygon fill="midnightblue" stroke="midnightblue" points="2242.26,-17.2567 2251.96,-13.0009 2241.72,-10.2772 2242.26,-17.2567"/>
</g>
<!-- Node15&#45;&gt;Node16 -->
<g id="edge30" class="edge"><title>Node15&#45;&gt;Node16</title>
<path fill="none" stroke="midnightblue" d="M2415.53,-181.412C2392.77,-170.694 2357.39,-154.025 2331.77,-141.96"/>
<polygon fill="midnightblue" stroke="midnightblue" points="2333.02,-138.678 2322.48,-137.584 2330.03,-145.011 2333.02,-138.678"/>
</g>
<!-- Node15&#45;&gt;Node17 -->
<g id="edge32" class="edge"><title>Node15&#45;&gt;Node17</title>
<path fill="none" stroke="midnightblue" d="M2378.34,-181.651C2363.23,-179.091 2347.03,-176.396 2332.01,-174 2224.19,-156.804 2095.3,-138.174 2041.98,-130.552"/>
<polygon fill="midnightblue" stroke="midnightblue" points="2042.18,-127.045 2031.79,-129.097 2041.19,-133.975 2042.18,-127.045"/>
</g>
<!-- Node18&#45;&gt;Node6 -->
<g id="edge38" class="edge"><title>Node18&#45;&gt;Node6</title>
<path fill="none" stroke="midnightblue" d="M2813.78,-181.445C2801.16,-164.052 2773.28,-129.912 2740.01,-116 2684.67,-92.8601 1771.15,-73.8129 1564.38,-69.7854"/>
<polygon fill="midnightblue" stroke="midnightblue" points="1564.31,-66.2835 1554.25,-69.589 1564.18,-73.2822 1564.31,-66.2835"/>
</g>
<!-- Node18&#45;&gt;Node11 -->
<g id="edge42" class="edge"><title>Node18&#45;&gt;Node11</title>
<path fill="none" stroke="midnightblue" d="M2798.04,-181.422C2790.54,-178.453 2782.06,-175.601 2774.01,-174 2626.62,-144.707 1572.21,-142.717 1422.01,-138 1327.34,-135.027 1216.12,-130.821 1158,-128.569"/>
<polygon fill="midnightblue" stroke="midnightblue" points="1157.91,-125.063 1147.78,-128.172 1157.64,-132.057 1157.91,-125.063"/>
</g>
<!-- Node18&#45;&gt;Node16 -->
<g id="edge40" class="edge"><title>Node18&#45;&gt;Node16</title>
<path fill="none" stroke="midnightblue" d="M2797,-181.393C2789.74,-178.572 2781.66,-175.81 2774.01,-174 2690.72,-154.298 2432.24,-135.729 2336.32,-129.342"/>
<polygon fill="midnightblue" stroke="midnightblue" points="2336.44,-125.843 2326.23,-128.675 2335.98,-132.827 2336.44,-125.843"/>
</g>
<!-- Node19 -->
<g id="node37" class="node"><title>Node19</title>
<polygon fill="white" stroke="#bfbfbf" points="3090.01,-116.5 3090.01,-137.5 3146.01,-137.5 3146.01,-116.5 3090.01,-116.5"/>
<text text-anchor="middle" x="3118.01" y="-124.5" font-family="Helvetica,sans-Serif" font-size="10.00">Rtypes.h</text>
</g>
<!-- Node18&#45;&gt;Node19 -->
<g id="edge36" class="edge"><title>Node18&#45;&gt;Node19</title>
<path fill="none" stroke="midnightblue" d="M2846.1,-181.436C2853.1,-178.749 2860.78,-176.046 2868.01,-174 2941.8,-153.117 3030.51,-138.939 3079.95,-131.979"/>
<polygon fill="midnightblue" stroke="midnightblue" points="3080.46,-135.442 3089.88,-130.603 3079.5,-128.508 3080.46,-135.442"/>
</g>
<!-- Node20&#45;&gt;Node6 -->
<g id="edge46" class="edge"><title>Node20&#45;&gt;Node6</title>
<path fill="none" stroke="midnightblue" d="M1287.79,-420.238C1295.56,-376.562 1330.23,-210.378 1422.01,-116 1438.35,-99.1988 1461.85,-87.7727 1482.07,-80.3975"/>
<polygon fill="midnightblue" stroke="midnightblue" points="1483.36,-83.6533 1491.69,-77.0965 1481.09,-77.0324 1483.36,-83.6533"/>
</g>
<!-- Node21 -->
<g id="node45" class="node"><title>Node21</title>
<a xlink:href="_t_i_d_8h.html" target="_top" xlink:title="TID.h">
<polygon fill="white" stroke="black" points="772.509,-304.5 772.509,-325.5 813.509,-325.5 813.509,-304.5 772.509,-304.5"/>
<text text-anchor="middle" x="793.009" y="-312.5" font-family="Helvetica,sans-Serif" font-size="10.00">TID.h</text>
</a>
</g>
<!-- Node20&#45;&gt;Node21 -->
<g id="edge48" class="edge"><title>Node20&#45;&gt;Node21</title>
<path fill="none" stroke="midnightblue" d="M1237.27,-430.02C1138.98,-427.349 920.735,-417.693 855.009,-384 833.205,-372.823 815.42,-350.56 804.577,-334.337"/>
<polygon fill="midnightblue" stroke="midnightblue" points="807.343,-332.164 799.017,-325.611 801.439,-335.926 807.343,-332.164"/>
</g>
<!-- Node31 -->
<g id="node73" class="node"><title>Node31</title>
<a xlink:href="_t_detector_read_hit_8h.html" target="_top" xlink:title="TDetectorReadHit.h">
<polygon fill="white" stroke="black" points="534.009,-246.5 534.009,-267.5 638.009,-267.5 638.009,-246.5 534.009,-246.5"/>
<text text-anchor="middle" x="586.009" y="-254.5" font-family="Helvetica,sans-Serif" font-size="10.00">TDetectorReadHit.h</text>
</a>
</g>
<!-- Node20&#45;&gt;Node31 -->
<g id="edge84" class="edge"><title>Node20&#45;&gt;Node31</title>
<path fill="none" stroke="midnightblue" d="M1246.14,-420.473C1210.44,-411.022 1156.7,-396.718 1110.01,-384 981.833,-349.084 951.242,-334.773 822.009,-304 763.389,-290.042 695.905,-276.892 648.156,-268.071"/>
<polygon fill="midnightblue" stroke="midnightblue" points="648.744,-264.62 638.277,-266.255 647.479,-271.505 648.744,-264.62"/>
</g>
<!-- Node36 -->
<g id="node93" class="node"><title>Node36</title>
<a xlink:href="_t_slow_control_8h.html" target="_top" xlink:title="TSlowControl.h">
<polygon fill="white" stroke="black" points="400.009,-362.5 400.009,-383.5 484.009,-383.5 484.009,-362.5 400.009,-362.5"/>
<text text-anchor="middle" x="442.009" y="-370.5" font-family="Helvetica,sans-Serif" font-size="10.00">TSlowControl.h</text>
</a>
</g>
<!-- Node20&#45;&gt;Node36 -->
<g id="edge114" class="edge"><title>Node20&#45;&gt;Node36</title>
<path fill="none" stroke="midnightblue" d="M1237.29,-427.652C1089.39,-417.488 646.379,-387.044 494.094,-376.579"/>
<polygon fill="midnightblue" stroke="midnightblue" points="494.281,-373.084 484.064,-375.89 493.801,-380.068 494.281,-373.084"/>
</g>
<!-- Node37 -->
<g id="node100" class="node"><title>Node37</title>
<a xlink:href="_t_unpacker_message_8h.html" target="_top" xlink:title="TUnpackerMessage.h">
<polygon fill="white" stroke="black" points="1398.51,-246.5 1398.51,-267.5 1511.51,-267.5 1511.51,-246.5 1398.51,-246.5"/>
<text text-anchor="middle" x="1455.01" y="-254.5" font-family="Helvetica,sans-Serif" font-size="10.00">TUnpackerMessage.h</text>
</a>
</g>
<!-- Node20&#45;&gt;Node37 -->
<g id="edge126" class="edge"><title>Node20&#45;&gt;Node37</title>
<path fill="none" stroke="midnightblue" d="M1301.51,-420.433C1314.29,-411.409 1332.59,-397.742 1347.01,-384 1384.12,-348.636 1421.58,-301.414 1441.14,-275.671"/>
<polygon fill="midnightblue" stroke="midnightblue" points="1444.06,-277.609 1447.28,-267.515 1438.47,-273.398 1444.06,-277.609"/>
</g>
<!-- Node44 -->
<g id="node122" class="node"><title>Node44</title>
<a xlink:href="_t_tagger_hit_8h.html" target="_top" xlink:title="TTaggerHit.h">
<polygon fill="white" stroke="black" points="729.009,-362.5 729.009,-383.5 803.009,-383.5 803.009,-362.5 729.009,-362.5"/>
<text text-anchor="middle" x="766.009" y="-370.5" font-family="Helvetica,sans-Serif" font-size="10.00">TTaggerHit.h</text>
</a>
</g>
<!-- Node20&#45;&gt;Node44 -->
<g id="edge156" class="edge"><title>Node20&#45;&gt;Node44</title>
<path fill="none" stroke="midnightblue" d="M1237.51,-427.947C1152.13,-422.171 969.587,-408.021 817.009,-384 815.751,-383.802 814.477,-383.592 813.193,-383.373"/>
<polygon fill="midnightblue" stroke="midnightblue" points="813.711,-379.91 803.242,-381.537 812.441,-386.794 813.711,-379.91"/>
</g>
<!-- Node46 -->
<g id="node132" class="node"><title>Node46</title>
<a xlink:href="_t_trigger_8h.html" target="_top" xlink:title="TTrigger.h">
<polygon fill="white" stroke="black" points="1962.51,-181.5 1962.51,-202.5 2023.51,-202.5 2023.51,-181.5 1962.51,-181.5"/>
<text text-anchor="middle" x="1993.01" y="-189.5" font-family="Helvetica,sans-Serif" font-size="10.00">TTrigger.h</text>
</a>
</g>
<!-- Node20&#45;&gt;Node46 -->
<g id="edge172" class="edge"><title>Node20&#45;&gt;Node46</title>
<path fill="none" stroke="midnightblue" d="M1334.79,-430.12C1455.43,-427.448 1765.02,-417.445 1862.01,-384 1906.29,-368.729 1921.69,-363.31 1950.01,-326 1976.09,-291.64 1986.65,-240.934 1990.69,-212.775"/>
<polygon fill="midnightblue" stroke="midnightblue" points="1994.16,-213.21 1991.98,-202.844 1987.22,-212.311 1994.16,-213.21"/>
</g>
<!-- Node47 -->
<g id="node139" class="node"><title>Node47</title>
<a xlink:href="_t_target_8h.html" target="_top" xlink:title="TTarget.h">
<polygon fill="white" stroke="black" points="1474.51,-181.5 1474.51,-202.5 1533.51,-202.5 1533.51,-181.5 1474.51,-181.5"/>
<text text-anchor="middle" x="1504.01" y="-189.5" font-family="Helvetica,sans-Serif" font-size="10.00">TTarget.h</text>
</a>
</g>
<!-- Node20&#45;&gt;Node47 -->
<g id="edge184" class="edge"><title>Node20&#45;&gt;Node47</title>
<path fill="none" stroke="midnightblue" d="M1317.72,-420.481C1371.6,-400.626 1479.16,-351.912 1520.01,-268 1528.67,-250.198 1522.14,-227.814 1514.98,-211.962"/>
<polygon fill="midnightblue" stroke="midnightblue" points="1517.92,-210.009 1510.35,-202.601 1511.65,-213.116 1517.92,-210.009"/>
</g>
<!-- Node49 -->
<g id="node150" class="node"><title>Node49</title>
<a xlink:href="_t_cluster_8h.html" target="_top" xlink:title="TCluster.h">
<polygon fill="white" stroke="black" points="817.009,-246.5 817.009,-267.5 879.009,-267.5 879.009,-246.5 817.009,-246.5"/>
<text text-anchor="middle" x="848.009" y="-254.5" font-family="Helvetica,sans-Serif" font-size="10.00">TCluster.h</text>
</a>
</g>
<!-- Node20&#45;&gt;Node49 -->
<g id="edge202" class="edge"><title>Node20&#45;&gt;Node49</title>
<path fill="none" stroke="midnightblue" d="M1259.27,-420.377C1183.89,-390.431 969.595,-305.301 883.986,-271.292"/>
<polygon fill="midnightblue" stroke="midnightblue" points="885.262,-268.033 874.676,-267.594 882.678,-274.539 885.262,-268.033"/>
</g>
<!-- Node52 -->
<g id="node167" class="node"><title>Node52</title>
<a xlink:href="_t_candidate_8h.html" target="_top" xlink:title="TCandidate.h">
<polygon fill="white" stroke="black" points="1137.51,-304.5 1137.51,-325.5 1212.51,-325.5 1212.51,-304.5 1137.51,-304.5"/>
<text text-anchor="middle" x="1175.01" y="-312.5" font-family="Helvetica,sans-Serif" font-size="10.00">TCandidate.h</text>
</a>
</g>
<!-- Node20&#45;&gt;Node52 -->
<g id="edge230" class="edge"><title>Node20&#45;&gt;Node52</title>
<path fill="none" stroke="midnightblue" d="M1275.77,-420.295C1256.68,-400.355 1215.52,-357.337 1192.14,-332.906"/>
<polygon fill="midnightblue" stroke="midnightblue" points="1194.67,-330.485 1185.23,-325.679 1189.61,-335.324 1194.67,-330.485"/>
</g>
<!-- Node53 -->
<g id="node176" class="node"><title>Node53</title>
<a xlink:href="_t_particle_8h.html" target="_top" xlink:title="TParticle.h">
<polygon fill="white" stroke="black" points="1789.01,-362.5 1789.01,-383.5 1853.01,-383.5 1853.01,-362.5 1789.01,-362.5"/>
<text text-anchor="middle" x="1821.01" y="-370.5" font-family="Helvetica,sans-Serif" font-size="10.00">TParticle.h</text>
</a>
</g>
<!-- Node20&#45;&gt;Node53 -->
<g id="edge246" class="edge"><title>Node20&#45;&gt;Node53</title>
<path fill="none" stroke="midnightblue" d="M1334.61,-425.779C1415.01,-417.137 1580.74,-399.292 1721.01,-384 1739.88,-381.943 1760.75,-379.65 1778.52,-377.692"/>
<polygon fill="midnightblue" stroke="midnightblue" points="1779.03,-381.157 1788.58,-376.583 1778.26,-374.199 1779.03,-381.157"/>
</g>
<!-- Node21&#45;&gt;Node6 -->
<g id="edge52" class="edge"><title>Node21&#45;&gt;Node6</title>
<path fill="none" stroke="midnightblue" d="M813.719,-311.469C849.915,-304.984 926.759,-289.811 989.009,-268 1139.12,-215.406 1162.5,-167.454 1313.01,-116 1370.16,-96.461 1438.88,-82.8561 1481.76,-75.4828"/>
<polygon fill="midnightblue" stroke="midnightblue" points="1482.54,-78.9006 1491.82,-73.7862 1481.38,-71.9981 1482.54,-78.9006"/>
</g>
<!-- Node21&#45;&gt;Node11 -->
<g id="edge76" class="edge"><title>Node21&#45;&gt;Node11</title>
<path fill="none" stroke="midnightblue" d="M813.595,-310.733C860.417,-300.235 976.874,-269.566 1055.01,-210 1077.8,-192.628 1096.5,-164.98 1107.46,-146.421"/>
<polygon fill="midnightblue" stroke="midnightblue" points="1110.54,-148.069 1112.46,-137.648 1104.46,-144.602 1110.54,-148.069"/>
</g>
<!-- Node21&#45;&gt;Node17 -->
<g id="edge78" class="edge"><title>Node21&#45;&gt;Node17</title>
<path fill="none" stroke="midnightblue" d="M813.759,-314.133C917.244,-309.737 1378.2,-289.282 1520.01,-268 1630.24,-251.457 1658.41,-245.676 1764.01,-210 1801.33,-197.391 1807.71,-186.678 1845.01,-174 1906.61,-153.06 1927.9,-160.098 1992.67,-137.998"/>
<polygon fill="midnightblue" stroke="midnightblue" points="1993.83,-141.299 2002.11,-134.68 1991.51,-134.695 1993.83,-141.299"/>
</g>
<!-- Node21&#45;&gt;Node19 -->
<g id="edge50" class="edge"><title>Node21&#45;&gt;Node19</title>
<path fill="none" stroke="midnightblue" d="M813.847,-314.275C866.598,-312.45 1009.71,-307.557 1129.01,-304 1724.07,-286.26 1873.88,-305.694 2468.01,-268 2726.11,-251.625 2817.79,-329.77 3047.01,-210 3074.31,-195.736 3095.55,-166.161 3107.43,-146.446"/>
<polygon fill="midnightblue" stroke="midnightblue" points="3110.52,-148.08 3112.49,-137.669 3104.46,-144.58 3110.52,-148.08"/>
</g>
<!-- Node22 -->
<g id="node49" class="node"><title>Node22</title>
<a xlink:href="time_8h.html" target="_top" xlink:title="base/std_ext/time.h">
<polygon fill="white" stroke="black" points="141.509,-246.5 141.509,-267.5 244.509,-267.5 244.509,-246.5 141.509,-246.5"/>
<text text-anchor="middle" x="193.009" y="-254.5" font-family="Helvetica,sans-Serif" font-size="10.00">base/std_ext/time.h</text>
</a>
</g>
<!-- Node21&#45;&gt;Node22 -->
<g id="edge54" class="edge"><title>Node21&#45;&gt;Node22</title>
<path fill="none" stroke="midnightblue" d="M772.322,-306.323C769.564,-305.412 766.744,-304.601 764.009,-304 544.904,-255.823 480.756,-295.377 254.847,-268.107"/>
<polygon fill="midnightblue" stroke="midnightblue" points="255.017,-264.601 244.663,-266.846 254.157,-271.548 255.017,-264.601"/>
</g>
<!-- Node26 -->
<g id="node60" class="node"><title>Node26</title>
<polygon fill="white" stroke="#bfbfbf" points="221.509,-181.5 221.509,-202.5 262.509,-202.5 262.509,-181.5 221.509,-181.5"/>
<text text-anchor="middle" x="242.009" y="-189.5" font-family="Helvetica,sans-Serif" font-size="10.00">ctime</text>
</g>
<!-- Node21&#45;&gt;Node26 -->
<g id="edge82" class="edge"><title>Node21&#45;&gt;Node26</title>
<path fill="none" stroke="midnightblue" d="M772.307,-306.389C769.552,-305.468 766.736,-304.636 764.009,-304 601.388,-266.051 550.343,-314.678 390.009,-268 343.463,-254.449 294.335,-226 266.018,-208.012"/>
<polygon fill="midnightblue" stroke="midnightblue" points="267.885,-205.051 257.584,-202.571 264.09,-210.933 267.885,-205.051"/>
</g>
<!-- Node27 -->
<g id="node62" class="node"><title>Node27</title>
<polygon fill="white" stroke="#bfbfbf" points="89.0091,-116.5 89.0091,-137.5 151.009,-137.5 151.009,-116.5 89.0091,-116.5"/>
<text text-anchor="middle" x="120.009" y="-124.5" font-family="Helvetica,sans-Serif" font-size="10.00">type_traits</text>
</g>
<!-- Node21&#45;&gt;Node27 -->
<g id="edge70" class="edge"><title>Node21&#45;&gt;Node27</title>
<path fill="none" stroke="midnightblue" d="M772.292,-306.452C769.539,-305.521 766.728,-304.669 764.009,-304 634.469,-272.109 592.518,-310.345 466.009,-268 426.54,-254.789 342.538,-189.744 304.009,-174 297.321,-171.267 213.502,-150.236 161.33,-137.249"/>
<polygon fill="midnightblue" stroke="midnightblue" points="161.899,-133.784 151.35,-134.767 160.209,-140.577 161.899,-133.784"/>
</g>
<!-- Node28 -->
<g id="node64" class="node"><title>Node28</title>
<polygon fill="white" stroke="#bfbfbf" points="262.009,-246.5 262.009,-267.5 300.009,-267.5 300.009,-246.5 262.009,-246.5"/>
<text text-anchor="middle" x="281.009" y="-254.5" font-family="Helvetica,sans-Serif" font-size="10.00">tuple</text>
</g>
<!-- Node21&#45;&gt;Node28 -->
<g id="edge72" class="edge"><title>Node21&#45;&gt;Node28</title>
<path fill="none" stroke="midnightblue" d="M772.317,-306.347C769.56,-305.433 766.741,-304.614 764.009,-304 568.258,-259.982 510.617,-308.016 314.009,-268 312.744,-267.743 311.46,-267.451 310.17,-267.134"/>
<polygon fill="midnightblue" stroke="midnightblue" points="310.918,-263.707 300.34,-264.31 308.985,-270.435 310.918,-263.707"/>
</g>
<!-- Node29 -->
<g id="node66" class="node"><title>Node29</title>
<polygon fill="white" stroke="#bfbfbf" points="25.0091,-116.5 25.0091,-137.5 71.0091,-137.5 71.0091,-116.5 25.0091,-116.5"/>
<text text-anchor="middle" x="48.0091" y="-124.5" font-family="Helvetica,sans-Serif" font-size="10.00">cstdint</text>
</g>
<!-- Node21&#45;&gt;Node29 -->
<g id="edge74" class="edge"><title>Node21&#45;&gt;Node29</title>
<path fill="none" stroke="midnightblue" d="M772.302,-306.411C769.547,-305.486 766.733,-304.648 764.009,-304 614.454,-268.445 567.376,-311.75 420.009,-268 399.43,-261.89 396.192,-255.637 377.009,-246 344.684,-229.761 332.949,-231.705 304.009,-210 286.645,-196.977 289.978,-184.55 271.009,-174 198.244,-133.53 165.887,-158.161 81.0723,-137.917"/>
<polygon fill="midnightblue" stroke="midnightblue" points="81.8609,-134.506 71.3078,-135.445 80.1432,-141.292 81.8609,-134.506"/>
</g>
<!-- Node30 -->
<g id="node70" class="node"><title>Node30</title>
<polygon fill="white" stroke="#bfbfbf" points="898.009,-181.5 898.009,-202.5 948.009,-202.5 948.009,-181.5 898.009,-181.5"/>
<text text-anchor="middle" x="923.009" y="-189.5" font-family="Helvetica,sans-Serif" font-size="10.00">iomanip</text>
</g>
<!-- Node21&#45;&gt;Node30 -->
<g id="edge80" class="edge"><title>Node21&#45;&gt;Node30</title>
<path fill="none" stroke="midnightblue" d="M813.622,-309.287C834.704,-302.515 867.226,-289.37 888.009,-268 903.129,-252.453 912.518,-229.191 917.717,-212.501"/>
<polygon fill="midnightblue" stroke="midnightblue" points="921.156,-213.206 920.547,-202.629 914.427,-211.277 921.156,-213.206"/>
</g>
<!-- Node23 -->
<g id="node51" class="node"><title>Node23</title>
<a xlink:href="string_8h.html" target="_top" xlink:title="base/std_ext/string.h">
<polygon fill="white" stroke="black" points="696.009,-181.5 696.009,-202.5 804.009,-202.5 804.009,-181.5 696.009,-181.5"/>
<text text-anchor="middle" x="750.009" y="-189.5" font-family="Helvetica,sans-Serif" font-size="10.00">base/std_ext/string.h</text>
</a>
</g>
<!-- Node22&#45;&gt;Node23 -->
<g id="edge56" class="edge"><title>Node22&#45;&gt;Node23</title>
<path fill="none" stroke="midnightblue" d="M244.676,-247.253C247.492,-246.808 250.283,-246.386 253.009,-246 411.341,-223.563 452.143,-228.27 611.009,-210 635.436,-207.191 662.236,-203.795 685.73,-200.713"/>
<polygon fill="midnightblue" stroke="midnightblue" points="686.468,-204.146 695.924,-199.368 685.552,-197.206 686.468,-204.146"/>
</g>
<!-- Node25 -->
<g id="node58" class="node"><title>Node25</title>
<polygon fill="white" stroke="#bfbfbf" points="158.009,-181.5 158.009,-202.5 204.009,-202.5 204.009,-181.5 158.009,-181.5"/>
<text text-anchor="middle" x="181.009" y="-189.5" font-family="Helvetica,sans-Serif" font-size="10.00">cstring</text>
</g>
<!-- Node22&#45;&gt;Node25 -->
<g id="edge66" class="edge"><title>Node22&#45;&gt;Node25</title>
<path fill="none" stroke="midnightblue" d="M191.028,-246.267C189.333,-237.085 186.846,-223.615 184.774,-212.392"/>
<polygon fill="midnightblue" stroke="midnightblue" points="188.211,-211.732 182.954,-202.534 181.328,-213.003 188.211,-211.732"/>
</g>
<!-- Node22&#45;&gt;Node26 -->
<g id="edge68" class="edge"><title>Node22&#45;&gt;Node26</title>
<path fill="none" stroke="midnightblue" d="M201.1,-246.267C208.379,-236.612 219.232,-222.215 227.931,-210.675"/>
<polygon fill="midnightblue" stroke="midnightblue" points="230.844,-212.626 234.068,-202.534 225.254,-208.412 230.844,-212.626"/>
</g>
<!-- Node23&#45;&gt;Node7 -->
<g id="edge64" class="edge"><title>Node23&#45;&gt;Node7</title>
<path fill="none" stroke="midnightblue" d="M710.868,-181.482C700.838,-178.912 690.048,-176.255 680.009,-174 597.429,-155.452 546.904,-203.26 493.009,-138 470.368,-110.585 468.723,-83.9689 493.009,-58 516.153,-33.2525 1027.38,-16.0528 1161.84,-11.9458"/>
<polygon fill="midnightblue" stroke="midnightblue" points="1162.03,-15.4418 1171.92,-11.6411 1161.82,-8.44499 1162.03,-15.4418"/>
</g>
<!-- Node23&#45;&gt;Node10 -->
<g id="edge62" class="edge"><title>Node23&#45;&gt;Node10</title>
<path fill="none" stroke="midnightblue" d="M804.069,-184.406C829.768,-180.948 860.939,-176.973 889.009,-174 1088.71,-152.848 1328.62,-135.783 1420.58,-129.549"/>
<polygon fill="midnightblue" stroke="midnightblue" points="1421.05,-133.025 1430.79,-128.86 1420.58,-126.041 1421.05,-133.025"/>
</g>
<!-- Node23&#45;&gt;Node14 -->
<g id="edge58" class="edge"><title>Node23&#45;&gt;Node14</title>
<path fill="none" stroke="midnightblue" d="M804.336,-183.635C829.956,-180.032 860.987,-176.157 889.009,-174 1529.98,-124.654 1692.5,-159.282 2335.01,-138 2420.22,-135.178 2520.74,-130.711 2570.27,-128.436"/>
<polygon fill="midnightblue" stroke="midnightblue" points="2570.49,-131.929 2580.32,-127.972 2570.17,-124.937 2570.49,-131.929"/>
</g>
<!-- Node24 -->
<g id="node54" class="node"><title>Node24</title>
<polygon fill="white" stroke="#bfbfbf" points="389.009,-116.5 389.009,-137.5 441.009,-137.5 441.009,-116.5 389.009,-116.5"/>
<text text-anchor="middle" x="415.009" y="-124.5" font-family="Helvetica,sans-Serif" font-size="10.00">sstream</text>
</g>
<!-- Node23&#45;&gt;Node24 -->
<g id="edge60" class="edge"><title>Node23&#45;&gt;Node24</title>
<path fill="none" stroke="midnightblue" d="M712.761,-181.411C702.818,-178.785 692.046,-176.119 682.009,-174 582.062,-152.903 554.854,-159.576 455.009,-138 453.742,-137.726 452.455,-137.436 451.158,-137.134"/>
<polygon fill="midnightblue" stroke="midnightblue" points="451.706,-133.664 441.156,-134.638 450.011,-140.456 451.706,-133.664"/>
</g>
<!-- Node31&#45;&gt;Node24 -->
<g id="edge112" class="edge"><title>Node31&#45;&gt;Node24</title>
<path fill="none" stroke="midnightblue" d="M562.031,-246.331C543.921,-237.743 518.877,-224.711 499.009,-210 472.956,-190.709 447.039,-163.583 431.031,-145.66"/>
<polygon fill="midnightblue" stroke="midnightblue" points="433.243,-142.875 424.011,-137.676 427.986,-147.497 433.243,-142.875"/>
</g>
<!-- Node31&#45;&gt;Node30 -->
<g id="edge110" class="edge"><title>Node31&#45;&gt;Node30</title>
<path fill="none" stroke="midnightblue" d="M638.296,-246.915C707.709,-233.527 828.423,-210.244 887.872,-198.777"/>
<polygon fill="midnightblue" stroke="midnightblue" points="888.737,-202.175 897.893,-196.844 887.412,-195.302 888.737,-202.175"/>
</g>
<!-- Node32 -->
<g id="node75" class="node"><title>Node32</title>
<a xlink:href="_detector__t_8h.html" target="_top" xlink:title="base/Detector_t.h">
<polygon fill="white" stroke="black" points="507.509,-181.5 507.509,-202.5 602.509,-202.5 602.509,-181.5 507.509,-181.5"/>
<text text-anchor="middle" x="555.009" y="-189.5" font-family="Helvetica,sans-Serif" font-size="10.00">base/Detector_t.h</text>
</a>
</g>
<!-- Node31&#45;&gt;Node32 -->
<g id="edge86" class="edge"><title>Node31&#45;&gt;Node32</title>
<path fill="none" stroke="midnightblue" d="M580.89,-246.267C576.421,-236.896 569.821,-223.057 564.405,-211.7"/>
<polygon fill="midnightblue" stroke="midnightblue" points="567.497,-210.053 560.033,-202.534 561.179,-213.066 567.497,-210.053"/>
</g>
<!-- Node32&#45;&gt;Node6 -->
<g id="edge88" class="edge"><title>Node32&#45;&gt;Node6</title>
<path fill="none" stroke="midnightblue" d="M602.583,-184.823C627.657,-181.215 658.951,-176.987 687.009,-174 894.892,-151.867 948.749,-165.355 1156.01,-138 1164.12,-136.929 1387.78,-94.6167 1481.9,-76.7907"/>
<polygon fill="midnightblue" stroke="midnightblue" points="1482.74,-80.1927 1491.92,-74.8926 1481.44,-73.315 1482.74,-80.1927"/>
</g>
<!-- Node32&#45;&gt;Node7 -->
<g id="edge108" class="edge"><title>Node32&#45;&gt;Node7</title>
<path fill="none" stroke="midnightblue" d="M521.966,-181.433C512.958,-178.777 503.159,-176.09 494.009,-174 445.714,-162.968 306.086,-175.752 274.009,-138 250.987,-110.904 249.517,-83.775 274.009,-58 305.206,-25.1689 1001.66,-13.6383 1161.51,-11.4195"/>
<polygon fill="midnightblue" stroke="midnightblue" points="1161.72,-14.9172 1171.67,-11.2812 1161.62,-7.91785 1161.72,-14.9172"/>
</g>
<!-- Node32&#45;&gt;Node11 -->
<g id="edge102" class="edge"><title>Node32&#45;&gt;Node11</title>
<path fill="none" stroke="midnightblue" d="M602.602,-184.993C627.68,-181.432 658.973,-177.194 687.009,-174 858.046,-154.514 905.89,-169.937 1078.35,-138.05"/>
<polygon fill="midnightblue" stroke="midnightblue" points="1079.08,-141.473 1088.27,-136.19 1077.79,-134.593 1079.08,-141.473"/>
</g>
<!-- Node32&#45;&gt;Node14 -->
<g id="edge104" class="edge"><title>Node32&#45;&gt;Node14</title>
<path fill="none" stroke="midnightblue" d="M602.525,-184.191C627.582,-180.41 658.879,-176.218 687.009,-174 1417.36,-116.414 1602.76,-161.136 2335.01,-138 2420.23,-135.307 2520.75,-130.784 2570.27,-128.466"/>
<polygon fill="midnightblue" stroke="midnightblue" points="2570.5,-131.959 2580.32,-127.993 2570.17,-124.967 2570.5,-131.959"/>
</g>
<!-- Node32&#45;&gt;Node27 -->
<g id="edge106" class="edge"><title>Node32&#45;&gt;Node27</title>
<path fill="none" stroke="midnightblue" d="M507.212,-184.858C421.35,-172.028 242.421,-145.291 161.426,-133.189"/>
<polygon fill="midnightblue" stroke="midnightblue" points="161.534,-129.666 151.127,-131.65 160.499,-136.589 161.534,-129.666"/>
</g>
<!-- Node32&#45;&gt;Node29 -->
<g id="edge100" class="edge"><title>Node32&#45;&gt;Node29</title>
<path fill="none" stroke="midnightblue" d="M507.244,-190.011C422.741,-185.749 241.461,-173.27 81.2899,-137.9"/>
<polygon fill="midnightblue" stroke="midnightblue" points="81.782,-134.423 71.2582,-135.648 80.2487,-141.253 81.782,-134.423"/>
</g>
<!-- Node33 -->
<g id="node78" class="node"><title>Node33</title>
<a xlink:href="vec3_8h.html" target="_top" xlink:title="base/vec/vec3.h">
<polygon fill="white" stroke="black" points="282.509,-116.5 282.509,-137.5 371.509,-137.5 371.509,-116.5 282.509,-116.5"/>
<text text-anchor="middle" x="327.009" y="-124.5" font-family="Helvetica,sans-Serif" font-size="10.00">base/vec/vec3.h</text>
</a>
</g>
<!-- Node32&#45;&gt;Node33 -->
<g id="edge90" class="edge"><title>Node32&#45;&gt;Node33</title>
<path fill="none" stroke="midnightblue" d="M519.55,-181.455C511.18,-178.988 502.285,-176.385 494.009,-174 453.881,-162.433 408.23,-149.608 374.812,-140.281"/>
<polygon fill="midnightblue" stroke="midnightblue" points="375.426,-136.819 364.853,-137.504 373.546,-143.562 375.426,-136.819"/>
</g>
<!-- Node33&#45;&gt;Node6 -->
<g id="edge92" class="edge"><title>Node33&#45;&gt;Node6</title>
<path fill="none" stroke="midnightblue" d="M371.743,-117.179C374.532,-116.734 377.304,-116.334 380.009,-116 490.881,-102.308 1289.78,-76.3785 1481.65,-70.2986"/>
<polygon fill="midnightblue" stroke="midnightblue" points="1481.99,-73.7898 1491.88,-69.9753 1481.77,-66.7933 1481.99,-73.7898"/>
</g>
<!-- Node34 -->
<g id="node81" class="node"><title>Node34</title>
<a xlink:href="vec2_8h.html" target="_top" xlink:title="vec2.h">
<polygon fill="white" stroke="black" points="283.009,-58.5 283.009,-79.5 329.009,-79.5 329.009,-58.5 283.009,-58.5"/>
<text text-anchor="middle" x="306.009" y="-66.5" font-family="Helvetica,sans-Serif" font-size="10.00">vec2.h</text>
</a>
</g>
<!-- Node33&#45;&gt;Node34 -->
<g id="edge94" class="edge"><title>Node33&#45;&gt;Node34</title>
<path fill="none" stroke="midnightblue" d="M323.157,-116.362C320.404,-108.758 316.616,-98.294 313.299,-89.1349"/>
<polygon fill="midnightblue" stroke="midnightblue" points="316.532,-87.7818 309.836,-79.5707 309.95,-90.1649 316.532,-87.7818"/>
</g>
<!-- Node35 -->
<g id="node83" class="node"><title>Node35</title>
<polygon fill="white" stroke="#bfbfbf" points="284.009,-0.5 284.009,-21.5 328.009,-21.5 328.009,-0.5 284.009,-0.5"/>
<text text-anchor="middle" x="306.009" y="-8.5" font-family="Helvetica,sans-Serif" font-size="10.00">cmath</text>
</g>
<!-- Node33&#45;&gt;Node35 -->
<g id="edge98" class="edge"><title>Node33&#45;&gt;Node35</title>
<path fill="none" stroke="midnightblue" d="M331.769,-116.029C337.075,-102.233 344.153,-77.9394 338.009,-58 334.85,-47.7466 328.605,-37.7278 322.464,-29.5925"/>
<polygon fill="midnightblue" stroke="midnightblue" points="325,-27.1612 315.993,-21.5822 319.555,-31.5603 325,-27.1612"/>
</g>
<!-- Node34&#45;&gt;Node35 -->
<g id="edge96" class="edge"><title>Node34&#45;&gt;Node35</title>
<path fill="none" stroke="midnightblue" d="M306.009,-58.3619C306.009,-50.9219 306.009,-40.7427 306.009,-31.7276"/>
<polygon fill="midnightblue" stroke="midnightblue" points="309.509,-31.5706 306.009,-21.5707 302.509,-31.5707 309.509,-31.5706"/>
</g>
<!-- Node36&#45;&gt;Node6 -->
<g id="edge120" class="edge"><title>Node36&#45;&gt;Node6</title>
<path fill="none" stroke="midnightblue" d="M484.084,-371.072C644.019,-363.665 1205.96,-336.914 1221.01,-326 1279.8,-283.355 1238.37,-232.796 1281.01,-174 1304.73,-141.292 1315.16,-134.633 1351.01,-116 1392.76,-94.3003 1445.57,-81.7999 1481.58,-75.2244"/>
<polygon fill="midnightblue" stroke="midnightblue" points="1482.48,-78.6198 1491.73,-73.4473 1481.28,-71.7248 1482.48,-78.6198"/>
</g>
<!-- Node36&#45;&gt;Node21 -->
<g id="edge116" class="edge"><title>Node36&#45;&gt;Node21</title>
<path fill="none" stroke="midnightblue" d="M484.012,-369.804C544.162,-364.591 658.261,-352.335 762.54,-325.992"/>
<polygon fill="midnightblue" stroke="midnightblue" points="763.466,-329.368 772.276,-323.484 761.719,-322.59 763.466,-329.368"/>
</g>
<!-- Node36&#45;&gt;Node22 -->
<g id="edge118" class="edge"><title>Node36&#45;&gt;Node22</title>
<path fill="none" stroke="midnightblue" d="M412.772,-362.495C388.446,-353.507 353.065,-339.859 323.009,-326 286.844,-309.324 246.529,-287.377 220.522,-272.759"/>
<polygon fill="midnightblue" stroke="midnightblue" points="222.05,-269.602 211.622,-267.729 218.605,-275.696 222.05,-269.602"/>
</g>
<!-- Node36&#45;&gt;Node28 -->
<g id="edge124" class="edge"><title>Node36&#45;&gt;Node28</title>
<path fill="none" stroke="midnightblue" d="M417.213,-362.425C398.482,-353.888 372.576,-340.876 352.009,-326 331.327,-311.041 310.749,-290.219 297.113,-275.369"/>
<polygon fill="midnightblue" stroke="midnightblue" points="299.592,-272.892 290.295,-267.809 294.393,-277.58 299.592,-272.892"/>
</g>
<!-- Node36&#45;&gt;Node29 -->
<g id="edge122" class="edge"><title>Node36&#45;&gt;Node29</title>
<path fill="none" stroke="midnightblue" d="M399.862,-370.101C332.391,-363.339 199.458,-341.023 118.009,-268 81.2187,-235.016 61.4799,-178.294 53.0577,-147.815"/>
<polygon fill="midnightblue" stroke="midnightblue" points="56.3721,-146.655 50.4561,-137.866 49.5998,-148.426 56.3721,-146.655"/>
</g>
<!-- Node37&#45;&gt;Node6 -->
<g id="edge154" class="edge"><title>Node37&#45;&gt;Node6</title>
<path fill="none" stroke="midnightblue" d="M1511.85,-248.84C1546.97,-242.078 1592.06,-230.197 1628.01,-210 1648.29,-198.606 1646.63,-186.867 1666.01,-174 1699.17,-151.987 1726.24,-171.324 1748.01,-138 1753.36,-129.814 1754.18,-123.588 1748.01,-116 1725.28,-88.0273 1622.58,-76.1289 1564.1,-71.5482"/>
<polygon fill="midnightblue" stroke="midnightblue" points="1564.3,-68.0537 1554.07,-70.8003 1563.78,-75.0343 1564.3,-68.0537"/>
</g>
<!-- Node38 -->
<g id="node102" class="node"><title>Node38</title>
<a xlink:href="_format_8h.html" target="_top" xlink:title="base/Format.h">
<polygon fill="white" stroke="black" points="966.009,-181.5 966.009,-202.5 1046.01,-202.5 1046.01,-181.5 966.009,-181.5"/>
<text text-anchor="middle" x="1006.01" y="-189.5" font-family="Helvetica,sans-Serif" font-size="10.00">base/Format.h</text>
</a>
</g>
<!-- Node37&#45;&gt;Node38 -->
<g id="edge128" class="edge"><title>Node37&#45;&gt;Node38</title>
<path fill="none" stroke="midnightblue" d="M1398.14,-248.768C1309.68,-235.962 1140.55,-211.477 1056.3,-199.28"/>
<polygon fill="midnightblue" stroke="midnightblue" points="1056.61,-195.788 1046.21,-197.819 1055.6,-202.716 1056.61,-195.788"/>
</g>
<!-- Node38&#45;&gt;Node7 -->
<g id="edge152" class="edge"><title>Node38&#45;&gt;Node7</title>
<path fill="none" stroke="midnightblue" d="M981.208,-181.466C973.572,-178.612 965.054,-175.813 957.009,-174 870.89,-154.589 506.948,-183.359 564.009,-116 603.318,-69.5978 1037.9,-25.6163 1161.43,-13.9826"/>
<polygon fill="midnightblue" stroke="midnightblue" points="1162.12,-17.434 1171.75,-13.0185 1161.47,-10.4644 1162.12,-17.434"/>
</g>
<!-- Node38&#45;&gt;Node10 -->
<g id="edge142" class="edge"><title>Node38&#45;&gt;Node10</title>
<path fill="none" stroke="midnightblue" d="M1046.21,-186.232C1132.89,-173.794 1336.36,-144.598 1421.02,-132.451"/>
<polygon fill="midnightblue" stroke="midnightblue" points="1421.57,-135.908 1430.97,-131.023 1420.58,-128.979 1421.57,-135.908"/>
</g>
<!-- Node38&#45;&gt;Node11 -->
<g id="edge146" class="edge"><title>Node38&#45;&gt;Node11</title>
<path fill="none" stroke="midnightblue" d="M1024.5,-181.267C1042.61,-170.76 1070.39,-154.637 1090.97,-142.692"/>
<polygon fill="midnightblue" stroke="midnightblue" points="1092.97,-145.58 1099.86,-137.534 1089.45,-139.526 1092.97,-145.58"/>
</g>
<!-- Node38&#45;&gt;Node12 -->
<g id="edge144" class="edge"><title>Node38&#45;&gt;Node12</title>
<path fill="none" stroke="midnightblue" d="M1004.97,-181.327C1003.95,-166.051 1003.78,-137.434 1014.01,-116 1019.54,-104.4 1029.16,-93.9976 1038.26,-85.9461"/>
<polygon fill="midnightblue" stroke="midnightblue" points="1040.55,-88.5898 1046,-79.5047 1036.07,-83.2076 1040.55,-88.5898"/>
</g>
<!-- Node38&#45;&gt;Node14 -->
<g id="edge148" class="edge"><title>Node38&#45;&gt;Node14</title>
<path fill="none" stroke="midnightblue" d="M1046.24,-190.376C1207.94,-183.846 1826.26,-158.855 2335.01,-138 2420.2,-134.508 2520.73,-130.337 2570.26,-128.279"/>
<polygon fill="midnightblue" stroke="midnightblue" points="2570.47,-131.773 2580.32,-127.861 2570.18,-124.779 2570.47,-131.773"/>
</g>
<!-- Node38&#45;&gt;Node24 -->
<g id="edge150" class="edge"><title>Node38&#45;&gt;Node24</title>
<path fill="none" stroke="midnightblue" d="M981.216,-181.431C973.58,-178.576 965.061,-175.785 957.009,-174 771.505,-132.873 720.258,-154.969 531.009,-138 504.276,-135.603 474.094,-132.736 451.219,-130.53"/>
<polygon fill="midnightblue" stroke="midnightblue" points="451.553,-127.046 441.262,-129.567 450.879,-134.013 451.553,-127.046"/>
</g>
<!-- Node38&#45;&gt;Node35 -->
<g id="edge136" class="edge"><title>Node38&#45;&gt;Node35</title>
<path fill="none" stroke="midnightblue" d="M981.752,-181.461C973.99,-178.533 965.266,-175.694 957.009,-174 882.565,-158.727 326.312,-193.132 274.009,-138 249.538,-112.205 263.54,-91.9793 274.009,-58 277.168,-47.7466 283.413,-37.7278 289.554,-29.5925"/>
<polygon fill="midnightblue" stroke="midnightblue" points="292.464,-31.5603 296.026,-21.5822 287.019,-27.1612 292.464,-31.5603"/>
</g>
<!-- Node39 -->
<g id="node104" class="node"><title>Node39</title>
<polygon fill="white" stroke="#bfbfbf" points="632.509,-116.5 632.509,-137.5 711.509,-137.5 711.509,-116.5 632.509,-116.5"/>
<text text-anchor="middle" x="672.009" y="-124.5" font-family="Helvetica,sans-Serif" font-size="10.00">detail/format.h</text>
</g>
<!-- Node38&#45;&gt;Node39 -->
<g id="edge130" class="edge"><title>Node38&#45;&gt;Node39</title>
<path fill="none" stroke="midnightblue" d="M980.379,-181.482C972.938,-178.731 964.734,-175.984 957.009,-174 856.941,-148.3 826.506,-157.316 721.563,-138.175"/>
<polygon fill="midnightblue" stroke="midnightblue" points="721.985,-134.694 711.513,-136.298 720.7,-141.575 721.985,-134.694"/>
</g>
<!-- Node40 -->
<g id="node106" class="node"><title>Node40</title>
<polygon fill="white" stroke="#bfbfbf" points="852.509,-116.5 852.509,-137.5 901.509,-137.5 901.509,-116.5 852.509,-116.5"/>
<text text-anchor="middle" x="877.009" y="-124.5" font-family="Helvetica,sans-Serif" font-size="10.00">stdint.h</text>
</g>
<!-- Node38&#45;&gt;Node40 -->
<g id="edge132" class="edge"><title>Node38&#45;&gt;Node40</title>
<path fill="none" stroke="midnightblue" d="M984.996,-181.412C963.819,-170.741 930.935,-154.172 907.016,-142.12"/>
<polygon fill="midnightblue" stroke="midnightblue" points="908.519,-138.958 898.013,-137.584 905.369,-145.209 908.519,-138.958"/>
</g>
<!-- Node41 -->
<g id="node108" class="node"><title>Node41</title>
<polygon fill="white" stroke="#bfbfbf" points="1022.51,-116.5 1022.51,-137.5 1071.51,-137.5 1071.51,-116.5 1022.51,-116.5"/>
<text text-anchor="middle" x="1047.01" y="-124.5" font-family="Helvetica,sans-Serif" font-size="10.00">cassert</text>
</g>
<!-- Node38&#45;&gt;Node41 -->
<g id="edge134" class="edge"><title>Node38&#45;&gt;Node41</title>
<path fill="none" stroke="midnightblue" d="M1012.78,-181.267C1018.81,-171.707 1027.77,-157.496 1035.01,-146.015"/>
<polygon fill="midnightblue" stroke="midnightblue" points="1037.99,-147.859 1040.36,-137.534 1032.07,-144.124 1037.99,-147.859"/>
</g>
<!-- Node42 -->
<g id="node111" class="node"><title>Node42</title>
<polygon fill="white" stroke="#bfbfbf" points="918.509,-116.5 918.509,-137.5 967.509,-137.5 967.509,-116.5 918.509,-116.5"/>
<text text-anchor="middle" x="943.009" y="-124.5" font-family="Helvetica,sans-Serif" font-size="10.00">cstddef</text>
</g>
<!-- Node38&#45;&gt;Node42 -->
<g id="edge138" class="edge"><title>Node38&#45;&gt;Node42</title>
<path fill="none" stroke="midnightblue" d="M995.606,-181.267C986.065,-171.423 971.745,-156.648 960.455,-145"/>
<polygon fill="midnightblue" stroke="midnightblue" points="962.692,-142.278 953.219,-137.534 957.665,-147.15 962.692,-142.278"/>
</g>
<!-- Node43 -->
<g id="node113" class="node"><title>Node43</title>
<polygon fill="white" stroke="#bfbfbf" points="572.509,-116.5 572.509,-137.5 615.509,-137.5 615.509,-116.5 572.509,-116.5"/>
<text text-anchor="middle" x="594.009" y="-124.5" font-family="Helvetica,sans-Serif" font-size="10.00">cstdio</text>
</g>
<!-- Node38&#45;&gt;Node43 -->
<g id="edge140" class="edge"><title>Node38&#45;&gt;Node43</title>
<path fill="none" stroke="midnightblue" d="M980.938,-181.454C973.365,-178.635 964.951,-175.858 957.009,-174 815.318,-140.844 770.953,-170.48 625.934,-138.017"/>
<polygon fill="midnightblue" stroke="midnightblue" points="626.306,-134.511 615.776,-135.679 624.737,-141.332 626.306,-134.511"/>
</g>
<!-- Node44&#45;&gt;Node6 -->
<g id="edge160" class="edge"><title>Node44&#45;&gt;Node6</title>
<path fill="none" stroke="midnightblue" d="M803.329,-372.382C905.252,-370.245 1186.36,-361.232 1271.01,-326 1331.16,-300.962 1457.95,-190.883 1496.01,-138 1506.55,-123.357 1513.64,-104.049 1517.91,-89.5819"/>
<polygon fill="midnightblue" stroke="midnightblue" points="1521.37,-90.1886 1520.62,-79.6201 1514.61,-88.3469 1521.37,-90.1886"/>
</g>
<!-- Node44&#45;&gt;Node7 -->
<g id="edge166" class="edge"><title>Node44&#45;&gt;Node7</title>
<path fill="none" stroke="midnightblue" d="M728.742,-370.514C607.075,-361.855 223.28,-330.115 118.009,-268 47.941,-226.656 -34.3102,-179.928 16.0091,-116 88.9276,-23.3605 979.189,-12.4318 1161.51,-11.1638"/>
<polygon fill="midnightblue" stroke="midnightblue" points="1161.58,-14.6635 1171.55,-11.0989 1161.53,-7.66367 1161.58,-14.6635"/>
</g>
<!-- Node44&#45;&gt;Node21 -->
<g id="edge158" class="edge"><title>Node44&#45;&gt;Node21</title>
<path fill="none" stroke="midnightblue" d="M770.961,-362.362C774.539,-354.677 779.477,-344.069 783.773,-334.84"/>
<polygon fill="midnightblue" stroke="midnightblue" points="787.041,-336.114 788.088,-325.571 780.695,-333.159 787.041,-336.114"/>
</g>
<!-- Node44&#45;&gt;Node24 -->
<g id="edge170" class="edge"><title>Node44&#45;&gt;Node24</title>
<path fill="none" stroke="midnightblue" d="M728.555,-365.293C671.775,-352.302 562.252,-322.022 484.009,-268 455.274,-248.16 446.681,-241.205 431.009,-210 421.122,-190.313 417.329,-165.175 415.882,-147.748"/>
<polygon fill="midnightblue" stroke="midnightblue" points="419.361,-147.3 415.23,-137.544 412.375,-147.747 419.361,-147.3"/>
</g>
<!-- Node44&#45;&gt;Node30 -->
<g id="edge168" class="edge"><title>Node44&#45;&gt;Node30</title>
<path fill="none" stroke="midnightblue" d="M790.439,-362.47C823.358,-346.919 881.147,-314.542 910.009,-268 920.327,-251.362 923.098,-228.93 923.579,-212.754"/>
<polygon fill="midnightblue" stroke="midnightblue" points="927.079,-212.714 923.61,-202.703 920.079,-212.693 927.079,-212.714"/>
</g>
<!-- Node45 -->
<g id="node126" class="node"><title>Node45</title>
<a xlink:href="_lorentz_vec_8h.html" target="_top" xlink:title="base/vec/LorentzVec.h">
<polygon fill="white" stroke="black" points="638.509,-304.5 638.509,-325.5 755.509,-325.5 755.509,-304.5 638.509,-304.5"/>
<text text-anchor="middle" x="697.009" y="-312.5" font-family="Helvetica,sans-Serif" font-size="10.00">base/vec/LorentzVec.h</text>
</a>
</g>
<!-- Node44&#45;&gt;Node45 -->
<g id="edge162" class="edge"><title>Node44&#45;&gt;Node45</title>
<path fill="none" stroke="midnightblue" d="M753.353,-362.362C743.335,-353.941 729.142,-342.011 717.508,-332.231"/>
<polygon fill="midnightblue" stroke="midnightblue" points="719.492,-329.326 709.585,-325.571 714.987,-334.684 719.492,-329.326"/>
</g>
<!-- Node45&#45;&gt;Node33 -->
<g id="edge164" class="edge"><title>Node45&#45;&gt;Node33</title>
<path fill="none" stroke="midnightblue" d="M638.33,-314.502C500.808,-312.728 166.732,-304.65 133.009,-268 115.187,-248.631 112.713,-211.759 149.009,-174 165.998,-156.327 226.539,-142.958 272.338,-135.081"/>
<polygon fill="midnightblue" stroke="midnightblue" points="273.166,-138.491 282.451,-133.388 272.011,-131.587 273.166,-138.491"/>
</g>
<!-- Node46&#45;&gt;Node6 -->
<g id="edge176" class="edge"><title>Node46&#45;&gt;Node6</title>
<path fill="none" stroke="midnightblue" d="M2018.78,-181.406C2049.97,-167.142 2095.68,-140.694 2073.01,-116 2038.76,-78.7032 1686.22,-70.9551 1564.26,-69.3868"/>
<polygon fill="midnightblue" stroke="midnightblue" points="1564.24,-65.8864 1554.19,-69.2649 1564.15,-72.8859 1564.24,-65.8864"/>
</g>
<!-- Node46&#45;&gt;Node9 -->
<g id="edge174" class="edge"><title>Node46&#45;&gt;Node9</title>
<path fill="none" stroke="midnightblue" d="M1987.72,-181.267C1983.11,-171.896 1976.3,-158.057 1970.71,-146.7"/>
<polygon fill="midnightblue" stroke="midnightblue" points="1973.75,-144.96 1966.19,-137.534 1967.47,-148.051 1973.75,-144.96"/>
</g>
<!-- Node46&#45;&gt;Node12 -->
<g id="edge180" class="edge"><title>Node46&#45;&gt;Node12</title>
<path fill="none" stroke="midnightblue" d="M2007.74,-181.487C2027.87,-165.902 2059.38,-136.326 2040.01,-116 2023.22,-98.3905 1254.8,-74.7255 1091.37,-69.886"/>
<polygon fill="midnightblue" stroke="midnightblue" points="1091.18,-66.3789 1081.08,-69.5825 1090.97,-73.3759 1091.18,-66.3789"/>
</g>
<!-- Node46&#45;&gt;Node16 -->
<g id="edge182" class="edge"><title>Node46&#45;&gt;Node16</title>
<path fill="none" stroke="midnightblue" d="M2023.69,-184.62C2037.78,-181.284 2054.72,-177.348 2070.01,-174 2138.34,-159.035 2218.43,-143.01 2263.8,-134.074"/>
<polygon fill="midnightblue" stroke="midnightblue" points="2264.61,-137.481 2273.74,-132.118 2263.26,-130.613 2264.61,-137.481"/>
</g>
<!-- Node46&#45;&gt;Node17 -->
<g id="edge178" class="edge"><title>Node46&#45;&gt;Node17</title>
<path fill="none" stroke="midnightblue" d="M1996.97,-181.267C2000.4,-171.991 2005.44,-158.336 2009.61,-147.045"/>
<polygon fill="midnightblue" stroke="midnightblue" points="2012.94,-148.127 2013.12,-137.534 2006.37,-145.702 2012.94,-148.127"/>
</g>
<!-- Node47&#45;&gt;Node6 -->
<g id="edge188" class="edge"><title>Node47&#45;&gt;Node6</title>
<path fill="none" stroke="midnightblue" d="M1510.65,-181.327C1516.8,-170.774 1525.5,-153.941 1529.01,-138 1532.52,-122.063 1530.62,-103.631 1528.06,-89.8282"/>
<polygon fill="midnightblue" stroke="midnightblue" points="1531.45,-88.9469 1525.96,-79.8878 1524.61,-90.3956 1531.45,-88.9469"/>
</g>
<!-- Node47&#45;&gt;Node9 -->
<g id="edge186" class="edge"><title>Node47&#45;&gt;Node9</title>
<path fill="none" stroke="midnightblue" d="M1523.24,-181.342C1529.11,-178.52 1535.68,-175.77 1542.01,-174 1691.75,-132.117 1735.8,-157.91 1890.01,-138 1901.85,-136.472 1914.76,-134.549 1926.28,-132.74"/>
<polygon fill="midnightblue" stroke="midnightblue" points="1927.08,-136.156 1936.41,-131.125 1925.98,-129.244 1927.08,-136.156"/>
</g>
<!-- Node47&#45;&gt;Node16 -->
<g id="edge200" class="edge"><title>Node47&#45;&gt;Node16</title>
<path fill="none" stroke="midnightblue" d="M1522.81,-181.366C1528.77,-178.471 1535.51,-175.676 1542.01,-174 1612.24,-155.906 2121.65,-134.197 2263.46,-128.452"/>
<polygon fill="midnightblue" stroke="midnightblue" points="2263.93,-131.936 2273.78,-128.036 2263.64,-124.942 2263.93,-131.936"/>
</g>
<!-- Node47&#45;&gt;Node17 -->
<g id="edge198" class="edge"><title>Node47&#45;&gt;Node17</title>
<path fill="none" stroke="midnightblue" d="M1522.82,-181.436C1528.79,-178.545 1535.52,-175.733 1542.01,-174 1733.58,-122.849 1797.35,-188.181 1992.52,-137.618"/>
<polygon fill="midnightblue" stroke="midnightblue" points="1993.45,-140.992 2002.22,-135.039 1991.66,-134.227 1993.45,-140.992"/>
</g>
<!-- Node47&#45;&gt;Node33 -->
<g id="edge196" class="edge"><title>Node47&#45;&gt;Node33</title>
<path fill="none" stroke="midnightblue" d="M1474.49,-190.859C1312.21,-184.551 530.823,-153.697 381.731,-137.952"/>
<polygon fill="midnightblue" stroke="midnightblue" points="382.081,-134.469 371.746,-136.799 381.278,-141.423 382.081,-134.469"/>
</g>
<!-- Node48 -->
<g id="node143" class="node"><title>Node48</title>
<a xlink:href="math_8h.html" target="_top" xlink:title="base/std_ext/math.h">
<polygon fill="white" stroke="black" points="729.009,-116.5 729.009,-137.5 835.009,-137.5 835.009,-116.5 729.009,-116.5"/>
<text text-anchor="middle" x="782.009" y="-124.5" font-family="Helvetica,sans-Serif" font-size="10.00">base/std_ext/math.h</text>
</a>
</g>
<!-- Node47&#45;&gt;Node48 -->
<g id="edge190" class="edge"><title>Node47&#45;&gt;Node48</title>
<path fill="none" stroke="midnightblue" d="M1474.3,-190.567C1382.34,-185.918 1094.03,-169.768 845.017,-138.03"/>
<polygon fill="midnightblue" stroke="midnightblue" points="845.423,-134.554 835.059,-136.75 844.531,-141.497 845.423,-134.554"/>
</g>
<!-- Node48&#45;&gt;Node12 -->
<g id="edge194" class="edge"><title>Node48&#45;&gt;Node12</title>
<path fill="none" stroke="midnightblue" d="M832.534,-116.497C890.346,-104.478 983.149,-85.186 1030.73,-75.2944"/>
<polygon fill="midnightblue" stroke="midnightblue" points="1031.64,-78.6808 1040.72,-73.2187 1030.21,-71.8273 1031.64,-78.6808"/>
</g>
<!-- Node48&#45;&gt;Node35 -->
<g id="edge192" class="edge"><title>Node48&#45;&gt;Node35</title>
<path fill="none" stroke="midnightblue" d="M738.505,-116.398C643.866,-93.335 421.126,-39.0538 338.019,-18.8007"/>
<polygon fill="midnightblue" stroke="midnightblue" points="338.687,-15.3611 328.142,-16.3938 337.029,-22.1621 338.687,-15.3611"/>
</g>
<!-- Node49&#45;&gt;Node7 -->
<g id="edge220" class="edge"><title>Node49&#45;&gt;Node7</title>
<path fill="none" stroke="midnightblue" d="M846.848,-246.333C844.272,-228.276 836.326,-191.908 813.009,-174 719.454,-102.149 493.27,-217.123 554.009,-116 582.265,-68.9578 610.403,-73.6205 663.009,-58 757.383,-29.9769 1061.63,-16.0708 1161.74,-12.1718"/>
<polygon fill="midnightblue" stroke="midnightblue" points="1161.99,-15.6648 1171.85,-11.7852 1161.72,-8.6699 1161.99,-15.6648"/>
</g>
<!-- Node49&#45;&gt;Node16 -->
<g id="edge228" class="edge"><title>Node49&#45;&gt;Node16</title>
<path fill="none" stroke="midnightblue" d="M879.105,-256.191C1077.62,-250.996 2160.33,-222.142 2192.01,-210 2215.28,-201.08 2215.34,-189.312 2235.01,-174 2248.45,-163.536 2263.88,-152.342 2276.34,-143.504"/>
<polygon fill="midnightblue" stroke="midnightblue" points="2278.66,-146.153 2284.81,-137.53 2274.62,-140.433 2278.66,-146.153"/>
</g>
<!-- Node49&#45;&gt;Node24 -->
<g id="edge226" class="edge"><title>Node49&#45;&gt;Node24</title>
<path fill="none" stroke="midnightblue" d="M816.895,-251.869C783.359,-245.458 729.132,-232.496 687.009,-210 665.024,-198.258 666.532,-184.675 644.009,-174 566.739,-137.375 538.301,-157.352 455.009,-138 453.746,-137.707 452.463,-137.4 451.169,-137.084"/>
<polygon fill="midnightblue" stroke="midnightblue" points="451.739,-133.616 441.183,-134.521 449.999,-140.397 451.739,-133.616"/>
</g>
<!-- Node49&#45;&gt;Node30 -->
<g id="edge224" class="edge"><title>Node49&#45;&gt;Node30</title>
<path fill="none" stroke="midnightblue" d="M860.394,-246.267C871.971,-236.233 889.458,-221.078 903.012,-209.331"/>
<polygon fill="midnightblue" stroke="midnightblue" points="905.59,-211.728 910.855,-202.534 901.006,-206.438 905.59,-211.728"/>
</g>
<!-- Node49&#45;&gt;Node32 -->
<g id="edge204" class="edge"><title>Node49&#45;&gt;Node32</title>
<path fill="none" stroke="midnightblue" d="M816.67,-251.547C771.908,-243.555 687.203,-227.68 616.009,-210 610.311,-208.585 604.349,-206.981 598.477,-205.328"/>
<polygon fill="midnightblue" stroke="midnightblue" points="599.323,-201.93 588.745,-202.524 597.385,-208.656 599.323,-201.93"/>
</g>
<!-- Node49&#45;&gt;Node33 -->
<g id="edge218" class="edge"><title>Node49&#45;&gt;Node33</title>
<path fill="none" stroke="midnightblue" d="M816.743,-252.131C767.163,-244.026 673.134,-226.973 644.009,-210 625.256,-199.071 630.143,-184.248 611.009,-174 522.187,-126.426 484.544,-154.723 381.369,-138.097"/>
<polygon fill="midnightblue" stroke="midnightblue" points="381.959,-134.647 371.511,-136.405 380.774,-141.546 381.959,-134.647"/>
</g>
<!-- Node49&#45;&gt;Node35 -->
<g id="edge222" class="edge"><title>Node49&#45;&gt;Node35</title>
<path fill="none" stroke="midnightblue" d="M816.916,-254.458C755.595,-249.085 614.958,-234.967 499.009,-210 471.688,-204.117 274.705,-160.412 258.009,-138 250.066,-127.337 249.497,-88.7941 263.009,-58 267.858,-46.9485 276.387,-36.7786 284.577,-28.7469"/>
<polygon fill="midnightblue" stroke="midnightblue" points="287.202,-31.0877 292.194,-21.7426 282.464,-25.935 287.202,-31.0877"/>
</g>
<!-- Node49&#45;&gt;Node48 -->
<g id="edge206" class="edge"><title>Node49&#45;&gt;Node48</title>
<path fill="none" stroke="midnightblue" d="M850.59,-246.307C853.988,-229.751 858.207,-197.388 846.009,-174 839.084,-160.722 826.512,-150.25 814.332,-142.593"/>
<polygon fill="midnightblue" stroke="midnightblue" points="816.021,-139.526 805.619,-137.515 812.497,-145.574 816.021,-139.526"/>
</g>
<!-- Node50 -->
<g id="node154" class="node"><title>Node50</title>
<a xlink:href="shared__ptr__container_8h.html" target="_top" xlink:title="base/std_ext/shared\l_ptr_container.h">
<polygon fill="white" stroke="black" points="2078.51,-175 2078.51,-209 2183.51,-209 2183.51,-175 2078.51,-175"/>
<text text-anchor="start" x="2086.51" y="-196" font-family="Helvetica,sans-Serif" font-size="10.00">base/std_ext/shared</text>
<text text-anchor="middle" x="2131.01" y="-183" font-family="Helvetica,sans-Serif" font-size="10.00">_ptr_container.h</text>
</a>
</g>
<!-- Node49&#45;&gt;Node50 -->
<g id="edge208" class="edge"><title>Node49&#45;&gt;Node50</title>
<path fill="none" stroke="midnightblue" d="M879.037,-256.358C1041.85,-252.901 1798.9,-235.69 2032.01,-210 2043.81,-208.699 2056.33,-206.82 2068.34,-204.762"/>
<polygon fill="midnightblue" stroke="midnightblue" points="2069.05,-208.19 2078.29,-203 2067.83,-201.298 2069.05,-208.19"/>
</g>
<!-- Node50&#45;&gt;Node7 -->
<g id="edge210" class="edge"><title>Node50&#45;&gt;Node7</title>
<path fill="none" stroke="midnightblue" d="M2142.81,-174.77C2152.84,-157.806 2163.49,-132.157 2149.01,-116 2085.97,-45.6456 1386.62,-17.5826 1226.52,-12.0561"/>
<polygon fill="midnightblue" stroke="midnightblue" points="1226.47,-8.55234 1216.36,-11.7106 1226.23,-15.5483 1226.47,-8.55234"/>
</g>
<!-- Node50&#45;&gt;Node10 -->
<g id="edge216" class="edge"><title>Node50&#45;&gt;Node10</title>
<path fill="none" stroke="midnightblue" d="M2078.5,-181.463C2063.52,-178.728 2047.16,-175.994 2032.01,-174 1979.3,-167.063 1617.4,-139.115 1497.5,-129.937"/>
<polygon fill="midnightblue" stroke="midnightblue" points="1497.56,-126.431 1487.32,-129.158 1497.02,-133.411 1497.56,-126.431"/>
</g>
<!-- Node50&#45;&gt;Node16 -->
<g id="edge212" class="edge"><title>Node50&#45;&gt;Node16</title>
<path fill="none" stroke="midnightblue" d="M2175.41,-174.922C2203.16,-164.249 2238.42,-150.687 2264.35,-140.717"/>
<polygon fill="midnightblue" stroke="midnightblue" points="2265.71,-143.941 2273.79,-137.085 2263.2,-137.408 2265.71,-143.941"/>
</g>
<!-- Node50&#45;&gt;Node51 -->
<g id="edge214" class="edge"><title>Node50&#45;&gt;Node51</title>
<path fill="none" stroke="midnightblue" d="M2183.62,-184.35C2209.07,-180.839 2240.09,-176.835 2268.01,-174 2388.37,-161.779 2759.72,-137.451 2882.29,-129.546"/>
<polygon fill="midnightblue" stroke="midnightblue" points="2882.61,-133.032 2892.37,-128.897 2882.16,-126.047 2882.61,-133.032"/>
</g>
<!-- Node52&#45;&gt;Node7 -->
<g id="edge236" class="edge"><title>Node52&#45;&gt;Node7</title>
<path fill="none" stroke="midnightblue" d="M1175.01,-304.47C1175.01,-283.211 1175.01,-233.641 1175.01,-192 1175.01,-192 1175.01,-192 1175.01,-127 1175.01,-93.175 1182.97,-54.5229 1188.59,-31.474"/>
<polygon fill="midnightblue" stroke="midnightblue" points="1191.98,-32.3312 1191.04,-21.7784 1185.2,-30.6159 1191.98,-32.3312"/>
</g>
<!-- Node52&#45;&gt;Node10 -->
<g id="edge244" class="edge"><title>Node52&#45;&gt;Node10</title>
<path fill="none" stroke="midnightblue" d="M1191.09,-304.354C1238.54,-272.944 1378.16,-180.523 1434.76,-143.054"/>
<polygon fill="midnightblue" stroke="midnightblue" points="1436.7,-145.968 1443.1,-137.53 1432.83,-140.131 1436.7,-145.968"/>
</g>
<!-- Node52&#45;&gt;Node16 -->
<g id="edge242" class="edge"><title>Node52&#45;&gt;Node16</title>
<path fill="none" stroke="midnightblue" d="M1212.67,-312.908C1389.92,-302.842 2136.25,-257.905 2228.01,-210 2242.43,-202.474 2269.58,-168.153 2286.11,-146.069"/>
<polygon fill="midnightblue" stroke="midnightblue" points="2289.14,-147.86 2292.27,-137.74 2283.51,-143.695 2289.14,-147.86"/>
</g>
<!-- Node52&#45;&gt;Node24 -->
<g id="edge240" class="edge"><title>Node52&#45;&gt;Node24</title>
<path fill="none" stroke="midnightblue" d="M1137.41,-313.633C1007.41,-308.723 581.751,-291.032 525.009,-268 487.889,-252.933 480.739,-241.518 456.009,-210 440.974,-190.838 429.372,-165.277 422.407,-147.607"/>
<polygon fill="midnightblue" stroke="midnightblue" points="425.492,-145.869 418.68,-137.754 418.944,-148.345 425.492,-145.869"/>
</g>
<!-- Node52&#45;&gt;Node30 -->
<g id="edge238" class="edge"><title>Node52&#45;&gt;Node30</title>
<path fill="none" stroke="midnightblue" d="M1152.27,-304.398C1112.47,-285.762 1027.68,-245.713 957.009,-210 955.266,-209.119 953.476,-208.204 951.675,-207.275"/>
<polygon fill="midnightblue" stroke="midnightblue" points="953.204,-204.125 942.72,-202.598 949.963,-210.33 953.204,-204.125"/>
</g>
<!-- Node52&#45;&gt;Node32 -->
<g id="edge234" class="edge"><title>Node52&#45;&gt;Node32</title>
<path fill="none" stroke="midnightblue" d="M1137.45,-312.107C1070.65,-306.538 927.051,-292.646 808.009,-268 716.962,-249.15 695.638,-238.106 607.009,-210 602.911,-208.7 598.647,-207.302 594.402,-205.879"/>
<polygon fill="midnightblue" stroke="midnightblue" points="595.213,-202.457 584.618,-202.549 592.958,-209.084 595.213,-202.457"/>
</g>
<!-- Node52&#45;&gt;Node49 -->
<g id="edge232" class="edge"><title>Node52&#45;&gt;Node49</title>
<path fill="none" stroke="midnightblue" d="M1137.5,-308.347C1075.84,-297.41 953.529,-275.716 889.416,-264.344"/>
<polygon fill="midnightblue" stroke="midnightblue" points="889.728,-260.845 879.271,-262.545 888.506,-267.738 889.728,-260.845"/>
</g>
<!-- Node53&#45;&gt;Node6 -->
<g id="edge250" class="edge"><title>Node53&#45;&gt;Node6</title>
<path fill="none" stroke="midnightblue" d="M1853.18,-366.721C1880.89,-360.11 1920.91,-347.589 1950.01,-326 1970.98,-310.441 2082.75,-162.771 2091.01,-138 2094.1,-128.724 2097.63,-123.193 2091.01,-116 2055.48,-77.4063 1689.03,-70.501 1564.31,-69.2676"/>
<polygon fill="midnightblue" stroke="midnightblue" points="1564.07,-65.7653 1554.03,-69.1736 1564,-72.7651 1564.07,-65.7653"/>
</g>
<!-- Node53&#45;&gt;Node7 -->
<g id="edge286" class="edge"><title>Node53&#45;&gt;Node7</title>
<path fill="none" stroke="midnightblue" d="M1798.75,-362.414C1749.38,-339.206 1626.65,-282.972 1520.01,-246 1462.96,-226.221 1442.35,-238.303 1389.01,-210 1310.49,-168.332 1294.97,-147.397 1237.01,-80 1224,-64.8705 1212.24,-45.4081 1204.33,-31.0126"/>
<polygon fill="midnightblue" stroke="midnightblue" points="1207.29,-29.138 1199.49,-21.9714 1201.12,-32.44 1207.29,-29.138"/>
</g>
<!-- Node53&#45;&gt;Node9 -->
<g id="edge252" class="edge"><title>Node53&#45;&gt;Node9</title>
<path fill="none" stroke="midnightblue" d="M1818.84,-362.121C1813.02,-329.692 1800.4,-232.323 1845.01,-174 1855.33,-160.509 1896.3,-145.969 1926.64,-136.691"/>
<polygon fill="midnightblue" stroke="midnightblue" points="1927.88,-139.972 1936.46,-133.756 1925.88,-133.266 1927.88,-139.972"/>
</g>
<!-- Node53&#45;&gt;Node16 -->
<g id="edge292" class="edge"><title>Node53&#45;&gt;Node16</title>
<path fill="none" stroke="midnightblue" d="M1853.04,-370.061C1905.62,-364.696 2013.19,-351.452 2101.01,-326 2164.91,-307.48 2179.93,-298.59 2239.01,-268 2249.82,-262.401 2326.1,-220.649 2332.01,-210 2343.62,-189.071 2329.45,-163.062 2316.45,-145.795"/>
<polygon fill="midnightblue" stroke="midnightblue" points="2318.89,-143.246 2309.9,-137.635 2313.43,-147.626 2318.89,-143.246"/>
</g>
<!-- Node53&#45;&gt;Node17 -->
<g id="edge288" class="edge"><title>Node53&#45;&gt;Node17</title>
<path fill="none" stroke="midnightblue" d="M1823.69,-362.495C1832.4,-330.293 1862.75,-231.661 1921.01,-174 1922.42,-172.599 1965.15,-151.923 1993.12,-138.466"/>
<polygon fill="midnightblue" stroke="midnightblue" points="1994.81,-141.537 2002.31,-134.05 1991.78,-135.228 1994.81,-141.537"/>
</g>
<!-- Node53&#45;&gt;Node45 -->
<g id="edge284" class="edge"><title>Node53&#45;&gt;Node45</title>
<path fill="none" stroke="midnightblue" d="M1788.86,-372.084C1637.04,-367.683 990.235,-348.045 765.827,-326.068"/>
<polygon fill="midnightblue" stroke="midnightblue" points="766.084,-322.576 755.782,-325.053 765.38,-329.541 766.084,-322.576"/>
</g>
<!-- Node53&#45;&gt;Node52 -->
<g id="edge248" class="edge"><title>Node53&#45;&gt;Node52</title>
<path fill="none" stroke="midnightblue" d="M1788.97,-370.124C1683.73,-360.675 1348.21,-330.55 1222.86,-319.296"/>
<polygon fill="midnightblue" stroke="midnightblue" points="1223.07,-315.801 1212.79,-318.392 1222.44,-322.773 1223.07,-315.801"/>
</g>
<!-- Node54 -->
<g id="node181" class="node"><title>Node54</title>
<a xlink:href="_particle_type_8h.html" target="_top" xlink:title="base/ParticleType.h">
<polygon fill="white" stroke="black" points="2126.01,-246.5 2126.01,-267.5 2230.01,-267.5 2230.01,-246.5 2126.01,-246.5"/>
<text text-anchor="middle" x="2178.01" y="-254.5" font-family="Helvetica,sans-Serif" font-size="10.00">base/ParticleType.h</text>
</a>
</g>
<!-- Node53&#45;&gt;Node54 -->
<g id="edge254" class="edge"><title>Node53&#45;&gt;Node54</title>
<path fill="none" stroke="midnightblue" d="M1853.21,-370.48C1900.87,-365.942 1992.39,-354.103 2065.01,-326 2098.92,-312.876 2134.08,-289.621 2155.98,-273.77"/>
<polygon fill="midnightblue" stroke="midnightblue" points="2158.27,-276.433 2164.25,-267.685 2154.12,-270.796 2158.27,-276.433"/>
</g>
<!-- Node57 -->
<g id="node192" class="node"><title>Node57</title>
<a xlink:href="_tree_8h.html" target="_top" xlink:title="base/Tree.h">
<polygon fill="white" stroke="black" points="1551.01,-181.5 1551.01,-202.5 1619.01,-202.5 1619.01,-181.5 1551.01,-181.5"/>
<text text-anchor="middle" x="1585.01" y="-189.5" font-family="Helvetica,sans-Serif" font-size="10.00">base/Tree.h</text>
</a>
</g>
<!-- Node53&#45;&gt;Node57 -->
<g id="edge270" class="edge"><title>Node53&#45;&gt;Node57</title>
<path fill="none" stroke="midnightblue" d="M1815.21,-362.245C1801.73,-338.196 1766,-279.558 1721.01,-246 1693.41,-225.415 1656.92,-211.492 1628.69,-202.946"/>
<polygon fill="midnightblue" stroke="midnightblue" points="1629.65,-199.581 1619.07,-200.145 1627.69,-206.302 1629.65,-199.581"/>
</g>
<!-- Node59 -->
<g id="node204" class="node"><title>Node59</title>
<polygon fill="white" stroke="#bfbfbf" points="1887.01,-304.5 1887.01,-325.5 1941.01,-325.5 1941.01,-304.5 1887.01,-304.5"/>
<text text-anchor="middle" x="1914.01" y="-312.5" font-family="Helvetica,sans-Serif" font-size="10.00">iostream</text>
</g>
<!-- Node53&#45;&gt;Node59 -->
<g id="edge290" class="edge"><title>Node53&#45;&gt;Node59</title>
<path fill="none" stroke="midnightblue" d="M1838.07,-362.362C1852.09,-353.614 1872.19,-341.079 1888.19,-331.101"/>
<polygon fill="midnightblue" stroke="midnightblue" points="1890.43,-333.832 1897.06,-325.571 1886.72,-327.893 1890.43,-333.832"/>
</g>
<!-- Node54&#45;&gt;Node5 -->
<g id="edge258" class="edge"><title>Node54&#45;&gt;Node5</title>
<path fill="none" stroke="midnightblue" d="M2125.8,-249.67C2036.05,-237.071 1853.68,-211.468 1765.29,-199.059"/>
<polygon fill="midnightblue" stroke="midnightblue" points="1765.63,-195.573 1755.24,-197.648 1764.66,-202.505 1765.63,-195.573"/>
</g>
<!-- Node54&#45;&gt;Node7 -->
<g id="edge268" class="edge"><title>Node54&#45;&gt;Node7</title>
<path fill="none" stroke="midnightblue" d="M2125.98,-255.243C1972.34,-249.821 1527.49,-232.358 1466.01,-210 1355.69,-169.883 1251.23,-70.4245 1211.2,-29.274"/>
<polygon fill="midnightblue" stroke="midnightblue" points="1213.52,-26.6406 1204.07,-21.8562 1208.47,-31.4914 1213.52,-26.6406"/>
</g>
<!-- Node54&#45;&gt;Node8 -->
<g id="edge262" class="edge"><title>Node54&#45;&gt;Node8</title>
<path fill="none" stroke="midnightblue" d="M2230.07,-250.926C2246.65,-249.143 2265.08,-247.32 2282.01,-246 2361.31,-239.814 2936.23,-261.318 2997.01,-210 3022.06,-188.852 3009.43,-170.585 3013.01,-138 3014.08,-128.281 3019.42,-123.387 3013.01,-116 2966.55,-62.4378 2457.05,-23.3853 2314.74,-13.4654"/>
<polygon fill="midnightblue" stroke="midnightblue" points="2314.59,-9.94733 2304.38,-12.7497 2314.11,-16.9307 2314.59,-9.94733"/>
</g>
<!-- Node54&#45;&gt;Node9 -->
<g id="edge256" class="edge"><title>Node54&#45;&gt;Node9</title>
<path fill="none" stroke="midnightblue" d="M2125.84,-253.483C2066.55,-248.272 1975.24,-236.143 1954.01,-210 1939.77,-192.463 1945.51,-165.424 1952.16,-147.009"/>
<polygon fill="midnightblue" stroke="midnightblue" points="1955.48,-148.125 1955.92,-137.54 1948.97,-145.539 1955.48,-148.125"/>
</g>
<!-- Node54&#45;&gt;Node14 -->
<g id="edge260" class="edge"><title>Node54&#45;&gt;Node14</title>
<path fill="none" stroke="midnightblue" d="M2230.28,-251.161C2316.5,-241.284 2481.47,-221.261 2506.01,-210 2538.93,-194.895 2568.96,-164.668 2586.1,-145.161"/>
<polygon fill="midnightblue" stroke="midnightblue" points="2588.78,-147.406 2592.62,-137.532 2583.46,-142.856 2588.78,-147.406"/>
</g>
<!-- Node54&#45;&gt;Node55 -->
<g id="edge264" class="edge"><title>Node54&#45;&gt;Node55</title>
<path fill="none" stroke="midnightblue" d="M2230.07,-250.942C2246.65,-249.16 2265.09,-247.333 2282.01,-246 2358.99,-239.937 2919.27,-262.374 2976.01,-210 2992.79,-194.505 2993.12,-166.755 2990.86,-147.636"/>
<polygon fill="midnightblue" stroke="midnightblue" points="2994.29,-146.902 2989.34,-137.534 2987.37,-147.943 2994.29,-146.902"/>
</g>
<!-- Node56 -->
<g id="node189" class="node"><title>Node56</title>
<polygon fill="white" stroke="#bfbfbf" points="2276.51,-181.5 2276.51,-202.5 2323.51,-202.5 2323.51,-181.5 2276.51,-181.5"/>
<text text-anchor="middle" x="2300.01" y="-189.5" font-family="Helvetica,sans-Serif" font-size="10.00">iterator</text>
</g>
<!-- Node54&#45;&gt;Node56 -->
<g id="edge266" class="edge"><title>Node54&#45;&gt;Node56</title>
<path fill="none" stroke="midnightblue" d="M2197.88,-246.412C2217.73,-235.836 2248.46,-219.465 2271.03,-207.441"/>
<polygon fill="midnightblue" stroke="midnightblue" points="2272.96,-210.375 2280.14,-202.584 2269.67,-204.197 2272.96,-210.375"/>
</g>
<!-- Node57&#45;&gt;Node7 -->
<g id="edge278" class="edge"><title>Node57&#45;&gt;Node7</title>
<path fill="none" stroke="midnightblue" d="M1587,-181.42C1591.11,-156.017 1597.45,-91.2254 1563.01,-58 1538.91,-34.7554 1311.71,-18.328 1226.28,-12.9266"/>
<polygon fill="midnightblue" stroke="midnightblue" points="1226.32,-9.42251 1216.12,-12.2944 1225.88,-16.409 1226.32,-9.42251"/>
</g>
<!-- Node57&#45;&gt;Node10 -->
<g id="edge280" class="edge"><title>Node57&#45;&gt;Node10</title>
<path fill="none" stroke="midnightblue" d="M1564.48,-181.412C1543.89,-170.788 1511.96,-154.318 1488.63,-142.28"/>
<polygon fill="midnightblue" stroke="midnightblue" points="1490.02,-139.058 1479.52,-137.584 1486.81,-145.279 1490.02,-139.058"/>
</g>
<!-- Node57&#45;&gt;Node16 -->
<g id="edge274" class="edge"><title>Node57&#45;&gt;Node16</title>
<path fill="none" stroke="midnightblue" d="M1619.09,-183.276C1633.48,-179.893 1650.47,-176.29 1666.01,-174 1782.75,-156.794 2146.78,-135.541 2263.56,-129.006"/>
<polygon fill="midnightblue" stroke="midnightblue" points="2263.97,-132.488 2273.76,-128.437 2263.58,-125.499 2263.97,-132.488"/>
</g>
<!-- Node57&#45;&gt;Node17 -->
<g id="edge276" class="edge"><title>Node57&#45;&gt;Node17</title>
<path fill="none" stroke="midnightblue" d="M1619.14,-183.547C1633.53,-180.207 1650.52,-176.564 1666.01,-174 1807.44,-150.595 1851.02,-176.968 1992.3,-137.777"/>
<polygon fill="midnightblue" stroke="midnightblue" points="1993.53,-141.067 2002.2,-134.971 1991.62,-134.332 1993.53,-141.067"/>
</g>
<!-- Node57&#45;&gt;Node41 -->
<g id="edge282" class="edge"><title>Node57&#45;&gt;Node41</title>
<path fill="none" stroke="midnightblue" d="M1563.59,-181.456C1556.84,-178.565 1549.25,-175.749 1542.01,-174 1345.04,-126.403 1283.84,-177.179 1081.74,-137.95"/>
<polygon fill="midnightblue" stroke="midnightblue" points="1082.19,-134.47 1071.7,-135.949 1080.82,-141.335 1082.19,-134.47"/>
</g>
<!-- Node58 -->
<g id="node194" class="node"><title>Node58</title>
<polygon fill="white" stroke="#bfbfbf" points="1619.01,-116.5 1619.01,-137.5 1739.01,-137.5 1739.01,-116.5 1619.01,-116.5"/>
<text text-anchor="middle" x="1679.01" y="-124.5" font-family="Helvetica,sans-Serif" font-size="10.00">base/cereal/access.hpp</text>
</g>
<!-- Node57&#45;&gt;Node58 -->
<g id="edge272" class="edge"><title>Node57&#45;&gt;Node58</title>
<path fill="none" stroke="midnightblue" d="M1600.53,-181.267C1615.45,-170.949 1638.2,-155.216 1655.38,-143.342"/>
<polygon fill="midnightblue" stroke="midnightblue" points="1657.54,-146.1 1663.78,-137.534 1653.56,-140.343 1657.54,-146.1"/>
</g>
<!-- Node60&#45;&gt;Node14 -->
<g id="edge296" class="edge"><title>Node60&#45;&gt;Node14</title>
<path fill="none" stroke="midnightblue" d="M2697.28,-181.412C2678.65,-170.883 2649.86,-154.611 2628.61,-142.602"/>
<polygon fill="midnightblue" stroke="midnightblue" points="2630.16,-139.457 2619.73,-137.584 2626.72,-145.551 2630.16,-139.457"/>
</g>
<!-- Node60&#45;&gt;Node16 -->
<g id="edge298" class="edge"><title>Node60&#45;&gt;Node16</title>
<path fill="none" stroke="midnightblue" d="M2666.65,-184.288C2582.14,-171.083 2411.59,-144.434 2336.69,-132.732"/>
<polygon fill="midnightblue" stroke="midnightblue" points="2336.78,-129.203 2326.36,-131.117 2335.7,-136.119 2336.78,-129.203"/>
</g>
<!-- Node60&#45;&gt;Node24 -->
<g id="edge304" class="edge"><title>Node60&#45;&gt;Node24</title>
<path fill="none" stroke="midnightblue" d="M2666.85,-186.85C2624.34,-182.619 2561.19,-176.873 2506.01,-174 1643.92,-129.113 1426.35,-177.794 564.009,-138 525.418,-136.219 481.297,-132.787 451.143,-130.228"/>
<polygon fill="midnightblue" stroke="midnightblue" points="451.354,-126.733 441.091,-129.363 450.754,-133.708 451.354,-126.733"/>
</g>
<!-- Node60&#45;&gt;Node55 -->
<g id="edge300" class="edge"><title>Node60&#45;&gt;Node55</title>
<path fill="none" stroke="midnightblue" d="M2747.74,-181.464C2756.22,-178.837 2765.42,-176.157 2774.01,-174 2855.67,-153.491 2879.3,-161.999 2960.01,-138 2960.11,-137.971 2960.2,-137.942 2960.3,-137.913"/>
<polygon fill="midnightblue" stroke="midnightblue" points="2961.17,-141.315 2969.47,-134.723 2958.87,-134.704 2961.17,-141.315"/>
</g>
<!-- Node61 -->
<g id="node212" class="node"><title>Node61</title>
<polygon fill="white" stroke="#bfbfbf" points="2701.01,-116.5 2701.01,-137.5 2731.01,-137.5 2731.01,-116.5 2701.01,-116.5"/>
<text text-anchor="middle" x="2716.01" y="-124.5" font-family="Helvetica,sans-Serif" font-size="10.00">set</text>
</g>
<!-- Node60&#45;&gt;Node61 -->
<g id="edge302" class="edge"><title>Node60&#45;&gt;Node61</title>
<path fill="none" stroke="midnightblue" d="M2716.01,-181.267C2716.01,-172.18 2716.01,-158.892 2716.01,-147.74"/>
<polygon fill="midnightblue" stroke="midnightblue" points="2719.51,-147.534 2716.01,-137.534 2712.51,-147.534 2719.51,-147.534"/>
</g>
<!-- Node62&#45;&gt;Node7 -->
<g id="edge312" class="edge"><title>Node62&#45;&gt;Node7</title>
<path fill="none" stroke="midnightblue" d="M2895.83,-174.925C2866.52,-156.776 2816.94,-128.946 2770.01,-116 2464.2,-31.6357 1423.78,-13.9984 1226.46,-11.3859"/>
<polygon fill="midnightblue" stroke="midnightblue" points="1226.23,-7.8827 1216.18,-11.2535 1226.14,-14.8821 1226.23,-7.8827"/>
</g>
<!-- Node62&#45;&gt;Node14 -->
<g id="edge308" class="edge"><title>Node62&#45;&gt;Node14</title>
<path fill="none" stroke="midnightblue" d="M2876.48,-176.3C2873.63,-175.479 2870.79,-174.703 2868.01,-174 2783.63,-152.635 2681.83,-137.611 2631.81,-130.916"/>
<polygon fill="midnightblue" stroke="midnightblue" points="2632.03,-127.415 2621.66,-129.577 2631.12,-134.355 2632.03,-127.415"/>
</g>
<!-- Node62&#45;&gt;Node16 -->
<g id="edge316" class="edge"><title>Node62&#45;&gt;Node16</title>
<path fill="none" stroke="midnightblue" d="M2876.26,-175.921C2873.48,-175.205 2870.72,-174.556 2868.01,-174 2765.52,-152.995 2444.8,-134.623 2336.3,-128.866"/>
<polygon fill="midnightblue" stroke="midnightblue" points="2336.36,-125.364 2326.19,-128.333 2335.99,-132.354 2336.36,-125.364"/>
</g>
<!-- Node62&#45;&gt;Node17 -->
<g id="edge310" class="edge"><title>Node62&#45;&gt;Node17</title>
<path fill="none" stroke="midnightblue" d="M2876.27,-175.832C2873.5,-175.139 2870.73,-174.518 2868.01,-174 2826.39,-166.063 2177.93,-134.701 2041.91,-128.188"/>
<polygon fill="midnightblue" stroke="midnightblue" points="2041.84,-124.681 2031.68,-127.699 2041.5,-131.673 2041.84,-124.681"/>
</g>
<!-- Node62&#45;&gt;Node19 -->
<g id="edge320" class="edge"><title>Node62&#45;&gt;Node19</title>
<path fill="none" stroke="midnightblue" d="M2967.96,-176.76C3002.06,-165.451 3048.01,-150.215 3080.04,-139.592"/>
<polygon fill="midnightblue" stroke="midnightblue" points="3081.53,-142.787 3089.92,-136.317 3079.32,-136.142 3081.53,-142.787"/>
</g>
<!-- Node62&#45;&gt;Node51 -->
<g id="edge318" class="edge"><title>Node62&#45;&gt;Node51</title>
<path fill="none" stroke="midnightblue" d="M2922.01,-174.922C2922.01,-166.67 2922.01,-156.692 2922.01,-147.982"/>
<polygon fill="midnightblue" stroke="midnightblue" points="2925.51,-147.852 2922.01,-137.852 2918.51,-147.852 2925.51,-147.852"/>
</g>
<!-- Node62&#45;&gt;Node55 -->
<g id="edge314" class="edge"><title>Node62&#45;&gt;Node55</title>
<path fill="none" stroke="midnightblue" d="M2939.09,-174.922C2948.26,-165.754 2959.56,-154.454 2968.88,-145.129"/>
<polygon fill="midnightblue" stroke="midnightblue" points="2971.56,-147.398 2976.16,-137.852 2966.61,-142.448 2971.56,-147.398"/>
</g>
<!-- Node67 -->
<g id="node237" class="node"><title>Node67</title>
<a xlink:href="_t_h2_crystals_8h.html" target="_top" xlink:title="TH2Crystals.h">
<polygon fill="white" stroke="black" points="3185.01,-181.5 3185.01,-202.5 3265.01,-202.5 3265.01,-181.5 3185.01,-181.5"/>
<text text-anchor="middle" x="3225.01" y="-189.5" font-family="Helvetica,sans-Serif" font-size="10.00">TH2Crystals.h</text>
</a>
</g>
<!-- Node66&#45;&gt;Node67 -->
<g id="edge340" class="edge"><title>Node66&#45;&gt;Node67</title>
<path fill="none" stroke="midnightblue" d="M3118.85,-487.7C3149.58,-480.425 3186.52,-466.917 3211.01,-442 3233.77,-418.843 3235.01,-405.469 3235.01,-373 3235.01,-373 3235.01,-373 3235.01,-315 3235.01,-278.934 3230.69,-237.114 3227.72,-212.703"/>
<polygon fill="midnightblue" stroke="midnightblue" points="3231.16,-211.992 3226.44,-202.507 3224.22,-212.865 3231.16,-211.992"/>
</g>
<!-- Node67&#45;&gt;Node14 -->
<g id="edge348" class="edge"><title>Node67&#45;&gt;Node14</title>
<path fill="none" stroke="midnightblue" d="M3184.86,-188.2C3096,-179.73 2875.96,-158.435 2692.01,-138 2671.97,-135.774 2649.47,-133.057 2631.86,-130.88"/>
<polygon fill="midnightblue" stroke="midnightblue" points="2631.95,-127.364 2621.6,-129.604 2631.09,-134.311 2631.95,-127.364"/>
</g>
<!-- Node67&#45;&gt;Node19 -->
<g id="edge342" class="edge"><title>Node67&#45;&gt;Node19</title>
<path fill="none" stroke="midnightblue" d="M3207.34,-181.267C3190.12,-170.807 3163.74,-154.782 3144.11,-142.854"/>
<polygon fill="midnightblue" stroke="midnightblue" points="3145.71,-139.734 3135.35,-137.534 3142.08,-145.717 3145.71,-139.734"/>
</g>
<!-- Node68 -->
<g id="node240" class="node"><title>Node68</title>
<polygon fill="white" stroke="#bfbfbf" points="3178.51,-116.5 3178.51,-137.5 3241.51,-137.5 3241.51,-116.5 3178.51,-116.5"/>
<text text-anchor="middle" x="3210.01" y="-124.5" font-family="Helvetica,sans-Serif" font-size="10.00">TH2Poly.h</text>
</g>
<!-- Node67&#45;&gt;Node68 -->
<g id="edge344" class="edge"><title>Node67&#45;&gt;Node68</title>
<path fill="none" stroke="midnightblue" d="M3222.53,-181.267C3220.41,-172.085 3217.3,-158.615 3214.71,-147.392"/>
<polygon fill="midnightblue" stroke="midnightblue" points="3218.1,-146.491 3212.44,-137.534 3211.28,-148.065 3218.1,-146.491"/>
</g>
<!-- Node69 -->
<g id="node242" class="node"><title>Node69</title>
<polygon fill="white" stroke="#bfbfbf" points="3258.51,-116.5 3258.51,-137.5 3323.51,-137.5 3323.51,-116.5 3258.51,-116.5"/>
<text text-anchor="middle" x="3291.01" y="-124.5" font-family="Helvetica,sans-Serif" font-size="10.00">TVector2.h</text>
</g>
<!-- Node67&#45;&gt;Node69 -->
<g id="edge346" class="edge"><title>Node67&#45;&gt;Node69</title>
<path fill="none" stroke="midnightblue" d="M3235.91,-181.267C3246,-171.328 3261.19,-156.363 3273.07,-144.664"/>
<polygon fill="midnightblue" stroke="midnightblue" points="3275.64,-147.044 3280.31,-137.534 3270.73,-142.057 3275.64,-147.044"/>
</g>
</g>
</svg>
