<?xml version="1.0" encoding="UTF-8" standalone="no"?>
<!DOCTYPE svg PUBLIC "-//W3C//DTD SVG 1.1//EN"
 "http://www.w3.org/Graphics/SVG/1.1/DTD/svg11.dtd">
<!-- Generated by graphviz version 2.26.3 (20100126.1600)
 -->
<!-- Title: src/calibration/modules/PID_PhiAngle.h Pages: 1 -->
<svg width="2530pt" height="434pt"
 viewBox="0.00 0.00 2530.00 434.00" xmlns="http://www.w3.org/2000/svg" xmlns:xlink="http://www.w3.org/1999/xlink">
<g id="graph1" class="graph" transform="scale(1 1) rotate(0) translate(4 430)">
<title>src/calibration/modules/PID_PhiAngle.h</title>
<polygon fill="white" stroke="white" points="-4,5 -4,-430 2527,-430 2527,5 -4,5"/>
<!-- Node1 -->
<g id="node1" class="node"><title>Node1</title>
<polygon fill="#bfbfbf" stroke="black" points="1387.5,-391 1387.5,-425 1504.5,-425 1504.5,-391 1387.5,-391"/>
<text text-anchor="start" x="1395.5" y="-412" font-family="Helvetica,sans-Serif" font-size="10.00">src/calibration/modules</text>
<text text-anchor="middle" x="1446" y="-399" font-family="Helvetica,sans-Serif" font-size="10.00">/PID_PhiAngle.h</text>
</g>
<!-- Node2 -->
<g id="node3" class="node"><title>Node2</title>
<a xlink:href="_calibration_8h.html" target="_top" xlink:title="Calibration.h">
<polygon fill="white" stroke="black" points="836.5,-332.5 836.5,-353.5 907.5,-353.5 907.5,-332.5 836.5,-332.5"/>
<text text-anchor="middle" x="872" y="-340.5" font-family="Helvetica,sans-Serif" font-size="10.00">Calibration.h</text>
</a>
</g>
<!-- Node1&#45;&gt;Node2 -->
<g id="edge2" class="edge"><title>Node1&#45;&gt;Node2</title>
<path fill="none" stroke="midnightblue" d="M1387.27,-401.349C1272.63,-388.367 1021.24,-359.9 917.827,-348.189"/>
<polygon fill="midnightblue" stroke="midnightblue" points="918.038,-344.691 907.707,-347.043 917.25,-351.647 918.038,-344.691"/>
</g>
<!-- Node24 -->
<g id="node58" class="node"><title>Node24</title>
<a xlink:href="interval_8h.html" target="_top" xlink:title="base/interval.h">
<polygon fill="white" stroke="black" points="2312,-195.5 2312,-216.5 2392,-216.5 2392,-195.5 2312,-195.5"/>
<text text-anchor="middle" x="2352" y="-203.5" font-family="Helvetica,sans-Serif" font-size="10.00">base/interval.h</text>
</a>
</g>
<!-- Node1&#45;&gt;Node24 -->
<g id="edge160" class="edge"><title>Node1&#45;&gt;Node24</title>
<path fill="none" stroke="midnightblue" d="M1504.64,-397.621C1643.59,-372.53 2003.35,-304.666 2298,-224 2302.7,-222.714 2307.59,-221.256 2312.42,-219.74"/>
<polygon fill="midnightblue" stroke="midnightblue" points="2313.75,-222.99 2322.19,-216.583 2311.59,-216.329 2313.75,-222.99"/>
</g>
<!-- Node3 -->
<g id="node5" class="node"><title>Node3</title>
<a xlink:href="_reconstruct__traits_8h.html" target="_top" xlink:title="reconstruct/Reconstruct\l_traits.h">
<polygon fill="white" stroke="black" points="567,-261 567,-295 689,-295 689,-261 567,-261"/>
<text text-anchor="start" x="575" y="-282" font-family="Helvetica,sans-Serif" font-size="10.00">reconstruct/Reconstruct</text>
<text text-anchor="middle" x="628" y="-269" font-family="Helvetica,sans-Serif" font-size="10.00">_traits.h</text>
</a>
</g>
<!-- Node2&#45;&gt;Node3 -->
<g id="edge4" class="edge"><title>Node2&#45;&gt;Node3</title>
<path fill="none" stroke="midnightblue" d="M836.259,-333.479C800.373,-323.919 744.099,-308.928 699.091,-296.938"/>
<polygon fill="midnightblue" stroke="midnightblue" points="699.942,-293.543 689.378,-294.351 698.14,-300.307 699.942,-293.543"/>
</g>
<!-- Node6 -->
<g id="node11" class="node"><title>Node6</title>
<polygon fill="white" stroke="#bfbfbf" points="321,-0.5 321,-21.5 365,-21.5 365,-0.5 321,-0.5"/>
<text text-anchor="middle" x="343" y="-8.5" font-family="Helvetica,sans-Serif" font-size="10.00">vector</text>
</g>
<!-- Node2&#45;&gt;Node6 -->
<g id="edge158" class="edge"><title>Node2&#45;&gt;Node6</title>
<path fill="none" stroke="midnightblue" d="M836.164,-340.244C687.747,-328.363 129,-278.798 129,-206 129,-206 129,-206 129,-134 129,-99.1827 123.276,-82.5152 148,-58 170.75,-35.4421 261.533,-21.031 310.8,-14.709"/>
<polygon fill="midnightblue" stroke="midnightblue" points="311.44,-18.1565 320.931,-13.4481 310.575,-11.2101 311.44,-18.1565"/>
</g>
<!-- Node23 -->
<g id="node56" class="node"><title>Node23</title>
<a xlink:href="_manager__traits_8h.html" target="_top" xlink:title="calibration/gui/Manager\l_traits.h">
<polygon fill="white" stroke="black" points="1057.5,-261 1057.5,-295 1174.5,-295 1174.5,-261 1057.5,-261"/>
<text text-anchor="start" x="1065.5" y="-282" font-family="Helvetica,sans-Serif" font-size="10.00">calibration/gui/Manager</text>
<text text-anchor="middle" x="1116" y="-269" font-family="Helvetica,sans-Serif" font-size="10.00">_traits.h</text>
</a>
</g>
<!-- Node2&#45;&gt;Node23 -->
<g id="edge66" class="edge"><title>Node2&#45;&gt;Node23</title>
<path fill="none" stroke="midnightblue" d="M907.741,-333.479C944.367,-323.722 1002.23,-308.308 1047.68,-296.2"/>
<polygon fill="midnightblue" stroke="midnightblue" points="1048.71,-299.548 1057.47,-293.592 1046.91,-292.784 1048.71,-299.548"/>
</g>
<!-- Node4 -->
<g id="node7" class="node"><title>Node4</title>
<a xlink:href="_detector__t_8h.html" target="_top" xlink:title="base/Detector_t.h">
<polygon fill="white" stroke="black" points="255.5,-195.5 255.5,-216.5 350.5,-216.5 350.5,-195.5 255.5,-195.5"/>
<text text-anchor="middle" x="303" y="-203.5" font-family="Helvetica,sans-Serif" font-size="10.00">base/Detector_t.h</text>
</a>
</g>
<!-- Node3&#45;&gt;Node4 -->
<g id="edge6" class="edge"><title>Node3&#45;&gt;Node4</title>
<path fill="none" stroke="midnightblue" d="M566.851,-267.022C513.13,-257.015 432.997,-241.203 364,-224 358.303,-222.58 352.341,-220.973 346.47,-219.318"/>
<polygon fill="midnightblue" stroke="midnightblue" points="347.317,-215.92 336.738,-216.513 345.378,-222.646 347.317,-215.92"/>
</g>
<!-- Node15 -->
<g id="node32" class="node"><title>Node15</title>
<a xlink:href="mapped__vectors_8h.html" target="_top" xlink:title="base/std_ext/mapped\l_vectors.h">
<polygon fill="white" stroke="black" points="479,-189 479,-223 589,-223 589,-189 479,-189"/>
<text text-anchor="start" x="487" y="-210" font-family="Helvetica,sans-Serif" font-size="10.00">base/std_ext/mapped</text>
<text text-anchor="middle" x="534" y="-197" font-family="Helvetica,sans-Serif" font-size="10.00">_vectors.h</text>
</a>
</g>
<!-- Node3&#45;&gt;Node15 -->
<g id="edge34" class="edge"><title>Node3&#45;&gt;Node15</title>
<path fill="none" stroke="midnightblue" d="M605.723,-260.937C593.404,-251.501 577.917,-239.639 564.49,-229.354"/>
<polygon fill="midnightblue" stroke="midnightblue" points="566.51,-226.492 556.443,-223.19 562.253,-232.049 566.51,-226.492"/>
</g>
<!-- Node17 -->
<g id="node36" class="node"><title>Node17</title>
<polygon fill="white" stroke="#bfbfbf" points="670,-58.5 670,-79.5 722,-79.5 722,-58.5 670,-58.5"/>
<text text-anchor="middle" x="696" y="-66.5" font-family="Helvetica,sans-Serif" font-size="10.00">memory</text>
</g>
<!-- Node3&#45;&gt;Node17 -->
<g id="edge58" class="edge"><title>Node3&#45;&gt;Node17</title>
<path fill="none" stroke="midnightblue" d="M566.78,-268.722C534.845,-261.218 496.933,-247.805 470,-224 432.193,-190.584 402.637,-154.712 435,-116 463.183,-82.2884 594.435,-72.7193 659.392,-70.0324"/>
<polygon fill="midnightblue" stroke="midnightblue" points="659.735,-73.522 669.594,-69.6446 659.469,-66.527 659.735,-73.522"/>
</g>
<!-- Node18 -->
<g id="node38" class="node"><title>Node18</title>
<polygon fill="white" stroke="#bfbfbf" points="929.5,-58.5 929.5,-79.5 958.5,-79.5 958.5,-58.5 929.5,-58.5"/>
<text text-anchor="middle" x="944" y="-66.5" font-family="Helvetica,sans-Serif" font-size="10.00">list</text>
</g>
<!-- Node3&#45;&gt;Node18 -->
<g id="edge62" class="edge"><title>Node3&#45;&gt;Node18</title>
<path fill="none" stroke="midnightblue" d="M682.345,-260.958C738.308,-241.395 825.758,-205.023 887,-152 907.724,-134.057 924.447,-106.952 934.294,-88.6426"/>
<polygon fill="midnightblue" stroke="midnightblue" points="937.421,-90.2153 938.921,-79.7271 931.208,-86.9911 937.421,-90.2153"/>
</g>
<!-- Node19 -->
<g id="node43" class="node"><title>Node19</title>
<a xlink:href="shared__ptr__container_8h.html" target="_top" xlink:title="base/std_ext/shared\l_ptr_container.h">
<polygon fill="white" stroke="black" points="773.5,-117 773.5,-151 878.5,-151 878.5,-117 773.5,-117"/>
<text text-anchor="start" x="781.5" y="-138" font-family="Helvetica,sans-Serif" font-size="10.00">base/std_ext/shared</text>
<text text-anchor="middle" x="826" y="-125" font-family="Helvetica,sans-Serif" font-size="10.00">_ptr_container.h</text>
</a>
</g>
<!-- Node3&#45;&gt;Node19 -->
<g id="edge48" class="edge"><title>Node3&#45;&gt;Node19</title>
<path fill="none" stroke="midnightblue" d="M651.491,-260.916C686.993,-235.096 754.39,-186.08 794.237,-157.1"/>
<polygon fill="midnightblue" stroke="midnightblue" points="796.511,-159.774 802.54,-151.062 792.394,-154.113 796.511,-159.774"/>
</g>
<!-- Node20 -->
<g id="node47" class="node"><title>Node20</title>
<polygon fill="white" stroke="#bfbfbf" points="1405.5,-58.5 1405.5,-79.5 1464.5,-79.5 1464.5,-58.5 1405.5,-58.5"/>
<text text-anchor="middle" x="1435" y="-66.5" font-family="Helvetica,sans-Serif" font-size="10.00">functional</text>
</g>
<!-- Node3&#45;&gt;Node20 -->
<g id="edge64" class="edge"><title>Node3&#45;&gt;Node20</title>
<path fill="none" stroke="midnightblue" d="M689.173,-265C727.353,-255.846 777.045,-242.013 819,-224 905.429,-186.892 911.622,-145.302 1001,-116 1156.32,-65.0801 1204.91,-101.061 1367,-80 1376.13,-78.8132 1385.93,-77.345 1395.15,-75.872"/>
<polygon fill="midnightblue" stroke="midnightblue" points="1395.96,-79.2865 1405.27,-74.2217 1394.84,-72.3778 1395.96,-79.2865"/>
</g>
<!-- Node22 -->
<g id="node52" class="node"><title>Node22</title>
<polygon fill="white" stroke="#bfbfbf" points="203.5,-195.5 203.5,-216.5 238.5,-216.5 238.5,-195.5 203.5,-195.5"/>
<text text-anchor="middle" x="221" y="-203.5" font-family="Helvetica,sans-Serif" font-size="10.00">map</text>
</g>
<!-- Node3&#45;&gt;Node22 -->
<g id="edge60" class="edge"><title>Node3&#45;&gt;Node22</title>
<path fill="none" stroke="midnightblue" d="M566.991,-272.802C474.62,-264.353 303.999,-246.316 247,-224 245.562,-223.437 244.126,-222.781 242.71,-222.058"/>
<polygon fill="midnightblue" stroke="midnightblue" points="244.172,-218.85 233.815,-216.618 240.52,-224.821 244.172,-218.85"/>
</g>
<!-- Node5 -->
<g id="node9" class="node"><title>Node5</title>
<a xlink:href="printable_8h.html" target="_top" xlink:title="base/printable.h">
<polygon fill="white" stroke="black" points="157,-58.5 157,-79.5 243,-79.5 243,-58.5 157,-58.5"/>
<text text-anchor="middle" x="200" y="-66.5" font-family="Helvetica,sans-Serif" font-size="10.00">base/printable.h</text>
</a>
</g>
<!-- Node4&#45;&gt;Node5 -->
<g id="edge8" class="edge"><title>Node4&#45;&gt;Node5</title>
<path fill="none" stroke="midnightblue" d="M279.287,-195.355C261.59,-186.249 238.121,-171.517 224,-152 210.602,-133.482 204.651,-107.603 202.028,-89.6866"/>
<polygon fill="midnightblue" stroke="midnightblue" points="205.493,-89.1897 200.788,-79.6969 198.546,-90.0518 205.493,-89.1897"/>
</g>
<!-- Node4&#45;&gt;Node6 -->
<g id="edge32" class="edge"><title>Node4&#45;&gt;Node6</title>
<path fill="none" stroke="midnightblue" d="M291.414,-195.296C281.445,-185.232 267.783,-169.18 262,-152 256.896,-136.836 257.908,-131.468 262,-116 271.565,-79.846 301.604,-47.2982 322.283,-28.3363"/>
<polygon fill="midnightblue" stroke="midnightblue" points="324.799,-30.7831 329.954,-21.5267 320.152,-25.5482 324.799,-30.7831"/>
</g>
<!-- Node8 -->
<g id="node15" class="node"><title>Node8</title>
<a xlink:href="vec3_8h.html" target="_top" xlink:title="base/vec/vec3.h">
<polygon fill="white" stroke="black" points="12.5,-123.5 12.5,-144.5 101.5,-144.5 101.5,-123.5 12.5,-123.5"/>
<text text-anchor="middle" x="57" y="-131.5" font-family="Helvetica,sans-Serif" font-size="10.00">base/vec/vec3.h</text>
</a>
</g>
<!-- Node4&#45;&gt;Node8 -->
<g id="edge14" class="edge"><title>Node4&#45;&gt;Node8</title>
<path fill="none" stroke="midnightblue" d="M270.781,-195.437C263.01,-192.946 254.722,-190.337 247,-188 199.095,-173.498 144.053,-157.979 105.585,-147.317"/>
<polygon fill="midnightblue" stroke="midnightblue" points="106.257,-143.871 95.6859,-144.579 104.391,-150.618 106.257,-143.871"/>
</g>
<!-- Node11 -->
<g id="node23" class="node"><title>Node11</title>
<polygon fill="white" stroke="#bfbfbf" points="304,-123.5 304,-144.5 350,-144.5 350,-123.5 304,-123.5"/>
<text text-anchor="middle" x="327" y="-131.5" font-family="Helvetica,sans-Serif" font-size="10.00">cstdint</text>
</g>
<!-- Node4&#45;&gt;Node11 -->
<g id="edge24" class="edge"><title>Node4&#45;&gt;Node11</title>
<path fill="none" stroke="midnightblue" d="M306.541,-195.376C310.122,-184.635 315.746,-167.761 320.193,-154.422"/>
<polygon fill="midnightblue" stroke="midnightblue" points="323.602,-155.261 323.444,-144.667 316.961,-153.047 323.602,-155.261"/>
</g>
<!-- Node12 -->
<g id="node25" class="node"><title>Node12</title>
<polygon fill="white" stroke="#bfbfbf" points="1403.5,-123.5 1403.5,-144.5 1462.5,-144.5 1462.5,-123.5 1403.5,-123.5"/>
<text text-anchor="middle" x="1433" y="-131.5" font-family="Helvetica,sans-Serif" font-size="10.00">stdexcept</text>
</g>
<!-- Node4&#45;&gt;Node12 -->
<g id="edge26" class="edge"><title>Node4&#45;&gt;Node12</title>
<path fill="none" stroke="midnightblue" d="M350.792,-199.97C384.144,-195.978 429.72,-190.951 470,-188 675.161,-172.969 1195.22,-201.025 1395,-152 1398.44,-151.157 1401.93,-149.988 1405.35,-148.646"/>
<polygon fill="midnightblue" stroke="midnightblue" points="1406.89,-151.79 1414.61,-144.537 1404.05,-145.39 1406.89,-151.79"/>
</g>
<!-- Node13 -->
<g id="node27" class="node"><title>Node13</title>
<polygon fill="white" stroke="#bfbfbf" points="1837.5,-0.5 1837.5,-21.5 1878.5,-21.5 1878.5,-0.5 1837.5,-0.5"/>
<text text-anchor="middle" x="1858" y="-8.5" font-family="Helvetica,sans-Serif" font-size="10.00">string</text>
</g>
<!-- Node4&#45;&gt;Node13 -->
<g id="edge28" class="edge"><title>Node4&#45;&gt;Node13</title>
<path fill="none" stroke="midnightblue" d="M297.686,-195.366C289.282,-176.856 275.746,-138.545 295,-116 401.957,9.24066 497.089,-74.0687 661,-58 1077.09,-17.2094 1183.26,-38.9392 1601,-22 1682.72,-18.6861 1779.05,-14.4837 1827.26,-12.3603"/>
<polygon fill="midnightblue" stroke="midnightblue" points="1827.51,-15.8528 1837.35,-11.9155 1827.2,-8.85965 1827.51,-15.8528"/>
</g>
<!-- Node14 -->
<g id="node29" class="node"><title>Node14</title>
<polygon fill="white" stroke="#bfbfbf" points="444,-123.5 444,-144.5 506,-144.5 506,-123.5 444,-123.5"/>
<text text-anchor="middle" x="475" y="-131.5" font-family="Helvetica,sans-Serif" font-size="10.00">type_traits</text>
</g>
<!-- Node4&#45;&gt;Node14 -->
<g id="edge30" class="edge"><title>Node4&#45;&gt;Node14</title>
<path fill="none" stroke="midnightblue" d="M328.379,-195.376C358.062,-182.951 407.348,-162.319 440.489,-148.446"/>
<polygon fill="midnightblue" stroke="midnightblue" points="441.924,-151.64 449.797,-144.55 439.221,-145.183 441.924,-151.64"/>
</g>
<!-- Node5&#45;&gt;Node6 -->
<g id="edge10" class="edge"><title>Node5&#45;&gt;Node6</title>
<path fill="none" stroke="midnightblue" d="M225.896,-58.4966C249.876,-48.7706 285.601,-34.2807 311.282,-23.8646"/>
<polygon fill="midnightblue" stroke="midnightblue" points="312.636,-27.0924 320.587,-20.0904 310.005,-20.6056 312.636,-27.0924"/>
</g>
<!-- Node7 -->
<g id="node13" class="node"><title>Node7</title>
<polygon fill="white" stroke="#bfbfbf" points="174,-0.5 174,-21.5 226,-21.5 226,-0.5 174,-0.5"/>
<text text-anchor="middle" x="200" y="-8.5" font-family="Helvetica,sans-Serif" font-size="10.00">ostream</text>
</g>
<!-- Node5&#45;&gt;Node7 -->
<g id="edge12" class="edge"><title>Node5&#45;&gt;Node7</title>
<path fill="none" stroke="midnightblue" d="M200,-58.3619C200,-50.9219 200,-40.7427 200,-31.7276"/>
<polygon fill="midnightblue" stroke="midnightblue" points="203.5,-31.5706 200,-21.5707 196.5,-31.5707 203.5,-31.5706"/>
</g>
<!-- Node8&#45;&gt;Node5 -->
<g id="edge16" class="edge"><title>Node8&#45;&gt;Node5</title>
<path fill="none" stroke="midnightblue" d="M80.2937,-123.412C103.977,-112.647 140.868,-95.878 167.438,-83.8009"/>
<polygon fill="midnightblue" stroke="midnightblue" points="169.061,-86.9079 176.716,-79.5835 166.164,-80.5353 169.061,-86.9079"/>
</g>
<!-- Node9 -->
<g id="node18" class="node"><title>Node9</title>
<a xlink:href="vec2_8h.html" target="_top" xlink:title="vec2.h">
<polygon fill="white" stroke="black" points="0,-58.5 0,-79.5 46,-79.5 46,-58.5 0,-58.5"/>
<text text-anchor="middle" x="23" y="-66.5" font-family="Helvetica,sans-Serif" font-size="10.00">vec2.h</text>
</a>
</g>
<!-- Node8&#45;&gt;Node9 -->
<g id="edge18" class="edge"><title>Node8&#45;&gt;Node9</title>
<path fill="none" stroke="midnightblue" d="M51.3856,-123.267C46.484,-113.896 39.2454,-100.057 33.3048,-88.7004"/>
<polygon fill="midnightblue" stroke="midnightblue" points="36.2463,-86.7724 28.5099,-79.5337 30.0436,-90.017 36.2463,-86.7724"/>
</g>
<!-- Node10 -->
<g id="node20" class="node"><title>Node10</title>
<polygon fill="white" stroke="#bfbfbf" points="26,-0.5 26,-21.5 70,-21.5 70,-0.5 26,-0.5"/>
<text text-anchor="middle" x="48" y="-8.5" font-family="Helvetica,sans-Serif" font-size="10.00">cmath</text>
</g>
<!-- Node8&#45;&gt;Node10 -->
<g id="edge22" class="edge"><title>Node8&#45;&gt;Node10</title>
<path fill="none" stroke="midnightblue" d="M57.128,-123.153C57.208,-108.386 57.0203,-81.1422 55,-58 54.2502,-49.4117 52.9462,-40.0033 51.6653,-31.8755"/>
<polygon fill="midnightblue" stroke="midnightblue" points="55.0801,-31.0735 49.9872,-21.783 48.1749,-32.2217 55.0801,-31.0735"/>
</g>
<!-- Node9&#45;&gt;Node10 -->
<g id="edge20" class="edge"><title>Node9&#45;&gt;Node10</title>
<path fill="none" stroke="midnightblue" d="M27.5854,-58.3619C30.898,-50.6766 35.4704,-40.0686 39.4483,-30.8399"/>
<polygon fill="midnightblue" stroke="midnightblue" points="42.6995,-32.1393 43.4437,-21.5707 36.2712,-29.3685 42.6995,-32.1393"/>
</g>
<!-- Node15&#45;&gt;Node6 -->
<g id="edge42" class="edge"><title>Node15&#45;&gt;Node6</title>
<path fill="none" stroke="midnightblue" d="M492.033,-188.808C473.192,-179.73 451.535,-167.281 435,-152 396.212,-116.153 366.345,-60.6628 352.13,-31.1187"/>
<polygon fill="midnightblue" stroke="midnightblue" points="355.184,-29.3892 347.766,-21.8254 348.848,-32.3647 355.184,-29.3892"/>
</g>
<!-- Node15&#45;&gt;Node14 -->
<g id="edge46" class="edge"><title>Node15&#45;&gt;Node14</title>
<path fill="none" stroke="midnightblue" d="M520.018,-188.937C511.111,-178.068 499.566,-163.979 490.398,-152.79"/>
<polygon fill="midnightblue" stroke="midnightblue" points="492.978,-150.417 483.933,-144.901 487.564,-154.854 492.978,-150.417"/>
</g>
<!-- Node16 -->
<g id="node34" class="node"><title>Node16</title>
<a xlink:href="memory_8h.html" target="_top" xlink:title="base/std_ext/memory.h">
<polygon fill="white" stroke="black" points="599.5,-123.5 599.5,-144.5 718.5,-144.5 718.5,-123.5 599.5,-123.5"/>
<text text-anchor="middle" x="659" y="-131.5" font-family="Helvetica,sans-Serif" font-size="10.00">base/std_ext/memory.h</text>
</a>
</g>
<!-- Node15&#45;&gt;Node16 -->
<g id="edge36" class="edge"><title>Node15&#45;&gt;Node16</title>
<path fill="none" stroke="midnightblue" d="M563.623,-188.937C584.284,-177.037 611.645,-161.277 631.761,-149.689"/>
<polygon fill="midnightblue" stroke="midnightblue" points="633.526,-152.712 640.444,-144.688 630.032,-146.646 633.526,-152.712"/>
</g>
<!-- Node15&#45;&gt;Node17 -->
<g id="edge44" class="edge"><title>Node15&#45;&gt;Node17</title>
<path fill="none" stroke="midnightblue" d="M541.087,-188.97C550.097,-169.128 567.369,-136.458 591,-116 611.034,-98.6559 638.506,-86.6651 660.325,-79.1375"/>
<polygon fill="midnightblue" stroke="midnightblue" points="661.497,-82.4365 669.905,-75.9898 659.312,-75.7863 661.497,-82.4365"/>
</g>
<!-- Node16&#45;&gt;Node17 -->
<g id="edge38" class="edge"><title>Node16&#45;&gt;Node17</title>
<path fill="none" stroke="midnightblue" d="M665.11,-123.267C670.498,-113.801 678.481,-99.7773 684.981,-88.3571"/>
<polygon fill="midnightblue" stroke="midnightblue" points="688.099,-89.9558 690.004,-79.5337 682.015,-86.4929 688.099,-89.9558"/>
</g>
<!-- Node16&#45;&gt;Node18 -->
<g id="edge40" class="edge"><title>Node16&#45;&gt;Node18</title>
<path fill="none" stroke="midnightblue" d="M705.107,-123.484C766.2,-109.551 871.794,-85.4681 919.43,-74.6036"/>
<polygon fill="midnightblue" stroke="midnightblue" points="920.487,-77.9525 929.459,-72.3164 918.931,-71.1277 920.487,-77.9525"/>
</g>
<!-- Node19&#45;&gt;Node6 -->
<g id="edge50" class="edge"><title>Node19&#45;&gt;Node6</title>
<path fill="none" stroke="midnightblue" d="M810.384,-116.806C792.942,-98.8317 762.936,-71.4139 731,-58 666.938,-31.0927 457.046,-17.1567 375.659,-12.6589"/>
<polygon fill="midnightblue" stroke="midnightblue" points="375.673,-9.15463 365.499,-12.1098 375.295,-16.1444 375.673,-9.15463"/>
</g>
<!-- Node19&#45;&gt;Node17 -->
<g id="edge52" class="edge"><title>Node19&#45;&gt;Node17</title>
<path fill="none" stroke="midnightblue" d="M791.844,-116.922C771.544,-106.772 746.019,-94.0097 726.416,-84.2079"/>
<polygon fill="midnightblue" stroke="midnightblue" points="727.826,-81.0001 717.317,-79.6584 724.696,-87.2611 727.826,-81.0001"/>
</g>
<!-- Node19&#45;&gt;Node20 -->
<g id="edge54" class="edge"><title>Node19&#45;&gt;Node20</title>
<path fill="none" stroke="midnightblue" d="M878.547,-126.88C905.3,-123.371 938.354,-119.215 968,-116 1145.02,-96.8014 1190.34,-102.23 1367,-80 1376.14,-78.8501 1385.93,-77.3965 1395.16,-75.926"/>
<polygon fill="midnightblue" stroke="midnightblue" points="1395.97,-79.3403 1405.27,-74.2739 1394.84,-72.4319 1395.97,-79.3403"/>
</g>
<!-- Node21 -->
<g id="node49" class="node"><title>Node21</title>
<polygon fill="white" stroke="#bfbfbf" points="2036,-0.5 2036,-21.5 2092,-21.5 2092,-0.5 2036,-0.5"/>
<text text-anchor="middle" x="2064" y="-8.5" font-family="Helvetica,sans-Serif" font-size="10.00">algorithm</text>
</g>
<!-- Node19&#45;&gt;Node21 -->
<g id="edge56" class="edge"><title>Node19&#45;&gt;Node21</title>
<path fill="none" stroke="midnightblue" d="M840.784,-116.956C857.948,-98.5478 888.137,-70.2198 921,-58 1021.67,-20.5658 1779.72,-27.3315 1887,-22 1934.86,-19.6214 1989.95,-16.0693 2025.78,-13.6497"/>
<polygon fill="midnightblue" stroke="midnightblue" points="2026.07,-17.1385 2035.81,-12.9684 2025.59,-10.1546 2026.07,-17.1385"/>
</g>
<!-- Node23&#45;&gt;Node13 -->
<g id="edge152" class="edge"><title>Node23&#45;&gt;Node13</title>
<path fill="none" stroke="midnightblue" d="M1174.65,-276.152C1398.91,-268.479 2193.16,-235.546 2265,-152 2314.73,-94.1693 2201.87,-64.8351 2185,-58 2131.41,-36.2809 1959.35,-19.6163 1888.71,-13.5191"/>
<polygon fill="midnightblue" stroke="midnightblue" points="1888.93,-10.0247 1878.67,-12.6644 1888.33,-16.9995 1888.93,-10.0247"/>
</g>
<!-- Node23&#45;&gt;Node17 -->
<g id="edge156" class="edge"><title>Node23&#45;&gt;Node17</title>
<path fill="none" stroke="midnightblue" d="M1057.21,-266.908C983.677,-250.902 856.349,-215.974 765,-152 740.577,-134.896 719.858,-106.989 707.673,-88.3159"/>
<polygon fill="midnightblue" stroke="midnightblue" points="710.554,-86.3217 702.252,-79.7388 704.637,-90.0618 710.554,-86.3217"/>
</g>
<!-- Node23&#45;&gt;Node18 -->
<g id="edge154" class="edge"><title>Node23&#45;&gt;Node18</title>
<path fill="none" stroke="midnightblue" d="M1098.82,-260.739C1075.61,-237.074 1033.4,-192.831 1001,-152 984.314,-130.973 967.136,-105.306 956.061,-88.1329"/>
<polygon fill="midnightblue" stroke="midnightblue" points="958.911,-86.0923 950.578,-79.5492 953.011,-89.8607 958.911,-86.0923"/>
</g>
<!-- Node23&#45;&gt;Node24 -->
<g id="edge68" class="edge"><title>Node23&#45;&gt;Node24</title>
<path fill="none" stroke="midnightblue" d="M1174.86,-276.264C1398.32,-269.543 2187.23,-244.58 2298,-224 2303.79,-222.925 2309.81,-221.375 2315.64,-219.63"/>
<polygon fill="midnightblue" stroke="midnightblue" points="2316.74,-222.95 2325.19,-216.558 2314.6,-216.286 2316.74,-222.95"/>
</g>
<!-- Node28 -->
<g id="node69" class="node"><title>Node28</title>
<a xlink:href="_wrap_t_file_8h.html" target="_top" xlink:title="base/WrapTFile.h">
<polygon fill="white" stroke="black" points="1687,-195.5 1687,-216.5 1781,-216.5 1781,-195.5 1687,-195.5"/>
<text text-anchor="middle" x="1734" y="-203.5" font-family="Helvetica,sans-Serif" font-size="10.00">base/WrapTFile.h</text>
</a>
</g>
<!-- Node23&#45;&gt;Node28 -->
<g id="edge82" class="edge"><title>Node23&#45;&gt;Node28</title>
<path fill="none" stroke="midnightblue" d="M1174.7,-271.162C1293.15,-257.362 1559.45,-226.336 1676.71,-212.674"/>
<polygon fill="midnightblue" stroke="midnightblue" points="1677.39,-216.119 1686.92,-211.485 1676.58,-209.166 1677.39,-216.119"/>
</g>
<!-- Node39 -->
<g id="node101" class="node"><title>Node39</title>
<a xlink:href="_t_i_d_8h.html" target="_top" xlink:title="tree/TID.h">
<polygon fill="white" stroke="black" points="1085.5,-195.5 1085.5,-216.5 1146.5,-216.5 1146.5,-195.5 1085.5,-195.5"/>
<text text-anchor="middle" x="1116" y="-203.5" font-family="Helvetica,sans-Serif" font-size="10.00">tree/TID.h</text>
</a>
</g>
<!-- Node23&#45;&gt;Node39 -->
<g id="edge124" class="edge"><title>Node23&#45;&gt;Node39</title>
<path fill="none" stroke="midnightblue" d="M1116,-260.937C1116,-250.814 1116,-237.898 1116,-227.133"/>
<polygon fill="midnightblue" stroke="midnightblue" points="1119.5,-226.901 1116,-216.901 1112.5,-226.901 1119.5,-226.901"/>
</g>
<!-- Node24&#45;&gt;Node5 -->
<g id="edge70" class="edge"><title>Node24&#45;&gt;Node5</title>
<path fill="none" stroke="midnightblue" d="M2311.64,-197.954C2269.04,-188.912 2200.26,-172.745 2143,-152 2107.86,-139.268 2103.36,-124.658 2067,-116 2055.66,-113.301 557.381,-77.5068 253.422,-70.2703"/>
<polygon fill="midnightblue" stroke="midnightblue" points="253.198,-66.7641 243.118,-70.025 253.032,-73.7621 253.198,-66.7641"/>
</g>
<!-- Node24&#45;&gt;Node12 -->
<g id="edge76" class="edge"><title>Node24&#45;&gt;Node12</title>
<path fill="none" stroke="midnightblue" d="M2311.61,-203.836C2197.41,-197.569 1862.43,-178.178 1585,-152 1546.9,-148.405 1503.56,-143.158 1472.94,-139.256"/>
<polygon fill="midnightblue" stroke="midnightblue" points="1473.03,-135.739 1462.66,-137.936 1472.14,-142.682 1473.03,-135.739"/>
</g>
<!-- Node24&#45;&gt;Node21 -->
<g id="edge74" class="edge"><title>Node24&#45;&gt;Node21</title>
<path fill="none" stroke="midnightblue" d="M2377.19,-195.476C2394.67,-186.675 2416.61,-172.278 2427,-152 2434.29,-137.76 2435.69,-129.435 2427,-116 2391.21,-60.6743 2188.09,-27.525 2102.27,-15.8136"/>
<polygon fill="midnightblue" stroke="midnightblue" points="2102.54,-12.3186 2092.17,-14.46 2101.61,-19.2566 2102.54,-12.3186"/>
</g>
<!-- Node25 -->
<g id="node61" class="node"><title>Node25</title>
<a xlink:href="types_8h.html" target="_top" xlink:title="types.h">
<polygon fill="white" stroke="black" points="2473.5,-123.5 2473.5,-144.5 2522.5,-144.5 2522.5,-123.5 2473.5,-123.5"/>
<text text-anchor="middle" x="2498" y="-131.5" font-family="Helvetica,sans-Serif" font-size="10.00">types.h</text>
</a>
</g>
<!-- Node24&#45;&gt;Node25 -->
<g id="edge72" class="edge"><title>Node24&#45;&gt;Node25</title>
<path fill="none" stroke="midnightblue" d="M2373.54,-195.376C2398.34,-183.146 2439.26,-162.965 2467.37,-149.105"/>
<polygon fill="midnightblue" stroke="midnightblue" points="2468.95,-152.229 2476.37,-144.667 2465.85,-145.951 2468.95,-152.229"/>
</g>
<!-- Node26 -->
<g id="node65" class="node"><title>Node26</title>
<polygon fill="white" stroke="#bfbfbf" points="2312,-123.5 2312,-144.5 2352,-144.5 2352,-123.5 2312,-123.5"/>
<text text-anchor="middle" x="2332" y="-131.5" font-family="Helvetica,sans-Serif" font-size="10.00">limits</text>
</g>
<!-- Node24&#45;&gt;Node26 -->
<g id="edge78" class="edge"><title>Node24&#45;&gt;Node26</title>
<path fill="none" stroke="midnightblue" d="M2349.05,-195.376C2346.07,-184.635 2341.38,-167.761 2337.67,-154.422"/>
<polygon fill="midnightblue" stroke="midnightblue" points="2341.01,-153.366 2334.96,-144.667 2334.27,-155.239 2341.01,-153.366"/>
</g>
<!-- Node27 -->
<g id="node67" class="node"><title>Node27</title>
<polygon fill="white" stroke="#bfbfbf" points="2369.5,-123.5 2369.5,-144.5 2418.5,-144.5 2418.5,-123.5 2369.5,-123.5"/>
<text text-anchor="middle" x="2394" y="-131.5" font-family="Helvetica,sans-Serif" font-size="10.00">istream</text>
</g>
<!-- Node24&#45;&gt;Node27 -->
<g id="edge80" class="edge"><title>Node24&#45;&gt;Node27</title>
<path fill="none" stroke="midnightblue" d="M2358.2,-195.376C2364.59,-184.422 2374.7,-167.09 2382.55,-153.634"/>
<polygon fill="midnightblue" stroke="midnightblue" points="2385.76,-155.069 2387.78,-144.667 2379.72,-151.542 2385.76,-155.069"/>
</g>
<!-- Node28&#45;&gt;Node12 -->
<g id="edge120" class="edge"><title>Node28&#45;&gt;Node12</title>
<path fill="none" stroke="midnightblue" d="M1686.71,-198.877C1634.44,-190.367 1548.1,-174.414 1476,-152 1472.47,-150.902 1468.83,-149.623 1465.23,-148.262"/>
<polygon fill="midnightblue" stroke="midnightblue" points="1466.49,-144.998 1455.91,-144.538 1463.9,-151.498 1466.49,-144.998"/>
</g>
<!-- Node28&#45;&gt;Node13 -->
<g id="edge116" class="edge"><title>Node28&#45;&gt;Node13</title>
<path fill="none" stroke="midnightblue" d="M1781.25,-201.709C1868.72,-193.285 2048.69,-173.522 2067,-152 2124.59,-84.3243 1959.4,-35.3119 1888.55,-17.9227"/>
<polygon fill="midnightblue" stroke="midnightblue" points="1889.36,-14.5179 1878.82,-15.5881 1887.73,-21.3247 1889.36,-14.5179"/>
</g>
<!-- Node28&#45;&gt;Node17 -->
<g id="edge114" class="edge"><title>Node28&#45;&gt;Node17</title>
<path fill="none" stroke="midnightblue" d="M1686.94,-203.085C1638.21,-198.281 1561.34,-185.575 1504,-152 1485.27,-141.032 1490.59,-125.337 1471,-116 1454.1,-107.948 882.841,-78.4736 732.144,-70.8237"/>
<polygon fill="midnightblue" stroke="midnightblue" points="732.198,-67.3221 722.034,-70.3113 731.844,-74.3131 732.198,-67.3221"/>
</g>
<!-- Node28&#45;&gt;Node18 -->
<g id="edge118" class="edge"><title>Node28&#45;&gt;Node18</title>
<path fill="none" stroke="midnightblue" d="M1691.42,-195.439C1656.4,-186.059 1605.91,-170.919 1564,-152 1535.66,-139.206 1533.6,-125.548 1504,-116 1402.18,-83.1513 1063.81,-72.0905 968.929,-69.5951"/>
<polygon fill="midnightblue" stroke="midnightblue" points="968.919,-66.0939 958.833,-69.3382 968.741,-73.0916 968.919,-66.0939"/>
</g>
<!-- Node28&#45;&gt;Node20 -->
<g id="edge122" class="edge"><title>Node28&#45;&gt;Node20</title>
<path fill="none" stroke="midnightblue" d="M1781.02,-202.927C1861.85,-196.012 2013.47,-174.937 1959,-116 1924.5,-78.6743 1553.46,-86.0631 1503,-80 1493.86,-78.9013 1484.06,-77.468 1474.83,-76.001"/>
<polygon fill="midnightblue" stroke="midnightblue" points="1475.15,-72.507 1464.72,-74.3464 1474.02,-79.4152 1475.15,-72.507"/>
</g>
<!-- Node29 -->
<g id="node71" class="node"><title>Node29</title>
<a xlink:href="string_8h.html" target="_top" xlink:title="base/std_ext/string.h">
<polygon fill="white" stroke="black" points="1512,-58.5 1512,-79.5 1620,-79.5 1620,-58.5 1512,-58.5"/>
<text text-anchor="middle" x="1566" y="-66.5" font-family="Helvetica,sans-Serif" font-size="10.00">base/std_ext/string.h</text>
</a>
</g>
<!-- Node28&#45;&gt;Node29 -->
<g id="edge84" class="edge"><title>Node28&#45;&gt;Node29</title>
<path fill="none" stroke="midnightblue" d="M1686.72,-200.759C1653.59,-194.587 1610.79,-181.165 1585,-152 1569.85,-134.862 1566.07,-108.113 1565.45,-89.6354"/>
<polygon fill="midnightblue" stroke="midnightblue" points="1568.95,-89.5843 1565.4,-79.6034 1561.95,-89.6223 1568.95,-89.5843"/>
</g>
<!-- Node31 -->
<g id="node78" class="node"><title>Node31</title>
<a xlink:href="misc_8h.html" target="_top" xlink:title="base/std_ext/misc.h">
<polygon fill="white" stroke="black" points="2151.5,-123.5 2151.5,-144.5 2256.5,-144.5 2256.5,-123.5 2151.5,-123.5"/>
<text text-anchor="middle" x="2204" y="-131.5" font-family="Helvetica,sans-Serif" font-size="10.00">base/std_ext/misc.h</text>
</a>
</g>
<!-- Node28&#45;&gt;Node31 -->
<g id="edge94" class="edge"><title>Node28&#45;&gt;Node31</title>
<path fill="none" stroke="midnightblue" d="M1781.15,-199.427C1850.9,-189.614 1985.69,-170.323 2100,-152 2113.34,-149.862 2127.62,-147.463 2141.19,-145.131"/>
<polygon fill="midnightblue" stroke="midnightblue" points="2142.14,-148.518 2151.4,-143.366 2140.95,-141.62 2142.14,-148.518"/>
</g>
<!-- Node33 -->
<g id="node84" class="node"><title>Node33</title>
<polygon fill="white" stroke="#bfbfbf" points="1815.5,-123.5 1815.5,-144.5 1862.5,-144.5 1862.5,-123.5 1815.5,-123.5"/>
<text text-anchor="middle" x="1839" y="-131.5" font-family="Helvetica,sans-Serif" font-size="10.00">TFile.h</text>
</g>
<!-- Node28&#45;&gt;Node33 -->
<g id="edge102" class="edge"><title>Node28&#45;&gt;Node33</title>
<path fill="none" stroke="midnightblue" d="M1749.49,-195.376C1766.79,-183.518 1794.98,-164.186 1815.1,-150.388"/>
<polygon fill="midnightblue" stroke="midnightblue" points="1817.18,-153.209 1823.44,-144.667 1813.22,-147.436 1817.18,-153.209"/>
</g>
<!-- Node34 -->
<g id="node86" class="node"><title>Node34</title>
<polygon fill="white" stroke="#bfbfbf" points="1879.5,-123.5 1879.5,-144.5 1950.5,-144.5 1950.5,-123.5 1879.5,-123.5"/>
<text text-anchor="middle" x="1915" y="-131.5" font-family="Helvetica,sans-Serif" font-size="10.00">TDirectory.h</text>
</g>
<!-- Node28&#45;&gt;Node34 -->
<g id="edge104" class="edge"><title>Node28&#45;&gt;Node34</title>
<path fill="none" stroke="midnightblue" d="M1761.07,-195.446C1788.74,-184.635 1832.92,-167.292 1871,-152 1873.89,-150.838 1876.89,-149.627 1879.9,-148.406"/>
<polygon fill="midnightblue" stroke="midnightblue" points="1881.49,-151.539 1889.43,-144.526 1878.85,-145.056 1881.49,-151.539"/>
</g>
<!-- Node35 -->
<g id="node88" class="node"><title>Node35</title>
<polygon fill="white" stroke="#bfbfbf" points="2006,-123.5 2006,-144.5 2058,-144.5 2058,-123.5 2006,-123.5"/>
<text text-anchor="middle" x="2032" y="-131.5" font-family="Helvetica,sans-Serif" font-size="10.00">TError.h</text>
</g>
<!-- Node28&#45;&gt;Node35 -->
<g id="edge106" class="edge"><title>Node28&#45;&gt;Node35</title>
<path fill="none" stroke="midnightblue" d="M1781.41,-199.238C1833.77,-191.043 1920.2,-175.364 1992,-152 1995.11,-150.987 1998.31,-149.806 2001.47,-148.543"/>
<polygon fill="midnightblue" stroke="midnightblue" points="2002.92,-151.73 2010.75,-144.59 2000.18,-145.291 2002.92,-151.73"/>
</g>
<!-- Node36 -->
<g id="node90" class="node"><title>Node36</title>
<polygon fill="white" stroke="#bfbfbf" points="1593.5,-123.5 1593.5,-144.5 1640.5,-144.5 1640.5,-123.5 1593.5,-123.5"/>
<text text-anchor="middle" x="1617" y="-131.5" font-family="Helvetica,sans-Serif" font-size="10.00">TList.h</text>
</g>
<!-- Node28&#45;&gt;Node36 -->
<g id="edge108" class="edge"><title>Node28&#45;&gt;Node36</title>
<path fill="none" stroke="midnightblue" d="M1716.74,-195.376C1697.29,-183.412 1665.49,-163.839 1643.03,-150.018"/>
<polygon fill="midnightblue" stroke="midnightblue" points="1644.69,-146.928 1634.33,-144.667 1641.02,-152.889 1644.69,-146.928"/>
</g>
<!-- Node37 -->
<g id="node92" class="node"><title>Node37</title>
<polygon fill="white" stroke="#bfbfbf" points="1658,-123.5 1658,-144.5 1732,-144.5 1732,-123.5 1658,-123.5"/>
<text text-anchor="middle" x="1695" y="-131.5" font-family="Helvetica,sans-Serif" font-size="10.00">TCollection.h</text>
</g>
<!-- Node28&#45;&gt;Node37 -->
<g id="edge110" class="edge"><title>Node28&#45;&gt;Node37</title>
<path fill="none" stroke="midnightblue" d="M1728.25,-195.376C1722.31,-184.422 1712.92,-167.09 1705.64,-153.634"/>
<polygon fill="midnightblue" stroke="midnightblue" points="1708.62,-151.793 1700.78,-144.667 1702.46,-155.127 1708.62,-151.793"/>
</g>
<!-- Node38 -->
<g id="node94" class="node"><title>Node38</title>
<polygon fill="white" stroke="#bfbfbf" points="1750,-123.5 1750,-144.5 1798,-144.5 1798,-123.5 1750,-123.5"/>
<text text-anchor="middle" x="1774" y="-131.5" font-family="Helvetica,sans-Serif" font-size="10.00">TKey.h</text>
</g>
<!-- Node28&#45;&gt;Node38 -->
<g id="edge112" class="edge"><title>Node28&#45;&gt;Node38</title>
<path fill="none" stroke="midnightblue" d="M1739.9,-195.376C1745.99,-184.422 1755.62,-167.09 1763.09,-153.634"/>
<polygon fill="midnightblue" stroke="midnightblue" points="1766.28,-155.109 1768.07,-144.667 1760.16,-151.709 1766.28,-155.109"/>
</g>
<!-- Node29&#45;&gt;Node6 -->
<g id="edge92" class="edge"><title>Node29&#45;&gt;Node6</title>
<path fill="none" stroke="midnightblue" d="M1511.97,-61.9047C1499.21,-60.4244 1485.64,-59.009 1473,-58 1039.46,-23.395 510.189,-13.4872 375.413,-11.4452"/>
<polygon fill="midnightblue" stroke="midnightblue" points="375.391,-7.94465 365.341,-11.2963 375.288,-14.9439 375.391,-7.94465"/>
</g>
<!-- Node29&#45;&gt;Node13 -->
<g id="edge86" class="edge"><title>Node29&#45;&gt;Node13</title>
<path fill="none" stroke="midnightblue" d="M1618.88,-58.4966C1679.82,-46.3923 1777.9,-26.9093 1827.37,-17.0834"/>
<polygon fill="midnightblue" stroke="midnightblue" points="1828.32,-20.4644 1837.44,-15.0831 1826.95,-13.5985 1828.32,-20.4644"/>
</g>
<!-- Node29&#45;&gt;Node21 -->
<g id="edge90" class="edge"><title>Node29&#45;&gt;Node21</title>
<path fill="none" stroke="midnightblue" d="M1620.24,-62.6826C1721.74,-50.8613 1938.03,-25.6712 2025.8,-15.4489"/>
<polygon fill="midnightblue" stroke="midnightblue" points="2026.32,-18.9119 2035.85,-14.2784 2025.51,-11.9589 2026.32,-18.9119"/>
</g>
<!-- Node30 -->
<g id="node74" class="node"><title>Node30</title>
<polygon fill="white" stroke="#bfbfbf" points="1540,-0.5 1540,-21.5 1592,-21.5 1592,-0.5 1540,-0.5"/>
<text text-anchor="middle" x="1566" y="-8.5" font-family="Helvetica,sans-Serif" font-size="10.00">sstream</text>
</g>
<!-- Node29&#45;&gt;Node30 -->
<g id="edge88" class="edge"><title>Node29&#45;&gt;Node30</title>
<path fill="none" stroke="midnightblue" d="M1566,-58.3619C1566,-50.9219 1566,-40.7427 1566,-31.7276"/>
<polygon fill="midnightblue" stroke="midnightblue" points="1569.5,-31.5706 1566,-21.5707 1562.5,-31.5707 1569.5,-31.5706"/>
</g>
<!-- Node31&#45;&gt;Node20 -->
<g id="edge98" class="edge"><title>Node31&#45;&gt;Node20</title>
<path fill="none" stroke="midnightblue" d="M2170.72,-123.466C2160.34,-120.575 2148.78,-117.756 2138,-116 1859,-70.5622 1784.01,-110.611 1503,-80 1493.84,-79.0026 1484.04,-77.6098 1474.81,-76.1497"/>
<polygon fill="midnightblue" stroke="midnightblue" points="1475.13,-72.6558 1464.7,-74.4901 1474,-79.5634 1475.13,-72.6558"/>
</g>
<!-- Node31&#45;&gt;Node21 -->
<g id="edge96" class="edge"><title>Node31&#45;&gt;Node21</title>
<path fill="none" stroke="midnightblue" d="M2204.26,-123.274C2204.07,-107.146 2201.37,-76.5662 2185,-58 2163.85,-34.0183 2128.98,-22.1824 2102.09,-16.3957"/>
<polygon fill="midnightblue" stroke="midnightblue" points="2102.71,-12.9501 2092.22,-14.4613 2101.36,-19.8194 2102.71,-12.9501"/>
</g>
<!-- Node32 -->
<g id="node82" class="node"><title>Node32</title>
<polygon fill="white" stroke="#bfbfbf" points="2123.5,-58.5 2123.5,-79.5 2176.5,-79.5 2176.5,-58.5 2123.5,-58.5"/>
<text text-anchor="middle" x="2150" y="-66.5" font-family="Helvetica,sans-Serif" font-size="10.00">cxxabi.h</text>
</g>
<!-- Node31&#45;&gt;Node32 -->
<g id="edge100" class="edge"><title>Node31&#45;&gt;Node32</title>
<path fill="none" stroke="midnightblue" d="M2195.08,-123.267C2186.98,-113.517 2174.87,-98.9317 2165.23,-87.3365"/>
<polygon fill="midnightblue" stroke="midnightblue" points="2167.83,-84.989 2158.75,-79.5337 2162.45,-89.4622 2167.83,-84.989"/>
</g>
<!-- Node39&#45;&gt;Node5 -->
<g id="edge128" class="edge"><title>Node39&#45;&gt;Node5</title>
<path fill="none" stroke="midnightblue" d="M1085.18,-204.205C987.432,-198.297 685.204,-178.319 591,-152 555.003,-141.943 550.758,-126.875 515,-116 425.552,-88.796 316.844,-77.0243 253.34,-72.1668"/>
<polygon fill="midnightblue" stroke="midnightblue" points="253.396,-68.6615 243.166,-71.4184 252.882,-75.6427 253.396,-68.6615"/>
</g>
<!-- Node39&#45;&gt;Node11 -->
<g id="edge142" class="edge"><title>Node39&#45;&gt;Node11</title>
<path fill="none" stroke="midnightblue" d="M1085.36,-204.512C989.24,-199.643 685.148,-182.706 435,-152 409.706,-148.895 381.286,-144.106 359.951,-140.248"/>
<polygon fill="midnightblue" stroke="midnightblue" points="360.558,-136.801 350.091,-138.44 359.296,-143.686 360.558,-136.801"/>
</g>
<!-- Node39&#45;&gt;Node12 -->
<g id="edge144" class="edge"><title>Node39&#45;&gt;Node12</title>
<path fill="none" stroke="midnightblue" d="M1146.77,-202.609C1198.87,-196.306 1307.33,-180.739 1395,-152 1397.8,-151.083 1400.65,-150.009 1403.49,-148.849"/>
<polygon fill="midnightblue" stroke="midnightblue" points="1405.15,-151.938 1412.88,-144.684 1402.32,-145.539 1405.15,-151.938"/>
</g>
<!-- Node39&#45;&gt;Node14 -->
<g id="edge138" class="edge"><title>Node39&#45;&gt;Node14</title>
<path fill="none" stroke="midnightblue" d="M1085.3,-204.295C1000.79,-199.331 757.773,-183.219 558,-152 544.302,-149.859 529.468,-146.863 516.182,-143.928"/>
<polygon fill="midnightblue" stroke="midnightblue" points="516.893,-140.5 506.368,-141.711 515.351,-147.328 516.893,-140.5"/>
</g>
<!-- Node39&#45;&gt;Node18 -->
<g id="edge146" class="edge"><title>Node39&#45;&gt;Node18</title>
<path fill="none" stroke="midnightblue" d="M1113.15,-195.27C1107.68,-176.614 1093.95,-138.082 1069,-116 1040.19,-90.4948 996.195,-78.3057 968.816,-72.8868"/>
<polygon fill="midnightblue" stroke="midnightblue" points="969.331,-69.4231 958.865,-71.0715 968.075,-76.3095 969.331,-69.4231"/>
</g>
<!-- Node40 -->
<g id="node103" class="node"><title>Node40</title>
<polygon fill="white" stroke="#bfbfbf" points="1116,-123.5 1116,-144.5 1172,-144.5 1172,-123.5 1116,-123.5"/>
<text text-anchor="middle" x="1144" y="-131.5" font-family="Helvetica,sans-Serif" font-size="10.00">Rtypes.h</text>
</g>
<!-- Node39&#45;&gt;Node40 -->
<g id="edge126" class="edge"><title>Node39&#45;&gt;Node40</title>
<path fill="none" stroke="midnightblue" d="M1120.13,-195.376C1124.35,-184.528 1131,-167.426 1136.21,-154.027"/>
<polygon fill="midnightblue" stroke="midnightblue" points="1139.49,-155.256 1139.85,-144.667 1132.97,-152.719 1139.49,-155.256"/>
</g>
<!-- Node41 -->
<g id="node106" class="node"><title>Node41</title>
<a xlink:href="time_8h.html" target="_top" xlink:title="base/std_ext/time.h">
<polygon fill="white" stroke="black" points="1283.5,-123.5 1283.5,-144.5 1386.5,-144.5 1386.5,-123.5 1283.5,-123.5"/>
<text text-anchor="middle" x="1335" y="-131.5" font-family="Helvetica,sans-Serif" font-size="10.00">base/std_ext/time.h</text>
</a>
</g>
<!-- Node39&#45;&gt;Node41 -->
<g id="edge130" class="edge"><title>Node39&#45;&gt;Node41</title>
<path fill="none" stroke="midnightblue" d="M1146.91,-195.837C1185.2,-183.25 1250.57,-161.757 1293.28,-147.717"/>
<polygon fill="midnightblue" stroke="midnightblue" points="1294.41,-151.028 1302.82,-144.58 1292.23,-144.378 1294.41,-151.028"/>
</g>
<!-- Node43 -->
<g id="node111" class="node"><title>Node43</title>
<polygon fill="white" stroke="#bfbfbf" points="1244.5,-58.5 1244.5,-79.5 1285.5,-79.5 1285.5,-58.5 1244.5,-58.5"/>
<text text-anchor="middle" x="1265" y="-66.5" font-family="Helvetica,sans-Serif" font-size="10.00">ctime</text>
</g>
<!-- Node39&#45;&gt;Node43 -->
<g id="edge150" class="edge"><title>Node39&#45;&gt;Node43</title>
<path fill="none" stroke="midnightblue" d="M1146.7,-199.663C1173.96,-192.515 1213.08,-178.289 1237,-152 1252.84,-134.592 1259.76,-107.899 1262.76,-89.5084"/>
<polygon fill="midnightblue" stroke="midnightblue" points="1266.23,-89.915 1264.13,-79.5304 1259.3,-88.9581 1266.23,-89.915"/>
</g>
<!-- Node44 -->
<g id="node114" class="node"><title>Node44</title>
<polygon fill="white" stroke="#bfbfbf" points="1190,-123.5 1190,-144.5 1228,-144.5 1228,-123.5 1190,-123.5"/>
<text text-anchor="middle" x="1209" y="-131.5" font-family="Helvetica,sans-Serif" font-size="10.00">tuple</text>
</g>
<!-- Node39&#45;&gt;Node44 -->
<g id="edge140" class="edge"><title>Node39&#45;&gt;Node44</title>
<path fill="none" stroke="midnightblue" d="M1129.72,-195.376C1144.83,-183.678 1169.34,-164.705 1187.11,-150.948"/>
<polygon fill="midnightblue" stroke="midnightblue" points="1189.46,-153.557 1195.22,-144.667 1185.17,-148.022 1189.46,-153.557"/>
</g>
<!-- Node45 -->
<g id="node119" class="node"><title>Node45</title>
<polygon fill="white" stroke="#bfbfbf" points="1010,-123.5 1010,-144.5 1060,-144.5 1060,-123.5 1010,-123.5"/>
<text text-anchor="middle" x="1035" y="-131.5" font-family="Helvetica,sans-Serif" font-size="10.00">iomanip</text>
</g>
<!-- Node39&#45;&gt;Node45 -->
<g id="edge148" class="edge"><title>Node39&#45;&gt;Node45</title>
<path fill="none" stroke="midnightblue" d="M1104.05,-195.376C1091.01,-183.784 1069.93,-165.05 1054.49,-151.324"/>
<polygon fill="midnightblue" stroke="midnightblue" points="1056.8,-148.695 1047,-144.667 1052.15,-153.927 1056.8,-148.695"/>
</g>
<!-- Node41&#45;&gt;Node29 -->
<g id="edge132" class="edge"><title>Node41&#45;&gt;Node29</title>
<path fill="none" stroke="midnightblue" d="M1369.54,-123.488C1377.87,-120.996 1386.74,-118.373 1395,-116 1435.94,-104.235 1482.57,-91.4603 1516.78,-82.2026"/>
<polygon fill="midnightblue" stroke="midnightblue" points="1517.79,-85.555 1526.53,-79.5682 1515.97,-78.7973 1517.79,-85.555"/>
</g>
<!-- Node42 -->
<g id="node109" class="node"><title>Node42</title>
<polygon fill="white" stroke="#bfbfbf" points="1312,-58.5 1312,-79.5 1358,-79.5 1358,-58.5 1312,-58.5"/>
<text text-anchor="middle" x="1335" y="-66.5" font-family="Helvetica,sans-Serif" font-size="10.00">cstring</text>
</g>
<!-- Node41&#45;&gt;Node42 -->
<g id="edge134" class="edge"><title>Node41&#45;&gt;Node42</title>
<path fill="none" stroke="midnightblue" d="M1335,-123.267C1335,-114.18 1335,-100.892 1335,-89.7395"/>
<polygon fill="midnightblue" stroke="midnightblue" points="1338.5,-89.5337 1335,-79.5337 1331.5,-89.5337 1338.5,-89.5337"/>
</g>
<!-- Node41&#45;&gt;Node43 -->
<g id="edge136" class="edge"><title>Node41&#45;&gt;Node43</title>
<path fill="none" stroke="midnightblue" d="M1323.44,-123.267C1312.74,-113.328 1296.62,-98.3635 1284.02,-86.6645"/>
<polygon fill="midnightblue" stroke="midnightblue" points="1286.05,-83.7735 1276.34,-79.5337 1281.29,-88.903 1286.05,-83.7735"/>
</g>
</g>
</svg>
