<?xml version="1.0" encoding="UTF-8" standalone="no"?>
<!DOCTYPE svg PUBLIC "-//W3C//DTD SVG 1.1//EN"
 "http://www.w3.org/Graphics/SVG/1.1/DTD/svg11.dtd">
<!-- Generated by graphviz version 2.26.3 (20100126.1600)
 -->
<!-- Title: src/calibration/modules/PID_Energy.h Pages: 1 -->
<svg width="398pt" height="116pt"
 viewBox="0.00 0.00 398.00 116.00" xmlns="http://www.w3.org/2000/svg" xmlns:xlink="http://www.w3.org/1999/xlink">
<g id="graph1" class="graph" transform="scale(1 1) rotate(0) translate(4 112)">
<title>src/calibration/modules/PID_Energy.h</title>
<polygon fill="white" stroke="white" points="-4,5 -4,-112 395,-112 395,5 -4,5"/>
<!-- Node1 -->
<g id="node1" class="node"><title>Node1</title>
<polygon fill="#bfbfbf" stroke="black" points="130.5,-73 130.5,-107 247.5,-107 247.5,-73 130.5,-73"/>
<text text-anchor="start" x="138.5" y="-94" font-family="Helvetica,sans-Serif" font-size="10.00">src/calibration/modules</text>
<text text-anchor="middle" x="189" y="-81" font-family="Helvetica,sans-Serif" font-size="10.00">/PID_Energy.h</text>
</g>
<!-- Node2 -->
<g id="node3" class="node"><title>Node2</title>
<a xlink:href="calibration_2modules_2_p_i_d___energy_8cc.html" target="_top" xlink:title="src/calibration/modules\l/PID_Energy.cc">
<polygon fill="white" stroke="black" points="-0.5,-1 -0.5,-35 116.5,-35 116.5,-1 -0.5,-1"/>
<text text-anchor="start" x="7.5" y="-22" font-family="Helvetica,sans-Serif" font-size="10.00">src/calibration/modules</text>
<text text-anchor="middle" x="58" y="-9" font-family="Helvetica,sans-Serif" font-size="10.00">/PID_Energy.cc</text>
</a>
</g>
<!-- Node1&#45;&gt;Node2 -->
<g id="edge2" class="edge"><title>Node1&#45;&gt;Node2</title>
<path fill="none" stroke="midnightblue" d="M149.124,-68.0832C129.914,-57.5254 107.214,-45.049 89.2763,-35.19"/>
<polygon fill="midnightblue" stroke="midnightblue" points="147.505,-71.1876 157.955,-72.937 150.877,-65.0531 147.505,-71.1876"/>
</g>
<!-- Node3 -->
<g id="node5" class="node"><title>Node3</title>
<a xlink:href="_setup__2014___e_p_t_8cc.html" target="_top" xlink:title="src/expconfig/setups\l/Setup_2014_EPT.cc">
<polygon fill="white" stroke="black" points="134,-1 134,-35 244,-35 244,-1 134,-1"/>
<text text-anchor="start" x="142" y="-22" font-family="Helvetica,sans-Serif" font-size="10.00">src/expconfig/setups</text>
<text text-anchor="middle" x="189" y="-9" font-family="Helvetica,sans-Serif" font-size="10.00">/Setup_2014_EPT.cc</text>
</a>
</g>
<!-- Node1&#45;&gt;Node3 -->
<g id="edge4" class="edge"><title>Node1&#45;&gt;Node3</title>
<path fill="none" stroke="midnightblue" d="M189,-62.7193C189,-53.572 189,-43.6255 189,-35.4407"/>
<polygon fill="midnightblue" stroke="midnightblue" points="185.5,-62.937 189,-72.937 192.5,-62.937 185.5,-62.937"/>
</g>
<!-- Node4 -->
<g id="node7" class="node"><title>Node4</title>
<a xlink:href="expconfig__helpers_8cc.html" target="_top" xlink:title="test/expconfig_helpers.cc">
<polygon fill="white" stroke="black" points="262,-7.5 262,-28.5 390,-28.5 390,-7.5 262,-7.5"/>
<text text-anchor="middle" x="326" y="-15.5" font-family="Helvetica,sans-Serif" font-size="10.00">test/expconfig_helpers.cc</text>
</a>
</g>
<!-- Node1&#45;&gt;Node4 -->
<g id="edge6" class="edge"><title>Node1&#45;&gt;Node4</title>
<path fill="none" stroke="midnightblue" d="M230.355,-68.2661C255.263,-55.1754 285.885,-39.0824 305.663,-28.688"/>
<polygon fill="midnightblue" stroke="midnightblue" points="228.691,-65.1866 221.467,-72.937 231.947,-71.383 228.691,-65.1866"/>
</g>
</g>
</svg>
