<?xml version="1.0" encoding="UTF-8" standalone="no"?>
<!DOCTYPE svg PUBLIC "-//W3C//DTD SVG 1.1//EN"
 "http://www.w3.org/Graphics/SVG/1.1/DTD/svg11.dtd">
<!-- Generated by graphviz version 2.26.3 (20100126.1600)
 -->
<!-- Title: src/calibration/modules/TAPS_ShortEnergy.h Pages: 1 -->
<svg width="1981pt" height="492pt"
 viewBox="0.00 0.00 1981.00 492.00" xmlns="http://www.w3.org/2000/svg" xmlns:xlink="http://www.w3.org/1999/xlink">
<g id="graph1" class="graph" transform="scale(1 1) rotate(0) translate(4 488)">
<title>src/calibration/modules/TAPS_ShortEnergy.h</title>
<polygon fill="white" stroke="white" points="-4,5 -4,-488 1978,-488 1978,5 -4,5"/>
<!-- Node1 -->
<g id="node1" class="node"><title>Node1</title>
<polygon fill="#bfbfbf" stroke="black" points="301.5,-449 301.5,-483 418.5,-483 418.5,-449 301.5,-449"/>
<text text-anchor="start" x="309.5" y="-470" font-family="Helvetica,sans-Serif" font-size="10.00">src/calibration/modules</text>
<text text-anchor="middle" x="360" y="-457" font-family="Helvetica,sans-Serif" font-size="10.00">/TAPS_ShortEnergy.h</text>
</g>
<!-- Node2 -->
<g id="node3" class="node"><title>Node2</title>
<a xlink:href="_calibration_8h.html" target="_top" xlink:title="calibration/Calibration.h">
<polygon fill="white" stroke="black" points="249.5,-332.5 249.5,-353.5 368.5,-353.5 368.5,-332.5 249.5,-332.5"/>
<text text-anchor="middle" x="309" y="-340.5" font-family="Helvetica,sans-Serif" font-size="10.00">calibration/Calibration.h</text>
</a>
</g>
<!-- Node1&#45;&gt;Node2 -->
<g id="edge2" class="edge"><title>Node1&#45;&gt;Node2</title>
<path fill="none" stroke="midnightblue" d="M352.909,-448.897C343.61,-426.472 327.32,-387.183 317.41,-363.283"/>
<polygon fill="midnightblue" stroke="midnightblue" points="320.536,-361.684 313.473,-353.787 314.07,-364.365 320.536,-361.684"/>
</g>
<!-- Node46 -->
<g id="node126" class="node"><title>Node46</title>
<a xlink:href="_energy_8h.html" target="_top" xlink:title="Energy.h">
<polygon fill="white" stroke="black" points="368,-390.5 368,-411.5 424,-411.5 424,-390.5 368,-390.5"/>
<text text-anchor="middle" x="396" y="-398.5" font-family="Helvetica,sans-Serif" font-size="10.00">Energy.h</text>
</a>
</g>
<!-- Node1&#45;&gt;Node46 -->
<g id="edge160" class="edge"><title>Node1&#45;&gt;Node46</title>
<path fill="none" stroke="midnightblue" d="M369.459,-448.922C374.232,-440.304 380.048,-429.802 385.018,-420.828"/>
<polygon fill="midnightblue" stroke="midnightblue" points="388.206,-422.296 389.99,-411.852 382.083,-418.904 388.206,-422.296"/>
</g>
<!-- Node3 -->
<g id="node5" class="node"><title>Node3</title>
<a xlink:href="_reconstruct__traits_8h.html" target="_top" xlink:title="reconstruct/Reconstruct\l_traits.h">
<polygon fill="white" stroke="black" points="246,-261 246,-295 368,-295 368,-261 246,-261"/>
<text text-anchor="start" x="254" y="-282" font-family="Helvetica,sans-Serif" font-size="10.00">reconstruct/Reconstruct</text>
<text text-anchor="middle" x="307" y="-269" font-family="Helvetica,sans-Serif" font-size="10.00">_traits.h</text>
</a>
</g>
<!-- Node2&#45;&gt;Node3 -->
<g id="edge4" class="edge"><title>Node2&#45;&gt;Node3</title>
<path fill="none" stroke="midnightblue" d="M308.67,-332.267C308.444,-324.931 308.134,-314.857 307.842,-305.38"/>
<polygon fill="midnightblue" stroke="midnightblue" points="311.332,-304.997 307.526,-295.11 304.336,-305.213 311.332,-304.997"/>
</g>
<!-- Node6 -->
<g id="node11" class="node"><title>Node6</title>
<polygon fill="white" stroke="#bfbfbf" points="898,-0.5 898,-21.5 942,-21.5 942,-0.5 898,-0.5"/>
<text text-anchor="middle" x="920" y="-8.5" font-family="Helvetica,sans-Serif" font-size="10.00">vector</text>
</g>
<!-- Node2&#45;&gt;Node6 -->
<g id="edge158" class="edge"><title>Node2&#45;&gt;Node6</title>
<path fill="none" stroke="midnightblue" d="M353.682,-332.493C443.209,-309.987 648.521,-250.972 795,-152 844.867,-118.306 887.616,-60.223 907.724,-30.2045"/>
<polygon fill="midnightblue" stroke="midnightblue" points="910.65,-32.1257 913.221,-21.8475 904.801,-28.279 910.65,-32.1257"/>
</g>
<!-- Node23 -->
<g id="node56" class="node"><title>Node23</title>
<a xlink:href="_manager__traits_8h.html" target="_top" xlink:title="calibration/gui/Manager\l_traits.h">
<polygon fill="white" stroke="black" points="680.5,-261 680.5,-295 797.5,-295 797.5,-261 680.5,-261"/>
<text text-anchor="start" x="688.5" y="-282" font-family="Helvetica,sans-Serif" font-size="10.00">calibration/gui/Manager</text>
<text text-anchor="middle" x="739" y="-269" font-family="Helvetica,sans-Serif" font-size="10.00">_traits.h</text>
</a>
</g>
<!-- Node2&#45;&gt;Node23 -->
<g id="edge66" class="edge"><title>Node2&#45;&gt;Node23</title>
<path fill="none" stroke="midnightblue" d="M368.528,-335.124C434.499,-326.25 544.001,-311.086 638,-296 648.502,-294.315 659.601,-292.436 670.446,-290.546"/>
<polygon fill="midnightblue" stroke="midnightblue" points="671.067,-293.991 680.31,-288.812 669.855,-287.096 671.067,-293.991"/>
</g>
<!-- Node4 -->
<g id="node7" class="node"><title>Node4</title>
<a xlink:href="_detector__t_8h.html" target="_top" xlink:title="base/Detector_t.h">
<polygon fill="white" stroke="black" points="1156.5,-195.5 1156.5,-216.5 1251.5,-216.5 1251.5,-195.5 1156.5,-195.5"/>
<text text-anchor="middle" x="1204" y="-203.5" font-family="Helvetica,sans-Serif" font-size="10.00">base/Detector_t.h</text>
</a>
</g>
<!-- Node3&#45;&gt;Node4 -->
<g id="edge6" class="edge"><title>Node3&#45;&gt;Node4</title>
<path fill="none" stroke="midnightblue" d="M368.301,-273.079C533.371,-259.83 985.571,-223.533 1146.34,-210.629"/>
<polygon fill="midnightblue" stroke="midnightblue" points="1146.81,-214.102 1156.5,-209.813 1146.25,-207.124 1146.81,-214.102"/>
</g>
<!-- Node15 -->
<g id="node32" class="node"><title>Node15</title>
<a xlink:href="mapped__vectors_8h.html" target="_top" xlink:title="base/std_ext/mapped\l_vectors.h">
<polygon fill="white" stroke="black" points="456,-189 456,-223 566,-223 566,-189 456,-189"/>
<text text-anchor="start" x="464" y="-210" font-family="Helvetica,sans-Serif" font-size="10.00">base/std_ext/mapped</text>
<text text-anchor="middle" x="511" y="-197" font-family="Helvetica,sans-Serif" font-size="10.00">_vectors.h</text>
</a>
</g>
<!-- Node3&#45;&gt;Node15 -->
<g id="edge34" class="edge"><title>Node3&#45;&gt;Node15</title>
<path fill="none" stroke="midnightblue" d="M355.345,-260.937C384.582,-250.618 422.042,-237.397 452.886,-226.511"/>
<polygon fill="midnightblue" stroke="midnightblue" points="454.384,-229.694 462.649,-223.065 452.054,-223.093 454.384,-229.694"/>
</g>
<!-- Node17 -->
<g id="node36" class="node"><title>Node17</title>
<polygon fill="white" stroke="#bfbfbf" points="274,-58.5 274,-79.5 326,-79.5 326,-58.5 274,-58.5"/>
<text text-anchor="middle" x="300" y="-66.5" font-family="Helvetica,sans-Serif" font-size="10.00">memory</text>
</g>
<!-- Node3&#45;&gt;Node17 -->
<g id="edge58" class="edge"><title>Node3&#45;&gt;Node17</title>
<path fill="none" stroke="midnightblue" d="M296.222,-260.739C290.463,-250.485 283.963,-236.985 281,-224 270.148,-176.448 283.932,-119.181 293.086,-89.3386"/>
<polygon fill="midnightblue" stroke="midnightblue" points="296.471,-90.2447 296.194,-79.6535 289.805,-88.1055 296.471,-90.2447"/>
</g>
<!-- Node18 -->
<g id="node38" class="node"><title>Node18</title>
<polygon fill="white" stroke="#bfbfbf" points="343.5,-58.5 343.5,-79.5 372.5,-79.5 372.5,-58.5 343.5,-58.5"/>
<text text-anchor="middle" x="358" y="-66.5" font-family="Helvetica,sans-Serif" font-size="10.00">list</text>
</g>
<!-- Node3&#45;&gt;Node18 -->
<g id="edge62" class="edge"><title>Node3&#45;&gt;Node18</title>
<path fill="none" stroke="midnightblue" d="M317.007,-260.53C322.509,-250.207 329.009,-236.707 333,-224 347.629,-177.42 354.026,-120.142 356.548,-89.9396"/>
<polygon fill="midnightblue" stroke="midnightblue" points="360.053,-90.0086 357.334,-79.7685 353.074,-89.469 360.053,-90.0086"/>
</g>
<!-- Node19 -->
<g id="node43" class="node"><title>Node19</title>
<a xlink:href="shared__ptr__container_8h.html" target="_top" xlink:title="base/std_ext/shared\l_ptr_container.h">
<polygon fill="white" stroke="black" points="129.5,-117 129.5,-151 234.5,-151 234.5,-117 129.5,-117"/>
<text text-anchor="start" x="137.5" y="-138" font-family="Helvetica,sans-Serif" font-size="10.00">base/std_ext/shared</text>
<text text-anchor="middle" x="182" y="-125" font-family="Helvetica,sans-Serif" font-size="10.00">_ptr_container.h</text>
</a>
</g>
<!-- Node3&#45;&gt;Node19 -->
<g id="edge48" class="edge"><title>Node3&#45;&gt;Node19</title>
<path fill="none" stroke="midnightblue" d="M286.401,-260.923C274.618,-250.73 259.868,-237.23 248,-224 229.654,-203.548 211.383,-178.141 198.732,-159.542"/>
<polygon fill="midnightblue" stroke="midnightblue" points="201.481,-157.357 192.997,-151.01 195.671,-161.262 201.481,-157.357"/>
</g>
<!-- Node20 -->
<g id="node47" class="node"><title>Node20</title>
<polygon fill="white" stroke="#bfbfbf" points="-0.5,-0.5 -0.5,-21.5 58.5,-21.5 58.5,-0.5 -0.5,-0.5"/>
<text text-anchor="middle" x="29" y="-8.5" font-family="Helvetica,sans-Serif" font-size="10.00">functional</text>
</g>
<!-- Node3&#45;&gt;Node20 -->
<g id="edge64" class="edge"><title>Node3&#45;&gt;Node20</title>
<path fill="none" stroke="midnightblue" d="M257.745,-260.962C189.825,-234.431 70.3333,-176.069 22,-80 14.4967,-65.086 17.1748,-46.0859 21.2066,-31.8011"/>
<polygon fill="midnightblue" stroke="midnightblue" points="24.6483,-32.5344 24.4073,-21.9423 17.9903,-30.3728 24.6483,-32.5344"/>
</g>
<!-- Node22 -->
<g id="node52" class="node"><title>Node22</title>
<polygon fill="white" stroke="#bfbfbf" points="289.5,-195.5 289.5,-216.5 324.5,-216.5 324.5,-195.5 289.5,-195.5"/>
<text text-anchor="middle" x="307" y="-203.5" font-family="Helvetica,sans-Serif" font-size="10.00">map</text>
</g>
<!-- Node3&#45;&gt;Node22 -->
<g id="edge60" class="edge"><title>Node3&#45;&gt;Node22</title>
<path fill="none" stroke="midnightblue" d="M307,-260.937C307,-250.814 307,-237.898 307,-227.133"/>
<polygon fill="midnightblue" stroke="midnightblue" points="310.5,-226.901 307,-216.901 303.5,-226.901 310.5,-226.901"/>
</g>
<!-- Node5 -->
<g id="node9" class="node"><title>Node5</title>
<a xlink:href="printable_8h.html" target="_top" xlink:title="base/printable.h">
<polygon fill="white" stroke="black" points="1454,-58.5 1454,-79.5 1540,-79.5 1540,-58.5 1454,-58.5"/>
<text text-anchor="middle" x="1497" y="-66.5" font-family="Helvetica,sans-Serif" font-size="10.00">base/printable.h</text>
</a>
</g>
<!-- Node4&#45;&gt;Node5 -->
<g id="edge8" class="edge"><title>Node4&#45;&gt;Node5</title>
<path fill="none" stroke="midnightblue" d="M1207.52,-195.406C1214.48,-176.249 1231.87,-135.987 1261,-116 1262.91,-114.692 1375.05,-92.7144 1444.04,-79.2817"/>
<polygon fill="midnightblue" stroke="midnightblue" points="1444.74,-82.7111 1453.89,-77.3653 1443.41,-75.84 1444.74,-82.7111"/>
</g>
<!-- Node4&#45;&gt;Node6 -->
<g id="edge32" class="edge"><title>Node4&#45;&gt;Node6</title>
<path fill="none" stroke="midnightblue" d="M1156.49,-200.358C1117.68,-193.856 1062.91,-180.187 1023,-152 977.616,-119.947 944.422,-61.5174 929.225,-30.9089"/>
<polygon fill="midnightblue" stroke="midnightblue" points="932.267,-29.1596 924.77,-21.6735 925.963,-32.201 932.267,-29.1596"/>
</g>
<!-- Node8 -->
<g id="node15" class="node"><title>Node8</title>
<a xlink:href="vec3_8h.html" target="_top" xlink:title="base/vec/vec3.h">
<polygon fill="white" stroke="black" points="1489.5,-123.5 1489.5,-144.5 1578.5,-144.5 1578.5,-123.5 1489.5,-123.5"/>
<text text-anchor="middle" x="1534" y="-131.5" font-family="Helvetica,sans-Serif" font-size="10.00">base/vec/vec3.h</text>
</a>
</g>
<!-- Node4&#45;&gt;Node8 -->
<g id="edge14" class="edge"><title>Node4&#45;&gt;Node8</title>
<path fill="none" stroke="midnightblue" d="M1251.63,-195.607C1312.03,-182.429 1415.94,-159.759 1479.46,-145.9"/>
<polygon fill="midnightblue" stroke="midnightblue" points="1480.27,-149.306 1489.29,-143.754 1478.78,-142.467 1480.27,-149.306"/>
</g>
<!-- Node11 -->
<g id="node23" class="node"><title>Node11</title>
<polygon fill="white" stroke="#bfbfbf" points="1350,-123.5 1350,-144.5 1396,-144.5 1396,-123.5 1350,-123.5"/>
<text text-anchor="middle" x="1373" y="-131.5" font-family="Helvetica,sans-Serif" font-size="10.00">cstdint</text>
</g>
<!-- Node4&#45;&gt;Node11 -->
<g id="edge24" class="edge"><title>Node4&#45;&gt;Node11</title>
<path fill="none" stroke="midnightblue" d="M1234.17,-195.462C1262.26,-185.33 1305.1,-169.074 1341,-152 1342.77,-151.158 1344.58,-150.259 1346.39,-149.328"/>
<polygon fill="midnightblue" stroke="midnightblue" points="1348.14,-152.356 1355.29,-144.532 1344.82,-146.193 1348.14,-152.356"/>
</g>
<!-- Node12 -->
<g id="node25" class="node"><title>Node12</title>
<polygon fill="white" stroke="#bfbfbf" points="1175.5,-58.5 1175.5,-79.5 1234.5,-79.5 1234.5,-58.5 1175.5,-58.5"/>
<text text-anchor="middle" x="1205" y="-66.5" font-family="Helvetica,sans-Serif" font-size="10.00">stdexcept</text>
</g>
<!-- Node4&#45;&gt;Node12 -->
<g id="edge26" class="edge"><title>Node4&#45;&gt;Node12</title>
<path fill="none" stroke="midnightblue" d="M1200.4,-195.399C1196.94,-184.622 1191.96,-167.371 1190,-152 1187.98,-136.129 1187.54,-131.81 1190,-116 1191.41,-106.955 1194.26,-97.2705 1197.09,-89.057"/>
<polygon fill="midnightblue" stroke="midnightblue" points="1200.41,-90.1923 1200.58,-79.5988 1193.84,-87.7736 1200.41,-90.1923"/>
</g>
<!-- Node13 -->
<g id="node27" class="node"><title>Node13</title>
<polygon fill="white" stroke="#bfbfbf" points="1386.5,-0.5 1386.5,-21.5 1427.5,-21.5 1427.5,-0.5 1386.5,-0.5"/>
<text text-anchor="middle" x="1407" y="-8.5" font-family="Helvetica,sans-Serif" font-size="10.00">string</text>
</g>
<!-- Node4&#45;&gt;Node13 -->
<g id="edge28" class="edge"><title>Node4&#45;&gt;Node13</title>
<path fill="none" stroke="midnightblue" d="M1203.13,-195.398C1202.22,-176.589 1203.25,-137.36 1225,-116 1279.48,-62.496 1339.3,-134.29 1393,-80 1405.38,-67.4827 1408.26,-47.2073 1408.41,-31.8668"/>
<polygon fill="midnightblue" stroke="midnightblue" points="1411.91,-31.6512 1408.14,-21.7501 1404.91,-31.8416 1411.91,-31.6512"/>
</g>
<!-- Node14 -->
<g id="node29" class="node"><title>Node14</title>
<polygon fill="white" stroke="#bfbfbf" points="1270,-123.5 1270,-144.5 1332,-144.5 1332,-123.5 1270,-123.5"/>
<text text-anchor="middle" x="1301" y="-131.5" font-family="Helvetica,sans-Serif" font-size="10.00">type_traits</text>
</g>
<!-- Node4&#45;&gt;Node14 -->
<g id="edge30" class="edge"><title>Node4&#45;&gt;Node14</title>
<path fill="none" stroke="midnightblue" d="M1218.31,-195.376C1234.14,-183.624 1259.87,-164.533 1278.42,-150.76"/>
<polygon fill="midnightblue" stroke="midnightblue" points="1280.68,-153.438 1286.63,-144.667 1276.51,-147.817 1280.68,-153.438"/>
</g>
<!-- Node5&#45;&gt;Node6 -->
<g id="edge10" class="edge"><title>Node5&#45;&gt;Node6</title>
<path fill="none" stroke="midnightblue" d="M1453.63,-64.6406C1342.61,-53.4804 1050,-24.0674 952.288,-14.2456"/>
<polygon fill="midnightblue" stroke="midnightblue" points="952.44,-10.7434 942.14,-13.2256 951.74,-17.7083 952.44,-10.7434"/>
</g>
<!-- Node7 -->
<g id="node13" class="node"><title>Node7</title>
<polygon fill="white" stroke="#bfbfbf" points="1471,-0.5 1471,-21.5 1523,-21.5 1523,-0.5 1471,-0.5"/>
<text text-anchor="middle" x="1497" y="-8.5" font-family="Helvetica,sans-Serif" font-size="10.00">ostream</text>
</g>
<!-- Node5&#45;&gt;Node7 -->
<g id="edge12" class="edge"><title>Node5&#45;&gt;Node7</title>
<path fill="none" stroke="midnightblue" d="M1497,-58.3619C1497,-50.9219 1497,-40.7427 1497,-31.7276"/>
<polygon fill="midnightblue" stroke="midnightblue" points="1500.5,-31.5706 1497,-21.5707 1493.5,-31.5707 1500.5,-31.5706"/>
</g>
<!-- Node8&#45;&gt;Node5 -->
<g id="edge16" class="edge"><title>Node8&#45;&gt;Node5</title>
<path fill="none" stroke="midnightblue" d="M1527.89,-123.267C1522.5,-113.801 1514.52,-99.7773 1508.02,-88.3571"/>
<polygon fill="midnightblue" stroke="midnightblue" points="1510.98,-86.4929 1503,-79.5337 1504.9,-89.9558 1510.98,-86.4929"/>
</g>
<!-- Node9 -->
<g id="node18" class="node"><title>Node9</title>
<a xlink:href="vec2_8h.html" target="_top" xlink:title="vec2.h">
<polygon fill="white" stroke="black" points="1634,-58.5 1634,-79.5 1680,-79.5 1680,-58.5 1634,-58.5"/>
<text text-anchor="middle" x="1657" y="-66.5" font-family="Helvetica,sans-Serif" font-size="10.00">vec2.h</text>
</a>
</g>
<!-- Node8&#45;&gt;Node9 -->
<g id="edge18" class="edge"><title>Node8&#45;&gt;Node9</title>
<path fill="none" stroke="midnightblue" d="M1554.04,-123.412C1574.14,-112.788 1605.31,-96.3182 1628.09,-84.28"/>
<polygon fill="midnightblue" stroke="midnightblue" points="1629.77,-87.3503 1636.97,-79.5835 1626.5,-81.1613 1629.77,-87.3503"/>
</g>
<!-- Node10 -->
<g id="node20" class="node"><title>Node10</title>
<polygon fill="white" stroke="#bfbfbf" points="1590,-0.5 1590,-21.5 1634,-21.5 1634,-0.5 1590,-0.5"/>
<text text-anchor="middle" x="1612" y="-8.5" font-family="Helvetica,sans-Serif" font-size="10.00">cmath</text>
</g>
<!-- Node8&#45;&gt;Node10 -->
<g id="edge22" class="edge"><title>Node8&#45;&gt;Node10</title>
<path fill="none" stroke="midnightblue" d="M1540.92,-123.085C1554.14,-102.244 1583.12,-56.5369 1599.71,-30.3837"/>
<polygon fill="midnightblue" stroke="midnightblue" points="1602.81,-32.0349 1605.2,-21.7153 1596.89,-28.286 1602.81,-32.0349"/>
</g>
<!-- Node9&#45;&gt;Node10 -->
<g id="edge20" class="edge"><title>Node9&#45;&gt;Node10</title>
<path fill="none" stroke="midnightblue" d="M1648.75,-58.3619C1642.53,-50.3496 1633.85,-39.1605 1626.49,-29.6696"/>
<polygon fill="midnightblue" stroke="midnightblue" points="1629.1,-27.326 1620.2,-21.5707 1623.57,-31.617 1629.1,-27.326"/>
</g>
<!-- Node15&#45;&gt;Node6 -->
<g id="edge42" class="edge"><title>Node15&#45;&gt;Node6</title>
<path fill="none" stroke="midnightblue" d="M535.401,-188.759C558.763,-170.143 587.874,-139.94 569,-116 524.747,-59.8697 370.876,-110.849 419,-58 450.596,-23.3016 782.101,-13.7396 887.806,-11.5628"/>
<polygon fill="midnightblue" stroke="midnightblue" points="887.948,-15.0608 897.877,-11.3639 887.81,-8.06212 887.948,-15.0608"/>
</g>
<!-- Node15&#45;&gt;Node14 -->
<g id="edge46" class="edge"><title>Node15&#45;&gt;Node14</title>
<path fill="none" stroke="midnightblue" d="M566.114,-201.332C673.115,-192.224 916.449,-171.281 1121,-152 1168.53,-147.52 1223.07,-142.015 1259.54,-138.281"/>
<polygon fill="midnightblue" stroke="midnightblue" points="1260.2,-141.732 1269.79,-137.229 1259.49,-134.768 1260.2,-141.732"/>
</g>
<!-- Node16 -->
<g id="node34" class="node"><title>Node16</title>
<a xlink:href="memory_8h.html" target="_top" xlink:title="base/std_ext/memory.h">
<polygon fill="white" stroke="black" points="441.5,-123.5 441.5,-144.5 560.5,-144.5 560.5,-123.5 441.5,-123.5"/>
<text text-anchor="middle" x="501" y="-131.5" font-family="Helvetica,sans-Serif" font-size="10.00">base/std_ext/memory.h</text>
</a>
</g>
<!-- Node15&#45;&gt;Node16 -->
<g id="edge36" class="edge"><title>Node15&#45;&gt;Node16</title>
<path fill="none" stroke="midnightblue" d="M508.63,-188.937C507.224,-178.814 505.43,-165.898 503.935,-155.133"/>
<polygon fill="midnightblue" stroke="midnightblue" points="507.357,-154.324 502.514,-144.901 500.423,-155.287 507.357,-154.324"/>
</g>
<!-- Node15&#45;&gt;Node17 -->
<g id="edge44" class="edge"><title>Node15&#45;&gt;Node17</title>
<path fill="none" stroke="midnightblue" d="M484.703,-188.926C443.621,-162.252 364.778,-111.06 324.7,-85.0373"/>
<polygon fill="midnightblue" stroke="midnightblue" points="326.598,-82.0967 316.305,-79.5864 322.786,-87.9677 326.598,-82.0967"/>
</g>
<!-- Node16&#45;&gt;Node17 -->
<g id="edge38" class="edge"><title>Node16&#45;&gt;Node17</title>
<path fill="none" stroke="midnightblue" d="M468.259,-123.412C431.803,-111.623 373.082,-92.6335 335.534,-80.4911"/>
<polygon fill="midnightblue" stroke="midnightblue" points="336.598,-77.1567 326.006,-77.4099 334.444,-83.8171 336.598,-77.1567"/>
</g>
<!-- Node16&#45;&gt;Node18 -->
<g id="edge40" class="edge"><title>Node16&#45;&gt;Node18</title>
<path fill="none" stroke="midnightblue" d="M477.706,-123.412C451.32,-111.418 408.538,-91.9718 381.902,-79.8647"/>
<polygon fill="midnightblue" stroke="midnightblue" points="383.105,-76.5666 372.552,-75.6148 380.208,-82.9391 383.105,-76.5666"/>
</g>
<!-- Node19&#45;&gt;Node6 -->
<g id="edge50" class="edge"><title>Node19&#45;&gt;Node6</title>
<path fill="none" stroke="midnightblue" d="M197.959,-116.968C217.404,-96.6677 249.567,-64.644 265,-58 322.495,-33.2486 763.412,-16.3741 887.562,-12.0781"/>
<polygon fill="midnightblue" stroke="midnightblue" points="888.044,-15.5637 897.918,-11.7236 887.804,-8.56784 888.044,-15.5637"/>
</g>
<!-- Node19&#45;&gt;Node17 -->
<g id="edge52" class="edge"><title>Node19&#45;&gt;Node17</title>
<path fill="none" stroke="midnightblue" d="M213.003,-116.922C231.094,-106.957 253.757,-94.4729 271.416,-84.7455"/>
<polygon fill="midnightblue" stroke="midnightblue" points="273.581,-87.549 280.651,-79.6584 270.203,-81.4176 273.581,-87.549"/>
</g>
<!-- Node19&#45;&gt;Node20 -->
<g id="edge54" class="edge"><title>Node19&#45;&gt;Node20</title>
<path fill="none" stroke="midnightblue" d="M129.394,-121.274C91.8415,-111.048 45.9475,-95.8264 34,-80 23.7355,-66.4031 23.3107,-46.6906 24.9728,-31.8137"/>
<polygon fill="midnightblue" stroke="midnightblue" points="28.4886,-31.9721 26.5223,-21.5613 21.5672,-30.926 28.4886,-31.9721"/>
</g>
<!-- Node21 -->
<g id="node49" class="node"><title>Node21</title>
<polygon fill="white" stroke="#bfbfbf" points="483,-0.5 483,-21.5 539,-21.5 539,-0.5 483,-0.5"/>
<text text-anchor="middle" x="511" y="-8.5" font-family="Helvetica,sans-Serif" font-size="10.00">algorithm</text>
</g>
<!-- Node19&#45;&gt;Node21 -->
<g id="edge56" class="edge"><title>Node19&#45;&gt;Node21</title>
<path fill="none" stroke="midnightblue" d="M188.464,-116.765C196.062,-99.0288 210.436,-72.0629 232,-58 271.054,-32.5303 405.617,-18.9891 472.558,-13.6913"/>
<polygon fill="midnightblue" stroke="midnightblue" points="472.994,-17.1682 482.695,-12.9112 472.456,-10.1888 472.994,-17.1682"/>
</g>
<!-- Node23&#45;&gt;Node13 -->
<g id="edge152" class="edge"><title>Node23&#45;&gt;Node13</title>
<path fill="none" stroke="midnightblue" d="M797.563,-273.831C981.317,-260.142 1537.26,-213.884 1587,-152 1615.23,-116.877 1584.73,-85.4578 1549,-58 1531.38,-44.4626 1473.88,-28.0245 1437.68,-18.6112"/>
<polygon fill="midnightblue" stroke="midnightblue" points="1438.19,-15.1306 1427.64,-16.0385 1436.46,-21.9115 1438.19,-15.1306"/>
</g>
<!-- Node23&#45;&gt;Node17 -->
<g id="edge156" class="edge"><title>Node23&#45;&gt;Node17</title>
<path fill="none" stroke="midnightblue" d="M680.304,-271.148C607.16,-261.925 486.919,-244.308 447,-224 426.265,-213.451 387.028,-168.862 371,-152 350.753,-130.698 328.998,-104.768 314.983,-87.6209"/>
<polygon fill="midnightblue" stroke="midnightblue" points="317.429,-85.0815 308.408,-79.5258 311.996,-89.4947 317.429,-85.0815"/>
</g>
<!-- Node23&#45;&gt;Node18 -->
<g id="edge154" class="edge"><title>Node23&#45;&gt;Node18</title>
<path fill="none" stroke="midnightblue" d="M719.458,-260.973C692.433,-237.216 642.411,-192.478 602,-152 586.665,-136.64 587.793,-126.86 569,-116 552.884,-106.687 435.029,-83.582 382.8,-73.6545"/>
<polygon fill="midnightblue" stroke="midnightblue" points="383.188,-70.1659 372.711,-71.7459 381.886,-77.0438 383.188,-70.1659"/>
</g>
<!-- Node24 -->
<g id="node58" class="node"><title>Node24</title>
<a xlink:href="interval_8h.html" target="_top" xlink:title="base/interval.h">
<polygon fill="white" stroke="black" points="1032,-123.5 1032,-144.5 1112,-144.5 1112,-123.5 1032,-123.5"/>
<text text-anchor="middle" x="1072" y="-131.5" font-family="Helvetica,sans-Serif" font-size="10.00">base/interval.h</text>
</a>
</g>
<!-- Node23&#45;&gt;Node24 -->
<g id="edge68" class="edge"><title>Node23&#45;&gt;Node24</title>
<path fill="none" stroke="midnightblue" d="M778.507,-260.916C844.574,-232.346 976.321,-175.375 1038.3,-148.575"/>
<polygon fill="midnightblue" stroke="midnightblue" points="1039.83,-151.723 1047.62,-144.541 1037.06,-145.298 1039.83,-151.723"/>
</g>
<!-- Node28 -->
<g id="node69" class="node"><title>Node28</title>
<a xlink:href="_wrap_t_file_8h.html" target="_top" xlink:title="base/WrapTFile.h">
<polygon fill="white" stroke="black" points="692,-123.5 692,-144.5 786,-144.5 786,-123.5 692,-123.5"/>
<text text-anchor="middle" x="739" y="-131.5" font-family="Helvetica,sans-Serif" font-size="10.00">base/WrapTFile.h</text>
</a>
</g>
<!-- Node23&#45;&gt;Node28 -->
<g id="edge82" class="edge"><title>Node23&#45;&gt;Node28</title>
<path fill="none" stroke="midnightblue" d="M739,-260.916C739,-234.345 739,-183.207 739,-154.622"/>
<polygon fill="midnightblue" stroke="midnightblue" points="742.5,-154.541 739,-144.541 735.5,-154.541 742.5,-154.541"/>
</g>
<!-- Node39 -->
<g id="node101" class="node"><title>Node39</title>
<a xlink:href="_t_i_d_8h.html" target="_top" xlink:title="tree/TID.h">
<polygon fill="white" stroke="black" points="1631.5,-195.5 1631.5,-216.5 1692.5,-216.5 1692.5,-195.5 1631.5,-195.5"/>
<text text-anchor="middle" x="1662" y="-203.5" font-family="Helvetica,sans-Serif" font-size="10.00">tree/TID.h</text>
</a>
</g>
<!-- Node23&#45;&gt;Node39 -->
<g id="edge124" class="edge"><title>Node23&#45;&gt;Node39</title>
<path fill="none" stroke="midnightblue" d="M797.565,-276.889C967.928,-273.263 1461.13,-259.876 1618,-224 1622.16,-223.048 1626.44,-221.745 1630.62,-220.272"/>
<polygon fill="midnightblue" stroke="midnightblue" points="1632.01,-223.485 1640.08,-216.613 1629.49,-216.957 1632.01,-223.485"/>
</g>
<!-- Node24&#45;&gt;Node5 -->
<g id="edge70" class="edge"><title>Node24&#45;&gt;Node5</title>
<path fill="none" stroke="midnightblue" d="M1112.37,-127.826C1189.42,-116.042 1357.46,-90.3417 1443.66,-77.1579"/>
<polygon fill="midnightblue" stroke="midnightblue" points="1444.4,-80.5856 1453.75,-75.6139 1443.34,-73.6661 1444.4,-80.5856"/>
</g>
<!-- Node24&#45;&gt;Node12 -->
<g id="edge76" class="edge"><title>Node24&#45;&gt;Node12</title>
<path fill="none" stroke="midnightblue" d="M1093.66,-123.412C1115.5,-112.741 1149.4,-96.1717 1174.06,-84.1198"/>
<polygon fill="midnightblue" stroke="midnightblue" points="1175.9,-87.119 1183.34,-79.5835 1172.82,-80.8299 1175.9,-87.119"/>
</g>
<!-- Node24&#45;&gt;Node21 -->
<g id="edge74" class="edge"><title>Node24&#45;&gt;Node21</title>
<path fill="none" stroke="midnightblue" d="M1048.07,-123.366C1009.78,-106.79 931.992,-74.9387 863,-58 750.982,-30.4978 614.697,-18.0916 549.439,-13.4051"/>
<polygon fill="midnightblue" stroke="midnightblue" points="549.437,-9.89654 539.217,-12.6929 548.95,-16.8796 549.437,-9.89654"/>
</g>
<!-- Node25 -->
<g id="node61" class="node"><title>Node25</title>
<a xlink:href="types_8h.html" target="_top" xlink:title="types.h">
<polygon fill="white" stroke="black" points="985.5,-58.5 985.5,-79.5 1034.5,-79.5 1034.5,-58.5 985.5,-58.5"/>
<text text-anchor="middle" x="1010" y="-66.5" font-family="Helvetica,sans-Serif" font-size="10.00">types.h</text>
</a>
</g>
<!-- Node24&#45;&gt;Node25 -->
<g id="edge72" class="edge"><title>Node24&#45;&gt;Node25</title>
<path fill="none" stroke="midnightblue" d="M1061.76,-123.267C1052.37,-113.423 1038.28,-98.6481 1027.17,-86.9996"/>
<polygon fill="midnightblue" stroke="midnightblue" points="1029.48,-84.3541 1020.05,-79.5337 1024.42,-89.1856 1029.48,-84.3541"/>
</g>
<!-- Node26 -->
<g id="node65" class="node"><title>Node26</title>
<polygon fill="white" stroke="#bfbfbf" points="1052,-58.5 1052,-79.5 1092,-79.5 1092,-58.5 1052,-58.5"/>
<text text-anchor="middle" x="1072" y="-66.5" font-family="Helvetica,sans-Serif" font-size="10.00">limits</text>
</g>
<!-- Node24&#45;&gt;Node26 -->
<g id="edge78" class="edge"><title>Node24&#45;&gt;Node26</title>
<path fill="none" stroke="midnightblue" d="M1072,-123.267C1072,-114.18 1072,-100.892 1072,-89.7395"/>
<polygon fill="midnightblue" stroke="midnightblue" points="1075.5,-89.5337 1072,-79.5337 1068.5,-89.5337 1075.5,-89.5337"/>
</g>
<!-- Node27 -->
<g id="node67" class="node"><title>Node27</title>
<polygon fill="white" stroke="#bfbfbf" points="1109.5,-58.5 1109.5,-79.5 1158.5,-79.5 1158.5,-58.5 1109.5,-58.5"/>
<text text-anchor="middle" x="1134" y="-66.5" font-family="Helvetica,sans-Serif" font-size="10.00">istream</text>
</g>
<!-- Node24&#45;&gt;Node27 -->
<g id="edge80" class="edge"><title>Node24&#45;&gt;Node27</title>
<path fill="none" stroke="midnightblue" d="M1082.24,-123.267C1091.63,-113.423 1105.72,-98.6481 1116.83,-86.9996"/>
<polygon fill="midnightblue" stroke="midnightblue" points="1119.58,-89.1856 1123.95,-79.5337 1114.52,-84.3541 1119.58,-89.1856"/>
</g>
<!-- Node28&#45;&gt;Node12 -->
<g id="edge120" class="edge"><title>Node28&#45;&gt;Node12</title>
<path fill="none" stroke="midnightblue" d="M786.261,-130.467C863.79,-124.143 1022.85,-108.951 1165.44,-80.1019"/>
<polygon fill="midnightblue" stroke="midnightblue" points="1166.15,-83.5296 1175.24,-78.0917 1164.74,-76.6723 1166.15,-83.5296"/>
</g>
<!-- Node28&#45;&gt;Node13 -->
<g id="edge116" class="edge"><title>Node28&#45;&gt;Node13</title>
<path fill="none" stroke="midnightblue" d="M786.274,-131.168C928.568,-122.483 1344.61,-95.8559 1369,-80 1386.12,-68.8715 1396.19,-47.2554 1401.62,-31.1691"/>
<polygon fill="midnightblue" stroke="midnightblue" points="1404.98,-32.1483 1404.54,-21.5625 1398.28,-30.1117 1404.98,-32.1483"/>
</g>
<!-- Node28&#45;&gt;Node17 -->
<g id="edge114" class="edge"><title>Node28&#45;&gt;Node17</title>
<path fill="none" stroke="midnightblue" d="M691.886,-128.733C604.232,-118.771 418.265,-96.8289 336.187,-79.9196"/>
<polygon fill="midnightblue" stroke="midnightblue" points="336.755,-76.4616 326.242,-77.7789 335.282,-83.3049 336.755,-76.4616"/>
</g>
<!-- Node28&#45;&gt;Node18 -->
<g id="edge118" class="edge"><title>Node28&#45;&gt;Node18</title>
<path fill="none" stroke="midnightblue" d="M706.624,-123.473C697.443,-120.754 687.39,-118.026 678,-116 564.397,-91.4863 533.765,-98.316 419,-80 406.921,-78.0722 393.541,-75.6876 382.398,-73.6319"/>
<polygon fill="midnightblue" stroke="midnightblue" points="382.988,-70.1816 372.516,-71.7875 381.704,-77.0628 382.988,-70.1816"/>
</g>
<!-- Node28&#45;&gt;Node20 -->
<g id="edge122" class="edge"><title>Node28&#45;&gt;Node20</title>
<path fill="none" stroke="midnightblue" d="M691.776,-128.566C657.685,-124.749 610.535,-119.687 569,-116 513.298,-111.055 114.095,-110.153 67,-80 49.805,-68.9909 39.7417,-47.3549 34.34,-31.2313"/>
<polygon fill="midnightblue" stroke="midnightblue" points="37.6735,-30.1627 31.4354,-21.599 30.9716,-32.1837 37.6735,-30.1627"/>
</g>
<!-- Node29 -->
<g id="node71" class="node"><title>Node29</title>
<a xlink:href="string_8h.html" target="_top" xlink:title="base/std_ext/string.h">
<polygon fill="white" stroke="black" points="1252,-58.5 1252,-79.5 1360,-79.5 1360,-58.5 1252,-58.5"/>
<text text-anchor="middle" x="1306" y="-66.5" font-family="Helvetica,sans-Serif" font-size="10.00">base/std_ext/string.h</text>
</a>
</g>
<!-- Node28&#45;&gt;Node29 -->
<g id="edge84" class="edge"><title>Node28&#45;&gt;Node29</title>
<path fill="none" stroke="midnightblue" d="M786.03,-130.007C873.623,-122.344 1067.89,-104.28 1241.64,-80.1223"/>
<polygon fill="midnightblue" stroke="midnightblue" points="1242.32,-83.5617 1251.74,-78.7086 1241.35,-76.6293 1242.32,-83.5617"/>
</g>
<!-- Node31 -->
<g id="node78" class="node"><title>Node31</title>
<a xlink:href="misc_8h.html" target="_top" xlink:title="base/std_ext/misc.h">
<polygon fill="white" stroke="black" points="75.5,-58.5 75.5,-79.5 180.5,-79.5 180.5,-58.5 75.5,-58.5"/>
<text text-anchor="middle" x="128" y="-66.5" font-family="Helvetica,sans-Serif" font-size="10.00">base/std_ext/misc.h</text>
</a>
</g>
<!-- Node28&#45;&gt;Node31 -->
<g id="edge94" class="edge"><title>Node28&#45;&gt;Node31</title>
<path fill="none" stroke="midnightblue" d="M691.818,-128.981C582.778,-117.381 313.282,-88.7108 190.612,-75.6609"/>
<polygon fill="midnightblue" stroke="midnightblue" points="190.936,-72.1756 180.622,-74.598 190.195,-79.1363 190.936,-72.1756"/>
</g>
<!-- Node33 -->
<g id="node84" class="node"><title>Node33</title>
<polygon fill="white" stroke="#bfbfbf" points="649.5,-58.5 649.5,-79.5 696.5,-79.5 696.5,-58.5 649.5,-58.5"/>
<text text-anchor="middle" x="673" y="-66.5" font-family="Helvetica,sans-Serif" font-size="10.00">TFile.h</text>
</g>
<!-- Node28&#45;&gt;Node33 -->
<g id="edge102" class="edge"><title>Node28&#45;&gt;Node33</title>
<path fill="none" stroke="midnightblue" d="M728.101,-123.267C718.01,-113.328 702.815,-98.3635 690.936,-86.6645"/>
<polygon fill="midnightblue" stroke="midnightblue" points="693.277,-84.0569 683.696,-79.5337 688.365,-89.0443 693.277,-84.0569"/>
</g>
<!-- Node34 -->
<g id="node86" class="node"><title>Node34</title>
<polygon fill="white" stroke="#bfbfbf" points="713.5,-58.5 713.5,-79.5 784.5,-79.5 784.5,-58.5 713.5,-58.5"/>
<text text-anchor="middle" x="749" y="-66.5" font-family="Helvetica,sans-Serif" font-size="10.00">TDirectory.h</text>
</g>
<!-- Node28&#45;&gt;Node34 -->
<g id="edge104" class="edge"><title>Node28&#45;&gt;Node34</title>
<path fill="none" stroke="midnightblue" d="M740.651,-123.267C742.049,-114.18 744.094,-100.892 745.809,-89.7395"/>
<polygon fill="midnightblue" stroke="midnightblue" points="749.318,-89.9497 747.379,-79.5337 742.399,-88.8852 749.318,-89.9497"/>
</g>
<!-- Node35 -->
<g id="node88" class="node"><title>Node35</title>
<polygon fill="white" stroke="#bfbfbf" points="802,-58.5 802,-79.5 854,-79.5 854,-58.5 802,-58.5"/>
<text text-anchor="middle" x="828" y="-66.5" font-family="Helvetica,sans-Serif" font-size="10.00">TError.h</text>
</g>
<!-- Node28&#45;&gt;Node35 -->
<g id="edge106" class="edge"><title>Node28&#45;&gt;Node35</title>
<path fill="none" stroke="midnightblue" d="M753.697,-123.267C767.694,-113.044 788.971,-97.5043 805.175,-85.6699"/>
<polygon fill="midnightblue" stroke="midnightblue" points="807.566,-88.2581 813.577,-79.5337 803.437,-82.6052 807.566,-88.2581"/>
</g>
<!-- Node36 -->
<g id="node90" class="node"><title>Node36</title>
<polygon fill="white" stroke="#bfbfbf" points="427.5,-58.5 427.5,-79.5 474.5,-79.5 474.5,-58.5 427.5,-58.5"/>
<text text-anchor="middle" x="451" y="-66.5" font-family="Helvetica,sans-Serif" font-size="10.00">TList.h</text>
</g>
<!-- Node28&#45;&gt;Node36 -->
<g id="edge108" class="edge"><title>Node28&#45;&gt;Node36</title>
<path fill="none" stroke="midnightblue" d="M705.609,-123.464C696.689,-120.837 687.021,-118.157 678,-116 595.383,-96.2414 570.059,-101.925 484.525,-80.1354"/>
<polygon fill="midnightblue" stroke="midnightblue" points="485.204,-76.6958 474.645,-77.5663 483.443,-83.4705 485.204,-76.6958"/>
</g>
<!-- Node37 -->
<g id="node92" class="node"><title>Node37</title>
<polygon fill="white" stroke="#bfbfbf" points="492,-58.5 492,-79.5 566,-79.5 566,-58.5 492,-58.5"/>
<text text-anchor="middle" x="529" y="-66.5" font-family="Helvetica,sans-Serif" font-size="10.00">TCollection.h</text>
</g>
<!-- Node28&#45;&gt;Node37 -->
<g id="edge110" class="edge"><title>Node28&#45;&gt;Node37</title>
<path fill="none" stroke="midnightblue" d="M704.792,-123.412C668.793,-112.269 612.011,-94.6938 572.769,-82.5474"/>
<polygon fill="midnightblue" stroke="midnightblue" points="573.781,-79.1969 563.193,-79.5835 571.711,-85.8839 573.781,-79.1969"/>
</g>
<!-- Node38 -->
<g id="node94" class="node"><title>Node38</title>
<polygon fill="white" stroke="#bfbfbf" points="584,-58.5 584,-79.5 632,-79.5 632,-58.5 584,-58.5"/>
<text text-anchor="middle" x="608" y="-66.5" font-family="Helvetica,sans-Serif" font-size="10.00">TKey.h</text>
</g>
<!-- Node28&#45;&gt;Node38 -->
<g id="edge112" class="edge"><title>Node28&#45;&gt;Node38</title>
<path fill="none" stroke="midnightblue" d="M717.661,-123.412C696.155,-112.741 662.761,-96.1717 638.472,-84.1198"/>
<polygon fill="midnightblue" stroke="midnightblue" points="639.843,-80.8931 629.33,-79.5835 636.732,-87.1636 639.843,-80.8931"/>
</g>
<!-- Node29&#45;&gt;Node6 -->
<g id="edge92" class="edge"><title>Node29&#45;&gt;Node6</title>
<path fill="none" stroke="midnightblue" d="M1251.72,-59.4219C1248.77,-58.9331 1245.85,-58.4561 1243,-58 1136.86,-41.0146 1010.67,-23.3951 952.42,-15.4074"/>
<polygon fill="midnightblue" stroke="midnightblue" points="952.736,-11.9182 942.354,-14.0303 951.787,-18.8536 952.736,-11.9182"/>
</g>
<!-- Node29&#45;&gt;Node13 -->
<g id="edge86" class="edge"><title>Node29&#45;&gt;Node13</title>
<path fill="none" stroke="midnightblue" d="M1324.52,-58.3619C1339.9,-49.532 1362,-36.844 1379.45,-26.8224"/>
<polygon fill="midnightblue" stroke="midnightblue" points="1381.66,-29.5857 1388.59,-21.5707 1378.18,-23.5154 1381.66,-29.5857"/>
</g>
<!-- Node29&#45;&gt;Node21 -->
<g id="edge90" class="edge"><title>Node29&#45;&gt;Node21</title>
<path fill="none" stroke="midnightblue" d="M1251.76,-59.1437C1248.8,-58.7267 1245.87,-58.3413 1243,-58 978.666,-26.5316 657.946,-15.1167 549.175,-11.9877"/>
<polygon fill="midnightblue" stroke="midnightblue" points="549.118,-8.48481 539.023,-11.7022 548.921,-15.482 549.118,-8.48481"/>
</g>
<!-- Node30 -->
<g id="node74" class="node"><title>Node30</title>
<polygon fill="white" stroke="#bfbfbf" points="1280,-0.5 1280,-21.5 1332,-21.5 1332,-0.5 1280,-0.5"/>
<text text-anchor="middle" x="1306" y="-8.5" font-family="Helvetica,sans-Serif" font-size="10.00">sstream</text>
</g>
<!-- Node29&#45;&gt;Node30 -->
<g id="edge88" class="edge"><title>Node29&#45;&gt;Node30</title>
<path fill="none" stroke="midnightblue" d="M1306,-58.3619C1306,-50.9219 1306,-40.7427 1306,-31.7276"/>
<polygon fill="midnightblue" stroke="midnightblue" points="1309.5,-31.5706 1306,-21.5707 1302.5,-31.5707 1309.5,-31.5706"/>
</g>
<!-- Node31&#45;&gt;Node20 -->
<g id="edge98" class="edge"><title>Node31&#45;&gt;Node20</title>
<path fill="none" stroke="midnightblue" d="M109.842,-58.3619C94.7701,-49.532 73.1129,-36.844 56.0072,-26.8224"/>
<polygon fill="midnightblue" stroke="midnightblue" points="57.4406,-23.6058 47.043,-21.5707 53.9021,-29.6456 57.4406,-23.6058"/>
</g>
<!-- Node31&#45;&gt;Node21 -->
<g id="edge96" class="edge"><title>Node31&#45;&gt;Node21</title>
<path fill="none" stroke="midnightblue" d="M180.583,-60.1488C185.119,-59.4117 189.639,-58.6866 194,-58 294.582,-42.1631 413.362,-24.9493 472.917,-16.421"/>
<polygon fill="midnightblue" stroke="midnightblue" points="473.583,-19.8614 482.987,-14.981 472.592,-12.9319 473.583,-19.8614"/>
</g>
<!-- Node32 -->
<g id="node82" class="node"><title>Node32</title>
<polygon fill="white" stroke="#bfbfbf" points="101.5,-0.5 101.5,-21.5 154.5,-21.5 154.5,-0.5 101.5,-0.5"/>
<text text-anchor="middle" x="128" y="-8.5" font-family="Helvetica,sans-Serif" font-size="10.00">cxxabi.h</text>
</g>
<!-- Node31&#45;&gt;Node32 -->
<g id="edge100" class="edge"><title>Node31&#45;&gt;Node32</title>
<path fill="none" stroke="midnightblue" d="M128,-58.3619C128,-50.9219 128,-40.7427 128,-31.7276"/>
<polygon fill="midnightblue" stroke="midnightblue" points="131.5,-31.5706 128,-21.5707 124.5,-31.5707 131.5,-31.5706"/>
</g>
<!-- Node39&#45;&gt;Node5 -->
<g id="edge128" class="edge"><title>Node39&#45;&gt;Node5</title>
<path fill="none" stroke="midnightblue" d="M1631.38,-201.329C1584.65,-193.504 1499.03,-176.191 1481,-152 1467.31,-133.632 1476.27,-106.806 1485.34,-88.6644"/>
<polygon fill="midnightblue" stroke="midnightblue" points="1488.57,-90.0492 1490.25,-79.5883 1482.41,-86.7187 1488.57,-90.0492"/>
</g>
<!-- Node39&#45;&gt;Node11 -->
<g id="edge142" class="edge"><title>Node39&#45;&gt;Node11</title>
<path fill="none" stroke="midnightblue" d="M1631.49,-201.898C1583.44,-194.9 1487.62,-178.755 1410,-152 1407.28,-151.062 1404.49,-149.972 1401.74,-148.803"/>
<polygon fill="midnightblue" stroke="midnightblue" points="1403.14,-145.598 1392.6,-144.622 1400.23,-151.964 1403.14,-145.598"/>
</g>
<!-- Node39&#45;&gt;Node12 -->
<g id="edge144" class="edge"><title>Node39&#45;&gt;Node12</title>
<path fill="none" stroke="midnightblue" d="M1631.49,-199.842C1592.8,-191.498 1524.45,-174.963 1469,-152 1438.85,-139.514 1435.48,-127.665 1405,-116 1339.08,-90.7691 1316.41,-97.5866 1244.78,-80.3041"/>
<polygon fill="midnightblue" stroke="midnightblue" points="1245.37,-76.8458 1234.82,-77.8254 1243.68,-83.6383 1245.37,-76.8458"/>
</g>
<!-- Node39&#45;&gt;Node14 -->
<g id="edge138" class="edge"><title>Node39&#45;&gt;Node14</title>
<path fill="none" stroke="midnightblue" d="M1631.31,-203.473C1573.47,-198.136 1444.82,-183.521 1341,-152 1337.79,-151.027 1334.51,-149.856 1331.26,-148.585"/>
<polygon fill="midnightblue" stroke="midnightblue" points="1332.36,-145.247 1321.79,-144.566 1329.63,-151.692 1332.36,-145.247"/>
</g>
<!-- Node39&#45;&gt;Node18 -->
<g id="edge146" class="edge"><title>Node39&#45;&gt;Node18</title>
<path fill="none" stroke="midnightblue" d="M1631.38,-204.624C1470.68,-197.359 730.187,-163.381 683,-152 644.703,-142.763 639.586,-127.802 602,-116 581.168,-109.459 440.685,-83.8692 382.827,-73.4503"/>
<polygon fill="midnightblue" stroke="midnightblue" points="383.185,-69.9587 372.723,-71.634 381.946,-76.8482 383.185,-69.9587"/>
</g>
<!-- Node40 -->
<g id="node103" class="node"><title>Node40</title>
<polygon fill="white" stroke="#bfbfbf" points="1634,-123.5 1634,-144.5 1690,-144.5 1690,-123.5 1634,-123.5"/>
<text text-anchor="middle" x="1662" y="-131.5" font-family="Helvetica,sans-Serif" font-size="10.00">Rtypes.h</text>
</g>
<!-- Node39&#45;&gt;Node40 -->
<g id="edge126" class="edge"><title>Node39&#45;&gt;Node40</title>
<path fill="none" stroke="midnightblue" d="M1662,-195.376C1662,-184.741 1662,-168.095 1662,-154.82"/>
<polygon fill="midnightblue" stroke="midnightblue" points="1665.5,-154.667 1662,-144.667 1658.5,-154.667 1665.5,-154.667"/>
</g>
<!-- Node41 -->
<g id="node106" class="node"><title>Node41</title>
<a xlink:href="time_8h.html" target="_top" xlink:title="base/std_ext/time.h">
<polygon fill="white" stroke="black" points="1831.5,-123.5 1831.5,-144.5 1934.5,-144.5 1934.5,-123.5 1831.5,-123.5"/>
<text text-anchor="middle" x="1883" y="-131.5" font-family="Helvetica,sans-Serif" font-size="10.00">base/std_ext/time.h</text>
</a>
</g>
<!-- Node39&#45;&gt;Node41 -->
<g id="edge130" class="edge"><title>Node39&#45;&gt;Node41</title>
<path fill="none" stroke="midnightblue" d="M1692.73,-195.989C1731.35,-183.406 1797.81,-161.754 1841.08,-147.659"/>
<polygon fill="midnightblue" stroke="midnightblue" points="1842.32,-150.936 1850.74,-144.51 1840.15,-144.28 1842.32,-150.936"/>
</g>
<!-- Node43 -->
<g id="node111" class="node"><title>Node43</title>
<polygon fill="white" stroke="#bfbfbf" points="1932.5,-58.5 1932.5,-79.5 1973.5,-79.5 1973.5,-58.5 1932.5,-58.5"/>
<text text-anchor="middle" x="1953" y="-66.5" font-family="Helvetica,sans-Serif" font-size="10.00">ctime</text>
</g>
<!-- Node39&#45;&gt;Node43 -->
<g id="edge150" class="edge"><title>Node39&#45;&gt;Node43</title>
<path fill="none" stroke="midnightblue" d="M1692.58,-204.538C1758.19,-200.729 1909.29,-188.152 1943,-152 1958.4,-135.483 1958.77,-108.384 1956.7,-89.6672"/>
<polygon fill="midnightblue" stroke="midnightblue" points="1960.13,-88.9158 1955.25,-79.5124 1953.2,-89.9073 1960.13,-88.9158"/>
</g>
<!-- Node44 -->
<g id="node114" class="node"><title>Node44</title>
<polygon fill="white" stroke="#bfbfbf" points="1708,-123.5 1708,-144.5 1746,-144.5 1746,-123.5 1708,-123.5"/>
<text text-anchor="middle" x="1727" y="-131.5" font-family="Helvetica,sans-Serif" font-size="10.00">tuple</text>
</g>
<!-- Node39&#45;&gt;Node44 -->
<g id="edge140" class="edge"><title>Node39&#45;&gt;Node44</title>
<path fill="none" stroke="midnightblue" d="M1671.59,-195.376C1681.77,-184.103 1698.04,-166.075 1710.33,-152.468"/>
<polygon fill="midnightblue" stroke="midnightblue" points="1713.27,-154.436 1717.37,-144.667 1708.07,-149.745 1713.27,-154.436"/>
</g>
<!-- Node45 -->
<g id="node119" class="node"><title>Node45</title>
<polygon fill="white" stroke="#bfbfbf" points="1764,-123.5 1764,-144.5 1814,-144.5 1814,-123.5 1764,-123.5"/>
<text text-anchor="middle" x="1789" y="-131.5" font-family="Helvetica,sans-Serif" font-size="10.00">iomanip</text>
</g>
<!-- Node39&#45;&gt;Node45 -->
<g id="edge148" class="edge"><title>Node39&#45;&gt;Node45</title>
<path fill="none" stroke="midnightblue" d="M1680.74,-195.376C1702.03,-183.305 1736.98,-163.49 1761.39,-149.651"/>
<polygon fill="midnightblue" stroke="midnightblue" points="1763.21,-152.644 1770.18,-144.667 1759.76,-146.555 1763.21,-152.644"/>
</g>
<!-- Node41&#45;&gt;Node29 -->
<g id="edge132" class="edge"><title>Node41&#45;&gt;Node29</title>
<path fill="none" stroke="midnightblue" d="M1852.15,-123.454C1842.88,-120.635 1832.61,-117.859 1823,-116 1779.6,-107.606 1499.09,-84.4743 1370.37,-74.1235"/>
<polygon fill="midnightblue" stroke="midnightblue" points="1370.51,-70.623 1360.26,-73.3112 1369.95,-77.6005 1370.51,-70.623"/>
</g>
<!-- Node42 -->
<g id="node109" class="node"><title>Node42</title>
<polygon fill="white" stroke="#bfbfbf" points="1860,-58.5 1860,-79.5 1906,-79.5 1906,-58.5 1860,-58.5"/>
<text text-anchor="middle" x="1883" y="-66.5" font-family="Helvetica,sans-Serif" font-size="10.00">cstring</text>
</g>
<!-- Node41&#45;&gt;Node42 -->
<g id="edge134" class="edge"><title>Node41&#45;&gt;Node42</title>
<path fill="none" stroke="midnightblue" d="M1883,-123.267C1883,-114.18 1883,-100.892 1883,-89.7395"/>
<polygon fill="midnightblue" stroke="midnightblue" points="1886.5,-89.5337 1883,-79.5337 1879.5,-89.5337 1886.5,-89.5337"/>
</g>
<!-- Node41&#45;&gt;Node43 -->
<g id="edge136" class="edge"><title>Node41&#45;&gt;Node43</title>
<path fill="none" stroke="midnightblue" d="M1894.56,-123.267C1905.26,-113.328 1921.38,-98.3635 1933.98,-86.6645"/>
<polygon fill="midnightblue" stroke="midnightblue" points="1936.71,-88.903 1941.66,-79.5337 1931.95,-83.7735 1936.71,-88.903"/>
</g>
<!-- Node46&#45;&gt;Node2 -->
<g id="edge162" class="edge"><title>Node46&#45;&gt;Node2</title>
<path fill="none" stroke="midnightblue" d="M380.043,-390.362C367.043,-381.696 348.469,-369.313 333.573,-359.382"/>
<polygon fill="midnightblue" stroke="midnightblue" points="335.118,-356.206 324.856,-353.571 331.235,-362.03 335.118,-356.206"/>
</g>
<!-- Node46&#45;&gt;Node4 -->
<g id="edge164" class="edge"><title>Node46&#45;&gt;Node4</title>
<path fill="none" stroke="midnightblue" d="M424.283,-394.174C542.014,-365.761 994.33,-256.601 1150.56,-218.897"/>
<polygon fill="midnightblue" stroke="midnightblue" points="1151.52,-222.267 1160.41,-216.519 1149.87,-215.462 1151.52,-222.267"/>
</g>
<!-- Node46&#45;&gt;Node17 -->
<g id="edge168" class="edge"><title>Node46&#45;&gt;Node17</title>
<path fill="none" stroke="midnightblue" d="M395.463,-390.21C394.078,-366.362 389.569,-307.52 377,-260 367.982,-225.906 327.135,-130.93 308.871,-89.155"/>
<polygon fill="midnightblue" stroke="midnightblue" points="311.969,-87.5028 304.748,-79.7498 305.558,-90.3137 311.969,-87.5028"/>
</g>
<!-- Node46&#45;&gt;Node39 -->
<g id="edge166" class="edge"><title>Node46&#45;&gt;Node39</title>
<path fill="none" stroke="midnightblue" d="M424.044,-399.474C558.703,-391.625 1151.61,-351.111 1618,-224 1621.83,-222.956 1625.78,-221.668 1629.66,-220.265"/>
<polygon fill="midnightblue" stroke="midnightblue" points="1631.02,-223.492 1639.08,-216.614 1628.49,-216.966 1631.02,-223.492"/>
</g>
</g>
</svg>
