<?xml version="1.0" encoding="UTF-8" standalone="no"?>
<!DOCTYPE svg PUBLIC "-//W3C//DTD SVG 1.1//EN"
 "http://www.w3.org/Graphics/SVG/1.1/DTD/svg11.dtd">
<!-- Generated by graphviz version 2.26.3 (20100126.1600)
 -->
<!-- Title: src/calibration/modules/Time.h Pages: 1 -->
<svg width="546pt" height="188pt"
 viewBox="0.00 0.00 546.00 188.00" xmlns="http://www.w3.org/2000/svg" xmlns:xlink="http://www.w3.org/1999/xlink">
<g id="graph1" class="graph" transform="scale(1 1) rotate(0) translate(4 184)">
<title>src/calibration/modules/Time.h</title>
<polygon fill="white" stroke="white" points="-4,5 -4,-184 543,-184 543,5 -4,5"/>
<!-- Node1 -->
<g id="node1" class="node"><title>Node1</title>
<polygon fill="#bfbfbf" stroke="black" points="249.5,-145 249.5,-179 366.5,-179 366.5,-145 249.5,-145"/>
<text text-anchor="start" x="257.5" y="-166" font-family="Helvetica,sans-Serif" font-size="10.00">src/calibration/modules</text>
<text text-anchor="middle" x="308" y="-153" font-family="Helvetica,sans-Serif" font-size="10.00">/Time.h</text>
</g>
<!-- Node2 -->
<g id="node3" class="node"><title>Node2</title>
<a xlink:href="_t_a_p_s___time_8h.html" target="_top" xlink:title="src/calibration/modules\l/TAPS_Time.h">
<polygon fill="white" stroke="black" points="115.5,-73 115.5,-107 232.5,-107 232.5,-73 115.5,-73"/>
<text text-anchor="start" x="123.5" y="-94" font-family="Helvetica,sans-Serif" font-size="10.00">src/calibration/modules</text>
<text text-anchor="middle" x="174" y="-81" font-family="Helvetica,sans-Serif" font-size="10.00">/TAPS_Time.h</text>
</a>
</g>
<!-- Node1&#45;&gt;Node2 -->
<g id="edge2" class="edge"><title>Node1&#45;&gt;Node2</title>
<path fill="none" stroke="midnightblue" d="M267.21,-140.083C247.561,-129.525 224.341,-117.049 205.993,-107.19"/>
<polygon fill="midnightblue" stroke="midnightblue" points="265.778,-143.287 276.244,-144.937 269.092,-137.121 265.778,-143.287"/>
</g>
<!-- Node4 -->
<g id="node7" class="node"><title>Node4</title>
<a xlink:href="_setup__2014___e_p_t_8cc.html" target="_top" xlink:title="src/expconfig/setups\l/Setup_2014_EPT.cc">
<polygon fill="white" stroke="black" points="0,-1 0,-35 110,-35 110,-1 0,-1"/>
<text text-anchor="start" x="8" y="-22" font-family="Helvetica,sans-Serif" font-size="10.00">src/expconfig/setups</text>
<text text-anchor="middle" x="55" y="-9" font-family="Helvetica,sans-Serif" font-size="10.00">/Setup_2014_EPT.cc</text>
</a>
</g>
<!-- Node1&#45;&gt;Node4 -->
<g id="edge20" class="edge"><title>Node1&#45;&gt;Node4</title>
<path fill="none" stroke="midnightblue" d="M239.134,-149.346C189.513,-139.159 127.782,-123.952 107,-108 82.6651,-89.3206 67.7191,-55.7617 60.4235,-35.3223"/>
<polygon fill="midnightblue" stroke="midnightblue" points="238.705,-152.83 249.2,-151.379 240.091,-145.968 238.705,-152.83"/>
</g>
<!-- Node5 -->
<g id="node9" class="node"><title>Node5</title>
<a xlink:href="expconfig__helpers_8cc.html" target="_top" xlink:title="test/expconfig_helpers.cc">
<polygon fill="white" stroke="black" points="262,-7.5 262,-28.5 390,-28.5 390,-7.5 262,-7.5"/>
<text text-anchor="middle" x="326" y="-15.5" font-family="Helvetica,sans-Serif" font-size="10.00">test/expconfig_helpers.cc</text>
</a>
</g>
<!-- Node1&#45;&gt;Node5 -->
<g id="edge22" class="edge"><title>Node1&#45;&gt;Node5</title>
<path fill="none" stroke="midnightblue" d="M348.364,-138.861C359.006,-130.597 369.143,-120.243 375,-108 381.905,-93.5666 380.763,-86.9262 375,-72 368.07,-54.0492 352.095,-38.3779 340.259,-28.6075"/>
<polygon fill="midnightblue" stroke="midnightblue" points="346.244,-136.074 340.19,-144.769 350.345,-141.747 346.244,-136.074"/>
</g>
<!-- Node6 -->
<g id="node11" class="node"><title>Node6</title>
<a xlink:href="_t_a_p_s_veto___time_8h.html" target="_top" xlink:title="src/calibration/modules\l/TAPSVeto_Time.h">
<polygon fill="white" stroke="black" points="249.5,-73 249.5,-107 366.5,-107 366.5,-73 249.5,-73"/>
<text text-anchor="start" x="257.5" y="-94" font-family="Helvetica,sans-Serif" font-size="10.00">src/calibration/modules</text>
<text text-anchor="middle" x="308" y="-81" font-family="Helvetica,sans-Serif" font-size="10.00">/TAPSVeto_Time.h</text>
</a>
</g>
<!-- Node1&#45;&gt;Node6 -->
<g id="edge10" class="edge"><title>Node1&#45;&gt;Node6</title>
<path fill="none" stroke="midnightblue" d="M308,-134.719C308,-125.572 308,-115.625 308,-107.441"/>
<polygon fill="midnightblue" stroke="midnightblue" points="304.5,-134.937 308,-144.937 311.5,-134.937 304.5,-134.937"/>
</g>
<!-- Node8 -->
<g id="node17" class="node"><title>Node8</title>
<a xlink:href="calibration_2modules_2_time_8cc.html" target="_top" xlink:title="src/calibration/modules\l/Time.cc">
<polygon fill="white" stroke="black" points="421.5,-73 421.5,-107 538.5,-107 538.5,-73 421.5,-73"/>
<text text-anchor="start" x="429.5" y="-94" font-family="Helvetica,sans-Serif" font-size="10.00">src/calibration/modules</text>
<text text-anchor="middle" x="480" y="-81" font-family="Helvetica,sans-Serif" font-size="10.00">/Time.cc</text>
</a>
</g>
<!-- Node1&#45;&gt;Node8 -->
<g id="edge18" class="edge"><title>Node1&#45;&gt;Node8</title>
<path fill="none" stroke="midnightblue" d="M358.009,-141.066C383.817,-130.263 414.901,-117.251 439.233,-107.065"/>
<polygon fill="midnightblue" stroke="midnightblue" points="356.635,-137.847 348.762,-144.937 359.338,-144.304 356.635,-137.847"/>
</g>
<!-- Node3 -->
<g id="node5" class="node"><title>Node3</title>
<a xlink:href="_t_a_p_s___time_8cc.html" target="_top" xlink:title="src/calibration/modules\l/TAPS_Time.cc">
<polygon fill="white" stroke="black" points="127.5,-1 127.5,-35 244.5,-35 244.5,-1 127.5,-1"/>
<text text-anchor="start" x="135.5" y="-22" font-family="Helvetica,sans-Serif" font-size="10.00">src/calibration/modules</text>
<text text-anchor="middle" x="186" y="-9" font-family="Helvetica,sans-Serif" font-size="10.00">/TAPS_Time.cc</text>
</a>
</g>
<!-- Node2&#45;&gt;Node3 -->
<g id="edge4" class="edge"><title>Node2&#45;&gt;Node3</title>
<path fill="none" stroke="midnightblue" d="M178.497,-63.0173C180.035,-53.7884 181.714,-43.7144 183.093,-35.4407"/>
<polygon fill="midnightblue" stroke="midnightblue" points="175.036,-62.4976 176.844,-72.937 181.94,-63.6485 175.036,-62.4976"/>
</g>
<!-- Node2&#45;&gt;Node4 -->
<g id="edge6" class="edge"><title>Node2&#45;&gt;Node4</title>
<path fill="none" stroke="midnightblue" d="M137.064,-67.6522C119.768,-57.1871 99.4849,-44.9152 83.4113,-35.19"/>
<polygon fill="midnightblue" stroke="midnightblue" points="135.431,-70.7549 145.799,-72.937 139.055,-64.7658 135.431,-70.7549"/>
</g>
<!-- Node2&#45;&gt;Node5 -->
<g id="edge8" class="edge"><title>Node2&#45;&gt;Node5</title>
<path fill="none" stroke="midnightblue" d="M219.157,-68.6099C246.922,-55.4582 281.3,-39.1736 303.436,-28.688"/>
<polygon fill="midnightblue" stroke="midnightblue" points="217.561,-65.493 210.022,-72.937 220.558,-71.8192 217.561,-65.493"/>
</g>
<!-- Node6&#45;&gt;Node4 -->
<g id="edge14" class="edge"><title>Node6&#45;&gt;Node4</title>
<path fill="none" stroke="midnightblue" d="M239.515,-70.5101C198.984,-58.9756 148.31,-44.5545 110.326,-33.7451"/>
<polygon fill="midnightblue" stroke="midnightblue" points="238.745,-73.9299 249.321,-73.3008 240.661,-67.1972 238.745,-73.9299"/>
</g>
<!-- Node6&#45;&gt;Node5 -->
<g id="edge16" class="edge"><title>Node6&#45;&gt;Node5</title>
<path fill="none" stroke="midnightblue" d="M314.743,-63.0261C317.705,-51.1798 321.015,-37.9396 323.275,-28.901"/>
<polygon fill="midnightblue" stroke="midnightblue" points="311.296,-62.3867 312.266,-72.937 318.087,-64.0845 311.296,-62.3867"/>
</g>
<!-- Node7 -->
<g id="node13" class="node"><title>Node7</title>
<a xlink:href="_t_a_p_s_veto___time_8cc.html" target="_top" xlink:title="src/calibration/modules\l/TAPSVeto_Time.cc">
<polygon fill="white" stroke="black" points="407.5,-1 407.5,-35 524.5,-35 524.5,-1 407.5,-1"/>
<text text-anchor="start" x="415.5" y="-22" font-family="Helvetica,sans-Serif" font-size="10.00">src/calibration/modules</text>
<text text-anchor="middle" x="466" y="-9" font-family="Helvetica,sans-Serif" font-size="10.00">/TAPSVeto_Time.cc</text>
</a>
</g>
<!-- Node6&#45;&gt;Node7 -->
<g id="edge12" class="edge"><title>Node6&#45;&gt;Node7</title>
<path fill="none" stroke="midnightblue" d="M354.563,-68.7812C378.146,-58.0346 406.396,-45.1612 428.552,-35.0651"/>
<polygon fill="midnightblue" stroke="midnightblue" points="353.092,-65.6053 345.444,-72.937 355.995,-71.9751 353.092,-65.6053"/>
</g>
</g>
</svg>
