<?xml version="1.0" encoding="UTF-8" standalone="no"?>
<!DOCTYPE svg PUBLIC "-//W3C//DTD SVG 1.1//EN"
 "http://www.w3.org/Graphics/SVG/1.1/DTD/svg11.dtd">
<!-- Generated by graphviz version 2.26.3 (20100126.1600)
 -->
<!-- Title: ant::analysis::physics::Time Pages: 1 -->
<svg width="418pt" height="250pt"
 viewBox="0.00 0.00 418.00 250.00" xmlns="http://www.w3.org/2000/svg" xmlns:xlink="http://www.w3.org/1999/xlink">
<g id="graph1" class="graph" transform="scale(1 1) rotate(0) translate(4 246)">
<title>ant::analysis::physics::Time</title>
<polygon fill="white" stroke="white" points="-4,5 -4,-246 415,-246 415,5 -4,5"/>
<!-- Node1 -->
<g id="node1" class="node"><title>Node1</title>
<polygon fill="#bfbfbf" stroke="black" points="150,-104 150,-138 262,-138 262,-104 150,-104"/>
<text text-anchor="start" x="158" y="-125" font-family="Helvetica,sans-Serif" font-size="10.00">ant::analysis::physics</text>
<text text-anchor="middle" x="206" y="-112" font-family="Helvetica,sans-Serif" font-size="10.00">::Time</text>
</g>
<!-- Node3 -->
<g id="node5" class="node"><title>Node3</title>
<a xlink:href="structant_1_1analysis_1_1physics_1_1_c_b___time.html" target="_top" xlink:title="ant::analysis::physics\l::CB_Time">
<polygon fill="white" stroke="black" points="298,-208 298,-242 410,-242 410,-208 298,-208"/>
<text text-anchor="start" x="306" y="-229" font-family="Helvetica,sans-Serif" font-size="10.00">ant::analysis::physics</text>
<text text-anchor="middle" x="354" y="-216" font-family="Helvetica,sans-Serif" font-size="10.00">::CB_Time</text>
</a>
</g>
<!-- Node1&#45;&gt;Node3 -->
<g id="edge4" class="edge"><title>Node1&#45;&gt;Node3</title>
<path fill="none" stroke="midnightblue" d="M230.815,-145.248C248.553,-161.749 273.523,-183.347 298,-199 302.967,-202.176 308.384,-205.188 313.829,-207.959"/>
<polygon fill="midnightblue" stroke="midnightblue" points="232.877,-142.382 223.201,-138.065 228.073,-147.473 232.877,-142.382"/>
</g>
<!-- Node4 -->
<g id="node7" class="node"><title>Node4</title>
<a xlink:href="structant_1_1analysis_1_1physics_1_1_e_p_t___time.html" target="_top" xlink:title="ant::analysis::physics\l::EPT_Time">
<polygon fill="white" stroke="black" points="298,-156 298,-190 410,-190 410,-156 298,-156"/>
<text text-anchor="start" x="306" y="-177" font-family="Helvetica,sans-Serif" font-size="10.00">ant::analysis::physics</text>
<text text-anchor="middle" x="354" y="-164" font-family="Helvetica,sans-Serif" font-size="10.00">::EPT_Time</text>
</a>
</g>
<!-- Node1&#45;&gt;Node4 -->
<g id="edge6" class="edge"><title>Node1&#45;&gt;Node4</title>
<path fill="none" stroke="midnightblue" d="M264.232,-141.46C277.873,-146.253 292.263,-151.309 305.43,-155.935"/>
<polygon fill="midnightblue" stroke="midnightblue" points="265.056,-138.04 254.461,-138.027 262.735,-144.644 265.056,-138.04"/>
</g>
<!-- Node5 -->
<g id="node9" class="node"><title>Node5</title>
<a xlink:href="structant_1_1analysis_1_1physics_1_1_p_i_d___time.html" target="_top" xlink:title="ant::analysis::physics\l::PID_Time">
<polygon fill="white" stroke="black" points="298,-104 298,-138 410,-138 410,-104 298,-104"/>
<text text-anchor="start" x="306" y="-125" font-family="Helvetica,sans-Serif" font-size="10.00">ant::analysis::physics</text>
<text text-anchor="middle" x="354" y="-112" font-family="Helvetica,sans-Serif" font-size="10.00">::PID_Time</text>
</a>
</g>
<!-- Node1&#45;&gt;Node5 -->
<g id="edge8" class="edge"><title>Node1&#45;&gt;Node5</title>
<path fill="none" stroke="midnightblue" d="M272.558,-121C280.984,-121 289.539,-121 297.782,-121"/>
<polygon fill="midnightblue" stroke="midnightblue" points="272.375,-117.5 262.375,-121 272.375,-124.5 272.375,-117.5"/>
</g>
<!-- Node6 -->
<g id="node11" class="node"><title>Node6</title>
<a xlink:href="structant_1_1analysis_1_1physics_1_1_t_a_p_s___time.html" target="_top" xlink:title="ant::analysis::physics\l::TAPS_Time">
<polygon fill="white" stroke="black" points="298,-52 298,-86 410,-86 410,-52 298,-52"/>
<text text-anchor="start" x="306" y="-73" font-family="Helvetica,sans-Serif" font-size="10.00">ant::analysis::physics</text>
<text text-anchor="middle" x="354" y="-60" font-family="Helvetica,sans-Serif" font-size="10.00">::TAPS_Time</text>
</a>
</g>
<!-- Node1&#45;&gt;Node6 -->
<g id="edge10" class="edge"><title>Node1&#45;&gt;Node6</title>
<path fill="none" stroke="midnightblue" d="M264.232,-100.54C277.873,-95.7473 292.263,-90.6913 305.43,-86.065"/>
<polygon fill="midnightblue" stroke="midnightblue" points="262.735,-97.3562 254.461,-103.973 265.056,-103.96 262.735,-97.3562"/>
</g>
<!-- Node7 -->
<g id="node13" class="node"><title>Node7</title>
<a xlink:href="structant_1_1analysis_1_1physics_1_1_t_a_p_s_veto___time.html" target="_top" xlink:title="ant::analysis::physics\l::TAPSVeto_Time">
<polygon fill="white" stroke="black" points="298,-0 298,-34 410,-34 410,-0 298,-0"/>
<text text-anchor="start" x="306" y="-21" font-family="Helvetica,sans-Serif" font-size="10.00">ant::analysis::physics</text>
<text text-anchor="middle" x="354" y="-8" font-family="Helvetica,sans-Serif" font-size="10.00">::TAPSVeto_Time</text>
</a>
</g>
<!-- Node1&#45;&gt;Node7 -->
<g id="edge12" class="edge"><title>Node1&#45;&gt;Node7</title>
<path fill="none" stroke="midnightblue" d="M230.815,-96.7522C248.553,-80.2513 273.523,-58.653 298,-43 302.967,-39.8238 308.384,-36.8123 313.829,-34.0413"/>
<polygon fill="midnightblue" stroke="midnightblue" points="228.073,-94.5269 223.201,-103.935 232.877,-99.6184 228.073,-94.5269"/>
</g>
<!-- Node2 -->
<g id="node2" class="node"><title>Node2</title>
<a xlink:href="classant_1_1analysis_1_1_physics.html" target="_top" xlink:title="ant::analysis::Physics">
<polygon fill="white" stroke="black" points="0.5,-110.5 0.5,-131.5 113.5,-131.5 113.5,-110.5 0.5,-110.5"/>
<text text-anchor="middle" x="57" y="-118.5" font-family="Helvetica,sans-Serif" font-size="10.00">ant::analysis::Physics</text>
</a>
</g>
<!-- Node2&#45;&gt;Node1 -->
<g id="edge2" class="edge"><title>Node2&#45;&gt;Node1</title>
<path fill="none" stroke="midnightblue" d="M123.87,-121C132.565,-121 141.4,-121 149.895,-121"/>
<polygon fill="midnightblue" stroke="midnightblue" points="123.756,-117.5 113.756,-121 123.756,-124.5 123.756,-117.5"/>
</g>
</g>
</svg>
