<?xml version="1.0" encoding="UTF-8" standalone="no"?>
<!DOCTYPE svg PUBLIC "-//W3C//DTD SVG 1.1//EN"
 "http://www.w3.org/Graphics/SVG/1.1/DTD/svg11.dtd">
<!-- Generated by graphviz version 2.26.3 (20100126.1600)
 -->
<!-- Title: ant::analysis::input::DataReader Pages: 1 -->
<svg width="244pt" height="186pt"
 viewBox="0.00 0.00 244.00 186.00" xmlns="http://www.w3.org/2000/svg" xmlns:xlink="http://www.w3.org/1999/xlink">
<g id="graph1" class="graph" transform="scale(1 1) rotate(0) translate(4 182)">
<title>ant::analysis::input::DataReader</title>
<polygon fill="white" stroke="white" points="-4,5 -4,-182 241,-182 241,5 -4,5"/>
<!-- Node1 -->
<g id="node1" class="node"><title>Node1</title>
<polygon fill="#bfbfbf" stroke="black" points="0.5,-66 0.5,-100 99.5,-100 99.5,-66 0.5,-66"/>
<text text-anchor="start" x="8.5" y="-87" font-family="Helvetica,sans-Serif" font-size="10.00">ant::analysis::input</text>
<text text-anchor="middle" x="50" y="-74" font-family="Helvetica,sans-Serif" font-size="10.00">::DataReader</text>
</g>
<!-- Node2 -->
<g id="node3" class="node"><title>Node2</title>
<a xlink:href="classant_1_1analysis_1_1input_1_1_ant_reader.html" target="_top" xlink:title="ant::analysis::input\l::AntReader">
<polygon fill="white" stroke="black" points="136.5,-144 136.5,-178 235.5,-178 235.5,-144 136.5,-144"/>
<text text-anchor="start" x="144.5" y="-165" font-family="Helvetica,sans-Serif" font-size="10.00">ant::analysis::input</text>
<text text-anchor="middle" x="186" y="-152" font-family="Helvetica,sans-Serif" font-size="10.00">::AntReader</text>
</a>
</g>
<!-- Node1&#45;&gt;Node2 -->
<g id="edge2" class="edge"><title>Node1&#45;&gt;Node2</title>
<path fill="none" stroke="midnightblue" d="M85.8879,-105.405C101.197,-114.778 119.34,-125.645 136,-135 141.289,-137.97 146.949,-141.027 152.49,-143.954"/>
<polygon fill="midnightblue" stroke="midnightblue" points="87.5854,-102.34 77.2341,-100.081 83.9177,-108.302 87.5854,-102.34"/>
</g>
<!-- Node3 -->
<g id="node5" class="node"><title>Node3</title>
<a xlink:href="classant_1_1analysis_1_1input_1_1_goat_reader.html" target="_top" xlink:title="ant::analysis::input\l::GoatReader">
<polygon fill="white" stroke="black" points="136.5,-92 136.5,-126 235.5,-126 235.5,-92 136.5,-92"/>
<text text-anchor="start" x="144.5" y="-113" font-family="Helvetica,sans-Serif" font-size="10.00">ant::analysis::input</text>
<text text-anchor="middle" x="186" y="-100" font-family="Helvetica,sans-Serif" font-size="10.00">::GoatReader</text>
</a>
</g>
<!-- Node1&#45;&gt;Node3 -->
<g id="edge4" class="edge"><title>Node1&#45;&gt;Node3</title>
<path fill="none" stroke="midnightblue" d="M109.715,-94.4161C118.535,-96.1024 127.545,-97.8247 136.137,-99.4673"/>
<polygon fill="midnightblue" stroke="midnightblue" points="110.348,-90.9739 99.8691,-92.5338 109.034,-97.8494 110.348,-90.9739"/>
</g>
<!-- Node4 -->
<g id="node7" class="node"><title>Node4</title>
<a xlink:href="classant_1_1analysis_1_1input_1_1_pluto_reader.html" target="_top" xlink:title="ant::analysis::input\l::PlutoReader">
<polygon fill="white" stroke="black" points="136.5,-40 136.5,-74 235.5,-74 235.5,-40 136.5,-40"/>
<text text-anchor="start" x="144.5" y="-61" font-family="Helvetica,sans-Serif" font-size="10.00">ant::analysis::input</text>
<text text-anchor="middle" x="186" y="-48" font-family="Helvetica,sans-Serif" font-size="10.00">::PlutoReader</text>
</a>
</g>
<!-- Node1&#45;&gt;Node4 -->
<g id="edge6" class="edge"><title>Node1&#45;&gt;Node4</title>
<path fill="none" stroke="midnightblue" d="M109.715,-71.5839C118.535,-69.8976 127.545,-68.1753 136.137,-66.5327"/>
<polygon fill="midnightblue" stroke="midnightblue" points="109.034,-68.1506 99.8691,-73.4662 110.348,-75.0261 109.034,-68.1506"/>
</g>
<!-- Node5 -->
<g id="node9" class="node"><title>Node5</title>
<a xlink:href="class_s_l_c_fake_reader.html" target="_top" xlink:title="SLCFakeReader">
<polygon fill="white" stroke="black" points="141.5,-0.5 141.5,-21.5 230.5,-21.5 230.5,-0.5 141.5,-0.5"/>
<text text-anchor="middle" x="186" y="-8.5" font-family="Helvetica,sans-Serif" font-size="10.00">SLCFakeReader</text>
</a>
</g>
<!-- Node1&#45;&gt;Node5 -->
<g id="edge8" class="edge"><title>Node1&#45;&gt;Node5</title>
<path fill="none" stroke="midnightblue" d="M84.411,-60.4253C99.8562,-50.7587 118.506,-39.7146 136,-31 142.778,-27.6233 150.273,-24.3812 157.352,-21.5265"/>
<polygon fill="midnightblue" stroke="midnightblue" points="82.2957,-57.622 75.7204,-65.9296 86.0413,-63.5357 82.2957,-57.622"/>
</g>
</g>
</svg>
