<?xml version="1.0" encoding="UTF-8" standalone="no"?>
<!DOCTYPE svg PUBLIC "-//W3C//DTD SVG 1.1//EN"
 "http://www.w3.org/Graphics/SVG/1.1/DTD/svg11.dtd">
<!-- Generated by graphviz version 2.26.3 (20100126.1600)
 -->
<!-- Title: ant::calibration::gui::FitFunction Pages: 1 -->
<svg width="576pt" height="351pt"
 viewBox="0.00 0.00 576.00 351.00" xmlns="http://www.w3.org/2000/svg" xmlns:xlink="http://www.w3.org/1999/xlink">
<g id="graph1" class="graph" transform="scale(1 1) rotate(0) translate(4 347)">
<title>ant::calibration::gui::FitFunction</title>
<polygon fill="white" stroke="white" points="-4,5 -4,-347 573,-347 573,5 -4,5"/>
<!-- Node1 -->
<g id="node1" class="node"><title>Node1</title>
<polygon fill="#bfbfbf" stroke="black" points="0.5,-156 0.5,-190 99.5,-190 99.5,-156 0.5,-156"/>
<text text-anchor="start" x="8.5" y="-177" font-family="Helvetica,sans-Serif" font-size="10.00">ant::calibration::gui</text>
<text text-anchor="middle" x="50" y="-164" font-family="Helvetica,sans-Serif" font-size="10.00">::FitFunction</text>
</g>
<!-- Node2 -->
<g id="node3" class="node"><title>Node2</title>
<a xlink:href="classant_1_1calibration_1_1gui_1_1_fit_timewalk.html" target="_top" xlink:title="ant::calibration::gui\l::FitTimewalk">
<polygon fill="white" stroke="black" points="140.5,-182 140.5,-216 239.5,-216 239.5,-182 140.5,-182"/>
<text text-anchor="start" x="148.5" y="-203" font-family="Helvetica,sans-Serif" font-size="10.00">ant::calibration::gui</text>
<text text-anchor="middle" x="190" y="-190" font-family="Helvetica,sans-Serif" font-size="10.00">::FitTimewalk</text>
</a>
</g>
<!-- Node1&#45;&gt;Node2 -->
<g id="edge2" class="edge"><title>Node1&#45;&gt;Node2</title>
<path fill="none" stroke="midnightblue" d="M109.82,-184.109C120.018,-186.003 130.511,-187.952 140.407,-189.79"/>
<polygon fill="midnightblue" stroke="midnightblue" points="110.224,-180.625 99.753,-182.24 108.946,-187.507 110.224,-180.625"/>
</g>
<!-- Node3 -->
<g id="node5" class="node"><title>Node3</title>
<a xlink:href="classant_1_1calibration_1_1gui_1_1_peaking_fit_function.html" target="_top" xlink:title="Fit functions describing peak shapes, like Gaus or Loretnz with optional background function...">
<polygon fill="white" stroke="black" points="136.5,-130 136.5,-164 243.5,-164 243.5,-130 136.5,-130"/>
<text text-anchor="start" x="144.5" y="-151" font-family="Helvetica,sans-Serif" font-size="10.00">ant::calibration::gui</text>
<text text-anchor="middle" x="190" y="-138" font-family="Helvetica,sans-Serif" font-size="10.00">::PeakingFitFunction</text>
</a>
</g>
<!-- Node1&#45;&gt;Node3 -->
<g id="edge4" class="edge"><title>Node1&#45;&gt;Node3</title>
<path fill="none" stroke="midnightblue" d="M109.865,-161.882C118.592,-160.261 127.534,-158.601 136.132,-157.004"/>
<polygon fill="midnightblue" stroke="midnightblue" points="108.946,-158.493 99.753,-163.76 110.224,-165.375 108.946,-158.493"/>
</g>
<!-- Node4 -->
<g id="node7" class="node"><title>Node4</title>
<a xlink:href="classant_1_1calibration_1_1gui_1_1_fit_gaus.html" target="_top" xlink:title="ant::calibration::gui\l::FitGaus">
<polygon fill="white" stroke="black" points="280.5,-260 280.5,-294 379.5,-294 379.5,-260 280.5,-260"/>
<text text-anchor="start" x="288.5" y="-281" font-family="Helvetica,sans-Serif" font-size="10.00">ant::calibration::gui</text>
<text text-anchor="middle" x="330" y="-268" font-family="Helvetica,sans-Serif" font-size="10.00">::FitGaus</text>
</a>
</g>
<!-- Node3&#45;&gt;Node4 -->
<g id="edge6" class="edge"><title>Node3&#45;&gt;Node4</title>
<path fill="none" stroke="midnightblue" d="M241.114,-170.271C242.112,-171.152 243.076,-172.061 244,-173 270.777,-200.217 253.645,-223.374 280,-251 283.107,-254.257 286.711,-257.182 290.534,-259.791"/>
<polygon fill="midnightblue" stroke="midnightblue" points="242.981,-167.295 232.889,-164.07 238.767,-172.885 242.981,-167.295"/>
</g>
<!-- Node7 -->
<g id="node13" class="node"><title>Node7</title>
<a xlink:href="classant_1_1calibration_1_1gui_1_1_fit_gaus_pol0.html" target="_top" xlink:title="ant::calibration::gui\l::FitGausPol0">
<polygon fill="white" stroke="black" points="280.5,-208 280.5,-242 379.5,-242 379.5,-208 280.5,-208"/>
<text text-anchor="start" x="288.5" y="-229" font-family="Helvetica,sans-Serif" font-size="10.00">ant::calibration::gui</text>
<text text-anchor="middle" x="330" y="-216" font-family="Helvetica,sans-Serif" font-size="10.00">::FitGausPol0</text>
</a>
</g>
<!-- Node3&#45;&gt;Node7 -->
<g id="edge12" class="edge"><title>Node3&#45;&gt;Node7</title>
<path fill="none" stroke="midnightblue" d="M236.734,-168.854C239.214,-170.215 241.65,-171.601 244,-173 260.958,-183.098 263.2,-188.642 280,-199 284.914,-202.03 290.218,-205.044 295.473,-207.889"/>
<polygon fill="midnightblue" stroke="midnightblue" points="238.114,-165.625 227.635,-164.06 234.85,-171.818 238.114,-165.625"/>
</g>
<!-- Node9 -->
<g id="node17" class="node"><title>Node9</title>
<a xlink:href="classant_1_1calibration_1_1gui_1_1_fit_gaus_pol1.html" target="_top" xlink:title="ant::calibration::gui\l::FitGausPol1">
<polygon fill="white" stroke="black" points="280.5,-156 280.5,-190 379.5,-190 379.5,-156 280.5,-156"/>
<text text-anchor="start" x="288.5" y="-177" font-family="Helvetica,sans-Serif" font-size="10.00">ant::calibration::gui</text>
<text text-anchor="middle" x="330" y="-164" font-family="Helvetica,sans-Serif" font-size="10.00">::FitGausPol1</text>
</a>
</g>
<!-- Node3&#45;&gt;Node9 -->
<g id="edge16" class="edge"><title>Node3&#45;&gt;Node9</title>
<path fill="none" stroke="midnightblue" d="M253.716,-158.833C262.643,-160.491 271.707,-162.174 280.321,-163.774"/>
<polygon fill="midnightblue" stroke="midnightblue" points="254.198,-155.363 243.727,-156.978 252.92,-162.245 254.198,-155.363"/>
</g>
<!-- Node11 -->
<g id="node21" class="node"><title>Node11</title>
<a xlink:href="classant_1_1calibration_1_1gui_1_1_fit_gaus_pol3.html" target="_top" xlink:title="ant::calibration::gui\l::FitGausPol3">
<polygon fill="white" stroke="black" points="280.5,-104 280.5,-138 379.5,-138 379.5,-104 280.5,-104"/>
<text text-anchor="start" x="288.5" y="-125" font-family="Helvetica,sans-Serif" font-size="10.00">ant::calibration::gui</text>
<text text-anchor="middle" x="330" y="-112" font-family="Helvetica,sans-Serif" font-size="10.00">::FitGausPol3</text>
</a>
</g>
<!-- Node3&#45;&gt;Node11 -->
<g id="edge20" class="edge"><title>Node3&#45;&gt;Node11</title>
<path fill="none" stroke="midnightblue" d="M253.716,-135.167C262.643,-133.509 271.707,-131.826 280.321,-130.226"/>
<polygon fill="midnightblue" stroke="midnightblue" points="252.92,-131.755 243.727,-137.022 254.198,-138.637 252.92,-131.755"/>
</g>
<!-- Node13 -->
<g id="node25" class="node"><title>Node13</title>
<a xlink:href="classant_1_1calibration_1_1gui_1_1_fit_landau.html" target="_top" xlink:title="ant::calibration::gui\l::FitLandau">
<polygon fill="white" stroke="black" points="280.5,-52 280.5,-86 379.5,-86 379.5,-52 280.5,-52"/>
<text text-anchor="start" x="288.5" y="-73" font-family="Helvetica,sans-Serif" font-size="10.00">ant::calibration::gui</text>
<text text-anchor="middle" x="330" y="-60" font-family="Helvetica,sans-Serif" font-size="10.00">::FitLandau</text>
</a>
</g>
<!-- Node3&#45;&gt;Node13 -->
<g id="edge24" class="edge"><title>Node3&#45;&gt;Node13</title>
<path fill="none" stroke="midnightblue" d="M228.032,-124.527C243.992,-115.226 262.806,-104.431 280,-95 285.318,-92.0826 290.994,-89.0533 296.541,-86.1374"/>
<polygon fill="midnightblue" stroke="midnightblue" points="225.864,-121.74 218.998,-129.809 229.397,-127.783 225.864,-121.74"/>
</g>
<!-- Node14 -->
<g id="node27" class="node"><title>Node14</title>
<a xlink:href="classant_1_1calibration_1_1gui_1_1_fit_landau_pol0.html" target="_top" xlink:title="ant::calibration::gui\l::FitLandauPol0">
<polygon fill="white" stroke="black" points="280.5,-0 280.5,-34 379.5,-34 379.5,-0 280.5,-0"/>
<text text-anchor="start" x="288.5" y="-21" font-family="Helvetica,sans-Serif" font-size="10.00">ant::calibration::gui</text>
<text text-anchor="middle" x="330" y="-8" font-family="Helvetica,sans-Serif" font-size="10.00">::FitLandauPol0</text>
</a>
</g>
<!-- Node3&#45;&gt;Node14 -->
<g id="edge26" class="edge"><title>Node3&#45;&gt;Node14</title>
<path fill="none" stroke="midnightblue" d="M207.64,-121.608C224.335,-98.9206 251.089,-65.8336 280,-43 284.069,-39.786 288.597,-36.7885 293.218,-34.0554"/>
<polygon fill="midnightblue" stroke="midnightblue" points="204.775,-119.597 201.751,-129.751 210.447,-123.699 204.775,-119.597"/>
</g>
<!-- Node5 -->
<g id="node9" class="node"><title>Node5</title>
<a xlink:href="classant_1_1calibration_1_1gui_1_1_c_b_peak_function.html" target="_top" xlink:title="ant::calibration::gui\l::CBPeakFunction">
<polygon fill="white" stroke="black" points="442.5,-309 442.5,-343 541.5,-343 541.5,-309 442.5,-309"/>
<text text-anchor="start" x="450.5" y="-330" font-family="Helvetica,sans-Serif" font-size="10.00">ant::calibration::gui</text>
<text text-anchor="middle" x="492" y="-317" font-family="Helvetica,sans-Serif" font-size="10.00">::CBPeakFunction</text>
</a>
</g>
<!-- Node4&#45;&gt;Node5 -->
<g id="edge8" class="edge"><title>Node4&#45;&gt;Node5</title>
<path fill="none" stroke="midnightblue" d="M389.884,-295.113C407.106,-300.322 425.698,-305.946 442.238,-310.948"/>
<polygon fill="midnightblue" stroke="midnightblue" points="390.512,-291.647 379.927,-292.101 388.486,-298.347 390.512,-291.647"/>
</g>
<!-- Node6 -->
<g id="node11" class="node"><title>Node6</title>
<a xlink:href="class_p_i_d___phi_angle_1_1_the_g_u_i_1_1___fit_gauss.html" target="_top" xlink:title="The PID_PhiAngle::TheGUI::_FitGauss: override the SetDefaults for PID phi angle fits. ">
<polygon fill="white" stroke="black" points="416,-257 416,-291 568,-291 568,-257 416,-257"/>
<text text-anchor="start" x="424" y="-278" font-family="Helvetica,sans-Serif" font-size="10.00">ant::calibration::PID</text>
<text text-anchor="middle" x="492" y="-265" font-family="Helvetica,sans-Serif" font-size="10.00">_PhiAngle::TheGUI::_FitGauss</text>
</a>
</g>
<!-- Node4&#45;&gt;Node6 -->
<g id="edge10" class="edge"><title>Node4&#45;&gt;Node6</title>
<path fill="none" stroke="midnightblue" d="M389.976,-275.889C398.368,-275.734 407.084,-275.573 415.727,-275.412"/>
<polygon fill="midnightblue" stroke="midnightblue" points="389.861,-272.391 379.927,-276.075 389.99,-279.39 389.861,-272.391"/>
</g>
<!-- Node8 -->
<g id="node15" class="node"><title>Node8</title>
<a xlink:href="class_t_a_p_s_time_function.html" target="_top" xlink:title="TAPSTimeFunction">
<polygon fill="white" stroke="black" points="441,-214.5 441,-235.5 543,-235.5 543,-214.5 441,-214.5"/>
<text text-anchor="middle" x="492" y="-222.5" font-family="Helvetica,sans-Serif" font-size="10.00">TAPSTimeFunction</text>
</a>
</g>
<!-- Node7&#45;&gt;Node8 -->
<g id="edge14" class="edge"><title>Node7&#45;&gt;Node8</title>
<path fill="none" stroke="midnightblue" d="M390.117,-225C406.79,-225 424.73,-225 440.839,-225"/>
<polygon fill="midnightblue" stroke="midnightblue" points="389.927,-221.5 379.927,-225 389.927,-228.5 389.927,-221.5"/>
</g>
<!-- Node10 -->
<g id="node19" class="node"><title>Node10</title>
<a xlink:href="struct_fit_proton_peak.html" target="_top" xlink:title="FitProtonPeak">
<polygon fill="white" stroke="black" points="452.5,-162.5 452.5,-183.5 531.5,-183.5 531.5,-162.5 452.5,-162.5"/>
<text text-anchor="middle" x="492" y="-170.5" font-family="Helvetica,sans-Serif" font-size="10.00">FitProtonPeak</text>
</a>
</g>
<!-- Node9&#45;&gt;Node10 -->
<g id="edge18" class="edge"><title>Node9&#45;&gt;Node10</title>
<path fill="none" stroke="midnightblue" d="M389.945,-173C410.73,-173 433.502,-173 452.252,-173"/>
<polygon fill="midnightblue" stroke="midnightblue" points="389.927,-169.5 379.927,-173 389.927,-176.5 389.927,-169.5"/>
</g>
<!-- Node12 -->
<g id="node23" class="node"><title>Node12</title>
<a xlink:href="struct_fit_t_a_p_s___energy.html" target="_top" xlink:title="FitTAPS_Energy">
<polygon fill="white" stroke="black" points="447,-110.5 447,-131.5 537,-131.5 537,-110.5 447,-110.5"/>
<text text-anchor="middle" x="492" y="-118.5" font-family="Helvetica,sans-Serif" font-size="10.00">FitTAPS_Energy</text>
</a>
</g>
<!-- Node11&#45;&gt;Node12 -->
<g id="edge22" class="edge"><title>Node11&#45;&gt;Node12</title>
<path fill="none" stroke="midnightblue" d="M390.172,-121C408.959,-121 429.35,-121 446.916,-121"/>
<polygon fill="midnightblue" stroke="midnightblue" points="389.927,-117.5 379.927,-121 389.927,-124.5 389.927,-117.5"/>
</g>
</g>
</svg>
