<?xml version="1.0" encoding="UTF-8" standalone="no"?>
<!DOCTYPE svg PUBLIC "-//W3C//DTD SVG 1.1//EN"
 "http://www.w3.org/Graphics/SVG/1.1/DTD/svg11.dtd">
<!-- Generated by graphviz version 2.26.3 (20100126.1600)
 -->
<!-- Title: ant::analysis::physics::PID_Energy Pages: 1 -->
<svg width="632pt" height="94pt"
 viewBox="0.00 0.00 632.00 94.00" xmlns="http://www.w3.org/2000/svg" xmlns:xlink="http://www.w3.org/1999/xlink">
<g id="graph1" class="graph" transform="scale(1 1) rotate(0) translate(4 90)">
<title>ant::analysis::physics::PID_Energy</title>
<polygon fill="white" stroke="white" points="-4,5 -4,-90 629,-90 629,5 -4,5"/>
<!-- Node1 -->
<g id="node1" class="node"><title>Node1</title>
<polygon fill="#bfbfbf" stroke="black" points="512,-28 512,-62 624,-62 624,-28 512,-28"/>
<text text-anchor="start" x="520" y="-49" font-family="Helvetica,sans-Serif" font-size="10.00">ant::analysis::physics</text>
<text text-anchor="middle" x="568" y="-36" font-family="Helvetica,sans-Serif" font-size="10.00">::PID_Energy</text>
</g>
<!-- Node2 -->
<g id="node2" class="node"><title>Node2</title>
<a xlink:href="classant_1_1analysis_1_1_physics.html" target="_top" xlink:title="ant::analysis::Physics">
<polygon fill="white" stroke="black" points="260.5,-56.5 260.5,-77.5 373.5,-77.5 373.5,-56.5 260.5,-56.5"/>
<text text-anchor="middle" x="317" y="-64.5" font-family="Helvetica,sans-Serif" font-size="10.00">ant::analysis::Physics</text>
</a>
</g>
<!-- Node2&#45;&gt;Node1 -->
<g id="edge2" class="edge"><title>Node2&#45;&gt;Node1</title>
<path fill="none" stroke="midnightblue" d="M383.84,-61.1416C423.838,-57.6357 474.093,-53.2309 511.997,-49.9087"/>
<polygon fill="midnightblue" stroke="midnightblue" points="383.298,-57.6755 373.642,-62.0353 383.91,-64.6487 383.298,-57.6755"/>
</g>
<!-- Node3 -->
<g id="node4" class="node"><title>Node3</title>
<a xlink:href="classant_1_1analysis_1_1_histogram_factory.html" target="_top" xlink:title="ant::analysis::Histogram\lFactory">
<polygon fill="white" stroke="black" points="9.5,-52 9.5,-86 132.5,-86 132.5,-52 9.5,-52"/>
<text text-anchor="start" x="17.5" y="-73" font-family="Helvetica,sans-Serif" font-size="10.00">ant::analysis::Histogram</text>
<text text-anchor="middle" x="71" y="-60" font-family="Helvetica,sans-Serif" font-size="10.00">Factory</text>
</a>
</g>
<!-- Node3&#45;&gt;Node2 -->
<g id="edge4" class="edge"><title>Node3&#45;&gt;Node2</title>
<path fill="none" stroke="#9a32cd" stroke-dasharray="5,2" d="M143.081,-68.414C180.444,-68.1102 225.421,-67.7445 260.275,-67.4612"/>
<polygon fill="#9a32cd" stroke="#9a32cd" points="142.73,-64.9166 132.759,-68.4979 142.787,-71.9164 142.73,-64.9166"/>
<text text-anchor="middle" x="182" y="-72" font-family="Helvetica,sans-Serif" font-size="10.00"> HistFac</text>
</g>
<!-- Node4 -->
<g id="node6" class="node"><title>Node4</title>
<polygon fill="white" stroke="#bfbfbf" points="222,-3 222,-37 412,-37 412,-3 222,-3"/>
<text text-anchor="start" x="230" y="-24" font-family="Helvetica,sans-Serif" font-size="10.00">std::vector&lt; ant::analysis</text>
<text text-anchor="middle" x="317" y="-11" font-family="Helvetica,sans-Serif" font-size="10.00">::physics::PID_Energy::PerChannel_t &gt;</text>
</g>
<!-- Node4&#45;&gt;Node1 -->
<g id="edge6" class="edge"><title>Node4&#45;&gt;Node1</title>
<path fill="none" stroke="#9a32cd" stroke-dasharray="5,2" d="M422.232,-27.1283C445.873,-29.0621 470.819,-31.3634 494,-34 499.807,-34.6605 505.86,-35.4287 511.891,-36.2463"/>
<polygon fill="#9a32cd" stroke="#9a32cd" points="422.437,-23.6336 412.189,-26.3221 421.877,-30.6112 422.437,-23.6336"/>
<text text-anchor="middle" x="462" y="-38" font-family="Helvetica,sans-Serif" font-size="10.00"> h_perChannel</text>
</g>
<!-- Node5 -->
<g id="node8" class="node"><title>Node5</title>
<a xlink:href="structant_1_1analysis_1_1physics_1_1_p_i_d___energy_1_1_per_channel__t.html" target="_top" xlink:title="ant::analysis::physics\l::PID_Energy::PerChannel_t">
<polygon fill="white" stroke="black" points="0.5,-0 0.5,-34 141.5,-34 141.5,-0 0.5,-0"/>
<text text-anchor="start" x="8.5" y="-21" font-family="Helvetica,sans-Serif" font-size="10.00">ant::analysis::physics</text>
<text text-anchor="middle" x="71" y="-8" font-family="Helvetica,sans-Serif" font-size="10.00">::PID_Energy::PerChannel_t</text>
</a>
</g>
<!-- Node5&#45;&gt;Node4 -->
<g id="edge8" class="edge"><title>Node5&#45;&gt;Node4</title>
<path fill="none" stroke="#9a32cd" stroke-dasharray="5,2" d="M151.951,-17.9872C174.344,-18.2603 198.851,-18.5592 221.967,-18.8411"/>
<polygon fill="#9a32cd" stroke="#9a32cd" points="151.865,-14.486 141.823,-17.8637 151.78,-21.4855 151.865,-14.486"/>
<text text-anchor="middle" x="182" y="-22" font-family="Helvetica,sans-Serif" font-size="10.00"> elements</text>
</g>
</g>
</svg>
