<?xml version="1.0" encoding="UTF-8" standalone="no"?>
<!DOCTYPE svg PUBLIC "-//W3C//DTD SVG 1.1//EN"
 "http://www.w3.org/Graphics/SVG/1.1/DTD/svg11.dtd">
<!-- Generated by graphviz version 2.26.3 (20100126.1600)
 -->
<!-- Title: ant::analysis::utils::UncertaintyModels::MCExtracted Pages: 1 -->
<svg width="136pt" height="128pt"
 viewBox="0.00 0.00 136.00 128.00" xmlns="http://www.w3.org/2000/svg" xmlns:xlink="http://www.w3.org/1999/xlink">
<g id="graph1" class="graph" transform="scale(1 1) rotate(0) translate(4 124)">
<title>ant::analysis::utils::UncertaintyModels::MCExtracted</title>
<polygon fill="white" stroke="white" points="-4,5 -4,-124 133,-124 133,5 -4,5"/>
<!-- Node1 -->
<g id="node1" class="node"><title>Node1</title>
<polygon fill="#bfbfbf" stroke="black" points="9,-0.5 9,-47.5 119,-47.5 119,-0.5 9,-0.5"/>
<text text-anchor="start" x="17" y="-34.5" font-family="Helvetica,sans-Serif" font-size="10.00">ant::analysis::utils</text>
<text text-anchor="start" x="17" y="-21.5" font-family="Helvetica,sans-Serif" font-size="10.00">::UncertaintyModels::</text>
<text text-anchor="middle" x="64" y="-8.5" font-family="Helvetica,sans-Serif" font-size="10.00">MCExtracted</text>
</g>
<!-- Node2 -->
<g id="node2" class="node"><title>Node2</title>
<a xlink:href="classant_1_1analysis_1_1utils_1_1_fitter_1_1_uncertainty_model.html" target="_top" xlink:title="Virtual base class for different Uncertainty Models for kion fitter. Derive and implement the GetSigm...">
<polygon fill="white" stroke="black" points="0,-85 0,-119 128,-119 128,-85 0,-85"/>
<text text-anchor="start" x="8" y="-106" font-family="Helvetica,sans-Serif" font-size="10.00">ant::analysis::utils</text>
<text text-anchor="middle" x="64" y="-93" font-family="Helvetica,sans-Serif" font-size="10.00">::Fitter::UncertaintyModel</text>
</a>
</g>
<!-- Node2&#45;&gt;Node1 -->
<g id="edge2" class="edge"><title>Node2&#45;&gt;Node1</title>
<path fill="none" stroke="midnightblue" d="M64,-74.5793C64,-65.8339 64,-56.2342 64,-47.77"/>
<polygon fill="midnightblue" stroke="midnightblue" points="60.5001,-74.6892 64,-84.6893 67.5001,-74.6893 60.5001,-74.6892"/>
</g>
</g>
</svg>
