<?xml version="1.0" encoding="UTF-8" standalone="no"?>
<!DOCTYPE svg PUBLIC "-//W3C//DTD SVG 1.1//EN"
 "http://www.w3.org/Graphics/SVG/1.1/DTD/svg11.dtd">
<!-- Generated by graphviz version 2.26.3 (20100126.1600)
 -->
<!-- Title: ant::analysis::physics::OmegaEtaG2 Pages: 1 -->
<svg width="1662pt" height="503pt"
 viewBox="0.00 0.00 1662.00 503.00" xmlns="http://www.w3.org/2000/svg" xmlns:xlink="http://www.w3.org/1999/xlink">
<g id="graph1" class="graph" transform="scale(1 1) rotate(0) translate(4 499)">
<title>ant::analysis::physics::OmegaEtaG2</title>
<polygon fill="white" stroke="white" points="-4,5 -4,-499 1659,-499 1659,5 -4,5"/>
<!-- Node1 -->
<g id="node1" class="node"><title>Node1</title>
<polygon fill="#bfbfbf" stroke="black" points="1542,-188 1542,-222 1654,-222 1654,-188 1542,-188"/>
<text text-anchor="start" x="1550" y="-209" font-family="Helvetica,sans-Serif" font-size="10.00">ant::analysis::physics</text>
<text text-anchor="middle" x="1598" y="-196" font-family="Helvetica,sans-Serif" font-size="10.00">::OmegaEtaG2</text>
</g>
<!-- Node2 -->
<g id="node2" class="node"><title>Node2</title>
<a xlink:href="classant_1_1analysis_1_1physics_1_1_omega_base.html" target="_top" xlink:title="ant::analysis::physics\l::OmegaBase">
<polygon fill="white" stroke="black" points="1310,-399 1310,-433 1422,-433 1422,-399 1310,-399"/>
<text text-anchor="start" x="1318" y="-420" font-family="Helvetica,sans-Serif" font-size="10.00">ant::analysis::physics</text>
<text text-anchor="middle" x="1366" y="-407" font-family="Helvetica,sans-Serif" font-size="10.00">::OmegaBase</text>
</a>
</g>
<!-- Node2&#45;&gt;Node1 -->
<g id="edge2" class="edge"><title>Node2&#45;&gt;Node1</title>
<path fill="none" stroke="midnightblue" d="M1432.21,-405.677C1463.09,-398.007 1498.56,-384.76 1524,-362 1567.12,-323.425 1587.18,-254.4 1594.52,-222.298"/>
<polygon fill="midnightblue" stroke="midnightblue" points="1431.3,-402.294 1422.36,-407.976 1432.89,-409.111 1431.3,-402.294"/>
</g>
<!-- Node3 -->
<g id="node4" class="node"><title>Node3</title>
<a xlink:href="classant_1_1analysis_1_1_physics.html" target="_top" xlink:title="ant::analysis::Physics">
<polygon fill="white" stroke="black" points="978.5,-459.5 978.5,-480.5 1091.5,-480.5 1091.5,-459.5 978.5,-459.5"/>
<text text-anchor="middle" x="1035" y="-467.5" font-family="Helvetica,sans-Serif" font-size="10.00">ant::analysis::Physics</text>
</a>
</g>
<!-- Node3&#45;&gt;Node2 -->
<g id="edge4" class="edge"><title>Node3&#45;&gt;Node2</title>
<path fill="none" stroke="midnightblue" d="M1101.53,-460.232C1149.52,-453.055 1215.84,-442.874 1274,-433 1285.53,-431.043 1297.85,-428.842 1309.61,-426.689"/>
<polygon fill="midnightblue" stroke="midnightblue" points="1100.95,-456.779 1091.57,-461.716 1101.98,-463.703 1100.95,-456.779"/>
</g>
<!-- Node4 -->
<g id="node6" class="node"><title>Node4</title>
<a xlink:href="classant_1_1analysis_1_1_histogram_factory.html" target="_top" xlink:title="ant::analysis::Histogram\lFactory">
<polygon fill="white" stroke="black" points="628.5,-461 628.5,-495 751.5,-495 751.5,-461 628.5,-461"/>
<text text-anchor="start" x="636.5" y="-482" font-family="Helvetica,sans-Serif" font-size="10.00">ant::analysis::Histogram</text>
<text text-anchor="middle" x="690" y="-469" font-family="Helvetica,sans-Serif" font-size="10.00">Factory</text>
</a>
</g>
<!-- Node4&#45;&gt;Node3 -->
<g id="edge6" class="edge"><title>Node4&#45;&gt;Node3</title>
<path fill="none" stroke="#9a32cd" stroke-dasharray="5,2" d="M761.748,-476.336C826.088,-474.844 919.219,-472.685 978.429,-471.312"/>
<polygon fill="#9a32cd" stroke="#9a32cd" points="761.595,-472.839 751.679,-476.57 761.758,-479.837 761.595,-472.839"/>
<text text-anchor="middle" x="870" y="-479" font-family="Helvetica,sans-Serif" font-size="10.00"> HistFac</text>
</g>
<!-- Node5 -->
<g id="node8" class="node"><title>Node5</title>
<a xlink:href="classant_1_1analysis_1_1utils_1_1_a2_simple_geometry.html" target="_top" xlink:title="ant::analysis::utils\l::A2SimpleGeometry">
<polygon fill="white" stroke="black" points="981.5,-399 981.5,-433 1088.5,-433 1088.5,-399 981.5,-399"/>
<text text-anchor="start" x="989.5" y="-420" font-family="Helvetica,sans-Serif" font-size="10.00">ant::analysis::utils</text>
<text text-anchor="middle" x="1035" y="-407" font-family="Helvetica,sans-Serif" font-size="10.00">::A2SimpleGeometry</text>
</a>
</g>
<!-- Node5&#45;&gt;Node2 -->
<g id="edge8" class="edge"><title>Node5&#45;&gt;Node2</title>
<path fill="none" stroke="#9a32cd" stroke-dasharray="5,2" d="M1098.84,-416C1159.97,-416 1251.3,-416 1309.76,-416"/>
<polygon fill="#9a32cd" stroke="#9a32cd" points="1098.55,-412.5 1088.55,-416 1098.55,-419.5 1098.55,-412.5"/>
<text text-anchor="middle" x="1192" y="-420" font-family="Helvetica,sans-Serif" font-size="10.00"> geo</text>
</g>
<!-- Node6 -->
<g id="node10" class="node"><title>Node6</title>
<a xlink:href="classant_1_1interval.html" target="_top" xlink:title="ant::interval\&lt; double \&gt;">
<polygon fill="white" stroke="black" points="633,-406.5 633,-427.5 747,-427.5 747,-406.5 633,-406.5"/>
<text text-anchor="middle" x="690" y="-414.5" font-family="Helvetica,sans-Serif" font-size="10.00">ant::interval&lt; double &gt;</text>
</a>
</g>
<!-- Node6&#45;&gt;Node1 -->
<g id="edge24" class="edge"><title>Node6&#45;&gt;Node1</title>
<path fill="none" stroke="#9a32cd" stroke-dasharray="5,2" d="M757.045,-407.418C889.086,-387.827 1191.56,-339.371 1440,-273 1478.16,-262.806 1487.76,-259.697 1524,-244 1538.93,-237.536 1554.95,-229.263 1568.27,-222.001"/>
<polygon fill="#9a32cd" stroke="#9a32cd" points="756.458,-403.967 747.076,-408.891 757.48,-410.892 756.458,-403.967"/>
<text text-anchor="middle" x="1192" y="-377" font-family="Helvetica,sans-Serif" font-size="10.00"> photon_E_cb</text>
<text text-anchor="middle" x="1192" y="-364" font-family="Helvetica,sans-Serif" font-size="10.00">proton_theta</text>
<text text-anchor="middle" x="1192" y="-351" font-family="Helvetica,sans-Serif" font-size="10.00">photon_E_taps</text>
</g>
<!-- Node6&#45;&gt;Node5 -->
<g id="edge10" class="edge"><title>Node6&#45;&gt;Node5</title>
<path fill="none" stroke="#9a32cd" stroke-dasharray="5,2" d="M757.583,-416.804C823.106,-416.614 921.197,-416.33 981.481,-416.155"/>
<polygon fill="#9a32cd" stroke="#9a32cd" points="757.347,-413.305 747.357,-416.834 757.367,-420.305 757.347,-413.305"/>
<text text-anchor="middle" x="870" y="-446" font-family="Helvetica,sans-Serif" font-size="10.00"> cb_phi_hem1</text>
<text text-anchor="middle" x="870" y="-433" font-family="Helvetica,sans-Serif" font-size="10.00">cb_theta_region</text>
<text text-anchor="middle" x="870" y="-420" font-family="Helvetica,sans-Serif" font-size="10.00">taps_region</text>
</g>
<!-- Node7 -->
<g id="node12" class="node"><title>Node7</title>
<a xlink:href="classant_1_1printable__traits.html" target="_top" xlink:title="ant::printable_traits">
<polygon fill="white" stroke="black" points="285,-406.5 285,-427.5 385,-427.5 385,-406.5 285,-406.5"/>
<text text-anchor="middle" x="335" y="-414.5" font-family="Helvetica,sans-Serif" font-size="10.00">ant::printable_traits</text>
</a>
</g>
<!-- Node7&#45;&gt;Node6 -->
<g id="edge12" class="edge"><title>Node7&#45;&gt;Node6</title>
<path fill="none" stroke="midnightblue" d="M395.417,-417C461.824,-417 567.702,-417 632.801,-417"/>
<polygon fill="midnightblue" stroke="midnightblue" points="395.11,-413.5 385.11,-417 395.11,-420.5 395.11,-413.5"/>
</g>
<!-- Node8 -->
<g id="node14" class="node"><title>Node8</title>
<a xlink:href="structant_1_1analysis_1_1physics_1_1_omega_eta_g2_1_1_reaction_channel_list__t.html" target="_top" xlink:title="ant::analysis::physics\l::OmegaEtaG2::ReactionChannel\lList_t">
<polygon fill="white" stroke="black" points="1110.5,-171.5 1110.5,-218.5 1273.5,-218.5 1273.5,-171.5 1110.5,-171.5"/>
<text text-anchor="start" x="1118.5" y="-205.5" font-family="Helvetica,sans-Serif" font-size="10.00">ant::analysis::physics</text>
<text text-anchor="start" x="1118.5" y="-192.5" font-family="Helvetica,sans-Serif" font-size="10.00">::OmegaEtaG2::ReactionChannel</text>
<text text-anchor="middle" x="1192" y="-179.5" font-family="Helvetica,sans-Serif" font-size="10.00">List_t</text>
</a>
</g>
<!-- Node8&#45;&gt;Node1 -->
<g id="edge14" class="edge"><title>Node8&#45;&gt;Node1</title>
<path fill="none" stroke="#9a32cd" stroke-dasharray="5,2" d="M1283.56,-203.776C1350.23,-209.102 1442.69,-214.291 1524,-211 1529.8,-210.765 1535.84,-210.428 1541.87,-210.031"/>
<polygon fill="#9a32cd" stroke="#9a32cd" points="1283.76,-200.28 1273.51,-202.956 1283.19,-207.257 1283.76,-200.28"/>
<text text-anchor="middle" x="1366" y="-215" font-family="Helvetica,sans-Serif" font-size="10.00"> reaction_channels</text>
</g>
<!-- Node9 -->
<g id="node16" class="node"><title>Node9</title>
<polygon fill="white" stroke="#bfbfbf" points="780,-141.5 780,-188.5 960,-188.5 960,-141.5 780,-141.5"/>
<text text-anchor="start" x="788" y="-175.5" font-family="Helvetica,sans-Serif" font-size="10.00">std::map&lt; unsigned,</text>
<text text-anchor="start" x="788" y="-162.5" font-family="Helvetica,sans-Serif" font-size="10.00"> ant::analysis::physics</text>
<text text-anchor="middle" x="870" y="-149.5" font-family="Helvetica,sans-Serif" font-size="10.00">::OmegaEtaG2::ReactionChannel_t &gt;</text>
</g>
<!-- Node9&#45;&gt;Node8 -->
<g id="edge16" class="edge"><title>Node9&#45;&gt;Node8</title>
<path fill="none" stroke="#9a32cd" stroke-dasharray="5,2" d="M970.215,-174.337C1015.29,-178.536 1067.81,-183.43 1110.43,-187.4"/>
<polygon fill="#9a32cd" stroke="#9a32cd" points="970.405,-170.839 960.123,-173.397 969.755,-177.809 970.405,-170.839"/>
<text text-anchor="middle" x="1035" y="-189" font-family="Helvetica,sans-Serif" font-size="10.00"> channels</text>
</g>
<!-- Node10 -->
<g id="node18" class="node"><title>Node10</title>
<a xlink:href="structant_1_1analysis_1_1physics_1_1_omega_eta_g2_1_1_reaction_channel__t.html" target="_top" xlink:title="ant::analysis::physics\l::OmegaEtaG2::ReactionChannel_t">
<polygon fill="white" stroke="black" points="428.5,-148 428.5,-182 599.5,-182 599.5,-148 428.5,-148"/>
<text text-anchor="start" x="436.5" y="-169" font-family="Helvetica,sans-Serif" font-size="10.00">ant::analysis::physics</text>
<text text-anchor="middle" x="514" y="-156" font-family="Helvetica,sans-Serif" font-size="10.00">::OmegaEtaG2::ReactionChannel_t</text>
</a>
</g>
<!-- Node10&#45;&gt;Node9 -->
<g id="edge18" class="edge"><title>Node10&#45;&gt;Node9</title>
<path fill="none" stroke="#9a32cd" stroke-dasharray="5,2" d="M609.777,-165C662.603,-165 727.813,-165 779.739,-165"/>
<polygon fill="#9a32cd" stroke="#9a32cd" points="609.724,-161.5 599.724,-165 609.724,-168.5 609.724,-161.5"/>
<text text-anchor="middle" x="690" y="-169" font-family="Helvetica,sans-Serif" font-size="10.00"> elements</text>
</g>
<!-- Node11 -->
<g id="node20" class="node"><title>Node11</title>
<a xlink:title="STL class. ">
<polygon fill="white" stroke="#bfbfbf" points="134,-154.5 134,-175.5 194,-175.5 194,-154.5 134,-154.5"/>
<text text-anchor="middle" x="164" y="-162.5" font-family="Helvetica,sans-Serif" font-size="10.00">std::string</text>
</a>
</g>
<!-- Node11&#45;&gt;Node10 -->
<g id="edge20" class="edge"><title>Node11&#45;&gt;Node10</title>
<path fill="none" stroke="#9a32cd" stroke-dasharray="5,2" d="M204.423,-165C258.844,-165 357.053,-165 428.294,-165"/>
<polygon fill="#9a32cd" stroke="#9a32cd" points="204.144,-161.5 194.144,-165 204.144,-168.5 204.144,-161.5"/>
<text text-anchor="middle" x="227" y="-169" font-family="Helvetica,sans-Serif" font-size="10.00"> name</text>
</g>
<!-- Node16 -->
<g id="node31" class="node"><title>Node16</title>
<a xlink:href="structant_1_1_wrap_t_tree_1_1_r_o_o_t__branch__t.html" target="_top" xlink:title="ant::WrapTTree::ROOT\l_branch_t">
<polygon fill="white" stroke="black" points="275.5,-101 275.5,-135 394.5,-135 394.5,-101 275.5,-101"/>
<text text-anchor="start" x="283.5" y="-122" font-family="Helvetica,sans-Serif" font-size="10.00">ant::WrapTTree::ROOT</text>
<text text-anchor="middle" x="335" y="-109" font-family="Helvetica,sans-Serif" font-size="10.00">_branch_t</text>
</a>
</g>
<!-- Node11&#45;&gt;Node16 -->
<g id="edge34" class="edge"><title>Node11&#45;&gt;Node16</title>
<path fill="none" stroke="#9a32cd" stroke-dasharray="5,2" d="M182.456,-147.953C190.856,-141.193 201.301,-134.072 212,-130 231.852,-122.445 254.745,-118.939 275.357,-117.48"/>
<polygon fill="#9a32cd" stroke="#9a32cd" points="180.15,-145.32 174.804,-154.467 184.687,-150.65 180.15,-145.32"/>
<text text-anchor="middle" x="227" y="-134" font-family="Helvetica,sans-Serif" font-size="10.00"> Name</text>
</g>
<!-- Node25 -->
<g id="node50" class="node"><title>Node25</title>
<a xlink:href="structant_1_1analysis_1_1utils_1_1_kin_fitter_1_1_photon_beam_vector.html" target="_top" xlink:title="ant::analysis::utils\l::KinFitter::PhotonBeamVector">
<polygon fill="white" stroke="black" points="260,-338 260,-372 410,-372 410,-338 260,-338"/>
<text text-anchor="start" x="268" y="-359" font-family="Helvetica,sans-Serif" font-size="10.00">ant::analysis::utils</text>
<text text-anchor="middle" x="335" y="-346" font-family="Helvetica,sans-Serif" font-size="10.00">::KinFitter::PhotonBeamVector</text>
</a>
</g>
<!-- Node11&#45;&gt;Node25 -->
<g id="edge54" class="edge"><title>Node11&#45;&gt;Node25</title>
<path fill="none" stroke="#9a32cd" stroke-dasharray="5,2" d="M171.156,-185.16C183.984,-218.609 213.934,-285.769 260,-325 265.872,-330.001 272.683,-334.238 279.758,-337.808"/>
<polygon fill="#9a32cd" stroke="#9a32cd" points="174.355,-183.72 167.594,-175.563 167.792,-186.156 174.355,-183.72"/>
<text text-anchor="middle" x="227" y="-311" font-family="Helvetica,sans-Serif" font-size="10.00"> Name</text>
</g>
<!-- Node12 -->
<g id="node22" class="node"><title>Node12</title>
<a xlink:title="STL class. ">
<polygon fill="white" stroke="#bfbfbf" points="0.5,-148 0.5,-182 95.5,-182 95.5,-148 0.5,-148"/>
<text text-anchor="start" x="8.5" y="-169" font-family="Helvetica,sans-Serif" font-size="10.00">std::basic_string&lt;</text>
<text text-anchor="middle" x="48" y="-156" font-family="Helvetica,sans-Serif" font-size="10.00"> char &gt;</text>
</a>
</g>
<!-- Node12&#45;&gt;Node11 -->
<g id="edge22" class="edge"><title>Node12&#45;&gt;Node11</title>
<path fill="none" stroke="midnightblue" d="M105.582,-165C115.29,-165 125.014,-165 133.666,-165"/>
<polygon fill="midnightblue" stroke="midnightblue" points="105.516,-161.5 95.5163,-165 105.516,-168.5 105.516,-161.5"/>
</g>
<!-- Node13 -->
<g id="node25" class="node"><title>Node13</title>
<a xlink:href="structant_1_1analysis_1_1physics_1_1_omega_eta_g2_1_1_omega_tree__t.html" target="_top" xlink:title="ant::analysis::physics\l::OmegaEtaG2::OmegaTree_t">
<polygon fill="white" stroke="black" points="1292.5,-156 1292.5,-190 1439.5,-190 1439.5,-156 1292.5,-156"/>
<text text-anchor="start" x="1300.5" y="-177" font-family="Helvetica,sans-Serif" font-size="10.00">ant::analysis::physics</text>
<text text-anchor="middle" x="1366" y="-164" font-family="Helvetica,sans-Serif" font-size="10.00">::OmegaEtaG2::OmegaTree_t</text>
</a>
</g>
<!-- Node13&#45;&gt;Node1 -->
<g id="edge26" class="edge"><title>Node13&#45;&gt;Node1</title>
<path fill="none" stroke="#9a32cd" stroke-dasharray="5,2" d="M1449.94,-184.578C1480.47,-188.789 1514.22,-193.443 1541.77,-197.244"/>
<polygon fill="#9a32cd" stroke="#9a32cd" points="1450.11,-181.068 1439.73,-183.169 1449.15,-188.003 1450.11,-181.068"/>
<text text-anchor="middle" x="1491" y="-198" font-family="Helvetica,sans-Serif" font-size="10.00"> t</text>
</g>
<!-- Node14 -->
<g id="node27" class="node"><title>Node14</title>
<a xlink:href="structant_1_1_wrap_t_tree.html" target="_top" xlink:title="The WrapTTree struct simplifies TTree handling in physics classes. ">
<polygon fill="white" stroke="black" points="992.5,-117.5 992.5,-138.5 1077.5,-138.5 1077.5,-117.5 992.5,-117.5"/>
<text text-anchor="middle" x="1035" y="-125.5" font-family="Helvetica,sans-Serif" font-size="10.00">ant::WrapTTree</text>
</a>
</g>
<!-- Node14&#45;&gt;Node13 -->
<g id="edge28" class="edge"><title>Node14&#45;&gt;Node13</title>
<path fill="none" stroke="midnightblue" d="M1087.53,-135.141C1142.79,-142.654 1230.2,-154.538 1292.34,-162.986"/>
<polygon fill="midnightblue" stroke="midnightblue" points="1087.98,-131.67 1077.59,-133.791 1087.03,-138.606 1087.98,-131.67"/>
</g>
<!-- Node15 -->
<g id="node29" class="node"><title>Node15</title>
<polygon fill="white" stroke="#bfbfbf" points="620,-95 620,-129 760,-129 760,-95 620,-95"/>
<text text-anchor="start" x="628" y="-116" font-family="Helvetica,sans-Serif" font-size="10.00">std::vector&lt; ant::WrapTTree</text>
<text text-anchor="middle" x="690" y="-103" font-family="Helvetica,sans-Serif" font-size="10.00">::ROOT_branch_t &gt;</text>
</g>
<!-- Node15&#45;&gt;Node14 -->
<g id="edge30" class="edge"><title>Node15&#45;&gt;Node14</title>
<path fill="none" stroke="#9a32cd" stroke-dasharray="5,2" d="M770.173,-112.117C823.936,-112.678 896.294,-114.362 960,-119 970.464,-119.762 981.712,-120.926 992.232,-122.168"/>
<polygon fill="#9a32cd" stroke="#9a32cd" points="770.049,-108.616 760.017,-112.022 769.984,-115.616 770.049,-108.616"/>
<text text-anchor="middle" x="870" y="-123" font-family="Helvetica,sans-Serif" font-size="10.00"> branches</text>
</g>
<!-- Node16&#45;&gt;Node15 -->
<g id="edge32" class="edge"><title>Node16&#45;&gt;Node15</title>
<path fill="none" stroke="#9a32cd" stroke-dasharray="5,2" d="M404.934,-116.818C467.127,-115.767 557.605,-114.238 619.861,-113.185"/>
<polygon fill="#9a32cd" stroke="#9a32cd" points="404.759,-113.32 394.819,-116.989 404.877,-120.319 404.759,-113.32"/>
<text text-anchor="middle" x="514" y="-121" font-family="Helvetica,sans-Serif" font-size="10.00"> elements</text>
</g>
<!-- Node17 -->
<g id="node34" class="node"><title>Node17</title>
<polygon fill="white" stroke="#bfbfbf" points="1313,-104 1313,-138 1419,-138 1419,-104 1313,-104"/>
<text text-anchor="start" x="1321" y="-125" font-family="Helvetica,sans-Serif" font-size="10.00">std::map&lt; unsigned,</text>
<text text-anchor="middle" x="1366" y="-112" font-family="Helvetica,sans-Serif" font-size="10.00"> TH1D * &gt;</text>
</g>
<!-- Node17&#45;&gt;Node1 -->
<g id="edge36" class="edge"><title>Node17&#45;&gt;Node1</title>
<path fill="none" stroke="#9a32cd" stroke-dasharray="5,2" d="M1428.72,-137.588C1458.03,-145.965 1493.19,-156.912 1524,-169 1537.96,-174.479 1552.92,-181.519 1565.71,-187.919"/>
<polygon fill="#9a32cd" stroke="#9a32cd" points="1429.59,-134.197 1419.02,-134.848 1427.69,-140.934 1429.59,-134.197"/>
<text text-anchor="middle" x="1491" y="-173" font-family="Helvetica,sans-Serif" font-size="10.00"> stephists</text>
</g>
<!-- Node18 -->
<g id="node36" class="node"><title>Node18</title>
<polygon fill="white" stroke="#bfbfbf" points="1306.5,-52 1306.5,-86 1425.5,-86 1425.5,-52 1306.5,-52"/>
<text text-anchor="start" x="1314.5" y="-73" font-family="Helvetica,sans-Serif" font-size="10.00">std::vector&lt; std::vector</text>
<text text-anchor="middle" x="1366" y="-60" font-family="Helvetica,sans-Serif" font-size="10.00">&lt; std::size_t &gt; &gt;</text>
</g>
<!-- Node18&#45;&gt;Node1 -->
<g id="edge38" class="edge"><title>Node18&#45;&gt;Node1</title>
<path fill="none" stroke="#9a32cd" stroke-dasharray="5,2" d="M1435.34,-88.226C1464.21,-98.0915 1497.17,-111.903 1524,-130 1548.11,-146.265 1570.82,-171.257 1584.56,-187.862"/>
<polygon fill="#9a32cd" stroke="#9a32cd" points="1436.32,-84.8624 1425.73,-85.0311 1434.11,-91.5054 1436.32,-84.8624"/>
<text text-anchor="middle" x="1491" y="-134" font-family="Helvetica,sans-Serif" font-size="10.00"> combs</text>
</g>
<!-- Node19 -->
<g id="node38" class="node"><title>Node19</title>
<a xlink:href="classant_1_1analysis_1_1utils_1_1_kin_fitter.html" target="_top" xlink:title="ant::analysis::utils\l::KinFitter">
<polygon fill="white" stroke="black" points="987,-258 987,-292 1083,-292 1083,-258 987,-258"/>
<text text-anchor="start" x="995" y="-279" font-family="Helvetica,sans-Serif" font-size="10.00">ant::analysis::utils</text>
<text text-anchor="middle" x="1035" y="-266" font-family="Helvetica,sans-Serif" font-size="10.00">::KinFitter</text>
</a>
</g>
<!-- Node19&#45;&gt;Node1 -->
<g id="edge40" class="edge"><title>Node19&#45;&gt;Node1</title>
<path fill="none" stroke="#9a32cd" stroke-dasharray="5,2" d="M1093.5,-272.089C1185.68,-266.815 1370.07,-253.476 1524,-225 1529.76,-223.935 1535.72,-222.645 1541.65,-221.239"/>
<polygon fill="#9a32cd" stroke="#9a32cd" points="1093.05,-268.609 1083.26,-272.663 1093.44,-275.598 1093.05,-268.609"/>
<text text-anchor="middle" x="1366" y="-260" font-family="Helvetica,sans-Serif" font-size="10.00"> fitter</text>
</g>
<!-- Node20 -->
<g id="node40" class="node"><title>Node20</title>
<a xlink:href="classant_1_1analysis_1_1utils_1_1_fitter.html" target="_top" xlink:title="ant::analysis::utils\l::Fitter">
<polygon fill="white" stroke="black" points="642,-288 642,-322 738,-322 738,-288 642,-288"/>
<text text-anchor="start" x="650" y="-309" font-family="Helvetica,sans-Serif" font-size="10.00">ant::analysis::utils</text>
<text text-anchor="middle" x="690" y="-296" font-family="Helvetica,sans-Serif" font-size="10.00">::Fitter</text>
</a>
</g>
<!-- Node20&#45;&gt;Node19 -->
<g id="edge42" class="edge"><title>Node20&#45;&gt;Node19</title>
<path fill="none" stroke="midnightblue" d="M748.333,-299.928C815.487,-294.088 924.536,-284.606 986.993,-279.175"/>
<polygon fill="midnightblue" stroke="midnightblue" points="747.993,-296.444 738.334,-300.797 748.6,-303.417 747.993,-296.444"/>
</g>
<!-- Node21 -->
<g id="node42" class="node"><title>Node21</title>
<polygon fill="white" stroke="#bfbfbf" points="265,-294.5 265,-315.5 405,-315.5 405,-294.5 265,-294.5"/>
<text text-anchor="middle" x="335" y="-302.5" font-family="Helvetica,sans-Serif" font-size="10.00">std::unique_ptr&lt; APLCON &gt;</text>
</g>
<!-- Node21&#45;&gt;Node20 -->
<g id="edge44" class="edge"><title>Node21&#45;&gt;Node20</title>
<path fill="none" stroke="#9a32cd" stroke-dasharray="5,2" d="M415.21,-305C484.965,-305 583.729,-305 641.897,-305"/>
<polygon fill="#9a32cd" stroke="#9a32cd" points="415.137,-301.5 405.137,-305 415.137,-308.5 415.137,-301.5"/>
<text text-anchor="middle" x="514" y="-309" font-family="Helvetica,sans-Serif" font-size="10.00"> aplcon</text>
</g>
<!-- Node22 -->
<g id="node44" class="node"><title>Node22</title>
<polygon fill="white" stroke="#bfbfbf" points="629.5,-236 629.5,-270 750.5,-270 750.5,-236 629.5,-236"/>
<text text-anchor="start" x="637.5" y="-257" font-family="Helvetica,sans-Serif" font-size="10.00">std::vector&lt; std::shared</text>
<text text-anchor="middle" x="690" y="-244" font-family="Helvetica,sans-Serif" font-size="10.00">_ptr&lt; FitParticle &gt; &gt;</text>
</g>
<!-- Node22&#45;&gt;Node19 -->
<g id="edge46" class="edge"><title>Node22&#45;&gt;Node19</title>
<path fill="none" stroke="#9a32cd" stroke-dasharray="5,2" d="M760.858,-249.8C815.492,-248.358 892.816,-248.546 960,-257 968.769,-258.103 978.001,-259.834 986.875,-261.796"/>
<polygon fill="#9a32cd" stroke="#9a32cd" points="760.48,-246.31 750.586,-250.098 760.683,-253.307 760.48,-246.31"/>
<text text-anchor="middle" x="870" y="-261" font-family="Helvetica,sans-Serif" font-size="10.00"> Photons</text>
</g>
<!-- Node23 -->
<g id="node46" class="node"><title>Node23</title>
<polygon fill="white" stroke="#bfbfbf" points="618.5,-196.5 618.5,-217.5 761.5,-217.5 761.5,-196.5 618.5,-196.5"/>
<text text-anchor="middle" x="690" y="-204.5" font-family="Helvetica,sans-Serif" font-size="10.00">std::unique_ptr&lt; FitParticle &gt;</text>
</g>
<!-- Node23&#45;&gt;Node19 -->
<g id="edge48" class="edge"><title>Node23&#45;&gt;Node19</title>
<path fill="none" stroke="#9a32cd" stroke-dasharray="5,2" d="M771.859,-205.592C826.339,-206.818 898.861,-212.654 960,-232 978.317,-237.796 997.067,-248.546 1011.24,-257.847"/>
<polygon fill="#9a32cd" stroke="#9a32cd" points="771.619,-202.087 761.558,-205.41 771.495,-209.086 771.619,-202.087"/>
<text text-anchor="middle" x="870" y="-236" font-family="Helvetica,sans-Serif" font-size="10.00"> Proton</text>
</g>
<!-- Node24 -->
<g id="node48" class="node"><title>Node24</title>
<polygon fill="white" stroke="#bfbfbf" points="627.5,-340.5 627.5,-387.5 752.5,-387.5 752.5,-340.5 627.5,-340.5"/>
<text text-anchor="start" x="635.5" y="-374.5" font-family="Helvetica,sans-Serif" font-size="10.00">std::unique_ptr&lt; ant</text>
<text text-anchor="start" x="635.5" y="-361.5" font-family="Helvetica,sans-Serif" font-size="10.00">::analysis::utils::KinFitter</text>
<text text-anchor="middle" x="690" y="-348.5" font-family="Helvetica,sans-Serif" font-size="10.00">::PhotonBeamVector &gt;</text>
</g>
<!-- Node24&#45;&gt;Node19 -->
<g id="edge50" class="edge"><title>Node24&#45;&gt;Node19</title>
<path fill="none" stroke="#9a32cd" stroke-dasharray="5,2" d="M751.778,-336.065C755.249,-334.378 758.676,-332.682 762,-331 770.166,-326.868 771.312,-323.877 780,-321 856.615,-295.625 881.047,-313.741 960,-297 968.761,-295.142 977.99,-292.78 986.863,-290.297"/>
<polygon fill="#9a32cd" stroke="#9a32cd" points="750.034,-333.02 742.528,-340.498 753.059,-339.332 750.034,-333.02"/>
<text text-anchor="middle" x="870" y="-325" font-family="Helvetica,sans-Serif" font-size="10.00"> Beam</text>
</g>
<!-- Node25&#45;&gt;Node24 -->
<g id="edge52" class="edge"><title>Node25&#45;&gt;Node24</title>
<path fill="none" stroke="#9a32cd" stroke-dasharray="5,2" d="M420.319,-357.163C484.053,-358.779 569.733,-360.951 627.261,-362.409"/>
<polygon fill="#9a32cd" stroke="#9a32cd" points="420.372,-353.663 410.286,-356.909 420.194,-360.661 420.372,-353.663"/>
<text text-anchor="middle" x="514" y="-365" font-family="Helvetica,sans-Serif" font-size="10.00"> ptr</text>
</g>
<!-- Node26 -->
<g id="node53" class="node"><title>Node26</title>
<a xlink:href="classant_1_1analysis_1_1_prompt_random_1_1_switch.html" target="_top" xlink:title="ant::analysis::PromptRandom\l::Switch">
<polygon fill="white" stroke="black" points="1293,-0 1293,-34 1439,-34 1439,-0 1293,-0"/>
<text text-anchor="start" x="1301" y="-21" font-family="Helvetica,sans-Serif" font-size="10.00">ant::analysis::PromptRandom</text>
<text text-anchor="middle" x="1366" y="-8" font-family="Helvetica,sans-Serif" font-size="10.00">::Switch</text>
</a>
</g>
<!-- Node26&#45;&gt;Node1 -->
<g id="edge56" class="edge"><title>Node26&#45;&gt;Node1</title>
<path fill="none" stroke="#9a32cd" stroke-dasharray="5,2" d="M1447.55,-37.435C1474.14,-47.0714 1502.36,-60.8021 1524,-80 1558.53,-110.625 1581.5,-161.341 1591.8,-187.775"/>
<polygon fill="#9a32cd" stroke="#9a32cd" points="1448.44,-34.0383 1437.84,-34.0675 1446.14,-40.6516 1448.44,-34.0383"/>
<text text-anchor="middle" x="1491" y="-84" font-family="Helvetica,sans-Serif" font-size="10.00"> promptrandom</text>
</g>
</g>
</svg>
