<?xml version="1.0" encoding="UTF-8" standalone="no"?>
<!DOCTYPE svg PUBLIC "-//W3C//DTD SVG 1.1//EN"
 "http://www.w3.org/Graphics/SVG/1.1/DTD/svg11.dtd">
<!-- Generated by graphviz version 2.26.3 (20100126.1600)
 -->
<!-- Title: ant::UnpackerAcquConfig Pages: 1 -->
<svg width="980pt" height="614pt"
 viewBox="0.00 0.00 980.00 614.00" xmlns="http://www.w3.org/2000/svg" xmlns:xlink="http://www.w3.org/1999/xlink">
<g id="graph1" class="graph" transform="scale(1 1) rotate(0) translate(4 610)">
<title>ant::UnpackerAcquConfig</title>
<polygon fill="white" stroke="white" points="-4,5 -4,-610 977,-610 977,5 -4,5"/>
<!-- Node1 -->
<g id="node1" class="node"><title>Node1</title>
<polygon fill="#bfbfbf" stroke="black" points="312.5,-266.5 312.5,-287.5 441.5,-287.5 441.5,-266.5 312.5,-266.5"/>
<text text-anchor="middle" x="377" y="-274.5" font-family="Helvetica,sans-Serif" font-size="10.00">ant::UnpackerAcquConfig</text>
</g>
<!-- Node4 -->
<g id="node7" class="node"><title>Node4</title>
<a xlink:href="structant_1_1expconfig_1_1detector_1_1_c_b.html" target="_top" xlink:title="ant::expconfig::detector::CB">
<polygon fill="white" stroke="black" points="481,-450.5 481,-471.5 621,-471.5 621,-450.5 481,-450.5"/>
<text text-anchor="middle" x="551" y="-458.5" font-family="Helvetica,sans-Serif" font-size="10.00">ant::expconfig::detector::CB</text>
</a>
</g>
<!-- Node1&#45;&gt;Node4 -->
<g id="edge6" class="edge"><title>Node1&#45;&gt;Node4</title>
<path fill="none" stroke="midnightblue" d="M383.842,-297.309C396.641,-332.15 427.56,-403.201 478,-441 483.153,-444.861 489.007,-447.977 495.106,-450.492"/>
<polygon fill="midnightblue" stroke="midnightblue" points="387.089,-295.993 380.451,-287.736 380.491,-298.331 387.089,-295.993"/>
</g>
<!-- Node5 -->
<g id="node9" class="node"><title>Node5</title>
<a xlink:href="structant_1_1expconfig_1_1detector_1_1_e_p_t.html" target="_top" xlink:title="ant::expconfig::detector::EPT">
<polygon fill="white" stroke="black" points="478.5,-410.5 478.5,-431.5 623.5,-431.5 623.5,-410.5 478.5,-410.5"/>
<text text-anchor="middle" x="551" y="-418.5" font-family="Helvetica,sans-Serif" font-size="10.00">ant::expconfig::detector::EPT</text>
</a>
</g>
<!-- Node1&#45;&gt;Node5 -->
<g id="edge8" class="edge"><title>Node1&#45;&gt;Node5</title>
<path fill="none" stroke="midnightblue" d="M387.638,-296.587C403.603,-324.11 436.377,-373.888 478,-401 483.836,-404.801 490.384,-407.886 497.1,-410.387"/>
<polygon fill="midnightblue" stroke="midnightblue" points="390.671,-294.84 382.705,-287.854 384.576,-298.282 390.671,-294.84"/>
</g>
<!-- Node7 -->
<g id="node13" class="node"><title>Node7</title>
<a xlink:href="structant_1_1expconfig_1_1detector_1_1_p_i_d.html" target="_top" xlink:title="ant::expconfig::detector::PID">
<polygon fill="white" stroke="black" points="479.5,-370.5 479.5,-391.5 622.5,-391.5 622.5,-370.5 479.5,-370.5"/>
<text text-anchor="middle" x="551" y="-378.5" font-family="Helvetica,sans-Serif" font-size="10.00">ant::expconfig::detector::PID</text>
</a>
</g>
<!-- Node1&#45;&gt;Node7 -->
<g id="edge12" class="edge"><title>Node1&#45;&gt;Node7</title>
<path fill="none" stroke="midnightblue" d="M403.585,-292.89C439.534,-314.376 502.665,-352.11 533.312,-370.428"/>
<polygon fill="midnightblue" stroke="midnightblue" points="405.021,-289.671 394.642,-287.544 401.43,-295.679 405.021,-289.671"/>
</g>
<!-- Node13 -->
<g id="node25" class="node"><title>Node13</title>
<a xlink:href="structant_1_1expconfig_1_1detector_1_1_t_a_p_s.html" target="_top" xlink:title="ant::expconfig::detector\l::TAPS">
<polygon fill="white" stroke="black" points="491.5,-260 491.5,-294 610.5,-294 610.5,-260 491.5,-260"/>
<text text-anchor="start" x="499.5" y="-281" font-family="Helvetica,sans-Serif" font-size="10.00">ant::expconfig::detector</text>
<text text-anchor="middle" x="551" y="-268" font-family="Helvetica,sans-Serif" font-size="10.00">::TAPS</text>
</a>
</g>
<!-- Node1&#45;&gt;Node13 -->
<g id="edge24" class="edge"><title>Node1&#45;&gt;Node13</title>
<path fill="none" stroke="midnightblue" d="M451.799,-277C465.011,-277 478.606,-277 491.332,-277"/>
<polygon fill="midnightblue" stroke="midnightblue" points="451.791,-273.5 441.791,-277 451.791,-280.5 451.791,-273.5"/>
</g>
<!-- Node15 -->
<g id="node29" class="node"><title>Node15</title>
<a xlink:href="structant_1_1expconfig_1_1detector_1_1_t_a_p_s_veto.html" target="_top" xlink:title="ant::expconfig::detector\l::TAPSVeto">
<polygon fill="white" stroke="black" points="491.5,-208 491.5,-242 610.5,-242 610.5,-208 491.5,-208"/>
<text text-anchor="start" x="499.5" y="-229" font-family="Helvetica,sans-Serif" font-size="10.00">ant::expconfig::detector</text>
<text text-anchor="middle" x="551" y="-216" font-family="Helvetica,sans-Serif" font-size="10.00">::TAPSVeto</text>
</a>
</g>
<!-- Node1&#45;&gt;Node15 -->
<g id="edge28" class="edge"><title>Node1&#45;&gt;Node15</title>
<path fill="none" stroke="midnightblue" d="M421.938,-263.57C443.889,-257.01 470.545,-249.044 493.92,-242.058"/>
<polygon fill="midnightblue" stroke="midnightblue" points="420.791,-260.26 412.211,-266.477 422.795,-266.967 420.791,-260.26"/>
</g>
<!-- Node18 -->
<g id="node35" class="node"><title>Node18</title>
<a xlink:href="structant_1_1expconfig_1_1detector_1_1_trigger.html" target="_top" xlink:title="ant::expconfig::detector\l::Trigger">
<polygon fill="white" stroke="black" points="491.5,-156 491.5,-190 610.5,-190 610.5,-156 491.5,-156"/>
<text text-anchor="start" x="499.5" y="-177" font-family="Helvetica,sans-Serif" font-size="10.00">ant::expconfig::detector</text>
<text text-anchor="middle" x="551" y="-164" font-family="Helvetica,sans-Serif" font-size="10.00">::Trigger</text>
</a>
</g>
<!-- Node1&#45;&gt;Node18 -->
<g id="edge34" class="edge"><title>Node1&#45;&gt;Node18</title>
<path fill="none" stroke="midnightblue" d="M395.787,-259.529C415.164,-242.253 446.865,-216.004 478,-199 483.904,-195.776 490.286,-192.819 496.735,-190.149"/>
<polygon fill="midnightblue" stroke="midnightblue" points="393.338,-257.024 388.274,-266.33 398.037,-262.213 393.338,-257.024"/>
</g>
<!-- Node20 -->
<g id="node39" class="node"><title>Node20</title>
<a xlink:href="classant_1_1expconfig_1_1_setup.html" target="_top" xlink:title="The Setup class serves as a base class for all known beamtime setup configurations. ">
<polygon fill="white" stroke="black" points="496,-84.5 496,-105.5 606,-105.5 606,-84.5 496,-84.5"/>
<text text-anchor="middle" x="551" y="-92.5" font-family="Helvetica,sans-Serif" font-size="10.00">ant::expconfig::Setup</text>
</a>
</g>
<!-- Node1&#45;&gt;Node20 -->
<g id="edge38" class="edge"><title>Node1&#45;&gt;Node20</title>
<path fill="none" stroke="midnightblue" d="M389.187,-257.962C406.794,-231.317 441.285,-182.22 478,-147 495.068,-130.627 517.603,-115.365 533.096,-105.667"/>
<polygon fill="midnightblue" stroke="midnightblue" points="386.221,-256.104 383.687,-266.391 392.083,-259.929 386.221,-256.104"/>
</g>
<!-- Node2 -->
<g id="node2" class="node"><title>Node2</title>
<a xlink:href="classant_1_1_exp_config_1_1_unpacker.html" target="_top" xlink:title="ant::ExpConfig::Unpacker\l\&lt; UnpackerAcquConfig \&gt;">
<polygon fill="white" stroke="black" points="146,-260 146,-294 276,-294 276,-260 146,-260"/>
<text text-anchor="start" x="154" y="-281" font-family="Helvetica,sans-Serif" font-size="10.00">ant::ExpConfig::Unpacker</text>
<text text-anchor="middle" x="211" y="-268" font-family="Helvetica,sans-Serif" font-size="10.00">&lt; UnpackerAcquConfig &gt;</text>
</a>
</g>
<!-- Node2&#45;&gt;Node1 -->
<g id="edge2" class="edge"><title>Node2&#45;&gt;Node1</title>
<path fill="none" stroke="midnightblue" d="M286.27,-277C294.971,-277 303.786,-277 312.329,-277"/>
<polygon fill="midnightblue" stroke="midnightblue" points="286.131,-273.5 276.131,-277 286.131,-280.5 286.131,-273.5"/>
</g>
<!-- Node3 -->
<g id="node4" class="node"><title>Node3</title>
<a xlink:href="classant_1_1_exp_config_1_1_base.html" target="_top" xlink:title="ant::ExpConfig::Base">
<polygon fill="white" stroke="black" points="0,-266.5 0,-287.5 110,-287.5 110,-266.5 0,-266.5"/>
<text text-anchor="middle" x="55" y="-274.5" font-family="Helvetica,sans-Serif" font-size="10.00">ant::ExpConfig::Base</text>
</a>
</g>
<!-- Node3&#45;&gt;Node2 -->
<g id="edge4" class="edge"><title>Node3&#45;&gt;Node2</title>
<path fill="none" stroke="midnightblue" d="M120.539,-277C128.922,-277 137.502,-277 145.878,-277"/>
<polygon fill="midnightblue" stroke="midnightblue" points="120.439,-273.5 110.439,-277 120.439,-280.5 120.439,-273.5"/>
</g>
<!-- Node6 -->
<g id="node11" class="node"><title>Node6</title>
<a xlink:href="structant_1_1expconfig_1_1detector_1_1_e_p_t__2014.html" target="_top" xlink:title="ant::expconfig::detector\l::EPT_2014">
<polygon fill="white" stroke="black" points="668.5,-572 668.5,-606 787.5,-606 787.5,-572 668.5,-572"/>
<text text-anchor="start" x="676.5" y="-593" font-family="Helvetica,sans-Serif" font-size="10.00">ant::expconfig::detector</text>
<text text-anchor="middle" x="728" y="-580" font-family="Helvetica,sans-Serif" font-size="10.00">::EPT_2014</text>
</a>
</g>
<!-- Node5&#45;&gt;Node6 -->
<g id="edge10" class="edge"><title>Node5&#45;&gt;Node6</title>
<path fill="none" stroke="midnightblue" d="M619.418,-437.043C621.025,-438.269 622.557,-439.585 624,-441 664.364,-480.583 621.619,-521.491 660,-563 663.089,-566.341 666.654,-569.256 670.5,-571.8"/>
<polygon fill="midnightblue" stroke="midnightblue" points="621.17,-434.01 610.843,-431.643 617.44,-439.933 621.17,-434.01"/>
</g>
<!-- Node8 -->
<g id="node15" class="node"><title>Node8</title>
<a xlink:href="structant_1_1expconfig_1_1detector_1_1_p_i_d__2004.html" target="_top" xlink:title="ant::expconfig::detector\l::PID_2004">
<polygon fill="white" stroke="black" points="668.5,-520 668.5,-554 787.5,-554 787.5,-520 668.5,-520"/>
<text text-anchor="start" x="676.5" y="-541" font-family="Helvetica,sans-Serif" font-size="10.00">ant::expconfig::detector</text>
<text text-anchor="middle" x="728" y="-528" font-family="Helvetica,sans-Serif" font-size="10.00">::PID_2004</text>
</a>
</g>
<!-- Node7&#45;&gt;Node8 -->
<g id="edge14" class="edge"><title>Node7&#45;&gt;Node8</title>
<path fill="none" stroke="midnightblue" d="M619.245,-397.011C620.911,-398.245 622.501,-399.573 624,-401 661.252,-436.474 624.526,-473.747 660,-511 663.225,-514.387 666.938,-517.337 670.931,-519.908"/>
<polygon fill="midnightblue" stroke="midnightblue" points="620.728,-393.815 610.371,-391.583 617.075,-399.787 620.728,-393.815"/>
</g>
<!-- Node9 -->
<g id="node17" class="node"><title>Node9</title>
<a xlink:href="structant_1_1expconfig_1_1detector_1_1_p_i_d__2009__05.html" target="_top" xlink:title="ant::expconfig::detector\l::PID_2009_05">
<polygon fill="white" stroke="black" points="668.5,-468 668.5,-502 787.5,-502 787.5,-468 668.5,-468"/>
<text text-anchor="start" x="676.5" y="-489" font-family="Helvetica,sans-Serif" font-size="10.00">ant::expconfig::detector</text>
<text text-anchor="middle" x="728" y="-476" font-family="Helvetica,sans-Serif" font-size="10.00">::PID_2009_05</text>
</a>
</g>
<!-- Node7&#45;&gt;Node9 -->
<g id="edge16" class="edge"><title>Node7&#45;&gt;Node9</title>
<path fill="none" stroke="midnightblue" d="M616.062,-395.908C618.838,-397.442 621.501,-399.134 624,-401 648.311,-419.152 636.606,-439.682 660,-459 664.093,-462.38 668.674,-465.351 673.471,-467.956"/>
<polygon fill="midnightblue" stroke="midnightblue" points="617.413,-392.675 606.88,-391.526 614.398,-398.992 617.413,-392.675"/>
</g>
<!-- Node10 -->
<g id="node19" class="node"><title>Node10</title>
<a xlink:href="structant_1_1expconfig_1_1detector_1_1_p_i_d__2009__06.html" target="_top" xlink:title="ant::expconfig::detector\l::PID_2009_06">
<polygon fill="white" stroke="black" points="668.5,-416 668.5,-450 787.5,-450 787.5,-416 668.5,-416"/>
<text text-anchor="start" x="676.5" y="-437" font-family="Helvetica,sans-Serif" font-size="10.00">ant::expconfig::detector</text>
<text text-anchor="middle" x="728" y="-424" font-family="Helvetica,sans-Serif" font-size="10.00">::PID_2009_06</text>
</a>
</g>
<!-- Node7&#45;&gt;Node10 -->
<g id="edge18" class="edge"><title>Node7&#45;&gt;Node10</title>
<path fill="none" stroke="midnightblue" d="M600.352,-394.297C608.272,-396.495 616.37,-398.782 624,-401 640.235,-405.72 657.83,-411.052 673.849,-415.989"/>
<polygon fill="midnightblue" stroke="midnightblue" points="601.035,-390.855 590.464,-391.571 599.174,-397.603 601.035,-390.855"/>
</g>
<!-- Node11 -->
<g id="node21" class="node"><title>Node11</title>
<a xlink:href="structant_1_1expconfig_1_1detector_1_1_p_i_d__2009__07.html" target="_top" xlink:title="ant::expconfig::detector\l::PID_2009_07">
<polygon fill="white" stroke="black" points="668.5,-364 668.5,-398 787.5,-398 787.5,-364 668.5,-364"/>
<text text-anchor="start" x="676.5" y="-385" font-family="Helvetica,sans-Serif" font-size="10.00">ant::expconfig::detector</text>
<text text-anchor="middle" x="728" y="-372" font-family="Helvetica,sans-Serif" font-size="10.00">::PID_2009_07</text>
</a>
</g>
<!-- Node7&#45;&gt;Node11 -->
<g id="edge20" class="edge"><title>Node7&#45;&gt;Node11</title>
<path fill="none" stroke="midnightblue" d="M632.752,-381C644.743,-381 656.901,-381 668.337,-381"/>
<polygon fill="midnightblue" stroke="midnightblue" points="632.738,-377.5 622.738,-381 632.737,-384.5 632.738,-377.5"/>
</g>
<!-- Node12 -->
<g id="node23" class="node"><title>Node12</title>
<a xlink:href="structant_1_1expconfig_1_1detector_1_1_p_i_d__2014.html" target="_top" xlink:title="ant::expconfig::detector\l::PID_2014">
<polygon fill="white" stroke="black" points="668.5,-312 668.5,-346 787.5,-346 787.5,-312 668.5,-312"/>
<text text-anchor="start" x="676.5" y="-333" font-family="Helvetica,sans-Serif" font-size="10.00">ant::expconfig::detector</text>
<text text-anchor="middle" x="728" y="-320" font-family="Helvetica,sans-Serif" font-size="10.00">::PID_2014</text>
</a>
</g>
<!-- Node7&#45;&gt;Node12 -->
<g id="edge22" class="edge"><title>Node7&#45;&gt;Node12</title>
<path fill="none" stroke="midnightblue" d="M596.712,-367.57C619.042,-361.01 646.158,-353.044 669.936,-346.058"/>
<polygon fill="midnightblue" stroke="midnightblue" points="595.427,-364.3 586.819,-370.477 597.4,-371.016 595.427,-364.3"/>
</g>
<!-- Node14 -->
<g id="node27" class="node"><title>Node14</title>
<a xlink:href="structant_1_1expconfig_1_1detector_1_1_t_a_p_s__2013.html" target="_top" xlink:title="ant::expconfig::detector\l::TAPS_2013">
<polygon fill="white" stroke="black" points="668.5,-260 668.5,-294 787.5,-294 787.5,-260 668.5,-260"/>
<text text-anchor="start" x="676.5" y="-281" font-family="Helvetica,sans-Serif" font-size="10.00">ant::expconfig::detector</text>
<text text-anchor="middle" x="728" y="-268" font-family="Helvetica,sans-Serif" font-size="10.00">::TAPS_2013</text>
</a>
</g>
<!-- Node13&#45;&gt;Node14 -->
<g id="edge26" class="edge"><title>Node13&#45;&gt;Node14</title>
<path fill="none" stroke="midnightblue" d="M621.086,-277C636.759,-277 653.238,-277 668.438,-277"/>
<polygon fill="midnightblue" stroke="midnightblue" points="620.924,-273.5 610.924,-277 620.924,-280.5 620.924,-273.5"/>
</g>
<!-- Node16 -->
<g id="node31" class="node"><title>Node16</title>
<a xlink:href="structant_1_1expconfig_1_1detector_1_1_t_a_p_s_veto__2013.html" target="_top" xlink:title="ant::expconfig::detector\l::TAPSVeto_2013">
<polygon fill="white" stroke="black" points="668.5,-208 668.5,-242 787.5,-242 787.5,-208 668.5,-208"/>
<text text-anchor="start" x="676.5" y="-229" font-family="Helvetica,sans-Serif" font-size="10.00">ant::expconfig::detector</text>
<text text-anchor="middle" x="728" y="-216" font-family="Helvetica,sans-Serif" font-size="10.00">::TAPSVeto_2013</text>
</a>
</g>
<!-- Node15&#45;&gt;Node16 -->
<g id="edge30" class="edge"><title>Node15&#45;&gt;Node16</title>
<path fill="none" stroke="midnightblue" d="M621.086,-225C636.759,-225 653.238,-225 668.438,-225"/>
<polygon fill="midnightblue" stroke="midnightblue" points="620.924,-221.5 610.924,-225 620.924,-228.5 620.924,-221.5"/>
</g>
<!-- Node17 -->
<g id="node33" class="node"><title>Node17</title>
<a xlink:href="structant_1_1expconfig_1_1detector_1_1_t_a_p_s_veto__2014.html" target="_top" xlink:title="ant::expconfig::detector\l::TAPSVeto_2014">
<polygon fill="white" stroke="black" points="842.5,-208 842.5,-242 961.5,-242 961.5,-208 842.5,-208"/>
<text text-anchor="start" x="850.5" y="-229" font-family="Helvetica,sans-Serif" font-size="10.00">ant::expconfig::detector</text>
<text text-anchor="middle" x="902" y="-216" font-family="Helvetica,sans-Serif" font-size="10.00">::TAPSVeto_2014</text>
</a>
</g>
<!-- Node16&#45;&gt;Node17 -->
<g id="edge32" class="edge"><title>Node16&#45;&gt;Node17</title>
<path fill="none" stroke="midnightblue" d="M797.931,-225C812.635,-225 828.016,-225 842.304,-225"/>
<polygon fill="midnightblue" stroke="midnightblue" points="797.881,-221.5 787.881,-225 797.881,-228.5 797.881,-221.5"/>
</g>
<!-- Node19 -->
<g id="node37" class="node"><title>Node19</title>
<a xlink:href="structant_1_1expconfig_1_1detector_1_1_trigger__2014.html" target="_top" xlink:title="ant::expconfig::detector\l::Trigger_2014">
<polygon fill="white" stroke="black" points="668.5,-156 668.5,-190 787.5,-190 787.5,-156 668.5,-156"/>
<text text-anchor="start" x="676.5" y="-177" font-family="Helvetica,sans-Serif" font-size="10.00">ant::expconfig::detector</text>
<text text-anchor="middle" x="728" y="-164" font-family="Helvetica,sans-Serif" font-size="10.00">::Trigger_2014</text>
</a>
</g>
<!-- Node18&#45;&gt;Node19 -->
<g id="edge36" class="edge"><title>Node18&#45;&gt;Node19</title>
<path fill="none" stroke="midnightblue" d="M621.086,-173C636.759,-173 653.238,-173 668.438,-173"/>
<polygon fill="midnightblue" stroke="midnightblue" points="620.924,-169.5 610.924,-173 620.924,-176.5 620.924,-169.5"/>
</g>
<!-- Node21 -->
<g id="node41" class="node"><title>Node21</title>
<a xlink:href="classant_1_1expconfig_1_1setup_1_1_setup__2012__12___compton.html" target="_top" xlink:title="ant::expconfig::setup\l::Setup_2012_12_Compton">
<polygon fill="white" stroke="black" points="660.5,-104 660.5,-138 795.5,-138 795.5,-104 660.5,-104"/>
<text text-anchor="start" x="668.5" y="-125" font-family="Helvetica,sans-Serif" font-size="10.00">ant::expconfig::setup</text>
<text text-anchor="middle" x="728" y="-112" font-family="Helvetica,sans-Serif" font-size="10.00">::Setup_2012_12_Compton</text>
</a>
</g>
<!-- Node20&#45;&gt;Node21 -->
<g id="edge40" class="edge"><title>Node20&#45;&gt;Node21</title>
<path fill="none" stroke="midnightblue" d="M616.284,-104.59C630.606,-106.694 645.8,-108.925 660.218,-111.043"/>
<polygon fill="midnightblue" stroke="midnightblue" points="616.436,-101.075 606.034,-103.084 615.419,-108 616.436,-101.075"/>
</g>
<!-- Node22 -->
<g id="node43" class="node"><title>Node22</title>
<a xlink:href="classant_1_1expconfig_1_1setup_1_1_setup__2014___e_p_t.html" target="_top" xlink:title="Common base class for all Setups of the 2014 Ent Point Tagger beam times. ">
<polygon fill="white" stroke="black" points="674,-52 674,-86 782,-86 782,-52 674,-52"/>
<text text-anchor="start" x="682" y="-73" font-family="Helvetica,sans-Serif" font-size="10.00">ant::expconfig::setup</text>
<text text-anchor="middle" x="728" y="-60" font-family="Helvetica,sans-Serif" font-size="10.00">::Setup_2014_EPT</text>
</a>
</g>
<!-- Node20&#45;&gt;Node22 -->
<g id="edge42" class="edge"><title>Node20&#45;&gt;Node22</title>
<path fill="none" stroke="midnightblue" d="M616.108,-85.4361C635.112,-82.6445 655.668,-79.6251 673.912,-76.9452"/>
<polygon fill="midnightblue" stroke="midnightblue" points="615.419,-81.9997 606.034,-86.916 616.436,-88.9254 615.419,-81.9997"/>
</g>
<!-- Node26 -->
<g id="node51" class="node"><title>Node26</title>
<a xlink:href="classant_1_1expconfig_1_1setup_1_1_setup__2015__01___pion.html" target="_top" xlink:title="Ant Setup for Rare Pion Test Beamtime in January 2015 &amp; MC studies. ">
<polygon fill="white" stroke="black" points="670.5,-0 670.5,-34 785.5,-34 785.5,-0 670.5,-0"/>
<text text-anchor="start" x="678.5" y="-21" font-family="Helvetica,sans-Serif" font-size="10.00">ant::expconfig::setup</text>
<text text-anchor="middle" x="728" y="-8" font-family="Helvetica,sans-Serif" font-size="10.00">::Setup_2015_01_Pion</text>
</a>
</g>
<!-- Node20&#45;&gt;Node26 -->
<g id="edge50" class="edge"><title>Node20&#45;&gt;Node26</title>
<path fill="none" stroke="midnightblue" d="M581.127,-79.829C602.848,-69.0882 632.976,-54.5906 660,-43 666.969,-40.0108 674.407,-36.9946 681.711,-34.1282"/>
<polygon fill="midnightblue" stroke="midnightblue" points="579.471,-76.7437 572.074,-84.329 582.587,-83.012 579.471,-76.7437"/>
</g>
<!-- Node23 -->
<g id="node45" class="node"><title>Node23</title>
<a xlink:href="classant_1_1expconfig_1_1setup_1_1_setup__2014__07___e_p_t___prod.html" target="_top" xlink:title="Ant Setup for the July 2014 End Point Tagger beam time. ">
<polygon fill="white" stroke="black" points="832,-104 832,-138 972,-138 972,-104 832,-104"/>
<text text-anchor="start" x="840" y="-125" font-family="Helvetica,sans-Serif" font-size="10.00">ant::expconfig::setup</text>
<text text-anchor="middle" x="902" y="-112" font-family="Helvetica,sans-Serif" font-size="10.00">::Setup_2014_07_EPT_Prod</text>
</a>
</g>
<!-- Node22&#45;&gt;Node23 -->
<g id="edge44" class="edge"><title>Node22&#45;&gt;Node23</title>
<path fill="none" stroke="midnightblue" d="M792.117,-88.1614C809.422,-93.3332 828.028,-98.8935 844.92,-103.942"/>
<polygon fill="midnightblue" stroke="midnightblue" points="792.684,-84.6781 782.101,-85.1681 790.68,-91.385 792.684,-84.6781"/>
</g>
<!-- Node24 -->
<g id="node47" class="node"><title>Node24</title>
<a xlink:href="classant_1_1expconfig_1_1setup_1_1_setup__2014__10___e_p_t___prod.html" target="_top" xlink:title="Ant Setup for the October 2014 End Point Tagger beam time. ">
<polygon fill="white" stroke="black" points="832,-52 832,-86 972,-86 972,-52 832,-52"/>
<text text-anchor="start" x="840" y="-73" font-family="Helvetica,sans-Serif" font-size="10.00">ant::expconfig::setup</text>
<text text-anchor="middle" x="902" y="-60" font-family="Helvetica,sans-Serif" font-size="10.00">::Setup_2014_10_EPT_Prod</text>
</a>
</g>
<!-- Node22&#45;&gt;Node24 -->
<g id="edge46" class="edge"><title>Node22&#45;&gt;Node24</title>
<path fill="none" stroke="midnightblue" d="M792.277,-69C805.188,-69 818.816,-69 831.913,-69"/>
<polygon fill="midnightblue" stroke="midnightblue" points="792.101,-65.5001 782.101,-69 792.101,-72.5001 792.101,-65.5001"/>
</g>
<!-- Node25 -->
<g id="node49" class="node"><title>Node25</title>
<a xlink:href="classant_1_1expconfig_1_1setup_1_1_setup__2014__12___e_p_t___prod.html" target="_top" xlink:title="Ant Setup for the December 2014 End Point Tagger beam time. ">
<polygon fill="white" stroke="black" points="832,-0 832,-34 972,-34 972,-0 832,-0"/>
<text text-anchor="start" x="840" y="-21" font-family="Helvetica,sans-Serif" font-size="10.00">ant::expconfig::setup</text>
<text text-anchor="middle" x="902" y="-8" font-family="Helvetica,sans-Serif" font-size="10.00">::Setup_2014_12_EPT_Prod</text>
</a>
</g>
<!-- Node22&#45;&gt;Node25 -->
<g id="edge48" class="edge"><title>Node22&#45;&gt;Node25</title>
<path fill="none" stroke="midnightblue" d="M792.117,-49.8386C809.422,-44.6668 828.028,-39.1065 844.92,-34.0582"/>
<polygon fill="midnightblue" stroke="midnightblue" points="790.68,-46.615 782.101,-52.8319 792.684,-53.3219 790.68,-46.615"/>
</g>
</g>
</svg>
