<?xml version="1.0" encoding="UTF-8" standalone="no"?>
<!DOCTYPE svg PUBLIC "-//W3C//DTD SVG 1.1//EN"
 "http://www.w3.org/Graphics/SVG/1.1/DTD/svg11.dtd">
<!-- Generated by graphviz version 2.26.3 (20100126.1600)
 -->
<!-- Title: ant::canvas Pages: 1 -->
<svg width="304pt" height="542pt"
 viewBox="0.00 0.00 304.00 542.00" xmlns="http://www.w3.org/2000/svg" xmlns:xlink="http://www.w3.org/1999/xlink">
<g id="graph1" class="graph" transform="scale(1 1) rotate(0) translate(4 538)">
<title>ant::canvas</title>
<polygon fill="white" stroke="white" points="-4,5 -4,-538 301,-538 301,5 -4,5"/>
<!-- Node1 -->
<g id="node1" class="node"><title>Node1</title>
<polygon fill="#bfbfbf" stroke="black" points="64,-0.5 64,-21.5 132,-21.5 132,-0.5 64,-0.5"/>
<text text-anchor="middle" x="98" y="-8.5" font-family="Helvetica,sans-Serif" font-size="10.00">ant::canvas</text>
</g>
<!-- Node2 -->
<g id="node2" class="node"><title>Node2</title>
<polygon fill="white" stroke="#bfbfbf" points="29.5,-255 29.5,-289 164.5,-289 164.5,-255 29.5,-255"/>
<text text-anchor="start" x="37.5" y="-276" font-family="Helvetica,sans-Serif" font-size="10.00">std::list&lt; const padmodifier</text>
<text text-anchor="middle" x="97" y="-263" font-family="Helvetica,sans-Serif" font-size="10.00">_t * &gt;</text>
</g>
<!-- Node2&#45;&gt;Node1 -->
<g id="edge2" class="edge"><title>Node2&#45;&gt;Node1</title>
<path fill="none" stroke="#9a32cd" stroke-dasharray="5,2" d="M97.104,-244.868C97.3209,-188.243 97.8138,-59.5994 97.959,-21.6976"/>
<polygon fill="#9a32cd" stroke="#9a32cd" points="93.6041,-244.862 97.0656,-254.875 100.604,-244.889 93.6041,-244.862"/>
<text text-anchor="middle" x="143.5" y="-143" font-family="Helvetica,sans-Serif" font-size="10.00"> onetime_padoptions</text>
<text text-anchor="middle" x="143.5" y="-130" font-family="Helvetica,sans-Serif" font-size="10.00">global_padoptions</text>
</g>
<!-- Node4 -->
<g id="node6" class="node"><title>Node4</title>
<a xlink:href="structant_1_1canvas_1_1pad__t.html" target="_top" xlink:title="ant::canvas::pad_t">
<polygon fill="white" stroke="black" points="163,-170.5 163,-191.5 261,-191.5 261,-170.5 163,-170.5"/>
<text text-anchor="middle" x="212" y="-178.5" font-family="Helvetica,sans-Serif" font-size="10.00">ant::canvas::pad_t</text>
</a>
</g>
<!-- Node2&#45;&gt;Node4 -->
<g id="edge8" class="edge"><title>Node2&#45;&gt;Node4</title>
<path fill="none" stroke="#9a32cd" stroke-dasharray="5,2" d="M119.04,-247.376C130.557,-235.3 145.292,-221.021 160,-210 169.265,-203.058 180.376,-196.639 189.945,-191.615"/>
<polygon fill="#9a32cd" stroke="#9a32cd" points="116.242,-245.243 111.968,-254.938 121.355,-250.024 116.242,-245.243"/>
<text text-anchor="middle" x="187.5" y="-220.5" font-family="Helvetica,sans-Serif" font-size="10.00"> PadOptions</text>
</g>
<!-- Node3 -->
<g id="node4" class="node"><title>Node3</title>
<polygon fill="white" stroke="#bfbfbf" points="141.5,-73 141.5,-107 250.5,-107 250.5,-73 141.5,-73"/>
<text text-anchor="start" x="149.5" y="-94" font-family="Helvetica,sans-Serif" font-size="10.00">std::list&lt; ant::canvas</text>
<text text-anchor="middle" x="196" y="-81" font-family="Helvetica,sans-Serif" font-size="10.00">::pad_t &gt;</text>
</g>
<!-- Node3&#45;&gt;Node1 -->
<g id="edge4" class="edge"><title>Node3&#45;&gt;Node1</title>
<path fill="none" stroke="#9a32cd" stroke-dasharray="5,2" d="M166.861,-66.51C148.35,-51.5886 125.289,-32.9983 111.109,-21.5672"/>
<polygon fill="#9a32cd" stroke="#9a32cd" points="164.753,-69.3071 174.735,-72.8582 169.147,-63.8573 164.753,-69.3071"/>
<text text-anchor="middle" x="162.5" y="-44.5" font-family="Helvetica,sans-Serif" font-size="10.00"> pads</text>
</g>
<!-- Node4&#45;&gt;Node3 -->
<g id="edge6" class="edge"><title>Node4&#45;&gt;Node3</title>
<path fill="none" stroke="#9a32cd" stroke-dasharray="5,2" d="M208.346,-160.218C205.533,-144.219 201.691,-122.365 199.043,-107.309"/>
<polygon fill="#9a32cd" stroke="#9a32cd" points="204.923,-160.961 210.102,-170.204 211.817,-159.749 204.923,-160.961"/>
<text text-anchor="middle" x="227.5" y="-136.5" font-family="Helvetica,sans-Serif" font-size="10.00"> elements</text>
</g>
<!-- Node5 -->
<g id="node9" class="node"><title>Node5</title>
<polygon fill="white" stroke="#bfbfbf" points="181.5,-255 181.5,-289 290.5,-289 290.5,-255 181.5,-255"/>
<text text-anchor="start" x="189.5" y="-276" font-family="Helvetica,sans-Serif" font-size="10.00">std::list&lt; ant::canvas</text>
<text text-anchor="middle" x="236" y="-263" font-family="Helvetica,sans-Serif" font-size="10.00">::DrawableItem &gt;</text>
</g>
<!-- Node5&#45;&gt;Node4 -->
<g id="edge10" class="edge"><title>Node5&#45;&gt;Node4</title>
<path fill="none" stroke="#9a32cd" stroke-dasharray="5,2" d="M228.869,-244.963C224.139,-227.028 218.193,-204.483 214.772,-191.51"/>
<polygon fill="#9a32cd" stroke="#9a32cd" points="225.551,-246.107 231.486,-254.884 232.32,-244.322 225.551,-246.107"/>
<text text-anchor="middle" x="261" y="-220.5" font-family="Helvetica,sans-Serif" font-size="10.00"> DrawableItems</text>
</g>
<!-- Node6 -->
<g id="node11" class="node"><title>Node6</title>
<a xlink:href="structant_1_1canvas_1_1_drawable_item.html" target="_top" xlink:title="ant::canvas::DrawableItem">
<polygon fill="white" stroke="black" points="123,-340.5 123,-361.5 257,-361.5 257,-340.5 123,-340.5"/>
<text text-anchor="middle" x="190" y="-348.5" font-family="Helvetica,sans-Serif" font-size="10.00">ant::canvas::DrawableItem</text>
</a>
</g>
<!-- Node6&#45;&gt;Node5 -->
<g id="edge12" class="edge"><title>Node6&#45;&gt;Node5</title>
<path fill="none" stroke="#9a32cd" stroke-dasharray="5,2" d="M201.24,-331.696C208.82,-318.679 218.731,-301.658 226.029,-289.124"/>
<polygon fill="#9a32cd" stroke="#9a32cd" points="198.211,-329.943 196.204,-340.346 204.26,-333.465 198.211,-329.943"/>
<text text-anchor="middle" x="235.5" y="-312.5" font-family="Helvetica,sans-Serif" font-size="10.00"> elements</text>
</g>
<!-- Node7 -->
<g id="node13" class="node"><title>Node7</title>
<a xlink:title="STL class. ">
<polygon fill="white" stroke="#bfbfbf" points="32,-419.5 32,-440.5 92,-440.5 92,-419.5 32,-419.5"/>
<text text-anchor="middle" x="62" y="-427.5" font-family="Helvetica,sans-Serif" font-size="10.00">std::string</text>
</a>
</g>
<!-- Node7&#45;&gt;Node1 -->
<g id="edge22" class="edge"><title>Node7&#45;&gt;Node1</title>
<path fill="none" stroke="#9a32cd" stroke-dasharray="5,2" d="M37.5293,-412.904C20.1918,-398.599 0,-376.471 0,-351 0,-351 0,-351 0,-90 0,-55.362 37.5668,-33.3321 66.1822,-21.5759"/>
<polygon fill="#9a32cd" stroke="#9a32cd" points="35.6709,-415.893 45.7102,-419.278 39.9733,-410.371 35.6709,-415.893"/>
<text text-anchor="middle" x="41.5" y="-227" font-family="Helvetica,sans-Serif" font-size="10.00"> name</text>
<text text-anchor="middle" x="41.5" y="-214" font-family="Helvetica,sans-Serif" font-size="10.00">current_drawoption</text>
</g>
<!-- Node7&#45;&gt;Node6 -->
<g id="edge14" class="edge"><title>Node7&#45;&gt;Node6</title>
<path fill="none" stroke="#9a32cd" stroke-dasharray="5,2" d="M87.9434,-413.988C113.168,-398.42 150.779,-375.207 172.602,-361.738"/>
<polygon fill="#9a32cd" stroke="#9a32cd" points="85.9341,-411.115 79.2626,-419.346 89.6106,-417.072 85.9341,-411.115"/>
<text text-anchor="middle" x="158" y="-384.5" font-family="Helvetica,sans-Serif" font-size="10.00"> Option</text>
</g>
<!-- Node8 -->
<g id="node15" class="node"><title>Node8</title>
<a xlink:title="STL class. ">
<polygon fill="white" stroke="#bfbfbf" points="14.5,-499 14.5,-533 109.5,-533 109.5,-499 14.5,-499"/>
<text text-anchor="start" x="22.5" y="-520" font-family="Helvetica,sans-Serif" font-size="10.00">std::basic_string&lt;</text>
<text text-anchor="middle" x="62" y="-507" font-family="Helvetica,sans-Serif" font-size="10.00"> char &gt;</text>
</a>
</g>
<!-- Node8&#45;&gt;Node7 -->
<g id="edge16" class="edge"><title>Node8&#45;&gt;Node7</title>
<path fill="none" stroke="midnightblue" d="M62,-488.56C62,-472.365 62,-452.766 62,-440.848"/>
<polygon fill="midnightblue" stroke="midnightblue" points="58.5001,-488.597 62,-498.597 65.5001,-488.597 58.5001,-488.597"/>
</g>
<!-- Node9 -->
<g id="node17" class="node"><title>Node9</title>
<polygon fill="white" stroke="#bfbfbf" points="130.5,-413 130.5,-447 249.5,-447 249.5,-413 130.5,-413"/>
<text text-anchor="start" x="138.5" y="-434" font-family="Helvetica,sans-Serif" font-size="10.00">std::unique_ptr&lt; ant</text>
<text text-anchor="middle" x="190" y="-421" font-family="Helvetica,sans-Serif" font-size="10.00">::root_drawable_traits &gt;</text>
</g>
<!-- Node9&#45;&gt;Node6 -->
<g id="edge18" class="edge"><title>Node9&#45;&gt;Node6</title>
<path fill="none" stroke="#9a32cd" stroke-dasharray="5,2" d="M190,-402.623C190,-388.473 190,-372.024 190,-361.567"/>
<polygon fill="#9a32cd" stroke="#9a32cd" points="186.5,-402.858 190,-412.858 193.5,-402.858 186.5,-402.858"/>
<text text-anchor="middle" x="212.5" y="-384.5" font-family="Helvetica,sans-Serif" font-size="10.00"> Drawable</text>
</g>
<!-- Node10 -->
<g id="node19" class="node"><title>Node10</title>
<a xlink:href="structant_1_1root__drawable__traits.html" target="_top" xlink:title="ant::root_drawable\l_traits">
<polygon fill="white" stroke="black" points="141.5,-499 141.5,-533 238.5,-533 238.5,-499 141.5,-499"/>
<text text-anchor="start" x="149.5" y="-520" font-family="Helvetica,sans-Serif" font-size="10.00">ant::root_drawable</text>
<text text-anchor="middle" x="190" y="-507" font-family="Helvetica,sans-Serif" font-size="10.00">_traits</text>
</a>
</g>
<!-- Node10&#45;&gt;Node9 -->
<g id="edge20" class="edge"><title>Node10&#45;&gt;Node9</title>
<path fill="none" stroke="#9a32cd" stroke-dasharray="5,2" d="M190,-488.342C190,-474.774 190,-458.861 190,-447.084"/>
<polygon fill="#9a32cd" stroke="#9a32cd" points="186.5,-488.597 190,-498.597 193.5,-488.597 186.5,-488.597"/>
<text text-anchor="middle" x="197.5" y="-470.5" font-family="Helvetica,sans-Serif" font-size="10.00"> ptr</text>
</g>
</g>
</svg>
