<?xml version="1.0" encoding="UTF-8" standalone="no"?>
<!DOCTYPE svg PUBLIC "-//W3C//DTD SVG 1.1//EN"
 "http://www.w3.org/Graphics/SVG/1.1/DTD/svg11.dtd">
<!-- Generated by graphviz version 2.26.3 (20100126.1600)
 -->
<!-- Title: ant::unpacker::acqu::FileFormatMk2 Pages: 1 -->
<svg width="1514pt" height="428pt"
 viewBox="0.00 0.00 1514.00 428.00" xmlns="http://www.w3.org/2000/svg" xmlns:xlink="http://www.w3.org/1999/xlink">
<g id="graph1" class="graph" transform="scale(1 1) rotate(0) translate(4 424)">
<title>ant::unpacker::acqu::FileFormatMk2</title>
<polygon fill="white" stroke="white" points="-4,5 -4,-424 1511,-424 1511,5 -4,5"/>
<!-- Node1 -->
<g id="node1" class="node"><title>Node1</title>
<polygon fill="#bfbfbf" stroke="black" points="1402.5,-234 1402.5,-268 1505.5,-268 1505.5,-234 1402.5,-234"/>
<text text-anchor="start" x="1410.5" y="-255" font-family="Helvetica,sans-Serif" font-size="10.00">ant::unpacker::acqu</text>
<text text-anchor="middle" x="1454" y="-242" font-family="Helvetica,sans-Serif" font-size="10.00">::FileFormatMk2</text>
</g>
<!-- Node2 -->
<g id="node2" class="node"><title>Node2</title>
<a xlink:href="classant_1_1unpacker_1_1acqu_1_1_file_format_base.html" target="_top" xlink:title="ant::unpacker::acqu\l::FileFormatBase">
<polygon fill="white" stroke="black" points="1260.5,-234 1260.5,-268 1363.5,-268 1363.5,-234 1260.5,-234"/>
<text text-anchor="start" x="1268.5" y="-255" font-family="Helvetica,sans-Serif" font-size="10.00">ant::unpacker::acqu</text>
<text text-anchor="middle" x="1312" y="-242" font-family="Helvetica,sans-Serif" font-size="10.00">::FileFormatBase</text>
</a>
</g>
<!-- Node2&#45;&gt;Node1 -->
<g id="edge2" class="edge"><title>Node2&#45;&gt;Node1</title>
<path fill="none" stroke="midnightblue" d="M1373.8,-251C1383.25,-251 1392.93,-251 1402.13,-251"/>
<polygon fill="midnightblue" stroke="midnightblue" points="1373.67,-247.5 1363.67,-251 1373.67,-254.5 1373.67,-247.5"/>
</g>
<!-- Node3 -->
<g id="node4" class="node"><title>Node3</title>
<a xlink:href="classant_1_1_unpacker_acqu_file_format.html" target="_top" xlink:title="ant::UnpackerAcquFileFormat">
<polygon fill="white" stroke="black" points="989.5,-398.5 989.5,-419.5 1136.5,-419.5 1136.5,-398.5 989.5,-398.5"/>
<text text-anchor="middle" x="1063" y="-406.5" font-family="Helvetica,sans-Serif" font-size="10.00">ant::UnpackerAcquFileFormat</text>
</a>
</g>
<!-- Node3&#45;&gt;Node2 -->
<g id="edge4" class="edge"><title>Node3&#45;&gt;Node2</title>
<path fill="none" stroke="midnightblue" d="M1138.73,-395.954C1173,-387.127 1212.37,-372.605 1242,-349 1270.29,-326.462 1292.31,-289.631 1303.62,-268.117"/>
<polygon fill="midnightblue" stroke="midnightblue" points="1137.62,-392.622 1128.75,-398.405 1139.29,-399.42 1137.62,-392.622"/>
</g>
<!-- Node4 -->
<g id="node6" class="node"><title>Node4</title>
<polygon fill="white" stroke="#bfbfbf" points="991.5,-346 991.5,-380 1134.5,-380 1134.5,-346 991.5,-346"/>
<text text-anchor="start" x="999.5" y="-367" font-family="Helvetica,sans-Serif" font-size="10.00">std::vector&lt; ant::Unpacker</text>
<text text-anchor="middle" x="1063" y="-354" font-family="Helvetica,sans-Serif" font-size="10.00">AcquConfig::hit_mapping_t &gt;</text>
</g>
<!-- Node4&#45;&gt;Node2 -->
<g id="edge6" class="edge"><title>Node4&#45;&gt;Node2</title>
<path fill="none" stroke="#9a32cd" stroke-dasharray="5,2" d="M1135.54,-342.961C1168.95,-332.363 1208.52,-317.828 1242,-300 1259.15,-290.866 1277.08,-278.249 1290.5,-268.106"/>
<polygon fill="#9a32cd" stroke="#9a32cd" points="1134.34,-339.667 1125.83,-345.983 1136.42,-346.351 1134.34,-339.667"/>
<text text-anchor="middle" x="1203" y="-336" font-family="Helvetica,sans-Serif" font-size="10.00"> hit_mappings</text>
</g>
<!-- Node5 -->
<g id="node8" class="node"><title>Node5</title>
<a xlink:href="structant_1_1_unpacker_acqu_config_1_1hit__mapping__t.html" target="_top" xlink:title="ant::UnpackerAcquConfig\l::hit_mapping_t">
<polygon fill="white" stroke="black" points="745.5,-346 745.5,-380 874.5,-380 874.5,-346 745.5,-346"/>
<text text-anchor="start" x="753.5" y="-367" font-family="Helvetica,sans-Serif" font-size="10.00">ant::UnpackerAcquConfig</text>
<text text-anchor="middle" x="810" y="-354" font-family="Helvetica,sans-Serif" font-size="10.00">::hit_mapping_t</text>
</a>
</g>
<!-- Node5&#45;&gt;Node4 -->
<g id="edge8" class="edge"><title>Node5&#45;&gt;Node4</title>
<path fill="none" stroke="#9a32cd" stroke-dasharray="5,2" d="M885.045,-363C918.622,-363 958.029,-363 991.213,-363"/>
<polygon fill="#9a32cd" stroke="#9a32cd" points="884.825,-359.5 874.825,-363 884.825,-366.5 884.825,-359.5"/>
<text text-anchor="middle" x="928" y="-367" font-family="Helvetica,sans-Serif" font-size="10.00"> elements</text>
</g>
<!-- Node6 -->
<g id="node10" class="node"><title>Node6</title>
<a xlink:href="structant_1_1_logical_channel__t.html" target="_top" xlink:title="The LogicalChannel_t struct uniquely identifies detector element within setup. ">
<polygon fill="white" stroke="black" points="511.5,-374.5 511.5,-395.5 622.5,-395.5 622.5,-374.5 511.5,-374.5"/>
<text text-anchor="middle" x="567" y="-382.5" font-family="Helvetica,sans-Serif" font-size="10.00">ant::LogicalChannel_t</text>
</a>
</g>
<!-- Node6&#45;&gt;Node5 -->
<g id="edge10" class="edge"><title>Node6&#45;&gt;Node5</title>
<path fill="none" stroke="#9a32cd" stroke-dasharray="5,2" d="M632.866,-379.037C667.857,-375.869 710.699,-371.99 745.485,-368.841"/>
<polygon fill="#9a32cd" stroke="#9a32cd" points="632.393,-375.565 622.749,-379.953 633.024,-382.537 632.393,-375.565"/>
<text text-anchor="middle" x="691" y="-380" font-family="Helvetica,sans-Serif" font-size="10.00"> LogicalChannel</text>
</g>
<!-- Node7 -->
<g id="node12" class="node"><title>Node7</title>
<polygon fill="white" stroke="#bfbfbf" points="500,-308.5 500,-355.5 634,-355.5 634,-308.5 500,-308.5"/>
<text text-anchor="start" x="508" y="-342.5" font-family="Helvetica,sans-Serif" font-size="10.00">std::vector&lt; ant::Unpacker</text>
<text text-anchor="start" x="508" y="-329.5" font-family="Helvetica,sans-Serif" font-size="10.00">AcquConfig::RawChannel</text>
<text text-anchor="middle" x="567" y="-316.5" font-family="Helvetica,sans-Serif" font-size="10.00">_t&lt; std::uint16_t &gt; &gt;</text>
</g>
<!-- Node7&#45;&gt;Node5 -->
<g id="edge12" class="edge"><title>Node7&#45;&gt;Node5</title>
<path fill="none" stroke="#9a32cd" stroke-dasharray="5,2" d="M643.988,-341.821C676.581,-345.98 714.134,-350.77 745.271,-354.742"/>
<polygon fill="#9a32cd" stroke="#9a32cd" points="644.407,-338.347 634.044,-340.553 643.521,-345.29 644.407,-338.347"/>
<text text-anchor="middle" x="691" y="-356" font-family="Helvetica,sans-Serif" font-size="10.00"> RawChannels</text>
</g>
<!-- Node8 -->
<g id="node14" class="node"><title>Node8</title>
<a xlink:href="structant_1_1_unpacker_acqu_config_1_1_raw_channel__t.html" target="_top" xlink:title="ant::UnpackerAcquConfig\l::RawChannel_t\&lt; std::uint16_t \&gt;">
<polygon fill="white" stroke="black" points="256.5,-315 256.5,-349 415.5,-349 415.5,-315 256.5,-315"/>
<text text-anchor="start" x="264.5" y="-336" font-family="Helvetica,sans-Serif" font-size="10.00">ant::UnpackerAcquConfig</text>
<text text-anchor="middle" x="336" y="-323" font-family="Helvetica,sans-Serif" font-size="10.00">::RawChannel_t&lt; std::uint16_t &gt;</text>
</a>
</g>
<!-- Node8&#45;&gt;Node7 -->
<g id="edge14" class="edge"><title>Node8&#45;&gt;Node7</title>
<path fill="none" stroke="#9a32cd" stroke-dasharray="5,2" d="M425.887,-332C450.498,-332 476.742,-332 499.84,-332"/>
<polygon fill="#9a32cd" stroke="#9a32cd" points="425.821,-328.5 415.821,-332 425.821,-335.5 425.821,-328.5"/>
<text text-anchor="middle" x="456" y="-336" font-family="Helvetica,sans-Serif" font-size="10.00"> elements</text>
</g>
<!-- Node9 -->
<g id="node16" class="node"><title>Node9</title>
<a xlink:href="structant_1_1std__ext_1_1mapped__vectors.html" target="_top" xlink:title="ant::std_ext::mapped\l_vectors\&lt; std::uint16\l_t, std::uint16_t \&gt;">
<polygon fill="white" stroke="black" points="1008.5,-280.5 1008.5,-327.5 1117.5,-327.5 1117.5,-280.5 1008.5,-280.5"/>
<text text-anchor="start" x="1016.5" y="-314.5" font-family="Helvetica,sans-Serif" font-size="10.00">ant::std_ext::mapped</text>
<text text-anchor="start" x="1016.5" y="-301.5" font-family="Helvetica,sans-Serif" font-size="10.00">_vectors&lt; std::uint16</text>
<text text-anchor="middle" x="1063" y="-288.5" font-family="Helvetica,sans-Serif" font-size="10.00">_t, std::uint16_t &gt;</text>
</a>
</g>
<!-- Node9&#45;&gt;Node2 -->
<g id="edge16" class="edge"><title>Node9&#45;&gt;Node2</title>
<path fill="none" stroke="#9a32cd" stroke-dasharray="5,2" d="M1127.41,-291.689C1161.53,-285.005 1204.12,-276.406 1242,-268 1247.98,-266.673 1254.24,-265.23 1260.45,-263.766"/>
<polygon fill="#9a32cd" stroke="#9a32cd" points="1126.71,-288.26 1117.56,-293.611 1128.05,-295.131 1126.71,-288.26"/>
<text text-anchor="middle" x="1203" y="-287" font-family="Helvetica,sans-Serif" font-size="10.00"> hit_storage</text>
</g>
<!-- Node10 -->
<g id="node18" class="node"><title>Node10</title>
<a xlink:href="structant_1_1_t_i_d.html" target="_top" xlink:title="ant::TID">
<polygon fill="white" stroke="black" points="1036.5,-240.5 1036.5,-261.5 1089.5,-261.5 1089.5,-240.5 1036.5,-240.5"/>
<text text-anchor="middle" x="1063" y="-248.5" font-family="Helvetica,sans-Serif" font-size="10.00">ant::TID</text>
</a>
</g>
<!-- Node10&#45;&gt;Node2 -->
<g id="edge18" class="edge"><title>Node10&#45;&gt;Node2</title>
<path fill="none" stroke="#9a32cd" stroke-dasharray="5,2" d="M1099.8,-251C1142.18,-251 1212.12,-251 1260.04,-251"/>
<polygon fill="#9a32cd" stroke="#9a32cd" points="1099.65,-247.5 1089.65,-251 1099.65,-254.5 1099.65,-247.5"/>
<text text-anchor="middle" x="1203" y="-255" font-family="Helvetica,sans-Serif" font-size="10.00"> id</text>
</g>
<!-- Node11 -->
<g id="node20" class="node"><title>Node11</title>
<a xlink:href="classant_1_1printable__traits.html" target="_top" xlink:title="ant::printable_traits">
<polygon fill="white" stroke="black" points="760,-240.5 760,-261.5 860,-261.5 860,-240.5 760,-240.5"/>
<text text-anchor="middle" x="810" y="-248.5" font-family="Helvetica,sans-Serif" font-size="10.00">ant::printable_traits</text>
</a>
</g>
<!-- Node11&#45;&gt;Node10 -->
<g id="edge20" class="edge"><title>Node11&#45;&gt;Node10</title>
<path fill="none" stroke="midnightblue" d="M870.548,-251C923.353,-251 997.443,-251 1036.5,-251"/>
<polygon fill="midnightblue" stroke="midnightblue" points="870.287,-247.5 860.287,-251 870.287,-254.5 870.287,-247.5"/>
</g>
<!-- Node12 -->
<g id="node22" class="node"><title>Node12</title>
<polygon fill="white" stroke="#bfbfbf" points="980.5,-174.5 980.5,-221.5 1145.5,-221.5 1145.5,-174.5 980.5,-174.5"/>
<text text-anchor="start" x="988.5" y="-208.5" font-family="Helvetica,sans-Serif" font-size="10.00">std::vector&lt; std::vector</text>
<text text-anchor="start" x="988.5" y="-195.5" font-family="Helvetica,sans-Serif" font-size="10.00">&lt; const ant::UnpackerAcquConfig</text>
<text text-anchor="middle" x="1063" y="-182.5" font-family="Helvetica,sans-Serif" font-size="10.00">::hit_mapping_t * &gt; &gt;</text>
</g>
<!-- Node12&#45;&gt;Node2 -->
<g id="edge22" class="edge"><title>Node12&#45;&gt;Node2</title>
<path fill="none" stroke="#9a32cd" stroke-dasharray="5,2" d="M1155.68,-215.911C1183.49,-221.48 1214.03,-227.793 1242,-234 1247.98,-235.327 1254.24,-236.77 1260.45,-238.234"/>
<polygon fill="#9a32cd" stroke="#9a32cd" points="1156.07,-212.418 1145.58,-213.894 1154.7,-219.283 1156.07,-212.418"/>
<text text-anchor="middle" x="1203" y="-238" font-family="Helvetica,sans-Serif" font-size="10.00"> hit_mappings_ptr</text>
</g>
<!-- Node13 -->
<g id="node24" class="node"><title>Node13</title>
<polygon fill="white" stroke="#bfbfbf" points="983.5,-68 983.5,-102 1142.5,-102 1142.5,-68 983.5,-68"/>
<text text-anchor="start" x="991.5" y="-89" font-family="Helvetica,sans-Serif" font-size="10.00">std::vector&lt; ant::Unpacker</text>
<text text-anchor="middle" x="1063" y="-76" font-family="Helvetica,sans-Serif" font-size="10.00">AcquConfig::scaler_mapping_t &gt;</text>
</g>
<!-- Node13&#45;&gt;Node2 -->
<g id="edge24" class="edge"><title>Node13&#45;&gt;Node2</title>
<path fill="none" stroke="#9a32cd" stroke-dasharray="5,2" d="M1150.24,-105.063C1181.42,-115.212 1215.38,-129.977 1242,-151 1270.94,-173.855 1292.88,-211.839 1303.96,-233.827"/>
<polygon fill="#9a32cd" stroke="#9a32cd" points="1151.26,-101.713 1140.67,-102.059 1149.16,-108.392 1151.26,-101.713"/>
<text text-anchor="middle" x="1203" y="-155" font-family="Helvetica,sans-Serif" font-size="10.00"> scaler_mappings</text>
</g>
<!-- Node14 -->
<g id="node26" class="node"><title>Node14</title>
<a xlink:href="structant_1_1_unpacker_acqu_config_1_1scaler__mapping__t.html" target="_top" xlink:title="ant::UnpackerAcquConfig\l::scaler_mapping_t">
<polygon fill="white" stroke="black" points="745.5,-63 745.5,-97 874.5,-97 874.5,-63 745.5,-63"/>
<text text-anchor="start" x="753.5" y="-84" font-family="Helvetica,sans-Serif" font-size="10.00">ant::UnpackerAcquConfig</text>
<text text-anchor="middle" x="810" y="-71" font-family="Helvetica,sans-Serif" font-size="10.00">::scaler_mapping_t</text>
</a>
</g>
<!-- Node14&#45;&gt;Node13 -->
<g id="edge26" class="edge"><title>Node14&#45;&gt;Node13</title>
<path fill="none" stroke="#9a32cd" stroke-dasharray="5,2" d="M885.124,-81.4847C916.091,-82.0967 952.006,-82.8064 983.423,-83.4273"/>
<polygon fill="#9a32cd" stroke="#9a32cd" points="884.892,-77.9795 874.825,-81.2811 884.754,-84.9781 884.892,-77.9795"/>
<text text-anchor="middle" x="928" y="-86" font-family="Helvetica,sans-Serif" font-size="10.00"> elements</text>
</g>
<!-- Node15 -->
<g id="node28" class="node"><title>Node15</title>
<a xlink:title="STL class. ">
<polygon fill="white" stroke="#bfbfbf" points="306,-128.5 306,-149.5 366,-149.5 366,-128.5 306,-128.5"/>
<text text-anchor="middle" x="336" y="-136.5" font-family="Helvetica,sans-Serif" font-size="10.00">std::string</text>
</a>
</g>
<!-- Node15&#45;&gt;Node14 -->
<g id="edge28" class="edge"><title>Node15&#45;&gt;Node14</title>
<path fill="none" stroke="#9a32cd" stroke-dasharray="5,2" d="M374.574,-125.096C406.62,-114.233 453.65,-99.8632 496,-93 581.365,-79.1657 681.391,-77.4788 745.201,-78.2006"/>
<polygon fill="#9a32cd" stroke="#9a32cd" points="373.039,-121.923 364.722,-128.486 375.316,-128.542 373.039,-121.923"/>
<text text-anchor="middle" x="567" y="-97" font-family="Helvetica,sans-Serif" font-size="10.00"> SlowControlName</text>
</g>
<!-- Node20 -->
<g id="node38" class="node"><title>Node20</title>
<a xlink:href="structant_1_1unpacker_1_1acqu_1_1_file_format_base_1_1_info.html" target="_top" xlink:title="ant::unpacker::acqu\l::FileFormatBase::Info">
<polygon fill="white" stroke="black" points="1006,-122 1006,-156 1120,-156 1120,-122 1006,-122"/>
<text text-anchor="start" x="1014" y="-143" font-family="Helvetica,sans-Serif" font-size="10.00">ant::unpacker::acqu</text>
<text text-anchor="middle" x="1063" y="-130" font-family="Helvetica,sans-Serif" font-size="10.00">::FileFormatBase::Info</text>
</a>
</g>
<!-- Node15&#45;&gt;Node20 -->
<g id="edge46" class="edge"><title>Node15&#45;&gt;Node20</title>
<path fill="none" stroke="#9a32cd" stroke-dasharray="5,2" d="M376.003,-149.611C408.157,-157.566 454.627,-167.778 496,-172 702.045,-193.027 757.59,-202.365 962,-169 971.658,-167.424 990.887,-161.924 1010,-156.056"/>
<polygon fill="#9a32cd" stroke="#9a32cd" points="376.642,-146.163 366.091,-147.118 374.935,-152.952 376.642,-146.163"/>
<text text-anchor="middle" x="691" y="-220" font-family="Helvetica,sans-Serif" font-size="10.00"> Description</text>
<text text-anchor="middle" x="691" y="-207" font-family="Helvetica,sans-Serif" font-size="10.00">OutFile</text>
<text text-anchor="middle" x="691" y="-194" font-family="Helvetica,sans-Serif" font-size="10.00">RunNote</text>
</g>
<!-- Node22 -->
<g id="node42" class="node"><title>Node22</title>
<a xlink:href="structant_1_1unpacker_1_1acqu_1_1_file_format_base_1_1_info_1_1_hardware_module.html" target="_top" xlink:title="ant::unpacker::acqu\l::FileFormatBase::Info\l::HardwareModule">
<polygon fill="white" stroke="black" points="510,-115.5 510,-162.5 624,-162.5 624,-115.5 510,-115.5"/>
<text text-anchor="start" x="518" y="-149.5" font-family="Helvetica,sans-Serif" font-size="10.00">ant::unpacker::acqu</text>
<text text-anchor="start" x="518" y="-136.5" font-family="Helvetica,sans-Serif" font-size="10.00">::FileFormatBase::Info</text>
<text text-anchor="middle" x="567" y="-123.5" font-family="Helvetica,sans-Serif" font-size="10.00">::HardwareModule</text>
</a>
</g>
<!-- Node15&#45;&gt;Node22 -->
<g id="edge44" class="edge"><title>Node15&#45;&gt;Node22</title>
<path fill="none" stroke="#9a32cd" stroke-dasharray="5,2" d="M376.575,-139C413.485,-139 468.355,-139 509.727,-139"/>
<polygon fill="#9a32cd" stroke="#9a32cd" points="376.199,-135.5 366.199,-139 376.199,-142.5 376.199,-135.5"/>
<text text-anchor="middle" x="456" y="-143" font-family="Helvetica,sans-Serif" font-size="10.00"> Identifier</text>
</g>
<!-- Node16 -->
<g id="node30" class="node"><title>Node16</title>
<a xlink:title="STL class. ">
<polygon fill="white" stroke="#bfbfbf" points="32.5,-122 32.5,-156 127.5,-156 127.5,-122 32.5,-122"/>
<text text-anchor="start" x="40.5" y="-143" font-family="Helvetica,sans-Serif" font-size="10.00">std::basic_string&lt;</text>
<text text-anchor="middle" x="80" y="-130" font-family="Helvetica,sans-Serif" font-size="10.00"> char &gt;</text>
</a>
</g>
<!-- Node16&#45;&gt;Node15 -->
<g id="edge30" class="edge"><title>Node16&#45;&gt;Node15</title>
<path fill="none" stroke="midnightblue" d="M137.674,-139C189.879,-139 264.715,-139 305.923,-139"/>
<polygon fill="midnightblue" stroke="midnightblue" points="137.552,-135.5 127.552,-139 137.552,-142.5 137.552,-135.5"/>
</g>
<!-- Node17 -->
<g id="node32" class="node"><title>Node17</title>
<polygon fill="white" stroke="#bfbfbf" points="496,-0.5 496,-47.5 638,-47.5 638,-0.5 496,-0.5"/>
<text text-anchor="start" x="504" y="-34.5" font-family="Helvetica,sans-Serif" font-size="10.00">std::vector&lt; ant::Unpacker</text>
<text text-anchor="start" x="504" y="-21.5" font-family="Helvetica,sans-Serif" font-size="10.00">AcquConfig::scaler_mapping</text>
<text text-anchor="middle" x="567" y="-8.5" font-family="Helvetica,sans-Serif" font-size="10.00">_t::entry_t &gt;</text>
</g>
<!-- Node17&#45;&gt;Node14 -->
<g id="edge32" class="edge"><title>Node17&#45;&gt;Node14</title>
<path fill="none" stroke="#9a32cd" stroke-dasharray="5,2" d="M647.898,-39.7697C673.002,-44.9366 700.712,-50.92 726,-57 733.645,-58.838 741.649,-60.8783 749.553,-62.9628"/>
<polygon fill="#9a32cd" stroke="#9a32cd" points="648.55,-36.3305 638.051,-37.7569 647.148,-43.1887 648.55,-36.3305"/>
<text text-anchor="middle" x="691" y="-61" font-family="Helvetica,sans-Serif" font-size="10.00"> Entries</text>
</g>
<!-- Node18 -->
<g id="node34" class="node"><title>Node18</title>
<a xlink:href="structant_1_1_unpacker_acqu_config_1_1scaler__mapping__t_1_1entry__t.html" target="_top" xlink:title="ant::UnpackerAcquConfig\l::scaler_mapping_t::entry_t">
<polygon fill="white" stroke="black" points="268.5,-7 268.5,-41 403.5,-41 403.5,-7 268.5,-7"/>
<text text-anchor="start" x="276.5" y="-28" font-family="Helvetica,sans-Serif" font-size="10.00">ant::UnpackerAcquConfig</text>
<text text-anchor="middle" x="336" y="-15" font-family="Helvetica,sans-Serif" font-size="10.00">::scaler_mapping_t::entry_t</text>
</a>
</g>
<!-- Node18&#45;&gt;Node17 -->
<g id="edge34" class="edge"><title>Node18&#45;&gt;Node17</title>
<path fill="none" stroke="#9a32cd" stroke-dasharray="5,2" d="M414.087,-24C440.479,-24 469.792,-24 495.636,-24"/>
<polygon fill="#9a32cd" stroke="#9a32cd" points="413.747,-20.5001 403.747,-24 413.747,-27.5001 413.747,-20.5001"/>
<text text-anchor="middle" x="456" y="-28" font-family="Helvetica,sans-Serif" font-size="10.00"> elements</text>
</g>
<!-- Node19 -->
<g id="node36" class="node"><title>Node19</title>
<a xlink:href="structant_1_1_unpacker_acqu_config_1_1_raw_channel__t.html" target="_top" xlink:title="ant::UnpackerAcquConfig\l::RawChannel_t\&lt; std::uint32_t \&gt;">
<polygon fill="white" stroke="black" points="0.5,-7 0.5,-41 159.5,-41 159.5,-7 0.5,-7"/>
<text text-anchor="start" x="8.5" y="-28" font-family="Helvetica,sans-Serif" font-size="10.00">ant::UnpackerAcquConfig</text>
<text text-anchor="middle" x="80" y="-15" font-family="Helvetica,sans-Serif" font-size="10.00">::RawChannel_t&lt; std::uint32_t &gt;</text>
</a>
</g>
<!-- Node19&#45;&gt;Node18 -->
<g id="edge36" class="edge"><title>Node19&#45;&gt;Node18</title>
<path fill="none" stroke="#9a32cd" stroke-dasharray="5,2" d="M169.936,-24C202.202,-24 238.018,-24 268.103,-24"/>
<polygon fill="#9a32cd" stroke="#9a32cd" points="169.597,-20.5001 159.597,-24 169.597,-27.5001 169.597,-20.5001"/>
<text text-anchor="middle" x="208" y="-28" font-family="Helvetica,sans-Serif" font-size="10.00"> RawChannel</text>
</g>
<!-- Node20&#45;&gt;Node2 -->
<g id="edge38" class="edge"><title>Node20&#45;&gt;Node2</title>
<path fill="none" stroke="#9a32cd" stroke-dasharray="5,2" d="M1130.1,-156.799C1164.62,-167.29 1206.73,-182.211 1242,-201 1259.53,-210.339 1277.74,-223.47 1291.19,-233.932"/>
<polygon fill="#9a32cd" stroke="#9a32cd" points="1130.7,-153.325 1120.12,-153.822 1128.7,-160.033 1130.7,-153.325"/>
<text text-anchor="middle" x="1203" y="-205" font-family="Helvetica,sans-Serif" font-size="10.00"> info</text>
</g>
<!-- Node21 -->
<g id="node40" class="node"><title>Node21</title>
<polygon fill="white" stroke="#bfbfbf" points="744.5,-115.5 744.5,-162.5 875.5,-162.5 875.5,-115.5 744.5,-115.5"/>
<text text-anchor="start" x="752.5" y="-149.5" font-family="Helvetica,sans-Serif" font-size="10.00">std::vector&lt; ant::unpacker</text>
<text text-anchor="start" x="752.5" y="-136.5" font-family="Helvetica,sans-Serif" font-size="10.00">::acqu::FileFormatBase::</text>
<text text-anchor="middle" x="810" y="-123.5" font-family="Helvetica,sans-Serif" font-size="10.00">Info::HardwareModule &gt;</text>
</g>
<!-- Node21&#45;&gt;Node20 -->
<g id="edge40" class="edge"><title>Node21&#45;&gt;Node20</title>
<path fill="none" stroke="#9a32cd" stroke-dasharray="5,2" d="M885.925,-139C924.361,-139 970.255,-139 1005.69,-139"/>
<polygon fill="#9a32cd" stroke="#9a32cd" points="885.812,-135.5 875.812,-139 885.812,-142.5 885.812,-135.5"/>
<text text-anchor="middle" x="928" y="-156" font-family="Helvetica,sans-Serif" font-size="10.00"> ScalerModules</text>
<text text-anchor="middle" x="928" y="-143" font-family="Helvetica,sans-Serif" font-size="10.00">ADCModules</text>
</g>
<!-- Node22&#45;&gt;Node21 -->
<g id="edge42" class="edge"><title>Node22&#45;&gt;Node21</title>
<path fill="none" stroke="#9a32cd" stroke-dasharray="5,2" d="M634.644,-139C668.827,-139 710.142,-139 744.08,-139"/>
<polygon fill="#9a32cd" stroke="#9a32cd" points="634.28,-135.5 624.28,-139 634.28,-142.5 634.28,-135.5"/>
<text text-anchor="middle" x="691" y="-143" font-family="Helvetica,sans-Serif" font-size="10.00"> elements</text>
</g>
</g>
</svg>
