<?xml version="1.0" encoding="UTF-8" standalone="no"?>
<!DOCTYPE svg PUBLIC "-//W3C//DTD SVG 1.1//EN"
 "http://www.w3.org/Graphics/SVG/1.1/DTD/svg11.dtd">
<!-- Generated by graphviz version 2.26.3 (20100126.1600)
 -->
<!-- Title: ant::analysis::physics::FindProton Pages: 1 -->
<svg width="1066pt" height="252pt"
 viewBox="0.00 0.00 1066.00 252.00" xmlns="http://www.w3.org/2000/svg" xmlns:xlink="http://www.w3.org/1999/xlink">
<g id="graph1" class="graph" transform="scale(1 1) rotate(0) translate(4 248)">
<title>ant::analysis::physics::FindProton</title>
<polygon fill="white" stroke="white" points="-4,5 -4,-248 1063,-248 1063,5 -4,5"/>
<!-- Node1 -->
<g id="node1" class="node"><title>Node1</title>
<polygon fill="#bfbfbf" stroke="black" points="946,-76 946,-110 1058,-110 1058,-76 946,-76"/>
<text text-anchor="start" x="954" y="-97" font-family="Helvetica,sans-Serif" font-size="10.00">ant::analysis::physics</text>
<text text-anchor="middle" x="1002" y="-84" font-family="Helvetica,sans-Serif" font-size="10.00">::FindProton</text>
</g>
<!-- Node2 -->
<g id="node2" class="node"><title>Node2</title>
<a xlink:href="classant_1_1analysis_1_1_physics.html" target="_top" xlink:title="ant::analysis::Physics">
<polygon fill="white" stroke="black" points="714.5,-187.5 714.5,-208.5 827.5,-208.5 827.5,-187.5 714.5,-187.5"/>
<text text-anchor="middle" x="771" y="-195.5" font-family="Helvetica,sans-Serif" font-size="10.00">ant::analysis::Physics</text>
</a>
</g>
<!-- Node2&#45;&gt;Node1 -->
<g id="edge2" class="edge"><title>Node2&#45;&gt;Node1</title>
<path fill="none" stroke="midnightblue" d="M803.689,-183.286C835.465,-168.966 885.078,-146.566 928,-127 939.964,-121.546 953.002,-115.568 964.754,-110.166"/>
<polygon fill="midnightblue" stroke="midnightblue" points="802.107,-180.16 794.427,-187.458 804.982,-186.542 802.107,-180.16"/>
</g>
<!-- Node3 -->
<g id="node4" class="node"><title>Node3</title>
<a xlink:href="classant_1_1analysis_1_1_histogram_factory.html" target="_top" xlink:title="ant::analysis::Histogram\lFactory">
<polygon fill="white" stroke="black" points="488.5,-210 488.5,-244 611.5,-244 611.5,-210 488.5,-210"/>
<text text-anchor="start" x="496.5" y="-231" font-family="Helvetica,sans-Serif" font-size="10.00">ant::analysis::Histogram</text>
<text text-anchor="middle" x="550" y="-218" font-family="Helvetica,sans-Serif" font-size="10.00">Factory</text>
</a>
</g>
<!-- Node3&#45;&gt;Node2 -->
<g id="edge4" class="edge"><title>Node3&#45;&gt;Node2</title>
<path fill="none" stroke="#9a32cd" stroke-dasharray="5,2" d="M621.567,-217.609C651.614,-213.666 686.066,-209.145 714.311,-205.439"/>
<polygon fill="#9a32cd" stroke="#9a32cd" points="621.02,-214.15 611.561,-218.922 621.931,-221.091 621.02,-214.15"/>
<text text-anchor="middle" x="660" y="-219" font-family="Helvetica,sans-Serif" font-size="10.00"> HistFac</text>
</g>
<!-- Node4 -->
<g id="node6" class="node"><title>Node4</title>
<a xlink:href="classant_1_1analysis_1_1utils_1_1_kin_fitter.html" target="_top" xlink:title="ant::analysis::utils\l::KinFitter">
<polygon fill="white" stroke="black" points="723,-106 723,-140 819,-140 819,-106 723,-106"/>
<text text-anchor="start" x="731" y="-127" font-family="Helvetica,sans-Serif" font-size="10.00">ant::analysis::utils</text>
<text text-anchor="middle" x="771" y="-114" font-family="Helvetica,sans-Serif" font-size="10.00">::KinFitter</text>
</a>
</g>
<!-- Node4&#45;&gt;Node1 -->
<g id="edge6" class="edge"><title>Node4&#45;&gt;Node1</title>
<path fill="none" stroke="#9a32cd" stroke-dasharray="5,2" d="M829.409,-115.414C865.097,-110.78 910.5,-104.883 945.78,-100.301"/>
<polygon fill="#9a32cd" stroke="#9a32cd" points="828.61,-111.989 819.144,-116.748 829.511,-118.93 828.61,-111.989"/>
<text text-anchor="middle" x="895" y="-114" font-family="Helvetica,sans-Serif" font-size="10.00"> fitter</text>
</g>
<!-- Node5 -->
<g id="node8" class="node"><title>Node5</title>
<a xlink:href="classant_1_1analysis_1_1utils_1_1_fitter.html" target="_top" xlink:title="ant::analysis::utils\l::Fitter">
<polygon fill="white" stroke="black" points="502,-158 502,-192 598,-192 598,-158 502,-158"/>
<text text-anchor="start" x="510" y="-179" font-family="Helvetica,sans-Serif" font-size="10.00">ant::analysis::utils</text>
<text text-anchor="middle" x="550" y="-166" font-family="Helvetica,sans-Serif" font-size="10.00">::Fitter</text>
</a>
</g>
<!-- Node5&#45;&gt;Node4 -->
<g id="edge8" class="edge"><title>Node5&#45;&gt;Node4</title>
<path fill="none" stroke="midnightblue" d="M608.043,-161.343C643.807,-152.928 689.117,-142.266 722.877,-134.323"/>
<polygon fill="midnightblue" stroke="midnightblue" points="607.159,-157.955 598.226,-163.653 608.762,-164.769 607.159,-157.955"/>
</g>
<!-- Node6 -->
<g id="node10" class="node"><title>Node6</title>
<polygon fill="white" stroke="#bfbfbf" points="265,-164.5 265,-185.5 405,-185.5 405,-164.5 265,-164.5"/>
<text text-anchor="middle" x="335" y="-172.5" font-family="Helvetica,sans-Serif" font-size="10.00">std::unique_ptr&lt; APLCON &gt;</text>
</g>
<!-- Node6&#45;&gt;Node5 -->
<g id="edge10" class="edge"><title>Node6&#45;&gt;Node5</title>
<path fill="none" stroke="#9a32cd" stroke-dasharray="5,2" d="M415.254,-175C444.336,-175 476.267,-175 501.742,-175"/>
<polygon fill="#9a32cd" stroke="#9a32cd" points="415.102,-171.5 405.102,-175 415.102,-178.5 415.102,-171.5"/>
<text text-anchor="middle" x="444" y="-179" font-family="Helvetica,sans-Serif" font-size="10.00"> aplcon</text>
</g>
<!-- Node7 -->
<g id="node12" class="node"><title>Node7</title>
<polygon fill="white" stroke="#bfbfbf" points="489.5,-106 489.5,-140 610.5,-140 610.5,-106 489.5,-106"/>
<text text-anchor="start" x="497.5" y="-127" font-family="Helvetica,sans-Serif" font-size="10.00">std::vector&lt; std::shared</text>
<text text-anchor="middle" x="550" y="-114" font-family="Helvetica,sans-Serif" font-size="10.00">_ptr&lt; FitParticle &gt; &gt;</text>
</g>
<!-- Node7&#45;&gt;Node4 -->
<g id="edge12" class="edge"><title>Node7&#45;&gt;Node4</title>
<path fill="none" stroke="#9a32cd" stroke-dasharray="5,2" d="M620.81,-123C654.072,-123 692.867,-123 722.695,-123"/>
<polygon fill="#9a32cd" stroke="#9a32cd" points="620.682,-119.5 610.682,-123 620.681,-126.5 620.682,-119.5"/>
<text text-anchor="middle" x="660" y="-127" font-family="Helvetica,sans-Serif" font-size="10.00"> Photons</text>
</g>
<!-- Node8 -->
<g id="node14" class="node"><title>Node8</title>
<polygon fill="white" stroke="#bfbfbf" points="478.5,-66.5 478.5,-87.5 621.5,-87.5 621.5,-66.5 478.5,-66.5"/>
<text text-anchor="middle" x="550" y="-74.5" font-family="Helvetica,sans-Serif" font-size="10.00">std::unique_ptr&lt; FitParticle &gt;</text>
</g>
<!-- Node8&#45;&gt;Node4 -->
<g id="edge14" class="edge"><title>Node8&#45;&gt;Node4</title>
<path fill="none" stroke="#9a32cd" stroke-dasharray="5,2" d="M610.88,-89.6719C646.155,-97.0141 689.943,-106.128 722.808,-112.969"/>
<polygon fill="#9a32cd" stroke="#9a32cd" points="611.205,-86.1646 600.702,-87.5533 609.779,-93.0177 611.205,-86.1646"/>
<text text-anchor="middle" x="660" y="-106" font-family="Helvetica,sans-Serif" font-size="10.00"> Proton</text>
</g>
<!-- Node9 -->
<g id="node16" class="node"><title>Node9</title>
<polygon fill="white" stroke="#bfbfbf" points="487.5,-0.5 487.5,-47.5 612.5,-47.5 612.5,-0.5 487.5,-0.5"/>
<text text-anchor="start" x="495.5" y="-34.5" font-family="Helvetica,sans-Serif" font-size="10.00">std::unique_ptr&lt; ant</text>
<text text-anchor="start" x="495.5" y="-21.5" font-family="Helvetica,sans-Serif" font-size="10.00">::analysis::utils::KinFitter</text>
<text text-anchor="middle" x="550" y="-8.5" font-family="Helvetica,sans-Serif" font-size="10.00">::PhotonBeamVector &gt;</text>
</g>
<!-- Node9&#45;&gt;Node4 -->
<g id="edge16" class="edge"><title>Node9&#45;&gt;Node4</title>
<path fill="none" stroke="#9a32cd" stroke-dasharray="5,2" d="M622.114,-47.6997C641.758,-55.789 662.443,-65.9095 680,-78 689.58,-84.5974 688.253,-90.6517 698,-97 705.553,-101.919 714.153,-106.045 722.734,-109.455"/>
<polygon fill="#9a32cd" stroke="#9a32cd" points="623.158,-44.3479 612.573,-43.892 620.564,-50.8493 623.158,-44.3479"/>
<text text-anchor="middle" x="660" y="-82" font-family="Helvetica,sans-Serif" font-size="10.00"> Beam</text>
</g>
<!-- Node10 -->
<g id="node18" class="node"><title>Node10</title>
<a xlink:href="structant_1_1analysis_1_1utils_1_1_kin_fitter_1_1_photon_beam_vector.html" target="_top" xlink:title="ant::analysis::utils\l::KinFitter::PhotonBeamVector">
<polygon fill="white" stroke="black" points="260,-7 260,-41 410,-41 410,-7 260,-7"/>
<text text-anchor="start" x="268" y="-28" font-family="Helvetica,sans-Serif" font-size="10.00">ant::analysis::utils</text>
<text text-anchor="middle" x="335" y="-15" font-family="Helvetica,sans-Serif" font-size="10.00">::KinFitter::PhotonBeamVector</text>
</a>
</g>
<!-- Node10&#45;&gt;Node9 -->
<g id="edge18" class="edge"><title>Node10&#45;&gt;Node9</title>
<path fill="none" stroke="#9a32cd" stroke-dasharray="5,2" d="M420.355,-24C442.703,-24 466.384,-24 487.307,-24"/>
<polygon fill="#9a32cd" stroke="#9a32cd" points="420.197,-20.5001 410.197,-24 420.197,-27.5001 420.197,-20.5001"/>
<text text-anchor="middle" x="444" y="-28" font-family="Helvetica,sans-Serif" font-size="10.00"> ptr</text>
</g>
<!-- Node11 -->
<g id="node20" class="node"><title>Node11</title>
<a xlink:title="STL class. ">
<polygon fill="white" stroke="#bfbfbf" points="134,-13.5 134,-34.5 194,-34.5 194,-13.5 134,-13.5"/>
<text text-anchor="middle" x="164" y="-21.5" font-family="Helvetica,sans-Serif" font-size="10.00">std::string</text>
</a>
</g>
<!-- Node11&#45;&gt;Node10 -->
<g id="edge20" class="edge"><title>Node11&#45;&gt;Node10</title>
<path fill="none" stroke="#9a32cd" stroke-dasharray="5,2" d="M204.584,-24C221.171,-24 240.908,-24 259.943,-24"/>
<polygon fill="#9a32cd" stroke="#9a32cd" points="204.178,-20.5001 194.178,-24 204.178,-27.5001 204.178,-20.5001"/>
<text text-anchor="middle" x="227" y="-28" font-family="Helvetica,sans-Serif" font-size="10.00"> Name</text>
</g>
<!-- Node12 -->
<g id="node22" class="node"><title>Node12</title>
<a xlink:title="STL class. ">
<polygon fill="white" stroke="#bfbfbf" points="0.5,-7 0.5,-41 95.5,-41 95.5,-7 0.5,-7"/>
<text text-anchor="start" x="8.5" y="-28" font-family="Helvetica,sans-Serif" font-size="10.00">std::basic_string&lt;</text>
<text text-anchor="middle" x="48" y="-15" font-family="Helvetica,sans-Serif" font-size="10.00"> char &gt;</text>
</a>
</g>
<!-- Node12&#45;&gt;Node11 -->
<g id="edge22" class="edge"><title>Node12&#45;&gt;Node11</title>
<path fill="none" stroke="midnightblue" d="M105.582,-24C115.29,-24 125.014,-24 133.666,-24"/>
<polygon fill="midnightblue" stroke="midnightblue" points="105.516,-20.5001 95.5163,-24 105.516,-27.5001 105.516,-20.5001"/>
</g>
<!-- Node13 -->
<g id="node24" class="node"><title>Node13</title>
<a xlink:href="classant_1_1analysis_1_1_prompt_random_1_1_switch.html" target="_top" xlink:title="ant::analysis::PromptRandom\l::Switch">
<polygon fill="white" stroke="black" points="698,-54 698,-88 844,-88 844,-54 698,-54"/>
<text text-anchor="start" x="706" y="-75" font-family="Helvetica,sans-Serif" font-size="10.00">ant::analysis::PromptRandom</text>
<text text-anchor="middle" x="771" y="-62" font-family="Helvetica,sans-Serif" font-size="10.00">::Switch</text>
</a>
</g>
<!-- Node13&#45;&gt;Node1 -->
<g id="edge24" class="edge"><title>Node13&#45;&gt;Node1</title>
<path fill="none" stroke="#9a32cd" stroke-dasharray="5,2" d="M854.316,-73.9638C878.162,-75.3027 904.152,-77.2312 928,-80 933.831,-80.6769 939.898,-81.5176 945.939,-82.4434"/>
<polygon fill="#9a32cd" stroke="#9a32cd" points="854.413,-70.4641 844.24,-73.4254 854.039,-77.4541 854.413,-70.4641"/>
<text text-anchor="middle" x="895" y="-84" font-family="Helvetica,sans-Serif" font-size="10.00"> promptrandom</text>
</g>
<!-- Node14 -->
<g id="node26" class="node"><title>Node14</title>
<a xlink:href="structant_1_1analysis_1_1physics_1_1_find_proton_1_1branches__t.html" target="_top" xlink:title="ant::analysis::physics\l::FindProton::branches_t">
<polygon fill="white" stroke="black" points="709,-2 709,-36 833,-36 833,-2 709,-2"/>
<text text-anchor="start" x="717" y="-23" font-family="Helvetica,sans-Serif" font-size="10.00">ant::analysis::physics</text>
<text text-anchor="middle" x="771" y="-10" font-family="Helvetica,sans-Serif" font-size="10.00">::FindProton::branches_t</text>
</a>
</g>
<!-- Node14&#45;&gt;Node1 -->
<g id="edge26" class="edge"><title>Node14&#45;&gt;Node1</title>
<path fill="none" stroke="#9a32cd" stroke-dasharray="5,2" d="M842.832,-32.968C869.907,-39.1187 900.736,-47.198 928,-57 942.385,-62.1718 957.673,-69.3094 970.596,-75.866"/>
<polygon fill="#9a32cd" stroke="#9a32cd" points="843.562,-29.5448 833.04,-30.7895 842.042,-36.3778 843.562,-29.5448"/>
<text text-anchor="middle" x="895" y="-61" font-family="Helvetica,sans-Serif" font-size="10.00"> tree_branches</text>
</g>
</g>
</svg>
