<?xml version="1.0" encoding="UTF-8" standalone="no"?>
<!DOCTYPE svg PUBLIC "-//W3C//DTD SVG 1.1//EN"
 "http://www.w3.org/Graphics/SVG/1.1/DTD/svg11.dtd">
<!-- Generated by graphviz version 2.26.3 (20100126.1600)
 -->
<!-- Title: ant::analysis::physics::ReconstructCheck Pages: 1 -->
<svg width="1802pt" height="662pt"
 viewBox="0.00 0.00 1802.00 661.68" xmlns="http://www.w3.org/2000/svg" xmlns:xlink="http://www.w3.org/1999/xlink">
<g id="graph1" class="graph" transform="scale(1 1) rotate(0) translate(4 657.682)">
<title>ant::analysis::physics::ReconstructCheck</title>
<polygon fill="white" stroke="white" points="-4,5 -4,-657.682 1799,-657.682 1799,5 -4,5"/>
<!-- Node1 -->
<g id="node1" class="node"><title>Node1</title>
<polygon fill="#bfbfbf" stroke="black" points="1682,-547.682 1682,-581.682 1794,-581.682 1794,-547.682 1682,-547.682"/>
<text text-anchor="start" x="1690" y="-568.682" font-family="Helvetica,sans-Serif" font-size="10.00">ant::analysis::physics</text>
<text text-anchor="middle" x="1738" y="-555.682" font-family="Helvetica,sans-Serif" font-size="10.00">::ReconstructCheck</text>
</g>
<!-- Node2 -->
<g id="node2" class="node"><title>Node2</title>
<a xlink:href="classant_1_1analysis_1_1_physics.html" target="_top" xlink:title="ant::analysis::Physics">
<polygon fill="white" stroke="black" points="1447.5,-626.182 1447.5,-647.182 1560.5,-647.182 1560.5,-626.182 1447.5,-626.182"/>
<text text-anchor="middle" x="1504" y="-634.182" font-family="Helvetica,sans-Serif" font-size="10.00">ant::analysis::Physics</text>
</a>
</g>
<!-- Node2&#45;&gt;Node1 -->
<g id="edge2" class="edge"><title>Node2&#45;&gt;Node1</title>
<path fill="none" stroke="midnightblue" d="M1566.56,-623.955C1576.45,-621.692 1586.53,-619.236 1596,-616.682 1626.67,-608.409 1634.15,-605.545 1664,-594.682 1674.94,-590.7 1686.67,-586.101 1697.49,-581.719"/>
<polygon fill="midnightblue" stroke="midnightblue" points="1565.75,-620.548 1556.76,-626.15 1567.28,-627.378 1565.75,-620.548"/>
</g>
<!-- Node3 -->
<g id="node4" class="node"><title>Node3</title>
<a xlink:href="classant_1_1analysis_1_1_histogram_factory.html" target="_top" xlink:title="ant::analysis::Histogram\lFactory">
<polygon fill="white" stroke="black" points="1138.5,-619.682 1138.5,-653.682 1261.5,-653.682 1261.5,-619.682 1138.5,-619.682"/>
<text text-anchor="start" x="1146.5" y="-640.682" font-family="Helvetica,sans-Serif" font-size="10.00">ant::analysis::Histogram</text>
<text text-anchor="middle" x="1200" y="-627.682" font-family="Helvetica,sans-Serif" font-size="10.00">Factory</text>
</a>
</g>
<!-- Node3&#45;&gt;Node2 -->
<g id="edge4" class="edge"><title>Node3&#45;&gt;Node2</title>
<path fill="none" stroke="#9a32cd" stroke-dasharray="5,2" d="M1271.65,-636.682C1325.34,-636.682 1397.8,-636.682 1447.45,-636.682"/>
<polygon fill="#9a32cd" stroke="#9a32cd" points="1271.52,-633.182 1261.52,-636.682 1271.52,-640.182 1271.52,-633.182"/>
<text text-anchor="middle" x="1348" y="-640.682" font-family="Helvetica,sans-Serif" font-size="10.00"> HistFac</text>
</g>
<!-- Node4 -->
<g id="node6" class="node"><title>Node4</title>
<a xlink:href="structant_1_1analysis_1_1physics_1_1_reconstruct_check_1_1_t_a_p_s_veto_match.html" target="_top" xlink:title="ant::analysis::physics\l::ReconstructCheck::TAPSVetoMatch">
<polygon fill="white" stroke="black" points="1412,-573.682 1412,-607.682 1596,-607.682 1596,-573.682 1412,-573.682"/>
<text text-anchor="start" x="1420" y="-594.682" font-family="Helvetica,sans-Serif" font-size="10.00">ant::analysis::physics</text>
<text text-anchor="middle" x="1504" y="-581.682" font-family="Helvetica,sans-Serif" font-size="10.00">::ReconstructCheck::TAPSVetoMatch</text>
</a>
</g>
<!-- Node4&#45;&gt;Node1 -->
<g id="edge6" class="edge"><title>Node4&#45;&gt;Node1</title>
<path fill="none" stroke="#9a32cd" stroke-dasharray="5,2" d="M1606.38,-579.306C1632.25,-576.432 1659.08,-573.451 1681.72,-570.935"/>
<polygon fill="#9a32cd" stroke="#9a32cd" points="1605.7,-575.86 1596.15,-580.443 1606.47,-582.818 1605.7,-575.86"/>
<text text-anchor="middle" x="1639" y="-581.682" font-family="Helvetica,sans-Serif" font-size="10.00"> tapsveto</text>
</g>
<!-- Node5 -->
<g id="node8" class="node"><title>Node5</title>
<a xlink:href="structant_1_1analysis_1_1utils_1_1_time_smearing_hack.html" target="_top" xlink:title="ant::analysis::utils\l::TimeSmearingHack">
<polygon fill="white" stroke="black" points="1449.5,-521.682 1449.5,-555.682 1558.5,-555.682 1558.5,-521.682 1449.5,-521.682"/>
<text text-anchor="start" x="1457.5" y="-542.682" font-family="Helvetica,sans-Serif" font-size="10.00">ant::analysis::utils</text>
<text text-anchor="middle" x="1504" y="-529.682" font-family="Helvetica,sans-Serif" font-size="10.00">::TimeSmearingHack</text>
</a>
</g>
<!-- Node5&#45;&gt;Node1 -->
<g id="edge8" class="edge"><title>Node5&#45;&gt;Node1</title>
<path fill="none" stroke="#9a32cd" stroke-dasharray="5,2" d="M1568.86,-545.348C1597.97,-548.397 1632.72,-552.118 1664,-555.682 1669.79,-556.341 1675.83,-557.047 1681.85,-557.762"/>
<polygon fill="#9a32cd" stroke="#9a32cd" points="1569.13,-541.857 1558.82,-544.299 1568.4,-548.819 1569.13,-541.857"/>
<text text-anchor="middle" x="1639" y="-559.682" font-family="Helvetica,sans-Serif" font-size="10.00"> timesmear</text>
</g>
<!-- Node6 -->
<g id="node10" class="node"><title>Node6</title>
<a xlink:href="structant_1_1analysis_1_1physics_1_1_reconstruct_check_1_1histgroup.html" target="_top" xlink:title="ant::analysis::physics\l::ReconstructCheck::histgroup">
<polygon fill="white" stroke="black" points="1429,-459.682 1429,-493.682 1579,-493.682 1579,-459.682 1429,-459.682"/>
<text text-anchor="start" x="1437" y="-480.682" font-family="Helvetica,sans-Serif" font-size="10.00">ant::analysis::physics</text>
<text text-anchor="middle" x="1504" y="-467.682" font-family="Helvetica,sans-Serif" font-size="10.00">::ReconstructCheck::histgroup</text>
</a>
</g>
<!-- Node6&#45;&gt;Node1 -->
<g id="edge10" class="edge"><title>Node6&#45;&gt;Node1</title>
<path fill="none" stroke="#9a32cd" stroke-dasharray="5,2" d="M1589.28,-484.921C1614.12,-489.358 1640.81,-496.183 1664,-506.682 1685.86,-516.577 1707.01,-534.232 1721.07,-547.473"/>
<polygon fill="#9a32cd" stroke="#9a32cd" points="1589.57,-481.421 1579.13,-483.22 1588.41,-488.325 1589.57,-481.421"/>
<text text-anchor="middle" x="1639" y="-536.682" font-family="Helvetica,sans-Serif" font-size="10.00"> cb_group</text>
<text text-anchor="middle" x="1639" y="-523.682" font-family="Helvetica,sans-Serif" font-size="10.00">all_group</text>
<text text-anchor="middle" x="1639" y="-510.682" font-family="Helvetica,sans-Serif" font-size="10.00">taps_group</text>
</g>
<!-- Node7 -->
<g id="node12" class="node"><title>Node7</title>
<polygon fill="white" stroke="#bfbfbf" points="1116.5,-505.182 1116.5,-552.182 1283.5,-552.182 1283.5,-505.182 1116.5,-505.182"/>
<text text-anchor="start" x="1124.5" y="-539.182" font-family="Helvetica,sans-Serif" font-size="10.00">std::unique_ptr&lt; ant</text>
<text text-anchor="start" x="1124.5" y="-526.182" font-family="Helvetica,sans-Serif" font-size="10.00">::analysis::physics::</text>
<text text-anchor="middle" x="1200" y="-513.182" font-family="Helvetica,sans-Serif" font-size="10.00">ReconstructCheck::PositionMap &gt;</text>
</g>
<!-- Node7&#45;&gt;Node6 -->
<g id="edge12" class="edge"><title>Node7&#45;&gt;Node6</title>
<path fill="none" stroke="#9a32cd" stroke-dasharray="5,2" d="M1293.88,-512.624C1337.29,-505.198 1388.15,-496.498 1428.96,-489.518"/>
<polygon fill="#9a32cd" stroke="#9a32cd" points="1293.14,-509.199 1283.87,-514.335 1294.32,-516.099 1293.14,-509.199"/>
<text text-anchor="middle" x="1348" y="-604.682" font-family="Helvetica,sans-Serif" font-size="10.00"> touchesholeFlagPos</text>
<text text-anchor="middle" x="1348" y="-591.682" font-family="Helvetica,sans-Serif" font-size="10.00">splitFlagPos</text>
<text text-anchor="middle" x="1348" y="-578.682" font-family="Helvetica,sans-Serif" font-size="10.00">energy_recov</text>
<text text-anchor="middle" x="1348" y="-565.682" font-family="Helvetica,sans-Serif" font-size="10.00">mult1_chargedPos</text>
<text text-anchor="middle" x="1348" y="-552.682" font-family="Helvetica,sans-Serif" font-size="10.00">input_positions</text>
<text text-anchor="middle" x="1348" y="-539.682" font-family="Helvetica,sans-Serif" font-size="10.00">splitPos</text>
<text text-anchor="middle" x="1348" y="-526.682" font-family="Helvetica,sans-Serif" font-size="10.00">mult1_positions</text>
<text text-anchor="middle" x="1348" y="-513.682" font-family="Helvetica,sans-Serif" font-size="10.00">posCharged</text>
</g>
<!-- Node8 -->
<g id="node14" class="node"><title>Node8</title>
<a xlink:href="structant_1_1analysis_1_1physics_1_1_reconstruct_check_1_1_position_map.html" target="_top" xlink:title="ant::analysis::physics\l::ReconstructCheck::PositionMap">
<polygon fill="white" stroke="black" points="818,-511.682 818,-545.682 982,-545.682 982,-511.682 818,-511.682"/>
<text text-anchor="start" x="826" y="-532.682" font-family="Helvetica,sans-Serif" font-size="10.00">ant::analysis::physics</text>
<text text-anchor="middle" x="900" y="-519.682" font-family="Helvetica,sans-Serif" font-size="10.00">::ReconstructCheck::PositionMap</text>
</a>
</g>
<!-- Node8&#45;&gt;Node7 -->
<g id="edge14" class="edge"><title>Node8&#45;&gt;Node7</title>
<path fill="none" stroke="#9a32cd" stroke-dasharray="5,2" d="M992.534,-528.682C1032.02,-528.682 1077.77,-528.682 1116.25,-528.682"/>
<polygon fill="#9a32cd" stroke="#9a32cd" points="992.373,-525.182 982.373,-528.682 992.373,-532.182 992.373,-525.182"/>
<text text-anchor="middle" x="1049" y="-532.682" font-family="Helvetica,sans-Serif" font-size="10.00"> ptr</text>
</g>
<!-- Node9 -->
<g id="node16" class="node"><title>Node9</title>
<a xlink:href="structant_1_1root__drawable__traits.html" target="_top" xlink:title="ant::root_drawable\l_traits">
<polygon fill="white" stroke="black" points="610.5,-511.682 610.5,-545.682 707.5,-545.682 707.5,-511.682 610.5,-511.682"/>
<text text-anchor="start" x="618.5" y="-532.682" font-family="Helvetica,sans-Serif" font-size="10.00">ant::root_drawable</text>
<text text-anchor="middle" x="659" y="-519.682" font-family="Helvetica,sans-Serif" font-size="10.00">_traits</text>
</a>
</g>
<!-- Node9&#45;&gt;Node8 -->
<g id="edge16" class="edge"><title>Node9&#45;&gt;Node8</title>
<path fill="none" stroke="midnightblue" d="M718.061,-528.682C748.021,-528.682 784.9,-528.682 817.604,-528.682"/>
<polygon fill="midnightblue" stroke="midnightblue" points="717.77,-525.182 707.77,-528.682 717.77,-532.182 717.77,-525.182"/>
</g>
<!-- Node10 -->
<g id="node18" class="node"><title>Node10</title>
<a xlink:title="STL class. ">
<polygon fill="white" stroke="#bfbfbf" points="134,-191.182 134,-212.182 194,-212.182 194,-191.182 134,-191.182"/>
<text text-anchor="middle" x="164" y="-199.182" font-family="Helvetica,sans-Serif" font-size="10.00">std::string</text>
</a>
</g>
<!-- Node10&#45;&gt;Node6 -->
<g id="edge18" class="edge"><title>Node10&#45;&gt;Node6</title>
<path fill="none" stroke="#9a32cd" stroke-dasharray="5,2" d="M169.964,-222.201C189.901,-286.006 260.561,-476.682 393,-476.682 393,-476.682 393,-476.682 1200,-476.682 1277.98,-476.682 1367.21,-476.682 1428.73,-476.682"/>
<polygon fill="#9a32cd" stroke="#9a32cd" points="173.262,-221.016 167.011,-212.462 166.564,-223.048 173.262,-221.016"/>
<text text-anchor="middle" x="767" y="-480.682" font-family="Helvetica,sans-Serif" font-size="10.00"> Prefix</text>
</g>
<!-- Node12 -->
<g id="node22" class="node"><title>Node12</title>
<a xlink:href="structant_1_1hstack.html" target="_top" xlink:title="The hstack class. ">
<polygon fill="white" stroke="black" points="1167.5,-268.182 1167.5,-289.182 1232.5,-289.182 1232.5,-268.182 1167.5,-268.182"/>
<text text-anchor="middle" x="1200" y="-276.182" font-family="Helvetica,sans-Serif" font-size="10.00">ant::hstack</text>
</a>
</g>
<!-- Node10&#45;&gt;Node12 -->
<g id="edge50" class="edge"><title>Node10&#45;&gt;Node12</title>
<path fill="none" stroke="#9a32cd" stroke-dasharray="5,2" d="M189.848,-217.556C222.123,-236.822 279.494,-269.257 332,-289.682 540.277,-370.7 596.398,-389.772 818,-418.682 941.683,-434.817 989.532,-461.265 1098,-399.682 1146.02,-372.416 1181.52,-313.373 1194.55,-289.262"/>
<polygon fill="#9a32cd" stroke="#9a32cd" points="191.425,-214.42 181.052,-212.26 187.814,-220.417 191.425,-214.42"/>
<text text-anchor="middle" x="659" y="-407.682" font-family="Helvetica,sans-Serif" font-size="10.00"> origtitle</text>
</g>
<!-- Node19 -->
<g id="node39" class="node"><title>Node19</title>
<a xlink:href="structant_1_1hstack_1_1hist__t.html" target="_top" xlink:title="ant::hstack::hist_t">
<polygon fill="white" stroke="black" points="611.5,-169.182 611.5,-190.182 706.5,-190.182 706.5,-169.182 611.5,-169.182"/>
<text text-anchor="middle" x="659" y="-177.182" font-family="Helvetica,sans-Serif" font-size="10.00">ant::hstack::hist_t</text>
</a>
</g>
<!-- Node10&#45;&gt;Node19 -->
<g id="edge48" class="edge"><title>Node10&#45;&gt;Node19</title>
<path fill="none" stroke="#9a32cd" stroke-dasharray="5,2" d="M204.476,-201.314C279.438,-200.413 444.917,-197.405 584,-187.682 592.883,-187.061 602.338,-186.206 611.436,-185.284"/>
<polygon fill="#9a32cd" stroke="#9a32cd" points="204.046,-197.818 194.086,-201.432 204.125,-204.818 204.046,-197.818"/>
<text text-anchor="middle" x="393" y="-203.682" font-family="Helvetica,sans-Serif" font-size="10.00"> Path</text>
</g>
<!-- Node20 -->
<g id="node41" class="node"><title>Node20</title>
<a xlink:href="structant_1_1analysis_1_1plot_1_1histstyle_1_1_mod_option__t.html" target="_top" xlink:title="ant::analysis::plot\l::histstyle::ModOption_t">
<polygon fill="white" stroke="black" points="332.5,-131.682 332.5,-165.682 453.5,-165.682 453.5,-131.682 332.5,-131.682"/>
<text text-anchor="start" x="340.5" y="-152.682" font-family="Helvetica,sans-Serif" font-size="10.00">ant::analysis::plot</text>
<text text-anchor="middle" x="393" y="-139.682" font-family="Helvetica,sans-Serif" font-size="10.00">::histstyle::ModOption_t</text>
</a>
</g>
<!-- Node10&#45;&gt;Node20 -->
<g id="edge46" class="edge"><title>Node10&#45;&gt;Node20</title>
<path fill="none" stroke="#9a32cd" stroke-dasharray="5,2" d="M188.096,-185.839C195.501,-181.609 203.852,-177.45 212,-174.682 250.776,-161.507 296.432,-155.008 332.19,-151.802"/>
<polygon fill="#9a32cd" stroke="#9a32cd" points="186.067,-182.975 179.309,-191.135 189.681,-188.97 186.067,-182.975"/>
<text text-anchor="middle" x="263" y="-178.682" font-family="Helvetica,sans-Serif" font-size="10.00"> DrawOption</text>
</g>
<!-- Node21 -->
<g id="node47" class="node"><title>Node21</title>
<a xlink:href="structant_1_1hstack_1_1options__t.html" target="_top" xlink:title="ant::hstack::options_t">
<polygon fill="white" stroke="black" points="472.5,-93.182 472.5,-114.182 583.5,-114.182 583.5,-93.182 472.5,-93.182"/>
<text text-anchor="middle" x="528" y="-101.182" font-family="Helvetica,sans-Serif" font-size="10.00">ant::hstack::options_t</text>
</a>
</g>
<!-- Node10&#45;&gt;Node21 -->
<g id="edge56" class="edge"><title>Node10&#45;&gt;Node21</title>
<path fill="none" stroke="#9a32cd" stroke-dasharray="5,2" d="M173.254,-182.03C181.313,-167.249 194.46,-147.861 212,-137.682 293.13,-90.6002 405.859,-91.0556 472.442,-96.675"/>
<polygon fill="#9a32cd" stroke="#9a32cd" points="170.137,-180.438 168.698,-190.934 176.369,-183.626 170.137,-180.438"/>
<text text-anchor="middle" x="263" y="-141.682" font-family="Helvetica,sans-Serif" font-size="10.00"> HistThresholdMatches</text>
</g>
<!-- Node11 -->
<g id="node20" class="node"><title>Node11</title>
<a xlink:title="STL class. ">
<polygon fill="white" stroke="#bfbfbf" points="0.5,-184.682 0.5,-218.682 95.5,-218.682 95.5,-184.682 0.5,-184.682"/>
<text text-anchor="start" x="8.5" y="-205.682" font-family="Helvetica,sans-Serif" font-size="10.00">std::basic_string&lt;</text>
<text text-anchor="middle" x="48" y="-192.682" font-family="Helvetica,sans-Serif" font-size="10.00"> char &gt;</text>
</a>
</g>
<!-- Node11&#45;&gt;Node10 -->
<g id="edge20" class="edge"><title>Node11&#45;&gt;Node10</title>
<path fill="none" stroke="midnightblue" d="M105.582,-201.682C115.29,-201.682 125.014,-201.682 133.666,-201.682"/>
<polygon fill="midnightblue" stroke="midnightblue" points="105.516,-198.182 95.5163,-201.682 105.516,-205.182 105.516,-198.182"/>
</g>
<!-- Node12&#45;&gt;Node6 -->
<g id="edge22" class="edge"><title>Node12&#45;&gt;Node6</title>
<path fill="none" stroke="#9a32cd" stroke-dasharray="5,2" d="M1225.04,-294.989C1281.77,-331.942 1419.69,-421.77 1477.65,-459.522"/>
<polygon fill="#9a32cd" stroke="#9a32cd" points="1226.63,-291.852 1216.34,-289.327 1222.81,-297.718 1226.63,-291.852"/>
<text text-anchor="middle" x="1348" y="-404.682" font-family="Helvetica,sans-Serif" font-size="10.00"> splitstack</text>
</g>
<!-- Node13 -->
<g id="node24" class="node"><title>Node13</title>
<polygon fill="white" stroke="#bfbfbf" points="872,-388.182 872,-409.182 928,-409.182 928,-388.182 872,-388.182"/>
<text text-anchor="middle" x="900" y="-396.182" font-family="Helvetica,sans-Serif" font-size="10.00">THStack</text>
</g>
<!-- Node13&#45;&gt;Node12 -->
<g id="edge24" class="edge"><title>Node13&#45;&gt;Node12</title>
<path fill="none" stroke="midnightblue" d="M938.24,-400.647C979.582,-401.263 1046.47,-397.799 1098,-373.682 1140.52,-353.782 1177.17,-309.486 1192.43,-289.198"/>
<polygon fill="midnightblue" stroke="midnightblue" points="938.131,-397.143 928.051,-400.404 937.965,-404.141 938.131,-397.143"/>
</g>
<!-- Node14 -->
<g id="node26" class="node"><title>Node14</title>
<a xlink:href="classant_1_1printable__traits.html" target="_top" xlink:title="ant::printable_traits">
<polygon fill="white" stroke="black" points="343,-259.182 343,-280.182 443,-280.182 443,-259.182 343,-259.182"/>
<text text-anchor="middle" x="393" y="-267.182" font-family="Helvetica,sans-Serif" font-size="10.00">ant::printable_traits</text>
</a>
</g>
<!-- Node14&#45;&gt;Node12 -->
<g id="edge26" class="edge"><title>Node14&#45;&gt;Node12</title>
<path fill="none" stroke="midnightblue" d="M453.104,-280.412C459.482,-281.527 465.873,-282.635 472,-283.682 696.816,-322.119 754.525,-357.262 982,-340.682 1033.97,-336.894 1047.93,-338.107 1098,-323.682 1127.76,-315.109 1160.16,-299.674 1180.28,-289.303"/>
<polygon fill="midnightblue" stroke="midnightblue" points="453.589,-276.943 443.134,-278.661 452.378,-283.838 453.589,-276.943"/>
</g>
<!-- Node16 -->
<g id="node30" class="node"><title>Node16</title>
<a xlink:href="classant_1_1interval.html" target="_top" xlink:title="ant::interval\&lt; double \&gt;">
<polygon fill="white" stroke="black" points="602,-259.182 602,-280.182 716,-280.182 716,-259.182 602,-259.182"/>
<text text-anchor="middle" x="659" y="-267.182" font-family="Helvetica,sans-Serif" font-size="10.00">ant::interval&lt; double &gt;</text>
</a>
</g>
<!-- Node14&#45;&gt;Node16 -->
<g id="edge32" class="edge"><title>Node14&#45;&gt;Node16</title>
<path fill="none" stroke="midnightblue" d="M453.138,-269.682C497.676,-269.682 557.981,-269.682 601.804,-269.682"/>
<polygon fill="midnightblue" stroke="midnightblue" points="453.033,-266.182 443.033,-269.682 453.033,-273.182 453.033,-266.182"/>
</g>
<!-- Node17 -->
<g id="node33" class="node"><title>Node17</title>
<a xlink:href="classant_1_1interval.html" target="_top" xlink:title="ant::interval\&lt; ant\l::interval\&lt; double \&gt; \&gt;">
<polygon fill="white" stroke="black" points="845,-208.682 845,-242.682 955,-242.682 955,-208.682 845,-208.682"/>
<text text-anchor="start" x="853" y="-229.682" font-family="Helvetica,sans-Serif" font-size="10.00">ant::interval&lt; ant</text>
<text text-anchor="middle" x="900" y="-216.682" font-family="Helvetica,sans-Serif" font-size="10.00">::interval&lt; double &gt; &gt;</text>
</a>
</g>
<!-- Node14&#45;&gt;Node17 -->
<g id="edge36" class="edge"><title>Node14&#45;&gt;Node17</title>
<path fill="none" stroke="midnightblue" d="M453.327,-262.945C521.427,-255.509 635.565,-243.551 734,-235.682 770.838,-232.737 812.338,-230.237 844.629,-228.473"/>
<polygon fill="midnightblue" stroke="midnightblue" points="452.771,-259.485 443.211,-264.054 453.533,-266.444 452.771,-259.485"/>
</g>
<!-- Node15 -->
<g id="node28" class="node"><title>Node15</title>
<polygon fill="white" stroke="#bfbfbf" points="826.5,-310.182 826.5,-331.182 973.5,-331.182 973.5,-310.182 826.5,-310.182"/>
<text text-anchor="middle" x="900" y="-318.182" font-family="Helvetica,sans-Serif" font-size="10.00">std::unique_ptr&lt; TPaveText &gt;</text>
</g>
<!-- Node15&#45;&gt;Node12 -->
<g id="edge28" class="edge"><title>Node15&#45;&gt;Node12</title>
<path fill="none" stroke="#9a32cd" stroke-dasharray="5,2" d="M983.759,-308.956C1044.62,-300.435 1123.69,-289.365 1167.38,-283.249"/>
<polygon fill="#9a32cd" stroke="#9a32cd" points="983.191,-305.501 973.772,-310.354 984.161,-312.434 983.191,-305.501"/>
<text text-anchor="middle" x="1049" y="-310.682" font-family="Helvetica,sans-Serif" font-size="10.00"> intellititle</text>
</g>
<!-- Node16&#45;&gt;Node12 -->
<g id="edge30" class="edge"><title>Node16&#45;&gt;Node12</title>
<path fill="none" stroke="#9a32cd" stroke-dasharray="5,2" d="M726.34,-276.255C728.925,-276.416 731.486,-276.56 734,-276.682 896.625,-284.605 1091.55,-281.307 1167.49,-279.534"/>
<polygon fill="#9a32cd" stroke="#9a32cd" points="726.509,-272.758 716.291,-275.557 726.024,-279.742 726.509,-272.758"/>
<text text-anchor="middle" x="900" y="-286.682" font-family="Helvetica,sans-Serif" font-size="10.00"> GlobalYAxisRange</text>
</g>
<!-- Node16&#45;&gt;Node17 -->
<g id="edge38" class="edge"><title>Node16&#45;&gt;Node17</title>
<path fill="none" stroke="#9a32cd" stroke-dasharray="5,2" d="M707.499,-256.653C716.285,-254.505 725.39,-252.417 734,-250.682 770.713,-243.286 812.394,-237.016 844.806,-232.605"/>
<polygon fill="#9a32cd" stroke="#9a32cd" points="706.612,-253.267 697.76,-259.087 708.31,-260.058 706.612,-253.267"/>
<text text-anchor="middle" x="767" y="-267.682" font-family="Helvetica,sans-Serif" font-size="10.00"> _start</text>
<text text-anchor="middle" x="767" y="-254.682" font-family="Helvetica,sans-Serif" font-size="10.00">_stop</text>
</g>
<!-- Node17&#45;&gt;Node12 -->
<g id="edge34" class="edge"><title>Node17&#45;&gt;Node12</title>
<path fill="none" stroke="#9a32cd" stroke-dasharray="5,2" d="M965.459,-230.299C1004.4,-234.026 1054.53,-240.548 1098,-251.682 1106.32,-253.812 1107.81,-256.126 1116,-258.682 1132.74,-263.904 1151.73,-268.53 1167.41,-272.015"/>
<polygon fill="#9a32cd" stroke="#9a32cd" points="965.579,-226.796 955.301,-229.366 964.938,-233.766 965.579,-226.796"/>
<text text-anchor="middle" x="1049" y="-255.682" font-family="Helvetica,sans-Serif" font-size="10.00"> GlobalLegendPosition</text>
</g>
<!-- Node18 -->
<g id="node37" class="node"><title>Node18</title>
<polygon fill="white" stroke="#bfbfbf" points="847.5,-169.182 847.5,-190.182 952.5,-190.182 952.5,-169.182 847.5,-169.182"/>
<text text-anchor="middle" x="900" y="-177.182" font-family="Helvetica,sans-Serif" font-size="10.00">std::vector&lt; hist_t &gt;</text>
</g>
<!-- Node18&#45;&gt;Node12 -->
<g id="edge40" class="edge"><title>Node18&#45;&gt;Node12</title>
<path fill="none" stroke="#9a32cd" stroke-dasharray="5,2" d="M962.827,-177.24C1005.2,-178.798 1060.08,-187.434 1098,-217.682 1113.56,-230.093 1100.72,-245.931 1116,-258.682 1130.27,-270.592 1150.43,-275.657 1167.42,-277.713"/>
<polygon fill="#9a32cd" stroke="#9a32cd" points="962.7,-173.736 952.617,-176.991 962.529,-180.734 962.7,-173.736"/>
<text text-anchor="middle" x="1049" y="-221.682" font-family="Helvetica,sans-Serif" font-size="10.00"> hists</text>
</g>
<!-- Node19&#45;&gt;Node18 -->
<g id="edge42" class="edge"><title>Node19&#45;&gt;Node18</title>
<path fill="none" stroke="#9a32cd" stroke-dasharray="5,2" d="M716.691,-179.682C756.449,-179.682 808.869,-179.682 847.465,-179.682"/>
<polygon fill="#9a32cd" stroke="#9a32cd" points="716.614,-176.182 706.614,-179.682 716.614,-183.182 716.614,-176.182"/>
<text text-anchor="middle" x="767" y="-183.682" font-family="Helvetica,sans-Serif" font-size="10.00"> elements</text>
</g>
<!-- Node20&#45;&gt;Node12 -->
<g id="edge52" class="edge"><title>Node20&#45;&gt;Node12</title>
<path fill="none" stroke="#9a32cd" stroke-dasharray="5,2" d="M463.999,-140.486C624.468,-123.654 1008.14,-93.4556 1098,-177.682 1124.91,-202.901 1090.12,-232.409 1116,-258.682 1129.26,-272.139 1149.81,-277.194 1167.27,-278.858"/>
<polygon fill="#9a32cd" stroke="#9a32cd" points="463.332,-137.037 453.758,-141.574 464.072,-143.998 463.332,-137.037"/>
<text text-anchor="middle" x="767" y="-126.682" font-family="Helvetica,sans-Serif" font-size="10.00"> current_option</text>
</g>
<!-- Node20&#45;&gt;Node19 -->
<g id="edge44" class="edge"><title>Node20&#45;&gt;Node19</title>
<path fill="none" stroke="#9a32cd" stroke-dasharray="5,2" d="M463.742,-156.926C510.424,-162.367 570.32,-169.347 611.392,-174.134"/>
<polygon fill="#9a32cd" stroke="#9a32cd" points="464.03,-153.436 453.692,-155.755 463.22,-160.389 464.03,-153.436"/>
<text text-anchor="middle" x="528" y="-174.682" font-family="Helvetica,sans-Serif" font-size="10.00"> Option</text>
</g>
<!-- Node21&#45;&gt;Node12 -->
<g id="edge54" class="edge"><title>Node21&#45;&gt;Node12</title>
<path fill="none" stroke="#9a32cd" stroke-dasharray="5,2" d="M594.277,-101.6C736.698,-97.7956 1062,-92.9506 1098,-126.682 1141.21,-167.163 1076.24,-214.81 1116,-258.682 1128.79,-272.789 1149.56,-277.821 1167.25,-279.311"/>
<polygon fill="#9a32cd" stroke="#9a32cd" points="593.836,-98.1106 583.936,-101.883 594.028,-105.108 593.836,-98.1106"/>
<text text-anchor="middle" x="767" y="-103.682" font-family="Helvetica,sans-Serif" font-size="10.00"> GlobalOptions</text>
</g>
<!-- Node22 -->
<g id="node50" class="node"><title>Node22</title>
<polygon fill="white" stroke="#bfbfbf" points="831.5,-53.182 831.5,-74.182 968.5,-74.182 968.5,-53.182 831.5,-53.182"/>
<text text-anchor="middle" x="900" y="-61.182" font-family="Helvetica,sans-Serif" font-size="10.00">std::unique_ptr&lt; TLegend &gt;</text>
</g>
<!-- Node22&#45;&gt;Node12 -->
<g id="edge58" class="edge"><title>Node22&#45;&gt;Node12</title>
<path fill="none" stroke="#9a32cd" stroke-dasharray="5,2" d="M947.167,-51.1021C992.144,-42.2392 1058.68,-37.813 1098,-75.682 1127.43,-104.029 1089.13,-227.895 1116,-258.682 1128.62,-273.139 1149.62,-278.139 1167.46,-279.525"/>
<polygon fill="#9a32cd" stroke="#9a32cd" points="946.415,-47.6836 937.353,-53.1728 947.861,-54.5328 946.415,-47.6836"/>
<text text-anchor="middle" x="1049" y="-79.682" font-family="Helvetica,sans-Serif" font-size="10.00"> intellilegend</text>
</g>
<!-- Node23 -->
<g id="node52" class="node"><title>Node23</title>
<polygon fill="white" stroke="#bfbfbf" points="833.5,-13.182 833.5,-34.182 966.5,-34.182 966.5,-13.182 833.5,-13.182"/>
<text text-anchor="middle" x="900" y="-21.182" font-family="Helvetica,sans-Serif" font-size="10.00">std::map&lt; TH1 *, double &gt;</text>
</g>
<!-- Node23&#45;&gt;Node12 -->
<g id="edge60" class="edge"><title>Node23&#45;&gt;Node12</title>
<path fill="none" stroke="#9a32cd" stroke-dasharray="5,2" d="M940.894,-10.5257C985.67,1.04598 1056.6,10.5875 1098,-28.682 1135.2,-63.963 1082.68,-219.722 1116,-258.682 1128.47,-273.264 1149.47,-278.264 1167.35,-279.619"/>
<polygon fill="#9a32cd" stroke="#9a32cd" points="939.935,-7.15928 931.208,-13.1658 941.776,-13.9129 939.935,-7.15928"/>
<text text-anchor="middle" x="1049" y="-32.682" font-family="Helvetica,sans-Serif" font-size="10.00"> Scaled_Hists</text>
</g>
<!-- Node24 -->
<g id="node54" class="node"><title>Node24</title>
<polygon fill="white" stroke="#bfbfbf" points="1143,-228.182 1143,-249.182 1257,-249.182 1257,-228.182 1143,-228.182"/>
<text text-anchor="middle" x="1200" y="-236.182" font-family="Helvetica,sans-Serif" font-size="10.00">std::vector&lt; TH1D * &gt;</text>
</g>
<!-- Node24&#45;&gt;Node6 -->
<g id="edge62" class="edge"><title>Node24&#45;&gt;Node6</title>
<path fill="none" stroke="#9a32cd" stroke-dasharray="5,2" d="M1266.13,-252.115C1272.26,-254.049 1278.31,-256.231 1284,-258.682 1337.67,-281.794 1351.34,-290.754 1394,-330.682 1437.33,-371.236 1476.05,-430.447 1493.78,-459.419"/>
<polygon fill="#9a32cd" stroke="#9a32cd" points="1267.03,-248.733 1256.45,-249.275 1265.06,-255.449 1267.03,-248.733"/>
<text text-anchor="middle" x="1348" y="-334.682" font-family="Helvetica,sans-Serif" font-size="10.00"> mult2_split_angles</text>
</g>
</g>
</svg>
