<?xml version="1.0" encoding="UTF-8" standalone="no"?>
<!DOCTYPE svg PUBLIC "-//W3C//DTD SVG 1.1//EN"
 "http://www.w3.org/Graphics/SVG/1.1/DTD/svg11.dtd">
<!-- Generated by graphviz version 2.26.3 (20100126.1600)
 -->
<!-- Title: ant::calibration::DataBase Pages: 1 -->
<svg width="171pt" height="262pt"
 viewBox="0.00 0.00 171.00 262.00" xmlns="http://www.w3.org/2000/svg" xmlns:xlink="http://www.w3.org/1999/xlink">
<g id="graph1" class="graph" transform="scale(1 1) rotate(0) translate(4 258)">
<title>ant::calibration::DataBase</title>
<polygon fill="white" stroke="white" points="-4,5 -4,-258 168,-258 168,5 -4,5"/>
<!-- Node1 -->
<g id="node1" class="node"><title>Node1</title>
<polygon fill="#bfbfbf" stroke="black" points="0,-0.5 0,-21.5 130,-21.5 130,-0.5 0,-0.5"/>
<text text-anchor="middle" x="65" y="-8.5" font-family="Helvetica,sans-Serif" font-size="10.00">ant::calibration::DataBase</text>
</g>
<!-- Node2 -->
<g id="node2" class="node"><title>Node2</title>
<a xlink:href="structant_1_1calibration_1_1_data_base_1_1_on_disk_layout.html" target="_top" xlink:title="ant::calibration::DataBase\l::OnDiskLayout">
<polygon fill="white" stroke="black" points="0,-73 0,-107 130,-107 130,-73 0,-73"/>
<text text-anchor="start" x="8" y="-94" font-family="Helvetica,sans-Serif" font-size="10.00">ant::calibration::DataBase</text>
<text text-anchor="middle" x="65" y="-81" font-family="Helvetica,sans-Serif" font-size="10.00">::OnDiskLayout</text>
</a>
</g>
<!-- Node2&#45;&gt;Node1 -->
<g id="edge2" class="edge"><title>Node2&#45;&gt;Node1</title>
<path fill="none" stroke="#9a32cd" stroke-dasharray="5,2" d="M65,-62.6228C65,-48.4727 65,-32.0243 65,-21.5672"/>
<polygon fill="#9a32cd" stroke="#9a32cd" points="61.5001,-62.8581 65,-72.8582 68.5001,-62.8582 61.5001,-62.8581"/>
<text text-anchor="middle" x="81.5" y="-44.5" font-family="Helvetica,sans-Serif" font-size="10.00"> Layout</text>
</g>
<!-- Node3 -->
<g id="node4" class="node"><title>Node3</title>
<a xlink:title="STL class. ">
<polygon fill="white" stroke="#bfbfbf" points="35,-158.5 35,-179.5 95,-179.5 95,-158.5 35,-158.5"/>
<text text-anchor="middle" x="65" y="-166.5" font-family="Helvetica,sans-Serif" font-size="10.00">std::string</text>
</a>
</g>
<!-- Node3&#45;&gt;Node2 -->
<g id="edge4" class="edge"><title>Node3&#45;&gt;Node2</title>
<path fill="none" stroke="#9a32cd" stroke-dasharray="5,2" d="M65,-148.162C65,-135.363 65,-119.171 65,-107.124"/>
<polygon fill="#9a32cd" stroke="#9a32cd" points="61.5001,-148.346 65,-158.346 68.5001,-148.346 61.5001,-148.346"/>
<text text-anchor="middle" x="114" y="-130.5" font-family="Helvetica,sans-Serif" font-size="10.00"> CalibrationDataFolder</text>
</g>
<!-- Node4 -->
<g id="node6" class="node"><title>Node4</title>
<a xlink:title="STL class. ">
<polygon fill="white" stroke="#bfbfbf" points="17.5,-219 17.5,-253 112.5,-253 112.5,-219 17.5,-219"/>
<text text-anchor="start" x="25.5" y="-240" font-family="Helvetica,sans-Serif" font-size="10.00">std::basic_string&lt;</text>
<text text-anchor="middle" x="65" y="-227" font-family="Helvetica,sans-Serif" font-size="10.00"> char &gt;</text>
</a>
</g>
<!-- Node4&#45;&gt;Node3 -->
<g id="edge6" class="edge"><title>Node4&#45;&gt;Node3</title>
<path fill="none" stroke="midnightblue" d="M65,-208.534C65,-198.306 65,-187.301 65,-179.506"/>
<polygon fill="midnightblue" stroke="midnightblue" points="61.5001,-208.746 65,-218.746 68.5001,-208.746 61.5001,-208.746"/>
</g>
</g>
</svg>
