<?xml version="1.0" encoding="UTF-8" standalone="no"?>
<!DOCTYPE svg PUBLIC "-//W3C//DTD SVG 1.1//EN"
 "http://www.w3.org/Graphics/SVG/1.1/DTD/svg11.dtd">
<!-- Generated by graphviz version 2.26.3 (20100126.1600)
 -->
<!-- Title: ant::UnpackerA2GeantConfig Pages: 1 -->
<svg width="974pt" height="146pt"
 viewBox="0.00 0.00 974.00 146.00" xmlns="http://www.w3.org/2000/svg" xmlns:xlink="http://www.w3.org/1999/xlink">
<g id="graph1" class="graph" transform="scale(1 1) rotate(0) translate(4 142)">
<title>ant::UnpackerA2GeantConfig</title>
<polygon fill="white" stroke="white" points="-4,5 -4,-142 971,-142 971,5 -4,5"/>
<!-- Node1 -->
<g id="node1" class="node"><title>Node1</title>
<polygon fill="#bfbfbf" stroke="black" points="326.5,-58.5 326.5,-79.5 471.5,-79.5 471.5,-58.5 326.5,-58.5"/>
<text text-anchor="middle" x="399" y="-66.5" font-family="Helvetica,sans-Serif" font-size="10.00">ant::UnpackerA2GeantConfig</text>
</g>
<!-- Node4 -->
<g id="node7" class="node"><title>Node4</title>
<a xlink:href="classant_1_1expconfig_1_1_setup.html" target="_top" xlink:title="The Setup class serves as a base class for all known beamtime setup configurations. ">
<polygon fill="white" stroke="black" points="508,-58.5 508,-79.5 618,-79.5 618,-58.5 508,-58.5"/>
<text text-anchor="middle" x="563" y="-66.5" font-family="Helvetica,sans-Serif" font-size="10.00">ant::expconfig::Setup</text>
</a>
</g>
<!-- Node1&#45;&gt;Node4 -->
<g id="edge6" class="edge"><title>Node1&#45;&gt;Node4</title>
<path fill="none" stroke="midnightblue" d="M482.032,-69C490.688,-69 499.328,-69 507.566,-69"/>
<polygon fill="midnightblue" stroke="midnightblue" points="481.888,-65.5001 471.888,-69 481.888,-72.5001 481.888,-65.5001"/>
</g>
<!-- Node2 -->
<g id="node2" class="node"><title>Node2</title>
<a xlink:href="classant_1_1_exp_config_1_1_unpacker.html" target="_top" xlink:title="ant::ExpConfig::Unpacker\l\&lt; UnpackerA2GeantConfig \&gt;">
<polygon fill="white" stroke="black" points="146.5,-52 146.5,-86 289.5,-86 289.5,-52 146.5,-52"/>
<text text-anchor="start" x="154.5" y="-73" font-family="Helvetica,sans-Serif" font-size="10.00">ant::ExpConfig::Unpacker</text>
<text text-anchor="middle" x="218" y="-60" font-family="Helvetica,sans-Serif" font-size="10.00">&lt; UnpackerA2GeantConfig &gt;</text>
</a>
</g>
<!-- Node2&#45;&gt;Node1 -->
<g id="edge2" class="edge"><title>Node2&#45;&gt;Node1</title>
<path fill="none" stroke="midnightblue" d="M299.799,-69C308.602,-69 317.516,-69 326.203,-69"/>
<polygon fill="midnightblue" stroke="midnightblue" points="299.536,-65.5001 289.536,-69 299.536,-72.5001 299.536,-65.5001"/>
</g>
<!-- Node3 -->
<g id="node4" class="node"><title>Node3</title>
<a xlink:href="classant_1_1_exp_config_1_1_base.html" target="_top" xlink:title="ant::ExpConfig::Base">
<polygon fill="white" stroke="black" points="0,-58.5 0,-79.5 110,-79.5 110,-58.5 0,-58.5"/>
<text text-anchor="middle" x="55" y="-66.5" font-family="Helvetica,sans-Serif" font-size="10.00">ant::ExpConfig::Base</text>
</a>
</g>
<!-- Node3&#45;&gt;Node2 -->
<g id="edge4" class="edge"><title>Node3&#45;&gt;Node2</title>
<path fill="none" stroke="midnightblue" d="M120.45,-69C128.988,-69 137.77,-69 146.402,-69"/>
<polygon fill="midnightblue" stroke="midnightblue" points="120.184,-65.5001 110.184,-69 120.184,-72.5001 120.184,-65.5001"/>
</g>
<!-- Node5 -->
<g id="node9" class="node"><title>Node5</title>
<a xlink:href="classant_1_1expconfig_1_1setup_1_1_setup__2012__12___compton.html" target="_top" xlink:title="ant::expconfig::setup\l::Setup_2012_12_Compton">
<polygon fill="white" stroke="black" points="654.5,-104 654.5,-138 789.5,-138 789.5,-104 654.5,-104"/>
<text text-anchor="start" x="662.5" y="-125" font-family="Helvetica,sans-Serif" font-size="10.00">ant::expconfig::setup</text>
<text text-anchor="middle" x="722" y="-112" font-family="Helvetica,sans-Serif" font-size="10.00">::Setup_2012_12_Compton</text>
</a>
</g>
<!-- Node4&#45;&gt;Node5 -->
<g id="edge8" class="edge"><title>Node4&#45;&gt;Node5</title>
<path fill="none" stroke="midnightblue" d="M604.879,-82.6963C624.781,-89.205 648.77,-97.0505 669.841,-103.942"/>
<polygon fill="midnightblue" stroke="midnightblue" points="605.769,-79.3049 595.176,-79.523 603.593,-85.9581 605.769,-79.3049"/>
</g>
<!-- Node6 -->
<g id="node11" class="node"><title>Node6</title>
<a xlink:href="classant_1_1expconfig_1_1setup_1_1_setup__2014___e_p_t.html" target="_top" xlink:title="Common base class for all Setups of the 2014 Ent Point Tagger beam times. ">
<polygon fill="white" stroke="black" points="668,-52 668,-86 776,-86 776,-52 668,-52"/>
<text text-anchor="start" x="676" y="-73" font-family="Helvetica,sans-Serif" font-size="10.00">ant::expconfig::setup</text>
<text text-anchor="middle" x="722" y="-60" font-family="Helvetica,sans-Serif" font-size="10.00">::Setup_2014_EPT</text>
</a>
</g>
<!-- Node4&#45;&gt;Node6 -->
<g id="edge10" class="edge"><title>Node4&#45;&gt;Node6</title>
<path fill="none" stroke="midnightblue" d="M628.492,-69C641.543,-69 655.115,-69 667.739,-69"/>
<polygon fill="midnightblue" stroke="midnightblue" points="628.164,-65.5001 618.164,-69 628.164,-72.5001 628.164,-65.5001"/>
</g>
<!-- Node10 -->
<g id="node19" class="node"><title>Node10</title>
<a xlink:href="classant_1_1expconfig_1_1setup_1_1_setup__2015__01___pion.html" target="_top" xlink:title="Ant Setup for Rare Pion Test Beamtime in January 2015 &amp; MC studies. ">
<polygon fill="white" stroke="black" points="664.5,-0 664.5,-34 779.5,-34 779.5,-0 664.5,-0"/>
<text text-anchor="start" x="672.5" y="-21" font-family="Helvetica,sans-Serif" font-size="10.00">ant::expconfig::setup</text>
<text text-anchor="middle" x="722" y="-8" font-family="Helvetica,sans-Serif" font-size="10.00">::Setup_2015_01_Pion</text>
</a>
</g>
<!-- Node4&#45;&gt;Node10 -->
<g id="edge18" class="edge"><title>Node4&#45;&gt;Node10</title>
<path fill="none" stroke="midnightblue" d="M604.879,-55.3037C624.781,-48.795 648.77,-40.9495 669.841,-34.0582"/>
<polygon fill="midnightblue" stroke="midnightblue" points="603.593,-52.0419 595.176,-58.477 605.769,-58.6951 603.593,-52.0419"/>
</g>
<!-- Node7 -->
<g id="node13" class="node"><title>Node7</title>
<a xlink:href="classant_1_1expconfig_1_1setup_1_1_setup__2014__07___e_p_t___prod.html" target="_top" xlink:title="Ant Setup for the July 2014 End Point Tagger beam time. ">
<polygon fill="white" stroke="black" points="826,-104 826,-138 966,-138 966,-104 826,-104"/>
<text text-anchor="start" x="834" y="-125" font-family="Helvetica,sans-Serif" font-size="10.00">ant::expconfig::setup</text>
<text text-anchor="middle" x="896" y="-112" font-family="Helvetica,sans-Serif" font-size="10.00">::Setup_2014_07_EPT_Prod</text>
</a>
</g>
<!-- Node6&#45;&gt;Node7 -->
<g id="edge12" class="edge"><title>Node6&#45;&gt;Node7</title>
<path fill="none" stroke="midnightblue" d="M786.117,-88.1614C803.422,-93.3332 822.028,-98.8935 838.92,-103.942"/>
<polygon fill="midnightblue" stroke="midnightblue" points="786.684,-84.6781 776.101,-85.1681 784.68,-91.385 786.684,-84.6781"/>
</g>
<!-- Node8 -->
<g id="node15" class="node"><title>Node8</title>
<a xlink:href="classant_1_1expconfig_1_1setup_1_1_setup__2014__10___e_p_t___prod.html" target="_top" xlink:title="Ant Setup for the October 2014 End Point Tagger beam time. ">
<polygon fill="white" stroke="black" points="826,-52 826,-86 966,-86 966,-52 826,-52"/>
<text text-anchor="start" x="834" y="-73" font-family="Helvetica,sans-Serif" font-size="10.00">ant::expconfig::setup</text>
<text text-anchor="middle" x="896" y="-60" font-family="Helvetica,sans-Serif" font-size="10.00">::Setup_2014_10_EPT_Prod</text>
</a>
</g>
<!-- Node6&#45;&gt;Node8 -->
<g id="edge14" class="edge"><title>Node6&#45;&gt;Node8</title>
<path fill="none" stroke="midnightblue" d="M786.277,-69C799.188,-69 812.816,-69 825.913,-69"/>
<polygon fill="midnightblue" stroke="midnightblue" points="786.101,-65.5001 776.101,-69 786.101,-72.5001 786.101,-65.5001"/>
</g>
<!-- Node9 -->
<g id="node17" class="node"><title>Node9</title>
<a xlink:href="classant_1_1expconfig_1_1setup_1_1_setup__2014__12___e_p_t___prod.html" target="_top" xlink:title="Ant Setup for the December 2014 End Point Tagger beam time. ">
<polygon fill="white" stroke="black" points="826,-0 826,-34 966,-34 966,-0 826,-0"/>
<text text-anchor="start" x="834" y="-21" font-family="Helvetica,sans-Serif" font-size="10.00">ant::expconfig::setup</text>
<text text-anchor="middle" x="896" y="-8" font-family="Helvetica,sans-Serif" font-size="10.00">::Setup_2014_12_EPT_Prod</text>
</a>
</g>
<!-- Node6&#45;&gt;Node9 -->
<g id="edge16" class="edge"><title>Node6&#45;&gt;Node9</title>
<path fill="none" stroke="midnightblue" d="M786.117,-49.8386C803.422,-44.6668 822.028,-39.1065 838.92,-34.0582"/>
<polygon fill="midnightblue" stroke="midnightblue" points="784.68,-46.615 776.101,-52.8319 786.684,-53.3219 784.68,-46.615"/>
</g>
</g>
</svg>
