<?xml version="1.0" encoding="UTF-8" standalone="no"?>
<!DOCTYPE svg PUBLIC "-//W3C//DTD SVG 1.1//EN"
 "http://www.w3.org/Graphics/SVG/1.1/DTD/svg11.dtd">
<!-- Generated by graphviz version 2.26.3 (20100126.1600)
 -->
<!-- Title: ant::analysis::physics::EtapProton Pages: 1 -->
<svg width="1446pt" height="281pt"
 viewBox="0.00 0.00 1446.00 281.00" xmlns="http://www.w3.org/2000/svg" xmlns:xlink="http://www.w3.org/1999/xlink">
<g id="graph1" class="graph" transform="scale(1 1) rotate(0) translate(4 277)">
<title>ant::analysis::physics::EtapProton</title>
<polygon fill="white" stroke="white" points="-4,5 -4,-277 1443,-277 1443,5 -4,5"/>
<!-- Node1 -->
<g id="node1" class="node"><title>Node1</title>
<polygon fill="#bfbfbf" stroke="black" points="1326,-157 1326,-191 1438,-191 1438,-157 1326,-157"/>
<text text-anchor="start" x="1334" y="-178" font-family="Helvetica,sans-Serif" font-size="10.00">ant::analysis::physics</text>
<text text-anchor="middle" x="1382" y="-165" font-family="Helvetica,sans-Serif" font-size="10.00">::EtapProton</text>
</g>
<!-- Node2 -->
<g id="node2" class="node"><title>Node2</title>
<a xlink:href="classant_1_1analysis_1_1_physics.html" target="_top" xlink:title="ant::analysis::Physics">
<polygon fill="white" stroke="black" points="1094.5,-242.5 1094.5,-263.5 1207.5,-263.5 1207.5,-242.5 1094.5,-242.5"/>
<text text-anchor="middle" x="1151" y="-250.5" font-family="Helvetica,sans-Serif" font-size="10.00">ant::analysis::Physics</text>
</a>
</g>
<!-- Node2&#45;&gt;Node1 -->
<g id="edge2" class="edge"><title>Node2&#45;&gt;Node1</title>
<path fill="none" stroke="midnightblue" d="M1204.61,-239.794C1235.25,-231.709 1274.2,-220.527 1308,-208 1321.26,-203.087 1335.45,-196.824 1347.82,-191.016"/>
<polygon fill="midnightblue" stroke="midnightblue" points="1203.34,-236.505 1194.55,-242.414 1205.11,-243.279 1203.34,-236.505"/>
</g>
<!-- Node3 -->
<g id="node4" class="node"><title>Node3</title>
<a xlink:href="classant_1_1analysis_1_1_histogram_factory.html" target="_top" xlink:title="ant::analysis::Histogram\lFactory">
<polygon fill="white" stroke="black" points="874.5,-239 874.5,-273 997.5,-273 997.5,-239 874.5,-239"/>
<text text-anchor="start" x="882.5" y="-260" font-family="Helvetica,sans-Serif" font-size="10.00">ant::analysis::Histogram</text>
<text text-anchor="middle" x="936" y="-247" font-family="Helvetica,sans-Serif" font-size="10.00">Factory</text>
</a>
</g>
<!-- Node3&#45;&gt;Node2 -->
<g id="edge4" class="edge"><title>Node3&#45;&gt;Node2</title>
<path fill="none" stroke="#9a32cd" stroke-dasharray="5,2" d="M1007.79,-254.998C1035.9,-254.606 1067.69,-254.162 1094.17,-253.793"/>
<polygon fill="#9a32cd" stroke="#9a32cd" points="1007.56,-251.501 997.61,-255.14 1007.66,-258.5 1007.56,-251.501"/>
<text text-anchor="middle" x="1038" y="-258" font-family="Helvetica,sans-Serif" font-size="10.00"> HistFac</text>
</g>
<!-- Node4 -->
<g id="node6" class="node"><title>Node4</title>
<a xlink:href="classant_1_1_piecewise_interval.html" target="_top" xlink:title="ant::PiecewiseInterval\l\&lt; unsigned \&gt;">
<polygon fill="white" stroke="black" points="1094.5,-187 1094.5,-221 1207.5,-221 1207.5,-187 1094.5,-187"/>
<text text-anchor="start" x="1102.5" y="-208" font-family="Helvetica,sans-Serif" font-size="10.00">ant::PiecewiseInterval</text>
<text text-anchor="middle" x="1151" y="-195" font-family="Helvetica,sans-Serif" font-size="10.00">&lt; unsigned &gt;</text>
</a>
</g>
<!-- Node4&#45;&gt;Node1 -->
<g id="edge6" class="edge"><title>Node4&#45;&gt;Node1</title>
<path fill="none" stroke="#9a32cd" stroke-dasharray="5,2" d="M1217.43,-195.373C1251.68,-190.924 1293,-185.558 1325.67,-181.315"/>
<polygon fill="#9a32cd" stroke="#9a32cd" points="1216.97,-191.902 1207.51,-196.661 1217.88,-198.844 1216.97,-191.902"/>
<text text-anchor="middle" x="1275" y="-195" font-family="Helvetica,sans-Serif" font-size="10.00"> multiplicities</text>
</g>
<!-- Node5 -->
<g id="node8" class="node"><title>Node5</title>
<a xlink:title="STL class. ">
<polygon fill="white" stroke="#bfbfbf" points="884,-187 884,-221 988,-221 988,-187 884,-187"/>
<text text-anchor="start" x="892" y="-208" font-family="Helvetica,sans-Serif" font-size="10.00">std::vector&lt; interval</text>
<text text-anchor="middle" x="936" y="-195" font-family="Helvetica,sans-Serif" font-size="10.00">&lt; unsigned &gt; &gt;</text>
</a>
</g>
<!-- Node5&#45;&gt;Node4 -->
<g id="edge8" class="edge"><title>Node5&#45;&gt;Node4</title>
<path fill="none" stroke="midnightblue" d="M998.077,-204C1028.38,-204 1064.58,-204 1094.15,-204"/>
<polygon fill="midnightblue" stroke="midnightblue" points="998.046,-200.5 988.046,-204 998.045,-207.5 998.046,-200.5"/>
</g>
<!-- Node6 -->
<g id="node10" class="node"><title>Node6</title>
<polygon fill="white" stroke="#bfbfbf" points="731.5,-193.5 731.5,-214.5 760.5,-214.5 760.5,-193.5 731.5,-193.5"/>
<text text-anchor="middle" x="746" y="-201.5" font-family="Helvetica,sans-Serif" font-size="10.00">T</text>
</g>
<!-- Node6&#45;&gt;Node5 -->
<g id="edge10" class="edge"><title>Node6&#45;&gt;Node5</title>
<path fill="none" stroke="#9a32cd" stroke-dasharray="5,2" d="M770.872,-204C799.383,-204 846.912,-204 883.676,-204"/>
<polygon fill="#9a32cd" stroke="#9a32cd" points="770.594,-200.5 760.593,-204 770.593,-207.5 770.594,-200.5"/>
<text text-anchor="middle" x="834" y="-208" font-family="Helvetica,sans-Serif" font-size="10.00"> elements</text>
</g>
<!-- Node7 -->
<g id="node12" class="node"><title>Node7</title>
<a xlink:href="classant_1_1printable__traits.html" target="_top" xlink:title="ant::printable_traits">
<polygon fill="white" stroke="black" points="886,-147.5 886,-168.5 986,-168.5 986,-147.5 886,-147.5"/>
<text text-anchor="middle" x="936" y="-155.5" font-family="Helvetica,sans-Serif" font-size="10.00">ant::printable_traits</text>
</a>
</g>
<!-- Node7&#45;&gt;Node4 -->
<g id="edge12" class="edge"><title>Node7&#45;&gt;Node4</title>
<path fill="none" stroke="midnightblue" d="M995.114,-170.648C1026.05,-177.266 1063.74,-185.33 1094.31,-191.87"/>
<polygon fill="midnightblue" stroke="midnightblue" points="995.836,-167.223 985.325,-168.553 994.372,-174.068 995.836,-167.223"/>
</g>
<!-- Node8 -->
<g id="node14" class="node"><title>Node8</title>
<a xlink:href="classant_1_1analysis_1_1_prompt_random_1_1_switch.html" target="_top" xlink:title="ant::analysis::PromptRandom\l::Switch">
<polygon fill="white" stroke="black" points="1078,-135 1078,-169 1224,-169 1224,-135 1078,-135"/>
<text text-anchor="start" x="1086" y="-156" font-family="Helvetica,sans-Serif" font-size="10.00">ant::analysis::PromptRandom</text>
<text text-anchor="middle" x="1151" y="-143" font-family="Helvetica,sans-Serif" font-size="10.00">::Switch</text>
</a>
</g>
<!-- Node8&#45;&gt;Node1 -->
<g id="edge14" class="edge"><title>Node8&#45;&gt;Node1</title>
<path fill="none" stroke="#9a32cd" stroke-dasharray="5,2" d="M1234.32,-154.964C1258.16,-156.303 1284.15,-158.231 1308,-161 1313.83,-161.677 1319.9,-162.518 1325.94,-163.443"/>
<polygon fill="#9a32cd" stroke="#9a32cd" points="1234.41,-151.464 1224.24,-154.425 1234.04,-158.454 1234.41,-151.464"/>
<text text-anchor="middle" x="1275" y="-165" font-family="Helvetica,sans-Serif" font-size="10.00"> promptrandom</text>
</g>
<!-- Node9 -->
<g id="node16" class="node"><title>Node9</title>
<polygon fill="white" stroke="#bfbfbf" points="1090.5,-83 1090.5,-117 1211.5,-117 1211.5,-83 1090.5,-83"/>
<text text-anchor="start" x="1098.5" y="-104" font-family="Helvetica,sans-Serif" font-size="10.00">std::vector&lt; std::unique</text>
<text text-anchor="middle" x="1151" y="-91" font-family="Helvetica,sans-Serif" font-size="10.00">_ptr&lt; utils::KinFitter &gt; &gt;</text>
</g>
<!-- Node9&#45;&gt;Node1 -->
<g id="edge16" class="edge"><title>Node9&#45;&gt;Node1</title>
<path fill="none" stroke="#9a32cd" stroke-dasharray="5,2" d="M1221.44,-113.652C1248.84,-119.841 1280.27,-128.029 1308,-138 1322.39,-143.172 1337.67,-150.309 1350.6,-156.866"/>
<polygon fill="#9a32cd" stroke="#9a32cd" points="1222.05,-110.204 1211.53,-111.462 1220.54,-117.039 1222.05,-110.204"/>
<text text-anchor="middle" x="1275" y="-142" font-family="Helvetica,sans-Serif" font-size="10.00"> fitters</text>
</g>
<!-- Node10 -->
<g id="node18" class="node"><title>Node10</title>
<polygon fill="white" stroke="#bfbfbf" points="882,-83 882,-117 990,-117 990,-83 882,-83"/>
<text text-anchor="start" x="890" y="-104" font-family="Helvetica,sans-Serif" font-size="10.00">std::unique_ptr&lt; utils</text>
<text text-anchor="middle" x="936" y="-91" font-family="Helvetica,sans-Serif" font-size="10.00">::KinFitter &gt;</text>
</g>
<!-- Node10&#45;&gt;Node9 -->
<g id="edge18" class="edge"><title>Node10&#45;&gt;Node9</title>
<path fill="none" stroke="#9a32cd" stroke-dasharray="5,2" d="M1000.51,-100C1028.99,-100 1062.29,-100 1090.31,-100"/>
<polygon fill="#9a32cd" stroke="#9a32cd" points="1000.25,-96.5001 990.254,-100 1000.25,-103.5 1000.25,-96.5001"/>
<text text-anchor="middle" x="1038" y="-104" font-family="Helvetica,sans-Serif" font-size="10.00"> elements</text>
</g>
<!-- Node11 -->
<g id="node20" class="node"><title>Node11</title>
<a xlink:href="classant_1_1analysis_1_1utils_1_1_kin_fitter.html" target="_top" xlink:title="ant::analysis::utils\l::KinFitter">
<polygon fill="white" stroke="black" points="698,-83 698,-117 794,-117 794,-83 698,-83"/>
<text text-anchor="start" x="706" y="-104" font-family="Helvetica,sans-Serif" font-size="10.00">ant::analysis::utils</text>
<text text-anchor="middle" x="746" y="-91" font-family="Helvetica,sans-Serif" font-size="10.00">::KinFitter</text>
</a>
</g>
<!-- Node11&#45;&gt;Node10 -->
<g id="edge20" class="edge"><title>Node11&#45;&gt;Node10</title>
<path fill="none" stroke="#9a32cd" stroke-dasharray="5,2" d="M804.738,-100C829.376,-100 857.843,-100 881.956,-100"/>
<polygon fill="#9a32cd" stroke="#9a32cd" points="804.437,-96.5001 794.437,-100 804.437,-103.5 804.437,-96.5001"/>
<text text-anchor="middle" x="834" y="-104" font-family="Helvetica,sans-Serif" font-size="10.00"> ptr</text>
</g>
<!-- Node12 -->
<g id="node22" class="node"><title>Node12</title>
<a xlink:href="classant_1_1analysis_1_1utils_1_1_fitter.html" target="_top" xlink:title="ant::analysis::utils\l::Fitter">
<polygon fill="white" stroke="black" points="502,-158 502,-192 598,-192 598,-158 502,-158"/>
<text text-anchor="start" x="510" y="-179" font-family="Helvetica,sans-Serif" font-size="10.00">ant::analysis::utils</text>
<text text-anchor="middle" x="550" y="-166" font-family="Helvetica,sans-Serif" font-size="10.00">::Fitter</text>
</a>
</g>
<!-- Node12&#45;&gt;Node11 -->
<g id="edge22" class="edge"><title>Node12&#45;&gt;Node11</title>
<path fill="none" stroke="midnightblue" d="M607.654,-155.626C630.341,-147.735 656.531,-138.294 680,-129 689.309,-125.314 699.245,-121.099 708.508,-117.047"/>
<polygon fill="midnightblue" stroke="midnightblue" points="606.47,-152.332 598.163,-158.908 608.758,-158.947 606.47,-152.332"/>
</g>
<!-- Node13 -->
<g id="node24" class="node"><title>Node13</title>
<polygon fill="white" stroke="#bfbfbf" points="265,-164.5 265,-185.5 405,-185.5 405,-164.5 265,-164.5"/>
<text text-anchor="middle" x="335" y="-172.5" font-family="Helvetica,sans-Serif" font-size="10.00">std::unique_ptr&lt; APLCON &gt;</text>
</g>
<!-- Node13&#45;&gt;Node12 -->
<g id="edge24" class="edge"><title>Node13&#45;&gt;Node12</title>
<path fill="none" stroke="#9a32cd" stroke-dasharray="5,2" d="M415.254,-175C444.336,-175 476.267,-175 501.742,-175"/>
<polygon fill="#9a32cd" stroke="#9a32cd" points="415.102,-171.5 405.102,-175 415.102,-178.5 415.102,-171.5"/>
<text text-anchor="middle" x="444" y="-179" font-family="Helvetica,sans-Serif" font-size="10.00"> aplcon</text>
</g>
<!-- Node14 -->
<g id="node26" class="node"><title>Node14</title>
<polygon fill="white" stroke="#bfbfbf" points="489.5,-106 489.5,-140 610.5,-140 610.5,-106 489.5,-106"/>
<text text-anchor="start" x="497.5" y="-127" font-family="Helvetica,sans-Serif" font-size="10.00">std::vector&lt; std::shared</text>
<text text-anchor="middle" x="550" y="-114" font-family="Helvetica,sans-Serif" font-size="10.00">_ptr&lt; FitParticle &gt; &gt;</text>
</g>
<!-- Node14&#45;&gt;Node11 -->
<g id="edge26" class="edge"><title>Node14&#45;&gt;Node11</title>
<path fill="none" stroke="#9a32cd" stroke-dasharray="5,2" d="M620.694,-114.704C646.26,-111.704 674.52,-108.388 697.722,-105.665"/>
<polygon fill="#9a32cd" stroke="#9a32cd" points="620.197,-111.238 610.673,-115.88 621.013,-118.191 620.197,-111.238"/>
<text text-anchor="middle" x="660" y="-116" font-family="Helvetica,sans-Serif" font-size="10.00"> Photons</text>
</g>
<!-- Node15 -->
<g id="node28" class="node"><title>Node15</title>
<polygon fill="white" stroke="#bfbfbf" points="478.5,-66.5 478.5,-87.5 621.5,-87.5 621.5,-66.5 478.5,-66.5"/>
<text text-anchor="middle" x="550" y="-74.5" font-family="Helvetica,sans-Serif" font-size="10.00">std::unique_ptr&lt; FitParticle &gt;</text>
</g>
<!-- Node15&#45;&gt;Node11 -->
<g id="edge28" class="edge"><title>Node15&#45;&gt;Node11</title>
<path fill="none" stroke="#9a32cd" stroke-dasharray="5,2" d="M631.936,-85.4678C647.887,-87.2169 664.473,-89.1057 680,-91 685.74,-91.7003 691.755,-92.4703 697.719,-93.2561"/>
<polygon fill="#9a32cd" stroke="#9a32cd" points="631.883,-81.9415 621.563,-84.3399 631.126,-88.9005 631.883,-81.9415"/>
<text text-anchor="middle" x="660" y="-95" font-family="Helvetica,sans-Serif" font-size="10.00"> Proton</text>
</g>
<!-- Node16 -->
<g id="node30" class="node"><title>Node16</title>
<polygon fill="white" stroke="#bfbfbf" points="487.5,-0.5 487.5,-47.5 612.5,-47.5 612.5,-0.5 487.5,-0.5"/>
<text text-anchor="start" x="495.5" y="-34.5" font-family="Helvetica,sans-Serif" font-size="10.00">std::unique_ptr&lt; ant</text>
<text text-anchor="start" x="495.5" y="-21.5" font-family="Helvetica,sans-Serif" font-size="10.00">::analysis::utils::KinFitter</text>
<text text-anchor="middle" x="550" y="-8.5" font-family="Helvetica,sans-Serif" font-size="10.00">::PhotonBeamVector &gt;</text>
</g>
<!-- Node16&#45;&gt;Node11 -->
<g id="edge30" class="edge"><title>Node16&#45;&gt;Node11</title>
<path fill="none" stroke="#9a32cd" stroke-dasharray="5,2" d="M622.139,-47.45C641.11,-54.0302 661.452,-61.4584 680,-69 690.32,-73.196 701.344,-78.1703 711.368,-82.8921"/>
<polygon fill="#9a32cd" stroke="#9a32cd" points="623.25,-44.1312 612.656,-44.191 620.975,-50.7512 623.25,-44.1312"/>
<text text-anchor="middle" x="660" y="-73" font-family="Helvetica,sans-Serif" font-size="10.00"> Beam</text>
</g>
<!-- Node17 -->
<g id="node32" class="node"><title>Node17</title>
<a xlink:href="structant_1_1analysis_1_1utils_1_1_kin_fitter_1_1_photon_beam_vector.html" target="_top" xlink:title="ant::analysis::utils\l::KinFitter::PhotonBeamVector">
<polygon fill="white" stroke="black" points="260,-7 260,-41 410,-41 410,-7 260,-7"/>
<text text-anchor="start" x="268" y="-28" font-family="Helvetica,sans-Serif" font-size="10.00">ant::analysis::utils</text>
<text text-anchor="middle" x="335" y="-15" font-family="Helvetica,sans-Serif" font-size="10.00">::KinFitter::PhotonBeamVector</text>
</a>
</g>
<!-- Node17&#45;&gt;Node16 -->
<g id="edge32" class="edge"><title>Node17&#45;&gt;Node16</title>
<path fill="none" stroke="#9a32cd" stroke-dasharray="5,2" d="M420.355,-24C442.703,-24 466.384,-24 487.307,-24"/>
<polygon fill="#9a32cd" stroke="#9a32cd" points="420.197,-20.5001 410.197,-24 420.197,-27.5001 420.197,-20.5001"/>
<text text-anchor="middle" x="444" y="-28" font-family="Helvetica,sans-Serif" font-size="10.00"> ptr</text>
</g>
<!-- Node18 -->
<g id="node34" class="node"><title>Node18</title>
<a xlink:title="STL class. ">
<polygon fill="white" stroke="#bfbfbf" points="134,-13.5 134,-34.5 194,-34.5 194,-13.5 134,-13.5"/>
<text text-anchor="middle" x="164" y="-21.5" font-family="Helvetica,sans-Serif" font-size="10.00">std::string</text>
</a>
</g>
<!-- Node18&#45;&gt;Node17 -->
<g id="edge34" class="edge"><title>Node18&#45;&gt;Node17</title>
<path fill="none" stroke="#9a32cd" stroke-dasharray="5,2" d="M204.584,-24C221.171,-24 240.908,-24 259.943,-24"/>
<polygon fill="#9a32cd" stroke="#9a32cd" points="204.178,-20.5001 194.178,-24 204.178,-27.5001 204.178,-20.5001"/>
<text text-anchor="middle" x="227" y="-28" font-family="Helvetica,sans-Serif" font-size="10.00"> Name</text>
</g>
<!-- Node19 -->
<g id="node36" class="node"><title>Node19</title>
<a xlink:title="STL class. ">
<polygon fill="white" stroke="#bfbfbf" points="0.5,-7 0.5,-41 95.5,-41 95.5,-7 0.5,-7"/>
<text text-anchor="start" x="8.5" y="-28" font-family="Helvetica,sans-Serif" font-size="10.00">std::basic_string&lt;</text>
<text text-anchor="middle" x="48" y="-15" font-family="Helvetica,sans-Serif" font-size="10.00"> char &gt;</text>
</a>
</g>
<!-- Node19&#45;&gt;Node18 -->
<g id="edge36" class="edge"><title>Node19&#45;&gt;Node18</title>
<path fill="none" stroke="midnightblue" d="M105.582,-24C115.29,-24 125.014,-24 133.666,-24"/>
<polygon fill="midnightblue" stroke="midnightblue" points="105.516,-20.5001 95.5163,-24 105.516,-27.5001 105.516,-20.5001"/>
</g>
</g>
</svg>
