<?xml version="1.0" encoding="UTF-8" standalone="no"?>
<!DOCTYPE svg PUBLIC "-//W3C//DTD SVG 1.1//EN"
 "http://www.w3.org/Graphics/SVG/1.1/DTD/svg11.dtd">
<!-- Generated by graphviz version 2.26.3 (20100126.1600)
 -->
<!-- Title: ant::ExpConfig::Setup Pages: 1 -->
<svg width="762pt" height="146pt"
 viewBox="0.00 0.00 762.00 146.00" xmlns="http://www.w3.org/2000/svg" xmlns:xlink="http://www.w3.org/1999/xlink">
<g id="graph1" class="graph" transform="scale(1 1) rotate(0) translate(4 142)">
<title>ant::ExpConfig::Setup</title>
<polygon fill="white" stroke="white" points="-4,5 -4,-142 759,-142 759,5 -4,5"/>
<!-- Node1 -->
<g id="node1" class="node"><title>Node1</title>
<polygon fill="#bfbfbf" stroke="black" points="146.5,-58.5 146.5,-79.5 259.5,-79.5 259.5,-58.5 146.5,-58.5"/>
<text text-anchor="middle" x="203" y="-66.5" font-family="Helvetica,sans-Serif" font-size="10.00">ant::ExpConfig::Setup</text>
</g>
<!-- Node3 -->
<g id="node5" class="node"><title>Node3</title>
<a xlink:href="classant_1_1expconfig_1_1_setup.html" target="_top" xlink:title="The Setup class serves as a base class for all known beamtime setup configurations. ">
<polygon fill="white" stroke="black" points="296,-58.5 296,-79.5 406,-79.5 406,-58.5 296,-58.5"/>
<text text-anchor="middle" x="351" y="-66.5" font-family="Helvetica,sans-Serif" font-size="10.00">ant::expconfig::Setup</text>
</a>
</g>
<!-- Node1&#45;&gt;Node3 -->
<g id="edge4" class="edge"><title>Node1&#45;&gt;Node3</title>
<path fill="none" stroke="midnightblue" d="M269.819,-69C278.43,-69 287.173,-69 295.575,-69"/>
<polygon fill="midnightblue" stroke="midnightblue" points="269.797,-65.5001 259.797,-69 269.797,-72.5001 269.797,-65.5001"/>
</g>
<!-- Node2 -->
<g id="node2" class="node"><title>Node2</title>
<a xlink:href="classant_1_1_exp_config_1_1_base.html" target="_top" xlink:title="ant::ExpConfig::Base">
<polygon fill="white" stroke="black" points="0,-58.5 0,-79.5 110,-79.5 110,-58.5 0,-58.5"/>
<text text-anchor="middle" x="55" y="-66.5" font-family="Helvetica,sans-Serif" font-size="10.00">ant::ExpConfig::Base</text>
</a>
</g>
<!-- Node2&#45;&gt;Node1 -->
<g id="edge2" class="edge"><title>Node2&#45;&gt;Node1</title>
<path fill="none" stroke="midnightblue" d="M120.23,-69C128.94,-69 137.814,-69 146.361,-69"/>
<polygon fill="midnightblue" stroke="midnightblue" points="120.11,-65.5001 110.11,-69 120.11,-72.5001 120.11,-65.5001"/>
</g>
<!-- Node4 -->
<g id="node7" class="node"><title>Node4</title>
<a xlink:href="classant_1_1expconfig_1_1setup_1_1_setup__2012__12___compton.html" target="_top" xlink:title="ant::expconfig::setup\l::Setup_2012_12_Compton">
<polygon fill="white" stroke="black" points="442.5,-104 442.5,-138 577.5,-138 577.5,-104 442.5,-104"/>
<text text-anchor="start" x="450.5" y="-125" font-family="Helvetica,sans-Serif" font-size="10.00">ant::expconfig::setup</text>
<text text-anchor="middle" x="510" y="-112" font-family="Helvetica,sans-Serif" font-size="10.00">::Setup_2012_12_Compton</text>
</a>
</g>
<!-- Node3&#45;&gt;Node4 -->
<g id="edge6" class="edge"><title>Node3&#45;&gt;Node4</title>
<path fill="none" stroke="midnightblue" d="M392.879,-82.6963C412.781,-89.205 436.77,-97.0505 457.841,-103.942"/>
<polygon fill="midnightblue" stroke="midnightblue" points="393.769,-79.3049 383.176,-79.523 391.593,-85.9581 393.769,-79.3049"/>
</g>
<!-- Node5 -->
<g id="node9" class="node"><title>Node5</title>
<a xlink:href="classant_1_1expconfig_1_1setup_1_1_setup__2014___e_p_t.html" target="_top" xlink:title="Common base class for all Setups of the 2014 Ent Point Tagger beam times. ">
<polygon fill="white" stroke="black" points="456,-52 456,-86 564,-86 564,-52 456,-52"/>
<text text-anchor="start" x="464" y="-73" font-family="Helvetica,sans-Serif" font-size="10.00">ant::expconfig::setup</text>
<text text-anchor="middle" x="510" y="-60" font-family="Helvetica,sans-Serif" font-size="10.00">::Setup_2014_EPT</text>
</a>
</g>
<!-- Node3&#45;&gt;Node5 -->
<g id="edge8" class="edge"><title>Node3&#45;&gt;Node5</title>
<path fill="none" stroke="midnightblue" d="M416.492,-69C429.543,-69 443.115,-69 455.739,-69"/>
<polygon fill="midnightblue" stroke="midnightblue" points="416.164,-65.5001 406.164,-69 416.164,-72.5001 416.164,-65.5001"/>
</g>
<!-- Node9 -->
<g id="node17" class="node"><title>Node9</title>
<a xlink:href="classant_1_1expconfig_1_1setup_1_1_setup__2015__01___pion.html" target="_top" xlink:title="Ant Setup for Rare Pion Test Beamtime in January 2015 &amp; MC studies. ">
<polygon fill="white" stroke="black" points="452.5,-0 452.5,-34 567.5,-34 567.5,-0 452.5,-0"/>
<text text-anchor="start" x="460.5" y="-21" font-family="Helvetica,sans-Serif" font-size="10.00">ant::expconfig::setup</text>
<text text-anchor="middle" x="510" y="-8" font-family="Helvetica,sans-Serif" font-size="10.00">::Setup_2015_01_Pion</text>
</a>
</g>
<!-- Node3&#45;&gt;Node9 -->
<g id="edge16" class="edge"><title>Node3&#45;&gt;Node9</title>
<path fill="none" stroke="midnightblue" d="M392.879,-55.3037C412.781,-48.795 436.77,-40.9495 457.841,-34.0582"/>
<polygon fill="midnightblue" stroke="midnightblue" points="391.593,-52.0419 383.176,-58.477 393.769,-58.6951 391.593,-52.0419"/>
</g>
<!-- Node6 -->
<g id="node11" class="node"><title>Node6</title>
<a xlink:href="classant_1_1expconfig_1_1setup_1_1_setup__2014__07___e_p_t___prod.html" target="_top" xlink:title="Ant Setup for the July 2014 End Point Tagger beam time. ">
<polygon fill="white" stroke="black" points="614,-104 614,-138 754,-138 754,-104 614,-104"/>
<text text-anchor="start" x="622" y="-125" font-family="Helvetica,sans-Serif" font-size="10.00">ant::expconfig::setup</text>
<text text-anchor="middle" x="684" y="-112" font-family="Helvetica,sans-Serif" font-size="10.00">::Setup_2014_07_EPT_Prod</text>
</a>
</g>
<!-- Node5&#45;&gt;Node6 -->
<g id="edge10" class="edge"><title>Node5&#45;&gt;Node6</title>
<path fill="none" stroke="midnightblue" d="M574.117,-88.1614C591.422,-93.3332 610.028,-98.8935 626.92,-103.942"/>
<polygon fill="midnightblue" stroke="midnightblue" points="574.684,-84.6781 564.101,-85.1681 572.68,-91.385 574.684,-84.6781"/>
</g>
<!-- Node7 -->
<g id="node13" class="node"><title>Node7</title>
<a xlink:href="classant_1_1expconfig_1_1setup_1_1_setup__2014__10___e_p_t___prod.html" target="_top" xlink:title="Ant Setup for the October 2014 End Point Tagger beam time. ">
<polygon fill="white" stroke="black" points="614,-52 614,-86 754,-86 754,-52 614,-52"/>
<text text-anchor="start" x="622" y="-73" font-family="Helvetica,sans-Serif" font-size="10.00">ant::expconfig::setup</text>
<text text-anchor="middle" x="684" y="-60" font-family="Helvetica,sans-Serif" font-size="10.00">::Setup_2014_10_EPT_Prod</text>
</a>
</g>
<!-- Node5&#45;&gt;Node7 -->
<g id="edge12" class="edge"><title>Node5&#45;&gt;Node7</title>
<path fill="none" stroke="midnightblue" d="M574.277,-69C587.188,-69 600.816,-69 613.913,-69"/>
<polygon fill="midnightblue" stroke="midnightblue" points="574.101,-65.5001 564.101,-69 574.101,-72.5001 574.101,-65.5001"/>
</g>
<!-- Node8 -->
<g id="node15" class="node"><title>Node8</title>
<a xlink:href="classant_1_1expconfig_1_1setup_1_1_setup__2014__12___e_p_t___prod.html" target="_top" xlink:title="Ant Setup for the December 2014 End Point Tagger beam time. ">
<polygon fill="white" stroke="black" points="614,-0 614,-34 754,-34 754,-0 614,-0"/>
<text text-anchor="start" x="622" y="-21" font-family="Helvetica,sans-Serif" font-size="10.00">ant::expconfig::setup</text>
<text text-anchor="middle" x="684" y="-8" font-family="Helvetica,sans-Serif" font-size="10.00">::Setup_2014_12_EPT_Prod</text>
</a>
</g>
<!-- Node5&#45;&gt;Node8 -->
<g id="edge14" class="edge"><title>Node5&#45;&gt;Node8</title>
<path fill="none" stroke="midnightblue" d="M574.117,-49.8386C591.422,-44.6668 610.028,-39.1065 626.92,-34.0582"/>
<polygon fill="midnightblue" stroke="midnightblue" points="572.68,-46.615 564.101,-52.8319 574.684,-53.3219 572.68,-46.615"/>
</g>
</g>
</svg>
