<?xml version="1.0" encoding="UTF-8" standalone="no"?>
<!DOCTYPE svg PUBLIC "-//W3C//DTD SVG 1.1//EN"
 "http://www.w3.org/Graphics/SVG/1.1/DTD/svg11.dtd">
<!-- Generated by graphviz version 2.26.3 (20100126.1600)
 -->
<!-- Title: ant::ExpConfig::Reconstruct Pages: 1 -->
<svg width="790pt" height="146pt"
 viewBox="0.00 0.00 790.00 146.00" xmlns="http://www.w3.org/2000/svg" xmlns:xlink="http://www.w3.org/1999/xlink">
<g id="graph1" class="graph" transform="scale(1 1) rotate(0) translate(4 142)">
<title>ant::ExpConfig::Reconstruct</title>
<polygon fill="white" stroke="white" points="-4,5 -4,-142 787,-142 787,5 -4,5"/>
<!-- Node1 -->
<g id="node1" class="node"><title>Node1</title>
<polygon fill="#bfbfbf" stroke="black" points="146.5,-58.5 146.5,-79.5 287.5,-79.5 287.5,-58.5 146.5,-58.5"/>
<text text-anchor="middle" x="217" y="-66.5" font-family="Helvetica,sans-Serif" font-size="10.00">ant::ExpConfig::Reconstruct</text>
</g>
<!-- Node3 -->
<g id="node5" class="node"><title>Node3</title>
<a xlink:href="classant_1_1expconfig_1_1_setup.html" target="_top" xlink:title="The Setup class serves as a base class for all known beamtime setup configurations. ">
<polygon fill="white" stroke="black" points="324,-58.5 324,-79.5 434,-79.5 434,-58.5 324,-58.5"/>
<text text-anchor="middle" x="379" y="-66.5" font-family="Helvetica,sans-Serif" font-size="10.00">ant::expconfig::Setup</text>
</a>
</g>
<!-- Node1&#45;&gt;Node3 -->
<g id="edge4" class="edge"><title>Node1&#45;&gt;Node3</title>
<path fill="none" stroke="midnightblue" d="M297.85,-69C306.617,-69 315.387,-69 323.748,-69"/>
<polygon fill="midnightblue" stroke="midnightblue" points="297.584,-65.5001 287.584,-69 297.584,-72.5001 297.584,-65.5001"/>
</g>
<!-- Node2 -->
<g id="node2" class="node"><title>Node2</title>
<a xlink:href="classant_1_1_exp_config_1_1_base.html" target="_top" xlink:title="ant::ExpConfig::Base">
<polygon fill="white" stroke="black" points="0,-58.5 0,-79.5 110,-79.5 110,-58.5 0,-58.5"/>
<text text-anchor="middle" x="55" y="-66.5" font-family="Helvetica,sans-Serif" font-size="10.00">ant::ExpConfig::Base</text>
</a>
</g>
<!-- Node2&#45;&gt;Node1 -->
<g id="edge2" class="edge"><title>Node2&#45;&gt;Node1</title>
<path fill="none" stroke="midnightblue" d="M120.564,-69C129.099,-69 137.871,-69 146.483,-69"/>
<polygon fill="midnightblue" stroke="midnightblue" points="120.298,-65.5001 110.298,-69 120.298,-72.5001 120.298,-65.5001"/>
</g>
<!-- Node4 -->
<g id="node7" class="node"><title>Node4</title>
<a xlink:href="classant_1_1expconfig_1_1setup_1_1_setup__2012__12___compton.html" target="_top" xlink:title="ant::expconfig::setup\l::Setup_2012_12_Compton">
<polygon fill="white" stroke="black" points="470.5,-104 470.5,-138 605.5,-138 605.5,-104 470.5,-104"/>
<text text-anchor="start" x="478.5" y="-125" font-family="Helvetica,sans-Serif" font-size="10.00">ant::expconfig::setup</text>
<text text-anchor="middle" x="538" y="-112" font-family="Helvetica,sans-Serif" font-size="10.00">::Setup_2012_12_Compton</text>
</a>
</g>
<!-- Node3&#45;&gt;Node4 -->
<g id="edge6" class="edge"><title>Node3&#45;&gt;Node4</title>
<path fill="none" stroke="midnightblue" d="M420.879,-82.6963C440.781,-89.205 464.77,-97.0505 485.841,-103.942"/>
<polygon fill="midnightblue" stroke="midnightblue" points="421.769,-79.3049 411.176,-79.523 419.593,-85.9581 421.769,-79.3049"/>
</g>
<!-- Node5 -->
<g id="node9" class="node"><title>Node5</title>
<a xlink:href="classant_1_1expconfig_1_1setup_1_1_setup__2014___e_p_t.html" target="_top" xlink:title="Common base class for all Setups of the 2014 Ent Point Tagger beam times. ">
<polygon fill="white" stroke="black" points="484,-52 484,-86 592,-86 592,-52 484,-52"/>
<text text-anchor="start" x="492" y="-73" font-family="Helvetica,sans-Serif" font-size="10.00">ant::expconfig::setup</text>
<text text-anchor="middle" x="538" y="-60" font-family="Helvetica,sans-Serif" font-size="10.00">::Setup_2014_EPT</text>
</a>
</g>
<!-- Node3&#45;&gt;Node5 -->
<g id="edge8" class="edge"><title>Node3&#45;&gt;Node5</title>
<path fill="none" stroke="midnightblue" d="M444.492,-69C457.543,-69 471.115,-69 483.739,-69"/>
<polygon fill="midnightblue" stroke="midnightblue" points="444.164,-65.5001 434.164,-69 444.164,-72.5001 444.164,-65.5001"/>
</g>
<!-- Node9 -->
<g id="node17" class="node"><title>Node9</title>
<a xlink:href="classant_1_1expconfig_1_1setup_1_1_setup__2015__01___pion.html" target="_top" xlink:title="Ant Setup for Rare Pion Test Beamtime in January 2015 &amp; MC studies. ">
<polygon fill="white" stroke="black" points="480.5,-0 480.5,-34 595.5,-34 595.5,-0 480.5,-0"/>
<text text-anchor="start" x="488.5" y="-21" font-family="Helvetica,sans-Serif" font-size="10.00">ant::expconfig::setup</text>
<text text-anchor="middle" x="538" y="-8" font-family="Helvetica,sans-Serif" font-size="10.00">::Setup_2015_01_Pion</text>
</a>
</g>
<!-- Node3&#45;&gt;Node9 -->
<g id="edge16" class="edge"><title>Node3&#45;&gt;Node9</title>
<path fill="none" stroke="midnightblue" d="M420.879,-55.3037C440.781,-48.795 464.77,-40.9495 485.841,-34.0582"/>
<polygon fill="midnightblue" stroke="midnightblue" points="419.593,-52.0419 411.176,-58.477 421.769,-58.6951 419.593,-52.0419"/>
</g>
<!-- Node6 -->
<g id="node11" class="node"><title>Node6</title>
<a xlink:href="classant_1_1expconfig_1_1setup_1_1_setup__2014__07___e_p_t___prod.html" target="_top" xlink:title="Ant Setup for the July 2014 End Point Tagger beam time. ">
<polygon fill="white" stroke="black" points="642,-104 642,-138 782,-138 782,-104 642,-104"/>
<text text-anchor="start" x="650" y="-125" font-family="Helvetica,sans-Serif" font-size="10.00">ant::expconfig::setup</text>
<text text-anchor="middle" x="712" y="-112" font-family="Helvetica,sans-Serif" font-size="10.00">::Setup_2014_07_EPT_Prod</text>
</a>
</g>
<!-- Node5&#45;&gt;Node6 -->
<g id="edge10" class="edge"><title>Node5&#45;&gt;Node6</title>
<path fill="none" stroke="midnightblue" d="M602.117,-88.1614C619.422,-93.3332 638.028,-98.8935 654.92,-103.942"/>
<polygon fill="midnightblue" stroke="midnightblue" points="602.684,-84.6781 592.101,-85.1681 600.68,-91.385 602.684,-84.6781"/>
</g>
<!-- Node7 -->
<g id="node13" class="node"><title>Node7</title>
<a xlink:href="classant_1_1expconfig_1_1setup_1_1_setup__2014__10___e_p_t___prod.html" target="_top" xlink:title="Ant Setup for the October 2014 End Point Tagger beam time. ">
<polygon fill="white" stroke="black" points="642,-52 642,-86 782,-86 782,-52 642,-52"/>
<text text-anchor="start" x="650" y="-73" font-family="Helvetica,sans-Serif" font-size="10.00">ant::expconfig::setup</text>
<text text-anchor="middle" x="712" y="-60" font-family="Helvetica,sans-Serif" font-size="10.00">::Setup_2014_10_EPT_Prod</text>
</a>
</g>
<!-- Node5&#45;&gt;Node7 -->
<g id="edge12" class="edge"><title>Node5&#45;&gt;Node7</title>
<path fill="none" stroke="midnightblue" d="M602.277,-69C615.188,-69 628.816,-69 641.913,-69"/>
<polygon fill="midnightblue" stroke="midnightblue" points="602.101,-65.5001 592.101,-69 602.101,-72.5001 602.101,-65.5001"/>
</g>
<!-- Node8 -->
<g id="node15" class="node"><title>Node8</title>
<a xlink:href="classant_1_1expconfig_1_1setup_1_1_setup__2014__12___e_p_t___prod.html" target="_top" xlink:title="Ant Setup for the December 2014 End Point Tagger beam time. ">
<polygon fill="white" stroke="black" points="642,-0 642,-34 782,-34 782,-0 642,-0"/>
<text text-anchor="start" x="650" y="-21" font-family="Helvetica,sans-Serif" font-size="10.00">ant::expconfig::setup</text>
<text text-anchor="middle" x="712" y="-8" font-family="Helvetica,sans-Serif" font-size="10.00">::Setup_2014_12_EPT_Prod</text>
</a>
</g>
<!-- Node5&#45;&gt;Node8 -->
<g id="edge14" class="edge"><title>Node5&#45;&gt;Node8</title>
<path fill="none" stroke="midnightblue" d="M602.117,-49.8386C619.422,-44.6668 638.028,-39.1065 654.92,-34.0582"/>
<polygon fill="midnightblue" stroke="midnightblue" points="600.68,-46.615 592.101,-52.8319 602.684,-53.3219 600.68,-46.615"/>
</g>
</g>
</svg>
