<?xml version="1.0" encoding="UTF-8" standalone="no"?>
<!DOCTYPE svg PUBLIC "-//W3C//DTD SVG 1.1//EN"
 "http://www.w3.org/Graphics/SVG/1.1/DTD/svg11.dtd">
<!-- Generated by graphviz version 2.26.3 (20100126.1600)
 -->
<!-- Title: ant::analysis::physics::KinFitPi0 Pages: 1 -->
<svg width="1720pt" height="481pt"
 viewBox="0.00 0.00 1720.00 481.00" xmlns="http://www.w3.org/2000/svg" xmlns:xlink="http://www.w3.org/1999/xlink">
<g id="graph1" class="graph" transform="scale(1 1) rotate(0) translate(4 477)">
<title>ant::analysis::physics::KinFitPi0</title>
<polygon fill="white" stroke="white" points="-4,5 -4,-477 1717,-477 1717,5 -4,5"/>
<!-- Node1 -->
<g id="node1" class="node"><title>Node1</title>
<polygon fill="#bfbfbf" stroke="black" points="1600,-412 1600,-446 1712,-446 1712,-412 1600,-412"/>
<text text-anchor="start" x="1608" y="-433" font-family="Helvetica,sans-Serif" font-size="10.00">ant::analysis::physics</text>
<text text-anchor="middle" x="1656" y="-420" font-family="Helvetica,sans-Serif" font-size="10.00">::KinFitPi0</text>
</g>
<!-- Node2 -->
<g id="node2" class="node"><title>Node2</title>
<a xlink:href="classant_1_1analysis_1_1_physics.html" target="_top" xlink:title="ant::analysis::Physics">
<polygon fill="white" stroke="black" points="1066.5,-451.5 1066.5,-472.5 1179.5,-472.5 1179.5,-451.5 1066.5,-451.5"/>
<text text-anchor="middle" x="1123" y="-459.5" font-family="Helvetica,sans-Serif" font-size="10.00">ant::analysis::Physics</text>
</a>
</g>
<!-- Node2&#45;&gt;Node1 -->
<g id="edge2" class="edge"><title>Node2&#45;&gt;Node1</title>
<path fill="none" stroke="midnightblue" d="M1189.79,-457.865C1295.77,-451.303 1500.6,-438.622 1599.64,-432.489"/>
<polygon fill="midnightblue" stroke="midnightblue" points="1189.3,-454.388 1179.54,-458.5 1189.73,-461.375 1189.3,-454.388"/>
</g>
<!-- Node3 -->
<g id="node4" class="node"><title>Node3</title>
<a xlink:href="classant_1_1analysis_1_1_histogram_factory.html" target="_top" xlink:title="ant::analysis::Histogram\lFactory">
<polygon fill="white" stroke="black" points="727.5,-439 727.5,-473 850.5,-473 850.5,-439 727.5,-439"/>
<text text-anchor="start" x="735.5" y="-460" font-family="Helvetica,sans-Serif" font-size="10.00">ant::analysis::Histogram</text>
<text text-anchor="middle" x="789" y="-447" font-family="Helvetica,sans-Serif" font-size="10.00">Factory</text>
</a>
</g>
<!-- Node3&#45;&gt;Node2 -->
<g id="edge4" class="edge"><title>Node3&#45;&gt;Node2</title>
<path fill="none" stroke="#9a32cd" stroke-dasharray="5,2" d="M860.677,-457.288C922.22,-458.393 1009.73,-459.965 1066.44,-460.984"/>
<polygon fill="#9a32cd" stroke="#9a32cd" points="860.711,-453.788 850.65,-457.107 860.585,-460.787 860.711,-453.788"/>
<text text-anchor="middle" x="894" y="-462" font-family="Helvetica,sans-Serif" font-size="10.00"> HistFac</text>
</g>
<!-- Node6 -->
<g id="node10" class="node"><title>Node6</title>
<a xlink:href="structant_1_1analysis_1_1physics_1_1_kin_fit_pi0_1_1_multi_pi0.html" target="_top" xlink:title="ant::analysis::physics\l::KinFitPi0::MultiPi0">
<polygon fill="white" stroke="black" points="936,-344 936,-378 1048,-378 1048,-344 936,-344"/>
<text text-anchor="start" x="944" y="-365" font-family="Helvetica,sans-Serif" font-size="10.00">ant::analysis::physics</text>
<text text-anchor="middle" x="992" y="-352" font-family="Helvetica,sans-Serif" font-size="10.00">::KinFitPi0::MultiPi0</text>
</a>
</g>
<!-- Node3&#45;&gt;Node6 -->
<g id="edge42" class="edge"><title>Node3&#45;&gt;Node6</title>
<path fill="none" stroke="#9a32cd" stroke-dasharray="5,2" d="M839.851,-434.972C863.759,-424.82 892.542,-412.213 918,-400 932.272,-393.153 947.806,-385.067 960.94,-378.037"/>
<polygon fill="#9a32cd" stroke="#9a32cd" points="838.456,-431.762 830.607,-438.879 841.181,-438.21 838.456,-431.762"/>
<text text-anchor="middle" x="894" y="-424" font-family="Helvetica,sans-Serif" font-size="10.00"> HistFac</text>
</g>
<!-- Node4 -->
<g id="node6" class="node"><title>Node4</title>
<polygon fill="white" stroke="#bfbfbf" points="1386.5,-372.5 1386.5,-419.5 1523.5,-419.5 1523.5,-372.5 1386.5,-372.5"/>
<text text-anchor="start" x="1394.5" y="-406.5" font-family="Helvetica,sans-Serif" font-size="10.00">std::vector&lt; std::unique</text>
<text text-anchor="start" x="1394.5" y="-393.5" font-family="Helvetica,sans-Serif" font-size="10.00">_ptr&lt; ant::analysis::physics</text>
<text text-anchor="middle" x="1455" y="-380.5" font-family="Helvetica,sans-Serif" font-size="10.00">::KinFitPi0::MultiPi0 &gt; &gt;</text>
</g>
<!-- Node4&#45;&gt;Node1 -->
<g id="edge6" class="edge"><title>Node4&#45;&gt;Node1</title>
<path fill="none" stroke="#9a32cd" stroke-dasharray="5,2" d="M1533.63,-408.909C1555.68,-412.53 1579.22,-416.394 1599.7,-419.757"/>
<polygon fill="#9a32cd" stroke="#9a32cd" points="1534.05,-405.431 1523.61,-407.264 1532.91,-412.338 1534.05,-405.431"/>
<text text-anchor="middle" x="1562" y="-420" font-family="Helvetica,sans-Serif" font-size="10.00"> multiPi0</text>
</g>
<!-- Node5 -->
<g id="node8" class="node"><title>Node5</title>
<polygon fill="white" stroke="#bfbfbf" points="1198.5,-370.5 1198.5,-417.5 1305.5,-417.5 1305.5,-370.5 1198.5,-370.5"/>
<text text-anchor="start" x="1206.5" y="-404.5" font-family="Helvetica,sans-Serif" font-size="10.00">std::unique_ptr&lt; ant</text>
<text text-anchor="start" x="1206.5" y="-391.5" font-family="Helvetica,sans-Serif" font-size="10.00">::analysis::physics::</text>
<text text-anchor="middle" x="1252" y="-378.5" font-family="Helvetica,sans-Serif" font-size="10.00">KinFitPi0::MultiPi0 &gt;</text>
</g>
<!-- Node5&#45;&gt;Node4 -->
<g id="edge8" class="edge"><title>Node5&#45;&gt;Node4</title>
<path fill="none" stroke="#9a32cd" stroke-dasharray="5,2" d="M1315.67,-394.627C1338.07,-394.848 1363.33,-395.097 1386.13,-395.321"/>
<polygon fill="#9a32cd" stroke="#9a32cd" points="1315.64,-391.127 1305.6,-394.528 1315.57,-398.127 1315.64,-391.127"/>
<text text-anchor="middle" x="1346" y="-399" font-family="Helvetica,sans-Serif" font-size="10.00"> elements</text>
</g>
<!-- Node6&#45;&gt;Node5 -->
<g id="edge10" class="edge"><title>Node6&#45;&gt;Node5</title>
<path fill="none" stroke="#9a32cd" stroke-dasharray="5,2" d="M1058.27,-369.412C1101.65,-374.918 1157.61,-382.02 1198.23,-387.175"/>
<polygon fill="#9a32cd" stroke="#9a32cd" points="1058.46,-365.907 1048.1,-368.12 1057.58,-372.851 1058.46,-365.907"/>
<text text-anchor="middle" x="1123" y="-388" font-family="Helvetica,sans-Serif" font-size="10.00"> ptr</text>
</g>
<!-- Node7 -->
<g id="node12" class="node"><title>Node7</title>
<polygon fill="white" stroke="#bfbfbf" points="726,-211 726,-245 852,-245 852,-211 726,-211"/>
<text text-anchor="start" x="734" y="-232" font-family="Helvetica,sans-Serif" font-size="10.00">std::map&lt; std::string,</text>
<text text-anchor="middle" x="789" y="-219" font-family="Helvetica,sans-Serif" font-size="10.00"> PromptRandom::Hist1 &gt;</text>
</g>
<!-- Node7&#45;&gt;Node6 -->
<g id="edge12" class="edge"><title>Node7&#45;&gt;Node6</title>
<path fill="none" stroke="#9a32cd" stroke-dasharray="5,2" d="M862.107,-232.816C881.447,-236.65 901.508,-243.14 918,-254 951.766,-276.234 974.492,-319.688 985.108,-343.817"/>
<polygon fill="#9a32cd" stroke="#9a32cd" points="862.538,-229.338 852.082,-231.044 861.32,-236.231 862.538,-229.338"/>
<text text-anchor="middle" x="894" y="-258" font-family="Helvetica,sans-Serif" font-size="10.00"> h_pulls</text>
</g>
<!-- Node8 -->
<g id="node14" class="node"><title>Node8</title>
<a xlink:href="structant_1_1analysis_1_1_prompt_random_1_1_hist1.html" target="_top" xlink:title="ant::analysis::PromptRandom\l::Hist1">
<polygon fill="white" stroke="black" points="478,-264 478,-298 624,-298 624,-264 478,-264"/>
<text text-anchor="start" x="486" y="-285" font-family="Helvetica,sans-Serif" font-size="10.00">ant::analysis::PromptRandom</text>
<text text-anchor="middle" x="551" y="-272" font-family="Helvetica,sans-Serif" font-size="10.00">::Hist1</text>
</a>
</g>
<!-- Node8&#45;&gt;Node6 -->
<g id="edge22" class="edge"><title>Node8&#45;&gt;Node6</title>
<path fill="none" stroke="#9a32cd" stroke-dasharray="5,2" d="M634.586,-276.188C695.705,-274.756 780.13,-277.145 852,-295 893.204,-305.236 936.875,-327.978 964.273,-343.889"/>
<polygon fill="#9a32cd" stroke="#9a32cd" points="634.12,-272.699 624.22,-276.472 634.312,-279.696 634.12,-272.699"/>
<text text-anchor="middle" x="789" y="-338" font-family="Helvetica,sans-Serif" font-size="10.00"> h_missingmass</text>
<text text-anchor="middle" x="789" y="-325" font-family="Helvetica,sans-Serif" font-size="10.00">h_fitprobability</text>
<text text-anchor="middle" x="789" y="-312" font-family="Helvetica,sans-Serif" font-size="10.00">IM_2g_fitted</text>
<text text-anchor="middle" x="789" y="-299" font-family="Helvetica,sans-Serif" font-size="10.00">IM_2g_byFit</text>
</g>
<!-- Node8&#45;&gt;Node7 -->
<g id="edge14" class="edge"><title>Node8&#45;&gt;Node7</title>
<path fill="none" stroke="#9a32cd" stroke-dasharray="5,2" d="M614.488,-261.166C623.675,-258.587 633.048,-256.112 642,-254 669.242,-247.571 699.661,-241.939 725.729,-237.576"/>
<polygon fill="#9a32cd" stroke="#9a32cd" points="613.272,-257.873 604.622,-263.992 615.2,-264.603 613.272,-257.873"/>
<text text-anchor="middle" x="675" y="-258" font-family="Helvetica,sans-Serif" font-size="10.00"> elements</text>
</g>
<!-- Node9 -->
<g id="node16" class="node"><title>Node9</title>
<a xlink:href="classant_1_1analysis_1_1_prompt_random_1_1_switch.html" target="_top" xlink:title="ant::analysis::PromptRandom\l::Switch">
<polygon fill="white" stroke="black" points="262,-324 262,-358 408,-358 408,-324 262,-324"/>
<text text-anchor="start" x="270" y="-345" font-family="Helvetica,sans-Serif" font-size="10.00">ant::analysis::PromptRandom</text>
<text text-anchor="middle" x="335" y="-332" font-family="Helvetica,sans-Serif" font-size="10.00">::Switch</text>
</a>
</g>
<!-- Node9&#45;&gt;Node6 -->
<g id="edge40" class="edge"><title>Node9&#45;&gt;Node6</title>
<path fill="none" stroke="#9a32cd" stroke-dasharray="5,2" d="M418.487,-343.541C554.351,-347.677 819.744,-355.756 935.616,-359.284"/>
<polygon fill="#9a32cd" stroke="#9a32cd" points="418.239,-340.032 408.137,-343.226 418.026,-347.029 418.239,-340.032"/>
<text text-anchor="middle" x="675" y="-356" font-family="Helvetica,sans-Serif" font-size="10.00"> promptrandom</text>
</g>
<!-- Node9&#45;&gt;Node8 -->
<g id="edge16" class="edge"><title>Node9&#45;&gt;Node8</title>
<path fill="none" stroke="#9a32cd" stroke-dasharray="5,2" d="M406.083,-321.255C433.054,-313.763 463.517,-305.301 489.528,-298.076"/>
<polygon fill="#9a32cd" stroke="#9a32cd" points="405.018,-317.918 396.319,-323.967 406.891,-324.663 405.018,-317.918"/>
<text text-anchor="middle" x="444" y="-318" font-family="Helvetica,sans-Serif" font-size="10.00"> d</text>
</g>
<!-- Node10 -->
<g id="node18" class="node"><title>Node10</title>
<a xlink:title="STL class. ">
<polygon fill="white" stroke="#bfbfbf" points="134,-178.5 134,-199.5 194,-199.5 194,-178.5 134,-178.5"/>
<text text-anchor="middle" x="164" y="-186.5" font-family="Helvetica,sans-Serif" font-size="10.00">std::string</text>
</a>
</g>
<!-- Node10&#45;&gt;Node7 -->
<g id="edge18" class="edge"><title>Node10&#45;&gt;Node7</title>
<path fill="none" stroke="#9a32cd" stroke-dasharray="5,2" d="M204.426,-191.523C310.559,-198.145 597.761,-216.067 725.852,-224.06"/>
<polygon fill="#9a32cd" stroke="#9a32cd" points="204.344,-188.011 194.145,-190.881 203.908,-194.997 204.344,-188.011"/>
<text text-anchor="middle" x="444" y="-211" font-family="Helvetica,sans-Serif" font-size="10.00"> keys</text>
</g>
<!-- Node18 -->
<g id="node35" class="node"><title>Node18</title>
<a xlink:href="structant_1_1analysis_1_1utils_1_1_kin_fitter_1_1_photon_beam_vector.html" target="_top" xlink:title="ant::analysis::utils\l::KinFitter::PhotonBeamVector">
<polygon fill="white" stroke="black" points="260,-109 260,-143 410,-143 410,-109 260,-109"/>
<text text-anchor="start" x="268" y="-130" font-family="Helvetica,sans-Serif" font-size="10.00">ant::analysis::utils</text>
<text text-anchor="middle" x="335" y="-117" font-family="Helvetica,sans-Serif" font-size="10.00">::KinFitter::PhotonBeamVector</text>
</a>
</g>
<!-- Node10&#45;&gt;Node18 -->
<g id="edge38" class="edge"><title>Node10&#45;&gt;Node18</title>
<path fill="none" stroke="#9a32cd" stroke-dasharray="5,2" d="M202.314,-174.884C227.823,-165.486 261.491,-153.082 288.528,-143.121"/>
<polygon fill="#9a32cd" stroke="#9a32cd" points="200.795,-171.714 192.622,-178.455 203.215,-178.282 200.795,-171.714"/>
<text text-anchor="middle" x="227" y="-175" font-family="Helvetica,sans-Serif" font-size="10.00"> Name</text>
</g>
<!-- Node11 -->
<g id="node20" class="node"><title>Node11</title>
<a xlink:title="STL class. ">
<polygon fill="white" stroke="#bfbfbf" points="0.5,-172 0.5,-206 95.5,-206 95.5,-172 0.5,-172"/>
<text text-anchor="start" x="8.5" y="-193" font-family="Helvetica,sans-Serif" font-size="10.00">std::basic_string&lt;</text>
<text text-anchor="middle" x="48" y="-180" font-family="Helvetica,sans-Serif" font-size="10.00"> char &gt;</text>
</a>
</g>
<!-- Node11&#45;&gt;Node10 -->
<g id="edge20" class="edge"><title>Node11&#45;&gt;Node10</title>
<path fill="none" stroke="midnightblue" d="M105.582,-189C115.29,-189 125.014,-189 133.666,-189"/>
<polygon fill="midnightblue" stroke="midnightblue" points="105.516,-185.5 95.5163,-189 105.516,-192.5 105.516,-185.5"/>
</g>
<!-- Node12 -->
<g id="node23" class="node"><title>Node12</title>
<a xlink:href="classant_1_1analysis_1_1utils_1_1_kin_fitter.html" target="_top" xlink:title="ant::analysis::utils\l::KinFitter">
<polygon fill="white" stroke="black" points="741,-112 741,-146 837,-146 837,-112 741,-112"/>
<text text-anchor="start" x="749" y="-133" font-family="Helvetica,sans-Serif" font-size="10.00">ant::analysis::utils</text>
<text text-anchor="middle" x="789" y="-120" font-family="Helvetica,sans-Serif" font-size="10.00">::KinFitter</text>
</a>
</g>
<!-- Node12&#45;&gt;Node6 -->
<g id="edge24" class="edge"><title>Node12&#45;&gt;Node6</title>
<path fill="none" stroke="#9a32cd" stroke-dasharray="5,2" d="M831.539,-151.148C858.833,-166.967 893.599,-190.303 918,-218 952.555,-257.223 976.112,-315.446 986.301,-343.983"/>
<polygon fill="#9a32cd" stroke="#9a32cd" points="833.021,-147.965 822.596,-146.076 829.568,-154.054 833.021,-147.965"/>
<text text-anchor="middle" x="894" y="-222" font-family="Helvetica,sans-Serif" font-size="10.00"> fitter</text>
</g>
<!-- Node13 -->
<g id="node25" class="node"><title>Node13</title>
<a xlink:href="classant_1_1analysis_1_1utils_1_1_fitter.html" target="_top" xlink:title="ant::analysis::utils\l::Fitter">
<polygon fill="white" stroke="black" points="503,-0 503,-34 599,-34 599,-0 503,-0"/>
<text text-anchor="start" x="511" y="-21" font-family="Helvetica,sans-Serif" font-size="10.00">ant::analysis::utils</text>
<text text-anchor="middle" x="551" y="-8" font-family="Helvetica,sans-Serif" font-size="10.00">::Fitter</text>
</a>
</g>
<!-- Node13&#45;&gt;Node12 -->
<g id="edge26" class="edge"><title>Node13&#45;&gt;Node12</title>
<path fill="none" stroke="midnightblue" d="M608.676,-36.6989C613.894,-38.7345 619.067,-40.8484 624,-43 672.559,-64.1812 726.618,-93.5184 759.201,-111.869"/>
<polygon fill="midnightblue" stroke="midnightblue" points="609.867,-33.4075 599.276,-33.1283 607.381,-39.9513 609.867,-33.4075"/>
</g>
<!-- Node14 -->
<g id="node27" class="node"><title>Node14</title>
<polygon fill="white" stroke="#bfbfbf" points="265,-6.5 265,-27.5 405,-27.5 405,-6.5 265,-6.5"/>
<text text-anchor="middle" x="335" y="-14.5" font-family="Helvetica,sans-Serif" font-size="10.00">std::unique_ptr&lt; APLCON &gt;</text>
</g>
<!-- Node14&#45;&gt;Node13 -->
<g id="edge28" class="edge"><title>Node14&#45;&gt;Node13</title>
<path fill="none" stroke="#9a32cd" stroke-dasharray="5,2" d="M415.377,-17C444.737,-17 477.018,-17 502.718,-17"/>
<polygon fill="#9a32cd" stroke="#9a32cd" points="415.129,-13.5001 405.129,-17 415.129,-20.5001 415.129,-13.5001"/>
<text text-anchor="middle" x="444" y="-21" font-family="Helvetica,sans-Serif" font-size="10.00"> aplcon</text>
</g>
<!-- Node15 -->
<g id="node29" class="node"><title>Node15</title>
<polygon fill="white" stroke="#bfbfbf" points="490.5,-158 490.5,-192 611.5,-192 611.5,-158 490.5,-158"/>
<text text-anchor="start" x="498.5" y="-179" font-family="Helvetica,sans-Serif" font-size="10.00">std::vector&lt; std::shared</text>
<text text-anchor="middle" x="551" y="-166" font-family="Helvetica,sans-Serif" font-size="10.00">_ptr&lt; FitParticle &gt; &gt;</text>
</g>
<!-- Node15&#45;&gt;Node12 -->
<g id="edge30" class="edge"><title>Node15&#45;&gt;Node12</title>
<path fill="none" stroke="#9a32cd" stroke-dasharray="5,2" d="M621.954,-162.27C648.923,-157.333 679.908,-151.542 708,-146 718.573,-143.914 729.903,-141.592 740.639,-139.35"/>
<polygon fill="#9a32cd" stroke="#9a32cd" points="621.038,-158.88 611.829,-164.118 622.295,-165.766 621.038,-158.88"/>
<text text-anchor="middle" x="675" y="-163" font-family="Helvetica,sans-Serif" font-size="10.00"> Photons</text>
</g>
<!-- Node16 -->
<g id="node31" class="node"><title>Node16</title>
<polygon fill="white" stroke="#bfbfbf" points="479.5,-118.5 479.5,-139.5 622.5,-139.5 622.5,-118.5 479.5,-118.5"/>
<text text-anchor="middle" x="551" y="-126.5" font-family="Helvetica,sans-Serif" font-size="10.00">std::unique_ptr&lt; FitParticle &gt;</text>
</g>
<!-- Node16&#45;&gt;Node12 -->
<g id="edge32" class="edge"><title>Node16&#45;&gt;Node12</title>
<path fill="none" stroke="#9a32cd" stroke-dasharray="5,2" d="M632.735,-129C668.725,-129 709.772,-129 740.764,-129"/>
<polygon fill="#9a32cd" stroke="#9a32cd" points="632.731,-125.5 622.731,-129 632.731,-132.5 632.731,-125.5"/>
<text text-anchor="middle" x="675" y="-133" font-family="Helvetica,sans-Serif" font-size="10.00"> Proton</text>
</g>
<!-- Node17 -->
<g id="node33" class="node"><title>Node17</title>
<polygon fill="white" stroke="#bfbfbf" points="488.5,-52.5 488.5,-99.5 613.5,-99.5 613.5,-52.5 488.5,-52.5"/>
<text text-anchor="start" x="496.5" y="-86.5" font-family="Helvetica,sans-Serif" font-size="10.00">std::unique_ptr&lt; ant</text>
<text text-anchor="start" x="496.5" y="-73.5" font-family="Helvetica,sans-Serif" font-size="10.00">::analysis::utils::KinFitter</text>
<text text-anchor="middle" x="551" y="-60.5" font-family="Helvetica,sans-Serif" font-size="10.00">::PhotonBeamVector &gt;</text>
</g>
<!-- Node17&#45;&gt;Node12 -->
<g id="edge34" class="edge"><title>Node17&#45;&gt;Node12</title>
<path fill="none" stroke="#9a32cd" stroke-dasharray="5,2" d="M623.535,-92.1526C661.57,-100.623 707.118,-110.766 740.788,-118.264"/>
<polygon fill="#9a32cd" stroke="#9a32cd" points="624.053,-88.6825 613.532,-89.9251 622.532,-95.5152 624.053,-88.6825"/>
<text text-anchor="middle" x="675" y="-115" font-family="Helvetica,sans-Serif" font-size="10.00"> Beam</text>
</g>
<!-- Node18&#45;&gt;Node17 -->
<g id="edge36" class="edge"><title>Node18&#45;&gt;Node17</title>
<path fill="none" stroke="#9a32cd" stroke-dasharray="5,2" d="M418.571,-106.655C441.79,-101.28 466.598,-95.5374 488.392,-90.4925"/>
<polygon fill="#9a32cd" stroke="#9a32cd" points="417.684,-103.268 408.731,-108.933 419.263,-110.087 417.684,-103.268"/>
<text text-anchor="middle" x="444" y="-108" font-family="Helvetica,sans-Serif" font-size="10.00"> ptr</text>
</g>
<!-- Node19 -->
<g id="node40" class="node"><title>Node19</title>
<a xlink:title="STL class. ">
<polygon fill="white" stroke="#bfbfbf" points="745.5,-389.5 745.5,-410.5 832.5,-410.5 832.5,-389.5 745.5,-389.5"/>
<text text-anchor="middle" x="789" y="-397.5" font-family="Helvetica,sans-Serif" font-size="10.00">std::vector&lt; T &gt;</text>
</a>
</g>
<!-- Node19&#45;&gt;Node6 -->
<g id="edge44" class="edge"><title>Node19&#45;&gt;Node6</title>
<path fill="none" stroke="#9a32cd" stroke-dasharray="5,2" d="M842.417,-389.738C871.167,-384.214 906.61,-377.405 935.779,-371.801"/>
<polygon fill="#9a32cd" stroke="#9a32cd" points="841.709,-386.31 832.549,-391.634 843.029,-393.184 841.709,-386.31"/>
<text text-anchor="middle" x="894" y="-387" font-family="Helvetica,sans-Serif" font-size="10.00"> IM_perms</text>
</g>
<!-- Node20 -->
<g id="node42" class="node"><title>Node20</title>
<polygon fill="white" stroke="#bfbfbf" points="536.5,-389.5 536.5,-410.5 565.5,-410.5 565.5,-389.5 536.5,-389.5"/>
<text text-anchor="middle" x="551" y="-397.5" font-family="Helvetica,sans-Serif" font-size="10.00">T</text>
</g>
<!-- Node20&#45;&gt;Node19 -->
<g id="edge46" class="edge"><title>Node20&#45;&gt;Node19</title>
<path fill="none" stroke="#9a32cd" stroke-dasharray="5,2" d="M575.723,-400C615.789,-400 695.43,-400 745.244,-400"/>
<polygon fill="#9a32cd" stroke="#9a32cd" points="575.53,-396.5 565.53,-400 575.53,-403.5 575.53,-396.5"/>
<text text-anchor="middle" x="675" y="-404" font-family="Helvetica,sans-Serif" font-size="10.00"> elements</text>
</g>
</g>
</svg>
