<?xml version="1.0" encoding="UTF-8" standalone="no"?>
<!DOCTYPE svg PUBLIC "-//W3C//DTD SVG 1.1//EN"
 "http://www.w3.org/Graphics/SVG/1.1/DTD/svg11.dtd">
<!-- Generated by graphviz version 2.26.3 (20100126.1600)
 -->
<!-- Title: src/analysis/utils/combinatorics.h Pages: 1 -->
<svg width="160pt" height="160pt"
 viewBox="0.00 0.00 160.00 160.00" xmlns="http://www.w3.org/2000/svg" xmlns:xlink="http://www.w3.org/1999/xlink">
<g id="graph1" class="graph" transform="scale(1 1) rotate(0) translate(4 156)">
<title>src/analysis/utils/combinatorics.h</title>
<polygon fill="white" stroke="white" points="-4,5 -4,-156 157,-156 157,5 -4,5"/>
<!-- Node1 -->
<g id="node1" class="node"><title>Node1</title>
<polygon fill="#bfbfbf" stroke="black" points="10,-117 10,-151 100,-151 100,-117 10,-117"/>
<text text-anchor="start" x="18" y="-138" font-family="Helvetica,sans-Serif" font-size="10.00">src/analysis/utils</text>
<text text-anchor="middle" x="55" y="-125" font-family="Helvetica,sans-Serif" font-size="10.00">/combinatorics.h</text>
</g>
<!-- Node2 -->
<g id="node3" class="node"><title>Node2</title>
<a xlink:href="vector_8h.html" target="_top" xlink:title="base/std_ext/vector.h">
<polygon fill="white" stroke="black" points="41.5,-58.5 41.5,-79.5 152.5,-79.5 152.5,-58.5 41.5,-58.5"/>
<text text-anchor="middle" x="97" y="-66.5" font-family="Helvetica,sans-Serif" font-size="10.00">base/std_ext/vector.h</text>
</a>
</g>
<!-- Node1&#45;&gt;Node2 -->
<g id="edge2" class="edge"><title>Node1&#45;&gt;Node2</title>
<path fill="none" stroke="midnightblue" d="M66.035,-116.922C71.7222,-108.12 78.6789,-97.3541 84.5567,-88.2575"/>
<polygon fill="midnightblue" stroke="midnightblue" points="87.5004,-90.1508 89.9879,-79.8521 81.621,-86.3518 87.5004,-90.1508"/>
</g>
<!-- Node3 -->
<g id="node5" class="node"><title>Node3</title>
<polygon fill="white" stroke="#bfbfbf" points="0,-0.5 0,-21.5 44,-21.5 44,-0.5 0,-0.5"/>
<text text-anchor="middle" x="22" y="-8.5" font-family="Helvetica,sans-Serif" font-size="10.00">vector</text>
</g>
<!-- Node1&#45;&gt;Node3 -->
<g id="edge8" class="edge"><title>Node1&#45;&gt;Node3</title>
<path fill="none" stroke="midnightblue" d="M46.8317,-116.844C42.1596,-106.402 36.5417,-92.6746 33,-80 28.5693,-64.1441 25.7449,-45.7071 24.0688,-31.8822"/>
<polygon fill="midnightblue" stroke="midnightblue" points="27.545,-31.4734 22.9621,-21.9211 20.5878,-32.2465 27.545,-31.4734"/>
</g>
<!-- Node2&#45;&gt;Node3 -->
<g id="edge4" class="edge"><title>Node2&#45;&gt;Node3</title>
<path fill="none" stroke="midnightblue" d="M83.2438,-58.3619C72.2488,-49.859 56.6274,-37.7785 43.9136,-27.9466"/>
<polygon fill="midnightblue" stroke="midnightblue" points="45.7206,-24.9195 35.6689,-21.5707 41.4384,-30.4569 45.7206,-24.9195"/>
</g>
<!-- Node4 -->
<g id="node7" class="node"><title>Node4</title>
<polygon fill="white" stroke="#bfbfbf" points="69,-0.5 69,-21.5 125,-21.5 125,-0.5 69,-0.5"/>
<text text-anchor="middle" x="97" y="-8.5" font-family="Helvetica,sans-Serif" font-size="10.00">algorithm</text>
</g>
<!-- Node2&#45;&gt;Node4 -->
<g id="edge6" class="edge"><title>Node2&#45;&gt;Node4</title>
<path fill="none" stroke="midnightblue" d="M97,-58.3619C97,-50.9219 97,-40.7427 97,-31.7276"/>
<polygon fill="midnightblue" stroke="midnightblue" points="100.5,-31.5706 97,-21.5707 93.5001,-31.5707 100.5,-31.5706"/>
</g>
</g>
</svg>
