<?xml version="1.0" encoding="UTF-8" standalone="no"?>
<!DOCTYPE svg PUBLIC "-//W3C//DTD SVG 1.1//EN"
 "http://www.w3.org/Graphics/SVG/1.1/DTD/svg11.dtd">
<!-- Generated by graphviz version 2.26.3 (20100126.1600)
 -->
<!-- Title: src/root&#45;addons/analysis_codes Pages: 1 -->
<svg width="293pt" height="369pt"
 viewBox="0.00 0.00 293.01 369.00" xmlns="http://www.w3.org/2000/svg" xmlns:xlink="http://www.w3.org/1999/xlink">
<g id="graph1" class="graph" transform="scale(1 1) rotate(0) translate(4 365)">
<title>src/root&#45;addons/analysis_codes</title>
<polygon fill="white" stroke="white" points="-4,5 -4,-365 290.009,-365 290.009,5 -4,5"/>
<g id="graph2" class="cluster"><title>clusterdir_ebac6f698c8ed4b70faacb8ef35cbe0d</title>
<a xlink:href="dir_ebac6f698c8ed4b70faacb8ef35cbe0d.html" target="_top" xlink:title="root&#45;addons">
<polygon fill="#ddddee" stroke="black" points="49.0085,-280 49.0085,-353 149.009,-353 149.009,-280 49.0085,-280"/>
<text text-anchor="middle" x="99.0085" y="-340" font-family="Helvetica,sans-Serif" font-size="10.00">root&#45;addons</text>
</a>
</g>
<!-- dir_10d61e73231c9ac3a444e6ed8c0ef6ad -->
<g id="node2" class="node"><title>dir_10d61e73231c9ac3a444e6ed8c0ef6ad</title>
<a xlink:href="dir_10d61e73231c9ac3a444e6ed8c0ef6ad.html" target="_top" xlink:title="analysis_codes">
<polygon fill="#eeeeff" stroke="black" points="141.009,-324 57.0085,-324 57.0085,-288 141.009,-288 141.009,-324"/>
<text text-anchor="middle" x="99.0085" y="-303.5" font-family="Helvetica,sans-Serif" font-size="10.00">analysis_codes</text>
</a>
</g>
<!-- dir_0af1587c8378955de40f48b4bd1869f0 -->
<g id="node3" class="node"><title>dir_0af1587c8378955de40f48b4bd1869f0</title>
<a xlink:href="dir_0af1587c8378955de40f48b4bd1869f0.html" target="_top" xlink:title="base">
<polygon fill="white" stroke="red" points="126.009,-36 72.0085,-36 72.0085,-1.77636e-14 126.009,-3.55271e-15 126.009,-36"/>
<text text-anchor="middle" x="99.0085" y="-15.5" font-family="Helvetica,sans-Serif" font-size="10.00">base</text>
</a>
</g>
<!-- dir_10d61e73231c9ac3a444e6ed8c0ef6ad&#45;&gt;dir_0af1587c8378955de40f48b4bd1869f0 -->
<g id="edge3" class="edge"><title>dir_10d61e73231c9ac3a444e6ed8c0ef6ad&#45;&gt;dir_0af1587c8378955de40f48b4bd1869f0</title>
<path fill="none" stroke="black" d="M79.0536,-287.847C55.8343,-265.236 18.7922,-224.164 4.0085,-180 -13.5255,-127.619 33.7547,-73.6183 67.7418,-43.0825"/>
<polygon fill="black" stroke="black" points="70.389,-45.4175 75.6194,-36.2037 65.7848,-40.1448 70.389,-45.4175"/>
<a xlink:href="dir_000015_000027.html" target="_top" xlink:title="17">
<text text-anchor="middle" x="69.5488" y="-47.4205" font-family="Helvetica,sans-Serif" font-size="10.00">17</text>
</a>
</g>
<!-- dir_c44c95bf3b41c3321c6014770d618ac8 -->
<g id="node4" class="node"><title>dir_c44c95bf3b41c3321c6014770d618ac8</title>
<a xlink:href="dir_c44c95bf3b41c3321c6014770d618ac8.html" target="_top" xlink:title="tree">
<polygon fill="none" stroke="black" points="126.009,-108 72.0085,-108 72.0085,-72 126.009,-72 126.009,-108"/>
<text text-anchor="middle" x="99.0085" y="-87.5" font-family="Helvetica,sans-Serif" font-size="10.00">tree</text>
</a>
</g>
<!-- dir_10d61e73231c9ac3a444e6ed8c0ef6ad&#45;&gt;dir_c44c95bf3b41c3321c6014770d618ac8 -->
<g id="edge5" class="edge"><title>dir_10d61e73231c9ac3a444e6ed8c0ef6ad&#45;&gt;dir_c44c95bf3b41c3321c6014770d618ac8</title>
<path fill="none" stroke="black" d="M99.0085,-287.955C99.0085,-250.394 99.0085,-163.554 99.0085,-118.41"/>
<polygon fill="black" stroke="black" points="102.509,-118.145 99.0085,-108.145 95.5086,-118.145 102.509,-118.145"/>
<a xlink:href="dir_000015_000041.html" target="_top" xlink:title="2">
<text text-anchor="middle" x="105.348" y="-119.24" font-family="Helvetica,sans-Serif" font-size="10.00">2</text>
</a>
</g>
<!-- dir_c4f4646ab0f4a2967be5b6215a500c22 -->
<g id="node5" class="node"><title>dir_c4f4646ab0f4a2967be5b6215a500c22</title>
<a xlink:href="dir_c4f4646ab0f4a2967be5b6215a500c22.html" target="_top" xlink:title="expconfig">
<polygon fill="white" stroke="red" points="71.0085,-180 13.0085,-180 13.0085,-144 71.0085,-144 71.0085,-180"/>
<text text-anchor="middle" x="42.0085" y="-159.5" font-family="Helvetica,sans-Serif" font-size="10.00">expconfig</text>
</a>
</g>
<!-- dir_10d61e73231c9ac3a444e6ed8c0ef6ad&#45;&gt;dir_c4f4646ab0f4a2967be5b6215a500c22 -->
<g id="edge7" class="edge"><title>dir_10d61e73231c9ac3a444e6ed8c0ef6ad&#45;&gt;dir_c4f4646ab0f4a2967be5b6215a500c22</title>
<path fill="none" stroke="black" d="M91.7894,-287.762C81.9816,-262.985 64.3618,-218.471 52.9311,-189.594"/>
<polygon fill="black" stroke="black" points="56.1038,-188.099 49.169,-180.09 49.5952,-190.676 56.1038,-188.099"/>
<a xlink:href="dir_000015_000034.html" target="_top" xlink:title="4">
<text text-anchor="middle" x="60.0667" y="-187.897" font-family="Helvetica,sans-Serif" font-size="10.00">4</text>
</a>
</g>
<!-- dir_e7a58db5f0cefd26704296bdd4a65e45 -->
<g id="node6" class="node"><title>dir_e7a58db5f0cefd26704296bdd4a65e45</title>
<a xlink:href="dir_e7a58db5f0cefd26704296bdd4a65e45.html" target="_top" xlink:title="cbtaps_display">
<polygon fill="none" stroke="black" points="285.009,-180 203.009,-180 203.009,-144 285.009,-144 285.009,-180"/>
<text text-anchor="middle" x="244.009" y="-159.5" font-family="Helvetica,sans-Serif" font-size="10.00">cbtaps_display</text>
</a>
</g>
<!-- dir_10d61e73231c9ac3a444e6ed8c0ef6ad&#45;&gt;dir_e7a58db5f0cefd26704296bdd4a65e45 -->
<g id="edge9" class="edge"><title>dir_10d61e73231c9ac3a444e6ed8c0ef6ad&#45;&gt;dir_e7a58db5f0cefd26704296bdd4a65e45</title>
<path fill="none" stroke="black" d="M138.696,-287.983C155.839,-278.88 175.294,-266.643 190.009,-252 208.129,-233.967 222.607,-208.669 231.992,-189.484"/>
<polygon fill="black" stroke="black" points="235.201,-190.886 236.306,-180.349 228.871,-187.897 235.201,-190.886"/>
<a xlink:href="dir_000015_000040.html" target="_top" xlink:title="5">
<text text-anchor="middle" x="236.233" y="-192.849" font-family="Helvetica,sans-Serif" font-size="10.00">5</text>
</a>
</g>
<!-- dir_2eec376824a17f48dc36b4bd0c810e01 -->
<g id="node7" class="node"><title>dir_2eec376824a17f48dc36b4bd0c810e01</title>
<a xlink:href="dir_2eec376824a17f48dc36b4bd0c810e01.html" target="_top" xlink:title="analysis">
<polygon fill="white" stroke="red" points="181.009,-252 127.009,-252 127.009,-216 181.009,-216 181.009,-252"/>
<text text-anchor="middle" x="154.009" y="-231.5" font-family="Helvetica,sans-Serif" font-size="10.00">analysis</text>
</a>
</g>
<!-- dir_10d61e73231c9ac3a444e6ed8c0ef6ad&#45;&gt;dir_2eec376824a17f48dc36b4bd0c810e01 -->
<g id="edge11" class="edge"><title>dir_10d61e73231c9ac3a444e6ed8c0ef6ad&#45;&gt;dir_2eec376824a17f48dc36b4bd0c810e01</title>
<path fill="none" stroke="black" d="M112.887,-287.831C119.222,-279.539 126.847,-269.557 133.801,-260.453"/>
<polygon fill="black" stroke="black" points="136.654,-262.485 139.943,-252.413 131.091,-258.235 136.654,-262.485"/>
<a xlink:href="dir_000015_000002.html" target="_top" xlink:title="10">
<text text-anchor="middle" x="136.728" y="-264.565" font-family="Helvetica,sans-Serif" font-size="10.00">10</text>
</a>
</g>
<!-- dir_c44c95bf3b41c3321c6014770d618ac8&#45;&gt;dir_0af1587c8378955de40f48b4bd1869f0 -->
<g id="edge13" class="edge"><title>dir_c44c95bf3b41c3321c6014770d618ac8&#45;&gt;dir_0af1587c8378955de40f48b4bd1869f0</title>
<path fill="none" stroke="black" d="M99.0085,-71.8314C99.0085,-64.131 99.0085,-54.9743 99.0085,-46.4166"/>
<polygon fill="black" stroke="black" points="102.509,-46.4132 99.0085,-36.4133 95.5086,-46.4133 102.509,-46.4132"/>
<a xlink:href="dir_000041_000027.html" target="_top" xlink:title="33">
<text text-anchor="middle" x="105.348" y="-47.5079" font-family="Helvetica,sans-Serif" font-size="10.00">33</text>
</a>
</g>
<!-- dir_c4f4646ab0f4a2967be5b6215a500c22&#45;&gt;dir_0af1587c8378955de40f48b4bd1869f0 -->
<g id="edge15" class="edge"><title>dir_c4f4646ab0f4a2967be5b6215a500c22&#45;&gt;dir_0af1587c8378955de40f48b4bd1869f0</title>
<path fill="none" stroke="black" d="M44.2975,-143.81C47.0846,-125.191 52.7444,-95.7053 63.0085,-72 67.1287,-62.4842 72.9391,-52.8314 78.6919,-44.3698"/>
<polygon fill="black" stroke="black" points="81.6689,-46.2222 84.5929,-36.0389 75.9566,-42.1761 81.6689,-46.2222"/>
<a xlink:href="dir_000034_000027.html" target="_top" xlink:title="22">
<text text-anchor="middle" x="81.9081" y="-48.2967" font-family="Helvetica,sans-Serif" font-size="10.00">22</text>
</a>
</g>
<!-- dir_c4f4646ab0f4a2967be5b6215a500c22&#45;&gt;dir_c44c95bf3b41c3321c6014770d618ac8 -->
<g id="edge17" class="edge"><title>dir_c4f4646ab0f4a2967be5b6215a500c22&#45;&gt;dir_c44c95bf3b41c3321c6014770d618ac8</title>
<path fill="none" stroke="black" d="M56.392,-143.831C62.9571,-135.539 70.8592,-125.557 78.0663,-116.453"/>
<polygon fill="black" stroke="black" points="80.9684,-118.426 84.4313,-108.413 75.4801,-114.081 80.9684,-118.426"/>
<a xlink:href="dir_000034_000041.html" target="_top" xlink:title="8">
<text text-anchor="middle" x="80.9634" y="-120.507" font-family="Helvetica,sans-Serif" font-size="10.00">8</text>
</a>
</g>
<!-- dir_e7a58db5f0cefd26704296bdd4a65e45&#45;&gt;dir_0af1587c8378955de40f48b4bd1869f0 -->
<g id="edge19" class="edge"><title>dir_e7a58db5f0cefd26704296bdd4a65e45&#45;&gt;dir_0af1587c8378955de40f48b4bd1869f0</title>
<path fill="none" stroke="black" d="M236.065,-143.678C226.905,-124.137 210.33,-93.1487 189.009,-72 173.618,-56.7337 153.095,-43.9943 135.534,-34.7303"/>
<polygon fill="black" stroke="black" points="136.633,-31.3629 126.134,-29.9472 133.459,-37.6017 136.633,-31.3629"/>
<a xlink:href="dir_000040_000027.html" target="_top" xlink:title="3">
<text text-anchor="middle" x="141.125" y="-27.9626" font-family="Helvetica,sans-Serif" font-size="10.00">3</text>
</a>
</g>
<!-- dir_2eec376824a17f48dc36b4bd0c810e01&#45;&gt;dir_0af1587c8378955de40f48b4bd1869f0 -->
<g id="edge21" class="edge"><title>dir_2eec376824a17f48dc36b4bd0c810e01&#45;&gt;dir_0af1587c8378955de40f48b4bd1869f0</title>
<path fill="none" stroke="black" d="M154.595,-215.869C154.999,-185.232 153.285,-121.7 135.009,-72 131.487,-62.4246 125.953,-52.8673 120.271,-44.5132"/>
<polygon fill="black" stroke="black" points="123.047,-42.3778 114.374,-36.2925 117.359,-46.4581 123.047,-42.3778"/>
<a xlink:href="dir_000002_000027.html" target="_top" xlink:title="118">
<text text-anchor="middle" x="127.449" y="-41.1436" font-family="Helvetica,sans-Serif" font-size="10.00">118</text>
</a>
</g>
<!-- dir_2eec376824a17f48dc36b4bd0c810e01&#45;&gt;dir_c44c95bf3b41c3321c6014770d618ac8 -->
<g id="edge23" class="edge"><title>dir_2eec376824a17f48dc36b4bd0c810e01&#45;&gt;dir_c44c95bf3b41c3321c6014770d618ac8</title>
<path fill="none" stroke="black" d="M147.043,-215.762C137.579,-190.985 120.577,-146.471 109.548,-117.594"/>
<polygon fill="black" stroke="black" points="112.755,-116.183 105.918,-108.09 106.216,-118.68 112.755,-116.183"/>
<a xlink:href="dir_000002_000041.html" target="_top" xlink:title="24">
<text text-anchor="middle" x="116.69" y="-116.028" font-family="Helvetica,sans-Serif" font-size="10.00">24</text>
</a>
</g>
<!-- dir_2eec376824a17f48dc36b4bd0c810e01&#45;&gt;dir_c4f4646ab0f4a2967be5b6215a500c22 -->
<g id="edge25" class="edge"><title>dir_2eec376824a17f48dc36b4bd0c810e01&#45;&gt;dir_c4f4646ab0f4a2967be5b6215a500c22</title>
<path fill="none" stroke="black" d="M126.896,-216.571C112.366,-207.23 94.2634,-195.592 78.5118,-185.466"/>
<polygon fill="black" stroke="black" points="80.345,-182.484 70.0405,-180.021 76.5597,-188.372 80.345,-182.484"/>
<a xlink:href="dir_000002_000034.html" target="_top" xlink:title="30">
<text text-anchor="middle" x="84.904" y="-179.54" font-family="Helvetica,sans-Serif" font-size="10.00">30</text>
</a>
</g>
<!-- dir_2eec376824a17f48dc36b4bd0c810e01&#45;&gt;dir_e7a58db5f0cefd26704296bdd4a65e45 -->
<g id="edge27" class="edge"><title>dir_2eec376824a17f48dc36b4bd0c810e01&#45;&gt;dir_e7a58db5f0cefd26704296bdd4a65e45</title>
<path fill="none" stroke="black" d="M176.719,-215.831C187.804,-206.963 201.304,-196.164 213.294,-186.572"/>
<polygon fill="black" stroke="black" points="215.683,-189.143 221.305,-180.163 211.31,-183.677 215.683,-189.143"/>
<a xlink:href="dir_000002_000040.html" target="_top" xlink:title="9">
<text text-anchor="middle" x="214.649" y="-191.105" font-family="Helvetica,sans-Serif" font-size="10.00">9</text>
</a>
</g>
</g>
</svg>
