<?xml version="1.0" encoding="UTF-8" standalone="no"?>
<!DOCTYPE svg PUBLIC "-//W3C//DTD SVG 1.1//EN"
 "http://www.w3.org/Graphics/SVG/1.1/DTD/svg11.dtd">
<!-- Generated by graphviz version 2.26.3 (20100126.1600)
 -->
<!-- Title: src/analysis/slowcontrol Pages: 1 -->
<svg width="246pt" height="521pt"
 viewBox="0.00 0.00 246.00 521.00" xmlns="http://www.w3.org/2000/svg" xmlns:xlink="http://www.w3.org/1999/xlink">
<g id="graph1" class="graph" transform="scale(1 1) rotate(0) translate(4 517)">
<title>src/analysis/slowcontrol</title>
<polygon fill="white" stroke="white" points="-4,5 -4,-517 243,-517 243,5 -4,5"/>
<g id="graph2" class="cluster"><title>clusterdir_2eec376824a17f48dc36b4bd0c810e01</title>
<a xlink:href="dir_2eec376824a17f48dc36b4bd0c810e01.html" target="_top" xlink:title="analysis">
<polygon fill="#ddddee" stroke="black" points="54,-272 54,-505 162,-505 162,-272 54,-272"/>
<text text-anchor="middle" x="108" y="-492" font-family="Helvetica,sans-Serif" font-size="10.00">analysis</text>
</a>
</g>
<g id="graph3" class="cluster"><title>clusterdir_f7cc278301683119f8719a92f4ffdd26</title>
<a xlink:href="dir_f7cc278301683119f8719a92f4ffdd26.html" target="_top">
<polygon fill="#eeeeff" stroke="black" points="62,-280 62,-476 154,-476 154,-280 62,-280"/>
</a>
</g>
<!-- dir_f7cc278301683119f8719a92f4ffdd26 -->
<g id="node3" class="node"><title>dir_f7cc278301683119f8719a92f4ffdd26</title>
<text text-anchor="middle" x="103" y="-447.5" font-family="Helvetica,sans-Serif" font-size="10.00">slowcontrol</text>
</g>
<!-- dir_4454ae6065d7630381486b11e7157943 -->
<g id="node4" class="node"><title>dir_4454ae6065d7630381486b11e7157943</title>
<a xlink:href="dir_4454ae6065d7630381486b11e7157943.html" target="_top" xlink:title="processors">
<polygon fill="white" stroke="black" points="146,-324 82,-324 82,-288 146,-288 146,-324"/>
<text text-anchor="middle" x="114" y="-303.5" font-family="Helvetica,sans-Serif" font-size="10.00">processors</text>
</a>
</g>
<!-- dir_f7cc278301683119f8719a92f4ffdd26&#45;&gt;dir_4454ae6065d7630381486b11e7157943 -->
<g id="edge28" class="edge"><title>dir_f7cc278301683119f8719a92f4ffdd26&#45;&gt;dir_4454ae6065d7630381486b11e7157943</title>
<path fill="none" stroke="black" d="M93.0983,-431.975C84.3658,-413.737 74.0294,-384.774 81,-360 83.6661,-350.524 88.5081,-341.067 93.6762,-332.776"/>
<polygon fill="black" stroke="black" points="96.6966,-334.555 99.3248,-324.291 90.8697,-330.676 96.6966,-334.555"/>
<a xlink:href="dir_000023_000024.html" target="_top" xlink:title="3">
<text text-anchor="middle" x="97.068" y="-336.62" font-family="Helvetica,sans-Serif" font-size="10.00">3</text>
</a>
</g>
<!-- dir_97d7ae7e922b766f0c3724741ecf7645 -->
<g id="node5" class="node"><title>dir_97d7ae7e922b766f0c3724741ecf7645</title>
<a xlink:href="dir_97d7ae7e922b766f0c3724741ecf7645.html" target="_top" xlink:title="variables">
<polygon fill="white" stroke="black" points="146,-396 90,-396 90,-360 146,-360 146,-396"/>
<text text-anchor="middle" x="118" y="-375.5" font-family="Helvetica,sans-Serif" font-size="10.00">variables</text>
</a>
</g>
<!-- dir_f7cc278301683119f8719a92f4ffdd26&#45;&gt;dir_97d7ae7e922b766f0c3724741ecf7645 -->
<g id="edge32" class="edge"><title>dir_f7cc278301683119f8719a92f4ffdd26&#45;&gt;dir_97d7ae7e922b766f0c3724741ecf7645</title>
<path fill="none" stroke="black" d="M106.785,-431.831C108.389,-424.131 110.297,-414.974 112.08,-406.417"/>
<polygon fill="black" stroke="black" points="115.551,-406.917 114.164,-396.413 108.698,-405.489 115.551,-406.917"/>
<a xlink:href="dir_000023_000025.html" target="_top" xlink:title="2">
<text text-anchor="middle" x="117.597" y="-408.515" font-family="Helvetica,sans-Serif" font-size="10.00">2</text>
</a>
</g>
<!-- dir_0af1587c8378955de40f48b4bd1869f0 -->
<g id="node7" class="node"><title>dir_0af1587c8378955de40f48b4bd1869f0</title>
<a xlink:href="dir_0af1587c8378955de40f48b4bd1869f0.html" target="_top" xlink:title="base">
<polygon fill="white" stroke="red" points="133,-36 79,-36 79,-1.77636e-14 133,-3.55271e-15 133,-36"/>
<text text-anchor="middle" x="106" y="-15.5" font-family="Helvetica,sans-Serif" font-size="10.00">base</text>
</a>
</g>
<!-- dir_f7cc278301683119f8719a92f4ffdd26&#45;&gt;dir_0af1587c8378955de40f48b4bd1869f0 -->
<g id="edge30" class="edge"><title>dir_f7cc278301683119f8719a92f4ffdd26&#45;&gt;dir_0af1587c8378955de40f48b4bd1869f0</title>
<path fill="none" stroke="black" d="M78.3289,-431.817C47.8573,-407.058 0,-359.636 0,-306 0,-306 0,-306 0,-162 0,-112.274 41.5023,-68.3969 72.5689,-42.5185"/>
<polygon fill="black" stroke="black" points="75.032,-45.0282 80.6104,-36.0208 70.6325,-39.5835 75.032,-45.0282"/>
<a xlink:href="dir_000023_000027.html" target="_top" xlink:title="2">
<text text-anchor="middle" x="74.0205" y="-46.9957" font-family="Helvetica,sans-Serif" font-size="10.00">2</text>
</a>
</g>
<!-- dir_a21a804d6482c442bcd1b39e4dfcc179 -->
<g id="node6" class="node"><title>dir_a21a804d6482c442bcd1b39e4dfcc179</title>
<a xlink:href="dir_a21a804d6482c442bcd1b39e4dfcc179.html" target="_top" xlink:title="physics">
<polygon fill="white" stroke="red" points="158,-252 104,-252 104,-216 158,-216 158,-252"/>
<text text-anchor="middle" x="131" y="-231.5" font-family="Helvetica,sans-Serif" font-size="10.00">physics</text>
</a>
</g>
<!-- dir_4454ae6065d7630381486b11e7157943&#45;&gt;dir_a21a804d6482c442bcd1b39e4dfcc179 -->
<g id="edge10" class="edge"><title>dir_4454ae6065d7630381486b11e7157943&#45;&gt;dir_a21a804d6482c442bcd1b39e4dfcc179</title>
<path fill="none" stroke="black" d="M118.29,-287.831C120.108,-280.131 122.27,-270.974 124.291,-262.417"/>
<polygon fill="black" stroke="black" points="127.761,-262.95 126.652,-252.413 120.948,-261.341 127.761,-262.95"/>
<a xlink:href="dir_000024_000009.html" target="_top" xlink:title="1">
<text text-anchor="middle" x="129.698" y="-264.601" font-family="Helvetica,sans-Serif" font-size="10.00">1</text>
</a>
</g>
<!-- dir_c44c95bf3b41c3321c6014770d618ac8 -->
<g id="node8" class="node"><title>dir_c44c95bf3b41c3321c6014770d618ac8</title>
<a xlink:href="dir_c44c95bf3b41c3321c6014770d618ac8.html" target="_top" xlink:title="tree">
<polygon fill="none" stroke="black" points="188,-108 134,-108 134,-72 188,-72 188,-108"/>
<text text-anchor="middle" x="161" y="-87.5" font-family="Helvetica,sans-Serif" font-size="10.00">tree</text>
</a>
</g>
<!-- dir_4454ae6065d7630381486b11e7157943&#45;&gt;dir_c44c95bf3b41c3321c6014770d618ac8 -->
<g id="edge12" class="edge"><title>dir_4454ae6065d7630381486b11e7157943&#45;&gt;dir_c44c95bf3b41c3321c6014770d618ac8</title>
<path fill="none" stroke="black" d="M105.413,-287.991C97.8433,-269.765 88.8953,-240.811 95,-216 104.091,-179.053 126.147,-140.938 142.268,-116.444"/>
<polygon fill="black" stroke="black" points="145.228,-118.315 147.904,-108.064 139.419,-114.409 145.228,-118.315"/>
<a xlink:href="dir_000024_000041.html" target="_top" xlink:title="2">
<text text-anchor="middle" x="145.578" y="-120.382" font-family="Helvetica,sans-Serif" font-size="10.00">2</text>
</a>
</g>
<!-- dir_c4f4646ab0f4a2967be5b6215a500c22 -->
<g id="node9" class="node"><title>dir_c4f4646ab0f4a2967be5b6215a500c22</title>
<a xlink:href="dir_c4f4646ab0f4a2967be5b6215a500c22.html" target="_top" xlink:title="expconfig">
<polygon fill="white" stroke="red" points="238,-180 180,-180 180,-144 238,-144 238,-180"/>
<text text-anchor="middle" x="209" y="-159.5" font-family="Helvetica,sans-Serif" font-size="10.00">expconfig</text>
</a>
</g>
<!-- dir_4454ae6065d7630381486b11e7157943&#45;&gt;dir_c4f4646ab0f4a2967be5b6215a500c22 -->
<g id="edge14" class="edge"><title>dir_4454ae6065d7630381486b11e7157943&#45;&gt;dir_c4f4646ab0f4a2967be5b6215a500c22</title>
<path fill="none" stroke="black" d="M133.008,-287.971C145.959,-275.44 161.685,-259.664 167,-252 180.493,-232.543 191.595,-208.064 198.989,-189.549"/>
<polygon fill="black" stroke="black" points="202.259,-190.797 202.609,-180.208 195.732,-188.267 202.259,-190.797"/>
<a xlink:href="dir_000024_000034.html" target="_top" xlink:title="2">
<text text-anchor="middle" x="203.608" y="-192.674" font-family="Helvetica,sans-Serif" font-size="10.00">2</text>
</a>
</g>
<!-- dir_97d7ae7e922b766f0c3724741ecf7645&#45;&gt;dir_4454ae6065d7630381486b11e7157943 -->
<g id="edge22" class="edge"><title>dir_97d7ae7e922b766f0c3724741ecf7645&#45;&gt;dir_4454ae6065d7630381486b11e7157943</title>
<path fill="none" stroke="black" d="M116.991,-359.831C116.563,-352.131 116.054,-342.974 115.579,-334.417"/>
<polygon fill="black" stroke="black" points="119.072,-334.204 115.023,-324.413 112.083,-334.592 119.072,-334.204"/>
<a xlink:href="dir_000025_000024.html" target="_top" xlink:title="1">
<text text-anchor="middle" x="122.107" y="-335.135" font-family="Helvetica,sans-Serif" font-size="10.00">1</text>
</a>
</g>
<!-- dir_97d7ae7e922b766f0c3724741ecf7645&#45;&gt;dir_0af1587c8378955de40f48b4bd1869f0 -->
<g id="edge24" class="edge"><title>dir_97d7ae7e922b766f0c3724741ecf7645&#45;&gt;dir_0af1587c8378955de40f48b4bd1869f0</title>
<path fill="none" stroke="black" d="M99.8468,-359.786C76.2434,-334.08 38,-284.62 38,-234 38,-234 38,-234 38,-162 38,-117.594 64.7678,-72.2246 84.7146,-44.5811"/>
<polygon fill="black" stroke="black" points="87.7495,-46.3654 90.9086,-36.2525 82.1325,-42.1881 87.7495,-46.3654"/>
<a xlink:href="dir_000025_000027.html" target="_top" xlink:title="1">
<text text-anchor="middle" x="87.8827" y="-48.4441" font-family="Helvetica,sans-Serif" font-size="10.00">1</text>
</a>
</g>
<!-- dir_97d7ae7e922b766f0c3724741ecf7645&#45;&gt;dir_c4f4646ab0f4a2967be5b6215a500c22 -->
<g id="edge26" class="edge"><title>dir_97d7ae7e922b766f0c3724741ecf7645&#45;&gt;dir_c4f4646ab0f4a2967be5b6215a500c22</title>
<path fill="none" stroke="black" d="M131.26,-359.882C138.588,-349.572 147.666,-336.299 155,-324 173.427,-293.099 180.318,-286.029 192,-252 198.873,-231.978 203.195,-208.442 205.761,-190.461"/>
<polygon fill="black" stroke="black" points="209.26,-190.698 207.106,-180.325 202.321,-189.777 209.26,-190.698"/>
<a xlink:href="dir_000025_000034.html" target="_top" xlink:title="1">
<text text-anchor="middle" x="211.602" y="-192.135" font-family="Helvetica,sans-Serif" font-size="10.00">1</text>
</a>
</g>
<!-- dir_a21a804d6482c442bcd1b39e4dfcc179&#45;&gt;dir_0af1587c8378955de40f48b4bd1869f0 -->
<g id="edge4" class="edge"><title>dir_a21a804d6482c442bcd1b39e4dfcc179&#45;&gt;dir_0af1587c8378955de40f48b4bd1869f0</title>
<path fill="none" stroke="black" d="M128.912,-215.955C124.555,-178.314 114.471,-91.1867 109.255,-46.1246"/>
<polygon fill="black" stroke="black" points="112.727,-45.6763 108.1,-36.1451 105.773,-46.4812 112.727,-45.6763"/>
<a xlink:href="dir_000009_000027.html" target="_top" xlink:title="67">
<text text-anchor="middle" x="115.96" y="-46.4207" font-family="Helvetica,sans-Serif" font-size="10.00">67</text>
</a>
</g>
<!-- dir_a21a804d6482c442bcd1b39e4dfcc179&#45;&gt;dir_c44c95bf3b41c3321c6014770d618ac8 -->
<g id="edge6" class="edge"><title>dir_a21a804d6482c442bcd1b39e4dfcc179&#45;&gt;dir_c44c95bf3b41c3321c6014770d618ac8</title>
<path fill="none" stroke="black" d="M134.8,-215.762C139.939,-191.093 149.154,-146.86 155.172,-117.973"/>
<polygon fill="black" stroke="black" points="158.618,-118.593 157.231,-108.09 151.765,-117.166 158.618,-118.593"/>
<a xlink:href="dir_000009_000041.html" target="_top" xlink:title="4">
<text text-anchor="middle" x="160.665" y="-120.191" font-family="Helvetica,sans-Serif" font-size="10.00">4</text>
</a>
</g>
<!-- dir_a21a804d6482c442bcd1b39e4dfcc179&#45;&gt;dir_c4f4646ab0f4a2967be5b6215a500c22 -->
<g id="edge8" class="edge"><title>dir_a21a804d6482c442bcd1b39e4dfcc179&#45;&gt;dir_c4f4646ab0f4a2967be5b6215a500c22</title>
<path fill="none" stroke="black" d="M150.683,-215.831C160.105,-207.134 171.54,-196.578 181.78,-187.127"/>
<polygon fill="black" stroke="black" points="184.35,-189.517 189.324,-180.163 179.602,-184.374 184.35,-189.517"/>
<a xlink:href="dir_000009_000034.html" target="_top" xlink:title="24">
<text text-anchor="middle" x="183.634" y="-191.542" font-family="Helvetica,sans-Serif" font-size="10.00">24</text>
</a>
</g>
<!-- dir_c44c95bf3b41c3321c6014770d618ac8&#45;&gt;dir_0af1587c8378955de40f48b4bd1869f0 -->
<g id="edge16" class="edge"><title>dir_c44c95bf3b41c3321c6014770d618ac8&#45;&gt;dir_0af1587c8378955de40f48b4bd1869f0</title>
<path fill="none" stroke="black" d="M147.121,-71.8314C140.786,-63.5386 133.162,-53.557 126.207,-44.4533"/>
<polygon fill="black" stroke="black" points="128.917,-42.2353 120.066,-36.4133 123.355,-46.4847 128.917,-42.2353"/>
<a xlink:href="dir_000041_000027.html" target="_top" xlink:title="33">
<text text-anchor="middle" x="133.356" y="-40.8683" font-family="Helvetica,sans-Serif" font-size="10.00">33</text>
</a>
</g>
<!-- dir_c4f4646ab0f4a2967be5b6215a500c22&#45;&gt;dir_0af1587c8378955de40f48b4bd1869f0 -->
<g id="edge18" class="edge"><title>dir_c4f4646ab0f4a2967be5b6215a500c22&#45;&gt;dir_0af1587c8378955de40f48b4bd1869f0</title>
<path fill="none" stroke="black" d="M210.986,-143.841C212.168,-124.439 211.252,-93.5687 197,-72 184.264,-52.7255 162.082,-39.3569 142.808,-30.7429"/>
<polygon fill="black" stroke="black" points="143.922,-27.4153 133.347,-26.7786 141.217,-33.8714 143.922,-27.4153"/>
<a xlink:href="dir_000034_000027.html" target="_top" xlink:title="22">
<text text-anchor="middle" x="148.335" y="-23.6858" font-family="Helvetica,sans-Serif" font-size="10.00">22</text>
</a>
</g>
<!-- dir_c4f4646ab0f4a2967be5b6215a500c22&#45;&gt;dir_c44c95bf3b41c3321c6014770d618ac8 -->
<g id="edge20" class="edge"><title>dir_c4f4646ab0f4a2967be5b6215a500c22&#45;&gt;dir_c44c95bf3b41c3321c6014770d618ac8</title>
<path fill="none" stroke="black" d="M196.888,-143.831C191.472,-135.708 184.976,-125.964 179.008,-117.012"/>
<polygon fill="black" stroke="black" points="181.735,-114.792 173.276,-108.413 175.91,-118.675 181.735,-114.792"/>
<a xlink:href="dir_000034_000041.html" target="_top" xlink:title="8">
<text text-anchor="middle" x="186.091" y="-113.708" font-family="Helvetica,sans-Serif" font-size="10.00">8</text>
</a>
</g>
</g>
</svg>
