<?xml version="1.0" encoding="UTF-8" standalone="no"?>
<!DOCTYPE svg PUBLIC "-//W3C//DTD SVG 1.1//EN"
 "http://www.w3.org/Graphics/SVG/1.1/DTD/svg11.dtd">
<!-- Generated by graphviz version 2.26.3 (20100126.1600)
 -->
<!-- Title: src/root&#45;addons Pages: 1 -->
<svg width="317pt" height="326pt"
 viewBox="0.00 0.00 316.63 325.65" xmlns="http://www.w3.org/2000/svg" xmlns:xlink="http://www.w3.org/1999/xlink">
<g id="graph1" class="graph" transform="scale(1 1) rotate(0) translate(4 321.651)">
<title>src/root&#45;addons</title>
<polygon fill="white" stroke="white" points="-4,5 -4,-321.651 313.633,-321.651 313.633,5 -4,5"/>
<g id="graph2" class="cluster"><title>clusterdir_68267d1309a1af8e8297ef4c3efbcdba</title>
<a xlink:href="dir_68267d1309a1af8e8297ef4c3efbcdba.html" target="_top" xlink:title="src">
<polygon fill="#ddddee" stroke="black" points="8,-128 8,-289 210,-289 210,-128 8,-128"/>
<text text-anchor="middle" x="109" y="-276" font-family="Helvetica,sans-Serif" font-size="10.00">src</text>
</a>
</g>
<g id="graph3" class="cluster"><title>clusterdir_ebac6f698c8ed4b70faacb8ef35cbe0d</title>
<a xlink:href="dir_ebac6f698c8ed4b70faacb8ef35cbe0d.html" target="_top">
<polygon fill="#eeeeff" stroke="black" points="16,-136 16,-260 202,-260 202,-136 16,-136"/>
</a>
</g>
<!-- dir_ebac6f698c8ed4b70faacb8ef35cbe0d -->
<g id="node3" class="node"><title>dir_ebac6f698c8ed4b70faacb8ef35cbe0d</title>
<text text-anchor="middle" x="160" y="-231.5" font-family="Helvetica,sans-Serif" font-size="10.00">root&#45;addons</text>
</g>
<!-- dir_10d61e73231c9ac3a444e6ed8c0ef6ad -->
<g id="node4" class="node"><title>dir_10d61e73231c9ac3a444e6ed8c0ef6ad</title>
<a xlink:href="dir_10d61e73231c9ac3a444e6ed8c0ef6ad.html" target="_top" xlink:title="analysis_codes">
<polygon fill="white" stroke="black" points="108,-252 24,-252 24,-216 108,-216 108,-252"/>
<text text-anchor="middle" x="66" y="-231.5" font-family="Helvetica,sans-Serif" font-size="10.00">analysis_codes</text>
</a>
</g>
<!-- dir_e7a58db5f0cefd26704296bdd4a65e45 -->
<g id="node5" class="node"><title>dir_e7a58db5f0cefd26704296bdd4a65e45</title>
<a xlink:href="dir_e7a58db5f0cefd26704296bdd4a65e45.html" target="_top" xlink:title="cbtaps_display">
<polygon fill="white" stroke="black" points="162,-180 80,-180 80,-144 162,-144 162,-180"/>
<text text-anchor="middle" x="121" y="-159.5" font-family="Helvetica,sans-Serif" font-size="10.00">cbtaps_display</text>
</a>
</g>
<!-- dir_10d61e73231c9ac3a444e6ed8c0ef6ad&#45;&gt;dir_e7a58db5f0cefd26704296bdd4a65e45 -->
<g id="edge10" class="edge"><title>dir_10d61e73231c9ac3a444e6ed8c0ef6ad&#45;&gt;dir_e7a58db5f0cefd26704296bdd4a65e45</title>
<path fill="none" stroke="black" d="M79.8788,-215.831C86.2136,-207.539 93.8384,-197.557 100.793,-188.453"/>
<polygon fill="black" stroke="black" points="103.645,-190.485 106.934,-180.413 98.0825,-186.235 103.645,-190.485"/>
<a xlink:href="dir_000015_000040.html" target="_top" xlink:title="5">
<text text-anchor="middle" x="103.719" y="-192.565" font-family="Helvetica,sans-Serif" font-size="10.00">5</text>
</a>
</g>
<!-- dir_0af1587c8378955de40f48b4bd1869f0 -->
<g id="node6" class="node"><title>dir_0af1587c8378955de40f48b4bd1869f0</title>
<a xlink:href="dir_0af1587c8378955de40f48b4bd1869f0.html" target="_top" xlink:title="base">
<polygon fill="white" stroke="red" points="219,-36 165,-36 165,-1.77636e-14 219,-3.55271e-15 219,-36"/>
<text text-anchor="middle" x="192" y="-15.5" font-family="Helvetica,sans-Serif" font-size="10.00">base</text>
</a>
</g>
<!-- dir_10d61e73231c9ac3a444e6ed8c0ef6ad&#45;&gt;dir_0af1587c8378955de40f48b4bd1869f0 -->
<g id="edge4" class="edge"><title>dir_10d61e73231c9ac3a444e6ed8c0ef6ad&#45;&gt;dir_0af1587c8378955de40f48b4bd1869f0</title>
<path fill="none" stroke="black" d="M62.7966,-215.743C59.831,-193.782 57.6581,-156.336 71,-128 89.139,-89.4761 127.557,-58.3351 156.266,-39.1494"/>
<polygon fill="black" stroke="black" points="158.352,-41.9676 164.83,-33.5841 154.538,-36.098 158.352,-41.9676"/>
<a xlink:href="dir_000015_000027.html" target="_top" xlink:title="17">
<text text-anchor="middle" x="156.885" y="-43.807" font-family="Helvetica,sans-Serif" font-size="10.00">17</text>
</a>
</g>
<!-- dir_c44c95bf3b41c3321c6014770d618ac8 -->
<g id="node7" class="node"><title>dir_c44c95bf3b41c3321c6014770d618ac8</title>
<a xlink:href="dir_c44c95bf3b41c3321c6014770d618ac8.html" target="_top" xlink:title="tree">
<polygon fill="none" stroke="black" points="219,-108 165,-108 165,-72 219,-72 219,-108"/>
<text text-anchor="middle" x="192" y="-87.5" font-family="Helvetica,sans-Serif" font-size="10.00">tree</text>
</a>
</g>
<!-- dir_10d61e73231c9ac3a444e6ed8c0ef6ad&#45;&gt;dir_c44c95bf3b41c3321c6014770d618ac8 -->
<g id="edge6" class="edge"><title>dir_10d61e73231c9ac3a444e6ed8c0ef6ad&#45;&gt;dir_c44c95bf3b41c3321c6014770d618ac8</title>
<path fill="none" stroke="black" d="M108.213,-216.649C133.542,-205.437 162.458,-190.95 171,-180 184.74,-162.388 189.746,-137.315 191.454,-118.104"/>
<polygon fill="black" stroke="black" points="194.947,-118.324 192.099,-108.119 187.962,-117.873 194.947,-118.324"/>
<a xlink:href="dir_000015_000041.html" target="_top" xlink:title="2">
<text text-anchor="middle" x="197.549" y="-119.594" font-family="Helvetica,sans-Serif" font-size="10.00">2</text>
</a>
</g>
<!-- dir_c4f4646ab0f4a2967be5b6215a500c22 -->
<g id="node8" class="node"><title>dir_c4f4646ab0f4a2967be5b6215a500c22</title>
<a xlink:href="dir_c4f4646ab0f4a2967be5b6215a500c22.html" target="_top" xlink:title="expconfig">
<polygon fill="white" stroke="red" points="276,-180 218,-180 218,-144 276,-144 276,-180"/>
<text text-anchor="middle" x="247" y="-159.5" font-family="Helvetica,sans-Serif" font-size="10.00">expconfig</text>
</a>
</g>
<!-- dir_10d61e73231c9ac3a444e6ed8c0ef6ad&#45;&gt;dir_c4f4646ab0f4a2967be5b6215a500c22 -->
<g id="edge8" class="edge"><title>dir_10d61e73231c9ac3a444e6ed8c0ef6ad&#45;&gt;dir_c4f4646ab0f4a2967be5b6215a500c22</title>
<path fill="none" stroke="black" d="M108.162,-218.31C136.054,-207.79 173.364,-193.45 206,-180 206.849,-179.65 207.707,-179.294 208.571,-178.934"/>
<polygon fill="black" stroke="black" points="210.118,-182.079 217.953,-174.948 207.38,-175.637 210.118,-182.079"/>
<a xlink:href="dir_000015_000034.html" target="_top" xlink:title="4">
<text text-anchor="middle" x="207.92" y="-183.598" font-family="Helvetica,sans-Serif" font-size="10.00">4</text>
</a>
</g>
<!-- dir_2eec376824a17f48dc36b4bd0c810e01 -->
<g id="node9" class="node"><title>dir_2eec376824a17f48dc36b4bd0c810e01</title>
<a xlink:href="dir_2eec376824a17f48dc36b4bd0c810e01.html" target="_top" xlink:title="analysis">
<polygon fill="white" stroke="red" points="274,-252 220,-252 220,-216 274,-216 274,-252"/>
<text text-anchor="middle" x="247" y="-231.5" font-family="Helvetica,sans-Serif" font-size="10.00">analysis</text>
</a>
</g>
<!-- dir_10d61e73231c9ac3a444e6ed8c0ef6ad&#45;&gt;dir_2eec376824a17f48dc36b4bd0c810e01 -->
<g id="edge12" class="edge"><title>dir_10d61e73231c9ac3a444e6ed8c0ef6ad&#45;&gt;dir_2eec376824a17f48dc36b4bd0c810e01</title>
<path fill="none" stroke="black" d="M74.7897,-252.036C84.5448,-269.752 102.119,-295.716 126,-307 154.531,-320.481 169.085,-321.715 197,-307 215.175,-297.419 228.007,-277.923 236.118,-261.488"/>
<polygon fill="black" stroke="black" points="239.361,-262.811 240.352,-252.262 233,-259.891 239.361,-262.811"/>
<a xlink:href="dir_000015_000002.html" target="_top" xlink:title="10">
<text text-anchor="middle" x="240.442" y="-264.762" font-family="Helvetica,sans-Serif" font-size="10.00">10</text>
</a>
</g>
<!-- dir_e7a58db5f0cefd26704296bdd4a65e45&#45;&gt;dir_0af1587c8378955de40f48b4bd1869f0 -->
<g id="edge20" class="edge"><title>dir_e7a58db5f0cefd26704296bdd4a65e45&#45;&gt;dir_0af1587c8378955de40f48b4bd1869f0</title>
<path fill="none" stroke="black" d="M126.739,-143.911C132.916,-125.371 143.549,-95.9483 156,-72 160.783,-62.7997 166.78,-53.2355 172.5,-44.758"/>
<polygon fill="black" stroke="black" points="175.486,-46.593 178.297,-36.3779 169.729,-42.6105 175.486,-46.593"/>
<a xlink:href="dir_000040_000027.html" target="_top" xlink:title="3">
<text text-anchor="middle" x="175.776" y="-48.6645" font-family="Helvetica,sans-Serif" font-size="10.00">3</text>
</a>
</g>
<!-- dir_c44c95bf3b41c3321c6014770d618ac8&#45;&gt;dir_0af1587c8378955de40f48b4bd1869f0 -->
<g id="edge14" class="edge"><title>dir_c44c95bf3b41c3321c6014770d618ac8&#45;&gt;dir_0af1587c8378955de40f48b4bd1869f0</title>
<path fill="none" stroke="black" d="M192,-71.8314C192,-64.131 192,-54.9743 192,-46.4166"/>
<polygon fill="black" stroke="black" points="195.5,-46.4132 192,-36.4133 188.5,-46.4133 195.5,-46.4132"/>
<a xlink:href="dir_000041_000027.html" target="_top" xlink:title="33">
<text text-anchor="middle" x="198.339" y="-47.5079" font-family="Helvetica,sans-Serif" font-size="10.00">33</text>
</a>
</g>
<!-- dir_c4f4646ab0f4a2967be5b6215a500c22&#45;&gt;dir_0af1587c8378955de40f48b4bd1869f0 -->
<g id="edge16" class="edge"><title>dir_c4f4646ab0f4a2967be5b6215a500c22&#45;&gt;dir_0af1587c8378955de40f48b4bd1869f0</title>
<path fill="none" stroke="black" d="M245.21,-143.808C242.911,-125.188 237.966,-95.7008 228,-72 224.046,-62.5953 218.385,-53.0879 212.719,-44.727"/>
<polygon fill="black" stroke="black" points="215.518,-42.6231 206.885,-36.4815 209.804,-46.6664 215.518,-42.6231"/>
<a xlink:href="dir_000034_000027.html" target="_top" xlink:title="22">
<text text-anchor="middle" x="219.912" y="-41.4175" font-family="Helvetica,sans-Serif" font-size="10.00">22</text>
</a>
</g>
<!-- dir_c4f4646ab0f4a2967be5b6215a500c22&#45;&gt;dir_c44c95bf3b41c3321c6014770d618ac8 -->
<g id="edge18" class="edge"><title>dir_c4f4646ab0f4a2967be5b6215a500c22&#45;&gt;dir_c44c95bf3b41c3321c6014770d618ac8</title>
<path fill="none" stroke="black" d="M233.121,-143.831C226.786,-135.539 219.162,-125.557 212.207,-116.453"/>
<polygon fill="black" stroke="black" points="214.917,-114.235 206.066,-108.413 209.355,-118.485 214.917,-114.235"/>
<a xlink:href="dir_000034_000041.html" target="_top" xlink:title="8">
<text text-anchor="middle" x="219.356" y="-112.868" font-family="Helvetica,sans-Serif" font-size="10.00">8</text>
</a>
</g>
<!-- dir_2eec376824a17f48dc36b4bd0c810e01&#45;&gt;dir_10d61e73231c9ac3a444e6ed8c0ef6ad -->
<g id="edge22" class="edge"><title>dir_2eec376824a17f48dc36b4bd0c810e01&#45;&gt;dir_10d61e73231c9ac3a444e6ed8c0ef6ad</title>
<path fill="none" stroke="black" d="M240.352,-252.262C232.838,-269.888 218.742,-295.539 197,-307 169.085,-321.715 154.531,-320.481 126,-307 105.851,-297.479 90.1908,-277.507 79.9293,-260.857"/>
<polygon fill="black" stroke="black" points="82.8482,-258.914 74.7897,-252.036 76.7999,-262.438 82.8482,-258.914"/>
<a xlink:href="dir_000002_000015.html" target="_top" xlink:title="3">
<text text-anchor="middle" x="87.111" y="-258.091" font-family="Helvetica,sans-Serif" font-size="10.00">3</text>
</a>
</g>
<!-- dir_2eec376824a17f48dc36b4bd0c810e01&#45;&gt;dir_e7a58db5f0cefd26704296bdd4a65e45 -->
<g id="edge30" class="edge"><title>dir_2eec376824a17f48dc36b4bd0c810e01&#45;&gt;dir_e7a58db5f0cefd26704296bdd4a65e45</title>
<path fill="none" stroke="black" d="M219.97,-218.554C202.99,-208.852 180.769,-196.154 161.685,-185.248"/>
<polygon fill="black" stroke="black" points="163.306,-182.144 152.887,-180.221 159.833,-188.221 163.306,-182.144"/>
<a xlink:href="dir_000002_000040.html" target="_top" xlink:title="9">
<text text-anchor="middle" x="167.835" y="-178.962" font-family="Helvetica,sans-Serif" font-size="10.00">9</text>
</a>
</g>
<!-- dir_2eec376824a17f48dc36b4bd0c810e01&#45;&gt;dir_0af1587c8378955de40f48b4bd1869f0 -->
<g id="edge24" class="edge"><title>dir_2eec376824a17f48dc36b4bd0c810e01&#45;&gt;dir_0af1587c8378955de40f48b4bd1869f0</title>
<path fill="none" stroke="black" d="M273.256,-215.815C284.342,-206.529 296.046,-194.19 302,-180 310.942,-158.689 310.65,-149.431 302,-128 287.27,-91.5028 253.665,-60.9126 227.447,-41.331"/>
<polygon fill="black" stroke="black" points="229.377,-38.4071 219.228,-35.3666 225.266,-44.0726 229.377,-38.4071"/>
<a xlink:href="dir_000002_000027.html" target="_top" xlink:title="118">
<text text-anchor="middle" x="233.954" y="-35.7202" font-family="Helvetica,sans-Serif" font-size="10.00">118</text>
</a>
</g>
<!-- dir_2eec376824a17f48dc36b4bd0c810e01&#45;&gt;dir_c44c95bf3b41c3321c6014770d618ac8 -->
<g id="edge26" class="edge"><title>dir_2eec376824a17f48dc36b4bd0c810e01&#45;&gt;dir_c44c95bf3b41c3321c6014770d618ac8</title>
<path fill="none" stroke="black" d="M262.951,-215.881C280.423,-193.724 303.639,-155.751 285,-128 272.521,-109.421 249.186,-99.9195 229.013,-95.0638"/>
<polygon fill="black" stroke="black" points="229.634,-91.6178 219.127,-92.9791 228.19,-98.4672 229.634,-91.6178"/>
<a xlink:href="dir_000002_000041.html" target="_top" xlink:title="24">
<text text-anchor="middle" x="233.737" y="-87.0813" font-family="Helvetica,sans-Serif" font-size="10.00">24</text>
</a>
</g>
<!-- dir_2eec376824a17f48dc36b4bd0c810e01&#45;&gt;dir_c4f4646ab0f4a2967be5b6215a500c22 -->
<g id="edge28" class="edge"><title>dir_2eec376824a17f48dc36b4bd0c810e01&#45;&gt;dir_c4f4646ab0f4a2967be5b6215a500c22</title>
<path fill="none" stroke="black" d="M247,-215.831C247,-208.131 247,-198.974 247,-190.417"/>
<polygon fill="black" stroke="black" points="250.5,-190.413 247,-180.413 243.5,-190.413 250.5,-190.413"/>
<a xlink:href="dir_000002_000034.html" target="_top" xlink:title="30">
<text text-anchor="middle" x="253.339" y="-191.508" font-family="Helvetica,sans-Serif" font-size="10.00">30</text>
</a>
</g>
</g>
</svg>
