<?xml version="1.0" encoding="UTF-8" standalone="no"?>
<!DOCTYPE svg PUBLIC "-//W3C//DTD SVG 1.1//EN"
 "http://www.w3.org/Graphics/SVG/1.1/DTD/svg11.dtd">
<!-- Generated by graphviz version 2.26.3 (20100126.1600)
 -->
<!-- Title: src Pages: 1 -->
<svg width="428pt" height="436pt"
 viewBox="0.00 0.00 428.00 436.00" xmlns="http://www.w3.org/2000/svg" xmlns:xlink="http://www.w3.org/1999/xlink">
<g id="graph1" class="graph" transform="scale(1 1) rotate(0) translate(4 432)">
<title>src</title>
<polygon fill="white" stroke="white" points="-4,5 -4,-432 425,-432 425,5 -4,5"/>
<g id="graph2" class="cluster"><title>clusterdir_68267d1309a1af8e8297ef4c3efbcdba</title>
<a xlink:href="dir_68267d1309a1af8e8297ef4c3efbcdba.html" target="_top">
<polygon fill="#eeeeff" stroke="black" points="8,-8 8,-420 412,-420 412,-8 8,-8"/>
</a>
</g>
<!-- dir_68267d1309a1af8e8297ef4c3efbcdba -->
<g id="node2" class="node"><title>dir_68267d1309a1af8e8297ef4c3efbcdba</title>
<text text-anchor="middle" x="309" y="-391.5" font-family="Helvetica,sans-Serif" font-size="10.00">src</text>
</g>
<!-- dir_2eec376824a17f48dc36b4bd0c810e01 -->
<g id="node3" class="node"><title>dir_2eec376824a17f48dc36b4bd0c810e01</title>
<a xlink:href="dir_2eec376824a17f48dc36b4bd0c810e01.html" target="_top" xlink:title="analysis">
<polygon fill="white" stroke="red" points="167,-412 113,-412 113,-376 167,-376 167,-412"/>
<text text-anchor="middle" x="140" y="-391.5" font-family="Helvetica,sans-Serif" font-size="10.00">analysis</text>
</a>
</g>
<!-- dir_0af1587c8378955de40f48b4bd1869f0 -->
<g id="node4" class="node"><title>dir_0af1587c8378955de40f48b4bd1869f0</title>
<a xlink:href="dir_0af1587c8378955de40f48b4bd1869f0.html" target="_top" xlink:title="base">
<polygon fill="white" stroke="red" points="233,-52 179,-52 179,-16 233,-16 233,-52"/>
<text text-anchor="middle" x="206" y="-31.5" font-family="Helvetica,sans-Serif" font-size="10.00">base</text>
</a>
</g>
<!-- dir_2eec376824a17f48dc36b4bd0c810e01&#45;&gt;dir_0af1587c8378955de40f48b4bd1869f0 -->
<g id="edge51" class="edge"><title>dir_2eec376824a17f48dc36b4bd0c810e01&#45;&gt;dir_0af1587c8378955de40f48b4bd1869f0</title>
<path fill="none" stroke="black" d="M112.702,-378.341C76.4655,-355.281 17,-308.524 17,-250 17,-250 17,-250 17,-178 17,-132.024 33.2574,-118.112 68,-88 96.8689,-62.9789 138.678,-48.8161 168.702,-41.3334"/>
<polygon fill="black" stroke="black" points="169.858,-44.657 178.79,-38.9584 168.254,-37.8432 169.858,-44.657"/>
<a xlink:href="dir_000002_000027.html" target="_top" xlink:title="118">
<text text-anchor="middle" x="167.01" y="-45.7444" font-family="Helvetica,sans-Serif" font-size="10.00">118</text>
</a>
</g>
<!-- dir_c4f4646ab0f4a2967be5b6215a500c22 -->
<g id="node6" class="node"><title>dir_c4f4646ab0f4a2967be5b6215a500c22</title>
<a xlink:href="dir_c4f4646ab0f4a2967be5b6215a500c22.html" target="_top" xlink:title="expconfig">
<polygon fill="white" stroke="red" points="211,-340 153,-340 153,-304 211,-304 211,-340"/>
<text text-anchor="middle" x="182" y="-319.5" font-family="Helvetica,sans-Serif" font-size="10.00">expconfig</text>
</a>
</g>
<!-- dir_2eec376824a17f48dc36b4bd0c810e01&#45;&gt;dir_c4f4646ab0f4a2967be5b6215a500c22 -->
<g id="edge59" class="edge"><title>dir_2eec376824a17f48dc36b4bd0c810e01&#45;&gt;dir_c4f4646ab0f4a2967be5b6215a500c22</title>
<path fill="none" stroke="black" d="M150.598,-375.831C155.288,-367.792 160.903,-358.167 166.08,-349.292"/>
<polygon fill="black" stroke="black" points="169.243,-350.815 171.259,-340.413 163.197,-347.288 169.243,-350.815"/>
<a xlink:href="dir_000002_000034.html" target="_top" xlink:title="30">
<text text-anchor="middle" x="169.885" y="-352.85" font-family="Helvetica,sans-Serif" font-size="10.00">30</text>
</a>
</g>
<!-- dir_5eb03804bf445589bf35c6aa84fb9a34 -->
<g id="node7" class="node"><title>dir_5eb03804bf445589bf35c6aa84fb9a34</title>
<a xlink:href="dir_5eb03804bf445589bf35c6aa84fb9a34.html" target="_top" xlink:title="reconstruct">
<polygon fill="white" stroke="red" points="284,-196 220,-196 220,-160 284,-160 284,-196"/>
<text text-anchor="middle" x="252" y="-175.5" font-family="Helvetica,sans-Serif" font-size="10.00">reconstruct</text>
</a>
</g>
<!-- dir_2eec376824a17f48dc36b4bd0c810e01&#45;&gt;dir_5eb03804bf445589bf35c6aa84fb9a34 -->
<g id="edge61" class="edge"><title>dir_2eec376824a17f48dc36b4bd0c810e01&#45;&gt;dir_5eb03804bf445589bf35c6aa84fb9a34</title>
<path fill="none" stroke="black" d="M138.727,-375.771C137.925,-357.374 137.984,-328.291 144,-304 152.508,-269.649 155.452,-259.275 178,-232 187.459,-220.558 199.858,-210.281 211.796,-201.84"/>
<polygon fill="black" stroke="black" points="214.05,-204.54 220.358,-196.028 210.119,-198.748 214.05,-204.54"/>
<a xlink:href="dir_000002_000038.html" target="_top" xlink:title="1">
<text text-anchor="middle" x="212.671" y="-206.408" font-family="Helvetica,sans-Serif" font-size="10.00">1</text>
</a>
</g>
<!-- dir_ebac6f698c8ed4b70faacb8ef35cbe0d -->
<g id="node8" class="node"><title>dir_ebac6f698c8ed4b70faacb8ef35cbe0d</title>
<a xlink:href="dir_ebac6f698c8ed4b70faacb8ef35cbe0d.html" target="_top" xlink:title="root&#45;addons">
<polygon fill="white" stroke="red" points="124,-196 56,-196 56,-160 124,-160 124,-196"/>
<text text-anchor="middle" x="90" y="-175.5" font-family="Helvetica,sans-Serif" font-size="10.00">root&#45;addons</text>
</a>
</g>
<!-- dir_2eec376824a17f48dc36b4bd0c810e01&#45;&gt;dir_ebac6f698c8ed4b70faacb8ef35cbe0d -->
<g id="edge57" class="edge"><title>dir_2eec376824a17f48dc36b4bd0c810e01&#45;&gt;dir_ebac6f698c8ed4b70faacb8ef35cbe0d</title>
<path fill="none" stroke="black" d="M116.914,-375.688C108.623,-365.746 100.464,-352.878 96,-340 80.4567,-295.163 78.8544,-239.404 82.1332,-206.369"/>
<polygon fill="black" stroke="black" points="85.6511,-206.443 83.4191,-196.086 78.7052,-205.574 85.6511,-206.443"/>
<a xlink:href="dir_000002_000014.html" target="_top" xlink:title="12">
<text text-anchor="middle" x="88.0225" y="-207.862" font-family="Helvetica,sans-Serif" font-size="10.00">12</text>
</a>
</g>
<!-- dir_c44c95bf3b41c3321c6014770d618ac8 -->
<g id="node10" class="node"><title>dir_c44c95bf3b41c3321c6014770d618ac8</title>
<a xlink:href="dir_c44c95bf3b41c3321c6014770d618ac8.html" target="_top" xlink:title="tree">
<polygon fill="white" stroke="black" points="304,-124 250,-124 250,-88 304,-88 304,-124"/>
<text text-anchor="middle" x="277" y="-103.5" font-family="Helvetica,sans-Serif" font-size="10.00">tree</text>
</a>
</g>
<!-- dir_2eec376824a17f48dc36b4bd0c810e01&#45;&gt;dir_c44c95bf3b41c3321c6014770d618ac8 -->
<g id="edge53" class="edge"><title>dir_2eec376824a17f48dc36b4bd0c810e01&#45;&gt;dir_c44c95bf3b41c3321c6014770d618ac8</title>
<path fill="none" stroke="black" d="M167.019,-388.367C216.614,-376.354 320.604,-342.958 359,-268 383.747,-219.689 338.102,-163.074 305.565,-131.184"/>
<polygon fill="black" stroke="black" points="307.69,-128.374 298.036,-124.008 302.86,-133.441 307.69,-128.374"/>
<a xlink:href="dir_000002_000041.html" target="_top" xlink:title="24">
<text text-anchor="middle" x="312.25" y="-126.298" font-family="Helvetica,sans-Serif" font-size="10.00">24</text>
</a>
</g>
<!-- dir_da9e88029a658bab9ad39bb8696ef9bc -->
<g id="node11" class="node"><title>dir_da9e88029a658bab9ad39bb8696ef9bc</title>
<a xlink:href="dir_da9e88029a658bab9ad39bb8696ef9bc.html" target="_top" xlink:title="unpacker">
<polygon fill="white" stroke="red" points="350,-268 294,-268 294,-232 350,-232 350,-268"/>
<text text-anchor="middle" x="322" y="-247.5" font-family="Helvetica,sans-Serif" font-size="10.00">unpacker</text>
</a>
</g>
<!-- dir_2eec376824a17f48dc36b4bd0c810e01&#45;&gt;dir_da9e88029a658bab9ad39bb8696ef9bc -->
<g id="edge55" class="edge"><title>dir_2eec376824a17f48dc36b4bd0c810e01&#45;&gt;dir_da9e88029a658bab9ad39bb8696ef9bc</title>
<path fill="none" stroke="black" d="M167.163,-380.937C186.635,-370.981 213.02,-356.25 234,-340 258.792,-320.797 283.44,-294.843 300.316,-275.741"/>
<polygon fill="black" stroke="black" points="303.12,-277.852 307.051,-268.013 297.842,-273.253 303.12,-277.852"/>
<a xlink:href="dir_000002_000045.html" target="_top" xlink:title="1">
<text text-anchor="middle" x="302.898" y="-279.927" font-family="Helvetica,sans-Serif" font-size="10.00">1</text>
</a>
</g>
<!-- dir_f1b881a94df93d2a183c4d8f47373448 -->
<g id="node5" class="node"><title>dir_f1b881a94df93d2a183c4d8f47373448</title>
<a xlink:href="dir_f1b881a94df93d2a183c4d8f47373448.html" target="_top" xlink:title="calibration">
<polygon fill="white" stroke="red" points="276,-268 216,-268 216,-232 276,-232 276,-268"/>
<text text-anchor="middle" x="246" y="-247.5" font-family="Helvetica,sans-Serif" font-size="10.00">calibration</text>
</a>
</g>
<!-- dir_f1b881a94df93d2a183c4d8f47373448&#45;&gt;dir_2eec376824a17f48dc36b4bd0c810e01 -->
<g id="edge19" class="edge"><title>dir_f1b881a94df93d2a183c4d8f47373448&#45;&gt;dir_2eec376824a17f48dc36b4bd0c810e01</title>
<path fill="none" stroke="black" d="M244.421,-268.16C241.952,-287.563 235.696,-318.434 220,-340 208.707,-355.516 191.508,-367.957 175.947,-376.968"/>
<polygon fill="black" stroke="black" points="174.104,-373.987 167.031,-381.875 177.48,-380.12 174.104,-373.987"/>
<a xlink:href="dir_000011_000002.html" target="_top" xlink:title="1">
<text text-anchor="middle" x="175.885" y="-367.267" font-family="Helvetica,sans-Serif" font-size="10.00">1</text>
</a>
</g>
<!-- dir_f1b881a94df93d2a183c4d8f47373448&#45;&gt;dir_0af1587c8378955de40f48b4bd1869f0 -->
<g id="edge9" class="edge"><title>dir_f1b881a94df93d2a183c4d8f47373448&#45;&gt;dir_0af1587c8378955de40f48b4bd1869f0</title>
<path fill="none" stroke="black" d="M276.169,-234.492C290.443,-225.389 306.069,-212.426 314,-196 320.879,-181.752 325.205,-107.525 313,-88 297.684,-63.4975 267.499,-49.6882 243.084,-42.1809"/>
<polygon fill="black" stroke="black" points="243.95,-38.7886 233.375,-39.4253 242.039,-45.5226 243.95,-38.7886"/>
<a xlink:href="dir_000011_000027.html" target="_top" xlink:title="70">
<text text-anchor="middle" x="248.184" y="-34.5386" font-family="Helvetica,sans-Serif" font-size="10.00">70</text>
</a>
</g>
<!-- dir_f1b881a94df93d2a183c4d8f47373448&#45;&gt;dir_c4f4646ab0f4a2967be5b6215a500c22 -->
<g id="edge15" class="edge"><title>dir_f1b881a94df93d2a183c4d8f47373448&#45;&gt;dir_c4f4646ab0f4a2967be5b6215a500c22</title>
<path fill="none" stroke="black" d="M235.609,-268.413C228.869,-276.909 219.951,-287.137 211.277,-296.37"/>
<polygon fill="black" stroke="black" points="208.511,-294.197 204.102,-303.831 213.556,-299.049 208.511,-294.197"/>
<a xlink:href="dir_000011_000034.html" target="_top" xlink:title="10">
<text text-anchor="middle" x="208.955" y="-287.138" font-family="Helvetica,sans-Serif" font-size="10.00">10</text>
</a>
</g>
<!-- dir_f1b881a94df93d2a183c4d8f47373448&#45;&gt;dir_5eb03804bf445589bf35c6aa84fb9a34 -->
<g id="edge17" class="edge"><title>dir_f1b881a94df93d2a183c4d8f47373448&#45;&gt;dir_5eb03804bf445589bf35c6aa84fb9a34</title>
<path fill="none" stroke="black" d="M247.514,-231.831C248.156,-224.131 248.919,-214.974 249.632,-206.417"/>
<polygon fill="black" stroke="black" points="253.123,-206.669 250.466,-196.413 246.147,-206.088 253.123,-206.669"/>
<a xlink:href="dir_000011_000038.html" target="_top" xlink:title="5">
<text text-anchor="middle" x="255.654" y="-207.987" font-family="Helvetica,sans-Serif" font-size="10.00">5</text>
</a>
</g>
<!-- dir_f1b881a94df93d2a183c4d8f47373448&#45;&gt;dir_ebac6f698c8ed4b70faacb8ef35cbe0d -->
<g id="edge13" class="edge"><title>dir_f1b881a94df93d2a183c4d8f47373448&#45;&gt;dir_ebac6f698c8ed4b70faacb8ef35cbe0d</title>
<path fill="none" stroke="black" d="M215.922,-236.118C192.502,-225.309 159.671,-210.156 133.405,-198.033"/>
<polygon fill="black" stroke="black" points="134.6,-194.73 124.054,-193.717 131.667,-201.086 134.6,-194.73"/>
<a xlink:href="dir_000011_000014.html" target="_top" xlink:title="3">
<text text-anchor="middle" x="139.054" y="-191.158" font-family="Helvetica,sans-Serif" font-size="10.00">3</text>
</a>
</g>
<!-- dir_f1b881a94df93d2a183c4d8f47373448&#45;&gt;dir_c44c95bf3b41c3321c6014770d618ac8 -->
<g id="edge11" class="edge"><title>dir_f1b881a94df93d2a183c4d8f47373448&#45;&gt;dir_c44c95bf3b41c3321c6014770d618ac8</title>
<path fill="none" stroke="black" d="M276.169,-232.018C288.455,-222.922 301.318,-210.681 308,-196 317.328,-175.506 307.945,-151.333 297.127,-133.203"/>
<polygon fill="black" stroke="black" points="299.776,-130.85 291.43,-124.324 293.884,-134.63 299.776,-130.85"/>
<a xlink:href="dir_000011_000041.html" target="_top" xlink:title="19">
<text text-anchor="middle" x="304.106" y="-129.842" font-family="Helvetica,sans-Serif" font-size="10.00">19</text>
</a>
</g>
<!-- dir_c4f4646ab0f4a2967be5b6215a500c22&#45;&gt;dir_0af1587c8378955de40f48b4bd1869f0 -->
<g id="edge35" class="edge"><title>dir_c4f4646ab0f4a2967be5b6215a500c22&#45;&gt;dir_0af1587c8378955de40f48b4bd1869f0</title>
<path fill="none" stroke="black" d="M152.778,-307.228C104.987,-280.896 18.1633,-222.697 47,-160 71.3536,-107.05 130.657,-69.9071 169.552,-50.26"/>
<polygon fill="black" stroke="black" points="171.53,-53.1884 178.968,-45.643 168.448,-46.9035 171.53,-53.1884"/>
<a xlink:href="dir_000034_000027.html" target="_top" xlink:title="22">
<text text-anchor="middle" x="169.553" y="-54.8203" font-family="Helvetica,sans-Serif" font-size="10.00">22</text>
</a>
</g>
<!-- dir_c4f4646ab0f4a2967be5b6215a500c22&#45;&gt;dir_f1b881a94df93d2a183c4d8f47373448 -->
<g id="edge39" class="edge"><title>dir_c4f4646ab0f4a2967be5b6215a500c22&#45;&gt;dir_f1b881a94df93d2a183c4d8f47373448</title>
<path fill="none" stroke="black" d="M192.198,-303.831C198.895,-295.369 207.794,-285.149 216.472,-275.897"/>
<polygon fill="black" stroke="black" points="219.256,-278.051 223.657,-268.413 214.207,-273.203 219.256,-278.051"/>
<a xlink:href="dir_000034_000011.html" target="_top" xlink:title="23">
<text text-anchor="middle" x="218.815" y="-280.11" font-family="Helvetica,sans-Serif" font-size="10.00">23</text>
</a>
</g>
<!-- dir_c4f4646ab0f4a2967be5b6215a500c22&#45;&gt;dir_5eb03804bf445589bf35c6aa84fb9a34 -->
<g id="edge43" class="edge"><title>dir_c4f4646ab0f4a2967be5b6215a500c22&#45;&gt;dir_5eb03804bf445589bf35c6aa84fb9a34</title>
<path fill="none" stroke="black" d="M173.63,-303.672C170.453,-284.679 171.368,-254.657 183,-232 189.541,-219.259 200.422,-208.085 211.707,-199.257"/>
<polygon fill="black" stroke="black" points="213.921,-201.975 219.94,-193.255 209.797,-196.318 213.921,-201.975"/>
<a xlink:href="dir_000034_000038.html" target="_top" xlink:title="2">
<text text-anchor="middle" x="212.689" y="-203.887" font-family="Helvetica,sans-Serif" font-size="10.00">2</text>
</a>
</g>
<!-- dir_c4f4646ab0f4a2967be5b6215a500c22&#45;&gt;dir_c44c95bf3b41c3321c6014770d618ac8 -->
<g id="edge37" class="edge"><title>dir_c4f4646ab0f4a2967be5b6215a500c22&#45;&gt;dir_c44c95bf3b41c3321c6014770d618ac8</title>
<path fill="none" stroke="black" d="M185.106,-303.868C189.379,-280.792 197.615,-242.643 207,-232 234.405,-200.921 270.044,-230.496 293,-196 305.279,-177.549 299.399,-152.445 291.518,-133.437"/>
<polygon fill="black" stroke="black" points="294.614,-131.787 287.301,-124.121 288.237,-134.675 294.614,-131.787"/>
<a xlink:href="dir_000034_000041.html" target="_top" xlink:title="8">
<text text-anchor="middle" x="298.683" y="-131.391" font-family="Helvetica,sans-Serif" font-size="10.00">8</text>
</a>
</g>
<!-- dir_c4f4646ab0f4a2967be5b6215a500c22&#45;&gt;dir_da9e88029a658bab9ad39bb8696ef9bc -->
<g id="edge41" class="edge"><title>dir_c4f4646ab0f4a2967be5b6215a500c22&#45;&gt;dir_da9e88029a658bab9ad39bb8696ef9bc</title>
<path fill="none" stroke="black" d="M211.033,-304.017C232.383,-292.449 261.438,-277.536 284.525,-266.312"/>
<polygon fill="black" stroke="black" points="286.198,-269.391 293.692,-261.901 283.163,-263.083 286.198,-269.391"/>
<a xlink:href="dir_000034_000045.html" target="_top" xlink:title="10">
<text text-anchor="middle" x="284.19" y="-271.008" font-family="Helvetica,sans-Serif" font-size="10.00">10</text>
</a>
</g>
<!-- dir_5eb03804bf445589bf35c6aa84fb9a34&#45;&gt;dir_0af1587c8378955de40f48b4bd1869f0 -->
<g id="edge45" class="edge"><title>dir_5eb03804bf445589bf35c6aa84fb9a34&#45;&gt;dir_0af1587c8378955de40f48b4bd1869f0</title>
<path fill="none" stroke="black" d="M246.174,-159.762C238.294,-135.093 224.164,-90.8598 214.936,-61.9731"/>
<polygon fill="black" stroke="black" points="218.156,-60.5503 211.779,-52.0896 211.488,-62.6805 218.156,-60.5503"/>
<a xlink:href="dir_000038_000027.html" target="_top" xlink:title="11">
<text text-anchor="middle" x="221.954" y="-60.6105" font-family="Helvetica,sans-Serif" font-size="10.00">11</text>
</a>
</g>
<!-- dir_5eb03804bf445589bf35c6aa84fb9a34&#45;&gt;dir_c4f4646ab0f4a2967be5b6215a500c22 -->
<g id="edge49" class="edge"><title>dir_5eb03804bf445589bf35c6aa84fb9a34&#45;&gt;dir_c4f4646ab0f4a2967be5b6215a500c22</title>
<path fill="none" stroke="black" d="M232.329,-196.051C221.216,-205.31 208.361,-217.663 201,-232 191.276,-250.94 189.042,-275.026 187.762,-293.515"/>
<polygon fill="black" stroke="black" points="184.258,-293.457 187.069,-303.672 191.241,-293.934 184.258,-293.457"/>
<a xlink:href="dir_000038_000034.html" target="_top" xlink:title="7">
<text text-anchor="middle" x="181.669" y="-287.178" font-family="Helvetica,sans-Serif" font-size="10.00">7</text>
</a>
</g>
<!-- dir_5eb03804bf445589bf35c6aa84fb9a34&#45;&gt;dir_c44c95bf3b41c3321c6014770d618ac8 -->
<g id="edge47" class="edge"><title>dir_5eb03804bf445589bf35c6aa84fb9a34&#45;&gt;dir_c44c95bf3b41c3321c6014770d618ac8</title>
<path fill="none" stroke="black" d="M258.309,-159.831C261.012,-152.046 264.232,-142.773 267.231,-134.135"/>
<polygon fill="black" stroke="black" points="270.633,-135.008 270.607,-124.413 264.02,-132.712 270.633,-135.008"/>
<a xlink:href="dir_000038_000041.html" target="_top" xlink:title="8">
<text text-anchor="middle" x="272.136" y="-136.835" font-family="Helvetica,sans-Serif" font-size="10.00">8</text>
</a>
</g>
<!-- dir_ebac6f698c8ed4b70faacb8ef35cbe0d&#45;&gt;dir_2eec376824a17f48dc36b4bd0c810e01 -->
<g id="edge33" class="edge"><title>dir_ebac6f698c8ed4b70faacb8ef35cbe0d&#45;&gt;dir_2eec376824a17f48dc36b4bd0c810e01</title>
<path fill="none" stroke="black" d="M94.4033,-196.086C96.6703,-226.657 96.6997,-290.095 114,-340 117.278,-349.457 122.549,-358.909 127.63,-367.201"/>
<polygon fill="black" stroke="black" points="124.68,-369.085 132.966,-375.688 130.607,-365.359 124.68,-369.085"/>
<a xlink:href="dir_000014_000002.html" target="_top" xlink:title="10">
<text text-anchor="middle" x="120.364" y="-365.053" font-family="Helvetica,sans-Serif" font-size="10.00">10</text>
</a>
</g>
<!-- dir_ebac6f698c8ed4b70faacb8ef35cbe0d&#45;&gt;dir_0af1587c8378955de40f48b4bd1869f0 -->
<g id="edge27" class="edge"><title>dir_ebac6f698c8ed4b70faacb8ef35cbe0d&#45;&gt;dir_0af1587c8378955de40f48b4bd1869f0</title>
<path fill="none" stroke="black" d="M104.691,-159.762C125,-134.552 161.767,-88.9103 184.979,-60.0952"/>
<polygon fill="black" stroke="black" points="187.88,-62.0728 191.428,-52.0896 182.429,-57.6815 187.88,-62.0728"/>
<a xlink:href="dir_000014_000027.html" target="_top" xlink:title="20">
<text text-anchor="middle" x="187.836" y="-64.1533" font-family="Helvetica,sans-Serif" font-size="10.00">20</text>
</a>
</g>
<!-- dir_ebac6f698c8ed4b70faacb8ef35cbe0d&#45;&gt;dir_c4f4646ab0f4a2967be5b6215a500c22 -->
<g id="edge31" class="edge"><title>dir_ebac6f698c8ed4b70faacb8ef35cbe0d&#45;&gt;dir_c4f4646ab0f4a2967be5b6215a500c22</title>
<path fill="none" stroke="black" d="M106.859,-196.223C115.786,-206.346 126.606,-219.409 135,-232 148.344,-252.016 160.818,-276.268 169.557,-294.552"/>
<polygon fill="black" stroke="black" points="166.469,-296.211 173.89,-303.772 172.804,-293.233 166.469,-296.211"/>
<a xlink:href="dir_000014_000034.html" target="_top" xlink:title="4">
<text text-anchor="middle" x="162.371" y="-291.665" font-family="Helvetica,sans-Serif" font-size="10.00">4</text>
</a>
</g>
<!-- dir_ebac6f698c8ed4b70faacb8ef35cbe0d&#45;&gt;dir_c44c95bf3b41c3321c6014770d618ac8 -->
<g id="edge29" class="edge"><title>dir_ebac6f698c8ed4b70faacb8ef35cbe0d&#45;&gt;dir_c44c95bf3b41c3321c6014770d618ac8</title>
<path fill="none" stroke="black" d="M124.22,-163.539C127.184,-162.328 130.141,-161.134 133,-160 169.188,-145.646 210.868,-130.126 240.043,-119.423"/>
<polygon fill="black" stroke="black" points="241.624,-122.572 249.812,-115.849 239.218,-115.998 241.624,-122.572"/>
<a xlink:href="dir_000014_000041.html" target="_top" xlink:title="2">
<text text-anchor="middle" x="239.224" y="-123.974" font-family="Helvetica,sans-Serif" font-size="10.00">2</text>
</a>
</g>
<!-- dir_d73d1ee04cc237a5854777ea99c55872 -->
<g id="node9" class="node"><title>dir_d73d1ee04cc237a5854777ea99c55872</title>
<a xlink:href="dir_d73d1ee04cc237a5854777ea99c55872.html" target="_top" xlink:title="simulation">
<polygon fill="white" stroke="red" points="202,-196 142,-196 142,-160 202,-160 202,-196"/>
<text text-anchor="middle" x="172" y="-175.5" font-family="Helvetica,sans-Serif" font-size="10.00">simulation</text>
</a>
</g>
<!-- dir_d73d1ee04cc237a5854777ea99c55872&#45;&gt;dir_0af1587c8378955de40f48b4bd1869f0 -->
<g id="edge5" class="edge"><title>dir_d73d1ee04cc237a5854777ea99c55872&#45;&gt;dir_0af1587c8378955de40f48b4bd1869f0</title>
<path fill="none" stroke="black" d="M176.306,-159.762C182.131,-135.093 192.575,-90.8598 199.395,-61.9731"/>
<polygon fill="black" stroke="black" points="202.837,-62.6263 201.729,-52.0896 196.024,-61.0177 202.837,-62.6263"/>
<a xlink:href="dir_000042_000027.html" target="_top" xlink:title="2">
<text text-anchor="middle" x="204.775" y="-64.2772" font-family="Helvetica,sans-Serif" font-size="10.00">2</text>
</a>
</g>
<!-- dir_d73d1ee04cc237a5854777ea99c55872&#45;&gt;dir_c44c95bf3b41c3321c6014770d618ac8 -->
<g id="edge7" class="edge"><title>dir_d73d1ee04cc237a5854777ea99c55872&#45;&gt;dir_c44c95bf3b41c3321c6014770d618ac8</title>
<path fill="none" stroke="black" d="M198.496,-159.831C211.677,-150.793 227.785,-139.748 241.971,-130.02"/>
<polygon fill="black" stroke="black" points="244.245,-132.705 250.513,-124.163 240.286,-126.932 244.245,-132.705"/>
<a xlink:href="dir_000042_000041.html" target="_top" xlink:title="1">
<text text-anchor="middle" x="242.886" y="-134.579" font-family="Helvetica,sans-Serif" font-size="10.00">1</text>
</a>
</g>
<!-- dir_c44c95bf3b41c3321c6014770d618ac8&#45;&gt;dir_0af1587c8378955de40f48b4bd1869f0 -->
<g id="edge3" class="edge"><title>dir_c44c95bf3b41c3321c6014770d618ac8&#45;&gt;dir_0af1587c8378955de40f48b4bd1869f0</title>
<path fill="none" stroke="black" d="M259.084,-87.8314C250.656,-79.2848 240.459,-68.9443 231.264,-59.6198"/>
<polygon fill="black" stroke="black" points="233.671,-57.0761 224.158,-52.4133 228.687,-61.9912 233.671,-57.0761"/>
<a xlink:href="dir_000041_000027.html" target="_top" xlink:title="33">
<text text-anchor="middle" x="238.217" y="-55.142" font-family="Helvetica,sans-Serif" font-size="10.00">33</text>
</a>
</g>
<!-- dir_da9e88029a658bab9ad39bb8696ef9bc&#45;&gt;dir_0af1587c8378955de40f48b4bd1869f0 -->
<g id="edge21" class="edge"><title>dir_da9e88029a658bab9ad39bb8696ef9bc&#45;&gt;dir_0af1587c8378955de40f48b4bd1869f0</title>
<path fill="none" stroke="black" d="M327.646,-231.974C336.467,-200.095 349.716,-132.901 321,-88 303.877,-61.2252 269.596,-47.4835 242.898,-40.5859"/>
<polygon fill="black" stroke="black" points="243.625,-37.1615 233.088,-38.2645 242.013,-43.9733 243.625,-37.1615"/>
<a xlink:href="dir_000045_000027.html" target="_top" xlink:title="14">
<text text-anchor="middle" x="247.777" y="-32.7262" font-family="Helvetica,sans-Serif" font-size="10.00">14</text>
</a>
</g>
<!-- dir_da9e88029a658bab9ad39bb8696ef9bc&#45;&gt;dir_c4f4646ab0f4a2967be5b6215a500c22 -->
<g id="edge25" class="edge"><title>dir_da9e88029a658bab9ad39bb8696ef9bc&#45;&gt;dir_c4f4646ab0f4a2967be5b6215a500c22</title>
<path fill="none" stroke="black" d="M293.67,-267.602C272.578,-279.049 243.694,-293.889 220.525,-305.177"/>
<polygon fill="black" stroke="black" points="218.795,-302.126 211.309,-309.623 221.836,-308.431 218.795,-302.126"/>
<a xlink:href="dir_000045_000034.html" target="_top" xlink:title="4">
<text text-anchor="middle" x="220.799" y="-295.507" font-family="Helvetica,sans-Serif" font-size="10.00">4</text>
</a>
</g>
<!-- dir_da9e88029a658bab9ad39bb8696ef9bc&#45;&gt;dir_c44c95bf3b41c3321c6014770d618ac8 -->
<g id="edge23" class="edge"><title>dir_da9e88029a658bab9ad39bb8696ef9bc&#45;&gt;dir_c44c95bf3b41c3321c6014770d618ac8</title>
<path fill="none" stroke="black" d="M323.038,-231.837C323.498,-213.239 322.534,-183.77 314,-160 310.523,-150.315 304.877,-140.726 299.031,-132.376"/>
<polygon fill="black" stroke="black" points="301.716,-130.12 292.949,-124.171 296.092,-134.289 301.716,-130.12"/>
<a xlink:href="dir_000045_000041.html" target="_top" xlink:title="10">
<text text-anchor="middle" x="306.137" y="-128.817" font-family="Helvetica,sans-Serif" font-size="10.00">10</text>
</a>
</g>
</g>
</svg>
