<?xml version="1.0" encoding="UTF-8" standalone="no"?>
<!DOCTYPE svg PUBLIC "-//W3C//DTD SVG 1.1//EN"
 "http://www.w3.org/Graphics/SVG/1.1/DTD/svg11.dtd">
<!-- Generated by graphviz version 2.26.3 (20100126.1600)
 -->
<!-- Title: src/calibration/modules Pages: 1 -->
<svg width="448pt" height="441pt"
 viewBox="0.00 0.00 448.00 441.00" xmlns="http://www.w3.org/2000/svg" xmlns:xlink="http://www.w3.org/1999/xlink">
<g id="graph1" class="graph" transform="scale(1 1) rotate(0) translate(4 437)">
<title>src/calibration/modules</title>
<polygon fill="white" stroke="white" points="-4,5 -4,-437 445,-437 445,5 -4,5"/>
<g id="graph2" class="cluster"><title>clusterdir_f1b881a94df93d2a183c4d8f47373448</title>
<a xlink:href="dir_f1b881a94df93d2a183c4d8f47373448.html" target="_top" xlink:title="calibration">
<polygon fill="#ddddee" stroke="black" points="203,-352 203,-425 273,-425 273,-352 203,-352"/>
<text text-anchor="middle" x="238" y="-412" font-family="Helvetica,sans-Serif" font-size="10.00">calibration</text>
</a>
</g>
<!-- dir_a6416823a81055497e03f4e1c81c0ea0 -->
<g id="node2" class="node"><title>dir_a6416823a81055497e03f4e1c81c0ea0</title>
<a xlink:href="dir_a6416823a81055497e03f4e1c81c0ea0.html" target="_top" xlink:title="modules">
<polygon fill="#eeeeff" stroke="black" points="265,-396 211,-396 211,-360 265,-360 265,-396"/>
<text text-anchor="middle" x="238" y="-375.5" font-family="Helvetica,sans-Serif" font-size="10.00">modules</text>
</a>
</g>
<!-- dir_0af1587c8378955de40f48b4bd1869f0 -->
<g id="node3" class="node"><title>dir_0af1587c8378955de40f48b4bd1869f0</title>
<a xlink:href="dir_0af1587c8378955de40f48b4bd1869f0.html" target="_top" xlink:title="base">
<polygon fill="white" stroke="red" points="217,-36 163,-36 163,-1.77636e-14 217,-3.55271e-15 217,-36"/>
<text text-anchor="middle" x="190" y="-15.5" font-family="Helvetica,sans-Serif" font-size="10.00">base</text>
</a>
</g>
<!-- dir_a6416823a81055497e03f4e1c81c0ea0&#45;&gt;dir_0af1587c8378955de40f48b4bd1869f0 -->
<g id="edge3" class="edge"><title>dir_a6416823a81055497e03f4e1c81c0ea0&#45;&gt;dir_0af1587c8378955de40f48b4bd1869f0</title>
<path fill="none" stroke="black" d="M210.698,-374.503C148.183,-364.813 0,-331.554 0,-234 0,-234 0,-234 0,-162 0,-86.0197 97.7006,-44.9616 152.982,-27.8113"/>
<polygon fill="black" stroke="black" points="154.198,-31.1008 162.778,-24.8842 152.194,-24.3939 154.198,-31.1008"/>
<a xlink:href="dir_000012_000027.html" target="_top" xlink:title="23">
<text text-anchor="middle" x="151.567" y="-32.3504" font-family="Helvetica,sans-Serif" font-size="10.00">23</text>
</a>
</g>
<!-- dir_c44c95bf3b41c3321c6014770d618ac8 -->
<g id="node4" class="node"><title>dir_c44c95bf3b41c3321c6014770d618ac8</title>
<a xlink:href="dir_c44c95bf3b41c3321c6014770d618ac8.html" target="_top" xlink:title="tree">
<polygon fill="none" stroke="black" points="217,-108 163,-108 163,-72 217,-72 217,-108"/>
<text text-anchor="middle" x="190" y="-87.5" font-family="Helvetica,sans-Serif" font-size="10.00">tree</text>
</a>
</g>
<!-- dir_a6416823a81055497e03f4e1c81c0ea0&#45;&gt;dir_c44c95bf3b41c3321c6014770d618ac8 -->
<g id="edge5" class="edge"><title>dir_a6416823a81055497e03f4e1c81c0ea0&#45;&gt;dir_c44c95bf3b41c3321c6014770d618ac8</title>
<path fill="none" stroke="black" d="M210.558,-372.344C185.458,-365.558 149.764,-351.472 133,-324 92.0606,-256.909 141.971,-162.186 171.39,-116.579"/>
<polygon fill="black" stroke="black" points="174.376,-118.408 176.967,-108.135 168.535,-114.55 174.376,-118.408"/>
<a xlink:href="dir_000012_000041.html" target="_top" xlink:title="12">
<text text-anchor="middle" x="174.764" y="-120.473" font-family="Helvetica,sans-Serif" font-size="10.00">12</text>
</a>
</g>
<!-- dir_4584aed4c24fbdfe1cf1a414e4d4a562 -->
<g id="node5" class="node"><title>dir_4584aed4c24fbdfe1cf1a414e4d4a562</title>
<a xlink:href="dir_4584aed4c24fbdfe1cf1a414e4d4a562.html" target="_top" xlink:title="gui">
<polygon fill="none" stroke="black" points="375,-252 321,-252 321,-216 375,-216 375,-252"/>
<text text-anchor="middle" x="348" y="-231.5" font-family="Helvetica,sans-Serif" font-size="10.00">gui</text>
</a>
</g>
<!-- dir_a6416823a81055497e03f4e1c81c0ea0&#45;&gt;dir_4584aed4c24fbdfe1cf1a414e4d4a562 -->
<g id="edge7" class="edge"><title>dir_a6416823a81055497e03f4e1c81c0ea0&#45;&gt;dir_4584aed4c24fbdfe1cf1a414e4d4a562</title>
<path fill="none" stroke="black" d="M257.23,-359.828C267.471,-349.72 279.984,-336.655 290,-324 305.888,-303.925 321.469,-279.4 332.474,-261.024"/>
<polygon fill="black" stroke="black" points="335.562,-262.677 337.639,-252.288 329.537,-259.115 335.562,-262.677"/>
<a xlink:href="dir_000012_000033.html" target="_top" xlink:title="9">
<text text-anchor="middle" x="336.177" y="-264.717" font-family="Helvetica,sans-Serif" font-size="10.00">9</text>
</a>
</g>
<!-- dir_ebac6f698c8ed4b70faacb8ef35cbe0d -->
<g id="node6" class="node"><title>dir_ebac6f698c8ed4b70faacb8ef35cbe0d</title>
<a xlink:href="dir_ebac6f698c8ed4b70faacb8ef35cbe0d.html" target="_top" xlink:title="root&#45;addons">
<polygon fill="white" stroke="red" points="210,-324 142,-324 142,-288 210,-288 210,-324"/>
<text text-anchor="middle" x="176" y="-303.5" font-family="Helvetica,sans-Serif" font-size="10.00">root&#45;addons</text>
</a>
</g>
<!-- dir_a6416823a81055497e03f4e1c81c0ea0&#45;&gt;dir_ebac6f698c8ed4b70faacb8ef35cbe0d -->
<g id="edge9" class="edge"><title>dir_a6416823a81055497e03f4e1c81c0ea0&#45;&gt;dir_ebac6f698c8ed4b70faacb8ef35cbe0d</title>
<path fill="none" stroke="black" d="M222.355,-359.831C215.141,-351.454 206.443,-341.353 198.54,-332.175"/>
<polygon fill="black" stroke="black" points="201.033,-329.707 191.856,-324.413 195.729,-334.275 201.033,-329.707"/>
<a xlink:href="dir_000012_000014.html" target="_top" xlink:title="3">
<text text-anchor="middle" x="205.53" y="-328.078" font-family="Helvetica,sans-Serif" font-size="10.00">3</text>
</a>
</g>
<!-- dir_c4f4646ab0f4a2967be5b6215a500c22 -->
<g id="node7" class="node"><title>dir_c4f4646ab0f4a2967be5b6215a500c22</title>
<a xlink:href="dir_c4f4646ab0f4a2967be5b6215a500c22.html" target="_top" xlink:title="expconfig">
<polygon fill="white" stroke="red" points="248,-252 190,-252 190,-216 248,-216 248,-252"/>
<text text-anchor="middle" x="219" y="-231.5" font-family="Helvetica,sans-Serif" font-size="10.00">expconfig</text>
</a>
</g>
<!-- dir_a6416823a81055497e03f4e1c81c0ea0&#45;&gt;dir_c4f4646ab0f4a2967be5b6215a500c22 -->
<g id="edge11" class="edge"><title>dir_a6416823a81055497e03f4e1c81c0ea0&#45;&gt;dir_c4f4646ab0f4a2967be5b6215a500c22</title>
<path fill="none" stroke="black" d="M235.594,-359.762C232.353,-335.201 226.553,-291.247 222.741,-262.354"/>
<polygon fill="black" stroke="black" points="226.165,-261.546 221.387,-252.09 219.225,-262.462 226.165,-261.546"/>
<a xlink:href="dir_000012_000034.html" target="_top" xlink:title="10">
<text text-anchor="middle" x="229.45" y="-262.238" font-family="Helvetica,sans-Serif" font-size="10.00">10</text>
</a>
</g>
<!-- dir_5eb03804bf445589bf35c6aa84fb9a34 -->
<g id="node8" class="node"><title>dir_5eb03804bf445589bf35c6aa84fb9a34</title>
<a xlink:href="dir_5eb03804bf445589bf35c6aa84fb9a34.html" target="_top" xlink:title="reconstruct">
<polygon fill="white" stroke="red" points="282,-180 218,-180 218,-144 282,-144 282,-180"/>
<text text-anchor="middle" x="250" y="-159.5" font-family="Helvetica,sans-Serif" font-size="10.00">reconstruct</text>
</a>
</g>
<!-- dir_a6416823a81055497e03f4e1c81c0ea0&#45;&gt;dir_5eb03804bf445589bf35c6aa84fb9a34 -->
<g id="edge13" class="edge"><title>dir_a6416823a81055497e03f4e1c81c0ea0&#45;&gt;dir_5eb03804bf445589bf35c6aa84fb9a34</title>
<path fill="none" stroke="black" d="M242.352,-359.593C248.949,-329.6 260.374,-268.279 257,-216 256.461,-207.642 255.456,-198.602 254.373,-190.352"/>
<polygon fill="black" stroke="black" points="257.838,-189.857 252.988,-180.437 250.905,-190.825 257.838,-189.857"/>
<a xlink:href="dir_000012_000038.html" target="_top" xlink:title="2">
<text text-anchor="middle" x="261.147" y="-190.524" font-family="Helvetica,sans-Serif" font-size="10.00">2</text>
</a>
</g>
<!-- dir_47eae98cac04703c45f6b4e608e28f25 -->
<g id="node9" class="node"><title>dir_47eae98cac04703c45f6b4e608e28f25</title>
<a xlink:href="dir_47eae98cac04703c45f6b4e608e28f25.html" target="_top" xlink:title="fitfunctions">
<polygon fill="none" stroke="black" points="440,-180 376,-180 376,-144 440,-144 440,-180"/>
<text text-anchor="middle" x="408" y="-159.5" font-family="Helvetica,sans-Serif" font-size="10.00">fitfunctions</text>
</a>
</g>
<!-- dir_a6416823a81055497e03f4e1c81c0ea0&#45;&gt;dir_47eae98cac04703c45f6b4e608e28f25 -->
<g id="edge15" class="edge"><title>dir_a6416823a81055497e03f4e1c81c0ea0&#45;&gt;dir_47eae98cac04703c45f6b4e608e28f25</title>
<path fill="none" stroke="black" d="M265.252,-362.84C299.153,-342.412 355.975,-302.692 384,-252 394.595,-232.835 400.697,-208.761 404.094,-190.335"/>
<polygon fill="black" stroke="black" points="407.589,-190.661 405.796,-180.219 400.686,-189.5 407.589,-190.661"/>
<a xlink:href="dir_000012_000032.html" target="_top" xlink:title="15">
<text text-anchor="middle" x="409.792" y="-192.176" font-family="Helvetica,sans-Serif" font-size="10.00">15</text>
</a>
</g>
<!-- dir_c44c95bf3b41c3321c6014770d618ac8&#45;&gt;dir_0af1587c8378955de40f48b4bd1869f0 -->
<g id="edge17" class="edge"><title>dir_c44c95bf3b41c3321c6014770d618ac8&#45;&gt;dir_0af1587c8378955de40f48b4bd1869f0</title>
<path fill="none" stroke="black" d="M190,-71.8314C190,-64.131 190,-54.9743 190,-46.4166"/>
<polygon fill="black" stroke="black" points="193.5,-46.4132 190,-36.4133 186.5,-46.4133 193.5,-46.4132"/>
<a xlink:href="dir_000041_000027.html" target="_top" xlink:title="33">
<text text-anchor="middle" x="196.339" y="-47.5079" font-family="Helvetica,sans-Serif" font-size="10.00">33</text>
</a>
</g>
<!-- dir_4584aed4c24fbdfe1cf1a414e4d4a562&#45;&gt;dir_0af1587c8378955de40f48b4bd1869f0 -->
<g id="edge19" class="edge"><title>dir_4584aed4c24fbdfe1cf1a414e4d4a562&#45;&gt;dir_0af1587c8378955de40f48b4bd1869f0</title>
<path fill="none" stroke="black" d="M344.751,-215.687C340.797,-196.705 332.868,-166.692 319,-144 293.89,-102.911 252.383,-65.7104 223.249,-42.5592"/>
<polygon fill="black" stroke="black" points="225.046,-39.5216 215.011,-36.1238 220.737,-45.038 225.046,-39.5216"/>
<a xlink:href="dir_000033_000027.html" target="_top" xlink:title="13">
<text text-anchor="middle" x="229.626" y="-36.9968" font-family="Helvetica,sans-Serif" font-size="10.00">13</text>
</a>
</g>
<!-- dir_4584aed4c24fbdfe1cf1a414e4d4a562&#45;&gt;dir_c44c95bf3b41c3321c6014770d618ac8 -->
<g id="edge21" class="edge"><title>dir_4584aed4c24fbdfe1cf1a414e4d4a562&#45;&gt;dir_c44c95bf3b41c3321c6014770d618ac8</title>
<path fill="none" stroke="black" d="M339.989,-215.842C330.574,-196.154 313.358,-164.77 291,-144 272.388,-126.709 247.196,-113.227 226.628,-104.059"/>
<polygon fill="black" stroke="black" points="227.818,-100.761 217.249,-100.029 225.055,-107.192 227.818,-100.761"/>
<a xlink:href="dir_000033_000041.html" target="_top" xlink:title="2">
<text text-anchor="middle" x="232.242" y="-97.0706" font-family="Helvetica,sans-Serif" font-size="10.00">2</text>
</a>
</g>
<!-- dir_4584aed4c24fbdfe1cf1a414e4d4a562&#45;&gt;dir_47eae98cac04703c45f6b4e608e28f25 -->
<g id="edge23" class="edge"><title>dir_4584aed4c24fbdfe1cf1a414e4d4a562&#45;&gt;dir_47eae98cac04703c45f6b4e608e28f25</title>
<path fill="none" stroke="black" d="M357.188,-215.831C363.415,-207.369 371.747,-197.149 379.911,-187.897"/>
<polygon fill="black" stroke="black" points="382.568,-190.178 386.68,-180.413 377.376,-185.482 382.568,-190.178"/>
<a xlink:href="dir_000033_000032.html" target="_top" xlink:title="2">
<text text-anchor="middle" x="382.262" y="-192.248" font-family="Helvetica,sans-Serif" font-size="10.00">2</text>
</a>
</g>
<!-- dir_ebac6f698c8ed4b70faacb8ef35cbe0d&#45;&gt;dir_0af1587c8378955de40f48b4bd1869f0 -->
<g id="edge25" class="edge"><title>dir_ebac6f698c8ed4b70faacb8ef35cbe0d&#45;&gt;dir_0af1587c8378955de40f48b4bd1869f0</title>
<path fill="none" stroke="black" d="M168.33,-287.801C152.555,-247.642 120.122,-148.901 147,-72 150.596,-61.7121 157.063,-51.9193 163.908,-43.568"/>
<polygon fill="black" stroke="black" points="166.55,-45.863 170.504,-36.0337 161.284,-41.2517 166.55,-45.863"/>
<a xlink:href="dir_000014_000027.html" target="_top" xlink:title="20">
<text text-anchor="middle" x="166.318" y="-47.9377" font-family="Helvetica,sans-Serif" font-size="10.00">20</text>
</a>
</g>
<!-- dir_ebac6f698c8ed4b70faacb8ef35cbe0d&#45;&gt;dir_c44c95bf3b41c3321c6014770d618ac8 -->
<g id="edge27" class="edge"><title>dir_ebac6f698c8ed4b70faacb8ef35cbe0d&#45;&gt;dir_c44c95bf3b41c3321c6014770d618ac8</title>
<path fill="none" stroke="black" d="M176.931,-287.723C177.876,-269.536 179.423,-240.832 181,-216 183.128,-182.486 185.93,-143.985 187.839,-118.453"/>
<polygon fill="black" stroke="black" points="191.338,-118.591 188.597,-108.357 184.358,-118.066 191.338,-118.591"/>
<a xlink:href="dir_000014_000041.html" target="_top" xlink:title="2">
<text text-anchor="middle" x="193.9" y="-119.888" font-family="Helvetica,sans-Serif" font-size="10.00">2</text>
</a>
</g>
<!-- dir_ebac6f698c8ed4b70faacb8ef35cbe0d&#45;&gt;dir_c4f4646ab0f4a2967be5b6215a500c22 -->
<g id="edge29" class="edge"><title>dir_ebac6f698c8ed4b70faacb8ef35cbe0d&#45;&gt;dir_c4f4646ab0f4a2967be5b6215a500c22</title>
<path fill="none" stroke="black" d="M186.851,-287.831C191.702,-279.708 197.522,-269.964 202.868,-261.012"/>
<polygon fill="black" stroke="black" points="205.881,-262.793 208.003,-252.413 199.871,-259.204 205.881,-262.793"/>
<a xlink:href="dir_000014_000034.html" target="_top" xlink:title="4">
<text text-anchor="middle" x="206.475" y="-264.835" font-family="Helvetica,sans-Serif" font-size="10.00">4</text>
</a>
</g>
<!-- dir_c4f4646ab0f4a2967be5b6215a500c22&#45;&gt;dir_0af1587c8378955de40f48b4bd1869f0 -->
<g id="edge31" class="edge"><title>dir_c4f4646ab0f4a2967be5b6215a500c22&#45;&gt;dir_0af1587c8378955de40f48b4bd1869f0</title>
<path fill="none" stroke="black" d="M206.1,-215.904C190.198,-192.375 164.045,-149.381 154,-108 150.226,-92.4515 149.363,-87.3135 154,-72 156.956,-62.2355 162.325,-52.6229 168.03,-44.2762"/>
<polygon fill="black" stroke="black" points="170.941,-46.2239 174.01,-36.0831 165.287,-42.0973 170.941,-46.2239"/>
<a xlink:href="dir_000034_000027.html" target="_top" xlink:title="22">
<text text-anchor="middle" x="171.116" y="-48.3013" font-family="Helvetica,sans-Serif" font-size="10.00">22</text>
</a>
</g>
<!-- dir_c4f4646ab0f4a2967be5b6215a500c22&#45;&gt;dir_c44c95bf3b41c3321c6014770d618ac8 -->
<g id="edge33" class="edge"><title>dir_c4f4646ab0f4a2967be5b6215a500c22&#45;&gt;dir_c44c95bf3b41c3321c6014770d618ac8</title>
<path fill="none" stroke="black" d="M215.327,-215.762C210.359,-191.093 201.451,-146.86 195.633,-117.973"/>
<polygon fill="black" stroke="black" points="199.048,-117.202 193.643,-108.09 192.186,-118.584 199.048,-117.202"/>
<a xlink:href="dir_000034_000041.html" target="_top" xlink:title="8">
<text text-anchor="middle" x="202.541" y="-117.665" font-family="Helvetica,sans-Serif" font-size="10.00">8</text>
</a>
</g>
<!-- dir_c4f4646ab0f4a2967be5b6215a500c22&#45;&gt;dir_5eb03804bf445589bf35c6aa84fb9a34 -->
<g id="edge35" class="edge"><title>dir_c4f4646ab0f4a2967be5b6215a500c22&#45;&gt;dir_5eb03804bf445589bf35c6aa84fb9a34</title>
<path fill="none" stroke="black" d="M220.87,-215.831C223.52,-207.877 227.403,-198.369 231.546,-189.572"/>
<polygon fill="black" stroke="black" points="234.781,-190.926 236.096,-180.413 228.512,-187.812 234.781,-190.926"/>
<a xlink:href="dir_000034_000038.html" target="_top" xlink:title="2">
<text text-anchor="middle" x="235.725" y="-192.909" font-family="Helvetica,sans-Serif" font-size="10.00">2</text>
</a>
</g>
<!-- dir_c4f4646ab0f4a2967be5b6215a500c22&#45;&gt;dir_47eae98cac04703c45f6b4e608e28f25 -->
<g id="edge37" class="edge"><title>dir_c4f4646ab0f4a2967be5b6215a500c22&#45;&gt;dir_47eae98cac04703c45f6b4e608e28f25</title>
<path fill="none" stroke="black" d="M248.117,-222.908C279.635,-210.901 330.185,-191.644 365.999,-178"/>
<polygon fill="black" stroke="black" points="367.583,-181.142 375.682,-174.312 365.091,-174.601 367.583,-181.142"/>
<a xlink:href="dir_000034_000032.html" target="_top" xlink:title="3">
<text text-anchor="middle" x="365.234" y="-182.575" font-family="Helvetica,sans-Serif" font-size="10.00">3</text>
</a>
</g>
<!-- dir_5eb03804bf445589bf35c6aa84fb9a34&#45;&gt;dir_0af1587c8378955de40f48b4bd1869f0 -->
<g id="edge39" class="edge"><title>dir_5eb03804bf445589bf35c6aa84fb9a34&#45;&gt;dir_0af1587c8378955de40f48b4bd1869f0</title>
<path fill="none" stroke="black" d="M246.966,-143.819C243.448,-125.207 236.718,-95.7267 226,-72 221.731,-62.55 215.879,-52.9157 210.134,-44.4508"/>
<polygon fill="black" stroke="black" points="212.877,-42.2679 204.256,-36.1096 207.155,-46.3001 212.877,-42.2679"/>
<a xlink:href="dir_000038_000027.html" target="_top" xlink:title="11">
<text text-anchor="middle" x="217.268" y="-41.0708" font-family="Helvetica,sans-Serif" font-size="10.00">11</text>
</a>
</g>
<!-- dir_5eb03804bf445589bf35c6aa84fb9a34&#45;&gt;dir_c44c95bf3b41c3321c6014770d618ac8 -->
<g id="edge41" class="edge"><title>dir_5eb03804bf445589bf35c6aa84fb9a34&#45;&gt;dir_c44c95bf3b41c3321c6014770d618ac8</title>
<path fill="none" stroke="black" d="M234.859,-143.831C227.878,-135.454 219.461,-125.353 211.812,-116.175"/>
<polygon fill="black" stroke="black" points="214.435,-113.855 205.344,-108.413 209.057,-118.336 214.435,-113.855"/>
<a xlink:href="dir_000038_000041.html" target="_top" xlink:title="8">
<text text-anchor="middle" x="218.917" y="-112.299" font-family="Helvetica,sans-Serif" font-size="10.00">8</text>
</a>
</g>
<!-- dir_5eb03804bf445589bf35c6aa84fb9a34&#45;&gt;dir_c4f4646ab0f4a2967be5b6215a500c22 -->
<g id="edge43" class="edge"><title>dir_5eb03804bf445589bf35c6aa84fb9a34&#45;&gt;dir_c4f4646ab0f4a2967be5b6215a500c22</title>
<path fill="none" stroke="black" d="M248.048,-180.413C245.373,-188.399 241.475,-197.916 237.327,-206.697"/>
<polygon fill="black" stroke="black" points="234.103,-205.32 232.775,-215.831 240.368,-208.442 234.103,-205.32"/>
<a xlink:href="dir_000038_000034.html" target="_top" xlink:title="7">
<text text-anchor="middle" x="233.165" y="-198.336" font-family="Helvetica,sans-Serif" font-size="10.00">7</text>
</a>
</g>
<!-- dir_47eae98cac04703c45f6b4e608e28f25&#45;&gt;dir_0af1587c8378955de40f48b4bd1869f0 -->
<g id="edge45" class="edge"><title>dir_47eae98cac04703c45f6b4e608e28f25&#45;&gt;dir_0af1587c8378955de40f48b4bd1869f0</title>
<path fill="none" stroke="black" d="M403.305,-143.785C397.143,-123.446 384.39,-90.9066 362,-72 323.421,-39.4225 265.156,-26.4594 227.34,-21.327"/>
<polygon fill="black" stroke="black" points="227.604,-17.833 217.249,-20.0773 226.743,-24.78 227.604,-17.833"/>
<a xlink:href="dir_000032_000027.html" target="_top" xlink:title="20">
<text text-anchor="middle" x="231.52" y="-12.957" font-family="Helvetica,sans-Serif" font-size="10.00">20</text>
</a>
</g>
<!-- dir_47eae98cac04703c45f6b4e608e28f25&#45;&gt;dir_4584aed4c24fbdfe1cf1a414e4d4a562 -->
<g id="edge47" class="edge"><title>dir_47eae98cac04703c45f6b4e608e28f25&#45;&gt;dir_4584aed4c24fbdfe1cf1a414e4d4a562</title>
<path fill="none" stroke="black" d="M398.632,-180.413C392.364,-188.909 384.014,-199.137 375.853,-208.37"/>
<polygon fill="black" stroke="black" points="373.213,-206.071 369.093,-215.831 378.401,-210.771 373.213,-206.071"/>
<a xlink:href="dir_000032_000033.html" target="_top" xlink:title="2">
<text text-anchor="middle" x="373.523" y="-199" font-family="Helvetica,sans-Serif" font-size="10.00">2</text>
</a>
</g>
</g>
</svg>
