<?xml version="1.0" encoding="UTF-8" standalone="no"?>
<!DOCTYPE svg PUBLIC "-//W3C//DTD SVG 1.1//EN"
 "http://www.w3.org/Graphics/SVG/1.1/DTD/svg11.dtd">
<!-- Generated by graphviz version 2.26.3 (20100126.1600)
 -->
<!-- Title: src/analysis/physics/common Pages: 1 -->
<svg width="344pt" height="369pt"
 viewBox="0.00 0.00 344.37 369.00" xmlns="http://www.w3.org/2000/svg" xmlns:xlink="http://www.w3.org/1999/xlink">
<g id="graph1" class="graph" transform="scale(1 1) rotate(0) translate(4 365)">
<title>src/analysis/physics/common</title>
<polygon fill="white" stroke="white" points="-4,5 -4,-365 341.375,-365 341.375,5 -4,5"/>
<g id="graph2" class="cluster"><title>clusterdir_a21a804d6482c442bcd1b39e4dfcc179</title>
<a xlink:href="dir_a21a804d6482c442bcd1b39e4dfcc179.html" target="_top" xlink:title="physics">
<polygon fill="#ddddee" stroke="black" points="91.3747,-280 91.3747,-353 161.375,-353 161.375,-280 91.3747,-280"/>
<text text-anchor="middle" x="126.375" y="-340" font-family="Helvetica,sans-Serif" font-size="10.00">physics</text>
</a>
</g>
<!-- dir_b41e020219f4b77363d5457b150817df -->
<g id="node2" class="node"><title>dir_b41e020219f4b77363d5457b150817df</title>
<a xlink:href="dir_b41e020219f4b77363d5457b150817df.html" target="_top" xlink:title="common">
<polygon fill="#eeeeff" stroke="black" points="153.375,-324 99.3747,-324 99.3747,-288 153.375,-288 153.375,-324"/>
<text text-anchor="middle" x="126.375" y="-303.5" font-family="Helvetica,sans-Serif" font-size="10.00">common</text>
</a>
</g>
<!-- dir_0a0aa297e888439a92fbcfd5e567f128 -->
<g id="node3" class="node"><title>dir_0a0aa297e888439a92fbcfd5e567f128</title>
<a xlink:href="dir_0a0aa297e888439a92fbcfd5e567f128.html" target="_top" xlink:title="utils">
<polygon fill="none" stroke="black" points="66.3747,-180 12.3747,-180 12.3747,-144 66.3747,-144 66.3747,-180"/>
<text text-anchor="middle" x="39.3747" y="-159.5" font-family="Helvetica,sans-Serif" font-size="10.00">utils</text>
</a>
</g>
<!-- dir_b41e020219f4b77363d5457b150817df&#45;&gt;dir_0a0aa297e888439a92fbcfd5e567f128 -->
<g id="edge21" class="edge"><title>dir_b41e020219f4b77363d5457b150817df&#45;&gt;dir_0a0aa297e888439a92fbcfd5e567f128</title>
<path fill="none" stroke="black" d="M108.387,-287.523C99.2636,-277.536 88.4385,-264.678 80.3747,-252 67.8567,-232.32 57.0791,-208.183 49.7196,-189.862"/>
<polygon fill="black" stroke="black" points="52.8989,-188.382 45.9933,-180.347 46.3809,-190.935 52.8989,-188.382"/>
<a xlink:href="dir_000013_000026.html" target="_top" xlink:title="8">
<text text-anchor="middle" x="56.8534" y="-188.194" font-family="Helvetica,sans-Serif" font-size="10.00">8</text>
</a>
</g>
<!-- dir_0af1587c8378955de40f48b4bd1869f0 -->
<g id="node4" class="node"><title>dir_0af1587c8378955de40f48b4bd1869f0</title>
<a xlink:href="dir_0af1587c8378955de40f48b4bd1869f0.html" target="_top" xlink:title="base">
<polygon fill="white" stroke="red" points="168.375,-36 114.375,-36 114.375,-1.77636e-14 168.375,-3.55271e-15 168.375,-36"/>
<text text-anchor="middle" x="141.375" y="-15.5" font-family="Helvetica,sans-Serif" font-size="10.00">base</text>
</a>
</g>
<!-- dir_b41e020219f4b77363d5457b150817df&#45;&gt;dir_0af1587c8378955de40f48b4bd1869f0 -->
<g id="edge23" class="edge"><title>dir_b41e020219f4b77363d5457b150817df&#45;&gt;dir_0af1587c8378955de40f48b4bd1869f0</title>
<path fill="none" stroke="black" d="M99.1406,-290.152C57.3369,-263.54 -15.9071,-206.604 3.37474,-144 14.7684,-107.007 24.2995,-98.6468 52.3747,-72 67.7488,-57.4081 87.7158,-44.8525 104.841,-35.53"/>
<polygon fill="black" stroke="black" points="106.803,-38.4522 114.015,-30.6911 103.537,-32.2607 106.803,-38.4522"/>
<a xlink:href="dir_000013_000027.html" target="_top" xlink:title="19">
<text text-anchor="middle" x="104.948" y="-40.1405" font-family="Helvetica,sans-Serif" font-size="10.00">19</text>
</a>
</g>
<!-- dir_ebac6f698c8ed4b70faacb8ef35cbe0d -->
<g id="node5" class="node"><title>dir_ebac6f698c8ed4b70faacb8ef35cbe0d</title>
<a xlink:href="dir_ebac6f698c8ed4b70faacb8ef35cbe0d.html" target="_top" xlink:title="root&#45;addons">
<polygon fill="white" stroke="red" points="193.375,-252 125.375,-252 125.375,-216 193.375,-216 193.375,-252"/>
<text text-anchor="middle" x="159.375" y="-231.5" font-family="Helvetica,sans-Serif" font-size="10.00">root&#45;addons</text>
</a>
</g>
<!-- dir_b41e020219f4b77363d5457b150817df&#45;&gt;dir_ebac6f698c8ed4b70faacb8ef35cbe0d -->
<g id="edge25" class="edge"><title>dir_b41e020219f4b77363d5457b150817df&#45;&gt;dir_ebac6f698c8ed4b70faacb8ef35cbe0d</title>
<path fill="none" stroke="black" d="M134.702,-287.831C138.348,-279.877 142.706,-270.369 146.737,-261.572"/>
<polygon fill="black" stroke="black" points="149.95,-262.962 150.935,-252.413 143.587,-260.046 149.95,-262.962"/>
<a xlink:href="dir_000013_000014.html" target="_top" xlink:title="5">
<text text-anchor="middle" x="151.034" y="-264.913" font-family="Helvetica,sans-Serif" font-size="10.00">5</text>
</a>
</g>
<!-- dir_c4f4646ab0f4a2967be5b6215a500c22 -->
<g id="node6" class="node"><title>dir_c4f4646ab0f4a2967be5b6215a500c22</title>
<a xlink:href="dir_c4f4646ab0f4a2967be5b6215a500c22.html" target="_top" xlink:title="expconfig">
<polygon fill="white" stroke="red" points="142.375,-108 84.3747,-108 84.3747,-72 142.375,-72 142.375,-108"/>
<text text-anchor="middle" x="113.375" y="-87.5" font-family="Helvetica,sans-Serif" font-size="10.00">expconfig</text>
</a>
</g>
<!-- dir_b41e020219f4b77363d5457b150817df&#45;&gt;dir_c4f4646ab0f4a2967be5b6215a500c22 -->
<g id="edge27" class="edge"><title>dir_b41e020219f4b77363d5457b150817df&#45;&gt;dir_c4f4646ab0f4a2967be5b6215a500c22</title>
<path fill="none" stroke="black" d="M122.193,-287.614C120.025,-277.221 117.584,-263.952 116.375,-252 111.644,-205.231 111.811,-150.491 112.497,-118.115"/>
<polygon fill="black" stroke="black" points="115.998,-118.12 112.744,-108.037 109,-117.948 115.998,-118.12"/>
<a xlink:href="dir_000013_000034.html" target="_top" xlink:title="5">
<text text-anchor="middle" x="118.749" y="-119.282" font-family="Helvetica,sans-Serif" font-size="10.00">5</text>
</a>
</g>
<!-- dir_8f68c37b22d514b4289e3a1255795d80 -->
<g id="node7" class="node"><title>dir_8f68c37b22d514b4289e3a1255795d80</title>
<a xlink:href="dir_8f68c37b22d514b4289e3a1255795d80.html" target="_top" xlink:title="plot">
<polygon fill="none" stroke="black" points="252.375,-180 198.375,-180 198.375,-144 252.375,-144 252.375,-180"/>
<text text-anchor="middle" x="225.375" y="-159.5" font-family="Helvetica,sans-Serif" font-size="10.00">plot</text>
</a>
</g>
<!-- dir_b41e020219f4b77363d5457b150817df&#45;&gt;dir_8f68c37b22d514b4289e3a1255795d80 -->
<g id="edge29" class="edge"><title>dir_b41e020219f4b77363d5457b150817df&#45;&gt;dir_8f68c37b22d514b4289e3a1255795d80</title>
<path fill="none" stroke="black" d="M153.711,-292.872C170.153,-283.63 190.191,-269.748 202.375,-252 214.947,-233.687 220.648,-209.028 223.233,-190.152"/>
<polygon fill="black" stroke="black" points="226.727,-190.404 224.398,-180.068 219.774,-189.6 226.727,-190.404"/>
<a xlink:href="dir_000013_000022.html" target="_top" xlink:title="3">
<text text-anchor="middle" x="229.136" y="-191.8" font-family="Helvetica,sans-Serif" font-size="10.00">3</text>
</a>
</g>
<!-- dir_f7cc278301683119f8719a92f4ffdd26 -->
<g id="node8" class="node"><title>dir_f7cc278301683119f8719a92f4ffdd26</title>
<a xlink:href="dir_f7cc278301683119f8719a92f4ffdd26.html" target="_top" xlink:title="slowcontrol">
<polygon fill="white" stroke="red" points="336.375,-180 270.375,-180 270.375,-144 336.375,-144 336.375,-180"/>
<text text-anchor="middle" x="303.375" y="-159.5" font-family="Helvetica,sans-Serif" font-size="10.00">slowcontrol</text>
</a>
</g>
<!-- dir_b41e020219f4b77363d5457b150817df&#45;&gt;dir_f7cc278301683119f8719a92f4ffdd26 -->
<g id="edge31" class="edge"><title>dir_b41e020219f4b77363d5457b150817df&#45;&gt;dir_f7cc278301683119f8719a92f4ffdd26</title>
<path fill="none" stroke="black" d="M153.715,-294.099C174.289,-284.42 202.571,-269.524 224.375,-252 247.525,-233.393 269.44,-207.526 284.288,-188.296"/>
<polygon fill="black" stroke="black" points="287.143,-190.323 290.397,-180.24 281.565,-186.094 287.143,-190.323"/>
<a xlink:href="dir_000013_000023.html" target="_top" xlink:title="1">
<text text-anchor="middle" x="287.234" y="-192.403" font-family="Helvetica,sans-Serif" font-size="10.00">1</text>
</a>
</g>
<!-- dir_0a0aa297e888439a92fbcfd5e567f128&#45;&gt;dir_0af1587c8378955de40f48b4bd1869f0 -->
<g id="edge3" class="edge"><title>dir_0a0aa297e888439a92fbcfd5e567f128&#45;&gt;dir_0af1587c8378955de40f48b4bd1869f0</title>
<path fill="none" stroke="black" d="M43.7532,-143.755C48.9934,-124.558 59.1524,-94.1196 75.3747,-72 83.7472,-60.5839 95.0737,-50.1619 105.979,-41.5842"/>
<polygon fill="black" stroke="black" points="108.305,-44.2143 114.181,-35.3984 104.089,-38.6257 108.305,-44.2143"/>
<a xlink:href="dir_000026_000027.html" target="_top" xlink:title="26">
<text text-anchor="middle" x="107.144" y="-46.1456" font-family="Helvetica,sans-Serif" font-size="10.00">26</text>
</a>
</g>
<!-- dir_0a0aa297e888439a92fbcfd5e567f128&#45;&gt;dir_c4f4646ab0f4a2967be5b6215a500c22 -->
<g id="edge5" class="edge"><title>dir_0a0aa297e888439a92fbcfd5e567f128&#45;&gt;dir_c4f4646ab0f4a2967be5b6215a500c22</title>
<path fill="none" stroke="black" d="M58.0481,-143.831C66.8996,-135.219 77.6234,-124.785 87.2642,-115.405"/>
<polygon fill="black" stroke="black" points="89.9809,-117.645 94.7074,-108.163 85.0994,-112.628 89.9809,-117.645"/>
<a xlink:href="dir_000026_000034.html" target="_top" xlink:title="2">
<text text-anchor="middle" x="89.3845" y="-119.687" font-family="Helvetica,sans-Serif" font-size="10.00">2</text>
</a>
</g>
<!-- dir_ebac6f698c8ed4b70faacb8ef35cbe0d&#45;&gt;dir_0a0aa297e888439a92fbcfd5e567f128 -->
<g id="edge7" class="edge"><title>dir_ebac6f698c8ed4b70faacb8ef35cbe0d&#45;&gt;dir_0a0aa297e888439a92fbcfd5e567f128</title>
<path fill="none" stroke="black" d="M129.094,-215.831C112.775,-206.04 92.5326,-193.895 75.4074,-183.62"/>
<polygon fill="black" stroke="black" points="77.1492,-180.583 66.7735,-178.439 73.5477,-186.586 77.1492,-180.583"/>
<a xlink:href="dir_000014_000026.html" target="_top" xlink:title="1">
<text text-anchor="middle" x="81.6924" y="-177.498" font-family="Helvetica,sans-Serif" font-size="10.00">1</text>
</a>
</g>
<!-- dir_ebac6f698c8ed4b70faacb8ef35cbe0d&#45;&gt;dir_0af1587c8378955de40f48b4bd1869f0 -->
<g id="edge9" class="edge"><title>dir_ebac6f698c8ed4b70faacb8ef35cbe0d&#45;&gt;dir_0af1587c8378955de40f48b4bd1869f0</title>
<path fill="none" stroke="black" d="M159.27,-215.956C158.92,-185.969 157.449,-124.023 151.375,-72 150.395,-63.6101 148.896,-54.5599 147.354,-46.3113"/>
<polygon fill="black" stroke="black" points="150.77,-45.543 145.414,-36.4017 143.901,-46.8879 150.77,-45.543"/>
<a xlink:href="dir_000014_000027.html" target="_top" xlink:title="20">
<text text-anchor="middle" x="154.247" y="-46.0252" font-family="Helvetica,sans-Serif" font-size="10.00">20</text>
</a>
</g>
<!-- dir_ebac6f698c8ed4b70faacb8ef35cbe0d&#45;&gt;dir_c4f4646ab0f4a2967be5b6215a500c22 -->
<g id="edge11" class="edge"><title>dir_ebac6f698c8ed4b70faacb8ef35cbe0d&#45;&gt;dir_c4f4646ab0f4a2967be5b6215a500c22</title>
<path fill="none" stroke="black" d="M153.549,-215.762C145.668,-191.093 131.538,-146.86 122.311,-117.973"/>
<polygon fill="black" stroke="black" points="125.53,-116.55 119.153,-108.09 118.862,-118.68 125.53,-116.55"/>
<a xlink:href="dir_000014_000034.html" target="_top" xlink:title="4">
<text text-anchor="middle" x="129.329" y="-116.611" font-family="Helvetica,sans-Serif" font-size="10.00">4</text>
</a>
</g>
<!-- dir_ebac6f698c8ed4b70faacb8ef35cbe0d&#45;&gt;dir_8f68c37b22d514b4289e3a1255795d80 -->
<g id="edge13" class="edge"><title>dir_ebac6f698c8ed4b70faacb8ef35cbe0d&#45;&gt;dir_8f68c37b22d514b4289e3a1255795d80</title>
<path fill="none" stroke="black" d="M170.077,-215.831C177.132,-207.219 186.52,-196.785 195.604,-187.405"/>
<polygon fill="black" stroke="black" points="198.225,-189.732 202.774,-180.163 193.251,-184.807 198.225,-189.732"/>
<a xlink:href="dir_000014_000022.html" target="_top" xlink:title="9">
<text text-anchor="middle" x="197.714" y="-191.784" font-family="Helvetica,sans-Serif" font-size="10.00">9</text>
</a>
</g>
<!-- dir_c4f4646ab0f4a2967be5b6215a500c22&#45;&gt;dir_0af1587c8378955de40f48b4bd1869f0 -->
<g id="edge15" class="edge"><title>dir_c4f4646ab0f4a2967be5b6215a500c22&#45;&gt;dir_0af1587c8378955de40f48b4bd1869f0</title>
<path fill="none" stroke="black" d="M120.44,-71.8314C123.501,-63.9617 127.153,-54.5712 130.543,-45.8533"/>
<polygon fill="black" stroke="black" points="133.852,-47.0019 134.214,-36.4133 127.327,-44.4647 133.852,-47.0019"/>
<a xlink:href="dir_000034_000027.html" target="_top" xlink:title="22">
<text text-anchor="middle" x="135.195" y="-48.8812" font-family="Helvetica,sans-Serif" font-size="10.00">22</text>
</a>
</g>
<!-- dir_8f68c37b22d514b4289e3a1255795d80&#45;&gt;dir_0af1587c8378955de40f48b4bd1869f0 -->
<g id="edge17" class="edge"><title>dir_8f68c37b22d514b4289e3a1255795d80&#45;&gt;dir_0af1587c8378955de40f48b4bd1869f0</title>
<path fill="none" stroke="black" d="M218.596,-143.753C211.315,-125.088 198.823,-95.5673 184.375,-72 178.489,-62.3992 171.13,-52.5709 164.173,-43.9756"/>
<polygon fill="black" stroke="black" points="166.767,-41.6203 157.687,-36.1603 161.38,-46.0907 166.767,-41.6203"/>
<a xlink:href="dir_000022_000027.html" target="_top" xlink:title="9">
<text text-anchor="middle" x="171.247" y="-40.0731" font-family="Helvetica,sans-Serif" font-size="10.00">9</text>
</a>
</g>
<!-- dir_8f68c37b22d514b4289e3a1255795d80&#45;&gt;dir_ebac6f698c8ed4b70faacb8ef35cbe0d -->
<g id="edge19" class="edge"><title>dir_8f68c37b22d514b4289e3a1255795d80&#45;&gt;dir_ebac6f698c8ed4b70faacb8ef35cbe0d</title>
<path fill="none" stroke="black" d="M214.472,-180.413C207.427,-188.994 198.11,-199.341 189.096,-208.646"/>
<polygon fill="black" stroke="black" points="186.531,-206.263 181.982,-215.831 191.505,-211.188 186.531,-206.263"/>
<a xlink:href="dir_000022_000014.html" target="_top" xlink:title="1">
<text text-anchor="middle" x="187.042" y="-199.211" font-family="Helvetica,sans-Serif" font-size="10.00">1</text>
</a>
</g>
<!-- dir_f7cc278301683119f8719a92f4ffdd26&#45;&gt;dir_0af1587c8378955de40f48b4bd1869f0 -->
<g id="edge33" class="edge"><title>dir_f7cc278301683119f8719a92f4ffdd26&#45;&gt;dir_0af1587c8378955de40f48b4bd1869f0</title>
<path fill="none" stroke="black" d="M285.214,-143.963C266.388,-125.465 235.913,-96.0742 208.375,-72 196.971,-62.0306 184.09,-51.4876 172.692,-42.3891"/>
<polygon fill="black" stroke="black" points="174.706,-39.5196 164.696,-36.0482 170.356,-45.0042 174.706,-39.5196"/>
<a xlink:href="dir_000023_000027.html" target="_top" xlink:title="2">
<text text-anchor="middle" x="179.287" y="-37.0285" font-family="Helvetica,sans-Serif" font-size="10.00">2</text>
</a>
</g>
<!-- dir_f7cc278301683119f8719a92f4ffdd26&#45;&gt;dir_c4f4646ab0f4a2967be5b6215a500c22 -->
<g id="edge35" class="edge"><title>dir_f7cc278301683119f8719a92f4ffdd26&#45;&gt;dir_c4f4646ab0f4a2967be5b6215a500c22</title>
<path fill="none" stroke="black" d="M269.973,-147.489C267.073,-146.288 264.177,-145.111 261.375,-144 224.595,-129.422 182.128,-114.078 152.143,-103.488"/>
<polygon fill="black" stroke="black" points="153.074,-100.105 142.479,-100.086 150.75,-106.708 153.074,-100.105"/>
<a xlink:href="dir_000023_000034.html" target="_top" xlink:title="3">
<text text-anchor="middle" x="157.407" y="-96.1198" font-family="Helvetica,sans-Serif" font-size="10.00">3</text>
</a>
</g>
</g>
</svg>
