<?xml version="1.0" encoding="UTF-8" standalone="no"?>
<!DOCTYPE svg PUBLIC "-//W3C//DTD SVG 1.1//EN"
 "http://www.w3.org/Graphics/SVG/1.1/DTD/svg11.dtd">
<!-- Generated by graphviz version 2.26.3 (20100126.1600)
 -->
<!-- Title: src/analysis/physics/pi0 Pages: 1 -->
<svg width="210pt" height="297pt"
 viewBox="0.00 0.00 210.00 297.00" xmlns="http://www.w3.org/2000/svg" xmlns:xlink="http://www.w3.org/1999/xlink">
<g id="graph1" class="graph" transform="scale(1 1) rotate(0) translate(4 293)">
<title>src/analysis/physics/pi0</title>
<polygon fill="white" stroke="white" points="-4,5 -4,-293 207,-293 207,5 -4,5"/>
<g id="graph2" class="cluster"><title>clusterdir_a21a804d6482c442bcd1b39e4dfcc179</title>
<a xlink:href="dir_a21a804d6482c442bcd1b39e4dfcc179.html" target="_top" xlink:title="physics">
<polygon fill="#ddddee" stroke="black" points="66,-208 66,-281 136,-281 136,-208 66,-208"/>
<text text-anchor="middle" x="101" y="-268" font-family="Helvetica,sans-Serif" font-size="10.00">physics</text>
</a>
</g>
<!-- dir_65711b33b2c758e7771d2f7398e776f1 -->
<g id="node2" class="node"><title>dir_65711b33b2c758e7771d2f7398e776f1</title>
<a xlink:href="dir_65711b33b2c758e7771d2f7398e776f1.html" target="_top" xlink:title="pi0">
<polygon fill="#eeeeff" stroke="black" points="128,-252 74,-252 74,-216 128,-216 128,-252"/>
<text text-anchor="middle" x="101" y="-231.5" font-family="Helvetica,sans-Serif" font-size="10.00">pi0</text>
</a>
</g>
<!-- dir_0a0aa297e888439a92fbcfd5e567f128 -->
<g id="node3" class="node"><title>dir_0a0aa297e888439a92fbcfd5e567f128</title>
<a xlink:href="dir_0a0aa297e888439a92fbcfd5e567f128.html" target="_top" xlink:title="utils">
<polygon fill="none" stroke="black" points="54,-180 2.13163e-14,-180 0,-144 54,-144 54,-180"/>
<text text-anchor="middle" x="27" y="-159.5" font-family="Helvetica,sans-Serif" font-size="10.00">utils</text>
</a>
</g>
<!-- dir_65711b33b2c758e7771d2f7398e776f1&#45;&gt;dir_0a0aa297e888439a92fbcfd5e567f128 -->
<g id="edge11" class="edge"><title>dir_65711b33b2c758e7771d2f7398e776f1&#45;&gt;dir_0a0aa297e888439a92fbcfd5e567f128</title>
<path fill="none" stroke="black" d="M82.3267,-215.831C73.4751,-207.219 62.7514,-196.785 53.1105,-187.405"/>
<polygon fill="black" stroke="black" points="55.2754,-184.628 45.6674,-180.163 50.3939,-189.645 55.2754,-184.628"/>
<a xlink:href="dir_000019_000026.html" target="_top" xlink:title="8">
<text text-anchor="middle" x="59.8317" y="-182.6" font-family="Helvetica,sans-Serif" font-size="10.00">8</text>
</a>
</g>
<!-- dir_0af1587c8378955de40f48b4bd1869f0 -->
<g id="node4" class="node"><title>dir_0af1587c8378955de40f48b4bd1869f0</title>
<a xlink:href="dir_0af1587c8378955de40f48b4bd1869f0.html" target="_top" xlink:title="base">
<polygon fill="white" stroke="red" points="118,-36 64,-36 64,-1.77636e-14 118,-3.55271e-15 118,-36"/>
<text text-anchor="middle" x="91" y="-15.5" font-family="Helvetica,sans-Serif" font-size="10.00">base</text>
</a>
</g>
<!-- dir_65711b33b2c758e7771d2f7398e776f1&#45;&gt;dir_0af1587c8378955de40f48b4bd1869f0 -->
<g id="edge13" class="edge"><title>dir_65711b33b2c758e7771d2f7398e776f1&#45;&gt;dir_0af1587c8378955de40f48b4bd1869f0</title>
<path fill="none" stroke="black" d="M102.073,-215.971C103.616,-186.007 105.783,-124.093 101,-72 100.228,-63.5885 98.7923,-54.5317 97.2453,-46.2836"/>
<polygon fill="black" stroke="black" points="100.658,-45.499 95.2675,-36.3779 93.7933,-46.8697 100.658,-45.499"/>
<a xlink:href="dir_000019_000027.html" target="_top" xlink:title="8">
<text text-anchor="middle" x="104.146" y="-45.9682" font-family="Helvetica,sans-Serif" font-size="10.00">8</text>
</a>
</g>
<!-- dir_c4f4646ab0f4a2967be5b6215a500c22 -->
<g id="node5" class="node"><title>dir_c4f4646ab0f4a2967be5b6215a500c22</title>
<a xlink:href="dir_c4f4646ab0f4a2967be5b6215a500c22.html" target="_top" xlink:title="expconfig">
<polygon fill="white" stroke="red" points="92,-108 34,-108 34,-72 92,-72 92,-108"/>
<text text-anchor="middle" x="63" y="-87.5" font-family="Helvetica,sans-Serif" font-size="10.00">expconfig</text>
</a>
</g>
<!-- dir_65711b33b2c758e7771d2f7398e776f1&#45;&gt;dir_c4f4646ab0f4a2967be5b6215a500c22 -->
<g id="edge15" class="edge"><title>dir_65711b33b2c758e7771d2f7398e776f1&#45;&gt;dir_c4f4646ab0f4a2967be5b6215a500c22</title>
<path fill="none" stroke="black" d="M96.1873,-215.762C89.6773,-191.093 78.0047,-146.86 70.3818,-117.973"/>
<polygon fill="black" stroke="black" points="73.7094,-116.866 67.7736,-108.09 66.9411,-118.652 73.7094,-116.866"/>
<a xlink:href="dir_000019_000034.html" target="_top" xlink:title="2">
<text text-anchor="middle" x="77.3718" y="-117.117" font-family="Helvetica,sans-Serif" font-size="10.00">2</text>
</a>
</g>
<!-- dir_8f68c37b22d514b4289e3a1255795d80 -->
<g id="node6" class="node"><title>dir_8f68c37b22d514b4289e3a1255795d80</title>
<a xlink:href="dir_8f68c37b22d514b4289e3a1255795d80.html" target="_top" xlink:title="plot">
<polygon fill="none" stroke="black" points="202,-180 148,-180 148,-144 202,-144 202,-180"/>
<text text-anchor="middle" x="175" y="-159.5" font-family="Helvetica,sans-Serif" font-size="10.00">plot</text>
</a>
</g>
<!-- dir_65711b33b2c758e7771d2f7398e776f1&#45;&gt;dir_8f68c37b22d514b4289e3a1255795d80 -->
<g id="edge17" class="edge"><title>dir_65711b33b2c758e7771d2f7398e776f1&#45;&gt;dir_8f68c37b22d514b4289e3a1255795d80</title>
<path fill="none" stroke="black" d="M119.673,-215.831C128.525,-207.219 139.249,-196.785 148.889,-187.405"/>
<polygon fill="black" stroke="black" points="151.606,-189.645 156.333,-180.163 146.725,-184.628 151.606,-189.645"/>
<a xlink:href="dir_000019_000022.html" target="_top" xlink:title="5">
<text text-anchor="middle" x="151.01" y="-191.687" font-family="Helvetica,sans-Serif" font-size="10.00">5</text>
</a>
</g>
<!-- dir_0a0aa297e888439a92fbcfd5e567f128&#45;&gt;dir_0af1587c8378955de40f48b4bd1869f0 -->
<g id="edge3" class="edge"><title>dir_0a0aa297e888439a92fbcfd5e567f128&#45;&gt;dir_0af1587c8378955de40f48b4bd1869f0</title>
<path fill="none" stroke="black" d="M22.0036,-143.762C17.8386,-124.843 14.1577,-94.8798 25,-72 31.4791,-58.3276 43.3031,-46.9657 55.1721,-38.2486"/>
<polygon fill="black" stroke="black" points="57.4758,-40.9129 63.7468,-32.3733 53.5191,-35.1384 57.4758,-40.9129"/>
<a xlink:href="dir_000026_000027.html" target="_top" xlink:title="26">
<text text-anchor="middle" x="56.1153" y="-42.7869" font-family="Helvetica,sans-Serif" font-size="10.00">26</text>
</a>
</g>
<!-- dir_0a0aa297e888439a92fbcfd5e567f128&#45;&gt;dir_c4f4646ab0f4a2967be5b6215a500c22 -->
<g id="edge5" class="edge"><title>dir_0a0aa297e888439a92fbcfd5e567f128&#45;&gt;dir_c4f4646ab0f4a2967be5b6215a500c22</title>
<path fill="none" stroke="black" d="M36.0843,-143.831C40.0615,-135.877 44.8155,-126.369 49.2139,-117.572"/>
<polygon fill="black" stroke="black" points="52.4517,-118.923 53.7934,-108.413 46.1907,-115.792 52.4517,-118.923"/>
<a xlink:href="dir_000026_000034.html" target="_top" xlink:title="2">
<text text-anchor="middle" x="53.3837" y="-120.908" font-family="Helvetica,sans-Serif" font-size="10.00">2</text>
</a>
</g>
<!-- dir_c4f4646ab0f4a2967be5b6215a500c22&#45;&gt;dir_0af1587c8378955de40f48b4bd1869f0 -->
<g id="edge7" class="edge"><title>dir_c4f4646ab0f4a2967be5b6215a500c22&#45;&gt;dir_0af1587c8378955de40f48b4bd1869f0</title>
<path fill="none" stroke="black" d="M70.0656,-71.8314C73.126,-63.9617 76.7779,-54.5712 80.1682,-45.8533"/>
<polygon fill="black" stroke="black" points="83.4768,-47.0019 83.8393,-36.4133 76.9527,-44.4647 83.4768,-47.0019"/>
<a xlink:href="dir_000034_000027.html" target="_top" xlink:title="22">
<text text-anchor="middle" x="84.8202" y="-48.8812" font-family="Helvetica,sans-Serif" font-size="10.00">22</text>
</a>
</g>
<!-- dir_8f68c37b22d514b4289e3a1255795d80&#45;&gt;dir_0af1587c8378955de40f48b4bd1869f0 -->
<g id="edge9" class="edge"><title>dir_8f68c37b22d514b4289e3a1255795d80&#45;&gt;dir_0af1587c8378955de40f48b4bd1869f0</title>
<path fill="none" stroke="black" d="M168.221,-143.753C160.94,-125.088 148.448,-95.5673 134,-72 128.114,-62.3992 120.756,-52.5709 113.798,-43.9756"/>
<polygon fill="black" stroke="black" points="116.392,-41.6203 107.312,-36.1603 111.005,-46.0907 116.392,-41.6203"/>
<a xlink:href="dir_000022_000027.html" target="_top" xlink:title="9">
<text text-anchor="middle" x="120.873" y="-40.0731" font-family="Helvetica,sans-Serif" font-size="10.00">9</text>
</a>
</g>
</g>
</svg>
