<?xml version="1.0" encoding="UTF-8" standalone="no"?>
<!DOCTYPE svg PUBLIC "-//W3C//DTD SVG 1.1//EN"
 "http://www.w3.org/Graphics/SVG/1.1/DTD/svg11.dtd">
<!-- Generated by graphviz version 2.26.3 (20100126.1600)
 -->
<!-- Title: src/analysis Pages: 1 -->
<svg width="624pt" height="521pt"
 viewBox="0.00 0.00 624.00 521.00" xmlns="http://www.w3.org/2000/svg" xmlns:xlink="http://www.w3.org/1999/xlink">
<g id="graph1" class="graph" transform="scale(1 1) rotate(0) translate(4 517)">
<title>src/analysis</title>
<polygon fill="white" stroke="white" points="-4,5 -4,-517 621,-517 621,5 -4,5"/>
<g id="graph2" class="cluster"><title>clusterdir_68267d1309a1af8e8297ef4c3efbcdba</title>
<a xlink:href="dir_68267d1309a1af8e8297ef4c3efbcdba.html" target="_top" xlink:title="src">
<polygon fill="#ddddee" stroke="black" points="260,-272 260,-505 522,-505 522,-272 260,-272"/>
<text text-anchor="middle" x="391" y="-492" font-family="Helvetica,sans-Serif" font-size="10.00">src</text>
</a>
</g>
<g id="graph3" class="cluster"><title>clusterdir_2eec376824a17f48dc36b4bd0c810e01</title>
<a xlink:href="dir_2eec376824a17f48dc36b4bd0c810e01.html" target="_top">
<polygon fill="#eeeeff" stroke="black" points="268,-280 268,-476 514,-476 514,-280 268,-280"/>
</a>
</g>
<!-- dir_2eec376824a17f48dc36b4bd0c810e01 -->
<g id="node3" class="node"><title>dir_2eec376824a17f48dc36b4bd0c810e01</title>
<text text-anchor="middle" x="466" y="-447.5" font-family="Helvetica,sans-Serif" font-size="10.00">analysis</text>
</g>
<!-- dir_4d4314fec0337faafb4fd99dc7917bfa -->
<g id="node4" class="node"><title>dir_4d4314fec0337faafb4fd99dc7917bfa</title>
<a xlink:href="dir_4d4314fec0337faafb4fd99dc7917bfa.html" target="_top" xlink:title="input">
<polygon fill="white" stroke="red" points="486,-396 432,-396 432,-360 486,-360 486,-396"/>
<text text-anchor="middle" x="459" y="-375.5" font-family="Helvetica,sans-Serif" font-size="10.00">input</text>
</a>
</g>
<!-- dir_0a0aa297e888439a92fbcfd5e567f128 -->
<g id="node8" class="node"><title>dir_0a0aa297e888439a92fbcfd5e567f128</title>
<a xlink:href="dir_0a0aa297e888439a92fbcfd5e567f128.html" target="_top" xlink:title="utils">
<polygon fill="white" stroke="black" points="506,-324 452,-324 452,-288 506,-288 506,-324"/>
<text text-anchor="middle" x="479" y="-303.5" font-family="Helvetica,sans-Serif" font-size="10.00">utils</text>
</a>
</g>
<!-- dir_4d4314fec0337faafb4fd99dc7917bfa&#45;&gt;dir_0a0aa297e888439a92fbcfd5e567f128 -->
<g id="edge62" class="edge"><title>dir_4d4314fec0337faafb4fd99dc7917bfa&#45;&gt;dir_0a0aa297e888439a92fbcfd5e567f128</title>
<path fill="none" stroke="black" d="M464.047,-359.831C466.209,-352.046 468.785,-342.773 471.185,-334.135"/>
<polygon fill="black" stroke="black" points="474.581,-334.985 473.885,-324.413 467.836,-333.112 474.581,-334.985"/>
<a xlink:href="dir_000003_000026.html" target="_top" xlink:title="2">
<text text-anchor="middle" x="476.355" y="-336.709" font-family="Helvetica,sans-Serif" font-size="10.00">2</text>
</a>
</g>
<!-- dir_0af1587c8378955de40f48b4bd1869f0 -->
<g id="node9" class="node"><title>dir_0af1587c8378955de40f48b4bd1869f0</title>
<a xlink:href="dir_0af1587c8378955de40f48b4bd1869f0.html" target="_top" xlink:title="base">
<polygon fill="white" stroke="red" points="222,-36 168,-36 168,-1.77636e-14 222,-3.55271e-15 222,-36"/>
<text text-anchor="middle" x="195" y="-15.5" font-family="Helvetica,sans-Serif" font-size="10.00">base</text>
</a>
</g>
<!-- dir_4d4314fec0337faafb4fd99dc7917bfa&#45;&gt;dir_0af1587c8378955de40f48b4bd1869f0 -->
<g id="edge64" class="edge"><title>dir_4d4314fec0337faafb4fd99dc7917bfa&#45;&gt;dir_0af1587c8378955de40f48b4bd1869f0</title>
<path fill="none" stroke="black" d="M453.254,-359.58C450.081,-349.177 446.156,-335.909 443,-324 413.537,-212.808 463.349,-155.279 384,-72 363.177,-50.1454 280.87,-32.7074 232.005,-24.0192"/>
<polygon fill="black" stroke="black" points="232.571,-20.5652 222.119,-22.2996 231.371,-27.4617 232.571,-20.5652"/>
<a xlink:href="dir_000003_000027.html" target="_top" xlink:title="14">
<text text-anchor="middle" x="236.599" y="-15.8839" font-family="Helvetica,sans-Serif" font-size="10.00">14</text>
</a>
</g>
<!-- dir_c44c95bf3b41c3321c6014770d618ac8 -->
<g id="node10" class="node"><title>dir_c44c95bf3b41c3321c6014770d618ac8</title>
<a xlink:href="dir_c44c95bf3b41c3321c6014770d618ac8.html" target="_top" xlink:title="tree">
<polygon fill="none" stroke="black" points="375,-108 321,-108 321,-72 375,-72 375,-108"/>
<text text-anchor="middle" x="348" y="-87.5" font-family="Helvetica,sans-Serif" font-size="10.00">tree</text>
</a>
</g>
<!-- dir_4d4314fec0337faafb4fd99dc7917bfa&#45;&gt;dir_c44c95bf3b41c3321c6014770d618ac8 -->
<g id="edge66" class="edge"><title>dir_4d4314fec0337faafb4fd99dc7917bfa&#45;&gt;dir_c44c95bf3b41c3321c6014770d618ac8</title>
<path fill="none" stroke="black" d="M438.349,-359.772C428.476,-350.046 417.256,-337.346 410,-324 372.834,-255.634 356.996,-163.753 351.077,-118.135"/>
<polygon fill="black" stroke="black" points="354.537,-117.589 349.839,-108.092 347.589,-118.445 354.537,-117.589"/>
<a xlink:href="dir_000003_000041.html" target="_top" xlink:title="6">
<text text-anchor="middle" x="357.794" y="-118.309" font-family="Helvetica,sans-Serif" font-size="10.00">6</text>
</a>
</g>
<!-- dir_da9e88029a658bab9ad39bb8696ef9bc -->
<g id="node11" class="node"><title>dir_da9e88029a658bab9ad39bb8696ef9bc</title>
<a xlink:href="dir_da9e88029a658bab9ad39bb8696ef9bc.html" target="_top" xlink:title="unpacker">
<polygon fill="white" stroke="red" points="244,-324 188,-324 188,-288 244,-288 244,-324"/>
<text text-anchor="middle" x="216" y="-303.5" font-family="Helvetica,sans-Serif" font-size="10.00">unpacker</text>
</a>
</g>
<!-- dir_4d4314fec0337faafb4fd99dc7917bfa&#45;&gt;dir_da9e88029a658bab9ad39bb8696ef9bc -->
<g id="edge68" class="edge"><title>dir_4d4314fec0337faafb4fd99dc7917bfa&#45;&gt;dir_da9e88029a658bab9ad39bb8696ef9bc</title>
<path fill="none" stroke="black" d="M431.782,-363.541C428.859,-362.245 425.895,-361.034 423,-360 354.769,-335.622 333.415,-344.768 264,-324 260.659,-323 257.216,-321.885 253.78,-320.713"/>
<polygon fill="black" stroke="black" points="254.804,-317.362 244.209,-317.307 252.457,-323.957 254.804,-317.362"/>
<a xlink:href="dir_000003_000045.html" target="_top" xlink:title="1">
<text text-anchor="middle" x="259.142" y="-313.392" font-family="Helvetica,sans-Serif" font-size="10.00">1</text>
</a>
</g>
<!-- dir_c4f4646ab0f4a2967be5b6215a500c22 -->
<g id="node13" class="node"><title>dir_c4f4646ab0f4a2967be5b6215a500c22</title>
<a xlink:href="dir_c4f4646ab0f4a2967be5b6215a500c22.html" target="_top" xlink:title="expconfig">
<polygon fill="white" stroke="red" points="317,-252 259,-252 259,-216 317,-216 317,-252"/>
<text text-anchor="middle" x="288" y="-231.5" font-family="Helvetica,sans-Serif" font-size="10.00">expconfig</text>
</a>
</g>
<!-- dir_4d4314fec0337faafb4fd99dc7917bfa&#45;&gt;dir_c4f4646ab0f4a2967be5b6215a500c22 -->
<g id="edge70" class="edge"><title>dir_4d4314fec0337faafb4fd99dc7917bfa&#45;&gt;dir_c4f4646ab0f4a2967be5b6215a500c22</title>
<path fill="none" stroke="black" d="M431.984,-364.204C428.969,-362.751 425.93,-361.322 423,-360 384.11,-342.445 365.471,-352.813 334,-324 315.705,-307.25 303.588,-281.556 296.405,-261.903"/>
<polygon fill="black" stroke="black" points="299.651,-260.577 293.092,-252.256 293.03,-262.851 299.651,-260.577"/>
<a xlink:href="dir_000003_000034.html" target="_top" xlink:title="1">
<text text-anchor="middle" x="303.504" y="-260.555" font-family="Helvetica,sans-Serif" font-size="10.00">1</text>
</a>
</g>
<!-- dir_5eb03804bf445589bf35c6aa84fb9a34 -->
<g id="node14" class="node"><title>dir_5eb03804bf445589bf35c6aa84fb9a34</title>
<a xlink:href="dir_5eb03804bf445589bf35c6aa84fb9a34.html" target="_top" xlink:title="reconstruct">
<polygon fill="white" stroke="red" points="320,-180 256,-180 256,-144 320,-144 320,-180"/>
<text text-anchor="middle" x="288" y="-159.5" font-family="Helvetica,sans-Serif" font-size="10.00">reconstruct</text>
</a>
</g>
<!-- dir_4d4314fec0337faafb4fd99dc7917bfa&#45;&gt;dir_5eb03804bf445589bf35c6aa84fb9a34 -->
<g id="edge72" class="edge"><title>dir_4d4314fec0337faafb4fd99dc7917bfa&#45;&gt;dir_5eb03804bf445589bf35c6aa84fb9a34</title>
<path fill="none" stroke="black" d="M431.946,-363.582C409.818,-351.369 380.796,-334.255 372,-324 338.033,-284.4 351.375,-261.586 326,-216 320.815,-206.685 314.382,-197.011 308.292,-188.469"/>
<polygon fill="black" stroke="black" points="311.097,-186.375 302.376,-180.359 305.442,-190.5 311.097,-186.375"/>
<a xlink:href="dir_000003_000038.html" target="_top" xlink:title="1">
<text text-anchor="middle" x="315.509" y="-185.105" font-family="Helvetica,sans-Serif" font-size="10.00">1</text>
</a>
</g>
<!-- dir_a21a804d6482c442bcd1b39e4dfcc179 -->
<g id="node5" class="node"><title>dir_a21a804d6482c442bcd1b39e4dfcc179</title>
<a xlink:href="dir_a21a804d6482c442bcd1b39e4dfcc179.html" target="_top" xlink:title="physics">
<polygon fill="white" stroke="red" points="408,-468 354,-468 354,-432 408,-432 408,-468"/>
<text text-anchor="middle" x="381" y="-447.5" font-family="Helvetica,sans-Serif" font-size="10.00">physics</text>
</a>
</g>
<!-- dir_a21a804d6482c442bcd1b39e4dfcc179&#45;&gt;dir_4d4314fec0337faafb4fd99dc7917bfa -->
<g id="edge16" class="edge"><title>dir_a21a804d6482c442bcd1b39e4dfcc179&#45;&gt;dir_4d4314fec0337faafb4fd99dc7917bfa</title>
<path fill="none" stroke="black" d="M400.683,-431.831C410.105,-423.134 421.54,-412.578 431.78,-403.127"/>
<polygon fill="black" stroke="black" points="434.35,-405.517 439.324,-396.163 429.602,-400.374 434.35,-405.517"/>
<a xlink:href="dir_000009_000003.html" target="_top" xlink:title="1">
<text text-anchor="middle" x="433.634" y="-407.542" font-family="Helvetica,sans-Serif" font-size="10.00">1</text>
</a>
</g>
<!-- dir_8f68c37b22d514b4289e3a1255795d80 -->
<g id="node6" class="node"><title>dir_8f68c37b22d514b4289e3a1255795d80</title>
<a xlink:href="dir_8f68c37b22d514b4289e3a1255795d80.html" target="_top" xlink:title="plot">
<polygon fill="white" stroke="black" points="330,-396 276,-396 276,-360 330,-360 330,-396"/>
<text text-anchor="middle" x="303" y="-375.5" font-family="Helvetica,sans-Serif" font-size="10.00">plot</text>
</a>
</g>
<!-- dir_a21a804d6482c442bcd1b39e4dfcc179&#45;&gt;dir_8f68c37b22d514b4289e3a1255795d80 -->
<g id="edge14" class="edge"><title>dir_a21a804d6482c442bcd1b39e4dfcc179&#45;&gt;dir_8f68c37b22d514b4289e3a1255795d80</title>
<path fill="none" stroke="black" d="M361.317,-431.831C351.895,-423.134 340.46,-412.578 330.22,-403.127"/>
<polygon fill="black" stroke="black" points="332.398,-400.374 322.676,-396.163 327.65,-405.517 332.398,-400.374"/>
<a xlink:href="dir_000009_000022.html" target="_top" xlink:title="27">
<text text-anchor="middle" x="336.966" y="-398.226" font-family="Helvetica,sans-Serif" font-size="10.00">27</text>
</a>
</g>
<!-- dir_f7cc278301683119f8719a92f4ffdd26 -->
<g id="node7" class="node"><title>dir_f7cc278301683119f8719a92f4ffdd26</title>
<a xlink:href="dir_f7cc278301683119f8719a92f4ffdd26.html" target="_top" xlink:title="slowcontrol">
<polygon fill="white" stroke="red" points="414,-396 348,-396 348,-360 414,-360 414,-396"/>
<text text-anchor="middle" x="381" y="-375.5" font-family="Helvetica,sans-Serif" font-size="10.00">slowcontrol</text>
</a>
</g>
<!-- dir_a21a804d6482c442bcd1b39e4dfcc179&#45;&gt;dir_f7cc278301683119f8719a92f4ffdd26 -->
<g id="edge18" class="edge"><title>dir_a21a804d6482c442bcd1b39e4dfcc179&#45;&gt;dir_f7cc278301683119f8719a92f4ffdd26</title>
<path fill="none" stroke="black" d="M375.048,-431.831C374.297,-424.131 374.076,-414.974 374.385,-406.417"/>
<polygon fill="black" stroke="black" points="377.879,-406.616 375.024,-396.413 370.893,-406.17 377.879,-406.616"/>
<a xlink:href="dir_000009_000023.html" target="_top" xlink:title="2">
<text text-anchor="middle" x="380.484" y="-407.884" font-family="Helvetica,sans-Serif" font-size="10.00">2</text>
</a>
</g>
<!-- dir_a21a804d6482c442bcd1b39e4dfcc179&#45;&gt;dir_0a0aa297e888439a92fbcfd5e567f128 -->
<g id="edge4" class="edge"><title>dir_a21a804d6482c442bcd1b39e4dfcc179&#45;&gt;dir_0a0aa297e888439a92fbcfd5e567f128</title>
<path fill="none" stroke="black" d="M408.14,-438.944C440.234,-425.599 489.964,-403.957 495,-396 506.78,-377.386 501.081,-352.498 493.396,-333.613"/>
<polygon fill="black" stroke="black" points="496.538,-332.065 489.277,-324.349 490.141,-334.908 496.538,-332.065"/>
<a xlink:href="dir_000009_000026.html" target="_top" xlink:title="53">
<text text-anchor="middle" x="500.592" y="-331.696" font-family="Helvetica,sans-Serif" font-size="10.00">53</text>
</a>
</g>
<!-- dir_a21a804d6482c442bcd1b39e4dfcc179&#45;&gt;dir_0af1587c8378955de40f48b4bd1869f0 -->
<g id="edge6" class="edge"><title>dir_a21a804d6482c442bcd1b39e4dfcc179&#45;&gt;dir_0af1587c8378955de40f48b4bd1869f0</title>
<path fill="none" stroke="black" d="M353.905,-445.804C266.862,-431.569 0,-381.751 0,-306 0,-306 0,-306 0,-162 0,-118.581 6.26842,-101.637 38,-72 71.1217,-41.0648 122.783,-27.7594 157.716,-22.0973"/>
<polygon fill="black" stroke="black" points="158.603,-25.5041 167.981,-20.5745 157.575,-18.5799 158.603,-25.5041"/>
<a xlink:href="dir_000009_000027.html" target="_top" xlink:title="67">
<text text-anchor="middle" x="155.463" y="-26.3401" font-family="Helvetica,sans-Serif" font-size="10.00">67</text>
</a>
</g>
<!-- dir_a21a804d6482c442bcd1b39e4dfcc179&#45;&gt;dir_c44c95bf3b41c3321c6014770d618ac8 -->
<g id="edge8" class="edge"><title>dir_a21a804d6482c442bcd1b39e4dfcc179&#45;&gt;dir_c44c95bf3b41c3321c6014770d618ac8</title>
<path fill="none" stroke="black" d="M408.23,-439.167C415.254,-436.603 422.85,-434.028 430,-432 507.231,-410.097 556.206,-458.165 607,-396 617.124,-383.61 610.163,-375.684 607,-360 584.526,-248.562 563.303,-208.946 470,-144 443.651,-125.659 410.072,-111.349 384.815,-102.082"/>
<polygon fill="black" stroke="black" points="385.828,-98.7271 375.234,-98.6602 383.474,-105.319 385.828,-98.7271"/>
<a xlink:href="dir_000009_000041.html" target="_top" xlink:title="4">
<text text-anchor="middle" x="390.168" y="-94.762" font-family="Helvetica,sans-Serif" font-size="10.00">4</text>
</a>
</g>
<!-- dir_ebac6f698c8ed4b70faacb8ef35cbe0d -->
<g id="node12" class="node"><title>dir_ebac6f698c8ed4b70faacb8ef35cbe0d</title>
<a xlink:href="dir_ebac6f698c8ed4b70faacb8ef35cbe0d.html" target="_top" xlink:title="root&#45;addons">
<polygon fill="white" stroke="red" points="598,-396 530,-396 530,-360 598,-360 598,-396"/>
<text text-anchor="middle" x="564" y="-375.5" font-family="Helvetica,sans-Serif" font-size="10.00">root&#45;addons</text>
</a>
</g>
<!-- dir_a21a804d6482c442bcd1b39e4dfcc179&#45;&gt;dir_ebac6f698c8ed4b70faacb8ef35cbe0d -->
<g id="edge10" class="edge"><title>dir_a21a804d6482c442bcd1b39e4dfcc179&#45;&gt;dir_ebac6f698c8ed4b70faacb8ef35cbe0d</title>
<path fill="none" stroke="black" d="M408.002,-439.376C437.538,-427.756 485.316,-408.958 520.224,-395.223"/>
<polygon fill="black" stroke="black" points="521.679,-398.412 529.703,-391.494 519.116,-391.898 521.679,-398.412"/>
<a xlink:href="dir_000009_000014.html" target="_top" xlink:title="11">
<text text-anchor="middle" x="519.374" y="-399.87" font-family="Helvetica,sans-Serif" font-size="10.00">11</text>
</a>
</g>
<!-- dir_a21a804d6482c442bcd1b39e4dfcc179&#45;&gt;dir_c4f4646ab0f4a2967be5b6215a500c22 -->
<g id="edge12" class="edge"><title>dir_a21a804d6482c442bcd1b39e4dfcc179&#45;&gt;dir_c4f4646ab0f4a2967be5b6215a500c22</title>
<path fill="none" stroke="black" d="M353.98,-443.239C307.111,-429.814 212.541,-394.78 179,-324 169.103,-303.115 165.615,-290.841 179,-272 187.399,-260.178 221.138,-249.577 248.882,-242.596"/>
<polygon fill="black" stroke="black" points="249.884,-245.955 258.774,-240.192 248.231,-239.153 249.884,-245.955"/>
<a xlink:href="dir_000009_000034.html" target="_top" xlink:title="24">
<text text-anchor="middle" x="247.061" y="-247.062" font-family="Helvetica,sans-Serif" font-size="10.00">24</text>
</a>
</g>
<!-- dir_8f68c37b22d514b4289e3a1255795d80&#45;&gt;dir_0af1587c8378955de40f48b4bd1869f0 -->
<g id="edge58" class="edge"><title>dir_8f68c37b22d514b4289e3a1255795d80&#45;&gt;dir_0af1587c8378955de40f48b4bd1869f0</title>
<path fill="none" stroke="black" d="M275.638,-375.912C207.931,-369.108 38,-341.339 38,-234 38,-234 38,-234 38,-162 38,-120.602 34.6141,-103.045 62,-72 86.6278,-44.0817 127.802,-30.3582 157.826,-23.7698"/>
<polygon fill="black" stroke="black" points="158.827,-27.1383 167.935,-21.7254 157.44,-20.2771 158.827,-27.1383"/>
<a xlink:href="dir_000022_000027.html" target="_top" xlink:title="9">
<text text-anchor="middle" x="155.867" y="-28.1336" font-family="Helvetica,sans-Serif" font-size="10.00">9</text>
</a>
</g>
<!-- dir_8f68c37b22d514b4289e3a1255795d80&#45;&gt;dir_ebac6f698c8ed4b70faacb8ef35cbe0d -->
<g id="edge60" class="edge"><title>dir_8f68c37b22d514b4289e3a1255795d80&#45;&gt;dir_ebac6f698c8ed4b70faacb8ef35cbe0d</title>
<path fill="none" stroke="black" d="M320.081,-396.217C327.846,-403.198 337.615,-410.357 348,-414 415.522,-437.685 440.428,-434.447 509,-414 517.82,-411.37 526.541,-406.824 534.351,-401.831"/>
<polygon fill="black" stroke="black" points="536.469,-404.623 542.737,-396.081 532.51,-398.849 536.469,-404.623"/>
<a xlink:href="dir_000022_000014.html" target="_top" xlink:title="1">
<text text-anchor="middle" x="535.109" y="-406.497" font-family="Helvetica,sans-Serif" font-size="10.00">1</text>
</a>
</g>
<!-- dir_f7cc278301683119f8719a92f4ffdd26&#45;&gt;dir_a21a804d6482c442bcd1b39e4dfcc179 -->
<g id="edge74" class="edge"><title>dir_f7cc278301683119f8719a92f4ffdd26&#45;&gt;dir_a21a804d6482c442bcd1b39e4dfcc179</title>
<path fill="none" stroke="black" d="M386.976,-396.413C387.707,-404.059 387.92,-413.108 387.615,-421.573"/>
<polygon fill="black" stroke="black" points="384.105,-421.626 386.952,-431.831 391.09,-422.078 384.105,-421.626"/>
<a xlink:href="dir_000023_000009.html" target="_top" xlink:title="1">
<text text-anchor="middle" x="381.503" y="-415.356" font-family="Helvetica,sans-Serif" font-size="10.00">1</text>
</a>
</g>
<!-- dir_f7cc278301683119f8719a92f4ffdd26&#45;&gt;dir_0af1587c8378955de40f48b4bd1869f0 -->
<g id="edge76" class="edge"><title>dir_f7cc278301683119f8719a92f4ffdd26&#45;&gt;dir_0af1587c8378955de40f48b4bd1869f0</title>
<path fill="none" stroke="black" d="M347.759,-363.034C344.824,-361.933 341.876,-360.902 339,-360 263.232,-336.239 214.174,-385.546 164,-324 97.1811,-242.036 152.298,-103.757 180.678,-45.3471"/>
<polygon fill="black" stroke="black" points="183.989,-46.5506 185.307,-36.0381 177.721,-43.4342 183.989,-46.5506"/>
<a xlink:href="dir_000023_000027.html" target="_top" xlink:title="2">
<text text-anchor="middle" x="184.931" y="-48.5334" font-family="Helvetica,sans-Serif" font-size="10.00">2</text>
</a>
</g>
<!-- dir_f7cc278301683119f8719a92f4ffdd26&#45;&gt;dir_c44c95bf3b41c3321c6014770d618ac8 -->
<g id="edge78" class="edge"><title>dir_f7cc278301683119f8719a92f4ffdd26&#45;&gt;dir_c44c95bf3b41c3321c6014770d618ac8</title>
<path fill="none" stroke="black" d="M347.741,-363.092C344.81,-361.978 341.868,-360.929 339,-360 269.655,-337.549 224.533,-380.917 179,-324 142.177,-277.971 200.074,-171.663 226,-144 248.683,-119.798 284.165,-105.775 311.028,-98.1163"/>
<polygon fill="black" stroke="black" points="312.103,-101.452 320.858,-95.4847 310.293,-94.6901 312.103,-101.452"/>
<a xlink:href="dir_000023_000041.html" target="_top" xlink:title="5">
<text text-anchor="middle" x="309.365" y="-102.624" font-family="Helvetica,sans-Serif" font-size="10.00">5</text>
</a>
</g>
<!-- dir_f7cc278301683119f8719a92f4ffdd26&#45;&gt;dir_c4f4646ab0f4a2967be5b6215a500c22 -->
<g id="edge80" class="edge"><title>dir_f7cc278301683119f8719a92f4ffdd26&#45;&gt;dir_c4f4646ab0f4a2967be5b6215a500c22</title>
<path fill="none" stroke="black" d="M347.924,-360.976C326.834,-349.407 302.317,-334.379 296,-324 284.767,-305.544 283.305,-280.895 284.352,-262.06"/>
<polygon fill="black" stroke="black" points="287.848,-262.254 285.175,-252.002 280.871,-261.683 287.848,-262.254"/>
<a xlink:href="dir_000023_000034.html" target="_top" xlink:title="3">
<text text-anchor="middle" x="290.385" y="-263.568" font-family="Helvetica,sans-Serif" font-size="10.00">3</text>
</a>
</g>
<!-- dir_0a0aa297e888439a92fbcfd5e567f128&#45;&gt;dir_0af1587c8378955de40f48b4bd1869f0 -->
<g id="edge20" class="edge"><title>dir_0a0aa297e888439a92fbcfd5e567f128&#45;&gt;dir_0af1587c8378955de40f48b4bd1869f0</title>
<path fill="none" stroke="black" d="M489.981,-287.937C514.539,-244.972 567.685,-135.537 514,-72 495.937,-50.6225 312.654,-29.8015 232.354,-21.6273"/>
<polygon fill="black" stroke="black" points="232.485,-18.1229 222.185,-20.6039 231.784,-25.0878 232.485,-18.1229"/>
<a xlink:href="dir_000026_000027.html" target="_top" xlink:title="26">
<text text-anchor="middle" x="236.346" y="-13.1578" font-family="Helvetica,sans-Serif" font-size="10.00">26</text>
</a>
</g>
<!-- dir_0a0aa297e888439a92fbcfd5e567f128&#45;&gt;dir_c44c95bf3b41c3321c6014770d618ac8 -->
<g id="edge22" class="edge"><title>dir_0a0aa297e888439a92fbcfd5e567f128&#45;&gt;dir_c44c95bf3b41c3321c6014770d618ac8</title>
<path fill="none" stroke="black" d="M472.374,-287.987C460.512,-256.981 433.706,-192.213 400,-144 392.963,-133.935 384.049,-123.953 375.598,-115.361"/>
<polygon fill="black" stroke="black" points="377.923,-112.738 368.349,-108.2 373.004,-117.718 377.923,-112.738"/>
<a xlink:href="dir_000026_000041.html" target="_top" xlink:title="9">
<text text-anchor="middle" x="382.475" y="-110.744" font-family="Helvetica,sans-Serif" font-size="10.00">9</text>
</a>
</g>
<!-- dir_0a0aa297e888439a92fbcfd5e567f128&#45;&gt;dir_c4f4646ab0f4a2967be5b6215a500c22 -->
<g id="edge24" class="edge"><title>dir_0a0aa297e888439a92fbcfd5e567f128&#45;&gt;dir_c4f4646ab0f4a2967be5b6215a500c22</title>
<path fill="none" stroke="black" d="M465.858,-287.673C460.869,-281.887 454.745,-275.973 448,-272 410.547,-249.937 361.051,-240.677 327.083,-236.794"/>
<polygon fill="black" stroke="black" points="327.379,-233.306 317.071,-235.754 326.655,-240.269 327.379,-233.306"/>
<a xlink:href="dir_000026_000034.html" target="_top" xlink:title="2">
<text text-anchor="middle" x="331.248" y="-228.353" font-family="Helvetica,sans-Serif" font-size="10.00">2</text>
</a>
</g>
<!-- dir_c44c95bf3b41c3321c6014770d618ac8&#45;&gt;dir_0af1587c8378955de40f48b4bd1869f0 -->
<g id="edge26" class="edge"><title>dir_c44c95bf3b41c3321c6014770d618ac8&#45;&gt;dir_0af1587c8378955de40f48b4bd1869f0</title>
<path fill="none" stroke="black" d="M320.999,-77.2936C296.135,-65.593 259.046,-48.1394 231.54,-35.1952"/>
<polygon fill="black" stroke="black" points="232.784,-31.9127 222.246,-30.8216 229.804,-38.2465 232.784,-31.9127"/>
<a xlink:href="dir_000041_000027.html" target="_top" xlink:title="33">
<text text-anchor="middle" x="237.246" y="-28.3742" font-family="Helvetica,sans-Serif" font-size="10.00">33</text>
</a>
</g>
<!-- dir_da9e88029a658bab9ad39bb8696ef9bc&#45;&gt;dir_0af1587c8378955de40f48b4bd1869f0 -->
<g id="edge28" class="edge"><title>dir_da9e88029a658bab9ad39bb8696ef9bc&#45;&gt;dir_0af1587c8378955de40f48b4bd1869f0</title>
<path fill="none" stroke="black" d="M214.624,-287.506C213.849,-277.079 212.867,-263.813 212,-252 206.56,-177.851 200.235,-90.4775 197.053,-46.4347"/>
<polygon fill="black" stroke="black" points="200.525,-45.9272 196.314,-36.2053 193.543,-46.4316 200.525,-45.9272"/>
<a xlink:href="dir_000045_000027.html" target="_top" xlink:title="14">
<text text-anchor="middle" x="203.616" y="-46.8079" font-family="Helvetica,sans-Serif" font-size="10.00">14</text>
</a>
</g>
<!-- dir_da9e88029a658bab9ad39bb8696ef9bc&#45;&gt;dir_c44c95bf3b41c3321c6014770d618ac8 -->
<g id="edge30" class="edge"><title>dir_da9e88029a658bab9ad39bb8696ef9bc&#45;&gt;dir_c44c95bf3b41c3321c6014770d618ac8</title>
<path fill="none" stroke="black" d="M214.689,-287.987C213.296,-255.831 214.751,-187.82 247,-144 262.637,-122.752 289.195,-109.024 311.154,-100.728"/>
<polygon fill="black" stroke="black" points="312.605,-103.927 320.864,-97.2913 310.269,-97.3287 312.605,-103.927"/>
<a xlink:href="dir_000045_000041.html" target="_top" xlink:title="10">
<text text-anchor="middle" x="310.164" y="-105.303" font-family="Helvetica,sans-Serif" font-size="10.00">10</text>
</a>
</g>
<!-- dir_da9e88029a658bab9ad39bb8696ef9bc&#45;&gt;dir_c4f4646ab0f4a2967be5b6215a500c22 -->
<g id="edge32" class="edge"><title>dir_da9e88029a658bab9ad39bb8696ef9bc&#45;&gt;dir_c4f4646ab0f4a2967be5b6215a500c22</title>
<path fill="none" stroke="black" d="M228.216,-287.831C236.066,-279.134 246.45,-268.578 256.405,-259.127"/>
<polygon fill="black" stroke="black" points="258.951,-261.538 263.885,-252.163 254.181,-256.415 258.951,-261.538"/>
<a xlink:href="dir_000045_000034.html" target="_top" xlink:title="4">
<text text-anchor="middle" x="258.254" y="-263.566" font-family="Helvetica,sans-Serif" font-size="10.00">4</text>
</a>
</g>
<!-- dir_ebac6f698c8ed4b70faacb8ef35cbe0d&#45;&gt;dir_8f68c37b22d514b4289e3a1255795d80 -->
<g id="edge42" class="edge"><title>dir_ebac6f698c8ed4b70faacb8ef35cbe0d&#45;&gt;dir_8f68c37b22d514b4289e3a1255795d80</title>
<path fill="none" stroke="black" d="M542.737,-396.081C533.092,-403.131 521.139,-410.38 509,-414 440.428,-434.447 415.522,-437.685 348,-414 340.86,-411.496 334.012,-407.329 327.906,-402.701"/>
<polygon fill="black" stroke="black" points="330.014,-399.903 320.081,-396.217 325.548,-405.293 330.014,-399.903"/>
<a xlink:href="dir_000014_000022.html" target="_top" xlink:title="9">
<text text-anchor="middle" x="334.594" y="-397.511" font-family="Helvetica,sans-Serif" font-size="10.00">9</text>
</a>
</g>
<!-- dir_ebac6f698c8ed4b70faacb8ef35cbe0d&#45;&gt;dir_0a0aa297e888439a92fbcfd5e567f128 -->
<g id="edge34" class="edge"><title>dir_ebac6f698c8ed4b70faacb8ef35cbe0d&#45;&gt;dir_0a0aa297e888439a92fbcfd5e567f128</title>
<path fill="none" stroke="black" d="M542.551,-359.831C532.182,-351.048 519.577,-340.371 508.335,-330.849"/>
<polygon fill="black" stroke="black" points="510.335,-327.956 500.442,-324.163 505.81,-333.297 510.335,-327.956"/>
<a xlink:href="dir_000014_000026.html" target="_top" xlink:title="1">
<text text-anchor="middle" x="514.913" y="-325.612" font-family="Helvetica,sans-Serif" font-size="10.00">1</text>
</a>
</g>
<!-- dir_ebac6f698c8ed4b70faacb8ef35cbe0d&#45;&gt;dir_0af1587c8378955de40f48b4bd1869f0 -->
<g id="edge36" class="edge"><title>dir_ebac6f698c8ed4b70faacb8ef35cbe0d&#45;&gt;dir_0af1587c8378955de40f48b4bd1869f0</title>
<path fill="none" stroke="black" d="M575.283,-359.667C590.577,-333.024 616,-281.578 616,-234 616,-234 616,-234 616,-162 616,-109.068 584.288,-97.675 538,-72 485.953,-43.1307 310.126,-26.6694 232.437,-20.6507"/>
<polygon fill="black" stroke="black" points="232.385,-17.1369 222.149,-19.8706 231.856,-24.1168 232.385,-17.1369"/>
<a xlink:href="dir_000014_000027.html" target="_top" xlink:title="20">
<text text-anchor="middle" x="236.184" y="-12.0774" font-family="Helvetica,sans-Serif" font-size="10.00">20</text>
</a>
</g>
<!-- dir_ebac6f698c8ed4b70faacb8ef35cbe0d&#45;&gt;dir_c44c95bf3b41c3321c6014770d618ac8 -->
<g id="edge38" class="edge"><title>dir_ebac6f698c8ed4b70faacb8ef35cbe0d&#45;&gt;dir_c44c95bf3b41c3321c6014770d618ac8</title>
<path fill="none" stroke="black" d="M564.741,-359.768C564.906,-337.831 562.829,-300.409 549,-272 512.706,-197.442 431.195,-139.32 383.876,-110.314"/>
<polygon fill="black" stroke="black" points="385.546,-107.234 375.174,-105.072 381.934,-113.231 385.546,-107.234"/>
<a xlink:href="dir_000014_000041.html" target="_top" xlink:title="2">
<text text-anchor="middle" x="390.09" y="-104.157" font-family="Helvetica,sans-Serif" font-size="10.00">2</text>
</a>
</g>
<!-- dir_ebac6f698c8ed4b70faacb8ef35cbe0d&#45;&gt;dir_c4f4646ab0f4a2967be5b6215a500c22 -->
<g id="edge40" class="edge"><title>dir_ebac6f698c8ed4b70faacb8ef35cbe0d&#45;&gt;dir_c4f4646ab0f4a2967be5b6215a500c22</title>
<path fill="none" stroke="black" d="M561.486,-359.778C557.14,-335.676 545.837,-293.718 518,-272 489.012,-249.384 385.316,-239.729 327.559,-236.03"/>
<polygon fill="black" stroke="black" points="327.532,-232.522 317.338,-235.407 327.106,-239.509 327.532,-232.522"/>
<a xlink:href="dir_000014_000034.html" target="_top" xlink:title="4">
<text text-anchor="middle" x="331.293" y="-227.406" font-family="Helvetica,sans-Serif" font-size="10.00">4</text>
</a>
</g>
<!-- dir_c4f4646ab0f4a2967be5b6215a500c22&#45;&gt;dir_0af1587c8378955de40f48b4bd1869f0 -->
<g id="edge44" class="edge"><title>dir_c4f4646ab0f4a2967be5b6215a500c22&#45;&gt;dir_0af1587c8378955de40f48b4bd1869f0</title>
<path fill="none" stroke="black" d="M271.51,-215.573C263.254,-205.599 253.631,-192.738 247,-180 223.984,-135.79 208.717,-79.4784 200.984,-46.2259"/>
<polygon fill="black" stroke="black" points="204.356,-45.267 198.737,-36.2844 197.528,-46.8099 204.356,-45.267"/>
<a xlink:href="dir_000034_000027.html" target="_top" xlink:title="22">
<text text-anchor="middle" x="207.917" y="-45.6474" font-family="Helvetica,sans-Serif" font-size="10.00">22</text>
</a>
</g>
<!-- dir_c4f4646ab0f4a2967be5b6215a500c22&#45;&gt;dir_c44c95bf3b41c3321c6014770d618ac8 -->
<g id="edge46" class="edge"><title>dir_c4f4646ab0f4a2967be5b6215a500c22&#45;&gt;dir_c44c95bf3b41c3321c6014770d618ac8</title>
<path fill="none" stroke="black" d="M305.033,-215.839C313.439,-205.937 323.03,-193.061 329,-180 337.935,-160.453 342.726,-136.583 345.262,-118.339"/>
<polygon fill="black" stroke="black" points="348.747,-118.678 346.508,-108.323 341.8,-117.814 348.747,-118.678"/>
<a xlink:href="dir_000034_000041.html" target="_top" xlink:title="8">
<text text-anchor="middle" x="351.12" y="-120.096" font-family="Helvetica,sans-Serif" font-size="10.00">8</text>
</a>
</g>
<!-- dir_c4f4646ab0f4a2967be5b6215a500c22&#45;&gt;dir_da9e88029a658bab9ad39bb8696ef9bc -->
<g id="edge48" class="edge"><title>dir_c4f4646ab0f4a2967be5b6215a500c22&#45;&gt;dir_da9e88029a658bab9ad39bb8696ef9bc</title>
<path fill="none" stroke="black" d="M275.563,-252.413C267.726,-261.079 257.421,-271.546 247.544,-280.922"/>
<polygon fill="black" stroke="black" points="245.056,-278.456 240.121,-287.831 249.825,-283.58 245.056,-278.456"/>
<a xlink:href="dir_000034_000045.html" target="_top" xlink:title="10">
<text text-anchor="middle" x="245.753" y="-271.429" font-family="Helvetica,sans-Serif" font-size="10.00">10</text>
</a>
</g>
<!-- dir_c4f4646ab0f4a2967be5b6215a500c22&#45;&gt;dir_5eb03804bf445589bf35c6aa84fb9a34 -->
<g id="edge50" class="edge"><title>dir_c4f4646ab0f4a2967be5b6215a500c22&#45;&gt;dir_5eb03804bf445589bf35c6aa84fb9a34</title>
<path fill="none" stroke="black" d="M282.048,-215.831C281.297,-208.131 281.076,-198.974 281.385,-190.417"/>
<polygon fill="black" stroke="black" points="284.879,-190.616 282.024,-180.413 277.893,-190.17 284.879,-190.616"/>
<a xlink:href="dir_000034_000038.html" target="_top" xlink:title="2">
<text text-anchor="middle" x="287.484" y="-191.884" font-family="Helvetica,sans-Serif" font-size="10.00">2</text>
</a>
</g>
<!-- dir_5eb03804bf445589bf35c6aa84fb9a34&#45;&gt;dir_0af1587c8378955de40f48b4bd1869f0 -->
<g id="edge52" class="edge"><title>dir_5eb03804bf445589bf35c6aa84fb9a34&#45;&gt;dir_0af1587c8378955de40f48b4bd1869f0</title>
<path fill="none" stroke="black" d="M276.221,-143.762C260.079,-118.768 230.968,-73.6924 212.335,-44.8409"/>
<polygon fill="black" stroke="black" points="215.048,-42.5912 206.683,-36.0896 209.168,-46.3889 215.048,-42.5912"/>
<a xlink:href="dir_000038_000027.html" target="_top" xlink:title="11">
<text text-anchor="middle" x="219.384" y="-41.5704" font-family="Helvetica,sans-Serif" font-size="10.00">11</text>
</a>
</g>
<!-- dir_5eb03804bf445589bf35c6aa84fb9a34&#45;&gt;dir_c44c95bf3b41c3321c6014770d618ac8 -->
<g id="edge54" class="edge"><title>dir_5eb03804bf445589bf35c6aa84fb9a34&#45;&gt;dir_c44c95bf3b41c3321c6014770d618ac8</title>
<path fill="none" stroke="black" d="M303.141,-143.831C310.122,-135.454 318.539,-125.353 326.188,-116.175"/>
<polygon fill="black" stroke="black" points="328.943,-118.336 332.656,-108.413 323.565,-113.855 328.943,-118.336"/>
<a xlink:href="dir_000038_000041.html" target="_top" xlink:title="8">
<text text-anchor="middle" x="328.823" y="-120.415" font-family="Helvetica,sans-Serif" font-size="10.00">8</text>
</a>
</g>
<!-- dir_5eb03804bf445589bf35c6aa84fb9a34&#45;&gt;dir_c4f4646ab0f4a2967be5b6215a500c22 -->
<g id="edge56" class="edge"><title>dir_5eb03804bf445589bf35c6aa84fb9a34&#45;&gt;dir_c4f4646ab0f4a2967be5b6215a500c22</title>
<path fill="none" stroke="black" d="M293.976,-180.413C294.707,-188.059 294.92,-197.108 294.615,-205.573"/>
<polygon fill="black" stroke="black" points="291.105,-205.626 293.952,-215.831 298.09,-206.078 291.105,-205.626"/>
<a xlink:href="dir_000038_000034.html" target="_top" xlink:title="7">
<text text-anchor="middle" x="288.503" y="-199.356" font-family="Helvetica,sans-Serif" font-size="10.00">7</text>
</a>
</g>
</g>
</svg>
