<?xml version="1.0" encoding="UTF-8" standalone="no"?>
<!DOCTYPE svg PUBLIC "-//W3C//DTD SVG 1.1//EN"
 "http://www.w3.org/Graphics/SVG/1.1/DTD/svg11.dtd">
<!-- Generated by graphviz version 2.26.3 (20100126.1600)
 -->
<!-- Title: src/analysis/slowcontrol/variables Pages: 1 -->
<svg width="144pt" height="297pt"
 viewBox="0.00 0.00 144.00 297.00" xmlns="http://www.w3.org/2000/svg" xmlns:xlink="http://www.w3.org/1999/xlink">
<g id="graph1" class="graph" transform="scale(1 1) rotate(0) translate(4 293)">
<title>src/analysis/slowcontrol/variables</title>
<polygon fill="white" stroke="white" points="-4,5 -4,-293 141,-293 141,5 -4,5"/>
<g id="graph2" class="cluster"><title>clusterdir_f7cc278301683119f8719a92f4ffdd26</title>
<a xlink:href="dir_f7cc278301683119f8719a92f4ffdd26.html" target="_top" xlink:title="slowcontrol">
<polygon fill="#ddddee" stroke="black" points="56,-208 56,-281 128,-281 128,-208 56,-208"/>
<text text-anchor="middle" x="92" y="-268" font-family="Helvetica,sans-Serif" font-size="10.00">slowcontrol</text>
</a>
</g>
<!-- dir_97d7ae7e922b766f0c3724741ecf7645 -->
<g id="node2" class="node"><title>dir_97d7ae7e922b766f0c3724741ecf7645</title>
<a xlink:href="dir_97d7ae7e922b766f0c3724741ecf7645.html" target="_top" xlink:title="variables">
<polygon fill="#eeeeff" stroke="black" points="120,-252 64,-252 64,-216 120,-216 120,-252"/>
<text text-anchor="middle" x="92" y="-231.5" font-family="Helvetica,sans-Serif" font-size="10.00">variables</text>
</a>
</g>
<!-- dir_4454ae6065d7630381486b11e7157943 -->
<g id="node3" class="node"><title>dir_4454ae6065d7630381486b11e7157943</title>
<a xlink:href="dir_4454ae6065d7630381486b11e7157943.html" target="_top" xlink:title="processors">
<polygon fill="none" stroke="black" points="64,-180 2.4869e-14,-180 0,-144 64,-144 64,-180"/>
<text text-anchor="middle" x="32" y="-159.5" font-family="Helvetica,sans-Serif" font-size="10.00">processors</text>
</a>
</g>
<!-- dir_97d7ae7e922b766f0c3724741ecf7645&#45;&gt;dir_4454ae6065d7630381486b11e7157943 -->
<g id="edge7" class="edge"><title>dir_97d7ae7e922b766f0c3724741ecf7645&#45;&gt;dir_4454ae6065d7630381486b11e7157943</title>
<path fill="none" stroke="black" d="M76.8595,-215.831C69.8783,-207.454 61.4609,-197.353 53.8124,-188.175"/>
<polygon fill="black" stroke="black" points="56.4351,-185.855 47.3444,-180.413 51.0575,-190.336 56.4351,-185.855"/>
<a xlink:href="dir_000025_000024.html" target="_top" xlink:title="1">
<text text-anchor="middle" x="60.9174" y="-184.299" font-family="Helvetica,sans-Serif" font-size="10.00">1</text>
</a>
</g>
<!-- dir_0af1587c8378955de40f48b4bd1869f0 -->
<g id="node4" class="node"><title>dir_0af1587c8378955de40f48b4bd1869f0</title>
<a xlink:href="dir_0af1587c8378955de40f48b4bd1869f0.html" target="_top" xlink:title="base">
<polygon fill="white" stroke="red" points="128,-36 74,-36 74,-1.77636e-14 128,-3.55271e-15 128,-36"/>
<text text-anchor="middle" x="101" y="-15.5" font-family="Helvetica,sans-Serif" font-size="10.00">base</text>
</a>
</g>
<!-- dir_97d7ae7e922b766f0c3724741ecf7645&#45;&gt;dir_0af1587c8378955de40f48b4bd1869f0 -->
<g id="edge9" class="edge"><title>dir_97d7ae7e922b766f0c3724741ecf7645&#45;&gt;dir_0af1587c8378955de40f48b4bd1869f0</title>
<path fill="none" stroke="black" d="M96.679,-215.567C103.734,-185.539 115.79,-124.168 111,-72 110.228,-63.5885 108.792,-54.5317 107.245,-46.2836"/>
<polygon fill="black" stroke="black" points="110.658,-45.499 105.267,-36.3779 103.793,-46.8697 110.658,-45.499"/>
<a xlink:href="dir_000025_000027.html" target="_top" xlink:title="1">
<text text-anchor="middle" x="114.146" y="-45.9682" font-family="Helvetica,sans-Serif" font-size="10.00">1</text>
</a>
</g>
<!-- dir_c4f4646ab0f4a2967be5b6215a500c22 -->
<g id="node5" class="node"><title>dir_c4f4646ab0f4a2967be5b6215a500c22</title>
<a xlink:href="dir_c4f4646ab0f4a2967be5b6215a500c22.html" target="_top" xlink:title="expconfig">
<polygon fill="white" stroke="red" points="102,-108 44,-108 44,-72 102,-72 102,-108"/>
<text text-anchor="middle" x="73" y="-87.5" font-family="Helvetica,sans-Serif" font-size="10.00">expconfig</text>
</a>
</g>
<!-- dir_97d7ae7e922b766f0c3724741ecf7645&#45;&gt;dir_c4f4646ab0f4a2967be5b6215a500c22 -->
<g id="edge11" class="edge"><title>dir_97d7ae7e922b766f0c3724741ecf7645&#45;&gt;dir_c4f4646ab0f4a2967be5b6215a500c22</title>
<path fill="none" stroke="black" d="M89.5936,-215.762C86.3529,-191.201 80.5535,-147.247 76.7412,-118.354"/>
<polygon fill="black" stroke="black" points="80.1649,-117.546 75.3868,-108.09 73.2251,-118.462 80.1649,-117.546"/>
<a xlink:href="dir_000025_000034.html" target="_top" xlink:title="1">
<text text-anchor="middle" x="83.4499" y="-118.238" font-family="Helvetica,sans-Serif" font-size="10.00">1</text>
</a>
</g>
<!-- dir_4454ae6065d7630381486b11e7157943&#45;&gt;dir_c4f4646ab0f4a2967be5b6215a500c22 -->
<g id="edge3" class="edge"><title>dir_4454ae6065d7630381486b11e7157943&#45;&gt;dir_c4f4646ab0f4a2967be5b6215a500c22</title>
<path fill="none" stroke="black" d="M42.346,-143.831C46.9237,-135.792 52.4052,-126.167 57.4588,-117.292"/>
<polygon fill="black" stroke="black" points="60.6077,-118.835 62.5147,-108.413 54.5248,-115.371 60.6077,-118.835"/>
<a xlink:href="dir_000024_000034.html" target="_top" xlink:title="2">
<text text-anchor="middle" x="61.2963" y="-120.864" font-family="Helvetica,sans-Serif" font-size="10.00">2</text>
</a>
</g>
<!-- dir_c4f4646ab0f4a2967be5b6215a500c22&#45;&gt;dir_0af1587c8378955de40f48b4bd1869f0 -->
<g id="edge5" class="edge"><title>dir_c4f4646ab0f4a2967be5b6215a500c22&#45;&gt;dir_0af1587c8378955de40f48b4bd1869f0</title>
<path fill="none" stroke="black" d="M80.0656,-71.8314C83.126,-63.9617 86.7779,-54.5712 90.1682,-45.8533"/>
<polygon fill="black" stroke="black" points="93.4768,-47.0019 93.8393,-36.4133 86.9527,-44.4647 93.4768,-47.0019"/>
<a xlink:href="dir_000034_000027.html" target="_top" xlink:title="22">
<text text-anchor="middle" x="94.8202" y="-48.8812" font-family="Helvetica,sans-Serif" font-size="10.00">22</text>
</a>
</g>
</g>
</svg>
