<?xml version="1.0" encoding="UTF-8" standalone="no"?>
<!DOCTYPE svg PUBLIC "-//W3C//DTD SVG 1.1//EN"
 "http://www.w3.org/Graphics/SVG/1.1/DTD/svg11.dtd">
<!-- Generated by graphviz version 2.26.3 (20100126.1600)
 -->
<!-- Title: src/analysis/slowcontrol/processors Pages: 1 -->
<svg width="138pt" height="297pt"
 viewBox="0.00 0.00 138.00 297.00" xmlns="http://www.w3.org/2000/svg" xmlns:xlink="http://www.w3.org/1999/xlink">
<g id="graph1" class="graph" transform="scale(1 1) rotate(0) translate(4 293)">
<title>src/analysis/slowcontrol/processors</title>
<polygon fill="white" stroke="white" points="-4,5 -4,-293 135,-293 135,5 -4,5"/>
<g id="graph2" class="cluster"><title>clusterdir_f7cc278301683119f8719a92f4ffdd26</title>
<a xlink:href="dir_f7cc278301683119f8719a92f4ffdd26.html" target="_top" xlink:title="slowcontrol">
<polygon fill="#ddddee" stroke="black" points="42,-208 42,-281 122,-281 122,-208 42,-208"/>
<text text-anchor="middle" x="82" y="-268" font-family="Helvetica,sans-Serif" font-size="10.00">slowcontrol</text>
</a>
</g>
<!-- dir_4454ae6065d7630381486b11e7157943 -->
<g id="node2" class="node"><title>dir_4454ae6065d7630381486b11e7157943</title>
<a xlink:href="dir_4454ae6065d7630381486b11e7157943.html" target="_top" xlink:title="processors">
<polygon fill="#eeeeff" stroke="black" points="114,-252 50,-252 50,-216 114,-216 114,-252"/>
<text text-anchor="middle" x="82" y="-231.5" font-family="Helvetica,sans-Serif" font-size="10.00">processors</text>
</a>
</g>
<!-- dir_a21a804d6482c442bcd1b39e4dfcc179 -->
<g id="node3" class="node"><title>dir_a21a804d6482c442bcd1b39e4dfcc179</title>
<a xlink:href="dir_a21a804d6482c442bcd1b39e4dfcc179.html" target="_top" xlink:title="physics">
<polygon fill="white" stroke="red" points="54,-180 2.13163e-14,-180 0,-144 54,-144 54,-180"/>
<text text-anchor="middle" x="27" y="-159.5" font-family="Helvetica,sans-Serif" font-size="10.00">physics</text>
</a>
</g>
<!-- dir_4454ae6065d7630381486b11e7157943&#45;&gt;dir_a21a804d6482c442bcd1b39e4dfcc179 -->
<g id="edge7" class="edge"><title>dir_4454ae6065d7630381486b11e7157943&#45;&gt;dir_a21a804d6482c442bcd1b39e4dfcc179</title>
<path fill="none" stroke="black" d="M68.1212,-215.831C61.7864,-207.539 54.1616,-197.557 47.2074,-188.453"/>
<polygon fill="black" stroke="black" points="49.9175,-186.235 41.0657,-180.413 44.3548,-190.485 49.9175,-186.235"/>
<a xlink:href="dir_000024_000009.html" target="_top" xlink:title="1">
<text text-anchor="middle" x="54.3558" y="-184.868" font-family="Helvetica,sans-Serif" font-size="10.00">1</text>
</a>
</g>
<!-- dir_c44c95bf3b41c3321c6014770d618ac8 -->
<g id="node4" class="node"><title>dir_c44c95bf3b41c3321c6014770d618ac8</title>
<a xlink:href="dir_c44c95bf3b41c3321c6014770d618ac8.html" target="_top" xlink:title="tree">
<polygon fill="none" stroke="black" points="100,-36 46,-36 46,-1.77636e-14 100,-3.55271e-15 100,-36"/>
<text text-anchor="middle" x="73" y="-15.5" font-family="Helvetica,sans-Serif" font-size="10.00">tree</text>
</a>
</g>
<!-- dir_4454ae6065d7630381486b11e7157943&#45;&gt;dir_c44c95bf3b41c3321c6014770d618ac8 -->
<g id="edge9" class="edge"><title>dir_4454ae6065d7630381486b11e7157943&#45;&gt;dir_c44c95bf3b41c3321c6014770d618ac8</title>
<path fill="none" stroke="black" d="M90.9169,-215.651C104.463,-185.226 127.04,-122.666 111,-72 107.918,-62.2664 102.382,-52.7695 96.4711,-44.5228"/>
<polygon fill="black" stroke="black" points="99.1248,-42.2316 90.2635,-36.4239 93.569,-46.49 99.1248,-42.2316"/>
<a xlink:href="dir_000024_000041.html" target="_top" xlink:title="2">
<text text-anchor="middle" x="103.565" y="-40.8573" font-family="Helvetica,sans-Serif" font-size="10.00">2</text>
</a>
</g>
<!-- dir_c4f4646ab0f4a2967be5b6215a500c22 -->
<g id="node5" class="node"><title>dir_c4f4646ab0f4a2967be5b6215a500c22</title>
<a xlink:href="dir_c4f4646ab0f4a2967be5b6215a500c22.html" target="_top" xlink:title="expconfig">
<polygon fill="white" stroke="red" points="102,-108 44,-108 44,-72 102,-72 102,-108"/>
<text text-anchor="middle" x="73" y="-87.5" font-family="Helvetica,sans-Serif" font-size="10.00">expconfig</text>
</a>
</g>
<!-- dir_4454ae6065d7630381486b11e7157943&#45;&gt;dir_c4f4646ab0f4a2967be5b6215a500c22 -->
<g id="edge11" class="edge"><title>dir_4454ae6065d7630381486b11e7157943&#45;&gt;dir_c4f4646ab0f4a2967be5b6215a500c22</title>
<path fill="none" stroke="black" d="M80.8601,-215.762C79.3251,-191.201 76.578,-147.247 74.7721,-118.354"/>
<polygon fill="black" stroke="black" points="78.2477,-117.852 74.1306,-108.09 71.2613,-118.288 78.2477,-117.852"/>
<a xlink:href="dir_000024_000034.html" target="_top" xlink:title="2">
<text text-anchor="middle" x="81.3055" y="-118.762" font-family="Helvetica,sans-Serif" font-size="10.00">2</text>
</a>
</g>
<!-- dir_a21a804d6482c442bcd1b39e4dfcc179&#45;&gt;dir_c44c95bf3b41c3321c6014770d618ac8 -->
<g id="edge3" class="edge"><title>dir_a21a804d6482c442bcd1b39e4dfcc179&#45;&gt;dir_c44c95bf3b41c3321c6014770d618ac8</title>
<path fill="none" stroke="black" d="M25.9005,-143.815C25.392,-125.199 26.3179,-95.7162 35,-72 38.5683,-62.2527 44.3663,-52.6451 50.3704,-44.2977"/>
<polygon fill="black" stroke="black" points="53.3387,-46.177 56.6169,-36.1021 47.7714,-41.9337 53.3387,-46.177"/>
<a xlink:href="dir_000009_000041.html" target="_top" xlink:title="4">
<text text-anchor="middle" x="53.4179" y="-48.257" font-family="Helvetica,sans-Serif" font-size="10.00">4</text>
</a>
</g>
<!-- dir_a21a804d6482c442bcd1b39e4dfcc179&#45;&gt;dir_c4f4646ab0f4a2967be5b6215a500c22 -->
<g id="edge5" class="edge"><title>dir_a21a804d6482c442bcd1b39e4dfcc179&#45;&gt;dir_c4f4646ab0f4a2967be5b6215a500c22</title>
<path fill="none" stroke="black" d="M38.6077,-143.831C43.7978,-135.708 50.0232,-125.964 55.7425,-117.012"/>
<polygon fill="black" stroke="black" points="58.8015,-118.725 61.236,-108.413 52.9026,-114.956 58.8015,-118.725"/>
<a xlink:href="dir_000009_000034.html" target="_top" xlink:title="24">
<text text-anchor="middle" x="59.2589" y="-120.782" font-family="Helvetica,sans-Serif" font-size="10.00">24</text>
</a>
</g>
<!-- dir_c4f4646ab0f4a2967be5b6215a500c22&#45;&gt;dir_c44c95bf3b41c3321c6014770d618ac8 -->
<g id="edge13" class="edge"><title>dir_c4f4646ab0f4a2967be5b6215a500c22&#45;&gt;dir_c44c95bf3b41c3321c6014770d618ac8</title>
<path fill="none" stroke="black" d="M73,-71.8314C73,-64.131 73,-54.9743 73,-46.4166"/>
<polygon fill="black" stroke="black" points="76.5001,-46.4132 73,-36.4133 69.5001,-46.4133 76.5001,-46.4132"/>
<a xlink:href="dir_000034_000041.html" target="_top" xlink:title="8">
<text text-anchor="middle" x="79.3393" y="-47.5079" font-family="Helvetica,sans-Serif" font-size="10.00">8</text>
</a>
</g>
</g>
</svg>
