<?xml version="1.0" encoding="UTF-8" standalone="no"?>
<!DOCTYPE svg PUBLIC "-//W3C//DTD SVG 1.1//EN"
 "http://www.w3.org/Graphics/SVG/1.1/DTD/svg11.dtd">
<!-- Generated by graphviz version 2.26.3 (20100126.1600)
 -->
<!-- Title: src/analysis/physics/calibration Pages: 1 -->
<svg width="158pt" height="369pt"
 viewBox="0.00 0.00 158.32 369.00" xmlns="http://www.w3.org/2000/svg" xmlns:xlink="http://www.w3.org/1999/xlink">
<g id="graph1" class="graph" transform="scale(1 1) rotate(0) translate(4 365)">
<title>src/analysis/physics/calibration</title>
<polygon fill="white" stroke="white" points="-4,5 -4,-365 155.315,-365 155.315,5 -4,5"/>
<g id="graph2" class="cluster"><title>clusterdir_a21a804d6482c442bcd1b39e4dfcc179</title>
<a xlink:href="dir_a21a804d6482c442bcd1b39e4dfcc179.html" target="_top" xlink:title="physics">
<polygon fill="#ddddee" stroke="black" points="30.6078,-280 30.6078,-353 106.608,-353 106.608,-280 30.6078,-280"/>
<text text-anchor="middle" x="68.6078" y="-340" font-family="Helvetica,sans-Serif" font-size="10.00">physics</text>
</a>
</g>
<!-- dir_57d93ab9ac23e1438fb66ed81acb5c38 -->
<g id="node2" class="node"><title>dir_57d93ab9ac23e1438fb66ed81acb5c38</title>
<a xlink:href="dir_57d93ab9ac23e1438fb66ed81acb5c38.html" target="_top" xlink:title="calibration">
<polygon fill="#eeeeff" stroke="black" points="98.6078,-324 38.6078,-324 38.6078,-288 98.6078,-288 98.6078,-324"/>
<text text-anchor="middle" x="68.6078" y="-303.5" font-family="Helvetica,sans-Serif" font-size="10.00">calibration</text>
</a>
</g>
<!-- dir_0a0aa297e888439a92fbcfd5e567f128 -->
<g id="node3" class="node"><title>dir_0a0aa297e888439a92fbcfd5e567f128</title>
<a xlink:href="dir_0a0aa297e888439a92fbcfd5e567f128.html" target="_top" xlink:title="utils">
<polygon fill="none" stroke="black" points="66.6078,-180 12.6078,-180 12.6078,-144 66.6078,-144 66.6078,-180"/>
<text text-anchor="middle" x="39.6078" y="-159.5" font-family="Helvetica,sans-Serif" font-size="10.00">utils</text>
</a>
</g>
<!-- dir_57d93ab9ac23e1438fb66ed81acb5c38&#45;&gt;dir_0a0aa297e888439a92fbcfd5e567f128 -->
<g id="edge7" class="edge"><title>dir_57d93ab9ac23e1438fb66ed81acb5c38&#45;&gt;dir_0a0aa297e888439a92fbcfd5e567f128</title>
<path fill="none" stroke="black" d="M64.3515,-287.537C61.9886,-277.12 59.0435,-263.853 56.6078,-252 52.3931,-231.491 48.0167,-208.27 44.7599,-190.552"/>
<polygon fill="black" stroke="black" points="48.1281,-189.514 42.8882,-180.305 41.2421,-190.771 48.1281,-189.514"/>
<a xlink:href="dir_000010_000026.html" target="_top" xlink:title="2">
<text text-anchor="middle" x="51.567" y="-190.04" font-family="Helvetica,sans-Serif" font-size="10.00">2</text>
</a>
</g>
<!-- dir_0af1587c8378955de40f48b4bd1869f0 -->
<g id="node4" class="node"><title>dir_0af1587c8378955de40f48b4bd1869f0</title>
<a xlink:href="dir_0af1587c8378955de40f48b4bd1869f0.html" target="_top" xlink:title="base">
<polygon fill="white" stroke="red" points="76.6078,-36 22.6078,-36 22.6078,-1.77636e-14 76.6078,-3.55271e-15 76.6078,-36"/>
<text text-anchor="middle" x="49.6078" y="-15.5" font-family="Helvetica,sans-Serif" font-size="10.00">base</text>
</a>
</g>
<!-- dir_57d93ab9ac23e1438fb66ed81acb5c38&#45;&gt;dir_0af1587c8378955de40f48b4bd1869f0 -->
<g id="edge9" class="edge"><title>dir_57d93ab9ac23e1438fb66ed81acb5c38&#45;&gt;dir_0af1587c8378955de40f48b4bd1869f0</title>
<path fill="none" stroke="black" d="M55.708,-287.904C39.8054,-264.375 13.6525,-221.381 3.60775,-180 -8.00472,-132.161 15.5586,-77.1693 33.049,-45.13"/>
<polygon fill="black" stroke="black" points="36.142,-46.7705 38.0113,-36.3419 30.0466,-43.3286 36.142,-46.7705"/>
<a xlink:href="dir_000010_000027.html" target="_top" xlink:title="3">
<text text-anchor="middle" x="36.847" y="-48.7966" font-family="Helvetica,sans-Serif" font-size="10.00">3</text>
</a>
</g>
<!-- dir_ebac6f698c8ed4b70faacb8ef35cbe0d -->
<g id="node5" class="node"><title>dir_ebac6f698c8ed4b70faacb8ef35cbe0d</title>
<a xlink:href="dir_ebac6f698c8ed4b70faacb8ef35cbe0d.html" target="_top" xlink:title="root&#45;addons">
<polygon fill="white" stroke="red" points="133.608,-252 65.6078,-252 65.6078,-216 133.608,-216 133.608,-252"/>
<text text-anchor="middle" x="99.6078" y="-231.5" font-family="Helvetica,sans-Serif" font-size="10.00">root&#45;addons</text>
</a>
</g>
<!-- dir_57d93ab9ac23e1438fb66ed81acb5c38&#45;&gt;dir_ebac6f698c8ed4b70faacb8ef35cbe0d -->
<g id="edge11" class="edge"><title>dir_57d93ab9ac23e1438fb66ed81acb5c38&#45;&gt;dir_ebac6f698c8ed4b70faacb8ef35cbe0d</title>
<path fill="none" stroke="black" d="M76.4304,-287.831C79.8187,-279.962 83.8618,-270.571 87.6154,-261.853"/>
<polygon fill="black" stroke="black" points="90.9399,-262.982 91.6798,-252.413 84.5105,-260.214 90.9399,-262.982"/>
<a xlink:href="dir_000010_000014.html" target="_top" xlink:title="2">
<text text-anchor="middle" x="92.1262" y="-264.907" font-family="Helvetica,sans-Serif" font-size="10.00">2</text>
</a>
</g>
<!-- dir_c4f4646ab0f4a2967be5b6215a500c22 -->
<g id="node6" class="node"><title>dir_c4f4646ab0f4a2967be5b6215a500c22</title>
<a xlink:href="dir_c4f4646ab0f4a2967be5b6215a500c22.html" target="_top" xlink:title="expconfig">
<polygon fill="white" stroke="red" points="107.608,-108 49.6078,-108 49.6078,-72 107.608,-72 107.608,-108"/>
<text text-anchor="middle" x="78.6078" y="-87.5" font-family="Helvetica,sans-Serif" font-size="10.00">expconfig</text>
</a>
</g>
<!-- dir_57d93ab9ac23e1438fb66ed81acb5c38&#45;&gt;dir_c4f4646ab0f4a2967be5b6215a500c22 -->
<g id="edge13" class="edge"><title>dir_57d93ab9ac23e1438fb66ed81acb5c38&#45;&gt;dir_c4f4646ab0f4a2967be5b6215a500c22</title>
<path fill="none" stroke="black" d="M98.6904,-292.611C114.885,-283.648 133.385,-270.148 142.608,-252 166.1,-205.775 129.41,-148.794 102.618,-116.205"/>
<polygon fill="black" stroke="black" points="105.197,-113.834 96.0624,-108.466 99.8555,-118.359 105.197,-113.834"/>
<a xlink:href="dir_000010_000034.html" target="_top" xlink:title="11">
<text text-anchor="middle" x="109.687" y="-112.241" font-family="Helvetica,sans-Serif" font-size="10.00">11</text>
</a>
</g>
<!-- dir_0a0aa297e888439a92fbcfd5e567f128&#45;&gt;dir_0af1587c8378955de40f48b4bd1869f0 -->
<g id="edge3" class="edge"><title>dir_0a0aa297e888439a92fbcfd5e567f128&#45;&gt;dir_0af1587c8378955de40f48b4bd1869f0</title>
<path fill="none" stroke="black" d="M38.9878,-143.688C38.5648,-125.473 38.421,-96.7489 40.6078,-72 41.3489,-63.6124 42.6549,-54.563 44.0461,-46.3143"/>
<polygon fill="black" stroke="black" points="47.5032,-46.8642 45.8177,-36.4043 40.6124,-45.6322 47.5032,-46.8642"/>
<a xlink:href="dir_000026_000027.html" target="_top" xlink:title="26">
<text text-anchor="middle" x="49.6657" y="-48.4023" font-family="Helvetica,sans-Serif" font-size="10.00">26</text>
</a>
</g>
<!-- dir_0a0aa297e888439a92fbcfd5e567f128&#45;&gt;dir_c4f4646ab0f4a2967be5b6215a500c22 -->
<g id="edge5" class="edge"><title>dir_0a0aa297e888439a92fbcfd5e567f128&#45;&gt;dir_c4f4646ab0f4a2967be5b6215a500c22</title>
<path fill="none" stroke="black" d="M49.4491,-143.831C53.8035,-135.792 59.0175,-126.167 63.8247,-117.292"/>
<polygon fill="black" stroke="black" points="66.9485,-118.873 68.6339,-108.413 60.7935,-115.539 66.9485,-118.873"/>
<a xlink:href="dir_000026_000034.html" target="_top" xlink:title="2">
<text text-anchor="middle" x="67.7331" y="-120.886" font-family="Helvetica,sans-Serif" font-size="10.00">2</text>
</a>
</g>
<!-- dir_ebac6f698c8ed4b70faacb8ef35cbe0d&#45;&gt;dir_0a0aa297e888439a92fbcfd5e567f128 -->
<g id="edge15" class="edge"><title>dir_ebac6f698c8ed4b70faacb8ef35cbe0d&#45;&gt;dir_0a0aa297e888439a92fbcfd5e567f128</title>
<path fill="none" stroke="black" d="M84.4672,-215.831C77.4861,-207.454 69.0687,-197.353 61.4202,-188.175"/>
<polygon fill="black" stroke="black" points="64.0428,-185.855 54.9521,-180.413 58.6652,-190.336 64.0428,-185.855"/>
<a xlink:href="dir_000014_000026.html" target="_top" xlink:title="1">
<text text-anchor="middle" x="68.5252" y="-184.299" font-family="Helvetica,sans-Serif" font-size="10.00">1</text>
</a>
</g>
<!-- dir_ebac6f698c8ed4b70faacb8ef35cbe0d&#45;&gt;dir_0af1587c8378955de40f48b4bd1869f0 -->
<g id="edge17" class="edge"><title>dir_ebac6f698c8ed4b70faacb8ef35cbe0d&#45;&gt;dir_0af1587c8378955de40f48b4bd1869f0</title>
<path fill="none" stroke="black" d="M107.425,-215.933C119.628,-184.846 139.551,-119.96 116.608,-72 109.903,-57.9841 97.5878,-46.444 85.3278,-37.6813"/>
<polygon fill="black" stroke="black" points="87.1776,-34.7079 76.9184,-32.0622 83.2885,-40.5282 87.1776,-34.7079"/>
<a xlink:href="dir_000014_000027.html" target="_top" xlink:title="20">
<text text-anchor="middle" x="91.7438" y="-31.8442" font-family="Helvetica,sans-Serif" font-size="10.00">20</text>
</a>
</g>
<!-- dir_ebac6f698c8ed4b70faacb8ef35cbe0d&#45;&gt;dir_c4f4646ab0f4a2967be5b6215a500c22 -->
<g id="edge19" class="edge"><title>dir_ebac6f698c8ed4b70faacb8ef35cbe0d&#45;&gt;dir_c4f4646ab0f4a2967be5b6215a500c22</title>
<path fill="none" stroke="black" d="M96.9481,-215.762C93.3662,-191.201 86.9563,-147.247 82.7427,-118.354"/>
<polygon fill="black" stroke="black" points="86.1523,-117.48 81.2458,-108.09 79.2256,-118.49 86.1523,-117.48"/>
<a xlink:href="dir_000014_000034.html" target="_top" xlink:title="4">
<text text-anchor="middle" x="89.4805" y="-118.127" font-family="Helvetica,sans-Serif" font-size="10.00">4</text>
</a>
</g>
<!-- dir_c4f4646ab0f4a2967be5b6215a500c22&#45;&gt;dir_0af1587c8378955de40f48b4bd1869f0 -->
<g id="edge21" class="edge"><title>dir_c4f4646ab0f4a2967be5b6215a500c22&#45;&gt;dir_0af1587c8378955de40f48b4bd1869f0</title>
<path fill="none" stroke="black" d="M71.2898,-71.8314C68.1201,-63.9617 64.3378,-54.5712 60.8264,-45.8533"/>
<polygon fill="black" stroke="black" points="64.0069,-44.3815 57.0242,-36.4133 57.5138,-46.9968 64.0069,-44.3815"/>
<a xlink:href="dir_000034_000027.html" target="_top" xlink:title="22">
<text text-anchor="middle" x="67.9835" y="-44.155" font-family="Helvetica,sans-Serif" font-size="10.00">22</text>
</a>
</g>
</g>
</svg>
