<?xml version="1.0" encoding="UTF-8" standalone="no"?>
<!DOCTYPE svg PUBLIC "-//W3C//DTD SVG 1.1//EN"
 "http://www.w3.org/Graphics/SVG/1.1/DTD/svg11.dtd">
<!-- Generated by graphviz version 2.26.3 (20100126.1600)
 -->
<!-- Title: src/analysis/physics/omega Pages: 1 -->
<svg width="260pt" height="369pt"
 viewBox="0.00 0.00 259.64 369.00" xmlns="http://www.w3.org/2000/svg" xmlns:xlink="http://www.w3.org/1999/xlink">
<g id="graph1" class="graph" transform="scale(1 1) rotate(0) translate(4 365)">
<title>src/analysis/physics/omega</title>
<polygon fill="white" stroke="white" points="-4,5 -4,-365 256.645,-365 256.645,5 -4,5"/>
<g id="graph2" class="cluster"><title>clusterdir_a21a804d6482c442bcd1b39e4dfcc179</title>
<a xlink:href="dir_a21a804d6482c442bcd1b39e4dfcc179.html" target="_top" xlink:title="physics">
<polygon fill="#ddddee" stroke="black" points="58.6446,-280 58.6446,-353 128.645,-353 128.645,-280 58.6446,-280"/>
<text text-anchor="middle" x="93.6446" y="-340" font-family="Helvetica,sans-Serif" font-size="10.00">physics</text>
</a>
</g>
<!-- dir_f60af29919b24042904573a5ae25dc4a -->
<g id="node2" class="node"><title>dir_f60af29919b24042904573a5ae25dc4a</title>
<a xlink:href="dir_f60af29919b24042904573a5ae25dc4a.html" target="_top" xlink:title="omega">
<polygon fill="#eeeeff" stroke="black" points="120.645,-324 66.6446,-324 66.6446,-288 120.645,-288 120.645,-324"/>
<text text-anchor="middle" x="93.6446" y="-303.5" font-family="Helvetica,sans-Serif" font-size="10.00">omega</text>
</a>
</g>
<!-- dir_0a0aa297e888439a92fbcfd5e567f128 -->
<g id="node3" class="node"><title>dir_0a0aa297e888439a92fbcfd5e567f128</title>
<a xlink:href="dir_0a0aa297e888439a92fbcfd5e567f128.html" target="_top" xlink:title="utils">
<polygon fill="none" stroke="black" points="65.6446,-180 11.6446,-180 11.6446,-144 65.6446,-144 65.6446,-180"/>
<text text-anchor="middle" x="38.6446" y="-159.5" font-family="Helvetica,sans-Serif" font-size="10.00">utils</text>
</a>
</g>
<!-- dir_f60af29919b24042904573a5ae25dc4a&#45;&gt;dir_0a0aa297e888439a92fbcfd5e567f128 -->
<g id="edge7" class="edge"><title>dir_f60af29919b24042904573a5ae25dc4a&#45;&gt;dir_0a0aa297e888439a92fbcfd5e567f128</title>
<path fill="none" stroke="black" d="M86.6788,-287.762C77.2151,-262.985 60.2135,-218.471 49.1839,-189.594"/>
<polygon fill="black" stroke="black" points="52.3916,-188.183 45.5538,-180.09 45.8523,-190.68 52.3916,-188.183"/>
<a xlink:href="dir_000018_000026.html" target="_top" xlink:title="16">
<text text-anchor="middle" x="56.3265" y="-188.028" font-family="Helvetica,sans-Serif" font-size="10.00">16</text>
</a>
</g>
<!-- dir_0af1587c8378955de40f48b4bd1869f0 -->
<g id="node4" class="node"><title>dir_0af1587c8378955de40f48b4bd1869f0</title>
<a xlink:href="dir_0af1587c8378955de40f48b4bd1869f0.html" target="_top" xlink:title="base">
<polygon fill="white" stroke="red" points="122.645,-36 68.6446,-36 68.6446,-1.77636e-14 122.645,-3.55271e-15 122.645,-36"/>
<text text-anchor="middle" x="95.6446" y="-15.5" font-family="Helvetica,sans-Serif" font-size="10.00">base</text>
</a>
</g>
<!-- dir_f60af29919b24042904573a5ae25dc4a&#45;&gt;dir_0af1587c8378955de40f48b4bd1869f0 -->
<g id="edge9" class="edge"><title>dir_f60af29919b24042904573a5ae25dc4a&#45;&gt;dir_0af1587c8378955de40f48b4bd1869f0</title>
<path fill="none" stroke="black" d="M72.0537,-287.934C40.7006,-259.373 -12.1633,-201.146 2.64461,-144 13.0448,-103.864 44.0549,-66.8351 67.4304,-43.4531"/>
<polygon fill="black" stroke="black" points="69.996,-45.84 74.7158,-36.3545 65.1109,-40.8264 69.996,-45.84"/>
<a xlink:href="dir_000018_000027.html" target="_top" xlink:title="12">
<text text-anchor="middle" x="69.4029" y="-47.8821" font-family="Helvetica,sans-Serif" font-size="10.00">12</text>
</a>
</g>
<!-- dir_ebac6f698c8ed4b70faacb8ef35cbe0d -->
<g id="node5" class="node"><title>dir_ebac6f698c8ed4b70faacb8ef35cbe0d</title>
<a xlink:href="dir_ebac6f698c8ed4b70faacb8ef35cbe0d.html" target="_top" xlink:title="root&#45;addons">
<polygon fill="white" stroke="red" points="192.645,-252 124.645,-252 124.645,-216 192.645,-216 192.645,-252"/>
<text text-anchor="middle" x="158.645" y="-231.5" font-family="Helvetica,sans-Serif" font-size="10.00">root&#45;addons</text>
</a>
</g>
<!-- dir_f60af29919b24042904573a5ae25dc4a&#45;&gt;dir_ebac6f698c8ed4b70faacb8ef35cbe0d -->
<g id="edge11" class="edge"><title>dir_f60af29919b24042904573a5ae25dc4a&#45;&gt;dir_ebac6f698c8ed4b70faacb8ef35cbe0d</title>
<path fill="none" stroke="black" d="M110.047,-287.831C117.686,-279.369 126.913,-269.149 135.265,-259.897"/>
<polygon fill="black" stroke="black" points="137.918,-262.181 142.022,-252.413 132.723,-257.491 137.918,-262.181"/>
<a xlink:href="dir_000018_000014.html" target="_top" xlink:title="1">
<text text-anchor="middle" x="137.617" y="-264.252" font-family="Helvetica,sans-Serif" font-size="10.00">1</text>
</a>
</g>
<!-- dir_c4f4646ab0f4a2967be5b6215a500c22 -->
<g id="node6" class="node"><title>dir_c4f4646ab0f4a2967be5b6215a500c22</title>
<a xlink:href="dir_c4f4646ab0f4a2967be5b6215a500c22.html" target="_top" xlink:title="expconfig">
<polygon fill="white" stroke="red" points="124.645,-108 66.6446,-108 66.6446,-72 124.645,-72 124.645,-108"/>
<text text-anchor="middle" x="95.6446" y="-87.5" font-family="Helvetica,sans-Serif" font-size="10.00">expconfig</text>
</a>
</g>
<!-- dir_f60af29919b24042904573a5ae25dc4a&#45;&gt;dir_c4f4646ab0f4a2967be5b6215a500c22 -->
<g id="edge13" class="edge"><title>dir_f60af29919b24042904573a5ae25dc4a&#45;&gt;dir_c4f4646ab0f4a2967be5b6215a500c22</title>
<path fill="none" stroke="black" d="M93.8117,-287.955C94.1595,-250.394 94.9636,-163.554 95.3816,-118.41"/>
<polygon fill="black" stroke="black" points="98.8838,-118.177 95.4766,-108.145 91.8841,-118.112 98.8838,-118.177"/>
<a xlink:href="dir_000018_000034.html" target="_top" xlink:title="2">
<text text-anchor="middle" x="101.69" y="-119.298" font-family="Helvetica,sans-Serif" font-size="10.00">2</text>
</a>
</g>
<!-- dir_8f68c37b22d514b4289e3a1255795d80 -->
<g id="node7" class="node"><title>dir_8f68c37b22d514b4289e3a1255795d80</title>
<a xlink:href="dir_8f68c37b22d514b4289e3a1255795d80.html" target="_top" xlink:title="plot">
<polygon fill="none" stroke="black" points="251.645,-180 197.645,-180 197.645,-144 251.645,-144 251.645,-180"/>
<text text-anchor="middle" x="224.645" y="-159.5" font-family="Helvetica,sans-Serif" font-size="10.00">plot</text>
</a>
</g>
<!-- dir_f60af29919b24042904573a5ae25dc4a&#45;&gt;dir_8f68c37b22d514b4289e3a1255795d80 -->
<g id="edge15" class="edge"><title>dir_f60af29919b24042904573a5ae25dc4a&#45;&gt;dir_8f68c37b22d514b4289e3a1255795d80</title>
<path fill="none" stroke="black" d="M120.811,-299.371C145.502,-291.94 181.115,-277.456 201.645,-252 215.739,-234.523 221.306,-209.438 223.452,-190.188"/>
<polygon fill="black" stroke="black" points="226.942,-190.446 224.324,-180.18 219.969,-189.838 226.942,-190.446"/>
<a xlink:href="dir_000018_000022.html" target="_top" xlink:title="7">
<text text-anchor="middle" x="229.459" y="-191.774" font-family="Helvetica,sans-Serif" font-size="10.00">7</text>
</a>
</g>
<!-- dir_0a0aa297e888439a92fbcfd5e567f128&#45;&gt;dir_0af1587c8378955de40f48b4bd1869f0 -->
<g id="edge3" class="edge"><title>dir_0a0aa297e888439a92fbcfd5e567f128&#45;&gt;dir_0af1587c8378955de40f48b4bd1869f0</title>
<path fill="none" stroke="black" d="M40.312,-143.756C42.5123,-125.093 47.3812,-95.5734 57.6446,-72 61.7882,-62.483 67.7545,-52.9427 73.7358,-44.5863"/>
<polygon fill="black" stroke="black" points="76.7057,-46.4594 79.8986,-36.3571 71.1027,-42.2633 76.7057,-46.4594"/>
<a xlink:href="dir_000026_000027.html" target="_top" xlink:title="26">
<text text-anchor="middle" x="76.8236" y="-48.5385" font-family="Helvetica,sans-Serif" font-size="10.00">26</text>
</a>
</g>
<!-- dir_0a0aa297e888439a92fbcfd5e567f128&#45;&gt;dir_c4f4646ab0f4a2967be5b6215a500c22 -->
<g id="edge5" class="edge"><title>dir_0a0aa297e888439a92fbcfd5e567f128&#45;&gt;dir_c4f4646ab0f4a2967be5b6215a500c22</title>
<path fill="none" stroke="black" d="M53.0281,-143.831C59.5932,-135.539 67.4953,-125.557 74.7024,-116.453"/>
<polygon fill="black" stroke="black" points="77.6045,-118.426 81.0674,-108.413 72.1162,-114.081 77.6045,-118.426"/>
<a xlink:href="dir_000026_000034.html" target="_top" xlink:title="2">
<text text-anchor="middle" x="77.5995" y="-120.507" font-family="Helvetica,sans-Serif" font-size="10.00">2</text>
</a>
</g>
<!-- dir_ebac6f698c8ed4b70faacb8ef35cbe0d&#45;&gt;dir_0a0aa297e888439a92fbcfd5e567f128 -->
<g id="edge17" class="edge"><title>dir_ebac6f698c8ed4b70faacb8ef35cbe0d&#45;&gt;dir_0a0aa297e888439a92fbcfd5e567f128</title>
<path fill="none" stroke="black" d="M128.364,-215.831C112.045,-206.04 91.8025,-193.895 74.6773,-183.62"/>
<polygon fill="black" stroke="black" points="76.4191,-180.583 66.0434,-178.439 72.8176,-186.586 76.4191,-180.583"/>
<a xlink:href="dir_000014_000026.html" target="_top" xlink:title="1">
<text text-anchor="middle" x="80.9622" y="-177.498" font-family="Helvetica,sans-Serif" font-size="10.00">1</text>
</a>
</g>
<!-- dir_ebac6f698c8ed4b70faacb8ef35cbe0d&#45;&gt;dir_0af1587c8378955de40f48b4bd1869f0 -->
<g id="edge19" class="edge"><title>dir_ebac6f698c8ed4b70faacb8ef35cbe0d&#45;&gt;dir_0af1587c8378955de40f48b4bd1869f0</title>
<path fill="none" stroke="black" d="M158.511,-215.795C157.709,-185.047 153.54,-121.357 133.645,-72 129.764,-62.3727 123.875,-52.8002 117.883,-44.4481"/>
<polygon fill="black" stroke="black" points="120.501,-42.1068 111.682,-36.235 114.914,-46.3247 120.501,-42.1068"/>
<a xlink:href="dir_000014_000027.html" target="_top" xlink:title="20">
<text text-anchor="middle" x="124.933" y="-40.7647" font-family="Helvetica,sans-Serif" font-size="10.00">20</text>
</a>
</g>
<!-- dir_ebac6f698c8ed4b70faacb8ef35cbe0d&#45;&gt;dir_c4f4646ab0f4a2967be5b6215a500c22 -->
<g id="edge21" class="edge"><title>dir_ebac6f698c8ed4b70faacb8ef35cbe0d&#45;&gt;dir_c4f4646ab0f4a2967be5b6215a500c22</title>
<path fill="none" stroke="black" d="M150.666,-215.762C139.825,-190.985 120.351,-146.471 107.717,-117.594"/>
<polygon fill="black" stroke="black" points="110.774,-115.848 103.559,-108.09 104.361,-118.654 110.774,-115.848"/>
<a xlink:href="dir_000014_000034.html" target="_top" xlink:title="4">
<text text-anchor="middle" x="114.816" y="-115.504" font-family="Helvetica,sans-Serif" font-size="10.00">4</text>
</a>
</g>
<!-- dir_ebac6f698c8ed4b70faacb8ef35cbe0d&#45;&gt;dir_8f68c37b22d514b4289e3a1255795d80 -->
<g id="edge23" class="edge"><title>dir_ebac6f698c8ed4b70faacb8ef35cbe0d&#45;&gt;dir_8f68c37b22d514b4289e3a1255795d80</title>
<path fill="none" stroke="black" d="M169.347,-215.831C176.402,-207.219 185.79,-196.785 194.874,-187.405"/>
<polygon fill="black" stroke="black" points="197.495,-189.732 202.044,-180.163 192.521,-184.807 197.495,-189.732"/>
<a xlink:href="dir_000014_000022.html" target="_top" xlink:title="9">
<text text-anchor="middle" x="196.984" y="-191.784" font-family="Helvetica,sans-Serif" font-size="10.00">9</text>
</a>
</g>
<!-- dir_c4f4646ab0f4a2967be5b6215a500c22&#45;&gt;dir_0af1587c8378955de40f48b4bd1869f0 -->
<g id="edge25" class="edge"><title>dir_c4f4646ab0f4a2967be5b6215a500c22&#45;&gt;dir_0af1587c8378955de40f48b4bd1869f0</title>
<path fill="none" stroke="black" d="M95.6446,-71.8314C95.6446,-64.131 95.6446,-54.9743 95.6446,-46.4166"/>
<polygon fill="black" stroke="black" points="99.1447,-46.4132 95.6446,-36.4133 92.1447,-46.4133 99.1447,-46.4132"/>
<a xlink:href="dir_000034_000027.html" target="_top" xlink:title="22">
<text text-anchor="middle" x="101.984" y="-47.5079" font-family="Helvetica,sans-Serif" font-size="10.00">22</text>
</a>
</g>
<!-- dir_8f68c37b22d514b4289e3a1255795d80&#45;&gt;dir_0af1587c8378955de40f48b4bd1869f0 -->
<g id="edge27" class="edge"><title>dir_8f68c37b22d514b4289e3a1255795d80&#45;&gt;dir_0af1587c8378955de40f48b4bd1869f0</title>
<path fill="none" stroke="black" d="M219.791,-143.658C213.876,-124.099 202.295,-93.0966 183.645,-72 169.52,-56.0232 149.519,-43.2338 132.153,-34.1197"/>
<polygon fill="black" stroke="black" points="133.337,-30.798 122.83,-29.4375 130.196,-37.0534 133.337,-30.798"/>
<a xlink:href="dir_000022_000027.html" target="_top" xlink:title="9">
<text text-anchor="middle" x="137.824" y="-27.3741" font-family="Helvetica,sans-Serif" font-size="10.00">9</text>
</a>
</g>
<!-- dir_8f68c37b22d514b4289e3a1255795d80&#45;&gt;dir_ebac6f698c8ed4b70faacb8ef35cbe0d -->
<g id="edge29" class="edge"><title>dir_8f68c37b22d514b4289e3a1255795d80&#45;&gt;dir_ebac6f698c8ed4b70faacb8ef35cbe0d</title>
<path fill="none" stroke="black" d="M213.742,-180.413C206.697,-188.994 197.38,-199.341 188.366,-208.646"/>
<polygon fill="black" stroke="black" points="185.801,-206.263 181.252,-215.831 190.775,-211.188 185.801,-206.263"/>
<a xlink:href="dir_000022_000014.html" target="_top" xlink:title="1">
<text text-anchor="middle" x="186.312" y="-199.211" font-family="Helvetica,sans-Serif" font-size="10.00">1</text>
</a>
</g>
</g>
</svg>
