<?xml version="1.0" encoding="UTF-8" standalone="no"?>
<!DOCTYPE svg PUBLIC "-//W3C//DTD SVG 1.1//EN"
 "http://www.w3.org/Graphics/SVG/1.1/DTD/svg11.dtd">
<!-- Generated by graphviz version 2.26.3 (20100126.1600)
 -->
<!-- Title: src/analysis/physics Pages: 1 -->
<svg width="1218pt" height="449pt"
 viewBox="0.00 0.00 1218.00 449.00" xmlns="http://www.w3.org/2000/svg" xmlns:xlink="http://www.w3.org/1999/xlink">
<g id="graph1" class="graph" transform="scale(1 1) rotate(0) translate(4 445)">
<title>src/analysis/physics</title>
<polygon fill="white" stroke="white" points="-4,5 -4,-445 1215,-445 1215,5 -4,5"/>
<g id="graph2" class="cluster"><title>clusterdir_2eec376824a17f48dc36b4bd0c810e01</title>
<a xlink:href="dir_2eec376824a17f48dc36b4bd0c810e01.html" target="_top" xlink:title="analysis">
<polygon fill="#ddddee" stroke="black" points="203,-344 203,-433 871,-433 871,-344 203,-344"/>
<text text-anchor="middle" x="537" y="-420" font-family="Helvetica,sans-Serif" font-size="10.00">analysis</text>
</a>
</g>
<g id="graph3" class="cluster"><title>clusterdir_a21a804d6482c442bcd1b39e4dfcc179</title>
<a xlink:href="dir_a21a804d6482c442bcd1b39e4dfcc179.html" target="_top">
<polygon fill="#eeeeff" stroke="black" points="211,-352 211,-404 863,-404 863,-352 211,-352"/>
</a>
</g>
<!-- dir_a21a804d6482c442bcd1b39e4dfcc179 -->
<g id="node3" class="node"><title>dir_a21a804d6482c442bcd1b39e4dfcc179</title>
<text text-anchor="middle" x="828" y="-375.5" font-family="Helvetica,sans-Serif" font-size="10.00">physics</text>
</g>
<!-- dir_c44c95bf3b41c3321c6014770d618ac8 -->
<g id="node14" class="node"><title>dir_c44c95bf3b41c3321c6014770d618ac8</title>
<a xlink:href="dir_c44c95bf3b41c3321c6014770d618ac8.html" target="_top" xlink:title="tree">
<polygon fill="none" stroke="black" points="840,-108 786,-108 786,-72 840,-72 840,-108"/>
<text text-anchor="middle" x="813" y="-87.5" font-family="Helvetica,sans-Serif" font-size="10.00">tree</text>
</a>
</g>
<!-- dir_a21a804d6482c442bcd1b39e4dfcc179&#45;&gt;dir_c44c95bf3b41c3321c6014770d618ac8 -->
<g id="edge4" class="edge"><title>dir_a21a804d6482c442bcd1b39e4dfcc179&#45;&gt;dir_c44c95bf3b41c3321c6014770d618ac8</title>
<path fill="none" stroke="black" d="M855.353,-376.558C916.201,-372.721 1059.71,-359.971 1089,-324 1145.86,-254.174 1072.03,-192.254 996,-144 950.624,-115.2 889.259,-101.215 850.398,-94.8346"/>
<polygon fill="black" stroke="black" points="850.484,-91.3062 840.065,-93.2307 849.41,-98.2234 850.484,-91.3062"/>
<a xlink:href="dir_000009_000041.html" target="_top" xlink:title="4">
<text text-anchor="middle" x="854.472" y="-86.5519" font-family="Helvetica,sans-Serif" font-size="10.00">4</text>
</a>
</g>
<!-- dir_4d4314fec0337faafb4fd99dc7917bfa -->
<g id="node18" class="node"><title>dir_4d4314fec0337faafb4fd99dc7917bfa</title>
<a xlink:href="dir_4d4314fec0337faafb4fd99dc7917bfa.html" target="_top" xlink:title="input">
<polygon fill="white" stroke="red" points="1080,-324 1026,-324 1026,-288 1080,-288 1080,-324"/>
<text text-anchor="middle" x="1053" y="-303.5" font-family="Helvetica,sans-Serif" font-size="10.00">input</text>
</a>
</g>
<!-- dir_a21a804d6482c442bcd1b39e4dfcc179&#45;&gt;dir_4d4314fec0337faafb4fd99dc7917bfa -->
<g id="edge6" class="edge"><title>dir_a21a804d6482c442bcd1b39e4dfcc179&#45;&gt;dir_4d4314fec0337faafb4fd99dc7917bfa</title>
<path fill="none" stroke="black" d="M855.166,-371.196C891.379,-361.861 957.263,-343.954 1012,-324 1013.42,-323.484 1014.85,-322.943 1016.3,-322.384"/>
<polygon fill="black" stroke="black" points="1017.91,-325.508 1025.85,-318.5 1015.27,-319.023 1017.91,-325.508"/>
<a xlink:href="dir_000009_000003.html" target="_top" xlink:title="1">
<text text-anchor="middle" x="1015.64" y="-326.992" font-family="Helvetica,sans-Serif" font-size="10.00">1</text>
</a>
</g>
<!-- dir_57d93ab9ac23e1438fb66ed81acb5c38 -->
<g id="node4" class="node"><title>dir_57d93ab9ac23e1438fb66ed81acb5c38</title>
<a xlink:href="dir_57d93ab9ac23e1438fb66ed81acb5c38.html" target="_top" xlink:title="calibration">
<polygon fill="white" stroke="black" points="567,-396 507,-396 507,-360 567,-360 567,-396"/>
<text text-anchor="middle" x="537" y="-375.5" font-family="Helvetica,sans-Serif" font-size="10.00">calibration</text>
</a>
</g>
<!-- dir_0a0aa297e888439a92fbcfd5e567f128 -->
<g id="node12" class="node"><title>dir_0a0aa297e888439a92fbcfd5e567f128</title>
<a xlink:href="dir_0a0aa297e888439a92fbcfd5e567f128.html" target="_top" xlink:title="utils">
<polygon fill="none" stroke="black" points="669,-252 615,-252 615,-216 669,-216 669,-252"/>
<text text-anchor="middle" x="642" y="-231.5" font-family="Helvetica,sans-Serif" font-size="10.00">utils</text>
</a>
</g>
<!-- dir_57d93ab9ac23e1438fb66ed81acb5c38&#45;&gt;dir_0a0aa297e888439a92fbcfd5e567f128 -->
<g id="edge20" class="edge"><title>dir_57d93ab9ac23e1438fb66ed81acb5c38&#45;&gt;dir_0a0aa297e888439a92fbcfd5e567f128</title>
<path fill="none" stroke="black" d="M550.298,-359.762C568.602,-334.66 601.676,-289.302 622.701,-260.467"/>
<polygon fill="black" stroke="black" points="625.746,-262.232 628.81,-252.09 620.09,-258.108 625.746,-262.232"/>
<a xlink:href="dir_000010_000026.html" target="_top" xlink:title="2">
<text text-anchor="middle" x="625.922" y="-264.309" font-family="Helvetica,sans-Serif" font-size="10.00">2</text>
</a>
</g>
<!-- dir_0af1587c8378955de40f48b4bd1869f0 -->
<g id="node13" class="node"><title>dir_0af1587c8378955de40f48b4bd1869f0</title>
<a xlink:href="dir_0af1587c8378955de40f48b4bd1869f0.html" target="_top" xlink:title="base">
<polygon fill="white" stroke="red" points="659,-36 605,-36 605,-1.77636e-14 659,-3.55271e-15 659,-36"/>
<text text-anchor="middle" x="632" y="-15.5" font-family="Helvetica,sans-Serif" font-size="10.00">base</text>
</a>
</g>
<!-- dir_57d93ab9ac23e1438fb66ed81acb5c38&#45;&gt;dir_0af1587c8378955de40f48b4bd1869f0 -->
<g id="edge22" class="edge"><title>dir_57d93ab9ac23e1438fb66ed81acb5c38&#45;&gt;dir_0af1587c8378955de40f48b4bd1869f0</title>
<path fill="none" stroke="black" d="M518.551,-359.705C512.358,-354.187 505.19,-348.427 498,-344 387.665,-276.057 228,-363.577 228,-234 228,-234 228,-234 228,-162 228,-84.5104 495.048,-37.8374 594.91,-23.093"/>
<polygon fill="black" stroke="black" points="595.472,-26.5483 604.865,-21.6477 594.466,-19.6209 595.472,-26.5483"/>
<a xlink:href="dir_000010_000027.html" target="_top" xlink:title="3">
<text text-anchor="middle" x="592.322" y="-27.3745" font-family="Helvetica,sans-Serif" font-size="10.00">3</text>
</a>
</g>
<!-- dir_ebac6f698c8ed4b70faacb8ef35cbe0d -->
<g id="node15" class="node"><title>dir_ebac6f698c8ed4b70faacb8ef35cbe0d</title>
<a xlink:href="dir_ebac6f698c8ed4b70faacb8ef35cbe0d.html" target="_top" xlink:title="root&#45;addons">
<polygon fill="white" stroke="red" points="818,-324 750,-324 750,-288 818,-288 818,-324"/>
<text text-anchor="middle" x="784" y="-303.5" font-family="Helvetica,sans-Serif" font-size="10.00">root&#45;addons</text>
</a>
</g>
<!-- dir_57d93ab9ac23e1438fb66ed81acb5c38&#45;&gt;dir_ebac6f698c8ed4b70faacb8ef35cbe0d -->
<g id="edge24" class="edge"><title>dir_57d93ab9ac23e1438fb66ed81acb5c38&#45;&gt;dir_ebac6f698c8ed4b70faacb8ef35cbe0d</title>
<path fill="none" stroke="black" d="M553.781,-359.853C560.186,-353.939 567.907,-347.898 576,-344 604.293,-330.373 687.675,-317.987 739.873,-311.27"/>
<polygon fill="black" stroke="black" points="740.39,-314.733 749.871,-310.004 739.51,-307.788 740.39,-314.733"/>
<a xlink:href="dir_000010_000014.html" target="_top" xlink:title="2">
<text text-anchor="middle" x="737.181" y="-315.501" font-family="Helvetica,sans-Serif" font-size="10.00">2</text>
</a>
</g>
<!-- dir_c4f4646ab0f4a2967be5b6215a500c22 -->
<g id="node16" class="node"><title>dir_c4f4646ab0f4a2967be5b6215a500c22</title>
<a xlink:href="dir_c4f4646ab0f4a2967be5b6215a500c22.html" target="_top" xlink:title="expconfig">
<polygon fill="white" stroke="red" points="842,-180 784,-180 784,-144 842,-144 842,-180"/>
<text text-anchor="middle" x="813" y="-159.5" font-family="Helvetica,sans-Serif" font-size="10.00">expconfig</text>
</a>
</g>
<!-- dir_57d93ab9ac23e1438fb66ed81acb5c38&#45;&gt;dir_c4f4646ab0f4a2967be5b6215a500c22 -->
<g id="edge26" class="edge"><title>dir_57d93ab9ac23e1438fb66ed81acb5c38&#45;&gt;dir_c4f4646ab0f4a2967be5b6215a500c22</title>
<path fill="none" stroke="black" d="M520.086,-359.867C491.978,-327.521 442.207,-259.219 479,-216 497.965,-193.723 689.7,-173.414 773.806,-165.502"/>
<polygon fill="black" stroke="black" points="774.352,-168.967 783.986,-164.556 773.704,-161.997 774.352,-168.967"/>
<a xlink:href="dir_000010_000034.html" target="_top" xlink:title="11">
<text text-anchor="middle" x="771.036" y="-169.627" font-family="Helvetica,sans-Serif" font-size="10.00">11</text>
</a>
</g>
<!-- dir_b41e020219f4b77363d5457b150817df -->
<g id="node5" class="node"><title>dir_b41e020219f4b77363d5457b150817df</title>
<a xlink:href="dir_b41e020219f4b77363d5457b150817df.html" target="_top" xlink:title="common">
<polygon fill="white" stroke="black" points="783,-396 729,-396 729,-360 783,-360 783,-396"/>
<text text-anchor="middle" x="756" y="-375.5" font-family="Helvetica,sans-Serif" font-size="10.00">common</text>
</a>
</g>
<!-- dir_b41e020219f4b77363d5457b150817df&#45;&gt;dir_0a0aa297e888439a92fbcfd5e567f128 -->
<g id="edge68" class="edge"><title>dir_b41e020219f4b77363d5457b150817df&#45;&gt;dir_0a0aa297e888439a92fbcfd5e567f128</title>
<path fill="none" stroke="black" d="M773.571,-359.817C779.21,-354.426 785.647,-348.711 792,-344 806.392,-333.329 818.007,-339.496 827,-324 835.031,-310.161 836.599,-300.801 827,-288 809.282,-264.37 728.017,-247.65 679.28,-239.548"/>
<polygon fill="black" stroke="black" points="679.545,-236.045 669.115,-237.904 678.428,-242.955 679.545,-236.045"/>
<a xlink:href="dir_000013_000026.html" target="_top" xlink:title="8">
<text text-anchor="middle" x="683.547" y="-231.316" font-family="Helvetica,sans-Serif" font-size="10.00">8</text>
</a>
</g>
<!-- dir_b41e020219f4b77363d5457b150817df&#45;&gt;dir_0af1587c8378955de40f48b4bd1869f0 -->
<g id="edge70" class="edge"><title>dir_b41e020219f4b77363d5457b150817df&#45;&gt;dir_0af1587c8378955de40f48b4bd1869f0</title>
<path fill="none" stroke="black" d="M770.669,-359.665C776.599,-353.58 783.95,-347.476 792,-344 861.892,-313.82 1065.92,-358.069 1134,-324 1180.82,-300.571 1210,-286.354 1210,-234 1210,-234 1210,-234 1210,-162 1210,-98.1421 1156.91,-96.6402 1098,-72 1020.51,-39.5891 765.362,-24.3502 669.154,-19.6525"/>
<polygon fill="black" stroke="black" points="669.177,-16.1497 659.022,-19.1683 668.843,-23.1417 669.177,-16.1497"/>
<a xlink:href="dir_000013_000027.html" target="_top" xlink:title="19">
<text text-anchor="middle" x="672.903" y="-10.9852" font-family="Helvetica,sans-Serif" font-size="10.00">19</text>
</a>
</g>
<!-- dir_b41e020219f4b77363d5457b150817df&#45;&gt;dir_ebac6f698c8ed4b70faacb8ef35cbe0d -->
<g id="edge72" class="edge"><title>dir_b41e020219f4b77363d5457b150817df&#45;&gt;dir_ebac6f698c8ed4b70faacb8ef35cbe0d</title>
<path fill="none" stroke="black" d="M763.066,-359.831C766.126,-351.962 769.778,-342.571 773.168,-333.853"/>
<polygon fill="black" stroke="black" points="776.477,-335.002 776.839,-324.413 769.953,-332.465 776.477,-335.002"/>
<a xlink:href="dir_000013_000014.html" target="_top" xlink:title="5">
<text text-anchor="middle" x="777.82" y="-336.881" font-family="Helvetica,sans-Serif" font-size="10.00">5</text>
</a>
</g>
<!-- dir_b41e020219f4b77363d5457b150817df&#45;&gt;dir_c4f4646ab0f4a2967be5b6215a500c22 -->
<g id="edge74" class="edge"><title>dir_b41e020219f4b77363d5457b150817df&#45;&gt;dir_c4f4646ab0f4a2967be5b6215a500c22</title>
<path fill="none" stroke="black" d="M771.178,-359.654C777.061,-353.721 784.249,-347.719 792,-344 821.127,-330.023 914.785,-348.365 936,-324 946.507,-311.933 941.568,-303 936,-288 926.939,-263.591 875.476,-215.877 842.053,-186.681"/>
<polygon fill="black" stroke="black" points="844.241,-183.945 834.393,-180.037 839.654,-189.233 844.241,-183.945"/>
<a xlink:href="dir_000013_000034.html" target="_top" xlink:title="5">
<text text-anchor="middle" x="848.817" y="-181.656" font-family="Helvetica,sans-Serif" font-size="10.00">5</text>
</a>
</g>
<!-- dir_8f68c37b22d514b4289e3a1255795d80 -->
<g id="node17" class="node"><title>dir_8f68c37b22d514b4289e3a1255795d80</title>
<a xlink:href="dir_8f68c37b22d514b4289e3a1255795d80.html" target="_top" xlink:title="plot">
<polygon fill="none" stroke="black" points="542,-252 488,-252 488,-216 542,-216 542,-252"/>
<text text-anchor="middle" x="515" y="-231.5" font-family="Helvetica,sans-Serif" font-size="10.00">plot</text>
</a>
</g>
<!-- dir_b41e020219f4b77363d5457b150817df&#45;&gt;dir_8f68c37b22d514b4289e3a1255795d80 -->
<g id="edge76" class="edge"><title>dir_b41e020219f4b77363d5457b150817df&#45;&gt;dir_8f68c37b22d514b4289e3a1255795d80</title>
<path fill="none" stroke="black" d="M738.478,-359.75C732.841,-354.357 726.393,-348.656 720,-344 665.175,-304.072 594.072,-269.196 551.634,-249.925"/>
<polygon fill="black" stroke="black" points="552.815,-246.618 542.26,-245.71 549.945,-253.003 552.815,-246.618"/>
<a xlink:href="dir_000013_000022.html" target="_top" xlink:title="3">
<text text-anchor="middle" x="557.258" y="-243.003" font-family="Helvetica,sans-Serif" font-size="10.00">3</text>
</a>
</g>
<!-- dir_f7cc278301683119f8719a92f4ffdd26 -->
<g id="node19" class="node"><title>dir_f7cc278301683119f8719a92f4ffdd26</title>
<a xlink:href="dir_f7cc278301683119f8719a92f4ffdd26.html" target="_top" xlink:title="slowcontrol">
<polygon fill="white" stroke="red" points="1030,-252 964,-252 964,-216 1030,-216 1030,-252"/>
<text text-anchor="middle" x="997" y="-231.5" font-family="Helvetica,sans-Serif" font-size="10.00">slowcontrol</text>
</a>
</g>
<!-- dir_b41e020219f4b77363d5457b150817df&#45;&gt;dir_f7cc278301683119f8719a92f4ffdd26 -->
<g id="edge78" class="edge"><title>dir_b41e020219f4b77363d5457b150817df&#45;&gt;dir_f7cc278301683119f8719a92f4ffdd26</title>
<path fill="none" stroke="black" d="M770.768,-359.887C776.709,-353.826 784.041,-347.68 792,-344 828.93,-326.922 943.277,-350.676 974,-324 991.341,-308.943 996.507,-282.788 997.676,-262.541"/>
<polygon fill="black" stroke="black" points="1001.18,-262.391 997.967,-252.296 994.185,-262.192 1001.18,-262.391"/>
<a xlink:href="dir_000013_000023.html" target="_top" xlink:title="1">
<text text-anchor="middle" x="1003.92" y="-263.565" font-family="Helvetica,sans-Serif" font-size="10.00">1</text>
</a>
</g>
<!-- dir_d0c81f0be4ede6821f28dcbf18b5df0f -->
<g id="node6" class="node"><title>dir_d0c81f0be4ede6821f28dcbf18b5df0f</title>
<a xlink:href="dir_d0c81f0be4ede6821f28dcbf18b5df0f.html" target="_top" xlink:title="etaprime">
<polygon fill="white" stroke="black" points="639,-396 585,-396 585,-360 639,-360 639,-396"/>
<text text-anchor="middle" x="612" y="-375.5" font-family="Helvetica,sans-Serif" font-size="10.00">etaprime</text>
</a>
</g>
<!-- dir_d0c81f0be4ede6821f28dcbf18b5df0f&#45;&gt;dir_0a0aa297e888439a92fbcfd5e567f128 -->
<g id="edge102" class="edge"><title>dir_d0c81f0be4ede6821f28dcbf18b5df0f&#45;&gt;dir_0a0aa297e888439a92fbcfd5e567f128</title>
<path fill="none" stroke="black" d="M615.8,-359.762C620.939,-335.093 630.154,-290.86 636.172,-261.973"/>
<polygon fill="black" stroke="black" points="639.618,-262.593 638.231,-252.09 632.765,-261.166 639.618,-262.593"/>
<a xlink:href="dir_000016_000026.html" target="_top" xlink:title="14">
<text text-anchor="middle" x="641.665" y="-264.191" font-family="Helvetica,sans-Serif" font-size="10.00">14</text>
</a>
</g>
<!-- dir_d0c81f0be4ede6821f28dcbf18b5df0f&#45;&gt;dir_0af1587c8378955de40f48b4bd1869f0 -->
<g id="edge104" class="edge"><title>dir_d0c81f0be4ede6821f28dcbf18b5df0f&#45;&gt;dir_0af1587c8378955de40f48b4bd1869f0</title>
<path fill="none" stroke="black" d="M603.093,-359.855C590.764,-333.023 570,-280.875 570,-234 570,-234 570,-234 570,-162 570,-118.036 594.681,-72.2257 612.899,-44.3997"/>
<polygon fill="black" stroke="black" points="615.859,-46.2705 618.547,-36.0224 610.055,-42.3572 615.859,-46.2705"/>
<a xlink:href="dir_000016_000027.html" target="_top" xlink:title="12">
<text text-anchor="middle" x="616.203" y="-48.3382" font-family="Helvetica,sans-Serif" font-size="10.00">12</text>
</a>
</g>
<!-- dir_d0c81f0be4ede6821f28dcbf18b5df0f&#45;&gt;dir_c4f4646ab0f4a2967be5b6215a500c22 -->
<g id="edge106" class="edge"><title>dir_d0c81f0be4ede6821f28dcbf18b5df0f&#45;&gt;dir_c4f4646ab0f4a2967be5b6215a500c22</title>
<path fill="none" stroke="black" d="M626.772,-359.895C632.713,-353.834 640.044,-347.688 648,-344 684.314,-327.167 800.315,-353.832 827,-324 859.858,-287.266 841.388,-225.291 826.317,-189.587"/>
<polygon fill="black" stroke="black" points="829.439,-187.993 822.202,-180.256 823.035,-190.818 829.439,-187.993"/>
<a xlink:href="dir_000016_000034.html" target="_top" xlink:title="4">
<text text-anchor="middle" x="833.488" y="-187.636" font-family="Helvetica,sans-Serif" font-size="10.00">4</text>
</a>
</g>
<!-- dir_d0c81f0be4ede6821f28dcbf18b5df0f&#45;&gt;dir_8f68c37b22d514b4289e3a1255795d80 -->
<g id="edge108" class="edge"><title>dir_d0c81f0be4ede6821f28dcbf18b5df0f&#45;&gt;dir_8f68c37b22d514b4289e3a1255795d80</title>
<path fill="none" stroke="black" d="M592.823,-359.834C577.203,-344.985 557.491,-326.109 556,-324 542.449,-304.838 531.68,-280.481 524.586,-261.939"/>
<polygon fill="black" stroke="black" points="527.776,-260.474 521.028,-252.306 521.21,-262.899 527.776,-260.474"/>
<a xlink:href="dir_000016_000022.html" target="_top" xlink:title="6">
<text text-anchor="middle" x="531.685" y="-260.362" font-family="Helvetica,sans-Serif" font-size="10.00">6</text>
</a>
</g>
<!-- dir_04cc45a024de8890cf589dc336108ee4 -->
<g id="node7" class="node"><title>dir_04cc45a024de8890cf589dc336108ee4</title>
<a xlink:href="dir_04cc45a024de8890cf589dc336108ee4.html" target="_top" xlink:title="misc">
<polygon fill="white" stroke="black" points="489,-396 435,-396 435,-360 489,-360 489,-396"/>
<text text-anchor="middle" x="462" y="-375.5" font-family="Helvetica,sans-Serif" font-size="10.00">misc</text>
</a>
</g>
<!-- dir_04cc45a024de8890cf589dc336108ee4&#45;&gt;dir_0af1587c8378955de40f48b4bd1869f0 -->
<g id="edge40" class="edge"><title>dir_04cc45a024de8890cf589dc336108ee4&#45;&gt;dir_0af1587c8378955de40f48b4bd1869f0</title>
<path fill="none" stroke="black" d="M447.234,-359.882C441.293,-353.82 433.961,-347.676 426,-344 351.317,-309.518 310.916,-368.913 242,-324 203.297,-298.777 190,-280.197 190,-234 190,-234 190,-234 190,-162 190,-106.98 226.25,-97.5065 275,-72 330.215,-43.1112 515.003,-26.5233 594.792,-20.5547"/>
<polygon fill="black" stroke="black" points="595.166,-24.0368 604.883,-19.8148 594.654,-17.0555 595.166,-24.0368"/>
<a xlink:href="dir_000017_000027.html" target="_top" xlink:title="4">
<text text-anchor="middle" x="591.789" y="-24.6312" font-family="Helvetica,sans-Serif" font-size="10.00">4</text>
</a>
</g>
<!-- dir_04cc45a024de8890cf589dc336108ee4&#45;&gt;dir_ebac6f698c8ed4b70faacb8ef35cbe0d -->
<g id="edge42" class="edge"><title>dir_04cc45a024de8890cf589dc336108ee4&#45;&gt;dir_ebac6f698c8ed4b70faacb8ef35cbe0d</title>
<path fill="none" stroke="black" d="M476.814,-359.985C482.76,-353.934 490.083,-347.77 498,-344 539.778,-324.104 670.23,-313.133 739.594,-308.568"/>
<polygon fill="black" stroke="black" points="740.018,-312.048 749.773,-307.915 739.57,-305.062 740.018,-312.048"/>
<a xlink:href="dir_000017_000014.html" target="_top" xlink:title="3">
<text text-anchor="middle" x="736.612" y="-312.611" font-family="Helvetica,sans-Serif" font-size="10.00">3</text>
</a>
</g>
<!-- dir_f60af29919b24042904573a5ae25dc4a -->
<g id="node8" class="node"><title>dir_f60af29919b24042904573a5ae25dc4a</title>
<a xlink:href="dir_f60af29919b24042904573a5ae25dc4a.html" target="_top" xlink:title="omega">
<polygon fill="white" stroke="black" points="711,-396 657,-396 657,-360 711,-360 711,-396"/>
<text text-anchor="middle" x="684" y="-375.5" font-family="Helvetica,sans-Serif" font-size="10.00">omega</text>
</a>
</g>
<!-- dir_f60af29919b24042904573a5ae25dc4a&#45;&gt;dir_0a0aa297e888439a92fbcfd5e567f128 -->
<g id="edge28" class="edge"><title>dir_f60af29919b24042904573a5ae25dc4a&#45;&gt;dir_0a0aa297e888439a92fbcfd5e567f128</title>
<path fill="none" stroke="black" d="M679.54,-359.979C674.946,-341.745 667.428,-312.785 660,-288 657.459,-279.52 654.492,-270.363 651.709,-262.041"/>
<polygon fill="black" stroke="black" points="654.968,-260.754 648.446,-252.406 648.338,-263 654.968,-260.754"/>
<a xlink:href="dir_000018_000026.html" target="_top" xlink:title="16">
<text text-anchor="middle" x="658.81" y="-260.748" font-family="Helvetica,sans-Serif" font-size="10.00">16</text>
</a>
</g>
<!-- dir_f60af29919b24042904573a5ae25dc4a&#45;&gt;dir_0af1587c8378955de40f48b4bd1869f0 -->
<g id="edge30" class="edge"><title>dir_f60af29919b24042904573a5ae25dc4a&#45;&gt;dir_0af1587c8378955de40f48b4bd1869f0</title>
<path fill="none" stroke="black" d="M698.661,-359.647C704.591,-353.559 711.942,-347.459 720,-344 795.461,-311.606 1014.7,-358.978 1089,-324 1138.23,-300.824 1172,-288.413 1172,-234 1172,-234 1172,-234 1172,-162 1172,-57.7046 791.174,-27.0264 669.143,-19.8732"/>
<polygon fill="black" stroke="black" points="669.331,-16.3783 659.149,-19.3064 668.935,-23.367 669.331,-16.3783"/>
<a xlink:href="dir_000018_000027.html" target="_top" xlink:title="12">
<text text-anchor="middle" x="673.08" y="-11.247" font-family="Helvetica,sans-Serif" font-size="10.00">12</text>
</a>
</g>
<!-- dir_f60af29919b24042904573a5ae25dc4a&#45;&gt;dir_ebac6f698c8ed4b70faacb8ef35cbe0d -->
<g id="edge32" class="edge"><title>dir_f60af29919b24042904573a5ae25dc4a&#45;&gt;dir_ebac6f698c8ed4b70faacb8ef35cbe0d</title>
<path fill="none" stroke="black" d="M701.62,-359.882C707.261,-354.494 713.686,-348.763 720,-344 726.747,-338.91 734.224,-333.94 741.618,-329.362"/>
<polygon fill="black" stroke="black" points="743.453,-332.343 750.211,-324.183 739.839,-326.347 743.453,-332.343"/>
<a xlink:href="dir_000018_000014.html" target="_top" xlink:title="1">
<text text-anchor="middle" x="741.84" y="-334.13" font-family="Helvetica,sans-Serif" font-size="10.00">1</text>
</a>
</g>
<!-- dir_f60af29919b24042904573a5ae25dc4a&#45;&gt;dir_c4f4646ab0f4a2967be5b6215a500c22 -->
<g id="edge34" class="edge"><title>dir_f60af29919b24042904573a5ae25dc4a&#45;&gt;dir_c4f4646ab0f4a2967be5b6215a500c22</title>
<path fill="none" stroke="black" d="M699.186,-359.671C705.07,-353.739 712.257,-347.734 720,-344 748.307,-330.348 839.409,-347.742 860,-324 893.696,-285.148 859.043,-223.364 833.958,-188.394"/>
<polygon fill="black" stroke="black" points="836.594,-186.072 827.834,-180.112 830.965,-190.233 836.594,-186.072"/>
<a xlink:href="dir_000018_000034.html" target="_top" xlink:title="2">
<text text-anchor="middle" x="841.014" y="-184.774" font-family="Helvetica,sans-Serif" font-size="10.00">2</text>
</a>
</g>
<!-- dir_f60af29919b24042904573a5ae25dc4a&#45;&gt;dir_8f68c37b22d514b4289e3a1255795d80 -->
<g id="edge36" class="edge"><title>dir_f60af29919b24042904573a5ae25dc4a&#45;&gt;dir_8f68c37b22d514b4289e3a1255795d80</title>
<path fill="none" stroke="black" d="M665.16,-359.764C659.693,-354.594 653.668,-349.011 648,-344 613.821,-313.784 573.254,-280.601 545.987,-258.668"/>
<polygon fill="black" stroke="black" points="547.963,-255.767 537.973,-252.238 543.582,-261.227 547.963,-255.767"/>
<a xlink:href="dir_000018_000022.html" target="_top" xlink:title="7">
<text text-anchor="middle" x="552.544" y="-253.302" font-family="Helvetica,sans-Serif" font-size="10.00">7</text>
</a>
</g>
<!-- dir_65711b33b2c758e7771d2f7398e776f1 -->
<g id="node9" class="node"><title>dir_65711b33b2c758e7771d2f7398e776f1</title>
<a xlink:href="dir_65711b33b2c758e7771d2f7398e776f1.html" target="_top" xlink:title="pi0">
<polygon fill="white" stroke="black" points="345,-396 291,-396 291,-360 345,-360 345,-396"/>
<text text-anchor="middle" x="318" y="-375.5" font-family="Helvetica,sans-Serif" font-size="10.00">pi0</text>
</a>
</g>
<!-- dir_65711b33b2c758e7771d2f7398e776f1&#45;&gt;dir_0a0aa297e888439a92fbcfd5e567f128 -->
<g id="edge94" class="edge"><title>dir_65711b33b2c758e7771d2f7398e776f1&#45;&gt;dir_0a0aa297e888439a92fbcfd5e567f128</title>
<path fill="none" stroke="black" d="M335.047,-359.949C340.765,-354.445 347.378,-348.631 354,-344 370.289,-332.61 376.508,-333.439 394,-324 422.041,-308.868 426.705,-300.535 456,-288 505.733,-266.72 566.413,-250.86 604.641,-242.012"/>
<polygon fill="black" stroke="black" points="605.824,-245.333 614.8,-239.704 604.273,-238.507 605.824,-245.333"/>
<a xlink:href="dir_000019_000026.html" target="_top" xlink:title="8">
<text text-anchor="middle" x="602.948" y="-246.398" font-family="Helvetica,sans-Serif" font-size="10.00">8</text>
</a>
</g>
<!-- dir_65711b33b2c758e7771d2f7398e776f1&#45;&gt;dir_0af1587c8378955de40f48b4bd1869f0 -->
<g id="edge96" class="edge"><title>dir_65711b33b2c758e7771d2f7398e776f1&#45;&gt;dir_0af1587c8378955de40f48b4bd1869f0</title>
<path fill="none" stroke="black" d="M303.232,-359.887C297.291,-353.826 289.959,-347.68 282,-344 208.139,-309.845 169.859,-365.734 100,-324 58.3016,-299.089 38,-282.573 38,-234 38,-234 38,-234 38,-162 38,-107.887 71.7175,-96.4335 120,-72 203.188,-29.9026 490.803,-20.5561 594.422,-18.5385"/>
<polygon fill="black" stroke="black" points="594.78,-22.0326 604.715,-18.3507 594.653,-15.0338 594.78,-22.0326"/>
<a xlink:href="dir_000019_000027.html" target="_top" xlink:title="8">
<text text-anchor="middle" x="591.238" y="-22.4369" font-family="Helvetica,sans-Serif" font-size="10.00">8</text>
</a>
</g>
<!-- dir_65711b33b2c758e7771d2f7398e776f1&#45;&gt;dir_c4f4646ab0f4a2967be5b6215a500c22 -->
<g id="edge98" class="edge"><title>dir_65711b33b2c758e7771d2f7398e776f1&#45;&gt;dir_c4f4646ab0f4a2967be5b6215a500c22</title>
<path fill="none" stroke="black" d="M326.19,-359.799C335.361,-340.639 351.522,-310.231 371,-288 405.216,-248.947 415.351,-236.628 463,-216 518.348,-192.039 694.426,-173.088 773.678,-165.541"/>
<polygon fill="black" stroke="black" points="774.12,-169.016 783.748,-164.595 773.464,-162.046 774.12,-169.016"/>
<a xlink:href="dir_000019_000034.html" target="_top" xlink:title="2">
<text text-anchor="middle" x="770.807" y="-169.679" font-family="Helvetica,sans-Serif" font-size="10.00">2</text>
</a>
</g>
<!-- dir_65711b33b2c758e7771d2f7398e776f1&#45;&gt;dir_8f68c37b22d514b4289e3a1255795d80 -->
<g id="edge100" class="edge"><title>dir_65711b33b2c758e7771d2f7398e776f1&#45;&gt;dir_8f68c37b22d514b4289e3a1255795d80</title>
<path fill="none" stroke="black" d="M337.037,-359.981C342.507,-354.814 348.485,-349.178 354,-344 380.593,-319.032 384.332,-309.223 414,-288 434.243,-273.519 458.838,-260.289 478.689,-250.548"/>
<polygon fill="black" stroke="black" points="480.238,-253.687 487.727,-246.192 477.199,-247.381 480.238,-253.687"/>
<a xlink:href="dir_000019_000022.html" target="_top" xlink:title="5">
<text text-anchor="middle" x="478.233" y="-255.305" font-family="Helvetica,sans-Serif" font-size="10.00">5</text>
</a>
</g>
<!-- dir_5c11a4f25a9b21b2fb0c201db60c6fab -->
<g id="node10" class="node"><title>dir_5c11a4f25a9b21b2fb0c201db60c6fab</title>
<a xlink:href="dir_5c11a4f25a9b21b2fb0c201db60c6fab.html" target="_top" xlink:title="test">
<polygon fill="white" stroke="black" points="273,-396 219,-396 219,-360 273,-360 273,-396"/>
<text text-anchor="middle" x="246" y="-375.5" font-family="Helvetica,sans-Serif" font-size="10.00">test</text>
</a>
</g>
<!-- dir_5c11a4f25a9b21b2fb0c201db60c6fab&#45;&gt;dir_0a0aa297e888439a92fbcfd5e567f128 -->
<g id="edge8" class="edge"><title>dir_5c11a4f25a9b21b2fb0c201db60c6fab&#45;&gt;dir_0a0aa297e888439a92fbcfd5e567f128</title>
<path fill="none" stroke="black" d="M261.82,-359.851C267.659,-354.079 274.656,-348.128 282,-344 311.324,-327.515 325.582,-340.317 355,-324 375.628,-312.558 373.076,-298.891 394,-288 403.368,-283.124 537.829,-255.259 604.739,-241.577"/>
<polygon fill="black" stroke="black" points="605.771,-244.939 614.869,-239.509 604.371,-238.08 605.771,-244.939"/>
<a xlink:href="dir_000020_000026.html" target="_top" xlink:title="3">
<text text-anchor="middle" x="602.817" y="-245.94" font-family="Helvetica,sans-Serif" font-size="10.00">3</text>
</a>
</g>
<!-- dir_5c11a4f25a9b21b2fb0c201db60c6fab&#45;&gt;dir_0af1587c8378955de40f48b4bd1869f0 -->
<g id="edge10" class="edge"><title>dir_5c11a4f25a9b21b2fb0c201db60c6fab&#45;&gt;dir_0af1587c8378955de40f48b4bd1869f0</title>
<path fill="none" stroke="black" d="M218.673,-373.107C171.482,-364.228 77.2389,-344.478 51,-324 14.7557,-295.713 0,-279.976 0,-234 0,-234 0,-234 0,-162 0,-114.889 15.9314,-96.7783 56,-72 101.762,-43.7007 474.483,-24.9423 594.743,-19.5801"/>
<polygon fill="black" stroke="black" points="595.09,-23.0683 604.926,-19.1313 594.782,-16.0751 595.09,-23.0683"/>
<a xlink:href="dir_000020_000027.html" target="_top" xlink:title="2">
<text text-anchor="middle" x="591.624" y="-23.563" font-family="Helvetica,sans-Serif" font-size="10.00">2</text>
</a>
</g>
<!-- dir_5c11a4f25a9b21b2fb0c201db60c6fab&#45;&gt;dir_8f68c37b22d514b4289e3a1255795d80 -->
<g id="edge12" class="edge"><title>dir_5c11a4f25a9b21b2fb0c201db60c6fab&#45;&gt;dir_8f68c37b22d514b4289e3a1255795d80</title>
<path fill="none" stroke="black" d="M263.696,-359.982C269.34,-354.598 275.748,-348.844 282,-344 318.942,-315.375 329.128,-308.756 371,-288 406.248,-270.528 448.624,-255.28 478.247,-245.483"/>
<polygon fill="black" stroke="black" points="479.354,-248.804 487.775,-242.375 477.182,-242.149 479.354,-248.804"/>
<a xlink:href="dir_000020_000022.html" target="_top" xlink:title="3">
<text text-anchor="middle" x="476.817" y="-250.118" font-family="Helvetica,sans-Serif" font-size="10.00">3</text>
</a>
</g>
<!-- dir_617eb4193b53c338b2aeda01a5aa62b1 -->
<g id="node11" class="node"><title>dir_617eb4193b53c338b2aeda01a5aa62b1</title>
<a xlink:href="dir_617eb4193b53c338b2aeda01a5aa62b1.html" target="_top" xlink:title="tpc">
<polygon fill="white" stroke="black" points="417,-396 363,-396 363,-360 417,-360 417,-396"/>
<text text-anchor="middle" x="390" y="-375.5" font-family="Helvetica,sans-Serif" font-size="10.00">tpc</text>
</a>
</g>
<!-- dir_617eb4193b53c338b2aeda01a5aa62b1&#45;&gt;dir_0a0aa297e888439a92fbcfd5e567f128 -->
<g id="edge44" class="edge"><title>dir_617eb4193b53c338b2aeda01a5aa62b1&#45;&gt;dir_0a0aa297e888439a92fbcfd5e567f128</title>
<path fill="none" stroke="black" d="M407.068,-359.979C412.786,-354.476 419.395,-348.655 426,-344 484.645,-302.668 560.979,-267.6 605.431,-248.785"/>
<polygon fill="black" stroke="black" points="606.81,-252.002 614.681,-244.91 604.105,-245.546 606.81,-252.002"/>
<a xlink:href="dir_000021_000026.html" target="_top" xlink:title="1">
<text text-anchor="middle" x="604.592" y="-253.51" font-family="Helvetica,sans-Serif" font-size="10.00">1</text>
</a>
</g>
<!-- dir_617eb4193b53c338b2aeda01a5aa62b1&#45;&gt;dir_0af1587c8378955de40f48b4bd1869f0 -->
<g id="edge46" class="edge"><title>dir_617eb4193b53c338b2aeda01a5aa62b1&#45;&gt;dir_0af1587c8378955de40f48b4bd1869f0</title>
<path fill="none" stroke="black" d="M375.193,-359.969C369.249,-353.916 361.924,-347.755 354,-344 291.232,-314.252 263.505,-349.765 199,-324 136.094,-298.874 76,-301.738 76,-234 76,-234 76,-234 76,-162 76,-54.5746 469.884,-25.9716 594.604,-19.6074"/>
<polygon fill="black" stroke="black" points="594.99,-23.0927 604.807,-19.1062 594.647,-16.1011 594.99,-23.0927"/>
<a xlink:href="dir_000021_000027.html" target="_top" xlink:title="1">
<text text-anchor="middle" x="591.539" y="-23.6048" font-family="Helvetica,sans-Serif" font-size="10.00">1</text>
</a>
</g>
<!-- dir_617eb4193b53c338b2aeda01a5aa62b1&#45;&gt;dir_8f68c37b22d514b4289e3a1255795d80 -->
<g id="edge48" class="edge"><title>dir_617eb4193b53c338b2aeda01a5aa62b1&#45;&gt;dir_8f68c37b22d514b4289e3a1255795d80</title>
<path fill="none" stroke="black" d="M397.845,-359.684C406.684,-340.428 422.408,-309.94 442,-288 452.749,-275.962 466.576,-264.916 479.299,-255.995"/>
<polygon fill="black" stroke="black" points="481.571,-258.683 487.879,-250.171 477.64,-252.891 481.571,-258.683"/>
<a xlink:href="dir_000021_000022.html" target="_top" xlink:title="1">
<text text-anchor="middle" x="480.191" y="-260.551" font-family="Helvetica,sans-Serif" font-size="10.00">1</text>
</a>
</g>
<!-- dir_0a0aa297e888439a92fbcfd5e567f128&#45;&gt;dir_0af1587c8378955de40f48b4bd1869f0 -->
<g id="edge14" class="edge"><title>dir_0a0aa297e888439a92fbcfd5e567f128&#45;&gt;dir_0af1587c8378955de40f48b4bd1869f0</title>
<path fill="none" stroke="black" d="M641.165,-215.955C639.426,-178.394 635.405,-91.5541 633.315,-46.4103"/>
<polygon fill="black" stroke="black" points="636.799,-45.9725 632.84,-36.1451 629.806,-46.2963 636.799,-45.9725"/>
<a xlink:href="dir_000026_000027.html" target="_top" xlink:title="26">
<text text-anchor="middle" x="639.801" y="-46.932" font-family="Helvetica,sans-Serif" font-size="10.00">26</text>
</a>
</g>
<!-- dir_0a0aa297e888439a92fbcfd5e567f128&#45;&gt;dir_c44c95bf3b41c3321c6014770d618ac8 -->
<g id="edge16" class="edge"><title>dir_0a0aa297e888439a92fbcfd5e567f128&#45;&gt;dir_c44c95bf3b41c3321c6014770d618ac8</title>
<path fill="none" stroke="black" d="M658.295,-215.688C675.629,-196.707 704.316,-166.695 732,-144 746.071,-132.465 762.632,-121.081 777.1,-111.762"/>
<polygon fill="black" stroke="black" points="779.229,-114.557 785.798,-106.244 775.479,-108.646 779.229,-114.557"/>
<a xlink:href="dir_000026_000041.html" target="_top" xlink:title="9">
<text text-anchor="middle" x="777.715" y="-116.38" font-family="Helvetica,sans-Serif" font-size="10.00">9</text>
</a>
</g>
<!-- dir_0a0aa297e888439a92fbcfd5e567f128&#45;&gt;dir_c4f4646ab0f4a2967be5b6215a500c22 -->
<g id="edge18" class="edge"><title>dir_0a0aa297e888439a92fbcfd5e567f128&#45;&gt;dir_c4f4646ab0f4a2967be5b6215a500c22</title>
<path fill="none" stroke="black" d="M669.095,-222.591C697.43,-210.661 742.158,-191.828 774.227,-178.326"/>
<polygon fill="black" stroke="black" points="775.883,-181.426 783.741,-174.32 773.166,-174.975 775.883,-181.426"/>
<a xlink:href="dir_000026_000034.html" target="_top" xlink:title="2">
<text text-anchor="middle" x="773.671" y="-182.938" font-family="Helvetica,sans-Serif" font-size="10.00">2</text>
</a>
</g>
<!-- dir_c44c95bf3b41c3321c6014770d618ac8&#45;&gt;dir_0af1587c8378955de40f48b4bd1869f0 -->
<g id="edge38" class="edge"><title>dir_c44c95bf3b41c3321c6014770d618ac8&#45;&gt;dir_0af1587c8378955de40f48b4bd1869f0</title>
<path fill="none" stroke="black" d="M785.902,-79.2209C754.713,-66.8139 703.332,-46.3751 668.605,-32.5612"/>
<polygon fill="black" stroke="black" points="669.868,-29.2969 659.283,-28.8528 667.281,-35.8012 669.868,-29.2969"/>
<a xlink:href="dir_000041_000027.html" target="_top" xlink:title="33">
<text text-anchor="middle" x="674.258" y="-25.4873" font-family="Helvetica,sans-Serif" font-size="10.00">33</text>
</a>
</g>
<!-- dir_ebac6f698c8ed4b70faacb8ef35cbe0d&#45;&gt;dir_0a0aa297e888439a92fbcfd5e567f128 -->
<g id="edge50" class="edge"><title>dir_ebac6f698c8ed4b70faacb8ef35cbe0d&#45;&gt;dir_0a0aa297e888439a92fbcfd5e567f128</title>
<path fill="none" stroke="black" d="M749.987,-288.754C728.306,-277.761 700.24,-263.53 678.155,-252.332"/>
<polygon fill="black" stroke="black" points="679.594,-249.137 669.092,-247.737 676.428,-255.381 679.594,-249.137"/>
<a xlink:href="dir_000014_000026.html" target="_top" xlink:title="1">
<text text-anchor="middle" x="684.084" y="-245.731" font-family="Helvetica,sans-Serif" font-size="10.00">1</text>
</a>
</g>
<!-- dir_ebac6f698c8ed4b70faacb8ef35cbe0d&#45;&gt;dir_0af1587c8378955de40f48b4bd1869f0 -->
<g id="edge52" class="edge"><title>dir_ebac6f698c8ed4b70faacb8ef35cbe0d&#45;&gt;dir_0af1587c8378955de40f48b4bd1869f0</title>
<path fill="none" stroke="black" d="M774.492,-287.984C748.634,-238.991 676.924,-103.119 646.234,-44.9694"/>
<polygon fill="black" stroke="black" points="649.268,-43.2191 641.505,-36.0089 643.077,-46.4864 649.268,-43.2191"/>
<a xlink:href="dir_000014_000027.html" target="_top" xlink:title="20">
<text text-anchor="middle" x="653.456" y="-42.5728" font-family="Helvetica,sans-Serif" font-size="10.00">20</text>
</a>
</g>
<!-- dir_ebac6f698c8ed4b70faacb8ef35cbe0d&#45;&gt;dir_c44c95bf3b41c3321c6014770d618ac8 -->
<g id="edge54" class="edge"><title>dir_ebac6f698c8ed4b70faacb8ef35cbe0d&#45;&gt;dir_c44c95bf3b41c3321c6014770d618ac8</title>
<path fill="none" stroke="black" d="M778.926,-287.982C771.232,-257.512 759.102,-194.218 775,-144 778.082,-134.266 783.618,-124.77 789.529,-116.523"/>
<polygon fill="black" stroke="black" points="792.431,-118.49 795.736,-108.424 786.875,-114.232 792.431,-118.49"/>
<a xlink:href="dir_000014_000041.html" target="_top" xlink:title="2">
<text text-anchor="middle" x="792.498" y="-120.57" font-family="Helvetica,sans-Serif" font-size="10.00">2</text>
</a>
</g>
<!-- dir_ebac6f698c8ed4b70faacb8ef35cbe0d&#45;&gt;dir_c4f4646ab0f4a2967be5b6215a500c22 -->
<g id="edge56" class="edge"><title>dir_ebac6f698c8ed4b70faacb8ef35cbe0d&#45;&gt;dir_c4f4646ab0f4a2967be5b6215a500c22</title>
<path fill="none" stroke="black" d="M787.673,-287.762C792.641,-263.093 801.549,-218.86 807.367,-189.973"/>
<polygon fill="black" stroke="black" points="810.814,-190.584 809.357,-180.09 803.952,-189.202 810.814,-190.584"/>
<a xlink:href="dir_000014_000034.html" target="_top" xlink:title="4">
<text text-anchor="middle" x="812.888" y="-192.168" font-family="Helvetica,sans-Serif" font-size="10.00">4</text>
</a>
</g>
<!-- dir_ebac6f698c8ed4b70faacb8ef35cbe0d&#45;&gt;dir_8f68c37b22d514b4289e3a1255795d80 -->
<g id="edge58" class="edge"><title>dir_ebac6f698c8ed4b70faacb8ef35cbe0d&#45;&gt;dir_8f68c37b22d514b4289e3a1255795d80</title>
<path fill="none" stroke="black" d="M749.89,-295.808C742.313,-293.092 734.399,-290.282 727,-288 666.331,-269.286 594.717,-252.782 552.051,-243.092"/>
<polygon fill="black" stroke="black" points="552.637,-239.636 542.11,-240.837 551.088,-246.463 552.637,-239.636"/>
<a xlink:href="dir_000014_000022.html" target="_top" xlink:title="9">
<text text-anchor="middle" x="556.771" y="-235.162" font-family="Helvetica,sans-Serif" font-size="10.00">9</text>
</a>
</g>
<!-- dir_c4f4646ab0f4a2967be5b6215a500c22&#45;&gt;dir_0af1587c8378955de40f48b4bd1869f0 -->
<g id="edge60" class="edge"><title>dir_c4f4646ab0f4a2967be5b6215a500c22&#45;&gt;dir_0af1587c8378955de40f48b4bd1869f0</title>
<path fill="none" stroke="black" d="M797.024,-143.791C779.679,-124.624 750.609,-94.2106 722,-72 705.241,-58.9891 685.108,-46.6426 668.138,-37.0477"/>
<polygon fill="black" stroke="black" points="669.518,-33.8107 659.077,-32.0136 666.119,-39.9298 669.518,-33.8107"/>
<a xlink:href="dir_000034_000027.html" target="_top" xlink:title="22">
<text text-anchor="middle" x="674.039" y="-30.5745" font-family="Helvetica,sans-Serif" font-size="10.00">22</text>
</a>
</g>
<!-- dir_c4f4646ab0f4a2967be5b6215a500c22&#45;&gt;dir_c44c95bf3b41c3321c6014770d618ac8 -->
<g id="edge62" class="edge"><title>dir_c4f4646ab0f4a2967be5b6215a500c22&#45;&gt;dir_c44c95bf3b41c3321c6014770d618ac8</title>
<path fill="none" stroke="black" d="M813,-143.831C813,-136.131 813,-126.974 813,-118.417"/>
<polygon fill="black" stroke="black" points="816.5,-118.413 813,-108.413 809.5,-118.413 816.5,-118.413"/>
<a xlink:href="dir_000034_000041.html" target="_top" xlink:title="8">
<text text-anchor="middle" x="819.339" y="-119.508" font-family="Helvetica,sans-Serif" font-size="10.00">8</text>
</a>
</g>
<!-- dir_8f68c37b22d514b4289e3a1255795d80&#45;&gt;dir_0af1587c8378955de40f48b4bd1869f0 -->
<g id="edge64" class="edge"><title>dir_8f68c37b22d514b4289e3a1255795d80&#45;&gt;dir_0af1587c8378955de40f48b4bd1869f0</title>
<path fill="none" stroke="black" d="M515.589,-215.815C517.436,-183.98 525.019,-117.241 556,-72 566.073,-57.2912 581.546,-45.2433 595.908,-36.2894"/>
<polygon fill="black" stroke="black" points="597.825,-39.2222 604.649,-31.118 594.26,-33.1977 597.825,-39.2222"/>
<a xlink:href="dir_000022_000027.html" target="_top" xlink:title="9">
<text text-anchor="middle" x="596.177" y="-40.9962" font-family="Helvetica,sans-Serif" font-size="10.00">9</text>
</a>
</g>
<!-- dir_8f68c37b22d514b4289e3a1255795d80&#45;&gt;dir_ebac6f698c8ed4b70faacb8ef35cbe0d -->
<g id="edge66" class="edge"><title>dir_8f68c37b22d514b4289e3a1255795d80&#45;&gt;dir_ebac6f698c8ed4b70faacb8ef35cbe0d</title>
<path fill="none" stroke="black" d="M542.17,-238.441C583.954,-246.392 665.682,-264.202 739.951,-286.53"/>
<polygon fill="black" stroke="black" points="739.319,-289.996 749.905,-289.564 741.36,-283.301 739.319,-289.996"/>
<a xlink:href="dir_000022_000014.html" target="_top" xlink:title="1">
<text text-anchor="middle" x="735.053" y="-289.164" font-family="Helvetica,sans-Serif" font-size="10.00">1</text>
</a>
</g>
<!-- dir_4d4314fec0337faafb4fd99dc7917bfa&#45;&gt;dir_0a0aa297e888439a92fbcfd5e567f128 -->
<g id="edge80" class="edge"><title>dir_4d4314fec0337faafb4fd99dc7917bfa&#45;&gt;dir_0a0aa297e888439a92fbcfd5e567f128</title>
<path fill="none" stroke="black" d="M1025.71,-301.22C954.165,-288.686 761.028,-254.852 679.318,-240.537"/>
<polygon fill="black" stroke="black" points="679.461,-237.009 669.007,-238.731 678.253,-243.904 679.461,-237.009"/>
<a xlink:href="dir_000003_000026.html" target="_top" xlink:title="2">
<text text-anchor="middle" x="683.492" y="-232.333" font-family="Helvetica,sans-Serif" font-size="10.00">2</text>
</a>
</g>
<!-- dir_4d4314fec0337faafb4fd99dc7917bfa&#45;&gt;dir_0af1587c8378955de40f48b4bd1869f0 -->
<g id="edge82" class="edge"><title>dir_4d4314fec0337faafb4fd99dc7917bfa&#45;&gt;dir_0af1587c8378955de40f48b4bd1869f0</title>
<path fill="none" stroke="black" d="M1059.5,-287.807C1065.11,-268.923 1070.78,-238.989 1060,-216 1017.54,-125.417 977.018,-115.642 887,-72 814.961,-37.0743 720.706,-24.6316 669.346,-20.277"/>
<polygon fill="black" stroke="black" points="669.305,-16.763 659.061,-19.4653 668.754,-23.7413 669.305,-16.763"/>
<a xlink:href="dir_000003_000027.html" target="_top" xlink:title="14">
<text text-anchor="middle" x="673.112" y="-11.7152" font-family="Helvetica,sans-Serif" font-size="10.00">14</text>
</a>
</g>
<!-- dir_4d4314fec0337faafb4fd99dc7917bfa&#45;&gt;dir_c44c95bf3b41c3321c6014770d618ac8 -->
<g id="edge84" class="edge"><title>dir_4d4314fec0337faafb4fd99dc7917bfa&#45;&gt;dir_c44c95bf3b41c3321c6014770d618ac8</title>
<path fill="none" stroke="black" d="M1054.49,-287.82C1055.15,-268.4 1053.48,-237.515 1039,-216 994.09,-149.266 901.436,-114.242 849.8,-99.2185"/>
<polygon fill="black" stroke="black" points="850.62,-95.8134 840.046,-96.4769 848.726,-102.552 850.62,-95.8134"/>
<a xlink:href="dir_000003_000041.html" target="_top" xlink:title="6">
<text text-anchor="middle" x="854.849" y="-91.5526" font-family="Helvetica,sans-Serif" font-size="10.00">6</text>
</a>
</g>
<!-- dir_4d4314fec0337faafb4fd99dc7917bfa&#45;&gt;dir_c4f4646ab0f4a2967be5b6215a500c22 -->
<g id="edge86" class="edge"><title>dir_4d4314fec0337faafb4fd99dc7917bfa&#45;&gt;dir_c4f4646ab0f4a2967be5b6215a500c22</title>
<path fill="none" stroke="black" d="M1025.97,-292.897C1005.81,-282.703 977.922,-267.693 955,-252 934.433,-237.92 932.597,-230.036 912,-216 892.674,-202.83 869.829,-190.193 850.956,-180.46"/>
<polygon fill="black" stroke="black" points="852.543,-177.34 842.043,-175.925 849.369,-183.579 852.543,-177.34"/>
<a xlink:href="dir_000003_000034.html" target="_top" xlink:title="1">
<text text-anchor="middle" x="857.034" y="-173.94" font-family="Helvetica,sans-Serif" font-size="10.00">1</text>
</a>
</g>
<!-- dir_f7cc278301683119f8719a92f4ffdd26&#45;&gt;dir_0af1587c8378955de40f48b4bd1869f0 -->
<g id="edge88" class="edge"><title>dir_f7cc278301683119f8719a92f4ffdd26&#45;&gt;dir_0af1587c8378955de40f48b4bd1869f0</title>
<path fill="none" stroke="black" d="M985.935,-215.788C964.225,-181.73 912.578,-108.545 849,-72 791.665,-39.0436 714.552,-26.0367 669.368,-21.0221"/>
<polygon fill="black" stroke="black" points="669.45,-17.5121 659.143,-19.9641 668.73,-24.4749 669.45,-17.5121"/>
<a xlink:href="dir_000023_000027.html" target="_top" xlink:title="2">
<text text-anchor="middle" x="673.318" y="-12.5578" font-family="Helvetica,sans-Serif" font-size="10.00">2</text>
</a>
</g>
<!-- dir_f7cc278301683119f8719a92f4ffdd26&#45;&gt;dir_c44c95bf3b41c3321c6014770d618ac8 -->
<g id="edge90" class="edge"><title>dir_f7cc278301683119f8719a92f4ffdd26&#45;&gt;dir_c44c95bf3b41c3321c6014770d618ac8</title>
<path fill="none" stroke="black" d="M973.696,-215.762C940.792,-190.011 880.648,-142.942 844.004,-114.264"/>
<polygon fill="black" stroke="black" points="846.147,-111.496 836.115,-108.09 841.832,-117.009 846.147,-111.496"/>
<a xlink:href="dir_000023_000041.html" target="_top" xlink:title="5">
<text text-anchor="middle" x="850.727" y="-108.976" font-family="Helvetica,sans-Serif" font-size="10.00">5</text>
</a>
</g>
<!-- dir_f7cc278301683119f8719a92f4ffdd26&#45;&gt;dir_c4f4646ab0f4a2967be5b6215a500c22 -->
<g id="edge92" class="edge"><title>dir_f7cc278301683119f8719a92f4ffdd26&#45;&gt;dir_c4f4646ab0f4a2967be5b6215a500c22</title>
<path fill="none" stroke="black" d="M963.679,-220.961C932.103,-208.605 884.699,-190.056 851.516,-177.071"/>
<polygon fill="black" stroke="black" points="852.722,-173.785 842.134,-173.4 850.171,-180.304 852.722,-173.785"/>
<a xlink:href="dir_000023_000034.html" target="_top" xlink:title="3">
<text text-anchor="middle" x="857.104" y="-169.951" font-family="Helvetica,sans-Serif" font-size="10.00">3</text>
</a>
</g>
</g>
</svg>
