<?xml version="1.0" encoding="UTF-8" standalone="no"?>
<!DOCTYPE svg PUBLIC "-//W3C//DTD SVG 1.1//EN"
 "http://www.w3.org/Graphics/SVG/1.1/DTD/svg11.dtd">
<!-- Generated by graphviz version 2.26.3 (20100126.1600)
 -->
<!-- Title: src/root&#45;addons/analysis_codes/hstack.h Pages: 1 -->
<svg width="935pt" height="232pt"
 viewBox="0.00 0.00 934.60 232.00" xmlns="http://www.w3.org/2000/svg" xmlns:xlink="http://www.w3.org/1999/xlink">
<g id="graph1" class="graph" transform="scale(1 1) rotate(0) translate(4 228)">
<title>src/root&#45;addons/analysis_codes/hstack.h</title>
<polygon fill="white" stroke="white" points="-4,5 -4,-228 931.598,-228 931.598,5 -4,5"/>
<!-- Node1 -->
<g id="node1" class="node"><title>Node1</title>
<polygon fill="#bfbfbf" stroke="black" points="224.098,-189 224.098,-223 347.098,-223 347.098,-189 224.098,-189"/>
<text text-anchor="start" x="232.098" y="-210" font-family="Helvetica,sans-Serif" font-size="10.00">src/root&#45;addons/analysis</text>
<text text-anchor="middle" x="285.598" y="-197" font-family="Helvetica,sans-Serif" font-size="10.00">_codes/hstack.h</text>
</g>
<!-- Node2 -->
<g id="node3" class="node"><title>Node2</title>
<polygon fill="white" stroke="#bfbfbf" points="86.5976,-58.5 86.5976,-79.5 142.598,-79.5 142.598,-58.5 86.5976,-58.5"/>
<text text-anchor="middle" x="114.598" y="-66.5" font-family="Helvetica,sans-Serif" font-size="10.00">Rtypes.h</text>
</g>
<!-- Node1&#45;&gt;Node2 -->
<g id="edge2" class="edge"><title>Node1&#45;&gt;Node2</title>
<path fill="none" stroke="midnightblue" d="M224.014,-192.127C184.983,-182.057 139.502,-167.525 126.598,-152 112.195,-134.672 110.82,-107.963 111.986,-89.5463"/>
<polygon fill="midnightblue" stroke="midnightblue" points="115.474,-89.8335 112.916,-79.5522 108.504,-89.1848 115.474,-89.8335"/>
</g>
<!-- Node3 -->
<g id="node5" class="node"><title>Node3</title>
<polygon fill="white" stroke="#bfbfbf" points="15.5976,-123.5 15.5976,-144.5 79.5976,-144.5 79.5976,-123.5 15.5976,-123.5"/>
<text text-anchor="middle" x="47.5976" y="-131.5" font-family="Helvetica,sans-Serif" font-size="10.00">THStack.h</text>
</g>
<!-- Node1&#45;&gt;Node3 -->
<g id="edge4" class="edge"><title>Node1&#45;&gt;Node3</title>
<path fill="none" stroke="midnightblue" d="M223.733,-190.265C185.873,-180.225 136.604,-166.423 93.5976,-152 90.0557,-150.812 86.3872,-149.507 82.7377,-148.16"/>
<polygon fill="midnightblue" stroke="midnightblue" points="83.8132,-144.824 73.2221,-144.544 81.3266,-151.368 83.8132,-144.824"/>
</g>
<!-- Node4 -->
<g id="node7" class="node"><title>Node4</title>
<polygon fill="white" stroke="#bfbfbf" points="236.098,-58.5 236.098,-79.5 277.098,-79.5 277.098,-58.5 236.098,-58.5"/>
<text text-anchor="middle" x="256.598" y="-66.5" font-family="Helvetica,sans-Serif" font-size="10.00">string</text>
</g>
<!-- Node1&#45;&gt;Node4 -->
<g id="edge6" class="edge"><title>Node1&#45;&gt;Node4</title>
<path fill="none" stroke="midnightblue" d="M281.963,-188.745C278.145,-170.626 271.961,-141.308 266.598,-116 264.77,-107.375 262.747,-97.8606 261.001,-89.6616"/>
<polygon fill="midnightblue" stroke="midnightblue" points="264.413,-88.8776 258.906,-79.8262 257.566,-90.336 264.413,-88.8776"/>
</g>
<!-- Node5 -->
<g id="node9" class="node"><title>Node5</title>
<polygon fill="white" stroke="#bfbfbf" points="282.598,-0.5 282.598,-21.5 326.598,-21.5 326.598,-0.5 282.598,-0.5"/>
<text text-anchor="middle" x="304.598" y="-8.5" font-family="Helvetica,sans-Serif" font-size="10.00">vector</text>
</g>
<!-- Node1&#45;&gt;Node5 -->
<g id="edge8" class="edge"><title>Node1&#45;&gt;Node5</title>
<path fill="none" stroke="midnightblue" d="M223.916,-202.945C150.262,-197.855 33.5991,-184.729 6.5976,-152 -3.5846,-139.658 -0.259634,-130.456 6.5976,-116 24.0604,-79.1857 40.812,-75.5234 77.5976,-58 142.349,-27.1546 226.956,-16.4779 272.394,-12.8375"/>
<polygon fill="midnightblue" stroke="midnightblue" points="272.82,-16.3156 282.536,-12.0908 272.306,-9.33453 272.82,-16.3156"/>
</g>
<!-- Node6 -->
<g id="node11" class="node"><title>Node6</title>
<a xlink:href="root__draw_8h.html" target="_top" xlink:title="analysis/plot/root\l_draw.h">
<polygon fill="white" stroke="black" points="313.098,-117 313.098,-151 404.098,-151 404.098,-117 313.098,-117"/>
<text text-anchor="start" x="321.098" y="-138" font-family="Helvetica,sans-Serif" font-size="10.00">analysis/plot/root</text>
<text text-anchor="middle" x="358.598" y="-125" font-family="Helvetica,sans-Serif" font-size="10.00">_draw.h</text>
</a>
</g>
<!-- Node1&#45;&gt;Node6 -->
<g id="edge10" class="edge"><title>Node1&#45;&gt;Node6</title>
<path fill="none" stroke="midnightblue" d="M302.898,-188.937C312.194,-179.768 323.813,-168.308 334.03,-158.231"/>
<polygon fill="midnightblue" stroke="midnightblue" points="336.507,-160.704 341.169,-151.19 331.591,-155.72 336.507,-160.704"/>
</g>
<!-- Node9 -->
<g id="node19" class="node"><title>Node9</title>
<polygon fill="white" stroke="#bfbfbf" points="430.598,-58.5 430.598,-79.5 482.598,-79.5 482.598,-58.5 430.598,-58.5"/>
<text text-anchor="middle" x="456.598" y="-66.5" font-family="Helvetica,sans-Serif" font-size="10.00">memory</text>
</g>
<!-- Node1&#45;&gt;Node9 -->
<g id="edge54" class="edge"><title>Node1&#45;&gt;Node9</title>
<path fill="none" stroke="midnightblue" d="M347.335,-189.317C369.841,-180.923 394.242,-168.851 412.598,-152 431.365,-134.771 443.612,-107.664 450.308,-89.1487"/>
<polygon fill="midnightblue" stroke="midnightblue" points="453.642,-90.2162 453.54,-79.6219 447.013,-87.9674 453.642,-90.2162"/>
</g>
<!-- Node11 -->
<g id="node24" class="node"><title>Node11</title>
<a xlink:href="_hist_style_8h.html" target="_top" xlink:title="analysis/plot/HistStyle.h">
<polygon fill="white" stroke="black" points="135.098,-123.5 135.098,-144.5 258.098,-144.5 258.098,-123.5 135.098,-123.5"/>
<text text-anchor="middle" x="196.598" y="-131.5" font-family="Helvetica,sans-Serif" font-size="10.00">analysis/plot/HistStyle.h</text>
</a>
</g>
<!-- Node1&#45;&gt;Node11 -->
<g id="edge26" class="edge"><title>Node1&#45;&gt;Node11</title>
<path fill="none" stroke="midnightblue" d="M264.506,-188.937C250.458,-177.573 232.06,-162.689 217.958,-151.28"/>
<polygon fill="midnightblue" stroke="midnightblue" points="219.785,-148.256 209.809,-144.688 215.382,-153.699 219.785,-148.256"/>
</g>
<!-- Node12 -->
<g id="node29" class="node"><title>Node12</title>
<a xlink:href="printable_8h.html" target="_top" xlink:title="base/printable.h">
<polygon fill="white" stroke="black" points="500.598,-58.5 500.598,-79.5 586.598,-79.5 586.598,-58.5 500.598,-58.5"/>
<text text-anchor="middle" x="543.598" y="-66.5" font-family="Helvetica,sans-Serif" font-size="10.00">base/printable.h</text>
</a>
</g>
<!-- Node1&#45;&gt;Node12 -->
<g id="edge34" class="edge"><title>Node1&#45;&gt;Node12</title>
<path fill="none" stroke="midnightblue" d="M347.154,-189.375C375.89,-180.35 409.987,-167.783 438.598,-152 471.859,-133.652 505.458,-104.891 525.399,-86.4984"/>
<polygon fill="midnightblue" stroke="midnightblue" points="527.922,-88.9314 532.828,-79.5409 523.136,-83.8224 527.922,-88.9314"/>
</g>
<!-- Node14 -->
<g id="node34" class="node"><title>Node14</title>
<a xlink:href="interval_8h.html" target="_top" xlink:title="base/interval.h">
<polygon fill="white" stroke="black" points="660.598,-123.5 660.598,-144.5 740.598,-144.5 740.598,-123.5 660.598,-123.5"/>
<text text-anchor="middle" x="700.598" y="-131.5" font-family="Helvetica,sans-Serif" font-size="10.00">base/interval.h</text>
</a>
</g>
<!-- Node1&#45;&gt;Node14 -->
<g id="edge40" class="edge"><title>Node1&#45;&gt;Node14</title>
<path fill="none" stroke="midnightblue" d="M347.279,-195.299C429.658,-181.006 574.037,-155.957 650.228,-142.739"/>
<polygon fill="midnightblue" stroke="midnightblue" points="651.258,-146.112 660.513,-140.954 650.062,-139.215 651.258,-146.112"/>
</g>
<!-- Node6&#45;&gt;Node2 -->
<g id="edge24" class="edge"><title>Node6&#45;&gt;Node2</title>
<path fill="none" stroke="midnightblue" d="M312.846,-122.537C272.955,-112.437 213.307,-97.0787 152.6,-80.2239"/>
<polygon fill="midnightblue" stroke="midnightblue" points="153.424,-76.8201 142.851,-77.5066 151.544,-83.563 153.424,-76.8201"/>
</g>
<!-- Node6&#45;&gt;Node4 -->
<g id="edge12" class="edge"><title>Node6&#45;&gt;Node4</title>
<path fill="none" stroke="midnightblue" d="M331.798,-116.922C316.45,-107.141 297.295,-94.9344 282.158,-85.2887"/>
<polygon fill="midnightblue" stroke="midnightblue" points="283.637,-82.0809 273.323,-79.6584 279.875,-87.9841 283.637,-82.0809"/>
</g>
<!-- Node6&#45;&gt;Node5 -->
<g id="edge16" class="edge"><title>Node6&#45;&gt;Node5</title>
<path fill="none" stroke="midnightblue" d="M345.489,-116.785C338.203,-106.546 329.453,-93.0463 323.598,-80 316.612,-64.4366 311.654,-45.7202 308.559,-31.7094"/>
<polygon fill="midnightblue" stroke="midnightblue" points="311.927,-30.7145 306.472,-21.632 305.072,-32.1339 311.927,-30.7145"/>
</g>
<!-- Node7 -->
<g id="node14" class="node"><title>Node7</title>
<polygon fill="white" stroke="#bfbfbf" points="332.098,-58.5 332.098,-79.5 361.098,-79.5 361.098,-58.5 332.098,-58.5"/>
<text text-anchor="middle" x="346.598" y="-66.5" font-family="Helvetica,sans-Serif" font-size="10.00">list</text>
</g>
<!-- Node6&#45;&gt;Node7 -->
<g id="edge14" class="edge"><title>Node6&#45;&gt;Node7</title>
<path fill="none" stroke="midnightblue" d="M355.445,-116.922C353.904,-108.579 352.038,-98.4703 350.418,-89.6919"/>
<polygon fill="midnightblue" stroke="midnightblue" points="353.858,-89.0505 348.601,-79.8521 346.975,-90.3214 353.858,-89.0505"/>
</g>
<!-- Node8 -->
<g id="node17" class="node"><title>Node8</title>
<polygon fill="white" stroke="#bfbfbf" points="378.098,-58.5 378.098,-79.5 413.098,-79.5 413.098,-58.5 378.098,-58.5"/>
<text text-anchor="middle" x="395.598" y="-66.5" font-family="Helvetica,sans-Serif" font-size="10.00">map</text>
</g>
<!-- Node6&#45;&gt;Node8 -->
<g id="edge18" class="edge"><title>Node6&#45;&gt;Node8</title>
<path fill="none" stroke="midnightblue" d="M368.319,-116.922C373.225,-108.304 379.203,-97.8018 384.311,-88.8282"/>
<polygon fill="midnightblue" stroke="midnightblue" points="387.515,-90.2742 389.42,-79.8521 381.431,-86.8113 387.515,-90.2742"/>
</g>
<!-- Node6&#45;&gt;Node9 -->
<g id="edge20" class="edge"><title>Node6&#45;&gt;Node9</title>
<path fill="none" stroke="midnightblue" d="M384.346,-116.922C399.092,-107.141 417.496,-94.9344 432.039,-85.2887"/>
<polygon fill="midnightblue" stroke="midnightblue" points="434.129,-88.1025 440.528,-79.6584 430.26,-82.269 434.129,-88.1025"/>
</g>
<!-- Node10 -->
<g id="node21" class="node"><title>Node10</title>
<polygon fill="white" stroke="#bfbfbf" points="160.098,-58.5 160.098,-79.5 219.098,-79.5 219.098,-58.5 160.098,-58.5"/>
<text text-anchor="middle" x="189.598" y="-66.5" font-family="Helvetica,sans-Serif" font-size="10.00">functional</text>
</g>
<!-- Node6&#45;&gt;Node10 -->
<g id="edge22" class="edge"><title>Node6&#45;&gt;Node10</title>
<path fill="none" stroke="midnightblue" d="M314.195,-116.922C286.879,-106.416 252.285,-93.1105 226.483,-83.1868"/>
<polygon fill="midnightblue" stroke="midnightblue" points="227.649,-79.8851 217.059,-79.562 225.136,-86.4186 227.649,-79.8851"/>
</g>
<!-- Node11&#45;&gt;Node2 -->
<g id="edge28" class="edge"><title>Node11&#45;&gt;Node2</title>
<path fill="none" stroke="midnightblue" d="M183.057,-123.267C170.28,-113.139 150.919,-97.7916 136.043,-85.9995"/>
<polygon fill="midnightblue" stroke="midnightblue" points="137.897,-83.0029 127.886,-79.5337 133.549,-88.4885 137.897,-83.0029"/>
</g>
<!-- Node11&#45;&gt;Node4 -->
<g id="edge30" class="edge"><title>Node11&#45;&gt;Node4</title>
<path fill="none" stroke="midnightblue" d="M206.505,-123.267C215.592,-113.423 229.23,-98.6481 239.983,-86.9996"/>
<polygon fill="midnightblue" stroke="midnightblue" points="242.663,-89.2558 246.874,-79.5337 237.52,-84.5078 242.663,-89.2558"/>
</g>
<!-- Node11&#45;&gt;Node10 -->
<g id="edge32" class="edge"><title>Node11&#45;&gt;Node10</title>
<path fill="none" stroke="midnightblue" d="M195.442,-123.267C194.463,-114.18 193.032,-100.892 191.831,-89.7395"/>
<polygon fill="midnightblue" stroke="midnightblue" points="195.283,-89.1014 190.732,-79.5337 188.323,-89.851 195.283,-89.1014"/>
</g>
<!-- Node12&#45;&gt;Node5 -->
<g id="edge36" class="edge"><title>Node12&#45;&gt;Node5</title>
<path fill="none" stroke="midnightblue" d="M500.593,-58.5638C453.414,-47.1143 378.79,-29.0049 336.537,-18.7509"/>
<polygon fill="midnightblue" stroke="midnightblue" points="337.322,-15.34 326.779,-16.3829 335.671,-22.1426 337.322,-15.34"/>
</g>
<!-- Node13 -->
<g id="node32" class="node"><title>Node13</title>
<polygon fill="white" stroke="#bfbfbf" points="517.598,-0.5 517.598,-21.5 569.598,-21.5 569.598,-0.5 517.598,-0.5"/>
<text text-anchor="middle" x="543.598" y="-8.5" font-family="Helvetica,sans-Serif" font-size="10.00">ostream</text>
</g>
<!-- Node12&#45;&gt;Node13 -->
<g id="edge38" class="edge"><title>Node12&#45;&gt;Node13</title>
<path fill="none" stroke="midnightblue" d="M543.598,-58.3619C543.598,-50.9219 543.598,-40.7427 543.598,-31.7276"/>
<polygon fill="midnightblue" stroke="midnightblue" points="547.098,-31.5706 543.598,-21.5707 540.098,-31.5707 547.098,-31.5706"/>
</g>
<!-- Node14&#45;&gt;Node12 -->
<g id="edge42" class="edge"><title>Node14&#45;&gt;Node12</title>
<path fill="none" stroke="midnightblue" d="M675.023,-123.412C648.793,-112.552 607.807,-95.5833 578.582,-83.4842"/>
<polygon fill="midnightblue" stroke="midnightblue" points="579.739,-80.175 569.161,-79.5835 577.061,-86.6426 579.739,-80.175"/>
</g>
<!-- Node15 -->
<g id="node37" class="node"><title>Node15</title>
<a xlink:href="types_8h.html" target="_top" xlink:title="types.h">
<polygon fill="white" stroke="black" points="804.098,-58.5 804.098,-79.5 853.098,-79.5 853.098,-58.5 804.098,-58.5"/>
<text text-anchor="middle" x="828.598" y="-66.5" font-family="Helvetica,sans-Serif" font-size="10.00">types.h</text>
</a>
</g>
<!-- Node14&#45;&gt;Node15 -->
<g id="edge44" class="edge"><title>Node14&#45;&gt;Node15</title>
<path fill="none" stroke="midnightblue" d="M721.448,-123.412C742.461,-112.741 775.09,-96.1717 798.823,-84.1198"/>
<polygon fill="midnightblue" stroke="midnightblue" points="800.425,-87.232 807.756,-79.5835 797.255,-80.9907 800.425,-87.232"/>
</g>
<!-- Node16 -->
<g id="node39" class="node"><title>Node16</title>
<polygon fill="white" stroke="#bfbfbf" points="870.598,-58.5 870.598,-79.5 926.598,-79.5 926.598,-58.5 870.598,-58.5"/>
<text text-anchor="middle" x="898.598" y="-66.5" font-family="Helvetica,sans-Serif" font-size="10.00">algorithm</text>
</g>
<!-- Node14&#45;&gt;Node16 -->
<g id="edge46" class="edge"><title>Node14&#45;&gt;Node16</title>
<path fill="none" stroke="midnightblue" d="M732.85,-123.412C767.808,-111.936 823.548,-93.6375 860.602,-81.4732"/>
<polygon fill="midnightblue" stroke="midnightblue" points="862.116,-84.6602 870.525,-78.2156 859.933,-78.0094 862.116,-84.6602"/>
</g>
<!-- Node17 -->
<g id="node41" class="node"><title>Node17</title>
<polygon fill="white" stroke="#bfbfbf" points="604.098,-58.5 604.098,-79.5 663.098,-79.5 663.098,-58.5 604.098,-58.5"/>
<text text-anchor="middle" x="633.598" y="-66.5" font-family="Helvetica,sans-Serif" font-size="10.00">stdexcept</text>
</g>
<!-- Node14&#45;&gt;Node17 -->
<g id="edge48" class="edge"><title>Node14&#45;&gt;Node17</title>
<path fill="none" stroke="midnightblue" d="M689.534,-123.267C679.29,-113.328 663.865,-98.3635 651.806,-86.6645"/>
<polygon fill="midnightblue" stroke="midnightblue" points="654.07,-83.9848 644.455,-79.5337 649.196,-89.009 654.07,-83.9848"/>
</g>
<!-- Node18 -->
<g id="node43" class="node"><title>Node18</title>
<polygon fill="white" stroke="#bfbfbf" points="680.598,-58.5 680.598,-79.5 720.598,-79.5 720.598,-58.5 680.598,-58.5"/>
<text text-anchor="middle" x="700.598" y="-66.5" font-family="Helvetica,sans-Serif" font-size="10.00">limits</text>
</g>
<!-- Node14&#45;&gt;Node18 -->
<g id="edge50" class="edge"><title>Node14&#45;&gt;Node18</title>
<path fill="none" stroke="midnightblue" d="M700.598,-123.267C700.598,-114.18 700.598,-100.892 700.598,-89.7395"/>
<polygon fill="midnightblue" stroke="midnightblue" points="704.098,-89.5337 700.598,-79.5337 697.098,-89.5337 704.098,-89.5337"/>
</g>
<!-- Node19 -->
<g id="node45" class="node"><title>Node19</title>
<polygon fill="white" stroke="#bfbfbf" points="738.098,-58.5 738.098,-79.5 787.098,-79.5 787.098,-58.5 738.098,-58.5"/>
<text text-anchor="middle" x="762.598" y="-66.5" font-family="Helvetica,sans-Serif" font-size="10.00">istream</text>
</g>
<!-- Node14&#45;&gt;Node19 -->
<g id="edge52" class="edge"><title>Node14&#45;&gt;Node19</title>
<path fill="none" stroke="midnightblue" d="M710.836,-123.267C720.225,-113.423 734.318,-98.6481 745.429,-86.9996"/>
<polygon fill="midnightblue" stroke="midnightblue" points="748.181,-89.1856 752.55,-79.5337 743.115,-84.3541 748.181,-89.1856"/>
</g>
</g>
</svg>
