<?xml version="1.0" encoding="UTF-8" standalone="no"?>
<!DOCTYPE svg PUBLIC "-//W3C//DTD SVG 1.1//EN"
 "http://www.w3.org/Graphics/SVG/1.1/DTD/svg11.dtd">
<!-- Generated by graphviz version 2.26.3 (20100126.1600)
 -->
<!-- Title: src/root&#45;addons/analysis_codes/hstack.h Pages: 1 -->
<svg width="850pt" height="174pt"
 viewBox="0.00 0.00 850.00 174.00" xmlns="http://www.w3.org/2000/svg" xmlns:xlink="http://www.w3.org/1999/xlink">
<g id="graph1" class="graph" transform="scale(1 1) rotate(0) translate(4 170)">
<title>src/root&#45;addons/analysis_codes/hstack.h</title>
<polygon fill="white" stroke="white" points="-4,5 -4,-170 847,-170 847,5 -4,5"/>
<!-- Node1 -->
<g id="node1" class="node"><title>Node1</title>
<polygon fill="#bfbfbf" stroke="black" points="361.5,-131 361.5,-165 484.5,-165 484.5,-131 361.5,-131"/>
<text text-anchor="start" x="369.5" y="-152" font-family="Helvetica,sans-Serif" font-size="10.00">src/root&#45;addons/analysis</text>
<text text-anchor="middle" x="423" y="-139" font-family="Helvetica,sans-Serif" font-size="10.00">_codes/hstack.h</text>
</g>
<!-- Node2 -->
<g id="node3" class="node"><title>Node2</title>
<a xlink:href="process_etap_tree_8cc.html" target="_top" xlink:title="progs/processEtapTree.cc">
<polygon fill="white" stroke="black" points="-0.5,-65.5 -0.5,-86.5 130.5,-86.5 130.5,-65.5 -0.5,-65.5"/>
<text text-anchor="middle" x="65" y="-73.5" font-family="Helvetica,sans-Serif" font-size="10.00">progs/processEtapTree.cc</text>
</a>
</g>
<!-- Node1&#45;&gt;Node2 -->
<g id="edge2" class="edge"><title>Node1&#45;&gt;Node2</title>
<path fill="none" stroke="midnightblue" d="M351.24,-135.395C293.699,-125.037 210.956,-109.582 139,-94 128.533,-91.7334 117.281,-89.0991 106.789,-86.5567"/>
<polygon fill="midnightblue" stroke="midnightblue" points="350.863,-138.883 361.324,-137.204 352.099,-131.993 350.863,-138.883"/>
</g>
<!-- Node3 -->
<g id="node5" class="node"><title>Node3</title>
<a xlink:href="show__cocktail__database_8cc.html" target="_top" xlink:title="progs/show_cocktail\l_database.cc">
<polygon fill="white" stroke="black" points="148,-59 148,-93 254,-93 254,-59 148,-59"/>
<text text-anchor="start" x="156" y="-80" font-family="Helvetica,sans-Serif" font-size="10.00">progs/show_cocktail</text>
<text text-anchor="middle" x="201" y="-67" font-family="Helvetica,sans-Serif" font-size="10.00">_database.cc</text>
</a>
</g>
<!-- Node1&#45;&gt;Node3 -->
<g id="edge4" class="edge"><title>Node1&#45;&gt;Node3</title>
<path fill="none" stroke="midnightblue" d="M360.635,-127.774C326.907,-116.835 285.711,-103.474 253.617,-93.0651"/>
<polygon fill="midnightblue" stroke="midnightblue" points="359.797,-131.181 370.389,-130.937 361.957,-124.523 359.797,-131.181"/>
</g>
<!-- Node4 -->
<g id="node7" class="node"><title>Node4</title>
<a xlink:href="_reconstruct_check_8cc.html" target="_top" xlink:title="src/analysis/physics\l/common/ReconstructCheck.cc">
<polygon fill="white" stroke="black" points="271.5,-59 271.5,-93 426.5,-93 426.5,-59 271.5,-59"/>
<text text-anchor="start" x="279.5" y="-80" font-family="Helvetica,sans-Serif" font-size="10.00">src/analysis/physics</text>
<text text-anchor="middle" x="349" y="-67" font-family="Helvetica,sans-Serif" font-size="10.00">/common/ReconstructCheck.cc</text>
</a>
</g>
<!-- Node1&#45;&gt;Node4 -->
<g id="edge6" class="edge"><title>Node1&#45;&gt;Node4</title>
<path fill="none" stroke="midnightblue" d="M398.239,-123.908C387.895,-113.844 376.113,-102.38 366.668,-93.19"/>
<polygon fill="midnightblue" stroke="midnightblue" points="395.855,-126.472 405.463,-130.937 400.736,-121.455 395.855,-126.472"/>
</g>
<!-- Node5 -->
<g id="node9" class="node"><title>Node5</title>
<a xlink:href="omega_8cc.html" target="_top" xlink:title="src/analysis/physics\l/omega/omega.cc">
<polygon fill="white" stroke="black" points="444,-59 444,-93 550,-93 550,-59 444,-59"/>
<text text-anchor="start" x="452" y="-80" font-family="Helvetica,sans-Serif" font-size="10.00">src/analysis/physics</text>
<text text-anchor="middle" x="497" y="-67" font-family="Helvetica,sans-Serif" font-size="10.00">/omega/omega.cc</text>
</a>
</g>
<!-- Node1&#45;&gt;Node5 -->
<g id="edge8" class="edge"><title>Node1&#45;&gt;Node5</title>
<path fill="none" stroke="midnightblue" d="M447.761,-123.908C458.105,-113.844 469.887,-102.38 479.332,-93.19"/>
<polygon fill="midnightblue" stroke="midnightblue" points="445.264,-121.455 440.537,-130.937 450.145,-126.472 445.264,-121.455"/>
</g>
<!-- Node6 -->
<g id="node11" class="node"><title>Node6</title>
<a xlink:href="_cut_tree_8h.html" target="_top" xlink:title="src/analysis/plot/CutTree.h">
<polygon fill="white" stroke="black" points="568,-65.5 568,-86.5 702,-86.5 702,-65.5 568,-65.5"/>
<text text-anchor="middle" x="635" y="-73.5" font-family="Helvetica,sans-Serif" font-size="10.00">src/analysis/plot/CutTree.h</text>
</a>
</g>
<!-- Node1&#45;&gt;Node6 -->
<g id="edge10" class="edge"><title>Node1&#45;&gt;Node6</title>
<path fill="none" stroke="midnightblue" d="M483.001,-127.622C522.348,-114.259 572.185,-97.3334 603.841,-86.5821"/>
<polygon fill="midnightblue" stroke="midnightblue" points="481.584,-124.407 473.241,-130.937 483.835,-131.035 481.584,-124.407"/>
</g>
<!-- Node9 -->
<g id="node17" class="node"><title>Node9</title>
<a xlink:href="hstack_8cc.html" target="_top" xlink:title="src/root&#45;addons/analysis\l_codes/hstack.cc">
<polygon fill="white" stroke="black" points="719.5,-59 719.5,-93 842.5,-93 842.5,-59 719.5,-59"/>
<text text-anchor="start" x="727.5" y="-80" font-family="Helvetica,sans-Serif" font-size="10.00">src/root&#45;addons/analysis</text>
<text text-anchor="middle" x="781" y="-67" font-family="Helvetica,sans-Serif" font-size="10.00">_codes/hstack.cc</text>
</a>
</g>
<!-- Node1&#45;&gt;Node9 -->
<g id="edge16" class="edge"><title>Node1&#45;&gt;Node9</title>
<path fill="none" stroke="midnightblue" d="M494.631,-135.93C553.065,-125.758 637.647,-110.289 711,-94 713.695,-93.4015 716.444,-92.773 719.217,-92.124"/>
<polygon fill="midnightblue" stroke="midnightblue" points="494.014,-132.485 484.759,-137.642 495.21,-139.382 494.014,-132.485"/>
</g>
<!-- Node7 -->
<g id="node13" class="node"><title>Node7</title>
<a xlink:href="_etap_omega_g__plot_8cc.html" target="_top" xlink:title="progs/EtapOmegaG_plot.cc">
<polygon fill="white" stroke="black" points="489.5,-0.5 489.5,-21.5 626.5,-21.5 626.5,-0.5 489.5,-0.5"/>
<text text-anchor="middle" x="558" y="-8.5" font-family="Helvetica,sans-Serif" font-size="10.00">progs/EtapOmegaG_plot.cc</text>
</a>
</g>
<!-- Node6&#45;&gt;Node7 -->
<g id="edge12" class="edge"><title>Node6&#45;&gt;Node7</title>
<path fill="none" stroke="midnightblue" d="M614.585,-58.7667C600.561,-46.9281 582.394,-31.5923 570.478,-21.5337"/>
<polygon fill="midnightblue" stroke="midnightblue" points="612.386,-61.4905 622.285,-65.2666 616.901,-56.1415 612.386,-61.4905"/>
</g>
<!-- Node8 -->
<g id="node15" class="node"><title>Node8</title>
<a xlink:href="_omega_eta_g2__plot_8cc.html" target="_top" xlink:title="Plotting tool for TTrees from the ant::analysis::physics::OmegaEtaG2 physics class. ">
<polygon fill="white" stroke="black" points="643.5,-0.5 643.5,-21.5 780.5,-21.5 780.5,-0.5 643.5,-0.5"/>
<text text-anchor="middle" x="712" y="-8.5" font-family="Helvetica,sans-Serif" font-size="10.00">progs/OmegaEtaG2_plot.cc</text>
</a>
</g>
<!-- Node6&#45;&gt;Node8 -->
<g id="edge14" class="edge"><title>Node6&#45;&gt;Node8</title>
<path fill="none" stroke="midnightblue" d="M655.415,-58.7667C669.439,-46.9281 687.606,-31.5923 699.522,-21.5337"/>
<polygon fill="midnightblue" stroke="midnightblue" points="653.099,-56.1415 647.715,-65.2666 657.614,-61.4905 653.099,-56.1415"/>
</g>
</g>
</svg>
