<?xml version="1.0" encoding="UTF-8" standalone="no"?>
<!DOCTYPE svg PUBLIC "-//W3C//DTD SVG 1.1//EN"
 "http://www.w3.org/Graphics/SVG/1.1/DTD/svg11.dtd">
<!-- Generated by graphviz version 2.26.3 (20100126.1600)
 -->
<!-- Title: Graphical Class Hierarchy Pages: 1 -->
<svg width="504pt" height="264pt"
 viewBox="0.00 0.00 504.00 264.00" xmlns="http://www.w3.org/2000/svg" xmlns:xlink="http://www.w3.org/1999/xlink">
<g id="graph1" class="graph" transform="scale(1 1) rotate(0) translate(4 260)">
<title>Graphical Class Hierarchy</title>
<polygon fill="white" stroke="white" points="-4,5 -4,-260 501,-260 501,5 -4,5"/>
<!-- Node1 -->
<g id="node1" class="node"><title>Node1</title>
<a xlink:href="structant_1_1_wrap_t_tree.html" target="_top" xlink:title="The WrapTTree struct simplifies TTree handling in physics classes. ">
<polygon fill="white" stroke="black" points="0.5,-110.5 0.5,-131.5 85.5,-131.5 85.5,-110.5 0.5,-110.5"/>
<text text-anchor="middle" x="43" y="-118.5" font-family="Helvetica,sans-Serif" font-size="10.00">ant::WrapTTree</text>
</a>
</g>
<!-- Node2 -->
<g id="node3" class="node"><title>Node2</title>
<a xlink:href="structant_1_1analysis_1_1physics_1_1_etap_omega_g_1_1_ref__t_1_1_tree__t.html" target="_top" xlink:title="ant::analysis::physics\l::EtapOmegaG::Ref_t::Tree_t">
<polygon fill="white" stroke="black" points="137,-222 137,-256 283,-256 283,-222 137,-222"/>
<text text-anchor="start" x="145" y="-243" font-family="Helvetica,sans-Serif" font-size="10.00">ant::analysis::physics</text>
<text text-anchor="middle" x="210" y="-230" font-family="Helvetica,sans-Serif" font-size="10.00">::EtapOmegaG::Ref_t::Tree_t</text>
</a>
</g>
<!-- Node1&#45;&gt;Node2 -->
<g id="edge2" class="edge"><title>Node1&#45;&gt;Node2</title>
<path fill="none" stroke="midnightblue" d="M54.6379,-140.217C68.2605,-161.114 92.7234,-194.057 122,-213 127.216,-216.375 132.886,-219.325 138.749,-221.902"/>
<polygon fill="midnightblue" stroke="midnightblue" points="57.4652,-138.139 49.1633,-131.557 51.5483,-141.88 57.4652,-138.139"/>
</g>
<!-- Node3 -->
<g id="node5" class="node"><title>Node3</title>
<a xlink:href="structant_1_1analysis_1_1physics_1_1_etap_omega_g_1_1_sig__t_1_1_fit__t_1_1_base_tree__t.html" target="_top" xlink:title="ant::analysis::physics\l::EtapOmegaG::Sig_t::Fit\l_t::BaseTree_t">
<polygon fill="white" stroke="black" points="146,-156.5 146,-203.5 274,-203.5 274,-156.5 146,-156.5"/>
<text text-anchor="start" x="154" y="-190.5" font-family="Helvetica,sans-Serif" font-size="10.00">ant::analysis::physics</text>
<text text-anchor="start" x="154" y="-177.5" font-family="Helvetica,sans-Serif" font-size="10.00">::EtapOmegaG::Sig_t::Fit</text>
<text text-anchor="middle" x="210" y="-164.5" font-family="Helvetica,sans-Serif" font-size="10.00">_t::BaseTree_t</text>
</a>
</g>
<!-- Node1&#45;&gt;Node3 -->
<g id="edge4" class="edge"><title>Node1&#45;&gt;Node3</title>
<path fill="none" stroke="midnightblue" d="M82.3317,-134.896C101.253,-141.58 124.423,-149.766 145.807,-157.321"/>
<polygon fill="midnightblue" stroke="midnightblue" points="83.451,-131.579 72.8563,-131.548 81.1192,-138.179 83.451,-131.579"/>
</g>
<!-- Node6 -->
<g id="node11" class="node"><title>Node6</title>
<a xlink:href="structant_1_1analysis_1_1physics_1_1_etap_omega_g_1_1_sig__t_1_1_shared_tree__t.html" target="_top" xlink:title="ant::analysis::physics\l::EtapOmegaG::Sig_t::SharedTree_t">
<polygon fill="white" stroke="black" points="122.5,-104 122.5,-138 297.5,-138 297.5,-104 122.5,-104"/>
<text text-anchor="start" x="130.5" y="-125" font-family="Helvetica,sans-Serif" font-size="10.00">ant::analysis::physics</text>
<text text-anchor="middle" x="210" y="-112" font-family="Helvetica,sans-Serif" font-size="10.00">::EtapOmegaG::Sig_t::SharedTree_t</text>
</a>
</g>
<!-- Node1&#45;&gt;Node6 -->
<g id="edge10" class="edge"><title>Node1&#45;&gt;Node6</title>
<path fill="none" stroke="midnightblue" d="M95.6826,-121C104.196,-121 113.207,-121 122.285,-121"/>
<polygon fill="midnightblue" stroke="midnightblue" points="95.5733,-117.5 85.5733,-121 95.5732,-124.5 95.5733,-117.5"/>
</g>
<!-- Node7 -->
<g id="node13" class="node"><title>Node7</title>
<a xlink:href="structant_1_1analysis_1_1physics_1_1_etap_omega_g_1_1_tree_common.html" target="_top" xlink:title="ant::analysis::physics\l::EtapOmegaG::TreeCommon">
<polygon fill="white" stroke="black" points="136.5,-52 136.5,-86 283.5,-86 283.5,-52 136.5,-52"/>
<text text-anchor="start" x="144.5" y="-73" font-family="Helvetica,sans-Serif" font-size="10.00">ant::analysis::physics</text>
<text text-anchor="middle" x="210" y="-60" font-family="Helvetica,sans-Serif" font-size="10.00">::EtapOmegaG::TreeCommon</text>
</a>
</g>
<!-- Node1&#45;&gt;Node7 -->
<g id="edge12" class="edge"><title>Node1&#45;&gt;Node7</title>
<path fill="none" stroke="midnightblue" d="M83.9449,-107.26C96.1627,-103.231 109.602,-98.8707 122,-95 131.428,-92.0565 141.451,-89.0137 151.228,-86.0924"/>
<polygon fill="midnightblue" stroke="midnightblue" points="82.8442,-103.937 74.4515,-110.404 85.0448,-110.582 82.8442,-103.937"/>
</g>
<!-- Node8 -->
<g id="node15" class="node"><title>Node8</title>
<a xlink:href="structant_1_1analysis_1_1physics_1_1_omega_eta_g2_1_1_omega_tree__t.html" target="_top" xlink:title="ant::analysis::physics\l::OmegaEtaG2::OmegaTree_t">
<polygon fill="white" stroke="black" points="136.5,-0 136.5,-34 283.5,-34 283.5,-0 136.5,-0"/>
<text text-anchor="start" x="144.5" y="-21" font-family="Helvetica,sans-Serif" font-size="10.00">ant::analysis::physics</text>
<text text-anchor="middle" x="210" y="-8" font-family="Helvetica,sans-Serif" font-size="10.00">::OmegaEtaG2::OmegaTree_t</text>
</a>
</g>
<!-- Node1&#45;&gt;Node8 -->
<g id="edge14" class="edge"><title>Node1&#45;&gt;Node8</title>
<path fill="none" stroke="midnightblue" d="M57.3032,-102.306C71.7899,-84.6032 95.753,-58.49 122,-43 127.762,-39.5993 134.002,-36.6147 140.409,-34.0011"/>
<polygon fill="midnightblue" stroke="midnightblue" points="54.4778,-100.236 50.9842,-110.238 59.9528,-104.598 54.4778,-100.236"/>
</g>
<!-- Node4 -->
<g id="node7" class="node"><title>Node4</title>
<a xlink:href="structant_1_1analysis_1_1physics_1_1_etap_omega_g_1_1_sig__t_1_1_omega_pi0__t_1_1_base_tree__t.html" target="_top" xlink:title="ant::analysis::physics\l::EtapOmegaG::Sig_t::OmegaPi0\l_t::BaseTree_t">
<polygon fill="white" stroke="black" points="334,-189.5 334,-236.5 496,-236.5 496,-189.5 334,-189.5"/>
<text text-anchor="start" x="342" y="-223.5" font-family="Helvetica,sans-Serif" font-size="10.00">ant::analysis::physics</text>
<text text-anchor="start" x="342" y="-210.5" font-family="Helvetica,sans-Serif" font-size="10.00">::EtapOmegaG::Sig_t::OmegaPi0</text>
<text text-anchor="middle" x="415" y="-197.5" font-family="Helvetica,sans-Serif" font-size="10.00">_t::BaseTree_t</text>
</a>
</g>
<!-- Node3&#45;&gt;Node4 -->
<g id="edge6" class="edge"><title>Node3&#45;&gt;Node4</title>
<path fill="none" stroke="midnightblue" d="M283.938,-191.902C300.106,-194.505 317.305,-197.273 333.741,-199.919"/>
<polygon fill="midnightblue" stroke="midnightblue" points="284.449,-188.44 274.02,-190.306 283.337,-195.351 284.449,-188.44"/>
</g>
<!-- Node5 -->
<g id="node9" class="node"><title>Node5</title>
<a xlink:href="structant_1_1analysis_1_1physics_1_1_etap_omega_g_1_1_sig__t_1_1_pi0__t_1_1_base_tree__t.html" target="_top" xlink:title="ant::analysis::physics\l::EtapOmegaG::Sig_t::Pi0\l_t::BaseTree_t">
<polygon fill="white" stroke="black" points="349.5,-123.5 349.5,-170.5 480.5,-170.5 480.5,-123.5 349.5,-123.5"/>
<text text-anchor="start" x="357.5" y="-157.5" font-family="Helvetica,sans-Serif" font-size="10.00">ant::analysis::physics</text>
<text text-anchor="start" x="357.5" y="-144.5" font-family="Helvetica,sans-Serif" font-size="10.00">::EtapOmegaG::Sig_t::Pi0</text>
<text text-anchor="middle" x="415" y="-131.5" font-family="Helvetica,sans-Serif" font-size="10.00">_t::BaseTree_t</text>
</a>
</g>
<!-- Node3&#45;&gt;Node5 -->
<g id="edge8" class="edge"><title>Node3&#45;&gt;Node5</title>
<path fill="none" stroke="midnightblue" d="M284.017,-168.085C305.378,-164.646 328.531,-160.919 349.346,-157.569"/>
<polygon fill="midnightblue" stroke="midnightblue" points="283.337,-164.649 274.02,-169.694 284.449,-171.56 283.337,-164.649"/>
</g>
</g>
</svg>
