<?xml version="1.0" encoding="UTF-8" standalone="no"?>
<!DOCTYPE svg PUBLIC "-//W3C//DTD SVG 1.1//EN"
 "http://www.w3.org/Graphics/SVG/1.1/DTD/svg11.dtd">
<!-- Generated by graphviz version 2.26.3 (20100126.1600)
 -->
<!-- Title: Graphical Class Hierarchy Pages: 1 -->
<svg width="596pt" height="434pt"
 viewBox="0.00 0.00 596.00 434.00" xmlns="http://www.w3.org/2000/svg" xmlns:xlink="http://www.w3.org/1999/xlink">
<g id="graph1" class="graph" transform="scale(1 1) rotate(0) translate(4 430)">
<title>Graphical Class Hierarchy</title>
<polygon fill="white" stroke="white" points="-4,5 -4,-430 593,-430 593,5 -4,5"/>
<!-- Node1 -->
<g id="node1" class="node"><title>Node1</title>
<a xlink:href="classant_1_1calibration_1_1gui_1_1_manager_window__traits.html" target="_top" xlink:title="ant::calibration::gui\l::ManagerWindow_traits">
<polygon fill="white" stroke="black" points="1,-392 1,-426 123,-426 123,-392 1,-392"/>
<text text-anchor="start" x="9" y="-413" font-family="Helvetica,sans-Serif" font-size="10.00">ant::calibration::gui</text>
<text text-anchor="middle" x="62" y="-400" font-family="Helvetica,sans-Serif" font-size="10.00">::ManagerWindow_traits</text>
</a>
</g>
<!-- Node2 -->
<g id="node3" class="node"><title>Node2</title>
<a xlink:href="classant_1_1calibration_1_1gui_1_1_manager_window.html" target="_top" xlink:title="ant::calibration::gui\l::ManagerWindow">
<polygon fill="white" stroke="black" points="177.5,-392 177.5,-426 276.5,-426 276.5,-392 177.5,-392"/>
<text text-anchor="start" x="185.5" y="-413" font-family="Helvetica,sans-Serif" font-size="10.00">ant::calibration::gui</text>
<text text-anchor="middle" x="227" y="-400" font-family="Helvetica,sans-Serif" font-size="10.00">::ManagerWindow</text>
</a>
</g>
<!-- Node1&#45;&gt;Node2 -->
<g id="edge2" class="edge"><title>Node1&#45;&gt;Node2</title>
<path fill="none" stroke="midnightblue" d="M133.562,-409C148.327,-409 163.568,-409 177.348,-409"/>
<polygon fill="midnightblue" stroke="midnightblue" points="133.44,-405.5 123.44,-409 133.44,-412.5 133.44,-405.5"/>
</g>
<!-- Node3 -->
<g id="node4" class="node"><title>Node3</title>
<polygon fill="white" stroke="#bfbfbf" points="34,-254.5 34,-275.5 90,-275.5 90,-254.5 34,-254.5"/>
<text text-anchor="middle" x="62" y="-262.5" font-family="Helvetica,sans-Serif" font-size="10.00">TCanvas</text>
</g>
<!-- Node4 -->
<g id="node6" class="node"><title>Node4</title>
<a xlink:href="classant_1_1calibration_1_1gui_1_1_cal_canvas.html" target="_top" xlink:title="ant::calibration::gui\l::CalCanvas">
<polygon fill="white" stroke="black" points="177.5,-196 177.5,-230 276.5,-230 276.5,-196 177.5,-196"/>
<text text-anchor="start" x="185.5" y="-217" font-family="Helvetica,sans-Serif" font-size="10.00">ant::calibration::gui</text>
<text text-anchor="middle" x="227" y="-204" font-family="Helvetica,sans-Serif" font-size="10.00">::CalCanvas</text>
</a>
</g>
<!-- Node3&#45;&gt;Node4 -->
<g id="edge4" class="edge"><title>Node3&#45;&gt;Node4</title>
<path fill="none" stroke="midnightblue" d="M100.096,-252.994C123.067,-245.755 152.581,-236.453 177.364,-228.643"/>
<polygon fill="midnightblue" stroke="midnightblue" points="98.85,-249.717 90.3645,-256.061 100.954,-256.393 98.85,-249.717"/>
</g>
<!-- Node5 -->
<g id="node8" class="node"><title>Node5</title>
<a xlink:href="classant_1_1calibration_1_1gui_1_1_editor_canvas.html" target="_top" xlink:title="ant::calibration::gui\l::EditorCanvas">
<polygon fill="white" stroke="black" points="177.5,-248 177.5,-282 276.5,-282 276.5,-248 177.5,-248"/>
<text text-anchor="start" x="185.5" y="-269" font-family="Helvetica,sans-Serif" font-size="10.00">ant::calibration::gui</text>
<text text-anchor="middle" x="227" y="-256" font-family="Helvetica,sans-Serif" font-size="10.00">::EditorCanvas</text>
</a>
</g>
<!-- Node3&#45;&gt;Node5 -->
<g id="edge6" class="edge"><title>Node3&#45;&gt;Node5</title>
<path fill="none" stroke="midnightblue" d="M100.406,-265C123.332,-265 152.692,-265 177.364,-265"/>
<polygon fill="midnightblue" stroke="midnightblue" points="100.365,-261.5 90.3645,-265 100.364,-268.5 100.365,-261.5"/>
</g>
<!-- Node6 -->
<g id="node10" class="node"><title>Node6</title>
<a xlink:href="class_browse_histograms_canvas.html" target="_top" xlink:title="BrowseHistogramsCanvas">
<polygon fill="white" stroke="black" points="160,-352.5 160,-373.5 294,-373.5 294,-352.5 160,-352.5"/>
<text text-anchor="middle" x="227" y="-360.5" font-family="Helvetica,sans-Serif" font-size="10.00">BrowseHistogramsCanvas</text>
</a>
</g>
<!-- Node3&#45;&gt;Node6 -->
<g id="edge8" class="edge"><title>Node3&#45;&gt;Node6</title>
<path fill="none" stroke="midnightblue" d="M81.8463,-282.292C105.394,-302.538 143.533,-334.403 160,-343 167.102,-346.708 174.996,-349.833 182.8,-352.43"/>
<polygon fill="midnightblue" stroke="midnightblue" points="84.0402,-279.563 74.1851,-275.673 79.4638,-284.859 84.0402,-279.563"/>
</g>
<!-- Node7 -->
<g id="node11" class="node"><title>Node7</title>
<polygon fill="white" stroke="#bfbfbf" points="22.5,-329.5 22.5,-350.5 101.5,-350.5 101.5,-329.5 22.5,-329.5"/>
<text text-anchor="middle" x="62" y="-337.5" font-family="Helvetica,sans-Serif" font-size="10.00">TGMainFrame</text>
</g>
<!-- Node7&#45;&gt;Node2 -->
<g id="edge12" class="edge"><title>Node7&#45;&gt;Node2</title>
<path fill="none" stroke="midnightblue" d="M94.3727,-354.625C113.398,-363.114 137.965,-373.896 160,-383 167.15,-385.954 174.766,-389.002 182.204,-391.926"/>
<polygon fill="midnightblue" stroke="midnightblue" points="95.8007,-351.43 85.2435,-350.538 92.9402,-357.819 95.8007,-351.43"/>
</g>
<!-- Node8 -->
<g id="node13" class="node"><title>Node8</title>
<a xlink:href="classant_1_1calibration_1_1gui_1_1_editor_window.html" target="_top" xlink:title="ant::calibration::gui\l::EditorWindow">
<polygon fill="white" stroke="black" points="177.5,-300 177.5,-334 276.5,-334 276.5,-300 177.5,-300"/>
<text text-anchor="start" x="185.5" y="-321" font-family="Helvetica,sans-Serif" font-size="10.00">ant::calibration::gui</text>
<text text-anchor="middle" x="227" y="-308" font-family="Helvetica,sans-Serif" font-size="10.00">::EditorWindow</text>
</a>
</g>
<!-- Node7&#45;&gt;Node8 -->
<g id="edge10" class="edge"><title>Node7&#45;&gt;Node8</title>
<path fill="none" stroke="midnightblue" d="M111.465,-333.105C132.333,-330.196 156.579,-326.816 177.455,-323.906"/>
<polygon fill="midnightblue" stroke="midnightblue" points="110.943,-329.644 101.522,-334.491 111.909,-336.577 110.943,-329.644"/>
</g>
<!-- Node9 -->
<g id="node15" class="node"><title>Node9</title>
<polygon fill="white" stroke="#bfbfbf" points="206.5,-156.5 206.5,-177.5 247.5,-177.5 247.5,-156.5 206.5,-156.5"/>
<text text-anchor="middle" x="227" y="-164.5" font-family="Helvetica,sans-Serif" font-size="10.00">TLine</text>
</g>
<!-- Node10 -->
<g id="node17" class="node"><title>Node10</title>
<a xlink:href="classant_1_1calibration_1_1gui_1_1_indicator_line.html" target="_top" xlink:title="ant::calibration::gui\l::IndicatorLine">
<polygon fill="white" stroke="black" points="330.5,-127 330.5,-161 429.5,-161 429.5,-127 330.5,-127"/>
<text text-anchor="start" x="338.5" y="-148" font-family="Helvetica,sans-Serif" font-size="10.00">ant::calibration::gui</text>
<text text-anchor="middle" x="380" y="-135" font-family="Helvetica,sans-Serif" font-size="10.00">::IndicatorLine</text>
</a>
</g>
<!-- Node9&#45;&gt;Node10 -->
<g id="edge14" class="edge"><title>Node9&#45;&gt;Node10</title>
<path fill="none" stroke="midnightblue" d="M257.809,-162.369C278.62,-159.24 306.551,-155.041 330.456,-151.448"/>
<polygon fill="midnightblue" stroke="midnightblue" points="257.003,-158.95 247.634,-163.898 258.043,-165.873 257.003,-158.95"/>
</g>
<!-- Node11 -->
<g id="node19" class="node"><title>Node11</title>
<a xlink:href="classant_1_1calibration_1_1gui_1_1_horizontal_indicator_line.html" target="_top" xlink:title="ant::calibration::gui\l::HorizontalIndicatorLine">
<polygon fill="white" stroke="black" points="466,-153 466,-187 588,-187 588,-153 466,-153"/>
<text text-anchor="start" x="474" y="-174" font-family="Helvetica,sans-Serif" font-size="10.00">ant::calibration::gui</text>
<text text-anchor="middle" x="527" y="-161" font-family="Helvetica,sans-Serif" font-size="10.00">::HorizontalIndicatorLine</text>
</a>
</g>
<!-- Node10&#45;&gt;Node11 -->
<g id="edge16" class="edge"><title>Node10&#45;&gt;Node11</title>
<path fill="none" stroke="midnightblue" d="M439.715,-154.562C448.317,-156.083 457.18,-157.651 465.81,-159.177"/>
<polygon fill="midnightblue" stroke="midnightblue" points="440.224,-151.098 429.767,-152.802 439.005,-157.991 440.224,-151.098"/>
</g>
<!-- Node12 -->
<g id="node21" class="node"><title>Node12</title>
<a xlink:href="classant_1_1calibration_1_1gui_1_1_vertical_indicator_line.html" target="_top" xlink:title="ant::calibration::gui\l::VerticalIndicatorLine">
<polygon fill="white" stroke="black" points="471.5,-101 471.5,-135 582.5,-135 582.5,-101 471.5,-101"/>
<text text-anchor="start" x="479.5" y="-122" font-family="Helvetica,sans-Serif" font-size="10.00">ant::calibration::gui</text>
<text text-anchor="middle" x="527" y="-109" font-family="Helvetica,sans-Serif" font-size="10.00">::VerticalIndicatorLine</text>
</a>
</g>
<!-- Node10&#45;&gt;Node12 -->
<g id="edge18" class="edge"><title>Node10&#45;&gt;Node12</title>
<path fill="none" stroke="midnightblue" d="M439.689,-133.443C450.193,-131.585 461.087,-129.658 471.471,-127.821"/>
<polygon fill="midnightblue" stroke="midnightblue" points="439.005,-130.009 429.767,-135.198 440.224,-136.902 439.005,-130.009"/>
</g>
<!-- Node13 -->
<g id="node22" class="node"><title>Node13</title>
<polygon fill="white" stroke="#bfbfbf" points="0,-32.5 0,-53.5 124,-53.5 124,-32.5 0,-32.5"/>
<text text-anchor="middle" x="62" y="-40.5" font-family="Helvetica,sans-Serif" font-size="10.00">TRootEmbeddedCanvas</text>
</g>
<!-- Node14 -->
<g id="node24" class="node"><title>Node14</title>
<a xlink:href="classant_1_1calibration_1_1gui_1_1_embedded_canvas.html" target="_top" xlink:title="ant::calibration::gui\l::EmbeddedCanvas">
<polygon fill="white" stroke="black" points="175.5,-0 175.5,-34 278.5,-34 278.5,-0 175.5,-0"/>
<text text-anchor="start" x="183.5" y="-21" font-family="Helvetica,sans-Serif" font-size="10.00">ant::calibration::gui</text>
<text text-anchor="middle" x="227" y="-8" font-family="Helvetica,sans-Serif" font-size="10.00">::EmbeddedCanvas</text>
</a>
</g>
<!-- Node13&#45;&gt;Node14 -->
<g id="edge20" class="edge"><title>Node13&#45;&gt;Node14</title>
<path fill="none" stroke="midnightblue" d="M134.331,-31.6023C148.123,-29.4291 162.3,-27.1952 175.288,-25.1485"/>
<polygon fill="midnightblue" stroke="midnightblue" points="133.713,-28.1565 124.379,-33.1705 134.802,-35.0712 133.713,-28.1565"/>
</g>
<!-- Node15 -->
<g id="node26" class="node"><title>Node15</title>
<a xlink:href="classant_1_1calibration_1_1gui_1_1_embedded_editor_canvas.html" target="_top" xlink:title="ant::calibration::gui\l::EmbeddedEditorCanvas">
<polygon fill="white" stroke="black" points="163,-52 163,-86 291,-86 291,-52 163,-52"/>
<text text-anchor="start" x="171" y="-73" font-family="Helvetica,sans-Serif" font-size="10.00">ant::calibration::gui</text>
<text text-anchor="middle" x="227" y="-60" font-family="Helvetica,sans-Serif" font-size="10.00">::EmbeddedEditorCanvas</text>
</a>
</g>
<!-- Node13&#45;&gt;Node15 -->
<g id="edge22" class="edge"><title>Node13&#45;&gt;Node15</title>
<path fill="none" stroke="midnightblue" d="M134.532,-54.4293C143.975,-55.9172 153.594,-57.433 162.886,-58.8971"/>
<polygon fill="midnightblue" stroke="midnightblue" points="134.802,-50.9288 124.379,-52.8295 133.713,-57.8435 134.802,-50.9288"/>
</g>
<!-- Node16 -->
<g id="node27" class="node"><title>Node16</title>
<a xlink:href="classant_1_1calibration_1_1gui_1_1update__notify__traits.html" target="_top" xlink:title="ant::calibration::gui\l::update_notify_traits">
<polygon fill="white" stroke="black" points="8,-196 8,-230 116,-230 116,-196 8,-196"/>
<text text-anchor="start" x="16" y="-217" font-family="Helvetica,sans-Serif" font-size="10.00">ant::calibration::gui</text>
<text text-anchor="middle" x="62" y="-204" font-family="Helvetica,sans-Serif" font-size="10.00">::update_notify_traits</text>
</a>
</g>
<!-- Node16&#45;&gt;Node4 -->
<g id="edge24" class="edge"><title>Node16&#45;&gt;Node4</title>
<path fill="none" stroke="midnightblue" d="M126.397,-213C143.316,-213 161.304,-213 177.32,-213"/>
<polygon fill="midnightblue" stroke="midnightblue" points="126.027,-209.5 116.027,-213 126.027,-216.5 126.027,-209.5"/>
</g>
<!-- Node16&#45;&gt;Node5 -->
<g id="edge26" class="edge"><title>Node16&#45;&gt;Node5</title>
<path fill="none" stroke="midnightblue" d="M125.918,-233.144C142.976,-238.52 161.153,-244.248 177.32,-249.343"/>
<polygon fill="midnightblue" stroke="midnightblue" points="126.617,-229.694 116.027,-230.027 124.513,-236.371 126.617,-229.694"/>
</g>
<!-- Node16&#45;&gt;Node8 -->
<g id="edge28" class="edge"><title>Node16&#45;&gt;Node8</title>
<path fill="none" stroke="midnightblue" d="M110.17,-235.172C115.035,-238.191 119.743,-241.475 124,-245 143.996,-261.557 139.153,-275.528 160,-291 165.31,-294.941 171.293,-298.365 177.443,-301.316"/>
<polygon fill="midnightblue" stroke="midnightblue" points="111.716,-232.023 101.31,-230.032 108.204,-238.078 111.716,-232.023"/>
</g>
<!-- Node16&#45;&gt;Node15 -->
<g id="edge30" class="edge"><title>Node16&#45;&gt;Node15</title>
<path fill="none" stroke="midnightblue" d="M77.8029,-187.106C95.0771,-160.718 125.008,-120.191 160,-95 164.658,-91.6468 169.805,-88.6591 175.116,-86.0139"/>
<polygon fill="midnightblue" stroke="midnightblue" points="74.6795,-185.493 72.233,-195.801 80.574,-189.269 74.6795,-185.493"/>
</g>
<!-- Node17 -->
<g id="node33" class="node"><title>Node17</title>
<a xlink:href="classant_1_1calibration_1_1gui_1_1_indicator.html" target="_top" xlink:title="ant::calibration::gui\l::Indicator">
<polygon fill="white" stroke="black" points="177.5,-104 177.5,-138 276.5,-138 276.5,-104 177.5,-104"/>
<text text-anchor="start" x="185.5" y="-125" font-family="Helvetica,sans-Serif" font-size="10.00">ant::calibration::gui</text>
<text text-anchor="middle" x="227" y="-112" font-family="Helvetica,sans-Serif" font-size="10.00">::Indicator</text>
</a>
</g>
<!-- Node16&#45;&gt;Node17 -->
<g id="edge32" class="edge"><title>Node16&#45;&gt;Node17</title>
<path fill="none" stroke="midnightblue" d="M92.641,-189.772C111.433,-176.195 136.351,-159.355 160,-147 166.082,-143.822 172.644,-140.81 179.198,-138.039"/>
<polygon fill="midnightblue" stroke="midnightblue" points="90.4697,-187.023 84.4647,-195.752 94.6023,-192.673 90.4697,-187.023"/>
</g>
<!-- Node17&#45;&gt;Node10 -->
<g id="edge34" class="edge"><title>Node17&#45;&gt;Node10</title>
<path fill="none" stroke="midnightblue" d="M286.953,-130.012C301.308,-132.17 316.48,-134.451 330.313,-136.531"/>
<polygon fill="midnightblue" stroke="midnightblue" points="287.084,-126.493 276.675,-128.467 286.043,-133.415 287.084,-126.493"/>
</g>
</g>
</svg>
