<?xml version="1.0" encoding="UTF-8" standalone="no"?>
<!DOCTYPE svg PUBLIC "-//W3C//DTD SVG 1.1//EN"
 "http://www.w3.org/Graphics/SVG/1.1/DTD/svg11.dtd">
<!-- Generated by graphviz version 2.26.3 (20100126.1600)
 -->
<!-- Title: Graphical Class Hierarchy Pages: 1 -->
<svg width="594pt" height="732pt"
 viewBox="0.00 0.00 594.00 732.00" xmlns="http://www.w3.org/2000/svg" xmlns:xlink="http://www.w3.org/1999/xlink">
<g id="graph1" class="graph" transform="scale(1 1) rotate(0) translate(4 728)">
<title>Graphical Class Hierarchy</title>
<polygon fill="white" stroke="white" points="-4,5 -4,-728 591,-728 591,5 -4,5"/>
<!-- Node1 -->
<g id="node1" class="node"><title>Node1</title>
<a xlink:title="STL class. ">
<polygon fill="white" stroke="#bfbfbf" points="0,-333.5 0,-354.5 78,-354.5 78,-333.5 0,-333.5"/>
<text text-anchor="middle" x="39" y="-341.5" font-family="Helvetica,sans-Serif" font-size="10.00">std::exception</text>
</a>
</g>
<!-- Node2 -->
<g id="node3" class="node"><title>Node2</title>
<a xlink:title="STL class. ">
<polygon fill="white" stroke="#bfbfbf" points="114.5,-333.5 114.5,-354.5 207.5,-354.5 207.5,-333.5 114.5,-333.5"/>
<text text-anchor="middle" x="161" y="-341.5" font-family="Helvetica,sans-Serif" font-size="10.00">std::runtime_error</text>
</a>
</g>
<!-- Node1&#45;&gt;Node2 -->
<g id="edge2" class="edge"><title>Node1&#45;&gt;Node2</title>
<path fill="none" stroke="midnightblue" d="M88.4264,-344C96.9145,-344 105.713,-344 114.131,-344"/>
<polygon fill="midnightblue" stroke="midnightblue" points="88.2731,-340.5 78.2731,-344 88.2731,-347.5 88.2731,-340.5"/>
</g>
<!-- Node3 -->
<g id="node5" class="node"><title>Node3</title>
<a xlink:href="classant_1_1analysis_1_1input_1_1_data_reader_1_1_exception.html" target="_top" xlink:title="ant::analysis::input\l::DataReader::Exception">
<polygon fill="white" stroke="black" points="257.5,-690 257.5,-724 382.5,-724 382.5,-690 257.5,-690"/>
<text text-anchor="start" x="265.5" y="-711" font-family="Helvetica,sans-Serif" font-size="10.00">ant::analysis::input</text>
<text text-anchor="middle" x="320" y="-698" font-family="Helvetica,sans-Serif" font-size="10.00">::DataReader::Exception</text>
</a>
</g>
<!-- Node2&#45;&gt;Node3 -->
<g id="edge4" class="edge"><title>Node2&#45;&gt;Node3</title>
<path fill="none" stroke="midnightblue" d="M163.495,-364.727C171.811,-430.587 200.536,-633.526 244,-681 247.861,-685.217 252.434,-688.75 257.393,-691.711"/>
<polygon fill="midnightblue" stroke="midnightblue" points="166.96,-364.225 162.258,-354.73 160.013,-365.084 166.96,-364.225"/>
</g>
<!-- Node4 -->
<g id="node7" class="node"><title>Node4</title>
<a xlink:href="classant_1_1analysis_1_1_physics_manager_1_1_exception.html" target="_top" xlink:title="ant::analysis::PhysicsManager\l::Exception">
<polygon fill="white" stroke="black" points="244.5,-638 244.5,-672 395.5,-672 395.5,-638 244.5,-638"/>
<text text-anchor="start" x="252.5" y="-659" font-family="Helvetica,sans-Serif" font-size="10.00">ant::analysis::PhysicsManager</text>
<text text-anchor="middle" x="320" y="-646" font-family="Helvetica,sans-Serif" font-size="10.00">::Exception</text>
</a>
</g>
<!-- Node2&#45;&gt;Node4 -->
<g id="edge6" class="edge"><title>Node2&#45;&gt;Node4</title>
<path fill="none" stroke="midnightblue" d="M164.462,-364.535C174.729,-423.206 206.638,-589.869 244,-629 247.274,-632.429 251.019,-635.406 255.053,-637.991"/>
<polygon fill="midnightblue" stroke="midnightblue" points="167.897,-363.861 162.751,-354.6 160.999,-365.049 167.897,-363.861"/>
</g>
<!-- Node5 -->
<g id="node9" class="node"><title>Node5</title>
<a xlink:href="structant_1_1analysis_1_1_physics_registry_1_1_exception.html" target="_top" xlink:title="ant::analysis::PhysicsRegistry\l::Exception">
<polygon fill="white" stroke="black" points="245,-586 245,-620 395,-620 395,-586 245,-586"/>
<text text-anchor="start" x="253" y="-607" font-family="Helvetica,sans-Serif" font-size="10.00">ant::analysis::PhysicsRegistry</text>
<text text-anchor="middle" x="320" y="-594" font-family="Helvetica,sans-Serif" font-size="10.00">::Exception</text>
</a>
</g>
<!-- Node2&#45;&gt;Node5 -->
<g id="edge8" class="edge"><title>Node2&#45;&gt;Node5</title>
<path fill="none" stroke="midnightblue" d="M162.461,-364.495C166.749,-409.334 183.158,-516.919 244,-577 247.473,-580.429 251.417,-583.407 255.638,-585.993"/>
<polygon fill="midnightblue" stroke="midnightblue" points="165.947,-364.182 161.612,-354.514 158.972,-364.775 165.947,-364.182"/>
</g>
<!-- Node6 -->
<g id="node11" class="node"><title>Node6</title>
<a xlink:href="classant_1_1analysis_1_1slowcontrol_1_1_processor_1_1_exception.html" target="_top" xlink:title="ant::analysis::slowcontrol\l::Processor::Exception">
<polygon fill="white" stroke="black" points="256,-534 256,-568 384,-568 384,-534 256,-534"/>
<text text-anchor="start" x="264" y="-555" font-family="Helvetica,sans-Serif" font-size="10.00">ant::analysis::slowcontrol</text>
<text text-anchor="middle" x="320" y="-542" font-family="Helvetica,sans-Serif" font-size="10.00">::Processor::Exception</text>
</a>
</g>
<!-- Node2&#45;&gt;Node6 -->
<g id="edge10" class="edge"><title>Node2&#45;&gt;Node6</title>
<path fill="none" stroke="midnightblue" d="M164.952,-364.919C173.089,-402.323 195.205,-480.87 244,-525 247.723,-528.367 251.903,-531.302 256.336,-533.859"/>
<polygon fill="midnightblue" stroke="midnightblue" points="168.297,-363.809 162.861,-354.715 161.44,-365.214 168.297,-363.809"/>
</g>
<!-- Node7 -->
<g id="node13" class="node"><title>Node7</title>
<a xlink:href="structant_1_1analysis_1_1utils_1_1_fitter_1_1_exception.html" target="_top" xlink:title="ant::analysis::utils\l::Fitter::Exception">
<polygon fill="white" stroke="black" points="272,-482 272,-516 368,-516 368,-482 272,-482"/>
<text text-anchor="start" x="280" y="-503" font-family="Helvetica,sans-Serif" font-size="10.00">ant::analysis::utils</text>
<text text-anchor="middle" x="320" y="-490" font-family="Helvetica,sans-Serif" font-size="10.00">::Fitter::Exception</text>
</a>
</g>
<!-- Node2&#45;&gt;Node7 -->
<g id="edge12" class="edge"><title>Node2&#45;&gt;Node7</title>
<path fill="none" stroke="midnightblue" d="M168.82,-364.007C180.839,-392.242 206.465,-443.607 244,-473 252.125,-479.362 261.903,-484.219 271.699,-487.909"/>
<polygon fill="midnightblue" stroke="midnightblue" points="172.049,-362.655 165.011,-354.735 165.574,-365.314 172.049,-362.655"/>
</g>
<!-- Node8 -->
<g id="node15" class="node"><title>Node8</title>
<a xlink:href="structant_1_1analysis_1_1utils_1_1_uncertainty_models_1_1_constant_1_1_exception.html" target="_top" xlink:title="ant::analysis::utils\l::UncertaintyModels::\lConstant::Exception">
<polygon fill="white" stroke="black" points="265,-416.5 265,-463.5 375,-463.5 375,-416.5 265,-416.5"/>
<text text-anchor="start" x="273" y="-450.5" font-family="Helvetica,sans-Serif" font-size="10.00">ant::analysis::utils</text>
<text text-anchor="start" x="273" y="-437.5" font-family="Helvetica,sans-Serif" font-size="10.00">::UncertaintyModels::</text>
<text text-anchor="middle" x="320" y="-424.5" font-family="Helvetica,sans-Serif" font-size="10.00">Constant::Exception</text>
</a>
</g>
<!-- Node2&#45;&gt;Node8 -->
<g id="edge14" class="edge"><title>Node2&#45;&gt;Node8</title>
<path fill="none" stroke="midnightblue" d="M180.739,-361.145C196.983,-374.708 220.998,-393.54 244,-407 250.58,-410.851 257.693,-414.521 264.836,-417.921"/>
<polygon fill="midnightblue" stroke="midnightblue" points="182.891,-358.381 172.999,-354.588 178.367,-363.722 182.891,-358.381"/>
</g>
<!-- Node9 -->
<g id="node17" class="node"><title>Node9</title>
<a xlink:href="structant_1_1analysis_1_1utils_1_1_uncertainty_models_1_1_m_c_extracted_1_1_exception.html" target="_top" xlink:title="ant::analysis::utils\l::UncertaintyModels::\lMCExtracted::Exception">
<polygon fill="white" stroke="black" points="258,-350.5 258,-397.5 382,-397.5 382,-350.5 258,-350.5"/>
<text text-anchor="start" x="266" y="-384.5" font-family="Helvetica,sans-Serif" font-size="10.00">ant::analysis::utils</text>
<text text-anchor="start" x="266" y="-371.5" font-family="Helvetica,sans-Serif" font-size="10.00">::UncertaintyModels::</text>
<text text-anchor="middle" x="320" y="-358.5" font-family="Helvetica,sans-Serif" font-size="10.00">MCExtracted::Exception</text>
</a>
</g>
<!-- Node2&#45;&gt;Node9 -->
<g id="edge16" class="edge"><title>Node2&#45;&gt;Node9</title>
<path fill="none" stroke="midnightblue" d="M218.002,-354.755C230.934,-357.195 244.732,-359.798 257.865,-362.276"/>
<polygon fill="midnightblue" stroke="midnightblue" points="218.321,-351.254 207.845,-352.839 217.023,-358.132 218.321,-351.254"/>
</g>
<!-- Node10 -->
<g id="node19" class="node"><title>Node10</title>
<a xlink:href="classant_1_1calibration_1_1_data_base_1_1_exception.html" target="_top" xlink:title="ant::calibration::DataBase\l::Exception">
<polygon fill="white" stroke="black" points="255,-298 255,-332 385,-332 385,-298 255,-298"/>
<text text-anchor="start" x="263" y="-319" font-family="Helvetica,sans-Serif" font-size="10.00">ant::calibration::DataBase</text>
<text text-anchor="middle" x="320" y="-306" font-family="Helvetica,sans-Serif" font-size="10.00">::Exception</text>
</a>
</g>
<!-- Node2&#45;&gt;Node10 -->
<g id="edge18" class="edge"><title>Node2&#45;&gt;Node10</title>
<path fill="none" stroke="midnightblue" d="M217.757,-333.648C229.802,-331.451 242.608,-329.116 254.934,-326.867"/>
<polygon fill="midnightblue" stroke="midnightblue" points="217.055,-330.218 207.845,-335.456 218.311,-337.105 217.055,-330.218"/>
</g>
<!-- Node11 -->
<g id="node21" class="node"><title>Node11</title>
<a xlink:href="classant_1_1_detector__t_1_1_exception.html" target="_top" xlink:title="ant::Detector_t::Exception">
<polygon fill="white" stroke="black" points="254.5,-258.5 254.5,-279.5 385.5,-279.5 385.5,-258.5 254.5,-258.5"/>
<text text-anchor="middle" x="320" y="-266.5" font-family="Helvetica,sans-Serif" font-size="10.00">ant::Detector_t::Exception</text>
</a>
</g>
<!-- Node2&#45;&gt;Node11 -->
<g id="edge20" class="edge"><title>Node2&#45;&gt;Node11</title>
<path fill="none" stroke="#8b1a1a" d="M182.19,-327.117C198.319,-314.994 221.506,-299.08 244,-289 252.218,-285.318 261.249,-282.205 270.13,-279.612"/>
<polygon fill="#8b1a1a" stroke="#8b1a1a" points="179.806,-324.535 174.005,-333.4 184.069,-330.087 179.806,-324.535"/>
</g>
<!-- Node12 -->
<g id="node23" class="node"><title>Node12</title>
<a xlink:href="classant_1_1_exp_config_1_1_exception.html" target="_top" xlink:title="ant::ExpConfig::Exception">
<polygon fill="white" stroke="black" points="254.5,-218.5 254.5,-239.5 385.5,-239.5 385.5,-218.5 254.5,-218.5"/>
<text text-anchor="middle" x="320" y="-226.5" font-family="Helvetica,sans-Serif" font-size="10.00">ant::ExpConfig::Exception</text>
</a>
</g>
<!-- Node2&#45;&gt;Node12 -->
<g id="edge22" class="edge"><title>Node2&#45;&gt;Node12</title>
<path fill="none" stroke="midnightblue" d="M172.785,-324.623C186.988,-302.932 212.869,-268.302 244,-249 250.146,-245.189 257.004,-242.1 264.017,-239.595"/>
<polygon fill="midnightblue" stroke="midnightblue" points="169.674,-322.993 167.268,-333.311 175.583,-326.746 169.674,-322.993"/>
</g>
<!-- Node14 -->
<g id="node27" class="node"><title>Node14</title>
<a xlink:href="classant_1_1_raw_file_reader_1_1_exception.html" target="_top" xlink:title="ant::RawFileReader\l::Exception">
<polygon fill="white" stroke="black" points="268,-166 268,-200 372,-200 372,-166 268,-166"/>
<text text-anchor="start" x="276" y="-187" font-family="Helvetica,sans-Serif" font-size="10.00">ant::RawFileReader</text>
<text text-anchor="middle" x="320" y="-174" font-family="Helvetica,sans-Serif" font-size="10.00">::Exception</text>
</a>
</g>
<!-- Node2&#45;&gt;Node14 -->
<g id="edge26" class="edge"><title>Node2&#45;&gt;Node14</title>
<path fill="none" stroke="midnightblue" d="M168.394,-323.502C180.029,-294.051 205.344,-239.915 244,-209 250.97,-203.426 259.205,-199.014 267.637,-195.531"/>
<polygon fill="midnightblue" stroke="midnightblue" points="165.01,-322.556 164.728,-333.147 171.553,-325.044 165.01,-322.556"/>
</g>
<!-- Node15 -->
<g id="node29" class="node"><title>Node15</title>
<a xlink:href="classant_1_1_reconstruct_1_1_exception.html" target="_top" xlink:title="ant::Reconstruct::Exception">
<polygon fill="white" stroke="black" points="250.5,-126.5 250.5,-147.5 389.5,-147.5 389.5,-126.5 250.5,-126.5"/>
<text text-anchor="middle" x="320" y="-134.5" font-family="Helvetica,sans-Serif" font-size="10.00">ant::Reconstruct::Exception</text>
</a>
</g>
<!-- Node2&#45;&gt;Node15 -->
<g id="edge28" class="edge"><title>Node2&#45;&gt;Node15</title>
<path fill="none" stroke="midnightblue" d="M164.227,-323.096C171.338,-284.327 192.057,-201.214 244,-157 248.467,-153.197 253.578,-150.108 258.99,-147.599"/>
<polygon fill="midnightblue" stroke="midnightblue" points="160.735,-322.754 162.502,-333.2 167.635,-323.932 160.735,-322.754"/>
</g>
<!-- Node16 -->
<g id="node31" class="node"><title>Node16</title>
<a xlink:href="classant_1_1_unpacker_1_1_exception.html" target="_top" xlink:title="The Exception class is thrown if an unexpected error during unpacking occurs. ">
<polygon fill="white" stroke="black" points="256,-86.5 256,-107.5 384,-107.5 384,-86.5 256,-86.5"/>
<text text-anchor="middle" x="320" y="-94.5" font-family="Helvetica,sans-Serif" font-size="10.00">ant::Unpacker::Exception</text>
</a>
</g>
<!-- Node2&#45;&gt;Node16 -->
<g id="edge30" class="edge"><title>Node2&#45;&gt;Node16</title>
<path fill="none" stroke="midnightblue" d="M162.377,-323.104C166.478,-278.403 182.502,-173.017 244,-117 248.135,-113.233 252.896,-110.16 257.975,-107.655"/>
<polygon fill="midnightblue" stroke="midnightblue" points="158.868,-323.077 161.555,-333.326 165.846,-323.638 158.868,-323.077"/>
</g>
<!-- Node19 -->
<g id="node37" class="node"><title>Node19</title>
<a xlink:href="structant_1_1_wrap_t_file_1_1_exception.html" target="_top" xlink:title="ant::WrapTFile::Exception">
<polygon fill="white" stroke="black" points="254.5,-40.5 254.5,-61.5 385.5,-61.5 385.5,-40.5 254.5,-40.5"/>
<text text-anchor="middle" x="320" y="-48.5" font-family="Helvetica,sans-Serif" font-size="10.00">ant::WrapTFile::Exception</text>
</a>
</g>
<!-- Node2&#45;&gt;Node19 -->
<g id="edge36" class="edge"><title>Node2&#45;&gt;Node19</title>
<path fill="none" stroke="midnightblue" d="M164.923,-323.307C175.961,-267.071 208.783,-113.226 244,-77 250.513,-70.3007 258.822,-65.3271 267.542,-61.6349"/>
<polygon fill="midnightblue" stroke="midnightblue" points="161.42,-322.987 162.958,-333.469 168.293,-324.316 161.42,-322.987"/>
</g>
<!-- Node13 -->
<g id="node25" class="node"><title>Node13</title>
<a xlink:href="classant_1_1_exp_config_1_1_exception_no_config.html" target="_top" xlink:title="ant::ExpConfig::Exception\lNoConfig">
<polygon fill="white" stroke="black" points="443.5,-212 443.5,-246 574.5,-246 574.5,-212 443.5,-212"/>
<text text-anchor="start" x="451.5" y="-233" font-family="Helvetica,sans-Serif" font-size="10.00">ant::ExpConfig::Exception</text>
<text text-anchor="middle" x="509" y="-220" font-family="Helvetica,sans-Serif" font-size="10.00">NoConfig</text>
</a>
</g>
<!-- Node12&#45;&gt;Node13 -->
<g id="edge24" class="edge"><title>Node12&#45;&gt;Node13</title>
<path fill="none" stroke="midnightblue" d="M395.772,-229C411.481,-229 427.908,-229 443.223,-229"/>
<polygon fill="midnightblue" stroke="midnightblue" points="395.573,-225.5 385.573,-229 395.573,-232.5 395.573,-225.5"/>
</g>
<!-- Node17 -->
<g id="node33" class="node"><title>Node17</title>
<a xlink:href="classant_1_1_unpacker_a2_geant_1_1_exception.html" target="_top" xlink:title="ant::UnpackerA2Geant\l::Exception">
<polygon fill="white" stroke="black" points="451,-132 451,-166 567,-166 567,-132 451,-132"/>
<text text-anchor="start" x="459" y="-153" font-family="Helvetica,sans-Serif" font-size="10.00">ant::UnpackerA2Geant</text>
<text text-anchor="middle" x="509" y="-140" font-family="Helvetica,sans-Serif" font-size="10.00">::Exception</text>
</a>
</g>
<!-- Node16&#45;&gt;Node17 -->
<g id="edge32" class="edge"><title>Node16&#45;&gt;Node17</title>
<path fill="none" stroke="midnightblue" d="M370.51,-110.151C379.026,-112.409 387.77,-114.752 396,-117 413.899,-121.889 433.351,-127.346 450.991,-132.349"/>
<polygon fill="midnightblue" stroke="midnightblue" points="371.225,-106.72 360.663,-107.551 369.438,-113.488 371.225,-106.72"/>
</g>
<!-- Node18 -->
<g id="node35" class="node"><title>Node18</title>
<a xlink:href="classant_1_1_unpacker_acqu_1_1_exception.html" target="_top" xlink:title="ant::UnpackerAcqu::\lException">
<polygon fill="white" stroke="black" points="455.5,-80 455.5,-114 562.5,-114 562.5,-80 455.5,-80"/>
<text text-anchor="start" x="463.5" y="-101" font-family="Helvetica,sans-Serif" font-size="10.00">ant::UnpackerAcqu::</text>
<text text-anchor="middle" x="509" y="-88" font-family="Helvetica,sans-Serif" font-size="10.00">Exception</text>
</a>
</g>
<!-- Node16&#45;&gt;Node18 -->
<g id="edge34" class="edge"><title>Node16&#45;&gt;Node18</title>
<path fill="none" stroke="midnightblue" d="M394.423,-97C414.75,-97 436.377,-97 455.302,-97"/>
<polygon fill="midnightblue" stroke="midnightblue" points="394.251,-93.5001 384.251,-97 394.25,-100.5 394.251,-93.5001"/>
</g>
<!-- Node20 -->
<g id="node39" class="node"><title>Node20</title>
<a xlink:href="structant_1_1_wrap_t_file_1_1_e_not_a_root_file.html" target="_top" xlink:title="ant::WrapTFile::ENotARootFile">
<polygon fill="white" stroke="black" points="432.5,-40.5 432.5,-61.5 585.5,-61.5 585.5,-40.5 432.5,-40.5"/>
<text text-anchor="middle" x="509" y="-48.5" font-family="Helvetica,sans-Serif" font-size="10.00">ant::WrapTFile::ENotARootFile</text>
</a>
</g>
<!-- Node19&#45;&gt;Node20 -->
<g id="edge38" class="edge"><title>Node19&#45;&gt;Node20</title>
<path fill="none" stroke="midnightblue" d="M395.575,-51C407.624,-51 420.101,-51 432.179,-51"/>
<polygon fill="midnightblue" stroke="midnightblue" points="395.573,-47.5001 385.573,-51 395.573,-54.5001 395.573,-47.5001"/>
</g>
<!-- Node21 -->
<g id="node41" class="node"><title>Node21</title>
<a xlink:href="structant_1_1_wrap_t_file_1_1_e_not_readable.html" target="_top" xlink:title="ant::WrapTFile::ENotReadable">
<polygon fill="white" stroke="black" points="433.5,-0.5 433.5,-21.5 584.5,-21.5 584.5,-0.5 433.5,-0.5"/>
<text text-anchor="middle" x="509" y="-8.5" font-family="Helvetica,sans-Serif" font-size="10.00">ant::WrapTFile::ENotReadable</text>
</a>
</g>
<!-- Node19&#45;&gt;Node21 -->
<g id="edge40" class="edge"><title>Node19&#45;&gt;Node21</title>
<path fill="none" stroke="midnightblue" d="M379.639,-38.378C405.287,-32.9499 434.919,-26.6785 459.346,-21.5087"/>
<polygon fill="midnightblue" stroke="midnightblue" points="378.716,-34.9957 369.658,-40.4905 380.166,-41.844 378.716,-34.9957"/>
</g>
</g>
</svg>
