<?xml version="1.0" encoding="UTF-8" standalone="no"?>
<!DOCTYPE svg PUBLIC "-//W3C//DTD SVG 1.1//EN"
 "http://www.w3.org/Graphics/SVG/1.1/DTD/svg11.dtd">
<!-- Generated by graphviz version 2.26.3 (20100126.1600)
 -->
<!-- Title: Graphical Class Hierarchy Pages: 1 -->
<svg width="268pt" height="264pt"
 viewBox="0.00 0.00 268.00 264.00" xmlns="http://www.w3.org/2000/svg" xmlns:xlink="http://www.w3.org/1999/xlink">
<g id="graph1" class="graph" transform="scale(1 1) rotate(0) translate(4 260)">
<title>Graphical Class Hierarchy</title>
<polygon fill="white" stroke="white" points="-4,5 -4,-260 265,-260 265,5 -4,5"/>
<!-- Node1 -->
<g id="node1" class="node"><title>Node1</title>
<a xlink:title="STL class. ">
<polygon fill="white" stroke="#bfbfbf" points="0.5,-110.5 0.5,-131.5 73.5,-131.5 73.5,-110.5 0.5,-110.5"/>
<text text-anchor="middle" x="37" y="-118.5" font-family="Helvetica,sans-Serif" font-size="10.00">std::list&lt; T &gt;</text>
</a>
</g>
<!-- Node2 -->
<g id="node3" class="node"><title>Node2</title>
<a xlink:href="classant_1_1analysis_1_1input_1_1_goat_reader_1_1_module_manager.html" target="_top" xlink:title="ant::analysis::input\l::GoatReader::ModuleManager">
<polygon fill="white" stroke="black" points="110,-222 110,-256 260,-256 260,-222 110,-222"/>
<text text-anchor="start" x="118" y="-243" font-family="Helvetica,sans-Serif" font-size="10.00">ant::analysis::input</text>
<text text-anchor="middle" x="185" y="-230" font-family="Helvetica,sans-Serif" font-size="10.00">::GoatReader::ModuleManager</text>
</a>
</g>
<!-- Node1&#45;&gt;Node2 -->
<g id="edge2" class="edge"><title>Node1&#45;&gt;Node2</title>
<path fill="none" stroke="midnightblue" d="M47.9342,-140.602C60.43,-161.33 82.7204,-193.653 110,-213 114.721,-216.348 119.912,-219.298 125.291,-221.889"/>
<polygon fill="midnightblue" stroke="midnightblue" points="50.8163,-138.596 42.7534,-131.723 44.7704,-142.124 50.8163,-138.596"/>
</g>
<!-- Node3 -->
<g id="node5" class="node"><title>Node3</title>
<a xlink:href="structant_1_1calibration_1_1gui_1_1_avg_buffer_1_1buffer__t.html" target="_top" xlink:title="ant::calibration::gui\l::AvgBuffer\&lt; HistType,\l IDType \&gt;::buffer_t">
<polygon fill="white" stroke="black" points="126,-156.5 126,-203.5 244,-203.5 244,-156.5 126,-156.5"/>
<text text-anchor="start" x="134" y="-190.5" font-family="Helvetica,sans-Serif" font-size="10.00">ant::calibration::gui</text>
<text text-anchor="start" x="134" y="-177.5" font-family="Helvetica,sans-Serif" font-size="10.00">::AvgBuffer&lt; HistType,</text>
<text text-anchor="middle" x="185" y="-164.5" font-family="Helvetica,sans-Serif" font-size="10.00"> IDType &gt;::buffer_t</text>
</a>
</g>
<!-- Node1&#45;&gt;Node3 -->
<g id="edge4" class="edge"><title>Node1&#45;&gt;Node3</title>
<path fill="none" stroke="midnightblue" d="M72.9173,-135.318C88.8424,-141.667 108.002,-149.305 125.94,-156.456"/>
<polygon fill="midnightblue" stroke="midnightblue" points="74.0446,-132 63.4594,-131.548 71.4524,-138.502 74.0446,-132"/>
</g>
<!-- Node4 -->
<g id="node7" class="node"><title>Node4</title>
<a xlink:href="struct_omega_hist__t_1_1_hist_mgr.html" target="_top" xlink:title="OmegaHist_t::HistMgr\l\&lt; TH1D \&gt;">
<polygon fill="white" stroke="black" points="127.5,-104 127.5,-138 242.5,-138 242.5,-104 127.5,-104"/>
<text text-anchor="start" x="135.5" y="-125" font-family="Helvetica,sans-Serif" font-size="10.00">OmegaHist_t::HistMgr</text>
<text text-anchor="middle" x="185" y="-112" font-family="Helvetica,sans-Serif" font-size="10.00">&lt; TH1D &gt;</text>
</a>
</g>
<!-- Node1&#45;&gt;Node4 -->
<g id="edge6" class="edge"><title>Node1&#45;&gt;Node4</title>
<path fill="none" stroke="midnightblue" d="M83.8052,-121C97.5945,-121 112.847,-121 127.238,-121"/>
<polygon fill="midnightblue" stroke="midnightblue" points="83.5843,-117.5 73.5843,-121 83.5842,-124.5 83.5843,-117.5"/>
</g>
<!-- Node5 -->
<g id="node9" class="node"><title>Node5</title>
<a xlink:href="struct_omega_hist__t_1_1_hist_mgr.html" target="_top" xlink:title="OmegaHist_t::HistMgr\l\&lt; TH2D \&gt;">
<polygon fill="white" stroke="black" points="127.5,-52 127.5,-86 242.5,-86 242.5,-52 127.5,-52"/>
<text text-anchor="start" x="135.5" y="-73" font-family="Helvetica,sans-Serif" font-size="10.00">OmegaHist_t::HistMgr</text>
<text text-anchor="middle" x="185" y="-60" font-family="Helvetica,sans-Serif" font-size="10.00">&lt; TH2D &gt;</text>
</a>
</g>
<!-- Node1&#45;&gt;Node5 -->
<g id="edge8" class="edge"><title>Node1&#45;&gt;Node5</title>
<path fill="none" stroke="midnightblue" d="M76.1838,-106.975C87.1226,-103.079 99.0189,-98.8588 110,-95 118.321,-92.0759 127.169,-88.9889 135.761,-86.0031"/>
<polygon fill="midnightblue" stroke="midnightblue" points="74.7039,-103.787 66.4608,-110.443 77.0555,-110.38 74.7039,-103.787"/>
</g>
<!-- Node6 -->
<g id="node11" class="node"><title>Node6</title>
<a xlink:href="struct_omega_hist__t_1_1_hist_mgr.html" target="_top" xlink:title="OmegaHist_t::HistMgr\l\&lt; Hist \&gt;">
<polygon fill="white" stroke="black" points="127.5,-0 127.5,-34 242.5,-34 242.5,-0 127.5,-0"/>
<text text-anchor="start" x="135.5" y="-21" font-family="Helvetica,sans-Serif" font-size="10.00">OmegaHist_t::HistMgr</text>
<text text-anchor="middle" x="185" y="-8" font-family="Helvetica,sans-Serif" font-size="10.00">&lt; Hist &gt;</text>
</a>
</g>
<!-- Node1&#45;&gt;Node6 -->
<g id="edge10" class="edge"><title>Node1&#45;&gt;Node6</title>
<path fill="none" stroke="midnightblue" d="M50.4318,-102.039C63.7444,-84.5033 85.6296,-58.8313 110,-43 115.316,-39.5466 121.143,-36.4948 127.126,-33.8118"/>
<polygon fill="midnightblue" stroke="midnightblue" points="47.4042,-100.248 44.2838,-110.373 53.0371,-104.403 47.4042,-100.248"/>
</g>
</g>
</svg>
