<?xml version="1.0" encoding="UTF-8" standalone="no"?>
<!DOCTYPE svg PUBLIC "-//W3C//DTD SVG 1.1//EN"
 "http://www.w3.org/Graphics/SVG/1.1/DTD/svg11.dtd">
<!-- Generated by graphviz version 2.26.3 (20100126.1600)
 -->
<!-- Title: Graphical Class Hierarchy Pages: 1 -->
<svg width="606pt" height="250pt"
 viewBox="0.00 0.00 606.00 250.00" xmlns="http://www.w3.org/2000/svg" xmlns:xlink="http://www.w3.org/1999/xlink">
<g id="graph1" class="graph" transform="scale(1 1) rotate(0) translate(4 246)">
<title>Graphical Class Hierarchy</title>
<polygon fill="white" stroke="white" points="-4,5 -4,-246 603,-246 603,5 -4,5"/>
<!-- Node1 -->
<g id="node1" class="node"><title>Node1</title>
<a xlink:href="classant_1_1calibration_1_1gui_1_1_calib_module__traits.html" target="_top" xlink:title="ant::calibration::gui\l::CalibModule_traits">
<polygon fill="white" stroke="black" points="0,-104 0,-138 104,-138 104,-104 0,-104"/>
<text text-anchor="start" x="8" y="-125" font-family="Helvetica,sans-Serif" font-size="10.00">ant::calibration::gui</text>
<text text-anchor="middle" x="52" y="-112" font-family="Helvetica,sans-Serif" font-size="10.00">::CalibModule_traits</text>
</a>
</g>
<!-- Node2 -->
<g id="node3" class="node"><title>Node2</title>
<a xlink:href="classant_1_1calibration_1_1_c_b___time_walk_1_1_the_g_u_i.html" target="_top" xlink:title="ant::calibration::CB\l_TimeWalk::TheGUI">
<polygon fill="white" stroke="black" points="145.5,-208 145.5,-242 252.5,-242 252.5,-208 145.5,-208"/>
<text text-anchor="start" x="153.5" y="-229" font-family="Helvetica,sans-Serif" font-size="10.00">ant::calibration::CB</text>
<text text-anchor="middle" x="199" y="-216" font-family="Helvetica,sans-Serif" font-size="10.00">_TimeWalk::TheGUI</text>
</a>
</g>
<!-- Node1&#45;&gt;Node2 -->
<g id="edge2" class="edge"><title>Node1&#45;&gt;Node2</title>
<path fill="none" stroke="midnightblue" d="M75.4637,-145.477C92.3065,-162.082 116.154,-183.711 140,-199 144.994,-202.202 150.449,-205.193 155.96,-207.922"/>
<polygon fill="midnightblue" stroke="midnightblue" points="77.7845,-142.847 68.2432,-138.242 72.8298,-147.792 77.7845,-142.847"/>
</g>
<!-- Node3 -->
<g id="node5" class="node"><title>Node3</title>
<a xlink:href="structant_1_1calibration_1_1_energy_1_1_g_u_i___calib_type.html" target="_top" xlink:title="The GUI_CalibType struct is an abstract base class for handling the data storage for a provided Calib...">
<polygon fill="white" stroke="black" points="140.5,-156 140.5,-190 257.5,-190 257.5,-156 140.5,-156"/>
<text text-anchor="start" x="148.5" y="-177" font-family="Helvetica,sans-Serif" font-size="10.00">ant::calibration::Energy</text>
<text text-anchor="middle" x="199" y="-164" font-family="Helvetica,sans-Serif" font-size="10.00">::GUI_CalibType</text>
</a>
</g>
<!-- Node1&#45;&gt;Node3 -->
<g id="edge4" class="edge"><title>Node1&#45;&gt;Node3</title>
<path fill="none" stroke="midnightblue" d="M109.839,-141.46C123.387,-146.253 137.68,-151.309 150.759,-155.935"/>
<polygon fill="midnightblue" stroke="midnightblue" points="110.728,-138.062 100.133,-138.027 108.394,-144.661 110.728,-138.062"/>
</g>
<!-- Node8 -->
<g id="node15" class="node"><title>Node8</title>
<a xlink:href="classant_1_1calibration_1_1_p_i_d___phi_angle_1_1_the_g_u_i.html" target="_top" xlink:title="ant::calibration::PID\l_PhiAngle::TheGUI">
<polygon fill="white" stroke="black" points="147,-104 147,-138 251,-138 251,-104 147,-104"/>
<text text-anchor="start" x="155" y="-125" font-family="Helvetica,sans-Serif" font-size="10.00">ant::calibration::PID</text>
<text text-anchor="middle" x="199" y="-112" font-family="Helvetica,sans-Serif" font-size="10.00">_PhiAngle::TheGUI</text>
</a>
</g>
<!-- Node1&#45;&gt;Node8 -->
<g id="edge14" class="edge"><title>Node1&#45;&gt;Node8</title>
<path fill="none" stroke="midnightblue" d="M114.476,-121C125.289,-121 136.428,-121 146.928,-121"/>
<polygon fill="midnightblue" stroke="midnightblue" points="114.241,-117.5 104.241,-121 114.241,-124.5 114.241,-117.5"/>
</g>
<!-- Node9 -->
<g id="node17" class="node"><title>Node9</title>
<a xlink:href="classant_1_1calibration_1_1_t_a_p_s___to_f_1_1_the_g_u_i.html" target="_top" xlink:title="ant::calibration::TAPS\l_ToF::TheGUI">
<polygon fill="white" stroke="black" points="142.5,-52 142.5,-86 255.5,-86 255.5,-52 142.5,-52"/>
<text text-anchor="start" x="150.5" y="-73" font-family="Helvetica,sans-Serif" font-size="10.00">ant::calibration::TAPS</text>
<text text-anchor="middle" x="199" y="-60" font-family="Helvetica,sans-Serif" font-size="10.00">_ToF::TheGUI</text>
</a>
</g>
<!-- Node1&#45;&gt;Node9 -->
<g id="edge16" class="edge"><title>Node1&#45;&gt;Node9</title>
<path fill="none" stroke="midnightblue" d="M109.839,-100.54C123.387,-95.7473 137.68,-90.6913 150.759,-86.065"/>
<polygon fill="midnightblue" stroke="midnightblue" points="108.394,-97.3386 100.133,-103.973 110.728,-103.938 108.394,-97.3386"/>
</g>
<!-- Node10 -->
<g id="node19" class="node"><title>Node10</title>
<a xlink:href="classant_1_1calibration_1_1_time_1_1_the_g_u_i.html" target="_top" xlink:title="ant::calibration::Time\l::TheGUI">
<polygon fill="white" stroke="black" points="145,-0 145,-34 253,-34 253,-0 145,-0"/>
<text text-anchor="start" x="153" y="-21" font-family="Helvetica,sans-Serif" font-size="10.00">ant::calibration::Time</text>
<text text-anchor="middle" x="199" y="-8" font-family="Helvetica,sans-Serif" font-size="10.00">::TheGUI</text>
</a>
</g>
<!-- Node1&#45;&gt;Node10 -->
<g id="edge18" class="edge"><title>Node1&#45;&gt;Node10</title>
<path fill="none" stroke="midnightblue" d="M75.4637,-96.5234C92.3065,-79.9183 116.154,-58.2894 140,-43 144.994,-39.7978 150.449,-36.8071 155.96,-34.0776"/>
<polygon fill="midnightblue" stroke="midnightblue" points="72.8298,-94.2078 68.2432,-103.758 77.7845,-99.1526 72.8298,-94.2078"/>
</g>
<!-- Node4 -->
<g id="node7" class="node"><title>Node4</title>
<a xlink:href="structant_1_1calibration_1_1_c_b___energy_1_1_g_u_i___gains.html" target="_top" xlink:title="ant::calibration::CB\l_Energy::GUI_Gains">
<polygon fill="white" stroke="black" points="299.5,-208 299.5,-242 406.5,-242 406.5,-208 299.5,-208"/>
<text text-anchor="start" x="307.5" y="-229" font-family="Helvetica,sans-Serif" font-size="10.00">ant::calibration::CB</text>
<text text-anchor="middle" x="353" y="-216" font-family="Helvetica,sans-Serif" font-size="10.00">_Energy::GUI_Gains</text>
</a>
</g>
<!-- Node3&#45;&gt;Node4 -->
<g id="edge6" class="edge"><title>Node3&#45;&gt;Node4</title>
<path fill="none" stroke="midnightblue" d="M259.18,-193.321C273.496,-198.154 288.627,-203.264 302.461,-207.935"/>
<polygon fill="midnightblue" stroke="midnightblue" points="260.02,-189.91 249.425,-190.027 257.78,-196.542 260.02,-189.91"/>
</g>
<!-- Node5 -->
<g id="node9" class="node"><title>Node5</title>
<a xlink:href="structant_1_1calibration_1_1_energy_1_1_g_u_i___banana.html" target="_top" xlink:title="ant::calibration::Energy\l::GUI_Banana">
<polygon fill="white" stroke="black" points="294.5,-156 294.5,-190 411.5,-190 411.5,-156 294.5,-156"/>
<text text-anchor="start" x="302.5" y="-177" font-family="Helvetica,sans-Serif" font-size="10.00">ant::calibration::Energy</text>
<text text-anchor="middle" x="353" y="-164" font-family="Helvetica,sans-Serif" font-size="10.00">::GUI_Banana</text>
</a>
</g>
<!-- Node3&#45;&gt;Node5 -->
<g id="edge8" class="edge"><title>Node3&#45;&gt;Node5</title>
<path fill="none" stroke="midnightblue" d="M267.894,-173C276.691,-173 285.631,-173 294.248,-173"/>
<polygon fill="midnightblue" stroke="midnightblue" points="267.66,-169.5 257.66,-173 267.66,-176.5 267.66,-169.5"/>
</g>
<!-- Node6 -->
<g id="node11" class="node"><title>Node6</title>
<a xlink:href="structant_1_1calibration_1_1_energy_1_1_g_u_i___pedestals.html" target="_top" xlink:title="ant::calibration::Energy\l::GUI_Pedestals">
<polygon fill="white" stroke="black" points="294.5,-104 294.5,-138 411.5,-138 411.5,-104 294.5,-104"/>
<text text-anchor="start" x="302.5" y="-125" font-family="Helvetica,sans-Serif" font-size="10.00">ant::calibration::Energy</text>
<text text-anchor="middle" x="353" y="-112" font-family="Helvetica,sans-Serif" font-size="10.00">::GUI_Pedestals</text>
</a>
</g>
<!-- Node3&#45;&gt;Node6 -->
<g id="edge10" class="edge"><title>Node3&#45;&gt;Node6</title>
<path fill="none" stroke="midnightblue" d="M259.18,-152.679C273.496,-147.846 288.627,-142.736 302.461,-138.065"/>
<polygon fill="midnightblue" stroke="midnightblue" points="257.78,-149.458 249.425,-155.973 260.02,-156.09 257.78,-149.458"/>
</g>
<!-- Node7 -->
<g id="node13" class="node"><title>Node7</title>
<a xlink:href="structant_1_1calibration_1_1_t_a_p_s___short_energy_1_1_g_u_i___pedestals.html" target="_top" xlink:title="ant::calibration::TAPS\l_ShortEnergy::GUI_Pedestals">
<polygon fill="white" stroke="black" points="448.5,-104 448.5,-138 597.5,-138 597.5,-104 448.5,-104"/>
<text text-anchor="start" x="456.5" y="-125" font-family="Helvetica,sans-Serif" font-size="10.00">ant::calibration::TAPS</text>
<text text-anchor="middle" x="523" y="-112" font-family="Helvetica,sans-Serif" font-size="10.00">_ShortEnergy::GUI_Pedestals</text>
</a>
</g>
<!-- Node6&#45;&gt;Node7 -->
<g id="edge12" class="edge"><title>Node6&#45;&gt;Node7</title>
<path fill="none" stroke="midnightblue" d="M421.712,-121C430.523,-121 439.576,-121 448.474,-121"/>
<polygon fill="midnightblue" stroke="midnightblue" points="421.504,-117.5 411.504,-121 421.504,-124.5 421.504,-117.5"/>
</g>
</g>
</svg>
