<?xml version="1.0" encoding="UTF-8" standalone="no"?>
<!DOCTYPE svg PUBLIC "-//W3C//DTD SVG 1.1//EN"
 "http://www.w3.org/Graphics/SVG/1.1/DTD/svg11.dtd">
<!-- Generated by graphviz version 2.26.3 (20100126.1600)
 -->
<!-- Title: src/base/interval.h Pages: 1 -->
<svg width="434pt" height="146pt"
 viewBox="0.00 0.00 434.00 146.00" xmlns="http://www.w3.org/2000/svg" xmlns:xlink="http://www.w3.org/1999/xlink">
<g id="graph1" class="graph" transform="scale(1 1) rotate(0) translate(4 142)">
<title>src/base/interval.h</title>
<polygon fill="white" stroke="white" points="-4,5 -4,-142 431,-142 431,5 -4,5"/>
<!-- Node1 -->
<g id="node1" class="node"><title>Node1</title>
<polygon fill="#bfbfbf" stroke="black" points="186.5,-116.5 186.5,-137.5 283.5,-137.5 283.5,-116.5 186.5,-116.5"/>
<text text-anchor="middle" x="235" y="-124.5" font-family="Helvetica,sans-Serif" font-size="10.00">src/base/interval.h</text>
</g>
<!-- Node2 -->
<g id="node3" class="node"><title>Node2</title>
<a xlink:href="printable_8h.html" target="_top" xlink:title="printable.h">
<polygon fill="white" stroke="black" points="24,-58.5 24,-79.5 86,-79.5 86,-58.5 24,-58.5"/>
<text text-anchor="middle" x="55" y="-66.5" font-family="Helvetica,sans-Serif" font-size="10.00">printable.h</text>
</a>
</g>
<!-- Node1&#45;&gt;Node2 -->
<g id="edge2" class="edge"><title>Node1&#45;&gt;Node2</title>
<path fill="none" stroke="midnightblue" d="M202.403,-116.497C172.472,-106.852 128.004,-92.5235 95.7409,-82.1276"/>
<polygon fill="midnightblue" stroke="midnightblue" points="96.7413,-78.7728 86.1497,-79.0371 94.5944,-85.4355 96.7413,-78.7728"/>
</g>
<!-- Node5 -->
<g id="node9" class="node"><title>Node5</title>
<a xlink:href="types_8h.html" target="_top" xlink:title="types.h">
<polygon fill="white" stroke="black" points="103.5,-58.5 103.5,-79.5 152.5,-79.5 152.5,-58.5 103.5,-58.5"/>
<text text-anchor="middle" x="128" y="-66.5" font-family="Helvetica,sans-Serif" font-size="10.00">types.h</text>
</a>
</g>
<!-- Node1&#45;&gt;Node5 -->
<g id="edge8" class="edge"><title>Node1&#45;&gt;Node5</title>
<path fill="none" stroke="midnightblue" d="M215.375,-116.362C198.859,-107.409 175.026,-94.4908 156.422,-84.4064"/>
<polygon fill="midnightblue" stroke="midnightblue" points="157.96,-81.2592 147.501,-79.5707 154.625,-87.4132 157.96,-81.2592"/>
</g>
<!-- Node6 -->
<g id="node11" class="node"><title>Node6</title>
<polygon fill="white" stroke="#bfbfbf" points="170,-58.5 170,-79.5 226,-79.5 226,-58.5 170,-58.5"/>
<text text-anchor="middle" x="198" y="-66.5" font-family="Helvetica,sans-Serif" font-size="10.00">algorithm</text>
</g>
<!-- Node1&#45;&gt;Node6 -->
<g id="edge10" class="edge"><title>Node1&#45;&gt;Node6</title>
<path fill="none" stroke="midnightblue" d="M228.214,-116.362C223.207,-108.513 216.255,-97.6159 210.282,-88.2527"/>
<polygon fill="midnightblue" stroke="midnightblue" points="213.072,-86.1189 204.743,-79.5707 207.171,-89.8837 213.072,-86.1189"/>
</g>
<!-- Node7 -->
<g id="node13" class="node"><title>Node7</title>
<polygon fill="white" stroke="#bfbfbf" points="243.5,-58.5 243.5,-79.5 302.5,-79.5 302.5,-58.5 243.5,-58.5"/>
<text text-anchor="middle" x="273" y="-66.5" font-family="Helvetica,sans-Serif" font-size="10.00">stdexcept</text>
</g>
<!-- Node1&#45;&gt;Node7 -->
<g id="edge12" class="edge"><title>Node1&#45;&gt;Node7</title>
<path fill="none" stroke="midnightblue" d="M241.97,-116.362C247.166,-108.431 254.401,-97.3885 260.578,-87.9606"/>
<polygon fill="midnightblue" stroke="midnightblue" points="263.522,-89.8534 266.074,-79.5707 257.666,-86.0172 263.522,-89.8534"/>
</g>
<!-- Node8 -->
<g id="node15" class="node"><title>Node8</title>
<polygon fill="white" stroke="#bfbfbf" points="320,-58.5 320,-79.5 360,-79.5 360,-58.5 320,-58.5"/>
<text text-anchor="middle" x="340" y="-66.5" font-family="Helvetica,sans-Serif" font-size="10.00">limits</text>
</g>
<!-- Node1&#45;&gt;Node8 -->
<g id="edge14" class="edge"><title>Node1&#45;&gt;Node8</title>
<path fill="none" stroke="midnightblue" d="M254.259,-116.362C270.466,-107.409 293.853,-94.4908 312.109,-84.4064"/>
<polygon fill="midnightblue" stroke="midnightblue" points="313.802,-87.4696 320.863,-79.5707 310.418,-81.3422 313.802,-87.4696"/>
</g>
<!-- Node9 -->
<g id="node17" class="node"><title>Node9</title>
<polygon fill="white" stroke="#bfbfbf" points="377.5,-58.5 377.5,-79.5 426.5,-79.5 426.5,-58.5 377.5,-58.5"/>
<text text-anchor="middle" x="402" y="-66.5" font-family="Helvetica,sans-Serif" font-size="10.00">istream</text>
</g>
<!-- Node1&#45;&gt;Node9 -->
<g id="edge16" class="edge"><title>Node1&#45;&gt;Node9</title>
<path fill="none" stroke="midnightblue" d="M265.242,-116.497C294.123,-106.466 337.594,-91.3687 367.741,-80.8985"/>
<polygon fill="midnightblue" stroke="midnightblue" points="369.115,-84.1263 377.413,-77.5391 366.818,-77.5137 369.115,-84.1263"/>
</g>
<!-- Node3 -->
<g id="node5" class="node"><title>Node3</title>
<polygon fill="white" stroke="#bfbfbf" points="0,-0.5 0,-21.5 44,-21.5 44,-0.5 0,-0.5"/>
<text text-anchor="middle" x="22" y="-8.5" font-family="Helvetica,sans-Serif" font-size="10.00">vector</text>
</g>
<!-- Node2&#45;&gt;Node3 -->
<g id="edge4" class="edge"><title>Node2&#45;&gt;Node3</title>
<path fill="none" stroke="midnightblue" d="M48.9473,-58.3619C44.5281,-50.5949 38.4104,-39.8426 33.1209,-30.5458"/>
<polygon fill="midnightblue" stroke="midnightblue" points="36.0017,-28.5315 28.0143,-21.5707 29.9176,-31.9932 36.0017,-28.5315"/>
</g>
<!-- Node4 -->
<g id="node7" class="node"><title>Node4</title>
<polygon fill="white" stroke="#bfbfbf" points="62,-0.5 62,-21.5 114,-21.5 114,-0.5 62,-0.5"/>
<text text-anchor="middle" x="88" y="-8.5" font-family="Helvetica,sans-Serif" font-size="10.00">ostream</text>
</g>
<!-- Node2&#45;&gt;Node4 -->
<g id="edge6" class="edge"><title>Node2&#45;&gt;Node4</title>
<path fill="none" stroke="midnightblue" d="M61.0527,-58.3619C65.4719,-50.5949 71.5896,-39.8426 76.8791,-30.5458"/>
<polygon fill="midnightblue" stroke="midnightblue" points="80.0824,-31.9932 81.9857,-21.5707 73.9983,-28.5315 80.0824,-31.9932"/>
</g>
</g>
</svg>
