<?xml version="1.0" encoding="UTF-8" standalone="no"?>
<!DOCTYPE svg PUBLIC "-//W3C//DTD SVG 1.1//EN"
 "http://www.w3.org/Graphics/SVG/1.1/DTD/svg11.dtd">
<!-- Generated by graphviz version 2.26.3 (20100126.1600)
 -->
<!-- Title: src/analysis/utils/matcher.h Pages: 1 -->
<svg width="794pt" height="128pt"
 viewBox="0.00 0.00 794.00 128.00" xmlns="http://www.w3.org/2000/svg" xmlns:xlink="http://www.w3.org/1999/xlink">
<g id="graph1" class="graph" transform="scale(1 1) rotate(0) translate(4 124)">
<title>src/analysis/utils/matcher.h</title>
<polygon fill="white" stroke="white" points="-4,5 -4,-124 791,-124 791,5 -4,5"/>
<!-- Node1 -->
<g id="node1" class="node"><title>Node1</title>
<polygon fill="#bfbfbf" stroke="black" points="371,-85 371,-119 461,-119 461,-85 371,-85"/>
<text text-anchor="start" x="379" y="-106" font-family="Helvetica,sans-Serif" font-size="10.00">src/analysis/utils</text>
<text text-anchor="middle" x="416" y="-93" font-family="Helvetica,sans-Serif" font-size="10.00">/matcher.h</text>
</g>
<!-- Node2 -->
<g id="node3" class="node"><title>Node2</title>
<a xlink:href="etaprime__omega__gamma_8cc.html" target="_top" xlink:title="src/analysis/physics\l/etaprime/etaprime_omega\l_gamma.cc">
<polygon fill="white" stroke="black" points="0,-0.5 0,-47.5 132,-47.5 132,-0.5 0,-0.5"/>
<text text-anchor="start" x="8" y="-34.5" font-family="Helvetica,sans-Serif" font-size="10.00">src/analysis/physics</text>
<text text-anchor="start" x="8" y="-21.5" font-family="Helvetica,sans-Serif" font-size="10.00">/etaprime/etaprime_omega</text>
<text text-anchor="middle" x="66" y="-8.5" font-family="Helvetica,sans-Serif" font-size="10.00">_gamma.cc</text>
</a>
</g>
<!-- Node1&#45;&gt;Node2 -->
<g id="edge2" class="edge"><title>Node1&#45;&gt;Node2</title>
<path fill="none" stroke="midnightblue" d="M360.836,-93.1035C305.01,-83.6483 216.411,-67.4003 141,-48 138.087,-47.2506 135.121,-46.4528 132.132,-45.6204"/>
<polygon fill="midnightblue" stroke="midnightblue" points="360.426,-96.5836 370.867,-94.7891 361.586,-89.6804 360.426,-96.5836"/>
</g>
<!-- Node3 -->
<g id="node5" class="node"><title>Node3</title>
<a xlink:href="_find_proton_8cc.html" target="_top" xlink:title="src/analysis/physics\l/omega/FindProton.cc">
<polygon fill="white" stroke="black" points="149.5,-7 149.5,-41 262.5,-41 262.5,-7 149.5,-7"/>
<text text-anchor="start" x="157.5" y="-28" font-family="Helvetica,sans-Serif" font-size="10.00">src/analysis/physics</text>
<text text-anchor="middle" x="206" y="-15" font-family="Helvetica,sans-Serif" font-size="10.00">/omega/FindProton.cc</text>
</a>
</g>
<!-- Node1&#45;&gt;Node3 -->
<g id="edge4" class="edge"><title>Node1&#45;&gt;Node3</title>
<path fill="none" stroke="midnightblue" d="M361.191,-81.6425C327.272,-69.0441 284.216,-53.0517 252.064,-41.1095"/>
<polygon fill="midnightblue" stroke="midnightblue" points="360.357,-85.0661 370.95,-85.267 362.794,-78.5041 360.357,-85.0661"/>
</g>
<!-- Node4 -->
<g id="node7" class="node"><title>Node4</title>
<a xlink:href="_geo_acceptance_8cc.html" target="_top" xlink:title="src/analysis/physics\l/omega/GeoAcceptance.cc">
<polygon fill="white" stroke="black" points="279.5,-7 279.5,-41 414.5,-41 414.5,-7 279.5,-7"/>
<text text-anchor="start" x="287.5" y="-28" font-family="Helvetica,sans-Serif" font-size="10.00">src/analysis/physics</text>
<text text-anchor="middle" x="347" y="-15" font-family="Helvetica,sans-Serif" font-size="10.00">/omega/GeoAcceptance.cc</text>
</a>
</g>
<!-- Node1&#45;&gt;Node4 -->
<g id="edge6" class="edge"><title>Node1&#45;&gt;Node4</title>
<path fill="none" stroke="midnightblue" d="M393.874,-76.9884C383.563,-65.3326 371.553,-51.7552 362.271,-41.2623"/>
<polygon fill="midnightblue" stroke="midnightblue" points="391.439,-79.5183 400.687,-84.6893 396.682,-74.8803 391.439,-79.5183"/>
</g>
<!-- Node5 -->
<g id="node9" class="node"><title>Node5</title>
<a xlink:href="omega_8cc.html" target="_top" xlink:title="src/analysis/physics\l/omega/omega.cc">
<polygon fill="white" stroke="black" points="432,-7 432,-41 538,-41 538,-7 432,-7"/>
<text text-anchor="start" x="440" y="-28" font-family="Helvetica,sans-Serif" font-size="10.00">src/analysis/physics</text>
<text text-anchor="middle" x="485" y="-15" font-family="Helvetica,sans-Serif" font-size="10.00">/omega/omega.cc</text>
</a>
</g>
<!-- Node1&#45;&gt;Node5 -->
<g id="edge8" class="edge"><title>Node1&#45;&gt;Node5</title>
<path fill="none" stroke="midnightblue" d="M438.126,-76.9884C448.437,-65.3326 460.447,-51.7552 469.729,-41.2623"/>
<polygon fill="midnightblue" stroke="midnightblue" points="435.318,-74.8803 431.313,-84.6893 440.561,-79.5183 435.318,-74.8803"/>
</g>
<!-- Node6 -->
<g id="node11" class="node"><title>Node6</title>
<a xlink:href="_just_pi0_8cc.html" target="_top" xlink:title="src/analysis/physics\l/pi0/JustPi0.cc">
<polygon fill="white" stroke="black" points="556,-7 556,-41 662,-41 662,-7 556,-7"/>
<text text-anchor="start" x="564" y="-28" font-family="Helvetica,sans-Serif" font-size="10.00">src/analysis/physics</text>
<text text-anchor="middle" x="609" y="-15" font-family="Helvetica,sans-Serif" font-size="10.00">/pi0/JustPi0.cc</text>
</a>
</g>
<!-- Node1&#45;&gt;Node6 -->
<g id="edge10" class="edge"><title>Node1&#45;&gt;Node6</title>
<path fill="none" stroke="midnightblue" d="M467.699,-81.1063C498.69,-68.5814 537.604,-52.8544 566.744,-41.0775"/>
<polygon fill="midnightblue" stroke="midnightblue" points="466.315,-77.8905 458.355,-84.8826 468.938,-84.3805 466.315,-77.8905"/>
</g>
<!-- Node7 -->
<g id="node13" class="node"><title>Node7</title>
<a xlink:href="_kin_fit_pi0_8cc.html" target="_top" xlink:title="src/analysis/physics\l/pi0/KinFitPi0.cc">
<polygon fill="white" stroke="black" points="680,-7 680,-41 786,-41 786,-7 680,-7"/>
<text text-anchor="start" x="688" y="-28" font-family="Helvetica,sans-Serif" font-size="10.00">src/analysis/physics</text>
<text text-anchor="middle" x="733" y="-15" font-family="Helvetica,sans-Serif" font-size="10.00">/pi0/KinFitPi0.cc</text>
</a>
</g>
<!-- Node1&#45;&gt;Node7 -->
<g id="edge12" class="edge"><title>Node1&#45;&gt;Node7</title>
<path fill="none" stroke="midnightblue" d="M471.262,-92.9445C523.349,-83.7893 603.293,-68.1315 671,-48 677.749,-45.9934 684.802,-43.5804 691.63,-41.0686"/>
<polygon fill="midnightblue" stroke="midnightblue" points="470.481,-89.5276 461.228,-94.6882 471.68,-96.4243 470.481,-89.5276"/>
</g>
</g>
</svg>
