<?xml version="1.0" encoding="UTF-8" standalone="no"?>
<!DOCTYPE svg PUBLIC "-//W3C//DTD SVG 1.1//EN"
 "http://www.w3.org/Graphics/SVG/1.1/DTD/svg11.dtd">
<!-- Generated by graphviz version 2.26.3 (20100126.1600)
 -->
<!-- Title: src/analysis/physics/omega/mctrue_acceptance.h Pages: 1 -->
<svg width="3008pt" height="580pt"
 viewBox="0.00 0.00 3007.81 580.00" xmlns="http://www.w3.org/2000/svg" xmlns:xlink="http://www.w3.org/1999/xlink">
<g id="graph1" class="graph" transform="scale(1 1) rotate(0) translate(4 576)">
<title>src/analysis/physics/omega/mctrue_acceptance.h</title>
<polygon fill="white" stroke="white" points="-4,5 -4,-576 3004.81,-576 3004.81,5 -4,5"/>
<!-- Node1 -->
<g id="node1" class="node"><title>Node1</title>
<polygon fill="#bfbfbf" stroke="black" points="1417.81,-537 1417.81,-571 1563.81,-571 1563.81,-537 1417.81,-537"/>
<text text-anchor="start" x="1425.81" y="-558" font-family="Helvetica,sans-Serif" font-size="10.00">src/analysis/physics</text>
<text text-anchor="middle" x="1490.81" y="-545" font-family="Helvetica,sans-Serif" font-size="10.00">/omega/mctrue_acceptance.h</text>
</g>
<!-- Node2 -->
<g id="node3" class="node"><title>Node2</title>
<a xlink:href="_physics_8h.html" target="_top" xlink:title="physics/Physics.h">
<polygon fill="white" stroke="black" points="2381.31,-478.5 2381.31,-499.5 2478.31,-499.5 2478.31,-478.5 2381.31,-478.5"/>
<text text-anchor="middle" x="2429.81" y="-486.5" font-family="Helvetica,sans-Serif" font-size="10.00">physics/Physics.h</text>
</a>
</g>
<!-- Node1&#45;&gt;Node2 -->
<g id="edge2" class="edge"><title>Node1&#45;&gt;Node2</title>
<path fill="none" stroke="midnightblue" d="M1564.1,-548.927C1744.34,-536.45 2206.43,-504.463 2370.73,-493.089"/>
<polygon fill="midnightblue" stroke="midnightblue" points="2371.38,-496.553 2381.12,-492.37 2370.9,-489.569 2371.38,-496.553"/>
</g>
<!-- Node66 -->
<g id="node235" class="node"><title>Node66</title>
<a xlink:href="_a2_geo_acceptance_8h.html" target="_top" xlink:title="utils/A2GeoAcceptance.h">
<polygon fill="white" stroke="black" points="657.808,-246.5 657.808,-267.5 785.808,-267.5 785.808,-246.5 657.808,-246.5"/>
<text text-anchor="middle" x="721.808" y="-254.5" font-family="Helvetica,sans-Serif" font-size="10.00">utils/A2GeoAcceptance.h</text>
</a>
</g>
<!-- Node1&#45;&gt;Node66 -->
<g id="edge338" class="edge"><title>Node1&#45;&gt;Node66</title>
<path fill="none" stroke="midnightblue" d="M1417.64,-551.808C1200.99,-544.355 577.808,-515.568 577.808,-431 577.808,-431 577.808,-431 577.808,-373 577.808,-320.88 635.725,-288.213 678.098,-271.288"/>
<polygon fill="midnightblue" stroke="midnightblue" points="679.595,-274.462 687.682,-267.618 677.092,-267.925 679.595,-274.462"/>
</g>
<!-- Node3 -->
<g id="node5" class="node"><title>Node3</title>
<a xlink:href="manager__t_8h.html" target="_top" xlink:title="analysis/physics/manager_t.h">
<polygon fill="white" stroke="black" points="2635.81,-420.5 2635.81,-441.5 2781.81,-441.5 2781.81,-420.5 2635.81,-420.5"/>
<text text-anchor="middle" x="2708.81" y="-428.5" font-family="Helvetica,sans-Serif" font-size="10.00">analysis/physics/manager_t.h</text>
</a>
</g>
<!-- Node2&#45;&gt;Node3 -->
<g id="edge4" class="edge"><title>Node2&#45;&gt;Node3</title>
<path fill="none" stroke="midnightblue" d="M2478.41,-478.897C2525.54,-469.1 2597.18,-454.205 2648.06,-443.63"/>
<polygon fill="midnightblue" stroke="midnightblue" points="2648.86,-447.037 2657.94,-441.575 2647.44,-440.184 2648.86,-447.037"/>
</g>
<!-- Node4 -->
<g id="node7" class="node"><title>Node4</title>
<a xlink:href="_histogram_factories_8h.html" target="_top" xlink:title="analysis/plot/HistogramFactories.h">
<polygon fill="white" stroke="black" points="1487.81,-246.5 1487.81,-267.5 1655.81,-267.5 1655.81,-246.5 1487.81,-246.5"/>
<text text-anchor="middle" x="1571.81" y="-254.5" font-family="Helvetica,sans-Serif" font-size="10.00">analysis/plot/HistogramFactories.h</text>
</a>
</g>
<!-- Node2&#45;&gt;Node4 -->
<g id="edge6" class="edge"><title>Node2&#45;&gt;Node4</title>
<path fill="none" stroke="midnightblue" d="M2381.04,-488.196C2228.42,-485.355 1766.55,-474.161 1707.81,-442 1639.76,-404.744 1596.58,-317.221 1579.78,-277.387"/>
<polygon fill="midnightblue" stroke="midnightblue" points="1582.93,-275.852 1575.91,-267.92 1576.46,-278.501 1582.93,-275.852"/>
</g>
<!-- Node14 -->
<g id="node27" class="node"><title>Node14</title>
<polygon fill="white" stroke="#bfbfbf" points="2299.31,-116.5 2299.31,-137.5 2340.31,-137.5 2340.31,-116.5 2299.31,-116.5"/>
<text text-anchor="middle" x="2319.81" y="-124.5" font-family="Helvetica,sans-Serif" font-size="10.00">string</text>
</g>
<!-- Node2&#45;&gt;Node14 -->
<g id="edge330" class="edge"><title>Node2&#45;&gt;Node14</title>
<path fill="none" stroke="midnightblue" d="M2478.43,-486.187C2572.17,-480.264 2770.5,-465.121 2790.81,-442 2797.26,-434.653 2793.51,-429.398 2790.81,-420 2755.2,-296.022 2744.75,-244.617 2636.81,-174 2633.81,-172.036 2429.79,-142.716 2350.68,-131.405"/>
<polygon fill="midnightblue" stroke="midnightblue" points="2350.77,-127.883 2340.38,-129.933 2349.78,-134.813 2350.77,-127.883"/>
</g>
<!-- Node15 -->
<g id="node29" class="node"><title>Node15</title>
<a xlink:href="memory_8h.html" target="_top" xlink:title="base/std_ext/memory.h">
<polygon fill="white" stroke="black" points="1569.31,-181.5 1569.31,-202.5 1688.31,-202.5 1688.31,-181.5 1569.31,-181.5"/>
<text text-anchor="middle" x="1628.81" y="-189.5" font-family="Helvetica,sans-Serif" font-size="10.00">base/std_ext/memory.h</text>
</a>
</g>
<!-- Node2&#45;&gt;Node15 -->
<g id="edge28" class="edge"><title>Node2&#45;&gt;Node15</title>
<path fill="none" stroke="midnightblue" d="M2381.14,-486.179C2221.19,-476.264 1721.81,-439.949 1721.81,-373 1721.81,-373 1721.81,-373 1721.81,-315 1721.81,-269.389 1680.62,-230.009 1653.06,-208.768"/>
<polygon fill="midnightblue" stroke="midnightblue" points="1655.12,-205.937 1645.01,-202.772 1650.94,-211.551 1655.12,-205.937"/>
</g>
<!-- Node16 -->
<g id="node31" class="node"><title>Node16</title>
<polygon fill="white" stroke="#bfbfbf" points="2229.81,-116.5 2229.81,-137.5 2281.81,-137.5 2281.81,-116.5 2229.81,-116.5"/>
<text text-anchor="middle" x="2255.81" y="-124.5" font-family="Helvetica,sans-Serif" font-size="10.00">memory</text>
</g>
<!-- Node2&#45;&gt;Node16 -->
<g id="edge334" class="edge"><title>Node2&#45;&gt;Node16</title>
<path fill="none" stroke="midnightblue" d="M2426.02,-478.208C2422.7,-468.704 2417.82,-454.474 2413.81,-442 2375.75,-323.53 2408.92,-272.442 2332.81,-174 2322.12,-160.177 2306.13,-149.476 2291.48,-141.801"/>
<polygon fill="midnightblue" stroke="midnightblue" points="2292.63,-138.469 2282.12,-137.192 2289.54,-144.749 2292.63,-138.469"/>
</g>
<!-- Node17 -->
<g id="node33" class="node"><title>Node17</title>
<polygon fill="white" stroke="#bfbfbf" points="1389.31,-116.5 1389.31,-137.5 1418.31,-137.5 1418.31,-116.5 1389.31,-116.5"/>
<text text-anchor="middle" x="1403.81" y="-124.5" font-family="Helvetica,sans-Serif" font-size="10.00">list</text>
</g>
<!-- Node2&#45;&gt;Node17 -->
<g id="edge328" class="edge"><title>Node2&#45;&gt;Node17</title>
<path fill="none" stroke="midnightblue" d="M2381.16,-487.831C2224.25,-483.805 1737.86,-469.241 1672.81,-442 1619.39,-419.632 1514.51,-313.597 1478.81,-268 1448.21,-228.919 1423.73,-175.547 1411.77,-146.981"/>
<polygon fill="midnightblue" stroke="midnightblue" points="1414.98,-145.576 1407.95,-137.652 1408.5,-148.232 1414.98,-145.576"/>
</g>
<!-- Node18 -->
<g id="node35" class="node"><title>Node18</title>
<a xlink:href="_t_event_8h.html" target="_top" xlink:title="tree/TEvent.h">
<polygon fill="white" stroke="black" points="149.808,-181.5 149.808,-202.5 225.808,-202.5 225.808,-181.5 149.808,-181.5"/>
<text text-anchor="middle" x="187.808" y="-189.5" font-family="Helvetica,sans-Serif" font-size="10.00">tree/TEvent.h</text>
</a>
</g>
<!-- Node2&#45;&gt;Node18 -->
<g id="edge34" class="edge"><title>Node2&#45;&gt;Node18</title>
<path fill="none" stroke="midnightblue" d="M2381.19,-488.829C2072.19,-487.466 388.48,-475.846 180.808,-384 116.772,-355.679 71.4238,-307.548 104.808,-246 114.352,-228.405 132.385,-215.644 149.21,-206.96"/>
<polygon fill="midnightblue" stroke="midnightblue" points="150.879,-210.041 158.371,-202.551 147.843,-203.734 150.879,-210.041"/>
</g>
<!-- Node20 -->
<g id="node42" class="node"><title>Node20</title>
<a xlink:href="_t_event_data_8h.html" target="_top" xlink:title="tree/TEventData.h">
<polygon fill="white" stroke="black" points="1089.31,-420.5 1089.31,-441.5 1186.31,-441.5 1186.31,-420.5 1089.31,-420.5"/>
<text text-anchor="middle" x="1137.81" y="-428.5" font-family="Helvetica,sans-Serif" font-size="10.00">tree/TEventData.h</text>
</a>
</g>
<!-- Node2&#45;&gt;Node20 -->
<g id="edge44" class="edge"><title>Node2&#45;&gt;Node20</title>
<path fill="none" stroke="midnightblue" d="M2381.13,-486.815C2180.18,-477.794 1415.47,-443.465 1196.64,-433.641"/>
<polygon fill="midnightblue" stroke="midnightblue" points="1196.78,-430.144 1186.63,-433.192 1196.47,-437.137 1196.78,-430.144"/>
</g>
<!-- Node51 -->
<g id="node158" class="node"><title>Node51</title>
<polygon fill="white" stroke="#bfbfbf" points="2553.31,-116.5 2553.31,-137.5 2612.31,-137.5 2612.31,-116.5 2553.31,-116.5"/>
<text text-anchor="middle" x="2582.81" y="-124.5" font-family="Helvetica,sans-Serif" font-size="10.00">functional</text>
</g>
<!-- Node2&#45;&gt;Node51 -->
<g id="edge336" class="edge"><title>Node2&#45;&gt;Node51</title>
<path fill="none" stroke="midnightblue" d="M2478.52,-485.996C2581.96,-479.26 2816.61,-461.968 2846.81,-442 2876.19,-422.569 2885.81,-408.226 2885.81,-373 2885.81,-373 2885.81,-373 2885.81,-257 2885.81,-212.25 2866.27,-198.483 2828.81,-174 2795.35,-152.131 2683.06,-137.431 2622.43,-130.883"/>
<polygon fill="midnightblue" stroke="midnightblue" points="2622.76,-127.399 2612.45,-129.829 2622.03,-134.36 2622.76,-127.399"/>
</g>
<!-- Node55 -->
<g id="node187" class="node"><title>Node55</title>
<polygon fill="white" stroke="#bfbfbf" points="2816.31,-116.5 2816.31,-137.5 2851.31,-137.5 2851.31,-116.5 2816.31,-116.5"/>
<text text-anchor="middle" x="2833.81" y="-124.5" font-family="Helvetica,sans-Serif" font-size="10.00">map</text>
</g>
<!-- Node2&#45;&gt;Node55 -->
<g id="edge332" class="edge"><title>Node2&#45;&gt;Node55</title>
<path fill="none" stroke="midnightblue" d="M2478.34,-486.246C2577.51,-480.227 2800.16,-464.608 2872.81,-442 2934.14,-422.913 2999.81,-437.237 2999.81,-373 2999.81,-373 2999.81,-373 2999.81,-257 2999.81,-187.43 2908.32,-149.507 2861.18,-134.586"/>
<polygon fill="midnightblue" stroke="midnightblue" points="2862.16,-131.225 2851.57,-131.669 2860.13,-137.923 2862.16,-131.225"/>
</g>
<!-- Node60 -->
<g id="node207" class="node"><title>Node60</title>
<a xlink:href="_options_list_8h.html" target="_top" xlink:title="base/OptionsList.h">
<polygon fill="white" stroke="black" points="2721.81,-181.5 2721.81,-202.5 2819.81,-202.5 2819.81,-181.5 2721.81,-181.5"/>
<text text-anchor="middle" x="2770.81" y="-189.5" font-family="Helvetica,sans-Serif" font-size="10.00">base/OptionsList.h</text>
</a>
</g>
<!-- Node2&#45;&gt;Node60 -->
<g id="edge294" class="edge"><title>Node2&#45;&gt;Node60</title>
<path fill="none" stroke="midnightblue" d="M2478.35,-486.074C2577.75,-479.675 2797.34,-463.291 2823.81,-442 2849.11,-421.65 2847.81,-405.469 2847.81,-373 2847.81,-373 2847.81,-373 2847.81,-315 2847.81,-272.181 2813.87,-232.003 2791.05,-209.832"/>
<polygon fill="midnightblue" stroke="midnightblue" points="2793.21,-207.056 2783.52,-202.766 2788.42,-212.161 2793.21,-207.056"/>
</g>
<!-- Node62 -->
<g id="node215" class="node"><title>Node62</title>
<a xlink:href="root__draw_8h.html" target="_top" xlink:title="analysis/plot/root\l_draw.h">
<polygon fill="white" stroke="black" points="2537.31,-175 2537.31,-209 2628.31,-209 2628.31,-175 2537.31,-175"/>
<text text-anchor="start" x="2545.31" y="-196" font-family="Helvetica,sans-Serif" font-size="10.00">analysis/plot/root</text>
<text text-anchor="middle" x="2582.81" y="-183" font-family="Helvetica,sans-Serif" font-size="10.00">_draw.h</text>
</a>
</g>
<!-- Node2&#45;&gt;Node62 -->
<g id="edge306" class="edge"><title>Node2&#45;&gt;Node62</title>
<path fill="none" stroke="midnightblue" d="M2425.54,-478.21C2420.68,-464.182 2414.44,-439.209 2422.81,-420 2435.05,-391.888 2506.04,-350.99 2523.81,-326 2547.81,-292.234 2565.17,-247.148 2574.61,-218.843"/>
<polygon fill="midnightblue" stroke="midnightblue" points="2577.97,-219.818 2577.73,-209.226 2571.31,-217.659 2577.97,-219.818"/>
</g>
<!-- Node63 -->
<g id="node224" class="node"><title>Node63</title>
<polygon fill="white" stroke="#bfbfbf" points="2431.31,-420.5 2431.31,-441.5 2482.31,-441.5 2482.31,-420.5 2431.31,-420.5"/>
<text text-anchor="middle" x="2456.81" y="-428.5" font-family="Helvetica,sans-Serif" font-size="10.00">TH1D.h</text>
</g>
<!-- Node2&#45;&gt;Node63 -->
<g id="edge322" class="edge"><title>Node2&#45;&gt;Node63</title>
<path fill="none" stroke="midnightblue" d="M2434.76,-478.362C2438.34,-470.677 2443.28,-460.069 2447.57,-450.84"/>
<polygon fill="midnightblue" stroke="midnightblue" points="2450.84,-452.114 2451.89,-441.571 2444.49,-449.159 2450.84,-452.114"/>
</g>
<!-- Node64 -->
<g id="node226" class="node"><title>Node64</title>
<polygon fill="white" stroke="#bfbfbf" points="2499.31,-420.5 2499.31,-441.5 2550.31,-441.5 2550.31,-420.5 2499.31,-420.5"/>
<text text-anchor="middle" x="2524.81" y="-428.5" font-family="Helvetica,sans-Serif" font-size="10.00">TH2D.h</text>
</g>
<!-- Node2&#45;&gt;Node64 -->
<g id="edge324" class="edge"><title>Node2&#45;&gt;Node64</title>
<path fill="none" stroke="midnightblue" d="M2447.23,-478.362C2461.7,-469.532 2482.48,-456.844 2498.89,-446.822"/>
<polygon fill="midnightblue" stroke="midnightblue" points="2500.78,-449.769 2507.49,-441.571 2497.14,-443.794 2500.78,-449.769"/>
</g>
<!-- Node65 -->
<g id="node228" class="node"><title>Node65</title>
<polygon fill="white" stroke="#bfbfbf" points="2567.31,-420.5 2567.31,-441.5 2618.31,-441.5 2618.31,-420.5 2567.31,-420.5"/>
<text text-anchor="middle" x="2592.81" y="-428.5" font-family="Helvetica,sans-Serif" font-size="10.00">TH3D.h</text>
</g>
<!-- Node2&#45;&gt;Node65 -->
<g id="edge326" class="edge"><title>Node2&#45;&gt;Node65</title>
<path fill="none" stroke="midnightblue" d="M2459.33,-478.497C2487.02,-468.642 2528.46,-453.897 2557.81,-443.454"/>
<polygon fill="midnightblue" stroke="midnightblue" points="2559.01,-446.74 2567.26,-440.09 2556.67,-440.145 2559.01,-446.74"/>
</g>
<!-- Node5 -->
<g id="node9" class="node"><title>Node5</title>
<a xlink:href="interval_8h.html" target="_top" xlink:title="base/interval.h">
<polygon fill="white" stroke="black" points="713.808,-181.5 713.808,-202.5 793.808,-202.5 793.808,-181.5 713.808,-181.5"/>
<text text-anchor="middle" x="753.808" y="-189.5" font-family="Helvetica,sans-Serif" font-size="10.00">base/interval.h</text>
</a>
</g>
<!-- Node4&#45;&gt;Node5 -->
<g id="edge8" class="edge"><title>Node4&#45;&gt;Node5</title>
<path fill="none" stroke="midnightblue" d="M1487.54,-252.248C1308.91,-242.078 903.39,-218.444 840.808,-210 828.747,-208.373 815.856,-206.038 803.792,-203.588"/>
<polygon fill="midnightblue" stroke="midnightblue" points="804.394,-200.138 793.889,-201.515 802.96,-206.989 804.394,-200.138"/>
</g>
<!-- Node4&#45;&gt;Node14 -->
<g id="edge26" class="edge"><title>Node4&#45;&gt;Node14</title>
<path fill="none" stroke="midnightblue" d="M1655.84,-251.055C1778.65,-241.961 1996.28,-224.16 2029.81,-210 2052.77,-200.302 2050.16,-184.398 2072.81,-174 2159.18,-134.353 2193.74,-161.648 2289.31,-137.974"/>
<polygon fill="midnightblue" stroke="midnightblue" points="2290.27,-141.342 2299.06,-135.435 2288.5,-134.567 2290.27,-141.342"/>
</g>
<!-- Node6 -->
<g id="node11" class="node"><title>Node6</title>
<a xlink:href="printable_8h.html" target="_top" xlink:title="printable.h">
<polygon fill="white" stroke="black" points="451.808,-58.5 451.808,-79.5 513.808,-79.5 513.808,-58.5 451.808,-58.5"/>
<text text-anchor="middle" x="482.808" y="-66.5" font-family="Helvetica,sans-Serif" font-size="10.00">printable.h</text>
</a>
</g>
<!-- Node5&#45;&gt;Node6 -->
<g id="edge10" class="edge"><title>Node5&#45;&gt;Node6</title>
<path fill="none" stroke="midnightblue" d="M728.392,-181.333C704.06,-170.919 666.478,-154.302 634.808,-138 617.457,-129.068 614.313,-124.627 596.808,-116 572.053,-103.799 543.319,-91.9668 520.892,-83.2266"/>
<polygon fill="midnightblue" stroke="midnightblue" points="521.973,-79.8922 511.384,-79.5583 519.454,-86.4231 521.973,-79.8922"/>
</g>
<!-- Node9 -->
<g id="node17" class="node"><title>Node9</title>
<a xlink:href="types_8h.html" target="_top" xlink:title="types.h">
<polygon fill="white" stroke="black" points="827.308,-116.5 827.308,-137.5 876.308,-137.5 876.308,-116.5 827.308,-116.5"/>
<text text-anchor="middle" x="851.808" y="-124.5" font-family="Helvetica,sans-Serif" font-size="10.00">types.h</text>
</a>
</g>
<!-- Node5&#45;&gt;Node9 -->
<g id="edge16" class="edge"><title>Node5&#45;&gt;Node9</title>
<path fill="none" stroke="midnightblue" d="M769.991,-181.267C785.546,-170.949 809.267,-155.216 827.169,-143.342"/>
<polygon fill="midnightblue" stroke="midnightblue" points="829.528,-145.978 835.927,-137.534 825.659,-140.144 829.528,-145.978"/>
</g>
<!-- Node10 -->
<g id="node19" class="node"><title>Node10</title>
<polygon fill="white" stroke="#bfbfbf" points="1677.81,-116.5 1677.81,-137.5 1733.81,-137.5 1733.81,-116.5 1677.81,-116.5"/>
<text text-anchor="middle" x="1705.81" y="-124.5" font-family="Helvetica,sans-Serif" font-size="10.00">algorithm</text>
</g>
<!-- Node5&#45;&gt;Node10 -->
<g id="edge18" class="edge"><title>Node5&#45;&gt;Node10</title>
<path fill="none" stroke="midnightblue" d="M793.866,-182.309C808.546,-179.13 825.349,-175.923 840.808,-174 1203.04,-128.95 1303.72,-197.68 1667.68,-137.803"/>
<polygon fill="midnightblue" stroke="midnightblue" points="1668.41,-141.229 1677.69,-136.133 1667.26,-134.325 1668.41,-141.229"/>
</g>
<!-- Node11 -->
<g id="node21" class="node"><title>Node11</title>
<polygon fill="white" stroke="#bfbfbf" points="529.308,-116.5 529.308,-137.5 588.308,-137.5 588.308,-116.5 529.308,-116.5"/>
<text text-anchor="middle" x="558.808" y="-124.5" font-family="Helvetica,sans-Serif" font-size="10.00">stdexcept</text>
</g>
<!-- Node5&#45;&gt;Node11 -->
<g id="edge20" class="edge"><title>Node5&#45;&gt;Node11</title>
<path fill="none" stroke="midnightblue" d="M722.044,-181.412C688.208,-170.133 634.602,-152.265 598.126,-140.106"/>
<polygon fill="midnightblue" stroke="midnightblue" points="598.916,-136.68 588.323,-136.838 596.703,-143.321 598.916,-136.68"/>
</g>
<!-- Node12 -->
<g id="node23" class="node"><title>Node12</title>
<polygon fill="white" stroke="#bfbfbf" points="1206.81,-58.5 1206.81,-79.5 1246.81,-79.5 1246.81,-58.5 1206.81,-58.5"/>
<text text-anchor="middle" x="1226.81" y="-66.5" font-family="Helvetica,sans-Serif" font-size="10.00">limits</text>
</g>
<!-- Node5&#45;&gt;Node12 -->
<g id="edge22" class="edge"><title>Node5&#45;&gt;Node12</title>
<path fill="none" stroke="midnightblue" d="M759.336,-181.463C768.904,-164.415 790.299,-131.169 818.808,-116 852.005,-98.3371 1107.53,-77.8696 1196.44,-71.2131"/>
<polygon fill="midnightblue" stroke="midnightblue" points="1196.95,-74.6847 1206.66,-70.4535 1196.43,-67.704 1196.95,-74.6847"/>
</g>
<!-- Node13 -->
<g id="node25" class="node"><title>Node13</title>
<polygon fill="white" stroke="#bfbfbf" points="643.308,-116.5 643.308,-137.5 692.308,-137.5 692.308,-116.5 643.308,-116.5"/>
<text text-anchor="middle" x="667.808" y="-124.5" font-family="Helvetica,sans-Serif" font-size="10.00">istream</text>
</g>
<!-- Node5&#45;&gt;Node13 -->
<g id="edge24" class="edge"><title>Node5&#45;&gt;Node13</title>
<path fill="none" stroke="midnightblue" d="M739.607,-181.267C726.082,-171.044 705.522,-155.504 689.864,-143.67"/>
<polygon fill="midnightblue" stroke="midnightblue" points="691.833,-140.771 681.745,-137.534 687.613,-146.356 691.833,-140.771"/>
</g>
<!-- Node7 -->
<g id="node13" class="node"><title>Node7</title>
<polygon fill="white" stroke="#bfbfbf" points="2160.81,-0.5 2160.81,-21.5 2204.81,-21.5 2204.81,-0.5 2160.81,-0.5"/>
<text text-anchor="middle" x="2182.81" y="-8.5" font-family="Helvetica,sans-Serif" font-size="10.00">vector</text>
</g>
<!-- Node6&#45;&gt;Node7 -->
<g id="edge12" class="edge"><title>Node6&#45;&gt;Node7</title>
<path fill="none" stroke="midnightblue" d="M514.134,-67.9312C725.072,-60.7345 1936.34,-19.409 2150.46,-12.1035"/>
<polygon fill="midnightblue" stroke="midnightblue" points="2150.84,-15.5927 2160.72,-11.7536 2150.61,-8.59675 2150.84,-15.5927"/>
</g>
<!-- Node8 -->
<g id="node15" class="node"><title>Node8</title>
<polygon fill="white" stroke="#bfbfbf" points="266.808,-0.5 266.808,-21.5 318.808,-21.5 318.808,-0.5 266.808,-0.5"/>
<text text-anchor="middle" x="292.808" y="-8.5" font-family="Helvetica,sans-Serif" font-size="10.00">ostream</text>
</g>
<!-- Node6&#45;&gt;Node8 -->
<g id="edge14" class="edge"><title>Node6&#45;&gt;Node8</title>
<path fill="none" stroke="midnightblue" d="M451.434,-59.4225C417.762,-49.1437 364.353,-32.8401 328.947,-22.0318"/>
<polygon fill="midnightblue" stroke="midnightblue" points="329.611,-18.575 319.024,-19.0028 327.567,-25.27 329.611,-18.575"/>
</g>
<!-- Node15&#45;&gt;Node16 -->
<g id="edge30" class="edge"><title>Node15&#45;&gt;Node16</title>
<path fill="none" stroke="midnightblue" d="M1688.32,-184.183C1714.25,-180.875 1745.01,-177.082 1772.81,-174 1937.9,-155.697 1979.49,-154.19 2144.81,-138 2169.82,-135.551 2197.99,-132.758 2219.7,-130.6"/>
<polygon fill="midnightblue" stroke="midnightblue" points="2220.19,-134.068 2229.79,-129.595 2219.5,-127.103 2220.19,-134.068"/>
</g>
<!-- Node15&#45;&gt;Node17 -->
<g id="edge32" class="edge"><title>Node15&#45;&gt;Node17</title>
<path fill="none" stroke="midnightblue" d="M1588.9,-181.431C1539.04,-168.213 1457.35,-146.515 1428.26,-137.738"/>
<polygon fill="midnightblue" stroke="midnightblue" points="1429.32,-134.404 1418.73,-134.626 1427.15,-141.058 1429.32,-134.404"/>
</g>
<!-- Node18&#45;&gt;Node6 -->
<g id="edge38" class="edge"><title>Node18&#45;&gt;Node6</title>
<path fill="none" stroke="midnightblue" d="M187.115,-181.382C186.667,-164.828 188.451,-133.007 206.808,-116 240.299,-84.9718 373.259,-74.1728 441.671,-70.6221"/>
<polygon fill="midnightblue" stroke="midnightblue" points="441.857,-74.1173 451.674,-70.1309 441.514,-67.1257 441.857,-74.1173"/>
</g>
<!-- Node18&#45;&gt;Node11 -->
<g id="edge42" class="edge"><title>Node18&#45;&gt;Node11</title>
<path fill="none" stroke="midnightblue" d="M225.815,-183.563C240.472,-180.412 257.391,-176.898 272.808,-174 360.383,-157.541 463.653,-141.363 518.999,-132.953"/>
<polygon fill="midnightblue" stroke="midnightblue" points="519.722,-136.383 529.086,-131.425 518.674,-129.462 519.722,-136.383"/>
</g>
<!-- Node18&#45;&gt;Node16 -->
<g id="edge40" class="edge"><title>Node18&#45;&gt;Node16</title>
<path fill="none" stroke="midnightblue" d="M226.06,-182.29C240.598,-179.026 257.372,-175.767 272.808,-174 686.187,-126.688 1729.46,-162.535 2144.81,-138 2169.73,-136.528 2197.7,-133.749 2219.32,-131.353"/>
<polygon fill="midnightblue" stroke="midnightblue" points="2219.85,-134.816 2229.39,-130.215 2219.06,-127.861 2219.85,-134.816"/>
</g>
<!-- Node19 -->
<g id="node37" class="node"><title>Node19</title>
<polygon fill="white" stroke="#bfbfbf" points="215.808,-116.5 215.808,-137.5 271.808,-137.5 271.808,-116.5 215.808,-116.5"/>
<text text-anchor="middle" x="243.808" y="-124.5" font-family="Helvetica,sans-Serif" font-size="10.00">Rtypes.h</text>
</g>
<!-- Node18&#45;&gt;Node19 -->
<g id="edge36" class="edge"><title>Node18&#45;&gt;Node19</title>
<path fill="none" stroke="midnightblue" d="M197.056,-181.267C205.455,-171.517 218.021,-156.932 228.011,-145.336"/>
<polygon fill="midnightblue" stroke="midnightblue" points="230.858,-147.394 234.733,-137.534 225.554,-142.825 230.858,-147.394"/>
</g>
<!-- Node20&#45;&gt;Node6 -->
<g id="edge46" class="edge"><title>Node20&#45;&gt;Node6</title>
<path fill="none" stroke="midnightblue" d="M1089.06,-430.03C906.309,-426.2 267.789,-410.998 180.808,-384 97.2657,-358.07 65.5102,-343.775 21.8083,-268 0.766905,-231.516 -7.69677,-212.307 9.80832,-174 26.1781,-138.178 40.7564,-131.858 76.8083,-116 141.551,-87.5227 351.67,-74.8958 441.483,-70.7022"/>
<polygon fill="midnightblue" stroke="midnightblue" points="441.738,-74.1943 451.569,-70.2433 441.42,-67.2015 441.738,-74.1943"/>
</g>
<!-- Node21 -->
<g id="node45" class="node"><title>Node21</title>
<a xlink:href="_t_i_d_8h.html" target="_top" xlink:title="TID.h">
<polygon fill="white" stroke="black" points="367.308,-304.5 367.308,-325.5 408.308,-325.5 408.308,-304.5 367.308,-304.5"/>
<text text-anchor="middle" x="387.808" y="-312.5" font-family="Helvetica,sans-Serif" font-size="10.00">TID.h</text>
</a>
</g>
<!-- Node20&#45;&gt;Node21 -->
<g id="edge48" class="edge"><title>Node20&#45;&gt;Node21</title>
<path fill="none" stroke="midnightblue" d="M1088.95,-423.957C976.188,-407.613 689.134,-365.487 449.808,-326 439.561,-324.309 428.382,-322.359 418.372,-320.574"/>
<polygon fill="midnightblue" stroke="midnightblue" points="418.915,-317.115 408.454,-318.792 417.677,-324.005 418.915,-317.115"/>
</g>
<!-- Node31 -->
<g id="node73" class="node"><title>Node31</title>
<a xlink:href="_t_detector_read_hit_8h.html" target="_top" xlink:title="TDetectorReadHit.h">
<polygon fill="white" stroke="black" points="1877.81,-246.5 1877.81,-267.5 1981.81,-267.5 1981.81,-246.5 1877.81,-246.5"/>
<text text-anchor="middle" x="1929.81" y="-254.5" font-family="Helvetica,sans-Serif" font-size="10.00">TDetectorReadHit.h</text>
</a>
</g>
<!-- Node20&#45;&gt;Node31 -->
<g id="edge84" class="edge"><title>Node20&#45;&gt;Node31</title>
<path fill="none" stroke="midnightblue" d="M1186.35,-424.145C1242.89,-415.881 1339,-400.97 1420.81,-384 1591.9,-348.507 1792.43,-294.883 1882.18,-270.239"/>
<polygon fill="midnightblue" stroke="midnightblue" points="1883.34,-273.55 1892.05,-267.522 1881.48,-266.801 1883.34,-273.55"/>
</g>
<!-- Node36 -->
<g id="node93" class="node"><title>Node36</title>
<a xlink:href="_t_slow_control_8h.html" target="_top" xlink:title="TSlowControl.h">
<polygon fill="white" stroke="black" points="189.808,-362.5 189.808,-383.5 273.808,-383.5 273.808,-362.5 189.808,-362.5"/>
<text text-anchor="middle" x="231.808" y="-370.5" font-family="Helvetica,sans-Serif" font-size="10.00">TSlowControl.h</text>
</a>
</g>
<!-- Node20&#45;&gt;Node36 -->
<g id="edge114" class="edge"><title>Node20&#45;&gt;Node36</title>
<path fill="none" stroke="midnightblue" d="M1089.1,-427.882C932.828,-417.878 444.935,-386.644 283.936,-376.337"/>
<polygon fill="midnightblue" stroke="midnightblue" points="284.015,-372.835 273.811,-375.689 283.567,-379.821 284.015,-372.835"/>
</g>
<!-- Node37 -->
<g id="node100" class="node"><title>Node37</title>
<a xlink:href="_t_unpacker_message_8h.html" target="_top" xlink:title="TUnpackerMessage.h">
<polygon fill="white" stroke="black" points="1041.31,-246.5 1041.31,-267.5 1154.31,-267.5 1154.31,-246.5 1041.31,-246.5"/>
<text text-anchor="middle" x="1097.81" y="-254.5" font-family="Helvetica,sans-Serif" font-size="10.00">TUnpackerMessage.h</text>
</a>
</g>
<!-- Node20&#45;&gt;Node37 -->
<g id="edge126" class="edge"><title>Node20&#45;&gt;Node37</title>
<path fill="none" stroke="midnightblue" d="M1134.31,-420.247C1131.3,-410.768 1126.96,-396.553 1123.81,-384 1114.46,-346.729 1106.02,-302.683 1101.43,-277.477"/>
<polygon fill="midnightblue" stroke="midnightblue" points="1104.87,-276.831 1099.66,-267.608 1097.98,-278.069 1104.87,-276.831"/>
</g>
<!-- Node44 -->
<g id="node122" class="node"><title>Node44</title>
<a xlink:href="_t_tagger_hit_8h.html" target="_top" xlink:title="TTaggerHit.h">
<polygon fill="white" stroke="black" points="1132.81,-362.5 1132.81,-383.5 1206.81,-383.5 1206.81,-362.5 1132.81,-362.5"/>
<text text-anchor="middle" x="1169.81" y="-370.5" font-family="Helvetica,sans-Serif" font-size="10.00">TTaggerHit.h</text>
</a>
</g>
<!-- Node20&#45;&gt;Node44 -->
<g id="edge156" class="edge"><title>Node20&#45;&gt;Node44</title>
<path fill="none" stroke="midnightblue" d="M1143.68,-420.362C1147.96,-412.595 1153.9,-401.843 1159.02,-392.546"/>
<polygon fill="midnightblue" stroke="midnightblue" points="1162.21,-394.017 1163.98,-383.571 1156.08,-390.636 1162.21,-394.017"/>
</g>
<!-- Node46 -->
<g id="node132" class="node"><title>Node46</title>
<a xlink:href="_t_trigger_8h.html" target="_top" xlink:title="TTrigger.h">
<polygon fill="white" stroke="black" points="1113.31,-181.5 1113.31,-202.5 1174.31,-202.5 1174.31,-181.5 1113.31,-181.5"/>
<text text-anchor="middle" x="1143.81" y="-189.5" font-family="Helvetica,sans-Serif" font-size="10.00">TTrigger.h</text>
</a>
</g>
<!-- Node20&#45;&gt;Node46 -->
<g id="edge172" class="edge"><title>Node20&#45;&gt;Node46</title>
<path fill="none" stroke="midnightblue" d="M1123.28,-420.385C1085.94,-391.767 992.265,-310.81 1032.81,-246 1033.98,-244.124 1079.86,-222.184 1112.26,-206.855"/>
<polygon fill="midnightblue" stroke="midnightblue" points="1113.86,-209.971 1121.41,-202.534 1110.87,-203.642 1113.86,-209.971"/>
</g>
<!-- Node47 -->
<g id="node139" class="node"><title>Node47</title>
<a xlink:href="_t_target_8h.html" target="_top" xlink:title="TTarget.h">
<polygon fill="white" stroke="black" points="1037.31,-181.5 1037.31,-202.5 1096.31,-202.5 1096.31,-181.5 1037.31,-181.5"/>
<text text-anchor="middle" x="1066.81" y="-189.5" font-family="Helvetica,sans-Serif" font-size="10.00">TTarget.h</text>
</a>
</g>
<!-- Node20&#45;&gt;Node47 -->
<g id="edge184" class="edge"><title>Node20&#45;&gt;Node47</title>
<path fill="none" stroke="midnightblue" d="M1113.36,-420.497C1096.36,-412.331 1073.95,-399.752 1057.81,-384 1036.1,-362.809 1030.63,-355.029 1021.81,-326 1011.47,-291.97 1007.34,-279.31 1019.81,-246 1025.03,-232.039 1035.68,-219.307 1045.52,-209.716"/>
<polygon fill="midnightblue" stroke="midnightblue" points="1048.12,-212.078 1053.12,-202.735 1043.39,-206.922 1048.12,-212.078"/>
</g>
<!-- Node49 -->
<g id="node150" class="node"><title>Node49</title>
<a xlink:href="_t_cluster_8h.html" target="_top" xlink:title="TCluster.h">
<polygon fill="white" stroke="black" points="2047.81,-246.5 2047.81,-267.5 2109.81,-267.5 2109.81,-246.5 2047.81,-246.5"/>
<text text-anchor="middle" x="2078.81" y="-254.5" font-family="Helvetica,sans-Serif" font-size="10.00">TCluster.h</text>
</a>
</g>
<!-- Node20&#45;&gt;Node49 -->
<g id="edge202" class="edge"><title>Node20&#45;&gt;Node49</title>
<path fill="none" stroke="midnightblue" d="M1186.49,-428.672C1367.35,-419.595 1993.64,-384.17 2059.81,-326 2073.32,-314.118 2077.63,-293.593 2078.82,-278.009"/>
<polygon fill="midnightblue" stroke="midnightblue" points="2082.33,-277.858 2079.22,-267.729 2075.33,-277.584 2082.33,-277.858"/>
</g>
<!-- Node52 -->
<g id="node167" class="node"><title>Node52</title>
<a xlink:href="_t_candidate_8h.html" target="_top" xlink:title="TCandidate.h">
<polygon fill="white" stroke="black" points="1976.31,-304.5 1976.31,-325.5 2051.31,-325.5 2051.31,-304.5 1976.31,-304.5"/>
<text text-anchor="middle" x="2013.81" y="-312.5" font-family="Helvetica,sans-Serif" font-size="10.00">TCandidate.h</text>
</a>
</g>
<!-- Node20&#45;&gt;Node52 -->
<g id="edge230" class="edge"><title>Node20&#45;&gt;Node52</title>
<path fill="none" stroke="midnightblue" d="M1186.42,-426.245C1265.16,-418.397 1425.47,-401.819 1560.81,-384 1709.06,-364.482 1883.82,-336.428 1966.24,-322.895"/>
<polygon fill="midnightblue" stroke="midnightblue" points="1967,-326.317 1976.3,-321.24 1965.86,-319.41 1967,-326.317"/>
</g>
<!-- Node53 -->
<g id="node176" class="node"><title>Node53</title>
<a xlink:href="_t_particle_8h.html" target="_top" xlink:title="TParticle.h">
<polygon fill="white" stroke="black" points="1347.81,-362.5 1347.81,-383.5 1411.81,-383.5 1411.81,-362.5 1347.81,-362.5"/>
<text text-anchor="middle" x="1379.81" y="-370.5" font-family="Helvetica,sans-Serif" font-size="10.00">TParticle.h</text>
</a>
</g>
<!-- Node20&#45;&gt;Node53 -->
<g id="edge246" class="edge"><title>Node20&#45;&gt;Node53</title>
<path fill="none" stroke="midnightblue" d="M1181.63,-420.497C1225.99,-409.866 1294.08,-393.545 1337.78,-383.072"/>
<polygon fill="midnightblue" stroke="midnightblue" points="1338.62,-386.471 1347.53,-380.737 1336.99,-379.664 1338.62,-386.471"/>
</g>
<!-- Node21&#45;&gt;Node6 -->
<g id="edge52" class="edge"><title>Node21&#45;&gt;Node6</title>
<path fill="none" stroke="midnightblue" d="M386.136,-304.057C381.863,-272.257 373.422,-178.184 411.808,-116 420.199,-102.407 434.157,-91.915 447.487,-84.3282"/>
<polygon fill="midnightblue" stroke="midnightblue" points="449.338,-87.3087 456.539,-79.5374 446.064,-81.1217 449.338,-87.3087"/>
</g>
<!-- Node21&#45;&gt;Node11 -->
<g id="edge76" class="edge"><title>Node21&#45;&gt;Node11</title>
<path fill="none" stroke="midnightblue" d="M393.466,-304.455C407.174,-279.58 444.259,-216.171 487.808,-174 500.233,-161.968 516.131,-151.117 529.732,-142.881"/>
<polygon fill="midnightblue" stroke="midnightblue" points="531.856,-145.692 538.711,-137.614 528.314,-139.655 531.856,-145.692"/>
</g>
<!-- Node21&#45;&gt;Node17 -->
<g id="edge78" class="edge"><title>Node21&#45;&gt;Node17</title>
<path fill="none" stroke="midnightblue" d="M408.449,-313.197C517.867,-303.497 1030.81,-256.252 1182.81,-210 1218.57,-199.12 1223.97,-187.531 1258.81,-174 1309.52,-154.304 1324.45,-155.96 1375.81,-138 1377.03,-137.573 1378.27,-137.126 1379.53,-136.667"/>
<polygon fill="midnightblue" stroke="midnightblue" points="1380.97,-139.865 1389.06,-133.034 1378.47,-133.324 1380.97,-139.865"/>
</g>
<!-- Node21&#45;&gt;Node19 -->
<g id="edge50" class="edge"><title>Node21&#45;&gt;Node19</title>
<path fill="none" stroke="midnightblue" d="M367.215,-312.683C312.101,-306.284 162.331,-287.546 116.808,-268 77.1122,-250.956 58.2076,-248.6 38.8083,-210 31.6235,-195.704 28.8386,-186.514 38.8083,-174 59.2318,-148.364 151.831,-135.57 205.329,-130.213"/>
<polygon fill="midnightblue" stroke="midnightblue" points="205.854,-133.679 215.474,-129.24 205.186,-126.711 205.854,-133.679"/>
</g>
<!-- Node22 -->
<g id="node49" class="node"><title>Node22</title>
<a xlink:href="time_8h.html" target="_top" xlink:title="base/std_ext/time.h">
<polygon fill="white" stroke="black" points="125.308,-246.5 125.308,-267.5 228.308,-267.5 228.308,-246.5 125.308,-246.5"/>
<text text-anchor="middle" x="176.808" y="-254.5" font-family="Helvetica,sans-Serif" font-size="10.00">base/std_ext/time.h</text>
</a>
</g>
<!-- Node21&#45;&gt;Node22 -->
<g id="edge54" class="edge"><title>Node21&#45;&gt;Node22</title>
<path fill="none" stroke="midnightblue" d="M367.193,-309.333C334.511,-300.35 269.926,-282.596 225.097,-270.274"/>
<polygon fill="midnightblue" stroke="midnightblue" points="225.858,-266.853 215.288,-267.577 224.002,-273.603 225.858,-266.853"/>
</g>
<!-- Node26 -->
<g id="node60" class="node"><title>Node26</title>
<polygon fill="white" stroke="#bfbfbf" points="281.308,-181.5 281.308,-202.5 322.308,-202.5 322.308,-181.5 281.308,-181.5"/>
<text text-anchor="middle" x="301.808" y="-189.5" font-family="Helvetica,sans-Serif" font-size="10.00">ctime</text>
</g>
<!-- Node21&#45;&gt;Node26 -->
<g id="edge82" class="edge"><title>Node21&#45;&gt;Node26</title>
<path fill="none" stroke="midnightblue" d="M373.04,-304.386C361.695,-295.64 346.25,-282.374 335.808,-268 323.264,-250.732 313.879,-228.101 308.183,-212.037"/>
<polygon fill="midnightblue" stroke="midnightblue" points="311.494,-210.904 304.976,-202.552 304.863,-213.146 311.494,-210.904"/>
</g>
<!-- Node27 -->
<g id="node62" class="node"><title>Node27</title>
<polygon fill="white" stroke="#bfbfbf" points="709.808,-116.5 709.808,-137.5 771.808,-137.5 771.808,-116.5 709.808,-116.5"/>
<text text-anchor="middle" x="740.808" y="-124.5" font-family="Helvetica,sans-Serif" font-size="10.00">type_traits</text>
</g>
<!-- Node21&#45;&gt;Node27 -->
<g id="edge70" class="edge"><title>Node21&#45;&gt;Node27</title>
<path fill="none" stroke="midnightblue" d="M399.731,-304.347C433.081,-274.732 527.261,-192.39 563.808,-174 617.3,-147.083 637.975,-153.591 699.557,-138.227"/>
<polygon fill="midnightblue" stroke="midnightblue" points="700.574,-141.579 709.375,-135.681 698.816,-134.804 700.574,-141.579"/>
</g>
<!-- Node28 -->
<g id="node64" class="node"><title>Node28</title>
<polygon fill="white" stroke="#bfbfbf" points="245.808,-246.5 245.808,-267.5 283.808,-267.5 283.808,-246.5 245.808,-246.5"/>
<text text-anchor="middle" x="264.808" y="-254.5" font-family="Helvetica,sans-Serif" font-size="10.00">tuple</text>
</g>
<!-- Node21&#45;&gt;Node28 -->
<g id="edge72" class="edge"><title>Node21&#45;&gt;Node28</title>
<path fill="none" stroke="midnightblue" d="M367.221,-305.292C346.875,-295.698 315.596,-280.949 292.959,-270.274"/>
<polygon fill="midnightblue" stroke="midnightblue" points="294.381,-267.075 283.844,-265.976 291.396,-273.407 294.381,-267.075"/>
</g>
<!-- Node29 -->
<g id="node66" class="node"><title>Node29</title>
<polygon fill="white" stroke="#bfbfbf" points="313.808,-116.5 313.808,-137.5 359.808,-137.5 359.808,-116.5 313.808,-116.5"/>
<text text-anchor="middle" x="336.808" y="-124.5" font-family="Helvetica,sans-Serif" font-size="10.00">cstdint</text>
</g>
<!-- Node21&#45;&gt;Node29 -->
<g id="edge74" class="edge"><title>Node21&#45;&gt;Node29</title>
<path fill="none" stroke="midnightblue" d="M384.482,-304.202C381.58,-294.695 377.298,-280.462 373.808,-268 361.871,-225.376 348.974,-175.179 342.001,-147.652"/>
<polygon fill="midnightblue" stroke="midnightblue" points="345.316,-146.484 339.474,-137.645 338.529,-148.198 345.316,-146.484"/>
</g>
<!-- Node30 -->
<g id="node70" class="node"><title>Node30</title>
<polygon fill="white" stroke="#bfbfbf" points="2081.81,-181.5 2081.81,-202.5 2131.81,-202.5 2131.81,-181.5 2081.81,-181.5"/>
<text text-anchor="middle" x="2106.81" y="-189.5" font-family="Helvetica,sans-Serif" font-size="10.00">iomanip</text>
</g>
<!-- Node21&#45;&gt;Node30 -->
<g id="edge80" class="edge"><title>Node21&#45;&gt;Node30</title>
<path fill="none" stroke="midnightblue" d="M408.764,-314.649C553.517,-312.158 1406.81,-296.443 1664.81,-268 1718.27,-262.106 1730.67,-254.309 1783.81,-246 1908.21,-226.548 1943.33,-243.117 2064.81,-210 2068.47,-209.002 2072.23,-207.749 2075.92,-206.372"/>
<polygon fill="midnightblue" stroke="midnightblue" points="2077.47,-209.52 2085.42,-202.521 2074.84,-203.032 2077.47,-209.52"/>
</g>
<!-- Node23 -->
<g id="node51" class="node"><title>Node23</title>
<a xlink:href="string_8h.html" target="_top" xlink:title="base/std_ext/string.h">
<polygon fill="white" stroke="black" points="1879.81,-181.5 1879.81,-202.5 1987.81,-202.5 1987.81,-181.5 1879.81,-181.5"/>
<text text-anchor="middle" x="1933.81" y="-189.5" font-family="Helvetica,sans-Serif" font-size="10.00">base/std_ext/string.h</text>
</a>
</g>
<!-- Node22&#45;&gt;Node23 -->
<g id="edge56" class="edge"><title>Node22&#45;&gt;Node23</title>
<path fill="none" stroke="midnightblue" d="M228.444,-246.994C231.267,-246.616 234.069,-246.279 236.808,-246 598.132,-209.136 1511.7,-264.335 1870.81,-210 1878.08,-208.9 1885.69,-207.209 1893.01,-205.294"/>
<polygon fill="midnightblue" stroke="midnightblue" points="1894.06,-208.635 1902.75,-202.58 1892.18,-201.892 1894.06,-208.635"/>
</g>
<!-- Node25 -->
<g id="node58" class="node"><title>Node25</title>
<polygon fill="white" stroke="#bfbfbf" points="47.8083,-181.5 47.8083,-202.5 93.8083,-202.5 93.8083,-181.5 47.8083,-181.5"/>
<text text-anchor="middle" x="70.8083" y="-189.5" font-family="Helvetica,sans-Serif" font-size="10.00">cstring</text>
</g>
<!-- Node22&#45;&gt;Node25 -->
<g id="edge66" class="edge"><title>Node22&#45;&gt;Node25</title>
<path fill="none" stroke="midnightblue" d="M159.305,-246.267C142.248,-235.807 116.114,-219.782 96.6627,-207.854"/>
<polygon fill="midnightblue" stroke="midnightblue" points="98.3409,-204.778 87.9864,-202.534 94.6816,-210.745 98.3409,-204.778"/>
</g>
<!-- Node22&#45;&gt;Node26 -->
<g id="edge68" class="edge"><title>Node22&#45;&gt;Node26</title>
<path fill="none" stroke="midnightblue" d="M197.44,-246.42C215.904,-236.933 243.7,-222.607 267.808,-210 269.539,-209.095 271.319,-208.161 273.113,-207.218"/>
<polygon fill="midnightblue" stroke="midnightblue" points="274.838,-210.265 282.05,-202.504 271.572,-204.074 274.838,-210.265"/>
</g>
<!-- Node23&#45;&gt;Node7 -->
<g id="edge64" class="edge"><title>Node23&#45;&gt;Node7</title>
<path fill="none" stroke="midnightblue" d="M1966.1,-181.487C1974.73,-178.86 1984.08,-176.175 1992.81,-174 2074.09,-153.751 2123.27,-201.58 2177.81,-138 2203.17,-108.428 2195.93,-59.2361 2188.99,-31.5544"/>
<polygon fill="midnightblue" stroke="midnightblue" points="2192.33,-30.4908 2186.32,-21.764 2185.57,-32.3326 2192.33,-30.4908"/>
</g>
<!-- Node23&#45;&gt;Node10 -->
<g id="edge62" class="edge"><title>Node23&#45;&gt;Node10</title>
<path fill="none" stroke="midnightblue" d="M1896.83,-181.43C1888.29,-178.989 1879.23,-176.403 1870.81,-174 1827.2,-161.559 1777.1,-147.292 1743.66,-137.772"/>
<polygon fill="midnightblue" stroke="midnightblue" points="1744.41,-134.348 1733.84,-134.977 1742.5,-141.081 1744.41,-134.348"/>
</g>
<!-- Node23&#45;&gt;Node14 -->
<g id="edge58" class="edge"><title>Node23&#45;&gt;Node14</title>
<path fill="none" stroke="midnightblue" d="M1969.95,-181.465C1980.18,-178.747 1991.38,-176.021 2001.81,-174 2125.66,-150.008 2163.28,-168.198 2289.07,-137.998"/>
<polygon fill="midnightblue" stroke="midnightblue" points="2290.21,-141.323 2299.09,-135.538 2288.54,-134.525 2290.21,-141.323"/>
</g>
<!-- Node24 -->
<g id="node54" class="node"><title>Node24</title>
<polygon fill="white" stroke="#bfbfbf" points="2407.81,-116.5 2407.81,-137.5 2459.81,-137.5 2459.81,-116.5 2407.81,-116.5"/>
<text text-anchor="middle" x="2433.81" y="-124.5" font-family="Helvetica,sans-Serif" font-size="10.00">sstream</text>
</g>
<!-- Node23&#45;&gt;Node24 -->
<g id="edge60" class="edge"><title>Node23&#45;&gt;Node24</title>
<path fill="none" stroke="midnightblue" d="M1988.27,-184.92C2091.05,-171.559 2311.04,-142.96 2397.68,-131.697"/>
<polygon fill="midnightblue" stroke="midnightblue" points="2398.34,-135.14 2407.81,-130.38 2397.44,-128.199 2398.34,-135.14"/>
</g>
<!-- Node31&#45;&gt;Node24 -->
<g id="edge112" class="edge"><title>Node31&#45;&gt;Node24</title>
<path fill="none" stroke="midnightblue" d="M1982.09,-251.338C2080.98,-240.495 2286.82,-217.234 2300.81,-210 2320.09,-200.027 2316.32,-186.859 2333.81,-174 2353.46,-159.545 2378.27,-147.852 2398.26,-139.744"/>
<polygon fill="midnightblue" stroke="midnightblue" points="2399.62,-142.972 2407.64,-136.056 2397.06,-136.457 2399.62,-142.972"/>
</g>
<!-- Node31&#45;&gt;Node30 -->
<g id="edge110" class="edge"><title>Node31&#45;&gt;Node30</title>
<path fill="none" stroke="midnightblue" d="M1963.91,-246.478C1992.06,-237.533 2032.91,-223.953 2067.81,-210 2070.32,-208.996 2072.9,-207.916 2075.48,-206.801"/>
<polygon fill="midnightblue" stroke="midnightblue" points="2077,-209.955 2084.71,-202.685 2074.15,-203.563 2077,-209.955"/>
</g>
<!-- Node32 -->
<g id="node75" class="node"><title>Node32</title>
<a xlink:href="_detector__t_8h.html" target="_top" xlink:title="base/Detector_t.h">
<polygon fill="white" stroke="black" points="849.308,-181.5 849.308,-202.5 944.308,-202.5 944.308,-181.5 849.308,-181.5"/>
<text text-anchor="middle" x="896.808" y="-189.5" font-family="Helvetica,sans-Serif" font-size="10.00">base/Detector_t.h</text>
</a>
</g>
<!-- Node31&#45;&gt;Node32 -->
<g id="edge86" class="edge"><title>Node31&#45;&gt;Node32</title>
<path fill="none" stroke="midnightblue" d="M1877.64,-254.466C1684.19,-245.059 1017.86,-212.549 995.808,-210 982.394,-208.45 968.055,-206.195 954.573,-203.802"/>
<polygon fill="midnightblue" stroke="midnightblue" points="954.925,-200.308 944.459,-201.954 953.667,-207.194 954.925,-200.308"/>
</g>
<!-- Node32&#45;&gt;Node6 -->
<g id="edge88" class="edge"><title>Node32&#45;&gt;Node6</title>
<path fill="none" stroke="midnightblue" d="M898.701,-181.387C900.978,-164.839 902.534,-133.027 884.808,-116 859.078,-91.2842 621.149,-76.2028 523.915,-71.0252"/>
<polygon fill="midnightblue" stroke="midnightblue" points="524.033,-67.5267 513.864,-70.4987 523.667,-74.5171 524.033,-67.5267"/>
</g>
<!-- Node32&#45;&gt;Node7 -->
<g id="edge108" class="edge"><title>Node32&#45;&gt;Node7</title>
<path fill="none" stroke="midnightblue" d="M944.512,-184.251C1119.14,-155.888 1713.97,-59.2999 1723.81,-58 1883.52,-36.9026 2075.56,-19.9471 2150.58,-13.646"/>
<polygon fill="midnightblue" stroke="midnightblue" points="2151.11,-17.1143 2160.78,-12.7944 2150.52,-10.1385 2151.11,-17.1143"/>
</g>
<!-- Node32&#45;&gt;Node11 -->
<g id="edge102" class="edge"><title>Node32&#45;&gt;Node11</title>
<path fill="none" stroke="midnightblue" d="M849.098,-182.825C781.871,-169.897 660.525,-146.561 598.159,-134.567"/>
<polygon fill="midnightblue" stroke="midnightblue" points="598.792,-131.125 588.311,-132.674 597.47,-137.999 598.792,-131.125"/>
</g>
<!-- Node32&#45;&gt;Node14 -->
<g id="edge104" class="edge"><title>Node32&#45;&gt;Node14</title>
<path fill="none" stroke="midnightblue" d="M944.33,-184.268C969.389,-180.508 1000.69,-176.312 1028.81,-174 1305.15,-151.283 1999.08,-191.545 2289,-137.74"/>
<polygon fill="midnightblue" stroke="midnightblue" points="2289.99,-141.115 2299.14,-135.786 2288.66,-134.242 2289.99,-141.115"/>
</g>
<!-- Node32&#45;&gt;Node27 -->
<g id="edge106" class="edge"><title>Node32&#45;&gt;Node27</title>
<path fill="none" stroke="midnightblue" d="M871.397,-181.412C845.334,-170.552 804.608,-153.583 775.57,-141.484"/>
<polygon fill="midnightblue" stroke="midnightblue" points="776.786,-138.199 766.209,-137.584 774.093,-144.66 776.786,-138.199"/>
</g>
<!-- Node32&#45;&gt;Node29 -->
<g id="edge100" class="edge"><title>Node32&#45;&gt;Node29</title>
<path fill="none" stroke="midnightblue" d="M849.127,-182.02C834.329,-179.152 817.935,-176.207 802.808,-174 641.429,-150.458 446.882,-134.955 370.195,-129.345"/>
<polygon fill="midnightblue" stroke="midnightblue" points="370.399,-125.851 360.172,-128.62 369.893,-132.833 370.399,-125.851"/>
</g>
<!-- Node33 -->
<g id="node78" class="node"><title>Node33</title>
<a xlink:href="vec3_8h.html" target="_top" xlink:title="base/vec/vec3.h">
<polygon fill="white" stroke="black" points="931.308,-116.5 931.308,-137.5 1020.31,-137.5 1020.31,-116.5 931.308,-116.5"/>
<text text-anchor="middle" x="975.808" y="-124.5" font-family="Helvetica,sans-Serif" font-size="10.00">base/vec/vec3.h</text>
</a>
</g>
<!-- Node32&#45;&gt;Node33 -->
<g id="edge90" class="edge"><title>Node32&#45;&gt;Node33</title>
<path fill="none" stroke="midnightblue" d="M909.854,-181.267C922.163,-171.139 940.815,-155.792 955.147,-144"/>
<polygon fill="midnightblue" stroke="midnightblue" points="957.507,-146.59 963.006,-137.534 953.06,-141.185 957.507,-146.59"/>
</g>
<!-- Node33&#45;&gt;Node6 -->
<g id="edge92" class="edge"><title>Node33&#45;&gt;Node6</title>
<path fill="none" stroke="midnightblue" d="M931.221,-118.172C926.699,-117.388 922.167,-116.648 917.808,-116 773.929,-94.6184 601.902,-78.9264 524.342,-72.3759"/>
<polygon fill="midnightblue" stroke="midnightblue" points="524.295,-68.8598 514.038,-71.5126 523.711,-75.8354 524.295,-68.8598"/>
</g>
<!-- Node34 -->
<g id="node81" class="node"><title>Node34</title>
<a xlink:href="vec2_8h.html" target="_top" xlink:title="vec2.h">
<polygon fill="white" stroke="black" points="978.808,-58.5 978.808,-79.5 1024.81,-79.5 1024.81,-58.5 978.808,-58.5"/>
<text text-anchor="middle" x="1001.81" y="-66.5" font-family="Helvetica,sans-Serif" font-size="10.00">vec2.h</text>
</a>
</g>
<!-- Node33&#45;&gt;Node34 -->
<g id="edge94" class="edge"><title>Node33&#45;&gt;Node34</title>
<path fill="none" stroke="midnightblue" d="M980.577,-116.362C984.022,-108.677 988.778,-98.0686 992.915,-88.8399"/>
<polygon fill="midnightblue" stroke="midnightblue" points="996.173,-90.1275 997.07,-79.5707 989.785,-87.264 996.173,-90.1275"/>
</g>
<!-- Node35 -->
<g id="node83" class="node"><title>Node35</title>
<polygon fill="white" stroke="#bfbfbf" points="1144.81,-0.5 1144.81,-21.5 1188.81,-21.5 1188.81,-0.5 1144.81,-0.5"/>
<text text-anchor="middle" x="1166.81" y="-8.5" font-family="Helvetica,sans-Serif" font-size="10.00">cmath</text>
</g>
<!-- Node33&#45;&gt;Node35 -->
<g id="edge98" class="edge"><title>Node33&#45;&gt;Node35</title>
<path fill="none" stroke="midnightblue" d="M993.435,-116.295C1027.21,-95.7846 1101.18,-50.8594 1140.7,-26.8575"/>
<polygon fill="midnightblue" stroke="midnightblue" points="1142.77,-29.6942 1149.5,-21.5117 1139.14,-23.7111 1142.77,-29.6942"/>
</g>
<!-- Node34&#45;&gt;Node35 -->
<g id="edge96" class="edge"><title>Node34&#45;&gt;Node35</title>
<path fill="none" stroke="midnightblue" d="M1025.1,-60.813C1053.8,-50.7258 1102.69,-33.5378 1134.88,-22.2248"/>
<polygon fill="midnightblue" stroke="midnightblue" points="1136.42,-25.3929 1144.69,-18.7746 1134.1,-18.789 1136.42,-25.3929"/>
</g>
<!-- Node36&#45;&gt;Node6 -->
<g id="edge120" class="edge"><title>Node36&#45;&gt;Node6</title>
<path fill="none" stroke="midnightblue" d="M194.672,-362.421C171.878,-354.734 142.92,-342.732 120.808,-326 57.654,-278.212 -17.724,-238.8 27.8083,-174 75.573,-106.023 338.512,-79.5891 441.458,-71.7507"/>
<polygon fill="midnightblue" stroke="midnightblue" points="441.77,-75.2373 451.484,-71.008 441.252,-68.2565 441.77,-75.2373"/>
</g>
<!-- Node36&#45;&gt;Node21 -->
<g id="edge116" class="edge"><title>Node36&#45;&gt;Node21</title>
<path fill="none" stroke="midnightblue" d="M260.059,-362.497C287.585,-352.263 329.298,-336.754 357.504,-326.267"/>
<polygon fill="midnightblue" stroke="midnightblue" points="359.08,-329.415 367.234,-322.65 356.641,-322.854 359.08,-329.415"/>
</g>
<!-- Node36&#45;&gt;Node22 -->
<g id="edge118" class="edge"><title>Node36&#45;&gt;Node22</title>
<path fill="none" stroke="midnightblue" d="M226.733,-362.295C217.524,-342.872 197.934,-301.556 186.218,-276.846"/>
<polygon fill="midnightblue" stroke="midnightblue" points="189.319,-275.216 181.872,-267.679 182.993,-278.214 189.319,-275.216"/>
</g>
<!-- Node36&#45;&gt;Node28 -->
<g id="edge124" class="edge"><title>Node36&#45;&gt;Node28</title>
<path fill="none" stroke="midnightblue" d="M234.854,-362.295C240.33,-343.045 251.924,-302.289 258.974,-277.509"/>
<polygon fill="midnightblue" stroke="midnightblue" points="262.4,-278.255 261.77,-267.679 255.668,-276.34 262.4,-278.255"/>
</g>
<!-- Node36&#45;&gt;Node29 -->
<g id="edge122" class="edge"><title>Node36&#45;&gt;Node29</title>
<path fill="none" stroke="midnightblue" d="M208.797,-362.421C166.218,-341.397 82.4704,-292.376 116.808,-246 149.436,-201.933 187.424,-237.588 234.808,-210 254.913,-198.294 254.953,-188.914 272.808,-174 285.579,-163.333 300.534,-152.276 312.776,-143.569"/>
<polygon fill="midnightblue" stroke="midnightblue" points="314.976,-146.3 321.14,-137.683 310.947,-140.576 314.976,-146.3"/>
</g>
<!-- Node37&#45;&gt;Node6 -->
<g id="edge154" class="edge"><title>Node37&#45;&gt;Node6</title>
<path fill="none" stroke="midnightblue" d="M1040.98,-254.583C946.84,-249.857 763.129,-237.364 704.808,-210 683.747,-200.118 687.224,-185.155 666.808,-174 608.159,-141.955 573.827,-178.689 520.808,-138 504.942,-125.823 494.802,-105.04 489.024,-89.4575"/>
<polygon fill="midnightblue" stroke="midnightblue" points="492.231,-88.0161 485.704,-79.6705 485.602,-90.2649 492.231,-88.0161"/>
</g>
<!-- Node38 -->
<g id="node102" class="node"><title>Node38</title>
<a xlink:href="_format_8h.html" target="_top" xlink:title="base/Format.h">
<polygon fill="white" stroke="black" points="1781.81,-181.5 1781.81,-202.5 1861.81,-202.5 1861.81,-181.5 1781.81,-181.5"/>
<text text-anchor="middle" x="1821.81" y="-189.5" font-family="Helvetica,sans-Serif" font-size="10.00">base/Format.h</text>
</a>
</g>
<!-- Node37&#45;&gt;Node38 -->
<g id="edge128" class="edge"><title>Node37&#45;&gt;Node38</title>
<path fill="none" stroke="midnightblue" d="M1154.51,-252.575C1302.6,-241.015 1690.1,-210.745 1696.81,-210 1721.47,-207.26 1748.75,-203.425 1771.52,-199.998"/>
<polygon fill="midnightblue" stroke="midnightblue" points="1772.28,-203.423 1781.64,-198.458 1771.23,-196.503 1772.28,-203.423"/>
</g>
<!-- Node38&#45;&gt;Node7 -->
<g id="edge152" class="edge"><title>Node38&#45;&gt;Node7</title>
<path fill="none" stroke="midnightblue" d="M1847.16,-181.475C1854.67,-178.691 1862.98,-175.928 1870.81,-174 1930.44,-159.322 2098.05,-177.814 2144.81,-138 2176.06,-111.393 2182.21,-60.2286 2183.07,-31.6308"/>
<polygon fill="midnightblue" stroke="midnightblue" points="2186.57,-31.5823 2183.17,-21.5454 2179.57,-31.5075 2186.57,-31.5823"/>
</g>
<!-- Node38&#45;&gt;Node10 -->
<g id="edge142" class="edge"><title>Node38&#45;&gt;Node10</title>
<path fill="none" stroke="midnightblue" d="M1802.91,-181.412C1784.12,-170.883 1755.08,-154.611 1733.65,-142.602"/>
<polygon fill="midnightblue" stroke="midnightblue" points="1735.13,-139.419 1724.7,-137.584 1731.71,-145.525 1735.13,-139.419"/>
</g>
<!-- Node38&#45;&gt;Node11 -->
<g id="edge146" class="edge"><title>Node38&#45;&gt;Node11</title>
<path fill="none" stroke="midnightblue" d="M1781.69,-185.086C1757.23,-181.156 1725.31,-176.528 1696.81,-174 1226.38,-132.282 1105.22,-179.888 634.808,-138 622.894,-136.939 609.996,-135.271 598.268,-133.551"/>
<polygon fill="midnightblue" stroke="midnightblue" points="598.728,-130.081 588.316,-132.04 597.677,-137.002 598.728,-130.081"/>
</g>
<!-- Node38&#45;&gt;Node12 -->
<g id="edge144" class="edge"><title>Node38&#45;&gt;Node12</title>
<path fill="none" stroke="midnightblue" d="M1814.54,-181.359C1802.12,-164.162 1775.01,-130.707 1742.81,-116 1698.55,-95.7872 1360.58,-76.1712 1256.93,-70.579"/>
<polygon fill="midnightblue" stroke="midnightblue" points="1257.01,-67.0779 1246.83,-70.0385 1256.63,-74.0679 1257.01,-67.0779"/>
</g>
<!-- Node38&#45;&gt;Node14 -->
<g id="edge148" class="edge"><title>Node38&#45;&gt;Node14</title>
<path fill="none" stroke="midnightblue" d="M1846.6,-181.437C1854.24,-178.582 1862.76,-175.79 1870.81,-174 2050.48,-134.053 2106.19,-178.021 2289.17,-137.875"/>
<polygon fill="midnightblue" stroke="midnightblue" points="2290.12,-141.247 2299.11,-135.638 2288.59,-134.417 2290.12,-141.247"/>
</g>
<!-- Node38&#45;&gt;Node24 -->
<g id="edge150" class="edge"><title>Node38&#45;&gt;Node24</title>
<path fill="none" stroke="midnightblue" d="M1846.34,-181.479C1854.04,-178.589 1862.66,-175.767 1870.81,-174 2079.01,-128.837 2136.87,-159.679 2348.81,-138 2364.8,-136.364 2382.44,-134.149 2397.48,-132.135"/>
<polygon fill="midnightblue" stroke="midnightblue" points="2397.99,-135.598 2407.43,-130.783 2397.05,-128.662 2397.99,-135.598"/>
</g>
<!-- Node38&#45;&gt;Node35 -->
<g id="edge136" class="edge"><title>Node38&#45;&gt;Node35</title>
<path fill="none" stroke="midnightblue" d="M1824.3,-181.288C1827.41,-164.898 1830.49,-133.642 1813.81,-116 1770.79,-70.5043 1323.54,-25.6293 1198.9,-13.9336"/>
<polygon fill="midnightblue" stroke="midnightblue" points="1199.12,-10.4393 1188.84,-12.9963 1198.47,-17.4091 1199.12,-10.4393"/>
</g>
<!-- Node39 -->
<g id="node104" class="node"><title>Node39</title>
<polygon fill="white" stroke="#bfbfbf" points="1991.31,-116.5 1991.31,-137.5 2070.31,-137.5 2070.31,-116.5 1991.31,-116.5"/>
<text text-anchor="middle" x="2030.81" y="-124.5" font-family="Helvetica,sans-Serif" font-size="10.00">detail/format.h</text>
</g>
<!-- Node38&#45;&gt;Node39 -->
<g id="edge130" class="edge"><title>Node38&#45;&gt;Node39</title>
<path fill="none" stroke="midnightblue" d="M1849.42,-181.492C1856.37,-178.948 1863.84,-176.301 1870.81,-174 1907.9,-161.756 1950.32,-149.365 1982.17,-140.382"/>
<polygon fill="midnightblue" stroke="midnightblue" points="1983.43,-143.662 1992.11,-137.59 1981.54,-136.923 1983.43,-143.662"/>
</g>
<!-- Node40 -->
<g id="node106" class="node"><title>Node40</title>
<polygon fill="white" stroke="#bfbfbf" points="2087.31,-116.5 2087.31,-137.5 2136.31,-137.5 2136.31,-116.5 2087.31,-116.5"/>
<text text-anchor="middle" x="2111.81" y="-124.5" font-family="Helvetica,sans-Serif" font-size="10.00">stdint.h</text>
</g>
<!-- Node38&#45;&gt;Node40 -->
<g id="edge132" class="edge"><title>Node38&#45;&gt;Node40</title>
<path fill="none" stroke="midnightblue" d="M1847.72,-181.491C1855.09,-178.772 1863.19,-176.04 1870.81,-174 1958.33,-150.556 1985.95,-160.176 2077.13,-138.153"/>
<polygon fill="midnightblue" stroke="midnightblue" points="2078.2,-141.496 2087.06,-135.693 2076.51,-134.702 2078.2,-141.496"/>
</g>
<!-- Node41 -->
<g id="node108" class="node"><title>Node41</title>
<polygon fill="white" stroke="#bfbfbf" points="1611.31,-116.5 1611.31,-137.5 1660.31,-137.5 1660.31,-116.5 1611.31,-116.5"/>
<text text-anchor="middle" x="1635.81" y="-124.5" font-family="Helvetica,sans-Serif" font-size="10.00">cassert</text>
</g>
<!-- Node38&#45;&gt;Node41 -->
<g id="edge134" class="edge"><title>Node38&#45;&gt;Node41</title>
<path fill="none" stroke="midnightblue" d="M1791.51,-181.412C1758.25,-169.789 1704.96,-151.166 1670.17,-139.007"/>
<polygon fill="midnightblue" stroke="midnightblue" points="1671.04,-135.604 1660.44,-135.609 1668.73,-142.212 1671.04,-135.604"/>
</g>
<!-- Node42 -->
<g id="node111" class="node"><title>Node42</title>
<polygon fill="white" stroke="#bfbfbf" points="1865.31,-116.5 1865.31,-137.5 1914.31,-137.5 1914.31,-116.5 1865.31,-116.5"/>
<text text-anchor="middle" x="1889.81" y="-124.5" font-family="Helvetica,sans-Serif" font-size="10.00">cstddef</text>
</g>
<!-- Node38&#45;&gt;Node42 -->
<g id="edge138" class="edge"><title>Node38&#45;&gt;Node42</title>
<path fill="none" stroke="midnightblue" d="M1833.04,-181.267C1843.43,-171.328 1859.09,-156.363 1871.33,-144.664"/>
<polygon fill="midnightblue" stroke="midnightblue" points="1873.98,-146.974 1878.79,-137.534 1869.14,-141.913 1873.98,-146.974"/>
</g>
<!-- Node43 -->
<g id="node113" class="node"><title>Node43</title>
<polygon fill="white" stroke="#bfbfbf" points="1931.31,-116.5 1931.31,-137.5 1974.31,-137.5 1974.31,-116.5 1931.31,-116.5"/>
<text text-anchor="middle" x="1952.81" y="-124.5" font-family="Helvetica,sans-Serif" font-size="10.00">cstdio</text>
</g>
<!-- Node38&#45;&gt;Node43 -->
<g id="edge140" class="edge"><title>Node38&#45;&gt;Node43</title>
<path fill="none" stroke="midnightblue" d="M1843.15,-181.412C1864.65,-170.741 1898.05,-154.172 1922.34,-142.12"/>
<polygon fill="midnightblue" stroke="midnightblue" points="1924.08,-145.164 1931.48,-137.584 1920.96,-138.893 1924.08,-145.164"/>
</g>
<!-- Node44&#45;&gt;Node6 -->
<g id="edge160" class="edge"><title>Node44&#45;&gt;Node6</title>
<path fill="none" stroke="midnightblue" d="M1132.5,-372.547C1002.52,-370.663 574.902,-361.775 525.808,-326 452.971,-272.922 467.014,-226.467 449.808,-138 447.942,-128.402 446.862,-125.323 449.808,-116 453.108,-105.557 459.652,-95.4231 466.048,-87.2551"/>
<polygon fill="midnightblue" stroke="midnightblue" points="468.784,-89.4395 472.518,-79.5245 463.416,-84.9468 468.784,-89.4395"/>
</g>
<!-- Node44&#45;&gt;Node7 -->
<g id="edge166" class="edge"><title>Node44&#45;&gt;Node7</title>
<path fill="none" stroke="midnightblue" d="M1171.83,-362.481C1178.54,-330.24 1202.85,-231.504 1258.81,-174 1333.17,-97.5807 1366.26,-87.1969 1468.81,-58 1599.57,-20.7702 2028.73,-12.8449 2150.4,-11.3295"/>
<polygon fill="midnightblue" stroke="midnightblue" points="2150.6,-14.8275 2160.56,-11.2092 2150.51,-7.828 2150.6,-14.8275"/>
</g>
<!-- Node44&#45;&gt;Node21 -->
<g id="edge158" class="edge"><title>Node44&#45;&gt;Node21</title>
<path fill="none" stroke="midnightblue" d="M1132.58,-372.02C1025.89,-368.899 710.03,-357.48 449.808,-326 439.498,-324.753 428.302,-322.916 418.297,-321.1"/>
<polygon fill="midnightblue" stroke="midnightblue" points="418.864,-317.645 408.39,-319.24 417.572,-324.525 418.864,-317.645"/>
</g>
<!-- Node44&#45;&gt;Node24 -->
<g id="edge170" class="edge"><title>Node44&#45;&gt;Node24</title>
<path fill="none" stroke="midnightblue" d="M1207.05,-370.414C1241.29,-368.075 1293.46,-364.608 1338.81,-362 1659.12,-343.58 1741.43,-365.728 2059.81,-326 2189.59,-309.805 2553.94,-311.185 2636.81,-210 2646.95,-197.621 2646.76,-186.525 2636.81,-174 2616.38,-148.302 2522.88,-135.418 2470.19,-130.096"/>
<polygon fill="midnightblue" stroke="midnightblue" points="2470.21,-126.581 2459.92,-129.102 2469.54,-133.549 2470.21,-126.581"/>
</g>
<!-- Node44&#45;&gt;Node30 -->
<g id="edge168" class="edge"><title>Node44&#45;&gt;Node30</title>
<path fill="none" stroke="midnightblue" d="M1204.46,-362.455C1255.06,-347.42 1352.35,-319.89 1436.81,-304 1569.22,-279.089 1604.54,-287.773 1737.81,-268 1756.06,-265.292 2047.13,-215.28 2064.81,-210 2068.36,-208.939 2072.02,-207.665 2075.62,-206.291"/>
<polygon fill="midnightblue" stroke="midnightblue" points="2076.99,-209.514 2084.93,-202.5 2074.35,-203.032 2076.99,-209.514"/>
</g>
<!-- Node45 -->
<g id="node126" class="node"><title>Node45</title>
<a xlink:href="_lorentz_vec_8h.html" target="_top" xlink:title="base/vec/LorentzVec.h">
<polygon fill="white" stroke="black" points="1197.31,-304.5 1197.31,-325.5 1314.31,-325.5 1314.31,-304.5 1197.31,-304.5"/>
<text text-anchor="middle" x="1255.81" y="-312.5" font-family="Helvetica,sans-Serif" font-size="10.00">base/vec/LorentzVec.h</text>
</a>
</g>
<!-- Node44&#45;&gt;Node45 -->
<g id="edge162" class="edge"><title>Node44&#45;&gt;Node45</title>
<path fill="none" stroke="midnightblue" d="M1185.58,-362.362C1198.43,-353.696 1216.79,-341.313 1231.52,-331.382"/>
<polygon fill="midnightblue" stroke="midnightblue" points="1233.8,-334.064 1240.13,-325.571 1229.89,-328.26 1233.8,-334.064"/>
</g>
<!-- Node45&#45;&gt;Node33 -->
<g id="edge164" class="edge"><title>Node45&#45;&gt;Node33</title>
<path fill="none" stroke="midnightblue" d="M1244.81,-304.294C1228.38,-288.931 1195.81,-260.852 1162.81,-246 1091.98,-214.125 1046.26,-265.385 991.808,-210 975.801,-193.718 973.341,-166.568 973.874,-147.775"/>
<polygon fill="midnightblue" stroke="midnightblue" points="977.381,-147.763 974.476,-137.574 970.393,-147.35 977.381,-147.763"/>
</g>
<!-- Node46&#45;&gt;Node6 -->
<g id="edge176" class="edge"><title>Node46&#45;&gt;Node6</title>
<path fill="none" stroke="midnightblue" d="M1134.94,-181.318C1119.89,-164.062 1087.5,-130.523 1051.81,-116 1003.3,-96.2623 647.093,-77.0815 524.287,-70.99"/>
<polygon fill="midnightblue" stroke="midnightblue" points="524.318,-67.4873 514.158,-70.491 523.974,-74.4789 524.318,-67.4873"/>
</g>
<!-- Node46&#45;&gt;Node9 -->
<g id="edge174" class="edge"><title>Node46&#45;&gt;Node9</title>
<path fill="none" stroke="midnightblue" d="M1123.54,-181.489C1117.62,-178.738 1111.06,-175.99 1104.81,-174 1064.65,-161.222 946.262,-141.75 886.769,-132.391"/>
<polygon fill="midnightblue" stroke="midnightblue" points="887.141,-128.907 876.72,-130.819 886.058,-135.823 887.141,-128.907"/>
</g>
<!-- Node46&#45;&gt;Node12 -->
<g id="edge180" class="edge"><title>Node46&#45;&gt;Node12</title>
<path fill="none" stroke="midnightblue" d="M1165.35,-181.386C1188.16,-169.648 1221.82,-150.718 1228.81,-138 1236.9,-123.269 1235.53,-103.969 1232.63,-89.5279"/>
<polygon fill="midnightblue" stroke="midnightblue" points="1235.98,-88.4971 1230.25,-79.5877 1229.17,-90.128 1235.98,-88.4971"/>
</g>
<!-- Node46&#45;&gt;Node16 -->
<g id="edge182" class="edge"><title>Node46&#45;&gt;Node16</title>
<path fill="none" stroke="midnightblue" d="M1174.44,-186.226C1197.54,-182.111 1230.05,-176.826 1258.81,-174 1651.02,-135.465 1751.66,-165.444 2144.81,-138 2169.71,-136.262 2197.68,-133.485 2219.31,-131.156"/>
<polygon fill="midnightblue" stroke="midnightblue" points="2219.82,-134.622 2229.38,-130.056 2219.06,-127.663 2219.82,-134.622"/>
</g>
<!-- Node46&#45;&gt;Node17 -->
<g id="edge178" class="edge"><title>Node46&#45;&gt;Node17</title>
<path fill="none" stroke="midnightblue" d="M1174.67,-185.08C1233.3,-171.896 1356.66,-143.956 1375.81,-138 1377.04,-137.616 1378.3,-137.204 1379.56,-136.772"/>
<polygon fill="midnightblue" stroke="midnightblue" points="1380.97,-139.985 1389.13,-133.231 1378.54,-133.42 1380.97,-139.985"/>
</g>
<!-- Node47&#45;&gt;Node6 -->
<g id="edge188" class="edge"><title>Node47&#45;&gt;Node6</title>
<path fill="none" stroke="midnightblue" d="M1064.87,-181.243C1061.18,-164.193 1051.39,-131.331 1028.81,-116 987.358,-87.8545 644.458,-74.2058 524.251,-70.2528"/>
<polygon fill="midnightblue" stroke="midnightblue" points="524.098,-66.7461 513.99,-69.9213 523.872,-73.7425 524.098,-66.7461"/>
</g>
<!-- Node47&#45;&gt;Node9 -->
<g id="edge186" class="edge"><title>Node47&#45;&gt;Node9</title>
<path fill="none" stroke="midnightblue" d="M1036.91,-182.962C997.367,-171.006 927.818,-149.98 886.156,-137.384"/>
<polygon fill="midnightblue" stroke="midnightblue" points="887.037,-133.994 876.452,-134.45 885.011,-140.695 887.037,-133.994"/>
</g>
<!-- Node47&#45;&gt;Node16 -->
<g id="edge200" class="edge"><title>Node47&#45;&gt;Node16</title>
<path fill="none" stroke="midnightblue" d="M1085.19,-181.446C1091.25,-178.478 1098.14,-175.621 1104.81,-174 1329.51,-119.371 1914.07,-153.41 2144.81,-138 2169.72,-136.336 2197.68,-133.559 2219.31,-131.212"/>
<polygon fill="midnightblue" stroke="midnightblue" points="2219.83,-134.676 2229.38,-130.1 2219.06,-127.719 2219.83,-134.676"/>
</g>
<!-- Node47&#45;&gt;Node17 -->
<g id="edge198" class="edge"><title>Node47&#45;&gt;Node17</title>
<path fill="none" stroke="midnightblue" d="M1086.07,-181.458C1091.94,-178.638 1098.51,-175.861 1104.81,-174 1221.33,-139.58 1258.18,-168.437 1375.81,-138 1377.06,-137.676 1378.33,-137.312 1379.61,-136.919"/>
<polygon fill="midnightblue" stroke="midnightblue" points="1380.96,-140.153 1389.21,-133.507 1378.61,-133.557 1380.96,-140.153"/>
</g>
<!-- Node47&#45;&gt;Node33 -->
<g id="edge196" class="edge"><title>Node47&#45;&gt;Node33</title>
<path fill="none" stroke="midnightblue" d="M1051.78,-181.267C1037.47,-171.044 1015.71,-155.504 999.146,-143.67"/>
<polygon fill="midnightblue" stroke="midnightblue" points="1000.73,-140.498 990.556,-137.534 996.659,-146.194 1000.73,-140.498"/>
</g>
<!-- Node48 -->
<g id="node143" class="node"><title>Node48</title>
<a xlink:href="math_8h.html" target="_top" xlink:title="base/std_ext/math.h">
<polygon fill="white" stroke="black" points="1113.81,-116.5 1113.81,-137.5 1219.81,-137.5 1219.81,-116.5 1113.81,-116.5"/>
<text text-anchor="middle" x="1166.81" y="-124.5" font-family="Helvetica,sans-Serif" font-size="10.00">base/std_ext/math.h</text>
</a>
</g>
<!-- Node47&#45;&gt;Node48 -->
<g id="edge190" class="edge"><title>Node47&#45;&gt;Node48</title>
<path fill="none" stroke="midnightblue" d="M1083.32,-181.267C1099.34,-170.855 1123.84,-154.927 1142.17,-143.016"/>
<polygon fill="midnightblue" stroke="midnightblue" points="1144.13,-145.918 1150.6,-137.534 1140.31,-140.049 1144.13,-145.918"/>
</g>
<!-- Node48&#45;&gt;Node12 -->
<g id="edge194" class="edge"><title>Node48&#45;&gt;Node12</title>
<path fill="none" stroke="midnightblue" d="M1177.81,-116.362C1186.36,-108.104 1198.39,-96.4725 1208.39,-86.8029"/>
<polygon fill="midnightblue" stroke="midnightblue" points="1211.12,-89.0374 1215.87,-79.5707 1206.25,-84.0044 1211.12,-89.0374"/>
</g>
<!-- Node48&#45;&gt;Node35 -->
<g id="edge192" class="edge"><title>Node48&#45;&gt;Node35</title>
<path fill="none" stroke="midnightblue" d="M1166.81,-116.295C1166.81,-97.1314 1166.81,-56.654 1166.81,-31.8434"/>
<polygon fill="midnightblue" stroke="midnightblue" points="1170.31,-31.6792 1166.81,-21.6792 1163.31,-31.6792 1170.31,-31.6792"/>
</g>
<!-- Node49&#45;&gt;Node7 -->
<g id="edge220" class="edge"><title>Node49&#45;&gt;Node7</title>
<path fill="none" stroke="midnightblue" d="M2110.12,-256.179C2251.08,-252.344 2821.09,-235.316 2848.81,-210 2872.71,-188.171 2857.36,-170.278 2859.81,-138 2860.55,-128.25 2866.17,-123.425 2859.81,-116 2817.04,-66.0908 2343.42,-24.0897 2214.85,-13.5479"/>
<polygon fill="midnightblue" stroke="midnightblue" points="2215.09,-10.0562 2204.84,-12.7339 2214.53,-17.0331 2215.09,-10.0562"/>
</g>
<!-- Node49&#45;&gt;Node16 -->
<g id="edge228" class="edge"><title>Node49&#45;&gt;Node16</title>
<path fill="none" stroke="midnightblue" d="M2093.69,-246.425C2106.48,-237.175 2125.25,-223.194 2140.81,-210 2158.55,-194.95 2160.33,-188.139 2178.81,-174 2194.05,-162.334 2212.35,-151.066 2227.28,-142.488"/>
<polygon fill="midnightblue" stroke="midnightblue" points="2229.1,-145.481 2236.09,-137.516 2225.66,-139.385 2229.1,-145.481"/>
</g>
<!-- Node49&#45;&gt;Node24 -->
<g id="edge226" class="edge"><title>Node49&#45;&gt;Node24</title>
<path fill="none" stroke="midnightblue" d="M2109.93,-253.263C2168.86,-245.863 2294.36,-228.453 2333.81,-210 2367.43,-194.275 2399.13,-164.488 2417.5,-145.203"/>
<polygon fill="midnightblue" stroke="midnightblue" points="2420.27,-147.359 2424.52,-137.653 2415.15,-142.592 2420.27,-147.359"/>
</g>
<!-- Node49&#45;&gt;Node30 -->
<g id="edge224" class="edge"><title>Node49&#45;&gt;Node30</title>
<path fill="none" stroke="midnightblue" d="M2083.43,-246.267C2087.43,-236.991 2093.31,-223.336 2098.17,-212.045"/>
<polygon fill="midnightblue" stroke="midnightblue" points="2101.53,-213.103 2102.27,-202.534 2095.1,-210.333 2101.53,-213.103"/>
</g>
<!-- Node49&#45;&gt;Node32 -->
<g id="edge204" class="edge"><title>Node49&#45;&gt;Node32</title>
<path fill="none" stroke="midnightblue" d="M2047.52,-252.407C2030.74,-250.117 2009.69,-247.518 1990.81,-246 1549.72,-210.522 1435.74,-257.702 995.808,-210 982.384,-208.544 968.04,-206.327 954.557,-203.94"/>
<polygon fill="midnightblue" stroke="midnightblue" points="954.91,-200.446 944.443,-202.092 953.651,-207.332 954.91,-200.446"/>
</g>
<!-- Node49&#45;&gt;Node33 -->
<g id="edge218" class="edge"><title>Node49&#45;&gt;Node33</title>
<path fill="none" stroke="midnightblue" d="M2047.52,-252.417C2030.74,-250.129 2009.68,-247.53 1990.81,-246 1884.19,-237.358 1121.64,-263.144 1028.81,-210 1005.04,-196.391 990.262,-167.31 982.533,-147.451"/>
<polygon fill="midnightblue" stroke="midnightblue" points="985.728,-145.995 979.037,-137.781 979.145,-148.375 985.728,-145.995"/>
</g>
<!-- Node49&#45;&gt;Node35 -->
<g id="edge222" class="edge"><title>Node49&#45;&gt;Node35</title>
<path fill="none" stroke="midnightblue" d="M2047.63,-253.108C1971.82,-243.523 1783.24,-218.915 1772.81,-210 1739.47,-181.51 1775.75,-144.952 1742.81,-116 1732.36,-106.819 1318.66,-36.5714 1198.95,-16.3999"/>
<polygon fill="midnightblue" stroke="midnightblue" points="1199.37,-12.9224 1188.93,-14.7134 1198.21,-19.8252 1199.37,-12.9224"/>
</g>
<!-- Node49&#45;&gt;Node48 -->
<g id="edge206" class="edge"><title>Node49&#45;&gt;Node48</title>
<path fill="none" stroke="midnightblue" d="M2047.49,-252.663C2030.71,-250.445 2009.66,-247.834 1990.81,-246 1762,-223.734 1701.52,-248.087 1474.81,-210 1424.08,-201.478 1284.8,-161.62 1212.19,-140.391"/>
<polygon fill="midnightblue" stroke="midnightblue" points="1212.98,-136.976 1202.4,-137.524 1211.01,-143.694 1212.98,-136.976"/>
</g>
<!-- Node50 -->
<g id="node154" class="node"><title>Node50</title>
<a xlink:href="shared__ptr__container_8h.html" target="_top" xlink:title="base/std_ext/shared\l_ptr_container.h">
<polygon fill="white" stroke="black" points="2187.31,-175 2187.31,-209 2292.31,-209 2292.31,-175 2187.31,-175"/>
<text text-anchor="start" x="2195.31" y="-196" font-family="Helvetica,sans-Serif" font-size="10.00">base/std_ext/shared</text>
<text text-anchor="middle" x="2239.81" y="-183" font-family="Helvetica,sans-Serif" font-size="10.00">_ptr_container.h</text>
</a>
</g>
<!-- Node49&#45;&gt;Node50 -->
<g id="edge208" class="edge"><title>Node49&#45;&gt;Node50</title>
<path fill="none" stroke="midnightblue" d="M2105.03,-246.412C2127.43,-237.37 2160.32,-224.091 2188,-212.915"/>
<polygon fill="midnightblue" stroke="midnightblue" points="2189.59,-216.05 2197.55,-209.06 2186.97,-209.559 2189.59,-216.05"/>
</g>
<!-- Node50&#45;&gt;Node7 -->
<g id="edge210" class="edge"><title>Node50&#45;&gt;Node7</title>
<path fill="none" stroke="midnightblue" d="M2285.69,-174.967C2312.05,-164.148 2341.38,-149.978 2348.81,-138 2353.96,-129.692 2353.53,-124.565 2348.81,-116 2320.28,-64.203 2254.24,-34.4005 2214.59,-20.5616"/>
<polygon fill="midnightblue" stroke="midnightblue" points="2215.47,-17.166 2204.88,-17.3065 2213.25,-23.8031 2215.47,-17.166"/>
</g>
<!-- Node50&#45;&gt;Node10 -->
<g id="edge216" class="edge"><title>Node50&#45;&gt;Node10</title>
<path fill="none" stroke="midnightblue" d="M2187.26,-181.717C2172.29,-178.985 2155.94,-176.19 2140.81,-174 1994.7,-152.852 1819.71,-136.725 1743.91,-130.184"/>
<polygon fill="midnightblue" stroke="midnightblue" points="1744.15,-126.692 1733.89,-129.325 1743.55,-133.666 1744.15,-126.692"/>
</g>
<!-- Node50&#45;&gt;Node16 -->
<g id="edge212" class="edge"><title>Node50&#45;&gt;Node16</title>
<path fill="none" stroke="midnightblue" d="M2244.01,-174.922C2246.07,-166.579 2248.55,-156.47 2250.71,-147.692"/>
<polygon fill="midnightblue" stroke="midnightblue" points="2254.15,-148.399 2253.14,-137.852 2247.35,-146.726 2254.15,-148.399"/>
</g>
<!-- Node50&#45;&gt;Node51 -->
<g id="edge214" class="edge"><title>Node50&#45;&gt;Node51</title>
<path fill="none" stroke="midnightblue" d="M2292.65,-181.986C2361.75,-168.891 2481.27,-146.242 2543.14,-134.518"/>
<polygon fill="midnightblue" stroke="midnightblue" points="2544.1,-137.898 2553.27,-132.597 2542.8,-131.02 2544.1,-137.898"/>
</g>
<!-- Node52&#45;&gt;Node7 -->
<g id="edge236" class="edge"><title>Node52&#45;&gt;Node7</title>
<path fill="none" stroke="midnightblue" d="M2051.47,-313.129C2209.2,-304.932 2811.21,-269.893 2868.81,-210 3007.59,-65.6931 2717.94,-60.3829 2706.81,-58 2612.01,-37.7004 2314.09,-18.7473 2215.13,-12.8672"/>
<polygon fill="midnightblue" stroke="midnightblue" points="2215.05,-9.35638 2204.86,-12.2616 2214.63,-16.3442 2215.05,-9.35638"/>
</g>
<!-- Node52&#45;&gt;Node10 -->
<g id="edge244" class="edge"><title>Node52&#45;&gt;Node10</title>
<path fill="none" stroke="midnightblue" d="M1975.96,-310.676C1917.39,-302.015 1804.78,-277.206 1739.81,-210 1723.06,-192.675 1714.13,-165.964 1709.7,-147.547"/>
<polygon fill="midnightblue" stroke="midnightblue" points="1713.07,-146.584 1707.53,-137.553 1706.23,-148.067 1713.07,-146.584"/>
</g>
<!-- Node52&#45;&gt;Node16 -->
<g id="edge242" class="edge"><title>Node52&#45;&gt;Node16</title>
<path fill="none" stroke="midnightblue" d="M2051.52,-306.804C2122.48,-290.532 2271.4,-252.073 2300.81,-210 2309.97,-196.886 2306.77,-188.848 2300.81,-174 2296.23,-162.603 2287.43,-152.409 2278.81,-144.453"/>
<polygon fill="midnightblue" stroke="midnightblue" points="2280.94,-141.669 2271.08,-137.804 2276.38,-146.977 2280.94,-141.669"/>
</g>
<!-- Node52&#45;&gt;Node24 -->
<g id="edge240" class="edge"><title>Node52&#45;&gt;Node24</title>
<path fill="none" stroke="midnightblue" d="M2051.39,-313.147C2121.87,-307.869 2275.61,-287.608 2373.81,-210 2395.8,-192.618 2413.46,-165.164 2423.79,-146.637"/>
<polygon fill="midnightblue" stroke="midnightblue" points="2426.98,-148.09 2428.62,-137.624 2420.81,-144.78 2426.98,-148.09"/>
</g>
<!-- Node52&#45;&gt;Node30 -->
<g id="edge238" class="edge"><title>Node52&#45;&gt;Node30</title>
<path fill="none" stroke="midnightblue" d="M2015.77,-304.33C2018.81,-289.99 2025.71,-264.203 2038.81,-246 2049.64,-230.942 2065.77,-217.884 2079.6,-208.382"/>
<polygon fill="midnightblue" stroke="midnightblue" points="2081.85,-211.09 2088.28,-202.666 2078,-205.244 2081.85,-211.09"/>
</g>
<!-- Node52&#45;&gt;Node32 -->
<g id="edge234" class="edge"><title>Node52&#45;&gt;Node32</title>
<path fill="none" stroke="midnightblue" d="M1976.14,-305.724C1912.45,-290.457 1779.26,-260.302 1664.81,-246 1367.58,-208.858 1289.18,-245.962 991.808,-210 979.7,-208.536 966.813,-206.453 954.563,-204.22"/>
<polygon fill="midnightblue" stroke="midnightblue" points="954.93,-200.728 944.455,-202.32 953.637,-207.607 954.93,-200.728"/>
</g>
<!-- Node52&#45;&gt;Node49 -->
<g id="edge232" class="edge"><title>Node52&#45;&gt;Node49</title>
<path fill="none" stroke="midnightblue" d="M2025.73,-304.362C2035.17,-295.941 2048.54,-284.011 2059.5,-274.231"/>
<polygon fill="midnightblue" stroke="midnightblue" points="2061.83,-276.84 2066.96,-267.571 2057.17,-271.617 2061.83,-276.84"/>
</g>
<!-- Node53&#45;&gt;Node6 -->
<g id="edge250" class="edge"><title>Node53&#45;&gt;Node6</title>
<path fill="none" stroke="midnightblue" d="M1347.68,-370.701C1235.67,-362.635 866.37,-335.596 813.808,-326 721.501,-309.148 689.969,-318.38 610.808,-268 546.224,-226.897 532.124,-206.432 497.808,-138 490.264,-122.954 486.497,-104.2 484.626,-90.0434"/>
<polygon fill="midnightblue" stroke="midnightblue" points="488.075,-89.3882 483.496,-79.834 481.118,-90.1583 488.075,-89.3882"/>
</g>
<!-- Node53&#45;&gt;Node7 -->
<g id="edge286" class="edge"><title>Node53&#45;&gt;Node7</title>
<path fill="none" stroke="midnightblue" d="M1411.99,-371.912C1621.45,-364.525 2785.73,-318.729 2894.81,-210 2925.2,-179.709 2940.11,-152.027 2916.81,-116 2882.67,-63.2172 2848.72,-73.5541 2787.81,-58 2677.79,-29.903 2324.06,-15.7983 2215.08,-12.0441"/>
<polygon fill="midnightblue" stroke="midnightblue" points="2215.13,-8.54414 2205.02,-11.7033 2214.9,-15.5401 2215.13,-8.54414"/>
</g>
<!-- Node53&#45;&gt;Node9 -->
<g id="edge252" class="edge"><title>Node53&#45;&gt;Node9</title>
<path fill="none" stroke="midnightblue" d="M1347.42,-369.665C1214.06,-355.756 711.48,-301.531 648.808,-268 606.711,-245.477 566.261,-210.693 596.808,-174 600.336,-169.763 747.85,-144.478 816.871,-132.847"/>
<polygon fill="midnightblue" stroke="midnightblue" points="817.569,-136.279 826.85,-131.169 816.408,-129.376 817.569,-136.279"/>
</g>
<!-- Node53&#45;&gt;Node16 -->
<g id="edge292" class="edge"><title>Node53&#45;&gt;Node16</title>
<path fill="none" stroke="midnightblue" d="M1411.94,-371.856C1529.14,-367.517 1933.27,-351.041 2059.81,-326 2182.74,-301.671 2258.89,-321.131 2316.81,-210 2324.2,-195.811 2323.87,-188.357 2316.81,-174 2310.41,-160.999 2298.5,-150.582 2286.89,-142.892"/>
<polygon fill="midnightblue" stroke="midnightblue" points="2288.52,-139.786 2278.16,-137.545 2284.86,-145.755 2288.52,-139.786"/>
</g>
<!-- Node53&#45;&gt;Node17 -->
<g id="edge288" class="edge"><title>Node53&#45;&gt;Node17</title>
<path fill="none" stroke="midnightblue" d="M1380.84,-362.43C1384.5,-324.896 1396.92,-197.604 1401.81,-147.502"/>
<polygon fill="midnightblue" stroke="midnightblue" points="1405.29,-147.824 1402.78,-137.531 1398.33,-147.144 1405.29,-147.824"/>
</g>
<!-- Node53&#45;&gt;Node45 -->
<g id="edge284" class="edge"><title>Node53&#45;&gt;Node45</title>
<path fill="none" stroke="midnightblue" d="M1357.35,-362.497C1337.9,-353.397 1309.53,-340.127 1287.72,-329.925"/>
<polygon fill="midnightblue" stroke="midnightblue" points="1289.06,-326.688 1278.52,-325.621 1286.09,-333.028 1289.06,-326.688"/>
</g>
<!-- Node53&#45;&gt;Node52 -->
<g id="edge248" class="edge"><title>Node53&#45;&gt;Node52</title>
<path fill="none" stroke="midnightblue" d="M1412.12,-370.044C1516.08,-360.533 1842.32,-330.688 1965.81,-319.391"/>
<polygon fill="midnightblue" stroke="midnightblue" points="1966.44,-322.848 1976.08,-318.452 1965.8,-315.877 1966.44,-322.848"/>
</g>
<!-- Node54 -->
<g id="node181" class="node"><title>Node54</title>
<a xlink:href="_particle_type_8h.html" target="_top" xlink:title="base/ParticleType.h">
<polygon fill="white" stroke="black" points="1247.81,-246.5 1247.81,-267.5 1351.81,-267.5 1351.81,-246.5 1247.81,-246.5"/>
<text text-anchor="middle" x="1299.81" y="-254.5" font-family="Helvetica,sans-Serif" font-size="10.00">base/ParticleType.h</text>
</a>
</g>
<!-- Node53&#45;&gt;Node54 -->
<g id="edge254" class="edge"><title>Node53&#45;&gt;Node54</title>
<path fill="none" stroke="midnightblue" d="M1372.43,-362.295C1358.91,-342.7 1330.03,-300.82 1313.04,-276.191"/>
<polygon fill="midnightblue" stroke="midnightblue" points="1315.73,-273.924 1307.17,-267.679 1309.97,-277.898 1315.73,-273.924"/>
</g>
<!-- Node57 -->
<g id="node192" class="node"><title>Node57</title>
<a xlink:href="_tree_8h.html" target="_top" xlink:title="base/Tree.h">
<polygon fill="white" stroke="black" points="1483.81,-181.5 1483.81,-202.5 1551.81,-202.5 1551.81,-181.5 1483.81,-181.5"/>
<text text-anchor="middle" x="1517.81" y="-189.5" font-family="Helvetica,sans-Serif" font-size="10.00">base/Tree.h</text>
</a>
</g>
<!-- Node53&#45;&gt;Node57 -->
<g id="edge270" class="edge"><title>Node53&#45;&gt;Node57</title>
<path fill="none" stroke="midnightblue" d="M1411.91,-365.744C1446.28,-357.248 1497.43,-342.257 1508.81,-326 1514.42,-317.99 1512.14,-313.194 1508.81,-304 1501.72,-284.417 1485.9,-287.583 1478.81,-268 1475.48,-258.806 1475.8,-255.303 1478.81,-246 1483.05,-232.894 1491.78,-220.294 1499.92,-210.566"/>
<polygon fill="midnightblue" stroke="midnightblue" points="1502.77,-212.623 1506.78,-202.816 1497.53,-207.983 1502.77,-212.623"/>
</g>
<!-- Node59 -->
<g id="node204" class="node"><title>Node59</title>
<polygon fill="white" stroke="#bfbfbf" points="1445.81,-304.5 1445.81,-325.5 1499.81,-325.5 1499.81,-304.5 1445.81,-304.5"/>
<text text-anchor="middle" x="1472.81" y="-312.5" font-family="Helvetica,sans-Serif" font-size="10.00">iostream</text>
</g>
<!-- Node53&#45;&gt;Node59 -->
<g id="edge290" class="edge"><title>Node53&#45;&gt;Node59</title>
<path fill="none" stroke="midnightblue" d="M1396.87,-362.362C1410.89,-353.614 1430.99,-341.079 1446.99,-331.101"/>
<polygon fill="midnightblue" stroke="midnightblue" points="1449.23,-333.832 1455.86,-325.571 1445.52,-327.893 1449.23,-333.832"/>
</g>
<!-- Node54&#45;&gt;Node5 -->
<g id="edge258" class="edge"><title>Node54&#45;&gt;Node5</title>
<path fill="none" stroke="midnightblue" d="M1247.72,-252.696C1129.93,-242.868 850.044,-218.936 807.808,-210 802.37,-208.849 796.714,-207.335 791.2,-205.673"/>
<polygon fill="midnightblue" stroke="midnightblue" points="792.094,-202.285 781.503,-202.568 789.959,-208.951 792.094,-202.285"/>
</g>
<!-- Node54&#45;&gt;Node7 -->
<g id="edge268" class="edge"><title>Node54&#45;&gt;Node7</title>
<path fill="none" stroke="midnightblue" d="M1305.3,-246.25C1321.49,-214.779 1368.59,-124.512 1380.81,-116 1508.56,-27.0088 2016.73,-13.4042 2150.43,-11.3568"/>
<polygon fill="midnightblue" stroke="midnightblue" points="2150.51,-14.8562 2160.46,-11.2146 2150.41,-7.85688 2150.51,-14.8562"/>
</g>
<!-- Node54&#45;&gt;Node8 -->
<g id="edge262" class="edge"><title>Node54&#45;&gt;Node8</title>
<path fill="none" stroke="midnightblue" d="M1247.8,-252.271C1222.22,-250.087 1190.92,-247.623 1162.81,-246 1106.09,-242.726 180.268,-250.874 140.808,-210 80.6193,-147.654 206.322,-61.7452 264.918,-26.7692"/>
<polygon fill="midnightblue" stroke="midnightblue" points="266.858,-29.6883 273.707,-21.6045 263.312,-23.6532 266.858,-29.6883"/>
</g>
<!-- Node54&#45;&gt;Node9 -->
<g id="edge256" class="edge"><title>Node54&#45;&gt;Node9</title>
<path fill="none" stroke="midnightblue" d="M1247.62,-252.573C1128.75,-242.368 847.577,-217.497 840.808,-210 825.451,-192.989 833.182,-165.45 841.388,-146.802"/>
<polygon fill="midnightblue" stroke="midnightblue" points="844.573,-148.254 845.727,-137.722 838.257,-145.236 844.573,-148.254"/>
</g>
<!-- Node54&#45;&gt;Node14 -->
<g id="edge260" class="edge"><title>Node54&#45;&gt;Node14</title>
<path fill="none" stroke="midnightblue" d="M1351.86,-253.746C1512.41,-243.676 1989.54,-213.495 1996.81,-210 2016.37,-200.596 2010.59,-184.08 2029.81,-174 2130.68,-121.106 2174.9,-164.436 2289.27,-137.911"/>
<polygon fill="midnightblue" stroke="midnightblue" points="2290.2,-141.285 2299.08,-135.504 2288.53,-134.486 2290.2,-141.285"/>
</g>
<!-- Node54&#45;&gt;Node55 -->
<g id="edge264" class="edge"><title>Node54&#45;&gt;Node55</title>
<path fill="none" stroke="midnightblue" d="M1351.87,-253.322C1387.57,-250.917 1436.04,-247.884 1478.81,-246 1516.29,-244.349 2801.84,-236.078 2828.81,-210 2845.11,-194.24 2843.29,-166.579 2839.45,-147.551"/>
<polygon fill="midnightblue" stroke="midnightblue" points="2842.84,-146.682 2837.14,-137.749 2836.03,-148.285 2842.84,-146.682"/>
</g>
<!-- Node56 -->
<g id="node189" class="node"><title>Node56</title>
<polygon fill="white" stroke="#bfbfbf" points="1267.31,-181.5 1267.31,-202.5 1314.31,-202.5 1314.31,-181.5 1267.31,-181.5"/>
<text text-anchor="middle" x="1290.81" y="-189.5" font-family="Helvetica,sans-Serif" font-size="10.00">iterator</text>
</g>
<!-- Node54&#45;&gt;Node56 -->
<g id="edge266" class="edge"><title>Node54&#45;&gt;Node56</title>
<path fill="none" stroke="midnightblue" d="M1298.32,-246.267C1297.06,-237.18 1295.22,-223.892 1293.68,-212.74"/>
<polygon fill="midnightblue" stroke="midnightblue" points="1297.11,-211.959 1292.27,-202.534 1290.17,-212.919 1297.11,-211.959"/>
</g>
<!-- Node57&#45;&gt;Node7 -->
<g id="edge278" class="edge"><title>Node57&#45;&gt;Node7</title>
<path fill="none" stroke="midnightblue" d="M1526.2,-181.414C1540.17,-164.604 1569.9,-132.072 1602.81,-116 1701.6,-67.7522 2043.15,-26.5255 2150.36,-14.5238"/>
<polygon fill="midnightblue" stroke="midnightblue" points="2151,-17.9739 2160.55,-13.3916 2150.23,-11.0167 2151,-17.9739"/>
</g>
<!-- Node57&#45;&gt;Node10 -->
<g id="edge280" class="edge"><title>Node57&#45;&gt;Node10</title>
<path fill="none" stroke="midnightblue" d="M1542.23,-181.365C1548.26,-178.852 1554.74,-176.25 1560.81,-174 1596.77,-160.672 1638.48,-147.373 1667.91,-138.341"/>
<polygon fill="midnightblue" stroke="midnightblue" points="1669.23,-141.596 1677.77,-135.331 1667.19,-134.901 1669.23,-141.596"/>
</g>
<!-- Node57&#45;&gt;Node16 -->
<g id="edge274" class="edge"><title>Node57&#45;&gt;Node16</title>
<path fill="none" stroke="midnightblue" d="M1539.21,-181.384C1545.96,-178.49 1553.56,-175.69 1560.81,-174 1814.07,-114.967 1885.6,-158.826 2144.81,-138 2169.69,-136.001 2197.66,-133.226 2219.3,-130.963"/>
<polygon fill="midnightblue" stroke="midnightblue" points="2219.79,-134.431 2229.37,-129.899 2219.06,-127.469 2219.79,-134.431"/>
</g>
<!-- Node57&#45;&gt;Node17 -->
<g id="edge276" class="edge"><title>Node57&#45;&gt;Node17</title>
<path fill="none" stroke="midnightblue" d="M1499.24,-181.412C1479.56,-170.194 1448.45,-152.455 1427.14,-140.301"/>
<polygon fill="midnightblue" stroke="midnightblue" points="1428.81,-137.224 1418.38,-135.311 1425.34,-143.305 1428.81,-137.224"/>
</g>
<!-- Node57&#45;&gt;Node41 -->
<g id="edge282" class="edge"><title>Node57&#45;&gt;Node41</title>
<path fill="none" stroke="midnightblue" d="M1537.03,-181.412C1556.23,-170.836 1585.95,-154.465 1607.78,-142.441"/>
<polygon fill="midnightblue" stroke="midnightblue" points="1609.52,-145.474 1616.6,-137.584 1606.15,-139.343 1609.52,-145.474"/>
</g>
<!-- Node58 -->
<g id="node194" class="node"><title>Node58</title>
<polygon fill="white" stroke="#bfbfbf" points="1435.81,-116.5 1435.81,-137.5 1555.81,-137.5 1555.81,-116.5 1435.81,-116.5"/>
<text text-anchor="middle" x="1495.81" y="-124.5" font-family="Helvetica,sans-Serif" font-size="10.00">base/cereal/access.hpp</text>
</g>
<!-- Node57&#45;&gt;Node58 -->
<g id="edge272" class="edge"><title>Node57&#45;&gt;Node58</title>
<path fill="none" stroke="midnightblue" d="M1514.18,-181.267C1511.04,-171.991 1506.41,-158.336 1502.59,-147.045"/>
<polygon fill="midnightblue" stroke="midnightblue" points="1505.89,-145.884 1499.37,-137.534 1499.26,-148.128 1505.89,-145.884"/>
</g>
<!-- Node60&#45;&gt;Node14 -->
<g id="edge296" class="edge"><title>Node60&#45;&gt;Node14</title>
<path fill="none" stroke="midnightblue" d="M2721.56,-182.773C2705.13,-179.814 2686.7,-176.626 2669.81,-174 2549.75,-155.336 2519.2,-154.378 2398.81,-138 2382.91,-135.837 2365.22,-133.378 2350.61,-131.335"/>
<polygon fill="midnightblue" stroke="midnightblue" points="2350.98,-127.853 2340.59,-129.931 2350.01,-134.785 2350.98,-127.853"/>
</g>
<!-- Node60&#45;&gt;Node16 -->
<g id="edge298" class="edge"><title>Node60&#45;&gt;Node16</title>
<path fill="none" stroke="midnightblue" d="M2721.53,-185.023C2696.23,-181.531 2664.89,-177.347 2636.81,-174 2486.58,-156.099 2444.02,-168.765 2292.19,-137.956"/>
<polygon fill="midnightblue" stroke="midnightblue" points="2292.53,-134.453 2282.03,-135.863 2291.12,-141.309 2292.53,-134.453"/>
</g>
<!-- Node60&#45;&gt;Node24 -->
<g id="edge304" class="edge"><title>Node60&#45;&gt;Node24</title>
<path fill="none" stroke="midnightblue" d="M2736.32,-181.418C2727.11,-178.791 2717.12,-176.123 2707.81,-174 2623.5,-154.785 2523,-139.446 2470.26,-131.968"/>
<polygon fill="midnightblue" stroke="midnightblue" points="2470.45,-128.461 2460.06,-130.536 2469.48,-135.393 2470.45,-128.461"/>
</g>
<!-- Node60&#45;&gt;Node55 -->
<g id="edge300" class="edge"><title>Node60&#45;&gt;Node55</title>
<path fill="none" stroke="midnightblue" d="M2781.21,-181.267C2790.75,-171.423 2805.07,-156.648 2816.36,-145"/>
<polygon fill="midnightblue" stroke="midnightblue" points="2819.15,-147.15 2823.6,-137.534 2814.13,-142.278 2819.15,-147.15"/>
</g>
<!-- Node61 -->
<g id="node212" class="node"><title>Node61</title>
<polygon fill="white" stroke="#bfbfbf" points="2755.81,-116.5 2755.81,-137.5 2785.81,-137.5 2785.81,-116.5 2755.81,-116.5"/>
<text text-anchor="middle" x="2770.81" y="-124.5" font-family="Helvetica,sans-Serif" font-size="10.00">set</text>
</g>
<!-- Node60&#45;&gt;Node61 -->
<g id="edge302" class="edge"><title>Node60&#45;&gt;Node61</title>
<path fill="none" stroke="midnightblue" d="M2770.81,-181.267C2770.81,-172.18 2770.81,-158.892 2770.81,-147.74"/>
<polygon fill="midnightblue" stroke="midnightblue" points="2774.31,-147.534 2770.81,-137.534 2767.31,-147.534 2774.31,-147.534"/>
</g>
<!-- Node62&#45;&gt;Node7 -->
<g id="edge312" class="edge"><title>Node62&#45;&gt;Node7</title>
<path fill="none" stroke="midnightblue" d="M2560.14,-174.739C2537.76,-158.227 2502.15,-133.342 2468.81,-116 2381.08,-70.3714 2268.96,-35.3888 2214.86,-19.8371"/>
<polygon fill="midnightblue" stroke="midnightblue" points="2215.72,-16.4432 2205.14,-17.0747 2213.8,-23.1763 2215.72,-16.4432"/>
</g>
<!-- Node62&#45;&gt;Node14 -->
<g id="edge308" class="edge"><title>Node62&#45;&gt;Node14</title>
<path fill="none" stroke="midnightblue" d="M2537.16,-177.73C2532.66,-176.427 2528.15,-175.162 2523.81,-174 2462.73,-157.669 2390.46,-141.83 2350.42,-133.356"/>
<polygon fill="midnightblue" stroke="midnightblue" points="2350.99,-129.9 2340.48,-131.265 2349.55,-136.75 2350.99,-129.9"/>
</g>
<!-- Node62&#45;&gt;Node16 -->
<g id="edge316" class="edge"><title>Node62&#45;&gt;Node16</title>
<path fill="none" stroke="midnightblue" d="M2537.24,-177.396C2532.73,-176.16 2528.19,-175.002 2523.81,-174 2424.75,-151.359 2394.67,-161.135 2291.91,-137.986"/>
<polygon fill="midnightblue" stroke="midnightblue" points="2292.59,-134.553 2282.06,-135.72 2291.02,-141.375 2292.59,-134.553"/>
</g>
<!-- Node62&#45;&gt;Node17 -->
<g id="edge310" class="edge"><title>Node62&#45;&gt;Node17</title>
<path fill="none" stroke="midnightblue" d="M2536.91,-188.751C2481.12,-184.876 2384.09,-178.373 2300.81,-174 2109.82,-163.972 1631.21,-184.221 1428.32,-137.479"/>
<polygon fill="midnightblue" stroke="midnightblue" points="1429.12,-134.071 1418.58,-135.128 1427.48,-140.876 1429.12,-134.071"/>
</g>
<!-- Node62&#45;&gt;Node19 -->
<g id="edge320" class="edge"><title>Node62&#45;&gt;Node19</title>
<path fill="none" stroke="midnightblue" d="M2536.93,-188.425C2481.15,-184.228 2384.14,-177.409 2300.81,-174 1857.55,-155.866 746.298,-181.504 304.808,-138 297.372,-137.267 289.482,-136.123 281.931,-134.844"/>
<polygon fill="midnightblue" stroke="midnightblue" points="282.382,-131.369 271.92,-133.042 281.142,-138.258 282.382,-131.369"/>
</g>
<!-- Node62&#45;&gt;Node51 -->
<g id="edge318" class="edge"><title>Node62&#45;&gt;Node51</title>
<path fill="none" stroke="midnightblue" d="M2582.81,-174.922C2582.81,-166.67 2582.81,-156.692 2582.81,-147.982"/>
<polygon fill="midnightblue" stroke="midnightblue" points="2586.31,-147.852 2582.81,-137.852 2579.31,-147.852 2586.31,-147.852"/>
</g>
<!-- Node62&#45;&gt;Node55 -->
<g id="edge314" class="edge"><title>Node62&#45;&gt;Node55</title>
<path fill="none" stroke="midnightblue" d="M2628.39,-180.747C2671.38,-170.049 2737.58,-153.356 2794.81,-138 2798.49,-137.012 2802.36,-135.949 2806.18,-134.888"/>
<polygon fill="midnightblue" stroke="midnightblue" points="2807.29,-138.21 2815.97,-132.134 2805.4,-131.471 2807.29,-138.21"/>
</g>
<!-- Node66&#45;&gt;Node5 -->
<g id="edge340" class="edge"><title>Node66&#45;&gt;Node5</title>
<path fill="none" stroke="midnightblue" d="M727.092,-246.267C731.706,-236.896 738.519,-223.057 744.11,-211.7"/>
<polygon fill="midnightblue" stroke="midnightblue" points="747.346,-213.051 748.622,-202.534 741.065,-209.96 747.346,-213.051"/>
</g>
<!-- Node66&#45;&gt;Node32 -->
<g id="edge344" class="edge"><title>Node66&#45;&gt;Node32</title>
<path fill="none" stroke="midnightblue" d="M750.315,-246.412C779.806,-235.458 826.034,-218.288 858.659,-206.17"/>
<polygon fill="midnightblue" stroke="midnightblue" points="860.159,-209.346 868.314,-202.584 857.721,-202.784 860.159,-209.346"/>
</g>
<!-- Node67 -->
<g id="node238" class="node"><title>Node67</title>
<polygon fill="white" stroke="#bfbfbf" points="605.308,-181.5 605.308,-202.5 658.308,-202.5 658.308,-181.5 605.308,-181.5"/>
<text text-anchor="middle" x="631.808" y="-189.5" font-family="Helvetica,sans-Serif" font-size="10.00">TMath.h</text>
</g>
<!-- Node66&#45;&gt;Node67 -->
<g id="edge342" class="edge"><title>Node66&#45;&gt;Node67</title>
<path fill="none" stroke="midnightblue" d="M706.947,-246.267C692.792,-236.044 671.276,-220.504 654.89,-208.67"/>
<polygon fill="midnightblue" stroke="midnightblue" points="656.549,-205.551 646.393,-202.534 652.451,-211.226 656.549,-205.551"/>
</g>
</g>
</svg>
