<?xml version="1.0" encoding="UTF-8" standalone="no"?>
<!DOCTYPE svg PUBLIC "-//W3C//DTD SVG 1.1//EN"
 "http://www.w3.org/Graphics/SVG/1.1/DTD/svg11.dtd">
<!-- Generated by graphviz version 2.26.3 (20100126.1600)
 -->
<!-- Title: src/base/std_ext/misc.h Pages: 1 -->
<svg width="210pt" height="88pt"
 viewBox="0.00 0.00 210.00 88.00" xmlns="http://www.w3.org/2000/svg" xmlns:xlink="http://www.w3.org/1999/xlink">
<g id="graph1" class="graph" transform="scale(1 1) rotate(0) translate(4 84)">
<title>src/base/std_ext/misc.h</title>
<polygon fill="white" stroke="white" points="-4,5 -4,-84 207,-84 207,5 -4,5"/>
<!-- Node1 -->
<g id="node1" class="node"><title>Node1</title>
<polygon fill="#bfbfbf" stroke="black" points="42,-58.5 42,-79.5 164,-79.5 164,-58.5 42,-58.5"/>
<text text-anchor="middle" x="103" y="-66.5" font-family="Helvetica,sans-Serif" font-size="10.00">src/base/std_ext/misc.h</text>
</g>
<!-- Node2 -->
<g id="node3" class="node"><title>Node2</title>
<polygon fill="white" stroke="#bfbfbf" points="0,-0.5 0,-21.5 56,-21.5 56,-0.5 0,-0.5"/>
<text text-anchor="middle" x="28" y="-8.5" font-family="Helvetica,sans-Serif" font-size="10.00">algorithm</text>
</g>
<!-- Node1&#45;&gt;Node2 -->
<g id="edge2" class="edge"><title>Node1&#45;&gt;Node2</title>
<path fill="none" stroke="midnightblue" d="M89.2438,-58.3619C78.2488,-49.859 62.6274,-37.7785 49.9136,-27.9466"/>
<polygon fill="midnightblue" stroke="midnightblue" points="51.7206,-24.9195 41.6689,-21.5707 47.4384,-30.4569 51.7206,-24.9195"/>
</g>
<!-- Node3 -->
<g id="node5" class="node"><title>Node3</title>
<polygon fill="white" stroke="#bfbfbf" points="73.5,-0.5 73.5,-21.5 132.5,-21.5 132.5,-0.5 73.5,-0.5"/>
<text text-anchor="middle" x="103" y="-8.5" font-family="Helvetica,sans-Serif" font-size="10.00">functional</text>
</g>
<!-- Node1&#45;&gt;Node3 -->
<g id="edge4" class="edge"><title>Node1&#45;&gt;Node3</title>
<path fill="none" stroke="midnightblue" d="M103,-58.3619C103,-50.9219 103,-40.7427 103,-31.7276"/>
<polygon fill="midnightblue" stroke="midnightblue" points="106.5,-31.5706 103,-21.5707 99.5001,-31.5707 106.5,-31.5706"/>
</g>
<!-- Node4 -->
<g id="node7" class="node"><title>Node4</title>
<polygon fill="white" stroke="#bfbfbf" points="149.5,-0.5 149.5,-21.5 202.5,-21.5 202.5,-0.5 149.5,-0.5"/>
<text text-anchor="middle" x="176" y="-8.5" font-family="Helvetica,sans-Serif" font-size="10.00">cxxabi.h</text>
</g>
<!-- Node1&#45;&gt;Node4 -->
<g id="edge6" class="edge"><title>Node1&#45;&gt;Node4</title>
<path fill="none" stroke="midnightblue" d="M116.389,-58.3619C127.091,-49.859 142.296,-37.7785 154.671,-27.9466"/>
<polygon fill="midnightblue" stroke="midnightblue" points="157.043,-30.5318 162.696,-21.5707 152.689,-25.0511 157.043,-30.5318"/>
</g>
</g>
</svg>
