<?xml version="1.0" encoding="UTF-8" standalone="no"?>
<!DOCTYPE svg PUBLIC "-//W3C//DTD SVG 1.1//EN"
 "http://www.w3.org/Graphics/SVG/1.1/DTD/svg11.dtd">
<!-- Generated by graphviz version 2.26.3 (20100126.1600)
 -->
<!-- Title: src/analysis/physics/omega/omega.h Pages: 1 -->
<svg width="268pt" height="116pt"
 viewBox="0.00 0.00 268.00 116.00" xmlns="http://www.w3.org/2000/svg" xmlns:xlink="http://www.w3.org/1999/xlink">
<g id="graph1" class="graph" transform="scale(1 1) rotate(0) translate(4 112)">
<title>src/analysis/physics/omega/omega.h</title>
<polygon fill="white" stroke="white" points="-4,5 -4,-112 265,-112 265,5 -4,5"/>
<!-- Node1 -->
<g id="node1" class="node"><title>Node1</title>
<polygon fill="#bfbfbf" stroke="black" points="84,-73 84,-107 190,-107 190,-73 84,-73"/>
<text text-anchor="start" x="92" y="-94" font-family="Helvetica,sans-Serif" font-size="10.00">src/analysis/physics</text>
<text text-anchor="middle" x="137" y="-81" font-family="Helvetica,sans-Serif" font-size="10.00">/omega/omega.h</text>
</g>
<!-- Node2 -->
<g id="node3" class="node"><title>Node2</title>
<a xlink:href="_omega_eta_g2__plot_8cc.html" target="_top" xlink:title="Plotting tool for TTrees from the ant::analysis::physics::OmegaEtaG2 physics class. ">
<polygon fill="white" stroke="black" points="-0.5,-7.5 -0.5,-28.5 136.5,-28.5 136.5,-7.5 -0.5,-7.5"/>
<text text-anchor="middle" x="68" y="-15.5" font-family="Helvetica,sans-Serif" font-size="10.00">progs/OmegaEtaG2_plot.cc</text>
</a>
</g>
<!-- Node1&#45;&gt;Node2 -->
<g id="edge2" class="edge"><title>Node1&#45;&gt;Node2</title>
<path fill="none" stroke="midnightblue" d="M113.536,-65.5161C101.612,-53.0732 87.7212,-38.5787 78.4468,-28.901"/>
<polygon fill="midnightblue" stroke="midnightblue" points="111.202,-68.1388 120.648,-72.937 116.256,-63.2954 111.202,-68.1388"/>
</g>
<!-- Node3 -->
<g id="node5" class="node"><title>Node3</title>
<a xlink:href="omega_8cc.html" target="_top" xlink:title="src/analysis/physics\l/omega/omega.cc">
<polygon fill="white" stroke="black" points="154,-1 154,-35 260,-35 260,-1 154,-1"/>
<text text-anchor="start" x="162" y="-22" font-family="Helvetica,sans-Serif" font-size="10.00">src/analysis/physics</text>
<text text-anchor="middle" x="207" y="-9" font-family="Helvetica,sans-Serif" font-size="10.00">/omega/omega.cc</text>
</a>
</g>
<!-- Node1&#45;&gt;Node3 -->
<g id="edge4" class="edge"><title>Node1&#45;&gt;Node3</title>
<path fill="none" stroke="midnightblue" d="M160.654,-65.6706C170.294,-55.7551 181.221,-44.5151 190.044,-35.4407"/>
<polygon fill="midnightblue" stroke="midnightblue" points="158.05,-63.3272 153.589,-72.937 163.069,-68.2068 158.05,-63.3272"/>
</g>
</g>
</svg>
