<?xml version="1.0" encoding="UTF-8" standalone="no"?>
<!DOCTYPE svg PUBLIC "-//W3C//DTD SVG 1.1//EN"
 "http://www.w3.org/Graphics/SVG/1.1/DTD/svg11.dtd">
<!-- Generated by graphviz version 2.26.3 (20100126.1600)
 -->
<!-- Title: src/analysis/utils/particle_tools.h Pages: 1 -->
<svg width="2550pt" height="212pt"
 viewBox="0.00 0.00 2550.00 212.00" xmlns="http://www.w3.org/2000/svg" xmlns:xlink="http://www.w3.org/1999/xlink">
<g id="graph1" class="graph" transform="scale(1 1) rotate(0) translate(4 208)">
<title>src/analysis/utils/particle_tools.h</title>
<polygon fill="white" stroke="white" points="-4,5 -4,-208 2547,-208 2547,5 -4,5"/>
<!-- Node1 -->
<g id="node1" class="node"><title>Node1</title>
<polygon fill="#bfbfbf" stroke="black" points="1196,-169 1196,-203 1286,-203 1286,-169 1196,-169"/>
<text text-anchor="start" x="1204" y="-190" font-family="Helvetica,sans-Serif" font-size="10.00">src/analysis/utils</text>
<text text-anchor="middle" x="1241" y="-177" font-family="Helvetica,sans-Serif" font-size="10.00">/particle_tools.h</text>
</g>
<!-- Node2 -->
<g id="node3" class="node"><title>Node2</title>
<a xlink:href="_omega_eta_g2__plot_8cc.html" target="_top" xlink:title="Plotting tool for TTrees from the ant::analysis::physics::OmegaEtaG2 physics class. ">
<polygon fill="white" stroke="black" points="711.5,-13.5 711.5,-34.5 848.5,-34.5 848.5,-13.5 711.5,-13.5"/>
<text text-anchor="middle" x="780" y="-21.5" font-family="Helvetica,sans-Serif" font-size="10.00">progs/OmegaEtaG2_plot.cc</text>
</a>
</g>
<!-- Node1&#45;&gt;Node2 -->
<g id="edge2" class="edge"><title>Node1&#45;&gt;Node2</title>
<path fill="none" stroke="midnightblue" d="M1185.52,-183.099C1071.73,-176.614 820.327,-159.331 793,-132 766.828,-105.824 773.112,-56.4224 777.495,-34.7033"/>
<polygon fill="midnightblue" stroke="midnightblue" points="1185.58,-186.608 1195.76,-183.674 1185.97,-179.619 1185.58,-186.608"/>
</g>
<!-- Node3 -->
<g id="node5" class="node"><title>Node3</title>
<a xlink:href="_pluto_reader_8cc.html" target="_top" xlink:title="src/analysis/input\l/pluto/PlutoReader.cc">
<polygon fill="white" stroke="black" points="151.5,-91 151.5,-125 262.5,-125 262.5,-91 151.5,-91"/>
<text text-anchor="start" x="159.5" y="-112" font-family="Helvetica,sans-Serif" font-size="10.00">src/analysis/input</text>
<text text-anchor="middle" x="207" y="-99" font-family="Helvetica,sans-Serif" font-size="10.00">/pluto/PlutoReader.cc</text>
</a>
</g>
<!-- Node1&#45;&gt;Node3 -->
<g id="edge4" class="edge"><title>Node1&#45;&gt;Node3</title>
<path fill="none" stroke="midnightblue" d="M1185.78,-185.119C1007.35,-181.929 447.701,-169.144 271,-132 262.987,-130.316 254.644,-127.796 246.731,-125.013"/>
<polygon fill="midnightblue" stroke="midnightblue" points="1185.92,-188.622 1195.98,-185.299 1186.04,-181.623 1185.92,-188.622"/>
</g>
<!-- Node4 -->
<g id="node7" class="node"><title>Node4</title>
<a xlink:href="_m_c_smearing_8cc.html" target="_top" xlink:title="src/analysis/physics\l/common/MCSmearing.cc">
<polygon fill="white" stroke="black" points="279.5,-91 279.5,-125 410.5,-125 410.5,-91 279.5,-91"/>
<text text-anchor="start" x="287.5" y="-112" font-family="Helvetica,sans-Serif" font-size="10.00">src/analysis/physics</text>
<text text-anchor="middle" x="345" y="-99" font-family="Helvetica,sans-Serif" font-size="10.00">/common/MCSmearing.cc</text>
</a>
</g>
<!-- Node1&#45;&gt;Node4 -->
<g id="edge6" class="edge"><title>Node1&#45;&gt;Node4</title>
<path fill="none" stroke="midnightblue" d="M1185.79,-184.158C1026.26,-178.553 566.657,-160.338 419,-132 409.981,-130.269 400.531,-127.764 391.517,-125.019"/>
<polygon fill="midnightblue" stroke="midnightblue" points="1185.74,-187.659 1195.86,-184.509 1185.99,-180.663 1185.74,-187.659"/>
</g>
<!-- Node5 -->
<g id="node9" class="node"><title>Node5</title>
<a xlink:href="_proton_check_8cc.html" target="_top" xlink:title="src/analysis/physics\l/common/ProtonCheck.cc">
<polygon fill="white" stroke="black" points="427.5,-91 427.5,-125 558.5,-125 558.5,-91 427.5,-91"/>
<text text-anchor="start" x="435.5" y="-112" font-family="Helvetica,sans-Serif" font-size="10.00">src/analysis/physics</text>
<text text-anchor="middle" x="493" y="-99" font-family="Helvetica,sans-Serif" font-size="10.00">/common/ProtonCheck.cc</text>
</a>
</g>
<!-- Node1&#45;&gt;Node5 -->
<g id="edge8" class="edge"><title>Node1&#45;&gt;Node5</title>
<path fill="none" stroke="midnightblue" d="M1185.7,-183.238C1046.63,-176.024 685.069,-155.539 567,-132 558.126,-130.231 548.828,-127.744 539.936,-125.036"/>
<polygon fill="midnightblue" stroke="midnightblue" points="1185.54,-186.735 1195.71,-183.754 1185.91,-179.744 1185.54,-186.735"/>
</g>
<!-- Node6 -->
<g id="node11" class="node"><title>Node6</title>
<a xlink:href="etaprime-3pi0_8cc.html" target="_top" xlink:title="src/analysis/physics\l/etaprime/etaprime&#45;3pi0.cc">
<polygon fill="white" stroke="black" points="576,-91 576,-125 708,-125 708,-91 576,-91"/>
<text text-anchor="start" x="584" y="-112" font-family="Helvetica,sans-Serif" font-size="10.00">src/analysis/physics</text>
<text text-anchor="middle" x="642" y="-99" font-family="Helvetica,sans-Serif" font-size="10.00">/etaprime/etaprime&#45;3pi0.cc</text>
</a>
</g>
<!-- Node1&#45;&gt;Node6 -->
<g id="edge10" class="edge"><title>Node1&#45;&gt;Node6</title>
<path fill="none" stroke="midnightblue" d="M1185.8,-183.662C1090.41,-178.868 888.911,-165.412 722,-132 712.758,-130.15 703.052,-127.692 693.713,-125.055"/>
<polygon fill="midnightblue" stroke="midnightblue" points="1185.64,-187.159 1195.8,-184.153 1185.98,-180.167 1185.64,-187.159"/>
</g>
<!-- Node7 -->
<g id="node13" class="node"><title>Node7</title>
<a xlink:href="etaprime__omega__gamma_8h.html" target="_top" xlink:title="src/analysis/physics\l/etaprime/etaprime_omega\l_gamma.h">
<polygon fill="white" stroke="black" points="2,-84.5 2,-131.5 134,-131.5 134,-84.5 2,-84.5"/>
<text text-anchor="start" x="10" y="-118.5" font-family="Helvetica,sans-Serif" font-size="10.00">src/analysis/physics</text>
<text text-anchor="start" x="10" y="-105.5" font-family="Helvetica,sans-Serif" font-size="10.00">/etaprime/etaprime_omega</text>
<text text-anchor="middle" x="68" y="-92.5" font-family="Helvetica,sans-Serif" font-size="10.00">_gamma.h</text>
</a>
</g>
<!-- Node1&#45;&gt;Node7 -->
<g id="edge12" class="edge"><title>Node1&#45;&gt;Node7</title>
<path fill="none" stroke="midnightblue" d="M1185.54,-185.179C991.866,-182.016 346.415,-168.894 143,-132 140.041,-131.463 137.036,-130.842 134.016,-130.153"/>
<polygon fill="midnightblue" stroke="midnightblue" points="1185.71,-188.682 1195.76,-185.344 1185.82,-181.683 1185.71,-188.682"/>
</g>
<!-- Node9 -->
<g id="node17" class="node"><title>Node9</title>
<a xlink:href="etaprime__omega__gamma_8cc.html" target="_top" xlink:title="src/analysis/physics\l/etaprime/etaprime_omega\l_gamma.cc">
<polygon fill="white" stroke="black" points="355,-0.5 355,-47.5 487,-47.5 487,-0.5 355,-0.5"/>
<text text-anchor="start" x="363" y="-34.5" font-family="Helvetica,sans-Serif" font-size="10.00">src/analysis/physics</text>
<text text-anchor="start" x="363" y="-21.5" font-family="Helvetica,sans-Serif" font-size="10.00">/etaprime/etaprime_omega</text>
<text text-anchor="middle" x="421" y="-8.5" font-family="Helvetica,sans-Serif" font-size="10.00">_gamma.cc</text>
</a>
</g>
<!-- Node1&#45;&gt;Node9 -->
<g id="edge18" class="edge"><title>Node1&#45;&gt;Node9</title>
<path fill="none" stroke="midnightblue" d="M1185.65,-183.81C1077.86,-178.87 843.998,-164.644 771,-132 741.687,-118.891 745.726,-98.351 717,-84 643.592,-47.3262 549.315,-33.0685 487.119,-27.5256"/>
<polygon fill="midnightblue" stroke="midnightblue" points="1185.53,-187.308 1195.67,-184.26 1185.84,-180.315 1185.53,-187.308"/>
</g>
<!-- Node10 -->
<g id="node20" class="node"><title>Node10</title>
<a xlink:href="mctrue__3pi0_8h.html" target="_top" xlink:title="src/analysis/physics\l/etaprime/mctrue_3pi0.h">
<polygon fill="white" stroke="black" points="1452,-91 1452,-125 1574,-125 1574,-91 1452,-91"/>
<text text-anchor="start" x="1460" y="-112" font-family="Helvetica,sans-Serif" font-size="10.00">src/analysis/physics</text>
<text text-anchor="middle" x="1513" y="-99" font-family="Helvetica,sans-Serif" font-size="10.00">/etaprime/mctrue_3pi0.h</text>
</a>
</g>
<!-- Node1&#45;&gt;Node10 -->
<g id="edge20" class="edge"><title>Node1&#45;&gt;Node10</title>
<path fill="none" stroke="midnightblue" d="M1295.88,-171.622C1335.49,-161.081 1390.21,-146.191 1438,-132 1445.34,-129.821 1453.06,-127.447 1460.64,-125.067"/>
<polygon fill="midnightblue" stroke="midnightblue" points="1294.91,-168.257 1286.14,-174.206 1296.71,-175.023 1294.91,-168.257"/>
</g>
<!-- Node11 -->
<g id="node22" class="node"><title>Node11</title>
<a xlink:href="mctrue__3pi0_8cc.html" target="_top" xlink:title="src/analysis/physics\l/etaprime/mctrue_3pi0.cc">
<polygon fill="white" stroke="black" points="1404.5,-7 1404.5,-41 1531.5,-41 1531.5,-7 1404.5,-7"/>
<text text-anchor="start" x="1412.5" y="-28" font-family="Helvetica,sans-Serif" font-size="10.00">src/analysis/physics</text>
<text text-anchor="middle" x="1468" y="-15" font-family="Helvetica,sans-Serif" font-size="10.00">/etaprime/mctrue_3pi0.cc</text>
</a>
</g>
<!-- Node1&#45;&gt;Node11 -->
<g id="edge24" class="edge"><title>Node1&#45;&gt;Node11</title>
<path fill="none" stroke="midnightblue" d="M1296.12,-178.081C1330.44,-170.839 1373.83,-157.231 1405,-132 1420.61,-119.368 1446.56,-68.5922 1459.75,-41.3991"/>
<polygon fill="midnightblue" stroke="midnightblue" points="1295.37,-174.662 1286.25,-180.044 1296.74,-181.527 1295.37,-174.662"/>
</g>
<!-- Node12 -->
<g id="node25" class="node"><title>Node12</title>
<a xlink:href="_find_proton_8cc.html" target="_top" xlink:title="src/analysis/physics\l/omega/FindProton.cc">
<polygon fill="white" stroke="black" points="963.5,-91 963.5,-125 1076.5,-125 1076.5,-91 963.5,-91"/>
<text text-anchor="start" x="971.5" y="-112" font-family="Helvetica,sans-Serif" font-size="10.00">src/analysis/physics</text>
<text text-anchor="middle" x="1020" y="-99" font-family="Helvetica,sans-Serif" font-size="10.00">/omega/FindProton.cc</text>
</a>
</g>
<!-- Node1&#45;&gt;Node12 -->
<g id="edge26" class="edge"><title>Node1&#45;&gt;Node12</title>
<path fill="none" stroke="midnightblue" d="M1186.02,-167.277C1156.1,-157.008 1118.46,-143.966 1085,-132 1078.77,-129.772 1072.22,-127.393 1065.77,-125.032"/>
<polygon fill="midnightblue" stroke="midnightblue" points="1185.26,-170.716 1195.86,-170.647 1187.53,-164.094 1185.26,-170.716"/>
</g>
<!-- Node13 -->
<g id="node27" class="node"><title>Node13</title>
<a xlink:href="_geo_acceptance_8cc.html" target="_top" xlink:title="src/analysis/physics\l/omega/GeoAcceptance.cc">
<polygon fill="white" stroke="black" points="1093.5,-91 1093.5,-125 1228.5,-125 1228.5,-91 1093.5,-91"/>
<text text-anchor="start" x="1101.5" y="-112" font-family="Helvetica,sans-Serif" font-size="10.00">src/analysis/physics</text>
<text text-anchor="middle" x="1161" y="-99" font-family="Helvetica,sans-Serif" font-size="10.00">/omega/GeoAcceptance.cc</text>
</a>
</g>
<!-- Node1&#45;&gt;Node13 -->
<g id="edge28" class="edge"><title>Node1&#45;&gt;Node13</title>
<path fill="none" stroke="midnightblue" d="M1216.03,-161.659C1203.93,-149.856 1189.67,-135.957 1178.7,-125.262"/>
<polygon fill="midnightblue" stroke="midnightblue" points="1213.64,-164.214 1223.25,-168.689 1218.53,-159.202 1213.64,-164.214"/>
</g>
<!-- Node14 -->
<g id="node29" class="node"><title>Node14</title>
<a xlink:href="mctrue__acceptance_8cc.html" target="_top" xlink:title="src/analysis/physics\l/omega/mctrue_acceptance.cc">
<polygon fill="white" stroke="black" points="1245.5,-91 1245.5,-125 1396.5,-125 1396.5,-91 1245.5,-91"/>
<text text-anchor="start" x="1253.5" y="-112" font-family="Helvetica,sans-Serif" font-size="10.00">src/analysis/physics</text>
<text text-anchor="middle" x="1321" y="-99" font-family="Helvetica,sans-Serif" font-size="10.00">/omega/mctrue_acceptance.cc</text>
</a>
</g>
<!-- Node1&#45;&gt;Node14 -->
<g id="edge30" class="edge"><title>Node1&#45;&gt;Node14</title>
<path fill="none" stroke="midnightblue" d="M1265.97,-161.659C1278.07,-149.856 1292.33,-135.957 1303.3,-125.262"/>
<polygon fill="midnightblue" stroke="midnightblue" points="1263.47,-159.202 1258.75,-168.689 1268.36,-164.214 1263.47,-159.202"/>
</g>
<!-- Node15 -->
<g id="node31" class="node"><title>Node15</title>
<a xlink:href="omega_8h.html" target="_top" xlink:title="src/analysis/physics\l/omega/omega.h">
<polygon fill="white" stroke="black" points="802,-91 802,-125 908,-125 908,-91 802,-91"/>
<text text-anchor="start" x="810" y="-112" font-family="Helvetica,sans-Serif" font-size="10.00">src/analysis/physics</text>
<text text-anchor="middle" x="855" y="-99" font-family="Helvetica,sans-Serif" font-size="10.00">/omega/omega.h</text>
</a>
</g>
<!-- Node1&#45;&gt;Node15 -->
<g id="edge32" class="edge"><title>Node1&#45;&gt;Node15</title>
<path fill="none" stroke="midnightblue" d="M1185.54,-179.627C1121.41,-171.565 1012.98,-155.798 922,-132 914.589,-130.062 906.838,-127.654 899.346,-125.119"/>
<polygon fill="midnightblue" stroke="midnightblue" points="1185.47,-183.145 1195.83,-180.902 1186.34,-176.199 1185.47,-183.145"/>
</g>
<!-- Node16 -->
<g id="node34" class="node"><title>Node16</title>
<a xlink:href="omega_8cc.html" target="_top" xlink:title="src/analysis/physics\l/omega/omega.cc">
<polygon fill="white" stroke="black" points="877,-7 877,-41 983,-41 983,-7 877,-7"/>
<text text-anchor="start" x="885" y="-28" font-family="Helvetica,sans-Serif" font-size="10.00">src/analysis/physics</text>
<text text-anchor="middle" x="930" y="-15" font-family="Helvetica,sans-Serif" font-size="10.00">/omega/omega.cc</text>
</a>
</g>
<!-- Node1&#45;&gt;Node16 -->
<g id="edge38" class="edge"><title>Node1&#45;&gt;Node16</title>
<path fill="none" stroke="midnightblue" d="M1185.82,-182.633C1112.2,-176.992 987.335,-163.04 955,-132 930.286,-108.276 927.854,-65.3297 928.666,-41.3615"/>
<polygon fill="midnightblue" stroke="midnightblue" points="1185.63,-186.128 1195.86,-183.375 1186.14,-179.147 1185.63,-186.128"/>
</g>
<!-- Node17 -->
<g id="node37" class="node"><title>Node17</title>
<a xlink:href="_just_pi0_8cc.html" target="_top" xlink:title="src/analysis/physics\l/pi0/JustPi0.cc">
<polygon fill="white" stroke="black" points="1592,-91 1592,-125 1698,-125 1698,-91 1592,-91"/>
<text text-anchor="start" x="1600" y="-112" font-family="Helvetica,sans-Serif" font-size="10.00">src/analysis/physics</text>
<text text-anchor="middle" x="1645" y="-99" font-family="Helvetica,sans-Serif" font-size="10.00">/pi0/JustPi0.cc</text>
</a>
</g>
<!-- Node1&#45;&gt;Node17 -->
<g id="edge40" class="edge"><title>Node1&#45;&gt;Node17</title>
<path fill="none" stroke="midnightblue" d="M1296.28,-180.927C1364.53,-173.833 1483.76,-158.716 1583,-132 1590.13,-130.08 1597.57,-127.62 1604.72,-125.01"/>
<polygon fill="midnightblue" stroke="midnightblue" points="1295.77,-177.461 1286.18,-181.957 1296.48,-184.425 1295.77,-177.461"/>
</g>
<!-- Node18 -->
<g id="node39" class="node"><title>Node18</title>
<a xlink:href="_kin_fit_pi0_8cc.html" target="_top" xlink:title="src/analysis/physics\l/pi0/KinFitPi0.cc">
<polygon fill="white" stroke="black" points="1716,-91 1716,-125 1822,-125 1822,-91 1716,-91"/>
<text text-anchor="start" x="1724" y="-112" font-family="Helvetica,sans-Serif" font-size="10.00">src/analysis/physics</text>
<text text-anchor="middle" x="1769" y="-99" font-family="Helvetica,sans-Serif" font-size="10.00">/pi0/KinFitPi0.cc</text>
</a>
</g>
<!-- Node1&#45;&gt;Node18 -->
<g id="edge42" class="edge"><title>Node1&#45;&gt;Node18</title>
<path fill="none" stroke="midnightblue" d="M1296.03,-184.136C1384.03,-180.153 1561.36,-168.004 1707,-132 1714.4,-130.172 1722.1,-127.691 1729.46,-125.016"/>
<polygon fill="midnightblue" stroke="midnightblue" points="1295.84,-180.641 1286,-184.572 1296.15,-187.634 1295.84,-180.641"/>
</g>
<!-- Node19 -->
<g id="node41" class="node"><title>Node19</title>
<a xlink:href="_rare_pion_8cc.html" target="_top" xlink:title="src/analysis/physics\l/pi0/RarePion.cc">
<polygon fill="white" stroke="black" points="1840,-91 1840,-125 1946,-125 1946,-91 1840,-91"/>
<text text-anchor="start" x="1848" y="-112" font-family="Helvetica,sans-Serif" font-size="10.00">src/analysis/physics</text>
<text text-anchor="middle" x="1893" y="-99" font-family="Helvetica,sans-Serif" font-size="10.00">/pi0/RarePion.cc</text>
</a>
</g>
<!-- Node1&#45;&gt;Node19 -->
<g id="edge44" class="edge"><title>Node1&#45;&gt;Node19</title>
<path fill="none" stroke="midnightblue" d="M1296.42,-182.899C1423,-175.496 1730.19,-155.637 1831,-132 1838.53,-130.235 1846.36,-127.75 1853.83,-125.042"/>
<polygon fill="midnightblue" stroke="midnightblue" points="1295.96,-179.419 1286.18,-183.493 1296.37,-186.407 1295.96,-179.419"/>
</g>
<!-- Node20 -->
<g id="node43" class="node"><title>Node20</title>
<a xlink:href="_test_physics_8cc.html" target="_top" xlink:title="src/analysis/physics\l/test/TestPhysics.cc">
<polygon fill="white" stroke="black" points="1963.5,-91 1963.5,-125 2070.5,-125 2070.5,-91 1963.5,-91"/>
<text text-anchor="start" x="1971.5" y="-112" font-family="Helvetica,sans-Serif" font-size="10.00">src/analysis/physics</text>
<text text-anchor="middle" x="2017" y="-99" font-family="Helvetica,sans-Serif" font-size="10.00">/test/TestPhysics.cc</text>
</a>
</g>
<!-- Node1&#45;&gt;Node20 -->
<g id="edge46" class="edge"><title>Node1&#45;&gt;Node20</title>
<path fill="none" stroke="midnightblue" d="M1296.11,-183.924C1440.93,-178.134 1829.63,-160.351 1955,-132 1962.66,-130.269 1970.62,-127.764 1978.19,-125.018"/>
<polygon fill="midnightblue" stroke="midnightblue" points="1295.97,-180.427 1286.12,-184.32 1296.25,-187.421 1295.97,-180.427"/>
</g>
<!-- Node21 -->
<g id="node45" class="node"><title>Node21</title>
<a xlink:href="_physics_stats_8cc.html" target="_top" xlink:title="src/analysis/physics\l/tpc/PhysicsStats.cc">
<polygon fill="white" stroke="black" points="2088,-91 2088,-125 2196,-125 2196,-91 2088,-91"/>
<text text-anchor="start" x="2096" y="-112" font-family="Helvetica,sans-Serif" font-size="10.00">src/analysis/physics</text>
<text text-anchor="middle" x="2142" y="-99" font-family="Helvetica,sans-Serif" font-size="10.00">/tpc/PhysicsStats.cc</text>
</a>
</g>
<!-- Node1&#45;&gt;Node21 -->
<g id="edge48" class="edge"><title>Node1&#45;&gt;Node21</title>
<path fill="none" stroke="midnightblue" d="M1296.22,-184.595C1458.01,-180.139 1928.89,-164.65 2079,-132 2086.78,-130.308 2094.87,-127.822 2102.56,-125.083"/>
<polygon fill="midnightblue" stroke="midnightblue" points="1295.92,-181.102 1286.02,-184.873 1296.11,-188.099 1295.92,-181.102"/>
</g>
<!-- Node22 -->
<g id="node47" class="node"><title>Node22</title>
<a xlink:href="_fitter_8cc.html" target="_top" xlink:title="src/analysis/utils\l/Fitter.cc">
<polygon fill="white" stroke="black" points="2214,-91 2214,-125 2304,-125 2304,-91 2214,-91"/>
<text text-anchor="start" x="2222" y="-112" font-family="Helvetica,sans-Serif" font-size="10.00">src/analysis/utils</text>
<text text-anchor="middle" x="2259" y="-99" font-family="Helvetica,sans-Serif" font-size="10.00">/Fitter.cc</text>
</a>
</g>
<!-- Node1&#45;&gt;Node22 -->
<g id="edge50" class="edge"><title>Node1&#45;&gt;Node22</title>
<path fill="none" stroke="midnightblue" d="M1296.28,-185.518C1474.23,-183.556 2030.67,-174.124 2205,-132 2211.88,-130.337 2218.98,-127.827 2225.67,-125.048"/>
<polygon fill="midnightblue" stroke="midnightblue" points="1296.07,-182.02 1286.1,-185.626 1296.14,-189.019 1296.07,-182.02"/>
</g>
<!-- Node23 -->
<g id="node49" class="node"><title>Node23</title>
<a xlink:href="particle__tools_8cc.html" target="_top" xlink:title="src/analysis/utils\l/particle_tools.cc">
<polygon fill="white" stroke="black" points="2321.5,-91 2321.5,-125 2412.5,-125 2412.5,-91 2321.5,-91"/>
<text text-anchor="start" x="2329.5" y="-112" font-family="Helvetica,sans-Serif" font-size="10.00">src/analysis/utils</text>
<text text-anchor="middle" x="2367" y="-99" font-family="Helvetica,sans-Serif" font-size="10.00">/particle_tools.cc</text>
</a>
</g>
<!-- Node1&#45;&gt;Node23 -->
<g id="edge52" class="edge"><title>Node1&#45;&gt;Node23</title>
<path fill="none" stroke="midnightblue" d="M1296.34,-184.401C1501.77,-178.302 2213.9,-155.651 2313,-132 2319.89,-130.357 2326.98,-127.856 2333.68,-125.079"/>
<polygon fill="midnightblue" stroke="midnightblue" points="1295.98,-180.91 1286.09,-184.704 1296.19,-187.907 1295.98,-180.91"/>
</g>
<!-- Node24 -->
<g id="node51" class="node"><title>Node24</title>
<a xlink:href="_test_tree_8cc.html" target="_top" xlink:title="test/base/TestTree.cc">
<polygon fill="white" stroke="black" points="2429.5,-97.5 2429.5,-118.5 2542.5,-118.5 2542.5,-97.5 2429.5,-97.5"/>
<text text-anchor="middle" x="2486" y="-105.5" font-family="Helvetica,sans-Serif" font-size="10.00">test/base/TestTree.cc</text>
</a>
</g>
<!-- Node1&#45;&gt;Node24 -->
<g id="edge54" class="edge"><title>Node1&#45;&gt;Node24</title>
<path fill="none" stroke="midnightblue" d="M1296.22,-185.719C1498.94,-184.339 2201.7,-176.389 2421,-132 2435.27,-129.112 2450.57,-123.593 2462.74,-118.574"/>
<polygon fill="midnightblue" stroke="midnightblue" points="1296.08,-182.22 1286.11,-185.785 1296.13,-189.22 1296.08,-182.22"/>
</g>
<!-- Node8 -->
<g id="node15" class="node"><title>Node8</title>
<a xlink:href="_etap_omega_g__plot_8cc.html" target="_top" xlink:title="progs/EtapOmegaG_plot.cc">
<polygon fill="white" stroke="black" points="-0.5,-13.5 -0.5,-34.5 136.5,-34.5 136.5,-13.5 -0.5,-13.5"/>
<text text-anchor="middle" x="68" y="-21.5" font-family="Helvetica,sans-Serif" font-size="10.00">progs/EtapOmegaG_plot.cc</text>
</a>
</g>
<!-- Node7&#45;&gt;Node8 -->
<g id="edge14" class="edge"><title>Node7&#45;&gt;Node8</title>
<path fill="none" stroke="midnightblue" d="M68,-73.772C68,-59.7488 68,-44.5279 68,-34.66"/>
<polygon fill="midnightblue" stroke="midnightblue" points="64.5001,-74.1536 68,-84.1537 71.5001,-74.1537 64.5001,-74.1536"/>
</g>
<!-- Node7&#45;&gt;Node9 -->
<g id="edge16" class="edge"><title>Node7&#45;&gt;Node9</title>
<path fill="none" stroke="midnightblue" d="M144.085,-83.8075C221.592,-63.4011 300.573,-46.997 354.85,-36.3965"/>
<polygon fill="midnightblue" stroke="midnightblue" points="142.916,-80.4966 134.15,-86.4476 144.714,-87.2618 142.916,-80.4966"/>
</g>
<!-- Node10&#45;&gt;Node11 -->
<g id="edge22" class="edge"><title>Node10&#45;&gt;Node11</title>
<path fill="none" stroke="midnightblue" d="M1498.8,-81.4902C1491.72,-68.2847 1483.38,-52.7033 1477.16,-41.0952"/>
<polygon fill="midnightblue" stroke="midnightblue" points="1495.87,-83.4331 1503.68,-90.5951 1502.04,-80.1275 1495.87,-83.4331"/>
</g>
<!-- Node15&#45;&gt;Node2 -->
<g id="edge34" class="edge"><title>Node15&#45;&gt;Node2</title>
<path fill="none" stroke="midnightblue" d="M832.782,-83.1154C818.499,-67.1194 800.65,-47.1277 789.798,-34.9734"/>
<polygon fill="midnightblue" stroke="midnightblue" points="830.189,-85.4668 839.46,-90.5951 835.411,-80.8047 830.189,-85.4668"/>
</g>
<!-- Node15&#45;&gt;Node16 -->
<g id="edge36" class="edge"><title>Node15&#45;&gt;Node16</title>
<path fill="none" stroke="midnightblue" d="M877.306,-83.0176C889.374,-69.5009 903.97,-53.1541 914.736,-41.0952"/>
<polygon fill="midnightblue" stroke="midnightblue" points="874.589,-80.8047 870.54,-90.5951 879.811,-85.4668 874.589,-80.8047"/>
</g>
</g>
</svg>
