<?xml version="1.0" encoding="UTF-8" standalone="no"?>
<!DOCTYPE svg PUBLIC "-//W3C//DTD SVG 1.1//EN"
 "http://www.w3.org/Graphics/SVG/1.1/DTD/svg11.dtd">
<!-- Generated by graphviz version 2.26.3 (20100126.1600)
 -->
<!-- Title: src/analysis/utils/particle_tools.h Pages: 1 -->
<svg width="1741pt" height="464pt"
 viewBox="0.00 0.00 1740.80 464.00" xmlns="http://www.w3.org/2000/svg" xmlns:xlink="http://www.w3.org/1999/xlink">
<g id="graph1" class="graph" transform="scale(1 1) rotate(0) translate(4 460)">
<title>src/analysis/utils/particle_tools.h</title>
<polygon fill="white" stroke="white" points="-4,5 -4,-460 1737.8,-460 1737.8,5 -4,5"/>
<!-- Node1 -->
<g id="node1" class="node"><title>Node1</title>
<polygon fill="#bfbfbf" stroke="black" points="1114,-421 1114,-455 1204,-455 1204,-421 1114,-421"/>
<text text-anchor="start" x="1122" y="-442" font-family="Helvetica,sans-Serif" font-size="10.00">src/analysis/utils</text>
<text text-anchor="middle" x="1159" y="-429" font-family="Helvetica,sans-Serif" font-size="10.00">/particle_tools.h</text>
</g>
<!-- Node2 -->
<g id="node3" class="node"><title>Node2</title>
<a xlink:href="_t_particle_8h.html" target="_top" xlink:title="tree/TParticle.h">
<polygon fill="white" stroke="black" points="983.5,-362.5 983.5,-383.5 1066.5,-383.5 1066.5,-362.5 983.5,-362.5"/>
<text text-anchor="middle" x="1025" y="-370.5" font-family="Helvetica,sans-Serif" font-size="10.00">tree/TParticle.h</text>
</a>
</g>
<!-- Node1&#45;&gt;Node2 -->
<g id="edge2" class="edge"><title>Node1&#45;&gt;Node2</title>
<path fill="none" stroke="midnightblue" d="M1123.79,-420.922C1102.77,-410.726 1076.32,-397.894 1056.08,-388.074"/>
<polygon fill="midnightblue" stroke="midnightblue" points="1057.5,-384.874 1046.97,-383.658 1054.44,-391.172 1057.5,-384.874"/>
</g>
<!-- Node14 -->
<g id="node29" class="node"><title>Node14</title>
<polygon fill="white" stroke="#bfbfbf" points="1534.5,-116.5 1534.5,-137.5 1575.5,-137.5 1575.5,-116.5 1534.5,-116.5"/>
<text text-anchor="middle" x="1555" y="-124.5" font-family="Helvetica,sans-Serif" font-size="10.00">string</text>
</g>
<!-- Node1&#45;&gt;Node14 -->
<g id="edge144" class="edge"><title>Node1&#45;&gt;Node14</title>
<path fill="none" stroke="midnightblue" d="M1204.36,-433.065C1339.65,-417.742 1731,-368.772 1731,-315 1731,-315 1731,-315 1731,-257 1731,-219.157 1738.2,-201.305 1712,-174 1672.12,-132.438 1640.78,-155.53 1585.16,-139.434"/>
<polygon fill="midnightblue" stroke="midnightblue" points="1586.23,-136.102 1575.64,-136.364 1584.08,-142.764 1586.23,-136.102"/>
</g>
<!-- Node34 -->
<g id="node95" class="node"><title>Node34</title>
<a xlink:href="_lorentz_vec_8h.html" target="_top" xlink:title="base/vec/LorentzVec.h">
<polygon fill="white" stroke="black" points="2.5,-304.5 2.5,-325.5 119.5,-325.5 119.5,-304.5 2.5,-304.5"/>
<text text-anchor="middle" x="61" y="-312.5" font-family="Helvetica,sans-Serif" font-size="10.00">base/vec/LorentzVec.h</text>
</a>
</g>
<!-- Node1&#45;&gt;Node34 -->
<g id="edge142" class="edge"><title>Node1&#45;&gt;Node34</title>
<path fill="none" stroke="midnightblue" d="M1113.91,-433.775C970.404,-420.177 511.431,-375.54 133,-326 131.903,-325.856 130.797,-325.71 129.683,-325.56"/>
<polygon fill="midnightblue" stroke="midnightblue" points="129.904,-322.058 119.519,-324.155 128.946,-328.992 129.904,-322.058"/>
</g>
<!-- Node36 -->
<g id="node103" class="node"><title>Node36</title>
<a xlink:href="_particle_type_tree_8h.html" target="_top" xlink:title="base/ParticleTypeTree.h">
<polygon fill="white" stroke="black" points="1429.5,-304.5 1429.5,-325.5 1552.5,-325.5 1552.5,-304.5 1429.5,-304.5"/>
<text text-anchor="middle" x="1491" y="-312.5" font-family="Helvetica,sans-Serif" font-size="10.00">base/ParticleTypeTree.h</text>
</a>
</g>
<!-- Node1&#45;&gt;Node36 -->
<g id="edge134" class="edge"><title>Node1&#45;&gt;Node36</title>
<path fill="none" stroke="midnightblue" d="M1204.12,-421.284C1269.96,-396.893 1391.19,-351.977 1452.84,-329.137"/>
<polygon fill="midnightblue" stroke="midnightblue" points="1454.4,-332.291 1462.56,-325.535 1451.97,-325.727 1454.4,-332.291"/>
</g>
<!-- Node3 -->
<g id="node5" class="node"><title>Node3</title>
<a xlink:href="_t_candidate_8h.html" target="_top" xlink:title="tree/TCandidate.h">
<polygon fill="white" stroke="black" points="740.5,-304.5 740.5,-325.5 835.5,-325.5 835.5,-304.5 740.5,-304.5"/>
<text text-anchor="middle" x="788" y="-312.5" font-family="Helvetica,sans-Serif" font-size="10.00">tree/TCandidate.h</text>
</a>
</g>
<!-- Node2&#45;&gt;Node3 -->
<g id="edge4" class="edge"><title>Node2&#45;&gt;Node3</title>
<path fill="none" stroke="midnightblue" d="M983.447,-362.831C943.789,-353.125 883.874,-338.463 840.84,-327.931"/>
<polygon fill="midnightblue" stroke="midnightblue" points="841.654,-324.527 831.109,-325.55 839.99,-331.327 841.654,-324.527"/>
</g>
<!-- Node6 -->
<g id="node11" class="node"><title>Node6</title>
<a xlink:href="printable_8h.html" target="_top" xlink:title="base/printable.h">
<polygon fill="white" stroke="black" points="1276,-58.5 1276,-79.5 1362,-79.5 1362,-58.5 1276,-58.5"/>
<text text-anchor="middle" x="1319" y="-66.5" font-family="Helvetica,sans-Serif" font-size="10.00">base/printable.h</text>
</a>
</g>
<!-- Node2&#45;&gt;Node6 -->
<g id="edge76" class="edge"><title>Node2&#45;&gt;Node6</title>
<path fill="none" stroke="midnightblue" d="M1066.89,-372.341C1176.77,-370.135 1471.01,-361.033 1561,-326 1639.86,-295.298 1674.59,-285.911 1712,-210 1743.2,-146.689 1651.42,-136.891 1584,-116 1512.3,-93.7824 1426.23,-80.941 1372.07,-74.4572"/>
<polygon fill="midnightblue" stroke="midnightblue" points="1372.34,-70.9656 1362,-73.282 1371.53,-77.9184 1372.34,-70.9656"/>
</g>
<!-- Node7 -->
<g id="node13" class="node"><title>Node7</title>
<polygon fill="white" stroke="#bfbfbf" points="765,-0.5 765,-21.5 809,-21.5 809,-0.5 765,-0.5"/>
<text text-anchor="middle" x="787" y="-8.5" font-family="Helvetica,sans-Serif" font-size="10.00">vector</text>
</g>
<!-- Node2&#45;&gt;Node7 -->
<g id="edge126" class="edge"><title>Node2&#45;&gt;Node7</title>
<path fill="none" stroke="midnightblue" d="M983.231,-369.743C872.052,-360.462 560.179,-330.427 308,-268 199.607,-241.167 126.868,-244.405 93,-138 62.7486,-42.9556 201.975,-98.6459 471,-58 574.559,-42.3538 697.273,-24.2177 754.54,-15.7776"/>
<polygon fill="midnightblue" stroke="midnightblue" points="755.391,-19.1901 764.774,-14.2699 754.371,-12.2649 755.391,-19.1901"/>
</g>
<!-- Node19 -->
<g id="node42" class="node"><title>Node19</title>
<polygon fill="white" stroke="#bfbfbf" points="732,-116.5 732,-137.5 784,-137.5 784,-116.5 732,-116.5"/>
<text text-anchor="middle" x="758" y="-124.5" font-family="Helvetica,sans-Serif" font-size="10.00">memory</text>
</g>
<!-- Node2&#45;&gt;Node19 -->
<g id="edge132" class="edge"><title>Node2&#45;&gt;Node19</title>
<path fill="none" stroke="midnightblue" d="M1013.53,-362.43C971.934,-324.107 828.783,-192.216 776.937,-144.448"/>
<polygon fill="midnightblue" stroke="midnightblue" points="779.156,-141.733 769.43,-137.531 774.413,-146.881 779.156,-141.733"/>
</g>
<!-- Node24 -->
<g id="node63" class="node"><title>Node24</title>
<a xlink:href="types_8h.html" target="_top" xlink:title="base/types.h">
<polygon fill="white" stroke="black" points="1316.5,-116.5 1316.5,-137.5 1389.5,-137.5 1389.5,-116.5 1316.5,-116.5"/>
<text text-anchor="middle" x="1353" y="-124.5" font-family="Helvetica,sans-Serif" font-size="10.00">base/types.h</text>
</a>
</g>
<!-- Node2&#45;&gt;Node24 -->
<g id="edge78" class="edge"><title>Node2&#45;&gt;Node24</title>
<path fill="none" stroke="midnightblue" d="M1054.11,-362.482C1109.56,-341.217 1231.62,-288.368 1308,-210 1325.69,-191.846 1338.43,-165.336 1345.74,-147.191"/>
<polygon fill="midnightblue" stroke="midnightblue" points="1349.11,-148.191 1349.42,-137.6 1342.57,-145.686 1349.11,-148.191"/>
</g>
<!-- Node25 -->
<g id="node65" class="node"><title>Node25</title>
<a xlink:href="_particle_type_8h.html" target="_top" xlink:title="base/ParticleType.h">
<polygon fill="white" stroke="black" points="1475,-246.5 1475,-267.5 1579,-267.5 1579,-246.5 1475,-246.5"/>
<text text-anchor="middle" x="1527" y="-254.5" font-family="Helvetica,sans-Serif" font-size="10.00">base/ParticleType.h</text>
</a>
</g>
<!-- Node2&#45;&gt;Node25 -->
<g id="edge80" class="edge"><title>Node2&#45;&gt;Node25</title>
<path fill="none" stroke="midnightblue" d="M1066.7,-369.577C1127.69,-363.948 1244.44,-350.805 1341,-326 1396.12,-311.841 1457.57,-287.214 1494.22,-271.531"/>
<polygon fill="midnightblue" stroke="midnightblue" points="1495.64,-274.732 1503.43,-267.555 1492.86,-268.306 1495.64,-274.732"/>
</g>
<!-- Node30 -->
<g id="node84" class="node"><title>Node30</title>
<a xlink:href="_tree_8h.html" target="_top" xlink:title="base/Tree.h">
<polygon fill="white" stroke="black" points="1050,-246.5 1050,-267.5 1118,-267.5 1118,-246.5 1050,-246.5"/>
<text text-anchor="middle" x="1084" y="-254.5" font-family="Helvetica,sans-Serif" font-size="10.00">base/Tree.h</text>
</a>
</g>
<!-- Node2&#45;&gt;Node30 -->
<g id="edge108" class="edge"><title>Node2&#45;&gt;Node30</title>
<path fill="none" stroke="midnightblue" d="M1035.01,-362.138C1042.95,-353.047 1053.87,-339.438 1061,-326 1069.2,-310.533 1075.27,-291.579 1079.1,-277.452"/>
<polygon fill="midnightblue" stroke="midnightblue" points="1082.5,-278.285 1081.6,-267.729 1075.72,-276.544 1082.5,-278.285"/>
</g>
<!-- Node32 -->
<g id="node89" class="node"><title>Node32</title>
<polygon fill="white" stroke="#bfbfbf" points="952.5,-181.5 952.5,-202.5 981.5,-202.5 981.5,-181.5 952.5,-181.5"/>
<text text-anchor="middle" x="967" y="-189.5" font-family="Helvetica,sans-Serif" font-size="10.00">list</text>
</g>
<!-- Node2&#45;&gt;Node32 -->
<g id="edge128" class="edge"><title>Node2&#45;&gt;Node32</title>
<path fill="none" stroke="midnightblue" d="M1014.41,-362.418C1006.13,-353.489 995.038,-339.962 989,-326 972.705,-288.322 968.399,-239.906 967.311,-212.79"/>
<polygon fill="midnightblue" stroke="midnightblue" points="970.803,-212.462 967.017,-202.567 963.806,-212.664 970.803,-212.462"/>
</g>
<!-- Node2&#45;&gt;Node34 -->
<g id="edge122" class="edge"><title>Node2&#45;&gt;Node34</title>
<path fill="none" stroke="midnightblue" d="M983.088,-372.264C855.276,-369.705 459.277,-359.437 133,-326 132.064,-325.904 131.122,-325.805 130.175,-325.702"/>
<polygon fill="midnightblue" stroke="midnightblue" points="130.221,-322.183 119.878,-324.481 129.397,-329.134 130.221,-322.183"/>
</g>
<!-- Node35 -->
<g id="node100" class="node"><title>Node35</title>
<polygon fill="white" stroke="#bfbfbf" points="998,-304.5 998,-325.5 1052,-325.5 1052,-304.5 998,-304.5"/>
<text text-anchor="middle" x="1025" y="-312.5" font-family="Helvetica,sans-Serif" font-size="10.00">iostream</text>
</g>
<!-- Node2&#45;&gt;Node35 -->
<g id="edge130" class="edge"><title>Node2&#45;&gt;Node35</title>
<path fill="none" stroke="midnightblue" d="M1025,-362.362C1025,-354.922 1025,-344.743 1025,-335.728"/>
<polygon fill="midnightblue" stroke="midnightblue" points="1028.5,-335.571 1025,-325.571 1021.5,-335.571 1028.5,-335.571"/>
</g>
<!-- Node4 -->
<g id="node7" class="node"><title>Node4</title>
<a xlink:href="_t_cluster_8h.html" target="_top" xlink:title="TCluster.h">
<polygon fill="white" stroke="black" points="433,-246.5 433,-267.5 495,-267.5 495,-246.5 433,-246.5"/>
<text text-anchor="middle" x="464" y="-254.5" font-family="Helvetica,sans-Serif" font-size="10.00">TCluster.h</text>
</a>
</g>
<!-- Node3&#45;&gt;Node4 -->
<g id="edge6" class="edge"><title>Node3&#45;&gt;Node4</title>
<path fill="none" stroke="midnightblue" d="M740.193,-306.442C676.628,-295.063 565.338,-275.141 505.263,-264.387"/>
<polygon fill="midnightblue" stroke="midnightblue" points="505.83,-260.933 495.37,-262.616 504.597,-267.823 505.83,-260.933"/>
</g>
<!-- Node5 -->
<g id="node9" class="node"><title>Node5</title>
<a xlink:href="_detector__t_8h.html" target="_top" xlink:title="base/Detector_t.h">
<polygon fill="white" stroke="black" points="152.5,-181.5 152.5,-202.5 247.5,-202.5 247.5,-181.5 152.5,-181.5"/>
<text text-anchor="middle" x="200" y="-189.5" font-family="Helvetica,sans-Serif" font-size="10.00">base/Detector_t.h</text>
</a>
</g>
<!-- Node3&#45;&gt;Node5 -->
<g id="edge64" class="edge"><title>Node3&#45;&gt;Node5</title>
<path fill="none" stroke="midnightblue" d="M740.175,-311.484C645.797,-304.241 438.781,-286.754 370,-268 317.482,-253.681 260.506,-225.319 227.656,-207.583"/>
<polygon fill="midnightblue" stroke="midnightblue" points="229.114,-204.391 218.66,-202.664 225.756,-210.533 229.114,-204.391"/>
</g>
<!-- Node3&#45;&gt;Node7 -->
<g id="edge66" class="edge"><title>Node3&#45;&gt;Node7</title>
<path fill="none" stroke="midnightblue" d="M795.963,-304.289C817.05,-274.585 871.374,-188.571 851,-116 841.651,-82.6979 818.499,-49.4903 802.762,-29.5973"/>
<polygon fill="midnightblue" stroke="midnightblue" points="805.354,-27.2369 796.331,-21.6834 799.921,-31.6514 805.354,-27.2369"/>
</g>
<!-- Node3&#45;&gt;Node19 -->
<g id="edge72" class="edge"><title>Node3&#45;&gt;Node19</title>
<path fill="none" stroke="midnightblue" d="M790.656,-304.4C796.159,-280.446 807.087,-220.596 792,-174 788.638,-163.618 782.031,-153.604 775.528,-145.507"/>
<polygon fill="midnightblue" stroke="midnightblue" points="778.101,-143.131 768.929,-137.827 772.792,-147.693 778.101,-143.131"/>
</g>
<!-- Node21 -->
<g id="node46" class="node"><title>Node21</title>
<polygon fill="white" stroke="#bfbfbf" points="949,-116.5 949,-137.5 1005,-137.5 1005,-116.5 949,-116.5"/>
<text text-anchor="middle" x="977" y="-124.5" font-family="Helvetica,sans-Serif" font-size="10.00">algorithm</text>
</g>
<!-- Node3&#45;&gt;Node21 -->
<g id="edge74" class="edge"><title>Node3&#45;&gt;Node21</title>
<path fill="none" stroke="midnightblue" d="M808.67,-304.491C824.481,-295.896 846.328,-282.781 863,-268 885.488,-248.063 937.848,-179.429 963.01,-145.83"/>
<polygon fill="midnightblue" stroke="midnightblue" points="965.885,-147.829 969.063,-137.722 960.276,-143.641 965.885,-147.829"/>
</g>
<!-- Node22 -->
<g id="node51" class="node"><title>Node22</title>
<polygon fill="white" stroke="#bfbfbf" points="733,-181.5 733,-202.5 783,-202.5 783,-181.5 733,-181.5"/>
<text text-anchor="middle" x="758" y="-189.5" font-family="Helvetica,sans-Serif" font-size="10.00">iomanip</text>
</g>
<!-- Node3&#45;&gt;Node22 -->
<g id="edge68" class="edge"><title>Node3&#45;&gt;Node22</title>
<path fill="none" stroke="midnightblue" d="M785.338,-304.085C780.344,-283.609 769.496,-239.133 763.068,-212.778"/>
<polygon fill="midnightblue" stroke="midnightblue" points="766.383,-211.601 760.613,-202.715 759.583,-213.26 766.383,-211.601"/>
</g>
<!-- Node23 -->
<g id="node53" class="node"><title>Node23</title>
<polygon fill="white" stroke="#bfbfbf" points="265,-181.5 265,-202.5 317,-202.5 317,-181.5 265,-181.5"/>
<text text-anchor="middle" x="291" y="-189.5" font-family="Helvetica,sans-Serif" font-size="10.00">sstream</text>
</g>
<!-- Node3&#45;&gt;Node23 -->
<g id="edge70" class="edge"><title>Node3&#45;&gt;Node23</title>
<path fill="none" stroke="midnightblue" d="M740.345,-311.153C655.473,-303.919 481.635,-287.274 424,-268 382.262,-254.042 338.907,-226.371 313.468,-208.549"/>
<polygon fill="midnightblue" stroke="midnightblue" points="315.425,-205.645 305.249,-202.694 311.364,-211.347 315.425,-205.645"/>
</g>
<!-- Node4&#45;&gt;Node5 -->
<g id="edge8" class="edge"><title>Node4&#45;&gt;Node5</title>
<path fill="none" stroke="midnightblue" d="M432.776,-250.847C391.9,-242.585 318.141,-226.972 256,-210 251.077,-208.656 245.943,-207.15 240.867,-205.598"/>
<polygon fill="midnightblue" stroke="midnightblue" points="241.837,-202.234 231.248,-202.585 239.745,-208.914 241.837,-202.234"/>
</g>
<!-- Node4&#45;&gt;Node7 -->
<g id="edge54" class="edge"><title>Node4&#45;&gt;Node7</title>
<path fill="none" stroke="midnightblue" d="M456.438,-246.296C446.105,-230.268 429.944,-199.219 440,-174 453.158,-141.002 465.257,-135.426 495,-116 580.171,-60.3731 698.566,-29.6806 754.832,-17.4039"/>
<polygon fill="midnightblue" stroke="midnightblue" points="755.859,-20.7637 764.911,-15.2579 754.401,-13.9171 755.859,-20.7637"/>
</g>
<!-- Node9 -->
<g id="node17" class="node"><title>Node9</title>
<a xlink:href="vec3_8h.html" target="_top" xlink:title="base/vec/vec3.h">
<polygon fill="white" stroke="black" points="101.5,-116.5 101.5,-137.5 190.5,-137.5 190.5,-116.5 101.5,-116.5"/>
<text text-anchor="middle" x="146" y="-124.5" font-family="Helvetica,sans-Serif" font-size="10.00">base/vec/vec3.h</text>
</a>
</g>
<!-- Node4&#45;&gt;Node9 -->
<g id="edge52" class="edge"><title>Node4&#45;&gt;Node9</title>
<path fill="none" stroke="midnightblue" d="M438.51,-246.379C418.854,-237.724 391.344,-224.583 369,-210 348.127,-196.378 348.151,-185.426 326,-174 304.251,-162.782 245.178,-148.376 200.59,-138.487"/>
<polygon fill="midnightblue" stroke="midnightblue" points="201.262,-135.051 190.744,-136.324 199.76,-141.888 201.262,-135.051"/>
</g>
<!-- Node11 -->
<g id="node22" class="node"><title>Node11</title>
<polygon fill="white" stroke="#bfbfbf" points="276,-0.5 276,-21.5 320,-21.5 320,-0.5 276,-0.5"/>
<text text-anchor="middle" x="298" y="-8.5" font-family="Helvetica,sans-Serif" font-size="10.00">cmath</text>
</g>
<!-- Node4&#45;&gt;Node11 -->
<g id="edge56" class="edge"><title>Node4&#45;&gt;Node11</title>
<path fill="none" stroke="midnightblue" d="M448.084,-246.416C435.798,-237.686 418.937,-224.428 407,-210 358.8,-151.74 321.6,-68.9659 306.003,-31.195"/>
<polygon fill="midnightblue" stroke="midnightblue" points="309.19,-29.7416 302.186,-21.7929 302.705,-32.375 309.19,-29.7416"/>
</g>
<!-- Node16 -->
<g id="node34" class="node"><title>Node16</title>
<a xlink:href="math_8h.html" target="_top" xlink:title="base/std_ext/math.h">
<polygon fill="white" stroke="black" points="449,-181.5 449,-202.5 555,-202.5 555,-181.5 449,-181.5"/>
<text text-anchor="middle" x="502" y="-189.5" font-family="Helvetica,sans-Serif" font-size="10.00">base/std_ext/math.h</text>
</a>
</g>
<!-- Node4&#45;&gt;Node16 -->
<g id="edge36" class="edge"><title>Node4&#45;&gt;Node16</title>
<path fill="none" stroke="midnightblue" d="M470.275,-246.267C475.808,-236.801 484.007,-222.777 490.684,-211.357"/>
<polygon fill="midnightblue" stroke="midnightblue" points="493.816,-212.933 495.842,-202.534 487.773,-209.4 493.816,-212.933"/>
</g>
<!-- Node18 -->
<g id="node39" class="node"><title>Node18</title>
<a xlink:href="shared__ptr__container_8h.html" target="_top" xlink:title="base/std_ext/shared\l_ptr_container.h">
<polygon fill="white" stroke="black" points="572.5,-175 572.5,-209 677.5,-209 677.5,-175 572.5,-175"/>
<text text-anchor="start" x="580.5" y="-196" font-family="Helvetica,sans-Serif" font-size="10.00">base/std_ext/shared</text>
<text text-anchor="middle" x="625" y="-183" font-family="Helvetica,sans-Serif" font-size="10.00">_ptr_container.h</text>
</a>
</g>
<!-- Node4&#45;&gt;Node18 -->
<g id="edge42" class="edge"><title>Node4&#45;&gt;Node18</title>
<path fill="none" stroke="midnightblue" d="M490.226,-246.412C512.623,-237.37 545.513,-224.091 573.194,-212.915"/>
<polygon fill="midnightblue" stroke="midnightblue" points="574.78,-216.05 582.743,-209.06 572.16,-209.559 574.78,-216.05"/>
</g>
<!-- Node4&#45;&gt;Node19 -->
<g id="edge62" class="edge"><title>Node4&#45;&gt;Node19</title>
<path fill="none" stroke="midnightblue" d="M495.068,-252.911C548.207,-245.51 653.924,-228.899 686,-210 700.012,-201.744 727.299,-167.666 743.962,-145.825"/>
<polygon fill="midnightblue" stroke="midnightblue" points="746.945,-147.683 750.181,-137.594 741.36,-143.462 746.945,-147.683"/>
</g>
<!-- Node4&#45;&gt;Node22 -->
<g id="edge58" class="edge"><title>Node4&#45;&gt;Node22</title>
<path fill="none" stroke="midnightblue" d="M495.225,-253.794C543.914,-248.23 640.48,-234.922 719,-210 722.127,-209.007 725.332,-207.824 728.495,-206.545"/>
<polygon fill="midnightblue" stroke="midnightblue" points="729.969,-209.721 737.738,-202.516 727.173,-203.304 729.969,-209.721"/>
</g>
<!-- Node4&#45;&gt;Node23 -->
<g id="edge60" class="edge"><title>Node4&#45;&gt;Node23</title>
<path fill="none" stroke="midnightblue" d="M432.823,-246.8C405.695,-237.731 365.438,-223.806 331,-210 328.349,-208.937 325.617,-207.8 322.884,-206.632"/>
<polygon fill="midnightblue" stroke="midnightblue" points="324.269,-203.418 313.704,-202.611 321.46,-209.829 324.269,-203.418"/>
</g>
<!-- Node5&#45;&gt;Node6 -->
<g id="edge10" class="edge"><title>Node5&#45;&gt;Node6</title>
<path fill="none" stroke="midnightblue" d="M231.251,-181.425C239.276,-178.856 247.924,-176.213 256,-174 325.46,-154.962 344.122,-155.443 414,-138 450.194,-128.966 458.179,-121.983 495,-116 644.23,-91.7501 1107.35,-75.5428 1265.46,-70.5967"/>
<polygon fill="midnightblue" stroke="midnightblue" points="1265.98,-74.0823 1275.87,-70.2737 1265.76,-67.0857 1265.98,-74.0823"/>
</g>
<!-- Node5&#45;&gt;Node7 -->
<g id="edge34" class="edge"><title>Node5&#45;&gt;Node7</title>
<path fill="none" stroke="midnightblue" d="M228.579,-181.478C257.511,-170.763 303.494,-153.56 343,-138 430.16,-103.672 448.18,-84.6019 538,-58 614.274,-35.4099 707.028,-21.2833 754.927,-14.9345"/>
<polygon fill="midnightblue" stroke="midnightblue" points="755.532,-18.3854 764.998,-13.6272 754.631,-11.4436 755.532,-18.3854"/>
</g>
<!-- Node5&#45;&gt;Node9 -->
<g id="edge16" class="edge"><title>Node5&#45;&gt;Node9</title>
<path fill="none" stroke="midnightblue" d="M191.083,-181.267C182.984,-171.517 170.866,-156.932 161.233,-145.336"/>
<polygon fill="midnightblue" stroke="midnightblue" points="163.833,-142.989 154.751,-137.534 158.449,-147.462 163.833,-142.989"/>
</g>
<!-- Node12 -->
<g id="node25" class="node"><title>Node12</title>
<polygon fill="white" stroke="#bfbfbf" points="208,-116.5 208,-137.5 254,-137.5 254,-116.5 208,-116.5"/>
<text text-anchor="middle" x="231" y="-124.5" font-family="Helvetica,sans-Serif" font-size="10.00">cstdint</text>
</g>
<!-- Node5&#45;&gt;Node12 -->
<g id="edge26" class="edge"><title>Node5&#45;&gt;Node12</title>
<path fill="none" stroke="midnightblue" d="M205.119,-181.267C209.588,-171.896 216.188,-158.057 221.604,-146.7"/>
<polygon fill="midnightblue" stroke="midnightblue" points="224.831,-148.066 225.976,-137.534 218.512,-145.053 224.831,-148.066"/>
</g>
<!-- Node13 -->
<g id="node27" class="node"><title>Node13</title>
<polygon fill="white" stroke="#bfbfbf" points="503.5,-116.5 503.5,-137.5 562.5,-137.5 562.5,-116.5 503.5,-116.5"/>
<text text-anchor="middle" x="533" y="-124.5" font-family="Helvetica,sans-Serif" font-size="10.00">stdexcept</text>
</g>
<!-- Node5&#45;&gt;Node13 -->
<g id="edge28" class="edge"><title>Node5&#45;&gt;Node13</title>
<path fill="none" stroke="midnightblue" d="M230,-181.486C238.349,-178.799 247.468,-176.084 256,-174 300.304,-163.18 427.681,-143.09 493.13,-133.045"/>
<polygon fill="midnightblue" stroke="midnightblue" points="493.725,-136.495 503.08,-131.522 492.666,-129.575 493.725,-136.495"/>
</g>
<!-- Node5&#45;&gt;Node14 -->
<g id="edge30" class="edge"><title>Node5&#45;&gt;Node14</title>
<path fill="none" stroke="midnightblue" d="M227.529,-181.454C236.476,-178.487 246.54,-175.628 256,-174 520.674,-128.459 1196.19,-158.135 1464,-138 1484.11,-136.488 1506.6,-133.778 1524.2,-131.427"/>
<polygon fill="midnightblue" stroke="midnightblue" points="1525.02,-134.847 1534.45,-130.023 1524.07,-127.911 1525.02,-134.847"/>
</g>
<!-- Node15 -->
<g id="node31" class="node"><title>Node15</title>
<polygon fill="white" stroke="#bfbfbf" points="272,-116.5 272,-137.5 334,-137.5 334,-116.5 272,-116.5"/>
<text text-anchor="middle" x="303" y="-124.5" font-family="Helvetica,sans-Serif" font-size="10.00">type_traits</text>
</g>
<!-- Node5&#45;&gt;Node15 -->
<g id="edge32" class="edge"><title>Node5&#45;&gt;Node15</title>
<path fill="none" stroke="midnightblue" d="M217.008,-181.267C233.507,-170.855 258.747,-154.927 277.62,-143.016"/>
<polygon fill="midnightblue" stroke="midnightblue" points="279.719,-145.83 286.308,-137.534 275.983,-139.911 279.719,-145.83"/>
</g>
<!-- Node6&#45;&gt;Node7 -->
<g id="edge12" class="edge"><title>Node6&#45;&gt;Node7</title>
<path fill="none" stroke="midnightblue" d="M1275.91,-64.3027C1172.29,-53.0053 910.938,-24.512 819.331,-14.5248"/>
<polygon fill="midnightblue" stroke="midnightblue" points="819.588,-11.0322 809.268,-13.4277 818.83,-17.991 819.588,-11.0322"/>
</g>
<!-- Node8 -->
<g id="node15" class="node"><title>Node8</title>
<polygon fill="white" stroke="#bfbfbf" points="1454,-0.5 1454,-21.5 1506,-21.5 1506,-0.5 1454,-0.5"/>
<text text-anchor="middle" x="1480" y="-8.5" font-family="Helvetica,sans-Serif" font-size="10.00">ostream</text>
</g>
<!-- Node6&#45;&gt;Node8 -->
<g id="edge14" class="edge"><title>Node6&#45;&gt;Node8</title>
<path fill="none" stroke="midnightblue" d="M1348.16,-58.4966C1375.15,-48.7725 1415.36,-34.2864 1444.27,-23.8707"/>
<polygon fill="midnightblue" stroke="midnightblue" points="1445.77,-27.053 1453.99,-20.3708 1443.39,-20.4673 1445.77,-27.053"/>
</g>
<!-- Node9&#45;&gt;Node6 -->
<g id="edge18" class="edge"><title>Node9&#45;&gt;Node6</title>
<path fill="none" stroke="midnightblue" d="M190.734,-117.182C193.523,-116.736 196.295,-116.335 199,-116 409.273,-89.9431 1072.12,-74.2098 1265.53,-70.0894"/>
<polygon fill="midnightblue" stroke="midnightblue" points="1265.8,-73.5846 1275.72,-69.8738 1265.65,-66.5861 1265.8,-73.5846"/>
</g>
<!-- Node10 -->
<g id="node20" class="node"><title>Node10</title>
<a xlink:href="vec2_8h.html" target="_top" xlink:title="vec2.h">
<polygon fill="white" stroke="black" points="0,-58.5 0,-79.5 46,-79.5 46,-58.5 0,-58.5"/>
<text text-anchor="middle" x="23" y="-66.5" font-family="Helvetica,sans-Serif" font-size="10.00">vec2.h</text>
</a>
</g>
<!-- Node9&#45;&gt;Node10 -->
<g id="edge20" class="edge"><title>Node9&#45;&gt;Node10</title>
<path fill="none" stroke="midnightblue" d="M123.726,-116.497C104.428,-107.397 76.2871,-94.1273 54.652,-83.9253"/>
<polygon fill="midnightblue" stroke="midnightblue" points="56.062,-80.7206 45.5243,-79.6212 53.0764,-87.052 56.062,-80.7206"/>
</g>
<!-- Node9&#45;&gt;Node11 -->
<g id="edge24" class="edge"><title>Node9&#45;&gt;Node11</title>
<path fill="none" stroke="midnightblue" d="M160.027,-116.295C186.496,-96.0955 243.993,-52.2158 275.772,-27.9632"/>
<polygon fill="midnightblue" stroke="midnightblue" points="278.18,-30.5283 284.007,-21.6792 273.934,-24.9636 278.18,-30.5283"/>
</g>
<!-- Node10&#45;&gt;Node11 -->
<g id="edge22" class="edge"><title>Node10&#45;&gt;Node11</title>
<path fill="none" stroke="midnightblue" d="M46.001,-61.7977C50.6155,-60.4558 55.4456,-59.1241 60,-58 133.026,-39.9766 219.99,-24.2267 265.906,-16.3496"/>
<polygon fill="midnightblue" stroke="midnightblue" points="266.592,-19.7833 275.863,-14.6548 265.418,-12.8826 266.592,-19.7833"/>
</g>
<!-- Node16&#45;&gt;Node11 -->
<g id="edge38" class="edge"><title>Node16&#45;&gt;Node11</title>
<path fill="none" stroke="midnightblue" d="M524.106,-181.47C550.37,-167.485 588.555,-141.561 571,-116 542.62,-74.6773 395.632,-34.6388 329.867,-18.4829"/>
<polygon fill="midnightblue" stroke="midnightblue" points="330.584,-15.0553 320.04,-16.0985 328.933,-21.8579 330.584,-15.0553"/>
</g>
<!-- Node17 -->
<g id="node37" class="node"><title>Node17</title>
<polygon fill="white" stroke="#bfbfbf" points="802,-116.5 802,-137.5 842,-137.5 842,-116.5 802,-116.5"/>
<text text-anchor="middle" x="822" y="-124.5" font-family="Helvetica,sans-Serif" font-size="10.00">limits</text>
</g>
<!-- Node16&#45;&gt;Node17 -->
<g id="edge40" class="edge"><title>Node16&#45;&gt;Node17</title>
<path fill="none" stroke="midnightblue" d="M535.586,-181.409C544.742,-178.753 554.701,-176.072 564,-174 661.419,-152.293 691.541,-163.644 791.952,-137.85"/>
<polygon fill="midnightblue" stroke="midnightblue" points="793.112,-141.164 801.893,-135.236 791.332,-134.394 793.112,-141.164"/>
</g>
<!-- Node18&#45;&gt;Node7 -->
<g id="edge44" class="edge"><title>Node18&#45;&gt;Node7</title>
<path fill="none" stroke="midnightblue" d="M645.758,-174.776C657.677,-164.535 672.677,-151.035 685,-138 719.235,-101.786 754.671,-55.25 773.431,-29.7627"/>
<polygon fill="midnightblue" stroke="midnightblue" points="776.266,-31.8153 779.342,-21.6768 770.615,-27.6841 776.266,-31.8153"/>
</g>
<!-- Node18&#45;&gt;Node19 -->
<g id="edge46" class="edge"><title>Node18&#45;&gt;Node19</title>
<path fill="none" stroke="midnightblue" d="M659.944,-174.922C680.807,-164.726 707.064,-151.894 727.155,-142.074"/>
<polygon fill="midnightblue" stroke="midnightblue" points="728.744,-145.194 736.191,-137.658 725.67,-138.905 728.744,-145.194"/>
</g>
<!-- Node20 -->
<g id="node44" class="node"><title>Node20</title>
<polygon fill="white" stroke="#bfbfbf" points="617.5,-116.5 617.5,-137.5 676.5,-137.5 676.5,-116.5 617.5,-116.5"/>
<text text-anchor="middle" x="647" y="-124.5" font-family="Helvetica,sans-Serif" font-size="10.00">functional</text>
</g>
<!-- Node18&#45;&gt;Node20 -->
<g id="edge48" class="edge"><title>Node18&#45;&gt;Node20</title>
<path fill="none" stroke="midnightblue" d="M630.78,-174.922C633.635,-166.487 637.101,-156.248 640.094,-147.403"/>
<polygon fill="midnightblue" stroke="midnightblue" points="643.436,-148.446 643.327,-137.852 636.806,-146.202 643.436,-148.446"/>
</g>
<!-- Node18&#45;&gt;Node21 -->
<g id="edge50" class="edge"><title>Node18&#45;&gt;Node21</title>
<path fill="none" stroke="midnightblue" d="M677.698,-182.269C749.278,-169.051 875.541,-145.735 938.73,-134.067"/>
<polygon fill="midnightblue" stroke="midnightblue" points="939.478,-137.488 948.676,-132.23 938.207,-130.604 939.478,-137.488"/>
</g>
<!-- Node25&#45;&gt;Node7 -->
<g id="edge106" class="edge"><title>Node25&#45;&gt;Node7</title>
<path fill="none" stroke="midnightblue" d="M1537.86,-246.483C1562.17,-221.668 1616.38,-158.38 1584,-116 1524.43,-38.0403 1467.65,-74.8969 1371,-58 1163,-21.6353 908.318,-13.3416 819.437,-11.5053"/>
<polygon fill="midnightblue" stroke="midnightblue" points="819.262,-8.00135 809.196,-11.3076 819.126,-15 819.262,-8.00135"/>
</g>
<!-- Node25&#45;&gt;Node8 -->
<g id="edge100" class="edge"><title>Node25&#45;&gt;Node8</title>
<path fill="none" stroke="midnightblue" d="M1567.4,-246.439C1585.92,-239.357 1606.13,-227.94 1617,-210 1652.01,-152.223 1656.26,-112.976 1617,-58 1605.04,-41.2595 1552.41,-26.7188 1515.98,-18.4043"/>
<polygon fill="midnightblue" stroke="midnightblue" points="1516.7,-14.9794 1506.18,-16.2276 1515.18,-21.8129 1516.7,-14.9794"/>
</g>
<!-- Node25&#45;&gt;Node14 -->
<g id="edge98" class="edge"><title>Node25&#45;&gt;Node14</title>
<path fill="none" stroke="midnightblue" d="M1530.6,-246.273C1533.68,-236.811 1538.07,-222.606 1541,-210 1545.86,-189.067 1549.76,-164.794 1552.19,-147.926"/>
<polygon fill="midnightblue" stroke="midnightblue" points="1555.72,-147.952 1553.64,-137.564 1548.79,-146.984 1555.72,-147.952"/>
</g>
<!-- Node25&#45;&gt;Node24 -->
<g id="edge82" class="edge"><title>Node25&#45;&gt;Node24</title>
<path fill="none" stroke="midnightblue" d="M1527.72,-246.286C1528.29,-228.81 1526.76,-194.105 1508,-174 1500.37,-165.821 1442.35,-149.654 1399.53,-138.587"/>
<polygon fill="midnightblue" stroke="midnightblue" points="1400.38,-135.194 1389.83,-136.1 1398.64,-141.974 1400.38,-135.194"/>
</g>
<!-- Node26 -->
<g id="node68" class="node"><title>Node26</title>
<a xlink:href="interval_8h.html" target="_top" xlink:title="base/interval.h">
<polygon fill="white" stroke="black" points="1419,-181.5 1419,-202.5 1499,-202.5 1499,-181.5 1419,-181.5"/>
<text text-anchor="middle" x="1459" y="-189.5" font-family="Helvetica,sans-Serif" font-size="10.00">base/interval.h</text>
</a>
</g>
<!-- Node25&#45;&gt;Node26 -->
<g id="edge84" class="edge"><title>Node25&#45;&gt;Node26</title>
<path fill="none" stroke="midnightblue" d="M1515.77,-246.267C1505.37,-236.328 1489.72,-221.363 1477.48,-209.664"/>
<polygon fill="midnightblue" stroke="midnightblue" points="1479.67,-206.913 1470.02,-202.534 1474.83,-211.974 1479.67,-206.913"/>
</g>
<!-- Node28 -->
<g id="node79" class="node"><title>Node28</title>
<polygon fill="white" stroke="#bfbfbf" points="1668.5,-181.5 1668.5,-202.5 1703.5,-202.5 1703.5,-181.5 1668.5,-181.5"/>
<text text-anchor="middle" x="1686" y="-189.5" font-family="Helvetica,sans-Serif" font-size="10.00">map</text>
</g>
<!-- Node25&#45;&gt;Node28 -->
<g id="edge102" class="edge"><title>Node25&#45;&gt;Node28</title>
<path fill="none" stroke="midnightblue" d="M1560.53,-246.472C1586.74,-237.821 1623.82,-224.639 1655,-210 1656.59,-209.254 1658.2,-208.455 1659.82,-207.622"/>
<polygon fill="midnightblue" stroke="midnightblue" points="1661.82,-210.515 1668.91,-202.637 1658.46,-204.377 1661.82,-210.515"/>
</g>
<!-- Node29 -->
<g id="node81" class="node"><title>Node29</title>
<polygon fill="white" stroke="#bfbfbf" points="1354.5,-181.5 1354.5,-202.5 1401.5,-202.5 1401.5,-181.5 1354.5,-181.5"/>
<text text-anchor="middle" x="1378" y="-189.5" font-family="Helvetica,sans-Serif" font-size="10.00">iterator</text>
</g>
<!-- Node25&#45;&gt;Node29 -->
<g id="edge104" class="edge"><title>Node25&#45;&gt;Node29</title>
<path fill="none" stroke="midnightblue" d="M1497.7,-246.443C1473.75,-237.529 1439.21,-224.01 1410,-210 1408.23,-209.152 1406.43,-208.249 1404.62,-207.315"/>
<polygon fill="midnightblue" stroke="midnightblue" points="1406.18,-204.181 1395.72,-202.51 1402.86,-210.341 1406.18,-204.181"/>
</g>
<!-- Node26&#45;&gt;Node6 -->
<g id="edge86" class="edge"><title>Node26&#45;&gt;Node6</title>
<path fill="none" stroke="midnightblue" d="M1463.56,-181.499C1469.65,-165.666 1478.15,-135.465 1464,-116 1452.87,-100.691 1408.9,-87.8154 1372.27,-79.4339"/>
<polygon fill="midnightblue" stroke="midnightblue" points="1372.69,-75.9414 1362.17,-77.1908 1371.17,-82.775 1372.69,-75.9414"/>
</g>
<!-- Node26&#45;&gt;Node13 -->
<g id="edge92" class="edge"><title>Node26&#45;&gt;Node13</title>
<path fill="none" stroke="midnightblue" d="M1434.75,-181.422C1426.99,-178.492 1418.26,-175.662 1410,-174 1060.64,-103.734 963.775,-171.564 609,-138 597.092,-136.873 584.196,-135.185 572.467,-133.468"/>
<polygon fill="midnightblue" stroke="midnightblue" points="572.925,-129.997 562.514,-131.964 571.879,-136.919 572.925,-129.997"/>
</g>
<!-- Node26&#45;&gt;Node17 -->
<g id="edge94" class="edge"><title>Node26&#45;&gt;Node17</title>
<path fill="none" stroke="midnightblue" d="M1434.47,-181.486C1426.77,-178.596 1418.15,-175.773 1410,-174 1205.29,-129.458 1148.75,-155.723 940,-138 910.132,-135.464 876.043,-132.252 852.211,-129.955"/>
<polygon fill="midnightblue" stroke="midnightblue" points="852.325,-126.449 842.035,-128.969 851.651,-133.417 852.325,-126.449"/>
</g>
<!-- Node26&#45;&gt;Node21 -->
<g id="edge90" class="edge"><title>Node26&#45;&gt;Node21</title>
<path fill="none" stroke="midnightblue" d="M1433.93,-181.456C1426.36,-178.637 1417.94,-175.86 1410,-174 1266.73,-140.442 1091.08,-130.745 1015.06,-128.023"/>
<polygon fill="midnightblue" stroke="midnightblue" points="1015.12,-124.523 1005,-127.683 1014.88,-131.519 1015.12,-124.523"/>
</g>
<!-- Node26&#45;&gt;Node24 -->
<g id="edge88" class="edge"><title>Node26&#45;&gt;Node24</title>
<path fill="none" stroke="midnightblue" d="M1441.5,-181.267C1424.44,-170.807 1398.31,-154.782 1378.85,-142.854"/>
<polygon fill="midnightblue" stroke="midnightblue" points="1380.53,-139.778 1370.18,-137.534 1376.87,-145.745 1380.53,-139.778"/>
</g>
<!-- Node27 -->
<g id="node75" class="node"><title>Node27</title>
<polygon fill="white" stroke="#bfbfbf" points="1406.5,-116.5 1406.5,-137.5 1455.5,-137.5 1455.5,-116.5 1406.5,-116.5"/>
<text text-anchor="middle" x="1431" y="-124.5" font-family="Helvetica,sans-Serif" font-size="10.00">istream</text>
</g>
<!-- Node26&#45;&gt;Node27 -->
<g id="edge96" class="edge"><title>Node26&#45;&gt;Node27</title>
<path fill="none" stroke="midnightblue" d="M1454.38,-181.267C1450.38,-171.991 1444.5,-158.336 1439.63,-147.045"/>
<polygon fill="midnightblue" stroke="midnightblue" points="1442.71,-145.333 1435.54,-137.534 1436.28,-148.103 1442.71,-145.333"/>
</g>
<!-- Node30&#45;&gt;Node7 -->
<g id="edge116" class="edge"><title>Node30&#45;&gt;Node7</title>
<path fill="none" stroke="midnightblue" d="M1081.68,-246.483C1075.41,-220.544 1055.76,-152.941 1014,-116 955.069,-63.8662 865.832,-32.9288 818.718,-19.301"/>
<polygon fill="midnightblue" stroke="midnightblue" points="819.63,-15.9219 809.056,-16.5793 817.732,-22.6597 819.63,-15.9219"/>
</g>
<!-- Node30&#45;&gt;Node19 -->
<g id="edge112" class="edge"><title>Node30&#45;&gt;Node19</title>
<path fill="none" stroke="midnightblue" d="M1068.88,-246.474C1056.18,-237.367 1037.77,-223.561 1023,-210 1007.01,-195.322 1009,-184.497 990,-174 914.835,-132.468 881.753,-157.473 794.08,-137.957"/>
<polygon fill="midnightblue" stroke="midnightblue" points="794.811,-134.534 784.274,-135.641 793.202,-141.346 794.811,-134.534"/>
</g>
<!-- Node30&#45;&gt;Node21 -->
<g id="edge118" class="edge"><title>Node30&#45;&gt;Node21</title>
<path fill="none" stroke="midnightblue" d="M1076.94,-246.421C1066.01,-230.291 1044.07,-198.804 1023,-174 1014.51,-164.007 1004.38,-153.521 995.79,-144.996"/>
<polygon fill="midnightblue" stroke="midnightblue" points="998.02,-142.281 988.426,-137.788 993.124,-147.284 998.02,-142.281"/>
</g>
<!-- Node31 -->
<g id="node86" class="node"><title>Node31</title>
<polygon fill="white" stroke="#bfbfbf" points="1179,-181.5 1179,-202.5 1299,-202.5 1299,-181.5 1179,-181.5"/>
<text text-anchor="middle" x="1239" y="-189.5" font-family="Helvetica,sans-Serif" font-size="10.00">base/cereal/access.hpp</text>
</g>
<!-- Node30&#45;&gt;Node31 -->
<g id="edge110" class="edge"><title>Node30&#45;&gt;Node31</title>
<path fill="none" stroke="midnightblue" d="M1109.25,-246.412C1135.14,-235.552 1175.61,-218.583 1204.46,-206.484"/>
<polygon fill="midnightblue" stroke="midnightblue" points="1205.89,-209.679 1213.76,-202.584 1203.19,-203.223 1205.89,-209.679"/>
</g>
<!-- Node30&#45;&gt;Node32 -->
<g id="edge114" class="edge"><title>Node30&#45;&gt;Node32</title>
<path fill="none" stroke="midnightblue" d="M1062.86,-246.482C1044.65,-237.268 1017.78,-223.307 995,-210 993.49,-209.118 991.947,-208.194 990.398,-207.249"/>
<polygon fill="midnightblue" stroke="midnightblue" points="992.005,-204.125 981.675,-201.768 988.28,-210.052 992.005,-204.125"/>
</g>
<!-- Node33 -->
<g id="node93" class="node"><title>Node33</title>
<polygon fill="white" stroke="#bfbfbf" points="1112.5,-181.5 1112.5,-202.5 1161.5,-202.5 1161.5,-181.5 1112.5,-181.5"/>
<text text-anchor="middle" x="1137" y="-189.5" font-family="Helvetica,sans-Serif" font-size="10.00">cassert</text>
</g>
<!-- Node30&#45;&gt;Node33 -->
<g id="edge120" class="edge"><title>Node30&#45;&gt;Node33</title>
<path fill="none" stroke="midnightblue" d="M1092.75,-246.267C1100.7,-236.517 1112.59,-221.932 1122.05,-210.336"/>
<polygon fill="midnightblue" stroke="midnightblue" points="1124.8,-212.496 1128.41,-202.534 1119.38,-208.072 1124.8,-212.496"/>
</g>
<!-- Node34&#45;&gt;Node9 -->
<g id="edge124" class="edge"><title>Node34&#45;&gt;Node9</title>
<path fill="none" stroke="midnightblue" d="M65.8135,-304.354C79.5764,-273.913 119.248,-186.17 137.104,-146.677"/>
<polygon fill="midnightblue" stroke="midnightblue" points="140.309,-148.083 141.239,-137.53 133.93,-145.2 140.309,-148.083"/>
</g>
<!-- Node36&#45;&gt;Node25 -->
<g id="edge136" class="edge"><title>Node36&#45;&gt;Node25</title>
<path fill="none" stroke="midnightblue" d="M1497.6,-304.362C1502.47,-296.513 1509.24,-285.616 1515.05,-276.253"/>
<polygon fill="midnightblue" stroke="midnightblue" points="1518.14,-277.913 1520.44,-267.571 1512.19,-274.221 1518.14,-277.913"/>
</g>
<!-- Node36&#45;&gt;Node28 -->
<g id="edge140" class="edge"><title>Node36&#45;&gt;Node28</title>
<path fill="none" stroke="midnightblue" d="M1516.48,-304.404C1536.5,-295.667 1564.79,-282.406 1588,-268 1616.68,-250.199 1647,-225.693 1666.18,-209.373"/>
<polygon fill="midnightblue" stroke="midnightblue" points="1668.62,-211.888 1673.92,-202.714 1664.06,-206.58 1668.62,-211.888"/>
</g>
<!-- Node36&#45;&gt;Node30 -->
<g id="edge138" class="edge"><title>Node36&#45;&gt;Node30</title>
<path fill="none" stroke="midnightblue" d="M1429.19,-306.191C1346.31,-294.381 1201.2,-273.702 1128.36,-263.322"/>
<polygon fill="midnightblue" stroke="midnightblue" points="1128.55,-259.813 1118.16,-261.867 1127.56,-266.743 1128.55,-259.813"/>
</g>
</g>
</svg>
