<?xml version="1.0" encoding="UTF-8" standalone="no"?>
<!DOCTYPE svg PUBLIC "-//W3C//DTD SVG 1.1//EN"
 "http://www.w3.org/Graphics/SVG/1.1/DTD/svg11.dtd">
<!-- Generated by graphviz version 2.26.3 (20100126.1600)
 -->
<!-- Title: src/analysis/utils/particle_tools.cc Pages: 1 -->
<svg width="2044pt" height="522pt"
 viewBox="0.00 0.00 2044.18 522.00" xmlns="http://www.w3.org/2000/svg" xmlns:xlink="http://www.w3.org/1999/xlink">
<g id="graph1" class="graph" transform="scale(1 1) rotate(0) translate(4 518)">
<title>src/analysis/utils/particle_tools.cc</title>
<polygon fill="white" stroke="white" points="-4,5 -4,-518 2041.18,-518 2041.18,5 -4,5"/>
<!-- Node1 -->
<g id="node1" class="node"><title>Node1</title>
<polygon fill="#bfbfbf" stroke="black" points="1697.68,-479 1697.68,-513 1788.68,-513 1788.68,-479 1697.68,-479"/>
<text text-anchor="start" x="1705.68" y="-500" font-family="Helvetica,sans-Serif" font-size="10.00">src/analysis/utils</text>
<text text-anchor="middle" x="1743.18" y="-487" font-family="Helvetica,sans-Serif" font-size="10.00">/particle_tools.cc</text>
</g>
<!-- Node2 -->
<g id="node3" class="node"><title>Node2</title>
<a xlink:href="particle__tools_8h.html" target="_top" xlink:title="particle_tools.h">
<polygon fill="white" stroke="black" points="975.679,-420.5 975.679,-441.5 1058.68,-441.5 1058.68,-420.5 975.679,-420.5"/>
<text text-anchor="middle" x="1017.18" y="-428.5" font-family="Helvetica,sans-Serif" font-size="10.00">particle_tools.h</text>
</a>
</g>
<!-- Node1&#45;&gt;Node2 -->
<g id="edge2" class="edge"><title>Node1&#45;&gt;Node2</title>
<path fill="none" stroke="midnightblue" d="M1697.42,-494.167C1588.59,-489.406 1305.98,-474.674 1072.18,-442 1071.09,-441.848 1070,-441.689 1068.9,-441.522"/>
<polygon fill="midnightblue" stroke="midnightblue" points="1069.27,-438.037 1058.83,-439.864 1068.13,-444.944 1069.27,-438.037"/>
</g>
<!-- Node17 -->
<g id="node36" class="node"><title>Node17</title>
<a xlink:href="math_8h.html" target="_top" xlink:title="base/std_ext/math.h">
<polygon fill="white" stroke="black" points="1790.18,-181.5 1790.18,-202.5 1896.18,-202.5 1896.18,-181.5 1790.18,-181.5"/>
<text text-anchor="middle" x="1843.18" y="-189.5" font-family="Helvetica,sans-Serif" font-size="10.00">base/std_ext/math.h</text>
</a>
</g>
<!-- Node1&#45;&gt;Node17 -->
<g id="edge162" class="edge"><title>Node1&#45;&gt;Node17</title>
<path fill="none" stroke="midnightblue" d="M1756.98,-478.83C1773.85,-456.058 1800.18,-413.952 1800.18,-373 1800.18,-373 1800.18,-373 1800.18,-315 1800.18,-276.798 1818.89,-235.472 1831.63,-211.768"/>
<polygon fill="midnightblue" stroke="midnightblue" points="1834.84,-213.189 1836.65,-202.749 1828.73,-209.784 1834.84,-213.189"/>
</g>
<!-- Node18 -->
<g id="node39" class="node"><title>Node18</title>
<polygon fill="white" stroke="#bfbfbf" points="1742.18,-116.5 1742.18,-137.5 1782.18,-137.5 1782.18,-116.5 1742.18,-116.5"/>
<text text-anchor="middle" x="1762.18" y="-124.5" font-family="Helvetica,sans-Serif" font-size="10.00">limits</text>
</g>
<!-- Node1&#45;&gt;Node18 -->
<g id="edge174" class="edge"><title>Node1&#45;&gt;Node18</title>
<path fill="none" stroke="midnightblue" d="M1747.59,-478.614C1753.2,-454.905 1762.18,-411.029 1762.18,-373 1762.18,-373 1762.18,-373 1762.18,-257 1762.18,-218.466 1762.18,-173.508 1762.18,-147.834"/>
<polygon fill="midnightblue" stroke="midnightblue" points="1765.68,-147.786 1762.18,-137.786 1758.68,-147.786 1765.68,-147.786"/>
</g>
<!-- Node21 -->
<g id="node46" class="node"><title>Node21</title>
<polygon fill="white" stroke="#bfbfbf" points="1635.68,-116.5 1635.68,-137.5 1694.68,-137.5 1694.68,-116.5 1635.68,-116.5"/>
<text text-anchor="middle" x="1665.18" y="-124.5" font-family="Helvetica,sans-Serif" font-size="10.00">functional</text>
</g>
<!-- Node1&#45;&gt;Node21 -->
<g id="edge172" class="edge"><title>Node1&#45;&gt;Node21</title>
<path fill="none" stroke="midnightblue" d="M1738.77,-478.614C1733.16,-454.905 1724.18,-411.029 1724.18,-373 1724.18,-373 1724.18,-373 1724.18,-257 1724.18,-214.364 1697.54,-170.328 1680.06,-146.025"/>
<polygon fill="midnightblue" stroke="midnightblue" points="1682.66,-143.657 1673.89,-137.721 1677.04,-147.834 1682.66,-143.657"/>
</g>
<!-- Node24 -->
<g id="node55" class="node"><title>Node24</title>
<polygon fill="white" stroke="#bfbfbf" points="1606.18,-181.5 1606.18,-202.5 1658.18,-202.5 1658.18,-181.5 1606.18,-181.5"/>
<text text-anchor="middle" x="1632.18" y="-189.5" font-family="Helvetica,sans-Serif" font-size="10.00">sstream</text>
</g>
<!-- Node1&#45;&gt;Node24 -->
<g id="edge168" class="edge"><title>Node1&#45;&gt;Node24</title>
<path fill="none" stroke="midnightblue" d="M1729.38,-478.83C1712.51,-456.058 1686.18,-413.952 1686.18,-373 1686.18,-373 1686.18,-373 1686.18,-315 1686.18,-275.264 1662.26,-233.936 1646.26,-210.737"/>
<polygon fill="midnightblue" stroke="midnightblue" points="1649.04,-208.608 1640.38,-202.503 1643.34,-212.676 1649.04,-208.608"/>
</g>
<!-- Node34 -->
<g id="node95" class="node"><title>Node34</title>
<polygon fill="white" stroke="#bfbfbf" points="895.679,-181.5 895.679,-202.5 944.679,-202.5 944.679,-181.5 895.679,-181.5"/>
<text text-anchor="middle" x="920.179" y="-189.5" font-family="Helvetica,sans-Serif" font-size="10.00">cassert</text>
</g>
<!-- Node1&#45;&gt;Node34 -->
<g id="edge170" class="edge"><title>Node1&#45;&gt;Node34</title>
<path fill="none" stroke="midnightblue" d="M1697.43,-492.161C1584.38,-481.101 1285.29,-442.153 1068.18,-326 1011.71,-295.79 959.661,-239.388 935.065,-210.336"/>
<polygon fill="midnightblue" stroke="midnightblue" points="937.696,-208.026 928.606,-202.584 932.318,-212.507 937.696,-208.026"/>
</g>
<!-- Node38 -->
<g id="node112" class="node"><title>Node38</title>
<a xlink:href="combinatorics_8h.html" target="_top" xlink:title="combinatorics.h">
<polygon fill="white" stroke="black" points="406.179,-246.5 406.179,-267.5 492.179,-267.5 492.179,-246.5 406.179,-246.5"/>
<text text-anchor="middle" x="449.179" y="-254.5" font-family="Helvetica,sans-Serif" font-size="10.00">combinatorics.h</text>
</a>
</g>
<!-- Node1&#45;&gt;Node38 -->
<g id="edge148" class="edge"><title>Node1&#45;&gt;Node38</title>
<path fill="none" stroke="midnightblue" d="M1697.53,-494.461C1553.24,-489.34 1108.21,-471.506 967.179,-442 776.702,-402.147 561.238,-308.514 481.266,-271.976"/>
<polygon fill="midnightblue" stroke="midnightblue" points="482.309,-268.604 471.761,-267.61 479.387,-274.965 482.309,-268.604"/>
</g>
<!-- Node40 -->
<g id="node119" class="node"><title>Node40</title>
<a xlink:href="_logger_8h.html" target="_top" xlink:title="base/Logger.h">
<polygon fill="white" stroke="black" points="1828.18,-420.5 1828.18,-441.5 1906.18,-441.5 1906.18,-420.5 1828.18,-420.5"/>
<text text-anchor="middle" x="1867.18" y="-428.5" font-family="Helvetica,sans-Serif" font-size="10.00">base/Logger.h</text>
</a>
</g>
<!-- Node1&#45;&gt;Node40 -->
<g id="edge158" class="edge"><title>Node1&#45;&gt;Node40</title>
<path fill="none" stroke="midnightblue" d="M1775.76,-478.922C1795.03,-468.818 1819.25,-456.126 1837.91,-446.342"/>
<polygon fill="midnightblue" stroke="midnightblue" points="1839.61,-449.401 1846.85,-441.658 1836.36,-443.201 1839.61,-449.401"/>
</g>
<!-- Node42 -->
<g id="node124" class="node"><title>Node42</title>
<polygon fill="white" stroke="#bfbfbf" points="1924.18,-420.5 1924.18,-441.5 1968.18,-441.5 1968.18,-420.5 1924.18,-420.5"/>
<text text-anchor="middle" x="1946.18" y="-428.5" font-family="Helvetica,sans-Serif" font-size="10.00">TH1.h</text>
</g>
<!-- Node1&#45;&gt;Node42 -->
<g id="edge164" class="edge"><title>Node1&#45;&gt;Node42</title>
<path fill="none" stroke="midnightblue" d="M1788.96,-482.13C1821.53,-472.147 1866.53,-458.126 1914.28,-442.232"/>
<polygon fill="midnightblue" stroke="midnightblue" points="1915.49,-445.519 1923.86,-439.029 1913.27,-438.88 1915.49,-445.519"/>
</g>
<!-- Node43 -->
<g id="node126" class="node"><title>Node43</title>
<polygon fill="white" stroke="#bfbfbf" points="1986.18,-420.5 1986.18,-441.5 2036.18,-441.5 2036.18,-420.5 1986.18,-420.5"/>
<text text-anchor="middle" x="2011.18" y="-428.5" font-family="Helvetica,sans-Serif" font-size="10.00">TTree.h</text>
</g>
<!-- Node1&#45;&gt;Node43 -->
<g id="edge166" class="edge"><title>Node1&#45;&gt;Node43</title>
<path fill="none" stroke="midnightblue" d="M1788.77,-486.696C1834.01,-477.191 1905.5,-461.445 1976.05,-442.157"/>
<polygon fill="midnightblue" stroke="midnightblue" points="1977.29,-445.447 1986,-439.413 1975.43,-438.699 1977.29,-445.447"/>
</g>
<!-- Node3 -->
<g id="node5" class="node"><title>Node3</title>
<a xlink:href="_t_particle_8h.html" target="_top" xlink:title="tree/TParticle.h">
<polygon fill="white" stroke="black" points="837.679,-362.5 837.679,-383.5 920.679,-383.5 920.679,-362.5 837.679,-362.5"/>
<text text-anchor="middle" x="879.179" y="-370.5" font-family="Helvetica,sans-Serif" font-size="10.00">tree/TParticle.h</text>
</a>
</g>
<!-- Node2&#45;&gt;Node3 -->
<g id="edge4" class="edge"><title>Node2&#45;&gt;Node3</title>
<path fill="none" stroke="midnightblue" d="M992.189,-420.497C970.246,-411.275 938.114,-397.769 913.716,-387.515"/>
<polygon fill="midnightblue" stroke="midnightblue" points="915.026,-384.269 904.451,-383.621 912.313,-390.722 915.026,-384.269"/>
</g>
<!-- Node15 -->
<g id="node31" class="node"><title>Node15</title>
<polygon fill="white" stroke="#bfbfbf" points="987.679,-116.5 987.679,-137.5 1028.68,-137.5 1028.68,-116.5 987.679,-116.5"/>
<text text-anchor="middle" x="1008.18" y="-124.5" font-family="Helvetica,sans-Serif" font-size="10.00">string</text>
</g>
<!-- Node2&#45;&gt;Node15 -->
<g id="edge146" class="edge"><title>Node2&#45;&gt;Node15</title>
<path fill="none" stroke="midnightblue" d="M1016.86,-420.18C1015.54,-375.764 1010.55,-206.983 1008.79,-147.721"/>
<polygon fill="midnightblue" stroke="midnightblue" points="1012.29,-147.582 1008.5,-137.69 1005.29,-147.789 1012.29,-147.582"/>
</g>
<!-- Node35 -->
<g id="node97" class="node"><title>Node35</title>
<a xlink:href="_lorentz_vec_8h.html" target="_top" xlink:title="base/vec/LorentzVec.h">
<polygon fill="white" stroke="black" points="1188.68,-304.5 1188.68,-325.5 1305.68,-325.5 1305.68,-304.5 1188.68,-304.5"/>
<text text-anchor="middle" x="1247.18" y="-312.5" font-family="Helvetica,sans-Serif" font-size="10.00">base/vec/LorentzVec.h</text>
</a>
</g>
<!-- Node2&#45;&gt;Node35 -->
<g id="edge144" class="edge"><title>Node2&#45;&gt;Node35</title>
<path fill="none" stroke="midnightblue" d="M1038.4,-420.295C1079.5,-399.568 1170.03,-353.909 1217.23,-330.105"/>
<polygon fill="midnightblue" stroke="midnightblue" points="1218.98,-333.14 1226.34,-325.512 1215.83,-326.89 1218.98,-333.14"/>
</g>
<!-- Node37 -->
<g id="node105" class="node"><title>Node37</title>
<a xlink:href="_particle_type_tree_8h.html" target="_top" xlink:title="base/ParticleTypeTree.h">
<polygon fill="white" stroke="black" points="205.679,-304.5 205.679,-325.5 328.679,-325.5 328.679,-304.5 205.679,-304.5"/>
<text text-anchor="middle" x="267.179" y="-312.5" font-family="Helvetica,sans-Serif" font-size="10.00">base/ParticleTypeTree.h</text>
</a>
</g>
<!-- Node2&#45;&gt;Node37 -->
<g id="edge136" class="edge"><title>Node2&#45;&gt;Node37</title>
<path fill="none" stroke="midnightblue" d="M975.519,-424.556C853.138,-405.628 493.643,-350.026 339.121,-326.127"/>
<polygon fill="midnightblue" stroke="midnightblue" points="339.218,-322.6 328.8,-324.531 338.148,-329.518 339.218,-322.6"/>
</g>
<!-- Node4 -->
<g id="node7" class="node"><title>Node4</title>
<a xlink:href="_t_candidate_8h.html" target="_top" xlink:title="tree/TCandidate.h">
<polygon fill="white" stroke="black" points="1076.68,-304.5 1076.68,-325.5 1171.68,-325.5 1171.68,-304.5 1076.68,-304.5"/>
<text text-anchor="middle" x="1124.18" y="-312.5" font-family="Helvetica,sans-Serif" font-size="10.00">tree/TCandidate.h</text>
</a>
</g>
<!-- Node3&#45;&gt;Node4 -->
<g id="edge6" class="edge"><title>Node3&#45;&gt;Node4</title>
<path fill="none" stroke="midnightblue" d="M920.74,-363.161C961.737,-353.456 1024.62,-338.568 1069.62,-327.916"/>
<polygon fill="midnightblue" stroke="midnightblue" points="1070.58,-331.285 1079.51,-325.575 1068.97,-324.473 1070.58,-331.285"/>
</g>
<!-- Node7 -->
<g id="node13" class="node"><title>Node7</title>
<a xlink:href="printable_8h.html" target="_top" xlink:title="base/printable.h">
<polygon fill="white" stroke="black" points="342.179,-58.5 342.179,-79.5 428.179,-79.5 428.179,-58.5 342.179,-58.5"/>
<text text-anchor="middle" x="385.179" y="-66.5" font-family="Helvetica,sans-Serif" font-size="10.00">base/printable.h</text>
</a>
</g>
<!-- Node3&#45;&gt;Node7 -->
<g id="edge78" class="edge"><title>Node3&#45;&gt;Node7</title>
<path fill="none" stroke="midnightblue" d="M837.529,-371.678C689.433,-366.804 193.57,-348.921 126.179,-326 82.5324,-311.155 71.066,-302.226 40.1794,-268 10.7074,-235.341 -13.6821,-211.584 9.17939,-174 42.9081,-118.55 236.617,-87.2994 332.056,-75.0747"/>
<polygon fill="midnightblue" stroke="midnightblue" points="332.599,-78.5341 342.084,-73.814 331.726,-71.5887 332.599,-78.5341"/>
</g>
<!-- Node8 -->
<g id="node15" class="node"><title>Node8</title>
<polygon fill="white" stroke="#bfbfbf" points="850.179,-0.5 850.179,-21.5 894.179,-21.5 894.179,-0.5 850.179,-0.5"/>
<text text-anchor="middle" x="872.179" y="-8.5" font-family="Helvetica,sans-Serif" font-size="10.00">vector</text>
</g>
<!-- Node3&#45;&gt;Node8 -->
<g id="edge128" class="edge"><title>Node3&#45;&gt;Node8</title>
<path fill="none" stroke="midnightblue" d="M889.208,-362.148C897.162,-353.063 908.086,-339.457 915.179,-326 947.65,-264.399 969.095,-241.791 953.179,-174 940.08,-118.204 904.884,-59.6515 885.477,-30.2552"/>
<polygon fill="midnightblue" stroke="midnightblue" points="888.262,-28.1236 879.779,-21.7758 882.452,-32.028 888.262,-28.1236"/>
</g>
<!-- Node20 -->
<g id="node44" class="node"><title>Node20</title>
<polygon fill="white" stroke="#bfbfbf" points="1046.18,-116.5 1046.18,-137.5 1098.18,-137.5 1098.18,-116.5 1046.18,-116.5"/>
<text text-anchor="middle" x="1072.18" y="-124.5" font-family="Helvetica,sans-Serif" font-size="10.00">memory</text>
</g>
<!-- Node3&#45;&gt;Node20 -->
<g id="edge134" class="edge"><title>Node3&#45;&gt;Node20</title>
<path fill="none" stroke="midnightblue" d="M920.776,-362.717C942.577,-355.521 968.371,-343.915 986.179,-326 1037.49,-274.386 1060.35,-187.207 1068.47,-147.638"/>
<polygon fill="midnightblue" stroke="midnightblue" points="1071.95,-148.084 1070.42,-137.6 1065.08,-146.75 1071.95,-148.084"/>
</g>
<!-- Node25 -->
<g id="node65" class="node"><title>Node25</title>
<a xlink:href="types_8h.html" target="_top" xlink:title="base/types.h">
<polygon fill="white" stroke="black" points="129.679,-116.5 129.679,-137.5 202.679,-137.5 202.679,-116.5 129.679,-116.5"/>
<text text-anchor="middle" x="166.179" y="-124.5" font-family="Helvetica,sans-Serif" font-size="10.00">base/types.h</text>
</a>
</g>
<!-- Node3&#45;&gt;Node25 -->
<g id="edge80" class="edge"><title>Node3&#45;&gt;Node25</title>
<path fill="none" stroke="midnightblue" d="M837.442,-371.348C698.619,-365.685 257.74,-346.283 197.179,-326 107.64,-296.011 64.1699,-293.02 19.1794,-210 11.5561,-195.933 9.74441,-186.922 19.1794,-174 25.3646,-165.529 78.9827,-149.836 119.692,-138.926"/>
<polygon fill="midnightblue" stroke="midnightblue" points="120.698,-142.28 129.465,-136.331 118.902,-135.514 120.698,-142.28"/>
</g>
<!-- Node26 -->
<g id="node67" class="node"><title>Node26</title>
<a xlink:href="_particle_type_8h.html" target="_top" xlink:title="base/ParticleType.h">
<polygon fill="white" stroke="black" points="178.179,-246.5 178.179,-267.5 282.179,-267.5 282.179,-246.5 178.179,-246.5"/>
<text text-anchor="middle" x="230.179" y="-254.5" font-family="Helvetica,sans-Serif" font-size="10.00">base/ParticleType.h</text>
</a>
</g>
<!-- Node3&#45;&gt;Node26 -->
<g id="edge82" class="edge"><title>Node3&#45;&gt;Node26</title>
<path fill="none" stroke="midnightblue" d="M837.594,-365.567C726.756,-345.756 423.761,-291.6 292.35,-268.112"/>
<polygon fill="midnightblue" stroke="midnightblue" points="292.895,-264.654 282.435,-266.34 291.663,-271.545 292.895,-264.654"/>
</g>
<!-- Node31 -->
<g id="node86" class="node"><title>Node31</title>
<a xlink:href="_tree_8h.html" target="_top" xlink:title="base/Tree.h">
<polygon fill="white" stroke="black" points="728.179,-246.5 728.179,-267.5 796.179,-267.5 796.179,-246.5 728.179,-246.5"/>
<text text-anchor="middle" x="762.179" y="-254.5" font-family="Helvetica,sans-Serif" font-size="10.00">base/Tree.h</text>
</a>
</g>
<!-- Node3&#45;&gt;Node31 -->
<g id="edge110" class="edge"><title>Node3&#45;&gt;Node31</title>
<path fill="none" stroke="midnightblue" d="M859.935,-362.495C845.266,-353.902 825.113,-340.788 810.179,-326 795.209,-311.176 781.857,-291.127 773.06,-276.46"/>
<polygon fill="midnightblue" stroke="midnightblue" points="776.022,-274.59 767.966,-267.709 769.972,-278.112 776.022,-274.59"/>
</g>
<!-- Node33 -->
<g id="node91" class="node"><title>Node33</title>
<polygon fill="white" stroke="#bfbfbf" points="849.679,-181.5 849.679,-202.5 878.679,-202.5 878.679,-181.5 849.679,-181.5"/>
<text text-anchor="middle" x="864.179" y="-189.5" font-family="Helvetica,sans-Serif" font-size="10.00">list</text>
</g>
<!-- Node3&#45;&gt;Node33 -->
<g id="edge130" class="edge"><title>Node3&#45;&gt;Node33</title>
<path fill="none" stroke="midnightblue" d="M867.62,-362.296C859.029,-353.501 847.997,-340.212 843.179,-326 829.965,-287.018 844.587,-238.797 855.192,-212.128"/>
<polygon fill="midnightblue" stroke="midnightblue" points="858.498,-213.294 859.129,-202.718 852.041,-210.593 858.498,-213.294"/>
</g>
<!-- Node3&#45;&gt;Node35 -->
<g id="edge124" class="edge"><title>Node3&#45;&gt;Node35</title>
<path fill="none" stroke="midnightblue" d="M921.072,-366.565C977.306,-357.903 1080.59,-341.912 1178.31,-326.292"/>
<polygon fill="midnightblue" stroke="midnightblue" points="1179.04,-329.72 1188.36,-324.684 1177.93,-322.808 1179.04,-329.72"/>
</g>
<!-- Node36 -->
<g id="node102" class="node"><title>Node36</title>
<polygon fill="white" stroke="#bfbfbf" points="852.179,-304.5 852.179,-325.5 906.179,-325.5 906.179,-304.5 852.179,-304.5"/>
<text text-anchor="middle" x="879.179" y="-312.5" font-family="Helvetica,sans-Serif" font-size="10.00">iostream</text>
</g>
<!-- Node3&#45;&gt;Node36 -->
<g id="edge132" class="edge"><title>Node3&#45;&gt;Node36</title>
<path fill="none" stroke="midnightblue" d="M879.179,-362.362C879.179,-354.922 879.179,-344.743 879.179,-335.728"/>
<polygon fill="midnightblue" stroke="midnightblue" points="882.679,-335.571 879.179,-325.571 875.679,-335.571 882.679,-335.571"/>
</g>
<!-- Node5 -->
<g id="node9" class="node"><title>Node5</title>
<a xlink:href="_t_cluster_8h.html" target="_top" xlink:title="TCluster.h">
<polygon fill="white" stroke="black" points="1423.18,-246.5 1423.18,-267.5 1485.18,-267.5 1485.18,-246.5 1423.18,-246.5"/>
<text text-anchor="middle" x="1454.18" y="-254.5" font-family="Helvetica,sans-Serif" font-size="10.00">TCluster.h</text>
</a>
</g>
<!-- Node4&#45;&gt;Node5 -->
<g id="edge8" class="edge"><title>Node4&#45;&gt;Node5</title>
<path fill="none" stroke="midnightblue" d="M1171.82,-305.56C1174.65,-305.026 1177.45,-304.502 1180.18,-304 1262.51,-288.856 1359.05,-272.659 1412.75,-263.787"/>
<polygon fill="midnightblue" stroke="midnightblue" points="1413.61,-267.193 1422.91,-262.113 1412.47,-260.286 1413.61,-267.193"/>
</g>
<!-- Node6 -->
<g id="node11" class="node"><title>Node6</title>
<a xlink:href="_detector__t_8h.html" target="_top" xlink:title="base/Detector_t.h">
<polygon fill="white" stroke="black" points="1257.68,-181.5 1257.68,-202.5 1352.68,-202.5 1352.68,-181.5 1257.68,-181.5"/>
<text text-anchor="middle" x="1305.18" y="-189.5" font-family="Helvetica,sans-Serif" font-size="10.00">base/Detector_t.h</text>
</a>
</g>
<!-- Node4&#45;&gt;Node6 -->
<g id="edge66" class="edge"><title>Node4&#45;&gt;Node6</title>
<path fill="none" stroke="midnightblue" d="M1139.93,-304.3C1171.7,-282.71 1243.64,-233.82 1281.25,-208.26"/>
<polygon fill="midnightblue" stroke="midnightblue" points="1283.29,-211.103 1289.6,-202.588 1279.36,-205.314 1283.29,-211.103"/>
</g>
<!-- Node4&#45;&gt;Node8 -->
<g id="edge68" class="edge"><title>Node4&#45;&gt;Node8</title>
<path fill="none" stroke="midnightblue" d="M1126.72,-304.243C1133.63,-272.153 1149.57,-175.635 1107.18,-116 1058.98,-48.1898 956.6,-23.4759 904.335,-15.039"/>
<polygon fill="midnightblue" stroke="midnightblue" points="904.691,-11.5532 894.28,-13.5183 903.644,-18.4745 904.691,-11.5532"/>
</g>
<!-- Node4&#45;&gt;Node20 -->
<g id="edge74" class="edge"><title>Node4&#45;&gt;Node20</title>
<path fill="none" stroke="midnightblue" d="M1120.87,-304.196C1117.98,-294.685 1113.71,-280.45 1110.18,-268 1098.08,-225.341 1084.78,-175.156 1077.56,-147.642"/>
<polygon fill="midnightblue" stroke="midnightblue" points="1080.86,-146.428 1074.94,-137.639 1074.09,-148.199 1080.86,-146.428"/>
</g>
<!-- Node22 -->
<g id="node48" class="node"><title>Node22</title>
<polygon fill="white" stroke="#bfbfbf" points="529.179,-116.5 529.179,-137.5 585.179,-137.5 585.179,-116.5 529.179,-116.5"/>
<text text-anchor="middle" x="557.179" y="-124.5" font-family="Helvetica,sans-Serif" font-size="10.00">algorithm</text>
</g>
<!-- Node4&#45;&gt;Node22 -->
<g id="edge76" class="edge"><title>Node4&#45;&gt;Node22</title>
<path fill="none" stroke="midnightblue" d="M1076.44,-311.256C984.373,-303.74 785.533,-285.991 719.179,-268 657.332,-251.231 630.944,-256.807 587.179,-210 570.985,-192.679 563.407,-165.968 559.946,-147.55"/>
<polygon fill="midnightblue" stroke="midnightblue" points="563.38,-146.861 558.316,-137.554 556.471,-147.987 563.38,-146.861"/>
</g>
<!-- Node23 -->
<g id="node53" class="node"><title>Node23</title>
<polygon fill="white" stroke="#bfbfbf" points="1152.18,-181.5 1152.18,-202.5 1202.18,-202.5 1202.18,-181.5 1152.18,-181.5"/>
<text text-anchor="middle" x="1177.18" y="-189.5" font-family="Helvetica,sans-Serif" font-size="10.00">iomanip</text>
</g>
<!-- Node4&#45;&gt;Node23 -->
<g id="edge70" class="edge"><title>Node4&#45;&gt;Node23</title>
<path fill="none" stroke="midnightblue" d="M1128.88,-304.085C1137.78,-283.427 1157.21,-238.337 1168.53,-212.076"/>
<polygon fill="midnightblue" stroke="midnightblue" points="1171.82,-213.284 1172.56,-202.715 1165.39,-210.514 1171.82,-213.284"/>
</g>
<!-- Node4&#45;&gt;Node24 -->
<g id="edge72" class="edge"><title>Node4&#45;&gt;Node24</title>
<path fill="none" stroke="midnightblue" d="M1171.79,-305.379C1174.63,-304.89 1177.44,-304.426 1180.18,-304 1318.99,-282.445 1360.35,-310.688 1494.18,-268 1537.3,-254.245 1582.34,-226.514 1608.8,-208.625"/>
<polygon fill="midnightblue" stroke="midnightblue" points="1611.09,-211.296 1617.35,-202.747 1607.12,-205.528 1611.09,-211.296"/>
</g>
<!-- Node5&#45;&gt;Node6 -->
<g id="edge10" class="edge"><title>Node5&#45;&gt;Node6</title>
<path fill="none" stroke="midnightblue" d="M1429.91,-246.412C1405.12,-235.6 1366.45,-218.731 1338.74,-206.642"/>
<polygon fill="midnightblue" stroke="midnightblue" points="1340.01,-203.374 1329.44,-202.584 1337.21,-209.79 1340.01,-203.374"/>
</g>
<!-- Node5&#45;&gt;Node8 -->
<g id="edge56" class="edge"><title>Node5&#45;&gt;Node8</title>
<path fill="none" stroke="midnightblue" d="M1463.4,-246.305C1476.26,-230.023 1496.57,-198.341 1483.18,-174 1459.97,-131.813 1345.62,-73.9282 1300.18,-58 1226.96,-32.3322 991.05,-17.3871 904.449,-12.6527"/>
<polygon fill="midnightblue" stroke="midnightblue" points="904.588,-9.15527 894.415,-12.1136 904.213,-16.1452 904.588,-9.15527"/>
</g>
<!-- Node10 -->
<g id="node19" class="node"><title>Node10</title>
<a xlink:href="vec3_8h.html" target="_top" xlink:title="base/vec/vec3.h">
<polygon fill="white" stroke="black" points="1465.68,-116.5 1465.68,-137.5 1554.68,-137.5 1554.68,-116.5 1465.68,-116.5"/>
<text text-anchor="middle" x="1510.18" y="-124.5" font-family="Helvetica,sans-Serif" font-size="10.00">base/vec/vec3.h</text>
</a>
</g>
<!-- Node5&#45;&gt;Node10 -->
<g id="edge54" class="edge"><title>Node5&#45;&gt;Node10</title>
<path fill="none" stroke="midnightblue" d="M1477.2,-246.371C1491.27,-238.508 1508.07,-226.33 1516.18,-210 1525.92,-190.392 1522.03,-164.912 1517.23,-147.385"/>
<polygon fill="midnightblue" stroke="midnightblue" points="1520.51,-146.158 1514.23,-137.622 1513.82,-148.209 1520.51,-146.158"/>
</g>
<!-- Node12 -->
<g id="node24" class="node"><title>Node12</title>
<polygon fill="white" stroke="#bfbfbf" points="1534.18,-0.5 1534.18,-21.5 1578.18,-21.5 1578.18,-0.5 1534.18,-0.5"/>
<text text-anchor="middle" x="1556.18" y="-8.5" font-family="Helvetica,sans-Serif" font-size="10.00">cmath</text>
</g>
<!-- Node5&#45;&gt;Node12 -->
<g id="edge58" class="edge"><title>Node5&#45;&gt;Node12</title>
<path fill="none" stroke="midnightblue" d="M1481.39,-246.467C1498.51,-238.643 1519.98,-226.474 1534.18,-210 1578.15,-158.975 1568.16,-71.1733 1560.7,-31.5085"/>
<polygon fill="midnightblue" stroke="midnightblue" points="1564.13,-30.7768 1558.72,-21.668 1557.27,-32.1631 1564.13,-30.7768"/>
</g>
<!-- Node5&#45;&gt;Node17 -->
<g id="edge38" class="edge"><title>Node5&#45;&gt;Node17</title>
<path fill="none" stroke="midnightblue" d="M1485.36,-251.791C1549.11,-241.138 1695.49,-216.678 1779.95,-202.566"/>
<polygon fill="midnightblue" stroke="midnightblue" points="1780.65,-205.998 1789.93,-200.897 1779.49,-199.093 1780.65,-205.998"/>
</g>
<!-- Node19 -->
<g id="node41" class="node"><title>Node19</title>
<a xlink:href="shared__ptr__container_8h.html" target="_top" xlink:title="base/std_ext/shared\l_ptr_container.h">
<polygon fill="white" stroke="black" points="1369.68,-175 1369.68,-209 1474.68,-209 1474.68,-175 1369.68,-175"/>
<text text-anchor="start" x="1377.68" y="-196" font-family="Helvetica,sans-Serif" font-size="10.00">base/std_ext/shared</text>
<text text-anchor="middle" x="1422.18" y="-183" font-family="Helvetica,sans-Serif" font-size="10.00">_ptr_container.h</text>
</a>
</g>
<!-- Node5&#45;&gt;Node19 -->
<g id="edge44" class="edge"><title>Node5&#45;&gt;Node19</title>
<path fill="none" stroke="midnightblue" d="M1448.9,-246.267C1445.13,-238.615 1439.9,-227.986 1435.06,-218.16"/>
<polygon fill="midnightblue" stroke="midnightblue" points="1438.16,-216.536 1430.6,-209.11 1431.88,-219.627 1438.16,-216.536"/>
</g>
<!-- Node5&#45;&gt;Node20 -->
<g id="edge64" class="edge"><title>Node5&#45;&gt;Node20</title>
<path fill="none" stroke="midnightblue" d="M1422.87,-254.958C1381.05,-251.122 1305.66,-240.264 1249.18,-210 1228.67,-199.013 1231.11,-186.005 1211.18,-174 1178.78,-154.48 1137.2,-141.791 1107.99,-134.577"/>
<polygon fill="midnightblue" stroke="midnightblue" points="1108.75,-131.16 1098.21,-132.251 1107.13,-137.97 1108.75,-131.16"/>
</g>
<!-- Node5&#45;&gt;Node23 -->
<g id="edge60" class="edge"><title>Node5&#45;&gt;Node23</title>
<path fill="none" stroke="midnightblue" d="M1423.16,-253.268C1377.15,-247.202 1288.49,-233.458 1216.18,-210 1213.22,-209.041 1210.2,-207.918 1207.2,-206.709"/>
<polygon fill="midnightblue" stroke="midnightblue" points="1208.43,-203.426 1197.86,-202.653 1205.64,-209.847 1208.43,-203.426"/>
</g>
<!-- Node5&#45;&gt;Node24 -->
<g id="edge62" class="edge"><title>Node5&#45;&gt;Node24</title>
<path fill="none" stroke="midnightblue" d="M1485.45,-247.283C1513.62,-238.309 1556.04,-224.25 1592.18,-210 1594.84,-208.953 1597.57,-207.826 1600.31,-206.665"/>
<polygon fill="midnightblue" stroke="midnightblue" points="1601.73,-209.865 1609.49,-202.657 1598.93,-203.449 1601.73,-209.865"/>
</g>
<!-- Node6&#45;&gt;Node7 -->
<g id="edge12" class="edge"><title>Node6&#45;&gt;Node7</title>
<path fill="none" stroke="midnightblue" d="M1284.15,-181.488C1248.69,-164.318 1174.26,-130.701 1107.18,-116 979.694,-88.06 583.457,-74.5112 438.768,-70.3996"/>
<polygon fill="midnightblue" stroke="midnightblue" points="438.48,-66.8903 428.386,-70.1086 438.284,-73.8875 438.48,-66.8903"/>
</g>
<!-- Node6&#45;&gt;Node8 -->
<g id="edge36" class="edge"><title>Node6&#45;&gt;Node8</title>
<path fill="none" stroke="midnightblue" d="M1316.05,-181.338C1330.52,-165.825 1352.61,-136.635 1337.18,-116 1284.68,-45.8145 1000.73,-19.8905 904.27,-13.032"/>
<polygon fill="midnightblue" stroke="midnightblue" points="904.451,-9.53623 894.234,-12.3397 903.969,-16.5196 904.451,-9.53623"/>
</g>
<!-- Node6&#45;&gt;Node10 -->
<g id="edge18" class="edge"><title>Node6&#45;&gt;Node10</title>
<path fill="none" stroke="midnightblue" d="M1338.04,-181.405C1345.64,-178.965 1353.69,-176.386 1361.18,-174 1396.71,-162.687 1437.04,-149.972 1466.78,-140.622"/>
<polygon fill="midnightblue" stroke="midnightblue" points="1467.94,-143.925 1476.43,-137.588 1465.84,-137.247 1467.94,-143.925"/>
</g>
<!-- Node13 -->
<g id="node27" class="node"><title>Node13</title>
<polygon fill="white" stroke="#bfbfbf" points="1202.18,-116.5 1202.18,-137.5 1248.18,-137.5 1248.18,-116.5 1202.18,-116.5"/>
<text text-anchor="middle" x="1225.18" y="-124.5" font-family="Helvetica,sans-Serif" font-size="10.00">cstdint</text>
</g>
<!-- Node6&#45;&gt;Node13 -->
<g id="edge28" class="edge"><title>Node6&#45;&gt;Node13</title>
<path fill="none" stroke="midnightblue" d="M1291.97,-181.267C1279.5,-171.139 1260.62,-155.792 1246.1,-144"/>
<polygon fill="midnightblue" stroke="midnightblue" points="1248.11,-141.123 1238.14,-137.534 1243.7,-146.556 1248.11,-141.123"/>
</g>
<!-- Node14 -->
<g id="node29" class="node"><title>Node14</title>
<polygon fill="white" stroke="#bfbfbf" points="414.679,-116.5 414.679,-137.5 473.679,-137.5 473.679,-116.5 414.679,-116.5"/>
<text text-anchor="middle" x="444.179" y="-124.5" font-family="Helvetica,sans-Serif" font-size="10.00">stdexcept</text>
</g>
<!-- Node6&#45;&gt;Node14 -->
<g id="edge30" class="edge"><title>Node6&#45;&gt;Node14</title>
<path fill="none" stroke="midnightblue" d="M1257.56,-181.568C1242.76,-178.682 1226.35,-175.839 1211.18,-174 905.886,-136.994 826.235,-168.057 520.179,-138 508.275,-136.831 495.381,-135.13 483.651,-133.414"/>
<polygon fill="midnightblue" stroke="midnightblue" points="484.108,-129.943 473.698,-131.915 483.066,-136.865 484.108,-129.943"/>
</g>
<!-- Node6&#45;&gt;Node15 -->
<g id="edge32" class="edge"><title>Node6&#45;&gt;Node15</title>
<path fill="none" stroke="midnightblue" d="M1257.61,-182.855C1192.64,-170.303 1080.19,-148.343 1038.82,-137.994"/>
<polygon fill="midnightblue" stroke="midnightblue" points="1039.52,-134.557 1028.95,-135.345 1037.7,-141.318 1039.52,-134.557"/>
</g>
<!-- Node16 -->
<g id="node33" class="node"><title>Node16</title>
<polygon fill="white" stroke="#bfbfbf" points="1266.18,-116.5 1266.18,-137.5 1328.18,-137.5 1328.18,-116.5 1266.18,-116.5"/>
<text text-anchor="middle" x="1297.18" y="-124.5" font-family="Helvetica,sans-Serif" font-size="10.00">type_traits</text>
</g>
<!-- Node6&#45;&gt;Node16 -->
<g id="edge34" class="edge"><title>Node6&#45;&gt;Node16</title>
<path fill="none" stroke="midnightblue" d="M1303.86,-181.267C1302.74,-172.18 1301.1,-158.892 1299.73,-147.74"/>
<polygon fill="midnightblue" stroke="midnightblue" points="1303.17,-147.031 1298.48,-137.534 1296.22,-147.886 1303.17,-147.031"/>
</g>
<!-- Node7&#45;&gt;Node8 -->
<g id="edge14" class="edge"><title>Node7&#45;&gt;Node8</title>
<path fill="none" stroke="midnightblue" d="M428.397,-63.8529C524.725,-52.3806 755.225,-24.9289 840.098,-14.8208"/>
<polygon fill="midnightblue" stroke="midnightblue" points="840.651,-18.2797 850.167,-13.6216 839.823,-11.3288 840.651,-18.2797"/>
</g>
<!-- Node9 -->
<g id="node17" class="node"><title>Node9</title>
<polygon fill="white" stroke="#bfbfbf" points="199.179,-0.5 199.179,-21.5 251.179,-21.5 251.179,-0.5 199.179,-0.5"/>
<text text-anchor="middle" x="225.179" y="-8.5" font-family="Helvetica,sans-Serif" font-size="10.00">ostream</text>
</g>
<!-- Node7&#45;&gt;Node9 -->
<g id="edge16" class="edge"><title>Node7&#45;&gt;Node9</title>
<path fill="none" stroke="midnightblue" d="M356.205,-58.4966C329.46,-48.8017 289.658,-34.3733 260.944,-23.9647"/>
<polygon fill="midnightblue" stroke="midnightblue" points="261.884,-20.5826 251.29,-20.465 259.498,-27.1635 261.884,-20.5826"/>
</g>
<!-- Node10&#45;&gt;Node7 -->
<g id="edge20" class="edge"><title>Node10&#45;&gt;Node7</title>
<path fill="none" stroke="midnightblue" d="M1465.38,-123.977C1430.46,-121.663 1380.75,-118.461 1337.18,-116 995.07,-96.6797 583.548,-77.8643 438.73,-71.3774"/>
<polygon fill="midnightblue" stroke="midnightblue" points="438.51,-67.8642 428.364,-70.9137 438.197,-74.8572 438.51,-67.8642"/>
</g>
<!-- Node11 -->
<g id="node22" class="node"><title>Node11</title>
<a xlink:href="vec2_8h.html" target="_top" xlink:title="vec2.h">
<polygon fill="white" stroke="black" points="1508.18,-58.5 1508.18,-79.5 1554.18,-79.5 1554.18,-58.5 1508.18,-58.5"/>
<text text-anchor="middle" x="1531.18" y="-66.5" font-family="Helvetica,sans-Serif" font-size="10.00">vec2.h</text>
</a>
</g>
<!-- Node10&#45;&gt;Node11 -->
<g id="edge22" class="edge"><title>Node10&#45;&gt;Node11</title>
<path fill="none" stroke="midnightblue" d="M1514.03,-116.362C1516.78,-108.758 1520.57,-98.294 1523.89,-89.1349"/>
<polygon fill="midnightblue" stroke="midnightblue" points="1527.24,-90.1649 1527.35,-79.5707 1520.66,-87.7818 1527.24,-90.1649"/>
</g>
<!-- Node10&#45;&gt;Node12 -->
<g id="edge26" class="edge"><title>Node10&#45;&gt;Node12</title>
<path fill="none" stroke="midnightblue" d="M1504.75,-116.173C1498.49,-102.106 1490.18,-77.0909 1499.18,-58 1505.14,-45.3676 1516.34,-34.9782 1527.25,-27.2091"/>
<polygon fill="midnightblue" stroke="midnightblue" points="1529.41,-29.977 1535.82,-21.5475 1525.55,-24.1346 1529.41,-29.977"/>
</g>
<!-- Node11&#45;&gt;Node12 -->
<g id="edge24" class="edge"><title>Node11&#45;&gt;Node12</title>
<path fill="none" stroke="midnightblue" d="M1535.76,-58.3619C1539.08,-50.6766 1543.65,-40.0686 1547.63,-30.8399"/>
<polygon fill="midnightblue" stroke="midnightblue" points="1550.88,-32.1393 1551.62,-21.5707 1544.45,-29.3685 1550.88,-32.1393"/>
</g>
<!-- Node17&#45;&gt;Node12 -->
<g id="edge40" class="edge"><title>Node17&#45;&gt;Node12</title>
<path fill="none" stroke="midnightblue" d="M1838.26,-181.294C1830.38,-165.191 1813.52,-134.644 1791.18,-116 1728.85,-63.9836 1636.64,-32.9158 1588.35,-19.2599"/>
<polygon fill="midnightblue" stroke="midnightblue" points="1589.02,-15.8164 1578.45,-16.5337 1587.16,-22.5648 1589.02,-15.8164"/>
</g>
<!-- Node17&#45;&gt;Node18 -->
<g id="edge42" class="edge"><title>Node17&#45;&gt;Node18</title>
<path fill="none" stroke="midnightblue" d="M1829.8,-181.267C1817.18,-171.139 1798.06,-155.792 1783.36,-144"/>
<polygon fill="midnightblue" stroke="midnightblue" points="1785.3,-141.063 1775.31,-137.534 1780.91,-146.522 1785.3,-141.063"/>
</g>
<!-- Node19&#45;&gt;Node8 -->
<g id="edge46" class="edge"><title>Node19&#45;&gt;Node8</title>
<path fill="none" stroke="midnightblue" d="M1409.06,-174.743C1396.17,-158.463 1375.41,-133.943 1354.18,-116 1317.26,-84.7982 1307.73,-74.1749 1262.18,-58 1196.37,-34.6303 986.246,-18.5716 904.837,-13.0833"/>
<polygon fill="midnightblue" stroke="midnightblue" points="904.884,-9.57888 894.674,-12.4083 904.42,-16.5635 904.884,-9.57888"/>
</g>
<!-- Node19&#45;&gt;Node20 -->
<g id="edge48" class="edge"><title>Node19&#45;&gt;Node20</title>
<path fill="none" stroke="midnightblue" d="M1369.39,-175.98C1366.62,-175.279 1363.87,-174.613 1361.18,-174 1271.08,-153.467 1163.22,-138.396 1108.25,-131.383"/>
<polygon fill="midnightblue" stroke="midnightblue" points="1108.66,-127.907 1098.3,-130.128 1107.78,-134.852 1108.66,-127.907"/>
</g>
<!-- Node19&#45;&gt;Node21 -->
<g id="edge50" class="edge"><title>Node19&#45;&gt;Node21</title>
<path fill="none" stroke="midnightblue" d="M1474.91,-177.896C1520.2,-165.78 1584.51,-148.577 1625.54,-137.603"/>
<polygon fill="midnightblue" stroke="midnightblue" points="1626.69,-140.919 1635.44,-134.954 1624.88,-134.157 1626.69,-140.919"/>
</g>
<!-- Node19&#45;&gt;Node22 -->
<g id="edge52" class="edge"><title>Node19&#45;&gt;Node22</title>
<path fill="none" stroke="midnightblue" d="M1369.45,-175.64C1366.67,-175.028 1363.9,-174.474 1361.18,-174 1211.16,-147.836 734.345,-132.169 595.475,-128.078"/>
<polygon fill="midnightblue" stroke="midnightblue" points="595.419,-124.575 585.321,-127.782 595.215,-131.572 595.419,-124.575"/>
</g>
<!-- Node26&#45;&gt;Node8 -->
<g id="edge108" class="edge"><title>Node26&#45;&gt;Node8</title>
<path fill="none" stroke="midnightblue" d="M230.322,-246.133C231.448,-211.058 240.362,-100.663 307.179,-58 352.185,-29.2635 726.857,-15.4738 839.97,-11.9393"/>
<polygon fill="midnightblue" stroke="midnightblue" points="840.192,-15.4342 850.08,-11.6291 839.977,-8.43748 840.192,-15.4342"/>
</g>
<!-- Node26&#45;&gt;Node9 -->
<g id="edge102" class="edge"><title>Node26&#45;&gt;Node9</title>
<path fill="none" stroke="midnightblue" d="M192.972,-246.356C173.92,-239.073 151.906,-227.499 138.179,-210 117.886,-184.13 124.983,-170.659 121.179,-138 120.048,-128.288 117.459,-125.042 121.179,-116 136.985,-77.5822 174.399,-45.7592 199.765,-27.5564"/>
<polygon fill="midnightblue" stroke="midnightblue" points="201.973,-30.2839 208.18,-21.6975 197.974,-24.5391 201.973,-30.2839"/>
</g>
<!-- Node26&#45;&gt;Node15 -->
<g id="edge100" class="edge"><title>Node26&#45;&gt;Node15</title>
<path fill="none" stroke="midnightblue" d="M282.261,-250.597C339.373,-243.056 433.507,-229.095 513.179,-210 564.849,-197.617 575.262,-185.3 627.179,-174 755.491,-146.073 911.983,-133.293 977.27,-128.887"/>
<polygon fill="midnightblue" stroke="midnightblue" points="977.556,-132.376 987.305,-128.228 977.097,-125.391 977.556,-132.376"/>
</g>
<!-- Node26&#45;&gt;Node25 -->
<g id="edge84" class="edge"><title>Node26&#45;&gt;Node25</title>
<path fill="none" stroke="midnightblue" d="M194.555,-246.373C176.998,-239.134 157.437,-227.597 147.179,-210 135.684,-190.281 144.968,-164.154 154.146,-146.523"/>
<polygon fill="midnightblue" stroke="midnightblue" points="157.258,-148.13 159.102,-137.697 151.154,-144.703 157.258,-148.13"/>
</g>
<!-- Node27 -->
<g id="node70" class="node"><title>Node27</title>
<a xlink:href="interval_8h.html" target="_top" xlink:title="base/interval.h">
<polygon fill="white" stroke="black" points="296.179,-181.5 296.179,-202.5 376.179,-202.5 376.179,-181.5 296.179,-181.5"/>
<text text-anchor="middle" x="336.179" y="-189.5" font-family="Helvetica,sans-Serif" font-size="10.00">base/interval.h</text>
</a>
</g>
<!-- Node26&#45;&gt;Node27 -->
<g id="edge86" class="edge"><title>Node26&#45;&gt;Node27</title>
<path fill="none" stroke="midnightblue" d="M247.683,-246.267C264.74,-235.807 290.873,-219.782 310.325,-207.854"/>
<polygon fill="midnightblue" stroke="midnightblue" points="312.306,-210.745 319.001,-202.534 308.647,-204.778 312.306,-210.745"/>
</g>
<!-- Node29 -->
<g id="node81" class="node"><title>Node29</title>
<polygon fill="white" stroke="#bfbfbf" points="27.6794,-181.5 27.6794,-202.5 62.6794,-202.5 62.6794,-181.5 27.6794,-181.5"/>
<text text-anchor="middle" x="45.1794" y="-189.5" font-family="Helvetica,sans-Serif" font-size="10.00">map</text>
</g>
<!-- Node26&#45;&gt;Node29 -->
<g id="edge104" class="edge"><title>Node26&#45;&gt;Node29</title>
<path fill="none" stroke="midnightblue" d="M186.073,-246.429C154.747,-238.231 112.053,-225.641 76.1794,-210 74.3824,-209.217 72.5582,-208.353 70.7409,-207.442"/>
<polygon fill="midnightblue" stroke="midnightblue" points="72.3261,-204.32 61.8672,-202.628 68.9884,-210.473 72.3261,-204.32"/>
</g>
<!-- Node30 -->
<g id="node83" class="node"><title>Node30</title>
<polygon fill="white" stroke="#bfbfbf" points="155.679,-181.5 155.679,-202.5 202.679,-202.5 202.679,-181.5 155.679,-181.5"/>
<text text-anchor="middle" x="179.179" y="-189.5" font-family="Helvetica,sans-Serif" font-size="10.00">iterator</text>
</g>
<!-- Node26&#45;&gt;Node30 -->
<g id="edge106" class="edge"><title>Node26&#45;&gt;Node30</title>
<path fill="none" stroke="midnightblue" d="M221.758,-246.267C214.183,-236.612 202.886,-222.215 193.832,-210.675"/>
<polygon fill="midnightblue" stroke="midnightblue" points="196.371,-208.241 187.444,-202.534 190.864,-212.562 196.371,-208.241"/>
</g>
<!-- Node27&#45;&gt;Node7 -->
<g id="edge88" class="edge"><title>Node27&#45;&gt;Node7</title>
<path fill="none" stroke="midnightblue" d="M334.5,-181.401C332.577,-166.216 330.793,-137.708 340.179,-116 345.122,-104.568 354.154,-94.2659 362.836,-86.2403"/>
<polygon fill="midnightblue" stroke="midnightblue" points="365.307,-88.7305 370.583,-79.5429 360.729,-83.4349 365.307,-88.7305"/>
</g>
<!-- Node27&#45;&gt;Node14 -->
<g id="edge94" class="edge"><title>Node27&#45;&gt;Node14</title>
<path fill="none" stroke="midnightblue" d="M354.013,-181.267C371.47,-170.76 398.26,-154.637 418.106,-142.692"/>
<polygon fill="midnightblue" stroke="midnightblue" points="419.914,-145.689 426.677,-137.534 416.304,-139.692 419.914,-145.689"/>
</g>
<!-- Node27&#45;&gt;Node18 -->
<g id="edge96" class="edge"><title>Node27&#45;&gt;Node18</title>
<path fill="none" stroke="midnightblue" d="M360.161,-181.428C367.984,-178.46 376.813,-175.606 385.179,-174 672.923,-118.758 1411.82,-168.946 1703.18,-138 1712.66,-136.993 1722.91,-135.299 1732.16,-133.539"/>
<polygon fill="midnightblue" stroke="midnightblue" points="1732.97,-136.947 1742.09,-131.556 1731.6,-130.083 1732.97,-136.947"/>
</g>
<!-- Node27&#45;&gt;Node22 -->
<g id="edge92" class="edge"><title>Node27&#45;&gt;Node22</title>
<path fill="none" stroke="midnightblue" d="M363.507,-181.493C370.529,-178.923 378.101,-176.263 385.179,-174 430.802,-159.416 484.108,-145.292 519.143,-136.4"/>
<polygon fill="midnightblue" stroke="midnightblue" points="520.119,-139.763 528.959,-133.924 518.407,-132.976 520.119,-139.763"/>
</g>
<!-- Node27&#45;&gt;Node25 -->
<g id="edge90" class="edge"><title>Node27&#45;&gt;Node25</title>
<path fill="none" stroke="midnightblue" d="M308.488,-181.412C279.839,-170.458 234.932,-153.288 203.238,-141.17"/>
<polygon fill="midnightblue" stroke="midnightblue" points="204.45,-137.886 193.859,-137.584 201.95,-144.424 204.45,-137.886"/>
</g>
<!-- Node28 -->
<g id="node77" class="node"><title>Node28</title>
<polygon fill="white" stroke="#bfbfbf" points="348.679,-116.5 348.679,-137.5 397.679,-137.5 397.679,-116.5 348.679,-116.5"/>
<text text-anchor="middle" x="373.179" y="-124.5" font-family="Helvetica,sans-Serif" font-size="10.00">istream</text>
</g>
<!-- Node27&#45;&gt;Node28 -->
<g id="edge98" class="edge"><title>Node27&#45;&gt;Node28</title>
<path fill="none" stroke="midnightblue" d="M342.289,-181.267C347.677,-171.801 355.66,-157.777 362.161,-146.357"/>
<polygon fill="midnightblue" stroke="midnightblue" points="365.278,-147.956 367.183,-137.534 359.195,-144.493 365.278,-147.956"/>
</g>
<!-- Node31&#45;&gt;Node8 -->
<g id="edge118" class="edge"><title>Node31&#45;&gt;Node8</title>
<path fill="none" stroke="midnightblue" d="M766.906,-246.43C783.76,-208.738 841.088,-80.5323 863.292,-30.8743"/>
<polygon fill="midnightblue" stroke="midnightblue" points="866.583,-32.0886 867.47,-21.5309 860.193,-29.2311 866.583,-32.0886"/>
</g>
<!-- Node31&#45;&gt;Node20 -->
<g id="edge114" class="edge"><title>Node31&#45;&gt;Node20</title>
<path fill="none" stroke="midnightblue" d="M770.85,-246.369C787.59,-226.112 824.207,-183.181 841.179,-174 916.342,-133.341 948.899,-157.473 1036.14,-137.952"/>
<polygon fill="midnightblue" stroke="midnightblue" points="1036.98,-141.35 1045.9,-135.639 1035.37,-134.539 1036.98,-141.35"/>
</g>
<!-- Node31&#45;&gt;Node22 -->
<g id="edge120" class="edge"><title>Node31&#45;&gt;Node22</title>
<path fill="none" stroke="midnightblue" d="M727.972,-250.418C699.2,-243.692 657.951,-231.169 627.179,-210 602.468,-193 581.433,-165.068 569.05,-146.361"/>
<polygon fill="midnightblue" stroke="midnightblue" points="571.883,-144.295 563.539,-137.766 565.991,-148.073 571.883,-144.295"/>
</g>
<!-- Node32 -->
<g id="node88" class="node"><title>Node32</title>
<polygon fill="white" stroke="#bfbfbf" points="636.179,-181.5 636.179,-202.5 756.179,-202.5 756.179,-181.5 636.179,-181.5"/>
<text text-anchor="middle" x="696.179" y="-189.5" font-family="Helvetica,sans-Serif" font-size="10.00">base/cereal/access.hpp</text>
</g>
<!-- Node31&#45;&gt;Node32 -->
<g id="edge112" class="edge"><title>Node31&#45;&gt;Node32</title>
<path fill="none" stroke="midnightblue" d="M751.281,-246.267C741.189,-236.328 725.995,-221.363 714.116,-209.664"/>
<polygon fill="midnightblue" stroke="midnightblue" points="716.456,-207.057 706.875,-202.534 711.544,-212.044 716.456,-207.057"/>
</g>
<!-- Node31&#45;&gt;Node33 -->
<g id="edge116" class="edge"><title>Node31&#45;&gt;Node33</title>
<path fill="none" stroke="midnightblue" d="M778.948,-246.386C793.958,-236.877 816.557,-222.538 836.179,-210 837.823,-208.95 839.52,-207.864 841.227,-206.769"/>
<polygon fill="midnightblue" stroke="midnightblue" points="843.133,-209.705 849.657,-201.357 839.351,-203.815 843.133,-209.705"/>
</g>
<!-- Node31&#45;&gt;Node34 -->
<g id="edge122" class="edge"><title>Node31&#45;&gt;Node34</title>
<path fill="none" stroke="midnightblue" d="M794.013,-246.413C819.577,-237.583 856.193,-224.192 887.179,-210 889.004,-209.164 890.866,-208.27 892.731,-207.342"/>
<polygon fill="midnightblue" stroke="midnightblue" points="894.663,-210.282 901.911,-202.554 891.426,-204.076 894.663,-210.282"/>
</g>
<!-- Node35&#45;&gt;Node10 -->
<g id="edge126" class="edge"><title>Node35&#45;&gt;Node10</title>
<path fill="none" stroke="midnightblue" d="M1305.81,-309.87C1411.73,-299.169 1627.7,-270.284 1667.18,-210 1675.94,-196.615 1676.73,-186.834 1667.18,-174 1654.73,-157.274 1605.06,-144.293 1564.88,-136.252"/>
<polygon fill="midnightblue" stroke="midnightblue" points="1565.39,-132.784 1554.9,-134.315 1564.05,-139.656 1565.39,-132.784"/>
</g>
<!-- Node37&#45;&gt;Node26 -->
<g id="edge138" class="edge"><title>Node37&#45;&gt;Node26</title>
<path fill="none" stroke="midnightblue" d="M260.393,-304.362C255.386,-296.513 248.434,-285.616 242.461,-276.253"/>
<polygon fill="midnightblue" stroke="midnightblue" points="245.252,-274.119 236.923,-267.571 239.35,-277.884 245.252,-274.119"/>
</g>
<!-- Node37&#45;&gt;Node29 -->
<g id="edge142" class="edge"><title>Node37&#45;&gt;Node29</title>
<path fill="none" stroke="midnightblue" d="M243.474,-304.46C223.412,-295.343 194.039,-281.533 169.179,-268 133.825,-248.754 94.4161,-224.005 69.7128,-208.071"/>
<polygon fill="midnightblue" stroke="midnightblue" points="71.607,-205.128 61.3118,-202.626 67.7997,-211.002 71.607,-205.128"/>
</g>
<!-- Node37&#45;&gt;Node31 -->
<g id="edge140" class="edge"><title>Node37&#45;&gt;Node31</title>
<path fill="none" stroke="midnightblue" d="M328.871,-307.772C430.21,-295.897 629.489,-272.548 718.007,-262.176"/>
<polygon fill="midnightblue" stroke="midnightblue" points="718.463,-265.646 727.987,-261.006 717.648,-258.694 718.463,-265.646"/>
</g>
<!-- Node38&#45;&gt;Node8 -->
<g id="edge156" class="edge"><title>Node38&#45;&gt;Node8</title>
<path fill="none" stroke="midnightblue" d="M405.853,-250.384C362.892,-242.835 301.469,-229.025 287.179,-210 253.946,-165.755 285.213,-93.7218 333.179,-58 373.871,-27.6957 729.796,-15.0659 839.878,-11.8624"/>
<polygon fill="midnightblue" stroke="midnightblue" points="840.141,-15.3564 850.037,-11.5734 839.941,-8.35924 840.141,-15.3564"/>
</g>
<!-- Node39 -->
<g id="node114" class="node"><title>Node39</title>
<a xlink:href="vector_8h.html" target="_top" xlink:title="base/std_ext/vector.h">
<polygon fill="white" stroke="black" points="393.679,-181.5 393.679,-202.5 504.679,-202.5 504.679,-181.5 393.679,-181.5"/>
<text text-anchor="middle" x="449.179" y="-189.5" font-family="Helvetica,sans-Serif" font-size="10.00">base/std_ext/vector.h</text>
</a>
</g>
<!-- Node38&#45;&gt;Node39 -->
<g id="edge150" class="edge"><title>Node38&#45;&gt;Node39</title>
<path fill="none" stroke="midnightblue" d="M449.179,-246.267C449.179,-237.18 449.179,-223.892 449.179,-212.74"/>
<polygon fill="midnightblue" stroke="midnightblue" points="452.679,-212.534 449.179,-202.534 445.679,-212.534 452.679,-212.534"/>
</g>
<!-- Node39&#45;&gt;Node8 -->
<g id="edge152" class="edge"><title>Node39&#45;&gt;Node8</title>
<path fill="none" stroke="midnightblue" d="M456.167,-181.499C467.614,-165.104 491.936,-133.497 520.179,-116 625.966,-50.4633 775.003,-23.8296 839.889,-14.8698"/>
<polygon fill="midnightblue" stroke="midnightblue" points="840.471,-18.3233 849.922,-13.5341 839.547,-11.3845 840.471,-18.3233"/>
</g>
<!-- Node39&#45;&gt;Node22 -->
<g id="edge154" class="edge"><title>Node39&#45;&gt;Node22</title>
<path fill="none" stroke="midnightblue" d="M467.013,-181.267C484.47,-170.76 511.26,-154.637 531.106,-142.692"/>
<polygon fill="midnightblue" stroke="midnightblue" points="532.914,-145.689 539.677,-137.534 529.304,-139.692 532.914,-145.689"/>
</g>
<!-- Node41 -->
<g id="node121" class="node"><title>Node41</title>
<polygon fill="white" stroke="#bfbfbf" points="1827.68,-362.5 1827.68,-383.5 1942.68,-383.5 1942.68,-362.5 1827.68,-362.5"/>
<text text-anchor="middle" x="1885.18" y="-370.5" font-family="Helvetica,sans-Serif" font-size="10.00">detail/easylogging++.h</text>
</g>
<!-- Node40&#45;&gt;Node41 -->
<g id="edge160" class="edge"><title>Node40&#45;&gt;Node41</title>
<path fill="none" stroke="midnightblue" d="M1870.48,-420.362C1872.84,-412.758 1876.09,-402.294 1878.93,-393.135"/>
<polygon fill="midnightblue" stroke="midnightblue" points="1882.28,-394.159 1881.9,-383.571 1875.59,-392.084 1882.28,-394.159"/>
</g>
</g>
</svg>
