<?xml version="1.0" encoding="UTF-8" standalone="no"?>
<!DOCTYPE svg PUBLIC "-//W3C//DTD SVG 1.1//EN"
 "http://www.w3.org/Graphics/SVG/1.1/DTD/svg11.dtd">
<!-- Generated by graphviz version 2.26.3 (20100126.1600)
 -->
<!-- Title: src/base/piecewise_interval.h Pages: 1 -->
<svg width="1384pt" height="284pt"
 viewBox="0.00 0.00 1384.00 284.00" xmlns="http://www.w3.org/2000/svg" xmlns:xlink="http://www.w3.org/1999/xlink">
<g id="graph1" class="graph" transform="scale(1 1) rotate(0) translate(4 280)">
<title>src/base/piecewise_interval.h</title>
<polygon fill="white" stroke="white" points="-4,5 -4,-280 1381,-280 1381,5 -4,5"/>
<!-- Node1 -->
<g id="node1" class="node"><title>Node1</title>
<polygon fill="#bfbfbf" stroke="black" points="743.5,-241 743.5,-275 844.5,-275 844.5,-241 743.5,-241"/>
<text text-anchor="start" x="751.5" y="-262" font-family="Helvetica,sans-Serif" font-size="10.00">src/base/piecewise</text>
<text text-anchor="middle" x="794" y="-249" font-family="Helvetica,sans-Serif" font-size="10.00">_interval.h</text>
</g>
<!-- Node2 -->
<g id="node3" class="node"><title>Node2</title>
<a xlink:href="_ant-rawdump_8cc.html" target="_top" xlink:title="progs/Ant&#45;rawdump.cc">
<polygon fill="white" stroke="black" points="600.5,-175.5 600.5,-196.5 715.5,-196.5 715.5,-175.5 600.5,-175.5"/>
<text text-anchor="middle" x="658" y="-183.5" font-family="Helvetica,sans-Serif" font-size="10.00">progs/Ant&#45;rawdump.cc</text>
</a>
</g>
<!-- Node1&#45;&gt;Node2 -->
<g id="edge2" class="edge"><title>Node1&#45;&gt;Node2</title>
<path fill="none" stroke="midnightblue" d="M752.621,-236.094C727.954,-223.034 697.736,-207.037 678.189,-196.688"/>
<polygon fill="midnightblue" stroke="midnightblue" points="751.294,-239.351 761.77,-240.937 754.57,-233.165 751.294,-239.351"/>
</g>
<!-- Node3 -->
<g id="node5" class="node"><title>Node3</title>
<a xlink:href="_prompt_random_hist_8h.html" target="_top" xlink:title="src/analysis/plot/Prompt\lRandomHist.h">
<polygon fill="white" stroke="black" points="733,-169 733,-203 855,-203 855,-169 733,-169"/>
<text text-anchor="start" x="741" y="-190" font-family="Helvetica,sans-Serif" font-size="10.00">src/analysis/plot/Prompt</text>
<text text-anchor="middle" x="794" y="-177" font-family="Helvetica,sans-Serif" font-size="10.00">RandomHist.h</text>
</a>
</g>
<!-- Node1&#45;&gt;Node3 -->
<g id="edge4" class="edge"><title>Node1&#45;&gt;Node3</title>
<path fill="none" stroke="midnightblue" d="M794,-230.719C794,-221.572 794,-211.625 794,-203.441"/>
<polygon fill="midnightblue" stroke="midnightblue" points="790.5,-230.937 794,-240.937 797.5,-230.937 790.5,-230.937"/>
</g>
<!-- Node23 -->
<g id="node45" class="node"><title>Node23</title>
<a xlink:href="_test_intervals_8cc.html" target="_top" xlink:title="test/base/TestIntervals.cc">
<polygon fill="white" stroke="black" points="872.5,-175.5 872.5,-196.5 1003.5,-196.5 1003.5,-175.5 872.5,-175.5"/>
<text text-anchor="middle" x="938" y="-183.5" font-family="Helvetica,sans-Serif" font-size="10.00">test/base/TestIntervals.cc</text>
</a>
</g>
<!-- Node1&#45;&gt;Node23 -->
<g id="edge44" class="edge"><title>Node1&#45;&gt;Node23</title>
<path fill="none" stroke="midnightblue" d="M837.124,-236.438C863.367,-223.317 895.744,-207.128 916.624,-196.688"/>
<polygon fill="midnightblue" stroke="midnightblue" points="835.505,-233.334 828.126,-240.937 838.636,-239.595 835.505,-233.334"/>
</g>
<!-- Node4 -->
<g id="node7" class="node"><title>Node4</title>
<a xlink:href="_i_m_plots_8h.html" target="_top" xlink:title="src/analysis/physics\l/common/IMPlots.h">
<polygon fill="white" stroke="black" points="41,-91 41,-125 147,-125 147,-91 41,-91"/>
<text text-anchor="start" x="49" y="-112" font-family="Helvetica,sans-Serif" font-size="10.00">src/analysis/physics</text>
<text text-anchor="middle" x="94" y="-99" font-family="Helvetica,sans-Serif" font-size="10.00">/common/IMPlots.h</text>
</a>
</g>
<!-- Node3&#45;&gt;Node4 -->
<g id="edge6" class="edge"><title>Node3&#45;&gt;Node4</title>
<path fill="none" stroke="midnightblue" d="M722.566,-167.943C490.409,-131.619 425.894,-166.258 197,-132 180.657,-129.554 163.075,-125.862 147.145,-122.101"/>
<polygon fill="midnightblue" stroke="midnightblue" points="722.248,-171.436 732.674,-169.552 723.349,-164.523 722.248,-171.436"/>
</g>
<!-- Node6 -->
<g id="node11" class="node"><title>Node6</title>
<a xlink:href="etaprime-3pi0_8h.html" target="_top" xlink:title="src/analysis/physics\l/etaprime/etaprime&#45;3pi0.h">
<polygon fill="white" stroke="black" points="205.5,-91 205.5,-125 332.5,-125 332.5,-91 205.5,-91"/>
<text text-anchor="start" x="213.5" y="-112" font-family="Helvetica,sans-Serif" font-size="10.00">src/analysis/physics</text>
<text text-anchor="middle" x="269" y="-99" font-family="Helvetica,sans-Serif" font-size="10.00">/etaprime/etaprime&#45;3pi0.h</text>
</a>
</g>
<!-- Node3&#45;&gt;Node6 -->
<g id="edge10" class="edge"><title>Node3&#45;&gt;Node6</title>
<path fill="none" stroke="midnightblue" d="M722.776,-167.9C588.098,-143.3 551.029,-150.346 419,-132 390.658,-128.062 359.395,-123.151 332.779,-118.799"/>
<polygon fill="midnightblue" stroke="midnightblue" points="722.174,-171.348 732.644,-169.726 723.448,-164.464 722.174,-171.348"/>
</g>
<!-- Node8 -->
<g id="node15" class="node"><title>Node8</title>
<a xlink:href="etaprime__omega__gamma_8h.html" target="_top" xlink:title="src/analysis/physics\l/etaprime/etaprime_omega\l_gamma.h">
<polygon fill="white" stroke="black" points="428,-84.5 428,-131.5 560,-131.5 560,-84.5 428,-84.5"/>
<text text-anchor="start" x="436" y="-118.5" font-family="Helvetica,sans-Serif" font-size="10.00">src/analysis/physics</text>
<text text-anchor="start" x="436" y="-105.5" font-family="Helvetica,sans-Serif" font-size="10.00">/etaprime/etaprime_omega</text>
<text text-anchor="middle" x="494" y="-92.5" font-family="Helvetica,sans-Serif" font-size="10.00">_gamma.h</text>
</a>
</g>
<!-- Node3&#45;&gt;Node8 -->
<g id="edge14" class="edge"><title>Node3&#45;&gt;Node8</title>
<path fill="none" stroke="midnightblue" d="M723.048,-167.795C655.367,-151.251 636.601,-149.225 573,-132 568.849,-130.876 564.586,-129.686 560.295,-128.46"/>
<polygon fill="midnightblue" stroke="midnightblue" points="722.386,-171.237 732.933,-170.229 724.06,-164.44 722.386,-171.237"/>
</g>
<!-- Node11 -->
<g id="node21" class="node"><title>Node11</title>
<a xlink:href="etaprime__proton_8h.html" target="_top" xlink:title="src/analysis/physics\l/etaprime/etaprime_proton.h">
<polygon fill="white" stroke="black" points="582,-91 582,-125 720,-125 720,-91 582,-91"/>
<text text-anchor="start" x="590" y="-112" font-family="Helvetica,sans-Serif" font-size="10.00">src/analysis/physics</text>
<text text-anchor="middle" x="651" y="-99" font-family="Helvetica,sans-Serif" font-size="10.00">/etaprime/etaprime_proton.h</text>
</a>
</g>
<!-- Node3&#45;&gt;Node11 -->
<g id="edge20" class="edge"><title>Node3&#45;&gt;Node11</title>
<path fill="none" stroke="midnightblue" d="M753.601,-163.964C730.999,-151.636 703.248,-136.499 682.309,-125.078"/>
<polygon fill="midnightblue" stroke="midnightblue" points="752.163,-167.167 762.618,-168.883 755.515,-161.021 752.163,-167.167"/>
</g>
<!-- Node13 -->
<g id="node25" class="node"><title>Node13</title>
<a xlink:href="_find_proton_8h.html" target="_top" xlink:title="src/analysis/physics\l/omega/FindProton.h">
<polygon fill="white" stroke="black" points="740.5,-91 740.5,-125 847.5,-125 847.5,-91 740.5,-91"/>
<text text-anchor="start" x="748.5" y="-112" font-family="Helvetica,sans-Serif" font-size="10.00">src/analysis/physics</text>
<text text-anchor="middle" x="794" y="-99" font-family="Helvetica,sans-Serif" font-size="10.00">/omega/FindProton.h</text>
</a>
</g>
<!-- Node3&#45;&gt;Node13 -->
<g id="edge24" class="edge"><title>Node3&#45;&gt;Node13</title>
<path fill="none" stroke="midnightblue" d="M794,-158.61C794,-147.519 794,-135.049 794,-125.262"/>
<polygon fill="midnightblue" stroke="midnightblue" points="790.5,-158.689 794,-168.689 797.5,-158.689 790.5,-158.689"/>
</g>
<!-- Node15 -->
<g id="node29" class="node"><title>Node15</title>
<a xlink:href="omega_8h.html" target="_top" xlink:title="src/analysis/physics\l/omega/omega.h">
<polygon fill="white" stroke="black" points="874,-91 874,-125 980,-125 980,-91 874,-91"/>
<text text-anchor="start" x="882" y="-112" font-family="Helvetica,sans-Serif" font-size="10.00">src/analysis/physics</text>
<text text-anchor="middle" x="927" y="-99" font-family="Helvetica,sans-Serif" font-size="10.00">/omega/omega.h</text>
</a>
</g>
<!-- Node3&#45;&gt;Node15 -->
<g id="edge28" class="edge"><title>Node3&#45;&gt;Node15</title>
<path fill="none" stroke="midnightblue" d="M831.855,-163.799C852.824,-151.501 878.492,-136.448 897.881,-125.078"/>
<polygon fill="midnightblue" stroke="midnightblue" points="830.043,-160.805 823.187,-168.883 833.584,-166.843 830.043,-160.805"/>
</g>
<!-- Node18 -->
<g id="node35" class="node"><title>Node18</title>
<a xlink:href="_just_pi0_8h.html" target="_top" xlink:title="src/analysis/physics\l/pi0/JustPi0.h">
<polygon fill="white" stroke="black" points="998,-91 998,-125 1104,-125 1104,-91 998,-91"/>
<text text-anchor="start" x="1006" y="-112" font-family="Helvetica,sans-Serif" font-size="10.00">src/analysis/physics</text>
<text text-anchor="middle" x="1051" y="-99" font-family="Helvetica,sans-Serif" font-size="10.00">/pi0/JustPi0.h</text>
</a>
</g>
<!-- Node3&#45;&gt;Node18 -->
<g id="edge34" class="edge"><title>Node3&#45;&gt;Node18</title>
<path fill="none" stroke="midnightblue" d="M865.085,-167.107C910.845,-154.792 965.932,-139.638 989,-132 995.355,-129.896 1002.01,-127.513 1008.51,-125.086"/>
<polygon fill="midnightblue" stroke="midnightblue" points="863.929,-163.793 855.179,-169.768 865.745,-170.554 863.929,-163.793"/>
</g>
<!-- Node20 -->
<g id="node39" class="node"><title>Node20</title>
<a xlink:href="_kin_fit_pi0_8h.html" target="_top" xlink:title="src/analysis/physics\l/pi0/KinFitPi0.h">
<polygon fill="white" stroke="black" points="1122,-91 1122,-125 1228,-125 1228,-91 1122,-91"/>
<text text-anchor="start" x="1130" y="-112" font-family="Helvetica,sans-Serif" font-size="10.00">src/analysis/physics</text>
<text text-anchor="middle" x="1175" y="-99" font-family="Helvetica,sans-Serif" font-size="10.00">/pi0/KinFitPi0.h</text>
</a>
</g>
<!-- Node3&#45;&gt;Node20 -->
<g id="edge38" class="edge"><title>Node3&#45;&gt;Node20</title>
<path fill="none" stroke="midnightblue" d="M865.216,-167.888C975.469,-146.821 1007.9,-159.56 1113,-132 1120.15,-130.126 1127.59,-127.689 1134.75,-125.088"/>
<polygon fill="midnightblue" stroke="midnightblue" points="864.513,-164.459 855.374,-169.818 865.86,-171.328 864.513,-164.459"/>
</g>
<!-- Node22 -->
<g id="node43" class="node"><title>Node22</title>
<a xlink:href="_prompt_random_hist_8cc.html" target="_top" xlink:title="src/analysis/plot/Prompt\lRandomHist.cc">
<polygon fill="white" stroke="black" points="1246,-91 1246,-125 1368,-125 1368,-91 1246,-91"/>
<text text-anchor="start" x="1254" y="-112" font-family="Helvetica,sans-Serif" font-size="10.00">src/analysis/plot/Prompt</text>
<text text-anchor="middle" x="1307" y="-99" font-family="Helvetica,sans-Serif" font-size="10.00">RandomHist.cc</text>
</a>
</g>
<!-- Node3&#45;&gt;Node22 -->
<g id="edge42" class="edge"><title>Node3&#45;&gt;Node22</title>
<path fill="none" stroke="midnightblue" d="M865.318,-167.931C1029.88,-140.247 1077.4,-166.56 1237,-132 1245.29,-130.205 1253.95,-127.741 1262.25,-125.071"/>
<polygon fill="midnightblue" stroke="midnightblue" points="864.602,-164.503 855.342,-169.651 865.792,-171.401 864.602,-164.503"/>
</g>
<!-- Node5 -->
<g id="node9" class="node"><title>Node5</title>
<a xlink:href="_i_m_plots_8cc.html" target="_top" xlink:title="src/analysis/physics\l/common/IMPlots.cc">
<polygon fill="white" stroke="black" points="-0.5,-7 -0.5,-41 106.5,-41 106.5,-7 -0.5,-7"/>
<text text-anchor="start" x="7.5" y="-28" font-family="Helvetica,sans-Serif" font-size="10.00">src/analysis/physics</text>
<text text-anchor="middle" x="53" y="-15" font-family="Helvetica,sans-Serif" font-size="10.00">/common/IMPlots.cc</text>
</a>
</g>
<!-- Node4&#45;&gt;Node5 -->
<g id="edge8" class="edge"><title>Node4&#45;&gt;Node5</title>
<path fill="none" stroke="midnightblue" d="M81.0607,-81.4902C74.6151,-68.2847 67.0099,-52.7033 61.3441,-41.0952"/>
<polygon fill="midnightblue" stroke="midnightblue" points="77.973,-83.1437 85.5048,-90.5951 84.2637,-80.0732 77.973,-83.1437"/>
</g>
<!-- Node7 -->
<g id="node13" class="node"><title>Node7</title>
<a xlink:href="etaprime-3pi0_8cc.html" target="_top" xlink:title="src/analysis/physics\l/etaprime/etaprime&#45;3pi0.cc">
<polygon fill="white" stroke="black" points="124,-7 124,-41 256,-41 256,-7 124,-7"/>
<text text-anchor="start" x="132" y="-28" font-family="Helvetica,sans-Serif" font-size="10.00">src/analysis/physics</text>
<text text-anchor="middle" x="190" y="-15" font-family="Helvetica,sans-Serif" font-size="10.00">/etaprime/etaprime&#45;3pi0.cc</text>
</a>
</g>
<!-- Node6&#45;&gt;Node7 -->
<g id="edge12" class="edge"><title>Node6&#45;&gt;Node7</title>
<path fill="none" stroke="midnightblue" d="M245.505,-83.0176C232.793,-69.5009 217.419,-53.1541 206.078,-41.0952"/>
<polygon fill="midnightblue" stroke="midnightblue" points="243.231,-85.7084 252.631,-90.5951 248.33,-80.9127 243.231,-85.7084"/>
</g>
<!-- Node9 -->
<g id="node17" class="node"><title>Node9</title>
<a xlink:href="_etap_omega_g__plot_8cc.html" target="_top" xlink:title="progs/EtapOmegaG_plot.cc">
<polygon fill="white" stroke="black" points="273.5,-13.5 273.5,-34.5 410.5,-34.5 410.5,-13.5 273.5,-13.5"/>
<text text-anchor="middle" x="342" y="-21.5" font-family="Helvetica,sans-Serif" font-size="10.00">progs/EtapOmegaG_plot.cc</text>
</a>
</g>
<!-- Node8&#45;&gt;Node9 -->
<g id="edge16" class="edge"><title>Node8&#45;&gt;Node9</title>
<path fill="none" stroke="midnightblue" d="M442.395,-79.4815C414.508,-64.0704 381.72,-45.9503 361.396,-34.7186"/>
<polygon fill="midnightblue" stroke="midnightblue" points="440.81,-82.6042 451.255,-84.3778 444.196,-76.4775 440.81,-82.6042"/>
</g>
<!-- Node10 -->
<g id="node19" class="node"><title>Node10</title>
<a xlink:href="etaprime__omega__gamma_8cc.html" target="_top" xlink:title="src/analysis/physics\l/etaprime/etaprime_omega\l_gamma.cc">
<polygon fill="white" stroke="black" points="428,-0.5 428,-47.5 560,-47.5 560,-0.5 428,-0.5"/>
<text text-anchor="start" x="436" y="-34.5" font-family="Helvetica,sans-Serif" font-size="10.00">src/analysis/physics</text>
<text text-anchor="start" x="436" y="-21.5" font-family="Helvetica,sans-Serif" font-size="10.00">/etaprime/etaprime_omega</text>
<text text-anchor="middle" x="494" y="-8.5" font-family="Helvetica,sans-Serif" font-size="10.00">_gamma.cc</text>
</a>
</g>
<!-- Node8&#45;&gt;Node10 -->
<g id="edge18" class="edge"><title>Node8&#45;&gt;Node10</title>
<path fill="none" stroke="midnightblue" d="M494,-74.0664C494,-65.1933 494,-55.821 494,-47.6152"/>
<polygon fill="midnightblue" stroke="midnightblue" points="490.5,-74.1536 494,-84.1537 497.5,-74.1537 490.5,-74.1536"/>
</g>
<!-- Node12 -->
<g id="node23" class="node"><title>Node12</title>
<a xlink:href="etaprime__proton_8cc.html" target="_top" xlink:title="src/analysis/physics\l/etaprime/etaprime_proton.cc">
<polygon fill="white" stroke="black" points="577.5,-7 577.5,-41 720.5,-41 720.5,-7 577.5,-7"/>
<text text-anchor="start" x="585.5" y="-28" font-family="Helvetica,sans-Serif" font-size="10.00">src/analysis/physics</text>
<text text-anchor="middle" x="649" y="-15" font-family="Helvetica,sans-Serif" font-size="10.00">/etaprime/etaprime_proton.cc</text>
</a>
</g>
<!-- Node11&#45;&gt;Node12 -->
<g id="edge22" class="edge"><title>Node11&#45;&gt;Node12</title>
<path fill="none" stroke="midnightblue" d="M650.341,-80.3304C650.033,-67.3804 649.675,-52.3652 649.407,-41.0952"/>
<polygon fill="midnightblue" stroke="midnightblue" points="646.848,-80.6813 650.586,-90.5951 653.846,-80.5146 646.848,-80.6813"/>
</g>
<!-- Node14 -->
<g id="node27" class="node"><title>Node14</title>
<a xlink:href="_find_proton_8cc.html" target="_top" xlink:title="src/analysis/physics\l/omega/FindProton.cc">
<polygon fill="white" stroke="black" points="737.5,-7 737.5,-41 850.5,-41 850.5,-7 737.5,-7"/>
<text text-anchor="start" x="745.5" y="-28" font-family="Helvetica,sans-Serif" font-size="10.00">src/analysis/physics</text>
<text text-anchor="middle" x="794" y="-15" font-family="Helvetica,sans-Serif" font-size="10.00">/omega/FindProton.cc</text>
</a>
</g>
<!-- Node13&#45;&gt;Node14 -->
<g id="edge26" class="edge"><title>Node13&#45;&gt;Node14</title>
<path fill="none" stroke="midnightblue" d="M794,-80.3304C794,-67.3804 794,-52.3652 794,-41.0952"/>
<polygon fill="midnightblue" stroke="midnightblue" points="790.5,-80.5951 794,-90.5951 797.5,-80.5952 790.5,-80.5951"/>
</g>
<!-- Node16 -->
<g id="node31" class="node"><title>Node16</title>
<a xlink:href="_omega_eta_g2__plot_8cc.html" target="_top" xlink:title="Plotting tool for TTrees from the ant::analysis::physics::OmegaEtaG2 physics class. ">
<polygon fill="white" stroke="black" points="867.5,-13.5 867.5,-34.5 1004.5,-34.5 1004.5,-13.5 867.5,-13.5"/>
<text text-anchor="middle" x="936" y="-21.5" font-family="Helvetica,sans-Serif" font-size="10.00">progs/OmegaEtaG2_plot.cc</text>
</a>
</g>
<!-- Node15&#45;&gt;Node16 -->
<g id="edge30" class="edge"><title>Node15&#45;&gt;Node16</title>
<path fill="none" stroke="midnightblue" d="M929.95,-80.4641C931.611,-64.9618 933.593,-46.4648 934.824,-34.9734"/>
<polygon fill="midnightblue" stroke="midnightblue" points="926.45,-80.2792 928.865,-90.5951 933.41,-81.025 926.45,-80.2792"/>
</g>
<!-- Node17 -->
<g id="node33" class="node"><title>Node17</title>
<a xlink:href="omega_8cc.html" target="_top" xlink:title="src/analysis/physics\l/omega/omega.cc">
<polygon fill="white" stroke="black" points="1022,-7 1022,-41 1128,-41 1128,-7 1022,-7"/>
<text text-anchor="start" x="1030" y="-28" font-family="Helvetica,sans-Serif" font-size="10.00">src/analysis/physics</text>
<text text-anchor="middle" x="1075" y="-15" font-family="Helvetica,sans-Serif" font-size="10.00">/omega/omega.cc</text>
</a>
</g>
<!-- Node15&#45;&gt;Node17 -->
<g id="edge32" class="edge"><title>Node15&#45;&gt;Node17</title>
<path fill="none" stroke="midnightblue" d="M966.077,-85.821C990.788,-71.7961 1022.24,-53.9452 1044.99,-41.0346"/>
<polygon fill="midnightblue" stroke="midnightblue" points="964.276,-82.8186 957.307,-90.7986 967.732,-88.9064 964.276,-82.8186"/>
</g>
<!-- Node19 -->
<g id="node37" class="node"><title>Node19</title>
<a xlink:href="_just_pi0_8cc.html" target="_top" xlink:title="src/analysis/physics\l/pi0/JustPi0.cc">
<polygon fill="white" stroke="black" points="1146,-7 1146,-41 1252,-41 1252,-7 1146,-7"/>
<text text-anchor="start" x="1154" y="-28" font-family="Helvetica,sans-Serif" font-size="10.00">src/analysis/physics</text>
<text text-anchor="middle" x="1199" y="-15" font-family="Helvetica,sans-Serif" font-size="10.00">/pi0/JustPi0.cc</text>
</a>
</g>
<!-- Node18&#45;&gt;Node19 -->
<g id="edge36" class="edge"><title>Node18&#45;&gt;Node19</title>
<path fill="none" stroke="midnightblue" d="M1090.08,-85.821C1114.79,-71.7961 1146.24,-53.9452 1168.99,-41.0346"/>
<polygon fill="midnightblue" stroke="midnightblue" points="1088.28,-82.8186 1081.31,-90.7986 1091.73,-88.9064 1088.28,-82.8186"/>
</g>
<!-- Node21 -->
<g id="node41" class="node"><title>Node21</title>
<a xlink:href="_kin_fit_pi0_8cc.html" target="_top" xlink:title="src/analysis/physics\l/pi0/KinFitPi0.cc">
<polygon fill="white" stroke="black" points="1270,-7 1270,-41 1376,-41 1376,-7 1270,-7"/>
<text text-anchor="start" x="1278" y="-28" font-family="Helvetica,sans-Serif" font-size="10.00">src/analysis/physics</text>
<text text-anchor="middle" x="1323" y="-15" font-family="Helvetica,sans-Serif" font-size="10.00">/pi0/KinFitPi0.cc</text>
</a>
</g>
<!-- Node20&#45;&gt;Node21 -->
<g id="edge40" class="edge"><title>Node20&#45;&gt;Node21</title>
<path fill="none" stroke="midnightblue" d="M1214.08,-85.821C1238.79,-71.7961 1270.24,-53.9452 1292.99,-41.0346"/>
<polygon fill="midnightblue" stroke="midnightblue" points="1212.28,-82.8186 1205.31,-90.7986 1215.73,-88.9064 1212.28,-82.8186"/>
</g>
</g>
</svg>
