<?xml version="1.0" encoding="UTF-8" standalone="no"?>
<!DOCTYPE svg PUBLIC "-//W3C//DTD SVG 1.1//EN"
 "http://www.w3.org/Graphics/SVG/1.1/DTD/svg11.dtd">
<!-- Generated by graphviz version 2.26.3 (20100126.1600)
 -->
<!-- Title: src/analysis/plot/root_draw.cc Pages: 1 -->
<svg width="1398pt" height="160pt"
 viewBox="0.00 0.00 1398.00 160.00" xmlns="http://www.w3.org/2000/svg" xmlns:xlink="http://www.w3.org/1999/xlink">
<g id="graph1" class="graph" transform="scale(1 1) rotate(0) translate(4 156)">
<title>src/analysis/plot/root_draw.cc</title>
<polygon fill="white" stroke="white" points="-4,5 -4,-156 1395,-156 1395,5 -4,5"/>
<!-- Node1 -->
<g id="node1" class="node"><title>Node1</title>
<polygon fill="#bfbfbf" stroke="black" points="717.5,-117 717.5,-151 824.5,-151 824.5,-117 717.5,-117"/>
<text text-anchor="start" x="725.5" y="-138" font-family="Helvetica,sans-Serif" font-size="10.00">src/analysis/plot/root</text>
<text text-anchor="middle" x="771" y="-125" font-family="Helvetica,sans-Serif" font-size="10.00">_draw.cc</text>
</g>
<!-- Node2 -->
<g id="node3" class="node"><title>Node2</title>
<a xlink:href="root__draw_8h.html" target="_top" xlink:title="plot/root_draw.h">
<polygon fill="white" stroke="black" points="191,-58.5 191,-79.5 277,-79.5 277,-58.5 191,-58.5"/>
<text text-anchor="middle" x="234" y="-66.5" font-family="Helvetica,sans-Serif" font-size="10.00">plot/root_draw.h</text>
</a>
</g>
<!-- Node1&#45;&gt;Node2 -->
<g id="edge2" class="edge"><title>Node1&#45;&gt;Node2</title>
<path fill="none" stroke="midnightblue" d="M717.052,-127.47C613.94,-114.989 390.023,-87.8854 287.367,-75.4597"/>
<polygon fill="midnightblue" stroke="midnightblue" points="287.577,-71.9597 277.229,-74.2326 286.736,-78.9089 287.577,-71.9597"/>
</g>
<!-- Node10 -->
<g id="node19" class="node"><title>Node10</title>
<a xlink:href="memory_8h.html" target="_top" xlink:title="base/std_ext/memory.h">
<polygon fill="white" stroke="black" points="12.5,-58.5 12.5,-79.5 131.5,-79.5 131.5,-58.5 12.5,-58.5"/>
<text text-anchor="middle" x="72" y="-66.5" font-family="Helvetica,sans-Serif" font-size="10.00">base/std_ext/memory.h</text>
</a>
</g>
<!-- Node1&#45;&gt;Node10 -->
<g id="edge18" class="edge"><title>Node1&#45;&gt;Node10</title>
<path fill="none" stroke="midnightblue" d="M717.387,-129.234C613.871,-119.998 379.28,-98.907 182,-80 168.983,-78.7525 155.104,-77.3899 141.742,-76.0617"/>
<polygon fill="midnightblue" stroke="midnightblue" points="141.947,-72.5649 131.649,-75.0553 141.252,-79.5303 141.947,-72.5649"/>
</g>
<!-- Node11 -->
<g id="node23" class="node"><title>Node11</title>
<a xlink:href="string_8h.html" target="_top" xlink:title="base/std_ext/string.h">
<polygon fill="white" stroke="black" points="344,-58.5 344,-79.5 452,-79.5 452,-58.5 344,-58.5"/>
<text text-anchor="middle" x="398" y="-66.5" font-family="Helvetica,sans-Serif" font-size="10.00">base/std_ext/string.h</text>
</a>
</g>
<!-- Node1&#45;&gt;Node11 -->
<g id="edge24" class="edge"><title>Node1&#45;&gt;Node11</title>
<path fill="none" stroke="midnightblue" d="M717.161,-124.618C649.625,-112.849 533.967,-92.694 461.983,-80.1499"/>
<polygon fill="midnightblue" stroke="midnightblue" points="462.578,-76.7009 452.126,-78.4321 461.376,-83.597 462.578,-76.7009"/>
</g>
<!-- Node12 -->
<g id="node26" class="node"><title>Node12</title>
<polygon fill="white" stroke="#bfbfbf" points="438,-0.5 438,-21.5 490,-21.5 490,-0.5 438,-0.5"/>
<text text-anchor="middle" x="464" y="-8.5" font-family="Helvetica,sans-Serif" font-size="10.00">sstream</text>
</g>
<!-- Node1&#45;&gt;Node12 -->
<g id="edge56" class="edge"><title>Node1&#45;&gt;Node12</title>
<path fill="none" stroke="midnightblue" d="M717.245,-126.297C654.775,-116.648 556.142,-99.0551 524,-80 503.339,-67.751 486.141,-45.878 475.531,-30.0361"/>
<polygon fill="midnightblue" stroke="midnightblue" points="478.414,-28.0495 470.068,-21.5238 472.523,-31.8302 478.414,-28.0495"/>
</g>
<!-- Node13 -->
<g id="node28" class="node"><title>Node13</title>
<polygon fill="white" stroke="#bfbfbf" points="508,-0.5 508,-21.5 564,-21.5 564,-0.5 508,-0.5"/>
<text text-anchor="middle" x="536" y="-8.5" font-family="Helvetica,sans-Serif" font-size="10.00">algorithm</text>
</g>
<!-- Node1&#45;&gt;Node13 -->
<g id="edge60" class="edge"><title>Node1&#45;&gt;Node13</title>
<path fill="none" stroke="midnightblue" d="M717.33,-129.177C655.429,-122.382 559.296,-107.614 537,-80 526.22,-66.6486 527.19,-46.6372 530.136,-31.5981"/>
<polygon fill="midnightblue" stroke="midnightblue" points="533.583,-32.2308 532.491,-21.6924 526.773,-30.6118 533.583,-32.2308"/>
</g>
<!-- Node14 -->
<g id="node31" class="node"><title>Node14</title>
<a xlink:href="_logger_8h.html" target="_top" xlink:title="base/Logger.h">
<polygon fill="white" stroke="black" points="546,-58.5 546,-79.5 624,-79.5 624,-58.5 546,-58.5"/>
<text text-anchor="middle" x="585" y="-66.5" font-family="Helvetica,sans-Serif" font-size="10.00">base/Logger.h</text>
</a>
</g>
<!-- Node1&#45;&gt;Node14 -->
<g id="edge34" class="edge"><title>Node1&#45;&gt;Node14</title>
<path fill="none" stroke="midnightblue" d="M722.131,-116.922C691.802,-106.323 653.321,-92.8758 624.848,-82.9253"/>
<polygon fill="midnightblue" stroke="midnightblue" points="625.818,-79.557 615.224,-79.562 623.509,-86.1651 625.818,-79.557"/>
</g>
<!-- Node16 -->
<g id="node35" class="node"><title>Node16</title>
<polygon fill="white" stroke="#bfbfbf" points="641.5,-58.5 641.5,-79.5 692.5,-79.5 692.5,-58.5 641.5,-58.5"/>
<text text-anchor="middle" x="667" y="-66.5" font-family="Helvetica,sans-Serif" font-size="10.00">TH1D.h</text>
</g>
<!-- Node1&#45;&gt;Node16 -->
<g id="edge38" class="edge"><title>Node1&#45;&gt;Node16</title>
<path fill="none" stroke="midnightblue" d="M743.675,-116.922C727.878,-107.049 708.126,-94.7039 692.626,-85.0164"/>
<polygon fill="midnightblue" stroke="midnightblue" points="694.388,-81.9904 684.053,-79.6584 690.678,-87.9264 694.388,-81.9904"/>
</g>
<!-- Node17 -->
<g id="node37" class="node"><title>Node17</title>
<polygon fill="white" stroke="#bfbfbf" points="709.5,-58.5 709.5,-79.5 760.5,-79.5 760.5,-58.5 709.5,-58.5"/>
<text text-anchor="middle" x="735" y="-66.5" font-family="Helvetica,sans-Serif" font-size="10.00">TH2D.h</text>
</g>
<!-- Node1&#45;&gt;Node17 -->
<g id="edge40" class="edge"><title>Node1&#45;&gt;Node17</title>
<path fill="none" stroke="midnightblue" d="M761.541,-116.922C756.768,-108.304 750.952,-97.8018 745.982,-88.8282"/>
<polygon fill="midnightblue" stroke="midnightblue" points="748.917,-86.9042 741.01,-79.8521 742.794,-90.2958 748.917,-86.9042"/>
</g>
<!-- Node18 -->
<g id="node39" class="node"><title>Node18</title>
<polygon fill="white" stroke="#bfbfbf" points="777.5,-58.5 777.5,-79.5 836.5,-79.5 836.5,-58.5 777.5,-58.5"/>
<text text-anchor="middle" x="807" y="-66.5" font-family="Helvetica,sans-Serif" font-size="10.00">TObject.h</text>
</g>
<!-- Node1&#45;&gt;Node18 -->
<g id="edge42" class="edge"><title>Node1&#45;&gt;Node18</title>
<path fill="none" stroke="midnightblue" d="M780.459,-116.922C785.232,-108.304 791.048,-97.8018 796.018,-88.8282"/>
<polygon fill="midnightblue" stroke="midnightblue" points="799.206,-90.2958 800.99,-79.8521 793.083,-86.9042 799.206,-90.2958"/>
</g>
<!-- Node19 -->
<g id="node41" class="node"><title>Node19</title>
<polygon fill="white" stroke="#bfbfbf" points="854,-58.5 854,-79.5 916,-79.5 916,-58.5 854,-58.5"/>
<text text-anchor="middle" x="885" y="-66.5" font-family="Helvetica,sans-Serif" font-size="10.00">TNamed.h</text>
</g>
<!-- Node1&#45;&gt;Node19 -->
<g id="edge44" class="edge"><title>Node1&#45;&gt;Node19</title>
<path fill="none" stroke="midnightblue" d="M800.952,-116.922C818.43,-106.957 840.324,-94.4729 857.385,-84.7455"/>
<polygon fill="midnightblue" stroke="midnightblue" points="859.353,-87.6521 866.307,-79.6584 855.886,-81.5711 859.353,-87.6521"/>
</g>
<!-- Node20 -->
<g id="node43" class="node"><title>Node20</title>
<polygon fill="white" stroke="#bfbfbf" points="933.5,-58.5 933.5,-79.5 998.5,-79.5 998.5,-58.5 933.5,-58.5"/>
<text text-anchor="middle" x="966" y="-66.5" font-family="Helvetica,sans-Serif" font-size="10.00">TCanvas.h</text>
</g>
<!-- Node1&#45;&gt;Node20 -->
<g id="edge46" class="edge"><title>Node1&#45;&gt;Node20</title>
<path fill="none" stroke="midnightblue" d="M822.234,-116.922C854.169,-106.277 894.725,-92.7583 924.614,-82.7952"/>
<polygon fill="midnightblue" stroke="midnightblue" points="925.934,-86.0447 934.314,-79.562 923.72,-79.4039 925.934,-86.0447"/>
</g>
<!-- Node21 -->
<g id="node45" class="node"><title>Node21</title>
<polygon fill="white" stroke="#bfbfbf" points="1015.5,-58.5 1015.5,-79.5 1074.5,-79.5 1074.5,-58.5 1015.5,-58.5"/>
<text text-anchor="middle" x="1045" y="-66.5" font-family="Helvetica,sans-Serif" font-size="10.00">TROOT.h</text>
</g>
<!-- Node1&#45;&gt;Node21 -->
<g id="edge48" class="edge"><title>Node1&#45;&gt;Node21</title>
<path fill="none" stroke="midnightblue" d="M824.636,-122.638C870.358,-112.746 938.035,-97.6195 1005.26,-80.3679"/>
<polygon fill="midnightblue" stroke="midnightblue" points="1006.37,-83.6973 1015.17,-77.8076 1004.62,-76.9197 1006.37,-83.6973"/>
</g>
<!-- Node22 -->
<g id="node47" class="node"><title>Node22</title>
<polygon fill="white" stroke="#bfbfbf" points="1092,-58.5 1092,-79.5 1156,-79.5 1156,-58.5 1092,-58.5"/>
<text text-anchor="middle" x="1124" y="-66.5" font-family="Helvetica,sans-Serif" font-size="10.00">THStack.h</text>
</g>
<!-- Node1&#45;&gt;Node22 -->
<g id="edge50" class="edge"><title>Node1&#45;&gt;Node22</title>
<path fill="none" stroke="midnightblue" d="M824.562,-126.243C884.871,-117.171 985.951,-100.954 1081.97,-80.0902"/>
<polygon fill="midnightblue" stroke="midnightblue" points="1082.82,-83.4859 1091.84,-77.9243 1081.32,-76.6486 1082.82,-83.4859"/>
</g>
<!-- Node23 -->
<g id="node49" class="node"><title>Node23</title>
<polygon fill="white" stroke="#bfbfbf" points="1174,-58.5 1174,-79.5 1250,-79.5 1250,-58.5 1174,-58.5"/>
<text text-anchor="middle" x="1212" y="-66.5" font-family="Helvetica,sans-Serif" font-size="10.00">TVirtualPad.h</text>
</g>
<!-- Node1&#45;&gt;Node23 -->
<g id="edge52" class="edge"><title>Node1&#45;&gt;Node23</title>
<path fill="none" stroke="midnightblue" d="M824.787,-128.246C898.947,-119.955 1036.93,-103.248 1163.94,-80.0702"/>
<polygon fill="midnightblue" stroke="midnightblue" points="1164.64,-83.4997 1173.84,-78.2457 1163.37,-76.6156 1164.64,-83.4997"/>
</g>
<!-- Node24 -->
<g id="node51" class="node"><title>Node24</title>
<polygon fill="white" stroke="#bfbfbf" points="1268,-58.5 1268,-79.5 1322,-79.5 1322,-58.5 1268,-58.5"/>
<text text-anchor="middle" x="1295" y="-66.5" font-family="Helvetica,sans-Serif" font-size="10.00">iostream</text>
</g>
<!-- Node1&#45;&gt;Node24 -->
<g id="edge54" class="edge"><title>Node1&#45;&gt;Node24</title>
<path fill="none" stroke="midnightblue" d="M824.584,-131.342C913.107,-126.238 1095.42,-112.721 1257.47,-80.0212"/>
<polygon fill="midnightblue" stroke="midnightblue" points="1258.52,-83.3776 1267.62,-77.9419 1257.12,-76.5199 1258.52,-83.3776"/>
</g>
<!-- Node25 -->
<g id="node54" class="node"><title>Node25</title>
<polygon fill="white" stroke="#bfbfbf" points="1340,-58.5 1340,-79.5 1390,-79.5 1390,-58.5 1340,-58.5"/>
<text text-anchor="middle" x="1365" y="-66.5" font-family="Helvetica,sans-Serif" font-size="10.00">iomanip</text>
</g>
<!-- Node1&#45;&gt;Node25 -->
<g id="edge58" class="edge"><title>Node1&#45;&gt;Node25</title>
<path fill="none" stroke="midnightblue" d="M824.855,-132.678C923.633,-129.416 1140.28,-118.374 1330.04,-79.823"/>
<polygon fill="midnightblue" stroke="midnightblue" points="1330.83,-83.2347 1339.91,-77.7871 1329.41,-76.3789 1330.83,-83.2347"/>
</g>
<!-- Node3 -->
<g id="node5" class="node"><title>Node3</title>
<polygon fill="white" stroke="#bfbfbf" points="317.5,-0.5 317.5,-21.5 358.5,-21.5 358.5,-0.5 317.5,-0.5"/>
<text text-anchor="middle" x="338" y="-8.5" font-family="Helvetica,sans-Serif" font-size="10.00">string</text>
</g>
<!-- Node2&#45;&gt;Node3 -->
<g id="edge4" class="edge"><title>Node2&#45;&gt;Node3</title>
<path fill="none" stroke="midnightblue" d="M253.075,-58.3619C269.055,-49.4502 292.081,-36.6087 310.127,-26.5447"/>
<polygon fill="midnightblue" stroke="midnightblue" points="312.017,-29.4982 319.046,-21.5707 308.607,-23.3846 312.017,-29.4982"/>
</g>
<!-- Node4 -->
<g id="node7" class="node"><title>Node4</title>
<polygon fill="white" stroke="#bfbfbf" points="-0.5,-0.5 -0.5,-21.5 28.5,-21.5 28.5,-0.5 -0.5,-0.5"/>
<text text-anchor="middle" x="14" y="-8.5" font-family="Helvetica,sans-Serif" font-size="10.00">list</text>
</g>
<!-- Node2&#45;&gt;Node4 -->
<g id="edge6" class="edge"><title>Node2&#45;&gt;Node4</title>
<path fill="none" stroke="midnightblue" d="M190.975,-61.4651C152.683,-54.1568 95.1717,-41.7028 38.3753,-22.038"/>
<polygon fill="midnightblue" stroke="midnightblue" points="39.4946,-18.7215 28.8998,-18.6864 37.1603,-25.3208 39.4946,-18.7215"/>
</g>
<!-- Node5 -->
<g id="node9" class="node"><title>Node5</title>
<polygon fill="white" stroke="#bfbfbf" points="376,-0.5 376,-21.5 420,-21.5 420,-0.5 376,-0.5"/>
<text text-anchor="middle" x="398" y="-8.5" font-family="Helvetica,sans-Serif" font-size="10.00">vector</text>
</g>
<!-- Node2&#45;&gt;Node5 -->
<g id="edge8" class="edge"><title>Node2&#45;&gt;Node5</title>
<path fill="none" stroke="midnightblue" d="M263.849,-58.4644C288.858,-49.6341 325.746,-36.6036 366.417,-22.204"/>
<polygon fill="midnightblue" stroke="midnightblue" points="367.728,-25.4528 375.986,-18.8154 365.391,-18.8542 367.728,-25.4528"/>
</g>
<!-- Node6 -->
<g id="node11" class="node"><title>Node6</title>
<polygon fill="white" stroke="#bfbfbf" points="115.5,-0.5 115.5,-21.5 150.5,-21.5 150.5,-0.5 115.5,-0.5"/>
<text text-anchor="middle" x="133" y="-8.5" font-family="Helvetica,sans-Serif" font-size="10.00">map</text>
</g>
<!-- Node2&#45;&gt;Node6 -->
<g id="edge10" class="edge"><title>Node2&#45;&gt;Node6</title>
<path fill="none" stroke="midnightblue" d="M215.475,-58.3619C199.762,-49.3389 177.034,-36.287 159.414,-26.1686"/>
<polygon fill="midnightblue" stroke="midnightblue" points="161.145,-23.1264 150.73,-21.1817 157.659,-29.1967 161.145,-23.1264"/>
</g>
<!-- Node7 -->
<g id="node13" class="node"><title>Node7</title>
<polygon fill="white" stroke="#bfbfbf" points="46,-0.5 46,-21.5 98,-21.5 98,-0.5 46,-0.5"/>
<text text-anchor="middle" x="72" y="-8.5" font-family="Helvetica,sans-Serif" font-size="10.00">memory</text>
</g>
<!-- Node2&#45;&gt;Node7 -->
<g id="edge12" class="edge"><title>Node2&#45;&gt;Node7</title>
<path fill="none" stroke="midnightblue" d="M204.663,-58.4966C177.503,-48.7725 137.041,-34.2864 107.949,-23.8707"/>
<polygon fill="midnightblue" stroke="midnightblue" points="108.768,-20.4464 98.1737,-20.3708 106.409,-27.0368 108.768,-20.4464"/>
</g>
<!-- Node8 -->
<g id="node15" class="node"><title>Node8</title>
<polygon fill="white" stroke="#bfbfbf" points="167.5,-0.5 167.5,-21.5 226.5,-21.5 226.5,-0.5 167.5,-0.5"/>
<text text-anchor="middle" x="197" y="-8.5" font-family="Helvetica,sans-Serif" font-size="10.00">functional</text>
</g>
<!-- Node2&#45;&gt;Node8 -->
<g id="edge14" class="edge"><title>Node2&#45;&gt;Node8</title>
<path fill="none" stroke="midnightblue" d="M227.214,-58.3619C222.207,-50.5131 215.255,-39.6159 209.282,-30.2527"/>
<polygon fill="midnightblue" stroke="midnightblue" points="212.072,-28.1189 203.743,-21.5707 206.171,-31.8837 212.072,-28.1189"/>
</g>
<!-- Node9 -->
<g id="node17" class="node"><title>Node9</title>
<polygon fill="white" stroke="#bfbfbf" points="244,-0.5 244,-21.5 300,-21.5 300,-0.5 244,-0.5"/>
<text text-anchor="middle" x="272" y="-8.5" font-family="Helvetica,sans-Serif" font-size="10.00">Rtypes.h</text>
</g>
<!-- Node2&#45;&gt;Node9 -->
<g id="edge16" class="edge"><title>Node2&#45;&gt;Node9</title>
<path fill="none" stroke="midnightblue" d="M240.97,-58.3619C246.166,-50.4313 253.401,-39.3885 259.578,-29.9606"/>
<polygon fill="midnightblue" stroke="midnightblue" points="262.522,-31.8534 265.074,-21.5707 256.666,-28.0172 262.522,-31.8534"/>
</g>
<!-- Node10&#45;&gt;Node4 -->
<g id="edge22" class="edge"><title>Node10&#45;&gt;Node4</title>
<path fill="none" stroke="midnightblue" d="M61.3619,-58.3619C53.1043,-50.1043 41.4725,-38.4725 31.8029,-28.8029"/>
<polygon fill="midnightblue" stroke="midnightblue" points="34.1166,-26.1669 24.5707,-21.5707 29.1669,-31.1166 34.1166,-26.1669"/>
</g>
<!-- Node10&#45;&gt;Node7 -->
<g id="edge20" class="edge"><title>Node10&#45;&gt;Node7</title>
<path fill="none" stroke="midnightblue" d="M72,-58.3619C72,-50.9219 72,-40.7427 72,-31.7276"/>
<polygon fill="midnightblue" stroke="midnightblue" points="75.5001,-31.5706 72,-21.5707 68.5001,-31.5707 75.5001,-31.5706"/>
</g>
<!-- Node11&#45;&gt;Node3 -->
<g id="edge26" class="edge"><title>Node11&#45;&gt;Node3</title>
<path fill="none" stroke="midnightblue" d="M386.995,-58.3619C378.453,-50.1043 366.42,-38.4725 356.417,-28.8029"/>
<polygon fill="midnightblue" stroke="midnightblue" points="358.558,-26.0044 348.935,-21.5707 353.692,-31.0374 358.558,-26.0044"/>
</g>
<!-- Node11&#45;&gt;Node5 -->
<g id="edge32" class="edge"><title>Node11&#45;&gt;Node5</title>
<path fill="none" stroke="midnightblue" d="M398,-58.3619C398,-50.9219 398,-40.7427 398,-31.7276"/>
<polygon fill="midnightblue" stroke="midnightblue" points="401.5,-31.5706 398,-21.5707 394.5,-31.5707 401.5,-31.5706"/>
</g>
<!-- Node11&#45;&gt;Node12 -->
<g id="edge28" class="edge"><title>Node11&#45;&gt;Node12</title>
<path fill="none" stroke="midnightblue" d="M410.105,-58.3619C419.688,-49.9408 433.264,-38.0105 444.393,-28.2308"/>
<polygon fill="midnightblue" stroke="midnightblue" points="446.77,-30.8009 451.971,-21.5707 442.149,-25.5427 446.77,-30.8009"/>
</g>
<!-- Node11&#45;&gt;Node13 -->
<g id="edge30" class="edge"><title>Node11&#45;&gt;Node13</title>
<path fill="none" stroke="midnightblue" d="M422.991,-58.4966C444.933,-49.2746 477.066,-35.7695 501.464,-25.5153"/>
<polygon fill="midnightblue" stroke="midnightblue" points="502.866,-28.7225 510.729,-21.6212 500.154,-22.2693 502.866,-28.7225"/>
</g>
<!-- Node15 -->
<g id="node33" class="node"><title>Node15</title>
<polygon fill="white" stroke="#bfbfbf" points="581.5,-0.5 581.5,-21.5 696.5,-21.5 696.5,-0.5 581.5,-0.5"/>
<text text-anchor="middle" x="639" y="-8.5" font-family="Helvetica,sans-Serif" font-size="10.00">detail/easylogging++.h</text>
</g>
<!-- Node14&#45;&gt;Node15 -->
<g id="edge36" class="edge"><title>Node14&#45;&gt;Node15</title>
<path fill="none" stroke="midnightblue" d="M594.904,-58.3619C602.516,-50.1861 613.208,-38.7025 622.157,-29.0907"/>
<polygon fill="midnightblue" stroke="midnightblue" points="624.906,-31.2746 629.158,-21.5707 619.783,-26.5046 624.906,-31.2746"/>
</g>
</g>
</svg>
