<?xml version="1.0" encoding="UTF-8" standalone="no"?>
<!DOCTYPE svg PUBLIC "-//W3C//DTD SVG 1.1//EN"
 "http://www.w3.org/Graphics/SVG/1.1/DTD/svg11.dtd">
<!-- Generated by graphviz version 2.26.3 (20100126.1600)
 -->
<!-- Title: ant::Updateable_traits Pages: 1 -->
<svg width="646pt" height="330pt"
 viewBox="0.00 0.00 646.00 330.00" xmlns="http://www.w3.org/2000/svg" xmlns:xlink="http://www.w3.org/1999/xlink">
<g id="graph1" class="graph" transform="scale(1 1) rotate(0) translate(4 326)">
<title>ant::Updateable_traits</title>
<polygon fill="white" stroke="white" points="-4,5 -4,-326 643,-326 643,5 -4,5"/>
<!-- Node1 -->
<g id="node1" class="node"><title>Node1</title>
<polygon fill="#bfbfbf" stroke="black" points="0.5,-115.5 0.5,-136.5 113.5,-136.5 113.5,-115.5 0.5,-115.5"/>
<text text-anchor="middle" x="57" y="-123.5" font-family="Helvetica,sans-Serif" font-size="10.00">ant::Updateable_traits</text>
</g>
<!-- Node2 -->
<g id="node3" class="node"><title>Node2</title>
<a xlink:href="classant_1_1_calibration_1_1_module.html" target="_top" xlink:title="The Module class is typically used for calibrations. ">
<polygon fill="white" stroke="black" points="150,-135.5 150,-156.5 270,-156.5 270,-135.5 150,-135.5"/>
<text text-anchor="middle" x="210" y="-143.5" font-family="Helvetica,sans-Serif" font-size="10.00">ant::Calibration::Module</text>
</a>
</g>
<!-- Node1&#45;&gt;Node2 -->
<g id="edge2" class="edge"><title>Node1&#45;&gt;Node2</title>
<path fill="none" stroke="midnightblue" d="M123.655,-134.713C132.366,-135.852 141.25,-137.013 149.845,-138.137"/>
<polygon fill="midnightblue" stroke="midnightblue" points="123.906,-131.216 113.537,-133.39 122.999,-138.157 123.906,-131.216"/>
</g>
<!-- Node15 -->
<g id="node29" class="node"><title>Node15</title>
<a xlink:href="struct_updateable_item.html" target="_top" xlink:title="UpdateableItem">
<polygon fill="white" stroke="black" points="167,-95.5 167,-116.5 253,-116.5 253,-95.5 167,-95.5"/>
<text text-anchor="middle" x="210" y="-103.5" font-family="Helvetica,sans-Serif" font-size="10.00">UpdateableItem</text>
</a>
</g>
<!-- Node1&#45;&gt;Node15 -->
<g id="edge28" class="edge"><title>Node1&#45;&gt;Node15</title>
<path fill="none" stroke="midnightblue" d="M123.533,-117.303C138.123,-115.396 153.206,-113.424 166.609,-111.672"/>
<polygon fill="midnightblue" stroke="midnightblue" points="122.999,-113.843 113.537,-118.61 123.906,-120.784 122.999,-113.843"/>
</g>
<!-- Node3 -->
<g id="node5" class="node"><title>Node3</title>
<a xlink:href="classant_1_1calibration_1_1_c_b___time_walk.html" target="_top" xlink:title="ant::calibration::CB\l_TimeWalk">
<polygon fill="white" stroke="black" points="323.5,-221 323.5,-255 424.5,-255 424.5,-221 323.5,-221"/>
<text text-anchor="start" x="331.5" y="-242" font-family="Helvetica,sans-Serif" font-size="10.00">ant::calibration::CB</text>
<text text-anchor="middle" x="374" y="-229" font-family="Helvetica,sans-Serif" font-size="10.00">_TimeWalk</text>
</a>
</g>
<!-- Node2&#45;&gt;Node3 -->
<g id="edge4" class="edge"><title>Node2&#45;&gt;Node3</title>
<path fill="none" stroke="midnightblue" d="M231.274,-162.817C250.135,-177.181 278.828,-197.724 306,-212 312.042,-215.174 318.561,-218.166 325.086,-220.912"/>
<polygon fill="midnightblue" stroke="midnightblue" points="233.396,-160.034 223.34,-156.697 229.12,-165.576 233.396,-160.034"/>
</g>
<!-- Node4 -->
<g id="node7" class="node"><title>Node4</title>
<a xlink:href="classant_1_1calibration_1_1_energy.html" target="_top" xlink:title="ant::calibration::Energy">
<polygon fill="white" stroke="black" points="315.5,-181.5 315.5,-202.5 432.5,-202.5 432.5,-181.5 315.5,-181.5"/>
<text text-anchor="middle" x="374" y="-189.5" font-family="Helvetica,sans-Serif" font-size="10.00">ant::calibration::Energy</text>
</a>
</g>
<!-- Node2&#45;&gt;Node4 -->
<g id="edge6" class="edge"><title>Node2&#45;&gt;Node4</title>
<path fill="none" stroke="midnightblue" d="M257.341,-159.278C282.52,-166.341 313.042,-174.902 336.55,-181.496"/>
<polygon fill="midnightblue" stroke="midnightblue" points="258.199,-155.884 247.625,-156.553 256.308,-162.624 258.199,-155.884"/>
</g>
<!-- Node10 -->
<g id="node19" class="node"><title>Node10</title>
<a xlink:href="classant_1_1calibration_1_1_p_i_d___phi_angle.html" target="_top" xlink:title="ant::calibration::PID\l_PhiAngle">
<polygon fill="white" stroke="black" points="322,-129 322,-163 426,-163 426,-129 322,-129"/>
<text text-anchor="start" x="330" y="-150" font-family="Helvetica,sans-Serif" font-size="10.00">ant::calibration::PID</text>
<text text-anchor="middle" x="374" y="-137" font-family="Helvetica,sans-Serif" font-size="10.00">_PhiAngle</text>
</a>
</g>
<!-- Node2&#45;&gt;Node10 -->
<g id="edge18" class="edge"><title>Node2&#45;&gt;Node10</title>
<path fill="none" stroke="midnightblue" d="M280.23,-146C294.239,-146 308.716,-146 321.979,-146"/>
<polygon fill="midnightblue" stroke="midnightblue" points="280.136,-142.5 270.136,-146 280.136,-149.5 280.136,-142.5"/>
</g>
<!-- Node11 -->
<g id="node21" class="node"><title>Node11</title>
<a xlink:href="classant_1_1calibration_1_1_t_a_p_s___to_f.html" target="_top" xlink:title="ant::calibration::TAPS_ToF">
<polygon fill="white" stroke="black" points="306.5,-89.5 306.5,-110.5 441.5,-110.5 441.5,-89.5 306.5,-89.5"/>
<text text-anchor="middle" x="374" y="-97.5" font-family="Helvetica,sans-Serif" font-size="10.00">ant::calibration::TAPS_ToF</text>
</a>
</g>
<!-- Node2&#45;&gt;Node11 -->
<g id="edge20" class="edge"><title>Node2&#45;&gt;Node11</title>
<path fill="none" stroke="midnightblue" d="M257.341,-132.722C282.52,-125.659 313.042,-117.098 336.55,-110.504"/>
<polygon fill="midnightblue" stroke="midnightblue" points="256.308,-129.376 247.625,-135.447 258.199,-136.116 256.308,-129.376"/>
</g>
<!-- Node12 -->
<g id="node23" class="node"><title>Node12</title>
<a xlink:href="classant_1_1calibration_1_1_time.html" target="_top" xlink:title="ant::calibration::Time">
<polygon fill="white" stroke="black" points="320,-40.5 320,-61.5 428,-61.5 428,-40.5 320,-40.5"/>
<text text-anchor="middle" x="374" y="-48.5" font-family="Helvetica,sans-Serif" font-size="10.00">ant::calibration::Time</text>
</a>
</g>
<!-- Node2&#45;&gt;Node12 -->
<g id="edge22" class="edge"><title>Node2&#45;&gt;Node12</title>
<path fill="none" stroke="midnightblue" d="M261.427,-131.198C264.423,-129.627 267.308,-127.899 270,-126 291.216,-111.037 285.411,-95.813 306,-80 316.077,-72.2607 328.53,-66.1703 340.013,-61.6109"/>
<polygon fill="midnightblue" stroke="midnightblue" points="259.805,-128.092 252.19,-135.458 262.736,-134.449 259.805,-128.092"/>
</g>
<!-- Node5 -->
<g id="node9" class="node"><title>Node5</title>
<a xlink:href="classant_1_1calibration_1_1_c_b___energy.html" target="_top" xlink:title="ant::calibration::CB\l_Energy">
<polygon fill="white" stroke="black" points="507.5,-288 507.5,-322 608.5,-322 608.5,-288 507.5,-288"/>
<text text-anchor="start" x="515.5" y="-309" font-family="Helvetica,sans-Serif" font-size="10.00">ant::calibration::CB</text>
<text text-anchor="middle" x="558" y="-296" font-family="Helvetica,sans-Serif" font-size="10.00">_Energy</text>
</a>
</g>
<!-- Node4&#45;&gt;Node5 -->
<g id="edge8" class="edge"><title>Node4&#45;&gt;Node5</title>
<path fill="none" stroke="midnightblue" d="M435.491,-207.415C437.77,-208.813 439.952,-210.337 442,-212 468.245,-233.306 452.058,-257.327 478,-279 486.406,-286.022 496.752,-291.162 507.182,-294.919"/>
<polygon fill="midnightblue" stroke="midnightblue" points="436.784,-204.142 426.298,-202.628 433.551,-210.351 436.784,-204.142"/>
</g>
<!-- Node6 -->
<g id="node11" class="node"><title>Node6</title>
<a xlink:href="classant_1_1calibration_1_1_p_i_d___energy.html" target="_top" xlink:title="ant::calibration::PID\l_Energy">
<polygon fill="white" stroke="black" points="506,-236 506,-270 610,-270 610,-236 506,-236"/>
<text text-anchor="start" x="514" y="-257" font-family="Helvetica,sans-Serif" font-size="10.00">ant::calibration::PID</text>
<text text-anchor="middle" x="558" y="-244" font-family="Helvetica,sans-Serif" font-size="10.00">_Energy</text>
</a>
</g>
<!-- Node4&#45;&gt;Node6 -->
<g id="edge10" class="edge"><title>Node4&#45;&gt;Node6</title>
<path fill="none" stroke="midnightblue" d="M422.345,-205.514C428.986,-207.575 435.687,-209.764 442,-212 458.339,-217.787 461.745,-220.983 478,-227 486.902,-230.295 496.441,-233.593 505.72,-236.68"/>
<polygon fill="midnightblue" stroke="midnightblue" points="423.299,-202.145 412.713,-202.595 421.269,-208.845 423.299,-202.145"/>
</g>
<!-- Node7 -->
<g id="node13" class="node"><title>Node7</title>
<a xlink:href="classant_1_1calibration_1_1_t_a_p_s___energy.html" target="_top" xlink:title="ant::calibration::TAPS\l_Energy">
<polygon fill="white" stroke="black" points="501.5,-184 501.5,-218 614.5,-218 614.5,-184 501.5,-184"/>
<text text-anchor="start" x="509.5" y="-205" font-family="Helvetica,sans-Serif" font-size="10.00">ant::calibration::TAPS</text>
<text text-anchor="middle" x="558" y="-192" font-family="Helvetica,sans-Serif" font-size="10.00">_Energy</text>
</a>
</g>
<!-- Node4&#45;&gt;Node7 -->
<g id="edge12" class="edge"><title>Node4&#45;&gt;Node7</title>
<path fill="none" stroke="midnightblue" d="M442.953,-195.373C462.223,-196.315 482.935,-197.328 501.401,-198.232"/>
<polygon fill="midnightblue" stroke="midnightblue" points="442.884,-191.865 432.725,-194.872 442.542,-198.857 442.884,-191.865"/>
</g>
<!-- Node8 -->
<g id="node15" class="node"><title>Node8</title>
<a xlink:href="classant_1_1calibration_1_1_t_a_p_s___short_energy.html" target="_top" xlink:title="ant::calibration::TAPS\l_ShortEnergy">
<polygon fill="white" stroke="black" points="501.5,-132 501.5,-166 614.5,-166 614.5,-132 501.5,-132"/>
<text text-anchor="start" x="509.5" y="-153" font-family="Helvetica,sans-Serif" font-size="10.00">ant::calibration::TAPS</text>
<text text-anchor="middle" x="558" y="-140" font-family="Helvetica,sans-Serif" font-size="10.00">_ShortEnergy</text>
</a>
</g>
<!-- Node4&#45;&gt;Node8 -->
<g id="edge14" class="edge"><title>Node4&#45;&gt;Node8</title>
<path fill="none" stroke="midnightblue" d="M428.885,-179.174C451.72,-173.837 478.22,-167.644 501.248,-162.263"/>
<polygon fill="midnightblue" stroke="midnightblue" points="427.953,-175.797 419.011,-181.481 429.546,-182.613 427.953,-175.797"/>
</g>
<!-- Node9 -->
<g id="node17" class="node"><title>Node9</title>
<a xlink:href="classant_1_1calibration_1_1_t_a_p_s_veto___energy.html" target="_top" xlink:title="ant::calibration::TAPSVeto\l_Energy">
<polygon fill="white" stroke="black" points="491.5,-80 491.5,-114 624.5,-114 624.5,-80 491.5,-80"/>
<text text-anchor="start" x="499.5" y="-101" font-family="Helvetica,sans-Serif" font-size="10.00">ant::calibration::TAPSVeto</text>
<text text-anchor="middle" x="558" y="-88" font-family="Helvetica,sans-Serif" font-size="10.00">_Energy</text>
</a>
</g>
<!-- Node4&#45;&gt;Node9 -->
<g id="edge16" class="edge"><title>Node4&#45;&gt;Node9</title>
<path fill="none" stroke="midnightblue" d="M433.36,-177.2C436.377,-175.636 439.28,-173.908 442,-172 464.125,-156.484 456.096,-138.827 478,-123 482.617,-119.664 487.683,-116.742 492.956,-114.183"/>
<polygon fill="midnightblue" stroke="midnightblue" points="431.704,-174.108 424.038,-181.421 434.591,-180.485 431.704,-174.108"/>
</g>
<!-- Node13 -->
<g id="node25" class="node"><title>Node13</title>
<a xlink:href="classant_1_1calibration_1_1_t_a_p_s___time.html" target="_top" xlink:title="ant::calibration::TAPS_Time">
<polygon fill="white" stroke="black" points="488,-40.5 488,-61.5 628,-61.5 628,-40.5 488,-40.5"/>
<text text-anchor="middle" x="558" y="-48.5" font-family="Helvetica,sans-Serif" font-size="10.00">ant::calibration::TAPS_Time</text>
</a>
</g>
<!-- Node12&#45;&gt;Node13 -->
<g id="edge24" class="edge"><title>Node12&#45;&gt;Node13</title>
<path fill="none" stroke="midnightblue" d="M438.489,-51C454.429,-51 471.583,-51 487.781,-51"/>
<polygon fill="midnightblue" stroke="midnightblue" points="438.211,-47.5001 428.211,-51 438.211,-54.5001 438.211,-47.5001"/>
</g>
<!-- Node14 -->
<g id="node27" class="node"><title>Node14</title>
<a xlink:href="classant_1_1calibration_1_1_t_a_p_s_veto___time.html" target="_top" xlink:title="ant::calibration::TAPSVeto_Time">
<polygon fill="white" stroke="black" points="478,-0.5 478,-21.5 638,-21.5 638,-0.5 478,-0.5"/>
<text text-anchor="middle" x="558" y="-8.5" font-family="Helvetica,sans-Serif" font-size="10.00">ant::calibration::TAPSVeto_Time</text>
</a>
</g>
<!-- Node12&#45;&gt;Node14 -->
<g id="edge26" class="edge"><title>Node12&#45;&gt;Node14</title>
<path fill="none" stroke="midnightblue" d="M432.393,-38.3059C457.286,-32.8944 485.984,-26.6557 509.66,-21.5087"/>
<polygon fill="midnightblue" stroke="midnightblue" points="431.372,-34.946 422.344,-40.4905 432.859,-41.7862 431.372,-34.946"/>
</g>
</g>
</svg>
