<?xml version="1.0" encoding="UTF-8" standalone="no"?>
<!DOCTYPE svg PUBLIC "-//W3C//DTD SVG 1.1//EN"
 "http://www.w3.org/Graphics/SVG/1.1/DTD/svg11.dtd">
<!-- Generated by graphviz version 2.26.3 (20100126.1600)
 -->
<!-- Title: ant::analysis::utils::UncertaintyModels::ConstantRelativeE Pages: 1 -->
<svg width="484pt" height="109pt"
 viewBox="0.00 0.00 484.00 109.00" xmlns="http://www.w3.org/2000/svg" xmlns:xlink="http://www.w3.org/1999/xlink">
<g id="graph1" class="graph" transform="scale(1 1) rotate(0) translate(4 105)">
<title>ant::analysis::utils::UncertaintyModels::ConstantRelativeE</title>
<polygon fill="white" stroke="white" points="-4,5 -4,-105 481,-105 481,5 -4,5"/>
<!-- Node1 -->
<g id="node1" class="node"><title>Node1</title>
<polygon fill="#bfbfbf" stroke="black" points="366,-26.5 366,-73.5 476,-73.5 476,-26.5 366,-26.5"/>
<text text-anchor="start" x="374" y="-60.5" font-family="Helvetica,sans-Serif" font-size="10.00">ant::analysis::utils</text>
<text text-anchor="start" x="374" y="-47.5" font-family="Helvetica,sans-Serif" font-size="10.00">::UncertaintyModels::</text>
<text text-anchor="middle" x="421" y="-34.5" font-family="Helvetica,sans-Serif" font-size="10.00">ConstantRelativeE</text>
</g>
<!-- Node2 -->
<g id="node2" class="node"><title>Node2</title>
<a xlink:href="structant_1_1analysis_1_1utils_1_1_uncertainty_models_1_1_constant.html" target="_top" xlink:title="Constant/static kin fitter uncertainty model. has a fixed value for {cb,taps}{photon,proton}{E,theta,phi}. ">
<polygon fill="white" stroke="black" points="218,-26.5 218,-73.5 328,-73.5 328,-26.5 218,-26.5"/>
<text text-anchor="start" x="226" y="-60.5" font-family="Helvetica,sans-Serif" font-size="10.00">ant::analysis::utils</text>
<text text-anchor="start" x="226" y="-47.5" font-family="Helvetica,sans-Serif" font-size="10.00">::UncertaintyModels::</text>
<text text-anchor="middle" x="273" y="-34.5" font-family="Helvetica,sans-Serif" font-size="10.00">Constant</text>
</a>
</g>
<!-- Node2&#45;&gt;Node1 -->
<g id="edge2" class="edge"><title>Node2&#45;&gt;Node1</title>
<path fill="none" stroke="midnightblue" d="M338.36,-50C347.533,-50 356.886,-50 365.844,-50"/>
<polygon fill="midnightblue" stroke="midnightblue" points="338.11,-46.5001 328.11,-50 338.11,-53.5001 338.11,-46.5001"/>
</g>
<!-- Node3 -->
<g id="node4" class="node"><title>Node3</title>
<a xlink:href="classant_1_1analysis_1_1utils_1_1_fitter_1_1_uncertainty_model.html" target="_top" xlink:title="Virtual base class for different Uncertainty Models for kion fitter. Derive and implement the GetSigm...">
<polygon fill="white" stroke="black" points="0,-67 0,-101 128,-101 128,-67 0,-67"/>
<text text-anchor="start" x="8" y="-88" font-family="Helvetica,sans-Serif" font-size="10.00">ant::analysis::utils</text>
<text text-anchor="middle" x="64" y="-75" font-family="Helvetica,sans-Serif" font-size="10.00">::Fitter::UncertaintyModel</text>
</a>
</g>
<!-- Node3&#45;&gt;Node2 -->
<g id="edge4" class="edge"><title>Node3&#45;&gt;Node2</title>
<path fill="none" stroke="midnightblue" d="M138.347,-78.5816C158.453,-76.5091 180.141,-73.7163 200,-70 205.812,-68.9123 211.837,-67.589 217.82,-66.1466"/>
<polygon fill="midnightblue" stroke="midnightblue" points="137.917,-75.1069 128.309,-79.5713 138.604,-82.0731 137.917,-75.1069"/>
</g>
<!-- Node4 -->
<g id="node6" class="node"><title>Node4</title>
<a xlink:href="structant_1_1analysis_1_1utils_1_1_fitter_1_1_uncertainties__t.html" target="_top" xlink:title="Uncertainties for E, theta, and phi. ">
<polygon fill="white" stroke="black" points="5.5,-0 5.5,-34 122.5,-34 122.5,-0 5.5,-0"/>
<text text-anchor="start" x="13.5" y="-21" font-family="Helvetica,sans-Serif" font-size="10.00">ant::analysis::utils</text>
<text text-anchor="middle" x="64" y="-8" font-family="Helvetica,sans-Serif" font-size="10.00">::Fitter::Uncertainties_t</text>
</a>
</g>
<!-- Node4&#45;&gt;Node2 -->
<g id="edge6" class="edge"><title>Node4&#45;&gt;Node2</title>
<path fill="none" stroke="#9a32cd" stroke-dasharray="5,2" d="M132.913,-12.127C154.584,-12.0252 178.47,-13.4057 200,-18 208.932,-19.906 218.11,-22.9562 226.815,-26.4339"/>
<polygon fill="#9a32cd" stroke="#9a32cd" points="132.748,-8.62905 122.802,-12.2801 132.853,-15.6282 132.748,-8.62905"/>
<text text-anchor="middle" x="173" y="-61" font-family="Helvetica,sans-Serif" font-size="10.00"> proton_cb</text>
<text text-anchor="middle" x="173" y="-48" font-family="Helvetica,sans-Serif" font-size="10.00">photon_taps</text>
<text text-anchor="middle" x="173" y="-35" font-family="Helvetica,sans-Serif" font-size="10.00">proton_taps</text>
<text text-anchor="middle" x="173" y="-22" font-family="Helvetica,sans-Serif" font-size="10.00">photon_cb</text>
</g>
</g>
</svg>
