<?xml version="1.0" encoding="UTF-8" standalone="no"?>
<!DOCTYPE svg PUBLIC "-//W3C//DTD SVG 1.1//EN"
 "http://www.w3.org/Graphics/SVG/1.1/DTD/svg11.dtd">
<!-- Generated by graphviz version 2.26.3 (20100126.1600)
 -->
<!-- Title: RefHist_t Pages: 1 -->
<svg width="136pt" height="282pt"
 viewBox="0.00 0.00 136.00 282.00" xmlns="http://www.w3.org/2000/svg" xmlns:xlink="http://www.w3.org/1999/xlink">
<g id="graph1" class="graph" transform="scale(1 1) rotate(0) translate(4 278)">
<title>RefHist_t</title>
<polygon fill="white" stroke="white" points="-4,5 -4,-278 133,-278 133,5 -4,5"/>
<!-- Node1 -->
<g id="node1" class="node"><title>Node1</title>
<polygon fill="#bfbfbf" stroke="black" points="34.5,-0.5 34.5,-21.5 93.5,-21.5 93.5,-0.5 34.5,-0.5"/>
<text text-anchor="middle" x="64" y="-8.5" font-family="Helvetica,sans-Serif" font-size="10.00">RefHist_t</text>
</g>
<!-- Node2 -->
<g id="node2" class="node"><title>Node2</title>
<a xlink:href="struct_common_hist__t.html" target="_top" xlink:title="CommonHist_t">
<polygon fill="white" stroke="black" points="22.5,-60.5 22.5,-81.5 105.5,-81.5 105.5,-60.5 22.5,-60.5"/>
<text text-anchor="middle" x="64" y="-68.5" font-family="Helvetica,sans-Serif" font-size="10.00">CommonHist_t</text>
</a>
</g>
<!-- Node2&#45;&gt;Node1 -->
<g id="edge2" class="edge"><title>Node2&#45;&gt;Node1</title>
<path fill="none" stroke="midnightblue" d="M64,-50.2312C64,-40.5922 64,-29.5444 64,-21.6339"/>
<polygon fill="midnightblue" stroke="midnightblue" points="60.5001,-50.2732 64,-60.2732 67.5001,-50.2732 60.5001,-50.2732"/>
</g>
<!-- Node3 -->
<g id="node4" class="node"><title>Node3</title>
<a xlink:href="classant_1_1analysis_1_1_bin_settings.html" target="_top" xlink:title="ant::analysis::BinSettings">
<polygon fill="white" stroke="black" points="0,-132.5 0,-153.5 128,-153.5 128,-132.5 0,-132.5"/>
<text text-anchor="middle" x="64" y="-140.5" font-family="Helvetica,sans-Serif" font-size="10.00">ant::analysis::BinSettings</text>
</a>
</g>
<!-- Node3&#45;&gt;Node2 -->
<g id="edge4" class="edge"><title>Node3&#45;&gt;Node2</title>
<path fill="none" stroke="#9a32cd" stroke-dasharray="5,2" d="M64,-122.235C64,-108.969 64,-92.3188 64,-81.6674"/>
<polygon fill="#9a32cd" stroke="#9a32cd" points="60.5001,-122.376 64,-132.376 67.5001,-122.376 60.5001,-122.376"/>
<text text-anchor="middle" x="93" y="-104.5" font-family="Helvetica,sans-Serif" font-size="10.00"> bins_FitProb</text>
</g>
<!-- Node4 -->
<g id="node6" class="node"><title>Node4</title>
<a xlink:href="classant_1_1interval.html" target="_top" xlink:title="ant::interval\&lt; double \&gt;">
<polygon fill="white" stroke="black" points="7,-192.5 7,-213.5 121,-213.5 121,-192.5 7,-192.5"/>
<text text-anchor="middle" x="64" y="-200.5" font-family="Helvetica,sans-Serif" font-size="10.00">ant::interval&lt; double &gt;</text>
</a>
</g>
<!-- Node4&#45;&gt;Node3 -->
<g id="edge6" class="edge"><title>Node4&#45;&gt;Node3</title>
<path fill="none" stroke="midnightblue" d="M64,-182.231C64,-172.592 64,-161.544 64,-153.634"/>
<polygon fill="midnightblue" stroke="midnightblue" points="60.5001,-182.273 64,-192.273 67.5001,-182.273 60.5001,-182.273"/>
</g>
<!-- Node5 -->
<g id="node8" class="node"><title>Node5</title>
<a xlink:href="classant_1_1printable__traits.html" target="_top" xlink:title="ant::printable_traits">
<polygon fill="white" stroke="black" points="14,-252.5 14,-273.5 114,-273.5 114,-252.5 14,-252.5"/>
<text text-anchor="middle" x="64" y="-260.5" font-family="Helvetica,sans-Serif" font-size="10.00">ant::printable_traits</text>
</a>
</g>
<!-- Node5&#45;&gt;Node4 -->
<g id="edge8" class="edge"><title>Node5&#45;&gt;Node4</title>
<path fill="none" stroke="midnightblue" d="M64,-242.231C64,-232.592 64,-221.544 64,-213.634"/>
<polygon fill="midnightblue" stroke="midnightblue" points="60.5001,-242.273 64,-252.273 67.5001,-242.273 60.5001,-242.273"/>
</g>
</g>
</svg>
