<?xml version="1.0" encoding="UTF-8" standalone="no"?>
<!DOCTYPE svg PUBLIC "-//W3C//DTD SVG 1.1//EN"
 "http://www.w3.org/Graphics/SVG/1.1/DTD/svg11.dtd">
<!-- Generated by graphviz version 2.26.3 (20100126.1600)
 -->
<!-- Title: ant::expconfig::detector::EPT_2014 Pages: 1 -->
<svg width="968pt" height="186pt"
 viewBox="0.00 0.00 968.00 186.00" xmlns="http://www.w3.org/2000/svg" xmlns:xlink="http://www.w3.org/1999/xlink">
<g id="graph1" class="graph" transform="scale(1 1) rotate(0) translate(4 182)">
<title>ant::expconfig::detector::EPT_2014</title>
<polygon fill="white" stroke="white" points="-4,5 -4,-182 965,-182 965,5 -4,5"/>
<!-- Node1 -->
<g id="node1" class="node"><title>Node1</title>
<polygon fill="#bfbfbf" stroke="black" points="840.5,-50 840.5,-84 959.5,-84 959.5,-50 840.5,-50"/>
<text text-anchor="start" x="848.5" y="-71" font-family="Helvetica,sans-Serif" font-size="10.00">ant::expconfig::detector</text>
<text text-anchor="middle" x="900" y="-58" font-family="Helvetica,sans-Serif" font-size="10.00">::EPT_2014</text>
</g>
<!-- Node2 -->
<g id="node2" class="node"><title>Node2</title>
<a xlink:href="structant_1_1expconfig_1_1detector_1_1_e_p_t.html" target="_top" xlink:title="ant::expconfig::detector::EPT">
<polygon fill="white" stroke="black" points="596.5,-79.5 596.5,-100.5 741.5,-100.5 741.5,-79.5 596.5,-79.5"/>
<text text-anchor="middle" x="669" y="-87.5" font-family="Helvetica,sans-Serif" font-size="10.00">ant::expconfig::detector::EPT</text>
</a>
</g>
<!-- Node2&#45;&gt;Node1 -->
<g id="edge2" class="edge"><title>Node2&#45;&gt;Node1</title>
<path fill="none" stroke="midnightblue" d="M751.969,-81.739C781.19,-78.8296 813.436,-75.6189 840.352,-72.939"/>
<polygon fill="midnightblue" stroke="midnightblue" points="751.377,-78.2806 741.773,-82.7542 752.07,-85.2461 751.377,-78.2806"/>
</g>
<!-- Node3 -->
<g id="node4" class="node"><title>Node3</title>
<a xlink:href="structant_1_1_tagger_detector__t.html" target="_top" xlink:title="ant::TaggerDetector_t">
<polygon fill="white" stroke="black" points="374,-152.5 374,-173.5 486,-173.5 486,-152.5 374,-152.5"/>
<text text-anchor="middle" x="430" y="-160.5" font-family="Helvetica,sans-Serif" font-size="10.00">ant::TaggerDetector_t</text>
</a>
</g>
<!-- Node3&#45;&gt;Node2 -->
<g id="edge4" class="edge"><title>Node3&#45;&gt;Node2</title>
<path fill="none" stroke="midnightblue" d="M476.176,-149.524C505.405,-140.931 543.969,-129.48 578,-119 597.333,-113.046 618.907,-106.181 636.194,-100.625"/>
<polygon fill="midnightblue" stroke="midnightblue" points="474.859,-146.263 466.249,-152.438 476.83,-152.979 474.859,-146.263"/>
</g>
<!-- Node4 -->
<g id="node6" class="node"><title>Node4</title>
<a xlink:href="structant_1_1_detector__t.html" target="_top" xlink:title="The Detector_t struct is the minimal base class for all detectors. ">
<polygon fill="white" stroke="black" points="172,-156.5 172,-177.5 254,-177.5 254,-156.5 172,-156.5"/>
<text text-anchor="middle" x="213" y="-164.5" font-family="Helvetica,sans-Serif" font-size="10.00">ant::Detector_t</text>
</a>
</g>
<!-- Node4&#45;&gt;Node3 -->
<g id="edge6" class="edge"><title>Node4&#45;&gt;Node3</title>
<path fill="none" stroke="midnightblue" d="M264.399,-166.053C297.347,-165.445 340.118,-164.657 373.939,-164.033"/>
<polygon fill="midnightblue" stroke="midnightblue" points="264.005,-162.559 254.071,-166.243 264.134,-169.558 264.005,-162.559"/>
</g>
<!-- Node5 -->
<g id="node8" class="node"><title>Node5</title>
<a xlink:href="classant_1_1printable__traits.html" target="_top" xlink:title="ant::printable_traits">
<polygon fill="white" stroke="black" points="5,-156.5 5,-177.5 105,-177.5 105,-156.5 5,-156.5"/>
<text text-anchor="middle" x="55" y="-164.5" font-family="Helvetica,sans-Serif" font-size="10.00">ant::printable_traits</text>
</a>
</g>
<!-- Node5&#45;&gt;Node4 -->
<g id="edge8" class="edge"><title>Node5&#45;&gt;Node4</title>
<path fill="none" stroke="midnightblue" d="M115.668,-167C134.424,-167 154.639,-167 171.761,-167"/>
<polygon fill="midnightblue" stroke="midnightblue" points="115.427,-163.5 105.427,-167 115.427,-170.5 115.427,-163.5"/>
</g>
<!-- Node6 -->
<g id="node10" class="node"><title>Node6</title>
<a xlink:href="classant_1_1_unpacker_acqu_config.html" target="_top" xlink:title="ant::UnpackerAcquConfig">
<polygon fill="white" stroke="black" points="365.5,-108.5 365.5,-129.5 494.5,-129.5 494.5,-108.5 365.5,-108.5"/>
<text text-anchor="middle" x="430" y="-116.5" font-family="Helvetica,sans-Serif" font-size="10.00">ant::UnpackerAcquConfig</text>
</a>
</g>
<!-- Node6&#45;&gt;Node2 -->
<g id="edge10" class="edge"><title>Node6&#45;&gt;Node2</title>
<path fill="none" stroke="midnightblue" d="M504.807,-109.923C533.976,-106.384 567.295,-102.341 596.262,-98.826"/>
<polygon fill="midnightblue" stroke="midnightblue" points="504.182,-106.473 494.677,-111.152 505.026,-113.422 504.182,-106.473"/>
</g>
<!-- Node7 -->
<g id="node12" class="node"><title>Node7</title>
<a xlink:href="classant_1_1_exp_config_1_1_unpacker.html" target="_top" xlink:title="ant::ExpConfig::Unpacker\l\&lt; UnpackerAcquConfig \&gt;">
<polygon fill="white" stroke="black" points="148,-104 148,-138 278,-138 278,-104 148,-104"/>
<text text-anchor="start" x="156" y="-125" font-family="Helvetica,sans-Serif" font-size="10.00">ant::ExpConfig::Unpacker</text>
<text text-anchor="middle" x="213" y="-112" font-family="Helvetica,sans-Serif" font-size="10.00">&lt; UnpackerAcquConfig &gt;</text>
</a>
</g>
<!-- Node7&#45;&gt;Node6 -->
<g id="edge12" class="edge"><title>Node7&#45;&gt;Node6</title>
<path fill="none" stroke="midnightblue" d="M288.311,-120.306C313.398,-120.075 341.104,-119.819 365.313,-119.596"/>
<polygon fill="midnightblue" stroke="midnightblue" points="288.074,-116.808 278.107,-120.4 288.139,-123.808 288.074,-116.808"/>
</g>
<!-- Node8 -->
<g id="node14" class="node"><title>Node8</title>
<a xlink:href="classant_1_1_exp_config_1_1_base.html" target="_top" xlink:title="ant::ExpConfig::Base">
<polygon fill="white" stroke="black" points="0,-110.5 0,-131.5 110,-131.5 110,-110.5 0,-110.5"/>
<text text-anchor="middle" x="55" y="-118.5" font-family="Helvetica,sans-Serif" font-size="10.00">ant::ExpConfig::Base</text>
</a>
</g>
<!-- Node8&#45;&gt;Node7 -->
<g id="edge14" class="edge"><title>Node8&#45;&gt;Node7</title>
<path fill="none" stroke="midnightblue" d="M120.346,-121C129.395,-121 138.69,-121 147.738,-121"/>
<polygon fill="midnightblue" stroke="midnightblue" points="120.261,-117.5 110.261,-121 120.261,-124.5 120.261,-117.5"/>
</g>
<!-- Node9 -->
<g id="node16" class="node"><title>Node9</title>
<polygon fill="white" stroke="#bfbfbf" points="358.5,-53 358.5,-87 501.5,-87 501.5,-53 358.5,-53"/>
<text text-anchor="start" x="366.5" y="-74" font-family="Helvetica,sans-Serif" font-size="10.00">std::vector&lt; ant::expconfig</text>
<text text-anchor="middle" x="430" y="-61" font-family="Helvetica,sans-Serif" font-size="10.00">::detector::EPT::Element_t &gt;</text>
</g>
<!-- Node9&#45;&gt;Node2 -->
<g id="edge16" class="edge"><title>Node9&#45;&gt;Node2</title>
<path fill="none" stroke="#9a32cd" stroke-dasharray="5,2" d="M512.017,-76.8634C539.324,-79.1484 569.535,-81.6766 596.103,-83.8998"/>
<polygon fill="#9a32cd" stroke="#9a32cd" points="511.965,-73.3468 501.708,-76.0007 511.381,-80.3225 511.965,-73.3468"/>
<text text-anchor="middle" x="549" y="-87" font-family="Helvetica,sans-Serif" font-size="10.00"> elements</text>
</g>
<!-- Node10 -->
<g id="node18" class="node"><title>Node10</title>
<a xlink:href="structant_1_1expconfig_1_1detector_1_1_e_p_t_1_1_element__t.html" target="_top" xlink:title="ant::expconfig::detector\l::EPT::Element_t">
<polygon fill="white" stroke="black" points="153.5,-52 153.5,-86 272.5,-86 272.5,-52 153.5,-52"/>
<text text-anchor="start" x="161.5" y="-73" font-family="Helvetica,sans-Serif" font-size="10.00">ant::expconfig::detector</text>
<text text-anchor="middle" x="213" y="-60" font-family="Helvetica,sans-Serif" font-size="10.00">::EPT::Element_t</text>
</a>
</g>
<!-- Node10&#45;&gt;Node9 -->
<g id="edge18" class="edge"><title>Node10&#45;&gt;Node9</title>
<path fill="none" stroke="#9a32cd" stroke-dasharray="5,2" d="M282.725,-69.3213C306.848,-69.4325 333.915,-69.5572 358.202,-69.6691"/>
<polygon fill="#9a32cd" stroke="#9a32cd" points="282.599,-65.8208 272.583,-69.2746 282.567,-72.8207 282.599,-65.8208"/>
<text text-anchor="middle" x="318" y="-74" font-family="Helvetica,sans-Serif" font-size="10.00"> elements</text>
</g>
<!-- Node11 -->
<g id="node20" class="node"><title>Node11</title>
<a xlink:href="structant_1_1_tagger_detector__t_1_1_element__t.html" target="_top" xlink:title="ant::TaggerDetector\l_t::Element_t">
<polygon fill="white" stroke="black" points="3,-52 3,-86 107,-86 107,-52 3,-52"/>
<text text-anchor="start" x="11" y="-73" font-family="Helvetica,sans-Serif" font-size="10.00">ant::TaggerDetector</text>
<text text-anchor="middle" x="55" y="-60" font-family="Helvetica,sans-Serif" font-size="10.00">_t::Element_t</text>
</a>
</g>
<!-- Node11&#45;&gt;Node10 -->
<g id="edge20" class="edge"><title>Node11&#45;&gt;Node10</title>
<path fill="none" stroke="midnightblue" d="M117.445,-69C129.32,-69 141.718,-69 153.498,-69"/>
<polygon fill="midnightblue" stroke="midnightblue" points="117.173,-65.5001 107.173,-69 117.173,-72.5001 117.173,-65.5001"/>
</g>
<!-- Node12 -->
<g id="node22" class="node"><title>Node12</title>
<a xlink:title="STL class. ">
<polygon fill="white" stroke="#bfbfbf" points="400,-9.5 400,-30.5 460,-30.5 460,-9.5 400,-9.5"/>
<text text-anchor="middle" x="430" y="-17.5" font-family="Helvetica,sans-Serif" font-size="10.00">std::string</text>
</a>
</g>
<!-- Node12&#45;&gt;Node2 -->
<g id="edge22" class="edge"><title>Node12&#45;&gt;Node2</title>
<path fill="none" stroke="#9a32cd" stroke-dasharray="5,2" d="M469.776,-28.8043C499.961,-36.0138 542.225,-47.2495 578,-61 586.349,-64.2089 587.647,-66.8029 596,-70 605.204,-73.5228 615.281,-76.698 624.929,-79.4271"/>
<polygon fill="#9a32cd" stroke="#9a32cd" points="470.565,-25.3944 460.029,-26.5159 468.965,-32.209 470.565,-25.3944"/>
<text text-anchor="middle" x="549" y="-65" font-family="Helvetica,sans-Serif" font-size="10.00"> ScalerName</text>
</g>
<!-- Node13 -->
<g id="node24" class="node"><title>Node13</title>
<a xlink:title="STL class. ">
<polygon fill="white" stroke="#bfbfbf" points="165.5,-0 165.5,-34 260.5,-34 260.5,-0 165.5,-0"/>
<text text-anchor="start" x="173.5" y="-21" font-family="Helvetica,sans-Serif" font-size="10.00">std::basic_string&lt;</text>
<text text-anchor="middle" x="213" y="-8" font-family="Helvetica,sans-Serif" font-size="10.00"> char &gt;</text>
</a>
</g>
<!-- Node13&#45;&gt;Node12 -->
<g id="edge24" class="edge"><title>Node13&#45;&gt;Node12</title>
<path fill="none" stroke="midnightblue" d="M270.879,-17.8002C312.385,-18.374 366.63,-19.1239 399.859,-19.5833"/>
<polygon fill="midnightblue" stroke="midnightblue" points="270.669,-14.297 260.622,-17.6584 270.572,-21.2964 270.669,-14.297"/>
</g>
<!-- Node14 -->
<g id="node26" class="node"><title>Node14</title>
<polygon fill="white" stroke="#bfbfbf" points="606.5,-39.5 606.5,-60.5 731.5,-60.5 731.5,-39.5 606.5,-39.5"/>
<text text-anchor="middle" x="669" y="-47.5" font-family="Helvetica,sans-Serif" font-size="10.00">std::vector&lt; Element_t &gt;</text>
</g>
<!-- Node14&#45;&gt;Node1 -->
<g id="edge26" class="edge"><title>Node14&#45;&gt;Node1</title>
<path fill="none" stroke="#9a32cd" stroke-dasharray="5,2" d="M741.896,-52.1177C767.279,-53.1778 795.923,-54.7357 822,-57 827.985,-57.5197 834.216,-58.1561 840.433,-58.8538"/>
<polygon fill="#9a32cd" stroke="#9a32cd" points="741.738,-48.6087 731.606,-51.7074 741.459,-55.6032 741.738,-48.6087"/>
<text text-anchor="middle" x="791" y="-61" font-family="Helvetica,sans-Serif" font-size="10.00"> elements_init</text>
</g>
</g>
</svg>
