<?xml version="1.0" encoding="UTF-8" standalone="no"?>
<!DOCTYPE svg PUBLIC "-//W3C//DTD SVG 1.1//EN"
 "http://www.w3.org/Graphics/SVG/1.1/DTD/svg11.dtd">
<!-- Generated by graphviz version 2.26.3 (20100126.1600)
 -->
<!-- Title: CommonHist_t Pages: 1 -->
<svg width="136pt" height="222pt"
 viewBox="0.00 0.00 136.00 222.00" xmlns="http://www.w3.org/2000/svg" xmlns:xlink="http://www.w3.org/1999/xlink">
<g id="graph1" class="graph" transform="scale(1 1) rotate(0) translate(4 218)">
<title>CommonHist_t</title>
<polygon fill="white" stroke="white" points="-4,5 -4,-218 133,-218 133,5 -4,5"/>
<!-- Node1 -->
<g id="node1" class="node"><title>Node1</title>
<polygon fill="#bfbfbf" stroke="black" points="22.5,-0.5 22.5,-21.5 105.5,-21.5 105.5,-0.5 22.5,-0.5"/>
<text text-anchor="middle" x="64" y="-8.5" font-family="Helvetica,sans-Serif" font-size="10.00">CommonHist_t</text>
</g>
<!-- Node2 -->
<g id="node2" class="node"><title>Node2</title>
<a xlink:href="classant_1_1analysis_1_1_bin_settings.html" target="_top" xlink:title="ant::analysis::BinSettings">
<polygon fill="white" stroke="black" points="0,-72.5 0,-93.5 128,-93.5 128,-72.5 0,-72.5"/>
<text text-anchor="middle" x="64" y="-80.5" font-family="Helvetica,sans-Serif" font-size="10.00">ant::analysis::BinSettings</text>
</a>
</g>
<!-- Node2&#45;&gt;Node1 -->
<g id="edge2" class="edge"><title>Node2&#45;&gt;Node1</title>
<path fill="none" stroke="#9a32cd" stroke-dasharray="5,2" d="M64,-62.2348C64,-48.969 64,-32.3188 64,-21.6674"/>
<polygon fill="#9a32cd" stroke="#9a32cd" points="60.5001,-62.3761 64,-72.3762 67.5001,-62.3762 60.5001,-62.3761"/>
<text text-anchor="middle" x="93" y="-44.5" font-family="Helvetica,sans-Serif" font-size="10.00"> bins_FitProb</text>
</g>
<!-- Node3 -->
<g id="node4" class="node"><title>Node3</title>
<a xlink:href="classant_1_1interval.html" target="_top" xlink:title="ant::interval\&lt; double \&gt;">
<polygon fill="white" stroke="black" points="7,-132.5 7,-153.5 121,-153.5 121,-132.5 7,-132.5"/>
<text text-anchor="middle" x="64" y="-140.5" font-family="Helvetica,sans-Serif" font-size="10.00">ant::interval&lt; double &gt;</text>
</a>
</g>
<!-- Node3&#45;&gt;Node2 -->
<g id="edge4" class="edge"><title>Node3&#45;&gt;Node2</title>
<path fill="none" stroke="midnightblue" d="M64,-122.231C64,-112.592 64,-101.544 64,-93.6339"/>
<polygon fill="midnightblue" stroke="midnightblue" points="60.5001,-122.273 64,-132.273 67.5001,-122.273 60.5001,-122.273"/>
</g>
<!-- Node4 -->
<g id="node6" class="node"><title>Node4</title>
<a xlink:href="classant_1_1printable__traits.html" target="_top" xlink:title="ant::printable_traits">
<polygon fill="white" stroke="black" points="14,-192.5 14,-213.5 114,-213.5 114,-192.5 14,-192.5"/>
<text text-anchor="middle" x="64" y="-200.5" font-family="Helvetica,sans-Serif" font-size="10.00">ant::printable_traits</text>
</a>
</g>
<!-- Node4&#45;&gt;Node3 -->
<g id="edge6" class="edge"><title>Node4&#45;&gt;Node3</title>
<path fill="none" stroke="midnightblue" d="M64,-182.231C64,-172.592 64,-161.544 64,-153.634"/>
<polygon fill="midnightblue" stroke="midnightblue" points="60.5001,-182.273 64,-192.273 67.5001,-182.273 60.5001,-182.273"/>
</g>
</g>
</svg>
