<?xml version="1.0" encoding="UTF-8" standalone="no"?>
<!DOCTYPE svg PUBLIC "-//W3C//DTD SVG 1.1//EN"
 "http://www.w3.org/Graphics/SVG/1.1/DTD/svg11.dtd">
<!-- Generated by graphviz version 2.26.3 (20100126.1600)
 -->
<!-- Title: ant::expconfig::detector::EPT Pages: 1 -->
<svg width="750pt" height="186pt"
 viewBox="0.00 0.00 750.00 186.00" xmlns="http://www.w3.org/2000/svg" xmlns:xlink="http://www.w3.org/1999/xlink">
<g id="graph1" class="graph" transform="scale(1 1) rotate(0) translate(4 182)">
<title>ant::expconfig::detector::EPT</title>
<polygon fill="white" stroke="white" points="-4,5 -4,-182 747,-182 747,5 -4,5"/>
<!-- Node1 -->
<g id="node1" class="node"><title>Node1</title>
<polygon fill="#bfbfbf" stroke="black" points="596.5,-84.5 596.5,-105.5 741.5,-105.5 741.5,-84.5 596.5,-84.5"/>
<text text-anchor="middle" x="669" y="-92.5" font-family="Helvetica,sans-Serif" font-size="10.00">ant::expconfig::detector::EPT</text>
</g>
<!-- Node2 -->
<g id="node2" class="node"><title>Node2</title>
<a xlink:href="structant_1_1_tagger_detector__t.html" target="_top" xlink:title="ant::TaggerDetector_t">
<polygon fill="white" stroke="black" points="374,-150.5 374,-171.5 486,-171.5 486,-150.5 374,-150.5"/>
<text text-anchor="middle" x="430" y="-158.5" font-family="Helvetica,sans-Serif" font-size="10.00">ant::TaggerDetector_t</text>
</a>
</g>
<!-- Node2&#45;&gt;Node1 -->
<g id="edge2" class="edge"><title>Node2&#45;&gt;Node1</title>
<path fill="none" stroke="midnightblue" d="M479.437,-147.828C508.223,-140.112 545.197,-130.119 578,-121 595.889,-116.027 615.715,-110.379 632.284,-105.62"/>
<polygon fill="midnightblue" stroke="midnightblue" points="478.371,-144.49 469.617,-150.458 480.182,-151.252 478.371,-144.49"/>
</g>
<!-- Node3 -->
<g id="node4" class="node"><title>Node3</title>
<a xlink:href="structant_1_1_detector__t.html" target="_top" xlink:title="The Detector_t struct is the minimal base class for all detectors. ">
<polygon fill="white" stroke="black" points="172,-156.5 172,-177.5 254,-177.5 254,-156.5 172,-156.5"/>
<text text-anchor="middle" x="213" y="-164.5" font-family="Helvetica,sans-Serif" font-size="10.00">ant::Detector_t</text>
</a>
</g>
<!-- Node3&#45;&gt;Node2 -->
<g id="edge4" class="edge"><title>Node3&#45;&gt;Node2</title>
<path fill="none" stroke="midnightblue" d="M264.399,-165.579C297.347,-164.668 340.118,-163.485 373.939,-162.55"/>
<polygon fill="midnightblue" stroke="midnightblue" points="263.971,-162.089 254.071,-165.864 264.164,-169.087 263.971,-162.089"/>
</g>
<!-- Node4 -->
<g id="node6" class="node"><title>Node4</title>
<a xlink:href="classant_1_1printable__traits.html" target="_top" xlink:title="ant::printable_traits">
<polygon fill="white" stroke="black" points="5,-156.5 5,-177.5 105,-177.5 105,-156.5 5,-156.5"/>
<text text-anchor="middle" x="55" y="-164.5" font-family="Helvetica,sans-Serif" font-size="10.00">ant::printable_traits</text>
</a>
</g>
<!-- Node4&#45;&gt;Node3 -->
<g id="edge6" class="edge"><title>Node4&#45;&gt;Node3</title>
<path fill="none" stroke="midnightblue" d="M115.668,-167C134.424,-167 154.639,-167 171.761,-167"/>
<polygon fill="midnightblue" stroke="midnightblue" points="115.427,-163.5 105.427,-167 115.427,-170.5 115.427,-163.5"/>
</g>
<!-- Node5 -->
<g id="node8" class="node"><title>Node5</title>
<a xlink:href="classant_1_1_unpacker_acqu_config.html" target="_top" xlink:title="ant::UnpackerAcquConfig">
<polygon fill="white" stroke="black" points="365.5,-108.5 365.5,-129.5 494.5,-129.5 494.5,-108.5 365.5,-108.5"/>
<text text-anchor="middle" x="430" y="-116.5" font-family="Helvetica,sans-Serif" font-size="10.00">ant::UnpackerAcquConfig</text>
</a>
</g>
<!-- Node5&#45;&gt;Node1 -->
<g id="edge8" class="edge"><title>Node5&#45;&gt;Node1</title>
<path fill="none" stroke="midnightblue" d="M504.807,-111.488C533.976,-108.559 567.295,-105.213 596.262,-102.304"/>
<polygon fill="midnightblue" stroke="midnightblue" points="504.277,-108.024 494.677,-112.505 504.977,-114.988 504.277,-108.024"/>
</g>
<!-- Node6 -->
<g id="node10" class="node"><title>Node6</title>
<a xlink:href="classant_1_1_exp_config_1_1_unpacker.html" target="_top" xlink:title="ant::ExpConfig::Unpacker\l\&lt; UnpackerAcquConfig \&gt;">
<polygon fill="white" stroke="black" points="148,-104 148,-138 278,-138 278,-104 148,-104"/>
<text text-anchor="start" x="156" y="-125" font-family="Helvetica,sans-Serif" font-size="10.00">ant::ExpConfig::Unpacker</text>
<text text-anchor="middle" x="213" y="-112" font-family="Helvetica,sans-Serif" font-size="10.00">&lt; UnpackerAcquConfig &gt;</text>
</a>
</g>
<!-- Node6&#45;&gt;Node5 -->
<g id="edge10" class="edge"><title>Node6&#45;&gt;Node5</title>
<path fill="none" stroke="midnightblue" d="M288.311,-120.306C313.398,-120.075 341.104,-119.819 365.313,-119.596"/>
<polygon fill="midnightblue" stroke="midnightblue" points="288.074,-116.808 278.107,-120.4 288.139,-123.808 288.074,-116.808"/>
</g>
<!-- Node7 -->
<g id="node12" class="node"><title>Node7</title>
<a xlink:href="classant_1_1_exp_config_1_1_base.html" target="_top" xlink:title="ant::ExpConfig::Base">
<polygon fill="white" stroke="black" points="0,-110.5 0,-131.5 110,-131.5 110,-110.5 0,-110.5"/>
<text text-anchor="middle" x="55" y="-118.5" font-family="Helvetica,sans-Serif" font-size="10.00">ant::ExpConfig::Base</text>
</a>
</g>
<!-- Node7&#45;&gt;Node6 -->
<g id="edge12" class="edge"><title>Node7&#45;&gt;Node6</title>
<path fill="none" stroke="midnightblue" d="M120.346,-121C129.395,-121 138.69,-121 147.738,-121"/>
<polygon fill="midnightblue" stroke="midnightblue" points="120.261,-117.5 110.261,-121 120.261,-124.5 120.261,-117.5"/>
</g>
<!-- Node8 -->
<g id="node14" class="node"><title>Node8</title>
<polygon fill="white" stroke="#bfbfbf" points="358.5,-56 358.5,-90 501.5,-90 501.5,-56 358.5,-56"/>
<text text-anchor="start" x="366.5" y="-77" font-family="Helvetica,sans-Serif" font-size="10.00">std::vector&lt; ant::expconfig</text>
<text text-anchor="middle" x="430" y="-64" font-family="Helvetica,sans-Serif" font-size="10.00">::detector::EPT::Element_t &gt;</text>
</g>
<!-- Node8&#45;&gt;Node1 -->
<g id="edge14" class="edge"><title>Node8&#45;&gt;Node1</title>
<path fill="none" stroke="#9a32cd" stroke-dasharray="5,2" d="M512.017,-80.5497C539.324,-83.0633 569.535,-85.8442 596.103,-88.2898"/>
<polygon fill="#9a32cd" stroke="#9a32cd" points="511.987,-77.0322 501.708,-79.6007 511.345,-84.0027 511.987,-77.0322"/>
<text text-anchor="middle" x="549" y="-90" font-family="Helvetica,sans-Serif" font-size="10.00"> elements</text>
</g>
<!-- Node9 -->
<g id="node16" class="node"><title>Node9</title>
<a xlink:href="structant_1_1expconfig_1_1detector_1_1_e_p_t_1_1_element__t.html" target="_top" xlink:title="ant::expconfig::detector\l::EPT::Element_t">
<polygon fill="white" stroke="black" points="153.5,-52 153.5,-86 272.5,-86 272.5,-52 153.5,-52"/>
<text text-anchor="start" x="161.5" y="-73" font-family="Helvetica,sans-Serif" font-size="10.00">ant::expconfig::detector</text>
<text text-anchor="middle" x="213" y="-60" font-family="Helvetica,sans-Serif" font-size="10.00">::EPT::Element_t</text>
</a>
</g>
<!-- Node9&#45;&gt;Node8 -->
<g id="edge16" class="edge"><title>Node9&#45;&gt;Node8</title>
<path fill="none" stroke="#9a32cd" stroke-dasharray="5,2" d="M282.725,-70.2852C306.848,-70.7299 333.915,-71.2289 358.202,-71.6765"/>
<polygon fill="#9a32cd" stroke="#9a32cd" points="282.646,-66.7833 272.583,-70.0983 282.517,-73.7821 282.646,-66.7833"/>
<text text-anchor="middle" x="318" y="-75" font-family="Helvetica,sans-Serif" font-size="10.00"> elements</text>
</g>
<!-- Node10 -->
<g id="node18" class="node"><title>Node10</title>
<a xlink:href="structant_1_1_tagger_detector__t_1_1_element__t.html" target="_top" xlink:title="ant::TaggerDetector\l_t::Element_t">
<polygon fill="white" stroke="black" points="3,-52 3,-86 107,-86 107,-52 3,-52"/>
<text text-anchor="start" x="11" y="-73" font-family="Helvetica,sans-Serif" font-size="10.00">ant::TaggerDetector</text>
<text text-anchor="middle" x="55" y="-60" font-family="Helvetica,sans-Serif" font-size="10.00">_t::Element_t</text>
</a>
</g>
<!-- Node10&#45;&gt;Node9 -->
<g id="edge18" class="edge"><title>Node10&#45;&gt;Node9</title>
<path fill="none" stroke="midnightblue" d="M117.445,-69C129.32,-69 141.718,-69 153.498,-69"/>
<polygon fill="midnightblue" stroke="midnightblue" points="117.173,-65.5001 107.173,-69 117.173,-72.5001 117.173,-65.5001"/>
</g>
<!-- Node11 -->
<g id="node20" class="node"><title>Node11</title>
<a xlink:title="STL class. ">
<polygon fill="white" stroke="#bfbfbf" points="400,-11.5 400,-32.5 460,-32.5 460,-11.5 400,-11.5"/>
<text text-anchor="middle" x="430" y="-19.5" font-family="Helvetica,sans-Serif" font-size="10.00">std::string</text>
</a>
</g>
<!-- Node11&#45;&gt;Node1 -->
<g id="edge20" class="edge"><title>Node11&#45;&gt;Node1</title>
<path fill="none" stroke="#9a32cd" stroke-dasharray="5,2" d="M469.833,-32.7018C499.719,-40.877 541.577,-52.6364 578,-64 598.553,-70.4124 621.5,-78.2339 639.208,-84.4161"/>
<polygon fill="#9a32cd" stroke="#9a32cd" points="470.75,-29.3242 460.182,-30.0726 468.91,-36.0781 470.75,-29.3242"/>
<text text-anchor="middle" x="549" y="-68" font-family="Helvetica,sans-Serif" font-size="10.00"> ScalerName</text>
</g>
<!-- Node12 -->
<g id="node22" class="node"><title>Node12</title>
<a xlink:title="STL class. ">
<polygon fill="white" stroke="#bfbfbf" points="165.5,-0 165.5,-34 260.5,-34 260.5,-0 165.5,-0"/>
<text text-anchor="start" x="173.5" y="-21" font-family="Helvetica,sans-Serif" font-size="10.00">std::basic_string&lt;</text>
<text text-anchor="middle" x="213" y="-8" font-family="Helvetica,sans-Serif" font-size="10.00"> char &gt;</text>
</a>
</g>
<!-- Node12&#45;&gt;Node11 -->
<g id="edge22" class="edge"><title>Node12&#45;&gt;Node11</title>
<path fill="none" stroke="midnightblue" d="M270.879,-18.3336C312.385,-19.29 366.63,-20.5399 399.859,-21.3055"/>
<polygon fill="midnightblue" stroke="midnightblue" points="270.7,-14.8286 260.622,-18.0973 270.538,-21.8268 270.7,-14.8286"/>
</g>
</g>
</svg>
