<?xml version="1.0" encoding="UTF-8" standalone="no"?>
<!DOCTYPE svg PUBLIC "-//W3C//DTD SVG 1.1//EN"
 "http://www.w3.org/Graphics/SVG/1.1/DTD/svg11.dtd">
<!-- Generated by graphviz version 2.26.3 (20100126.1600)
 -->
<!-- Title: ant::canvas::pad_t Pages: 1 -->
<svg width="322pt" height="360pt"
 viewBox="0.00 0.00 322.00 360.00" xmlns="http://www.w3.org/2000/svg" xmlns:xlink="http://www.w3.org/1999/xlink">
<g id="graph1" class="graph" transform="scale(1 1) rotate(0) translate(4 356)">
<title>ant::canvas::pad_t</title>
<polygon fill="white" stroke="white" points="-4,5 -4,-356 319,-356 319,5 -4,5"/>
<!-- Node1 -->
<g id="node1" class="node"><title>Node1</title>
<polygon fill="#bfbfbf" stroke="black" points="72,-0.5 72,-21.5 170,-21.5 170,-0.5 72,-0.5"/>
<text text-anchor="middle" x="121" y="-8.5" font-family="Helvetica,sans-Serif" font-size="10.00">ant::canvas::pad_t</text>
</g>
<!-- Node2 -->
<g id="node2" class="node"><title>Node2</title>
<polygon fill="white" stroke="#bfbfbf" points="-0.5,-73 -0.5,-107 134.5,-107 134.5,-73 -0.5,-73"/>
<text text-anchor="start" x="7.5" y="-94" font-family="Helvetica,sans-Serif" font-size="10.00">std::list&lt; const padmodifier</text>
<text text-anchor="middle" x="67" y="-81" font-family="Helvetica,sans-Serif" font-size="10.00">_t * &gt;</text>
</g>
<!-- Node2&#45;&gt;Node1 -->
<g id="edge2" class="edge"><title>Node2&#45;&gt;Node1</title>
<path fill="none" stroke="#9a32cd" stroke-dasharray="5,2" d="M82.4413,-63.8251C87.2448,-56.0373 92.6803,-47.5668 98,-40 102.435,-33.6918 107.766,-26.9254 112.178,-21.5166"/>
<polygon fill="#9a32cd" stroke="#9a32cd" points="79.3367,-62.1945 77.1374,-72.5586 85.3198,-65.8281 79.3367,-62.1945"/>
<text text-anchor="middle" x="125.5" y="-44.5" font-family="Helvetica,sans-Serif" font-size="10.00"> PadOptions</text>
</g>
<!-- Node3 -->
<g id="node4" class="node"><title>Node3</title>
<polygon fill="white" stroke="#bfbfbf" points="151.5,-73 151.5,-107 260.5,-107 260.5,-73 151.5,-73"/>
<text text-anchor="start" x="159.5" y="-94" font-family="Helvetica,sans-Serif" font-size="10.00">std::list&lt; ant::canvas</text>
<text text-anchor="middle" x="206" y="-81" font-family="Helvetica,sans-Serif" font-size="10.00">::DrawableItem &gt;</text>
</g>
<!-- Node3&#45;&gt;Node1 -->
<g id="edge4" class="edge"><title>Node3&#45;&gt;Node1</title>
<path fill="none" stroke="#9a32cd" stroke-dasharray="5,2" d="M180.609,-65.851C171.892,-57.6123 162.051,-48.3693 153,-40 146.394,-33.8919 138.95,-27.1381 132.905,-21.686"/>
<polygon fill="#9a32cd" stroke="#9a32cd" points="178.265,-68.4512 187.932,-72.7854 183.078,-63.3683 178.265,-68.4512"/>
<text text-anchor="middle" x="202" y="-44.5" font-family="Helvetica,sans-Serif" font-size="10.00"> DrawableItems</text>
</g>
<!-- Node4 -->
<g id="node6" class="node"><title>Node4</title>
<a xlink:href="structant_1_1canvas_1_1_drawable_item.html" target="_top" xlink:title="ant::canvas::DrawableItem">
<polygon fill="white" stroke="black" points="139,-158.5 139,-179.5 273,-179.5 273,-158.5 139,-158.5"/>
<text text-anchor="middle" x="206" y="-166.5" font-family="Helvetica,sans-Serif" font-size="10.00">ant::canvas::DrawableItem</text>
</a>
</g>
<!-- Node4&#45;&gt;Node3 -->
<g id="edge6" class="edge"><title>Node4&#45;&gt;Node3</title>
<path fill="none" stroke="#9a32cd" stroke-dasharray="5,2" d="M206,-148.162C206,-135.363 206,-119.171 206,-107.124"/>
<polygon fill="#9a32cd" stroke="#9a32cd" points="202.5,-148.346 206,-158.346 209.5,-148.346 202.5,-148.346"/>
<text text-anchor="middle" x="227.5" y="-130.5" font-family="Helvetica,sans-Serif" font-size="10.00"> elements</text>
</g>
<!-- Node5 -->
<g id="node8" class="node"><title>Node5</title>
<a xlink:title="STL class. ">
<polygon fill="white" stroke="#bfbfbf" points="115,-237.5 115,-258.5 175,-258.5 175,-237.5 115,-237.5"/>
<text text-anchor="middle" x="145" y="-245.5" font-family="Helvetica,sans-Serif" font-size="10.00">std::string</text>
</a>
</g>
<!-- Node5&#45;&gt;Node4 -->
<g id="edge8" class="edge"><title>Node5&#45;&gt;Node4</title>
<path fill="none" stroke="#9a32cd" stroke-dasharray="5,2" d="M159.642,-229.038C171.558,-213.606 187.947,-192.38 197.709,-179.738"/>
<polygon fill="#9a32cd" stroke="#9a32cd" points="156.568,-227.292 153.227,-237.346 162.109,-231.57 156.568,-227.292"/>
<text text-anchor="middle" x="198" y="-202.5" font-family="Helvetica,sans-Serif" font-size="10.00"> Option</text>
</g>
<!-- Node6 -->
<g id="node10" class="node"><title>Node6</title>
<a xlink:title="STL class. ">
<polygon fill="white" stroke="#bfbfbf" points="95.5,-317 95.5,-351 190.5,-351 190.5,-317 95.5,-317"/>
<text text-anchor="start" x="103.5" y="-338" font-family="Helvetica,sans-Serif" font-size="10.00">std::basic_string&lt;</text>
<text text-anchor="middle" x="143" y="-325" font-family="Helvetica,sans-Serif" font-size="10.00"> char &gt;</text>
</a>
</g>
<!-- Node6&#45;&gt;Node5 -->
<g id="edge10" class="edge"><title>Node6&#45;&gt;Node5</title>
<path fill="none" stroke="midnightblue" d="M143.638,-306.56C144.015,-290.365 144.471,-270.766 144.748,-258.848"/>
<polygon fill="midnightblue" stroke="midnightblue" points="140.138,-306.518 143.405,-316.597 147.136,-306.681 140.138,-306.518"/>
</g>
<!-- Node7 -->
<g id="node12" class="node"><title>Node7</title>
<polygon fill="white" stroke="#bfbfbf" points="195.5,-231 195.5,-265 314.5,-265 314.5,-231 195.5,-231"/>
<text text-anchor="start" x="203.5" y="-252" font-family="Helvetica,sans-Serif" font-size="10.00">std::unique_ptr&lt; ant</text>
<text text-anchor="middle" x="255" y="-239" font-family="Helvetica,sans-Serif" font-size="10.00">::root_drawable_traits &gt;</text>
</g>
<!-- Node7&#45;&gt;Node4 -->
<g id="edge12" class="edge"><title>Node7&#45;&gt;Node4</title>
<path fill="none" stroke="#9a32cd" stroke-dasharray="5,2" d="M239.045,-222.276C230.048,-207.772 219.295,-190.434 212.554,-179.567"/>
<polygon fill="#9a32cd" stroke="#9a32cd" points="236.122,-224.205 244.368,-230.858 242.071,-220.515 236.122,-224.205"/>
<text text-anchor="middle" x="253.5" y="-202.5" font-family="Helvetica,sans-Serif" font-size="10.00"> Drawable</text>
</g>
<!-- Node8 -->
<g id="node14" class="node"><title>Node8</title>
<a xlink:href="structant_1_1root__drawable__traits.html" target="_top" xlink:title="ant::root_drawable\l_traits">
<polygon fill="white" stroke="black" points="207.5,-317 207.5,-351 304.5,-351 304.5,-317 207.5,-317"/>
<text text-anchor="start" x="215.5" y="-338" font-family="Helvetica,sans-Serif" font-size="10.00">ant::root_drawable</text>
<text text-anchor="middle" x="256" y="-325" font-family="Helvetica,sans-Serif" font-size="10.00">_traits</text>
</a>
</g>
<!-- Node8&#45;&gt;Node7 -->
<g id="edge14" class="edge"><title>Node8&#45;&gt;Node7</title>
<path fill="none" stroke="#9a32cd" stroke-dasharray="5,2" d="M255.678,-306.342C255.521,-292.774 255.336,-276.861 255.199,-265.084"/>
<polygon fill="#9a32cd" stroke="#9a32cd" points="252.182,-306.638 255.798,-316.597 259.181,-306.557 252.182,-306.638"/>
<text text-anchor="middle" x="262.5" y="-288.5" font-family="Helvetica,sans-Serif" font-size="10.00"> ptr</text>
</g>
</g>
</svg>
