<?xml version="1.0" encoding="UTF-8" standalone="no"?>
<!DOCTYPE svg PUBLIC "-//W3C//DTD SVG 1.1//EN"
 "http://www.w3.org/Graphics/SVG/1.1/DTD/svg11.dtd">
<!-- Generated by graphviz version 2.26.3 (20100126.1600)
 -->
<!-- Title: ant::analysis::physics::EtapOmegaG::Sig_t::Pi0_t::BaseTree_t Pages: 1 -->
<svg width="148pt" height="520pt"
 viewBox="0.00 0.00 148.00 520.00" xmlns="http://www.w3.org/2000/svg" xmlns:xlink="http://www.w3.org/1999/xlink">
<g id="graph1" class="graph" transform="scale(1 1) rotate(0) translate(4 516)">
<title>ant::analysis::physics::EtapOmegaG::Sig_t::Pi0_t::BaseTree_t</title>
<polygon fill="white" stroke="white" points="-4,5 -4,-516 145,-516 145,5 -4,5"/>
<!-- Node1 -->
<g id="node1" class="node"><title>Node1</title>
<polygon fill="#bfbfbf" stroke="black" points="4.5,-0.5 4.5,-47.5 135.5,-47.5 135.5,-0.5 4.5,-0.5"/>
<text text-anchor="start" x="12.5" y="-34.5" font-family="Helvetica,sans-Serif" font-size="10.00">ant::analysis::physics</text>
<text text-anchor="start" x="12.5" y="-21.5" font-family="Helvetica,sans-Serif" font-size="10.00">::EtapOmegaG::Sig_t::Pi0</text>
<text text-anchor="middle" x="70" y="-8.5" font-family="Helvetica,sans-Serif" font-size="10.00">_t::BaseTree_t</text>
</g>
<!-- Node2 -->
<g id="node2" class="node"><title>Node2</title>
<a xlink:href="structant_1_1analysis_1_1physics_1_1_etap_omega_g_1_1_sig__t_1_1_fit__t_1_1_base_tree__t.html" target="_top" xlink:title="ant::analysis::physics\l::EtapOmegaG::Sig_t::Fit\l_t::BaseTree_t">
<polygon fill="white" stroke="black" points="6,-86.5 6,-133.5 134,-133.5 134,-86.5 6,-86.5"/>
<text text-anchor="start" x="14" y="-120.5" font-family="Helvetica,sans-Serif" font-size="10.00">ant::analysis::physics</text>
<text text-anchor="start" x="14" y="-107.5" font-family="Helvetica,sans-Serif" font-size="10.00">::EtapOmegaG::Sig_t::Fit</text>
<text text-anchor="middle" x="70" y="-94.5" font-family="Helvetica,sans-Serif" font-size="10.00">_t::BaseTree_t</text>
</a>
</g>
<!-- Node2&#45;&gt;Node1 -->
<g id="edge2" class="edge"><title>Node2&#45;&gt;Node1</title>
<path fill="none" stroke="midnightblue" d="M70,-76.027C70,-66.4836 70,-56.319 70,-47.5301"/>
<polygon fill="midnightblue" stroke="midnightblue" points="66.5001,-76.0442 70,-86.0442 73.5001,-76.0442 66.5001,-76.0442"/>
</g>
<!-- Node3 -->
<g id="node4" class="node"><title>Node3</title>
<a xlink:href="structant_1_1_wrap_t_tree.html" target="_top" xlink:title="The WrapTTree struct simplifies TTree handling in physics classes. ">
<polygon fill="white" stroke="black" points="27.5,-172.5 27.5,-193.5 112.5,-193.5 112.5,-172.5 27.5,-172.5"/>
<text text-anchor="middle" x="70" y="-180.5" font-family="Helvetica,sans-Serif" font-size="10.00">ant::WrapTTree</text>
</a>
</g>
<!-- Node3&#45;&gt;Node2 -->
<g id="edge4" class="edge"><title>Node3&#45;&gt;Node2</title>
<path fill="none" stroke="midnightblue" d="M70,-162.053C70,-153.23 70,-142.915 70,-133.805"/>
<polygon fill="midnightblue" stroke="midnightblue" points="66.5001,-162.229 70,-172.229 73.5001,-162.229 66.5001,-162.229"/>
</g>
<!-- Node4 -->
<g id="node6" class="node"><title>Node4</title>
<polygon fill="white" stroke="#bfbfbf" points="0,-245 0,-279 140,-279 140,-245 0,-245"/>
<text text-anchor="start" x="8" y="-266" font-family="Helvetica,sans-Serif" font-size="10.00">std::vector&lt; ant::WrapTTree</text>
<text text-anchor="middle" x="70" y="-253" font-family="Helvetica,sans-Serif" font-size="10.00">::ROOT_branch_t &gt;</text>
</g>
<!-- Node4&#45;&gt;Node3 -->
<g id="edge6" class="edge"><title>Node4&#45;&gt;Node3</title>
<path fill="none" stroke="#9a32cd" stroke-dasharray="5,2" d="M70,-234.623C70,-220.473 70,-204.024 70,-193.567"/>
<polygon fill="#9a32cd" stroke="#9a32cd" points="66.5001,-234.858 70,-244.858 73.5001,-234.858 66.5001,-234.858"/>
<text text-anchor="middle" x="91.5" y="-216.5" font-family="Helvetica,sans-Serif" font-size="10.00"> branches</text>
</g>
<!-- Node5 -->
<g id="node8" class="node"><title>Node5</title>
<a xlink:href="structant_1_1_wrap_t_tree_1_1_r_o_o_t__branch__t.html" target="_top" xlink:title="ant::WrapTTree::ROOT\l_branch_t">
<polygon fill="white" stroke="black" points="10.5,-331 10.5,-365 129.5,-365 129.5,-331 10.5,-331"/>
<text text-anchor="start" x="18.5" y="-352" font-family="Helvetica,sans-Serif" font-size="10.00">ant::WrapTTree::ROOT</text>
<text text-anchor="middle" x="70" y="-339" font-family="Helvetica,sans-Serif" font-size="10.00">_branch_t</text>
</a>
</g>
<!-- Node5&#45;&gt;Node4 -->
<g id="edge8" class="edge"><title>Node5&#45;&gt;Node4</title>
<path fill="none" stroke="#9a32cd" stroke-dasharray="5,2" d="M70,-320.342C70,-306.774 70,-290.861 70,-279.084"/>
<polygon fill="#9a32cd" stroke="#9a32cd" points="66.5001,-320.597 70,-330.597 73.5001,-320.597 66.5001,-320.597"/>
<text text-anchor="middle" x="91.5" y="-302.5" font-family="Helvetica,sans-Serif" font-size="10.00"> elements</text>
</g>
<!-- Node6 -->
<g id="node10" class="node"><title>Node6</title>
<a xlink:title="STL class. ">
<polygon fill="white" stroke="#bfbfbf" points="40,-416.5 40,-437.5 100,-437.5 100,-416.5 40,-416.5"/>
<text text-anchor="middle" x="70" y="-424.5" font-family="Helvetica,sans-Serif" font-size="10.00">std::string</text>
</a>
</g>
<!-- Node6&#45;&gt;Node5 -->
<g id="edge10" class="edge"><title>Node6&#45;&gt;Node5</title>
<path fill="none" stroke="#9a32cd" stroke-dasharray="5,2" d="M70,-406.162C70,-393.363 70,-377.171 70,-365.124"/>
<polygon fill="#9a32cd" stroke="#9a32cd" points="66.5001,-406.346 70,-416.346 73.5001,-406.346 66.5001,-406.346"/>
<text text-anchor="middle" x="85" y="-388.5" font-family="Helvetica,sans-Serif" font-size="10.00"> Name</text>
</g>
<!-- Node7 -->
<g id="node12" class="node"><title>Node7</title>
<a xlink:title="STL class. ">
<polygon fill="white" stroke="#bfbfbf" points="22.5,-477 22.5,-511 117.5,-511 117.5,-477 22.5,-477"/>
<text text-anchor="start" x="30.5" y="-498" font-family="Helvetica,sans-Serif" font-size="10.00">std::basic_string&lt;</text>
<text text-anchor="middle" x="70" y="-485" font-family="Helvetica,sans-Serif" font-size="10.00"> char &gt;</text>
</a>
</g>
<!-- Node7&#45;&gt;Node6 -->
<g id="edge12" class="edge"><title>Node7&#45;&gt;Node6</title>
<path fill="none" stroke="midnightblue" d="M70,-466.534C70,-456.306 70,-445.301 70,-437.506"/>
<polygon fill="midnightblue" stroke="midnightblue" points="66.5001,-466.746 70,-476.746 73.5001,-466.746 66.5001,-466.746"/>
</g>
</g>
</svg>
