<?xml version="1.0" encoding="UTF-8" standalone="no"?>
<!DOCTYPE svg PUBLIC "-//W3C//DTD SVG 1.1//EN"
 "http://www.w3.org/Graphics/SVG/1.1/DTD/svg11.dtd">
<!-- Generated by graphviz version 2.26.3 (20100126.1600)
 -->
<!-- Title: ant::analysis::physics::EtapOmegaG::Sig_t::Fit_t::BaseTree_t Pages: 1 -->
<svg width="148pt" height="434pt"
 viewBox="0.00 0.00 148.00 434.00" xmlns="http://www.w3.org/2000/svg" xmlns:xlink="http://www.w3.org/1999/xlink">
<g id="graph1" class="graph" transform="scale(1 1) rotate(0) translate(4 430)">
<title>ant::analysis::physics::EtapOmegaG::Sig_t::Fit_t::BaseTree_t</title>
<polygon fill="white" stroke="white" points="-4,5 -4,-430 145,-430 145,5 -4,5"/>
<!-- Node1 -->
<g id="node1" class="node"><title>Node1</title>
<polygon fill="#bfbfbf" stroke="black" points="6,-0.5 6,-47.5 134,-47.5 134,-0.5 6,-0.5"/>
<text text-anchor="start" x="14" y="-34.5" font-family="Helvetica,sans-Serif" font-size="10.00">ant::analysis::physics</text>
<text text-anchor="start" x="14" y="-21.5" font-family="Helvetica,sans-Serif" font-size="10.00">::EtapOmegaG::Sig_t::Fit</text>
<text text-anchor="middle" x="70" y="-8.5" font-family="Helvetica,sans-Serif" font-size="10.00">_t::BaseTree_t</text>
</g>
<!-- Node2 -->
<g id="node2" class="node"><title>Node2</title>
<a xlink:href="structant_1_1_wrap_t_tree.html" target="_top" xlink:title="The WrapTTree struct simplifies TTree handling in physics classes. ">
<polygon fill="white" stroke="black" points="27.5,-86.5 27.5,-107.5 112.5,-107.5 112.5,-86.5 27.5,-86.5"/>
<text text-anchor="middle" x="70" y="-94.5" font-family="Helvetica,sans-Serif" font-size="10.00">ant::WrapTTree</text>
</a>
</g>
<!-- Node2&#45;&gt;Node1 -->
<g id="edge2" class="edge"><title>Node2&#45;&gt;Node1</title>
<path fill="none" stroke="midnightblue" d="M70,-76.053C70,-67.2297 70,-56.9148 70,-47.8051"/>
<polygon fill="midnightblue" stroke="midnightblue" points="66.5001,-76.2286 70,-86.2286 73.5001,-76.2286 66.5001,-76.2286"/>
</g>
<!-- Node3 -->
<g id="node4" class="node"><title>Node3</title>
<polygon fill="white" stroke="#bfbfbf" points="0,-159 0,-193 140,-193 140,-159 0,-159"/>
<text text-anchor="start" x="8" y="-180" font-family="Helvetica,sans-Serif" font-size="10.00">std::vector&lt; ant::WrapTTree</text>
<text text-anchor="middle" x="70" y="-167" font-family="Helvetica,sans-Serif" font-size="10.00">::ROOT_branch_t &gt;</text>
</g>
<!-- Node3&#45;&gt;Node2 -->
<g id="edge4" class="edge"><title>Node3&#45;&gt;Node2</title>
<path fill="none" stroke="#9a32cd" stroke-dasharray="5,2" d="M70,-148.623C70,-134.473 70,-118.024 70,-107.567"/>
<polygon fill="#9a32cd" stroke="#9a32cd" points="66.5001,-148.858 70,-158.858 73.5001,-148.858 66.5001,-148.858"/>
<text text-anchor="middle" x="91.5" y="-130.5" font-family="Helvetica,sans-Serif" font-size="10.00"> branches</text>
</g>
<!-- Node4 -->
<g id="node6" class="node"><title>Node4</title>
<a xlink:href="structant_1_1_wrap_t_tree_1_1_r_o_o_t__branch__t.html" target="_top" xlink:title="ant::WrapTTree::ROOT\l_branch_t">
<polygon fill="white" stroke="black" points="10.5,-245 10.5,-279 129.5,-279 129.5,-245 10.5,-245"/>
<text text-anchor="start" x="18.5" y="-266" font-family="Helvetica,sans-Serif" font-size="10.00">ant::WrapTTree::ROOT</text>
<text text-anchor="middle" x="70" y="-253" font-family="Helvetica,sans-Serif" font-size="10.00">_branch_t</text>
</a>
</g>
<!-- Node4&#45;&gt;Node3 -->
<g id="edge6" class="edge"><title>Node4&#45;&gt;Node3</title>
<path fill="none" stroke="#9a32cd" stroke-dasharray="5,2" d="M70,-234.342C70,-220.774 70,-204.861 70,-193.084"/>
<polygon fill="#9a32cd" stroke="#9a32cd" points="66.5001,-234.597 70,-244.597 73.5001,-234.597 66.5001,-234.597"/>
<text text-anchor="middle" x="91.5" y="-216.5" font-family="Helvetica,sans-Serif" font-size="10.00"> elements</text>
</g>
<!-- Node5 -->
<g id="node8" class="node"><title>Node5</title>
<a xlink:title="STL class. ">
<polygon fill="white" stroke="#bfbfbf" points="40,-330.5 40,-351.5 100,-351.5 100,-330.5 40,-330.5"/>
<text text-anchor="middle" x="70" y="-338.5" font-family="Helvetica,sans-Serif" font-size="10.00">std::string</text>
</a>
</g>
<!-- Node5&#45;&gt;Node4 -->
<g id="edge8" class="edge"><title>Node5&#45;&gt;Node4</title>
<path fill="none" stroke="#9a32cd" stroke-dasharray="5,2" d="M70,-320.162C70,-307.363 70,-291.171 70,-279.124"/>
<polygon fill="#9a32cd" stroke="#9a32cd" points="66.5001,-320.346 70,-330.346 73.5001,-320.346 66.5001,-320.346"/>
<text text-anchor="middle" x="85" y="-302.5" font-family="Helvetica,sans-Serif" font-size="10.00"> Name</text>
</g>
<!-- Node6 -->
<g id="node10" class="node"><title>Node6</title>
<a xlink:title="STL class. ">
<polygon fill="white" stroke="#bfbfbf" points="22.5,-391 22.5,-425 117.5,-425 117.5,-391 22.5,-391"/>
<text text-anchor="start" x="30.5" y="-412" font-family="Helvetica,sans-Serif" font-size="10.00">std::basic_string&lt;</text>
<text text-anchor="middle" x="70" y="-399" font-family="Helvetica,sans-Serif" font-size="10.00"> char &gt;</text>
</a>
</g>
<!-- Node6&#45;&gt;Node5 -->
<g id="edge10" class="edge"><title>Node6&#45;&gt;Node5</title>
<path fill="none" stroke="midnightblue" d="M70,-380.534C70,-370.306 70,-359.301 70,-351.506"/>
<polygon fill="midnightblue" stroke="midnightblue" points="66.5001,-380.746 70,-390.746 73.5001,-380.746 66.5001,-380.746"/>
</g>
</g>
</svg>
