<?xml version="1.0" encoding="UTF-8" standalone="no"?>
<!DOCTYPE svg PUBLIC "-//W3C//DTD SVG 1.1//EN"
 "http://www.w3.org/Graphics/SVG/1.1/DTD/svg11.dtd">
<!-- Generated by graphviz version 2.26.3 (20100126.1600)
 -->
<!-- Title: SigHist_t Pages: 1 -->
<svg width="239pt" height="300pt"
 viewBox="0.00 0.00 239.00 300.00" xmlns="http://www.w3.org/2000/svg" xmlns:xlink="http://www.w3.org/1999/xlink">
<g id="graph1" class="graph" transform="scale(1 1) rotate(0) translate(4 296)">
<title>SigHist_t</title>
<polygon fill="white" stroke="white" points="-4,5 -4,-296 236,-296 236,5 -4,5"/>
<!-- Node1 -->
<g id="node1" class="node"><title>Node1</title>
<polygon fill="#bfbfbf" stroke="black" points="60.5,-0.5 60.5,-21.5 117.5,-21.5 117.5,-0.5 60.5,-0.5"/>
<text text-anchor="middle" x="89" y="-8.5" font-family="Helvetica,sans-Serif" font-size="10.00">SigHist_t</text>
</g>
<!-- Node2 -->
<g id="node2" class="node"><title>Node2</title>
<a xlink:href="struct_common_hist__t.html" target="_top" xlink:title="CommonHist_t">
<polygon fill="white" stroke="black" points="148.5,-69.5 148.5,-90.5 231.5,-90.5 231.5,-69.5 148.5,-69.5"/>
<text text-anchor="middle" x="190" y="-77.5" font-family="Helvetica,sans-Serif" font-size="10.00">CommonHist_t</text>
</a>
</g>
<!-- Node2&#45;&gt;Node1 -->
<g id="edge2" class="edge"><title>Node2&#45;&gt;Node1</title>
<path fill="none" stroke="midnightblue" d="M165.79,-63.4608C146.828,-50.5063 121.008,-32.8669 104.67,-21.7055"/>
<polygon fill="midnightblue" stroke="midnightblue" points="163.987,-66.4677 174.219,-69.2188 167.936,-60.6877 163.987,-66.4677"/>
</g>
<!-- Node3 -->
<g id="node4" class="node"><title>Node3</title>
<a xlink:href="classant_1_1analysis_1_1_bin_settings.html" target="_top" xlink:title="ant::analysis::BinSettings">
<polygon fill="white" stroke="black" points="0,-150.5 0,-171.5 128,-171.5 128,-150.5 0,-150.5"/>
<text text-anchor="middle" x="64" y="-158.5" font-family="Helvetica,sans-Serif" font-size="10.00">ant::analysis::BinSettings</text>
</a>
</g>
<!-- Node3&#45;&gt;Node1 -->
<g id="edge10" class="edge"><title>Node3&#45;&gt;Node1</title>
<path fill="none" stroke="#9a32cd" stroke-dasharray="5,2" d="M58.4191,-140.495C53.7302,-119.754 48.9677,-86.9894 57,-60 61.3473,-45.3927 71.5864,-31.0805 79.3204,-21.7326"/>
<polygon fill="#9a32cd" stroke="#9a32cd" points="55.0717,-141.539 60.8653,-150.41 61.8679,-139.862 55.0717,-141.539"/>
<text text-anchor="middle" x="98.5" y="-90.5" font-family="Helvetica,sans-Serif" font-size="10.00"> bins_IM_Etap</text>
<text text-anchor="middle" x="98.5" y="-77.5" font-family="Helvetica,sans-Serif" font-size="10.00">bins_IM_Omega</text>
<text text-anchor="middle" x="98.5" y="-64.5" font-family="Helvetica,sans-Serif" font-size="10.00">bins_ClusterShape</text>
</g>
<!-- Node3&#45;&gt;Node2 -->
<g id="edge4" class="edge"><title>Node3&#45;&gt;Node2</title>
<path fill="none" stroke="#9a32cd" stroke-dasharray="5,2" d="M89.0814,-144.876C114.163,-128.752 152.015,-104.419 173.524,-90.5919"/>
<polygon fill="#9a32cd" stroke="#9a32cd" points="86.9914,-142.059 80.4723,-150.411 90.7768,-147.947 86.9914,-142.059"/>
<text text-anchor="middle" x="159" y="-122.5" font-family="Helvetica,sans-Serif" font-size="10.00"> bins_FitProb</text>
</g>
<!-- Node4 -->
<g id="node6" class="node"><title>Node4</title>
<a xlink:href="classant_1_1interval.html" target="_top" xlink:title="ant::interval\&lt; double \&gt;">
<polygon fill="white" stroke="black" points="7,-210.5 7,-231.5 121,-231.5 121,-210.5 7,-210.5"/>
<text text-anchor="middle" x="64" y="-218.5" font-family="Helvetica,sans-Serif" font-size="10.00">ant::interval&lt; double &gt;</text>
</a>
</g>
<!-- Node4&#45;&gt;Node3 -->
<g id="edge6" class="edge"><title>Node4&#45;&gt;Node3</title>
<path fill="none" stroke="midnightblue" d="M64,-200.231C64,-190.592 64,-179.544 64,-171.634"/>
<polygon fill="midnightblue" stroke="midnightblue" points="60.5001,-200.273 64,-210.273 67.5001,-200.273 60.5001,-200.273"/>
</g>
<!-- Node5 -->
<g id="node8" class="node"><title>Node5</title>
<a xlink:href="classant_1_1printable__traits.html" target="_top" xlink:title="ant::printable_traits">
<polygon fill="white" stroke="black" points="14,-270.5 14,-291.5 114,-291.5 114,-270.5 14,-270.5"/>
<text text-anchor="middle" x="64" y="-278.5" font-family="Helvetica,sans-Serif" font-size="10.00">ant::printable_traits</text>
</a>
</g>
<!-- Node5&#45;&gt;Node4 -->
<g id="edge8" class="edge"><title>Node5&#45;&gt;Node4</title>
<path fill="none" stroke="midnightblue" d="M64,-260.231C64,-250.592 64,-239.544 64,-231.634"/>
<polygon fill="midnightblue" stroke="midnightblue" points="60.5001,-260.273 64,-270.273 67.5001,-260.273 60.5001,-260.273"/>
</g>
</g>
</svg>
