<?xml version="1.0" encoding="UTF-8" standalone="no"?>
<!DOCTYPE svg PUBLIC "-//W3C//DTD SVG 1.1//EN"
 "http://www.w3.org/Graphics/SVG/1.1/DTD/svg11.dtd">
<!-- Generated by graphviz version 2.26.3 (20100126.1600)
 -->
<!-- Title: ant::ReconstructHook::Clusters Pages: 1 -->
<svg width="270pt" height="188pt"
 viewBox="0.00 0.00 270.00 188.00" xmlns="http://www.w3.org/2000/svg" xmlns:xlink="http://www.w3.org/1999/xlink">
<g id="graph1" class="graph" transform="scale(1 1) rotate(0) translate(4 184)">
<title>ant::ReconstructHook::Clusters</title>
<polygon fill="white" stroke="white" points="-4,5 -4,-184 267,-184 267,5 -4,5"/>
<!-- Node1 -->
<g id="node1" class="node"><title>Node1</title>
<polygon fill="#bfbfbf" stroke="black" points="79.5,-73 79.5,-107 192.5,-107 192.5,-73 79.5,-73"/>
<text text-anchor="start" x="87.5" y="-94" font-family="Helvetica,sans-Serif" font-size="10.00">ant::ReconstructHook</text>
<text text-anchor="middle" x="136" y="-81" font-family="Helvetica,sans-Serif" font-size="10.00">::Clusters</text>
</g>
<!-- Node3 -->
<g id="node5" class="node"><title>Node3</title>
<a xlink:href="classant_1_1calibration_1_1_m_c_energy_smearing.html" target="_top" xlink:title="Basic Energy smearing for MC data. Works on clusters and scales the energy and then smears it with a ...">
<polygon fill="white" stroke="black" points="-0.5,-1 -0.5,-35 132.5,-35 132.5,-1 -0.5,-1"/>
<text text-anchor="start" x="7.5" y="-22" font-family="Helvetica,sans-Serif" font-size="10.00">ant::calibration::MCEnergy</text>
<text text-anchor="middle" x="66" y="-9" font-family="Helvetica,sans-Serif" font-size="10.00">Smearing</text>
</a>
</g>
<!-- Node1&#45;&gt;Node3 -->
<g id="edge4" class="edge"><title>Node1&#45;&gt;Node3</title>
<path fill="none" stroke="midnightblue" d="M112.346,-65.6706C102.706,-55.7551 91.7786,-44.5151 82.9562,-35.4407"/>
<polygon fill="midnightblue" stroke="midnightblue" points="109.931,-68.2068 119.411,-72.937 114.95,-63.3272 109.931,-68.2068"/>
</g>
<!-- Node4 -->
<g id="node7" class="node"><title>Node4</title>
<a xlink:href="classant_1_1calibration_1_1_t_a_p_s___shower_correction.html" target="_top" xlink:title="ant::calibration::TAPS\l_ShowerCorrection">
<polygon fill="white" stroke="black" points="149.5,-1 149.5,-35 262.5,-35 262.5,-1 149.5,-1"/>
<text text-anchor="start" x="157.5" y="-22" font-family="Helvetica,sans-Serif" font-size="10.00">ant::calibration::TAPS</text>
<text text-anchor="middle" x="206" y="-9" font-family="Helvetica,sans-Serif" font-size="10.00">_ShowerCorrection</text>
</a>
</g>
<!-- Node1&#45;&gt;Node4 -->
<g id="edge6" class="edge"><title>Node1&#45;&gt;Node4</title>
<path fill="none" stroke="midnightblue" d="M159.654,-65.6706C169.294,-55.7551 180.221,-44.5151 189.044,-35.4407"/>
<polygon fill="midnightblue" stroke="midnightblue" points="157.05,-63.3272 152.589,-72.937 162.069,-68.2068 157.05,-63.3272"/>
</g>
<!-- Node2 -->
<g id="node2" class="node"><title>Node2</title>
<a xlink:href="structant_1_1_reconstruct_hook_1_1_base.html" target="_top" xlink:title="The Base struct just defines some useful types. ">
<polygon fill="white" stroke="black" points="79.5,-145 79.5,-179 192.5,-179 192.5,-145 79.5,-145"/>
<text text-anchor="start" x="87.5" y="-166" font-family="Helvetica,sans-Serif" font-size="10.00">ant::ReconstructHook</text>
<text text-anchor="middle" x="136" y="-153" font-family="Helvetica,sans-Serif" font-size="10.00">::Base</text>
</a>
</g>
<!-- Node2&#45;&gt;Node1 -->
<g id="edge2" class="edge"><title>Node2&#45;&gt;Node1</title>
<path fill="none" stroke="midnightblue" d="M136,-134.719C136,-125.572 136,-115.625 136,-107.441"/>
<polygon fill="midnightblue" stroke="midnightblue" points="132.5,-134.937 136,-144.937 139.5,-134.937 132.5,-134.937"/>
</g>
</g>
</svg>
