<?xml version="1.0" encoding="UTF-8" standalone="no"?>
<!DOCTYPE svg PUBLIC "-//W3C//DTD SVG 1.1//EN"
 "http://www.w3.org/Graphics/SVG/1.1/DTD/svg11.dtd">
<!-- Generated by graphviz version 2.26.3 (20100126.1600)
 -->
<!-- Title: ant::canvas_modifier Pages: 1 -->
<svg width="474pt" height="88pt"
 viewBox="0.00 0.00 474.00 88.00" xmlns="http://www.w3.org/2000/svg" xmlns:xlink="http://www.w3.org/1999/xlink">
<g id="graph1" class="graph" transform="scale(1 1) rotate(0) translate(4 84)">
<title>ant::canvas_modifier</title>
<polygon fill="white" stroke="white" points="-4,5 -4,-84 471,-84 471,5 -4,5"/>
<!-- Node1 -->
<g id="node1" class="node"><title>Node1</title>
<polygon fill="#bfbfbf" stroke="black" points="180.5,-58.5 180.5,-79.5 287.5,-79.5 287.5,-58.5 180.5,-58.5"/>
<text text-anchor="middle" x="234" y="-66.5" font-family="Helvetica,sans-Serif" font-size="10.00">ant::canvas_modifier</text>
</g>
<!-- Node2 -->
<g id="node3" class="node"><title>Node2</title>
<a xlink:href="structant_1_1drawoption.html" target="_top" xlink:title="ant::drawoption">
<polygon fill="white" stroke="black" points="-0.5,-0.5 -0.5,-21.5 82.5,-21.5 82.5,-0.5 -0.5,-0.5"/>
<text text-anchor="middle" x="41" y="-8.5" font-family="Helvetica,sans-Serif" font-size="10.00">ant::drawoption</text>
</a>
</g>
<!-- Node1&#45;&gt;Node2 -->
<g id="edge2" class="edge"><title>Node1&#45;&gt;Node2</title>
<path fill="none" stroke="midnightblue" d="M189.232,-55.5464C154.756,-45.1857 107.774,-31.0668 76.0164,-21.5231"/>
<polygon fill="midnightblue" stroke="midnightblue" points="188.465,-58.9705 199.049,-58.4966 190.48,-52.2666 188.465,-58.9705"/>
</g>
<!-- Node3 -->
<g id="node5" class="node"><title>Node3</title>
<a xlink:href="structant_1_1endcanvas.html" target="_top" xlink:title="ant::endcanvas">
<polygon fill="white" stroke="black" points="99.5,-0.5 99.5,-21.5 182.5,-21.5 182.5,-0.5 99.5,-0.5"/>
<text text-anchor="middle" x="141" y="-8.5" font-family="Helvetica,sans-Serif" font-size="10.00">ant::endcanvas</text>
</a>
</g>
<!-- Node1&#45;&gt;Node3 -->
<g id="edge4" class="edge"><title>Node1&#45;&gt;Node3</title>
<path fill="none" stroke="midnightblue" d="M208.059,-52.8215C192.04,-42.8312 171.945,-30.2993 157.949,-21.5707"/>
<polygon fill="midnightblue" stroke="midnightblue" points="206.605,-56.0399 216.942,-58.3619 210.309,-50.1003 206.605,-56.0399"/>
</g>
<!-- Node4 -->
<g id="node7" class="node"><title>Node4</title>
<a xlink:href="structant_1_1endrow.html" target="_top" xlink:title="ant::endrow">
<polygon fill="white" stroke="black" points="200,-0.5 200,-21.5 268,-21.5 268,-0.5 200,-0.5"/>
<text text-anchor="middle" x="234" y="-8.5" font-family="Helvetica,sans-Serif" font-size="10.00">ant::endrow</text>
</a>
</g>
<!-- Node1&#45;&gt;Node4 -->
<g id="edge6" class="edge"><title>Node1&#45;&gt;Node4</title>
<path fill="none" stroke="midnightblue" d="M234,-48.1906C234,-39.1684 234,-28.9941 234,-21.5707"/>
<polygon fill="midnightblue" stroke="midnightblue" points="230.5,-48.3619 234,-58.3619 237.5,-48.3619 230.5,-48.3619"/>
</g>
<!-- Node5 -->
<g id="node9" class="node"><title>Node5</title>
<a xlink:href="structant_1_1padoption.html" target="_top" xlink:title="ant::padoption">
<polygon fill="white" stroke="black" points="286,-0.5 286,-21.5 364,-21.5 364,-0.5 286,-0.5"/>
<text text-anchor="middle" x="325" y="-8.5" font-family="Helvetica,sans-Serif" font-size="10.00">ant::padoption</text>
</a>
</g>
<!-- Node1&#45;&gt;Node5 -->
<g id="edge8" class="edge"><title>Node1&#45;&gt;Node5</title>
<path fill="none" stroke="midnightblue" d="M259.384,-52.8215C275.058,-42.8312 294.72,-30.2993 308.415,-21.5707"/>
<polygon fill="midnightblue" stroke="midnightblue" points="257.242,-50.0356 250.691,-58.3619 261.005,-55.9386 257.242,-50.0356"/>
</g>
<!-- Node6 -->
<g id="node11" class="node"><title>Node6</title>
<a xlink:href="structant_1_1samepad__t.html" target="_top" xlink:title="ant::samepad_t">
<polygon fill="white" stroke="black" points="382,-0.5 382,-21.5 466,-21.5 466,-0.5 382,-0.5"/>
<text text-anchor="middle" x="424" y="-8.5" font-family="Helvetica,sans-Serif" font-size="10.00">ant::samepad_t</text>
</a>
</g>
<!-- Node1&#45;&gt;Node6 -->
<g id="edge10" class="edge"><title>Node1&#45;&gt;Node6</title>
<path fill="none" stroke="midnightblue" d="M278.072,-55.5464C312.012,-45.1857 358.264,-31.0668 389.528,-21.5231"/>
<polygon fill="midnightblue" stroke="midnightblue" points="276.95,-52.2294 268.408,-58.4966 278.994,-58.9244 276.95,-52.2294"/>
</g>
</g>
</svg>
