<?xml version="1.0" encoding="UTF-8" standalone="no"?>
<!DOCTYPE svg PUBLIC "-//W3C//DTD SVG 1.1//EN"
 "http://www.w3.org/Graphics/SVG/1.1/DTD/svg11.dtd">
<!-- Generated by graphviz version 2.26.3 (20100126.1600)
 -->
<!-- Title: ant::analysis::physics::EtapOmegaG::Sig_t::OmegaPi0_t Pages: 1 -->
<svg width="1604pt" height="459pt"
 viewBox="0.00 0.00 1604.00 459.00" xmlns="http://www.w3.org/2000/svg" xmlns:xlink="http://www.w3.org/1999/xlink">
<g id="graph1" class="graph" transform="scale(1 1) rotate(0) translate(4 455)">
<title>ant::analysis::physics::EtapOmegaG::Sig_t::OmegaPi0_t</title>
<polygon fill="white" stroke="white" points="-4,5 -4,-455 1601,-455 1601,5 -4,5"/>
<!-- Node1 -->
<g id="node1" class="node"><title>Node1</title>
<polygon fill="#bfbfbf" stroke="black" points="1426,-74 1426,-108 1596,-108 1596,-74 1426,-74"/>
<text text-anchor="start" x="1434" y="-95" font-family="Helvetica,sans-Serif" font-size="10.00">ant::analysis::physics</text>
<text text-anchor="middle" x="1511" y="-82" font-family="Helvetica,sans-Serif" font-size="10.00">::EtapOmegaG::Sig_t::OmegaPi0_t</text>
</g>
<!-- Node2 -->
<g id="node2" class="node"><title>Node2</title>
<a xlink:href="structant_1_1analysis_1_1physics_1_1_etap_omega_g_1_1_sig__t_1_1_fit__t.html" target="_top" xlink:title="ant::analysis::physics\l::EtapOmegaG::Sig_t::Fit_t">
<polygon fill="white" stroke="black" points="1233,-103 1233,-137 1369,-137 1369,-103 1233,-103"/>
<text text-anchor="start" x="1241" y="-124" font-family="Helvetica,sans-Serif" font-size="10.00">ant::analysis::physics</text>
<text text-anchor="middle" x="1301" y="-111" font-family="Helvetica,sans-Serif" font-size="10.00">::EtapOmegaG::Sig_t::Fit_t</text>
</a>
</g>
<!-- Node2&#45;&gt;Node1 -->
<g id="edge2" class="edge"><title>Node2&#45;&gt;Node1</title>
<path fill="none" stroke="midnightblue" d="M1379.51,-109.158C1394.64,-107.069 1410.55,-104.871 1425.88,-102.754"/>
<polygon fill="midnightblue" stroke="midnightblue" points="1378.61,-105.749 1369.18,-110.585 1379.57,-112.684 1378.61,-105.749"/>
</g>
<!-- Node3 -->
<g id="node4" class="node"><title>Node3</title>
<a xlink:href="classant_1_1_tree.html" target="_top" xlink:title="ant::Tree\&lt; node_t \&gt;">
<polygon fill="white" stroke="black" points="998.5,-119.5 998.5,-140.5 1101.5,-140.5 1101.5,-119.5 998.5,-119.5"/>
<text text-anchor="middle" x="1050" y="-127.5" font-family="Helvetica,sans-Serif" font-size="10.00">ant::Tree&lt; node_t &gt;</text>
</a>
</g>
<!-- Node3&#45;&gt;Node2 -->
<g id="edge4" class="edge"><title>Node3&#45;&gt;Node2</title>
<path fill="none" stroke="#9a32cd" stroke-dasharray="5,2" d="M1111.76,-127.539C1148.42,-126.079 1194.94,-124.225 1232.69,-122.722"/>
<polygon fill="#9a32cd" stroke="#9a32cd" points="1111.56,-124.045 1101.7,-127.94 1111.83,-131.039 1111.56,-124.045"/>
<text text-anchor="middle" x="1167" y="-183" font-family="Helvetica,sans-Serif" font-size="10.00"> fitted_Omega</text>
<text text-anchor="middle" x="1167" y="-170" font-family="Helvetica,sans-Serif" font-size="10.00">fitted_Pi0</text>
<text text-anchor="middle" x="1167" y="-157" font-family="Helvetica,sans-Serif" font-size="10.00">fitted_g_Omega</text>
<text text-anchor="middle" x="1167" y="-144" font-family="Helvetica,sans-Serif" font-size="10.00">fitted_g2_Pi0</text>
<text text-anchor="middle" x="1167" y="-131" font-family="Helvetica,sans-Serif" font-size="10.00">fitted_g1_Pi0</text>
</g>
<!-- Node4 -->
<g id="node6" class="node"><title>Node4</title>
<polygon fill="white" stroke="#bfbfbf" points="287,-155.5 287,-176.5 383,-176.5 383,-155.5 287,-155.5"/>
<text text-anchor="middle" x="335" y="-163.5" font-family="Helvetica,sans-Serif" font-size="10.00">std::list&lt; node_t &gt;</text>
</g>
<!-- Node4&#45;&gt;Node3 -->
<g id="edge6" class="edge"><title>Node4&#45;&gt;Node3</title>
<path fill="none" stroke="#9a32cd" stroke-dasharray="5,2" d="M393.362,-165.634C419.283,-165.461 450.166,-165.239 478,-165 695.781,-163.127 753.748,-199.091 968,-160 988.878,-156.191 1011.44,-147.576 1027.61,-140.55"/>
<polygon fill="#9a32cd" stroke="#9a32cd" points="393.297,-162.134 383.32,-165.701 393.343,-169.134 393.297,-162.134"/>
<text text-anchor="middle" x="681" y="-179" font-family="Helvetica,sans-Serif" font-size="10.00"> daughters</text>
</g>
<!-- Node6 -->
<g id="node10" class="node"><title>Node6</title>
<a xlink:href="classant_1_1_tree.html" target="_top" xlink:title="ant::Tree\&lt; T \&gt;">
<polygon fill="white" stroke="black" points="528,-114.5 528,-135.5 608,-135.5 608,-114.5 528,-114.5"/>
<text text-anchor="middle" x="568" y="-122.5" font-family="Helvetica,sans-Serif" font-size="10.00">ant::Tree&lt; T &gt;</text>
</a>
</g>
<!-- Node4&#45;&gt;Node6 -->
<g id="edge12" class="edge"><title>Node4&#45;&gt;Node6</title>
<path fill="none" stroke="#9a32cd" stroke-dasharray="5,2" d="M393.367,-155.729C435.346,-148.342 490.866,-138.573 527.923,-132.052"/>
<polygon fill="#9a32cd" stroke="#9a32cd" points="392.52,-152.325 383.278,-157.505 393.733,-159.219 392.52,-152.325"/>
<text text-anchor="middle" x="453" y="-153" font-family="Helvetica,sans-Serif" font-size="10.00"> daughters</text>
</g>
<!-- Node5 -->
<g id="node8" class="node"><title>Node5</title>
<polygon fill="white" stroke="#bfbfbf" points="739.5,-119.5 739.5,-140.5 852.5,-140.5 852.5,-119.5 739.5,-119.5"/>
<text text-anchor="middle" x="796" y="-127.5" font-family="Helvetica,sans-Serif" font-size="10.00">std::weak_ptr&lt; Tree &gt;</text>
</g>
<!-- Node5&#45;&gt;Node3 -->
<g id="edge8" class="edge"><title>Node5&#45;&gt;Node3</title>
<path fill="none" stroke="#9a32cd" stroke-dasharray="5,2" d="M862.909,-130C905.25,-130 959.172,-130 998.239,-130"/>
<polygon fill="#9a32cd" stroke="#9a32cd" points="862.686,-126.5 852.686,-130 862.686,-133.5 862.686,-126.5"/>
<text text-anchor="middle" x="928" y="-147" font-family="Helvetica,sans-Serif" font-size="10.00"> parent</text>
<text text-anchor="middle" x="928" y="-134" font-family="Helvetica,sans-Serif" font-size="10.00">self</text>
</g>
<!-- Node5&#45;&gt;Node6 -->
<g id="edge14" class="edge"><title>Node5&#45;&gt;Node6</title>
<path fill="none" stroke="#9a32cd" stroke-dasharray="5,2" d="M729.455,-128.541C690.179,-127.679 641.754,-126.617 608.237,-125.882"/>
<polygon fill="#9a32cd" stroke="#9a32cd" points="729.414,-132.041 739.488,-128.761 729.567,-125.042 729.414,-132.041"/>
<text text-anchor="middle" x="681" y="-145" font-family="Helvetica,sans-Serif" font-size="10.00"> parent</text>
<text text-anchor="middle" x="681" y="-132" font-family="Helvetica,sans-Serif" font-size="10.00">self</text>
</g>
<!-- Node6&#45;&gt;Node5 -->
<g id="edge10" class="edge"><title>Node6&#45;&gt;Node5</title>
<path fill="none" stroke="#9a32cd" stroke-dasharray="5,2" d="M608.067,-110.988C629.562,-103.59 652.713,-95.8579 658,-95 678.18,-91.7252 684.662,-88.365 704,-95 713.586,-98.2891 712.958,-104.421 722,-109 730.221,-113.163 739.386,-116.608 748.389,-119.419"/>
<polygon fill="#9a32cd" stroke="#9a32cd" points="606.684,-107.763 598.377,-114.338 608.972,-114.378 606.684,-107.763"/>
<text text-anchor="middle" x="681" y="-99" font-family="Helvetica,sans-Serif" font-size="10.00"> ptr</text>
</g>
<!-- Node7 -->
<g id="node14" class="node"><title>Node7</title>
<polygon fill="white" stroke="#bfbfbf" points="320.5,-104.5 320.5,-125.5 349.5,-125.5 349.5,-104.5 320.5,-104.5"/>
<text text-anchor="middle" x="335" y="-112.5" font-family="Helvetica,sans-Serif" font-size="10.00">T</text>
</g>
<!-- Node7&#45;&gt;Node6 -->
<g id="edge16" class="edge"><title>Node7&#45;&gt;Node6</title>
<path fill="none" stroke="#9a32cd" stroke-dasharray="5,2" d="M359.897,-114.476C388.444,-114.037 436.635,-113.792 478,-116 494.308,-116.871 512.219,-118.519 527.74,-120.17"/>
<polygon fill="#9a32cd" stroke="#9a32cd" points="359.567,-110.981 349.629,-114.656 359.689,-117.98 359.567,-110.981"/>
<text text-anchor="middle" x="453" y="-120" font-family="Helvetica,sans-Serif" font-size="10.00"> data</text>
</g>
<!-- Node8 -->
<g id="node16" class="node"><title>Node8</title>
<a xlink:href="structant_1_1analysis_1_1utils_1_1_cluster_tools.html" target="_top" xlink:title="ant::analysis::utils\l::ClusterTools">
<polygon fill="white" stroke="black" points="1002,-66 1002,-100 1098,-100 1098,-66 1002,-66"/>
<text text-anchor="start" x="1010" y="-87" font-family="Helvetica,sans-Serif" font-size="10.00">ant::analysis::utils</text>
<text text-anchor="middle" x="1050" y="-74" font-family="Helvetica,sans-Serif" font-size="10.00">::ClusterTools</text>
</a>
</g>
<!-- Node8&#45;&gt;Node2 -->
<g id="edge18" class="edge"><title>Node8&#45;&gt;Node2</title>
<path fill="none" stroke="#9a32cd" stroke-dasharray="5,2" d="M1108.26,-91.5886C1145.41,-97.0648 1193.71,-104.185 1232.67,-109.927"/>
<polygon fill="#9a32cd" stroke="#9a32cd" points="1108.5,-88.086 1098.1,-90.0902 1107.48,-95.0112 1108.5,-88.086"/>
<text text-anchor="middle" x="1167" y="-109" font-family="Helvetica,sans-Serif" font-size="10.00"> clustertools</text>
</g>
<!-- Node9 -->
<g id="node18" class="node"><title>Node9</title>
<polygon fill="white" stroke="#bfbfbf" points="726.5,-52.5 726.5,-99.5 865.5,-99.5 865.5,-52.5 726.5,-52.5"/>
<text text-anchor="start" x="734.5" y="-86.5" font-family="Helvetica,sans-Serif" font-size="10.00">std::map&lt; ant::Detector</text>
<text text-anchor="start" x="734.5" y="-73.5" font-family="Helvetica,sans-Serif" font-size="10.00">_t::Type_t, ant::analysis</text>
<text text-anchor="middle" x="796" y="-60.5" font-family="Helvetica,sans-Serif" font-size="10.00">::utils::ClusterTools::det_t &gt;</text>
</g>
<!-- Node9&#45;&gt;Node8 -->
<g id="edge20" class="edge"><title>Node9&#45;&gt;Node8</title>
<path fill="none" stroke="#9a32cd" stroke-dasharray="5,2" d="M875.792,-78.199C917.107,-79.3376 966.195,-80.6904 1001.72,-81.6694"/>
<polygon fill="#9a32cd" stroke="#9a32cd" points="875.835,-74.699 865.743,-77.922 875.642,-81.6963 875.835,-74.699"/>
<text text-anchor="middle" x="928" y="-85" font-family="Helvetica,sans-Serif" font-size="10.00"> cluster_detectors</text>
</g>
<!-- Node10 -->
<g id="node20" class="node"><title>Node10</title>
<a xlink:href="structant_1_1analysis_1_1utils_1_1_cluster_tools_1_1det__t.html" target="_top" xlink:title="ant::analysis::utils\l::ClusterTools::det_t">
<polygon fill="white" stroke="black" points="515,-57 515,-91 621,-91 621,-57 515,-57"/>
<text text-anchor="start" x="523" y="-78" font-family="Helvetica,sans-Serif" font-size="10.00">ant::analysis::utils</text>
<text text-anchor="middle" x="568" y="-65" font-family="Helvetica,sans-Serif" font-size="10.00">::ClusterTools::det_t</text>
</a>
</g>
<!-- Node10&#45;&gt;Node9 -->
<g id="edge22" class="edge"><title>Node10&#45;&gt;Node9</title>
<path fill="none" stroke="#9a32cd" stroke-dasharray="5,2" d="M631.158,-62.124C640.139,-60.8296 649.283,-59.7215 658,-59 678.375,-57.3137 683.641,-57.1348 704,-59 711.279,-59.6668 718.841,-60.6245 726.363,-61.7502"/>
<polygon fill="#9a32cd" stroke="#9a32cd" points="630.477,-58.6872 621.119,-63.6538 631.532,-65.6073 630.477,-58.6872"/>
<text text-anchor="middle" x="681" y="-63" font-family="Helvetica,sans-Serif" font-size="10.00"> elements</text>
</g>
<!-- Node11 -->
<g id="node22" class="node"><title>Node11</title>
<polygon fill="white" stroke="#bfbfbf" points="280,-63.5 280,-84.5 390,-84.5 390,-63.5 280,-63.5"/>
<text text-anchor="middle" x="335" y="-71.5" font-family="Helvetica,sans-Serif" font-size="10.00">std::vector&lt; double &gt;</text>
</g>
<!-- Node11&#45;&gt;Node10 -->
<g id="edge24" class="edge"><title>Node11&#45;&gt;Node10</title>
<path fill="none" stroke="#9a32cd" stroke-dasharray="5,2" d="M400.646,-74C436.717,-74 480.882,-74 514.782,-74"/>
<polygon fill="#9a32cd" stroke="#9a32cd" points="400.218,-70.5001 390.218,-74 400.218,-77.5001 400.218,-70.5001"/>
<text text-anchor="middle" x="453" y="-78" font-family="Helvetica,sans-Serif" font-size="10.00"> R0</text>
</g>
<!-- Node12 -->
<g id="node24" class="node"><title>Node12</title>
<a xlink:href="classant_1_1analysis_1_1utils_1_1_tree_fitter.html" target="_top" xlink:title="ant::analysis::utils\l::TreeFitter">
<polygon fill="white" stroke="black" points="1002,-241 1002,-275 1098,-275 1098,-241 1002,-241"/>
<text text-anchor="start" x="1010" y="-262" font-family="Helvetica,sans-Serif" font-size="10.00">ant::analysis::utils</text>
<text text-anchor="middle" x="1050" y="-249" font-family="Helvetica,sans-Serif" font-size="10.00">::TreeFitter</text>
</a>
</g>
<!-- Node12&#45;&gt;Node2 -->
<g id="edge26" class="edge"><title>Node12&#45;&gt;Node2</title>
<path fill="none" stroke="#9a32cd" stroke-dasharray="5,2" d="M1107.72,-238.616C1136.86,-227.806 1172.24,-213.078 1202,-196 1231.88,-178.851 1262.83,-153.687 1282,-137.079"/>
<polygon fill="#9a32cd" stroke="#9a32cd" points="1106.29,-235.413 1098.09,-242.13 1108.69,-241.988 1106.29,-235.413"/>
<text text-anchor="middle" x="1167" y="-232" font-family="Helvetica,sans-Serif" font-size="10.00"> treefitter</text>
</g>
<!-- Node13 -->
<g id="node26" class="node"><title>Node13</title>
<a xlink:href="classant_1_1analysis_1_1utils_1_1_kin_fitter.html" target="_top" xlink:title="ant::analysis::utils\l::KinFitter">
<polygon fill="white" stroke="black" points="748,-267 748,-301 844,-301 844,-267 748,-267"/>
<text text-anchor="start" x="756" y="-288" font-family="Helvetica,sans-Serif" font-size="10.00">ant::analysis::utils</text>
<text text-anchor="middle" x="796" y="-275" font-family="Helvetica,sans-Serif" font-size="10.00">::KinFitter</text>
</a>
</g>
<!-- Node13&#45;&gt;Node12 -->
<g id="edge28" class="edge"><title>Node13&#45;&gt;Node12</title>
<path fill="none" stroke="midnightblue" d="M854.194,-278.043C898.835,-273.474 959.723,-267.241 1001.69,-262.945"/>
<polygon fill="midnightblue" stroke="midnightblue" points="853.666,-274.579 844.074,-279.079 854.379,-281.542 853.666,-274.579"/>
</g>
<!-- Node14 -->
<g id="node28" class="node"><title>Node14</title>
<a xlink:href="classant_1_1analysis_1_1utils_1_1_fitter.html" target="_top" xlink:title="ant::analysis::utils\l::Fitter">
<polygon fill="white" stroke="black" points="520,-311 520,-345 616,-345 616,-311 520,-311"/>
<text text-anchor="start" x="528" y="-332" font-family="Helvetica,sans-Serif" font-size="10.00">ant::analysis::utils</text>
<text text-anchor="middle" x="568" y="-319" font-family="Helvetica,sans-Serif" font-size="10.00">::Fitter</text>
</a>
</g>
<!-- Node14&#45;&gt;Node13 -->
<g id="edge30" class="edge"><title>Node14&#45;&gt;Node13</title>
<path fill="none" stroke="midnightblue" d="M625.92,-316.822C663.686,-309.534 712.388,-300.136 747.991,-293.265"/>
<polygon fill="midnightblue" stroke="midnightblue" points="625.23,-313.391 616.074,-318.722 626.556,-320.264 625.23,-313.391"/>
</g>
<!-- Node15 -->
<g id="node30" class="node"><title>Node15</title>
<polygon fill="white" stroke="#bfbfbf" points="265,-317.5 265,-338.5 405,-338.5 405,-317.5 265,-317.5"/>
<text text-anchor="middle" x="335" y="-325.5" font-family="Helvetica,sans-Serif" font-size="10.00">std::unique_ptr&lt; APLCON &gt;</text>
</g>
<!-- Node15&#45;&gt;Node14 -->
<g id="edge32" class="edge"><title>Node15&#45;&gt;Node14</title>
<path fill="none" stroke="#9a32cd" stroke-dasharray="5,2" d="M415.358,-328C450.095,-328 489.59,-328 519.702,-328"/>
<polygon fill="#9a32cd" stroke="#9a32cd" points="415.224,-324.5 405.224,-328 415.224,-331.5 415.224,-324.5"/>
<text text-anchor="middle" x="453" y="-332" font-family="Helvetica,sans-Serif" font-size="10.00"> aplcon</text>
</g>
<!-- Node16 -->
<g id="node32" class="node"><title>Node16</title>
<polygon fill="white" stroke="#bfbfbf" points="507.5,-259 507.5,-293 628.5,-293 628.5,-259 507.5,-259"/>
<text text-anchor="start" x="515.5" y="-280" font-family="Helvetica,sans-Serif" font-size="10.00">std::vector&lt; std::shared</text>
<text text-anchor="middle" x="568" y="-267" font-family="Helvetica,sans-Serif" font-size="10.00">_ptr&lt; FitParticle &gt; &gt;</text>
</g>
<!-- Node16&#45;&gt;Node13 -->
<g id="edge34" class="edge"><title>Node16&#45;&gt;Node13</title>
<path fill="none" stroke="#9a32cd" stroke-dasharray="5,2" d="M638.788,-278.484C674.223,-279.727 716.197,-281.2 747.857,-282.311"/>
<polygon fill="#9a32cd" stroke="#9a32cd" points="638.618,-274.976 628.501,-278.123 638.372,-281.971 638.618,-274.976"/>
<text text-anchor="middle" x="681" y="-284" font-family="Helvetica,sans-Serif" font-size="10.00"> Photons</text>
</g>
<!-- Node17 -->
<g id="node34" class="node"><title>Node17</title>
<polygon fill="white" stroke="#bfbfbf" points="496.5,-429.5 496.5,-450.5 639.5,-450.5 639.5,-429.5 496.5,-429.5"/>
<text text-anchor="middle" x="568" y="-437.5" font-family="Helvetica,sans-Serif" font-size="10.00">std::unique_ptr&lt; FitParticle &gt;</text>
</g>
<!-- Node17&#45;&gt;Node13 -->
<g id="edge36" class="edge"><title>Node17&#45;&gt;Node13</title>
<path fill="none" stroke="#9a32cd" stroke-dasharray="5,2" d="M627.576,-425.909C631.879,-424.151 636.068,-422.188 640,-420 673.804,-401.186 682.713,-393.304 704,-361 717.226,-340.929 704.991,-326.985 722,-310 729.13,-302.88 738.322,-297.703 747.787,-293.942"/>
<polygon fill="#9a32cd" stroke="#9a32cd" points="626.194,-422.688 618.028,-429.438 628.621,-429.254 626.194,-422.688"/>
<text text-anchor="middle" x="681" y="-412" font-family="Helvetica,sans-Serif" font-size="10.00"> Proton</text>
</g>
<!-- Node18 -->
<g id="node36" class="node"><title>Node18</title>
<polygon fill="white" stroke="#bfbfbf" points="505.5,-363.5 505.5,-410.5 630.5,-410.5 630.5,-363.5 505.5,-363.5"/>
<text text-anchor="start" x="513.5" y="-397.5" font-family="Helvetica,sans-Serif" font-size="10.00">std::unique_ptr&lt; ant</text>
<text text-anchor="start" x="513.5" y="-384.5" font-family="Helvetica,sans-Serif" font-size="10.00">::analysis::utils::KinFitter</text>
<text text-anchor="middle" x="568" y="-371.5" font-family="Helvetica,sans-Serif" font-size="10.00">::PhotonBeamVector &gt;</text>
</g>
<!-- Node18&#45;&gt;Node13 -->
<g id="edge38" class="edge"><title>Node18&#45;&gt;Node13</title>
<path fill="none" stroke="#9a32cd" stroke-dasharray="5,2" d="M629.74,-358.99C633.221,-357.322 636.66,-355.651 640,-354 668.875,-339.728 675.699,-335.377 704,-320 712.041,-315.631 713.653,-313.752 722,-310 730.197,-306.315 739.086,-302.802 747.765,-299.617"/>
<polygon fill="#9a32cd" stroke="#9a32cd" points="628.008,-355.938 620.472,-363.385 631.007,-362.263 628.008,-355.938"/>
<text text-anchor="middle" x="681" y="-348" font-family="Helvetica,sans-Serif" font-size="10.00"> Beam</text>
</g>
<!-- Node19 -->
<g id="node38" class="node"><title>Node19</title>
<a xlink:href="structant_1_1analysis_1_1utils_1_1_kin_fitter_1_1_photon_beam_vector.html" target="_top" xlink:title="ant::analysis::utils\l::KinFitter::PhotonBeamVector">
<polygon fill="white" stroke="black" points="260,-360 260,-394 410,-394 410,-360 260,-360"/>
<text text-anchor="start" x="268" y="-381" font-family="Helvetica,sans-Serif" font-size="10.00">ant::analysis::utils</text>
<text text-anchor="middle" x="335" y="-368" font-family="Helvetica,sans-Serif" font-size="10.00">::KinFitter::PhotonBeamVector</text>
</a>
</g>
<!-- Node19&#45;&gt;Node18 -->
<g id="edge40" class="edge"><title>Node19&#45;&gt;Node18</title>
<path fill="none" stroke="#9a32cd" stroke-dasharray="5,2" d="M420.234,-380.658C448.358,-381.865 479.107,-383.185 505.237,-384.306"/>
<polygon fill="#9a32cd" stroke="#9a32cd" points="420.146,-377.151 410.005,-380.219 419.846,-384.145 420.146,-377.151"/>
<text text-anchor="middle" x="453" y="-386" font-family="Helvetica,sans-Serif" font-size="10.00"> ptr</text>
</g>
<!-- Node20 -->
<g id="node40" class="node"><title>Node20</title>
<a xlink:title="STL class. ">
<polygon fill="white" stroke="#bfbfbf" points="134,-229.5 134,-250.5 194,-250.5 194,-229.5 134,-229.5"/>
<text text-anchor="middle" x="164" y="-237.5" font-family="Helvetica,sans-Serif" font-size="10.00">std::string</text>
</a>
</g>
<!-- Node20&#45;&gt;Node19 -->
<g id="edge42" class="edge"><title>Node20&#45;&gt;Node19</title>
<path fill="none" stroke="#9a32cd" stroke-dasharray="5,2" d="M176.731,-259.247C193.345,-283.036 224.517,-323.382 260,-348 266.538,-352.536 273.883,-356.49 281.351,-359.896"/>
<polygon fill="#9a32cd" stroke="#9a32cd" points="179.439,-257.007 170.908,-250.724 173.659,-260.955 179.439,-257.007"/>
<text text-anchor="middle" x="227" y="-337" font-family="Helvetica,sans-Serif" font-size="10.00"> Name</text>
</g>
<!-- Node30 -->
<g id="node60" class="node"><title>Node30</title>
<a xlink:href="structant_1_1_wrap_t_tree_1_1_r_o_o_t__branch__t.html" target="_top" xlink:title="ant::WrapTTree::ROOT\l_branch_t">
<polygon fill="white" stroke="black" points="275.5,-8 275.5,-42 394.5,-42 394.5,-8 275.5,-8"/>
<text text-anchor="start" x="283.5" y="-29" font-family="Helvetica,sans-Serif" font-size="10.00">ant::WrapTTree::ROOT</text>
<text text-anchor="middle" x="335" y="-16" font-family="Helvetica,sans-Serif" font-size="10.00">_branch_t</text>
</a>
</g>
<!-- Node20&#45;&gt;Node30 -->
<g id="edge64" class="edge"><title>Node20&#45;&gt;Node30</title>
<path fill="none" stroke="#9a32cd" stroke-dasharray="5,2" d="M169.413,-219.163C180.296,-181.198 208.319,-100.403 260,-54 265.194,-49.3366 271.22,-45.3886 277.555,-42.0544"/>
<polygon fill="#9a32cd" stroke="#9a32cd" points="165.963,-218.51 166.685,-229.08 172.712,-220.367 165.963,-218.51"/>
<text text-anchor="middle" x="227" y="-116" font-family="Helvetica,sans-Serif" font-size="10.00"> Name</text>
</g>
<!-- Node21 -->
<g id="node42" class="node"><title>Node21</title>
<a xlink:title="STL class. ">
<polygon fill="white" stroke="#bfbfbf" points="0.5,-223 0.5,-257 95.5,-257 95.5,-223 0.5,-223"/>
<text text-anchor="start" x="8.5" y="-244" font-family="Helvetica,sans-Serif" font-size="10.00">std::basic_string&lt;</text>
<text text-anchor="middle" x="48" y="-231" font-family="Helvetica,sans-Serif" font-size="10.00"> char &gt;</text>
</a>
</g>
<!-- Node21&#45;&gt;Node20 -->
<g id="edge44" class="edge"><title>Node21&#45;&gt;Node20</title>
<path fill="none" stroke="midnightblue" d="M105.582,-240C115.29,-240 125.014,-240 133.666,-240"/>
<polygon fill="midnightblue" stroke="midnightblue" points="105.516,-236.5 95.5163,-240 105.516,-243.5 105.516,-236.5"/>
</g>
<!-- Node22 -->
<g id="node44" class="node"><title>Node22</title>
<polygon fill="white" stroke="#bfbfbf" points="722.5,-215 722.5,-249 869.5,-249 869.5,-215 722.5,-215"/>
<text text-anchor="start" x="730.5" y="-236" font-family="Helvetica,sans-Serif" font-size="10.00">std::unique_ptr&lt; ant</text>
<text text-anchor="middle" x="796" y="-223" font-family="Helvetica,sans-Serif" font-size="10.00">::analysis::utils::KofNvector &gt;</text>
</g>
<!-- Node22&#45;&gt;Node12 -->
<g id="edge46" class="edge"><title>Node22&#45;&gt;Node12</title>
<path fill="none" stroke="#9a32cd" stroke-dasharray="5,2" d="M879.839,-240.103C907.876,-242.862 939.293,-246.006 968,-249 978.968,-250.144 990.757,-251.414 1001.88,-252.631"/>
<polygon fill="#9a32cd" stroke="#9a32cd" points="879.967,-236.599 869.673,-239.105 879.284,-243.566 879.967,-236.599"/>
<text text-anchor="middle" x="928" y="-253" font-family="Helvetica,sans-Serif" font-size="10.00"> current_comb_ptr</text>
</g>
<!-- Node23 -->
<g id="node46" class="node"><title>Node23</title>
<a xlink:href="classant_1_1analysis_1_1utils_1_1_kof_nvector.html" target="_top" xlink:title="KofNvector class: Generate all combinations when drawing k elements out of a vector. ">
<polygon fill="white" stroke="black" points="520,-207 520,-241 616,-241 616,-207 520,-207"/>
<text text-anchor="start" x="528" y="-228" font-family="Helvetica,sans-Serif" font-size="10.00">ant::analysis::utils</text>
<text text-anchor="middle" x="568" y="-215" font-family="Helvetica,sans-Serif" font-size="10.00">::KofNvector&lt; T &gt;</text>
</a>
</g>
<!-- Node23&#45;&gt;Node22 -->
<g id="edge48" class="edge"><title>Node23&#45;&gt;Node22</title>
<path fill="none" stroke="#9a32cd" stroke-dasharray="5,2" d="M626.139,-226.04C655.415,-227.067 691.22,-228.324 722.396,-229.417"/>
<polygon fill="#9a32cd" stroke="#9a32cd" points="626.191,-222.54 616.074,-225.687 625.945,-229.535 626.191,-222.54"/>
<text text-anchor="middle" x="681" y="-232" font-family="Helvetica,sans-Serif" font-size="10.00"> ptr</text>
</g>
<!-- Node24 -->
<g id="node48" class="node"><title>Node24</title>
<polygon fill="white" stroke="#bfbfbf" points="287.5,-207 287.5,-241 382.5,-241 382.5,-207 287.5,-207"/>
<text text-anchor="start" x="295.5" y="-228" font-family="Helvetica,sans-Serif" font-size="10.00">std::vector&lt; index</text>
<text text-anchor="middle" x="335" y="-215" font-family="Helvetica,sans-Serif" font-size="10.00">_type &gt;</text>
</g>
<!-- Node24&#45;&gt;Node23 -->
<g id="edge50" class="edge"><title>Node24&#45;&gt;Node23</title>
<path fill="none" stroke="#9a32cd" stroke-dasharray="5,2" d="M392.898,-224C432.025,-224 483.077,-224 519.951,-224"/>
<polygon fill="#9a32cd" stroke="#9a32cd" points="392.713,-220.5 382.713,-224 392.713,-227.5 392.713,-220.5"/>
<text text-anchor="middle" x="453" y="-241" font-family="Helvetica,sans-Serif" font-size="10.00"> indices</text>
<text text-anchor="middle" x="453" y="-228" font-family="Helvetica,sans-Serif" font-size="10.00">not_indices</text>
</g>
<!-- Node25 -->
<g id="node50" class="node"><title>Node25</title>
<a xlink:title="STL iterator class. ">
<polygon fill="white" stroke="#bfbfbf" points="737.5,-319 737.5,-353 854.5,-353 854.5,-319 737.5,-319"/>
<text text-anchor="start" x="745.5" y="-340" font-family="Helvetica,sans-Serif" font-size="10.00">std::vector&lt; T &gt;::const</text>
<text text-anchor="middle" x="796" y="-327" font-family="Helvetica,sans-Serif" font-size="10.00">_iterator</text>
</a>
</g>
<!-- Node25&#45;&gt;Node12 -->
<g id="edge52" class="edge"><title>Node25&#45;&gt;Node12</title>
<path fill="none" stroke="#9a32cd" stroke-dasharray="5,2" d="M862.671,-316.071C894.575,-306.477 933.297,-294.747 968,-284 978.985,-280.598 990.78,-276.891 1001.9,-273.369"/>
<polygon fill="#9a32cd" stroke="#9a32cd" points="861.57,-312.747 853.001,-318.977 863.585,-319.451 861.57,-312.747"/>
<text text-anchor="middle" x="928" y="-311" font-family="Helvetica,sans-Serif" font-size="10.00"> current_perm</text>
</g>
<!-- Node26 -->
<g id="node52" class="node"><title>Node26</title>
<a xlink:href="structant_1_1analysis_1_1physics_1_1_etap_omega_g_1_1_sig__t_1_1_omega_pi0__t_1_1_base_tree__t.html" target="_top" xlink:title="ant::analysis::physics\l::EtapOmegaG::Sig_t::OmegaPi0\l_t::BaseTree_t">
<polygon fill="white" stroke="black" points="1220,-30.5 1220,-77.5 1382,-77.5 1382,-30.5 1220,-30.5"/>
<text text-anchor="start" x="1228" y="-64.5" font-family="Helvetica,sans-Serif" font-size="10.00">ant::analysis::physics</text>
<text text-anchor="start" x="1228" y="-51.5" font-family="Helvetica,sans-Serif" font-size="10.00">::EtapOmegaG::Sig_t::OmegaPi0</text>
<text text-anchor="middle" x="1301" y="-38.5" font-family="Helvetica,sans-Serif" font-size="10.00">_t::BaseTree_t</text>
</a>
</g>
<!-- Node26&#45;&gt;Node1 -->
<g id="edge54" class="edge"><title>Node26&#45;&gt;Node1</title>
<path fill="none" stroke="#9a32cd" stroke-dasharray="5,2" d="M1392.34,-70.0937C1403.48,-72.0552 1414.82,-74.0535 1425.85,-75.9982"/>
<polygon fill="#9a32cd" stroke="#9a32cd" points="1392.65,-66.5935 1382.19,-68.3052 1391.43,-73.4873 1392.65,-66.5935"/>
<text text-anchor="middle" x="1404" y="-77" font-family="Helvetica,sans-Serif" font-size="10.00"> t</text>
</g>
<!-- Node27 -->
<g id="node54" class="node"><title>Node27</title>
<a xlink:href="structant_1_1analysis_1_1physics_1_1_etap_omega_g_1_1_sig__t_1_1_fit__t_1_1_base_tree__t.html" target="_top" xlink:title="ant::analysis::physics\l::EtapOmegaG::Sig_t::Fit\l_t::BaseTree_t">
<polygon fill="white" stroke="black" points="986,-0.5 986,-47.5 1114,-47.5 1114,-0.5 986,-0.5"/>
<text text-anchor="start" x="994" y="-34.5" font-family="Helvetica,sans-Serif" font-size="10.00">ant::analysis::physics</text>
<text text-anchor="start" x="994" y="-21.5" font-family="Helvetica,sans-Serif" font-size="10.00">::EtapOmegaG::Sig_t::Fit</text>
<text text-anchor="middle" x="1050" y="-8.5" font-family="Helvetica,sans-Serif" font-size="10.00">_t::BaseTree_t</text>
</a>
</g>
<!-- Node27&#45;&gt;Node26 -->
<g id="edge56" class="edge"><title>Node27&#45;&gt;Node26</title>
<path fill="none" stroke="midnightblue" d="M1124.3,-32.8804C1154.32,-36.4683 1189.05,-40.6199 1219.74,-44.2878"/>
<polygon fill="midnightblue" stroke="midnightblue" points="1124.66,-29.3984 1114.31,-31.6868 1123.83,-36.3489 1124.66,-29.3984"/>
</g>
<!-- Node28 -->
<g id="node56" class="node"><title>Node28</title>
<a xlink:href="structant_1_1_wrap_t_tree.html" target="_top" xlink:title="The WrapTTree struct simplifies TTree handling in physics classes. ">
<polygon fill="white" stroke="black" points="753.5,-11.5 753.5,-32.5 838.5,-32.5 838.5,-11.5 753.5,-11.5"/>
<text text-anchor="middle" x="796" y="-19.5" font-family="Helvetica,sans-Serif" font-size="10.00">ant::WrapTTree</text>
</a>
</g>
<!-- Node28&#45;&gt;Node27 -->
<g id="edge58" class="edge"><title>Node28&#45;&gt;Node27</title>
<path fill="none" stroke="midnightblue" d="M848.564,-22.4139C888.433,-22.7278 943.428,-23.1609 985.883,-23.4951"/>
<polygon fill="midnightblue" stroke="midnightblue" points="848.541,-18.9137 838.514,-22.3348 848.486,-25.9135 848.541,-18.9137"/>
</g>
<!-- Node29 -->
<g id="node58" class="node"><title>Node29</title>
<polygon fill="white" stroke="#bfbfbf" points="498,-5 498,-39 638,-39 638,-5 498,-5"/>
<text text-anchor="start" x="506" y="-26" font-family="Helvetica,sans-Serif" font-size="10.00">std::vector&lt; ant::WrapTTree</text>
<text text-anchor="middle" x="568" y="-13" font-family="Helvetica,sans-Serif" font-size="10.00">::ROOT_branch_t &gt;</text>
</g>
<!-- Node29&#45;&gt;Node28 -->
<g id="edge60" class="edge"><title>Node29&#45;&gt;Node28</title>
<path fill="none" stroke="#9a32cd" stroke-dasharray="5,2" d="M648.592,-22C683.968,-22 724.053,-22 753.483,-22"/>
<polygon fill="#9a32cd" stroke="#9a32cd" points="648.268,-18.5001 638.268,-22 648.268,-25.5001 648.268,-18.5001"/>
<text text-anchor="middle" x="681" y="-26" font-family="Helvetica,sans-Serif" font-size="10.00"> branches</text>
</g>
<!-- Node30&#45;&gt;Node29 -->
<g id="edge62" class="edge"><title>Node30&#45;&gt;Node29</title>
<path fill="none" stroke="#9a32cd" stroke-dasharray="5,2" d="M404.869,-24.1004C434.218,-23.7225 468.295,-23.2838 497.691,-22.9053"/>
<polygon fill="#9a32cd" stroke="#9a32cd" points="404.655,-20.6028 394.701,-24.2313 404.745,-27.6022 404.655,-20.6028"/>
<text text-anchor="middle" x="453" y="-28" font-family="Helvetica,sans-Serif" font-size="10.00"> elements</text>
</g>
</g>
</svg>
