<?xml version="1.0" encoding="UTF-8" standalone="no"?>
<!DOCTYPE svg PUBLIC "-//W3C//DTD SVG 1.1//EN"
 "http://www.w3.org/Graphics/SVG/1.1/DTD/svg11.dtd">
<!-- Generated by graphviz version 2.26.3 (20100126.1600)
 -->
<!-- Title: ant::expconfig::detector::CB Pages: 1 -->
<svg width="1320pt" height="187pt"
 viewBox="0.00 0.00 1320.00 187.00" xmlns="http://www.w3.org/2000/svg" xmlns:xlink="http://www.w3.org/1999/xlink">
<g id="graph1" class="graph" transform="scale(1 1) rotate(0) translate(4 183)">
<title>ant::expconfig::detector::CB</title>
<polygon fill="white" stroke="white" points="-4,5 -4,-183 1317,-183 1317,5 -4,5"/>
<!-- Node1 -->
<g id="node1" class="node"><title>Node1</title>
<polygon fill="#bfbfbf" stroke="black" points="1172,-79.5 1172,-100.5 1312,-100.5 1312,-79.5 1172,-79.5"/>
<text text-anchor="middle" x="1242" y="-87.5" font-family="Helvetica,sans-Serif" font-size="10.00">ant::expconfig::detector::CB</text>
</g>
<!-- Node2 -->
<g id="node2" class="node"><title>Node2</title>
<a xlink:href="structant_1_1_cluster_detector__t.html" target="_top" xlink:title="ant::ClusterDetector_t">
<polygon fill="white" stroke="black" points="464.5,-155.5 464.5,-176.5 577.5,-176.5 577.5,-155.5 464.5,-155.5"/>
<text text-anchor="middle" x="521" y="-163.5" font-family="Helvetica,sans-Serif" font-size="10.00">ant::ClusterDetector_t</text>
</a>
</g>
<!-- Node2&#45;&gt;Node1 -->
<g id="edge2" class="edge"><title>Node2&#45;&gt;Node1</title>
<path fill="none" stroke="midnightblue" d="M587.838,-164.522C627.666,-163.765 679.219,-163 725,-163 725,-163 725,-163 1023,-163 1100.95,-163 1186.87,-120.861 1223.65,-100.615"/>
<polygon fill="midnightblue" stroke="midnightblue" points="587.646,-161.025 577.716,-164.719 587.782,-168.024 587.646,-161.025"/>
</g>
<!-- Node3 -->
<g id="node4" class="node"><title>Node3</title>
<a xlink:href="structant_1_1_detector__t.html" target="_top" xlink:title="The Detector_t struct is the minimal base class for all detectors. ">
<polygon fill="white" stroke="black" points="214,-157.5 214,-178.5 296,-178.5 296,-157.5 214,-157.5"/>
<text text-anchor="middle" x="255" y="-165.5" font-family="Helvetica,sans-Serif" font-size="10.00">ant::Detector_t</text>
</a>
</g>
<!-- Node3&#45;&gt;Node2 -->
<g id="edge4" class="edge"><title>Node3&#45;&gt;Node2</title>
<path fill="none" stroke="midnightblue" d="M306.457,-167.613C351.728,-167.273 417.523,-166.778 464.296,-166.426"/>
<polygon fill="midnightblue" stroke="midnightblue" points="306.244,-164.115 296.271,-167.69 306.297,-171.114 306.244,-164.115"/>
</g>
<!-- Node4 -->
<g id="node6" class="node"><title>Node4</title>
<a xlink:href="classant_1_1printable__traits.html" target="_top" xlink:title="ant::printable_traits">
<polygon fill="white" stroke="black" points="0,-141.5 0,-162.5 100,-162.5 100,-141.5 0,-141.5"/>
<text text-anchor="middle" x="50" y="-149.5" font-family="Helvetica,sans-Serif" font-size="10.00">ant::printable_traits</text>
</a>
</g>
<!-- Node4&#45;&gt;Node3 -->
<g id="edge6" class="edge"><title>Node4&#45;&gt;Node3</title>
<path fill="none" stroke="midnightblue" d="M110.256,-156.703C143.639,-159.308 184.269,-162.48 213.974,-164.798"/>
<polygon fill="midnightblue" stroke="midnightblue" points="110.391,-153.203 100.149,-155.914 109.846,-160.182 110.391,-153.203"/>
</g>
<!-- Node13 -->
<g id="node24" class="node"><title>Node13</title>
<a xlink:href="structant_1_1vec3.html" target="_top" xlink:title="ant::vec3">
<polygon fill="white" stroke="black" points="138.5,-118.5 138.5,-139.5 195.5,-139.5 195.5,-118.5 138.5,-118.5"/>
<text text-anchor="middle" x="167" y="-126.5" font-family="Helvetica,sans-Serif" font-size="10.00">ant::vec3</text>
</a>
</g>
<!-- Node4&#45;&gt;Node13 -->
<g id="edge26" class="edge"><title>Node4&#45;&gt;Node13</title>
<path fill="none" stroke="midnightblue" d="M110.115,-140.183C119.953,-138.249 129.73,-136.327 138.332,-134.636"/>
<polygon fill="midnightblue" stroke="midnightblue" points="109.435,-136.749 100.298,-142.112 110.785,-143.618 109.435,-136.749"/>
</g>
<!-- Node5 -->
<g id="node8" class="node"><title>Node5</title>
<a xlink:href="classant_1_1_unpacker_acqu_config.html" target="_top" xlink:title="ant::UnpackerAcquConfig">
<polygon fill="white" stroke="black" points="958.5,-17.5 958.5,-38.5 1087.5,-38.5 1087.5,-17.5 958.5,-17.5"/>
<text text-anchor="middle" x="1023" y="-25.5" font-family="Helvetica,sans-Serif" font-size="10.00">ant::UnpackerAcquConfig</text>
</a>
</g>
<!-- Node5&#45;&gt;Node1 -->
<g id="edge8" class="edge"><title>Node5&#45;&gt;Node1</title>
<path fill="none" stroke="midnightblue" d="M1091.92,-40.5967C1112.09,-44.8569 1134.08,-50.0621 1154,-56 1175.97,-62.5488 1200.23,-72.1033 1217.71,-79.4175"/>
<polygon fill="midnightblue" stroke="midnightblue" points="1092.37,-37.1157 1081.86,-38.5194 1090.95,-43.9708 1092.37,-37.1157"/>
</g>
<!-- Node6 -->
<g id="node10" class="node"><title>Node6</title>
<a xlink:href="classant_1_1_exp_config_1_1_unpacker.html" target="_top" xlink:title="ant::ExpConfig::Unpacker\l\&lt; UnpackerAcquConfig \&gt;">
<polygon fill="white" stroke="black" points="744,-0 744,-34 874,-34 874,-0 744,-0"/>
<text text-anchor="start" x="752" y="-21" font-family="Helvetica,sans-Serif" font-size="10.00">ant::ExpConfig::Unpacker</text>
<text text-anchor="middle" x="809" y="-8" font-family="Helvetica,sans-Serif" font-size="10.00">&lt; UnpackerAcquConfig &gt;</text>
</a>
</g>
<!-- Node6&#45;&gt;Node5 -->
<g id="edge10" class="edge"><title>Node6&#45;&gt;Node5</title>
<path fill="none" stroke="midnightblue" d="M884.263,-20.8686C908.402,-22.1094 934.91,-23.472 958.231,-24.6707"/>
<polygon fill="midnightblue" stroke="midnightblue" points="884.245,-17.3632 874.079,-20.3452 883.886,-24.354 884.245,-17.3632"/>
</g>
<!-- Node7 -->
<g id="node12" class="node"><title>Node7</title>
<a xlink:href="classant_1_1_exp_config_1_1_base.html" target="_top" xlink:title="ant::ExpConfig::Base">
<polygon fill="white" stroke="black" points="596,-6.5 596,-27.5 706,-27.5 706,-6.5 596,-6.5"/>
<text text-anchor="middle" x="651" y="-14.5" font-family="Helvetica,sans-Serif" font-size="10.00">ant::ExpConfig::Base</text>
</a>
</g>
<!-- Node7&#45;&gt;Node6 -->
<g id="edge12" class="edge"><title>Node7&#45;&gt;Node6</title>
<path fill="none" stroke="midnightblue" d="M716.346,-17C725.395,-17 734.69,-17 743.738,-17"/>
<polygon fill="midnightblue" stroke="midnightblue" points="716.261,-13.5001 706.261,-17 716.261,-20.5001 716.261,-13.5001"/>
</g>
<!-- Node8 -->
<g id="node14" class="node"><title>Node8</title>
<polygon fill="white" stroke="#bfbfbf" points="320,-70.5 320,-91.5 440,-91.5 440,-70.5 320,-70.5"/>
<text text-anchor="middle" x="380" y="-78.5" font-family="Helvetica,sans-Serif" font-size="10.00">std::vector&lt; unsigned &gt;</text>
</g>
<!-- Node8&#45;&gt;Node1 -->
<g id="edge14" class="edge"><title>Node8&#45;&gt;Node1</title>
<path fill="none" stroke="#9a32cd" stroke-dasharray="5,2" d="M450.523,-76.5687C505.198,-73.5132 582.876,-70 651,-70 651,-70 651,-70 1023,-70 1072.82,-70 1128.76,-75.1972 1171.63,-80.2929"/>
<polygon fill="#9a32cd" stroke="#9a32cd" points="450.032,-73.0909 440.247,-77.1527 450.43,-80.0796 450.032,-73.0909"/>
<text text-anchor="middle" x="809" y="-74" font-family="Helvetica,sans-Serif" font-size="10.00"> ignoredChannels</text>
</g>
<!-- Node11 -->
<g id="node20" class="node"><title>Node11</title>
<a xlink:href="structant_1_1_cluster_detector__t_1_1_element__t.html" target="_top" xlink:title="ant::ClusterDetector\l_t::Element_t">
<polygon fill="white" stroke="black" points="598.5,-101 598.5,-135 703.5,-135 703.5,-101 598.5,-101"/>
<text text-anchor="start" x="606.5" y="-122" font-family="Helvetica,sans-Serif" font-size="10.00">ant::ClusterDetector</text>
<text text-anchor="middle" x="651" y="-109" font-family="Helvetica,sans-Serif" font-size="10.00">_t::Element_t</text>
</a>
</g>
<!-- Node8&#45;&gt;Node11 -->
<g id="edge28" class="edge"><title>Node8&#45;&gt;Node11</title>
<path fill="none" stroke="#9a32cd" stroke-dasharray="5,2" d="M450.785,-87.9413C488.622,-91.9743 535.949,-97.5344 578,-104 584.632,-105.02 591.582,-106.203 598.447,-107.441"/>
<polygon fill="#9a32cd" stroke="#9a32cd" points="450.689,-84.4118 440.377,-86.8448 449.955,-91.3733 450.689,-84.4118"/>
<text text-anchor="middle" x="521" y="-108" font-family="Helvetica,sans-Serif" font-size="10.00"> Neighbours</text>
</g>
<!-- Node9 -->
<g id="node16" class="node"><title>Node9</title>
<polygon fill="white" stroke="#bfbfbf" points="954.5,-100 954.5,-134 1091.5,-134 1091.5,-100 954.5,-100"/>
<text text-anchor="start" x="962.5" y="-121" font-family="Helvetica,sans-Serif" font-size="10.00">std::vector&lt; ant::expconfig</text>
<text text-anchor="middle" x="1023" y="-108" font-family="Helvetica,sans-Serif" font-size="10.00">::detector::CB::Element_t &gt;</text>
</g>
<!-- Node9&#45;&gt;Node1 -->
<g id="edge16" class="edge"><title>Node9&#45;&gt;Node1</title>
<path fill="none" stroke="#9a32cd" stroke-dasharray="5,2" d="M1101.7,-107.298C1124.55,-104.48 1149.36,-101.422 1171.67,-98.6714"/>
<polygon fill="#9a32cd" stroke="#9a32cd" points="1101.19,-103.834 1091.69,-108.531 1102.05,-110.781 1101.19,-103.834"/>
<text text-anchor="middle" x="1132" y="-109" font-family="Helvetica,sans-Serif" font-size="10.00"> elements</text>
</g>
<!-- Node10 -->
<g id="node18" class="node"><title>Node10</title>
<a xlink:href="structant_1_1expconfig_1_1detector_1_1_c_b_1_1_element__t.html" target="_top" xlink:title="ant::expconfig::detector\l::CB::Element_t">
<polygon fill="white" stroke="black" points="749.5,-101 749.5,-135 868.5,-135 868.5,-101 749.5,-101"/>
<text text-anchor="start" x="757.5" y="-122" font-family="Helvetica,sans-Serif" font-size="10.00">ant::expconfig::detector</text>
<text text-anchor="middle" x="809" y="-109" font-family="Helvetica,sans-Serif" font-size="10.00">::CB::Element_t</text>
</a>
</g>
<!-- Node10&#45;&gt;Node9 -->
<g id="edge18" class="edge"><title>Node10&#45;&gt;Node9</title>
<path fill="none" stroke="#9a32cd" stroke-dasharray="5,2" d="M878.794,-117.674C903.01,-117.561 930.131,-117.434 954.261,-117.321"/>
<polygon fill="#9a32cd" stroke="#9a32cd" points="878.594,-114.175 868.611,-117.721 878.627,-121.175 878.594,-114.175"/>
<text text-anchor="middle" x="914" y="-121" font-family="Helvetica,sans-Serif" font-size="10.00"> elements</text>
</g>
<!-- Node11&#45;&gt;Node10 -->
<g id="edge20" class="edge"><title>Node11&#45;&gt;Node10</title>
<path fill="none" stroke="midnightblue" d="M713.74,-118C725.442,-118 737.642,-118 749.251,-118"/>
<polygon fill="midnightblue" stroke="midnightblue" points="713.612,-114.5 703.612,-118 713.612,-121.5 713.612,-114.5"/>
</g>
<!-- Node12 -->
<g id="node22" class="node"><title>Node12</title>
<a xlink:href="structant_1_1_detector__t_1_1_element__t.html" target="_top" xlink:title="ant::Detector_t::Element_t">
<polygon fill="white" stroke="black" points="314,-118.5 314,-139.5 446,-139.5 446,-118.5 314,-118.5"/>
<text text-anchor="middle" x="380" y="-126.5" font-family="Helvetica,sans-Serif" font-size="10.00">ant::Detector_t::Element_t</text>
</a>
</g>
<!-- Node12&#45;&gt;Node11 -->
<g id="edge22" class="edge"><title>Node12&#45;&gt;Node11</title>
<path fill="none" stroke="midnightblue" d="M456.355,-125.901C501.574,-124.065 557.727,-121.786 598.082,-120.148"/>
<polygon fill="midnightblue" stroke="midnightblue" points="456.144,-122.406 446.294,-126.309 456.428,-129.401 456.144,-122.406"/>
</g>
<!-- Node13&#45;&gt;Node12 -->
<g id="edge24" class="edge"><title>Node13&#45;&gt;Node12</title>
<path fill="none" stroke="#9a32cd" stroke-dasharray="5,2" d="M205.824,-129C235.911,-129 278.302,-129 313.73,-129"/>
<polygon fill="#9a32cd" stroke="#9a32cd" points="205.726,-125.5 195.726,-129 205.726,-132.5 205.726,-125.5"/>
<text text-anchor="middle" x="255" y="-133" font-family="Helvetica,sans-Serif" font-size="10.00"> Position</text>
</g>
</g>
</svg>
