<?xml version="1.0" encoding="UTF-8" standalone="no"?>
<!DOCTYPE svg PUBLIC "-//W3C//DTD SVG 1.1//EN"
 "http://www.w3.org/Graphics/SVG/1.1/DTD/svg11.dtd">
<!-- Generated by graphviz version 2.26.3 (20100126.1600)
 -->
<!-- Title: SigHist_t::Fill_t Pages: 1 -->
<svg width="1404pt" height="139pt"
 viewBox="0.00 0.00 1404.00 139.00" xmlns="http://www.w3.org/2000/svg" xmlns:xlink="http://www.w3.org/1999/xlink">
<g id="graph1" class="graph" transform="scale(1 1) rotate(0) translate(4 135)">
<title>SigHist_t::Fill_t</title>
<polygon fill="white" stroke="white" points="-4,5 -4,-135 1401,-135 1401,5 -4,5"/>
<!-- Node1 -->
<g id="node1" class="node"><title>Node1</title>
<polygon fill="#bfbfbf" stroke="black" points="1312,-61.5 1312,-82.5 1396,-82.5 1396,-61.5 1312,-61.5"/>
<text text-anchor="middle" x="1354" y="-69.5" font-family="Helvetica,sans-Serif" font-size="10.00">SigHist_t::Fill_t</text>
</g>
<!-- Node2 -->
<g id="node2" class="node"><title>Node2</title>
<a xlink:href="struct_common_hist__t_1_1_fill__t.html" target="_top" xlink:title="CommonHist_t::Fill_t">
<polygon fill="white" stroke="black" points="1164,-103.5 1164,-124.5 1274,-124.5 1274,-103.5 1164,-103.5"/>
<text text-anchor="middle" x="1219" y="-111.5" font-family="Helvetica,sans-Serif" font-size="10.00">CommonHist_t::Fill_t</text>
</a>
</g>
<!-- Node2&#45;&gt;Node1 -->
<g id="edge2" class="edge"><title>Node2&#45;&gt;Node1</title>
<path fill="none" stroke="midnightblue" d="M1262.76,-100.385C1281.31,-94.6145 1302.6,-87.9914 1319.94,-82.595"/>
<polygon fill="midnightblue" stroke="midnightblue" points="1261.58,-97.0889 1253.07,-103.402 1263.65,-103.773 1261.58,-97.0889"/>
</g>
<!-- Node3 -->
<g id="node4" class="node"><title>Node3</title>
<a xlink:href="structant_1_1analysis_1_1physics_1_1_etap_omega_g_1_1_tree_common.html" target="_top" xlink:title="ant::analysis::physics\l::EtapOmegaG::TreeCommon">
<polygon fill="white" stroke="black" points="804.5,-97 804.5,-131 951.5,-131 951.5,-97 804.5,-97"/>
<text text-anchor="start" x="812.5" y="-118" font-family="Helvetica,sans-Serif" font-size="10.00">ant::analysis::physics</text>
<text text-anchor="middle" x="878" y="-105" font-family="Helvetica,sans-Serif" font-size="10.00">::EtapOmegaG::TreeCommon</text>
</a>
</g>
<!-- Node3&#45;&gt;Node2 -->
<g id="edge4" class="edge"><title>Node3&#45;&gt;Node2</title>
<path fill="none" stroke="#9a32cd" stroke-dasharray="5,2" d="M961.871,-114C1024.78,-114 1109.13,-114 1163.77,-114"/>
<polygon fill="#9a32cd" stroke="#9a32cd" points="961.572,-110.5 951.572,-114 961.572,-117.5 961.572,-110.5"/>
<text text-anchor="middle" x="1058" y="-118" font-family="Helvetica,sans-Serif" font-size="10.00"> Common</text>
</g>
<!-- Node4 -->
<g id="node6" class="node"><title>Node4</title>
<a xlink:href="structant_1_1_wrap_t_tree.html" target="_top" xlink:title="The WrapTTree struct simplifies TTree handling in physics classes. ">
<polygon fill="white" stroke="black" points="680.5,-58.5 680.5,-79.5 765.5,-79.5 765.5,-58.5 680.5,-58.5"/>
<text text-anchor="middle" x="723" y="-66.5" font-family="Helvetica,sans-Serif" font-size="10.00">ant::WrapTTree</text>
</a>
</g>
<!-- Node4&#45;&gt;Node3 -->
<g id="edge6" class="edge"><title>Node4&#45;&gt;Node3</title>
<path fill="none" stroke="midnightblue" d="M769.301,-82.4422C784.956,-86.9873 802.65,-92.1243 819.146,-96.9135"/>
<polygon fill="midnightblue" stroke="midnightblue" points="769.92,-78.9775 759.341,-79.5505 767.968,-85.6999 769.92,-78.9775"/>
</g>
<!-- Node9 -->
<g id="node16" class="node"><title>Node9</title>
<a xlink:href="structant_1_1analysis_1_1physics_1_1_etap_omega_g_1_1_sig__t_1_1_shared_tree__t.html" target="_top" xlink:title="ant::analysis::physics\l::EtapOmegaG::Sig_t::SharedTree_t">
<polygon fill="white" stroke="black" points="970.5,-54 970.5,-88 1145.5,-88 1145.5,-54 970.5,-54"/>
<text text-anchor="start" x="978.5" y="-75" font-family="Helvetica,sans-Serif" font-size="10.00">ant::analysis::physics</text>
<text text-anchor="middle" x="1058" y="-62" font-family="Helvetica,sans-Serif" font-size="10.00">::EtapOmegaG::Sig_t::SharedTree_t</text>
</a>
</g>
<!-- Node4&#45;&gt;Node9 -->
<g id="edge18" class="edge"><title>Node4&#45;&gt;Node9</title>
<path fill="none" stroke="midnightblue" d="M775.801,-69.3152C827.937,-69.6265 908.597,-70.108 970.353,-70.4767"/>
<polygon fill="midnightblue" stroke="midnightblue" points="775.789,-65.8152 765.768,-69.2553 775.747,-72.8151 775.789,-65.8152"/>
</g>
<!-- Node10 -->
<g id="node19" class="node"><title>Node10</title>
<a xlink:href="structant_1_1analysis_1_1physics_1_1_etap_omega_g_1_1_sig__t_1_1_fit__t_1_1_base_tree__t.html" target="_top" xlink:title="ant::analysis::physics\l::EtapOmegaG::Sig_t::Fit\l_t::BaseTree_t">
<polygon fill="white" stroke="black" points="994,-0.5 994,-47.5 1122,-47.5 1122,-0.5 994,-0.5"/>
<text text-anchor="start" x="1002" y="-34.5" font-family="Helvetica,sans-Serif" font-size="10.00">ant::analysis::physics</text>
<text text-anchor="start" x="1002" y="-21.5" font-family="Helvetica,sans-Serif" font-size="10.00">::EtapOmegaG::Sig_t::Fit</text>
<text text-anchor="middle" x="1058" y="-8.5" font-family="Helvetica,sans-Serif" font-size="10.00">_t::BaseTree_t</text>
</a>
</g>
<!-- Node4&#45;&gt;Node10 -->
<g id="edge22" class="edge"><title>Node4&#45;&gt;Node10</title>
<path fill="none" stroke="midnightblue" d="M775.993,-61.8816C835.023,-53.9521 930.45,-41.1335 993.704,-32.6368"/>
<polygon fill="midnightblue" stroke="midnightblue" points="775.213,-58.4548 765.768,-63.255 776.145,-65.3924 775.213,-58.4548"/>
</g>
<!-- Node5 -->
<g id="node8" class="node"><title>Node5</title>
<polygon fill="white" stroke="#bfbfbf" points="460,-52 460,-86 600,-86 600,-52 460,-52"/>
<text text-anchor="start" x="468" y="-73" font-family="Helvetica,sans-Serif" font-size="10.00">std::vector&lt; ant::WrapTTree</text>
<text text-anchor="middle" x="530" y="-60" font-family="Helvetica,sans-Serif" font-size="10.00">::ROOT_branch_t &gt;</text>
</g>
<!-- Node5&#45;&gt;Node4 -->
<g id="edge8" class="edge"><title>Node5&#45;&gt;Node4</title>
<path fill="none" stroke="#9a32cd" stroke-dasharray="5,2" d="M610.407,-69C634.406,-69 659.771,-69 680.338,-69"/>
<polygon fill="#9a32cd" stroke="#9a32cd" points="610.223,-65.5001 600.223,-69 610.223,-72.5001 610.223,-65.5001"/>
<text text-anchor="middle" x="640" y="-73" font-family="Helvetica,sans-Serif" font-size="10.00"> branches</text>
</g>
<!-- Node6 -->
<g id="node10" class="node"><title>Node6</title>
<a xlink:href="structant_1_1_wrap_t_tree_1_1_r_o_o_t__branch__t.html" target="_top" xlink:title="ant::WrapTTree::ROOT\l_branch_t">
<polygon fill="white" stroke="black" points="260.5,-52 260.5,-86 379.5,-86 379.5,-52 260.5,-52"/>
<text text-anchor="start" x="268.5" y="-73" font-family="Helvetica,sans-Serif" font-size="10.00">ant::WrapTTree::ROOT</text>
<text text-anchor="middle" x="320" y="-60" font-family="Helvetica,sans-Serif" font-size="10.00">_branch_t</text>
</a>
</g>
<!-- Node6&#45;&gt;Node5 -->
<g id="edge10" class="edge"><title>Node6&#45;&gt;Node5</title>
<path fill="none" stroke="#9a32cd" stroke-dasharray="5,2" d="M389.776,-69C412.301,-69 437.273,-69 459.827,-69"/>
<polygon fill="#9a32cd" stroke="#9a32cd" points="389.616,-65.5001 379.616,-69 389.616,-72.5001 389.616,-65.5001"/>
<text text-anchor="middle" x="420" y="-73" font-family="Helvetica,sans-Serif" font-size="10.00"> elements</text>
</g>
<!-- Node7 -->
<g id="node12" class="node"><title>Node7</title>
<a xlink:title="STL class. ">
<polygon fill="white" stroke="#bfbfbf" points="134,-58.5 134,-79.5 194,-79.5 194,-58.5 134,-58.5"/>
<text text-anchor="middle" x="164" y="-66.5" font-family="Helvetica,sans-Serif" font-size="10.00">std::string</text>
</a>
</g>
<!-- Node7&#45;&gt;Node6 -->
<g id="edge12" class="edge"><title>Node7&#45;&gt;Node6</title>
<path fill="none" stroke="#9a32cd" stroke-dasharray="5,2" d="M204.251,-69C221.314,-69 241.554,-69 260.3,-69"/>
<polygon fill="#9a32cd" stroke="#9a32cd" points="204.078,-65.5001 194.078,-69 204.078,-72.5001 204.078,-65.5001"/>
<text text-anchor="middle" x="227" y="-73" font-family="Helvetica,sans-Serif" font-size="10.00"> Name</text>
</g>
<!-- Node8 -->
<g id="node14" class="node"><title>Node8</title>
<a xlink:title="STL class. ">
<polygon fill="white" stroke="#bfbfbf" points="0.5,-52 0.5,-86 95.5,-86 95.5,-52 0.5,-52"/>
<text text-anchor="start" x="8.5" y="-73" font-family="Helvetica,sans-Serif" font-size="10.00">std::basic_string&lt;</text>
<text text-anchor="middle" x="48" y="-60" font-family="Helvetica,sans-Serif" font-size="10.00"> char &gt;</text>
</a>
</g>
<!-- Node8&#45;&gt;Node7 -->
<g id="edge14" class="edge"><title>Node8&#45;&gt;Node7</title>
<path fill="none" stroke="midnightblue" d="M105.582,-69C115.29,-69 125.014,-69 133.666,-69"/>
<polygon fill="midnightblue" stroke="midnightblue" points="105.516,-65.5001 95.5163,-69 105.516,-72.5001 105.516,-65.5001"/>
</g>
<!-- Node9&#45;&gt;Node1 -->
<g id="edge16" class="edge"><title>Node9&#45;&gt;Node1</title>
<path fill="none" stroke="#9a32cd" stroke-dasharray="5,2" d="M1155.72,-71.3301C1208.68,-71.509 1271.38,-71.7209 1311.88,-71.8577"/>
<polygon fill="#9a32cd" stroke="#9a32cd" points="1155.62,-67.8299 1145.61,-71.296 1155.6,-74.8298 1155.62,-67.8299"/>
<text text-anchor="middle" x="1219" y="-75" font-family="Helvetica,sans-Serif" font-size="10.00"> Shared</text>
</g>
<!-- Node10&#45;&gt;Node1 -->
<g id="edge20" class="edge"><title>Node10&#45;&gt;Node1</title>
<path fill="none" stroke="#9a32cd" stroke-dasharray="5,2" d="M1132.12,-32.7439C1173.92,-38.0629 1227.03,-45.4687 1274,-54 1286.33,-56.2387 1299.63,-59.0652 1311.79,-61.8109"/>
<polygon fill="#9a32cd" stroke="#9a32cd" points="1132.38,-29.2491 1122.02,-31.4713 1131.5,-36.1941 1132.38,-29.2491"/>
<text text-anchor="middle" x="1219" y="-58" font-family="Helvetica,sans-Serif" font-size="10.00"> Tree</text>
</g>
</g>
</svg>
