<?xml version="1.0" encoding="UTF-8" standalone="no"?>
<!DOCTYPE svg PUBLIC "-//W3C//DTD SVG 1.1//EN"
 "http://www.w3.org/Graphics/SVG/1.1/DTD/svg11.dtd">
<!-- Generated by graphviz version 2.26.3 (20100126.1600)
 -->
<!-- Title: ant::padoption Pages: 1 -->
<svg width="230pt" height="133pt"
 viewBox="0.00 0.00 230.00 132.50" xmlns="http://www.w3.org/2000/svg" xmlns:xlink="http://www.w3.org/1999/xlink">
<g id="graph1" class="graph" transform="scale(1 1) rotate(0) translate(4 128.5)">
<title>ant::padoption</title>
<polygon fill="white" stroke="white" points="-4,5 -4,-128.5 227,-128.5 227,5 -4,5"/>
<!-- Node1 -->
<g id="node1" class="node"><title>Node1</title>
<polygon fill="#bfbfbf" stroke="black" points="68,-22 68,-43 146,-43 146,-22 68,-22"/>
<text text-anchor="middle" x="107" y="-30" font-family="Helvetica,sans-Serif" font-size="10.00">ant::padoption</text>
</g>
<!-- Node1&#45;&gt;Node1 -->
<g id="edge6" class="edge"><title>Node1&#45;&gt;Node1</title>
<path fill="none" stroke="#9a32cd" stroke-dasharray="5,2" d="M156.275,-40.0725C161.005,-38.5337 164,-36.0095 164,-32.5 164,-26.8848 156.332,-23.792 146.162,-23.2217"/>
<polygon fill="#9a32cd" stroke="#9a32cd" points="155.441,-36.6638 146.162,-41.7783 156.605,-43.5663 155.441,-36.6638"/>
<text text-anchor="middle" x="193" y="-56" font-family="Helvetica,sans-Serif" font-size="10.00"> MakeSquare</text>
<text text-anchor="middle" x="193" y="-43" font-family="Helvetica,sans-Serif" font-size="10.00">LogX</text>
<text text-anchor="middle" x="193" y="-30" font-family="Helvetica,sans-Serif" font-size="10.00">LogY</text>
<text text-anchor="middle" x="193" y="-17" font-family="Helvetica,sans-Serif" font-size="10.00">LogZ</text>
<text text-anchor="middle" x="193" y="-4" font-family="Helvetica,sans-Serif" font-size="10.00">Legend</text>
</g>
<!-- Node2 -->
<g id="node2" class="node"><title>Node2</title>
<a xlink:href="structant_1_1canvas__modifier.html" target="_top" xlink:title="ant::canvas_modifier">
<polygon fill="white" stroke="black" points="-0.5,-103 -0.5,-124 106.5,-124 106.5,-103 -0.5,-103"/>
<text text-anchor="middle" x="53" y="-111" font-family="Helvetica,sans-Serif" font-size="10.00">ant::canvas_modifier</text>
</a>
</g>
<!-- Node2&#45;&gt;Node1 -->
<g id="edge2" class="edge"><title>Node2&#45;&gt;Node1</title>
<path fill="none" stroke="midnightblue" d="M65.7883,-94.3175C76.4644,-78.3034 91.2867,-56.0699 99.9387,-43.0919"/>
<polygon fill="midnightblue" stroke="midnightblue" points="62.6944,-92.6487 60.0596,-102.911 68.5188,-96.5316 62.6944,-92.6487"/>
</g>
<!-- Node3 -->
<g id="node4" class="node"><title>Node3</title>
<polygon fill="white" stroke="#bfbfbf" points="123.5,-103 123.5,-124 198.5,-124 198.5,-103 123.5,-103"/>
<text text-anchor="middle" x="161" y="-111" font-family="Helvetica,sans-Serif" font-size="10.00">padmodifier_t</text>
</g>
<!-- Node3&#45;&gt;Node1 -->
<g id="edge4" class="edge"><title>Node3&#45;&gt;Node1</title>
<path fill="none" stroke="midnightblue" d="M148.212,-94.3175C137.536,-78.3034 122.713,-56.0699 114.061,-43.0919"/>
<polygon fill="midnightblue" stroke="midnightblue" points="145.481,-96.5316 153.94,-102.911 151.306,-92.6487 145.481,-96.5316"/>
</g>
</g>
</svg>
