<?xml version="1.0" encoding="UTF-8" standalone="no"?>
<!DOCTYPE svg PUBLIC "-//W3C//DTD SVG 1.1//EN"
 "http://www.w3.org/Graphics/SVG/1.1/DTD/svg11.dtd">
<!-- Generated by graphviz version 2.26.3 (20100126.1600)
 -->
<!-- Title: ant::analysis::physics::EtapOmegaG::Sig_t Pages: 1 -->
<svg width="1802pt" height="450pt"
 viewBox="0.00 0.00 1802.00 450.00" xmlns="http://www.w3.org/2000/svg" xmlns:xlink="http://www.w3.org/1999/xlink">
<g id="graph1" class="graph" transform="scale(1 1) rotate(0) translate(4 446)">
<title>ant::analysis::physics::EtapOmegaG::Sig_t</title>
<polygon fill="white" stroke="white" points="-4,5 -4,-446 1799,-446 1799,5 -4,5"/>
<!-- Node1 -->
<g id="node1" class="node"><title>Node1</title>
<polygon fill="#bfbfbf" stroke="black" points="1682,-262 1682,-296 1794,-296 1794,-262 1682,-262"/>
<text text-anchor="start" x="1690" y="-283" font-family="Helvetica,sans-Serif" font-size="10.00">ant::analysis::physics</text>
<text text-anchor="middle" x="1738" y="-270" font-family="Helvetica,sans-Serif" font-size="10.00">::EtapOmegaG::Sig_t</text>
</g>
<!-- Node2 -->
<g id="node2" class="node"><title>Node2</title>
<a xlink:href="structant_1_1analysis_1_1physics_1_1_etap_omega_g_1_1_sig__t_1_1_pi0__t.html" target="_top" xlink:title="ant::analysis::physics\l::EtapOmegaG::Sig_t::Pi0_t">
<polygon fill="white" stroke="black" points="1441.5,-286 1441.5,-320 1580.5,-320 1580.5,-286 1441.5,-286"/>
<text text-anchor="start" x="1449.5" y="-307" font-family="Helvetica,sans-Serif" font-size="10.00">ant::analysis::physics</text>
<text text-anchor="middle" x="1511" y="-294" font-family="Helvetica,sans-Serif" font-size="10.00">::EtapOmegaG::Sig_t::Pi0_t</text>
</a>
</g>
<!-- Node2&#45;&gt;Node1 -->
<g id="edge2" class="edge"><title>Node2&#45;&gt;Node1</title>
<path fill="none" stroke="#9a32cd" stroke-dasharray="5,2" d="M1590.7,-294.574C1620.76,-291.395 1654.31,-287.848 1681.79,-284.943"/>
<polygon fill="#9a32cd" stroke="#9a32cd" points="1590.23,-291.104 1580.65,-295.636 1590.96,-298.065 1590.23,-291.104"/>
<text text-anchor="middle" x="1639" y="-296" font-family="Helvetica,sans-Serif" font-size="10.00"> Pi0</text>
</g>
<!-- Node3 -->
<g id="node4" class="node"><title>Node3</title>
<a xlink:href="structant_1_1analysis_1_1physics_1_1_etap_omega_g_1_1_sig__t_1_1_fit__t.html" target="_top" xlink:title="ant::analysis::physics\l::EtapOmegaG::Sig_t::Fit_t">
<polygon fill="white" stroke="black" points="1233,-206 1233,-240 1369,-240 1369,-206 1233,-206"/>
<text text-anchor="start" x="1241" y="-227" font-family="Helvetica,sans-Serif" font-size="10.00">ant::analysis::physics</text>
<text text-anchor="middle" x="1301" y="-214" font-family="Helvetica,sans-Serif" font-size="10.00">::EtapOmegaG::Sig_t::Fit_t</text>
</a>
</g>
<!-- Node3&#45;&gt;Node2 -->
<g id="edge4" class="edge"><title>Node3&#45;&gt;Node2</title>
<path fill="none" stroke="midnightblue" d="M1368.25,-243.527C1372.94,-245.282 1377.56,-247.112 1382,-249 1394.08,-254.138 1397,-255.835 1408,-263 1416.49,-268.533 1417.01,-272.329 1426,-277 1432.44,-280.342 1439.38,-283.334 1446.41,-285.991"/>
<polygon fill="midnightblue" stroke="midnightblue" points="1369.16,-240.135 1358.57,-240.034 1366.79,-246.72 1369.16,-240.135"/>
</g>
<!-- Node32 -->
<g id="node65" class="node"><title>Node32</title>
<a xlink:href="structant_1_1analysis_1_1physics_1_1_etap_omega_g_1_1_sig__t_1_1_omega_pi0__t.html" target="_top" xlink:title="ant::analysis::physics\l::EtapOmegaG::Sig_t::OmegaPi0_t">
<polygon fill="white" stroke="black" points="1426,-234 1426,-268 1596,-268 1596,-234 1426,-234"/>
<text text-anchor="start" x="1434" y="-255" font-family="Helvetica,sans-Serif" font-size="10.00">ant::analysis::physics</text>
<text text-anchor="middle" x="1511" y="-242" font-family="Helvetica,sans-Serif" font-size="10.00">::EtapOmegaG::Sig_t::OmegaPi0_t</text>
</a>
</g>
<!-- Node3&#45;&gt;Node32 -->
<g id="edge70" class="edge"><title>Node3&#45;&gt;Node32</title>
<path fill="none" stroke="midnightblue" d="M1379.26,-233.193C1388.94,-234.468 1398.7,-235.759 1408,-237 1413.81,-237.775 1419.81,-238.58 1425.85,-239.393"/>
<polygon fill="midnightblue" stroke="midnightblue" points="1379.59,-229.707 1369.22,-231.874 1378.68,-236.647 1379.59,-229.707"/>
</g>
<!-- Node4 -->
<g id="node6" class="node"><title>Node4</title>
<a xlink:href="classant_1_1_tree.html" target="_top" xlink:title="ant::Tree\&lt; node_t \&gt;">
<polygon fill="white" stroke="black" points="998.5,-43.5 998.5,-64.5 1101.5,-64.5 1101.5,-43.5 998.5,-43.5"/>
<text text-anchor="middle" x="1050" y="-51.5" font-family="Helvetica,sans-Serif" font-size="10.00">ant::Tree&lt; node_t &gt;</text>
</a>
</g>
<!-- Node4&#45;&gt;Node3 -->
<g id="edge6" class="edge"><title>Node4&#45;&gt;Node3</title>
<path fill="none" stroke="#9a32cd" stroke-dasharray="5,2" d="M1084.39,-68.7641C1116.17,-83.1174 1164.08,-106.575 1202,-133 1233.83,-155.176 1266.26,-186.719 1284.96,-205.971"/>
<polygon fill="#9a32cd" stroke="#9a32cd" points="1085.63,-65.4851 1075.07,-64.6088 1082.78,-71.8782 1085.63,-65.4851"/>
<text text-anchor="middle" x="1167" y="-189" font-family="Helvetica,sans-Serif" font-size="10.00"> fitted_Omega</text>
<text text-anchor="middle" x="1167" y="-176" font-family="Helvetica,sans-Serif" font-size="10.00">fitted_Pi0</text>
<text text-anchor="middle" x="1167" y="-163" font-family="Helvetica,sans-Serif" font-size="10.00">fitted_g_Omega</text>
<text text-anchor="middle" x="1167" y="-150" font-family="Helvetica,sans-Serif" font-size="10.00">fitted_g2_Pi0</text>
<text text-anchor="middle" x="1167" y="-137" font-family="Helvetica,sans-Serif" font-size="10.00">fitted_g1_Pi0</text>
</g>
<!-- Node5 -->
<g id="node8" class="node"><title>Node5</title>
<polygon fill="white" stroke="#bfbfbf" points="287,-0.5 287,-21.5 383,-21.5 383,-0.5 287,-0.5"/>
<text text-anchor="middle" x="335" y="-8.5" font-family="Helvetica,sans-Serif" font-size="10.00">std::list&lt; node_t &gt;</text>
</g>
<!-- Node5&#45;&gt;Node4 -->
<g id="edge8" class="edge"><title>Node5&#45;&gt;Node4</title>
<path fill="none" stroke="#9a32cd" stroke-dasharray="5,2" d="M393.435,-10.7193C466.235,-10.6895 594.407,-11.6884 704,-18 777.997,-22.2616 796.276,-26.3517 870,-34 913.315,-38.4936 962.448,-43.979 998.425,-48.0677"/>
<polygon fill="#9a32cd" stroke="#9a32cd" points="393.101,-7.21957 383.105,-10.7307 393.109,-14.2196 393.101,-7.21957"/>
<text text-anchor="middle" x="681" y="-22" font-family="Helvetica,sans-Serif" font-size="10.00"> daughters</text>
</g>
<!-- Node7 -->
<g id="node12" class="node"><title>Node7</title>
<a xlink:href="classant_1_1_tree.html" target="_top" xlink:title="ant::Tree\&lt; T \&gt;">
<polygon fill="white" stroke="black" points="528,-41.5 528,-62.5 608,-62.5 608,-41.5 528,-41.5"/>
<text text-anchor="middle" x="568" y="-49.5" font-family="Helvetica,sans-Serif" font-size="10.00">ant::Tree&lt; T &gt;</text>
</a>
</g>
<!-- Node5&#45;&gt;Node7 -->
<g id="edge14" class="edge"><title>Node5&#45;&gt;Node7</title>
<path fill="none" stroke="#9a32cd" stroke-dasharray="5,2" d="M393.367,-21.2707C435.346,-28.6575 490.866,-38.427 527.923,-44.9478"/>
<polygon fill="#9a32cd" stroke="#9a32cd" points="393.733,-17.7813 383.278,-19.4952 392.52,-24.6754 393.733,-17.7813"/>
<text text-anchor="middle" x="453" y="-40" font-family="Helvetica,sans-Serif" font-size="10.00"> daughters</text>
</g>
<!-- Node6 -->
<g id="node10" class="node"><title>Node6</title>
<polygon fill="white" stroke="#bfbfbf" points="739.5,-43.5 739.5,-64.5 852.5,-64.5 852.5,-43.5 739.5,-43.5"/>
<text text-anchor="middle" x="796" y="-51.5" font-family="Helvetica,sans-Serif" font-size="10.00">std::weak_ptr&lt; Tree &gt;</text>
</g>
<!-- Node6&#45;&gt;Node4 -->
<g id="edge10" class="edge"><title>Node6&#45;&gt;Node4</title>
<path fill="none" stroke="#9a32cd" stroke-dasharray="5,2" d="M862.909,-54C905.25,-54 959.172,-54 998.239,-54"/>
<polygon fill="#9a32cd" stroke="#9a32cd" points="862.686,-50.5001 852.686,-54 862.686,-57.5001 862.686,-50.5001"/>
<text text-anchor="middle" x="928" y="-71" font-family="Helvetica,sans-Serif" font-size="10.00"> parent</text>
<text text-anchor="middle" x="928" y="-58" font-family="Helvetica,sans-Serif" font-size="10.00">self</text>
</g>
<!-- Node6&#45;&gt;Node7 -->
<g id="edge16" class="edge"><title>Node6&#45;&gt;Node7</title>
<path fill="none" stroke="#9a32cd" stroke-dasharray="5,2" d="M729.455,-53.4163C690.179,-53.0717 641.754,-52.647 608.237,-52.353"/>
<polygon fill="#9a32cd" stroke="#9a32cd" points="729.458,-56.9163 739.488,-53.5043 729.519,-49.9166 729.458,-56.9163"/>
<text text-anchor="middle" x="681" y="-71" font-family="Helvetica,sans-Serif" font-size="10.00"> parent</text>
<text text-anchor="middle" x="681" y="-58" font-family="Helvetica,sans-Serif" font-size="10.00">self</text>
</g>
<!-- Node7&#45;&gt;Node6 -->
<g id="edge12" class="edge"><title>Node7&#45;&gt;Node6</title>
<path fill="none" stroke="#9a32cd" stroke-dasharray="5,2" d="M618.218,-41.4629C631.123,-39.1989 645.027,-37.1442 658,-36 678.365,-34.2038 683.651,-34.028 704,-36 719.551,-37.507 736.377,-40.415 751.333,-43.4614"/>
<polygon fill="#9a32cd" stroke="#9a32cd" points="617.327,-38.0678 608.12,-43.31 618.586,-44.9535 617.327,-38.0678"/>
<text text-anchor="middle" x="681" y="-40" font-family="Helvetica,sans-Serif" font-size="10.00"> ptr</text>
</g>
<!-- Node8 -->
<g id="node16" class="node"><title>Node8</title>
<polygon fill="white" stroke="#bfbfbf" points="320.5,-55.5 320.5,-76.5 349.5,-76.5 349.5,-55.5 320.5,-55.5"/>
<text text-anchor="middle" x="335" y="-63.5" font-family="Helvetica,sans-Serif" font-size="10.00">T</text>
</g>
<!-- Node8&#45;&gt;Node7 -->
<g id="edge18" class="edge"><title>Node8&#45;&gt;Node7</title>
<path fill="none" stroke="#9a32cd" stroke-dasharray="5,2" d="M359.777,-64.5113C399.853,-62.1032 479.278,-57.331 527.614,-54.4266"/>
<polygon fill="#9a32cd" stroke="#9a32cd" points="359.347,-61.0307 349.575,-65.1242 359.767,-68.0181 359.347,-61.0307"/>
<text text-anchor="middle" x="453" y="-65" font-family="Helvetica,sans-Serif" font-size="10.00"> data</text>
</g>
<!-- Node9 -->
<g id="node18" class="node"><title>Node9</title>
<a xlink:href="structant_1_1analysis_1_1utils_1_1_cluster_tools.html" target="_top" xlink:title="ant::analysis::utils\l::ClusterTools">
<polygon fill="white" stroke="black" points="1002,-257 1002,-291 1098,-291 1098,-257 1002,-257"/>
<text text-anchor="start" x="1010" y="-278" font-family="Helvetica,sans-Serif" font-size="10.00">ant::analysis::utils</text>
<text text-anchor="middle" x="1050" y="-265" font-family="Helvetica,sans-Serif" font-size="10.00">::ClusterTools</text>
</a>
</g>
<!-- Node9&#45;&gt;Node3 -->
<g id="edge20" class="edge"><title>Node9&#45;&gt;Node3</title>
<path fill="none" stroke="#9a32cd" stroke-dasharray="5,2" d="M1108.26,-262.162C1145.41,-254.613 1193.71,-244.799 1232.67,-236.884"/>
<polygon fill="#9a32cd" stroke="#9a32cd" points="1107.2,-258.806 1098.1,-264.227 1108.6,-265.666 1107.2,-258.806"/>
<text text-anchor="middle" x="1167" y="-261" font-family="Helvetica,sans-Serif" font-size="10.00"> clustertools</text>
</g>
<!-- Node10 -->
<g id="node20" class="node"><title>Node10</title>
<polygon fill="white" stroke="#bfbfbf" points="726.5,-294.5 726.5,-341.5 865.5,-341.5 865.5,-294.5 726.5,-294.5"/>
<text text-anchor="start" x="734.5" y="-328.5" font-family="Helvetica,sans-Serif" font-size="10.00">std::map&lt; ant::Detector</text>
<text text-anchor="start" x="734.5" y="-315.5" font-family="Helvetica,sans-Serif" font-size="10.00">_t::Type_t, ant::analysis</text>
<text text-anchor="middle" x="796" y="-302.5" font-family="Helvetica,sans-Serif" font-size="10.00">::utils::ClusterTools::det_t &gt;</text>
</g>
<!-- Node10&#45;&gt;Node9 -->
<g id="edge22" class="edge"><title>Node10&#45;&gt;Node9</title>
<path fill="none" stroke="#9a32cd" stroke-dasharray="5,2" d="M875.792,-304.178C917.107,-297.021 966.195,-288.517 1001.72,-282.364"/>
<polygon fill="#9a32cd" stroke="#9a32cd" points="874.998,-300.763 865.743,-305.919 876.193,-307.66 874.998,-300.763"/>
<text text-anchor="middle" x="928" y="-306" font-family="Helvetica,sans-Serif" font-size="10.00"> cluster_detectors</text>
</g>
<!-- Node11 -->
<g id="node22" class="node"><title>Node11</title>
<a xlink:href="structant_1_1analysis_1_1utils_1_1_cluster_tools_1_1det__t.html" target="_top" xlink:title="ant::analysis::utils\l::ClusterTools::det_t">
<polygon fill="white" stroke="black" points="515,-356 515,-390 621,-390 621,-356 515,-356"/>
<text text-anchor="start" x="523" y="-377" font-family="Helvetica,sans-Serif" font-size="10.00">ant::analysis::utils</text>
<text text-anchor="middle" x="568" y="-364" font-family="Helvetica,sans-Serif" font-size="10.00">::ClusterTools::det_t</text>
</a>
</g>
<!-- Node11&#45;&gt;Node10 -->
<g id="edge24" class="edge"><title>Node11&#45;&gt;Node10</title>
<path fill="none" stroke="#9a32cd" stroke-dasharray="5,2" d="M630.963,-357.812C660.543,-350.676 695.9,-342.147 726.287,-334.817"/>
<polygon fill="#9a32cd" stroke="#9a32cd" points="630.068,-354.427 621.168,-360.174 631.71,-361.232 630.068,-354.427"/>
<text text-anchor="middle" x="681" y="-354" font-family="Helvetica,sans-Serif" font-size="10.00"> elements</text>
</g>
<!-- Node12 -->
<g id="node24" class="node"><title>Node12</title>
<polygon fill="white" stroke="#bfbfbf" points="280,-362.5 280,-383.5 390,-383.5 390,-362.5 280,-362.5"/>
<text text-anchor="middle" x="335" y="-370.5" font-family="Helvetica,sans-Serif" font-size="10.00">std::vector&lt; double &gt;</text>
</g>
<!-- Node12&#45;&gt;Node11 -->
<g id="edge26" class="edge"><title>Node12&#45;&gt;Node11</title>
<path fill="none" stroke="#9a32cd" stroke-dasharray="5,2" d="M400.646,-373C436.717,-373 480.882,-373 514.782,-373"/>
<polygon fill="#9a32cd" stroke="#9a32cd" points="400.218,-369.5 390.218,-373 400.218,-376.5 400.218,-369.5"/>
<text text-anchor="middle" x="453" y="-377" font-family="Helvetica,sans-Serif" font-size="10.00"> R0</text>
</g>
<!-- Node13 -->
<g id="node26" class="node"><title>Node13</title>
<a xlink:href="classant_1_1analysis_1_1utils_1_1_tree_fitter.html" target="_top" xlink:title="ant::analysis::utils\l::TreeFitter">
<polygon fill="white" stroke="black" points="1002,-173 1002,-207 1098,-207 1098,-173 1002,-173"/>
<text text-anchor="start" x="1010" y="-194" font-family="Helvetica,sans-Serif" font-size="10.00">ant::analysis::utils</text>
<text text-anchor="middle" x="1050" y="-181" font-family="Helvetica,sans-Serif" font-size="10.00">::TreeFitter</text>
</a>
</g>
<!-- Node13&#45;&gt;Node3 -->
<g id="edge28" class="edge"><title>Node13&#45;&gt;Node3</title>
<path fill="none" stroke="#9a32cd" stroke-dasharray="5,2" d="M1108.26,-197.66C1145.41,-202.544 1193.71,-208.895 1232.67,-214.016"/>
<polygon fill="#9a32cd" stroke="#9a32cd" points="1108.47,-194.157 1098.1,-196.324 1107.56,-201.097 1108.47,-194.157"/>
<text text-anchor="middle" x="1167" y="-214" font-family="Helvetica,sans-Serif" font-size="10.00"> treefitter</text>
</g>
<!-- Node14 -->
<g id="node28" class="node"><title>Node14</title>
<a xlink:href="classant_1_1analysis_1_1utils_1_1_kin_fitter.html" target="_top" xlink:title="ant::analysis::utils\l::KinFitter">
<polygon fill="white" stroke="black" points="748,-197 748,-231 844,-231 844,-197 748,-197"/>
<text text-anchor="start" x="756" y="-218" font-family="Helvetica,sans-Serif" font-size="10.00">ant::analysis::utils</text>
<text text-anchor="middle" x="796" y="-205" font-family="Helvetica,sans-Serif" font-size="10.00">::KinFitter</text>
</a>
</g>
<!-- Node14&#45;&gt;Node13 -->
<g id="edge30" class="edge"><title>Node14&#45;&gt;Node13</title>
<path fill="none" stroke="midnightblue" d="M854.194,-208.501C898.835,-204.283 959.723,-198.53 1001.69,-194.565"/>
<polygon fill="midnightblue" stroke="midnightblue" points="853.7,-205.032 844.074,-209.458 854.359,-212.001 853.7,-205.032"/>
</g>
<!-- Node15 -->
<g id="node30" class="node"><title>Node15</title>
<a xlink:href="classant_1_1analysis_1_1utils_1_1_fitter.html" target="_top" xlink:title="ant::analysis::utils\l::Fitter">
<polygon fill="white" stroke="black" points="520,-238 520,-272 616,-272 616,-238 520,-238"/>
<text text-anchor="start" x="528" y="-259" font-family="Helvetica,sans-Serif" font-size="10.00">ant::analysis::utils</text>
<text text-anchor="middle" x="568" y="-246" font-family="Helvetica,sans-Serif" font-size="10.00">::Fitter</text>
</a>
</g>
<!-- Node15&#45;&gt;Node14 -->
<g id="edge32" class="edge"><title>Node15&#45;&gt;Node14</title>
<path fill="none" stroke="midnightblue" d="M625.92,-244.585C663.686,-237.793 712.388,-229.036 747.991,-222.633"/>
<polygon fill="midnightblue" stroke="midnightblue" points="625.297,-241.14 616.074,-246.355 626.536,-248.03 625.297,-241.14"/>
</g>
<!-- Node16 -->
<g id="node32" class="node"><title>Node16</title>
<polygon fill="white" stroke="#bfbfbf" points="265,-244.5 265,-265.5 405,-265.5 405,-244.5 265,-244.5"/>
<text text-anchor="middle" x="335" y="-252.5" font-family="Helvetica,sans-Serif" font-size="10.00">std::unique_ptr&lt; APLCON &gt;</text>
</g>
<!-- Node16&#45;&gt;Node15 -->
<g id="edge34" class="edge"><title>Node16&#45;&gt;Node15</title>
<path fill="none" stroke="#9a32cd" stroke-dasharray="5,2" d="M415.358,-255C450.095,-255 489.59,-255 519.702,-255"/>
<polygon fill="#9a32cd" stroke="#9a32cd" points="415.224,-251.5 405.224,-255 415.224,-258.5 415.224,-251.5"/>
<text text-anchor="middle" x="453" y="-259" font-family="Helvetica,sans-Serif" font-size="10.00"> aplcon</text>
</g>
<!-- Node17 -->
<g id="node34" class="node"><title>Node17</title>
<polygon fill="white" stroke="#bfbfbf" points="507.5,-186 507.5,-220 628.5,-220 628.5,-186 507.5,-186"/>
<text text-anchor="start" x="515.5" y="-207" font-family="Helvetica,sans-Serif" font-size="10.00">std::vector&lt; std::shared</text>
<text text-anchor="middle" x="568" y="-194" font-family="Helvetica,sans-Serif" font-size="10.00">_ptr&lt; FitParticle &gt; &gt;</text>
</g>
<!-- Node17&#45;&gt;Node14 -->
<g id="edge36" class="edge"><title>Node17&#45;&gt;Node14</title>
<path fill="none" stroke="#9a32cd" stroke-dasharray="5,2" d="M638.788,-206.415C674.223,-208.125 716.197,-210.15 747.857,-211.677"/>
<polygon fill="#9a32cd" stroke="#9a32cd" points="638.658,-202.905 628.501,-205.919 638.321,-209.897 638.658,-202.905"/>
<text text-anchor="middle" x="681" y="-214" font-family="Helvetica,sans-Serif" font-size="10.00"> Photons</text>
</g>
<!-- Node18 -->
<g id="node36" class="node"><title>Node18</title>
<polygon fill="white" stroke="#bfbfbf" points="496.5,-146.5 496.5,-167.5 639.5,-167.5 639.5,-146.5 496.5,-146.5"/>
<text text-anchor="middle" x="568" y="-154.5" font-family="Helvetica,sans-Serif" font-size="10.00">std::unique_ptr&lt; FitParticle &gt;</text>
</g>
<!-- Node18&#45;&gt;Node14 -->
<g id="edge38" class="edge"><title>Node18&#45;&gt;Node14</title>
<path fill="none" stroke="#9a32cd" stroke-dasharray="5,2" d="M620.042,-170.01C658.464,-179.616 710.374,-192.594 747.844,-201.961"/>
<polygon fill="#9a32cd" stroke="#9a32cd" points="620.635,-166.551 610.084,-167.521 618.937,-173.342 620.635,-166.551"/>
<text text-anchor="middle" x="681" y="-195" font-family="Helvetica,sans-Serif" font-size="10.00"> Proton</text>
</g>
<!-- Node19 -->
<g id="node38" class="node"><title>Node19</title>
<polygon fill="white" stroke="#bfbfbf" points="505.5,-290.5 505.5,-337.5 630.5,-337.5 630.5,-290.5 505.5,-290.5"/>
<text text-anchor="start" x="513.5" y="-324.5" font-family="Helvetica,sans-Serif" font-size="10.00">std::unique_ptr&lt; ant</text>
<text text-anchor="start" x="513.5" y="-311.5" font-family="Helvetica,sans-Serif" font-size="10.00">::analysis::utils::KinFitter</text>
<text text-anchor="middle" x="568" y="-298.5" font-family="Helvetica,sans-Serif" font-size="10.00">::PhotonBeamVector &gt;</text>
</g>
<!-- Node19&#45;&gt;Node14 -->
<g id="edge40" class="edge"><title>Node19&#45;&gt;Node14</title>
<path fill="none" stroke="#9a32cd" stroke-dasharray="5,2" d="M630.986,-286.375C671.43,-268.636 722.666,-246.164 757.232,-231.003"/>
<polygon fill="#9a32cd" stroke="#9a32cd" points="629.496,-283.206 621.744,-290.428 632.308,-289.617 629.496,-283.206"/>
<text text-anchor="middle" x="681" y="-277" font-family="Helvetica,sans-Serif" font-size="10.00"> Beam</text>
</g>
<!-- Node20 -->
<g id="node40" class="node"><title>Node20</title>
<a xlink:href="structant_1_1analysis_1_1utils_1_1_kin_fitter_1_1_photon_beam_vector.html" target="_top" xlink:title="ant::analysis::utils\l::KinFitter::PhotonBeamVector">
<polygon fill="white" stroke="black" points="260,-306 260,-340 410,-340 410,-306 260,-306"/>
<text text-anchor="start" x="268" y="-327" font-family="Helvetica,sans-Serif" font-size="10.00">ant::analysis::utils</text>
<text text-anchor="middle" x="335" y="-314" font-family="Helvetica,sans-Serif" font-size="10.00">::KinFitter::PhotonBeamVector</text>
</a>
</g>
<!-- Node20&#45;&gt;Node19 -->
<g id="edge42" class="edge"><title>Node20&#45;&gt;Node19</title>
<path fill="none" stroke="#9a32cd" stroke-dasharray="5,2" d="M420.234,-319.708C448.358,-318.621 479.107,-317.434 505.237,-316.424"/>
<polygon fill="#9a32cd" stroke="#9a32cd" points="419.863,-316.219 410.005,-320.103 420.133,-323.214 419.863,-316.219"/>
<text text-anchor="middle" x="453" y="-324" font-family="Helvetica,sans-Serif" font-size="10.00"> ptr</text>
</g>
<!-- Node21 -->
<g id="node42" class="node"><title>Node21</title>
<a xlink:title="STL class. ">
<polygon fill="white" stroke="#bfbfbf" points="134,-371.5 134,-392.5 194,-392.5 194,-371.5 134,-371.5"/>
<text text-anchor="middle" x="164" y="-379.5" font-family="Helvetica,sans-Serif" font-size="10.00">std::string</text>
</a>
</g>
<!-- Node21&#45;&gt;Node20 -->
<g id="edge44" class="edge"><title>Node21&#45;&gt;Node20</title>
<path fill="none" stroke="#9a32cd" stroke-dasharray="5,2" d="M203.839,-368.254C228.262,-359.828 259.72,-348.974 285.705,-340.008"/>
<polygon fill="#9a32cd" stroke="#9a32cd" points="202.489,-365.018 194.178,-371.588 204.772,-371.635 202.489,-365.018"/>
<text text-anchor="middle" x="227" y="-368" font-family="Helvetica,sans-Serif" font-size="10.00"> Name</text>
</g>
<!-- Node31 -->
<g id="node62" class="node"><title>Node31</title>
<a xlink:href="structant_1_1_wrap_t_tree_1_1_r_o_o_t__branch__t.html" target="_top" xlink:title="ant::WrapTTree::ROOT\l_branch_t">
<polygon fill="white" stroke="black" points="275.5,-405 275.5,-439 394.5,-439 394.5,-405 275.5,-405"/>
<text text-anchor="start" x="283.5" y="-426" font-family="Helvetica,sans-Serif" font-size="10.00">ant::WrapTTree::ROOT</text>
<text text-anchor="middle" x="335" y="-413" font-family="Helvetica,sans-Serif" font-size="10.00">_branch_t</text>
</a>
</g>
<!-- Node21&#45;&gt;Node31 -->
<g id="edge66" class="edge"><title>Node21&#45;&gt;Node31</title>
<path fill="none" stroke="#9a32cd" stroke-dasharray="5,2" d="M204.136,-391.388C225.351,-396.351 251.813,-402.541 275.378,-408.053"/>
<polygon fill="#9a32cd" stroke="#9a32cd" points="204.712,-387.929 194.178,-389.059 203.118,-394.745 204.712,-387.929"/>
<text text-anchor="middle" x="227" y="-403" font-family="Helvetica,sans-Serif" font-size="10.00"> Name</text>
</g>
<!-- Node22 -->
<g id="node44" class="node"><title>Node22</title>
<a xlink:title="STL class. ">
<polygon fill="white" stroke="#bfbfbf" points="0.5,-365 0.5,-399 95.5,-399 95.5,-365 0.5,-365"/>
<text text-anchor="start" x="8.5" y="-386" font-family="Helvetica,sans-Serif" font-size="10.00">std::basic_string&lt;</text>
<text text-anchor="middle" x="48" y="-373" font-family="Helvetica,sans-Serif" font-size="10.00"> char &gt;</text>
</a>
</g>
<!-- Node22&#45;&gt;Node21 -->
<g id="edge46" class="edge"><title>Node22&#45;&gt;Node21</title>
<path fill="none" stroke="midnightblue" d="M105.582,-382C115.29,-382 125.014,-382 133.666,-382"/>
<polygon fill="midnightblue" stroke="midnightblue" points="105.516,-378.5 95.5163,-382 105.516,-385.5 105.516,-378.5"/>
</g>
<!-- Node23 -->
<g id="node46" class="node"><title>Node23</title>
<polygon fill="white" stroke="#bfbfbf" points="722.5,-145 722.5,-179 869.5,-179 869.5,-145 722.5,-145"/>
<text text-anchor="start" x="730.5" y="-166" font-family="Helvetica,sans-Serif" font-size="10.00">std::unique_ptr&lt; ant</text>
<text text-anchor="middle" x="796" y="-153" font-family="Helvetica,sans-Serif" font-size="10.00">::analysis::utils::KofNvector &gt;</text>
</g>
<!-- Node23&#45;&gt;Node13 -->
<g id="edge48" class="edge"><title>Node23&#45;&gt;Node13</title>
<path fill="none" stroke="#9a32cd" stroke-dasharray="5,2" d="M879.93,-171.252C920.346,-175.707 967.363,-180.89 1001.71,-184.676"/>
<polygon fill="#9a32cd" stroke="#9a32cd" points="880.132,-167.753 869.809,-170.136 879.365,-174.711 880.132,-167.753"/>
<text text-anchor="middle" x="928" y="-185" font-family="Helvetica,sans-Serif" font-size="10.00"> current_comb_ptr</text>
</g>
<!-- Node24 -->
<g id="node48" class="node"><title>Node24</title>
<a xlink:href="classant_1_1analysis_1_1utils_1_1_kof_nvector.html" target="_top" xlink:title="KofNvector class: Generate all combinations when drawing k elements out of a vector. ">
<polygon fill="white" stroke="black" points="520,-94 520,-128 616,-128 616,-94 520,-94"/>
<text text-anchor="start" x="528" y="-115" font-family="Helvetica,sans-Serif" font-size="10.00">ant::analysis::utils</text>
<text text-anchor="middle" x="568" y="-102" font-family="Helvetica,sans-Serif" font-size="10.00">::KofNvector&lt; T &gt;</text>
</a>
</g>
<!-- Node24&#45;&gt;Node23 -->
<g id="edge50" class="edge"><title>Node24&#45;&gt;Node23</title>
<path fill="none" stroke="#9a32cd" stroke-dasharray="5,2" d="M626.384,-108.432C651.06,-109.182 679.659,-112.535 704,-122 713.446,-125.673 713.103,-131.146 722,-136 727.977,-139.261 734.442,-142.24 740.976,-144.923"/>
<polygon fill="#9a32cd" stroke="#9a32cd" points="626.13,-104.928 616.073,-108.26 626.013,-111.927 626.13,-104.928"/>
<text text-anchor="middle" x="681" y="-126" font-family="Helvetica,sans-Serif" font-size="10.00"> ptr</text>
</g>
<!-- Node25 -->
<g id="node50" class="node"><title>Node25</title>
<polygon fill="white" stroke="#bfbfbf" points="287.5,-95 287.5,-129 382.5,-129 382.5,-95 287.5,-95"/>
<text text-anchor="start" x="295.5" y="-116" font-family="Helvetica,sans-Serif" font-size="10.00">std::vector&lt; index</text>
<text text-anchor="middle" x="335" y="-103" font-family="Helvetica,sans-Serif" font-size="10.00">_type &gt;</text>
</g>
<!-- Node25&#45;&gt;Node24 -->
<g id="edge52" class="edge"><title>Node25&#45;&gt;Node24</title>
<path fill="none" stroke="#9a32cd" stroke-dasharray="5,2" d="M392.898,-111.752C432.025,-111.584 483.077,-111.364 519.951,-111.206"/>
<polygon fill="#9a32cd" stroke="#9a32cd" points="392.698,-108.252 382.713,-111.795 392.728,-115.252 392.698,-108.252"/>
<text text-anchor="middle" x="453" y="-129" font-family="Helvetica,sans-Serif" font-size="10.00"> indices</text>
<text text-anchor="middle" x="453" y="-116" font-family="Helvetica,sans-Serif" font-size="10.00">not_indices</text>
</g>
<!-- Node26 -->
<g id="node52" class="node"><title>Node26</title>
<a xlink:title="STL iterator class. ">
<polygon fill="white" stroke="#bfbfbf" points="737.5,-93 737.5,-127 854.5,-127 854.5,-93 737.5,-93"/>
<text text-anchor="start" x="745.5" y="-114" font-family="Helvetica,sans-Serif" font-size="10.00">std::vector&lt; T &gt;::const</text>
<text text-anchor="middle" x="796" y="-101" font-family="Helvetica,sans-Serif" font-size="10.00">_iterator</text>
</a>
</g>
<!-- Node26&#45;&gt;Node13 -->
<g id="edge54" class="edge"><title>Node26&#45;&gt;Node13</title>
<path fill="none" stroke="#9a32cd" stroke-dasharray="5,2" d="M864.756,-126.179C896.478,-134.206 934.456,-144.616 968,-156 982.448,-160.903 997.984,-167.099 1011.61,-172.854"/>
<polygon fill="#9a32cd" stroke="#9a32cd" points="865.241,-122.693 854.69,-123.659 863.54,-129.483 865.241,-122.693"/>
<text text-anchor="middle" x="928" y="-160" font-family="Helvetica,sans-Serif" font-size="10.00"> current_perm</text>
</g>
<!-- Node27 -->
<g id="node54" class="node"><title>Node27</title>
<a xlink:href="structant_1_1analysis_1_1physics_1_1_etap_omega_g_1_1_sig__t_1_1_pi0__t_1_1_base_tree__t.html" target="_top" xlink:title="ant::analysis::physics\l::EtapOmegaG::Sig_t::Pi0\l_t::BaseTree_t">
<polygon fill="white" stroke="black" points="1235.5,-324.5 1235.5,-371.5 1366.5,-371.5 1366.5,-324.5 1235.5,-324.5"/>
<text text-anchor="start" x="1243.5" y="-358.5" font-family="Helvetica,sans-Serif" font-size="10.00">ant::analysis::physics</text>
<text text-anchor="start" x="1243.5" y="-345.5" font-family="Helvetica,sans-Serif" font-size="10.00">::EtapOmegaG::Sig_t::Pi0</text>
<text text-anchor="middle" x="1301" y="-332.5" font-family="Helvetica,sans-Serif" font-size="10.00">_t::BaseTree_t</text>
</a>
</g>
<!-- Node27&#45;&gt;Node2 -->
<g id="edge56" class="edge"><title>Node27&#45;&gt;Node2</title>
<path fill="none" stroke="#9a32cd" stroke-dasharray="5,2" d="M1376.47,-331.829C1397.58,-327.305 1420.42,-322.409 1441.19,-317.959"/>
<polygon fill="#9a32cd" stroke="#9a32cd" points="1375.63,-328.429 1366.58,-333.947 1377.09,-335.274 1375.63,-328.429"/>
<text text-anchor="middle" x="1404" y="-330" font-family="Helvetica,sans-Serif" font-size="10.00"> t</text>
</g>
<!-- Node28 -->
<g id="node56" class="node"><title>Node28</title>
<a xlink:href="structant_1_1analysis_1_1physics_1_1_etap_omega_g_1_1_sig__t_1_1_fit__t_1_1_base_tree__t.html" target="_top" xlink:title="ant::analysis::physics\l::EtapOmegaG::Sig_t::Fit\l_t::BaseTree_t">
<polygon fill="white" stroke="black" points="986,-324.5 986,-371.5 1114,-371.5 1114,-324.5 986,-324.5"/>
<text text-anchor="start" x="994" y="-358.5" font-family="Helvetica,sans-Serif" font-size="10.00">ant::analysis::physics</text>
<text text-anchor="start" x="994" y="-345.5" font-family="Helvetica,sans-Serif" font-size="10.00">::EtapOmegaG::Sig_t::Fit</text>
<text text-anchor="middle" x="1050" y="-332.5" font-family="Helvetica,sans-Serif" font-size="10.00">_t::BaseTree_t</text>
</a>
</g>
<!-- Node28&#45;&gt;Node27 -->
<g id="edge58" class="edge"><title>Node28&#45;&gt;Node27</title>
<path fill="none" stroke="midnightblue" d="M1124.51,-348C1159.62,-348 1201.16,-348 1235.11,-348"/>
<polygon fill="midnightblue" stroke="midnightblue" points="1124.31,-344.5 1114.31,-348 1124.31,-351.5 1124.31,-344.5"/>
</g>
<!-- Node33 -->
<g id="node68" class="node"><title>Node33</title>
<a xlink:href="structant_1_1analysis_1_1physics_1_1_etap_omega_g_1_1_sig__t_1_1_omega_pi0__t_1_1_base_tree__t.html" target="_top" xlink:title="ant::analysis::physics\l::EtapOmegaG::Sig_t::OmegaPi0\l_t::BaseTree_t">
<polygon fill="white" stroke="black" points="1220,-258.5 1220,-305.5 1382,-305.5 1382,-258.5 1220,-258.5"/>
<text text-anchor="start" x="1228" y="-292.5" font-family="Helvetica,sans-Serif" font-size="10.00">ant::analysis::physics</text>
<text text-anchor="start" x="1228" y="-279.5" font-family="Helvetica,sans-Serif" font-size="10.00">::EtapOmegaG::Sig_t::OmegaPi0</text>
<text text-anchor="middle" x="1301" y="-266.5" font-family="Helvetica,sans-Serif" font-size="10.00">_t::BaseTree_t</text>
</a>
</g>
<!-- Node28&#45;&gt;Node33 -->
<g id="edge74" class="edge"><title>Node28&#45;&gt;Node33</title>
<path fill="none" stroke="midnightblue" d="M1124.3,-328.463C1154.32,-320.57 1189.05,-311.436 1219.74,-303.367"/>
<polygon fill="midnightblue" stroke="midnightblue" points="1123.09,-325.161 1114.31,-331.089 1124.87,-331.931 1123.09,-325.161"/>
</g>
<!-- Node29 -->
<g id="node58" class="node"><title>Node29</title>
<a xlink:href="structant_1_1_wrap_t_tree.html" target="_top" xlink:title="The WrapTTree struct simplifies TTree handling in physics classes. ">
<polygon fill="white" stroke="black" points="753.5,-383.5 753.5,-404.5 838.5,-404.5 838.5,-383.5 753.5,-383.5"/>
<text text-anchor="middle" x="796" y="-391.5" font-family="Helvetica,sans-Serif" font-size="10.00">ant::WrapTTree</text>
</a>
</g>
<!-- Node29&#45;&gt;Node28 -->
<g id="edge60" class="edge"><title>Node29&#45;&gt;Node28</title>
<path fill="none" stroke="midnightblue" d="M848.564,-384.481C888.433,-377.26 943.428,-367.3 985.883,-359.612"/>
<polygon fill="midnightblue" stroke="midnightblue" points="847.73,-381.075 838.514,-386.301 848.978,-387.962 847.73,-381.075"/>
</g>
<!-- Node30 -->
<g id="node60" class="node"><title>Node30</title>
<polygon fill="white" stroke="#bfbfbf" points="498,-408 498,-442 638,-442 638,-408 498,-408"/>
<text text-anchor="start" x="506" y="-429" font-family="Helvetica,sans-Serif" font-size="10.00">std::vector&lt; ant::WrapTTree</text>
<text text-anchor="middle" x="568" y="-416" font-family="Helvetica,sans-Serif" font-size="10.00">::ROOT_branch_t &gt;</text>
</g>
<!-- Node30&#45;&gt;Node29 -->
<g id="edge62" class="edge"><title>Node30&#45;&gt;Node29</title>
<path fill="none" stroke="#9a32cd" stroke-dasharray="5,2" d="M648.592,-414.042C683.968,-409.232 724.053,-403.782 753.483,-399.781"/>
<polygon fill="#9a32cd" stroke="#9a32cd" points="647.705,-410.631 638.268,-415.446 648.648,-417.567 647.705,-410.631"/>
<text text-anchor="middle" x="681" y="-416" font-family="Helvetica,sans-Serif" font-size="10.00"> branches</text>
</g>
<!-- Node31&#45;&gt;Node30 -->
<g id="edge64" class="edge"><title>Node31&#45;&gt;Node30</title>
<path fill="none" stroke="#9a32cd" stroke-dasharray="5,2" d="M404.869,-422.9C434.218,-423.277 468.295,-423.716 497.691,-424.095"/>
<polygon fill="#9a32cd" stroke="#9a32cd" points="404.745,-419.398 394.701,-422.769 404.655,-426.397 404.745,-419.398"/>
<text text-anchor="middle" x="453" y="-427" font-family="Helvetica,sans-Serif" font-size="10.00"> elements</text>
</g>
<!-- Node32&#45;&gt;Node1 -->
<g id="edge68" class="edge"><title>Node32&#45;&gt;Node1</title>
<path fill="none" stroke="#9a32cd" stroke-dasharray="5,2" d="M1606.35,-262.761C1632.11,-265.939 1659.15,-269.274 1681.97,-272.089"/>
<polygon fill="#9a32cd" stroke="#9a32cd" points="1606.53,-259.256 1596.17,-261.506 1605.67,-266.204 1606.53,-259.256"/>
<text text-anchor="middle" x="1639" y="-274" font-family="Helvetica,sans-Serif" font-size="10.00"> OmegaPi0</text>
</g>
<!-- Node33&#45;&gt;Node32 -->
<g id="edge72" class="edge"><title>Node33&#45;&gt;Node32</title>
<path fill="none" stroke="#9a32cd" stroke-dasharray="5,2" d="M1392.34,-268.516C1403.48,-266.873 1414.82,-265.198 1425.85,-263.569"/>
<polygon fill="#9a32cd" stroke="#9a32cd" points="1391.57,-265.092 1382.19,-270.015 1392.6,-272.017 1391.57,-265.092"/>
<text text-anchor="middle" x="1404" y="-271" font-family="Helvetica,sans-Serif" font-size="10.00"> t</text>
</g>
</g>
</svg>
