<?xml version="1.0" encoding="UTF-8" standalone="no"?>
<!DOCTYPE svg PUBLIC "-//W3C//DTD SVG 1.1//EN"
 "http://www.w3.org/Graphics/SVG/1.1/DTD/svg11.dtd">
<!-- Generated by graphviz version 2.26.3 (20100126.1600)
 -->
<!-- Title: ant::analysis::physics::OmegaEtaG2::OmegaTree_t Pages: 1 -->
<svg width="154pt" height="422pt"
 viewBox="0.00 0.00 154.00 422.00" xmlns="http://www.w3.org/2000/svg" xmlns:xlink="http://www.w3.org/1999/xlink">
<g id="graph1" class="graph" transform="scale(1 1) rotate(0) translate(4 418)">
<title>ant::analysis::physics::OmegaEtaG2::OmegaTree_t</title>
<polygon fill="white" stroke="white" points="-4,5 -4,-418 151,-418 151,5 -4,5"/>
<!-- Node1 -->
<g id="node1" class="node"><title>Node1</title>
<polygon fill="#bfbfbf" stroke="black" points="-0.5,-1 -0.5,-35 146.5,-35 146.5,-1 -0.5,-1"/>
<text text-anchor="start" x="7.5" y="-22" font-family="Helvetica,sans-Serif" font-size="10.00">ant::analysis::physics</text>
<text text-anchor="middle" x="73" y="-9" font-family="Helvetica,sans-Serif" font-size="10.00">::OmegaEtaG2::OmegaTree_t</text>
</g>
<!-- Node2 -->
<g id="node2" class="node"><title>Node2</title>
<a xlink:href="structant_1_1_wrap_t_tree.html" target="_top" xlink:title="The WrapTTree struct simplifies TTree handling in physics classes. ">
<polygon fill="white" stroke="black" points="30.5,-74.5 30.5,-95.5 115.5,-95.5 115.5,-74.5 30.5,-74.5"/>
<text text-anchor="middle" x="73" y="-82.5" font-family="Helvetica,sans-Serif" font-size="10.00">ant::WrapTTree</text>
</a>
</g>
<!-- Node2&#45;&gt;Node1 -->
<g id="edge2" class="edge"><title>Node2&#45;&gt;Node1</title>
<path fill="none" stroke="midnightblue" d="M73,-64.1655C73,-54.7973 73,-43.8796 73,-35.0139"/>
<polygon fill="midnightblue" stroke="midnightblue" points="69.5001,-64.2353 73,-74.2353 76.5001,-64.2353 69.5001,-64.2353"/>
</g>
<!-- Node3 -->
<g id="node4" class="node"><title>Node3</title>
<polygon fill="white" stroke="#bfbfbf" points="3,-147 3,-181 143,-181 143,-147 3,-147"/>
<text text-anchor="start" x="11" y="-168" font-family="Helvetica,sans-Serif" font-size="10.00">std::vector&lt; ant::WrapTTree</text>
<text text-anchor="middle" x="73" y="-155" font-family="Helvetica,sans-Serif" font-size="10.00">::ROOT_branch_t &gt;</text>
</g>
<!-- Node3&#45;&gt;Node2 -->
<g id="edge4" class="edge"><title>Node3&#45;&gt;Node2</title>
<path fill="none" stroke="#9a32cd" stroke-dasharray="5,2" d="M73,-136.623C73,-122.473 73,-106.024 73,-95.5672"/>
<polygon fill="#9a32cd" stroke="#9a32cd" points="69.5001,-136.858 73,-146.858 76.5001,-136.858 69.5001,-136.858"/>
<text text-anchor="middle" x="94.5" y="-118.5" font-family="Helvetica,sans-Serif" font-size="10.00"> branches</text>
</g>
<!-- Node4 -->
<g id="node6" class="node"><title>Node4</title>
<a xlink:href="structant_1_1_wrap_t_tree_1_1_r_o_o_t__branch__t.html" target="_top" xlink:title="ant::WrapTTree::ROOT\l_branch_t">
<polygon fill="white" stroke="black" points="13.5,-233 13.5,-267 132.5,-267 132.5,-233 13.5,-233"/>
<text text-anchor="start" x="21.5" y="-254" font-family="Helvetica,sans-Serif" font-size="10.00">ant::WrapTTree::ROOT</text>
<text text-anchor="middle" x="73" y="-241" font-family="Helvetica,sans-Serif" font-size="10.00">_branch_t</text>
</a>
</g>
<!-- Node4&#45;&gt;Node3 -->
<g id="edge6" class="edge"><title>Node4&#45;&gt;Node3</title>
<path fill="none" stroke="#9a32cd" stroke-dasharray="5,2" d="M73,-222.342C73,-208.774 73,-192.861 73,-181.084"/>
<polygon fill="#9a32cd" stroke="#9a32cd" points="69.5001,-222.597 73,-232.597 76.5001,-222.597 69.5001,-222.597"/>
<text text-anchor="middle" x="94.5" y="-204.5" font-family="Helvetica,sans-Serif" font-size="10.00"> elements</text>
</g>
<!-- Node5 -->
<g id="node8" class="node"><title>Node5</title>
<a xlink:title="STL class. ">
<polygon fill="white" stroke="#bfbfbf" points="43,-318.5 43,-339.5 103,-339.5 103,-318.5 43,-318.5"/>
<text text-anchor="middle" x="73" y="-326.5" font-family="Helvetica,sans-Serif" font-size="10.00">std::string</text>
</a>
</g>
<!-- Node5&#45;&gt;Node4 -->
<g id="edge8" class="edge"><title>Node5&#45;&gt;Node4</title>
<path fill="none" stroke="#9a32cd" stroke-dasharray="5,2" d="M73,-308.162C73,-295.363 73,-279.171 73,-267.124"/>
<polygon fill="#9a32cd" stroke="#9a32cd" points="69.5001,-308.346 73,-318.346 76.5001,-308.346 69.5001,-308.346"/>
<text text-anchor="middle" x="88" y="-290.5" font-family="Helvetica,sans-Serif" font-size="10.00"> Name</text>
</g>
<!-- Node6 -->
<g id="node10" class="node"><title>Node6</title>
<a xlink:title="STL class. ">
<polygon fill="white" stroke="#bfbfbf" points="25.5,-379 25.5,-413 120.5,-413 120.5,-379 25.5,-379"/>
<text text-anchor="start" x="33.5" y="-400" font-family="Helvetica,sans-Serif" font-size="10.00">std::basic_string&lt;</text>
<text text-anchor="middle" x="73" y="-387" font-family="Helvetica,sans-Serif" font-size="10.00"> char &gt;</text>
</a>
</g>
<!-- Node6&#45;&gt;Node5 -->
<g id="edge10" class="edge"><title>Node6&#45;&gt;Node5</title>
<path fill="none" stroke="midnightblue" d="M73,-368.534C73,-358.306 73,-347.301 73,-339.506"/>
<polygon fill="midnightblue" stroke="midnightblue" points="69.5001,-368.746 73,-378.746 76.5001,-368.746 69.5001,-368.746"/>
</g>
</g>
</svg>
