<?xml version="1.0" encoding="UTF-8" standalone="no"?>
<!DOCTYPE svg PUBLIC "-//W3C//DTD SVG 1.1//EN"
 "http://www.w3.org/Graphics/SVG/1.1/DTD/svg11.dtd">
<!-- Generated by graphviz version 2.26.3 (20100126.1600)
 -->
<!-- Title: SigHist_t Pages: 1 -->
<svg width="198pt" height="146pt"
 viewBox="0.00 0.00 198.00 146.00" xmlns="http://www.w3.org/2000/svg" xmlns:xlink="http://www.w3.org/1999/xlink">
<g id="graph1" class="graph" transform="scale(1 1) rotate(0) translate(4 142)">
<title>SigHist_t</title>
<polygon fill="white" stroke="white" points="-4,5 -4,-142 195,-142 195,5 -4,5"/>
<!-- Node1 -->
<g id="node1" class="node"><title>Node1</title>
<polygon fill="#bfbfbf" stroke="black" points="74.5,-58.5 74.5,-79.5 131.5,-79.5 131.5,-58.5 74.5,-58.5"/>
<text text-anchor="middle" x="103" y="-66.5" font-family="Helvetica,sans-Serif" font-size="10.00">SigHist_t</text>
</g>
<!-- Node3 -->
<g id="node5" class="node"><title>Node3</title>
<a xlink:href="struct_sig_omega_pi0_hist__t.html" target="_top" xlink:title="SigOmegaPi0Hist_t">
<polygon fill="white" stroke="black" points="-0.5,-0.5 -0.5,-21.5 102.5,-21.5 102.5,-0.5 -0.5,-0.5"/>
<text text-anchor="middle" x="51" y="-8.5" font-family="Helvetica,sans-Serif" font-size="10.00">SigOmegaPi0Hist_t</text>
</a>
</g>
<!-- Node1&#45;&gt;Node3 -->
<g id="edge4" class="edge"><title>Node1&#45;&gt;Node3</title>
<path fill="none" stroke="midnightblue" d="M86.7096,-50.8299C78.0829,-41.2078 67.7908,-29.7282 60.4771,-21.5707"/>
<polygon fill="midnightblue" stroke="midnightblue" points="84.1809,-53.2526 93.4624,-58.3619 89.3929,-48.5798 84.1809,-53.2526"/>
</g>
<!-- Node4 -->
<g id="node7" class="node"><title>Node4</title>
<a xlink:href="struct_sig_pi0_hist__t.html" target="_top" xlink:title="SigPi0Hist_t">
<polygon fill="white" stroke="black" points="119.5,-0.5 119.5,-21.5 190.5,-21.5 190.5,-0.5 119.5,-0.5"/>
<text text-anchor="middle" x="155" y="-8.5" font-family="Helvetica,sans-Serif" font-size="10.00">SigPi0Hist_t</text>
</a>
</g>
<!-- Node1&#45;&gt;Node4 -->
<g id="edge6" class="edge"><title>Node1&#45;&gt;Node4</title>
<path fill="none" stroke="midnightblue" d="M119.29,-50.8299C127.917,-41.2078 138.209,-29.7282 145.523,-21.5707"/>
<polygon fill="midnightblue" stroke="midnightblue" points="116.607,-48.5798 112.538,-58.3619 121.819,-53.2526 116.607,-48.5798"/>
</g>
<!-- Node2 -->
<g id="node2" class="node"><title>Node2</title>
<a xlink:href="struct_common_hist__t.html" target="_top" xlink:title="CommonHist_t">
<polygon fill="white" stroke="black" points="61.5,-116.5 61.5,-137.5 144.5,-137.5 144.5,-116.5 61.5,-116.5"/>
<text text-anchor="middle" x="103" y="-124.5" font-family="Helvetica,sans-Serif" font-size="10.00">CommonHist_t</text>
</a>
</g>
<!-- Node2&#45;&gt;Node1 -->
<g id="edge2" class="edge"><title>Node2&#45;&gt;Node1</title>
<path fill="none" stroke="midnightblue" d="M103,-106.191C103,-97.1684 103,-86.9941 103,-79.5707"/>
<polygon fill="midnightblue" stroke="midnightblue" points="99.5001,-106.362 103,-116.362 106.5,-106.362 99.5001,-106.362"/>
</g>
</g>
</svg>
