<?xml version="1.0" encoding="UTF-8" standalone="no"?>
<!DOCTYPE svg PUBLIC "-//W3C//DTD SVG 1.1//EN"
 "http://www.w3.org/Graphics/SVG/1.1/DTD/svg11.dtd">
<!-- Generated by graphviz version 2.26.3 (20100126.1600)
 -->
<!-- Title: ant::root_drawable_traits Pages: 1 -->
<svg width="522pt" height="123pt"
 viewBox="0.00 0.00 522.00 123.00" xmlns="http://www.w3.org/2000/svg" xmlns:xlink="http://www.w3.org/1999/xlink">
<g id="graph1" class="graph" transform="scale(1 1) rotate(0) translate(4 119)">
<title>ant::root_drawable_traits</title>
<polygon fill="white" stroke="white" points="-4,5 -4,-119 519,-119 519,5 -4,5"/>
<!-- Node1 -->
<g id="node1" class="node"><title>Node1</title>
<polygon fill="#bfbfbf" stroke="black" points="0.5,-26 0.5,-60 97.5,-60 97.5,-26 0.5,-26"/>
<text text-anchor="start" x="8.5" y="-47" font-family="Helvetica,sans-Serif" font-size="10.00">ant::root_drawable</text>
<text text-anchor="middle" x="49" y="-34" font-family="Helvetica,sans-Serif" font-size="10.00">_traits</text>
</g>
<!-- Node2 -->
<g id="node3" class="node"><title>Node2</title>
<a xlink:href="structant_1_1analysis_1_1physics_1_1_reconstruct_check_1_1_position_map.html" target="_top" xlink:title="ant::analysis::physics\l::ReconstructCheck::PositionMap">
<polygon fill="white" stroke="black" points="134,-52 134,-86 298,-86 298,-52 134,-52"/>
<text text-anchor="start" x="142" y="-73" font-family="Helvetica,sans-Serif" font-size="10.00">ant::analysis::physics</text>
<text text-anchor="middle" x="216" y="-60" font-family="Helvetica,sans-Serif" font-size="10.00">::ReconstructCheck::PositionMap</text>
</a>
</g>
<!-- Node1&#45;&gt;Node2 -->
<g id="edge2" class="edge"><title>Node1&#45;&gt;Node2</title>
<path fill="none" stroke="midnightblue" d="M107.839,-52.1606C116.281,-53.4748 125.091,-54.8466 133.882,-56.2151"/>
<polygon fill="midnightblue" stroke="midnightblue" points="108.172,-48.6703 97.7522,-50.5902 107.095,-55.5869 108.172,-48.6703"/>
</g>
<!-- Node5 -->
<g id="node9" class="node"><title>Node5</title>
<a xlink:href="structant_1_1canvas_1_1drawable__container.html" target="_top" xlink:title="ant::canvas::drawable\l_container\&lt; T \&gt;">
<polygon fill="white" stroke="black" points="159.5,-0 159.5,-34 272.5,-34 272.5,-0 159.5,-0"/>
<text text-anchor="start" x="167.5" y="-21" font-family="Helvetica,sans-Serif" font-size="10.00">ant::canvas::drawable</text>
<text text-anchor="middle" x="216" y="-8" font-family="Helvetica,sans-Serif" font-size="10.00">_container&lt; T &gt;</text>
</a>
</g>
<!-- Node1&#45;&gt;Node5 -->
<g id="edge8" class="edge"><title>Node1&#45;&gt;Node5</title>
<path fill="none" stroke="midnightblue" d="M107.92,-33.8269C124.59,-31.2315 142.695,-28.4127 159.236,-25.8376"/>
<polygon fill="midnightblue" stroke="midnightblue" points="107.095,-30.4131 97.7522,-35.4098 108.172,-37.3297 107.095,-30.4131"/>
</g>
<!-- Node3 -->
<g id="node5" class="node"><title>Node3</title>
<a xlink:href="structant_1_1analysis_1_1physics_1_1_reconstruct_check_1_1_position_map_c_b.html" target="_top" xlink:title="ant::analysis::physics\l::ReconstructCheck::PositionMapCB">
<polygon fill="white" stroke="black" points="334.5,-81 334.5,-115 513.5,-115 513.5,-81 334.5,-81"/>
<text text-anchor="start" x="342.5" y="-102" font-family="Helvetica,sans-Serif" font-size="10.00">ant::analysis::physics</text>
<text text-anchor="middle" x="424" y="-89" font-family="Helvetica,sans-Serif" font-size="10.00">::ReconstructCheck::PositionMapCB</text>
</a>
</g>
<!-- Node2&#45;&gt;Node3 -->
<g id="edge4" class="edge"><title>Node2&#45;&gt;Node3</title>
<path fill="none" stroke="midnightblue" d="M308.25,-81.8618C316.86,-83.0623 325.579,-84.2779 334.167,-85.4752"/>
<polygon fill="midnightblue" stroke="midnightblue" points="308.595,-78.3761 298.207,-80.4616 307.628,-85.309 308.595,-78.3761"/>
</g>
<!-- Node4 -->
<g id="node7" class="node"><title>Node4</title>
<a xlink:href="structant_1_1analysis_1_1physics_1_1_reconstruct_check_1_1_position_map_t_a_p_s.html" target="_top" xlink:title="ant::analysis::physics\l::ReconstructCheck::Position\lMapTAPS">
<polygon fill="white" stroke="black" points="351,-15.5 351,-62.5 497,-62.5 497,-15.5 351,-15.5"/>
<text text-anchor="start" x="359" y="-49.5" font-family="Helvetica,sans-Serif" font-size="10.00">ant::analysis::physics</text>
<text text-anchor="start" x="359" y="-36.5" font-family="Helvetica,sans-Serif" font-size="10.00">::ReconstructCheck::Position</text>
<text text-anchor="middle" x="424" y="-23.5" font-family="Helvetica,sans-Serif" font-size="10.00">MapTAPS</text>
</a>
</g>
<!-- Node2&#45;&gt;Node4 -->
<g id="edge6" class="edge"><title>Node2&#45;&gt;Node4</title>
<path fill="none" stroke="midnightblue" d="M308.469,-55.6631C322.653,-53.6173 337.127,-51.5297 350.818,-49.5551"/>
<polygon fill="midnightblue" stroke="midnightblue" points="307.605,-52.2514 298.207,-57.1432 308.604,-59.1797 307.605,-52.2514"/>
</g>
</g>
</svg>
