<?xml version="1.0" encoding="UTF-8" standalone="no"?>
<!DOCTYPE svg PUBLIC "-//W3C//DTD SVG 1.1//EN"
 "http://www.w3.org/Graphics/SVG/1.1/DTD/svg11.dtd">
<!-- Generated by graphviz version 2.26.3 (20100126.1600)
 -->
<!-- Title: SigPi0Hist_t::Fill_t Pages: 1 -->
<svg width="1644pt" height="151pt"
 viewBox="0.00 0.00 1644.00 151.00" xmlns="http://www.w3.org/2000/svg" xmlns:xlink="http://www.w3.org/1999/xlink">
<g id="graph1" class="graph" transform="scale(1 1) rotate(0) translate(4 147)">
<title>SigPi0Hist_t::Fill_t</title>
<polygon fill="white" stroke="white" points="-4,5 -4,-147 1641,-147 1641,5 -4,5"/>
<!-- Node1 -->
<g id="node1" class="node"><title>Node1</title>
<polygon fill="#bfbfbf" stroke="black" points="1538,-46.5 1538,-67.5 1636,-67.5 1636,-46.5 1538,-46.5"/>
<text text-anchor="middle" x="1587" y="-54.5" font-family="Helvetica,sans-Serif" font-size="10.00">SigPi0Hist_t::Fill_t</text>
</g>
<!-- Node2 -->
<g id="node2" class="node"><title>Node2</title>
<a xlink:href="struct_sig_hist__t_1_1_fill__t.html" target="_top" xlink:title="SigHist_t::Fill_t">
<polygon fill="white" stroke="black" points="1376,-71.5 1376,-92.5 1460,-92.5 1460,-71.5 1376,-71.5"/>
<text text-anchor="middle" x="1418" y="-79.5" font-family="Helvetica,sans-Serif" font-size="10.00">SigHist_t::Fill_t</text>
</a>
</g>
<!-- Node2&#45;&gt;Node1 -->
<g id="edge2" class="edge"><title>Node2&#45;&gt;Node1</title>
<path fill="none" stroke="midnightblue" d="M1470.18,-74.2814C1491.74,-71.0918 1516.61,-67.4131 1537.84,-64.2718"/>
<polygon fill="midnightblue" stroke="midnightblue" points="1469.59,-70.8302 1460.21,-75.7559 1470.61,-77.7548 1469.59,-70.8302"/>
</g>
<!-- Node3 -->
<g id="node4" class="node"><title>Node3</title>
<a xlink:href="struct_common_hist__t_1_1_fill__t.html" target="_top" xlink:title="CommonHist_t::Fill_t">
<polygon fill="white" stroke="black" points="1173,-115.5 1173,-136.5 1283,-136.5 1283,-115.5 1173,-115.5"/>
<text text-anchor="middle" x="1228" y="-123.5" font-family="Helvetica,sans-Serif" font-size="10.00">CommonHist_t::Fill_t</text>
</a>
</g>
<!-- Node3&#45;&gt;Node2 -->
<g id="edge4" class="edge"><title>Node3&#45;&gt;Node2</title>
<path fill="none" stroke="midnightblue" d="M1283.26,-113.203C1312.77,-106.369 1348.53,-98.0884 1375.79,-91.7755"/>
<polygon fill="midnightblue" stroke="midnightblue" points="1282.46,-109.795 1273.51,-115.461 1284.04,-116.615 1282.46,-109.795"/>
</g>
<!-- Node4 -->
<g id="node6" class="node"><title>Node4</title>
<a xlink:href="structant_1_1analysis_1_1physics_1_1_etap_omega_g_1_1_tree_common.html" target="_top" xlink:title="ant::analysis::physics\l::EtapOmegaG::TreeCommon">
<polygon fill="white" stroke="black" points="804.5,-109 804.5,-143 951.5,-143 951.5,-109 804.5,-109"/>
<text text-anchor="start" x="812.5" y="-130" font-family="Helvetica,sans-Serif" font-size="10.00">ant::analysis::physics</text>
<text text-anchor="middle" x="878" y="-117" font-family="Helvetica,sans-Serif" font-size="10.00">::EtapOmegaG::TreeCommon</text>
</a>
</g>
<!-- Node4&#45;&gt;Node3 -->
<g id="edge6" class="edge"><title>Node4&#45;&gt;Node3</title>
<path fill="none" stroke="#9a32cd" stroke-dasharray="5,2" d="M962.084,-126C1027.48,-126 1116.33,-126 1172.93,-126"/>
<polygon fill="#9a32cd" stroke="#9a32cd" points="961.798,-122.5 951.798,-126 961.798,-129.5 961.798,-122.5"/>
<text text-anchor="middle" x="1058" y="-130" font-family="Helvetica,sans-Serif" font-size="10.00"> Common</text>
</g>
<!-- Node5 -->
<g id="node8" class="node"><title>Node5</title>
<a xlink:href="structant_1_1_wrap_t_tree.html" target="_top" xlink:title="The WrapTTree struct simplifies TTree handling in physics classes. ">
<polygon fill="white" stroke="black" points="680.5,-70.5 680.5,-91.5 765.5,-91.5 765.5,-70.5 680.5,-70.5"/>
<text text-anchor="middle" x="723" y="-78.5" font-family="Helvetica,sans-Serif" font-size="10.00">ant::WrapTTree</text>
</a>
</g>
<!-- Node5&#45;&gt;Node4 -->
<g id="edge8" class="edge"><title>Node5&#45;&gt;Node4</title>
<path fill="none" stroke="midnightblue" d="M769.301,-94.4422C784.956,-98.9873 802.65,-104.124 819.146,-108.913"/>
<polygon fill="midnightblue" stroke="midnightblue" points="769.92,-90.9775 759.341,-91.5505 767.968,-97.6999 769.92,-90.9775"/>
</g>
<!-- Node10 -->
<g id="node18" class="node"><title>Node10</title>
<a xlink:href="structant_1_1analysis_1_1physics_1_1_etap_omega_g_1_1_sig__t_1_1_shared_tree__t.html" target="_top" xlink:title="ant::analysis::physics\l::EtapOmegaG::Sig_t::SharedTree_t">
<polygon fill="white" stroke="black" points="970.5,-65 970.5,-99 1145.5,-99 1145.5,-65 970.5,-65"/>
<text text-anchor="start" x="978.5" y="-86" font-family="Helvetica,sans-Serif" font-size="10.00">ant::analysis::physics</text>
<text text-anchor="middle" x="1058" y="-73" font-family="Helvetica,sans-Serif" font-size="10.00">::EtapOmegaG::Sig_t::SharedTree_t</text>
</a>
</g>
<!-- Node5&#45;&gt;Node10 -->
<g id="edge20" class="edge"><title>Node5&#45;&gt;Node10</title>
<path fill="none" stroke="midnightblue" d="M775.801,-81.1576C827.937,-81.3132 908.597,-81.554 970.353,-81.7384"/>
<polygon fill="midnightblue" stroke="midnightblue" points="775.779,-77.6576 765.768,-81.1277 775.758,-84.6576 775.779,-77.6576"/>
</g>
<!-- Node11 -->
<g id="node21" class="node"><title>Node11</title>
<a xlink:href="structant_1_1analysis_1_1physics_1_1_etap_omega_g_1_1_sig__t_1_1_fit__t_1_1_base_tree__t.html" target="_top" xlink:title="ant::analysis::physics\l::EtapOmegaG::Sig_t::Fit\l_t::BaseTree_t">
<polygon fill="white" stroke="black" points="1164,-0.5 1164,-47.5 1292,-47.5 1292,-0.5 1164,-0.5"/>
<text text-anchor="start" x="1172" y="-34.5" font-family="Helvetica,sans-Serif" font-size="10.00">ant::analysis::physics</text>
<text text-anchor="start" x="1172" y="-21.5" font-family="Helvetica,sans-Serif" font-size="10.00">::EtapOmegaG::Sig_t::Fit</text>
<text text-anchor="middle" x="1228" y="-8.5" font-family="Helvetica,sans-Serif" font-size="10.00">_t::BaseTree_t</text>
</a>
</g>
<!-- Node5&#45;&gt;Node11 -->
<g id="edge24" class="edge"><title>Node5&#45;&gt;Node11</title>
<path fill="none" stroke="midnightblue" d="M775.68,-75.0539C868.991,-64.5219 1062.96,-42.6279 1163.88,-31.2375"/>
<polygon fill="midnightblue" stroke="midnightblue" points="775.165,-71.5897 765.621,-76.1893 775.95,-78.5456 775.165,-71.5897"/>
</g>
<!-- Node6 -->
<g id="node10" class="node"><title>Node6</title>
<polygon fill="white" stroke="#bfbfbf" points="460,-64 460,-98 600,-98 600,-64 460,-64"/>
<text text-anchor="start" x="468" y="-85" font-family="Helvetica,sans-Serif" font-size="10.00">std::vector&lt; ant::WrapTTree</text>
<text text-anchor="middle" x="530" y="-72" font-family="Helvetica,sans-Serif" font-size="10.00">::ROOT_branch_t &gt;</text>
</g>
<!-- Node6&#45;&gt;Node5 -->
<g id="edge10" class="edge"><title>Node6&#45;&gt;Node5</title>
<path fill="none" stroke="#9a32cd" stroke-dasharray="5,2" d="M610.407,-81C634.406,-81 659.771,-81 680.338,-81"/>
<polygon fill="#9a32cd" stroke="#9a32cd" points="610.223,-77.5001 600.223,-81 610.223,-84.5001 610.223,-77.5001"/>
<text text-anchor="middle" x="640" y="-85" font-family="Helvetica,sans-Serif" font-size="10.00"> branches</text>
</g>
<!-- Node7 -->
<g id="node12" class="node"><title>Node7</title>
<a xlink:href="structant_1_1_wrap_t_tree_1_1_r_o_o_t__branch__t.html" target="_top" xlink:title="ant::WrapTTree::ROOT\l_branch_t">
<polygon fill="white" stroke="black" points="260.5,-64 260.5,-98 379.5,-98 379.5,-64 260.5,-64"/>
<text text-anchor="start" x="268.5" y="-85" font-family="Helvetica,sans-Serif" font-size="10.00">ant::WrapTTree::ROOT</text>
<text text-anchor="middle" x="320" y="-72" font-family="Helvetica,sans-Serif" font-size="10.00">_branch_t</text>
</a>
</g>
<!-- Node7&#45;&gt;Node6 -->
<g id="edge12" class="edge"><title>Node7&#45;&gt;Node6</title>
<path fill="none" stroke="#9a32cd" stroke-dasharray="5,2" d="M389.776,-81C412.301,-81 437.273,-81 459.827,-81"/>
<polygon fill="#9a32cd" stroke="#9a32cd" points="389.616,-77.5001 379.616,-81 389.616,-84.5001 389.616,-77.5001"/>
<text text-anchor="middle" x="420" y="-85" font-family="Helvetica,sans-Serif" font-size="10.00"> elements</text>
</g>
<!-- Node8 -->
<g id="node14" class="node"><title>Node8</title>
<a xlink:title="STL class. ">
<polygon fill="white" stroke="#bfbfbf" points="134,-70.5 134,-91.5 194,-91.5 194,-70.5 134,-70.5"/>
<text text-anchor="middle" x="164" y="-78.5" font-family="Helvetica,sans-Serif" font-size="10.00">std::string</text>
</a>
</g>
<!-- Node8&#45;&gt;Node7 -->
<g id="edge14" class="edge"><title>Node8&#45;&gt;Node7</title>
<path fill="none" stroke="#9a32cd" stroke-dasharray="5,2" d="M204.251,-81C221.314,-81 241.554,-81 260.3,-81"/>
<polygon fill="#9a32cd" stroke="#9a32cd" points="204.078,-77.5001 194.078,-81 204.078,-84.5001 204.078,-77.5001"/>
<text text-anchor="middle" x="227" y="-85" font-family="Helvetica,sans-Serif" font-size="10.00"> Name</text>
</g>
<!-- Node9 -->
<g id="node16" class="node"><title>Node9</title>
<a xlink:title="STL class. ">
<polygon fill="white" stroke="#bfbfbf" points="0.5,-64 0.5,-98 95.5,-98 95.5,-64 0.5,-64"/>
<text text-anchor="start" x="8.5" y="-85" font-family="Helvetica,sans-Serif" font-size="10.00">std::basic_string&lt;</text>
<text text-anchor="middle" x="48" y="-72" font-family="Helvetica,sans-Serif" font-size="10.00"> char &gt;</text>
</a>
</g>
<!-- Node9&#45;&gt;Node8 -->
<g id="edge16" class="edge"><title>Node9&#45;&gt;Node8</title>
<path fill="none" stroke="midnightblue" d="M105.582,-81C115.29,-81 125.014,-81 133.666,-81"/>
<polygon fill="midnightblue" stroke="midnightblue" points="105.516,-77.5001 95.5163,-81 105.516,-84.5001 105.516,-77.5001"/>
</g>
<!-- Node10&#45;&gt;Node2 -->
<g id="edge18" class="edge"><title>Node10&#45;&gt;Node2</title>
<path fill="none" stroke="#9a32cd" stroke-dasharray="5,2" d="M1155.61,-82C1227.63,-82 1322.09,-82 1375.81,-82"/>
<polygon fill="#9a32cd" stroke="#9a32cd" points="1155.61,-78.5001 1145.61,-82 1155.61,-85.5001 1155.61,-78.5001"/>
<text text-anchor="middle" x="1228" y="-86" font-family="Helvetica,sans-Serif" font-size="10.00"> Shared</text>
</g>
<!-- Node11&#45;&gt;Node2 -->
<g id="edge22" class="edge"><title>Node11&#45;&gt;Node2</title>
<path fill="none" stroke="#9a32cd" stroke-dasharray="5,2" d="M1301.88,-46.5542C1330.01,-55.141 1360.74,-64.522 1383.52,-71.4751"/>
<polygon fill="#9a32cd" stroke="#9a32cd" points="1302.65,-43.1275 1292.06,-43.5553 1300.6,-49.8225 1302.65,-43.1275"/>
<text text-anchor="middle" x="1322" y="-59" font-family="Helvetica,sans-Serif" font-size="10.00"> Tree</text>
</g>
<!-- Node12 -->
<g id="node24" class="node"><title>Node12</title>
<a xlink:href="structant_1_1analysis_1_1physics_1_1_etap_omega_g_1_1_sig__t_1_1_pi0__t_1_1_base_tree__t.html" target="_top" xlink:title="ant::analysis::physics\l::EtapOmegaG::Sig_t::Pi0\l_t::BaseTree_t">
<polygon fill="white" stroke="black" points="1352.5,-3.5 1352.5,-50.5 1483.5,-50.5 1483.5,-3.5 1352.5,-3.5"/>
<text text-anchor="start" x="1360.5" y="-37.5" font-family="Helvetica,sans-Serif" font-size="10.00">ant::analysis::physics</text>
<text text-anchor="start" x="1360.5" y="-24.5" font-family="Helvetica,sans-Serif" font-size="10.00">::EtapOmegaG::Sig_t::Pi0</text>
<text text-anchor="middle" x="1418" y="-11.5" font-family="Helvetica,sans-Serif" font-size="10.00">_t::BaseTree_t</text>
</a>
</g>
<!-- Node11&#45;&gt;Node12 -->
<g id="edge28" class="edge"><title>Node11&#45;&gt;Node12</title>
<path fill="none" stroke="midnightblue" d="M1302.21,-25.1718C1318.73,-25.4325 1336.13,-25.7073 1352.27,-25.9622"/>
<polygon fill="midnightblue" stroke="midnightblue" points="1302.11,-21.6699 1292.06,-25.0115 1302,-28.669 1302.11,-21.6699"/>
</g>
<!-- Node12&#45;&gt;Node1 -->
<g id="edge26" class="edge"><title>Node12&#45;&gt;Node1</title>
<path fill="none" stroke="#9a32cd" stroke-dasharray="5,2" d="M1494.04,-40.4982C1508.91,-43.138 1524.14,-45.8406 1537.85,-48.2743"/>
<polygon fill="#9a32cd" stroke="#9a32cd" points="1494.28,-36.9865 1483.82,-38.6847 1493.06,-43.8787 1494.28,-36.9865"/>
<text text-anchor="middle" x="1511" y="-49" font-family="Helvetica,sans-Serif" font-size="10.00"> Pi0</text>
</g>
</g>
</svg>
