<?xml version="1.0" encoding="UTF-8" standalone="no"?>
<!DOCTYPE svg PUBLIC "-//W3C//DTD SVG 1.1//EN"
 "http://www.w3.org/Graphics/SVG/1.1/DTD/svg11.dtd">
<!-- Generated by graphviz version 2.26.3 (20100126.1600)
 -->
<!-- Title: ant::analysis::slowcontrol::processor::Beampolmon Pages: 1 -->
<svg width="756pt" height="69pt"
 viewBox="0.00 0.00 756.00 69.00" xmlns="http://www.w3.org/2000/svg" xmlns:xlink="http://www.w3.org/1999/xlink">
<g id="graph1" class="graph" transform="scale(1 1) rotate(0) translate(4 65)">
<title>ant::analysis::slowcontrol::processor::Beampolmon</title>
<polygon fill="white" stroke="white" points="-4,5 -4,-65 753,-65 753,5 -4,5"/>
<!-- Node1 -->
<g id="node1" class="node"><title>Node1</title>
<polygon fill="#bfbfbf" stroke="black" points="620,-26 620,-60 748,-60 748,-26 620,-26"/>
<text text-anchor="start" x="628" y="-47" font-family="Helvetica,sans-Serif" font-size="10.00">ant::analysis::slowcontrol</text>
<text text-anchor="middle" x="684" y="-34" font-family="Helvetica,sans-Serif" font-size="10.00">::processor::Beampolmon</text>
</g>
<!-- Node2 -->
<g id="node2" class="node"><title>Node2</title>
<a xlink:href="structant_1_1analysis_1_1slowcontrol_1_1_processor.html" target="_top" xlink:title="ant::analysis::slowcontrol\l::Processor">
<polygon fill="white" stroke="black" points="0,-27 0,-61 128,-61 128,-27 0,-27"/>
<text text-anchor="start" x="8" y="-48" font-family="Helvetica,sans-Serif" font-size="10.00">ant::analysis::slowcontrol</text>
<text text-anchor="middle" x="64" y="-35" font-family="Helvetica,sans-Serif" font-size="10.00">::Processor</text>
</a>
</g>
<!-- Node2&#45;&gt;Node1 -->
<g id="edge2" class="edge"><title>Node2&#45;&gt;Node1</title>
<path fill="none" stroke="midnightblue" d="M138.224,-44.9191C140.848,-44.9472 143.446,-44.9742 146,-45 313.108,-46.6856 354.885,-47.3333 522,-48 557.555,-48.1418 566.461,-49.0825 602,-48 607.702,-47.8263 613.625,-47.5848 619.559,-47.301"/>
<polygon fill="midnightblue" stroke="midnightblue" points="138.051,-41.4171 128.013,-44.8067 137.974,-48.4167 138.051,-41.4171"/>
</g>
<!-- Node4 -->
<g id="node6" class="node"><title>Node4</title>
<a xlink:href="structant_1_1analysis_1_1slowcontrol_1_1processor_1_1_acqu_scaler_vector.html" target="_top" xlink:title="ant::analysis::slowcontrol\l::processor::AcquScalerVector">
<polygon fill="white" stroke="black" points="166,-0 166,-34 316,-34 316,-0 166,-0"/>
<text text-anchor="start" x="174" y="-21" font-family="Helvetica,sans-Serif" font-size="10.00">ant::analysis::slowcontrol</text>
<text text-anchor="middle" x="241" y="-8" font-family="Helvetica,sans-Serif" font-size="10.00">::processor::AcquScalerVector</text>
</a>
</g>
<!-- Node2&#45;&gt;Node4 -->
<g id="edge8" class="edge"><title>Node2&#45;&gt;Node4</title>
<path fill="none" stroke="midnightblue" d="M138.051,-32.7041C147.27,-31.2978 156.704,-29.8587 165.938,-28.4501"/>
<polygon fill="midnightblue" stroke="midnightblue" points="137.509,-29.2462 128.151,-34.2142 138.565,-36.1661 137.509,-29.2462"/>
</g>
<!-- Node3 -->
<g id="node4" class="node"><title>Node3</title>
<a xlink:href="structant_1_1analysis_1_1slowcontrol_1_1processor_1_1_acqu_scaler_scalar.html" target="_top" xlink:title="ant::analysis::slowcontrol\l::processor::AcquScalerScalar">
<polygon fill="white" stroke="black" points="354.5,-0 354.5,-34 503.5,-34 503.5,-0 354.5,-0"/>
<text text-anchor="start" x="362.5" y="-21" font-family="Helvetica,sans-Serif" font-size="10.00">ant::analysis::slowcontrol</text>
<text text-anchor="middle" x="429" y="-8" font-family="Helvetica,sans-Serif" font-size="10.00">::processor::AcquScalerScalar</text>
</a>
</g>
<!-- Node3&#45;&gt;Node1 -->
<g id="edge4" class="edge"><title>Node3&#45;&gt;Node1</title>
<path fill="none" stroke="#9a32cd" stroke-dasharray="5,2" d="M513.848,-25.6512C548.331,-29.1671 587.518,-33.1627 619.587,-36.4324"/>
<polygon fill="#9a32cd" stroke="#9a32cd" points="514.089,-22.1577 503.785,-24.6252 513.379,-29.1216 514.089,-22.1577"/>
<text text-anchor="middle" x="562" y="-38" font-family="Helvetica,sans-Serif" font-size="10.00"> Reference_1MHz</text>
</g>
<!-- Node4&#45;&gt;Node3 -->
<g id="edge6" class="edge"><title>Node4&#45;&gt;Node3</title>
<path fill="none" stroke="midnightblue" d="M326.22,-17C335.592,-17 345.082,-17 354.313,-17"/>
<polygon fill="midnightblue" stroke="midnightblue" points="326.113,-13.5001 316.113,-17 326.113,-20.5001 326.113,-13.5001"/>
</g>
</g>
</svg>
