<?xml version="1.0" encoding="UTF-8" standalone="no"?>
<!DOCTYPE svg PUBLIC "-//W3C//DTD SVG 1.1//EN"
 "http://www.w3.org/Graphics/SVG/1.1/DTD/svg11.dtd">
<!-- Generated by graphviz version 2.26.3 (20100126.1600)
 -->
<!-- Title: ant::analysis::slowcontrol::Processor Pages: 1 -->
<svg width="508pt" height="120pt"
 viewBox="0.00 0.00 508.00 120.00" xmlns="http://www.w3.org/2000/svg" xmlns:xlink="http://www.w3.org/1999/xlink">
<g id="graph1" class="graph" transform="scale(1 1) rotate(0) translate(4 116)">
<title>ant::analysis::slowcontrol::Processor</title>
<polygon fill="white" stroke="white" points="-4,5 -4,-116 505,-116 505,5 -4,5"/>
<!-- Node1 -->
<g id="node1" class="node"><title>Node1</title>
<polygon fill="#bfbfbf" stroke="black" points="0,-26 0,-60 128,-60 128,-26 0,-26"/>
<text text-anchor="start" x="8" y="-47" font-family="Helvetica,sans-Serif" font-size="10.00">ant::analysis::slowcontrol</text>
<text text-anchor="middle" x="64" y="-34" font-family="Helvetica,sans-Serif" font-size="10.00">::Processor</text>
</g>
<!-- Node2 -->
<g id="node3" class="node"><title>Node2</title>
<a xlink:href="structant_1_1analysis_1_1slowcontrol_1_1processor_1_1_acqu_scaler_vector.html" target="_top" xlink:title="ant::analysis::slowcontrol\l::processor::AcquScalerVector">
<polygon fill="white" stroke="black" points="164,-52 164,-86 314,-86 314,-52 164,-52"/>
<text text-anchor="start" x="172" y="-73" font-family="Helvetica,sans-Serif" font-size="10.00">ant::analysis::slowcontrol</text>
<text text-anchor="middle" x="239" y="-60" font-family="Helvetica,sans-Serif" font-size="10.00">::processor::AcquScalerVector</text>
</a>
</g>
<!-- Node1&#45;&gt;Node2 -->
<g id="edge2" class="edge"><title>Node1&#45;&gt;Node2</title>
<path fill="none" stroke="midnightblue" d="M138.085,-54.0068C146.616,-55.2743 155.321,-56.5677 163.866,-57.8372"/>
<polygon fill="midnightblue" stroke="midnightblue" points="138.576,-50.5415 128.17,-52.5338 137.547,-57.4655 138.576,-50.5415"/>
</g>
<!-- Node5 -->
<g id="node9" class="node"><title>Node5</title>
<a xlink:href="structant_1_1analysis_1_1slowcontrol_1_1processor_1_1_beampolmon.html" target="_top" xlink:title="ant::analysis::slowcontrol\l::processor::Beampolmon">
<polygon fill="white" stroke="black" points="175,-0 175,-34 303,-34 303,-0 175,-0"/>
<text text-anchor="start" x="183" y="-21" font-family="Helvetica,sans-Serif" font-size="10.00">ant::analysis::slowcontrol</text>
<text text-anchor="middle" x="239" y="-8" font-family="Helvetica,sans-Serif" font-size="10.00">::processor::Beampolmon</text>
</a>
</g>
<!-- Node1&#45;&gt;Node5 -->
<g id="edge8" class="edge"><title>Node1&#45;&gt;Node5</title>
<path fill="none" stroke="midnightblue" d="M138.281,-31.964C150.441,-30.1574 162.949,-28.2989 174.838,-26.5327"/>
<polygon fill="midnightblue" stroke="midnightblue" points="137.547,-28.5345 128.17,-33.4662 138.576,-35.4585 137.547,-28.5345"/>
</g>
<!-- Node3 -->
<g id="node5" class="node"><title>Node3</title>
<a xlink:href="structant_1_1analysis_1_1slowcontrol_1_1processor_1_1_acqu_scaler_scalar.html" target="_top" xlink:title="ant::analysis::slowcontrol\l::processor::AcquScalerScalar">
<polygon fill="white" stroke="black" points="350.5,-78 350.5,-112 499.5,-112 499.5,-78 350.5,-78"/>
<text text-anchor="start" x="358.5" y="-99" font-family="Helvetica,sans-Serif" font-size="10.00">ant::analysis::slowcontrol</text>
<text text-anchor="middle" x="425" y="-86" font-family="Helvetica,sans-Serif" font-size="10.00">::processor::AcquScalerScalar</text>
</a>
</g>
<!-- Node2&#45;&gt;Node3 -->
<g id="edge4" class="edge"><title>Node2&#45;&gt;Node3</title>
<path fill="none" stroke="midnightblue" d="M324.234,-80.9144C332.902,-82.1261 341.661,-83.3505 350.207,-84.5451"/>
<polygon fill="midnightblue" stroke="midnightblue" points="324.505,-77.4184 314.117,-79.5003 323.536,-84.351 324.505,-77.4184"/>
</g>
<!-- Node4 -->
<g id="node7" class="node"><title>Node4</title>
<a xlink:href="structant_1_1analysis_1_1slowcontrol_1_1processor_1_1_e_p_t___scalers.html" target="_top" xlink:title="ant::analysis::slowcontrol\l::processor::EPT_Scalers">
<polygon fill="white" stroke="black" points="360.5,-26 360.5,-60 489.5,-60 489.5,-26 360.5,-26"/>
<text text-anchor="start" x="368.5" y="-47" font-family="Helvetica,sans-Serif" font-size="10.00">ant::analysis::slowcontrol</text>
<text text-anchor="middle" x="425" y="-34" font-family="Helvetica,sans-Serif" font-size="10.00">::processor::EPT_Scalers</text>
</a>
</g>
<!-- Node2&#45;&gt;Node4 -->
<g id="edge6" class="edge"><title>Node2&#45;&gt;Node4</title>
<path fill="none" stroke="midnightblue" d="M324.253,-57.083C336.39,-55.3863 348.705,-53.6649 360.362,-52.0354"/>
<polygon fill="midnightblue" stroke="midnightblue" points="323.536,-53.649 314.117,-58.4997 324.505,-60.5816 323.536,-53.649"/>
</g>
</g>
</svg>
