<?xml version="1.0" encoding="UTF-8" standalone="no"?>
<!DOCTYPE svg PUBLIC "-//W3C//DTD SVG 1.1//EN"
 "http://www.w3.org/Graphics/SVG/1.1/DTD/svg11.dtd">
<!-- Generated by graphviz version 2.26.3 (20100126.1600)
 -->
<!-- Title: ant::analysis::physics::EtapOmegaG::Ref_t Pages: 1 -->
<svg width="154pt" height="508pt"
 viewBox="0.00 0.00 154.00 508.00" xmlns="http://www.w3.org/2000/svg" xmlns:xlink="http://www.w3.org/1999/xlink">
<g id="graph1" class="graph" transform="scale(1 1) rotate(0) translate(4 504)">
<title>ant::analysis::physics::EtapOmegaG::Ref_t</title>
<polygon fill="white" stroke="white" points="-4,5 -4,-504 151,-504 151,5 -4,5"/>
<!-- Node1 -->
<g id="node1" class="node"><title>Node1</title>
<polygon fill="#bfbfbf" stroke="black" points="17,-1 17,-35 129,-35 129,-1 17,-1"/>
<text text-anchor="start" x="25" y="-22" font-family="Helvetica,sans-Serif" font-size="10.00">ant::analysis::physics</text>
<text text-anchor="middle" x="73" y="-9" font-family="Helvetica,sans-Serif" font-size="10.00">::EtapOmegaG::Ref_t</text>
</g>
<!-- Node2 -->
<g id="node2" class="node"><title>Node2</title>
<a xlink:href="structant_1_1analysis_1_1physics_1_1_etap_omega_g_1_1_ref__t_1_1_tree__t.html" target="_top" xlink:title="ant::analysis::physics\l::EtapOmegaG::Ref_t::Tree_t">
<polygon fill="white" stroke="black" points="0,-87 0,-121 146,-121 146,-87 0,-87"/>
<text text-anchor="start" x="8" y="-108" font-family="Helvetica,sans-Serif" font-size="10.00">ant::analysis::physics</text>
<text text-anchor="middle" x="73" y="-95" font-family="Helvetica,sans-Serif" font-size="10.00">::EtapOmegaG::Ref_t::Tree_t</text>
</a>
</g>
<!-- Node2&#45;&gt;Node1 -->
<g id="edge2" class="edge"><title>Node2&#45;&gt;Node1</title>
<path fill="none" stroke="#9a32cd" stroke-dasharray="5,2" d="M73,-76.342C73,-62.7741 73,-46.8607 73,-35.084"/>
<polygon fill="#9a32cd" stroke="#9a32cd" points="69.5001,-76.5966 73,-86.5966 76.5001,-76.5967 69.5001,-76.5966"/>
<text text-anchor="middle" x="76.5" y="-58.5" font-family="Helvetica,sans-Serif" font-size="10.00"> t</text>
</g>
<!-- Node3 -->
<g id="node4" class="node"><title>Node3</title>
<a xlink:href="structant_1_1_wrap_t_tree.html" target="_top" xlink:title="The WrapTTree struct simplifies TTree handling in physics classes. ">
<polygon fill="white" stroke="black" points="30.5,-160.5 30.5,-181.5 115.5,-181.5 115.5,-160.5 30.5,-160.5"/>
<text text-anchor="middle" x="73" y="-168.5" font-family="Helvetica,sans-Serif" font-size="10.00">ant::WrapTTree</text>
</a>
</g>
<!-- Node3&#45;&gt;Node2 -->
<g id="edge4" class="edge"><title>Node3&#45;&gt;Node2</title>
<path fill="none" stroke="midnightblue" d="M73,-150.165C73,-140.797 73,-129.88 73,-121.014"/>
<polygon fill="midnightblue" stroke="midnightblue" points="69.5001,-150.235 73,-160.235 76.5001,-150.235 69.5001,-150.235"/>
</g>
<!-- Node4 -->
<g id="node6" class="node"><title>Node4</title>
<polygon fill="white" stroke="#bfbfbf" points="3,-233 3,-267 143,-267 143,-233 3,-233"/>
<text text-anchor="start" x="11" y="-254" font-family="Helvetica,sans-Serif" font-size="10.00">std::vector&lt; ant::WrapTTree</text>
<text text-anchor="middle" x="73" y="-241" font-family="Helvetica,sans-Serif" font-size="10.00">::ROOT_branch_t &gt;</text>
</g>
<!-- Node4&#45;&gt;Node3 -->
<g id="edge6" class="edge"><title>Node4&#45;&gt;Node3</title>
<path fill="none" stroke="#9a32cd" stroke-dasharray="5,2" d="M73,-222.623C73,-208.473 73,-192.024 73,-181.567"/>
<polygon fill="#9a32cd" stroke="#9a32cd" points="69.5001,-222.858 73,-232.858 76.5001,-222.858 69.5001,-222.858"/>
<text text-anchor="middle" x="94.5" y="-204.5" font-family="Helvetica,sans-Serif" font-size="10.00"> branches</text>
</g>
<!-- Node5 -->
<g id="node8" class="node"><title>Node5</title>
<a xlink:href="structant_1_1_wrap_t_tree_1_1_r_o_o_t__branch__t.html" target="_top" xlink:title="ant::WrapTTree::ROOT\l_branch_t">
<polygon fill="white" stroke="black" points="13.5,-319 13.5,-353 132.5,-353 132.5,-319 13.5,-319"/>
<text text-anchor="start" x="21.5" y="-340" font-family="Helvetica,sans-Serif" font-size="10.00">ant::WrapTTree::ROOT</text>
<text text-anchor="middle" x="73" y="-327" font-family="Helvetica,sans-Serif" font-size="10.00">_branch_t</text>
</a>
</g>
<!-- Node5&#45;&gt;Node4 -->
<g id="edge8" class="edge"><title>Node5&#45;&gt;Node4</title>
<path fill="none" stroke="#9a32cd" stroke-dasharray="5,2" d="M73,-308.342C73,-294.774 73,-278.861 73,-267.084"/>
<polygon fill="#9a32cd" stroke="#9a32cd" points="69.5001,-308.597 73,-318.597 76.5001,-308.597 69.5001,-308.597"/>
<text text-anchor="middle" x="94.5" y="-290.5" font-family="Helvetica,sans-Serif" font-size="10.00"> elements</text>
</g>
<!-- Node6 -->
<g id="node10" class="node"><title>Node6</title>
<a xlink:title="STL class. ">
<polygon fill="white" stroke="#bfbfbf" points="43,-404.5 43,-425.5 103,-425.5 103,-404.5 43,-404.5"/>
<text text-anchor="middle" x="73" y="-412.5" font-family="Helvetica,sans-Serif" font-size="10.00">std::string</text>
</a>
</g>
<!-- Node6&#45;&gt;Node5 -->
<g id="edge10" class="edge"><title>Node6&#45;&gt;Node5</title>
<path fill="none" stroke="#9a32cd" stroke-dasharray="5,2" d="M73,-394.162C73,-381.363 73,-365.171 73,-353.124"/>
<polygon fill="#9a32cd" stroke="#9a32cd" points="69.5001,-394.346 73,-404.346 76.5001,-394.346 69.5001,-394.346"/>
<text text-anchor="middle" x="88" y="-376.5" font-family="Helvetica,sans-Serif" font-size="10.00"> Name</text>
</g>
<!-- Node7 -->
<g id="node12" class="node"><title>Node7</title>
<a xlink:title="STL class. ">
<polygon fill="white" stroke="#bfbfbf" points="25.5,-465 25.5,-499 120.5,-499 120.5,-465 25.5,-465"/>
<text text-anchor="start" x="33.5" y="-486" font-family="Helvetica,sans-Serif" font-size="10.00">std::basic_string&lt;</text>
<text text-anchor="middle" x="73" y="-473" font-family="Helvetica,sans-Serif" font-size="10.00"> char &gt;</text>
</a>
</g>
<!-- Node7&#45;&gt;Node6 -->
<g id="edge12" class="edge"><title>Node7&#45;&gt;Node6</title>
<path fill="none" stroke="midnightblue" d="M73,-454.534C73,-444.306 73,-433.301 73,-425.506"/>
<polygon fill="midnightblue" stroke="midnightblue" points="69.5001,-454.746 73,-464.746 76.5001,-454.746 69.5001,-454.746"/>
</g>
</g>
</svg>
