<?xml version="1.0" encoding="UTF-8" standalone="no"?>
<!DOCTYPE svg PUBLIC "-//W3C//DTD SVG 1.1//EN"
 "http://www.w3.org/Graphics/SVG/1.1/DTD/svg11.dtd">
<!-- Generated by graphviz version 2.26.3 (20100126.1600)
 -->
<!-- Title: ant::analysis::utils::UncertaintyModels::Constant Pages: 1 -->
<svg width="136pt" height="212pt"
 viewBox="0.00 0.00 136.00 212.00" xmlns="http://www.w3.org/2000/svg" xmlns:xlink="http://www.w3.org/1999/xlink">
<g id="graph1" class="graph" transform="scale(1 1) rotate(0) translate(4 208)">
<title>ant::analysis::utils::UncertaintyModels::Constant</title>
<polygon fill="white" stroke="white" points="-4,5 -4,-208 133,-208 133,5 -4,5"/>
<!-- Node1 -->
<g id="node1" class="node"><title>Node1</title>
<polygon fill="#bfbfbf" stroke="black" points="9,-84.5 9,-131.5 119,-131.5 119,-84.5 9,-84.5"/>
<text text-anchor="start" x="17" y="-118.5" font-family="Helvetica,sans-Serif" font-size="10.00">ant::analysis::utils</text>
<text text-anchor="start" x="17" y="-105.5" font-family="Helvetica,sans-Serif" font-size="10.00">::UncertaintyModels::</text>
<text text-anchor="middle" x="64" y="-92.5" font-family="Helvetica,sans-Serif" font-size="10.00">Constant</text>
</g>
<!-- Node3 -->
<g id="node5" class="node"><title>Node3</title>
<a xlink:href="structant_1_1analysis_1_1utils_1_1_uncertainty_models_1_1_constant_relative_e.html" target="_top" xlink:title="Simple kin fitter uncertainty model. has a fixed value for {cb,taps}{photon,proton}{theta,phi}, Energries are relative values and get multipied with the particle energy on GetSigmas() ">
<polygon fill="white" stroke="black" points="9,-0.5 9,-47.5 119,-47.5 119,-0.5 9,-0.5"/>
<text text-anchor="start" x="17" y="-34.5" font-family="Helvetica,sans-Serif" font-size="10.00">ant::analysis::utils</text>
<text text-anchor="start" x="17" y="-21.5" font-family="Helvetica,sans-Serif" font-size="10.00">::UncertaintyModels::</text>
<text text-anchor="middle" x="64" y="-8.5" font-family="Helvetica,sans-Serif" font-size="10.00">ConstantRelativeE</text>
</a>
</g>
<!-- Node1&#45;&gt;Node3 -->
<g id="edge4" class="edge"><title>Node1&#45;&gt;Node3</title>
<path fill="none" stroke="midnightblue" d="M64,-74.0664C64,-65.1933 64,-55.821 64,-47.6152"/>
<polygon fill="midnightblue" stroke="midnightblue" points="60.5001,-74.1536 64,-84.1537 67.5001,-74.1537 60.5001,-74.1536"/>
</g>
<!-- Node2 -->
<g id="node2" class="node"><title>Node2</title>
<a xlink:href="classant_1_1analysis_1_1utils_1_1_fitter_1_1_uncertainty_model.html" target="_top" xlink:title="Virtual base class for different Uncertainty Models for kion fitter. Derive and implement the GetSigm...">
<polygon fill="white" stroke="black" points="0,-169 0,-203 128,-203 128,-169 0,-169"/>
<text text-anchor="start" x="8" y="-190" font-family="Helvetica,sans-Serif" font-size="10.00">ant::analysis::utils</text>
<text text-anchor="middle" x="64" y="-177" font-family="Helvetica,sans-Serif" font-size="10.00">::Fitter::UncertaintyModel</text>
</a>
</g>
<!-- Node2&#45;&gt;Node1 -->
<g id="edge2" class="edge"><title>Node2&#45;&gt;Node1</title>
<path fill="none" stroke="midnightblue" d="M64,-158.579C64,-149.834 64,-140.234 64,-131.77"/>
<polygon fill="midnightblue" stroke="midnightblue" points="60.5001,-158.689 64,-168.689 67.5001,-158.689 60.5001,-158.689"/>
</g>
</g>
</svg>
