<?xml version="1.0" encoding="UTF-8" standalone="no"?>
<!DOCTYPE svg PUBLIC "-//W3C//DTD SVG 1.1//EN"
 "http://www.w3.org/Graphics/SVG/1.1/DTD/svg11.dtd">
<!-- Generated by graphviz version 2.26.3 (20100126.1600)
 -->
<!-- Title: ant::analysis::physics::EtapOmegaG::Particles_t Pages: 1 -->
<svg width="251pt" height="262pt"
 viewBox="0.00 0.00 251.00 262.00" xmlns="http://www.w3.org/2000/svg" xmlns:xlink="http://www.w3.org/1999/xlink">
<g id="graph1" class="graph" transform="scale(1 1) rotate(0) translate(4 258)">
<title>ant::analysis::physics::EtapOmegaG::Particles_t</title>
<polygon fill="white" stroke="white" points="-4,5 -4,-258 248,-258 248,5 -4,5"/>
<!-- Node1 -->
<g id="node1" class="node"><title>Node1</title>
<polygon fill="#bfbfbf" stroke="black" points="70,-1 70,-35 204,-35 204,-1 70,-1"/>
<text text-anchor="start" x="78" y="-22" font-family="Helvetica,sans-Serif" font-size="10.00">ant::analysis::physics</text>
<text text-anchor="middle" x="137" y="-9" font-family="Helvetica,sans-Serif" font-size="10.00">::EtapOmegaG::Particles_t</text>
</g>
<!-- Node2 -->
<g id="node2" class="node"><title>Node2</title>
<polygon fill="white" stroke="#bfbfbf" points="-0.5,-86.5 -0.5,-107.5 132.5,-107.5 132.5,-86.5 -0.5,-86.5"/>
<text text-anchor="middle" x="66" y="-94.5" font-family="Helvetica,sans-Serif" font-size="10.00">std::vector&lt; TParticlePtr &gt;</text>
</g>
<!-- Node2&#45;&gt;Node1 -->
<g id="edge2" class="edge"><title>Node2&#45;&gt;Node1</title>
<path fill="none" stroke="#9a32cd" stroke-dasharray="5,2" d="M82.3363,-78.823C94.1538,-65.674 110.017,-48.0232 121.61,-35.1236"/>
<polygon fill="#9a32cd" stroke="#9a32cd" points="79.6567,-76.5685 75.5754,-86.3457 84.863,-81.2476 79.6567,-76.5685"/>
<text text-anchor="middle" x="123" y="-58.5" font-family="Helvetica,sans-Serif" font-size="10.00"> Photons</text>
</g>
<!-- Node3 -->
<g id="node4" class="node"><title>Node3</title>
<a xlink:href="structant_1_1std__ext_1_1cc__shared__ptr.html" target="_top" xlink:title="ant::std_ext::cc_shared\l_ptr\&lt; T \&gt;">
<polygon fill="white" stroke="black" points="6.5,-159 6.5,-193 125.5,-193 125.5,-159 6.5,-159"/>
<text text-anchor="start" x="14.5" y="-180" font-family="Helvetica,sans-Serif" font-size="10.00">ant::std_ext::cc_shared</text>
<text text-anchor="middle" x="66" y="-167" font-family="Helvetica,sans-Serif" font-size="10.00">_ptr&lt; T &gt;</text>
</a>
</g>
<!-- Node3&#45;&gt;Node2 -->
<g id="edge4" class="edge"><title>Node3&#45;&gt;Node2</title>
<path fill="none" stroke="#9a32cd" stroke-dasharray="5,2" d="M66,-148.623C66,-134.473 66,-118.024 66,-107.567"/>
<polygon fill="#9a32cd" stroke="#9a32cd" points="62.5001,-148.858 66,-158.858 69.5001,-148.858 62.5001,-148.858"/>
<text text-anchor="middle" x="87.5" y="-130.5" font-family="Helvetica,sans-Serif" font-size="10.00"> elements</text>
</g>
<!-- Node4 -->
<g id="node6" class="node"><title>Node4</title>
<a xlink:href="structant_1_1_lorentz_vec.html" target="_top" xlink:title="A Lorentz vector (x,y,z,E), diag(&#45;1,&#45;1,&#45;1, 1) ">
<polygon fill="white" stroke="black" points="150,-86.5 150,-107.5 236,-107.5 236,-86.5 150,-86.5"/>
<text text-anchor="middle" x="193" y="-94.5" font-family="Helvetica,sans-Serif" font-size="10.00">ant::LorentzVec</text>
</a>
</g>
<!-- Node4&#45;&gt;Node1 -->
<g id="edge6" class="edge"><title>Node4&#45;&gt;Node1</title>
<path fill="none" stroke="#9a32cd" stroke-dasharray="5,2" d="M179.584,-78.074C170.323,-65.0096 158.11,-47.7798 149.138,-35.1236"/>
<polygon fill="#9a32cd" stroke="#9a32cd" points="176.809,-80.2116 185.448,-86.3457 182.52,-76.1634 176.809,-80.2116"/>
<text text-anchor="middle" x="198.5" y="-58.5" font-family="Helvetica,sans-Serif" font-size="10.00"> PhotonSum</text>
</g>
<!-- Node5 -->
<g id="node8" class="node"><title>Node5</title>
<a xlink:href="structant_1_1vec3.html" target="_top" xlink:title="ant::vec3">
<polygon fill="white" stroke="black" points="164.5,-165.5 164.5,-186.5 221.5,-186.5 221.5,-165.5 164.5,-165.5"/>
<text text-anchor="middle" x="193" y="-173.5" font-family="Helvetica,sans-Serif" font-size="10.00">ant::vec3</text>
</a>
</g>
<!-- Node5&#45;&gt;Node4 -->
<g id="edge8" class="edge"><title>Node5&#45;&gt;Node4</title>
<path fill="none" stroke="#9a32cd" stroke-dasharray="5,2" d="M193,-155.284C193,-140.031 193,-119.907 193,-107.738"/>
<polygon fill="#9a32cd" stroke="#9a32cd" points="189.5,-155.346 193,-165.346 196.5,-155.346 189.5,-155.346"/>
<text text-anchor="middle" x="197.5" y="-130.5" font-family="Helvetica,sans-Serif" font-size="10.00"> p</text>
</g>
<!-- Node6 -->
<g id="node10" class="node"><title>Node6</title>
<a xlink:href="classant_1_1printable__traits.html" target="_top" xlink:title="ant::printable_traits">
<polygon fill="white" stroke="black" points="143,-232.5 143,-253.5 243,-253.5 243,-232.5 143,-232.5"/>
<text text-anchor="middle" x="193" y="-240.5" font-family="Helvetica,sans-Serif" font-size="10.00">ant::printable_traits</text>
</a>
</g>
<!-- Node6&#45;&gt;Node5 -->
<g id="edge10" class="edge"><title>Node6&#45;&gt;Node5</title>
<path fill="none" stroke="midnightblue" d="M193,-221.904C193,-210.127 193,-195.967 193,-186.517"/>
<polygon fill="midnightblue" stroke="midnightblue" points="189.5,-222.235 193,-232.235 196.5,-222.235 189.5,-222.235"/>
</g>
</g>
</svg>
