<?xml version="1.0" encoding="UTF-8" standalone="no"?>
<!DOCTYPE svg PUBLIC "-//W3C//DTD SVG 1.1//EN"
 "http://www.w3.org/Graphics/SVG/1.1/DTD/svg11.dtd">
<!-- Generated by graphviz version 2.26.3 (20100126.1600)
 -->
<!-- Title: ant::analysis::utils::UncertaintyModels::MCExtracted::Exception Pages: 1 -->
<svg width="132pt" height="172pt"
 viewBox="0.00 0.00 132.00 172.00" xmlns="http://www.w3.org/2000/svg" xmlns:xlink="http://www.w3.org/1999/xlink">
<g id="graph1" class="graph" transform="scale(1 1) rotate(0) translate(4 168)">
<title>ant::analysis::utils::UncertaintyModels::MCExtracted::Exception</title>
<polygon fill="white" stroke="white" points="-4,5 -4,-168 129,-168 129,5 -4,5"/>
<!-- Node1 -->
<g id="node1" class="node"><title>Node1</title>
<polygon fill="#bfbfbf" stroke="black" points="0,-0.5 0,-47.5 124,-47.5 124,-0.5 0,-0.5"/>
<text text-anchor="start" x="8" y="-34.5" font-family="Helvetica,sans-Serif" font-size="10.00">ant::analysis::utils</text>
<text text-anchor="start" x="8" y="-21.5" font-family="Helvetica,sans-Serif" font-size="10.00">::UncertaintyModels::</text>
<text text-anchor="middle" x="62" y="-8.5" font-family="Helvetica,sans-Serif" font-size="10.00">MCExtracted::Exception</text>
</g>
<!-- Node2 -->
<g id="node2" class="node"><title>Node2</title>
<a xlink:title="STL class. ">
<polygon fill="white" stroke="#bfbfbf" points="15.5,-84.5 15.5,-105.5 108.5,-105.5 108.5,-84.5 15.5,-84.5"/>
<text text-anchor="middle" x="62" y="-92.5" font-family="Helvetica,sans-Serif" font-size="10.00">std::runtime_error</text>
</a>
</g>
<!-- Node2&#45;&gt;Node1 -->
<g id="edge2" class="edge"><title>Node2&#45;&gt;Node1</title>
<path fill="none" stroke="midnightblue" d="M62,-74.1915C62,-65.8352 62,-56.1603 62,-47.548"/>
<polygon fill="midnightblue" stroke="midnightblue" points="58.5001,-74.2166 62,-84.2166 65.5001,-74.2167 58.5001,-74.2166"/>
</g>
<!-- Node3 -->
<g id="node4" class="node"><title>Node3</title>
<a xlink:title="STL class. ">
<polygon fill="white" stroke="#bfbfbf" points="23,-142.5 23,-163.5 101,-163.5 101,-142.5 23,-142.5"/>
<text text-anchor="middle" x="62" y="-150.5" font-family="Helvetica,sans-Serif" font-size="10.00">std::exception</text>
</a>
</g>
<!-- Node3&#45;&gt;Node2 -->
<g id="edge4" class="edge"><title>Node3&#45;&gt;Node2</title>
<path fill="none" stroke="midnightblue" d="M62,-132.191C62,-123.168 62,-112.994 62,-105.571"/>
<polygon fill="midnightblue" stroke="midnightblue" points="58.5001,-132.362 62,-142.362 65.5001,-132.362 58.5001,-132.362"/>
</g>
</g>
</svg>
