<?xml version="1.0" encoding="UTF-8" standalone="no"?>
<!DOCTYPE svg PUBLIC "-//W3C//DTD SVG 1.1//EN"
 "http://www.w3.org/Graphics/SVG/1.1/DTD/svg11.dtd">
<!-- Generated by graphviz version 2.26.3 (20100126.1600)
 -->
<!-- Title: ant::analysis::physics::EtapOmegaG Pages: 1 -->
<svg width="2424pt" height="562pt"
 viewBox="0.00 0.00 2424.00 562.00" xmlns="http://www.w3.org/2000/svg" xmlns:xlink="http://www.w3.org/1999/xlink">
<g id="graph1" class="graph" transform="scale(1 1) rotate(0) translate(4 558)">
<title>ant::analysis::physics::EtapOmegaG</title>
<polygon fill="white" stroke="white" points="-4,5 -4,-558 2421,-558 2421,5 -4,5"/>
<!-- Node1 -->
<g id="node1" class="node"><title>Node1</title>
<polygon fill="#bfbfbf" stroke="black" points="2304,-317 2304,-351 2416,-351 2416,-317 2304,-317"/>
<text text-anchor="start" x="2312" y="-338" font-family="Helvetica,sans-Serif" font-size="10.00">ant::analysis::physics</text>
<text text-anchor="middle" x="2360" y="-325" font-family="Helvetica,sans-Serif" font-size="10.00">::EtapOmegaG</text>
</g>
<!-- Node2 -->
<g id="node2" class="node"><title>Node2</title>
<a xlink:href="classant_1_1analysis_1_1_physics.html" target="_top" xlink:title="ant::analysis::Physics">
<polygon fill="white" stroke="black" points="2050.5,-522.5 2050.5,-543.5 2163.5,-543.5 2163.5,-522.5 2050.5,-522.5"/>
<text text-anchor="middle" x="2107" y="-530.5" font-family="Helvetica,sans-Serif" font-size="10.00">ant::analysis::Physics</text>
</a>
</g>
<!-- Node2&#45;&gt;Node1 -->
<g id="edge2" class="edge"><title>Node2&#45;&gt;Node1</title>
<path fill="none" stroke="midnightblue" d="M2173.85,-536.551C2210.42,-535.128 2254.54,-527.523 2286,-503 2335.51,-464.407 2352.59,-385.845 2357.87,-351.139"/>
<polygon fill="midnightblue" stroke="midnightblue" points="2173.67,-533.054 2163.76,-536.797 2173.84,-540.052 2173.67,-533.054"/>
</g>
<!-- Node3 -->
<g id="node4" class="node"><title>Node3</title>
<a xlink:href="classant_1_1analysis_1_1_histogram_factory.html" target="_top" xlink:title="ant::analysis::Histogram\lFactory">
<polygon fill="white" stroke="black" points="1801.5,-520 1801.5,-554 1924.5,-554 1924.5,-520 1801.5,-520"/>
<text text-anchor="start" x="1809.5" y="-541" font-family="Helvetica,sans-Serif" font-size="10.00">ant::analysis::Histogram</text>
<text text-anchor="middle" x="1863" y="-528" font-family="Helvetica,sans-Serif" font-size="10.00">Factory</text>
</a>
</g>
<!-- Node3&#45;&gt;Node2 -->
<g id="edge4" class="edge"><title>Node3&#45;&gt;Node2</title>
<path fill="none" stroke="#9a32cd" stroke-dasharray="5,2" d="M1934.77,-535.823C1971.68,-535.218 2016.02,-534.491 2050.47,-533.927"/>
<polygon fill="#9a32cd" stroke="#9a32cd" points="1934.51,-532.327 1924.57,-535.991 1934.63,-539.326 1934.51,-532.327"/>
<text text-anchor="middle" x="1991" y="-539" font-family="Helvetica,sans-Serif" font-size="10.00"> HistFac</text>
</g>
<!-- Node4 -->
<g id="node6" class="node"><title>Node4</title>
<a xlink:href="structant_1_1analysis_1_1physics_1_1_etap_omega_g_1_1_sig__t.html" target="_top" xlink:title="ant::analysis::physics\l::EtapOmegaG::Sig_t">
<polygon fill="white" stroke="black" points="2051,-317 2051,-351 2163,-351 2163,-317 2051,-317"/>
<text text-anchor="start" x="2059" y="-338" font-family="Helvetica,sans-Serif" font-size="10.00">ant::analysis::physics</text>
<text text-anchor="middle" x="2107" y="-325" font-family="Helvetica,sans-Serif" font-size="10.00">::EtapOmegaG::Sig_t</text>
</a>
</g>
<!-- Node4&#45;&gt;Node1 -->
<g id="edge6" class="edge"><title>Node4&#45;&gt;Node1</title>
<path fill="none" stroke="#9a32cd" stroke-dasharray="5,2" d="M2173.2,-334C2213.71,-334 2264.99,-334 2303.57,-334"/>
<polygon fill="#9a32cd" stroke="#9a32cd" points="2173.15,-330.5 2163.15,-334 2173.15,-337.5 2173.15,-330.5"/>
<text text-anchor="middle" x="2242" y="-338" font-family="Helvetica,sans-Serif" font-size="10.00"> Sig</text>
</g>
<!-- Node5 -->
<g id="node8" class="node"><title>Node5</title>
<a xlink:href="structant_1_1analysis_1_1physics_1_1_etap_omega_g_1_1_sig__t_1_1_pi0__t.html" target="_top" xlink:title="ant::analysis::physics\l::EtapOmegaG::Sig_t::Pi0_t">
<polygon fill="white" stroke="black" points="1793.5,-343 1793.5,-377 1932.5,-377 1932.5,-343 1793.5,-343"/>
<text text-anchor="start" x="1801.5" y="-364" font-family="Helvetica,sans-Serif" font-size="10.00">ant::analysis::physics</text>
<text text-anchor="middle" x="1863" y="-351" font-family="Helvetica,sans-Serif" font-size="10.00">::EtapOmegaG::Sig_t::Pi0_t</text>
</a>
</g>
<!-- Node5&#45;&gt;Node4 -->
<g id="edge8" class="edge"><title>Node5&#45;&gt;Node4</title>
<path fill="none" stroke="#9a32cd" stroke-dasharray="5,2" d="M1942.88,-351.489C1978.17,-347.727 2018.83,-343.395 2050.85,-339.983"/>
<polygon fill="#9a32cd" stroke="#9a32cd" points="1942.17,-348.044 1932.59,-352.584 1942.91,-355.005 1942.17,-348.044"/>
<text text-anchor="middle" x="1991" y="-352" font-family="Helvetica,sans-Serif" font-size="10.00"> Pi0</text>
</g>
<!-- Node6 -->
<g id="node10" class="node"><title>Node6</title>
<a xlink:href="structant_1_1analysis_1_1physics_1_1_etap_omega_g_1_1_sig__t_1_1_fit__t.html" target="_top" xlink:title="ant::analysis::physics\l::EtapOmegaG::Sig_t::Fit_t">
<polygon fill="white" stroke="black" points="1481,-257 1481,-291 1617,-291 1617,-257 1481,-257"/>
<text text-anchor="start" x="1489" y="-278" font-family="Helvetica,sans-Serif" font-size="10.00">ant::analysis::physics</text>
<text text-anchor="middle" x="1549" y="-265" font-family="Helvetica,sans-Serif" font-size="10.00">::EtapOmegaG::Sig_t::Fit_t</text>
</a>
</g>
<!-- Node6&#45;&gt;Node5 -->
<g id="edge10" class="edge"><title>Node6&#45;&gt;Node5</title>
<path fill="none" stroke="midnightblue" d="M1625.23,-296.344C1626.88,-297.502 1628.47,-298.72 1630,-300 1643.11,-310.979 1633.91,-324.316 1648,-334 1690.14,-362.962 1748.19,-368.49 1793.34,-367.308"/>
<polygon fill="midnightblue" stroke="midnightblue" points="1626.96,-293.3 1616.61,-291.038 1623.3,-299.261 1626.96,-293.3"/>
</g>
<!-- Node35 -->
<g id="node71" class="node"><title>Node35</title>
<a xlink:href="structant_1_1analysis_1_1physics_1_1_etap_omega_g_1_1_sig__t_1_1_omega_pi0__t.html" target="_top" xlink:title="ant::analysis::physics\l::EtapOmegaG::Sig_t::OmegaPi0_t">
<polygon fill="white" stroke="black" points="1778,-291 1778,-325 1948,-325 1948,-291 1778,-291"/>
<text text-anchor="start" x="1786" y="-312" font-family="Helvetica,sans-Serif" font-size="10.00">ant::analysis::physics</text>
<text text-anchor="middle" x="1863" y="-299" font-family="Helvetica,sans-Serif" font-size="10.00">::EtapOmegaG::Sig_t::OmegaPi0_t</text>
</a>
</g>
<!-- Node6&#45;&gt;Node35 -->
<g id="edge76" class="edge"><title>Node6&#45;&gt;Node35</title>
<path fill="none" stroke="midnightblue" d="M1627.31,-282.479C1673.11,-287.439 1730.97,-293.704 1777.9,-298.785"/>
<polygon fill="midnightblue" stroke="midnightblue" points="1627.45,-278.974 1617.13,-281.377 1626.7,-285.934 1627.45,-278.974"/>
</g>
<!-- Node7 -->
<g id="node12" class="node"><title>Node7</title>
<a xlink:href="classant_1_1_tree.html" target="_top" xlink:title="ant::Tree\&lt; node_t \&gt;">
<polygon fill="white" stroke="black" points="1159.5,-339.5 1159.5,-360.5 1262.5,-360.5 1262.5,-339.5 1159.5,-339.5"/>
<text text-anchor="middle" x="1211" y="-347.5" font-family="Helvetica,sans-Serif" font-size="10.00">ant::Tree&lt; node_t &gt;</text>
</a>
</g>
<!-- Node7&#45;&gt;Node6 -->
<g id="edge12" class="edge"><title>Node7&#45;&gt;Node6</title>
<path fill="none" stroke="#9a32cd" stroke-dasharray="5,2" d="M1253.21,-335.543C1263.72,-331.027 1274.65,-325.494 1284,-319 1293.55,-312.365 1291.57,-305.15 1302,-300 1317.73,-292.233 1413.29,-283.833 1480.82,-278.744"/>
<polygon fill="#9a32cd" stroke="#9a32cd" points="1251.68,-332.388 1243.74,-339.402 1254.32,-338.871 1251.68,-332.388"/>
<text text-anchor="middle" x="1376" y="-356" font-family="Helvetica,sans-Serif" font-size="10.00"> fitted_Omega</text>
<text text-anchor="middle" x="1376" y="-343" font-family="Helvetica,sans-Serif" font-size="10.00">fitted_Pi0</text>
<text text-anchor="middle" x="1376" y="-330" font-family="Helvetica,sans-Serif" font-size="10.00">fitted_g_Omega</text>
<text text-anchor="middle" x="1376" y="-317" font-family="Helvetica,sans-Serif" font-size="10.00">fitted_g2_Pi0</text>
<text text-anchor="middle" x="1376" y="-304" font-family="Helvetica,sans-Serif" font-size="10.00">fitted_g1_Pi0</text>
</g>
<!-- Node8 -->
<g id="node14" class="node"><title>Node8</title>
<polygon fill="white" stroke="#bfbfbf" points="287,-401.5 287,-422.5 383,-422.5 383,-401.5 287,-401.5"/>
<text text-anchor="middle" x="335" y="-409.5" font-family="Helvetica,sans-Serif" font-size="10.00">std::list&lt; node_t &gt;</text>
</g>
<!-- Node8&#45;&gt;Node7 -->
<g id="edge14" class="edge"><title>Node8&#45;&gt;Node7</title>
<path fill="none" stroke="#9a32cd" stroke-dasharray="5,2" d="M393.584,-413.452C404.998,-413.68 416.873,-413.88 428,-414 450.221,-414.239 455.779,-414.225 478,-414 719.815,-411.555 780.223,-407.912 1022,-403 1065.56,-402.115 1082.47,-423.12 1120,-401 1133.73,-392.911 1125.38,-379.719 1138,-370 1144.25,-365.19 1151.58,-361.537 1159.14,-358.761"/>
<polygon fill="#9a32cd" stroke="#9a32cd" points="393.337,-409.946 383.266,-413.235 393.19,-416.944 393.337,-409.946"/>
<text text-anchor="middle" x="757" y="-415" font-family="Helvetica,sans-Serif" font-size="10.00"> daughters</text>
</g>
<!-- Node10 -->
<g id="node18" class="node"><title>Node10</title>
<a xlink:href="classant_1_1_tree.html" target="_top" xlink:title="ant::Tree\&lt; T \&gt;">
<polygon fill="white" stroke="black" points="528,-369.5 528,-390.5 608,-390.5 608,-369.5 528,-369.5"/>
<text text-anchor="middle" x="568" y="-377.5" font-family="Helvetica,sans-Serif" font-size="10.00">ant::Tree&lt; T &gt;</text>
</a>
</g>
<!-- Node8&#45;&gt;Node10 -->
<g id="edge20" class="edge"><title>Node8&#45;&gt;Node10</title>
<path fill="none" stroke="#9a32cd" stroke-dasharray="5,2" d="M393.367,-403.984C435.346,-398.219 490.866,-390.594 527.923,-385.504"/>
<polygon fill="#9a32cd" stroke="#9a32cd" points="392.709,-400.541 383.278,-405.37 393.661,-407.476 392.709,-400.541"/>
<text text-anchor="middle" x="453" y="-402" font-family="Helvetica,sans-Serif" font-size="10.00"> daughters</text>
</g>
<!-- Node9 -->
<g id="node16" class="node"><title>Node9</title>
<polygon fill="white" stroke="#bfbfbf" points="891.5,-372.5 891.5,-393.5 1004.5,-393.5 1004.5,-372.5 891.5,-372.5"/>
<text text-anchor="middle" x="948" y="-380.5" font-family="Helvetica,sans-Serif" font-size="10.00">std::weak_ptr&lt; Tree &gt;</text>
</g>
<!-- Node9&#45;&gt;Node7 -->
<g id="edge16" class="edge"><title>Node9&#45;&gt;Node7</title>
<path fill="none" stroke="#9a32cd" stroke-dasharray="5,2" d="M1014.68,-374.633C1059.57,-369.001 1117.88,-361.684 1159.27,-356.491"/>
<polygon fill="#9a32cd" stroke="#9a32cd" points="1014.23,-371.162 1004.74,-375.88 1015.1,-378.108 1014.23,-371.162"/>
<text text-anchor="middle" x="1080" y="-388" font-family="Helvetica,sans-Serif" font-size="10.00"> parent</text>
<text text-anchor="middle" x="1080" y="-375" font-family="Helvetica,sans-Serif" font-size="10.00">self</text>
</g>
<!-- Node9&#45;&gt;Node10 -->
<g id="edge22" class="edge"><title>Node9&#45;&gt;Node10</title>
<path fill="none" stroke="#9a32cd" stroke-dasharray="5,2" d="M889.363,-369.29C884.076,-367.417 878.881,-365.326 874,-363 865.092,-358.755 865.39,-353.036 856,-350 772.269,-322.925 744.864,-335.904 658,-350 635.239,-353.694 610.457,-362.319 592.671,-369.378"/>
<polygon fill="#9a32cd" stroke="#9a32cd" points="888.337,-372.637 898.93,-372.428 890.519,-365.986 888.337,-372.637"/>
<text text-anchor="middle" x="757" y="-367" font-family="Helvetica,sans-Serif" font-size="10.00"> parent</text>
<text text-anchor="middle" x="757" y="-354" font-family="Helvetica,sans-Serif" font-size="10.00">self</text>
</g>
<!-- Node10&#45;&gt;Node9 -->
<g id="edge18" class="edge"><title>Node10&#45;&gt;Node9</title>
<path fill="none" stroke="#9a32cd" stroke-dasharray="5,2" d="M618.736,-380.401C689.484,-380.959 817.376,-381.969 891.222,-382.552"/>
<polygon fill="#9a32cd" stroke="#9a32cd" points="618.334,-376.897 608.307,-380.318 618.279,-383.897 618.334,-376.897"/>
<text text-anchor="middle" x="757" y="-386" font-family="Helvetica,sans-Serif" font-size="10.00"> ptr</text>
</g>
<!-- Node11 -->
<g id="node22" class="node"><title>Node11</title>
<polygon fill="white" stroke="#bfbfbf" points="320.5,-353.5 320.5,-374.5 349.5,-374.5 349.5,-353.5 320.5,-353.5"/>
<text text-anchor="middle" x="335" y="-361.5" font-family="Helvetica,sans-Serif" font-size="10.00">T</text>
</g>
<!-- Node11&#45;&gt;Node10 -->
<g id="edge24" class="edge"><title>Node11&#45;&gt;Node10</title>
<path fill="none" stroke="#9a32cd" stroke-dasharray="5,2" d="M359.932,-362.984C388.51,-362.095 436.729,-361.439 478,-365 494.413,-366.416 512.344,-369.157 527.851,-371.913"/>
<polygon fill="#9a32cd" stroke="#9a32cd" points="359.524,-359.496 349.651,-363.341 359.767,-366.492 359.524,-359.496"/>
<text text-anchor="middle" x="453" y="-369" font-family="Helvetica,sans-Serif" font-size="10.00"> data</text>
</g>
<!-- Node12 -->
<g id="node24" class="node"><title>Node12</title>
<a xlink:href="structant_1_1analysis_1_1utils_1_1_cluster_tools.html" target="_top" xlink:title="ant::analysis::utils\l::ClusterTools">
<polygon fill="white" stroke="black" points="1163,-276 1163,-310 1259,-310 1259,-276 1163,-276"/>
<text text-anchor="start" x="1171" y="-297" font-family="Helvetica,sans-Serif" font-size="10.00">ant::analysis::utils</text>
<text text-anchor="middle" x="1211" y="-284" font-family="Helvetica,sans-Serif" font-size="10.00">::ClusterTools</text>
</a>
</g>
<!-- Node12&#45;&gt;Node6 -->
<g id="edge26" class="edge"><title>Node12&#45;&gt;Node6</title>
<path fill="none" stroke="#9a32cd" stroke-dasharray="5,2" d="M1268.97,-274.592C1279.84,-271.851 1291.18,-269.459 1302,-268 1362.05,-259.902 1431.03,-262.567 1480.8,-266.583"/>
<polygon fill="#9a32cd" stroke="#9a32cd" points="1267.92,-271.249 1259.14,-277.19 1269.71,-278.016 1267.92,-271.249"/>
<text text-anchor="middle" x="1376" y="-272" font-family="Helvetica,sans-Serif" font-size="10.00"> clustertools</text>
</g>
<!-- Node13 -->
<g id="node26" class="node"><title>Node13</title>
<polygon fill="white" stroke="#bfbfbf" points="878.5,-306.5 878.5,-353.5 1017.5,-353.5 1017.5,-306.5 878.5,-306.5"/>
<text text-anchor="start" x="886.5" y="-340.5" font-family="Helvetica,sans-Serif" font-size="10.00">std::map&lt; ant::Detector</text>
<text text-anchor="start" x="886.5" y="-327.5" font-family="Helvetica,sans-Serif" font-size="10.00">_t::Type_t, ant::analysis</text>
<text text-anchor="middle" x="948" y="-314.5" font-family="Helvetica,sans-Serif" font-size="10.00">::utils::ClusterTools::det_t &gt;</text>
</g>
<!-- Node13&#45;&gt;Node12 -->
<g id="edge28" class="edge"><title>Node13&#45;&gt;Node12</title>
<path fill="none" stroke="#9a32cd" stroke-dasharray="5,2" d="M1027.91,-318.758C1071.99,-312.557 1125.25,-305.063 1162.94,-299.761"/>
<polygon fill="#9a32cd" stroke="#9a32cd" points="1027.2,-315.323 1017.79,-320.182 1028.18,-322.254 1027.2,-315.323"/>
<text text-anchor="middle" x="1080" y="-320" font-family="Helvetica,sans-Serif" font-size="10.00"> cluster_detectors</text>
</g>
<!-- Node14 -->
<g id="node28" class="node"><title>Node14</title>
<a xlink:href="structant_1_1analysis_1_1utils_1_1_cluster_tools_1_1det__t.html" target="_top" xlink:title="ant::analysis::utils\l::ClusterTools::det_t">
<polygon fill="white" stroke="black" points="515,-307 515,-341 621,-341 621,-307 515,-307"/>
<text text-anchor="start" x="523" y="-328" font-family="Helvetica,sans-Serif" font-size="10.00">ant::analysis::utils</text>
<text text-anchor="middle" x="568" y="-315" font-family="Helvetica,sans-Serif" font-size="10.00">::ClusterTools::det_t</text>
</a>
</g>
<!-- Node14&#45;&gt;Node13 -->
<g id="edge30" class="edge"><title>Node14&#45;&gt;Node13</title>
<path fill="none" stroke="#9a32cd" stroke-dasharray="5,2" d="M631.287,-318.456C640.248,-317.852 649.353,-317.336 658,-317 745.934,-313.586 768.217,-310.829 856,-317 863.241,-317.509 870.779,-318.241 878.286,-319.101"/>
<polygon fill="#9a32cd" stroke="#9a32cd" points="630.987,-314.969 621.261,-319.17 631.484,-321.951 630.987,-314.969"/>
<text text-anchor="middle" x="757" y="-321" font-family="Helvetica,sans-Serif" font-size="10.00"> elements</text>
</g>
<!-- Node15 -->
<g id="node30" class="node"><title>Node15</title>
<polygon fill="white" stroke="#bfbfbf" points="280,-313.5 280,-334.5 390,-334.5 390,-313.5 280,-313.5"/>
<text text-anchor="middle" x="335" y="-321.5" font-family="Helvetica,sans-Serif" font-size="10.00">std::vector&lt; double &gt;</text>
</g>
<!-- Node15&#45;&gt;Node14 -->
<g id="edge32" class="edge"><title>Node15&#45;&gt;Node14</title>
<path fill="none" stroke="#9a32cd" stroke-dasharray="5,2" d="M400.646,-324C436.717,-324 480.882,-324 514.782,-324"/>
<polygon fill="#9a32cd" stroke="#9a32cd" points="400.218,-320.5 390.218,-324 400.218,-327.5 400.218,-320.5"/>
<text text-anchor="middle" x="453" y="-328" font-family="Helvetica,sans-Serif" font-size="10.00"> R0</text>
</g>
<!-- Node16 -->
<g id="node32" class="node"><title>Node16</title>
<a xlink:href="classant_1_1analysis_1_1utils_1_1_tree_fitter.html" target="_top" xlink:title="ant::analysis::utils\l::TreeFitter">
<polygon fill="white" stroke="black" points="1163,-209 1163,-243 1259,-243 1259,-209 1163,-209"/>
<text text-anchor="start" x="1171" y="-230" font-family="Helvetica,sans-Serif" font-size="10.00">ant::analysis::utils</text>
<text text-anchor="middle" x="1211" y="-217" font-family="Helvetica,sans-Serif" font-size="10.00">::TreeFitter</text>
</a>
</g>
<!-- Node16&#45;&gt;Node6 -->
<g id="edge34" class="edge"><title>Node16&#45;&gt;Node6</title>
<path fill="none" stroke="#9a32cd" stroke-dasharray="5,2" d="M1269.48,-227.299C1318.14,-229.178 1389.04,-233.773 1450,-245 1465.94,-247.936 1482.98,-252.42 1498.36,-256.991"/>
<polygon fill="#9a32cd" stroke="#9a32cd" points="1269.56,-223.8 1259.45,-226.938 1269.31,-230.795 1269.56,-223.8"/>
<text text-anchor="middle" x="1376" y="-249" font-family="Helvetica,sans-Serif" font-size="10.00"> treefitter</text>
</g>
<!-- Node17 -->
<g id="node34" class="node"><title>Node17</title>
<a xlink:href="classant_1_1analysis_1_1utils_1_1_kin_fitter.html" target="_top" xlink:title="ant::analysis::utils\l::KinFitter">
<polygon fill="white" stroke="black" points="900,-150 900,-184 996,-184 996,-150 900,-150"/>
<text text-anchor="start" x="908" y="-171" font-family="Helvetica,sans-Serif" font-size="10.00">ant::analysis::utils</text>
<text text-anchor="middle" x="948" y="-158" font-family="Helvetica,sans-Serif" font-size="10.00">::KinFitter</text>
</a>
</g>
<!-- Node17&#45;&gt;Node1 -->
<g id="edge86" class="edge"><title>Node17&#45;&gt;Node1</title>
<path fill="none" stroke="#9a32cd" stroke-dasharray="5,2" d="M1006.76,-167C1060.06,-167 1140.8,-167 1211,-167 1211,-167 1211,-167 2107,-167 2214.89,-167 2312.22,-274.089 2346.72,-316.757"/>
<polygon fill="#9a32cd" stroke="#9a32cd" points="1006.47,-163.5 996.473,-167 1006.47,-170.5 1006.47,-163.5"/>
<text text-anchor="middle" x="1704" y="-184" font-family="Helvetica,sans-Serif" font-size="10.00"> kinfitter_2</text>
<text text-anchor="middle" x="1704" y="-171" font-family="Helvetica,sans-Serif" font-size="10.00">kinfitter_4</text>
</g>
<!-- Node17&#45;&gt;Node16 -->
<g id="edge36" class="edge"><title>Node17&#45;&gt;Node16</title>
<path fill="none" stroke="midnightblue" d="M1006.27,-180.071C1053.24,-190.608 1118.51,-205.251 1162.62,-215.147"/>
<polygon fill="midnightblue" stroke="midnightblue" points="1006.76,-176.595 996.238,-177.822 1005.23,-183.426 1006.76,-176.595"/>
</g>
<!-- Node18 -->
<g id="node36" class="node"><title>Node18</title>
<a xlink:href="classant_1_1analysis_1_1utils_1_1_fitter.html" target="_top" xlink:title="ant::analysis::utils\l::Fitter">
<polygon fill="white" stroke="black" points="520,-111 520,-145 616,-145 616,-111 520,-111"/>
<text text-anchor="start" x="528" y="-132" font-family="Helvetica,sans-Serif" font-size="10.00">ant::analysis::utils</text>
<text text-anchor="middle" x="568" y="-119" font-family="Helvetica,sans-Serif" font-size="10.00">::Fitter</text>
</a>
</g>
<!-- Node18&#45;&gt;Node17 -->
<g id="edge38" class="edge"><title>Node18&#45;&gt;Node17</title>
<path fill="none" stroke="midnightblue" d="M626.346,-133.988C701.381,-141.689 830.301,-154.92 899.965,-162.07"/>
<polygon fill="midnightblue" stroke="midnightblue" points="626.432,-130.479 616.127,-132.939 625.718,-137.442 626.432,-130.479"/>
</g>
<!-- Node19 -->
<g id="node38" class="node"><title>Node19</title>
<polygon fill="white" stroke="#bfbfbf" points="265,-117.5 265,-138.5 405,-138.5 405,-117.5 265,-117.5"/>
<text text-anchor="middle" x="335" y="-125.5" font-family="Helvetica,sans-Serif" font-size="10.00">std::unique_ptr&lt; APLCON &gt;</text>
</g>
<!-- Node19&#45;&gt;Node18 -->
<g id="edge40" class="edge"><title>Node19&#45;&gt;Node18</title>
<path fill="none" stroke="#9a32cd" stroke-dasharray="5,2" d="M415.358,-128C450.095,-128 489.59,-128 519.702,-128"/>
<polygon fill="#9a32cd" stroke="#9a32cd" points="415.224,-124.5 405.224,-128 415.224,-131.5 415.224,-124.5"/>
<text text-anchor="middle" x="453" y="-132" font-family="Helvetica,sans-Serif" font-size="10.00"> aplcon</text>
</g>
<!-- Node20 -->
<g id="node40" class="node"><title>Node20</title>
<polygon fill="white" stroke="#bfbfbf" points="507.5,-203 507.5,-237 628.5,-237 628.5,-203 507.5,-203"/>
<text text-anchor="start" x="515.5" y="-224" font-family="Helvetica,sans-Serif" font-size="10.00">std::vector&lt; std::shared</text>
<text text-anchor="middle" x="568" y="-211" font-family="Helvetica,sans-Serif" font-size="10.00">_ptr&lt; FitParticle &gt; &gt;</text>
</g>
<!-- Node20&#45;&gt;Node17 -->
<g id="edge42" class="edge"><title>Node20&#45;&gt;Node17</title>
<path fill="none" stroke="#9a32cd" stroke-dasharray="5,2" d="M638.958,-214.898C697.466,-210.085 782.488,-201.693 856,-189 870.241,-186.541 885.563,-183.173 899.539,-179.812"/>
<polygon fill="#9a32cd" stroke="#9a32cd" points="638.4,-211.432 628.714,-215.727 638.964,-218.409 638.4,-211.432"/>
<text text-anchor="middle" x="757" y="-216" font-family="Helvetica,sans-Serif" font-size="10.00"> Photons</text>
</g>
<!-- Node21 -->
<g id="node42" class="node"><title>Node21</title>
<polygon fill="white" stroke="#bfbfbf" points="496.5,-163.5 496.5,-184.5 639.5,-184.5 639.5,-163.5 496.5,-163.5"/>
<text text-anchor="middle" x="568" y="-171.5" font-family="Helvetica,sans-Serif" font-size="10.00">std::unique_ptr&lt; FitParticle &gt;</text>
</g>
<!-- Node21&#45;&gt;Node17 -->
<g id="edge44" class="edge"><title>Node21&#45;&gt;Node17</title>
<path fill="none" stroke="#9a32cd" stroke-dasharray="5,2" d="M649.965,-172.49C726.145,-171.087 837.028,-169.044 899.853,-167.887"/>
<polygon fill="#9a32cd" stroke="#9a32cd" points="649.856,-168.991 639.922,-172.675 649.985,-175.99 649.856,-168.991"/>
<text text-anchor="middle" x="757" y="-176" font-family="Helvetica,sans-Serif" font-size="10.00"> Proton</text>
</g>
<!-- Node22 -->
<g id="node44" class="node"><title>Node22</title>
<polygon fill="white" stroke="#bfbfbf" points="505.5,-45.5 505.5,-92.5 630.5,-92.5 630.5,-45.5 505.5,-45.5"/>
<text text-anchor="start" x="513.5" y="-79.5" font-family="Helvetica,sans-Serif" font-size="10.00">std::unique_ptr&lt; ant</text>
<text text-anchor="start" x="513.5" y="-66.5" font-family="Helvetica,sans-Serif" font-size="10.00">::analysis::utils::KinFitter</text>
<text text-anchor="middle" x="568" y="-53.5" font-family="Helvetica,sans-Serif" font-size="10.00">::PhotonBeamVector &gt;</text>
</g>
<!-- Node22&#45;&gt;Node17 -->
<g id="edge46" class="edge"><title>Node22&#45;&gt;Node17</title>
<path fill="none" stroke="#9a32cd" stroke-dasharray="5,2" d="M640.756,-70.9694C701.097,-75.1018 787.74,-86.9464 856,-120 865.634,-124.665 864.941,-130.299 874,-136 882.252,-141.193 891.524,-145.864 900.642,-149.91"/>
<polygon fill="#9a32cd" stroke="#9a32cd" points="640.757,-67.4626 630.556,-70.3271 640.317,-74.4488 640.757,-67.4626"/>
<text text-anchor="middle" x="757" y="-124" font-family="Helvetica,sans-Serif" font-size="10.00"> Beam</text>
</g>
<!-- Node23 -->
<g id="node46" class="node"><title>Node23</title>
<a xlink:href="structant_1_1analysis_1_1utils_1_1_kin_fitter_1_1_photon_beam_vector.html" target="_top" xlink:title="ant::analysis::utils\l::KinFitter::PhotonBeamVector">
<polygon fill="white" stroke="black" points="260,-52 260,-86 410,-86 410,-52 260,-52"/>
<text text-anchor="start" x="268" y="-73" font-family="Helvetica,sans-Serif" font-size="10.00">ant::analysis::utils</text>
<text text-anchor="middle" x="335" y="-60" font-family="Helvetica,sans-Serif" font-size="10.00">::KinFitter::PhotonBeamVector</text>
</a>
</g>
<!-- Node23&#45;&gt;Node22 -->
<g id="edge48" class="edge"><title>Node23&#45;&gt;Node22</title>
<path fill="none" stroke="#9a32cd" stroke-dasharray="5,2" d="M420.234,-69C448.358,-69 479.107,-69 505.237,-69"/>
<polygon fill="#9a32cd" stroke="#9a32cd" points="420.005,-65.5001 410.005,-69 420.005,-72.5001 420.005,-65.5001"/>
<text text-anchor="middle" x="453" y="-73" font-family="Helvetica,sans-Serif" font-size="10.00"> ptr</text>
</g>
<!-- Node24 -->
<g id="node48" class="node"><title>Node24</title>
<a xlink:title="STL class. ">
<polygon fill="white" stroke="#bfbfbf" points="134,-58.5 134,-79.5 194,-79.5 194,-58.5 134,-58.5"/>
<text text-anchor="middle" x="164" y="-66.5" font-family="Helvetica,sans-Serif" font-size="10.00">std::string</text>
</a>
</g>
<!-- Node24&#45;&gt;Node23 -->
<g id="edge50" class="edge"><title>Node24&#45;&gt;Node23</title>
<path fill="none" stroke="#9a32cd" stroke-dasharray="5,2" d="M204.584,-69C221.171,-69 240.908,-69 259.943,-69"/>
<polygon fill="#9a32cd" stroke="#9a32cd" points="204.178,-65.5001 194.178,-69 204.178,-72.5001 204.178,-65.5001"/>
<text text-anchor="middle" x="227" y="-73" font-family="Helvetica,sans-Serif" font-size="10.00"> Name</text>
</g>
<!-- Node34 -->
<g id="node68" class="node"><title>Node34</title>
<a xlink:href="structant_1_1_wrap_t_tree_1_1_r_o_o_t__branch__t.html" target="_top" xlink:title="ant::WrapTTree::ROOT\l_branch_t">
<polygon fill="white" stroke="black" points="275.5,-445 275.5,-479 394.5,-479 394.5,-445 275.5,-445"/>
<text text-anchor="start" x="283.5" y="-466" font-family="Helvetica,sans-Serif" font-size="10.00">ant::WrapTTree::ROOT</text>
<text text-anchor="middle" x="335" y="-453" font-family="Helvetica,sans-Serif" font-size="10.00">_branch_t</text>
</a>
</g>
<!-- Node24&#45;&gt;Node34 -->
<g id="edge72" class="edge"><title>Node24&#45;&gt;Node34</title>
<path fill="none" stroke="#9a32cd" stroke-dasharray="5,2" d="M167.021,-89.8839C177.403,-159.093 213.554,-379.514 260,-432 264.554,-437.146 270.112,-441.421 276.124,-444.97"/>
<polygon fill="#9a32cd" stroke="#9a32cd" points="170.453,-89.1674 165.529,-79.7863 163.528,-90.1904 170.453,-89.1674"/>
<text text-anchor="middle" x="227" y="-404" font-family="Helvetica,sans-Serif" font-size="10.00"> Name</text>
</g>
<!-- Node41 -->
<g id="node88" class="node"><title>Node41</title>
<a xlink:href="structant_1_1analysis_1_1physics_1_1_etap_omega_g_1_1_background__t.html" target="_top" xlink:title="ant::analysis::physics\l::EtapOmegaG::Background_t">
<polygon fill="white" stroke="black" points="261,-0 261,-34 409,-34 409,-0 261,-0"/>
<text text-anchor="start" x="269" y="-21" font-family="Helvetica,sans-Serif" font-size="10.00">ant::analysis::physics</text>
<text text-anchor="middle" x="335" y="-8" font-family="Helvetica,sans-Serif" font-size="10.00">::EtapOmegaG::Background_t</text>
</a>
</g>
<!-- Node24&#45;&gt;Node41 -->
<g id="edge98" class="edge"><title>Node24&#45;&gt;Node41</title>
<path fill="none" stroke="#9a32cd" stroke-dasharray="5,2" d="M202.44,-55.1453C205.666,-54.056 208.884,-52.9941 212,-52 231.46,-45.7922 252.818,-39.526 272.197,-34.0451"/>
<polygon fill="#9a32cd" stroke="#9a32cd" points="201.15,-51.8877 192.836,-58.455 203.431,-58.5058 201.15,-51.8877"/>
<text text-anchor="middle" x="227" y="-56" font-family="Helvetica,sans-Serif" font-size="10.00"> Name</text>
</g>
<!-- Node25 -->
<g id="node50" class="node"><title>Node25</title>
<a xlink:title="STL class. ">
<polygon fill="white" stroke="#bfbfbf" points="0.5,-52 0.5,-86 95.5,-86 95.5,-52 0.5,-52"/>
<text text-anchor="start" x="8.5" y="-73" font-family="Helvetica,sans-Serif" font-size="10.00">std::basic_string&lt;</text>
<text text-anchor="middle" x="48" y="-60" font-family="Helvetica,sans-Serif" font-size="10.00"> char &gt;</text>
</a>
</g>
<!-- Node25&#45;&gt;Node24 -->
<g id="edge52" class="edge"><title>Node25&#45;&gt;Node24</title>
<path fill="none" stroke="midnightblue" d="M105.582,-69C115.29,-69 125.014,-69 133.666,-69"/>
<polygon fill="midnightblue" stroke="midnightblue" points="105.516,-65.5001 95.5163,-69 105.516,-72.5001 105.516,-65.5001"/>
</g>
<!-- Node26 -->
<g id="node52" class="node"><title>Node26</title>
<polygon fill="white" stroke="#bfbfbf" points="874.5,-254 874.5,-288 1021.5,-288 1021.5,-254 874.5,-254"/>
<text text-anchor="start" x="882.5" y="-275" font-family="Helvetica,sans-Serif" font-size="10.00">std::unique_ptr&lt; ant</text>
<text text-anchor="middle" x="948" y="-262" font-family="Helvetica,sans-Serif" font-size="10.00">::analysis::utils::KofNvector &gt;</text>
</g>
<!-- Node26&#45;&gt;Node16 -->
<g id="edge54" class="edge"><title>Node26&#45;&gt;Node16</title>
<path fill="none" stroke="#9a32cd" stroke-dasharray="5,2" d="M1031.56,-256.702C1074.82,-249.301 1126.1,-240.527 1162.73,-234.258"/>
<polygon fill="#9a32cd" stroke="#9a32cd" points="1030.88,-253.269 1021.61,-258.405 1032.06,-260.168 1030.88,-253.269"/>
<text text-anchor="middle" x="1080" y="-259" font-family="Helvetica,sans-Serif" font-size="10.00"> current_comb_ptr</text>
</g>
<!-- Node27 -->
<g id="node54" class="node"><title>Node27</title>
<a xlink:href="classant_1_1analysis_1_1utils_1_1_kof_nvector.html" target="_top" xlink:title="KofNvector class: Generate all combinations when drawing k elements out of a vector. ">
<polygon fill="white" stroke="black" points="520,-255 520,-289 616,-289 616,-255 520,-255"/>
<text text-anchor="start" x="528" y="-276" font-family="Helvetica,sans-Serif" font-size="10.00">ant::analysis::utils</text>
<text text-anchor="middle" x="568" y="-263" font-family="Helvetica,sans-Serif" font-size="10.00">::KofNvector&lt; T &gt;</text>
</a>
</g>
<!-- Node27&#45;&gt;Node26 -->
<g id="edge56" class="edge"><title>Node27&#45;&gt;Node26</title>
<path fill="none" stroke="#9a32cd" stroke-dasharray="5,2" d="M626.433,-271.846C692.986,-271.671 801.847,-271.385 874.204,-271.194"/>
<polygon fill="#9a32cd" stroke="#9a32cd" points="626.118,-268.347 616.127,-271.873 626.136,-275.347 626.118,-268.347"/>
<text text-anchor="middle" x="757" y="-275" font-family="Helvetica,sans-Serif" font-size="10.00"> ptr</text>
</g>
<!-- Node28 -->
<g id="node56" class="node"><title>Node28</title>
<polygon fill="white" stroke="#bfbfbf" points="287.5,-255 287.5,-289 382.5,-289 382.5,-255 287.5,-255"/>
<text text-anchor="start" x="295.5" y="-276" font-family="Helvetica,sans-Serif" font-size="10.00">std::vector&lt; index</text>
<text text-anchor="middle" x="335" y="-263" font-family="Helvetica,sans-Serif" font-size="10.00">_type &gt;</text>
</g>
<!-- Node28&#45;&gt;Node27 -->
<g id="edge58" class="edge"><title>Node28&#45;&gt;Node27</title>
<path fill="none" stroke="#9a32cd" stroke-dasharray="5,2" d="M392.898,-272C432.025,-272 483.077,-272 519.951,-272"/>
<polygon fill="#9a32cd" stroke="#9a32cd" points="392.713,-268.5 382.713,-272 392.713,-275.5 392.713,-268.5"/>
<text text-anchor="middle" x="453" y="-289" font-family="Helvetica,sans-Serif" font-size="10.00"> indices</text>
<text text-anchor="middle" x="453" y="-276" font-family="Helvetica,sans-Serif" font-size="10.00">not_indices</text>
</g>
<!-- Node29 -->
<g id="node58" class="node"><title>Node29</title>
<a xlink:title="STL iterator class. ">
<polygon fill="white" stroke="#bfbfbf" points="889.5,-202 889.5,-236 1006.5,-236 1006.5,-202 889.5,-202"/>
<text text-anchor="start" x="897.5" y="-223" font-family="Helvetica,sans-Serif" font-size="10.00">std::vector&lt; T &gt;::const</text>
<text text-anchor="middle" x="948" y="-210" font-family="Helvetica,sans-Serif" font-size="10.00">_iterator</text>
</a>
</g>
<!-- Node29&#45;&gt;Node16 -->
<g id="edge60" class="edge"><title>Node29&#45;&gt;Node16</title>
<path fill="none" stroke="#9a32cd" stroke-dasharray="5,2" d="M1016.85,-220.832C1062.66,-222.052 1121.72,-223.624 1162.6,-224.712"/>
<polygon fill="#9a32cd" stroke="#9a32cd" points="1016.78,-217.33 1006.69,-220.562 1016.6,-224.327 1016.78,-217.33"/>
<text text-anchor="middle" x="1080" y="-227" font-family="Helvetica,sans-Serif" font-size="10.00"> current_perm</text>
</g>
<!-- Node30 -->
<g id="node60" class="node"><title>Node30</title>
<a xlink:href="structant_1_1analysis_1_1physics_1_1_etap_omega_g_1_1_sig__t_1_1_pi0__t_1_1_base_tree__t.html" target="_top" xlink:title="ant::analysis::physics\l::EtapOmegaG::Sig_t::Pi0\l_t::BaseTree_t">
<polygon fill="white" stroke="black" points="1483.5,-375.5 1483.5,-422.5 1614.5,-422.5 1614.5,-375.5 1483.5,-375.5"/>
<text text-anchor="start" x="1491.5" y="-409.5" font-family="Helvetica,sans-Serif" font-size="10.00">ant::analysis::physics</text>
<text text-anchor="start" x="1491.5" y="-396.5" font-family="Helvetica,sans-Serif" font-size="10.00">::EtapOmegaG::Sig_t::Pi0</text>
<text text-anchor="middle" x="1549" y="-383.5" font-family="Helvetica,sans-Serif" font-size="10.00">_t::BaseTree_t</text>
</a>
</g>
<!-- Node30&#45;&gt;Node5 -->
<g id="edge62" class="edge"><title>Node30&#45;&gt;Node5</title>
<path fill="none" stroke="#9a32cd" stroke-dasharray="5,2" d="M1624.87,-389.577C1676.21,-383.201 1743.5,-374.842 1793.45,-368.638"/>
<polygon fill="#9a32cd" stroke="#9a32cd" points="1624.32,-386.118 1614.82,-390.824 1625.18,-393.065 1624.32,-386.118"/>
<text text-anchor="middle" x="1704" y="-390" font-family="Helvetica,sans-Serif" font-size="10.00"> t</text>
</g>
<!-- Node31 -->
<g id="node62" class="node"><title>Node31</title>
<a xlink:href="structant_1_1analysis_1_1physics_1_1_etap_omega_g_1_1_sig__t_1_1_fit__t_1_1_base_tree__t.html" target="_top" xlink:title="ant::analysis::physics\l::EtapOmegaG::Sig_t::Fit\l_t::BaseTree_t">
<polygon fill="white" stroke="black" points="1147,-379.5 1147,-426.5 1275,-426.5 1275,-379.5 1147,-379.5"/>
<text text-anchor="start" x="1155" y="-413.5" font-family="Helvetica,sans-Serif" font-size="10.00">ant::analysis::physics</text>
<text text-anchor="start" x="1155" y="-400.5" font-family="Helvetica,sans-Serif" font-size="10.00">::EtapOmegaG::Sig_t::Fit</text>
<text text-anchor="middle" x="1211" y="-387.5" font-family="Helvetica,sans-Serif" font-size="10.00">_t::BaseTree_t</text>
</a>
</g>
<!-- Node31&#45;&gt;Node30 -->
<g id="edge64" class="edge"><title>Node31&#45;&gt;Node30</title>
<path fill="none" stroke="midnightblue" d="M1285.41,-402.119C1344.61,-401.419 1426.67,-400.448 1483.43,-399.776"/>
<polygon fill="midnightblue" stroke="midnightblue" points="1285.33,-398.62 1275.37,-402.238 1285.41,-405.62 1285.33,-398.62"/>
</g>
<!-- Node36 -->
<g id="node74" class="node"><title>Node36</title>
<a xlink:href="structant_1_1analysis_1_1physics_1_1_etap_omega_g_1_1_sig__t_1_1_omega_pi0__t_1_1_base_tree__t.html" target="_top" xlink:title="ant::analysis::physics\l::EtapOmegaG::Sig_t::OmegaPi0\l_t::BaseTree_t">
<polygon fill="white" stroke="black" points="1468,-309.5 1468,-356.5 1630,-356.5 1630,-309.5 1468,-309.5"/>
<text text-anchor="start" x="1476" y="-343.5" font-family="Helvetica,sans-Serif" font-size="10.00">ant::analysis::physics</text>
<text text-anchor="start" x="1476" y="-330.5" font-family="Helvetica,sans-Serif" font-size="10.00">::EtapOmegaG::Sig_t::OmegaPi0</text>
<text text-anchor="middle" x="1549" y="-317.5" font-family="Helvetica,sans-Serif" font-size="10.00">_t::BaseTree_t</text>
</a>
</g>
<!-- Node31&#45;&gt;Node36 -->
<g id="edge80" class="edge"><title>Node31&#45;&gt;Node36</title>
<path fill="none" stroke="midnightblue" d="M1285.31,-396.441C1332.88,-391.261 1395.64,-382.593 1450,-369 1463.31,-365.672 1477.31,-361.205 1490.47,-356.551"/>
<polygon fill="midnightblue" stroke="midnightblue" points="1284.67,-392.99 1275.1,-397.526 1285.41,-399.95 1284.67,-392.99"/>
</g>
<!-- Node32 -->
<g id="node64" class="node"><title>Node32</title>
<a xlink:href="structant_1_1_wrap_t_tree.html" target="_top" xlink:title="The WrapTTree struct simplifies TTree handling in physics classes. ">
<polygon fill="white" stroke="black" points="905.5,-466.5 905.5,-487.5 990.5,-487.5 990.5,-466.5 905.5,-466.5"/>
<text text-anchor="middle" x="948" y="-474.5" font-family="Helvetica,sans-Serif" font-size="10.00">ant::WrapTTree</text>
</a>
</g>
<!-- Node32&#45;&gt;Node31 -->
<g id="edge66" class="edge"><title>Node32&#45;&gt;Node31</title>
<path fill="none" stroke="midnightblue" d="M1000.37,-467.68C1034.74,-461.015 1080.48,-451.099 1120,-439 1131.7,-435.419 1144.01,-431.005 1155.67,-426.509"/>
<polygon fill="midnightblue" stroke="midnightblue" points="999.711,-464.243 990.545,-469.558 1001.02,-471.119 999.711,-464.243"/>
</g>
<!-- Node37 -->
<g id="node77" class="node"><title>Node37</title>
<a xlink:href="structant_1_1analysis_1_1physics_1_1_etap_omega_g_1_1_tree_common.html" target="_top" xlink:title="ant::analysis::physics\l::EtapOmegaG::TreeCommon">
<polygon fill="white" stroke="black" points="1302.5,-485 1302.5,-519 1449.5,-519 1449.5,-485 1302.5,-485"/>
<text text-anchor="start" x="1310.5" y="-506" font-family="Helvetica,sans-Serif" font-size="10.00">ant::analysis::physics</text>
<text text-anchor="middle" x="1376" y="-493" font-family="Helvetica,sans-Serif" font-size="10.00">::EtapOmegaG::TreeCommon</text>
</a>
</g>
<!-- Node32&#45;&gt;Node37 -->
<g id="edge84" class="edge"><title>Node32&#45;&gt;Node37</title>
<path fill="none" stroke="midnightblue" d="M1000.69,-480.515C1013.55,-481.351 1027.27,-482.225 1040,-483 1130.25,-488.494 1234.17,-494.289 1302.25,-498.013"/>
<polygon fill="midnightblue" stroke="midnightblue" points="1000.8,-477.015 990.592,-479.855 1000.34,-484 1000.8,-477.015"/>
</g>
<!-- Node39 -->
<g id="node83" class="node"><title>Node39</title>
<a xlink:href="structant_1_1analysis_1_1physics_1_1_etap_omega_g_1_1_ref__t_1_1_tree__t.html" target="_top" xlink:title="ant::analysis::physics\l::EtapOmegaG::Ref_t::Tree_t">
<polygon fill="white" stroke="black" points="1138,-445 1138,-479 1284,-479 1284,-445 1138,-445"/>
<text text-anchor="start" x="1146" y="-466" font-family="Helvetica,sans-Serif" font-size="10.00">ant::analysis::physics</text>
<text text-anchor="middle" x="1211" y="-453" font-family="Helvetica,sans-Serif" font-size="10.00">::EtapOmegaG::Ref_t::Tree_t</text>
</a>
</g>
<!-- Node32&#45;&gt;Node39 -->
<g id="edge92" class="edge"><title>Node32&#45;&gt;Node39</title>
<path fill="none" stroke="midnightblue" d="M1000.73,-473.993C1040.1,-471.747 1094.39,-468.651 1137.94,-466.167"/>
<polygon fill="midnightblue" stroke="midnightblue" points="1000.33,-470.509 990.548,-474.573 1000.73,-477.498 1000.33,-470.509"/>
</g>
<!-- Node33 -->
<g id="node66" class="node"><title>Node33</title>
<polygon fill="white" stroke="#bfbfbf" points="498,-457 498,-491 638,-491 638,-457 498,-457"/>
<text text-anchor="start" x="506" y="-478" font-family="Helvetica,sans-Serif" font-size="10.00">std::vector&lt; ant::WrapTTree</text>
<text text-anchor="middle" x="568" y="-465" font-family="Helvetica,sans-Serif" font-size="10.00">::ROOT_branch_t &gt;</text>
</g>
<!-- Node33&#45;&gt;Node32 -->
<g id="edge68" class="edge"><title>Node33&#45;&gt;Node32</title>
<path fill="none" stroke="#9a32cd" stroke-dasharray="5,2" d="M648.477,-474.635C726.975,-475.255 843.348,-476.174 905.397,-476.664"/>
<polygon fill="#9a32cd" stroke="#9a32cd" points="648.168,-471.133 638.141,-474.554 648.113,-478.133 648.168,-471.133"/>
<text text-anchor="middle" x="757" y="-480" font-family="Helvetica,sans-Serif" font-size="10.00"> branches</text>
</g>
<!-- Node34&#45;&gt;Node33 -->
<g id="edge70" class="edge"><title>Node34&#45;&gt;Node33</title>
<path fill="none" stroke="#9a32cd" stroke-dasharray="5,2" d="M404.869,-465.598C434.218,-467.11 468.295,-468.865 497.691,-470.379"/>
<polygon fill="#9a32cd" stroke="#9a32cd" points="404.868,-462.094 394.701,-465.075 404.507,-469.085 404.868,-462.094"/>
<text text-anchor="middle" x="453" y="-473" font-family="Helvetica,sans-Serif" font-size="10.00"> elements</text>
</g>
<!-- Node35&#45;&gt;Node4 -->
<g id="edge74" class="edge"><title>Node35&#45;&gt;Node4</title>
<path fill="none" stroke="#9a32cd" stroke-dasharray="5,2" d="M1958.39,-318.165C1989.65,-321.496 2023.37,-325.088 2050.77,-328.008"/>
<polygon fill="#9a32cd" stroke="#9a32cd" points="1958.65,-314.673 1948.34,-317.094 1957.91,-321.633 1958.65,-314.673"/>
<text text-anchor="middle" x="1991" y="-328" font-family="Helvetica,sans-Serif" font-size="10.00"> OmegaPi0</text>
</g>
<!-- Node36&#45;&gt;Node35 -->
<g id="edge78" class="edge"><title>Node36&#45;&gt;Node35</title>
<path fill="none" stroke="#9a32cd" stroke-dasharray="5,2" d="M1640.27,-325.734C1683.71,-322.275 1735.34,-318.164 1777.96,-314.771"/>
<polygon fill="#9a32cd" stroke="#9a32cd" points="1639.96,-322.247 1630.27,-326.529 1640.52,-329.225 1639.96,-322.247"/>
<text text-anchor="middle" x="1704" y="-328" font-family="Helvetica,sans-Serif" font-size="10.00"> t</text>
</g>
<!-- Node37&#45;&gt;Node1 -->
<g id="edge82" class="edge"><title>Node37&#45;&gt;Node1</title>
<path fill="none" stroke="#9a32cd" stroke-dasharray="5,2" d="M1459.95,-496.84C1526.2,-493.211 1620.96,-489 1704,-489 1704,-489 1704,-489 2107,-489 2211.57,-489 2309.38,-391.536 2345.4,-351.18"/>
<polygon fill="#9a32cd" stroke="#9a32cd" points="1459.36,-493.367 1449.57,-497.417 1459.75,-500.357 1459.36,-493.367"/>
<text text-anchor="middle" x="1863" y="-493" font-family="Helvetica,sans-Serif" font-size="10.00"> t</text>
</g>
<!-- Node38 -->
<g id="node81" class="node"><title>Node38</title>
<a xlink:href="structant_1_1analysis_1_1physics_1_1_etap_omega_g_1_1_ref__t.html" target="_top" xlink:title="ant::analysis::physics\l::EtapOmegaG::Ref_t">
<polygon fill="white" stroke="black" points="1648,-418 1648,-452 1760,-452 1760,-418 1648,-418"/>
<text text-anchor="start" x="1656" y="-439" font-family="Helvetica,sans-Serif" font-size="10.00">ant::analysis::physics</text>
<text text-anchor="middle" x="1704" y="-426" font-family="Helvetica,sans-Serif" font-size="10.00">::EtapOmegaG::Ref_t</text>
</a>
</g>
<!-- Node38&#45;&gt;Node1 -->
<g id="edge88" class="edge"><title>Node38&#45;&gt;Node1</title>
<path fill="none" stroke="#9a32cd" stroke-dasharray="5,2" d="M1770.15,-427.257C1878.43,-414.178 2100.07,-385.713 2286,-351 2291.83,-349.911 2297.9,-348.68 2303.94,-347.39"/>
<polygon fill="#9a32cd" stroke="#9a32cd" points="1769.54,-423.805 1760.03,-428.474 1770.37,-430.755 1769.54,-423.805"/>
<text text-anchor="middle" x="1991" y="-405" font-family="Helvetica,sans-Serif" font-size="10.00"> Ref</text>
</g>
<!-- Node39&#45;&gt;Node38 -->
<g id="edge90" class="edge"><title>Node39&#45;&gt;Node38</title>
<path fill="none" stroke="#9a32cd" stroke-dasharray="5,2" d="M1294.13,-457.447C1394.72,-451.938 1561.33,-442.814 1647.89,-438.073"/>
<polygon fill="#9a32cd" stroke="#9a32cd" points="1293.8,-453.96 1284.01,-458.002 1294.19,-460.949 1293.8,-453.96"/>
<text text-anchor="middle" x="1376" y="-460" font-family="Helvetica,sans-Serif" font-size="10.00"> t</text>
</g>
<!-- Node40 -->
<g id="node86" class="node"><title>Node40</title>
<polygon fill="white" stroke="#bfbfbf" points="658.5,-8 658.5,-42 855.5,-42 855.5,-8 658.5,-8"/>
<text text-anchor="start" x="666.5" y="-29" font-family="Helvetica,sans-Serif" font-size="10.00">std::vector&lt; ant::analysis</text>
<text text-anchor="middle" x="757" y="-16" font-family="Helvetica,sans-Serif" font-size="10.00">::physics::EtapOmegaG::Background_t &gt;</text>
</g>
<!-- Node40&#45;&gt;Node1 -->
<g id="edge94" class="edge"><title>Node40&#45;&gt;Node1</title>
<path fill="none" stroke="#9a32cd" stroke-dasharray="5,2" d="M811.503,-45.5478C888.95,-74.0184 1027.29,-122 1080,-122 1080,-122 1080,-122 2107,-122 2191.64,-122 2222.73,-130.786 2286,-187 2326.58,-223.056 2347.69,-286.565 2355.87,-316.915"/>
<polygon fill="#9a32cd" stroke="#9a32cd" points="812.505,-42.1868 801.912,-42.0071 810.081,-48.7537 812.505,-42.1868"/>
<text text-anchor="middle" x="1549" y="-126" font-family="Helvetica,sans-Serif" font-size="10.00"> ptreeBackgrounds</text>
</g>
<!-- Node41&#45;&gt;Node40 -->
<g id="edge96" class="edge"><title>Node41&#45;&gt;Node40</title>
<path fill="none" stroke="#9a32cd" stroke-dasharray="5,2" d="M419.85,-18.6085C488.731,-19.9143 585.953,-21.7574 658.308,-23.1291"/>
<polygon fill="#9a32cd" stroke="#9a32cd" points="419.538,-15.1021 409.474,-18.4118 419.406,-22.1008 419.538,-15.1021"/>
<text text-anchor="middle" x="453" y="-24" font-family="Helvetica,sans-Serif" font-size="10.00"> elements</text>
</g>
<!-- Node42 -->
<g id="node91" class="node"><title>Node42</title>
<a xlink:href="classant_1_1analysis_1_1_prompt_random_1_1_switch.html" target="_top" xlink:title="ant::analysis::PromptRandom\l::Switch">
<polygon fill="white" stroke="black" points="2034,-60 2034,-94 2180,-94 2180,-60 2034,-60"/>
<text text-anchor="start" x="2042" y="-81" font-family="Helvetica,sans-Serif" font-size="10.00">ant::analysis::PromptRandom</text>
<text text-anchor="middle" x="2107" y="-68" font-family="Helvetica,sans-Serif" font-size="10.00">::Switch</text>
</a>
</g>
<!-- Node42&#45;&gt;Node1 -->
<g id="edge100" class="edge"><title>Node42&#45;&gt;Node1</title>
<path fill="none" stroke="#9a32cd" stroke-dasharray="5,2" d="M2190.37,-59.5496C2223.19,-57.3914 2259.33,-61.4495 2286,-82 2324.28,-111.502 2349.91,-264.961 2357.59,-316.841"/>
<polygon fill="#9a32cd" stroke="#9a32cd" points="2189.97,-56.0709 2180.3,-60.4076 2190.56,-63.0456 2189.97,-56.0709"/>
<text text-anchor="middle" x="2242" y="-99" font-family="Helvetica,sans-Serif" font-size="10.00"> promptrandom</text>
<text text-anchor="middle" x="2242" y="-86" font-family="Helvetica,sans-Serif" font-size="10.00">promptrandom_tight</text>
</g>
</g>
</svg>
