<?xml version="1.0" encoding="UTF-8" standalone="no"?>
<!DOCTYPE svg PUBLIC "-//W3C//DTD SVG 1.1//EN"
 "http://www.w3.org/Graphics/SVG/1.1/DTD/svg11.dtd">
<!-- Generated by graphviz version 2.26.3 (20100126.1600)
 -->
<!-- Title: ant::ReconstructHook::DetectorReadHits Pages: 1 -->
<svg width="632pt" height="382pt"
 viewBox="0.00 0.00 632.00 382.00" xmlns="http://www.w3.org/2000/svg" xmlns:xlink="http://www.w3.org/1999/xlink">
<g id="graph1" class="graph" transform="scale(1 1) rotate(0) translate(4 378)">
<title>ant::ReconstructHook::DetectorReadHits</title>
<polygon fill="white" stroke="white" points="-4,5 -4,-378 629,-378 629,5 -4,5"/>
<!-- Node1 -->
<g id="node1" class="node"><title>Node1</title>
<polygon fill="#bfbfbf" stroke="black" points="150.5,-135 150.5,-169 263.5,-169 263.5,-135 150.5,-135"/>
<text text-anchor="start" x="158.5" y="-156" font-family="Helvetica,sans-Serif" font-size="10.00">ant::ReconstructHook</text>
<text text-anchor="middle" x="207" y="-143" font-family="Helvetica,sans-Serif" font-size="10.00">::DetectorReadHits</text>
</g>
<!-- Node3 -->
<g id="node5" class="node"><title>Node3</title>
<a xlink:href="structant_1_1calibration_1_1converter_1_1_multi_hit_reference.html" target="_top" xlink:title="ant::calibration::converter\l::MultiHitReference\&lt; T \&gt;">
<polygon fill="white" stroke="black" points="300.5,-230 300.5,-264 427.5,-264 427.5,-230 300.5,-230"/>
<text text-anchor="start" x="308.5" y="-251" font-family="Helvetica,sans-Serif" font-size="10.00">ant::calibration::converter</text>
<text text-anchor="middle" x="364" y="-238" font-family="Helvetica,sans-Serif" font-size="10.00">::MultiHitReference&lt; T &gt;</text>
</a>
</g>
<!-- Node1&#45;&gt;Node3 -->
<g id="edge4" class="edge"><title>Node1&#45;&gt;Node3</title>
<path fill="none" stroke="midnightblue" d="M235.248,-175.899C253.051,-190.198 276.957,-208.047 300,-221 305.645,-224.173 311.757,-227.165 317.886,-229.91"/>
<polygon fill="midnightblue" stroke="midnightblue" points="236.991,-172.805 227.028,-169.201 232.57,-178.231 236.991,-172.805"/>
</g>
<!-- Node4 -->
<g id="node7" class="node"><title>Node4</title>
<a xlink:href="classant_1_1calibration_1_1_energy.html" target="_top" xlink:title="ant::calibration::Energy">
<polygon fill="white" stroke="black" points="305.5,-190.5 305.5,-211.5 422.5,-211.5 422.5,-190.5 305.5,-190.5"/>
<text text-anchor="middle" x="364" y="-198.5" font-family="Helvetica,sans-Serif" font-size="10.00">ant::calibration::Energy</text>
</a>
</g>
<!-- Node1&#45;&gt;Node4 -->
<g id="edge6" class="edge"><title>Node1&#45;&gt;Node4</title>
<path fill="none" stroke="midnightblue" d="M271.264,-172.057C291.477,-178.365 312.993,-185.081 330.207,-190.453"/>
<polygon fill="midnightblue" stroke="midnightblue" points="272.059,-168.639 261.47,-169 269.973,-175.321 272.059,-168.639"/>
</g>
<!-- Node10 -->
<g id="node19" class="node"><title>Node10</title>
<a xlink:href="classant_1_1calibration_1_1_time.html" target="_top" xlink:title="ant::calibration::Time">
<polygon fill="white" stroke="black" points="310,-92.5 310,-113.5 418,-113.5 418,-92.5 310,-92.5"/>
<text text-anchor="middle" x="364" y="-100.5" font-family="Helvetica,sans-Serif" font-size="10.00">ant::calibration::Time</text>
</a>
</g>
<!-- Node1&#45;&gt;Node10 -->
<g id="edge18" class="edge"><title>Node1&#45;&gt;Node10</title>
<path fill="none" stroke="midnightblue" d="M271.264,-131.943C291.477,-125.635 312.993,-118.919 330.207,-113.547"/>
<polygon fill="midnightblue" stroke="midnightblue" points="269.973,-128.679 261.47,-135 272.059,-135.361 269.973,-128.679"/>
</g>
<!-- Node13 -->
<g id="node25" class="node"><title>Node13</title>
<a xlink:href="structant_1_1calibration_1_1converter_1_1_multi_hit_reference.html" target="_top" xlink:title="ant::calibration::converter\l::MultiHitReference\&lt; std\l::uint16_t \&gt;">
<polygon fill="white" stroke="black" points="300.5,-10.5 300.5,-57.5 427.5,-57.5 427.5,-10.5 300.5,-10.5"/>
<text text-anchor="start" x="308.5" y="-44.5" font-family="Helvetica,sans-Serif" font-size="10.00">ant::calibration::converter</text>
<text text-anchor="start" x="308.5" y="-31.5" font-family="Helvetica,sans-Serif" font-size="10.00">::MultiHitReference&lt; std</text>
<text text-anchor="middle" x="364" y="-18.5" font-family="Helvetica,sans-Serif" font-size="10.00">::uint16_t &gt;</text>
</a>
</g>
<!-- Node1&#45;&gt;Node13 -->
<g id="edge24" class="edge"><title>Node1&#45;&gt;Node13</title>
<path fill="none" stroke="midnightblue" d="M237.887,-128.785C265.22,-108.242 304.929,-78.3973 332.457,-57.7072"/>
<polygon fill="midnightblue" stroke="midnightblue" points="235.72,-126.036 229.829,-134.842 239.926,-131.631 235.72,-126.036"/>
</g>
<!-- Node2 -->
<g id="node2" class="node"><title>Node2</title>
<a xlink:href="structant_1_1_reconstruct_hook_1_1_base.html" target="_top" xlink:title="The Base struct just defines some useful types. ">
<polygon fill="white" stroke="black" points="0.5,-135 0.5,-169 113.5,-169 113.5,-135 0.5,-135"/>
<text text-anchor="start" x="8.5" y="-156" font-family="Helvetica,sans-Serif" font-size="10.00">ant::ReconstructHook</text>
<text text-anchor="middle" x="57" y="-143" font-family="Helvetica,sans-Serif" font-size="10.00">::Base</text>
</a>
</g>
<!-- Node2&#45;&gt;Node1 -->
<g id="edge2" class="edge"><title>Node2&#45;&gt;Node1</title>
<path fill="none" stroke="midnightblue" d="M123.916,-152C132.694,-152 141.622,-152 150.211,-152"/>
<polygon fill="midnightblue" stroke="midnightblue" points="123.709,-148.5 113.709,-152 123.709,-155.5 123.709,-148.5"/>
</g>
<!-- Node5 -->
<g id="node9" class="node"><title>Node5</title>
<a xlink:href="classant_1_1calibration_1_1_c_b___energy.html" target="_top" xlink:title="ant::calibration::CB\l_Energy">
<polygon fill="white" stroke="black" points="493.5,-340 493.5,-374 594.5,-374 594.5,-340 493.5,-340"/>
<text text-anchor="start" x="501.5" y="-361" font-family="Helvetica,sans-Serif" font-size="10.00">ant::calibration::CB</text>
<text text-anchor="middle" x="544" y="-348" font-family="Helvetica,sans-Serif" font-size="10.00">_Energy</text>
</a>
</g>
<!-- Node4&#45;&gt;Node5 -->
<g id="edge8" class="edge"><title>Node4&#45;&gt;Node5</title>
<path fill="none" stroke="midnightblue" d="M423.333,-216.98C424.977,-218.222 426.54,-219.559 428,-221 464.617,-257.129 427.589,-294.663 464,-331 472.063,-339.046 482.639,-344.603 493.449,-348.441"/>
<polygon fill="midnightblue" stroke="midnightblue" points="424.879,-213.822 414.533,-211.541 421.199,-219.776 424.879,-213.822"/>
</g>
<!-- Node6 -->
<g id="node11" class="node"><title>Node6</title>
<a xlink:href="classant_1_1calibration_1_1_p_i_d___energy.html" target="_top" xlink:title="ant::calibration::PID\l_Energy">
<polygon fill="white" stroke="black" points="492,-288 492,-322 596,-322 596,-288 492,-288"/>
<text text-anchor="start" x="500" y="-309" font-family="Helvetica,sans-Serif" font-size="10.00">ant::calibration::PID</text>
<text text-anchor="middle" x="544" y="-296" font-family="Helvetica,sans-Serif" font-size="10.00">_Energy</text>
</a>
</g>
<!-- Node4&#45;&gt;Node6 -->
<g id="edge10" class="edge"><title>Node4&#45;&gt;Node6</title>
<path fill="none" stroke="midnightblue" d="M420.572,-216.056C423.176,-217.552 425.671,-219.195 428,-221 451.985,-239.58 440.121,-260.284 464,-279 472.161,-285.396 481.949,-290.245 491.833,-293.911"/>
<polygon fill="midnightblue" stroke="midnightblue" points="421.892,-212.805 411.376,-211.515 418.793,-219.081 421.892,-212.805"/>
</g>
<!-- Node7 -->
<g id="node13" class="node"><title>Node7</title>
<a xlink:href="classant_1_1calibration_1_1_t_a_p_s___energy.html" target="_top" xlink:title="ant::calibration::TAPS\l_Energy">
<polygon fill="white" stroke="black" points="487.5,-236 487.5,-270 600.5,-270 600.5,-236 487.5,-236"/>
<text text-anchor="start" x="495.5" y="-257" font-family="Helvetica,sans-Serif" font-size="10.00">ant::calibration::TAPS</text>
<text text-anchor="middle" x="544" y="-244" font-family="Helvetica,sans-Serif" font-size="10.00">_Energy</text>
</a>
</g>
<!-- Node4&#45;&gt;Node7 -->
<g id="edge12" class="edge"><title>Node4&#45;&gt;Node7</title>
<path fill="none" stroke="midnightblue" d="M410.165,-214.337C433.71,-221.138 462.55,-229.47 487.421,-236.655"/>
<polygon fill="midnightblue" stroke="midnightblue" points="411.004,-210.936 400.426,-211.523 409.061,-217.661 411.004,-210.936"/>
</g>
<!-- Node8 -->
<g id="node15" class="node"><title>Node8</title>
<a xlink:href="classant_1_1calibration_1_1_t_a_p_s___short_energy.html" target="_top" xlink:title="ant::calibration::TAPS\l_ShortEnergy">
<polygon fill="white" stroke="black" points="487.5,-184 487.5,-218 600.5,-218 600.5,-184 487.5,-184"/>
<text text-anchor="start" x="495.5" y="-205" font-family="Helvetica,sans-Serif" font-size="10.00">ant::calibration::TAPS</text>
<text text-anchor="middle" x="544" y="-192" font-family="Helvetica,sans-Serif" font-size="10.00">_ShortEnergy</text>
</a>
</g>
<!-- Node4&#45;&gt;Node8 -->
<g id="edge14" class="edge"><title>Node4&#45;&gt;Node8</title>
<path fill="none" stroke="midnightblue" d="M433.061,-201C451.016,-201 470.148,-201 487.379,-201"/>
<polygon fill="midnightblue" stroke="midnightblue" points="432.939,-197.5 422.939,-201 432.939,-204.5 432.939,-197.5"/>
</g>
<!-- Node9 -->
<g id="node17" class="node"><title>Node9</title>
<a xlink:href="classant_1_1calibration_1_1_t_a_p_s_veto___energy.html" target="_top" xlink:title="ant::calibration::TAPSVeto\l_Energy">
<polygon fill="white" stroke="black" points="477.5,-132 477.5,-166 610.5,-166 610.5,-132 477.5,-132"/>
<text text-anchor="start" x="485.5" y="-153" font-family="Helvetica,sans-Serif" font-size="10.00">ant::calibration::TAPSVeto</text>
<text text-anchor="middle" x="544" y="-140" font-family="Helvetica,sans-Serif" font-size="10.00">_Energy</text>
</a>
</g>
<!-- Node4&#45;&gt;Node9 -->
<g id="edge16" class="edge"><title>Node4&#45;&gt;Node9</title>
<path fill="none" stroke="midnightblue" d="M410.181,-187.659C432.947,-181.082 460.662,-173.075 484.952,-166.058"/>
<polygon fill="midnightblue" stroke="midnightblue" points="409.061,-184.339 400.426,-190.477 411.004,-191.064 409.061,-184.339"/>
</g>
<!-- Node11 -->
<g id="node21" class="node"><title>Node11</title>
<a xlink:href="classant_1_1calibration_1_1_t_a_p_s___time.html" target="_top" xlink:title="ant::calibration::TAPS_Time">
<polygon fill="white" stroke="black" points="474,-92.5 474,-113.5 614,-113.5 614,-92.5 474,-92.5"/>
<text text-anchor="middle" x="544" y="-100.5" font-family="Helvetica,sans-Serif" font-size="10.00">ant::calibration::TAPS_Time</text>
</a>
</g>
<!-- Node10&#45;&gt;Node11 -->
<g id="edge20" class="edge"><title>Node10&#45;&gt;Node11</title>
<path fill="none" stroke="midnightblue" d="M428.057,-103C442.844,-103 458.652,-103 473.688,-103"/>
<polygon fill="midnightblue" stroke="midnightblue" points="428.006,-99.5001 418.006,-103 428.006,-106.5 428.006,-99.5001"/>
</g>
<!-- Node12 -->
<g id="node23" class="node"><title>Node12</title>
<a xlink:href="classant_1_1calibration_1_1_t_a_p_s_veto___time.html" target="_top" xlink:title="ant::calibration::TAPSVeto_Time">
<polygon fill="white" stroke="black" points="464,-52.5 464,-73.5 624,-73.5 624,-52.5 464,-52.5"/>
<text text-anchor="middle" x="544" y="-60.5" font-family="Helvetica,sans-Serif" font-size="10.00">ant::calibration::TAPSVeto_Time</text>
</a>
</g>
<!-- Node10&#45;&gt;Node12 -->
<g id="edge22" class="edge"><title>Node10&#45;&gt;Node12</title>
<path fill="none" stroke="midnightblue" d="M421.124,-90.3059C445.475,-84.8944 473.55,-78.6557 496.711,-73.5087"/>
<polygon fill="midnightblue" stroke="midnightblue" points="420.295,-86.9044 411.293,-92.4905 421.814,-93.7377 420.295,-86.9044"/>
</g>
<!-- Node14 -->
<g id="node27" class="node"><title>Node14</title>
<a xlink:href="structant_1_1calibration_1_1converter_1_1_c_a_t_c_h___t_d_c.html" target="_top" xlink:title="ant::calibration::converter\l::CATCH_TDC">
<polygon fill="white" stroke="black" points="480.5,-0 480.5,-34 607.5,-34 607.5,-0 480.5,-0"/>
<text text-anchor="start" x="488.5" y="-21" font-family="Helvetica,sans-Serif" font-size="10.00">ant::calibration::converter</text>
<text text-anchor="middle" x="544" y="-8" font-family="Helvetica,sans-Serif" font-size="10.00">::CATCH_TDC</text>
</a>
</g>
<!-- Node13&#45;&gt;Node14 -->
<g id="edge26" class="edge"><title>Node13&#45;&gt;Node14</title>
<path fill="none" stroke="midnightblue" d="M437.867,-27.0237C451.971,-25.6916 466.621,-24.308 480.371,-23.0094"/>
<polygon fill="midnightblue" stroke="midnightblue" points="437.341,-23.5577 427.715,-27.9825 437.999,-30.5267 437.341,-23.5577"/>
</g>
</g>
</svg>
