<?xml version="1.0" encoding="UTF-8" standalone="no"?>
<!DOCTYPE svg PUBLIC "-//W3C//DTD SVG 1.1//EN"
 "http://www.w3.org/Graphics/SVG/1.1/DTD/svg11.dtd">
<!-- Generated by graphviz version 2.26.3 (20100126.1600)
 -->
<!-- Title: RefHist_t::Fill_t Pages: 1 -->
<svg width="270pt" height="576pt"
 viewBox="0.00 0.00 270.00 576.00" xmlns="http://www.w3.org/2000/svg" xmlns:xlink="http://www.w3.org/1999/xlink">
<g id="graph1" class="graph" transform="scale(1 1) rotate(0) translate(4 572)">
<title>RefHist_t::Fill_t</title>
<polygon fill="white" stroke="white" points="-4,5 -4,-572 267,-572 267,5 -4,5"/>
<!-- Node1 -->
<g id="node1" class="node"><title>Node1</title>
<polygon fill="#bfbfbf" stroke="black" points="107,-0.5 107,-21.5 193,-21.5 193,-0.5 107,-0.5"/>
<text text-anchor="middle" x="150" y="-8.5" font-family="Helvetica,sans-Serif" font-size="10.00">RefHist_t::Fill_t</text>
</g>
<!-- Node2 -->
<g id="node2" class="node"><title>Node2</title>
<a xlink:href="struct_common_hist__t_1_1_fill__t.html" target="_top" xlink:title="CommonHist_t::Fill_t">
<polygon fill="white" stroke="black" points="28,-60.5 28,-81.5 138,-81.5 138,-60.5 28,-60.5"/>
<text text-anchor="middle" x="83" y="-68.5" font-family="Helvetica,sans-Serif" font-size="10.00">CommonHist_t::Fill_t</text>
</a>
</g>
<!-- Node2&#45;&gt;Node1 -->
<g id="edge2" class="edge"><title>Node2&#45;&gt;Node1</title>
<path fill="none" stroke="midnightblue" d="M102.447,-53.5849C113.988,-43.2495 128.247,-30.48 138.125,-21.6339"/>
<polygon fill="midnightblue" stroke="midnightblue" points="100.093,-50.9946 94.9783,-60.2732 104.763,-56.2093 100.093,-50.9946"/>
</g>
<!-- Node3 -->
<g id="node4" class="node"><title>Node3</title>
<a xlink:href="structant_1_1analysis_1_1physics_1_1_etap_omega_g_1_1_tree_common.html" target="_top" xlink:title="ant::analysis::physics\l::EtapOmegaG::TreeCommon">
<polygon fill="white" stroke="black" points="-0.5,-155 -0.5,-189 146.5,-189 146.5,-155 -0.5,-155"/>
<text text-anchor="start" x="7.5" y="-176" font-family="Helvetica,sans-Serif" font-size="10.00">ant::analysis::physics</text>
<text text-anchor="middle" x="73" y="-163" font-family="Helvetica,sans-Serif" font-size="10.00">::EtapOmegaG::TreeCommon</text>
</a>
</g>
<!-- Node3&#45;&gt;Node2 -->
<g id="edge4" class="edge"><title>Node3&#45;&gt;Node2</title>
<path fill="none" stroke="#9a32cd" stroke-dasharray="5,2" d="M64.4437,-145.006C61.3941,-131.303 59.6655,-114.525 64,-100 65.9966,-93.3094 70.0849,-86.7278 73.9593,-81.5302"/>
<polygon fill="#9a32cd" stroke="#9a32cd" points="61.0803,-145.981 66.9547,-154.798 67.8609,-144.242 61.0803,-145.981"/>
<text text-anchor="middle" x="85.5" y="-115.5" font-family="Helvetica,sans-Serif" font-size="10.00"> Common</text>
</g>
<!-- Node4 -->
<g id="node6" class="node"><title>Node4</title>
<a xlink:href="structant_1_1_wrap_t_tree.html" target="_top" xlink:title="The WrapTTree struct simplifies TTree handling in physics classes. ">
<polygon fill="white" stroke="black" points="105.5,-228.5 105.5,-249.5 190.5,-249.5 190.5,-228.5 105.5,-228.5"/>
<text text-anchor="middle" x="148" y="-236.5" font-family="Helvetica,sans-Serif" font-size="10.00">ant::WrapTTree</text>
</a>
</g>
<!-- Node4&#45;&gt;Node3 -->
<g id="edge6" class="edge"><title>Node4&#45;&gt;Node3</title>
<path fill="none" stroke="midnightblue" d="M128.358,-221.453C117.146,-211.437 103.156,-198.94 92.0454,-189.014"/>
<polygon fill="midnightblue" stroke="midnightblue" points="126.161,-224.183 135.95,-228.235 130.824,-218.963 126.161,-224.183"/>
</g>
<!-- Node9 -->
<g id="node16" class="node"><title>Node9</title>
<a xlink:href="structant_1_1analysis_1_1physics_1_1_etap_omega_g_1_1_ref__t_1_1_tree__t.html" target="_top" xlink:title="ant::analysis::physics\l::EtapOmegaG::Ref_t::Tree_t">
<polygon fill="white" stroke="black" points="116,-101 116,-135 262,-135 262,-101 116,-101"/>
<text text-anchor="start" x="124" y="-122" font-family="Helvetica,sans-Serif" font-size="10.00">ant::analysis::physics</text>
<text text-anchor="middle" x="189" y="-109" font-family="Helvetica,sans-Serif" font-size="10.00">::EtapOmegaG::Ref_t::Tree_t</text>
</a>
</g>
<!-- Node4&#45;&gt;Node9 -->
<g id="edge18" class="edge"><title>Node4&#45;&gt;Node9</title>
<path fill="none" stroke="midnightblue" d="M154.906,-218.62C162.86,-195.144 175.786,-156.997 183.228,-135.036"/>
<polygon fill="midnightblue" stroke="midnightblue" points="151.533,-217.668 151.638,-228.262 158.163,-219.914 151.533,-217.668"/>
</g>
<!-- Node5 -->
<g id="node8" class="node"><title>Node5</title>
<polygon fill="white" stroke="#bfbfbf" points="78,-301 78,-335 218,-335 218,-301 78,-301"/>
<text text-anchor="start" x="86" y="-322" font-family="Helvetica,sans-Serif" font-size="10.00">std::vector&lt; ant::WrapTTree</text>
<text text-anchor="middle" x="148" y="-309" font-family="Helvetica,sans-Serif" font-size="10.00">::ROOT_branch_t &gt;</text>
</g>
<!-- Node5&#45;&gt;Node4 -->
<g id="edge8" class="edge"><title>Node5&#45;&gt;Node4</title>
<path fill="none" stroke="#9a32cd" stroke-dasharray="5,2" d="M148,-290.623C148,-276.473 148,-260.024 148,-249.567"/>
<polygon fill="#9a32cd" stroke="#9a32cd" points="144.5,-290.858 148,-300.858 151.5,-290.858 144.5,-290.858"/>
<text text-anchor="middle" x="169.5" y="-272.5" font-family="Helvetica,sans-Serif" font-size="10.00"> branches</text>
</g>
<!-- Node6 -->
<g id="node10" class="node"><title>Node6</title>
<a xlink:href="structant_1_1_wrap_t_tree_1_1_r_o_o_t__branch__t.html" target="_top" xlink:title="ant::WrapTTree::ROOT\l_branch_t">
<polygon fill="white" stroke="black" points="88.5,-387 88.5,-421 207.5,-421 207.5,-387 88.5,-387"/>
<text text-anchor="start" x="96.5" y="-408" font-family="Helvetica,sans-Serif" font-size="10.00">ant::WrapTTree::ROOT</text>
<text text-anchor="middle" x="148" y="-395" font-family="Helvetica,sans-Serif" font-size="10.00">_branch_t</text>
</a>
</g>
<!-- Node6&#45;&gt;Node5 -->
<g id="edge10" class="edge"><title>Node6&#45;&gt;Node5</title>
<path fill="none" stroke="#9a32cd" stroke-dasharray="5,2" d="M148,-376.342C148,-362.774 148,-346.861 148,-335.084"/>
<polygon fill="#9a32cd" stroke="#9a32cd" points="144.5,-376.597 148,-386.597 151.5,-376.597 144.5,-376.597"/>
<text text-anchor="middle" x="169.5" y="-358.5" font-family="Helvetica,sans-Serif" font-size="10.00"> elements</text>
</g>
<!-- Node7 -->
<g id="node12" class="node"><title>Node7</title>
<a xlink:title="STL class. ">
<polygon fill="white" stroke="#bfbfbf" points="118,-472.5 118,-493.5 178,-493.5 178,-472.5 118,-472.5"/>
<text text-anchor="middle" x="148" y="-480.5" font-family="Helvetica,sans-Serif" font-size="10.00">std::string</text>
</a>
</g>
<!-- Node7&#45;&gt;Node6 -->
<g id="edge12" class="edge"><title>Node7&#45;&gt;Node6</title>
<path fill="none" stroke="#9a32cd" stroke-dasharray="5,2" d="M148,-462.162C148,-449.363 148,-433.171 148,-421.124"/>
<polygon fill="#9a32cd" stroke="#9a32cd" points="144.5,-462.346 148,-472.346 151.5,-462.346 144.5,-462.346"/>
<text text-anchor="middle" x="163" y="-444.5" font-family="Helvetica,sans-Serif" font-size="10.00"> Name</text>
</g>
<!-- Node8 -->
<g id="node14" class="node"><title>Node8</title>
<a xlink:title="STL class. ">
<polygon fill="white" stroke="#bfbfbf" points="100.5,-533 100.5,-567 195.5,-567 195.5,-533 100.5,-533"/>
<text text-anchor="start" x="108.5" y="-554" font-family="Helvetica,sans-Serif" font-size="10.00">std::basic_string&lt;</text>
<text text-anchor="middle" x="148" y="-541" font-family="Helvetica,sans-Serif" font-size="10.00"> char &gt;</text>
</a>
</g>
<!-- Node8&#45;&gt;Node7 -->
<g id="edge14" class="edge"><title>Node8&#45;&gt;Node7</title>
<path fill="none" stroke="midnightblue" d="M148,-522.534C148,-512.306 148,-501.301 148,-493.506"/>
<polygon fill="midnightblue" stroke="midnightblue" points="144.5,-522.746 148,-532.746 151.5,-522.746 144.5,-522.746"/>
</g>
<!-- Node9&#45;&gt;Node1 -->
<g id="edge16" class="edge"><title>Node9&#45;&gt;Node1</title>
<path fill="none" stroke="#9a32cd" stroke-dasharray="5,2" d="M179.213,-91.1496C171.013,-68.6514 159.735,-37.709 153.88,-21.6461"/>
<polygon fill="#9a32cd" stroke="#9a32cd" points="176.021,-92.6118 182.734,-100.809 182.598,-90.2146 176.021,-92.6118"/>
<text text-anchor="middle" x="186.5" y="-68.5" font-family="Helvetica,sans-Serif" font-size="10.00"> Tree</text>
</g>
</g>
</svg>
