<?xml version="1.0" encoding="UTF-8" standalone="no"?>
<!DOCTYPE svg PUBLIC "-//W3C//DTD SVG 1.1//EN"
 "http://www.w3.org/Graphics/SVG/1.1/DTD/svg11.dtd">
<!-- Generated by graphviz version 2.26.3 (20100126.1600)
 -->
<!-- Title: ant::analysis::plot::cuttree::StackedHists_t&lt; Hist_t &gt; Pages: 1 -->
<svg width="140pt" height="114pt"
 viewBox="0.00 0.00 140.00 114.00" xmlns="http://www.w3.org/2000/svg" xmlns:xlink="http://www.w3.org/1999/xlink">
<g id="graph1" class="graph" transform="scale(1 1) rotate(0) translate(4 110)">
<title>ant::analysis::plot::cuttree::StackedHists_t&lt; Hist_t &gt;</title>
<polygon fill="white" stroke="white" points="-4,5 -4,-110 137,-110 137,5 -4,5"/>
<!-- Node1 -->
<g id="node1" class="node"><title>Node1</title>
<polygon fill="#bfbfbf" stroke="black" points="7,-58.5 7,-105.5 125,-105.5 125,-58.5 7,-58.5"/>
<text text-anchor="start" x="15" y="-92.5" font-family="Helvetica,sans-Serif" font-size="10.00">ant::analysis::plot</text>
<text text-anchor="start" x="15" y="-79.5" font-family="Helvetica,sans-Serif" font-size="10.00">::cuttree::StackedHists</text>
<text text-anchor="middle" x="66" y="-66.5" font-family="Helvetica,sans-Serif" font-size="10.00">_t&lt; Hist_t &gt;</text>
</g>
<!-- Node2 -->
<g id="node3" class="node"><title>Node2</title>
<a xlink:href="struct_m_c_true___splitter.html" target="_top" xlink:title="MCTrue_Splitter\&lt; Hist_t \&gt;">
<polygon fill="white" stroke="black" points="0,-0.5 0,-21.5 132,-21.5 132,-0.5 0,-0.5"/>
<text text-anchor="middle" x="66" y="-8.5" font-family="Helvetica,sans-Serif" font-size="10.00">MCTrue_Splitter&lt; Hist_t &gt;</text>
</a>
</g>
<!-- Node1&#45;&gt;Node2 -->
<g id="edge2" class="edge"><title>Node1&#45;&gt;Node2</title>
<path fill="none" stroke="midnightblue" d="M59.2563,-48.1273C59.1818,-38.5183 59.7679,-28.7499 61.0146,-21.6462"/>
<polygon fill="midnightblue" stroke="midnightblue" points="55.766,-48.4799 59.5965,-58.358 62.7621,-48.2472 55.766,-48.4799"/>
</g>
<!-- Node1&#45;&gt;Node2 -->
<g id="edge4" class="edge"><title>Node1&#45;&gt;Node2</title>
<path fill="none" stroke="midnightblue" d="M72.7437,-48.1273C72.8182,-38.5183 72.2321,-28.7499 70.9854,-21.6462"/>
<polygon fill="midnightblue" stroke="midnightblue" points="69.2379,-48.2472 72.4035,-58.358 76.234,-48.4799 69.2379,-48.2472"/>
</g>
</g>
</svg>
