<?xml version="1.0" encoding="UTF-8" standalone="no"?>
<!DOCTYPE svg PUBLIC "-//W3C//DTD SVG 1.1//EN"
 "http://www.w3.org/Graphics/SVG/1.1/DTD/svg11.dtd">
<!-- Generated by graphviz version 2.26.3 (20100126.1600)
 -->
<!-- Title: ant::analysis::physics::EtapOmegaG::Sig_t::Fit_t::BaseTree_t Pages: 1 -->
<svg width="456pt" height="122pt"
 viewBox="0.00 0.00 456.00 122.00" xmlns="http://www.w3.org/2000/svg" xmlns:xlink="http://www.w3.org/1999/xlink">
<g id="graph1" class="graph" transform="scale(1 1) rotate(0) translate(4 118)">
<title>ant::analysis::physics::EtapOmegaG::Sig_t::Fit_t::BaseTree_t</title>
<polygon fill="white" stroke="white" points="-4,5 -4,-118 453,-118 453,5 -4,5"/>
<!-- Node1 -->
<g id="node1" class="node"><title>Node1</title>
<polygon fill="#bfbfbf" stroke="black" points="122,-33.5 122,-80.5 250,-80.5 250,-33.5 122,-33.5"/>
<text text-anchor="start" x="130" y="-67.5" font-family="Helvetica,sans-Serif" font-size="10.00">ant::analysis::physics</text>
<text text-anchor="start" x="130" y="-54.5" font-family="Helvetica,sans-Serif" font-size="10.00">::EtapOmegaG::Sig_t::Fit</text>
<text text-anchor="middle" x="186" y="-41.5" font-family="Helvetica,sans-Serif" font-size="10.00">_t::BaseTree_t</text>
</g>
<!-- Node3 -->
<g id="node5" class="node"><title>Node3</title>
<a xlink:href="structant_1_1analysis_1_1physics_1_1_etap_omega_g_1_1_sig__t_1_1_omega_pi0__t_1_1_base_tree__t.html" target="_top" xlink:title="ant::analysis::physics\l::EtapOmegaG::Sig_t::OmegaPi0\l_t::BaseTree_t">
<polygon fill="white" stroke="black" points="286,-66.5 286,-113.5 448,-113.5 448,-66.5 286,-66.5"/>
<text text-anchor="start" x="294" y="-100.5" font-family="Helvetica,sans-Serif" font-size="10.00">ant::analysis::physics</text>
<text text-anchor="start" x="294" y="-87.5" font-family="Helvetica,sans-Serif" font-size="10.00">::EtapOmegaG::Sig_t::OmegaPi0</text>
<text text-anchor="middle" x="367" y="-74.5" font-family="Helvetica,sans-Serif" font-size="10.00">_t::BaseTree_t</text>
</a>
</g>
<!-- Node1&#45;&gt;Node3 -->
<g id="edge4" class="edge"><title>Node1&#45;&gt;Node3</title>
<path fill="none" stroke="midnightblue" d="M259.982,-70.4884C268.522,-72.0455 277.266,-73.6396 285.894,-75.2128"/>
<polygon fill="midnightblue" stroke="midnightblue" points="260.534,-67.0315 250.069,-68.681 259.279,-73.918 260.534,-67.0315"/>
</g>
<!-- Node4 -->
<g id="node7" class="node"><title>Node4</title>
<a xlink:href="structant_1_1analysis_1_1physics_1_1_etap_omega_g_1_1_sig__t_1_1_pi0__t_1_1_base_tree__t.html" target="_top" xlink:title="ant::analysis::physics\l::EtapOmegaG::Sig_t::Pi0\l_t::BaseTree_t">
<polygon fill="white" stroke="black" points="301.5,-0.5 301.5,-47.5 432.5,-47.5 432.5,-0.5 301.5,-0.5"/>
<text text-anchor="start" x="309.5" y="-34.5" font-family="Helvetica,sans-Serif" font-size="10.00">ant::analysis::physics</text>
<text text-anchor="start" x="309.5" y="-21.5" font-family="Helvetica,sans-Serif" font-size="10.00">::EtapOmegaG::Sig_t::Pi0</text>
<text text-anchor="middle" x="367" y="-8.5" font-family="Helvetica,sans-Serif" font-size="10.00">_t::BaseTree_t</text>
</a>
</g>
<!-- Node1&#45;&gt;Node4 -->
<g id="edge6" class="edge"><title>Node1&#45;&gt;Node4</title>
<path fill="none" stroke="midnightblue" d="M259.972,-43.5134C273.727,-41.0056 288.009,-38.4016 301.489,-35.944"/>
<polygon fill="midnightblue" stroke="midnightblue" points="259.279,-40.082 250.069,-45.319 260.534,-46.9685 259.279,-40.082"/>
</g>
<!-- Node2 -->
<g id="node2" class="node"><title>Node2</title>
<a xlink:href="structant_1_1_wrap_t_tree.html" target="_top" xlink:title="The WrapTTree struct simplifies TTree handling in physics classes. ">
<polygon fill="white" stroke="black" points="0.5,-46.5 0.5,-67.5 85.5,-67.5 85.5,-46.5 0.5,-46.5"/>
<text text-anchor="middle" x="43" y="-54.5" font-family="Helvetica,sans-Serif" font-size="10.00">ant::WrapTTree</text>
</a>
</g>
<!-- Node2&#45;&gt;Node1 -->
<g id="edge2" class="edge"><title>Node2&#45;&gt;Node1</title>
<path fill="none" stroke="midnightblue" d="M95.7043,-57C104.242,-57 113.164,-57 121.935,-57"/>
<polygon fill="midnightblue" stroke="midnightblue" points="95.5176,-53.5001 85.5175,-57 95.5175,-60.5001 95.5176,-53.5001"/>
</g>
</g>
</svg>
