<?xml version="1.0" encoding="UTF-8" standalone="no"?>
<!DOCTYPE svg PUBLIC "-//W3C//DTD SVG 1.1//EN"
 "http://www.w3.org/Graphics/SVG/1.1/DTD/svg11.dtd">
<!-- Generated by graphviz version 2.26.3 (20100126.1600)
 -->
<!-- Title: src/root&#45;addons/analysis_codes/symmetric_pi0.cc Pages: 1 -->
<svg width="919pt" height="334pt"
 viewBox="0.00 0.00 919.00 334.00" xmlns="http://www.w3.org/2000/svg" xmlns:xlink="http://www.w3.org/1999/xlink">
<g id="graph1" class="graph" transform="scale(1 1) rotate(0) translate(4 330)">
<title>src/root&#45;addons/analysis_codes/symmetric_pi0.cc</title>
<polygon fill="white" stroke="white" points="-4,5 -4,-330 916,-330 916,5 -4,5"/>
<!-- Node1 -->
<g id="node1" class="node"><title>Node1</title>
<polygon fill="#bfbfbf" stroke="black" points="293,-291 293,-325 421,-325 421,-291 293,-291"/>
<text text-anchor="start" x="301" y="-312" font-family="Helvetica,sans-Serif" font-size="10.00">src/root&#45;addons/analysis</text>
<text text-anchor="middle" x="357" y="-299" font-family="Helvetica,sans-Serif" font-size="10.00">_codes/symmetric_pi0.cc</text>
</g>
<!-- Node2 -->
<g id="node3" class="node"><title>Node2</title>
<a xlink:href="symmetric__pi0_8h.html" target="_top" xlink:title="symmetric_pi0.h">
<polygon fill="white" stroke="black" points="-0.5,-232.5 -0.5,-253.5 88.5,-253.5 88.5,-232.5 -0.5,-232.5"/>
<text text-anchor="middle" x="44" y="-240.5" font-family="Helvetica,sans-Serif" font-size="10.00">symmetric_pi0.h</text>
</a>
</g>
<!-- Node1&#45;&gt;Node2 -->
<g id="edge2" class="edge"><title>Node1&#45;&gt;Node2</title>
<path fill="none" stroke="midnightblue" d="M292.904,-294.689C235.777,-282.826 153.055,-265.647 98.9076,-254.403"/>
<polygon fill="midnightblue" stroke="midnightblue" points="99.3117,-250.912 88.8089,-252.305 97.8883,-257.766 99.3117,-250.912"/>
</g>
<!-- Node3 -->
<g id="node5" class="node"><title>Node3</title>
<polygon fill="white" stroke="#bfbfbf" points="106,-232.5 106,-253.5 156,-253.5 156,-232.5 106,-232.5"/>
<text text-anchor="middle" x="131" y="-240.5" font-family="Helvetica,sans-Serif" font-size="10.00">TTree.h</text>
</g>
<!-- Node1&#45;&gt;Node3 -->
<g id="edge4" class="edge"><title>Node1&#45;&gt;Node3</title>
<path fill="none" stroke="midnightblue" d="M294.13,-290.979C258.901,-281.287 213.959,-268.67 165.874,-254.197"/>
<polygon fill="midnightblue" stroke="midnightblue" points="166.802,-250.821 156.217,-251.278 164.777,-257.522 166.802,-250.821"/>
</g>
<!-- Node4 -->
<g id="node7" class="node"><title>Node4</title>
<polygon fill="white" stroke="#bfbfbf" points="174,-232.5 174,-253.5 218,-253.5 218,-232.5 174,-232.5"/>
<text text-anchor="middle" x="196" y="-240.5" font-family="Helvetica,sans-Serif" font-size="10.00">TH2.h</text>
</g>
<!-- Node1&#45;&gt;Node4 -->
<g id="edge6" class="edge"><title>Node1&#45;&gt;Node4</title>
<path fill="none" stroke="midnightblue" d="M314.699,-290.922C287.392,-279.898 252.452,-265.791 227.565,-255.744"/>
<polygon fill="midnightblue" stroke="midnightblue" points="228.811,-252.472 218.228,-251.974 226.19,-258.963 228.811,-252.472"/>
</g>
<!-- Node5 -->
<g id="node9" class="node"><title>Node5</title>
<polygon fill="white" stroke="#bfbfbf" points="235.5,-232.5 235.5,-253.5 318.5,-253.5 318.5,-232.5 235.5,-232.5"/>
<text text-anchor="middle" x="277" y="-240.5" font-family="Helvetica,sans-Serif" font-size="10.00">TGraphErrors.h</text>
</g>
<!-- Node1&#45;&gt;Node5 -->
<g id="edge8" class="edge"><title>Node1&#45;&gt;Node5</title>
<path fill="none" stroke="midnightblue" d="M335.981,-290.922C324.358,-281.479 309.952,-269.774 298.287,-260.296"/>
<polygon fill="midnightblue" stroke="midnightblue" points="300.325,-257.442 290.356,-253.852 295.91,-262.874 300.325,-257.442"/>
</g>
<!-- Node6 -->
<g id="node11" class="node"><title>Node6</title>
<polygon fill="white" stroke="#bfbfbf" points="336,-232.5 336,-253.5 378,-253.5 378,-232.5 336,-232.5"/>
<text text-anchor="middle" x="357" y="-240.5" font-family="Helvetica,sans-Serif" font-size="10.00">TF1.h</text>
</g>
<!-- Node1&#45;&gt;Node6 -->
<g id="edge10" class="edge"><title>Node1&#45;&gt;Node6</title>
<path fill="none" stroke="midnightblue" d="M357,-290.922C357,-282.67 357,-272.692 357,-263.982"/>
<polygon fill="midnightblue" stroke="midnightblue" points="360.5,-263.852 357,-253.852 353.5,-263.852 360.5,-263.852"/>
</g>
<!-- Node7 -->
<g id="node13" class="node"><title>Node7</title>
<polygon fill="white" stroke="#bfbfbf" points="395.5,-232.5 395.5,-253.5 460.5,-253.5 460.5,-232.5 395.5,-232.5"/>
<text text-anchor="middle" x="428" y="-240.5" font-family="Helvetica,sans-Serif" font-size="10.00">TCanvas.h</text>
</g>
<!-- Node1&#45;&gt;Node7 -->
<g id="edge12" class="edge"><title>Node1&#45;&gt;Node7</title>
<path fill="none" stroke="midnightblue" d="M375.654,-290.922C385.769,-281.662 398.259,-270.227 408.502,-260.85"/>
<polygon fill="midnightblue" stroke="midnightblue" points="411.134,-263.186 416.146,-253.852 406.407,-258.023 411.134,-263.186"/>
</g>
<!-- Node8 -->
<g id="node15" class="node"><title>Node8</title>
<polygon fill="white" stroke="#bfbfbf" points="477.5,-232.5 477.5,-253.5 548.5,-253.5 548.5,-232.5 477.5,-232.5"/>
<text text-anchor="middle" x="513" y="-240.5" font-family="Helvetica,sans-Serif" font-size="10.00">TDirectory.h</text>
</g>
<!-- Node1&#45;&gt;Node8 -->
<g id="edge14" class="edge"><title>Node1&#45;&gt;Node8</title>
<path fill="none" stroke="midnightblue" d="M397.987,-290.922C422.901,-280.541 454.372,-267.428 478.094,-257.544"/>
<polygon fill="midnightblue" stroke="midnightblue" points="479.535,-260.735 487.42,-253.658 476.843,-254.274 479.535,-260.735"/>
</g>
<!-- Node9 -->
<g id="node17" class="node"><title>Node9</title>
<polygon fill="white" stroke="#bfbfbf" points="565.5,-232.5 565.5,-253.5 612.5,-253.5 612.5,-232.5 565.5,-232.5"/>
<text text-anchor="middle" x="589" y="-240.5" font-family="Helvetica,sans-Serif" font-size="10.00">TCut.h</text>
</g>
<!-- Node1&#45;&gt;Node9 -->
<g id="edge16" class="edge"><title>Node1&#45;&gt;Node9</title>
<path fill="none" stroke="midnightblue" d="M421.265,-291.824C458.254,-282.241 505.783,-269.466 555.628,-254.309"/>
<polygon fill="midnightblue" stroke="midnightblue" points="556.756,-257.624 565.293,-251.348 554.706,-250.931 556.756,-257.624"/>
</g>
<!-- Node10 -->
<g id="node19" class="node"><title>Node10</title>
<a xlink:href="_tree_tools_8h.html" target="_top" xlink:title="TreeTools.h">
<polygon fill="white" stroke="black" points="630,-232.5 630,-253.5 698,-253.5 698,-232.5 630,-232.5"/>
<text text-anchor="middle" x="664" y="-240.5" font-family="Helvetica,sans-Serif" font-size="10.00">TreeTools.h</text>
</a>
</g>
<!-- Node1&#45;&gt;Node10 -->
<g id="edge18" class="edge"><title>Node1&#45;&gt;Node10</title>
<path fill="none" stroke="midnightblue" d="M421.205,-295.775C472.479,-285.804 546.386,-270.969 619.875,-254.188"/>
<polygon fill="midnightblue" stroke="midnightblue" points="620.806,-257.566 629.769,-251.917 619.239,-250.743 620.806,-257.566"/>
</g>
<!-- Node11 -->
<g id="node21" class="node"><title>Node11</title>
<polygon fill="white" stroke="#bfbfbf" points="604.5,-116.5 604.5,-137.5 645.5,-137.5 645.5,-116.5 604.5,-116.5"/>
<text text-anchor="middle" x="625" y="-124.5" font-family="Helvetica,sans-Serif" font-size="10.00">string</text>
</g>
<!-- Node10&#45;&gt;Node11 -->
<g id="edge20" class="edge"><title>Node10&#45;&gt;Node11</title>
<path fill="none" stroke="midnightblue" d="M652.24,-232.319C643.477,-223.536 632.17,-210.253 627,-196 621.39,-180.532 621.222,-161.809 622.273,-147.771"/>
<polygon fill="midnightblue" stroke="midnightblue" points="625.77,-147.971 623.296,-137.669 618.806,-147.266 625.77,-147.971"/>
</g>
<!-- Node12 -->
<g id="node23" class="node"><title>Node12</title>
<a xlink:href="_histogram_factories_8h.html" target="_top" xlink:title="analysis/plot/HistogramFactories.h">
<polygon fill="white" stroke="black" points="636,-174.5 636,-195.5 804,-195.5 804,-174.5 636,-174.5"/>
<text text-anchor="middle" x="720" y="-182.5" font-family="Helvetica,sans-Serif" font-size="10.00">analysis/plot/HistogramFactories.h</text>
</a>
</g>
<!-- Node10&#45;&gt;Node12 -->
<g id="edge22" class="edge"><title>Node10&#45;&gt;Node12</title>
<path fill="none" stroke="midnightblue" d="M674.271,-232.362C682.244,-224.104 693.475,-212.472 702.811,-202.803"/>
<polygon fill="midnightblue" stroke="midnightblue" points="705.366,-205.196 709.794,-195.571 700.33,-200.334 705.366,-205.196"/>
</g>
<!-- Node12&#45;&gt;Node11 -->
<g id="edge42" class="edge"><title>Node12&#45;&gt;Node11</title>
<path fill="none" stroke="midnightblue" d="M702.576,-174.362C688.113,-165.532 667.331,-152.844 650.916,-142.822"/>
<polygon fill="midnightblue" stroke="midnightblue" points="652.673,-139.794 642.314,-137.571 649.025,-145.769 652.673,-139.794"/>
</g>
<!-- Node13 -->
<g id="node25" class="node"><title>Node13</title>
<a xlink:href="interval_8h.html" target="_top" xlink:title="base/interval.h">
<polygon fill="white" stroke="black" points="680,-116.5 680,-137.5 760,-137.5 760,-116.5 680,-116.5"/>
<text text-anchor="middle" x="720" y="-124.5" font-family="Helvetica,sans-Serif" font-size="10.00">base/interval.h</text>
</a>
</g>
<!-- Node12&#45;&gt;Node13 -->
<g id="edge24" class="edge"><title>Node12&#45;&gt;Node13</title>
<path fill="none" stroke="midnightblue" d="M720,-174.362C720,-166.922 720,-156.743 720,-147.728"/>
<polygon fill="midnightblue" stroke="midnightblue" points="723.5,-147.571 720,-137.571 716.5,-147.571 723.5,-147.571"/>
</g>
<!-- Node14 -->
<g id="node27" class="node"><title>Node14</title>
<a xlink:href="printable_8h.html" target="_top" xlink:title="printable.h">
<polygon fill="white" stroke="black" points="509,-58.5 509,-79.5 571,-79.5 571,-58.5 509,-58.5"/>
<text text-anchor="middle" x="540" y="-66.5" font-family="Helvetica,sans-Serif" font-size="10.00">printable.h</text>
</a>
</g>
<!-- Node13&#45;&gt;Node14 -->
<g id="edge26" class="edge"><title>Node13&#45;&gt;Node14</title>
<path fill="none" stroke="midnightblue" d="M687.403,-116.497C657.472,-106.852 613.004,-92.5235 580.741,-82.1276"/>
<polygon fill="midnightblue" stroke="midnightblue" points="581.741,-78.7728 571.15,-79.0371 579.594,-85.4355 581.741,-78.7728"/>
</g>
<!-- Node17 -->
<g id="node33" class="node"><title>Node17</title>
<a xlink:href="types_8h.html" target="_top" xlink:title="types.h">
<polygon fill="white" stroke="black" points="588.5,-58.5 588.5,-79.5 637.5,-79.5 637.5,-58.5 588.5,-58.5"/>
<text text-anchor="middle" x="613" y="-66.5" font-family="Helvetica,sans-Serif" font-size="10.00">types.h</text>
</a>
</g>
<!-- Node13&#45;&gt;Node17 -->
<g id="edge32" class="edge"><title>Node13&#45;&gt;Node17</title>
<path fill="none" stroke="midnightblue" d="M700.375,-116.362C683.859,-107.409 660.026,-94.4908 641.422,-84.4064"/>
<polygon fill="midnightblue" stroke="midnightblue" points="642.96,-81.2592 632.501,-79.5707 639.625,-87.4132 642.96,-81.2592"/>
</g>
<!-- Node18 -->
<g id="node35" class="node"><title>Node18</title>
<polygon fill="white" stroke="#bfbfbf" points="655,-58.5 655,-79.5 711,-79.5 711,-58.5 655,-58.5"/>
<text text-anchor="middle" x="683" y="-66.5" font-family="Helvetica,sans-Serif" font-size="10.00">algorithm</text>
</g>
<!-- Node13&#45;&gt;Node18 -->
<g id="edge34" class="edge"><title>Node13&#45;&gt;Node18</title>
<path fill="none" stroke="midnightblue" d="M713.214,-116.362C708.207,-108.513 701.255,-97.6159 695.282,-88.2527"/>
<polygon fill="midnightblue" stroke="midnightblue" points="698.072,-86.1189 689.743,-79.5707 692.171,-89.8837 698.072,-86.1189"/>
</g>
<!-- Node19 -->
<g id="node37" class="node"><title>Node19</title>
<polygon fill="white" stroke="#bfbfbf" points="728.5,-58.5 728.5,-79.5 787.5,-79.5 787.5,-58.5 728.5,-58.5"/>
<text text-anchor="middle" x="758" y="-66.5" font-family="Helvetica,sans-Serif" font-size="10.00">stdexcept</text>
</g>
<!-- Node13&#45;&gt;Node19 -->
<g id="edge36" class="edge"><title>Node13&#45;&gt;Node19</title>
<path fill="none" stroke="midnightblue" d="M726.97,-116.362C732.166,-108.431 739.401,-97.3885 745.578,-87.9606"/>
<polygon fill="midnightblue" stroke="midnightblue" points="748.522,-89.8534 751.074,-79.5707 742.666,-86.0172 748.522,-89.8534"/>
</g>
<!-- Node20 -->
<g id="node39" class="node"><title>Node20</title>
<polygon fill="white" stroke="#bfbfbf" points="805,-58.5 805,-79.5 845,-79.5 845,-58.5 805,-58.5"/>
<text text-anchor="middle" x="825" y="-66.5" font-family="Helvetica,sans-Serif" font-size="10.00">limits</text>
</g>
<!-- Node13&#45;&gt;Node20 -->
<g id="edge38" class="edge"><title>Node13&#45;&gt;Node20</title>
<path fill="none" stroke="midnightblue" d="M739.259,-116.362C755.466,-107.409 778.853,-94.4908 797.109,-84.4064"/>
<polygon fill="midnightblue" stroke="midnightblue" points="798.802,-87.4696 805.863,-79.5707 795.418,-81.3422 798.802,-87.4696"/>
</g>
<!-- Node21 -->
<g id="node41" class="node"><title>Node21</title>
<polygon fill="white" stroke="#bfbfbf" points="862.5,-58.5 862.5,-79.5 911.5,-79.5 911.5,-58.5 862.5,-58.5"/>
<text text-anchor="middle" x="887" y="-66.5" font-family="Helvetica,sans-Serif" font-size="10.00">istream</text>
</g>
<!-- Node13&#45;&gt;Node21 -->
<g id="edge40" class="edge"><title>Node13&#45;&gt;Node21</title>
<path fill="none" stroke="midnightblue" d="M750.242,-116.497C779.123,-106.466 822.594,-91.3687 852.741,-80.8985"/>
<polygon fill="midnightblue" stroke="midnightblue" points="854.115,-84.1263 862.413,-77.5391 851.818,-77.5137 854.115,-84.1263"/>
</g>
<!-- Node15 -->
<g id="node29" class="node"><title>Node15</title>
<polygon fill="white" stroke="#bfbfbf" points="485,-0.5 485,-21.5 529,-21.5 529,-0.5 485,-0.5"/>
<text text-anchor="middle" x="507" y="-8.5" font-family="Helvetica,sans-Serif" font-size="10.00">vector</text>
</g>
<!-- Node14&#45;&gt;Node15 -->
<g id="edge28" class="edge"><title>Node14&#45;&gt;Node15</title>
<path fill="none" stroke="midnightblue" d="M533.947,-58.3619C529.528,-50.5949 523.41,-39.8426 518.121,-30.5458"/>
<polygon fill="midnightblue" stroke="midnightblue" points="521.002,-28.5315 513.014,-21.5707 514.918,-31.9932 521.002,-28.5315"/>
</g>
<!-- Node16 -->
<g id="node31" class="node"><title>Node16</title>
<polygon fill="white" stroke="#bfbfbf" points="547,-0.5 547,-21.5 599,-21.5 599,-0.5 547,-0.5"/>
<text text-anchor="middle" x="573" y="-8.5" font-family="Helvetica,sans-Serif" font-size="10.00">ostream</text>
</g>
<!-- Node14&#45;&gt;Node16 -->
<g id="edge30" class="edge"><title>Node14&#45;&gt;Node16</title>
<path fill="none" stroke="midnightblue" d="M546.053,-58.3619C550.472,-50.5949 556.59,-39.8426 561.879,-30.5458"/>
<polygon fill="midnightblue" stroke="midnightblue" points="565.082,-31.9932 566.986,-21.5707 558.998,-28.5315 565.082,-31.9932"/>
</g>
</g>
</svg>
