<?xml version="1.0" encoding="UTF-8" standalone="no"?>
<!DOCTYPE svg PUBLIC "-//W3C//DTD SVG 1.1//EN"
 "http://www.w3.org/Graphics/SVG/1.1/DTD/svg11.dtd">
<!-- Generated by graphviz version 2.26.3 (20100126.1600)
 -->
<!-- Title: src/base/tmpfile_t.h Pages: 1 -->
<svg width="1966pt" height="102pt"
 viewBox="0.00 0.00 1966.00 102.00" xmlns="http://www.w3.org/2000/svg" xmlns:xlink="http://www.w3.org/1999/xlink">
<g id="graph1" class="graph" transform="scale(1 1) rotate(0) translate(4 98)">
<title>src/base/tmpfile_t.h</title>
<polygon fill="white" stroke="white" points="-4,5 -4,-98 1963,-98 1963,5 -4,5"/>
<!-- Node1 -->
<g id="node1" class="node"><title>Node1</title>
<polygon fill="#bfbfbf" stroke="black" points="917.5,-72.5 917.5,-93.5 1020.5,-93.5 1020.5,-72.5 917.5,-72.5"/>
<text text-anchor="middle" x="969" y="-80.5" font-family="Helvetica,sans-Serif" font-size="10.00">src/base/tmpfile_t.h</text>
</g>
<!-- Node2 -->
<g id="node3" class="node"><title>Node2</title>
<a xlink:href="tmpfile__t_8cc.html" target="_top" xlink:title="src/base/tmpfile_t.cc">
<polygon fill="white" stroke="black" points="0,-7.5 0,-28.5 108,-28.5 108,-7.5 0,-7.5"/>
<text text-anchor="middle" x="54" y="-15.5" font-family="Helvetica,sans-Serif" font-size="10.00">src/base/tmpfile_t.cc</text>
</a>
</g>
<!-- Node1&#45;&gt;Node2 -->
<g id="edge2" class="edge"><title>Node1&#45;&gt;Node2</title>
<path fill="none" stroke="midnightblue" d="M907.044,-81.3769C737.617,-76.6524 269.125,-61.5973 117,-36 106.68,-34.2635 95.6409,-31.4504 85.7326,-28.5588"/>
<polygon fill="midnightblue" stroke="midnightblue" points="907.194,-84.8823 917.287,-81.6601 907.388,-77.885 907.194,-84.8823"/>
</g>
<!-- Node3 -->
<g id="node5" class="node"><title>Node3</title>
<a xlink:href="_test_ant_reader_8cc.html" target="_top" xlink:title="test/analysis/TestAntReader.cc">
<polygon fill="white" stroke="black" points="125.5,-7.5 125.5,-28.5 280.5,-28.5 280.5,-7.5 125.5,-7.5"/>
<text text-anchor="middle" x="203" y="-15.5" font-family="Helvetica,sans-Serif" font-size="10.00">test/analysis/TestAntReader.cc</text>
</a>
</g>
<!-- Node1&#45;&gt;Node3 -->
<g id="edge4" class="edge"><title>Node1&#45;&gt;Node3</title>
<path fill="none" stroke="midnightblue" d="M907.052,-81.5626C787.184,-78.1535 515.372,-67.3621 289,-36 275.401,-34.116 260.735,-31.3319 247.432,-28.5136"/>
<polygon fill="midnightblue" stroke="midnightblue" points="907.047,-85.0638 917.14,-81.8422 907.241,-78.0664 907.047,-85.0638"/>
</g>
<!-- Node4 -->
<g id="node7" class="node"><title>Node4</title>
<a xlink:href="_test_physics_manager_8cc.html" target="_top" xlink:title="test/analysis/TestPhysics\lManager.cc">
<polygon fill="white" stroke="black" points="298,-1 298,-35 428,-35 428,-1 298,-1"/>
<text text-anchor="start" x="306" y="-22" font-family="Helvetica,sans-Serif" font-size="10.00">test/analysis/TestPhysics</text>
<text text-anchor="middle" x="363" y="-9" font-family="Helvetica,sans-Serif" font-size="10.00">Manager.cc</text>
</a>
</g>
<!-- Node1&#45;&gt;Node4 -->
<g id="edge6" class="edge"><title>Node1&#45;&gt;Node4</title>
<path fill="none" stroke="midnightblue" d="M907.138,-80.5579C807.552,-75.9501 605.766,-63.8181 437,-36 434.13,-35.5269 431.207,-35.0022 428.26,-34.4383"/>
<polygon fill="midnightblue" stroke="midnightblue" points="907.172,-84.063 917.32,-81.0192 907.489,-77.0702 907.172,-84.063"/>
</g>
<!-- Node5 -->
<g id="node9" class="node"><title>Node5</title>
<a xlink:href="_test_physics_registry_8cc.html" target="_top" xlink:title="test/analysis/TestPhysics\lRegistry.cc">
<polygon fill="white" stroke="black" points="446,-1 446,-35 576,-35 576,-1 446,-1"/>
<text text-anchor="start" x="454" y="-22" font-family="Helvetica,sans-Serif" font-size="10.00">test/analysis/TestPhysics</text>
<text text-anchor="middle" x="511" y="-9" font-family="Helvetica,sans-Serif" font-size="10.00">Registry.cc</text>
</a>
</g>
<!-- Node1&#45;&gt;Node5 -->
<g id="edge8" class="edge"><title>Node1&#45;&gt;Node5</title>
<path fill="none" stroke="midnightblue" d="M907.106,-77.6695C830.931,-70.5938 697.806,-56.5506 585,-36 582.138,-35.4787 579.222,-34.914 576.281,-34.3173"/>
<polygon fill="midnightblue" stroke="midnightblue" points="907.191,-81.1919 917.469,-78.6216 907.831,-74.2213 907.191,-81.1919"/>
</g>
<!-- Node6 -->
<g id="node11" class="node"><title>Node6</title>
<a xlink:href="_test_slow_control_manager_8cc.html" target="_top" xlink:title="test/analysis/TestSlowControl\lManager.cc">
<polygon fill="white" stroke="black" points="594,-1 594,-35 742,-35 742,-1 594,-1"/>
<text text-anchor="start" x="602" y="-22" font-family="Helvetica,sans-Serif" font-size="10.00">test/analysis/TestSlowControl</text>
<text text-anchor="middle" x="668" y="-9" font-family="Helvetica,sans-Serif" font-size="10.00">Manager.cc</text>
</a>
</g>
<!-- Node1&#45;&gt;Node6 -->
<g id="edge10" class="edge"><title>Node1&#45;&gt;Node6</title>
<path fill="none" stroke="midnightblue" d="M910.156,-70.3338C866.284,-60.8851 804.89,-47.6528 751,-36 748.118,-35.3767 745.179,-34.741 742.211,-34.0986"/>
<polygon fill="midnightblue" stroke="midnightblue" points="909.565,-73.7866 920.078,-72.4704 911.039,-66.9435 909.565,-73.7866"/>
</g>
<!-- Node7 -->
<g id="node13" class="node"><title>Node7</title>
<a xlink:href="_test_std_ext_8cc.html" target="_top" xlink:title="test/base/TestStdExt.cc">
<polygon fill="white" stroke="black" points="759.5,-7.5 759.5,-28.5 882.5,-28.5 882.5,-7.5 759.5,-7.5"/>
<text text-anchor="middle" x="821" y="-15.5" font-family="Helvetica,sans-Serif" font-size="10.00">test/base/TestStdExt.cc</text>
</a>
</g>
<!-- Node1&#45;&gt;Node7 -->
<g id="edge12" class="edge"><title>Node1&#45;&gt;Node7</title>
<path fill="none" stroke="midnightblue" d="M935.649,-68.3527C908.122,-56.2628 869.713,-39.3942 845.098,-28.5835"/>
<polygon fill="midnightblue" stroke="midnightblue" points="934.329,-71.5953 944.892,-72.412 937.143,-65.1862 934.329,-71.5953"/>
</g>
<!-- Node8 -->
<g id="node15" class="node"><title>Node8</title>
<a xlink:href="_test_wrap_t_file_8cc.html" target="_top" xlink:title="test/base/TestWrapTFile.cc">
<polygon fill="white" stroke="black" points="900,-7.5 900,-28.5 1038,-28.5 1038,-7.5 900,-7.5"/>
<text text-anchor="middle" x="969" y="-15.5" font-family="Helvetica,sans-Serif" font-size="10.00">test/base/TestWrapTFile.cc</text>
</a>
</g>
<!-- Node1&#45;&gt;Node8 -->
<g id="edge14" class="edge"><title>Node1&#45;&gt;Node8</title>
<path fill="none" stroke="midnightblue" d="M969,-62.0142C969,-50.8307 969,-37.5583 969,-28.5337"/>
<polygon fill="midnightblue" stroke="midnightblue" points="965.5,-62.2665 969,-72.2666 972.5,-62.2666 965.5,-62.2665"/>
</g>
<!-- Node9 -->
<g id="node17" class="node"><title>Node9</title>
<a xlink:href="_test_calibration_modules_8cc.html" target="_top" xlink:title="test/calibration/TestCalibration\lModules.cc">
<polygon fill="white" stroke="black" points="1055.5,-1 1055.5,-35 1204.5,-35 1204.5,-1 1055.5,-1"/>
<text text-anchor="start" x="1063.5" y="-22" font-family="Helvetica,sans-Serif" font-size="10.00">test/calibration/TestCalibration</text>
<text text-anchor="middle" x="1130" y="-9" font-family="Helvetica,sans-Serif" font-size="10.00">Modules.cc</text>
</a>
</g>
<!-- Node1&#45;&gt;Node9 -->
<g id="edge16" class="edge"><title>Node1&#45;&gt;Node9</title>
<path fill="none" stroke="midnightblue" d="M1004.53,-68.6543C1029.08,-58.7423 1061.85,-45.5134 1087.74,-35.0604"/>
<polygon fill="midnightblue" stroke="midnightblue" points="1003.19,-65.4227 995.226,-72.412 1005.81,-71.9137 1003.19,-65.4227"/>
</g>
<!-- Node10 -->
<g id="node19" class="node"><title>Node10</title>
<a xlink:href="_test_data_manager_8cc.html" target="_top" xlink:title="test/calibration/TestData\lManager.cc">
<polygon fill="white" stroke="black" points="1222,-1 1222,-35 1346,-35 1346,-1 1222,-1"/>
<text text-anchor="start" x="1230" y="-22" font-family="Helvetica,sans-Serif" font-size="10.00">test/calibration/TestData</text>
<text text-anchor="middle" x="1284" y="-9" font-family="Helvetica,sans-Serif" font-size="10.00">Manager.cc</text>
</a>
</g>
<!-- Node1&#45;&gt;Node10 -->
<g id="edge18" class="edge"><title>Node1&#45;&gt;Node10</title>
<path fill="none" stroke="midnightblue" d="M1030.49,-72.175C1079.95,-63.2229 1151.15,-49.7841 1213,-36 1215.85,-35.3638 1218.77,-34.6965 1221.71,-34.0091"/>
<polygon fill="midnightblue" stroke="midnightblue" points="1029.81,-68.7416 1020.59,-73.96 1031.05,-75.6305 1029.81,-68.7416"/>
</g>
<!-- Node11 -->
<g id="node21" class="node"><title>Node11</title>
<a xlink:href="_test_t_calibration_data_8cc.html" target="_top" xlink:title="test/tree/TestTCalibration\lData.cc">
<polygon fill="white" stroke="black" points="1364,-1 1364,-35 1492,-35 1492,-1 1364,-1"/>
<text text-anchor="start" x="1372" y="-22" font-family="Helvetica,sans-Serif" font-size="10.00">test/tree/TestTCalibration</text>
<text text-anchor="middle" x="1428" y="-9" font-family="Helvetica,sans-Serif" font-size="10.00">Data.cc</text>
</a>
</g>
<!-- Node1&#45;&gt;Node11 -->
<g id="edge20" class="edge"><title>Node1&#45;&gt;Node11</title>
<path fill="none" stroke="midnightblue" d="M1031.23,-77.7522C1107.81,-70.7592 1241.64,-56.7988 1355,-36 1357.82,-35.4818 1360.7,-34.9197 1363.6,-34.3251"/>
<polygon fill="midnightblue" stroke="midnightblue" points="1030.45,-74.3077 1020.81,-78.6926 1031.08,-81.2793 1030.45,-74.3077"/>
</g>
<!-- Node12 -->
<g id="node23" class="node"><title>Node12</title>
<a xlink:href="_test_t_event_8cc.html" target="_top" xlink:title="test/tree/TestTEvent.cc">
<polygon fill="white" stroke="black" points="1510,-7.5 1510,-28.5 1630,-28.5 1630,-7.5 1510,-7.5"/>
<text text-anchor="middle" x="1570" y="-15.5" font-family="Helvetica,sans-Serif" font-size="10.00">test/tree/TestTEvent.cc</text>
</a>
</g>
<!-- Node1&#45;&gt;Node12 -->
<g id="edge22" class="edge"><title>Node1&#45;&gt;Node12</title>
<path fill="none" stroke="midnightblue" d="M1030.92,-80.8852C1130.58,-76.7311 1332.47,-65.2156 1501,-36 1511.86,-34.118 1523.5,-31.369 1534.08,-28.5833"/>
<polygon fill="midnightblue" stroke="midnightblue" points="1030.58,-77.3961 1020.73,-81.2991 1030.86,-84.3903 1030.58,-77.3961"/>
</g>
<!-- Node13 -->
<g id="node25" class="node"><title>Node13</title>
<a xlink:href="_test_raw_file_reader_8cc.html" target="_top" xlink:title="test/unpacker/TestRawFile\lReader.cc">
<polygon fill="white" stroke="black" points="1648,-1 1648,-35 1782,-35 1782,-1 1648,-1"/>
<text text-anchor="start" x="1656" y="-22" font-family="Helvetica,sans-Serif" font-size="10.00">test/unpacker/TestRawFile</text>
<text text-anchor="middle" x="1715" y="-9" font-family="Helvetica,sans-Serif" font-size="10.00">Reader.cc</text>
</a>
</g>
<!-- Node1&#45;&gt;Node13 -->
<g id="edge24" class="edge"><title>Node1&#45;&gt;Node13</title>
<path fill="none" stroke="midnightblue" d="M1030.92,-82.0115C1149.56,-79.3771 1416.89,-69.8636 1639,-36 1641.95,-35.5504 1644.95,-35.0451 1647.98,-34.4971"/>
<polygon fill="midnightblue" stroke="midnightblue" points="1030.51,-78.5193 1020.59,-82.2317 1030.66,-85.5177 1030.51,-78.5193"/>
</g>
<!-- Node14 -->
<g id="node27" class="node"><title>Node14</title>
<a xlink:href="_test_tree_writer_8cc.html" target="_top" xlink:title="test/unpacker/TestTreeWriter.cc">
<polygon fill="white" stroke="black" points="1800,-7.5 1800,-28.5 1958,-28.5 1958,-7.5 1800,-7.5"/>
<text text-anchor="middle" x="1879" y="-15.5" font-family="Helvetica,sans-Serif" font-size="10.00">test/unpacker/TestTreeWriter.cc</text>
</a>
</g>
<!-- Node1&#45;&gt;Node14 -->
<g id="edge26" class="edge"><title>Node1&#45;&gt;Node14</title>
<path fill="none" stroke="midnightblue" d="M1031.21,-80.6113C1196.53,-74.0768 1644.15,-55.1148 1791,-36 1805.07,-34.1683 1820.26,-31.3644 1833.99,-28.5109"/>
<polygon fill="midnightblue" stroke="midnightblue" points="1030.59,-77.1329 1020.74,-81.0236 1030.87,-84.1275 1030.59,-77.1329"/>
</g>
</g>
</svg>
