<?xml version="1.0" encoding="UTF-8" standalone="no"?>
<!DOCTYPE svg PUBLIC "-//W3C//DTD SVG 1.1//EN"
 "http://www.w3.org/Graphics/SVG/1.1/DTD/svg11.dtd">
<!-- Generated by graphviz version 2.26.3 (20100126.1600)
 -->
<!-- Title: src/base/std_ext/vector.h Pages: 1 -->
<svg width="1964pt" height="342pt"
 viewBox="0.00 0.00 1964.00 342.00" xmlns="http://www.w3.org/2000/svg" xmlns:xlink="http://www.w3.org/1999/xlink">
<g id="graph1" class="graph" transform="scale(1 1) rotate(0) translate(4 338)">
<title>src/base/std_ext/vector.h</title>
<polygon fill="white" stroke="white" points="-4,5 -4,-338 1961,-338 1961,5 -4,5"/>
<!-- Node1 -->
<g id="node1" class="node"><title>Node1</title>
<polygon fill="#bfbfbf" stroke="black" points="1250,-312.5 1250,-333.5 1378,-333.5 1378,-312.5 1250,-312.5"/>
<text text-anchor="middle" x="1314" y="-320.5" font-family="Helvetica,sans-Serif" font-size="10.00">src/base/std_ext/vector.h</text>
</g>
<!-- Node2 -->
<g id="node3" class="node"><title>Node2</title>
<a xlink:href="_ant_8cc.html" target="_top" xlink:title="Main Ant executable. ">
<polygon fill="white" stroke="black" points="825,-247.5 825,-268.5 897,-268.5 897,-247.5 825,-247.5"/>
<text text-anchor="middle" x="861" y="-255.5" font-family="Helvetica,sans-Serif" font-size="10.00">progs/Ant.cc</text>
</a>
</g>
<!-- Node1&#45;&gt;Node2 -->
<g id="edge2" class="edge"><title>Node1&#45;&gt;Node2</title>
<path fill="none" stroke="midnightblue" d="M1239.76,-320.363C1157.17,-316.071 1020.3,-304.894 906,-276 898.658,-274.144 890.917,-271.368 883.964,-268.549"/>
<polygon fill="midnightblue" stroke="midnightblue" points="1239.64,-323.861 1249.8,-320.865 1239.99,-316.87 1239.64,-323.861"/>
</g>
<!-- Node3 -->
<g id="node5" class="node"><title>Node3</title>
<a xlink:href="_pluto_reader_8cc.html" target="_top" xlink:title="src/analysis/input\l/pluto/PlutoReader.cc">
<polygon fill="white" stroke="black" points="914.5,-241 914.5,-275 1025.5,-275 1025.5,-241 914.5,-241"/>
<text text-anchor="start" x="922.5" y="-262" font-family="Helvetica,sans-Serif" font-size="10.00">src/analysis/input</text>
<text text-anchor="middle" x="970" y="-249" font-family="Helvetica,sans-Serif" font-size="10.00">/pluto/PlutoReader.cc</text>
</a>
</g>
<!-- Node1&#45;&gt;Node3 -->
<g id="edge4" class="edge"><title>Node1&#45;&gt;Node3</title>
<path fill="none" stroke="midnightblue" d="M1240,-312.804C1183.31,-304.457 1103.31,-291.517 1034,-276 1031.3,-275.395 1028.54,-274.745 1025.76,-274.064"/>
<polygon fill="midnightblue" stroke="midnightblue" points="1239.55,-316.276 1249.95,-314.258 1240.57,-309.349 1239.55,-316.276"/>
</g>
<!-- Node4 -->
<g id="node7" class="node"><title>Node4</title>
<a xlink:href="analysis_2physics_2calibration_2_p_i_d___energy_8cc.html" target="_top" xlink:title="src/analysis/physics\l/calibration/PID_Energy.cc">
<polygon fill="white" stroke="black" points="1043,-241 1043,-275 1177,-275 1177,-241 1043,-241"/>
<text text-anchor="start" x="1051" y="-262" font-family="Helvetica,sans-Serif" font-size="10.00">src/analysis/physics</text>
<text text-anchor="middle" x="1110" y="-249" font-family="Helvetica,sans-Serif" font-size="10.00">/calibration/PID_Energy.cc</text>
</a>
</g>
<!-- Node1&#45;&gt;Node4 -->
<g id="edge6" class="edge"><title>Node1&#45;&gt;Node4</title>
<path fill="none" stroke="midnightblue" d="M1271.03,-309.307C1239.71,-299.329 1197.08,-285.745 1163.54,-275.06"/>
<polygon fill="midnightblue" stroke="midnightblue" points="1270.18,-312.711 1280.77,-312.412 1272.3,-306.041 1270.18,-312.711"/>
</g>
<!-- Node5 -->
<g id="node9" class="node"><title>Node5</title>
<a xlink:href="analysis_2physics_2calibration_2_t_a_p_s___energy_8cc.html" target="_top" xlink:title="src/analysis/physics\l/calibration/TAPS_Energy.cc">
<polygon fill="white" stroke="black" points="-0.5,-169 -0.5,-203 142.5,-203 142.5,-169 -0.5,-169"/>
<text text-anchor="start" x="7.5" y="-190" font-family="Helvetica,sans-Serif" font-size="10.00">src/analysis/physics</text>
<text text-anchor="middle" x="71" y="-177" font-family="Helvetica,sans-Serif" font-size="10.00">/calibration/TAPS_Energy.cc</text>
</a>
</g>
<!-- Node1&#45;&gt;Node5 -->
<g id="edge8" class="edge"><title>Node1&#45;&gt;Node5</title>
<path fill="none" stroke="midnightblue" d="M1280.01,-308.014C1262.59,-299.66 1241.43,-288.441 1224,-276 1205.06,-262.486 1207.46,-248.988 1186,-240 1080.38,-195.759 269.666,-217.914 156,-204 151.658,-203.468 147.209,-202.826 142.733,-202.106"/>
<polygon fill="midnightblue" stroke="midnightblue" points="1278.72,-311.273 1289.26,-312.35 1281.69,-304.935 1278.72,-311.273"/>
</g>
<!-- Node6 -->
<g id="node11" class="node"><title>Node6</title>
<a xlink:href="etaprime__omega__gamma_8cc.html" target="_top" xlink:title="src/analysis/physics\l/etaprime/etaprime_omega\l_gamma.cc">
<polygon fill="white" stroke="black" points="1824,-0.5 1824,-47.5 1956,-47.5 1956,-0.5 1824,-0.5"/>
<text text-anchor="start" x="1832" y="-34.5" font-family="Helvetica,sans-Serif" font-size="10.00">src/analysis/physics</text>
<text text-anchor="start" x="1832" y="-21.5" font-family="Helvetica,sans-Serif" font-size="10.00">/etaprime/etaprime_omega</text>
<text text-anchor="middle" x="1890" y="-8.5" font-family="Helvetica,sans-Serif" font-size="10.00">_gamma.cc</text>
</a>
</g>
<!-- Node1&#45;&gt;Node6 -->
<g id="edge10" class="edge"><title>Node1&#45;&gt;Node6</title>
<path fill="none" stroke="midnightblue" d="M1321.4,-302.947C1329.87,-283.181 1345.76,-253.97 1370,-240 1471.32,-181.605 1804.86,-278.494 1895,-204 1936.62,-169.602 1924.21,-137.023 1914,-84 1911.6,-71.5512 1906.65,-58.402 1901.86,-47.5962"/>
<polygon fill="midnightblue" stroke="midnightblue" points="1318.13,-301.707 1317.65,-312.291 1324.63,-304.316 1318.13,-301.707"/>
</g>
<!-- Node7 -->
<g id="node13" class="node"><title>Node7</title>
<a xlink:href="combinatorics_8h.html" target="_top" xlink:title="src/analysis/utils\l/combinatorics.h">
<polygon fill="white" stroke="black" points="1233,-241 1233,-275 1323,-275 1323,-241 1233,-241"/>
<text text-anchor="start" x="1241" y="-262" font-family="Helvetica,sans-Serif" font-size="10.00">src/analysis/utils</text>
<text text-anchor="middle" x="1278" y="-249" font-family="Helvetica,sans-Serif" font-size="10.00">/combinatorics.h</text>
</a>
</g>
<!-- Node1&#45;&gt;Node7 -->
<g id="edge12" class="edge"><title>Node1&#45;&gt;Node7</title>
<path fill="none" stroke="midnightblue" d="M1303.08,-303.286C1298.1,-294.298 1292.27,-283.759 1287.48,-275.11"/>
<polygon fill="midnightblue" stroke="midnightblue" points="1300.15,-305.214 1308.06,-312.267 1306.27,-301.823 1300.15,-305.214"/>
</g>
<!-- Node35 -->
<g id="node74" class="node"><title>Node35</title>
<a xlink:href="_wrap_t_tree_8cc.html" target="_top" xlink:title="src/base/WrapTTree.cc">
<polygon fill="white" stroke="black" points="1378.5,-247.5 1378.5,-268.5 1497.5,-268.5 1497.5,-247.5 1378.5,-247.5"/>
<text text-anchor="middle" x="1438" y="-255.5" font-family="Helvetica,sans-Serif" font-size="10.00">src/base/WrapTTree.cc</text>
</a>
</g>
<!-- Node1&#45;&gt;Node35 -->
<g id="edge78" class="edge"><title>Node1&#45;&gt;Node35</title>
<path fill="none" stroke="midnightblue" d="M1343.16,-307.715C1366.13,-295.675 1397.55,-279.205 1417.81,-268.584"/>
<polygon fill="midnightblue" stroke="midnightblue" points="1341.43,-304.669 1334.2,-312.412 1344.68,-310.869 1341.43,-304.669"/>
</g>
<!-- Node36 -->
<g id="node76" class="node"><title>Node36</title>
<a xlink:href="_c_b_8cc.html" target="_top" xlink:title="src/expconfig/detectors\l/CB.cc">
<polygon fill="white" stroke="black" points="1514.5,-241 1514.5,-275 1633.5,-275 1633.5,-241 1514.5,-241"/>
<text text-anchor="start" x="1522.5" y="-262" font-family="Helvetica,sans-Serif" font-size="10.00">src/expconfig/detectors</text>
<text text-anchor="middle" x="1574" y="-249" font-family="Helvetica,sans-Serif" font-size="10.00">/CB.cc</text>
</a>
</g>
<!-- Node1&#45;&gt;Node36 -->
<g id="edge80" class="edge"><title>Node1&#45;&gt;Node36</title>
<path fill="none" stroke="midnightblue" d="M1367.87,-310.098C1406.39,-300.802 1459.45,-287.859 1506,-276 1508.72,-275.307 1511.5,-274.593 1514.31,-273.867"/>
<polygon fill="midnightblue" stroke="midnightblue" points="1366.81,-306.754 1357.91,-312.499 1368.45,-313.559 1366.81,-306.754"/>
</g>
<!-- Node37 -->
<g id="node78" class="node"><title>Node37</title>
<a xlink:href="_reconstruct_8cc.html" target="_top" xlink:title="src/reconstruct/Reconstruct.cc">
<polygon fill="white" stroke="black" points="1651,-247.5 1651,-268.5 1803,-268.5 1803,-247.5 1651,-247.5"/>
<text text-anchor="middle" x="1727" y="-255.5" font-family="Helvetica,sans-Serif" font-size="10.00">src/reconstruct/Reconstruct.cc</text>
</a>
</g>
<!-- Node1&#45;&gt;Node37 -->
<g id="edge82" class="edge"><title>Node1&#45;&gt;Node37</title>
<path fill="none" stroke="midnightblue" d="M1388.3,-313.784C1454.92,-305.179 1555.26,-291.382 1642,-276 1654.33,-273.814 1667.6,-271.153 1679.9,-268.556"/>
<polygon fill="midnightblue" stroke="midnightblue" points="1387.78,-310.321 1378.31,-315.067 1388.67,-317.264 1387.78,-310.321"/>
</g>
<!-- Node38 -->
<g id="node80" class="node"><title>Node38</title>
<a xlink:href="_test_std_ext_8cc.html" target="_top" xlink:title="test/base/TestStdExt.cc">
<polygon fill="white" stroke="black" points="1820.5,-247.5 1820.5,-268.5 1943.5,-268.5 1943.5,-247.5 1820.5,-247.5"/>
<text text-anchor="middle" x="1882" y="-255.5" font-family="Helvetica,sans-Serif" font-size="10.00">test/base/TestStdExt.cc</text>
</a>
</g>
<!-- Node1&#45;&gt;Node38 -->
<g id="edge84" class="edge"><title>Node1&#45;&gt;Node38</title>
<path fill="none" stroke="midnightblue" d="M1388.18,-319.654C1485.91,-314.413 1662.86,-302.045 1812,-276 1823,-274.079 1834.81,-271.318 1845.54,-268.533"/>
<polygon fill="midnightblue" stroke="midnightblue" points="1387.91,-316.163 1378.1,-320.184 1388.27,-323.154 1387.91,-316.163"/>
</g>
<!-- Node7&#45;&gt;Node5 -->
<g id="edge18" class="edge"><title>Node7&#45;&gt;Node5</title>
<path fill="none" stroke="midnightblue" d="M1222.86,-240.696C1221.57,-240.445 1220.28,-240.213 1219,-240 752.704,-162.363 625.244,-261.185 156,-204 151.658,-203.471 147.208,-202.831 142.732,-202.111"/>
<polygon fill="midnightblue" stroke="midnightblue" points="1222.35,-244.167 1232.87,-242.924 1223.87,-237.334 1222.35,-244.167"/>
</g>
<!-- Node7&#45;&gt;Node6 -->
<g id="edge26" class="edge"><title>Node7&#45;&gt;Node6</title>
<path fill="none" stroke="midnightblue" d="M1333.15,-240.754C1334.44,-240.486 1335.73,-240.234 1337,-240 1395.49,-229.253 1828.16,-245.247 1871,-204 1913.22,-163.352 1904.01,-86.3969 1895.89,-47.6088"/>
<polygon fill="midnightblue" stroke="midnightblue" points="1332.1,-237.404 1323.16,-243.081 1333.69,-244.221 1332.1,-237.404"/>
</g>
<!-- Node8 -->
<g id="node15" class="node"><title>Node8</title>
<a xlink:href="process_etap_tree_8cc.html" target="_top" xlink:title="progs/processEtapTree.cc">
<polygon fill="white" stroke="black" points="1305.5,-175.5 1305.5,-196.5 1436.5,-196.5 1436.5,-175.5 1305.5,-175.5"/>
<text text-anchor="middle" x="1371" y="-183.5" font-family="Helvetica,sans-Serif" font-size="10.00">progs/processEtapTree.cc</text>
</a>
</g>
<!-- Node7&#45;&gt;Node8 -->
<g id="edge14" class="edge"><title>Node7&#45;&gt;Node8</title>
<path fill="none" stroke="midnightblue" d="M1308.32,-234.527C1324.79,-221.775 1344.36,-206.626 1357.19,-196.688"/>
<polygon fill="midnightblue" stroke="midnightblue" points="1305.8,-232.048 1300.04,-240.937 1310.09,-237.583 1305.8,-232.048"/>
</g>
<!-- Node9 -->
<g id="node17" class="node"><title>Node9</title>
<a xlink:href="analysis_2physics_2calibration_2_c_b___energy_8cc.html" target="_top" xlink:title="src/analysis/physics\l/calibration/CB_Energy.cc">
<polygon fill="white" stroke="black" points="1453.5,-169 1453.5,-203 1584.5,-203 1584.5,-169 1453.5,-169"/>
<text text-anchor="start" x="1461.5" y="-190" font-family="Helvetica,sans-Serif" font-size="10.00">src/analysis/physics</text>
<text text-anchor="middle" x="1519" y="-177" font-family="Helvetica,sans-Serif" font-size="10.00">/calibration/CB_Energy.cc</text>
</a>
</g>
<!-- Node7&#45;&gt;Node9 -->
<g id="edge16" class="edge"><title>Node7&#45;&gt;Node9</title>
<path fill="none" stroke="midnightblue" d="M1332.72,-241.29C1334.16,-240.855 1335.59,-240.424 1337,-240 1378.5,-227.512 1425.39,-213.605 1461.18,-203.032"/>
<polygon fill="midnightblue" stroke="midnightblue" points="1331.64,-237.959 1323.09,-244.206 1333.67,-244.658 1331.64,-237.959"/>
</g>
<!-- Node10 -->
<g id="node20" class="node"><title>Node10</title>
<a xlink:href="_data_overview_8cc.html" target="_top" xlink:title="src/analysis/physics\l/common/DataOverview.cc">
<polygon fill="white" stroke="black" points="1602,-169 1602,-203 1738,-203 1738,-169 1602,-169"/>
<text text-anchor="start" x="1610" y="-190" font-family="Helvetica,sans-Serif" font-size="10.00">src/analysis/physics</text>
<text text-anchor="middle" x="1670" y="-177" font-family="Helvetica,sans-Serif" font-size="10.00">/common/DataOverview.cc</text>
</a>
</g>
<!-- Node7&#45;&gt;Node10 -->
<g id="edge20" class="edge"><title>Node7&#45;&gt;Node10</title>
<path fill="none" stroke="midnightblue" d="M1333.17,-240.879C1334.46,-240.574 1335.74,-240.28 1337,-240 1449.18,-215.16 1480.06,-225.098 1593,-204 1595.83,-203.471 1598.72,-202.907 1601.63,-202.318"/>
<polygon fill="midnightblue" stroke="midnightblue" points="1332.05,-237.554 1323.23,-243.421 1333.78,-244.336 1332.05,-237.554"/>
</g>
<!-- Node11 -->
<g id="node22" class="node"><title>Node11</title>
<a xlink:href="_i_m_plots_8cc.html" target="_top" xlink:title="src/analysis/physics\l/common/IMPlots.cc">
<polygon fill="white" stroke="black" points="1755.5,-169 1755.5,-203 1862.5,-203 1862.5,-169 1755.5,-169"/>
<text text-anchor="start" x="1763.5" y="-190" font-family="Helvetica,sans-Serif" font-size="10.00">src/analysis/physics</text>
<text text-anchor="middle" x="1809" y="-177" font-family="Helvetica,sans-Serif" font-size="10.00">/common/IMPlots.cc</text>
</a>
</g>
<!-- Node7&#45;&gt;Node11 -->
<g id="edge22" class="edge"><title>Node7&#45;&gt;Node11</title>
<path fill="none" stroke="midnightblue" d="M1333.16,-240.789C1334.45,-240.511 1335.73,-240.247 1337,-240 1516.57,-205.121 1567.2,-237.66 1747,-204 1749.75,-203.484 1752.56,-202.898 1755.39,-202.259"/>
<polygon fill="midnightblue" stroke="midnightblue" points="1332.09,-237.446 1323.18,-243.176 1333.72,-244.253 1332.09,-237.446"/>
</g>
<!-- Node12 -->
<g id="node24" class="node"><title>Node12</title>
<a xlink:href="etaprime-3pi0_8cc.html" target="_top" xlink:title="src/analysis/physics\l/etaprime/etaprime&#45;3pi0.cc">
<polygon fill="white" stroke="black" points="1036,-7 1036,-41 1168,-41 1168,-7 1036,-7"/>
<text text-anchor="start" x="1044" y="-28" font-family="Helvetica,sans-Serif" font-size="10.00">src/analysis/physics</text>
<text text-anchor="middle" x="1102" y="-15" font-family="Helvetica,sans-Serif" font-size="10.00">/etaprime/etaprime&#45;3pi0.cc</text>
</a>
</g>
<!-- Node7&#45;&gt;Node12 -->
<g id="edge24" class="edge"><title>Node7&#45;&gt;Node12</title>
<path fill="none" stroke="midnightblue" d="M1283.07,-230.698C1288.36,-193.479 1291.87,-126.587 1259,-84 1237.25,-55.8173 1200.57,-40.8696 1168.14,-32.9428"/>
<polygon fill="midnightblue" stroke="midnightblue" points="1279.58,-230.379 1281.49,-240.8 1286.5,-231.464 1279.58,-230.379"/>
</g>
<!-- Node13 -->
<g id="node27" class="node"><title>Node13</title>
<a xlink:href="_geo_acceptance_8cc.html" target="_top" xlink:title="src/analysis/physics\l/omega/GeoAcceptance.cc">
<polygon fill="white" stroke="black" points="521.5,-169 521.5,-203 656.5,-203 656.5,-169 521.5,-169"/>
<text text-anchor="start" x="529.5" y="-190" font-family="Helvetica,sans-Serif" font-size="10.00">src/analysis/physics</text>
<text text-anchor="middle" x="589" y="-177" font-family="Helvetica,sans-Serif" font-size="10.00">/omega/GeoAcceptance.cc</text>
</a>
</g>
<!-- Node7&#45;&gt;Node13 -->
<g id="edge28" class="edge"><title>Node7&#45;&gt;Node13</title>
<path fill="none" stroke="midnightblue" d="M1222.85,-240.75C1221.56,-240.483 1220.27,-240.233 1219,-240 976.267,-195.704 909.018,-240.561 665,-204 662.318,-203.598 659.591,-203.149 656.843,-202.663"/>
<polygon fill="midnightblue" stroke="midnightblue" points="1222.31,-244.217 1232.84,-243.07 1223.89,-237.399 1222.31,-244.217"/>
</g>
<!-- Node14 -->
<g id="node29" class="node"><title>Node14</title>
<a xlink:href="omega_8cc.html" target="_top" xlink:title="src/analysis/physics\l/omega/omega.cc">
<polygon fill="white" stroke="black" points="44,-7 44,-41 150,-41 150,-7 44,-7"/>
<text text-anchor="start" x="52" y="-28" font-family="Helvetica,sans-Serif" font-size="10.00">src/analysis/physics</text>
<text text-anchor="middle" x="97" y="-15" font-family="Helvetica,sans-Serif" font-size="10.00">/omega/omega.cc</text>
</a>
</g>
<!-- Node7&#45;&gt;Node14 -->
<g id="edge30" class="edge"><title>Node7&#45;&gt;Node14</title>
<path fill="none" stroke="midnightblue" d="M1222.86,-240.726C1221.56,-240.466 1220.28,-240.224 1219,-240 992.313,-200.263 386.165,-250.71 189,-132 151.229,-109.259 121.299,-65.5177 106.711,-41.2622"/>
<polygon fill="midnightblue" stroke="midnightblue" points="1222.33,-244.195 1232.85,-243.004 1223.88,-237.37 1222.33,-244.195"/>
</g>
<!-- Node15 -->
<g id="node31" class="node"><title>Node15</title>
<a xlink:href="_rare_pion_8cc.html" target="_top" xlink:title="src/analysis/physics\l/pi0/RarePion.cc">
<polygon fill="white" stroke="black" points="782,-169 782,-203 888,-203 888,-169 782,-169"/>
<text text-anchor="start" x="790" y="-190" font-family="Helvetica,sans-Serif" font-size="10.00">src/analysis/physics</text>
<text text-anchor="middle" x="835" y="-177" font-family="Helvetica,sans-Serif" font-size="10.00">/pi0/RarePion.cc</text>
</a>
</g>
<!-- Node7&#45;&gt;Node15 -->
<g id="edge32" class="edge"><title>Node7&#45;&gt;Node15</title>
<path fill="none" stroke="midnightblue" d="M1222.84,-240.83C1221.55,-240.539 1220.27,-240.262 1219,-240 1077.98,-210.865 1038.22,-232.178 897,-204 894.142,-203.43 891.225,-202.79 888.291,-202.1"/>
<polygon fill="midnightblue" stroke="midnightblue" points="1222.25,-244.291 1232.8,-243.288 1223.93,-237.495 1222.25,-244.291"/>
</g>
<!-- Node16 -->
<g id="node33" class="node"><title>Node16</title>
<a xlink:href="_test_a_p_l_c_o_n_8cc.html" target="_top" xlink:title="src/analysis/physics\l/test/TestAPLCON.cc">
<polygon fill="white" stroke="black" points="905.5,-169 905.5,-203 1018.5,-203 1018.5,-169 905.5,-169"/>
<text text-anchor="start" x="913.5" y="-190" font-family="Helvetica,sans-Serif" font-size="10.00">src/analysis/physics</text>
<text text-anchor="middle" x="962" y="-177" font-family="Helvetica,sans-Serif" font-size="10.00">/test/TestAPLCON.cc</text>
</a>
</g>
<!-- Node7&#45;&gt;Node16 -->
<g id="edge34" class="edge"><title>Node7&#45;&gt;Node16</title>
<path fill="none" stroke="midnightblue" d="M1222.81,-240.958C1221.53,-240.629 1220.26,-240.309 1219,-240 1134.68,-219.301 1111.58,-223.603 1027,-204 1024.26,-203.365 1021.47,-202.692 1018.65,-201.992"/>
<polygon fill="midnightblue" stroke="midnightblue" points="1222.16,-244.407 1232.72,-243.633 1223.98,-237.649 1222.16,-244.407"/>
</g>
<!-- Node17 -->
<g id="node35" class="node"><title>Node17</title>
<a xlink:href="_test_physics_8cc.html" target="_top" xlink:title="src/analysis/physics\l/test/TestPhysics.cc">
<polygon fill="white" stroke="black" points="1035.5,-169 1035.5,-203 1142.5,-203 1142.5,-169 1035.5,-169"/>
<text text-anchor="start" x="1043.5" y="-190" font-family="Helvetica,sans-Serif" font-size="10.00">src/analysis/physics</text>
<text text-anchor="middle" x="1089" y="-177" font-family="Helvetica,sans-Serif" font-size="10.00">/test/TestPhysics.cc</text>
</a>
</g>
<!-- Node7&#45;&gt;Node17 -->
<g id="edge36" class="edge"><title>Node7&#45;&gt;Node17</title>
<path fill="none" stroke="midnightblue" d="M1223.79,-237.35C1195.29,-226.491 1160.77,-213.34 1133.8,-203.065"/>
<polygon fill="midnightblue" stroke="midnightblue" points="1222.62,-240.648 1233.21,-240.937 1225.11,-234.106 1222.62,-240.648"/>
</g>
<!-- Node18 -->
<g id="node37" class="node"><title>Node18</title>
<a xlink:href="_fitter_8h.html" target="_top" xlink:title="src/analysis/utils\l/Fitter.h">
<polygon fill="white" stroke="black" points="674,-169 674,-203 764,-203 764,-169 674,-169"/>
<text text-anchor="start" x="682" y="-190" font-family="Helvetica,sans-Serif" font-size="10.00">src/analysis/utils</text>
<text text-anchor="middle" x="719" y="-177" font-family="Helvetica,sans-Serif" font-size="10.00">/Fitter.h</text>
</a>
</g>
<!-- Node7&#45;&gt;Node18 -->
<g id="edge38" class="edge"><title>Node7&#45;&gt;Node18</title>
<path fill="none" stroke="midnightblue" d="M1222.85,-240.777C1221.56,-240.502 1220.27,-240.242 1219,-240 1023.65,-202.769 967.857,-243.732 773,-204 770.095,-203.408 767.13,-202.707 764.157,-201.931"/>
<polygon fill="midnightblue" stroke="midnightblue" points="1222.29,-244.242 1232.83,-243.143 1223.91,-237.431 1222.29,-244.242"/>
</g>
<!-- Node34 -->
<g id="node72" class="node"><title>Node34</title>
<a xlink:href="particle__tools_8cc.html" target="_top" xlink:title="src/analysis/utils\l/particle_tools.cc">
<polygon fill="white" stroke="black" points="1159.5,-169 1159.5,-203 1250.5,-203 1250.5,-169 1159.5,-169"/>
<text text-anchor="start" x="1167.5" y="-190" font-family="Helvetica,sans-Serif" font-size="10.00">src/analysis/utils</text>
<text text-anchor="middle" x="1205" y="-177" font-family="Helvetica,sans-Serif" font-size="10.00">/particle_tools.cc</text>
</a>
</g>
<!-- Node7&#45;&gt;Node34 -->
<g id="edge76" class="edge"><title>Node7&#45;&gt;Node34</title>
<path fill="none" stroke="midnightblue" d="M1253.57,-233.908C1243.37,-223.844 1231.75,-212.38 1222.43,-203.19"/>
<polygon fill="midnightblue" stroke="midnightblue" points="1251.12,-236.407 1260.7,-240.937 1256.04,-231.423 1251.12,-236.407"/>
</g>
<!-- Node19 -->
<g id="node39" class="node"><title>Node19</title>
<a xlink:href="etaprime-3pi0_8h.html" target="_top" xlink:title="src/analysis/physics\l/etaprime/etaprime&#45;3pi0.h">
<polygon fill="white" stroke="black" points="849.5,-91 849.5,-125 976.5,-125 976.5,-91 849.5,-91"/>
<text text-anchor="start" x="857.5" y="-112" font-family="Helvetica,sans-Serif" font-size="10.00">src/analysis/physics</text>
<text text-anchor="middle" x="913" y="-99" font-family="Helvetica,sans-Serif" font-size="10.00">/etaprime/etaprime&#45;3pi0.h</text>
</a>
</g>
<!-- Node18&#45;&gt;Node19 -->
<g id="edge40" class="edge"><title>Node18&#45;&gt;Node19</title>
<path fill="none" stroke="midnightblue" d="M770.966,-165.106C802.118,-152.581 841.234,-136.854 870.525,-125.078"/>
<polygon fill="midnightblue" stroke="midnightblue" points="769.547,-161.905 761.574,-168.883 772.158,-168.399 769.547,-161.905"/>
</g>
<!-- Node20 -->
<g id="node42" class="node"><title>Node20</title>
<a xlink:href="etaprime__omega__gamma_8h.html" target="_top" xlink:title="src/analysis/physics\l/etaprime/etaprime_omega\l_gamma.h">
<polygon fill="white" stroke="black" points="1489,-84.5 1489,-131.5 1621,-131.5 1621,-84.5 1489,-84.5"/>
<text text-anchor="start" x="1497" y="-118.5" font-family="Helvetica,sans-Serif" font-size="10.00">src/analysis/physics</text>
<text text-anchor="start" x="1497" y="-105.5" font-family="Helvetica,sans-Serif" font-size="10.00">/etaprime/etaprime_omega</text>
<text text-anchor="middle" x="1555" y="-92.5" font-family="Helvetica,sans-Serif" font-size="10.00">_gamma.h</text>
</a>
</g>
<!-- Node18&#45;&gt;Node20 -->
<g id="edge44" class="edge"><title>Node18&#45;&gt;Node20</title>
<path fill="none" stroke="midnightblue" d="M774.087,-168.066C987.149,-126.124 1046.33,-148.499 1259,-132 1338.03,-125.869 1428.9,-118.445 1488.88,-113.493"/>
<polygon fill="midnightblue" stroke="midnightblue" points="773.276,-164.659 764.153,-170.046 774.644,-171.524 773.276,-164.659"/>
</g>
<!-- Node22 -->
<g id="node47" class="node"><title>Node22</title>
<a xlink:href="etaprime__proton_8h.html" target="_top" xlink:title="src/analysis/physics\l/etaprime/etaprime_proton.h">
<polygon fill="white" stroke="black" points="446,-91 446,-125 584,-125 584,-91 446,-91"/>
<text text-anchor="start" x="454" y="-112" font-family="Helvetica,sans-Serif" font-size="10.00">src/analysis/physics</text>
<text text-anchor="middle" x="515" y="-99" font-family="Helvetica,sans-Serif" font-size="10.00">/etaprime/etaprime_proton.h</text>
</a>
</g>
<!-- Node18&#45;&gt;Node22 -->
<g id="edge50" class="edge"><title>Node18&#45;&gt;Node22</title>
<path fill="none" stroke="midnightblue" d="M665.032,-165.365C632.204,-152.813 590.775,-136.973 559.774,-125.119"/>
<polygon fill="midnightblue" stroke="midnightblue" points="663.893,-168.677 674.483,-168.979 666.393,-162.138 663.893,-168.677"/>
</g>
<!-- Node24 -->
<g id="node51" class="node"><title>Node24</title>
<a xlink:href="_find_proton_8h.html" target="_top" xlink:title="src/analysis/physics\l/omega/FindProton.h">
<polygon fill="white" stroke="black" points="601.5,-91 601.5,-125 708.5,-125 708.5,-91 601.5,-91"/>
<text text-anchor="start" x="609.5" y="-112" font-family="Helvetica,sans-Serif" font-size="10.00">src/analysis/physics</text>
<text text-anchor="middle" x="655" y="-99" font-family="Helvetica,sans-Serif" font-size="10.00">/omega/FindProton.h</text>
</a>
</g>
<!-- Node18&#45;&gt;Node24 -->
<g id="edge54" class="edge"><title>Node18&#45;&gt;Node24</title>
<path fill="none" stroke="midnightblue" d="M698.201,-160.652C688.7,-149.072 677.691,-135.654 669.164,-125.262"/>
<polygon fill="midnightblue" stroke="midnightblue" points="695.747,-163.179 704.796,-168.689 701.159,-158.738 695.747,-163.179"/>
</g>
<!-- Node26 -->
<g id="node55" class="node"><title>Node26</title>
<a xlink:href="omega_8h.html" target="_top" xlink:title="src/analysis/physics\l/omega/omega.h">
<polygon fill="white" stroke="black" points="198,-91 198,-125 304,-125 304,-91 198,-91"/>
<text text-anchor="start" x="206" y="-112" font-family="Helvetica,sans-Serif" font-size="10.00">src/analysis/physics</text>
<text text-anchor="middle" x="251" y="-99" font-family="Helvetica,sans-Serif" font-size="10.00">/omega/omega.h</text>
</a>
</g>
<!-- Node18&#45;&gt;Node26 -->
<g id="edge58" class="edge"><title>Node18&#45;&gt;Node26</title>
<path fill="none" stroke="midnightblue" d="M663.971,-168.061C509.35,-136.291 462.779,-167.96 313,-132 305.593,-130.222 297.884,-127.765 290.521,-125.098"/>
<polygon fill="midnightblue" stroke="midnightblue" points="663.32,-171.5 673.828,-170.141 664.766,-164.651 663.32,-171.5"/>
</g>
<!-- Node28 -->
<g id="node60" class="node"><title>Node28</title>
<a xlink:href="_just_pi0_8h.html" target="_top" xlink:title="src/analysis/physics\l/pi0/JustPi0.h">
<polygon fill="white" stroke="black" points="726,-91 726,-125 832,-125 832,-91 726,-91"/>
<text text-anchor="start" x="734" y="-112" font-family="Helvetica,sans-Serif" font-size="10.00">src/analysis/physics</text>
<text text-anchor="middle" x="779" y="-99" font-family="Helvetica,sans-Serif" font-size="10.00">/pi0/JustPi0.h</text>
</a>
</g>
<!-- Node18&#45;&gt;Node28 -->
<g id="edge64" class="edge"><title>Node18&#45;&gt;Node28</title>
<path fill="none" stroke="midnightblue" d="M738.499,-160.652C747.406,-149.072 757.727,-135.654 765.721,-125.262"/>
<polygon fill="midnightblue" stroke="midnightblue" points="735.639,-158.629 732.316,-168.689 741.187,-162.897 735.639,-158.629"/>
</g>
<!-- Node30 -->
<g id="node64" class="node"><title>Node30</title>
<a xlink:href="_kin_fit_pi0_8h.html" target="_top" xlink:title="src/analysis/physics\l/pi0/KinFitPi0.h">
<polygon fill="white" stroke="black" points="322,-91 322,-125 428,-125 428,-91 322,-91"/>
<text text-anchor="start" x="330" y="-112" font-family="Helvetica,sans-Serif" font-size="10.00">src/analysis/physics</text>
<text text-anchor="middle" x="375" y="-99" font-family="Helvetica,sans-Serif" font-size="10.00">/pi0/KinFitPi0.h</text>
</a>
</g>
<!-- Node18&#45;&gt;Node30 -->
<g id="edge68" class="edge"><title>Node18&#45;&gt;Node30</title>
<path fill="none" stroke="midnightblue" d="M663.845,-167.949C563.434,-144.592 532.966,-157.834 437,-132 429.867,-130.08 422.425,-127.62 415.275,-125.01"/>
<polygon fill="midnightblue" stroke="midnightblue" points="663.245,-171.404 673.785,-170.326 664.873,-164.596 663.245,-171.404"/>
</g>
<!-- Node32 -->
<g id="node68" class="node"><title>Node32</title>
<a xlink:href="_fitter_8cc.html" target="_top" xlink:title="src/analysis/utils\l/Fitter.cc">
<polygon fill="white" stroke="black" points="994,-91 994,-125 1084,-125 1084,-91 994,-91"/>
<text text-anchor="start" x="1002" y="-112" font-family="Helvetica,sans-Serif" font-size="10.00">src/analysis/utils</text>
<text text-anchor="middle" x="1039" y="-99" font-family="Helvetica,sans-Serif" font-size="10.00">/Fitter.cc</text>
</a>
</g>
<!-- Node18&#45;&gt;Node32 -->
<g id="edge72" class="edge"><title>Node18&#45;&gt;Node32</title>
<path fill="none" stroke="midnightblue" d="M774.095,-167.951C867.633,-145.757 896.546,-158.706 985,-132 991.286,-130.102 997.804,-127.653 1004.04,-125.048"/>
<polygon fill="midnightblue" stroke="midnightblue" points="773.107,-164.589 764.224,-170.365 774.77,-171.389 773.107,-164.589"/>
</g>
<!-- Node33 -->
<g id="node70" class="node"><title>Node33</title>
<a xlink:href="root-addons_2analysis__codes_2_extract_resolutions_8cc.html" target="_top" xlink:title="src/root&#45;addons/analysis\l_codes/ExtractResolutions.cc">
<polygon fill="white" stroke="black" points="1102,-91 1102,-125 1250,-125 1250,-91 1102,-91"/>
<text text-anchor="start" x="1110" y="-112" font-family="Helvetica,sans-Serif" font-size="10.00">src/root&#45;addons/analysis</text>
<text text-anchor="middle" x="1176" y="-99" font-family="Helvetica,sans-Serif" font-size="10.00">_codes/ExtractResolutions.cc</text>
</a>
</g>
<!-- Node18&#45;&gt;Node33 -->
<g id="edge74" class="edge"><title>Node18&#45;&gt;Node33</title>
<path fill="none" stroke="midnightblue" d="M774.03,-168.037C914.608,-138.199 955.794,-159.35 1093,-132 1102.41,-130.123 1112.31,-127.685 1121.86,-125.083"/>
<polygon fill="midnightblue" stroke="midnightblue" points="773.21,-164.633 764.18,-170.175 774.695,-171.474 773.21,-164.633"/>
</g>
<!-- Node19&#45;&gt;Node12 -->
<g id="edge42" class="edge"><title>Node19&#45;&gt;Node12</title>
<path fill="none" stroke="midnightblue" d="M961.25,-86.5555C993.046,-72.424 1034.11,-54.1717 1063.67,-41.0346"/>
<polygon fill="midnightblue" stroke="midnightblue" points="959.42,-83.5389 951.703,-90.7986 962.263,-89.9355 959.42,-83.5389"/>
</g>
<!-- Node20&#45;&gt;Node6 -->
<g id="edge48" class="edge"><title>Node20&#45;&gt;Node6</title>
<path fill="none" stroke="midnightblue" d="M1631.05,-88.9306C1689.17,-74.3572 1768.47,-54.4724 1823.95,-40.5612"/>
<polygon fill="midnightblue" stroke="midnightblue" points="1630.03,-85.5772 1621.19,-91.4043 1631.74,-92.367 1630.03,-85.5772"/>
</g>
<!-- Node21 -->
<g id="node44" class="node"><title>Node21</title>
<a xlink:href="_etap_omega_g__plot_8cc.html" target="_top" xlink:title="progs/EtapOmegaG_plot.cc">
<polygon fill="white" stroke="black" points="1486.5,-13.5 1486.5,-34.5 1623.5,-34.5 1623.5,-13.5 1486.5,-13.5"/>
<text text-anchor="middle" x="1555" y="-21.5" font-family="Helvetica,sans-Serif" font-size="10.00">progs/EtapOmegaG_plot.cc</text>
</a>
</g>
<!-- Node20&#45;&gt;Node21 -->
<g id="edge46" class="edge"><title>Node20&#45;&gt;Node21</title>
<path fill="none" stroke="midnightblue" d="M1555,-73.772C1555,-59.7488 1555,-44.5279 1555,-34.66"/>
<polygon fill="midnightblue" stroke="midnightblue" points="1551.5,-74.1536 1555,-84.1537 1558.5,-74.1537 1551.5,-74.1536"/>
</g>
<!-- Node23 -->
<g id="node49" class="node"><title>Node23</title>
<a xlink:href="etaprime__proton_8cc.html" target="_top" xlink:title="src/analysis/physics\l/etaprime/etaprime_proton.cc">
<polygon fill="white" stroke="black" points="445.5,-7 445.5,-41 588.5,-41 588.5,-7 445.5,-7"/>
<text text-anchor="start" x="453.5" y="-28" font-family="Helvetica,sans-Serif" font-size="10.00">src/analysis/physics</text>
<text text-anchor="middle" x="517" y="-15" font-family="Helvetica,sans-Serif" font-size="10.00">/etaprime/etaprime_proton.cc</text>
</a>
</g>
<!-- Node22&#45;&gt;Node23 -->
<g id="edge52" class="edge"><title>Node22&#45;&gt;Node23</title>
<path fill="none" stroke="midnightblue" d="M515.659,-80.3304C515.967,-67.3804 516.325,-52.3652 516.593,-41.0952"/>
<polygon fill="midnightblue" stroke="midnightblue" points="512.154,-80.5146 515.414,-90.5951 519.152,-80.6813 512.154,-80.5146"/>
</g>
<!-- Node25 -->
<g id="node53" class="node"><title>Node25</title>
<a xlink:href="_find_proton_8cc.html" target="_top" xlink:title="src/analysis/physics\l/omega/FindProton.cc">
<polygon fill="white" stroke="black" points="605.5,-7 605.5,-41 718.5,-41 718.5,-7 605.5,-7"/>
<text text-anchor="start" x="613.5" y="-28" font-family="Helvetica,sans-Serif" font-size="10.00">src/analysis/physics</text>
<text text-anchor="middle" x="662" y="-15" font-family="Helvetica,sans-Serif" font-size="10.00">/omega/FindProton.cc</text>
</a>
</g>
<!-- Node24&#45;&gt;Node25 -->
<g id="edge56" class="edge"><title>Node24&#45;&gt;Node25</title>
<path fill="none" stroke="midnightblue" d="M657.306,-80.3304C658.385,-67.3804 659.636,-52.3652 660.575,-41.0952"/>
<polygon fill="midnightblue" stroke="midnightblue" points="653.793,-80.339 656.45,-90.5951 660.769,-80.9204 653.793,-80.339"/>
</g>
<!-- Node26&#45;&gt;Node14 -->
<g id="edge62" class="edge"><title>Node26&#45;&gt;Node14</title>
<path fill="none" stroke="midnightblue" d="M210.676,-86.0053C184.913,-71.9528 152.003,-54.0018 128.23,-41.0346"/>
<polygon fill="midnightblue" stroke="midnightblue" points="209.009,-89.0827 219.464,-90.7986 212.361,-82.9374 209.009,-89.0827"/>
</g>
<!-- Node27 -->
<g id="node57" class="node"><title>Node27</title>
<a xlink:href="_omega_eta_g2__plot_8cc.html" target="_top" xlink:title="Plotting tool for TTrees from the ant::analysis::physics::OmegaEtaG2 physics class. ">
<polygon fill="white" stroke="black" points="167.5,-13.5 167.5,-34.5 304.5,-34.5 304.5,-13.5 167.5,-13.5"/>
<text text-anchor="middle" x="236" y="-21.5" font-family="Helvetica,sans-Serif" font-size="10.00">progs/OmegaEtaG2_plot.cc</text>
</a>
</g>
<!-- Node26&#45;&gt;Node27 -->
<g id="edge60" class="edge"><title>Node26&#45;&gt;Node27</title>
<path fill="none" stroke="midnightblue" d="M246.083,-80.4641C243.315,-64.9618 240.012,-46.4648 237.96,-34.9734"/>
<polygon fill="midnightblue" stroke="midnightblue" points="242.689,-81.3662 247.892,-90.5951 249.58,-80.1356 242.689,-81.3662"/>
</g>
<!-- Node29 -->
<g id="node62" class="node"><title>Node29</title>
<a xlink:href="_just_pi0_8cc.html" target="_top" xlink:title="src/analysis/physics\l/pi0/JustPi0.cc">
<polygon fill="white" stroke="black" points="736,-7 736,-41 842,-41 842,-7 736,-7"/>
<text text-anchor="start" x="744" y="-28" font-family="Helvetica,sans-Serif" font-size="10.00">src/analysis/physics</text>
<text text-anchor="middle" x="789" y="-15" font-family="Helvetica,sans-Serif" font-size="10.00">/pi0/JustPi0.cc</text>
</a>
</g>
<!-- Node28&#45;&gt;Node29 -->
<g id="edge66" class="edge"><title>Node28&#45;&gt;Node29</title>
<path fill="none" stroke="midnightblue" d="M782.294,-80.3304C783.836,-67.3804 785.623,-52.3652 786.965,-41.0952"/>
<polygon fill="midnightblue" stroke="midnightblue" points="778.779,-80.2515 781.072,-90.5951 785.73,-81.079 778.779,-80.2515"/>
</g>
<!-- Node31 -->
<g id="node66" class="node"><title>Node31</title>
<a xlink:href="_kin_fit_pi0_8cc.html" target="_top" xlink:title="src/analysis/physics\l/pi0/KinFitPi0.cc">
<polygon fill="white" stroke="black" points="322,-7 322,-41 428,-41 428,-7 322,-7"/>
<text text-anchor="start" x="330" y="-28" font-family="Helvetica,sans-Serif" font-size="10.00">src/analysis/physics</text>
<text text-anchor="middle" x="375" y="-15" font-family="Helvetica,sans-Serif" font-size="10.00">/pi0/KinFitPi0.cc</text>
</a>
</g>
<!-- Node30&#45;&gt;Node31 -->
<g id="edge70" class="edge"><title>Node30&#45;&gt;Node31</title>
<path fill="none" stroke="midnightblue" d="M375,-80.3304C375,-67.3804 375,-52.3652 375,-41.0952"/>
<polygon fill="midnightblue" stroke="midnightblue" points="371.5,-80.5951 375,-90.5951 378.5,-80.5952 371.5,-80.5951"/>
</g>
</g>
</svg>
